<svg xmlns="http://www.w3.org/2000/svg" width="960" height="520" viewBox="0 0 960 520"><rect width="100%" height="100%" fill="white" />
<text x="56.00" y="32.00" font-size="20" font-family="Arial" fill="#1f2933" text-anchor="start">元大台灣50(0050) Price / Volume</text>
<line x1="56" y1="244" x2="904" y2="244" stroke="#cbd2d9" />
<line x1="56" y1="56" x2="56" y2="244" stroke="#cbd2d9" />
<text x="16.00" y="38.00" font-size="12" font-family="Arial" fill="#52606d" text-anchor="start">Price</text>
<line x1="56" y1="244.00" x2="904" y2="244.00" stroke="#edf2f7" />
<line x1="52" y1="244.00" x2="56" y2="244.00" stroke="#9fb3c8" />
<text x="48.00" y="248.00" font-size="11" font-family="Arial" fill="#52606d" text-anchor="end">41.7</text>
<line x1="56" y1="197.00" x2="904" y2="197.00" stroke="#edf2f7" />
<line x1="52" y1="197.00" x2="56" y2="197.00" stroke="#9fb3c8" />
<text x="48.00" y="201.00" font-size="11" font-family="Arial" fill="#52606d" text-anchor="end">60.1</text>
<line x1="56" y1="150.00" x2="904" y2="150.00" stroke="#edf2f7" />
<line x1="52" y1="150.00" x2="56" y2="150.00" stroke="#9fb3c8" />
<text x="48.00" y="154.00" font-size="11" font-family="Arial" fill="#52606d" text-anchor="end">78.4</text>
<line x1="56" y1="103.00" x2="904" y2="103.00" stroke="#edf2f7" />
<line x1="52" y1="103.00" x2="56" y2="103.00" stroke="#9fb3c8" />
<text x="48.00" y="107.00" font-size="11" font-family="Arial" fill="#52606d" text-anchor="end">96.7</text>
<line x1="56" y1="56.00" x2="904" y2="56.00" stroke="#edf2f7" />
<line x1="52" y1="56.00" x2="56" y2="56.00" stroke="#9fb3c8" />
<text x="48.00" y="60.00" font-size="11" font-family="Arial" fill="#52606d" text-anchor="end">115</text>
<polyline fill="none" stroke="#1f77b4" stroke-width="2" points="56.00,231.59 59.27,232.77 62.55,232.95 65.82,233.93 69.10,231.79 72.37,230.06 75.64,229.91 78.92,229.79 82.19,229.61 85.47,228.91 88.74,228.88 92.02,227.20 95.29,228.36 98.56,229.08 101.84,229.64 105.11,228.38 108.39,226.98 111.66,226.45 114.93,227.18 118.21,225.49 121.48,224.49 124.76,223.74 128.03,221.86 131.31,222.34 134.58,223.22 137.85,222.84 141.13,222.08 144.40,222.34 147.68,221.96 150.95,223.47 154.22,222.08 157.50,220.69 160.77,221.83 164.05,222.59 167.32,220.95 170.59,222.08 173.87,218.42 177.14,218.42 180.42,217.41 183.69,217.28 186.97,216.14 190.24,216.65 193.51,216.65 196.79,216.27 200.06,216.52 203.34,220.31 206.61,219.55 209.88,220.19 213.16,217.79 216.43,217.66 219.71,217.03 222.98,218.29 226.25,218.29 229.53,219.55 232.80,219.55 236.08,219.68 239.35,218.80 242.63,217.41 245.90,216.14 249.17,214.75 252.45,212.10 255.72,210.83 259.00,209.44 262.27,209.44 265.54,207.55 268.82,208.56 272.09,207.04 275.37,206.92 278.64,205.90 281.92,203.25 285.19,203.38 288.46,203.88 291.74,206.28 295.01,204.89 298.29,204.14 301.56,201.35 304.83,199.21 308.11,195.04 311.38,196.43 314.66,195.29 317.93,196.80 321.20,197.56 324.48,194.78 327.75,191.75 331.03,194.15 334.30,191.50 337.58,191.24 340.85,192.51 344.12,193.39 347.40,189.73 350.67,190.86 353.95,188.21 357.22,188.21 360.49,187.33 363.77,188.84 367.04,189.35 370.32,191.37 373.59,190.99 376.86,192.89 380.14,190.86 383.41,192.00 386.69,191.24 389.96,192.00 393.24,195.04 396.51,194.53 399.78,198.20 403.06,199.21 406.33,194.53 409.61,199.71 412.88,200.47 416.15,198.45 419.43,195.92 422.70,194.53 425.98,193.39 429.25,195.54 432.53,195.04 435.80,193.52 439.07,193.77 442.35,192.38 445.62,189.98 448.90,190.23 452.17,189.10 455.44,190.86 458.72,190.61 461.99,192.25 465.27,193.65 468.54,194.53 471.81,194.53 475.09,193.01 478.36,190.74 481.64,189.98 484.91,189.60 488.19,188.21 491.46,186.06 494.73,186.31 498.01,185.18 501.28,181.76 504.56,175.32 507.83,173.04 511.10,174.43 514.38,173.80 517.65,174.43 520.93,173.17 524.20,172.29 527.47,172.16 530.75,172.41 534.02,169.00 537.30,167.48 540.57,167.48 543.85,169.38 547.12,166.94 550.39,165.79 553.67,165.79 556.94,163.74 560.22,160.79 563.49,161.94 566.76,164.89 570.04,167.71 573.31,164.00 576.59,164.12 579.86,166.43 583.14,166.69 586.41,161.43 589.68,157.46 592.96,153.10 596.23,152.59 599.51,147.46 602.78,143.10 606.05,142.97 609.33,145.03 612.60,149.13 615.88,157.20 619.15,152.59 622.42,154.00 625.70,162.33 628.97,158.23 632.25,150.54 635.52,154.64 638.80,156.30 642.07,157.20 645.34,154.51 648.62,151.56 651.89,156.18 655.17,156.43 658.44,160.66 661.71,160.28 664.99,155.66 668.26,156.69 671.54,158.74 674.81,161.56 678.08,165.53 681.36,157.59 684.63,161.43 687.91,157.97 691.18,147.97 694.46,148.10 697.73,144.00 701.00,144.38 704.28,137.98 707.55,135.28 710.83,133.11 714.10,135.28 717.37,134.26 720.65,130.54 723.92,129.65 727.20,129.65 730.47,120.42 733.75,112.60 737.02,115.16 740.29,118.37 743.57,119.01 746.84,108.50 750.12,108.50 753.39,105.55 756.66,100.55 759.94,102.34 763.21,102.60 766.49,102.73 769.76,106.19 773.03,104.78 776.31,106.45 779.58,107.73 782.86,112.34 786.13,113.88 789.41,105.29 792.68,101.58 795.95,92.60 799.23,94.40 802.50,88.12 805.78,93.37 809.05,80.81 812.32,80.55 815.60,80.04 818.87,75.17 822.15,79.02 825.42,84.02 828.69,92.22 831.97,85.68 835.24,94.01 838.52,95.04 841.79,89.66 845.07,81.20 848.34,79.53 851.61,79.27 854.89,75.94 858.16,66.07 861.44,68.76 864.71,76.33 867.98,76.20 871.26,86.71 874.53,83.25 877.81,74.66 881.08,70.69 884.36,72.10 887.63,73.25 890.90,73.51 894.18,78.76 897.45,79.15 900.73,79.79 904.00,79.79" />
<line x1="56" y1="470" x2="904" y2="470" stroke="#cbd2d9" />
<line x1="56" y1="370" x2="56" y2="470" stroke="#cbd2d9" />
<text x="16.00" y="362.00" font-size="12" font-family="Arial" fill="#52606d" text-anchor="start">Volume</text>
<line x1="56" y1="470.00" x2="904" y2="470.00" stroke="#edf2f7" />
<line x1="52" y1="470.00" x2="56" y2="470.00" stroke="#9fb3c8" />
<text x="48.00" y="474.00" font-size="11" font-family="Arial" fill="#52606d" text-anchor="end">0</text>
<line x1="56" y1="420.00" x2="904" y2="420.00" stroke="#edf2f7" />
<line x1="52" y1="420.00" x2="56" y2="420.00" stroke="#9fb3c8" />
<text x="48.00" y="424.00" font-size="11" font-family="Arial" fill="#52606d" text-anchor="end">246.9M</text>
<line x1="56" y1="370.00" x2="904" y2="370.00" stroke="#edf2f7" />
<line x1="52" y1="370.00" x2="56" y2="370.00" stroke="#9fb3c8" />
<text x="48.00" y="374.00" font-size="11" font-family="Arial" fill="#52606d" text-anchor="end">493.9M</text>
<line x1="56.00" y1="470" x2="56.00" y2="474" stroke="#9fb3c8" />
<text x="56.00" y="488.00" font-size="11" font-family="Arial" fill="#52606d" text-anchor="middle">06/18</text>
<line x1="226.25" y1="470" x2="226.25" y2="474" stroke="#9fb3c8" />
<text x="226.25" y="488.00" font-size="11" font-family="Arial" fill="#52606d" text-anchor="middle">08/29</text>
<line x1="396.51" y1="470" x2="396.51" y2="474" stroke="#9fb3c8" />
<text x="396.51" y="488.00" font-size="11" font-family="Arial" fill="#52606d" text-anchor="middle">11/17</text>
<line x1="563.49" y1="470" x2="563.49" y2="474" stroke="#9fb3c8" />
<text x="563.49" y="488.00" font-size="11" font-family="Arial" fill="#52606d" text-anchor="middle">01/29</text>
<line x1="733.75" y1="470" x2="733.75" y2="474" stroke="#9fb3c8" />
<text x="733.75" y="488.00" font-size="11" font-family="Arial" fill="#52606d" text-anchor="middle">04/27</text>
<line x1="904.00" y1="470" x2="904.00" y2="474" stroke="#9fb3c8" />
<text x="904.00" y="488.00" font-size="11" font-family="Arial" fill="#52606d" text-anchor="middle">07/10</text>
<rect x="56.0" y="420.45511593467535" width="2" height="49.54488406532464" fill="#8aa6c1" opacity="0.75" />
<rect x="59.27413127413127" y="436.3316016393927" width="2" height="33.66839836060728" fill="#8aa6c1" opacity="0.75" />
<rect x="62.54826254826255" y="453.6883566428328" width="2" height="16.31164335716724" fill="#8aa6c1" opacity="0.75" />
<rect x="65.82239382239382" y="449.36006282368027" width="2" height="20.639937176319755" fill="#8aa6c1" opacity="0.75" />
<rect x="69.0965250965251" y="458.95005084125984" width="2" height="11.04994915874014" fill="#8aa6c1" opacity="0.75" />
<rect x="72.37065637065638" y="454.24454726981827" width="2" height="15.75545273018173" fill="#8aa6c1" opacity="0.75" />
<rect x="75.64478764478764" y="454.35254597074413" width="2" height="15.647454029255895" fill="#8aa6c1" opacity="0.75" />
<rect x="78.91891891891892" y="450.9288358019657" width="2" height="19.0711641980343" fill="#8aa6c1" opacity="0.75" />
<rect x="82.1930501930502" y="458.03653970052454" width="2" height="11.96346029947547" fill="#8aa6c1" opacity="0.75" />
<rect x="85.46718146718146" y="454.88026205014796" width="2" height="15.119737949852011" fill="#8aa6c1" opacity="0.75" />
<rect x="88.74131274131274" y="454.80005576138177" width="2" height="15.199944238618219" fill="#8aa6c1" opacity="0.75" />
<rect x="92.01544401544402" y="457.6127669672328" width="2" height="12.387233032767202" fill="#8aa6c1" opacity="0.75" />
<rect x="95.28957528957528" y="455.075146864627" width="2" height="14.924853135373004" fill="#8aa6c1" opacity="0.75" />
<rect x="98.56370656370656" y="454.1051154689848" width="2" height="15.894884531015194" fill="#8aa6c1" opacity="0.75" />
<rect x="101.83783783783784" y="459.8327857082404" width="2" height="10.167214291759585" fill="#8aa6c1" opacity="0.75" />
<rect x="105.1119691119691" y="462.1966173858076" width="2" height="7.803382614192385" fill="#8aa6c1" opacity="0.75" />
<rect x="108.3861003861004" y="459.2507899529086" width="2" height="10.749210047091438" fill="#8aa6c1" opacity="0.75" />
<rect x="111.66023166023166" y="460.938761489902" width="2" height="9.061238510097994" fill="#8aa6c1" opacity="0.75" />
<rect x="114.93436293436294" y="457.3856936217807" width="2" height="12.61430637821929" fill="#8aa6c1" opacity="0.75" />
<rect x="118.20849420849422" y="456.23012949031994" width="2" height="13.769870509680088" fill="#8aa6c1" opacity="0.75" />
<rect x="121.48262548262548" y="451.7305081169863" width="2" height="18.269491883013675" fill="#8aa6c1" opacity="0.75" />
<rect x="124.75675675675676" y="452.1346074491861" width="2" height="17.865392550813926" fill="#8aa6c1" opacity="0.75" />
<rect x="128.03088803088804" y="448.56577251380975" width="2" height="21.43422748619025" fill="#8aa6c1" opacity="0.75" />
<rect x="131.3050193050193" y="454.6538803564031" width="2" height="15.346119643596898" fill="#8aa6c1" opacity="0.75" />
<rect x="134.57915057915056" y="452.0118977861881" width="2" height="17.988102213811896" fill="#8aa6c1" opacity="0.75" />
<rect x="137.85328185328186" y="457.088852947477" width="2" height="12.911147052523011" fill="#8aa6c1" opacity="0.75" />
<rect x="141.12741312741312" y="453.8709454044644" width="2" height="16.129054595535607" fill="#8aa6c1" opacity="0.75" />
<rect x="144.4015444015444" y="462.1803694424388" width="2" height="7.819630557561174" fill="#8aa6c1" opacity="0.75" />
<rect x="147.67567567567568" y="459.4080170045893" width="2" height="10.59198299541072" fill="#8aa6c1" opacity="0.75" />
<rect x="150.94980694980694" y="449.22124573437577" width="2" height="20.778754265624222" fill="#8aa6c1" opacity="0.75" />
<rect x="154.2239382239382" y="453.23368108944055" width="2" height="16.766318910559473" fill="#8aa6c1" opacity="0.75" />
<rect x="157.4980694980695" y="453.4850217720457" width="2" height="16.51497822795431" fill="#8aa6c1" opacity="0.75" />
<rect x="160.7722007722008" y="450.1097942417161" width="2" height="19.890205758283926" fill="#8aa6c1" opacity="0.75" />
<rect x="164.04633204633205" y="452.67711467042676" width="2" height="17.322885329573253" fill="#8aa6c1" opacity="0.75" />
<rect x="167.32046332046332" y="460.55350177023155" width="2" height="9.446498229768478" fill="#8aa6c1" opacity="0.75" />
<rect x="170.59459459459458" y="460.2151854804975" width="2" height="9.784814519502513" fill="#8aa6c1" opacity="0.75" />
<rect x="173.86872586872587" y="444.54228551204295" width="2" height="25.45771448795704" fill="#8aa6c1" opacity="0.75" />
<rect x="177.14285714285714" y="457.93173057493345" width="2" height="12.068269425066543" fill="#8aa6c1" opacity="0.75" />
<rect x="180.41698841698843" y="455.50267751820144" width="2" height="14.497322481798586" fill="#8aa6c1" opacity="0.75" />
<rect x="183.6911196911197" y="458.3537201183583" width="2" height="11.646279881641709" fill="#8aa6c1" opacity="0.75" />
<rect x="186.96525096525096" y="454.6208440661507" width="2" height="15.379155933849265" fill="#8aa6c1" opacity="0.75" />
<rect x="190.23938223938225" y="458.45110552912365" width="2" height="11.54889447087632" fill="#8aa6c1" opacity="0.75" />
<rect x="193.51351351351352" y="459.3222402469213" width="2" height="10.677759753078721" fill="#8aa6c1" opacity="0.75" />
<rect x="196.78764478764478" y="460.6260103966428" width="2" height="9.373989603357183" fill="#8aa6c1" opacity="0.75" />
<rect x="200.06177606177607" y="464.04202776244597" width="2" height="5.9579722375540145" fill="#8aa6c1" opacity="0.75" />
<rect x="203.33590733590734" y="424.6865404496789" width="2" height="45.313459550321106" fill="#8aa6c1" opacity="0.75" />
<rect x="206.6100386100386" y="455.1163821432375" width="2" height="14.883617856762497" fill="#8aa6c1" opacity="0.75" />
<rect x="209.8841698841699" y="460.97995202172467" width="2" height="9.020047978275333" fill="#8aa6c1" opacity="0.75" />
<rect x="213.15830115830116" y="457.2947345381625" width="2" height="12.70526546183747" fill="#8aa6c1" opacity="0.75" />
<rect x="216.43243243243242" y="461.7261225268288" width="2" height="8.273877473171162" fill="#8aa6c1" opacity="0.75" />
<rect x="219.7065637065637" y="451.75025906567896" width="2" height="18.24974093432103" fill="#8aa6c1" opacity="0.75" />
<rect x="222.98069498069498" y="458.01837614919265" width="2" height="11.981623850807326" fill="#8aa6c1" opacity="0.75" />
<rect x="226.25482625482624" y="462.6361557690353" width="2" height="7.363844230964696" fill="#8aa6c1" opacity="0.75" />
<rect x="229.52895752895753" y="454.5046569055227" width="2" height="15.495343094477274" fill="#8aa6c1" opacity="0.75" />
<rect x="232.8030888030888" y="463.27429214023687" width="2" height="6.725707859763162" fill="#8aa6c1" opacity="0.75" />
<rect x="236.0772200772201" y="462.0078584268325" width="2" height="7.992141573167477" fill="#8aa6c1" opacity="0.75" />
<rect x="239.35135135135135" y="462.4150669521282" width="2" height="7.584933047871774" fill="#8aa6c1" opacity="0.75" />
<rect x="242.62548262548262" y="462.42841830026185" width="2" height="7.57158169973812" fill="#8aa6c1" opacity="0.75" />
<rect x="245.8996138996139" y="457.85541968639996" width="2" height="12.144580313600068" fill="#8aa6c1" opacity="0.75" />
<rect x="249.17374517374517" y="458.59760246305757" width="2" height="11.402397536942422" fill="#8aa6c1" opacity="0.75" />
<rect x="252.44787644787644" y="455.164289350143" width="2" height="14.835710649856992" fill="#8aa6c1" opacity="0.75" />
<rect x="255.72200772200773" y="452.8402663183031" width="2" height="17.159733681696864" fill="#8aa6c1" opacity="0.75" />
<rect x="258.996138996139" y="458.3663984424068" width="2" height="11.633601557593165" fill="#8aa6c1" opacity="0.75" />
<rect x="262.27027027027026" y="459.36105960393627" width="2" height="10.638940396063742" fill="#8aa6c1" opacity="0.75" />
<rect x="265.5444015444016" y="457.1804650102391" width="2" height="12.819534989760884" fill="#8aa6c1" opacity="0.75" />
<rect x="268.81853281853284" y="456.5953920527275" width="2" height="13.40460794727249" fill="#8aa6c1" opacity="0.75" />
<rect x="272.0926640926641" y="461.0729980064395" width="2" height="8.927001993560513" fill="#8aa6c1" opacity="0.75" />
<rect x="275.3667953667954" y="455.4877624621829" width="2" height="14.51223753781711" fill="#8aa6c1" opacity="0.75" />
<rect x="278.64092664092664" y="458.5894943855942" width="2" height="11.410505614405793" fill="#8aa6c1" opacity="0.75" />
<rect x="281.9150579150579" y="451.9430598136995" width="2" height="18.05694018630052" fill="#8aa6c1" opacity="0.75" />
<rect x="285.18918918918916" y="451.6599102391584" width="2" height="18.34008976084158" fill="#8aa6c1" opacity="0.75" />
<rect x="288.46332046332043" y="458.59701670533246" width="2" height="11.40298329466752" fill="#8aa6c1" opacity="0.75" />
<rect x="291.73745173745175" y="437.8948000992933" width="2" height="32.10519990070668" fill="#8aa6c1" opacity="0.75" />
<rect x="295.011583011583" y="457.367645278242" width="2" height="12.632354721757993" fill="#8aa6c1" opacity="0.75" />
<rect x="298.2857142857143" y="454.9092373163104" width="2" height="15.090762683689613" fill="#8aa6c1" opacity="0.75" />
<rect x="301.5598455598456" y="455.4103193381849" width="2" height="14.589680661815116" fill="#8aa6c1" opacity="0.75" />
<rect x="304.83397683397686" y="455.0975915294533" width="2" height="14.902408470546694" fill="#8aa6c1" opacity="0.75" />
<rect x="308.1081081081081" y="443.1962581966599" width="2" height="26.803741803340092" fill="#8aa6c1" opacity="0.75" />
<rect x="311.3822393822394" y="447.2321637481367" width="2" height="22.76783625186327" fill="#8aa6c1" opacity="0.75" />
<rect x="314.65637065637065" y="455.2373480988284" width="2" height="14.762651901171555" fill="#8aa6c1" opacity="0.75" />
<rect x="317.9305019305019" y="416.9947024662567" width="2" height="53.00529753374333" fill="#8aa6c1" opacity="0.75" />
<rect x="321.2046332046332" y="438.1814727240994" width="2" height="31.818527275900593" fill="#8aa6c1" opacity="0.75" />
<rect x="324.4787644787645" y="450.3162455946686" width="2" height="19.68375440533139" fill="#8aa6c1" opacity="0.75" />
<rect x="327.75289575289577" y="447.1359919674454" width="2" height="22.864008032554604" fill="#8aa6c1" opacity="0.75" />
<rect x="331.02702702702703" y="438.0933600221264" width="2" height="31.906639977873624" fill="#8aa6c1" opacity="0.75" />
<rect x="334.3011583011583" y="449.16940303735527" width="2" height="20.830596962644734" fill="#8aa6c1" opacity="0.75" />
<rect x="337.57528957528956" y="444.70466289875765" width="2" height="25.295337101242342" fill="#8aa6c1" opacity="0.75" />
<rect x="340.8494208494208" y="446.37930252513615" width="2" height="23.620697474863846" fill="#8aa6c1" opacity="0.75" />
<rect x="344.12355212355214" y="437.3296248842354" width="2" height="32.6703751157646" fill="#8aa6c1" opacity="0.75" />
<rect x="347.3976833976834" y="449.28741368020667" width="2" height="20.712586319793346" fill="#8aa6c1" opacity="0.75" />
<rect x="350.6718146718147" y="451.02191701718317" width="2" height="18.97808298281683" fill="#8aa6c1" opacity="0.75" />
<rect x="353.94594594594594" y="456.79737115658503" width="2" height="13.202628843414994" fill="#8aa6c1" opacity="0.75" />
<rect x="357.2200772200772" y="451.5598760615214" width="2" height="18.440123938478635" fill="#8aa6c1" opacity="0.75" />
<rect x="360.4942084942085" y="459.1413265539588" width="2" height="10.858673446041246" fill="#8aa6c1" opacity="0.75" />
<rect x="363.7683397683398" y="443.54902243454114" width="2" height="26.45097756545888" fill="#8aa6c1" opacity="0.75" />
<rect x="367.04247104247105" y="453.1705952051691" width="2" height="16.829404794830914" fill="#8aa6c1" opacity="0.75" />
<rect x="370.3166023166023" y="427.2783790810184" width="2" height="42.72162091898159" fill="#8aa6c1" opacity="0.75" />
<rect x="373.5907335907336" y="456.72581213395205" width="2" height="13.27418786604796" fill="#8aa6c1" opacity="0.75" />
<rect x="376.86486486486484" y="449.254784160528" width="2" height="20.74521583947201" fill="#8aa6c1" opacity="0.75" />
<rect x="380.13899613899616" y="453.75008331811404" width="2" height="16.249916681885974" fill="#8aa6c1" opacity="0.75" />
<rect x="383.4131274131274" y="454.7369012383724" width="2" height="15.263098761627583" fill="#8aa6c1" opacity="0.75" />
<rect x="386.6872586872587" y="457.88755213203257" width="2" height="12.112447867967415" fill="#8aa6c1" opacity="0.75" />
<rect x="389.96138996138995" y="454.8218018903797" width="2" height="15.178198109620316" fill="#8aa6c1" opacity="0.75" />
<rect x="393.2355212355212" y="428.6734010919836" width="2" height="41.3265989080164" fill="#8aa6c1" opacity="0.75" />
<rect x="396.5096525096525" y="452.3993646766022" width="2" height="17.600635323397793" fill="#8aa6c1" opacity="0.75" />
<rect x="399.7837837837838" y="421.2996552675068" width="2" height="48.70034473249317" fill="#8aa6c1" opacity="0.75" />
<rect x="403.05791505791507" y="441.9158053753648" width="2" height="28.084194624635195" fill="#8aa6c1" opacity="0.75" />
<rect x="406.33204633204633" y="453.5326333666876" width="2" height="16.467366633312423" fill="#8aa6c1" opacity="0.75" />
<rect x="409.6061776061776" y="409.3585456848506" width="2" height="60.6414543151494" fill="#8aa6c1" opacity="0.75" />
<rect x="412.88030888030886" y="438.896444189417" width="2" height="31.103555810583" fill="#8aa6c1" opacity="0.75" />
<rect x="416.1544401544402" y="457.4641163157317" width="2" height="12.535883684268285" fill="#8aa6c1" opacity="0.75" />
<rect x="419.42857142857144" y="455.093265669171" width="2" height="14.906734330828996" fill="#8aa6c1" opacity="0.75" />
<rect x="422.7027027027027" y="459.4288380291814" width="2" height="10.571161970818615" fill="#8aa6c1" opacity="0.75" />
<rect x="425.976833976834" y="456.4949486748269" width="2" height="13.505051325173085" fill="#8aa6c1" opacity="0.75" />
<rect x="429.25096525096524" y="450.4514199714835" width="2" height="19.54858002851646" fill="#8aa6c1" opacity="0.75" />
<rect x="432.5250965250965" y="461.6180914300385" width="2" height="8.381908569961501" fill="#8aa6c1" opacity="0.75" />
<rect x="435.7992277992278" y="460.91793763067176" width="2" height="9.082062369328243" fill="#8aa6c1" opacity="0.75" />
<rect x="439.0733590733591" y="462.1468731309105" width="2" height="7.853126869089526" fill="#8aa6c1" opacity="0.75" />
<rect x="442.34749034749035" y="460.878255328816" width="2" height="9.121744671184" fill="#8aa6c1" opacity="0.75" />
<rect x="445.6216216216216" y="454.5867931779169" width="2" height="15.413206822083128" fill="#8aa6c1" opacity="0.75" />
<rect x="448.8957528957529" y="460.2263033362476" width="2" height="9.77369666375239" fill="#8aa6c1" opacity="0.75" />
<rect x="452.16988416988414" y="457.0110301844418" width="2" height="12.988969815558196" fill="#8aa6c1" opacity="0.75" />
<rect x="455.44401544401546" y="450.8381188774347" width="2" height="19.1618811225653" fill="#8aa6c1" opacity="0.75" />
<rect x="458.7181467181467" y="458.31975325689797" width="2" height="11.680246743102009" fill="#8aa6c1" opacity="0.75" />
<rect x="461.992277992278" y="448.55688653064993" width="2" height="21.44311346935007" fill="#8aa6c1" opacity="0.75" />
<rect x="465.26640926640925" y="438.50458543214665" width="2" height="31.49541456785334" fill="#8aa6c1" opacity="0.75" />
<rect x="468.5405405405405" y="451.8466647040172" width="2" height="18.153335295982792" fill="#8aa6c1" opacity="0.75" />
<rect x="471.81467181467184" y="447.2144112193358" width="2" height="22.785588780664202" fill="#8aa6c1" opacity="0.75" />
<rect x="475.0888030888031" y="453.9168363737527" width="2" height="16.08316362624729" fill="#8aa6c1" opacity="0.75" />
<rect x="478.36293436293437" y="451.45400536394527" width="2" height="18.545994636054736" fill="#8aa6c1" opacity="0.75" />
<rect x="481.63706563706563" y="449.6863679417004" width="2" height="20.313632058299596" fill="#8aa6c1" opacity="0.75" />
<rect x="484.9111969111969" y="457.36698926198574" width="2" height="12.633010738014239" fill="#8aa6c1" opacity="0.75" />
<rect x="488.18532818532816" y="456.15839411269957" width="2" height="13.841605887300457" fill="#8aa6c1" opacity="0.75" />
<rect x="491.4594594594595" y="453.080469100217" width="2" height="16.919530899782988" fill="#8aa6c1" opacity="0.75" />
<rect x="494.73359073359075" y="458.2329378068243" width="2" height="11.76706219317573" fill="#8aa6c1" opacity="0.75" />
<rect x="498.007722007722" y="455.9291897267854" width="2" height="14.070810273214573" fill="#8aa6c1" opacity="0.75" />
<rect x="501.2818532818533" y="454.23160248978417" width="2" height="15.768397510215834" fill="#8aa6c1" opacity="0.75" />
<rect x="504.55598455598454" y="424.25609032129" width="2" height="45.74390967870997" fill="#8aa6c1" opacity="0.75" />
<rect x="507.83011583011586" y="444.6388539396003" width="2" height="25.36114606039966" fill="#8aa6c1" opacity="0.75" />
<rect x="511.1042471042471" y="446.94431778561307" width="2" height="23.055682214386923" fill="#8aa6c1" opacity="0.75" />
<rect x="514.3783783783783" y="455.5444455063089" width="2" height="14.455554493691109" fill="#8aa6c1" opacity="0.75" />
<rect x="517.6525096525097" y="448.399557431996" width="2" height="21.60044256800398" fill="#8aa6c1" opacity="0.75" />
<rect x="520.9266409266409" y="453.72808369147634" width="2" height="16.271916308523636" fill="#8aa6c1" opacity="0.75" />
<rect x="524.2007722007722" y="449.8648859604827" width="2" height="20.135114039517283" fill="#8aa6c1" opacity="0.75" />
<rect x="527.4749034749035" y="453.3432596961835" width="2" height="16.656740303816516" fill="#8aa6c1" opacity="0.75" />
<rect x="530.7490347490348" y="451.8881534802675" width="2" height="18.111846519732524" fill="#8aa6c1" opacity="0.75" />
<rect x="534.023166023166" y="450.30561975111067" width="2" height="19.694380248889328" fill="#8aa6c1" opacity="0.75" />
<rect x="537.2972972972973" y="446.34116975797457" width="2" height="23.658830242025456" fill="#8aa6c1" opacity="0.75" />
<rect x="540.5714285714286" y="448.7447896313796" width="2" height="21.255210368620396" fill="#8aa6c1" opacity="0.75" />
<rect x="543.8455598455598" y="437.34707268943583" width="2" height="32.65292731056417" fill="#8aa6c1" opacity="0.75" />
<rect x="547.1196911196912" y="450.4895788578109" width="2" height="19.510421142189095" fill="#8aa6c1" opacity="0.75" />
<rect x="550.3938223938223" y="456.08975841188993" width="2" height="13.91024158811007" fill="#8aa6c1" opacity="0.75" />
<rect x="553.6679536679537" y="452.97540364234806" width="2" height="17.024596357651962" fill="#8aa6c1" opacity="0.75" />
<rect x="556.9420849420849" y="455.74154336328195" width="2" height="14.258456636718039" fill="#8aa6c1" opacity="0.75" />
<rect x="560.2162162162163" y="452.3252056833685" width="2" height="17.67479431663151" fill="#8aa6c1" opacity="0.75" />
<rect x="563.4903474903475" y="447.3419438166621" width="2" height="22.658056183337916" fill="#8aa6c1" opacity="0.75" />
<rect x="566.7644787644788" y="437.79535512144196" width="2" height="32.20464487855803" fill="#8aa6c1" opacity="0.75" />
<rect x="570.03861003861" y="427.22476979701156" width="2" height="42.77523020298844" fill="#8aa6c1" opacity="0.75" />
<rect x="573.3127413127413" y="455.6391299118711" width="2" height="14.3608700881289" fill="#8aa6c1" opacity="0.75" />
<rect x="576.5868725868726" y="458.5405254042295" width="2" height="11.459474595770477" fill="#8aa6c1" opacity="0.75" />
<rect x="579.8610038610038" y="450.61385101384883" width="2" height="19.386148986151174" fill="#8aa6c1" opacity="0.75" />
<rect x="583.1351351351351" y="449.14909730948295" width="2" height="20.850902690517042" fill="#8aa6c1" opacity="0.75" />
<rect x="586.4092664092664" y="445.99998036000716" width="2" height="24.000019639992857" fill="#8aa6c1" opacity="0.75" />
<rect x="589.6833976833976" y="450.0443469013963" width="2" height="19.955653098603698" fill="#8aa6c1" opacity="0.75" />
<rect x="592.957528957529" y="446.91215841091804" width="2" height="23.087841589081943" fill="#8aa6c1" opacity="0.75" />
<rect x="596.2316602316603" y="426.87811157216726" width="2" height="43.121888427832744" fill="#8aa6c1" opacity="0.75" />
<rect x="599.5057915057915" y="440.9002093987692" width="2" height="29.0997906012308" fill="#8aa6c1" opacity="0.75" />
<rect x="602.7799227799228" y="437.89541055886514" width="2" height="32.10458944113489" fill="#8aa6c1" opacity="0.75" />
<rect x="606.0540540540541" y="444.93113408607826" width="2" height="25.068865913921755" fill="#8aa6c1" opacity="0.75" />
<rect x="609.3281853281853" y="428.6387960319925" width="2" height="41.361203968007466" fill="#8aa6c1" opacity="0.75" />
<rect x="612.6023166023166" y="411.6153047782685" width="2" height="58.38469522173148" fill="#8aa6c1" opacity="0.75" />
<rect x="615.8764478764479" y="377.76000333677405" width="2" height="92.23999666322595" fill="#8aa6c1" opacity="0.75" />
<rect x="619.1505791505791" y="430.56249506469254" width="2" height="39.43750493530748" fill="#8aa6c1" opacity="0.75" />
<rect x="622.4247104247104" y="441.7149550649112" width="2" height="28.28504493508881" fill="#8aa6c1" opacity="0.75" />
<rect x="625.6988416988416" y="370.0" width="2" height="100.0" fill="#8aa6c1" opacity="0.75" />
<rect x="628.972972972973" y="436.7442065058185" width="2" height="33.2557934941815" fill="#8aa6c1" opacity="0.75" />
<rect x="632.2471042471043" y="440.13336891479116" width="2" height="29.866631085208816" fill="#8aa6c1" opacity="0.75" />
<rect x="635.5212355212356" y="445.5653803213751" width="2" height="24.434619678624927" fill="#8aa6c1" opacity="0.75" />
<rect x="638.7953667953668" y="448.5437572966623" width="2" height="21.456242703337704" fill="#8aa6c1" opacity="0.75" />
<rect x="642.0694980694981" y="450.2284345791838" width="2" height="19.771565420816206" fill="#8aa6c1" opacity="0.75" />
<rect x="645.3436293436293" y="457.54712666904504" width="2" height="12.452873330954937" fill="#8aa6c1" opacity="0.75" />
<rect x="648.6177606177606" y="455.3600701127498" width="2" height="14.639929887250243" fill="#8aa6c1" opacity="0.75" />
<rect x="651.8918918918919" y="443.925625169319" width="2" height="26.07437483068099" fill="#8aa6c1" opacity="0.75" />
<rect x="655.1660231660231" y="456.38056859601585" width="2" height="13.619431403984125" fill="#8aa6c1" opacity="0.75" />
<rect x="658.4401544401544" y="427.3786841690724" width="2" height="42.6213158309276" fill="#8aa6c1" opacity="0.75" />
<rect x="661.7142857142857" y="453.00376217223993" width="2" height="16.996237827760098" fill="#8aa6c1" opacity="0.75" />
<rect x="664.988416988417" y="451.48250603069266" width="2" height="18.517493969307345" fill="#8aa6c1" opacity="0.75" />
<rect x="668.2625482625483" y="454.5800576727378" width="2" height="15.419942327262213" fill="#8aa6c1" opacity="0.75" />
<rect x="671.5366795366796" y="448.52175746755046" width="2" height="21.47824253244952" fill="#8aa6c1" opacity="0.75" />
<rect x="674.8108108108108" y="437.8857887846327" width="2" height="32.1142112153673" fill="#8aa6c1" opacity="0.75" />
<rect x="678.0849420849421" y="423.1473226235305" width="2" height="46.85267737646951" fill="#8aa6c1" opacity="0.75" />
<rect x="681.3590733590734" y="444.3744340341234" width="2" height="25.625565965876625" fill="#8aa6c1" opacity="0.75" />
<rect x="684.6332046332046" y="448.5969622397853" width="2" height="21.40303776021472" fill="#8aa6c1" opacity="0.75" />
<rect x="687.9073359073359" y="454.4326649931503" width="2" height="15.5673350068497" fill="#8aa6c1" opacity="0.75" />
<rect x="691.1814671814672" y="423.96447874446585" width="2" height="46.03552125553412" fill="#8aa6c1" opacity="0.75" />
<rect x="694.4555984555984" y="451.36232891440244" width="2" height="18.637671085597567" fill="#8aa6c1" opacity="0.75" />
<rect x="697.7297297297297" y="446.6101702362185" width="2" height="23.389829763781506" fill="#8aa6c1" opacity="0.75" />
<rect x="701.003861003861" y="452.26704133833795" width="2" height="17.732958661662046" fill="#8aa6c1" opacity="0.75" />
<rect x="704.2779922779923" y="444.9093330865848" width="2" height="25.090666913415166" fill="#8aa6c1" opacity="0.75" />
<rect x="707.5521235521236" y="445.21414557324687" width="2" height="24.785854426753154" fill="#8aa6c1" opacity="0.75" />
<rect x="710.8262548262549" y="454.41209625135303" width="2" height="15.587903748646967" fill="#8aa6c1" opacity="0.75" />
<rect x="714.1003861003861" y="451.1082438971253" width="2" height="18.891756102874687" fill="#8aa6c1" opacity="0.75" />
<rect x="717.3745173745174" y="450.56357688409287" width="2" height="19.43642311590714" fill="#8aa6c1" opacity="0.75" />
<rect x="720.6486486486486" y="455.4243597058618" width="2" height="14.575640294138251" fill="#8aa6c1" opacity="0.75" />
<rect x="723.9227799227799" y="457.01171353470875" width="2" height="12.988286465291274" fill="#8aa6c1" opacity="0.75" />
<rect x="727.1969111969112" y="439.9709279511924" width="2" height="30.02907204880761" fill="#8aa6c1" opacity="0.75" />
<rect x="730.4710424710424" y="444.66698266132835" width="2" height="25.33301733867163" fill="#8aa6c1" opacity="0.75" />
<rect x="733.7451737451737" y="432.91209928846536" width="2" height="37.08790071153467" fill="#8aa6c1" opacity="0.75" />
<rect x="737.019305019305" y="446.7748106765431" width="2" height="23.225189323456913" fill="#8aa6c1" opacity="0.75" />
<rect x="740.2934362934363" y="450.996291888359" width="2" height="19.003708111641007" fill="#8aa6c1" opacity="0.75" />
<rect x="743.5675675675676" y="453.35070669553676" width="2" height="16.64929330446322" fill="#8aa6c1" opacity="0.75" />
<rect x="746.8416988416989" y="445.62343269819894" width="2" height="24.37656730180109" fill="#8aa6c1" opacity="0.75" />
<rect x="750.1158301158301" y="454.49460872072376" width="2" height="15.505391279276242" fill="#8aa6c1" opacity="0.75" />
<rect x="753.3899613899614" y="448.637452211038" width="2" height="21.362547788962" fill="#8aa6c1" opacity="0.75" />
<rect x="756.6640926640927" y="447.6692040052627" width="2" height="22.330795994737294" fill="#8aa6c1" opacity="0.75" />
<rect x="759.9382239382239" y="446.1809829391229" width="2" height="23.819017060877094" fill="#8aa6c1" opacity="0.75" />
<rect x="763.2123552123552" y="452.072017829064" width="2" height="17.92798217093597" fill="#8aa6c1" opacity="0.75" />
<rect x="766.4864864864865" y="450.8304596851689" width="2" height="19.16954031483111" fill="#8aa6c1" opacity="0.75" />
<rect x="769.7606177606177" y="446.99920184688824" width="2" height="23.000798153111766" fill="#8aa6c1" opacity="0.75" />
<rect x="773.034749034749" y="459.15428996161495" width="2" height="10.84571003838505" fill="#8aa6c1" opacity="0.75" />
<rect x="776.3088803088804" y="451.6786684570781" width="2" height="18.321331542921886" fill="#8aa6c1" opacity="0.75" />
<rect x="779.5830115830116" y="448.70520309979827" width="2" height="21.294796900201703" fill="#8aa6c1" opacity="0.75" />
<rect x="782.8571428571429" y="446.4349871692129" width="2" height="23.565012830787087" fill="#8aa6c1" opacity="0.75" />
<rect x="786.1312741312742" y="447.94416370278253" width="2" height="22.05583629721748" fill="#8aa6c1" opacity="0.75" />
<rect x="789.4054054054054" y="457.95394320438027" width="2" height="12.046056795619755" fill="#8aa6c1" opacity="0.75" />
<rect x="792.6795366795367" y="457.66582714133625" width="2" height="12.334172858663727" fill="#8aa6c1" opacity="0.75" />
<rect x="795.953667953668" y="444.8699966105827" width="2" height="25.130003389417322" fill="#8aa6c1" opacity="0.75" />
<rect x="799.2277992277992" y="452.2440238741323" width="2" height="17.755976125867655" fill="#8aa6c1" opacity="0.75" />
<rect x="802.5019305019305" y="451.7566649429367" width="2" height="18.24333505706329" fill="#8aa6c1" opacity="0.75" />
<rect x="805.7760617760617" y="441.56831032484547" width="2" height="28.43168967515452" fill="#8aa6c1" opacity="0.75" />
<rect x="809.050193050193" y="449.97691733911705" width="2" height="20.023082660882924" fill="#8aa6c1" opacity="0.75" />
<rect x="812.3243243243244" y="444.2722167801669" width="2" height="25.72778321983307" fill="#8aa6c1" opacity="0.75" />
<rect x="815.5984555984556" y="448.1743893683252" width="2" height="21.825610631674813" fill="#8aa6c1" opacity="0.75" />
<rect x="818.8725868725869" y="454.7918525210664" width="2" height="15.208147478933576" fill="#8aa6c1" opacity="0.75" />
<rect x="822.1467181467182" y="448.0333555919919" width="2" height="21.966644408008097" fill="#8aa6c1" opacity="0.75" />
<rect x="825.4208494208494" y="436.6800151126708" width="2" height="33.319984887329205" fill="#8aa6c1" opacity="0.75" />
<rect x="828.6949806949807" y="405.0694464073189" width="2" height="64.93055359268112" fill="#8aa6c1" opacity="0.75" />
<rect x="831.969111969112" y="451.90025900493674" width="2" height="18.099740995063275" fill="#8aa6c1" opacity="0.75" />
<rect x="835.2432432432432" y="436.2991314668726" width="2" height="33.700868533127405" fill="#8aa6c1" opacity="0.75" />
<rect x="838.5173745173745" y="419.61856400471197" width="2" height="50.38143599528803" fill="#8aa6c1" opacity="0.75" />
<rect x="841.7915057915058" y="455.1380003085706" width="2" height="14.86199969142939" fill="#8aa6c1" opacity="0.75" />
<rect x="845.065637065637" y="450.5814648681023" width="2" height="19.418535131897738" fill="#8aa6c1" opacity="0.75" />
<rect x="848.3397683397683" y="456.41640814091875" width="2" height="13.58359185908123" fill="#8aa6c1" opacity="0.75" />
<rect x="851.6138996138997" y="454.73016694803823" width="2" height="15.26983305196175" fill="#8aa6c1" opacity="0.75" />
<rect x="854.8880308880309" y="454.8980198432769" width="2" height="15.101980156723094" fill="#8aa6c1" opacity="0.75" />
<rect x="858.1621621621622" y="447.6345104640667" width="2" height="22.365489535933293" fill="#8aa6c1" opacity="0.75" />
<rect x="861.4362934362935" y="445.58873814463215" width="2" height="24.41126185536785" fill="#8aa6c1" opacity="0.75" />
<rect x="864.7104247104247" y="427.77770970146804" width="2" height="42.22229029853194" fill="#8aa6c1" opacity="0.75" />
<rect x="867.984555984556" y="451.8876890045601" width="2" height="18.112310995439877" fill="#8aa6c1" opacity="0.75" />
<rect x="871.2586872586872" y="419.0385122037246" width="2" height="50.961487796275364" fill="#8aa6c1" opacity="0.75" />
<rect x="874.5328185328185" y="449.4449499099193" width="2" height="20.55505009008075" fill="#8aa6c1" opacity="0.75" />
<rect x="877.8069498069498" y="448.9798775112363" width="2" height="21.020122488763697" fill="#8aa6c1" opacity="0.75" />
<rect x="881.081081081081" y="455.3779342048091" width="2" height="14.622065795190913" fill="#8aa6c1" opacity="0.75" />
<rect x="884.3552123552123" y="456.2868718593728" width="2" height="13.713128140627209" fill="#8aa6c1" opacity="0.75" />
<rect x="887.6293436293437" y="454.4633675663133" width="2" height="15.536632433686679" fill="#8aa6c1" opacity="0.75" />
<rect x="890.903474903475" y="455.79910777739667" width="2" height="14.200892222603322" fill="#8aa6c1" opacity="0.75" />
<rect x="894.1776061776062" y="447.513023947428" width="2" height="22.486976052572007" fill="#8aa6c1" opacity="0.75" />
<rect x="897.4517374517375" y="452.4095410275401" width="2" height="17.59045897245987" fill="#8aa6c1" opacity="0.75" />
<rect x="900.7258687258687" y="459.525209854336" width="2" height="10.474790145663954" fill="#8aa6c1" opacity="0.75" />
<rect x="904.0" y="470.0" width="2" height="0.0" fill="#8aa6c1" opacity="0.75" />
</svg>