<svg xmlns="http://www.w3.org/2000/svg" width="960" height="520" viewBox="0 0 960 520"><rect width="100%" height="100%" fill="white" />
<text x="56.00" y="32.00" font-size="20" font-family="Arial" fill="#1f2933" text-anchor="start">主動統一台股增長(00981A) Price / Volume</text>
<line x1="56" y1="244" x2="904" y2="244" stroke="#cbd2d9" />
<line x1="56" y1="56" x2="56" y2="244" stroke="#cbd2d9" />
<text x="16.00" y="38.00" font-size="12" font-family="Arial" fill="#52606d" text-anchor="start">Price</text>
<line x1="56" y1="244.00" x2="904" y2="244.00" stroke="#edf2f7" />
<line x1="52" y1="244.00" x2="56" y2="244.00" stroke="#9fb3c8" />
<text x="48.00" y="248.00" font-size="11" font-family="Arial" fill="#52606d" text-anchor="end">9.21</text>
<line x1="56" y1="197.00" x2="904" y2="197.00" stroke="#edf2f7" />
<line x1="52" y1="197.00" x2="56" y2="197.00" stroke="#9fb3c8" />
<text x="48.00" y="201.00" font-size="11" font-family="Arial" fill="#52606d" text-anchor="end">15.3</text>
<line x1="56" y1="150.00" x2="904" y2="150.00" stroke="#edf2f7" />
<line x1="52" y1="150.00" x2="56" y2="150.00" stroke="#9fb3c8" />
<text x="48.00" y="154.00" font-size="11" font-family="Arial" fill="#52606d" text-anchor="end">21.4</text>
<line x1="56" y1="103.00" x2="904" y2="103.00" stroke="#edf2f7" />
<line x1="52" y1="103.00" x2="56" y2="103.00" stroke="#9fb3c8" />
<text x="48.00" y="107.00" font-size="11" font-family="Arial" fill="#52606d" text-anchor="end">27.5</text>
<line x1="56" y1="56.00" x2="904" y2="56.00" stroke="#edf2f7" />
<line x1="52" y1="56.00" x2="56" y2="56.00" stroke="#9fb3c8" />
<text x="48.00" y="60.00" font-size="11" font-family="Arial" fill="#52606d" text-anchor="end">33.6</text>
<polyline fill="none" stroke="#1f77b4" stroke-width="2" points="56.00,233.93 59.27,233.41 62.55,233.19 65.82,232.08 69.10,232.30 72.37,233.26 75.64,232.52 78.92,230.74 82.19,230.59 85.47,230.96 88.74,231.85 92.02,230.59 95.29,229.78 98.56,229.48 101.84,227.70 105.11,228.37 108.39,229.70 111.66,229.48 114.93,228.44 118.21,228.67 121.48,227.70 124.76,228.37 128.03,228.22 131.31,225.70 134.58,225.63 137.85,227.11 141.13,225.41 144.40,225.55 147.68,223.26 150.95,221.26 154.22,219.70 157.50,219.40 160.77,218.29 164.05,218.36 167.32,217.77 170.59,215.62 173.87,218.36 177.14,222.52 180.42,221.11 183.69,221.33 186.97,218.74 190.24,218.22 193.51,215.92 196.79,216.14 200.06,214.36 203.34,218.07 206.61,219.11 209.88,218.74 213.16,218.74 216.43,216.59 219.71,215.92 222.98,215.18 226.25,212.58 229.53,212.73 232.80,213.32 236.08,214.66 239.35,213.92 242.63,214.44 245.90,212.29 249.17,213.10 252.45,212.73 255.72,212.58 259.00,213.47 262.27,214.66 265.54,217.25 268.82,214.44 272.09,214.44 275.37,212.81 278.64,211.10 281.92,211.18 285.19,211.25 288.46,209.99 291.74,211.62 295.01,213.25 298.29,210.43 301.56,209.17 304.83,210.58 308.11,209.32 311.38,207.84 314.66,208.43 317.93,208.58 321.20,205.91 324.48,203.10 327.75,201.54 331.03,200.58 334.30,198.50 337.58,197.39 340.85,198.65 344.12,200.06 347.40,197.69 350.67,200.13 353.95,197.91 357.22,198.28 360.49,198.65 363.77,197.61 367.04,200.21 370.32,199.10 373.59,203.69 376.86,203.91 380.14,199.32 383.41,205.17 386.69,205.17 389.96,202.21 393.24,199.47 396.51,196.87 399.78,194.80 403.06,197.39 406.33,198.13 409.61,197.76 412.88,198.58 416.15,196.65 419.43,195.91 422.70,196.06 425.98,194.06 429.25,194.06 432.53,193.31 435.80,194.87 439.07,197.46 442.35,198.28 445.62,198.72 448.90,196.58 452.17,194.65 455.44,194.35 458.72,192.80 461.99,190.94 465.27,190.42 468.54,190.35 471.81,189.76 475.09,190.65 478.36,190.42 481.64,187.98 484.91,189.83 488.19,190.79 491.46,191.39 494.73,190.72 498.01,190.79 501.28,188.87 504.56,189.46 507.83,188.72 511.10,189.76 514.38,188.57 517.65,190.20 520.93,186.05 524.20,183.83 527.47,183.38 530.75,180.57 534.02,179.31 537.30,180.20 540.57,182.05 543.85,184.20 547.12,179.38 550.39,177.38 553.67,180.64 556.94,183.01 560.22,179.16 563.49,176.79 566.76,175.16 570.04,174.34 573.31,171.75 576.59,166.71 579.86,165.37 583.14,166.19 586.41,168.34 589.68,177.01 592.96,170.56 596.23,168.49 599.51,179.01 602.78,174.27 606.05,166.49 609.33,165.67 612.60,165.15 615.88,164.85 619.15,161.15 622.42,156.91 625.70,155.93 628.97,156.08 632.25,161.22 635.52,163.72 638.80,157.21 642.07,156.84 645.34,157.44 648.62,160.39 651.89,167.73 655.17,158.80 658.44,162.13 661.71,158.20 664.99,147.15 668.26,144.28 671.54,140.12 674.81,140.88 678.08,136.41 681.36,131.27 684.63,125.44 687.91,125.22 691.18,118.56 694.46,115.38 697.73,111.22 701.00,113.72 704.28,104.79 707.55,104.04 710.83,104.72 714.10,105.25 717.37,101.16 720.65,90.95 723.92,92.24 727.20,93.45 730.47,91.33 733.75,96.40 737.02,90.50 740.29,88.38 743.57,93.60 746.84,92.39 750.12,100.10 753.39,101.47 756.66,107.14 759.94,109.11 763.21,96.78 766.49,88.53 769.76,75.97 773.03,76.88 776.31,73.33 779.58,82.71 782.86,76.50 786.13,75.29 789.41,78.09 792.68,74.46 795.95,77.86 799.23,82.02 802.50,88.98 805.78,78.85 809.05,88.98 812.32,90.35 815.60,83.61 818.87,77.03 822.15,77.19 825.42,76.72 828.69,71.94 831.97,66.30 835.24,71.17 838.52,72.09 841.79,71.94 845.07,84.21 848.34,83.98 851.61,73.64 854.89,68.08 858.16,67.69 861.44,66.07 864.71,74.25 867.98,84.75 871.26,85.45 874.53,83.90 877.81,83.90 881.08,88.53 884.36,95.87 887.63,88.30 890.90,91.62 894.18,111.07 897.45,115.16 900.73,101.12 904.00,95.09" />
<line x1="56" y1="470" x2="904" y2="470" stroke="#cbd2d9" />
<line x1="56" y1="370" x2="56" y2="470" stroke="#cbd2d9" />
<text x="16.00" y="362.00" font-size="12" font-family="Arial" fill="#52606d" text-anchor="start">Volume</text>
<line x1="56" y1="470.00" x2="904" y2="470.00" stroke="#edf2f7" />
<line x1="52" y1="470.00" x2="56" y2="470.00" stroke="#9fb3c8" />
<text x="48.00" y="474.00" font-size="11" font-family="Arial" fill="#52606d" text-anchor="end">0</text>
<line x1="56" y1="420.00" x2="904" y2="420.00" stroke="#edf2f7" />
<line x1="52" y1="420.00" x2="56" y2="420.00" stroke="#9fb3c8" />
<text x="48.00" y="424.00" font-size="11" font-family="Arial" fill="#52606d" text-anchor="end">597.6M</text>
<line x1="56" y1="370.00" x2="904" y2="370.00" stroke="#edf2f7" />
<line x1="52" y1="370.00" x2="56" y2="370.00" stroke="#9fb3c8" />
<text x="48.00" y="374.00" font-size="11" font-family="Arial" fill="#52606d" text-anchor="end">1.2B</text>
<line x1="56.00" y1="470" x2="56.00" y2="474" stroke="#9fb3c8" />
<text x="56.00" y="488.00" font-size="11" font-family="Arial" fill="#52606d" text-anchor="middle">06/30</text>
<line x1="226.25" y1="470" x2="226.25" y2="474" stroke="#9fb3c8" />
<text x="226.25" y="488.00" font-size="11" font-family="Arial" fill="#52606d" text-anchor="middle">09/10</text>
<line x1="396.51" y1="470" x2="396.51" y2="474" stroke="#9fb3c8" />
<text x="396.51" y="488.00" font-size="11" font-family="Arial" fill="#52606d" text-anchor="middle">11/27</text>
<line x1="563.49" y1="470" x2="563.49" y2="474" stroke="#9fb3c8" />
<text x="563.49" y="488.00" font-size="11" font-family="Arial" fill="#52606d" text-anchor="middle">02/10</text>
<line x1="733.75" y1="470" x2="733.75" y2="474" stroke="#9fb3c8" />
<text x="733.75" y="488.00" font-size="11" font-family="Arial" fill="#52606d" text-anchor="middle">05/08</text>
<line x1="904.00" y1="470" x2="904.00" y2="474" stroke="#9fb3c8" />
<text x="904.00" y="488.00" font-size="11" font-family="Arial" fill="#52606d" text-anchor="middle">07/22</text>
<rect x="56.0" y="469.3270916213982" width="2" height="0.6729083786017936" fill="#8aa6c1" opacity="0.75" />
<rect x="59.27413127413127" y="469.1700819057939" width="2" height="0.8299180942061054" fill="#8aa6c1" opacity="0.75" />
<rect x="62.54826254826255" y="469.37626991026895" width="2" height="0.6237300897310425" fill="#8aa6c1" opacity="0.75" />
<rect x="65.82239382239382" y="469.2871645480097" width="2" height="0.7128354519903259" fill="#8aa6c1" opacity="0.75" />
<rect x="69.0965250965251" y="468.8841230837508" width="2" height="1.1158769162491795" fill="#8aa6c1" opacity="0.75" />
<rect x="72.37065637065638" y="468.6612033940037" width="2" height="1.3387966059962955" fill="#8aa6c1" opacity="0.75" />
<rect x="75.64478764478764" y="468.71779170769037" width="2" height="1.282208292309629" fill="#8aa6c1" opacity="0.75" />
<rect x="78.91891891891892" y="468.29005133200593" width="2" height="1.7099486679940972" fill="#8aa6c1" opacity="0.75" />
<rect x="82.1930501930502" y="468.2938824676896" width="2" height="1.7061175323103885" fill="#8aa6c1" opacity="0.75" />
<rect x="85.46718146718146" y="468.4743302802814" width="2" height="1.5256697197186495" fill="#8aa6c1" opacity="0.75" />
<rect x="88.74131274131274" y="468.4715620939963" width="2" height="1.5284379060037403" fill="#8aa6c1" opacity="0.75" />
<rect x="92.01544401544402" y="468.72551438436795" width="2" height="1.2744856156320343" fill="#8aa6c1" opacity="0.75" />
<rect x="95.28957528957528" y="467.92603127980226" width="2" height="2.073968720197755" fill="#8aa6c1" opacity="0.75" />
<rect x="98.56370656370656" y="468.8841788038846" width="2" height="1.115821196115415" fill="#8aa6c1" opacity="0.75" />
<rect x="101.83783783783784" y="467.6721553745388" width="2" height="2.327844625461162" fill="#8aa6c1" opacity="0.75" />
<rect x="105.1119691119691" y="467.3022264782402" width="2" height="2.6977735217598062" fill="#8aa6c1" opacity="0.75" />
<rect x="108.3861003861004" y="467.4285127311993" width="2" height="2.571487268800715" fill="#8aa6c1" opacity="0.75" />
<rect x="111.66023166023166" y="467.8202430083039" width="2" height="2.179756991696081" fill="#8aa6c1" opacity="0.75" />
<rect x="114.93436293436294" y="468.2495289902214" width="2" height="1.7504710097786282" fill="#8aa6c1" opacity="0.75" />
<rect x="118.20849420849422" y="468.8460075840206" width="2" height="1.153992415979445" fill="#8aa6c1" opacity="0.75" />
<rect x="121.48262548262548" y="468.7267698443188" width="2" height="1.2732301556811754" fill="#8aa6c1" opacity="0.75" />
<rect x="124.75675675675676" y="468.1779413352412" width="2" height="1.8220586647587738" fill="#8aa6c1" opacity="0.75" />
<rect x="128.03088803088804" y="468.4560819364734" width="2" height="1.5439180635265664" fill="#8aa6c1" opacity="0.75" />
<rect x="131.3050193050193" y="466.78350173356336" width="2" height="3.2164982664366204" fill="#8aa6c1" opacity="0.75" />
<rect x="134.57915057915056" y="465.1766031861099" width="2" height="4.823396813890122" fill="#8aa6c1" opacity="0.75" />
<rect x="137.85328185328186" y="465.3495692739538" width="2" height="4.650430726046186" fill="#8aa6c1" opacity="0.75" />
<rect x="141.12741312741312" y="466.8850802903911" width="2" height="3.1149197096089174" fill="#8aa6c1" opacity="0.75" />
<rect x="144.4015444015444" y="468.04917754426236" width="2" height="1.950822455737643" fill="#8aa6c1" opacity="0.75" />
<rect x="147.67567567567568" y="467.0628319512851" width="2" height="2.9371680487149248" fill="#8aa6c1" opacity="0.75" />
<rect x="150.94980694980694" y="465.776939939021" width="2" height="4.223060060978994" fill="#8aa6c1" opacity="0.75" />
<rect x="154.2239382239382" y="464.19395210572554" width="2" height="5.806047894274443" fill="#8aa6c1" opacity="0.75" />
<rect x="157.4980694980695" y="463.8526795889716" width="2" height="6.1473204110283515" fill="#8aa6c1" opacity="0.75" />
<rect x="160.7722007722008" y="459.2305136955843" width="2" height="10.769486304415715" fill="#8aa6c1" opacity="0.75" />
<rect x="164.04633204633205" y="463.0462338102736" width="2" height="6.953766189726444" fill="#8aa6c1" opacity="0.75" />
<rect x="167.32046332046332" y="464.58352193085693" width="2" height="5.416478069143089" fill="#8aa6c1" opacity="0.75" />
<rect x="170.59459459459458" y="460.2271485216108" width="2" height="9.77285147838922" fill="#8aa6c1" opacity="0.75" />
<rect x="173.86872586872587" y="448.0473801097972" width="2" height="21.952619890202808" fill="#8aa6c1" opacity="0.75" />
<rect x="177.14285714285714" y="452.0282854056031" width="2" height="17.971714594396897" fill="#8aa6c1" opacity="0.75" />
<rect x="180.41698841698843" y="462.6109800012366" width="2" height="7.389019998763365" fill="#8aa6c1" opacity="0.75" />
<rect x="183.6911196911197" y="466.5903652919521" width="2" height="3.4096347080478964" fill="#8aa6c1" opacity="0.75" />
<rect x="186.96525096525096" y="463.0692397834008" width="2" height="6.930760216599219" fill="#8aa6c1" opacity="0.75" />
<rect x="190.23938223938225" y="465.08534130407895" width="2" height="4.9146586959210525" fill="#8aa6c1" opacity="0.75" />
<rect x="193.51351351351352" y="463.3488097817582" width="2" height="6.651190218241834" fill="#8aa6c1" opacity="0.75" />
<rect x="196.78764478764478" y="463.65490289844297" width="2" height="6.345097101557026" fill="#8aa6c1" opacity="0.75" />
<rect x="200.06177606177607" y="460.01968623281533" width="2" height="9.980313767184656" fill="#8aa6c1" opacity="0.75" />
<rect x="203.33590733590734" y="450.15277506910206" width="2" height="19.847224930897937" fill="#8aa6c1" opacity="0.75" />
<rect x="206.6100386100386" y="458.8299000730097" width="2" height="11.17009992699031" fill="#8aa6c1" opacity="0.75" />
<rect x="209.8841698841699" y="466.0771943219293" width="2" height="3.9228056780707106" fill="#8aa6c1" opacity="0.75" />
<rect x="213.15830115830116" y="464.4329421178958" width="2" height="5.567057882104237" fill="#8aa6c1" opacity="0.75" />
<rect x="216.43243243243242" y="462.0973063787158" width="2" height="7.902693621284164" fill="#8aa6c1" opacity="0.75" />
<rect x="219.7065637065637" y="464.63939558781294" width="2" height="5.360604412187079" fill="#8aa6c1" opacity="0.75" />
<rect x="222.98069498069498" y="464.1956724021076" width="2" height="5.8043275978923585" fill="#8aa6c1" opacity="0.75" />
<rect x="226.25482625482624" y="462.166504928381" width="2" height="7.833495071619008" fill="#8aa6c1" opacity="0.75" />
<rect x="229.52895752895753" y="458.141296688081" width="2" height="11.858703311918996" fill="#8aa6c1" opacity="0.75" />
<rect x="232.8030888030888" y="461.045009314319" width="2" height="8.954990685681048" fill="#8aa6c1" opacity="0.75" />
<rect x="236.0772200772201" y="461.25100438992246" width="2" height="8.748995610077548" fill="#8aa6c1" opacity="0.75" />
<rect x="239.35135135135135" y="464.7465697512269" width="2" height="5.253430248773121" fill="#8aa6c1" opacity="0.75" />
<rect x="242.62548262548262" y="465.9976575958542" width="2" height="4.002342404145819" fill="#8aa6c1" opacity="0.75" />
<rect x="245.8996138996139" y="464.68993441844833" width="2" height="5.310065581551643" fill="#8aa6c1" opacity="0.75" />
<rect x="249.17374517374517" y="464.0606902107351" width="2" height="5.9393097892649065" fill="#8aa6c1" opacity="0.75" />
<rect x="252.44787644787644" y="466.80983142103605" width="2" height="3.1901685789639487" fill="#8aa6c1" opacity="0.75" />
<rect x="255.72200772200773" y="464.2476589522546" width="2" height="5.752341047745416" fill="#8aa6c1" opacity="0.75" />
<rect x="258.996138996139" y="464.91959088989364" width="2" height="5.080409110106335" fill="#8aa6c1" opacity="0.75" />
<rect x="262.27027027027026" y="464.8700653959852" width="2" height="5.129934604014809" fill="#8aa6c1" opacity="0.75" />
<rect x="265.5444015444016" y="460.0524317674019" width="2" height="9.94756823259806" fill="#8aa6c1" opacity="0.75" />
<rect x="268.81853281853284" y="465.0534519854818" width="2" height="4.946548014518241" fill="#8aa6c1" opacity="0.75" />
<rect x="272.0926640926641" y="466.3937879229212" width="2" height="3.606212077078799" fill="#8aa6c1" opacity="0.75" />
<rect x="275.3667953667954" y="463.2510302336902" width="2" height="6.748969766309801" fill="#8aa6c1" opacity="0.75" />
<rect x="278.64092664092664" y="462.78310970142707" width="2" height="7.216890298572948" fill="#8aa6c1" opacity="0.75" />
<rect x="281.9150579150579" y="464.71850930938905" width="2" height="5.281490690610942" fill="#8aa6c1" opacity="0.75" />
<rect x="285.18918918918916" y="466.97731217126716" width="2" height="3.0226878287328405" fill="#8aa6c1" opacity="0.75" />
<rect x="288.46332046332043" y="465.452757356207" width="2" height="4.547242643793011" fill="#8aa6c1" opacity="0.75" />
<rect x="291.73745173745175" y="462.8179116101395" width="2" height="7.182088389860524" fill="#8aa6c1" opacity="0.75" />
<rect x="295.011583011583" y="464.49359791768336" width="2" height="5.506402082316617" fill="#8aa6c1" opacity="0.75" />
<rect x="298.2857142857143" y="465.07054836153924" width="2" height="4.929451638460782" fill="#8aa6c1" opacity="0.75" />
<rect x="301.5598455598456" y="465.5553303417283" width="2" height="4.444669658271724" fill="#8aa6c1" opacity="0.75" />
<rect x="304.83397683397686" y="466.3088402364088" width="2" height="3.6911597635911857" fill="#8aa6c1" opacity="0.75" />
<rect x="308.1081081081081" y="467.6554728836191" width="2" height="2.3445271163808825" fill="#8aa6c1" opacity="0.75" />
<rect x="311.3822393822394" y="465.47751466501" width="2" height="4.522485334989968" fill="#8aa6c1" opacity="0.75" />
<rect x="314.65637065637065" y="466.2935998595217" width="2" height="3.7064001404783213" fill="#8aa6c1" opacity="0.75" />
<rect x="317.9305019305019" y="467.48611705885656" width="2" height="2.5138829411434207" fill="#8aa6c1" opacity="0.75" />
<rect x="321.2046332046332" y="466.9244171988793" width="2" height="3.0755828011206487" fill="#8aa6c1" opacity="0.75" />
<rect x="324.4787644787645" y="465.83608853428944" width="2" height="4.163911465710547" fill="#8aa6c1" opacity="0.75" />
<rect x="327.75289575289577" y="463.9593579603245" width="2" height="6.040642039675488" fill="#8aa6c1" opacity="0.75" />
<rect x="331.02702702702703" y="463.17025821065556" width="2" height="6.82974178934442" fill="#8aa6c1" opacity="0.75" />
<rect x="334.3011583011583" y="462.4310581833611" width="2" height="7.568941816638921" fill="#8aa6c1" opacity="0.75" />
<rect x="337.57528957528956" y="462.10193692262493" width="2" height="7.898063077375049" fill="#8aa6c1" opacity="0.75" />
<rect x="340.8494208494208" y="457.06801697745624" width="2" height="12.931983022543758" fill="#8aa6c1" opacity="0.75" />
<rect x="344.12355212355214" y="454.7385800613257" width="2" height="15.261419938674303" fill="#8aa6c1" opacity="0.75" />
<rect x="347.3976833976834" y="463.0720943944579" width="2" height="6.9279056055420885" fill="#8aa6c1" opacity="0.75" />
<rect x="350.6718146718147" y="461.18708645239366" width="2" height="8.812913547606335" fill="#8aa6c1" opacity="0.75" />
<rect x="353.94594594594594" y="464.1654897426826" width="2" height="5.834510257317377" fill="#8aa6c1" opacity="0.75" />
<rect x="357.2200772200772" y="462.23261485916" width="2" height="7.767385140840021" fill="#8aa6c1" opacity="0.75" />
<rect x="360.4942084942085" y="464.5098668581208" width="2" height="5.490133141879177" fill="#8aa6c1" opacity="0.75" />
<rect x="363.7683397683398" y="464.69006510140474" width="2" height="5.309934898595276" fill="#8aa6c1" opacity="0.75" />
<rect x="367.04247104247105" y="459.2294747577148" width="2" height="10.770525242285219" fill="#8aa6c1" opacity="0.75" />
<rect x="370.3166023166023" y="464.4301965208541" width="2" height="5.569803479145909" fill="#8aa6c1" opacity="0.75" />
<rect x="373.5907335907336" y="456.8597202252762" width="2" height="13.140279774723835" fill="#8aa6c1" opacity="0.75" />
<rect x="376.86486486486484" y="464.0575522301689" width="2" height="5.942447769831138" fill="#8aa6c1" opacity="0.75" />
<rect x="380.13899613899616" y="460.8260628214975" width="2" height="9.173937178502515" fill="#8aa6c1" opacity="0.75" />
<rect x="383.4131274131274" y="451.9593248796325" width="2" height="18.040675120367517" fill="#8aa6c1" opacity="0.75" />
<rect x="386.6872586872587" y="463.6341534234055" width="2" height="6.365846576594512" fill="#8aa6c1" opacity="0.75" />
<rect x="389.96138996138995" y="463.8335305199984" width="2" height="6.166469480001599" fill="#8aa6c1" opacity="0.75" />
<rect x="393.2355212355212" y="462.94213186762835" width="2" height="7.057868132371678" fill="#8aa6c1" opacity="0.75" />
<rect x="396.5096525096525" y="460.44044603030045" width="2" height="9.559553969699566" fill="#8aa6c1" opacity="0.75" />
<rect x="399.7837837837838" y="459.88862946630184" width="2" height="10.111370533698192" fill="#8aa6c1" opacity="0.75" />
<rect x="403.05791505791507" y="450.43541611693405" width="2" height="19.56458388306593" fill="#8aa6c1" opacity="0.75" />
<rect x="406.33204633204633" y="458.32088920498586" width="2" height="11.679110795014157" fill="#8aa6c1" opacity="0.75" />
<rect x="409.6061776061776" y="462.8607041708875" width="2" height="7.139295829112474" fill="#8aa6c1" opacity="0.75" />
<rect x="412.88030888030886" y="462.5707191090287" width="2" height="7.429280890971297" fill="#8aa6c1" opacity="0.75" />
<rect x="416.1544401544402" y="463.8475699021105" width="2" height="6.152430097889524" fill="#8aa6c1" opacity="0.75" />
<rect x="419.42857142857144" y="463.792112723872" width="2" height="6.2078872761279955" fill="#8aa6c1" opacity="0.75" />
<rect x="422.7027027027027" y="464.4447035003049" width="2" height="5.555296499695081" fill="#8aa6c1" opacity="0.75" />
<rect x="425.976833976834" y="462.54664834589784" width="2" height="7.45335165410216" fill="#8aa6c1" opacity="0.75" />
<rect x="429.25096525096524" y="458.6265119634244" width="2" height="11.373488036575633" fill="#8aa6c1" opacity="0.75" />
<rect x="432.5250965250965" y="463.4752038774386" width="2" height="6.524796122561387" fill="#8aa6c1" opacity="0.75" />
<rect x="435.7992277992278" y="458.44781782909666" width="2" height="11.552182170903347" fill="#8aa6c1" opacity="0.75" />
<rect x="439.0733590733591" y="451.26747115356756" width="2" height="18.73252884643247" fill="#8aa6c1" opacity="0.75" />
<rect x="442.34749034749035" y="460.583280326349" width="2" height="9.416719673651025" fill="#8aa6c1" opacity="0.75" />
<rect x="445.6216216216216" y="460.63935025873116" width="2" height="9.36064974126887" fill="#8aa6c1" opacity="0.75" />
<rect x="448.8957528957529" y="461.8949265860256" width="2" height="8.105073413974395" fill="#8aa6c1" opacity="0.75" />
<rect x="452.16988416988414" y="464.3384054648801" width="2" height="5.6615945351198755" fill="#8aa6c1" opacity="0.75" />
<rect x="455.44401544401546" y="464.9572566126883" width="2" height="5.042743387311683" fill="#8aa6c1" opacity="0.75" />
<rect x="458.7181467181467" y="461.1371183766419" width="2" height="8.862881623358074" fill="#8aa6c1" opacity="0.75" />
<rect x="461.992277992278" y="461.541330465693" width="2" height="8.458669534306976" fill="#8aa6c1" opacity="0.75" />
<rect x="465.26640926640925" y="460.8965589977012" width="2" height="9.103441002298785" fill="#8aa6c1" opacity="0.75" />
<rect x="468.5405405405405" y="464.10939337251926" width="2" height="5.890606627480715" fill="#8aa6c1" opacity="0.75" />
<rect x="471.81467181467184" y="462.5863697735074" width="2" height="7.4136302264925975" fill="#8aa6c1" opacity="0.75" />
<rect x="475.0888030888031" y="456.85391378575133" width="2" height="13.146086214248658" fill="#8aa6c1" opacity="0.75" />
<rect x="478.36293436293437" y="459.0410139548356" width="2" height="10.958986045164407" fill="#8aa6c1" opacity="0.75" />
<rect x="481.63706563706563" y="461.9515544727202" width="2" height="8.048445527279814" fill="#8aa6c1" opacity="0.75" />
<rect x="484.9111969111969" y="457.4132684639425" width="2" height="12.586731536057549" fill="#8aa6c1" opacity="0.75" />
<rect x="488.18532818532816" y="461.4664023635945" width="2" height="8.53359763640547" fill="#8aa6c1" opacity="0.75" />
<rect x="491.4594594594595" y="461.9912534784141" width="2" height="8.00874652158594" fill="#8aa6c1" opacity="0.75" />
<rect x="494.73359073359075" y="463.81750730033104" width="2" height="6.182492699668969" fill="#8aa6c1" opacity="0.75" />
<rect x="498.007722007722" y="460.4228646548204" width="2" height="9.577135345179597" fill="#8aa6c1" opacity="0.75" />
<rect x="501.2818532818533" y="461.4255072992936" width="2" height="8.5744927007064" fill="#8aa6c1" opacity="0.75" />
<rect x="504.55598455598454" y="463.1508868467943" width="2" height="6.849113153205674" fill="#8aa6c1" opacity="0.75" />
<rect x="507.83011583011586" y="462.825494149844" width="2" height="7.174505850155985" fill="#8aa6c1" opacity="0.75" />
<rect x="511.1042471042471" y="462.5853725839063" width="2" height="7.414627416093709" fill="#8aa6c1" opacity="0.75" />
<rect x="514.3783783783783" y="462.2132095277697" width="2" height="7.786790472230268" fill="#8aa6c1" opacity="0.75" />
<rect x="517.6525096525097" y="461.1513227438948" width="2" height="8.848677256105184" fill="#8aa6c1" opacity="0.75" />
<rect x="520.9266409266409" y="458.48119912538965" width="2" height="11.518800874610328" fill="#8aa6c1" opacity="0.75" />
<rect x="524.2007722007722" y="462.4694833230539" width="2" height="7.530516676946098" fill="#8aa6c1" opacity="0.75" />
<rect x="527.4749034749035" y="462.1267845047378" width="2" height="7.873215495262197" fill="#8aa6c1" opacity="0.75" />
<rect x="530.7490347490348" y="462.015196988807" width="2" height="7.984803011193" fill="#8aa6c1" opacity="0.75" />
<rect x="534.023166023166" y="461.92248295307974" width="2" height="8.077517046920256" fill="#8aa6c1" opacity="0.75" />
<rect x="537.2972972972973" y="459.92869701131883" width="2" height="10.071302988681145" fill="#8aa6c1" opacity="0.75" />
<rect x="540.5714285714286" y="459.28316194323565" width="2" height="10.71683805676435" fill="#8aa6c1" opacity="0.75" />
<rect x="543.8455598455598" y="457.7060127600529" width="2" height="12.293987239947139" fill="#8aa6c1" opacity="0.75" />
<rect x="547.1196911196912" y="459.3555178834836" width="2" height="10.644482116516398" fill="#8aa6c1" opacity="0.75" />
<rect x="550.3938223938223" y="462.6839912805353" width="2" height="7.316008719464692" fill="#8aa6c1" opacity="0.75" />
<rect x="553.6679536679537" y="459.191749215257" width="2" height="10.808250784742995" fill="#8aa6c1" opacity="0.75" />
<rect x="556.9420849420849" y="455.7135349864775" width="2" height="14.286465013522529" fill="#8aa6c1" opacity="0.75" />
<rect x="560.2162162162163" y="461.76597279441046" width="2" height="8.23402720558957" fill="#8aa6c1" opacity="0.75" />
<rect x="563.4903474903475" y="462.3856668556536" width="2" height="7.614333144346425" fill="#8aa6c1" opacity="0.75" />
<rect x="566.7644787644788" y="463.0244979382735" width="2" height="6.975502061726521" fill="#8aa6c1" opacity="0.75" />
<rect x="570.03861003861" y="460.59909488833824" width="2" height="9.400905111661746" fill="#8aa6c1" opacity="0.75" />
<rect x="573.3127413127413" y="463.49225858889156" width="2" height="6.507741411108456" fill="#8aa6c1" opacity="0.75" />
<rect x="576.5868725868726" y="462.3165236914667" width="2" height="7.683476308533274" fill="#8aa6c1" opacity="0.75" />
<rect x="579.8610038610038" y="460.2384054109169" width="2" height="9.761594589083069" fill="#8aa6c1" opacity="0.75" />
<rect x="583.1351351351351" y="457.0214875701998" width="2" height="12.978512429800212" fill="#8aa6c1" opacity="0.75" />
<rect x="586.4092664092664" y="449.72942202647255" width="2" height="20.270577973527423" fill="#8aa6c1" opacity="0.75" />
<rect x="589.6833976833976" y="437.0243844315085" width="2" height="32.975615568491506" fill="#8aa6c1" opacity="0.75" />
<rect x="592.957528957529" y="454.87394953272707" width="2" height="15.126050467272933" fill="#8aa6c1" opacity="0.75" />
<rect x="596.2316602316603" y="459.17212819842405" width="2" height="10.827871801575952" fill="#8aa6c1" opacity="0.75" />
<rect x="599.5057915057915" y="432.83729882830306" width="2" height="37.162701171696945" fill="#8aa6c1" opacity="0.75" />
<rect x="602.7799227799228" y="453.8717805930547" width="2" height="16.128219406945266" fill="#8aa6c1" opacity="0.75" />
<rect x="606.0540540540541" y="458.0107519444183" width="2" height="11.98924805558172" fill="#8aa6c1" opacity="0.75" />
<rect x="609.3281853281853" y="458.9968633622388" width="2" height="11.003136637761205" fill="#8aa6c1" opacity="0.75" />
<rect x="612.6023166023166" y="456.274052759713" width="2" height="13.725947240286981" fill="#8aa6c1" opacity="0.75" />
<rect x="615.8764478764479" y="453.12274972702465" width="2" height="16.87725027297532" fill="#8aa6c1" opacity="0.75" />
<rect x="619.1505791505791" y="459.6674173560294" width="2" height="10.33258264397063" fill="#8aa6c1" opacity="0.75" />
<rect x="622.4247104247104" y="455.09146403484357" width="2" height="14.908535965156444" fill="#8aa6c1" opacity="0.75" />
<rect x="625.6988416988416" y="450.67220141894666" width="2" height="19.32779858105333" fill="#8aa6c1" opacity="0.75" />
<rect x="628.972972972973" y="450.4645791648423" width="2" height="19.53542083515771" fill="#8aa6c1" opacity="0.75" />
<rect x="632.2471042471043" y="441.6938127112693" width="2" height="28.3061872887307" fill="#8aa6c1" opacity="0.75" />
<rect x="635.5212355212356" y="445.23381554856195" width="2" height="24.766184451438065" fill="#8aa6c1" opacity="0.75" />
<rect x="638.7953667953668" y="457.17561841222624" width="2" height="12.824381587773741" fill="#8aa6c1" opacity="0.75" />
<rect x="642.0694980694981" y="455.23385876094795" width="2" height="14.766141239052043" fill="#8aa6c1" opacity="0.75" />
<rect x="645.3436293436293" y="455.4323940317362" width="2" height="14.567605968263845" fill="#8aa6c1" opacity="0.75" />
<rect x="648.6177606177606" y="449.61786898005397" width="2" height="20.382131019946048" fill="#8aa6c1" opacity="0.75" />
<rect x="651.8918918918919" y="430.71592089164966" width="2" height="39.284079108350355" fill="#8aa6c1" opacity="0.75" />
<rect x="655.1660231660231" y="448.98132727542253" width="2" height="21.01867272457746" fill="#8aa6c1" opacity="0.75" />
<rect x="658.4401544401544" y="448.8900507522153" width="2" height="21.10994924778468" fill="#8aa6c1" opacity="0.75" />
<rect x="661.7142857142857" y="457.8781419582601" width="2" height="12.12185804173991" fill="#8aa6c1" opacity="0.75" />
<rect x="664.988416988417" y="446.9268495584123" width="2" height="23.073150441587707" fill="#8aa6c1" opacity="0.75" />
<rect x="668.2625482625483" y="451.5557344130947" width="2" height="18.444265586905292" fill="#8aa6c1" opacity="0.75" />
<rect x="671.5366795366796" y="444.61483221184784" width="2" height="25.385167788152184" fill="#8aa6c1" opacity="0.75" />
<rect x="674.8108108108108" y="448.3995291799292" width="2" height="21.600470820070818" fill="#8aa6c1" opacity="0.75" />
<rect x="678.0849420849421" y="449.3244314451622" width="2" height="20.6755685548378" fill="#8aa6c1" opacity="0.75" />
<rect x="681.3590733590734" y="444.5627116321899" width="2" height="25.437288367810073" fill="#8aa6c1" opacity="0.75" />
<rect x="684.6332046332046" y="442.1665053467003" width="2" height="27.833494653299685" fill="#8aa6c1" opacity="0.75" />
<rect x="687.9073359073359" y="427.97290588416365" width="2" height="42.02709411583633" fill="#8aa6c1" opacity="0.75" />
<rect x="691.1814671814672" y="414.6812021280858" width="2" height="55.31879787191423" fill="#8aa6c1" opacity="0.75" />
<rect x="694.4555984555984" y="428.99487906453226" width="2" height="41.00512093546775" fill="#8aa6c1" opacity="0.75" />
<rect x="697.7297297297297" y="428.2406342664658" width="2" height="41.75936573353417" fill="#8aa6c1" opacity="0.75" />
<rect x="701.003861003861" y="370.0" width="2" height="100.0" fill="#8aa6c1" opacity="0.75" />
<rect x="704.2779922779923" y="413.97408359528526" width="2" height="56.025916404714756" fill="#8aa6c1" opacity="0.75" />
<rect x="707.5521235521236" y="376.58604903135006" width="2" height="93.41395096864997" fill="#8aa6c1" opacity="0.75" />
<rect x="710.8262548262549" y="437.2376759163999" width="2" height="32.7623240836001" fill="#8aa6c1" opacity="0.75" />
<rect x="714.1003861003861" y="442.7424568440139" width="2" height="27.25754315598612" fill="#8aa6c1" opacity="0.75" />
<rect x="717.3745173745174" y="436.4496004634242" width="2" height="33.55039953657582" fill="#8aa6c1" opacity="0.75" />
<rect x="720.6486486486486" y="431.962146527127" width="2" height="38.037853472873" fill="#8aa6c1" opacity="0.75" />
<rect x="723.9227799227799" y="421.3320417947353" width="2" height="48.667958205264696" fill="#8aa6c1" opacity="0.75" />
<rect x="727.1969111969112" y="406.68887330128837" width="2" height="63.311126698711625" fill="#8aa6c1" opacity="0.75" />
<rect x="730.4710424710424" y="443.09511216419" width="2" height="26.904887835809966" fill="#8aa6c1" opacity="0.75" />
<rect x="733.7451737451737" y="425.900157903413" width="2" height="44.099842096587" fill="#8aa6c1" opacity="0.75" />
<rect x="737.019305019305" y="440.3744590854023" width="2" height="29.62554091459772" fill="#8aa6c1" opacity="0.75" />
<rect x="740.2934362934363" y="438.57688289365166" width="2" height="31.423117106348368" fill="#8aa6c1" opacity="0.75" />
<rect x="743.5675675675676" y="434.44072022188357" width="2" height="35.559279778116405" fill="#8aa6c1" opacity="0.75" />
<rect x="746.8416988416989" y="448.1348951893198" width="2" height="21.865104810680158" fill="#8aa6c1" opacity="0.75" />
<rect x="750.1158301158301" y="431.9810023542551" width="2" height="38.01899764574487" fill="#8aa6c1" opacity="0.75" />
<rect x="753.3899613899614" y="444.80550425066605" width="2" height="25.19449574933396" fill="#8aa6c1" opacity="0.75" />
<rect x="756.6640926640927" y="447.9507897598994" width="2" height="22.04921024010061" fill="#8aa6c1" opacity="0.75" />
<rect x="759.9382239382239" y="449.2102054219363" width="2" height="20.7897945780637" fill="#8aa6c1" opacity="0.75" />
<rect x="763.2123552123552" y="449.64550625006507" width="2" height="20.354493749934928" fill="#8aa6c1" opacity="0.75" />
<rect x="766.4864864864865" y="441.1629149579699" width="2" height="28.83708504203007" fill="#8aa6c1" opacity="0.75" />
<rect x="769.7606177606177" y="443.1155238045426" width="2" height="26.88447619545738" fill="#8aa6c1" opacity="0.75" />
<rect x="773.034749034749" y="446.06879555756257" width="2" height="23.931204442437423" fill="#8aa6c1" opacity="0.75" />
<rect x="776.3088803088804" y="445.128463584117" width="2" height="24.871536415882964" fill="#8aa6c1" opacity="0.75" />
<rect x="779.5830115830116" y="429.2760566640462" width="2" height="40.723943335953784" fill="#8aa6c1" opacity="0.75" />
<rect x="782.8571428571429" y="452.92820254533" width="2" height="17.071797454669987" fill="#8aa6c1" opacity="0.75" />
<rect x="786.1312741312742" y="448.88893819014504" width="2" height="21.11106180985495" fill="#8aa6c1" opacity="0.75" />
<rect x="789.4054054054054" y="444.0384207306072" width="2" height="25.961579269392836" fill="#8aa6c1" opacity="0.75" />
<rect x="792.6795366795367" y="451.64356657866387" width="2" height="18.356433421336146" fill="#8aa6c1" opacity="0.75" />
<rect x="795.953667953668" y="454.1936394120319" width="2" height="15.806360587968054" fill="#8aa6c1" opacity="0.75" />
<rect x="799.2277992277992" y="441.778196419671" width="2" height="28.221803580328984" fill="#8aa6c1" opacity="0.75" />
<rect x="802.5019305019305" y="436.233690048582" width="2" height="33.76630995141803" fill="#8aa6c1" opacity="0.75" />
<rect x="805.7760617760617" y="450.63669673377234" width="2" height="19.36330326622765" fill="#8aa6c1" opacity="0.75" />
<rect x="809.050193050193" y="440.4774441154563" width="2" height="29.522555884543717" fill="#8aa6c1" opacity="0.75" />
<rect x="812.3243243243244" y="433.9056447971737" width="2" height="36.094355202826286" fill="#8aa6c1" opacity="0.75" />
<rect x="815.5984555984556" y="446.7433219116402" width="2" height="23.25667808835984" fill="#8aa6c1" opacity="0.75" />
<rect x="818.8725868725869" y="446.0574540840894" width="2" height="23.942545915910596" fill="#8aa6c1" opacity="0.75" />
<rect x="822.1467181467182" y="454.5774020446637" width="2" height="15.422597955336306" fill="#8aa6c1" opacity="0.75" />
<rect x="825.4208494208494" y="458.3683270344832" width="2" height="11.631672965516838" fill="#8aa6c1" opacity="0.75" />
<rect x="828.6949806949807" y="449.7125640087651" width="2" height="20.28743599123489" fill="#8aa6c1" opacity="0.75" />
<rect x="831.969111969112" y="447.7834327485239" width="2" height="22.216567251476103" fill="#8aa6c1" opacity="0.75" />
<rect x="835.2432432432432" y="449.9023722181823" width="2" height="20.097627781817742" fill="#8aa6c1" opacity="0.75" />
<rect x="838.5173745173745" y="447.9080345132349" width="2" height="22.091965486765087" fill="#8aa6c1" opacity="0.75" />
<rect x="841.7915057915058" y="454.2515620806937" width="2" height="15.748437919306294" fill="#8aa6c1" opacity="0.75" />
<rect x="845.065637065637" y="440.3656954629224" width="2" height="29.634304537077565" fill="#8aa6c1" opacity="0.75" />
<rect x="848.3397683397683" y="456.3448929617276" width="2" height="13.655107038272382" fill="#8aa6c1" opacity="0.75" />
<rect x="851.6138996138997" y="450.7844779068017" width="2" height="19.215522093198274" fill="#8aa6c1" opacity="0.75" />
<rect x="854.8880308880309" y="444.2532432642191" width="2" height="25.746756735780867" fill="#8aa6c1" opacity="0.75" />
<rect x="858.1621621621622" y="456.8698394533527" width="2" height="13.13016054664731" fill="#8aa6c1" opacity="0.75" />
<rect x="861.4362934362935" y="455.41703334621184" width="2" height="14.582966653788148" fill="#8aa6c1" opacity="0.75" />
<rect x="864.7104247104247" y="449.7655766125464" width="2" height="20.234423387453575" fill="#8aa6c1" opacity="0.75" />
<rect x="867.984555984556" y="442.3129771802501" width="2" height="27.687022819749913" fill="#8aa6c1" opacity="0.75" />
<rect x="871.2586872586872" y="453.88050957869467" width="2" height="16.119490421305326" fill="#8aa6c1" opacity="0.75" />
<rect x="874.5328185328185" y="459.3253023441598" width="2" height="10.674697655840168" fill="#8aa6c1" opacity="0.75" />
<rect x="877.8069498069498" y="470.0" width="2" height="0.0" fill="#8aa6c1" opacity="0.75" />
<rect x="881.081081081081" y="455.76359015631215" width="2" height="14.23640984368783" fill="#8aa6c1" opacity="0.75" />
<rect x="884.3552123552123" y="432.2932839196701" width="2" height="37.706716080329876" fill="#8aa6c1" opacity="0.75" />
<rect x="887.6293436293437" y="455.80436106343814" width="2" height="14.195638936561835" fill="#8aa6c1" opacity="0.75" />
<rect x="890.903474903475" y="459.7973055893473" width="2" height="10.202694410652725" fill="#8aa6c1" opacity="0.75" />
<rect x="894.1776061776062" y="427.9361937620967" width="2" height="42.06380623790328" fill="#8aa6c1" opacity="0.75" />
<rect x="897.4517374517375" y="447.6616500377276" width="2" height="22.338349962272407" fill="#8aa6c1" opacity="0.75" />
<rect x="900.7258687258687" y="453.4121875435457" width="2" height="16.587812456454266" fill="#8aa6c1" opacity="0.75" />
<rect x="904.0" y="454.7730181158914" width="2" height="15.226981884108639" fill="#8aa6c1" opacity="0.75" />
</svg>