<svg xmlns="http://www.w3.org/2000/svg" width="960" height="520" viewBox="0 0 960 520"><rect width="100%" height="100%" fill="white" />
<text x="56.00" y="32.00" font-size="20" font-family="Arial" fill="#1f2933" text-anchor="start">日月光投控(3711) Price / Volume</text>
<line x1="56" y1="244" x2="904" y2="244" stroke="#cbd2d9" />
<line x1="56" y1="56" x2="56" y2="244" stroke="#cbd2d9" />
<text x="16.00" y="38.00" font-size="12" font-family="Arial" fill="#52606d" text-anchor="start">Price</text>
<line x1="56" y1="244.00" x2="904" y2="244.00" stroke="#edf2f7" />
<line x1="52" y1="244.00" x2="56" y2="244.00" stroke="#9fb3c8" />
<text x="48.00" y="248.00" font-size="11" font-family="Arial" fill="#52606d" text-anchor="end">102</text>
<line x1="56" y1="197.00" x2="904" y2="197.00" stroke="#edf2f7" />
<line x1="52" y1="197.00" x2="56" y2="197.00" stroke="#9fb3c8" />
<text x="48.00" y="201.00" font-size="11" font-family="Arial" fill="#52606d" text-anchor="end">265</text>
<line x1="56" y1="150.00" x2="904" y2="150.00" stroke="#edf2f7" />
<line x1="52" y1="150.00" x2="56" y2="150.00" stroke="#9fb3c8" />
<text x="48.00" y="154.00" font-size="11" font-family="Arial" fill="#52606d" text-anchor="end">429</text>
<line x1="56" y1="103.00" x2="904" y2="103.00" stroke="#edf2f7" />
<line x1="52" y1="103.00" x2="56" y2="103.00" stroke="#9fb3c8" />
<text x="48.00" y="107.00" font-size="11" font-family="Arial" fill="#52606d" text-anchor="end">592</text>
<line x1="56" y1="56.00" x2="904" y2="56.00" stroke="#edf2f7" />
<line x1="52" y1="56.00" x2="56" y2="56.00" stroke="#9fb3c8" />
<text x="48.00" y="60.00" font-size="11" font-family="Arial" fill="#52606d" text-anchor="end">755</text>
<polyline fill="none" stroke="#1f77b4" stroke-width="2" points="56.00,233.52 59.27,233.93 62.55,233.52 65.82,232.69 69.10,232.69 72.37,233.24 75.64,233.65 78.92,232.97 82.19,232.28 85.47,231.32 88.74,231.46 92.02,232.14 95.29,232.83 98.56,233.38 101.84,233.01 105.11,232.30 108.39,231.44 111.66,232.30 114.93,232.58 118.21,231.58 121.48,230.59 124.76,230.59 128.03,231.01 131.31,230.44 134.58,230.30 137.85,230.16 141.13,229.45 144.40,229.87 147.68,230.30 150.95,229.59 154.22,229.02 157.50,229.59 160.77,229.30 164.05,229.59 167.32,230.02 170.59,229.87 173.87,231.30 177.14,231.58 180.42,232.01 183.69,231.16 186.97,230.87 190.24,230.30 193.51,231.16 196.79,231.01 200.06,231.16 203.34,231.16 206.61,230.44 209.88,231.01 213.16,232.01 216.43,232.30 219.71,232.44 222.98,231.01 226.25,230.87 229.53,230.44 232.80,231.30 236.08,230.30 239.35,228.88 242.63,228.59 245.90,228.59 249.17,229.45 252.45,228.88 255.72,224.46 259.00,225.74 262.27,225.17 265.54,225.88 268.82,225.74 272.09,225.88 275.37,225.03 278.64,225.17 281.92,224.88 285.19,224.88 288.46,224.17 291.74,223.60 295.01,224.31 298.29,224.31 301.56,226.17 304.83,226.59 308.11,226.88 311.38,226.45 314.66,226.17 317.93,223.89 321.20,223.60 324.48,222.32 327.75,224.03 331.03,225.03 334.30,222.60 337.58,218.75 340.85,217.47 344.12,216.33 347.40,217.76 350.67,218.33 353.95,217.47 357.22,215.62 360.49,215.47 363.77,210.34 367.04,209.20 370.32,202.79 373.59,203.21 376.86,205.21 380.14,206.35 383.41,206.64 386.69,208.20 389.96,208.20 393.24,208.35 396.51,208.63 399.78,207.35 403.06,209.91 406.33,210.63 409.61,212.05 412.88,213.62 416.15,209.91 419.43,213.76 422.70,213.34 425.98,212.91 429.25,211.34 432.53,207.63 435.80,207.92 439.07,209.34 442.35,208.20 445.62,208.06 448.90,208.35 452.17,207.49 455.44,205.64 458.72,204.93 461.99,203.64 465.27,203.64 468.54,203.93 471.81,206.64 475.09,208.06 478.36,208.20 481.64,210.06 484.91,207.92 488.19,207.21 491.46,206.49 494.73,206.49 498.01,204.78 501.28,201.79 504.56,202.36 507.83,201.93 511.10,199.79 514.38,198.22 517.65,195.94 520.93,194.95 524.20,195.37 527.47,195.80 530.75,192.66 534.02,190.81 537.30,189.39 540.57,188.25 543.85,186.82 547.12,188.10 550.39,188.96 553.67,190.38 556.94,188.39 560.22,185.68 563.49,184.40 566.76,185.96 570.04,183.83 573.31,184.97 576.59,188.67 579.86,190.10 583.14,187.25 586.41,187.11 589.68,192.38 592.96,186.53 596.23,180.12 599.51,175.27 602.78,172.28 606.05,173.85 609.33,164.58 612.60,162.44 615.88,162.87 619.15,167.72 622.42,170.85 625.70,179.98 628.97,172.56 632.25,175.84 635.52,182.12 638.80,177.70 642.07,174.84 645.34,177.84 648.62,175.99 651.89,177.13 655.17,175.84 658.44,171.42 661.71,174.42 664.99,175.27 668.26,179.41 671.54,178.55 674.81,172.99 678.08,171.00 681.36,172.56 684.63,172.56 687.91,179.69 691.18,170.43 694.46,170.43 697.73,172.99 701.00,164.15 704.28,161.59 707.55,161.30 710.83,154.32 714.10,152.46 717.37,146.05 720.65,144.91 723.92,147.33 727.20,141.77 730.47,138.78 733.75,140.77 737.02,140.92 740.29,131.93 743.57,132.08 746.84,132.08 750.12,134.07 753.39,137.07 756.66,123.67 759.94,125.09 763.21,123.95 766.49,119.39 769.76,126.23 773.03,120.24 776.31,115.11 779.58,117.11 782.86,117.11 786.13,117.39 789.41,127.94 792.68,138.78 795.95,137.64 799.23,127.94 802.50,113.40 805.78,97.43 809.05,99.15 812.32,90.31 815.60,94.58 818.87,99.15 822.15,102.00 825.42,105.13 828.69,97.15 831.97,104.28 835.24,108.84 838.52,119.39 841.79,111.12 845.07,119.67 848.34,118.25 851.61,105.13 854.89,105.13 858.16,104.56 861.44,103.71 864.71,98.58 867.98,81.18 871.26,84.60 874.53,87.17 877.81,90.59 881.08,93.16 884.36,94.58 887.63,79.47 890.90,72.91 894.18,66.07 897.45,77.12 900.73,77.99 904.00,86.04" />
<line x1="56" y1="470" x2="904" y2="470" stroke="#cbd2d9" />
<line x1="56" y1="370" x2="56" y2="470" stroke="#cbd2d9" />
<text x="16.00" y="362.00" font-size="12" font-family="Arial" fill="#52606d" text-anchor="start">Volume</text>
<line x1="56" y1="470.00" x2="904" y2="470.00" stroke="#edf2f7" />
<line x1="52" y1="470.00" x2="56" y2="470.00" stroke="#9fb3c8" />
<text x="48.00" y="474.00" font-size="11" font-family="Arial" fill="#52606d" text-anchor="end">0</text>
<line x1="56" y1="420.00" x2="904" y2="420.00" stroke="#edf2f7" />
<line x1="52" y1="420.00" x2="56" y2="420.00" stroke="#9fb3c8" />
<text x="48.00" y="424.00" font-size="11" font-family="Arial" fill="#52606d" text-anchor="end">26.8M</text>
<line x1="56" y1="370.00" x2="904" y2="370.00" stroke="#edf2f7" />
<line x1="52" y1="370.00" x2="56" y2="370.00" stroke="#9fb3c8" />
<text x="48.00" y="374.00" font-size="11" font-family="Arial" fill="#52606d" text-anchor="end">53.5M</text>
<line x1="56.00" y1="470" x2="56.00" y2="474" stroke="#9fb3c8" />
<text x="56.00" y="488.00" font-size="11" font-family="Arial" fill="#52606d" text-anchor="middle">06/12</text>
<line x1="226.25" y1="470" x2="226.25" y2="474" stroke="#9fb3c8" />
<text x="226.25" y="488.00" font-size="11" font-family="Arial" fill="#52606d" text-anchor="middle">08/26</text>
<line x1="396.51" y1="470" x2="396.51" y2="474" stroke="#9fb3c8" />
<text x="396.51" y="488.00" font-size="11" font-family="Arial" fill="#52606d" text-anchor="middle">11/12</text>
<line x1="563.49" y1="470" x2="563.49" y2="474" stroke="#9fb3c8" />
<text x="563.49" y="488.00" font-size="11" font-family="Arial" fill="#52606d" text-anchor="middle">01/26</text>
<line x1="733.75" y1="470" x2="733.75" y2="474" stroke="#9fb3c8" />
<text x="733.75" y="488.00" font-size="11" font-family="Arial" fill="#52606d" text-anchor="middle">04/22</text>
<line x1="904.00" y1="470" x2="904.00" y2="474" stroke="#9fb3c8" />
<text x="904.00" y="488.00" font-size="11" font-family="Arial" fill="#52606d" text-anchor="middle">07/07</text>
<rect x="56.0" y="445.63678406061666" width="2" height="24.363215939383338" fill="#8aa6c1" opacity="0.75" />
<rect x="59.27413127413127" y="444.3639018089014" width="2" height="25.636098191098572" fill="#8aa6c1" opacity="0.75" />
<rect x="62.54826254826255" y="451.37150356054116" width="2" height="18.62849643945884" fill="#8aa6c1" opacity="0.75" />
<rect x="65.82239382239382" y="446.6965066628393" width="2" height="23.303493337160745" fill="#8aa6c1" opacity="0.75" />
<rect x="69.0965250965251" y="449.6278849503408" width="2" height="20.372115049659197" fill="#8aa6c1" opacity="0.75" />
<rect x="72.37065637065638" y="454.0613679415243" width="2" height="15.938632058475703" fill="#8aa6c1" opacity="0.75" />
<rect x="75.64478764478764" y="449.24997084587335" width="2" height="20.750029154126654" fill="#8aa6c1" opacity="0.75" />
<rect x="78.91891891891892" y="445.44684118775405" width="2" height="24.55315881224593" fill="#8aa6c1" opacity="0.75" />
<rect x="82.1930501930502" y="444.575286046835" width="2" height="25.424713953165018" fill="#8aa6c1" opacity="0.75" />
<rect x="85.46718146718146" y="446.9997170554631" width="2" height="23.00028294453689" fill="#8aa6c1" opacity="0.75" />
<rect x="88.74131274131274" y="439.48904029100305" width="2" height="30.510959708996964" fill="#8aa6c1" opacity="0.75" />
<rect x="92.01544401544402" y="431.5765150054047" width="2" height="38.42348499459528" fill="#8aa6c1" opacity="0.75" />
<rect x="95.28957528957528" y="434.08369327466625" width="2" height="35.91630672533374" fill="#8aa6c1" opacity="0.75" />
<rect x="98.56370656370656" y="429.00002653773066" width="2" height="40.99997346226933" fill="#8aa6c1" opacity="0.75" />
<rect x="101.83783783783784" y="370.47019439074603" width="2" height="99.52980560925397" fill="#8aa6c1" opacity="0.75" />
<rect x="105.1119691119691" y="403.48985548523683" width="2" height="66.5101445147632" fill="#8aa6c1" opacity="0.75" />
<rect x="108.3861003861004" y="422.50634289140163" width="2" height="47.49365710859838" fill="#8aa6c1" opacity="0.75" />
<rect x="111.66023166023166" y="441.787815144896" width="2" height="28.212184855103988" fill="#8aa6c1" opacity="0.75" />
<rect x="114.93436293436294" y="454.70862879919383" width="2" height="15.29137120080615" fill="#8aa6c1" opacity="0.75" />
<rect x="118.20849420849422" y="446.81999494661807" width="2" height="23.18000505338195" fill="#8aa6c1" opacity="0.75" />
<rect x="121.48262548262548" y="439.5695056805695" width="2" height="30.43049431943055" fill="#8aa6c1" opacity="0.75" />
<rect x="124.75675675675676" y="448.03738530841326" width="2" height="21.96261469158672" fill="#8aa6c1" opacity="0.75" />
<rect x="128.03088803088804" y="455.7073183585778" width="2" height="14.292681641422183" fill="#8aa6c1" opacity="0.75" />
<rect x="131.3050193050193" y="453.0262076910081" width="2" height="16.973792308991882" fill="#8aa6c1" opacity="0.75" />
<rect x="134.57915057915056" y="447.4513873626579" width="2" height="22.5486126373421" fill="#8aa6c1" opacity="0.75" />
<rect x="137.85328185328186" y="452.9402011485231" width="2" height="17.059798851476916" fill="#8aa6c1" opacity="0.75" />
<rect x="141.12741312741312" y="442.72771989313145" width="2" height="27.272280106868564" fill="#8aa6c1" opacity="0.75" />
<rect x="144.4015444015444" y="450.06480065305243" width="2" height="19.935199346947563" fill="#8aa6c1" opacity="0.75" />
<rect x="147.67567567567568" y="447.6340136710428" width="2" height="22.365986328957224" fill="#8aa6c1" opacity="0.75" />
<rect x="150.94980694980694" y="447.3580661245494" width="2" height="22.641933875450583" fill="#8aa6c1" opacity="0.75" />
<rect x="154.2239382239382" y="449.1531249486065" width="2" height="20.846875051393493" fill="#8aa6c1" opacity="0.75" />
<rect x="157.4980694980695" y="454.7001834467354" width="2" height="15.29981655326459" fill="#8aa6c1" opacity="0.75" />
<rect x="160.7722007722008" y="450.33766272114156" width="2" height="19.662337278858473" fill="#8aa6c1" opacity="0.75" />
<rect x="164.04633204633205" y="460.5319076965399" width="2" height="9.468092303460072" fill="#8aa6c1" opacity="0.75" />
<rect x="167.32046332046332" y="448.7526500353587" width="2" height="21.247349964641277" fill="#8aa6c1" opacity="0.75" />
<rect x="170.59459459459458" y="446.9005070575413" width="2" height="23.099492942458724" fill="#8aa6c1" opacity="0.75" />
<rect x="173.86872586872587" y="435.95991083322497" width="2" height="34.04008916677506" fill="#8aa6c1" opacity="0.75" />
<rect x="177.14285714285714" y="440.08094381626023" width="2" height="29.919056183739773" fill="#8aa6c1" opacity="0.75" />
<rect x="180.41698841698843" y="451.9884945855554" width="2" height="18.0115054144446" fill="#8aa6c1" opacity="0.75" />
<rect x="183.6911196911197" y="445.86909572869615" width="2" height="24.13090427130382" fill="#8aa6c1" opacity="0.75" />
<rect x="186.96525096525096" y="444.1830714694726" width="2" height="25.81692853052736" fill="#8aa6c1" opacity="0.75" />
<rect x="190.23938223938225" y="431.9542627818419" width="2" height="38.04573721815809" fill="#8aa6c1" opacity="0.75" />
<rect x="193.51351351351352" y="445.08127273461224" width="2" height="24.918727265387773" fill="#8aa6c1" opacity="0.75" />
<rect x="196.78764478764478" y="442.99418861075355" width="2" height="27.005811389246464" fill="#8aa6c1" opacity="0.75" />
<rect x="200.06177606177607" y="454.33472525599564" width="2" height="15.665274744004343" fill="#8aa6c1" opacity="0.75" />
<rect x="203.33590733590734" y="458.5746659609873" width="2" height="11.425334039012707" fill="#8aa6c1" opacity="0.75" />
<rect x="206.6100386100386" y="447.5639746194639" width="2" height="22.43602538053611" fill="#8aa6c1" opacity="0.75" />
<rect x="209.8841698841699" y="448.828351715384" width="2" height="21.17164828461604" fill="#8aa6c1" opacity="0.75" />
<rect x="213.15830115830116" y="445.598775302418" width="2" height="24.401224697582002" fill="#8aa6c1" opacity="0.75" />
<rect x="216.43243243243242" y="451.6069848054672" width="2" height="18.39301519453278" fill="#8aa6c1" opacity="0.75" />
<rect x="219.7065637065637" y="457.7247689722348" width="2" height="12.275231027765194" fill="#8aa6c1" opacity="0.75" />
<rect x="222.98069498069498" y="453.252484828641" width="2" height="16.747515171358987" fill="#8aa6c1" opacity="0.75" />
<rect x="226.25482625482624" y="446.13822008823985" width="2" height="23.861779911760177" fill="#8aa6c1" opacity="0.75" />
<rect x="229.52895752895753" y="455.2903582817903" width="2" height="14.709641718209667" fill="#8aa6c1" opacity="0.75" />
<rect x="232.8030888030888" y="450.73823294595724" width="2" height="19.26176705404278" fill="#8aa6c1" opacity="0.75" />
<rect x="236.0772200772201" y="437.4275389132837" width="2" height="32.57246108671633" fill="#8aa6c1" opacity="0.75" />
<rect x="239.35135135135135" y="429.5771885404846" width="2" height="40.42281145951539" fill="#8aa6c1" opacity="0.75" />
<rect x="242.62548262548262" y="417.4283313074953" width="2" height="52.5716686925047" fill="#8aa6c1" opacity="0.75" />
<rect x="245.8996138996139" y="453.6893818428099" width="2" height="16.310618157190078" fill="#8aa6c1" opacity="0.75" />
<rect x="249.17374517374517" y="451.6718097536252" width="2" height="18.328190246374795" fill="#8aa6c1" opacity="0.75" />
<rect x="252.44787644787644" y="458.47997859040544" width="2" height="11.520021409594548" fill="#8aa6c1" opacity="0.75" />
<rect x="255.72200772200773" y="386.18583662625457" width="2" height="83.81416337374544" fill="#8aa6c1" opacity="0.75" />
<rect x="258.996138996139" y="370.7116671824705" width="2" height="99.28833281752955" fill="#8aa6c1" opacity="0.75" />
<rect x="262.27027027027026" y="420.4287861866253" width="2" height="49.57121381337471" fill="#8aa6c1" opacity="0.75" />
<rect x="265.5444015444016" y="439.71205254022146" width="2" height="30.28794745977852" fill="#8aa6c1" opacity="0.75" />
<rect x="268.81853281853284" y="449.7505172988627" width="2" height="20.24948270113731" fill="#8aa6c1" opacity="0.75" />
<rect x="272.0926640926641" y="454.0894175753036" width="2" height="15.910582424696388" fill="#8aa6c1" opacity="0.75" />
<rect x="275.3667953667954" y="444.21833861845323" width="2" height="25.781661381546783" fill="#8aa6c1" opacity="0.75" />
<rect x="278.64092664092664" y="453.60598608974385" width="2" height="16.39401391025612" fill="#8aa6c1" opacity="0.75" />
<rect x="281.9150579150579" y="434.0803106484326" width="2" height="35.91968935156737" fill="#8aa6c1" opacity="0.75" />
<rect x="285.18918918918916" y="437.1656227246699" width="2" height="32.83437727533008" fill="#8aa6c1" opacity="0.75" />
<rect x="288.46332046332043" y="433.2495731536841" width="2" height="36.75042684631589" fill="#8aa6c1" opacity="0.75" />
<rect x="291.73745173745175" y="420.68054888997534" width="2" height="49.31945111002468" fill="#8aa6c1" opacity="0.75" />
<rect x="295.011583011583" y="438.1807077425885" width="2" height="31.8192922574115" fill="#8aa6c1" opacity="0.75" />
<rect x="298.2857142857143" y="442.7415157753727" width="2" height="27.25848422462731" fill="#8aa6c1" opacity="0.75" />
<rect x="301.5598455598456" y="441.3676200813624" width="2" height="28.63237991863756" fill="#8aa6c1" opacity="0.75" />
<rect x="304.83397683397686" y="423.83961530008565" width="2" height="46.16038469991433" fill="#8aa6c1" opacity="0.75" />
<rect x="308.1081081081081" y="443.7148094740446" width="2" height="26.285190525955393" fill="#8aa6c1" opacity="0.75" />
<rect x="311.3822393822394" y="441.4407595621798" width="2" height="28.559240437820225" fill="#8aa6c1" opacity="0.75" />
<rect x="314.65637065637065" y="432.900510421479" width="2" height="37.09948957852103" fill="#8aa6c1" opacity="0.75" />
<rect x="317.9305019305019" y="403.2763613108293" width="2" height="66.72363868917066" fill="#8aa6c1" opacity="0.75" />
<rect x="321.2046332046332" y="429.240505098982" width="2" height="40.759494901018" fill="#8aa6c1" opacity="0.75" />
<rect x="324.4787644787645" y="421.9368263714774" width="2" height="48.063173628522605" fill="#8aa6c1" opacity="0.75" />
<rect x="327.75289575289577" y="428.17055612617906" width="2" height="41.829443873820935" fill="#8aa6c1" opacity="0.75" />
<rect x="331.02702702702703" y="423.4902105675486" width="2" height="46.509789432451385" fill="#8aa6c1" opacity="0.75" />
<rect x="334.3011583011583" y="430.95511535316115" width="2" height="39.04488464683887" fill="#8aa6c1" opacity="0.75" />
<rect x="337.57528957528956" y="372.35410789119976" width="2" height="97.64589210880021" fill="#8aa6c1" opacity="0.75" />
<rect x="340.8494208494208" y="390.011553257114" width="2" height="79.98844674288603" fill="#8aa6c1" opacity="0.75" />
<rect x="344.12355212355214" y="424.5001450230916" width="2" height="45.49985497690844" fill="#8aa6c1" opacity="0.75" />
<rect x="347.3976833976834" y="424.19245124906746" width="2" height="45.80754875093256" fill="#8aa6c1" opacity="0.75" />
<rect x="350.6718146718147" y="435.8034989437236" width="2" height="34.19650105627643" fill="#8aa6c1" opacity="0.75" />
<rect x="353.94594594594594" y="434.8554067449193" width="2" height="35.14459325508067" fill="#8aa6c1" opacity="0.75" />
<rect x="357.2200772200772" y="412.58593926373123" width="2" height="57.41406073626878" fill="#8aa6c1" opacity="0.75" />
<rect x="360.4942084942085" y="431.59121541311396" width="2" height="38.40878458688602" fill="#8aa6c1" opacity="0.75" />
<rect x="363.7683397683398" y="390.05275214955617" width="2" height="79.94724785044382" fill="#8aa6c1" opacity="0.75" />
<rect x="367.04247104247105" y="383.8484568496499" width="2" height="86.15154315035008" fill="#8aa6c1" opacity="0.75" />
<rect x="370.3166023166023" y="370.0" width="2" height="100.0" fill="#8aa6c1" opacity="0.75" />
<rect x="373.5907335907336" y="394.22265754067746" width="2" height="75.77734245932251" fill="#8aa6c1" opacity="0.75" />
<rect x="376.86486486486484" y="398.44531134364644" width="2" height="71.55468865635358" fill="#8aa6c1" opacity="0.75" />
<rect x="380.13899613899616" y="408.4649698217412" width="2" height="61.5350301782588" fill="#8aa6c1" opacity="0.75" />
<rect x="383.4131274131274" y="424.0355216869325" width="2" height="45.964478313067474" fill="#8aa6c1" opacity="0.75" />
<rect x="386.6872586872587" y="432.660431795042" width="2" height="37.339568204958" fill="#8aa6c1" opacity="0.75" />
<rect x="389.96138996138995" y="428.0072294758686" width="2" height="41.992770524131394" fill="#8aa6c1" opacity="0.75" />
<rect x="393.2355212355212" y="435.4930934621497" width="2" height="34.50690653785028" fill="#8aa6c1" opacity="0.75" />
<rect x="396.5096525096525" y="440.6058395715689" width="2" height="29.394160428431103" fill="#8aa6c1" opacity="0.75" />
<rect x="399.7837837837838" y="431.1436977001132" width="2" height="38.85630229988683" fill="#8aa6c1" opacity="0.75" />
<rect x="403.05791505791507" y="432.323780124062" width="2" height="37.676219875937974" fill="#8aa6c1" opacity="0.75" />
<rect x="406.33204633204633" y="423.6706017262233" width="2" height="46.32939827377668" fill="#8aa6c1" opacity="0.75" />
<rect x="409.6061776061776" y="419.6798633942281" width="2" height="50.320136605771914" fill="#8aa6c1" opacity="0.75" />
<rect x="412.88030888030886" y="391.36931139447927" width="2" height="78.63068860552075" fill="#8aa6c1" opacity="0.75" />
<rect x="416.1544401544402" y="397.7695299009208" width="2" height="72.23047009907918" fill="#8aa6c1" opacity="0.75" />
<rect x="419.42857142857144" y="407.48509401832075" width="2" height="62.51490598167925" fill="#8aa6c1" opacity="0.75" />
<rect x="422.7027027027027" y="407.3222775652267" width="2" height="62.67772243477325" fill="#8aa6c1" opacity="0.75" />
<rect x="425.976833976834" y="425.5710452427193" width="2" height="44.42895475728068" fill="#8aa6c1" opacity="0.75" />
<rect x="429.25096525096524" y="432.25886547089897" width="2" height="37.74113452910105" fill="#8aa6c1" opacity="0.75" />
<rect x="432.5250965250965" y="400.0716462662534" width="2" height="69.92835373374658" fill="#8aa6c1" opacity="0.75" />
<rect x="435.7992277992278" y="425.01569090047377" width="2" height="44.98430909952621" fill="#8aa6c1" opacity="0.75" />
<rect x="439.0733590733591" y="417.76632855355166" width="2" height="52.23367144644836" fill="#8aa6c1" opacity="0.75" />
<rect x="442.34749034749035" y="426.12641827350757" width="2" height="43.873581726492425" fill="#8aa6c1" opacity="0.75" />
<rect x="445.6216216216216" y="439.8026452510918" width="2" height="30.197354748908218" fill="#8aa6c1" opacity="0.75" />
<rect x="448.8957528957529" y="436.85534058747805" width="2" height="33.14465941252192" fill="#8aa6c1" opacity="0.75" />
<rect x="452.16988416988414" y="444.6829376595067" width="2" height="25.31706234049329" fill="#8aa6c1" opacity="0.75" />
<rect x="455.44401544401546" y="426.27642373056204" width="2" height="43.723576269437956" fill="#8aa6c1" opacity="0.75" />
<rect x="458.7181467181467" y="422.13879532158495" width="2" height="47.86120467841503" fill="#8aa6c1" opacity="0.75" />
<rect x="461.992277992278" y="433.97983730502244" width="2" height="36.020162694977564" fill="#8aa6c1" opacity="0.75" />
<rect x="465.26640926640925" y="437.5463326351294" width="2" height="32.453667364870626" fill="#8aa6c1" opacity="0.75" />
<rect x="468.5405405405405" y="444.783418478334" width="2" height="25.216581521666004" fill="#8aa6c1" opacity="0.75" />
<rect x="471.81467181467184" y="436.61689720852974" width="2" height="33.38310279147025" fill="#8aa6c1" opacity="0.75" />
<rect x="475.0888030888031" y="427.23427508637843" width="2" height="42.765724913621554" fill="#8aa6c1" opacity="0.75" />
<rect x="478.36293436293437" y="443.6404832707641" width="2" height="26.35951672923591" fill="#8aa6c1" opacity="0.75" />
<rect x="481.63706563706563" y="439.82005549749647" width="2" height="30.17994450250352" fill="#8aa6c1" opacity="0.75" />
<rect x="484.9111969111969" y="427.1316338720119" width="2" height="42.86836612798811" fill="#8aa6c1" opacity="0.75" />
<rect x="488.18532818532816" y="438.6325910991704" width="2" height="31.367408900829624" fill="#8aa6c1" opacity="0.75" />
<rect x="491.4594594594595" y="439.53373954749804" width="2" height="30.46626045250195" fill="#8aa6c1" opacity="0.75" />
<rect x="494.73359073359075" y="434.27483408311764" width="2" height="35.72516591688233" fill="#8aa6c1" opacity="0.75" />
<rect x="498.007722007722" y="438.37286147005574" width="2" height="31.627138529944276" fill="#8aa6c1" opacity="0.75" />
<rect x="501.2818532818533" y="423.05972372353517" width="2" height="46.94027627646484" fill="#8aa6c1" opacity="0.75" />
<rect x="504.55598455598454" y="442.14318152256305" width="2" height="27.856818477436953" fill="#8aa6c1" opacity="0.75" />
<rect x="507.83011583011586" y="435.5094141665134" width="2" height="34.490585833486584" fill="#8aa6c1" opacity="0.75" />
<rect x="511.1042471042471" y="425.3574538878897" width="2" height="44.642546112110324" fill="#8aa6c1" opacity="0.75" />
<rect x="514.3783783783783" y="428.8024307066213" width="2" height="41.19756929337872" fill="#8aa6c1" opacity="0.75" />
<rect x="517.6525096525097" y="416.25789590930225" width="2" height="53.74210409069774" fill="#8aa6c1" opacity="0.75" />
<rect x="520.9266409266409" y="421.60477021315404" width="2" height="48.39522978684595" fill="#8aa6c1" opacity="0.75" />
<rect x="524.2007722007722" y="433.60949579806805" width="2" height="36.39050420193195" fill="#8aa6c1" opacity="0.75" />
<rect x="527.4749034749035" y="436.9384335861519" width="2" height="33.06156641384806" fill="#8aa6c1" opacity="0.75" />
<rect x="530.7490347490348" y="424.48827219189695" width="2" height="45.51172780810305" fill="#8aa6c1" opacity="0.75" />
<rect x="534.023166023166" y="419.1337000772958" width="2" height="50.86629992270419" fill="#8aa6c1" opacity="0.75" />
<rect x="537.2972972972973" y="435.9343299559399" width="2" height="34.065670044060106" fill="#8aa6c1" opacity="0.75" />
<rect x="540.5714285714286" y="440.6125861354934" width="2" height="29.387413864506566" fill="#8aa6c1" opacity="0.75" />
<rect x="543.8455598455598" y="416.2366115279902" width="2" height="53.7633884720098" fill="#8aa6c1" opacity="0.75" />
<rect x="547.1196911196912" y="436.1550977111768" width="2" height="33.84490228882321" fill="#8aa6c1" opacity="0.75" />
<rect x="550.3938223938223" y="441.6595799712645" width="2" height="28.3404200287355" fill="#8aa6c1" opacity="0.75" />
<rect x="553.6679536679537" y="432.2989523950489" width="2" height="37.701047604951114" fill="#8aa6c1" opacity="0.75" />
<rect x="556.9420849420849" y="432.497204194008" width="2" height="37.502795805991994" fill="#8aa6c1" opacity="0.75" />
<rect x="560.2162162162163" y="423.6902340403583" width="2" height="46.309765959641716" fill="#8aa6c1" opacity="0.75" />
<rect x="563.4903474903475" y="441.0319439523128" width="2" height="28.96805604768718" fill="#8aa6c1" opacity="0.75" />
<rect x="566.7644787644788" y="448.20113058208085" width="2" height="21.79886941791917" fill="#8aa6c1" opacity="0.75" />
<rect x="570.03861003861" y="435.1862219840056" width="2" height="34.8137780159944" fill="#8aa6c1" opacity="0.75" />
<rect x="573.3127413127413" y="432.9598241183867" width="2" height="37.040175881613315" fill="#8aa6c1" opacity="0.75" />
<rect x="576.5868725868726" y="422.49835914594854" width="2" height="47.50164085405145" fill="#8aa6c1" opacity="0.75" />
<rect x="579.8610038610038" y="444.6451438195494" width="2" height="25.354856180450586" fill="#8aa6c1" opacity="0.75" />
<rect x="583.1351351351351" y="432.41432237586696" width="2" height="37.58567762413304" fill="#8aa6c1" opacity="0.75" />
<rect x="586.4092664092664" y="446.38851200327724" width="2" height="23.611487996722776" fill="#8aa6c1" opacity="0.75" />
<rect x="589.6833976833976" y="397.9884101133423" width="2" height="72.01158988665772" fill="#8aa6c1" opacity="0.75" />
<rect x="592.957528957529" y="376.7990992869947" width="2" height="93.20090071300528" fill="#8aa6c1" opacity="0.75" />
<rect x="596.2316602316603" y="404.58602074577755" width="2" height="65.41397925422248" fill="#8aa6c1" opacity="0.75" />
<rect x="599.5057915057915" y="410.63928645648787" width="2" height="59.360713543512155" fill="#8aa6c1" opacity="0.75" />
<rect x="602.7799227799228" y="431.07634792983276" width="2" height="38.92365207016725" fill="#8aa6c1" opacity="0.75" />
<rect x="606.0540540540541" y="397.59116831798633" width="2" height="72.4088316820137" fill="#8aa6c1" opacity="0.75" />
<rect x="609.3281853281853" y="406.6557301314627" width="2" height="63.34426986853732" fill="#8aa6c1" opacity="0.75" />
<rect x="612.6023166023166" y="416.07050589137623" width="2" height="53.929494108623786" fill="#8aa6c1" opacity="0.75" />
<rect x="615.8764478764479" y="399.41897507546435" width="2" height="70.58102492453567" fill="#8aa6c1" opacity="0.75" />
<rect x="619.1505791505791" y="423.2468857412399" width="2" height="46.75311425876007" fill="#8aa6c1" opacity="0.75" />
<rect x="622.4247104247104" y="414.3309464326562" width="2" height="55.66905356734379" fill="#8aa6c1" opacity="0.75" />
<rect x="625.6988416988416" y="406.60998805428346" width="2" height="63.39001194571651" fill="#8aa6c1" opacity="0.75" />
<rect x="628.972972972973" y="407.4198205451373" width="2" height="62.58017945486268" fill="#8aa6c1" opacity="0.75" />
<rect x="632.2471042471043" y="446.411295205716" width="2" height="23.588704794283995" fill="#8aa6c1" opacity="0.75" />
<rect x="635.5212355212356" y="416.3888614790262" width="2" height="53.611138520973775" fill="#8aa6c1" opacity="0.75" />
<rect x="638.7953667953668" y="423.91436199557756" width="2" height="46.08563800442246" fill="#8aa6c1" opacity="0.75" />
<rect x="642.0694980694981" y="439.41796215644854" width="2" height="30.58203784355148" fill="#8aa6c1" opacity="0.75" />
<rect x="645.3436293436293" y="439.1038058843493" width="2" height="30.896194115650683" fill="#8aa6c1" opacity="0.75" />
<rect x="648.6177606177606" y="445.26025290831103" width="2" height="24.73974709168898" fill="#8aa6c1" opacity="0.75" />
<rect x="651.8918918918919" y="447.4781381427177" width="2" height="22.521861857282328" fill="#8aa6c1" opacity="0.75" />
<rect x="655.1660231660231" y="450.8726596337943" width="2" height="19.127340366205733" fill="#8aa6c1" opacity="0.75" />
<rect x="658.4401544401544" y="420.55216794571055" width="2" height="49.44783205428947" fill="#8aa6c1" opacity="0.75" />
<rect x="661.7142857142857" y="437.0045162732355" width="2" height="32.99548372676453" fill="#8aa6c1" opacity="0.75" />
<rect x="664.988416988417" y="428.9741036601137" width="2" height="41.02589633988629" fill="#8aa6c1" opacity="0.75" />
<rect x="668.2625482625483" y="441.8665686639486" width="2" height="28.133431336051395" fill="#8aa6c1" opacity="0.75" />
<rect x="671.5366795366796" y="451.3394059884071" width="2" height="18.660594011592877" fill="#8aa6c1" opacity="0.75" />
<rect x="674.8108108108108" y="439.179853302415" width="2" height="30.820146697584995" fill="#8aa6c1" opacity="0.75" />
<rect x="678.0849420849421" y="433.655708826524" width="2" height="36.34429117347602" fill="#8aa6c1" opacity="0.75" />
<rect x="681.3590733590734" y="438.6315090325465" width="2" height="31.36849096745353" fill="#8aa6c1" opacity="0.75" />
<rect x="684.6332046332046" y="441.6580923632634" width="2" height="28.34190763673659" fill="#8aa6c1" opacity="0.75" />
<rect x="687.9073359073359" y="427.1611954088978" width="2" height="42.83880459110216" fill="#8aa6c1" opacity="0.75" />
<rect x="691.1814671814672" y="436.2957289951993" width="2" height="33.70427100480071" fill="#8aa6c1" opacity="0.75" />
<rect x="694.4555984555984" y="424.96107363435345" width="2" height="45.03892636564657" fill="#8aa6c1" opacity="0.75" />
<rect x="697.7297297297297" y="444.5795601165567" width="2" height="25.420439883443297" fill="#8aa6c1" opacity="0.75" />
<rect x="701.003861003861" y="423.4074427495182" width="2" height="46.59255725048179" fill="#8aa6c1" opacity="0.75" />
<rect x="704.2779922779923" y="432.0056637497589" width="2" height="37.99433625024108" fill="#8aa6c1" opacity="0.75" />
<rect x="707.5521235521236" y="441.8043003084357" width="2" height="28.19569969156429" fill="#8aa6c1" opacity="0.75" />
<rect x="710.8262548262549" y="422.736851115108" width="2" height="47.26314888489203" fill="#8aa6c1" opacity="0.75" />
<rect x="714.1003861003861" y="435.1118322396798" width="2" height="34.88816776032019" fill="#8aa6c1" opacity="0.75" />
<rect x="717.3745173745174" y="413.9408062835366" width="2" height="56.059193716463405" fill="#8aa6c1" opacity="0.75" />
<rect x="720.6486486486486" y="426.9020712885675" width="2" height="43.09792871143245" fill="#8aa6c1" opacity="0.75" />
<rect x="723.9227799227799" y="425.4471682372518" width="2" height="44.5528317627482" fill="#8aa6c1" opacity="0.75" />
<rect x="727.1969111969112" y="430.2584961852947" width="2" height="39.74150381470534" fill="#8aa6c1" opacity="0.75" />
<rect x="730.4710424710424" y="437.75002840658493" width="2" height="32.249971593415054" fill="#8aa6c1" opacity="0.75" />
<rect x="733.7451737451737" y="440.76369234771454" width="2" height="29.236307652285458" fill="#8aa6c1" opacity="0.75" />
<rect x="737.019305019305" y="422.8179369642929" width="2" height="47.18206303570708" fill="#8aa6c1" opacity="0.75" />
<rect x="740.2934362934363" y="420.32012165493774" width="2" height="49.679878345062264" fill="#8aa6c1" opacity="0.75" />
<rect x="743.5675675675676" y="415.4279975301222" width="2" height="54.57200246987781" fill="#8aa6c1" opacity="0.75" />
<rect x="746.8416988416989" y="430.4779015457667" width="2" height="39.52209845423326" fill="#8aa6c1" opacity="0.75" />
<rect x="750.1158301158301" y="430.5891824734361" width="2" height="39.410817526563896" fill="#8aa6c1" opacity="0.75" />
<rect x="753.3899613899614" y="403.32230522427" width="2" height="66.67769477573002" fill="#8aa6c1" opacity="0.75" />
<rect x="756.6640926640927" y="420.6914443103853" width="2" height="49.3085556896147" fill="#8aa6c1" opacity="0.75" />
<rect x="759.9382239382239" y="401.8988344329672" width="2" height="68.10116556703282" fill="#8aa6c1" opacity="0.75" />
<rect x="763.2123552123552" y="413.4652183793595" width="2" height="56.53478162064053" fill="#8aa6c1" opacity="0.75" />
<rect x="766.4864864864865" y="425.1253851708656" width="2" height="44.87461482913439" fill="#8aa6c1" opacity="0.75" />
<rect x="769.7606177606177" y="428.76349499670334" width="2" height="41.23650500329666" fill="#8aa6c1" opacity="0.75" />
<rect x="773.034749034749" y="430.88511741637626" width="2" height="39.11488258362375" fill="#8aa6c1" opacity="0.75" />
<rect x="776.3088803088804" y="413.92661046648095" width="2" height="56.07338953351903" fill="#8aa6c1" opacity="0.75" />
<rect x="779.5830115830116" y="431.2409622207371" width="2" height="38.7590377792629" fill="#8aa6c1" opacity="0.75" />
<rect x="782.8571428571429" y="444.08002284487463" width="2" height="25.919977155125366" fill="#8aa6c1" opacity="0.75" />
<rect x="786.1312741312742" y="435.92104053320656" width="2" height="34.07895946679345" fill="#8aa6c1" opacity="0.75" />
<rect x="789.4054054054054" y="423.8537700023473" width="2" height="46.146229997652725" fill="#8aa6c1" opacity="0.75" />
<rect x="792.6795366795367" y="405.1524573938603" width="2" height="64.84754260613971" fill="#8aa6c1" opacity="0.75" />
<rect x="795.953667953668" y="422.9733695741554" width="2" height="47.026630425844616" fill="#8aa6c1" opacity="0.75" />
<rect x="799.2277992277992" y="436.511733040895" width="2" height="33.48826695910498" fill="#8aa6c1" opacity="0.75" />
<rect x="802.5019305019305" y="414.4369553224222" width="2" height="55.563044677577786" fill="#8aa6c1" opacity="0.75" />
<rect x="805.7760617760617" y="422.0110497877729" width="2" height="47.988950212227095" fill="#8aa6c1" opacity="0.75" />
<rect x="809.050193050193" y="399.40193299335135" width="2" height="70.59806700664863" fill="#8aa6c1" opacity="0.75" />
<rect x="812.3243243243244" y="416.92637386953004" width="2" height="53.073626130469954" fill="#8aa6c1" opacity="0.75" />
<rect x="815.5984555984556" y="407.3586697644795" width="2" height="62.641330235520485" fill="#8aa6c1" opacity="0.75" />
<rect x="818.8725868725869" y="392.3263759626468" width="2" height="77.67362403735316" fill="#8aa6c1" opacity="0.75" />
<rect x="822.1467181467182" y="428.08109407214374" width="2" height="41.918905927856244" fill="#8aa6c1" opacity="0.75" />
<rect x="825.4208494208494" y="422.6503100803009" width="2" height="47.34968991969907" fill="#8aa6c1" opacity="0.75" />
<rect x="828.6949806949807" y="418.72625620646505" width="2" height="51.27374379353496" fill="#8aa6c1" opacity="0.75" />
<rect x="831.969111969112" y="432.9423708883337" width="2" height="37.05762911166629" fill="#8aa6c1" opacity="0.75" />
<rect x="835.2432432432432" y="432.84984204443685" width="2" height="37.15015795556313" fill="#8aa6c1" opacity="0.75" />
<rect x="838.5173745173745" y="423.87295005374824" width="2" height="46.12704994625175" fill="#8aa6c1" opacity="0.75" />
<rect x="841.7915057915058" y="437.0987868893145" width="2" height="32.90121311068551" fill="#8aa6c1" opacity="0.75" />
<rect x="845.065637065637" y="435.35235752228795" width="2" height="34.64764247771204" fill="#8aa6c1" opacity="0.75" />
<rect x="848.3397683397683" y="436.9123929707158" width="2" height="33.0876070292842" fill="#8aa6c1" opacity="0.75" />
<rect x="851.6138996138997" y="427.8939899889214" width="2" height="42.106010011078574" fill="#8aa6c1" opacity="0.75" />
<rect x="854.8880308880309" y="429.47158332324153" width="2" height="40.528416676758475" fill="#8aa6c1" opacity="0.75" />
<rect x="858.1621621621622" y="441.90799929432063" width="2" height="28.09200070567937" fill="#8aa6c1" opacity="0.75" />
<rect x="861.4362934362935" y="446.2199133150634" width="2" height="23.780086684936585" fill="#8aa6c1" opacity="0.75" />
<rect x="864.7104247104247" y="406.04602763811204" width="2" height="63.953972361887935" fill="#8aa6c1" opacity="0.75" />
<rect x="867.984555984556" y="406.1812541955778" width="2" height="63.818745804422164" fill="#8aa6c1" opacity="0.75" />
<rect x="871.2586872586872" y="389.6690857116373" width="2" height="80.33091428836272" fill="#8aa6c1" opacity="0.75" />
<rect x="874.5328185328185" y="405.28906129692507" width="2" height="64.71093870307494" fill="#8aa6c1" opacity="0.75" />
<rect x="877.8069498069498" y="412.9860927340441" width="2" height="57.0139072659559" fill="#8aa6c1" opacity="0.75" />
<rect x="881.081081081081" y="389.0735958550307" width="2" height="80.92640414496927" fill="#8aa6c1" opacity="0.75" />
<rect x="884.3552123552123" y="437.65701179172294" width="2" height="32.34298820827708" fill="#8aa6c1" opacity="0.75" />
<rect x="887.6293436293437" y="426.28941413661175" width="2" height="43.710585863388246" fill="#8aa6c1" opacity="0.75" />
<rect x="890.903474903475" y="431.20707428620983" width="2" height="38.7929257137902" fill="#8aa6c1" opacity="0.75" />
<rect x="894.1776061776062" y="425.6222555875005" width="2" height="44.377744412499496" fill="#8aa6c1" opacity="0.75" />
<rect x="897.4517374517375" y="402.5881893642756" width="2" height="67.41181063572442" fill="#8aa6c1" opacity="0.75" />
<rect x="900.7258687258687" y="428.3288761158929" width="2" height="41.67112388410711" fill="#8aa6c1" opacity="0.75" />
<rect x="904.0" y="424.0046388700757" width="2" height="45.99536112992425" fill="#8aa6c1" opacity="0.75" />
</svg>