<svg xmlns="http://www.w3.org/2000/svg" width="960" height="520" viewBox="0 0 960 520"><rect width="100%" height="100%" fill="white" />
<text x="56.00" y="32.00" font-size="20" font-family="Arial" fill="#1f2933" text-anchor="start">ASML Price / Volume</text>
<line x1="56" y1="244" x2="904" y2="244" stroke="#cbd2d9" />
<line x1="56" y1="56" x2="56" y2="244" stroke="#cbd2d9" />
<text x="16.00" y="38.00" font-size="12" font-family="Arial" fill="#52606d" text-anchor="start">Price</text>
<line x1="56" y1="244.00" x2="904" y2="244.00" stroke="#edf2f7" />
<line x1="52" y1="244.00" x2="56" y2="244.00" stroke="#9fb3c8" />
<text x="48.00" y="248.00" font-size="11" font-family="Arial" fill="#52606d" text-anchor="end">608</text>
<line x1="56" y1="197.00" x2="904" y2="197.00" stroke="#edf2f7" />
<line x1="52" y1="197.00" x2="56" y2="197.00" stroke="#9fb3c8" />
<text x="48.00" y="201.00" font-size="11" font-family="Arial" fill="#52606d" text-anchor="end">973</text>
<line x1="56" y1="150.00" x2="904" y2="150.00" stroke="#edf2f7" />
<line x1="52" y1="150.00" x2="56" y2="150.00" stroke="#9fb3c8" />
<text x="48.00" y="154.00" font-size="11" font-family="Arial" fill="#52606d" text-anchor="end">1,338</text>
<line x1="56" y1="103.00" x2="904" y2="103.00" stroke="#edf2f7" />
<line x1="52" y1="103.00" x2="56" y2="103.00" stroke="#9fb3c8" />
<text x="48.00" y="107.00" font-size="11" font-family="Arial" fill="#52606d" text-anchor="end">1,703</text>
<line x1="56" y1="56.00" x2="904" y2="56.00" stroke="#edf2f7" />
<line x1="52" y1="56.00" x2="56" y2="56.00" stroke="#9fb3c8" />
<text x="48.00" y="60.00" font-size="11" font-family="Arial" fill="#52606d" text-anchor="end">2,068</text>
<polyline fill="none" stroke="#1f77b4" stroke-width="2" points="56.00,220.57 59.27,219.87 62.55,221.27 65.82,220.10 69.10,220.75 72.37,221.95 75.64,220.80 78.92,220.07 82.19,219.78 85.47,219.80 88.74,219.19 92.02,217.11 95.29,225.87 98.56,227.09 101.84,228.41 105.11,230.31 108.39,232.13 111.66,230.66 114.93,229.62 118.21,231.39 121.48,228.99 124.76,230.23 128.03,229.85 131.31,233.28 134.58,233.90 137.85,232.68 141.13,233.93 144.40,233.76 147.68,230.92 150.95,229.74 154.22,229.87 157.50,227.25 160.77,225.48 164.05,225.53 167.32,227.20 170.59,226.51 173.87,227.01 177.14,226.26 180.42,228.07 183.69,225.57 186.97,225.62 190.24,224.50 193.51,223.63 196.79,224.47 200.06,227.14 203.34,229.29 206.61,227.88 209.88,225.76 213.16,222.13 216.43,220.27 219.71,219.13 222.98,220.67 226.25,219.26 229.53,218.01 232.80,211.17 236.08,209.74 239.35,210.53 242.63,203.42 245.90,202.86 249.17,199.58 252.45,198.84 255.72,200.97 259.00,200.63 262.27,200.38 265.54,198.96 268.82,198.26 272.09,193.75 275.37,190.30 278.64,190.04 281.92,188.62 285.19,193.87 288.46,195.73 291.74,196.66 295.01,202.34 298.29,196.13 301.56,196.32 304.83,192.91 308.11,191.66 311.38,190.42 314.66,188.77 317.93,190.96 321.20,192.69 324.48,189.50 327.75,189.93 331.03,186.49 334.30,187.45 337.58,184.85 340.85,184.26 344.12,186.34 347.40,185.37 350.67,190.07 353.95,188.33 357.22,190.19 360.49,191.77 363.77,188.96 367.04,191.06 370.32,189.15 373.59,191.39 376.86,193.05 380.14,191.38 383.41,193.42 386.69,188.89 389.96,196.38 393.24,198.23 396.51,195.50 399.78,193.53 403.06,188.68 406.33,186.24 409.61,182.65 412.88,179.98 416.15,175.86 419.43,179.82 422.70,181.18 425.98,178.58 429.25,179.64 432.53,178.63 435.80,178.18 439.07,183.57 442.35,182.67 445.62,184.18 448.90,191.96 452.17,189.28 455.44,186.75 458.72,186.63 461.99,186.01 465.27,185.53 468.54,184.61 471.81,185.47 475.09,184.68 478.36,184.98 481.64,172.92 484.91,164.66 488.19,162.86 491.46,164.62 494.73,169.00 498.01,158.79 501.28,157.85 504.56,159.27 507.83,160.10 511.10,151.39 514.38,147.93 517.65,152.10 520.93,147.73 524.20,143.25 527.47,144.02 530.75,140.90 534.02,135.60 537.30,139.67 540.57,135.53 543.85,139.66 547.12,137.30 550.39,143.14 553.67,150.42 556.94,149.01 560.22,140.94 563.49,138.83 566.76,140.62 570.04,137.79 573.31,141.49 576.59,141.52 579.86,139.83 583.14,133.54 586.41,134.80 589.68,133.43 592.96,131.32 596.23,129.81 599.51,126.12 602.78,134.17 606.05,135.88 609.33,139.35 612.60,147.39 615.88,142.45 619.15,146.44 622.42,156.15 625.70,147.84 628.97,144.51 632.25,144.08 635.52,148.59 638.80,149.35 642.07,145.51 645.34,143.77 648.62,148.13 651.89,146.69 655.17,153.01 658.44,146.28 661.71,142.45 664.99,143.16 668.26,151.43 671.54,154.91 674.81,161.14 678.08,152.55 681.36,147.54 684.63,153.01 687.91,154.71 691.18,154.39 694.46,139.67 697.73,136.12 701.00,132.31 704.28,129.50 707.55,127.17 710.83,131.87 714.10,140.98 717.37,134.69 720.65,132.54 723.92,134.80 727.20,136.76 730.47,140.09 733.75,134.96 737.02,137.80 740.29,143.97 743.57,142.74 746.84,136.96 750.12,138.50 753.39,143.76 756.66,136.45 759.94,123.34 763.21,126.96 766.49,117.25 769.76,120.63 773.03,126.41 776.31,118.60 779.58,118.22 782.86,128.87 786.13,132.66 789.41,134.33 792.68,122.65 795.95,117.25 799.23,111.99 802.50,112.10 805.78,116.50 809.05,115.48 812.32,114.58 815.60,112.54 818.87,102.65 822.15,99.95 825.42,95.94 828.69,110.85 831.97,97.03 835.24,93.33 838.52,98.94 841.79,77.66 845.07,82.28 848.34,78.53 851.61,89.97 854.89,81.73 858.16,73.77 861.44,73.82 864.71,93.24 867.98,95.26 871.26,85.16 874.53,91.16 877.81,79.76 881.08,66.07 884.36,84.92 887.63,94.42 890.90,87.24 894.18,97.26 897.45,94.50 900.73,89.92 904.00,90.81" />
<line x1="56" y1="470" x2="904" y2="470" stroke="#cbd2d9" />
<line x1="56" y1="370" x2="56" y2="470" stroke="#cbd2d9" />
<text x="16.00" y="362.00" font-size="12" font-family="Arial" fill="#52606d" text-anchor="start">Volume</text>
<line x1="56" y1="470.00" x2="904" y2="470.00" stroke="#edf2f7" />
<line x1="52" y1="470.00" x2="56" y2="470.00" stroke="#9fb3c8" />
<text x="48.00" y="474.00" font-size="11" font-family="Arial" fill="#52606d" text-anchor="end">0</text>
<line x1="56" y1="420.00" x2="904" y2="420.00" stroke="#edf2f7" />
<line x1="52" y1="420.00" x2="56" y2="420.00" stroke="#9fb3c8" />
<text x="48.00" y="424.00" font-size="11" font-family="Arial" fill="#52606d" text-anchor="end">5.4M</text>
<line x1="56" y1="370.00" x2="904" y2="370.00" stroke="#edf2f7" />
<line x1="52" y1="370.00" x2="56" y2="370.00" stroke="#9fb3c8" />
<text x="48.00" y="374.00" font-size="11" font-family="Arial" fill="#52606d" text-anchor="end">10.8M</text>
<line x1="56.00" y1="470" x2="56.00" y2="474" stroke="#9fb3c8" />
<text x="56.00" y="488.00" font-size="11" font-family="Arial" fill="#52606d" text-anchor="middle">06/27</text>
<line x1="226.25" y1="470" x2="226.25" y2="474" stroke="#9fb3c8" />
<text x="226.25" y="488.00" font-size="11" font-family="Arial" fill="#52606d" text-anchor="middle">09/11</text>
<line x1="396.51" y1="470" x2="396.51" y2="474" stroke="#9fb3c8" />
<text x="396.51" y="488.00" font-size="11" font-family="Arial" fill="#52606d" text-anchor="middle">11/24</text>
<line x1="563.49" y1="470" x2="563.49" y2="474" stroke="#9fb3c8" />
<text x="563.49" y="488.00" font-size="11" font-family="Arial" fill="#52606d" text-anchor="middle">02/09</text>
<line x1="733.75" y1="470" x2="733.75" y2="474" stroke="#9fb3c8" />
<text x="733.75" y="488.00" font-size="11" font-family="Arial" fill="#52606d" text-anchor="middle">04/24</text>
<line x1="904.00" y1="470" x2="904.00" y2="474" stroke="#9fb3c8" />
<text x="904.00" y="488.00" font-size="11" font-family="Arial" fill="#52606d" text-anchor="middle">07/10</text>
<rect x="56.0" y="458.86891080299546" width="2" height="11.131089197004524" fill="#8aa6c1" opacity="0.75" />
<rect x="59.27413127413127" y="459.98665381478463" width="2" height="10.013346185215392" fill="#8aa6c1" opacity="0.75" />
<rect x="62.54826254826255" y="460.121969303774" width="2" height="9.878030696225995" fill="#8aa6c1" opacity="0.75" />
<rect x="65.82239382239382" y="457.1821012827167" width="2" height="12.81789871728331" fill="#8aa6c1" opacity="0.75" />
<rect x="69.0965250965251" y="461.5594646696819" width="2" height="8.440535330318085" fill="#8aa6c1" opacity="0.75" />
<rect x="72.37065637065638" y="457.3609772373397" width="2" height="12.63902276266034" fill="#8aa6c1" opacity="0.75" />
<rect x="75.64478764478764" y="457.69370504930674" width="2" height="12.30629495069326" fill="#8aa6c1" opacity="0.75" />
<rect x="78.91891891891892" y="457.6334618521539" width="2" height="12.366538147846073" fill="#8aa6c1" opacity="0.75" />
<rect x="82.1930501930502" y="456.10791873656115" width="2" height="13.892081263438866" fill="#8aa6c1" opacity="0.75" />
<rect x="85.46718146718146" y="461.3583450730333" width="2" height="8.641654926966709" fill="#8aa6c1" opacity="0.75" />
<rect x="88.74131274131274" y="456.4971824720101" width="2" height="13.502817527989915" fill="#8aa6c1" opacity="0.75" />
<rect x="92.01544401544402" y="450.5405205012234" width="2" height="19.4594794987766" fill="#8aa6c1" opacity="0.75" />
<rect x="95.28957528957528" y="370.0" width="2" height="100.0" fill="#8aa6c1" opacity="0.75" />
<rect x="98.56370656370656" y="432.19971083265364" width="2" height="37.800289167346335" fill="#8aa6c1" opacity="0.75" />
<rect x="101.83783783783784" y="446.20671757989174" width="2" height="23.793282420108252" fill="#8aa6c1" opacity="0.75" />
<rect x="105.1119691119691" y="445.43653147475345" width="2" height="24.563468525246535" fill="#8aa6c1" opacity="0.75" />
<rect x="108.3861003861004" y="438.25554237413803" width="2" height="31.744457625861944" fill="#8aa6c1" opacity="0.75" />
<rect x="111.66023166023166" y="438.6790983910432" width="2" height="31.320901608956774" fill="#8aa6c1" opacity="0.75" />
<rect x="114.93436293436294" y="451.1197820123081" width="2" height="18.880217987691854" fill="#8aa6c1" opacity="0.75" />
<rect x="118.20849420849422" y="448.57103136353527" width="2" height="21.42896863646474" fill="#8aa6c1" opacity="0.75" />
<rect x="121.48262548262548" y="449.1104396826574" width="2" height="20.889560317342625" fill="#8aa6c1" opacity="0.75" />
<rect x="124.75675675675676" y="448.74898049974047" width="2" height="21.25101950025951" fill="#8aa6c1" opacity="0.75" />
<rect x="128.03088803088804" y="456.95966486246016" width="2" height="13.040335137539852" fill="#8aa6c1" opacity="0.75" />
<rect x="131.3050193050193" y="443.19455772225103" width="2" height="26.80544227774894" fill="#8aa6c1" opacity="0.75" />
<rect x="134.57915057915056" y="454.9197375250241" width="2" height="15.080262474975903" fill="#8aa6c1" opacity="0.75" />
<rect x="137.85328185328186" y="460.4945503077037" width="2" height="9.505449692296285" fill="#8aa6c1" opacity="0.75" />
<rect x="141.12741312741312" y="458.3109661155186" width="2" height="11.689033884481352" fill="#8aa6c1" opacity="0.75" />
<rect x="144.4015444015444" y="458.7048639430563" width="2" height="11.295136056943724" fill="#8aa6c1" opacity="0.75" />
<rect x="147.67567567567568" y="454.02350411507376" width="2" height="15.976495884926226" fill="#8aa6c1" opacity="0.75" />
<rect x="150.94980694980694" y="460.33421072143545" width="2" height="9.665789278564544" fill="#8aa6c1" opacity="0.75" />
<rect x="154.2239382239382" y="459.06632312597316" width="2" height="10.93367687402684" fill="#8aa6c1" opacity="0.75" />
<rect x="157.4980694980695" y="456.451768369541" width="2" height="13.54823163045896" fill="#8aa6c1" opacity="0.75" />
<rect x="160.7722007722008" y="451.3533402535775" width="2" height="18.646659746422483" fill="#8aa6c1" opacity="0.75" />
<rect x="164.04633204633205" y="455.3803662786387" width="2" height="14.61963372136131" fill="#8aa6c1" opacity="0.75" />
<rect x="167.32046332046332" y="454.84559205160525" width="2" height="15.154407948394748" fill="#8aa6c1" opacity="0.75" />
<rect x="170.59459459459458" y="459.9310447097205" width="2" height="10.06895529027953" fill="#8aa6c1" opacity="0.75" />
<rect x="173.86872586872587" y="459.6075850819307" width="2" height="10.392414918069253" fill="#8aa6c1" opacity="0.75" />
<rect x="177.14285714285714" y="457.31741677170606" width="2" height="12.682583228293911" fill="#8aa6c1" opacity="0.75" />
<rect x="180.41698841698843" y="461.170200934233" width="2" height="8.829799065767036" fill="#8aa6c1" opacity="0.75" />
<rect x="183.6911196911197" y="456.5055238377697" width="2" height="13.494476162230296" fill="#8aa6c1" opacity="0.75" />
<rect x="186.96525096525096" y="463.22403054793506" width="2" height="6.775969452064952" fill="#8aa6c1" opacity="0.75" />
<rect x="190.23938223938225" y="462.0284347890561" width="2" height="7.971565210943872" fill="#8aa6c1" opacity="0.75" />
<rect x="193.51351351351352" y="459.42778230889" width="2" height="10.572217691109957" fill="#8aa6c1" opacity="0.75" />
<rect x="196.78764478764478" y="460.86713131163344" width="2" height="9.132868688366576" fill="#8aa6c1" opacity="0.75" />
<rect x="200.06177606177607" y="457.7863868910803" width="2" height="12.2136131089197" fill="#8aa6c1" opacity="0.75" />
<rect x="203.33590733590734" y="452.69259286720546" width="2" height="17.30740713279454" fill="#8aa6c1" opacity="0.75" />
<rect x="206.6100386100386" y="457.67053458886335" width="2" height="12.32946541113665" fill="#8aa6c1" opacity="0.75" />
<rect x="209.8841698841699" y="455.7946541113665" width="2" height="14.2053458886335" fill="#8aa6c1" opacity="0.75" />
<rect x="213.15830115830116" y="452.5081560020761" width="2" height="17.491843997923926" fill="#8aa6c1" opacity="0.75" />
<rect x="216.43243243243242" y="458.09501742418627" width="2" height="11.904982575813747" fill="#8aa6c1" opacity="0.75" />
<rect x="219.7065637065637" y="457.72799733076295" width="2" height="12.272002669237043" fill="#8aa6c1" opacity="0.75" />
<rect x="222.98069498069498" y="454.85300659894716" width="2" height="15.146993401052866" fill="#8aa6c1" opacity="0.75" />
<rect x="226.25482625482624" y="457.97175057462744" width="2" height="12.02824942537258" fill="#8aa6c1" opacity="0.75" />
<rect x="229.52895752895753" y="460.5492325943501" width="2" height="9.450767405649884" fill="#8aa6c1" opacity="0.75" />
<rect x="232.8030888030888" y="444.95458589753093" width="2" height="25.045414102469042" fill="#8aa6c1" opacity="0.75" />
<rect x="236.0772200772201" y="453.0169793134129" width="2" height="16.983020686587082" fill="#8aa6c1" opacity="0.75" />
<rect x="239.35135135135135" y="455.60372951731296" width="2" height="14.396270482687031" fill="#8aa6c1" opacity="0.75" />
<rect x="242.62548262548262" y="440.5633202342997" width="2" height="29.4366797657003" fill="#8aa6c1" opacity="0.75" />
<rect x="245.8996138996139" y="447.66182249573666" width="2" height="22.338177504263363" fill="#8aa6c1" opacity="0.75" />
<rect x="249.17374517374517" y="452.52947282568397" width="2" height="17.470527174316008" fill="#8aa6c1" opacity="0.75" />
<rect x="252.44787644787644" y="454.5703269815378" width="2" height="15.429673018462223" fill="#8aa6c1" opacity="0.75" />
<rect x="255.72200772200773" y="457.0180544227775" width="2" height="12.981945577222511" fill="#8aa6c1" opacity="0.75" />
<rect x="258.996138996139" y="458.2053088158968" width="2" height="11.794691184103211" fill="#8aa6c1" opacity="0.75" />
<rect x="262.27027027027026" y="461.1470304737896" width="2" height="8.852969526210424" fill="#8aa6c1" opacity="0.75" />
<rect x="265.5444015444016" y="458.7502780455253" width="2" height="11.24972195447468" fill="#8aa6c1" opacity="0.75" />
<rect x="268.81853281853284" y="457.91799510639873" width="2" height="12.082004893601246" fill="#8aa6c1" opacity="0.75" />
<rect x="272.0926640926641" y="451.79913991250834" width="2" height="18.20086008749166" fill="#8aa6c1" opacity="0.75" />
<rect x="275.3667953667954" y="454.345110106028" width="2" height="15.654889893971975" fill="#8aa6c1" opacity="0.75" />
<rect x="278.64092664092664" y="457.4666345369615" width="2" height="12.533365463038482" fill="#8aa6c1" opacity="0.75" />
<rect x="281.9150579150579" y="457.15985764069103" width="2" height="12.840142359308965" fill="#8aa6c1" opacity="0.75" />
<rect x="285.18918918918916" y="454.5425224290057" width="2" height="15.45747757099429" fill="#8aa6c1" opacity="0.75" />
<rect x="288.46332046332043" y="451.9548454066879" width="2" height="18.04515459331208" fill="#8aa6c1" opacity="0.75" />
<rect x="291.73745173745175" y="456.13479647067544" width="2" height="13.865203529324535" fill="#8aa6c1" opacity="0.75" />
<rect x="295.011583011583" y="442.80807444205533" width="2" height="27.191925557944685" fill="#8aa6c1" opacity="0.75" />
<rect x="298.2857142857143" y="449.3884852079781" width="2" height="20.61151479202195" fill="#8aa6c1" opacity="0.75" />
<rect x="301.5598455598456" y="447.5515311040261" width="2" height="22.4484688959739" fill="#8aa6c1" opacity="0.75" />
<rect x="304.83397683397686" y="443.11948543041444" width="2" height="26.88051456958553" fill="#8aa6c1" opacity="0.75" />
<rect x="308.1081081081081" y="452.0345517906132" width="2" height="17.965448209386818" fill="#8aa6c1" opacity="0.75" />
<rect x="311.3822393822394" y="454.5805219841329" width="2" height="15.41947801586713" fill="#8aa6c1" opacity="0.75" />
<rect x="314.65637065637065" y="458.2136501816564" width="2" height="11.78634981834359" fill="#8aa6c1" opacity="0.75" />
<rect x="317.9305019305019" y="460.06265292503895" width="2" height="9.937347074961075" fill="#8aa6c1" opacity="0.75" />
<rect x="321.2046332046332" y="457.68629050196483" width="2" height="12.313709498035145" fill="#8aa6c1" opacity="0.75" />
<rect x="324.4787644787645" y="457.78267961740937" width="2" height="12.217320382590643" fill="#8aa6c1" opacity="0.75" />
<rect x="327.75289575289577" y="460.4287462000445" width="2" height="9.571253799955514" fill="#8aa6c1" opacity="0.75" />
<rect x="331.02702702702703" y="458.2701861051383" width="2" height="11.729813894861717" fill="#8aa6c1" opacity="0.75" />
<rect x="334.3011583011583" y="462.05809297842364" width="2" height="7.941907021576333" fill="#8aa6c1" opacity="0.75" />
<rect x="337.57528957528956" y="455.81967820864537" width="2" height="14.180321791354638" fill="#8aa6c1" opacity="0.75" />
<rect x="340.8494208494208" y="458.1079928820345" width="2" height="11.892007117965449" fill="#8aa6c1" opacity="0.75" />
<rect x="344.12355212355214" y="459.0691035812264" width="2" height="10.930896418773633" fill="#8aa6c1" opacity="0.75" />
<rect x="347.3976833976834" y="461.95428931563725" width="2" height="8.045710684362719" fill="#8aa6c1" opacity="0.75" />
<rect x="350.6718146718147" y="453.91877363386965" width="2" height="16.08122636613035" fill="#8aa6c1" opacity="0.75" />
<rect x="353.94594594594594" y="459.1617854229999" width="2" height="10.838214577000075" fill="#8aa6c1" opacity="0.75" />
<rect x="357.2200772200772" y="460.05523837769704" width="2" height="9.94476162230296" fill="#8aa6c1" opacity="0.75" />
<rect x="360.4942084942085" y="452.92893156372804" width="2" height="17.071068436271965" fill="#8aa6c1" opacity="0.75" />
<rect x="363.7683397683398" y="460.79761993030326" width="2" height="9.202380069696744" fill="#8aa6c1" opacity="0.75" />
<rect x="367.04247104247105" y="460.49084303403276" width="2" height="9.509156965967227" fill="#8aa6c1" opacity="0.75" />
<rect x="370.3166023166023" y="461.0849336398013" width="2" height="8.915066360198711" fill="#8aa6c1" opacity="0.75" />
<rect x="373.5907335907336" y="456.9661525913843" width="2" height="13.033847408615703" fill="#8aa6c1" opacity="0.75" />
<rect x="376.86486486486484" y="457.87906873285385" width="2" height="12.120931267146142" fill="#8aa6c1" opacity="0.75" />
<rect x="380.13899613899616" y="454.32286646400235" width="2" height="15.677133535997628" fill="#8aa6c1" opacity="0.75" />
<rect x="383.4131274131274" y="456.89478757321865" width="2" height="13.105212426781346" fill="#8aa6c1" opacity="0.75" />
<rect x="386.6872586872587" y="455.2839771631942" width="2" height="14.716022836805815" fill="#8aa6c1" opacity="0.75" />
<rect x="389.96138996138995" y="450.95295469711573" width="2" height="19.047045302884257" fill="#8aa6c1" opacity="0.75" />
<rect x="393.2355212355212" y="446.9982205086379" width="2" height="23.00177949136205" fill="#8aa6c1" opacity="0.75" />
<rect x="396.5096525096525" y="454.91046934084676" width="2" height="15.089530659153258" fill="#8aa6c1" opacity="0.75" />
<rect x="399.7837837837838" y="458.9430562764143" width="2" height="11.056943723585675" fill="#8aa6c1" opacity="0.75" />
<rect x="403.05791505791507" y="455.4267071995255" width="2" height="14.57329280047453" fill="#8aa6c1" opacity="0.75" />
<rect x="406.33204633204633" y="461.2906873285386" width="2" height="8.709312671461406" fill="#8aa6c1" opacity="0.75" />
<rect x="409.6061776061776" y="450.50808185660264" width="2" height="19.491918143397346" fill="#8aa6c1" opacity="0.75" />
<rect x="412.88030888030886" y="456.7835693630904" width="2" height="13.216430636909617" fill="#8aa6c1" opacity="0.75" />
<rect x="416.1544401544402" y="450.9121746867354" width="2" height="19.087825313264624" fill="#8aa6c1" opacity="0.75" />
<rect x="419.42857142857144" y="455.9883591606732" width="2" height="14.011640839326759" fill="#8aa6c1" opacity="0.75" />
<rect x="422.7027027027027" y="460.22762660339583" width="2" height="9.772373396604138" fill="#8aa6c1" opacity="0.75" />
<rect x="425.976833976834" y="459.6307555423741" width="2" height="10.369244457625863" fill="#8aa6c1" opacity="0.75" />
<rect x="429.25096525096524" y="461.61507377474607" width="2" height="8.384926225253949" fill="#8aa6c1" opacity="0.75" />
<rect x="432.5250965250965" y="459.8643137836435" width="2" height="10.135686216356492" fill="#8aa6c1" opacity="0.75" />
<rect x="435.7992277992278" y="456.99117668866313" width="2" height="13.008823311336842" fill="#8aa6c1" opacity="0.75" />
<rect x="439.0733590733591" y="454.9577370801513" width="2" height="15.042262919848742" fill="#8aa6c1" opacity="0.75" />
<rect x="442.34749034749035" y="458.10521242678135" width="2" height="11.894787573218656" fill="#8aa6c1" opacity="0.75" />
<rect x="445.6216216216216" y="461.1368354711945" width="2" height="8.863164528805516" fill="#8aa6c1" opacity="0.75" />
<rect x="448.8957528957529" y="450.1577444946986" width="2" height="19.842255505301402" fill="#8aa6c1" opacity="0.75" />
<rect x="452.16988416988414" y="454.7501297545785" width="2" height="15.249870245421517" fill="#8aa6c1" opacity="0.75" />
<rect x="455.44401544401546" y="448.5015199822051" width="2" height="21.498480017794915" fill="#8aa6c1" opacity="0.75" />
<rect x="458.7181467181467" y="463.47797879439463" width="2" height="6.522021205605398" fill="#8aa6c1" opacity="0.75" />
<rect x="461.992277992278" y="464.9618150811893" width="2" height="5.038184918810707" fill="#8aa6c1" opacity="0.75" />
<rect x="465.26640926640925" y="467.8701712760436" width="2" height="2.129828723956402" fill="#8aa6c1" opacity="0.75" />
<rect x="468.5405405405405" y="466.6282345962779" width="2" height="3.3717654037221023" fill="#8aa6c1" opacity="0.75" />
<rect x="471.81467181467184" y="466.06750945354787" width="2" height="3.9324905464521396" fill="#8aa6c1" opacity="0.75" />
<rect x="475.0888030888031" y="462.51779491362055" width="2" height="7.482205086379476" fill="#8aa6c1" opacity="0.75" />
<rect x="478.36293436293437" y="464.79776822125007" width="2" height="5.2022317787499075" fill="#8aa6c1" opacity="0.75" />
<rect x="481.63706563706563" y="444.9953659079113" width="2" height="25.00463409208868" fill="#8aa6c1" opacity="0.75" />
<rect x="484.9111969111969" y="439.50211314599244" width="2" height="30.49788685400756" fill="#8aa6c1" opacity="0.75" />
<rect x="488.18532818532816" y="452.42937643656853" width="2" height="17.570623563431454" fill="#8aa6c1" opacity="0.75" />
<rect x="491.4594594594595" y="457.4768295395566" width="2" height="12.523170460443389" fill="#8aa6c1" opacity="0.75" />
<rect x="494.73359073359075" y="454.408133758434" width="2" height="15.591866241565953" fill="#8aa6c1" opacity="0.75" />
<rect x="498.007722007722" y="447.8073329873211" width="2" height="22.192667012678875" fill="#8aa6c1" opacity="0.75" />
<rect x="501.2818532818533" y="456.2033810335879" width="2" height="13.7966189664121" fill="#8aa6c1" opacity="0.75" />
<rect x="504.55598455598454" y="457.2636613034774" width="2" height="12.736338696522578" fill="#8aa6c1" opacity="0.75" />
<rect x="507.83011583011586" y="455.75943501149254" width="2" height="14.240564988507451" fill="#8aa6c1" opacity="0.75" />
<rect x="511.1042471042471" y="443.5078223474457" width="2" height="26.49217765255431" fill="#8aa6c1" opacity="0.75" />
<rect x="514.3783783783783" y="447.11592644769036" width="2" height="22.88407355230963" fill="#8aa6c1" opacity="0.75" />
<rect x="517.6525096525097" y="442.46607844591085" width="2" height="27.533921554089126" fill="#8aa6c1" opacity="0.75" />
<rect x="520.9266409266409" y="447.87499073181584" width="2" height="22.12500926818418" fill="#8aa6c1" opacity="0.75" />
<rect x="524.2007722007722" y="452.9076147401201" width="2" height="17.092385259879883" fill="#8aa6c1" opacity="0.75" />
<rect x="527.4749034749035" y="455.5759249647809" width="2" height="14.4240750352191" fill="#8aa6c1" opacity="0.75" />
<rect x="530.7490347490348" y="451.4515830058575" width="2" height="18.548416994142507" fill="#8aa6c1" opacity="0.75" />
<rect x="534.023166023166" y="437.8032549862831" width="2" height="32.196745013716914" fill="#8aa6c1" opacity="0.75" />
<rect x="537.2972972972973" y="423.3180099354934" width="2" height="46.681990064506564" fill="#8aa6c1" opacity="0.75" />
<rect x="540.5714285714286" y="443.87391562245125" width="2" height="26.126084377548754" fill="#8aa6c1" opacity="0.75" />
<rect x="543.8455598455598" y="448.1382071624527" width="2" height="21.861792837547267" fill="#8aa6c1" opacity="0.75" />
<rect x="547.1196911196912" y="453.6268258322829" width="2" height="16.37317416771706" fill="#8aa6c1" opacity="0.75" />
<rect x="550.3938223938223" y="449.5627270705123" width="2" height="20.437272929487655" fill="#8aa6c1" opacity="0.75" />
<rect x="553.6679536679537" y="447.0204641506636" width="2" height="22.9795358493364" fill="#8aa6c1" opacity="0.75" />
<rect x="556.9420849420849" y="453.40809668569733" width="2" height="16.591903314302662" fill="#8aa6c1" opacity="0.75" />
<rect x="560.2162162162163" y="451.7324089864314" width="2" height="18.26759101356862" fill="#8aa6c1" opacity="0.75" />
<rect x="563.4903474903475" y="459.5723659820568" width="2" height="10.427634017943205" fill="#8aa6c1" opacity="0.75" />
<rect x="566.7644787644788" y="458.8726180766664" width="2" height="11.12738192333358" fill="#8aa6c1" opacity="0.75" />
<rect x="570.03861003861" y="459.44075776673833" width="2" height="10.55924223326166" fill="#8aa6c1" opacity="0.75" />
<rect x="573.3127413127413" y="455.9299696003559" width="2" height="14.070030399644102" fill="#8aa6c1" opacity="0.75" />
<rect x="576.5868725868726" y="458.42496478090015" width="2" height="11.575035219099874" fill="#8aa6c1" opacity="0.75" />
<rect x="579.8610038610038" y="459.83094832060505" width="2" height="10.169051679394974" fill="#8aa6c1" opacity="0.75" />
<rect x="583.1351351351351" y="457.6325350337362" width="2" height="12.36746496626381" fill="#8aa6c1" opacity="0.75" />
<rect x="586.4092664092664" y="459.4787573218655" width="2" height="10.5212426781345" fill="#8aa6c1" opacity="0.75" />
<rect x="589.6833976833976" y="459.781826944465" width="2" height="10.21817305553496" fill="#8aa6c1" opacity="0.75" />
<rect x="592.957528957529" y="458.09779787943944" width="2" height="11.90220212056054" fill="#8aa6c1" opacity="0.75" />
<rect x="596.2316602316603" y="455.73719136946687" width="2" height="14.262808630533105" fill="#8aa6c1" opacity="0.75" />
<rect x="599.5057915057915" y="457.8874100986135" width="2" height="12.11258990138652" fill="#8aa6c1" opacity="0.75" />
<rect x="602.7799227799228" y="449.81482168013645" width="2" height="20.185178319863574" fill="#8aa6c1" opacity="0.75" />
<rect x="606.0540540540541" y="457.4110254318974" width="2" height="12.588974568102618" fill="#8aa6c1" opacity="0.75" />
<rect x="609.3281853281853" y="456.1681619337139" width="2" height="13.831838066286053" fill="#8aa6c1" opacity="0.75" />
<rect x="612.6023166023166" y="451.3477793430711" width="2" height="18.652220656928893" fill="#8aa6c1" opacity="0.75" />
<rect x="615.8764478764479" y="456.2209905835249" width="2" height="13.779009416475125" fill="#8aa6c1" opacity="0.75" />
<rect x="619.1505791505791" y="453.27556165196114" width="2" height="16.724438348038852" fill="#8aa6c1" opacity="0.75" />
<rect x="622.4247104247104" y="452.3895232446059" width="2" height="17.61047675539408" fill="#8aa6c1" opacity="0.75" />
<rect x="625.6988416988416" y="453.23478164158075" width="2" height="16.76521835841922" fill="#8aa6c1" opacity="0.75" />
<rect x="628.972972972973" y="454.699154741603" width="2" height="15.300845258396976" fill="#8aa6c1" opacity="0.75" />
<rect x="632.2471042471043" y="459.2053458886335" width="2" height="10.794654111366501" fill="#8aa6c1" opacity="0.75" />
<rect x="635.5212355212356" y="453.5007785274709" width="2" height="16.4992214725291" fill="#8aa6c1" opacity="0.75" />
<rect x="638.7953667953668" y="459.0728108548973" width="2" height="10.927189145102693" fill="#8aa6c1" opacity="0.75" />
<rect x="642.0694980694981" y="457.85497145399273" width="2" height="12.145028546007266" fill="#8aa6c1" opacity="0.75" />
<rect x="645.3436293436293" y="459.47505004819453" width="2" height="10.524949951805443" fill="#8aa6c1" opacity="0.75" />
<rect x="648.6177606177606" y="457.1042485356269" width="2" height="12.8957514643731" fill="#8aa6c1" opacity="0.75" />
<rect x="651.8918918918919" y="454.9938829984429" width="2" height="15.006117001557055" fill="#8aa6c1" opacity="0.75" />
<rect x="655.1660231660231" y="445.4847260324757" width="2" height="24.51527396752428" fill="#8aa6c1" opacity="0.75" />
<rect x="658.4401544401544" y="451.61933713946763" width="2" height="18.380662860532365" fill="#8aa6c1" opacity="0.75" />
<rect x="661.7142857142857" y="453.3080002965819" width="2" height="16.691999703418105" fill="#8aa6c1" opacity="0.75" />
<rect x="664.988416988417" y="455.0782234744569" width="2" height="14.921776525543114" fill="#8aa6c1" opacity="0.75" />
<rect x="668.2625482625483" y="454.0485282123526" width="2" height="15.951471787647364" fill="#8aa6c1" opacity="0.75" />
<rect x="671.5366795366796" y="453.6907763031067" width="2" height="16.309223696893305" fill="#8aa6c1" opacity="0.75" />
<rect x="674.8108108108108" y="450.1243790316601" width="2" height="19.875620968339884" fill="#8aa6c1" opacity="0.75" />
<rect x="678.0849420849421" y="453.9521390969081" width="2" height="16.047860903091866" fill="#8aa6c1" opacity="0.75" />
<rect x="681.3590733590734" y="453.82701861051385" width="2" height="16.17298138948617" fill="#8aa6c1" opacity="0.75" />
<rect x="684.6332046332046" y="452.5443019203678" width="2" height="17.45569807963224" fill="#8aa6c1" opacity="0.75" />
<rect x="687.9073359073359" y="457.9587751167791" width="2" height="12.04122488322088" fill="#8aa6c1" opacity="0.75" />
<rect x="691.1814671814672" y="457.3127826796174" width="2" height="12.68721732038259" fill="#8aa6c1" opacity="0.75" />
<rect x="694.4555984555984" y="447.50333654630384" width="2" height="22.496663453696154" fill="#8aa6c1" opacity="0.75" />
<rect x="697.7297297297297" y="455.35904945503074" width="2" height="14.64095054496923" fill="#8aa6c1" opacity="0.75" />
<rect x="701.003861003861" y="455.91606732408985" width="2" height="14.083932675910136" fill="#8aa6c1" opacity="0.75" />
<rect x="704.2779922779923" y="454.1569659672277" width="2" height="15.8430340327723" fill="#8aa6c1" opacity="0.75" />
<rect x="707.5521235521236" y="453.6027285534218" width="2" height="16.397271446578188" fill="#8aa6c1" opacity="0.75" />
<rect x="710.8262548262549" y="430.5944613331356" width="2" height="39.40553866686439" fill="#8aa6c1" opacity="0.75" />
<rect x="714.1003861003861" y="445.65526062133904" width="2" height="24.344739378660933" fill="#8aa6c1" opacity="0.75" />
<rect x="717.3745173745174" y="452.6082523911915" width="2" height="17.391747608808483" fill="#8aa6c1" opacity="0.75" />
<rect x="720.6486486486486" y="459.880069696745" width="2" height="10.119930303254986" fill="#8aa6c1" opacity="0.75" />
<rect x="723.9227799227799" y="458.18677244754207" width="2" height="11.813227552457922" fill="#8aa6c1" opacity="0.75" />
<rect x="727.1969111969112" y="445.7006747238081" width="2" height="24.299325276191887" fill="#8aa6c1" opacity="0.75" />
<rect x="730.4710424710424" y="453.3126343886706" width="2" height="16.687365611329426" fill="#8aa6c1" opacity="0.75" />
<rect x="733.7451737451737" y="453.7639949581078" width="2" height="16.23600504189219" fill="#8aa6c1" opacity="0.75" />
<rect x="737.019305019305" y="457.7085341439905" width="2" height="12.291465856009491" fill="#8aa6c1" opacity="0.75" />
<rect x="740.2934362934363" y="452.14113590865276" width="2" height="17.858864091347222" fill="#8aa6c1" opacity="0.75" />
<rect x="743.5675675675676" y="458.35452658115224" width="2" height="11.645473418847779" fill="#8aa6c1" opacity="0.75" />
<rect x="746.8416988416989" y="456.8910802995477" width="2" height="13.108919700452287" fill="#8aa6c1" opacity="0.75" />
<rect x="750.1158301158301" y="463.4464669681916" width="2" height="6.553533031808407" fill="#8aa6c1" opacity="0.75" />
<rect x="753.3899613899614" y="453.72784903981614" width="2" height="16.272150960183883" fill="#8aa6c1" opacity="0.75" />
<rect x="756.6640926640927" y="454.97256617483504" width="2" height="15.027433825164973" fill="#8aa6c1" opacity="0.75" />
<rect x="759.9382239382239" y="448.56825090828204" width="2" height="21.43174909171795" fill="#8aa6c1" opacity="0.75" />
<rect x="763.2123552123552" y="453.99662638095947" width="2" height="16.003373619040556" fill="#8aa6c1" opacity="0.75" />
<rect x="766.4864864864865" y="448.7916141469563" width="2" height="21.20838585304367" fill="#8aa6c1" opacity="0.75" />
<rect x="769.7606177606177" y="449.69062801215983" width="2" height="20.30937198784014" fill="#8aa6c1" opacity="0.75" />
<rect x="773.034749034749" y="452.883517461259" width="2" height="17.11648253874101" fill="#8aa6c1" opacity="0.75" />
<rect x="776.3088803088804" y="454.3256469192556" width="2" height="15.674353080744421" fill="#8aa6c1" opacity="0.75" />
<rect x="779.5830115830116" y="456.90776303106696" width="2" height="13.092236968933047" fill="#8aa6c1" opacity="0.75" />
<rect x="782.8571428571429" y="453.2486839178468" width="2" height="16.751316082153185" fill="#8aa6c1" opacity="0.75" />
<rect x="786.1312741312742" y="454.57403425520874" width="2" height="15.42596574479128" fill="#8aa6c1" opacity="0.75" />
<rect x="789.4054054054054" y="457.0671757989175" width="2" height="12.932824201082523" fill="#8aa6c1" opacity="0.75" />
<rect x="792.6795366795367" y="453.8316527026025" width="2" height="16.168347297397496" fill="#8aa6c1" opacity="0.75" />
<rect x="795.953667953668" y="457.41009861347965" width="2" height="12.589901386520353" fill="#8aa6c1" opacity="0.75" />
<rect x="799.2277992277992" y="454.5527174316008" width="2" height="15.447282568399197" fill="#8aa6c1" opacity="0.75" />
<rect x="802.5019305019305" y="454.6982279231853" width="2" height="15.301772076814709" fill="#8aa6c1" opacity="0.75" />
<rect x="805.7760617760617" y="457.3804404241121" width="2" height="12.619559575887893" fill="#8aa6c1" opacity="0.75" />
<rect x="809.050193050193" y="460.99503225328095" width="2" height="9.004967746719062" fill="#8aa6c1" opacity="0.75" />
<rect x="812.3243243243244" y="460.0886038407355" width="2" height="9.911396159264477" fill="#8aa6c1" opacity="0.75" />
<rect x="815.5984555984556" y="460.1859197745978" width="2" height="9.814080225402238" fill="#8aa6c1" opacity="0.75" />
<rect x="818.8725868725869" y="456.24601468080374" width="2" height="13.753985319196262" fill="#8aa6c1" opacity="0.75" />
<rect x="822.1467181467182" y="453.06795432638836" width="2" height="16.932045673611626" fill="#8aa6c1" opacity="0.75" />
<rect x="825.4208494208494" y="449.1632683324683" width="2" height="20.836731667531698" fill="#8aa6c1" opacity="0.75" />
<rect x="828.6949806949807" y="444.5625417068288" width="2" height="25.4374582931712" fill="#8aa6c1" opacity="0.75" />
<rect x="831.969111969112" y="450.8880774078742" width="2" height="19.11192259212575" fill="#8aa6c1" opacity="0.75" />
<rect x="835.2432432432432" y="440.7922443834804" width="2" height="29.20775561651961" fill="#8aa6c1" opacity="0.75" />
<rect x="838.5173745173745" y="446.0287684436865" width="2" height="23.971231556313487" fill="#8aa6c1" opacity="0.75" />
<rect x="841.7915057915058" y="442.51427300363315" width="2" height="27.48572699636687" fill="#8aa6c1" opacity="0.75" />
<rect x="845.065637065637" y="446.55520130496035" width="2" height="23.44479869503967" fill="#8aa6c1" opacity="0.75" />
<rect x="848.3397683397683" y="448.32079039074665" width="2" height="21.679209609253355" fill="#8aa6c1" opacity="0.75" />
<rect x="851.6138996138997" y="453.3395121227849" width="2" height="16.660487877215097" fill="#8aa6c1" opacity="0.75" />
<rect x="854.8880308880309" y="448.47093497441983" width="2" height="21.529065025580188" fill="#8aa6c1" opacity="0.75" />
<rect x="858.1621621621622" y="447.6998220508638" width="2" height="22.300177949136206" fill="#8aa6c1" opacity="0.75" />
<rect x="861.4362934362935" y="453.37936531474753" width="2" height="16.620634685252465" fill="#8aa6c1" opacity="0.75" />
<rect x="864.7104247104247" y="447.6108474827612" width="2" height="22.389152517238823" fill="#8aa6c1" opacity="0.75" />
<rect x="867.984555984556" y="451.2022688514866" width="2" height="18.797731148513382" fill="#8aa6c1" opacity="0.75" />
<rect x="871.2586872586872" y="449.6377993623489" width="2" height="20.36220063765107" fill="#8aa6c1" opacity="0.75" />
<rect x="874.5328185328185" y="443.67835693630906" width="2" height="26.321643063690964" fill="#8aa6c1" opacity="0.75" />
<rect x="877.8069498069498" y="453.6833617557648" width="2" height="16.31663824423519" fill="#8aa6c1" opacity="0.75" />
<rect x="881.081081081081" y="444.8591236005042" width="2" height="25.14087639949581" fill="#8aa6c1" opacity="0.75" />
<rect x="884.3552123552123" y="446.04452435678803" width="2" height="23.955475643211983" fill="#8aa6c1" opacity="0.75" />
<rect x="887.6293436293437" y="444.9842440868985" width="2" height="25.015755913101508" fill="#8aa6c1" opacity="0.75" />
<rect x="890.903474903475" y="451.97338177504264" width="2" height="18.026618224957367" fill="#8aa6c1" opacity="0.75" />
<rect x="894.1776061776062" y="452.7250315118262" width="2" height="17.274968488173798" fill="#8aa6c1" opacity="0.75" />
<rect x="897.4517374517375" y="456.79747163935644" width="2" height="13.202528360643583" fill="#8aa6c1" opacity="0.75" />
<rect x="900.7258687258687" y="455.6584118039594" width="2" height="14.34158819604063" fill="#8aa6c1" opacity="0.75" />
<rect x="904.0" y="458.72247349299323" width="2" height="11.277526507006748" fill="#8aa6c1" opacity="0.75" />
</svg>