<svg xmlns="http://www.w3.org/2000/svg" width="960" height="520" viewBox="0 0 960 520"><rect width="100%" height="100%" fill="white" />
<text x="56.00" y="32.00" font-size="20" font-family="Arial" fill="#1f2933" text-anchor="start">GOOGL Price / Volume</text>
<line x1="56" y1="244" x2="904" y2="244" stroke="#cbd2d9" />
<line x1="56" y1="56" x2="56" y2="244" stroke="#cbd2d9" />
<text x="16.00" y="38.00" font-size="12" font-family="Arial" fill="#52606d" text-anchor="start">Price</text>
<line x1="56" y1="244.00" x2="904" y2="244.00" stroke="#edf2f7" />
<line x1="52" y1="244.00" x2="56" y2="244.00" stroke="#9fb3c8" />
<text x="48.00" y="248.00" font-size="11" font-family="Arial" fill="#52606d" text-anchor="end">160</text>
<line x1="56" y1="197.00" x2="904" y2="197.00" stroke="#edf2f7" />
<line x1="52" y1="197.00" x2="56" y2="197.00" stroke="#9fb3c8" />
<text x="48.00" y="201.00" font-size="11" font-family="Arial" fill="#52606d" text-anchor="end">224</text>
<line x1="56" y1="150.00" x2="904" y2="150.00" stroke="#edf2f7" />
<line x1="52" y1="150.00" x2="56" y2="150.00" stroke="#9fb3c8" />
<text x="48.00" y="154.00" font-size="11" font-family="Arial" fill="#52606d" text-anchor="end">288</text>
<line x1="56" y1="103.00" x2="904" y2="103.00" stroke="#edf2f7" />
<line x1="52" y1="103.00" x2="56" y2="103.00" stroke="#9fb3c8" />
<text x="48.00" y="107.00" font-size="11" font-family="Arial" fill="#52606d" text-anchor="end">352</text>
<line x1="56" y1="56.00" x2="904" y2="56.00" stroke="#edf2f7" />
<line x1="52" y1="56.00" x2="56" y2="56.00" stroke="#9fb3c8" />
<text x="48.00" y="60.00" font-size="11" font-family="Arial" fill="#52606d" text-anchor="end">416</text>
<polyline fill="none" stroke="#1f77b4" stroke-width="2" points="56.00,233.93 59.27,232.27 62.55,231.54 65.82,229.66 69.10,228.65 72.37,228.33 75.64,227.62 78.92,227.18 82.19,226.09 85.47,222.40 88.74,221.49 92.02,222.30 95.29,220.88 98.56,220.14 101.84,220.58 105.11,218.26 108.39,217.69 111.66,221.08 114.93,223.11 118.21,218.78 121.48,219.05 124.76,218.01 128.03,217.70 131.31,214.11 134.58,214.42 137.85,212.70 141.13,213.71 144.40,212.99 147.68,212.29 150.95,212.58 154.22,214.00 157.50,215.65 160.77,215.33 164.05,210.69 167.32,208.93 170.59,209.92 173.87,209.67 177.14,206.62 180.42,205.69 183.69,206.83 186.97,192.69 190.24,191.49 193.51,189.51 196.79,190.06 200.06,185.96 203.34,186.30 206.61,185.42 209.88,185.11 213.16,177.18 216.43,177.51 219.71,178.71 222.98,176.87 226.25,174.90 229.53,176.51 232.80,177.14 236.08,180.46 239.35,181.45 242.63,180.90 245.90,182.72 249.17,183.42 252.45,182.10 255.72,181.52 259.00,181.77 262.27,178.05 265.54,181.47 268.82,182.31 272.09,184.57 275.37,188.21 278.64,182.65 281.92,181.70 285.19,177.61 288.46,177.29 291.74,175.94 295.01,173.56 298.29,178.02 301.56,177.12 304.83,176.10 308.11,171.09 311.38,164.23 314.66,165.55 317.93,160.35 321.20,155.28 324.48,155.50 327.75,153.64 331.03,158.17 334.30,153.21 337.58,152.89 340.85,157.23 344.12,148.96 347.40,148.08 350.67,151.45 353.95,157.42 357.22,159.00 360.49,152.69 363.77,153.23 367.04,146.98 370.32,149.44 373.59,141.95 376.86,128.08 380.14,124.52 383.41,127.08 386.69,126.91 389.96,130.79 393.24,130.11 396.51,127.31 399.78,128.79 403.06,126.11 406.33,131.50 409.61,129.03 412.88,126.74 416.15,132.44 419.43,134.75 422.70,135.53 425.98,136.74 429.25,143.97 432.53,139.76 435.80,136.31 439.07,134.39 442.35,131.03 445.62,131.22 448.90,131.65 452.17,131.61 455.44,131.40 458.72,132.02 461.99,130.45 465.27,129.43 468.54,131.04 471.81,125.44 475.09,122.90 478.36,120.60 481.64,118.19 484.91,115.17 488.19,115.27 491.46,117.51 494.73,119.55 498.01,125.42 501.28,120.74 504.56,119.16 507.83,121.07 511.10,117.16 514.38,116.22 517.65,115.14 520.93,113.50 524.20,113.68 527.47,109.51 530.75,112.43 534.02,117.32 537.30,118.64 540.57,124.79 543.85,123.72 547.12,127.93 550.39,133.52 553.67,134.96 556.94,137.37 560.22,140.08 563.49,139.12 566.76,139.47 570.04,130.57 573.31,133.13 576.59,133.57 579.86,132.10 583.14,136.15 586.41,132.93 589.68,136.78 592.96,138.94 596.23,139.27 599.51,140.92 602.78,142.65 606.05,136.74 609.33,136.24 612.60,135.02 615.88,138.80 619.15,139.73 622.42,137.32 625.70,133.39 628.97,135.76 632.25,136.17 635.52,140.67 638.80,139.89 642.07,148.42 645.34,148.06 648.62,155.41 651.89,160.24 655.17,160.86 658.44,150.54 661.71,143.32 664.99,144.51 668.26,141.41 671.54,137.40 674.81,128.69 678.08,127.83 681.36,128.75 684.63,125.76 687.91,117.25 691.18,114.16 694.46,114.96 697.73,110.81 701.00,113.94 704.28,117.70 707.55,112.54 710.83,112.86 714.10,108.81 717.37,104.45 720.65,104.86 723.92,104.74 727.20,79.15 730.47,78.50 733.75,80.29 737.02,76.49 740.29,69.43 743.57,69.47 746.84,67.41 750.12,76.33 753.39,77.28 756.66,66.07 759.94,67.21 763.21,70.36 766.49,70.24 769.76,77.05 773.03,76.14 776.31,77.05 779.58,80.50 782.86,76.16 786.13,76.19 789.41,75.24 792.68,82.43 795.95,85.34 799.23,96.00 802.50,98.10 805.78,88.41 809.05,91.10 812.32,94.77 815.60,94.07 818.87,99.86 822.15,98.84 825.42,97.44 828.69,90.33 831.97,87.47 835.24,94.42 838.52,91.30 841.79,104.78 845.07,107.39 848.34,108.01 851.61,109.17 854.89,113.81 858.16,101.87 861.44,99.13 864.71,96.31 867.98,97.27 871.26,92.46 874.53,92.04 877.81,95.79 881.08,98.02 884.36,99.27 887.63,102.70 890.90,97.56 894.18,89.18 897.45,101.27 900.73,106.92 904.00,103.09" />
<line x1="56" y1="470" x2="904" y2="470" stroke="#cbd2d9" />
<line x1="56" y1="370" x2="56" y2="470" stroke="#cbd2d9" />
<text x="16.00" y="362.00" font-size="12" font-family="Arial" fill="#52606d" text-anchor="start">Volume</text>
<line x1="56" y1="470.00" x2="904" y2="470.00" stroke="#edf2f7" />
<line x1="52" y1="470.00" x2="56" y2="470.00" stroke="#9fb3c8" />
<text x="48.00" y="474.00" font-size="11" font-family="Arial" fill="#52606d" text-anchor="end">0</text>
<line x1="56" y1="420.00" x2="904" y2="420.00" stroke="#edf2f7" />
<line x1="52" y1="420.00" x2="56" y2="420.00" stroke="#9fb3c8" />
<text x="48.00" y="424.00" font-size="11" font-family="Arial" fill="#52606d" text-anchor="end">57.4M</text>
<line x1="56" y1="370.00" x2="904" y2="370.00" stroke="#edf2f7" />
<line x1="52" y1="370.00" x2="56" y2="370.00" stroke="#9fb3c8" />
<text x="48.00" y="374.00" font-size="11" font-family="Arial" fill="#52606d" text-anchor="end">114.7M</text>
<line x1="56.00" y1="470" x2="56.00" y2="474" stroke="#9fb3c8" />
<text x="56.00" y="488.00" font-size="11" font-family="Arial" fill="#52606d" text-anchor="middle">07/08</text>
<line x1="226.25" y1="470" x2="226.25" y2="474" stroke="#9fb3c8" />
<text x="226.25" y="488.00" font-size="11" font-family="Arial" fill="#52606d" text-anchor="middle">09/19</text>
<line x1="396.51" y1="470" x2="396.51" y2="474" stroke="#9fb3c8" />
<text x="396.51" y="488.00" font-size="11" font-family="Arial" fill="#52606d" text-anchor="middle">12/03</text>
<line x1="563.49" y1="470" x2="563.49" y2="474" stroke="#9fb3c8" />
<text x="563.49" y="488.00" font-size="11" font-family="Arial" fill="#52606d" text-anchor="middle">02/18</text>
<line x1="733.75" y1="470" x2="733.75" y2="474" stroke="#9fb3c8" />
<text x="733.75" y="488.00" font-size="11" font-family="Arial" fill="#52606d" text-anchor="middle">05/04</text>
<line x1="904.00" y1="470" x2="904.00" y2="474" stroke="#9fb3c8" />
<text x="904.00" y="488.00" font-size="11" font-family="Arial" fill="#52606d" text-anchor="middle">07/20</text>
<rect x="56.0" y="434.7425642706634" width="2" height="35.25743572933657" fill="#8aa6c1" opacity="0.75" />
<rect x="59.27413127413127" y="432.49063913664725" width="2" height="37.509360863352754" fill="#8aa6c1" opacity="0.75" />
<rect x="62.54826254826255" y="444.4980005457416" width="2" height="25.501999454258396" fill="#8aa6c1" opacity="0.75" />
<rect x="65.82239382239382" y="440.1124524110707" width="2" height="29.88754758892929" fill="#8aa6c1" opacity="0.75" />
<rect x="69.0965250965251" y="441.6348622525528" width="2" height="28.36513774744718" fill="#8aa6c1" opacity="0.75" />
<rect x="72.37065637065638" y="440.8400497618701" width="2" height="29.159950238129902" fill="#8aa6c1" opacity="0.75" />
<rect x="75.64478764478764" y="441.140033285007" width="2" height="28.859966714992986" fill="#8aa6c1" opacity="0.75" />
<rect x="78.91891891891892" y="442.1091169360358" width="2" height="27.89088306396423" fill="#8aa6c1" opacity="0.75" />
<rect x="82.1930501930502" y="440.3464413027009" width="2" height="29.653558697299104" fill="#8aa6c1" opacity="0.75" />
<rect x="85.46718146718146" y="430.0692376966217" width="2" height="39.93076230337828" fill="#8aa6c1" opacity="0.75" />
<rect x="88.74131274131274" y="431.0656084277847" width="2" height="38.9343915722153" fill="#8aa6c1" opacity="0.75" />
<rect x="92.01544401544402" y="418.84160678184196" width="2" height="51.158393218158025" fill="#8aa6c1" opacity="0.75" />
<rect x="95.28957528957528" y="404.71875563940256" width="2" height="65.28124436059746" fill="#8aa6c1" opacity="0.75" />
<rect x="98.56370656370656" y="435.31498269929375" width="2" height="34.68501730070624" fill="#8aa6c1" opacity="0.75" />
<rect x="101.83783783783784" y="436.7503005501877" width="2" height="33.24969944981226" fill="#8aa6c1" opacity="0.75" />
<rect x="105.1119691119691" y="433.9172390705654" width="2" height="36.08276092943456" fill="#8aa6c1" opacity="0.75" />
<rect x="108.3861003861004" y="441.714369655372" width="2" height="28.285630344627975" fill="#8aa6c1" opacity="0.75" />
<rect x="111.66023166023166" y="425.2516295966307" width="2" height="44.7483704033693" fill="#8aa6c1" opacity="0.75" />
<rect x="114.93436293436294" y="439.6335772315906" width="2" height="30.366422768409407" fill="#8aa6c1" opacity="0.75" />
<rect x="118.20849420849422" y="442.4972385997979" width="2" height="27.50276140020208" fill="#8aa6c1" opacity="0.75" />
<rect x="121.48262548262548" y="442.4493772356008" width="2" height="27.55062276439916" fill="#8aa6c1" opacity="0.75" />
<rect x="124.75675675675676" y="451.2016428042749" width="2" height="18.79835719572508" fill="#8aa6c1" opacity="0.75" />
<rect x="128.03088803088804" y="447.0528732946665" width="2" height="22.947126705333535" fill="#8aa6c1" opacity="0.75" />
<rect x="131.3050193050193" y="435.85906789775277" width="2" height="34.14093210224722" fill="#8aa6c1" opacity="0.75" />
<rect x="134.57915057915056" y="447.4795281514616" width="2" height="22.5204718485384" fill="#8aa6c1" opacity="0.75" />
<rect x="137.85328185328186" y="443.4993631561649" width="2" height="26.50063684383508" fill="#8aa6c1" opacity="0.75" />
<rect x="141.12741312741312" y="445.29089509468963" width="2" height="24.709104905310344" fill="#8aa6c1" opacity="0.75" />
<rect x="144.4015444015444" y="448.00434675340415" width="2" height="21.99565324659587" fill="#8aa6c1" opacity="0.75" />
<rect x="147.67567567567568" y="439.5470954951908" width="2" height="30.452904504809236" fill="#8aa6c1" opacity="0.75" />
<rect x="150.94980694980694" y="453.84866393563385" width="2" height="16.151336064366127" fill="#8aa6c1" opacity="0.75" />
<rect x="154.2239382239382" y="448.8675948923468" width="2" height="21.1324051076532" fill="#8aa6c1" opacity="0.75" />
<rect x="157.4980694980695" y="444.7568355007528" width="2" height="25.243164499247207" fill="#8aa6c1" opacity="0.75" />
<rect x="160.7722007722008" y="452.7606678970553" width="2" height="17.23933210294465" fill="#8aa6c1" opacity="0.75" />
<rect x="164.04633204633205" y="432.6637769677864" width="2" height="37.336223032213574" fill="#8aa6c1" opacity="0.75" />
<rect x="167.32046332046332" y="443.90823346232946" width="2" height="26.09176653767056" fill="#8aa6c1" opacity="0.75" />
<rect x="170.59459459459458" y="445.1852339409431" width="2" height="24.814766059056915" fill="#8aa6c1" opacity="0.75" />
<rect x="173.86872586872587" y="449.92882692580963" width="2" height="20.071173074190344" fill="#8aa6c1" opacity="0.75" />
<rect x="177.14285714285714" y="441.80686675448516" width="2" height="28.19313324551485" fill="#8aa6c1" opacity="0.75" />
<rect x="180.41698841698843" y="435.36511072190456" width="2" height="34.63488927809545" fill="#8aa6c1" opacity="0.75" />
<rect x="183.6911196911197" y="428.5698431559557" width="2" height="41.43015684404431" fill="#8aa6c1" opacity="0.75" />
<rect x="186.96525096525096" y="379.91244595981215" width="2" height="90.08755404018785" fill="#8aa6c1" opacity="0.75" />
<rect x="190.23938223938225" y="424.9421435439902" width="2" height="45.05785645600982" fill="#8aa6c1" opacity="0.75" />
<rect x="193.51351351351352" y="429.3841837806642" width="2" height="40.61581621933581" fill="#8aa6c1" opacity="0.75" />
<rect x="196.78764478764478" y="441.688826158633" width="2" height="28.311173841367037" fill="#8aa6c1" opacity="0.75" />
<rect x="200.06177606177607" y="436.8187361984477" width="2" height="33.18126380155231" fill="#8aa6c1" opacity="0.75" />
<rect x="203.33590733590734" y="439.36428077620843" width="2" height="30.635719223791547" fill="#8aa6c1" opacity="0.75" />
<rect x="206.6100386100386" y="443.32378430827254" width="2" height="26.676215691727485" fill="#8aa6c1" opacity="0.75" />
<rect x="209.8841698841699" y="446.66074138909545" width="2" height="23.339258610904544" fill="#8aa6c1" opacity="0.75" />
<rect x="213.15830115830116" y="419.10148788689025" width="2" height="50.89851211310974" fill="#8aa6c1" opacity="0.75" />
<rect x="216.43243243243242" y="440.26344673309137" width="2" height="29.736553266908615" fill="#8aa6c1" opacity="0.75" />
<rect x="219.7065637065637" y="440.26492877897726" width="2" height="29.735071221022736" fill="#8aa6c1" opacity="0.75" />
<rect x="222.98069498069498" y="442.76566326348245" width="2" height="27.234336736517523" fill="#8aa6c1" opacity="0.75" />
<rect x="226.25482625482624" y="421.5533148571613" width="2" height="48.44668514283871" fill="#8aa6c1" opacity="0.75" />
<rect x="229.52895752895753" y="441.849410189327" width="2" height="28.150589810672997" fill="#8aa6c1" opacity="0.75" />
<rect x="232.8030888030888" y="446.7859306768678" width="2" height="23.214069323132208" fill="#8aa6c1" opacity="0.75" />
<rect x="236.0772200772201" y="445.4146023365761" width="2" height="24.58539766342389" fill="#8aa6c1" opacity="0.75" />
<rect x="239.35135135135135" y="442.956672824422" width="2" height="27.043327175577975" fill="#8aa6c1" opacity="0.75" />
<rect x="242.62548262548262" y="453.86906386135723" width="2" height="16.130936138642777" fill="#8aa6c1" opacity="0.75" />
<rect x="245.8996138996139" y="441.6617134368382" width="2" height="28.338286563161745" fill="#8aa6c1" opacity="0.75" />
<rect x="249.17374517374517" y="439.72764355575936" width="2" height="30.27235644424064" fill="#8aa6c1" opacity="0.75" />
<rect x="252.44787644787644" y="442.4006440797062" width="2" height="27.599355920293828" fill="#8aa6c1" opacity="0.75" />
<rect x="255.72200772200773" y="447.7838706330864" width="2" height="22.216129366913588" fill="#8aa6c1" opacity="0.75" />
<rect x="258.996138996139" y="443.6286498649159" width="2" height="26.371350135084125" fill="#8aa6c1" opacity="0.75" />
<rect x="262.27027027027026" y="444.8098404359656" width="2" height="25.19015956403441" fill="#8aa6c1" opacity="0.75" />
<rect x="265.5444015444016" y="449.79073512091315" width="2" height="20.20926487908685" fill="#8aa6c1" opacity="0.75" />
<rect x="268.81853281853284" y="451.4246471205156" width="2" height="18.575352879484388" fill="#8aa6c1" opacity="0.75" />
<rect x="272.0926640926641" y="445.68389879195826" width="2" height="24.316101208041754" fill="#8aa6c1" opacity="0.75" />
<rect x="275.3667953667954" y="441.07368993682127" width="2" height="28.926310063178747" fill="#8aa6c1" opacity="0.75" />
<rect x="278.64092664092664" y="448.20956651901423" width="2" height="21.790433480985786" fill="#8aa6c1" opacity="0.75" />
<rect x="281.9150579150579" y="450.72329069981333" width="2" height="19.27670930018665" fill="#8aa6c1" opacity="0.75" />
<rect x="285.18918918918916" y="446.45491136929706" width="2" height="23.545088630702935" fill="#8aa6c1" opacity="0.75" />
<rect x="288.46332046332043" y="445.5922734845427" width="2" height="24.407726515457302" fill="#8aa6c1" opacity="0.75" />
<rect x="291.73745173745175" y="444.1325454661165" width="2" height="25.867454533883492" fill="#8aa6c1" opacity="0.75" />
<rect x="295.011583011583" y="450.515281200771" width="2" height="19.484718799228986" fill="#8aa6c1" opacity="0.75" />
<rect x="298.2857142857143" y="428.7537040249751" width="2" height="41.24629597502491" fill="#8aa6c1" opacity="0.75" />
<rect x="301.5598455598456" y="439.46165990882804" width="2" height="30.53834009117198" fill="#8aa6c1" opacity="0.75" />
<rect x="304.83397683397686" y="452.65012470980236" width="2" height="17.349875290197662" fill="#8aa6c1" opacity="0.75" />
<rect x="308.1081081081081" y="445.0187217267055" width="2" height="24.981278273294492" fill="#8aa6c1" opacity="0.75" />
<rect x="311.3822393822394" y="439.2822451774663" width="2" height="30.71775482253372" fill="#8aa6c1" opacity="0.75" />
<rect x="314.65637065637065" y="444.07413542237873" width="2" height="25.925864577621283" fill="#8aa6c1" opacity="0.75" />
<rect x="317.9305019305019" y="432.00705628200024" width="2" height="37.99294371799979" fill="#8aa6c1" opacity="0.75" />
<rect x="321.2046332046332" y="404.72372485207876" width="2" height="65.27627514792125" fill="#8aa6c1" opacity="0.75" />
<rect x="324.4787644787645" y="435.76657079863963" width="2" height="34.233429201360345" fill="#8aa6c1" opacity="0.75" />
<rect x="327.75289575289577" y="444.0328124959135" width="2" height="25.967187504086525" fill="#8aa6c1" opacity="0.75" />
<rect x="331.02702702702703" y="443.7779006035414" width="2" height="26.22209939645861" fill="#8aa6c1" opacity="0.75" />
<rect x="334.3011583011583" y="442.9654779205676" width="2" height="27.034522079432428" fill="#8aa6c1" opacity="0.75" />
<rect x="337.57528957528956" y="437.59236415087923" width="2" height="32.40763584912075" fill="#8aa6c1" opacity="0.75" />
<rect x="340.8494208494208" y="439.94097098415693" width="2" height="30.05902901584307" fill="#8aa6c1" opacity="0.75" />
<rect x="344.12355212355214" y="444.2321912571498" width="2" height="25.767808742850217" fill="#8aa6c1" opacity="0.75" />
<rect x="347.3976833976834" y="452.7018219574688" width="2" height="17.29817804253123" fill="#8aa6c1" opacity="0.75" />
<rect x="350.6718146718147" y="448.3534993282845" width="2" height="21.6465006717155" fill="#8aa6c1" opacity="0.75" />
<rect x="353.94594594594594" y="444.2873756716065" width="2" height="25.712624328393467" fill="#8aa6c1" opacity="0.75" />
<rect x="357.2200772200772" y="442.4102337883795" width="2" height="27.589766211620457" fill="#8aa6c1" opacity="0.75" />
<rect x="360.4942084942085" y="424.08255693017736" width="2" height="45.91744306982267" fill="#8aa6c1" opacity="0.75" />
<rect x="363.7683397683398" y="427.1438534762258" width="2" height="42.8561465237742" fill="#8aa6c1" opacity="0.75" />
<rect x="367.04247104247105" y="410.54476519598313" width="2" height="59.45523480401687" fill="#8aa6c1" opacity="0.75" />
<rect x="370.3166023166023" y="415.92694559932625" width="2" height="54.073054400673726" fill="#8aa6c1" opacity="0.75" />
<rect x="373.5907335907336" y="405.3673686624013" width="2" height="64.63263133759872" fill="#8aa6c1" opacity="0.75" />
<rect x="376.86486486486484" y="395.7537728965192" width="2" height="74.2462271034808" fill="#8aa6c1" opacity="0.75" />
<rect x="380.13899613899616" y="392.731271081013" width="2" height="77.26872891898702" fill="#8aa6c1" opacity="0.75" />
<rect x="383.4131274131274" y="425.2130964035977" width="2" height="44.78690359640229" fill="#8aa6c1" opacity="0.75" />
<rect x="386.6872586872587" y="447.3172005373724" width="2" height="22.6827994626276" fill="#8aa6c1" opacity="0.75" />
<rect x="389.96138996138995" y="434.09700251860625" width="2" height="35.90299748139378" fill="#8aa6c1" opacity="0.75" />
<rect x="393.2355212355212" y="438.7421702208161" width="2" height="31.257829779183883" fill="#8aa6c1" opacity="0.75" />
<rect x="396.5096525096525" y="433.52571741918274" width="2" height="36.47428258081727" fill="#8aa6c1" opacity="0.75" />
<rect x="399.7837837837838" y="442.76444275510585" width="2" height="27.23555724489413" fill="#8aa6c1" opacity="0.75" />
<rect x="403.05791505791507" y="444.84732747896146" width="2" height="25.15267252103851" fill="#8aa6c1" opacity="0.75" />
<rect x="406.33204633204633" y="440.43806661011644" width="2" height="29.561933389883556" fill="#8aa6c1" opacity="0.75" />
<rect x="409.6061776061776" y="443.6771214833013" width="2" height="26.322878516698733" fill="#8aa6c1" opacity="0.75" />
<rect x="412.88030888030886" y="440.8569625208031" width="2" height="29.14303747919687" fill="#8aa6c1" opacity="0.75" />
<rect x="416.1544401544402" y="433.07639597825056" width="2" height="36.923604021749455" fill="#8aa6c1" opacity="0.75" />
<rect x="419.42857142857144" y="438.66763203067313" width="2" height="31.33236796932688" fill="#8aa6c1" opacity="0.75" />
<rect x="422.7027027027027" y="444.5856156113483" width="2" height="25.414384388651712" fill="#8aa6c1" opacity="0.75" />
<rect x="425.976833976834" y="443.3362509295479" width="2" height="26.663749070452102" fill="#8aa6c1" opacity="0.75" />
<rect x="429.25096525096524" y="431.70184200867783" width="2" height="38.298157991322185" fill="#8aa6c1" opacity="0.75" />
<rect x="432.5250965250965" y="440.77928588054885" width="2" height="29.220714119451152" fill="#8aa6c1" opacity="0.75" />
<rect x="435.7992277992278" y="417.74201591368563" width="2" height="52.25798408631436" fill="#8aa6c1" opacity="0.75" />
<rect x="439.0733590733591" y="446.95863261215817" width="2" height="23.04136738784182" fill="#8aa6c1" opacity="0.75" />
<rect x="442.34749034749035" y="447.7878808748953" width="2" height="22.212119125104724" fill="#8aa6c1" opacity="0.75" />
<rect x="445.6216216216216" y="461.19717051286636" width="2" height="8.802829487133662" fill="#8aa6c1" opacity="0.75" />
<rect x="448.8957528957529" y="460.49834228808703" width="2" height="9.501657711912946" fill="#8aa6c1" opacity="0.75" />
<rect x="452.16988416988414" y="452.8938776684454" width="2" height="17.106122331554587" fill="#8aa6c1" opacity="0.75" />
<rect x="455.44401544401546" y="454.8474756835501" width="2" height="15.152524316449925" fill="#8aa6c1" opacity="0.75" />
<rect x="458.7181467181467" y="455.72205711456127" width="2" height="14.277942885438724" fill="#8aa6c1" opacity="0.75" />
<rect x="461.992277992278" y="442.09447083551646" width="2" height="27.905529164483557" fill="#8aa6c1" opacity="0.75" />
<rect x="465.26640926640925" y="443.67572661658517" width="2" height="26.32427338341486" fill="#8aa6c1" opacity="0.75" />
<rect x="468.5405405405405" y="442.78955035599614" width="2" height="27.21044964400386" fill="#8aa6c1" opacity="0.75" />
<rect x="471.81467181467184" y="439.3962755315096" width="2" height="30.603724468490395" fill="#8aa6c1" opacity="0.75" />
<rect x="475.0888030888031" y="442.1932448348521" width="2" height="27.806755165147862" fill="#8aa6c1" opacity="0.75" />
<rect x="478.36293436293437" y="447.14667808132594" width="2" height="22.85332191867404" fill="#8aa6c1" opacity="0.75" />
<rect x="481.63706563706563" y="440.42542563050154" width="2" height="29.574574369498453" fill="#8aa6c1" opacity="0.75" />
<rect x="484.9111969111969" y="440.77963459722787" width="2" height="29.220365402772124" fill="#8aa6c1" opacity="0.75" />
<rect x="488.18532818532816" y="445.13161875154196" width="2" height="24.868381248458018" fill="#8aa6c1" opacity="0.75" />
<rect x="491.4594594594595" y="445.20415182078057" width="2" height="24.79584817921945" fill="#8aa6c1" opacity="0.75" />
<rect x="494.73359073359075" y="434.83052805294915" width="2" height="35.16947194705086" fill="#8aa6c1" opacity="0.75" />
<rect x="498.007722007722" y="439.17257378191084" width="2" height="30.827426218089155" fill="#8aa6c1" opacity="0.75" />
<rect x="501.2818532818533" y="439.1502559144528" width="2" height="30.849744085547176" fill="#8aa6c1" opacity="0.75" />
<rect x="504.55598455598454" y="447.11232948844133" width="2" height="22.88767051155865" fill="#8aa6c1" opacity="0.75" />
<rect x="507.83011583011586" y="446.21752249004635" width="2" height="23.78247750995368" fill="#8aa6c1" opacity="0.75" />
<rect x="511.1042471042471" y="447.2967134324793" width="2" height="22.703286567520703" fill="#8aa6c1" opacity="0.75" />
<rect x="514.3783783783783" y="451.1377404728424" width="2" height="18.86225952715762" fill="#8aa6c1" opacity="0.75" />
<rect x="517.6525096525097" y="446.0829178519401" width="2" height="23.91708214805987" fill="#8aa6c1" opacity="0.75" />
<rect x="520.9266409266409" y="435.31524423680304" width="2" height="34.68475576319697" fill="#8aa6c1" opacity="0.75" />
<rect x="524.2007722007722" y="442.9535343743107" width="2" height="27.046465625689258" fill="#8aa6c1" opacity="0.75" />
<rect x="527.4749034749035" y="442.09734774811847" width="2" height="27.902652251881545" fill="#8aa6c1" opacity="0.75" />
<rect x="530.7490347490348" y="438.17376203399465" width="2" height="31.826237966005355" fill="#8aa6c1" opacity="0.75" />
<rect x="534.023166023166" y="408.4354651836909" width="2" height="61.564534816309134" fill="#8aa6c1" opacity="0.75" />
<rect x="537.2972972972973" y="393.1029158816909" width="2" height="76.89708411830911" fill="#8aa6c1" opacity="0.75" />
<rect x="540.5714285714286" y="420.84794819465014" width="2" height="49.15205180534984" fill="#8aa6c1" opacity="0.75" />
<rect x="543.8455598455598" y="435.4420899288008" width="2" height="34.557910071199224" fill="#8aa6c1" opacity="0.75" />
<rect x="547.1196911196912" y="435.85191920583264" width="2" height="34.14808079416736" fill="#8aa6c1" opacity="0.75" />
<rect x="550.3938223938223" y="430.41507746305126" width="2" height="39.58492253694871" fill="#8aa6c1" opacity="0.75" />
<rect x="553.6679536679537" y="428.36209519442264" width="2" height="41.63790480557738" fill="#8aa6c1" opacity="0.75" />
<rect x="556.9420849420849" y="436.4362811807198" width="2" height="33.5637188192802" fill="#8aa6c1" opacity="0.75" />
<rect x="560.2162162162163" y="435.7842681701005" width="2" height="34.21573182989949" fill="#8aa6c1" opacity="0.75" />
<rect x="563.4903474903475" y="445.16954169038667" width="2" height="24.830458309613334" fill="#8aa6c1" opacity="0.75" />
<rect x="566.7644787644788" y="447.47778456806645" width="2" height="22.522215431933557" fill="#8aa6c1" opacity="0.75" />
<rect x="570.03861003861" y="423.6112663384662" width="2" height="46.38873366153385" fill="#8aa6c1" opacity="0.75" />
<rect x="573.3127413127413" y="442.60568948697676" width="2" height="27.394310513023264" fill="#8aa6c1" opacity="0.75" />
<rect x="576.5868725868726" y="447.6685325914967" width="2" height="22.33146740850328" fill="#8aa6c1" opacity="0.75" />
<rect x="579.8610038610038" y="443.87798229042346" width="2" height="26.122017709576546" fill="#8aa6c1" opacity="0.75" />
<rect x="583.1351351351351" y="438.23958230716187" width="2" height="31.760417692838143" fill="#8aa6c1" opacity="0.75" />
<rect x="586.4092664092664" y="431.0826955450573" width="2" height="38.91730445494275" fill="#8aa6c1" opacity="0.75" />
<rect x="589.6833976833976" y="439.6701924828889" width="2" height="30.32980751711109" fill="#8aa6c1" opacity="0.75" />
<rect x="592.957528957529" y="439.0540101110401" width="2" height="30.94598988895989" fill="#8aa6c1" opacity="0.75" />
<rect x="596.2316602316603" y="444.2505860619687" width="2" height="25.749413938031303" fill="#8aa6c1" opacity="0.75" />
<rect x="599.5057915057915" y="438.8314416906482" width="2" height="31.168558309351795" fill="#8aa6c1" opacity="0.75" />
<rect x="602.7799227799228" y="447.70227093019304" width="2" height="22.297729069806977" fill="#8aa6c1" opacity="0.75" />
<rect x="606.0540540540541" y="444.44595458139617" width="2" height="25.55404541860386" fill="#8aa6c1" opacity="0.75" />
<rect x="609.3281853281853" y="449.73982248577454" width="2" height="20.26017751422546" fill="#8aa6c1" opacity="0.75" />
<rect x="612.6023166023166" y="448.9674150417196" width="2" height="21.03258495828041" fill="#8aa6c1" opacity="0.75" />
<rect x="615.8764478764479" y="448.26771502524275" width="2" height="21.73228497475727" fill="#8aa6c1" opacity="0.75" />
<rect x="619.1505791505791" y="449.34455213009227" width="2" height="20.655447869907757" fill="#8aa6c1" opacity="0.75" />
<rect x="622.4247104247104" y="449.49572081045244" width="2" height="20.504279189547567" fill="#8aa6c1" opacity="0.75" />
<rect x="625.6988416988416" y="450.8596389213147" width="2" height="19.140361078685302" fill="#8aa6c1" opacity="0.75" />
<rect x="628.972972972973" y="452.5556224897848" width="2" height="17.44437751021522" fill="#8aa6c1" opacity="0.75" />
<rect x="632.2471042471043" y="448.1391257498498" width="2" height="21.860874250150168" fill="#8aa6c1" opacity="0.75" />
<rect x="635.5212355212356" y="431.3237459494378" width="2" height="38.67625405056218" fill="#8aa6c1" opacity="0.75" />
<rect x="638.7953667953668" y="444.433052064272" width="2" height="25.56694793572803" fill="#8aa6c1" opacity="0.75" />
<rect x="642.0694980694981" y="437.8620093229404" width="2" height="32.137990677059584" fill="#8aa6c1" opacity="0.75" />
<rect x="645.3436293436293" y="444.3164063351359" width="2" height="25.68359366486409" fill="#8aa6c1" opacity="0.75" />
<rect x="648.6177606177606" y="435.9298573835962" width="2" height="34.07014261640381" fill="#8aa6c1" opacity="0.75" />
<rect x="651.8918918918919" y="438.71087289887305" width="2" height="31.28912710112697" fill="#8aa6c1" opacity="0.75" />
<rect x="655.1660231660231" y="439.3641935970387" width="2" height="30.6358064029613" fill="#8aa6c1" opacity="0.75" />
<rect x="658.4401544401544" y="431.74979055204466" width="2" height="38.25020944795534" fill="#8aa6c1" opacity="0.75" />
<rect x="661.7142857142857" y="437.14696577258616" width="2" height="32.85303422741384" fill="#8aa6c1" opacity="0.75" />
<rect x="664.988416988417" y="451.11132518440576" width="2" height="18.88867481559426" fill="#8aa6c1" opacity="0.75" />
<rect x="668.2625482625483" y="455.22705378867596" width="2" height="14.77294621132405" fill="#8aa6c1" opacity="0.75" />
<rect x="671.5366795366796" y="449.76972494100147" width="2" height="20.230275058998505" fill="#8aa6c1" opacity="0.75" />
<rect x="674.8108108108108" y="440.7539167421493" width="2" height="29.246083257850703" fill="#8aa6c1" opacity="0.75" />
<rect x="678.0849420849421" y="449.30436253283386" width="2" height="20.695637467166144" fill="#8aa6c1" opacity="0.75" />
<rect x="681.3590733590734" y="453.30292233294944" width="2" height="16.697077667050543" fill="#8aa6c1" opacity="0.75" />
<rect x="684.6332046332046" y="453.55242911679653" width="2" height="16.44757088320345" fill="#8aa6c1" opacity="0.75" />
<rect x="687.9073359073359" y="445.832713634735" width="2" height="24.167286365265028" fill="#8aa6c1" opacity="0.75" />
<rect x="691.1814671814672" y="448.27599704636975" width="2" height="21.724002953630272" fill="#8aa6c1" opacity="0.75" />
<rect x="694.4555984555984" y="452.09209084418205" width="2" height="17.907909155817944" fill="#8aa6c1" opacity="0.75" />
<rect x="697.7297297297297" y="447.69791197170514" width="2" height="22.30208802829487" fill="#8aa6c1" opacity="0.75" />
<rect x="701.003861003861" y="453.62409039433754" width="2" height="16.37590960566246" fill="#8aa6c1" opacity="0.75" />
<rect x="704.2779922779923" y="449.84086314352396" width="2" height="20.159136856476064" fill="#8aa6c1" opacity="0.75" />
<rect x="707.5521235521236" y="452.30873108103043" width="2" height="17.691268918969577" fill="#8aa6c1" opacity="0.75" />
<rect x="710.8262548262549" y="453.7408233026434" width="2" height="16.25917669735664" fill="#8aa6c1" opacity="0.75" />
<rect x="714.1003861003861" y="446.96194542060897" width="2" height="23.03805457939102" fill="#8aa6c1" opacity="0.75" />
<rect x="717.3745173745174" y="445.08689583745615" width="2" height="24.913104162543817" fill="#8aa6c1" opacity="0.75" />
<rect x="720.6486486486486" y="445.7431806273936" width="2" height="24.256819372606387" fill="#8aa6c1" opacity="0.75" />
<rect x="723.9227799227799" y="439.1592353689379" width="2" height="30.84076463106211" fill="#8aa6c1" opacity="0.75" />
<rect x="727.1969111969112" y="407.19612610641263" width="2" height="62.80387389358736" fill="#8aa6c1" opacity="0.75" />
<rect x="730.4710424710424" y="443.7545365860463" width="2" height="26.245463413953722" fill="#8aa6c1" opacity="0.75" />
<rect x="733.7451737451737" y="447.0730988620503" width="2" height="22.926901137949702" fill="#8aa6c1" opacity="0.75" />
<rect x="737.019305019305" y="449.18283477019133" width="2" height="20.81716522980865" fill="#8aa6c1" opacity="0.75" />
<rect x="740.2934362934363" y="442.7055096363495" width="2" height="27.29449036365047" fill="#8aa6c1" opacity="0.75" />
<rect x="743.5675675675676" y="448.6990775572048" width="2" height="21.30092244279521" fill="#8aa6c1" opacity="0.75" />
<rect x="746.8416988416989" y="451.28978094490014" width="2" height="18.71021905509985" fill="#8aa6c1" opacity="0.75" />
<rect x="750.1158301158301" y="443.1891796701663" width="2" height="26.810820329833675" fill="#8aa6c1" opacity="0.75" />
<rect x="753.3899613899614" y="447.3181595082397" width="2" height="22.681840491760262" fill="#8aa6c1" opacity="0.75" />
<rect x="756.6640926640927" y="445.46377138831957" width="2" height="24.53622861168044" fill="#8aa6c1" opacity="0.75" />
<rect x="759.9382239382239" y="451.57320042578306" width="2" height="18.426799574216936" fill="#8aa6c1" opacity="0.75" />
<rect x="763.2123552123552" y="452.29417215968084" width="2" height="17.705827840319145" fill="#8aa6c1" opacity="0.75" />
<rect x="766.4864864864865" y="446.6035518537343" width="2" height="23.396448146265726" fill="#8aa6c1" opacity="0.75" />
<rect x="769.7606177606177" y="435.5243870650522" width="2" height="34.475612934947776" fill="#8aa6c1" opacity="0.75" />
<rect x="773.034749034749" y="442.32549563537486" width="2" height="27.674504364625136" fill="#8aa6c1" opacity="0.75" />
<rect x="776.3088803088804" y="448.33353529840997" width="2" height="21.66646470159006" fill="#8aa6c1" opacity="0.75" />
<rect x="779.5830115830116" y="452.1787469389214" width="2" height="17.821253061078597" fill="#8aa6c1" opacity="0.75" />
<rect x="782.8571428571429" y="445.8100470505979" width="2" height="24.189952949402084" fill="#8aa6c1" opacity="0.75" />
<rect x="786.1312741312742" y="449.8726835404856" width="2" height="20.12731645951443" fill="#8aa6c1" opacity="0.75" />
<rect x="789.4054054054054" y="448.7653337262208" width="2" height="21.234666273779208" fill="#8aa6c1" opacity="0.75" />
<rect x="792.6795366795367" y="431.278674318673" width="2" height="38.72132568132701" fill="#8aa6c1" opacity="0.75" />
<rect x="795.953667953668" y="445.0039012678467" width="2" height="24.996098732153335" fill="#8aa6c1" opacity="0.75" />
<rect x="799.2277992277992" y="426.05097540414084" width="2" height="43.949024595859164" fill="#8aa6c1" opacity="0.75" />
<rect x="802.5019305019305" y="421.66647341950704" width="2" height="48.333526580492965" fill="#8aa6c1" opacity="0.75" />
<rect x="805.7760617760617" y="431.5927808673107" width="2" height="38.40721913268931" fill="#8aa6c1" opacity="0.75" />
<rect x="809.050193050193" y="437.33291894167974" width="2" height="32.66708105832025" fill="#8aa6c1" opacity="0.75" />
<rect x="812.3243243243244" y="445.63996049040026" width="2" height="24.360039509599734" fill="#8aa6c1" opacity="0.75" />
<rect x="815.5984555984556" y="444.251545032836" width="2" height="25.748454967163966" fill="#8aa6c1" opacity="0.75" />
<rect x="818.8725868725869" y="441.79134886226825" width="2" height="28.208651137731756" fill="#8aa6c1" opacity="0.75" />
<rect x="822.1467181467182" y="439.01809229309987" width="2" height="30.98190770690014" fill="#8aa6c1" opacity="0.75" />
<rect x="825.4208494208494" y="448.46273482799114" width="2" height="21.53726517200886" fill="#8aa6c1" opacity="0.75" />
<rect x="828.6949806949807" y="445.82739570537973" width="2" height="24.17260429462026" fill="#8aa6c1" opacity="0.75" />
<rect x="831.969111969112" y="448.31322255185637" width="2" height="21.68677744814365" fill="#8aa6c1" opacity="0.75" />
<rect x="835.2432432432432" y="448.6030932913013" width="2" height="21.39690670869865" fill="#8aa6c1" opacity="0.75" />
<rect x="838.5173745173745" y="431.23133602949446" width="2" height="38.76866397050554" fill="#8aa6c1" opacity="0.75" />
<rect x="841.7915057915058" y="423.9564958507074" width="2" height="46.04350414929259" fill="#8aa6c1" opacity="0.75" />
<rect x="845.065637065637" y="440.3523694862444" width="2" height="29.647630513755562" fill="#8aa6c1" opacity="0.75" />
<rect x="848.3397683397683" y="430.77172744653086" width="2" height="39.22827255346916" fill="#8aa6c1" opacity="0.75" />
<rect x="851.6138996138997" y="431.21276686633604" width="2" height="38.787233133663975" fill="#8aa6c1" opacity="0.75" />
<rect x="854.8880308880309" y="370.0" width="2" height="100.0" fill="#8aa6c1" opacity="0.75" />
<rect x="858.1621621621622" y="440.17260603820364" width="2" height="29.827393961796346" fill="#8aa6c1" opacity="0.75" />
<rect x="861.4362934362935" y="439.2805015940711" width="2" height="30.71949840592888" fill="#8aa6c1" opacity="0.75" />
<rect x="864.7104247104247" y="446.69142845685025" width="2" height="23.308571543149768" fill="#8aa6c1" opacity="0.75" />
<rect x="867.984555984556" y="447.35538501372633" width="2" height="22.64461498627364" fill="#8aa6c1" opacity="0.75" />
<rect x="871.2586872586872" y="446.5350290263046" width="2" height="23.46497097369543" fill="#8aa6c1" opacity="0.75" />
<rect x="874.5328185328185" y="449.03724555669567" width="2" height="20.962754443304334" fill="#8aa6c1" opacity="0.75" />
<rect x="877.8069498069498" y="450.7379368003327" width="2" height="19.262063199667324" fill="#8aa6c1" opacity="0.75" />
<rect x="881.081081081081" y="448.44137593140044" width="2" height="21.558624068599546" fill="#8aa6c1" opacity="0.75" />
<rect x="884.3552123552123" y="454.18038067656266" width="2" height="15.819619323437333" fill="#8aa6c1" opacity="0.75" />
<rect x="887.6293436293437" y="456.13702996260884" width="2" height="13.862970037391145" fill="#8aa6c1" opacity="0.75" />
<rect x="890.903474903475" y="454.08160667722694" width="2" height="15.918393322773031" fill="#8aa6c1" opacity="0.75" />
<rect x="894.1776061776062" y="445.3417205506585" width="2" height="24.658279449341492" fill="#8aa6c1" opacity="0.75" />
<rect x="897.4517374517375" y="434.1183614151969" width="2" height="35.8816385848031" fill="#8aa6c1" opacity="0.75" />
<rect x="900.7258687258687" y="443.88173099472306" width="2" height="26.118269005276957" fill="#8aa6c1" opacity="0.75" />
<rect x="904.0" y="448.46264764882136" width="2" height="21.53735235117862" fill="#8aa6c1" opacity="0.75" />
</svg>