<svg xmlns="http://www.w3.org/2000/svg" width="960" height="520" viewBox="0 0 960 520"><rect width="100%" height="100%" fill="white" />
<text x="56.00" y="32.00" font-size="20" font-family="Arial" fill="#1f2933" text-anchor="start">MSFT Price / Volume</text>
<line x1="56" y1="244" x2="904" y2="244" stroke="#cbd2d9" />
<line x1="56" y1="56" x2="56" y2="244" stroke="#cbd2d9" />
<text x="16.00" y="38.00" font-size="12" font-family="Arial" fill="#52606d" text-anchor="start">Price</text>
<line x1="56" y1="244.00" x2="904" y2="244.00" stroke="#edf2f7" />
<line x1="52" y1="244.00" x2="56" y2="244.00" stroke="#9fb3c8" />
<text x="48.00" y="248.00" font-size="11" font-family="Arial" fill="#52606d" text-anchor="end">342</text>
<line x1="56" y1="197.00" x2="904" y2="197.00" stroke="#edf2f7" />
<line x1="52" y1="197.00" x2="56" y2="197.00" stroke="#9fb3c8" />
<text x="48.00" y="201.00" font-size="11" font-family="Arial" fill="#52606d" text-anchor="end">394</text>
<line x1="56" y1="150.00" x2="904" y2="150.00" stroke="#edf2f7" />
<line x1="52" y1="150.00" x2="56" y2="150.00" stroke="#9fb3c8" />
<text x="48.00" y="154.00" font-size="11" font-family="Arial" fill="#52606d" text-anchor="end">446</text>
<line x1="56" y1="103.00" x2="904" y2="103.00" stroke="#edf2f7" />
<line x1="52" y1="103.00" x2="56" y2="103.00" stroke="#9fb3c8" />
<text x="48.00" y="107.00" font-size="11" font-family="Arial" fill="#52606d" text-anchor="end">498</text>
<line x1="56" y1="56.00" x2="904" y2="56.00" stroke="#edf2f7" />
<line x1="52" y1="56.00" x2="56" y2="56.00" stroke="#9fb3c8" />
<text x="48.00" y="60.00" font-size="11" font-family="Arial" fill="#52606d" text-anchor="end">550</text>
<polyline fill="none" stroke="#1f77b4" stroke-width="2" points="56.00,107.60 59.27,101.42 62.55,103.24 65.82,101.60 69.10,101.86 72.37,99.35 75.64,99.53 78.92,94.09 82.19,95.56 85.47,95.56 88.74,99.85 92.02,99.31 95.29,94.82 98.56,92.28 101.84,93.37 105.11,93.31 108.39,92.71 111.66,74.55 114.93,82.96 118.21,72.63 121.48,79.70 124.76,82.22 128.03,85.89 131.31,84.82 134.58,85.06 137.85,78.37 141.13,86.13 144.40,84.43 147.68,86.50 150.95,89.25 154.22,95.82 157.50,99.44 160.77,100.03 164.05,97.34 167.32,100.01 170.59,102.00 173.87,97.78 177.14,95.18 180.42,97.83 183.69,99.24 186.97,99.03 190.24,96.68 193.51,108.32 196.79,105.45 200.06,105.26 203.34,103.50 206.61,102.93 209.88,94.95 213.16,90.05 216.43,95.72 219.71,94.84 222.98,96.25 226.25,87.74 229.53,90.86 232.80,95.55 236.08,94.72 239.35,97.52 242.63,93.55 245.90,90.73 249.17,87.72 252.45,86.14 255.72,89.71 259.00,88.26 262.27,78.19 265.54,82.31 268.82,81.53 272.09,83.73 275.37,94.00 278.64,91.22 281.92,91.65 285.19,91.78 288.46,93.41 291.74,91.64 295.01,88.76 298.29,87.98 301.56,85.40 304.83,85.38 308.11,82.64 311.38,75.54 314.66,66.07 317.93,66.54 321.20,80.71 324.48,87.85 327.75,88.55 331.03,90.97 334.30,97.41 337.58,106.44 340.85,106.69 344.12,98.45 347.40,96.04 350.67,93.83 353.95,100.88 357.22,94.70 360.49,97.11 363.77,109.41 367.04,115.39 370.32,122.39 373.59,128.07 376.86,126.38 380.14,123.69 383.41,116.03 386.69,110.18 389.96,114.92 393.24,111.99 396.51,123.02 399.78,120.22 403.06,118.14 406.33,111.07 409.61,110.17 412.88,122.27 416.15,117.86 419.43,122.30 422.70,125.64 425.98,124.23 429.25,124.47 432.53,117.40 435.80,115.66 439.07,116.55 442.35,114.82 445.62,113.77 448.90,114.05 452.17,114.59 455.44,114.25 458.72,117.72 461.99,127.33 465.27,127.41 468.54,122.32 471.81,117.86 475.09,122.68 478.36,121.63 481.64,123.52 484.91,129.37 488.19,139.52 491.46,141.97 494.73,139.09 498.01,143.89 501.28,153.25 504.56,146.93 507.83,133.61 511.10,129.72 514.38,120.46 517.65,119.51 520.93,162.80 524.20,165.68 527.47,171.91 530.75,182.84 534.02,180.16 537.30,198.61 540.57,191.90 543.85,180.69 547.12,180.99 550.39,188.99 553.67,191.27 556.94,191.74 560.22,195.75 563.49,193.28 566.76,193.49 570.04,194.60 573.31,206.10 576.59,202.02 579.86,191.56 583.14,190.55 586.41,198.64 589.68,193.41 592.96,188.56 596.23,187.41 599.51,182.47 602.78,184.03 606.05,183.62 609.33,186.91 612.60,187.70 615.88,190.42 619.15,196.11 622.42,192.15 625.70,192.63 628.97,199.50 632.25,202.00 635.52,208.44 638.80,207.42 642.07,216.67 645.34,218.20 648.62,222.77 651.89,231.07 655.17,229.09 658.44,218.99 661.71,219.71 664.99,216.02 668.26,216.55 671.54,217.08 674.81,215.24 678.08,216.37 681.36,218.36 684.63,206.19 687.91,198.31 691.18,181.99 694.46,173.84 697.73,171.56 701.00,175.81 704.28,170.32 707.55,162.43 710.83,177.91 714.10,169.91 717.37,169.73 720.65,165.74 723.92,170.05 727.20,185.09 730.47,179.09 733.75,179.83 737.02,181.84 740.29,179.52 743.57,173.38 746.84,178.47 750.12,180.69 753.39,185.10 756.66,187.41 759.94,183.60 763.21,172.34 766.49,170.88 769.76,176.40 773.03,173.12 776.31,174.08 779.58,174.55 782.86,176.84 786.13,179.88 789.41,166.94 792.68,145.94 795.95,136.65 799.23,154.01 802.50,166.62 805.78,165.98 809.05,176.26 812.32,180.72 815.60,188.24 818.87,193.71 822.15,200.05 825.42,199.68 828.69,191.54 831.97,196.89 835.24,210.37 838.52,209.93 841.79,220.82 845.07,214.86 848.34,222.52 851.61,233.93 854.89,215.74 858.16,219.71 861.44,215.69 864.71,205.52 867.98,199.91 871.26,203.30 874.53,201.40 877.81,206.37 881.08,205.45 884.36,204.78 887.63,199.46 890.90,204.93 894.18,195.27 897.45,190.33 900.73,196.90 904.00,189.25" />
<line x1="56" y1="470" x2="904" y2="470" stroke="#cbd2d9" />
<line x1="56" y1="370" x2="56" y2="470" stroke="#cbd2d9" />
<text x="16.00" y="362.00" font-size="12" font-family="Arial" fill="#52606d" text-anchor="start">Volume</text>
<line x1="56" y1="470.00" x2="904" y2="470.00" stroke="#edf2f7" />
<line x1="52" y1="470.00" x2="56" y2="470.00" stroke="#9fb3c8" />
<text x="48.00" y="474.00" font-size="11" font-family="Arial" fill="#52606d" text-anchor="end">0</text>
<line x1="56" y1="420.00" x2="904" y2="420.00" stroke="#edf2f7" />
<line x1="52" y1="420.00" x2="56" y2="420.00" stroke="#9fb3c8" />
<text x="48.00" y="424.00" font-size="11" font-family="Arial" fill="#52606d" text-anchor="end">93.1M</text>
<line x1="56" y1="370.00" x2="904" y2="370.00" stroke="#edf2f7" />
<line x1="52" y1="370.00" x2="56" y2="370.00" stroke="#9fb3c8" />
<text x="48.00" y="374.00" font-size="11" font-family="Arial" fill="#52606d" text-anchor="end">186.2M</text>
<line x1="56.00" y1="470" x2="56.00" y2="474" stroke="#9fb3c8" />
<text x="56.00" y="488.00" font-size="11" font-family="Arial" fill="#52606d" text-anchor="middle">07/08</text>
<line x1="226.25" y1="470" x2="226.25" y2="474" stroke="#9fb3c8" />
<text x="226.25" y="488.00" font-size="11" font-family="Arial" fill="#52606d" text-anchor="middle">09/19</text>
<line x1="396.51" y1="470" x2="396.51" y2="474" stroke="#9fb3c8" />
<text x="396.51" y="488.00" font-size="11" font-family="Arial" fill="#52606d" text-anchor="middle">12/03</text>
<line x1="563.49" y1="470" x2="563.49" y2="474" stroke="#9fb3c8" />
<text x="563.49" y="488.00" font-size="11" font-family="Arial" fill="#52606d" text-anchor="middle">02/18</text>
<line x1="733.75" y1="470" x2="733.75" y2="474" stroke="#9fb3c8" />
<text x="733.75" y="488.00" font-size="11" font-family="Arial" fill="#52606d" text-anchor="middle">05/04</text>
<line x1="904.00" y1="470" x2="904.00" y2="474" stroke="#9fb3c8" />
<text x="904.00" y="488.00" font-size="11" font-family="Arial" fill="#52606d" text-anchor="middle">07/20</text>
<rect x="56.0" y="463.6377560665429" width="2" height="6.362243933457071" fill="#8aa6c1" opacity="0.75" />
<rect x="59.27413127413127" y="459.97887236199904" width="2" height="10.021127638000962" fill="#8aa6c1" opacity="0.75" />
<rect x="62.54826254826255" y="461.14287954561075" width="2" height="8.857120454389221" fill="#8aa6c1" opacity="0.75" />
<rect x="65.82239382239382" y="461.1603874510208" width="2" height="8.839612548979172" fill="#8aa6c1" opacity="0.75" />
<rect x="69.0965250965251" y="463.52379356568366" width="2" height="6.476206434316353" fill="#8aa6c1" opacity="0.75" />
<rect x="72.37065637065638" y="461.9833127105245" width="2" height="8.016687289475493" fill="#8aa6c1" opacity="0.75" />
<rect x="75.64478764478764" y="461.86129442496735" width="2" height="8.138705575032652" fill="#8aa6c1" opacity="0.75" />
<rect x="78.91891891891892" y="460.59991965697395" width="2" height="9.400080343026053" fill="#8aa6c1" opacity="0.75" />
<rect x="82.1930501930502" y="458.6092815528975" width="2" height="11.390718447102495" fill="#8aa6c1" opacity="0.75" />
<rect x="85.46718146718146" y="462.44539252079466" width="2" height="7.554607479205335" fill="#8aa6c1" opacity="0.75" />
<rect x="88.74131274131274" y="462.55183628926926" width="2" height="7.448163710730735" fill="#8aa6c1" opacity="0.75" />
<rect x="92.01544401544402" y="461.1941680415206" width="2" height="8.805831958479411" fill="#8aa6c1" opacity="0.75" />
<rect x="95.28957528957528" y="461.34969839142093" width="2" height="8.650301608579088" fill="#8aa6c1" opacity="0.75" />
<rect x="98.56370656370656" y="459.72849857358904" width="2" height="10.271501426410943" fill="#8aa6c1" opacity="0.75" />
<rect x="101.83783783783784" y="462.3158555028528" width="2" height="7.684144497147178" fill="#8aa6c1" opacity="0.75" />
<rect x="105.1119691119691" y="461.15517804358285" width="2" height="8.84482195641713" fill="#8aa6c1" opacity="0.75" />
<rect x="108.3861003861004" y="455.83234515707704" width="2" height="14.16765484292294" fill="#8aa6c1" opacity="0.75" />
<rect x="111.66023166023166" y="442.27880963428885" width="2" height="27.721190365711145" fill="#8aa6c1" opacity="0.75" />
<rect x="114.93436293436294" y="454.4375128892555" width="2" height="15.562487110744483" fill="#8aa6c1" opacity="0.75" />
<rect x="118.20849420849422" y="456.386260912903" width="2" height="13.613739087096995" fill="#8aa6c1" opacity="0.75" />
<rect x="121.48262548262548" y="459.7038478724136" width="2" height="10.296152127586444" fill="#8aa6c1" opacity="0.75" />
<rect x="124.75675675675676" y="458.53087191517153" width="2" height="11.469128084828487" fill="#8aa6c1" opacity="0.75" />
<rect x="128.03088803088804" y="461.36468215095897" width="2" height="8.635317849041039" fill="#8aa6c1" opacity="0.75" />
<rect x="131.3050193050193" y="461.65904052381933" width="2" height="8.340959476180656" fill="#8aa6c1" opacity="0.75" />
<rect x="134.57915057915056" y="459.15455076648107" width="2" height="10.84544923351894" fill="#8aa6c1" opacity="0.75" />
<rect x="137.85328185328186" y="459.9748444696501" width="2" height="10.0251555303499" fill="#8aa6c1" opacity="0.75" />
<rect x="141.12741312741312" y="459.46346325702893" width="2" height="10.536536742971059" fill="#8aa6c1" opacity="0.75" />
<rect x="144.4015444015444" y="459.11443295868565" width="2" height="10.88556704131436" fill="#8aa6c1" opacity="0.75" />
<rect x="147.67567567567568" y="456.4591389118031" width="2" height="13.540861088196879" fill="#8aa6c1" opacity="0.75" />
<rect x="150.94980694980694" y="457.23931480717675" width="2" height="12.760685192823262" fill="#8aa6c1" opacity="0.75" />
<rect x="154.2239382239382" y="458.4635792603286" width="2" height="11.53642073967141" fill="#8aa6c1" opacity="0.75" />
<rect x="157.4980694980695" y="455.1112987213859" width="2" height="14.888701278614146" fill="#8aa6c1" opacity="0.75" />
<rect x="160.7722007722008" y="460.09498307211106" width="2" height="9.905016927888912" fill="#8aa6c1" opacity="0.75" />
<rect x="164.04633204633205" y="456.9366321234619" width="2" height="13.063367876538118" fill="#8aa6c1" opacity="0.75" />
<rect x="167.32046332046332" y="458.37893981576957" width="2" height="11.621060184230425" fill="#8aa6c1" opacity="0.75" />
<rect x="170.59459459459458" y="453.43961598611395" width="2" height="16.560384013886026" fill="#8aa6c1" opacity="0.75" />
<rect x="173.86872586872587" y="460.72086383790474" width="2" height="9.279136162095277" fill="#8aa6c1" opacity="0.75" />
<rect x="177.14285714285714" y="460.3246803464632" width="2" height="9.67531965353681" fill="#8aa6c1" opacity="0.75" />
<rect x="180.41698841698843" y="458.74252423180036" width="2" height="11.25747576819963" fill="#8aa6c1" opacity="0.75" />
<rect x="183.6911196911197" y="460.26431566646045" width="2" height="9.735684333539561" fill="#8aa6c1" opacity="0.75" />
<rect x="186.96525096525096" y="461.22182623565" width="2" height="8.778173764350038" fill="#8aa6c1" opacity="0.75" />
<rect x="190.23938223938225" y="461.67058714855295" width="2" height="8.329412851447033" fill="#8aa6c1" opacity="0.75" />
<rect x="193.51351351351352" y="452.8171186498935" width="2" height="17.182881350106552" fill="#8aa6c1" opacity="0.75" />
<rect x="196.78764478764478" y="460.9930956554616" width="2" height="9.006904344538393" fill="#8aa6c1" opacity="0.75" />
<rect x="200.06177606177607" y="462.26080764075067" width="2" height="7.739192359249329" fill="#8aa6c1" opacity="0.75" />
<rect x="203.33590733590734" y="458.3933328177631" width="2" height="11.606667182236889" fill="#8aa6c1" opacity="0.75" />
<rect x="206.6100386100386" y="459.85959304323916" width="2" height="10.140406956760845" fill="#8aa6c1" opacity="0.75" />
<rect x="209.8841698841699" y="457.31219280607684" width="2" height="12.687807193923145" fill="#8aa6c1" opacity="0.75" />
<rect x="213.15830115830116" y="460.7928825531037" width="2" height="9.207117446896266" fill="#8aa6c1" opacity="0.75" />
<rect x="216.43243243243242" y="459.41367850759605" width="2" height="10.58632149240393" fill="#8aa6c1" opacity="0.75" />
<rect x="219.7065637065637" y="461.5056583831718" width="2" height="8.494341616828212" fill="#8aa6c1" opacity="0.75" />
<rect x="222.98069498069498" y="459.8423536639857" width="2" height="10.157646336014299" fill="#8aa6c1" opacity="0.75" />
<rect x="226.25482625482624" y="441.81866321234617" width="2" height="28.18133678765381" fill="#8aa6c1" opacity="0.75" />
<rect x="229.52895752895753" y="459.25395914965287" width="2" height="10.746040850347152" fill="#8aa6c1" opacity="0.75" />
<rect x="232.8030888030888" y="459.36657901972916" width="2" height="10.633420980270847" fill="#8aa6c1" opacity="0.75" />
<rect x="236.0772200772201" y="462.7316951089572" width="2" height="7.268304891042826" fill="#8aa6c1" opacity="0.75" />
<rect x="239.35135135135135" y="461.52182365779885" width="2" height="8.478176342201142" fill="#8aa6c1" opacity="0.75" />
<rect x="242.62548262548262" y="461.2927171409913" width="2" height="8.70728285900873" fill="#8aa6c1" opacity="0.75" />
<rect x="245.8996138996139" y="460.5383197566509" width="2" height="9.461680243349143" fill="#8aa6c1" opacity="0.75" />
<rect x="249.17374517374517" y="459.40492455489107" width="2" height="10.595075445108957" fill="#8aa6c1" opacity="0.75" />
<rect x="252.44787644787644" y="457.845270932151" width="2" height="12.15472906784904" fill="#8aa6c1" opacity="0.75" />
<rect x="255.72200772200773" y="458.60219246236335" width="2" height="11.397807537636625" fill="#8aa6c1" opacity="0.75" />
<rect x="258.996138996139" y="461.8839043273527" width="2" height="8.116095672647281" fill="#8aa6c1" opacity="0.75" />
<rect x="262.27027027027026" y="458.5132028940675" width="2" height="11.486797105932494" fill="#8aa6c1" opacity="0.75" />
<rect x="265.5444015444016" y="462.1508730322403" width="2" height="7.849126967759676" fill="#8aa6c1" opacity="0.75" />
<rect x="268.81853281853284" y="462.82315511789375" width="2" height="7.176844882106276" fill="#8aa6c1" opacity="0.75" />
<rect x="272.0926640926641" y="460.1485271877363" width="2" height="9.851472812263697" fill="#8aa6c1" opacity="0.75" />
<rect x="275.3667953667954" y="457.0388868838936" width="2" height="12.961113116106413" fill="#8aa6c1" opacity="0.75" />
<rect x="278.64092664092664" y="462.3286373479068" width="2" height="7.671362652093215" fill="#8aa6c1" opacity="0.75" />
<rect x="281.9150579150579" y="462.1137627173988" width="2" height="7.886237282601223" fill="#8aa6c1" opacity="0.75" />
<rect x="285.18918918918916" y="462.10817737334156" width="2" height="7.891822626658418" fill="#8aa6c1" opacity="0.75" />
<rect x="288.46332046332043" y="461.6436808276621" width="2" height="8.356319172337939" fill="#8aa6c1" opacity="0.75" />
<rect x="291.73745173745175" y="459.3299520519695" width="2" height="10.670047948030522" fill="#8aa6c1" opacity="0.75" />
<rect x="295.011583011583" y="462.1238055956555" width="2" height="7.876194404344538" fill="#8aa6c1" opacity="0.75" />
<rect x="298.2857142857143" y="461.6293952361312" width="2" height="8.370604763868839" fill="#8aa6c1" opacity="0.75" />
<rect x="301.5598455598456" y="459.81603810063933" width="2" height="10.183961899360693" fill="#8aa6c1" opacity="0.75" />
<rect x="304.83397683397686" y="462.4686468859559" width="2" height="7.5313531140441325" fill="#8aa6c1" opacity="0.75" />
<rect x="308.1081081081081" y="461.65828865058086" width="2" height="8.341711349419125" fill="#8aa6c1" opacity="0.75" />
<rect x="311.3822393822394" y="459.938486028047" width="2" height="10.06151397195298" fill="#8aa6c1" opacity="0.75" />
<rect x="314.65637065637065" y="453.89557340001375" width="2" height="16.10442659998625" fill="#8aa6c1" opacity="0.75" />
<rect x="317.9305019305019" y="450.6537645218946" width="2" height="19.34623547810545" fill="#8aa6c1" opacity="0.75" />
<rect x="321.2046332046332" y="447.9684492507046" width="2" height="22.031550749295388" fill="#8aa6c1" opacity="0.75" />
<rect x="324.4787644787645" y="451.736784216677" width="2" height="18.263215783323023" fill="#8aa6c1" opacity="0.75" />
<rect x="327.75289575289577" y="457.98361560802914" width="2" height="12.016384391970854" fill="#8aa6c1" opacity="0.75" />
<rect x="331.02702702702703" y="458.7440816835086" width="2" height="11.255918316491373" fill="#8aa6c1" opacity="0.75" />
<rect x="334.3011583011583" y="457.63474642537983" width="2" height="12.365253574620198" fill="#8aa6c1" opacity="0.75" />
<rect x="337.57528957528956" y="455.28127577851103" width="2" height="14.718724221488966" fill="#8aa6c1" opacity="0.75" />
<rect x="340.8494208494208" y="457.1001108475974" width="2" height="12.899889152402558" fill="#8aa6c1" opacity="0.75" />
<rect x="344.12355212355214" y="455.98212904722624" width="2" height="14.017870952773768" fill="#8aa6c1" opacity="0.75" />
<rect x="347.3976833976834" y="460.3437994088128" width="2" height="9.656200591187186" fill="#8aa6c1" opacity="0.75" />
<rect x="350.6718146718147" y="455.7278884821613" width="2" height="14.272111517838729" fill="#8aa6c1" opacity="0.75" />
<rect x="353.94594594594594" y="456.42702318347426" width="2" height="13.572976816525745" fill="#8aa6c1" opacity="0.75" />
<rect x="357.2200772200772" y="454.69094787585067" width="2" height="15.309052124149309" fill="#8aa6c1" opacity="0.75" />
<rect x="360.4942084942085" y="459.7461675946931" width="2" height="10.253832405306936" fill="#8aa6c1" opacity="0.75" />
<rect x="363.7683397683398" y="451.83952232419057" width="2" height="18.160477675809446" fill="#8aa6c1" opacity="0.75" />
<rect x="367.04247104247105" y="457.51605786416445" width="2" height="12.483942135835568" fill="#8aa6c1" opacity="0.75" />
<rect x="370.3166023166023" y="455.60565537567885" width="2" height="14.394344624321164" fill="#8aa6c1" opacity="0.75" />
<rect x="373.5907335907336" y="452.9382776517495" width="2" height="17.0617223482505" fill="#8aa6c1" opacity="0.75" />
<rect x="376.86486486486484" y="451.51412232762766" width="2" height="18.48587767237231" fill="#8aa6c1" opacity="0.75" />
<rect x="380.13899613899616" y="454.95190159483053" width="2" height="15.04809840516945" fill="#8aa6c1" opacity="0.75" />
<rect x="383.4131274131274" y="456.1928683749227" width="2" height="13.807131625077334" fill="#8aa6c1" opacity="0.75" />
<rect x="386.6872586872587" y="462.2735894858046" width="2" height="7.726410514195367" fill="#8aa6c1" opacity="0.75" />
<rect x="389.96138996138995" y="457.13007836667356" width="2" height="12.86992163332646" fill="#8aa6c1" opacity="0.75" />
<rect x="393.2355212355212" y="459.4938067127243" width="2" height="10.506193287275726" fill="#8aa6c1" opacity="0.75" />
<rect x="396.5096525096525" y="451.40988047363714" width="2" height="18.590119526362827" fill="#8aa6c1" opacity="0.75" />
<rect x="399.7837837837838" y="458.0139590637245" width="2" height="11.98604093627552" fill="#8aa6c1" opacity="0.75" />
<rect x="403.05791505791507" y="457.8579453667423" width="2" height="12.142054633257716" fill="#8aa6c1" opacity="0.75" />
<rect x="406.33204633204633" y="458.20316259366194" width="2" height="11.796837406338076" fill="#8aa6c1" opacity="0.75" />
<rect x="409.6061776061776" y="462.1074255001031" width="2" height="7.892574499896885" fill="#8aa6c1" opacity="0.75" />
<rect x="412.88030888030886" y="450.7970500790541" width="2" height="19.2029499209459" fill="#8aa6c1" opacity="0.75" />
<rect x="416.1544401544402" y="456.75134907541076" width="2" height="13.248650924589262" fill="#8aa6c1" opacity="0.75" />
<rect x="419.42857142857144" y="458.5886587440709" width="2" height="11.411341255929058" fill="#8aa6c1" opacity="0.75" />
<rect x="422.7027027027027" y="457.25698382828074" width="2" height="12.743016171719255" fill="#8aa6c1" opacity="0.75" />
<rect x="425.976833976834" y="458.88000962397746" width="2" height="11.119990376022548" fill="#8aa6c1" opacity="0.75" />
<rect x="429.25096525096524" y="456.827610503884" width="2" height="13.172389496116038" fill="#8aa6c1" opacity="0.75" />
<rect x="432.5250965250965" y="454.6545357290163" width="2" height="15.345464270983708" fill="#8aa6c1" opacity="0.75" />
<rect x="435.7992277992278" y="431.95730863751976" width="2" height="38.042691362480234" fill="#8aa6c1" opacity="0.75" />
<rect x="439.0733590733591" y="460.8899816113288" width="2" height="9.110018388671204" fill="#8aa6c1" opacity="0.75" />
<rect x="442.34749034749035" y="462.114138654018" width="2" height="7.88586134598199" fill="#8aa6c1" opacity="0.75" />
<rect x="445.6216216216216" y="466.8550753591806" width="2" height="3.144924640819413" fill="#8aa6c1" opacity="0.75" />
<rect x="448.8957528957529" y="465.25127603629613" width="2" height="4.748723963703856" fill="#8aa6c1" opacity="0.75" />
<rect x="452.16988416988414" y="464.1496743314773" width="2" height="5.85032566852272" fill="#8aa6c1" opacity="0.75" />
<rect x="455.44401544401546" y="462.511074018698" width="2" height="7.488925981301987" fill="#8aa6c1" opacity="0.75" />
<rect x="458.7181467181467" y="461.621124630508" width="2" height="8.378875369491992" fill="#8aa6c1" opacity="0.75" />
<rect x="461.992277992278" y="456.26671306798653" width="2" height="13.733286932013474" fill="#8aa6c1" opacity="0.75" />
<rect x="465.26640926640925" y="456.43926797621504" width="2" height="13.560732023784972" fill="#8aa6c1" opacity="0.75" />
<rect x="468.5405405405405" y="457.62754992438306" width="2" height="12.372450075616966" fill="#8aa6c1" opacity="0.75" />
<rect x="471.81467181467184" y="456.2706872551041" width="2" height="13.729312744895855" fill="#8aa6c1" opacity="0.75" />
<rect x="475.0888030888031" y="460.245733656424" width="2" height="9.754266343575994" fill="#8aa6c1" opacity="0.75" />
<rect x="478.36293436293437" y="460.06936567677184" width="2" height="9.930634323228157" fill="#8aa6c1" opacity="0.75" />
<rect x="481.63706563706563" y="457.368583298962" width="2" height="12.631416701038015" fill="#8aa6c1" opacity="0.75" />
<rect x="484.9111969111969" y="454.6694120780917" width="2" height="15.330587921908299" fill="#8aa6c1" opacity="0.75" />
<rect x="488.18532818532816" y="454.8635564893105" width="2" height="15.13644351068949" fill="#8aa6c1" opacity="0.75" />
<rect x="491.4594594594595" y="457.52653038427167" width="2" height="12.473469615728328" fill="#8aa6c1" opacity="0.75" />
<rect x="494.73359073359075" y="451.607730545817" width="2" height="18.392269454182994" fill="#8aa6c1" opacity="0.75" />
<rect x="498.007722007722" y="455.96682305630026" width="2" height="14.033176943699733" fill="#8aa6c1" opacity="0.75" />
<rect x="501.2818532818533" y="449.60248461882173" width="2" height="20.39751538117825" fill="#8aa6c1" opacity="0.75" />
<rect x="504.55598455598454" y="456.38604609197773" width="2" height="13.613953908022273" fill="#8aa6c1" opacity="0.75" />
<rect x="507.83011583011586" y="449.5919046882519" width="2" height="20.408095311748127" fill="#8aa6c1" opacity="0.75" />
<rect x="511.1042471042471" y="454.2690932838386" width="2" height="15.730906716161408" fill="#8aa6c1" opacity="0.75" />
<rect x="514.3783783783783" y="454.31060742764834" width="2" height="15.689392572351688" fill="#8aa6c1" opacity="0.75" />
<rect x="517.6525096525097" y="450.1959811301299" width="2" height="19.804018869870077" fill="#8aa6c1" opacity="0.75" />
<rect x="520.9266409266409" y="400.79796306798653" width="2" height="69.20203693201347" fill="#8aa6c1" opacity="0.75" />
<rect x="524.2007722007722" y="438.546564583763" width="2" height="31.453435416237024" fill="#8aa6c1" opacity="0.75" />
<rect x="527.4749034749035" y="447.32570504227675" width="2" height="22.674294957723244" fill="#8aa6c1" opacity="0.75" />
<rect x="530.7490347490348" y="437.01204500928026" width="2" height="32.987954990719736" fill="#8aa6c1" opacity="0.75" />
<rect x="534.023166023166" y="445.8259864576889" width="2" height="24.17401354231113" fill="#8aa6c1" opacity="0.75" />
<rect x="537.2972972972973" y="434.39923180037124" width="2" height="35.60076819962879" fill="#8aa6c1" opacity="0.75" />
<rect x="540.5714285714286" y="441.25948434385094" width="2" height="28.740515656149036" fill="#8aa6c1" opacity="0.75" />
<rect x="543.8455598455598" y="445.57459226988385" width="2" height="24.425407730116174" fill="#8aa6c1" opacity="0.75" />
<rect x="547.1196911196912" y="445.908961040077" width="2" height="24.091038959923008" fill="#8aa6c1" opacity="0.75" />
<rect x="550.3938223938223" y="447.1801101601705" width="2" height="22.819889839829518" fill="#8aa6c1" opacity="0.75" />
<rect x="553.6679536679537" y="448.08697669622603" width="2" height="21.913023303773972" fill="#8aa6c1" opacity="0.75" />
<rect x="556.9420849420849" y="451.691027359593" width="2" height="18.308972640406957" fill="#8aa6c1" opacity="0.75" />
<rect x="560.2162162162163" y="452.7720062555853" width="2" height="17.227993744414654" fill="#8aa6c1" opacity="0.75" />
<rect x="563.4903474903475" y="457.5278193098233" width="2" height="12.47218069017667" fill="#8aa6c1" opacity="0.75" />
<rect x="566.7644787644788" y="454.83686498934486" width="2" height="15.163135010655118" fill="#8aa6c1" opacity="0.75" />
<rect x="570.03861003861" y="451.7320581563209" width="2" height="18.267941843679107" fill="#8aa6c1" opacity="0.75" />
<rect x="573.3127413127413" y="446.7787709665223" width="2" height="23.22122903347769" fill="#8aa6c1" opacity="0.75" />
<rect x="576.5868725868726" y="451.8021434831924" width="2" height="18.19785651680759" fill="#8aa6c1" opacity="0.75" />
<rect x="579.8610038610038" y="446.57082431085445" width="2" height="23.429175689145527" fill="#8aa6c1" opacity="0.75" />
<rect x="583.1351351351351" y="451.5222318175569" width="2" height="18.477768182443118" fill="#8aa6c1" opacity="0.75" />
<rect x="586.4092664092664" y="442.4131264178181" width="2" height="27.58687358218189" fill="#8aa6c1" opacity="0.75" />
<rect x="589.6833976833976" y="450.94812289475493" width="2" height="19.05187710524507" fill="#8aa6c1" opacity="0.75" />
<rect x="592.957528957529" y="449.48503127792674" width="2" height="20.514968722073277" fill="#8aa6c1" opacity="0.75" />
<rect x="596.2316602316603" y="450.7692307692308" width="2" height="19.230769230769234" fill="#8aa6c1" opacity="0.75" />
<rect x="599.5057915057915" y="449.05426161751564" width="2" height="20.94573838248436" fill="#8aa6c1" opacity="0.75" />
<rect x="602.7799227799228" y="453.28483750945213" width="2" height="16.71516249054788" fill="#8aa6c1" opacity="0.75" />
<rect x="606.0540540540541" y="453.81759340413834" width="2" height="16.18240659586169" fill="#8aa6c1" opacity="0.75" />
<rect x="609.3281853281853" y="452.97200453701794" width="2" height="17.027995462982055" fill="#8aa6c1" opacity="0.75" />
<rect x="612.6023166023166" y="456.2986676806214" width="2" height="13.701332319378565" fill="#8aa6c1" opacity="0.75" />
<rect x="615.8764478764479" y="455.35785943837215" width="2" height="14.642140561627828" fill="#8aa6c1" opacity="0.75" />
<rect x="619.1505791505791" y="455.5812194954286" width="2" height="14.418780504571387" fill="#8aa6c1" opacity="0.75" />
<rect x="622.4247104247104" y="455.1055522616347" width="2" height="14.8944477383653" fill="#8aa6c1" opacity="0.75" />
<rect x="625.6988416988416" y="455.91403081391354" width="2" height="14.085969186086478" fill="#8aa6c1" opacity="0.75" />
<rect x="628.972972972973" y="456.08578014367225" width="2" height="13.914219856327763" fill="#8aa6c1" opacity="0.75" />
<rect x="632.2471042471043" y="456.49914930913593" width="2" height="13.500850690864096" fill="#8aa6c1" opacity="0.75" />
<rect x="635.5212355212356" y="442.68917130679864" width="2" height="27.31082869320135" fill="#8aa6c1" opacity="0.75" />
<rect x="638.7953667953668" y="454.06023363923833" width="2" height="15.93976636076167" fill="#8aa6c1" opacity="0.75" />
<rect x="642.0694980694981" y="447.0498212689902" width="2" height="22.950178731009828" fill="#8aa6c1" opacity="0.75" />
<rect x="645.3436293436293" y="453.25406441190626" width="2" height="16.745935588093765" fill="#8aa6c1" opacity="0.75" />
<rect x="648.6177606177606" y="450.2168187598818" width="2" height="19.783181240118235" fill="#8aa6c1" opacity="0.75" />
<rect x="651.8918918918919" y="449.6546323984327" width="2" height="20.345367601567332" fill="#8aa6c1" opacity="0.75" />
<rect x="655.1660231660231" y="445.9416675259504" width="2" height="24.05833247404963" fill="#8aa6c1" opacity="0.75" />
<rect x="658.4401544401544" y="445.7013903210284" width="2" height="24.29860967897161" fill="#8aa6c1" opacity="0.75" />
<rect x="661.7142857142857" y="454.2014246923764" width="2" height="15.798575307623567" fill="#8aa6c1" opacity="0.75" />
<rect x="664.988416988417" y="457.05752259916136" width="2" height="12.942477400838662" fill="#8aa6c1" opacity="0.75" />
<rect x="668.2625482625483" y="461.3284311198185" width="2" height="8.67156888018148" fill="#8aa6c1" opacity="0.75" />
<rect x="671.5366795366796" y="458.4838261325359" width="2" height="11.516173867464081" fill="#8aa6c1" opacity="0.75" />
<rect x="674.8108108108108" y="452.2424726747783" width="2" height="17.757527325221695" fill="#8aa6c1" opacity="0.75" />
<rect x="678.0849420849421" y="453.6546517323159" width="2" height="16.34534826768406" fill="#8aa6c1" opacity="0.75" />
<rect x="681.3590733590734" y="454.90286871863617" width="2" height="15.097131281363854" fill="#8aa6c1" opacity="0.75" />
<rect x="684.6332046332046" y="450.80263542311127" width="2" height="19.197364576888706" fill="#8aa6c1" opacity="0.75" />
<rect x="687.9073359073359" y="449.85812151990103" width="2" height="20.141878480098992" fill="#8aa6c1" opacity="0.75" />
<rect x="691.1814671814672" y="445.7985967897161" width="2" height="24.201403210283907" fill="#8aa6c1" opacity="0.75" />
<rect x="694.4555984555984" y="447.635852753145" width="2" height="22.36414724685502" fill="#8aa6c1" opacity="0.75" />
<rect x="697.7297297297297" y="443.91633584244175" width="2" height="26.08366415755826" fill="#8aa6c1" opacity="0.75" />
<rect x="701.003861003861" y="455.18691568708323" width="2" height="14.813084312916752" fill="#8aa6c1" opacity="0.75" />
<rect x="704.2779922779923" y="452.78827894067507" width="2" height="17.211721059324947" fill="#8aa6c1" opacity="0.75" />
<rect x="707.5521235521236" y="454.2223697325909" width="2" height="15.777630267409087" fill="#8aa6c1" opacity="0.75" />
<rect x="710.8262548262549" y="449.42659998625146" width="2" height="20.57340001374854" fill="#8aa6c1" opacity="0.75" />
<rect x="714.1003861003861" y="455.25393981576957" width="2" height="14.746060184230425" fill="#8aa6c1" opacity="0.75" />
<rect x="717.3745173745174" y="453.4226451330171" width="2" height="16.577354866982883" fill="#8aa6c1" opacity="0.75" />
<rect x="720.6486486486486" y="453.653147985839" width="2" height="16.346852014160994" fill="#8aa6c1" opacity="0.75" />
<rect x="723.9227799227799" y="449.4371799168213" width="2" height="20.56282008317866" fill="#8aa6c1" opacity="0.75" />
<rect x="727.1969111969112" y="431.9179427029628" width="2" height="38.08205729703719" fill="#8aa6c1" opacity="0.75" />
<rect x="730.4710424710424" y="453.15138000962395" width="2" height="16.848619990376022" fill="#8aa6c1" opacity="0.75" />
<rect x="733.7451737451737" y="454.9268212518045" width="2" height="15.073178748195504" fill="#8aa6c1" opacity="0.75" />
<rect x="737.019305019305" y="456.19727220389086" width="2" height="13.802727796109163" fill="#8aa6c1" opacity="0.75" />
<rect x="740.2934362934363" y="453.7348873479068" width="2" height="16.265112652093215" fill="#8aa6c1" opacity="0.75" />
<rect x="743.5675675675676" y="451.2341032515295" width="2" height="18.765896748470475" fill="#8aa6c1" opacity="0.75" />
<rect x="746.8416988416989" y="452.0711529868701" width="2" height="17.928847013129857" fill="#8aa6c1" opacity="0.75" />
<rect x="750.1158301158301" y="450.84984232144086" width="2" height="19.150157678559154" fill="#8aa6c1" opacity="0.75" />
<rect x="753.3899613899614" y="449.272895614216" width="2" height="20.72710438578401" fill="#8aa6c1" opacity="0.75" />
<rect x="756.6640926640927" y="454.0672153193098" width="2" height="15.932784680690176" fill="#8aa6c1" opacity="0.75" />
<rect x="759.9382239382239" y="455.4579659895511" width="2" height="14.54203401044889" fill="#8aa6c1" opacity="0.75" />
<rect x="763.2123552123552" y="442.7332095964804" width="2" height="27.266790403519625" fill="#8aa6c1" opacity="0.75" />
<rect x="766.4864864864865" y="452.5113747679934" width="2" height="17.488625232006598" fill="#8aa6c1" opacity="0.75" />
<rect x="769.7606177606177" y="452.26723078641646" width="2" height="17.73276921358356" fill="#8aa6c1" opacity="0.75" />
<rect x="773.034749034749" y="455.0355743452258" width="2" height="14.96442565477418" fill="#8aa6c1" opacity="0.75" />
<rect x="776.3088803088804" y="453.1400482058156" width="2" height="16.85995179418437" fill="#8aa6c1" opacity="0.75" />
<rect x="779.5830115830116" y="457.97523759194337" width="2" height="12.024762408056644" fill="#8aa6c1" opacity="0.75" />
<rect x="782.8571428571429" y="453.67468378359797" width="2" height="16.32531621640201" fill="#8aa6c1" opacity="0.75" />
<rect x="786.1312741312742" y="454.4783825702894" width="2" height="15.521617429710593" fill="#8aa6c1" opacity="0.75" />
<rect x="789.4054054054054" y="444.62400967553447" width="2" height="25.375990324465526" fill="#8aa6c1" opacity="0.75" />
<rect x="792.6795366795367" y="427.22142022410117" width="2" height="42.77857977589881" fill="#8aa6c1" opacity="0.75" />
<rect x="795.953667953668" y="441.19847520107237" width="2" height="28.801524798927613" fill="#8aa6c1" opacity="0.75" />
<rect x="799.2277992277992" y="450.1093008867808" width="2" height="19.89069911321922" fill="#8aa6c1" opacity="0.75" />
<rect x="802.5019305019305" y="449.0350888499347" width="2" height="20.964911150065305" fill="#8aa6c1" opacity="0.75" />
<rect x="805.7760617760617" y="455.5535613012992" width="2" height="14.446438698700764" fill="#8aa6c1" opacity="0.75" />
<rect x="809.050193050193" y="451.3201390321028" width="2" height="18.67986096789716" fill="#8aa6c1" opacity="0.75" />
<rect x="812.3243243243244" y="452.7677635423111" width="2" height="17.23223645768887" fill="#8aa6c1" opacity="0.75" />
<rect x="815.5984555984556" y="451.03276233931393" width="2" height="18.967237660686052" fill="#8aa6c1" opacity="0.75" />
<rect x="818.8725868725869" y="452.5049838454664" width="2" height="17.49501615453358" fill="#8aa6c1" opacity="0.75" />
<rect x="822.1467181467182" y="444.6381878566027" width="2" height="25.361812143397266" fill="#8aa6c1" opacity="0.75" />
<rect x="825.4208494208494" y="451.27524145872" width="2" height="18.72475854127999" fill="#8aa6c1" opacity="0.75" />
<rect x="828.6949806949807" y="452.67125524163055" width="2" height="17.328744758369425" fill="#8aa6c1" opacity="0.75" />
<rect x="831.969111969112" y="453.079200178731" width="2" height="16.92079982126899" fill="#8aa6c1" opacity="0.75" />
<rect x="835.2432432432432" y="447.4503548841686" width="2" height="22.549645115831442" fill="#8aa6c1" opacity="0.75" />
<rect x="838.5173745173745" y="437.93035075960677" width="2" height="32.06964924039321" fill="#8aa6c1" opacity="0.75" />
<rect x="841.7915057915058" y="445.7407562555853" width="2" height="24.259243744414654" fill="#8aa6c1" opacity="0.75" />
<rect x="845.065637065637" y="448.1701123943081" width="2" height="21.829887605691894" fill="#8aa6c1" opacity="0.75" />
<rect x="848.3397683397683" y="446.0958552450677" width="2" height="23.90414475493229" fill="#8aa6c1" opacity="0.75" />
<rect x="851.6138996138997" y="434.45841496528493" width="2" height="35.54158503471506" fill="#8aa6c1" opacity="0.75" />
<rect x="854.8880308880309" y="370.0" width="2" height="100.0" fill="#8aa6c1" opacity="0.75" />
<rect x="858.1621621621622" y="442.48686370041935" width="2" height="27.51313629958067" fill="#8aa6c1" opacity="0.75" />
<rect x="861.4362934362935" y="445.86180784697876" width="2" height="24.138192153021244" fill="#8aa6c1" opacity="0.75" />
<rect x="864.7104247104247" y="444.18615092458924" width="2" height="25.81384907541074" fill="#8aa6c1" opacity="0.75" />
<rect x="867.984555984556" y="447.3745768027772" width="2" height="22.625423197222794" fill="#8aa6c1" opacity="0.75" />
<rect x="871.2586872586872" y="451.6196531071699" width="2" height="18.380346892830136" fill="#8aa6c1" opacity="0.75" />
<rect x="874.5328185328185" y="454.2657098542655" width="2" height="15.734290145734517" fill="#8aa6c1" opacity="0.75" />
<rect x="877.8069498069498" y="456.0858875541349" width="2" height="13.914112445865126" fill="#8aa6c1" opacity="0.75" />
<rect x="881.081081081081" y="453.306695538599" width="2" height="16.693304461400977" fill="#8aa6c1" opacity="0.75" />
<rect x="884.3552123552123" y="456.76456056231524" width="2" height="13.235439437684745" fill="#8aa6c1" opacity="0.75" />
<rect x="887.6293436293437" y="454.4711860692926" width="2" height="15.528813930707363" fill="#8aa6c1" opacity="0.75" />
<rect x="890.903474903475" y="455.03562805045715" width="2" height="14.964371949542862" fill="#8aa6c1" opacity="0.75" />
<rect x="894.1776061776062" y="450.5298665532412" width="2" height="19.47013344675878" fill="#8aa6c1" opacity="0.75" />
<rect x="897.4517374517375" y="450.10360813226094" width="2" height="19.89639186773905" fill="#8aa6c1" opacity="0.75" />
<rect x="900.7258687258687" y="452.2505284594762" width="2" height="17.74947154052382" fill="#8aa6c1" opacity="0.75" />
<rect x="904.0" y="455.03595028184503" width="2" height="14.964049718154945" fill="#8aa6c1" opacity="0.75" />
</svg>