<svg xmlns="http://www.w3.org/2000/svg" width="960" height="520" viewBox="0 0 960 520"><rect width="100%" height="100%" fill="white" />
<text x="56.00" y="32.00" font-size="20" font-family="Arial" fill="#1f2933" text-anchor="start">ORCL Price / Volume</text>
<line x1="56" y1="244" x2="904" y2="244" stroke="#cbd2d9" />
<line x1="56" y1="56" x2="56" y2="244" stroke="#cbd2d9" />
<text x="16.00" y="38.00" font-size="12" font-family="Arial" fill="#52606d" text-anchor="start">Price</text>
<line x1="56" y1="244.00" x2="904" y2="244.00" stroke="#edf2f7" />
<line x1="52" y1="244.00" x2="56" y2="244.00" stroke="#9fb3c8" />
<text x="48.00" y="248.00" font-size="11" font-family="Arial" fill="#52606d" text-anchor="end">120</text>
<line x1="56" y1="197.00" x2="904" y2="197.00" stroke="#edf2f7" />
<line x1="52" y1="197.00" x2="56" y2="197.00" stroke="#9fb3c8" />
<text x="48.00" y="201.00" font-size="11" font-family="Arial" fill="#52606d" text-anchor="end">174</text>
<line x1="56" y1="150.00" x2="904" y2="150.00" stroke="#edf2f7" />
<line x1="52" y1="150.00" x2="56" y2="150.00" stroke="#9fb3c8" />
<text x="48.00" y="154.00" font-size="11" font-family="Arial" fill="#52606d" text-anchor="end">228</text>
<line x1="56" y1="103.00" x2="904" y2="103.00" stroke="#edf2f7" />
<line x1="52" y1="103.00" x2="56" y2="103.00" stroke="#9fb3c8" />
<text x="48.00" y="107.00" font-size="11" font-family="Arial" fill="#52606d" text-anchor="end">282</text>
<line x1="56" y1="56.00" x2="904" y2="56.00" stroke="#edf2f7" />
<line x1="52" y1="56.00" x2="56" y2="56.00" stroke="#9fb3c8" />
<text x="48.00" y="60.00" font-size="11" font-family="Arial" fill="#52606d" text-anchor="end">336</text>
<polyline fill="none" stroke="#1f77b4" stroke-width="2" points="56.00,160.76 59.27,160.48 62.55,151.02 65.82,144.73 69.10,149.07 72.37,147.15 75.64,146.02 78.92,146.29 82.19,150.11 85.47,151.21 88.74,146.33 92.02,140.88 95.29,134.47 98.56,137.31 101.84,138.95 105.11,143.62 108.39,140.36 111.66,139.56 114.93,137.59 118.21,135.37 121.48,133.42 124.76,132.88 128.03,130.16 131.31,138.19 134.58,131.22 137.85,128.52 141.13,127.87 144.40,133.92 147.68,133.35 150.95,131.09 154.22,130.08 157.50,138.40 160.77,137.73 164.05,134.88 167.32,134.20 170.59,146.62 173.87,146.24 177.14,147.87 180.42,145.11 183.69,145.94 186.97,146.97 190.24,145.59 193.51,141.72 196.79,153.91 200.06,154.63 203.34,156.22 206.61,156.61 209.88,148.18 213.16,143.30 216.43,140.70 219.71,66.07 222.98,83.67 226.25,97.14 229.53,88.58 232.80,84.71 236.08,89.21 239.35,93.33 242.63,82.98 245.90,66.23 249.17,78.53 252.45,83.15 255.72,97.87 259.00,104.64 262.27,105.24 265.54,106.55 268.82,99.87 272.09,100.07 275.37,102.33 278.64,97.65 281.92,103.97 285.19,100.19 288.46,92.59 291.74,96.04 295.01,83.08 298.29,90.84 301.56,86.86 304.83,78.78 308.11,97.46 311.38,109.62 314.66,111.37 317.93,113.51 321.20,107.13 324.48,104.33 327.75,105.99 331.03,106.48 334.30,111.24 337.58,127.09 340.85,122.17 344.12,126.27 347.40,134.60 350.67,132.76 353.95,138.36 357.22,142.27 360.49,140.92 363.77,144.95 367.04,152.84 370.32,160.95 373.59,156.40 376.86,158.98 380.14,158.43 383.41,154.09 386.69,166.87 389.96,177.14 393.24,175.83 396.51,178.63 399.78,171.81 403.06,174.40 406.33,175.27 409.61,175.13 412.88,169.42 416.15,163.74 419.43,160.94 422.70,158.39 425.98,157.54 429.25,156.26 432.53,177.07 435.80,184.71 439.07,189.06 442.35,185.85 445.62,194.62 448.90,193.27 452.17,182.99 455.44,177.47 458.72,180.09 461.99,178.24 465.27,177.81 468.54,180.05 471.81,178.48 475.09,180.46 478.36,179.77 481.64,182.46 484.91,181.46 488.19,182.24 491.46,184.99 494.73,176.90 498.01,171.58 501.28,173.64 504.56,181.14 507.83,184.38 511.10,183.31 514.38,192.96 517.65,198.17 520.93,194.46 524.20,195.34 527.47,190.78 530.75,197.29 534.02,199.10 537.30,202.37 540.57,206.20 543.85,210.10 547.12,214.75 550.39,221.66 553.67,230.46 556.94,224.98 560.22,213.10 563.49,210.25 566.76,212.60 570.04,213.19 573.31,210.03 576.59,215.36 579.86,213.46 583.14,213.14 586.41,220.44 589.68,226.29 592.96,222.12 596.23,220.61 599.51,218.52 602.78,222.76 606.05,219.43 609.33,219.64 612.60,216.74 615.88,214.65 619.15,216.23 622.42,217.44 625.70,219.30 628.97,207.46 632.25,210.88 635.52,214.37 638.80,213.63 642.07,214.74 645.34,216.28 648.62,214.02 651.89,219.06 655.17,215.04 658.44,221.30 661.71,222.22 664.99,224.99 668.26,227.71 671.54,228.45 674.81,221.28 678.08,222.90 681.36,221.91 684.63,222.64 687.91,224.68 691.18,224.26 694.46,228.85 697.73,228.65 701.00,213.46 704.28,207.07 707.55,201.17 710.83,193.78 714.10,196.62 717.37,194.44 720.65,191.33 723.92,185.85 727.20,195.57 730.47,198.17 733.75,198.44 737.02,204.51 740.29,206.35 743.57,208.47 746.84,199.42 750.12,192.09 753.39,187.71 756.66,180.19 759.94,179.70 763.21,178.53 766.49,180.35 769.76,186.43 773.03,183.89 776.31,178.82 779.58,181.13 782.86,186.62 786.13,191.08 789.41,185.27 792.68,183.88 795.95,181.88 799.23,181.03 802.50,182.85 805.78,171.81 809.05,152.68 812.32,133.30 815.60,136.40 818.87,148.74 822.15,143.54 825.42,163.17 828.69,164.78 831.97,169.98 835.24,173.93 838.52,188.79 841.79,188.77 845.07,181.39 848.34,185.13 851.61,189.29 854.89,188.63 858.16,196.61 861.44,205.20 864.71,211.81 867.98,216.20 871.26,219.61 874.53,220.27 877.81,221.32 881.08,224.83 884.36,226.76 887.63,223.74 890.90,225.61 894.18,226.57 897.45,223.34 900.73,226.02 904.00,233.93" />
<line x1="56" y1="470" x2="904" y2="470" stroke="#cbd2d9" />
<line x1="56" y1="370" x2="56" y2="470" stroke="#cbd2d9" />
<text x="16.00" y="362.00" font-size="12" font-family="Arial" fill="#52606d" text-anchor="start">Volume</text>
<line x1="56" y1="470.00" x2="904" y2="470.00" stroke="#edf2f7" />
<line x1="52" y1="470.00" x2="56" y2="470.00" stroke="#9fb3c8" />
<text x="48.00" y="474.00" font-size="11" font-family="Arial" fill="#52606d" text-anchor="end">0</text>
<line x1="56" y1="420.00" x2="904" y2="420.00" stroke="#edf2f7" />
<line x1="52" y1="420.00" x2="56" y2="420.00" stroke="#9fb3c8" />
<text x="48.00" y="424.00" font-size="11" font-family="Arial" fill="#52606d" text-anchor="end">65.8M</text>
<line x1="56" y1="370.00" x2="904" y2="370.00" stroke="#edf2f7" />
<line x1="52" y1="370.00" x2="56" y2="370.00" stroke="#9fb3c8" />
<text x="48.00" y="374.00" font-size="11" font-family="Arial" fill="#52606d" text-anchor="end">131.6M</text>
<line x1="56.00" y1="470" x2="56.00" y2="474" stroke="#9fb3c8" />
<text x="56.00" y="488.00" font-size="11" font-family="Arial" fill="#52606d" text-anchor="middle">06/30</text>
<line x1="226.25" y1="470" x2="226.25" y2="474" stroke="#9fb3c8" />
<text x="226.25" y="488.00" font-size="11" font-family="Arial" fill="#52606d" text-anchor="middle">09/12</text>
<line x1="396.51" y1="470" x2="396.51" y2="474" stroke="#9fb3c8" />
<text x="396.51" y="488.00" font-size="11" font-family="Arial" fill="#52606d" text-anchor="middle">11/25</text>
<line x1="563.49" y1="470" x2="563.49" y2="474" stroke="#9fb3c8" />
<text x="563.49" y="488.00" font-size="11" font-family="Arial" fill="#52606d" text-anchor="middle">02/10</text>
<line x1="733.75" y1="470" x2="733.75" y2="474" stroke="#9fb3c8" />
<text x="733.75" y="488.00" font-size="11" font-family="Arial" fill="#52606d" text-anchor="middle">04/27</text>
<line x1="904.00" y1="470" x2="904.00" y2="474" stroke="#9fb3c8" />
<text x="904.00" y="488.00" font-size="11" font-family="Arial" fill="#52606d" text-anchor="middle">07/13</text>
<rect x="56.0" y="445.8056072834967" width="2" height="24.194392716503277" fill="#8aa6c1" opacity="0.75" />
<rect x="59.27413127413127" y="457.11256278581743" width="2" height="12.887437214182548" fill="#8aa6c1" opacity="0.75" />
<rect x="62.54826254826255" y="453.0366036282244" width="2" height="16.963396371775612" fill="#8aa6c1" opacity="0.75" />
<rect x="65.82239382239382" y="455.9887052008804" width="2" height="14.011294799119575" fill="#8aa6c1" opacity="0.75" />
<rect x="69.0965250965251" y="457.3996813508173" width="2" height="12.600318649182748" fill="#8aa6c1" opacity="0.75" />
<rect x="72.37065637065638" y="454.4992444048349" width="2" height="15.500755595165103" fill="#8aa6c1" opacity="0.75" />
<rect x="75.64478764478764" y="461.74004183315213" width="2" height="8.259958166847872" fill="#8aa6c1" opacity="0.75" />
<rect x="78.91891891891892" y="461.27300880350043" width="2" height="8.72699119649957" fill="#8aa6c1" opacity="0.75" />
<rect x="82.1930501930502" y="462.24407585278925" width="2" height="7.755924147210756" fill="#8aa6c1" opacity="0.75" />
<rect x="85.46718146718146" y="461.38644305000605" width="2" height="8.61355694999396" fill="#8aa6c1" opacity="0.75" />
<rect x="88.74131274131274" y="461.84853754916685" width="2" height="8.15146245083313" fill="#8aa6c1" opacity="0.75" />
<rect x="92.01544401544402" y="460.42874802173867" width="2" height="9.571251978261348" fill="#8aa6c1" opacity="0.75" />
<rect x="95.28957528957528" y="456.6041980548268" width="2" height="13.395801945173194" fill="#8aa6c1" opacity="0.75" />
<rect x="98.56370656370656" y="462.6468320086675" width="2" height="7.353167991332499" fill="#8aa6c1" opacity="0.75" />
<rect x="101.83783783783784" y="464.41687731398645" width="2" height="5.583122686013549" fill="#8aa6c1" opacity="0.75" />
<rect x="105.1119691119691" y="461.35308897484464" width="2" height="8.646911025155354" fill="#8aa6c1" opacity="0.75" />
<rect x="108.3861003861004" y="464.4872323791333" width="2" height="5.512767620866735" fill="#8aa6c1" opacity="0.75" />
<rect x="111.66023166023166" y="463.7410584106593" width="2" height="6.258941589340676" fill="#8aa6c1" opacity="0.75" />
<rect x="114.93436293436294" y="464.5679203696148" width="2" height="5.432079630385182" fill="#8aa6c1" opacity="0.75" />
<rect x="118.20849420849422" y="464.86635956604755" width="2" height="5.133640433952473" fill="#8aa6c1" opacity="0.75" />
<rect x="121.48262548262548" y="463.6062745169547" width="2" height="6.393725483045265" fill="#8aa6c1" opacity="0.75" />
<rect x="124.75675675675676" y="463.5864444175991" width="2" height="6.413555582400901" fill="#8aa6c1" opacity="0.75" />
<rect x="128.03088803088804" y="458.18650322410065" width="2" height="11.813496775899363" fill="#8aa6c1" opacity="0.75" />
<rect x="131.3050193050193" y="460.33704330939287" width="2" height="9.662956690607142" fill="#8aa6c1" opacity="0.75" />
<rect x="134.57915057915056" y="463.4546996195812" width="2" height="6.545300380418803" fill="#8aa6c1" opacity="0.75" />
<rect x="137.85328185328186" y="461.4925834668636" width="2" height="8.5074165331364" fill="#8aa6c1" opacity="0.75" />
<rect x="141.12741312741312" y="462.45529300301405" width="2" height="7.544706996985977" fill="#8aa6c1" opacity="0.75" />
<rect x="144.4015444015444" y="460.9175105855502" width="2" height="9.082489414449837" fill="#8aa6c1" opacity="0.75" />
<rect x="147.67567567567568" y="463.68377145696525" width="2" height="6.316228543034734" fill="#8aa6c1" opacity="0.75" />
<rect x="150.94980694980694" y="463.152841440501" width="2" height="6.847158559499035" fill="#8aa6c1" opacity="0.75" />
<rect x="154.2239382239382" y="462.403476421556" width="2" height="7.596523578443998" fill="#8aa6c1" opacity="0.75" />
<rect x="157.4980694980695" y="459.2248102654574" width="2" height="10.77518973454259" fill="#8aa6c1" opacity="0.75" />
<rect x="160.7722007722008" y="462.18526935125186" width="2" height="7.814730648748158" fill="#8aa6c1" opacity="0.75" />
<rect x="164.04633204633205" y="461.22157210900326" width="2" height="8.778427890996756" fill="#8aa6c1" opacity="0.75" />
<rect x="167.32046332046332" y="464.86400426689033" width="2" height="5.135995733109656" fill="#8aa6c1" opacity="0.75" />
<rect x="170.59459459459458" y="457.22113447922436" width="2" height="12.778865520775637" fill="#8aa6c1" opacity="0.75" />
<rect x="173.86872586872587" y="461.4476808280928" width="2" height="8.552319171907207" fill="#8aa6c1" opacity="0.75" />
<rect x="177.14285714285714" y="464.37531768047097" width="2" height="5.6246823195290006" fill="#8aa6c1" opacity="0.75" />
<rect x="180.41698841698843" y="462.9009763854667" width="2" height="7.099023614533259" fill="#8aa6c1" opacity="0.75" />
<rect x="183.6911196911197" y="465.2068902377409" width="2" height="4.793109762259142" fill="#8aa6c1" opacity="0.75" />
<rect x="186.96525096525096" y="461.0307168998793" width="2" height="8.969283100120728" fill="#8aa6c1" opacity="0.75" />
<rect x="190.23938223938225" y="465.7166985391827" width="2" height="4.283301460817319" fill="#8aa6c1" opacity="0.75" />
<rect x="193.51351351351352" y="463.396424959789" width="2" height="6.603575040211035" fill="#8aa6c1" opacity="0.75" />
<rect x="196.78764478764478" y="457.3736211053039" width="2" height="12.626378894696094" fill="#8aa6c1" opacity="0.75" />
<rect x="200.06177606177607" y="462.0513212088611" width="2" height="7.948678791138909" fill="#8aa6c1" opacity="0.75" />
<rect x="203.33590733590734" y="463.23740427798305" width="2" height="6.762595722016957" fill="#8aa6c1" opacity="0.75" />
<rect x="206.6100386100386" y="462.1719733076226" width="2" height="7.828026692377415" fill="#8aa6c1" opacity="0.75" />
<rect x="209.8841698841699" y="458.3100424637645" width="2" height="11.689957536235518" fill="#8aa6c1" opacity="0.75" />
<rect x="213.15830115830116" y="455.71397095080385" width="2" height="14.286029049196122" fill="#8aa6c1" opacity="0.75" />
<rect x="216.43243243243242" y="438.71349761165067" width="2" height="31.286502388349323" fill="#8aa6c1" opacity="0.75" />
<rect x="219.7065637065637" y="370.0" width="2" height="100.0" fill="#8aa6c1" opacity="0.75" />
<rect x="222.98069498069498" y="416.8264623178727" width="2" height="53.173537682127304" fill="#8aa6c1" opacity="0.75" />
<rect x="226.25482625482624" y="430.65746276537953" width="2" height="39.342537234620465" fill="#8aa6c1" opacity="0.75" />
<rect x="229.52895752895753" y="439.6060040374386" width="2" height="30.393995962561384" fill="#8aa6c1" opacity="0.75" />
<rect x="232.8030888030888" y="430.55003073285513" width="2" height="39.449969267144866" fill="#8aa6c1" opacity="0.75" />
<rect x="236.0772200772201" y="448.94826015570806" width="2" height="21.051739844291934" fill="#8aa6c1" opacity="0.75" />
<rect x="239.35135135135135" y="451.25402205319784" width="2" height="18.74597794680215" fill="#8aa6c1" opacity="0.75" />
<rect x="242.62548262548262" y="439.0193066151236" width="2" height="30.980693384876396" fill="#8aa6c1" opacity="0.75" />
<rect x="245.8996138996139" y="436.2375463557064" width="2" height="33.76245364429361" fill="#8aa6c1" opacity="0.75" />
<rect x="249.17374517374517" y="443.1950240886322" width="2" height="26.804975911367812" fill="#8aa6c1" opacity="0.75" />
<rect x="252.44787644787644" y="444.3460056025729" width="2" height="25.6539943974271" fill="#8aa6c1" opacity="0.75" />
<rect x="255.72200772200773" y="440.15995520372957" width="2" height="29.84004479627042" fill="#8aa6c1" opacity="0.75" />
<rect x="258.996138996139" y="450.252943934003" width="2" height="19.747056065997" fill="#8aa6c1" opacity="0.75" />
<rect x="262.27027027027026" y="450.41416796018177" width="2" height="19.585832039818232" fill="#8aa6c1" opacity="0.75" />
<rect x="265.5444015444016" y="451.85599093133845" width="2" height="18.14400906866153" fill="#8aa6c1" opacity="0.75" />
<rect x="268.81853281853284" y="452.2377773269786" width="2" height="17.762222673021416" fill="#8aa6c1" opacity="0.75" />
<rect x="272.0926640926641" y="457.67988597312984" width="2" height="12.320114026870165" fill="#8aa6c1" opacity="0.75" />
<rect x="275.3667953667954" y="459.5999106505868" width="2" height="10.40008934941319" fill="#8aa6c1" opacity="0.75" />
<rect x="278.64092664092664" y="459.30481445940944" width="2" height="10.695185540590542" fill="#8aa6c1" opacity="0.75" />
<rect x="281.9150579150579" y="445.8973879732347" width="2" height="24.102612026765318" fill="#8aa6c1" opacity="0.75" />
<rect x="285.18918918918916" y="455.5778954414325" width="2" height="14.422104558567552" fill="#8aa6c1" opacity="0.75" />
<rect x="288.46332046332043" y="449.8813385089133" width="2" height="20.118661491086712" fill="#8aa6c1" opacity="0.75" />
<rect x="291.73745173745175" y="448.0461046011149" width="2" height="21.953895398885106" fill="#8aa6c1" opacity="0.75" />
<rect x="295.011583011583" y="453.5100947362103" width="2" height="16.489905263789705" fill="#8aa6c1" opacity="0.75" />
<rect x="298.2857142857143" y="456.8208095998955" width="2" height="13.179190400104545" fill="#8aa6c1" opacity="0.75" />
<rect x="301.5598455598456" y="459.59193302440923" width="2" height="10.408066975590744" fill="#8aa6c1" opacity="0.75" />
<rect x="304.83397683397686" y="445.3066637491348" width="2" height="24.69333625086519" fill="#8aa6c1" opacity="0.75" />
<rect x="308.1081081081081" y="441.3922325272892" width="2" height="28.607767472710822" fill="#8aa6c1" opacity="0.75" />
<rect x="311.3822393822394" y="445.07128578820084" width="2" height="24.92871421179914" fill="#8aa6c1" opacity="0.75" />
<rect x="314.65637065637065" y="456.04234523975043" width="2" height="13.957654760249541" fill="#8aa6c1" opacity="0.75" />
<rect x="317.9305019305019" y="457.48348441437764" width="2" height="12.516515585622342" fill="#8aa6c1" opacity="0.75" />
<rect x="321.2046332046332" y="457.18094243876794" width="2" height="12.81905756123208" fill="#8aa6c1" opacity="0.75" />
<rect x="324.4787644787645" y="459.9748590809319" width="2" height="10.025140919068122" fill="#8aa6c1" opacity="0.75" />
<rect x="327.75289575289577" y="459.4727244960989" width="2" height="10.527275503901059" fill="#8aa6c1" opacity="0.75" />
<rect x="331.02702702702703" y="460.54195433606776" width="2" height="9.458045663932241" fill="#8aa6c1" opacity="0.75" />
<rect x="334.3011583011583" y="456.3186750150625" width="2" height="13.681324984937483" fill="#8aa6c1" opacity="0.75" />
<rect x="337.57528957528956" y="448.7611278388003" width="2" height="21.238872161199712" fill="#8aa6c1" opacity="0.75" />
<rect x="340.8494208494208" y="457.1608084298436" width="2" height="12.839191570156384" fill="#8aa6c1" opacity="0.75" />
<rect x="344.12355212355214" y="458.0645595096723" width="2" height="11.935440490327698" fill="#8aa6c1" opacity="0.75" />
<rect x="347.3976833976834" y="454.9772941563508" width="2" height="15.022705843649165" fill="#8aa6c1" opacity="0.75" />
<rect x="350.6718146718147" y="460.8891710182718" width="2" height="9.110828981728197" fill="#8aa6c1" opacity="0.75" />
<rect x="353.94594594594594" y="455.80871475883635" width="2" height="14.191285241163639" fill="#8aa6c1" opacity="0.75" />
<rect x="357.2200772200772" y="454.0680727042861" width="2" height="15.931927295713887" fill="#8aa6c1" opacity="0.75" />
<rect x="360.4942084942085" y="457.312763214178" width="2" height="12.687236785822012" fill="#8aa6c1" opacity="0.75" />
<rect x="363.7683397683398" y="454.28286079194277" width="2" height="15.717139208057251" fill="#8aa6c1" opacity="0.75" />
<rect x="367.04247104247105" y="451.61726996514915" width="2" height="18.38273003485083" fill="#8aa6c1" opacity="0.75" />
<rect x="370.3166023166023" y="447.1999443845489" width="2" height="22.80005561545107" fill="#8aa6c1" opacity="0.75" />
<rect x="373.5907335907336" y="442.60726298282685" width="2" height="27.392737017173168" fill="#8aa6c1" opacity="0.75" />
<rect x="376.86486486486484" y="457.7343617633137" width="2" height="12.265638236686291" fill="#8aa6c1" opacity="0.75" />
<rect x="380.13899613899616" y="453.9700618683904" width="2" height="16.02993813160956" fill="#8aa6c1" opacity="0.75" />
<rect x="383.4131274131274" y="453.52848126511475" width="2" height="16.471518734885247" fill="#8aa6c1" opacity="0.75" />
<rect x="386.6872586872587" y="449.1369120204592" width="2" height="20.863087979540808" fill="#8aa6c1" opacity="0.75" />
<rect x="389.96138996138995" y="435.93622001837133" width="2" height="34.06377998162867" fill="#8aa6c1" opacity="0.75" />
<rect x="393.2355212355212" y="446.3370691417062" width="2" height="23.662930858293805" fill="#8aa6c1" opacity="0.75" />
<rect x="396.5096525096525" y="447.51449078812107" width="2" height="22.485509211878913" fill="#8aa6c1" opacity="0.75" />
<rect x="399.7837837837838" y="449.83248504574976" width="2" height="20.167514954250212" fill="#8aa6c1" opacity="0.75" />
<rect x="403.05791505791507" y="459.47827084572714" width="2" height="10.521729154272855" fill="#8aa6c1" opacity="0.75" />
<rect x="406.33204633204633" y="459.7725312855907" width="2" height="10.22746871440934" fill="#8aa6c1" opacity="0.75" />
<rect x="409.6061776061776" y="455.05942571728355" width="2" height="14.940574282716435" fill="#8aa6c1" opacity="0.75" />
<rect x="412.88030888030886" y="455.5183291659734" width="2" height="14.481670834026627" fill="#8aa6c1" opacity="0.75" />
<rect x="416.1544401544402" y="452.2844274457692" width="2" height="17.715572554230764" fill="#8aa6c1" opacity="0.75" />
<rect x="419.42857142857144" y="451.60686106242224" width="2" height="18.393138937577735" fill="#8aa6c1" opacity="0.75" />
<rect x="422.7027027027027" y="451.2250746667822" width="2" height="18.774925333217848" fill="#8aa6c1" opacity="0.75" />
<rect x="425.976833976834" y="456.59485283559025" width="2" height="13.405147164409758" fill="#8aa6c1" opacity="0.75" />
<rect x="429.25096525096524" y="433.58555548211075" width="2" height="36.41444451788926" fill="#8aa6c1" opacity="0.75" />
<rect x="432.5250965250965" y="393.55709435100493" width="2" height="76.44290564899508" fill="#8aa6c1" opacity="0.75" />
<rect x="435.7992277992278" y="428.05926388543827" width="2" height="41.94073611456175" fill="#8aa6c1" opacity="0.75" />
<rect x="439.0733590733591" y="436.6478242734092" width="2" height="33.352175726590794" fill="#8aa6c1" opacity="0.75" />
<rect x="442.34749034749035" y="445.35787251145547" width="2" height="24.642127488544507" fill="#8aa6c1" opacity="0.75" />
<rect x="445.6216216216216" y="431.84263410579547" width="2" height="38.15736589420452" fill="#8aa6c1" opacity="0.75" />
<rect x="448.8957528957529" y="442.4222580328997" width="2" height="27.577741967100273" fill="#8aa6c1" opacity="0.75" />
<rect x="452.16988416988414" y="411.49087397553984" width="2" height="58.50912602446016" fill="#8aa6c1" opacity="0.75" />
<rect x="455.44401544401546" y="449.3736575744521" width="2" height="20.626342425547854" fill="#8aa6c1" opacity="0.75" />
<rect x="458.7181467181467" y="456.09492159513013" width="2" height="13.905078404869847" fill="#8aa6c1" opacity="0.75" />
<rect x="461.992277992278" y="462.94724661729657" width="2" height="7.052753382703443" fill="#8aa6c1" opacity="0.75" />
<rect x="465.26640926640925" y="461.44342609413144" width="2" height="8.55657390586857" fill="#8aa6c1" opacity="0.75" />
<rect x="468.5405405405405" y="458.7947782257911" width="2" height="11.205221774208866" fill="#8aa6c1" opacity="0.75" />
<rect x="471.81467181467184" y="459.21318572445585" width="2" height="10.78681427554417" fill="#8aa6c1" opacity="0.75" />
<rect x="475.0888030888031" y="462.1427979890304" width="2" height="7.857202010969616" fill="#8aa6c1" opacity="0.75" />
<rect x="478.36293436293437" y="458.9523553371459" width="2" height="11.047644662854122" fill="#8aa6c1" opacity="0.75" />
<rect x="481.63706563706563" y="452.80213739599645" width="2" height="17.197862604003554" fill="#8aa6c1" opacity="0.75" />
<rect x="484.9111969111969" y="457.4831045274168" width="2" height="12.516895472583178" fill="#8aa6c1" opacity="0.75" />
<rect x="488.18532818532816" y="461.5124135662192" width="2" height="8.487586433780764" fill="#8aa6c1" opacity="0.75" />
<rect x="491.4594594594595" y="455.20834140593126" width="2" height="14.79165859406875" fill="#8aa6c1" opacity="0.75" />
<rect x="494.73359073359075" y="450.12986055869214" width="2" height="19.870139441307842" fill="#8aa6c1" opacity="0.75" />
<rect x="498.007722007722" y="450.6800888327669" width="2" height="19.319911167233077" fill="#8aa6c1" opacity="0.75" />
<rect x="501.2818532818533" y="457.9519610144805" width="2" height="12.048038985519469" fill="#8aa6c1" opacity="0.75" />
<rect x="504.55598455598454" y="452.92544870348377" width="2" height="17.07455129651621" fill="#8aa6c1" opacity="0.75" />
<rect x="507.83011583011586" y="457.5255758896383" width="2" height="12.47442411036172" fill="#8aa6c1" opacity="0.75" />
<rect x="511.1042471042471" y="455.39357428803487" width="2" height="14.606425711965148" fill="#8aa6c1" opacity="0.75" />
<rect x="514.3783783783783" y="447.86816554865936" width="2" height="22.13183445134066" fill="#8aa6c1" opacity="0.75" />
<rect x="517.6525096525097" y="440.9842339313514" width="2" height="29.015766068648613" fill="#8aa6c1" opacity="0.75" />
<rect x="520.9266409266409" y="453.93693572540553" width="2" height="16.063064274594453" fill="#8aa6c1" opacity="0.75" />
<rect x="524.2007722007722" y="452.51661435623214" width="2" height="17.48338564376784" fill="#8aa6c1" opacity="0.75" />
<rect x="527.4749034749035" y="453.96846634315494" width="2" height="16.031533656845067" fill="#8aa6c1" opacity="0.75" />
<rect x="530.7490347490348" y="449.4149132983989" width="2" height="20.58508670160107" fill="#8aa6c1" opacity="0.75" />
<rect x="534.023166023166" y="442.7372603008249" width="2" height="27.262739699175114" fill="#8aa6c1" opacity="0.75" />
<rect x="537.2972972972973" y="441.6950024350754" width="2" height="28.304997564924584" fill="#8aa6c1" opacity="0.75" />
<rect x="540.5714285714286" y="449.2107620456457" width="2" height="20.789237954354302" fill="#8aa6c1" opacity="0.75" />
<rect x="543.8455598455598" y="433.9707608603984" width="2" height="36.02923913960162" fill="#8aa6c1" opacity="0.75" />
<rect x="547.1196911196912" y="437.13210417108286" width="2" height="32.86789582891715" fill="#8aa6c1" opacity="0.75" />
<rect x="550.3938223938223" y="437.84378440351287" width="2" height="32.15621559648711" fill="#8aa6c1" opacity="0.75" />
<rect x="553.6679536679537" y="437.4900336655825" width="2" height="32.50996633441753" fill="#8aa6c1" opacity="0.75" />
<rect x="556.9420849420849" y="447.2353498492988" width="2" height="22.764650150701158" fill="#8aa6c1" opacity="0.75" />
<rect x="560.2162162162163" y="432.0595495604328" width="2" height="37.9404504395672" fill="#8aa6c1" opacity="0.75" />
<rect x="563.4903474903475" y="439.53899197754714" width="2" height="30.46100802245284" fill="#8aa6c1" opacity="0.75" />
<rect x="566.7644787644788" y="451.35598371348624" width="2" height="18.644016286513786" fill="#8aa6c1" opacity="0.75" />
<rect x="570.03861003861" y="452.30836032430193" width="2" height="17.6916396756981" fill="#8aa6c1" opacity="0.75" />
<rect x="573.3127413127413" y="455.87048437866827" width="2" height="14.129515621331718" fill="#8aa6c1" opacity="0.75" />
<rect x="576.5868725868726" y="455.10022557687734" width="2" height="14.899774423122656" fill="#8aa6c1" opacity="0.75" />
<rect x="579.8610038610038" y="458.75451020794253" width="2" height="11.245489792057475" fill="#8aa6c1" opacity="0.75" />
<rect x="583.1351351351351" y="458.6213978168656" width="2" height="11.378602183134387" fill="#8aa6c1" opacity="0.75" />
<rect x="586.4092664092664" y="447.4940528696281" width="2" height="22.505947130371887" fill="#8aa6c1" opacity="0.75" />
<rect x="589.6833976833976" y="445.87732994170256" width="2" height="24.12267005829745" fill="#8aa6c1" opacity="0.75" />
<rect x="592.957528957529" y="453.78900774285603" width="2" height="16.210992257143964" fill="#8aa6c1" opacity="0.75" />
<rect x="596.2316602316603" y="449.2552088200635" width="2" height="20.7447911799365" fill="#8aa6c1" opacity="0.75" />
<rect x="599.5057915057915" y="454.3089970148483" width="2" height="15.691002985151739" fill="#8aa6c1" opacity="0.75" />
<rect x="602.7799227799228" y="442.3250829483179" width="2" height="27.6749170516821" fill="#8aa6c1" opacity="0.75" />
<rect x="606.0540540540541" y="452.9667804048227" width="2" height="17.03321959517726" fill="#8aa6c1" opacity="0.75" />
<rect x="609.3281853281853" y="454.7127408768247" width="2" height="15.287259123175309" fill="#8aa6c1" opacity="0.75" />
<rect x="612.6023166023166" y="456.63907167783157" width="2" height="13.360928322168455" fill="#8aa6c1" opacity="0.75" />
<rect x="615.8764478764479" y="451.69339931210067" width="2" height="18.30660068789931" fill="#8aa6c1" opacity="0.75" />
<rect x="619.1505791505791" y="441.128135112116" width="2" height="28.871864887883962" fill="#8aa6c1" opacity="0.75" />
<rect x="622.4247104247104" y="446.31518765276206" width="2" height="23.684812347237955" fill="#8aa6c1" opacity="0.75" />
<rect x="625.6988416988416" y="430.8377571169923" width="2" height="39.16224288300773" fill="#8aa6c1" opacity="0.75" />
<rect x="628.972972972973" y="406.7507204556212" width="2" height="63.24927954437878" fill="#8aa6c1" opacity="0.75" />
<rect x="632.2471042471043" y="441.7867831248134" width="2" height="28.21321687518662" fill="#8aa6c1" opacity="0.75" />
<rect x="635.5212355212356" y="449.97965325437764" width="2" height="20.020346745622373" fill="#8aa6c1" opacity="0.75" />
<rect x="638.7953667953668" y="453.58303303269076" width="2" height="16.416966967309207" fill="#8aa6c1" opacity="0.75" />
<rect x="642.0694980694981" y="451.81898994135304" width="2" height="18.181010058646947" fill="#8aa6c1" opacity="0.75" />
<rect x="645.3436293436293" y="456.28524496250895" width="2" height="13.714755037491045" fill="#8aa6c1" opacity="0.75" />
<rect x="648.6177606177606" y="453.24994814542987" width="2" height="16.750051854570156" fill="#8aa6c1" opacity="0.75" />
<rect x="651.8918918918919" y="441.46942555773103" width="2" height="28.530574442268957" fill="#8aa6c1" opacity="0.75" />
<rect x="655.1660231660231" y="454.8593012663152" width="2" height="15.140698733684804" fill="#8aa6c1" opacity="0.75" />
<rect x="658.4401544401544" y="450.15310964069533" width="2" height="19.846890359304687" fill="#8aa6c1" opacity="0.75" />
<rect x="661.7142857142857" y="454.28498815892345" width="2" height="15.71501184107657" fill="#8aa6c1" opacity="0.75" />
<rect x="664.988416988417" y="457.11279071799396" width="2" height="12.887209282006046" fill="#8aa6c1" opacity="0.75" />
<rect x="668.2625482625483" y="456.3775574939921" width="2" height="13.622442506007912" fill="#8aa6c1" opacity="0.75" />
<rect x="671.5366795366796" y="454.7090179846085" width="2" height="15.2909820153915" fill="#8aa6c1" opacity="0.75" />
<rect x="674.8108108108108" y="451.39161711041265" width="2" height="18.608382889587375" fill="#8aa6c1" opacity="0.75" />
<rect x="678.0849420849421" y="454.4277496788056" width="2" height="15.572250321194424" fill="#8aa6c1" opacity="0.75" />
<rect x="681.3590733590734" y="459.07300743590736" width="2" height="10.926992564092629" fill="#8aa6c1" opacity="0.75" />
<rect x="684.6332046332046" y="460.45974679774287" width="2" height="9.540253202257135" fill="#8aa6c1" opacity="0.75" />
<rect x="687.9073359073359" y="456.8935959415916" width="2" height="13.10640405840838" fill="#8aa6c1" opacity="0.75" />
<rect x="691.1814671814672" y="452.12479894482595" width="2" height="17.875201055174024" fill="#8aa6c1" opacity="0.75" />
<rect x="694.4555984555984" y="446.89694654458617" width="2" height="23.103053455413807" fill="#8aa6c1" opacity="0.75" />
<rect x="697.7297297297297" y="450.11534887678823" width="2" height="19.88465112321178" fill="#8aa6c1" opacity="0.75" />
<rect x="701.003861003861" y="432.0130513964265" width="2" height="37.98694860357352" fill="#8aa6c1" opacity="0.75" />
<rect x="704.2779922779923" y="424.5808669172401" width="2" height="45.41913308275989" fill="#8aa6c1" opacity="0.75" />
<rect x="707.5521235521236" y="437.3215158097556" width="2" height="32.67848419024435" fill="#8aa6c1" opacity="0.75" />
<rect x="710.8262548262549" y="434.29267707101076" width="2" height="35.70732292898925" fill="#8aa6c1" opacity="0.75" />
<rect x="714.1003861003861" y="435.59546141450153" width="2" height="34.4045385854985" fill="#8aa6c1" opacity="0.75" />
<rect x="717.3745173745174" y="453.0335645325377" width="2" height="16.9664354674623" fill="#8aa6c1" opacity="0.75" />
<rect x="720.6486486486486" y="439.88408129277053" width="2" height="30.11591870722948" fill="#8aa6c1" opacity="0.75" />
<rect x="723.9227799227799" y="445.34624797045393" width="2" height="24.653752029546087" fill="#8aa6c1" opacity="0.75" />
<rect x="727.1969111969112" y="441.8243919339361" width="2" height="28.175608066063862" fill="#8aa6c1" opacity="0.75" />
<rect x="730.4710424710424" y="444.7641091916689" width="2" height="25.235890808331074" fill="#8aa6c1" opacity="0.75" />
<rect x="733.7451737451737" y="453.5762710447879" width="2" height="16.423728955212084" fill="#8aa6c1" opacity="0.75" />
<rect x="737.019305019305" y="444.3830825699505" width="2" height="25.61691743004951" fill="#8aa6c1" opacity="0.75" />
<rect x="740.2934362934363" y="454.35815438758044" width="2" height="15.64184561241957" fill="#8aa6c1" opacity="0.75" />
<rect x="743.5675675675676" y="454.0322873525754" width="2" height="15.967712647424632" fill="#8aa6c1" opacity="0.75" />
<rect x="746.8416988416989" y="450.0042699294398" width="2" height="19.995730070560207" fill="#8aa6c1" opacity="0.75" />
<rect x="750.1158301158301" y="444.5441546413449" width="2" height="25.455845358655075" fill="#8aa6c1" opacity="0.75" />
<rect x="753.3899613899614" y="452.1474402076918" width="2" height="17.852559792308202" fill="#8aa6c1" opacity="0.75" />
<rect x="756.6640926640927" y="448.9652790915535" width="2" height="21.034720908446484" fill="#8aa6c1" opacity="0.75" />
<rect x="759.9382239382239" y="445.8367580142853" width="2" height="24.16324198571473" fill="#8aa6c1" opacity="0.75" />
<rect x="763.2123552123552" y="453.92447543309015" width="2" height="16.07552456690987" fill="#8aa6c1" opacity="0.75" />
<rect x="766.4864864864865" y="457.16696259860913" width="2" height="12.833037401390843" fill="#8aa6c1" opacity="0.75" />
<rect x="769.7606177606177" y="453.19121762128464" width="2" height="16.80878237871539" fill="#8aa6c1" opacity="0.75" />
<rect x="773.034749034749" y="458.00370161854636" width="2" height="11.996298381453615" fill="#8aa6c1" opacity="0.75" />
<rect x="776.3088803088804" y="452.87089693590775" width="2" height="17.12910306409225" fill="#8aa6c1" opacity="0.75" />
<rect x="779.5830115830116" y="458.0357640780409" width="2" height="11.96423592195906" fill="#8aa6c1" opacity="0.75" />
<rect x="782.8571428571429" y="455.47745332898745" width="2" height="14.522546671012574" fill="#8aa6c1" opacity="0.75" />
<rect x="786.1312741312742" y="457.29832750966625" width="2" height="12.701672490333776" fill="#8aa6c1" opacity="0.75" />
<rect x="789.4054054054054" y="457.45066218096144" width="2" height="12.549337819038566" fill="#8aa6c1" opacity="0.75" />
<rect x="792.6795366795367" y="460.79176800151345" width="2" height="9.20823199848653" fill="#8aa6c1" opacity="0.75" />
<rect x="795.953667953668" y="461.73685078268113" width="2" height="8.263149217318896" fill="#8aa6c1" opacity="0.75" />
<rect x="799.2277992277992" y="460.2322704855943" width="2" height="9.767729514405692" fill="#8aa6c1" opacity="0.75" />
<rect x="802.5019305019305" y="460.7869814258069" width="2" height="9.213018574193063" fill="#8aa6c1" opacity="0.75" />
<rect x="805.7760617760617" y="450.74740480222704" width="2" height="19.25259519777295" fill="#8aa6c1" opacity="0.75" />
<rect x="809.050193050193" y="438.786815795092" width="2" height="31.21318420490799" fill="#8aa6c1" opacity="0.75" />
<rect x="812.3243243243244" y="433.23453993029835" width="2" height="36.76546006970166" fill="#8aa6c1" opacity="0.75" />
<rect x="815.5984555984556" y="446.9828009977351" width="2" height="23.017199002264885" fill="#8aa6c1" opacity="0.75" />
<rect x="818.8725868725869" y="452.0353735542452" width="2" height="17.9646264457548" fill="#8aa6c1" opacity="0.75" />
<rect x="822.1467181467182" y="454.809232164877" width="2" height="15.190767835122982" fill="#8aa6c1" opacity="0.75" />
<rect x="825.4208494208494" y="447.9514367704746" width="2" height="22.048563229525424" fill="#8aa6c1" opacity="0.75" />
<rect x="828.6949806949807" y="456.9112226965744" width="2" height="13.08877730342559" fill="#8aa6c1" opacity="0.75" />
<rect x="831.969111969112" y="450.2149552379194" width="2" height="19.785044762080595" fill="#8aa6c1" opacity="0.75" />
<rect x="835.2432432432432" y="434.96811608737704" width="2" height="35.03188391262296" fill="#8aa6c1" opacity="0.75" />
<rect x="838.5173745173745" y="421.618736328818" width="2" height="48.381263671182" fill="#8aa6c1" opacity="0.75" />
<rect x="841.7915057915058" y="447.5393353953598" width="2" height="22.460664604640243" fill="#8aa6c1" opacity="0.75" />
<rect x="845.065637065637" y="454.5918608458867" width="2" height="15.408139154113302" fill="#8aa6c1" opacity="0.75" />
<rect x="848.3397683397683" y="457.0948600534425" width="2" height="12.905139946557503" fill="#8aa6c1" opacity="0.75" />
<rect x="851.6138996138997" y="457.37514065314724" width="2" height="12.624859346852752" fill="#8aa6c1" opacity="0.75" />
<rect x="854.8880308880309" y="446.1536597170146" width="2" height="23.846340282985395" fill="#8aa6c1" opacity="0.75" />
<rect x="858.1621621621622" y="452.57428119688706" width="2" height="17.425718803112947" fill="#8aa6c1" opacity="0.75" />
<rect x="861.4362934362935" y="444.6783307159122" width="2" height="25.32166928408783" fill="#8aa6c1" opacity="0.75" />
<rect x="864.7104247104247" y="440.89685993035914" width="2" height="29.103140069640876" fill="#8aa6c1" opacity="0.75" />
<rect x="867.984555984556" y="442.00658572035303" width="2" height="27.99341427964695" fill="#8aa6c1" opacity="0.75" />
<rect x="871.2586872586872" y="442.2438631160912" width="2" height="27.756136883908823" fill="#8aa6c1" opacity="0.75" />
<rect x="874.5328185328185" y="443.93192881526176" width="2" height="26.06807118473827" fill="#8aa6c1" opacity="0.75" />
<rect x="877.8069498069498" y="442.703678293487" width="2" height="27.29632170651301" fill="#8aa6c1" opacity="0.75" />
<rect x="881.081081081081" y="435.0777514642743" width="2" height="34.92224853572571" fill="#8aa6c1" opacity="0.75" />
<rect x="884.3552123552123" y="436.44329313369514" width="2" height="33.556706866304864" fill="#8aa6c1" opacity="0.75" />
<rect x="887.6293436293437" y="442.12921323131087" width="2" height="27.87078676868911" fill="#8aa6c1" opacity="0.75" />
<rect x="890.903474903475" y="434.1386708970879" width="2" height="35.86132910291214" fill="#8aa6c1" opacity="0.75" />
<rect x="894.1776061776062" y="443.7062759605252" width="2" height="26.293724039474814" fill="#8aa6c1" opacity="0.75" />
<rect x="897.4517374517375" y="443.23931890826566" width="2" height="26.760681091734345" fill="#8aa6c1" opacity="0.75" />
<rect x="900.7258687258687" y="447.32583892337" width="2" height="22.674161076630035" fill="#8aa6c1" opacity="0.75" />
<rect x="904.0" y="426.92818844824535" width="2" height="43.07181155175466" fill="#8aa6c1" opacity="0.75" />
</svg>