<svg xmlns="http://www.w3.org/2000/svg" width="960" height="520" viewBox="0 0 960 520"><rect width="100%" height="100%" fill="white" />
<text x="56" y="32" font-size="20" font-family="Arial">QQQ Price / Volume</text>
<polyline fill="none" stroke="#1f77b4" stroke-width="2" points="56.00,244.00 59.27,239.43 62.55,232.57 65.82,231.40 69.10,227.13 72.37,225.55 75.64,222.56 78.92,226.48 82.19,223.27 85.47,218.69 88.74,222.23 92.02,221.97 95.29,218.66 98.56,219.34 101.84,220.39 105.11,218.70 108.39,218.27 111.66,217.79 114.93,213.98 118.21,214.43 121.48,211.98 124.76,214.44 128.03,212.28 131.31,211.27 134.58,210.12 137.85,208.63 141.13,209.37 144.40,208.73 147.68,211.27 150.95,220.67 154.22,212.04 157.50,215.27 160.77,209.32 164.05,207.70 167.32,203.22 170.59,204.65 173.87,198.57 177.14,198.33 180.42,198.71 183.69,200.86 186.97,201.05 190.24,207.66 193.51,210.52 196.79,212.73 200.06,205.39 203.34,206.79 206.61,204.85 209.88,204.11 213.16,201.08 216.43,206.72 219.71,210.75 222.98,207.00 226.25,202.64 229.53,201.94 232.80,199.57 236.08,198.18 239.35,198.02 242.63,195.17 245.90,192.99 249.17,188.75 252.45,189.18 255.72,190.17 259.00,185.68 262.27,182.28 265.54,179.28 268.82,182.66 272.09,184.44 275.37,186.61 278.64,184.55 281.92,182.22 285.19,180.83 288.46,178.40 291.74,176.30 295.01,178.45 298.29,174.63 301.56,177.33 304.83,171.47 308.11,172.10 311.38,190.02 314.66,179.44 317.93,182.83 321.20,179.27 324.48,181.15 327.75,177.82 331.03,171.39 334.30,171.52 337.58,176.50 340.85,172.20 344.12,166.69 347.40,157.40 350.67,153.32 353.95,150.91 357.22,159.13 360.49,156.57 363.77,154.03 367.04,164.87 370.32,161.47 373.59,171.28 376.86,172.91 380.14,161.51 383.41,162.91 386.69,163.33 389.96,174.04 393.24,173.65 396.51,178.05 399.78,184.26 403.06,181.25 406.33,193.25 409.61,189.54 412.88,176.78 416.15,173.63 419.43,169.08 422.70,164.87 425.98,166.63 429.25,162.55 432.53,161.26 435.80,161.75 439.07,159.61 442.35,160.62 445.62,159.97 448.90,157.81 452.17,159.52 455.44,169.63 458.72,172.23 461.99,171.21 465.27,180.80 468.54,173.44 471.81,166.73 475.09,164.23 478.36,161.78 481.64,160.24 484.91,160.27 488.19,162.83 491.46,164.05 494.73,168.38 498.01,169.39 501.28,165.26 504.56,160.67 507.83,160.16 511.10,163.17 514.38,157.94 517.65,157.50 520.93,158.28 524.20,163.94 527.47,162.06 530.75,162.50 534.02,173.67 537.30,166.71 540.57,162.92 543.85,161.26 547.12,158.94 550.39,154.14 553.67,152.38 556.94,155.58 560.22,161.98 563.49,158.37 566.76,166.51 570.04,175.62 573.31,183.00 576.59,172.32 579.86,168.37 583.14,170.78 586.41,169.39 589.68,179.95 592.96,178.86 596.23,179.39 599.51,175.59 602.78,177.55 606.05,173.03 609.33,179.30 612.60,173.83 615.88,166.37 619.15,172.67 622.42,174.32 625.70,173.64 628.97,179.15 632.25,171.39 635.52,172.95 638.80,180.70 642.07,173.92 645.34,173.91 648.62,173.98 651.89,182.81 655.17,185.80 658.44,180.17 661.71,177.69 664.99,184.81 668.26,186.40 671.54,195.67 674.81,190.02 678.08,193.42 681.36,190.17 684.63,202.06 687.91,211.56 691.18,215.20 694.46,199.19 697.73,193.14 701.00,192.58 704.28,189.59 707.55,189.52 710.83,174.69 714.10,171.21 717.37,170.47 720.65,165.11 723.92,155.61 727.20,148.16 730.47,145.56 733.75,138.46 737.02,140.20 740.29,142.29 743.57,133.15 746.84,136.28 750.12,125.72 753.39,125.42 756.66,131.08 759.94,127.68 763.21,122.45 766.49,117.02 769.76,118.09 773.03,110.70 776.31,98.70 779.58,99.40 782.86,85.60 786.13,83.85 789.41,88.98 792.68,82.65 795.95,78.34 799.23,87.55 802.50,90.13 805.78,93.82 809.05,83.97 812.32,82.82 815.60,80.25 818.87,69.46 822.15,70.16 825.42,64.95 828.69,62.65 831.97,58.90 835.24,56.00 838.52,57.65 841.79,60.70 845.07,90.83 848.34,81.50 851.61,88.48 854.89,100.46 858.16,80.61 861.44,77.03 864.71,57.83 867.98,69.81 871.26,76.04 874.53,60.69 877.81,62.27 881.08,82.88 884.36,85.45 887.63,80.57 890.90,88.93 894.18,74.04 897.45,63.58 900.73,73.11 904.00,83.77" />
<rect x="56.0" y="417.64580884501186" width="2" height="52.354191154988136" fill="#8aa6c1" opacity="0.75" />
<rect x="59.27413127413127" y="426.9689799495852" width="2" height="43.0310200504148" fill="#8aa6c1" opacity="0.75" />
<rect x="62.54826254826255" y="431.40583914824805" width="2" height="38.594160851751944" fill="#8aa6c1" opacity="0.75" />
<rect x="65.82239382239382" y="431.94752648135943" width="2" height="38.05247351864057" fill="#8aa6c1" opacity="0.75" />
<rect x="69.0965250965251" y="432.7907174257197" width="2" height="37.2092825742803" fill="#8aa6c1" opacity="0.75" />
<rect x="72.37065637065638" y="421.0994265486245" width="2" height="48.900573451375536" fill="#8aa6c1" opacity="0.75" />
<rect x="75.64478764478764" y="431.31521820368397" width="2" height="38.684781796316045" fill="#8aa6c1" opacity="0.75" />
<rect x="78.91891891891892" y="422.2972876565271" width="2" height="47.70271234347291" fill="#8aa6c1" opacity="0.75" />
<rect x="82.1930501930502" y="438.9678045101543" width="2" height="31.032195489845698" fill="#8aa6c1" opacity="0.75" />
<rect x="85.46718146718146" y="447.5413781857466" width="2" height="22.458621814253394" fill="#8aa6c1" opacity="0.75" />
<rect x="88.74131274131274" y="431.48456980955166" width="2" height="38.51543019044836" fill="#8aa6c1" opacity="0.75" />
<rect x="92.01544401544402" y="439.2947872998186" width="2" height="30.705212700181413" fill="#8aa6c1" opacity="0.75" />
<rect x="95.28957528957528" y="433.4412008506648" width="2" height="36.558799149335165" fill="#8aa6c1" opacity="0.75" />
<rect x="98.56370656370656" y="440.51982619803096" width="2" height="29.480173801969027" fill="#8aa6c1" opacity="0.75" />
<rect x="101.83783783783784" y="436.35168740105587" width="2" height="33.648312598944145" fill="#8aa6c1" opacity="0.75" />
<rect x="105.1119691119691" y="439.0399955156646" width="2" height="30.9600044843354" fill="#8aa6c1" opacity="0.75" />
<rect x="108.3861003861004" y="433.24399200972965" width="2" height="36.75600799027035" fill="#8aa6c1" opacity="0.75" />
<rect x="111.66023166023166" y="425.5688141650643" width="2" height="44.43118583493569" fill="#8aa6c1" opacity="0.75" />
<rect x="114.93436293436294" y="435.66782625238653" width="2" height="34.332173747613446" fill="#8aa6c1" opacity="0.75" />
<rect x="118.20849420849422" y="427.12304404840364" width="2" height="42.87695595159636" fill="#8aa6c1" opacity="0.75" />
<rect x="121.48262548262548" y="436.37156116021987" width="2" height="33.62843883978013" fill="#8aa6c1" opacity="0.75" />
<rect x="124.75675675675676" y="433.2500220819546" width="2" height="36.749977918045374" fill="#8aa6c1" opacity="0.75" />
<rect x="128.03088803088804" y="435.84490654237356" width="2" height="34.15509345762643" fill="#8aa6c1" opacity="0.75" />
<rect x="131.3050193050193" y="434.0951664299934" width="2" height="35.90483357000659" fill="#8aa6c1" opacity="0.75" />
<rect x="134.57915057915056" y="443.9850793931199" width="2" height="26.01492060688006" fill="#8aa6c1" opacity="0.75" />
<rect x="137.85328185328186" y="443.24796676156245" width="2" height="26.75203323843755" fill="#8aa6c1" opacity="0.75" />
<rect x="141.12741312741312" y="431.3877489315731" width="2" height="38.612251068426886" fill="#8aa6c1" opacity="0.75" />
<rect x="144.4015444015444" y="433.11141535137483" width="2" height="36.88858464862514" fill="#8aa6c1" opacity="0.75" />
<rect x="147.67567567567568" y="415.12328525129266" width="2" height="54.87671474870736" fill="#8aa6c1" opacity="0.75" />
<rect x="150.94980694980694" y="411.0574878209527" width="2" height="58.94251217904728" fill="#8aa6c1" opacity="0.75" />
<rect x="154.2239382239382" y="429.5137553591205" width="2" height="40.48624464087947" fill="#8aa6c1" opacity="0.75" />
<rect x="157.4980694980695" y="428.66716719097155" width="2" height="41.33283280902846" fill="#8aa6c1" opacity="0.75" />
<rect x="160.7722007722008" y="434.4788828569293" width="2" height="35.52111714307068" fill="#8aa6c1" opacity="0.75" />
<rect x="164.04633204633205" y="432.23730967053723" width="2" height="37.762690329462764" fill="#8aa6c1" opacity="0.75" />
<rect x="167.32046332046332" y="440.0572941791968" width="2" height="29.94270582080324" fill="#8aa6c1" opacity="0.75" />
<rect x="170.59459459459458" y="441.8770171016246" width="2" height="28.122982898375447" fill="#8aa6c1" opacity="0.75" />
<rect x="173.86872586872587" y="434.20744467621057" width="2" height="35.7925553237894" fill="#8aa6c1" opacity="0.75" />
<rect x="177.14285714285714" y="435.0006964308767" width="2" height="34.99930356912331" fill="#8aa6c1" opacity="0.75" />
<rect x="180.41698841698843" y="431.4202773493501" width="2" height="38.57972265064989" fill="#8aa6c1" opacity="0.75" />
<rect x="183.6911196911197" y="427.9761718723459" width="2" height="42.023828127654085" fill="#8aa6c1" opacity="0.75" />
<rect x="186.96525096525096" y="444.66435428967446" width="2" height="25.335645710325522" fill="#8aa6c1" opacity="0.75" />
<rect x="190.23938223938225" y="424.3475971436142" width="2" height="45.65240285638576" fill="#8aa6c1" opacity="0.75" />
<rect x="193.51351351351352" y="404.78935513898045" width="2" height="65.21064486101957" fill="#8aa6c1" opacity="0.75" />
<rect x="196.78764478764478" y="430.5608646613987" width="2" height="39.4391353386013" fill="#8aa6c1" opacity="0.75" />
<rect x="200.06177606177607" y="426.2589601777428" width="2" height="43.74103982225725" fill="#8aa6c1" opacity="0.75" />
<rect x="203.33590733590734" y="441.0856338200423" width="2" height="28.91436617995774" fill="#8aa6c1" opacity="0.75" />
<rect x="206.6100386100386" y="441.0361192833217" width="2" height="28.963880716678332" fill="#8aa6c1" opacity="0.75" />
<rect x="209.8841698841699" y="438.63759435789075" width="2" height="31.36240564210927" fill="#8aa6c1" opacity="0.75" />
<rect x="213.15830115830116" y="430.2627582739385" width="2" height="39.73724172606146" fill="#8aa6c1" opacity="0.75" />
<rect x="216.43243243243242" y="422.4130480571277" width="2" height="47.58695194287228" fill="#8aa6c1" opacity="0.75" />
<rect x="219.7065637065637" y="414.0504419788149" width="2" height="55.949558021185084" fill="#8aa6c1" opacity="0.75" />
<rect x="222.98069498069498" y="423.9419686232411" width="2" height="46.05803137675891" fill="#8aa6c1" opacity="0.75" />
<rect x="226.25482625482624" y="429.63563076254087" width="2" height="40.364369237459144" fill="#8aa6c1" opacity="0.75" />
<rect x="229.52895752895753" y="411.9563083048533" width="2" height="58.04369169514673" fill="#8aa6c1" opacity="0.75" />
<rect x="232.8030888030888" y="430.616494200939" width="2" height="39.383505799061005" fill="#8aa6c1" opacity="0.75" />
<rect x="236.0772200772201" y="432.624083598883" width="2" height="37.37591640111701" fill="#8aa6c1" opacity="0.75" />
<rect x="239.35135135135135" y="428.12242235645033" width="2" height="41.87757764354969" fill="#8aa6c1" opacity="0.75" />
<rect x="242.62548262548262" y="431.99712594867475" width="2" height="38.00287405132526" fill="#8aa6c1" opacity="0.75" />
<rect x="245.8996138996139" y="426.9012053350002" width="2" height="43.098794664999765" fill="#8aa6c1" opacity="0.75" />
<rect x="249.17374517374517" y="432.3245333913126" width="2" height="37.67546660868738" fill="#8aa6c1" opacity="0.75" />
<rect x="252.44787644787644" y="438.624854768683" width="2" height="31.37514523131697" fill="#8aa6c1" opacity="0.75" />
<rect x="255.72200772200773" y="411.0710767161076" width="2" height="58.928923283892395" fill="#8aa6c1" opacity="0.75" />
<rect x="258.996138996139" y="418.1334803198826" width="2" height="51.866519680117406" fill="#8aa6c1" opacity="0.75" />
<rect x="262.27027027027026" y="420.5737061673201" width="2" height="49.42629383267993" fill="#8aa6c1" opacity="0.75" />
<rect x="265.5444015444016" y="421.45808845011857" width="2" height="48.54191154988144" fill="#8aa6c1" opacity="0.75" />
<rect x="268.81853281853284" y="415.1046854510494" width="2" height="54.8953145489506" fill="#8aa6c1" opacity="0.75" />
<rect x="272.0926640926641" y="427.6618437412946" width="2" height="42.33815625870538" fill="#8aa6c1" opacity="0.75" />
<rect x="275.3667953667954" y="409.76705236480745" width="2" height="60.232947635192524" fill="#8aa6c1" opacity="0.75" />
<rect x="278.64092664092664" y="423.8509230257034" width="2" height="46.149076974296605" fill="#8aa6c1" opacity="0.75" />
<rect x="281.9150579150579" y="428.9505805855455" width="2" height="41.049419414454505" fill="#8aa6c1" opacity="0.75" />
<rect x="285.18918918918916" y="430.47856691511697" width="2" height="39.521433084883036" fill="#8aa6c1" opacity="0.75" />
<rect x="288.46332046332043" y="430.16789079963854" width="2" height="39.832109200361465" fill="#8aa6c1" opacity="0.75" />
<rect x="291.73745173745175" y="432.82978549929" width="2" height="37.17021450071002" fill="#8aa6c1" opacity="0.75" />
<rect x="295.011583011583" y="430.52247603258616" width="2" height="39.47752396741383" fill="#8aa6c1" opacity="0.75" />
<rect x="298.2857142857143" y="434.36133891383963" width="2" height="35.63866108616039" fill="#8aa6c1" opacity="0.75" />
<rect x="301.5598455598456" y="420.56232546762783" width="2" height="49.43767453237214" fill="#8aa6c1" opacity="0.75" />
<rect x="304.83397683397686" y="426.9998097554678" width="2" height="43.00019024453216" fill="#8aa6c1" opacity="0.75" />
<rect x="308.1081081081081" y="431.3132648000054" width="2" height="38.686735199994565" fill="#8aa6c1" opacity="0.75" />
<rect x="311.3822393822394" y="387.0951698272172" width="2" height="82.90483017278281" fill="#8aa6c1" opacity="0.75" />
<rect x="314.65637065637065" y="414.05400906379305" width="2" height="55.94599093620693" fill="#8aa6c1" opacity="0.75" />
<rect x="317.9305019305019" y="411.2253106761155" width="2" height="58.77468932388452" fill="#8aa6c1" opacity="0.75" />
<rect x="321.2046332046332" y="416.6589153343887" width="2" height="53.34108466561126" fill="#8aa6c1" opacity="0.75" />
<rect x="324.4787644787645" y="409.7145652572718" width="2" height="60.28543474272824" fill="#8aa6c1" opacity="0.75" />
<rect x="327.75289575289577" y="408.8288240849578" width="2" height="61.171175915042234" fill="#8aa6c1" opacity="0.75" />
<rect x="331.02702702702703" y="431.1343160369346" width="2" height="38.865683963065386" fill="#8aa6c1" opacity="0.75" />
<rect x="334.3011583011583" y="432.1734418633093" width="2" height="37.8265581366907" fill="#8aa6c1" opacity="0.75" />
<rect x="337.57528957528956" y="417.7856895345124" width="2" height="52.2143104654876" fill="#8aa6c1" opacity="0.75" />
<rect x="340.8494208494208" y="433.61208120723745" width="2" height="36.387918792762555" fill="#8aa6c1" opacity="0.75" />
<rect x="344.12355212355214" y="429.54543447095034" width="2" height="40.45456552904966" fill="#8aa6c1" opacity="0.75" />
<rect x="347.3976833976834" y="424.05373728588995" width="2" height="45.946262714110034" fill="#8aa6c1" opacity="0.75" />
<rect x="350.6718146718147" y="418.026128048159" width="2" height="51.973871951840955" fill="#8aa6c1" opacity="0.75" />
<rect x="353.94594594594594" y="412.7374149844747" width="2" height="57.26258501552531" fill="#8aa6c1" opacity="0.75" />
<rect x="357.2200772200772" y="417.65846350362483" width="2" height="52.34153649637516" fill="#8aa6c1" opacity="0.75" />
<rect x="360.4942084942085" y="413.68668424163775" width="2" height="56.31331575836227" fill="#8aa6c1" opacity="0.75" />
<rect x="363.7683397683398" y="438.4446320466914" width="2" height="31.555367953308554" fill="#8aa6c1" opacity="0.75" />
<rect x="367.04247104247105" y="415.78812194674515" width="2" height="54.21187805325488" fill="#8aa6c1" opacity="0.75" />
<rect x="370.3166023166023" y="428.6485673907283" width="2" height="41.351432609271704" fill="#8aa6c1" opacity="0.75" />
<rect x="373.5907335907336" y="408.75221668852214" width="2" height="61.24778331147787" fill="#8aa6c1" opacity="0.75" />
<rect x="376.86486486486484" y="400.49670809014873" width="2" height="69.50329190985127" fill="#8aa6c1" opacity="0.75" />
<rect x="380.13899613899616" y="422.5068963642911" width="2" height="47.4931036357089" fill="#8aa6c1" opacity="0.75" />
<rect x="383.4131274131274" y="431.8926613171716" width="2" height="38.10733868282839" fill="#8aa6c1" opacity="0.75" />
<rect x="386.6872586872587" y="429.7051889196149" width="2" height="40.29481108038511" fill="#8aa6c1" opacity="0.75" />
<rect x="389.96138996138995" y="409.4159492862433" width="2" height="60.584050713756724" fill="#8aa6c1" opacity="0.75" />
<rect x="393.2355212355212" y="401.981379816414" width="2" height="68.01862018358598" fill="#8aa6c1" opacity="0.75" />
<rect x="396.5096525096525" y="415.7714755501804" width="2" height="54.2285244498196" fill="#8aa6c1" opacity="0.75" />
<rect x="399.7837837837838" y="399.22962854755093" width="2" height="70.77037145244906" fill="#8aa6c1" opacity="0.75" />
<rect x="403.05791505791507" y="407.905968242752" width="2" height="62.09403175724798" fill="#8aa6c1" opacity="0.75" />
<rect x="406.33204633204633" y="370.0" width="2" height="100.0" fill="#8aa6c1" opacity="0.75" />
<rect x="409.6061776061776" y="382.2291563334443" width="2" height="87.77084366655569" fill="#8aa6c1" opacity="0.75" />
<rect x="412.88030888030886" y="418.89887483948115" width="2" height="51.101125160518826" fill="#8aa6c1" opacity="0.75" />
<rect x="416.1544401544402" y="421.1131853049688" width="2" height="48.88681469503122" fill="#8aa6c1" opacity="0.75" />
<rect x="419.42857142857144" y="433.99486339763143" width="2" height="36.005136602368545" fill="#8aa6c1" opacity="0.75" />
<rect x="422.7027027027027" y="450.43674709027783" width="2" height="19.563252909722177" fill="#8aa6c1" opacity="0.75" />
<rect x="425.976833976834" y="435.2144667377819" width="2" height="34.78553326221812" fill="#8aa6c1" opacity="0.75" />
<rect x="429.25096525096524" y="423.67732489009984" width="2" height="46.32267510990019" fill="#8aa6c1" opacity="0.75" />
<rect x="432.5250965250965" y="429.367844597395" width="2" height="40.632155402604994" fill="#8aa6c1" opacity="0.75" />
<rect x="435.7992277992278" y="430.02503753932285" width="2" height="39.97496246067713" fill="#8aa6c1" opacity="0.75" />
<rect x="439.0733590733591" y="424.46514108670397" width="2" height="45.534858913296056" fill="#8aa6c1" opacity="0.75" />
<rect x="442.34749034749035" y="433.0871252012855" width="2" height="36.91287479871449" fill="#8aa6c1" opacity="0.75" />
<rect x="445.6216216216216" y="438.44318822658124" width="2" height="31.556811773418765" fill="#8aa6c1" opacity="0.75" />
<rect x="448.8957528957529" y="423.2615046983605" width="2" height="46.738495301639496" fill="#8aa6c1" opacity="0.75" />
<rect x="452.16988416988414" y="420.5085644011714" width="2" height="49.49143559882864" fill="#8aa6c1" opacity="0.75" />
<rect x="455.44401544401546" y="406.1672691076852" width="2" height="63.83273089231481" fill="#8aa6c1" opacity="0.75" />
<rect x="458.7181467181467" y="427.9269121274095" width="2" height="42.07308787259052" fill="#8aa6c1" opacity="0.75" />
<rect x="461.992277992278" y="423.1583989563729" width="2" height="46.84160104362714" fill="#8aa6c1" opacity="0.75" />
<rect x="465.26640926640925" y="409.99288281616265" width="2" height="60.007117183837366" fill="#8aa6c1" opacity="0.75" />
<rect x="468.5405405405405" y="403.01031397142253" width="2" height="66.98968602857744" fill="#8aa6c1" opacity="0.75" />
<rect x="471.81467181467184" y="418.72756982993496" width="2" height="51.27243017006502" fill="#8aa6c1" opacity="0.75" />
<rect x="475.0888030888031" y="432.8826972597993" width="2" height="37.11730274020071" fill="#8aa6c1" opacity="0.75" />
<rect x="478.36293436293437" y="435.076199729581" width="2" height="34.923800270419015" fill="#8aa6c1" opacity="0.75" />
<rect x="481.63706563706563" y="454.3144232533174" width="2" height="15.685576746682612" fill="#8aa6c1" opacity="0.75" />
<rect x="484.9111969111969" y="445.40426963085764" width="2" height="24.595730369142338" fill="#8aa6c1" opacity="0.75" />
<rect x="488.18532818532816" y="442.43297277464853" width="2" height="27.567027225351442" fill="#8aa6c1" opacity="0.75" />
<rect x="491.4594594594595" y="443.4788930486007" width="2" height="26.521106951399315" fill="#8aa6c1" opacity="0.75" />
<rect x="494.73359073359075" y="435.39375522323155" width="2" height="34.60624477676843" fill="#8aa6c1" opacity="0.75" />
<rect x="498.007722007722" y="417.46261355220514" width="2" height="52.537386447794866" fill="#8aa6c1" opacity="0.75" />
<rect x="501.2818532818533" y="430.22836138307775" width="2" height="39.77163861692225" fill="#8aa6c1" opacity="0.75" />
<rect x="504.55598455598454" y="433.3630647035243" width="2" height="36.63693529647572" fill="#8aa6c1" opacity="0.75" />
<rect x="507.83011583011586" y="431.88289429877904" width="2" height="38.11710570122096" fill="#8aa6c1" opacity="0.75" />
<rect x="511.1042471042471" y="427.164490178626" width="2" height="42.835509821373975" fill="#8aa6c1" opacity="0.75" />
<rect x="514.3783783783783" y="427.79909158235887" width="2" height="42.2009084176411" fill="#8aa6c1" opacity="0.75" />
<rect x="517.6525096525097" y="438.2455547326725" width="2" height="31.75444526732754" fill="#8aa6c1" opacity="0.75" />
<rect x="520.9266409266409" y="432.2216824411091" width="2" height="37.778317558890876" fill="#8aa6c1" opacity="0.75" />
<rect x="524.2007722007722" y="408.3414923324659" width="2" height="61.65850766753409" fill="#8aa6c1" opacity="0.75" />
<rect x="527.4749034749035" y="424.19276866944335" width="2" height="45.80723133055667" fill="#8aa6c1" opacity="0.75" />
<rect x="530.7490347490348" y="418.142992546491" width="2" height="51.857007453509" fill="#8aa6c1" opacity="0.75" />
<rect x="534.023166023166" y="400.3663396272566" width="2" height="69.63366037274339" fill="#8aa6c1" opacity="0.75" />
<rect x="537.2972972972973" y="402.1931967196407" width="2" height="67.80680328035929" fill="#8aa6c1" opacity="0.75" />
<rect x="540.5714285714286" y="434.1127470631" width="2" height="35.88725293689997" fill="#8aa6c1" opacity="0.75" />
<rect x="543.8455598455598" y="432.9313624905727" width="2" height="37.06863750942729" fill="#8aa6c1" opacity="0.75" />
<rect x="547.1196911196912" y="439.4394241026233" width="2" height="30.560575897376662" fill="#8aa6c1" opacity="0.75" />
<rect x="550.3938223938223" y="436.8794461166335" width="2" height="33.12055388336651" fill="#8aa6c1" opacity="0.75" />
<rect x="553.6679536679537" y="426.9472377173374" width="2" height="43.05276228266261" fill="#8aa6c1" opacity="0.75" />
<rect x="556.9420849420849" y="402.10308535864493" width="2" height="67.89691464135508" fill="#8aa6c1" opacity="0.75" />
<rect x="560.2162162162163" y="414.2424700534723" width="2" height="55.7575299465277" fill="#8aa6c1" opacity="0.75" />
<rect x="563.4903474903475" y="428.366767677454" width="2" height="41.633232322546014" fill="#8aa6c1" opacity="0.75" />
<rect x="566.7644787644788" y="401.00748068678274" width="2" height="68.99251931321724" fill="#8aa6c1" opacity="0.75" />
<rect x="570.03861003861" y="400.48371370915686" width="2" height="69.51628629084313" fill="#8aa6c1" opacity="0.75" />
<rect x="573.3127413127413" y="394.11069174270784" width="2" height="75.88930825729214" fill="#8aa6c1" opacity="0.75" />
<rect x="576.5868725868726" y="403.73774451518216" width="2" height="66.26225548481781" fill="#8aa6c1" opacity="0.75" />
<rect x="579.8610038610038" y="421.76146053445126" width="2" height="48.238539465548754" fill="#8aa6c1" opacity="0.75" />
<rect x="583.1351351351351" y="424.1893714456546" width="2" height="45.81062855434539" fill="#8aa6c1" opacity="0.75" />
<rect x="586.4092664092664" y="420.2518192133389" width="2" height="49.74818078666114" fill="#8aa6c1" opacity="0.75" />
<rect x="589.6833976833976" y="400.8844162550364" width="2" height="69.11558374496362" fill="#8aa6c1" opacity="0.75" />
<rect x="592.957528957529" y="411.1961794821272" width="2" height="58.80382051787279" fill="#8aa6c1" opacity="0.75" />
<rect x="596.2316602316603" y="411.38616922251134" width="2" height="58.61383077748864" fill="#8aa6c1" opacity="0.75" />
<rect x="599.5057915057915" y="415.43149837952427" width="2" height="54.56850162047575" fill="#8aa6c1" opacity="0.75" />
<rect x="602.7799227799228" y="418.22563001515164" width="2" height="51.77436998484838" fill="#8aa6c1" opacity="0.75" />
<rect x="606.0540540540541" y="407.0432432616066" width="2" height="62.95675673839338" fill="#8aa6c1" opacity="0.75" />
<rect x="609.3281853281853" y="415.7640865884399" width="2" height="54.23591341156008" fill="#8aa6c1" opacity="0.75" />
<rect x="612.6023166023166" y="423.2680443541538" width="2" height="46.73195564584621" fill="#8aa6c1" opacity="0.75" />
<rect x="615.8764478764479" y="422.68457116844115" width="2" height="47.31542883155885" fill="#8aa6c1" opacity="0.75" />
<rect x="619.1505791505791" y="388.3146882367729" width="2" height="81.68531176322709" fill="#8aa6c1" opacity="0.75" />
<rect x="622.4247104247104" y="412.14086248717547" width="2" height="57.85913751282452" fill="#8aa6c1" opacity="0.75" />
<rect x="625.6988416988416" y="406.07732760787883" width="2" height="63.92267239212116" fill="#8aa6c1" opacity="0.75" />
<rect x="628.972972972973" y="387.60415888136214" width="2" height="82.39584111863785" fill="#8aa6c1" opacity="0.75" />
<rect x="632.2471042471043" y="409.7469238138593" width="2" height="60.25307618614069" fill="#8aa6c1" opacity="0.75" />
<rect x="635.5212355212356" y="393.9001487984019" width="2" height="76.09985120159806" fill="#8aa6c1" opacity="0.75" />
<rect x="638.7953667953668" y="396.70294335469055" width="2" height="73.29705664530945" fill="#8aa6c1" opacity="0.75" />
<rect x="642.0694980694981" y="390.9566242466656" width="2" height="79.04337575333437" fill="#8aa6c1" opacity="0.75" />
<rect x="645.3436293436293" y="415.57740914124975" width="2" height="54.42259085875023" fill="#8aa6c1" opacity="0.75" />
<rect x="648.6177606177606" y="418.94414284646587" width="2" height="51.055857153534134" fill="#8aa6c1" opacity="0.75" />
<rect x="651.8918918918919" y="408.98874839481175" width="2" height="61.01125160518824" fill="#8aa6c1" opacity="0.75" />
<rect x="655.1660231660231" y="416.37015131234756" width="2" height="53.62984868765245" fill="#8aa6c1" opacity="0.75" />
<rect x="658.4401544401544" y="428.31844216905944" width="2" height="41.681557830940555" fill="#8aa6c1" opacity="0.75" />
<rect x="661.7142857142857" y="429.9920844685723" width="2" height="40.00791553142772" fill="#8aa6c1" opacity="0.75" />
<rect x="664.988416988417" y="422.33015579668296" width="2" height="47.66984420331705" fill="#8aa6c1" opacity="0.75" />
<rect x="668.2625482625483" y="405.7945087274679" width="2" height="64.20549127253209" fill="#8aa6c1" opacity="0.75" />
<rect x="671.5366795366796" y="391.89383335937873" width="2" height="78.10616664062128" fill="#8aa6c1" opacity="0.75" />
<rect x="674.8108108108108" y="393.616735403828" width="2" height="76.38326459617201" fill="#8aa6c1" opacity="0.75" />
<rect x="678.0849420849421" y="420.9518171750046" width="2" height="49.048182824995415" fill="#8aa6c1" opacity="0.75" />
<rect x="681.3590733590734" y="418.63779819131804" width="2" height="51.36220180868194" fill="#8aa6c1" opacity="0.75" />
<rect x="684.6332046332046" y="400.7882748218156" width="2" height="69.2117251781844" fill="#8aa6c1" opacity="0.75" />
<rect x="687.9073359073359" y="399.76052969513313" width="2" height="70.23947030486686" fill="#8aa6c1" opacity="0.75" />
<rect x="691.1814671814672" y="410.03679193363183" width="2" height="59.96320806636817" fill="#8aa6c1" opacity="0.75" />
<rect x="694.4555984555984" y="388.57024439627935" width="2" height="81.42975560372065" fill="#8aa6c1" opacity="0.75" />
<rect x="697.7297297297297" y="402.5352971551648" width="2" height="67.4647028448352" fill="#8aa6c1" opacity="0.75" />
<rect x="701.003861003861" y="426.7349112305424" width="2" height="43.2650887694576" fill="#8aa6c1" opacity="0.75" />
<rect x="704.2779922779923" y="440.1821421534322" width="2" height="29.817857846567787" fill="#8aa6c1" opacity="0.75" />
<rect x="707.5521235521236" y="427.5786966890657" width="2" height="42.421303310934306" fill="#8aa6c1" opacity="0.75" />
<rect x="710.8262548262549" y="416.42068501620474" width="2" height="53.57931498379524" fill="#8aa6c1" opacity="0.75" />
<rect x="714.1003861003861" y="437.8643862235781" width="2" height="32.135613776421906" fill="#8aa6c1" opacity="0.75" />
<rect x="717.3745173745174" y="441.09089951691476" width="2" height="28.909100483085222" fill="#8aa6c1" opacity="0.75" />
<rect x="720.6486486486486" y="441.99659937898747" width="2" height="28.00340062101251" fill="#8aa6c1" opacity="0.75" />
<rect x="723.9227799227799" y="427.6017128802343" width="2" height="42.398287119765726" fill="#8aa6c1" opacity="0.75" />
<rect x="727.1969111969112" y="427.4477337120105" width="2" height="42.552266287989454" fill="#8aa6c1" opacity="0.75" />
<rect x="730.4710424710424" y="434.0568627317756" width="2" height="35.943137268224405" fill="#8aa6c1" opacity="0.75" />
<rect x="733.7451737451737" y="424.57155912188557" width="2" height="45.42844087811441" fill="#8aa6c1" opacity="0.75" />
<rect x="737.019305019305" y="438.4580510806569" width="2" height="31.54194891934311" fill="#8aa6c1" opacity="0.75" />
<rect x="740.2934362934363" y="436.3840459576434" width="2" height="33.61595404235659" fill="#8aa6c1" opacity="0.75" />
<rect x="743.5675675675676" y="438.26279564340024" width="2" height="31.737204356599786" fill="#8aa6c1" opacity="0.75" />
<rect x="746.8416988416989" y="435.94300137927286" width="2" height="34.05699862072714" fill="#8aa6c1" opacity="0.75" />
<rect x="750.1158301158301" y="431.30298819804455" width="2" height="38.69701180195545" fill="#8aa6c1" opacity="0.75" />
<rect x="753.3899613899614" y="442.2132573261131" width="2" height="27.7867426738869" fill="#8aa6c1" opacity="0.75" />
<rect x="756.6640926640927" y="440.9979854462933" width="2" height="29.00201455370671" fill="#8aa6c1" opacity="0.75" />
<rect x="759.9382239382239" y="443.05585375631034" width="2" height="26.94414624368966" fill="#8aa6c1" opacity="0.75" />
<rect x="763.2123552123552" y="435.49932395246606" width="2" height="34.50067604753396" fill="#8aa6c1" opacity="0.75" />
<rect x="766.4864864864865" y="436.73047785349814" width="2" height="33.26952214650188" fill="#8aa6c1" opacity="0.75" />
<rect x="769.7606177606177" y="440.66327397250967" width="2" height="29.336726027490336" fill="#8aa6c1" opacity="0.75" />
<rect x="773.034749034749" y="438.4898151230814" width="2" height="31.510184876918583" fill="#8aa6c1" opacity="0.75" />
<rect x="776.3088803088804" y="437.06518932728176" width="2" height="32.93481067271826" fill="#8aa6c1" opacity="0.75" />
<rect x="779.5830115830116" y="432.81815000781364" width="2" height="37.181849992186386" fill="#8aa6c1" opacity="0.75" />
<rect x="782.8571428571429" y="432.3584206986051" width="2" height="37.6415793013949" fill="#8aa6c1" opacity="0.75" />
<rect x="786.1312741312742" y="439.40876415793014" width="2" height="30.591235842069857" fill="#8aa6c1" opacity="0.75" />
<rect x="789.4054054054054" y="431.0397882850135" width="2" height="38.960211714986514" fill="#8aa6c1" opacity="0.75" />
<rect x="792.6795366795367" y="436.0171457884617" width="2" height="33.98285421153833" fill="#8aa6c1" opacity="0.75" />
<rect x="795.953667953668" y="441.6947560453597" width="2" height="28.305243954640268" fill="#8aa6c1" opacity="0.75" />
<rect x="799.2277992277992" y="426.01215186949224" width="2" height="43.98784813050775" fill="#8aa6c1" opacity="0.75" />
<rect x="802.5019305019305" y="427.6752627752601" width="2" height="42.32473722473994" fill="#8aa6c1" opacity="0.75" />
<rect x="805.7760617760617" y="430.2291257584302" width="2" height="39.770874241569786" fill="#8aa6c1" opacity="0.75" />
<rect x="809.050193050193" y="438.7632067074787" width="2" height="31.23679329252135" fill="#8aa6c1" opacity="0.75" />
<rect x="812.3243243243244" y="439.07218421106273" width="2" height="30.92781578893728" fill="#8aa6c1" opacity="0.75" />
<rect x="815.5984555984556" y="441.87217605772565" width="2" height="28.12782394227437" fill="#8aa6c1" opacity="0.75" />
<rect x="818.8725868725869" y="440.9072795711345" width="2" height="29.092720428865533" fill="#8aa6c1" opacity="0.75" />
<rect x="822.1467181467182" y="440.1480000543556" width="2" height="29.85199994564442" fill="#8aa6c1" opacity="0.75" />
<rect x="825.4208494208494" y="442.10879269461" width="2" height="27.891207305390036" fill="#8aa6c1" opacity="0.75" />
<rect x="828.6949806949807" y="438.11561092275394" width="2" height="31.884389077246073" fill="#8aa6c1" opacity="0.75" />
<rect x="831.969111969112" y="441.2165118665027" width="2" height="28.783488133497304" fill="#8aa6c1" opacity="0.75" />
<rect x="835.2432432432432" y="444.44846071790136" width="2" height="25.551539282098666" fill="#8aa6c1" opacity="0.75" />
<rect x="838.5173745173745" y="435.7982796458734" width="2" height="34.20172035412661" fill="#8aa6c1" opacity="0.75" />
<rect x="841.7915057915058" y="435.36309527853837" width="2" height="34.63690472146162" fill="#8aa6c1" opacity="0.75" />
<rect x="845.065637065637" y="385.40352224162416" width="2" height="84.59647775837585" fill="#8aa6c1" opacity="0.75" />
<rect x="848.3397683397683" y="429.7416241447489" width="2" height="40.25837585525109" fill="#8aa6c1" opacity="0.75" />
<rect x="851.6138996138997" y="391.9214358026621" width="2" height="78.07856419733794" fill="#8aa6c1" opacity="0.75" />
<rect x="854.8880308880309" y="414.51119045516003" width="2" height="55.48880954483996" fill="#8aa6c1" opacity="0.75" />
<rect x="858.1621621621622" y="409.02076722902046" width="2" height="60.97923277097955" fill="#8aa6c1" opacity="0.75" />
<rect x="861.4362934362935" y="426.5423735723167" width="2" height="43.4576264276833" fill="#8aa6c1" opacity="0.75" />
<rect x="864.7104247104247" y="430.32874934603444" width="2" height="39.67125065396558" fill="#8aa6c1" opacity="0.75" />
<rect x="867.984555984556" y="431.4850793931199" width="2" height="38.51492060688006" fill="#8aa6c1" opacity="0.75" />
<rect x="871.2586872586872" y="426.11695622337425" width="2" height="43.88304377662574" fill="#8aa6c1" opacity="0.75" />
<rect x="874.5328185328185" y="427.4033999415677" width="2" height="42.59660005843225" fill="#8aa6c1" opacity="0.75" />
<rect x="877.8069498069498" y="433.039394207054" width="2" height="36.960605792946005" fill="#8aa6c1" opacity="0.75" />
<rect x="881.081081081081" y="424.68596063297076" width="2" height="45.31403936702926" fill="#8aa6c1" opacity="0.75" />
<rect x="884.3552123552123" y="425.42808416961657" width="2" height="44.57191583038341" fill="#8aa6c1" opacity="0.75" />
<rect x="887.6293436293437" y="427.81667221546553" width="2" height="42.18332778453448" fill="#8aa6c1" opacity="0.75" />
<rect x="890.903474903475" y="430.0131472560623" width="2" height="39.98685274393765" fill="#8aa6c1" opacity="0.75" />
<rect x="894.1776061776062" y="431.8329551090849" width="2" height="38.16704489091514" fill="#8aa6c1" opacity="0.75" />
<rect x="897.4517374517375" y="434.22570475407497" width="2" height="35.77429524592503" fill="#8aa6c1" opacity="0.75" />
<rect x="900.7258687258687" y="435.34508999245816" width="2" height="34.65491000754184" fill="#8aa6c1" opacity="0.75" />
<rect x="904.0" y="426.71953879289845" width="2" height="43.28046120710155" fill="#8aa6c1" opacity="0.75" />
</svg>