<svg xmlns="http://www.w3.org/2000/svg" width="960" height="520" viewBox="0 0 960 520"><rect width="100%" height="100%" fill="white" />
<text x="56.00" y="32.00" font-size="20" font-family="Arial" fill="#1f2933" text-anchor="start">SOXX Price / Volume</text>
<line x1="56" y1="244" x2="904" y2="244" stroke="#cbd2d9" />
<line x1="56" y1="56" x2="56" y2="244" stroke="#cbd2d9" />
<text x="16.00" y="38.00" font-size="12" font-family="Arial" fill="#52606d" text-anchor="start">Price</text>
<line x1="56" y1="244.00" x2="904" y2="244.00" stroke="#edf2f7" />
<line x1="52" y1="244.00" x2="56" y2="244.00" stroke="#9fb3c8" />
<text x="48.00" y="248.00" font-size="11" font-family="Arial" fill="#52606d" text-anchor="end">211</text>
<line x1="56" y1="197.00" x2="904" y2="197.00" stroke="#edf2f7" />
<line x1="52" y1="197.00" x2="56" y2="197.00" stroke="#9fb3c8" />
<text x="48.00" y="201.00" font-size="11" font-family="Arial" fill="#52606d" text-anchor="end">328</text>
<line x1="56" y1="150.00" x2="904" y2="150.00" stroke="#edf2f7" />
<line x1="52" y1="150.00" x2="56" y2="150.00" stroke="#9fb3c8" />
<text x="48.00" y="154.00" font-size="11" font-family="Arial" fill="#52606d" text-anchor="end">445</text>
<line x1="56" y1="103.00" x2="904" y2="103.00" stroke="#edf2f7" />
<line x1="52" y1="103.00" x2="56" y2="103.00" stroke="#9fb3c8" />
<text x="48.00" y="107.00" font-size="11" font-family="Arial" fill="#52606d" text-anchor="end">563</text>
<line x1="56" y1="56.00" x2="904" y2="56.00" stroke="#edf2f7" />
<line x1="52" y1="56.00" x2="56" y2="56.00" stroke="#9fb3c8" />
<text x="48.00" y="60.00" font-size="11" font-family="Arial" fill="#52606d" text-anchor="end">680</text>
<polyline fill="none" stroke="#1f77b4" stroke-width="2" points="56.00,231.37 59.27,231.06 62.55,230.09 65.82,230.25 69.10,231.18 72.37,230.21 75.64,230.48 78.92,230.10 82.19,230.02 85.47,229.93 88.74,231.29 92.02,231.88 95.29,232.08 98.56,232.09 101.84,230.41 105.11,230.24 108.39,229.54 111.66,232.69 114.93,233.80 118.21,232.55 121.48,233.21 124.76,233.93 128.03,232.37 131.31,231.56 134.58,231.74 137.85,228.66 141.13,227.17 144.40,227.07 147.68,229.39 150.95,229.10 154.22,230.65 157.50,231.21 160.77,231.76 164.05,229.08 167.32,229.31 170.59,228.38 173.87,228.19 177.14,227.70 180.42,230.58 183.69,231.58 186.97,232.04 190.24,231.04 193.51,229.89 196.79,229.18 200.06,229.09 203.34,227.34 206.61,226.65 209.88,226.47 213.16,225.61 216.43,225.08 219.71,225.10 222.98,221.49 226.25,222.17 229.53,220.59 232.80,220.72 236.08,220.88 239.35,221.22 242.63,220.99 245.90,220.95 249.17,220.07 252.45,217.99 255.72,215.85 259.00,216.54 262.27,213.19 265.54,215.76 268.82,211.92 272.09,212.46 275.37,219.73 278.64,214.58 281.92,216.91 285.19,213.48 288.46,212.94 291.74,213.26 295.01,211.35 298.29,212.00 301.56,214.88 304.83,212.11 308.11,210.19 311.38,206.91 314.66,206.76 317.93,204.70 321.20,206.38 324.48,205.92 327.75,205.19 331.03,210.03 334.30,206.35 337.58,209.54 340.85,210.78 344.12,207.74 347.40,210.48 350.67,208.67 353.95,212.78 357.22,213.12 360.49,215.11 363.77,217.73 367.04,215.88 370.32,221.28 373.59,220.19 376.86,215.45 380.14,215.10 383.41,211.98 386.69,209.84 389.96,209.77 393.24,207.40 396.51,204.80 399.78,206.03 403.06,204.78 406.33,203.44 409.61,203.67 412.88,202.02 416.15,202.74 419.43,208.75 422.70,209.33 425.98,209.88 429.25,214.27 432.53,211.55 435.80,208.44 439.07,206.83 442.35,206.38 445.62,205.91 448.90,205.95 452.17,206.23 455.44,206.39 458.72,207.90 461.99,202.89 465.27,201.14 468.54,197.02 471.81,198.41 475.09,200.53 478.36,196.85 481.64,196.22 484.91,195.04 488.19,195.60 491.46,193.47 494.73,191.37 498.01,193.42 501.28,189.11 504.56,188.89 507.83,190.48 511.10,191.13 514.38,187.93 517.65,184.18 520.93,183.91 524.20,189.84 527.47,187.29 530.75,190.11 534.02,196.21 537.30,196.03 540.57,188.96 543.85,187.25 547.12,187.79 550.39,184.28 553.67,187.76 556.94,186.50 560.22,186.72 563.49,185.19 566.76,186.03 570.04,184.59 573.31,185.63 576.59,183.55 579.86,181.16 583.14,185.64 586.41,187.45 589.68,187.54 592.96,194.45 596.23,191.75 599.51,193.26 602.78,198.96 606.05,193.81 609.33,192.84 612.60,191.53 615.88,196.29 619.15,195.83 622.42,193.23 625.70,192.18 628.97,192.96 632.25,192.20 635.52,195.28 638.80,193.64 642.07,191.87 645.34,190.18 648.62,196.74 651.89,198.89 655.17,204.37 658.44,196.82 661.71,192.86 664.99,192.44 668.26,190.64 671.54,189.17 674.81,180.11 678.08,176.82 681.36,173.63 684.63,170.93 687.91,167.77 691.18,167.52 694.46,165.88 697.73,161.98 701.00,161.24 704.28,159.98 707.55,155.55 710.83,151.85 714.10,143.61 717.37,146.09 720.65,152.77 723.92,148.26 727.20,143.67 730.47,141.95 733.75,143.42 737.02,135.15 740.29,125.49 743.57,131.30 746.84,120.11 750.12,115.13 753.39,121.84 756.66,116.92 759.94,116.22 763.21,124.83 766.49,129.89 769.76,129.54 773.03,120.11 776.31,118.35 779.58,113.30 782.86,100.19 786.13,102.63 789.41,100.43 792.68,100.59 795.95,99.45 799.23,86.20 802.50,81.94 805.78,87.13 809.05,112.32 812.32,99.64 815.60,103.37 818.87,111.62 822.15,93.45 825.42,89.71 828.69,76.71 831.97,91.61 835.24,88.21 838.52,72.30 841.79,66.07 845.07,86.74 848.34,87.50 851.61,78.01 854.89,92.13 858.16,82.35 861.44,71.78 864.71,88.22 867.98,101.59 871.26,95.50 874.53,107.45 877.81,103.30 881.08,95.43 884.36,95.57 887.63,106.68 890.90,100.95 894.18,106.01 897.45,115.93 900.73,119.41 904.00,118.48" />
<line x1="56" y1="470" x2="904" y2="470" stroke="#cbd2d9" />
<line x1="56" y1="370" x2="56" y2="470" stroke="#cbd2d9" />
<text x="16.00" y="362.00" font-size="12" font-family="Arial" fill="#52606d" text-anchor="start">Volume</text>
<line x1="56" y1="470.00" x2="904" y2="470.00" stroke="#edf2f7" />
<line x1="52" y1="470.00" x2="56" y2="470.00" stroke="#9fb3c8" />
<text x="48.00" y="474.00" font-size="11" font-family="Arial" fill="#52606d" text-anchor="end">0</text>
<line x1="56" y1="420.00" x2="904" y2="420.00" stroke="#edf2f7" />
<line x1="52" y1="420.00" x2="56" y2="420.00" stroke="#9fb3c8" />
<text x="48.00" y="424.00" font-size="11" font-family="Arial" fill="#52606d" text-anchor="end">13.3M</text>
<line x1="56" y1="370.00" x2="904" y2="370.00" stroke="#edf2f7" />
<line x1="52" y1="370.00" x2="56" y2="370.00" stroke="#9fb3c8" />
<text x="48.00" y="374.00" font-size="11" font-family="Arial" fill="#52606d" text-anchor="end">26.7M</text>
<line x1="56.00" y1="470" x2="56.00" y2="474" stroke="#9fb3c8" />
<text x="56.00" y="488.00" font-size="11" font-family="Arial" fill="#52606d" text-anchor="middle">07/08</text>
<line x1="226.25" y1="470" x2="226.25" y2="474" stroke="#9fb3c8" />
<text x="226.25" y="488.00" font-size="11" font-family="Arial" fill="#52606d" text-anchor="middle">09/19</text>
<line x1="396.51" y1="470" x2="396.51" y2="474" stroke="#9fb3c8" />
<text x="396.51" y="488.00" font-size="11" font-family="Arial" fill="#52606d" text-anchor="middle">12/03</text>
<line x1="563.49" y1="470" x2="563.49" y2="474" stroke="#9fb3c8" />
<text x="563.49" y="488.00" font-size="11" font-family="Arial" fill="#52606d" text-anchor="middle">02/18</text>
<line x1="733.75" y1="470" x2="733.75" y2="474" stroke="#9fb3c8" />
<text x="733.75" y="488.00" font-size="11" font-family="Arial" fill="#52606d" text-anchor="middle">05/04</text>
<line x1="904.00" y1="470" x2="904.00" y2="474" stroke="#9fb3c8" />
<text x="904.00" y="488.00" font-size="11" font-family="Arial" fill="#52606d" text-anchor="middle">07/20</text>
<rect x="56.0" y="442.7393298165688" width="2" height="27.260670183431245" fill="#8aa6c1" opacity="0.75" />
<rect x="59.27413127413127" y="453.457843783719" width="2" height="16.542156216281022" fill="#8aa6c1" opacity="0.75" />
<rect x="62.54826254826255" y="451.75990588658436" width="2" height="18.24009411341566" fill="#8aa6c1" opacity="0.75" />
<rect x="65.82239382239382" y="460.0731327178995" width="2" height="9.926867282100467" fill="#8aa6c1" opacity="0.75" />
<rect x="69.0965250965251" y="449.3092854573792" width="2" height="20.69071454262079" fill="#8aa6c1" opacity="0.75" />
<rect x="72.37065637065638" y="447.3629510850018" width="2" height="22.6370489149982" fill="#8aa6c1" opacity="0.75" />
<rect x="75.64478764478764" y="438.72040222994843" width="2" height="31.279597770051552" fill="#8aa6c1" opacity="0.75" />
<rect x="78.91891891891892" y="452.0124235703153" width="2" height="17.98757642968469" fill="#8aa6c1" opacity="0.75" />
<rect x="82.1930501930502" y="455.91857990648606" width="2" height="14.081420093513966" fill="#8aa6c1" opacity="0.75" />
<rect x="85.46718146718146" y="452.4938556527994" width="2" height="17.506144347200575" fill="#8aa6c1" opacity="0.75" />
<rect x="88.74131274131274" y="444.2574331614914" width="2" height="25.742566838508573" fill="#8aa6c1" opacity="0.75" />
<rect x="92.01544401544402" y="447.6982675938137" width="2" height="22.301732406186307" fill="#8aa6c1" opacity="0.75" />
<rect x="95.28957528957528" y="454.388862246733" width="2" height="15.611137753266993" fill="#8aa6c1" opacity="0.75" />
<rect x="98.56370656370656" y="456.84435319506053" width="2" height="13.155646804939455" fill="#8aa6c1" opacity="0.75" />
<rect x="101.83783783783784" y="445.8984234504256" width="2" height="24.101576549574393" fill="#8aa6c1" opacity="0.75" />
<rect x="105.1119691119691" y="450.1443921592135" width="2" height="19.855607840786476" fill="#8aa6c1" opacity="0.75" />
<rect x="108.3861003861004" y="450.14139491667663" width="2" height="19.85860508332334" fill="#8aa6c1" opacity="0.75" />
<rect x="111.66023166023166" y="434.7100917156216" width="2" height="35.28990828437838" fill="#8aa6c1" opacity="0.75" />
<rect x="114.93436293436294" y="437.97071694041483" width="2" height="32.02928305958518" fill="#8aa6c1" opacity="0.75" />
<rect x="118.20849420849422" y="446.81070914758425" width="2" height="23.189290852415777" fill="#8aa6c1" opacity="0.75" />
<rect x="121.48262548262548" y="450.7063751348759" width="2" height="19.293624865124087" fill="#8aa6c1" opacity="0.75" />
<rect x="124.75675675675676" y="451.3927436758182" width="2" height="18.607256324181755" fill="#8aa6c1" opacity="0.75" />
<rect x="128.03088803088804" y="447.2456839707469" width="2" height="22.75431602925309" fill="#8aa6c1" opacity="0.75" />
<rect x="131.3050193050193" y="450.1383976741398" width="2" height="19.861602325860208" fill="#8aa6c1" opacity="0.75" />
<rect x="134.57915057915056" y="454.53460316508813" width="2" height="15.465396834911882" fill="#8aa6c1" opacity="0.75" />
<rect x="137.85328185328186" y="432.1916586740199" width="2" height="37.8083413259801" fill="#8aa6c1" opacity="0.75" />
<rect x="141.12741312741312" y="447.43675818247215" width="2" height="22.563241817527874" fill="#8aa6c1" opacity="0.75" />
<rect x="144.4015444015444" y="450.08444730847623" width="2" height="19.915552691523796" fill="#8aa6c1" opacity="0.75" />
<rect x="147.67567567567568" y="444.3732016544779" width="2" height="25.62679834552212" fill="#8aa6c1" opacity="0.75" />
<rect x="150.94980694980694" y="451.3489090037166" width="2" height="18.651090996283422" fill="#8aa6c1" opacity="0.75" />
<rect x="154.2239382239382" y="456.85709147584225" width="2" height="13.142908524157775" fill="#8aa6c1" opacity="0.75" />
<rect x="157.4980694980695" y="434.6958548135715" width="2" height="35.304145186428485" fill="#8aa6c1" opacity="0.75" />
<rect x="160.7722007722008" y="452.8366652679535" width="2" height="17.16333473204652" fill="#8aa6c1" opacity="0.75" />
<rect x="164.04633204633205" y="445.5436248651241" width="2" height="24.456375134875913" fill="#8aa6c1" opacity="0.75" />
<rect x="167.32046332046332" y="456.30934540222995" width="2" height="13.690654597770052" fill="#8aa6c1" opacity="0.75" />
<rect x="170.59459459459458" y="455.90546697038724" width="2" height="14.094533029612757" fill="#8aa6c1" opacity="0.75" />
<rect x="173.86872586872587" y="454.28171082604007" width="2" height="15.718289173959956" fill="#8aa6c1" opacity="0.75" />
<rect x="177.14285714285714" y="451.0416916436878" width="2" height="18.95830835631219" fill="#8aa6c1" opacity="0.75" />
<rect x="180.41698841698843" y="437.507642968469" width="2" height="32.49235703153099" fill="#8aa6c1" opacity="0.75" />
<rect x="183.6911196911197" y="445.0509531231267" width="2" height="24.949046876873275" fill="#8aa6c1" opacity="0.75" />
<rect x="186.96525096525096" y="449.4939905287136" width="2" height="20.506009471286415" fill="#8aa6c1" opacity="0.75" />
<rect x="190.23938223938225" y="425.6325680374056" width="2" height="44.36743196259441" fill="#8aa6c1" opacity="0.75" />
<rect x="193.51351351351352" y="405.9133347320465" width="2" height="64.08666526795348" fill="#8aa6c1" opacity="0.75" />
<rect x="196.78764478764478" y="431.4460945929745" width="2" height="38.55390540702553" fill="#8aa6c1" opacity="0.75" />
<rect x="200.06177606177607" y="435.13757343244214" width="2" height="34.86242656755785" fill="#8aa6c1" opacity="0.75" />
<rect x="203.33590733590734" y="419.80218199256683" width="2" height="50.197818007433156" fill="#8aa6c1" opacity="0.75" />
<rect x="206.6100386100386" y="431.4622047716101" width="2" height="38.53779522838988" fill="#8aa6c1" opacity="0.75" />
<rect x="209.8841698841699" y="443.23387483515165" width="2" height="26.766125164848344" fill="#8aa6c1" opacity="0.75" />
<rect x="213.15830115830116" y="442.8779522838988" width="2" height="27.12204771610119" fill="#8aa6c1" opacity="0.75" />
<rect x="216.43243243243242" y="441.7386254645726" width="2" height="28.261374535427407" fill="#8aa6c1" opacity="0.75" />
<rect x="219.7065637065637" y="445.39675998081765" width="2" height="24.60324001918235" fill="#8aa6c1" opacity="0.75" />
<rect x="222.98069498069498" y="422.7874355592854" width="2" height="47.212564440714544" fill="#8aa6c1" opacity="0.75" />
<rect x="226.25482625482624" y="448.1235013787316" width="2" height="21.876498621268432" fill="#8aa6c1" opacity="0.75" />
<rect x="229.52895752895753" y="448.564470686968" width="2" height="21.435529313032013" fill="#8aa6c1" opacity="0.75" />
<rect x="232.8030888030888" y="447.26479139191946" width="2" height="22.735208608080566" fill="#8aa6c1" opacity="0.75" />
<rect x="236.0772200772201" y="440.6813481596931" width="2" height="29.31865184030692" fill="#8aa6c1" opacity="0.75" />
<rect x="239.35135135135135" y="428.1967090276945" width="2" height="41.803290972305476" fill="#8aa6c1" opacity="0.75" />
<rect x="242.62548262548262" y="442.8588448627263" width="2" height="27.14115513727371" fill="#8aa6c1" opacity="0.75" />
<rect x="245.8996138996139" y="447.6896505215202" width="2" height="22.3103494784798" fill="#8aa6c1" opacity="0.75" />
<rect x="249.17374517374517" y="443.4301942213164" width="2" height="26.56980577868361" fill="#8aa6c1" opacity="0.75" />
<rect x="252.44787644787644" y="435.00869200335694" width="2" height="34.99130799664309" fill="#8aa6c1" opacity="0.75" />
<rect x="255.72200772200773" y="442.8374895096511" width="2" height="27.16251049034888" fill="#8aa6c1" opacity="0.75" />
<rect x="258.996138996139" y="437.6706180314111" width="2" height="32.3293819685889" fill="#8aa6c1" opacity="0.75" />
<rect x="262.27027027027026" y="427.75761299604363" width="2" height="42.24238700395636" fill="#8aa6c1" opacity="0.75" />
<rect x="265.5444015444016" y="432.7143028413859" width="2" height="37.28569715861407" fill="#8aa6c1" opacity="0.75" />
<rect x="268.81853281853284" y="435.15068636854096" width="2" height="34.849313631459054" fill="#8aa6c1" opacity="0.75" />
<rect x="272.0926640926641" y="441.5130829636734" width="2" height="28.48691703632658" fill="#8aa6c1" opacity="0.75" />
<rect x="275.3667953667954" y="370.0" width="2" height="100.0" fill="#8aa6c1" opacity="0.75" />
<rect x="278.64092664092664" y="437.39224913079966" width="2" height="32.60775086920034" fill="#8aa6c1" opacity="0.75" />
<rect x="281.9150579150579" y="438.2442153219039" width="2" height="31.75578467809615" fill="#8aa6c1" opacity="0.75" />
<rect x="285.18918918918916" y="441.5441793549934" width="2" height="28.455820645006597" fill="#8aa6c1" opacity="0.75" />
<rect x="288.46332046332043" y="442.2365423810095" width="2" height="27.76345761899053" fill="#8aa6c1" opacity="0.75" />
<rect x="291.73745173745175" y="446.5409573192663" width="2" height="23.459042680733724" fill="#8aa6c1" opacity="0.75" />
<rect x="295.011583011583" y="448.1489779402949" width="2" height="21.851022059705073" fill="#8aa6c1" opacity="0.75" />
<rect x="298.2857142857143" y="455.1441673660233" width="2" height="14.855832633976743" fill="#8aa6c1" opacity="0.75" />
<rect x="301.5598455598456" y="440.49476981177315" width="2" height="29.505230188226832" fill="#8aa6c1" opacity="0.75" />
<rect x="304.83397683397686" y="449.8630260160652" width="2" height="20.13697398393478" fill="#8aa6c1" opacity="0.75" />
<rect x="308.1081081081081" y="452.68642848579304" width="2" height="17.31357151420693" fill="#8aa6c1" opacity="0.75" />
<rect x="311.3822393822394" y="450.6490528713583" width="2" height="19.35094712864165" fill="#8aa6c1" opacity="0.75" />
<rect x="314.65637065637065" y="454.4278263997123" width="2" height="15.572173600287737" fill="#8aa6c1" opacity="0.75" />
<rect x="317.9305019305019" y="453.1288964152979" width="2" height="16.871103584702073" fill="#8aa6c1" opacity="0.75" />
<rect x="321.2046332046332" y="452.6508362306678" width="2" height="17.349163769332215" fill="#8aa6c1" opacity="0.75" />
<rect x="324.4787644787645" y="450.65317407984656" width="2" height="19.34682592015346" fill="#8aa6c1" opacity="0.75" />
<rect x="327.75289575289577" y="455.94742836590336" width="2" height="14.05257163409663" fill="#8aa6c1" opacity="0.75" />
<rect x="331.02702702702703" y="450.1852295887783" width="2" height="19.814770411221676" fill="#8aa6c1" opacity="0.75" />
<rect x="334.3011583011583" y="451.45680973504375" width="2" height="18.54319026495624" fill="#8aa6c1" opacity="0.75" />
<rect x="337.57528957528956" y="437.97333952763455" width="2" height="32.02666047236543" fill="#8aa6c1" opacity="0.75" />
<rect x="340.8494208494208" y="418.30281141349957" width="2" height="51.69718858650042" fill="#8aa6c1" opacity="0.75" />
<rect x="344.12355212355214" y="447.405287135835" width="2" height="22.59471286416497" fill="#8aa6c1" opacity="0.75" />
<rect x="347.3976833976834" y="447.9781351156936" width="2" height="22.02186488430644" fill="#8aa6c1" opacity="0.75" />
<rect x="350.6718146718147" y="454.4705371058626" width="2" height="15.529462894137394" fill="#8aa6c1" opacity="0.75" />
<rect x="353.94594594594594" y="428.86059824961035" width="2" height="41.139401750389645" fill="#8aa6c1" opacity="0.75" />
<rect x="357.2200772200772" y="443.242117252128" width="2" height="26.757882747871957" fill="#8aa6c1" opacity="0.75" />
<rect x="360.4942084942085" y="439.3206000479559" width="2" height="30.67939995204412" fill="#8aa6c1" opacity="0.75" />
<rect x="363.7683397683398" y="428.40164548615274" width="2" height="41.59835451384726" fill="#8aa6c1" opacity="0.75" />
<rect x="367.04247104247105" y="450.86223174679293" width="2" height="19.13776825320705" fill="#8aa6c1" opacity="0.75" />
<rect x="370.3166023166023" y="419.80255664788393" width="2" height="50.19744335211605" fill="#8aa6c1" opacity="0.75" />
<rect x="373.5907335907336" y="412.46830416017264" width="2" height="57.53169583982736" fill="#8aa6c1" opacity="0.75" />
<rect x="376.86486486486484" y="445.9291451864285" width="2" height="24.070854813571515" fill="#8aa6c1" opacity="0.75" />
<rect x="380.13899613899616" y="447.7349838148903" width="2" height="22.265016185109697" fill="#8aa6c1" opacity="0.75" />
<rect x="383.4131274131274" y="448.2014296846901" width="2" height="21.798570315309913" fill="#8aa6c1" opacity="0.75" />
<rect x="386.6872586872587" y="458.61797146625105" width="2" height="11.38202853374895" fill="#8aa6c1" opacity="0.75" />
<rect x="389.96138996138995" y="455.2648063781321" width="2" height="14.735193621867882" fill="#8aa6c1" opacity="0.75" />
<rect x="393.2355212355212" y="450.9416586740199" width="2" height="19.0583413259801" fill="#8aa6c1" opacity="0.75" />
<rect x="396.5096525096525" y="455.51170423210647" width="2" height="14.488295767893538" fill="#8aa6c1" opacity="0.75" />
<rect x="399.7837837837838" y="452.617117252128" width="2" height="17.382882747871957" fill="#8aa6c1" opacity="0.75" />
<rect x="403.05791505791507" y="453.74707768852653" width="2" height="16.252922311473444" fill="#8aa6c1" opacity="0.75" />
<rect x="406.33204633204633" y="456.434105622827" width="2" height="13.565894377173002" fill="#8aa6c1" opacity="0.75" />
<rect x="409.6061776061776" y="459.60219098429445" width="2" height="10.397809015705551" fill="#8aa6c1" opacity="0.75" />
<rect x="412.88030888030886" y="450.9158074571394" width="2" height="19.084192542860567" fill="#8aa6c1" opacity="0.75" />
<rect x="416.1544401544402" y="445.629795588059" width="2" height="24.370204411941014" fill="#8aa6c1" opacity="0.75" />
<rect x="419.42857142857144" y="418.2466131159333" width="2" height="51.75338688406666" fill="#8aa6c1" opacity="0.75" />
<rect x="422.7027027027027" y="450.3613175878192" width="2" height="19.638682412180795" fill="#8aa6c1" opacity="0.75" />
<rect x="425.976833976834" y="448.08116532789836" width="2" height="21.918834672101667" fill="#8aa6c1" opacity="0.75" />
<rect x="429.25096525096524" y="430.9534228509771" width="2" height="39.0465771490229" fill="#8aa6c1" opacity="0.75" />
<rect x="432.5250965250965" y="444.74673300563484" width="2" height="25.253266994365188" fill="#8aa6c1" opacity="0.75" />
<rect x="435.7992277992278" y="450.9862426567558" width="2" height="19.013757343244215" fill="#8aa6c1" opacity="0.75" />
<rect x="439.0733590733591" y="454.942602805419" width="2" height="15.057397194580984" fill="#8aa6c1" opacity="0.75" />
<rect x="442.34749034749035" y="459.85208608080563" width="2" height="10.147913919194341" fill="#8aa6c1" opacity="0.75" />
<rect x="445.6216216216216" y="463.54393957559046" width="2" height="6.456060424409543" fill="#8aa6c1" opacity="0.75" />
<rect x="448.8957528957529" y="463.0280392039324" width="2" height="6.971960796067618" fill="#8aa6c1" opacity="0.75" />
<rect x="452.16988416988414" y="456.4348549334612" width="2" height="13.565145066538783" fill="#8aa6c1" opacity="0.75" />
<rect x="455.44401544401546" y="458.81728809495263" width="2" height="11.182711905047356" fill="#8aa6c1" opacity="0.75" />
<rect x="458.7181467181467" y="458.93193262198776" width="2" height="11.068067378012229" fill="#8aa6c1" opacity="0.75" />
<rect x="461.992277992278" y="438.18689305838626" width="2" height="31.813106941613718" fill="#8aa6c1" opacity="0.75" />
<rect x="465.26640926640925" y="440.3153099148783" width="2" height="29.68469008512169" fill="#8aa6c1" opacity="0.75" />
<rect x="468.5405405405405" y="441.60150161851095" width="2" height="28.39849838148903" fill="#8aa6c1" opacity="0.75" />
<rect x="471.81467181467184" y="453.0337339647524" width="2" height="16.966266035247575" fill="#8aa6c1" opacity="0.75" />
<rect x="475.0888030888031" y="449.737516484834" width="2" height="20.262483515166046" fill="#8aa6c1" opacity="0.75" />
<rect x="478.36293436293437" y="442.56361647284496" width="2" height="27.436383527155016" fill="#8aa6c1" opacity="0.75" />
<rect x="481.63706563706563" y="450.6692842584822" width="2" height="19.330715741517803" fill="#8aa6c1" opacity="0.75" />
<rect x="484.9111969111969" y="455.62859669104427" width="2" height="14.37140330895576" fill="#8aa6c1" opacity="0.75" />
<rect x="488.18532818532816" y="449.51047536266634" width="2" height="20.489524637333652" fill="#8aa6c1" opacity="0.75" />
<rect x="491.4594594594595" y="445.529387963074" width="2" height="24.470612036926028" fill="#8aa6c1" opacity="0.75" />
<rect x="494.73359073359075" y="450.79029792590813" width="2" height="19.209702074091837" fill="#8aa6c1" opacity="0.75" />
<rect x="498.007722007722" y="446.64923270591055" width="2" height="23.35076729408944" fill="#8aa6c1" opacity="0.75" />
<rect x="501.2818532818533" y="443.0090816448867" width="2" height="26.990918355113298" fill="#8aa6c1" opacity="0.75" />
<rect x="504.55598455598454" y="452.5335691164129" width="2" height="17.4664308835871" fill="#8aa6c1" opacity="0.75" />
<rect x="507.83011583011586" y="453.75532010550296" width="2" height="16.244679894497065" fill="#8aa6c1" opacity="0.75" />
<rect x="511.1042471042471" y="453.295243376094" width="2" height="16.704756623906007" fill="#8aa6c1" opacity="0.75" />
<rect x="514.3783783783783" y="450.1672461335571" width="2" height="19.83275386644287" fill="#8aa6c1" opacity="0.75" />
<rect x="517.6525096525097" y="449.9034887903129" width="2" height="20.096511209687087" fill="#8aa6c1" opacity="0.75" />
<rect x="520.9266409266409" y="438.3558626064021" width="2" height="31.644137393597887" fill="#8aa6c1" opacity="0.75" />
<rect x="524.2007722007722" y="437.3334282460137" width="2" height="32.66657175398633" fill="#8aa6c1" opacity="0.75" />
<rect x="527.4749034749035" y="440.93424049874113" width="2" height="29.065759501258842" fill="#8aa6c1" opacity="0.75" />
<rect x="530.7490347490348" y="438.6368540942333" width="2" height="31.363145905766693" fill="#8aa6c1" opacity="0.75" />
<rect x="534.023166023166" y="412.9347500299724" width="2" height="57.06524997002758" fill="#8aa6c1" opacity="0.75" />
<rect x="537.2972972972973" y="431.0114944251289" width="2" height="38.98850557487112" fill="#8aa6c1" opacity="0.75" />
<rect x="540.5714285714286" y="435.92097770051555" width="2" height="34.07902229948447" fill="#8aa6c1" opacity="0.75" />
<rect x="543.8455598455598" y="443.4316928425848" width="2" height="26.568307157415177" fill="#8aa6c1" opacity="0.75" />
<rect x="547.1196911196912" y="446.57505095312314" width="2" height="23.424949046876872" fill="#8aa6c1" opacity="0.75" />
<rect x="550.3938223938223" y="441.91209087639373" width="2" height="28.08790912360628" fill="#8aa6c1" opacity="0.75" />
<rect x="553.6679536679537" y="434.45270351276827" width="2" height="35.54729648723175" fill="#8aa6c1" opacity="0.75" />
<rect x="556.9420849420849" y="447.65930344083444" width="2" height="22.34069655916557" fill="#8aa6c1" opacity="0.75" />
<rect x="560.2162162162163" y="454.755649802182" width="2" height="15.244350197818008" fill="#8aa6c1" opacity="0.75" />
<rect x="563.4903474903475" y="448.71508212444553" width="2" height="21.28491787555449" fill="#8aa6c1" opacity="0.75" />
<rect x="566.7644787644788" y="449.107720896775" width="2" height="20.892279103225032" fill="#8aa6c1" opacity="0.75" />
<rect x="570.03861003861" y="447.46972785037764" width="2" height="22.530272149622345" fill="#8aa6c1" opacity="0.75" />
<rect x="573.3127413127413" y="446.2476022059705" width="2" height="23.75239779402949" fill="#8aa6c1" opacity="0.75" />
<rect x="576.5868725868726" y="446.74889102026134" width="2" height="23.251108979738643" fill="#8aa6c1" opacity="0.75" />
<rect x="579.8610038610038" y="452.99102325860207" width="2" height="17.008976741397912" fill="#8aa6c1" opacity="0.75" />
<rect x="583.1351351351351" y="420.06181812732285" width="2" height="49.938181872677134" fill="#8aa6c1" opacity="0.75" />
<rect x="586.4092664092664" y="446.5832933700995" width="2" height="23.416706629900492" fill="#8aa6c1" opacity="0.75" />
<rect x="589.6833976833976" y="442.7101067018343" width="2" height="27.289893298165683" fill="#8aa6c1" opacity="0.75" />
<rect x="592.957528957529" y="402.7639821364345" width="2" height="67.23601786356552" fill="#8aa6c1" opacity="0.75" />
<rect x="596.2316602316603" y="430.0995833832874" width="2" height="39.900416616712626" fill="#8aa6c1" opacity="0.75" />
<rect x="599.5057915057915" y="442.8775776285817" width="2" height="27.1224223714183" fill="#8aa6c1" opacity="0.75" />
<rect x="602.7799227799228" y="437.27872856971584" width="2" height="32.72127143028414" fill="#8aa6c1" opacity="0.75" />
<rect x="606.0540540540541" y="433.19161371538183" width="2" height="36.80838628461815" fill="#8aa6c1" opacity="0.75" />
<rect x="609.3281853281853" y="442.00950125884185" width="2" height="27.99049874115813" fill="#8aa6c1" opacity="0.75" />
<rect x="612.6023166023166" y="446.7147973864045" width="2" height="23.285202613595494" fill="#8aa6c1" opacity="0.75" />
<rect x="615.8764478764479" y="439.9972275506534" width="2" height="30.002772449346597" fill="#8aa6c1" opacity="0.75" />
<rect x="619.1505791505791" y="445.83173480398034" width="2" height="24.16826519601966" fill="#8aa6c1" opacity="0.75" />
<rect x="622.4247104247104" y="439.95938736362547" width="2" height="30.040612636374536" fill="#8aa6c1" opacity="0.75" />
<rect x="625.6988416988416" y="453.2450395636015" width="2" height="16.754960436398513" fill="#8aa6c1" opacity="0.75" />
<rect x="628.972972972973" y="446.1573102745474" width="2" height="23.842689725452583" fill="#8aa6c1" opacity="0.75" />
<rect x="632.2471042471043" y="438.93320645006594" width="2" height="31.06679354993406" fill="#8aa6c1" opacity="0.75" />
<rect x="635.5212355212356" y="434.62766754585783" width="2" height="35.37233245414219" fill="#8aa6c1" opacity="0.75" />
<rect x="638.7953667953668" y="439.46184510250566" width="2" height="30.53815489749431" fill="#8aa6c1" opacity="0.75" />
<rect x="642.0694980694981" y="450.1901001079007" width="2" height="19.80989989209927" fill="#8aa6c1" opacity="0.75" />
<rect x="645.3436293436293" y="448.0114794389162" width="2" height="21.988520561083803" fill="#8aa6c1" opacity="0.75" />
<rect x="648.6177606177606" y="431.88856252247933" width="2" height="38.11143747752068" fill="#8aa6c1" opacity="0.75" />
<rect x="651.8918918918919" y="446.2663349718259" width="2" height="23.73366502817408" fill="#8aa6c1" opacity="0.75" />
<rect x="655.1660231660231" y="420.5275146864884" width="2" height="49.47248531351157" fill="#8aa6c1" opacity="0.75" />
<rect x="658.4401544401544" y="417.411506414099" width="2" height="52.58849358590098" fill="#8aa6c1" opacity="0.75" />
<rect x="661.7142857142857" y="432.0444191343964" width="2" height="37.95558086560364" fill="#8aa6c1" opacity="0.75" />
<rect x="664.988416988417" y="445.56872677137034" width="2" height="24.43127322862966" fill="#8aa6c1" opacity="0.75" />
<rect x="668.2625482625483" y="458.3669524037885" width="2" height="11.633047596211485" fill="#8aa6c1" opacity="0.75" />
<rect x="671.5366795366796" y="454.91637693322144" width="2" height="15.083623066778564" fill="#8aa6c1" opacity="0.75" />
<rect x="674.8108108108108" y="433.0263907205371" width="2" height="36.97360927946289" fill="#8aa6c1" opacity="0.75" />
<rect x="678.0849420849421" y="447.38318247212567" width="2" height="22.616817527874357" fill="#8aa6c1" opacity="0.75" />
<rect x="681.3590733590734" y="449.03091655676775" width="2" height="20.969083443232226" fill="#8aa6c1" opacity="0.75" />
<rect x="684.6332046332046" y="453.599838148903" width="2" height="16.400161851096993" fill="#8aa6c1" opacity="0.75" />
<rect x="687.9073359073359" y="450.50818247212567" width="2" height="19.491817527874357" fill="#8aa6c1" opacity="0.75" />
<rect x="691.1814671814672" y="449.1309495264357" width="2" height="20.86905047356432" fill="#8aa6c1" opacity="0.75" />
<rect x="694.4555984555984" y="453.513292770651" width="2" height="16.486707229348998" fill="#8aa6c1" opacity="0.75" />
<rect x="697.7297297297297" y="448.5356222275507" width="2" height="21.464377772449346" fill="#8aa6c1" opacity="0.75" />
<rect x="701.003861003861" y="456.91141649682294" width="2" height="13.088583503177077" fill="#8aa6c1" opacity="0.75" />
<rect x="704.2779922779923" y="456.2246733005635" width="2" height="13.775326699436519" fill="#8aa6c1" opacity="0.75" />
<rect x="707.5521235521236" y="445.4316029253087" width="2" height="24.568397074691283" fill="#8aa6c1" opacity="0.75" />
<rect x="710.8262548262549" y="429.49076849298643" width="2" height="40.509231507013546" fill="#8aa6c1" opacity="0.75" />
<rect x="714.1003861003861" y="436.0112696319386" width="2" height="33.98873036806138" fill="#8aa6c1" opacity="0.75" />
<rect x="717.3745173745174" y="436.5635115693562" width="2" height="33.436488430643806" fill="#8aa6c1" opacity="0.75" />
<rect x="720.6486486486486" y="428.73209147584225" width="2" height="41.267908524157775" fill="#8aa6c1" opacity="0.75" />
<rect x="723.9227799227799" y="447.6225872197578" width="2" height="22.377412780242178" fill="#8aa6c1" opacity="0.75" />
<rect x="727.1969111969112" y="450.6295707948687" width="2" height="19.37042920513128" fill="#8aa6c1" opacity="0.75" />
<rect x="730.4710424710424" y="454.4296996762978" width="2" height="15.570300323702194" fill="#8aa6c1" opacity="0.75" />
<rect x="733.7451737451737" y="450.39391260040765" width="2" height="19.606087399592376" fill="#8aa6c1" opacity="0.75" />
<rect x="737.019305019305" y="443.013577508692" width="2" height="26.986422491307998" fill="#8aa6c1" opacity="0.75" />
<rect x="740.2934362934363" y="433.40142069296246" width="2" height="36.598579307037525" fill="#8aa6c1" opacity="0.75" />
<rect x="743.5675675675676" y="432.8577958278384" width="2" height="37.14220417216161" fill="#8aa6c1" opacity="0.75" />
<rect x="746.8416988416989" y="440.94735343483995" width="2" height="29.05264656516005" fill="#8aa6c1" opacity="0.75" />
<rect x="750.1158301158301" y="441.9285757103465" width="2" height="28.071424289653518" fill="#8aa6c1" opacity="0.75" />
<rect x="753.3899613899614" y="415.0732825800264" width="2" height="54.92671741997363" fill="#8aa6c1" opacity="0.75" />
<rect x="756.6640926640927" y="442.4763217839588" width="2" height="27.52367821604124" fill="#8aa6c1" opacity="0.75" />
<rect x="759.9382239382239" y="450.47146625104904" width="2" height="19.528533748950966" fill="#8aa6c1" opacity="0.75" />
<rect x="763.2123552123552" y="434.8266095192423" width="2" height="35.1733904807577" fill="#8aa6c1" opacity="0.75" />
<rect x="766.4864864864865" y="432.53821484234504" width="2" height="37.46178515765496" fill="#8aa6c1" opacity="0.75" />
<rect x="769.7606177606177" y="424.2283599088838" width="2" height="45.771640091116176" fill="#8aa6c1" opacity="0.75" />
<rect x="773.034749034749" y="434.5665987291692" width="2" height="35.433401270830835" fill="#8aa6c1" opacity="0.75" />
<rect x="776.3088803088804" y="444.7111407505095" width="2" height="25.28885924949047" fill="#8aa6c1" opacity="0.75" />
<rect x="779.5830115830116" y="441.25981596930825" width="2" height="28.74018403069176" fill="#8aa6c1" opacity="0.75" />
<rect x="782.8571428571429" y="436.55751708428244" width="2" height="33.44248291571754" fill="#8aa6c1" opacity="0.75" />
<rect x="786.1312741312742" y="427.2428365903369" width="2" height="42.757163409663114" fill="#8aa6c1" opacity="0.75" />
<rect x="789.4054054054054" y="444.6586890061144" width="2" height="25.341310993885624" fill="#8aa6c1" opacity="0.75" />
<rect x="792.6795366795367" y="442.56061923030813" width="2" height="27.439380769691883" fill="#8aa6c1" opacity="0.75" />
<rect x="795.953667953668" y="443.7760010790073" width="2" height="26.223998920992685" fill="#8aa6c1" opacity="0.75" />
<rect x="799.2277992277992" y="441.9930164248891" width="2" height="28.0069835751109" fill="#8aa6c1" opacity="0.75" />
<rect x="802.5019305019305" y="437.9118960556288" width="2" height="32.08810394437118" fill="#8aa6c1" opacity="0.75" />
<rect x="805.7760617760617" y="427.1195749910083" width="2" height="42.88042500899173" fill="#8aa6c1" opacity="0.75" />
<rect x="809.050193050193" y="386.16225572473326" width="2" height="83.83774427526676" fill="#8aa6c1" opacity="0.75" />
<rect x="812.3243243243244" y="421.88301762378615" width="2" height="48.11698237621388" fill="#8aa6c1" opacity="0.75" />
<rect x="815.5984555984556" y="378.02923810094717" width="2" height="91.97076189905286" fill="#8aa6c1" opacity="0.75" />
<rect x="818.8725868725869" y="407.53671622107663" width="2" height="62.4632837789234" fill="#8aa6c1" opacity="0.75" />
<rect x="822.1467181467182" y="423.93463014027094" width="2" height="46.06536985972905" fill="#8aa6c1" opacity="0.75" />
<rect x="825.4208494208494" y="432.8034708068577" width="2" height="37.19652919314231" fill="#8aa6c1" opacity="0.75" />
<rect x="828.6949806949807" y="439.38766334971825" width="2" height="30.61233665028174" fill="#8aa6c1" opacity="0.75" />
<rect x="831.969111969112" y="428.02024637333653" width="2" height="41.97975362666347" fill="#8aa6c1" opacity="0.75" />
<rect x="835.2432432432432" y="436.47434360388445" width="2" height="33.52565639611557" fill="#8aa6c1" opacity="0.75" />
<rect x="838.5173745173745" y="433.78581704831555" width="2" height="36.21418295168445" fill="#8aa6c1" opacity="0.75" />
<rect x="841.7915057915058" y="440.8417006354154" width="2" height="29.158299364584582" fill="#8aa6c1" opacity="0.75" />
<rect x="845.065637065637" y="422.3730667785637" width="2" height="47.62693322143628" fill="#8aa6c1" opacity="0.75" />
<rect x="848.3397683397683" y="435.4166916436878" width="2" height="34.583308356312195" fill="#8aa6c1" opacity="0.75" />
<rect x="851.6138996138997" y="422.36932022539264" width="2" height="47.63067977460736" fill="#8aa6c1" opacity="0.75" />
<rect x="854.8880308880309" y="428.7223504375974" width="2" height="41.277649562402594" fill="#8aa6c1" opacity="0.75" />
<rect x="858.1621621621622" y="428.6500419613955" width="2" height="41.349958038604484" fill="#8aa6c1" opacity="0.75" />
<rect x="861.4362934362935" y="432.11260640211003" width="2" height="37.88739359788994" fill="#8aa6c1" opacity="0.75" />
<rect x="864.7104247104247" y="432.5981596930824" width="2" height="37.401840306917634" fill="#8aa6c1" opacity="0.75" />
<rect x="867.984555984556" y="409.7082184390361" width="2" height="60.29178156096391" fill="#8aa6c1" opacity="0.75" />
<rect x="871.2586872586872" y="438.4562702313871" width="2" height="31.543729768612877" fill="#8aa6c1" opacity="0.75" />
<rect x="874.5328185328185" y="423.97097170603047" width="2" height="46.029028293969546" fill="#8aa6c1" opacity="0.75" />
<rect x="877.8069498069498" y="443.04205131279224" width="2" height="26.957948687207768" fill="#8aa6c1" opacity="0.75" />
<rect x="881.081081081081" y="432.4363085960916" width="2" height="37.56369140390841" fill="#8aa6c1" opacity="0.75" />
<rect x="884.3552123552123" y="448.04145186428485" width="2" height="21.95854813571514" fill="#8aa6c1" opacity="0.75" />
<rect x="887.6293436293437" y="438.8773828078168" width="2" height="31.122617192183196" fill="#8aa6c1" opacity="0.75" />
<rect x="890.903474903475" y="442.3792860568277" width="2" height="27.62071394317228" fill="#8aa6c1" opacity="0.75" />
<rect x="894.1776061776062" y="431.78665627622587" width="2" height="38.21334372377413" fill="#8aa6c1" opacity="0.75" />
<rect x="897.4517374517375" y="431.2482765855413" width="2" height="38.7517234144587" fill="#8aa6c1" opacity="0.75" />
<rect x="900.7258687258687" y="411.6406905646805" width="2" height="58.3593094353195" fill="#8aa6c1" opacity="0.75" />
<rect x="904.0" y="445.6039443711785" width="2" height="24.396055628821482" fill="#8aa6c1" opacity="0.75" />
</svg>