<svg xmlns="http://www.w3.org/2000/svg" width="960" height="520" viewBox="0 0 960 520"><rect width="100%" height="100%" fill="white" />
<text x="56.00" y="32.00" font-size="20" font-family="Arial" fill="#1f2933" text-anchor="start">TSLA Price / Volume</text>
<line x1="56" y1="244" x2="904" y2="244" stroke="#cbd2d9" />
<line x1="56" y1="56" x2="56" y2="244" stroke="#cbd2d9" />
<text x="16.00" y="38.00" font-size="12" font-family="Arial" fill="#52606d" text-anchor="start">Price</text>
<line x1="56" y1="244.00" x2="904" y2="244.00" stroke="#edf2f7" />
<line x1="52" y1="244.00" x2="56" y2="244.00" stroke="#9fb3c8" />
<text x="48.00" y="248.00" font-size="11" font-family="Arial" fill="#52606d" text-anchor="end">282</text>
<line x1="56" y1="197.00" x2="904" y2="197.00" stroke="#edf2f7" />
<line x1="52" y1="197.00" x2="56" y2="197.00" stroke="#9fb3c8" />
<text x="48.00" y="201.00" font-size="11" font-family="Arial" fill="#52606d" text-anchor="end">337</text>
<line x1="56" y1="150.00" x2="904" y2="150.00" stroke="#edf2f7" />
<line x1="52" y1="150.00" x2="56" y2="150.00" stroke="#9fb3c8" />
<text x="48.00" y="154.00" font-size="11" font-family="Arial" fill="#52606d" text-anchor="end">392</text>
<line x1="56" y1="103.00" x2="904" y2="103.00" stroke="#edf2f7" />
<line x1="52" y1="103.00" x2="56" y2="103.00" stroke="#9fb3c8" />
<text x="48.00" y="107.00" font-size="11" font-family="Arial" fill="#52606d" text-anchor="end">447</text>
<line x1="56" y1="56.00" x2="904" y2="56.00" stroke="#edf2f7" />
<line x1="52" y1="56.00" x2="56" y2="56.00" stroke="#9fb3c8" />
<text x="48.00" y="60.00" font-size="11" font-family="Arial" fill="#52606d" text-anchor="end">502</text>
<polyline fill="none" stroke="#1f77b4" stroke-width="2" points="56.00,187.03 59.27,194.07 62.55,205.14 65.82,206.65 69.10,208.49 72.37,213.61 75.64,228.13 78.92,215.33 82.19,215.59 85.47,233.93 88.74,230.61 92.02,232.27 95.29,220.28 98.56,217.16 101.84,214.26 105.11,219.50 108.39,210.17 111.66,212.11 114.93,203.34 118.21,204.33 121.48,201.23 124.76,200.84 128.03,224.20 131.31,214.98 134.58,206.81 137.85,210.58 141.13,212.43 144.40,221.65 147.68,226.48 150.95,220.80 154.22,221.27 157.50,211.68 160.77,209.66 164.05,203.34 167.32,195.30 170.59,193.75 173.87,195.00 177.14,198.26 180.42,202.56 183.69,198.62 186.97,203.63 190.24,208.26 193.51,211.51 196.79,194.46 200.06,188.82 203.34,184.47 206.61,186.25 209.88,189.35 213.16,199.72 216.43,203.59 219.71,199.53 222.98,195.73 226.25,185.18 229.53,188.99 232.80,188.50 236.08,187.80 239.35,169.79 242.63,146.55 245.90,134.47 249.17,124.55 252.45,120.92 255.72,128.63 259.00,120.74 262.27,113.76 265.54,120.92 268.82,106.41 272.09,123.03 275.37,108.46 278.64,106.05 281.92,104.76 285.19,92.13 288.46,112.23 291.74,117.51 295.01,97.45 298.29,114.72 301.56,109.92 304.83,112.62 308.11,131.51 311.38,112.31 314.66,118.02 317.93,112.96 321.20,118.44 324.48,109.39 327.75,102.44 331.03,106.58 334.30,109.68 337.58,101.11 340.85,114.18 344.12,98.16 347.40,91.20 350.67,90.38 353.95,108.72 357.22,94.62 360.49,84.50 363.77,105.15 367.04,89.90 370.32,103.74 373.59,117.78 376.86,104.32 380.14,109.13 383.41,116.86 386.69,141.36 389.96,139.34 393.24,135.43 396.51,142.00 399.78,139.65 403.06,147.16 406.33,150.70 409.61,127.84 412.88,126.45 416.15,120.30 419.43,117.22 422.70,117.25 425.98,118.02 429.25,103.03 432.53,96.35 435.80,95.95 439.07,109.16 442.35,104.37 445.62,98.99 448.90,102.90 452.17,92.56 455.44,78.55 458.72,66.07 461.99,85.45 465.27,71.65 468.54,73.51 471.81,67.06 475.09,69.77 478.36,69.91 481.64,78.66 484.91,91.98 488.19,96.44 491.46,100.48 494.73,110.46 498.01,98.81 501.28,114.83 504.56,116.16 507.83,112.40 511.10,104.51 514.38,101.13 517.65,102.63 520.93,109.49 524.20,110.03 527.47,110.94 530.75,126.58 534.02,116.14 537.30,100.78 540.57,101.04 543.85,112.91 547.12,116.60 550.39,116.12 553.67,128.88 556.94,117.02 560.22,124.39 563.49,124.26 566.76,137.92 570.04,145.46 573.31,133.55 576.59,128.23 579.86,121.47 583.14,118.85 586.41,128.45 589.68,128.13 592.96,133.96 596.23,133.37 599.51,133.04 602.78,132.94 606.05,143.22 609.33,135.03 612.60,128.16 615.88,135.72 619.15,140.92 622.42,140.23 625.70,149.55 628.97,137.98 632.25,138.31 635.52,145.87 638.80,144.20 642.07,143.72 645.34,136.37 648.62,147.34 651.89,150.61 655.17,146.87 658.44,143.69 661.71,149.25 664.99,159.95 668.26,170.52 671.54,159.47 674.81,157.61 678.08,155.11 681.36,166.96 684.63,175.77 687.91,181.38 691.18,167.27 694.46,159.12 697.73,176.83 701.00,183.49 704.28,188.77 707.55,191.69 710.83,189.66 714.10,186.80 717.37,183.83 720.65,173.74 723.92,149.97 727.20,152.58 730.47,142.54 733.75,149.49 737.02,154.70 740.29,153.77 743.57,165.58 746.84,163.37 750.12,161.34 753.39,163.61 756.66,166.37 759.94,158.81 763.21,150.93 766.49,149.49 769.76,152.18 773.03,144.16 776.31,132.97 779.58,118.78 782.86,104.52 786.13,114.41 789.41,104.29 792.68,105.98 795.95,124.02 799.23,134.51 802.50,139.55 805.78,128.28 809.05,127.78 812.32,120.79 815.60,114.29 818.87,108.49 822.15,107.00 825.42,112.41 828.69,129.47 831.97,122.73 835.24,122.77 838.52,127.26 841.79,150.78 845.07,135.40 848.34,145.91 851.61,158.84 854.89,143.80 858.16,137.56 861.44,133.52 864.71,139.08 867.98,146.17 871.26,142.65 874.53,138.74 877.81,158.82 881.08,164.03 884.36,164.38 887.63,160.45 890.90,132.93 894.18,125.42 897.45,121.40 900.73,148.68 904.00,126.13" />
<line x1="56" y1="470" x2="904" y2="470" stroke="#cbd2d9" />
<line x1="56" y1="370" x2="56" y2="470" stroke="#cbd2d9" />
<text x="16.00" y="362.00" font-size="12" font-family="Arial" fill="#52606d" text-anchor="start">Volume</text>
<line x1="56" y1="470.00" x2="904" y2="470.00" stroke="#edf2f7" />
<line x1="52" y1="470.00" x2="56" y2="470.00" stroke="#9fb3c8" />
<text x="48.00" y="474.00" font-size="11" font-family="Arial" fill="#52606d" text-anchor="end">0</text>
<line x1="56" y1="420.00" x2="904" y2="420.00" stroke="#edf2f7" />
<line x1="52" y1="420.00" x2="56" y2="420.00" stroke="#9fb3c8" />
<text x="48.00" y="424.00" font-size="11" font-family="Arial" fill="#52606d" text-anchor="end">95.4M</text>
<line x1="56" y1="370.00" x2="904" y2="370.00" stroke="#edf2f7" />
<line x1="52" y1="370.00" x2="56" y2="370.00" stroke="#9fb3c8" />
<text x="48.00" y="374.00" font-size="11" font-family="Arial" fill="#52606d" text-anchor="end">190.7M</text>
<line x1="56.00" y1="470" x2="56.00" y2="474" stroke="#9fb3c8" />
<text x="56.00" y="488.00" font-size="11" font-family="Arial" fill="#52606d" text-anchor="middle">06/23</text>
<line x1="226.25" y1="470" x2="226.25" y2="474" stroke="#9fb3c8" />
<text x="226.25" y="488.00" font-size="11" font-family="Arial" fill="#52606d" text-anchor="middle">09/05</text>
<line x1="396.51" y1="470" x2="396.51" y2="474" stroke="#9fb3c8" />
<text x="396.51" y="488.00" font-size="11" font-family="Arial" fill="#52606d" text-anchor="middle">11/18</text>
<line x1="563.49" y1="470" x2="563.49" y2="474" stroke="#9fb3c8" />
<text x="563.49" y="488.00" font-size="11" font-family="Arial" fill="#52606d" text-anchor="middle">02/03</text>
<line x1="733.75" y1="470" x2="733.75" y2="474" stroke="#9fb3c8" />
<text x="733.75" y="488.00" font-size="11" font-family="Arial" fill="#52606d" text-anchor="middle">04/20</text>
<line x1="904.00" y1="470" x2="904.00" y2="474" stroke="#9fb3c8" />
<text x="904.00" y="488.00" font-size="11" font-family="Arial" fill="#52606d" text-anchor="middle">07/06</text>
<rect x="56.0" y="370.0" width="2" height="100.0" fill="#8aa6c1" opacity="0.75" />
<rect x="59.27413127413127" y="409.83948975653954" width="2" height="60.160510243460465" fill="#8aa6c1" opacity="0.75" />
<rect x="62.54826254826255" y="407.1607011023675" width="2" height="62.83929889763251" fill="#8aa6c1" opacity="0.75" />
<rect x="65.82239382239382" y="427.8218069934059" width="2" height="42.17819300659407" fill="#8aa6c1" opacity="0.75" />
<rect x="69.0965250965251" y="423.2988179331868" width="2" height="46.7011820668132" fill="#8aa6c1" opacity="0.75" />
<rect x="72.37065637065638" y="429.78587098776825" width="2" height="40.214129012231744" fill="#8aa6c1" opacity="0.75" />
<rect x="75.64478764478764" y="393.92610404536987" width="2" height="76.07389595463012" fill="#8aa6c1" opacity="0.75" />
<rect x="78.91891891891892" y="407.3501967314888" width="2" height="62.64980326851122" fill="#8aa6c1" opacity="0.75" />
<rect x="82.1930501930502" y="439.56623643014143" width="2" height="30.433763569858556" fill="#8aa6c1" opacity="0.75" />
<rect x="85.46718146718146" y="401.218487306834" width="2" height="68.781512693166" fill="#8aa6c1" opacity="0.75" />
<rect x="88.74131274131274" y="415.86386726287355" width="2" height="54.13613273712647" fill="#8aa6c1" opacity="0.75" />
<rect x="92.01544401544402" y="430.36699441265796" width="2" height="39.63300558734207" fill="#8aa6c1" opacity="0.75" />
<rect x="95.28957528957528" y="415.27734316012015" width="2" height="54.72265683987987" fill="#8aa6c1" opacity="0.75" />
<rect x="98.56370656370656" y="428.4533717008675" width="2" height="41.546628299132536" fill="#8aa6c1" opacity="0.75" />
<rect x="101.83783783783784" y="429.07890652527726" width="2" height="40.92109347472273" fill="#8aa6c1" opacity="0.75" />
<rect x="105.1119691119691" y="429.33431139784227" width="2" height="40.66568860215776" fill="#8aa6c1" opacity="0.75" />
<rect x="108.3861003861004" y="418.98991593818687" width="2" height="51.010084061813124" fill="#8aa6c1" opacity="0.75" />
<rect x="111.66023166023166" y="431.23943983959464" width="2" height="38.760560160405376" fill="#8aa6c1" opacity="0.75" />
<rect x="114.93436293436294" y="420.578554170372" width="2" height="49.42144582962801" fill="#8aa6c1" opacity="0.75" />
<rect x="118.20849420849422" y="430.27156495914363" width="2" height="39.72843504085639" fill="#8aa6c1" opacity="0.75" />
<rect x="121.48262548262548" y="429.4317857682176" width="2" height="40.56821423178241" fill="#8aa6c1" opacity="0.75" />
<rect x="124.75675675675676" y="421.47055739190256" width="2" height="48.52944260809745" fill="#8aa6c1" opacity="0.75" />
<rect x="128.03088803088804" y="387.69681538280844" width="2" height="82.30318461719156" fill="#8aa6c1" opacity="0.75" />
<rect x="131.3050193050193" y="392.27900216446585" width="2" height="77.72099783553415" fill="#8aa6c1" opacity="0.75" />
<rect x="134.57915057915056" y="410.92088373966004" width="2" height="59.07911626033994" fill="#8aa6c1" opacity="0.75" />
<rect x="137.85328185328186" y="424.1944390845484" width="2" height="45.80556091545161" fill="#8aa6c1" opacity="0.75" />
<rect x="141.12741312741312" y="425.9913442339637" width="2" height="44.00865576603634" fill="#8aa6c1" opacity="0.75" />
<rect x="144.4015444015444" y="425.2892561116797" width="2" height="44.71074388832027" fill="#8aa6c1" opacity="0.75" />
<rect x="147.67567567567568" y="423.27029396466384" width="2" height="46.729706035336164" fill="#8aa6c1" opacity="0.75" />
<rect x="150.94980694980694" y="428.7430682561788" width="2" height="41.256931743821205" fill="#8aa6c1" opacity="0.75" />
<rect x="154.2239382239382" y="439.6087077803319" width="2" height="30.391292219668113" fill="#8aa6c1" opacity="0.75" />
<rect x="157.4980694980695" y="428.82711958254333" width="2" height="41.17288041745667" fill="#8aa6c1" opacity="0.75" />
<rect x="160.7722007722008" y="435.04833344519204" width="2" height="34.951666554807964" fill="#8aa6c1" opacity="0.75" />
<rect x="164.04633204633205" y="422.1802484102082" width="2" height="47.81975158979178" fill="#8aa6c1" opacity="0.75" />
<rect x="167.32046332046332" y="414.77665313176396" width="2" height="55.22334686823604" fill="#8aa6c1" opacity="0.75" />
<rect x="170.59459459459458" y="427.77923077568414" width="2" height="42.220769224315845" fill="#8aa6c1" opacity="0.75" />
<rect x="173.86872586872587" y="434.42951014278765" width="2" height="35.570489857212365" fill="#8aa6c1" opacity="0.75" />
<rect x="177.14285714285714" y="430.6743087132335" width="2" height="39.325691286766556" fill="#8aa6c1" opacity="0.75" />
<rect x="180.41698841698843" y="431.0313302236615" width="2" height="38.96866977633853" fill="#8aa6c1" opacity="0.75" />
<rect x="183.6911196911197" y="440.13550982399033" width="2" height="29.864490176009667" fill="#8aa6c1" opacity="0.75" />
<rect x="186.96525096525096" y="430.1734089498146" width="2" height="39.82659105018541" fill="#8aa6c1" opacity="0.75" />
<rect x="190.23938223938225" y="429.37337455326434" width="2" height="40.62662544673568" fill="#8aa6c1" opacity="0.75" />
<rect x="193.51351351351352" y="440.77111193140826" width="2" height="29.228888068591758" fill="#8aa6c1" opacity="0.75" />
<rect x="196.78764478764478" y="420.7037135690196" width="2" height="49.29628643098039" fill="#8aa6c1" opacity="0.75" />
<rect x="200.06177606177607" y="424.5556552962298" width="2" height="45.4443447037702" fill="#8aa6c1" opacity="0.75" />
<rect x="203.33590733590734" y="429.8086796758335" width="2" height="40.19132032416651" fill="#8aa6c1" opacity="0.75" />
<rect x="206.6100386100386" y="435.6459210725012" width="2" height="34.35407892749878" fill="#8aa6c1" opacity="0.75" />
<rect x="209.8841698841699" y="434.39579523146364" width="2" height="35.604204768536384" fill="#8aa6c1" opacity="0.75" />
<rect x="213.15830115830116" y="427.45225381298343" width="2" height="42.547746187016564" fill="#8aa6c1" opacity="0.75" />
<rect x="216.43243243243242" y="439.3828755516032" width="2" height="30.617124448396787" fill="#8aa6c1" opacity="0.75" />
<rect x="219.7065637065637" y="423.4737894092183" width="2" height="46.52621059078172" fill="#8aa6c1" opacity="0.75" />
<rect x="222.98069498069498" y="438.1669365257806" width="2" height="31.833063474219365" fill="#8aa6c1" opacity="0.75" />
<rect x="226.25482625482624" y="412.85254366684006" width="2" height="57.14745633315995" fill="#8aa6c1" opacity="0.75" />
<rect x="229.52895752895753" y="430.5654562157083" width="2" height="39.434543784291684" fill="#8aa6c1" opacity="0.75" />
<rect x="232.8030888030888" y="441.7822446685347" width="2" height="28.217755331465295" fill="#8aa6c1" opacity="0.75" />
<rect x="236.0772200772201" y="432.1838768267924" width="2" height="37.81612317320761" fill="#8aa6c1" opacity="0.75" />
<rect x="239.35135135135135" y="415.59682209433043" width="2" height="54.40317790566955" fill="#8aa6c1" opacity="0.75" />
<rect x="242.62548262548262" y="381.82926726958505" width="2" height="88.17073273041494" fill="#8aa6c1" opacity="0.75" />
<rect x="245.8996138996139" y="384.10106503464823" width="2" height="85.89893496535177" fill="#8aa6c1" opacity="0.75" />
<rect x="249.17374517374517" y="415.31908043759125" width="2" height="54.68091956240877" fill="#8aa6c1" opacity="0.75" />
<rect x="252.44787644787644" y="414.35020931559256" width="2" height="55.64979068440745" fill="#8aa6c1" opacity="0.75" />
<rect x="255.72200772200773" y="422.57129943455425" width="2" height="47.42870056544573" fill="#8aa6c1" opacity="0.75" />
<rect x="258.996138996139" y="421.16790969647144" width="2" height="48.83209030352858" fill="#8aa6c1" opacity="0.75" />
<rect x="262.27027027027026" y="419.0821993657612" width="2" height="50.91780063423883" fill="#8aa6c1" opacity="0.75" />
<rect x="265.5444015444016" y="426.2583369687411" width="2" height="43.741663031258916" fill="#8aa6c1" opacity="0.75" />
<rect x="268.81853281853284" y="421.16654641856405" width="2" height="48.83345358143593" fill="#8aa6c1" opacity="0.75" />
<rect x="272.0926640926641" y="419.2722193325391" width="2" height="50.72778066746086" fill="#8aa6c1" opacity="0.75" />
<rect x="275.3667953667954" y="416.7125077601973" width="2" height="53.28749223980268" fill="#8aa6c1" opacity="0.75" />
<rect x="278.64092664092664" y="428.31961316465043" width="2" height="41.68038683534959" fill="#8aa6c1" opacity="0.75" />
<rect x="281.9150579150579" y="431.0113005251766" width="2" height="38.9886994748234" fill="#8aa6c1" opacity="0.75" />
<rect x="285.18918918918916" y="418.550783150724" width="2" height="51.44921684927599" fill="#8aa6c1" opacity="0.75" />
<rect x="288.46332046332043" y="398.16102199701334" width="2" height="71.83897800298664" fill="#8aa6c1" opacity="0.75" />
<rect x="291.73745173745175" y="400.1644113156261" width="2" height="69.83558868437389" fill="#8aa6c1" opacity="0.75" />
<rect x="295.011583011583" y="425.26094187821946" width="2" height="44.739058121780566" fill="#8aa6c1" opacity="0.75" />
<rect x="298.2857142857143" y="416.36230263930605" width="2" height="53.63769736069397" fill="#8aa6c1" opacity="0.75" />
<rect x="301.5598455598456" y="432.6713011124348" width="2" height="37.328698887565224" fill="#8aa6c1" opacity="0.75" />
<rect x="304.83397683397686" y="433.6424793201228" width="2" height="36.35752067987718" fill="#8aa6c1" opacity="0.75" />
<rect x="308.1081081081081" y="411.2176064195708" width="2" height="58.7823935804292" fill="#8aa6c1" opacity="0.75" />
<rect x="311.3822393822394" y="428.2874712662964" width="2" height="41.712528733703586" fill="#8aa6c1" opacity="0.75" />
<rect x="314.65637065637065" y="431.8966970922331" width="2" height="38.1033029077669" fill="#8aa6c1" opacity="0.75" />
<rect x="317.9305019305019" y="432.4793410963271" width="2" height="37.52065890367288" fill="#8aa6c1" opacity="0.75" />
<rect x="321.2046332046332" y="429.5264287152469" width="2" height="40.4735712847531" fill="#8aa6c1" opacity="0.75" />
<rect x="324.4787644787645" y="423.16007818923134" width="2" height="46.83992181076864" fill="#8aa6c1" opacity="0.75" />
<rect x="327.75289575289577" y="436.589728854511" width="2" height="33.41027114548902" fill="#8aa6c1" opacity="0.75" />
<rect x="331.02702702702703" y="441.4696345576268" width="2" height="28.530365442373196" fill="#8aa6c1" opacity="0.75" />
<rect x="334.3011583011583" y="425.9433149046125" width="2" height="44.05668509538751" fill="#8aa6c1" opacity="0.75" />
<rect x="337.57528957528956" y="403.5612803906106" width="2" height="66.43871960938942" fill="#8aa6c1" opacity="0.75" />
<rect x="340.8494208494208" y="420.3306473262974" width="2" height="49.669352673702576" fill="#8aa6c1" opacity="0.75" />
<rect x="344.12355212355214" y="414.4896831322673" width="2" height="55.510316867732676" fill="#8aa6c1" opacity="0.75" />
<rect x="347.3976833976834" y="427.95561796338865" width="2" height="42.04438203661135" fill="#8aa6c1" opacity="0.75" />
<rect x="350.6718146718147" y="434.35369091763283" width="2" height="35.646309082367154" fill="#8aa6c1" opacity="0.75" />
<rect x="353.94594594594594" y="432.01283788318597" width="2" height="37.98716211681404" fill="#8aa6c1" opacity="0.75" />
<rect x="357.2200772200772" y="426.4087694424403" width="2" height="43.59123055755969" fill="#8aa6c1" opacity="0.75" />
<rect x="360.4942084942085" y="425.64355106629307" width="2" height="44.35644893370694" fill="#8aa6c1" opacity="0.75" />
<rect x="363.7683397683398" y="423.9859099984899" width="2" height="46.01409000151009" fill="#8aa6c1" opacity="0.75" />
<rect x="367.04247104247105" y="425.13085370559907" width="2" height="44.86914629440091" fill="#8aa6c1" opacity="0.75" />
<rect x="370.3166023166023" y="412.52058549640094" width="2" height="57.47941450359906" fill="#8aa6c1" opacity="0.75" />
<rect x="373.5907335907336" y="415.7459961576537" width="2" height="54.25400384234634" fill="#8aa6c1" opacity="0.75" />
<rect x="376.86486486486484" y="429.87983229584387" width="2" height="40.12016770415611" fill="#8aa6c1" opacity="0.75" />
<rect x="380.13899613899616" y="438.26016376113694" width="2" height="31.739836238863067" fill="#8aa6c1" opacity="0.75" />
<rect x="383.4131274131274" y="439.3191685263175" width="2" height="30.680831473682446" fill="#8aa6c1" opacity="0.75" />
<rect x="386.6872586872587" y="407.631084414168" width="2" height="62.36891558583197" fill="#8aa6c1" opacity="0.75" />
<rect x="389.96138996138995" y="414.6788641587946" width="2" height="55.32113584120539" fill="#8aa6c1" opacity="0.75" />
<rect x="393.2355212355212" y="416.4051934596218" width="2" height="53.594806540378194" fill="#8aa6c1" opacity="0.75" />
<rect x="396.5096525096525" y="427.6919285558483" width="2" height="42.30807144415174" fill="#8aa6c1" opacity="0.75" />
<rect x="399.7837837837838" y="432.2226778133861" width="2" height="37.77732218661387" fill="#8aa6c1" opacity="0.75" />
<rect x="403.05791505791507" y="410.46208829007196" width="2" height="59.53791170992802" fill="#8aa6c1" opacity="0.75" />
<rect x="406.33204633204633" y="417.3247244081276" width="2" height="52.67527559187235" fill="#8aa6c1" opacity="0.75" />
<rect x="409.6061776061776" y="419.2407590731388" width="2" height="50.759240926861196" fill="#8aa6c1" opacity="0.75" />
<rect x="412.88030888030886" y="432.29194281783253" width="2" height="37.70805718216749" fill="#8aa6c1" opacity="0.75" />
<rect x="416.1544401544402" y="436.723959294619" width="2" height="33.27604070538096" fill="#8aa6c1" opacity="0.75" />
<rect x="419.42857142857144" y="450.9912393664323" width="2" height="19.00876063356768" fill="#8aa6c1" opacity="0.75" />
<rect x="422.7027027027027" y="439.8696706320576" width="2" height="30.130329367942416" fill="#8aa6c1" opacity="0.75" />
<rect x="425.976833976834" y="433.6442096343898" width="2" height="36.35579036561016" fill="#8aa6c1" opacity="0.75" />
<rect x="429.25096525096524" y="424.12936878135537" width="2" height="45.87063121864461" fill="#8aa6c1" opacity="0.75" />
<rect x="432.5250965250965" y="432.29671429050825" width="2" height="37.703285709491766" fill="#8aa6c1" opacity="0.75" />
<rect x="435.7992277992278" y="440.41293687813555" width="2" height="29.58706312186446" fill="#8aa6c1" opacity="0.75" />
<rect x="439.0733590733591" y="433.73376650614944" width="2" height="36.26623349385057" fill="#8aa6c1" opacity="0.75" />
<rect x="442.34749034749035" y="437.298423631269" width="2" height="32.70157636873102" fill="#8aa6c1" opacity="0.75" />
<rect x="445.6216216216216" y="436.8317106830651" width="2" height="33.168289316934846" fill="#8aa6c1" opacity="0.75" />
<rect x="448.8957528957529" y="440.64784014832463" width="2" height="29.352159851675363" fill="#8aa6c1" opacity="0.75" />
<rect x="452.16988416988414" y="419.8435900770147" width="2" height="50.15640992298529" fill="#8aa6c1" opacity="0.75" />
<rect x="455.44401544401546" y="409.9412112619339" width="2" height="60.05878873806607" fill="#8aa6c1" opacity="0.75" />
<rect x="458.7181467181467" y="413.5770210070639" width="2" height="56.42297899293612" fill="#8aa6c1" opacity="0.75" />
<rect x="461.992277992278" y="414.16307320592625" width="2" height="55.836926794073726" fill="#8aa6c1" opacity="0.75" />
<rect x="465.26640926640925" y="420.0996241547677" width="2" height="49.900375845232304" fill="#8aa6c1" opacity="0.75" />
<rect x="468.5405405405405" y="415.8330886424269" width="2" height="54.16691135757311" fill="#8aa6c1" opacity="0.75" />
<rect x="471.81467181467184" y="424.4266157989228" width="2" height="45.5733842010772" fill="#8aa6c1" opacity="0.75" />
<rect x="475.0888030888031" y="439.4711740129868" width="2" height="30.528825987013203" fill="#8aa6c1" opacity="0.75" />
<rect x="478.36293436293437" y="448.35251010923" width="2" height="21.64748989076998" fill="#8aa6c1" opacity="0.75" />
<rect x="481.63706563706563" y="439.1790655044548" width="2" height="30.820934495545227" fill="#8aa6c1" opacity="0.75" />
<rect x="484.9111969111969" y="435.25581385593716" width="2" height="34.74418614406282" fill="#8aa6c1" opacity="0.75" />
<rect x="488.18532818532816" y="438.9390237252303" width="2" height="31.060976274769708" fill="#8aa6c1" opacity="0.75" />
<rect x="491.4594594594595" y="444.2665564858471" width="2" height="25.73344351415292" fill="#8aa6c1" opacity="0.75" />
<rect x="494.73359073359075" y="425.15056880148995" width="2" height="44.84943119851004" fill="#8aa6c1" opacity="0.75" />
<rect x="498.007722007722" y="434.37608013557275" width="2" height="35.62391986442726" fill="#8aa6c1" opacity="0.75" />
<rect x="501.2818532818533" y="423.284765683988" width="2" height="46.71523431601201" fill="#8aa6c1" opacity="0.75" />
<rect x="504.55598455598454" y="438.6295072064968" width="2" height="31.370492793503246" fill="#8aa6c1" opacity="0.75" />
<rect x="507.83011583011586" y="440.0912032920015" width="2" height="29.90879670799846" fill="#8aa6c1" opacity="0.75" />
<rect x="511.1042471042471" y="434.69555906978303" width="2" height="35.30444093021695" fill="#8aa6c1" opacity="0.75" />
<rect x="514.3783783783783" y="437.6747932012282" width="2" height="32.325206798771795" fill="#8aa6c1" opacity="0.75" />
<rect x="517.6525096525097" y="441.8330005537006" width="2" height="28.166999446299435" fill="#8aa6c1" opacity="0.75" />
<rect x="520.9266409266409" y="439.97668794778434" width="2" height="30.02331205221564" fill="#8aa6c1" opacity="0.75" />
<rect x="524.2007722007722" y="444.06321834258966" width="2" height="25.936781657410357" fill="#8aa6c1" opacity="0.75" />
<rect x="527.4749034749035" y="438.4240717126126" width="2" height="31.575928287387374" fill="#8aa6c1" opacity="0.75" />
<rect x="530.7490347490348" y="436.8685191865635" width="2" height="33.13148081343647" fill="#8aa6c1" opacity="0.75" />
<rect x="534.023166023166" y="434.2800214768704" width="2" height="35.71997852312958" fill="#8aa6c1" opacity="0.75" />
<rect x="537.2972972972973" y="432.48537097937884" width="2" height="37.51462902062116" fill="#8aa6c1" opacity="0.75" />
<rect x="540.5714285714286" y="440.232617158006" width="2" height="29.767382841993996" fill="#8aa6c1" opacity="0.75" />
<rect x="543.8455598455598" y="444.099083038306" width="2" height="25.900916961693987" fill="#8aa6c1" opacity="0.75" />
<rect x="547.1196911196912" y="450.2151147670263" width="2" height="19.784885232973707" fill="#8aa6c1" opacity="0.75" />
<rect x="550.3938223938223" y="441.2361994328764" width="2" height="28.76380056712361" fill="#8aa6c1" opacity="0.75" />
<rect x="553.6679536679537" y="427.16890174331786" width="2" height="42.83109825668216" fill="#8aa6c1" opacity="0.75" />
<rect x="556.9420849420849" y="426.67602434604606" width="2" height="43.32397565395393" fill="#8aa6c1" opacity="0.75" />
<rect x="560.2162162162163" y="439.2006682159097" width="2" height="30.799331784090338" fill="#8aa6c1" opacity="0.75" />
<rect x="563.4903474903475" y="440.1722658937231" width="2" height="29.82773410627695" fill="#8aa6c1" opacity="0.75" />
<rect x="566.7644787644788" y="430.8807928824309" width="2" height="39.11920711756909" fill="#8aa6c1" opacity="0.75" />
<rect x="570.03861003861" y="431.81783670866963" width="2" height="38.18216329133039" fill="#8aa6c1" opacity="0.75" />
<rect x="573.3127413127413" y="437.13603625899765" width="2" height="32.863963741002365" fill="#8aa6c1" opacity="0.75" />
<rect x="576.5868725868726" y="441.43182981258076" width="2" height="28.568170187419252" fill="#8aa6c1" opacity="0.75" />
<rect x="579.8610038610038" y="436.20633315995235" width="2" height="33.793666840047656" fill="#8aa6c1" opacity="0.75" />
<rect x="583.1351351351351" y="439.9229433379755" width="2" height="30.077056662024532" fill="#8aa6c1" opacity="0.75" />
<rect x="586.4092664092664" y="437.5259861742647" width="2" height="32.474013825735334" fill="#8aa6c1" opacity="0.75" />
<rect x="589.6833976833976" y="443.03116453296195" width="2" height="26.968835467038037" fill="#8aa6c1" opacity="0.75" />
<rect x="592.957528957529" y="438.7081578549976" width="2" height="31.291842145002434" fill="#8aa6c1" opacity="0.75" />
<rect x="596.2316602316603" y="445.9216807328982" width="2" height="24.078319267101797" fill="#8aa6c1" opacity="0.75" />
<rect x="599.5057915057915" y="443.2485024916525" width="2" height="26.751497508347455" fill="#8aa6c1" opacity="0.75" />
<rect x="602.7799227799228" y="439.6344527592745" width="2" height="30.365547240725515" fill="#8aa6c1" opacity="0.75" />
<rect x="606.0540540540541" y="433.46415208308866" width="2" height="36.53584791691136" fill="#8aa6c1" opacity="0.75" />
<rect x="609.3281853281853" y="439.2845622409772" width="2" height="30.7154377590228" fill="#8aa6c1" opacity="0.75" />
<rect x="612.6023166023166" y="441.26121033909965" width="2" height="28.73878966090035" fill="#8aa6c1" opacity="0.75" />
<rect x="615.8764478764479" y="441.8941907582342" width="2" height="28.1058092417658" fill="#8aa6c1" opacity="0.75" />
<rect x="619.1505791505791" y="440.17037827815903" width="2" height="29.829621721840972" fill="#8aa6c1" opacity="0.75" />
<rect x="622.4247104247104" y="441.1151298679508" width="2" height="28.884870132049194" fill="#8aa6c1" opacity="0.75" />
<rect x="625.6988416988416" y="437.16739165086665" width="2" height="32.83260834913337" fill="#8aa6c1" opacity="0.75" />
<rect x="628.972972972973" y="434.18485419218445" width="2" height="35.81514580781557" fill="#8aa6c1" opacity="0.75" />
<rect x="632.2471042471043" y="442.7732952734106" width="2" height="27.226704726589375" fill="#8aa6c1" opacity="0.75" />
<rect x="635.5212355212356" y="436.41376113693184" width="2" height="33.586238863068175" fill="#8aa6c1" opacity="0.75" />
<rect x="638.7953667953668" y="434.85946702125875" width="2" height="35.140532978741255" fill="#8aa6c1" opacity="0.75" />
<rect x="642.0694980694981" y="438.9284321045655" width="2" height="31.071567895434487" fill="#8aa6c1" opacity="0.75" />
<rect x="645.3436293436293" y="437.1974886323596" width="2" height="32.8025113676404" fill="#8aa6c1" opacity="0.75" />
<rect x="648.6177606177606" y="438.0291405896072" width="2" height="31.970859410392794" fill="#8aa6c1" opacity="0.75" />
<rect x="651.8918918918919" y="439.32409730029025" width="2" height="30.675902699709727" fill="#8aa6c1" opacity="0.75" />
<rect x="655.1660231660231" y="439.55260365106795" width="2" height="30.447396348932028" fill="#8aa6c1" opacity="0.75" />
<rect x="658.4401544401544" y="445.4135451098173" width="2" height="24.586454890182722" fill="#8aa6c1" opacity="0.75" />
<rect x="661.7142857142857" y="443.33580471148844" width="2" height="26.66419528851155" fill="#8aa6c1" opacity="0.75" />
<rect x="664.988416988417" y="434.82832136445245" width="2" height="35.17167863554758" fill="#8aa6c1" opacity="0.75" />
<rect x="668.2625482625483" y="428.7720641285928" width="2" height="41.22793587140724" fill="#8aa6c1" opacity="0.75" />
<rect x="671.5366795366796" y="430.88126478632194" width="2" height="39.11873521367808" fill="#8aa6c1" opacity="0.75" />
<rect x="674.8108108108108" y="438.5371713451568" width="2" height="31.4628286548432" fill="#8aa6c1" opacity="0.75" />
<rect x="678.0849420849421" y="441.0789505696404" width="2" height="28.92104943035957" fill="#8aa6c1" opacity="0.75" />
<rect x="681.3590733590734" y="440.8872527223611" width="2" height="29.112747277638885" fill="#8aa6c1" opacity="0.75" />
<rect x="684.6332046332046" y="437.45661630228693" width="2" height="32.54338369771305" fill="#8aa6c1" opacity="0.75" />
<rect x="687.9073359073359" y="434.368949143442" width="2" height="35.63105085655799" fill="#8aa6c1" opacity="0.75" />
<rect x="691.1814671814672" y="430.3942075370392" width="2" height="39.605792462960785" fill="#8aa6c1" opacity="0.75" />
<rect x="694.4555984555984" y="439.2298738233863" width="2" height="30.7701261766137" fill="#8aa6c1" opacity="0.75" />
<rect x="697.7297297297297" y="426.4636151613282" width="2" height="43.536384838671786" fill="#8aa6c1" opacity="0.75" />
<rect x="701.003861003861" y="429.2602224869545" width="2" height="40.739777513045524" fill="#8aa6c1" opacity="0.75" />
<rect x="704.2779922779923" y="430.92876977801643" width="2" height="39.07123022198359" fill="#8aa6c1" opacity="0.75" />
<rect x="707.5521235521236" y="428.6619532206916" width="2" height="41.33804677930838" fill="#8aa6c1" opacity="0.75" />
<rect x="710.8262548262549" y="437.4050739106361" width="2" height="32.594926089363916" fill="#8aa6c1" opacity="0.75" />
<rect x="714.1003861003861" y="443.0826020570815" width="2" height="26.9173979429185" fill="#8aa6c1" opacity="0.75" />
<rect x="717.3745173745174" y="441.8863256933841" width="2" height="28.11367430661588" fill="#8aa6c1" opacity="0.75" />
<rect x="720.6486486486486" y="438.5504370878706" width="2" height="31.449562912129398" fill="#8aa6c1" opacity="0.75" />
<rect x="723.9227799227799" y="410.32492155908653" width="2" height="59.675078440913445" fill="#8aa6c1" opacity="0.75" />
<rect x="727.1969111969112" y="436.69664130270644" width="2" height="33.303358697293575" fill="#8aa6c1" opacity="0.75" />
<rect x="730.4710424710424" y="422.4740347992416" width="2" height="47.5259652007584" fill="#8aa6c1" opacity="0.75" />
<rect x="733.7451737451737" y="436.1257424621218" width="2" height="33.87425753787815" fill="#8aa6c1" opacity="0.75" />
<rect x="737.019305019305" y="443.5049036057652" width="2" height="26.495096394234803" fill="#8aa6c1" opacity="0.75" />
<rect x="740.2934362934363" y="437.3008355844897" width="2" height="32.69916441551033" fill="#8aa6c1" opacity="0.75" />
<rect x="743.5675675675676" y="420.72825257135185" width="2" height="49.27174742864813" fill="#8aa6c1" opacity="0.75" />
<rect x="746.8416988416989" y="437.0226744576251" width="2" height="32.97732554237488" fill="#8aa6c1" opacity="0.75" />
<rect x="750.1158301158301" y="435.0079070118626" width="2" height="34.99209298813739" fill="#8aa6c1" opacity="0.75" />
<rect x="753.3899613899614" y="443.32987969596803" width="2" height="26.670120304031947" fill="#8aa6c1" opacity="0.75" />
<rect x="756.6640926640927" y="446.20304031946847" width="2" height="23.79695968053155" fill="#8aa6c1" opacity="0.75" />
<rect x="759.9382239382239" y="443.21892984781624" width="2" height="26.781070152183762" fill="#8aa6c1" opacity="0.75" />
<rect x="763.2123552123552" y="435.7406688870619" width="2" height="34.259331112938135" fill="#8aa6c1" opacity="0.75" />
<rect x="766.4864864864865" y="444.4306217386198" width="2" height="25.569378261380226" fill="#8aa6c1" opacity="0.75" />
<rect x="769.7606177606177" y="444.94683216161343" width="2" height="25.053167838386546" fill="#8aa6c1" opacity="0.75" />
<rect x="773.034749034749" y="441.96607745096395" width="2" height="28.033922549036056" fill="#8aa6c1" opacity="0.75" />
<rect x="776.3088803088804" y="436.2881298343932" width="2" height="33.711870165606804" fill="#8aa6c1" opacity="0.75" />
<rect x="779.5830115830116" y="435.8918354334804" width="2" height="34.10816456651957" fill="#8aa6c1" opacity="0.75" />
<rect x="782.8571428571429" y="428.9044593869025" width="2" height="41.09554061309753" fill="#8aa6c1" opacity="0.75" />
<rect x="786.1312741312742" y="438.2412351717311" width="2" height="31.75876482826893" fill="#8aa6c1" opacity="0.75" />
<rect x="789.4054054054054" y="434.19654692192825" width="2" height="35.803453078071776" fill="#8aa6c1" opacity="0.75" />
<rect x="792.6795366795367" y="445.84355442205407" width="2" height="24.156445577945938" fill="#8aa6c1" opacity="0.75" />
<rect x="795.953667953668" y="442.3733305089012" width="2" height="27.626669491098845" fill="#8aa6c1" opacity="0.75" />
<rect x="799.2277992277992" y="442.4858009362573" width="2" height="27.514199063742677" fill="#8aa6c1" opacity="0.75" />
<rect x="802.5019305019305" y="445.6179843621537" width="2" height="24.382015637846273" fill="#8aa6c1" opacity="0.75" />
<rect x="805.7760617760617" y="446.2502831423346" width="2" height="23.749716857665398" fill="#8aa6c1" opacity="0.75" />
<rect x="809.050193050193" y="447.6438677662377" width="2" height="22.35613223376231" fill="#8aa6c1" opacity="0.75" />
<rect x="812.3243243243244" y="445.8255696404302" width="2" height="24.17443035956979" fill="#8aa6c1" opacity="0.75" />
<rect x="815.5984555984556" y="446.0593193677746" width="2" height="23.940680632225373" fill="#8aa6c1" opacity="0.75" />
<rect x="818.8725868725869" y="446.58491543482273" width="2" height="23.415084565177267" fill="#8aa6c1" opacity="0.75" />
<rect x="822.1467181467182" y="452.9931081058407" width="2" height="17.0068918941593" fill="#8aa6c1" opacity="0.75" />
<rect x="825.4208494208494" y="446.3121025520562" width="2" height="23.687897447943758" fill="#8aa6c1" opacity="0.75" />
<rect x="828.6949806949807" y="446.4373668182352" width="2" height="23.562633181764795" fill="#8aa6c1" opacity="0.75" />
<rect x="831.969111969112" y="450.287001459756" width="2" height="19.712998540243966" fill="#8aa6c1" opacity="0.75" />
<rect x="835.2432432432432" y="446.66660724173227" width="2" height="23.333392758267756" fill="#8aa6c1" opacity="0.75" />
<rect x="838.5173745173745" y="451.4786636520747" width="2" height="18.521336347925303" fill="#8aa6c1" opacity="0.75" />
<rect x="841.7915057915058" y="436.74640094632457" width="2" height="33.2535990536754" fill="#8aa6c1" opacity="0.75" />
<rect x="845.065637065637" y="443.61071494488164" width="2" height="26.38928505511837" fill="#8aa6c1" opacity="0.75" />
<rect x="848.3397683397683" y="438.5710959915435" width="2" height="31.428904008456517" fill="#8aa6c1" opacity="0.75" />
<rect x="851.6138996138997" y="443.9427255490864" width="2" height="26.057274450913603" fill="#8aa6c1" opacity="0.75" />
<rect x="854.8880308880309" y="446.2347627476971" width="2" height="23.76523725230289" fill="#8aa6c1" opacity="0.75" />
<rect x="858.1621621621622" y="436.69695590530046" width="2" height="33.30304409469957" fill="#8aa6c1" opacity="0.75" />
<rect x="861.4362934362935" y="446.07945393379083" width="2" height="23.920546066209162" fill="#8aa6c1" opacity="0.75" />
<rect x="864.7104247104247" y="448.8925254618366" width="2" height="21.10747453816339" fill="#8aa6c1" opacity="0.75" />
<rect x="867.984555984556" y="447.1733271531402" width="2" height="22.826672846859847" fill="#8aa6c1" opacity="0.75" />
<rect x="871.2586872586872" y="439.3867032164969" width="2" height="30.61329678350308" fill="#8aa6c1" opacity="0.75" />
<rect x="874.5328185328185" y="444.9264354267689" width="2" height="25.073564573231096" fill="#8aa6c1" opacity="0.75" />
<rect x="877.8069498069498" y="443.5627904830618" width="2" height="26.437209516938204" fill="#8aa6c1" opacity="0.75" />
<rect x="881.081081081081" y="450.5568256178795" width="2" height="19.443174382120507" fill="#8aa6c1" opacity="0.75" />
<rect x="884.3552123552123" y="454.19709223309115" width="2" height="15.802907766908842" fill="#8aa6c1" opacity="0.75" />
<rect x="887.6293436293437" y="441.9824892196178" width="2" height="28.01751078038222" fill="#8aa6c1" opacity="0.75" />
<rect x="890.903474903475" y="439.77413631101194" width="2" height="30.22586368898807" fill="#8aa6c1" opacity="0.75" />
<rect x="894.1776061776062" y="447.2512961626873" width="2" height="22.748703837312707" fill="#8aa6c1" opacity="0.75" />
<rect x="897.4517374517375" y="448.959430946828" width="2" height="21.040569053172035" fill="#8aa6c1" opacity="0.75" />
<rect x="900.7258687258687" y="431.34703392674373" width="2" height="38.65296607325626" fill="#8aa6c1" opacity="0.75" />
<rect x="904.0" y="441.4128487894092" width="2" height="28.587151210590783" fill="#8aa6c1" opacity="0.75" />
</svg>