<svg xmlns="http://www.w3.org/2000/svg" width="960" height="520" viewBox="0 0 960 520"><rect width="100%" height="100%" fill="white" />
<text x="56.00" y="32.00" font-size="20" font-family="Arial" fill="#1f2933" text-anchor="start">VT Price / Volume</text>
<line x1="56" y1="244" x2="904" y2="244" stroke="#cbd2d9" />
<line x1="56" y1="56" x2="56" y2="244" stroke="#cbd2d9" />
<text x="16.00" y="38.00" font-size="12" font-family="Arial" fill="#52606d" text-anchor="start">Price</text>
<line x1="56" y1="244.00" x2="904" y2="244.00" stroke="#edf2f7" />
<line x1="52" y1="244.00" x2="56" y2="244.00" stroke="#9fb3c8" />
<text x="48.00" y="248.00" font-size="11" font-family="Arial" fill="#52606d" text-anchor="end">124</text>
<line x1="56" y1="197.00" x2="904" y2="197.00" stroke="#edf2f7" />
<line x1="52" y1="197.00" x2="56" y2="197.00" stroke="#9fb3c8" />
<text x="48.00" y="201.00" font-size="11" font-family="Arial" fill="#52606d" text-anchor="end">133</text>
<line x1="56" y1="150.00" x2="904" y2="150.00" stroke="#edf2f7" />
<line x1="52" y1="150.00" x2="56" y2="150.00" stroke="#9fb3c8" />
<text x="48.00" y="154.00" font-size="11" font-family="Arial" fill="#52606d" text-anchor="end">142</text>
<line x1="56" y1="103.00" x2="904" y2="103.00" stroke="#edf2f7" />
<line x1="52" y1="103.00" x2="56" y2="103.00" stroke="#9fb3c8" />
<text x="48.00" y="107.00" font-size="11" font-family="Arial" fill="#52606d" text-anchor="end">152</text>
<line x1="56" y1="56.00" x2="904" y2="56.00" stroke="#edf2f7" />
<line x1="52" y1="56.00" x2="56" y2="56.00" stroke="#9fb3c8" />
<text x="48.00" y="60.00" font-size="11" font-family="Arial" fill="#52606d" text-anchor="end">161</text>
<polyline fill="none" stroke="#1f77b4" stroke-width="2" points="56.00,233.93 59.27,231.33 62.55,231.28 65.82,228.38 69.10,224.98 72.37,230.88 75.64,229.53 78.92,225.68 82.19,224.48 85.47,227.73 88.74,226.58 92.02,229.88 95.29,227.33 98.56,224.03 101.84,224.58 105.11,222.98 108.39,221.18 111.66,213.67 114.93,215.42 118.21,214.02 121.48,217.32 124.76,218.52 128.03,220.83 131.31,224.28 134.58,231.88 137.85,222.88 141.13,224.18 144.40,219.93 147.68,218.72 150.95,214.87 154.22,216.62 157.50,208.77 160.77,205.42 164.05,207.02 167.32,207.02 170.59,206.67 173.87,209.72 177.14,210.57 180.42,212.97 183.69,201.67 186.97,206.07 190.24,204.32 193.51,204.02 196.79,201.37 200.06,205.07 203.34,209.87 206.61,207.42 209.88,202.67 213.16,202.02 216.43,198.37 219.71,197.72 222.98,196.27 226.25,189.57 229.53,190.92 232.80,187.07 236.08,187.32 239.35,188.32 242.63,185.12 245.90,184.17 249.17,181.36 252.45,183.97 255.72,187.08 259.00,190.95 262.27,187.23 265.54,184.62 268.82,182.52 272.09,178.95 275.37,177.95 278.64,176.09 281.92,173.58 285.19,177.90 288.46,174.14 291.74,177.80 295.01,195.77 298.29,184.93 301.56,185.28 304.83,181.41 308.11,183.27 311.38,181.11 314.66,174.24 317.93,176.04 321.20,179.05 324.48,174.49 327.75,170.07 331.03,163.04 334.30,162.54 337.58,163.50 340.85,169.77 344.12,168.51 347.40,167.66 350.67,176.54 353.95,172.73 357.22,179.00 360.49,177.35 363.77,167.61 367.04,165.70 370.32,164.00 373.59,175.04 376.86,175.29 380.14,182.97 383.41,188.14 386.69,187.44 389.96,197.92 393.24,190.80 396.51,182.52 399.78,176.09 403.06,170.37 406.33,167.01 409.61,170.37 412.88,169.07 416.15,166.16 419.43,165.05 422.70,163.65 425.98,165.80 429.25,166.61 432.53,160.59 435.80,158.63 439.07,165.35 442.35,165.35 445.62,168.06 448.90,174.54 452.17,169.27 455.44,163.32 458.72,159.07 461.99,155.68 465.27,153.91 468.54,153.21 471.81,155.68 475.09,155.84 478.36,160.49 481.64,155.23 484.91,149.16 488.19,144.91 491.46,147.94 494.73,147.44 498.01,142.63 501.28,139.34 504.56,142.08 507.83,142.58 511.10,140.91 514.38,140.91 517.65,153.46 520.93,145.01 524.20,140.96 527.47,139.55 530.75,136.31 534.02,130.19 537.30,131.45 540.57,131.86 543.85,138.28 547.12,134.74 550.39,137.47 553.67,139.90 556.94,148.80 560.22,133.17 563.49,127.05 566.76,127.51 570.04,125.48 573.31,135.70 576.59,133.78 579.86,134.03 583.14,130.39 586.41,132.06 589.68,125.64 592.96,132.21 596.23,126.90 599.51,120.78 602.78,123.36 606.05,126.19 609.33,130.69 612.60,145.42 615.88,139.24 619.15,147.79 622.42,156.09 625.70,149.46 628.97,149.56 632.25,150.47 635.52,163.07 638.80,168.28 642.07,158.32 645.34,155.63 648.62,166.76 651.89,168.13 655.17,182.85 658.44,171.29 661.71,174.84 664.99,168.40 668.26,182.24 671.54,191.47 674.81,193.65 678.08,172.71 681.36,165.76 684.63,167.38 687.91,163.83 691.18,163.53 694.46,140.97 697.73,139.09 701.00,138.94 704.28,131.74 707.55,123.17 710.83,120.48 714.10,119.62 717.37,109.22 720.65,111.05 723.92,119.77 727.20,112.98 730.47,117.79 733.75,111.76 737.02,111.86 740.29,116.22 743.57,118.86 746.84,107.40 750.12,106.18 753.39,110.64 756.66,102.73 759.94,87.82 763.21,94.62 766.49,87.22 769.76,86.51 773.03,91.42 776.31,86.10 779.58,82.96 782.86,95.63 786.13,94.67 789.41,100.15 792.68,90.01 795.95,87.06 799.23,85.24 802.50,76.06 805.78,77.18 809.05,73.58 812.32,72.31 815.60,69.87 818.87,66.07 822.15,73.17 825.42,70.18 828.69,94.82 831.97,90.77 835.24,91.68 838.52,103.75 841.79,85.04 845.07,81.59 848.34,69.27 851.61,72.97 854.89,80.98 858.16,71.75 861.44,72.26 864.71,88.70 867.98,89.06 871.26,86.05 874.53,90.63 877.81,81.07 881.08,75.37 884.36,79.59 887.63,79.34 890.90,70.99 894.18,78.47 897.45,81.17 900.73,75.11 904.00,71.91" />
<line x1="56" y1="470" x2="904" y2="470" stroke="#cbd2d9" />
<line x1="56" y1="370" x2="56" y2="470" stroke="#cbd2d9" />
<text x="16.00" y="362.00" font-size="12" font-family="Arial" fill="#52606d" text-anchor="start">Volume</text>
<line x1="56" y1="470.00" x2="904" y2="470.00" stroke="#edf2f7" />
<line x1="52" y1="470.00" x2="56" y2="470.00" stroke="#9fb3c8" />
<text x="48.00" y="474.00" font-size="11" font-family="Arial" fill="#52606d" text-anchor="end">0</text>
<line x1="56" y1="420.00" x2="904" y2="420.00" stroke="#edf2f7" />
<line x1="52" y1="420.00" x2="56" y2="420.00" stroke="#9fb3c8" />
<text x="48.00" y="424.00" font-size="11" font-family="Arial" fill="#52606d" text-anchor="end">6.9M</text>
<line x1="56" y1="370.00" x2="904" y2="370.00" stroke="#edf2f7" />
<line x1="52" y1="370.00" x2="56" y2="370.00" stroke="#9fb3c8" />
<text x="48.00" y="374.00" font-size="11" font-family="Arial" fill="#52606d" text-anchor="end">13.9M</text>
<line x1="56.00" y1="470" x2="56.00" y2="474" stroke="#9fb3c8" />
<text x="56.00" y="488.00" font-size="11" font-family="Arial" fill="#52606d" text-anchor="middle">06/27</text>
<line x1="226.25" y1="470" x2="226.25" y2="474" stroke="#9fb3c8" />
<text x="226.25" y="488.00" font-size="11" font-family="Arial" fill="#52606d" text-anchor="middle">09/11</text>
<line x1="396.51" y1="470" x2="396.51" y2="474" stroke="#9fb3c8" />
<text x="396.51" y="488.00" font-size="11" font-family="Arial" fill="#52606d" text-anchor="middle">11/24</text>
<line x1="563.49" y1="470" x2="563.49" y2="474" stroke="#9fb3c8" />
<text x="563.49" y="488.00" font-size="11" font-family="Arial" fill="#52606d" text-anchor="middle">02/09</text>
<line x1="733.75" y1="470" x2="733.75" y2="474" stroke="#9fb3c8" />
<text x="733.75" y="488.00" font-size="11" font-family="Arial" fill="#52606d" text-anchor="middle">04/24</text>
<line x1="904.00" y1="470" x2="904.00" y2="474" stroke="#9fb3c8" />
<text x="904.00" y="488.00" font-size="11" font-family="Arial" fill="#52606d" text-anchor="middle">07/10</text>
<rect x="56.0" y="453.46935244329734" width="2" height="16.530647556702665" fill="#8aa6c1" opacity="0.75" />
<rect x="59.27413127413127" y="440.8815768604098" width="2" height="29.11842313959021" fill="#8aa6c1" opacity="0.75" />
<rect x="62.54826254826255" y="454.588986777789" width="2" height="15.411013222211006" fill="#8aa6c1" opacity="0.75" />
<rect x="65.82239382239382" y="453.31939497930875" width="2" height="16.680605020691246" fill="#8aa6c1" opacity="0.75" />
<rect x="69.0965250965251" y="459.9802459879169" width="2" height="10.01975401208311" fill="#8aa6c1" opacity="0.75" />
<rect x="72.37065637065638" y="451.82847173157614" width="2" height="18.171528268423863" fill="#8aa6c1" opacity="0.75" />
<rect x="75.64478764478764" y="437.83340302510345" width="2" height="32.16659697489654" fill="#8aa6c1" opacity="0.75" />
<rect x="78.91891891891892" y="446.9353885196026" width="2" height="23.06461148039739" fill="#8aa6c1" opacity="0.75" />
<rect x="82.1930501930502" y="455.29479618761985" width="2" height="14.705203812380141" fill="#8aa6c1" opacity="0.75" />
<rect x="85.46718146718146" y="452.4037893097631" width="2" height="17.596210690236905" fill="#8aa6c1" opacity="0.75" />
<rect x="88.74131274131274" y="457.25866220639335" width="2" height="12.741337793606622" fill="#8aa6c1" opacity="0.75" />
<rect x="92.01544401544402" y="457.22982423254945" width="2" height="12.770175767450578" fill="#8aa6c1" opacity="0.75" />
<rect x="95.28957528957528" y="447.04497282020964" width="2" height="22.955027179790346" fill="#8aa6c1" opacity="0.75" />
<rect x="98.56370656370656" y="457.19810246132107" width="2" height="12.801897538678933" fill="#8aa6c1" opacity="0.75" />
<rect x="101.83783783783784" y="455.477917321529" width="2" height="14.52208267847101" fill="#8aa6c1" opacity="0.75" />
<rect x="105.1119691119691" y="443.91533170879416" width="2" height="26.08466829120586" fill="#8aa6c1" opacity="0.75" />
<rect x="108.3861003861004" y="451.4838579441408" width="2" height="18.516142055859156" fill="#8aa6c1" opacity="0.75" />
<rect x="111.66023166023166" y="448.5063371447522" width="2" height="21.49366285524779" fill="#8aa6c1" opacity="0.75" />
<rect x="114.93436293436294" y="451.3850878837253" width="2" height="18.61491211627471" fill="#8aa6c1" opacity="0.75" />
<rect x="118.20849420849422" y="459.9038253572304" width="2" height="10.096174642769599" fill="#8aa6c1" opacity="0.75" />
<rect x="121.48262548262548" y="456.469222672415" width="2" height="13.530777327584964" fill="#8aa6c1" opacity="0.75" />
<rect x="124.75675675675676" y="455.28974954219717" width="2" height="14.710250457802834" fill="#8aa6c1" opacity="0.75" />
<rect x="128.03088803088804" y="448.94827909391086" width="2" height="21.051720906089137" fill="#8aa6c1" opacity="0.75" />
<rect x="131.3050193050193" y="448.13432728216515" width="2" height="21.865672717834844" fill="#8aa6c1" opacity="0.75" />
<rect x="134.57915057915056" y="416.4572549132698" width="2" height="53.54274508673021" fill="#8aa6c1" opacity="0.75" />
<rect x="137.85328185328186" y="450.9496344786815" width="2" height="19.050365521318472" fill="#8aa6c1" opacity="0.75" />
<rect x="141.12741312741312" y="457.3696884056926" width="2" height="12.630311594307383" fill="#8aa6c1" opacity="0.75" />
<rect x="144.4015444015444" y="454.8247372139634" width="2" height="15.175262786036653" fill="#8aa6c1" opacity="0.75" />
<rect x="147.67567567567568" y="452.70658803512464" width="2" height="17.293411964875347" fill="#8aa6c1" opacity="0.75" />
<rect x="150.94980694980694" y="457.5189249203351" width="2" height="12.481075079664903" fill="#8aa6c1" opacity="0.75" />
<rect x="154.2239382239382" y="451.2913644687324" width="2" height="18.70863553126757" fill="#8aa6c1" opacity="0.75" />
<rect x="157.4980694980695" y="456.1657029977074" width="2" height="13.83429700229262" fill="#8aa6c1" opacity="0.75" />
<rect x="160.7722007722008" y="442.12305163439214" width="2" height="27.876948365607834" fill="#8aa6c1" opacity="0.75" />
<rect x="164.04633204633205" y="455.23856213862416" width="2" height="14.761437861375859" fill="#8aa6c1" opacity="0.75" />
<rect x="167.32046332046332" y="456.93639784868714" width="2" height="13.063602151312848" fill="#8aa6c1" opacity="0.75" />
<rect x="170.59459459459458" y="446.6571020720084" width="2" height="23.34289792799158" fill="#8aa6c1" opacity="0.75" />
<rect x="173.86872586872587" y="453.4477239629144" width="2" height="16.552276037085633" fill="#8aa6c1" opacity="0.75" />
<rect x="177.14285714285714" y="446.3290701195334" width="2" height="23.6709298804666" fill="#8aa6c1" opacity="0.75" />
<rect x="180.41698841698843" y="456.155609706862" width="2" height="13.844390293138003" fill="#8aa6c1" opacity="0.75" />
<rect x="183.6911196911197" y="448.74352947961876" width="2" height="21.25647052038124" fill="#8aa6c1" opacity="0.75" />
<rect x="186.96525096525096" y="455.7425057315473" width="2" height="14.257494268452698" fill="#8aa6c1" opacity="0.75" />
<rect x="190.23938223938225" y="454.6394532320159" width="2" height="15.360546767984081" fill="#8aa6c1" opacity="0.75" />
<rect x="193.51351351351352" y="456.8239297506957" width="2" height="13.176070249304283" fill="#8aa6c1" opacity="0.75" />
<rect x="196.78764478764478" y="452.16155032947387" width="2" height="17.83844967052615" fill="#8aa6c1" opacity="0.75" />
<rect x="200.06177606177607" y="441.06758179170333" width="2" height="28.932418208296685" fill="#8aa6c1" opacity="0.75" />
<rect x="203.33590733590734" y="450.17677677966344" width="2" height="19.823223220336537" fill="#8aa6c1" opacity="0.75" />
<rect x="206.6100386100386" y="440.30842213026114" width="2" height="29.69157786973887" fill="#8aa6c1" opacity="0.75" />
<rect x="209.8841698841699" y="452.98992112814153" width="2" height="17.010078871858465" fill="#8aa6c1" opacity="0.75" />
<rect x="213.15830115830116" y="402.2833907689646" width="2" height="67.71660923103543" fill="#8aa6c1" opacity="0.75" />
<rect x="216.43243243243242" y="455.69924877078137" width="2" height="14.300751229218637" fill="#8aa6c1" opacity="0.75" />
<rect x="219.7065637065637" y="454.3784695687281" width="2" height="15.621530431271898" fill="#8aa6c1" opacity="0.75" />
<rect x="222.98069498069498" y="454.8579008838839" width="2" height="15.1420991161161" fill="#8aa6c1" opacity="0.75" />
<rect x="226.25482625482624" y="453.9704122388361" width="2" height="16.0295877611639" fill="#8aa6c1" opacity="0.75" />
<rect x="229.52895752895753" y="458.83105273023517" width="2" height="11.168947269764825" fill="#8aa6c1" opacity="0.75" />
<rect x="232.8030888030888" y="455.4584516891843" width="2" height="14.541548310815683" fill="#8aa6c1" opacity="0.75" />
<rect x="236.0772200772201" y="451.88831052730234" width="2" height="18.11168947269765" fill="#8aa6c1" opacity="0.75" />
<rect x="239.35135135135135" y="437.7418424581489" width="2" height="32.258157541851105" fill="#8aa6c1" opacity="0.75" />
<rect x="242.62548262548262" y="449.6584141998183" width="2" height="20.34158580018168" fill="#8aa6c1" opacity="0.75" />
<rect x="245.8996138996139" y="452.3403457673064" width="2" height="17.65965423269361" fill="#8aa6c1" opacity="0.75" />
<rect x="249.17374517374517" y="451.5235101581763" width="2" height="18.476489841823714" fill="#8aa6c1" opacity="0.75" />
<rect x="252.44787644787644" y="447.74068893919514" width="2" height="22.25931106080487" fill="#8aa6c1" opacity="0.75" />
<rect x="255.72200772200773" y="453.7534064856603" width="2" height="16.246593514339683" fill="#8aa6c1" opacity="0.75" />
<rect x="258.996138996139" y="449.401035283261" width="2" height="20.598964716739" fill="#8aa6c1" opacity="0.75" />
<rect x="262.27027027027026" y="450.39234063414705" width="2" height="19.607659365852957" fill="#8aa6c1" opacity="0.75" />
<rect x="265.5444015444016" y="451.5898374980174" width="2" height="18.41016250198261" fill="#8aa6c1" opacity="0.75" />
<rect x="268.81853281853284" y="448.73992473288826" width="2" height="21.260075267111734" fill="#8aa6c1" opacity="0.75" />
<rect x="272.0926640926641" y="455.36617017288364" width="2" height="14.633829827116346" fill="#8aa6c1" opacity="0.75" />
<rect x="275.3667953667954" y="453.6257984514008" width="2" height="16.374201548599196" fill="#8aa6c1" opacity="0.75" />
<rect x="278.64092664092664" y="456.0056522428734" width="2" height="13.994347757126585" fill="#8aa6c1" opacity="0.75" />
<rect x="281.9150579150579" y="454.41451703603303" width="2" height="15.585482963966951" fill="#8aa6c1" opacity="0.75" />
<rect x="285.18918918918916" y="451.1493374475509" width="2" height="18.850662552449066" fill="#8aa6c1" opacity="0.75" />
<rect x="288.46332046332043" y="458.1764307239773" width="2" height="11.823569276022667" fill="#8aa6c1" opacity="0.75" />
<rect x="291.73745173745175" y="452.381439880034" width="2" height="17.61856011996597" fill="#8aa6c1" opacity="0.75" />
<rect x="295.011583011583" y="441.7337389874987" width="2" height="28.26626101250126" fill="#8aa6c1" opacity="0.75" />
<rect x="298.2857142857143" y="451.97770824621864" width="2" height="18.02229175378138" fill="#8aa6c1" opacity="0.75" />
<rect x="301.5598455598456" y="442.4272922584459" width="2" height="27.57270774155408" fill="#8aa6c1" opacity="0.75" />
<rect x="304.83397683397686" y="436.1773823771142" width="2" height="33.822617622885815" fill="#8aa6c1" opacity="0.75" />
<rect x="308.1081081081081" y="444.51011491932576" width="2" height="25.48988508067423" fill="#8aa6c1" opacity="0.75" />
<rect x="311.3822393822394" y="417.77515031793865" width="2" height="52.22484968206133" fill="#8aa6c1" opacity="0.75" />
<rect x="314.65637065637065" y="449.8105345118452" width="2" height="20.189465488154802" fill="#8aa6c1" opacity="0.75" />
<rect x="317.9305019305019" y="457.88300434011506" width="2" height="12.116995659884937" fill="#8aa6c1" opacity="0.75" />
<rect x="321.2046332046332" y="454.59042867648117" width="2" height="15.409571323518808" fill="#8aa6c1" opacity="0.75" />
<rect x="324.4787644787645" y="457.82965408850373" width="2" height="12.170345911496257" fill="#8aa6c1" opacity="0.75" />
<rect x="327.75289575289577" y="459.25713379377964" width="2" height="10.742866206220352" fill="#8aa6c1" opacity="0.75" />
<rect x="331.02702702702703" y="454.3871209608813" width="2" height="15.612879039118713" fill="#8aa6c1" opacity="0.75" />
<rect x="334.3011583011583" y="454.0410652747538" width="2" height="15.958934725246204" fill="#8aa6c1" opacity="0.75" />
<rect x="337.57528957528956" y="446.68161434977577" width="2" height="23.318385650224215" fill="#8aa6c1" opacity="0.75" />
<rect x="340.8494208494208" y="431.2540192926045" width="2" height="38.7459807073955" fill="#8aa6c1" opacity="0.75" />
<rect x="344.12355212355214" y="452.50472221821695" width="2" height="17.495277781783052" fill="#8aa6c1" opacity="0.75" />
<rect x="347.3976833976834" y="449.07011953340157" width="2" height="20.929880466598416" fill="#8aa6c1" opacity="0.75" />
<rect x="350.6718146718147" y="453.04110853171454" width="2" height="16.95889146828544" fill="#8aa6c1" opacity="0.75" />
<rect x="353.94594594594594" y="453.5371216818306" width="2" height="16.462878318169366" fill="#8aa6c1" opacity="0.75" />
<rect x="357.2200772200772" y="448.0333943737113" width="2" height="21.966605626288697" fill="#8aa6c1" opacity="0.75" />
<rect x="360.4942084942085" y="448.3758453131083" width="2" height="21.6241546868917" fill="#8aa6c1" opacity="0.75" />
<rect x="363.7683397683398" y="439.94578460917336" width="2" height="30.054215390826638" fill="#8aa6c1" opacity="0.75" />
<rect x="367.04247104247105" y="453.4405144694534" width="2" height="16.559485530546624" fill="#8aa6c1" opacity="0.75" />
<rect x="370.3166023166023" y="451.9762663475264" width="2" height="18.023733652473577" fill="#8aa6c1" opacity="0.75" />
<rect x="373.5907335907336" y="442.9651204706357" width="2" height="27.034879529364268" fill="#8aa6c1" opacity="0.75" />
<rect x="376.86486486486484" y="444.6687237754675" width="2" height="25.331276224532463" fill="#8aa6c1" opacity="0.75" />
<rect x="380.13899613899616" y="433.5942208700417" width="2" height="36.405779129958326" fill="#8aa6c1" opacity="0.75" />
<rect x="383.4131274131274" y="421.3222211007455" width="2" height="48.677778899254534" fill="#8aa6c1" opacity="0.75" />
<rect x="386.6872586872587" y="447.7652012169625" width="2" height="22.234798783037505" fill="#8aa6c1" opacity="0.75" />
<rect x="389.96138996138995" y="411.5728230934495" width="2" height="58.42717690655055" fill="#8aa6c1" opacity="0.75" />
<rect x="393.2355212355212" y="435.8709789050221" width="2" height="34.129021094977865" fill="#8aa6c1" opacity="0.75" />
<rect x="396.5096525096525" y="435.51699277608753" width="2" height="34.48300722391245" fill="#8aa6c1" opacity="0.75" />
<rect x="399.7837837837838" y="449.56324888613324" width="2" height="20.436751113866737" fill="#8aa6c1" opacity="0.75" />
<rect x="403.05791505791507" y="439.11669286115955" width="2" height="30.883307138840426" fill="#8aa6c1" opacity="0.75" />
<rect x="406.33204633204633" y="458.0495436390639" width="2" height="11.95045636093608" fill="#8aa6c1" opacity="0.75" />
<rect x="409.6061776061776" y="449.78674318342394" width="2" height="20.213256816576067" fill="#8aa6c1" opacity="0.75" />
<rect x="412.88030888030886" y="455.609130102519" width="2" height="14.390869897481004" fill="#8aa6c1" opacity="0.75" />
<rect x="416.1544401544402" y="449.8840713451473" width="2" height="20.11592865485271" fill="#8aa6c1" opacity="0.75" />
<rect x="419.42857142857144" y="441.46410393205775" width="2" height="28.535896067942268" fill="#8aa6c1" opacity="0.75" />
<rect x="422.7027027027027" y="441.8526956296051" width="2" height="28.147304370394938" fill="#8aa6c1" opacity="0.75" />
<rect x="425.976833976834" y="446.98945972056003" width="2" height="23.01054027943997" fill="#8aa6c1" opacity="0.75" />
<rect x="429.25096525096524" y="451.8371231237293" width="2" height="18.162876876270673" fill="#8aa6c1" opacity="0.75" />
<rect x="432.5250965250965" y="439.2709760212247" width="2" height="30.72902397877525" fill="#8aa6c1" opacity="0.75" />
<rect x="435.7992277992278" y="447.05578706040114" width="2" height="22.944212939598863" fill="#8aa6c1" opacity="0.75" />
<rect x="439.0733590733591" y="443.17563767969665" width="2" height="26.824362320303376" fill="#8aa6c1" opacity="0.75" />
<rect x="442.34749034749035" y="441.24709817888197" width="2" height="28.752901821118048" fill="#8aa6c1" opacity="0.75" />
<rect x="445.6216216216216" y="443.2527792597292" width="2" height="26.747220740270787" fill="#8aa6c1" opacity="0.75" />
<rect x="448.8957528957529" y="451.00298473029284" width="2" height="18.997015269707152" fill="#8aa6c1" opacity="0.75" />
<rect x="452.16988416988414" y="454.2335587501622" width="2" height="15.766441249837786" fill="#8aa6c1" opacity="0.75" />
<rect x="455.44401544401546" y="447.59073147520655" width="2" height="22.40926852479345" fill="#8aa6c1" opacity="0.75" />
<rect x="458.7181467181467" y="447.8992977953369" width="2" height="22.1007022046631" fill="#8aa6c1" opacity="0.75" />
<rect x="461.992277992278" y="450.0830533646706" width="2" height="19.916946635329403" fill="#8aa6c1" opacity="0.75" />
<rect x="465.26640926640925" y="459.68970340143903" width="2" height="10.310296598560985" fill="#8aa6c1" opacity="0.75" />
<rect x="468.5405405405405" y="457.75107060977894" width="2" height="12.248929390221043" fill="#8aa6c1" opacity="0.75" />
<rect x="471.81467181467184" y="450.0989142502848" width="2" height="19.901085749715225" fill="#8aa6c1" opacity="0.75" />
<rect x="475.0888030888031" y="451.69797989993225" width="2" height="18.30202010006777" fill="#8aa6c1" opacity="0.75" />
<rect x="478.36293436293437" y="443.52241431517024" width="2" height="26.477585684829783" fill="#8aa6c1" opacity="0.75" />
<rect x="481.63706563706563" y="438.3669055412167" width="2" height="31.63309445878333" fill="#8aa6c1" opacity="0.75" />
<rect x="484.9111969111969" y="416.7766354735916" width="2" height="53.22336452640838" fill="#8aa6c1" opacity="0.75" />
<rect x="488.18532818532816" y="436.1110550372731" width="2" height="33.88894496272692" fill="#8aa6c1" opacity="0.75" />
<rect x="491.4594594594595" y="415.6238374691794" width="2" height="54.37616253082058" fill="#8aa6c1" opacity="0.75" />
<rect x="494.73359073359075" y="447.86685507476244" width="2" height="22.133144925237552" fill="#8aa6c1" opacity="0.75" />
<rect x="498.007722007722" y="441.17139849754153" width="2" height="28.82860150245844" fill="#8aa6c1" opacity="0.75" />
<rect x="501.2818532818533" y="445.48195463786715" width="2" height="24.518045362132856" fill="#8aa6c1" opacity="0.75" />
<rect x="504.55598455598454" y="439.48870272374666" width="2" height="30.51129727625337" fill="#8aa6c1" opacity="0.75" />
<rect x="507.83011583011586" y="437.23213127045693" width="2" height="32.76786872954307" fill="#8aa6c1" opacity="0.75" />
<rect x="511.1042471042471" y="440.7395498392283" width="2" height="29.260450160771708" fill="#8aa6c1" opacity="0.75" />
<rect x="514.3783783783783" y="447.45375109944774" width="2" height="22.546248900552246" fill="#8aa6c1" opacity="0.75" />
<rect x="517.6525096525097" y="415.2698513402448" width="2" height="54.73014865975516" fill="#8aa6c1" opacity="0.75" />
<rect x="520.9266409266409" y="420.78871858463225" width="2" height="49.21128141536776" fill="#8aa6c1" opacity="0.75" />
<rect x="524.2007722007722" y="431.84015111098296" width="2" height="38.159848889017056" fill="#8aa6c1" opacity="0.75" />
<rect x="527.4749034749035" y="442.6637636439664" width="2" height="27.336236356033627" fill="#8aa6c1" opacity="0.75" />
<rect x="530.7490347490348" y="436.2696638934149" width="2" height="33.73033610658515" fill="#8aa6c1" opacity="0.75" />
<rect x="534.023166023166" y="434.4074517324413" width="2" height="35.59254826755872" fill="#8aa6c1" opacity="0.75" />
<rect x="537.2972972972973" y="438.0597811197785" width="2" height="31.940218880221476" fill="#8aa6c1" opacity="0.75" />
<rect x="540.5714285714286" y="406.19598287024354" width="2" height="63.80401712975646" fill="#8aa6c1" opacity="0.75" />
<rect x="543.8455598455598" y="373.99838507346476" width="2" height="96.00161492653527" fill="#8aa6c1" opacity="0.75" />
<rect x="547.1196911196912" y="439.88306201606275" width="2" height="30.116937983937248" fill="#8aa6c1" opacity="0.75" />
<rect x="550.3938223938223" y="428.77106974463976" width="2" height="41.22893025536026" fill="#8aa6c1" opacity="0.75" />
<rect x="553.6679536679537" y="419.46289273715627" width="2" height="50.53710726284372" fill="#8aa6c1" opacity="0.75" />
<rect x="556.9420849420849" y="408.27736363243116" width="2" height="61.72263636756882" fill="#8aa6c1" opacity="0.75" />
<rect x="560.2162162162163" y="450.9921704901014" width="2" height="19.007829509898635" fill="#8aa6c1" opacity="0.75" />
<rect x="563.4903474903475" y="441.9536285380589" width="2" height="28.04637146194108" fill="#8aa6c1" opacity="0.75" />
<rect x="566.7644787644788" y="443.1302178708924" width="2" height="26.869782129107612" fill="#8aa6c1" opacity="0.75" />
<rect x="570.03861003861" y="434.5307340706242" width="2" height="35.4692659293758" fill="#8aa6c1" opacity="0.75" />
<rect x="573.3127413127413" y="425.8750162213603" width="2" height="44.12498377863972" fill="#8aa6c1" opacity="0.75" />
<rect x="576.5868725868726" y="431.2691592288726" width="2" height="38.730840771127426" fill="#8aa6c1" opacity="0.75" />
<rect x="579.8610038610038" y="429.72272288149037" width="2" height="40.27727711850965" fill="#8aa6c1" opacity="0.75" />
<rect x="583.1351351351351" y="446.20218303461996" width="2" height="23.79781696538001" fill="#8aa6c1" opacity="0.75" />
<rect x="586.4092664092664" y="442.1634247977737" width="2" height="27.836575202226292" fill="#8aa6c1" opacity="0.75" />
<rect x="589.6833976833976" y="433.32458581460065" width="2" height="36.67541418539933" fill="#8aa6c1" opacity="0.75" />
<rect x="592.957528957529" y="426.215304312719" width="2" height="43.78469568728101" fill="#8aa6c1" opacity="0.75" />
<rect x="596.2316602316603" y="426.72285265237264" width="2" height="43.277147347627356" fill="#8aa6c1" opacity="0.75" />
<rect x="599.5057915057915" y="431.5005839689703" width="2" height="38.49941603102966" fill="#8aa6c1" opacity="0.75" />
<rect x="602.7799227799228" y="423.90177786108745" width="2" height="46.09822213891252" fill="#8aa6c1" opacity="0.75" />
<rect x="606.0540540540541" y="432.5228901417386" width="2" height="37.47710985826136" fill="#8aa6c1" opacity="0.75" />
<rect x="609.3281853281853" y="414.39101408735024" width="2" height="55.60898591264978" fill="#8aa6c1" opacity="0.75" />
<rect x="612.6023166023166" y="370.0" width="2" height="100.0" fill="#8aa6c1" opacity="0.75" />
<rect x="615.8764478764479" y="431.65991377445823" width="2" height="38.34008622554179" fill="#8aa6c1" opacity="0.75" />
<rect x="619.1505791505791" y="394.0998947413955" width="2" height="75.90010525860453" fill="#8aa6c1" opacity="0.75" />
<rect x="622.4247104247104" y="415.93817138407854" width="2" height="54.06182861592145" fill="#8aa6c1" opacity="0.75" />
<rect x="625.6988416988416" y="403.81180338269434" width="2" height="66.18819661730568" fill="#8aa6c1" opacity="0.75" />
<rect x="628.972972972973" y="411.92753017173015" width="2" height="58.07246982826987" fill="#8aa6c1" opacity="0.75" />
<rect x="632.2471042471043" y="409.4972099260306" width="2" height="60.5027900739694" fill="#8aa6c1" opacity="0.75" />
<rect x="635.5212355212356" y="402.1182933687079" width="2" height="67.88170663129208" fill="#8aa6c1" opacity="0.75" />
<rect x="638.7953667953668" y="406.8196040546191" width="2" height="63.18039594538087" fill="#8aa6c1" opacity="0.75" />
<rect x="642.0694980694981" y="438.7050307845371" width="2" height="31.29496921546292" fill="#8aa6c1" opacity="0.75" />
<rect x="645.3436293436293" y="449.6814845788935" width="2" height="20.318515421106515" fill="#8aa6c1" opacity="0.75" />
<rect x="648.6177606177606" y="444.74298155811573" width="2" height="25.25701844188427" fill="#8aa6c1" opacity="0.75" />
<rect x="651.8918918918919" y="428.87921214655455" width="2" height="41.12078785344542" fill="#8aa6c1" opacity="0.75" />
<rect x="655.1660231660231" y="431.8819661730567" width="2" height="38.11803382694332" fill="#8aa6c1" opacity="0.75" />
<rect x="658.4401544401544" y="421.0922382593399" width="2" height="48.9077617406601" fill="#8aa6c1" opacity="0.75" />
<rect x="661.7142857142857" y="438.06915346127784" width="2" height="31.93084653872219" fill="#8aa6c1" opacity="0.75" />
<rect x="664.988416988417" y="438.75405534007183" width="2" height="31.245944659928192" fill="#8aa6c1" opacity="0.75" />
<rect x="668.2625482625483" y="438.7511715426874" width="2" height="31.248828457312587" fill="#8aa6c1" opacity="0.75" />
<rect x="671.5366795366796" y="431.8675471861347" width="2" height="38.1324528138653" fill="#8aa6c1" opacity="0.75" />
<rect x="674.8108108108108" y="434.79532248064254" width="2" height="35.20467751935749" fill="#8aa6c1" opacity="0.75" />
<rect x="678.0849420849421" y="410.4358859746514" width="2" height="59.56411402534858" fill="#8aa6c1" opacity="0.75" />
<rect x="681.3590733590734" y="441.22907444522946" width="2" height="28.77092555477052" fill="#8aa6c1" opacity="0.75" />
<rect x="684.6332046332046" y="448.5604083457096" width="2" height="21.439591654290368" fill="#8aa6c1" opacity="0.75" />
<rect x="687.9073359073359" y="451.62372211728405" width="2" height="18.37627788271596" fill="#8aa6c1" opacity="0.75" />
<rect x="691.1814671814672" y="444.46397416117543" width="2" height="25.536025838824568" fill="#8aa6c1" opacity="0.75" />
<rect x="694.4555984555984" y="425.93918071316307" width="2" height="44.0608192868369" fill="#8aa6c1" opacity="0.75" />
<rect x="697.7297297297297" y="441.4143584271769" width="2" height="28.585641572823096" fill="#8aa6c1" opacity="0.75" />
<rect x="701.003861003861" y="453.2927198535031" width="2" height="16.70728014649691" fill="#8aa6c1" opacity="0.75" />
<rect x="704.2779922779923" y="437.8752180871772" width="2" height="32.124781912822804" fill="#8aa6c1" opacity="0.75" />
<rect x="707.5521235521236" y="447.9425547561028" width="2" height="22.057445243897163" fill="#8aa6c1" opacity="0.75" />
<rect x="710.8262548262549" y="451.091661499863" width="2" height="18.90833850013698" fill="#8aa6c1" opacity="0.75" />
<rect x="714.1003861003861" y="453.20908972935564" width="2" height="16.790910270644385" fill="#8aa6c1" opacity="0.75" />
<rect x="717.3745173745174" y="447.5705448935158" width="2" height="22.42945510648422" fill="#8aa6c1" opacity="0.75" />
<rect x="720.6486486486486" y="447.0500194656323" width="2" height="22.949980534367658" fill="#8aa6c1" opacity="0.75" />
<rect x="723.9227799227799" y="452.17020172162705" width="2" height="17.82979827837296" fill="#8aa6c1" opacity="0.75" />
<rect x="727.1969111969112" y="456.5622251380618" width="2" height="13.437774861938202" fill="#8aa6c1" opacity="0.75" />
<rect x="730.4710424710424" y="445.61100457081886" width="2" height="24.388995429181147" fill="#8aa6c1" opacity="0.75" />
<rect x="733.7451737451737" y="434.9524894380921" width="2" height="35.04751056190792" fill="#8aa6c1" opacity="0.75" />
<rect x="737.019305019305" y="449.1436563667037" width="2" height="20.856343633296326" fill="#8aa6c1" opacity="0.75" />
<rect x="740.2934362934363" y="456.6112496935965" width="2" height="13.388750306403471" fill="#8aa6c1" opacity="0.75" />
<rect x="743.5675675675676" y="454.1131602093637" width="2" height="15.886839790636309" fill="#8aa6c1" opacity="0.75" />
<rect x="746.8416988416989" y="440.98106787017144" width="2" height="29.018932129828556" fill="#8aa6c1" opacity="0.75" />
<rect x="750.1158301158301" y="449.6858102749701" width="2" height="20.31418972502992" fill="#8aa6c1" opacity="0.75" />
<rect x="753.3899613899614" y="451.1846639655098" width="2" height="18.815336034490215" fill="#8aa6c1" opacity="0.75" />
<rect x="756.6640926640927" y="452.32376393234614" width="2" height="17.676236067653885" fill="#8aa6c1" opacity="0.75" />
<rect x="759.9382239382239" y="454.49165861606565" width="2" height="15.508341383934365" fill="#8aa6c1" opacity="0.75" />
<rect x="763.2123552123552" y="450.21138234827623" width="2" height="19.78861765172379" fill="#8aa6c1" opacity="0.75" />
<rect x="766.4864864864865" y="452.98054878664226" width="2" height="17.01945121335775" fill="#8aa6c1" opacity="0.75" />
<rect x="769.7606177606177" y="454.39433045434225" width="2" height="15.605669545657722" fill="#8aa6c1" opacity="0.75" />
<rect x="773.034749034749" y="453.3619309907286" width="2" height="16.63806900927141" fill="#8aa6c1" opacity="0.75" />
<rect x="776.3088803088804" y="458.8216803887359" width="2" height="11.178319611264111" fill="#8aa6c1" opacity="0.75" />
<rect x="779.5830115830116" y="451.83135552896056" width="2" height="18.168644471039464" fill="#8aa6c1" opacity="0.75" />
<rect x="782.8571428571429" y="447.856040834571" width="2" height="22.143959165429035" fill="#8aa6c1" opacity="0.75" />
<rect x="786.1312741312742" y="450.894842328378" width="2" height="19.105157671621992" fill="#8aa6c1" opacity="0.75" />
<rect x="789.4054054054054" y="451.65976958458896" width="2" height="18.340230415411014" fill="#8aa6c1" opacity="0.75" />
<rect x="792.6795366795367" y="455.3041685291191" width="2" height="14.695831470880854" fill="#8aa6c1" opacity="0.75" />
<rect x="795.953667953668" y="452.8760111314579" width="2" height="17.123988868542096" fill="#8aa6c1" opacity="0.75" />
<rect x="799.2277992277992" y="451.5033235764855" width="2" height="18.496676423514483" fill="#8aa6c1" opacity="0.75" />
<rect x="802.5019305019305" y="452.64026069528353" width="2" height="17.359739304716452" fill="#8aa6c1" opacity="0.75" />
<rect x="805.7760617760617" y="439.34451285452684" width="2" height="30.65548714547316" fill="#8aa6c1" opacity="0.75" />
<rect x="809.050193050193" y="446.4739809380993" width="2" height="23.526019061900712" fill="#8aa6c1" opacity="0.75" />
<rect x="812.3243243243244" y="433.10109151731" width="2" height="36.898908482690004" fill="#8aa6c1" opacity="0.75" />
<rect x="815.5984555984556" y="445.4365348290629" width="2" height="24.56346517093709" fill="#8aa6c1" opacity="0.75" />
<rect x="818.8725868725869" y="448.60510720516777" width="2" height="21.394892794832234" fill="#8aa6c1" opacity="0.75" />
<rect x="822.1467181467182" y="445.9448041180627" width="2" height="24.055195881937337" fill="#8aa6c1" opacity="0.75" />
<rect x="825.4208494208494" y="454.02304154110135" width="2" height="15.976958458898677" fill="#8aa6c1" opacity="0.75" />
<rect x="828.6949806949807" y="441.26007526711174" width="2" height="28.739924732888266" fill="#8aa6c1" opacity="0.75" />
<rect x="831.969111969112" y="433.5271725808545" width="2" height="36.47282741914553" fill="#8aa6c1" opacity="0.75" />
<rect x="835.2432432432432" y="433.11911525096247" width="2" height="36.880884749037534" fill="#8aa6c1" opacity="0.75" />
<rect x="838.5173745173745" y="428.4480844375874" width="2" height="41.55191556241258" fill="#8aa6c1" opacity="0.75" />
<rect x="841.7915057915058" y="435.0130491831644" width="2" height="34.98695081683561" fill="#8aa6c1" opacity="0.75" />
<rect x="845.065637065637" y="405.2573068216227" width="2" height="64.74269317837728" fill="#8aa6c1" opacity="0.75" />
<rect x="848.3397683397683" y="436.19324326272834" width="2" height="33.806756737271634" fill="#8aa6c1" opacity="0.75" />
<rect x="851.6138996138997" y="421.4245959078915" width="2" height="48.575404092108485" fill="#8aa6c1" opacity="0.75" />
<rect x="854.8880308880309" y="443.89730797514164" width="2" height="26.10269202485833" fill="#8aa6c1" opacity="0.75" />
<rect x="858.1621621621622" y="455.7497152250083" width="2" height="14.250284774991709" fill="#8aa6c1" opacity="0.75" />
<rect x="861.4362934362935" y="450.3981082289158" width="2" height="19.601891771084162" fill="#8aa6c1" opacity="0.75" />
<rect x="864.7104247104247" y="445.2555765431921" width="2" height="24.744423456807922" fill="#8aa6c1" opacity="0.75" />
<rect x="867.984555984556" y="445.22241287327154" width="2" height="24.777587126728477" fill="#8aa6c1" opacity="0.75" />
<rect x="871.2586872586872" y="442.33933643822184" width="2" height="27.660663561778147" fill="#8aa6c1" opacity="0.75" />
<rect x="874.5328185328185" y="435.2199616454948" width="2" height="34.78003835450521" fill="#8aa6c1" opacity="0.75" />
<rect x="877.8069498069498" y="449.0679566853633" width="2" height="20.932043314636715" fill="#8aa6c1" opacity="0.75" />
<rect x="881.081081081081" y="442.34870877972116" width="2" height="27.65129122027886" fill="#8aa6c1" opacity="0.75" />
<rect x="884.3552123552123" y="447.7709688117313" width="2" height="22.229031188268713" fill="#8aa6c1" opacity="0.75" />
<rect x="887.6293436293437" y="453.6748230069355" width="2" height="16.325176993064467" fill="#8aa6c1" opacity="0.75" />
<rect x="890.903474903475" y="451.41032111083877" width="2" height="18.58967888916125" fill="#8aa6c1" opacity="0.75" />
<rect x="894.1776061776062" y="456.08928236702087" width="2" height="13.910717632979107" fill="#8aa6c1" opacity="0.75" />
<rect x="897.4517374517375" y="456.2990786267357" width="2" height="13.700921373264313" fill="#8aa6c1" opacity="0.75" />
<rect x="900.7258687258687" y="458.02791515868097" width="2" height="11.972084841319049" fill="#8aa6c1" opacity="0.75" />
<rect x="904.0" y="457.314175306043" width="2" height="12.685824693957" fill="#8aa6c1" opacity="0.75" />
</svg>