<svg xmlns="http://www.w3.org/2000/svg" width="960" height="680" viewBox="0 0 960 680"><rect width="100%" height="100%" fill="white" />
<text x="56.00" y="32.00" font-size="20" font-family="Arial" fill="#1f2933" text-anchor="start">主動統一台股增長(00981A) Technical Indicators</text>
<line x1="56" y1="220" x2="904" y2="220" stroke="#cbd2d9" />
<line x1="56" y1="58" x2="56" y2="220" stroke="#cbd2d9" />
<text x="16.00" y="50.00" font-size="12" font-family="Arial" fill="#52606d" text-anchor="start">RSI14</text>
<line x1="56" y1="220.00" x2="904" y2="220.00" stroke="#edf2f7" />
<line x1="52" y1="220.00" x2="56" y2="220.00" stroke="#9fb3c8" />
<text x="48.00" y="224.00" font-size="11" font-family="Arial" fill="#52606d" text-anchor="end">-5.00</text>
<line x1="56" y1="166.00" x2="904" y2="166.00" stroke="#edf2f7" />
<line x1="52" y1="166.00" x2="56" y2="166.00" stroke="#9fb3c8" />
<text x="48.00" y="170.00" font-size="11" font-family="Arial" fill="#52606d" text-anchor="end">31.7</text>
<line x1="56" y1="112.00" x2="904" y2="112.00" stroke="#edf2f7" />
<line x1="52" y1="112.00" x2="56" y2="112.00" stroke="#9fb3c8" />
<text x="48.00" y="116.00" font-size="11" font-family="Arial" fill="#52606d" text-anchor="end">68.3</text>
<line x1="56" y1="58.00" x2="904" y2="58.00" stroke="#edf2f7" />
<line x1="52" y1="58.00" x2="56" y2="58.00" stroke="#9fb3c8" />
<text x="48.00" y="62.00" font-size="11" font-family="Arial" fill="#52606d" text-anchor="end">105</text>
<line x1="56" y1="168.45" x2="904" y2="168.45" stroke="#f0b429" stroke-dasharray="5 5" />
<text x="912.00" y="172.45" font-size="10" font-family="Arial" fill="#8d2b0b" text-anchor="start">30.0</text>
<line x1="56" y1="109.55" x2="904" y2="109.55" stroke="#f0b429" stroke-dasharray="5 5" />
<text x="912.00" y="113.55" font-size="10" font-family="Arial" fill="#8d2b0b" text-anchor="start">70.0</text>
<polyline fill="none" stroke="#1f77b4" stroke-width="2" points="101.84,95.45 105.11,99.39 108.39,114.73 111.66,109.75 114.93,100.57 118.21,99.92 121.48,105.20 124.76,116.78 128.03,109.52 131.31,105.56 134.58,104.20 137.85,97.22 141.13,105.03 144.40,118.72 147.68,117.53 150.95,112.26 154.22,114.55 157.50,109.83 160.77,116.69 164.05,115.89 167.32,104.59 170.59,104.31 173.87,118.56 177.14,111.11 180.42,112.42 183.69,104.06 186.97,98.53 190.24,94.99 193.51,94.35 196.79,92.04 200.06,92.73 203.34,91.45 206.61,87.42 209.88,109.33 213.16,132.25 216.43,127.23 219.71,128.31 222.98,119.71 226.25,118.16 229.53,111.83 232.80,113.07 236.08,108.48 239.35,126.96 242.63,131.31 245.90,130.05 249.17,130.05 252.45,122.67 255.72,120.56 259.00,118.24 262.27,110.99 265.54,111.84 268.82,115.35 272.09,122.90 275.37,120.35 278.64,123.34 281.92,116.02 285.19,120.76 288.46,119.46 291.74,118.92 295.01,124.61 298.29,131.66 301.56,144.53 304.83,132.13 308.11,132.13 311.38,125.77 314.66,119.93 317.93,120.34 321.20,120.79 324.48,116.28 327.75,126.09 331.03,134.64 334.30,123.89 337.58,119.81 340.85,126.99 344.12,122.72 347.40,118.09 350.67,121.26 353.95,122.08 357.22,113.69 360.49,106.72 363.77,103.46 367.04,101.55 370.32,97.79 373.59,95.96 376.86,103.49 380.14,111.37 383.41,106.04 386.69,118.18 389.96,112.88 393.24,114.65 396.51,116.48 399.78,113.75 403.06,126.17 406.33,122.84 409.61,140.44 412.88,141.17 416.15,127.25 419.43,144.44 422.70,144.44 425.98,136.08 429.25,129.34 432.53,123.68 435.80,119.55 439.07,127.65 442.35,129.87 445.62,128.97 448.90,131.63 452.17,126.67 455.44,124.83 458.72,125.40 461.99,120.26 465.27,120.26 468.54,118.32 471.81,125.31 475.09,135.58 478.36,138.52 481.64,140.15 484.91,132.48 488.19,126.42 491.46,125.53 494.73,120.90 498.01,115.92 501.28,114.59 504.56,114.39 507.83,112.75 511.10,117.89 514.38,117.17 517.65,109.95 520.93,120.43 524.20,125.42 527.47,128.44 530.75,125.90 534.02,126.31 537.30,119.11 540.57,122.63 543.85,119.87 547.12,126.16 550.39,121.48 553.67,130.82 556.94,116.46 560.22,110.72 563.49,109.65 566.76,103.51 570.04,101.12 573.31,106.19 576.59,116.04 579.86,126.05 583.14,113.91 586.41,109.92 589.68,122.86 592.96,130.93 596.23,122.02 599.51,117.34 602.78,114.35 606.05,112.87 609.33,108.43 612.60,101.38 615.88,99.78 619.15,102.99 622.42,111.20 625.70,136.09 628.97,124.47 632.25,121.29 635.52,142.05 638.80,134.43 642.07,124.12 645.34,123.15 648.62,122.50 651.89,122.10 655.17,117.31 658.44,112.41 661.71,111.33 664.99,111.71 668.26,124.04 671.54,129.36 674.81,120.13 678.08,119.64 681.36,121.05 684.63,127.81 687.91,141.81 691.18,128.22 694.46,133.85 697.73,128.49 701.00,116.42 704.28,113.83 707.55,110.27 710.83,111.72 714.10,107.89 717.37,103.93 720.65,100.00 723.92,99.85 727.20,95.76 730.47,94.02 733.75,91.87 737.02,97.45 740.29,92.60 743.57,92.23 746.84,93.80 750.12,95.08 753.39,92.64 756.66,87.70 759.94,90.69 763.21,93.59 766.49,92.38 769.76,104.32 773.03,100.01 776.31,98.59 779.58,109.79 782.86,108.73 786.13,123.40 789.41,125.73 792.68,134.85 795.95,137.78 799.23,123.09 802.50,115.73 805.78,107.02 809.05,108.42 812.32,106.14 815.60,120.09 818.87,115.42 822.15,114.54 825.42,118.66 828.69,115.70 831.97,120.84 835.24,126.83 838.52,135.86 841.79,125.87 845.07,137.35 848.34,138.77 851.61,132.09 854.89,126.27 858.16,126.46 861.44,126.02 864.71,121.60 867.98,116.85 871.26,123.83 874.53,125.14 877.81,124.98 881.08,141.12 884.36,140.84 887.63,129.36 890.90,124.19 894.18,123.83 897.45,122.29 900.73,133.65 904.00,145.35" />
<text x="808.00" y="76.00" font-size="13" font-family="Arial" fill="#1f77b4" text-anchor="start">RSI14</text>
<line x1="56" y1="432" x2="904" y2="432" stroke="#cbd2d9" />
<line x1="56" y1="272" x2="56" y2="432" stroke="#cbd2d9" />
<text x="16.00" y="264.00" font-size="12" font-family="Arial" fill="#52606d" text-anchor="start">MACD</text>
<line x1="56" y1="432.00" x2="904" y2="432.00" stroke="#edf2f7" />
<line x1="52" y1="432.00" x2="56" y2="432.00" stroke="#9fb3c8" />
<text x="48.00" y="436.00" font-size="11" font-family="Arial" fill="#52606d" text-anchor="end">-0.64</text>
<line x1="56" y1="378.67" x2="904" y2="378.67" stroke="#edf2f7" />
<line x1="52" y1="378.67" x2="56" y2="378.67" stroke="#9fb3c8" />
<text x="48.00" y="382.67" font-size="11" font-family="Arial" fill="#52606d" text-anchor="end">0.32</text>
<line x1="56" y1="325.33" x2="904" y2="325.33" stroke="#edf2f7" />
<line x1="52" y1="325.33" x2="56" y2="325.33" stroke="#9fb3c8" />
<text x="48.00" y="329.33" font-size="11" font-family="Arial" fill="#52606d" text-anchor="end">1.29</text>
<line x1="56" y1="272.00" x2="904" y2="272.00" stroke="#edf2f7" />
<line x1="52" y1="272.00" x2="56" y2="272.00" stroke="#9fb3c8" />
<text x="48.00" y="276.00" font-size="11" font-family="Arial" fill="#52606d" text-anchor="end">2.25</text>
<line x1="56" y1="396.61" x2="904" y2="396.61" stroke="#9fb3c8" stroke-dasharray="4 4" />
<rect x="136.71" y="396.61" width="2.28" height="0.00" fill="#2f9e44" opacity="0.55" />
<rect x="139.99" y="396.17" width="2.28" height="0.44" fill="#2f9e44" opacity="0.55" />
<rect x="143.26" y="396.61" width="2.28" height="0.02" fill="#d64545" opacity="0.55" />
<rect x="146.53" y="396.61" width="2.28" height="0.32" fill="#d64545" opacity="0.55" />
<rect x="149.81" y="396.61" width="2.28" height="0.11" fill="#d64545" opacity="0.55" />
<rect x="153.08" y="396.61" width="2.28" height="0.19" fill="#d64545" opacity="0.55" />
<rect x="156.36" y="396.49" width="2.28" height="0.11" fill="#2f9e44" opacity="0.55" />
<rect x="159.63" y="396.61" width="2.28" height="0.11" fill="#d64545" opacity="0.55" />
<rect x="162.90" y="396.61" width="2.28" height="0.29" fill="#d64545" opacity="0.55" />
<rect x="166.18" y="395.94" width="2.28" height="0.67" fill="#2f9e44" opacity="0.55" />
<rect x="169.45" y="395.45" width="2.28" height="1.16" fill="#2f9e44" opacity="0.55" />
<rect x="172.73" y="395.98" width="2.28" height="0.62" fill="#2f9e44" opacity="0.55" />
<rect x="176.00" y="395.68" width="2.28" height="0.93" fill="#2f9e44" opacity="0.55" />
<rect x="179.28" y="395.72" width="2.28" height="0.89" fill="#2f9e44" opacity="0.55" />
<rect x="182.55" y="394.85" width="2.28" height="1.75" fill="#2f9e44" opacity="0.55" />
<rect x="185.82" y="393.60" width="2.28" height="3.00" fill="#2f9e44" opacity="0.55" />
<rect x="189.10" y="392.39" width="2.28" height="4.22" fill="#2f9e44" opacity="0.55" />
<rect x="192.37" y="391.85" width="2.28" height="4.76" fill="#2f9e44" opacity="0.55" />
<rect x="195.65" y="391.39" width="2.28" height="5.22" fill="#2f9e44" opacity="0.55" />
<rect x="198.92" y="391.57" width="2.28" height="5.04" fill="#2f9e44" opacity="0.55" />
<rect x="202.19" y="391.85" width="2.28" height="4.76" fill="#2f9e44" opacity="0.55" />
<rect x="205.47" y="391.46" width="2.28" height="5.15" fill="#2f9e44" opacity="0.55" />
<rect x="208.74" y="392.94" width="2.28" height="3.67" fill="#2f9e44" opacity="0.55" />
<rect x="212.02" y="396.15" width="2.28" height="0.46" fill="#2f9e44" opacity="0.55" />
<rect x="215.29" y="396.61" width="2.28" height="1.14" fill="#d64545" opacity="0.55" />
<rect x="218.57" y="396.61" width="2.28" height="2.38" fill="#d64545" opacity="0.55" />
<rect x="221.84" y="396.61" width="2.28" height="2.04" fill="#d64545" opacity="0.55" />
<rect x="225.11" y="396.61" width="2.28" height="1.66" fill="#d64545" opacity="0.55" />
<rect x="228.39" y="396.61" width="2.28" height="0.47" fill="#d64545" opacity="0.55" />
<rect x="231.66" y="396.60" width="2.28" height="0.01" fill="#2f9e44" opacity="0.55" />
<rect x="234.94" y="395.66" width="2.28" height="0.95" fill="#2f9e44" opacity="0.55" />
<rect x="238.21" y="396.61" width="2.28" height="0.40" fill="#d64545" opacity="0.55" />
<rect x="241.48" y="396.61" width="2.28" height="1.88" fill="#d64545" opacity="0.55" />
<rect x="244.76" y="396.61" width="2.28" height="2.72" fill="#d64545" opacity="0.55" />
<rect x="248.03" y="396.61" width="2.28" height="3.28" fill="#d64545" opacity="0.55" />
<rect x="251.31" y="396.61" width="2.28" height="2.63" fill="#d64545" opacity="0.55" />
<rect x="254.58" y="396.61" width="2.28" height="1.95" fill="#d64545" opacity="0.55" />
<rect x="257.85" y="396.61" width="2.28" height="1.23" fill="#d64545" opacity="0.55" />
<rect x="261.13" y="396.29" width="2.28" height="0.31" fill="#2f9e44" opacity="0.55" />
<rect x="264.40" y="395.56" width="2.28" height="1.05" fill="#2f9e44" opacity="0.55" />
<rect x="267.68" y="395.58" width="2.28" height="1.02" fill="#2f9e44" opacity="0.55" />
<rect x="270.95" y="396.42" width="2.28" height="0.19" fill="#2f9e44" opacity="0.55" />
<rect x="274.23" y="396.61" width="2.28" height="0.17" fill="#d64545" opacity="0.55" />
<rect x="277.50" y="396.61" width="2.28" height="0.77" fill="#d64545" opacity="0.55" />
<rect x="280.77" y="396.61" width="2.28" height="0.29" fill="#d64545" opacity="0.55" />
<rect x="284.05" y="396.61" width="2.28" height="0.50" fill="#d64545" opacity="0.55" />
<rect x="287.32" y="396.61" width="2.28" height="0.59" fill="#d64545" opacity="0.55" />
<rect x="290.60" y="396.61" width="2.28" height="0.70" fill="#d64545" opacity="0.55" />
<rect x="293.87" y="396.61" width="2.28" height="1.29" fill="#d64545" opacity="0.55" />
<rect x="297.14" y="396.61" width="2.28" height="2.28" fill="#d64545" opacity="0.55" />
<rect x="300.42" y="396.61" width="2.28" height="4.12" fill="#d64545" opacity="0.55" />
<rect x="303.69" y="396.61" width="2.28" height="3.90" fill="#d64545" opacity="0.55" />
<rect x="306.97" y="396.61" width="2.28" height="3.68" fill="#d64545" opacity="0.55" />
<rect x="310.24" y="396.61" width="2.28" height="2.72" fill="#d64545" opacity="0.55" />
<rect x="313.51" y="396.61" width="2.28" height="1.31" fill="#d64545" opacity="0.55" />
<rect x="316.79" y="396.61" width="2.28" height="0.49" fill="#d64545" opacity="0.55" />
<rect x="320.06" y="396.61" width="2.28" height="0.10" fill="#d64545" opacity="0.55" />
<rect x="323.34" y="395.98" width="2.28" height="0.62" fill="#2f9e44" opacity="0.55" />
<rect x="326.61" y="396.42" width="2.28" height="0.19" fill="#2f9e44" opacity="0.55" />
<rect x="329.89" y="396.61" width="2.28" height="0.95" fill="#d64545" opacity="0.55" />
<rect x="333.16" y="396.61" width="2.28" height="0.43" fill="#d64545" opacity="0.55" />
<rect x="336.43" y="396.21" width="2.28" height="0.40" fill="#2f9e44" opacity="0.55" />
<rect x="339.71" y="396.47" width="2.28" height="0.14" fill="#2f9e44" opacity="0.55" />
<rect x="342.98" y="396.17" width="2.28" height="0.44" fill="#2f9e44" opacity="0.55" />
<rect x="346.26" y="395.43" width="2.28" height="1.18" fill="#2f9e44" opacity="0.55" />
<rect x="349.53" y="395.41" width="2.28" height="1.20" fill="#2f9e44" opacity="0.55" />
<rect x="352.80" y="395.64" width="2.28" height="0.97" fill="#2f9e44" opacity="0.55" />
<rect x="356.08" y="394.73" width="2.28" height="1.88" fill="#2f9e44" opacity="0.55" />
<rect x="359.35" y="393.09" width="2.28" height="3.52" fill="#2f9e44" opacity="0.55" />
<rect x="362.63" y="391.66" width="2.28" height="4.95" fill="#2f9e44" opacity="0.55" />
<rect x="365.90" y="390.72" width="2.28" height="5.89" fill="#2f9e44" opacity="0.55" />
<rect x="369.18" y="389.64" width="2.28" height="6.97" fill="#2f9e44" opacity="0.55" />
<rect x="372.45" y="388.99" width="2.28" height="7.62" fill="#2f9e44" opacity="0.55" />
<rect x="375.72" y="389.74" width="2.28" height="6.87" fill="#2f9e44" opacity="0.55" />
<rect x="379.00" y="391.42" width="2.28" height="5.19" fill="#2f9e44" opacity="0.55" />
<rect x="382.27" y="391.87" width="2.28" height="4.74" fill="#2f9e44" opacity="0.55" />
<rect x="385.55" y="393.74" width="2.28" height="2.87" fill="#2f9e44" opacity="0.55" />
<rect x="388.82" y="394.28" width="2.28" height="2.33" fill="#2f9e44" opacity="0.55" />
<rect x="392.09" y="395.14" width="2.28" height="1.47" fill="#2f9e44" opacity="0.55" />
<rect x="395.37" y="396.17" width="2.28" height="0.44" fill="#2f9e44" opacity="0.55" />
<rect x="398.64" y="396.60" width="2.28" height="0.01" fill="#2f9e44" opacity="0.55" />
<rect x="401.92" y="396.61" width="2.28" height="1.69" fill="#d64545" opacity="0.55" />
<rect x="405.19" y="396.61" width="2.28" height="2.39" fill="#d64545" opacity="0.55" />
<rect x="408.46" y="396.61" width="2.28" height="5.04" fill="#d64545" opacity="0.55" />
<rect x="411.74" y="396.61" width="2.28" height="6.76" fill="#d64545" opacity="0.55" />
<rect x="415.01" y="396.61" width="2.28" height="5.58" fill="#d64545" opacity="0.55" />
<rect x="418.29" y="396.61" width="2.28" height="7.42" fill="#d64545" opacity="0.55" />
<rect x="421.56" y="396.61" width="2.28" height="8.36" fill="#d64545" opacity="0.55" />
<rect x="424.84" y="396.61" width="2.28" height="7.30" fill="#d64545" opacity="0.55" />
<rect x="428.11" y="396.61" width="2.28" height="5.14" fill="#d64545" opacity="0.55" />
<rect x="431.38" y="396.61" width="2.28" height="2.46" fill="#d64545" opacity="0.55" />
<rect x="434.66" y="396.43" width="2.28" height="0.18" fill="#2f9e44" opacity="0.55" />
<rect x="437.93" y="396.09" width="2.28" height="0.52" fill="#2f9e44" opacity="0.55" />
<rect x="441.21" y="396.37" width="2.28" height="0.24" fill="#2f9e44" opacity="0.55" />
<rect x="444.48" y="396.51" width="2.28" height="0.10" fill="#2f9e44" opacity="0.55" />
<rect x="447.75" y="396.61" width="2.28" height="0.49" fill="#d64545" opacity="0.55" />
<rect x="451.03" y="396.61" width="2.28" height="0.07" fill="#d64545" opacity="0.55" />
<rect x="454.30" y="396.20" width="2.28" height="0.41" fill="#2f9e44" opacity="0.55" />
<rect x="457.58" y="396.11" width="2.28" height="0.50" fill="#2f9e44" opacity="0.55" />
<rect x="460.85" y="395.29" width="2.28" height="1.32" fill="#2f9e44" opacity="0.55" />
<rect x="464.12" y="394.97" width="2.28" height="1.64" fill="#2f9e44" opacity="0.55" />
<rect x="467.40" y="394.64" width="2.28" height="1.96" fill="#2f9e44" opacity="0.55" />
<rect x="470.67" y="395.39" width="2.28" height="1.22" fill="#2f9e44" opacity="0.55" />
<rect x="473.95" y="396.61" width="2.28" height="0.64" fill="#d64545" opacity="0.55" />
<rect x="477.22" y="396.61" width="2.28" height="2.28" fill="#d64545" opacity="0.55" />
<rect x="480.50" y="396.61" width="2.28" height="3.53" fill="#d64545" opacity="0.55" />
<rect x="483.77" y="396.61" width="2.28" height="3.26" fill="#d64545" opacity="0.55" />
<rect x="487.04" y="396.61" width="2.28" height="2.16" fill="#d64545" opacity="0.55" />
<rect x="490.32" y="396.61" width="2.28" height="1.33" fill="#d64545" opacity="0.55" />
<rect x="493.59" y="396.61" width="2.28" height="0.13" fill="#d64545" opacity="0.55" />
<rect x="496.87" y="395.24" width="2.28" height="1.36" fill="#2f9e44" opacity="0.55" />
<rect x="500.14" y="394.25" width="2.28" height="2.36" fill="#2f9e44" opacity="0.55" />
<rect x="503.41" y="393.83" width="2.28" height="2.77" fill="#2f9e44" opacity="0.55" />
<rect x="506.69" y="393.57" width="2.28" height="3.04" fill="#2f9e44" opacity="0.55" />
<rect x="509.96" y="394.10" width="2.28" height="2.51" fill="#2f9e44" opacity="0.55" />
<rect x="513.24" y="394.60" width="2.28" height="2.01" fill="#2f9e44" opacity="0.55" />
<rect x="516.51" y="394.03" width="2.28" height="2.58" fill="#2f9e44" opacity="0.55" />
<rect x="519.79" y="394.81" width="2.28" height="1.80" fill="#2f9e44" opacity="0.55" />
<rect x="523.06" y="395.98" width="2.28" height="0.63" fill="#2f9e44" opacity="0.55" />
<rect x="526.33" y="396.61" width="2.28" height="0.56" fill="#d64545" opacity="0.55" />
<rect x="529.61" y="396.61" width="2.28" height="1.12" fill="#d64545" opacity="0.55" />
<rect x="532.88" y="396.61" width="2.28" height="1.60" fill="#d64545" opacity="0.55" />
<rect x="536.16" y="396.61" width="2.28" height="1.07" fill="#d64545" opacity="0.55" />
<rect x="539.43" y="396.61" width="2.28" height="1.10" fill="#d64545" opacity="0.55" />
<rect x="542.70" y="396.61" width="2.28" height="0.86" fill="#d64545" opacity="0.55" />
<rect x="545.98" y="396.61" width="2.28" height="1.27" fill="#d64545" opacity="0.55" />
<rect x="549.25" y="396.61" width="2.28" height="1.06" fill="#d64545" opacity="0.55" />
<rect x="552.53" y="396.61" width="2.28" height="1.74" fill="#d64545" opacity="0.55" />
<rect x="555.80" y="396.61" width="2.28" height="0.31" fill="#d64545" opacity="0.55" />
<rect x="559.07" y="395.11" width="2.28" height="1.50" fill="#2f9e44" opacity="0.55" />
<rect x="562.35" y="393.99" width="2.28" height="2.62" fill="#2f9e44" opacity="0.55" />
<rect x="565.62" y="392.26" width="2.28" height="4.34" fill="#2f9e44" opacity="0.55" />
<rect x="568.90" y="390.98" width="2.28" height="5.63" fill="#2f9e44" opacity="0.55" />
<rect x="572.17" y="391.04" width="2.28" height="5.57" fill="#2f9e44" opacity="0.55" />
<rect x="575.45" y="392.39" width="2.28" height="4.22" fill="#2f9e44" opacity="0.55" />
<rect x="578.72" y="394.62" width="2.28" height="1.99" fill="#2f9e44" opacity="0.55" />
<rect x="581.99" y="394.10" width="2.28" height="2.51" fill="#2f9e44" opacity="0.55" />
<rect x="585.27" y="393.18" width="2.28" height="3.43" fill="#2f9e44" opacity="0.55" />
<rect x="588.54" y="394.48" width="2.28" height="2.13" fill="#2f9e44" opacity="0.55" />
<rect x="591.82" y="396.61" width="2.28" height="0.08" fill="#d64545" opacity="0.55" />
<rect x="595.09" y="396.52" width="2.28" height="0.09" fill="#2f9e44" opacity="0.55" />
<rect x="598.36" y="395.53" width="2.28" height="1.08" fill="#2f9e44" opacity="0.55" />
<rect x="601.64" y="394.43" width="2.28" height="2.18" fill="#2f9e44" opacity="0.55" />
<rect x="604.91" y="393.69" width="2.28" height="2.92" fill="#2f9e44" opacity="0.55" />
<rect x="608.19" y="392.41" width="2.28" height="4.20" fill="#2f9e44" opacity="0.55" />
<rect x="611.46" y="389.75" width="2.28" height="6.86" fill="#2f9e44" opacity="0.55" />
<rect x="614.73" y="388.07" width="2.28" height="8.54" fill="#2f9e44" opacity="0.55" />
<rect x="618.01" y="388.10" width="2.28" height="8.50" fill="#2f9e44" opacity="0.55" />
<rect x="621.28" y="389.84" width="2.28" height="6.77" fill="#2f9e44" opacity="0.55" />
<rect x="624.56" y="395.55" width="2.28" height="1.06" fill="#2f9e44" opacity="0.55" />
<rect x="627.83" y="396.53" width="2.28" height="0.08" fill="#2f9e44" opacity="0.55" />
<rect x="631.11" y="396.50" width="2.28" height="0.11" fill="#2f9e44" opacity="0.55" />
<rect x="634.38" y="396.61" width="2.28" height="4.99" fill="#d64545" opacity="0.55" />
<rect x="637.65" y="396.61" width="2.28" height="6.05" fill="#d64545" opacity="0.55" />
<rect x="640.93" y="396.61" width="2.28" height="3.11" fill="#d64545" opacity="0.55" />
<rect x="644.20" y="396.61" width="2.28" height="0.99" fill="#d64545" opacity="0.55" />
<rect x="647.48" y="396.26" width="2.28" height="0.35" fill="#2f9e44" opacity="0.55" />
<rect x="650.75" y="395.56" width="2.28" height="1.05" fill="#2f9e44" opacity="0.55" />
<rect x="654.02" y="393.75" width="2.28" height="2.86" fill="#2f9e44" opacity="0.55" />
<rect x="657.30" y="391.10" width="2.28" height="5.50" fill="#2f9e44" opacity="0.55" />
<rect x="660.57" y="389.57" width="2.28" height="7.04" fill="#2f9e44" opacity="0.55" />
<rect x="663.85" y="389.35" width="2.28" height="7.26" fill="#2f9e44" opacity="0.55" />
<rect x="667.12" y="392.27" width="2.28" height="4.34" fill="#2f9e44" opacity="0.55" />
<rect x="670.40" y="395.80" width="2.28" height="0.81" fill="#2f9e44" opacity="0.55" />
<rect x="673.67" y="395.41" width="2.28" height="1.20" fill="#2f9e44" opacity="0.55" />
<rect x="676.94" y="395.39" width="2.28" height="1.22" fill="#2f9e44" opacity="0.55" />
<rect x="680.22" y="396.06" width="2.28" height="0.55" fill="#2f9e44" opacity="0.55" />
<rect x="683.49" y="396.61" width="2.28" height="1.59" fill="#d64545" opacity="0.55" />
<rect x="686.77" y="396.61" width="2.28" height="6.54" fill="#d64545" opacity="0.55" />
<rect x="690.04" y="396.61" width="2.28" height="5.53" fill="#d64545" opacity="0.55" />
<rect x="693.31" y="396.61" width="2.28" height="6.44" fill="#d64545" opacity="0.55" />
<rect x="696.59" y="396.61" width="2.28" height="5.17" fill="#d64545" opacity="0.55" />
<rect x="699.86" y="395.93" width="2.28" height="0.67" fill="#2f9e44" opacity="0.55" />
<rect x="703.14" y="391.27" width="2.28" height="5.33" fill="#2f9e44" opacity="0.55" />
<rect x="706.41" y="387.02" width="2.28" height="9.59" fill="#2f9e44" opacity="0.55" />
<rect x="709.68" y="385.52" width="2.28" height="11.08" fill="#2f9e44" opacity="0.55" />
<rect x="712.96" y="383.47" width="2.28" height="13.14" fill="#2f9e44" opacity="0.55" />
<rect x="716.23" y="380.88" width="2.28" height="15.73" fill="#2f9e44" opacity="0.55" />
<rect x="719.51" y="377.83" width="2.28" height="18.78" fill="#2f9e44" opacity="0.55" />
<rect x="722.78" y="377.25" width="2.28" height="19.36" fill="#2f9e44" opacity="0.55" />
<rect x="726.06" y="375.34" width="2.28" height="21.27" fill="#2f9e44" opacity="0.55" />
<rect x="729.33" y="374.35" width="2.28" height="22.25" fill="#2f9e44" opacity="0.55" />
<rect x="732.60" y="373.59" width="2.28" height="23.02" fill="#2f9e44" opacity="0.55" />
<rect x="735.88" y="376.11" width="2.28" height="20.50" fill="#2f9e44" opacity="0.55" />
<rect x="739.15" y="375.37" width="2.28" height="21.24" fill="#2f9e44" opacity="0.55" />
<rect x="742.43" y="376.41" width="2.28" height="20.19" fill="#2f9e44" opacity="0.55" />
<rect x="745.70" y="379.23" width="2.28" height="17.38" fill="#2f9e44" opacity="0.55" />
<rect x="748.97" y="382.97" width="2.28" height="13.64" fill="#2f9e44" opacity="0.55" />
<rect x="752.25" y="385.02" width="2.28" height="11.59" fill="#2f9e44" opacity="0.55" />
<rect x="755.52" y="383.12" width="2.28" height="13.48" fill="#2f9e44" opacity="0.55" />
<rect x="758.80" y="384.15" width="2.28" height="12.46" fill="#2f9e44" opacity="0.55" />
<rect x="762.07" y="386.94" width="2.28" height="9.67" fill="#2f9e44" opacity="0.55" />
<rect x="765.34" y="389.19" width="2.28" height="7.42" fill="#2f9e44" opacity="0.55" />
<rect x="768.62" y="394.30" width="2.28" height="2.31" fill="#2f9e44" opacity="0.55" />
<rect x="771.89" y="395.91" width="2.28" height="0.70" fill="#2f9e44" opacity="0.55" />
<rect x="775.17" y="396.61" width="2.28" height="0.36" fill="#d64545" opacity="0.55" />
<rect x="778.44" y="396.61" width="2.28" height="4.39" fill="#d64545" opacity="0.55" />
<rect x="781.72" y="396.61" width="2.28" height="7.11" fill="#d64545" opacity="0.55" />
<rect x="784.99" y="396.61" width="2.28" height="12.94" fill="#d64545" opacity="0.55" />
<rect x="788.26" y="396.61" width="2.28" height="17.47" fill="#d64545" opacity="0.55" />
<rect x="791.54" y="396.61" width="2.28" height="22.88" fill="#d64545" opacity="0.55" />
<rect x="794.81" y="396.61" width="2.28" height="26.82" fill="#d64545" opacity="0.55" />
<rect x="798.09" y="396.61" width="2.28" height="23.02" fill="#d64545" opacity="0.55" />
<rect x="801.36" y="396.61" width="2.28" height="16.38" fill="#d64545" opacity="0.55" />
<rect x="804.63" y="396.61" width="2.28" height="6.30" fill="#d64545" opacity="0.55" />
<rect x="807.91" y="396.61" width="2.28" height="0.75" fill="#d64545" opacity="0.55" />
<rect x="811.18" y="392.88" width="2.28" height="3.73" fill="#2f9e44" opacity="0.55" />
<rect x="814.46" y="395.25" width="2.28" height="1.36" fill="#2f9e44" opacity="0.55" />
<rect x="817.73" y="394.65" width="2.28" height="1.95" fill="#2f9e44" opacity="0.55" />
<rect x="821.01" y="394.52" width="2.28" height="2.09" fill="#2f9e44" opacity="0.55" />
<rect x="824.28" y="396.52" width="2.28" height="0.09" fill="#2f9e44" opacity="0.55" />
<rect x="827.55" y="396.61" width="2.28" height="0.20" fill="#d64545" opacity="0.55" />
<rect x="830.83" y="396.61" width="2.28" height="2.63" fill="#d64545" opacity="0.55" />
<rect x="834.10" y="396.61" width="2.28" height="6.61" fill="#d64545" opacity="0.55" />
<rect x="837.38" y="396.61" width="2.28" height="12.61" fill="#d64545" opacity="0.55" />
<rect x="840.65" y="396.61" width="2.28" height="11.72" fill="#d64545" opacity="0.55" />
<rect x="843.92" y="396.61" width="2.28" height="15.81" fill="#d64545" opacity="0.55" />
<rect x="847.20" y="396.61" width="2.28" height="18.75" fill="#d64545" opacity="0.55" />
<rect x="850.47" y="396.61" width="2.28" height="17.06" fill="#d64545" opacity="0.55" />
<rect x="853.75" y="396.61" width="2.28" height="12.60" fill="#d64545" opacity="0.55" />
<rect x="857.02" y="396.61" width="2.28" height="9.69" fill="#d64545" opacity="0.55" />
<rect x="860.29" y="396.61" width="2.28" height="7.59" fill="#d64545" opacity="0.55" />
<rect x="863.57" y="396.61" width="2.28" height="4.12" fill="#d64545" opacity="0.55" />
<rect x="866.84" y="396.18" width="2.28" height="0.43" fill="#2f9e44" opacity="0.55" />
<rect x="870.12" y="396.01" width="2.28" height="0.60" fill="#2f9e44" opacity="0.55" />
<rect x="873.39" y="396.61" width="2.28" height="0.17" fill="#d64545" opacity="0.55" />
<rect x="876.67" y="396.61" width="2.28" height="1.00" fill="#d64545" opacity="0.55" />
<rect x="879.94" y="396.61" width="2.28" height="7.51" fill="#d64545" opacity="0.55" />
<rect x="883.21" y="396.61" width="2.28" height="11.49" fill="#d64545" opacity="0.55" />
<rect x="886.49" y="396.61" width="2.28" height="9.03" fill="#d64545" opacity="0.55" />
<rect x="889.76" y="396.61" width="2.28" height="4.83" fill="#d64545" opacity="0.55" />
<rect x="893.04" y="396.61" width="2.28" height="2.12" fill="#d64545" opacity="0.55" />
<rect x="896.31" y="396.52" width="2.28" height="0.09" fill="#2f9e44" opacity="0.55" />
<rect x="899.58" y="396.61" width="2.28" height="2.62" fill="#d64545" opacity="0.55" />
<rect x="902.86" y="396.61" width="2.28" height="9.32" fill="#d64545" opacity="0.55" />
<polyline fill="none" stroke="#1f77b4" stroke-width="2" points="137.85,385.11 141.13,384.56 144.40,385.03 147.68,385.40 150.95,385.23 154.22,385.35 157.50,385.02 160.77,385.28 164.05,385.52 167.32,384.40 170.59,383.61 173.87,384.00 177.14,383.46 180.42,383.28 183.69,381.98 186.97,379.97 190.24,377.70 193.51,375.97 196.79,374.21 200.06,373.13 203.34,372.22 206.61,370.54 209.88,371.10 213.16,374.20 216.43,376.08 219.71,377.92 222.98,378.08 226.25,378.13 229.53,377.06 232.80,376.57 236.08,375.40 239.35,376.84 242.63,378.79 245.90,380.31 249.17,381.69 252.45,381.71 255.72,381.51 259.00,381.10 262.27,379.47 265.54,378.48 268.82,378.25 272.09,379.04 275.37,379.43 278.64,380.23 281.92,379.82 285.19,380.15 288.46,380.39 291.74,380.67 295.01,381.59 298.29,383.15 301.56,386.02 304.83,386.77 308.11,387.47 311.38,387.19 314.66,386.11 317.93,385.42 321.20,385.05 324.48,384.17 327.75,384.55 331.03,385.93 334.30,385.51 337.58,384.59 340.85,384.82 344.12,384.40 347.40,383.37 350.67,383.05 353.95,383.04 357.22,381.66 360.49,379.14 363.77,376.47 367.04,374.06 370.32,371.24 373.59,368.68 376.86,367.72 380.14,368.10 383.41,367.36 386.69,368.52 389.96,368.47 393.24,368.97 396.51,369.89 399.78,370.32 403.06,372.44 406.33,373.74 409.61,377.64 412.88,381.05 416.15,381.27 419.43,384.96 422.70,387.99 425.98,388.76 429.25,387.89 432.53,385.82 435.80,383.13 439.07,382.67 442.35,382.88 445.62,383.00 448.90,383.71 452.17,383.31 455.44,382.73 458.72,382.51 461.99,381.36 465.27,380.63 468.54,379.82 471.81,380.26 475.09,382.28 478.36,384.49 481.64,386.62 484.91,387.17 488.19,386.60 491.46,386.10 494.73,384.94 498.01,383.10 501.28,381.52 504.56,380.41 507.83,379.39 511.10,379.29 514.38,379.28 517.65,378.08 520.93,378.40 524.20,379.42 527.47,380.74 530.75,381.59 534.02,382.46 537.30,382.20 540.57,382.50 543.85,382.47 547.12,383.21 550.39,383.26 553.67,384.38 556.94,383.02 560.22,380.84 563.49,379.06 566.76,376.25 570.04,373.56 573.31,372.23 576.59,372.52 579.86,374.25 583.14,373.11 586.41,371.34 589.68,372.10 592.96,374.34 596.23,374.13 599.51,372.88 602.78,371.23 606.05,369.76 609.33,367.43 612.60,363.05 615.88,359.24 619.15,357.15 622.42,357.19 625.70,362.63 628.97,363.60 632.25,363.54 635.52,369.89 638.80,372.46 642.07,370.29 645.34,368.43 648.62,366.99 651.89,366.04 655.17,363.51 658.44,359.49 661.71,356.20 664.99,354.17 668.26,356.00 671.54,359.33 674.81,358.64 678.08,358.32 681.36,358.84 684.63,361.38 687.91,367.96 691.18,368.34 694.46,370.86 697.73,370.88 701.00,364.87 704.28,358.87 707.55,352.23 710.83,347.96 714.10,342.61 717.37,336.10 720.65,328.35 723.92,322.93 727.20,315.71 730.47,309.15 733.75,302.64 737.02,300.03 740.29,293.98 743.57,289.98 746.84,288.44 750.12,288.78 753.39,287.93 756.66,282.66 759.94,280.57 763.21,280.95 766.49,281.35 769.76,285.87 773.03,287.31 776.31,288.46 779.58,293.59 782.86,298.08 786.13,307.14 789.41,316.04 792.68,327.18 795.95,337.82 799.23,339.77 802.50,337.23 805.78,328.73 809.05,323.36 812.32,317.95 815.60,319.98 818.87,318.90 822.15,318.24 825.42,320.22 828.69,320.56 831.97,323.64 835.24,329.27 838.52,338.43 841.79,340.47 845.07,348.51 848.34,356.13 851.61,358.72 854.89,357.40 858.16,356.91 861.44,356.71 864.71,354.27 867.98,349.62 871.26,349.29 874.53,350.11 877.81,351.18 881.08,359.57 884.36,366.43 887.63,366.23 890.90,363.24 894.18,361.05 897.45,358.82 900.73,362.18 904.00,371.22" />
<polyline fill="none" stroke="#ff7f0e" stroke-width="2" points="137.85,385.11 141.13,385.00 144.40,385.01 147.68,385.09 150.95,385.12 154.22,385.16 157.50,385.13 160.77,385.16 164.05,385.23 167.32,385.07 170.59,384.78 173.87,384.62 177.14,384.39 180.42,384.17 183.69,383.73 186.97,382.98 190.24,381.92 193.51,380.73 196.79,379.43 200.06,378.17 203.34,376.98 206.61,375.69 209.88,374.77 213.16,374.66 216.43,374.95 219.71,375.54 222.98,376.05 226.25,376.46 229.53,376.58 232.80,376.58 236.08,376.34 239.35,376.44 242.63,376.91 245.90,377.59 249.17,378.41 252.45,379.07 255.72,379.56 259.00,379.87 262.27,379.79 265.54,379.53 268.82,379.27 272.09,379.22 275.37,379.26 278.64,379.46 281.92,379.53 285.19,379.65 288.46,379.80 291.74,379.98 295.01,380.30 298.29,380.87 301.56,381.90 304.83,382.87 308.11,383.79 311.38,384.47 314.66,384.80 317.93,384.92 321.20,384.95 324.48,384.79 327.75,384.75 331.03,384.98 334.30,385.09 337.58,384.99 340.85,384.95 344.12,384.84 347.40,384.55 350.67,384.25 353.95,384.01 357.22,383.54 360.49,382.66 363.77,381.42 367.04,379.95 370.32,378.21 373.59,376.30 376.86,374.58 380.14,373.29 383.41,372.10 386.69,371.39 389.96,370.80 393.24,370.44 396.51,370.33 399.78,370.32 403.06,370.75 406.33,371.34 409.61,372.60 412.88,374.29 416.15,375.69 419.43,377.54 422.70,379.63 425.98,381.46 429.25,382.74 432.53,383.36 435.80,383.31 439.07,383.18 442.35,383.12 445.62,383.10 448.90,383.22 452.17,383.24 455.44,383.14 458.72,383.01 461.99,382.68 465.27,382.27 468.54,381.78 471.81,381.48 475.09,381.64 478.36,382.21 481.64,383.09 484.91,383.90 488.19,384.44 491.46,384.78 494.73,384.81 498.01,384.47 501.28,383.88 504.56,383.19 507.83,382.43 511.10,381.80 514.38,381.29 517.65,380.65 520.93,380.20 524.20,380.04 527.47,380.18 530.75,380.46 534.02,380.86 537.30,381.13 540.57,381.40 543.85,381.62 547.12,381.94 550.39,382.20 553.67,382.64 556.94,382.71 560.22,382.34 563.49,381.68 566.76,380.60 570.04,379.19 573.31,377.80 576.59,376.74 579.86,376.25 583.14,375.62 586.41,374.76 589.68,374.23 592.96,374.25 596.23,374.23 599.51,373.96 602.78,373.41 606.05,372.68 609.33,371.63 612.60,369.92 615.88,367.78 619.15,365.65 622.42,363.96 625.70,363.70 628.97,363.68 632.25,363.65 635.52,364.90 638.80,366.41 642.07,367.19 645.34,367.44 648.62,367.35 651.89,367.09 655.17,366.37 658.44,364.99 661.71,363.24 664.99,361.42 668.26,360.34 671.54,360.14 674.81,359.84 678.08,359.53 681.36,359.39 684.63,359.79 687.91,361.43 691.18,362.81 694.46,364.42 697.73,365.71 701.00,365.54 704.28,364.21 707.55,361.81 710.83,359.04 714.10,355.76 717.37,351.82 720.65,347.13 723.92,342.29 727.20,336.97 730.47,331.41 733.75,325.65 737.02,320.53 740.29,315.22 743.57,310.17 746.84,305.83 750.12,302.42 753.39,299.52 756.66,296.15 759.94,293.03 763.21,290.62 766.49,288.76 769.76,288.18 773.03,288.01 776.31,288.10 779.58,289.20 782.86,290.97 786.13,294.21 789.41,298.57 792.68,304.30 795.95,311.00 799.23,316.75 802.50,320.85 805.78,322.43 809.05,322.61 812.32,321.68 815.60,321.34 818.87,320.85 822.15,320.33 825.42,320.31 828.69,320.36 831.97,321.02 835.24,322.67 838.52,325.82 841.79,328.75 845.07,332.70 848.34,337.39 851.61,341.65 854.89,344.80 858.16,347.23 861.44,349.12 864.71,350.15 867.98,350.05 871.26,349.90 874.53,349.94 877.81,350.19 881.08,352.06 884.36,354.94 887.63,357.20 890.90,358.40 894.18,358.93 897.45,358.91 900.73,359.56 904.00,361.90" />
<text x="754.00" y="290.00" font-size="13" font-family="Arial" fill="#1f77b4" text-anchor="start">MACD</text>
<text x="818.00" y="290.00" font-size="13" font-family="Arial" fill="#ff7f0e" text-anchor="start">Signal</text>
<line x1="56" y1="624" x2="904" y2="624" stroke="#cbd2d9" />
<line x1="56" y1="484" x2="56" y2="624" stroke="#cbd2d9" />
<text x="16.00" y="476.00" font-size="12" font-family="Arial" fill="#52606d" text-anchor="start">KD</text>
<line x1="56" y1="624.00" x2="904" y2="624.00" stroke="#edf2f7" />
<line x1="52" y1="624.00" x2="56" y2="624.00" stroke="#9fb3c8" />
<text x="48.00" y="628.00" font-size="11" font-family="Arial" fill="#52606d" text-anchor="end">-5.00</text>
<line x1="56" y1="577.33" x2="904" y2="577.33" stroke="#edf2f7" />
<line x1="52" y1="577.33" x2="56" y2="577.33" stroke="#9fb3c8" />
<text x="48.00" y="581.33" font-size="11" font-family="Arial" fill="#52606d" text-anchor="end">31.7</text>
<line x1="56" y1="530.67" x2="904" y2="530.67" stroke="#edf2f7" />
<line x1="52" y1="530.67" x2="56" y2="530.67" stroke="#9fb3c8" />
<text x="48.00" y="534.67" font-size="11" font-family="Arial" fill="#52606d" text-anchor="end">68.3</text>
<line x1="56" y1="484.00" x2="904" y2="484.00" stroke="#edf2f7" />
<line x1="52" y1="484.00" x2="56" y2="484.00" stroke="#9fb3c8" />
<text x="48.00" y="488.00" font-size="11" font-family="Arial" fill="#52606d" text-anchor="end">105</text>
<line x1="56.00" y1="624" x2="56.00" y2="628" stroke="#9fb3c8" />
<text x="56.00" y="642.00" font-size="11" font-family="Arial" fill="#52606d" text-anchor="middle">06/13</text>
<line x1="226.25" y1="624" x2="226.25" y2="628" stroke="#9fb3c8" />
<text x="226.25" y="642.00" font-size="11" font-family="Arial" fill="#52606d" text-anchor="middle">08/26</text>
<line x1="396.51" y1="624" x2="396.51" y2="628" stroke="#9fb3c8" />
<text x="396.51" y="642.00" font-size="11" font-family="Arial" fill="#52606d" text-anchor="middle">11/12</text>
<line x1="563.49" y1="624" x2="563.49" y2="628" stroke="#9fb3c8" />
<text x="563.49" y="642.00" font-size="11" font-family="Arial" fill="#52606d" text-anchor="middle">01/26</text>
<line x1="733.75" y1="624" x2="733.75" y2="628" stroke="#9fb3c8" />
<text x="733.75" y="642.00" font-size="11" font-family="Arial" fill="#52606d" text-anchor="middle">04/22</text>
<line x1="904.00" y1="624" x2="904.00" y2="628" stroke="#9fb3c8" />
<text x="904.00" y="642.00" font-size="11" font-family="Arial" fill="#52606d" text-anchor="middle">07/07</text>
<line x1="56" y1="592.18" x2="904" y2="592.18" stroke="#f0b429" stroke-dasharray="5 5" />
<text x="912.00" y="596.18" font-size="10" font-family="Arial" fill="#8d2b0b" text-anchor="start">20.0</text>
<line x1="56" y1="515.82" x2="904" y2="515.82" stroke="#f0b429" stroke-dasharray="5 5" />
<text x="912.00" y="519.82" font-size="10" font-family="Arial" fill="#8d2b0b" text-anchor="start">80.0</text>
<polyline fill="none" stroke="#2ca02c" stroke-width="2" points="82.19,571.53 85.47,588.91 88.74,601.28 92.02,605.61 95.29,603.70 98.56,600.32 101.84,590.93 105.11,606.46 108.39,639.87 111.66,651.95 114.93,636.56 118.21,627.59 121.48,631.24 124.76,643.46 128.03,639.64 131.31,628.67 134.58,618.64 137.85,601.11 141.13,600.76 144.40,617.63 147.68,626.83 150.95,623.47 154.22,626.41 157.50,641.64 160.77,662.26 164.05,677.85 167.32,651.11 170.59,633.28 173.87,637.62 177.14,628.77 180.42,624.37 183.69,607.01 186.97,588.54 190.24,573.42 193.51,566.54 196.79,561.58 200.06,558.58 203.34,556.81 206.61,551.40 209.88,564.55 213.16,601.05 216.43,618.35 219.71,630.99 222.98,626.46 226.25,620.85 229.53,605.63 232.80,596.59 236.08,582.99 239.35,591.33 242.63,606.80 245.90,616.57 249.17,634.92 252.45,632.76 255.72,626.84 259.00,617.93 262.27,599.16 265.54,590.85 268.82,587.89 272.09,594.21 275.37,597.19 278.64,609.53 281.92,613.51 285.19,628.91 288.46,638.64 291.74,643.82 295.01,658.37 298.29,680.13 301.56,681.53 304.83,664.67 308.11,653.43 311.38,635.64 314.66,613.56 317.93,603.01 321.20,596.31 324.48,585.98 327.75,586.69 331.03,602.46 334.30,606.03 337.58,606.59 340.85,618.87 344.12,616.47 347.40,605.70 350.67,602.36 353.95,601.09 357.22,589.20 360.49,574.89 363.77,568.41 367.04,562.63 370.32,555.99 373.59,551.50 376.86,555.40 380.14,561.97 383.41,564.88 386.69,579.39 389.96,591.32 393.24,601.23 396.51,609.80 399.78,610.02 403.06,623.88 406.33,628.54 409.61,651.10 412.88,660.86 416.15,643.77 419.43,652.40 422.70,658.08 425.98,648.95 429.25,629.06 432.53,606.35 435.80,586.73 439.07,582.96 442.35,583.12 445.62,581.89 448.90,584.00 452.17,584.24 455.44,591.67 458.72,617.99 461.99,617.30 465.27,616.97 468.54,612.28 471.81,618.55 475.09,638.40 478.36,656.55 481.64,668.39 484.91,663.84 488.19,649.67 491.46,638.50 494.73,621.74 498.01,603.67 501.28,590.82 504.56,581.93 507.83,574.78 511.10,579.64 514.38,592.81 517.65,591.98 520.93,608.79 524.20,643.44 527.47,662.11 530.75,669.79 534.02,675.45 537.30,665.46 540.57,663.03 543.85,656.13 547.12,658.93 550.39,653.92 553.67,663.77 556.94,644.44 560.22,621.32 563.49,608.48 566.76,591.17 570.04,579.02 573.31,574.62 576.59,577.40 579.86,586.76 583.14,581.66 586.41,580.11 589.68,594.52 592.96,614.24 596.23,609.74 599.51,596.01 602.78,583.66 606.05,577.49 609.33,566.39 612.60,554.55 615.88,546.52 619.15,542.75 622.42,554.18 625.70,587.06 628.97,593.74 632.25,592.40 635.52,610.99 638.80,612.25 642.07,594.80 645.34,581.26 648.62,571.01 651.89,564.25 655.17,551.32 658.44,539.29 661.71,532.27 664.99,530.10 668.26,546.91 671.54,574.33 674.81,569.55 678.08,566.28 681.36,566.30 684.63,576.97 687.91,597.34 691.18,585.50 694.46,587.09 697.73,576.94 701.00,555.19 704.28,541.87 707.55,530.46 710.83,524.42 714.10,520.08 717.37,516.97 720.65,512.44 723.92,513.11 727.20,515.45 730.47,515.46 733.75,514.24 737.02,522.69 740.29,519.43 743.57,522.47 746.84,526.84 750.12,532.43 753.39,531.17 756.66,524.62 759.94,523.97 763.21,526.48 766.49,529.25 769.76,542.03 773.03,538.76 776.31,536.77 779.58,550.41 782.86,563.90 786.13,591.49 789.41,596.36 792.68,609.90 795.95,617.76 799.23,602.66 802.50,578.98 805.78,556.49 809.05,543.58 812.32,536.46 815.60,540.88 818.87,537.76 822.15,534.51 825.42,539.21 828.69,543.18 831.97,563.58 835.24,575.29 838.52,578.56 841.79,565.89 845.07,570.58 848.34,575.58 851.61,569.63 854.89,556.61 858.16,545.88 861.44,538.04 864.71,525.70 867.98,515.82 871.26,517.15 874.53,519.35 877.81,529.06 881.08,558.26 884.36,573.21 887.63,563.50 890.90,546.46 894.18,534.37 897.45,523.22 900.73,530.94 904.00,556.40" />
<polyline fill="none" stroke="#d62728" stroke-width="2" points="82.19,559.84 85.47,569.53 88.74,580.12 92.02,588.61 95.29,593.64 98.56,595.87 101.84,594.22 105.11,598.30 108.39,612.16 111.66,625.42 114.93,629.13 118.21,628.62 121.48,629.49 124.76,634.15 128.03,635.98 131.31,633.54 134.58,628.57 137.85,619.42 141.13,613.20 144.40,614.67 147.68,618.73 150.95,620.31 154.22,622.34 157.50,628.77 160.77,639.94 164.05,652.57 167.32,652.09 170.59,645.82 173.87,643.09 177.14,638.31 180.42,633.67 183.69,624.78 186.97,612.70 190.24,599.61 193.51,588.58 196.79,579.58 200.06,572.58 203.34,567.32 206.61,562.02 209.88,562.86 213.16,575.59 216.43,589.84 219.71,603.56 222.98,611.19 226.25,614.41 229.53,611.48 232.80,606.52 236.08,598.67 239.35,596.23 242.63,599.75 245.90,605.36 249.17,615.21 252.45,621.06 255.72,622.99 259.00,621.30 262.27,613.92 265.54,606.23 268.82,600.12 272.09,598.15 275.37,597.83 278.64,601.73 281.92,605.66 285.19,613.41 288.46,621.82 291.74,629.15 295.01,638.89 298.29,652.64 301.56,662.27 304.83,663.07 308.11,659.86 311.38,651.79 314.66,639.04 317.93,627.03 321.20,616.79 324.48,606.52 327.75,599.91 331.03,600.76 334.30,602.52 337.58,603.88 340.85,608.87 344.12,611.41 347.40,609.50 350.67,607.12 353.95,605.11 357.22,599.81 360.49,591.50 363.77,583.81 367.04,576.75 370.32,569.83 373.59,563.72 376.86,560.95 380.14,561.29 383.41,562.48 386.69,568.12 389.96,575.85 393.24,584.31 396.51,592.81 399.78,598.55 403.06,606.99 406.33,614.18 409.61,626.48 412.88,637.94 416.15,639.89 419.43,644.06 422.70,648.73 425.98,648.80 429.25,642.22 432.53,630.27 435.80,615.75 439.07,604.82 442.35,597.59 445.62,592.35 448.90,589.57 452.17,587.79 455.44,589.08 458.72,598.72 461.99,604.91 465.27,608.93 468.54,610.05 471.81,612.88 475.09,621.39 478.36,633.11 481.64,644.87 484.91,651.19 488.19,650.68 491.46,646.62 494.73,638.33 498.01,626.78 501.28,614.79 504.56,603.84 507.83,594.15 511.10,589.32 514.38,590.48 517.65,590.98 520.93,596.92 524.20,612.43 527.47,628.99 530.75,642.59 534.02,653.54 537.30,657.51 540.57,659.35 543.85,658.28 547.12,658.50 550.39,656.97 553.67,659.24 556.94,654.30 560.22,643.31 563.49,631.70 566.76,618.19 570.04,605.13 573.31,594.96 576.59,589.11 579.86,588.32 583.14,586.10 586.41,584.11 589.68,587.58 592.96,596.47 596.23,600.89 599.51,599.27 602.78,594.06 606.05,588.54 609.33,581.16 612.60,572.29 615.88,563.70 619.15,556.72 622.42,555.87 625.70,566.27 628.97,575.43 632.25,581.09 635.52,591.05 638.80,598.12 642.07,597.01 645.34,591.76 648.62,584.85 651.89,577.98 655.17,569.09 658.44,559.16 661.71,550.20 664.99,543.50 668.26,544.63 671.54,554.53 674.81,559.54 678.08,561.79 681.36,563.29 684.63,567.85 687.91,577.68 691.18,580.29 694.46,582.55 697.73,580.68 701.00,572.19 704.28,562.08 707.55,551.54 710.83,542.50 714.10,535.03 717.37,529.01 720.65,523.48 723.92,520.03 727.20,518.50 730.47,517.49 733.75,516.41 737.02,518.50 740.29,518.81 743.57,520.03 746.84,522.30 750.12,525.68 753.39,527.51 756.66,526.54 759.94,525.69 763.21,525.95 766.49,527.05 769.76,532.04 773.03,534.28 776.31,535.11 779.58,540.21 782.86,548.11 786.13,562.57 789.41,573.83 792.68,585.85 795.95,596.49 799.23,598.55 802.50,592.02 805.78,580.18 809.05,567.98 812.32,557.47 815.60,551.94 818.87,547.22 822.15,542.98 825.42,541.72 828.69,542.21 831.97,549.33 835.24,557.99 838.52,564.84 841.79,565.19 845.07,566.99 848.34,569.85 851.61,569.78 854.89,565.39 858.16,558.88 861.44,551.94 864.71,543.19 867.98,534.07 871.26,528.43 874.53,525.40 877.81,526.62 881.08,537.17 884.36,549.18 887.63,553.95 890.90,551.46 894.18,545.76 897.45,538.25 900.73,535.81 904.00,542.68" />
<text x="824.00" y="502.00" font-size="13" font-family="Arial" fill="#2ca02c" text-anchor="start">K</text>
<text x="860.00" y="502.00" font-size="13" font-family="Arial" fill="#d62728" text-anchor="start">D</text>
</svg>