<svg xmlns="http://www.w3.org/2000/svg" width="960" height="680" viewBox="0 0 960 680"><rect width="100%" height="100%" fill="white" />
<text x="56.00" y="32.00" font-size="20" font-family="Arial" fill="#1f2933" text-anchor="start">台達電(2308) Technical Indicators</text>
<line x1="56" y1="220" x2="904" y2="220" stroke="#cbd2d9" />
<line x1="56" y1="58" x2="56" y2="220" stroke="#cbd2d9" />
<text x="16.00" y="50.00" font-size="12" font-family="Arial" fill="#52606d" text-anchor="start">RSI14</text>
<line x1="56" y1="220.00" x2="904" y2="220.00" stroke="#edf2f7" />
<line x1="52" y1="220.00" x2="56" y2="220.00" stroke="#9fb3c8" />
<text x="48.00" y="224.00" font-size="11" font-family="Arial" fill="#52606d" text-anchor="end">-5.00</text>
<line x1="56" y1="166.00" x2="904" y2="166.00" stroke="#edf2f7" />
<line x1="52" y1="166.00" x2="56" y2="166.00" stroke="#9fb3c8" />
<text x="48.00" y="170.00" font-size="11" font-family="Arial" fill="#52606d" text-anchor="end">31.7</text>
<line x1="56" y1="112.00" x2="904" y2="112.00" stroke="#edf2f7" />
<line x1="52" y1="112.00" x2="56" y2="112.00" stroke="#9fb3c8" />
<text x="48.00" y="116.00" font-size="11" font-family="Arial" fill="#52606d" text-anchor="end">68.3</text>
<line x1="56" y1="58.00" x2="904" y2="58.00" stroke="#edf2f7" />
<line x1="52" y1="58.00" x2="56" y2="58.00" stroke="#9fb3c8" />
<text x="48.00" y="62.00" font-size="11" font-family="Arial" fill="#52606d" text-anchor="end">105</text>
<line x1="56" y1="168.45" x2="904" y2="168.45" stroke="#f0b429" stroke-dasharray="5 5" />
<text x="912.00" y="172.45" font-size="10" font-family="Arial" fill="#8d2b0b" text-anchor="start">30.0</text>
<line x1="56" y1="109.55" x2="904" y2="109.55" stroke="#f0b429" stroke-dasharray="5 5" />
<text x="912.00" y="113.55" font-size="10" font-family="Arial" fill="#8d2b0b" text-anchor="start">70.0</text>
<polyline fill="none" stroke="#1f77b4" stroke-width="2" points="101.84,98.98 105.11,96.55 108.39,95.15 111.66,97.01 114.93,95.23 118.21,97.23 121.48,98.27 124.76,96.74 128.03,95.82 131.31,94.31 134.58,86.09 137.85,82.42 141.13,78.63 144.40,87.10 147.68,86.84 150.95,85.02 154.22,84.90 157.50,84.37 160.77,80.69 164.05,84.73 167.32,82.88 170.59,82.66 173.87,102.91 177.14,122.97 180.42,116.53 183.69,112.58 186.97,109.81 190.24,107.80 193.51,101.03 196.79,106.74 200.06,106.33 203.34,117.97 206.61,119.40 209.88,121.87 213.16,118.54 216.43,109.60 219.71,109.60 222.98,98.79 226.25,92.32 229.53,95.09 232.80,94.37 236.08,94.88 239.35,94.21 242.63,97.05 245.90,89.94 249.17,92.02 252.45,89.90 255.72,97.21 259.00,98.26 262.27,102.04 265.54,119.17 268.82,117.72 272.09,113.73 275.37,108.89 278.64,100.90 281.92,95.35 285.19,97.92 288.46,95.77 291.74,92.44 295.01,107.61 298.29,104.40 301.56,103.06 304.83,112.67 308.11,110.07 311.38,109.26 314.66,109.26 317.93,113.44 321.20,103.48 324.48,102.79 327.75,108.90 331.03,126.18 334.30,130.60 337.58,134.05 340.85,136.36 344.12,138.70 347.40,135.51 350.67,139.55 353.95,134.46 357.22,137.72 360.49,139.36 363.77,142.35 367.04,152.87 370.32,154.43 373.59,158.96 376.86,159.95 380.14,138.37 383.41,152.82 386.69,153.24 389.96,147.91 393.24,138.13 396.51,138.93 399.78,141.69 403.06,130.87 406.33,127.19 409.61,125.37 412.88,124.90 416.15,131.74 419.43,131.74 422.70,134.56 425.98,135.65 429.25,143.57 432.53,145.82 435.80,150.79 439.07,156.67 442.35,159.52 445.62,159.05 448.90,150.01 452.17,134.85 455.44,138.26 458.72,134.35 461.99,134.02 465.27,131.95 468.54,132.38 471.81,131.62 475.09,120.72 478.36,116.47 481.64,107.25 484.91,116.58 488.19,124.95 491.46,123.58 494.73,113.99 498.01,123.84 501.28,117.15 504.56,122.69 507.83,108.37 511.10,110.09 514.38,108.56 517.65,107.77 520.93,95.00 524.20,93.75 527.47,103.68 530.75,101.51 534.02,98.49 537.30,106.47 540.57,116.59 543.85,127.80 547.12,121.53 550.39,122.74 553.67,135.96 556.94,134.15 560.22,130.54 563.49,129.63 566.76,117.82 570.04,112.25 573.31,104.34 576.59,100.36 579.86,101.58 583.14,102.87 586.41,122.06 589.68,136.41 592.96,126.58 596.23,128.92 599.51,142.59 602.78,134.12 606.05,123.36 609.33,127.29 612.60,125.86 615.88,129.31 619.15,121.59 622.42,119.40 625.70,120.94 628.97,119.03 632.25,129.09 635.52,128.52 638.80,115.63 642.07,120.86 645.34,121.62 648.62,125.48 651.89,139.51 655.17,129.46 658.44,134.84 661.71,126.76 664.99,115.65 668.26,118.10 671.54,112.34 674.81,112.03 678.08,111.39 681.36,109.11 684.63,105.45 687.91,106.25 691.18,102.66 694.46,96.93 697.73,96.93 701.00,102.88 704.28,97.98 707.55,106.61 710.83,101.08 714.10,99.22 717.37,99.22 720.65,96.62 723.92,105.48 727.20,102.95 730.47,99.36 733.75,111.28 737.02,108.53 740.29,115.49 743.57,119.51 746.84,120.88 750.12,131.16 753.39,137.41 756.66,147.65 759.94,147.65 763.21,135.52 766.49,129.74 769.76,116.21 773.03,112.90 776.31,105.03 779.58,117.95 782.86,115.22 786.13,117.63 789.41,123.35 792.68,117.95 795.95,120.86 799.23,131.96 802.50,135.57 805.78,125.29 809.05,140.56 812.32,143.00 815.60,139.30 818.87,139.64 822.15,138.18 825.42,142.88 828.69,143.25 831.97,143.25 835.24,148.78 838.52,154.49 841.79,155.85 845.07,165.90 848.34,156.22 851.61,151.97 854.89,148.26 858.16,149.71 861.44,140.17 864.71,146.32 867.98,153.43 871.26,153.76 874.53,154.10 877.81,154.10 881.08,152.91 884.36,155.78 887.63,151.33 890.90,149.42 894.18,162.59 897.45,164.86 900.73,149.57 904.00,145.00" />
<text x="808.00" y="76.00" font-size="13" font-family="Arial" fill="#1f77b4" text-anchor="start">RSI14</text>
<line x1="56" y1="432" x2="904" y2="432" stroke="#cbd2d9" />
<line x1="56" y1="272" x2="56" y2="432" stroke="#cbd2d9" />
<text x="16.00" y="264.00" font-size="12" font-family="Arial" fill="#52606d" text-anchor="start">MACD</text>
<line x1="56" y1="432.00" x2="904" y2="432.00" stroke="#edf2f7" />
<line x1="52" y1="432.00" x2="56" y2="432.00" stroke="#9fb3c8" />
<text x="48.00" y="436.00" font-size="11" font-family="Arial" fill="#52606d" text-anchor="end">-103</text>
<line x1="56" y1="378.67" x2="904" y2="378.67" stroke="#edf2f7" />
<line x1="52" y1="378.67" x2="56" y2="378.67" stroke="#9fb3c8" />
<text x="48.00" y="382.67" font-size="11" font-family="Arial" fill="#52606d" text-anchor="end">-2.91</text>
<line x1="56" y1="325.33" x2="904" y2="325.33" stroke="#edf2f7" />
<line x1="52" y1="325.33" x2="56" y2="325.33" stroke="#9fb3c8" />
<text x="48.00" y="329.33" font-size="11" font-family="Arial" fill="#52606d" text-anchor="end">97.5</text>
<line x1="56" y1="272.00" x2="904" y2="272.00" stroke="#edf2f7" />
<line x1="52" y1="272.00" x2="56" y2="272.00" stroke="#9fb3c8" />
<text x="48.00" y="276.00" font-size="11" font-family="Arial" fill="#52606d" text-anchor="end">198</text>
<line x1="56" y1="377.12" x2="904" y2="377.12" stroke="#9fb3c8" stroke-dasharray="4 4" />
<rect x="136.71" y="377.12" width="2.28" height="0.00" fill="#2f9e44" opacity="0.55" />
<rect x="139.99" y="374.63" width="2.28" height="2.48" fill="#2f9e44" opacity="0.55" />
<rect x="143.26" y="373.73" width="2.28" height="3.39" fill="#2f9e44" opacity="0.55" />
<rect x="146.53" y="373.43" width="2.28" height="3.69" fill="#2f9e44" opacity="0.55" />
<rect x="149.81" y="373.13" width="2.28" height="3.99" fill="#2f9e44" opacity="0.55" />
<rect x="153.08" y="373.29" width="2.28" height="3.83" fill="#2f9e44" opacity="0.55" />
<rect x="156.36" y="373.65" width="2.28" height="3.47" fill="#2f9e44" opacity="0.55" />
<rect x="159.63" y="373.13" width="2.28" height="3.99" fill="#2f9e44" opacity="0.55" />
<rect x="162.90" y="373.38" width="2.28" height="3.74" fill="#2f9e44" opacity="0.55" />
<rect x="166.18" y="373.41" width="2.28" height="3.71" fill="#2f9e44" opacity="0.55" />
<rect x="169.45" y="373.77" width="2.28" height="3.35" fill="#2f9e44" opacity="0.55" />
<rect x="172.73" y="375.31" width="2.28" height="1.81" fill="#2f9e44" opacity="0.55" />
<rect x="176.00" y="377.12" width="2.28" height="0.69" fill="#d64545" opacity="0.55" />
<rect x="179.28" y="377.12" width="2.28" height="1.68" fill="#d64545" opacity="0.55" />
<rect x="182.55" y="377.12" width="2.28" height="1.89" fill="#d64545" opacity="0.55" />
<rect x="185.82" y="377.12" width="2.28" height="1.74" fill="#d64545" opacity="0.55" />
<rect x="189.10" y="377.12" width="2.28" height="1.47" fill="#d64545" opacity="0.55" />
<rect x="192.37" y="377.12" width="2.28" height="0.26" fill="#d64545" opacity="0.55" />
<rect x="195.65" y="377.12" width="2.28" height="0.07" fill="#d64545" opacity="0.55" />
<rect x="198.92" y="377.12" width="2.28" height="0.09" fill="#d64545" opacity="0.55" />
<rect x="202.19" y="377.12" width="2.28" height="1.08" fill="#d64545" opacity="0.55" />
<rect x="205.47" y="377.12" width="2.28" height="1.96" fill="#d64545" opacity="0.55" />
<rect x="208.74" y="377.12" width="2.28" height="2.78" fill="#d64545" opacity="0.55" />
<rect x="212.02" y="377.12" width="2.28" height="2.98" fill="#d64545" opacity="0.55" />
<rect x="215.29" y="377.12" width="2.28" height="1.96" fill="#d64545" opacity="0.55" />
<rect x="218.57" y="377.12" width="2.28" height="1.41" fill="#d64545" opacity="0.55" />
<rect x="221.84" y="376.33" width="2.28" height="0.79" fill="#2f9e44" opacity="0.55" />
<rect x="225.11" y="373.40" width="2.28" height="3.72" fill="#2f9e44" opacity="0.55" />
<rect x="228.39" y="372.15" width="2.28" height="4.97" fill="#2f9e44" opacity="0.55" />
<rect x="231.66" y="371.63" width="2.28" height="5.48" fill="#2f9e44" opacity="0.55" />
<rect x="234.94" y="371.85" width="2.28" height="5.27" fill="#2f9e44" opacity="0.55" />
<rect x="238.21" y="372.32" width="2.28" height="4.80" fill="#2f9e44" opacity="0.55" />
<rect x="241.48" y="373.28" width="2.28" height="3.84" fill="#2f9e44" opacity="0.55" />
<rect x="244.76" y="372.44" width="2.28" height="4.67" fill="#2f9e44" opacity="0.55" />
<rect x="248.03" y="372.56" width="2.28" height="4.56" fill="#2f9e44" opacity="0.55" />
<rect x="251.31" y="372.50" width="2.28" height="4.62" fill="#2f9e44" opacity="0.55" />
<rect x="254.58" y="373.46" width="2.28" height="3.66" fill="#2f9e44" opacity="0.55" />
<rect x="257.85" y="374.61" width="2.28" height="2.51" fill="#2f9e44" opacity="0.55" />
<rect x="261.13" y="376.00" width="2.28" height="1.12" fill="#2f9e44" opacity="0.55" />
<rect x="264.40" y="377.12" width="2.28" height="1.32" fill="#d64545" opacity="0.55" />
<rect x="267.68" y="377.12" width="2.28" height="2.87" fill="#d64545" opacity="0.55" />
<rect x="270.95" y="377.12" width="2.28" height="3.41" fill="#d64545" opacity="0.55" />
<rect x="274.23" y="377.12" width="2.28" height="3.07" fill="#d64545" opacity="0.55" />
<rect x="277.50" y="377.12" width="2.28" height="1.36" fill="#d64545" opacity="0.55" />
<rect x="280.77" y="376.08" width="2.28" height="1.04" fill="#2f9e44" opacity="0.55" />
<rect x="284.05" y="375.11" width="2.28" height="2.01" fill="#2f9e44" opacity="0.55" />
<rect x="287.32" y="374.28" width="2.28" height="2.84" fill="#2f9e44" opacity="0.55" />
<rect x="290.60" y="373.15" width="2.28" height="3.97" fill="#2f9e44" opacity="0.55" />
<rect x="293.87" y="374.22" width="2.28" height="2.90" fill="#2f9e44" opacity="0.55" />
<rect x="297.14" y="374.57" width="2.28" height="2.55" fill="#2f9e44" opacity="0.55" />
<rect x="300.42" y="374.89" width="2.28" height="2.23" fill="#2f9e44" opacity="0.55" />
<rect x="303.69" y="376.39" width="2.28" height="0.72" fill="#2f9e44" opacity="0.55" />
<rect x="306.97" y="377.12" width="2.28" height="0.03" fill="#d64545" opacity="0.55" />
<rect x="310.24" y="377.12" width="2.28" height="0.65" fill="#d64545" opacity="0.55" />
<rect x="313.51" y="377.12" width="2.28" height="1.31" fill="#d64545" opacity="0.55" />
<rect x="316.79" y="377.12" width="2.28" height="2.30" fill="#d64545" opacity="0.55" />
<rect x="320.06" y="377.12" width="2.28" height="1.08" fill="#d64545" opacity="0.55" />
<rect x="323.34" y="377.12" width="2.28" height="0.39" fill="#d64545" opacity="0.55" />
<rect x="326.61" y="377.12" width="2.28" height="0.74" fill="#d64545" opacity="0.55" />
<rect x="329.89" y="377.12" width="2.28" height="2.91" fill="#d64545" opacity="0.55" />
<rect x="333.16" y="377.12" width="2.28" height="4.91" fill="#d64545" opacity="0.55" />
<rect x="336.43" y="377.12" width="2.28" height="6.59" fill="#d64545" opacity="0.55" />
<rect x="339.71" y="377.12" width="2.28" height="7.83" fill="#d64545" opacity="0.55" />
<rect x="342.98" y="377.12" width="2.28" height="8.72" fill="#d64545" opacity="0.55" />
<rect x="346.26" y="377.12" width="2.28" height="8.67" fill="#d64545" opacity="0.55" />
<rect x="349.53" y="377.12" width="2.28" height="8.84" fill="#d64545" opacity="0.55" />
<rect x="352.80" y="377.12" width="2.28" height="8.09" fill="#d64545" opacity="0.55" />
<rect x="356.08" y="377.12" width="2.28" height="7.70" fill="#d64545" opacity="0.55" />
<rect x="359.35" y="377.12" width="2.28" height="7.37" fill="#d64545" opacity="0.55" />
<rect x="362.63" y="377.12" width="2.28" height="7.22" fill="#d64545" opacity="0.55" />
<rect x="365.90" y="377.12" width="2.28" height="8.08" fill="#d64545" opacity="0.55" />
<rect x="369.18" y="377.12" width="2.28" height="8.49" fill="#d64545" opacity="0.55" />
<rect x="372.45" y="377.12" width="2.28" height="9.00" fill="#d64545" opacity="0.55" />
<rect x="375.72" y="377.12" width="2.28" height="9.03" fill="#d64545" opacity="0.55" />
<rect x="379.00" y="377.12" width="2.28" height="6.60" fill="#d64545" opacity="0.55" />
<rect x="382.27" y="377.12" width="2.28" height="6.74" fill="#d64545" opacity="0.55" />
<rect x="385.55" y="377.12" width="2.28" height="6.55" fill="#d64545" opacity="0.55" />
<rect x="388.82" y="377.12" width="2.28" height="5.51" fill="#d64545" opacity="0.55" />
<rect x="392.09" y="377.12" width="2.28" height="3.37" fill="#d64545" opacity="0.55" />
<rect x="395.37" y="377.12" width="2.28" height="1.93" fill="#d64545" opacity="0.55" />
<rect x="398.64" y="377.12" width="2.28" height="1.23" fill="#d64545" opacity="0.55" />
<rect x="401.92" y="376.43" width="2.28" height="0.69" fill="#2f9e44" opacity="0.55" />
<rect x="405.19" y="374.69" width="2.28" height="2.43" fill="#2f9e44" opacity="0.55" />
<rect x="408.46" y="373.43" width="2.28" height="3.69" fill="#2f9e44" opacity="0.55" />
<rect x="411.74" y="372.75" width="2.28" height="4.37" fill="#2f9e44" opacity="0.55" />
<rect x="415.01" y="373.22" width="2.28" height="3.90" fill="#2f9e44" opacity="0.55" />
<rect x="418.29" y="373.72" width="2.28" height="3.40" fill="#2f9e44" opacity="0.55" />
<rect x="421.56" y="374.49" width="2.28" height="2.63" fill="#2f9e44" opacity="0.55" />
<rect x="424.84" y="375.22" width="2.28" height="1.90" fill="#2f9e44" opacity="0.55" />
<rect x="428.11" y="376.58" width="2.28" height="0.54" fill="#2f9e44" opacity="0.55" />
<rect x="431.38" y="377.12" width="2.28" height="0.59" fill="#d64545" opacity="0.55" />
<rect x="434.66" y="377.12" width="2.28" height="1.83" fill="#d64545" opacity="0.55" />
<rect x="437.93" y="377.12" width="2.28" height="3.23" fill="#d64545" opacity="0.55" />
<rect x="441.21" y="377.12" width="2.28" height="4.32" fill="#d64545" opacity="0.55" />
<rect x="444.48" y="377.12" width="2.28" height="4.74" fill="#d64545" opacity="0.55" />
<rect x="447.75" y="377.12" width="2.28" height="4.06" fill="#d64545" opacity="0.55" />
<rect x="451.03" y="377.12" width="2.28" height="1.99" fill="#d64545" opacity="0.55" />
<rect x="454.30" y="377.12" width="2.28" height="0.89" fill="#d64545" opacity="0.55" />
<rect x="457.58" y="376.85" width="2.28" height="0.27" fill="#2f9e44" opacity="0.55" />
<rect x="460.85" y="376.07" width="2.28" height="1.05" fill="#2f9e44" opacity="0.55" />
<rect x="464.12" y="375.41" width="2.28" height="1.71" fill="#2f9e44" opacity="0.55" />
<rect x="467.40" y="375.09" width="2.28" height="2.03" fill="#2f9e44" opacity="0.55" />
<rect x="470.67" y="374.92" width="2.28" height="2.20" fill="#2f9e44" opacity="0.55" />
<rect x="473.95" y="373.83" width="2.28" height="3.29" fill="#2f9e44" opacity="0.55" />
<rect x="477.22" y="372.81" width="2.28" height="4.31" fill="#2f9e44" opacity="0.55" />
<rect x="480.50" y="371.05" width="2.28" height="6.07" fill="#2f9e44" opacity="0.55" />
<rect x="483.77" y="370.96" width="2.28" height="6.16" fill="#2f9e44" opacity="0.55" />
<rect x="487.04" y="371.93" width="2.28" height="5.18" fill="#2f9e44" opacity="0.55" />
<rect x="490.32" y="372.69" width="2.28" height="4.43" fill="#2f9e44" opacity="0.55" />
<rect x="493.59" y="372.10" width="2.28" height="5.01" fill="#2f9e44" opacity="0.55" />
<rect x="496.87" y="372.91" width="2.28" height="4.21" fill="#2f9e44" opacity="0.55" />
<rect x="500.14" y="372.70" width="2.28" height="4.42" fill="#2f9e44" opacity="0.55" />
<rect x="503.41" y="373.39" width="2.28" height="3.73" fill="#2f9e44" opacity="0.55" />
<rect x="506.69" y="371.41" width="2.28" height="5.71" fill="#2f9e44" opacity="0.55" />
<rect x="509.96" y="370.75" width="2.28" height="6.37" fill="#2f9e44" opacity="0.55" />
<rect x="513.24" y="370.45" width="2.28" height="6.67" fill="#2f9e44" opacity="0.55" />
<rect x="516.51" y="370.58" width="2.28" height="6.54" fill="#2f9e44" opacity="0.55" />
<rect x="519.79" y="367.45" width="2.28" height="9.67" fill="#2f9e44" opacity="0.55" />
<rect x="523.06" y="365.66" width="2.28" height="11.46" fill="#2f9e44" opacity="0.55" />
<rect x="526.33" y="366.35" width="2.28" height="10.77" fill="#2f9e44" opacity="0.55" />
<rect x="529.61" y="366.90" width="2.28" height="10.22" fill="#2f9e44" opacity="0.55" />
<rect x="532.88" y="367.02" width="2.28" height="10.10" fill="#2f9e44" opacity="0.55" />
<rect x="536.16" y="368.73" width="2.28" height="8.39" fill="#2f9e44" opacity="0.55" />
<rect x="539.43" y="371.71" width="2.28" height="5.40" fill="#2f9e44" opacity="0.55" />
<rect x="542.70" y="375.69" width="2.28" height="1.43" fill="#2f9e44" opacity="0.55" />
<rect x="545.98" y="377.12" width="2.28" height="0.09" fill="#d64545" opacity="0.55" />
<rect x="549.25" y="377.12" width="2.28" height="1.51" fill="#d64545" opacity="0.55" />
<rect x="552.53" y="377.12" width="2.28" height="4.65" fill="#d64545" opacity="0.55" />
<rect x="555.80" y="377.12" width="2.28" height="6.33" fill="#d64545" opacity="0.55" />
<rect x="559.07" y="377.12" width="2.28" height="6.65" fill="#d64545" opacity="0.55" />
<rect x="562.35" y="377.12" width="2.28" height="6.59" fill="#d64545" opacity="0.55" />
<rect x="565.62" y="377.12" width="2.28" height="3.93" fill="#d64545" opacity="0.55" />
<rect x="568.90" y="377.12" width="2.28" height="0.78" fill="#d64545" opacity="0.55" />
<rect x="572.17" y="373.42" width="2.28" height="3.70" fill="#2f9e44" opacity="0.55" />
<rect x="575.45" y="369.36" width="2.28" height="7.76" fill="#2f9e44" opacity="0.55" />
<rect x="578.72" y="367.66" width="2.28" height="9.46" fill="#2f9e44" opacity="0.55" />
<rect x="581.99" y="367.54" width="2.28" height="9.58" fill="#2f9e44" opacity="0.55" />
<rect x="585.27" y="371.14" width="2.28" height="5.98" fill="#2f9e44" opacity="0.55" />
<rect x="588.54" y="376.89" width="2.28" height="0.23" fill="#2f9e44" opacity="0.55" />
<rect x="591.82" y="377.12" width="2.28" height="1.01" fill="#d64545" opacity="0.55" />
<rect x="595.09" y="377.12" width="2.28" height="2.56" fill="#d64545" opacity="0.55" />
<rect x="598.36" y="377.12" width="2.28" height="7.07" fill="#d64545" opacity="0.55" />
<rect x="601.64" y="377.12" width="2.28" height="7.47" fill="#d64545" opacity="0.55" />
<rect x="604.91" y="377.12" width="2.28" height="3.90" fill="#d64545" opacity="0.55" />
<rect x="608.19" y="377.12" width="2.28" height="2.73" fill="#d64545" opacity="0.55" />
<rect x="611.46" y="377.12" width="2.28" height="1.62" fill="#d64545" opacity="0.55" />
<rect x="614.73" y="377.12" width="2.28" height="1.94" fill="#d64545" opacity="0.55" />
<rect x="618.01" y="376.71" width="2.28" height="0.41" fill="#2f9e44" opacity="0.55" />
<rect x="621.28" y="374.68" width="2.28" height="2.44" fill="#2f9e44" opacity="0.55" />
<rect x="624.56" y="374.13" width="2.28" height="2.99" fill="#2f9e44" opacity="0.55" />
<rect x="627.83" y="373.53" width="2.28" height="3.58" fill="#2f9e44" opacity="0.55" />
<rect x="631.11" y="375.82" width="2.28" height="1.30" fill="#2f9e44" opacity="0.55" />
<rect x="634.38" y="377.12" width="2.28" height="0.31" fill="#d64545" opacity="0.55" />
<rect x="637.65" y="374.15" width="2.28" height="2.97" fill="#2f9e44" opacity="0.55" />
<rect x="640.93" y="373.71" width="2.28" height="3.40" fill="#2f9e44" opacity="0.55" />
<rect x="644.20" y="374.08" width="2.28" height="3.04" fill="#2f9e44" opacity="0.55" />
<rect x="647.48" y="375.61" width="2.28" height="1.50" fill="#2f9e44" opacity="0.55" />
<rect x="650.75" y="377.12" width="2.28" height="3.38" fill="#d64545" opacity="0.55" />
<rect x="654.02" y="377.12" width="2.28" height="3.35" fill="#d64545" opacity="0.55" />
<rect x="657.30" y="377.12" width="2.28" height="4.97" fill="#d64545" opacity="0.55" />
<rect x="660.57" y="377.12" width="2.28" height="3.13" fill="#d64545" opacity="0.55" />
<rect x="663.85" y="374.15" width="2.28" height="2.97" fill="#2f9e44" opacity="0.55" />
<rect x="667.12" y="371.43" width="2.28" height="5.69" fill="#2f9e44" opacity="0.55" />
<rect x="670.40" y="367.28" width="2.28" height="9.84" fill="#2f9e44" opacity="0.55" />
<rect x="673.67" y="365.34" width="2.28" height="11.78" fill="#2f9e44" opacity="0.55" />
<rect x="676.94" y="364.74" width="2.28" height="12.38" fill="#2f9e44" opacity="0.55" />
<rect x="680.22" y="364.20" width="2.28" height="12.92" fill="#2f9e44" opacity="0.55" />
<rect x="683.49" y="362.91" width="2.28" height="14.21" fill="#2f9e44" opacity="0.55" />
<rect x="686.77" y="363.45" width="2.28" height="13.67" fill="#2f9e44" opacity="0.55" />
<rect x="690.04" y="362.94" width="2.28" height="14.18" fill="#2f9e44" opacity="0.55" />
<rect x="693.31" y="359.98" width="2.28" height="17.14" fill="#2f9e44" opacity="0.55" />
<rect x="696.59" y="359.55" width="2.28" height="17.57" fill="#2f9e44" opacity="0.55" />
<rect x="699.86" y="361.96" width="2.28" height="15.16" fill="#2f9e44" opacity="0.55" />
<rect x="703.14" y="361.66" width="2.28" height="15.46" fill="#2f9e44" opacity="0.55" />
<rect x="706.41" y="364.78" width="2.28" height="12.34" fill="#2f9e44" opacity="0.55" />
<rect x="709.68" y="364.52" width="2.28" height="12.60" fill="#2f9e44" opacity="0.55" />
<rect x="712.96" y="364.36" width="2.28" height="12.76" fill="#2f9e44" opacity="0.55" />
<rect x="716.23" y="365.66" width="2.28" height="11.46" fill="#2f9e44" opacity="0.55" />
<rect x="719.51" y="365.97" width="2.28" height="11.15" fill="#2f9e44" opacity="0.55" />
<rect x="722.78" y="369.38" width="2.28" height="7.74" fill="#2f9e44" opacity="0.55" />
<rect x="726.06" y="371.21" width="2.28" height="5.91" fill="#2f9e44" opacity="0.55" />
<rect x="729.33" y="371.11" width="2.28" height="6.01" fill="#2f9e44" opacity="0.55" />
<rect x="732.60" y="374.88" width="2.28" height="2.23" fill="#2f9e44" opacity="0.55" />
<rect x="735.88" y="376.68" width="2.28" height="0.44" fill="#2f9e44" opacity="0.55" />
<rect x="739.15" y="377.12" width="2.28" height="3.22" fill="#d64545" opacity="0.55" />
<rect x="742.43" y="377.12" width="2.28" height="7.18" fill="#d64545" opacity="0.55" />
<rect x="745.70" y="377.12" width="2.28" height="10.43" fill="#d64545" opacity="0.55" />
<rect x="748.97" y="377.12" width="2.28" height="15.40" fill="#d64545" opacity="0.55" />
<rect x="752.25" y="377.12" width="2.28" height="20.31" fill="#d64545" opacity="0.55" />
<rect x="755.52" y="377.12" width="2.28" height="26.56" fill="#d64545" opacity="0.55" />
<rect x="758.80" y="377.12" width="2.28" height="29.72" fill="#d64545" opacity="0.55" />
<rect x="762.07" y="377.12" width="2.28" height="26.85" fill="#d64545" opacity="0.55" />
<rect x="765.34" y="377.12" width="2.28" height="21.96" fill="#d64545" opacity="0.55" />
<rect x="768.62" y="377.12" width="2.28" height="11.63" fill="#d64545" opacity="0.55" />
<rect x="771.89" y="377.12" width="2.28" height="2.95" fill="#d64545" opacity="0.55" />
<rect x="775.17" y="369.18" width="2.28" height="7.94" fill="#2f9e44" opacity="0.55" />
<rect x="778.44" y="367.60" width="2.28" height="9.52" fill="#2f9e44" opacity="0.55" />
<rect x="781.72" y="365.72" width="2.28" height="11.40" fill="#2f9e44" opacity="0.55" />
<rect x="784.99" y="366.47" width="2.28" height="10.64" fill="#2f9e44" opacity="0.55" />
<rect x="788.26" y="370.05" width="2.28" height="7.07" fill="#2f9e44" opacity="0.55" />
<rect x="791.54" y="369.99" width="2.28" height="7.13" fill="#2f9e44" opacity="0.55" />
<rect x="794.81" y="371.89" width="2.28" height="5.23" fill="#2f9e44" opacity="0.55" />
<rect x="798.09" y="377.12" width="2.28" height="1.01" fill="#d64545" opacity="0.55" />
<rect x="801.36" y="377.12" width="2.28" height="6.94" fill="#d64545" opacity="0.55" />
<rect x="804.63" y="377.12" width="2.28" height="5.45" fill="#d64545" opacity="0.55" />
<rect x="807.91" y="377.12" width="2.28" height="12.01" fill="#d64545" opacity="0.55" />
<rect x="811.18" y="377.12" width="2.28" height="17.34" fill="#d64545" opacity="0.55" />
<rect x="814.46" y="377.12" width="2.28" height="18.39" fill="#d64545" opacity="0.55" />
<rect x="817.73" y="377.12" width="2.28" height="18.67" fill="#d64545" opacity="0.55" />
<rect x="821.01" y="377.12" width="2.28" height="17.57" fill="#d64545" opacity="0.55" />
<rect x="824.28" y="377.12" width="2.28" height="18.45" fill="#d64545" opacity="0.55" />
<rect x="827.55" y="377.12" width="2.28" height="18.51" fill="#d64545" opacity="0.55" />
<rect x="830.83" y="377.12" width="2.28" height="17.82" fill="#d64545" opacity="0.55" />
<rect x="834.10" y="377.12" width="2.28" height="19.05" fill="#d64545" opacity="0.55" />
<rect x="837.38" y="377.12" width="2.28" height="21.70" fill="#d64545" opacity="0.55" />
<rect x="840.65" y="377.12" width="2.28" height="23.03" fill="#d64545" opacity="0.55" />
<rect x="843.92" y="377.12" width="2.28" height="28.48" fill="#d64545" opacity="0.55" />
<rect x="847.20" y="377.12" width="2.28" height="27.19" fill="#d64545" opacity="0.55" />
<rect x="850.47" y="377.12" width="2.28" height="23.38" fill="#d64545" opacity="0.55" />
<rect x="853.75" y="377.12" width="2.28" height="18.30" fill="#d64545" opacity="0.55" />
<rect x="857.02" y="377.12" width="2.28" height="14.68" fill="#d64545" opacity="0.55" />
<rect x="860.29" y="377.12" width="2.28" height="7.90" fill="#d64545" opacity="0.55" />
<rect x="863.57" y="377.12" width="2.28" height="5.74" fill="#d64545" opacity="0.55" />
<rect x="866.84" y="377.12" width="2.28" height="7.43" fill="#d64545" opacity="0.55" />
<rect x="870.12" y="377.12" width="2.28" height="8.03" fill="#d64545" opacity="0.55" />
<rect x="873.39" y="377.12" width="2.28" height="7.91" fill="#d64545" opacity="0.55" />
<rect x="876.67" y="377.12" width="2.28" height="7.15" fill="#d64545" opacity="0.55" />
<rect x="879.94" y="377.12" width="2.28" height="5.67" fill="#d64545" opacity="0.55" />
<rect x="883.21" y="377.12" width="2.28" height="5.34" fill="#d64545" opacity="0.55" />
<rect x="886.49" y="377.12" width="2.28" height="3.35" fill="#d64545" opacity="0.55" />
<rect x="889.76" y="377.12" width="2.28" height="1.10" fill="#d64545" opacity="0.55" />
<rect x="893.04" y="377.12" width="2.28" height="4.90" fill="#d64545" opacity="0.55" />
<rect x="896.31" y="377.12" width="2.28" height="7.88" fill="#d64545" opacity="0.55" />
<rect x="899.58" y="377.12" width="2.28" height="4.58" fill="#d64545" opacity="0.55" />
<rect x="902.86" y="377.12" width="2.28" height="0.39" fill="#d64545" opacity="0.55" />
<polyline fill="none" stroke="#1f77b4" stroke-width="2" points="137.85,361.24 141.13,358.14 144.40,356.39 147.68,355.16 150.95,353.87 154.22,353.07 157.50,352.56 160.77,351.04 164.05,350.36 167.32,349.46 170.59,348.99 173.87,350.07 177.14,352.75 180.42,354.16 183.69,354.84 186.97,355.13 190.24,355.23 193.51,354.08 196.79,353.90 200.06,353.95 203.34,355.21 206.61,356.58 209.88,358.10 213.16,359.04 216.43,358.51 219.71,358.31 222.98,355.92 226.25,352.05 229.53,349.57 232.80,347.68 236.08,346.58 239.35,345.85 242.63,345.85 245.90,343.84 249.17,342.82 252.45,341.61 255.72,341.65 259.00,342.18 262.27,343.28 265.54,346.05 268.82,348.32 272.09,349.71 275.37,350.14 278.64,348.77 281.92,346.11 285.19,344.64 288.46,343.10 291.74,340.98 295.01,341.32 298.29,341.03 301.56,340.80 304.83,342.12 308.11,342.88 311.38,343.66 314.66,344.65 317.93,346.22 321.20,345.27 324.48,344.68 327.75,345.22 331.03,348.11 334.30,351.34 337.58,354.67 340.85,357.87 344.12,360.93 347.40,363.05 350.67,365.43 353.95,366.70 357.22,368.24 360.49,369.76 363.77,371.41 367.04,374.28 370.32,376.82 373.59,379.57 376.86,381.87 380.14,381.08 383.41,382.91 386.69,384.36 389.96,384.70 393.24,383.40 396.51,382.44 399.78,382.05 403.06,379.96 406.33,377.61 409.61,375.43 412.88,373.66 416.15,373.15 419.43,372.80 422.70,372.91 425.98,373.17 429.25,374.39 432.53,375.67 435.80,377.36 439.07,379.57 442.35,381.74 445.62,383.34 448.90,383.68 452.17,382.11 455.44,381.24 458.72,380.00 461.99,378.96 465.27,377.87 468.54,377.05 471.81,376.32 475.09,374.41 478.36,372.32 481.64,369.04 484.91,367.41 488.19,367.09 491.46,366.74 494.73,364.90 498.01,364.65 501.28,363.33 504.56,363.09 507.83,359.69 511.10,357.43 514.38,355.47 517.65,353.96 520.93,348.41 524.20,343.76 527.47,341.76 530.75,339.75 534.02,337.34 537.30,336.96 540.57,338.59 543.85,342.21 547.12,343.75 550.39,345.55 553.67,349.85 556.94,353.11 560.22,355.09 563.49,356.69 566.76,355.01 570.04,352.05 573.31,346.65 576.59,340.65 579.86,336.58 583.14,334.07 586.41,336.17 589.68,341.86 592.96,343.36 596.23,345.54 599.51,351.83 602.78,354.09 606.05,351.49 609.33,351.01 612.60,350.30 615.88,351.10 619.15,348.66 622.42,346.01 625.70,344.72 628.97,343.23 632.25,345.18 635.52,346.87 638.80,342.85 642.07,341.56 645.34,341.17 648.62,342.33 651.89,348.06 655.17,348.87 658.44,351.73 661.71,350.67 664.99,343.83 668.26,339.69 671.54,333.08 674.81,328.19 678.08,324.50 681.36,320.73 684.63,315.89 687.91,313.01 691.18,308.95 694.46,301.71 697.73,296.89 701.00,295.50 704.28,291.34 707.55,291.38 710.83,287.96 714.10,284.61 717.37,283.05 720.65,280.57 723.92,282.05 727.20,282.40 730.47,280.80 733.75,284.01 737.02,285.70 740.29,290.17 743.57,295.92 746.84,301.78 750.12,310.60 753.39,320.58 756.66,333.47 759.94,344.07 763.21,347.90 766.49,348.50 769.76,341.08 773.03,333.14 776.31,320.27 779.58,316.30 782.86,311.57 786.13,309.67 789.41,311.47 792.68,309.63 795.95,310.22 799.23,316.71 802.50,324.39 805.78,324.25 809.05,333.81 812.32,343.48 815.60,349.12 818.87,354.07 822.15,357.37 825.42,362.86 828.69,367.54 831.97,371.32 835.24,377.31 838.52,385.38 841.79,392.47 845.07,405.04 848.34,410.55 851.61,412.58 854.89,412.07 858.16,412.12 861.44,407.32 864.71,406.59 867.98,410.14 871.26,412.75 874.53,414.61 877.81,415.63 881.08,415.57 884.36,416.57 887.63,415.42 890.90,413.45 894.18,418.48 897.45,423.43 900.73,421.27 904.00,417.18" />
<polyline fill="none" stroke="#ff7f0e" stroke-width="2" points="137.85,361.24 141.13,360.62 144.40,359.78 147.68,358.85 150.95,357.86 154.22,356.90 157.50,356.03 160.77,355.03 164.05,354.10 167.32,353.17 170.59,352.34 173.87,351.88 177.14,352.06 180.42,352.48 183.69,352.95 186.97,353.39 190.24,353.75 193.51,353.82 196.79,353.84 200.06,353.86 203.34,354.13 206.61,354.62 209.88,355.32 213.16,356.06 216.43,356.55 219.71,356.90 222.98,356.71 226.25,355.78 229.53,354.53 232.80,353.16 236.08,351.85 239.35,350.65 242.63,349.69 245.90,348.52 249.17,347.38 252.45,346.22 255.72,345.31 259.00,344.68 262.27,344.40 265.54,344.73 268.82,345.45 272.09,346.30 275.37,347.07 278.64,347.41 281.92,347.15 285.19,346.65 288.46,345.94 291.74,344.95 295.01,344.22 298.29,343.58 301.56,343.03 304.83,342.85 308.11,342.85 311.38,343.01 314.66,343.34 317.93,343.92 321.20,344.19 324.48,344.28 327.75,344.47 331.03,345.20 334.30,346.43 337.58,348.07 340.85,350.03 344.12,352.21 347.40,354.38 350.67,356.59 353.95,358.61 357.22,360.54 360.49,362.38 363.77,364.19 367.04,366.21 370.32,368.33 373.59,370.58 376.86,372.84 380.14,374.49 383.41,376.17 386.69,377.81 389.96,379.19 393.24,380.03 396.51,380.51 399.78,380.82 403.06,380.65 406.33,380.04 409.61,379.12 412.88,378.03 416.15,377.05 419.43,376.20 422.70,375.54 425.98,375.07 429.25,374.93 432.53,375.08 435.80,375.54 439.07,376.34 442.35,377.42 445.62,378.61 448.90,379.62 452.17,380.12 455.44,380.34 458.72,380.28 461.99,380.01 465.27,379.58 468.54,379.08 471.81,378.53 475.09,377.70 478.36,376.63 481.64,375.11 484.91,373.57 488.19,372.27 491.46,371.17 494.73,369.91 498.01,368.86 501.28,367.76 504.56,366.82 507.83,365.39 511.10,363.80 514.38,362.13 517.65,360.50 520.93,358.08 524.20,355.22 527.47,352.53 530.75,349.97 534.02,347.45 537.30,345.35 540.57,344.00 543.85,343.64 547.12,343.66 550.39,344.04 553.67,345.20 556.94,346.78 560.22,348.45 563.49,350.09 566.76,351.08 570.04,351.27 573.31,350.35 576.59,348.41 579.86,346.04 583.14,343.65 586.41,342.15 589.68,342.09 592.96,342.35 596.23,342.99 599.51,344.75 602.78,346.62 606.05,347.60 609.33,348.28 612.60,348.68 615.88,349.17 619.15,349.07 622.42,348.46 625.70,347.71 628.97,346.81 632.25,346.49 635.52,346.56 638.80,345.82 642.07,344.97 645.34,344.21 648.62,343.83 651.89,344.68 655.17,345.52 658.44,346.76 661.71,347.54 664.99,346.80 668.26,345.38 671.54,342.92 674.81,339.97 678.08,336.88 681.36,333.65 684.63,330.10 687.91,326.68 691.18,323.13 694.46,318.85 697.73,314.46 701.00,310.67 704.28,306.80 707.55,303.72 710.83,300.57 714.10,297.38 717.37,294.51 720.65,291.72 723.92,289.79 727.20,288.31 730.47,286.81 733.75,286.25 737.02,286.14 740.29,286.94 743.57,288.74 746.84,291.35 750.12,295.20 753.39,300.27 756.66,306.91 759.94,314.34 763.21,321.06 766.49,326.54 769.76,329.45 773.03,330.19 776.31,328.21 779.58,325.83 782.86,322.98 786.13,320.31 789.41,318.55 792.68,316.76 795.95,315.45 799.23,315.71 802.50,317.44 805.78,318.80 809.05,321.81 812.32,326.14 815.60,330.74 818.87,335.41 822.15,339.80 825.42,344.41 828.69,349.04 831.97,353.49 835.24,358.26 838.52,363.68 841.79,369.44 845.07,376.56 848.34,383.36 851.61,389.20 854.89,393.78 858.16,397.45 861.44,399.42 864.71,400.85 867.98,402.71 871.26,404.72 874.53,406.70 877.81,408.48 881.08,409.90 884.36,411.24 887.63,412.07 890.90,412.35 894.18,413.57 897.45,415.55 900.73,416.69 904.00,416.79" />
<text x="754.00" y="290.00" font-size="13" font-family="Arial" fill="#1f77b4" text-anchor="start">MACD</text>
<text x="818.00" y="290.00" font-size="13" font-family="Arial" fill="#ff7f0e" text-anchor="start">Signal</text>
<line x1="56" y1="624" x2="904" y2="624" stroke="#cbd2d9" />
<line x1="56" y1="484" x2="56" y2="624" stroke="#cbd2d9" />
<text x="16.00" y="476.00" font-size="12" font-family="Arial" fill="#52606d" text-anchor="start">KD</text>
<line x1="56" y1="624.00" x2="904" y2="624.00" stroke="#edf2f7" />
<line x1="52" y1="624.00" x2="56" y2="624.00" stroke="#9fb3c8" />
<text x="48.00" y="628.00" font-size="11" font-family="Arial" fill="#52606d" text-anchor="end">-5.00</text>
<line x1="56" y1="577.33" x2="904" y2="577.33" stroke="#edf2f7" />
<line x1="52" y1="577.33" x2="56" y2="577.33" stroke="#9fb3c8" />
<text x="48.00" y="581.33" font-size="11" font-family="Arial" fill="#52606d" text-anchor="end">31.7</text>
<line x1="56" y1="530.67" x2="904" y2="530.67" stroke="#edf2f7" />
<line x1="52" y1="530.67" x2="56" y2="530.67" stroke="#9fb3c8" />
<text x="48.00" y="534.67" font-size="11" font-family="Arial" fill="#52606d" text-anchor="end">68.3</text>
<line x1="56" y1="484.00" x2="904" y2="484.00" stroke="#edf2f7" />
<line x1="52" y1="484.00" x2="56" y2="484.00" stroke="#9fb3c8" />
<text x="48.00" y="488.00" font-size="11" font-family="Arial" fill="#52606d" text-anchor="end">105</text>
<line x1="56.00" y1="624" x2="56.00" y2="628" stroke="#9fb3c8" />
<text x="56.00" y="642.00" font-size="11" font-family="Arial" fill="#52606d" text-anchor="middle">06/27</text>
<line x1="226.25" y1="624" x2="226.25" y2="628" stroke="#9fb3c8" />
<text x="226.25" y="642.00" font-size="11" font-family="Arial" fill="#52606d" text-anchor="middle">09/10</text>
<line x1="396.51" y1="624" x2="396.51" y2="628" stroke="#9fb3c8" />
<text x="396.51" y="642.00" font-size="11" font-family="Arial" fill="#52606d" text-anchor="middle">11/27</text>
<line x1="563.49" y1="624" x2="563.49" y2="628" stroke="#9fb3c8" />
<text x="563.49" y="642.00" font-size="11" font-family="Arial" fill="#52606d" text-anchor="middle">02/10</text>
<line x1="733.75" y1="624" x2="733.75" y2="628" stroke="#9fb3c8" />
<text x="733.75" y="642.00" font-size="11" font-family="Arial" fill="#52606d" text-anchor="middle">05/08</text>
<line x1="904.00" y1="624" x2="904.00" y2="628" stroke="#9fb3c8" />
<text x="904.00" y="642.00" font-size="11" font-family="Arial" fill="#52606d" text-anchor="middle">07/22</text>
<line x1="56" y1="592.18" x2="904" y2="592.18" stroke="#f0b429" stroke-dasharray="5 5" />
<text x="912.00" y="596.18" font-size="10" font-family="Arial" fill="#8d2b0b" text-anchor="start">20.0</text>
<line x1="56" y1="515.82" x2="904" y2="515.82" stroke="#f0b429" stroke-dasharray="5 5" />
<text x="912.00" y="519.82" font-size="10" font-family="Arial" fill="#8d2b0b" text-anchor="start">80.0</text>
<polyline fill="none" stroke="#2ca02c" stroke-width="2" points="82.19,544.02 85.47,529.36 88.74,522.63 92.02,524.49 95.29,516.10 98.56,516.59 101.84,517.49 105.11,512.31 108.39,507.57 111.66,514.66 114.93,517.31 118.21,520.73 121.48,525.57 124.76,527.37 128.03,525.62 131.31,521.05 134.58,521.11 137.85,512.88 141.13,507.79 144.40,508.02 147.68,507.52 150.95,502.96 154.22,501.54 157.50,501.22 160.77,500.96 164.05,503.39 167.32,504.66 170.59,504.88 173.87,520.67 177.14,554.34 180.42,561.13 183.69,556.77 186.97,547.21 190.24,535.83 193.51,525.93 196.79,523.51 200.06,521.14 203.34,528.30 206.61,534.21 209.88,551.14 213.16,559.57 216.43,542.19 219.71,538.72 222.98,528.83 226.25,518.86 229.53,515.64 232.80,512.27 236.08,510.27 239.35,507.99 242.63,508.75 245.90,505.47 249.17,506.44 252.45,506.03 255.72,513.47 259.00,519.30 262.27,526.27 265.54,546.75 268.82,561.22 272.09,564.40 275.37,554.38 278.64,535.78 281.92,524.17 285.19,518.03 288.46,511.63 291.74,508.70 295.01,517.44 298.29,519.08 301.56,519.75 304.83,526.98 308.11,532.70 311.38,538.20 314.66,543.15 317.93,551.03 321.20,535.85 324.48,525.47 327.75,526.84 331.03,549.07 334.30,570.29 337.58,587.77 340.85,599.68 344.12,596.91 347.40,592.08 350.67,592.39 353.95,587.97 357.22,586.66 360.49,581.03 363.77,581.03 367.04,595.54 370.32,605.37 373.59,611.44 376.86,613.37 380.14,591.43 383.41,599.64 386.69,605.94 389.96,601.62 393.24,578.44 396.51,564.66 399.78,561.02 403.06,542.26 406.33,530.68 409.61,522.24 412.88,515.85 416.15,519.80 419.43,524.81 422.70,534.84 425.98,543.18 429.25,563.30 432.53,579.11 435.80,591.38 439.07,601.21 442.35,608.39 445.62,611.33 448.90,604.29 452.17,580.13 455.44,568.07 458.72,550.21 461.99,537.76 465.27,530.16 468.54,525.57 471.81,521.55 475.09,514.52 478.36,513.88 481.64,508.21 484.91,520.95 488.19,535.97 491.46,544.43 494.73,537.56 498.01,540.79 501.28,535.14 504.56,539.12 507.83,527.29 511.10,526.28 514.38,523.54 517.65,524.96 520.93,514.68 524.20,511.72 527.47,514.62 530.75,513.31 534.02,507.86 537.30,515.15 540.57,526.89 543.85,545.71 547.12,556.36 550.39,564.82 553.67,579.21 556.94,583.75 560.22,582.56 563.49,580.71 566.76,553.86 570.04,545.79 573.31,528.45 576.59,521.85 579.86,518.03 583.14,516.06 586.41,527.61 589.68,546.88 592.96,550.27 596.23,561.08 599.51,577.16 602.78,577.51 606.05,558.62 609.33,549.81 612.60,540.10 615.88,535.49 619.15,526.23 622.42,518.97 625.70,515.56 628.97,517.58 632.25,534.86 635.52,547.35 638.80,530.93 642.07,528.83 645.34,530.82 648.62,538.01 651.89,562.89 655.17,559.44 658.44,566.63 661.71,553.48 664.99,533.67 668.26,527.79 671.54,517.96 674.81,511.88 678.08,512.08 681.36,510.90 684.63,505.02 687.91,504.55 691.18,510.27 694.46,506.87 697.73,506.01 701.00,516.01 704.28,513.37 707.55,519.26 710.83,514.84 714.10,508.71 717.37,515.35 720.65,515.69 723.92,522.78 727.20,521.99 730.47,522.82 733.75,532.53 737.02,535.53 740.29,544.08 743.57,566.07 746.84,582.56 750.12,595.80 753.39,600.38 756.66,606.59 759.94,607.55 763.21,595.74 766.49,580.25 769.76,552.50 773.03,537.57 776.31,526.54 779.58,526.96 782.86,523.95 786.13,523.44 789.41,529.33 792.68,527.67 795.95,533.54 799.23,559.79 802.50,565.93 805.78,552.70 809.05,564.73 812.32,575.74 815.60,576.10 818.87,576.88 822.15,575.22 825.42,580.39 828.69,584.44 831.97,587.14 835.24,597.31 838.52,600.45 841.79,603.82 845.07,606.82 848.34,600.26 851.61,590.27 854.89,579.19 858.16,573.15 861.44,556.16 864.71,551.44 867.98,561.21 871.26,568.34 874.53,579.02 877.81,586.14 881.08,589.45 884.36,589.88 887.63,585.99 890.90,581.60 894.18,592.88 897.45,595.74 900.73,580.15 904.00,563.69" />
<polyline fill="none" stroke="#d62728" stroke-width="2" points="82.19,550.67 85.47,543.57 88.74,536.59 92.02,532.56 95.29,527.07 98.56,523.58 101.84,521.55 105.11,518.47 108.39,514.84 111.66,514.78 114.93,515.62 118.21,517.33 121.48,520.07 124.76,522.50 128.03,523.54 131.31,522.71 134.58,522.18 137.85,519.08 141.13,515.32 144.40,512.88 147.68,511.10 150.95,508.38 154.22,506.10 157.50,504.47 160.77,503.30 164.05,503.33 167.32,503.78 170.59,504.15 173.87,509.65 177.14,524.55 180.42,536.74 183.69,543.42 186.97,544.68 190.24,541.73 193.51,536.46 196.79,532.15 200.06,528.48 203.34,528.42 206.61,530.35 209.88,537.28 213.16,544.71 216.43,543.87 219.71,542.15 222.98,537.71 226.25,531.43 229.53,526.16 232.80,521.53 236.08,517.78 239.35,514.52 242.63,512.59 245.90,510.22 249.17,508.96 252.45,507.98 255.72,509.81 259.00,512.98 262.27,517.41 265.54,527.19 268.82,538.53 272.09,547.15 275.37,549.56 278.64,544.97 281.92,538.04 285.19,531.37 288.46,524.79 291.74,519.42 295.01,518.76 298.29,518.87 301.56,519.16 304.83,521.77 308.11,525.41 311.38,529.67 314.66,534.16 317.93,539.79 321.20,538.47 324.48,534.14 327.75,531.70 331.03,537.49 334.30,548.43 337.58,561.54 340.85,574.25 344.12,581.81 347.40,585.23 350.67,587.62 353.95,587.73 357.22,587.38 360.49,585.26 363.77,583.85 367.04,587.75 370.32,593.62 373.59,599.56 376.86,604.17 380.14,599.92 383.41,599.83 386.69,601.86 389.96,601.78 393.24,594.00 396.51,584.22 399.78,576.49 403.06,565.08 406.33,553.61 409.61,543.15 412.88,534.05 416.15,529.30 419.43,527.80 422.70,530.15 425.98,534.49 429.25,544.09 432.53,555.77 435.80,567.64 439.07,578.83 442.35,588.68 445.62,596.23 448.90,598.92 452.17,592.65 455.44,584.46 458.72,573.04 461.99,561.28 465.27,550.91 468.54,542.46 471.81,535.49 475.09,528.50 478.36,523.63 481.64,518.49 484.91,519.31 488.19,524.86 491.46,531.38 494.73,533.44 498.01,535.89 501.28,535.64 504.56,536.80 507.83,533.63 511.10,531.18 514.38,528.63 517.65,527.41 520.93,523.16 524.20,519.35 527.47,517.77 530.75,516.28 534.02,513.48 537.30,514.03 540.57,518.32 543.85,527.45 547.12,537.09 550.39,546.33 553.67,557.29 556.94,566.11 560.22,571.60 563.49,574.64 566.76,567.71 570.04,560.40 573.31,549.75 576.59,540.45 579.86,532.98 583.14,527.34 586.41,527.43 589.68,533.91 592.96,539.37 596.23,546.60 599.51,556.79 602.78,563.69 606.05,562.00 609.33,557.94 612.60,551.99 615.88,546.49 619.15,539.74 622.42,532.82 625.70,527.06 628.97,523.90 632.25,527.56 635.52,534.15 638.80,533.08 642.07,531.66 645.34,531.38 648.62,533.59 651.89,543.36 655.17,548.72 658.44,554.69 661.71,554.29 664.99,547.41 668.26,540.87 671.54,533.23 674.81,526.12 678.08,521.44 681.36,517.93 684.63,513.62 687.91,510.60 691.18,510.49 694.46,509.28 697.73,508.19 701.00,510.80 704.28,511.65 707.55,514.19 710.83,514.41 714.10,512.51 717.37,513.45 720.65,514.20 723.92,517.06 727.20,518.70 730.47,520.08 733.75,524.23 737.02,527.99 740.29,533.36 743.57,544.26 746.84,557.03 750.12,569.95 753.39,580.09 756.66,588.93 759.94,595.13 763.21,595.34 766.49,590.31 769.76,577.71 773.03,564.33 776.31,551.73 779.58,543.47 782.86,536.97 786.13,532.46 789.41,531.42 792.68,530.17 795.95,531.29 799.23,540.79 802.50,549.17 805.78,550.35 809.05,555.14 812.32,562.01 815.60,566.70 818.87,570.10 822.15,571.80 825.42,574.67 828.69,577.93 831.97,581.00 835.24,586.43 838.52,591.11 841.79,595.34 845.07,599.17 848.34,599.54 851.61,596.45 854.89,590.69 858.16,584.85 861.44,575.28 864.71,567.34 867.98,565.30 871.26,566.31 874.53,570.55 877.81,575.74 881.08,580.31 884.36,583.50 887.63,584.33 890.90,583.42 894.18,586.57 897.45,589.63 900.73,586.47 904.00,578.87" />
<text x="824.00" y="502.00" font-size="13" font-family="Arial" fill="#2ca02c" text-anchor="start">K</text>
<text x="860.00" y="502.00" font-size="13" font-family="Arial" fill="#d62728" text-anchor="start">D</text>
</svg>