<svg xmlns="http://www.w3.org/2000/svg" width="960" height="680" viewBox="0 0 960 680"><rect width="100%" height="100%" fill="white" />
<text x="56.00" y="32.00" font-size="20" font-family="Arial" fill="#1f2933" text-anchor="start">鴻海(2317) Technical Indicators</text>
<line x1="56" y1="220" x2="904" y2="220" stroke="#cbd2d9" />
<line x1="56" y1="58" x2="56" y2="220" stroke="#cbd2d9" />
<text x="16.00" y="50.00" font-size="12" font-family="Arial" fill="#52606d" text-anchor="start">RSI14</text>
<line x1="56" y1="220.00" x2="904" y2="220.00" stroke="#edf2f7" />
<line x1="52" y1="220.00" x2="56" y2="220.00" stroke="#9fb3c8" />
<text x="48.00" y="224.00" font-size="11" font-family="Arial" fill="#52606d" text-anchor="end">-5.00</text>
<line x1="56" y1="166.00" x2="904" y2="166.00" stroke="#edf2f7" />
<line x1="52" y1="166.00" x2="56" y2="166.00" stroke="#9fb3c8" />
<text x="48.00" y="170.00" font-size="11" font-family="Arial" fill="#52606d" text-anchor="end">31.7</text>
<line x1="56" y1="112.00" x2="904" y2="112.00" stroke="#edf2f7" />
<line x1="52" y1="112.00" x2="56" y2="112.00" stroke="#9fb3c8" />
<text x="48.00" y="116.00" font-size="11" font-family="Arial" fill="#52606d" text-anchor="end">68.3</text>
<line x1="56" y1="58.00" x2="904" y2="58.00" stroke="#edf2f7" />
<line x1="52" y1="58.00" x2="56" y2="58.00" stroke="#9fb3c8" />
<text x="48.00" y="62.00" font-size="11" font-family="Arial" fill="#52606d" text-anchor="end">105</text>
<line x1="56" y1="168.45" x2="904" y2="168.45" stroke="#f0b429" stroke-dasharray="5 5" />
<text x="912.00" y="172.45" font-size="10" font-family="Arial" fill="#8d2b0b" text-anchor="start">30.0</text>
<line x1="56" y1="109.55" x2="904" y2="109.55" stroke="#f0b429" stroke-dasharray="5 5" />
<text x="912.00" y="113.55" font-size="10" font-family="Arial" fill="#8d2b0b" text-anchor="start">70.0</text>
<polyline fill="none" stroke="#1f77b4" stroke-width="2" points="101.84,121.00 105.11,111.14 108.39,106.94 111.66,103.65 114.93,116.00 118.21,116.00 121.48,123.79 124.76,119.13 128.03,117.99 131.31,117.99 134.58,122.40 137.85,116.05 141.13,118.31 144.40,114.59 147.68,111.12 150.95,113.62 154.22,127.23 157.50,117.03 160.77,103.50 164.05,102.84 167.32,100.85 170.59,117.20 173.87,117.20 177.14,107.00 180.42,104.45 183.69,99.40 186.97,97.89 190.24,90.97 193.51,90.97 196.79,88.61 200.06,92.03 203.34,90.89 206.61,90.13 209.88,85.33 213.16,83.80 216.43,90.55 219.71,111.87 222.98,106.23 226.25,114.39 229.53,109.22 232.80,107.77 236.08,110.20 239.35,115.06 242.63,120.91 245.90,131.42 249.17,131.42 252.45,128.08 255.72,124.10 259.00,121.05 262.27,124.73 265.54,118.58 268.82,115.11 272.09,109.53 275.37,106.24 278.64,110.34 281.92,111.74 285.19,121.16 288.46,116.74 291.74,119.39 295.01,116.35 298.29,109.64 301.56,107.26 304.83,100.21 308.11,124.24 311.38,130.54 314.66,126.51 317.93,118.82 321.20,117.73 324.48,115.52 327.75,122.66 331.03,129.27 334.30,142.70 337.58,151.44 340.85,150.62 344.12,129.06 347.40,125.58 350.67,115.48 353.95,115.10 357.22,112.45 360.49,117.89 363.77,112.04 367.04,109.57 370.32,103.37 373.59,102.25 376.86,109.58 380.14,118.54 383.41,128.40 386.69,125.68 389.96,124.76 393.24,130.18 396.51,124.75 399.78,128.87 403.06,124.40 406.33,123.42 409.61,138.06 412.88,143.60 416.15,149.65 419.43,150.63 422.70,141.15 425.98,152.24 429.25,156.33 432.53,157.14 435.80,147.02 439.07,142.45 442.35,147.83 445.62,151.06 448.90,151.06 452.17,144.52 455.44,142.61 458.72,139.41 461.99,138.12 465.27,134.22 468.54,136.42 471.81,146.42 475.09,144.92 478.36,151.60 481.64,155.47 484.91,157.09 488.19,157.65 491.46,147.80 494.73,143.70 498.01,143.70 501.28,143.70 504.56,140.89 507.83,131.51 511.10,137.02 514.38,132.90 517.65,130.48 520.93,126.55 524.20,124.25 527.47,120.53 530.75,138.65 534.02,136.97 537.30,140.54 540.57,144.02 543.85,130.46 547.12,132.33 550.39,130.73 553.67,140.05 556.94,149.36 560.22,155.29 563.49,147.04 566.76,149.80 570.04,145.27 573.31,142.60 576.59,142.60 579.86,145.22 583.14,151.00 586.41,159.44 589.68,155.03 592.96,149.72 596.23,154.88 599.51,155.60 602.78,147.85 606.05,142.74 609.33,132.05 612.60,129.66 615.88,124.35 619.15,108.46 622.42,115.28 625.70,122.53 628.97,137.59 632.25,150.92 635.52,142.33 638.80,143.40 642.07,155.17 645.34,156.00 648.62,144.34 651.89,148.54 655.17,148.54 658.44,145.99 661.71,150.61 664.99,152.60 668.26,157.38 671.54,159.22 674.81,165.15 678.08,165.95 681.36,157.60 684.63,156.78 687.91,157.83 691.18,163.30 694.46,168.86 697.73,153.27 701.00,157.06 704.28,158.00 707.55,144.33 710.83,146.00 714.10,145.30 717.37,145.92 720.65,135.41 723.92,135.41 727.20,136.18 730.47,137.79 733.75,135.40 737.02,130.05 740.29,117.74 743.57,113.77 746.84,120.36 750.12,113.89 753.39,118.48 756.66,119.41 759.94,129.20 763.21,120.18 766.49,110.00 769.76,102.30 773.03,101.49 776.31,107.27 779.58,105.97 782.86,109.41 786.13,108.66 789.41,119.77 792.68,116.17 795.95,116.17 799.23,122.24 802.50,130.21 805.78,122.12 809.05,119.69 812.32,110.52 815.60,113.79 818.87,109.95 822.15,111.67 825.42,96.86 828.69,95.09 831.97,92.20 835.24,89.80 838.52,110.73 841.79,119.78 845.07,133.19 848.34,128.00 851.61,139.00 854.89,142.07 858.16,140.57 861.44,135.41 864.71,134.32 867.98,132.08 871.26,135.24 874.53,135.24 877.81,143.34 881.08,146.25 884.36,144.71 887.63,152.15 890.90,153.69 894.18,148.55 897.45,151.12 900.73,152.75 904.00,150.75" />
<text x="808.00" y="76.00" font-size="13" font-family="Arial" fill="#1f77b4" text-anchor="start">RSI14</text>
<line x1="56" y1="432" x2="904" y2="432" stroke="#cbd2d9" />
<line x1="56" y1="272" x2="56" y2="432" stroke="#cbd2d9" />
<text x="16.00" y="264.00" font-size="12" font-family="Arial" fill="#52606d" text-anchor="start">MACD</text>
<line x1="56" y1="432.00" x2="904" y2="432.00" stroke="#edf2f7" />
<line x1="52" y1="432.00" x2="56" y2="432.00" stroke="#9fb3c8" />
<text x="48.00" y="436.00" font-size="11" font-family="Arial" fill="#52606d" text-anchor="end">-9.27</text>
<line x1="56" y1="378.67" x2="904" y2="378.67" stroke="#edf2f7" />
<line x1="52" y1="378.67" x2="56" y2="378.67" stroke="#9fb3c8" />
<text x="48.00" y="382.67" font-size="11" font-family="Arial" fill="#52606d" text-anchor="end">0.14</text>
<line x1="56" y1="325.33" x2="904" y2="325.33" stroke="#edf2f7" />
<line x1="52" y1="325.33" x2="56" y2="325.33" stroke="#9fb3c8" />
<text x="48.00" y="329.33" font-size="11" font-family="Arial" fill="#52606d" text-anchor="end">9.56</text>
<line x1="56" y1="272.00" x2="904" y2="272.00" stroke="#edf2f7" />
<line x1="52" y1="272.00" x2="56" y2="272.00" stroke="#9fb3c8" />
<text x="48.00" y="276.00" font-size="11" font-family="Arial" fill="#52606d" text-anchor="end">19.0</text>
<line x1="56" y1="379.47" x2="904" y2="379.47" stroke="#9fb3c8" stroke-dasharray="4 4" />
<rect x="136.71" y="379.47" width="2.28" height="0.00" fill="#2f9e44" opacity="0.55" />
<rect x="139.99" y="379.47" width="2.28" height="0.09" fill="#d64545" opacity="0.55" />
<rect x="143.26" y="379.23" width="2.28" height="0.24" fill="#2f9e44" opacity="0.55" />
<rect x="146.53" y="378.65" width="2.28" height="0.83" fill="#2f9e44" opacity="0.55" />
<rect x="149.81" y="378.64" width="2.28" height="0.83" fill="#2f9e44" opacity="0.55" />
<rect x="153.08" y="379.47" width="2.28" height="0.40" fill="#d64545" opacity="0.55" />
<rect x="156.36" y="379.37" width="2.28" height="0.10" fill="#2f9e44" opacity="0.55" />
<rect x="159.63" y="376.39" width="2.28" height="3.08" fill="#2f9e44" opacity="0.55" />
<rect x="162.90" y="374.66" width="2.28" height="4.81" fill="#2f9e44" opacity="0.55" />
<rect x="166.18" y="373.46" width="2.28" height="6.01" fill="#2f9e44" opacity="0.55" />
<rect x="169.45" y="374.78" width="2.28" height="4.70" fill="#2f9e44" opacity="0.55" />
<rect x="172.73" y="376.03" width="2.28" height="3.44" fill="#2f9e44" opacity="0.55" />
<rect x="176.00" y="374.91" width="2.28" height="4.56" fill="#2f9e44" opacity="0.55" />
<rect x="179.28" y="373.95" width="2.28" height="5.52" fill="#2f9e44" opacity="0.55" />
<rect x="182.55" y="372.27" width="2.28" height="7.20" fill="#2f9e44" opacity="0.55" />
<rect x="185.82" y="371.30" width="2.28" height="8.17" fill="#2f9e44" opacity="0.55" />
<rect x="189.10" y="368.39" width="2.28" height="11.08" fill="#2f9e44" opacity="0.55" />
<rect x="192.37" y="367.42" width="2.28" height="12.05" fill="#2f9e44" opacity="0.55" />
<rect x="195.65" y="366.52" width="2.28" height="12.95" fill="#2f9e44" opacity="0.55" />
<rect x="198.92" y="367.32" width="2.28" height="12.15" fill="#2f9e44" opacity="0.55" />
<rect x="202.19" y="368.29" width="2.28" height="11.18" fill="#2f9e44" opacity="0.55" />
<rect x="205.47" y="369.52" width="2.28" height="9.95" fill="#2f9e44" opacity="0.55" />
<rect x="208.74" y="368.59" width="2.28" height="10.88" fill="#2f9e44" opacity="0.55" />
<rect x="212.02" y="367.96" width="2.28" height="11.51" fill="#2f9e44" opacity="0.55" />
<rect x="215.29" y="369.33" width="2.28" height="10.15" fill="#2f9e44" opacity="0.55" />
<rect x="218.57" y="373.83" width="2.28" height="5.64" fill="#2f9e44" opacity="0.55" />
<rect x="221.84" y="375.52" width="2.28" height="3.95" fill="#2f9e44" opacity="0.55" />
<rect x="225.11" y="378.51" width="2.28" height="0.96" fill="#2f9e44" opacity="0.55" />
<rect x="228.39" y="379.19" width="2.28" height="0.28" fill="#2f9e44" opacity="0.55" />
<rect x="231.66" y="379.47" width="2.28" height="0.14" fill="#d64545" opacity="0.55" />
<rect x="234.94" y="379.47" width="2.28" height="1.26" fill="#d64545" opacity="0.55" />
<rect x="238.21" y="379.47" width="2.28" height="3.10" fill="#d64545" opacity="0.55" />
<rect x="241.48" y="379.47" width="2.28" height="5.47" fill="#d64545" opacity="0.55" />
<rect x="244.76" y="379.47" width="2.28" height="8.90" fill="#d64545" opacity="0.55" />
<rect x="248.03" y="379.47" width="2.28" height="11.05" fill="#d64545" opacity="0.55" />
<rect x="251.31" y="379.47" width="2.28" height="11.56" fill="#d64545" opacity="0.55" />
<rect x="254.58" y="379.47" width="2.28" height="10.81" fill="#d64545" opacity="0.55" />
<rect x="257.85" y="379.47" width="2.28" height="9.46" fill="#d64545" opacity="0.55" />
<rect x="261.13" y="379.47" width="2.28" height="9.01" fill="#d64545" opacity="0.55" />
<rect x="264.40" y="379.47" width="2.28" height="7.19" fill="#d64545" opacity="0.55" />
<rect x="267.68" y="379.47" width="2.28" height="5.13" fill="#d64545" opacity="0.55" />
<rect x="270.95" y="379.47" width="2.28" height="2.31" fill="#d64545" opacity="0.55" />
<rect x="274.23" y="379.15" width="2.28" height="0.32" fill="#2f9e44" opacity="0.55" />
<rect x="277.50" y="378.36" width="2.28" height="1.11" fill="#2f9e44" opacity="0.55" />
<rect x="280.77" y="378.42" width="2.28" height="1.06" fill="#2f9e44" opacity="0.55" />
<rect x="284.05" y="379.47" width="2.28" height="0.58" fill="#d64545" opacity="0.55" />
<rect x="287.32" y="379.47" width="2.28" height="0.84" fill="#d64545" opacity="0.55" />
<rect x="290.60" y="379.47" width="2.28" height="1.63" fill="#d64545" opacity="0.55" />
<rect x="293.87" y="379.47" width="2.28" height="1.64" fill="#d64545" opacity="0.55" />
<rect x="297.14" y="379.47" width="2.28" height="0.12" fill="#d64545" opacity="0.55" />
<rect x="300.42" y="378.24" width="2.28" height="1.24" fill="#2f9e44" opacity="0.55" />
<rect x="303.69" y="375.31" width="2.28" height="4.17" fill="#2f9e44" opacity="0.55" />
<rect x="306.97" y="377.69" width="2.28" height="1.78" fill="#2f9e44" opacity="0.55" />
<rect x="310.24" y="379.47" width="2.28" height="1.36" fill="#d64545" opacity="0.55" />
<rect x="313.51" y="379.47" width="2.28" height="2.53" fill="#d64545" opacity="0.55" />
<rect x="316.79" y="379.47" width="2.28" height="1.16" fill="#d64545" opacity="0.55" />
<rect x="320.06" y="379.47" width="2.28" height="0.20" fill="#d64545" opacity="0.55" />
<rect x="323.34" y="378.68" width="2.28" height="0.80" fill="#2f9e44" opacity="0.55" />
<rect x="326.61" y="379.47" width="2.28" height="0.16" fill="#d64545" opacity="0.55" />
<rect x="329.89" y="379.47" width="2.28" height="2.29" fill="#d64545" opacity="0.55" />
<rect x="333.16" y="379.47" width="2.28" height="6.80" fill="#d64545" opacity="0.55" />
<rect x="336.43" y="379.47" width="2.28" height="12.02" fill="#d64545" opacity="0.55" />
<rect x="339.71" y="379.47" width="2.28" height="14.76" fill="#d64545" opacity="0.55" />
<rect x="342.98" y="379.47" width="2.28" height="10.13" fill="#d64545" opacity="0.55" />
<rect x="346.26" y="379.47" width="2.28" height="5.69" fill="#d64545" opacity="0.55" />
<rect x="349.53" y="378.05" width="2.28" height="1.42" fill="#2f9e44" opacity="0.55" />
<rect x="352.80" y="373.70" width="2.28" height="5.77" fill="#2f9e44" opacity="0.55" />
<rect x="356.08" y="370.26" width="2.28" height="9.21" fill="#2f9e44" opacity="0.55" />
<rect x="359.35" y="370.04" width="2.28" height="9.43" fill="#2f9e44" opacity="0.55" />
<rect x="362.63" y="368.03" width="2.28" height="11.45" fill="#2f9e44" opacity="0.55" />
<rect x="365.90" y="366.41" width="2.28" height="13.06" fill="#2f9e44" opacity="0.55" />
<rect x="369.18" y="362.89" width="2.28" height="16.58" fill="#2f9e44" opacity="0.55" />
<rect x="372.45" y="361.19" width="2.28" height="18.28" fill="#2f9e44" opacity="0.55" />
<rect x="375.72" y="363.06" width="2.28" height="16.41" fill="#2f9e44" opacity="0.55" />
<rect x="379.00" y="367.62" width="2.28" height="11.85" fill="#2f9e44" opacity="0.55" />
<rect x="382.27" y="374.19" width="2.28" height="5.28" fill="#2f9e44" opacity="0.55" />
<rect x="385.55" y="378.00" width="2.28" height="1.47" fill="#2f9e44" opacity="0.55" />
<rect x="388.82" y="379.47" width="2.28" height="1.11" fill="#d64545" opacity="0.55" />
<rect x="392.09" y="379.47" width="2.28" height="4.54" fill="#d64545" opacity="0.55" />
<rect x="395.37" y="379.47" width="2.28" height="4.98" fill="#d64545" opacity="0.55" />
<rect x="398.64" y="379.47" width="2.28" height="6.49" fill="#d64545" opacity="0.55" />
<rect x="401.92" y="379.47" width="2.28" height="5.95" fill="#d64545" opacity="0.55" />
<rect x="405.19" y="379.47" width="2.28" height="5.37" fill="#d64545" opacity="0.55" />
<rect x="408.46" y="379.47" width="2.28" height="8.98" fill="#d64545" opacity="0.55" />
<rect x="411.74" y="379.47" width="2.28" height="12.92" fill="#d64545" opacity="0.55" />
<rect x="415.01" y="379.47" width="2.28" height="17.17" fill="#d64545" opacity="0.55" />
<rect x="418.29" y="379.47" width="2.28" height="19.60" fill="#d64545" opacity="0.55" />
<rect x="421.56" y="379.47" width="2.28" height="17.74" fill="#d64545" opacity="0.55" />
<rect x="424.84" y="379.47" width="2.28" height="19.91" fill="#d64545" opacity="0.55" />
<rect x="428.11" y="379.47" width="2.28" height="22.16" fill="#d64545" opacity="0.55" />
<rect x="431.38" y="379.47" width="2.28" height="22.90" fill="#d64545" opacity="0.55" />
<rect x="434.66" y="379.47" width="2.28" height="19.44" fill="#d64545" opacity="0.55" />
<rect x="437.93" y="379.47" width="2.28" height="14.88" fill="#d64545" opacity="0.55" />
<rect x="441.21" y="379.47" width="2.28" height="13.18" fill="#d64545" opacity="0.55" />
<rect x="444.48" y="379.47" width="2.28" height="12.63" fill="#d64545" opacity="0.55" />
<rect x="447.75" y="379.47" width="2.28" height="11.57" fill="#d64545" opacity="0.55" />
<rect x="451.03" y="379.47" width="2.28" height="8.46" fill="#d64545" opacity="0.55" />
<rect x="454.30" y="379.47" width="2.28" height="5.44" fill="#d64545" opacity="0.55" />
<rect x="457.58" y="379.47" width="2.28" height="2.27" fill="#d64545" opacity="0.55" />
<rect x="460.85" y="379.17" width="2.28" height="0.30" fill="#2f9e44" opacity="0.55" />
<rect x="464.12" y="376.40" width="2.28" height="3.07" fill="#2f9e44" opacity="0.55" />
<rect x="467.40" y="375.25" width="2.28" height="4.22" fill="#2f9e44" opacity="0.55" />
<rect x="470.67" y="377.28" width="2.28" height="2.20" fill="#2f9e44" opacity="0.55" />
<rect x="473.95" y="378.22" width="2.28" height="1.26" fill="#2f9e44" opacity="0.55" />
<rect x="477.22" y="379.47" width="2.28" height="1.24" fill="#d64545" opacity="0.55" />
<rect x="480.50" y="379.47" width="2.28" height="3.87" fill="#d64545" opacity="0.55" />
<rect x="483.77" y="379.47" width="2.28" height="5.74" fill="#d64545" opacity="0.55" />
<rect x="487.04" y="379.47" width="2.28" height="6.67" fill="#d64545" opacity="0.55" />
<rect x="490.32" y="379.47" width="2.28" height="4.84" fill="#d64545" opacity="0.55" />
<rect x="493.59" y="379.47" width="2.28" height="2.42" fill="#d64545" opacity="0.55" />
<rect x="496.87" y="379.47" width="2.28" height="0.62" fill="#d64545" opacity="0.55" />
<rect x="500.14" y="378.79" width="2.28" height="0.68" fill="#2f9e44" opacity="0.55" />
<rect x="503.41" y="377.33" width="2.28" height="2.14" fill="#2f9e44" opacity="0.55" />
<rect x="506.69" y="374.45" width="2.28" height="5.02" fill="#2f9e44" opacity="0.55" />
<rect x="509.96" y="373.83" width="2.28" height="5.64" fill="#2f9e44" opacity="0.55" />
<rect x="513.24" y="372.74" width="2.28" height="6.73" fill="#2f9e44" opacity="0.55" />
<rect x="516.51" y="371.78" width="2.28" height="7.69" fill="#2f9e44" opacity="0.55" />
<rect x="519.79" y="370.62" width="2.28" height="8.85" fill="#2f9e44" opacity="0.55" />
<rect x="523.06" y="369.76" width="2.28" height="9.71" fill="#2f9e44" opacity="0.55" />
<rect x="526.33" y="368.81" width="2.28" height="10.66" fill="#2f9e44" opacity="0.55" />
<rect x="529.61" y="371.91" width="2.28" height="7.56" fill="#2f9e44" opacity="0.55" />
<rect x="532.88" y="373.90" width="2.28" height="5.57" fill="#2f9e44" opacity="0.55" />
<rect x="536.16" y="376.15" width="2.28" height="3.32" fill="#2f9e44" opacity="0.55" />
<rect x="539.43" y="378.45" width="2.28" height="1.02" fill="#2f9e44" opacity="0.55" />
<rect x="542.70" y="377.16" width="2.28" height="2.31" fill="#2f9e44" opacity="0.55" />
<rect x="545.98" y="376.85" width="2.28" height="2.62" fill="#2f9e44" opacity="0.55" />
<rect x="549.25" y="376.47" width="2.28" height="3.00" fill="#2f9e44" opacity="0.55" />
<rect x="552.53" y="378.18" width="2.28" height="1.29" fill="#2f9e44" opacity="0.55" />
<rect x="555.80" y="379.47" width="2.28" height="2.00" fill="#d64545" opacity="0.55" />
<rect x="559.07" y="379.47" width="2.28" height="5.57" fill="#d64545" opacity="0.55" />
<rect x="562.35" y="379.47" width="2.28" height="5.96" fill="#d64545" opacity="0.55" />
<rect x="565.62" y="379.47" width="2.28" height="6.61" fill="#d64545" opacity="0.55" />
<rect x="568.90" y="379.47" width="2.28" height="5.78" fill="#d64545" opacity="0.55" />
<rect x="572.17" y="379.47" width="2.28" height="4.42" fill="#d64545" opacity="0.55" />
<rect x="575.45" y="379.47" width="2.28" height="3.30" fill="#d64545" opacity="0.55" />
<rect x="578.72" y="379.47" width="2.28" height="2.92" fill="#d64545" opacity="0.55" />
<rect x="581.99" y="379.47" width="2.28" height="3.71" fill="#d64545" opacity="0.55" />
<rect x="585.27" y="379.47" width="2.28" height="6.07" fill="#d64545" opacity="0.55" />
<rect x="588.54" y="379.47" width="2.28" height="6.46" fill="#d64545" opacity="0.55" />
<rect x="591.82" y="379.47" width="2.28" height="5.41" fill="#d64545" opacity="0.55" />
<rect x="595.09" y="379.47" width="2.28" height="5.61" fill="#d64545" opacity="0.55" />
<rect x="598.36" y="379.47" width="2.28" height="5.51" fill="#d64545" opacity="0.55" />
<rect x="601.64" y="379.47" width="2.28" height="3.81" fill="#d64545" opacity="0.55" />
<rect x="604.91" y="379.47" width="2.28" height="1.54" fill="#d64545" opacity="0.55" />
<rect x="608.19" y="377.28" width="2.28" height="2.20" fill="#2f9e44" opacity="0.55" />
<rect x="611.46" y="374.40" width="2.28" height="5.07" fill="#2f9e44" opacity="0.55" />
<rect x="614.73" y="371.52" width="2.28" height="7.95" fill="#2f9e44" opacity="0.55" />
<rect x="618.01" y="364.95" width="2.28" height="14.53" fill="#2f9e44" opacity="0.55" />
<rect x="621.28" y="362.75" width="2.28" height="16.72" fill="#2f9e44" opacity="0.55" />
<rect x="624.56" y="363.64" width="2.28" height="15.83" fill="#2f9e44" opacity="0.55" />
<rect x="627.83" y="368.54" width="2.28" height="10.93" fill="#2f9e44" opacity="0.55" />
<rect x="631.11" y="376.44" width="2.28" height="3.03" fill="#2f9e44" opacity="0.55" />
<rect x="634.38" y="379.14" width="2.28" height="0.33" fill="#2f9e44" opacity="0.55" />
<rect x="637.65" y="379.47" width="2.28" height="1.77" fill="#d64545" opacity="0.55" />
<rect x="640.93" y="379.47" width="2.28" height="7.43" fill="#d64545" opacity="0.55" />
<rect x="644.20" y="379.47" width="2.28" height="10.96" fill="#d64545" opacity="0.55" />
<rect x="647.48" y="379.47" width="2.28" height="9.26" fill="#d64545" opacity="0.55" />
<rect x="650.75" y="379.47" width="2.28" height="9.27" fill="#d64545" opacity="0.55" />
<rect x="654.02" y="379.47" width="2.28" height="8.74" fill="#d64545" opacity="0.55" />
<rect x="657.30" y="379.47" width="2.28" height="7.19" fill="#d64545" opacity="0.55" />
<rect x="660.57" y="379.47" width="2.28" height="7.34" fill="#d64545" opacity="0.55" />
<rect x="663.85" y="379.47" width="2.28" height="7.66" fill="#d64545" opacity="0.55" />
<rect x="667.12" y="379.47" width="2.28" height="9.10" fill="#d64545" opacity="0.55" />
<rect x="670.40" y="379.47" width="2.28" height="10.09" fill="#d64545" opacity="0.55" />
<rect x="673.67" y="379.47" width="2.28" height="12.48" fill="#d64545" opacity="0.55" />
<rect x="676.94" y="379.47" width="2.28" height="13.49" fill="#d64545" opacity="0.55" />
<rect x="680.22" y="379.47" width="2.28" height="11.45" fill="#d64545" opacity="0.55" />
<rect x="683.49" y="379.47" width="2.28" height="9.15" fill="#d64545" opacity="0.55" />
<rect x="686.77" y="379.47" width="2.28" height="7.31" fill="#d64545" opacity="0.55" />
<rect x="690.04" y="379.47" width="2.28" height="7.43" fill="#d64545" opacity="0.55" />
<rect x="693.31" y="379.47" width="2.28" height="9.10" fill="#d64545" opacity="0.55" />
<rect x="696.59" y="379.47" width="2.28" height="6.02" fill="#d64545" opacity="0.55" />
<rect x="699.86" y="379.47" width="2.28" height="4.84" fill="#d64545" opacity="0.55" />
<rect x="703.14" y="379.47" width="2.28" height="3.86" fill="#d64545" opacity="0.55" />
<rect x="706.41" y="378.83" width="2.28" height="0.64" fill="#2f9e44" opacity="0.55" />
<rect x="709.68" y="376.22" width="2.28" height="3.26" fill="#2f9e44" opacity="0.55" />
<rect x="712.96" y="374.23" width="2.28" height="5.24" fill="#2f9e44" opacity="0.55" />
<rect x="716.23" y="373.11" width="2.28" height="6.37" fill="#2f9e44" opacity="0.55" />
<rect x="719.51" y="369.79" width="2.28" height="9.69" fill="#2f9e44" opacity="0.55" />
<rect x="722.78" y="367.92" width="2.28" height="11.55" fill="#2f9e44" opacity="0.55" />
<rect x="726.06" y="367.26" width="2.28" height="12.21" fill="#2f9e44" opacity="0.55" />
<rect x="729.33" y="367.60" width="2.28" height="11.87" fill="#2f9e44" opacity="0.55" />
<rect x="732.60" y="367.70" width="2.28" height="11.77" fill="#2f9e44" opacity="0.55" />
<rect x="735.88" y="366.96" width="2.28" height="12.51" fill="#2f9e44" opacity="0.55" />
<rect x="739.15" y="363.49" width="2.28" height="15.98" fill="#2f9e44" opacity="0.55" />
<rect x="742.43" y="360.62" width="2.28" height="18.85" fill="#2f9e44" opacity="0.55" />
<rect x="745.70" y="360.97" width="2.28" height="18.51" fill="#2f9e44" opacity="0.55" />
<rect x="748.97" y="359.83" width="2.28" height="19.64" fill="#2f9e44" opacity="0.55" />
<rect x="752.25" y="361.04" width="2.28" height="18.43" fill="#2f9e44" opacity="0.55" />
<rect x="755.52" y="362.99" width="2.28" height="16.48" fill="#2f9e44" opacity="0.55" />
<rect x="758.80" y="367.09" width="2.28" height="12.38" fill="#2f9e44" opacity="0.55" />
<rect x="762.07" y="367.62" width="2.28" height="11.85" fill="#2f9e44" opacity="0.55" />
<rect x="765.34" y="364.51" width="2.28" height="14.96" fill="#2f9e44" opacity="0.55" />
<rect x="768.62" y="359.13" width="2.28" height="20.34" fill="#2f9e44" opacity="0.55" />
<rect x="771.89" y="356.52" width="2.28" height="22.95" fill="#2f9e44" opacity="0.55" />
<rect x="775.17" y="357.60" width="2.28" height="21.87" fill="#2f9e44" opacity="0.55" />
<rect x="778.44" y="359.04" width="2.28" height="20.43" fill="#2f9e44" opacity="0.55" />
<rect x="781.72" y="362.09" width="2.28" height="17.38" fill="#2f9e44" opacity="0.55" />
<rect x="784.99" y="364.98" width="2.28" height="14.49" fill="#2f9e44" opacity="0.55" />
<rect x="788.26" y="370.27" width="2.28" height="9.20" fill="#2f9e44" opacity="0.55" />
<rect x="791.54" y="373.14" width="2.28" height="6.33" fill="#2f9e44" opacity="0.55" />
<rect x="794.81" y="375.75" width="2.28" height="3.73" fill="#2f9e44" opacity="0.55" />
<rect x="798.09" y="379.29" width="2.28" height="0.18" fill="#2f9e44" opacity="0.55" />
<rect x="801.36" y="379.47" width="2.28" height="4.30" fill="#d64545" opacity="0.55" />
<rect x="804.63" y="379.47" width="2.28" height="4.73" fill="#d64545" opacity="0.55" />
<rect x="807.91" y="379.47" width="2.28" height="4.34" fill="#d64545" opacity="0.55" />
<rect x="811.18" y="379.47" width="2.28" height="0.47" fill="#d64545" opacity="0.55" />
<rect x="814.46" y="378.65" width="2.28" height="0.82" fill="#2f9e44" opacity="0.55" />
<rect x="817.73" y="376.59" width="2.28" height="2.88" fill="#2f9e44" opacity="0.55" />
<rect x="821.01" y="376.27" width="2.28" height="3.21" fill="#2f9e44" opacity="0.55" />
<rect x="824.28" y="367.58" width="2.28" height="11.89" fill="#2f9e44" opacity="0.55" />
<rect x="827.55" y="361.68" width="2.28" height="17.79" fill="#2f9e44" opacity="0.55" />
<rect x="830.83" y="356.65" width="2.28" height="22.83" fill="#2f9e44" opacity="0.55" />
<rect x="834.10" y="352.65" width="2.28" height="26.82" fill="#2f9e44" opacity="0.55" />
<rect x="837.38" y="357.82" width="2.28" height="21.65" fill="#2f9e44" opacity="0.55" />
<rect x="840.65" y="365.89" width="2.28" height="13.58" fill="#2f9e44" opacity="0.55" />
<rect x="843.92" y="377.66" width="2.28" height="1.82" fill="#2f9e44" opacity="0.55" />
<rect x="847.20" y="379.47" width="2.28" height="3.59" fill="#d64545" opacity="0.55" />
<rect x="850.47" y="379.47" width="2.28" height="12.61" fill="#d64545" opacity="0.55" />
<rect x="853.75" y="379.47" width="2.28" height="19.88" fill="#d64545" opacity="0.55" />
<rect x="857.02" y="379.47" width="2.28" height="23.35" fill="#d64545" opacity="0.55" />
<rect x="860.29" y="379.47" width="2.28" height="22.45" fill="#d64545" opacity="0.55" />
<rect x="863.57" y="379.47" width="2.28" height="20.74" fill="#d64545" opacity="0.55" />
<rect x="866.84" y="379.47" width="2.28" height="18.03" fill="#d64545" opacity="0.55" />
<rect x="870.12" y="379.47" width="2.28" height="17.08" fill="#d64545" opacity="0.55" />
<rect x="873.39" y="379.47" width="2.28" height="16.01" fill="#d64545" opacity="0.55" />
<rect x="876.67" y="379.47" width="2.28" height="18.05" fill="#d64545" opacity="0.55" />
<rect x="879.94" y="379.47" width="2.28" height="19.96" fill="#d64545" opacity="0.55" />
<rect x="883.21" y="379.47" width="2.28" height="19.89" fill="#d64545" opacity="0.55" />
<rect x="886.49" y="379.47" width="2.28" height="22.22" fill="#d64545" opacity="0.55" />
<rect x="889.76" y="379.47" width="2.28" height="23.42" fill="#d64545" opacity="0.55" />
<rect x="893.04" y="379.47" width="2.28" height="21.52" fill="#d64545" opacity="0.55" />
<rect x="896.31" y="379.47" width="2.28" height="20.36" fill="#d64545" opacity="0.55" />
<rect x="899.58" y="379.47" width="2.28" height="19.28" fill="#d64545" opacity="0.55" />
<rect x="902.86" y="379.47" width="2.28" height="17.06" fill="#d64545" opacity="0.55" />
<polyline fill="none" stroke="#1f77b4" stroke-width="2" points="137.85,364.22 141.13,364.34 144.40,363.94 147.68,363.15 150.95,362.94 154.22,364.27 157.50,363.74 160.77,359.99 164.05,357.05 167.32,354.35 170.59,354.50 173.87,354.89 177.14,352.63 180.42,350.29 183.69,346.81 186.97,343.80 190.24,338.12 193.51,334.14 196.79,330.00 200.06,327.76 203.34,325.94 206.61,324.68 209.88,321.03 213.16,317.52 216.43,316.35 219.71,319.45 222.98,320.14 226.25,322.90 229.53,323.51 232.80,323.97 236.08,325.40 239.35,328.01 242.63,331.74 245.90,337.41 249.17,342.32 252.45,345.72 255.72,347.67 259.00,348.68 262.27,350.48 265.54,350.47 268.82,349.69 272.09,347.45 275.37,344.74 278.64,343.67 281.92,343.46 285.19,345.24 288.46,345.71 291.74,346.90 295.01,347.33 298.29,345.84 301.56,344.17 304.83,340.20 308.11,342.14 311.38,345.62 314.66,347.42 317.93,346.34 321.20,345.44 324.48,344.24 327.75,345.24 331.03,347.94 334.30,354.15 337.58,362.38 340.85,368.80 344.12,366.71 347.40,363.68 350.67,356.23 353.95,350.43 357.22,344.68 360.49,342.11 363.77,337.23 367.04,332.36 370.32,324.69 373.59,318.42 376.86,316.18 380.14,317.78 383.41,323.03 386.69,326.47 389.96,329.33 393.24,333.90 396.51,335.58 399.78,338.72 403.06,339.66 406.33,340.42 409.61,346.29 412.88,353.45 416.15,362.00 419.43,369.33 422.70,371.90 425.98,379.04 429.25,386.84 432.53,393.31 435.80,394.70 439.07,393.87 442.35,395.46 445.62,398.07 448.90,399.89 452.17,398.90 455.44,397.24 458.72,394.64 461.99,391.99 465.27,388.46 468.54,386.25 471.81,387.73 475.09,388.35 478.36,391.16 481.64,394.76 484.91,398.06 488.19,400.65 491.46,400.03 494.73,398.22 498.01,396.58 501.28,395.10 504.56,393.11 507.83,388.97 511.10,386.95 514.38,384.17 517.65,381.29 520.93,377.91 524.20,374.63 527.47,371.01 530.75,372.22 534.02,372.82 537.30,374.24 540.57,376.29 543.85,374.42 547.12,373.45 550.39,372.32 553.67,373.71 556.94,377.50 560.22,382.46 563.49,384.35 566.76,386.64 570.04,387.26 573.31,387.00 576.59,386.71 579.86,387.06 583.14,388.78 586.41,392.66 589.68,394.67 592.96,394.97 596.23,396.57 599.51,397.84 602.78,397.10 606.05,395.22 609.33,390.93 612.60,386.78 615.88,381.91 619.15,371.71 622.42,365.34 625.70,362.26 628.97,364.44 632.25,371.58 635.52,374.19 638.80,376.74 642.07,384.25 645.34,390.52 648.62,391.14 651.89,393.46 655.17,395.12 658.44,395.37 661.71,397.36 664.99,399.59 668.26,403.30 671.54,406.81 674.81,412.33 678.08,416.71 681.36,417.53 684.63,417.51 687.91,417.51 691.18,419.48 694.46,423.43 697.73,421.85 701.00,421.88 704.28,421.87 707.55,417.20 710.83,413.78 714.10,410.48 717.37,407.76 720.65,402.02 723.92,397.27 727.20,393.56 730.47,390.93 733.75,388.08 737.02,384.22 740.29,376.75 743.57,369.17 746.84,364.89 750.12,358.85 753.39,355.45 756.66,353.27 759.94,354.28 763.21,351.85 766.49,345.00 769.76,334.53 773.03,326.19 776.31,321.79 779.58,318.13 782.86,316.84 786.13,316.10 789.41,319.10 792.68,320.38 795.95,322.05 799.23,325.56 802.50,331.11 805.78,332.72 809.05,333.42 812.32,329.66 815.60,328.17 818.87,325.38 822.15,324.26 825.42,312.60 828.69,302.25 831.97,291.51 835.24,280.81 838.52,280.57 841.79,285.24 845.07,296.56 848.34,302.85 851.61,315.02 854.89,327.27 858.16,336.58 861.44,341.29 864.71,344.76 867.98,346.56 871.26,349.88 874.53,352.81 877.81,359.37 881.08,366.27 884.36,371.17 887.63,379.05 890.90,386.11 894.18,389.58 897.45,393.51 900.73,397.25 904.00,399.31" />
<polyline fill="none" stroke="#ff7f0e" stroke-width="2" points="137.85,364.22 141.13,364.24 144.40,364.18 147.68,363.98 150.95,363.77 154.22,363.87 157.50,363.84 160.77,363.07 164.05,361.87 167.32,360.37 170.59,359.19 173.87,358.33 177.14,357.19 180.42,355.81 183.69,354.01 186.97,351.97 190.24,349.20 193.51,346.19 196.79,342.95 200.06,339.91 203.34,337.12 206.61,334.63 209.88,331.91 213.16,329.03 216.43,326.49 219.71,325.08 222.98,324.10 226.25,323.86 229.53,323.79 232.80,323.82 236.08,324.14 239.35,324.91 242.63,326.28 245.90,328.50 249.17,331.27 252.45,334.16 255.72,336.86 259.00,339.22 262.27,341.47 265.54,343.27 268.82,344.56 272.09,345.13 275.37,345.06 278.64,344.78 281.92,344.51 285.19,344.66 288.46,344.87 291.74,345.28 295.01,345.69 298.29,345.72 301.56,345.41 304.83,344.37 308.11,343.92 311.38,344.26 314.66,344.89 317.93,345.18 321.20,345.23 324.48,345.03 327.75,345.08 331.03,345.65 334.30,347.35 337.58,350.36 340.85,354.04 344.12,356.58 347.40,358.00 350.67,357.64 353.95,356.20 357.22,353.90 360.49,351.54 363.77,348.68 367.04,345.42 370.32,341.27 373.59,336.70 376.86,332.60 380.14,329.63 383.41,328.31 386.69,327.95 389.96,328.22 393.24,329.36 396.51,330.60 399.78,332.23 403.06,333.71 406.33,335.06 409.61,337.30 412.88,340.53 416.15,344.82 419.43,349.73 422.70,354.16 425.98,359.14 429.25,364.68 432.53,370.40 435.80,375.26 439.07,378.98 442.35,382.28 445.62,385.44 448.90,388.33 452.17,390.44 455.44,391.80 458.72,392.37 461.99,392.29 465.27,391.53 468.54,390.47 471.81,389.92 475.09,389.61 478.36,389.92 481.64,390.89 484.91,392.32 488.19,393.99 491.46,395.20 494.73,395.80 498.01,395.96 501.28,395.78 504.56,395.25 507.83,393.99 511.10,392.58 514.38,390.90 517.65,388.98 520.93,386.77 524.20,384.34 527.47,381.67 530.75,379.78 534.02,378.39 537.30,377.56 540.57,377.30 543.85,376.73 547.12,376.07 550.39,375.32 553.67,375.00 556.94,375.50 560.22,376.89 563.49,378.38 566.76,380.04 570.04,381.48 573.31,382.58 576.59,383.41 579.86,384.14 583.14,385.07 586.41,386.59 589.68,388.20 592.96,389.56 596.23,390.96 599.51,392.34 602.78,393.29 606.05,393.67 609.33,393.12 612.60,391.86 615.88,389.87 619.15,386.24 622.42,382.06 625.70,378.10 628.97,375.37 632.25,374.61 635.52,374.53 638.80,374.97 642.07,376.82 645.34,379.56 648.62,381.88 651.89,384.19 655.17,386.38 658.44,388.18 661.71,390.01 664.99,391.93 668.26,394.20 671.54,396.72 674.81,399.84 678.08,403.22 681.36,406.08 684.63,408.37 687.91,410.19 691.18,412.05 694.46,414.33 697.73,415.83 701.00,417.04 704.28,418.01 707.55,417.85 710.83,417.03 714.10,415.72 717.37,414.13 720.65,411.71 723.92,408.82 727.20,405.77 730.47,402.80 733.75,399.86 737.02,396.73 740.29,392.73 743.57,388.02 746.84,383.40 750.12,378.49 753.39,373.88 756.66,369.76 759.94,366.66 763.21,363.70 766.49,359.96 769.76,354.87 773.03,349.14 776.31,343.67 779.58,338.56 782.86,334.22 786.13,330.59 789.41,328.29 792.68,326.71 795.95,325.78 799.23,325.73 802.50,326.81 805.78,327.99 809.05,329.08 812.32,329.19 815.60,328.99 818.87,328.27 822.15,327.47 825.42,324.49 828.69,320.04 831.97,314.34 835.24,307.63 838.52,302.22 841.79,298.82 845.07,298.37 848.34,299.27 851.61,302.42 854.89,307.39 858.16,313.23 861.44,318.84 864.71,324.02 867.98,328.53 871.26,332.80 874.53,336.80 877.81,341.32 881.08,346.31 884.36,351.28 887.63,356.83 890.90,362.69 894.18,368.07 897.45,373.16 900.73,377.97 904.00,382.24" />
<text x="754.00" y="290.00" font-size="13" font-family="Arial" fill="#1f77b4" text-anchor="start">MACD</text>
<text x="818.00" y="290.00" font-size="13" font-family="Arial" fill="#ff7f0e" text-anchor="start">Signal</text>
<line x1="56" y1="624" x2="904" y2="624" stroke="#cbd2d9" />
<line x1="56" y1="484" x2="56" y2="624" stroke="#cbd2d9" />
<text x="16.00" y="476.00" font-size="12" font-family="Arial" fill="#52606d" text-anchor="start">KD</text>
<line x1="56" y1="624.00" x2="904" y2="624.00" stroke="#edf2f7" />
<line x1="52" y1="624.00" x2="56" y2="624.00" stroke="#9fb3c8" />
<text x="48.00" y="628.00" font-size="11" font-family="Arial" fill="#52606d" text-anchor="end">-5.00</text>
<line x1="56" y1="577.33" x2="904" y2="577.33" stroke="#edf2f7" />
<line x1="52" y1="577.33" x2="56" y2="577.33" stroke="#9fb3c8" />
<text x="48.00" y="581.33" font-size="11" font-family="Arial" fill="#52606d" text-anchor="end">31.7</text>
<line x1="56" y1="530.67" x2="904" y2="530.67" stroke="#edf2f7" />
<line x1="52" y1="530.67" x2="56" y2="530.67" stroke="#9fb3c8" />
<text x="48.00" y="534.67" font-size="11" font-family="Arial" fill="#52606d" text-anchor="end">68.3</text>
<line x1="56" y1="484.00" x2="904" y2="484.00" stroke="#edf2f7" />
<line x1="52" y1="484.00" x2="56" y2="484.00" stroke="#9fb3c8" />
<text x="48.00" y="488.00" font-size="11" font-family="Arial" fill="#52606d" text-anchor="end">105</text>
<line x1="56.00" y1="624" x2="56.00" y2="628" stroke="#9fb3c8" />
<text x="56.00" y="642.00" font-size="11" font-family="Arial" fill="#52606d" text-anchor="middle">06/10</text>
<line x1="226.25" y1="624" x2="226.25" y2="628" stroke="#9fb3c8" />
<text x="226.25" y="642.00" font-size="11" font-family="Arial" fill="#52606d" text-anchor="middle">08/22</text>
<line x1="396.51" y1="624" x2="396.51" y2="628" stroke="#9fb3c8" />
<text x="396.51" y="642.00" font-size="11" font-family="Arial" fill="#52606d" text-anchor="middle">11/10</text>
<line x1="563.49" y1="624" x2="563.49" y2="628" stroke="#9fb3c8" />
<text x="563.49" y="642.00" font-size="11" font-family="Arial" fill="#52606d" text-anchor="middle">01/22</text>
<line x1="733.75" y1="624" x2="733.75" y2="628" stroke="#9fb3c8" />
<text x="733.75" y="642.00" font-size="11" font-family="Arial" fill="#52606d" text-anchor="middle">04/20</text>
<line x1="904.00" y1="624" x2="904.00" y2="628" stroke="#9fb3c8" />
<text x="904.00" y="642.00" font-size="11" font-family="Arial" fill="#52606d" text-anchor="middle">07/03</text>
<line x1="56" y1="592.18" x2="904" y2="592.18" stroke="#f0b429" stroke-dasharray="5 5" />
<text x="912.00" y="596.18" font-size="10" font-family="Arial" fill="#8d2b0b" text-anchor="start">20.0</text>
<line x1="56" y1="515.82" x2="904" y2="515.82" stroke="#f0b429" stroke-dasharray="5 5" />
<text x="912.00" y="519.82" font-size="10" font-family="Arial" fill="#8d2b0b" text-anchor="start">80.0</text>
<polyline fill="none" stroke="#2ca02c" stroke-width="2" points="82.19,631.43 85.47,664.82 88.74,655.90 92.02,643.98 95.29,632.59 98.56,619.39 101.84,622.13 105.11,611.61 108.39,598.07 111.66,583.36 114.93,600.23 118.21,625.16 121.48,644.38 124.76,646.90 128.03,646.00 131.31,646.00 134.58,655.22 137.85,644.20 141.13,640.29 144.40,626.90 147.68,611.29 150.95,606.45 154.22,627.71 157.50,616.52 160.77,589.72 164.05,573.15 167.32,563.78 170.59,568.77 173.87,572.10 177.14,559.76 180.42,550.13 183.69,541.72 186.97,540.52 190.24,534.63 193.51,533.13 196.79,527.87 200.06,527.24 203.34,526.46 206.61,526.80 209.88,526.05 213.16,524.07 216.43,532.14 219.71,555.85 222.98,560.04 226.25,572.03 229.53,568.89 232.80,568.29 236.08,577.72 239.35,590.88 242.63,608.23 245.90,625.20 249.17,636.52 252.45,637.72 255.72,630.61 259.00,619.52 262.27,616.89 265.54,599.78 268.82,584.74 272.09,571.13 275.37,558.59 278.64,553.11 281.92,555.93 285.19,566.55 288.46,566.14 291.74,572.15 295.01,580.23 298.29,572.67 301.56,563.47 304.83,553.22 308.11,565.19 311.38,579.44 314.66,583.56 317.93,582.49 321.20,579.36 324.48,575.17 327.75,581.39 331.03,594.55 334.30,608.48 337.58,619.47 340.85,622.54 344.12,600.73 347.40,581.13 350.67,560.06 353.95,550.21 357.22,540.26 360.49,537.01 363.77,530.34 367.04,523.54 370.32,521.15 373.59,521.44 376.86,528.70 380.14,546.84 383.41,569.78 386.69,581.40 389.96,587.68 393.24,597.75 396.51,596.37 399.78,599.87 403.06,594.35 406.33,585.33 409.61,602.73 412.88,619.47 416.15,629.71 419.43,631.61 422.70,622.41 425.98,629.72 429.25,633.19 432.53,635.27 435.80,627.22 439.07,614.21 442.35,615.40 445.62,623.78 448.90,629.37 452.17,620.77 455.44,610.29 458.72,595.38 461.99,585.12 465.27,575.53 468.54,573.00 471.81,590.63 475.09,599.80 478.36,620.08 481.64,625.78 484.91,632.46 488.19,634.43 491.46,625.89 494.73,615.56 498.01,608.12 501.28,599.92 504.56,589.22 507.83,575.15 511.10,572.11 514.38,564.80 517.65,562.46 520.93,565.45 524.20,567.31 527.47,565.66 530.75,587.07 534.02,604.80 537.30,624.02 540.57,638.45 543.85,626.81 547.12,621.71 550.39,615.65 553.67,624.89 556.94,642.06 560.22,650.71 563.49,644.89 566.76,646.16 570.04,640.57 573.31,632.98 576.59,627.92 579.86,628.82 583.14,639.37 586.41,644.39 589.68,643.16 592.96,636.61 596.23,640.26 599.51,636.19 602.78,626.61 606.05,613.36 609.33,589.24 612.60,575.13 615.88,560.78 619.15,546.17 622.42,544.86 625.70,547.82 628.97,565.34 632.25,589.40 635.52,597.64 638.80,604.25 642.07,610.13 645.34,614.92 648.62,609.87 651.89,609.67 655.17,609.46 658.44,604.01 661.71,608.81 664.99,616.77 668.26,633.83 671.54,635.76 674.81,637.64 678.08,639.01 681.36,631.49 684.63,625.61 687.91,623.46 691.18,631.06 694.46,638.09 697.73,622.55 701.00,621.10 704.28,622.36 707.55,602.04 710.83,591.84 714.10,580.07 717.37,573.60 720.65,559.30 723.92,555.61 727.20,554.08 730.47,554.94 733.75,561.70 737.02,560.83 740.29,552.43 743.57,549.58 746.84,555.59 750.12,550.52 753.39,551.36 756.66,552.60 759.94,561.83 763.21,560.66 766.49,548.68 769.76,539.29 773.03,535.53 776.31,537.26 779.58,536.27 782.86,537.75 786.13,537.66 789.41,547.19 792.68,552.27 795.95,573.36 799.23,595.01 802.50,615.88 805.78,614.72 809.05,608.92 812.32,587.17 815.60,576.09 818.87,565.69 822.15,560.53 825.42,544.30 828.69,539.04 831.97,531.03 835.24,526.04 838.52,535.34 841.79,548.43 845.07,568.34 848.34,575.78 851.61,591.31 854.89,600.41 858.16,605.16 861.44,603.71 864.71,601.18 867.98,593.59 871.26,586.54 874.53,581.83 877.81,592.89 881.08,606.27 884.36,620.30 887.63,629.72 890.90,635.23 894.18,632.61 897.45,635.06 900.73,628.12 904.00,619.09" />
<polyline fill="none" stroke="#d62728" stroke-width="2" points="82.19,579.81 85.47,608.15 88.74,624.06 92.02,630.70 95.29,631.33 98.56,627.35 101.84,625.61 105.11,620.94 108.39,613.32 111.66,603.33 114.93,602.30 118.21,609.92 121.48,621.41 124.76,629.91 128.03,635.27 131.31,638.85 134.58,644.30 137.85,644.27 141.13,642.94 144.40,637.60 147.68,628.83 150.95,621.37 154.22,623.48 157.50,621.16 160.77,610.68 164.05,598.17 167.32,586.71 170.59,580.73 173.87,577.85 177.14,571.82 180.42,564.59 183.69,556.97 186.97,551.48 190.24,545.86 193.51,541.62 196.79,537.04 200.06,533.77 203.34,531.33 206.61,529.82 209.88,528.57 213.16,527.07 216.43,528.76 219.71,537.79 222.98,545.21 226.25,554.15 229.53,559.06 232.80,562.14 236.08,567.33 239.35,575.18 242.63,586.20 245.90,599.20 249.17,611.64 252.45,620.33 255.72,623.76 259.00,622.35 262.27,620.53 265.54,613.61 268.82,603.99 272.09,593.04 275.37,581.55 278.64,572.07 281.92,566.69 285.19,566.64 288.46,566.48 291.74,568.37 295.01,572.32 298.29,572.44 301.56,569.45 304.83,564.04 308.11,564.42 311.38,569.43 314.66,574.14 317.93,576.92 321.20,577.74 324.48,576.88 327.75,578.38 331.03,583.77 334.30,592.01 337.58,601.16 340.85,608.29 344.12,605.77 347.40,597.56 350.67,585.06 353.95,573.44 357.22,562.38 360.49,553.93 363.77,546.06 367.04,538.56 370.32,532.75 373.59,528.98 376.86,528.89 380.14,534.87 383.41,546.51 386.69,558.14 389.96,567.99 393.24,577.91 396.51,584.06 399.78,589.33 403.06,591.00 406.33,589.11 409.61,593.65 412.88,602.26 416.15,611.41 419.43,618.14 422.70,619.56 425.98,622.95 429.25,626.36 432.53,629.33 435.80,628.63 439.07,623.82 442.35,621.01 445.62,621.94 448.90,624.41 452.17,623.20 455.44,618.90 458.72,611.06 461.99,602.41 465.27,593.45 468.54,586.64 471.81,587.97 475.09,591.91 478.36,601.30 481.64,609.46 484.91,617.13 488.19,622.90 491.46,623.89 494.73,621.11 498.01,616.78 501.28,611.16 504.56,603.85 507.83,594.28 511.10,586.89 514.38,579.53 517.65,573.84 520.93,571.04 524.20,569.80 527.47,568.42 530.75,574.64 534.02,584.69 537.30,597.80 540.57,611.35 543.85,616.50 547.12,618.24 550.39,617.37 553.67,619.88 556.94,627.27 560.22,635.09 563.49,638.36 566.76,640.96 570.04,640.83 573.31,638.21 576.59,634.78 579.86,632.80 583.14,634.99 586.41,638.12 589.68,639.80 592.96,638.74 596.23,639.25 599.51,638.23 602.78,634.35 606.05,627.36 609.33,614.65 612.60,601.48 615.88,587.91 619.15,574.00 622.42,564.29 625.70,558.80 628.97,560.98 632.25,570.45 635.52,579.51 638.80,587.76 642.07,595.21 645.34,601.78 648.62,604.48 651.89,606.21 655.17,607.29 658.44,606.20 661.71,607.07 664.99,610.30 668.26,618.15 671.54,624.02 674.81,628.56 678.08,632.04 681.36,631.86 684.63,629.78 687.91,627.67 691.18,628.80 694.46,631.89 697.73,628.78 701.00,626.22 704.28,624.93 707.55,617.30 710.83,608.81 714.10,599.23 717.37,590.69 720.65,580.23 723.92,572.02 727.20,566.04 730.47,562.34 733.75,562.12 737.02,561.69 740.29,558.61 743.57,555.60 746.84,555.60 750.12,553.90 753.39,553.06 756.66,552.90 759.94,555.88 763.21,557.47 766.49,554.54 769.76,549.46 773.03,544.82 776.31,542.30 779.58,540.29 782.86,539.44 786.13,538.85 789.41,541.63 792.68,545.18 795.95,554.57 799.23,568.05 802.50,583.99 805.78,594.24 809.05,599.13 812.32,595.14 815.60,588.79 818.87,581.09 822.15,574.24 825.42,564.26 828.69,555.85 831.97,547.58 835.24,540.40 838.52,538.72 841.79,541.95 845.07,550.75 848.34,559.09 851.61,569.83 854.89,580.03 858.16,588.40 861.44,593.50 864.71,596.06 867.98,595.24 871.26,592.34 874.53,588.84 877.81,590.19 881.08,595.55 884.36,603.80 887.63,612.44 890.90,620.04 894.18,624.23 897.45,627.84 900.73,627.93 904.00,624.98" />
<text x="824.00" y="502.00" font-size="13" font-family="Arial" fill="#2ca02c" text-anchor="start">K</text>
<text x="860.00" y="502.00" font-size="13" font-family="Arial" fill="#d62728" text-anchor="start">D</text>
</svg>