<svg xmlns="http://www.w3.org/2000/svg" width="960" height="680" viewBox="0 0 960 680"><rect width="100%" height="100%" fill="white" />
<text x="56.00" y="32.00" font-size="20" font-family="Arial" fill="#1f2933" text-anchor="start">台積電(2330) Technical Indicators</text>
<line x1="56" y1="220" x2="904" y2="220" stroke="#cbd2d9" />
<line x1="56" y1="58" x2="56" y2="220" stroke="#cbd2d9" />
<text x="16.00" y="50.00" font-size="12" font-family="Arial" fill="#52606d" text-anchor="start">RSI14</text>
<line x1="56" y1="220.00" x2="904" y2="220.00" stroke="#edf2f7" />
<line x1="52" y1="220.00" x2="56" y2="220.00" stroke="#9fb3c8" />
<text x="48.00" y="224.00" font-size="11" font-family="Arial" fill="#52606d" text-anchor="end">-5.00</text>
<line x1="56" y1="166.00" x2="904" y2="166.00" stroke="#edf2f7" />
<line x1="52" y1="166.00" x2="56" y2="166.00" stroke="#9fb3c8" />
<text x="48.00" y="170.00" font-size="11" font-family="Arial" fill="#52606d" text-anchor="end">31.7</text>
<line x1="56" y1="112.00" x2="904" y2="112.00" stroke="#edf2f7" />
<line x1="52" y1="112.00" x2="56" y2="112.00" stroke="#9fb3c8" />
<text x="48.00" y="116.00" font-size="11" font-family="Arial" fill="#52606d" text-anchor="end">68.3</text>
<line x1="56" y1="58.00" x2="904" y2="58.00" stroke="#edf2f7" />
<line x1="52" y1="58.00" x2="56" y2="58.00" stroke="#9fb3c8" />
<text x="48.00" y="62.00" font-size="11" font-family="Arial" fill="#52606d" text-anchor="end">105</text>
<line x1="56" y1="168.45" x2="904" y2="168.45" stroke="#f0b429" stroke-dasharray="5 5" />
<text x="912.00" y="172.45" font-size="10" font-family="Arial" fill="#8d2b0b" text-anchor="start">30.0</text>
<line x1="56" y1="109.55" x2="904" y2="109.55" stroke="#f0b429" stroke-dasharray="5 5" />
<text x="912.00" y="113.55" font-size="10" font-family="Arial" fill="#8d2b0b" text-anchor="start">70.0</text>
<polyline fill="none" stroke="#1f77b4" stroke-width="2" points="101.84,117.11 105.11,114.26 108.39,114.26 111.66,117.30 114.93,112.59 118.21,107.14 121.48,107.14 124.76,101.15 128.03,104.49 131.31,116.84 134.58,112.50 137.85,112.50 141.13,112.50 144.40,112.50 147.68,119.55 150.95,112.41 154.22,110.80 157.50,126.65 160.77,121.05 164.05,133.96 167.32,116.79 170.59,119.08 173.87,117.73 177.14,117.73 180.42,112.27 183.69,124.63 186.97,123.10 190.24,123.10 193.51,121.42 196.79,143.18 200.06,137.61 203.34,142.98 206.61,131.15 209.88,129.64 213.16,125.21 216.43,136.51 219.71,136.51 222.98,134.78 226.25,136.77 229.53,136.77 232.80,136.77 236.08,128.68 239.35,128.68 242.63,121.33 245.90,113.76 249.17,109.87 252.45,105.27 255.72,108.18 259.00,101.78 262.27,110.04 265.54,105.72 268.82,115.80 272.09,109.13 275.37,101.43 278.64,101.43 281.92,110.68 285.19,119.06 288.46,117.89 291.74,113.41 295.01,105.96 298.29,100.78 301.56,96.50 304.83,104.54 308.11,101.20 311.38,110.56 314.66,108.99 317.93,103.28 321.20,100.78 324.48,113.12 327.75,108.71 331.03,108.71 334.30,115.64 337.58,119.00 340.85,113.60 344.12,115.36 347.40,110.21 350.67,110.21 353.95,112.21 357.22,110.32 360.49,112.50 363.77,129.60 367.04,128.31 370.32,130.09 373.59,125.96 376.86,129.76 380.14,126.86 383.41,132.68 386.69,142.88 389.96,137.90 393.24,149.54 396.51,152.08 399.78,134.18 403.06,150.34 406.33,152.25 409.61,142.10 412.88,136.51 416.15,137.68 419.43,136.50 422.70,143.78 425.98,138.74 429.25,133.99 432.53,135.34 435.80,131.67 439.07,123.95 442.35,128.47 445.62,123.18 448.90,131.95 452.17,129.69 455.44,137.90 458.72,141.68 461.99,142.95 465.27,142.95 468.54,142.95 471.81,132.48 475.09,126.17 478.36,124.96 481.64,121.37 484.91,116.91 488.19,120.84 491.46,114.34 494.73,108.05 498.01,97.31 501.28,94.11 504.56,104.15 507.83,103.01 511.10,104.72 514.38,103.44 517.65,100.94 520.93,100.94 524.20,108.84 527.47,101.89 530.75,99.53 534.02,97.84 537.30,110.54 540.57,107.66 543.85,106.26 547.12,111.67 550.39,107.79 553.67,102.45 556.94,107.78 560.22,117.68 563.49,120.80 566.76,114.70 570.04,119.43 573.31,125.48 576.59,122.49 579.86,116.13 583.14,106.90 586.41,102.93 589.68,107.56 592.96,100.62 596.23,96.39 599.51,102.10 602.78,107.66 606.05,117.91 609.33,132.63 612.60,127.44 615.88,129.41 619.15,143.28 622.42,136.87 625.70,124.97 628.97,133.62 632.25,136.56 635.52,139.49 638.80,135.00 642.07,130.22 645.34,138.80 648.62,140.27 651.89,144.66 655.17,144.66 658.44,138.65 661.71,139.50 664.99,142.96 668.26,149.40 671.54,152.40 674.81,135.41 678.08,142.40 681.36,134.87 684.63,123.80 687.91,123.24 691.18,118.39 694.46,120.24 697.73,113.60 701.00,111.30 704.28,110.83 707.55,121.79 710.83,122.73 714.10,119.68 717.37,119.68 720.65,115.94 723.92,105.52 727.20,99.71 730.47,109.73 733.75,116.18 737.02,123.88 740.29,111.53 743.57,115.47 746.84,115.47 750.12,110.57 753.39,114.03 756.66,123.05 759.94,121.05 763.21,126.65 766.49,121.38 769.76,122.22 773.03,126.48 776.31,132.19 779.58,135.34 782.86,129.27 786.13,126.12 789.41,119.76 792.68,126.80 795.95,123.25 799.23,124.17 802.50,117.30 805.78,117.30 809.05,114.52 812.32,109.91 815.60,118.38 818.87,122.39 822.15,134.85 825.42,133.41 828.69,141.39 831.97,141.22 835.24,131.89 838.52,123.54 841.79,120.66 845.07,123.51 848.34,120.45 851.61,110.27 854.89,114.19 858.16,131.01 861.44,131.01 864.71,138.37 867.98,134.35 871.26,129.30 874.53,119.21 877.81,125.45 881.08,128.47 884.36,126.75 887.63,129.99 890.90,126.87 894.18,134.95 897.45,134.95 900.73,131.34 904.00,134.82" />
<text x="808.00" y="76.00" font-size="13" font-family="Arial" fill="#1f77b4" text-anchor="start">RSI14</text>
<line x1="56" y1="432" x2="904" y2="432" stroke="#cbd2d9" />
<line x1="56" y1="272" x2="56" y2="432" stroke="#cbd2d9" />
<text x="16.00" y="264.00" font-size="12" font-family="Arial" fill="#52606d" text-anchor="start">MACD</text>
<line x1="56" y1="432.00" x2="904" y2="432.00" stroke="#edf2f7" />
<line x1="52" y1="432.00" x2="56" y2="432.00" stroke="#9fb3c8" />
<text x="48.00" y="436.00" font-size="11" font-family="Arial" fill="#52606d" text-anchor="end">-25.1</text>
<line x1="56" y1="378.67" x2="904" y2="378.67" stroke="#edf2f7" />
<line x1="52" y1="378.67" x2="56" y2="378.67" stroke="#9fb3c8" />
<text x="48.00" y="382.67" font-size="11" font-family="Arial" fill="#52606d" text-anchor="end">17.7</text>
<line x1="56" y1="325.33" x2="904" y2="325.33" stroke="#edf2f7" />
<line x1="52" y1="325.33" x2="56" y2="325.33" stroke="#9fb3c8" />
<text x="48.00" y="329.33" font-size="11" font-family="Arial" fill="#52606d" text-anchor="end">60.6</text>
<line x1="56" y1="272.00" x2="904" y2="272.00" stroke="#edf2f7" />
<line x1="52" y1="272.00" x2="56" y2="272.00" stroke="#9fb3c8" />
<text x="48.00" y="276.00" font-size="11" font-family="Arial" fill="#52606d" text-anchor="end">103</text>
<line x1="56" y1="400.74" x2="904" y2="400.74" stroke="#9fb3c8" stroke-dasharray="4 4" />
<rect x="136.71" y="400.74" width="2.28" height="0.00" fill="#2f9e44" opacity="0.55" />
<rect x="139.99" y="400.74" width="2.28" height="0.19" fill="#d64545" opacity="0.55" />
<rect x="143.26" y="400.74" width="2.28" height="0.57" fill="#d64545" opacity="0.55" />
<rect x="146.53" y="400.74" width="2.28" height="1.83" fill="#d64545" opacity="0.55" />
<rect x="149.81" y="400.74" width="2.28" height="1.21" fill="#d64545" opacity="0.55" />
<rect x="153.08" y="400.74" width="2.28" height="0.64" fill="#d64545" opacity="0.55" />
<rect x="156.36" y="400.74" width="2.28" height="2.46" fill="#d64545" opacity="0.55" />
<rect x="159.63" y="400.74" width="2.28" height="2.55" fill="#d64545" opacity="0.55" />
<rect x="162.90" y="400.74" width="2.28" height="4.68" fill="#d64545" opacity="0.55" />
<rect x="166.18" y="400.74" width="2.28" height="1.69" fill="#d64545" opacity="0.55" />
<rect x="169.45" y="400.74" width="2.28" height="0.36" fill="#d64545" opacity="0.55" />
<rect x="172.73" y="400.09" width="2.28" height="0.65" fill="#2f9e44" opacity="0.55" />
<rect x="176.00" y="399.72" width="2.28" height="1.02" fill="#2f9e44" opacity="0.55" />
<rect x="179.28" y="398.21" width="2.28" height="2.53" fill="#2f9e44" opacity="0.55" />
<rect x="182.55" y="399.60" width="2.28" height="1.14" fill="#2f9e44" opacity="0.55" />
<rect x="185.82" y="400.38" width="2.28" height="0.36" fill="#2f9e44" opacity="0.55" />
<rect x="189.10" y="400.74" width="2.28" height="0.39" fill="#d64545" opacity="0.55" />
<rect x="192.37" y="400.74" width="2.28" height="0.70" fill="#d64545" opacity="0.55" />
<rect x="195.65" y="400.74" width="2.28" height="5.01" fill="#d64545" opacity="0.55" />
<rect x="198.92" y="400.74" width="2.28" height="6.51" fill="#d64545" opacity="0.55" />
<rect x="202.19" y="400.74" width="2.28" height="8.50" fill="#d64545" opacity="0.55" />
<rect x="205.47" y="400.74" width="2.28" height="6.76" fill="#d64545" opacity="0.55" />
<rect x="208.74" y="400.74" width="2.28" height="5.10" fill="#d64545" opacity="0.55" />
<rect x="212.02" y="400.74" width="2.28" height="2.79" fill="#d64545" opacity="0.55" />
<rect x="215.29" y="400.74" width="2.28" height="3.71" fill="#d64545" opacity="0.55" />
<rect x="218.57" y="400.74" width="2.28" height="4.24" fill="#d64545" opacity="0.55" />
<rect x="221.84" y="400.74" width="2.28" height="4.11" fill="#d64545" opacity="0.55" />
<rect x="225.11" y="400.74" width="2.28" height="4.34" fill="#d64545" opacity="0.55" />
<rect x="228.39" y="400.74" width="2.28" height="4.38" fill="#d64545" opacity="0.55" />
<rect x="231.66" y="400.74" width="2.28" height="4.30" fill="#d64545" opacity="0.55" />
<rect x="234.94" y="400.74" width="2.28" height="2.56" fill="#d64545" opacity="0.55" />
<rect x="238.21" y="400.74" width="2.28" height="1.43" fill="#d64545" opacity="0.55" />
<rect x="241.48" y="399.93" width="2.28" height="0.82" fill="#2f9e44" opacity="0.55" />
<rect x="244.76" y="396.70" width="2.28" height="4.04" fill="#2f9e44" opacity="0.55" />
<rect x="248.03" y="393.82" width="2.28" height="6.92" fill="#2f9e44" opacity="0.55" />
<rect x="251.31" y="390.94" width="2.28" height="9.81" fill="#2f9e44" opacity="0.55" />
<rect x="254.58" y="390.18" width="2.28" height="10.56" fill="#2f9e44" opacity="0.55" />
<rect x="257.85" y="388.07" width="2.28" height="12.67" fill="#2f9e44" opacity="0.55" />
<rect x="261.13" y="388.80" width="2.28" height="11.95" fill="#2f9e44" opacity="0.55" />
<rect x="264.40" y="388.53" width="2.28" height="12.22" fill="#2f9e44" opacity="0.55" />
<rect x="267.68" y="390.83" width="2.28" height="9.92" fill="#2f9e44" opacity="0.55" />
<rect x="270.95" y="390.71" width="2.28" height="10.04" fill="#2f9e44" opacity="0.55" />
<rect x="274.23" y="387.92" width="2.28" height="12.83" fill="#2f9e44" opacity="0.55" />
<rect x="277.50" y="387.17" width="2.28" height="13.57" fill="#2f9e44" opacity="0.55" />
<rect x="280.77" y="389.35" width="2.28" height="11.40" fill="#2f9e44" opacity="0.55" />
<rect x="284.05" y="393.27" width="2.28" height="7.48" fill="#2f9e44" opacity="0.55" />
<rect x="287.32" y="396.13" width="2.28" height="4.62" fill="#2f9e44" opacity="0.55" />
<rect x="290.60" y="397.00" width="2.28" height="3.74" fill="#2f9e44" opacity="0.55" />
<rect x="293.87" y="395.02" width="2.28" height="5.72" fill="#2f9e44" opacity="0.55" />
<rect x="297.14" y="391.76" width="2.28" height="8.98" fill="#2f9e44" opacity="0.55" />
<rect x="300.42" y="387.89" width="2.28" height="12.85" fill="#2f9e44" opacity="0.55" />
<rect x="303.69" y="388.20" width="2.28" height="12.54" fill="#2f9e44" opacity="0.55" />
<rect x="306.97" y="387.60" width="2.28" height="13.15" fill="#2f9e44" opacity="0.55" />
<rect x="310.24" y="390.42" width="2.28" height="10.33" fill="#2f9e44" opacity="0.55" />
<rect x="313.51" y="392.51" width="2.28" height="8.24" fill="#2f9e44" opacity="0.55" />
<rect x="316.79" y="391.69" width="2.28" height="9.05" fill="#2f9e44" opacity="0.55" />
<rect x="320.06" y="390.68" width="2.28" height="10.06" fill="#2f9e44" opacity="0.55" />
<rect x="323.34" y="393.96" width="2.28" height="6.78" fill="#2f9e44" opacity="0.55" />
<rect x="326.61" y="394.66" width="2.28" height="6.08" fill="#2f9e44" opacity="0.55" />
<rect x="329.89" y="396.07" width="2.28" height="4.67" fill="#2f9e44" opacity="0.55" />
<rect x="333.16" y="399.45" width="2.28" height="1.30" fill="#2f9e44" opacity="0.55" />
<rect x="336.43" y="400.74" width="2.28" height="2.35" fill="#d64545" opacity="0.55" />
<rect x="339.71" y="400.74" width="2.28" height="2.81" fill="#d64545" opacity="0.55" />
<rect x="342.98" y="400.74" width="2.28" height="4.01" fill="#d64545" opacity="0.55" />
<rect x="346.26" y="400.74" width="2.28" height="2.84" fill="#d64545" opacity="0.55" />
<rect x="349.53" y="400.74" width="2.28" height="2.61" fill="#d64545" opacity="0.55" />
<rect x="352.80" y="400.74" width="2.28" height="3.36" fill="#d64545" opacity="0.55" />
<rect x="356.08" y="400.74" width="2.28" height="3.49" fill="#d64545" opacity="0.55" />
<rect x="359.35" y="400.74" width="2.28" height="4.41" fill="#d64545" opacity="0.55" />
<rect x="362.63" y="400.74" width="2.28" height="8.91" fill="#d64545" opacity="0.55" />
<rect x="365.90" y="400.74" width="2.28" height="11.47" fill="#d64545" opacity="0.55" />
<rect x="369.18" y="400.74" width="2.28" height="13.42" fill="#d64545" opacity="0.55" />
<rect x="372.45" y="400.74" width="2.28" height="13.30" fill="#d64545" opacity="0.55" />
<rect x="375.72" y="400.74" width="2.28" height="13.82" fill="#d64545" opacity="0.55" />
<rect x="379.00" y="400.74" width="2.28" height="13.11" fill="#d64545" opacity="0.55" />
<rect x="382.27" y="400.74" width="2.28" height="13.61" fill="#d64545" opacity="0.55" />
<rect x="385.55" y="400.74" width="2.28" height="15.97" fill="#d64545" opacity="0.55" />
<rect x="388.82" y="400.74" width="2.28" height="15.82" fill="#d64545" opacity="0.55" />
<rect x="392.09" y="400.74" width="2.28" height="18.38" fill="#d64545" opacity="0.55" />
<rect x="395.37" y="400.74" width="2.28" height="20.11" fill="#d64545" opacity="0.55" />
<rect x="398.64" y="400.74" width="2.28" height="15.67" fill="#d64545" opacity="0.55" />
<rect x="401.92" y="400.74" width="2.28" height="17.79" fill="#d64545" opacity="0.55" />
<rect x="405.19" y="400.74" width="2.28" height="19.15" fill="#d64545" opacity="0.55" />
<rect x="408.46" y="400.74" width="2.28" height="15.99" fill="#d64545" opacity="0.55" />
<rect x="411.74" y="400.74" width="2.28" height="11.30" fill="#d64545" opacity="0.55" />
<rect x="415.01" y="400.74" width="2.28" height="8.23" fill="#d64545" opacity="0.55" />
<rect x="418.29" y="400.74" width="2.28" height="5.53" fill="#d64545" opacity="0.55" />
<rect x="421.56" y="400.74" width="2.28" height="5.96" fill="#d64545" opacity="0.55" />
<rect x="424.84" y="400.74" width="2.28" height="4.36" fill="#d64545" opacity="0.55" />
<rect x="428.11" y="400.74" width="2.28" height="1.57" fill="#d64545" opacity="0.55" />
<rect x="431.38" y="400.74" width="2.28" height="0.15" fill="#d64545" opacity="0.55" />
<rect x="434.66" y="398.83" width="2.28" height="1.91" fill="#2f9e44" opacity="0.55" />
<rect x="437.93" y="394.90" width="2.28" height="5.85" fill="#2f9e44" opacity="0.55" />
<rect x="441.21" y="393.95" width="2.28" height="6.79" fill="#2f9e44" opacity="0.55" />
<rect x="444.48" y="391.79" width="2.28" height="8.95" fill="#2f9e44" opacity="0.55" />
<rect x="447.75" y="393.34" width="2.28" height="7.40" fill="#2f9e44" opacity="0.55" />
<rect x="451.03" y="394.00" width="2.28" height="6.75" fill="#2f9e44" opacity="0.55" />
<rect x="454.30" y="397.22" width="2.28" height="3.52" fill="#2f9e44" opacity="0.55" />
<rect x="457.58" y="400.72" width="2.28" height="0.02" fill="#2f9e44" opacity="0.55" />
<rect x="460.85" y="400.74" width="2.28" height="2.68" fill="#d64545" opacity="0.55" />
<rect x="464.12" y="400.74" width="2.28" height="4.32" fill="#d64545" opacity="0.55" />
<rect x="467.40" y="400.74" width="2.28" height="5.22" fill="#d64545" opacity="0.55" />
<rect x="470.67" y="400.74" width="2.28" height="2.83" fill="#d64545" opacity="0.55" />
<rect x="473.95" y="400.02" width="2.28" height="0.72" fill="#2f9e44" opacity="0.55" />
<rect x="477.22" y="397.51" width="2.28" height="3.23" fill="#2f9e44" opacity="0.55" />
<rect x="480.50" y="395.01" width="2.28" height="5.74" fill="#2f9e44" opacity="0.55" />
<rect x="483.77" y="392.25" width="2.28" height="8.49" fill="#2f9e44" opacity="0.55" />
<rect x="487.04" y="391.87" width="2.28" height="8.87" fill="#2f9e44" opacity="0.55" />
<rect x="490.32" y="389.87" width="2.28" height="10.88" fill="#2f9e44" opacity="0.55" />
<rect x="493.59" y="386.58" width="2.28" height="14.17" fill="#2f9e44" opacity="0.55" />
<rect x="496.87" y="378.74" width="2.28" height="22.01" fill="#2f9e44" opacity="0.55" />
<rect x="500.14" y="372.46" width="2.28" height="28.29" fill="#2f9e44" opacity="0.55" />
<rect x="503.41" y="372.68" width="2.28" height="28.07" fill="#2f9e44" opacity="0.55" />
<rect x="506.69" y="373.87" width="2.28" height="26.88" fill="#2f9e44" opacity="0.55" />
<rect x="509.96" y="376.84" width="2.28" height="23.90" fill="#2f9e44" opacity="0.55" />
<rect x="513.24" y="379.66" width="2.28" height="21.08" fill="#2f9e44" opacity="0.55" />
<rect x="516.51" y="381.49" width="2.28" height="19.26" fill="#2f9e44" opacity="0.55" />
<rect x="519.79" y="384.22" width="2.28" height="16.53" fill="#2f9e44" opacity="0.55" />
<rect x="523.06" y="388.99" width="2.28" height="11.76" fill="#2f9e44" opacity="0.55" />
<rect x="526.33" y="389.29" width="2.28" height="11.45" fill="#2f9e44" opacity="0.55" />
<rect x="529.61" y="389.17" width="2.28" height="11.58" fill="#2f9e44" opacity="0.55" />
<rect x="532.88" y="389.21" width="2.28" height="11.53" fill="#2f9e44" opacity="0.55" />
<rect x="536.16" y="393.32" width="2.28" height="7.42" fill="#2f9e44" opacity="0.55" />
<rect x="539.43" y="395.45" width="2.28" height="5.30" fill="#2f9e44" opacity="0.55" />
<rect x="542.70" y="397.02" width="2.28" height="3.73" fill="#2f9e44" opacity="0.55" />
<rect x="545.98" y="400.14" width="2.28" height="0.60" fill="#2f9e44" opacity="0.55" />
<rect x="549.25" y="400.74" width="2.28" height="0.17" fill="#d64545" opacity="0.55" />
<rect x="552.53" y="398.99" width="2.28" height="1.75" fill="#2f9e44" opacity="0.55" />
<rect x="555.80" y="399.83" width="2.28" height="0.92" fill="#2f9e44" opacity="0.55" />
<rect x="559.07" y="400.74" width="2.28" height="2.79" fill="#d64545" opacity="0.55" />
<rect x="562.35" y="400.74" width="2.28" height="6.51" fill="#d64545" opacity="0.55" />
<rect x="565.62" y="400.74" width="2.28" height="6.48" fill="#d64545" opacity="0.55" />
<rect x="568.90" y="400.74" width="2.28" height="8.04" fill="#d64545" opacity="0.55" />
<rect x="572.17" y="400.74" width="2.28" height="10.88" fill="#d64545" opacity="0.55" />
<rect x="575.45" y="400.74" width="2.28" height="11.60" fill="#d64545" opacity="0.55" />
<rect x="578.72" y="400.74" width="2.28" height="9.33" fill="#d64545" opacity="0.55" />
<rect x="581.99" y="400.74" width="2.28" height="2.93" fill="#d64545" opacity="0.55" />
<rect x="585.27" y="397.38" width="2.28" height="3.36" fill="#2f9e44" opacity="0.55" />
<rect x="588.54" y="395.43" width="2.28" height="5.31" fill="#2f9e44" opacity="0.55" />
<rect x="591.82" y="390.01" width="2.28" height="10.73" fill="#2f9e44" opacity="0.55" />
<rect x="595.09" y="383.90" width="2.28" height="16.84" fill="#2f9e44" opacity="0.55" />
<rect x="598.36" y="383.25" width="2.28" height="17.49" fill="#2f9e44" opacity="0.55" />
<rect x="601.64" y="386.09" width="2.28" height="14.65" fill="#2f9e44" opacity="0.55" />
<rect x="604.91" y="392.59" width="2.28" height="8.16" fill="#2f9e44" opacity="0.55" />
<rect x="608.19" y="400.74" width="2.28" height="2.67" fill="#d64545" opacity="0.55" />
<rect x="611.46" y="400.74" width="2.28" height="7.36" fill="#d64545" opacity="0.55" />
<rect x="614.73" y="400.74" width="2.28" height="11.48" fill="#d64545" opacity="0.55" />
<rect x="618.01" y="400.74" width="2.28" height="20.53" fill="#d64545" opacity="0.55" />
<rect x="621.28" y="400.74" width="2.28" height="22.68" fill="#d64545" opacity="0.55" />
<rect x="624.56" y="400.74" width="2.28" height="16.40" fill="#d64545" opacity="0.55" />
<rect x="627.83" y="400.74" width="2.28" height="16.56" fill="#d64545" opacity="0.55" />
<rect x="631.11" y="400.74" width="2.28" height="17.96" fill="#d64545" opacity="0.55" />
<rect x="634.38" y="400.74" width="2.28" height="20.01" fill="#d64545" opacity="0.55" />
<rect x="637.65" y="400.74" width="2.28" height="18.29" fill="#d64545" opacity="0.55" />
<rect x="640.93" y="400.74" width="2.28" height="13.94" fill="#d64545" opacity="0.55" />
<rect x="644.20" y="400.74" width="2.28" height="15.26" fill="#d64545" opacity="0.55" />
<rect x="647.48" y="400.74" width="2.28" height="16.47" fill="#d64545" opacity="0.55" />
<rect x="650.75" y="400.74" width="2.28" height="19.09" fill="#d64545" opacity="0.55" />
<rect x="654.02" y="400.74" width="2.28" height="20.04" fill="#d64545" opacity="0.55" />
<rect x="657.30" y="400.74" width="2.28" height="17.07" fill="#d64545" opacity="0.55" />
<rect x="660.57" y="400.74" width="2.28" height="14.94" fill="#d64545" opacity="0.55" />
<rect x="663.85" y="400.74" width="2.28" height="14.59" fill="#d64545" opacity="0.55" />
<rect x="667.12" y="400.74" width="2.28" height="16.93" fill="#d64545" opacity="0.55" />
<rect x="670.40" y="400.74" width="2.28" height="19.21" fill="#d64545" opacity="0.55" />
<rect x="673.67" y="400.74" width="2.28" height="12.18" fill="#d64545" opacity="0.55" />
<rect x="676.94" y="400.74" width="2.28" height="10.75" fill="#d64545" opacity="0.55" />
<rect x="680.22" y="400.74" width="2.28" height="5.35" fill="#d64545" opacity="0.55" />
<rect x="683.49" y="395.31" width="2.28" height="5.44" fill="#2f9e44" opacity="0.55" />
<rect x="686.77" y="388.46" width="2.28" height="12.29" fill="#2f9e44" opacity="0.55" />
<rect x="690.04" y="381.30" width="2.28" height="19.45" fill="#2f9e44" opacity="0.55" />
<rect x="693.31" y="378.71" width="2.28" height="22.03" fill="#2f9e44" opacity="0.55" />
<rect x="696.59" y="373.24" width="2.28" height="27.50" fill="#2f9e44" opacity="0.55" />
<rect x="699.86" y="369.48" width="2.28" height="31.26" fill="#2f9e44" opacity="0.55" />
<rect x="703.14" y="368.65" width="2.28" height="32.10" fill="#2f9e44" opacity="0.55" />
<rect x="706.41" y="374.51" width="2.28" height="26.23" fill="#2f9e44" opacity="0.55" />
<rect x="709.68" y="380.37" width="2.28" height="20.37" fill="#2f9e44" opacity="0.55" />
<rect x="712.96" y="383.59" width="2.28" height="17.16" fill="#2f9e44" opacity="0.55" />
<rect x="716.23" y="387.00" width="2.28" height="13.75" fill="#2f9e44" opacity="0.55" />
<rect x="719.51" y="388.01" width="2.28" height="12.73" fill="#2f9e44" opacity="0.55" />
<rect x="722.78" y="381.55" width="2.28" height="19.19" fill="#2f9e44" opacity="0.55" />
<rect x="726.06" y="372.78" width="2.28" height="27.97" fill="#2f9e44" opacity="0.55" />
<rect x="729.33" y="373.37" width="2.28" height="27.38" fill="#2f9e44" opacity="0.55" />
<rect x="732.60" y="378.67" width="2.28" height="22.08" fill="#2f9e44" opacity="0.55" />
<rect x="735.88" y="387.49" width="2.28" height="13.26" fill="#2f9e44" opacity="0.55" />
<rect x="739.15" y="383.43" width="2.28" height="17.31" fill="#2f9e44" opacity="0.55" />
<rect x="742.43" y="384.62" width="2.28" height="16.12" fill="#2f9e44" opacity="0.55" />
<rect x="745.70" y="387.10" width="2.28" height="13.64" fill="#2f9e44" opacity="0.55" />
<rect x="748.97" y="385.53" width="2.28" height="15.22" fill="#2f9e44" opacity="0.55" />
<rect x="752.25" y="387.87" width="2.28" height="12.87" fill="#2f9e44" opacity="0.55" />
<rect x="755.52" y="395.35" width="2.28" height="5.39" fill="#2f9e44" opacity="0.55" />
<rect x="758.80" y="399.73" width="2.28" height="1.01" fill="#2f9e44" opacity="0.55" />
<rect x="762.07" y="400.74" width="2.28" height="5.55" fill="#d64545" opacity="0.55" />
<rect x="765.34" y="400.74" width="2.28" height="6.39" fill="#d64545" opacity="0.55" />
<rect x="768.62" y="400.74" width="2.28" height="7.94" fill="#d64545" opacity="0.55" />
<rect x="771.89" y="400.74" width="2.28" height="11.43" fill="#d64545" opacity="0.55" />
<rect x="775.17" y="400.74" width="2.28" height="16.71" fill="#d64545" opacity="0.55" />
<rect x="778.44" y="400.74" width="2.28" height="21.61" fill="#d64545" opacity="0.55" />
<rect x="781.72" y="400.74" width="2.28" height="20.82" fill="#d64545" opacity="0.55" />
<rect x="784.99" y="400.74" width="2.28" height="18.04" fill="#d64545" opacity="0.55" />
<rect x="788.26" y="400.74" width="2.28" height="11.74" fill="#d64545" opacity="0.55" />
<rect x="791.54" y="400.74" width="2.28" height="11.06" fill="#d64545" opacity="0.55" />
<rect x="794.81" y="400.74" width="2.28" height="8.38" fill="#d64545" opacity="0.55" />
<rect x="798.09" y="400.74" width="2.28" height="7.32" fill="#d64545" opacity="0.55" />
<rect x="801.36" y="400.74" width="2.28" height="2.19" fill="#d64545" opacity="0.55" />
<rect x="804.63" y="400.25" width="2.28" height="0.49" fill="#2f9e44" opacity="0.55" />
<rect x="807.91" y="397.27" width="2.28" height="3.47" fill="#2f9e44" opacity="0.55" />
<rect x="811.18" y="392.68" width="2.28" height="8.06" fill="#2f9e44" opacity="0.55" />
<rect x="814.46" y="394.08" width="2.28" height="6.67" fill="#2f9e44" opacity="0.55" />
<rect x="817.73" y="397.58" width="2.28" height="3.16" fill="#2f9e44" opacity="0.55" />
<rect x="821.01" y="400.74" width="2.28" height="5.44" fill="#d64545" opacity="0.55" />
<rect x="824.28" y="400.74" width="2.28" height="10.45" fill="#d64545" opacity="0.55" />
<rect x="827.55" y="400.74" width="2.28" height="17.67" fill="#d64545" opacity="0.55" />
<rect x="830.83" y="400.74" width="2.28" height="21.81" fill="#d64545" opacity="0.55" />
<rect x="834.10" y="400.74" width="2.28" height="19.08" fill="#d64545" opacity="0.55" />
<rect x="837.38" y="400.74" width="2.28" height="11.74" fill="#d64545" opacity="0.55" />
<rect x="840.65" y="400.74" width="2.28" height="5.04" fill="#d64545" opacity="0.55" />
<rect x="843.92" y="400.74" width="2.28" height="2.27" fill="#d64545" opacity="0.55" />
<rect x="847.20" y="399.66" width="2.28" height="1.09" fill="#2f9e44" opacity="0.55" />
<rect x="850.47" y="390.16" width="2.28" height="10.58" fill="#2f9e44" opacity="0.55" />
<rect x="853.75" y="386.87" width="2.28" height="13.87" fill="#2f9e44" opacity="0.55" />
<rect x="857.02" y="394.02" width="2.28" height="6.72" fill="#2f9e44" opacity="0.55" />
<rect x="860.29" y="399.42" width="2.28" height="1.32" fill="#2f9e44" opacity="0.55" />
<rect x="863.57" y="400.74" width="2.28" height="6.67" fill="#d64545" opacity="0.55" />
<rect x="866.84" y="400.74" width="2.28" height="9.49" fill="#d64545" opacity="0.55" />
<rect x="870.12" y="400.74" width="2.28" height="8.12" fill="#d64545" opacity="0.55" />
<rect x="873.39" y="400.55" width="2.28" height="0.20" fill="#2f9e44" opacity="0.55" />
<rect x="876.67" y="399.03" width="2.28" height="1.71" fill="#2f9e44" opacity="0.55" />
<rect x="879.94" y="400.27" width="2.28" height="0.47" fill="#2f9e44" opacity="0.55" />
<rect x="883.21" y="400.40" width="2.28" height="0.34" fill="#2f9e44" opacity="0.55" />
<rect x="886.49" y="400.74" width="2.28" height="1.86" fill="#d64545" opacity="0.55" />
<rect x="889.76" y="400.74" width="2.28" height="1.67" fill="#d64545" opacity="0.55" />
<rect x="893.04" y="400.74" width="2.28" height="5.95" fill="#d64545" opacity="0.55" />
<rect x="896.31" y="400.74" width="2.28" height="8.81" fill="#d64545" opacity="0.55" />
<rect x="899.58" y="400.74" width="2.28" height="8.63" fill="#d64545" opacity="0.55" />
<rect x="902.86" y="400.74" width="2.28" height="10.11" fill="#d64545" opacity="0.55" />
<polyline fill="none" stroke="#1f77b4" stroke-width="2" points="137.85,371.24 141.13,371.48 144.40,372.00 147.68,373.71 150.95,373.41 154.22,372.99 157.50,375.42 160.77,376.15 164.05,379.45 167.32,376.89 170.59,375.65 173.87,374.47 177.14,373.85 180.42,371.71 183.69,372.81 186.97,373.50 190.24,374.35 193.51,374.83 196.79,380.40 200.06,383.52 203.34,387.64 206.61,387.58 209.88,387.20 213.16,385.58 216.43,387.43 219.71,389.03 222.98,389.92 226.25,391.24 229.53,392.38 232.80,393.36 236.08,392.26 239.35,391.50 242.63,389.04 245.90,384.80 249.17,380.20 252.45,374.86 255.72,371.47 259.00,366.19 262.27,363.93 265.54,360.60 268.82,360.43 272.09,357.79 275.37,351.80 278.64,347.66 281.92,346.99 285.19,349.04 288.46,350.74 291.74,350.68 295.01,347.27 298.29,341.77 301.56,334.69 304.83,331.86 308.11,327.97 311.38,328.21 314.66,328.24 317.93,325.16 321.20,321.63 324.48,323.22 327.75,322.40 331.03,322.64 334.30,325.69 337.58,329.92 340.85,331.09 344.12,333.29 347.40,332.84 350.67,333.25 353.95,334.84 357.22,335.85 360.49,337.87 363.77,344.60 367.04,350.02 370.32,355.33 373.59,358.54 376.86,362.52 380.14,365.09 383.41,368.98 386.69,375.34 389.96,379.14 393.24,386.30 396.51,393.05 399.78,392.53 403.06,399.10 406.33,405.25 409.61,406.08 412.88,404.22 416.15,403.21 419.43,401.89 422.70,403.80 425.98,403.30 429.25,400.91 432.53,399.52 435.80,396.98 439.07,391.58 442.35,388.94 445.62,384.54 448.90,384.24 452.17,383.21 455.44,385.56 458.72,389.05 461.99,392.41 465.27,395.14 468.54,397.35 471.81,395.66 475.09,391.93 478.36,388.61 481.64,384.67 484.91,379.79 488.19,377.20 491.46,372.47 494.73,365.64 498.01,352.30 501.28,338.95 504.56,332.15 507.83,326.62 511.10,323.62 514.38,321.17 517.65,318.18 520.93,316.78 524.20,318.61 527.47,316.05 530.75,313.03 534.02,310.19 537.30,312.45 540.57,313.25 543.85,313.89 547.12,316.86 550.39,317.68 553.67,315.32 556.94,315.92 560.22,320.32 563.49,325.67 566.76,327.27 570.04,330.83 573.31,336.40 576.59,340.01 579.86,340.08 583.14,334.41 586.41,327.27 589.68,324.00 592.96,315.89 596.23,305.58 599.51,300.55 602.78,299.73 606.05,304.18 609.33,315.68 612.60,322.21 615.88,329.20 619.15,343.38 622.42,351.21 625.70,349.02 628.97,353.32 632.25,359.21 635.52,366.27 638.80,369.12 642.07,368.25 645.34,373.38 648.62,378.71 651.89,386.10 655.17,392.06 658.44,393.36 661.71,394.96 664.99,398.26 668.26,404.83 671.54,411.92 674.81,407.93 678.08,409.19 681.36,405.12 684.63,392.98 687.91,383.06 691.18,371.03 694.46,362.94 697.73,350.60 701.00,339.02 704.28,330.16 707.55,329.47 710.83,330.23 714.10,329.16 717.37,329.14 720.65,326.96 723.92,315.71 727.20,299.94 730.47,293.69 733.75,293.47 737.02,298.98 740.29,290.59 743.57,287.75 746.84,286.82 750.12,281.44 753.39,280.57 756.66,286.70 759.94,290.83 763.21,298.77 766.49,301.21 769.76,304.75 773.03,311.10 776.31,320.55 779.58,330.85 782.86,335.27 786.13,337.00 789.41,333.63 792.68,335.72 795.95,335.13 799.23,335.91 802.50,331.32 805.78,328.51 809.05,324.67 812.32,318.06 815.60,317.79 818.87,320.50 822.15,330.47 825.42,338.09 828.69,349.73 831.97,359.32 835.24,361.36 838.52,356.95 841.79,351.52 845.07,349.31 848.34,345.68 851.61,333.55 854.89,326.79 858.16,332.26 861.44,337.33 864.71,346.98 867.98,352.18 871.26,352.84 874.53,344.47 877.81,342.53 881.08,343.65 884.36,343.70 887.63,346.36 890.90,346.59 894.18,352.35 897.45,357.42 900.73,359.40 904.00,363.41" />
<polyline fill="none" stroke="#ff7f0e" stroke-width="2" points="137.85,371.24 141.13,371.29 144.40,371.43 147.68,371.89 150.95,372.19 154.22,372.35 157.50,372.97 160.77,373.60 164.05,374.77 167.32,375.20 170.59,375.29 173.87,375.12 177.14,374.87 180.42,374.24 183.69,373.95 186.97,373.86 190.24,373.96 193.51,374.13 196.79,375.39 200.06,377.01 203.34,379.14 206.61,380.83 209.88,382.10 213.16,382.80 216.43,383.72 219.71,384.79 222.98,385.81 226.25,386.90 229.53,387.99 232.80,389.07 236.08,389.71 239.35,390.06 242.63,389.86 245.90,388.85 249.17,387.12 252.45,384.67 255.72,382.03 259.00,378.86 262.27,375.87 265.54,372.82 268.82,370.34 272.09,367.83 275.37,364.62 278.64,361.23 281.92,358.38 285.19,356.51 288.46,355.36 291.74,354.42 295.01,352.99 298.29,350.75 301.56,347.54 304.83,344.40 308.11,341.11 311.38,338.53 314.66,336.47 317.93,334.21 321.20,331.69 324.48,330.00 327.75,328.48 331.03,327.31 334.30,326.99 337.58,327.57 340.85,328.28 344.12,329.28 347.40,329.99 350.67,330.64 353.95,331.48 357.22,332.36 360.49,333.46 363.77,335.69 367.04,338.55 370.32,341.91 373.59,345.24 376.86,348.69 380.14,351.97 383.41,355.37 386.69,359.37 389.96,363.32 393.24,367.92 396.51,372.94 399.78,376.86 403.06,381.31 406.33,386.10 409.61,390.09 412.88,392.92 416.15,394.98 419.43,396.36 422.70,397.85 425.98,398.94 429.25,399.33 432.53,399.37 435.80,398.89 439.07,397.43 442.35,395.73 445.62,393.49 448.90,391.64 452.17,389.96 455.44,389.08 458.72,389.07 461.99,389.74 465.27,390.82 468.54,392.13 471.81,392.83 475.09,392.65 478.36,391.84 481.64,390.41 484.91,388.29 488.19,386.07 491.46,383.35 494.73,379.81 498.01,374.31 501.28,367.23 504.56,360.22 507.83,353.50 511.10,347.52 514.38,342.25 517.65,337.44 520.93,333.31 524.20,330.37 527.47,327.50 530.75,324.61 534.02,321.73 537.30,319.87 540.57,318.55 543.85,317.62 547.12,317.46 550.39,317.51 553.67,317.07 556.94,316.84 560.22,317.54 563.49,319.16 566.76,320.78 570.04,322.79 573.31,325.51 576.59,328.41 579.86,330.75 583.14,331.48 586.41,330.64 589.68,329.31 592.96,326.63 596.23,322.42 599.51,318.04 602.78,314.38 606.05,312.34 609.33,313.01 612.60,314.85 615.88,317.72 619.15,322.85 622.42,328.52 625.70,332.62 628.97,336.76 632.25,341.25 635.52,346.25 638.80,350.83 642.07,354.31 645.34,358.13 648.62,362.24 651.89,367.01 655.17,372.02 658.44,376.29 661.71,380.03 664.99,383.67 668.26,387.90 671.54,392.71 674.81,395.75 678.08,398.44 681.36,399.78 684.63,398.42 687.91,395.34 691.18,390.48 694.46,384.97 697.73,378.10 701.00,370.28 704.28,362.26 707.55,355.70 710.83,350.61 714.10,346.32 717.37,342.88 720.65,339.70 723.92,334.90 727.20,327.91 730.47,321.06 733.75,315.55 737.02,312.23 740.29,307.90 743.57,303.87 746.84,300.46 750.12,296.66 753.39,293.44 756.66,292.09 759.94,291.84 763.21,293.23 766.49,294.82 769.76,296.81 773.03,299.67 776.31,303.84 779.58,309.25 782.86,314.45 786.13,318.96 789.41,321.89 792.68,324.66 795.95,326.75 799.23,328.58 802.50,329.13 805.78,329.01 809.05,328.14 812.32,326.12 815.60,324.46 818.87,323.67 822.15,325.03 825.42,327.64 828.69,332.06 831.97,337.51 835.24,342.28 838.52,345.22 841.79,346.48 845.07,347.04 848.34,346.77 851.61,344.13 854.89,340.66 858.16,338.98 861.44,338.65 864.71,340.31 867.98,342.69 871.26,344.72 874.53,344.67 877.81,344.24 881.08,344.12 884.36,344.04 887.63,344.50 890.90,344.92 894.18,346.41 897.45,348.61 900.73,350.77 904.00,353.29" />
<text x="754.00" y="290.00" font-size="13" font-family="Arial" fill="#1f77b4" text-anchor="start">MACD</text>
<text x="818.00" y="290.00" font-size="13" font-family="Arial" fill="#ff7f0e" text-anchor="start">Signal</text>
<line x1="56" y1="624" x2="904" y2="624" stroke="#cbd2d9" />
<line x1="56" y1="484" x2="56" y2="624" stroke="#cbd2d9" />
<text x="16.00" y="476.00" font-size="12" font-family="Arial" fill="#52606d" text-anchor="start">KD</text>
<line x1="56" y1="624.00" x2="904" y2="624.00" stroke="#edf2f7" />
<line x1="52" y1="624.00" x2="56" y2="624.00" stroke="#9fb3c8" />
<text x="48.00" y="628.00" font-size="11" font-family="Arial" fill="#52606d" text-anchor="end">-5.00</text>
<line x1="56" y1="577.33" x2="904" y2="577.33" stroke="#edf2f7" />
<line x1="52" y1="577.33" x2="56" y2="577.33" stroke="#9fb3c8" />
<text x="48.00" y="581.33" font-size="11" font-family="Arial" fill="#52606d" text-anchor="end">31.7</text>
<line x1="56" y1="530.67" x2="904" y2="530.67" stroke="#edf2f7" />
<line x1="52" y1="530.67" x2="56" y2="530.67" stroke="#9fb3c8" />
<text x="48.00" y="534.67" font-size="11" font-family="Arial" fill="#52606d" text-anchor="end">68.3</text>
<line x1="56" y1="484.00" x2="904" y2="484.00" stroke="#edf2f7" />
<line x1="52" y1="484.00" x2="56" y2="484.00" stroke="#9fb3c8" />
<text x="48.00" y="488.00" font-size="11" font-family="Arial" fill="#52606d" text-anchor="end">105</text>
<line x1="56.00" y1="624" x2="56.00" y2="628" stroke="#9fb3c8" />
<text x="56.00" y="642.00" font-size="11" font-family="Arial" fill="#52606d" text-anchor="middle">06/19</text>
<line x1="226.25" y1="624" x2="226.25" y2="628" stroke="#9fb3c8" />
<text x="226.25" y="642.00" font-size="11" font-family="Arial" fill="#52606d" text-anchor="middle">09/02</text>
<line x1="396.51" y1="624" x2="396.51" y2="628" stroke="#9fb3c8" />
<text x="396.51" y="642.00" font-size="11" font-family="Arial" fill="#52606d" text-anchor="middle">11/19</text>
<line x1="563.49" y1="624" x2="563.49" y2="628" stroke="#9fb3c8" />
<text x="563.49" y="642.00" font-size="11" font-family="Arial" fill="#52606d" text-anchor="middle">02/02</text>
<line x1="733.75" y1="624" x2="733.75" y2="628" stroke="#9fb3c8" />
<text x="733.75" y="642.00" font-size="11" font-family="Arial" fill="#52606d" text-anchor="middle">04/29</text>
<line x1="904.00" y1="624" x2="904.00" y2="628" stroke="#9fb3c8" />
<text x="904.00" y="642.00" font-size="11" font-family="Arial" fill="#52606d" text-anchor="middle">07/14</text>
<line x1="56" y1="592.18" x2="904" y2="592.18" stroke="#f0b429" stroke-dasharray="5 5" />
<text x="912.00" y="596.18" font-size="10" font-family="Arial" fill="#8d2b0b" text-anchor="start">20.0</text>
<line x1="56" y1="515.82" x2="904" y2="515.82" stroke="#f0b429" stroke-dasharray="5 5" />
<text x="912.00" y="519.82" font-size="10" font-family="Arial" fill="#8d2b0b" text-anchor="start">80.0</text>
<polyline fill="none" stroke="#2ca02c" stroke-width="2" points="82.19,545.66 85.47,540.10 88.74,537.35 92.02,544.06 95.29,559.43 98.56,573.37 101.84,573.36 105.11,564.05 108.39,560.14 111.66,562.76 114.93,555.26 118.21,543.33 121.48,537.71 124.76,530.95 128.03,528.64 131.31,541.26 134.58,541.30 137.85,541.32 141.13,542.56 144.40,553.50 147.68,570.10 150.95,568.00 154.22,563.61 157.50,586.84 160.77,586.64 164.05,612.67 167.32,583.87 170.59,570.70 173.87,562.42 177.14,556.90 180.42,543.65 183.69,548.77 186.97,549.40 190.24,549.81 193.51,558.83 196.79,588.18 200.06,598.08 203.34,614.34 206.61,602.64 209.88,588.71 213.16,568.00 216.43,577.03 219.71,583.05 222.98,583.26 226.25,587.21 229.53,589.84 232.80,599.35 236.08,587.08 239.35,580.74 242.63,562.79 245.90,549.19 249.17,542.97 252.45,531.55 255.72,525.76 259.00,519.66 262.27,521.57 265.54,515.95 268.82,522.97 272.09,518.42 275.37,514.05 278.64,517.20 281.92,527.31 285.19,544.90 288.46,555.95 291.74,553.98 295.01,539.87 298.29,527.58 301.56,521.74 304.83,523.45 308.11,519.91 311.38,524.12 314.66,526.04 317.93,518.24 321.20,516.12 324.48,526.58 327.75,526.07 331.03,527.14 334.30,535.49 337.58,544.88 340.85,544.54 344.12,548.30 347.40,541.64 350.67,538.95 353.95,541.05 357.22,537.78 360.49,537.93 363.77,559.05 367.04,580.69 370.32,598.12 373.59,600.74 376.86,608.48 380.14,607.64 383.41,616.09 386.69,620.07 389.96,615.20 393.24,622.11 396.51,626.07 399.78,603.49 403.06,613.12 406.33,619.51 409.61,606.84 412.88,584.61 416.15,572.27 419.43,561.57 422.70,569.27 425.98,564.51 429.25,549.53 432.53,542.16 435.80,535.26 439.07,527.17 442.35,530.75 445.62,523.48 448.90,534.13 452.17,539.07 455.44,559.55 458.72,578.19 461.99,592.96 465.27,598.41 468.54,602.03 471.81,589.69 475.09,570.92 478.36,550.97 481.64,534.75 484.91,523.29 488.19,519.31 491.46,512.54 494.73,507.71 498.01,508.09 501.28,504.00 504.56,507.15 507.83,507.60 511.10,509.45 514.38,508.52 517.65,506.63 520.93,506.08 524.20,518.69 527.47,517.44 530.75,518.73 534.02,514.53 537.30,523.54 540.57,525.37 543.85,522.38 547.12,528.01 550.39,521.73 553.67,515.42 556.94,522.75 560.22,543.43 563.49,561.65 566.76,559.40 570.04,564.92 573.31,577.98 576.59,578.03 579.86,562.52 583.14,541.83 586.41,529.56 589.68,526.55 592.96,518.39 596.23,512.31 599.51,511.21 602.78,513.44 606.05,526.24 609.33,553.50 612.60,568.57 615.88,581.26 619.15,588.51 622.42,586.72 625.70,569.00 628.97,565.63 632.25,566.00 635.52,568.90 638.80,563.93 642.07,551.21 645.34,555.65 648.62,574.51 651.89,583.70 655.17,588.42 658.44,579.46 661.71,575.18 664.99,579.10 668.26,593.49 671.54,603.19 674.81,574.78 678.08,572.40 681.36,552.41 684.63,532.89 687.91,519.85 691.18,510.96 694.46,506.80 697.73,502.11 701.00,501.86 704.28,500.99 707.55,509.52 710.83,522.62 714.10,525.71 717.37,532.02 720.65,534.19 723.92,522.13 727.20,521.42 730.47,527.88 733.75,537.05 737.02,549.40 740.29,538.65 743.57,535.14 746.84,533.48 750.12,526.38 753.39,526.72 756.66,538.02 759.94,541.53 763.21,550.92 766.49,553.66 769.76,558.63 773.03,569.50 776.31,587.32 779.58,599.19 782.86,593.50 786.13,582.15 789.41,557.96 792.68,553.93 795.95,543.31 799.23,542.90 802.50,531.25 805.78,529.84 809.05,525.91 812.32,518.30 815.60,524.29 818.87,533.27 822.15,549.50 825.42,558.30 828.69,574.24 831.97,581.33 835.24,574.98 838.52,558.77 841.79,539.07 845.07,527.19 848.34,515.95 851.61,507.42 854.89,507.61 858.16,520.79 861.44,535.75 864.71,560.02 867.98,570.13 871.26,568.80 874.53,548.71 877.81,543.40 881.08,543.91 884.36,536.66 887.63,536.55 890.90,530.58 894.18,538.99 897.45,562.98 900.73,569.41 904.00,573.92" />
<polyline fill="none" stroke="#d62728" stroke-width="2" points="82.19,551.22 85.47,547.51 88.74,544.13 92.02,544.10 95.29,549.21 98.56,557.26 101.84,562.63 105.11,563.10 108.39,562.11 111.66,562.33 114.93,559.97 118.21,554.43 121.48,548.85 124.76,542.89 128.03,538.14 131.31,539.18 134.58,539.88 137.85,540.36 141.13,541.10 144.40,545.23 147.68,553.52 150.95,558.35 154.22,560.10 157.50,569.01 160.77,574.89 164.05,587.48 167.32,586.28 170.59,581.09 173.87,574.86 177.14,568.88 180.42,560.47 183.69,556.57 186.97,554.18 190.24,552.72 193.51,554.76 196.79,565.90 200.06,576.63 203.34,589.20 206.61,593.68 209.88,592.02 213.16,584.02 216.43,581.69 219.71,582.14 222.98,582.52 226.25,584.08 229.53,586.00 232.80,590.45 236.08,589.32 239.35,586.46 242.63,578.57 245.90,568.78 249.17,560.18 252.45,550.63 255.72,542.34 259.00,534.78 262.27,530.38 265.54,525.57 268.82,524.70 272.09,522.61 275.37,519.75 278.64,518.90 281.92,521.71 285.19,529.44 288.46,538.28 291.74,543.51 295.01,542.30 298.29,537.39 301.56,532.17 304.83,529.27 308.11,526.15 311.38,525.47 314.66,525.66 317.93,523.19 321.20,520.83 324.48,522.75 327.75,523.85 331.03,524.95 334.30,528.46 337.58,533.94 340.85,537.47 344.12,541.08 347.40,541.27 350.67,540.50 353.95,540.68 357.22,539.71 360.49,539.12 363.77,545.76 367.04,557.41 370.32,570.98 373.59,580.90 376.86,590.09 380.14,595.94 383.41,602.66 386.69,608.46 389.96,610.71 393.24,614.51 396.51,618.36 399.78,613.40 403.06,613.31 406.33,615.38 409.61,612.53 412.88,603.22 416.15,592.91 419.43,582.46 422.70,578.06 425.98,573.54 429.25,565.54 432.53,557.75 435.80,550.25 439.07,542.56 442.35,538.62 445.62,533.57 448.90,533.76 452.17,535.53 455.44,543.54 458.72,555.09 461.99,567.71 465.27,577.94 468.54,585.97 471.81,587.21 475.09,581.78 478.36,571.51 481.64,559.26 484.91,547.27 488.19,537.95 491.46,529.48 494.73,522.22 498.01,517.51 501.28,513.01 504.56,511.05 507.83,509.90 511.10,509.75 514.38,509.34 517.65,508.44 520.93,507.65 524.20,511.33 527.47,513.37 530.75,515.16 534.02,514.95 537.30,517.81 540.57,520.33 543.85,521.01 547.12,523.35 550.39,522.81 553.67,520.35 556.94,521.15 560.22,528.57 563.49,539.60 566.76,546.20 570.04,552.44 573.31,560.95 576.59,566.64 579.86,565.27 583.14,557.46 586.41,548.16 589.68,540.96 592.96,533.43 596.23,526.39 599.51,521.33 602.78,518.70 606.05,521.21 609.33,531.97 612.60,544.17 615.88,556.53 619.15,567.19 622.42,573.70 625.70,572.14 628.97,569.97 632.25,568.64 635.52,568.73 638.80,567.13 642.07,561.82 645.34,559.76 648.62,564.68 651.89,571.02 655.17,576.82 658.44,577.70 661.71,576.86 664.99,577.61 668.26,582.90 671.54,589.67 674.81,584.70 678.08,580.60 681.36,571.21 684.63,558.43 687.91,545.57 691.18,534.03 694.46,524.95 697.73,517.34 701.00,512.18 704.28,508.45 707.55,508.80 710.83,513.41 714.10,517.51 717.37,522.35 720.65,526.29 723.92,524.91 727.20,523.74 730.47,525.12 733.75,529.10 737.02,535.87 740.29,536.79 743.57,536.24 746.84,535.32 750.12,532.34 753.39,530.47 756.66,532.98 759.94,535.83 763.21,540.86 766.49,545.13 769.76,549.63 773.03,556.25 776.31,566.61 779.58,577.47 782.86,582.81 786.13,582.59 789.41,574.38 792.68,567.56 795.95,559.48 799.23,553.95 802.50,546.38 805.78,540.87 809.05,535.89 812.32,530.02 815.60,528.11 818.87,529.83 822.15,536.39 825.42,543.69 828.69,553.87 831.97,563.02 835.24,567.01 838.52,564.26 841.79,555.87 845.07,546.31 848.34,536.19 851.61,526.60 854.89,520.27 858.16,520.44 861.44,525.55 864.71,537.04 867.98,548.07 871.26,554.98 874.53,552.89 877.81,549.73 881.08,547.79 884.36,544.08 887.63,541.57 890.90,537.91 894.18,538.27 897.45,546.51 900.73,554.14 904.00,560.73" />
<text x="824.00" y="502.00" font-size="13" font-family="Arial" fill="#2ca02c" text-anchor="start">K</text>
<text x="860.00" y="502.00" font-size="13" font-family="Arial" fill="#d62728" text-anchor="start">D</text>
</svg>