<svg xmlns="http://www.w3.org/2000/svg" width="960" height="680" viewBox="0 0 960 680"><rect width="100%" height="100%" fill="white" />
<text x="56.00" y="32.00" font-size="20" font-family="Arial" fill="#1f2933" text-anchor="start">技嘉(2376) Technical Indicators</text>
<line x1="56" y1="220" x2="904" y2="220" stroke="#cbd2d9" />
<line x1="56" y1="58" x2="56" y2="220" stroke="#cbd2d9" />
<text x="16.00" y="50.00" font-size="12" font-family="Arial" fill="#52606d" text-anchor="start">RSI14</text>
<line x1="56" y1="220.00" x2="904" y2="220.00" stroke="#edf2f7" />
<line x1="52" y1="220.00" x2="56" y2="220.00" stroke="#9fb3c8" />
<text x="48.00" y="224.00" font-size="11" font-family="Arial" fill="#52606d" text-anchor="end">-5.00</text>
<line x1="56" y1="166.00" x2="904" y2="166.00" stroke="#edf2f7" />
<line x1="52" y1="166.00" x2="56" y2="166.00" stroke="#9fb3c8" />
<text x="48.00" y="170.00" font-size="11" font-family="Arial" fill="#52606d" text-anchor="end">31.7</text>
<line x1="56" y1="112.00" x2="904" y2="112.00" stroke="#edf2f7" />
<line x1="52" y1="112.00" x2="56" y2="112.00" stroke="#9fb3c8" />
<text x="48.00" y="116.00" font-size="11" font-family="Arial" fill="#52606d" text-anchor="end">68.3</text>
<line x1="56" y1="58.00" x2="904" y2="58.00" stroke="#edf2f7" />
<line x1="52" y1="58.00" x2="56" y2="58.00" stroke="#9fb3c8" />
<text x="48.00" y="62.00" font-size="11" font-family="Arial" fill="#52606d" text-anchor="end">105</text>
<line x1="56" y1="168.45" x2="904" y2="168.45" stroke="#f0b429" stroke-dasharray="5 5" />
<text x="912.00" y="172.45" font-size="10" font-family="Arial" fill="#8d2b0b" text-anchor="start">30.0</text>
<line x1="56" y1="109.55" x2="904" y2="109.55" stroke="#f0b429" stroke-dasharray="5 5" />
<text x="912.00" y="113.55" font-size="10" font-family="Arial" fill="#8d2b0b" text-anchor="start">70.0</text>
<polyline fill="none" stroke="#1f77b4" stroke-width="2" points="101.84,147.66 105.11,139.45 108.39,149.19 111.66,157.14 114.93,161.94 118.21,162.60 121.48,158.65 124.76,147.82 128.03,148.71 131.31,142.99 134.58,150.36 137.85,136.23 141.13,134.46 144.40,130.11 147.68,126.00 150.95,124.39 154.22,144.80 157.50,132.13 160.77,128.73 164.05,133.91 167.32,131.70 170.59,142.27 173.87,148.07 177.14,137.65 180.42,139.93 183.69,133.27 186.97,133.27 190.24,124.43 193.51,122.58 196.79,118.41 200.06,126.17 203.34,124.21 206.61,133.38 209.88,138.35 213.16,133.73 216.43,130.76 219.71,150.97 222.98,147.09 226.25,148.96 229.53,139.16 232.80,135.10 236.08,129.99 239.35,135.32 242.63,141.02 245.90,153.35 249.17,156.34 252.45,155.52 255.72,153.82 259.00,147.15 262.27,138.94 265.54,126.85 268.82,136.90 272.09,140.54 275.37,140.54 278.64,143.74 281.92,136.90 285.19,145.14 288.46,137.95 291.74,130.47 295.01,131.85 298.29,129.53 301.56,136.66 304.83,121.18 308.11,121.18 311.38,116.08 314.66,124.74 317.93,119.51 321.20,110.57 324.48,111.29 327.75,117.78 331.03,127.56 334.30,138.53 337.58,146.76 340.85,147.63 344.12,143.23 347.40,147.45 350.67,140.35 353.95,137.26 357.22,143.41 360.49,145.85 363.77,139.64 367.04,137.99 370.32,140.29 373.59,143.73 376.86,144.88 380.14,148.91 383.41,158.75 386.69,158.75 389.96,142.80 393.24,150.28 396.51,144.21 399.78,145.25 403.06,149.38 406.33,150.41 409.61,149.67 412.88,163.08 416.15,169.84 419.43,173.58 422.70,161.74 425.98,167.10 429.25,161.94 432.53,162.62 435.80,157.93 439.07,156.57 442.35,159.50 445.62,159.93 448.90,160.82 452.17,155.87 455.44,156.40 458.72,156.95 461.99,153.23 465.27,156.89 468.54,153.95 471.81,155.27 475.09,160.92 478.36,165.37 481.64,164.22 484.91,163.02 488.19,160.52 491.46,157.97 494.73,159.50 498.01,163.92 501.28,164.63 504.56,164.63 507.83,150.18 511.10,134.03 514.38,128.03 517.65,115.29 520.93,134.98 524.20,139.34 527.47,139.34 530.75,139.34 534.02,147.00 537.30,153.04 540.57,153.04 543.85,134.25 547.12,137.28 550.39,135.10 553.67,144.69 556.94,147.36 560.22,149.37 563.49,144.97 566.76,145.72 570.04,139.49 573.31,141.20 576.59,142.08 579.86,147.31 583.14,154.30 586.41,161.50 589.68,160.36 592.96,157.97 596.23,162.07 599.51,158.32 602.78,163.14 606.05,156.89 609.33,149.90 612.60,153.93 615.88,151.55 619.15,137.03 622.42,129.54 625.70,135.34 628.97,147.56 632.25,164.09 635.52,157.38 638.80,155.73 642.07,159.82 645.34,149.99 648.62,135.57 651.89,140.39 655.17,134.56 658.44,130.74 661.71,120.04 664.99,118.81 668.26,121.74 671.54,120.81 674.81,141.19 678.08,138.46 681.36,139.59 684.63,140.19 687.91,138.27 691.18,146.77 694.46,152.57 697.73,140.29 701.00,144.63 704.28,150.18 707.55,128.11 710.83,123.31 714.10,115.94 717.37,115.05 720.65,115.67 723.92,106.97 727.20,105.99 730.47,105.74 733.75,109.23 737.02,104.06 740.29,108.91 743.57,121.46 746.84,119.35 750.12,114.69 753.39,119.04 756.66,129.29 759.94,128.88 763.21,123.95 766.49,123.54 769.76,109.43 773.03,105.52 776.31,102.02 779.58,99.06 782.86,103.49 786.13,112.51 789.41,106.00 792.68,106.59 795.95,104.73 799.23,130.23 802.50,132.62 805.78,123.78 809.05,120.55 812.32,113.82 815.60,114.28 818.87,117.62 822.15,115.02 825.42,102.20 828.69,97.52 831.97,96.64 835.24,94.55 838.52,115.18 841.79,118.72 845.07,133.54 848.34,127.39 851.61,135.19 854.89,137.48 858.16,136.47 861.44,132.67 864.71,133.58 867.98,133.90 871.26,136.25 874.53,139.27 877.81,145.04 881.08,139.14 884.36,142.43 887.63,151.05 890.90,146.96 894.18,134.65 897.45,138.76 900.73,138.12 904.00,138.12" />
<text x="808.00" y="76.00" font-size="13" font-family="Arial" fill="#1f77b4" text-anchor="start">RSI14</text>
<line x1="56" y1="432" x2="904" y2="432" stroke="#cbd2d9" />
<line x1="56" y1="272" x2="56" y2="432" stroke="#cbd2d9" />
<text x="16.00" y="264.00" font-size="12" font-family="Arial" fill="#52606d" text-anchor="start">MACD</text>
<line x1="56" y1="432.00" x2="904" y2="432.00" stroke="#edf2f7" />
<line x1="52" y1="432.00" x2="56" y2="432.00" stroke="#9fb3c8" />
<text x="48.00" y="436.00" font-size="11" font-family="Arial" fill="#52606d" text-anchor="end">-12.9</text>
<line x1="56" y1="378.67" x2="904" y2="378.67" stroke="#edf2f7" />
<line x1="52" y1="378.67" x2="56" y2="378.67" stroke="#9fb3c8" />
<text x="48.00" y="382.67" font-size="11" font-family="Arial" fill="#52606d" text-anchor="end">0.85</text>
<line x1="56" y1="325.33" x2="904" y2="325.33" stroke="#edf2f7" />
<line x1="52" y1="325.33" x2="56" y2="325.33" stroke="#9fb3c8" />
<text x="48.00" y="329.33" font-size="11" font-family="Arial" fill="#52606d" text-anchor="end">14.6</text>
<line x1="56" y1="272.00" x2="904" y2="272.00" stroke="#edf2f7" />
<line x1="52" y1="272.00" x2="56" y2="272.00" stroke="#9fb3c8" />
<text x="48.00" y="276.00" font-size="11" font-family="Arial" fill="#52606d" text-anchor="end">28.3</text>
<line x1="56" y1="381.97" x2="904" y2="381.97" stroke="#9fb3c8" stroke-dasharray="4 4" />
<rect x="136.71" y="381.97" width="2.28" height="0.00" fill="#2f9e44" opacity="0.55" />
<rect x="139.99" y="380.37" width="2.28" height="1.60" fill="#2f9e44" opacity="0.55" />
<rect x="143.26" y="378.81" width="2.28" height="3.17" fill="#2f9e44" opacity="0.55" />
<rect x="146.53" y="377.35" width="2.28" height="4.62" fill="#2f9e44" opacity="0.55" />
<rect x="149.81" y="376.41" width="2.28" height="5.57" fill="#2f9e44" opacity="0.55" />
<rect x="153.08" y="378.60" width="2.28" height="3.37" fill="#2f9e44" opacity="0.55" />
<rect x="156.36" y="378.23" width="2.28" height="3.74" fill="#2f9e44" opacity="0.55" />
<rect x="159.63" y="377.59" width="2.28" height="4.38" fill="#2f9e44" opacity="0.55" />
<rect x="162.90" y="378.15" width="2.28" height="3.83" fill="#2f9e44" opacity="0.55" />
<rect x="166.18" y="378.35" width="2.28" height="3.62" fill="#2f9e44" opacity="0.55" />
<rect x="169.45" y="380.25" width="2.28" height="1.72" fill="#2f9e44" opacity="0.55" />
<rect x="172.73" y="381.97" width="2.28" height="0.57" fill="#d64545" opacity="0.55" />
<rect x="176.00" y="381.97" width="2.28" height="0.40" fill="#d64545" opacity="0.55" />
<rect x="179.28" y="381.97" width="2.28" height="0.67" fill="#d64545" opacity="0.55" />
<rect x="182.55" y="381.68" width="2.28" height="0.29" fill="#2f9e44" opacity="0.55" />
<rect x="185.82" y="381.12" width="2.28" height="0.85" fill="#2f9e44" opacity="0.55" />
<rect x="189.10" y="379.23" width="2.28" height="2.74" fill="#2f9e44" opacity="0.55" />
<rect x="192.37" y="377.85" width="2.28" height="4.12" fill="#2f9e44" opacity="0.55" />
<rect x="195.65" y="376.38" width="2.28" height="5.60" fill="#2f9e44" opacity="0.55" />
<rect x="198.92" y="376.79" width="2.28" height="5.18" fill="#2f9e44" opacity="0.55" />
<rect x="202.19" y="377.02" width="2.28" height="4.95" fill="#2f9e44" opacity="0.55" />
<rect x="205.47" y="378.74" width="2.28" height="3.23" fill="#2f9e44" opacity="0.55" />
<rect x="208.74" y="380.82" width="2.28" height="1.15" fill="#2f9e44" opacity="0.55" />
<rect x="212.02" y="381.53" width="2.28" height="0.45" fill="#2f9e44" opacity="0.55" />
<rect x="215.29" y="381.59" width="2.28" height="0.39" fill="#2f9e44" opacity="0.55" />
<rect x="218.57" y="381.97" width="2.28" height="3.23" fill="#d64545" opacity="0.55" />
<rect x="221.84" y="381.97" width="2.28" height="4.80" fill="#d64545" opacity="0.55" />
<rect x="225.11" y="381.97" width="2.28" height="5.97" fill="#d64545" opacity="0.55" />
<rect x="228.39" y="381.97" width="2.28" height="4.84" fill="#d64545" opacity="0.55" />
<rect x="231.66" y="381.97" width="2.28" height="3.18" fill="#d64545" opacity="0.55" />
<rect x="234.94" y="381.97" width="2.28" height="1.02" fill="#d64545" opacity="0.55" />
<rect x="238.21" y="381.97" width="2.28" height="0.52" fill="#d64545" opacity="0.55" />
<rect x="241.48" y="381.97" width="2.28" height="1.21" fill="#d64545" opacity="0.55" />
<rect x="244.76" y="381.97" width="2.28" height="4.21" fill="#d64545" opacity="0.55" />
<rect x="248.03" y="381.97" width="2.28" height="6.64" fill="#d64545" opacity="0.55" />
<rect x="251.31" y="381.97" width="2.28" height="7.70" fill="#d64545" opacity="0.55" />
<rect x="254.58" y="381.97" width="2.28" height="7.71" fill="#d64545" opacity="0.55" />
<rect x="257.85" y="381.97" width="2.28" height="6.29" fill="#d64545" opacity="0.55" />
<rect x="261.13" y="381.97" width="2.28" height="3.67" fill="#d64545" opacity="0.55" />
<rect x="264.40" y="381.28" width="2.28" height="0.70" fill="#2f9e44" opacity="0.55" />
<rect x="267.68" y="380.39" width="2.28" height="1.58" fill="#2f9e44" opacity="0.55" />
<rect x="270.95" y="380.62" width="2.28" height="1.36" fill="#2f9e44" opacity="0.55" />
<rect x="274.23" y="380.79" width="2.28" height="1.18" fill="#2f9e44" opacity="0.55" />
<rect x="277.50" y="381.54" width="2.28" height="0.43" fill="#2f9e44" opacity="0.55" />
<rect x="280.77" y="380.76" width="2.28" height="1.21" fill="#2f9e44" opacity="0.55" />
<rect x="284.05" y="381.91" width="2.28" height="0.06" fill="#2f9e44" opacity="0.55" />
<rect x="287.32" y="381.24" width="2.28" height="0.73" fill="#2f9e44" opacity="0.55" />
<rect x="290.60" y="379.21" width="2.28" height="2.76" fill="#2f9e44" opacity="0.55" />
<rect x="293.87" y="378.31" width="2.28" height="3.66" fill="#2f9e44" opacity="0.55" />
<rect x="297.14" y="377.42" width="2.28" height="4.55" fill="#2f9e44" opacity="0.55" />
<rect x="300.42" y="378.34" width="2.28" height="3.64" fill="#2f9e44" opacity="0.55" />
<rect x="303.69" y="375.38" width="2.28" height="6.59" fill="#2f9e44" opacity="0.55" />
<rect x="306.97" y="373.89" width="2.28" height="8.08" fill="#2f9e44" opacity="0.55" />
<rect x="310.24" y="371.93" width="2.28" height="10.04" fill="#2f9e44" opacity="0.55" />
<rect x="313.51" y="372.77" width="2.28" height="9.20" fill="#2f9e44" opacity="0.55" />
<rect x="316.79" y="372.37" width="2.28" height="9.60" fill="#2f9e44" opacity="0.55" />
<rect x="320.06" y="369.63" width="2.28" height="12.35" fill="#2f9e44" opacity="0.55" />
<rect x="323.34" y="368.80" width="2.28" height="13.17" fill="#2f9e44" opacity="0.55" />
<rect x="326.61" y="370.25" width="2.28" height="11.72" fill="#2f9e44" opacity="0.55" />
<rect x="329.89" y="373.82" width="2.28" height="8.15" fill="#2f9e44" opacity="0.55" />
<rect x="333.16" y="379.17" width="2.28" height="2.80" fill="#2f9e44" opacity="0.55" />
<rect x="336.43" y="381.97" width="2.28" height="3.14" fill="#d64545" opacity="0.55" />
<rect x="339.71" y="381.97" width="2.28" height="7.15" fill="#d64545" opacity="0.55" />
<rect x="342.98" y="381.97" width="2.28" height="8.48" fill="#d64545" opacity="0.55" />
<rect x="346.26" y="381.97" width="2.28" height="10.15" fill="#d64545" opacity="0.55" />
<rect x="349.53" y="381.97" width="2.28" height="9.20" fill="#d64545" opacity="0.55" />
<rect x="352.80" y="381.97" width="2.28" height="7.51" fill="#d64545" opacity="0.55" />
<rect x="356.08" y="381.97" width="2.28" height="7.64" fill="#d64545" opacity="0.55" />
<rect x="359.35" y="381.97" width="2.28" height="8.04" fill="#d64545" opacity="0.55" />
<rect x="362.63" y="381.97" width="2.28" height="6.57" fill="#d64545" opacity="0.55" />
<rect x="365.90" y="381.97" width="2.28" height="4.99" fill="#d64545" opacity="0.55" />
<rect x="369.18" y="381.97" width="2.28" height="4.27" fill="#d64545" opacity="0.55" />
<rect x="372.45" y="381.97" width="2.28" height="4.38" fill="#d64545" opacity="0.55" />
<rect x="375.72" y="381.97" width="2.28" height="4.49" fill="#d64545" opacity="0.55" />
<rect x="379.00" y="381.97" width="2.28" height="5.21" fill="#d64545" opacity="0.55" />
<rect x="382.27" y="381.97" width="2.28" height="7.87" fill="#d64545" opacity="0.55" />
<rect x="385.55" y="381.97" width="2.28" height="9.10" fill="#d64545" opacity="0.55" />
<rect x="388.82" y="381.97" width="2.28" height="6.51" fill="#d64545" opacity="0.55" />
<rect x="392.09" y="381.97" width="2.28" height="6.36" fill="#d64545" opacity="0.55" />
<rect x="395.37" y="381.97" width="2.28" height="4.62" fill="#d64545" opacity="0.55" />
<rect x="398.64" y="381.97" width="2.28" height="3.46" fill="#d64545" opacity="0.55" />
<rect x="401.92" y="381.97" width="2.28" height="3.46" fill="#d64545" opacity="0.55" />
<rect x="405.19" y="381.97" width="2.28" height="3.44" fill="#d64545" opacity="0.55" />
<rect x="408.46" y="381.97" width="2.28" height="3.02" fill="#d64545" opacity="0.55" />
<rect x="411.74" y="381.97" width="2.28" height="6.08" fill="#d64545" opacity="0.55" />
<rect x="415.01" y="381.97" width="2.28" height="10.05" fill="#d64545" opacity="0.55" />
<rect x="418.29" y="381.97" width="2.28" height="13.47" fill="#d64545" opacity="0.55" />
<rect x="421.56" y="381.97" width="2.28" height="12.63" fill="#d64545" opacity="0.55" />
<rect x="424.84" y="381.97" width="2.28" height="13.35" fill="#d64545" opacity="0.55" />
<rect x="428.11" y="381.97" width="2.28" height="11.87" fill="#d64545" opacity="0.55" />
<rect x="431.38" y="381.97" width="2.28" height="10.31" fill="#d64545" opacity="0.55" />
<rect x="434.66" y="381.97" width="2.28" height="7.64" fill="#d64545" opacity="0.55" />
<rect x="437.93" y="381.97" width="2.28" height="5.02" fill="#d64545" opacity="0.55" />
<rect x="441.21" y="381.97" width="2.28" height="3.66" fill="#d64545" opacity="0.55" />
<rect x="444.48" y="381.97" width="2.28" height="2.43" fill="#d64545" opacity="0.55" />
<rect x="447.75" y="381.97" width="2.28" height="1.45" fill="#d64545" opacity="0.55" />
<rect x="451.03" y="381.66" width="2.28" height="0.32" fill="#2f9e44" opacity="0.55" />
<rect x="454.30" y="380.36" width="2.28" height="1.61" fill="#2f9e44" opacity="0.55" />
<rect x="457.58" y="379.43" width="2.28" height="2.54" fill="#2f9e44" opacity="0.55" />
<rect x="460.85" y="378.17" width="2.28" height="3.81" fill="#2f9e44" opacity="0.55" />
<rect x="464.12" y="378.01" width="2.28" height="3.97" fill="#2f9e44" opacity="0.55" />
<rect x="467.40" y="377.44" width="2.28" height="4.53" fill="#2f9e44" opacity="0.55" />
<rect x="470.67" y="377.28" width="2.28" height="4.69" fill="#2f9e44" opacity="0.55" />
<rect x="473.95" y="378.26" width="2.28" height="3.71" fill="#2f9e44" opacity="0.55" />
<rect x="477.22" y="379.79" width="2.28" height="2.19" fill="#2f9e44" opacity="0.55" />
<rect x="480.50" y="380.47" width="2.28" height="1.51" fill="#2f9e44" opacity="0.55" />
<rect x="483.77" y="380.59" width="2.28" height="1.39" fill="#2f9e44" opacity="0.55" />
<rect x="487.04" y="380.22" width="2.28" height="1.75" fill="#2f9e44" opacity="0.55" />
<rect x="490.32" y="379.58" width="2.28" height="2.39" fill="#2f9e44" opacity="0.55" />
<rect x="493.59" y="379.30" width="2.28" height="2.67" fill="#2f9e44" opacity="0.55" />
<rect x="496.87" y="379.77" width="2.28" height="2.21" fill="#2f9e44" opacity="0.55" />
<rect x="500.14" y="380.06" width="2.28" height="1.92" fill="#2f9e44" opacity="0.55" />
<rect x="503.41" y="380.10" width="2.28" height="1.87" fill="#2f9e44" opacity="0.55" />
<rect x="506.69" y="378.76" width="2.28" height="3.22" fill="#2f9e44" opacity="0.55" />
<rect x="509.96" y="376.00" width="2.28" height="5.97" fill="#2f9e44" opacity="0.55" />
<rect x="513.24" y="373.50" width="2.28" height="8.47" fill="#2f9e44" opacity="0.55" />
<rect x="516.51" y="369.84" width="2.28" height="12.14" fill="#2f9e44" opacity="0.55" />
<rect x="519.79" y="370.74" width="2.28" height="11.23" fill="#2f9e44" opacity="0.55" />
<rect x="523.06" y="372.50" width="2.28" height="9.47" fill="#2f9e44" opacity="0.55" />
<rect x="526.33" y="373.98" width="2.28" height="7.99" fill="#2f9e44" opacity="0.55" />
<rect x="529.61" y="375.23" width="2.28" height="6.74" fill="#2f9e44" opacity="0.55" />
<rect x="532.88" y="377.53" width="2.28" height="4.45" fill="#2f9e44" opacity="0.55" />
<rect x="536.16" y="380.24" width="2.28" height="1.73" fill="#2f9e44" opacity="0.55" />
<rect x="539.43" y="381.96" width="2.28" height="0.01" fill="#2f9e44" opacity="0.55" />
<rect x="542.70" y="380.12" width="2.28" height="1.85" fill="#2f9e44" opacity="0.55" />
<rect x="545.98" y="379.50" width="2.28" height="2.48" fill="#2f9e44" opacity="0.55" />
<rect x="549.25" y="378.80" width="2.28" height="3.17" fill="#2f9e44" opacity="0.55" />
<rect x="552.53" y="380.10" width="2.28" height="1.88" fill="#2f9e44" opacity="0.55" />
<rect x="555.80" y="381.45" width="2.28" height="0.52" fill="#2f9e44" opacity="0.55" />
<rect x="559.07" y="381.97" width="2.28" height="0.68" fill="#d64545" opacity="0.55" />
<rect x="562.35" y="381.97" width="2.28" height="0.73" fill="#d64545" opacity="0.55" />
<rect x="565.62" y="381.97" width="2.28" height="0.80" fill="#d64545" opacity="0.55" />
<rect x="568.90" y="381.85" width="2.28" height="0.12" fill="#2f9e44" opacity="0.55" />
<rect x="572.17" y="381.48" width="2.28" height="0.49" fill="#2f9e44" opacity="0.55" />
<rect x="575.45" y="381.35" width="2.28" height="0.63" fill="#2f9e44" opacity="0.55" />
<rect x="578.72" y="381.97" width="2.28" height="0.02" fill="#d64545" opacity="0.55" />
<rect x="581.99" y="381.97" width="2.28" height="1.49" fill="#d64545" opacity="0.55" />
<rect x="585.27" y="381.97" width="2.28" height="3.64" fill="#d64545" opacity="0.55" />
<rect x="588.54" y="381.97" width="2.28" height="4.62" fill="#d64545" opacity="0.55" />
<rect x="591.82" y="381.97" width="2.28" height="4.67" fill="#d64545" opacity="0.55" />
<rect x="595.09" y="381.97" width="2.28" height="5.12" fill="#d64545" opacity="0.55" />
<rect x="598.36" y="381.97" width="2.28" height="4.67" fill="#d64545" opacity="0.55" />
<rect x="601.64" y="381.97" width="2.28" height="4.90" fill="#d64545" opacity="0.55" />
<rect x="604.91" y="381.97" width="2.28" height="4.06" fill="#d64545" opacity="0.55" />
<rect x="608.19" y="381.97" width="2.28" height="2.45" fill="#d64545" opacity="0.55" />
<rect x="611.46" y="381.97" width="2.28" height="1.80" fill="#d64545" opacity="0.55" />
<rect x="614.73" y="381.97" width="2.28" height="0.92" fill="#d64545" opacity="0.55" />
<rect x="618.01" y="380.42" width="2.28" height="1.55" fill="#2f9e44" opacity="0.55" />
<rect x="621.28" y="377.70" width="2.28" height="4.27" fill="#2f9e44" opacity="0.55" />
<rect x="624.56" y="376.85" width="2.28" height="5.13" fill="#2f9e44" opacity="0.55" />
<rect x="627.83" y="378.33" width="2.28" height="3.65" fill="#2f9e44" opacity="0.55" />
<rect x="631.11" y="381.97" width="2.28" height="1.09" fill="#d64545" opacity="0.55" />
<rect x="634.38" y="381.97" width="2.28" height="2.90" fill="#d64545" opacity="0.55" />
<rect x="637.65" y="381.97" width="2.28" height="3.53" fill="#d64545" opacity="0.55" />
<rect x="640.93" y="381.97" width="2.28" height="4.61" fill="#d64545" opacity="0.55" />
<rect x="644.20" y="381.97" width="2.28" height="3.42" fill="#d64545" opacity="0.55" />
<rect x="647.48" y="381.61" width="2.28" height="0.37" fill="#2f9e44" opacity="0.55" />
<rect x="650.75" y="380.11" width="2.28" height="1.87" fill="#2f9e44" opacity="0.55" />
<rect x="654.02" y="377.89" width="2.28" height="4.08" fill="#2f9e44" opacity="0.55" />
<rect x="657.30" y="375.73" width="2.28" height="6.25" fill="#2f9e44" opacity="0.55" />
<rect x="660.57" y="371.74" width="2.28" height="10.24" fill="#2f9e44" opacity="0.55" />
<rect x="663.85" y="369.31" width="2.28" height="12.66" fill="#2f9e44" opacity="0.55" />
<rect x="667.12" y="368.90" width="2.28" height="13.08" fill="#2f9e44" opacity="0.55" />
<rect x="670.40" y="369.05" width="2.28" height="12.93" fill="#2f9e44" opacity="0.55" />
<rect x="673.67" y="373.79" width="2.28" height="8.19" fill="#2f9e44" opacity="0.55" />
<rect x="676.94" y="376.59" width="2.28" height="5.39" fill="#2f9e44" opacity="0.55" />
<rect x="680.22" y="378.91" width="2.28" height="3.07" fill="#2f9e44" opacity="0.55" />
<rect x="683.49" y="380.68" width="2.28" height="1.29" fill="#2f9e44" opacity="0.55" />
<rect x="686.77" y="381.54" width="2.28" height="0.44" fill="#2f9e44" opacity="0.55" />
<rect x="690.04" y="381.97" width="2.28" height="1.90" fill="#d64545" opacity="0.55" />
<rect x="693.31" y="381.97" width="2.28" height="4.67" fill="#d64545" opacity="0.55" />
<rect x="696.59" y="381.97" width="2.28" height="3.83" fill="#d64545" opacity="0.55" />
<rect x="699.86" y="381.97" width="2.28" height="4.12" fill="#d64545" opacity="0.55" />
<rect x="703.14" y="381.97" width="2.28" height="5.46" fill="#d64545" opacity="0.55" />
<rect x="706.41" y="381.97" width="2.28" height="0.55" fill="#d64545" opacity="0.55" />
<rect x="709.68" y="377.81" width="2.28" height="4.16" fill="#2f9e44" opacity="0.55" />
<rect x="712.96" y="372.23" width="2.28" height="9.75" fill="#2f9e44" opacity="0.55" />
<rect x="716.23" y="368.89" width="2.28" height="13.08" fill="#2f9e44" opacity="0.55" />
<rect x="719.51" y="367.67" width="2.28" height="14.30" fill="#2f9e44" opacity="0.55" />
<rect x="722.78" y="363.91" width="2.28" height="18.07" fill="#2f9e44" opacity="0.55" />
<rect x="726.06" y="362.13" width="2.28" height="19.85" fill="#2f9e44" opacity="0.55" />
<rect x="729.33" y="362.11" width="2.28" height="19.87" fill="#2f9e44" opacity="0.55" />
<rect x="732.60" y="363.98" width="2.28" height="18.00" fill="#2f9e44" opacity="0.55" />
<rect x="735.88" y="364.00" width="2.28" height="17.97" fill="#2f9e44" opacity="0.55" />
<rect x="739.15" y="366.13" width="2.28" height="15.84" fill="#2f9e44" opacity="0.55" />
<rect x="742.43" y="371.12" width="2.28" height="10.85" fill="#2f9e44" opacity="0.55" />
<rect x="745.70" y="374.44" width="2.28" height="7.54" fill="#2f9e44" opacity="0.55" />
<rect x="748.97" y="375.56" width="2.28" height="6.42" fill="#2f9e44" opacity="0.55" />
<rect x="752.25" y="377.86" width="2.28" height="4.11" fill="#2f9e44" opacity="0.55" />
<rect x="755.52" y="381.97" width="2.28" height="0.18" fill="#d64545" opacity="0.55" />
<rect x="758.80" y="381.97" width="2.28" height="3.15" fill="#d64545" opacity="0.55" />
<rect x="762.07" y="381.97" width="2.28" height="3.76" fill="#d64545" opacity="0.55" />
<rect x="765.34" y="381.97" width="2.28" height="4.21" fill="#d64545" opacity="0.55" />
<rect x="768.62" y="381.29" width="2.28" height="0.68" fill="#2f9e44" opacity="0.55" />
<rect x="771.89" y="376.66" width="2.28" height="5.31" fill="#2f9e44" opacity="0.55" />
<rect x="775.17" y="372.45" width="2.28" height="9.52" fill="#2f9e44" opacity="0.55" />
<rect x="778.44" y="368.87" width="2.28" height="13.11" fill="#2f9e44" opacity="0.55" />
<rect x="781.72" y="368.62" width="2.28" height="13.35" fill="#2f9e44" opacity="0.55" />
<rect x="784.99" y="371.50" width="2.28" height="10.47" fill="#2f9e44" opacity="0.55" />
<rect x="788.26" y="371.01" width="2.28" height="10.96" fill="#2f9e44" opacity="0.55" />
<rect x="791.54" y="371.93" width="2.28" height="10.05" fill="#2f9e44" opacity="0.55" />
<rect x="794.81" y="372.59" width="2.28" height="9.39" fill="#2f9e44" opacity="0.55" />
<rect x="798.09" y="380.38" width="2.28" height="1.59" fill="#2f9e44" opacity="0.55" />
<rect x="801.36" y="381.97" width="2.28" height="4.70" fill="#d64545" opacity="0.55" />
<rect x="804.63" y="381.97" width="2.28" height="5.36" fill="#d64545" opacity="0.55" />
<rect x="807.91" y="381.97" width="2.28" height="4.56" fill="#d64545" opacity="0.55" />
<rect x="811.18" y="381.97" width="2.28" height="0.88" fill="#d64545" opacity="0.55" />
<rect x="814.46" y="381.17" width="2.28" height="0.80" fill="#2f9e44" opacity="0.55" />
<rect x="817.73" y="381.56" width="2.28" height="0.41" fill="#2f9e44" opacity="0.55" />
<rect x="821.01" y="381.13" width="2.28" height="0.84" fill="#2f9e44" opacity="0.55" />
<rect x="824.28" y="373.39" width="2.28" height="8.58" fill="#2f9e44" opacity="0.55" />
<rect x="827.55" y="365.33" width="2.28" height="16.64" fill="#2f9e44" opacity="0.55" />
<rect x="830.83" y="360.89" width="2.28" height="21.08" fill="#2f9e44" opacity="0.55" />
<rect x="834.10" y="357.75" width="2.28" height="24.22" fill="#2f9e44" opacity="0.55" />
<rect x="837.38" y="363.96" width="2.28" height="18.02" fill="#2f9e44" opacity="0.55" />
<rect x="840.65" y="370.77" width="2.28" height="11.20" fill="#2f9e44" opacity="0.55" />
<rect x="843.92" y="381.97" width="2.28" height="0.38" fill="#d64545" opacity="0.55" />
<rect x="847.20" y="381.97" width="2.28" height="4.92" fill="#d64545" opacity="0.55" />
<rect x="850.47" y="381.97" width="2.28" height="11.86" fill="#d64545" opacity="0.55" />
<rect x="853.75" y="381.97" width="2.28" height="17.43" fill="#d64545" opacity="0.55" />
<rect x="857.02" y="381.97" width="2.28" height="20.21" fill="#d64545" opacity="0.55" />
<rect x="860.29" y="381.97" width="2.28" height="19.68" fill="#d64545" opacity="0.55" />
<rect x="863.57" y="381.97" width="2.28" height="19.28" fill="#d64545" opacity="0.55" />
<rect x="866.84" y="381.97" width="2.28" height="18.70" fill="#d64545" opacity="0.55" />
<rect x="870.12" y="381.97" width="2.28" height="18.74" fill="#d64545" opacity="0.55" />
<rect x="873.39" y="381.97" width="2.28" height="19.37" fill="#d64545" opacity="0.55" />
<rect x="876.67" y="381.97" width="2.28" height="21.41" fill="#d64545" opacity="0.55" />
<rect x="879.94" y="381.97" width="2.28" height="19.84" fill="#d64545" opacity="0.55" />
<rect x="883.21" y="381.97" width="2.28" height="19.38" fill="#d64545" opacity="0.55" />
<rect x="886.49" y="381.97" width="2.28" height="21.97" fill="#d64545" opacity="0.55" />
<rect x="889.76" y="381.97" width="2.28" height="21.31" fill="#d64545" opacity="0.55" />
<rect x="893.04" y="381.97" width="2.28" height="15.26" fill="#d64545" opacity="0.55" />
<rect x="896.31" y="381.97" width="2.28" height="12.43" fill="#d64545" opacity="0.55" />
<rect x="899.58" y="381.97" width="2.28" height="9.89" fill="#d64545" opacity="0.55" />
<rect x="902.86" y="381.97" width="2.28" height="7.88" fill="#d64545" opacity="0.55" />
<polyline fill="none" stroke="#1f77b4" stroke-width="2" points="137.85,387.80 141.13,385.80 144.40,383.44 147.68,380.83 150.95,378.50 154.22,379.85 157.50,378.54 160.77,376.80 164.05,376.40 167.32,375.70 170.59,377.17 173.87,379.61 177.14,379.54 180.42,379.97 183.69,378.94 186.97,378.17 190.24,375.59 193.51,373.18 196.79,370.31 200.06,369.43 203.34,368.42 206.61,369.33 209.88,371.12 213.16,371.71 216.43,371.68 219.71,376.11 222.98,378.87 226.25,381.53 229.53,381.61 232.80,380.74 236.08,378.84 239.35,378.47 242.63,379.46 245.90,383.52 249.17,387.61 252.45,390.59 255.72,392.53 259.00,392.68 262.27,390.97 265.54,386.43 268.82,385.15 272.09,385.04 275.37,384.92 278.64,385.56 281.92,384.48 285.19,385.62 288.46,384.76 291.74,382.04 295.01,380.22 298.29,378.20 301.56,378.20 304.83,373.60 308.11,370.09 311.38,365.62 314.66,364.16 317.93,361.36 321.20,355.52 324.48,351.41 327.75,349.93 331.03,351.46 334.30,356.11 337.58,362.83 340.85,368.63 344.12,372.08 347.40,376.30 350.67,377.65 353.95,377.83 357.22,379.87 360.49,382.27 363.77,382.45 367.04,382.11 370.32,382.47 373.59,383.67 376.86,384.91 380.14,386.93 383.41,391.55 386.69,395.06 389.96,394.10 393.24,395.54 396.51,394.96 399.78,394.66 403.06,395.53 406.33,396.36 409.61,396.70 412.88,401.28 416.15,407.76 419.43,414.55 422.70,416.87 425.98,420.92 429.25,422.41 432.53,423.43 435.80,422.67 439.07,421.30 442.35,420.86 445.62,420.23 448.90,419.61 452.17,417.77 455.44,416.07 458.72,414.51 461.99,412.29 465.27,411.14 468.54,409.44 471.81,408.11 475.09,408.16 478.36,409.14 481.64,409.44 484.91,409.21 488.19,408.41 491.46,407.18 494.73,406.23 498.01,406.14 501.28,405.95 504.56,405.53 507.83,403.38 511.10,399.13 514.38,394.51 517.65,387.81 520.93,385.91 524.20,385.30 527.47,384.78 530.75,384.35 534.02,385.53 537.30,387.81 540.57,389.53 543.85,387.23 547.12,385.98 550.39,384.50 553.67,385.32 556.94,386.54 560.22,387.92 563.49,388.15 566.76,388.42 570.04,387.47 573.31,386.97 576.59,386.68 579.86,387.33 583.14,389.17 586.41,392.24 589.68,394.37 592.96,395.59 596.23,397.32 599.51,398.03 602.78,399.49 606.05,399.66 609.33,398.66 612.60,398.47 615.88,397.82 619.15,394.95 622.42,391.17 625.70,389.03 628.97,389.60 632.25,394.60 635.52,397.14 638.80,398.65 642.07,400.88 645.34,400.55 648.62,396.67 651.89,394.71 655.17,391.47 658.44,387.75 661.71,381.19 664.99,375.61 668.26,371.92 671.54,368.84 674.81,371.53 678.08,372.98 681.36,374.54 684.63,375.99 687.91,376.74 691.18,379.55 694.46,383.48 697.73,383.60 701.00,384.92 704.28,387.62 707.55,382.86 710.83,377.10 714.10,369.08 717.37,362.48 720.65,357.68 723.92,349.40 727.20,342.66 730.47,337.67 733.75,335.04 737.02,330.57 740.29,328.74 743.57,331.02 746.84,332.45 750.12,331.96 753.39,333.24 756.66,337.58 759.94,341.34 763.21,342.88 766.49,344.38 769.76,339.32 773.03,333.37 776.31,326.77 779.58,319.91 782.86,316.33 786.13,316.59 789.41,313.36 792.68,311.77 795.95,310.08 799.23,317.48 802.50,324.94 805.78,326.94 809.05,327.28 812.32,323.82 815.60,321.94 818.87,322.23 822.15,321.59 825.42,311.70 828.69,299.48 831.97,289.77 835.24,280.57 838.52,282.27 841.79,286.29 845.07,297.97 848.34,303.73 851.61,313.64 854.89,323.57 858.16,331.40 861.44,335.78 864.71,340.21 867.98,344.31 871.26,349.04 874.53,354.51 877.81,361.90 881.08,365.28 884.36,369.67 887.63,377.75 890.90,382.42 894.18,380.18 897.45,380.47 900.73,380.40 904.00,380.36" />
<polyline fill="none" stroke="#ff7f0e" stroke-width="2" points="137.85,387.80 141.13,387.40 144.40,386.61 147.68,385.45 150.95,384.06 154.22,383.22 157.50,382.28 160.77,381.19 164.05,380.23 167.32,379.32 170.59,378.89 173.87,379.04 177.14,379.14 180.42,379.30 183.69,379.23 186.97,379.02 190.24,378.33 193.51,377.30 196.79,375.90 200.06,374.61 203.34,373.37 206.61,372.56 209.88,372.27 213.16,372.16 216.43,372.06 219.71,372.87 222.98,374.07 226.25,375.56 229.53,376.77 232.80,377.57 236.08,377.82 239.35,377.95 242.63,378.25 245.90,379.30 249.17,380.97 252.45,382.89 255.72,384.82 259.00,386.39 262.27,387.31 265.54,387.13 268.82,386.74 272.09,386.40 275.37,386.10 278.64,385.99 281.92,385.69 285.19,385.68 288.46,385.49 291.74,384.80 295.01,383.89 298.29,382.75 301.56,381.84 304.83,380.19 308.11,378.17 311.38,375.66 314.66,373.36 317.93,370.96 321.20,367.87 324.48,364.58 327.75,361.65 331.03,359.61 334.30,358.91 337.58,359.70 340.85,361.48 344.12,363.60 347.40,366.14 350.67,368.44 353.95,370.32 357.22,372.23 360.49,374.24 363.77,375.88 367.04,377.13 370.32,378.20 373.59,379.29 376.86,380.41 380.14,381.72 383.41,383.68 386.69,385.96 389.96,387.59 393.24,389.18 396.51,390.33 399.78,391.20 403.06,392.06 406.33,392.92 409.61,393.68 412.88,395.20 416.15,397.71 419.43,401.08 422.70,404.24 425.98,407.57 429.25,410.54 432.53,413.12 435.80,415.03 439.07,416.28 442.35,417.20 445.62,417.81 448.90,418.17 452.17,418.09 455.44,417.68 458.72,417.05 461.99,416.10 465.27,415.11 468.54,413.97 471.81,412.80 475.09,411.87 478.36,411.32 481.64,410.95 484.91,410.60 488.19,410.16 491.46,409.57 494.73,408.90 498.01,408.35 501.28,407.87 504.56,407.40 507.83,406.60 511.10,405.10 514.38,402.98 517.65,399.95 520.93,397.14 524.20,394.77 527.47,392.78 530.75,391.09 534.02,389.98 537.30,389.54 540.57,389.54 543.85,389.08 547.12,388.46 550.39,387.67 553.67,387.20 556.94,387.07 560.22,387.24 563.49,387.42 566.76,387.62 570.04,387.59 573.31,387.47 576.59,387.31 579.86,387.31 583.14,387.69 586.41,388.60 589.68,389.75 592.96,390.92 596.23,392.20 599.51,393.36 602.78,394.59 606.05,395.60 609.33,396.22 612.60,396.67 615.88,396.90 619.15,396.51 622.42,395.44 625.70,394.16 628.97,393.25 632.25,393.52 635.52,394.24 638.80,395.12 642.07,396.28 645.34,397.13 648.62,397.04 651.89,396.57 655.17,395.55 658.44,393.99 661.71,391.43 664.99,388.27 668.26,385.00 671.54,381.77 674.81,379.72 678.08,378.37 681.36,377.60 684.63,377.28 687.91,377.17 691.18,377.65 694.46,378.81 697.73,379.77 701.00,380.80 704.28,382.17 707.55,382.30 710.83,381.26 714.10,378.83 717.37,375.56 720.65,371.98 723.92,367.46 727.20,362.50 730.47,357.54 733.75,353.04 737.02,348.54 740.29,344.58 743.57,341.87 746.84,339.99 750.12,338.38 753.39,337.35 756.66,337.40 759.94,338.19 763.21,339.13 766.49,340.18 769.76,340.01 773.03,338.68 776.31,336.30 779.58,333.02 782.86,329.68 786.13,327.06 789.41,324.32 792.68,321.81 795.95,319.46 799.23,319.07 802.50,320.24 805.78,321.58 809.05,322.72 812.32,322.94 815.60,322.74 818.87,322.64 822.15,322.43 825.42,320.28 828.69,316.12 831.97,310.85 835.24,304.79 838.52,300.29 841.79,297.49 845.07,297.59 848.34,298.81 851.61,301.78 854.89,306.14 858.16,311.19 861.44,316.11 864.71,320.93 867.98,325.61 871.26,330.29 874.53,335.13 877.81,340.49 881.08,345.45 884.36,350.29 887.63,355.78 890.90,361.11 894.18,364.93 897.45,368.03 900.73,370.51 904.00,372.48" />
<text x="754.00" y="290.00" font-size="13" font-family="Arial" fill="#1f77b4" text-anchor="start">MACD</text>
<text x="818.00" y="290.00" font-size="13" font-family="Arial" fill="#ff7f0e" text-anchor="start">Signal</text>
<line x1="56" y1="624" x2="904" y2="624" stroke="#cbd2d9" />
<line x1="56" y1="484" x2="56" y2="624" stroke="#cbd2d9" />
<text x="16.00" y="476.00" font-size="12" font-family="Arial" fill="#52606d" text-anchor="start">KD</text>
<line x1="56" y1="624.00" x2="904" y2="624.00" stroke="#edf2f7" />
<line x1="52" y1="624.00" x2="56" y2="624.00" stroke="#9fb3c8" />
<text x="48.00" y="628.00" font-size="11" font-family="Arial" fill="#52606d" text-anchor="end">-5.00</text>
<line x1="56" y1="577.33" x2="904" y2="577.33" stroke="#edf2f7" />
<line x1="52" y1="577.33" x2="56" y2="577.33" stroke="#9fb3c8" />
<text x="48.00" y="581.33" font-size="11" font-family="Arial" fill="#52606d" text-anchor="end">31.7</text>
<line x1="56" y1="530.67" x2="904" y2="530.67" stroke="#edf2f7" />
<line x1="52" y1="530.67" x2="56" y2="530.67" stroke="#9fb3c8" />
<text x="48.00" y="534.67" font-size="11" font-family="Arial" fill="#52606d" text-anchor="end">68.3</text>
<line x1="56" y1="484.00" x2="904" y2="484.00" stroke="#edf2f7" />
<line x1="52" y1="484.00" x2="56" y2="484.00" stroke="#9fb3c8" />
<text x="48.00" y="488.00" font-size="11" font-family="Arial" fill="#52606d" text-anchor="end">105</text>
<line x1="56.00" y1="624" x2="56.00" y2="628" stroke="#9fb3c8" />
<text x="56.00" y="642.00" font-size="11" font-family="Arial" fill="#52606d" text-anchor="middle">06/10</text>
<line x1="226.25" y1="624" x2="226.25" y2="628" stroke="#9fb3c8" />
<text x="226.25" y="642.00" font-size="11" font-family="Arial" fill="#52606d" text-anchor="middle">08/22</text>
<line x1="396.51" y1="624" x2="396.51" y2="628" stroke="#9fb3c8" />
<text x="396.51" y="642.00" font-size="11" font-family="Arial" fill="#52606d" text-anchor="middle">11/10</text>
<line x1="563.49" y1="624" x2="563.49" y2="628" stroke="#9fb3c8" />
<text x="563.49" y="642.00" font-size="11" font-family="Arial" fill="#52606d" text-anchor="middle">01/22</text>
<line x1="733.75" y1="624" x2="733.75" y2="628" stroke="#9fb3c8" />
<text x="733.75" y="642.00" font-size="11" font-family="Arial" fill="#52606d" text-anchor="middle">04/20</text>
<line x1="904.00" y1="624" x2="904.00" y2="628" stroke="#9fb3c8" />
<text x="904.00" y="642.00" font-size="11" font-family="Arial" fill="#52606d" text-anchor="middle">07/03</text>
<line x1="56" y1="592.18" x2="904" y2="592.18" stroke="#f0b429" stroke-dasharray="5 5" />
<text x="912.00" y="596.18" font-size="10" font-family="Arial" fill="#8d2b0b" text-anchor="start">20.0</text>
<line x1="56" y1="515.82" x2="904" y2="515.82" stroke="#f0b429" stroke-dasharray="5 5" />
<text x="912.00" y="519.82" font-size="10" font-family="Arial" fill="#8d2b0b" text-anchor="start">80.0</text>
<polyline fill="none" stroke="#2ca02c" stroke-width="2" points="82.19,598.50 85.47,618.56 88.74,615.66 92.02,612.41 95.29,611.56 98.56,617.59 101.84,617.66 105.11,608.46 108.39,615.53 111.66,633.44 114.93,650.45 118.21,654.35 121.48,653.72 124.76,643.66 128.03,638.06 131.31,628.66 134.58,632.61 137.85,618.01 141.13,607.68 144.40,595.81 147.68,585.58 150.95,577.65 154.22,603.23 157.50,603.25 160.77,596.86 164.05,601.53 167.32,609.38 170.59,635.89 173.87,624.31 177.14,606.37 180.42,596.77 183.69,582.51 186.97,573.01 190.24,555.44 193.51,540.54 196.79,523.81 200.06,520.30 203.34,518.28 206.61,530.76 209.88,548.49 213.16,555.98 216.43,557.68 219.71,577.66 222.98,586.05 226.25,594.61 229.53,587.49 232.80,574.69 236.08,557.46 239.35,553.59 242.63,559.71 245.90,577.96 249.17,588.53 252.45,594.70 255.72,597.04 259.00,591.53 262.27,578.14 265.54,553.12 268.82,554.10 272.09,558.86 275.37,562.03 278.64,568.54 281.92,567.04 285.19,575.72 288.46,574.77 291.74,563.92 295.01,561.53 298.29,544.65 301.56,547.08 304.83,538.08 308.11,532.07 311.38,519.58 314.66,527.47 317.93,528.79 321.20,516.60 324.48,514.38 327.75,517.80 331.03,531.11 334.30,554.08 337.58,575.27 340.85,586.77 344.12,590.25 347.40,597.28 350.67,595.16 353.95,587.41 357.22,589.83 360.49,592.57 363.77,582.44 367.04,557.28 370.32,552.33 373.59,560.60 376.86,571.53 380.14,583.64 383.41,594.97 386.69,593.43 389.96,574.99 393.24,574.05 396.51,565.85 399.78,558.87 403.06,560.78 406.33,563.13 409.61,563.78 412.88,581.73 416.15,592.61 419.43,600.95 422.70,597.61 425.98,603.26 429.25,602.40 432.53,602.95 435.80,599.36 439.07,591.31 442.35,585.46 445.62,583.02 448.90,584.32 452.17,569.16 455.44,565.35 458.72,568.64 461.99,559.52 465.27,571.82 468.54,572.95 471.81,578.42 475.09,589.72 478.36,595.28 481.64,594.71 484.91,593.18 488.19,589.87 491.46,585.36 494.73,583.26 498.01,589.58 501.28,594.22 504.56,595.96 507.83,576.93 511.10,548.07 514.38,528.84 517.65,516.01 520.93,525.41 524.20,536.57 527.47,544.01 530.75,548.97 534.02,561.68 537.30,580.33 540.57,590.22 543.85,577.30 547.12,572.08 550.39,559.35 553.67,565.38 556.94,573.87 560.22,581.83 563.49,580.51 566.76,580.95 570.04,573.38 573.31,571.16 576.59,568.71 579.86,576.53 583.14,585.09 586.41,593.92 589.68,597.00 592.96,595.58 596.23,600.17 599.51,593.34 602.78,592.95 606.05,587.64 609.33,571.44 612.60,564.21 615.88,556.56 619.15,541.20 622.42,524.25 625.70,519.16 628.97,538.30 632.25,564.75 635.52,575.72 638.80,581.38 642.07,582.53 645.34,575.59 648.62,556.83 651.89,549.46 655.17,535.92 658.44,524.00 661.71,515.65 664.99,508.65 668.26,505.89 671.54,503.79 674.81,527.34 678.08,542.72 681.36,555.96 684.63,572.17 687.91,577.22 691.18,590.69 694.46,598.24 697.73,589.60 701.00,585.82 704.28,594.30 707.55,559.66 710.83,542.71 714.10,528.15 717.37,519.21 720.65,517.75 723.92,512.04 727.20,508.13 730.47,505.19 733.75,505.46 737.02,503.29 740.29,506.31 743.57,522.85 746.84,532.86 750.12,531.07 753.39,539.77 756.66,562.70 759.94,576.97 763.21,573.75 766.49,570.62 769.76,548.24 773.03,535.86 776.31,525.90 779.58,519.82 782.86,518.15 786.13,522.12 789.41,515.61 792.68,511.99 795.95,517.57 799.23,547.15 802.50,568.98 805.78,571.47 809.05,568.14 812.32,554.28 815.60,545.45 818.87,542.48 822.15,536.34 825.42,521.61 828.69,515.17 831.97,509.47 835.24,504.51 838.52,516.29 841.79,527.09 845.07,548.91 848.34,555.09 851.61,569.92 854.89,580.98 858.16,587.14 861.44,586.70 864.71,585.79 867.98,581.11 871.26,575.11 874.53,577.92 877.81,588.18 881.08,577.52 884.36,577.73 887.63,589.82 890.90,591.10 894.18,568.59 897.45,561.57 900.73,554.15 904.00,547.03" />
<polyline fill="none" stroke="#d62728" stroke-width="2" points="82.19,568.83 85.47,585.41 88.74,595.49 92.02,601.13 95.29,604.61 98.56,608.94 101.84,611.84 105.11,610.71 108.39,612.32 111.66,619.36 114.93,629.72 118.21,637.93 121.48,643.19 124.76,643.35 128.03,641.59 131.31,637.28 134.58,635.72 137.85,629.82 141.13,622.44 144.40,613.56 147.68,604.24 150.95,595.37 154.22,597.99 157.50,599.74 160.77,598.78 164.05,599.70 167.32,602.93 170.59,613.91 173.87,617.38 177.14,613.71 180.42,608.06 183.69,599.55 186.97,590.70 190.24,578.95 193.51,566.14 196.79,552.03 200.06,541.46 203.34,533.73 206.61,532.74 209.88,537.99 213.16,543.99 216.43,548.55 219.71,558.25 222.98,567.52 226.25,576.55 229.53,580.20 232.80,578.36 236.08,571.39 239.35,565.46 242.63,563.54 245.90,568.35 249.17,575.08 252.45,581.62 255.72,586.76 259.00,588.35 262.27,584.95 265.54,574.34 268.82,567.59 272.09,564.68 275.37,563.80 278.64,565.38 281.92,565.93 285.19,569.20 288.46,571.05 291.74,568.67 295.01,566.29 298.29,559.08 301.56,555.08 304.83,549.41 308.11,543.63 311.38,535.62 314.66,532.90 317.93,531.53 321.20,526.56 324.48,522.50 327.75,520.93 331.03,524.33 334.30,534.24 337.58,547.92 340.85,560.87 344.12,570.66 347.40,579.54 350.67,584.75 353.95,585.63 357.22,587.03 360.49,588.88 363.77,586.73 367.04,576.91 370.32,568.72 373.59,566.01 376.86,567.85 380.14,573.11 383.41,580.40 386.69,584.74 389.96,581.49 393.24,579.01 396.51,574.63 399.78,569.37 403.06,566.51 406.33,565.38 409.61,564.85 412.88,570.48 416.15,577.85 419.43,585.55 422.70,589.57 425.98,594.14 429.25,596.89 432.53,598.91 435.80,599.06 439.07,596.48 442.35,592.80 445.62,589.54 448.90,587.80 452.17,581.59 455.44,576.18 458.72,573.66 461.99,568.95 465.27,569.91 468.54,570.92 471.81,573.42 475.09,578.85 478.36,584.33 481.64,587.79 484.91,589.59 488.19,589.68 491.46,588.24 494.73,586.58 498.01,587.58 501.28,589.79 504.56,591.85 507.83,586.88 511.10,573.94 514.38,558.91 517.65,544.61 520.93,538.21 524.20,537.66 527.47,539.78 530.75,542.84 534.02,549.12 537.30,559.53 540.57,569.76 543.85,572.27 547.12,572.21 550.39,567.92 553.67,567.08 556.94,569.34 560.22,573.50 563.49,575.84 566.76,577.54 570.04,576.16 573.31,574.49 576.59,572.56 579.86,573.89 583.14,577.62 586.41,583.05 589.68,587.70 592.96,590.33 596.23,593.61 599.51,593.52 602.78,593.33 606.05,591.43 609.33,584.77 612.60,577.91 615.88,570.80 619.15,560.93 622.42,548.70 625.70,538.86 628.97,538.67 632.25,547.36 635.52,556.82 638.80,565.00 642.07,570.85 645.34,572.43 648.62,567.23 651.89,561.30 655.17,552.84 658.44,543.23 661.71,534.03 664.99,525.57 668.26,519.01 671.54,513.94 674.81,518.41 678.08,526.51 681.36,536.33 684.63,548.27 687.91,557.92 691.18,568.85 694.46,578.64 697.73,582.30 701.00,583.47 704.28,587.08 707.55,577.94 710.83,566.19 714.10,553.51 717.37,542.08 720.65,533.97 723.92,526.66 727.20,520.48 730.47,515.39 733.75,512.08 737.02,509.15 740.29,508.20 743.57,513.08 746.84,519.68 750.12,523.47 753.39,528.91 756.66,540.17 759.94,552.44 763.21,559.54 766.49,563.24 769.76,558.24 773.03,550.78 776.31,542.49 779.58,534.93 782.86,529.34 786.13,526.93 789.41,523.16 792.68,519.44 795.95,518.81 799.23,528.26 802.50,541.83 805.78,551.71 809.05,557.19 812.32,556.22 815.60,552.63 818.87,549.25 822.15,544.94 825.42,537.17 828.69,529.83 831.97,523.04 835.24,516.86 838.52,516.67 841.79,520.15 845.07,529.73 848.34,538.18 851.61,548.76 854.89,559.50 858.16,568.71 861.44,574.71 864.71,578.40 867.98,579.31 871.26,577.91 874.53,577.91 877.81,581.33 881.08,580.06 884.36,579.28 887.63,582.79 890.90,585.56 894.18,579.90 897.45,573.79 900.73,567.25 904.00,560.51" />
<text x="824.00" y="502.00" font-size="13" font-family="Arial" fill="#2ca02c" text-anchor="start">K</text>
<text x="860.00" y="502.00" font-size="13" font-family="Arial" fill="#d62728" text-anchor="start">D</text>
</svg>