<svg xmlns="http://www.w3.org/2000/svg" width="960" height="680" viewBox="0 0 960 680"><rect width="100%" height="100%" fill="white" />
<text x="56.00" y="32.00" font-size="20" font-family="Arial" fill="#1f2933" text-anchor="start">廣達(2382) Technical Indicators</text>
<line x1="56" y1="220" x2="904" y2="220" stroke="#cbd2d9" />
<line x1="56" y1="58" x2="56" y2="220" stroke="#cbd2d9" />
<text x="16.00" y="50.00" font-size="12" font-family="Arial" fill="#52606d" text-anchor="start">RSI14</text>
<line x1="56" y1="220.00" x2="904" y2="220.00" stroke="#edf2f7" />
<line x1="52" y1="220.00" x2="56" y2="220.00" stroke="#9fb3c8" />
<text x="48.00" y="224.00" font-size="11" font-family="Arial" fill="#52606d" text-anchor="end">-5.00</text>
<line x1="56" y1="166.00" x2="904" y2="166.00" stroke="#edf2f7" />
<line x1="52" y1="166.00" x2="56" y2="166.00" stroke="#9fb3c8" />
<text x="48.00" y="170.00" font-size="11" font-family="Arial" fill="#52606d" text-anchor="end">31.7</text>
<line x1="56" y1="112.00" x2="904" y2="112.00" stroke="#edf2f7" />
<line x1="52" y1="112.00" x2="56" y2="112.00" stroke="#9fb3c8" />
<text x="48.00" y="116.00" font-size="11" font-family="Arial" fill="#52606d" text-anchor="end">68.3</text>
<line x1="56" y1="58.00" x2="904" y2="58.00" stroke="#edf2f7" />
<line x1="52" y1="58.00" x2="56" y2="58.00" stroke="#9fb3c8" />
<text x="48.00" y="62.00" font-size="11" font-family="Arial" fill="#52606d" text-anchor="end">105</text>
<line x1="56" y1="168.45" x2="904" y2="168.45" stroke="#f0b429" stroke-dasharray="5 5" />
<text x="912.00" y="172.45" font-size="10" font-family="Arial" fill="#8d2b0b" text-anchor="start">30.0</text>
<line x1="56" y1="109.55" x2="904" y2="109.55" stroke="#f0b429" stroke-dasharray="5 5" />
<text x="912.00" y="113.55" font-size="10" font-family="Arial" fill="#8d2b0b" text-anchor="start">70.0</text>
<polyline fill="none" stroke="#1f77b4" stroke-width="2" points="101.84,132.60 105.11,138.89 108.39,137.15 111.66,133.68 114.93,136.65 118.21,132.14 121.48,132.14 124.76,151.79 128.03,147.85 131.31,139.64 134.58,140.50 137.85,134.37 141.13,142.31 144.40,137.91 147.68,121.89 150.95,122.82 154.22,115.14 157.50,114.63 160.77,114.10 164.05,112.45 167.32,113.65 170.59,128.82 173.87,146.69 177.14,147.98 180.42,147.98 183.69,150.11 186.97,151.56 190.24,162.22 193.51,162.77 196.79,163.35 200.06,144.50 203.34,148.69 206.61,141.93 209.88,146.28 213.16,151.03 216.43,158.75 219.71,161.41 222.98,161.41 226.25,154.29 229.53,151.34 232.80,148.38 236.08,143.55 239.35,127.26 242.63,132.40 245.90,127.07 249.17,124.53 252.45,129.15 255.72,130.08 259.00,121.33 262.27,119.51 265.54,119.51 268.82,112.93 272.09,119.57 275.37,117.70 278.64,117.70 281.92,111.52 285.19,119.78 288.46,111.15 291.74,105.64 295.01,99.40 298.29,104.70 301.56,119.69 304.83,125.40 308.11,139.84 311.38,137.40 314.66,131.01 317.93,135.05 321.20,126.38 324.48,133.66 327.75,135.57 331.03,131.01 334.30,116.66 337.58,123.84 340.85,120.60 344.12,123.27 347.40,130.33 350.67,133.98 353.95,144.78 357.22,142.50 360.49,138.54 363.77,144.95 367.04,139.75 370.32,139.75 373.59,143.81 376.86,147.17 380.14,152.94 383.41,156.33 386.69,161.69 389.96,164.17 393.24,153.40 396.51,157.12 399.78,154.12 403.06,149.66 406.33,143.33 409.61,140.63 412.88,139.93 416.15,133.17 419.43,131.25 422.70,126.27 425.98,123.89 429.25,120.42 432.53,120.42 435.80,123.49 439.07,130.37 442.35,138.31 445.62,140.80 448.90,143.30 452.17,159.30 455.44,166.88 458.72,170.87 461.99,161.80 465.27,158.36 468.54,160.85 471.81,161.36 475.09,162.41 478.36,162.41 481.64,162.41 484.91,144.15 488.19,136.17 491.46,134.66 494.73,128.83 498.01,128.83 501.28,143.92 504.56,129.99 507.83,133.76 511.10,136.01 514.38,127.14 517.65,131.82 520.93,124.29 524.20,135.20 527.47,140.92 530.75,143.96 534.02,133.95 537.30,137.80 540.57,129.87 543.85,129.33 547.12,130.07 550.39,135.96 553.67,140.14 556.94,148.86 560.22,143.78 563.49,141.64 566.76,147.98 570.04,138.80 573.31,133.18 576.59,131.96 579.86,130.69 583.14,134.68 586.41,133.96 589.68,118.06 592.96,127.51 596.23,118.47 599.51,127.58 602.78,142.72 606.05,134.39 609.33,134.92 612.60,142.13 615.88,141.58 619.15,134.71 622.42,135.29 625.70,134.73 628.97,134.73 632.25,134.73 635.52,129.64 638.80,139.09 642.07,143.02 645.34,147.41 648.62,145.09 651.89,139.80 655.17,136.89 658.44,133.99 661.71,145.67 664.99,148.86 668.26,132.37 671.54,140.09 674.81,134.70 678.08,117.93 681.36,114.15 684.63,108.94 687.91,112.34 691.18,109.83 694.46,127.56 697.73,120.50 701.00,117.62 704.28,113.98 707.55,108.10 710.83,113.94 714.10,127.30 717.37,126.61 720.65,124.84 723.92,129.51 727.20,128.70 730.47,138.26 733.75,133.43 737.02,130.88 740.29,114.13 743.57,116.72 746.84,120.38 750.12,118.51 753.39,122.36 756.66,122.00 759.94,128.79 763.21,152.00 766.49,155.58 769.76,161.05 773.03,161.05 776.31,145.10 779.58,139.20 782.86,138.84 786.13,138.84 789.41,142.46 792.68,145.24 795.95,123.63 799.23,109.50 802.50,101.60 805.78,97.90 809.05,107.04 812.32,115.69 815.60,123.80 818.87,124.65 822.15,122.50 825.42,128.77 828.69,127.88 831.97,129.15 835.24,133.90 838.52,128.01 841.79,127.02 845.07,124.99 848.34,130.46 851.61,130.83 854.89,134.93 858.16,138.23 861.44,134.71 864.71,134.00 867.98,131.08 871.26,133.79 874.53,127.84 877.81,127.12 881.08,132.13 884.36,128.92 887.63,132.55 890.90,132.55 894.18,128.47 897.45,126.69 900.73,125.77 904.00,141.74" />
<text x="808.00" y="76.00" font-size="13" font-family="Arial" fill="#1f77b4" text-anchor="start">RSI14</text>
<line x1="56" y1="432" x2="904" y2="432" stroke="#cbd2d9" />
<line x1="56" y1="272" x2="56" y2="432" stroke="#cbd2d9" />
<text x="16.00" y="264.00" font-size="12" font-family="Arial" fill="#52606d" text-anchor="start">MACD</text>
<line x1="56" y1="432.00" x2="904" y2="432.00" stroke="#edf2f7" />
<line x1="52" y1="432.00" x2="56" y2="432.00" stroke="#9fb3c8" />
<text x="48.00" y="436.00" font-size="11" font-family="Arial" fill="#52606d" text-anchor="end">-7.82</text>
<line x1="56" y1="378.67" x2="904" y2="378.67" stroke="#edf2f7" />
<line x1="52" y1="378.67" x2="56" y2="378.67" stroke="#9fb3c8" />
<text x="48.00" y="382.67" font-size="11" font-family="Arial" fill="#52606d" text-anchor="end">1.74</text>
<line x1="56" y1="325.33" x2="904" y2="325.33" stroke="#edf2f7" />
<line x1="52" y1="325.33" x2="56" y2="325.33" stroke="#9fb3c8" />
<text x="48.00" y="329.33" font-size="11" font-family="Arial" fill="#52606d" text-anchor="end">11.3</text>
<line x1="56" y1="272.00" x2="904" y2="272.00" stroke="#edf2f7" />
<line x1="52" y1="272.00" x2="56" y2="272.00" stroke="#9fb3c8" />
<text x="48.00" y="276.00" font-size="11" font-family="Arial" fill="#52606d" text-anchor="end">20.8</text>
<line x1="56" y1="388.35" x2="904" y2="388.35" stroke="#9fb3c8" stroke-dasharray="4 4" />
<rect x="136.71" y="388.35" width="2.28" height="0.00" fill="#2f9e44" opacity="0.55" />
<rect x="139.99" y="388.35" width="2.28" height="0.61" fill="#d64545" opacity="0.55" />
<rect x="143.26" y="388.35" width="2.28" height="0.05" fill="#d64545" opacity="0.55" />
<rect x="146.53" y="384.06" width="2.28" height="4.29" fill="#2f9e44" opacity="0.55" />
<rect x="149.81" y="381.70" width="2.28" height="6.66" fill="#2f9e44" opacity="0.55" />
<rect x="153.08" y="378.14" width="2.28" height="10.21" fill="#2f9e44" opacity="0.55" />
<rect x="156.36" y="376.27" width="2.28" height="12.08" fill="#2f9e44" opacity="0.55" />
<rect x="159.63" y="375.58" width="2.28" height="12.77" fill="#2f9e44" opacity="0.55" />
<rect x="162.90" y="375.36" width="2.28" height="12.99" fill="#2f9e44" opacity="0.55" />
<rect x="166.18" y="376.15" width="2.28" height="12.20" fill="#2f9e44" opacity="0.55" />
<rect x="169.45" y="379.79" width="2.28" height="8.56" fill="#2f9e44" opacity="0.55" />
<rect x="172.73" y="386.57" width="2.28" height="1.78" fill="#2f9e44" opacity="0.55" />
<rect x="176.00" y="388.35" width="2.28" height="3.04" fill="#d64545" opacity="0.55" />
<rect x="179.28" y="388.35" width="2.28" height="6.03" fill="#d64545" opacity="0.55" />
<rect x="182.55" y="388.35" width="2.28" height="8.20" fill="#d64545" opacity="0.55" />
<rect x="185.82" y="388.35" width="2.28" height="9.57" fill="#d64545" opacity="0.55" />
<rect x="189.10" y="388.35" width="2.28" height="12.91" fill="#d64545" opacity="0.55" />
<rect x="192.37" y="388.35" width="2.28" height="14.53" fill="#d64545" opacity="0.55" />
<rect x="195.65" y="388.35" width="2.28" height="14.96" fill="#d64545" opacity="0.55" />
<rect x="198.92" y="388.35" width="2.28" height="11.18" fill="#d64545" opacity="0.55" />
<rect x="202.19" y="388.35" width="2.28" height="9.20" fill="#d64545" opacity="0.55" />
<rect x="205.47" y="388.35" width="2.28" height="6.03" fill="#d64545" opacity="0.55" />
<rect x="208.74" y="388.35" width="2.28" height="4.67" fill="#d64545" opacity="0.55" />
<rect x="212.02" y="388.35" width="2.28" height="4.67" fill="#d64545" opacity="0.55" />
<rect x="215.29" y="388.35" width="2.28" height="6.54" fill="#d64545" opacity="0.55" />
<rect x="218.57" y="388.35" width="2.28" height="8.10" fill="#d64545" opacity="0.55" />
<rect x="221.84" y="388.35" width="2.28" height="8.51" fill="#d64545" opacity="0.55" />
<rect x="225.11" y="388.35" width="2.28" height="6.97" fill="#d64545" opacity="0.55" />
<rect x="228.39" y="388.35" width="2.28" height="4.95" fill="#d64545" opacity="0.55" />
<rect x="231.66" y="388.35" width="2.28" height="2.72" fill="#d64545" opacity="0.55" />
<rect x="234.94" y="388.35" width="2.28" height="0.13" fill="#d64545" opacity="0.55" />
<rect x="238.21" y="383.08" width="2.28" height="5.27" fill="#2f9e44" opacity="0.55" />
<rect x="241.48" y="380.81" width="2.28" height="7.55" fill="#2f9e44" opacity="0.55" />
<rect x="244.76" y="378.25" width="2.28" height="10.10" fill="#2f9e44" opacity="0.55" />
<rect x="248.03" y="376.35" width="2.28" height="12.00" fill="#2f9e44" opacity="0.55" />
<rect x="251.31" y="376.53" width="2.28" height="11.83" fill="#2f9e44" opacity="0.55" />
<rect x="254.58" y="377.34" width="2.28" height="11.01" fill="#2f9e44" opacity="0.55" />
<rect x="257.85" y="376.15" width="2.28" height="12.21" fill="#2f9e44" opacity="0.55" />
<rect x="261.13" y="375.49" width="2.28" height="12.86" fill="#2f9e44" opacity="0.55" />
<rect x="264.40" y="375.75" width="2.28" height="12.60" fill="#2f9e44" opacity="0.55" />
<rect x="267.68" y="374.72" width="2.28" height="13.64" fill="#2f9e44" opacity="0.55" />
<rect x="270.95" y="375.86" width="2.28" height="12.49" fill="#2f9e44" opacity="0.55" />
<rect x="274.23" y="376.81" width="2.28" height="11.55" fill="#2f9e44" opacity="0.55" />
<rect x="277.50" y="378.11" width="2.28" height="10.24" fill="#2f9e44" opacity="0.55" />
<rect x="280.77" y="377.89" width="2.28" height="10.46" fill="#2f9e44" opacity="0.55" />
<rect x="284.05" y="379.66" width="2.28" height="8.70" fill="#2f9e44" opacity="0.55" />
<rect x="287.32" y="378.83" width="2.28" height="9.52" fill="#2f9e44" opacity="0.55" />
<rect x="290.60" y="376.96" width="2.28" height="11.39" fill="#2f9e44" opacity="0.55" />
<rect x="293.87" y="373.71" width="2.28" height="14.65" fill="#2f9e44" opacity="0.55" />
<rect x="297.14" y="373.55" width="2.28" height="14.81" fill="#2f9e44" opacity="0.55" />
<rect x="300.42" y="377.25" width="2.28" height="11.11" fill="#2f9e44" opacity="0.55" />
<rect x="303.69" y="381.66" width="2.28" height="6.69" fill="#2f9e44" opacity="0.55" />
<rect x="306.97" y="388.35" width="2.28" height="0.34" fill="#d64545" opacity="0.55" />
<rect x="310.24" y="388.35" width="2.28" height="4.38" fill="#d64545" opacity="0.55" />
<rect x="313.51" y="388.35" width="2.28" height="5.13" fill="#d64545" opacity="0.55" />
<rect x="316.79" y="388.35" width="2.28" height="6.66" fill="#d64545" opacity="0.55" />
<rect x="320.06" y="388.35" width="2.28" height="4.83" fill="#d64545" opacity="0.55" />
<rect x="323.34" y="388.35" width="2.28" height="5.59" fill="#d64545" opacity="0.55" />
<rect x="326.61" y="388.35" width="2.28" height="6.56" fill="#d64545" opacity="0.55" />
<rect x="329.89" y="388.35" width="2.28" height="5.71" fill="#d64545" opacity="0.55" />
<rect x="333.16" y="388.01" width="2.28" height="0.34" fill="#2f9e44" opacity="0.55" />
<rect x="336.43" y="386.36" width="2.28" height="2.00" fill="#2f9e44" opacity="0.55" />
<rect x="339.71" y="384.31" width="2.28" height="4.05" fill="#2f9e44" opacity="0.55" />
<rect x="342.98" y="384.17" width="2.28" height="4.18" fill="#2f9e44" opacity="0.55" />
<rect x="346.26" y="386.45" width="2.28" height="1.90" fill="#2f9e44" opacity="0.55" />
<rect x="349.53" y="388.35" width="2.28" height="0.92" fill="#d64545" opacity="0.55" />
<rect x="352.80" y="388.35" width="2.28" height="6.33" fill="#d64545" opacity="0.55" />
<rect x="356.08" y="388.35" width="2.28" height="8.96" fill="#d64545" opacity="0.55" />
<rect x="359.35" y="388.35" width="2.28" height="9.18" fill="#d64545" opacity="0.55" />
<rect x="362.63" y="388.35" width="2.28" height="11.09" fill="#d64545" opacity="0.55" />
<rect x="365.90" y="388.35" width="2.28" height="10.36" fill="#d64545" opacity="0.55" />
<rect x="369.18" y="388.35" width="2.28" height="9.53" fill="#d64545" opacity="0.55" />
<rect x="372.45" y="388.35" width="2.28" height="9.84" fill="#d64545" opacity="0.55" />
<rect x="375.72" y="388.35" width="2.28" height="10.67" fill="#d64545" opacity="0.55" />
<rect x="379.00" y="388.35" width="2.28" height="12.60" fill="#d64545" opacity="0.55" />
<rect x="382.27" y="388.35" width="2.28" height="14.41" fill="#d64545" opacity="0.55" />
<rect x="385.55" y="388.35" width="2.28" height="16.88" fill="#d64545" opacity="0.55" />
<rect x="388.82" y="388.35" width="2.28" height="18.56" fill="#d64545" opacity="0.55" />
<rect x="392.09" y="388.35" width="2.28" height="16.20" fill="#d64545" opacity="0.55" />
<rect x="395.37" y="388.35" width="2.28" height="15.16" fill="#d64545" opacity="0.55" />
<rect x="398.64" y="388.35" width="2.28" height="12.91" fill="#d64545" opacity="0.55" />
<rect x="401.92" y="388.35" width="2.28" height="9.65" fill="#d64545" opacity="0.55" />
<rect x="405.19" y="388.35" width="2.28" height="5.39" fill="#d64545" opacity="0.55" />
<rect x="408.46" y="388.35" width="2.28" height="1.58" fill="#d64545" opacity="0.55" />
<rect x="411.74" y="387.10" width="2.28" height="1.25" fill="#2f9e44" opacity="0.55" />
<rect x="415.01" y="383.50" width="2.28" height="4.85" fill="#2f9e44" opacity="0.55" />
<rect x="418.29" y="380.81" width="2.28" height="7.54" fill="#2f9e44" opacity="0.55" />
<rect x="421.56" y="378.01" width="2.28" height="10.35" fill="#2f9e44" opacity="0.55" />
<rect x="424.84" y="375.97" width="2.28" height="12.38" fill="#2f9e44" opacity="0.55" />
<rect x="428.11" y="374.22" width="2.28" height="14.13" fill="#2f9e44" opacity="0.55" />
<rect x="431.38" y="373.79" width="2.28" height="14.56" fill="#2f9e44" opacity="0.55" />
<rect x="434.66" y="374.76" width="2.28" height="13.59" fill="#2f9e44" opacity="0.55" />
<rect x="437.93" y="377.27" width="2.28" height="11.08" fill="#2f9e44" opacity="0.55" />
<rect x="441.21" y="380.98" width="2.28" height="7.37" fill="#2f9e44" opacity="0.55" />
<rect x="444.48" y="384.24" width="2.28" height="4.11" fill="#2f9e44" opacity="0.55" />
<rect x="447.75" y="387.06" width="2.28" height="1.29" fill="#2f9e44" opacity="0.55" />
<rect x="451.03" y="388.35" width="2.28" height="4.69" fill="#d64545" opacity="0.55" />
<rect x="454.30" y="388.35" width="2.28" height="10.96" fill="#d64545" opacity="0.55" />
<rect x="457.58" y="388.35" width="2.28" height="16.04" fill="#d64545" opacity="0.55" />
<rect x="460.85" y="388.35" width="2.28" height="16.65" fill="#d64545" opacity="0.55" />
<rect x="464.12" y="388.35" width="2.28" height="15.41" fill="#d64545" opacity="0.55" />
<rect x="467.40" y="388.35" width="2.28" height="14.59" fill="#d64545" opacity="0.55" />
<rect x="470.67" y="388.35" width="2.28" height="13.35" fill="#d64545" opacity="0.55" />
<rect x="473.95" y="388.35" width="2.28" height="12.05" fill="#d64545" opacity="0.55" />
<rect x="477.22" y="388.35" width="2.28" height="10.42" fill="#d64545" opacity="0.55" />
<rect x="480.50" y="388.35" width="2.28" height="8.63" fill="#d64545" opacity="0.55" />
<rect x="483.77" y="388.35" width="2.28" height="3.76" fill="#d64545" opacity="0.55" />
<rect x="487.04" y="386.91" width="2.28" height="1.44" fill="#2f9e44" opacity="0.55" />
<rect x="490.32" y="383.15" width="2.28" height="5.21" fill="#2f9e44" opacity="0.55" />
<rect x="493.59" y="379.47" width="2.28" height="8.88" fill="#2f9e44" opacity="0.55" />
<rect x="496.87" y="377.43" width="2.28" height="10.93" fill="#2f9e44" opacity="0.55" />
<rect x="500.14" y="379.61" width="2.28" height="8.74" fill="#2f9e44" opacity="0.55" />
<rect x="503.41" y="377.86" width="2.28" height="10.49" fill="#2f9e44" opacity="0.55" />
<rect x="506.69" y="378.04" width="2.28" height="10.32" fill="#2f9e44" opacity="0.55" />
<rect x="509.96" y="379.08" width="2.28" height="9.27" fill="#2f9e44" opacity="0.55" />
<rect x="513.24" y="377.74" width="2.28" height="10.61" fill="#2f9e44" opacity="0.55" />
<rect x="516.51" y="378.42" width="2.28" height="9.94" fill="#2f9e44" opacity="0.55" />
<rect x="519.79" y="377.10" width="2.28" height="11.26" fill="#2f9e44" opacity="0.55" />
<rect x="523.06" y="379.40" width="2.28" height="8.95" fill="#2f9e44" opacity="0.55" />
<rect x="526.33" y="382.85" width="2.28" height="5.50" fill="#2f9e44" opacity="0.55" />
<rect x="529.61" y="386.17" width="2.28" height="2.18" fill="#2f9e44" opacity="0.55" />
<rect x="532.88" y="385.66" width="2.28" height="2.70" fill="#2f9e44" opacity="0.55" />
<rect x="536.16" y="386.52" width="2.28" height="1.83" fill="#2f9e44" opacity="0.55" />
<rect x="539.43" y="384.80" width="2.28" height="3.56" fill="#2f9e44" opacity="0.55" />
<rect x="542.70" y="383.77" width="2.28" height="4.58" fill="#2f9e44" opacity="0.55" />
<rect x="545.98" y="383.59" width="2.28" height="4.77" fill="#2f9e44" opacity="0.55" />
<rect x="549.25" y="385.14" width="2.28" height="3.21" fill="#2f9e44" opacity="0.55" />
<rect x="552.53" y="387.38" width="2.28" height="0.97" fill="#2f9e44" opacity="0.55" />
<rect x="555.80" y="388.35" width="2.28" height="2.94" fill="#d64545" opacity="0.55" />
<rect x="559.07" y="388.35" width="2.28" height="4.10" fill="#d64545" opacity="0.55" />
<rect x="562.35" y="388.35" width="2.28" height="4.16" fill="#d64545" opacity="0.55" />
<rect x="565.62" y="388.35" width="2.28" height="5.72" fill="#d64545" opacity="0.55" />
<rect x="568.90" y="388.35" width="2.28" height="4.22" fill="#d64545" opacity="0.55" />
<rect x="572.17" y="388.35" width="2.28" height="1.53" fill="#d64545" opacity="0.55" />
<rect x="575.45" y="387.80" width="2.28" height="0.56" fill="#2f9e44" opacity="0.55" />
<rect x="578.72" y="386.19" width="2.28" height="2.16" fill="#2f9e44" opacity="0.55" />
<rect x="581.99" y="386.18" width="2.28" height="2.18" fill="#2f9e44" opacity="0.55" />
<rect x="585.27" y="386.14" width="2.28" height="2.21" fill="#2f9e44" opacity="0.55" />
<rect x="588.54" y="381.65" width="2.28" height="6.70" fill="#2f9e44" opacity="0.55" />
<rect x="591.82" y="381.29" width="2.28" height="7.07" fill="#2f9e44" opacity="0.55" />
<rect x="595.09" y="378.25" width="2.28" height="10.10" fill="#2f9e44" opacity="0.55" />
<rect x="598.36" y="379.18" width="2.28" height="9.17" fill="#2f9e44" opacity="0.55" />
<rect x="601.64" y="384.97" width="2.28" height="3.39" fill="#2f9e44" opacity="0.55" />
<rect x="604.91" y="385.98" width="2.28" height="2.37" fill="#2f9e44" opacity="0.55" />
<rect x="608.19" y="387.04" width="2.28" height="1.32" fill="#2f9e44" opacity="0.55" />
<rect x="611.46" y="388.35" width="2.28" height="1.93" fill="#d64545" opacity="0.55" />
<rect x="614.73" y="388.35" width="2.28" height="3.81" fill="#d64545" opacity="0.55" />
<rect x="618.01" y="388.35" width="2.28" height="2.68" fill="#d64545" opacity="0.55" />
<rect x="621.28" y="388.35" width="2.28" height="2.11" fill="#d64545" opacity="0.55" />
<rect x="624.56" y="388.35" width="2.28" height="1.57" fill="#d64545" opacity="0.55" />
<rect x="627.83" y="388.35" width="2.28" height="1.24" fill="#d64545" opacity="0.55" />
<rect x="631.11" y="388.35" width="2.28" height="1.07" fill="#d64545" opacity="0.55" />
<rect x="634.38" y="387.98" width="2.28" height="0.37" fill="#2f9e44" opacity="0.55" />
<rect x="637.65" y="388.35" width="2.28" height="1.06" fill="#d64545" opacity="0.55" />
<rect x="640.93" y="388.35" width="2.28" height="3.01" fill="#d64545" opacity="0.55" />
<rect x="644.20" y="388.35" width="2.28" height="5.36" fill="#d64545" opacity="0.55" />
<rect x="647.48" y="388.35" width="2.28" height="6.11" fill="#d64545" opacity="0.55" />
<rect x="650.75" y="388.35" width="2.28" height="5.12" fill="#d64545" opacity="0.55" />
<rect x="654.02" y="388.35" width="2.28" height="3.59" fill="#d64545" opacity="0.55" />
<rect x="657.30" y="388.35" width="2.28" height="1.80" fill="#d64545" opacity="0.55" />
<rect x="660.57" y="388.35" width="2.28" height="3.35" fill="#d64545" opacity="0.55" />
<rect x="663.85" y="388.35" width="2.28" height="5.02" fill="#d64545" opacity="0.55" />
<rect x="667.12" y="388.35" width="2.28" height="1.72" fill="#d64545" opacity="0.55" />
<rect x="670.40" y="388.35" width="2.28" height="1.62" fill="#d64545" opacity="0.55" />
<rect x="673.67" y="388.30" width="2.28" height="0.06" fill="#2f9e44" opacity="0.55" />
<rect x="676.94" y="380.93" width="2.28" height="7.42" fill="#2f9e44" opacity="0.55" />
<rect x="680.22" y="374.85" width="2.28" height="13.50" fill="#2f9e44" opacity="0.55" />
<rect x="683.49" y="368.90" width="2.28" height="19.46" fill="#2f9e44" opacity="0.55" />
<rect x="686.77" y="367.14" width="2.28" height="21.22" fill="#2f9e44" opacity="0.55" />
<rect x="690.04" y="365.93" width="2.28" height="22.43" fill="#2f9e44" opacity="0.55" />
<rect x="693.31" y="371.50" width="2.28" height="16.86" fill="#2f9e44" opacity="0.55" />
<rect x="696.59" y="372.69" width="2.28" height="15.66" fill="#2f9e44" opacity="0.55" />
<rect x="699.86" y="372.99" width="2.28" height="15.36" fill="#2f9e44" opacity="0.55" />
<rect x="703.14" y="372.25" width="2.28" height="16.11" fill="#2f9e44" opacity="0.55" />
<rect x="706.41" y="369.21" width="2.28" height="19.15" fill="#2f9e44" opacity="0.55" />
<rect x="709.68" y="370.40" width="2.28" height="17.95" fill="#2f9e44" opacity="0.55" />
<rect x="712.96" y="376.96" width="2.28" height="11.39" fill="#2f9e44" opacity="0.55" />
<rect x="716.23" y="381.78" width="2.28" height="6.57" fill="#2f9e44" opacity="0.55" />
<rect x="719.51" y="384.76" width="2.28" height="3.59" fill="#2f9e44" opacity="0.55" />
<rect x="722.78" y="388.35" width="2.28" height="0.48" fill="#d64545" opacity="0.55" />
<rect x="726.06" y="388.35" width="2.28" height="3.14" fill="#d64545" opacity="0.55" />
<rect x="729.33" y="388.35" width="2.28" height="8.36" fill="#d64545" opacity="0.55" />
<rect x="732.60" y="388.35" width="2.28" height="9.76" fill="#d64545" opacity="0.55" />
<rect x="735.88" y="388.35" width="2.28" height="9.53" fill="#d64545" opacity="0.55" />
<rect x="739.15" y="388.35" width="2.28" height="0.58" fill="#d64545" opacity="0.55" />
<rect x="742.43" y="384.56" width="2.28" height="3.80" fill="#2f9e44" opacity="0.55" />
<rect x="745.70" y="383.62" width="2.28" height="4.74" fill="#2f9e44" opacity="0.55" />
<rect x="748.97" y="382.68" width="2.28" height="5.68" fill="#2f9e44" opacity="0.55" />
<rect x="752.25" y="384.02" width="2.28" height="4.34" fill="#2f9e44" opacity="0.55" />
<rect x="755.52" y="385.36" width="2.28" height="2.99" fill="#2f9e44" opacity="0.55" />
<rect x="758.80" y="388.35" width="2.28" height="0.51" fill="#d64545" opacity="0.55" />
<rect x="762.07" y="388.35" width="2.28" height="12.87" fill="#d64545" opacity="0.55" />
<rect x="765.34" y="388.35" width="2.28" height="22.41" fill="#d64545" opacity="0.55" />
<rect x="768.62" y="388.35" width="2.28" height="31.01" fill="#d64545" opacity="0.55" />
<rect x="771.89" y="388.35" width="2.28" height="35.07" fill="#d64545" opacity="0.55" />
<rect x="775.17" y="388.35" width="2.28" height="29.85" fill="#d64545" opacity="0.55" />
<rect x="778.44" y="388.35" width="2.28" height="22.44" fill="#d64545" opacity="0.55" />
<rect x="781.72" y="388.35" width="2.28" height="16.54" fill="#d64545" opacity="0.55" />
<rect x="784.99" y="388.35" width="2.28" height="12.05" fill="#d64545" opacity="0.55" />
<rect x="788.26" y="388.35" width="2.28" height="10.17" fill="#d64545" opacity="0.55" />
<rect x="791.54" y="388.35" width="2.28" height="9.67" fill="#d64545" opacity="0.55" />
<rect x="794.81" y="386.78" width="2.28" height="1.57" fill="#2f9e44" opacity="0.55" />
<rect x="798.09" y="368.36" width="2.28" height="19.99" fill="#2f9e44" opacity="0.55" />
<rect x="801.36" y="348.34" width="2.28" height="40.01" fill="#2f9e44" opacity="0.55" />
<rect x="804.63" y="332.38" width="2.28" height="55.97" fill="#2f9e44" opacity="0.55" />
<rect x="807.91" y="330.02" width="2.28" height="58.34" fill="#2f9e44" opacity="0.55" />
<rect x="811.18" y="336.60" width="2.28" height="51.76" fill="#2f9e44" opacity="0.55" />
<rect x="814.46" y="348.73" width="2.28" height="39.62" fill="#2f9e44" opacity="0.55" />
<rect x="817.73" y="359.52" width="2.28" height="28.83" fill="#2f9e44" opacity="0.55" />
<rect x="821.01" y="366.59" width="2.28" height="21.76" fill="#2f9e44" opacity="0.55" />
<rect x="824.28" y="376.46" width="2.28" height="11.89" fill="#2f9e44" opacity="0.55" />
<rect x="827.55" y="383.33" width="2.28" height="5.02" fill="#2f9e44" opacity="0.55" />
<rect x="830.83" y="388.35" width="2.28" height="0.99" fill="#d64545" opacity="0.55" />
<rect x="834.10" y="388.35" width="2.28" height="8.02" fill="#d64545" opacity="0.55" />
<rect x="837.38" y="388.35" width="2.28" height="8.81" fill="#d64545" opacity="0.55" />
<rect x="840.65" y="388.35" width="2.28" height="8.87" fill="#d64545" opacity="0.55" />
<rect x="843.92" y="388.35" width="2.28" height="7.78" fill="#d64545" opacity="0.55" />
<rect x="847.20" y="388.35" width="2.28" height="9.92" fill="#d64545" opacity="0.55" />
<rect x="850.47" y="388.35" width="2.28" height="11.57" fill="#d64545" opacity="0.55" />
<rect x="853.75" y="388.35" width="2.28" height="14.50" fill="#d64545" opacity="0.55" />
<rect x="857.02" y="388.35" width="2.28" height="17.71" fill="#d64545" opacity="0.55" />
<rect x="860.29" y="388.35" width="2.28" height="17.64" fill="#d64545" opacity="0.55" />
<rect x="863.57" y="388.35" width="2.28" height="16.84" fill="#d64545" opacity="0.55" />
<rect x="866.84" y="388.35" width="2.28" height="14.57" fill="#d64545" opacity="0.55" />
<rect x="870.12" y="388.35" width="2.28" height="13.85" fill="#d64545" opacity="0.55" />
<rect x="873.39" y="388.35" width="2.28" height="10.35" fill="#d64545" opacity="0.55" />
<rect x="876.67" y="388.35" width="2.28" height="7.66" fill="#d64545" opacity="0.55" />
<rect x="879.94" y="388.35" width="2.28" height="7.65" fill="#d64545" opacity="0.55" />
<rect x="883.21" y="388.35" width="2.28" height="6.22" fill="#d64545" opacity="0.55" />
<rect x="886.49" y="388.35" width="2.28" height="6.54" fill="#d64545" opacity="0.55" />
<rect x="889.76" y="388.35" width="2.28" height="6.72" fill="#d64545" opacity="0.55" />
<rect x="893.04" y="388.35" width="2.28" height="5.25" fill="#d64545" opacity="0.55" />
<rect x="896.31" y="388.35" width="2.28" height="3.66" fill="#d64545" opacity="0.55" />
<rect x="899.58" y="388.35" width="2.28" height="2.43" fill="#d64545" opacity="0.55" />
<rect x="902.86" y="388.35" width="2.28" height="6.58" fill="#d64545" opacity="0.55" />
<polyline fill="none" stroke="#1f77b4" stroke-width="2" points="137.85,394.13 141.13,394.88 144.40,394.34 147.68,388.93 150.95,384.90 154.22,378.79 157.50,373.90 160.77,370.02 164.05,366.54 167.32,364.29 170.59,365.78 173.87,372.12 177.14,377.70 180.42,382.19 183.69,386.42 186.97,390.19 190.24,396.75 193.51,402.00 196.79,406.18 200.06,405.19 203.34,405.50 206.61,403.85 209.88,403.65 213.16,404.82 216.43,408.33 219.71,411.91 222.98,414.45 226.25,414.65 229.53,413.86 232.80,412.32 236.08,409.77 239.35,403.04 242.63,398.88 245.90,393.80 249.17,388.90 252.45,386.12 255.72,384.18 259.00,379.93 262.27,376.06 265.54,373.17 268.82,368.73 272.09,366.75 275.37,364.81 278.64,363.55 281.92,360.72 285.19,360.31 288.46,357.10 291.74,352.38 295.01,345.47 298.29,341.61 301.56,342.53 304.83,345.27 308.11,352.39 311.38,357.53 314.66,359.55 317.93,362.75 321.20,362.13 324.48,364.29 327.75,366.90 331.03,367.48 334.30,361.34 337.58,359.18 340.85,356.12 344.12,354.94 347.40,356.75 350.67,359.80 353.95,366.79 357.22,371.66 360.49,374.17 363.77,378.86 367.04,380.72 370.32,382.27 373.59,385.04 376.86,388.54 380.14,393.62 383.41,399.04 386.69,405.72 389.96,412.04 393.24,413.74 396.51,416.48 399.78,417.46 403.06,416.61 406.33,413.70 409.61,410.28 412.88,407.14 416.15,402.32 419.43,397.75 422.70,392.36 425.98,387.23 429.25,381.94 432.53,377.87 435.80,375.45 439.07,375.19 442.35,377.06 445.62,379.29 448.90,381.78 452.17,388.94 455.44,397.95 458.72,407.04 461.99,411.81 465.27,414.43 468.54,417.25 471.81,419.35 475.09,421.06 478.36,422.03 481.64,422.41 484.91,418.47 488.19,412.91 491.46,407.84 494.73,401.95 498.01,397.17 501.28,397.17 504.56,392.80 507.83,390.39 511.10,389.12 514.38,385.13 517.65,383.32 520.93,379.18 524.20,379.25 527.47,381.33 530.75,384.10 534.02,382.91 537.30,383.32 540.57,380.71 543.85,378.53 547.12,377.16 550.39,377.91 553.67,379.91 556.94,384.55 560.22,386.74 563.49,387.84 566.76,390.84 570.04,390.38 573.31,388.08 576.59,385.85 579.86,383.71 583.14,383.15 586.41,382.56 589.68,376.39 592.96,374.26 596.23,368.70 599.51,367.34 602.78,372.28 606.05,372.70 609.33,373.42 612.60,377.15 615.88,379.98 619.15,379.52 622.42,379.47 625.70,379.33 628.97,379.31 632.25,379.40 635.52,377.87 638.80,379.56 642.07,382.27 645.34,385.96 648.62,388.23 651.89,388.52 655.17,387.89 658.44,386.55 661.71,388.93 664.99,391.86 668.26,389.00 671.54,389.30 674.81,387.61 678.08,378.39 681.36,368.93 684.63,358.12 687.91,351.05 691.18,344.23 694.46,345.59 697.73,342.87 701.00,339.33 704.28,334.55 707.55,326.73 710.83,323.44 714.10,327.15 717.37,330.33 720.65,332.41 723.92,336.60 727.20,340.05 730.47,347.36 733.75,351.20 737.02,353.35 740.29,344.55 743.57,339.22 746.84,337.10 750.12,334.74 753.39,335.00 756.66,335.59 759.94,339.22 763.21,354.80 766.49,369.95 769.76,386.30 773.03,399.13 776.31,401.37 779.58,399.56 782.86,397.81 786.13,396.32 789.41,396.99 792.68,398.91 795.95,387.27 799.23,363.85 802.50,333.83 805.78,303.88 809.05,286.93 812.32,280.57 815.60,282.80 818.87,286.38 822.15,288.01 825.42,294.91 828.69,300.53 831.97,306.78 835.24,315.81 838.52,318.81 841.79,321.09 845.07,321.94 848.34,326.56 851.61,331.10 854.89,337.66 858.16,345.30 861.44,349.64 864.71,353.05 867.98,354.42 871.26,357.16 874.53,356.25 877.81,355.47 881.08,357.37 884.36,357.51 887.63,359.46 890.90,361.31 894.18,361.16 897.45,360.49 900.73,359.86 904.00,365.65" />
<polyline fill="none" stroke="#ff7f0e" stroke-width="2" points="137.85,394.13 141.13,394.28 144.40,394.29 147.68,393.22 150.95,391.55 154.22,389.00 157.50,385.98 160.77,382.79 164.05,379.54 167.32,376.49 170.59,374.35 173.87,373.90 177.14,374.66 180.42,376.17 183.69,378.22 186.97,380.61 190.24,383.84 193.51,387.47 196.79,391.21 200.06,394.01 203.34,396.31 206.61,397.81 209.88,398.98 213.16,400.15 216.43,401.79 219.71,403.81 222.98,405.94 226.25,407.68 229.53,408.92 232.80,409.60 236.08,409.63 239.35,408.31 242.63,406.43 245.90,403.90 249.17,400.90 252.45,397.94 255.72,395.19 259.00,392.14 262.27,388.92 265.54,385.77 268.82,382.36 272.09,379.24 275.37,376.35 278.64,373.79 281.92,371.18 285.19,369.01 288.46,366.62 291.74,363.78 295.01,360.12 298.29,356.41 301.56,353.64 304.83,351.96 308.11,352.05 311.38,353.14 314.66,354.43 317.93,356.09 321.20,357.30 324.48,358.70 327.75,360.34 331.03,361.77 334.30,361.68 337.58,361.18 340.85,360.17 344.12,359.12 347.40,358.65 350.67,358.88 353.95,360.46 357.22,362.70 360.49,365.00 363.77,367.77 367.04,370.36 370.32,372.74 373.59,375.20 376.86,377.87 380.14,381.02 383.41,384.62 386.69,388.84 389.96,393.48 393.24,397.53 396.51,401.32 399.78,404.55 403.06,406.96 406.33,408.31 409.61,408.70 412.88,408.39 416.15,407.18 419.43,405.29 422.70,402.71 425.98,399.61 429.25,396.08 432.53,392.44 435.80,389.04 439.07,386.27 442.35,384.43 445.62,383.40 448.90,383.08 452.17,384.25 455.44,386.99 458.72,391.00 461.99,395.16 465.27,399.01 468.54,402.66 471.81,406.00 475.09,409.01 478.36,411.61 481.64,413.77 484.91,414.71 488.19,414.35 491.46,413.05 494.73,410.83 498.01,408.10 501.28,405.91 504.56,403.29 507.83,400.71 511.10,398.39 514.38,395.74 517.65,393.26 520.93,390.44 524.20,388.20 527.47,386.83 530.75,386.28 534.02,385.61 537.30,385.15 540.57,384.26 543.85,383.12 547.12,381.92 550.39,381.12 553.67,380.88 556.94,381.61 560.22,382.64 563.49,383.68 566.76,385.11 570.04,386.16 573.31,386.55 576.59,386.41 579.86,385.87 583.14,385.32 586.41,384.77 589.68,383.09 592.96,381.33 596.23,378.80 599.51,376.51 602.78,375.66 606.05,375.07 609.33,374.74 612.60,375.22 615.88,376.17 619.15,376.84 622.42,377.37 625.70,377.76 628.97,378.07 632.25,378.34 635.52,378.24 638.80,378.51 642.07,379.26 645.34,380.60 648.62,382.13 651.89,383.41 655.17,384.30 658.44,384.75 661.71,385.59 664.99,386.84 668.26,387.27 671.54,387.68 674.81,387.67 678.08,385.81 681.36,382.44 684.63,377.57 687.91,372.27 691.18,366.66 694.46,362.45 697.73,358.53 701.00,354.69 704.28,350.66 707.55,345.88 710.83,341.39 714.10,338.54 717.37,336.90 720.65,336.00 723.92,336.12 727.20,336.91 730.47,339.00 733.75,341.44 737.02,343.82 740.29,343.97 743.57,343.02 746.84,341.83 750.12,340.41 753.39,339.33 756.66,338.58 759.94,338.71 763.21,341.93 766.49,347.53 769.76,355.28 773.03,364.05 776.31,371.52 779.58,377.13 782.86,381.26 786.13,384.27 789.41,386.82 792.68,389.24 795.95,388.84 799.23,383.85 802.50,373.84 805.78,359.85 809.05,345.27 812.32,332.33 815.60,322.42 818.87,315.21 822.15,309.77 825.42,306.80 828.69,305.54 831.97,305.79 835.24,307.80 838.52,310.00 841.79,312.22 845.07,314.16 848.34,316.64 851.61,319.53 854.89,323.16 858.16,327.59 861.44,332.00 864.71,336.21 867.98,339.85 871.26,343.31 874.53,345.90 877.81,347.81 881.08,349.73 884.36,351.28 887.63,352.92 890.90,354.60 894.18,355.91 897.45,356.82 900.73,357.43 904.00,359.08" />
<text x="754.00" y="290.00" font-size="13" font-family="Arial" fill="#1f77b4" text-anchor="start">MACD</text>
<text x="818.00" y="290.00" font-size="13" font-family="Arial" fill="#ff7f0e" text-anchor="start">Signal</text>
<line x1="56" y1="624" x2="904" y2="624" stroke="#cbd2d9" />
<line x1="56" y1="484" x2="56" y2="624" stroke="#cbd2d9" />
<text x="16.00" y="476.00" font-size="12" font-family="Arial" fill="#52606d" text-anchor="start">KD</text>
<line x1="56" y1="624.00" x2="904" y2="624.00" stroke="#edf2f7" />
<line x1="52" y1="624.00" x2="56" y2="624.00" stroke="#9fb3c8" />
<text x="48.00" y="628.00" font-size="11" font-family="Arial" fill="#52606d" text-anchor="end">-5.00</text>
<line x1="56" y1="577.33" x2="904" y2="577.33" stroke="#edf2f7" />
<line x1="52" y1="577.33" x2="56" y2="577.33" stroke="#9fb3c8" />
<text x="48.00" y="581.33" font-size="11" font-family="Arial" fill="#52606d" text-anchor="end">31.7</text>
<line x1="56" y1="530.67" x2="904" y2="530.67" stroke="#edf2f7" />
<line x1="52" y1="530.67" x2="56" y2="530.67" stroke="#9fb3c8" />
<text x="48.00" y="534.67" font-size="11" font-family="Arial" fill="#52606d" text-anchor="end">68.3</text>
<line x1="56" y1="484.00" x2="904" y2="484.00" stroke="#edf2f7" />
<line x1="52" y1="484.00" x2="56" y2="484.00" stroke="#9fb3c8" />
<text x="48.00" y="488.00" font-size="11" font-family="Arial" fill="#52606d" text-anchor="end">105</text>
<line x1="56.00" y1="624" x2="56.00" y2="628" stroke="#9fb3c8" />
<text x="56.00" y="642.00" font-size="11" font-family="Arial" fill="#52606d" text-anchor="middle">06/23</text>
<line x1="226.25" y1="624" x2="226.25" y2="628" stroke="#9fb3c8" />
<text x="226.25" y="642.00" font-size="11" font-family="Arial" fill="#52606d" text-anchor="middle">09/04</text>
<line x1="396.51" y1="624" x2="396.51" y2="628" stroke="#9fb3c8" />
<text x="396.51" y="642.00" font-size="11" font-family="Arial" fill="#52606d" text-anchor="middle">11/21</text>
<line x1="563.49" y1="624" x2="563.49" y2="628" stroke="#9fb3c8" />
<text x="563.49" y="642.00" font-size="11" font-family="Arial" fill="#52606d" text-anchor="middle">02/04</text>
<line x1="733.75" y1="624" x2="733.75" y2="628" stroke="#9fb3c8" />
<text x="733.75" y="642.00" font-size="11" font-family="Arial" fill="#52606d" text-anchor="middle">05/04</text>
<line x1="904.00" y1="624" x2="904.00" y2="628" stroke="#9fb3c8" />
<text x="904.00" y="642.00" font-size="11" font-family="Arial" fill="#52606d" text-anchor="middle">07/16</text>
<line x1="56" y1="592.18" x2="904" y2="592.18" stroke="#f0b429" stroke-dasharray="5 5" />
<text x="912.00" y="596.18" font-size="10" font-family="Arial" fill="#8d2b0b" text-anchor="start">20.0</text>
<line x1="56" y1="515.82" x2="904" y2="515.82" stroke="#f0b429" stroke-dasharray="5 5" />
<text x="912.00" y="519.82" font-size="10" font-family="Arial" fill="#8d2b0b" text-anchor="start">80.0</text>
<polyline fill="none" stroke="#2ca02c" stroke-width="2" points="82.19,580.35 85.47,601.23 88.74,616.81 92.02,635.51 95.29,645.15 98.56,668.82 101.84,679.03 105.11,683.85 108.39,684.52 111.66,679.87 114.93,690.35 118.21,692.98 121.48,694.72 124.76,697.55 128.03,693.82 131.31,678.71 134.58,670.04 137.85,654.43 141.13,656.66 144.40,651.13 147.68,624.67 150.95,607.89 154.22,588.33 157.50,577.44 160.77,573.04 164.05,568.00 167.32,565.34 170.59,573.97 173.87,605.53 177.14,624.66 180.42,635.25 183.69,643.54 186.97,649.52 190.24,651.34 193.51,650.69 196.79,650.08 200.06,638.48 203.34,637.23 206.61,626.99 209.88,627.81 213.16,640.53 216.43,664.27 219.71,674.92 222.98,679.94 226.25,674.66 229.53,667.44 232.80,658.93 236.08,647.09 239.35,618.87 242.63,607.07 245.90,592.42 249.17,579.26 252.45,579.32 255.72,580.87 259.00,571.36 262.27,567.04 265.54,577.04 268.82,577.69 272.09,591.29 275.37,597.80 278.64,603.54 281.92,599.54 285.19,602.57 288.46,600.98 291.74,588.92 295.01,578.05 298.29,573.70 301.56,580.11 304.83,588.44 308.11,614.62 311.38,625.04 314.66,625.10 317.93,628.89 321.20,621.41 324.48,623.62 327.75,627.17 331.03,624.03 334.30,599.08 337.58,590.30 340.85,582.82 344.12,582.49 347.40,592.00 350.67,603.64 353.95,629.10 357.22,628.61 360.49,623.53 363.77,628.29 367.04,625.35 370.32,623.40 373.59,627.55 376.86,636.82 380.14,651.00 383.41,659.30 386.69,662.47 389.96,662.73 393.24,653.57 396.51,651.93 399.78,649.36 403.06,643.12 406.33,630.50 409.61,617.00 412.88,607.63 416.15,593.70 419.43,585.37 422.70,573.67 425.98,566.78 429.25,565.95 432.53,567.36 435.80,571.01 439.07,579.03 442.35,604.50 445.62,637.33 448.90,645.25 452.17,652.68 455.44,653.61 458.72,652.50 461.99,646.86 465.27,641.45 468.54,641.19 471.81,642.81 475.09,647.34 478.36,652.09 481.64,670.57 484.91,649.99 488.19,627.99 491.46,611.23 494.73,593.72 498.01,584.46 501.28,593.23 504.56,584.22 507.83,581.98 511.10,586.66 514.38,586.58 517.65,598.54 520.93,591.60 524.20,603.92 527.47,622.31 530.75,645.85 534.02,641.81 537.30,646.52 540.57,632.39 543.85,621.75 547.12,616.37 550.39,621.58 553.67,631.65 556.94,647.01 560.22,650.30 563.49,649.51 566.76,658.92 570.04,645.96 573.31,629.53 576.59,615.05 579.86,602.64 583.14,600.44 586.41,597.96 589.68,581.13 592.96,579.28 596.23,566.52 599.51,580.64 602.78,616.22 606.05,623.47 609.33,629.27 612.60,627.58 615.88,625.77 619.15,615.75 622.42,609.75 625.70,605.07 628.97,598.82 632.25,594.66 635.52,585.71 638.80,591.24 642.07,620.86 645.34,634.94 648.62,641.19 651.89,638.06 655.17,631.80 658.44,623.45 661.71,634.58 664.99,650.54 668.26,631.07 671.54,633.62 674.81,630.91 678.08,602.17 681.36,581.18 684.63,567.33 687.91,560.16 691.18,553.14 694.46,563.57 697.73,561.59 701.00,556.24 704.28,551.44 707.55,544.85 710.83,553.16 714.10,572.63 717.37,584.53 720.65,589.79 723.92,603.00 727.20,620.28 730.47,635.20 733.75,638.37 737.02,636.79 740.29,606.47 743.57,591.42 746.84,584.91 750.12,577.56 753.39,576.17 756.66,574.74 759.94,582.47 763.21,604.49 766.49,615.09 769.76,624.00 773.03,628.87 776.31,620.48 779.58,609.73 782.86,602.24 786.13,597.24 789.41,592.22 792.68,592.57 795.95,570.16 799.23,551.27 802.50,540.38 805.78,535.90 809.05,537.28 812.32,542.44 815.60,550.28 818.87,555.97 822.15,559.41 825.42,579.95 828.69,592.63 831.97,602.09 835.24,614.48 838.52,613.67 841.79,609.81 845.07,602.83 848.34,608.89 851.61,613.64 854.89,624.65 858.16,636.44 861.44,637.79 864.71,637.23 867.98,631.05 871.26,631.29 874.53,618.67 877.81,611.82 881.08,612.90 884.36,609.10 887.63,618.72 890.90,629.61 894.18,630.21 897.45,627.65 900.73,626.93 904.00,620.94" />
<polyline fill="none" stroke="#d62728" stroke-width="2" points="82.19,562.78 85.47,575.60 88.74,589.34 92.02,604.73 95.29,618.20 98.56,635.07 101.84,649.73 105.11,661.10 108.39,668.91 111.66,672.56 114.93,678.49 118.21,683.32 121.48,687.12 124.76,690.60 128.03,691.67 131.31,687.35 134.58,681.58 137.85,672.53 141.13,667.24 144.40,661.87 147.68,649.47 150.95,635.61 154.22,619.85 157.50,605.71 160.77,594.82 164.05,585.88 167.32,579.04 170.59,577.35 173.87,586.74 177.14,599.38 180.42,611.34 183.69,622.07 186.97,631.22 190.24,637.93 193.51,642.18 196.79,644.81 200.06,642.70 203.34,640.88 206.61,636.25 209.88,633.44 213.16,635.80 216.43,645.29 219.71,655.17 222.98,663.42 226.25,667.17 229.53,667.26 232.80,664.48 236.08,658.68 239.35,645.41 242.63,632.63 245.90,619.23 249.17,605.91 252.45,597.04 255.72,591.65 259.00,584.89 262.27,578.94 265.54,578.31 268.82,578.10 272.09,582.50 275.37,587.60 278.64,592.91 281.92,595.12 285.19,597.60 288.46,598.73 291.74,595.46 295.01,589.65 298.29,584.34 301.56,582.93 304.83,584.77 308.11,594.72 311.38,604.82 314.66,611.58 317.93,617.35 321.20,618.70 324.48,620.34 327.75,622.62 331.03,623.09 334.30,615.09 337.58,606.82 340.85,598.82 344.12,593.38 347.40,592.92 350.67,596.49 353.95,607.36 357.22,614.44 360.49,617.47 363.77,621.08 367.04,622.50 370.32,622.80 373.59,624.38 376.86,628.53 380.14,636.02 383.41,643.78 386.69,650.01 389.96,654.25 393.24,654.02 396.51,653.33 399.78,652.00 403.06,649.04 406.33,642.86 409.61,634.24 412.88,625.37 416.15,614.81 419.43,605.00 422.70,594.56 425.98,585.30 429.25,578.85 432.53,575.02 435.80,573.68 439.07,575.47 442.35,585.14 445.62,602.54 448.90,616.78 452.17,628.75 455.44,637.03 458.72,642.19 461.99,643.75 465.27,642.98 468.54,642.38 471.81,642.53 475.09,644.13 478.36,646.78 481.64,654.71 484.91,653.14 488.19,644.75 491.46,633.58 494.73,620.29 498.01,608.35 501.28,603.31 504.56,596.94 507.83,591.96 511.10,590.19 514.38,588.99 517.65,592.17 520.93,591.98 524.20,595.96 527.47,604.75 530.75,618.45 534.02,626.23 537.30,633.00 540.57,632.79 543.85,629.11 547.12,624.86 550.39,623.77 553.67,626.39 556.94,633.26 560.22,638.94 563.49,642.47 566.76,647.95 570.04,647.29 573.31,641.37 576.59,632.60 579.86,622.61 583.14,615.22 586.41,609.47 589.68,600.02 592.96,593.11 596.23,584.24 599.51,583.04 602.78,594.10 606.05,603.89 609.33,612.35 612.60,617.42 615.88,620.21 619.15,618.72 622.42,615.73 625.70,612.18 628.97,607.73 632.25,603.37 635.52,597.48 638.80,595.40 642.07,603.89 645.34,614.24 648.62,623.23 651.89,628.17 655.17,629.38 658.44,627.40 661.71,629.80 664.99,636.71 668.26,634.83 671.54,634.43 674.81,633.25 678.08,622.89 681.36,608.99 684.63,595.10 687.91,583.45 691.18,573.35 694.46,570.09 697.73,567.26 701.00,563.58 704.28,559.54 707.55,554.64 710.83,554.15 714.10,560.31 717.37,568.38 720.65,575.52 723.92,584.68 727.20,596.54 730.47,609.43 733.75,619.08 737.02,624.98 740.29,618.81 743.57,609.68 746.84,601.42 750.12,593.47 753.39,587.70 756.66,583.38 759.94,583.08 763.21,590.22 766.49,598.51 769.76,607.01 773.03,614.29 776.31,616.36 779.58,614.15 782.86,610.18 786.13,605.86 789.41,601.32 792.68,598.40 795.95,588.99 799.23,576.42 802.50,564.40 805.78,554.90 809.05,549.03 812.32,546.83 815.60,547.98 818.87,550.64 822.15,553.57 825.42,562.36 828.69,572.45 831.97,582.33 835.24,593.05 838.52,599.92 841.79,603.22 845.07,603.09 848.34,605.02 851.61,607.89 854.89,613.48 858.16,621.13 861.44,626.69 864.71,630.20 867.98,630.49 871.26,630.75 874.53,626.73 877.81,621.76 881.08,618.80 884.36,615.57 887.63,616.62 890.90,620.95 894.18,624.04 897.45,625.24 900.73,625.80 904.00,624.18" />
<text x="824.00" y="502.00" font-size="13" font-family="Arial" fill="#2ca02c" text-anchor="start">K</text>
<text x="860.00" y="502.00" font-size="13" font-family="Arial" fill="#d62728" text-anchor="start">D</text>
</svg>