<svg xmlns="http://www.w3.org/2000/svg" width="960" height="680" viewBox="0 0 960 680"><rect width="100%" height="100%" fill="white" />
<text x="56.00" y="32.00" font-size="20" font-family="Arial" fill="#1f2933" text-anchor="start">AMD Technical Indicators</text>
<line x1="56" y1="220" x2="904" y2="220" stroke="#cbd2d9" />
<line x1="56" y1="58" x2="56" y2="220" stroke="#cbd2d9" />
<text x="16.00" y="50.00" font-size="12" font-family="Arial" fill="#52606d" text-anchor="start">RSI14</text>
<line x1="56" y1="220.00" x2="904" y2="220.00" stroke="#edf2f7" />
<line x1="52" y1="220.00" x2="56" y2="220.00" stroke="#9fb3c8" />
<text x="48.00" y="224.00" font-size="11" font-family="Arial" fill="#52606d" text-anchor="end">-5.00</text>
<line x1="56" y1="166.00" x2="904" y2="166.00" stroke="#edf2f7" />
<line x1="52" y1="166.00" x2="56" y2="166.00" stroke="#9fb3c8" />
<text x="48.00" y="170.00" font-size="11" font-family="Arial" fill="#52606d" text-anchor="end">31.7</text>
<line x1="56" y1="112.00" x2="904" y2="112.00" stroke="#edf2f7" />
<line x1="52" y1="112.00" x2="56" y2="112.00" stroke="#9fb3c8" />
<text x="48.00" y="116.00" font-size="11" font-family="Arial" fill="#52606d" text-anchor="end">68.3</text>
<line x1="56" y1="58.00" x2="904" y2="58.00" stroke="#edf2f7" />
<line x1="52" y1="58.00" x2="56" y2="58.00" stroke="#9fb3c8" />
<text x="48.00" y="62.00" font-size="11" font-family="Arial" fill="#52606d" text-anchor="end">105</text>
<line x1="56" y1="168.45" x2="904" y2="168.45" stroke="#f0b429" stroke-dasharray="5 5" />
<text x="912.00" y="172.45" font-size="10" font-family="Arial" fill="#8d2b0b" text-anchor="start">30.0</text>
<line x1="56" y1="109.55" x2="904" y2="109.55" stroke="#f0b429" stroke-dasharray="5 5" />
<text x="912.00" y="113.55" font-size="10" font-family="Arial" fill="#8d2b0b" text-anchor="start">70.0</text>
<polyline fill="none" stroke="#1f77b4" stroke-width="2" points="101.84,101.31 105.11,98.19 108.39,94.75 111.66,90.13 114.93,88.10 118.21,87.06 121.48,95.99 124.76,107.59 128.03,103.13 131.31,108.86 134.58,129.98 137.85,120.04 141.13,119.69 144.40,120.54 147.68,117.69 150.95,109.07 154.22,115.39 157.50,121.34 160.77,123.67 164.05,138.04 167.32,139.83 170.59,141.84 173.87,136.12 177.14,142.27 180.42,137.63 183.69,136.91 186.97,134.77 190.24,143.85 193.51,144.30 196.79,144.59 200.06,145.15 203.34,159.73 206.61,159.18 209.88,150.41 213.16,143.75 216.43,149.30 219.71,144.17 222.98,139.80 226.25,140.96 229.53,143.17 232.80,145.30 236.08,146.24 239.35,141.09 242.63,138.77 245.90,138.81 249.17,137.90 252.45,142.25 255.72,137.51 259.00,136.44 262.27,131.03 265.54,119.59 268.82,132.84 272.09,96.27 275.37,93.04 278.64,85.92 281.92,89.70 285.19,111.60 288.46,110.86 291.74,110.02 295.01,101.23 298.29,105.69 301.56,107.36 304.83,104.08 308.11,107.08 311.38,115.96 314.66,113.31 317.93,104.91 321.20,102.28 324.48,104.19 327.75,101.62 331.03,112.34 334.30,111.69 337.58,109.87 340.85,120.51 344.12,116.76 347.40,133.88 350.67,137.12 353.95,129.94 357.22,135.11 360.49,122.40 363.77,130.63 367.04,131.47 370.32,136.08 373.59,143.01 376.86,147.21 380.14,156.67 383.41,157.76 386.69,148.93 389.96,153.73 393.24,147.66 396.51,145.26 399.78,143.60 403.06,146.60 406.33,144.66 409.61,145.84 412.88,144.03 416.15,141.15 419.43,140.66 422.70,140.86 425.98,140.85 429.25,151.06 432.53,153.77 435.80,151.74 439.07,160.69 442.35,156.83 445.62,142.68 448.90,141.13 452.17,141.18 455.44,141.02 458.72,141.08 461.99,140.26 465.27,140.62 468.54,142.30 471.81,129.60 475.09,133.22 478.36,142.50 481.64,147.76 484.91,153.63 488.19,155.21 491.46,148.06 494.73,131.43 498.01,128.71 501.28,124.42 504.56,120.75 507.83,120.67 511.10,107.00 514.38,104.70 517.65,101.44 520.93,113.82 524.20,113.33 527.47,112.81 530.75,113.71 534.02,134.63 537.30,126.09 540.57,130.83 543.85,161.31 547.12,164.83 550.39,151.63 553.67,146.15 556.94,147.58 560.22,147.57 563.49,152.30 566.76,151.09 570.04,153.80 573.31,155.69 576.59,152.39 579.86,154.65 583.14,157.13 586.41,140.38 589.68,142.76 592.96,148.24 596.23,150.77 599.51,151.95 602.78,157.40 606.05,146.08 609.33,148.09 612.60,153.28 615.88,143.42 619.15,142.91 622.42,141.38 625.70,147.53 628.97,151.04 632.25,147.54 635.52,147.78 638.80,144.11 642.07,137.71 645.34,141.91 648.62,140.36 651.89,137.23 655.17,122.93 658.44,140.14 661.71,141.72 664.99,146.88 668.26,139.65 671.54,133.66 674.81,127.84 678.08,125.79 681.36,124.74 684.63,117.31 687.91,114.23 691.18,109.33 694.46,108.34 697.73,104.03 701.00,102.55 704.28,94.56 707.55,94.52 710.83,99.33 714.10,95.65 717.37,89.94 720.65,89.46 723.92,81.64 727.20,94.45 730.47,104.33 733.75,100.48 737.02,96.36 740.29,95.05 743.57,109.72 746.84,105.80 750.12,93.08 753.39,100.51 756.66,93.66 759.94,93.21 763.21,98.89 766.49,100.42 769.76,99.67 773.03,113.53 776.31,115.10 779.58,118.67 782.86,110.14 786.13,109.69 789.41,105.73 792.68,99.13 795.95,103.54 799.23,99.67 802.50,100.74 805.78,104.09 809.05,101.85 812.32,98.09 815.60,108.71 818.87,132.30 822.15,126.05 825.42,131.12 828.69,138.43 831.97,128.87 835.24,123.60 838.52,116.55 841.79,128.80 845.07,127.69 848.34,122.52 851.61,119.74 854.89,129.45 858.16,129.49 861.44,126.49 864.71,130.05 867.98,125.68 871.26,116.99 874.53,129.46 877.81,135.68 881.08,128.17 884.36,137.27 887.63,136.97 890.90,130.37 894.18,128.01 897.45,134.46 900.73,131.29 904.00,136.49" />
<text x="808.00" y="76.00" font-size="13" font-family="Arial" fill="#1f77b4" text-anchor="start">RSI14</text>
<line x1="56" y1="432" x2="904" y2="432" stroke="#cbd2d9" />
<line x1="56" y1="272" x2="56" y2="432" stroke="#cbd2d9" />
<text x="16.00" y="264.00" font-size="12" font-family="Arial" fill="#52606d" text-anchor="start">MACD</text>
<line x1="56" y1="432.00" x2="904" y2="432.00" stroke="#edf2f7" />
<line x1="52" y1="432.00" x2="56" y2="432.00" stroke="#9fb3c8" />
<text x="48.00" y="436.00" font-size="11" font-family="Arial" fill="#52606d" text-anchor="end">-14.8</text>
<line x1="56" y1="378.67" x2="904" y2="378.67" stroke="#edf2f7" />
<line x1="52" y1="378.67" x2="56" y2="378.67" stroke="#9fb3c8" />
<text x="48.00" y="382.67" font-size="11" font-family="Arial" fill="#52606d" text-anchor="end">9.00</text>
<line x1="56" y1="325.33" x2="904" y2="325.33" stroke="#edf2f7" />
<line x1="52" y1="325.33" x2="56" y2="325.33" stroke="#9fb3c8" />
<text x="48.00" y="329.33" font-size="11" font-family="Arial" fill="#52606d" text-anchor="end">32.8</text>
<line x1="56" y1="272.00" x2="904" y2="272.00" stroke="#edf2f7" />
<line x1="52" y1="272.00" x2="56" y2="272.00" stroke="#9fb3c8" />
<text x="48.00" y="276.00" font-size="11" font-family="Arial" fill="#52606d" text-anchor="end">56.7</text>
<line x1="56" y1="398.79" x2="904" y2="398.79" stroke="#9fb3c8" stroke-dasharray="4 4" />
<rect x="136.71" y="398.79" width="2.28" height="0.00" fill="#2f9e44" opacity="0.55" />
<rect x="139.99" y="398.79" width="2.28" height="0.46" fill="#d64545" opacity="0.55" />
<rect x="143.26" y="398.79" width="2.28" height="0.95" fill="#d64545" opacity="0.55" />
<rect x="146.53" y="398.79" width="2.28" height="0.97" fill="#d64545" opacity="0.55" />
<rect x="149.81" y="398.52" width="2.28" height="0.27" fill="#2f9e44" opacity="0.55" />
<rect x="153.08" y="398.40" width="2.28" height="0.39" fill="#2f9e44" opacity="0.55" />
<rect x="156.36" y="398.79" width="2.28" height="0.20" fill="#d64545" opacity="0.55" />
<rect x="159.63" y="398.79" width="2.28" height="0.90" fill="#d64545" opacity="0.55" />
<rect x="162.90" y="398.79" width="2.28" height="2.81" fill="#d64545" opacity="0.55" />
<rect x="166.18" y="398.79" width="2.28" height="4.19" fill="#d64545" opacity="0.55" />
<rect x="169.45" y="398.79" width="2.28" height="5.18" fill="#d64545" opacity="0.55" />
<rect x="172.73" y="398.79" width="2.28" height="5.07" fill="#d64545" opacity="0.55" />
<rect x="176.00" y="398.79" width="2.28" height="5.47" fill="#d64545" opacity="0.55" />
<rect x="179.28" y="398.79" width="2.28" height="5.07" fill="#d64545" opacity="0.55" />
<rect x="182.55" y="398.79" width="2.28" height="4.56" fill="#d64545" opacity="0.55" />
<rect x="185.82" y="398.79" width="2.28" height="3.86" fill="#d64545" opacity="0.55" />
<rect x="189.10" y="398.79" width="2.28" height="4.14" fill="#d64545" opacity="0.55" />
<rect x="192.37" y="398.79" width="2.28" height="4.20" fill="#d64545" opacity="0.55" />
<rect x="195.65" y="398.79" width="2.28" height="4.09" fill="#d64545" opacity="0.55" />
<rect x="198.92" y="398.79" width="2.28" height="3.88" fill="#d64545" opacity="0.55" />
<rect x="202.19" y="398.79" width="2.28" height="5.10" fill="#d64545" opacity="0.55" />
<rect x="205.47" y="398.79" width="2.28" height="5.58" fill="#d64545" opacity="0.55" />
<rect x="208.74" y="398.79" width="2.28" height="4.95" fill="#d64545" opacity="0.55" />
<rect x="212.02" y="398.79" width="2.28" height="3.76" fill="#d64545" opacity="0.55" />
<rect x="215.29" y="398.79" width="2.28" height="3.36" fill="#d64545" opacity="0.55" />
<rect x="218.57" y="398.79" width="2.28" height="2.49" fill="#d64545" opacity="0.55" />
<rect x="221.84" y="398.79" width="2.28" height="1.41" fill="#d64545" opacity="0.55" />
<rect x="225.11" y="398.79" width="2.28" height="0.73" fill="#d64545" opacity="0.55" />
<rect x="228.39" y="398.79" width="2.28" height="0.41" fill="#d64545" opacity="0.55" />
<rect x="231.66" y="398.79" width="2.28" height="0.33" fill="#d64545" opacity="0.55" />
<rect x="234.94" y="398.79" width="2.28" height="0.31" fill="#d64545" opacity="0.55" />
<rect x="238.21" y="398.68" width="2.28" height="0.11" fill="#2f9e44" opacity="0.55" />
<rect x="241.48" y="398.23" width="2.28" height="0.56" fill="#2f9e44" opacity="0.55" />
<rect x="244.76" y="397.95" width="2.28" height="0.84" fill="#2f9e44" opacity="0.55" />
<rect x="248.03" y="397.72" width="2.28" height="1.07" fill="#2f9e44" opacity="0.55" />
<rect x="251.31" y="397.86" width="2.28" height="0.93" fill="#2f9e44" opacity="0.55" />
<rect x="254.58" y="397.70" width="2.28" height="1.09" fill="#2f9e44" opacity="0.55" />
<rect x="257.85" y="397.56" width="2.28" height="1.22" fill="#2f9e44" opacity="0.55" />
<rect x="261.13" y="397.20" width="2.28" height="1.59" fill="#2f9e44" opacity="0.55" />
<rect x="264.40" y="396.22" width="2.28" height="2.57" fill="#2f9e44" opacity="0.55" />
<rect x="267.68" y="396.45" width="2.28" height="2.34" fill="#2f9e44" opacity="0.55" />
<rect x="270.95" y="391.13" width="2.28" height="7.66" fill="#2f9e44" opacity="0.55" />
<rect x="274.23" y="387.09" width="2.28" height="11.69" fill="#2f9e44" opacity="0.55" />
<rect x="277.50" y="381.78" width="2.28" height="17.01" fill="#2f9e44" opacity="0.55" />
<rect x="280.77" y="379.79" width="2.28" height="19.00" fill="#2f9e44" opacity="0.55" />
<rect x="284.05" y="382.23" width="2.28" height="16.56" fill="#2f9e44" opacity="0.55" />
<rect x="287.32" y="384.56" width="2.28" height="14.23" fill="#2f9e44" opacity="0.55" />
<rect x="290.60" y="386.72" width="2.28" height="12.07" fill="#2f9e44" opacity="0.55" />
<rect x="293.87" y="385.99" width="2.28" height="12.80" fill="#2f9e44" opacity="0.55" />
<rect x="297.14" y="387.02" width="2.28" height="11.77" fill="#2f9e44" opacity="0.55" />
<rect x="300.42" y="388.77" width="2.28" height="10.02" fill="#2f9e44" opacity="0.55" />
<rect x="303.69" y="389.61" width="2.28" height="9.18" fill="#2f9e44" opacity="0.55" />
<rect x="306.97" y="391.30" width="2.28" height="7.49" fill="#2f9e44" opacity="0.55" />
<rect x="310.24" y="394.19" width="2.28" height="4.60" fill="#2f9e44" opacity="0.55" />
<rect x="313.51" y="395.91" width="2.28" height="2.88" fill="#2f9e44" opacity="0.55" />
<rect x="316.79" y="394.92" width="2.28" height="3.86" fill="#2f9e44" opacity="0.55" />
<rect x="320.06" y="393.90" width="2.28" height="4.89" fill="#2f9e44" opacity="0.55" />
<rect x="323.34" y="394.12" width="2.28" height="4.66" fill="#2f9e44" opacity="0.55" />
<rect x="326.61" y="393.98" width="2.28" height="4.80" fill="#2f9e44" opacity="0.55" />
<rect x="329.89" y="395.89" width="2.28" height="2.90" fill="#2f9e44" opacity="0.55" />
<rect x="333.16" y="397.45" width="2.28" height="1.34" fill="#2f9e44" opacity="0.55" />
<rect x="336.43" y="398.40" width="2.28" height="0.39" fill="#2f9e44" opacity="0.55" />
<rect x="339.71" y="398.79" width="2.28" height="1.99" fill="#d64545" opacity="0.55" />
<rect x="342.98" y="398.79" width="2.28" height="2.88" fill="#d64545" opacity="0.55" />
<rect x="346.26" y="398.79" width="2.28" height="6.33" fill="#d64545" opacity="0.55" />
<rect x="349.53" y="398.79" width="2.28" height="9.14" fill="#d64545" opacity="0.55" />
<rect x="352.80" y="398.79" width="2.28" height="9.28" fill="#d64545" opacity="0.55" />
<rect x="356.08" y="398.79" width="2.28" height="10.13" fill="#d64545" opacity="0.55" />
<rect x="359.35" y="398.79" width="2.28" height="7.40" fill="#d64545" opacity="0.55" />
<rect x="362.63" y="398.79" width="2.28" height="7.15" fill="#d64545" opacity="0.55" />
<rect x="365.90" y="398.79" width="2.28" height="7.06" fill="#d64545" opacity="0.55" />
<rect x="369.18" y="398.79" width="2.28" height="7.79" fill="#d64545" opacity="0.55" />
<rect x="372.45" y="398.79" width="2.28" height="9.54" fill="#d64545" opacity="0.55" />
<rect x="375.72" y="398.79" width="2.28" height="11.32" fill="#d64545" opacity="0.55" />
<rect x="379.00" y="398.79" width="2.28" height="14.55" fill="#d64545" opacity="0.55" />
<rect x="382.27" y="398.79" width="2.28" height="16.28" fill="#d64545" opacity="0.55" />
<rect x="385.55" y="398.79" width="2.28" height="15.03" fill="#d64545" opacity="0.55" />
<rect x="388.82" y="398.79" width="2.28" height="14.83" fill="#d64545" opacity="0.55" />
<rect x="392.09" y="398.79" width="2.28" height="12.82" fill="#d64545" opacity="0.55" />
<rect x="395.37" y="398.79" width="2.28" height="10.45" fill="#d64545" opacity="0.55" />
<rect x="398.64" y="398.79" width="2.28" height="8.10" fill="#d64545" opacity="0.55" />
<rect x="401.92" y="398.79" width="2.28" height="6.83" fill="#d64545" opacity="0.55" />
<rect x="405.19" y="398.79" width="2.28" height="5.31" fill="#d64545" opacity="0.55" />
<rect x="408.46" y="398.79" width="2.28" height="4.27" fill="#d64545" opacity="0.55" />
<rect x="411.74" y="398.79" width="2.28" height="3.06" fill="#d64545" opacity="0.55" />
<rect x="415.01" y="398.79" width="2.28" height="1.63" fill="#d64545" opacity="0.55" />
<rect x="418.29" y="398.79" width="2.28" height="0.51" fill="#d64545" opacity="0.55" />
<rect x="421.56" y="398.54" width="2.28" height="0.25" fill="#2f9e44" opacity="0.55" />
<rect x="424.84" y="398.01" width="2.28" height="0.78" fill="#2f9e44" opacity="0.55" />
<rect x="428.11" y="398.79" width="2.28" height="0.39" fill="#d64545" opacity="0.55" />
<rect x="431.38" y="398.79" width="2.28" height="1.49" fill="#d64545" opacity="0.55" />
<rect x="434.66" y="398.79" width="2.28" height="1.82" fill="#d64545" opacity="0.55" />
<rect x="437.93" y="398.79" width="2.28" height="3.43" fill="#d64545" opacity="0.55" />
<rect x="441.21" y="398.79" width="2.28" height="3.76" fill="#d64545" opacity="0.55" />
<rect x="444.48" y="398.79" width="2.28" height="1.92" fill="#d64545" opacity="0.55" />
<rect x="447.75" y="398.79" width="2.28" height="0.36" fill="#d64545" opacity="0.55" />
<rect x="451.03" y="398.07" width="2.28" height="0.72" fill="#2f9e44" opacity="0.55" />
<rect x="454.30" y="397.32" width="2.28" height="1.47" fill="#2f9e44" opacity="0.55" />
<rect x="457.58" y="396.84" width="2.28" height="1.95" fill="#2f9e44" opacity="0.55" />
<rect x="460.85" y="396.48" width="2.28" height="2.31" fill="#2f9e44" opacity="0.55" />
<rect x="464.12" y="396.33" width="2.28" height="2.46" fill="#2f9e44" opacity="0.55" />
<rect x="467.40" y="396.47" width="2.28" height="2.32" fill="#2f9e44" opacity="0.55" />
<rect x="470.67" y="395.28" width="2.28" height="3.51" fill="#2f9e44" opacity="0.55" />
<rect x="473.95" y="395.00" width="2.28" height="3.79" fill="#2f9e44" opacity="0.55" />
<rect x="477.22" y="395.93" width="2.28" height="2.86" fill="#2f9e44" opacity="0.55" />
<rect x="480.50" y="397.24" width="2.28" height="1.54" fill="#2f9e44" opacity="0.55" />
<rect x="483.77" y="398.79" width="2.28" height="0.08" fill="#d64545" opacity="0.55" />
<rect x="487.04" y="398.79" width="2.28" height="1.27" fill="#d64545" opacity="0.55" />
<rect x="490.32" y="398.79" width="2.28" height="1.26" fill="#d64545" opacity="0.55" />
<rect x="493.59" y="398.04" width="2.28" height="0.75" fill="#2f9e44" opacity="0.55" />
<rect x="496.87" y="396.40" width="2.28" height="2.39" fill="#2f9e44" opacity="0.55" />
<rect x="500.14" y="394.84" width="2.28" height="3.95" fill="#2f9e44" opacity="0.55" />
<rect x="503.41" y="393.48" width="2.28" height="5.31" fill="#2f9e44" opacity="0.55" />
<rect x="506.69" y="392.88" width="2.28" height="5.91" fill="#2f9e44" opacity="0.55" />
<rect x="509.96" y="390.26" width="2.28" height="8.53" fill="#2f9e44" opacity="0.55" />
<rect x="513.24" y="388.51" width="2.28" height="10.28" fill="#2f9e44" opacity="0.55" />
<rect x="516.51" y="387.15" width="2.28" height="11.64" fill="#2f9e44" opacity="0.55" />
<rect x="519.79" y="388.16" width="2.28" height="10.62" fill="#2f9e44" opacity="0.55" />
<rect x="523.06" y="389.35" width="2.28" height="9.44" fill="#2f9e44" opacity="0.55" />
<rect x="526.33" y="390.59" width="2.28" height="8.20" fill="#2f9e44" opacity="0.55" />
<rect x="529.61" y="392.01" width="2.28" height="6.78" fill="#2f9e44" opacity="0.55" />
<rect x="532.88" y="395.61" width="2.28" height="3.18" fill="#2f9e44" opacity="0.55" />
<rect x="536.16" y="396.82" width="2.28" height="1.97" fill="#2f9e44" opacity="0.55" />
<rect x="539.43" y="398.43" width="2.28" height="0.36" fill="#2f9e44" opacity="0.55" />
<rect x="542.70" y="398.79" width="2.28" height="6.82" fill="#d64545" opacity="0.55" />
<rect x="545.98" y="398.79" width="2.28" height="12.20" fill="#d64545" opacity="0.55" />
<rect x="549.25" y="398.79" width="2.28" height="12.77" fill="#d64545" opacity="0.55" />
<rect x="552.53" y="398.79" width="2.28" height="11.46" fill="#d64545" opacity="0.55" />
<rect x="555.80" y="398.79" width="2.28" height="10.45" fill="#d64545" opacity="0.55" />
<rect x="559.07" y="398.79" width="2.28" height="9.30" fill="#d64545" opacity="0.55" />
<rect x="562.35" y="398.79" width="2.28" height="9.20" fill="#d64545" opacity="0.55" />
<rect x="565.62" y="398.79" width="2.28" height="8.45" fill="#d64545" opacity="0.55" />
<rect x="568.90" y="398.79" width="2.28" height="8.12" fill="#d64545" opacity="0.55" />
<rect x="572.17" y="398.79" width="2.28" height="7.86" fill="#d64545" opacity="0.55" />
<rect x="575.45" y="398.79" width="2.28" height="6.76" fill="#d64545" opacity="0.55" />
<rect x="578.72" y="398.79" width="2.28" height="6.10" fill="#d64545" opacity="0.55" />
<rect x="581.99" y="398.79" width="2.28" height="5.78" fill="#d64545" opacity="0.55" />
<rect x="585.27" y="398.79" width="2.28" height="2.71" fill="#d64545" opacity="0.55" />
<rect x="588.54" y="398.79" width="2.28" height="0.96" fill="#d64545" opacity="0.55" />
<rect x="591.82" y="398.79" width="2.28" height="0.73" fill="#d64545" opacity="0.55" />
<rect x="595.09" y="398.79" width="2.28" height="0.92" fill="#d64545" opacity="0.55" />
<rect x="598.36" y="398.79" width="2.28" height="1.11" fill="#d64545" opacity="0.55" />
<rect x="601.64" y="398.79" width="2.28" height="2.14" fill="#d64545" opacity="0.55" />
<rect x="604.91" y="398.79" width="2.28" height="0.96" fill="#d64545" opacity="0.55" />
<rect x="608.19" y="398.79" width="2.28" height="0.42" fill="#d64545" opacity="0.55" />
<rect x="611.46" y="398.79" width="2.28" height="0.94" fill="#d64545" opacity="0.55" />
<rect x="614.73" y="398.41" width="2.28" height="0.38" fill="#2f9e44" opacity="0.55" />
<rect x="618.01" y="397.39" width="2.28" height="1.40" fill="#2f9e44" opacity="0.55" />
<rect x="621.28" y="396.48" width="2.28" height="2.31" fill="#2f9e44" opacity="0.55" />
<rect x="624.56" y="396.91" width="2.28" height="1.87" fill="#2f9e44" opacity="0.55" />
<rect x="627.83" y="397.79" width="2.28" height="1.00" fill="#2f9e44" opacity="0.55" />
<rect x="631.11" y="397.83" width="2.28" height="0.96" fill="#2f9e44" opacity="0.55" />
<rect x="634.38" y="397.83" width="2.28" height="0.96" fill="#2f9e44" opacity="0.55" />
<rect x="637.65" y="397.32" width="2.28" height="1.47" fill="#2f9e44" opacity="0.55" />
<rect x="640.93" y="396.14" width="2.28" height="2.65" fill="#2f9e44" opacity="0.55" />
<rect x="644.20" y="396.00" width="2.28" height="2.79" fill="#2f9e44" opacity="0.55" />
<rect x="647.48" y="395.78" width="2.28" height="3.01" fill="#2f9e44" opacity="0.55" />
<rect x="650.75" y="395.32" width="2.28" height="3.47" fill="#2f9e44" opacity="0.55" />
<rect x="654.02" y="393.01" width="2.28" height="5.77" fill="#2f9e44" opacity="0.55" />
<rect x="657.30" y="394.16" width="2.28" height="4.63" fill="#2f9e44" opacity="0.55" />
<rect x="660.57" y="395.32" width="2.28" height="3.47" fill="#2f9e44" opacity="0.55" />
<rect x="663.85" y="397.03" width="2.28" height="1.76" fill="#2f9e44" opacity="0.55" />
<rect x="667.12" y="397.10" width="2.28" height="1.69" fill="#2f9e44" opacity="0.55" />
<rect x="670.40" y="396.22" width="2.28" height="2.57" fill="#2f9e44" opacity="0.55" />
<rect x="673.67" y="394.73" width="2.28" height="4.06" fill="#2f9e44" opacity="0.55" />
<rect x="676.94" y="393.60" width="2.28" height="5.18" fill="#2f9e44" opacity="0.55" />
<rect x="680.22" y="392.96" width="2.28" height="5.82" fill="#2f9e44" opacity="0.55" />
<rect x="683.49" y="391.40" width="2.28" height="7.39" fill="#2f9e44" opacity="0.55" />
<rect x="686.77" y="390.14" width="2.28" height="8.65" fill="#2f9e44" opacity="0.55" />
<rect x="690.04" y="388.64" width="2.28" height="10.15" fill="#2f9e44" opacity="0.55" />
<rect x="693.31" y="388.03" width="2.28" height="10.75" fill="#2f9e44" opacity="0.55" />
<rect x="696.59" y="387.13" width="2.28" height="11.66" fill="#2f9e44" opacity="0.55" />
<rect x="699.86" y="386.85" width="2.28" height="11.94" fill="#2f9e44" opacity="0.55" />
<rect x="703.14" y="384.56" width="2.28" height="14.22" fill="#2f9e44" opacity="0.55" />
<rect x="706.41" y="384.03" width="2.28" height="14.76" fill="#2f9e44" opacity="0.55" />
<rect x="709.68" y="385.16" width="2.28" height="13.62" fill="#2f9e44" opacity="0.55" />
<rect x="712.96" y="385.46" width="2.28" height="13.32" fill="#2f9e44" opacity="0.55" />
<rect x="716.23" y="383.91" width="2.28" height="14.88" fill="#2f9e44" opacity="0.55" />
<rect x="719.51" y="383.75" width="2.28" height="15.04" fill="#2f9e44" opacity="0.55" />
<rect x="722.78" y="378.70" width="2.28" height="20.08" fill="#2f9e44" opacity="0.55" />
<rect x="726.06" y="378.86" width="2.28" height="19.93" fill="#2f9e44" opacity="0.55" />
<rect x="729.33" y="382.06" width="2.28" height="16.73" fill="#2f9e44" opacity="0.55" />
<rect x="732.60" y="383.42" width="2.28" height="15.37" fill="#2f9e44" opacity="0.55" />
<rect x="735.88" y="383.09" width="2.28" height="15.69" fill="#2f9e44" opacity="0.55" />
<rect x="739.15" y="383.39" width="2.28" height="15.40" fill="#2f9e44" opacity="0.55" />
<rect x="742.43" y="387.66" width="2.28" height="11.13" fill="#2f9e44" opacity="0.55" />
<rect x="745.70" y="389.56" width="2.28" height="9.23" fill="#2f9e44" opacity="0.55" />
<rect x="748.97" y="382.40" width="2.28" height="16.38" fill="#2f9e44" opacity="0.55" />
<rect x="752.25" y="381.28" width="2.28" height="17.51" fill="#2f9e44" opacity="0.55" />
<rect x="755.52" y="375.52" width="2.28" height="23.27" fill="#2f9e44" opacity="0.55" />
<rect x="758.80" y="373.36" width="2.28" height="25.43" fill="#2f9e44" opacity="0.55" />
<rect x="762.07" y="375.64" width="2.28" height="23.15" fill="#2f9e44" opacity="0.55" />
<rect x="765.34" y="379.54" width="2.28" height="19.25" fill="#2f9e44" opacity="0.55" />
<rect x="768.62" y="383.29" width="2.28" height="15.49" fill="#2f9e44" opacity="0.55" />
<rect x="771.89" y="391.05" width="2.28" height="7.74" fill="#2f9e44" opacity="0.55" />
<rect x="775.17" y="397.72" width="2.28" height="1.07" fill="#2f9e44" opacity="0.55" />
<rect x="778.44" y="398.79" width="2.28" height="5.11" fill="#d64545" opacity="0.55" />
<rect x="781.72" y="398.79" width="2.28" height="4.87" fill="#d64545" opacity="0.55" />
<rect x="784.99" y="398.79" width="2.28" height="5.12" fill="#d64545" opacity="0.55" />
<rect x="788.26" y="398.79" width="2.28" height="3.37" fill="#d64545" opacity="0.55" />
<rect x="791.54" y="396.60" width="2.28" height="2.19" fill="#2f9e44" opacity="0.55" />
<rect x="794.81" y="395.35" width="2.28" height="3.44" fill="#2f9e44" opacity="0.55" />
<rect x="798.09" y="392.45" width="2.28" height="6.34" fill="#2f9e44" opacity="0.55" />
<rect x="801.36" y="392.19" width="2.28" height="6.60" fill="#2f9e44" opacity="0.55" />
<rect x="804.63" y="394.18" width="2.28" height="4.60" fill="#2f9e44" opacity="0.55" />
<rect x="807.91" y="395.01" width="2.28" height="3.78" fill="#2f9e44" opacity="0.55" />
<rect x="811.18" y="393.71" width="2.28" height="5.08" fill="#2f9e44" opacity="0.55" />
<rect x="814.46" y="396.91" width="2.28" height="1.88" fill="#2f9e44" opacity="0.55" />
<rect x="817.73" y="398.79" width="2.28" height="9.32" fill="#d64545" opacity="0.55" />
<rect x="821.01" y="398.79" width="2.28" height="13.41" fill="#d64545" opacity="0.55" />
<rect x="824.28" y="398.79" width="2.28" height="18.32" fill="#d64545" opacity="0.55" />
<rect x="827.55" y="398.79" width="2.28" height="24.64" fill="#d64545" opacity="0.55" />
<rect x="830.83" y="398.79" width="2.28" height="23.00" fill="#d64545" opacity="0.55" />
<rect x="834.10" y="398.79" width="2.28" height="18.26" fill="#d64545" opacity="0.55" />
<rect x="837.38" y="398.79" width="2.28" height="9.98" fill="#d64545" opacity="0.55" />
<rect x="840.65" y="398.79" width="2.28" height="10.70" fill="#d64545" opacity="0.55" />
<rect x="843.92" y="398.79" width="2.28" height="10.55" fill="#d64545" opacity="0.55" />
<rect x="847.20" y="398.79" width="2.28" height="7.03" fill="#d64545" opacity="0.55" />
<rect x="850.47" y="398.79" width="2.28" height="3.08" fill="#d64545" opacity="0.55" />
<rect x="853.75" y="398.79" width="2.28" height="5.63" fill="#d64545" opacity="0.55" />
<rect x="857.02" y="398.79" width="2.28" height="7.59" fill="#d64545" opacity="0.55" />
<rect x="860.29" y="398.79" width="2.28" height="7.21" fill="#d64545" opacity="0.55" />
<rect x="863.57" y="398.79" width="2.28" height="8.78" fill="#d64545" opacity="0.55" />
<rect x="866.84" y="398.79" width="2.28" height="7.33" fill="#d64545" opacity="0.55" />
<rect x="870.12" y="398.79" width="2.28" height="0.69" fill="#d64545" opacity="0.55" />
<rect x="873.39" y="398.79" width="2.28" height="2.78" fill="#d64545" opacity="0.55" />
<rect x="876.67" y="398.79" width="2.28" height="7.80" fill="#d64545" opacity="0.55" />
<rect x="879.94" y="398.79" width="2.28" height="6.19" fill="#d64545" opacity="0.55" />
<rect x="883.21" y="398.79" width="2.28" height="10.52" fill="#d64545" opacity="0.55" />
<rect x="886.49" y="398.79" width="2.28" height="13.00" fill="#d64545" opacity="0.55" />
<rect x="889.76" y="398.79" width="2.28" height="10.17" fill="#d64545" opacity="0.55" />
<rect x="893.04" y="398.79" width="2.28" height="6.72" fill="#d64545" opacity="0.55" />
<rect x="896.31" y="398.79" width="2.28" height="8.00" fill="#d64545" opacity="0.55" />
<rect x="899.58" y="398.79" width="2.28" height="6.84" fill="#d64545" opacity="0.55" />
<rect x="902.86" y="398.79" width="2.28" height="8.87" fill="#d64545" opacity="0.55" />
<polyline fill="none" stroke="#1f77b4" stroke-width="2" points="137.85,381.97 141.13,382.55 144.40,383.28 147.68,383.54 150.95,382.24 154.22,382.02 157.50,382.66 160.77,383.58 164.05,386.19 167.32,388.62 170.59,390.91 173.87,392.07 177.14,393.84 180.42,394.70 183.69,395.33 186.97,395.60 190.24,396.91 193.51,398.02 196.79,398.93 200.06,399.70 203.34,402.19 206.61,404.06 209.88,404.68 213.16,404.43 216.43,404.86 219.71,404.61 222.98,403.89 226.25,403.39 229.53,403.18 232.80,403.18 236.08,403.23 239.35,402.79 242.63,402.20 245.90,401.70 249.17,401.21 252.45,401.12 255.72,400.68 259.00,400.24 262.27,399.49 265.54,397.86 268.82,397.51 272.09,390.27 275.37,383.31 278.64,373.74 281.92,367.01 285.19,365.30 288.46,364.08 291.74,363.22 295.01,359.29 298.29,357.38 301.56,356.62 304.83,355.17 308.11,354.98 311.38,356.73 314.66,357.73 317.93,355.78 321.20,353.53 324.48,352.59 327.75,351.25 331.03,352.43 334.30,353.66 337.58,354.50 340.85,357.38 344.12,358.99 347.40,364.03 350.67,369.12 353.95,371.58 357.22,374.97 360.49,374.08 363.77,375.62 367.04,377.29 370.32,379.97 373.59,384.11 376.86,388.72 380.14,395.58 383.41,401.39 386.69,403.90 389.96,407.40 393.24,408.60 396.51,408.83 399.78,408.51 403.06,408.95 406.33,408.76 409.61,408.78 412.88,408.34 416.15,407.31 419.43,406.33 422.70,405.50 425.98,404.78 429.25,406.04 432.53,407.52 435.80,408.30 439.07,410.77 442.35,412.05 445.62,410.69 448.90,409.21 452.17,407.95 455.44,406.83 458.72,405.87 461.99,404.93 465.27,404.17 468.54,403.72 471.81,401.65 475.09,400.43 478.36,400.65 481.64,401.57 484.91,403.22 488.19,404.73 491.46,405.04 494.73,402.84 498.01,400.60 501.28,398.05 504.56,395.37 507.83,393.29 511.10,388.53 514.38,384.22 517.65,379.94 520.93,378.30 524.20,377.12 527.47,376.32 530.75,376.05 534.02,378.85 537.30,379.57 540.57,381.09 543.85,389.97 547.12,398.40 550.39,402.16 553.67,403.72 556.94,405.32 560.22,406.50 563.49,408.70 566.76,410.06 570.04,411.76 573.31,413.47 576.59,414.06 579.86,414.92 583.14,416.05 586.41,413.66 589.68,412.15 592.96,412.09 596.23,412.52 599.51,412.98 602.78,414.55 606.05,413.61 609.33,413.18 612.60,413.92 615.88,412.51 619.15,411.15 622.42,409.65 625.70,409.62 628.97,410.25 632.25,410.04 635.52,409.80 638.80,408.93 642.07,407.09 645.34,406.25 648.62,405.28 651.89,403.95 655.17,400.20 658.44,400.19 661.71,400.48 664.99,401.76 668.26,401.40 671.54,399.88 674.81,397.38 678.08,394.95 681.36,392.86 684.63,389.45 687.91,386.02 691.18,381.98 694.46,378.69 697.73,374.87 701.00,371.61 704.28,365.77 707.55,361.54 710.83,359.27 714.10,356.24 717.37,350.96 720.65,347.04 723.92,336.98 727.20,332.15 730.47,331.16 733.75,328.68 737.02,324.44 740.29,320.88 743.57,322.37 746.84,321.96 750.12,310.71 753.39,305.21 756.66,293.63 759.94,285.11 763.21,281.60 766.49,280.69 769.76,280.57 773.03,286.39 776.31,292.79 779.58,300.25 782.86,301.23 786.13,302.76 789.41,301.85 792.68,295.75 795.95,293.63 799.23,289.15 802.50,287.24 805.78,288.08 809.05,287.97 812.32,285.40 815.60,288.12 818.87,301.66 822.15,309.10 825.42,318.59 828.69,331.07 831.97,335.18 835.24,335.00 838.52,329.22 841.79,332.62 845.07,335.11 848.34,333.34 851.61,330.16 854.89,334.12 858.16,337.98 861.44,339.40 864.71,343.16 867.98,343.54 871.26,337.08 874.53,339.86 877.81,346.83 881.08,346.77 884.36,353.73 887.63,359.46 890.90,359.18 894.18,357.41 897.45,360.69 900.73,361.24 904.00,365.49" />
<polyline fill="none" stroke="#ff7f0e" stroke-width="2" points="137.85,381.97 141.13,382.09 144.40,382.33 147.68,382.57 150.95,382.50 154.22,382.41 157.50,382.46 160.77,382.68 164.05,383.39 167.32,384.43 170.59,385.73 173.87,387.00 177.14,388.36 180.42,389.63 183.69,390.77 186.97,391.74 190.24,392.77 193.51,393.82 196.79,394.84 200.06,395.81 203.34,397.09 206.61,398.48 209.88,399.72 213.16,400.66 216.43,401.50 219.71,402.12 222.98,402.48 226.25,402.66 229.53,402.76 232.80,402.85 236.08,402.92 239.35,402.90 242.63,402.76 245.90,402.55 249.17,402.28 252.45,402.05 255.72,401.77 259.00,401.47 262.27,401.07 265.54,400.43 268.82,399.85 272.09,397.93 275.37,395.01 278.64,390.76 281.92,386.01 285.19,381.87 288.46,378.31 291.74,375.29 295.01,372.09 298.29,369.15 301.56,366.64 304.83,364.35 308.11,362.47 311.38,361.33 314.66,360.61 317.93,359.64 321.20,358.42 324.48,357.25 327.75,356.05 331.03,355.33 334.30,354.99 337.58,354.89 340.85,355.39 344.12,356.11 347.40,357.70 350.67,359.98 353.95,362.30 357.22,364.83 360.49,366.68 363.77,368.47 367.04,370.23 370.32,372.18 373.59,374.57 376.86,377.40 380.14,381.03 383.41,385.11 386.69,388.86 389.96,392.57 393.24,395.78 396.51,398.39 399.78,400.41 403.06,402.12 406.33,403.45 409.61,404.51 412.88,405.28 416.15,405.69 419.43,405.81 422.70,405.75 425.98,405.56 429.25,405.65 432.53,406.03 435.80,406.48 439.07,407.34 442.35,408.28 445.62,408.76 448.90,408.85 452.17,408.67 455.44,408.30 458.72,407.82 461.99,407.24 465.27,406.63 468.54,406.04 471.81,405.17 475.09,404.22 478.36,403.50 481.64,403.12 484.91,403.14 488.19,403.46 491.46,403.77 494.73,403.59 498.01,402.99 501.28,402.00 504.56,400.67 507.83,399.20 511.10,397.06 514.38,394.49 517.65,391.58 520.93,388.93 524.20,386.57 527.47,384.52 530.75,382.82 534.02,382.03 537.30,381.54 540.57,381.45 543.85,383.15 547.12,386.20 550.39,389.39 553.67,392.26 556.94,394.87 560.22,397.20 563.49,399.50 566.76,401.61 570.04,403.64 573.31,405.60 576.59,407.29 579.86,408.82 583.14,410.27 586.41,410.94 589.68,411.18 592.96,411.37 596.23,411.60 599.51,411.87 602.78,412.41 606.05,412.65 609.33,412.75 612.60,412.99 615.88,412.89 619.15,412.54 622.42,411.96 625.70,411.50 628.97,411.25 632.25,411.01 635.52,410.77 638.80,410.40 642.07,409.74 645.34,409.04 648.62,408.29 651.89,407.42 655.17,405.98 658.44,404.82 661.71,403.95 664.99,403.51 668.26,403.09 671.54,402.45 674.81,401.43 678.08,400.14 681.36,398.68 684.63,396.83 687.91,394.67 691.18,392.13 694.46,389.45 697.73,386.53 701.00,383.55 704.28,379.99 707.55,376.30 710.83,372.89 714.10,369.56 717.37,365.84 720.65,362.08 723.92,357.06 727.20,352.08 730.47,347.90 733.75,344.05 737.02,340.13 740.29,336.28 743.57,333.50 746.84,331.19 750.12,327.09 753.39,322.72 756.66,316.90 759.94,310.54 763.21,304.75 766.49,299.94 769.76,296.07 773.03,294.13 776.31,293.86 779.58,295.14 782.86,296.36 786.13,297.64 789.41,298.48 792.68,297.93 795.95,297.07 799.23,295.49 802.50,293.84 805.78,292.69 809.05,291.74 812.32,290.48 815.60,290.01 818.87,292.34 822.15,295.69 825.42,300.27 828.69,306.43 831.97,312.18 835.24,316.74 838.52,319.24 841.79,321.92 845.07,324.55 848.34,326.31 851.61,327.08 854.89,328.49 858.16,330.39 861.44,332.19 864.71,334.38 867.98,336.22 871.26,336.39 874.53,337.08 877.81,339.03 881.08,340.58 884.36,343.21 887.63,346.46 890.90,349.00 894.18,350.68 897.45,352.68 900.73,354.39 904.00,356.61" />
<text x="754.00" y="290.00" font-size="13" font-family="Arial" fill="#1f77b4" text-anchor="start">MACD</text>
<text x="818.00" y="290.00" font-size="13" font-family="Arial" fill="#ff7f0e" text-anchor="start">Signal</text>
<line x1="56" y1="624" x2="904" y2="624" stroke="#cbd2d9" />
<line x1="56" y1="484" x2="56" y2="624" stroke="#cbd2d9" />
<text x="16.00" y="476.00" font-size="12" font-family="Arial" fill="#52606d" text-anchor="start">KD</text>
<line x1="56" y1="624.00" x2="904" y2="624.00" stroke="#edf2f7" />
<line x1="52" y1="624.00" x2="56" y2="624.00" stroke="#9fb3c8" />
<text x="48.00" y="628.00" font-size="11" font-family="Arial" fill="#52606d" text-anchor="end">-5.00</text>
<line x1="56" y1="577.33" x2="904" y2="577.33" stroke="#edf2f7" />
<line x1="52" y1="577.33" x2="56" y2="577.33" stroke="#9fb3c8" />
<text x="48.00" y="581.33" font-size="11" font-family="Arial" fill="#52606d" text-anchor="end">31.7</text>
<line x1="56" y1="530.67" x2="904" y2="530.67" stroke="#edf2f7" />
<line x1="52" y1="530.67" x2="56" y2="530.67" stroke="#9fb3c8" />
<text x="48.00" y="534.67" font-size="11" font-family="Arial" fill="#52606d" text-anchor="end">68.3</text>
<line x1="56" y1="484.00" x2="904" y2="484.00" stroke="#edf2f7" />
<line x1="52" y1="484.00" x2="56" y2="484.00" stroke="#9fb3c8" />
<text x="48.00" y="488.00" font-size="11" font-family="Arial" fill="#52606d" text-anchor="end">105</text>
<line x1="56.00" y1="624" x2="56.00" y2="628" stroke="#9fb3c8" />
<text x="56.00" y="642.00" font-size="11" font-family="Arial" fill="#52606d" text-anchor="middle">07/02</text>
<line x1="226.25" y1="624" x2="226.25" y2="628" stroke="#9fb3c8" />
<text x="226.25" y="642.00" font-size="11" font-family="Arial" fill="#52606d" text-anchor="middle">09/16</text>
<line x1="396.51" y1="624" x2="396.51" y2="628" stroke="#9fb3c8" />
<text x="396.51" y="642.00" font-size="11" font-family="Arial" fill="#52606d" text-anchor="middle">11/28</text>
<line x1="563.49" y1="624" x2="563.49" y2="628" stroke="#9fb3c8" />
<text x="563.49" y="642.00" font-size="11" font-family="Arial" fill="#52606d" text-anchor="middle">02/12</text>
<line x1="733.75" y1="624" x2="733.75" y2="628" stroke="#9fb3c8" />
<text x="733.75" y="642.00" font-size="11" font-family="Arial" fill="#52606d" text-anchor="middle">04/29</text>
<line x1="904.00" y1="624" x2="904.00" y2="628" stroke="#9fb3c8" />
<text x="904.00" y="642.00" font-size="11" font-family="Arial" fill="#52606d" text-anchor="middle">07/15</text>
<line x1="56" y1="592.18" x2="904" y2="592.18" stroke="#f0b429" stroke-dasharray="5 5" />
<text x="912.00" y="596.18" font-size="10" font-family="Arial" fill="#8d2b0b" text-anchor="start">20.0</text>
<line x1="56" y1="515.82" x2="904" y2="515.82" stroke="#f0b429" stroke-dasharray="5 5" />
<text x="912.00" y="519.82" font-size="10" font-family="Arial" fill="#8d2b0b" text-anchor="start">80.0</text>
<polyline fill="none" stroke="#2ca02c" stroke-width="2" points="82.19,537.96 85.47,522.54 88.74,514.12 92.02,514.30 95.29,514.95 98.56,521.84 101.84,518.25 105.11,512.44 108.39,506.77 111.66,503.04 114.93,505.08 118.21,503.78 121.48,507.23 124.76,515.42 128.03,516.23 131.31,522.00 134.58,544.74 137.85,543.96 141.13,542.83 144.40,542.89 147.68,538.35 150.95,525.63 154.22,522.26 157.50,525.07 160.77,528.95 164.05,557.59 167.32,567.22 170.59,575.87 173.87,575.59 177.14,581.97 180.42,580.80 183.69,575.87 186.97,568.47 190.24,572.40 193.51,570.65 196.79,570.05 200.06,570.65 203.34,584.35 206.61,591.18 209.88,587.14 213.16,577.19 216.43,576.53 219.71,564.69 222.98,549.72 226.25,541.21 229.53,539.14 232.80,541.20 236.08,544.89 239.35,540.41 242.63,531.53 245.90,529.55 249.17,527.14 252.45,530.57 255.72,527.57 259.00,524.38 262.27,517.52 265.54,511.93 268.82,521.40 272.09,524.62 275.37,522.16 278.64,511.73 281.92,508.40 285.19,515.62 288.46,519.82 291.74,522.13 295.01,512.37 298.29,512.41 301.56,515.85 304.83,510.42 308.11,510.66 311.38,521.98 314.66,523.40 317.93,512.92 321.20,506.21 324.48,507.95 327.75,504.85 331.03,512.33 334.30,516.02 337.58,514.94 340.85,525.49 344.12,531.93 347.40,557.85 350.67,568.88 353.95,565.80 357.22,569.15 360.49,547.93 363.77,545.71 367.04,545.49 370.32,552.21 373.59,567.85 376.86,580.73 380.14,591.96 383.41,595.08 386.69,590.18 389.96,591.64 393.24,585.99 396.51,578.44 399.78,566.78 403.06,562.04 406.33,555.82 409.61,547.39 412.88,539.10 416.15,529.37 419.43,526.11 422.70,527.81 425.98,527.55 429.25,553.27 432.53,572.40 435.80,578.75 439.07,590.81 442.35,594.27 445.62,577.36 448.90,561.32 452.17,550.57 455.44,543.16 458.72,535.27 461.99,528.85 465.27,525.07 468.54,526.46 471.81,521.23 475.09,533.10 478.36,552.53 481.64,569.73 484.91,583.83 488.19,594.96 491.46,592.74 494.73,574.79 498.01,559.57 501.28,547.98 504.56,535.95 507.83,528.85 511.10,518.50 514.38,510.89 517.65,508.65 520.93,515.33 524.20,519.22 527.47,524.12 530.75,527.96 534.02,546.29 537.30,554.73 540.57,565.81 543.85,582.43 547.12,593.08 550.39,590.50 553.67,584.18 556.94,581.45 560.22,577.85 563.49,580.69 566.76,581.63 570.04,575.51 573.31,575.77 576.59,575.13 579.86,580.20 583.14,588.60 586.41,565.52 589.68,553.73 592.96,557.11 596.23,565.89 599.51,569.45 602.78,581.45 606.05,572.89 609.33,571.08 612.60,580.33 615.88,571.23 619.15,557.17 622.42,543.76 625.70,549.14 628.97,561.52 632.25,564.34 635.52,566.79 638.80,561.80 642.07,546.27 645.34,547.37 648.62,544.72 651.89,536.02 655.17,522.35 658.44,537.83 661.71,550.80 664.99,568.30 668.26,568.96 671.54,559.34 674.81,542.06 678.08,532.60 681.36,524.59 684.63,515.43 687.91,507.51 691.18,505.19 694.46,502.44 697.73,498.72 701.00,495.98 704.28,494.82 707.55,495.06 710.83,502.37 714.10,500.70 717.37,497.77 720.65,498.34 723.92,497.73 727.20,502.98 730.47,512.58 733.75,513.49 737.02,506.02 740.29,501.91 743.57,509.82 746.84,508.41 750.12,505.63 753.39,508.33 756.66,502.66 759.94,501.50 763.21,504.29 766.49,507.36 769.76,508.04 773.03,517.54 776.31,538.51 779.58,553.31 782.86,544.43 786.13,537.39 789.41,528.41 792.68,516.87 795.95,513.36 799.23,508.58 802.50,506.03 805.78,506.22 809.05,503.31 812.32,500.44 815.60,508.72 818.87,543.77 822.15,554.83 825.42,560.89 828.69,573.91 831.97,568.59 835.24,556.06 838.52,538.05 841.79,540.05 845.07,539.56 848.34,530.51 851.61,520.96 854.89,526.72 858.16,532.08 861.44,536.88 864.71,550.47 867.98,545.18 871.26,528.72 874.53,536.75 877.81,553.04 881.08,547.66 884.36,561.13 887.63,569.50 890.90,561.16 894.18,550.30 897.45,554.99 900.73,547.99 904.00,553.92" />
<polyline fill="none" stroke="#d62728" stroke-width="2" points="82.19,548.65 85.47,539.95 88.74,531.34 92.02,525.66 95.29,522.09 98.56,522.01 101.84,520.75 105.11,517.98 108.39,514.24 111.66,510.51 114.93,508.70 118.21,507.06 121.48,507.11 124.76,509.88 128.03,512.00 131.31,515.33 134.58,525.13 137.85,531.41 141.13,535.22 144.40,537.77 147.68,537.97 150.95,533.86 154.22,529.99 157.50,528.35 160.77,528.55 164.05,538.23 167.32,547.89 170.59,557.22 173.87,563.34 177.14,569.55 180.42,573.30 183.69,574.16 186.97,572.26 190.24,572.31 193.51,571.75 196.79,571.19 200.06,571.01 203.34,575.45 206.61,580.70 209.88,582.84 213.16,580.96 216.43,579.48 219.71,574.55 222.98,566.28 226.25,557.92 229.53,551.66 232.80,548.18 236.08,547.08 239.35,544.86 242.63,540.42 245.90,536.79 249.17,533.58 252.45,532.57 255.72,530.91 259.00,528.73 262.27,524.99 265.54,520.64 268.82,520.89 272.09,522.13 275.37,522.14 278.64,518.67 281.92,515.25 285.19,515.37 288.46,516.85 291.74,518.61 295.01,516.53 298.29,515.16 301.56,515.39 304.83,513.73 308.11,512.71 311.38,515.80 314.66,518.33 317.93,516.53 321.20,513.09 324.48,511.37 327.75,509.20 331.03,510.24 334.30,512.17 337.58,513.09 340.85,517.23 344.12,522.13 347.40,534.03 350.67,545.65 353.95,552.37 357.22,557.96 360.49,554.62 363.77,551.65 367.04,549.60 370.32,550.47 373.59,556.26 376.86,564.42 380.14,573.60 383.41,580.76 386.69,583.90 389.96,586.48 393.24,586.32 396.51,583.69 399.78,578.05 403.06,572.72 406.33,567.09 409.61,560.52 412.88,553.38 416.15,545.38 419.43,538.96 422.70,535.24 425.98,532.68 429.25,539.54 432.53,550.49 435.80,559.91 439.07,570.21 442.35,578.23 445.62,577.94 448.90,572.40 452.17,565.12 455.44,557.80 458.72,550.29 461.99,543.14 465.27,537.12 468.54,533.57 471.81,529.45 475.09,530.67 478.36,537.96 481.64,548.55 484.91,560.31 488.19,571.86 491.46,578.82 494.73,577.48 498.01,571.51 501.28,563.66 504.56,554.43 507.83,545.90 511.10,536.77 514.38,528.14 517.65,521.64 520.93,519.54 524.20,519.43 527.47,521.00 530.75,523.32 534.02,530.98 537.30,538.90 540.57,547.87 543.85,559.39 547.12,570.62 550.39,577.25 553.67,579.56 556.94,580.19 560.22,579.41 563.49,579.83 566.76,580.43 570.04,578.79 573.31,577.78 576.59,576.90 579.86,578.00 583.14,581.53 586.41,576.20 589.68,568.71 592.96,564.84 596.23,565.19 599.51,566.61 602.78,571.56 606.05,572.00 609.33,571.69 612.60,574.57 615.88,573.46 619.15,568.03 622.42,559.94 625.70,556.34 628.97,558.07 632.25,560.16 635.52,562.37 638.80,562.18 642.07,556.88 645.34,553.71 648.62,550.71 651.89,545.81 655.17,537.99 658.44,537.94 661.71,542.22 664.99,550.92 668.26,556.93 671.54,557.73 674.81,552.51 678.08,545.87 681.36,538.78 684.63,530.99 687.91,523.17 691.18,517.18 694.46,512.27 697.73,507.75 701.00,503.83 704.28,500.83 707.55,498.90 710.83,500.06 714.10,500.27 717.37,499.44 720.65,499.07 723.92,498.62 727.20,500.08 730.47,504.24 733.75,507.33 737.02,506.89 740.29,505.23 743.57,506.76 746.84,507.31 750.12,506.75 753.39,507.28 756.66,505.74 759.94,504.33 763.21,504.31 766.49,505.33 769.76,506.23 773.03,510.00 776.31,519.50 779.58,530.77 782.86,535.33 786.13,536.01 789.41,533.48 792.68,527.94 795.95,523.08 799.23,518.25 802.50,514.18 805.78,511.52 809.05,508.79 812.32,506.00 815.60,506.91 818.87,519.20 822.15,531.07 825.42,541.01 828.69,551.98 831.97,557.52 835.24,557.03 838.52,550.71 841.79,547.15 845.07,544.62 848.34,539.92 851.61,533.60 854.89,531.31 858.16,531.57 861.44,533.34 864.71,539.05 867.98,541.09 871.26,536.97 874.53,536.89 877.81,542.28 881.08,544.07 884.36,549.76 887.63,556.34 890.90,557.95 894.18,555.40 897.45,555.26 900.73,552.84 904.00,553.20" />
<text x="824.00" y="502.00" font-size="13" font-family="Arial" fill="#2ca02c" text-anchor="start">K</text>
<text x="860.00" y="502.00" font-size="13" font-family="Arial" fill="#d62728" text-anchor="start">D</text>
</svg>