<svg xmlns="http://www.w3.org/2000/svg" width="960" height="680" viewBox="0 0 960 680"><rect width="100%" height="100%" fill="white" />
<text x="56.00" y="32.00" font-size="20" font-family="Arial" fill="#1f2933" text-anchor="start">AMD Technical Indicators</text>
<line x1="56" y1="220" x2="904" y2="220" stroke="#cbd2d9" />
<line x1="56" y1="58" x2="56" y2="220" stroke="#cbd2d9" />
<text x="16.00" y="50.00" font-size="12" font-family="Arial" fill="#52606d" text-anchor="start">RSI14</text>
<line x1="56" y1="220.00" x2="904" y2="220.00" stroke="#edf2f7" />
<line x1="52" y1="220.00" x2="56" y2="220.00" stroke="#9fb3c8" />
<text x="48.00" y="224.00" font-size="11" font-family="Arial" fill="#52606d" text-anchor="end">-5.00</text>
<line x1="56" y1="166.00" x2="904" y2="166.00" stroke="#edf2f7" />
<line x1="52" y1="166.00" x2="56" y2="166.00" stroke="#9fb3c8" />
<text x="48.00" y="170.00" font-size="11" font-family="Arial" fill="#52606d" text-anchor="end">31.7</text>
<line x1="56" y1="112.00" x2="904" y2="112.00" stroke="#edf2f7" />
<line x1="52" y1="112.00" x2="56" y2="112.00" stroke="#9fb3c8" />
<text x="48.00" y="116.00" font-size="11" font-family="Arial" fill="#52606d" text-anchor="end">68.3</text>
<line x1="56" y1="58.00" x2="904" y2="58.00" stroke="#edf2f7" />
<line x1="52" y1="58.00" x2="56" y2="58.00" stroke="#9fb3c8" />
<text x="48.00" y="62.00" font-size="11" font-family="Arial" fill="#52606d" text-anchor="end">105</text>
<line x1="56" y1="168.45" x2="904" y2="168.45" stroke="#f0b429" stroke-dasharray="5 5" />
<text x="912.00" y="172.45" font-size="10" font-family="Arial" fill="#8d2b0b" text-anchor="start">30.0</text>
<line x1="56" y1="109.55" x2="904" y2="109.55" stroke="#f0b429" stroke-dasharray="5 5" />
<text x="912.00" y="113.55" font-size="10" font-family="Arial" fill="#8d2b0b" text-anchor="start">70.0</text>
<polyline fill="none" stroke="#1f77b4" stroke-width="2" points="101.84,96.75 105.11,93.61 108.39,89.34 111.66,87.45 114.93,86.47 118.21,95.16 121.48,106.49 124.76,102.26 128.03,107.90 131.31,128.78 134.58,119.20 137.85,118.86 141.13,119.69 144.40,116.94 147.68,108.56 150.95,114.83 154.22,120.74 157.50,123.06 160.77,137.39 164.05,139.17 167.32,141.18 170.59,135.56 173.87,141.71 177.14,137.14 180.42,136.42 183.69,134.31 186.97,143.40 190.24,143.84 193.51,144.14 196.79,144.69 200.06,159.30 203.34,158.76 206.61,150.06 209.88,143.45 213.16,149.01 216.43,143.92 219.71,139.57 222.98,140.73 226.25,142.94 229.53,145.07 232.80,146.01 236.08,140.90 239.35,138.58 242.63,138.63 245.90,137.72 249.17,142.07 252.45,137.35 255.72,136.29 259.00,130.90 262.27,119.50 265.54,132.74 268.82,96.25 272.09,93.03 275.37,85.91 278.64,89.69 281.92,111.58 285.19,110.84 288.46,110.00 291.74,101.22 295.01,105.68 298.29,107.35 301.56,104.07 304.83,107.07 308.11,115.95 311.38,113.30 314.66,104.90 317.93,102.28 321.20,104.18 324.48,101.62 327.75,112.34 331.03,111.69 334.30,109.86 337.58,120.51 340.85,116.76 344.12,133.87 347.40,137.11 350.67,129.93 353.95,135.10 357.22,122.40 360.49,130.63 363.77,131.47 367.04,136.08 370.32,143.01 373.59,147.21 376.86,156.67 380.14,157.76 383.41,148.93 386.69,153.73 389.96,147.66 393.24,145.26 396.51,143.60 399.78,146.60 403.06,144.66 406.33,145.84 409.61,144.03 412.88,141.15 416.15,140.66 419.43,140.86 422.70,140.84 425.98,151.06 429.25,153.77 432.53,151.74 435.80,160.69 439.07,156.83 442.35,142.68 445.62,141.13 448.90,141.18 452.17,141.02 455.44,141.08 458.72,140.25 461.99,140.62 465.27,142.30 468.54,129.60 471.81,133.22 475.09,142.50 478.36,147.76 481.64,153.63 484.91,155.21 488.19,148.06 491.46,131.43 494.73,128.71 498.01,124.41 501.28,120.75 504.56,120.67 507.83,107.00 511.10,104.70 514.38,101.44 517.65,113.82 520.93,113.33 524.20,112.81 527.47,113.71 530.75,134.63 534.02,126.09 537.30,130.83 540.57,161.31 543.85,164.83 547.12,151.63 550.39,146.15 553.67,147.58 556.94,147.57 560.22,152.30 563.49,151.09 566.76,153.80 570.04,155.69 573.31,152.39 576.59,154.65 579.86,157.13 583.14,140.38 586.41,142.76 589.68,148.24 592.96,150.77 596.23,151.95 599.51,157.40 602.78,146.08 606.05,148.09 609.33,153.28 612.60,143.42 615.88,142.91 619.15,141.38 622.42,147.53 625.70,151.04 628.97,147.54 632.25,147.78 635.52,144.11 638.80,137.71 642.07,141.91 645.34,140.36 648.62,137.23 651.89,122.93 655.17,140.14 658.44,141.72 661.71,146.88 664.99,139.65 668.26,133.66 671.54,127.84 674.81,125.79 678.08,124.74 681.36,117.31 684.63,114.23 687.91,109.33 691.18,108.34 694.46,104.03 697.73,102.55 701.00,94.56 704.28,94.52 707.55,99.33 710.83,95.65 714.10,89.94 717.37,89.46 720.65,81.64 723.92,94.45 727.20,104.33 730.47,100.48 733.75,96.36 737.02,95.05 740.29,109.72 743.57,105.80 746.84,93.08 750.12,100.51 753.39,93.66 756.66,93.21 759.94,98.89 763.21,100.42 766.49,99.67 769.76,113.53 773.03,115.10 776.31,118.67 779.58,110.14 782.86,109.69 786.13,105.73 789.41,99.13 792.68,103.54 795.95,99.67 799.23,100.74 802.50,104.09 805.78,101.85 809.05,98.09 812.32,108.71 815.60,132.30 818.87,126.05 822.15,131.12 825.42,138.43 828.69,128.87 831.97,123.60 835.24,116.55 838.52,128.80 841.79,127.69 845.07,122.52 848.34,119.74 851.61,129.45 854.89,129.49 858.16,126.49 861.44,130.05 864.71,125.68 867.98,116.99 871.26,129.46 874.53,135.68 877.81,128.17 881.08,137.27 884.36,136.97 887.63,130.37 890.90,128.01 894.18,134.46 897.45,131.29 900.73,136.49 904.00,143.54" />
<text x="808.00" y="76.00" font-size="13" font-family="Arial" fill="#1f77b4" text-anchor="start">RSI14</text>
<line x1="56" y1="432" x2="904" y2="432" stroke="#cbd2d9" />
<line x1="56" y1="272" x2="56" y2="432" stroke="#cbd2d9" />
<text x="16.00" y="264.00" font-size="12" font-family="Arial" fill="#52606d" text-anchor="start">MACD</text>
<line x1="56" y1="432.00" x2="904" y2="432.00" stroke="#edf2f7" />
<line x1="52" y1="432.00" x2="56" y2="432.00" stroke="#9fb3c8" />
<text x="48.00" y="436.00" font-size="11" font-family="Arial" fill="#52606d" text-anchor="end">-14.8</text>
<line x1="56" y1="378.67" x2="904" y2="378.67" stroke="#edf2f7" />
<line x1="52" y1="378.67" x2="56" y2="378.67" stroke="#9fb3c8" />
<text x="48.00" y="382.67" font-size="11" font-family="Arial" fill="#52606d" text-anchor="end">9.00</text>
<line x1="56" y1="325.33" x2="904" y2="325.33" stroke="#edf2f7" />
<line x1="52" y1="325.33" x2="56" y2="325.33" stroke="#9fb3c8" />
<text x="48.00" y="329.33" font-size="11" font-family="Arial" fill="#52606d" text-anchor="end">32.8</text>
<line x1="56" y1="272.00" x2="904" y2="272.00" stroke="#edf2f7" />
<line x1="52" y1="272.00" x2="56" y2="272.00" stroke="#9fb3c8" />
<text x="48.00" y="276.00" font-size="11" font-family="Arial" fill="#52606d" text-anchor="end">56.7</text>
<line x1="56" y1="398.79" x2="904" y2="398.79" stroke="#9fb3c8" stroke-dasharray="4 4" />
<rect x="136.71" y="398.79" width="2.28" height="0.00" fill="#2f9e44" opacity="0.55" />
<rect x="139.99" y="398.79" width="2.28" height="0.59" fill="#d64545" opacity="0.55" />
<rect x="143.26" y="398.79" width="2.28" height="0.69" fill="#d64545" opacity="0.55" />
<rect x="146.53" y="398.31" width="2.28" height="0.48" fill="#2f9e44" opacity="0.55" />
<rect x="149.81" y="398.24" width="2.28" height="0.55" fill="#2f9e44" opacity="0.55" />
<rect x="153.08" y="398.79" width="2.28" height="0.07" fill="#d64545" opacity="0.55" />
<rect x="156.36" y="398.79" width="2.28" height="0.81" fill="#d64545" opacity="0.55" />
<rect x="159.63" y="398.79" width="2.28" height="2.74" fill="#d64545" opacity="0.55" />
<rect x="162.90" y="398.79" width="2.28" height="4.14" fill="#d64545" opacity="0.55" />
<rect x="166.18" y="398.79" width="2.28" height="5.15" fill="#d64545" opacity="0.55" />
<rect x="169.45" y="398.79" width="2.28" height="5.05" fill="#d64545" opacity="0.55" />
<rect x="172.73" y="398.79" width="2.28" height="5.46" fill="#d64545" opacity="0.55" />
<rect x="176.00" y="398.79" width="2.28" height="5.06" fill="#d64545" opacity="0.55" />
<rect x="179.28" y="398.79" width="2.28" height="4.56" fill="#d64545" opacity="0.55" />
<rect x="182.55" y="398.79" width="2.28" height="3.87" fill="#d64545" opacity="0.55" />
<rect x="185.82" y="398.79" width="2.28" height="4.15" fill="#d64545" opacity="0.55" />
<rect x="189.10" y="398.79" width="2.28" height="4.21" fill="#d64545" opacity="0.55" />
<rect x="192.37" y="398.79" width="2.28" height="4.09" fill="#d64545" opacity="0.55" />
<rect x="195.65" y="398.79" width="2.28" height="3.90" fill="#d64545" opacity="0.55" />
<rect x="198.92" y="398.79" width="2.28" height="5.11" fill="#d64545" opacity="0.55" />
<rect x="202.19" y="398.79" width="2.28" height="5.59" fill="#d64545" opacity="0.55" />
<rect x="205.47" y="398.79" width="2.28" height="4.96" fill="#d64545" opacity="0.55" />
<rect x="208.74" y="398.79" width="2.28" height="3.78" fill="#d64545" opacity="0.55" />
<rect x="212.02" y="398.79" width="2.28" height="3.37" fill="#d64545" opacity="0.55" />
<rect x="215.29" y="398.79" width="2.28" height="2.50" fill="#d64545" opacity="0.55" />
<rect x="218.57" y="398.79" width="2.28" height="1.42" fill="#d64545" opacity="0.55" />
<rect x="221.84" y="398.79" width="2.28" height="0.74" fill="#d64545" opacity="0.55" />
<rect x="225.11" y="398.79" width="2.28" height="0.42" fill="#d64545" opacity="0.55" />
<rect x="228.39" y="398.79" width="2.28" height="0.34" fill="#d64545" opacity="0.55" />
<rect x="231.66" y="398.79" width="2.28" height="0.32" fill="#d64545" opacity="0.55" />
<rect x="234.94" y="398.69" width="2.28" height="0.10" fill="#2f9e44" opacity="0.55" />
<rect x="238.21" y="398.24" width="2.28" height="0.55" fill="#2f9e44" opacity="0.55" />
<rect x="241.48" y="397.95" width="2.28" height="0.84" fill="#2f9e44" opacity="0.55" />
<rect x="244.76" y="397.73" width="2.28" height="1.06" fill="#2f9e44" opacity="0.55" />
<rect x="248.03" y="397.87" width="2.28" height="0.92" fill="#2f9e44" opacity="0.55" />
<rect x="251.31" y="397.70" width="2.28" height="1.08" fill="#2f9e44" opacity="0.55" />
<rect x="254.58" y="397.57" width="2.28" height="1.22" fill="#2f9e44" opacity="0.55" />
<rect x="257.85" y="397.21" width="2.28" height="1.58" fill="#2f9e44" opacity="0.55" />
<rect x="261.13" y="396.23" width="2.28" height="2.56" fill="#2f9e44" opacity="0.55" />
<rect x="264.40" y="396.45" width="2.28" height="2.33" fill="#2f9e44" opacity="0.55" />
<rect x="267.68" y="391.14" width="2.28" height="7.65" fill="#2f9e44" opacity="0.55" />
<rect x="270.95" y="387.10" width="2.28" height="11.69" fill="#2f9e44" opacity="0.55" />
<rect x="274.23" y="381.78" width="2.28" height="17.01" fill="#2f9e44" opacity="0.55" />
<rect x="277.50" y="379.79" width="2.28" height="18.99" fill="#2f9e44" opacity="0.55" />
<rect x="280.77" y="382.23" width="2.28" height="16.56" fill="#2f9e44" opacity="0.55" />
<rect x="284.05" y="384.56" width="2.28" height="14.23" fill="#2f9e44" opacity="0.55" />
<rect x="287.32" y="386.72" width="2.28" height="12.07" fill="#2f9e44" opacity="0.55" />
<rect x="290.60" y="385.99" width="2.28" height="12.80" fill="#2f9e44" opacity="0.55" />
<rect x="293.87" y="387.02" width="2.28" height="11.77" fill="#2f9e44" opacity="0.55" />
<rect x="297.14" y="388.77" width="2.28" height="10.02" fill="#2f9e44" opacity="0.55" />
<rect x="300.42" y="389.61" width="2.28" height="9.18" fill="#2f9e44" opacity="0.55" />
<rect x="303.69" y="391.30" width="2.28" height="7.49" fill="#2f9e44" opacity="0.55" />
<rect x="306.97" y="394.19" width="2.28" height="4.60" fill="#2f9e44" opacity="0.55" />
<rect x="310.24" y="395.91" width="2.28" height="2.88" fill="#2f9e44" opacity="0.55" />
<rect x="313.51" y="394.93" width="2.28" height="3.86" fill="#2f9e44" opacity="0.55" />
<rect x="316.79" y="393.90" width="2.28" height="4.88" fill="#2f9e44" opacity="0.55" />
<rect x="320.06" y="394.13" width="2.28" height="4.66" fill="#2f9e44" opacity="0.55" />
<rect x="323.34" y="393.98" width="2.28" height="4.80" fill="#2f9e44" opacity="0.55" />
<rect x="326.61" y="395.89" width="2.28" height="2.90" fill="#2f9e44" opacity="0.55" />
<rect x="329.89" y="397.45" width="2.28" height="1.33" fill="#2f9e44" opacity="0.55" />
<rect x="333.16" y="398.40" width="2.28" height="0.39" fill="#2f9e44" opacity="0.55" />
<rect x="336.43" y="398.79" width="2.28" height="1.99" fill="#d64545" opacity="0.55" />
<rect x="339.71" y="398.79" width="2.28" height="2.88" fill="#d64545" opacity="0.55" />
<rect x="342.98" y="398.79" width="2.28" height="6.33" fill="#d64545" opacity="0.55" />
<rect x="346.26" y="398.79" width="2.28" height="9.14" fill="#d64545" opacity="0.55" />
<rect x="349.53" y="398.79" width="2.28" height="9.28" fill="#d64545" opacity="0.55" />
<rect x="352.80" y="398.79" width="2.28" height="10.13" fill="#d64545" opacity="0.55" />
<rect x="356.08" y="398.79" width="2.28" height="7.40" fill="#d64545" opacity="0.55" />
<rect x="359.35" y="398.79" width="2.28" height="7.15" fill="#d64545" opacity="0.55" />
<rect x="362.63" y="398.79" width="2.28" height="7.06" fill="#d64545" opacity="0.55" />
<rect x="365.90" y="398.79" width="2.28" height="7.79" fill="#d64545" opacity="0.55" />
<rect x="369.18" y="398.79" width="2.28" height="9.54" fill="#d64545" opacity="0.55" />
<rect x="372.45" y="398.79" width="2.28" height="11.32" fill="#d64545" opacity="0.55" />
<rect x="375.72" y="398.79" width="2.28" height="14.55" fill="#d64545" opacity="0.55" />
<rect x="379.00" y="398.79" width="2.28" height="16.28" fill="#d64545" opacity="0.55" />
<rect x="382.27" y="398.79" width="2.28" height="15.03" fill="#d64545" opacity="0.55" />
<rect x="385.55" y="398.79" width="2.28" height="14.83" fill="#d64545" opacity="0.55" />
<rect x="388.82" y="398.79" width="2.28" height="12.82" fill="#d64545" opacity="0.55" />
<rect x="392.09" y="398.79" width="2.28" height="10.45" fill="#d64545" opacity="0.55" />
<rect x="395.37" y="398.79" width="2.28" height="8.10" fill="#d64545" opacity="0.55" />
<rect x="398.64" y="398.79" width="2.28" height="6.83" fill="#d64545" opacity="0.55" />
<rect x="401.92" y="398.79" width="2.28" height="5.31" fill="#d64545" opacity="0.55" />
<rect x="405.19" y="398.79" width="2.28" height="4.27" fill="#d64545" opacity="0.55" />
<rect x="408.46" y="398.79" width="2.28" height="3.06" fill="#d64545" opacity="0.55" />
<rect x="411.74" y="398.79" width="2.28" height="1.63" fill="#d64545" opacity="0.55" />
<rect x="415.01" y="398.79" width="2.28" height="0.51" fill="#d64545" opacity="0.55" />
<rect x="418.29" y="398.54" width="2.28" height="0.25" fill="#2f9e44" opacity="0.55" />
<rect x="421.56" y="398.01" width="2.28" height="0.78" fill="#2f9e44" opacity="0.55" />
<rect x="424.84" y="398.79" width="2.28" height="0.39" fill="#d64545" opacity="0.55" />
<rect x="428.11" y="398.79" width="2.28" height="1.49" fill="#d64545" opacity="0.55" />
<rect x="431.38" y="398.79" width="2.28" height="1.82" fill="#d64545" opacity="0.55" />
<rect x="434.66" y="398.79" width="2.28" height="3.43" fill="#d64545" opacity="0.55" />
<rect x="437.93" y="398.79" width="2.28" height="3.77" fill="#d64545" opacity="0.55" />
<rect x="441.21" y="398.79" width="2.28" height="1.92" fill="#d64545" opacity="0.55" />
<rect x="444.48" y="398.79" width="2.28" height="0.36" fill="#d64545" opacity="0.55" />
<rect x="447.75" y="398.07" width="2.28" height="0.72" fill="#2f9e44" opacity="0.55" />
<rect x="451.03" y="397.32" width="2.28" height="1.47" fill="#2f9e44" opacity="0.55" />
<rect x="454.30" y="396.84" width="2.28" height="1.95" fill="#2f9e44" opacity="0.55" />
<rect x="457.58" y="396.48" width="2.28" height="2.31" fill="#2f9e44" opacity="0.55" />
<rect x="460.85" y="396.33" width="2.28" height="2.46" fill="#2f9e44" opacity="0.55" />
<rect x="464.12" y="396.47" width="2.28" height="2.32" fill="#2f9e44" opacity="0.55" />
<rect x="467.40" y="395.28" width="2.28" height="3.51" fill="#2f9e44" opacity="0.55" />
<rect x="470.67" y="395.00" width="2.28" height="3.79" fill="#2f9e44" opacity="0.55" />
<rect x="473.95" y="395.93" width="2.28" height="2.86" fill="#2f9e44" opacity="0.55" />
<rect x="477.22" y="397.24" width="2.28" height="1.54" fill="#2f9e44" opacity="0.55" />
<rect x="480.50" y="398.79" width="2.28" height="0.08" fill="#d64545" opacity="0.55" />
<rect x="483.77" y="398.79" width="2.28" height="1.27" fill="#d64545" opacity="0.55" />
<rect x="487.04" y="398.79" width="2.28" height="1.26" fill="#d64545" opacity="0.55" />
<rect x="490.32" y="398.04" width="2.28" height="0.75" fill="#2f9e44" opacity="0.55" />
<rect x="493.59" y="396.40" width="2.28" height="2.39" fill="#2f9e44" opacity="0.55" />
<rect x="496.87" y="394.84" width="2.28" height="3.95" fill="#2f9e44" opacity="0.55" />
<rect x="500.14" y="393.48" width="2.28" height="5.31" fill="#2f9e44" opacity="0.55" />
<rect x="503.41" y="392.88" width="2.28" height="5.91" fill="#2f9e44" opacity="0.55" />
<rect x="506.69" y="390.26" width="2.28" height="8.53" fill="#2f9e44" opacity="0.55" />
<rect x="509.96" y="388.51" width="2.28" height="10.28" fill="#2f9e44" opacity="0.55" />
<rect x="513.24" y="387.15" width="2.28" height="11.64" fill="#2f9e44" opacity="0.55" />
<rect x="516.51" y="388.16" width="2.28" height="10.62" fill="#2f9e44" opacity="0.55" />
<rect x="519.79" y="389.35" width="2.28" height="9.44" fill="#2f9e44" opacity="0.55" />
<rect x="523.06" y="390.59" width="2.28" height="8.20" fill="#2f9e44" opacity="0.55" />
<rect x="526.33" y="392.01" width="2.28" height="6.78" fill="#2f9e44" opacity="0.55" />
<rect x="529.61" y="395.61" width="2.28" height="3.18" fill="#2f9e44" opacity="0.55" />
<rect x="532.88" y="396.82" width="2.28" height="1.97" fill="#2f9e44" opacity="0.55" />
<rect x="536.16" y="398.43" width="2.28" height="0.36" fill="#2f9e44" opacity="0.55" />
<rect x="539.43" y="398.79" width="2.28" height="6.82" fill="#d64545" opacity="0.55" />
<rect x="542.70" y="398.79" width="2.28" height="12.20" fill="#d64545" opacity="0.55" />
<rect x="545.98" y="398.79" width="2.28" height="12.77" fill="#d64545" opacity="0.55" />
<rect x="549.25" y="398.79" width="2.28" height="11.46" fill="#d64545" opacity="0.55" />
<rect x="552.53" y="398.79" width="2.28" height="10.45" fill="#d64545" opacity="0.55" />
<rect x="555.80" y="398.79" width="2.28" height="9.30" fill="#d64545" opacity="0.55" />
<rect x="559.07" y="398.79" width="2.28" height="9.20" fill="#d64545" opacity="0.55" />
<rect x="562.35" y="398.79" width="2.28" height="8.45" fill="#d64545" opacity="0.55" />
<rect x="565.62" y="398.79" width="2.28" height="8.12" fill="#d64545" opacity="0.55" />
<rect x="568.90" y="398.79" width="2.28" height="7.86" fill="#d64545" opacity="0.55" />
<rect x="572.17" y="398.79" width="2.28" height="6.76" fill="#d64545" opacity="0.55" />
<rect x="575.45" y="398.79" width="2.28" height="6.10" fill="#d64545" opacity="0.55" />
<rect x="578.72" y="398.79" width="2.28" height="5.78" fill="#d64545" opacity="0.55" />
<rect x="581.99" y="398.79" width="2.28" height="2.71" fill="#d64545" opacity="0.55" />
<rect x="585.27" y="398.79" width="2.28" height="0.96" fill="#d64545" opacity="0.55" />
<rect x="588.54" y="398.79" width="2.28" height="0.73" fill="#d64545" opacity="0.55" />
<rect x="591.82" y="398.79" width="2.28" height="0.92" fill="#d64545" opacity="0.55" />
<rect x="595.09" y="398.79" width="2.28" height="1.11" fill="#d64545" opacity="0.55" />
<rect x="598.36" y="398.79" width="2.28" height="2.14" fill="#d64545" opacity="0.55" />
<rect x="601.64" y="398.79" width="2.28" height="0.96" fill="#d64545" opacity="0.55" />
<rect x="604.91" y="398.79" width="2.28" height="0.42" fill="#d64545" opacity="0.55" />
<rect x="608.19" y="398.79" width="2.28" height="0.94" fill="#d64545" opacity="0.55" />
<rect x="611.46" y="398.41" width="2.28" height="0.38" fill="#2f9e44" opacity="0.55" />
<rect x="614.73" y="397.39" width="2.28" height="1.40" fill="#2f9e44" opacity="0.55" />
<rect x="618.01" y="396.48" width="2.28" height="2.31" fill="#2f9e44" opacity="0.55" />
<rect x="621.28" y="396.91" width="2.28" height="1.87" fill="#2f9e44" opacity="0.55" />
<rect x="624.56" y="397.79" width="2.28" height="1.00" fill="#2f9e44" opacity="0.55" />
<rect x="627.83" y="397.83" width="2.28" height="0.96" fill="#2f9e44" opacity="0.55" />
<rect x="631.11" y="397.83" width="2.28" height="0.96" fill="#2f9e44" opacity="0.55" />
<rect x="634.38" y="397.32" width="2.28" height="1.47" fill="#2f9e44" opacity="0.55" />
<rect x="637.65" y="396.14" width="2.28" height="2.65" fill="#2f9e44" opacity="0.55" />
<rect x="640.93" y="396.00" width="2.28" height="2.79" fill="#2f9e44" opacity="0.55" />
<rect x="644.20" y="395.78" width="2.28" height="3.01" fill="#2f9e44" opacity="0.55" />
<rect x="647.48" y="395.32" width="2.28" height="3.47" fill="#2f9e44" opacity="0.55" />
<rect x="650.75" y="393.01" width="2.28" height="5.77" fill="#2f9e44" opacity="0.55" />
<rect x="654.02" y="394.16" width="2.28" height="4.63" fill="#2f9e44" opacity="0.55" />
<rect x="657.30" y="395.32" width="2.28" height="3.47" fill="#2f9e44" opacity="0.55" />
<rect x="660.57" y="397.03" width="2.28" height="1.76" fill="#2f9e44" opacity="0.55" />
<rect x="663.85" y="397.10" width="2.28" height="1.69" fill="#2f9e44" opacity="0.55" />
<rect x="667.12" y="396.22" width="2.28" height="2.57" fill="#2f9e44" opacity="0.55" />
<rect x="670.40" y="394.73" width="2.28" height="4.06" fill="#2f9e44" opacity="0.55" />
<rect x="673.67" y="393.60" width="2.28" height="5.18" fill="#2f9e44" opacity="0.55" />
<rect x="676.94" y="392.96" width="2.28" height="5.82" fill="#2f9e44" opacity="0.55" />
<rect x="680.22" y="391.40" width="2.28" height="7.39" fill="#2f9e44" opacity="0.55" />
<rect x="683.49" y="390.14" width="2.28" height="8.65" fill="#2f9e44" opacity="0.55" />
<rect x="686.77" y="388.64" width="2.28" height="10.15" fill="#2f9e44" opacity="0.55" />
<rect x="690.04" y="388.03" width="2.28" height="10.75" fill="#2f9e44" opacity="0.55" />
<rect x="693.31" y="387.13" width="2.28" height="11.66" fill="#2f9e44" opacity="0.55" />
<rect x="696.59" y="386.85" width="2.28" height="11.94" fill="#2f9e44" opacity="0.55" />
<rect x="699.86" y="384.56" width="2.28" height="14.22" fill="#2f9e44" opacity="0.55" />
<rect x="703.14" y="384.03" width="2.28" height="14.76" fill="#2f9e44" opacity="0.55" />
<rect x="706.41" y="385.16" width="2.28" height="13.62" fill="#2f9e44" opacity="0.55" />
<rect x="709.68" y="385.46" width="2.28" height="13.32" fill="#2f9e44" opacity="0.55" />
<rect x="712.96" y="383.91" width="2.28" height="14.88" fill="#2f9e44" opacity="0.55" />
<rect x="716.23" y="383.75" width="2.28" height="15.04" fill="#2f9e44" opacity="0.55" />
<rect x="719.51" y="378.70" width="2.28" height="20.08" fill="#2f9e44" opacity="0.55" />
<rect x="722.78" y="378.86" width="2.28" height="19.93" fill="#2f9e44" opacity="0.55" />
<rect x="726.06" y="382.06" width="2.28" height="16.73" fill="#2f9e44" opacity="0.55" />
<rect x="729.33" y="383.42" width="2.28" height="15.37" fill="#2f9e44" opacity="0.55" />
<rect x="732.60" y="383.09" width="2.28" height="15.69" fill="#2f9e44" opacity="0.55" />
<rect x="735.88" y="383.39" width="2.28" height="15.40" fill="#2f9e44" opacity="0.55" />
<rect x="739.15" y="387.66" width="2.28" height="11.13" fill="#2f9e44" opacity="0.55" />
<rect x="742.43" y="389.56" width="2.28" height="9.23" fill="#2f9e44" opacity="0.55" />
<rect x="745.70" y="382.40" width="2.28" height="16.38" fill="#2f9e44" opacity="0.55" />
<rect x="748.97" y="381.28" width="2.28" height="17.51" fill="#2f9e44" opacity="0.55" />
<rect x="752.25" y="375.52" width="2.28" height="23.27" fill="#2f9e44" opacity="0.55" />
<rect x="755.52" y="373.36" width="2.28" height="25.43" fill="#2f9e44" opacity="0.55" />
<rect x="758.80" y="375.64" width="2.28" height="23.15" fill="#2f9e44" opacity="0.55" />
<rect x="762.07" y="379.54" width="2.28" height="19.25" fill="#2f9e44" opacity="0.55" />
<rect x="765.34" y="383.29" width="2.28" height="15.49" fill="#2f9e44" opacity="0.55" />
<rect x="768.62" y="391.05" width="2.28" height="7.74" fill="#2f9e44" opacity="0.55" />
<rect x="771.89" y="397.72" width="2.28" height="1.07" fill="#2f9e44" opacity="0.55" />
<rect x="775.17" y="398.79" width="2.28" height="5.11" fill="#d64545" opacity="0.55" />
<rect x="778.44" y="398.79" width="2.28" height="4.87" fill="#d64545" opacity="0.55" />
<rect x="781.72" y="398.79" width="2.28" height="5.12" fill="#d64545" opacity="0.55" />
<rect x="784.99" y="398.79" width="2.28" height="3.37" fill="#d64545" opacity="0.55" />
<rect x="788.26" y="396.60" width="2.28" height="2.19" fill="#2f9e44" opacity="0.55" />
<rect x="791.54" y="395.35" width="2.28" height="3.44" fill="#2f9e44" opacity="0.55" />
<rect x="794.81" y="392.45" width="2.28" height="6.34" fill="#2f9e44" opacity="0.55" />
<rect x="798.09" y="392.19" width="2.28" height="6.60" fill="#2f9e44" opacity="0.55" />
<rect x="801.36" y="394.18" width="2.28" height="4.60" fill="#2f9e44" opacity="0.55" />
<rect x="804.63" y="395.01" width="2.28" height="3.78" fill="#2f9e44" opacity="0.55" />
<rect x="807.91" y="393.71" width="2.28" height="5.08" fill="#2f9e44" opacity="0.55" />
<rect x="811.18" y="396.91" width="2.28" height="1.88" fill="#2f9e44" opacity="0.55" />
<rect x="814.46" y="398.79" width="2.28" height="9.32" fill="#d64545" opacity="0.55" />
<rect x="817.73" y="398.79" width="2.28" height="13.41" fill="#d64545" opacity="0.55" />
<rect x="821.01" y="398.79" width="2.28" height="18.32" fill="#d64545" opacity="0.55" />
<rect x="824.28" y="398.79" width="2.28" height="24.64" fill="#d64545" opacity="0.55" />
<rect x="827.55" y="398.79" width="2.28" height="23.00" fill="#d64545" opacity="0.55" />
<rect x="830.83" y="398.79" width="2.28" height="18.26" fill="#d64545" opacity="0.55" />
<rect x="834.10" y="398.79" width="2.28" height="9.98" fill="#d64545" opacity="0.55" />
<rect x="837.38" y="398.79" width="2.28" height="10.70" fill="#d64545" opacity="0.55" />
<rect x="840.65" y="398.79" width="2.28" height="10.55" fill="#d64545" opacity="0.55" />
<rect x="843.92" y="398.79" width="2.28" height="7.03" fill="#d64545" opacity="0.55" />
<rect x="847.20" y="398.79" width="2.28" height="3.08" fill="#d64545" opacity="0.55" />
<rect x="850.47" y="398.79" width="2.28" height="5.63" fill="#d64545" opacity="0.55" />
<rect x="853.75" y="398.79" width="2.28" height="7.59" fill="#d64545" opacity="0.55" />
<rect x="857.02" y="398.79" width="2.28" height="7.21" fill="#d64545" opacity="0.55" />
<rect x="860.29" y="398.79" width="2.28" height="8.78" fill="#d64545" opacity="0.55" />
<rect x="863.57" y="398.79" width="2.28" height="7.33" fill="#d64545" opacity="0.55" />
<rect x="866.84" y="398.79" width="2.28" height="0.69" fill="#d64545" opacity="0.55" />
<rect x="870.12" y="398.79" width="2.28" height="2.78" fill="#d64545" opacity="0.55" />
<rect x="873.39" y="398.79" width="2.28" height="7.80" fill="#d64545" opacity="0.55" />
<rect x="876.67" y="398.79" width="2.28" height="6.19" fill="#d64545" opacity="0.55" />
<rect x="879.94" y="398.79" width="2.28" height="10.52" fill="#d64545" opacity="0.55" />
<rect x="883.21" y="398.79" width="2.28" height="13.00" fill="#d64545" opacity="0.55" />
<rect x="886.49" y="398.79" width="2.28" height="10.17" fill="#d64545" opacity="0.55" />
<rect x="889.76" y="398.79" width="2.28" height="6.72" fill="#d64545" opacity="0.55" />
<rect x="893.04" y="398.79" width="2.28" height="8.00" fill="#d64545" opacity="0.55" />
<rect x="896.31" y="398.79" width="2.28" height="6.84" fill="#d64545" opacity="0.55" />
<rect x="899.58" y="398.79" width="2.28" height="8.87" fill="#d64545" opacity="0.55" />
<rect x="902.86" y="398.79" width="2.28" height="14.09" fill="#d64545" opacity="0.55" />
<polyline fill="none" stroke="#1f77b4" stroke-width="2" points="137.85,382.39 141.13,383.12 144.40,383.40 147.68,382.10 150.95,381.90 154.22,382.54 157.50,383.47 160.77,386.09 164.05,388.53 167.32,390.82 170.59,391.99 173.87,393.76 177.14,394.63 180.42,395.26 183.69,395.54 186.97,396.86 190.24,397.97 193.51,398.88 196.79,399.65 200.06,402.15 203.34,404.02 206.61,404.64 209.88,404.39 213.16,404.83 216.43,404.58 219.71,403.86 222.98,403.36 226.25,403.15 229.53,403.16 232.80,403.21 236.08,402.77 239.35,402.18 242.63,401.69 245.90,401.20 249.17,401.11 252.45,400.67 255.72,400.23 259.00,399.48 262.27,397.85 265.54,397.50 268.82,390.27 272.09,383.31 275.37,373.74 278.64,367.00 281.92,365.30 285.19,364.07 288.46,363.21 291.74,359.28 295.01,357.37 298.29,356.62 301.56,355.17 304.83,354.98 308.11,356.73 311.38,357.72 314.66,355.77 317.93,353.53 321.20,352.59 324.48,351.24 327.75,352.43 331.03,353.66 334.30,354.50 337.58,357.38 340.85,358.99 344.12,364.03 347.40,369.11 350.67,371.57 353.95,374.96 357.22,374.08 360.49,375.62 363.77,377.29 367.04,379.97 370.32,384.11 373.59,388.72 376.86,395.58 380.14,401.39 383.41,403.90 386.69,407.40 389.96,408.60 393.24,408.83 396.51,408.51 399.78,408.95 403.06,408.76 406.33,408.78 409.61,408.33 412.88,407.31 416.15,406.33 419.43,405.50 422.70,404.78 425.98,406.04 429.25,407.52 432.53,408.30 435.80,410.77 439.07,412.05 442.35,410.69 445.62,409.21 448.90,407.95 452.17,406.83 455.44,405.87 458.72,404.93 461.99,404.17 465.27,403.72 468.54,401.65 471.81,400.43 475.09,400.65 478.36,401.57 481.64,403.22 484.91,404.73 488.19,405.04 491.46,402.84 494.73,400.60 498.01,398.05 501.28,395.37 504.56,393.29 507.83,388.53 511.10,384.22 514.38,379.94 517.65,378.30 520.93,377.12 524.20,376.32 527.47,376.05 530.75,378.85 534.02,379.57 537.30,381.09 540.57,389.97 543.85,398.40 547.12,402.16 550.39,403.72 553.67,405.32 556.94,406.50 560.22,408.70 563.49,410.06 566.76,411.76 570.04,413.47 573.31,414.06 576.59,414.92 579.86,416.05 583.14,413.66 586.41,412.15 589.68,412.09 592.96,412.52 596.23,412.98 599.51,414.55 602.78,413.61 606.05,413.18 609.33,413.92 612.60,412.51 615.88,411.15 619.15,409.65 622.42,409.62 625.70,410.25 628.97,410.04 632.25,409.80 635.52,408.93 638.80,407.09 642.07,406.25 645.34,405.28 648.62,403.95 651.89,400.20 655.17,400.19 658.44,400.48 661.71,401.76 664.99,401.40 668.26,399.88 671.54,397.38 674.81,394.95 678.08,392.86 681.36,389.45 684.63,386.02 687.91,381.98 691.18,378.69 694.46,374.87 697.73,371.61 701.00,365.77 704.28,361.54 707.55,359.27 710.83,356.24 714.10,350.96 717.37,347.04 720.65,336.98 723.92,332.15 727.20,331.16 730.47,328.68 733.75,324.44 737.02,320.88 740.29,322.37 743.57,321.96 746.84,310.71 750.12,305.21 753.39,293.63 756.66,285.11 759.94,281.60 763.21,280.69 766.49,280.57 769.76,286.39 773.03,292.79 776.31,300.25 779.58,301.23 782.86,302.76 786.13,301.85 789.41,295.75 792.68,293.63 795.95,289.15 799.23,287.24 802.50,288.08 805.78,287.97 809.05,285.40 812.32,288.12 815.60,301.66 818.87,309.10 822.15,318.59 825.42,331.07 828.69,335.18 831.97,335.00 835.24,329.22 838.52,332.62 841.79,335.11 845.07,333.34 848.34,330.16 851.61,334.12 854.89,337.98 858.16,339.40 861.44,343.16 864.71,343.54 867.98,337.08 871.26,339.86 874.53,346.83 877.81,346.77 881.08,353.73 884.36,359.46 887.63,359.18 890.90,357.41 894.18,360.69 897.45,361.24 900.73,365.49 904.00,374.23" />
<polyline fill="none" stroke="#ff7f0e" stroke-width="2" points="137.85,382.39 141.13,382.53 144.40,382.71 147.68,382.59 150.95,382.45 154.22,382.47 157.50,382.67 160.77,383.35 164.05,384.39 167.32,385.67 170.59,386.94 173.87,388.30 177.14,389.57 180.42,390.70 183.69,391.67 186.97,392.71 190.24,393.76 193.51,394.78 196.79,395.76 200.06,397.04 203.34,398.43 206.61,399.67 209.88,400.62 213.16,401.46 216.43,402.08 219.71,402.44 222.98,402.62 226.25,402.73 229.53,402.82 232.80,402.89 236.08,402.87 239.35,402.73 242.63,402.52 245.90,402.26 249.17,402.03 252.45,401.76 255.72,401.45 259.00,401.06 262.27,400.42 265.54,399.83 268.82,397.92 272.09,395.00 275.37,390.74 278.64,386.00 281.92,381.86 285.19,378.30 288.46,375.28 291.74,372.08 295.01,369.14 298.29,366.64 301.56,364.34 304.83,362.47 308.11,361.32 311.38,360.60 314.66,359.64 317.93,358.41 321.20,357.25 324.48,356.05 327.75,355.32 331.03,354.99 334.30,354.89 337.58,355.39 340.85,356.11 344.12,357.69 347.40,359.98 350.67,362.30 353.95,364.83 357.22,366.68 360.49,368.47 363.77,370.23 367.04,372.18 370.32,374.57 373.59,377.40 376.86,381.03 380.14,385.10 383.41,388.86 386.69,392.57 389.96,395.77 393.24,398.39 396.51,400.41 399.78,402.12 403.06,403.45 406.33,404.51 409.61,405.28 412.88,405.69 416.15,405.81 419.43,405.75 422.70,405.56 425.98,405.65 429.25,406.03 432.53,406.48 435.80,407.34 439.07,408.28 442.35,408.76 445.62,408.85 448.90,408.67 452.17,408.30 455.44,407.82 458.72,407.24 461.99,406.62 465.27,406.04 468.54,405.17 471.81,404.22 475.09,403.50 478.36,403.12 481.64,403.14 484.91,403.46 488.19,403.77 491.46,403.59 494.73,402.99 498.01,402.00 501.28,400.67 504.56,399.20 507.83,397.06 511.10,394.49 514.38,391.58 517.65,388.93 520.93,386.57 524.20,384.52 527.47,382.82 530.75,382.03 534.02,381.54 537.30,381.45 540.57,383.15 543.85,386.20 547.12,389.39 550.39,392.26 553.67,394.87 556.94,397.20 560.22,399.50 563.49,401.61 566.76,403.64 570.04,405.60 573.31,407.29 576.59,408.82 579.86,410.27 583.14,410.94 586.41,411.18 589.68,411.37 592.96,411.60 596.23,411.87 599.51,412.41 602.78,412.65 606.05,412.75 609.33,412.99 612.60,412.89 615.88,412.54 619.15,411.96 622.42,411.50 625.70,411.25 628.97,411.01 632.25,410.77 635.52,410.40 638.80,409.74 642.07,409.04 645.34,408.29 648.62,407.42 651.89,405.98 655.17,404.82 658.44,403.95 661.71,403.51 664.99,403.09 668.26,402.45 671.54,401.43 674.81,400.14 678.08,398.68 681.36,396.83 684.63,394.67 687.91,392.13 691.18,389.45 694.46,386.53 697.73,383.55 701.00,379.99 704.28,376.30 707.55,372.89 710.83,369.56 714.10,365.84 717.37,362.08 720.65,357.06 723.92,352.08 727.20,347.90 730.47,344.05 733.75,340.13 737.02,336.28 740.29,333.50 743.57,331.19 746.84,327.09 750.12,322.72 753.39,316.90 756.66,310.54 759.94,304.75 763.21,299.94 766.49,296.07 769.76,294.13 773.03,293.86 776.31,295.14 779.58,296.36 782.86,297.64 786.13,298.48 789.41,297.93 792.68,297.07 795.95,295.49 799.23,293.84 802.50,292.69 805.78,291.74 809.05,290.48 812.32,290.01 815.60,292.34 818.87,295.69 822.15,300.27 825.42,306.43 828.69,312.18 831.97,316.74 835.24,319.24 838.52,321.92 841.79,324.55 845.07,326.31 848.34,327.08 851.61,328.49 854.89,330.39 858.16,332.19 861.44,334.38 864.71,336.22 867.98,336.39 871.26,337.08 874.53,339.03 877.81,340.58 881.08,343.21 884.36,346.46 887.63,349.00 890.90,350.68 894.18,352.68 897.45,354.39 900.73,356.61 904.00,360.14" />
<text x="754.00" y="290.00" font-size="13" font-family="Arial" fill="#1f77b4" text-anchor="start">MACD</text>
<text x="818.00" y="290.00" font-size="13" font-family="Arial" fill="#ff7f0e" text-anchor="start">Signal</text>
<line x1="56" y1="624" x2="904" y2="624" stroke="#cbd2d9" />
<line x1="56" y1="484" x2="56" y2="624" stroke="#cbd2d9" />
<text x="16.00" y="476.00" font-size="12" font-family="Arial" fill="#52606d" text-anchor="start">KD</text>
<line x1="56" y1="624.00" x2="904" y2="624.00" stroke="#edf2f7" />
<line x1="52" y1="624.00" x2="56" y2="624.00" stroke="#9fb3c8" />
<text x="48.00" y="628.00" font-size="11" font-family="Arial" fill="#52606d" text-anchor="end">-5.00</text>
<line x1="56" y1="577.33" x2="904" y2="577.33" stroke="#edf2f7" />
<line x1="52" y1="577.33" x2="56" y2="577.33" stroke="#9fb3c8" />
<text x="48.00" y="581.33" font-size="11" font-family="Arial" fill="#52606d" text-anchor="end">31.7</text>
<line x1="56" y1="530.67" x2="904" y2="530.67" stroke="#edf2f7" />
<line x1="52" y1="530.67" x2="56" y2="530.67" stroke="#9fb3c8" />
<text x="48.00" y="534.67" font-size="11" font-family="Arial" fill="#52606d" text-anchor="end">68.3</text>
<line x1="56" y1="484.00" x2="904" y2="484.00" stroke="#edf2f7" />
<line x1="52" y1="484.00" x2="56" y2="484.00" stroke="#9fb3c8" />
<text x="48.00" y="488.00" font-size="11" font-family="Arial" fill="#52606d" text-anchor="end">105</text>
<line x1="56.00" y1="624" x2="56.00" y2="628" stroke="#9fb3c8" />
<text x="56.00" y="642.00" font-size="11" font-family="Arial" fill="#52606d" text-anchor="middle">07/03</text>
<line x1="226.25" y1="624" x2="226.25" y2="628" stroke="#9fb3c8" />
<text x="226.25" y="642.00" font-size="11" font-family="Arial" fill="#52606d" text-anchor="middle">09/17</text>
<line x1="396.51" y1="624" x2="396.51" y2="628" stroke="#9fb3c8" />
<text x="396.51" y="642.00" font-size="11" font-family="Arial" fill="#52606d" text-anchor="middle">12/01</text>
<line x1="563.49" y1="624" x2="563.49" y2="628" stroke="#9fb3c8" />
<text x="563.49" y="642.00" font-size="11" font-family="Arial" fill="#52606d" text-anchor="middle">02/13</text>
<line x1="733.75" y1="624" x2="733.75" y2="628" stroke="#9fb3c8" />
<text x="733.75" y="642.00" font-size="11" font-family="Arial" fill="#52606d" text-anchor="middle">04/30</text>
<line x1="904.00" y1="624" x2="904.00" y2="628" stroke="#9fb3c8" />
<text x="904.00" y="642.00" font-size="11" font-family="Arial" fill="#52606d" text-anchor="middle">07/16</text>
<line x1="56" y1="592.18" x2="904" y2="592.18" stroke="#f0b429" stroke-dasharray="5 5" />
<text x="912.00" y="596.18" font-size="10" font-family="Arial" fill="#8d2b0b" text-anchor="start">20.0</text>
<line x1="56" y1="515.82" x2="904" y2="515.82" stroke="#f0b429" stroke-dasharray="5 5" />
<text x="912.00" y="519.82" font-size="10" font-family="Arial" fill="#8d2b0b" text-anchor="start">80.0</text>
<polyline fill="none" stroke="#2ca02c" stroke-width="2" points="82.19,533.23 85.47,521.25 88.74,519.05 92.02,518.12 95.29,523.96 98.56,519.66 101.84,513.38 105.11,507.39 108.39,503.46 111.66,505.36 114.93,503.96 118.21,507.35 121.48,515.50 124.76,516.28 128.03,522.04 131.31,544.77 134.58,543.98 137.85,542.84 141.13,542.90 144.40,538.36 147.68,525.64 150.95,522.26 154.22,525.07 157.50,528.96 160.77,557.59 164.05,567.22 167.32,575.87 170.59,575.59 173.87,581.97 177.14,580.80 180.42,575.87 183.69,568.47 186.97,572.40 190.24,570.65 193.51,570.05 196.79,570.65 200.06,584.35 203.34,591.18 206.61,587.14 209.88,577.19 213.16,576.53 216.43,564.69 219.71,549.72 222.98,541.21 226.25,539.14 229.53,541.20 232.80,544.89 236.08,540.41 239.35,531.53 242.63,529.55 245.90,527.14 249.17,530.57 252.45,527.57 255.72,524.38 259.00,517.52 262.27,511.93 265.54,521.40 268.82,524.62 272.09,522.16 275.37,511.73 278.64,508.40 281.92,515.62 285.19,519.82 288.46,522.13 291.74,512.37 295.01,512.41 298.29,515.85 301.56,510.42 304.83,510.66 308.11,521.98 311.38,523.40 314.66,512.92 317.93,506.21 321.20,507.95 324.48,504.85 327.75,512.33 331.03,516.02 334.30,514.94 337.58,525.49 340.85,531.93 344.12,557.85 347.40,568.88 350.67,565.80 353.95,569.15 357.22,547.93 360.49,545.71 363.77,545.49 367.04,552.21 370.32,567.85 373.59,580.73 376.86,591.96 380.14,595.08 383.41,590.18 386.69,591.64 389.96,585.99 393.24,578.44 396.51,566.78 399.78,562.04 403.06,555.82 406.33,547.39 409.61,539.10 412.88,529.37 416.15,526.11 419.43,527.81 422.70,527.55 425.98,553.27 429.25,572.40 432.53,578.75 435.80,590.81 439.07,594.27 442.35,577.36 445.62,561.32 448.90,550.57 452.17,543.16 455.44,535.27 458.72,528.85 461.99,525.07 465.27,526.46 468.54,521.23 471.81,533.10 475.09,552.53 478.36,569.73 481.64,583.83 484.91,594.96 488.19,592.74 491.46,574.79 494.73,559.57 498.01,547.98 501.28,535.95 504.56,528.85 507.83,518.50 511.10,510.89 514.38,508.65 517.65,515.33 520.93,519.22 524.20,524.12 527.47,527.96 530.75,546.29 534.02,554.73 537.30,565.81 540.57,582.43 543.85,593.08 547.12,590.50 550.39,584.18 553.67,581.45 556.94,577.85 560.22,580.69 563.49,581.63 566.76,575.51 570.04,575.77 573.31,575.13 576.59,580.20 579.86,588.60 583.14,565.52 586.41,553.73 589.68,557.11 592.96,565.89 596.23,569.45 599.51,581.45 602.78,572.89 606.05,571.08 609.33,580.33 612.60,571.23 615.88,557.17 619.15,543.76 622.42,549.14 625.70,561.52 628.97,564.34 632.25,566.79 635.52,561.80 638.80,546.27 642.07,547.37 645.34,544.72 648.62,536.02 651.89,522.35 655.17,537.83 658.44,550.80 661.71,568.30 664.99,568.96 668.26,559.34 671.54,542.06 674.81,532.60 678.08,524.59 681.36,515.43 684.63,507.51 687.91,505.19 691.18,502.44 694.46,498.72 697.73,495.98 701.00,494.82 704.28,495.06 707.55,502.37 710.83,500.70 714.10,497.77 717.37,498.34 720.65,497.73 723.92,502.98 727.20,512.58 730.47,513.49 733.75,506.02 737.02,501.91 740.29,509.82 743.57,508.41 746.84,505.63 750.12,508.33 753.39,502.66 756.66,501.50 759.94,504.29 763.21,507.36 766.49,508.04 769.76,517.54 773.03,538.51 776.31,553.31 779.58,544.43 782.86,537.39 786.13,528.41 789.41,516.87 792.68,513.36 795.95,508.58 799.23,506.03 802.50,506.22 805.78,503.31 809.05,500.44 812.32,508.72 815.60,543.77 818.87,554.83 822.15,560.89 825.42,573.91 828.69,568.59 831.97,556.06 835.24,538.05 838.52,540.05 841.79,539.56 845.07,530.51 848.34,520.96 851.61,526.72 854.89,532.08 858.16,536.88 861.44,550.47 864.71,545.18 867.98,528.72 871.26,536.75 874.53,553.04 877.81,547.66 881.08,561.13 884.36,569.50 887.63,561.16 890.90,550.30 894.18,554.99 897.45,547.99 900.73,553.92 904.00,570.45" />
<polyline fill="none" stroke="#d62728" stroke-width="2" points="82.19,547.08 85.47,538.47 88.74,532.00 92.02,527.37 95.29,526.23 98.56,524.04 101.84,520.49 105.11,516.12 108.39,511.90 111.66,509.72 114.93,507.80 118.21,507.65 121.48,510.27 124.76,512.27 128.03,515.53 131.31,525.27 134.58,531.51 137.85,535.28 141.13,537.82 144.40,538.00 147.68,533.88 150.95,530.01 154.22,528.36 157.50,528.56 160.77,538.24 164.05,547.90 167.32,557.22 170.59,563.34 173.87,569.55 177.14,573.30 180.42,574.16 183.69,572.26 186.97,572.31 190.24,571.75 193.51,571.19 196.79,571.01 200.06,575.45 203.34,580.70 206.61,582.84 209.88,580.96 213.16,579.48 216.43,574.55 219.71,566.28 222.98,557.92 226.25,551.66 229.53,548.18 232.80,547.08 236.08,544.86 239.35,540.42 242.63,536.79 245.90,533.58 249.17,532.57 252.45,530.91 255.72,528.73 259.00,524.99 262.27,520.64 265.54,520.89 268.82,522.13 272.09,522.14 275.37,518.67 278.64,515.25 281.92,515.37 285.19,516.85 288.46,518.61 291.74,516.53 295.01,515.16 298.29,515.39 301.56,513.73 304.83,512.71 308.11,515.80 311.38,518.33 314.66,516.53 317.93,513.09 321.20,511.37 324.48,509.20 327.75,510.24 331.03,512.17 334.30,513.09 337.58,517.23 340.85,522.13 344.12,534.03 347.40,545.65 350.67,552.37 353.95,557.96 357.22,554.62 360.49,551.65 363.77,549.60 367.04,550.47 370.32,556.26 373.59,564.42 376.86,573.60 380.14,580.76 383.41,583.90 386.69,586.48 389.96,586.32 393.24,583.69 396.51,578.05 399.78,572.72 403.06,567.09 406.33,560.52 409.61,553.38 412.88,545.38 416.15,538.96 419.43,535.24 422.70,532.68 425.98,539.54 429.25,550.49 432.53,559.91 435.80,570.21 439.07,578.23 442.35,577.94 445.62,572.40 448.90,565.12 452.17,557.80 455.44,550.29 458.72,543.14 461.99,537.12 465.27,533.57 468.54,529.45 471.81,530.67 475.09,537.96 478.36,548.55 481.64,560.31 484.91,571.86 488.19,578.82 491.46,577.48 494.73,571.51 498.01,563.66 501.28,554.43 504.56,545.90 507.83,536.77 511.10,528.14 514.38,521.64 517.65,519.54 520.93,519.43 524.20,521.00 527.47,523.32 530.75,530.98 534.02,538.90 537.30,547.87 540.57,559.39 543.85,570.62 547.12,577.25 550.39,579.56 553.67,580.19 556.94,579.41 560.22,579.83 563.49,580.43 566.76,578.79 570.04,577.78 573.31,576.90 576.59,578.00 579.86,581.53 583.14,576.20 586.41,568.71 589.68,564.84 592.96,565.19 596.23,566.61 599.51,571.56 602.78,572.00 606.05,571.69 609.33,574.57 612.60,573.46 615.88,568.03 619.15,559.94 622.42,556.34 625.70,558.07 628.97,560.16 632.25,562.37 635.52,562.18 638.80,556.88 642.07,553.71 645.34,550.71 648.62,545.81 651.89,537.99 655.17,537.94 658.44,542.22 661.71,550.92 664.99,556.93 668.26,557.73 671.54,552.51 674.81,545.87 678.08,538.78 681.36,530.99 684.63,523.17 687.91,517.18 691.18,512.27 694.46,507.75 697.73,503.83 701.00,500.83 704.28,498.90 707.55,500.06 710.83,500.27 714.10,499.44 717.37,499.07 720.65,498.62 723.92,500.08 727.20,504.24 730.47,507.33 733.75,506.89 737.02,505.23 740.29,506.76 743.57,507.31 746.84,506.75 750.12,507.28 753.39,505.74 756.66,504.33 759.94,504.31 763.21,505.33 766.49,506.23 769.76,510.00 773.03,519.50 776.31,530.77 779.58,535.33 782.86,536.01 786.13,533.48 789.41,527.94 792.68,523.08 795.95,518.25 799.23,514.18 802.50,511.52 805.78,508.79 809.05,506.00 812.32,506.91 815.60,519.20 818.87,531.07 822.15,541.01 825.42,551.98 828.69,557.52 831.97,557.03 835.24,550.71 838.52,547.15 841.79,544.62 845.07,539.92 848.34,533.60 851.61,531.31 854.89,531.57 858.16,533.34 861.44,539.05 864.71,541.09 867.98,536.97 871.26,536.89 874.53,542.28 877.81,544.07 881.08,549.76 884.36,556.34 887.63,557.95 890.90,555.40 894.18,555.26 897.45,552.84 900.73,553.20 904.00,558.95" />
<text x="824.00" y="502.00" font-size="13" font-family="Arial" fill="#2ca02c" text-anchor="start">K</text>
<text x="860.00" y="502.00" font-size="13" font-family="Arial" fill="#d62728" text-anchor="start">D</text>
</svg>