<svg xmlns="http://www.w3.org/2000/svg" width="960" height="680" viewBox="0 0 960 680"><rect width="100%" height="100%" fill="white" />
<text x="56.00" y="32.00" font-size="20" font-family="Arial" fill="#1f2933" text-anchor="start">AMD Technical Indicators</text>
<line x1="56" y1="220" x2="904" y2="220" stroke="#cbd2d9" />
<line x1="56" y1="58" x2="56" y2="220" stroke="#cbd2d9" />
<text x="16.00" y="50.00" font-size="12" font-family="Arial" fill="#52606d" text-anchor="start">RSI14</text>
<line x1="56" y1="220.00" x2="904" y2="220.00" stroke="#edf2f7" />
<line x1="52" y1="220.00" x2="56" y2="220.00" stroke="#9fb3c8" />
<text x="48.00" y="224.00" font-size="11" font-family="Arial" fill="#52606d" text-anchor="end">-5.00</text>
<line x1="56" y1="166.00" x2="904" y2="166.00" stroke="#edf2f7" />
<line x1="52" y1="166.00" x2="56" y2="166.00" stroke="#9fb3c8" />
<text x="48.00" y="170.00" font-size="11" font-family="Arial" fill="#52606d" text-anchor="end">31.7</text>
<line x1="56" y1="112.00" x2="904" y2="112.00" stroke="#edf2f7" />
<line x1="52" y1="112.00" x2="56" y2="112.00" stroke="#9fb3c8" />
<text x="48.00" y="116.00" font-size="11" font-family="Arial" fill="#52606d" text-anchor="end">68.3</text>
<line x1="56" y1="58.00" x2="904" y2="58.00" stroke="#edf2f7" />
<line x1="52" y1="58.00" x2="56" y2="58.00" stroke="#9fb3c8" />
<text x="48.00" y="62.00" font-size="11" font-family="Arial" fill="#52606d" text-anchor="end">105</text>
<line x1="56" y1="168.45" x2="904" y2="168.45" stroke="#f0b429" stroke-dasharray="5 5" />
<text x="912.00" y="172.45" font-size="10" font-family="Arial" fill="#8d2b0b" text-anchor="start">30.0</text>
<line x1="56" y1="109.55" x2="904" y2="109.55" stroke="#f0b429" stroke-dasharray="5 5" />
<text x="912.00" y="113.55" font-size="10" font-family="Arial" fill="#8d2b0b" text-anchor="start">70.0</text>
<polyline fill="none" stroke="#1f77b4" stroke-width="2" points="101.84,106.36 105.11,106.86 108.39,98.20 111.66,95.03 114.93,94.80 118.21,104.06 121.48,104.05 124.76,110.26 128.03,105.95 131.31,102.55 134.58,98.78 137.85,93.66 141.13,91.41 144.40,90.24 147.68,98.75 150.95,109.85 154.22,105.24 157.50,110.77 160.77,131.21 164.05,121.20 167.32,120.85 170.59,121.67 173.87,118.80 177.14,110.08 180.42,116.28 183.69,122.13 186.97,124.43 190.24,138.58 193.51,140.34 196.79,142.33 200.06,136.60 203.34,142.69 206.61,138.04 209.88,137.32 213.16,135.18 216.43,144.18 219.71,144.62 222.98,144.91 226.25,145.46 229.53,159.93 232.80,159.38 236.08,150.61 239.35,143.95 242.63,149.48 245.90,144.35 249.17,139.98 252.45,141.13 255.72,143.33 259.00,145.45 262.27,146.38 265.54,141.24 268.82,138.92 272.09,138.96 275.37,138.05 278.64,142.38 281.92,137.64 285.19,136.57 288.46,131.16 291.74,119.71 295.01,132.93 298.29,96.33 301.56,93.10 304.83,85.96 308.11,89.74 311.38,111.62 314.66,110.89 317.93,110.04 321.20,101.25 324.48,105.72 327.75,107.38 331.03,104.10 334.30,107.10 337.58,115.97 340.85,113.32 344.12,104.92 347.40,102.30 350.67,104.20 353.95,101.63 357.22,112.35 360.49,111.70 363.77,109.87 367.04,120.52 370.32,116.77 373.59,133.88 376.86,137.12 380.14,129.94 383.41,135.11 386.69,122.40 389.96,130.63 393.24,131.47 396.51,136.08 399.78,143.01 403.06,147.21 406.33,156.67 409.61,157.77 412.88,148.93 416.15,153.73 419.43,147.66 422.70,145.26 425.98,143.60 429.25,146.60 432.53,144.66 435.80,145.84 439.07,144.04 442.35,141.15 445.62,140.66 448.90,140.86 452.17,140.85 455.44,151.06 458.72,153.77 461.99,151.74 465.27,160.69 468.54,156.83 471.81,142.68 475.09,141.13 478.36,141.18 481.64,141.02 484.91,141.08 488.19,140.26 491.46,140.62 494.73,142.30 498.01,129.60 501.28,133.22 504.56,142.50 507.83,147.76 511.10,153.63 514.38,155.21 517.65,148.06 520.93,131.43 524.20,128.71 527.47,124.42 530.75,120.75 534.02,120.67 537.30,107.00 540.57,104.70 543.85,101.44 547.12,113.82 550.39,113.33 553.67,112.81 556.94,113.71 560.22,134.63 563.49,126.09 566.76,130.83 570.04,161.31 573.31,164.83 576.59,151.63 579.86,146.15 583.14,147.58 586.41,147.57 589.68,152.30 592.96,151.09 596.23,153.80 599.51,155.69 602.78,152.39 606.05,154.65 609.33,157.13 612.60,140.38 615.88,142.76 619.15,148.24 622.42,150.77 625.70,151.95 628.97,157.40 632.25,146.08 635.52,148.09 638.80,153.28 642.07,143.42 645.34,142.91 648.62,141.38 651.89,147.53 655.17,151.04 658.44,147.54 661.71,147.78 664.99,144.11 668.26,137.71 671.54,141.91 674.81,140.36 678.08,137.23 681.36,122.93 684.63,140.14 687.91,141.72 691.18,146.88 694.46,139.65 697.73,133.66 701.00,127.84 704.28,125.79 707.55,124.74 710.83,117.31 714.10,114.23 717.37,109.33 720.65,108.34 723.92,104.03 727.20,102.55 730.47,94.56 733.75,94.52 737.02,99.33 740.29,95.65 743.57,89.94 746.84,89.46 750.12,81.64 753.39,94.45 756.66,104.33 759.94,100.48 763.21,96.36 766.49,95.05 769.76,109.72 773.03,105.80 776.31,93.08 779.58,100.51 782.86,93.66 786.13,93.21 789.41,98.89 792.68,100.42 795.95,99.67 799.23,113.53 802.50,115.10 805.78,118.67 809.05,110.14 812.32,109.69 815.60,105.73 818.87,99.13 822.15,103.54 825.42,99.67 828.69,100.74 831.97,104.09 835.24,101.85 838.52,98.09 841.79,108.71 845.07,132.30 848.34,126.05 851.61,131.12 854.89,138.43 858.16,128.87 861.44,123.60 864.71,116.55 867.98,128.80 871.26,127.69 874.53,122.52 877.81,119.74 881.08,129.45 884.36,129.49 887.63,126.49 890.90,130.05 894.18,125.68 897.45,116.99 900.73,129.46 904.00,135.68" />
<text x="808.00" y="76.00" font-size="13" font-family="Arial" fill="#1f77b4" text-anchor="start">RSI14</text>
<line x1="56" y1="432" x2="904" y2="432" stroke="#cbd2d9" />
<line x1="56" y1="272" x2="56" y2="432" stroke="#cbd2d9" />
<text x="16.00" y="264.00" font-size="12" font-family="Arial" fill="#52606d" text-anchor="start">MACD</text>
<line x1="56" y1="432.00" x2="904" y2="432.00" stroke="#edf2f7" />
<line x1="52" y1="432.00" x2="56" y2="432.00" stroke="#9fb3c8" />
<text x="48.00" y="436.00" font-size="11" font-family="Arial" fill="#52606d" text-anchor="end">-14.8</text>
<line x1="56" y1="378.67" x2="904" y2="378.67" stroke="#edf2f7" />
<line x1="52" y1="378.67" x2="56" y2="378.67" stroke="#9fb3c8" />
<text x="48.00" y="382.67" font-size="11" font-family="Arial" fill="#52606d" text-anchor="end">9.00</text>
<line x1="56" y1="325.33" x2="904" y2="325.33" stroke="#edf2f7" />
<line x1="52" y1="325.33" x2="56" y2="325.33" stroke="#9fb3c8" />
<text x="48.00" y="329.33" font-size="11" font-family="Arial" fill="#52606d" text-anchor="end">32.8</text>
<line x1="56" y1="272.00" x2="904" y2="272.00" stroke="#edf2f7" />
<line x1="52" y1="272.00" x2="56" y2="272.00" stroke="#9fb3c8" />
<text x="48.00" y="276.00" font-size="11" font-family="Arial" fill="#52606d" text-anchor="end">56.7</text>
<line x1="56" y1="398.79" x2="904" y2="398.79" stroke="#9fb3c8" stroke-dasharray="4 4" />
<rect x="136.71" y="398.79" width="2.28" height="0.00" fill="#2f9e44" opacity="0.55" />
<rect x="139.99" y="397.19" width="2.28" height="1.59" fill="#2f9e44" opacity="0.55" />
<rect x="143.26" y="396.16" width="2.28" height="2.63" fill="#2f9e44" opacity="0.55" />
<rect x="146.53" y="396.29" width="2.28" height="2.50" fill="#2f9e44" opacity="0.55" />
<rect x="149.81" y="397.34" width="2.28" height="1.45" fill="#2f9e44" opacity="0.55" />
<rect x="153.08" y="397.55" width="2.28" height="1.24" fill="#2f9e44" opacity="0.55" />
<rect x="156.36" y="398.28" width="2.28" height="0.51" fill="#2f9e44" opacity="0.55" />
<rect x="159.63" y="398.79" width="2.28" height="1.78" fill="#d64545" opacity="0.55" />
<rect x="162.90" y="398.79" width="2.28" height="1.98" fill="#d64545" opacity="0.55" />
<rect x="166.18" y="398.79" width="2.28" height="2.14" fill="#d64545" opacity="0.55" />
<rect x="169.45" y="398.79" width="2.28" height="2.37" fill="#d64545" opacity="0.55" />
<rect x="172.73" y="398.79" width="2.28" height="2.19" fill="#d64545" opacity="0.55" />
<rect x="176.00" y="398.79" width="2.28" height="0.78" fill="#d64545" opacity="0.55" />
<rect x="179.28" y="398.79" width="2.28" height="0.52" fill="#d64545" opacity="0.55" />
<rect x="182.55" y="398.79" width="2.28" height="0.99" fill="#d64545" opacity="0.55" />
<rect x="185.82" y="398.79" width="2.28" height="1.59" fill="#d64545" opacity="0.55" />
<rect x="189.10" y="398.79" width="2.28" height="3.41" fill="#d64545" opacity="0.55" />
<rect x="192.37" y="398.79" width="2.28" height="4.73" fill="#d64545" opacity="0.55" />
<rect x="195.65" y="398.79" width="2.28" height="5.66" fill="#d64545" opacity="0.55" />
<rect x="198.92" y="398.79" width="2.28" height="5.50" fill="#d64545" opacity="0.55" />
<rect x="202.19" y="398.79" width="2.28" height="5.85" fill="#d64545" opacity="0.55" />
<rect x="205.47" y="398.79" width="2.28" height="5.41" fill="#d64545" opacity="0.55" />
<rect x="208.74" y="398.79" width="2.28" height="4.87" fill="#d64545" opacity="0.55" />
<rect x="212.02" y="398.79" width="2.28" height="4.14" fill="#d64545" opacity="0.55" />
<rect x="215.29" y="398.79" width="2.28" height="4.40" fill="#d64545" opacity="0.55" />
<rect x="218.57" y="398.79" width="2.28" height="4.43" fill="#d64545" opacity="0.55" />
<rect x="221.84" y="398.79" width="2.28" height="4.30" fill="#d64545" opacity="0.55" />
<rect x="225.11" y="398.79" width="2.28" height="4.08" fill="#d64545" opacity="0.55" />
<rect x="228.39" y="398.79" width="2.28" height="5.28" fill="#d64545" opacity="0.55" />
<rect x="231.66" y="398.79" width="2.28" height="5.74" fill="#d64545" opacity="0.55" />
<rect x="234.94" y="398.79" width="2.28" height="5.10" fill="#d64545" opacity="0.55" />
<rect x="238.21" y="398.79" width="2.28" height="3.90" fill="#d64545" opacity="0.55" />
<rect x="241.48" y="398.79" width="2.28" height="3.48" fill="#d64545" opacity="0.55" />
<rect x="244.76" y="398.79" width="2.28" height="2.60" fill="#d64545" opacity="0.55" />
<rect x="248.03" y="398.79" width="2.28" height="1.52" fill="#d64545" opacity="0.55" />
<rect x="251.31" y="398.79" width="2.28" height="0.83" fill="#d64545" opacity="0.55" />
<rect x="254.58" y="398.79" width="2.28" height="0.50" fill="#d64545" opacity="0.55" />
<rect x="257.85" y="398.79" width="2.28" height="0.42" fill="#d64545" opacity="0.55" />
<rect x="261.13" y="398.79" width="2.28" height="0.38" fill="#d64545" opacity="0.55" />
<rect x="264.40" y="398.75" width="2.28" height="0.04" fill="#2f9e44" opacity="0.55" />
<rect x="267.68" y="398.30" width="2.28" height="0.49" fill="#2f9e44" opacity="0.55" />
<rect x="270.95" y="398.01" width="2.28" height="0.78" fill="#2f9e44" opacity="0.55" />
<rect x="274.23" y="397.78" width="2.28" height="1.01" fill="#2f9e44" opacity="0.55" />
<rect x="277.50" y="397.91" width="2.28" height="0.87" fill="#2f9e44" opacity="0.55" />
<rect x="280.77" y="397.75" width="2.28" height="1.04" fill="#2f9e44" opacity="0.55" />
<rect x="284.05" y="397.61" width="2.28" height="1.18" fill="#2f9e44" opacity="0.55" />
<rect x="287.32" y="397.25" width="2.28" height="1.54" fill="#2f9e44" opacity="0.55" />
<rect x="290.60" y="396.26" width="2.28" height="2.53" fill="#2f9e44" opacity="0.55" />
<rect x="293.87" y="396.49" width="2.28" height="2.30" fill="#2f9e44" opacity="0.55" />
<rect x="297.14" y="391.16" width="2.28" height="7.62" fill="#2f9e44" opacity="0.55" />
<rect x="300.42" y="387.12" width="2.28" height="11.66" fill="#2f9e44" opacity="0.55" />
<rect x="303.69" y="381.81" width="2.28" height="16.98" fill="#2f9e44" opacity="0.55" />
<rect x="306.97" y="379.82" width="2.28" height="18.97" fill="#2f9e44" opacity="0.55" />
<rect x="310.24" y="382.25" width="2.28" height="16.54" fill="#2f9e44" opacity="0.55" />
<rect x="313.51" y="384.58" width="2.28" height="14.21" fill="#2f9e44" opacity="0.55" />
<rect x="316.79" y="386.74" width="2.28" height="12.05" fill="#2f9e44" opacity="0.55" />
<rect x="320.06" y="386.01" width="2.28" height="12.78" fill="#2f9e44" opacity="0.55" />
<rect x="323.34" y="387.04" width="2.28" height="11.75" fill="#2f9e44" opacity="0.55" />
<rect x="326.61" y="388.78" width="2.28" height="10.01" fill="#2f9e44" opacity="0.55" />
<rect x="329.89" y="389.63" width="2.28" height="9.16" fill="#2f9e44" opacity="0.55" />
<rect x="333.16" y="391.31" width="2.28" height="7.48" fill="#2f9e44" opacity="0.55" />
<rect x="336.43" y="394.21" width="2.28" height="4.58" fill="#2f9e44" opacity="0.55" />
<rect x="339.71" y="395.92" width="2.28" height="2.87" fill="#2f9e44" opacity="0.55" />
<rect x="342.98" y="394.94" width="2.28" height="3.85" fill="#2f9e44" opacity="0.55" />
<rect x="346.26" y="393.91" width="2.28" height="4.88" fill="#2f9e44" opacity="0.55" />
<rect x="349.53" y="394.13" width="2.28" height="4.65" fill="#2f9e44" opacity="0.55" />
<rect x="352.80" y="393.99" width="2.28" height="4.80" fill="#2f9e44" opacity="0.55" />
<rect x="356.08" y="395.90" width="2.28" height="2.89" fill="#2f9e44" opacity="0.55" />
<rect x="359.35" y="397.46" width="2.28" height="1.33" fill="#2f9e44" opacity="0.55" />
<rect x="362.63" y="398.40" width="2.28" height="0.38" fill="#2f9e44" opacity="0.55" />
<rect x="365.90" y="398.79" width="2.28" height="2.00" fill="#d64545" opacity="0.55" />
<rect x="369.18" y="398.79" width="2.28" height="2.89" fill="#d64545" opacity="0.55" />
<rect x="372.45" y="398.79" width="2.28" height="6.34" fill="#d64545" opacity="0.55" />
<rect x="375.72" y="398.79" width="2.28" height="9.14" fill="#d64545" opacity="0.55" />
<rect x="379.00" y="398.79" width="2.28" height="9.28" fill="#d64545" opacity="0.55" />
<rect x="382.27" y="398.79" width="2.28" height="10.14" fill="#d64545" opacity="0.55" />
<rect x="385.55" y="398.79" width="2.28" height="7.40" fill="#d64545" opacity="0.55" />
<rect x="388.82" y="398.79" width="2.28" height="7.15" fill="#d64545" opacity="0.55" />
<rect x="392.09" y="398.79" width="2.28" height="7.06" fill="#d64545" opacity="0.55" />
<rect x="395.37" y="398.79" width="2.28" height="7.79" fill="#d64545" opacity="0.55" />
<rect x="398.64" y="398.79" width="2.28" height="9.55" fill="#d64545" opacity="0.55" />
<rect x="401.92" y="398.79" width="2.28" height="11.33" fill="#d64545" opacity="0.55" />
<rect x="405.19" y="398.79" width="2.28" height="14.55" fill="#d64545" opacity="0.55" />
<rect x="408.46" y="398.79" width="2.28" height="16.29" fill="#d64545" opacity="0.55" />
<rect x="411.74" y="398.79" width="2.28" height="15.04" fill="#d64545" opacity="0.55" />
<rect x="415.01" y="398.79" width="2.28" height="14.83" fill="#d64545" opacity="0.55" />
<rect x="418.29" y="398.79" width="2.28" height="12.82" fill="#d64545" opacity="0.55" />
<rect x="421.56" y="398.79" width="2.28" height="10.45" fill="#d64545" opacity="0.55" />
<rect x="424.84" y="398.79" width="2.28" height="8.10" fill="#d64545" opacity="0.55" />
<rect x="428.11" y="398.79" width="2.28" height="6.83" fill="#d64545" opacity="0.55" />
<rect x="431.38" y="398.79" width="2.28" height="5.31" fill="#d64545" opacity="0.55" />
<rect x="434.66" y="398.79" width="2.28" height="4.27" fill="#d64545" opacity="0.55" />
<rect x="437.93" y="398.79" width="2.28" height="3.06" fill="#d64545" opacity="0.55" />
<rect x="441.21" y="398.79" width="2.28" height="1.63" fill="#d64545" opacity="0.55" />
<rect x="444.48" y="398.79" width="2.28" height="0.51" fill="#d64545" opacity="0.55" />
<rect x="447.75" y="398.54" width="2.28" height="0.25" fill="#2f9e44" opacity="0.55" />
<rect x="451.03" y="398.01" width="2.28" height="0.78" fill="#2f9e44" opacity="0.55" />
<rect x="454.30" y="398.79" width="2.28" height="0.39" fill="#d64545" opacity="0.55" />
<rect x="457.58" y="398.79" width="2.28" height="1.50" fill="#d64545" opacity="0.55" />
<rect x="460.85" y="398.79" width="2.28" height="1.82" fill="#d64545" opacity="0.55" />
<rect x="464.12" y="398.79" width="2.28" height="3.43" fill="#d64545" opacity="0.55" />
<rect x="467.40" y="398.79" width="2.28" height="3.77" fill="#d64545" opacity="0.55" />
<rect x="470.67" y="398.79" width="2.28" height="1.92" fill="#d64545" opacity="0.55" />
<rect x="473.95" y="398.79" width="2.28" height="0.36" fill="#d64545" opacity="0.55" />
<rect x="477.22" y="398.07" width="2.28" height="0.72" fill="#2f9e44" opacity="0.55" />
<rect x="480.50" y="397.32" width="2.28" height="1.47" fill="#2f9e44" opacity="0.55" />
<rect x="483.77" y="396.84" width="2.28" height="1.95" fill="#2f9e44" opacity="0.55" />
<rect x="487.04" y="396.48" width="2.28" height="2.31" fill="#2f9e44" opacity="0.55" />
<rect x="490.32" y="396.33" width="2.28" height="2.46" fill="#2f9e44" opacity="0.55" />
<rect x="493.59" y="396.47" width="2.28" height="2.32" fill="#2f9e44" opacity="0.55" />
<rect x="496.87" y="395.28" width="2.28" height="3.51" fill="#2f9e44" opacity="0.55" />
<rect x="500.14" y="395.00" width="2.28" height="3.79" fill="#2f9e44" opacity="0.55" />
<rect x="503.41" y="395.93" width="2.28" height="2.86" fill="#2f9e44" opacity="0.55" />
<rect x="506.69" y="397.24" width="2.28" height="1.54" fill="#2f9e44" opacity="0.55" />
<rect x="509.96" y="398.79" width="2.28" height="0.08" fill="#d64545" opacity="0.55" />
<rect x="513.24" y="398.79" width="2.28" height="1.27" fill="#d64545" opacity="0.55" />
<rect x="516.51" y="398.79" width="2.28" height="1.26" fill="#d64545" opacity="0.55" />
<rect x="519.79" y="398.04" width="2.28" height="0.75" fill="#2f9e44" opacity="0.55" />
<rect x="523.06" y="396.40" width="2.28" height="2.39" fill="#2f9e44" opacity="0.55" />
<rect x="526.33" y="394.84" width="2.28" height="3.95" fill="#2f9e44" opacity="0.55" />
<rect x="529.61" y="393.48" width="2.28" height="5.31" fill="#2f9e44" opacity="0.55" />
<rect x="532.88" y="392.88" width="2.28" height="5.91" fill="#2f9e44" opacity="0.55" />
<rect x="536.16" y="390.26" width="2.28" height="8.53" fill="#2f9e44" opacity="0.55" />
<rect x="539.43" y="388.51" width="2.28" height="10.28" fill="#2f9e44" opacity="0.55" />
<rect x="542.70" y="387.15" width="2.28" height="11.64" fill="#2f9e44" opacity="0.55" />
<rect x="545.98" y="388.16" width="2.28" height="10.62" fill="#2f9e44" opacity="0.55" />
<rect x="549.25" y="389.35" width="2.28" height="9.44" fill="#2f9e44" opacity="0.55" />
<rect x="552.53" y="390.59" width="2.28" height="8.20" fill="#2f9e44" opacity="0.55" />
<rect x="555.80" y="392.01" width="2.28" height="6.78" fill="#2f9e44" opacity="0.55" />
<rect x="559.07" y="395.61" width="2.28" height="3.18" fill="#2f9e44" opacity="0.55" />
<rect x="562.35" y="396.82" width="2.28" height="1.97" fill="#2f9e44" opacity="0.55" />
<rect x="565.62" y="398.43" width="2.28" height="0.36" fill="#2f9e44" opacity="0.55" />
<rect x="568.90" y="398.79" width="2.28" height="6.82" fill="#d64545" opacity="0.55" />
<rect x="572.17" y="398.79" width="2.28" height="12.20" fill="#d64545" opacity="0.55" />
<rect x="575.45" y="398.79" width="2.28" height="12.77" fill="#d64545" opacity="0.55" />
<rect x="578.72" y="398.79" width="2.28" height="11.46" fill="#d64545" opacity="0.55" />
<rect x="581.99" y="398.79" width="2.28" height="10.45" fill="#d64545" opacity="0.55" />
<rect x="585.27" y="398.79" width="2.28" height="9.30" fill="#d64545" opacity="0.55" />
<rect x="588.54" y="398.79" width="2.28" height="9.20" fill="#d64545" opacity="0.55" />
<rect x="591.82" y="398.79" width="2.28" height="8.45" fill="#d64545" opacity="0.55" />
<rect x="595.09" y="398.79" width="2.28" height="8.12" fill="#d64545" opacity="0.55" />
<rect x="598.36" y="398.79" width="2.28" height="7.86" fill="#d64545" opacity="0.55" />
<rect x="601.64" y="398.79" width="2.28" height="6.76" fill="#d64545" opacity="0.55" />
<rect x="604.91" y="398.79" width="2.28" height="6.10" fill="#d64545" opacity="0.55" />
<rect x="608.19" y="398.79" width="2.28" height="5.78" fill="#d64545" opacity="0.55" />
<rect x="611.46" y="398.79" width="2.28" height="2.71" fill="#d64545" opacity="0.55" />
<rect x="614.73" y="398.79" width="2.28" height="0.96" fill="#d64545" opacity="0.55" />
<rect x="618.01" y="398.79" width="2.28" height="0.73" fill="#d64545" opacity="0.55" />
<rect x="621.28" y="398.79" width="2.28" height="0.92" fill="#d64545" opacity="0.55" />
<rect x="624.56" y="398.79" width="2.28" height="1.11" fill="#d64545" opacity="0.55" />
<rect x="627.83" y="398.79" width="2.28" height="2.14" fill="#d64545" opacity="0.55" />
<rect x="631.11" y="398.79" width="2.28" height="0.96" fill="#d64545" opacity="0.55" />
<rect x="634.38" y="398.79" width="2.28" height="0.42" fill="#d64545" opacity="0.55" />
<rect x="637.65" y="398.79" width="2.28" height="0.94" fill="#d64545" opacity="0.55" />
<rect x="640.93" y="398.41" width="2.28" height="0.38" fill="#2f9e44" opacity="0.55" />
<rect x="644.20" y="397.39" width="2.28" height="1.40" fill="#2f9e44" opacity="0.55" />
<rect x="647.48" y="396.48" width="2.28" height="2.31" fill="#2f9e44" opacity="0.55" />
<rect x="650.75" y="396.91" width="2.28" height="1.87" fill="#2f9e44" opacity="0.55" />
<rect x="654.02" y="397.79" width="2.28" height="1.00" fill="#2f9e44" opacity="0.55" />
<rect x="657.30" y="397.83" width="2.28" height="0.96" fill="#2f9e44" opacity="0.55" />
<rect x="660.57" y="397.83" width="2.28" height="0.96" fill="#2f9e44" opacity="0.55" />
<rect x="663.85" y="397.32" width="2.28" height="1.47" fill="#2f9e44" opacity="0.55" />
<rect x="667.12" y="396.14" width="2.28" height="2.65" fill="#2f9e44" opacity="0.55" />
<rect x="670.40" y="396.00" width="2.28" height="2.79" fill="#2f9e44" opacity="0.55" />
<rect x="673.67" y="395.78" width="2.28" height="3.01" fill="#2f9e44" opacity="0.55" />
<rect x="676.94" y="395.32" width="2.28" height="3.47" fill="#2f9e44" opacity="0.55" />
<rect x="680.22" y="393.01" width="2.28" height="5.77" fill="#2f9e44" opacity="0.55" />
<rect x="683.49" y="394.16" width="2.28" height="4.63" fill="#2f9e44" opacity="0.55" />
<rect x="686.77" y="395.32" width="2.28" height="3.47" fill="#2f9e44" opacity="0.55" />
<rect x="690.04" y="397.03" width="2.28" height="1.76" fill="#2f9e44" opacity="0.55" />
<rect x="693.31" y="397.10" width="2.28" height="1.69" fill="#2f9e44" opacity="0.55" />
<rect x="696.59" y="396.22" width="2.28" height="2.57" fill="#2f9e44" opacity="0.55" />
<rect x="699.86" y="394.73" width="2.28" height="4.06" fill="#2f9e44" opacity="0.55" />
<rect x="703.14" y="393.60" width="2.28" height="5.18" fill="#2f9e44" opacity="0.55" />
<rect x="706.41" y="392.96" width="2.28" height="5.82" fill="#2f9e44" opacity="0.55" />
<rect x="709.68" y="391.40" width="2.28" height="7.39" fill="#2f9e44" opacity="0.55" />
<rect x="712.96" y="390.14" width="2.28" height="8.65" fill="#2f9e44" opacity="0.55" />
<rect x="716.23" y="388.64" width="2.28" height="10.15" fill="#2f9e44" opacity="0.55" />
<rect x="719.51" y="388.03" width="2.28" height="10.75" fill="#2f9e44" opacity="0.55" />
<rect x="722.78" y="387.13" width="2.28" height="11.66" fill="#2f9e44" opacity="0.55" />
<rect x="726.06" y="386.85" width="2.28" height="11.94" fill="#2f9e44" opacity="0.55" />
<rect x="729.33" y="384.56" width="2.28" height="14.22" fill="#2f9e44" opacity="0.55" />
<rect x="732.60" y="384.03" width="2.28" height="14.76" fill="#2f9e44" opacity="0.55" />
<rect x="735.88" y="385.16" width="2.28" height="13.62" fill="#2f9e44" opacity="0.55" />
<rect x="739.15" y="385.46" width="2.28" height="13.32" fill="#2f9e44" opacity="0.55" />
<rect x="742.43" y="383.91" width="2.28" height="14.88" fill="#2f9e44" opacity="0.55" />
<rect x="745.70" y="383.75" width="2.28" height="15.04" fill="#2f9e44" opacity="0.55" />
<rect x="748.97" y="378.70" width="2.28" height="20.08" fill="#2f9e44" opacity="0.55" />
<rect x="752.25" y="378.86" width="2.28" height="19.93" fill="#2f9e44" opacity="0.55" />
<rect x="755.52" y="382.06" width="2.28" height="16.73" fill="#2f9e44" opacity="0.55" />
<rect x="758.80" y="383.42" width="2.28" height="15.37" fill="#2f9e44" opacity="0.55" />
<rect x="762.07" y="383.09" width="2.28" height="15.69" fill="#2f9e44" opacity="0.55" />
<rect x="765.34" y="383.39" width="2.28" height="15.40" fill="#2f9e44" opacity="0.55" />
<rect x="768.62" y="387.66" width="2.28" height="11.13" fill="#2f9e44" opacity="0.55" />
<rect x="771.89" y="389.56" width="2.28" height="9.23" fill="#2f9e44" opacity="0.55" />
<rect x="775.17" y="382.40" width="2.28" height="16.38" fill="#2f9e44" opacity="0.55" />
<rect x="778.44" y="381.28" width="2.28" height="17.51" fill="#2f9e44" opacity="0.55" />
<rect x="781.72" y="375.52" width="2.28" height="23.27" fill="#2f9e44" opacity="0.55" />
<rect x="784.99" y="373.36" width="2.28" height="25.43" fill="#2f9e44" opacity="0.55" />
<rect x="788.26" y="375.64" width="2.28" height="23.15" fill="#2f9e44" opacity="0.55" />
<rect x="791.54" y="379.54" width="2.28" height="19.25" fill="#2f9e44" opacity="0.55" />
<rect x="794.81" y="383.29" width="2.28" height="15.49" fill="#2f9e44" opacity="0.55" />
<rect x="798.09" y="391.05" width="2.28" height="7.74" fill="#2f9e44" opacity="0.55" />
<rect x="801.36" y="397.72" width="2.28" height="1.07" fill="#2f9e44" opacity="0.55" />
<rect x="804.63" y="398.79" width="2.28" height="5.11" fill="#d64545" opacity="0.55" />
<rect x="807.91" y="398.79" width="2.28" height="4.87" fill="#d64545" opacity="0.55" />
<rect x="811.18" y="398.79" width="2.28" height="5.12" fill="#d64545" opacity="0.55" />
<rect x="814.46" y="398.79" width="2.28" height="3.37" fill="#d64545" opacity="0.55" />
<rect x="817.73" y="396.60" width="2.28" height="2.19" fill="#2f9e44" opacity="0.55" />
<rect x="821.01" y="395.35" width="2.28" height="3.44" fill="#2f9e44" opacity="0.55" />
<rect x="824.28" y="392.45" width="2.28" height="6.34" fill="#2f9e44" opacity="0.55" />
<rect x="827.55" y="392.19" width="2.28" height="6.60" fill="#2f9e44" opacity="0.55" />
<rect x="830.83" y="394.18" width="2.28" height="4.60" fill="#2f9e44" opacity="0.55" />
<rect x="834.10" y="395.01" width="2.28" height="3.78" fill="#2f9e44" opacity="0.55" />
<rect x="837.38" y="393.71" width="2.28" height="5.08" fill="#2f9e44" opacity="0.55" />
<rect x="840.65" y="396.91" width="2.28" height="1.88" fill="#2f9e44" opacity="0.55" />
<rect x="843.92" y="398.79" width="2.28" height="9.32" fill="#d64545" opacity="0.55" />
<rect x="847.20" y="398.79" width="2.28" height="13.41" fill="#d64545" opacity="0.55" />
<rect x="850.47" y="398.79" width="2.28" height="18.32" fill="#d64545" opacity="0.55" />
<rect x="853.75" y="398.79" width="2.28" height="24.64" fill="#d64545" opacity="0.55" />
<rect x="857.02" y="398.79" width="2.28" height="23.00" fill="#d64545" opacity="0.55" />
<rect x="860.29" y="398.79" width="2.28" height="18.26" fill="#d64545" opacity="0.55" />
<rect x="863.57" y="398.79" width="2.28" height="9.98" fill="#d64545" opacity="0.55" />
<rect x="866.84" y="398.79" width="2.28" height="10.70" fill="#d64545" opacity="0.55" />
<rect x="870.12" y="398.79" width="2.28" height="10.55" fill="#d64545" opacity="0.55" />
<rect x="873.39" y="398.79" width="2.28" height="7.03" fill="#d64545" opacity="0.55" />
<rect x="876.67" y="398.79" width="2.28" height="3.08" fill="#d64545" opacity="0.55" />
<rect x="879.94" y="398.79" width="2.28" height="5.63" fill="#d64545" opacity="0.55" />
<rect x="883.21" y="398.79" width="2.28" height="7.59" fill="#d64545" opacity="0.55" />
<rect x="886.49" y="398.79" width="2.28" height="7.21" fill="#d64545" opacity="0.55" />
<rect x="889.76" y="398.79" width="2.28" height="8.78" fill="#d64545" opacity="0.55" />
<rect x="893.04" y="398.79" width="2.28" height="7.33" fill="#d64545" opacity="0.55" />
<rect x="896.31" y="398.79" width="2.28" height="0.69" fill="#d64545" opacity="0.55" />
<rect x="899.58" y="398.79" width="2.28" height="2.78" fill="#d64545" opacity="0.55" />
<rect x="902.86" y="398.79" width="2.28" height="7.80" fill="#d64545" opacity="0.55" />
<polyline fill="none" stroke="#1f77b4" stroke-width="2" points="137.85,379.95 141.13,377.96 144.40,376.26 147.68,375.77 150.95,376.46 154.22,376.35 157.50,376.96 160.77,379.69 164.05,380.39 167.32,381.08 170.59,381.91 173.87,382.27 177.14,381.06 180.42,380.93 183.69,381.64 186.97,382.64 190.24,385.32 193.51,387.81 196.79,390.16 200.06,391.37 203.34,393.19 206.61,394.10 209.88,394.77 213.16,395.08 216.43,396.44 219.71,397.58 222.98,398.52 226.25,399.32 229.53,401.84 232.80,403.73 236.08,404.37 239.35,404.15 242.63,404.60 245.90,404.37 249.17,403.66 252.45,403.18 255.72,402.98 259.00,403.00 262.27,403.07 265.54,402.64 268.82,402.06 272.09,401.57 275.37,401.09 278.64,401.01 281.92,400.58 285.19,400.15 288.46,399.40 291.74,397.78 295.01,397.43 298.29,390.20 301.56,383.25 304.83,373.68 308.11,366.95 311.38,365.25 314.66,364.03 317.93,363.17 321.20,359.25 324.48,357.34 327.75,356.58 331.03,355.14 334.30,354.95 337.58,356.70 340.85,357.70 344.12,355.75 347.40,353.51 350.67,352.57 353.95,351.23 357.22,352.41 360.49,353.64 363.77,354.49 367.04,357.37 370.32,358.98 373.59,364.02 376.86,369.11 380.14,371.57 383.41,374.96 386.69,374.07 389.96,375.61 393.24,377.28 396.51,379.96 399.78,384.10 403.06,388.72 406.33,395.57 409.61,401.38 412.88,403.89 416.15,407.39 419.43,408.59 422.70,408.83 425.98,408.51 429.25,408.95 432.53,408.76 435.80,408.78 439.07,408.33 442.35,407.31 445.62,406.32 448.90,405.50 452.17,404.78 455.44,406.04 458.72,407.52 461.99,408.30 465.27,410.77 468.54,412.04 471.81,410.68 475.09,409.21 478.36,407.95 481.64,406.83 484.91,405.87 488.19,404.93 491.46,404.17 494.73,403.72 498.01,401.65 501.28,400.43 504.56,400.65 507.83,401.57 511.10,403.22 514.38,404.73 517.65,405.04 520.93,402.84 524.20,400.60 527.47,398.05 530.75,395.37 534.02,393.29 537.30,388.53 540.57,384.22 543.85,379.94 547.12,378.30 550.39,377.12 553.67,376.32 556.94,376.05 560.22,378.85 563.49,379.57 566.76,381.09 570.04,389.97 573.31,398.40 576.59,402.16 579.86,403.72 583.14,405.32 586.41,406.50 589.68,408.70 592.96,410.06 596.23,411.76 599.51,413.47 602.78,414.06 606.05,414.92 609.33,416.05 612.60,413.66 615.88,412.15 619.15,412.09 622.42,412.52 625.70,412.98 628.97,414.55 632.25,413.61 635.52,413.18 638.80,413.92 642.07,412.51 645.34,411.15 648.62,409.65 651.89,409.62 655.17,410.25 658.44,410.04 661.71,409.80 664.99,408.93 668.26,407.09 671.54,406.25 674.81,405.28 678.08,403.95 681.36,400.20 684.63,400.19 687.91,400.48 691.18,401.76 694.46,401.40 697.73,399.88 701.00,397.38 704.28,394.95 707.55,392.86 710.83,389.45 714.10,386.02 717.37,381.98 720.65,378.69 723.92,374.87 727.20,371.61 730.47,365.77 733.75,361.54 737.02,359.27 740.29,356.24 743.57,350.96 746.84,347.04 750.12,336.98 753.39,332.15 756.66,331.16 759.94,328.68 763.21,324.44 766.49,320.88 769.76,322.37 773.03,321.96 776.31,310.71 779.58,305.21 782.86,293.63 786.13,285.11 789.41,281.60 792.68,280.69 795.95,280.57 799.23,286.39 802.50,292.79 805.78,300.25 809.05,301.23 812.32,302.76 815.60,301.85 818.87,295.75 822.15,293.63 825.42,289.15 828.69,287.24 831.97,288.08 835.24,287.97 838.52,285.40 841.79,288.12 845.07,301.66 848.34,309.10 851.61,318.59 854.89,331.07 858.16,335.18 861.44,335.00 864.71,329.22 867.98,332.62 871.26,335.11 874.53,333.34 877.81,330.16 881.08,334.12 884.36,337.98 887.63,339.40 890.90,343.16 894.18,343.54 897.45,337.08 900.73,339.86 904.00,346.83" />
<polyline fill="none" stroke="#ff7f0e" stroke-width="2" points="137.85,379.95 141.13,379.55 144.40,378.89 147.68,378.27 150.95,377.91 154.22,377.60 157.50,377.47 160.77,377.91 164.05,378.41 167.32,378.94 170.59,379.53 173.87,380.08 177.14,380.28 180.42,380.41 183.69,380.65 186.97,381.05 190.24,381.90 193.51,383.09 196.79,384.50 200.06,385.87 203.34,387.34 206.61,388.69 209.88,389.90 213.16,390.94 216.43,392.04 219.71,393.15 222.98,394.22 226.25,395.24 229.53,396.56 232.80,397.99 236.08,399.27 239.35,400.25 242.63,401.12 245.90,401.77 249.17,402.15 252.45,402.35 255.72,402.48 259.00,402.58 262.27,402.68 265.54,402.67 268.82,402.55 272.09,402.35 275.37,402.10 278.64,401.88 281.92,401.62 285.19,401.33 288.46,400.94 291.74,400.31 295.01,399.73 298.29,397.83 301.56,394.91 304.83,390.67 308.11,385.92 311.38,381.79 314.66,378.24 317.93,375.22 321.20,372.03 324.48,369.09 327.75,366.59 331.03,364.30 334.30,362.43 337.58,361.28 340.85,360.57 344.12,359.60 347.40,358.39 350.67,357.22 353.95,356.02 357.22,355.30 360.49,354.97 363.77,354.87 367.04,355.37 370.32,356.09 373.59,357.68 376.86,359.96 380.14,362.28 383.41,364.82 386.69,366.67 389.96,368.46 393.24,370.22 396.51,372.17 399.78,374.56 403.06,377.39 406.33,381.03 409.61,385.10 412.88,388.86 416.15,392.56 419.43,395.77 422.70,398.38 425.98,400.41 429.25,402.11 432.53,403.44 435.80,404.51 439.07,405.28 442.35,405.68 445.62,405.81 448.90,405.75 452.17,405.55 455.44,405.65 458.72,406.03 461.99,406.48 465.27,407.34 468.54,408.28 471.81,408.76 475.09,408.85 478.36,408.67 481.64,408.30 484.91,407.82 488.19,407.24 491.46,406.62 494.73,406.04 498.01,405.17 501.28,404.22 504.56,403.50 507.83,403.12 511.10,403.14 514.38,403.46 517.65,403.77 520.93,403.58 524.20,402.99 527.47,402.00 530.75,400.67 534.02,399.20 537.30,397.06 540.57,394.49 543.85,391.58 547.12,388.93 550.39,386.57 553.67,384.52 556.94,382.82 560.22,382.03 563.49,381.54 566.76,381.45 570.04,383.15 573.31,386.20 576.59,389.39 579.86,392.26 583.14,394.87 586.41,397.20 589.68,399.50 592.96,401.61 596.23,403.64 599.51,405.60 602.78,407.29 606.05,408.82 609.33,410.27 612.60,410.94 615.88,411.18 619.15,411.37 622.42,411.60 625.70,411.87 628.97,412.41 632.25,412.65 635.52,412.75 638.80,412.99 642.07,412.89 645.34,412.54 648.62,411.96 651.89,411.50 655.17,411.25 658.44,411.01 661.71,410.77 664.99,410.40 668.26,409.74 671.54,409.04 674.81,408.29 678.08,407.42 681.36,405.98 684.63,404.82 687.91,403.95 691.18,403.51 694.46,403.09 697.73,402.45 701.00,401.43 704.28,400.14 707.55,398.68 710.83,396.83 714.10,394.67 717.37,392.13 720.65,389.45 723.92,386.53 727.20,383.55 730.47,379.99 733.75,376.30 737.02,372.89 740.29,369.56 743.57,365.84 746.84,362.08 750.12,357.06 753.39,352.08 756.66,347.90 759.94,344.05 763.21,340.13 766.49,336.28 769.76,333.50 773.03,331.19 776.31,327.09 779.58,322.72 782.86,316.90 786.13,310.54 789.41,304.75 792.68,299.94 795.95,296.07 799.23,294.13 802.50,293.86 805.78,295.14 809.05,296.36 812.32,297.64 815.60,298.48 818.87,297.93 822.15,297.07 825.42,295.49 828.69,293.84 831.97,292.69 835.24,291.74 838.52,290.48 841.79,290.01 845.07,292.34 848.34,295.69 851.61,300.27 854.89,306.43 858.16,312.18 861.44,316.74 864.71,319.24 867.98,321.92 871.26,324.55 874.53,326.31 877.81,327.08 881.08,328.49 884.36,330.39 887.63,332.19 890.90,334.38 894.18,336.22 897.45,336.39 900.73,337.08 904.00,339.03" />
<text x="754.00" y="290.00" font-size="13" font-family="Arial" fill="#1f77b4" text-anchor="start">MACD</text>
<text x="818.00" y="290.00" font-size="13" font-family="Arial" fill="#ff7f0e" text-anchor="start">Signal</text>
<line x1="56" y1="624" x2="904" y2="624" stroke="#cbd2d9" />
<line x1="56" y1="484" x2="56" y2="624" stroke="#cbd2d9" />
<text x="16.00" y="476.00" font-size="12" font-family="Arial" fill="#52606d" text-anchor="start">KD</text>
<line x1="56" y1="624.00" x2="904" y2="624.00" stroke="#edf2f7" />
<line x1="52" y1="624.00" x2="56" y2="624.00" stroke="#9fb3c8" />
<text x="48.00" y="628.00" font-size="11" font-family="Arial" fill="#52606d" text-anchor="end">-5.00</text>
<line x1="56" y1="577.33" x2="904" y2="577.33" stroke="#edf2f7" />
<line x1="52" y1="577.33" x2="56" y2="577.33" stroke="#9fb3c8" />
<text x="48.00" y="581.33" font-size="11" font-family="Arial" fill="#52606d" text-anchor="end">31.7</text>
<line x1="56" y1="530.67" x2="904" y2="530.67" stroke="#edf2f7" />
<line x1="52" y1="530.67" x2="56" y2="530.67" stroke="#9fb3c8" />
<text x="48.00" y="534.67" font-size="11" font-family="Arial" fill="#52606d" text-anchor="end">68.3</text>
<line x1="56" y1="484.00" x2="904" y2="484.00" stroke="#edf2f7" />
<line x1="52" y1="484.00" x2="56" y2="484.00" stroke="#9fb3c8" />
<text x="48.00" y="488.00" font-size="11" font-family="Arial" fill="#52606d" text-anchor="end">105</text>
<line x1="56.00" y1="624" x2="56.00" y2="628" stroke="#9fb3c8" />
<text x="56.00" y="642.00" font-size="11" font-family="Arial" fill="#52606d" text-anchor="middle">06/20</text>
<line x1="226.25" y1="624" x2="226.25" y2="628" stroke="#9fb3c8" />
<text x="226.25" y="642.00" font-size="11" font-family="Arial" fill="#52606d" text-anchor="middle">09/04</text>
<line x1="396.51" y1="624" x2="396.51" y2="628" stroke="#9fb3c8" />
<text x="396.51" y="642.00" font-size="11" font-family="Arial" fill="#52606d" text-anchor="middle">11/17</text>
<line x1="563.49" y1="624" x2="563.49" y2="628" stroke="#9fb3c8" />
<text x="563.49" y="642.00" font-size="11" font-family="Arial" fill="#52606d" text-anchor="middle">02/02</text>
<line x1="733.75" y1="624" x2="733.75" y2="628" stroke="#9fb3c8" />
<text x="733.75" y="642.00" font-size="11" font-family="Arial" fill="#52606d" text-anchor="middle">04/17</text>
<line x1="904.00" y1="624" x2="904.00" y2="628" stroke="#9fb3c8" />
<text x="904.00" y="642.00" font-size="11" font-family="Arial" fill="#52606d" text-anchor="middle">07/02</text>
<line x1="56" y1="592.18" x2="904" y2="592.18" stroke="#f0b429" stroke-dasharray="5 5" />
<text x="912.00" y="596.18" font-size="10" font-family="Arial" fill="#8d2b0b" text-anchor="start">20.0</text>
<line x1="56" y1="515.82" x2="904" y2="515.82" stroke="#f0b429" stroke-dasharray="5 5" />
<text x="912.00" y="519.82" font-size="10" font-family="Arial" fill="#8d2b0b" text-anchor="start">80.0</text>
<polyline fill="none" stroke="#2ca02c" stroke-width="2" points="82.19,551.50 85.47,551.06 88.74,567.90 92.02,571.62 95.29,572.34 98.56,555.70 101.84,536.91 105.11,525.43 108.39,518.92 111.66,509.84 114.93,505.66 118.21,508.65 121.48,511.19 124.76,519.34 128.03,516.58 131.31,511.32 134.58,506.03 137.85,502.54 141.13,504.75 144.40,503.56 147.68,507.08 150.95,515.32 154.22,516.16 157.50,521.96 160.77,544.71 164.05,543.94 167.32,542.81 170.59,542.88 173.87,538.34 177.14,525.63 180.42,522.26 183.69,525.07 186.97,528.95 190.24,557.59 193.51,567.22 196.79,575.87 200.06,575.59 203.34,581.97 206.61,580.80 209.88,575.87 213.16,568.47 216.43,572.40 219.71,570.65 222.98,570.05 226.25,570.65 229.53,584.35 232.80,591.18 236.08,587.14 239.35,577.19 242.63,576.53 245.90,564.69 249.17,549.72 252.45,541.21 255.72,539.14 259.00,541.20 262.27,544.89 265.54,540.41 268.82,531.53 272.09,529.55 275.37,527.14 278.64,530.57 281.92,527.57 285.19,524.38 288.46,517.52 291.74,511.93 295.01,521.40 298.29,524.62 301.56,522.16 304.83,511.73 308.11,508.40 311.38,515.62 314.66,519.82 317.93,522.13 321.20,512.37 324.48,512.41 327.75,515.85 331.03,510.42 334.30,510.66 337.58,521.98 340.85,523.40 344.12,512.92 347.40,506.21 350.67,507.95 353.95,504.85 357.22,512.33 360.49,516.02 363.77,514.94 367.04,525.49 370.32,531.93 373.59,557.85 376.86,568.88 380.14,565.80 383.41,569.15 386.69,547.93 389.96,545.71 393.24,545.49 396.51,552.21 399.78,567.85 403.06,580.73 406.33,591.96 409.61,595.08 412.88,590.18 416.15,591.64 419.43,585.99 422.70,578.44 425.98,566.78 429.25,562.04 432.53,555.82 435.80,547.39 439.07,539.10 442.35,529.37 445.62,526.11 448.90,527.81 452.17,527.55 455.44,553.27 458.72,572.40 461.99,578.75 465.27,590.81 468.54,594.27 471.81,577.36 475.09,561.32 478.36,550.57 481.64,543.16 484.91,535.27 488.19,528.85 491.46,525.07 494.73,526.46 498.01,521.23 501.28,533.10 504.56,552.53 507.83,569.73 511.10,583.83 514.38,594.96 517.65,592.74 520.93,574.79 524.20,559.57 527.47,547.98 530.75,535.95 534.02,528.85 537.30,518.50 540.57,510.89 543.85,508.65 547.12,515.33 550.39,519.22 553.67,524.12 556.94,527.96 560.22,546.29 563.49,554.73 566.76,565.81 570.04,582.43 573.31,593.08 576.59,590.50 579.86,584.18 583.14,581.45 586.41,577.85 589.68,580.69 592.96,581.63 596.23,575.51 599.51,575.77 602.78,575.13 606.05,580.20 609.33,588.60 612.60,565.52 615.88,553.73 619.15,557.11 622.42,565.89 625.70,569.45 628.97,581.45 632.25,572.89 635.52,571.08 638.80,580.33 642.07,571.23 645.34,557.17 648.62,543.76 651.89,549.14 655.17,561.52 658.44,564.34 661.71,566.79 664.99,561.80 668.26,546.27 671.54,547.37 674.81,544.72 678.08,536.02 681.36,522.35 684.63,537.83 687.91,550.80 691.18,568.30 694.46,568.96 697.73,559.34 701.00,542.06 704.28,532.60 707.55,524.59 710.83,515.43 714.10,507.51 717.37,505.19 720.65,502.44 723.92,498.72 727.20,495.98 730.47,494.82 733.75,495.06 737.02,502.37 740.29,500.70 743.57,497.77 746.84,498.34 750.12,497.73 753.39,502.98 756.66,512.58 759.94,513.49 763.21,506.02 766.49,501.91 769.76,509.82 773.03,508.41 776.31,505.63 779.58,508.33 782.86,502.66 786.13,501.50 789.41,504.29 792.68,507.36 795.95,508.04 799.23,517.54 802.50,538.51 805.78,553.31 809.05,544.43 812.32,537.39 815.60,528.41 818.87,516.87 822.15,513.36 825.42,508.58 828.69,506.03 831.97,506.22 835.24,503.31 838.52,500.44 841.79,508.72 845.07,543.77 848.34,554.83 851.61,560.89 854.89,573.91 858.16,568.59 861.44,556.06 864.71,538.05 867.98,540.05 871.26,539.56 874.53,530.51 877.81,520.96 881.08,526.72 884.36,532.08 887.63,536.88 890.90,550.47 894.18,545.18 897.45,528.72 900.73,536.75 904.00,553.04" />
<polyline fill="none" stroke="#d62728" stroke-width="2" points="82.19,553.17 85.47,552.47 88.74,557.61 92.02,562.28 95.29,565.63 98.56,562.32 101.84,553.85 105.11,544.38 108.39,535.89 111.66,527.21 114.93,520.03 118.21,516.24 121.48,514.55 124.76,516.15 128.03,516.29 131.31,514.63 134.58,511.77 137.85,508.69 141.13,507.38 144.40,506.10 147.68,506.43 150.95,509.39 154.22,511.65 157.50,515.09 160.77,524.96 164.05,531.29 167.32,535.13 170.59,537.71 173.87,537.92 177.14,533.83 180.42,529.97 183.69,528.34 186.97,528.54 190.24,538.22 193.51,547.89 196.79,557.22 200.06,563.34 203.34,569.55 206.61,573.30 209.88,574.16 213.16,572.26 216.43,572.31 219.71,571.75 222.98,571.19 226.25,571.01 229.53,575.45 232.80,580.70 236.08,582.84 239.35,580.96 242.63,579.48 245.90,574.55 249.17,566.28 252.45,557.92 255.72,551.66 259.00,548.18 262.27,547.08 265.54,544.86 268.82,540.42 272.09,536.79 275.37,533.58 278.64,532.57 281.92,530.91 285.19,528.73 288.46,524.99 291.74,520.64 295.01,520.89 298.29,522.13 301.56,522.14 304.83,518.67 308.11,515.25 311.38,515.37 314.66,516.85 317.93,518.61 321.20,516.53 324.48,515.16 327.75,515.39 331.03,513.73 334.30,512.71 337.58,515.80 340.85,518.33 344.12,516.53 347.40,513.09 350.67,511.37 353.95,509.20 357.22,510.24 360.49,512.17 363.77,513.09 367.04,517.23 370.32,522.13 373.59,534.03 376.86,545.65 380.14,552.37 383.41,557.96 386.69,554.62 389.96,551.65 393.24,549.60 396.51,550.47 399.78,556.26 403.06,564.42 406.33,573.60 409.61,580.76 412.88,583.90 416.15,586.48 419.43,586.32 422.70,583.69 425.98,578.05 429.25,572.72 432.53,567.09 435.80,560.52 439.07,553.38 442.35,545.38 445.62,538.96 448.90,535.24 452.17,532.68 455.44,539.54 458.72,550.49 461.99,559.91 465.27,570.21 468.54,578.23 471.81,577.94 475.09,572.40 478.36,565.12 481.64,557.80 484.91,550.29 488.19,543.14 491.46,537.12 494.73,533.57 498.01,529.45 501.28,530.67 504.56,537.96 507.83,548.55 511.10,560.31 514.38,571.86 517.65,578.82 520.93,577.48 524.20,571.51 527.47,563.66 530.75,554.43 534.02,545.90 537.30,536.77 540.57,528.14 543.85,521.64 547.12,519.54 550.39,519.43 553.67,521.00 556.94,523.32 560.22,530.98 563.49,538.90 566.76,547.87 570.04,559.39 573.31,570.62 576.59,577.25 579.86,579.56 583.14,580.19 586.41,579.41 589.68,579.83 592.96,580.43 596.23,578.79 599.51,577.78 602.78,576.90 606.05,578.00 609.33,581.53 612.60,576.20 615.88,568.71 619.15,564.84 622.42,565.19 625.70,566.61 628.97,571.56 632.25,572.00 635.52,571.69 638.80,574.57 642.07,573.46 645.34,568.03 648.62,559.94 651.89,556.34 655.17,558.07 658.44,560.16 661.71,562.37 664.99,562.18 668.26,556.88 671.54,553.71 674.81,550.71 678.08,545.81 681.36,537.99 684.63,537.94 687.91,542.22 691.18,550.92 694.46,556.93 697.73,557.73 701.00,552.51 704.28,545.87 707.55,538.78 710.83,530.99 714.10,523.17 717.37,517.18 720.65,512.27 723.92,507.75 727.20,503.83 730.47,500.83 733.75,498.90 737.02,500.06 740.29,500.27 743.57,499.44 746.84,499.07 750.12,498.62 753.39,500.08 756.66,504.24 759.94,507.33 763.21,506.89 766.49,505.23 769.76,506.76 773.03,507.31 776.31,506.75 779.58,507.28 782.86,505.74 786.13,504.33 789.41,504.31 792.68,505.33 795.95,506.23 799.23,510.00 802.50,519.50 805.78,530.77 809.05,535.33 812.32,536.01 815.60,533.48 818.87,527.94 822.15,523.08 825.42,518.25 828.69,514.18 831.97,511.52 835.24,508.79 838.52,506.00 841.79,506.91 845.07,519.20 848.34,531.07 851.61,541.01 854.89,551.98 858.16,557.52 861.44,557.03 864.71,550.71 867.98,547.15 871.26,544.62 874.53,539.92 877.81,533.60 881.08,531.31 884.36,531.57 887.63,533.34 890.90,539.05 894.18,541.09 897.45,536.97 900.73,536.89 904.00,542.28" />
<text x="824.00" y="502.00" font-size="13" font-family="Arial" fill="#2ca02c" text-anchor="start">K</text>
<text x="860.00" y="502.00" font-size="13" font-family="Arial" fill="#d62728" text-anchor="start">D</text>
</svg>