<svg xmlns="http://www.w3.org/2000/svg" width="960" height="680" viewBox="0 0 960 680"><rect width="100%" height="100%" fill="white" />
<text x="56.00" y="32.00" font-size="20" font-family="Arial" fill="#1f2933" text-anchor="start">AMZN Technical Indicators</text>
<line x1="56" y1="220" x2="904" y2="220" stroke="#cbd2d9" />
<line x1="56" y1="58" x2="56" y2="220" stroke="#cbd2d9" />
<text x="16.00" y="50.00" font-size="12" font-family="Arial" fill="#52606d" text-anchor="start">RSI14</text>
<line x1="56" y1="220.00" x2="904" y2="220.00" stroke="#edf2f7" />
<line x1="52" y1="220.00" x2="56" y2="220.00" stroke="#9fb3c8" />
<text x="48.00" y="224.00" font-size="11" font-family="Arial" fill="#52606d" text-anchor="end">-5.00</text>
<line x1="56" y1="166.00" x2="904" y2="166.00" stroke="#edf2f7" />
<line x1="52" y1="166.00" x2="56" y2="166.00" stroke="#9fb3c8" />
<text x="48.00" y="170.00" font-size="11" font-family="Arial" fill="#52606d" text-anchor="end">31.7</text>
<line x1="56" y1="112.00" x2="904" y2="112.00" stroke="#edf2f7" />
<line x1="52" y1="112.00" x2="56" y2="112.00" stroke="#9fb3c8" />
<text x="48.00" y="116.00" font-size="11" font-family="Arial" fill="#52606d" text-anchor="end">68.3</text>
<line x1="56" y1="58.00" x2="904" y2="58.00" stroke="#edf2f7" />
<line x1="52" y1="58.00" x2="56" y2="58.00" stroke="#9fb3c8" />
<text x="48.00" y="62.00" font-size="11" font-family="Arial" fill="#52606d" text-anchor="end">105</text>
<line x1="56" y1="168.45" x2="904" y2="168.45" stroke="#f0b429" stroke-dasharray="5 5" />
<text x="912.00" y="172.45" font-size="10" font-family="Arial" fill="#8d2b0b" text-anchor="start">30.0</text>
<line x1="56" y1="109.55" x2="904" y2="109.55" stroke="#f0b429" stroke-dasharray="5 5" />
<text x="912.00" y="113.55" font-size="10" font-family="Arial" fill="#8d2b0b" text-anchor="start">70.0</text>
<polyline fill="none" stroke="#1f77b4" stroke-width="2" points="101.84,118.27 105.11,115.69 108.39,121.97 111.66,124.80 114.93,116.58 118.21,157.29 121.48,161.06 124.76,156.53 128.03,140.85 131.31,139.53 134.58,140.26 137.85,142.64 141.13,142.30 144.40,136.32 147.68,125.81 150.95,125.74 154.22,125.00 157.50,132.89 160.77,141.25 164.05,144.65 167.32,132.00 170.59,133.77 173.87,132.41 177.14,131.66 180.42,127.13 183.69,133.25 186.97,141.01 190.24,139.62 193.51,122.72 196.79,129.74 200.06,124.53 203.34,121.19 206.61,136.43 209.88,137.08 213.16,140.23 216.43,134.56 219.71,130.33 222.98,135.07 226.25,135.83 229.53,135.36 232.80,143.14 236.08,154.49 239.35,155.22 242.63,158.24 245.90,154.25 249.17,148.60 252.45,153.04 255.72,150.45 259.00,146.14 262.27,151.57 265.54,148.08 268.82,145.86 272.09,137.69 275.37,132.32 278.64,153.60 281.92,146.10 285.19,151.65 288.46,152.85 291.74,154.50 295.01,156.66 298.29,148.64 301.56,137.62 304.83,144.73 308.11,138.95 311.38,133.62 314.66,129.22 317.93,125.76 321.20,124.18 324.48,138.92 327.75,113.91 331.03,106.94 334.30,114.22 337.58,113.55 340.85,124.21 344.12,122.93 347.40,119.27 350.67,118.62 353.95,126.36 357.22,135.58 360.49,139.27 363.77,141.57 367.04,153.02 370.32,152.81 373.59,158.26 376.86,152.78 380.14,144.82 383.41,140.36 386.69,141.02 389.96,135.59 393.24,134.72 396.51,133.97 399.78,137.28 403.06,142.39 406.33,141.67 409.61,145.87 412.88,143.92 416.15,136.92 419.43,139.64 422.70,146.61 425.98,152.16 429.25,152.12 432.53,154.13 435.80,142.38 439.07,141.22 442.35,139.03 445.62,131.92 448.90,131.47 452.17,131.19 455.44,132.36 458.72,131.32 461.99,136.06 465.27,146.54 468.54,131.69 471.81,119.02 475.09,118.15 478.36,112.03 481.64,110.73 484.91,113.23 488.19,123.26 491.46,136.06 494.73,133.36 498.01,131.69 501.28,146.77 504.56,146.15 507.83,140.17 511.10,131.74 514.38,133.22 517.65,123.53 520.93,127.04 524.20,129.74 527.47,134.75 530.75,128.55 534.02,137.17 537.30,146.61 540.57,159.68 543.85,170.47 547.12,171.63 550.39,172.93 553.67,175.03 556.94,178.09 560.22,178.62 563.49,173.34 566.76,165.58 570.04,165.43 573.31,154.71 576.59,160.28 579.86,154.03 583.14,150.23 586.41,153.79 589.68,149.83 592.96,152.09 596.23,151.38 599.51,136.57 602.78,133.27 606.05,142.70 609.33,142.22 612.60,140.71 615.88,143.64 619.15,148.83 622.42,151.77 625.70,143.30 628.97,136.89 632.25,145.99 635.52,147.74 638.80,152.89 642.07,143.49 645.34,148.03 648.62,139.90 651.89,146.44 655.17,157.03 658.44,154.03 661.71,141.79 664.99,138.38 668.26,139.60 671.54,134.95 674.81,133.46 678.08,123.26 681.36,111.04 684.63,107.40 687.91,106.28 691.18,100.22 694.46,101.23 697.73,100.45 701.00,99.87 704.28,104.97 707.55,103.64 710.83,99.50 714.10,100.17 717.37,94.28 720.65,100.84 723.92,104.05 727.20,101.43 730.47,99.90 733.75,97.58 737.02,95.03 740.29,94.07 743.57,93.13 746.84,103.31 750.12,101.98 753.39,111.31 756.66,118.65 759.94,113.54 763.21,120.00 766.49,126.40 769.76,125.35 773.03,136.15 776.31,127.63 779.58,123.08 782.86,127.25 786.13,129.26 789.41,120.37 792.68,117.79 795.95,124.72 799.23,140.55 802.50,146.98 805.78,154.63 809.05,148.58 812.32,156.95 815.60,157.75 818.87,158.82 822.15,164.83 825.42,158.48 828.69,161.45 831.97,148.99 835.24,149.01 838.52,158.31 841.79,147.79 845.07,158.83 848.34,156.92 851.61,156.68 854.89,163.11 858.16,154.48 861.44,144.59 864.71,146.50 867.98,142.17 871.26,140.91 874.53,138.93 877.81,136.47 881.08,139.86 884.36,135.02 887.63,137.63 890.90,134.71 894.18,134.44 897.45,124.07 900.73,132.83 904.00,137.05" />
<text x="808.00" y="76.00" font-size="13" font-family="Arial" fill="#1f77b4" text-anchor="start">RSI14</text>
<line x1="56" y1="432" x2="904" y2="432" stroke="#cbd2d9" />
<line x1="56" y1="272" x2="56" y2="432" stroke="#cbd2d9" />
<text x="16.00" y="264.00" font-size="12" font-family="Arial" fill="#52606d" text-anchor="start">MACD</text>
<line x1="56" y1="432.00" x2="904" y2="432.00" stroke="#edf2f7" />
<line x1="52" y1="432.00" x2="56" y2="432.00" stroke="#9fb3c8" />
<text x="48.00" y="436.00" font-size="11" font-family="Arial" fill="#52606d" text-anchor="end">-10.8</text>
<line x1="56" y1="378.67" x2="904" y2="378.67" stroke="#edf2f7" />
<line x1="52" y1="378.67" x2="56" y2="378.67" stroke="#9fb3c8" />
<text x="48.00" y="382.67" font-size="11" font-family="Arial" fill="#52606d" text-anchor="end">-2.32</text>
<line x1="56" y1="325.33" x2="904" y2="325.33" stroke="#edf2f7" />
<line x1="52" y1="325.33" x2="56" y2="325.33" stroke="#9fb3c8" />
<text x="48.00" y="329.33" font-size="11" font-family="Arial" fill="#52606d" text-anchor="end">6.11</text>
<line x1="56" y1="272.00" x2="904" y2="272.00" stroke="#edf2f7" />
<line x1="52" y1="272.00" x2="56" y2="272.00" stroke="#9fb3c8" />
<text x="48.00" y="276.00" font-size="11" font-family="Arial" fill="#52606d" text-anchor="end">14.5</text>
<line x1="56" y1="363.99" x2="904" y2="363.99" stroke="#9fb3c8" stroke-dasharray="4 4" />
<rect x="136.71" y="363.99" width="2.28" height="0.00" fill="#2f9e44" opacity="0.55" />
<rect x="139.99" y="363.99" width="2.28" height="0.11" fill="#d64545" opacity="0.55" />
<rect x="143.26" y="362.85" width="2.28" height="1.15" fill="#2f9e44" opacity="0.55" />
<rect x="146.53" y="359.47" width="2.28" height="4.53" fill="#2f9e44" opacity="0.55" />
<rect x="149.81" y="357.51" width="2.28" height="6.48" fill="#2f9e44" opacity="0.55" />
<rect x="153.08" y="356.40" width="2.28" height="7.59" fill="#2f9e44" opacity="0.55" />
<rect x="156.36" y="357.49" width="2.28" height="6.50" fill="#2f9e44" opacity="0.55" />
<rect x="159.63" y="360.20" width="2.28" height="3.79" fill="#2f9e44" opacity="0.55" />
<rect x="162.90" y="362.85" width="2.28" height="1.14" fill="#2f9e44" opacity="0.55" />
<rect x="166.18" y="361.80" width="2.28" height="2.20" fill="#2f9e44" opacity="0.55" />
<rect x="169.45" y="361.63" width="2.28" height="2.37" fill="#2f9e44" opacity="0.55" />
<rect x="172.73" y="361.35" width="2.28" height="2.65" fill="#2f9e44" opacity="0.55" />
<rect x="176.00" y="361.17" width="2.28" height="2.83" fill="#2f9e44" opacity="0.55" />
<rect x="179.28" y="360.23" width="2.28" height="3.77" fill="#2f9e44" opacity="0.55" />
<rect x="182.55" y="360.92" width="2.28" height="3.07" fill="#2f9e44" opacity="0.55" />
<rect x="185.82" y="363.04" width="2.28" height="0.95" fill="#2f9e44" opacity="0.55" />
<rect x="189.10" y="363.99" width="2.28" height="0.21" fill="#d64545" opacity="0.55" />
<rect x="192.37" y="361.05" width="2.28" height="2.94" fill="#2f9e44" opacity="0.55" />
<rect x="195.65" y="360.64" width="2.28" height="3.36" fill="#2f9e44" opacity="0.55" />
<rect x="198.92" y="359.20" width="2.28" height="4.80" fill="#2f9e44" opacity="0.55" />
<rect x="202.19" y="357.65" width="2.28" height="6.35" fill="#2f9e44" opacity="0.55" />
<rect x="205.47" y="360.28" width="2.28" height="3.71" fill="#2f9e44" opacity="0.55" />
<rect x="208.74" y="362.38" width="2.28" height="1.62" fill="#2f9e44" opacity="0.55" />
<rect x="212.02" y="363.99" width="2.28" height="0.61" fill="#d64545" opacity="0.55" />
<rect x="215.29" y="363.99" width="2.28" height="0.74" fill="#d64545" opacity="0.55" />
<rect x="218.57" y="363.81" width="2.28" height="0.18" fill="#2f9e44" opacity="0.55" />
<rect x="221.84" y="363.99" width="2.28" height="0.33" fill="#d64545" opacity="0.55" />
<rect x="225.11" y="363.99" width="2.28" height="0.88" fill="#d64545" opacity="0.55" />
<rect x="228.39" y="363.99" width="2.28" height="1.17" fill="#d64545" opacity="0.55" />
<rect x="231.66" y="363.99" width="2.28" height="2.94" fill="#d64545" opacity="0.55" />
<rect x="234.94" y="363.99" width="2.28" height="6.76" fill="#d64545" opacity="0.55" />
<rect x="238.21" y="363.99" width="2.28" height="9.08" fill="#d64545" opacity="0.55" />
<rect x="241.48" y="363.99" width="2.28" height="10.93" fill="#d64545" opacity="0.55" />
<rect x="244.76" y="363.99" width="2.28" height="10.88" fill="#d64545" opacity="0.55" />
<rect x="248.03" y="363.99" width="2.28" height="9.31" fill="#d64545" opacity="0.55" />
<rect x="251.31" y="363.99" width="2.28" height="8.86" fill="#d64545" opacity="0.55" />
<rect x="254.58" y="363.99" width="2.28" height="7.65" fill="#d64545" opacity="0.55" />
<rect x="257.85" y="363.99" width="2.28" height="5.70" fill="#d64545" opacity="0.55" />
<rect x="261.13" y="363.99" width="2.28" height="5.28" fill="#d64545" opacity="0.55" />
<rect x="264.40" y="363.99" width="2.28" height="4.09" fill="#d64545" opacity="0.55" />
<rect x="267.68" y="363.99" width="2.28" height="2.68" fill="#d64545" opacity="0.55" />
<rect x="270.95" y="363.99" width="2.28" height="0.16" fill="#d64545" opacity="0.55" />
<rect x="274.23" y="361.45" width="2.28" height="2.55" fill="#2f9e44" opacity="0.55" />
<rect x="277.50" y="363.99" width="2.28" height="0.38" fill="#d64545" opacity="0.55" />
<rect x="280.77" y="363.99" width="2.28" height="0.61" fill="#d64545" opacity="0.55" />
<rect x="284.05" y="363.99" width="2.28" height="2.10" fill="#d64545" opacity="0.55" />
<rect x="287.32" y="363.99" width="2.28" height="3.16" fill="#d64545" opacity="0.55" />
<rect x="290.60" y="363.99" width="2.28" height="3.98" fill="#d64545" opacity="0.55" />
<rect x="293.87" y="363.99" width="2.28" height="4.75" fill="#d64545" opacity="0.55" />
<rect x="297.14" y="363.99" width="2.28" height="3.46" fill="#d64545" opacity="0.55" />
<rect x="300.42" y="363.99" width="2.28" height="0.09" fill="#d64545" opacity="0.55" />
<rect x="303.69" y="363.48" width="2.28" height="0.52" fill="#2f9e44" opacity="0.55" />
<rect x="306.97" y="361.72" width="2.28" height="2.28" fill="#2f9e44" opacity="0.55" />
<rect x="310.24" y="359.34" width="2.28" height="4.65" fill="#2f9e44" opacity="0.55" />
<rect x="313.51" y="356.86" width="2.28" height="7.14" fill="#2f9e44" opacity="0.55" />
<rect x="316.79" y="354.65" width="2.28" height="9.34" fill="#2f9e44" opacity="0.55" />
<rect x="320.06" y="353.25" width="2.28" height="10.75" fill="#2f9e44" opacity="0.55" />
<rect x="323.34" y="355.87" width="2.28" height="8.12" fill="#2f9e44" opacity="0.55" />
<rect x="326.61" y="349.28" width="2.28" height="14.71" fill="#2f9e44" opacity="0.55" />
<rect x="329.89" y="341.97" width="2.28" height="22.03" fill="#2f9e44" opacity="0.55" />
<rect x="333.16" y="340.47" width="2.28" height="23.53" fill="#2f9e44" opacity="0.55" />
<rect x="336.43" y="340.50" width="2.28" height="23.49" fill="#2f9e44" opacity="0.55" />
<rect x="339.71" y="344.79" width="2.28" height="19.20" fill="#2f9e44" opacity="0.55" />
<rect x="342.98" y="348.13" width="2.28" height="15.87" fill="#2f9e44" opacity="0.55" />
<rect x="346.26" y="349.67" width="2.28" height="14.33" fill="#2f9e44" opacity="0.55" />
<rect x="349.53" y="351.36" width="2.28" height="12.63" fill="#2f9e44" opacity="0.55" />
<rect x="352.80" y="355.36" width="2.28" height="8.64" fill="#2f9e44" opacity="0.55" />
<rect x="356.08" y="361.29" width="2.28" height="2.70" fill="#2f9e44" opacity="0.55" />
<rect x="359.35" y="363.99" width="2.28" height="2.65" fill="#d64545" opacity="0.55" />
<rect x="362.63" y="363.99" width="2.28" height="6.90" fill="#d64545" opacity="0.55" />
<rect x="365.90" y="363.99" width="2.28" height="13.67" fill="#d64545" opacity="0.55" />
<rect x="369.18" y="363.99" width="2.28" height="17.40" fill="#d64545" opacity="0.55" />
<rect x="372.45" y="363.99" width="2.28" height="21.29" fill="#d64545" opacity="0.55" />
<rect x="375.72" y="363.99" width="2.28" height="21.35" fill="#d64545" opacity="0.55" />
<rect x="379.00" y="363.99" width="2.28" height="18.14" fill="#d64545" opacity="0.55" />
<rect x="382.27" y="363.99" width="2.28" height="13.90" fill="#d64545" opacity="0.55" />
<rect x="385.55" y="363.99" width="2.28" height="10.77" fill="#d64545" opacity="0.55" />
<rect x="388.82" y="363.99" width="2.28" height="6.63" fill="#d64545" opacity="0.55" />
<rect x="392.09" y="363.99" width="2.28" height="3.44" fill="#d64545" opacity="0.55" />
<rect x="395.37" y="363.99" width="2.28" height="1.04" fill="#d64545" opacity="0.55" />
<rect x="398.64" y="363.99" width="2.28" height="0.32" fill="#d64545" opacity="0.55" />
<rect x="401.92" y="363.99" width="2.28" height="1.17" fill="#d64545" opacity="0.55" />
<rect x="405.19" y="363.99" width="2.28" height="1.47" fill="#d64545" opacity="0.55" />
<rect x="408.46" y="363.99" width="2.28" height="2.64" fill="#d64545" opacity="0.55" />
<rect x="411.74" y="363.99" width="2.28" height="2.81" fill="#d64545" opacity="0.55" />
<rect x="415.01" y="363.99" width="2.28" height="1.20" fill="#d64545" opacity="0.55" />
<rect x="418.29" y="363.99" width="2.28" height="0.71" fill="#d64545" opacity="0.55" />
<rect x="421.56" y="363.99" width="2.28" height="2.00" fill="#d64545" opacity="0.55" />
<rect x="424.84" y="363.99" width="2.28" height="4.15" fill="#d64545" opacity="0.55" />
<rect x="428.11" y="363.99" width="2.28" height="5.24" fill="#d64545" opacity="0.55" />
<rect x="431.38" y="363.99" width="2.28" height="6.12" fill="#d64545" opacity="0.55" />
<rect x="434.66" y="363.99" width="2.28" height="4.08" fill="#d64545" opacity="0.55" />
<rect x="437.93" y="363.99" width="2.28" height="2.28" fill="#d64545" opacity="0.55" />
<rect x="441.21" y="363.99" width="2.28" height="0.52" fill="#d64545" opacity="0.55" />
<rect x="444.48" y="361.81" width="2.28" height="2.19" fill="#2f9e44" opacity="0.55" />
<rect x="447.75" y="360.06" width="2.28" height="3.93" fill="#2f9e44" opacity="0.55" />
<rect x="451.03" y="359.05" width="2.28" height="4.94" fill="#2f9e44" opacity="0.55" />
<rect x="454.30" y="358.81" width="2.28" height="5.18" fill="#2f9e44" opacity="0.55" />
<rect x="457.58" y="358.71" width="2.28" height="5.28" fill="#2f9e44" opacity="0.55" />
<rect x="460.85" y="359.59" width="2.28" height="4.41" fill="#2f9e44" opacity="0.55" />
<rect x="464.12" y="362.09" width="2.28" height="1.90" fill="#2f9e44" opacity="0.55" />
<rect x="467.40" y="361.10" width="2.28" height="2.89" fill="#2f9e44" opacity="0.55" />
<rect x="470.67" y="357.45" width="2.28" height="6.54" fill="#2f9e44" opacity="0.55" />
<rect x="473.95" y="355.26" width="2.28" height="8.73" fill="#2f9e44" opacity="0.55" />
<rect x="477.22" y="352.47" width="2.28" height="11.53" fill="#2f9e44" opacity="0.55" />
<rect x="480.50" y="350.94" width="2.28" height="13.06" fill="#2f9e44" opacity="0.55" />
<rect x="483.77" y="351.11" width="2.28" height="12.88" fill="#2f9e44" opacity="0.55" />
<rect x="487.04" y="353.58" width="2.28" height="10.42" fill="#2f9e44" opacity="0.55" />
<rect x="490.32" y="358.21" width="2.28" height="5.79" fill="#2f9e44" opacity="0.55" />
<rect x="493.59" y="360.94" width="2.28" height="3.05" fill="#2f9e44" opacity="0.55" />
<rect x="496.87" y="362.60" width="2.28" height="1.39" fill="#2f9e44" opacity="0.55" />
<rect x="500.14" y="363.99" width="2.28" height="3.16" fill="#d64545" opacity="0.55" />
<rect x="503.41" y="363.99" width="2.28" height="5.87" fill="#d64545" opacity="0.55" />
<rect x="506.69" y="363.99" width="2.28" height="6.18" fill="#d64545" opacity="0.55" />
<rect x="509.96" y="363.99" width="2.28" height="4.24" fill="#d64545" opacity="0.55" />
<rect x="513.24" y="363.99" width="2.28" height="3.21" fill="#d64545" opacity="0.55" />
<rect x="516.51" y="363.98" width="2.28" height="0.02" fill="#2f9e44" opacity="0.55" />
<rect x="519.79" y="362.74" width="2.28" height="1.26" fill="#2f9e44" opacity="0.55" />
<rect x="523.06" y="362.66" width="2.28" height="1.34" fill="#2f9e44" opacity="0.55" />
<rect x="526.33" y="363.77" width="2.28" height="0.22" fill="#2f9e44" opacity="0.55" />
<rect x="529.61" y="363.12" width="2.28" height="0.87" fill="#2f9e44" opacity="0.55" />
<rect x="532.88" y="363.99" width="2.28" height="0.64" fill="#d64545" opacity="0.55" />
<rect x="536.16" y="363.99" width="2.28" height="3.94" fill="#d64545" opacity="0.55" />
<rect x="539.43" y="363.99" width="2.28" height="10.07" fill="#d64545" opacity="0.55" />
<rect x="542.70" y="363.99" width="2.28" height="18.46" fill="#d64545" opacity="0.55" />
<rect x="545.98" y="363.99" width="2.28" height="23.44" fill="#d64545" opacity="0.55" />
<rect x="549.25" y="363.99" width="2.28" height="26.03" fill="#d64545" opacity="0.55" />
<rect x="552.53" y="363.99" width="2.28" height="27.38" fill="#d64545" opacity="0.55" />
<rect x="555.80" y="363.99" width="2.28" height="28.47" fill="#d64545" opacity="0.55" />
<rect x="559.07" y="363.99" width="2.28" height="27.79" fill="#d64545" opacity="0.55" />
<rect x="562.35" y="363.99" width="2.28" height="24.70" fill="#d64545" opacity="0.55" />
<rect x="565.62" y="363.99" width="2.28" height="19.67" fill="#d64545" opacity="0.55" />
<rect x="568.90" y="363.99" width="2.28" height="15.11" fill="#d64545" opacity="0.55" />
<rect x="572.17" y="363.99" width="2.28" height="8.94" fill="#d64545" opacity="0.55" />
<rect x="575.45" y="363.99" width="2.28" height="6.14" fill="#d64545" opacity="0.55" />
<rect x="578.72" y="363.99" width="2.28" height="2.30" fill="#d64545" opacity="0.55" />
<rect x="581.99" y="362.50" width="2.28" height="1.50" fill="#2f9e44" opacity="0.55" />
<rect x="585.27" y="360.86" width="2.28" height="3.13" fill="#2f9e44" opacity="0.55" />
<rect x="588.54" y="358.74" width="2.28" height="5.26" fill="#2f9e44" opacity="0.55" />
<rect x="591.82" y="357.92" width="2.28" height="6.08" fill="#2f9e44" opacity="0.55" />
<rect x="595.09" y="357.18" width="2.28" height="6.81" fill="#2f9e44" opacity="0.55" />
<rect x="598.36" y="353.43" width="2.28" height="10.56" fill="#2f9e44" opacity="0.55" />
<rect x="601.64" y="350.42" width="2.28" height="13.57" fill="#2f9e44" opacity="0.55" />
<rect x="604.91" y="351.23" width="2.28" height="12.77" fill="#2f9e44" opacity="0.55" />
<rect x="608.19" y="351.99" width="2.28" height="12.00" fill="#2f9e44" opacity="0.55" />
<rect x="611.46" y="352.49" width="2.28" height="11.51" fill="#2f9e44" opacity="0.55" />
<rect x="614.73" y="353.83" width="2.28" height="10.16" fill="#2f9e44" opacity="0.55" />
<rect x="618.01" y="356.25" width="2.28" height="7.75" fill="#2f9e44" opacity="0.55" />
<rect x="621.28" y="358.71" width="2.28" height="5.28" fill="#2f9e44" opacity="0.55" />
<rect x="624.56" y="358.70" width="2.28" height="5.30" fill="#2f9e44" opacity="0.55" />
<rect x="627.83" y="357.39" width="2.28" height="6.61" fill="#2f9e44" opacity="0.55" />
<rect x="631.11" y="358.90" width="2.28" height="5.10" fill="#2f9e44" opacity="0.55" />
<rect x="634.38" y="360.41" width="2.28" height="3.59" fill="#2f9e44" opacity="0.55" />
<rect x="637.65" y="362.76" width="2.28" height="1.23" fill="#2f9e44" opacity="0.55" />
<rect x="640.93" y="362.23" width="2.28" height="1.76" fill="#2f9e44" opacity="0.55" />
<rect x="644.20" y="363.03" width="2.28" height="0.97" fill="#2f9e44" opacity="0.55" />
<rect x="647.48" y="361.63" width="2.28" height="2.36" fill="#2f9e44" opacity="0.55" />
<rect x="650.75" y="362.43" width="2.28" height="1.56" fill="#2f9e44" opacity="0.55" />
<rect x="654.02" y="363.99" width="2.28" height="2.21" fill="#d64545" opacity="0.55" />
<rect x="657.30" y="363.99" width="2.28" height="3.67" fill="#d64545" opacity="0.55" />
<rect x="660.57" y="363.99" width="2.28" height="1.29" fill="#d64545" opacity="0.55" />
<rect x="663.85" y="362.66" width="2.28" height="1.33" fill="#2f9e44" opacity="0.55" />
<rect x="667.12" y="361.27" width="2.28" height="2.73" fill="#2f9e44" opacity="0.55" />
<rect x="670.40" y="359.18" width="2.28" height="4.81" fill="#2f9e44" opacity="0.55" />
<rect x="673.67" y="357.61" width="2.28" height="6.39" fill="#2f9e44" opacity="0.55" />
<rect x="676.94" y="353.82" width="2.28" height="10.17" fill="#2f9e44" opacity="0.55" />
<rect x="680.22" y="346.90" width="2.28" height="17.10" fill="#2f9e44" opacity="0.55" />
<rect x="683.49" y="341.49" width="2.28" height="22.50" fill="#2f9e44" opacity="0.55" />
<rect x="686.77" y="338.68" width="2.28" height="25.31" fill="#2f9e44" opacity="0.55" />
<rect x="690.04" y="334.62" width="2.28" height="29.37" fill="#2f9e44" opacity="0.55" />
<rect x="693.31" y="333.96" width="2.28" height="30.04" fill="#2f9e44" opacity="0.55" />
<rect x="696.59" y="334.83" width="2.28" height="29.17" fill="#2f9e44" opacity="0.55" />
<rect x="699.86" y="336.82" width="2.28" height="27.18" fill="#2f9e44" opacity="0.55" />
<rect x="703.14" y="340.73" width="2.28" height="23.26" fill="#2f9e44" opacity="0.55" />
<rect x="706.41" y="344.13" width="2.28" height="19.87" fill="#2f9e44" opacity="0.55" />
<rect x="709.68" y="345.52" width="2.28" height="18.47" fill="#2f9e44" opacity="0.55" />
<rect x="712.96" y="347.94" width="2.28" height="16.05" fill="#2f9e44" opacity="0.55" />
<rect x="716.23" y="347.21" width="2.28" height="16.79" fill="#2f9e44" opacity="0.55" />
<rect x="719.51" y="349.32" width="2.28" height="14.67" fill="#2f9e44" opacity="0.55" />
<rect x="722.78" y="352.57" width="2.28" height="11.43" fill="#2f9e44" opacity="0.55" />
<rect x="726.06" y="354.45" width="2.28" height="9.54" fill="#2f9e44" opacity="0.55" />
<rect x="729.33" y="355.94" width="2.28" height="8.06" fill="#2f9e44" opacity="0.55" />
<rect x="732.60" y="356.64" width="2.28" height="7.35" fill="#2f9e44" opacity="0.55" />
<rect x="735.88" y="356.60" width="2.28" height="7.40" fill="#2f9e44" opacity="0.55" />
<rect x="739.15" y="357.02" width="2.28" height="6.97" fill="#2f9e44" opacity="0.55" />
<rect x="742.43" y="357.76" width="2.28" height="6.23" fill="#2f9e44" opacity="0.55" />
<rect x="745.70" y="360.80" width="2.28" height="3.19" fill="#2f9e44" opacity="0.55" />
<rect x="748.97" y="362.97" width="2.28" height="1.02" fill="#2f9e44" opacity="0.55" />
<rect x="752.25" y="363.99" width="2.28" height="2.60" fill="#d64545" opacity="0.55" />
<rect x="755.52" y="363.99" width="2.28" height="6.71" fill="#d64545" opacity="0.55" />
<rect x="758.80" y="363.99" width="2.28" height="7.90" fill="#d64545" opacity="0.55" />
<rect x="762.07" y="363.99" width="2.28" height="10.07" fill="#d64545" opacity="0.55" />
<rect x="765.34" y="363.99" width="2.28" height="12.80" fill="#d64545" opacity="0.55" />
<rect x="768.62" y="363.99" width="2.28" height="14.17" fill="#d64545" opacity="0.55" />
<rect x="771.89" y="363.99" width="2.28" height="17.11" fill="#d64545" opacity="0.55" />
<rect x="775.17" y="363.99" width="2.28" height="16.31" fill="#d64545" opacity="0.55" />
<rect x="778.44" y="363.99" width="2.28" height="14.08" fill="#d64545" opacity="0.55" />
<rect x="781.72" y="363.99" width="2.28" height="13.29" fill="#d64545" opacity="0.55" />
<rect x="784.99" y="363.99" width="2.28" height="12.96" fill="#d64545" opacity="0.55" />
<rect x="788.26" y="363.99" width="2.28" height="9.85" fill="#d64545" opacity="0.55" />
<rect x="791.54" y="363.99" width="2.28" height="6.92" fill="#d64545" opacity="0.55" />
<rect x="794.81" y="363.99" width="2.28" height="6.45" fill="#d64545" opacity="0.55" />
<rect x="798.09" y="363.99" width="2.28" height="9.98" fill="#d64545" opacity="0.55" />
<rect x="801.36" y="363.99" width="2.28" height="13.93" fill="#d64545" opacity="0.55" />
<rect x="804.63" y="363.99" width="2.28" height="18.61" fill="#d64545" opacity="0.55" />
<rect x="807.91" y="363.99" width="2.28" height="19.32" fill="#d64545" opacity="0.55" />
<rect x="811.18" y="363.99" width="2.28" height="22.11" fill="#d64545" opacity="0.55" />
<rect x="814.46" y="363.99" width="2.28" height="23.20" fill="#d64545" opacity="0.55" />
<rect x="817.73" y="363.99" width="2.28" height="23.21" fill="#d64545" opacity="0.55" />
<rect x="821.01" y="363.99" width="2.28" height="24.57" fill="#d64545" opacity="0.55" />
<rect x="824.28" y="363.99" width="2.28" height="22.73" fill="#d64545" opacity="0.55" />
<rect x="827.55" y="363.99" width="2.28" height="21.55" fill="#d64545" opacity="0.55" />
<rect x="830.83" y="363.99" width="2.28" height="16.58" fill="#d64545" opacity="0.55" />
<rect x="834.10" y="363.99" width="2.28" height="12.48" fill="#d64545" opacity="0.55" />
<rect x="837.38" y="363.99" width="2.28" height="12.53" fill="#d64545" opacity="0.55" />
<rect x="840.65" y="363.99" width="2.28" height="8.95" fill="#d64545" opacity="0.55" />
<rect x="843.92" y="363.99" width="2.28" height="10.71" fill="#d64545" opacity="0.55" />
<rect x="847.20" y="363.99" width="2.28" height="10.50" fill="#d64545" opacity="0.55" />
<rect x="850.47" y="363.99" width="2.28" height="9.50" fill="#d64545" opacity="0.55" />
<rect x="853.75" y="363.99" width="2.28" height="11.04" fill="#d64545" opacity="0.55" />
<rect x="857.02" y="363.99" width="2.28" height="8.84" fill="#d64545" opacity="0.55" />
<rect x="860.29" y="363.99" width="2.28" height="3.67" fill="#d64545" opacity="0.55" />
<rect x="863.57" y="363.99" width="2.28" height="0.64" fill="#d64545" opacity="0.55" />
<rect x="866.84" y="361.02" width="2.28" height="2.97" fill="#2f9e44" opacity="0.55" />
<rect x="870.12" y="358.20" width="2.28" height="5.79" fill="#2f9e44" opacity="0.55" />
<rect x="873.39" y="355.83" width="2.28" height="8.16" fill="#2f9e44" opacity="0.55" />
<rect x="876.67" y="353.75" width="2.28" height="10.24" fill="#2f9e44" opacity="0.55" />
<rect x="879.94" y="353.67" width="2.28" height="10.32" fill="#2f9e44" opacity="0.55" />
<rect x="883.21" y="352.55" width="2.28" height="11.45" fill="#2f9e44" opacity="0.55" />
<rect x="886.49" y="352.91" width="2.28" height="11.08" fill="#2f9e44" opacity="0.55" />
<rect x="889.76" y="352.74" width="2.28" height="11.26" fill="#2f9e44" opacity="0.55" />
<rect x="893.04" y="352.98" width="2.28" height="11.01" fill="#2f9e44" opacity="0.55" />
<rect x="896.31" y="350.56" width="2.28" height="13.43" fill="#2f9e44" opacity="0.55" />
<rect x="899.58" y="351.68" width="2.28" height="12.31" fill="#2f9e44" opacity="0.55" />
<rect x="902.86" y="354.03" width="2.28" height="9.97" fill="#2f9e44" opacity="0.55" />
<polyline fill="none" stroke="#1f77b4" stroke-width="2" points="137.85,371.21 141.13,371.35 144.40,369.81 147.68,365.30 150.95,361.72 154.22,358.71 157.50,358.17 160.77,359.94 164.05,362.30 167.32,360.70 170.59,359.93 173.87,358.99 177.14,358.10 180.42,356.23 183.69,356.15 186.97,358.03 190.24,359.25 193.51,355.36 196.79,354.11 200.06,351.46 203.34,348.33 206.61,350.04 209.88,351.73 213.16,354.10 216.43,354.42 219.71,353.46 222.98,354.05 226.25,354.82 229.53,355.40 232.80,357.90 236.08,363.42 239.35,368.00 242.63,372.58 245.90,375.25 249.17,376.01 252.45,377.78 255.72,378.47 259.00,377.96 262.27,378.85 265.54,378.68 268.82,377.94 272.09,375.47 275.37,372.12 278.64,375.15 281.92,375.52 285.19,377.54 288.46,379.39 291.74,381.21 295.01,383.16 298.29,382.74 301.56,379.39 304.83,378.65 308.11,376.33 311.38,372.79 314.66,368.52 317.93,363.98 321.20,359.89 324.48,360.48 327.75,350.21 331.03,337.39 334.30,330.01 337.58,324.17 340.85,323.66 344.12,323.03 347.40,320.99 350.67,319.53 353.95,321.36 357.22,326.62 360.49,332.63 363.77,338.61 367.04,348.79 370.32,356.87 373.59,366.09 376.86,371.49 380.14,372.81 383.41,372.04 386.69,371.61 389.96,369.13 393.24,366.79 396.51,364.66 399.78,364.01 403.06,365.15 406.33,365.82 409.61,367.66 412.88,368.53 416.15,367.22 419.43,366.91 422.70,368.70 425.98,371.89 429.25,374.29 432.53,376.70 435.80,375.68 439.07,374.44 442.35,372.81 445.62,369.56 448.90,366.83 452.17,364.59 455.44,363.06 458.72,361.63 461.99,361.40 465.27,363.43 468.54,361.72 471.81,356.44 475.09,352.06 478.36,346.39 481.64,341.59 484.91,338.55 488.19,338.41 491.46,341.59 494.73,343.56 498.01,344.87 501.28,350.21 504.56,354.39 507.83,356.25 511.10,355.36 514.38,355.14 517.65,351.91 520.93,350.36 524.20,349.94 527.47,351.00 530.75,350.13 534.02,351.80 537.30,356.09 540.57,364.73 543.85,377.74 547.12,388.58 550.39,397.68 553.67,405.88 556.94,414.08 560.22,420.35 563.49,423.43 566.76,423.33 570.04,422.53 573.31,418.60 576.59,417.33 579.86,414.08 583.14,409.90 586.41,407.48 589.68,404.04 592.96,401.70 596.23,399.27 599.51,392.88 602.78,386.47 606.05,384.09 609.33,381.85 612.60,379.47 615.88,378.27 619.15,378.75 622.42,379.89 625.70,378.55 628.97,375.59 632.25,375.83 635.52,376.44 638.80,378.49 642.07,377.52 645.34,378.07 648.62,376.09 651.89,376.50 655.17,380.82 658.44,383.19 661.71,381.14 664.99,378.18 668.26,376.11 671.54,372.82 674.81,369.64 678.08,363.32 681.36,352.12 684.63,341.09 687.91,331.95 691.18,320.55 694.46,312.37 697.73,305.95 701.00,301.15 704.28,299.25 707.55,297.68 710.83,294.45 714.10,292.86 717.37,287.93 720.65,286.38 723.92,286.76 727.20,286.26 730.47,285.74 733.75,284.60 737.02,282.70 740.29,281.39 743.57,280.57 746.84,282.81 750.12,284.73 753.39,288.99 756.66,294.79 759.94,297.95 763.21,302.64 766.49,308.57 769.76,313.49 773.03,320.70 776.31,323.98 779.58,325.27 782.86,327.80 786.13,330.71 789.41,330.06 792.68,328.86 795.95,330.01 799.23,336.03 802.50,343.46 805.78,352.79 809.05,358.33 812.32,366.65 815.60,373.54 818.87,379.36 822.15,386.86 825.42,390.70 828.69,394.91 831.97,394.08 835.24,393.10 838.52,396.28 841.79,394.94 845.07,399.38 848.34,401.80 851.61,403.17 854.89,407.47 858.16,407.48 861.44,403.23 864.71,400.36 867.98,396.00 871.26,391.73 874.53,387.32 877.81,382.68 881.08,380.02 884.36,376.03 887.63,373.63 890.90,370.64 894.18,368.13 897.45,362.35 900.73,360.40 904.00,360.25" />
<polyline fill="none" stroke="#ff7f0e" stroke-width="2" points="137.85,371.21 141.13,371.24 144.40,370.95 147.68,369.82 150.95,368.20 154.22,366.30 157.50,364.68 160.77,363.73 164.05,363.44 167.32,362.90 170.59,362.30 173.87,361.64 177.14,360.93 180.42,359.99 183.69,359.22 186.97,358.99 190.24,359.04 193.51,358.30 196.79,357.46 200.06,356.26 203.34,354.68 206.61,353.75 209.88,353.34 213.16,353.50 216.43,353.68 219.71,353.64 222.98,353.72 226.25,353.94 229.53,354.23 232.80,354.96 236.08,356.66 239.35,358.92 242.63,361.66 245.90,364.38 249.17,366.70 252.45,368.92 255.72,370.83 259.00,372.25 262.27,373.57 265.54,374.60 268.82,375.27 272.09,375.31 275.37,374.67 278.64,374.76 281.92,374.92 285.19,375.44 288.46,376.23 291.74,377.23 295.01,378.41 298.29,379.28 301.56,379.30 304.83,379.17 308.11,378.60 311.38,377.44 314.66,375.66 317.93,373.32 321.20,370.63 324.48,368.60 327.75,364.92 331.03,359.42 334.30,353.54 337.58,347.66 340.85,342.86 344.12,338.90 347.40,335.31 350.67,332.16 353.95,330.00 357.22,329.32 360.49,329.98 363.77,331.71 367.04,335.13 370.32,339.48 373.59,344.80 376.86,350.14 380.14,354.67 383.41,358.15 386.69,360.84 389.96,362.50 393.24,363.36 396.51,363.62 399.78,363.70 403.06,363.99 406.33,364.35 409.61,365.01 412.88,365.72 416.15,366.02 419.43,366.20 422.70,366.70 425.98,367.74 429.25,369.05 432.53,370.58 435.80,371.60 439.07,372.17 442.35,372.30 445.62,371.75 448.90,370.77 452.17,369.53 455.44,368.24 458.72,366.91 461.99,365.81 465.27,365.34 468.54,364.61 471.81,362.98 475.09,360.80 478.36,357.91 481.64,354.65 484.91,351.43 488.19,348.82 491.46,347.38 494.73,346.61 498.01,346.27 501.28,347.05 504.56,348.52 507.83,350.07 511.10,351.13 514.38,351.93 517.65,351.93 520.93,351.61 524.20,351.28 527.47,351.22 530.75,351.00 534.02,351.16 537.30,352.15 540.57,354.67 543.85,359.28 547.12,365.14 550.39,371.65 553.67,378.49 556.94,385.61 560.22,392.56 563.49,398.73 566.76,403.65 570.04,407.43 573.31,409.66 576.59,411.20 579.86,411.77 583.14,411.40 586.41,410.62 589.68,409.30 592.96,407.78 596.23,406.08 599.51,403.44 602.78,400.04 606.05,396.85 609.33,393.85 612.60,390.97 615.88,388.43 619.15,386.50 622.42,385.18 625.70,383.85 628.97,382.20 632.25,380.93 635.52,380.03 638.80,379.72 642.07,379.28 645.34,379.04 648.62,378.45 651.89,378.06 655.17,378.61 658.44,379.53 661.71,379.85 664.99,379.52 668.26,378.83 671.54,377.63 674.81,376.03 678.08,373.49 681.36,369.22 684.63,363.59 687.91,357.26 691.18,349.92 694.46,342.41 697.73,335.12 701.00,328.32 704.28,322.51 707.55,317.54 710.83,312.92 714.10,308.91 717.37,304.71 720.65,301.05 723.92,298.19 727.20,295.80 730.47,293.79 733.75,291.95 737.02,290.10 740.29,288.36 743.57,286.80 746.84,286.00 750.12,285.75 753.39,286.40 756.66,288.08 759.94,290.05 763.21,292.57 766.49,295.77 769.76,299.31 773.03,303.59 776.31,307.67 779.58,311.19 782.86,314.51 786.13,317.75 789.41,320.21 792.68,321.94 795.95,323.55 799.23,326.05 802.50,329.53 805.78,334.18 809.05,339.01 812.32,344.54 815.60,350.34 818.87,356.14 822.15,362.29 825.42,367.97 828.69,373.36 831.97,377.50 835.24,380.62 838.52,383.75 841.79,385.99 845.07,388.67 848.34,391.29 851.61,393.67 854.89,396.43 858.16,398.64 861.44,399.56 864.71,399.72 867.98,398.97 871.26,397.53 874.53,395.48 877.81,392.92 881.08,390.34 884.36,387.48 887.63,384.71 890.90,381.90 894.18,379.14 897.45,375.78 900.73,372.71 904.00,370.22" />
<text x="754.00" y="290.00" font-size="13" font-family="Arial" fill="#1f77b4" text-anchor="start">MACD</text>
<text x="818.00" y="290.00" font-size="13" font-family="Arial" fill="#ff7f0e" text-anchor="start">Signal</text>
<line x1="56" y1="624" x2="904" y2="624" stroke="#cbd2d9" />
<line x1="56" y1="484" x2="56" y2="624" stroke="#cbd2d9" />
<text x="16.00" y="476.00" font-size="12" font-family="Arial" fill="#52606d" text-anchor="start">KD</text>
<line x1="56" y1="624.00" x2="904" y2="624.00" stroke="#edf2f7" />
<line x1="52" y1="624.00" x2="56" y2="624.00" stroke="#9fb3c8" />
<text x="48.00" y="628.00" font-size="11" font-family="Arial" fill="#52606d" text-anchor="end">-5.00</text>
<line x1="56" y1="577.33" x2="904" y2="577.33" stroke="#edf2f7" />
<line x1="52" y1="577.33" x2="56" y2="577.33" stroke="#9fb3c8" />
<text x="48.00" y="581.33" font-size="11" font-family="Arial" fill="#52606d" text-anchor="end">31.7</text>
<line x1="56" y1="530.67" x2="904" y2="530.67" stroke="#edf2f7" />
<line x1="52" y1="530.67" x2="56" y2="530.67" stroke="#9fb3c8" />
<text x="48.00" y="534.67" font-size="11" font-family="Arial" fill="#52606d" text-anchor="end">68.3</text>
<line x1="56" y1="484.00" x2="904" y2="484.00" stroke="#edf2f7" />
<line x1="52" y1="484.00" x2="56" y2="484.00" stroke="#9fb3c8" />
<text x="48.00" y="488.00" font-size="11" font-family="Arial" fill="#52606d" text-anchor="end">105</text>
<line x1="56.00" y1="624" x2="56.00" y2="628" stroke="#9fb3c8" />
<text x="56.00" y="642.00" font-size="11" font-family="Arial" fill="#52606d" text-anchor="middle">07/07</text>
<line x1="226.25" y1="624" x2="226.25" y2="628" stroke="#9fb3c8" />
<text x="226.25" y="642.00" font-size="11" font-family="Arial" fill="#52606d" text-anchor="middle">09/18</text>
<line x1="396.51" y1="624" x2="396.51" y2="628" stroke="#9fb3c8" />
<text x="396.51" y="642.00" font-size="11" font-family="Arial" fill="#52606d" text-anchor="middle">12/02</text>
<line x1="563.49" y1="624" x2="563.49" y2="628" stroke="#9fb3c8" />
<text x="563.49" y="642.00" font-size="11" font-family="Arial" fill="#52606d" text-anchor="middle">02/17</text>
<line x1="733.75" y1="624" x2="733.75" y2="628" stroke="#9fb3c8" />
<text x="733.75" y="642.00" font-size="11" font-family="Arial" fill="#52606d" text-anchor="middle">05/01</text>
<line x1="904.00" y1="624" x2="904.00" y2="628" stroke="#9fb3c8" />
<text x="904.00" y="642.00" font-size="11" font-family="Arial" fill="#52606d" text-anchor="middle">07/17</text>
<line x1="56" y1="592.18" x2="904" y2="592.18" stroke="#f0b429" stroke-dasharray="5 5" />
<text x="912.00" y="596.18" font-size="10" font-family="Arial" fill="#8d2b0b" text-anchor="start">20.0</text>
<line x1="56" y1="515.82" x2="904" y2="515.82" stroke="#f0b429" stroke-dasharray="5 5" />
<text x="912.00" y="519.82" font-size="10" font-family="Arial" fill="#8d2b0b" text-anchor="start">80.0</text>
<polyline fill="none" stroke="#2ca02c" stroke-width="2" points="82.19,549.06 85.47,534.96 88.74,521.75 92.02,521.71 95.29,520.54 98.56,522.05 101.84,525.49 105.11,523.63 108.39,528.24 111.66,534.54 114.93,529.25 118.21,555.23 121.48,575.64 124.76,585.70 128.03,577.95 131.31,571.39 134.58,567.77 137.85,567.70 141.13,567.36 144.40,546.46 147.68,531.92 150.95,524.17 154.22,518.30 157.50,526.12 160.77,543.19 164.05,559.82 167.32,551.46 170.59,550.28 173.87,547.08 177.14,543.67 180.42,529.76 183.69,529.52 186.97,542.07 190.24,548.19 193.51,529.17 196.79,527.22 200.06,519.67 203.34,511.42 206.61,525.64 209.88,536.06 213.16,547.50 216.43,550.18 219.71,546.45 222.98,552.18 226.25,557.31 229.53,559.89 232.80,574.15 236.08,586.93 239.35,595.20 242.63,599.01 245.90,597.99 249.17,590.98 252.45,592.43 255.72,590.86 259.00,581.91 262.27,582.50 265.54,569.99 268.82,556.01 272.09,540.12 275.37,525.17 278.64,554.71 281.92,561.59 285.19,570.00 288.46,577.83 291.74,586.03 295.01,591.61 298.29,586.86 301.56,570.02 304.83,568.84 308.11,550.38 311.38,533.89 314.66,522.87 317.93,516.68 321.20,512.81 324.48,527.30 327.75,522.83 331.03,516.65 334.30,517.63 337.58,518.25 340.85,527.37 344.12,531.82 347.40,530.07 350.67,528.08 353.95,545.89 357.22,567.73 360.49,581.20 363.77,586.42 367.04,596.64 370.32,598.32 373.59,604.27 376.86,602.08 380.14,593.89 383.41,580.29 386.69,567.55 389.96,544.84 393.24,530.63 396.51,525.32 399.78,525.42 403.06,531.32 406.33,541.65 409.61,558.34 412.88,569.50 416.15,565.13 419.43,566.81 422.70,580.44 425.98,589.17 429.25,593.75 432.53,600.67 435.80,584.91 439.07,572.21 442.35,559.74 445.62,537.76 448.90,523.98 452.17,514.44 455.44,509.67 458.72,504.86 461.99,510.76 465.27,539.29 468.54,532.44 471.81,523.58 475.09,520.19 478.36,510.48 481.64,504.66 484.91,504.22 488.19,510.69 491.46,525.43 494.73,534.72 498.01,544.63 501.28,565.37 504.56,574.27 507.83,574.38 511.10,565.18 514.38,559.11 517.65,536.66 520.93,530.91 524.20,529.68 527.47,533.79 530.75,529.10 534.02,539.21 537.30,562.24 540.57,577.13 543.85,581.69 547.12,586.15 550.39,590.52 553.67,596.08 556.94,601.49 560.22,605.57 563.49,604.49 566.76,596.57 570.04,581.23 573.31,557.76 576.59,554.10 579.86,540.15 583.14,526.14 586.41,524.20 589.68,517.25 592.96,521.76 596.23,524.61 599.51,515.22 602.78,510.54 606.05,520.94 609.33,527.21 612.60,529.41 615.88,534.83 619.15,545.81 622.42,557.51 625.70,561.12 628.97,553.22 632.25,560.74 635.52,569.21 638.80,581.84 642.07,574.30 645.34,577.86 648.62,563.57 651.89,569.59 655.17,585.09 658.44,591.14 661.71,572.17 664.99,553.74 668.26,543.81 671.54,528.32 674.81,516.24 678.08,515.24 681.36,507.13 684.63,503.69 687.91,499.88 691.18,499.54 694.46,499.79 697.73,499.09 701.00,501.24 704.28,506.78 707.55,509.39 710.83,504.71 714.10,506.76 717.37,502.25 720.65,505.35 723.92,510.38 727.20,509.64 730.47,516.34 733.75,517.30 737.02,514.99 740.29,515.12 743.57,513.63 746.84,519.87 750.12,521.17 753.39,529.03 756.66,540.27 759.94,546.08 763.21,557.71 766.49,569.88 769.76,575.84 773.03,581.56 776.31,571.44 779.58,556.31 782.86,546.46 786.13,542.70 789.41,526.64 792.68,515.64 795.95,516.13 799.23,536.80 802.50,559.27 805.78,575.10 809.05,579.74 812.32,592.01 815.60,598.04 818.87,599.89 822.15,605.18 825.42,600.79 828.69,598.79 831.97,582.63 835.24,571.20 838.52,579.40 841.79,564.94 845.07,581.22 848.34,588.25 851.61,592.54 854.89,598.32 858.16,592.12 861.44,575.00 864.71,566.76 867.98,555.36 871.26,546.05 874.53,537.24 877.81,528.16 881.08,526.26 884.36,519.10 887.63,523.53 890.90,522.26 894.18,520.94 897.45,514.28 900.73,523.83 904.00,535.89" />
<polyline fill="none" stroke="#d62728" stroke-width="2" points="82.19,552.35 85.47,546.56 88.74,538.29 92.02,532.76 95.29,528.69 98.56,526.48 101.84,526.15 105.11,525.31 108.39,526.29 111.66,529.04 114.93,529.11 118.21,537.82 121.48,550.42 124.76,562.18 128.03,567.44 131.31,568.76 134.58,568.43 137.85,568.18 141.13,567.91 144.40,560.76 147.68,551.15 150.95,542.16 154.22,534.20 157.50,531.51 160.77,535.41 164.05,543.54 167.32,546.18 170.59,547.55 173.87,547.39 177.14,546.15 180.42,540.69 183.69,536.96 186.97,538.67 190.24,541.84 193.51,537.62 196.79,534.15 200.06,529.32 203.34,523.36 206.61,524.12 209.88,528.10 213.16,534.57 216.43,539.77 219.71,542.00 222.98,545.39 226.25,549.37 229.53,552.87 232.80,559.96 236.08,568.95 239.35,577.70 242.63,584.81 245.90,589.20 249.17,589.79 252.45,590.67 255.72,590.73 259.00,587.79 262.27,586.03 265.54,580.68 268.82,572.46 272.09,561.68 275.37,549.51 278.64,551.24 281.92,554.69 285.19,559.79 288.46,565.80 291.74,572.55 295.01,578.90 298.29,581.55 301.56,577.71 304.83,574.75 308.11,566.63 311.38,555.72 314.66,544.77 317.93,535.41 321.20,527.88 324.48,527.69 327.75,526.07 331.03,522.93 334.30,521.16 337.58,520.19 340.85,522.58 344.12,525.66 347.40,527.13 350.67,527.45 353.95,533.59 357.22,544.97 360.49,557.05 363.77,566.84 367.04,576.77 370.32,583.95 373.59,590.73 376.86,594.51 380.14,594.30 383.41,589.63 386.69,582.27 389.96,569.79 393.24,556.74 396.51,546.27 399.78,539.32 403.06,536.65 406.33,538.32 409.61,544.99 412.88,553.16 416.15,557.15 419.43,560.37 422.70,567.06 425.98,574.43 429.25,580.87 432.53,587.47 435.80,586.62 439.07,581.82 442.35,574.46 445.62,562.23 448.90,549.48 452.17,537.80 455.44,528.42 458.72,520.57 461.99,517.30 465.27,524.63 468.54,527.23 471.81,526.01 475.09,524.07 478.36,519.54 481.64,514.58 484.91,511.13 488.19,510.98 491.46,515.80 494.73,522.10 498.01,529.61 501.28,541.53 504.56,552.45 507.83,559.76 511.10,561.57 514.38,560.75 517.65,552.72 520.93,545.45 524.20,540.19 527.47,538.06 530.75,535.07 534.02,536.45 537.30,545.05 540.57,555.74 543.85,564.39 547.12,571.64 550.39,577.94 553.67,583.99 556.94,589.82 560.22,595.07 563.49,598.21 566.76,597.67 570.04,592.19 573.31,580.71 576.59,571.84 579.86,561.28 583.14,549.56 586.41,541.11 589.68,533.16 592.96,529.36 596.23,527.77 599.51,523.59 602.78,519.24 606.05,519.81 609.33,522.27 612.60,524.65 615.88,528.04 619.15,533.97 622.42,541.81 625.70,548.25 628.97,549.91 632.25,553.52 635.52,558.75 638.80,566.45 642.07,569.06 645.34,572.00 648.62,569.19 651.89,569.32 655.17,574.58 658.44,580.10 661.71,577.45 664.99,569.55 668.26,560.97 671.54,550.09 674.81,538.80 678.08,530.95 681.36,523.01 684.63,516.57 687.91,511.01 691.18,507.19 694.46,504.72 697.73,502.84 701.00,502.31 704.28,503.80 707.55,505.66 710.83,505.35 714.10,505.82 717.37,504.63 720.65,504.87 723.92,506.71 727.20,507.68 730.47,510.57 733.75,512.81 737.02,513.54 740.29,514.07 743.57,513.92 746.84,515.90 750.12,517.66 753.39,521.45 756.66,527.72 759.94,533.84 763.21,541.80 766.49,551.16 769.76,559.39 773.03,566.78 776.31,568.33 779.58,564.32 782.86,558.37 786.13,553.15 789.41,544.31 792.68,534.75 795.95,528.55 799.23,531.30 802.50,540.62 805.78,552.12 809.05,561.32 812.32,571.55 815.60,580.38 818.87,586.88 822.15,592.98 825.42,595.59 828.69,596.65 831.97,591.98 835.24,585.05 838.52,583.17 841.79,577.09 845.07,578.47 848.34,581.73 851.61,585.33 854.89,589.66 858.16,590.48 861.44,585.32 864.71,579.13 867.98,571.21 871.26,562.82 874.53,554.29 877.81,545.58 881.08,539.14 884.36,532.46 887.63,529.48 890.90,527.07 894.18,525.03 897.45,521.45 900.73,522.24 904.00,526.79" />
<text x="824.00" y="502.00" font-size="13" font-family="Arial" fill="#2ca02c" text-anchor="start">K</text>
<text x="860.00" y="502.00" font-size="13" font-family="Arial" fill="#d62728" text-anchor="start">D</text>
</svg>