<svg xmlns="http://www.w3.org/2000/svg" width="960" height="680" viewBox="0 0 960 680"><rect width="100%" height="100%" fill="white" />
<text x="56.00" y="32.00" font-size="20" font-family="Arial" fill="#1f2933" text-anchor="start">AMZN Technical Indicators</text>
<line x1="56" y1="220" x2="904" y2="220" stroke="#cbd2d9" />
<line x1="56" y1="58" x2="56" y2="220" stroke="#cbd2d9" />
<text x="16.00" y="50.00" font-size="12" font-family="Arial" fill="#52606d" text-anchor="start">RSI14</text>
<line x1="56" y1="220.00" x2="904" y2="220.00" stroke="#edf2f7" />
<line x1="52" y1="220.00" x2="56" y2="220.00" stroke="#9fb3c8" />
<text x="48.00" y="224.00" font-size="11" font-family="Arial" fill="#52606d" text-anchor="end">-5.00</text>
<line x1="56" y1="166.00" x2="904" y2="166.00" stroke="#edf2f7" />
<line x1="52" y1="166.00" x2="56" y2="166.00" stroke="#9fb3c8" />
<text x="48.00" y="170.00" font-size="11" font-family="Arial" fill="#52606d" text-anchor="end">31.7</text>
<line x1="56" y1="112.00" x2="904" y2="112.00" stroke="#edf2f7" />
<line x1="52" y1="112.00" x2="56" y2="112.00" stroke="#9fb3c8" />
<text x="48.00" y="116.00" font-size="11" font-family="Arial" fill="#52606d" text-anchor="end">68.3</text>
<line x1="56" y1="58.00" x2="904" y2="58.00" stroke="#edf2f7" />
<line x1="52" y1="58.00" x2="56" y2="58.00" stroke="#9fb3c8" />
<text x="48.00" y="62.00" font-size="11" font-family="Arial" fill="#52606d" text-anchor="end">105</text>
<line x1="56" y1="168.45" x2="904" y2="168.45" stroke="#f0b429" stroke-dasharray="5 5" />
<text x="912.00" y="172.45" font-size="10" font-family="Arial" fill="#8d2b0b" text-anchor="start">30.0</text>
<line x1="56" y1="109.55" x2="904" y2="109.55" stroke="#f0b429" stroke-dasharray="5 5" />
<text x="912.00" y="113.55" font-size="10" font-family="Arial" fill="#8d2b0b" text-anchor="start">70.0</text>
<polyline fill="none" stroke="#1f77b4" stroke-width="2" points="101.84,104.22 105.11,103.48 108.39,113.28 111.66,112.28 114.93,109.11 118.21,105.04 121.48,110.92 124.76,109.75 128.03,104.54 131.31,107.21 134.58,105.39 137.85,111.63 141.13,114.47 144.40,108.27 147.68,150.21 150.95,154.25 154.22,150.24 157.50,136.20 160.77,135.01 164.05,135.76 167.32,138.19 170.59,137.89 173.87,132.44 177.14,122.79 180.42,122.72 183.69,122.04 186.97,129.99 190.24,138.45 193.51,141.90 196.79,129.92 200.06,131.70 203.34,130.41 206.61,129.69 209.88,125.37 213.16,131.52 216.43,139.34 219.71,138.00 222.98,121.64 226.25,128.68 229.53,123.60 232.80,120.34 236.08,135.61 239.35,136.26 242.63,139.43 245.90,133.85 249.17,129.69 252.45,134.44 255.72,135.21 259.00,134.74 262.27,142.55 265.54,153.94 268.82,154.68 272.09,157.72 275.37,153.76 278.64,148.16 281.92,152.62 285.19,150.05 288.46,145.77 291.74,151.22 295.01,147.75 298.29,145.55 301.56,137.42 304.83,132.09 308.11,153.39 311.38,145.93 314.66,151.48 317.93,152.68 321.20,154.33 324.48,156.49 327.75,148.50 331.03,137.51 334.30,144.63 337.58,138.86 340.85,133.54 344.12,129.15 347.40,125.69 350.67,124.11 353.95,138.85 357.22,113.88 360.49,106.91 363.77,114.19 367.04,113.52 370.32,124.18 373.59,122.91 376.86,119.24 380.14,118.60 383.41,126.34 386.69,135.56 389.96,139.25 393.24,141.55 396.51,153.00 399.78,152.79 403.06,158.24 406.33,152.76 409.61,144.81 412.88,140.35 416.15,141.00 419.43,135.58 422.70,134.71 425.98,133.96 429.25,137.27 432.53,142.38 435.80,141.66 439.07,145.86 442.35,143.91 445.62,136.91 448.90,139.63 452.17,146.60 455.44,152.15 458.72,152.11 461.99,154.13 465.27,142.38 468.54,141.21 471.81,139.02 475.09,131.91 478.36,131.47 481.64,131.19 484.91,132.35 488.19,131.32 491.46,136.06 494.73,146.54 498.01,131.69 501.28,119.02 504.56,118.15 507.83,112.03 511.10,110.73 514.38,113.22 517.65,123.26 520.93,136.06 524.20,133.36 527.47,131.69 530.75,146.77 534.02,146.15 537.30,140.17 540.57,131.74 543.85,133.22 547.12,123.53 550.39,127.04 553.67,129.74 556.94,134.75 560.22,128.55 563.49,137.17 566.76,146.61 570.04,159.68 573.31,170.47 576.59,171.63 579.86,172.93 583.14,175.03 586.41,178.08 589.68,178.62 592.96,173.34 596.23,165.58 599.51,165.43 602.78,154.71 606.05,160.28 609.33,154.03 612.60,150.23 615.88,153.79 619.15,149.83 622.42,152.09 625.70,151.38 628.97,136.57 632.25,133.27 635.52,142.70 638.80,142.22 642.07,140.71 645.34,143.64 648.62,148.83 651.89,151.77 655.17,143.30 658.44,136.89 661.71,145.99 664.99,147.74 668.26,152.89 671.54,143.49 674.81,148.03 678.08,139.90 681.36,146.44 684.63,157.03 687.91,154.03 691.18,141.79 694.46,138.38 697.73,139.60 701.00,134.95 704.28,133.46 707.55,123.26 710.83,111.04 714.10,107.40 717.37,106.28 720.65,100.22 723.92,101.23 727.20,100.45 730.47,99.87 733.75,104.97 737.02,103.64 740.29,99.50 743.57,100.17 746.84,94.28 750.12,100.84 753.39,104.05 756.66,101.43 759.94,99.90 763.21,97.58 766.49,95.03 769.76,94.07 773.03,93.13 776.31,103.31 779.58,101.98 782.86,111.31 786.13,118.65 789.41,113.54 792.68,120.00 795.95,126.40 799.23,125.35 802.50,136.15 805.78,127.63 809.05,123.08 812.32,127.25 815.60,129.26 818.87,120.37 822.15,117.79 825.42,124.72 828.69,140.55 831.97,146.98 835.24,154.63 838.52,148.58 841.79,156.95 845.07,157.75 848.34,158.82 851.61,164.83 854.89,158.48 858.16,161.45 861.44,148.99 864.71,149.01 867.98,158.31 871.26,147.79 874.53,158.83 877.81,156.92 881.08,156.68 884.36,163.11 887.63,154.48 890.90,144.59 894.18,146.50 897.45,142.17 900.73,140.91 904.00,138.93" />
<text x="808.00" y="76.00" font-size="13" font-family="Arial" fill="#1f77b4" text-anchor="start">RSI14</text>
<line x1="56" y1="432" x2="904" y2="432" stroke="#cbd2d9" />
<line x1="56" y1="272" x2="56" y2="432" stroke="#cbd2d9" />
<text x="16.00" y="264.00" font-size="12" font-family="Arial" fill="#52606d" text-anchor="start">MACD</text>
<line x1="56" y1="432.00" x2="904" y2="432.00" stroke="#edf2f7" />
<line x1="52" y1="432.00" x2="56" y2="432.00" stroke="#9fb3c8" />
<text x="48.00" y="436.00" font-size="11" font-family="Arial" fill="#52606d" text-anchor="end">-10.8</text>
<line x1="56" y1="378.67" x2="904" y2="378.67" stroke="#edf2f7" />
<line x1="52" y1="378.67" x2="56" y2="378.67" stroke="#9fb3c8" />
<text x="48.00" y="382.67" font-size="11" font-family="Arial" fill="#52606d" text-anchor="end">-2.32</text>
<line x1="56" y1="325.33" x2="904" y2="325.33" stroke="#edf2f7" />
<line x1="52" y1="325.33" x2="56" y2="325.33" stroke="#9fb3c8" />
<text x="48.00" y="329.33" font-size="11" font-family="Arial" fill="#52606d" text-anchor="end">6.11</text>
<line x1="56" y1="272.00" x2="904" y2="272.00" stroke="#edf2f7" />
<line x1="52" y1="272.00" x2="56" y2="272.00" stroke="#9fb3c8" />
<text x="48.00" y="276.00" font-size="11" font-family="Arial" fill="#52606d" text-anchor="end">14.5</text>
<line x1="56" y1="363.99" x2="904" y2="363.99" stroke="#9fb3c8" stroke-dasharray="4 4" />
<rect x="136.71" y="363.99" width="2.28" height="0.00" fill="#2f9e44" opacity="0.55" />
<rect x="139.99" y="363.99" width="2.28" height="0.93" fill="#d64545" opacity="0.55" />
<rect x="143.26" y="363.99" width="2.28" height="0.13" fill="#d64545" opacity="0.55" />
<rect x="146.53" y="363.99" width="2.28" height="7.69" fill="#d64545" opacity="0.55" />
<rect x="149.81" y="363.99" width="2.28" height="13.52" fill="#d64545" opacity="0.55" />
<rect x="153.08" y="363.99" width="2.28" height="15.82" fill="#d64545" opacity="0.55" />
<rect x="156.36" y="363.99" width="2.28" height="13.15" fill="#d64545" opacity="0.55" />
<rect x="159.63" y="363.99" width="2.28" height="10.60" fill="#d64545" opacity="0.55" />
<rect x="162.90" y="363.99" width="2.28" height="8.73" fill="#d64545" opacity="0.55" />
<rect x="166.18" y="363.99" width="2.28" height="7.77" fill="#d64545" opacity="0.55" />
<rect x="169.45" y="363.99" width="2.28" height="6.76" fill="#d64545" opacity="0.55" />
<rect x="172.73" y="363.99" width="2.28" height="4.59" fill="#d64545" opacity="0.55" />
<rect x="176.00" y="363.99" width="2.28" height="0.46" fill="#d64545" opacity="0.55" />
<rect x="179.28" y="361.87" width="2.28" height="2.13" fill="#2f9e44" opacity="0.55" />
<rect x="182.55" y="360.23" width="2.28" height="3.77" fill="#2f9e44" opacity="0.55" />
<rect x="185.82" y="360.87" width="2.28" height="3.13" fill="#2f9e44" opacity="0.55" />
<rect x="189.10" y="363.20" width="2.28" height="0.79" fill="#2f9e44" opacity="0.55" />
<rect x="192.37" y="363.99" width="2.28" height="1.54" fill="#d64545" opacity="0.55" />
<rect x="195.65" y="363.99" width="2.28" height="0.20" fill="#d64545" opacity="0.55" />
<rect x="198.92" y="363.79" width="2.28" height="0.21" fill="#2f9e44" opacity="0.55" />
<rect x="202.19" y="363.30" width="2.28" height="0.69" fill="#2f9e44" opacity="0.55" />
<rect x="205.47" y="362.94" width="2.28" height="1.06" fill="#2f9e44" opacity="0.55" />
<rect x="208.74" y="361.84" width="2.28" height="2.15" fill="#2f9e44" opacity="0.55" />
<rect x="212.02" y="362.39" width="2.28" height="1.60" fill="#2f9e44" opacity="0.55" />
<rect x="215.29" y="363.99" width="2.28" height="0.39" fill="#d64545" opacity="0.55" />
<rect x="218.57" y="363.99" width="2.28" height="1.44" fill="#d64545" opacity="0.55" />
<rect x="221.84" y="362.18" width="2.28" height="1.81" fill="#2f9e44" opacity="0.55" />
<rect x="225.11" y="361.68" width="2.28" height="2.32" fill="#2f9e44" opacity="0.55" />
<rect x="228.39" y="360.15" width="2.28" height="3.84" fill="#2f9e44" opacity="0.55" />
<rect x="231.66" y="358.53" width="2.28" height="5.47" fill="#2f9e44" opacity="0.55" />
<rect x="234.94" y="361.10" width="2.28" height="2.90" fill="#2f9e44" opacity="0.55" />
<rect x="238.21" y="363.13" width="2.28" height="0.87" fill="#2f9e44" opacity="0.55" />
<rect x="241.48" y="363.99" width="2.28" height="1.30" fill="#d64545" opacity="0.55" />
<rect x="244.76" y="363.99" width="2.28" height="1.38" fill="#d64545" opacity="0.55" />
<rect x="248.03" y="363.99" width="2.28" height="0.41" fill="#d64545" opacity="0.55" />
<rect x="251.31" y="363.99" width="2.28" height="0.87" fill="#d64545" opacity="0.55" />
<rect x="254.58" y="363.99" width="2.28" height="1.39" fill="#d64545" opacity="0.55" />
<rect x="257.85" y="363.99" width="2.28" height="1.64" fill="#d64545" opacity="0.55" />
<rect x="261.13" y="363.99" width="2.28" height="3.37" fill="#d64545" opacity="0.55" />
<rect x="264.40" y="363.99" width="2.28" height="7.16" fill="#d64545" opacity="0.55" />
<rect x="267.68" y="363.99" width="2.28" height="9.45" fill="#d64545" opacity="0.55" />
<rect x="270.95" y="363.99" width="2.28" height="11.27" fill="#d64545" opacity="0.55" />
<rect x="274.23" y="363.99" width="2.28" height="11.20" fill="#d64545" opacity="0.55" />
<rect x="277.50" y="363.99" width="2.28" height="9.60" fill="#d64545" opacity="0.55" />
<rect x="280.77" y="363.99" width="2.28" height="9.14" fill="#d64545" opacity="0.55" />
<rect x="284.05" y="363.99" width="2.28" height="7.90" fill="#d64545" opacity="0.55" />
<rect x="287.32" y="363.99" width="2.28" height="5.93" fill="#d64545" opacity="0.55" />
<rect x="290.60" y="363.99" width="2.28" height="5.50" fill="#d64545" opacity="0.55" />
<rect x="293.87" y="363.99" width="2.28" height="4.29" fill="#d64545" opacity="0.55" />
<rect x="297.14" y="363.99" width="2.28" height="2.86" fill="#d64545" opacity="0.55" />
<rect x="300.42" y="363.99" width="2.28" height="0.33" fill="#d64545" opacity="0.55" />
<rect x="303.69" y="361.61" width="2.28" height="2.39" fill="#2f9e44" opacity="0.55" />
<rect x="306.97" y="363.99" width="2.28" height="0.53" fill="#d64545" opacity="0.55" />
<rect x="310.24" y="363.99" width="2.28" height="0.74" fill="#d64545" opacity="0.55" />
<rect x="313.51" y="363.99" width="2.28" height="2.23" fill="#d64545" opacity="0.55" />
<rect x="316.79" y="363.99" width="2.28" height="3.27" fill="#d64545" opacity="0.55" />
<rect x="320.06" y="363.99" width="2.28" height="4.09" fill="#d64545" opacity="0.55" />
<rect x="323.34" y="363.99" width="2.28" height="4.85" fill="#d64545" opacity="0.55" />
<rect x="326.61" y="363.99" width="2.28" height="3.55" fill="#d64545" opacity="0.55" />
<rect x="329.89" y="363.99" width="2.28" height="0.18" fill="#d64545" opacity="0.55" />
<rect x="333.16" y="363.56" width="2.28" height="0.44" fill="#2f9e44" opacity="0.55" />
<rect x="336.43" y="361.79" width="2.28" height="2.20" fill="#2f9e44" opacity="0.55" />
<rect x="339.71" y="359.41" width="2.28" height="4.59" fill="#2f9e44" opacity="0.55" />
<rect x="342.98" y="356.92" width="2.28" height="7.07" fill="#2f9e44" opacity="0.55" />
<rect x="346.26" y="354.71" width="2.28" height="9.28" fill="#2f9e44" opacity="0.55" />
<rect x="349.53" y="353.30" width="2.28" height="10.69" fill="#2f9e44" opacity="0.55" />
<rect x="352.80" y="355.92" width="2.28" height="8.07" fill="#2f9e44" opacity="0.55" />
<rect x="356.08" y="349.33" width="2.28" height="14.66" fill="#2f9e44" opacity="0.55" />
<rect x="359.35" y="342.01" width="2.28" height="21.98" fill="#2f9e44" opacity="0.55" />
<rect x="362.63" y="340.51" width="2.28" height="23.49" fill="#2f9e44" opacity="0.55" />
<rect x="365.90" y="340.54" width="2.28" height="23.46" fill="#2f9e44" opacity="0.55" />
<rect x="369.18" y="344.83" width="2.28" height="19.17" fill="#2f9e44" opacity="0.55" />
<rect x="372.45" y="348.16" width="2.28" height="15.83" fill="#2f9e44" opacity="0.55" />
<rect x="375.72" y="349.70" width="2.28" height="14.30" fill="#2f9e44" opacity="0.55" />
<rect x="379.00" y="351.39" width="2.28" height="12.60" fill="#2f9e44" opacity="0.55" />
<rect x="382.27" y="355.38" width="2.28" height="8.61" fill="#2f9e44" opacity="0.55" />
<rect x="385.55" y="361.32" width="2.28" height="2.68" fill="#2f9e44" opacity="0.55" />
<rect x="388.82" y="363.99" width="2.28" height="2.67" fill="#d64545" opacity="0.55" />
<rect x="392.09" y="363.99" width="2.28" height="6.92" fill="#d64545" opacity="0.55" />
<rect x="395.37" y="363.99" width="2.28" height="13.69" fill="#d64545" opacity="0.55" />
<rect x="398.64" y="363.99" width="2.28" height="17.42" fill="#d64545" opacity="0.55" />
<rect x="401.92" y="363.99" width="2.28" height="21.30" fill="#d64545" opacity="0.55" />
<rect x="405.19" y="363.99" width="2.28" height="21.37" fill="#d64545" opacity="0.55" />
<rect x="408.46" y="363.99" width="2.28" height="18.16" fill="#d64545" opacity="0.55" />
<rect x="411.74" y="363.99" width="2.28" height="13.91" fill="#d64545" opacity="0.55" />
<rect x="415.01" y="363.99" width="2.28" height="10.78" fill="#d64545" opacity="0.55" />
<rect x="418.29" y="363.99" width="2.28" height="6.64" fill="#d64545" opacity="0.55" />
<rect x="421.56" y="363.99" width="2.28" height="3.45" fill="#d64545" opacity="0.55" />
<rect x="424.84" y="363.99" width="2.28" height="1.05" fill="#d64545" opacity="0.55" />
<rect x="428.11" y="363.99" width="2.28" height="0.33" fill="#d64545" opacity="0.55" />
<rect x="431.38" y="363.99" width="2.28" height="1.17" fill="#d64545" opacity="0.55" />
<rect x="434.66" y="363.99" width="2.28" height="1.48" fill="#d64545" opacity="0.55" />
<rect x="437.93" y="363.99" width="2.28" height="2.65" fill="#d64545" opacity="0.55" />
<rect x="441.21" y="363.99" width="2.28" height="2.82" fill="#d64545" opacity="0.55" />
<rect x="444.48" y="363.99" width="2.28" height="1.21" fill="#d64545" opacity="0.55" />
<rect x="447.75" y="363.99" width="2.28" height="0.72" fill="#d64545" opacity="0.55" />
<rect x="451.03" y="363.99" width="2.28" height="2.01" fill="#d64545" opacity="0.55" />
<rect x="454.30" y="363.99" width="2.28" height="4.16" fill="#d64545" opacity="0.55" />
<rect x="457.58" y="363.99" width="2.28" height="5.25" fill="#d64545" opacity="0.55" />
<rect x="460.85" y="363.99" width="2.28" height="6.13" fill="#d64545" opacity="0.55" />
<rect x="464.12" y="363.99" width="2.28" height="4.08" fill="#d64545" opacity="0.55" />
<rect x="467.40" y="363.99" width="2.28" height="2.28" fill="#d64545" opacity="0.55" />
<rect x="470.67" y="363.99" width="2.28" height="0.52" fill="#d64545" opacity="0.55" />
<rect x="473.95" y="361.81" width="2.28" height="2.18" fill="#2f9e44" opacity="0.55" />
<rect x="477.22" y="360.06" width="2.28" height="3.93" fill="#2f9e44" opacity="0.55" />
<rect x="480.50" y="359.06" width="2.28" height="4.94" fill="#2f9e44" opacity="0.55" />
<rect x="483.77" y="358.82" width="2.28" height="5.18" fill="#2f9e44" opacity="0.55" />
<rect x="487.04" y="358.71" width="2.28" height="5.28" fill="#2f9e44" opacity="0.55" />
<rect x="490.32" y="359.59" width="2.28" height="4.41" fill="#2f9e44" opacity="0.55" />
<rect x="493.59" y="362.09" width="2.28" height="1.90" fill="#2f9e44" opacity="0.55" />
<rect x="496.87" y="361.10" width="2.28" height="2.89" fill="#2f9e44" opacity="0.55" />
<rect x="500.14" y="357.45" width="2.28" height="6.54" fill="#2f9e44" opacity="0.55" />
<rect x="503.41" y="355.26" width="2.28" height="8.73" fill="#2f9e44" opacity="0.55" />
<rect x="506.69" y="352.47" width="2.28" height="11.53" fill="#2f9e44" opacity="0.55" />
<rect x="509.96" y="350.94" width="2.28" height="13.06" fill="#2f9e44" opacity="0.55" />
<rect x="513.24" y="351.11" width="2.28" height="12.88" fill="#2f9e44" opacity="0.55" />
<rect x="516.51" y="353.58" width="2.28" height="10.42" fill="#2f9e44" opacity="0.55" />
<rect x="519.79" y="358.21" width="2.28" height="5.79" fill="#2f9e44" opacity="0.55" />
<rect x="523.06" y="360.95" width="2.28" height="3.05" fill="#2f9e44" opacity="0.55" />
<rect x="526.33" y="362.60" width="2.28" height="1.39" fill="#2f9e44" opacity="0.55" />
<rect x="529.61" y="363.99" width="2.28" height="3.16" fill="#d64545" opacity="0.55" />
<rect x="532.88" y="363.99" width="2.28" height="5.87" fill="#d64545" opacity="0.55" />
<rect x="536.16" y="363.99" width="2.28" height="6.18" fill="#d64545" opacity="0.55" />
<rect x="539.43" y="363.99" width="2.28" height="4.24" fill="#d64545" opacity="0.55" />
<rect x="542.70" y="363.99" width="2.28" height="3.21" fill="#d64545" opacity="0.55" />
<rect x="545.98" y="363.98" width="2.28" height="0.02" fill="#2f9e44" opacity="0.55" />
<rect x="549.25" y="362.74" width="2.28" height="1.26" fill="#2f9e44" opacity="0.55" />
<rect x="552.53" y="362.66" width="2.28" height="1.34" fill="#2f9e44" opacity="0.55" />
<rect x="555.80" y="363.77" width="2.28" height="0.22" fill="#2f9e44" opacity="0.55" />
<rect x="559.07" y="363.12" width="2.28" height="0.87" fill="#2f9e44" opacity="0.55" />
<rect x="562.35" y="363.99" width="2.28" height="0.64" fill="#d64545" opacity="0.55" />
<rect x="565.62" y="363.99" width="2.28" height="3.94" fill="#d64545" opacity="0.55" />
<rect x="568.90" y="363.99" width="2.28" height="10.07" fill="#d64545" opacity="0.55" />
<rect x="572.17" y="363.99" width="2.28" height="18.46" fill="#d64545" opacity="0.55" />
<rect x="575.45" y="363.99" width="2.28" height="23.44" fill="#d64545" opacity="0.55" />
<rect x="578.72" y="363.99" width="2.28" height="26.03" fill="#d64545" opacity="0.55" />
<rect x="581.99" y="363.99" width="2.28" height="27.38" fill="#d64545" opacity="0.55" />
<rect x="585.27" y="363.99" width="2.28" height="28.47" fill="#d64545" opacity="0.55" />
<rect x="588.54" y="363.99" width="2.28" height="27.79" fill="#d64545" opacity="0.55" />
<rect x="591.82" y="363.99" width="2.28" height="24.70" fill="#d64545" opacity="0.55" />
<rect x="595.09" y="363.99" width="2.28" height="19.67" fill="#d64545" opacity="0.55" />
<rect x="598.36" y="363.99" width="2.28" height="15.11" fill="#d64545" opacity="0.55" />
<rect x="601.64" y="363.99" width="2.28" height="8.94" fill="#d64545" opacity="0.55" />
<rect x="604.91" y="363.99" width="2.28" height="6.14" fill="#d64545" opacity="0.55" />
<rect x="608.19" y="363.99" width="2.28" height="2.30" fill="#d64545" opacity="0.55" />
<rect x="611.46" y="362.50" width="2.28" height="1.50" fill="#2f9e44" opacity="0.55" />
<rect x="614.73" y="360.86" width="2.28" height="3.13" fill="#2f9e44" opacity="0.55" />
<rect x="618.01" y="358.74" width="2.28" height="5.26" fill="#2f9e44" opacity="0.55" />
<rect x="621.28" y="357.92" width="2.28" height="6.08" fill="#2f9e44" opacity="0.55" />
<rect x="624.56" y="357.18" width="2.28" height="6.81" fill="#2f9e44" opacity="0.55" />
<rect x="627.83" y="353.43" width="2.28" height="10.56" fill="#2f9e44" opacity="0.55" />
<rect x="631.11" y="350.42" width="2.28" height="13.57" fill="#2f9e44" opacity="0.55" />
<rect x="634.38" y="351.23" width="2.28" height="12.77" fill="#2f9e44" opacity="0.55" />
<rect x="637.65" y="351.99" width="2.28" height="12.00" fill="#2f9e44" opacity="0.55" />
<rect x="640.93" y="352.49" width="2.28" height="11.51" fill="#2f9e44" opacity="0.55" />
<rect x="644.20" y="353.83" width="2.28" height="10.16" fill="#2f9e44" opacity="0.55" />
<rect x="647.48" y="356.25" width="2.28" height="7.75" fill="#2f9e44" opacity="0.55" />
<rect x="650.75" y="358.71" width="2.28" height="5.28" fill="#2f9e44" opacity="0.55" />
<rect x="654.02" y="358.70" width="2.28" height="5.30" fill="#2f9e44" opacity="0.55" />
<rect x="657.30" y="357.39" width="2.28" height="6.61" fill="#2f9e44" opacity="0.55" />
<rect x="660.57" y="358.90" width="2.28" height="5.10" fill="#2f9e44" opacity="0.55" />
<rect x="663.85" y="360.41" width="2.28" height="3.59" fill="#2f9e44" opacity="0.55" />
<rect x="667.12" y="362.76" width="2.28" height="1.23" fill="#2f9e44" opacity="0.55" />
<rect x="670.40" y="362.23" width="2.28" height="1.76" fill="#2f9e44" opacity="0.55" />
<rect x="673.67" y="363.03" width="2.28" height="0.97" fill="#2f9e44" opacity="0.55" />
<rect x="676.94" y="361.63" width="2.28" height="2.36" fill="#2f9e44" opacity="0.55" />
<rect x="680.22" y="362.43" width="2.28" height="1.56" fill="#2f9e44" opacity="0.55" />
<rect x="683.49" y="363.99" width="2.28" height="2.21" fill="#d64545" opacity="0.55" />
<rect x="686.77" y="363.99" width="2.28" height="3.67" fill="#d64545" opacity="0.55" />
<rect x="690.04" y="363.99" width="2.28" height="1.29" fill="#d64545" opacity="0.55" />
<rect x="693.31" y="362.66" width="2.28" height="1.33" fill="#2f9e44" opacity="0.55" />
<rect x="696.59" y="361.27" width="2.28" height="2.73" fill="#2f9e44" opacity="0.55" />
<rect x="699.86" y="359.18" width="2.28" height="4.81" fill="#2f9e44" opacity="0.55" />
<rect x="703.14" y="357.61" width="2.28" height="6.39" fill="#2f9e44" opacity="0.55" />
<rect x="706.41" y="353.82" width="2.28" height="10.17" fill="#2f9e44" opacity="0.55" />
<rect x="709.68" y="346.90" width="2.28" height="17.10" fill="#2f9e44" opacity="0.55" />
<rect x="712.96" y="341.49" width="2.28" height="22.50" fill="#2f9e44" opacity="0.55" />
<rect x="716.23" y="338.68" width="2.28" height="25.31" fill="#2f9e44" opacity="0.55" />
<rect x="719.51" y="334.62" width="2.28" height="29.37" fill="#2f9e44" opacity="0.55" />
<rect x="722.78" y="333.96" width="2.28" height="30.04" fill="#2f9e44" opacity="0.55" />
<rect x="726.06" y="334.83" width="2.28" height="29.17" fill="#2f9e44" opacity="0.55" />
<rect x="729.33" y="336.82" width="2.28" height="27.18" fill="#2f9e44" opacity="0.55" />
<rect x="732.60" y="340.73" width="2.28" height="23.26" fill="#2f9e44" opacity="0.55" />
<rect x="735.88" y="344.13" width="2.28" height="19.87" fill="#2f9e44" opacity="0.55" />
<rect x="739.15" y="345.52" width="2.28" height="18.47" fill="#2f9e44" opacity="0.55" />
<rect x="742.43" y="347.94" width="2.28" height="16.05" fill="#2f9e44" opacity="0.55" />
<rect x="745.70" y="347.21" width="2.28" height="16.79" fill="#2f9e44" opacity="0.55" />
<rect x="748.97" y="349.32" width="2.28" height="14.67" fill="#2f9e44" opacity="0.55" />
<rect x="752.25" y="352.57" width="2.28" height="11.43" fill="#2f9e44" opacity="0.55" />
<rect x="755.52" y="354.45" width="2.28" height="9.54" fill="#2f9e44" opacity="0.55" />
<rect x="758.80" y="355.94" width="2.28" height="8.06" fill="#2f9e44" opacity="0.55" />
<rect x="762.07" y="356.64" width="2.28" height="7.35" fill="#2f9e44" opacity="0.55" />
<rect x="765.34" y="356.60" width="2.28" height="7.40" fill="#2f9e44" opacity="0.55" />
<rect x="768.62" y="357.02" width="2.28" height="6.97" fill="#2f9e44" opacity="0.55" />
<rect x="771.89" y="357.76" width="2.28" height="6.23" fill="#2f9e44" opacity="0.55" />
<rect x="775.17" y="360.80" width="2.28" height="3.19" fill="#2f9e44" opacity="0.55" />
<rect x="778.44" y="362.97" width="2.28" height="1.02" fill="#2f9e44" opacity="0.55" />
<rect x="781.72" y="363.99" width="2.28" height="2.60" fill="#d64545" opacity="0.55" />
<rect x="784.99" y="363.99" width="2.28" height="6.71" fill="#d64545" opacity="0.55" />
<rect x="788.26" y="363.99" width="2.28" height="7.90" fill="#d64545" opacity="0.55" />
<rect x="791.54" y="363.99" width="2.28" height="10.07" fill="#d64545" opacity="0.55" />
<rect x="794.81" y="363.99" width="2.28" height="12.80" fill="#d64545" opacity="0.55" />
<rect x="798.09" y="363.99" width="2.28" height="14.17" fill="#d64545" opacity="0.55" />
<rect x="801.36" y="363.99" width="2.28" height="17.11" fill="#d64545" opacity="0.55" />
<rect x="804.63" y="363.99" width="2.28" height="16.31" fill="#d64545" opacity="0.55" />
<rect x="807.91" y="363.99" width="2.28" height="14.08" fill="#d64545" opacity="0.55" />
<rect x="811.18" y="363.99" width="2.28" height="13.29" fill="#d64545" opacity="0.55" />
<rect x="814.46" y="363.99" width="2.28" height="12.96" fill="#d64545" opacity="0.55" />
<rect x="817.73" y="363.99" width="2.28" height="9.85" fill="#d64545" opacity="0.55" />
<rect x="821.01" y="363.99" width="2.28" height="6.92" fill="#d64545" opacity="0.55" />
<rect x="824.28" y="363.99" width="2.28" height="6.45" fill="#d64545" opacity="0.55" />
<rect x="827.55" y="363.99" width="2.28" height="9.98" fill="#d64545" opacity="0.55" />
<rect x="830.83" y="363.99" width="2.28" height="13.93" fill="#d64545" opacity="0.55" />
<rect x="834.10" y="363.99" width="2.28" height="18.61" fill="#d64545" opacity="0.55" />
<rect x="837.38" y="363.99" width="2.28" height="19.32" fill="#d64545" opacity="0.55" />
<rect x="840.65" y="363.99" width="2.28" height="22.11" fill="#d64545" opacity="0.55" />
<rect x="843.92" y="363.99" width="2.28" height="23.20" fill="#d64545" opacity="0.55" />
<rect x="847.20" y="363.99" width="2.28" height="23.21" fill="#d64545" opacity="0.55" />
<rect x="850.47" y="363.99" width="2.28" height="24.57" fill="#d64545" opacity="0.55" />
<rect x="853.75" y="363.99" width="2.28" height="22.73" fill="#d64545" opacity="0.55" />
<rect x="857.02" y="363.99" width="2.28" height="21.55" fill="#d64545" opacity="0.55" />
<rect x="860.29" y="363.99" width="2.28" height="16.58" fill="#d64545" opacity="0.55" />
<rect x="863.57" y="363.99" width="2.28" height="12.48" fill="#d64545" opacity="0.55" />
<rect x="866.84" y="363.99" width="2.28" height="12.53" fill="#d64545" opacity="0.55" />
<rect x="870.12" y="363.99" width="2.28" height="8.95" fill="#d64545" opacity="0.55" />
<rect x="873.39" y="363.99" width="2.28" height="10.71" fill="#d64545" opacity="0.55" />
<rect x="876.67" y="363.99" width="2.28" height="10.50" fill="#d64545" opacity="0.55" />
<rect x="879.94" y="363.99" width="2.28" height="9.50" fill="#d64545" opacity="0.55" />
<rect x="883.21" y="363.99" width="2.28" height="11.04" fill="#d64545" opacity="0.55" />
<rect x="886.49" y="363.99" width="2.28" height="8.84" fill="#d64545" opacity="0.55" />
<rect x="889.76" y="363.99" width="2.28" height="3.67" fill="#d64545" opacity="0.55" />
<rect x="893.04" y="363.99" width="2.28" height="0.64" fill="#d64545" opacity="0.55" />
<rect x="896.31" y="361.02" width="2.28" height="2.97" fill="#2f9e44" opacity="0.55" />
<rect x="899.58" y="358.20" width="2.28" height="5.79" fill="#2f9e44" opacity="0.55" />
<rect x="902.86" y="355.83" width="2.28" height="8.16" fill="#2f9e44" opacity="0.55" />
<polyline fill="none" stroke="#1f77b4" stroke-width="2" points="137.85,335.77 141.13,336.93 144.40,336.17 147.68,345.65 150.95,354.86 154.22,361.12 157.50,361.73 160.77,361.83 164.05,362.15 167.32,363.12 170.59,363.81 173.87,362.79 177.14,358.77 180.42,355.65 183.69,353.07 186.97,352.93 190.24,355.06 193.51,357.78 196.79,356.50 200.06,356.03 203.34,355.37 206.61,354.75 209.88,353.11 213.16,353.26 216.43,355.35 219.71,356.76 222.98,353.06 226.25,351.97 229.53,349.48 232.80,346.49 236.08,348.34 239.35,350.15 242.63,352.64 245.90,353.07 249.17,352.20 252.45,352.88 255.72,353.74 259.00,354.41 262.27,356.98 265.54,362.56 268.82,367.21 272.09,371.85 275.37,374.57 278.64,375.38 281.92,377.20 285.19,377.93 288.46,377.46 291.74,378.39 295.01,378.26 298.29,377.54 301.56,375.10 304.83,371.78 308.11,374.83 311.38,375.23 314.66,377.27 317.93,379.14 321.20,380.98 324.48,382.95 327.75,382.54 331.03,379.21 334.30,378.48 337.58,376.17 340.85,372.64 344.12,368.38 347.40,363.85 350.67,359.77 353.95,360.37 357.22,350.11 360.49,337.30 363.77,329.92 367.04,324.09 370.32,323.59 373.59,322.96 376.86,320.93 380.14,319.47 383.41,321.31 386.69,326.57 389.96,332.58 393.24,338.57 396.51,348.75 399.78,356.84 403.06,366.05 406.33,371.46 409.61,372.79 412.88,372.02 416.15,371.58 419.43,369.10 422.70,366.77 425.98,364.64 429.25,363.99 432.53,365.14 435.80,365.81 439.07,367.64 442.35,368.52 445.62,367.21 448.90,366.90 452.17,368.69 455.44,371.88 458.72,374.28 461.99,376.69 465.27,375.67 468.54,374.44 471.81,372.81 475.09,369.56 478.36,366.83 481.64,364.59 484.91,363.05 488.19,361.63 491.46,361.40 494.73,363.43 498.01,361.72 501.28,356.43 504.56,352.06 507.83,346.39 511.10,341.59 514.38,338.55 517.65,338.40 520.93,341.59 524.20,343.56 527.47,344.87 530.75,350.21 534.02,354.39 537.30,356.25 540.57,355.36 543.85,355.14 547.12,351.91 550.39,350.35 553.67,349.94 556.94,351.00 560.22,350.13 563.49,351.80 566.76,356.09 570.04,364.73 573.31,377.74 576.59,388.58 579.86,397.68 583.14,405.88 586.41,414.08 589.68,420.35 592.96,423.43 596.23,423.33 599.51,422.53 602.78,418.60 606.05,417.33 609.33,414.08 612.60,409.90 615.88,407.48 619.15,404.04 622.42,401.70 625.70,399.27 628.97,392.88 632.25,386.47 635.52,384.09 638.80,381.85 642.07,379.47 645.34,378.27 648.62,378.75 651.89,379.89 655.17,378.55 658.44,375.59 661.71,375.83 664.99,376.44 668.26,378.49 671.54,377.52 674.81,378.07 678.08,376.09 681.36,376.50 684.63,380.82 687.91,383.19 691.18,381.15 694.46,378.18 697.73,376.11 701.00,372.82 704.28,369.64 707.55,363.32 710.83,352.12 714.10,341.09 717.37,331.95 720.65,320.55 723.92,312.37 727.20,305.95 730.47,301.15 733.75,299.25 737.02,297.68 740.29,294.45 743.57,292.86 746.84,287.93 750.12,286.38 753.39,286.76 756.66,286.26 759.94,285.74 763.21,284.60 766.49,282.70 769.76,281.39 773.03,280.57 776.31,282.81 779.58,284.73 782.86,288.99 786.13,294.79 789.41,297.95 792.68,302.64 795.95,308.57 799.23,313.49 802.50,320.70 805.78,323.98 809.05,325.27 812.32,327.80 815.60,330.71 818.87,330.06 822.15,328.86 825.42,330.01 828.69,336.03 831.97,343.46 835.24,352.79 838.52,358.33 841.79,366.65 845.07,373.54 848.34,379.36 851.61,386.86 854.89,390.70 858.16,394.91 861.44,394.08 864.71,393.10 867.98,396.28 871.26,394.94 874.53,399.38 877.81,401.80 881.08,403.17 884.36,407.47 887.63,407.48 890.90,403.23 894.18,400.36 897.45,396.00 900.73,391.73 904.00,387.32" />
<polyline fill="none" stroke="#ff7f0e" stroke-width="2" points="137.85,335.77 141.13,336.01 144.40,336.04 147.68,337.96 150.95,341.34 154.22,345.30 157.50,348.58 160.77,351.23 164.05,353.41 167.32,355.36 170.59,357.05 173.87,358.20 177.14,358.31 180.42,357.78 183.69,356.84 186.97,356.05 190.24,355.86 193.51,356.24 196.79,356.29 200.06,356.24 203.34,356.07 206.61,355.80 209.88,355.26 213.16,354.86 216.43,354.96 219.71,355.32 222.98,354.87 226.25,354.29 229.53,353.33 232.80,351.96 236.08,351.24 239.35,351.02 242.63,351.34 245.90,351.69 249.17,351.79 252.45,352.01 255.72,352.36 259.00,352.77 262.27,353.61 265.54,355.40 268.82,357.76 272.09,360.58 275.37,363.38 278.64,365.78 281.92,368.06 285.19,370.04 288.46,371.52 291.74,372.89 295.01,373.97 298.29,374.68 301.56,374.77 304.83,374.17 308.11,374.30 311.38,374.49 314.66,375.05 317.93,375.86 321.20,376.89 324.48,378.10 327.75,378.99 331.03,379.03 334.30,378.92 337.58,378.37 340.85,377.22 344.12,375.46 347.40,373.14 350.67,370.46 353.95,368.44 357.22,364.78 360.49,359.28 363.77,353.41 367.04,347.55 370.32,342.75 373.59,338.80 376.86,335.22 380.14,332.07 383.41,329.92 386.69,329.25 389.96,329.92 393.24,331.65 396.51,335.07 399.78,339.42 403.06,344.75 406.33,350.09 409.61,354.63 412.88,358.11 416.15,360.80 419.43,362.46 422.70,363.32 425.98,363.59 429.25,363.67 432.53,363.96 435.80,364.33 439.07,364.99 442.35,365.70 445.62,366.00 448.90,366.18 452.17,366.68 455.44,367.72 458.72,369.03 461.99,370.57 465.27,371.59 468.54,372.16 471.81,372.29 475.09,371.74 478.36,370.76 481.64,369.52 484.91,368.23 488.19,366.91 491.46,365.81 494.73,365.33 498.01,364.61 501.28,362.97 504.56,360.79 507.83,357.91 511.10,354.65 514.38,351.43 517.65,348.82 520.93,347.37 524.20,346.61 527.47,346.26 530.75,347.05 534.02,348.52 537.30,350.07 540.57,351.13 543.85,351.93 547.12,351.92 550.39,351.61 553.67,351.28 556.94,351.22 560.22,351.00 563.49,351.16 566.76,352.15 570.04,354.66 573.31,359.28 576.59,365.14 579.86,371.65 583.14,378.49 586.41,385.61 589.68,392.56 592.96,398.73 596.23,403.65 599.51,407.43 602.78,409.66 606.05,411.20 609.33,411.77 612.60,411.40 615.88,410.62 619.15,409.30 622.42,407.78 625.70,406.08 628.97,403.44 632.25,400.04 635.52,396.85 638.80,393.85 642.07,390.97 645.34,388.43 648.62,386.50 651.89,385.18 655.17,383.85 658.44,382.20 661.71,380.93 664.99,380.03 668.26,379.72 671.54,379.28 674.81,379.04 678.08,378.45 681.36,378.06 684.63,378.61 687.91,379.53 691.18,379.85 694.46,379.52 697.73,378.84 701.00,377.63 704.28,376.03 707.55,373.49 710.83,369.22 714.10,363.59 717.37,357.26 720.65,349.92 723.92,342.41 727.20,335.12 730.47,328.32 733.75,322.51 737.02,317.54 740.29,312.92 743.57,308.91 746.84,304.71 750.12,301.05 753.39,298.19 756.66,295.80 759.94,293.79 763.21,291.95 766.49,290.10 769.76,288.36 773.03,286.80 776.31,286.00 779.58,285.75 782.86,286.40 786.13,288.08 789.41,290.05 792.68,292.57 795.95,295.77 799.23,299.31 802.50,303.59 805.78,307.67 809.05,311.19 812.32,314.51 815.60,317.75 818.87,320.21 822.15,321.94 825.42,323.55 828.69,326.05 831.97,329.53 835.24,334.18 838.52,339.01 841.79,344.54 845.07,350.34 848.34,356.14 851.61,362.29 854.89,367.97 858.16,373.36 861.44,377.50 864.71,380.62 867.98,383.75 871.26,385.99 874.53,388.67 877.81,391.29 881.08,393.67 884.36,396.43 887.63,398.64 890.90,399.56 894.18,399.72 897.45,398.97 900.73,397.53 904.00,395.48" />
<text x="754.00" y="290.00" font-size="13" font-family="Arial" fill="#1f77b4" text-anchor="start">MACD</text>
<text x="818.00" y="290.00" font-size="13" font-family="Arial" fill="#ff7f0e" text-anchor="start">Signal</text>
<line x1="56" y1="624" x2="904" y2="624" stroke="#cbd2d9" />
<line x1="56" y1="484" x2="56" y2="624" stroke="#cbd2d9" />
<text x="16.00" y="476.00" font-size="12" font-family="Arial" fill="#52606d" text-anchor="start">KD</text>
<line x1="56" y1="624.00" x2="904" y2="624.00" stroke="#edf2f7" />
<line x1="52" y1="624.00" x2="56" y2="624.00" stroke="#9fb3c8" />
<text x="48.00" y="628.00" font-size="11" font-family="Arial" fill="#52606d" text-anchor="end">-5.00</text>
<line x1="56" y1="577.33" x2="904" y2="577.33" stroke="#edf2f7" />
<line x1="52" y1="577.33" x2="56" y2="577.33" stroke="#9fb3c8" />
<text x="48.00" y="581.33" font-size="11" font-family="Arial" fill="#52606d" text-anchor="end">31.7</text>
<line x1="56" y1="530.67" x2="904" y2="530.67" stroke="#edf2f7" />
<line x1="52" y1="530.67" x2="56" y2="530.67" stroke="#9fb3c8" />
<text x="48.00" y="534.67" font-size="11" font-family="Arial" fill="#52606d" text-anchor="end">68.3</text>
<line x1="56" y1="484.00" x2="904" y2="484.00" stroke="#edf2f7" />
<line x1="52" y1="484.00" x2="56" y2="484.00" stroke="#9fb3c8" />
<text x="48.00" y="488.00" font-size="11" font-family="Arial" fill="#52606d" text-anchor="end">105</text>
<line x1="56.00" y1="624" x2="56.00" y2="628" stroke="#9fb3c8" />
<text x="56.00" y="642.00" font-size="11" font-family="Arial" fill="#52606d" text-anchor="middle">06/23</text>
<line x1="226.25" y1="624" x2="226.25" y2="628" stroke="#9fb3c8" />
<text x="226.25" y="642.00" font-size="11" font-family="Arial" fill="#52606d" text-anchor="middle">09/05</text>
<line x1="396.51" y1="624" x2="396.51" y2="628" stroke="#9fb3c8" />
<text x="396.51" y="642.00" font-size="11" font-family="Arial" fill="#52606d" text-anchor="middle">11/18</text>
<line x1="563.49" y1="624" x2="563.49" y2="628" stroke="#9fb3c8" />
<text x="563.49" y="642.00" font-size="11" font-family="Arial" fill="#52606d" text-anchor="middle">02/03</text>
<line x1="733.75" y1="624" x2="733.75" y2="628" stroke="#9fb3c8" />
<text x="733.75" y="642.00" font-size="11" font-family="Arial" fill="#52606d" text-anchor="middle">04/20</text>
<line x1="904.00" y1="624" x2="904.00" y2="628" stroke="#9fb3c8" />
<text x="904.00" y="642.00" font-size="11" font-family="Arial" fill="#52606d" text-anchor="middle">07/06</text>
<line x1="56" y1="592.18" x2="904" y2="592.18" stroke="#f0b429" stroke-dasharray="5 5" />
<text x="912.00" y="596.18" font-size="10" font-family="Arial" fill="#8d2b0b" text-anchor="start">20.0</text>
<line x1="56" y1="515.82" x2="904" y2="515.82" stroke="#f0b429" stroke-dasharray="5 5" />
<text x="912.00" y="519.82" font-size="10" font-family="Arial" fill="#8d2b0b" text-anchor="start">80.0</text>
<polyline fill="none" stroke="#2ca02c" stroke-width="2" points="82.19,534.31 85.47,522.29 88.74,527.52 92.02,521.18 95.29,522.31 98.56,519.71 101.84,514.73 105.11,511.02 108.39,523.72 111.66,528.87 114.93,521.50 118.21,512.78 121.48,515.73 124.76,516.55 128.03,519.39 131.31,523.72 134.58,522.45 137.85,527.45 141.13,534.02 144.40,528.90 147.68,554.99 150.95,575.49 154.22,585.60 157.50,577.88 160.77,571.35 164.05,567.74 167.32,567.68 170.59,567.35 173.87,546.45 177.14,531.92 180.42,524.17 183.69,518.30 186.97,526.12 190.24,543.19 193.51,559.82 196.79,551.46 200.06,550.28 203.34,547.08 206.61,543.67 209.88,529.76 213.16,529.52 216.43,542.07 219.71,548.19 222.98,529.17 226.25,527.22 229.53,519.67 232.80,511.42 236.08,525.64 239.35,536.06 242.63,547.50 245.90,550.18 249.17,546.45 252.45,552.18 255.72,557.31 259.00,559.89 262.27,574.15 265.54,586.93 268.82,595.20 272.09,599.01 275.37,597.99 278.64,590.98 281.92,592.43 285.19,590.86 288.46,581.91 291.74,582.50 295.01,569.99 298.29,556.01 301.56,540.12 304.83,525.17 308.11,554.71 311.38,561.59 314.66,570.00 317.93,577.83 321.20,586.03 324.48,591.61 327.75,586.86 331.03,570.02 334.30,568.84 337.58,550.38 340.85,533.89 344.12,522.87 347.40,516.68 350.67,512.81 353.95,527.30 357.22,522.83 360.49,516.65 363.77,517.63 367.04,518.25 370.32,527.37 373.59,531.82 376.86,530.07 380.14,528.08 383.41,545.89 386.69,567.73 389.96,581.20 393.24,586.42 396.51,596.64 399.78,598.32 403.06,604.27 406.33,602.08 409.61,593.89 412.88,580.29 416.15,567.55 419.43,544.84 422.70,530.63 425.98,525.32 429.25,525.42 432.53,531.32 435.80,541.65 439.07,558.34 442.35,569.50 445.62,565.13 448.90,566.81 452.17,580.44 455.44,589.17 458.72,593.75 461.99,600.67 465.27,584.91 468.54,572.21 471.81,559.74 475.09,537.76 478.36,523.98 481.64,514.44 484.91,509.67 488.19,504.86 491.46,510.76 494.73,539.29 498.01,532.44 501.28,523.58 504.56,520.19 507.83,510.48 511.10,504.66 514.38,504.22 517.65,510.69 520.93,525.43 524.20,534.72 527.47,544.63 530.75,565.37 534.02,574.27 537.30,574.38 540.57,565.18 543.85,559.11 547.12,536.66 550.39,530.91 553.67,529.68 556.94,533.79 560.22,529.10 563.49,539.21 566.76,562.24 570.04,577.13 573.31,581.69 576.59,586.15 579.86,590.52 583.14,596.08 586.41,601.49 589.68,605.57 592.96,604.49 596.23,596.57 599.51,581.23 602.78,557.76 606.05,554.10 609.33,540.15 612.60,526.14 615.88,524.20 619.15,517.25 622.42,521.76 625.70,524.61 628.97,515.22 632.25,510.54 635.52,520.94 638.80,527.21 642.07,529.41 645.34,534.83 648.62,545.81 651.89,557.51 655.17,561.12 658.44,553.22 661.71,560.74 664.99,569.21 668.26,581.84 671.54,574.30 674.81,577.86 678.08,563.57 681.36,569.59 684.63,585.09 687.91,591.14 691.18,572.17 694.46,553.74 697.73,543.81 701.00,528.32 704.28,516.24 707.55,515.24 710.83,507.13 714.10,503.69 717.37,499.88 720.65,499.54 723.92,499.79 727.20,499.09 730.47,501.24 733.75,506.78 737.02,509.39 740.29,504.71 743.57,506.76 746.84,502.25 750.12,505.35 753.39,510.38 756.66,509.64 759.94,516.34 763.21,517.30 766.49,514.99 769.76,515.12 773.03,513.63 776.31,519.87 779.58,521.17 782.86,529.03 786.13,540.27 789.41,546.08 792.68,557.71 795.95,569.88 799.23,575.84 802.50,581.56 805.78,571.44 809.05,556.31 812.32,546.46 815.60,542.70 818.87,526.64 822.15,515.64 825.42,516.13 828.69,536.80 831.97,559.27 835.24,575.10 838.52,579.74 841.79,592.01 845.07,598.04 848.34,599.89 851.61,605.18 854.89,600.79 858.16,598.79 861.44,582.63 864.71,571.20 867.98,579.40 871.26,564.94 874.53,581.22 877.81,588.25 881.08,592.54 884.36,598.32 887.63,592.12 890.90,575.00 894.18,566.76 897.45,555.36 900.73,546.05 904.00,537.24" />
<polyline fill="none" stroke="#d62728" stroke-width="2" points="82.19,547.44 85.47,539.05 88.74,535.21 92.02,530.53 95.29,527.79 98.56,525.10 101.84,521.64 105.11,518.10 108.39,519.97 111.66,522.94 114.93,522.46 118.21,519.23 121.48,518.07 124.76,517.56 128.03,518.17 131.31,520.02 134.58,520.83 137.85,523.04 141.13,526.70 144.40,527.43 147.68,536.62 150.95,549.58 154.22,561.58 157.50,567.02 160.77,568.46 164.05,568.22 167.32,568.04 170.59,567.81 173.87,560.69 177.14,551.10 180.42,542.12 183.69,534.18 186.97,531.49 190.24,535.39 193.51,543.54 196.79,546.18 200.06,547.54 203.34,547.39 206.61,546.15 209.88,540.69 213.16,536.96 216.43,538.67 219.71,541.84 222.98,537.62 226.25,534.15 229.53,529.32 232.80,523.36 236.08,524.12 239.35,528.10 242.63,534.57 245.90,539.77 249.17,542.00 252.45,545.39 255.72,549.37 259.00,552.87 262.27,559.96 265.54,568.95 268.82,577.70 272.09,584.81 275.37,589.20 278.64,589.79 281.92,590.67 285.19,590.73 288.46,587.79 291.74,586.03 295.01,580.68 298.29,572.46 301.56,561.68 304.83,549.51 308.11,551.24 311.38,554.69 314.66,559.79 317.93,565.80 321.20,572.55 324.48,578.90 327.75,581.55 331.03,577.71 334.30,574.75 337.58,566.63 340.85,555.72 344.12,544.77 347.40,535.41 350.67,527.88 353.95,527.69 357.22,526.07 360.49,522.93 363.77,521.16 367.04,520.19 370.32,522.58 373.59,525.66 376.86,527.13 380.14,527.45 383.41,533.59 386.69,544.97 389.96,557.05 393.24,566.84 396.51,576.77 399.78,583.95 403.06,590.73 406.33,594.51 409.61,594.30 412.88,589.63 416.15,582.27 419.43,569.79 422.70,556.74 425.98,546.27 429.25,539.32 432.53,536.65 435.80,538.32 439.07,544.99 442.35,553.16 445.62,557.15 448.90,560.37 452.17,567.06 455.44,574.43 458.72,580.87 461.99,587.47 465.27,586.62 468.54,581.82 471.81,574.46 475.09,562.23 478.36,549.48 481.64,537.80 484.91,528.42 488.19,520.57 491.46,517.30 494.73,524.63 498.01,527.23 501.28,526.01 504.56,524.07 507.83,519.54 511.10,514.58 514.38,511.13 517.65,510.98 520.93,515.80 524.20,522.10 527.47,529.61 530.75,541.53 534.02,552.45 537.30,559.76 540.57,561.57 543.85,560.75 547.12,552.72 550.39,545.45 553.67,540.19 556.94,538.06 560.22,535.07 563.49,536.45 566.76,545.05 570.04,555.74 573.31,564.39 576.59,571.64 579.86,577.94 583.14,583.99 586.41,589.82 589.68,595.07 592.96,598.21 596.23,597.67 599.51,592.19 602.78,580.71 606.05,571.84 609.33,561.28 612.60,549.56 615.88,541.11 619.15,533.16 622.42,529.36 625.70,527.77 628.97,523.59 632.25,519.24 635.52,519.81 638.80,522.27 642.07,524.65 645.34,528.04 648.62,533.97 651.89,541.81 655.17,548.25 658.44,549.91 661.71,553.52 664.99,558.75 668.26,566.45 671.54,569.06 674.81,572.00 678.08,569.19 681.36,569.32 684.63,574.58 687.91,580.10 691.18,577.45 694.46,569.55 697.73,560.97 701.00,550.09 704.28,538.80 707.55,530.95 710.83,523.01 714.10,516.57 717.37,511.01 720.65,507.19 723.92,504.72 727.20,502.84 730.47,502.31 733.75,503.80 737.02,505.66 740.29,505.35 743.57,505.82 746.84,504.63 750.12,504.87 753.39,506.71 756.66,507.68 759.94,510.57 763.21,512.81 766.49,513.54 769.76,514.07 773.03,513.92 776.31,515.90 779.58,517.66 782.86,521.45 786.13,527.72 789.41,533.84 792.68,541.80 795.95,551.16 799.23,559.39 802.50,566.78 805.78,568.33 809.05,564.32 812.32,558.37 815.60,553.15 818.87,544.31 822.15,534.75 825.42,528.55 828.69,531.30 831.97,540.62 835.24,552.12 838.52,561.32 841.79,571.55 845.07,580.38 848.34,586.88 851.61,592.98 854.89,595.59 858.16,596.65 861.44,591.98 864.71,585.05 867.98,583.17 871.26,577.09 874.53,578.47 877.81,581.73 881.08,585.33 884.36,589.66 887.63,590.48 890.90,585.32 894.18,579.13 897.45,571.21 900.73,562.82 904.00,554.29" />
<text x="824.00" y="502.00" font-size="13" font-family="Arial" fill="#2ca02c" text-anchor="start">K</text>
<text x="860.00" y="502.00" font-size="13" font-family="Arial" fill="#d62728" text-anchor="start">D</text>
</svg>