<svg xmlns="http://www.w3.org/2000/svg" width="960" height="680" viewBox="0 0 960 680"><rect width="100%" height="100%" fill="white" />
<text x="56.00" y="32.00" font-size="20" font-family="Arial" fill="#1f2933" text-anchor="start">ASML Technical Indicators</text>
<line x1="56" y1="220" x2="904" y2="220" stroke="#cbd2d9" />
<line x1="56" y1="58" x2="56" y2="220" stroke="#cbd2d9" />
<text x="16.00" y="50.00" font-size="12" font-family="Arial" fill="#52606d" text-anchor="start">RSI14</text>
<line x1="56" y1="220.00" x2="904" y2="220.00" stroke="#edf2f7" />
<line x1="52" y1="220.00" x2="56" y2="220.00" stroke="#9fb3c8" />
<text x="48.00" y="224.00" font-size="11" font-family="Arial" fill="#52606d" text-anchor="end">-5.00</text>
<line x1="56" y1="166.00" x2="904" y2="166.00" stroke="#edf2f7" />
<line x1="52" y1="166.00" x2="56" y2="166.00" stroke="#9fb3c8" />
<text x="48.00" y="170.00" font-size="11" font-family="Arial" fill="#52606d" text-anchor="end">31.7</text>
<line x1="56" y1="112.00" x2="904" y2="112.00" stroke="#edf2f7" />
<line x1="52" y1="112.00" x2="56" y2="112.00" stroke="#9fb3c8" />
<text x="48.00" y="116.00" font-size="11" font-family="Arial" fill="#52606d" text-anchor="end">68.3</text>
<line x1="56" y1="58.00" x2="904" y2="58.00" stroke="#edf2f7" />
<line x1="52" y1="58.00" x2="56" y2="58.00" stroke="#9fb3c8" />
<text x="48.00" y="62.00" font-size="11" font-family="Arial" fill="#52606d" text-anchor="end">105</text>
<line x1="56" y1="168.45" x2="904" y2="168.45" stroke="#f0b429" stroke-dasharray="5 5" />
<text x="912.00" y="172.45" font-size="10" font-family="Arial" fill="#8d2b0b" text-anchor="start">30.0</text>
<line x1="56" y1="109.55" x2="904" y2="109.55" stroke="#f0b429" stroke-dasharray="5 5" />
<text x="912.00" y="113.55" font-size="10" font-family="Arial" fill="#8d2b0b" text-anchor="start">70.0</text>
<polyline fill="none" stroke="#1f77b4" stroke-width="2" points="101.84,167.50 105.11,173.11 108.39,174.05 111.66,168.86 114.93,171.04 118.21,170.27 121.48,158.15 124.76,153.59 128.03,153.93 131.31,144.01 134.58,138.10 137.85,138.26 141.13,143.92 144.40,141.35 147.68,143.14 150.95,140.12 154.22,146.72 157.50,137.01 160.77,137.22 164.05,133.03 167.32,129.88 170.59,133.69 173.87,144.45 177.14,151.66 180.42,145.68 183.69,137.53 186.97,126.21 190.24,121.34 193.51,118.54 196.79,124.92 200.06,121.17 203.34,118.04 206.61,104.87 209.88,102.77 213.16,106.14 216.43,96.78 219.71,96.18 222.98,92.86 226.25,92.17 229.53,100.95 232.80,100.52 236.08,100.17 239.35,98.22 242.63,97.26 245.90,91.92 249.17,88.71 252.45,88.48 255.72,87.23 259.00,109.49 262.27,116.02 265.54,119.21 268.82,135.89 272.09,123.65 275.37,124.15 278.64,118.33 281.92,116.33 285.19,114.36 288.46,111.79 291.74,118.84 295.01,124.07 298.29,118.21 301.56,119.54 304.83,113.58 308.11,116.75 311.38,112.37 314.66,111.41 317.93,118.70 321.20,116.83 324.48,131.60 327.75,127.76 331.03,133.07 334.30,137.34 337.58,130.61 340.85,136.37 344.12,131.80 347.40,137.87 350.67,142.08 353.95,137.65 357.22,142.96 360.49,131.76 363.77,148.29 367.04,151.62 370.32,145.09 373.59,140.64 376.86,130.98 380.14,126.70 383.41,120.96 386.69,117.09 389.96,111.72 393.24,121.50 396.51,124.66 399.78,120.72 403.06,123.33 406.33,121.69 409.61,120.93 412.88,134.44 416.15,132.67 419.43,136.23 422.70,151.38 425.98,145.49 429.25,140.27 432.53,140.02 435.80,138.66 439.07,137.58 442.35,135.42 445.62,137.68 448.90,135.66 452.17,136.51 455.44,113.12 458.72,103.79 461.99,102.11 465.27,106.98 468.54,118.16 471.81,107.09 475.09,106.23 478.36,109.65 481.64,111.68 484.91,103.21 488.19,100.47 491.46,110.12 494.73,106.16 498.01,102.53 501.28,104.30 504.56,101.73 507.83,97.81 511.10,107.20 514.38,103.76 517.65,112.60 520.93,110.35 524.20,121.87 527.47,133.80 530.75,131.97 534.02,122.57 537.30,120.38 540.57,123.50 543.85,120.35 547.12,126.90 550.39,126.96 553.67,124.72 556.94,117.19 560.22,119.73 563.49,118.09 566.76,115.57 570.04,113.78 573.31,109.64 576.59,126.88 579.86,130.02 583.14,136.18 586.41,148.17 589.68,140.39 592.96,145.85 596.23,156.89 599.51,144.79 602.78,140.50 606.05,139.95 609.33,145.59 612.60,146.52 615.88,140.82 619.15,138.30 622.42,144.42 625.70,142.17 628.97,150.50 632.25,140.33 635.52,135.22 638.80,136.26 642.07,147.28 645.34,151.28 648.62,157.77 651.89,145.23 655.17,138.96 658.44,145.19 661.71,147.04 664.99,146.60 668.26,129.08 671.54,125.70 674.81,122.22 678.08,119.72 681.36,117.67 684.63,124.85 687.91,136.84 691.18,130.25 694.46,128.13 697.73,131.14 701.00,133.79 704.28,138.18 707.55,132.01 710.83,135.90 714.10,143.66 717.37,142.00 720.65,134.55 723.92,136.67 727.20,143.56 730.47,134.21 733.75,121.29 737.02,126.13 740.29,118.08 743.57,122.54 746.84,129.76 750.12,123.04 753.39,122.72 756.66,135.41 759.94,139.37 763.21,141.11 766.49,129.61 769.76,125.10 773.03,120.99 776.31,121.14 779.58,126.84 782.86,125.90 786.13,125.03 789.41,123.02 792.68,114.36 795.95,112.28 799.23,109.31 802.50,130.22 805.78,119.32 809.05,116.82 812.32,123.55 815.60,110.58 818.87,115.64 822.15,113.56 825.42,125.43 828.69,120.32 831.97,115.85 835.24,115.91 838.52,134.00 841.79,135.61 845.07,128.62 848.34,133.65 851.61,126.20 854.89,118.68 858.16,133.24 861.44,139.39 864.71,135.00 867.98,141.36 871.26,139.56 874.53,136.54 877.81,137.18 881.08,143.65 884.36,138.92 887.63,135.29 890.90,138.32 894.18,141.98 897.45,142.83 900.73,136.14 904.00,136.10" />
<text x="808.00" y="76.00" font-size="13" font-family="Arial" fill="#1f77b4" text-anchor="start">RSI14</text>
<line x1="56" y1="432" x2="904" y2="432" stroke="#cbd2d9" />
<line x1="56" y1="272" x2="56" y2="432" stroke="#cbd2d9" />
<text x="16.00" y="264.00" font-size="12" font-family="Arial" fill="#52606d" text-anchor="start">MACD</text>
<line x1="56" y1="432.00" x2="904" y2="432.00" stroke="#edf2f7" />
<line x1="52" y1="432.00" x2="56" y2="432.00" stroke="#9fb3c8" />
<text x="48.00" y="436.00" font-size="11" font-family="Arial" fill="#52606d" text-anchor="end">-31.3</text>
<line x1="56" y1="378.67" x2="904" y2="378.67" stroke="#edf2f7" />
<line x1="52" y1="378.67" x2="56" y2="378.67" stroke="#9fb3c8" />
<text x="48.00" y="382.67" font-size="11" font-family="Arial" fill="#52606d" text-anchor="end">13.9</text>
<line x1="56" y1="325.33" x2="904" y2="325.33" stroke="#edf2f7" />
<line x1="52" y1="325.33" x2="56" y2="325.33" stroke="#9fb3c8" />
<text x="48.00" y="329.33" font-size="11" font-family="Arial" fill="#52606d" text-anchor="end">59.1</text>
<line x1="56" y1="272.00" x2="904" y2="272.00" stroke="#edf2f7" />
<line x1="52" y1="272.00" x2="56" y2="272.00" stroke="#9fb3c8" />
<text x="48.00" y="276.00" font-size="11" font-family="Arial" fill="#52606d" text-anchor="end">104</text>
<line x1="56" y1="395.04" x2="904" y2="395.04" stroke="#9fb3c8" stroke-dasharray="4 4" />
<rect x="136.71" y="395.04" width="2.28" height="0.00" fill="#2f9e44" opacity="0.55" />
<rect x="139.99" y="393.52" width="2.28" height="1.52" fill="#2f9e44" opacity="0.55" />
<rect x="143.26" y="392.16" width="2.28" height="2.88" fill="#2f9e44" opacity="0.55" />
<rect x="146.53" y="391.69" width="2.28" height="3.35" fill="#2f9e44" opacity="0.55" />
<rect x="149.81" y="391.06" width="2.28" height="3.98" fill="#2f9e44" opacity="0.55" />
<rect x="153.08" y="391.88" width="2.28" height="3.16" fill="#2f9e44" opacity="0.55" />
<rect x="156.36" y="391.05" width="2.28" height="3.99" fill="#2f9e44" opacity="0.55" />
<rect x="159.63" y="390.73" width="2.28" height="4.31" fill="#2f9e44" opacity="0.55" />
<rect x="162.90" y="390.08" width="2.28" height="4.96" fill="#2f9e44" opacity="0.55" />
<rect x="166.18" y="389.40" width="2.28" height="5.64" fill="#2f9e44" opacity="0.55" />
<rect x="169.45" y="389.76" width="2.28" height="5.28" fill="#2f9e44" opacity="0.55" />
<rect x="172.73" y="391.82" width="2.28" height="3.21" fill="#2f9e44" opacity="0.55" />
<rect x="176.00" y="394.56" width="2.28" height="0.48" fill="#2f9e44" opacity="0.55" />
<rect x="179.28" y="395.04" width="2.28" height="0.46" fill="#d64545" opacity="0.55" />
<rect x="182.55" y="394.83" width="2.28" height="0.21" fill="#2f9e44" opacity="0.55" />
<rect x="185.82" y="392.32" width="2.28" height="2.72" fill="#2f9e44" opacity="0.55" />
<rect x="189.10" y="389.82" width="2.28" height="5.22" fill="#2f9e44" opacity="0.55" />
<rect x="192.37" y="387.90" width="2.28" height="7.14" fill="#2f9e44" opacity="0.55" />
<rect x="195.65" y="388.01" width="2.28" height="7.02" fill="#2f9e44" opacity="0.55" />
<rect x="198.92" y="387.70" width="2.28" height="7.34" fill="#2f9e44" opacity="0.55" />
<rect x="202.19" y="387.24" width="2.28" height="7.80" fill="#2f9e44" opacity="0.55" />
<rect x="205.47" y="383.46" width="2.28" height="11.58" fill="#2f9e44" opacity="0.55" />
<rect x="208.74" y="380.99" width="2.28" height="14.05" fill="#2f9e44" opacity="0.55" />
<rect x="212.02" y="380.80" width="2.28" height="14.24" fill="#2f9e44" opacity="0.55" />
<rect x="215.29" y="377.46" width="2.28" height="17.58" fill="#2f9e44" opacity="0.55" />
<rect x="218.57" y="376.19" width="2.28" height="18.85" fill="#2f9e44" opacity="0.55" />
<rect x="221.84" y="374.74" width="2.28" height="20.30" fill="#2f9e44" opacity="0.55" />
<rect x="225.11" y="374.78" width="2.28" height="20.26" fill="#2f9e44" opacity="0.55" />
<rect x="228.39" y="377.48" width="2.28" height="17.56" fill="#2f9e44" opacity="0.55" />
<rect x="231.66" y="380.31" width="2.28" height="14.73" fill="#2f9e44" opacity="0.55" />
<rect x="234.94" y="383.14" width="2.28" height="11.90" fill="#2f9e44" opacity="0.55" />
<rect x="238.21" y="385.18" width="2.28" height="9.86" fill="#2f9e44" opacity="0.55" />
<rect x="241.48" y="387.05" width="2.28" height="7.99" fill="#2f9e44" opacity="0.55" />
<rect x="244.76" y="386.52" width="2.28" height="8.52" fill="#2f9e44" opacity="0.55" />
<rect x="248.03" y="385.14" width="2.28" height="9.90" fill="#2f9e44" opacity="0.55" />
<rect x="251.31" y="385.20" width="2.28" height="9.84" fill="#2f9e44" opacity="0.55" />
<rect x="254.58" y="385.49" width="2.28" height="9.55" fill="#2f9e44" opacity="0.55" />
<rect x="257.85" y="389.84" width="2.28" height="5.20" fill="#2f9e44" opacity="0.55" />
<rect x="261.13" y="394.53" width="2.28" height="0.51" fill="#2f9e44" opacity="0.55" />
<rect x="264.40" y="395.04" width="2.28" height="3.61" fill="#d64545" opacity="0.55" />
<rect x="267.68" y="395.04" width="2.28" height="9.92" fill="#d64545" opacity="0.55" />
<rect x="270.95" y="395.04" width="2.28" height="10.30" fill="#d64545" opacity="0.55" />
<rect x="274.23" y="395.04" width="2.28" height="10.67" fill="#d64545" opacity="0.55" />
<rect x="277.50" y="395.04" width="2.28" height="8.87" fill="#d64545" opacity="0.55" />
<rect x="280.77" y="395.04" width="2.28" height="7.06" fill="#d64545" opacity="0.55" />
<rect x="284.05" y="395.04" width="2.28" height="5.32" fill="#d64545" opacity="0.55" />
<rect x="287.32" y="395.04" width="2.28" height="3.46" fill="#d64545" opacity="0.55" />
<rect x="290.60" y="395.04" width="2.28" height="3.87" fill="#d64545" opacity="0.55" />
<rect x="293.87" y="395.04" width="2.28" height="5.40" fill="#d64545" opacity="0.55" />
<rect x="297.14" y="395.04" width="2.28" height="4.66" fill="#d64545" opacity="0.55" />
<rect x="300.42" y="395.04" width="2.28" height="4.65" fill="#d64545" opacity="0.55" />
<rect x="303.69" y="395.04" width="2.28" height="2.81" fill="#d64545" opacity="0.55" />
<rect x="306.97" y="395.04" width="2.28" height="2.50" fill="#d64545" opacity="0.55" />
<rect x="310.24" y="395.04" width="2.28" height="1.07" fill="#d64545" opacity="0.55" />
<rect x="313.51" y="395.04" width="2.28" height="0.19" fill="#d64545" opacity="0.55" />
<rect x="316.79" y="395.04" width="2.28" height="1.26" fill="#d64545" opacity="0.55" />
<rect x="320.06" y="395.04" width="2.28" height="1.71" fill="#d64545" opacity="0.55" />
<rect x="323.34" y="395.04" width="2.28" height="5.06" fill="#d64545" opacity="0.55" />
<rect x="326.61" y="395.04" width="2.28" height="6.27" fill="#d64545" opacity="0.55" />
<rect x="329.89" y="395.04" width="2.28" height="8.17" fill="#d64545" opacity="0.55" />
<rect x="333.16" y="395.04" width="2.28" height="10.22" fill="#d64545" opacity="0.55" />
<rect x="336.43" y="395.04" width="2.28" height="9.67" fill="#d64545" opacity="0.55" />
<rect x="339.71" y="395.04" width="2.28" height="10.37" fill="#d64545" opacity="0.55" />
<rect x="342.98" y="395.04" width="2.28" height="9.44" fill="#d64545" opacity="0.55" />
<rect x="346.26" y="395.04" width="2.28" height="9.94" fill="#d64545" opacity="0.55" />
<rect x="349.53" y="395.04" width="2.28" height="10.96" fill="#d64545" opacity="0.55" />
<rect x="352.80" y="395.04" width="2.28" height="10.27" fill="#d64545" opacity="0.55" />
<rect x="356.08" y="395.04" width="2.28" height="10.69" fill="#d64545" opacity="0.55" />
<rect x="359.35" y="395.04" width="2.28" height="7.93" fill="#d64545" opacity="0.55" />
<rect x="362.63" y="395.04" width="2.28" height="10.32" fill="#d64545" opacity="0.55" />
<rect x="365.90" y="395.04" width="2.28" height="12.50" fill="#d64545" opacity="0.55" />
<rect x="369.18" y="395.04" width="2.28" height="11.72" fill="#d64545" opacity="0.55" />
<rect x="372.45" y="395.04" width="2.28" height="9.54" fill="#d64545" opacity="0.55" />
<rect x="375.72" y="395.04" width="2.28" height="4.91" fill="#d64545" opacity="0.55" />
<rect x="379.00" y="395.04" width="2.28" height="0.36" fill="#d64545" opacity="0.55" />
<rect x="382.27" y="390.48" width="2.28" height="4.55" fill="#2f9e44" opacity="0.55" />
<rect x="385.55" y="386.14" width="2.28" height="8.90" fill="#2f9e44" opacity="0.55" />
<rect x="388.82" y="381.55" width="2.28" height="13.49" fill="#2f9e44" opacity="0.55" />
<rect x="392.09" y="381.80" width="2.28" height="13.24" fill="#2f9e44" opacity="0.55" />
<rect x="395.37" y="383.59" width="2.28" height="11.45" fill="#2f9e44" opacity="0.55" />
<rect x="398.64" y="383.95" width="2.28" height="11.08" fill="#2f9e44" opacity="0.55" />
<rect x="401.92" y="385.58" width="2.28" height="9.46" fill="#2f9e44" opacity="0.55" />
<rect x="405.19" y="386.71" width="2.28" height="8.33" fill="#2f9e44" opacity="0.55" />
<rect x="408.46" y="387.82" width="2.28" height="7.22" fill="#2f9e44" opacity="0.55" />
<rect x="411.74" y="392.30" width="2.28" height="2.74" fill="#2f9e44" opacity="0.55" />
<rect x="415.01" y="394.98" width="2.28" height="0.06" fill="#2f9e44" opacity="0.55" />
<rect x="418.29" y="395.04" width="2.28" height="2.76" fill="#d64545" opacity="0.55" />
<rect x="421.56" y="395.04" width="2.28" height="9.18" fill="#d64545" opacity="0.55" />
<rect x="424.84" y="395.04" width="2.28" height="11.38" fill="#d64545" opacity="0.55" />
<rect x="428.11" y="395.04" width="2.28" height="10.88" fill="#d64545" opacity="0.55" />
<rect x="431.38" y="395.04" width="2.28" height="10.11" fill="#d64545" opacity="0.55" />
<rect x="434.66" y="395.04" width="2.28" height="8.88" fill="#d64545" opacity="0.55" />
<rect x="437.93" y="395.04" width="2.28" height="7.50" fill="#d64545" opacity="0.55" />
<rect x="441.21" y="395.04" width="2.28" height="5.82" fill="#d64545" opacity="0.55" />
<rect x="444.48" y="395.04" width="2.28" height="5.06" fill="#d64545" opacity="0.55" />
<rect x="447.75" y="395.04" width="2.28" height="3.96" fill="#d64545" opacity="0.55" />
<rect x="451.03" y="395.04" width="2.28" height="3.31" fill="#d64545" opacity="0.55" />
<rect x="454.30" y="390.79" width="2.28" height="4.24" fill="#2f9e44" opacity="0.55" />
<rect x="457.58" y="381.53" width="2.28" height="13.50" fill="#2f9e44" opacity="0.55" />
<rect x="460.85" y="375.50" width="2.28" height="19.54" fill="#2f9e44" opacity="0.55" />
<rect x="464.12" y="373.93" width="2.28" height="21.11" fill="#2f9e44" opacity="0.55" />
<rect x="467.40" y="376.83" width="2.28" height="18.21" fill="#2f9e44" opacity="0.55" />
<rect x="470.67" y="373.87" width="2.28" height="21.17" fill="#2f9e44" opacity="0.55" />
<rect x="473.95" y="372.88" width="2.28" height="22.16" fill="#2f9e44" opacity="0.55" />
<rect x="477.22" y="374.59" width="2.28" height="20.45" fill="#2f9e44" opacity="0.55" />
<rect x="480.50" y="377.62" width="2.28" height="17.42" fill="#2f9e44" opacity="0.55" />
<rect x="483.77" y="375.77" width="2.28" height="19.27" fill="#2f9e44" opacity="0.55" />
<rect x="487.04" y="374.07" width="2.28" height="20.97" fill="#2f9e44" opacity="0.55" />
<rect x="490.32" y="377.07" width="2.28" height="17.97" fill="#2f9e44" opacity="0.55" />
<rect x="493.59" y="377.91" width="2.28" height="17.13" fill="#2f9e44" opacity="0.55" />
<rect x="496.87" y="377.32" width="2.28" height="17.72" fill="#2f9e44" opacity="0.55" />
<rect x="500.14" y="378.97" width="2.28" height="16.07" fill="#2f9e44" opacity="0.55" />
<rect x="503.41" y="379.70" width="2.28" height="15.34" fill="#2f9e44" opacity="0.55" />
<rect x="506.69" y="378.59" width="2.28" height="16.45" fill="#2f9e44" opacity="0.55" />
<rect x="509.96" y="381.89" width="2.28" height="13.15" fill="#2f9e44" opacity="0.55" />
<rect x="513.24" y="383.01" width="2.28" height="12.03" fill="#2f9e44" opacity="0.55" />
<rect x="516.51" y="387.57" width="2.28" height="7.47" fill="#2f9e44" opacity="0.55" />
<rect x="519.79" y="390.27" width="2.28" height="4.77" fill="#2f9e44" opacity="0.55" />
<rect x="523.06" y="395.04" width="2.28" height="1.43" fill="#d64545" opacity="0.55" />
<rect x="526.33" y="395.04" width="2.28" height="10.33" fill="#d64545" opacity="0.55" />
<rect x="529.61" y="395.04" width="2.28" height="15.36" fill="#d64545" opacity="0.55" />
<rect x="532.88" y="395.04" width="2.28" height="13.76" fill="#d64545" opacity="0.55" />
<rect x="536.16" y="395.04" width="2.28" height="11.55" fill="#d64545" opacity="0.55" />
<rect x="539.43" y="395.04" width="2.28" height="11.34" fill="#d64545" opacity="0.55" />
<rect x="542.70" y="395.04" width="2.28" height="9.65" fill="#d64545" opacity="0.55" />
<rect x="545.98" y="395.04" width="2.28" height="10.91" fill="#d64545" opacity="0.55" />
<rect x="549.25" y="395.04" width="2.28" height="11.81" fill="#d64545" opacity="0.55" />
<rect x="552.53" y="395.04" width="2.28" height="11.38" fill="#d64545" opacity="0.55" />
<rect x="555.80" y="395.04" width="2.28" height="7.43" fill="#d64545" opacity="0.55" />
<rect x="559.07" y="395.04" width="2.28" height="5.88" fill="#d64545" opacity="0.55" />
<rect x="562.35" y="395.04" width="2.28" height="4.36" fill="#d64545" opacity="0.55" />
<rect x="565.62" y="395.04" width="2.28" height="2.51" fill="#d64545" opacity="0.55" />
<rect x="568.90" y="395.04" width="2.28" height="0.88" fill="#d64545" opacity="0.55" />
<rect x="572.17" y="393.24" width="2.28" height="1.80" fill="#2f9e44" opacity="0.55" />
<rect x="575.45" y="395.04" width="2.28" height="1.87" fill="#d64545" opacity="0.55" />
<rect x="578.72" y="395.04" width="2.28" height="5.62" fill="#d64545" opacity="0.55" />
<rect x="581.99" y="395.04" width="2.28" height="10.24" fill="#d64545" opacity="0.55" />
<rect x="585.27" y="395.04" width="2.28" height="17.82" fill="#d64545" opacity="0.55" />
<rect x="588.54" y="395.04" width="2.28" height="19.21" fill="#d64545" opacity="0.55" />
<rect x="591.82" y="395.04" width="2.28" height="21.84" fill="#d64545" opacity="0.55" />
<rect x="595.09" y="395.04" width="2.28" height="28.39" fill="#d64545" opacity="0.55" />
<rect x="598.36" y="395.04" width="2.28" height="26.47" fill="#d64545" opacity="0.55" />
<rect x="601.64" y="395.04" width="2.28" height="22.17" fill="#d64545" opacity="0.55" />
<rect x="604.91" y="395.04" width="2.28" height="18.27" fill="#d64545" opacity="0.55" />
<rect x="608.19" y="395.04" width="2.28" height="17.67" fill="#d64545" opacity="0.55" />
<rect x="611.46" y="395.04" width="2.28" height="16.93" fill="#d64545" opacity="0.55" />
<rect x="614.73" y="395.04" width="2.28" height="13.41" fill="#d64545" opacity="0.55" />
<rect x="618.01" y="395.04" width="2.28" height="9.53" fill="#d64545" opacity="0.55" />
<rect x="621.28" y="395.04" width="2.28" height="9.18" fill="#d64545" opacity="0.55" />
<rect x="624.56" y="395.04" width="2.28" height="7.65" fill="#d64545" opacity="0.55" />
<rect x="627.83" y="395.04" width="2.28" height="9.97" fill="#d64545" opacity="0.55" />
<rect x="631.11" y="395.04" width="2.28" height="6.93" fill="#d64545" opacity="0.55" />
<rect x="634.38" y="395.04" width="2.28" height="2.38" fill="#d64545" opacity="0.55" />
<rect x="637.65" y="394.80" width="2.28" height="0.24" fill="#2f9e44" opacity="0.55" />
<rect x="640.93" y="395.04" width="2.28" height="2.92" fill="#d64545" opacity="0.55" />
<rect x="644.20" y="395.04" width="2.28" height="6.71" fill="#d64545" opacity="0.55" />
<rect x="647.48" y="395.04" width="2.28" height="12.31" fill="#d64545" opacity="0.55" />
<rect x="650.75" y="395.04" width="2.28" height="10.05" fill="#d64545" opacity="0.55" />
<rect x="654.02" y="395.04" width="2.28" height="5.05" fill="#d64545" opacity="0.55" />
<rect x="657.30" y="395.04" width="2.28" height="4.71" fill="#d64545" opacity="0.55" />
<rect x="660.57" y="395.04" width="2.28" height="5.09" fill="#d64545" opacity="0.55" />
<rect x="663.85" y="395.04" width="2.28" height="4.73" fill="#d64545" opacity="0.55" />
<rect x="667.12" y="390.50" width="2.28" height="4.53" fill="#2f9e44" opacity="0.55" />
<rect x="670.40" y="382.70" width="2.28" height="12.33" fill="#2f9e44" opacity="0.55" />
<rect x="673.67" y="376.10" width="2.28" height="18.94" fill="#2f9e44" opacity="0.55" />
<rect x="676.94" y="371.22" width="2.28" height="23.82" fill="#2f9e44" opacity="0.55" />
<rect x="680.22" y="368.02" width="2.28" height="27.02" fill="#2f9e44" opacity="0.55" />
<rect x="683.49" y="370.19" width="2.28" height="24.84" fill="#2f9e44" opacity="0.55" />
<rect x="686.77" y="378.28" width="2.28" height="16.76" fill="#2f9e44" opacity="0.55" />
<rect x="690.04" y="380.66" width="2.28" height="14.38" fill="#2f9e44" opacity="0.55" />
<rect x="693.31" y="381.81" width="2.28" height="13.23" fill="#2f9e44" opacity="0.55" />
<rect x="696.59" y="384.73" width="2.28" height="10.31" fill="#2f9e44" opacity="0.55" />
<rect x="699.86" y="388.45" width="2.28" height="6.59" fill="#2f9e44" opacity="0.55" />
<rect x="703.14" y="393.30" width="2.28" height="1.74" fill="#2f9e44" opacity="0.55" />
<rect x="706.41" y="393.66" width="2.28" height="1.38" fill="#2f9e44" opacity="0.55" />
<rect x="709.68" y="395.04" width="2.28" height="0.81" fill="#d64545" opacity="0.55" />
<rect x="712.96" y="395.04" width="2.28" height="5.97" fill="#d64545" opacity="0.55" />
<rect x="716.23" y="395.04" width="2.28" height="8.39" fill="#d64545" opacity="0.55" />
<rect x="719.51" y="395.04" width="2.28" height="6.28" fill="#d64545" opacity="0.55" />
<rect x="722.78" y="395.04" width="2.28" height="5.71" fill="#d64545" opacity="0.55" />
<rect x="726.06" y="395.04" width="2.28" height="8.30" fill="#d64545" opacity="0.55" />
<rect x="729.33" y="395.04" width="2.28" height="5.36" fill="#d64545" opacity="0.55" />
<rect x="732.60" y="390.75" width="2.28" height="4.29" fill="#2f9e44" opacity="0.55" />
<rect x="735.88" y="387.19" width="2.28" height="7.85" fill="#2f9e44" opacity="0.55" />
<rect x="739.15" y="379.86" width="2.28" height="15.18" fill="#2f9e44" opacity="0.55" />
<rect x="742.43" y="378.23" width="2.28" height="16.81" fill="#2f9e44" opacity="0.55" />
<rect x="745.70" y="381.71" width="2.28" height="13.33" fill="#2f9e44" opacity="0.55" />
<rect x="748.97" y="380.29" width="2.28" height="14.75" fill="#2f9e44" opacity="0.55" />
<rect x="752.25" y="380.25" width="2.28" height="14.79" fill="#2f9e44" opacity="0.55" />
<rect x="755.52" y="387.57" width="2.28" height="7.47" fill="#2f9e44" opacity="0.55" />
<rect x="758.80" y="395.04" width="2.28" height="0.07" fill="#d64545" opacity="0.55" />
<rect x="762.07" y="395.04" width="2.28" height="6.12" fill="#d64545" opacity="0.55" />
<rect x="765.34" y="395.04" width="2.28" height="3.11" fill="#d64545" opacity="0.55" />
<rect x="768.62" y="393.27" width="2.28" height="1.77" fill="#2f9e44" opacity="0.55" />
<rect x="771.89" y="387.56" width="2.28" height="7.48" fill="#2f9e44" opacity="0.55" />
<rect x="775.17" y="384.79" width="2.28" height="10.25" fill="#2f9e44" opacity="0.55" />
<rect x="778.44" y="386.54" width="2.28" height="8.50" fill="#2f9e44" opacity="0.55" />
<rect x="781.72" y="387.88" width="2.28" height="7.15" fill="#2f9e44" opacity="0.55" />
<rect x="784.99" y="388.99" width="2.28" height="6.05" fill="#2f9e44" opacity="0.55" />
<rect x="788.26" y="389.23" width="2.28" height="5.81" fill="#2f9e44" opacity="0.55" />
<rect x="791.54" y="384.34" width="2.28" height="10.70" fill="#2f9e44" opacity="0.55" />
<rect x="794.81" y="380.72" width="2.28" height="14.32" fill="#2f9e44" opacity="0.55" />
<rect x="798.09" y="377.35" width="2.28" height="17.69" fill="#2f9e44" opacity="0.55" />
<rect x="801.36" y="385.42" width="2.28" height="9.62" fill="#2f9e44" opacity="0.55" />
<rect x="804.63" y="383.46" width="2.28" height="11.58" fill="#2f9e44" opacity="0.55" />
<rect x="807.91" y="381.26" width="2.28" height="13.78" fill="#2f9e44" opacity="0.55" />
<rect x="811.18" y="384.50" width="2.28" height="10.54" fill="#2f9e44" opacity="0.55" />
<rect x="814.46" y="375.27" width="2.28" height="19.77" fill="#2f9e44" opacity="0.55" />
<rect x="817.73" y="373.92" width="2.28" height="21.12" fill="#2f9e44" opacity="0.55" />
<rect x="821.01" y="372.71" width="2.28" height="22.32" fill="#2f9e44" opacity="0.55" />
<rect x="824.28" y="380.60" width="2.28" height="14.44" fill="#2f9e44" opacity="0.55" />
<rect x="827.55" y="382.30" width="2.28" height="12.74" fill="#2f9e44" opacity="0.55" />
<rect x="830.83" y="380.22" width="2.28" height="14.82" fill="#2f9e44" opacity="0.55" />
<rect x="834.10" y="380.61" width="2.28" height="14.43" fill="#2f9e44" opacity="0.55" />
<rect x="837.38" y="393.87" width="2.28" height="1.17" fill="#2f9e44" opacity="0.55" />
<rect x="840.65" y="395.04" width="2.28" height="9.30" fill="#d64545" opacity="0.55" />
<rect x="843.92" y="395.04" width="2.28" height="10.37" fill="#d64545" opacity="0.55" />
<rect x="847.20" y="395.04" width="2.28" height="14.87" fill="#d64545" opacity="0.55" />
<rect x="850.47" y="395.04" width="2.28" height="11.08" fill="#d64545" opacity="0.55" />
<rect x="853.75" y="395.04" width="2.28" height="0.93" fill="#d64545" opacity="0.55" />
<rect x="857.02" y="395.04" width="2.28" height="6.35" fill="#d64545" opacity="0.55" />
<rect x="860.29" y="395.04" width="2.28" height="15.76" fill="#d64545" opacity="0.55" />
<rect x="863.57" y="395.04" width="2.28" height="17.40" fill="#d64545" opacity="0.55" />
<rect x="866.84" y="395.04" width="2.28" height="24.08" fill="#d64545" opacity="0.55" />
<rect x="870.12" y="395.04" width="2.28" height="26.07" fill="#d64545" opacity="0.55" />
<rect x="873.39" y="395.04" width="2.28" height="23.87" fill="#d64545" opacity="0.55" />
<rect x="876.67" y="395.04" width="2.28" height="22.31" fill="#d64545" opacity="0.55" />
<rect x="879.94" y="395.04" width="2.28" height="26.03" fill="#d64545" opacity="0.55" />
<rect x="883.21" y="395.04" width="2.28" height="23.70" fill="#d64545" opacity="0.55" />
<rect x="886.49" y="395.04" width="2.28" height="18.40" fill="#d64545" opacity="0.55" />
<rect x="889.76" y="395.04" width="2.28" height="16.75" fill="#d64545" opacity="0.55" />
<rect x="893.04" y="395.04" width="2.28" height="17.95" fill="#d64545" opacity="0.55" />
<rect x="896.31" y="395.04" width="2.28" height="18.67" fill="#d64545" opacity="0.55" />
<rect x="899.58" y="395.04" width="2.28" height="13.65" fill="#d64545" opacity="0.55" />
<rect x="902.86" y="395.04" width="2.28" height="9.96" fill="#d64545" opacity="0.55" />
<polyline fill="none" stroke="#1f77b4" stroke-width="2" points="137.85,403.96 141.13,402.05 144.40,399.98 147.68,398.67 150.95,397.05 154.22,397.07 157.50,395.25 160.77,393.85 164.05,391.96 167.32,389.87 170.59,388.90 173.87,390.17 177.14,392.79 180.42,393.84 183.69,393.12 186.97,389.93 190.24,386.13 193.51,382.42 196.79,380.78 200.06,378.62 203.34,376.21 206.61,369.54 209.88,363.56 213.16,359.81 216.43,352.07 219.71,346.09 222.98,339.56 226.25,334.54 229.53,332.85 232.80,332.00 236.08,331.86 239.35,331.43 242.63,331.30 245.90,328.64 249.17,324.79 252.45,322.38 255.72,320.29 259.00,323.34 262.27,327.90 265.54,332.92 268.82,341.71 272.09,344.67 275.37,347.70 278.64,348.13 281.92,348.07 285.19,347.66 288.46,346.67 291.74,348.05 295.01,350.93 298.29,351.36 301.56,352.51 304.83,351.37 308.11,351.68 311.38,350.52 314.66,349.69 317.93,351.07 321.20,351.95 324.48,356.57 327.75,359.34 331.03,363.29 334.30,367.90 337.58,369.76 340.85,373.05 344.12,374.48 347.40,377.47 350.67,381.22 353.95,383.10 357.22,386.20 360.49,385.42 363.77,390.39 367.04,395.69 370.32,397.84 373.59,398.06 376.86,394.65 380.14,390.19 383.41,384.13 386.69,377.56 389.96,369.60 393.24,366.54 396.51,365.47 399.78,363.06 403.06,362.32 406.33,361.37 409.61,360.68 412.88,364.47 416.15,367.13 419.43,370.64 422.70,379.35 425.98,384.40 429.25,386.63 432.53,388.38 435.80,389.37 439.07,389.87 442.35,389.63 445.62,390.15 448.90,390.03 452.17,390.21 455.44,381.60 458.72,368.96 461.99,358.04 465.27,351.20 468.54,349.54 471.81,341.29 475.09,334.76 478.36,331.36 481.64,330.03 484.91,323.36 488.19,316.43 491.46,314.93 494.73,311.49 498.01,306.47 501.28,304.10 504.56,301.00 507.83,295.78 511.10,295.79 514.38,293.90 517.65,296.59 520.93,298.10 524.20,304.65 527.47,316.14 530.75,325.00 534.02,326.85 537.30,327.53 540.57,330.15 543.85,330.87 547.12,334.87 550.39,338.71 553.67,341.12 556.94,339.03 560.22,338.95 563.49,338.53 566.76,337.30 570.04,335.89 573.31,332.76 576.59,336.90 579.86,342.06 583.14,349.24 586.41,361.27 589.68,367.46 592.96,375.55 596.23,389.20 599.51,393.89 602.78,395.14 606.05,395.81 609.33,399.62 612.60,403.11 615.88,402.95 619.15,401.45 622.42,403.40 625.70,403.78 628.97,408.59 632.25,407.28 635.52,403.32 638.80,400.64 642.07,404.53 645.34,410.00 648.62,418.68 651.89,418.93 655.17,415.19 658.44,416.03 661.71,417.69 664.99,418.50 668.26,408.11 671.54,397.22 674.81,385.89 678.08,375.05 681.36,365.09 684.63,361.06 687.91,364.95 691.18,363.74 694.46,361.58 697.73,361.92 701.00,364.00 704.28,368.41 707.55,368.42 710.83,370.81 714.10,377.47 717.37,381.99 720.65,381.45 723.92,382.31 727.20,386.97 730.47,385.38 733.75,374.65 737.02,369.13 740.29,358.01 743.57,352.18 746.84,352.32 750.12,347.21 753.39,343.48 756.66,348.93 759.94,356.49 763.21,364.07 766.49,361.83 769.76,356.51 773.03,348.93 776.31,343.60 779.58,343.23 782.86,342.78 786.13,342.37 789.41,341.16 792.68,333.60 795.95,326.39 799.23,318.61 802.50,324.27 805.78,319.41 809.05,313.77 812.32,314.37 815.60,300.20 818.87,293.57 822.15,286.78 825.42,291.06 828.69,289.58 831.97,283.79 835.24,280.57 838.52,293.54 841.79,306.34 845.07,310.00 848.34,318.22 851.61,317.20 854.89,307.28 858.16,314.29 861.44,327.64 864.71,333.62 867.98,346.33 871.26,354.83 874.53,358.60 877.81,362.62 881.08,372.84 884.36,376.44 887.63,375.74 890.90,378.27 894.18,383.96 897.45,389.35 900.73,387.75 904.00,386.55" />
<polyline fill="none" stroke="#ff7f0e" stroke-width="2" points="137.85,403.96 141.13,403.58 144.40,402.86 147.68,402.02 150.95,401.02 154.22,400.23 157.50,399.24 160.77,398.16 164.05,396.92 167.32,395.51 170.59,394.19 173.87,393.38 177.14,393.26 180.42,393.38 183.69,393.33 186.97,392.65 190.24,391.34 193.51,389.56 196.79,387.80 200.06,385.97 203.34,384.02 206.61,381.12 209.88,377.61 213.16,374.05 216.43,369.65 219.71,364.94 222.98,359.86 226.25,354.80 229.53,350.41 232.80,346.73 236.08,343.75 239.35,341.29 242.63,339.29 245.90,337.16 249.17,334.69 252.45,332.23 255.72,329.84 259.00,328.54 262.27,328.41 265.54,329.31 268.82,331.79 272.09,334.37 275.37,337.04 278.64,339.25 281.92,341.02 285.19,342.35 288.46,343.21 291.74,344.18 295.01,345.53 298.29,346.70 301.56,347.86 304.83,348.56 308.11,349.19 311.38,349.45 314.66,349.50 317.93,349.82 321.20,350.24 324.48,351.51 327.75,353.07 331.03,355.12 334.30,357.67 337.58,360.09 340.85,362.68 344.12,365.04 347.40,367.53 350.67,370.27 353.95,372.83 357.22,375.51 360.49,377.49 363.77,380.07 367.04,383.19 370.32,386.12 373.59,388.51 376.86,389.74 380.14,389.83 383.41,388.69 386.69,386.46 389.96,383.09 393.24,379.78 396.51,376.92 399.78,374.15 403.06,371.78 406.33,369.70 409.61,367.90 412.88,367.21 416.15,367.19 419.43,367.88 422.70,370.18 425.98,373.02 429.25,375.74 432.53,378.27 435.80,380.49 439.07,382.37 442.35,383.82 445.62,385.09 448.90,386.07 452.17,386.90 455.44,385.84 458.72,382.46 461.99,377.58 465.27,372.30 468.54,367.75 471.81,362.46 475.09,356.92 478.36,351.81 481.64,347.45 484.91,342.63 488.19,337.39 491.46,332.90 494.73,328.62 498.01,324.19 501.28,320.17 504.56,316.34 507.83,312.23 511.10,308.94 514.38,305.93 517.65,304.06 520.93,302.87 524.20,303.23 527.47,305.81 530.75,309.65 534.02,313.09 537.30,315.98 540.57,318.81 543.85,321.22 547.12,323.95 550.39,326.90 553.67,329.75 556.94,331.60 560.22,333.07 563.49,334.16 566.76,334.79 570.04,335.01 573.31,334.56 576.59,335.03 579.86,336.43 583.14,339.00 586.41,343.45 589.68,348.25 592.96,353.71 596.23,360.81 599.51,367.43 602.78,372.97 606.05,377.54 609.33,381.95 612.60,386.19 615.88,389.54 619.15,391.92 622.42,394.22 625.70,396.13 628.97,398.62 632.25,400.35 635.52,400.95 638.80,400.89 642.07,401.61 645.34,403.29 648.62,406.37 651.89,408.88 655.17,410.14 658.44,411.32 661.71,412.59 664.99,413.78 668.26,412.64 671.54,409.56 674.81,404.82 678.08,398.87 681.36,392.11 684.63,385.90 687.91,381.71 691.18,378.12 694.46,374.81 697.73,372.23 701.00,370.59 704.28,370.15 707.55,369.80 710.83,370.01 714.10,371.50 717.37,373.60 720.65,375.17 723.92,376.60 727.20,378.67 730.47,380.01 733.75,378.94 737.02,376.98 740.29,373.19 743.57,368.98 746.84,365.65 750.12,361.96 753.39,358.27 756.66,356.40 759.94,356.42 763.21,357.95 766.49,358.72 769.76,358.28 773.03,356.41 776.31,353.85 779.58,351.73 782.86,349.94 786.13,348.42 789.41,346.97 792.68,344.30 795.95,340.72 799.23,336.29 802.50,333.89 805.78,330.99 809.05,327.55 812.32,324.91 815.60,319.97 818.87,314.69 822.15,309.11 825.42,305.50 828.69,302.31 831.97,298.61 835.24,295.00 838.52,294.71 841.79,297.04 845.07,299.63 848.34,303.35 851.61,306.12 854.89,306.35 858.16,307.94 861.44,311.88 864.71,316.23 867.98,322.25 871.26,328.77 874.53,334.73 877.81,340.31 881.08,346.82 884.36,352.74 887.63,357.34 890.90,361.53 894.18,366.01 897.45,370.68 900.73,374.09 904.00,376.59" />
<text x="754.00" y="290.00" font-size="13" font-family="Arial" fill="#1f77b4" text-anchor="start">MACD</text>
<text x="818.00" y="290.00" font-size="13" font-family="Arial" fill="#ff7f0e" text-anchor="start">Signal</text>
<line x1="56" y1="624" x2="904" y2="624" stroke="#cbd2d9" />
<line x1="56" y1="484" x2="56" y2="624" stroke="#cbd2d9" />
<text x="16.00" y="476.00" font-size="12" font-family="Arial" fill="#52606d" text-anchor="start">KD</text>
<line x1="56" y1="624.00" x2="904" y2="624.00" stroke="#edf2f7" />
<line x1="52" y1="624.00" x2="56" y2="624.00" stroke="#9fb3c8" />
<text x="48.00" y="628.00" font-size="11" font-family="Arial" fill="#52606d" text-anchor="end">-5.00</text>
<line x1="56" y1="577.33" x2="904" y2="577.33" stroke="#edf2f7" />
<line x1="52" y1="577.33" x2="56" y2="577.33" stroke="#9fb3c8" />
<text x="48.00" y="581.33" font-size="11" font-family="Arial" fill="#52606d" text-anchor="end">31.7</text>
<line x1="56" y1="530.67" x2="904" y2="530.67" stroke="#edf2f7" />
<line x1="52" y1="530.67" x2="56" y2="530.67" stroke="#9fb3c8" />
<text x="48.00" y="534.67" font-size="11" font-family="Arial" fill="#52606d" text-anchor="end">68.3</text>
<line x1="56" y1="484.00" x2="904" y2="484.00" stroke="#edf2f7" />
<line x1="52" y1="484.00" x2="56" y2="484.00" stroke="#9fb3c8" />
<text x="48.00" y="488.00" font-size="11" font-family="Arial" fill="#52606d" text-anchor="end">105</text>
<line x1="56.00" y1="624" x2="56.00" y2="628" stroke="#9fb3c8" />
<text x="56.00" y="642.00" font-size="11" font-family="Arial" fill="#52606d" text-anchor="middle">07/10</text>
<line x1="226.25" y1="624" x2="226.25" y2="628" stroke="#9fb3c8" />
<text x="226.25" y="642.00" font-size="11" font-family="Arial" fill="#52606d" text-anchor="middle">09/23</text>
<line x1="396.51" y1="624" x2="396.51" y2="628" stroke="#9fb3c8" />
<text x="396.51" y="642.00" font-size="11" font-family="Arial" fill="#52606d" text-anchor="middle">12/05</text>
<line x1="563.49" y1="624" x2="563.49" y2="628" stroke="#9fb3c8" />
<text x="563.49" y="642.00" font-size="11" font-family="Arial" fill="#52606d" text-anchor="middle">02/20</text>
<line x1="733.75" y1="624" x2="733.75" y2="628" stroke="#9fb3c8" />
<text x="733.75" y="642.00" font-size="11" font-family="Arial" fill="#52606d" text-anchor="middle">05/06</text>
<line x1="904.00" y1="624" x2="904.00" y2="628" stroke="#9fb3c8" />
<text x="904.00" y="642.00" font-size="11" font-family="Arial" fill="#52606d" text-anchor="middle">07/22</text>
<line x1="56" y1="592.18" x2="904" y2="592.18" stroke="#f0b429" stroke-dasharray="5 5" />
<text x="912.00" y="596.18" font-size="10" font-family="Arial" fill="#8d2b0b" text-anchor="start">20.0</text>
<line x1="56" y1="515.82" x2="904" y2="515.82" stroke="#f0b429" stroke-dasharray="5 5" />
<text x="912.00" y="519.82" font-size="10" font-family="Arial" fill="#8d2b0b" text-anchor="start">80.0</text>
<polyline fill="none" stroke="#2ca02c" stroke-width="2" points="82.19,575.62 85.47,586.18 88.74,590.49 92.02,598.01 95.29,588.12 98.56,587.65 101.84,583.92 105.11,595.31 108.39,600.53 111.66,596.27 114.93,601.33 118.21,603.62 121.48,587.14 124.76,563.09 128.03,551.42 131.31,534.94 134.58,522.77 137.85,515.32 141.13,517.93 144.40,516.68 147.68,522.47 150.95,522.21 154.22,540.42 157.50,535.60 160.77,536.47 164.05,526.93 167.32,519.85 170.59,524.20 173.87,548.52 177.14,567.22 180.42,571.55 183.69,562.14 186.97,541.71 190.24,528.01 193.51,517.80 196.79,518.02 200.06,513.20 203.34,508.22 206.61,504.09 209.88,501.74 213.16,503.02 216.43,503.20 219.71,502.21 222.98,501.14 226.25,502.06 229.53,506.96 232.80,511.16 236.08,515.52 239.35,514.41 242.63,516.39 245.90,511.65 249.17,510.92 252.45,509.60 255.72,510.56 259.00,525.40 262.27,541.60 265.54,561.23 268.82,581.45 272.09,578.39 275.37,576.85 278.64,566.73 281.92,556.64 285.19,544.05 288.46,531.79 291.74,529.80 295.01,533.34 298.29,529.46 301.56,528.49 304.83,519.77 308.11,519.24 311.38,515.26 314.66,513.88 317.93,520.71 321.20,521.64 324.48,542.18 327.75,558.98 331.03,579.13 334.30,584.08 337.58,577.05 340.85,580.11 344.12,572.19 347.40,576.55 350.67,578.66 353.95,570.06 357.22,572.50 360.49,551.13 363.77,572.95 367.04,580.93 370.32,577.68 373.59,569.31 376.86,549.88 380.14,531.52 383.41,519.88 386.69,512.15 389.96,505.93 393.24,508.44 396.51,514.06 399.78,512.71 403.06,518.90 406.33,519.89 409.61,521.14 412.88,553.38 416.15,570.31 419.43,582.14 422.70,593.33 425.98,593.68 429.25,586.42 432.53,581.23 435.80,576.03 439.07,568.88 442.35,556.60 445.62,548.53 448.90,539.00 452.17,539.40 455.44,527.31 458.72,518.15 461.99,510.78 465.27,508.96 468.54,515.64 471.81,509.63 475.09,504.55 478.36,504.73 481.64,508.58 484.91,509.75 488.19,507.87 491.46,513.51 494.73,510.06 498.01,505.56 501.28,504.65 504.56,502.76 507.83,503.19 511.10,516.51 514.38,517.90 517.65,526.29 520.93,528.50 524.20,549.18 527.47,567.60 530.75,577.25 534.02,568.71 537.30,559.09 540.57,552.14 543.85,541.12 547.12,539.47 550.39,538.12 553.67,533.11 556.94,521.83 560.22,519.49 563.49,518.17 566.76,512.85 570.04,509.72 573.31,509.47 576.59,525.44 579.86,539.50 583.14,562.66 586.41,575.36 589.68,576.37 592.96,583.06 596.23,594.04 599.51,589.65 602.78,580.41 606.05,568.23 609.33,566.23 612.60,561.85 615.88,549.31 619.15,536.57 622.42,539.03 625.70,537.05 628.97,555.43 632.25,547.98 635.52,534.64 638.80,527.67 642.07,545.33 645.34,566.47 648.62,582.73 651.89,576.42 655.17,562.24 658.44,563.69 661.71,568.05 664.99,569.65 668.26,545.88 671.54,529.04 674.81,520.72 678.08,511.63 681.36,507.32 684.63,510.39 687.91,524.00 691.18,525.10 694.46,530.37 697.73,542.80 701.00,550.57 704.28,562.87 707.55,560.09 710.83,557.98 714.10,570.60 717.37,575.51 720.65,562.28 723.92,557.85 727.20,569.69 730.47,554.94 733.75,533.60 737.02,526.84 740.29,515.29 743.57,512.46 746.84,518.90 750.12,513.17 753.39,508.97 756.66,525.58 759.94,550.88 763.21,568.39 766.49,556.34 769.76,537.35 773.03,525.81 776.31,518.30 779.58,520.11 782.86,519.74 786.13,518.21 789.41,514.03 792.68,506.72 795.95,504.91 799.23,504.70 802.50,529.20 805.78,522.70 809.05,520.93 812.32,527.49 815.60,515.65 818.87,513.61 822.15,509.11 825.42,519.78 828.69,519.96 831.97,512.20 835.24,509.39 838.52,535.53 841.79,556.88 845.07,556.56 848.34,564.99 851.61,554.20 854.89,534.57 858.16,544.52 861.44,562.75 864.71,566.14 867.98,578.81 871.26,584.04 874.53,582.19 877.81,582.00 881.08,592.57 884.36,589.96 887.63,571.71 890.90,568.08 894.18,572.53 897.45,577.84 900.73,564.31 904.00,554.25" />
<polyline fill="none" stroke="#d62728" stroke-width="2" points="82.19,561.21 85.47,569.53 88.74,576.52 92.02,583.68 95.29,585.16 98.56,585.99 101.84,585.30 105.11,588.64 108.39,592.60 111.66,593.82 114.93,596.33 118.21,598.76 121.48,594.89 124.76,584.29 128.03,573.33 131.31,560.53 134.58,547.94 137.85,537.07 141.13,530.69 144.40,526.02 147.68,524.84 150.95,523.96 154.22,529.45 157.50,531.50 160.77,533.15 164.05,531.08 167.32,527.34 170.59,526.29 173.87,533.70 177.14,544.87 180.42,553.77 183.69,556.56 186.97,551.61 190.24,543.74 193.51,535.09 196.79,529.40 200.06,524.00 203.34,518.74 206.61,513.86 209.88,509.82 213.16,507.55 216.43,506.10 219.71,504.80 222.98,503.58 226.25,503.08 229.53,504.37 232.80,506.63 236.08,509.60 239.35,511.20 242.63,512.93 245.90,512.50 249.17,511.97 252.45,511.18 255.72,510.97 259.00,515.78 262.27,524.39 265.54,536.67 268.82,551.60 272.09,560.53 275.37,565.97 278.64,566.22 281.92,563.03 285.19,556.70 288.46,548.40 291.74,542.20 295.01,539.25 298.29,535.98 301.56,533.49 304.83,528.91 308.11,525.69 311.38,522.22 314.66,519.44 317.93,519.86 321.20,520.45 324.48,527.70 327.75,538.12 331.03,551.79 334.30,562.56 337.58,567.39 340.85,571.63 344.12,571.82 347.40,573.39 350.67,575.15 353.95,573.45 357.22,573.13 360.49,565.80 363.77,568.18 367.04,572.43 370.32,574.18 373.59,572.56 376.86,565.00 380.14,553.84 383.41,542.52 386.69,532.40 389.96,523.57 393.24,518.53 396.51,517.04 399.78,515.60 403.06,516.70 406.33,517.76 409.61,518.89 412.88,530.38 416.15,543.69 419.43,556.51 422.70,568.78 425.98,577.08 429.25,580.19 432.53,580.54 435.80,579.04 439.07,575.65 442.35,569.30 445.62,562.38 448.90,554.59 452.17,549.52 455.44,542.12 458.72,534.13 461.99,526.35 465.27,520.55 468.54,518.91 471.81,515.82 475.09,512.06 478.36,509.62 481.64,509.27 484.91,509.43 488.19,508.91 491.46,510.44 494.73,510.32 498.01,508.73 501.28,507.37 504.56,505.84 507.83,504.95 511.10,508.80 514.38,511.84 517.65,516.65 520.93,520.60 524.20,530.13 527.47,542.62 530.75,554.16 534.02,559.01 537.30,559.04 540.57,556.74 543.85,551.53 547.12,547.51 550.39,544.38 553.67,540.62 556.94,534.36 560.22,529.40 563.49,525.66 566.76,521.39 570.04,517.50 573.31,514.82 576.59,518.36 579.86,525.41 583.14,537.83 586.41,550.34 589.68,559.01 592.96,567.03 596.23,576.03 599.51,580.57 602.78,580.52 606.05,576.42 609.33,573.03 612.60,569.30 615.88,562.64 619.15,553.95 622.42,548.98 625.70,545.00 628.97,548.48 632.25,548.31 635.52,543.76 638.80,538.39 642.07,540.71 645.34,549.30 648.62,560.44 651.89,565.77 655.17,564.59 658.44,564.29 661.71,565.54 664.99,566.91 668.26,559.90 671.54,549.61 674.81,539.98 678.08,530.53 681.36,522.79 684.63,518.66 687.91,520.44 691.18,521.99 694.46,524.79 697.73,530.79 701.00,537.38 704.28,545.88 707.55,550.62 710.83,553.07 714.10,558.91 717.37,564.45 720.65,563.72 723.92,561.77 727.20,564.41 730.47,561.25 733.75,552.03 737.02,543.64 740.29,534.19 743.57,526.94 746.84,524.26 750.12,520.56 753.39,516.70 756.66,519.66 759.94,530.07 763.21,542.84 766.49,547.34 769.76,544.01 773.03,537.95 776.31,531.40 779.58,527.63 782.86,525.00 786.13,522.74 789.41,519.84 792.68,515.47 795.95,511.95 799.23,509.53 802.50,516.09 805.78,518.29 809.05,519.17 812.32,521.94 815.60,519.85 818.87,517.77 822.15,514.88 825.42,516.51 828.69,517.66 831.97,515.84 835.24,513.69 838.52,520.97 841.79,532.94 845.07,540.81 848.34,548.87 851.61,550.65 854.89,545.29 858.16,545.03 861.44,550.94 864.71,556.01 867.98,563.61 871.26,570.42 874.53,574.34 877.81,576.89 881.08,582.12 884.36,584.73 887.63,580.39 890.90,576.29 894.18,575.04 897.45,575.97 900.73,572.08 904.00,566.14" />
<text x="824.00" y="502.00" font-size="13" font-family="Arial" fill="#2ca02c" text-anchor="start">K</text>
<text x="860.00" y="502.00" font-size="13" font-family="Arial" fill="#d62728" text-anchor="start">D</text>
</svg>