<svg xmlns="http://www.w3.org/2000/svg" width="960" height="680" viewBox="0 0 960 680"><rect width="100%" height="100%" fill="white" />
<text x="56.00" y="32.00" font-size="20" font-family="Arial" fill="#1f2933" text-anchor="start">AVGO Technical Indicators</text>
<line x1="56" y1="220" x2="904" y2="220" stroke="#cbd2d9" />
<line x1="56" y1="58" x2="56" y2="220" stroke="#cbd2d9" />
<text x="16.00" y="50.00" font-size="12" font-family="Arial" fill="#52606d" text-anchor="start">RSI14</text>
<line x1="56" y1="220.00" x2="904" y2="220.00" stroke="#edf2f7" />
<line x1="52" y1="220.00" x2="56" y2="220.00" stroke="#9fb3c8" />
<text x="48.00" y="224.00" font-size="11" font-family="Arial" fill="#52606d" text-anchor="end">-5.00</text>
<line x1="56" y1="166.00" x2="904" y2="166.00" stroke="#edf2f7" />
<line x1="52" y1="166.00" x2="56" y2="166.00" stroke="#9fb3c8" />
<text x="48.00" y="170.00" font-size="11" font-family="Arial" fill="#52606d" text-anchor="end">31.7</text>
<line x1="56" y1="112.00" x2="904" y2="112.00" stroke="#edf2f7" />
<line x1="52" y1="112.00" x2="56" y2="112.00" stroke="#9fb3c8" />
<text x="48.00" y="116.00" font-size="11" font-family="Arial" fill="#52606d" text-anchor="end">68.3</text>
<line x1="56" y1="58.00" x2="904" y2="58.00" stroke="#edf2f7" />
<line x1="52" y1="58.00" x2="56" y2="58.00" stroke="#9fb3c8" />
<text x="48.00" y="62.00" font-size="11" font-family="Arial" fill="#52606d" text-anchor="end">105</text>
<line x1="56" y1="168.45" x2="904" y2="168.45" stroke="#f0b429" stroke-dasharray="5 5" />
<text x="912.00" y="172.45" font-size="10" font-family="Arial" fill="#8d2b0b" text-anchor="start">30.0</text>
<line x1="56" y1="109.55" x2="904" y2="109.55" stroke="#f0b429" stroke-dasharray="5 5" />
<text x="912.00" y="113.55" font-size="10" font-family="Arial" fill="#8d2b0b" text-anchor="start">70.0</text>
<polyline fill="none" stroke="#1f77b4" stroke-width="2" points="101.84,116.72 105.11,122.34 108.39,117.21 111.66,132.54 114.93,126.90 118.21,121.87 121.48,120.45 124.76,116.56 128.03,113.78 131.31,109.47 134.58,124.03 137.85,131.06 141.13,122.33 144.40,128.67 147.68,120.99 150.95,119.31 154.22,118.31 157.50,119.94 160.77,112.58 164.05,118.32 167.32,116.51 170.59,123.96 173.87,124.83 177.14,139.30 180.42,143.53 183.69,145.29 186.97,139.60 190.24,139.30 193.51,134.42 196.79,131.63 200.06,122.33 203.34,137.54 206.61,136.57 209.88,131.84 213.16,127.85 216.43,106.98 219.71,102.05 222.98,112.69 226.25,99.66 229.53,108.95 232.80,108.86 236.08,107.17 239.35,111.28 242.63,123.86 245.90,124.56 249.17,124.93 252.45,130.03 255.72,129.92 259.00,129.64 262.27,132.95 265.54,134.60 268.82,141.29 272.09,139.22 275.37,135.65 278.64,130.95 281.92,130.77 285.19,134.40 288.46,133.36 291.74,123.98 295.01,124.67 298.29,147.78 301.56,122.40 304.83,132.78 308.11,128.31 311.38,126.60 314.66,130.70 317.93,130.78 321.20,136.52 324.48,138.52 327.75,135.17 331.03,127.60 334.30,122.25 337.58,115.82 340.85,109.42 344.12,118.79 347.40,124.95 350.67,130.93 353.95,139.03 357.22,134.16 360.49,136.76 363.77,141.39 367.04,134.76 370.32,139.68 373.59,137.20 376.86,148.03 380.14,146.01 383.41,145.84 386.69,147.45 389.96,135.66 393.24,141.66 396.51,146.49 399.78,122.57 403.06,119.36 406.33,114.13 409.61,112.04 412.88,124.75 416.15,127.84 419.43,128.51 422.70,128.28 425.98,123.17 429.25,117.76 432.53,115.35 435.80,112.36 439.07,118.36 442.35,147.78 445.62,156.03 448.90,155.12 452.17,160.85 455.44,158.33 458.72,151.66 461.99,150.57 465.27,145.61 468.54,145.04 471.81,143.77 475.09,145.43 478.36,145.08 481.64,147.56 484.91,146.26 488.19,149.24 491.46,148.90 494.73,149.12 498.01,157.20 501.28,144.85 504.56,138.69 507.83,136.72 511.10,148.18 514.38,145.41 517.65,138.14 520.93,151.33 524.20,153.57 527.47,155.52 530.75,158.68 534.02,154.02 537.30,146.77 540.57,146.37 543.85,148.29 547.12,147.70 550.39,147.87 553.67,156.50 556.94,164.40 560.22,161.48 563.49,139.94 566.76,132.03 570.04,134.85 573.31,133.16 576.59,142.38 579.86,146.64 583.14,140.60 586.41,139.81 589.68,139.40 592.96,140.60 596.23,142.72 599.51,147.09 602.78,140.03 606.05,149.21 609.33,150.91 612.60,151.51 615.88,155.58 619.15,151.03 622.42,135.31 625.70,137.54 628.97,125.16 632.25,128.39 635.52,129.45 638.80,135.23 642.07,147.29 645.34,144.64 648.62,147.61 651.89,151.87 655.17,147.65 658.44,154.89 661.71,142.34 664.99,145.71 668.26,145.20 671.54,152.59 674.81,158.53 678.08,162.93 681.36,147.07 684.63,143.68 687.91,142.76 691.18,142.86 694.46,127.31 697.73,117.67 701.00,115.52 704.28,108.13 707.55,105.03 710.83,104.64 714.10,99.17 717.37,98.62 720.65,96.14 723.92,103.63 727.20,102.68 730.47,96.07 733.75,98.94 737.02,98.04 740.29,103.16 743.57,120.94 746.84,118.12 750.12,112.61 753.39,110.96 756.66,115.49 759.94,110.56 763.21,112.44 766.49,124.18 769.76,115.60 773.03,116.95 776.31,124.64 779.58,126.68 782.86,115.25 786.13,126.26 789.41,129.37 792.68,135.79 795.95,131.95 799.23,134.15 802.50,134.46 805.78,129.48 809.05,129.61 812.32,126.55 815.60,115.55 818.87,109.91 822.15,102.55 825.42,104.63 828.69,141.82 831.97,153.82 835.24,148.83 838.52,150.37 841.79,156.94 845.07,150.45 848.34,151.66 851.61,145.94 854.89,152.20 858.16,144.67 861.44,137.04 864.71,144.19 867.98,148.41 871.26,147.53 874.53,148.73 877.81,153.83 881.08,149.94 884.36,147.18 887.63,150.64 890.90,154.16 894.18,146.64 897.45,148.01 900.73,138.63 904.00,132.90" />
<text x="808.00" y="76.00" font-size="13" font-family="Arial" fill="#1f77b4" text-anchor="start">RSI14</text>
<line x1="56" y1="432" x2="904" y2="432" stroke="#cbd2d9" />
<line x1="56" y1="272" x2="56" y2="432" stroke="#cbd2d9" />
<text x="16.00" y="264.00" font-size="12" font-family="Arial" fill="#52606d" text-anchor="start">MACD</text>
<line x1="56" y1="432.00" x2="904" y2="432.00" stroke="#edf2f7" />
<line x1="52" y1="432.00" x2="56" y2="432.00" stroke="#9fb3c8" />
<text x="48.00" y="436.00" font-size="11" font-family="Arial" fill="#52606d" text-anchor="end">-13.8</text>
<line x1="56" y1="378.67" x2="904" y2="378.67" stroke="#edf2f7" />
<line x1="52" y1="378.67" x2="56" y2="378.67" stroke="#9fb3c8" />
<text x="48.00" y="382.67" font-size="11" font-family="Arial" fill="#52606d" text-anchor="end">-0.01</text>
<line x1="56" y1="325.33" x2="904" y2="325.33" stroke="#edf2f7" />
<line x1="52" y1="325.33" x2="56" y2="325.33" stroke="#9fb3c8" />
<text x="48.00" y="329.33" font-size="11" font-family="Arial" fill="#52606d" text-anchor="end">13.7</text>
<line x1="56" y1="272.00" x2="904" y2="272.00" stroke="#edf2f7" />
<line x1="52" y1="272.00" x2="56" y2="272.00" stroke="#9fb3c8" />
<text x="48.00" y="276.00" font-size="11" font-family="Arial" fill="#52606d" text-anchor="end">27.5</text>
<line x1="56" y1="378.63" x2="904" y2="378.63" stroke="#9fb3c8" stroke-dasharray="4 4" />
<rect x="136.71" y="378.63" width="2.28" height="0.00" fill="#2f9e44" opacity="0.55" />
<rect x="139.99" y="377.94" width="2.28" height="0.69" fill="#2f9e44" opacity="0.55" />
<rect x="143.26" y="378.63" width="2.28" height="0.30" fill="#d64545" opacity="0.55" />
<rect x="146.53" y="377.58" width="2.28" height="1.04" fill="#2f9e44" opacity="0.55" />
<rect x="149.81" y="376.49" width="2.28" height="2.14" fill="#2f9e44" opacity="0.55" />
<rect x="153.08" y="375.83" width="2.28" height="2.80" fill="#2f9e44" opacity="0.55" />
<rect x="156.36" y="376.04" width="2.28" height="2.59" fill="#2f9e44" opacity="0.55" />
<rect x="159.63" y="374.34" width="2.28" height="4.29" fill="#2f9e44" opacity="0.55" />
<rect x="162.90" y="374.64" width="2.28" height="3.98" fill="#2f9e44" opacity="0.55" />
<rect x="166.18" y="374.76" width="2.28" height="3.87" fill="#2f9e44" opacity="0.55" />
<rect x="169.45" y="376.49" width="2.28" height="2.14" fill="#2f9e44" opacity="0.55" />
<rect x="172.73" y="378.08" width="2.28" height="0.55" fill="#2f9e44" opacity="0.55" />
<rect x="176.00" y="378.63" width="2.28" height="3.40" fill="#d64545" opacity="0.55" />
<rect x="179.28" y="378.63" width="2.28" height="6.87" fill="#d64545" opacity="0.55" />
<rect x="182.55" y="378.63" width="2.28" height="9.30" fill="#d64545" opacity="0.55" />
<rect x="185.82" y="378.63" width="2.28" height="9.46" fill="#d64545" opacity="0.55" />
<rect x="189.10" y="378.63" width="2.28" height="9.20" fill="#d64545" opacity="0.55" />
<rect x="192.37" y="378.63" width="2.28" height="7.80" fill="#d64545" opacity="0.55" />
<rect x="195.65" y="378.63" width="2.28" height="6.11" fill="#d64545" opacity="0.55" />
<rect x="198.92" y="378.63" width="2.28" height="2.81" fill="#d64545" opacity="0.55" />
<rect x="202.19" y="378.63" width="2.28" height="3.48" fill="#d64545" opacity="0.55" />
<rect x="205.47" y="378.63" width="2.28" height="3.64" fill="#d64545" opacity="0.55" />
<rect x="208.74" y="378.63" width="2.28" height="2.64" fill="#d64545" opacity="0.55" />
<rect x="212.02" y="378.63" width="2.28" height="1.08" fill="#d64545" opacity="0.55" />
<rect x="215.29" y="371.70" width="2.28" height="6.93" fill="#2f9e44" opacity="0.55" />
<rect x="218.57" y="364.52" width="2.28" height="14.10" fill="#2f9e44" opacity="0.55" />
<rect x="221.84" y="363.12" width="2.28" height="15.50" fill="#2f9e44" opacity="0.55" />
<rect x="225.11" y="355.17" width="2.28" height="23.46" fill="#2f9e44" opacity="0.55" />
<rect x="228.39" y="354.09" width="2.28" height="24.53" fill="#2f9e44" opacity="0.55" />
<rect x="231.66" y="354.95" width="2.28" height="23.68" fill="#2f9e44" opacity="0.55" />
<rect x="234.94" y="356.04" width="2.28" height="22.59" fill="#2f9e44" opacity="0.55" />
<rect x="238.21" y="359.32" width="2.28" height="19.31" fill="#2f9e44" opacity="0.55" />
<rect x="241.48" y="366.23" width="2.28" height="12.40" fill="#2f9e44" opacity="0.55" />
<rect x="244.76" y="371.89" width="2.28" height="6.74" fill="#2f9e44" opacity="0.55" />
<rect x="248.03" y="376.38" width="2.28" height="2.24" fill="#2f9e44" opacity="0.55" />
<rect x="251.31" y="378.63" width="2.28" height="2.56" fill="#d64545" opacity="0.55" />
<rect x="254.58" y="378.63" width="2.28" height="5.89" fill="#d64545" opacity="0.55" />
<rect x="257.85" y="378.63" width="2.28" height="8.05" fill="#d64545" opacity="0.55" />
<rect x="261.13" y="378.63" width="2.28" height="10.23" fill="#d64545" opacity="0.55" />
<rect x="264.40" y="378.63" width="2.28" height="11.89" fill="#d64545" opacity="0.55" />
<rect x="267.68" y="378.63" width="2.28" height="14.34" fill="#d64545" opacity="0.55" />
<rect x="270.95" y="378.63" width="2.28" height="15.01" fill="#d64545" opacity="0.55" />
<rect x="274.23" y="378.63" width="2.28" height="14.13" fill="#d64545" opacity="0.55" />
<rect x="277.50" y="378.63" width="2.28" height="11.97" fill="#d64545" opacity="0.55" />
<rect x="280.77" y="378.63" width="2.28" height="10.22" fill="#d64545" opacity="0.55" />
<rect x="284.05" y="378.63" width="2.28" height="9.56" fill="#d64545" opacity="0.55" />
<rect x="287.32" y="378.63" width="2.28" height="8.65" fill="#d64545" opacity="0.55" />
<rect x="290.60" y="378.63" width="2.28" height="5.61" fill="#d64545" opacity="0.55" />
<rect x="293.87" y="378.63" width="2.28" height="3.73" fill="#d64545" opacity="0.55" />
<rect x="297.14" y="378.63" width="2.28" height="7.58" fill="#d64545" opacity="0.55" />
<rect x="300.42" y="378.63" width="2.28" height="1.88" fill="#d64545" opacity="0.55" />
<rect x="303.69" y="378.63" width="2.28" height="1.47" fill="#d64545" opacity="0.55" />
<rect x="306.97" y="378.17" width="2.28" height="0.46" fill="#2f9e44" opacity="0.55" />
<rect x="310.24" y="376.46" width="2.28" height="2.17" fill="#2f9e44" opacity="0.55" />
<rect x="313.51" y="376.87" width="2.28" height="1.76" fill="#2f9e44" opacity="0.55" />
<rect x="316.79" y="377.42" width="2.28" height="1.21" fill="#2f9e44" opacity="0.55" />
<rect x="320.06" y="378.63" width="2.28" height="1.00" fill="#d64545" opacity="0.55" />
<rect x="323.34" y="378.63" width="2.28" height="3.10" fill="#d64545" opacity="0.55" />
<rect x="326.61" y="378.63" width="2.28" height="3.45" fill="#d64545" opacity="0.55" />
<rect x="329.89" y="378.63" width="2.28" height="1.23" fill="#d64545" opacity="0.55" />
<rect x="333.16" y="376.61" width="2.28" height="2.01" fill="#2f9e44" opacity="0.55" />
<rect x="336.43" y="372.17" width="2.28" height="6.46" fill="#2f9e44" opacity="0.55" />
<rect x="339.71" y="366.70" width="2.28" height="11.92" fill="#2f9e44" opacity="0.55" />
<rect x="342.98" y="366.46" width="2.28" height="12.17" fill="#2f9e44" opacity="0.55" />
<rect x="346.26" y="368.86" width="2.28" height="9.77" fill="#2f9e44" opacity="0.55" />
<rect x="349.53" y="372.88" width="2.28" height="5.75" fill="#2f9e44" opacity="0.55" />
<rect x="352.80" y="378.59" width="2.28" height="0.04" fill="#2f9e44" opacity="0.55" />
<rect x="356.08" y="378.63" width="2.28" height="2.08" fill="#d64545" opacity="0.55" />
<rect x="359.35" y="378.63" width="2.28" height="4.41" fill="#d64545" opacity="0.55" />
<rect x="362.63" y="378.63" width="2.28" height="7.41" fill="#d64545" opacity="0.55" />
<rect x="365.90" y="378.63" width="2.28" height="6.94" fill="#d64545" opacity="0.55" />
<rect x="369.18" y="378.63" width="2.28" height="8.09" fill="#d64545" opacity="0.55" />
<rect x="372.45" y="378.63" width="2.28" height="7.79" fill="#d64545" opacity="0.55" />
<rect x="375.72" y="378.63" width="2.28" height="11.14" fill="#d64545" opacity="0.55" />
<rect x="379.00" y="378.63" width="2.28" height="12.20" fill="#d64545" opacity="0.55" />
<rect x="382.27" y="378.63" width="2.28" height="12.32" fill="#d64545" opacity="0.55" />
<rect x="385.55" y="378.63" width="2.28" height="12.39" fill="#d64545" opacity="0.55" />
<rect x="388.82" y="378.63" width="2.28" height="8.44" fill="#d64545" opacity="0.55" />
<rect x="392.09" y="378.63" width="2.28" height="7.45" fill="#d64545" opacity="0.55" />
<rect x="395.37" y="378.63" width="2.28" height="8.12" fill="#d64545" opacity="0.55" />
<rect x="398.64" y="377.47" width="2.28" height="1.16" fill="#2f9e44" opacity="0.55" />
<rect x="401.92" y="370.00" width="2.28" height="8.62" fill="#2f9e44" opacity="0.55" />
<rect x="405.19" y="362.74" width="2.28" height="15.89" fill="#2f9e44" opacity="0.55" />
<rect x="408.46" y="357.78" width="2.28" height="20.85" fill="#2f9e44" opacity="0.55" />
<rect x="411.74" y="360.05" width="2.28" height="18.58" fill="#2f9e44" opacity="0.55" />
<rect x="415.01" y="363.73" width="2.28" height="14.90" fill="#2f9e44" opacity="0.55" />
<rect x="418.29" y="367.26" width="2.28" height="11.37" fill="#2f9e44" opacity="0.55" />
<rect x="421.56" y="370.20" width="2.28" height="8.43" fill="#2f9e44" opacity="0.55" />
<rect x="424.84" y="370.47" width="2.28" height="8.15" fill="#2f9e44" opacity="0.55" />
<rect x="428.11" y="368.67" width="2.28" height="9.96" fill="#2f9e44" opacity="0.55" />
<rect x="431.38" y="367.08" width="2.28" height="11.55" fill="#2f9e44" opacity="0.55" />
<rect x="434.66" y="365.37" width="2.28" height="13.26" fill="#2f9e44" opacity="0.55" />
<rect x="437.93" y="366.96" width="2.28" height="11.67" fill="#2f9e44" opacity="0.55" />
<rect x="441.21" y="378.63" width="2.28" height="1.75" fill="#d64545" opacity="0.55" />
<rect x="444.48" y="378.63" width="2.28" height="15.40" fill="#d64545" opacity="0.55" />
<rect x="447.75" y="378.63" width="2.28" height="23.12" fill="#d64545" opacity="0.55" />
<rect x="451.03" y="378.63" width="2.28" height="30.79" fill="#d64545" opacity="0.55" />
<rect x="454.30" y="378.63" width="2.28" height="33.25" fill="#d64545" opacity="0.55" />
<rect x="457.58" y="378.63" width="2.28" height="30.61" fill="#d64545" opacity="0.55" />
<rect x="460.85" y="378.63" width="2.28" height="26.99" fill="#d64545" opacity="0.55" />
<rect x="464.12" y="378.63" width="2.28" height="21.38" fill="#d64545" opacity="0.55" />
<rect x="467.40" y="378.63" width="2.28" height="16.48" fill="#d64545" opacity="0.55" />
<rect x="470.67" y="378.63" width="2.28" height="11.99" fill="#d64545" opacity="0.55" />
<rect x="473.95" y="378.63" width="2.28" height="9.12" fill="#d64545" opacity="0.55" />
<rect x="477.22" y="378.63" width="2.28" height="6.61" fill="#d64545" opacity="0.55" />
<rect x="480.50" y="378.63" width="2.28" height="5.47" fill="#d64545" opacity="0.55" />
<rect x="483.77" y="378.63" width="2.28" height="3.94" fill="#d64545" opacity="0.55" />
<rect x="487.04" y="378.63" width="2.28" height="3.65" fill="#d64545" opacity="0.55" />
<rect x="490.32" y="378.63" width="2.28" height="3.02" fill="#d64545" opacity="0.55" />
<rect x="493.59" y="378.63" width="2.28" height="2.36" fill="#d64545" opacity="0.55" />
<rect x="496.87" y="378.63" width="2.28" height="4.35" fill="#d64545" opacity="0.55" />
<rect x="500.14" y="378.63" width="2.28" height="2.10" fill="#d64545" opacity="0.55" />
<rect x="503.41" y="377.23" width="2.28" height="1.40" fill="#2f9e44" opacity="0.55" />
<rect x="506.69" y="374.32" width="2.28" height="4.31" fill="#2f9e44" opacity="0.55" />
<rect x="509.96" y="376.17" width="2.28" height="2.46" fill="#2f9e44" opacity="0.55" />
<rect x="513.24" y="376.50" width="2.28" height="2.12" fill="#2f9e44" opacity="0.55" />
<rect x="516.51" y="374.51" width="2.28" height="4.12" fill="#2f9e44" opacity="0.55" />
<rect x="519.79" y="378.02" width="2.28" height="0.60" fill="#2f9e44" opacity="0.55" />
<rect x="523.06" y="378.63" width="2.28" height="2.40" fill="#d64545" opacity="0.55" />
<rect x="526.33" y="378.63" width="2.28" height="4.81" fill="#d64545" opacity="0.55" />
<rect x="529.61" y="378.63" width="2.28" height="7.23" fill="#d64545" opacity="0.55" />
<rect x="532.88" y="378.63" width="2.28" height="6.99" fill="#d64545" opacity="0.55" />
<rect x="536.16" y="378.63" width="2.28" height="4.30" fill="#d64545" opacity="0.55" />
<rect x="539.43" y="378.63" width="2.28" height="2.06" fill="#d64545" opacity="0.55" />
<rect x="542.70" y="378.63" width="2.28" height="0.93" fill="#d64545" opacity="0.55" />
<rect x="545.98" y="378.44" width="2.28" height="0.19" fill="#2f9e44" opacity="0.55" />
<rect x="549.25" y="377.57" width="2.28" height="1.06" fill="#2f9e44" opacity="0.55" />
<rect x="552.53" y="378.63" width="2.28" height="0.88" fill="#d64545" opacity="0.55" />
<rect x="555.80" y="378.63" width="2.28" height="4.85" fill="#d64545" opacity="0.55" />
<rect x="559.07" y="378.63" width="2.28" height="6.24" fill="#d64545" opacity="0.55" />
<rect x="562.35" y="378.63" width="2.28" height="1.00" fill="#d64545" opacity="0.55" />
<rect x="565.62" y="373.32" width="2.28" height="5.30" fill="#2f9e44" opacity="0.55" />
<rect x="568.90" y="370.27" width="2.28" height="8.36" fill="#2f9e44" opacity="0.55" />
<rect x="572.17" y="368.00" width="2.28" height="10.63" fill="#2f9e44" opacity="0.55" />
<rect x="575.45" y="369.79" width="2.28" height="8.84" fill="#2f9e44" opacity="0.55" />
<rect x="578.72" y="372.67" width="2.28" height="5.95" fill="#2f9e44" opacity="0.55" />
<rect x="581.99" y="372.81" width="2.28" height="5.82" fill="#2f9e44" opacity="0.55" />
<rect x="585.27" y="372.81" width="2.28" height="5.82" fill="#2f9e44" opacity="0.55" />
<rect x="588.54" y="372.85" width="2.28" height="5.77" fill="#2f9e44" opacity="0.55" />
<rect x="591.82" y="373.39" width="2.28" height="5.24" fill="#2f9e44" opacity="0.55" />
<rect x="595.09" y="374.46" width="2.28" height="4.17" fill="#2f9e44" opacity="0.55" />
<rect x="598.36" y="376.43" width="2.28" height="2.19" fill="#2f9e44" opacity="0.55" />
<rect x="601.64" y="376.01" width="2.28" height="2.62" fill="#2f9e44" opacity="0.55" />
<rect x="604.91" y="378.40" width="2.28" height="0.23" fill="#2f9e44" opacity="0.55" />
<rect x="608.19" y="378.63" width="2.28" height="1.72" fill="#d64545" opacity="0.55" />
<rect x="611.46" y="378.63" width="2.28" height="2.93" fill="#d64545" opacity="0.55" />
<rect x="614.73" y="378.63" width="2.28" height="4.66" fill="#d64545" opacity="0.55" />
<rect x="618.01" y="378.63" width="2.28" height="4.48" fill="#d64545" opacity="0.55" />
<rect x="621.28" y="378.63" width="2.28" height="0.24" fill="#d64545" opacity="0.55" />
<rect x="624.56" y="376.64" width="2.28" height="1.98" fill="#2f9e44" opacity="0.55" />
<rect x="627.83" y="371.47" width="2.28" height="7.16" fill="#2f9e44" opacity="0.55" />
<rect x="631.11" y="369.27" width="2.28" height="9.35" fill="#2f9e44" opacity="0.55" />
<rect x="634.38" y="368.55" width="2.28" height="10.07" fill="#2f9e44" opacity="0.55" />
<rect x="637.65" y="369.95" width="2.28" height="8.67" fill="#2f9e44" opacity="0.55" />
<rect x="640.93" y="374.65" width="2.28" height="3.98" fill="#2f9e44" opacity="0.55" />
<rect x="644.20" y="377.09" width="2.28" height="1.54" fill="#2f9e44" opacity="0.55" />
<rect x="647.48" y="378.63" width="2.28" height="0.93" fill="#d64545" opacity="0.55" />
<rect x="650.75" y="378.63" width="2.28" height="3.73" fill="#d64545" opacity="0.55" />
<rect x="654.02" y="378.63" width="2.28" height="4.28" fill="#d64545" opacity="0.55" />
<rect x="657.30" y="378.63" width="2.28" height="6.66" fill="#d64545" opacity="0.55" />
<rect x="660.57" y="378.63" width="2.28" height="4.61" fill="#d64545" opacity="0.55" />
<rect x="663.85" y="378.63" width="2.28" height="4.05" fill="#d64545" opacity="0.55" />
<rect x="667.12" y="378.63" width="2.28" height="3.28" fill="#d64545" opacity="0.55" />
<rect x="670.40" y="378.63" width="2.28" height="4.85" fill="#d64545" opacity="0.55" />
<rect x="673.67" y="378.63" width="2.28" height="7.64" fill="#d64545" opacity="0.55" />
<rect x="676.94" y="378.63" width="2.28" height="10.66" fill="#d64545" opacity="0.55" />
<rect x="680.22" y="378.63" width="2.28" height="7.88" fill="#d64545" opacity="0.55" />
<rect x="683.49" y="378.63" width="2.28" height="4.58" fill="#d64545" opacity="0.55" />
<rect x="686.77" y="378.63" width="2.28" height="1.83" fill="#d64545" opacity="0.55" />
<rect x="690.04" y="378.50" width="2.28" height="0.13" fill="#2f9e44" opacity="0.55" />
<rect x="693.31" y="372.27" width="2.28" height="6.36" fill="#2f9e44" opacity="0.55" />
<rect x="696.59" y="364.42" width="2.28" height="14.21" fill="#2f9e44" opacity="0.55" />
<rect x="699.86" y="359.06" width="2.28" height="19.57" fill="#2f9e44" opacity="0.55" />
<rect x="703.14" y="352.53" width="2.28" height="26.10" fill="#2f9e44" opacity="0.55" />
<rect x="706.41" y="347.75" width="2.28" height="30.87" fill="#2f9e44" opacity="0.55" />
<rect x="709.68" y="346.17" width="2.28" height="32.46" fill="#2f9e44" opacity="0.55" />
<rect x="712.96" y="343.06" width="2.28" height="35.57" fill="#2f9e44" opacity="0.55" />
<rect x="716.23" y="342.74" width="2.28" height="35.89" fill="#2f9e44" opacity="0.55" />
<rect x="719.51" y="342.71" width="2.28" height="35.92" fill="#2f9e44" opacity="0.55" />
<rect x="722.78" y="346.65" width="2.28" height="31.98" fill="#2f9e44" opacity="0.55" />
<rect x="726.06" y="350.60" width="2.28" height="28.03" fill="#2f9e44" opacity="0.55" />
<rect x="729.33" y="349.99" width="2.28" height="28.64" fill="#2f9e44" opacity="0.55" />
<rect x="732.60" y="352.34" width="2.28" height="26.29" fill="#2f9e44" opacity="0.55" />
<rect x="735.88" y="355.12" width="2.28" height="23.50" fill="#2f9e44" opacity="0.55" />
<rect x="739.15" y="359.90" width="2.28" height="18.72" fill="#2f9e44" opacity="0.55" />
<rect x="742.43" y="369.15" width="2.28" height="9.48" fill="#2f9e44" opacity="0.55" />
<rect x="745.70" y="374.79" width="2.28" height="3.84" fill="#2f9e44" opacity="0.55" />
<rect x="748.97" y="376.32" width="2.28" height="2.31" fill="#2f9e44" opacity="0.55" />
<rect x="752.25" y="377.21" width="2.28" height="1.42" fill="#2f9e44" opacity="0.55" />
<rect x="755.52" y="378.63" width="2.28" height="1.15" fill="#d64545" opacity="0.55" />
<rect x="758.80" y="378.63" width="2.28" height="0.78" fill="#d64545" opacity="0.55" />
<rect x="762.07" y="378.63" width="2.28" height="1.74" fill="#d64545" opacity="0.55" />
<rect x="765.34" y="378.63" width="2.28" height="6.18" fill="#d64545" opacity="0.55" />
<rect x="768.62" y="378.63" width="2.28" height="5.07" fill="#d64545" opacity="0.55" />
<rect x="771.89" y="378.63" width="2.28" height="5.23" fill="#d64545" opacity="0.55" />
<rect x="775.17" y="378.63" width="2.28" height="8.02" fill="#d64545" opacity="0.55" />
<rect x="778.44" y="378.63" width="2.28" height="10.67" fill="#d64545" opacity="0.55" />
<rect x="781.72" y="378.63" width="2.28" height="6.76" fill="#d64545" opacity="0.55" />
<rect x="784.99" y="378.63" width="2.28" height="8.22" fill="#d64545" opacity="0.55" />
<rect x="788.26" y="378.63" width="2.28" height="10.45" fill="#d64545" opacity="0.55" />
<rect x="791.54" y="378.63" width="2.28" height="14.29" fill="#d64545" opacity="0.55" />
<rect x="794.81" y="378.63" width="2.28" height="14.88" fill="#d64545" opacity="0.55" />
<rect x="798.09" y="378.63" width="2.28" height="15.81" fill="#d64545" opacity="0.55" />
<rect x="801.36" y="378.63" width="2.28" height="16.18" fill="#d64545" opacity="0.55" />
<rect x="804.63" y="378.63" width="2.28" height="14.10" fill="#d64545" opacity="0.55" />
<rect x="807.91" y="378.63" width="2.28" height="12.53" fill="#d64545" opacity="0.55" />
<rect x="811.18" y="378.63" width="2.28" height="10.14" fill="#d64545" opacity="0.55" />
<rect x="814.46" y="378.63" width="2.28" height="3.51" fill="#d64545" opacity="0.55" />
<rect x="817.73" y="374.92" width="2.28" height="3.70" fill="#2f9e44" opacity="0.55" />
<rect x="821.01" y="365.65" width="2.28" height="12.98" fill="#2f9e44" opacity="0.55" />
<rect x="824.28" y="361.52" width="2.28" height="17.11" fill="#2f9e44" opacity="0.55" />
<rect x="827.55" y="375.19" width="2.28" height="3.44" fill="#2f9e44" opacity="0.55" />
<rect x="830.83" y="378.63" width="2.28" height="13.98" fill="#d64545" opacity="0.55" />
<rect x="834.10" y="378.63" width="2.28" height="21.91" fill="#d64545" opacity="0.55" />
<rect x="837.38" y="378.63" width="2.28" height="27.22" fill="#d64545" opacity="0.55" />
<rect x="840.65" y="378.63" width="2.28" height="34.40" fill="#d64545" opacity="0.55" />
<rect x="843.92" y="378.63" width="2.28" height="34.02" fill="#d64545" opacity="0.55" />
<rect x="847.20" y="378.63" width="2.28" height="33.03" fill="#d64545" opacity="0.55" />
<rect x="850.47" y="378.63" width="2.28" height="27.83" fill="#d64545" opacity="0.55" />
<rect x="853.75" y="378.63" width="2.28" height="27.41" fill="#d64545" opacity="0.55" />
<rect x="857.02" y="378.63" width="2.28" height="21.67" fill="#d64545" opacity="0.55" />
<rect x="860.29" y="378.63" width="2.28" height="12.30" fill="#d64545" opacity="0.55" />
<rect x="863.57" y="378.63" width="2.28" height="10.26" fill="#d64545" opacity="0.55" />
<rect x="866.84" y="378.63" width="2.28" height="11.28" fill="#d64545" opacity="0.55" />
<rect x="870.12" y="378.63" width="2.28" height="10.70" fill="#d64545" opacity="0.55" />
<rect x="873.39" y="378.63" width="2.28" height="10.37" fill="#d64545" opacity="0.55" />
<rect x="876.67" y="378.63" width="2.28" height="12.85" fill="#d64545" opacity="0.55" />
<rect x="879.94" y="378.63" width="2.28" height="11.65" fill="#d64545" opacity="0.55" />
<rect x="883.21" y="378.63" width="2.28" height="8.72" fill="#d64545" opacity="0.55" />
<rect x="886.49" y="378.63" width="2.28" height="8.22" fill="#d64545" opacity="0.55" />
<rect x="889.76" y="378.63" width="2.28" height="9.38" fill="#d64545" opacity="0.55" />
<rect x="893.04" y="378.63" width="2.28" height="5.96" fill="#d64545" opacity="0.55" />
<rect x="896.31" y="378.63" width="2.28" height="3.94" fill="#d64545" opacity="0.55" />
<rect x="899.58" y="376.31" width="2.28" height="2.31" fill="#2f9e44" opacity="0.55" />
<rect x="902.86" y="369.10" width="2.28" height="9.52" fill="#2f9e44" opacity="0.55" />
<polyline fill="none" stroke="#1f77b4" stroke-width="2" points="137.85,356.48 141.13,355.62 144.40,356.68 147.68,355.08 150.95,353.45 154.22,352.09 157.50,351.65 160.77,348.88 164.05,348.19 167.32,347.34 170.59,348.53 173.87,349.99 177.14,354.79 180.42,359.97 183.69,364.72 186.97,367.25 190.24,369.30 193.51,369.84 196.79,369.68 200.06,367.08 203.34,368.63 206.61,369.70 209.88,369.36 213.16,368.06 216.43,358.32 219.71,347.62 222.98,342.35 226.25,328.52 229.53,321.32 232.80,316.25 236.08,311.70 239.35,310.15 242.63,313.96 245.90,317.94 249.17,321.87 252.45,327.31 255.72,332.11 259.00,336.29 262.27,341.03 265.54,345.66 268.82,351.70 272.09,356.12 275.37,358.77 278.64,359.60 281.92,360.40 285.19,362.13 288.46,363.39 291.74,361.75 295.01,360.81 298.29,366.55 301.56,361.31 304.83,361.28 308.11,359.23 311.38,356.98 314.66,356.95 317.93,357.20 321.20,359.66 324.48,362.53 327.75,363.74 331.03,361.83 334.30,358.09 337.58,352.03 340.85,343.58 344.12,340.29 347.40,340.25 350.67,342.84 353.95,348.53 357.22,351.18 360.49,354.60 363.77,359.45 367.04,360.72 370.32,363.89 373.59,365.54 376.86,371.67 380.14,375.79 383.41,378.99 386.69,382.16 389.96,380.31 393.24,381.19 396.51,383.88 399.78,374.32 403.06,364.70 406.33,353.46 409.61,343.28 412.88,340.91 416.15,340.86 419.43,341.55 422.70,342.39 425.98,340.62 429.25,336.33 432.53,331.85 435.80,326.82 439.07,325.50 442.35,339.36 445.62,356.86 448.90,370.35 452.17,385.72 455.44,396.49 458.72,401.51 461.99,404.64 465.27,404.37 468.54,403.59 471.81,402.10 475.09,401.51 478.36,400.65 481.64,400.88 484.91,400.34 488.19,400.96 491.46,401.08 494.73,401.01 498.01,404.09 501.28,402.37 504.56,398.51 507.83,394.53 511.10,395.76 514.38,395.57 517.65,392.55 520.93,395.91 524.20,399.52 527.47,403.13 530.75,407.35 534.02,408.86 537.30,407.24 540.57,405.51 543.85,404.63 547.12,403.46 550.39,402.32 553.67,404.48 556.94,409.66 560.22,412.61 563.49,407.63 566.76,400.00 570.04,394.85 573.31,389.92 576.59,389.50 579.86,390.90 583.14,389.58 586.41,388.13 589.68,386.73 592.96,385.96 596.23,385.98 599.51,387.41 602.78,386.32 606.05,388.66 609.33,391.04 612.60,392.98 615.88,395.88 619.15,396.81 622.42,392.64 625.70,389.92 628.97,382.95 632.25,378.42 635.52,375.18 638.80,374.41 642.07,378.11 645.34,380.17 648.62,382.87 651.89,386.60 655.17,388.23 658.44,392.27 661.71,391.37 664.99,391.82 668.26,391.87 671.54,394.65 674.81,399.35 678.08,405.04 681.36,404.23 684.63,402.07 687.91,399.78 691.18,397.79 694.46,389.97 697.73,378.57 701.00,368.32 704.28,355.26 707.55,342.77 710.83,333.07 714.10,321.07 717.37,311.78 720.65,302.77 723.92,298.71 727.20,295.66 730.47,287.88 733.75,283.67 737.02,280.57 740.29,280.67 743.57,287.54 746.84,292.23 750.12,293.18 753.39,293.71 756.66,296.58 759.94,296.40 763.21,297.79 766.49,303.78 769.76,303.94 773.03,305.40 776.31,310.20 779.58,315.51 782.86,313.29 786.13,316.80 789.41,321.65 792.68,329.07 795.95,333.38 799.23,338.26 802.50,342.67 805.78,344.11 809.05,345.68 812.32,345.82 815.60,340.07 818.87,331.93 822.15,319.41 825.42,311.00 828.69,323.82 831.97,344.73 835.24,358.14 838.52,370.25 841.79,386.04 845.07,394.15 848.34,401.42 851.61,403.19 854.89,409.61 858.16,409.29 861.44,403.00 864.71,403.53 867.98,407.37 871.26,409.45 874.53,411.72 877.81,417.41 881.08,419.13 884.36,418.37 887.63,419.93 890.90,423.43 894.18,421.50 897.45,420.46 900.73,413.64 904.00,404.04" />
<polyline fill="none" stroke="#ff7f0e" stroke-width="2" points="137.85,356.48 141.13,356.31 144.40,356.38 147.68,356.12 150.95,355.59 154.22,354.89 157.50,354.24 160.77,353.17 164.05,352.17 167.32,351.21 170.59,350.67 173.87,350.54 177.14,351.39 180.42,353.10 183.69,355.43 186.97,357.79 190.24,360.09 193.51,362.04 196.79,363.57 200.06,364.27 203.34,365.14 206.61,366.05 209.88,366.71 213.16,366.98 216.43,365.25 219.71,361.73 222.98,357.85 226.25,351.98 229.53,345.85 232.80,339.93 236.08,334.28 239.35,329.46 242.63,326.36 245.90,324.67 249.17,324.11 252.45,324.75 255.72,326.22 259.00,328.24 262.27,330.80 265.54,333.77 268.82,337.35 272.09,341.11 275.37,344.64 278.64,347.63 281.92,350.19 285.19,352.57 288.46,354.74 291.74,356.14 295.01,357.07 298.29,358.97 301.56,359.44 304.83,359.80 308.11,359.69 311.38,359.15 314.66,358.71 317.93,358.41 321.20,358.66 324.48,359.43 327.75,360.29 331.03,360.60 334.30,360.10 337.58,358.48 340.85,355.50 344.12,352.46 347.40,350.02 350.67,348.58 353.95,348.57 357.22,349.09 360.49,350.20 363.77,352.05 367.04,353.78 370.32,355.80 373.59,357.75 376.86,360.53 380.14,363.59 383.41,366.67 386.69,369.76 389.96,371.87 393.24,373.74 396.51,375.77 399.78,375.48 403.06,373.32 406.33,369.35 409.61,364.14 412.88,359.49 416.15,355.76 419.43,352.92 422.70,350.82 425.98,348.78 429.25,346.29 432.53,343.40 435.80,340.09 439.07,337.17 442.35,337.61 445.62,341.46 448.90,347.24 452.17,354.93 455.44,363.25 458.72,370.90 461.99,377.65 465.27,382.99 468.54,387.11 471.81,390.11 475.09,392.39 478.36,394.04 481.64,395.41 484.91,396.39 488.19,397.31 491.46,398.06 494.73,398.65 498.01,399.74 501.28,400.26 504.56,399.91 507.83,398.84 511.10,398.22 514.38,397.69 517.65,396.66 520.93,396.51 524.20,397.11 527.47,398.32 530.75,400.12 534.02,401.87 537.30,402.94 540.57,403.46 543.85,403.69 547.12,403.65 550.39,403.38 553.67,403.60 556.94,404.81 560.22,406.37 563.49,406.62 566.76,405.30 570.04,403.21 573.31,400.55 576.59,398.34 579.86,396.85 583.14,395.40 586.41,393.94 589.68,392.50 592.96,391.19 596.23,390.15 599.51,389.60 602.78,388.95 606.05,388.89 609.33,389.32 612.60,390.05 615.88,391.22 619.15,392.34 622.42,392.40 625.70,391.90 628.97,390.11 632.25,387.77 635.52,385.25 638.80,383.09 642.07,382.09 645.34,381.71 648.62,381.94 651.89,382.87 655.17,383.94 658.44,385.61 661.71,386.76 664.99,387.77 668.26,388.59 671.54,389.80 674.81,391.71 678.08,394.38 681.36,396.35 684.63,397.49 687.91,397.95 691.18,397.92 694.46,396.33 697.73,392.78 701.00,387.89 704.28,381.36 707.55,373.64 710.83,365.53 714.10,356.64 717.37,347.66 720.65,338.68 723.92,330.69 727.20,323.68 730.47,316.52 733.75,309.95 737.02,304.08 740.29,299.40 743.57,297.02 746.84,296.07 750.12,295.49 753.39,295.13 756.66,295.42 759.94,295.62 763.21,296.05 766.49,297.60 769.76,298.87 773.03,300.17 776.31,302.18 779.58,304.84 782.86,306.53 786.13,308.59 789.41,311.20 792.68,314.77 795.95,318.49 799.23,322.45 802.50,326.49 805.78,330.02 809.05,333.15 812.32,335.68 815.60,336.56 818.87,335.64 822.15,332.39 825.42,328.11 828.69,327.25 831.97,330.75 835.24,336.23 838.52,343.03 841.79,351.63 845.07,360.14 848.34,368.39 851.61,375.35 854.89,382.20 858.16,387.62 861.44,390.70 864.71,393.26 867.98,396.08 871.26,398.76 874.53,401.35 877.81,404.56 881.08,407.47 884.36,409.65 887.63,411.71 890.90,414.05 894.18,415.54 897.45,416.53 900.73,415.95 904.00,413.57" />
<text x="754.00" y="290.00" font-size="13" font-family="Arial" fill="#1f77b4" text-anchor="start">MACD</text>
<text x="818.00" y="290.00" font-size="13" font-family="Arial" fill="#ff7f0e" text-anchor="start">Signal</text>
<line x1="56" y1="624" x2="904" y2="624" stroke="#cbd2d9" />
<line x1="56" y1="484" x2="56" y2="624" stroke="#cbd2d9" />
<text x="16.00" y="476.00" font-size="12" font-family="Arial" fill="#52606d" text-anchor="start">KD</text>
<line x1="56" y1="624.00" x2="904" y2="624.00" stroke="#edf2f7" />
<line x1="52" y1="624.00" x2="56" y2="624.00" stroke="#9fb3c8" />
<text x="48.00" y="628.00" font-size="11" font-family="Arial" fill="#52606d" text-anchor="end">-5.00</text>
<line x1="56" y1="577.33" x2="904" y2="577.33" stroke="#edf2f7" />
<line x1="52" y1="577.33" x2="56" y2="577.33" stroke="#9fb3c8" />
<text x="48.00" y="581.33" font-size="11" font-family="Arial" fill="#52606d" text-anchor="end">31.7</text>
<line x1="56" y1="530.67" x2="904" y2="530.67" stroke="#edf2f7" />
<line x1="52" y1="530.67" x2="56" y2="530.67" stroke="#9fb3c8" />
<text x="48.00" y="534.67" font-size="11" font-family="Arial" fill="#52606d" text-anchor="end">68.3</text>
<line x1="56" y1="484.00" x2="904" y2="484.00" stroke="#edf2f7" />
<line x1="52" y1="484.00" x2="56" y2="484.00" stroke="#9fb3c8" />
<text x="48.00" y="488.00" font-size="11" font-family="Arial" fill="#52606d" text-anchor="end">105</text>
<line x1="56.00" y1="624" x2="56.00" y2="628" stroke="#9fb3c8" />
<text x="56.00" y="642.00" font-size="11" font-family="Arial" fill="#52606d" text-anchor="middle">06/26</text>
<line x1="226.25" y1="624" x2="226.25" y2="628" stroke="#9fb3c8" />
<text x="226.25" y="642.00" font-size="11" font-family="Arial" fill="#52606d" text-anchor="middle">09/10</text>
<line x1="396.51" y1="624" x2="396.51" y2="628" stroke="#9fb3c8" />
<text x="396.51" y="642.00" font-size="11" font-family="Arial" fill="#52606d" text-anchor="middle">11/21</text>
<line x1="563.49" y1="624" x2="563.49" y2="628" stroke="#9fb3c8" />
<text x="563.49" y="642.00" font-size="11" font-family="Arial" fill="#52606d" text-anchor="middle">02/06</text>
<line x1="733.75" y1="624" x2="733.75" y2="628" stroke="#9fb3c8" />
<text x="733.75" y="642.00" font-size="11" font-family="Arial" fill="#52606d" text-anchor="middle">04/23</text>
<line x1="904.00" y1="624" x2="904.00" y2="628" stroke="#9fb3c8" />
<text x="904.00" y="642.00" font-size="11" font-family="Arial" fill="#52606d" text-anchor="middle">07/09</text>
<line x1="56" y1="592.18" x2="904" y2="592.18" stroke="#f0b429" stroke-dasharray="5 5" />
<text x="912.00" y="596.18" font-size="10" font-family="Arial" fill="#8d2b0b" text-anchor="start">20.0</text>
<line x1="56" y1="515.82" x2="904" y2="515.82" stroke="#f0b429" stroke-dasharray="5 5" />
<text x="912.00" y="519.82" font-size="10" font-family="Arial" fill="#8d2b0b" text-anchor="start">80.0</text>
<polyline fill="none" stroke="#2ca02c" stroke-width="2" points="82.19,541.81 85.47,542.49 88.74,545.26 92.02,544.34 95.29,535.53 98.56,534.61 101.84,528.74 105.11,531.83 108.39,526.97 111.66,543.06 114.93,543.53 118.21,534.82 121.48,529.79 124.76,522.87 128.03,522.11 131.31,515.51 134.58,526.35 137.85,539.86 141.13,537.60 144.40,548.90 147.68,541.90 150.95,537.70 154.22,533.13 157.50,531.65 160.77,521.73 164.05,523.75 167.32,526.33 170.59,536.02 173.87,543.83 177.14,567.80 180.42,575.82 183.69,583.04 186.97,582.62 190.24,582.07 193.51,575.58 196.79,566.41 200.06,547.75 203.34,551.59 206.61,552.93 209.88,550.54 213.16,543.17 216.43,540.22 219.71,531.70 222.98,531.49 226.25,520.79 229.53,519.04 232.80,517.75 236.08,515.59 239.35,517.11 242.63,538.50 245.90,557.14 249.17,570.01 252.45,585.36 255.72,595.42 259.00,598.02 262.27,596.91 265.54,597.89 268.82,606.07 272.09,604.29 275.37,595.28 278.64,581.08 281.92,571.27 285.19,569.98 288.46,567.44 291.74,549.16 295.01,537.84 298.29,566.41 301.56,546.66 304.83,548.51 308.11,541.16 311.38,536.21 314.66,538.09 317.93,539.44 321.20,547.43 324.48,555.29 327.75,565.58 331.03,557.46 334.30,540.00 337.58,526.94 340.85,516.96 344.12,518.17 347.40,524.64 350.67,534.81 353.95,553.60 357.22,566.92 360.49,579.72 363.77,583.55 367.04,578.43 370.32,580.51 373.59,576.58 376.86,586.17 380.14,584.44 383.41,581.67 386.69,581.90 389.96,563.59 393.24,567.33 396.51,575.76 399.78,552.22 403.06,535.37 406.33,523.07 409.61,513.53 412.88,517.17 416.15,522.27 419.43,526.24 422.70,528.64 425.98,527.33 429.25,524.76 432.53,517.08 435.80,511.98 439.07,514.91 442.35,547.17 445.62,570.44 448.90,583.86 452.17,593.85 455.44,598.76 458.72,597.30 461.99,595.53 465.27,590.05 468.54,579.98 471.81,561.77 475.09,544.82 478.36,532.91 481.64,530.79 484.91,538.94 488.19,555.24 491.46,565.49 494.73,571.98 498.01,586.13 501.28,578.06 504.56,562.53 507.83,548.82 511.10,560.30 514.38,562.93 517.65,552.02 520.93,572.60 524.20,583.54 527.47,594.79 530.75,597.95 534.02,595.59 537.30,584.60 540.57,576.81 543.85,574.24 547.12,567.05 550.39,558.03 553.67,563.68 556.94,570.64 560.22,572.95 563.49,553.29 566.76,539.50 570.04,532.90 573.31,526.78 576.59,531.29 579.86,538.75 583.14,538.25 586.41,540.93 589.68,547.12 592.96,552.82 596.23,557.27 599.51,564.64 602.78,560.13 606.05,562.70 609.33,567.24 612.60,570.57 615.88,579.18 619.15,580.19 622.42,559.67 625.70,553.21 628.97,536.38 632.25,531.95 635.52,529.93 638.80,533.74 642.07,549.11 645.34,559.67 648.62,575.59 651.89,590.48 655.17,589.88 658.44,598.31 661.71,589.41 664.99,586.25 668.26,582.77 671.54,593.53 674.81,599.58 678.08,602.13 681.36,585.16 684.63,569.23 687.91,557.37 691.18,547.93 694.46,529.42 697.73,519.09 701.00,512.20 704.28,507.66 707.55,502.75 710.83,499.73 714.10,497.05 717.37,495.69 720.65,494.33 723.92,498.12 727.20,499.52 730.47,497.30 733.75,502.10 737.02,503.97 740.29,510.85 743.57,538.58 746.84,552.43 750.12,547.06 753.39,538.78 756.66,539.12 759.94,530.21 763.21,529.66 766.49,541.97 769.76,533.01 773.03,529.09 776.31,540.33 779.58,551.48 782.86,534.80 786.13,540.14 789.41,548.75 792.68,565.36 795.95,568.90 799.23,574.85 802.50,579.30 805.78,573.39 809.05,570.32 812.32,557.21 815.60,537.73 818.87,526.74 822.15,518.94 825.42,517.68 828.69,543.97 831.97,568.71 835.24,580.99 838.52,585.99 841.79,596.14 845.07,598.32 848.34,600.97 851.61,598.70 854.89,600.64 858.16,583.13 861.44,554.21 864.71,554.48 867.98,566.29 871.26,572.32 874.53,581.15 877.81,592.32 881.08,591.37 884.36,586.59 887.63,589.98 890.90,596.27 894.18,581.97 897.45,575.05 900.73,553.84 904.00,538.01" />
<polyline fill="none" stroke="#d62728" stroke-width="2" points="82.19,549.94 85.47,547.46 88.74,546.73 92.02,545.93 95.29,542.46 98.56,539.84 101.84,536.14 105.11,534.71 108.39,532.13 111.66,535.77 114.93,538.36 118.21,537.18 121.48,534.71 124.76,530.76 128.03,527.88 131.31,523.76 134.58,524.62 137.85,529.70 141.13,532.34 144.40,537.86 147.68,539.20 150.95,538.70 154.22,536.84 157.50,535.11 160.77,530.65 164.05,528.35 167.32,527.68 170.59,530.46 173.87,534.92 177.14,545.88 180.42,555.86 183.69,564.92 186.97,570.82 190.24,574.57 193.51,574.91 196.79,572.07 200.06,563.97 203.34,559.84 206.61,557.54 209.88,555.20 213.16,551.19 216.43,547.53 219.71,542.26 222.98,538.67 226.25,532.71 229.53,528.15 232.80,524.68 236.08,521.65 239.35,520.14 242.63,526.26 245.90,536.55 249.17,547.70 252.45,560.26 255.72,571.98 259.00,580.66 262.27,586.07 265.54,590.01 268.82,595.36 272.09,598.34 275.37,597.32 278.64,591.91 281.92,585.03 285.19,580.01 288.46,575.82 291.74,566.93 295.01,557.24 298.29,560.29 301.56,555.75 304.83,553.34 308.11,549.28 311.38,544.92 314.66,542.65 317.93,541.58 321.20,543.53 324.48,547.45 327.75,553.49 331.03,554.82 334.30,549.88 337.58,542.23 340.85,533.81 344.12,528.60 347.40,527.28 350.67,529.79 353.95,537.73 357.22,547.46 360.49,558.21 363.77,566.66 367.04,570.58 370.32,573.89 373.59,574.79 376.86,578.58 380.14,580.53 383.41,580.91 386.69,581.24 389.96,575.36 393.24,572.68 396.51,573.71 399.78,566.54 403.06,556.15 406.33,545.13 409.61,534.59 412.88,528.79 416.15,526.61 419.43,526.49 422.70,527.21 425.98,527.25 429.25,526.42 432.53,523.30 435.80,519.53 439.07,517.99 442.35,527.72 445.62,541.96 448.90,555.92 452.17,568.57 455.44,578.63 458.72,584.85 461.99,588.41 465.27,588.96 468.54,585.96 471.81,577.90 475.09,566.87 478.36,555.55 481.64,547.30 484.91,544.51 488.19,548.09 491.46,553.89 494.73,559.92 498.01,568.66 501.28,571.79 504.56,568.70 507.83,562.08 511.10,561.48 514.38,561.97 517.65,558.65 520.93,563.30 524.20,570.05 527.47,578.29 530.75,584.85 534.02,588.43 537.30,587.15 540.57,583.70 543.85,580.55 547.12,576.05 550.39,570.04 553.67,567.92 556.94,568.83 560.22,570.20 563.49,564.56 566.76,556.21 570.04,548.44 573.31,541.22 576.59,537.91 579.86,538.19 583.14,538.21 586.41,539.12 589.68,541.78 592.96,545.46 596.23,549.40 599.51,554.48 602.78,556.36 606.05,558.48 609.33,561.40 612.60,564.46 615.88,569.37 619.15,572.97 622.42,568.54 625.70,563.43 628.97,554.41 632.25,546.93 635.52,541.26 638.80,538.75 642.07,542.21 645.34,548.03 648.62,557.21 651.89,568.30 655.17,575.50 658.44,583.10 661.71,585.20 664.99,585.55 668.26,584.63 671.54,587.59 674.81,591.59 678.08,595.10 681.36,591.79 684.63,584.27 687.91,575.30 691.18,566.18 694.46,553.93 697.73,542.31 701.00,532.28 704.28,524.07 707.55,516.96 710.83,511.22 714.10,506.49 717.37,502.89 720.65,500.04 723.92,499.40 727.20,499.44 730.47,498.73 733.75,499.85 737.02,501.22 740.29,504.43 743.57,515.82 746.84,528.02 750.12,534.37 753.39,535.84 756.66,536.93 759.94,534.69 763.21,533.02 766.49,536.00 769.76,535.00 773.03,533.03 776.31,535.47 779.58,540.80 782.86,538.80 786.13,539.25 789.41,542.42 792.68,550.06 795.95,556.34 799.23,562.51 802.50,568.11 805.78,569.87 809.05,570.02 812.32,565.75 815.60,556.41 818.87,546.52 822.15,537.32 825.42,530.78 828.69,535.17 831.97,546.35 835.24,557.90 838.52,567.26 841.79,576.89 845.07,584.03 848.34,589.68 851.61,592.69 854.89,595.34 858.16,591.27 861.44,578.92 864.71,570.77 867.98,569.28 871.26,570.29 874.53,573.91 877.81,580.05 881.08,583.82 884.36,584.74 887.63,586.49 890.90,589.75 894.18,587.15 897.45,583.12 900.73,573.36 904.00,561.58" />
<text x="824.00" y="502.00" font-size="13" font-family="Arial" fill="#2ca02c" text-anchor="start">K</text>
<text x="860.00" y="502.00" font-size="13" font-family="Arial" fill="#d62728" text-anchor="start">D</text>
</svg>