<svg xmlns="http://www.w3.org/2000/svg" width="960" height="680" viewBox="0 0 960 680"><rect width="100%" height="100%" fill="white" />
<text x="56.00" y="32.00" font-size="20" font-family="Arial" fill="#1f2933" text-anchor="start">AVGO Technical Indicators</text>
<line x1="56" y1="220" x2="904" y2="220" stroke="#cbd2d9" />
<line x1="56" y1="58" x2="56" y2="220" stroke="#cbd2d9" />
<text x="16.00" y="50.00" font-size="12" font-family="Arial" fill="#52606d" text-anchor="start">RSI14</text>
<line x1="56" y1="220.00" x2="904" y2="220.00" stroke="#edf2f7" />
<line x1="52" y1="220.00" x2="56" y2="220.00" stroke="#9fb3c8" />
<text x="48.00" y="224.00" font-size="11" font-family="Arial" fill="#52606d" text-anchor="end">-5.00</text>
<line x1="56" y1="166.00" x2="904" y2="166.00" stroke="#edf2f7" />
<line x1="52" y1="166.00" x2="56" y2="166.00" stroke="#9fb3c8" />
<text x="48.00" y="170.00" font-size="11" font-family="Arial" fill="#52606d" text-anchor="end">31.7</text>
<line x1="56" y1="112.00" x2="904" y2="112.00" stroke="#edf2f7" />
<line x1="52" y1="112.00" x2="56" y2="112.00" stroke="#9fb3c8" />
<text x="48.00" y="116.00" font-size="11" font-family="Arial" fill="#52606d" text-anchor="end">68.3</text>
<line x1="56" y1="58.00" x2="904" y2="58.00" stroke="#edf2f7" />
<line x1="52" y1="58.00" x2="56" y2="58.00" stroke="#9fb3c8" />
<text x="48.00" y="62.00" font-size="11" font-family="Arial" fill="#52606d" text-anchor="end">105</text>
<line x1="56" y1="168.45" x2="904" y2="168.45" stroke="#f0b429" stroke-dasharray="5 5" />
<text x="912.00" y="172.45" font-size="10" font-family="Arial" fill="#8d2b0b" text-anchor="start">30.0</text>
<line x1="56" y1="109.55" x2="904" y2="109.55" stroke="#f0b429" stroke-dasharray="5 5" />
<text x="912.00" y="113.55" font-size="10" font-family="Arial" fill="#8d2b0b" text-anchor="start">70.0</text>
<polyline fill="none" stroke="#1f77b4" stroke-width="2" points="101.84,116.38 105.11,124.05 108.39,116.21 111.66,123.01 114.93,116.00 118.21,114.46 121.48,113.55 124.76,115.27 128.03,108.52 131.31,114.51 134.58,112.83 137.85,120.58 141.13,121.48 144.40,136.54 147.68,140.93 150.95,142.76 154.22,137.24 157.50,136.95 160.77,132.22 164.05,129.51 167.32,120.50 170.59,136.04 173.87,135.08 177.14,130.45 180.42,126.54 183.69,106.09 186.97,101.26 190.24,111.99 193.51,99.15 196.79,108.48 200.06,108.39 203.34,106.72 206.61,110.84 209.88,123.49 213.16,124.19 216.43,124.56 219.71,129.68 222.98,129.58 226.25,129.29 229.53,132.62 232.80,134.27 236.08,141.00 239.35,138.94 242.63,135.38 245.90,130.70 249.17,130.51 252.45,134.16 255.72,133.12 259.00,123.77 262.27,124.46 265.54,147.63 268.82,122.29 272.09,132.69 275.37,128.23 278.64,126.52 281.92,130.62 285.19,130.70 288.46,136.44 291.74,138.45 295.01,135.10 298.29,127.54 301.56,122.20 304.83,115.77 308.11,109.38 311.38,118.75 314.66,124.91 317.93,130.90 321.20,139.00 324.48,134.13 327.75,136.73 331.03,141.36 334.30,134.74 337.58,139.65 340.85,137.18 344.12,148.02 347.40,145.99 350.67,145.82 353.95,147.43 357.22,135.65 360.49,141.64 363.77,146.47 367.04,122.56 370.32,119.35 373.59,114.13 376.86,112.04 380.14,124.75 383.41,127.83 386.69,128.51 389.96,128.27 393.24,123.16 396.51,117.75 399.78,115.35 403.06,112.36 406.33,118.36 409.61,147.78 412.88,156.02 416.15,155.11 419.43,160.85 422.70,158.33 425.98,151.66 429.25,150.57 432.53,145.61 435.80,145.04 439.07,143.76 442.35,145.42 445.62,145.08 448.90,147.56 452.17,146.26 455.44,149.24 458.72,148.90 461.99,149.11 465.27,157.20 468.54,144.85 471.81,138.69 475.09,136.72 478.36,148.18 481.64,145.41 484.91,138.14 488.19,151.33 491.46,153.56 494.73,155.52 498.01,158.68 501.28,154.02 504.56,146.77 507.83,146.37 511.10,148.28 514.38,147.70 517.65,147.87 520.93,156.50 524.20,164.40 527.47,161.48 530.75,139.94 534.02,132.03 537.30,134.85 540.57,133.16 543.85,142.37 547.12,146.64 550.39,140.60 553.67,139.81 556.94,139.40 560.22,140.60 563.49,142.72 566.76,147.09 570.04,140.03 573.31,149.21 576.59,150.91 579.86,151.51 583.14,155.58 586.41,151.03 589.68,135.31 592.96,137.54 596.23,125.16 599.51,128.39 602.78,129.45 606.05,135.23 609.33,147.29 612.60,144.64 615.88,147.61 619.15,151.87 622.42,147.65 625.70,154.89 628.97,142.34 632.25,145.71 635.52,145.20 638.80,152.59 642.07,158.53 645.34,162.93 648.62,147.07 651.89,143.68 655.17,142.76 658.44,142.86 661.71,127.31 664.99,117.67 668.26,115.52 671.54,108.13 674.81,105.03 678.08,104.64 681.36,99.17 684.63,98.62 687.91,96.14 691.18,103.63 694.46,102.68 697.73,96.07 701.00,98.94 704.28,98.04 707.55,103.16 710.83,120.94 714.10,118.12 717.37,112.61 720.65,110.96 723.92,115.49 727.20,110.56 730.47,112.44 733.75,124.18 737.02,115.60 740.29,116.95 743.57,124.64 746.84,126.68 750.12,115.25 753.39,126.26 756.66,129.37 759.94,135.79 763.21,131.95 766.49,134.15 769.76,134.46 773.03,129.48 776.31,129.61 779.58,126.55 782.86,115.55 786.13,109.91 789.41,102.55 792.68,104.63 795.95,141.82 799.23,153.82 802.50,148.83 805.78,150.37 809.05,156.94 812.32,150.45 815.60,151.66 818.87,145.94 822.15,152.20 825.42,144.67 828.69,137.04 831.97,144.19 835.24,148.41 838.52,147.53 841.79,148.73 845.07,153.83 848.34,149.94 851.61,147.18 854.89,150.64 858.16,154.16 861.44,146.64 864.71,148.01 867.98,138.63 871.26,132.90 874.53,133.51 877.81,141.69 881.08,139.08 884.36,136.41 887.63,146.34 890.90,147.99 894.18,143.73 897.45,139.07 900.73,133.66 904.00,136.20" />
<text x="808.00" y="76.00" font-size="13" font-family="Arial" fill="#1f77b4" text-anchor="start">RSI14</text>
<line x1="56" y1="432" x2="904" y2="432" stroke="#cbd2d9" />
<line x1="56" y1="272" x2="56" y2="432" stroke="#cbd2d9" />
<text x="16.00" y="264.00" font-size="12" font-family="Arial" fill="#52606d" text-anchor="start">MACD</text>
<line x1="56" y1="432.00" x2="904" y2="432.00" stroke="#edf2f7" />
<line x1="52" y1="432.00" x2="56" y2="432.00" stroke="#9fb3c8" />
<text x="48.00" y="436.00" font-size="11" font-family="Arial" fill="#52606d" text-anchor="end">-13.8</text>
<line x1="56" y1="378.67" x2="904" y2="378.67" stroke="#edf2f7" />
<line x1="52" y1="378.67" x2="56" y2="378.67" stroke="#9fb3c8" />
<text x="48.00" y="382.67" font-size="11" font-family="Arial" fill="#52606d" text-anchor="end">-0.01</text>
<line x1="56" y1="325.33" x2="904" y2="325.33" stroke="#edf2f7" />
<line x1="52" y1="325.33" x2="56" y2="325.33" stroke="#9fb3c8" />
<text x="48.00" y="329.33" font-size="11" font-family="Arial" fill="#52606d" text-anchor="end">13.7</text>
<line x1="56" y1="272.00" x2="904" y2="272.00" stroke="#edf2f7" />
<line x1="52" y1="272.00" x2="56" y2="272.00" stroke="#9fb3c8" />
<text x="48.00" y="276.00" font-size="11" font-family="Arial" fill="#52606d" text-anchor="end">27.5</text>
<line x1="56" y1="378.63" x2="904" y2="378.63" stroke="#9fb3c8" stroke-dasharray="4 4" />
<rect x="136.71" y="378.63" width="2.28" height="0.00" fill="#2f9e44" opacity="0.55" />
<rect x="139.99" y="378.63" width="2.28" height="1.09" fill="#d64545" opacity="0.55" />
<rect x="143.26" y="378.63" width="2.28" height="4.64" fill="#d64545" opacity="0.55" />
<rect x="146.53" y="378.63" width="2.28" height="7.79" fill="#d64545" opacity="0.55" />
<rect x="149.81" y="378.63" width="2.28" height="9.97" fill="#d64545" opacity="0.55" />
<rect x="153.08" y="378.63" width="2.28" height="9.95" fill="#d64545" opacity="0.55" />
<rect x="156.36" y="378.63" width="2.28" height="9.54" fill="#d64545" opacity="0.55" />
<rect x="159.63" y="378.63" width="2.28" height="8.02" fill="#d64545" opacity="0.55" />
<rect x="162.90" y="378.63" width="2.28" height="6.24" fill="#d64545" opacity="0.55" />
<rect x="166.18" y="378.63" width="2.28" height="2.86" fill="#d64545" opacity="0.55" />
<rect x="169.45" y="378.63" width="2.28" height="3.49" fill="#d64545" opacity="0.55" />
<rect x="172.73" y="378.63" width="2.28" height="3.61" fill="#d64545" opacity="0.55" />
<rect x="176.00" y="378.63" width="2.28" height="2.58" fill="#d64545" opacity="0.55" />
<rect x="179.28" y="378.63" width="2.28" height="1.00" fill="#d64545" opacity="0.55" />
<rect x="182.55" y="371.60" width="2.28" height="7.02" fill="#2f9e44" opacity="0.55" />
<rect x="185.82" y="364.42" width="2.28" height="14.21" fill="#2f9e44" opacity="0.55" />
<rect x="189.10" y="363.02" width="2.28" height="15.61" fill="#2f9e44" opacity="0.55" />
<rect x="192.37" y="355.06" width="2.28" height="23.57" fill="#2f9e44" opacity="0.55" />
<rect x="195.65" y="353.98" width="2.28" height="24.64" fill="#2f9e44" opacity="0.55" />
<rect x="198.92" y="354.84" width="2.28" height="23.79" fill="#2f9e44" opacity="0.55" />
<rect x="202.19" y="355.93" width="2.28" height="22.69" fill="#2f9e44" opacity="0.55" />
<rect x="205.47" y="359.21" width="2.28" height="19.41" fill="#2f9e44" opacity="0.55" />
<rect x="208.74" y="366.13" width="2.28" height="12.50" fill="#2f9e44" opacity="0.55" />
<rect x="212.02" y="371.80" width="2.28" height="6.83" fill="#2f9e44" opacity="0.55" />
<rect x="215.29" y="376.29" width="2.28" height="2.33" fill="#2f9e44" opacity="0.55" />
<rect x="218.57" y="378.63" width="2.28" height="2.47" fill="#d64545" opacity="0.55" />
<rect x="221.84" y="378.63" width="2.28" height="5.81" fill="#d64545" opacity="0.55" />
<rect x="225.11" y="378.63" width="2.28" height="7.97" fill="#d64545" opacity="0.55" />
<rect x="228.39" y="378.63" width="2.28" height="10.16" fill="#d64545" opacity="0.55" />
<rect x="231.66" y="378.63" width="2.28" height="11.82" fill="#d64545" opacity="0.55" />
<rect x="234.94" y="378.63" width="2.28" height="14.28" fill="#d64545" opacity="0.55" />
<rect x="238.21" y="378.63" width="2.28" height="14.95" fill="#d64545" opacity="0.55" />
<rect x="241.48" y="378.63" width="2.28" height="14.07" fill="#d64545" opacity="0.55" />
<rect x="244.76" y="378.63" width="2.28" height="11.92" fill="#d64545" opacity="0.55" />
<rect x="248.03" y="378.63" width="2.28" height="10.17" fill="#d64545" opacity="0.55" />
<rect x="251.31" y="378.63" width="2.28" height="9.51" fill="#d64545" opacity="0.55" />
<rect x="254.58" y="378.63" width="2.28" height="8.61" fill="#d64545" opacity="0.55" />
<rect x="257.85" y="378.63" width="2.28" height="5.57" fill="#d64545" opacity="0.55" />
<rect x="261.13" y="378.63" width="2.28" height="3.70" fill="#d64545" opacity="0.55" />
<rect x="264.40" y="378.63" width="2.28" height="7.54" fill="#d64545" opacity="0.55" />
<rect x="267.68" y="378.63" width="2.28" height="1.84" fill="#d64545" opacity="0.55" />
<rect x="270.95" y="378.63" width="2.28" height="1.44" fill="#d64545" opacity="0.55" />
<rect x="274.23" y="378.14" width="2.28" height="0.49" fill="#2f9e44" opacity="0.55" />
<rect x="277.50" y="376.44" width="2.28" height="2.19" fill="#2f9e44" opacity="0.55" />
<rect x="280.77" y="376.85" width="2.28" height="1.78" fill="#2f9e44" opacity="0.55" />
<rect x="284.05" y="377.40" width="2.28" height="1.23" fill="#2f9e44" opacity="0.55" />
<rect x="287.32" y="378.63" width="2.28" height="0.99" fill="#d64545" opacity="0.55" />
<rect x="290.60" y="378.63" width="2.28" height="3.08" fill="#d64545" opacity="0.55" />
<rect x="293.87" y="378.63" width="2.28" height="3.43" fill="#d64545" opacity="0.55" />
<rect x="297.14" y="378.63" width="2.28" height="1.21" fill="#d64545" opacity="0.55" />
<rect x="300.42" y="376.60" width="2.28" height="2.03" fill="#2f9e44" opacity="0.55" />
<rect x="303.69" y="372.16" width="2.28" height="6.47" fill="#2f9e44" opacity="0.55" />
<rect x="306.97" y="366.69" width="2.28" height="11.93" fill="#2f9e44" opacity="0.55" />
<rect x="310.24" y="366.44" width="2.28" height="12.18" fill="#2f9e44" opacity="0.55" />
<rect x="313.51" y="368.85" width="2.28" height="9.78" fill="#2f9e44" opacity="0.55" />
<rect x="316.79" y="372.87" width="2.28" height="5.76" fill="#2f9e44" opacity="0.55" />
<rect x="320.06" y="378.58" width="2.28" height="0.05" fill="#2f9e44" opacity="0.55" />
<rect x="323.34" y="378.63" width="2.28" height="2.07" fill="#d64545" opacity="0.55" />
<rect x="326.61" y="378.63" width="2.28" height="4.40" fill="#d64545" opacity="0.55" />
<rect x="329.89" y="378.63" width="2.28" height="7.40" fill="#d64545" opacity="0.55" />
<rect x="333.16" y="378.63" width="2.28" height="6.93" fill="#d64545" opacity="0.55" />
<rect x="336.43" y="378.63" width="2.28" height="8.08" fill="#d64545" opacity="0.55" />
<rect x="339.71" y="378.63" width="2.28" height="7.78" fill="#d64545" opacity="0.55" />
<rect x="342.98" y="378.63" width="2.28" height="11.13" fill="#d64545" opacity="0.55" />
<rect x="346.26" y="378.63" width="2.28" height="12.20" fill="#d64545" opacity="0.55" />
<rect x="349.53" y="378.63" width="2.28" height="12.32" fill="#d64545" opacity="0.55" />
<rect x="352.80" y="378.63" width="2.28" height="12.39" fill="#d64545" opacity="0.55" />
<rect x="356.08" y="378.63" width="2.28" height="8.44" fill="#d64545" opacity="0.55" />
<rect x="359.35" y="378.63" width="2.28" height="7.45" fill="#d64545" opacity="0.55" />
<rect x="362.63" y="378.63" width="2.28" height="8.11" fill="#d64545" opacity="0.55" />
<rect x="365.90" y="377.46" width="2.28" height="1.16" fill="#2f9e44" opacity="0.55" />
<rect x="369.18" y="370.00" width="2.28" height="8.63" fill="#2f9e44" opacity="0.55" />
<rect x="372.45" y="362.74" width="2.28" height="15.89" fill="#2f9e44" opacity="0.55" />
<rect x="375.72" y="357.77" width="2.28" height="20.85" fill="#2f9e44" opacity="0.55" />
<rect x="379.00" y="360.04" width="2.28" height="18.58" fill="#2f9e44" opacity="0.55" />
<rect x="382.27" y="363.72" width="2.28" height="14.90" fill="#2f9e44" opacity="0.55" />
<rect x="385.55" y="367.26" width="2.28" height="11.37" fill="#2f9e44" opacity="0.55" />
<rect x="388.82" y="370.20" width="2.28" height="8.43" fill="#2f9e44" opacity="0.55" />
<rect x="392.09" y="370.47" width="2.28" height="8.16" fill="#2f9e44" opacity="0.55" />
<rect x="395.37" y="368.67" width="2.28" height="9.96" fill="#2f9e44" opacity="0.55" />
<rect x="398.64" y="367.08" width="2.28" height="11.55" fill="#2f9e44" opacity="0.55" />
<rect x="401.92" y="365.36" width="2.28" height="13.26" fill="#2f9e44" opacity="0.55" />
<rect x="405.19" y="366.96" width="2.28" height="11.67" fill="#2f9e44" opacity="0.55" />
<rect x="408.46" y="378.63" width="2.28" height="1.75" fill="#d64545" opacity="0.55" />
<rect x="411.74" y="378.63" width="2.28" height="15.40" fill="#d64545" opacity="0.55" />
<rect x="415.01" y="378.63" width="2.28" height="23.11" fill="#d64545" opacity="0.55" />
<rect x="418.29" y="378.63" width="2.28" height="30.79" fill="#d64545" opacity="0.55" />
<rect x="421.56" y="378.63" width="2.28" height="33.25" fill="#d64545" opacity="0.55" />
<rect x="424.84" y="378.63" width="2.28" height="30.61" fill="#d64545" opacity="0.55" />
<rect x="428.11" y="378.63" width="2.28" height="26.99" fill="#d64545" opacity="0.55" />
<rect x="431.38" y="378.63" width="2.28" height="21.38" fill="#d64545" opacity="0.55" />
<rect x="434.66" y="378.63" width="2.28" height="16.48" fill="#d64545" opacity="0.55" />
<rect x="437.93" y="378.63" width="2.28" height="11.99" fill="#d64545" opacity="0.55" />
<rect x="441.21" y="378.63" width="2.28" height="9.12" fill="#d64545" opacity="0.55" />
<rect x="444.48" y="378.63" width="2.28" height="6.61" fill="#d64545" opacity="0.55" />
<rect x="447.75" y="378.63" width="2.28" height="5.47" fill="#d64545" opacity="0.55" />
<rect x="451.03" y="378.63" width="2.28" height="3.94" fill="#d64545" opacity="0.55" />
<rect x="454.30" y="378.63" width="2.28" height="3.65" fill="#d64545" opacity="0.55" />
<rect x="457.58" y="378.63" width="2.28" height="3.02" fill="#d64545" opacity="0.55" />
<rect x="460.85" y="378.63" width="2.28" height="2.36" fill="#d64545" opacity="0.55" />
<rect x="464.12" y="378.63" width="2.28" height="4.35" fill="#d64545" opacity="0.55" />
<rect x="467.40" y="378.63" width="2.28" height="2.10" fill="#d64545" opacity="0.55" />
<rect x="470.67" y="377.23" width="2.28" height="1.40" fill="#2f9e44" opacity="0.55" />
<rect x="473.95" y="374.32" width="2.28" height="4.31" fill="#2f9e44" opacity="0.55" />
<rect x="477.22" y="376.17" width="2.28" height="2.46" fill="#2f9e44" opacity="0.55" />
<rect x="480.50" y="376.50" width="2.28" height="2.12" fill="#2f9e44" opacity="0.55" />
<rect x="483.77" y="374.51" width="2.28" height="4.12" fill="#2f9e44" opacity="0.55" />
<rect x="487.04" y="378.02" width="2.28" height="0.60" fill="#2f9e44" opacity="0.55" />
<rect x="490.32" y="378.63" width="2.28" height="2.40" fill="#d64545" opacity="0.55" />
<rect x="493.59" y="378.63" width="2.28" height="4.81" fill="#d64545" opacity="0.55" />
<rect x="496.87" y="378.63" width="2.28" height="7.23" fill="#d64545" opacity="0.55" />
<rect x="500.14" y="378.63" width="2.28" height="6.99" fill="#d64545" opacity="0.55" />
<rect x="503.41" y="378.63" width="2.28" height="4.30" fill="#d64545" opacity="0.55" />
<rect x="506.69" y="378.63" width="2.28" height="2.06" fill="#d64545" opacity="0.55" />
<rect x="509.96" y="378.63" width="2.28" height="0.93" fill="#d64545" opacity="0.55" />
<rect x="513.24" y="378.44" width="2.28" height="0.19" fill="#2f9e44" opacity="0.55" />
<rect x="516.51" y="377.57" width="2.28" height="1.06" fill="#2f9e44" opacity="0.55" />
<rect x="519.79" y="378.63" width="2.28" height="0.88" fill="#d64545" opacity="0.55" />
<rect x="523.06" y="378.63" width="2.28" height="4.85" fill="#d64545" opacity="0.55" />
<rect x="526.33" y="378.63" width="2.28" height="6.24" fill="#d64545" opacity="0.55" />
<rect x="529.61" y="378.63" width="2.28" height="1.00" fill="#d64545" opacity="0.55" />
<rect x="532.88" y="373.32" width="2.28" height="5.30" fill="#2f9e44" opacity="0.55" />
<rect x="536.16" y="370.27" width="2.28" height="8.36" fill="#2f9e44" opacity="0.55" />
<rect x="539.43" y="368.00" width="2.28" height="10.63" fill="#2f9e44" opacity="0.55" />
<rect x="542.70" y="369.79" width="2.28" height="8.84" fill="#2f9e44" opacity="0.55" />
<rect x="545.98" y="372.67" width="2.28" height="5.95" fill="#2f9e44" opacity="0.55" />
<rect x="549.25" y="372.81" width="2.28" height="5.82" fill="#2f9e44" opacity="0.55" />
<rect x="552.53" y="372.81" width="2.28" height="5.82" fill="#2f9e44" opacity="0.55" />
<rect x="555.80" y="372.85" width="2.28" height="5.77" fill="#2f9e44" opacity="0.55" />
<rect x="559.07" y="373.39" width="2.28" height="5.24" fill="#2f9e44" opacity="0.55" />
<rect x="562.35" y="374.46" width="2.28" height="4.17" fill="#2f9e44" opacity="0.55" />
<rect x="565.62" y="376.43" width="2.28" height="2.19" fill="#2f9e44" opacity="0.55" />
<rect x="568.90" y="376.01" width="2.28" height="2.62" fill="#2f9e44" opacity="0.55" />
<rect x="572.17" y="378.40" width="2.28" height="0.23" fill="#2f9e44" opacity="0.55" />
<rect x="575.45" y="378.63" width="2.28" height="1.72" fill="#d64545" opacity="0.55" />
<rect x="578.72" y="378.63" width="2.28" height="2.93" fill="#d64545" opacity="0.55" />
<rect x="581.99" y="378.63" width="2.28" height="4.66" fill="#d64545" opacity="0.55" />
<rect x="585.27" y="378.63" width="2.28" height="4.48" fill="#d64545" opacity="0.55" />
<rect x="588.54" y="378.63" width="2.28" height="0.24" fill="#d64545" opacity="0.55" />
<rect x="591.82" y="376.64" width="2.28" height="1.98" fill="#2f9e44" opacity="0.55" />
<rect x="595.09" y="371.47" width="2.28" height="7.16" fill="#2f9e44" opacity="0.55" />
<rect x="598.36" y="369.27" width="2.28" height="9.35" fill="#2f9e44" opacity="0.55" />
<rect x="601.64" y="368.55" width="2.28" height="10.07" fill="#2f9e44" opacity="0.55" />
<rect x="604.91" y="369.95" width="2.28" height="8.67" fill="#2f9e44" opacity="0.55" />
<rect x="608.19" y="374.65" width="2.28" height="3.98" fill="#2f9e44" opacity="0.55" />
<rect x="611.46" y="377.09" width="2.28" height="1.54" fill="#2f9e44" opacity="0.55" />
<rect x="614.73" y="378.63" width="2.28" height="0.93" fill="#d64545" opacity="0.55" />
<rect x="618.01" y="378.63" width="2.28" height="3.73" fill="#d64545" opacity="0.55" />
<rect x="621.28" y="378.63" width="2.28" height="4.28" fill="#d64545" opacity="0.55" />
<rect x="624.56" y="378.63" width="2.28" height="6.66" fill="#d64545" opacity="0.55" />
<rect x="627.83" y="378.63" width="2.28" height="4.61" fill="#d64545" opacity="0.55" />
<rect x="631.11" y="378.63" width="2.28" height="4.05" fill="#d64545" opacity="0.55" />
<rect x="634.38" y="378.63" width="2.28" height="3.28" fill="#d64545" opacity="0.55" />
<rect x="637.65" y="378.63" width="2.28" height="4.85" fill="#d64545" opacity="0.55" />
<rect x="640.93" y="378.63" width="2.28" height="7.64" fill="#d64545" opacity="0.55" />
<rect x="644.20" y="378.63" width="2.28" height="10.66" fill="#d64545" opacity="0.55" />
<rect x="647.48" y="378.63" width="2.28" height="7.88" fill="#d64545" opacity="0.55" />
<rect x="650.75" y="378.63" width="2.28" height="4.58" fill="#d64545" opacity="0.55" />
<rect x="654.02" y="378.63" width="2.28" height="1.83" fill="#d64545" opacity="0.55" />
<rect x="657.30" y="378.50" width="2.28" height="0.13" fill="#2f9e44" opacity="0.55" />
<rect x="660.57" y="372.27" width="2.28" height="6.36" fill="#2f9e44" opacity="0.55" />
<rect x="663.85" y="364.42" width="2.28" height="14.21" fill="#2f9e44" opacity="0.55" />
<rect x="667.12" y="359.06" width="2.28" height="19.57" fill="#2f9e44" opacity="0.55" />
<rect x="670.40" y="352.53" width="2.28" height="26.10" fill="#2f9e44" opacity="0.55" />
<rect x="673.67" y="347.75" width="2.28" height="30.87" fill="#2f9e44" opacity="0.55" />
<rect x="676.94" y="346.17" width="2.28" height="32.46" fill="#2f9e44" opacity="0.55" />
<rect x="680.22" y="343.06" width="2.28" height="35.57" fill="#2f9e44" opacity="0.55" />
<rect x="683.49" y="342.74" width="2.28" height="35.89" fill="#2f9e44" opacity="0.55" />
<rect x="686.77" y="342.71" width="2.28" height="35.92" fill="#2f9e44" opacity="0.55" />
<rect x="690.04" y="346.65" width="2.28" height="31.98" fill="#2f9e44" opacity="0.55" />
<rect x="693.31" y="350.60" width="2.28" height="28.03" fill="#2f9e44" opacity="0.55" />
<rect x="696.59" y="349.99" width="2.28" height="28.64" fill="#2f9e44" opacity="0.55" />
<rect x="699.86" y="352.34" width="2.28" height="26.29" fill="#2f9e44" opacity="0.55" />
<rect x="703.14" y="355.12" width="2.28" height="23.50" fill="#2f9e44" opacity="0.55" />
<rect x="706.41" y="359.90" width="2.28" height="18.72" fill="#2f9e44" opacity="0.55" />
<rect x="709.68" y="369.15" width="2.28" height="9.48" fill="#2f9e44" opacity="0.55" />
<rect x="712.96" y="374.79" width="2.28" height="3.84" fill="#2f9e44" opacity="0.55" />
<rect x="716.23" y="376.32" width="2.28" height="2.31" fill="#2f9e44" opacity="0.55" />
<rect x="719.51" y="377.21" width="2.28" height="1.42" fill="#2f9e44" opacity="0.55" />
<rect x="722.78" y="378.63" width="2.28" height="1.15" fill="#d64545" opacity="0.55" />
<rect x="726.06" y="378.63" width="2.28" height="0.78" fill="#d64545" opacity="0.55" />
<rect x="729.33" y="378.63" width="2.28" height="1.74" fill="#d64545" opacity="0.55" />
<rect x="732.60" y="378.63" width="2.28" height="6.18" fill="#d64545" opacity="0.55" />
<rect x="735.88" y="378.63" width="2.28" height="5.07" fill="#d64545" opacity="0.55" />
<rect x="739.15" y="378.63" width="2.28" height="5.23" fill="#d64545" opacity="0.55" />
<rect x="742.43" y="378.63" width="2.28" height="8.02" fill="#d64545" opacity="0.55" />
<rect x="745.70" y="378.63" width="2.28" height="10.67" fill="#d64545" opacity="0.55" />
<rect x="748.97" y="378.63" width="2.28" height="6.76" fill="#d64545" opacity="0.55" />
<rect x="752.25" y="378.63" width="2.28" height="8.22" fill="#d64545" opacity="0.55" />
<rect x="755.52" y="378.63" width="2.28" height="10.45" fill="#d64545" opacity="0.55" />
<rect x="758.80" y="378.63" width="2.28" height="14.29" fill="#d64545" opacity="0.55" />
<rect x="762.07" y="378.63" width="2.28" height="14.88" fill="#d64545" opacity="0.55" />
<rect x="765.34" y="378.63" width="2.28" height="15.81" fill="#d64545" opacity="0.55" />
<rect x="768.62" y="378.63" width="2.28" height="16.18" fill="#d64545" opacity="0.55" />
<rect x="771.89" y="378.63" width="2.28" height="14.10" fill="#d64545" opacity="0.55" />
<rect x="775.17" y="378.63" width="2.28" height="12.53" fill="#d64545" opacity="0.55" />
<rect x="778.44" y="378.63" width="2.28" height="10.14" fill="#d64545" opacity="0.55" />
<rect x="781.72" y="378.63" width="2.28" height="3.51" fill="#d64545" opacity="0.55" />
<rect x="784.99" y="374.92" width="2.28" height="3.70" fill="#2f9e44" opacity="0.55" />
<rect x="788.26" y="365.65" width="2.28" height="12.98" fill="#2f9e44" opacity="0.55" />
<rect x="791.54" y="361.52" width="2.28" height="17.11" fill="#2f9e44" opacity="0.55" />
<rect x="794.81" y="375.19" width="2.28" height="3.44" fill="#2f9e44" opacity="0.55" />
<rect x="798.09" y="378.63" width="2.28" height="13.98" fill="#d64545" opacity="0.55" />
<rect x="801.36" y="378.63" width="2.28" height="21.91" fill="#d64545" opacity="0.55" />
<rect x="804.63" y="378.63" width="2.28" height="27.22" fill="#d64545" opacity="0.55" />
<rect x="807.91" y="378.63" width="2.28" height="34.40" fill="#d64545" opacity="0.55" />
<rect x="811.18" y="378.63" width="2.28" height="34.02" fill="#d64545" opacity="0.55" />
<rect x="814.46" y="378.63" width="2.28" height="33.03" fill="#d64545" opacity="0.55" />
<rect x="817.73" y="378.63" width="2.28" height="27.83" fill="#d64545" opacity="0.55" />
<rect x="821.01" y="378.63" width="2.28" height="27.41" fill="#d64545" opacity="0.55" />
<rect x="824.28" y="378.63" width="2.28" height="21.67" fill="#d64545" opacity="0.55" />
<rect x="827.55" y="378.63" width="2.28" height="12.30" fill="#d64545" opacity="0.55" />
<rect x="830.83" y="378.63" width="2.28" height="10.26" fill="#d64545" opacity="0.55" />
<rect x="834.10" y="378.63" width="2.28" height="11.28" fill="#d64545" opacity="0.55" />
<rect x="837.38" y="378.63" width="2.28" height="10.70" fill="#d64545" opacity="0.55" />
<rect x="840.65" y="378.63" width="2.28" height="10.37" fill="#d64545" opacity="0.55" />
<rect x="843.92" y="378.63" width="2.28" height="12.85" fill="#d64545" opacity="0.55" />
<rect x="847.20" y="378.63" width="2.28" height="11.65" fill="#d64545" opacity="0.55" />
<rect x="850.47" y="378.63" width="2.28" height="8.72" fill="#d64545" opacity="0.55" />
<rect x="853.75" y="378.63" width="2.28" height="8.22" fill="#d64545" opacity="0.55" />
<rect x="857.02" y="378.63" width="2.28" height="9.38" fill="#d64545" opacity="0.55" />
<rect x="860.29" y="378.63" width="2.28" height="5.96" fill="#d64545" opacity="0.55" />
<rect x="863.57" y="378.63" width="2.28" height="3.94" fill="#d64545" opacity="0.55" />
<rect x="866.84" y="376.31" width="2.28" height="2.31" fill="#2f9e44" opacity="0.55" />
<rect x="870.12" y="369.10" width="2.28" height="9.52" fill="#2f9e44" opacity="0.55" />
<rect x="873.39" y="365.05" width="2.28" height="13.58" fill="#2f9e44" opacity="0.55" />
<rect x="876.67" y="366.87" width="2.28" height="11.76" fill="#2f9e44" opacity="0.55" />
<rect x="879.94" y="367.11" width="2.28" height="11.51" fill="#2f9e44" opacity="0.55" />
<rect x="883.21" y="366.36" width="2.28" height="12.27" fill="#2f9e44" opacity="0.55" />
<rect x="886.49" y="371.23" width="2.28" height="7.40" fill="#2f9e44" opacity="0.55" />
<rect x="889.76" y="375.37" width="2.28" height="3.25" fill="#2f9e44" opacity="0.55" />
<rect x="893.04" y="376.15" width="2.28" height="2.48" fill="#2f9e44" opacity="0.55" />
<rect x="896.31" y="374.52" width="2.28" height="4.11" fill="#2f9e44" opacity="0.55" />
<rect x="899.58" y="371.00" width="2.28" height="7.63" fill="#2f9e44" opacity="0.55" />
<rect x="902.86" y="370.11" width="2.28" height="8.51" fill="#2f9e44" opacity="0.55" />
<polyline fill="none" stroke="#1f77b4" stroke-width="2" points="137.85,349.89 141.13,351.25 144.40,355.96 147.68,361.06 150.95,365.73 154.22,368.19 157.50,370.17 160.77,370.65 164.05,370.43 167.32,367.78 170.59,369.27 173.87,370.30 177.14,369.92 180.42,368.58 183.69,358.80 186.97,348.06 190.24,342.76 193.51,328.91 196.79,321.67 200.06,316.58 203.34,312.00 206.61,310.43 209.88,314.22 213.16,318.18 216.43,322.10 219.71,327.52 222.98,332.30 226.25,336.47 229.53,341.19 232.80,345.81 236.08,351.84 239.35,356.25 242.63,358.89 245.90,359.71 249.17,360.51 252.45,362.23 255.72,363.48 259.00,361.83 262.27,360.88 265.54,366.62 268.82,361.38 272.09,361.34 275.37,359.29 278.64,357.03 281.92,357.00 285.19,357.24 288.46,359.70 291.74,362.57 295.01,363.78 298.29,361.86 301.56,358.12 304.83,352.06 308.11,343.61 311.38,340.31 314.66,340.27 317.93,342.86 321.20,348.55 324.48,351.19 327.75,354.62 331.03,359.47 334.30,360.73 337.58,363.90 340.85,365.55 344.12,371.68 347.40,375.80 350.67,379.00 353.95,382.17 357.22,380.32 360.49,381.20 363.77,383.89 367.04,374.32 370.32,364.70 373.59,353.46 376.86,343.29 380.14,340.91 383.41,340.87 386.69,341.56 389.96,342.39 393.24,340.63 396.51,336.33 399.78,331.86 403.06,326.83 406.33,325.51 409.61,339.36 412.88,356.86 416.15,370.35 419.43,385.72 422.70,396.50 425.98,401.51 429.25,404.64 432.53,404.37 435.80,403.59 439.07,402.10 442.35,401.51 445.62,400.65 448.90,400.88 452.17,400.34 455.44,400.96 458.72,401.08 461.99,401.01 465.27,404.09 468.54,402.37 471.81,398.51 475.09,394.53 478.36,395.76 481.64,395.57 484.91,392.55 488.19,395.91 491.46,399.52 494.73,403.13 498.01,407.35 501.28,408.86 504.56,407.24 507.83,405.51 511.10,404.63 514.38,403.46 517.65,402.32 520.93,404.48 524.20,409.66 527.47,412.61 530.75,407.63 534.02,400.00 537.30,394.85 540.57,389.92 543.85,389.50 547.12,390.90 550.39,389.58 553.67,388.13 556.94,386.73 560.22,385.96 563.49,385.98 566.76,387.41 570.04,386.32 573.31,388.66 576.59,391.04 579.86,392.98 583.14,395.88 586.41,396.81 589.68,392.64 592.96,389.92 596.23,382.95 599.51,378.42 602.78,375.18 606.05,374.41 609.33,378.11 612.60,380.17 615.88,382.87 619.15,386.60 622.42,388.23 625.70,392.27 628.97,391.37 632.25,391.82 635.52,391.87 638.80,394.65 642.07,399.35 645.34,405.04 648.62,404.23 651.89,402.07 655.17,399.78 658.44,397.79 661.71,389.97 664.99,378.57 668.26,368.32 671.54,355.26 674.81,342.77 678.08,333.07 681.36,321.07 684.63,311.78 687.91,302.77 691.18,298.71 694.46,295.66 697.73,287.88 701.00,283.67 704.28,280.57 707.55,280.67 710.83,287.54 714.10,292.23 717.37,293.18 720.65,293.71 723.92,296.58 727.20,296.40 730.47,297.79 733.75,303.78 737.02,303.94 740.29,305.40 743.57,310.20 746.84,315.51 750.12,313.29 753.39,316.80 756.66,321.65 759.94,329.07 763.21,333.38 766.49,338.26 769.76,342.67 773.03,344.11 776.31,345.68 779.58,345.82 782.86,340.07 786.13,331.93 789.41,319.41 792.68,311.00 795.95,323.82 799.23,344.73 802.50,358.14 805.78,370.25 809.05,386.04 812.32,394.15 815.60,401.42 818.87,403.19 822.15,409.61 825.42,409.29 828.69,403.00 831.97,403.53 835.24,407.37 838.52,409.45 841.79,411.72 845.07,417.41 848.34,419.13 851.61,418.37 854.89,419.93 858.16,423.43 861.44,421.50 864.71,420.46 867.98,413.64 871.26,404.04 874.53,396.59 877.81,395.48 881.08,392.84 884.36,389.02 887.63,392.04 890.90,395.37 894.18,395.52 897.45,392.87 900.73,387.44 904.00,384.43" />
<polyline fill="none" stroke="#ff7f0e" stroke-width="2" points="137.85,349.89 141.13,350.16 144.40,351.32 147.68,353.27 150.95,355.76 154.22,358.25 157.50,360.63 160.77,362.63 164.05,364.19 167.32,364.91 170.59,365.78 173.87,366.69 177.14,367.33 180.42,367.58 183.69,365.82 186.97,362.27 190.24,358.37 193.51,352.48 196.79,346.32 200.06,340.37 203.34,334.70 206.61,329.84 209.88,326.72 213.16,325.01 216.43,324.43 219.71,325.05 222.98,326.50 226.25,328.49 229.53,331.03 232.80,333.99 236.08,337.56 239.35,341.30 242.63,344.81 245.90,347.79 249.17,350.34 252.45,352.71 255.72,354.87 259.00,356.26 262.27,357.19 265.54,359.07 268.82,359.53 272.09,359.89 275.37,359.77 278.64,359.22 281.92,358.78 285.19,358.47 288.46,358.72 291.74,359.49 295.01,360.35 298.29,360.65 301.56,360.14 304.83,358.53 308.11,355.54 311.38,352.50 314.66,350.05 317.93,348.61 321.20,348.60 324.48,349.12 327.75,350.22 331.03,352.07 334.30,353.80 337.58,355.82 340.85,357.77 344.12,360.55 347.40,363.60 350.67,366.68 353.95,369.78 357.22,371.89 360.49,373.75 363.77,375.78 367.04,375.49 370.32,373.33 373.59,369.36 376.86,364.14 380.14,359.50 383.41,355.77 386.69,352.93 389.96,350.82 393.24,348.78 396.51,346.29 399.78,343.41 403.06,340.09 406.33,337.17 409.61,337.61 412.88,341.46 416.15,347.24 419.43,354.94 422.70,363.25 425.98,370.90 429.25,377.65 432.53,382.99 435.80,387.11 439.07,390.11 442.35,392.39 445.62,394.04 448.90,395.41 452.17,396.39 455.44,397.31 458.72,398.06 461.99,398.65 465.27,399.74 468.54,400.27 471.81,399.92 475.09,398.84 478.36,398.22 481.64,397.69 484.91,396.66 488.19,396.51 491.46,397.11 494.73,398.32 498.01,400.12 501.28,401.87 504.56,402.94 507.83,403.46 511.10,403.69 514.38,403.65 517.65,403.38 520.93,403.60 524.20,404.81 527.47,406.37 530.75,406.62 534.02,405.30 537.30,403.21 540.57,400.55 543.85,398.34 547.12,396.85 550.39,395.40 553.67,393.94 556.94,392.50 560.22,391.19 563.49,390.15 566.76,389.60 570.04,388.95 573.31,388.89 576.59,389.32 579.86,390.05 583.14,391.22 586.41,392.34 589.68,392.40 592.96,391.90 596.23,390.11 599.51,387.77 602.78,385.25 606.05,383.09 609.33,382.09 612.60,381.71 615.88,381.94 619.15,382.87 622.42,383.94 625.70,385.61 628.97,386.76 632.25,387.77 635.52,388.59 638.80,389.80 642.07,391.71 645.34,394.38 648.62,396.35 651.89,397.49 655.17,397.95 658.44,397.92 661.71,396.33 664.99,392.78 668.26,387.89 671.54,381.36 674.81,373.64 678.08,365.53 681.36,356.64 684.63,347.66 687.91,338.68 691.18,330.69 694.46,323.68 697.73,316.52 701.00,309.95 704.28,304.08 707.55,299.40 710.83,297.02 714.10,296.07 717.37,295.49 720.65,295.13 723.92,295.42 727.20,295.62 730.47,296.05 733.75,297.60 737.02,298.87 740.29,300.17 743.57,302.18 746.84,304.84 750.12,306.53 753.39,308.59 756.66,311.20 759.94,314.77 763.21,318.49 766.49,322.45 769.76,326.49 773.03,330.02 776.31,333.15 779.58,335.68 782.86,336.56 786.13,335.64 789.41,332.39 792.68,328.11 795.95,327.25 799.23,330.75 802.50,336.23 805.78,343.03 809.05,351.63 812.32,360.14 815.60,368.39 818.87,375.35 822.15,382.20 825.42,387.62 828.69,390.70 831.97,393.26 835.24,396.08 838.52,398.76 841.79,401.35 845.07,404.56 848.34,407.47 851.61,409.65 854.89,411.71 858.16,414.05 861.44,415.54 864.71,416.53 867.98,415.95 871.26,413.57 874.53,410.17 877.81,407.23 881.08,404.36 884.36,401.29 887.63,399.44 890.90,398.62 894.18,398.00 897.45,396.98 900.73,395.07 904.00,392.94" />
<text x="754.00" y="290.00" font-size="13" font-family="Arial" fill="#1f77b4" text-anchor="start">MACD</text>
<text x="818.00" y="290.00" font-size="13" font-family="Arial" fill="#ff7f0e" text-anchor="start">Signal</text>
<line x1="56" y1="624" x2="904" y2="624" stroke="#cbd2d9" />
<line x1="56" y1="484" x2="56" y2="624" stroke="#cbd2d9" />
<text x="16.00" y="476.00" font-size="12" font-family="Arial" fill="#52606d" text-anchor="start">KD</text>
<line x1="56" y1="624.00" x2="904" y2="624.00" stroke="#edf2f7" />
<line x1="52" y1="624.00" x2="56" y2="624.00" stroke="#9fb3c8" />
<text x="48.00" y="628.00" font-size="11" font-family="Arial" fill="#52606d" text-anchor="end">-5.00</text>
<line x1="56" y1="577.33" x2="904" y2="577.33" stroke="#edf2f7" />
<line x1="52" y1="577.33" x2="56" y2="577.33" stroke="#9fb3c8" />
<text x="48.00" y="581.33" font-size="11" font-family="Arial" fill="#52606d" text-anchor="end">31.7</text>
<line x1="56" y1="530.67" x2="904" y2="530.67" stroke="#edf2f7" />
<line x1="52" y1="530.67" x2="56" y2="530.67" stroke="#9fb3c8" />
<text x="48.00" y="534.67" font-size="11" font-family="Arial" fill="#52606d" text-anchor="end">68.3</text>
<line x1="56" y1="484.00" x2="904" y2="484.00" stroke="#edf2f7" />
<line x1="52" y1="484.00" x2="56" y2="484.00" stroke="#9fb3c8" />
<text x="48.00" y="488.00" font-size="11" font-family="Arial" fill="#52606d" text-anchor="end">105</text>
<line x1="56.00" y1="624" x2="56.00" y2="628" stroke="#9fb3c8" />
<text x="56.00" y="642.00" font-size="11" font-family="Arial" fill="#52606d" text-anchor="middle">07/11</text>
<line x1="226.25" y1="624" x2="226.25" y2="628" stroke="#9fb3c8" />
<text x="226.25" y="642.00" font-size="11" font-family="Arial" fill="#52606d" text-anchor="middle">09/24</text>
<line x1="396.51" y1="624" x2="396.51" y2="628" stroke="#9fb3c8" />
<text x="396.51" y="642.00" font-size="11" font-family="Arial" fill="#52606d" text-anchor="middle">12/08</text>
<line x1="563.49" y1="624" x2="563.49" y2="628" stroke="#9fb3c8" />
<text x="563.49" y="642.00" font-size="11" font-family="Arial" fill="#52606d" text-anchor="middle">02/23</text>
<line x1="733.75" y1="624" x2="733.75" y2="628" stroke="#9fb3c8" />
<text x="733.75" y="642.00" font-size="11" font-family="Arial" fill="#52606d" text-anchor="middle">05/07</text>
<line x1="904.00" y1="624" x2="904.00" y2="628" stroke="#9fb3c8" />
<text x="904.00" y="642.00" font-size="11" font-family="Arial" fill="#52606d" text-anchor="middle">07/23</text>
<line x1="56" y1="592.18" x2="904" y2="592.18" stroke="#f0b429" stroke-dasharray="5 5" />
<text x="912.00" y="596.18" font-size="10" font-family="Arial" fill="#8d2b0b" text-anchor="start">20.0</text>
<line x1="56" y1="515.82" x2="904" y2="515.82" stroke="#f0b429" stroke-dasharray="5 5" />
<text x="912.00" y="519.82" font-size="10" font-family="Arial" fill="#8d2b0b" text-anchor="start">80.0</text>
<polyline fill="none" stroke="#2ca02c" stroke-width="2" points="82.19,550.83 85.47,539.68 88.74,533.03 92.02,525.03 95.29,523.55 98.56,516.47 101.84,527.00 105.11,540.29 108.39,537.89 111.66,549.09 114.93,542.02 118.21,537.78 121.48,533.18 124.76,531.68 128.03,521.76 131.31,523.77 134.58,526.34 137.85,536.03 141.13,543.84 144.40,567.80 147.68,575.82 150.95,583.04 154.22,582.62 157.50,582.07 160.77,575.58 164.05,566.41 167.32,547.75 170.59,551.59 173.87,552.93 177.14,550.54 180.42,543.17 183.69,540.22 186.97,531.70 190.24,531.49 193.51,520.79 196.79,519.04 200.06,517.75 203.34,515.59 206.61,517.11 209.88,538.50 213.16,557.14 216.43,570.01 219.71,585.36 222.98,595.42 226.25,598.02 229.53,596.91 232.80,597.89 236.08,606.07 239.35,604.29 242.63,595.28 245.90,581.08 249.17,571.27 252.45,569.98 255.72,567.44 259.00,549.16 262.27,537.84 265.54,566.41 268.82,546.66 272.09,548.51 275.37,541.16 278.64,536.21 281.92,538.09 285.19,539.44 288.46,547.43 291.74,555.29 295.01,565.58 298.29,557.46 301.56,540.00 304.83,526.94 308.11,516.96 311.38,518.17 314.66,524.64 317.93,534.81 321.20,553.60 324.48,566.92 327.75,579.72 331.03,583.55 334.30,578.43 337.58,580.51 340.85,576.58 344.12,586.17 347.40,584.44 350.67,581.67 353.95,581.90 357.22,563.59 360.49,567.33 363.77,575.76 367.04,552.22 370.32,535.37 373.59,523.07 376.86,513.53 380.14,517.17 383.41,522.27 386.69,526.24 389.96,528.64 393.24,527.33 396.51,524.76 399.78,517.08 403.06,511.98 406.33,514.91 409.61,547.17 412.88,570.44 416.15,583.86 419.43,593.85 422.70,598.76 425.98,597.30 429.25,595.53 432.53,590.05 435.80,579.98 439.07,561.77 442.35,544.82 445.62,532.91 448.90,530.79 452.17,538.94 455.44,555.24 458.72,565.49 461.99,571.98 465.27,586.13 468.54,578.06 471.81,562.53 475.09,548.82 478.36,560.30 481.64,562.93 484.91,552.02 488.19,572.60 491.46,583.54 494.73,594.79 498.01,597.95 501.28,595.59 504.56,584.60 507.83,576.81 511.10,574.24 514.38,567.05 517.65,558.04 520.93,563.68 524.20,570.64 527.47,572.95 530.75,553.29 534.02,539.50 537.30,532.90 540.57,526.78 543.85,531.29 547.12,538.75 550.39,538.25 553.67,540.93 556.94,547.12 560.22,552.82 563.49,557.27 566.76,564.64 570.04,560.13 573.31,562.70 576.59,567.24 579.86,570.57 583.14,579.18 586.41,580.19 589.68,559.67 592.96,553.21 596.23,536.38 599.51,531.95 602.78,529.93 606.05,533.74 609.33,549.11 612.60,559.67 615.88,575.59 619.15,590.48 622.42,589.88 625.70,598.31 628.97,589.41 632.25,586.25 635.52,582.77 638.80,593.53 642.07,599.58 645.34,602.13 648.62,585.16 651.89,569.23 655.17,557.37 658.44,547.93 661.71,529.42 664.99,519.09 668.26,512.20 671.54,507.66 674.81,502.75 678.08,499.73 681.36,497.05 684.63,495.69 687.91,494.33 691.18,498.12 694.46,499.52 697.73,497.30 701.00,502.10 704.28,503.97 707.55,510.85 710.83,538.58 714.10,552.43 717.37,547.06 720.65,538.78 723.92,539.12 727.20,530.21 730.47,529.66 733.75,541.97 737.02,533.01 740.29,529.09 743.57,540.33 746.84,551.48 750.12,534.80 753.39,540.14 756.66,548.75 759.94,565.36 763.21,568.90 766.49,574.85 769.76,579.30 773.03,573.39 776.31,570.32 779.58,557.21 782.86,537.73 786.13,526.74 789.41,518.94 792.68,517.68 795.95,543.97 799.23,568.71 802.50,580.99 805.78,585.99 809.05,596.14 812.32,598.32 815.60,600.97 818.87,598.70 822.15,600.64 825.42,583.13 828.69,554.21 831.97,554.48 835.24,566.29 838.52,572.32 841.79,581.15 845.07,592.32 848.34,591.37 851.61,586.59 854.89,589.98 858.16,596.27 861.44,581.97 864.71,575.05 867.98,553.84 871.26,538.01 874.53,528.39 877.81,535.21 881.08,535.55 884.36,531.48 887.63,548.60 890.90,560.50 894.18,562.17 897.45,556.17 900.73,539.59 904.00,529.90" />
<polyline fill="none" stroke="#d62728" stroke-width="2" points="82.19,552.94 85.47,548.52 88.74,543.36 92.02,537.25 95.29,532.68 98.56,527.28 101.84,527.18 105.11,531.55 108.39,533.66 111.66,538.80 114.93,539.88 118.21,539.18 121.48,537.18 124.76,535.35 128.03,530.82 131.31,528.47 134.58,527.76 137.85,530.51 141.13,534.96 144.40,545.90 147.68,555.88 150.95,564.93 154.22,570.83 157.50,574.58 160.77,574.91 164.05,572.08 167.32,563.97 170.59,559.84 173.87,557.54 177.14,555.21 180.42,551.19 183.69,547.53 186.97,542.26 190.24,538.67 193.51,532.71 196.79,528.15 200.06,524.68 203.34,521.65 206.61,520.14 209.88,526.26 213.16,536.55 216.43,547.70 219.71,560.26 222.98,571.98 226.25,580.66 229.53,586.07 232.80,590.01 236.08,595.36 239.35,598.34 242.63,597.32 245.90,591.91 249.17,585.03 252.45,580.01 255.72,575.82 259.00,566.93 262.27,557.24 265.54,560.29 268.82,555.75 272.09,553.34 275.37,549.28 278.64,544.92 281.92,542.65 285.19,541.58 288.46,543.53 291.74,547.45 295.01,553.49 298.29,554.82 301.56,549.88 304.83,542.23 308.11,533.81 311.38,528.60 314.66,527.28 317.93,529.79 321.20,537.73 324.48,547.46 327.75,558.21 331.03,566.66 334.30,570.58 337.58,573.89 340.85,574.79 344.12,578.58 347.40,580.53 350.67,580.91 353.95,581.24 357.22,575.36 360.49,572.68 363.77,573.71 367.04,566.54 370.32,556.15 373.59,545.13 376.86,534.59 380.14,528.79 383.41,526.61 386.69,526.49 389.96,527.21 393.24,527.25 396.51,526.42 399.78,523.30 403.06,519.53 406.33,517.99 409.61,527.72 412.88,541.96 416.15,555.92 419.43,568.57 422.70,578.63 425.98,584.85 429.25,588.41 432.53,588.96 435.80,585.96 439.07,577.90 442.35,566.88 445.62,555.55 448.90,547.30 452.17,544.51 455.44,548.09 458.72,553.89 461.99,559.92 465.27,568.66 468.54,571.79 471.81,568.70 475.09,562.08 478.36,561.48 481.64,561.97 484.91,558.65 488.19,563.30 491.46,570.05 494.73,578.29 498.01,584.85 501.28,588.43 504.56,587.15 507.83,583.70 511.10,580.55 514.38,576.05 517.65,570.04 520.93,567.92 524.20,568.83 527.47,570.20 530.75,564.56 534.02,556.21 537.30,548.44 540.57,541.22 543.85,537.91 547.12,538.19 550.39,538.21 553.67,539.12 556.94,541.78 560.22,545.46 563.49,549.40 566.76,554.48 570.04,556.36 573.31,558.48 576.59,561.40 579.86,564.46 583.14,569.37 586.41,572.97 589.68,568.54 592.96,563.43 596.23,554.41 599.51,546.93 602.78,541.26 606.05,538.75 609.33,542.21 612.60,548.03 615.88,557.21 619.15,568.30 622.42,575.50 625.70,583.10 628.97,585.20 632.25,585.55 635.52,584.63 638.80,587.59 642.07,591.59 645.34,595.10 648.62,591.79 651.89,584.27 655.17,575.30 658.44,566.18 661.71,553.93 664.99,542.31 668.26,532.28 671.54,524.07 674.81,516.96 678.08,511.22 681.36,506.49 684.63,502.89 687.91,500.04 691.18,499.40 694.46,499.44 697.73,498.73 701.00,499.85 704.28,501.22 707.55,504.43 710.83,515.82 714.10,528.02 717.37,534.37 720.65,535.84 723.92,536.93 727.20,534.69 730.47,533.02 733.75,536.00 737.02,535.00 740.29,533.03 743.57,535.47 746.84,540.80 750.12,538.80 753.39,539.25 756.66,542.42 759.94,550.06 763.21,556.34 766.49,562.51 769.76,568.11 773.03,569.87 776.31,570.02 779.58,565.75 782.86,556.41 786.13,546.52 789.41,537.32 792.68,530.78 795.95,535.17 799.23,546.35 802.50,557.90 805.78,567.26 809.05,576.89 812.32,584.03 815.60,589.68 818.87,592.69 822.15,595.34 825.42,591.27 828.69,578.92 831.97,570.77 835.24,569.28 838.52,570.29 841.79,573.91 845.07,580.05 848.34,583.82 851.61,584.74 854.89,586.49 858.16,589.75 861.44,587.15 864.71,583.12 867.98,573.36 871.26,561.58 874.53,550.52 877.81,545.41 881.08,542.12 884.36,538.58 887.63,541.92 890.90,548.11 894.18,552.80 897.45,553.92 900.73,549.14 904.00,542.73" />
<text x="824.00" y="502.00" font-size="13" font-family="Arial" fill="#2ca02c" text-anchor="start">K</text>
<text x="860.00" y="502.00" font-size="13" font-family="Arial" fill="#d62728" text-anchor="start">D</text>
</svg>