<svg xmlns="http://www.w3.org/2000/svg" width="960" height="680" viewBox="0 0 960 680"><rect width="100%" height="100%" fill="white" />
<text x="56.00" y="32.00" font-size="20" font-family="Arial" fill="#1f2933" text-anchor="start">INTC Technical Indicators</text>
<line x1="56" y1="220" x2="904" y2="220" stroke="#cbd2d9" />
<line x1="56" y1="58" x2="56" y2="220" stroke="#cbd2d9" />
<text x="16.00" y="50.00" font-size="12" font-family="Arial" fill="#52606d" text-anchor="start">RSI14</text>
<line x1="56" y1="220.00" x2="904" y2="220.00" stroke="#edf2f7" />
<line x1="52" y1="220.00" x2="56" y2="220.00" stroke="#9fb3c8" />
<text x="48.00" y="224.00" font-size="11" font-family="Arial" fill="#52606d" text-anchor="end">-5.00</text>
<line x1="56" y1="166.00" x2="904" y2="166.00" stroke="#edf2f7" />
<line x1="52" y1="166.00" x2="56" y2="166.00" stroke="#9fb3c8" />
<text x="48.00" y="170.00" font-size="11" font-family="Arial" fill="#52606d" text-anchor="end">31.7</text>
<line x1="56" y1="112.00" x2="904" y2="112.00" stroke="#edf2f7" />
<line x1="52" y1="112.00" x2="56" y2="112.00" stroke="#9fb3c8" />
<text x="48.00" y="116.00" font-size="11" font-family="Arial" fill="#52606d" text-anchor="end">68.3</text>
<line x1="56" y1="58.00" x2="904" y2="58.00" stroke="#edf2f7" />
<line x1="52" y1="58.00" x2="56" y2="58.00" stroke="#9fb3c8" />
<text x="48.00" y="62.00" font-size="11" font-family="Arial" fill="#52606d" text-anchor="end">105</text>
<line x1="56" y1="168.45" x2="904" y2="168.45" stroke="#f0b429" stroke-dasharray="5 5" />
<text x="912.00" y="172.45" font-size="10" font-family="Arial" fill="#8d2b0b" text-anchor="start">30.0</text>
<line x1="56" y1="109.55" x2="904" y2="109.55" stroke="#f0b429" stroke-dasharray="5 5" />
<text x="912.00" y="113.55" font-size="10" font-family="Arial" fill="#8d2b0b" text-anchor="start">70.0</text>
<polyline fill="none" stroke="#1f77b4" stroke-width="2" points="101.84,118.69 105.11,123.46 108.39,126.32 111.66,125.33 114.93,122.60 118.21,121.14 121.48,121.45 124.76,118.99 128.03,132.11 131.31,152.48 134.58,152.65 137.85,155.00 141.13,155.63 144.40,160.35 147.68,164.26 150.95,161.26 154.22,151.11 157.50,148.10 160.77,154.49 164.05,151.89 167.32,142.49 170.59,129.95 173.87,126.19 177.14,113.99 180.42,109.88 183.69,120.64 186.97,111.17 190.24,127.93 193.51,128.27 196.79,120.54 200.06,122.82 203.34,124.70 206.61,121.54 209.88,121.03 213.16,127.11 216.43,128.56 219.71,130.80 222.98,125.76 226.25,127.16 229.53,127.28 232.80,127.81 236.08,124.57 239.35,126.89 242.63,134.27 245.90,126.85 249.17,122.09 252.45,127.35 255.72,97.00 259.00,106.75 262.27,114.15 265.54,111.69 268.82,104.73 272.09,97.16 275.37,93.93 278.64,102.09 281.92,109.08 285.19,102.57 288.46,99.46 291.74,102.88 295.01,104.67 298.29,103.07 301.56,102.34 304.83,101.28 308.11,113.17 311.38,110.11 314.66,121.82 317.93,115.88 321.20,118.06 324.48,117.37 327.75,113.04 331.03,112.96 334.30,122.53 337.58,117.01 340.85,116.50 344.12,111.32 347.40,104.57 350.67,106.18 353.95,115.81 357.22,117.15 360.49,121.09 363.77,137.82 367.04,130.78 370.32,137.43 373.59,132.82 376.86,131.20 380.14,134.80 383.41,134.74 386.69,146.52 389.96,148.57 393.24,152.74 396.51,154.64 399.78,148.78 403.06,156.38 406.33,149.98 409.61,141.52 412.88,141.26 416.15,135.14 419.43,117.72 422.70,121.32 425.98,109.88 429.25,109.08 432.53,127.70 435.80,124.51 439.07,130.07 442.35,129.29 445.62,128.14 448.90,134.94 452.17,143.02 455.44,144.37 458.72,145.30 461.99,151.04 465.27,149.63 468.54,146.26 471.81,148.56 475.09,148.66 478.36,149.73 481.64,149.41 484.91,145.52 488.19,140.66 491.46,143.57 494.73,126.97 498.01,127.04 501.28,123.20 504.56,111.29 507.83,122.96 511.10,107.64 514.38,116.85 517.65,108.10 520.93,104.90 524.20,107.28 527.47,115.16 530.75,110.85 534.02,99.52 537.30,99.41 540.57,135.50 543.85,142.24 547.12,138.40 550.39,127.21 553.67,127.56 556.94,133.85 560.22,128.48 563.49,127.49 566.76,129.56 570.04,130.75 573.31,124.78 576.59,126.05 579.86,136.55 583.14,133.24 586.41,138.99 589.68,138.02 592.96,140.05 596.23,142.47 599.51,145.29 602.78,147.02 606.05,148.68 609.33,138.35 612.60,135.50 615.88,141.13 619.15,140.50 622.42,140.97 625.70,150.42 628.97,139.54 632.25,138.04 635.52,147.68 638.80,138.94 642.07,134.55 645.34,130.36 648.62,140.97 651.89,139.03 655.17,139.07 658.44,145.61 661.71,141.45 664.99,136.73 668.26,145.71 671.54,145.10 674.81,144.86 678.08,131.75 681.36,143.82 684.63,147.13 687.91,153.29 691.18,141.60 694.46,129.42 697.73,123.41 701.00,122.43 704.28,117.38 707.55,106.32 710.83,102.43 714.10,101.54 717.37,97.99 720.65,103.63 723.92,102.03 727.20,97.47 730.47,97.47 733.75,109.20 737.02,108.26 740.29,112.35 743.57,109.51 746.84,91.63 750.12,89.96 753.39,91.55 756.66,85.45 759.94,86.29 763.21,83.80 766.49,95.04 769.76,88.15 773.03,86.11 776.31,94.08 779.58,87.35 782.86,85.82 786.13,101.98 789.41,102.53 792.68,109.98 795.95,120.95 799.23,121.83 802.50,119.39 805.78,112.58 809.05,113.34 812.32,112.23 815.60,109.21 818.87,112.51 822.15,114.21 825.42,125.47 828.69,133.83 831.97,135.90 835.24,129.68 838.52,131.19 841.79,148.25 845.07,134.52 848.34,137.36 851.61,138.45 854.89,127.53 858.16,120.70 861.44,118.01 864.71,131.91 867.98,128.18 871.26,118.07 874.53,113.57 877.81,123.76 881.08,124.47 884.36,123.50 887.63,129.01 890.90,126.00 894.18,119.56 897.45,133.90 900.73,140.26 904.00,138.50" />
<text x="808.00" y="76.00" font-size="13" font-family="Arial" fill="#1f77b4" text-anchor="start">RSI14</text>
<line x1="56" y1="432" x2="904" y2="432" stroke="#cbd2d9" />
<line x1="56" y1="272" x2="56" y2="432" stroke="#cbd2d9" />
<text x="16.00" y="264.00" font-size="12" font-family="Arial" fill="#52606d" text-anchor="start">MACD</text>
<line x1="56" y1="432.00" x2="904" y2="432.00" stroke="#edf2f7" />
<line x1="52" y1="432.00" x2="56" y2="432.00" stroke="#9fb3c8" />
<text x="48.00" y="436.00" font-size="11" font-family="Arial" fill="#52606d" text-anchor="end">-4.86</text>
<line x1="56" y1="378.67" x2="904" y2="378.67" stroke="#edf2f7" />
<line x1="52" y1="378.67" x2="56" y2="378.67" stroke="#9fb3c8" />
<text x="48.00" y="382.67" font-size="11" font-family="Arial" fill="#52606d" text-anchor="end">2.86</text>
<line x1="56" y1="325.33" x2="904" y2="325.33" stroke="#edf2f7" />
<line x1="52" y1="325.33" x2="56" y2="325.33" stroke="#9fb3c8" />
<text x="48.00" y="329.33" font-size="11" font-family="Arial" fill="#52606d" text-anchor="end">10.6</text>
<line x1="56" y1="272.00" x2="904" y2="272.00" stroke="#edf2f7" />
<line x1="52" y1="272.00" x2="56" y2="272.00" stroke="#9fb3c8" />
<text x="48.00" y="276.00" font-size="11" font-family="Arial" fill="#52606d" text-anchor="end">18.3</text>
<line x1="56" y1="398.42" x2="904" y2="398.42" stroke="#9fb3c8" stroke-dasharray="4 4" />
<rect x="136.71" y="398.42" width="2.28" height="0.00" fill="#2f9e44" opacity="0.55" />
<rect x="139.99" y="398.42" width="2.28" height="0.68" fill="#d64545" opacity="0.55" />
<rect x="143.26" y="398.42" width="2.28" height="1.29" fill="#d64545" opacity="0.55" />
<rect x="146.53" y="398.42" width="2.28" height="1.81" fill="#d64545" opacity="0.55" />
<rect x="149.81" y="398.42" width="2.28" height="1.94" fill="#d64545" opacity="0.55" />
<rect x="153.08" y="398.42" width="2.28" height="1.59" fill="#d64545" opacity="0.55" />
<rect x="156.36" y="398.42" width="2.28" height="1.16" fill="#d64545" opacity="0.55" />
<rect x="159.63" y="398.42" width="2.28" height="1.08" fill="#d64545" opacity="0.55" />
<rect x="162.90" y="398.42" width="2.28" height="0.86" fill="#d64545" opacity="0.55" />
<rect x="166.18" y="398.42" width="2.28" height="0.34" fill="#d64545" opacity="0.55" />
<rect x="169.45" y="397.86" width="2.28" height="0.56" fill="#2f9e44" opacity="0.55" />
<rect x="172.73" y="397.11" width="2.28" height="1.31" fill="#2f9e44" opacity="0.55" />
<rect x="176.00" y="395.96" width="2.28" height="2.46" fill="#2f9e44" opacity="0.55" />
<rect x="179.28" y="395.03" width="2.28" height="3.39" fill="#2f9e44" opacity="0.55" />
<rect x="182.55" y="395.00" width="2.28" height="3.42" fill="#2f9e44" opacity="0.55" />
<rect x="185.82" y="394.43" width="2.28" height="3.99" fill="#2f9e44" opacity="0.55" />
<rect x="189.10" y="395.05" width="2.28" height="3.37" fill="#2f9e44" opacity="0.55" />
<rect x="192.37" y="395.65" width="2.28" height="2.77" fill="#2f9e44" opacity="0.55" />
<rect x="195.65" y="395.61" width="2.28" height="2.81" fill="#2f9e44" opacity="0.55" />
<rect x="198.92" y="395.85" width="2.28" height="2.57" fill="#2f9e44" opacity="0.55" />
<rect x="202.19" y="396.26" width="2.28" height="2.16" fill="#2f9e44" opacity="0.55" />
<rect x="205.47" y="396.43" width="2.28" height="1.99" fill="#2f9e44" opacity="0.55" />
<rect x="208.74" y="396.65" width="2.28" height="1.77" fill="#2f9e44" opacity="0.55" />
<rect x="212.02" y="397.17" width="2.28" height="1.25" fill="#2f9e44" opacity="0.55" />
<rect x="215.29" y="397.66" width="2.28" height="0.76" fill="#2f9e44" opacity="0.55" />
<rect x="218.57" y="398.15" width="2.28" height="0.27" fill="#2f9e44" opacity="0.55" />
<rect x="221.84" y="398.24" width="2.28" height="0.18" fill="#2f9e44" opacity="0.55" />
<rect x="225.11" y="398.41" width="2.28" height="0.01" fill="#2f9e44" opacity="0.55" />
<rect x="228.39" y="398.42" width="2.28" height="0.14" fill="#d64545" opacity="0.55" />
<rect x="231.66" y="398.42" width="2.28" height="0.29" fill="#d64545" opacity="0.55" />
<rect x="234.94" y="398.42" width="2.28" height="0.26" fill="#d64545" opacity="0.55" />
<rect x="238.21" y="398.42" width="2.28" height="0.35" fill="#d64545" opacity="0.55" />
<rect x="241.48" y="398.42" width="2.28" height="0.66" fill="#d64545" opacity="0.55" />
<rect x="244.76" y="398.42" width="2.28" height="0.55" fill="#d64545" opacity="0.55" />
<rect x="248.03" y="398.42" width="2.28" height="0.28" fill="#d64545" opacity="0.55" />
<rect x="251.31" y="398.42" width="2.28" height="0.29" fill="#d64545" opacity="0.55" />
<rect x="254.58" y="396.24" width="2.28" height="2.18" fill="#2f9e44" opacity="0.55" />
<rect x="257.85" y="395.28" width="2.28" height="3.14" fill="#2f9e44" opacity="0.55" />
<rect x="261.13" y="395.26" width="2.28" height="3.16" fill="#2f9e44" opacity="0.55" />
<rect x="264.40" y="395.21" width="2.28" height="3.21" fill="#2f9e44" opacity="0.55" />
<rect x="267.68" y="394.59" width="2.28" height="3.83" fill="#2f9e44" opacity="0.55" />
<rect x="270.95" y="393.25" width="2.28" height="5.17" fill="#2f9e44" opacity="0.55" />
<rect x="274.23" y="392.09" width="2.28" height="6.33" fill="#2f9e44" opacity="0.55" />
<rect x="277.50" y="392.25" width="2.28" height="6.17" fill="#2f9e44" opacity="0.55" />
<rect x="280.77" y="393.20" width="2.28" height="5.22" fill="#2f9e44" opacity="0.55" />
<rect x="284.05" y="393.14" width="2.28" height="5.28" fill="#2f9e44" opacity="0.55" />
<rect x="287.32" y="392.91" width="2.28" height="5.51" fill="#2f9e44" opacity="0.55" />
<rect x="290.60" y="393.42" width="2.28" height="5.00" fill="#2f9e44" opacity="0.55" />
<rect x="293.87" y="394.26" width="2.28" height="4.16" fill="#2f9e44" opacity="0.55" />
<rect x="297.14" y="394.93" width="2.28" height="3.49" fill="#2f9e44" opacity="0.55" />
<rect x="300.42" y="395.59" width="2.28" height="2.83" fill="#2f9e44" opacity="0.55" />
<rect x="303.69" y="396.17" width="2.28" height="2.25" fill="#2f9e44" opacity="0.55" />
<rect x="306.97" y="397.48" width="2.28" height="0.94" fill="#2f9e44" opacity="0.55" />
<rect x="310.24" y="398.16" width="2.28" height="0.26" fill="#2f9e44" opacity="0.55" />
<rect x="313.51" y="398.42" width="2.28" height="1.08" fill="#d64545" opacity="0.55" />
<rect x="316.79" y="398.42" width="2.28" height="1.38" fill="#d64545" opacity="0.55" />
<rect x="320.06" y="398.42" width="2.28" height="1.82" fill="#d64545" opacity="0.55" />
<rect x="323.34" y="398.42" width="2.28" height="2.11" fill="#d64545" opacity="0.55" />
<rect x="326.61" y="398.42" width="2.28" height="1.88" fill="#d64545" opacity="0.55" />
<rect x="329.89" y="398.42" width="2.28" height="1.80" fill="#d64545" opacity="0.55" />
<rect x="333.16" y="398.42" width="2.28" height="2.35" fill="#d64545" opacity="0.55" />
<rect x="336.43" y="398.42" width="2.28" height="2.20" fill="#d64545" opacity="0.55" />
<rect x="339.71" y="398.42" width="2.28" height="2.09" fill="#d64545" opacity="0.55" />
<rect x="342.98" y="398.42" width="2.28" height="1.51" fill="#d64545" opacity="0.55" />
<rect x="346.26" y="398.42" width="2.28" height="0.34" fill="#d64545" opacity="0.55" />
<rect x="349.53" y="398.25" width="2.28" height="0.17" fill="#2f9e44" opacity="0.55" />
<rect x="352.80" y="398.42" width="2.28" height="0.18" fill="#d64545" opacity="0.55" />
<rect x="356.08" y="398.42" width="2.28" height="0.62" fill="#d64545" opacity="0.55" />
<rect x="359.35" y="398.42" width="2.28" height="1.23" fill="#d64545" opacity="0.55" />
<rect x="362.63" y="398.42" width="2.28" height="2.78" fill="#d64545" opacity="0.55" />
<rect x="365.90" y="398.42" width="2.28" height="3.16" fill="#d64545" opacity="0.55" />
<rect x="369.18" y="398.42" width="2.28" height="3.86" fill="#d64545" opacity="0.55" />
<rect x="372.45" y="398.42" width="2.28" height="3.83" fill="#d64545" opacity="0.55" />
<rect x="375.72" y="398.42" width="2.28" height="3.58" fill="#d64545" opacity="0.55" />
<rect x="379.00" y="398.42" width="2.28" height="3.60" fill="#d64545" opacity="0.55" />
<rect x="382.27" y="398.42" width="2.28" height="3.52" fill="#d64545" opacity="0.55" />
<rect x="385.55" y="398.42" width="2.28" height="4.24" fill="#d64545" opacity="0.55" />
<rect x="388.82" y="398.42" width="2.28" height="4.73" fill="#d64545" opacity="0.55" />
<rect x="392.09" y="398.42" width="2.28" height="5.21" fill="#d64545" opacity="0.55" />
<rect x="395.37" y="398.42" width="2.28" height="5.47" fill="#d64545" opacity="0.55" />
<rect x="398.64" y="398.42" width="2.28" height="5.05" fill="#d64545" opacity="0.55" />
<rect x="401.92" y="398.42" width="2.28" height="5.21" fill="#d64545" opacity="0.55" />
<rect x="405.19" y="398.42" width="2.28" height="4.67" fill="#d64545" opacity="0.55" />
<rect x="408.46" y="398.42" width="2.28" height="3.53" fill="#d64545" opacity="0.55" />
<rect x="411.74" y="398.42" width="2.28" height="2.62" fill="#d64545" opacity="0.55" />
<rect x="415.01" y="398.42" width="2.28" height="1.48" fill="#d64545" opacity="0.55" />
<rect x="418.29" y="397.44" width="2.28" height="0.98" fill="#2f9e44" opacity="0.55" />
<rect x="421.56" y="396.19" width="2.28" height="2.23" fill="#2f9e44" opacity="0.55" />
<rect x="424.84" y="394.00" width="2.28" height="4.42" fill="#2f9e44" opacity="0.55" />
<rect x="428.11" y="392.75" width="2.28" height="5.67" fill="#2f9e44" opacity="0.55" />
<rect x="431.38" y="393.72" width="2.28" height="4.70" fill="#2f9e44" opacity="0.55" />
<rect x="434.66" y="394.21" width="2.28" height="4.21" fill="#2f9e44" opacity="0.55" />
<rect x="437.93" y="395.27" width="2.28" height="3.15" fill="#2f9e44" opacity="0.55" />
<rect x="441.21" y="396.07" width="2.28" height="2.35" fill="#2f9e44" opacity="0.55" />
<rect x="444.48" y="396.62" width="2.28" height="1.80" fill="#2f9e44" opacity="0.55" />
<rect x="447.75" y="397.69" width="2.28" height="0.73" fill="#2f9e44" opacity="0.55" />
<rect x="451.03" y="398.42" width="2.28" height="0.79" fill="#d64545" opacity="0.55" />
<rect x="454.30" y="398.42" width="2.28" height="1.89" fill="#d64545" opacity="0.55" />
<rect x="457.58" y="398.42" width="2.28" height="2.63" fill="#d64545" opacity="0.55" />
<rect x="460.85" y="398.42" width="2.28" height="3.56" fill="#d64545" opacity="0.55" />
<rect x="464.12" y="398.42" width="2.28" height="3.90" fill="#d64545" opacity="0.55" />
<rect x="467.40" y="398.42" width="2.28" height="3.71" fill="#d64545" opacity="0.55" />
<rect x="470.67" y="398.42" width="2.28" height="3.62" fill="#d64545" opacity="0.55" />
<rect x="473.95" y="398.42" width="2.28" height="3.39" fill="#d64545" opacity="0.55" />
<rect x="477.22" y="398.42" width="2.28" height="3.17" fill="#d64545" opacity="0.55" />
<rect x="480.50" y="398.42" width="2.28" height="2.85" fill="#d64545" opacity="0.55" />
<rect x="483.77" y="398.42" width="2.28" height="2.28" fill="#d64545" opacity="0.55" />
<rect x="487.04" y="398.42" width="2.28" height="1.53" fill="#d64545" opacity="0.55" />
<rect x="490.32" y="398.42" width="2.28" height="1.14" fill="#d64545" opacity="0.55" />
<rect x="493.59" y="398.14" width="2.28" height="0.28" fill="#2f9e44" opacity="0.55" />
<rect x="496.87" y="397.26" width="2.28" height="1.16" fill="#2f9e44" opacity="0.55" />
<rect x="500.14" y="396.46" width="2.28" height="1.96" fill="#2f9e44" opacity="0.55" />
<rect x="503.41" y="394.91" width="2.28" height="3.51" fill="#2f9e44" opacity="0.55" />
<rect x="506.69" y="394.80" width="2.28" height="3.62" fill="#2f9e44" opacity="0.55" />
<rect x="509.96" y="392.97" width="2.28" height="5.45" fill="#2f9e44" opacity="0.55" />
<rect x="513.24" y="392.78" width="2.28" height="5.64" fill="#2f9e44" opacity="0.55" />
<rect x="516.51" y="391.57" width="2.28" height="6.85" fill="#2f9e44" opacity="0.55" />
<rect x="519.79" y="390.59" width="2.28" height="7.83" fill="#2f9e44" opacity="0.55" />
<rect x="523.06" y="390.63" width="2.28" height="7.79" fill="#2f9e44" opacity="0.55" />
<rect x="526.33" y="391.75" width="2.28" height="6.67" fill="#2f9e44" opacity="0.55" />
<rect x="529.61" y="392.19" width="2.28" height="6.23" fill="#2f9e44" opacity="0.55" />
<rect x="532.88" y="390.40" width="2.28" height="8.02" fill="#2f9e44" opacity="0.55" />
<rect x="536.16" y="389.81" width="2.28" height="8.61" fill="#2f9e44" opacity="0.55" />
<rect x="539.43" y="394.11" width="2.28" height="4.31" fill="#2f9e44" opacity="0.55" />
<rect x="542.70" y="398.34" width="2.28" height="0.08" fill="#2f9e44" opacity="0.55" />
<rect x="545.98" y="398.42" width="2.28" height="2.10" fill="#d64545" opacity="0.55" />
<rect x="549.25" y="398.42" width="2.28" height="1.38" fill="#d64545" opacity="0.55" />
<rect x="552.53" y="398.42" width="2.28" height="1.06" fill="#d64545" opacity="0.55" />
<rect x="555.80" y="398.42" width="2.28" height="1.92" fill="#d64545" opacity="0.55" />
<rect x="559.07" y="398.42" width="2.28" height="1.48" fill="#d64545" opacity="0.55" />
<rect x="562.35" y="398.42" width="2.28" height="1.07" fill="#d64545" opacity="0.55" />
<rect x="565.62" y="398.42" width="2.28" height="1.19" fill="#d64545" opacity="0.55" />
<rect x="568.90" y="398.42" width="2.28" height="1.50" fill="#d64545" opacity="0.55" />
<rect x="572.17" y="398.42" width="2.28" height="0.72" fill="#d64545" opacity="0.55" />
<rect x="575.45" y="398.42" width="2.28" height="0.48" fill="#d64545" opacity="0.55" />
<rect x="578.72" y="398.42" width="2.28" height="1.80" fill="#d64545" opacity="0.55" />
<rect x="581.99" y="398.42" width="2.28" height="2.16" fill="#d64545" opacity="0.55" />
<rect x="585.27" y="398.42" width="2.28" height="3.19" fill="#d64545" opacity="0.55" />
<rect x="588.54" y="398.42" width="2.28" height="3.65" fill="#d64545" opacity="0.55" />
<rect x="591.82" y="398.42" width="2.28" height="4.13" fill="#d64545" opacity="0.55" />
<rect x="595.09" y="398.42" width="2.28" height="4.63" fill="#d64545" opacity="0.55" />
<rect x="598.36" y="398.42" width="2.28" height="5.15" fill="#d64545" opacity="0.55" />
<rect x="601.64" y="398.42" width="2.28" height="5.52" fill="#d64545" opacity="0.55" />
<rect x="604.91" y="398.42" width="2.28" height="5.73" fill="#d64545" opacity="0.55" />
<rect x="608.19" y="398.42" width="2.28" height="4.52" fill="#d64545" opacity="0.55" />
<rect x="611.46" y="398.42" width="2.28" height="3.23" fill="#d64545" opacity="0.55" />
<rect x="614.73" y="398.42" width="2.28" height="2.91" fill="#d64545" opacity="0.55" />
<rect x="618.01" y="398.42" width="2.28" height="2.52" fill="#d64545" opacity="0.55" />
<rect x="621.28" y="398.42" width="2.28" height="2.21" fill="#d64545" opacity="0.55" />
<rect x="624.56" y="398.42" width="2.28" height="2.98" fill="#d64545" opacity="0.55" />
<rect x="627.83" y="398.42" width="2.28" height="2.22" fill="#d64545" opacity="0.55" />
<rect x="631.11" y="398.42" width="2.28" height="1.46" fill="#d64545" opacity="0.55" />
<rect x="634.38" y="398.42" width="2.28" height="2.03" fill="#d64545" opacity="0.55" />
<rect x="637.65" y="398.42" width="2.28" height="1.33" fill="#d64545" opacity="0.55" />
<rect x="640.93" y="398.42" width="2.28" height="0.28" fill="#d64545" opacity="0.55" />
<rect x="644.20" y="397.49" width="2.28" height="0.93" fill="#2f9e44" opacity="0.55" />
<rect x="647.48" y="397.98" width="2.28" height="0.44" fill="#2f9e44" opacity="0.55" />
<rect x="650.75" y="398.08" width="2.28" height="0.34" fill="#2f9e44" opacity="0.55" />
<rect x="654.02" y="398.16" width="2.28" height="0.26" fill="#2f9e44" opacity="0.55" />
<rect x="657.30" y="398.42" width="2.28" height="0.55" fill="#d64545" opacity="0.55" />
<rect x="660.57" y="398.42" width="2.28" height="0.60" fill="#d64545" opacity="0.55" />
<rect x="663.85" y="398.42" width="2.28" height="0.08" fill="#d64545" opacity="0.55" />
<rect x="667.12" y="398.42" width="2.28" height="0.77" fill="#d64545" opacity="0.55" />
<rect x="670.40" y="398.42" width="2.28" height="1.09" fill="#d64545" opacity="0.55" />
<rect x="673.67" y="398.42" width="2.28" height="1.20" fill="#d64545" opacity="0.55" />
<rect x="676.94" y="398.24" width="2.28" height="0.18" fill="#2f9e44" opacity="0.55" />
<rect x="680.22" y="398.42" width="2.28" height="0.31" fill="#d64545" opacity="0.55" />
<rect x="683.49" y="398.42" width="2.28" height="1.02" fill="#d64545" opacity="0.55" />
<rect x="686.77" y="398.42" width="2.28" height="2.25" fill="#d64545" opacity="0.55" />
<rect x="690.04" y="398.42" width="2.28" height="1.58" fill="#d64545" opacity="0.55" />
<rect x="693.31" y="397.76" width="2.28" height="0.66" fill="#2f9e44" opacity="0.55" />
<rect x="696.59" y="395.33" width="2.28" height="3.09" fill="#2f9e44" opacity="0.55" />
<rect x="699.86" y="393.77" width="2.28" height="4.65" fill="#2f9e44" opacity="0.55" />
<rect x="703.14" y="392.10" width="2.28" height="6.32" fill="#2f9e44" opacity="0.55" />
<rect x="706.41" y="388.73" width="2.28" height="9.69" fill="#2f9e44" opacity="0.55" />
<rect x="709.68" y="385.93" width="2.28" height="12.49" fill="#2f9e44" opacity="0.55" />
<rect x="712.96" y="384.60" width="2.28" height="13.82" fill="#2f9e44" opacity="0.55" />
<rect x="716.23" y="383.35" width="2.28" height="15.07" fill="#2f9e44" opacity="0.55" />
<rect x="719.51" y="384.08" width="2.28" height="14.34" fill="#2f9e44" opacity="0.55" />
<rect x="722.78" y="384.96" width="2.28" height="13.46" fill="#2f9e44" opacity="0.55" />
<rect x="726.06" y="384.83" width="2.28" height="13.59" fill="#2f9e44" opacity="0.55" />
<rect x="729.33" y="385.68" width="2.28" height="12.74" fill="#2f9e44" opacity="0.55" />
<rect x="732.60" y="388.37" width="2.28" height="10.05" fill="#2f9e44" opacity="0.55" />
<rect x="735.88" y="390.60" width="2.28" height="7.82" fill="#2f9e44" opacity="0.55" />
<rect x="739.15" y="393.14" width="2.28" height="5.28" fill="#2f9e44" opacity="0.55" />
<rect x="742.43" y="394.65" width="2.28" height="3.77" fill="#2f9e44" opacity="0.55" />
<rect x="745.70" y="389.14" width="2.28" height="9.28" fill="#2f9e44" opacity="0.55" />
<rect x="748.97" y="385.43" width="2.28" height="12.99" fill="#2f9e44" opacity="0.55" />
<rect x="752.25" y="384.36" width="2.28" height="14.06" fill="#2f9e44" opacity="0.55" />
<rect x="755.52" y="380.30" width="2.28" height="18.12" fill="#2f9e44" opacity="0.55" />
<rect x="758.80" y="379.26" width="2.28" height="19.16" fill="#2f9e44" opacity="0.55" />
<rect x="762.07" y="377.82" width="2.28" height="20.60" fill="#2f9e44" opacity="0.55" />
<rect x="765.34" y="380.22" width="2.28" height="18.20" fill="#2f9e44" opacity="0.55" />
<rect x="768.62" y="377.79" width="2.28" height="20.63" fill="#2f9e44" opacity="0.55" />
<rect x="771.89" y="375.82" width="2.28" height="22.60" fill="#2f9e44" opacity="0.55" />
<rect x="775.17" y="377.93" width="2.28" height="20.49" fill="#2f9e44" opacity="0.55" />
<rect x="778.44" y="374.28" width="2.28" height="24.14" fill="#2f9e44" opacity="0.55" />
<rect x="781.72" y="372.04" width="2.28" height="26.38" fill="#2f9e44" opacity="0.55" />
<rect x="784.99" y="376.74" width="2.28" height="21.68" fill="#2f9e44" opacity="0.55" />
<rect x="788.26" y="381.84" width="2.28" height="16.58" fill="#2f9e44" opacity="0.55" />
<rect x="791.54" y="388.74" width="2.28" height="9.68" fill="#2f9e44" opacity="0.55" />
<rect x="794.81" y="397.67" width="2.28" height="0.75" fill="#2f9e44" opacity="0.55" />
<rect x="798.09" y="398.42" width="2.28" height="6.09" fill="#d64545" opacity="0.55" />
<rect x="801.36" y="398.42" width="2.28" height="9.82" fill="#d64545" opacity="0.55" />
<rect x="804.63" y="398.42" width="2.28" height="8.95" fill="#d64545" opacity="0.55" />
<rect x="807.91" y="398.42" width="2.28" height="9.02" fill="#d64545" opacity="0.55" />
<rect x="811.18" y="398.42" width="2.28" height="8.86" fill="#d64545" opacity="0.55" />
<rect x="814.46" y="398.42" width="2.28" height="7.51" fill="#d64545" opacity="0.55" />
<rect x="817.73" y="398.42" width="2.28" height="7.87" fill="#d64545" opacity="0.55" />
<rect x="821.01" y="398.42" width="2.28" height="8.87" fill="#d64545" opacity="0.55" />
<rect x="824.28" y="398.42" width="2.28" height="12.56" fill="#d64545" opacity="0.55" />
<rect x="827.55" y="398.42" width="2.28" height="17.34" fill="#d64545" opacity="0.55" />
<rect x="830.83" y="398.42" width="2.28" height="20.75" fill="#d64545" opacity="0.55" />
<rect x="834.10" y="398.42" width="2.28" height="20.37" fill="#d64545" opacity="0.55" />
<rect x="837.38" y="398.42" width="2.28" height="20.09" fill="#d64545" opacity="0.55" />
<rect x="840.65" y="398.42" width="2.28" height="25.01" fill="#d64545" opacity="0.55" />
<rect x="843.92" y="398.42" width="2.28" height="22.40" fill="#d64545" opacity="0.55" />
<rect x="847.20" y="398.42" width="2.28" height="21.10" fill="#d64545" opacity="0.55" />
<rect x="850.47" y="398.42" width="2.28" height="19.99" fill="#d64545" opacity="0.55" />
<rect x="853.75" y="398.42" width="2.28" height="14.24" fill="#d64545" opacity="0.55" />
<rect x="857.02" y="398.42" width="2.28" height="6.88" fill="#d64545" opacity="0.55" />
<rect x="860.29" y="398.42" width="2.28" height="0.79" fill="#d64545" opacity="0.55" />
<rect x="863.57" y="398.42" width="2.28" height="2.02" fill="#d64545" opacity="0.55" />
<rect x="866.84" y="398.42" width="2.28" height="1.22" fill="#d64545" opacity="0.55" />
<rect x="870.12" y="393.71" width="2.28" height="4.71" fill="#2f9e44" opacity="0.55" />
<rect x="873.39" y="387.50" width="2.28" height="10.92" fill="#2f9e44" opacity="0.55" />
<rect x="876.67" y="388.36" width="2.28" height="10.06" fill="#2f9e44" opacity="0.55" />
<rect x="879.94" y="390.08" width="2.28" height="8.34" fill="#2f9e44" opacity="0.55" />
<rect x="883.21" y="391.45" width="2.28" height="6.97" fill="#2f9e44" opacity="0.55" />
<rect x="886.49" y="395.10" width="2.28" height="3.32" fill="#2f9e44" opacity="0.55" />
<rect x="889.76" y="396.48" width="2.28" height="1.94" fill="#2f9e44" opacity="0.55" />
<rect x="893.04" y="394.38" width="2.28" height="4.04" fill="#2f9e44" opacity="0.55" />
<rect x="896.31" y="398.42" width="2.28" height="0.85" fill="#d64545" opacity="0.55" />
<rect x="899.58" y="398.42" width="2.28" height="7.25" fill="#d64545" opacity="0.55" />
<rect x="902.86" y="398.42" width="2.28" height="10.48" fill="#d64545" opacity="0.55" />
<polyline fill="none" stroke="#1f77b4" stroke-width="2" points="137.85,399.67 141.13,400.52 144.40,401.46 147.68,402.43 150.95,403.04 154.22,403.09 157.50,402.95 160.77,403.14 164.05,403.14 167.32,402.69 170.59,401.66 173.87,400.59 177.14,398.82 180.42,397.04 183.69,396.16 186.97,394.58 190.24,394.37 193.51,394.27 196.79,393.52 200.06,393.13 203.34,393.00 206.61,392.68 209.88,392.45 213.16,392.65 216.43,392.96 219.71,393.38 222.98,393.42 226.25,393.59 229.53,393.77 232.80,393.99 236.08,394.04 239.35,394.21 242.63,394.68 245.90,394.71 249.17,394.51 252.45,394.59 255.72,391.58 259.00,389.84 262.27,389.03 265.54,388.18 268.82,386.59 272.09,383.96 275.37,381.23 278.64,379.84 281.92,379.48 285.19,378.10 288.46,376.50 291.74,375.75 295.01,375.56 298.29,375.35 301.56,375.30 304.83,375.33 308.11,376.40 311.38,377.02 314.66,378.62 317.93,379.27 321.20,380.17 324.48,380.98 327.75,381.22 331.03,381.59 334.30,382.73 337.58,383.12 340.85,383.54 344.12,383.34 347.40,382.26 350.67,381.70 353.95,382.10 357.22,382.70 360.49,383.61 363.77,385.86 367.04,387.02 370.32,388.69 373.59,389.61 376.86,390.26 380.14,391.18 383.41,391.98 386.69,393.76 389.96,395.43 393.24,397.22 396.51,398.85 399.78,399.68 403.06,401.15 406.33,401.78 409.61,401.52 412.88,401.26 416.15,400.49 419.43,397.79 422.70,395.99 425.98,392.69 429.25,390.02 432.53,389.82 435.80,389.25 439.07,389.53 442.35,389.74 445.62,389.84 448.90,390.73 452.17,392.44 455.44,394.02 458.72,395.42 461.99,397.24 465.27,398.56 468.54,399.29 471.81,400.10 475.09,400.72 478.36,401.29 481.64,401.69 484.91,401.69 488.19,401.32 491.46,401.21 494.73,399.73 498.01,398.56 501.28,397.27 504.56,394.84 507.83,393.82 511.10,390.63 514.38,389.03 517.65,386.11 520.93,383.17 524.20,381.26 527.47,380.72 530.75,379.60 534.02,375.81 537.30,373.06 540.57,376.29 543.85,380.50 547.12,383.21 550.39,382.83 553.67,382.77 556.94,384.11 560.22,384.04 563.49,383.90 566.76,384.32 570.04,385.00 573.31,384.40 576.59,384.28 579.86,386.06 583.14,386.95 586.41,388.78 589.68,390.16 592.96,391.66 596.23,393.32 599.51,395.14 602.78,396.88 606.05,398.53 609.33,398.44 612.60,397.96 615.88,398.37 619.15,398.60 622.42,398.85 625.70,400.36 628.97,400.15 632.25,399.77 635.52,400.85 638.80,400.47 642.07,399.49 645.34,398.05 648.62,398.43 651.89,398.45 655.17,398.46 658.44,399.41 661.71,399.61 664.99,399.11 668.26,399.99 671.54,400.58 674.81,401.00 678.08,399.57 681.36,400.14 684.63,401.10 687.91,402.89 691.18,402.62 694.46,400.21 697.73,397.01 701.00,394.29 704.28,391.04 707.55,385.24 710.83,379.32 714.10,374.54 717.37,369.52 720.65,366.67 723.92,364.18 727.20,360.65 730.47,358.32 733.75,358.50 737.02,358.78 740.29,360.00 743.57,360.56 746.84,352.74 750.12,345.78 753.39,341.19 756.66,332.60 759.94,326.77 763.21,320.19 766.49,318.04 769.76,310.45 773.03,302.82 776.31,299.81 779.58,290.13 782.86,281.29 786.13,280.57 789.41,281.53 792.68,286.01 795.95,294.75 799.23,303.12 802.50,309.30 805.78,310.67 809.05,312.99 812.32,315.04 815.60,315.57 818.87,317.90 822.15,321.12 825.42,327.95 828.69,337.06 831.97,345.66 835.24,350.37 838.52,355.12 841.79,366.29 845.07,369.28 848.34,373.25 851.61,377.14 854.89,374.96 858.16,369.32 861.44,363.42 864.71,365.15 867.98,364.66 871.26,357.55 874.53,348.61 877.81,346.95 881.08,346.58 884.36,346.22 887.63,349.03 890.90,349.92 894.18,346.81 897.45,351.92 900.73,360.13 904.00,365.98" />
<polyline fill="none" stroke="#ff7f0e" stroke-width="2" points="137.85,399.67 141.13,399.84 144.40,400.17 147.68,400.62 150.95,401.10 154.22,401.50 157.50,401.79 160.77,402.06 164.05,402.28 167.32,402.36 170.59,402.22 173.87,401.89 177.14,401.28 180.42,400.43 183.69,399.58 186.97,398.58 190.24,397.74 193.51,397.04 196.79,396.34 200.06,395.70 203.34,395.16 206.61,394.66 209.88,394.22 213.16,393.91 216.43,393.72 219.71,393.65 222.98,393.60 226.25,393.60 229.53,393.63 232.80,393.71 236.08,393.77 239.35,393.86 242.63,394.02 245.90,394.16 249.17,394.23 252.45,394.30 255.72,393.76 259.00,392.97 262.27,392.18 265.54,391.38 268.82,390.43 272.09,389.13 275.37,387.55 278.64,386.01 281.92,384.70 285.19,383.38 288.46,382.01 291.74,380.76 295.01,379.72 298.29,378.84 301.56,378.13 304.83,377.57 308.11,377.34 311.38,377.27 314.66,377.54 317.93,377.89 321.20,378.34 324.48,378.87 327.75,379.34 331.03,379.79 334.30,380.38 337.58,380.93 340.85,381.45 344.12,381.83 347.40,381.91 350.67,381.87 353.95,381.92 357.22,382.07 360.49,382.38 363.77,383.08 367.04,383.86 370.32,384.83 373.59,385.79 376.86,386.68 380.14,387.58 383.41,388.46 386.69,389.52 389.96,390.70 393.24,392.01 396.51,393.38 399.78,394.64 403.06,395.94 406.33,397.11 409.61,397.99 412.88,398.64 416.15,399.01 419.43,398.77 422.70,398.21 425.98,397.11 429.25,395.69 432.53,394.52 435.80,393.46 439.07,392.68 442.35,392.09 445.62,391.64 448.90,391.46 452.17,391.65 455.44,392.13 458.72,392.78 461.99,393.68 465.27,394.65 468.54,395.58 471.81,396.48 475.09,397.33 478.36,398.12 481.64,398.84 484.91,399.41 488.19,399.79 491.46,400.07 494.73,400.00 498.01,399.71 501.28,399.23 504.56,398.35 507.83,397.44 511.10,396.08 514.38,394.67 517.65,392.96 520.93,391.00 524.20,389.05 527.47,387.39 530.75,385.83 534.02,383.83 537.30,381.67 540.57,380.60 543.85,380.58 547.12,381.10 550.39,381.45 553.67,381.71 556.94,382.19 560.22,382.56 563.49,382.83 566.76,383.13 570.04,383.50 573.31,383.68 576.59,383.80 579.86,384.25 583.14,384.79 586.41,385.59 589.68,386.50 592.96,387.54 596.23,388.69 599.51,389.98 602.78,391.36 606.05,392.79 609.33,393.92 612.60,394.73 615.88,395.46 619.15,396.09 622.42,396.64 625.70,397.38 628.97,397.94 632.25,398.30 635.52,398.81 638.80,399.14 642.07,399.21 645.34,398.98 648.62,398.87 651.89,398.79 655.17,398.72 658.44,398.86 661.71,399.01 664.99,399.03 668.26,399.22 671.54,399.49 674.81,399.79 678.08,399.75 681.36,399.83 684.63,400.08 687.91,400.64 691.18,401.04 694.46,400.87 697.73,400.10 701.00,398.94 704.28,397.36 707.55,394.94 710.83,391.81 714.10,388.36 717.37,384.59 720.65,381.01 723.92,377.64 727.20,374.25 730.47,371.06 733.75,368.55 737.02,366.59 740.29,365.27 743.57,364.33 746.84,362.01 750.12,358.77 753.39,355.25 756.66,350.72 759.94,345.93 763.21,340.78 766.49,336.23 769.76,331.07 773.03,325.42 776.31,320.30 779.58,314.27 782.86,307.67 786.13,302.25 789.41,298.11 792.68,295.69 795.95,295.50 799.23,297.02 802.50,299.48 805.78,301.72 809.05,303.97 812.32,306.19 815.60,308.06 818.87,310.03 822.15,312.25 825.42,315.39 828.69,319.72 831.97,324.91 835.24,330.00 838.52,335.03 841.79,341.28 845.07,346.88 848.34,352.15 851.61,357.15 854.89,360.71 858.16,362.43 861.44,362.63 864.71,363.13 867.98,363.44 871.26,362.26 874.53,359.53 877.81,357.01 881.08,354.93 884.36,353.19 887.63,352.35 890.90,351.87 894.18,350.86 897.45,351.07 900.73,352.88 904.00,355.50" />
<text x="754.00" y="290.00" font-size="13" font-family="Arial" fill="#1f77b4" text-anchor="start">MACD</text>
<text x="818.00" y="290.00" font-size="13" font-family="Arial" fill="#ff7f0e" text-anchor="start">Signal</text>
<line x1="56" y1="624" x2="904" y2="624" stroke="#cbd2d9" />
<line x1="56" y1="484" x2="56" y2="624" stroke="#cbd2d9" />
<text x="16.00" y="476.00" font-size="12" font-family="Arial" fill="#52606d" text-anchor="start">KD</text>
<line x1="56" y1="624.00" x2="904" y2="624.00" stroke="#edf2f7" />
<line x1="52" y1="624.00" x2="56" y2="624.00" stroke="#9fb3c8" />
<text x="48.00" y="628.00" font-size="11" font-family="Arial" fill="#52606d" text-anchor="end">-5.00</text>
<line x1="56" y1="577.33" x2="904" y2="577.33" stroke="#edf2f7" />
<line x1="52" y1="577.33" x2="56" y2="577.33" stroke="#9fb3c8" />
<text x="48.00" y="581.33" font-size="11" font-family="Arial" fill="#52606d" text-anchor="end">31.7</text>
<line x1="56" y1="530.67" x2="904" y2="530.67" stroke="#edf2f7" />
<line x1="52" y1="530.67" x2="56" y2="530.67" stroke="#9fb3c8" />
<text x="48.00" y="534.67" font-size="11" font-family="Arial" fill="#52606d" text-anchor="end">68.3</text>
<line x1="56" y1="484.00" x2="904" y2="484.00" stroke="#edf2f7" />
<line x1="52" y1="484.00" x2="56" y2="484.00" stroke="#9fb3c8" />
<text x="48.00" y="488.00" font-size="11" font-family="Arial" fill="#52606d" text-anchor="end">105</text>
<line x1="56.00" y1="624" x2="56.00" y2="628" stroke="#9fb3c8" />
<text x="56.00" y="642.00" font-size="11" font-family="Arial" fill="#52606d" text-anchor="middle">06/23</text>
<line x1="226.25" y1="624" x2="226.25" y2="628" stroke="#9fb3c8" />
<text x="226.25" y="642.00" font-size="11" font-family="Arial" fill="#52606d" text-anchor="middle">09/05</text>
<line x1="396.51" y1="624" x2="396.51" y2="628" stroke="#9fb3c8" />
<text x="396.51" y="642.00" font-size="11" font-family="Arial" fill="#52606d" text-anchor="middle">11/18</text>
<line x1="563.49" y1="624" x2="563.49" y2="628" stroke="#9fb3c8" />
<text x="563.49" y="642.00" font-size="11" font-family="Arial" fill="#52606d" text-anchor="middle">02/03</text>
<line x1="733.75" y1="624" x2="733.75" y2="628" stroke="#9fb3c8" />
<text x="733.75" y="642.00" font-size="11" font-family="Arial" fill="#52606d" text-anchor="middle">04/20</text>
<line x1="904.00" y1="624" x2="904.00" y2="628" stroke="#9fb3c8" />
<text x="904.00" y="642.00" font-size="11" font-family="Arial" fill="#52606d" text-anchor="middle">07/06</text>
<line x1="56" y1="592.18" x2="904" y2="592.18" stroke="#f0b429" stroke-dasharray="5 5" />
<text x="912.00" y="596.18" font-size="10" font-family="Arial" fill="#8d2b0b" text-anchor="start">20.0</text>
<line x1="56" y1="515.82" x2="904" y2="515.82" stroke="#f0b429" stroke-dasharray="5 5" />
<text x="912.00" y="519.82" font-size="10" font-family="Arial" fill="#8d2b0b" text-anchor="start">80.0</text>
<polyline fill="none" stroke="#2ca02c" stroke-width="2" points="82.19,547.04 85.47,556.70 88.74,538.33 92.02,528.88 95.29,519.75 98.56,520.22 101.84,522.73 105.11,530.79 108.39,543.59 111.66,549.98 114.93,550.99 118.21,549.27 121.48,548.59 124.76,538.31 128.03,554.55 131.31,571.42 134.58,582.91 137.85,593.64 141.13,598.70 144.40,603.58 147.68,605.17 150.95,604.49 154.22,597.64 157.50,577.98 160.77,576.57 164.05,568.14 167.32,557.54 170.59,535.88 173.87,521.73 177.14,514.25 180.42,513.93 183.69,520.03 186.97,517.61 190.24,526.86 193.51,535.80 196.79,533.37 200.06,535.29 203.34,540.29 206.61,542.65 209.88,543.32 213.16,550.33 216.43,553.20 219.71,557.98 222.98,559.60 226.25,563.33 229.53,558.18 232.80,555.92 236.08,544.82 239.35,538.51 242.63,551.31 245.90,547.82 249.17,533.38 252.45,535.89 255.72,529.93 259.00,531.00 262.27,535.89 265.54,536.20 268.82,526.83 272.09,515.77 275.37,510.17 278.64,510.08 281.92,518.92 285.19,511.42 288.46,505.70 291.74,506.31 295.01,510.38 298.29,512.28 301.56,514.35 304.83,512.95 308.11,526.41 311.38,531.16 314.66,551.94 317.93,552.80 321.20,556.02 324.48,556.72 327.75,547.86 331.03,541.78 334.30,547.99 337.58,532.77 340.85,537.37 344.12,533.93 347.40,525.67 350.67,521.41 353.95,526.34 357.22,530.75 360.49,536.92 363.77,559.62 367.04,566.27 370.32,578.97 373.59,580.98 376.86,578.93 380.14,580.78 383.41,580.34 386.69,588.87 389.96,591.14 393.24,596.34 396.51,598.30 399.78,593.78 403.06,600.75 406.33,593.57 409.61,578.42 412.88,563.27 416.15,543.16 419.43,525.73 422.70,517.14 425.98,509.04 429.25,503.80 432.53,512.74 435.80,517.14 439.07,525.11 442.35,532.45 445.62,539.00 448.90,560.09 452.17,578.01 455.44,590.02 458.72,596.62 461.99,603.13 465.27,603.95 468.54,599.79 471.81,600.15 475.09,599.60 478.36,595.51 481.64,587.86 484.91,573.40 488.19,558.03 491.46,552.90 494.73,536.20 498.01,537.12 501.28,533.76 504.56,527.85 507.83,532.13 511.10,518.98 514.38,517.39 517.65,511.93 520.93,505.80 524.20,508.33 527.47,515.06 530.75,514.39 534.02,506.87 537.30,502.28 540.57,536.06 543.85,562.53 547.12,575.22 550.39,566.97 553.67,561.89 556.94,566.04 560.22,560.76 563.49,555.71 566.76,547.24 570.04,543.25 573.31,530.17 576.59,525.76 579.86,544.84 583.14,549.34 586.41,565.17 589.68,570.81 592.96,578.31 596.23,587.59 599.51,593.58 602.78,595.34 606.05,598.62 609.33,584.35 612.60,567.49 615.88,561.45 619.15,551.86 622.42,546.61 625.70,561.85 628.97,550.23 632.25,539.24 635.52,554.13 638.80,543.94 642.07,533.56 645.34,524.17 648.62,534.03 651.89,537.53 655.17,541.02 658.44,552.92 661.71,555.40 664.99,550.56 668.26,571.16 671.54,583.81 674.81,588.98 678.08,570.25 681.36,579.65 684.63,590.01 687.91,595.93 691.18,582.60 694.46,555.71 697.73,534.40 701.00,525.53 704.28,515.02 707.55,507.30 710.83,502.37 714.10,500.25 717.37,497.78 720.65,499.09 723.92,498.11 727.20,495.78 730.47,498.03 733.75,508.13 737.02,516.67 740.29,530.31 743.57,535.27 746.84,525.22 750.12,517.29 753.39,513.11 756.66,505.81 759.94,502.30 763.21,499.32 766.49,501.92 769.76,500.26 773.03,497.57 776.31,501.33 779.58,502.49 782.86,501.44 786.13,510.23 789.41,516.78 792.68,527.18 795.95,546.05 799.23,563.57 802.50,569.85 805.78,562.63 809.05,558.46 812.32,549.05 815.60,533.32 818.87,526.04 822.15,522.79 825.42,532.91 828.69,549.02 831.97,564.80 835.24,566.29 838.52,569.03 841.79,583.98 845.07,577.30 848.34,576.38 851.61,577.08 854.89,553.16 858.16,536.62 861.44,527.08 864.71,534.10 867.98,533.76 871.26,521.05 874.53,511.34 877.81,515.00 881.08,520.22 884.36,524.21 887.63,534.81 890.90,536.22 894.18,525.68 897.45,541.18 900.73,562.00 904.00,572.70" />
<polyline fill="none" stroke="#d62728" stroke-width="2" points="82.19,551.68 85.47,553.35 88.74,548.35 92.02,541.86 95.29,534.49 98.56,529.73 101.84,527.40 105.11,528.53 108.39,533.55 111.66,539.03 114.93,543.01 118.21,545.10 121.48,546.26 124.76,543.61 128.03,547.26 131.31,555.31 134.58,564.51 137.85,574.22 141.13,582.38 144.40,589.45 147.68,594.69 150.95,597.95 154.22,597.85 157.50,591.23 160.77,586.34 164.05,580.27 167.32,572.70 170.59,560.42 173.87,547.53 177.14,536.43 180.42,528.93 183.69,525.96 186.97,523.18 190.24,524.41 193.51,528.20 196.79,529.93 200.06,531.71 203.34,534.57 206.61,537.26 209.88,539.28 213.16,542.97 216.43,546.38 219.71,550.25 222.98,553.36 226.25,556.69 229.53,557.19 232.80,556.76 236.08,552.78 239.35,548.02 242.63,549.12 245.90,548.68 249.17,543.58 252.45,541.02 255.72,537.32 259.00,535.22 262.27,535.44 265.54,535.69 268.82,532.74 272.09,527.08 275.37,521.45 278.64,517.66 281.92,518.08 285.19,515.86 288.46,512.47 291.74,510.42 295.01,510.41 298.29,511.03 301.56,512.14 304.83,512.41 308.11,517.07 311.38,521.77 314.66,531.83 317.93,538.82 321.20,544.55 324.48,548.61 327.75,548.36 331.03,546.16 334.30,546.77 337.58,542.11 340.85,540.53 344.12,538.33 347.40,534.11 350.67,529.88 353.95,528.70 357.22,529.38 360.49,531.90 363.77,541.14 367.04,549.51 370.32,559.33 373.59,566.55 376.86,570.67 380.14,574.04 383.41,576.14 386.69,580.38 389.96,583.97 393.24,588.09 396.51,591.50 399.78,592.26 403.06,595.09 406.33,594.58 409.61,589.19 412.88,580.55 416.15,568.09 419.43,553.97 422.70,541.69 425.98,530.81 429.25,521.81 432.53,518.78 435.80,518.24 439.07,520.53 442.35,524.50 445.62,529.34 448.90,539.59 452.17,552.39 455.44,564.93 458.72,575.50 461.99,584.71 465.27,591.12 468.54,594.01 471.81,596.06 475.09,597.24 478.36,596.66 481.64,593.73 484.91,586.95 488.19,577.31 491.46,569.18 494.73,558.18 498.01,551.16 501.28,545.36 504.56,539.52 507.83,537.06 511.10,531.03 514.38,526.49 517.65,521.63 520.93,516.35 524.20,513.68 527.47,514.14 530.75,514.22 534.02,511.77 537.30,508.61 540.57,517.76 543.85,532.68 547.12,546.86 550.39,553.56 553.67,556.34 556.94,559.57 560.22,559.97 563.49,558.55 566.76,554.78 570.04,550.94 573.31,544.02 576.59,537.93 579.86,540.23 583.14,543.27 586.41,550.57 589.68,557.32 592.96,564.32 596.23,572.07 599.51,579.24 602.78,584.61 606.05,589.28 609.33,587.64 612.60,580.92 615.88,574.43 619.15,566.91 622.42,560.14 625.70,560.71 628.97,557.22 632.25,551.22 635.52,552.19 638.80,549.44 642.07,544.15 645.34,537.49 648.62,536.33 651.89,536.73 655.17,538.16 658.44,543.08 661.71,547.19 664.99,548.31 668.26,555.93 671.54,565.22 674.81,573.14 678.08,572.18 681.36,574.67 684.63,579.78 687.91,585.17 691.18,584.31 694.46,574.78 697.73,561.32 701.00,549.39 704.28,537.93 707.55,527.72 710.83,519.27 714.10,512.93 717.37,507.88 720.65,504.95 723.92,502.67 727.20,500.37 730.47,499.59 733.75,502.44 737.02,507.18 740.29,514.89 743.57,521.68 746.84,522.86 750.12,521.01 753.39,518.37 756.66,514.19 759.94,510.22 763.21,506.59 766.49,505.03 769.76,503.44 773.03,501.49 776.31,501.43 779.58,501.78 782.86,501.67 786.13,504.52 789.41,508.61 792.68,514.80 795.95,525.22 799.23,538.00 802.50,548.62 805.78,553.29 809.05,555.01 812.32,553.02 815.60,546.46 818.87,539.65 822.15,534.03 825.42,533.66 828.69,538.78 831.97,547.45 835.24,553.73 838.52,558.83 841.79,567.21 845.07,570.58 848.34,572.51 851.61,574.03 854.89,567.07 858.16,556.92 861.44,546.97 864.71,542.68 867.98,539.71 871.26,533.49 874.53,526.11 877.81,522.40 881.08,521.68 884.36,522.52 887.63,526.62 890.90,529.82 894.18,528.44 897.45,532.68 900.73,542.46 904.00,552.54" />
<text x="824.00" y="502.00" font-size="13" font-family="Arial" fill="#2ca02c" text-anchor="start">K</text>
<text x="860.00" y="502.00" font-size="13" font-family="Arial" fill="#d62728" text-anchor="start">D</text>
</svg>