<svg xmlns="http://www.w3.org/2000/svg" width="960" height="680" viewBox="0 0 960 680"><rect width="100%" height="100%" fill="white" />
<text x="56.00" y="32.00" font-size="20" font-family="Arial" fill="#1f2933" text-anchor="start">META Technical Indicators</text>
<line x1="56" y1="220" x2="904" y2="220" stroke="#cbd2d9" />
<line x1="56" y1="58" x2="56" y2="220" stroke="#cbd2d9" />
<text x="16.00" y="50.00" font-size="12" font-family="Arial" fill="#52606d" text-anchor="start">RSI14</text>
<line x1="56" y1="220.00" x2="904" y2="220.00" stroke="#edf2f7" />
<line x1="52" y1="220.00" x2="56" y2="220.00" stroke="#9fb3c8" />
<text x="48.00" y="224.00" font-size="11" font-family="Arial" fill="#52606d" text-anchor="end">-5.00</text>
<line x1="56" y1="166.00" x2="904" y2="166.00" stroke="#edf2f7" />
<line x1="52" y1="166.00" x2="56" y2="166.00" stroke="#9fb3c8" />
<text x="48.00" y="170.00" font-size="11" font-family="Arial" fill="#52606d" text-anchor="end">31.7</text>
<line x1="56" y1="112.00" x2="904" y2="112.00" stroke="#edf2f7" />
<line x1="52" y1="112.00" x2="56" y2="112.00" stroke="#9fb3c8" />
<text x="48.00" y="116.00" font-size="11" font-family="Arial" fill="#52606d" text-anchor="end">68.3</text>
<line x1="56" y1="58.00" x2="904" y2="58.00" stroke="#edf2f7" />
<line x1="52" y1="58.00" x2="56" y2="58.00" stroke="#9fb3c8" />
<text x="48.00" y="62.00" font-size="11" font-family="Arial" fill="#52606d" text-anchor="end">105</text>
<line x1="56" y1="168.45" x2="904" y2="168.45" stroke="#f0b429" stroke-dasharray="5 5" />
<text x="912.00" y="172.45" font-size="10" font-family="Arial" fill="#8d2b0b" text-anchor="start">30.0</text>
<line x1="56" y1="109.55" x2="904" y2="109.55" stroke="#f0b429" stroke-dasharray="5 5" />
<text x="912.00" y="113.55" font-size="10" font-family="Arial" fill="#8d2b0b" text-anchor="start">70.0</text>
<polyline fill="none" stroke="#1f77b4" stroke-width="2" points="101.84,141.57 105.11,154.29 108.39,157.20 111.66,114.33 114.93,127.19 118.21,118.73 121.48,125.05 124.76,122.33 128.03,127.33 131.31,124.72 134.58,126.51 137.85,118.35 141.13,123.61 144.40,122.90 147.68,121.77 150.95,131.62 154.22,139.24 157.50,140.96 160.77,144.88 164.05,137.18 167.32,137.92 170.59,137.52 173.87,141.16 177.14,139.02 180.42,145.77 183.69,147.63 186.97,146.32 190.24,138.80 193.51,136.47 196.79,136.57 200.06,128.40 203.34,137.86 206.61,138.57 209.88,135.47 213.16,129.78 216.43,122.01 219.71,124.63 222.98,122.19 226.25,123.82 229.53,134.16 232.80,141.06 236.08,137.39 239.35,145.26 242.63,148.43 245.90,148.66 249.17,154.22 252.45,163.00 255.72,154.75 259.00,162.50 262.27,158.35 265.54,159.59 268.82,155.52 272.09,143.55 275.37,157.69 278.64,150.75 281.92,153.97 285.19,148.12 288.46,150.83 291.74,147.54 295.01,138.07 298.29,137.43 301.56,137.34 304.83,136.95 308.11,133.95 311.38,126.14 314.66,125.77 317.93,125.62 321.20,168.36 324.48,172.83 327.75,175.23 331.03,177.45 334.30,171.79 337.58,175.74 340.85,173.90 344.12,167.26 347.40,168.61 350.67,173.46 353.95,172.84 357.22,172.96 360.49,175.07 363.77,176.28 367.04,178.31 370.32,178.64 373.59,173.82 376.86,158.16 380.14,143.24 383.41,144.57 386.69,136.51 389.96,140.42 393.24,136.94 396.51,141.23 399.78,129.74 403.06,124.51 406.33,128.60 409.61,134.42 412.88,138.27 416.15,136.84 419.43,141.76 422.70,139.43 425.98,133.75 429.25,138.60 432.53,130.21 435.80,133.90 439.07,132.35 442.35,130.35 445.62,128.80 448.90,132.17 452.17,135.76 455.44,130.80 458.72,135.52 461.99,142.70 465.27,136.53 468.54,135.21 471.81,144.09 475.09,145.90 478.36,140.22 481.64,148.00 484.91,154.59 488.19,162.48 491.46,157.89 494.73,158.18 498.01,165.95 501.28,158.13 504.56,135.21 507.83,129.71 511.10,123.67 514.38,123.41 517.65,126.32 520.93,104.01 524.20,115.96 527.47,120.98 530.75,127.89 534.02,137.33 537.30,136.87 540.57,140.44 543.85,134.15 547.12,136.97 550.39,137.87 553.67,145.85 556.94,149.69 560.22,149.88 563.49,147.73 566.76,146.85 570.04,140.76 573.31,149.37 576.59,148.18 579.86,140.17 583.14,138.42 586.41,143.09 589.68,140.01 592.96,139.12 596.23,132.00 599.51,136.48 602.78,145.32 606.05,143.74 609.33,139.58 612.60,139.08 615.88,148.83 619.15,159.88 622.42,150.61 625.70,152.73 628.97,155.79 632.25,159.54 635.52,164.51 638.80,157.13 642.07,161.52 645.34,160.10 648.62,174.67 651.89,179.27 655.17,172.45 658.44,153.41 661.71,150.19 664.99,151.80 668.26,152.31 671.54,151.22 674.81,134.19 678.08,128.44 681.36,127.92 684.63,126.21 687.91,117.08 691.18,114.50 694.46,113.01 697.73,109.81 701.00,119.95 704.28,121.09 707.55,119.07 710.83,127.84 714.10,122.01 717.37,120.75 720.65,125.00 723.92,126.31 727.20,151.65 730.47,152.70 733.75,151.86 737.02,153.86 740.29,149.53 743.57,147.38 746.84,150.50 750.12,154.95 753.39,152.37 756.66,144.31 759.94,143.28 763.21,145.48 766.49,147.08 769.76,151.56 773.03,149.79 776.31,148.06 779.58,145.85 782.86,144.22 786.13,128.89 789.41,128.87 792.68,131.10 795.95,151.34 799.23,152.76 802.50,136.85 805.78,134.40 809.05,151.42 812.32,154.42 815.60,154.75 818.87,160.06 822.15,161.02 825.42,161.59 828.69,144.15 831.97,140.49 835.24,154.55 838.52,149.35 841.79,154.42 845.07,155.04 848.34,156.78 851.61,162.15 854.89,157.40 858.16,149.91 861.44,149.50 864.71,126.46 867.98,139.51 871.26,133.11 874.53,127.99 877.81,133.25 881.08,124.28 884.36,114.89 887.63,120.14 890.90,119.07 894.18,114.22 897.45,121.54 900.73,128.95 904.00,129.02" />
<text x="808.00" y="76.00" font-size="13" font-family="Arial" fill="#1f77b4" text-anchor="start">RSI14</text>
<line x1="56" y1="432" x2="904" y2="432" stroke="#cbd2d9" />
<line x1="56" y1="272" x2="56" y2="432" stroke="#cbd2d9" />
<text x="16.00" y="264.00" font-size="12" font-family="Arial" fill="#52606d" text-anchor="start">MACD</text>
<line x1="56" y1="432.00" x2="904" y2="432.00" stroke="#edf2f7" />
<line x1="52" y1="432.00" x2="56" y2="432.00" stroke="#9fb3c8" />
<text x="48.00" y="436.00" font-size="11" font-family="Arial" fill="#52606d" text-anchor="end">-36.3</text>
<line x1="56" y1="378.67" x2="904" y2="378.67" stroke="#edf2f7" />
<line x1="52" y1="378.67" x2="56" y2="378.67" stroke="#9fb3c8" />
<text x="48.00" y="382.67" font-size="11" font-family="Arial" fill="#52606d" text-anchor="end">-16.5</text>
<line x1="56" y1="325.33" x2="904" y2="325.33" stroke="#edf2f7" />
<line x1="52" y1="325.33" x2="56" y2="325.33" stroke="#9fb3c8" />
<text x="48.00" y="329.33" font-size="11" font-family="Arial" fill="#52606d" text-anchor="end">3.35</text>
<line x1="56" y1="272.00" x2="904" y2="272.00" stroke="#edf2f7" />
<line x1="52" y1="272.00" x2="56" y2="272.00" stroke="#9fb3c8" />
<text x="48.00" y="276.00" font-size="11" font-family="Arial" fill="#52606d" text-anchor="end">23.2</text>
<line x1="56" y1="334.35" x2="904" y2="334.35" stroke="#9fb3c8" stroke-dasharray="4 4" />
<rect x="136.71" y="334.35" width="2.28" height="0.00" fill="#2f9e44" opacity="0.55" />
<rect x="139.99" y="332.99" width="2.28" height="1.36" fill="#2f9e44" opacity="0.55" />
<rect x="143.26" y="332.24" width="2.28" height="2.11" fill="#2f9e44" opacity="0.55" />
<rect x="146.53" y="331.75" width="2.28" height="2.60" fill="#2f9e44" opacity="0.55" />
<rect x="149.81" y="334.35" width="2.28" height="0.69" fill="#d64545" opacity="0.55" />
<rect x="153.08" y="334.35" width="2.28" height="5.83" fill="#d64545" opacity="0.55" />
<rect x="156.36" y="334.35" width="2.28" height="9.78" fill="#d64545" opacity="0.55" />
<rect x="159.63" y="334.35" width="2.28" height="13.58" fill="#d64545" opacity="0.55" />
<rect x="162.90" y="334.35" width="2.28" height="12.90" fill="#d64545" opacity="0.55" />
<rect x="166.18" y="334.35" width="2.28" height="12.36" fill="#d64545" opacity="0.55" />
<rect x="169.45" y="334.35" width="2.28" height="11.51" fill="#d64545" opacity="0.55" />
<rect x="172.73" y="334.35" width="2.28" height="11.77" fill="#d64545" opacity="0.55" />
<rect x="176.00" y="334.35" width="2.28" height="10.90" fill="#d64545" opacity="0.55" />
<rect x="179.28" y="334.35" width="2.28" height="12.11" fill="#d64545" opacity="0.55" />
<rect x="182.55" y="334.35" width="2.28" height="13.02" fill="#d64545" opacity="0.55" />
<rect x="185.82" y="334.35" width="2.28" height="12.71" fill="#d64545" opacity="0.55" />
<rect x="189.10" y="334.35" width="2.28" height="9.98" fill="#d64545" opacity="0.55" />
<rect x="192.37" y="334.35" width="2.28" height="7.18" fill="#d64545" opacity="0.55" />
<rect x="195.65" y="334.35" width="2.28" height="5.15" fill="#d64545" opacity="0.55" />
<rect x="198.92" y="334.35" width="2.28" height="1.38" fill="#d64545" opacity="0.55" />
<rect x="202.19" y="334.35" width="2.28" height="1.34" fill="#d64545" opacity="0.55" />
<rect x="205.47" y="334.35" width="2.28" height="1.49" fill="#d64545" opacity="0.55" />
<rect x="208.74" y="334.35" width="2.28" height="0.76" fill="#d64545" opacity="0.55" />
<rect x="212.02" y="333.10" width="2.28" height="1.25" fill="#2f9e44" opacity="0.55" />
<rect x="215.29" y="329.51" width="2.28" height="4.84" fill="#2f9e44" opacity="0.55" />
<rect x="218.57" y="328.14" width="2.28" height="6.21" fill="#2f9e44" opacity="0.55" />
<rect x="221.84" y="326.91" width="2.28" height="7.45" fill="#2f9e44" opacity="0.55" />
<rect x="225.11" y="326.94" width="2.28" height="7.41" fill="#2f9e44" opacity="0.55" />
<rect x="228.39" y="329.63" width="2.28" height="4.72" fill="#2f9e44" opacity="0.55" />
<rect x="231.66" y="333.36" width="2.28" height="0.99" fill="#2f9e44" opacity="0.55" />
<rect x="234.94" y="334.35" width="2.28" height="0.63" fill="#d64545" opacity="0.55" />
<rect x="238.21" y="334.35" width="2.28" height="3.74" fill="#d64545" opacity="0.55" />
<rect x="241.48" y="334.35" width="2.28" height="6.49" fill="#d64545" opacity="0.55" />
<rect x="244.76" y="334.35" width="2.28" height="8.04" fill="#d64545" opacity="0.55" />
<rect x="248.03" y="334.35" width="2.28" height="10.21" fill="#d64545" opacity="0.55" />
<rect x="251.31" y="334.35" width="2.28" height="14.01" fill="#d64545" opacity="0.55" />
<rect x="254.58" y="334.35" width="2.28" height="14.03" fill="#d64545" opacity="0.55" />
<rect x="257.85" y="334.35" width="2.28" height="16.12" fill="#d64545" opacity="0.55" />
<rect x="261.13" y="334.35" width="2.28" height="15.67" fill="#d64545" opacity="0.55" />
<rect x="264.40" y="334.35" width="2.28" height="14.93" fill="#d64545" opacity="0.55" />
<rect x="267.68" y="334.35" width="2.28" height="12.75" fill="#d64545" opacity="0.55" />
<rect x="270.95" y="334.35" width="2.28" height="7.90" fill="#d64545" opacity="0.55" />
<rect x="274.23" y="334.35" width="2.28" height="9.11" fill="#d64545" opacity="0.55" />
<rect x="277.50" y="334.35" width="2.28" height="7.43" fill="#d64545" opacity="0.55" />
<rect x="280.77" y="334.35" width="2.28" height="7.00" fill="#d64545" opacity="0.55" />
<rect x="284.05" y="334.35" width="2.28" height="4.63" fill="#d64545" opacity="0.55" />
<rect x="287.32" y="334.35" width="2.28" height="3.61" fill="#d64545" opacity="0.55" />
<rect x="290.60" y="334.35" width="2.28" height="1.72" fill="#d64545" opacity="0.55" />
<rect x="293.87" y="331.95" width="2.28" height="2.40" fill="#2f9e44" opacity="0.55" />
<rect x="297.14" y="329.08" width="2.28" height="5.27" fill="#2f9e44" opacity="0.55" />
<rect x="300.42" y="327.31" width="2.28" height="7.04" fill="#2f9e44" opacity="0.55" />
<rect x="303.69" y="326.27" width="2.28" height="8.08" fill="#2f9e44" opacity="0.55" />
<rect x="306.97" y="325.11" width="2.28" height="9.24" fill="#2f9e44" opacity="0.55" />
<rect x="310.24" y="322.57" width="2.28" height="11.78" fill="#2f9e44" opacity="0.55" />
<rect x="313.51" y="321.35" width="2.28" height="13.00" fill="#2f9e44" opacity="0.55" />
<rect x="316.79" y="321.13" width="2.28" height="13.22" fill="#2f9e44" opacity="0.55" />
<rect x="320.06" y="334.35" width="2.28" height="1.84" fill="#d64545" opacity="0.55" />
<rect x="323.34" y="334.35" width="2.28" height="14.21" fill="#d64545" opacity="0.55" />
<rect x="326.61" y="334.35" width="2.28" height="22.93" fill="#d64545" opacity="0.55" />
<rect x="329.89" y="334.35" width="2.28" height="28.80" fill="#d64545" opacity="0.55" />
<rect x="333.16" y="334.35" width="2.28" height="29.27" fill="#d64545" opacity="0.55" />
<rect x="336.43" y="334.35" width="2.28" height="30.64" fill="#d64545" opacity="0.55" />
<rect x="339.71" y="334.35" width="2.28" height="29.05" fill="#d64545" opacity="0.55" />
<rect x="342.98" y="334.35" width="2.28" height="24.38" fill="#d64545" opacity="0.55" />
<rect x="346.26" y="334.35" width="2.28" height="20.49" fill="#d64545" opacity="0.55" />
<rect x="349.53" y="334.35" width="2.28" height="19.53" fill="#d64545" opacity="0.55" />
<rect x="352.80" y="334.35" width="2.28" height="17.18" fill="#d64545" opacity="0.55" />
<rect x="356.08" y="334.35" width="2.28" height="14.26" fill="#d64545" opacity="0.55" />
<rect x="359.35" y="334.35" width="2.28" height="12.30" fill="#d64545" opacity="0.55" />
<rect x="362.63" y="334.35" width="2.28" height="10.49" fill="#d64545" opacity="0.55" />
<rect x="365.90" y="334.35" width="2.28" height="9.37" fill="#d64545" opacity="0.55" />
<rect x="369.18" y="334.35" width="2.28" height="7.64" fill="#d64545" opacity="0.55" />
<rect x="372.45" y="334.35" width="2.28" height="4.55" fill="#d64545" opacity="0.55" />
<rect x="375.72" y="332.75" width="2.28" height="1.60" fill="#2f9e44" opacity="0.55" />
<rect x="379.00" y="324.26" width="2.28" height="10.09" fill="#2f9e44" opacity="0.55" />
<rect x="382.27" y="319.19" width="2.28" height="15.16" fill="#2f9e44" opacity="0.55" />
<rect x="385.55" y="313.66" width="2.28" height="20.69" fill="#2f9e44" opacity="0.55" />
<rect x="388.82" y="311.85" width="2.28" height="22.50" fill="#2f9e44" opacity="0.55" />
<rect x="392.09" y="310.23" width="2.28" height="24.12" fill="#2f9e44" opacity="0.55" />
<rect x="395.37" y="311.23" width="2.28" height="23.12" fill="#2f9e44" opacity="0.55" />
<rect x="398.64" y="308.82" width="2.28" height="25.53" fill="#2f9e44" opacity="0.55" />
<rect x="401.92" y="306.19" width="2.28" height="28.16" fill="#2f9e44" opacity="0.55" />
<rect x="405.19" y="306.79" width="2.28" height="27.56" fill="#2f9e44" opacity="0.55" />
<rect x="408.46" y="309.99" width="2.28" height="24.36" fill="#2f9e44" opacity="0.55" />
<rect x="411.74" y="314.20" width="2.28" height="20.15" fill="#2f9e44" opacity="0.55" />
<rect x="415.01" y="317.26" width="2.28" height="17.09" fill="#2f9e44" opacity="0.55" />
<rect x="418.29" y="321.36" width="2.28" height="12.99" fill="#2f9e44" opacity="0.55" />
<rect x="421.56" y="323.83" width="2.28" height="10.52" fill="#2f9e44" opacity="0.55" />
<rect x="424.84" y="324.17" width="2.28" height="10.18" fill="#2f9e44" opacity="0.55" />
<rect x="428.11" y="326.15" width="2.28" height="8.20" fill="#2f9e44" opacity="0.55" />
<rect x="431.38" y="325.19" width="2.28" height="9.16" fill="#2f9e44" opacity="0.55" />
<rect x="434.66" y="326.00" width="2.28" height="8.35" fill="#2f9e44" opacity="0.55" />
<rect x="437.93" y="326.45" width="2.28" height="7.90" fill="#2f9e44" opacity="0.55" />
<rect x="441.21" y="326.55" width="2.28" height="7.80" fill="#2f9e44" opacity="0.55" />
<rect x="444.48" y="326.59" width="2.28" height="7.76" fill="#2f9e44" opacity="0.55" />
<rect x="447.75" y="327.78" width="2.28" height="6.57" fill="#2f9e44" opacity="0.55" />
<rect x="451.03" y="329.70" width="2.28" height="4.65" fill="#2f9e44" opacity="0.55" />
<rect x="454.30" y="329.96" width="2.28" height="4.39" fill="#2f9e44" opacity="0.55" />
<rect x="457.58" y="331.42" width="2.28" height="2.93" fill="#2f9e44" opacity="0.55" />
<rect x="460.85" y="334.22" width="2.28" height="0.13" fill="#2f9e44" opacity="0.55" />
<rect x="464.12" y="334.35" width="2.28" height="0.27" fill="#d64545" opacity="0.55" />
<rect x="467.40" y="334.35" width="2.28" height="0.26" fill="#d64545" opacity="0.55" />
<rect x="470.67" y="334.35" width="2.28" height="2.36" fill="#d64545" opacity="0.55" />
<rect x="473.95" y="334.35" width="2.28" height="4.06" fill="#d64545" opacity="0.55" />
<rect x="477.22" y="334.35" width="2.28" height="3.77" fill="#d64545" opacity="0.55" />
<rect x="480.50" y="334.35" width="2.28" height="5.34" fill="#d64545" opacity="0.55" />
<rect x="483.77" y="334.35" width="2.28" height="7.95" fill="#d64545" opacity="0.55" />
<rect x="487.04" y="334.35" width="2.28" height="11.85" fill="#d64545" opacity="0.55" />
<rect x="490.32" y="334.35" width="2.28" height="12.76" fill="#d64545" opacity="0.55" />
<rect x="493.59" y="334.35" width="2.28" height="12.71" fill="#d64545" opacity="0.55" />
<rect x="496.87" y="334.35" width="2.28" height="14.71" fill="#d64545" opacity="0.55" />
<rect x="500.14" y="334.35" width="2.28" height="13.58" fill="#d64545" opacity="0.55" />
<rect x="503.41" y="334.35" width="2.28" height="6.08" fill="#d64545" opacity="0.55" />
<rect x="506.69" y="333.36" width="2.28" height="0.99" fill="#2f9e44" opacity="0.55" />
<rect x="509.96" y="326.51" width="2.28" height="7.84" fill="#2f9e44" opacity="0.55" />
<rect x="513.24" y="322.39" width="2.28" height="11.96" fill="#2f9e44" opacity="0.55" />
<rect x="516.51" y="321.07" width="2.28" height="13.29" fill="#2f9e44" opacity="0.55" />
<rect x="519.79" y="308.94" width="2.28" height="25.41" fill="#2f9e44" opacity="0.55" />
<rect x="523.06" y="306.40" width="2.28" height="27.96" fill="#2f9e44" opacity="0.55" />
<rect x="526.33" y="308.05" width="2.28" height="26.30" fill="#2f9e44" opacity="0.55" />
<rect x="529.61" y="313.10" width="2.28" height="21.25" fill="#2f9e44" opacity="0.55" />
<rect x="532.88" y="321.43" width="2.28" height="12.92" fill="#2f9e44" opacity="0.55" />
<rect x="536.16" y="327.31" width="2.28" height="7.04" fill="#2f9e44" opacity="0.55" />
<rect x="539.43" y="333.07" width="2.28" height="1.28" fill="#2f9e44" opacity="0.55" />
<rect x="542.70" y="334.26" width="2.28" height="0.09" fill="#2f9e44" opacity="0.55" />
<rect x="545.98" y="334.35" width="2.28" height="1.98" fill="#d64545" opacity="0.55" />
<rect x="549.25" y="334.35" width="2.28" height="3.73" fill="#d64545" opacity="0.55" />
<rect x="552.53" y="334.35" width="2.28" height="8.06" fill="#d64545" opacity="0.55" />
<rect x="555.80" y="334.35" width="2.28" height="12.25" fill="#d64545" opacity="0.55" />
<rect x="559.07" y="334.35" width="2.28" height="14.47" fill="#d64545" opacity="0.55" />
<rect x="562.35" y="334.35" width="2.28" height="14.55" fill="#d64545" opacity="0.55" />
<rect x="565.62" y="334.35" width="2.28" height="13.65" fill="#d64545" opacity="0.55" />
<rect x="568.90" y="334.35" width="2.28" height="10.56" fill="#d64545" opacity="0.55" />
<rect x="572.17" y="334.35" width="2.28" height="11.25" fill="#d64545" opacity="0.55" />
<rect x="575.45" y="334.35" width="2.28" height="10.75" fill="#d64545" opacity="0.55" />
<rect x="578.72" y="334.35" width="2.28" height="7.38" fill="#d64545" opacity="0.55" />
<rect x="581.99" y="334.35" width="2.28" height="4.28" fill="#d64545" opacity="0.55" />
<rect x="585.27" y="334.35" width="2.28" height="3.58" fill="#d64545" opacity="0.55" />
<rect x="588.54" y="334.35" width="2.28" height="1.97" fill="#d64545" opacity="0.55" />
<rect x="591.82" y="334.35" width="2.28" height="0.54" fill="#d64545" opacity="0.55" />
<rect x="595.09" y="331.74" width="2.28" height="2.62" fill="#2f9e44" opacity="0.55" />
<rect x="598.36" y="331.07" width="2.28" height="3.28" fill="#2f9e44" opacity="0.55" />
<rect x="601.64" y="333.46" width="2.28" height="0.89" fill="#2f9e44" opacity="0.55" />
<rect x="604.91" y="334.35" width="2.28" height="0.18" fill="#d64545" opacity="0.55" />
<rect x="608.19" y="334.00" width="2.28" height="0.35" fill="#2f9e44" opacity="0.55" />
<rect x="611.46" y="333.51" width="2.28" height="0.84" fill="#2f9e44" opacity="0.55" />
<rect x="614.73" y="334.35" width="2.28" height="1.71" fill="#d64545" opacity="0.55" />
<rect x="618.01" y="334.35" width="2.28" height="7.36" fill="#d64545" opacity="0.55" />
<rect x="621.28" y="334.35" width="2.28" height="8.01" fill="#d64545" opacity="0.55" />
<rect x="624.56" y="334.35" width="2.28" height="8.73" fill="#d64545" opacity="0.55" />
<rect x="627.83" y="334.35" width="2.28" height="9.82" fill="#d64545" opacity="0.55" />
<rect x="631.11" y="334.35" width="2.28" height="11.41" fill="#d64545" opacity="0.55" />
<rect x="634.38" y="334.35" width="2.28" height="13.89" fill="#d64545" opacity="0.55" />
<rect x="637.65" y="334.35" width="2.28" height="12.75" fill="#d64545" opacity="0.55" />
<rect x="640.93" y="334.35" width="2.28" height="13.06" fill="#d64545" opacity="0.55" />
<rect x="644.20" y="334.35" width="2.28" height="12.00" fill="#d64545" opacity="0.55" />
<rect x="647.48" y="334.35" width="2.28" height="18.56" fill="#d64545" opacity="0.55" />
<rect x="650.75" y="334.35" width="2.28" height="25.12" fill="#d64545" opacity="0.55" />
<rect x="654.02" y="334.35" width="2.28" height="25.73" fill="#d64545" opacity="0.55" />
<rect x="657.30" y="334.35" width="2.28" height="18.20" fill="#d64545" opacity="0.55" />
<rect x="660.57" y="334.35" width="2.28" height="10.84" fill="#d64545" opacity="0.55" />
<rect x="663.85" y="334.35" width="2.28" height="5.98" fill="#d64545" opacity="0.55" />
<rect x="667.12" y="334.35" width="2.28" height="2.36" fill="#d64545" opacity="0.55" />
<rect x="670.40" y="333.46" width="2.28" height="0.89" fill="#2f9e44" opacity="0.55" />
<rect x="673.67" y="324.55" width="2.28" height="9.80" fill="#2f9e44" opacity="0.55" />
<rect x="676.94" y="316.25" width="2.28" height="18.10" fill="#2f9e44" opacity="0.55" />
<rect x="680.22" y="311.30" width="2.28" height="23.05" fill="#2f9e44" opacity="0.55" />
<rect x="683.49" y="308.21" width="2.28" height="26.14" fill="#2f9e44" opacity="0.55" />
<rect x="686.77" y="302.52" width="2.28" height="31.84" fill="#2f9e44" opacity="0.55" />
<rect x="690.04" y="298.79" width="2.28" height="35.56" fill="#2f9e44" opacity="0.55" />
<rect x="693.31" y="297.24" width="2.28" height="37.12" fill="#2f9e44" opacity="0.55" />
<rect x="696.59" y="296.11" width="2.28" height="38.25" fill="#2f9e44" opacity="0.55" />
<rect x="699.86" y="300.42" width="2.28" height="33.93" fill="#2f9e44" opacity="0.55" />
<rect x="703.14" y="305.32" width="2.28" height="29.03" fill="#2f9e44" opacity="0.55" />
<rect x="706.41" y="309.05" width="2.28" height="25.30" fill="#2f9e44" opacity="0.55" />
<rect x="709.68" y="315.57" width="2.28" height="18.78" fill="#2f9e44" opacity="0.55" />
<rect x="712.96" y="318.15" width="2.28" height="16.20" fill="#2f9e44" opacity="0.55" />
<rect x="716.23" y="320.28" width="2.28" height="14.07" fill="#2f9e44" opacity="0.55" />
<rect x="719.51" y="323.90" width="2.28" height="10.45" fill="#2f9e44" opacity="0.55" />
<rect x="722.78" y="327.43" width="2.28" height="6.93" fill="#2f9e44" opacity="0.55" />
<rect x="726.06" y="334.35" width="2.28" height="5.80" fill="#d64545" opacity="0.55" />
<rect x="729.33" y="334.35" width="2.28" height="14.35" fill="#d64545" opacity="0.55" />
<rect x="732.60" y="334.35" width="2.28" height="18.97" fill="#d64545" opacity="0.55" />
<rect x="735.88" y="334.35" width="2.28" height="22.06" fill="#d64545" opacity="0.55" />
<rect x="739.15" y="334.35" width="2.28" height="21.68" fill="#d64545" opacity="0.55" />
<rect x="742.43" y="334.35" width="2.28" height="19.79" fill="#d64545" opacity="0.55" />
<rect x="745.70" y="334.35" width="2.28" height="18.91" fill="#d64545" opacity="0.55" />
<rect x="748.97" y="334.35" width="2.28" height="19.28" fill="#d64545" opacity="0.55" />
<rect x="752.25" y="334.35" width="2.28" height="17.81" fill="#d64545" opacity="0.55" />
<rect x="755.52" y="334.35" width="2.28" height="13.61" fill="#d64545" opacity="0.55" />
<rect x="758.80" y="334.35" width="2.28" height="9.90" fill="#d64545" opacity="0.55" />
<rect x="762.07" y="334.35" width="2.28" height="7.70" fill="#d64545" opacity="0.55" />
<rect x="765.34" y="334.35" width="2.28" height="6.35" fill="#d64545" opacity="0.55" />
<rect x="768.62" y="334.35" width="2.28" height="6.54" fill="#d64545" opacity="0.55" />
<rect x="771.89" y="334.35" width="2.28" height="5.78" fill="#d64545" opacity="0.55" />
<rect x="775.17" y="334.35" width="2.28" height="4.47" fill="#d64545" opacity="0.55" />
<rect x="778.44" y="334.35" width="2.28" height="2.78" fill="#d64545" opacity="0.55" />
<rect x="781.72" y="334.35" width="2.28" height="1.07" fill="#d64545" opacity="0.55" />
<rect x="784.99" y="330.21" width="2.28" height="4.14" fill="#2f9e44" opacity="0.55" />
<rect x="788.26" y="327.01" width="2.28" height="7.34" fill="#2f9e44" opacity="0.55" />
<rect x="791.54" y="325.75" width="2.28" height="8.60" fill="#2f9e44" opacity="0.55" />
<rect x="794.81" y="330.80" width="2.28" height="3.55" fill="#2f9e44" opacity="0.55" />
<rect x="798.09" y="334.35" width="2.28" height="0.19" fill="#d64545" opacity="0.55" />
<rect x="801.36" y="332.43" width="2.28" height="1.92" fill="#2f9e44" opacity="0.55" />
<rect x="804.63" y="330.32" width="2.28" height="4.03" fill="#2f9e44" opacity="0.55" />
<rect x="807.91" y="334.35" width="2.28" height="0.71" fill="#d64545" opacity="0.55" />
<rect x="811.18" y="334.35" width="2.28" height="4.87" fill="#d64545" opacity="0.55" />
<rect x="814.46" y="334.35" width="2.28" height="7.25" fill="#d64545" opacity="0.55" />
<rect x="817.73" y="334.35" width="2.28" height="10.59" fill="#d64545" opacity="0.55" />
<rect x="821.01" y="334.35" width="2.28" height="12.43" fill="#d64545" opacity="0.55" />
<rect x="824.28" y="334.35" width="2.28" height="13.01" fill="#d64545" opacity="0.55" />
<rect x="827.55" y="334.35" width="2.28" height="7.86" fill="#d64545" opacity="0.55" />
<rect x="830.83" y="334.35" width="2.28" height="2.85" fill="#d64545" opacity="0.55" />
<rect x="834.10" y="334.35" width="2.28" height="4.95" fill="#d64545" opacity="0.55" />
<rect x="837.38" y="334.35" width="2.28" height="4.11" fill="#d64545" opacity="0.55" />
<rect x="840.65" y="334.35" width="2.28" height="5.43" fill="#d64545" opacity="0.55" />
<rect x="843.92" y="334.35" width="2.28" height="6.00" fill="#d64545" opacity="0.55" />
<rect x="847.20" y="334.35" width="2.28" height="6.56" fill="#d64545" opacity="0.55" />
<rect x="850.47" y="334.35" width="2.28" height="8.82" fill="#d64545" opacity="0.55" />
<rect x="853.75" y="334.35" width="2.28" height="8.21" fill="#d64545" opacity="0.55" />
<rect x="857.02" y="334.35" width="2.28" height="4.96" fill="#d64545" opacity="0.55" />
<rect x="860.29" y="334.35" width="2.28" height="2.21" fill="#d64545" opacity="0.55" />
<rect x="863.57" y="325.86" width="2.28" height="8.49" fill="#2f9e44" opacity="0.55" />
<rect x="866.84" y="324.44" width="2.28" height="9.91" fill="#2f9e44" opacity="0.55" />
<rect x="870.12" y="320.79" width="2.28" height="13.56" fill="#2f9e44" opacity="0.55" />
<rect x="873.39" y="316.32" width="2.28" height="18.03" fill="#2f9e44" opacity="0.55" />
<rect x="876.67" y="316.38" width="2.28" height="17.97" fill="#2f9e44" opacity="0.55" />
<rect x="879.94" y="312.32" width="2.28" height="22.04" fill="#2f9e44" opacity="0.55" />
<rect x="883.21" y="304.31" width="2.28" height="30.04" fill="#2f9e44" opacity="0.55" />
<rect x="886.49" y="302.95" width="2.28" height="31.40" fill="#2f9e44" opacity="0.55" />
<rect x="889.76" y="303.01" width="2.28" height="31.34" fill="#2f9e44" opacity="0.55" />
<rect x="893.04" y="301.29" width="2.28" height="33.06" fill="#2f9e44" opacity="0.55" />
<rect x="896.31" y="304.98" width="2.28" height="29.37" fill="#2f9e44" opacity="0.55" />
<rect x="899.58" y="312.24" width="2.28" height="22.11" fill="#2f9e44" opacity="0.55" />
<rect x="902.86" y="318.25" width="2.28" height="16.10" fill="#2f9e44" opacity="0.55" />
<polyline fill="none" stroke="#1f77b4" stroke-width="2" points="137.85,291.82 141.13,290.12 144.40,288.85 147.68,287.71 150.95,291.17 154.22,297.77 157.50,304.16 160.77,311.35 164.05,313.90 167.32,316.44 170.59,318.47 173.87,321.68 177.14,323.54 180.42,327.77 183.69,331.93 186.97,334.80 190.24,334.57 193.51,333.57 196.79,332.82 200.06,329.39 203.34,329.70 206.61,330.22 209.88,329.67 213.16,327.35 216.43,322.55 219.71,319.62 222.98,316.53 226.25,314.71 229.53,316.23 232.80,319.71 236.08,321.48 239.35,325.53 242.63,329.90 245.90,333.46 249.17,338.18 252.45,345.49 255.72,349.01 259.00,355.13 262.27,358.59 265.54,361.59 268.82,362.60 272.09,359.72 275.37,363.21 278.64,363.39 281.92,364.71 285.19,363.50 288.46,363.38 291.74,361.93 295.01,357.21 298.29,353.01 301.56,349.48 304.83,346.42 308.11,342.95 311.38,337.46 314.66,333.00 317.93,329.47 321.20,344.99 324.48,360.91 327.75,375.36 331.03,388.44 334.30,396.22 337.58,405.25 340.85,410.93 344.12,412.35 347.40,413.58 350.67,417.51 353.95,419.45 357.22,420.09 360.49,421.21 363.77,422.02 367.04,423.24 370.32,423.43 373.59,421.47 376.86,414.92 380.14,403.91 383.41,395.05 386.69,384.35 389.96,376.91 393.24,369.26 396.51,364.48 399.78,355.69 403.06,346.02 406.33,339.73 409.61,336.84 412.88,336.01 416.15,334.79 419.43,335.65 422.70,335.49 425.98,333.28 429.25,333.21 432.53,329.96 435.80,328.68 439.07,327.16 442.35,325.31 445.62,323.41 448.90,322.96 452.17,323.71 455.44,322.88 458.72,323.60 461.99,326.37 465.27,326.84 468.54,326.89 471.81,329.58 475.09,332.30 478.36,332.96 481.64,335.86 484.91,340.45 488.19,347.31 491.46,351.41 494.73,354.54 498.01,360.23 501.28,362.49 504.56,356.51 507.83,349.19 511.10,340.38 514.38,333.27 517.65,328.62 520.93,310.14 524.20,300.61 527.47,295.69 530.75,295.42 534.02,300.53 537.30,304.65 540.57,310.09 543.85,311.25 547.12,313.82 550.39,316.50 553.67,322.85 556.94,330.10 560.22,335.94 563.49,339.65 566.76,342.16 570.04,341.71 573.31,345.22 576.59,347.41 579.86,345.89 583.14,343.85 586.41,344.04 589.68,342.93 592.96,341.63 596.23,337.82 599.51,336.34 602.78,338.51 606.05,339.63 609.33,339.01 612.60,338.30 615.88,341.28 619.15,348.77 622.42,351.42 625.70,354.33 628.97,357.87 632.25,362.31 635.52,368.26 638.80,370.31 642.07,373.89 645.34,375.83 648.62,387.02 651.89,399.87 655.17,406.91 658.44,403.93 661.71,399.28 664.99,395.92 668.26,392.89 671.54,389.42 674.81,378.06 678.08,365.23 681.36,354.52 684.63,344.89 687.91,331.24 691.18,318.63 694.46,307.79 697.73,297.10 701.00,292.93 704.28,290.58 707.55,287.97 710.83,289.80 714.10,288.33 717.37,286.94 720.65,287.95 723.92,289.74 727.20,303.93 730.47,316.06 733.75,325.42 737.02,334.02 740.29,339.07 743.57,342.13 746.84,345.97 750.12,351.16 753.39,354.15 756.66,353.34 759.94,352.11 763.21,351.84 766.49,352.07 769.76,353.90 773.03,354.59 776.31,354.39 779.58,353.40 782.86,351.95 786.13,345.71 789.41,340.68 792.68,337.26 795.95,341.42 799.23,345.21 802.50,342.62 805.78,339.51 809.05,344.43 812.32,349.80 815.60,354.00 818.87,359.98 822.15,364.93 825.42,368.77 828.69,365.58 831.97,361.28 835.24,364.61 838.52,364.81 841.79,367.48 845.07,369.56 848.34,371.75 851.61,376.22 854.89,377.66 858.16,375.65 861.44,373.45 864.71,360.63 867.98,356.73 871.26,349.69 874.53,340.72 877.81,336.29 881.08,326.71 884.36,311.19 887.63,301.98 890.90,294.21 894.18,284.22 897.45,280.57 900.73,282.30 904.00,284.28" />
<polyline fill="none" stroke="#ff7f0e" stroke-width="2" points="137.85,291.82 141.13,291.48 144.40,290.95 147.68,290.31 150.95,290.48 154.22,291.93 157.50,294.38 160.77,297.77 164.05,301.00 167.32,304.09 170.59,306.97 173.87,309.91 177.14,312.63 180.42,315.66 183.69,318.91 186.97,322.09 190.24,324.59 193.51,326.38 196.79,327.67 200.06,328.02 203.34,328.35 206.61,328.72 209.88,328.91 213.16,328.60 216.43,327.39 219.71,325.84 222.98,323.97 226.25,322.12 229.53,320.94 232.80,320.70 236.08,320.85 239.35,321.79 242.63,323.41 245.90,325.42 249.17,327.97 252.45,331.48 255.72,334.98 259.00,339.01 262.27,342.93 265.54,346.66 268.82,349.85 272.09,351.82 275.37,354.10 278.64,355.96 281.92,357.71 285.19,358.87 288.46,359.77 291.74,360.20 295.01,359.60 298.29,358.28 301.56,356.52 304.83,354.50 308.11,352.19 311.38,349.25 314.66,346.00 317.93,342.69 321.20,343.15 324.48,346.70 327.75,352.44 331.03,359.64 334.30,366.95 337.58,374.61 340.85,381.88 344.12,387.97 347.40,393.09 350.67,397.98 353.95,402.27 357.22,405.83 360.49,408.91 363.77,411.53 367.04,413.87 370.32,415.78 373.59,416.92 376.86,416.52 380.14,414.00 383.41,410.21 386.69,405.04 389.96,399.41 393.24,393.38 396.51,387.60 399.78,381.22 403.06,374.18 406.33,367.29 409.61,361.20 412.88,356.16 416.15,351.89 419.43,348.64 422.70,346.01 425.98,343.46 429.25,341.41 432.53,339.12 435.80,337.03 439.07,335.06 442.35,333.11 445.62,331.17 448.90,329.53 452.17,328.36 455.44,327.27 458.72,326.53 461.99,326.50 465.27,326.57 468.54,326.63 471.81,327.22 475.09,328.24 478.36,329.18 481.64,330.52 484.91,332.50 488.19,335.47 491.46,338.65 494.73,341.83 498.01,345.51 501.28,348.91 504.56,350.43 507.83,350.18 511.10,348.22 514.38,345.23 517.65,341.91 520.93,335.56 524.20,328.57 527.47,321.99 530.75,316.68 534.02,313.45 537.30,311.69 540.57,311.37 543.85,311.34 547.12,311.84 550.39,312.77 553.67,314.79 556.94,317.85 560.22,321.47 563.49,325.10 566.76,328.52 570.04,331.16 573.31,333.97 576.59,336.66 579.86,338.50 583.14,339.57 586.41,340.47 589.68,340.96 592.96,341.09 596.23,340.44 599.51,339.62 602.78,339.40 606.05,339.44 609.33,339.36 612.60,339.15 615.88,339.57 619.15,341.41 622.42,343.41 625.70,345.60 628.97,348.05 632.25,350.90 635.52,354.38 638.80,357.56 642.07,360.83 645.34,363.83 648.62,368.47 651.89,374.75 655.17,381.18 658.44,385.73 661.71,388.44 664.99,389.93 668.26,390.53 671.54,390.30 674.81,387.85 678.08,383.33 681.36,377.57 684.63,371.03 687.91,363.07 691.18,354.18 694.46,344.91 697.73,335.34 701.00,326.86 704.28,319.60 707.55,313.28 710.83,308.58 714.10,304.53 717.37,301.01 720.65,298.40 723.92,296.67 727.20,298.12 730.47,301.71 733.75,306.45 737.02,311.97 740.29,317.39 743.57,322.33 746.84,327.06 750.12,331.88 753.39,336.34 756.66,339.74 759.94,342.21 763.21,344.14 766.49,345.72 769.76,347.36 773.03,348.81 776.31,349.92 779.58,350.62 782.86,350.88 786.13,349.85 789.41,348.02 792.68,345.86 795.95,344.98 799.23,345.02 802.50,344.54 805.78,343.53 809.05,343.71 812.32,344.93 815.60,346.74 818.87,349.39 822.15,352.50 825.42,355.75 828.69,357.72 831.97,358.43 835.24,359.67 838.52,360.70 841.79,362.05 845.07,363.55 848.34,365.19 851.61,367.40 854.89,369.45 858.16,370.69 861.44,371.24 864.71,369.12 867.98,366.64 871.26,363.25 874.53,358.74 877.81,354.25 881.08,348.74 884.36,341.23 887.63,333.38 890.90,325.55 894.18,317.28 897.45,309.94 900.73,304.41 904.00,300.39" />
<text x="754.00" y="290.00" font-size="13" font-family="Arial" fill="#1f77b4" text-anchor="start">MACD</text>
<text x="818.00" y="290.00" font-size="13" font-family="Arial" fill="#ff7f0e" text-anchor="start">Signal</text>
<line x1="56" y1="624" x2="904" y2="624" stroke="#cbd2d9" />
<line x1="56" y1="484" x2="56" y2="624" stroke="#cbd2d9" />
<text x="16.00" y="476.00" font-size="12" font-family="Arial" fill="#52606d" text-anchor="start">KD</text>
<line x1="56" y1="624.00" x2="904" y2="624.00" stroke="#edf2f7" />
<line x1="52" y1="624.00" x2="56" y2="624.00" stroke="#9fb3c8" />
<text x="48.00" y="628.00" font-size="11" font-family="Arial" fill="#52606d" text-anchor="end">-5.00</text>
<line x1="56" y1="577.33" x2="904" y2="577.33" stroke="#edf2f7" />
<line x1="52" y1="577.33" x2="56" y2="577.33" stroke="#9fb3c8" />
<text x="48.00" y="581.33" font-size="11" font-family="Arial" fill="#52606d" text-anchor="end">31.7</text>
<line x1="56" y1="530.67" x2="904" y2="530.67" stroke="#edf2f7" />
<line x1="52" y1="530.67" x2="56" y2="530.67" stroke="#9fb3c8" />
<text x="48.00" y="534.67" font-size="11" font-family="Arial" fill="#52606d" text-anchor="end">68.3</text>
<line x1="56" y1="484.00" x2="904" y2="484.00" stroke="#edf2f7" />
<line x1="52" y1="484.00" x2="56" y2="484.00" stroke="#9fb3c8" />
<text x="48.00" y="488.00" font-size="11" font-family="Arial" fill="#52606d" text-anchor="end">105</text>
<line x1="56.00" y1="624" x2="56.00" y2="628" stroke="#9fb3c8" />
<text x="56.00" y="642.00" font-size="11" font-family="Arial" fill="#52606d" text-anchor="middle">07/08</text>
<line x1="226.25" y1="624" x2="226.25" y2="628" stroke="#9fb3c8" />
<text x="226.25" y="642.00" font-size="11" font-family="Arial" fill="#52606d" text-anchor="middle">09/19</text>
<line x1="396.51" y1="624" x2="396.51" y2="628" stroke="#9fb3c8" />
<text x="396.51" y="642.00" font-size="11" font-family="Arial" fill="#52606d" text-anchor="middle">12/03</text>
<line x1="563.49" y1="624" x2="563.49" y2="628" stroke="#9fb3c8" />
<text x="563.49" y="642.00" font-size="11" font-family="Arial" fill="#52606d" text-anchor="middle">02/18</text>
<line x1="733.75" y1="624" x2="733.75" y2="628" stroke="#9fb3c8" />
<text x="733.75" y="642.00" font-size="11" font-family="Arial" fill="#52606d" text-anchor="middle">05/04</text>
<line x1="904.00" y1="624" x2="904.00" y2="628" stroke="#9fb3c8" />
<text x="904.00" y="642.00" font-size="11" font-family="Arial" fill="#52606d" text-anchor="middle">07/20</text>
<line x1="56" y1="592.18" x2="904" y2="592.18" stroke="#f0b429" stroke-dasharray="5 5" />
<text x="912.00" y="596.18" font-size="10" font-family="Arial" fill="#8d2b0b" text-anchor="start">20.0</text>
<line x1="56" y1="515.82" x2="904" y2="515.82" stroke="#f0b429" stroke-dasharray="5 5" />
<text x="912.00" y="519.82" font-size="10" font-family="Arial" fill="#8d2b0b" text-anchor="start">80.0</text>
<polyline fill="none" stroke="#2ca02c" stroke-width="2" points="82.19,565.66 85.47,565.43 88.74,572.40 92.02,564.60 95.29,557.99 98.56,553.70 101.84,544.71 105.11,561.24 108.39,577.84 111.66,554.96 114.93,550.29 118.21,535.27 121.48,531.08 124.76,524.44 128.03,524.60 131.31,521.34 134.58,520.71 137.85,516.08 141.13,522.67 144.40,530.09 147.68,532.15 150.95,551.77 154.22,574.03 157.50,579.28 160.77,588.37 164.05,584.26 167.32,582.49 170.59,580.79 173.87,584.01 177.14,578.50 180.42,585.34 183.69,583.57 186.97,580.18 190.24,566.33 193.51,553.03 196.79,547.93 200.06,531.88 203.34,534.13 206.61,536.66 209.88,533.91 213.16,531.96 216.43,523.63 219.71,523.38 222.98,522.82 226.25,525.49 229.53,538.70 232.80,556.28 236.08,563.27 239.35,579.17 242.63,588.45 245.90,594.91 249.17,598.42 252.45,602.05 255.72,598.84 259.00,606.13 262.27,595.97 265.54,589.93 268.82,581.57 272.09,564.66 275.37,571.84 278.64,564.99 281.92,567.09 285.19,560.07 288.46,560.58 291.74,561.03 295.01,543.37 298.29,533.43 301.56,528.42 304.83,525.89 308.11,519.92 311.38,515.70 314.66,514.18 317.93,513.79 321.20,542.74 324.48,567.29 327.75,584.12 331.03,595.39 334.30,600.16 337.58,606.19 340.85,604.93 344.12,601.40 347.40,593.91 350.67,598.23 353.95,599.51 357.22,594.12 360.49,597.22 363.77,593.99 367.04,595.92 370.32,598.13 373.59,594.57 376.86,575.41 380.14,548.95 383.41,534.17 386.69,520.70 389.96,516.20 393.24,509.26 396.51,509.87 399.78,510.70 403.06,506.31 406.33,509.45 409.61,523.28 412.88,541.41 416.15,552.23 419.43,571.14 422.70,581.55 425.98,583.40 429.25,589.11 432.53,584.17 435.80,584.20 439.07,582.62 442.35,579.55 445.62,575.98 448.90,561.40 452.17,560.15 455.44,552.23 458.72,564.03 461.99,573.79 465.27,568.49 468.54,561.32 471.81,574.13 475.09,577.95 478.36,572.38 481.64,581.53 484.91,587.56 488.19,597.91 491.46,599.97 494.73,601.79 498.01,604.89 501.28,599.98 504.56,573.31 507.83,551.34 511.10,533.34 514.38,521.80 517.65,516.86 520.93,510.09 524.20,511.99 527.47,516.23 530.75,526.95 534.02,547.23 537.30,563.42 540.57,575.50 543.85,576.70 547.12,580.33 550.39,582.36 553.67,592.24 556.94,598.62 560.22,598.35 563.49,594.07 566.76,590.02 570.04,578.96 573.31,585.42 576.59,587.85 579.86,576.17 583.14,556.62 586.41,554.21 589.68,546.13 592.96,539.19 596.23,528.95 599.51,529.05 602.78,544.30 606.05,550.80 609.33,548.98 612.60,547.04 615.88,561.10 619.15,577.89 622.42,579.52 625.70,583.53 628.97,590.25 632.25,596.54 635.52,600.17 638.80,596.40 642.07,600.20 645.34,599.91 648.62,604.14 651.89,606.83 655.17,603.96 658.44,585.03 661.71,567.85 664.99,558.68 668.26,551.77 671.54,546.13 674.81,534.54 678.08,523.32 681.36,515.92 684.63,509.55 687.91,504.90 691.18,502.75 694.46,499.46 697.73,497.64 701.00,504.25 704.28,514.04 707.55,517.15 710.83,529.07 714.10,530.09 717.37,531.77 720.65,540.91 723.92,549.44 727.20,566.40 730.47,579.27 733.75,587.00 737.02,594.95 740.29,595.37 743.57,593.67 746.84,595.85 750.12,602.99 753.39,594.98 756.66,571.79 759.94,553.98 763.21,547.61 766.49,547.31 769.76,558.37 773.03,561.91 776.31,561.11 779.58,556.65 782.86,552.10 786.13,535.24 789.41,527.58 792.68,524.93 795.95,551.34 799.23,571.44 802.50,562.55 805.78,553.15 809.05,567.91 812.32,580.74 815.60,589.83 818.87,599.19 822.15,599.92 825.42,601.14 828.69,588.52 831.97,576.76 835.24,584.17 838.52,577.76 841.79,585.10 845.07,591.44 848.34,598.38 851.61,603.06 854.89,601.41 858.16,592.33 861.44,582.48 864.71,559.18 867.98,558.09 871.26,548.99 874.53,535.57 877.81,532.61 881.08,519.35 884.36,512.59 887.63,512.27 890.90,512.05 894.18,506.68 897.45,509.62 900.73,518.80 904.00,524.98" />
<polyline fill="none" stroke="#d62728" stroke-width="2" points="82.19,557.89 85.47,560.40 88.74,564.40 92.02,564.47 95.29,562.31 98.56,559.44 101.84,554.53 105.11,556.77 108.39,563.79 111.66,560.85 114.93,557.33 118.21,549.97 121.48,543.68 124.76,537.27 128.03,533.04 131.31,529.14 134.58,526.33 137.85,522.91 141.13,522.83 144.40,525.25 147.68,527.55 150.95,535.62 154.22,548.43 157.50,558.71 160.77,568.60 164.05,573.82 167.32,576.71 170.59,578.07 173.87,580.05 177.14,579.53 180.42,581.47 183.69,582.17 186.97,581.51 190.24,576.45 193.51,568.64 196.79,561.74 200.06,551.78 203.34,545.90 206.61,542.82 209.88,539.85 213.16,537.22 216.43,532.69 219.71,529.59 222.98,527.33 226.25,526.72 229.53,530.71 232.80,539.23 236.08,547.25 239.35,557.89 242.63,568.07 245.90,577.02 249.17,584.15 252.45,590.12 255.72,593.02 259.00,597.39 262.27,596.92 265.54,594.59 268.82,590.25 272.09,581.72 275.37,578.43 278.64,573.95 281.92,571.66 285.19,567.80 288.46,565.39 291.74,563.94 295.01,557.08 298.29,549.20 301.56,542.27 304.83,536.81 308.11,531.18 311.38,526.02 314.66,522.08 317.93,519.31 321.20,527.12 324.48,540.51 327.75,555.05 331.03,568.50 334.30,579.05 337.58,588.10 340.85,593.71 344.12,596.27 347.40,595.48 350.67,596.40 353.95,597.44 357.22,596.33 360.49,596.63 363.77,595.75 367.04,595.80 370.32,596.58 373.59,595.91 376.86,589.08 380.14,575.70 383.41,561.86 386.69,548.14 389.96,537.49 393.24,528.08 396.51,522.01 399.78,518.24 403.06,514.26 406.33,512.66 409.61,516.20 412.88,524.60 416.15,533.81 419.43,546.25 422.70,558.02 425.98,566.48 429.25,574.02 432.53,577.40 435.80,579.67 439.07,580.65 442.35,580.29 445.62,578.85 448.90,573.03 452.17,568.74 455.44,563.24 458.72,563.50 461.99,566.93 465.27,567.45 468.54,565.41 471.81,568.32 475.09,571.53 478.36,571.81 481.64,575.05 484.91,579.22 488.19,585.45 491.46,590.29 494.73,594.12 498.01,597.71 501.28,598.47 504.56,590.08 507.83,577.17 511.10,562.56 514.38,548.97 517.65,538.27 520.93,528.88 524.20,523.25 527.47,520.91 530.75,522.92 534.02,531.02 537.30,541.82 540.57,553.05 543.85,560.93 547.12,567.40 550.39,572.39 553.67,579.00 556.94,585.54 560.22,589.81 563.49,591.23 566.76,590.82 570.04,586.87 573.31,586.39 576.59,586.87 579.86,583.30 583.14,574.41 586.41,567.67 589.68,560.49 592.96,553.39 596.23,545.24 599.51,539.84 602.78,541.33 606.05,544.49 609.33,545.98 612.60,546.33 615.88,551.26 619.15,560.13 622.42,566.59 625.70,572.24 628.97,578.24 632.25,584.34 635.52,589.62 638.80,591.88 642.07,594.65 645.34,596.41 648.62,598.98 651.89,601.60 655.17,602.38 658.44,596.60 661.71,587.02 664.99,577.57 668.26,568.97 671.54,561.36 674.81,552.42 678.08,542.72 681.36,533.79 684.63,525.71 687.91,518.77 691.18,513.43 694.46,508.77 697.73,505.06 701.00,504.79 704.28,507.87 707.55,510.97 710.83,517.00 714.10,521.36 717.37,524.83 720.65,530.19 723.92,536.61 727.20,546.54 730.47,557.45 733.75,567.30 737.02,576.52 740.29,582.80 743.57,586.42 746.84,589.57 750.12,594.04 753.39,594.35 756.66,586.83 759.94,575.88 763.21,566.46 766.49,560.07 769.76,559.50 773.03,560.31 776.31,560.57 779.58,559.27 782.86,556.88 786.13,549.66 789.41,542.30 792.68,536.51 795.95,541.45 799.23,551.45 802.50,555.15 805.78,554.48 809.05,558.96 812.32,566.22 815.60,574.09 818.87,582.45 822.15,588.28 825.42,592.56 828.69,591.21 831.97,586.40 835.24,585.65 838.52,583.02 841.79,583.72 845.07,586.29 848.34,590.32 851.61,594.57 854.89,596.85 858.16,595.34 861.44,591.05 864.71,580.43 867.98,572.98 871.26,564.99 874.53,555.18 877.81,547.66 881.08,538.22 884.36,529.68 887.63,523.88 890.90,519.93 894.18,515.51 897.45,513.55 900.73,515.30 904.00,518.52" />
<text x="824.00" y="502.00" font-size="13" font-family="Arial" fill="#2ca02c" text-anchor="start">K</text>
<text x="860.00" y="502.00" font-size="13" font-family="Arial" fill="#d62728" text-anchor="start">D</text>
</svg>