<svg xmlns="http://www.w3.org/2000/svg" width="960" height="680" viewBox="0 0 960 680"><rect width="100%" height="100%" fill="white" />
<text x="56.00" y="32.00" font-size="20" font-family="Arial" fill="#1f2933" text-anchor="start">MSFT Technical Indicators</text>
<line x1="56" y1="220" x2="904" y2="220" stroke="#cbd2d9" />
<line x1="56" y1="58" x2="56" y2="220" stroke="#cbd2d9" />
<text x="16.00" y="50.00" font-size="12" font-family="Arial" fill="#52606d" text-anchor="start">RSI14</text>
<line x1="56" y1="220.00" x2="904" y2="220.00" stroke="#edf2f7" />
<line x1="52" y1="220.00" x2="56" y2="220.00" stroke="#9fb3c8" />
<text x="48.00" y="224.00" font-size="11" font-family="Arial" fill="#52606d" text-anchor="end">-5.00</text>
<line x1="56" y1="166.00" x2="904" y2="166.00" stroke="#edf2f7" />
<line x1="52" y1="166.00" x2="56" y2="166.00" stroke="#9fb3c8" />
<text x="48.00" y="170.00" font-size="11" font-family="Arial" fill="#52606d" text-anchor="end">31.7</text>
<line x1="56" y1="112.00" x2="904" y2="112.00" stroke="#edf2f7" />
<line x1="52" y1="112.00" x2="56" y2="112.00" stroke="#9fb3c8" />
<text x="48.00" y="116.00" font-size="11" font-family="Arial" fill="#52606d" text-anchor="end">68.3</text>
<line x1="56" y1="58.00" x2="904" y2="58.00" stroke="#edf2f7" />
<line x1="52" y1="58.00" x2="56" y2="58.00" stroke="#9fb3c8" />
<text x="48.00" y="62.00" font-size="11" font-family="Arial" fill="#52606d" text-anchor="end">105</text>
<line x1="56" y1="168.45" x2="904" y2="168.45" stroke="#f0b429" stroke-dasharray="5 5" />
<text x="912.00" y="172.45" font-size="10" font-family="Arial" fill="#8d2b0b" text-anchor="start">30.0</text>
<line x1="56" y1="109.55" x2="904" y2="109.55" stroke="#f0b429" stroke-dasharray="5 5" />
<text x="912.00" y="113.55" font-size="10" font-family="Arial" fill="#8d2b0b" text-anchor="start">70.0</text>
<polyline fill="none" stroke="#1f77b4" stroke-width="2" points="101.84,91.19 105.11,112.89 108.39,103.81 111.66,117.24 114.93,121.55 118.21,127.60 121.48,126.32 124.76,126.75 128.03,118.88 131.31,131.82 134.58,129.72 137.85,133.01 141.13,137.29 144.40,146.44 147.68,150.91 150.95,151.62 154.22,146.96 157.50,150.55 160.77,153.16 164.05,145.47 167.32,141.06 170.59,145.13 173.87,147.26 177.14,146.85 180.42,142.18 183.69,158.67 186.97,153.21 190.24,152.85 193.51,149.37 196.79,148.21 200.06,134.04 203.34,127.06 206.61,136.68 209.88,135.37 213.16,137.75 216.43,125.67 219.71,131.05 222.98,138.47 226.25,137.23 229.53,141.63 232.80,135.38 236.08,131.26 239.35,127.09 242.63,124.95 245.90,131.75 249.17,129.58 252.45,116.91 255.72,124.56 259.00,123.61 262.27,127.75 265.54,143.82 268.82,139.72 272.09,140.35 275.37,140.55 278.64,143.19 281.92,140.00 285.19,135.01 288.46,133.67 291.74,129.30 295.01,129.27 298.29,124.62 301.56,114.61 304.83,104.99 308.11,106.10 311.38,132.86 314.66,142.43 317.93,143.30 321.20,146.39 324.48,153.88 327.75,162.45 331.03,162.67 334.30,149.71 337.58,146.31 340.85,143.22 344.12,151.28 347.40,142.78 350.67,145.57 353.95,157.62 357.22,162.35 360.49,167.27 363.77,170.83 367.04,168.24 370.32,164.08 373.59,153.19 376.86,145.87 380.14,150.39 383.41,146.72 386.69,156.54 389.96,152.98 393.24,150.31 396.51,141.82 399.78,140.79 403.06,152.55 406.33,147.28 409.61,151.30 412.88,154.20 416.15,152.33 419.43,152.56 422.70,143.07 425.98,140.89 429.25,141.99 432.53,139.62 435.80,138.15 439.07,138.56 442.35,139.44 445.62,138.86 448.90,144.68 452.17,157.62 455.44,157.72 458.72,148.05 461.99,140.62 465.27,147.44 468.54,145.65 471.81,148.36 475.09,156.00 478.36,166.28 481.64,168.37 484.91,162.81 488.19,167.21 491.46,174.32 494.73,163.19 498.01,144.78 501.28,140.34 504.56,130.94 507.83,130.05 511.10,163.18 514.38,164.57 517.65,167.50 520.93,172.18 524.20,169.34 527.47,176.47 530.75,169.73 534.02,159.47 537.30,159.62 540.57,163.60 543.85,164.70 547.12,164.94 550.39,167.03 553.67,164.17 556.94,164.29 560.22,164.99 563.49,171.60 566.76,166.25 570.04,153.94 573.31,152.83 576.59,158.67 579.86,152.73 583.14,147.51 586.41,146.28 589.68,141.03 592.96,142.57 596.23,142.10 599.51,145.62 602.78,146.48 606.05,149.47 609.33,155.30 612.60,149.47 615.88,150.01 619.15,157.16 622.42,159.54 625.70,165.19 628.97,163.41 632.25,170.70 635.52,171.78 638.80,174.90 642.07,179.81 645.34,176.12 648.62,159.41 651.89,160.02 655.17,154.40 658.44,154.93 661.71,155.49 664.99,152.33 668.26,153.71 671.54,156.12 674.81,136.76 678.08,127.52 681.36,113.58 684.63,108.40 687.91,107.05 691.18,113.31 694.46,109.66 697.73,104.98 701.00,124.60 704.28,119.15 707.55,119.03 710.83,116.32 714.10,121.67 717.37,137.35 720.65,132.38 723.92,133.11 727.20,135.17 730.47,132.99 733.75,127.48 737.02,133.26 740.29,135.71 743.57,140.48 746.84,142.91 750.12,138.53 753.39,127.36 756.66,126.06 759.94,132.84 763.21,129.62 766.49,130.85 769.76,131.48 773.03,134.66 776.31,138.78 779.58,124.45 782.86,109.41 786.13,104.65 789.41,123.94 792.68,134.83 795.95,134.37 799.23,142.45 802.50,145.68 805.78,150.85 809.05,154.36 812.32,158.23 815.60,157.86 818.87,149.56 822.15,153.33 825.42,161.59 828.69,161.12 831.97,167.04 835.24,160.59 838.52,164.79 841.79,170.28 845.07,153.02 848.34,155.24 851.61,151.73 854.89,143.44 858.16,139.22 861.44,141.71 864.71,140.18 867.98,144.06 871.26,143.23 874.53,142.59 877.81,137.52 881.08,142.61 884.36,133.79 887.63,129.75 890.90,136.22 894.18,129.90 897.45,133.95 900.73,140.19 904.00,146.83" />
<text x="808.00" y="76.00" font-size="13" font-family="Arial" fill="#1f77b4" text-anchor="start">RSI14</text>
<line x1="56" y1="432" x2="904" y2="432" stroke="#cbd2d9" />
<line x1="56" y1="272" x2="56" y2="432" stroke="#cbd2d9" />
<text x="16.00" y="264.00" font-size="12" font-family="Arial" fill="#52606d" text-anchor="start">MACD</text>
<line x1="56" y1="432.00" x2="904" y2="432.00" stroke="#edf2f7" />
<line x1="52" y1="432.00" x2="56" y2="432.00" stroke="#9fb3c8" />
<text x="48.00" y="436.00" font-size="11" font-family="Arial" fill="#52606d" text-anchor="end">-20.6</text>
<line x1="56" y1="378.67" x2="904" y2="378.67" stroke="#edf2f7" />
<line x1="52" y1="378.67" x2="56" y2="378.67" stroke="#9fb3c8" />
<text x="48.00" y="382.67" font-size="11" font-family="Arial" fill="#52606d" text-anchor="end">-9.53</text>
<line x1="56" y1="325.33" x2="904" y2="325.33" stroke="#edf2f7" />
<line x1="52" y1="325.33" x2="56" y2="325.33" stroke="#9fb3c8" />
<text x="48.00" y="329.33" font-size="11" font-family="Arial" fill="#52606d" text-anchor="end">1.52</text>
<line x1="56" y1="272.00" x2="904" y2="272.00" stroke="#edf2f7" />
<line x1="52" y1="272.00" x2="56" y2="272.00" stroke="#9fb3c8" />
<text x="48.00" y="276.00" font-size="11" font-family="Arial" fill="#52606d" text-anchor="end">12.6</text>
<line x1="56" y1="332.67" x2="904" y2="332.67" stroke="#9fb3c8" stroke-dasharray="4 4" />
<rect x="136.71" y="332.67" width="2.28" height="0.00" fill="#2f9e44" opacity="0.55" />
<rect x="139.99" y="332.67" width="2.28" height="2.58" fill="#d64545" opacity="0.55" />
<rect x="143.26" y="332.67" width="2.28" height="6.47" fill="#d64545" opacity="0.55" />
<rect x="146.53" y="332.67" width="2.28" height="9.96" fill="#d64545" opacity="0.55" />
<rect x="149.81" y="332.67" width="2.28" height="11.96" fill="#d64545" opacity="0.55" />
<rect x="153.08" y="332.67" width="2.28" height="11.77" fill="#d64545" opacity="0.55" />
<rect x="156.36" y="332.67" width="2.28" height="12.03" fill="#d64545" opacity="0.55" />
<rect x="159.63" y="332.67" width="2.28" height="12.29" fill="#d64545" opacity="0.55" />
<rect x="162.90" y="332.67" width="2.28" height="10.40" fill="#d64545" opacity="0.55" />
<rect x="166.18" y="332.67" width="2.28" height="7.78" fill="#d64545" opacity="0.55" />
<rect x="169.45" y="332.67" width="2.28" height="6.61" fill="#d64545" opacity="0.55" />
<rect x="172.73" y="332.67" width="2.28" height="5.98" fill="#d64545" opacity="0.55" />
<rect x="176.00" y="332.67" width="2.28" height="5.16" fill="#d64545" opacity="0.55" />
<rect x="179.28" y="332.67" width="2.28" height="3.51" fill="#d64545" opacity="0.55" />
<rect x="182.55" y="332.67" width="2.28" height="6.20" fill="#d64545" opacity="0.55" />
<rect x="185.82" y="332.67" width="2.28" height="6.50" fill="#d64545" opacity="0.55" />
<rect x="189.10" y="332.67" width="2.28" height="6.19" fill="#d64545" opacity="0.55" />
<rect x="192.37" y="332.67" width="2.28" height="4.96" fill="#d64545" opacity="0.55" />
<rect x="195.65" y="332.67" width="2.28" height="3.61" fill="#d64545" opacity="0.55" />
<rect x="198.92" y="332.40" width="2.28" height="0.27" fill="#2f9e44" opacity="0.55" />
<rect x="202.19" y="328.18" width="2.28" height="4.49" fill="#2f9e44" opacity="0.55" />
<rect x="205.47" y="327.59" width="2.28" height="5.08" fill="#2f9e44" opacity="0.55" />
<rect x="208.74" y="327.08" width="2.28" height="5.59" fill="#2f9e44" opacity="0.55" />
<rect x="212.02" y="327.44" width="2.28" height="5.23" fill="#2f9e44" opacity="0.55" />
<rect x="215.29" y="324.95" width="2.28" height="7.72" fill="#2f9e44" opacity="0.55" />
<rect x="218.57" y="324.80" width="2.28" height="7.87" fill="#2f9e44" opacity="0.55" />
<rect x="221.84" y="326.67" width="2.28" height="6.00" fill="#2f9e44" opacity="0.55" />
<rect x="225.11" y="327.84" width="2.28" height="4.82" fill="#2f9e44" opacity="0.55" />
<rect x="228.39" y="329.77" width="2.28" height="2.90" fill="#2f9e44" opacity="0.55" />
<rect x="231.66" y="329.75" width="2.28" height="2.92" fill="#2f9e44" opacity="0.55" />
<rect x="234.94" y="328.93" width="2.28" height="3.74" fill="#2f9e44" opacity="0.55" />
<rect x="238.21" y="327.58" width="2.28" height="5.09" fill="#2f9e44" opacity="0.55" />
<rect x="241.48" y="326.48" width="2.28" height="6.19" fill="#2f9e44" opacity="0.55" />
<rect x="244.76" y="327.35" width="2.28" height="5.32" fill="#2f9e44" opacity="0.55" />
<rect x="248.03" y="327.72" width="2.28" height="4.94" fill="#2f9e44" opacity="0.55" />
<rect x="251.31" y="324.83" width="2.28" height="7.84" fill="#2f9e44" opacity="0.55" />
<rect x="254.58" y="324.90" width="2.28" height="7.77" fill="#2f9e44" opacity="0.55" />
<rect x="257.85" y="325.17" width="2.28" height="7.50" fill="#2f9e44" opacity="0.55" />
<rect x="261.13" y="326.59" width="2.28" height="6.08" fill="#2f9e44" opacity="0.55" />
<rect x="264.40" y="331.41" width="2.28" height="1.26" fill="#2f9e44" opacity="0.55" />
<rect x="267.68" y="332.67" width="2.28" height="1.00" fill="#d64545" opacity="0.55" />
<rect x="270.95" y="332.67" width="2.28" height="2.63" fill="#d64545" opacity="0.55" />
<rect x="274.23" y="332.67" width="2.28" height="3.67" fill="#d64545" opacity="0.55" />
<rect x="277.50" y="332.67" width="2.28" height="4.78" fill="#d64545" opacity="0.55" />
<rect x="280.77" y="332.67" width="2.28" height="4.72" fill="#d64545" opacity="0.55" />
<rect x="284.05" y="332.67" width="2.28" height="3.53" fill="#d64545" opacity="0.55" />
<rect x="287.32" y="332.67" width="2.28" height="2.41" fill="#d64545" opacity="0.55" />
<rect x="290.60" y="332.67" width="2.28" height="0.76" fill="#d64545" opacity="0.55" />
<rect x="293.87" y="332.42" width="2.28" height="0.25" fill="#2f9e44" opacity="0.55" />
<rect x="297.14" y="330.93" width="2.28" height="1.74" fill="#2f9e44" opacity="0.55" />
<rect x="300.42" y="327.74" width="2.28" height="4.93" fill="#2f9e44" opacity="0.55" />
<rect x="303.69" y="322.85" width="2.28" height="9.82" fill="#2f9e44" opacity="0.55" />
<rect x="306.97" y="320.56" width="2.28" height="12.11" fill="#2f9e44" opacity="0.55" />
<rect x="310.24" y="324.73" width="2.28" height="7.94" fill="#2f9e44" opacity="0.55" />
<rect x="313.51" y="330.33" width="2.28" height="2.33" fill="#2f9e44" opacity="0.55" />
<rect x="316.79" y="332.67" width="2.28" height="1.70" fill="#d64545" opacity="0.55" />
<rect x="320.06" y="332.67" width="2.28" height="5.11" fill="#d64545" opacity="0.55" />
<rect x="323.34" y="332.67" width="2.28" height="9.32" fill="#d64545" opacity="0.55" />
<rect x="326.61" y="332.67" width="2.28" height="14.66" fill="#d64545" opacity="0.55" />
<rect x="329.89" y="332.67" width="2.28" height="17.41" fill="#d64545" opacity="0.55" />
<rect x="333.16" y="332.67" width="2.28" height="15.46" fill="#d64545" opacity="0.55" />
<rect x="336.43" y="332.67" width="2.28" height="12.61" fill="#d64545" opacity="0.55" />
<rect x="339.71" y="332.67" width="2.28" height="9.40" fill="#d64545" opacity="0.55" />
<rect x="342.98" y="332.67" width="2.28" height="9.25" fill="#d64545" opacity="0.55" />
<rect x="346.26" y="332.67" width="2.28" height="6.50" fill="#d64545" opacity="0.55" />
<rect x="349.53" y="332.67" width="2.28" height="5.18" fill="#d64545" opacity="0.55" />
<rect x="352.80" y="332.67" width="2.28" height="8.19" fill="#d64545" opacity="0.55" />
<rect x="356.08" y="332.67" width="2.28" height="11.58" fill="#d64545" opacity="0.55" />
<rect x="359.35" y="332.67" width="2.28" height="15.35" fill="#d64545" opacity="0.55" />
<rect x="362.63" y="332.67" width="2.28" height="18.67" fill="#d64545" opacity="0.55" />
<rect x="365.90" y="332.67" width="2.28" height="18.99" fill="#d64545" opacity="0.55" />
<rect x="369.18" y="332.67" width="2.28" height="17.02" fill="#d64545" opacity="0.55" />
<rect x="372.45" y="332.67" width="2.28" height="12.00" fill="#d64545" opacity="0.55" />
<rect x="375.72" y="332.67" width="2.28" height="5.90" fill="#d64545" opacity="0.55" />
<rect x="379.00" y="332.67" width="2.28" height="3.05" fill="#d64545" opacity="0.55" />
<rect x="382.27" y="332.43" width="2.28" height="0.24" fill="#2f9e44" opacity="0.55" />
<rect x="385.55" y="332.67" width="2.28" height="1.14" fill="#d64545" opacity="0.55" />
<rect x="388.82" y="332.67" width="2.28" height="0.64" fill="#d64545" opacity="0.55" />
<rect x="392.09" y="331.91" width="2.28" height="0.76" fill="#2f9e44" opacity="0.55" />
<rect x="395.37" y="328.32" width="2.28" height="4.35" fill="#2f9e44" opacity="0.55" />
<rect x="398.64" y="325.66" width="2.28" height="7.01" fill="#2f9e44" opacity="0.55" />
<rect x="401.92" y="328.17" width="2.28" height="4.50" fill="#2f9e44" opacity="0.55" />
<rect x="405.19" y="328.17" width="2.28" height="4.50" fill="#2f9e44" opacity="0.55" />
<rect x="408.46" y="329.62" width="2.28" height="3.05" fill="#2f9e44" opacity="0.55" />
<rect x="411.74" y="331.54" width="2.28" height="1.13" fill="#2f9e44" opacity="0.55" />
<rect x="415.01" y="332.03" width="2.28" height="0.64" fill="#2f9e44" opacity="0.55" />
<rect x="418.29" y="332.17" width="2.28" height="0.50" fill="#2f9e44" opacity="0.55" />
<rect x="421.56" y="329.59" width="2.28" height="3.08" fill="#2f9e44" opacity="0.55" />
<rect x="424.84" y="327.26" width="2.28" height="5.41" fill="#2f9e44" opacity="0.55" />
<rect x="428.11" y="326.13" width="2.28" height="6.54" fill="#2f9e44" opacity="0.55" />
<rect x="431.38" y="324.92" width="2.28" height="7.75" fill="#2f9e44" opacity="0.55" />
<rect x="434.66" y="323.98" width="2.28" height="8.69" fill="#2f9e44" opacity="0.55" />
<rect x="437.93" y="323.72" width="2.28" height="8.94" fill="#2f9e44" opacity="0.55" />
<rect x="441.21" y="324.03" width="2.28" height="8.64" fill="#2f9e44" opacity="0.55" />
<rect x="444.48" y="324.38" width="2.28" height="8.28" fill="#2f9e44" opacity="0.55" />
<rect x="447.75" y="326.07" width="2.28" height="6.60" fill="#2f9e44" opacity="0.55" />
<rect x="451.03" y="330.61" width="2.28" height="2.06" fill="#2f9e44" opacity="0.55" />
<rect x="454.30" y="332.67" width="2.28" height="0.79" fill="#d64545" opacity="0.55" />
<rect x="457.58" y="332.67" width="2.28" height="0.66" fill="#d64545" opacity="0.55" />
<rect x="460.85" y="331.56" width="2.28" height="1.11" fill="#2f9e44" opacity="0.55" />
<rect x="464.12" y="332.01" width="2.28" height="0.66" fill="#2f9e44" opacity="0.55" />
<rect x="467.40" y="331.84" width="2.28" height="0.83" fill="#2f9e44" opacity="0.55" />
<rect x="470.67" y="332.29" width="2.28" height="0.38" fill="#2f9e44" opacity="0.55" />
<rect x="473.95" y="332.67" width="2.28" height="1.79" fill="#d64545" opacity="0.55" />
<rect x="477.22" y="332.67" width="2.28" height="6.38" fill="#d64545" opacity="0.55" />
<rect x="480.50" y="332.67" width="2.28" height="9.61" fill="#d64545" opacity="0.55" />
<rect x="483.77" y="332.67" width="2.28" height="9.98" fill="#d64545" opacity="0.55" />
<rect x="487.04" y="332.67" width="2.28" height="11.13" fill="#d64545" opacity="0.55" />
<rect x="490.32" y="332.67" width="2.28" height="14.24" fill="#d64545" opacity="0.55" />
<rect x="493.59" y="332.67" width="2.28" height="13.03" fill="#d64545" opacity="0.55" />
<rect x="496.87" y="332.67" width="2.28" height="6.78" fill="#d64545" opacity="0.55" />
<rect x="500.14" y="332.67" width="2.28" height="0.87" fill="#d64545" opacity="0.55" />
<rect x="503.41" y="326.34" width="2.28" height="6.33" fill="#2f9e44" opacity="0.55" />
<rect x="506.69" y="321.55" width="2.28" height="11.12" fill="#2f9e44" opacity="0.55" />
<rect x="509.96" y="332.67" width="2.28" height="0.96" fill="#d64545" opacity="0.55" />
<rect x="513.24" y="332.67" width="2.28" height="9.21" fill="#d64545" opacity="0.55" />
<rect x="516.51" y="332.67" width="2.28" height="15.73" fill="#d64545" opacity="0.55" />
<rect x="519.79" y="332.67" width="2.28" height="22.41" fill="#d64545" opacity="0.55" />
<rect x="523.06" y="332.67" width="2.28" height="24.13" fill="#d64545" opacity="0.55" />
<rect x="526.33" y="332.67" width="2.28" height="29.82" fill="#d64545" opacity="0.55" />
<rect x="529.61" y="332.67" width="2.28" height="29.04" fill="#d64545" opacity="0.55" />
<rect x="532.88" y="332.67" width="2.28" height="22.64" fill="#d64545" opacity="0.55" />
<rect x="536.16" y="332.67" width="2.28" height="16.94" fill="#d64545" opacity="0.55" />
<rect x="539.43" y="332.67" width="2.28" height="14.56" fill="#d64545" opacity="0.55" />
<rect x="542.70" y="332.67" width="2.28" height="12.40" fill="#d64545" opacity="0.55" />
<rect x="545.98" y="332.67" width="2.28" height="9.85" fill="#d64545" opacity="0.55" />
<rect x="549.25" y="332.67" width="2.28" height="8.36" fill="#d64545" opacity="0.55" />
<rect x="552.53" y="332.67" width="2.28" height="5.41" fill="#d64545" opacity="0.55" />
<rect x="555.80" y="332.67" width="2.28" height="2.57" fill="#d64545" opacity="0.55" />
<rect x="559.07" y="332.67" width="2.28" height="0.27" fill="#d64545" opacity="0.55" />
<rect x="562.35" y="332.67" width="2.28" height="1.97" fill="#d64545" opacity="0.55" />
<rect x="565.62" y="332.67" width="2.28" height="0.76" fill="#d64545" opacity="0.55" />
<rect x="568.90" y="328.29" width="2.28" height="4.38" fill="#2f9e44" opacity="0.55" />
<rect x="572.17" y="324.19" width="2.28" height="8.48" fill="#2f9e44" opacity="0.55" />
<rect x="575.45" y="324.08" width="2.28" height="8.59" fill="#2f9e44" opacity="0.55" />
<rect x="578.72" y="321.94" width="2.28" height="10.72" fill="#2f9e44" opacity="0.55" />
<rect x="581.99" y="318.81" width="2.28" height="13.86" fill="#2f9e44" opacity="0.55" />
<rect x="585.27" y="316.52" width="2.28" height="16.15" fill="#2f9e44" opacity="0.55" />
<rect x="588.54" y="313.60" width="2.28" height="19.07" fill="#2f9e44" opacity="0.55" />
<rect x="591.82" y="312.72" width="2.28" height="19.95" fill="#2f9e44" opacity="0.55" />
<rect x="595.09" y="312.52" width="2.28" height="20.15" fill="#2f9e44" opacity="0.55" />
<rect x="598.36" y="314.08" width="2.28" height="18.59" fill="#2f9e44" opacity="0.55" />
<rect x="601.64" y="315.84" width="2.28" height="16.83" fill="#2f9e44" opacity="0.55" />
<rect x="604.91" y="318.34" width="2.28" height="14.33" fill="#2f9e44" opacity="0.55" />
<rect x="608.19" y="322.21" width="2.28" height="10.46" fill="#2f9e44" opacity="0.55" />
<rect x="611.46" y="323.46" width="2.28" height="9.20" fill="#2f9e44" opacity="0.55" />
<rect x="614.73" y="324.56" width="2.28" height="8.11" fill="#2f9e44" opacity="0.55" />
<rect x="618.01" y="327.69" width="2.28" height="4.98" fill="#2f9e44" opacity="0.55" />
<rect x="621.28" y="330.45" width="2.28" height="2.21" fill="#2f9e44" opacity="0.55" />
<rect x="624.56" y="332.67" width="2.28" height="1.52" fill="#d64545" opacity="0.55" />
<rect x="627.83" y="332.67" width="2.28" height="3.13" fill="#d64545" opacity="0.55" />
<rect x="631.11" y="332.67" width="2.28" height="6.81" fill="#d64545" opacity="0.55" />
<rect x="634.38" y="332.67" width="2.28" height="8.95" fill="#d64545" opacity="0.55" />
<rect x="637.65" y="332.67" width="2.28" height="11.02" fill="#d64545" opacity="0.55" />
<rect x="640.93" y="332.67" width="2.28" height="14.20" fill="#d64545" opacity="0.55" />
<rect x="644.20" y="332.67" width="2.28" height="14.36" fill="#d64545" opacity="0.55" />
<rect x="647.48" y="332.67" width="2.28" height="9.82" fill="#d64545" opacity="0.55" />
<rect x="650.75" y="332.67" width="2.28" height="6.24" fill="#d64545" opacity="0.55" />
<rect x="654.02" y="332.67" width="2.28" height="1.93" fill="#d64545" opacity="0.55" />
<rect x="657.30" y="331.49" width="2.28" height="1.18" fill="#2f9e44" opacity="0.55" />
<rect x="660.57" y="329.30" width="2.28" height="3.36" fill="#2f9e44" opacity="0.55" />
<rect x="663.85" y="327.01" width="2.28" height="5.66" fill="#2f9e44" opacity="0.55" />
<rect x="667.12" y="325.80" width="2.28" height="6.87" fill="#2f9e44" opacity="0.55" />
<rect x="670.40" y="325.62" width="2.28" height="7.04" fill="#2f9e44" opacity="0.55" />
<rect x="673.67" y="321.31" width="2.28" height="11.36" fill="#2f9e44" opacity="0.55" />
<rect x="676.94" y="316.11" width="2.28" height="16.56" fill="#2f9e44" opacity="0.55" />
<rect x="680.22" y="307.79" width="2.28" height="24.88" fill="#2f9e44" opacity="0.55" />
<rect x="683.49" y="300.79" width="2.28" height="31.88" fill="#2f9e44" opacity="0.55" />
<rect x="686.77" y="297.06" width="2.28" height="35.61" fill="#2f9e44" opacity="0.55" />
<rect x="690.04" y="297.89" width="2.28" height="34.78" fill="#2f9e44" opacity="0.55" />
<rect x="693.31" y="298.28" width="2.28" height="34.39" fill="#2f9e44" opacity="0.55" />
<rect x="696.59" y="297.64" width="2.28" height="35.03" fill="#2f9e44" opacity="0.55" />
<rect x="699.86" y="304.43" width="2.28" height="28.24" fill="#2f9e44" opacity="0.55" />
<rect x="703.14" y="307.59" width="2.28" height="25.08" fill="#2f9e44" opacity="0.55" />
<rect x="706.41" y="311.03" width="2.28" height="21.64" fill="#2f9e44" opacity="0.55" />
<rect x="709.68" y="313.21" width="2.28" height="19.46" fill="#2f9e44" opacity="0.55" />
<rect x="712.96" y="317.37" width="2.28" height="15.30" fill="#2f9e44" opacity="0.55" />
<rect x="716.23" y="326.23" width="2.28" height="6.44" fill="#2f9e44" opacity="0.55" />
<rect x="719.51" y="330.43" width="2.28" height="2.24" fill="#2f9e44" opacity="0.55" />
<rect x="722.78" y="332.67" width="2.28" height="1.11" fill="#d64545" opacity="0.55" />
<rect x="726.06" y="332.67" width="2.28" height="4.19" fill="#d64545" opacity="0.55" />
<rect x="729.33" y="332.67" width="2.28" height="5.45" fill="#d64545" opacity="0.55" />
<rect x="732.60" y="332.67" width="2.28" height="4.19" fill="#d64545" opacity="0.55" />
<rect x="735.88" y="332.67" width="2.28" height="5.23" fill="#d64545" opacity="0.55" />
<rect x="739.15" y="332.67" width="2.28" height="6.67" fill="#d64545" opacity="0.55" />
<rect x="742.43" y="332.67" width="2.28" height="9.02" fill="#d64545" opacity="0.55" />
<rect x="745.70" y="332.67" width="2.28" height="11.08" fill="#d64545" opacity="0.55" />
<rect x="748.97" y="332.67" width="2.28" height="10.73" fill="#d64545" opacity="0.55" />
<rect x="752.25" y="332.67" width="2.28" height="6.34" fill="#d64545" opacity="0.55" />
<rect x="755.52" y="332.67" width="2.28" height="2.96" fill="#d64545" opacity="0.55" />
<rect x="758.80" y="332.67" width="2.28" height="2.77" fill="#d64545" opacity="0.55" />
<rect x="762.07" y="332.67" width="2.28" height="1.58" fill="#d64545" opacity="0.55" />
<rect x="765.34" y="332.67" width="2.28" height="1.26" fill="#d64545" opacity="0.55" />
<rect x="768.62" y="332.67" width="2.28" height="1.35" fill="#d64545" opacity="0.55" />
<rect x="771.89" y="332.67" width="2.28" height="2.30" fill="#d64545" opacity="0.55" />
<rect x="775.17" y="332.67" width="2.28" height="3.98" fill="#d64545" opacity="0.55" />
<rect x="778.44" y="332.67" width="2.28" height="0.59" fill="#d64545" opacity="0.55" />
<rect x="781.72" y="324.11" width="2.28" height="8.56" fill="#2f9e44" opacity="0.55" />
<rect x="784.99" y="315.85" width="2.28" height="16.82" fill="#2f9e44" opacity="0.55" />
<rect x="788.26" y="317.69" width="2.28" height="14.98" fill="#2f9e44" opacity="0.55" />
<rect x="791.54" y="324.19" width="2.28" height="8.47" fill="#2f9e44" opacity="0.55" />
<rect x="794.81" y="328.78" width="2.28" height="3.89" fill="#2f9e44" opacity="0.55" />
<rect x="798.09" y="332.67" width="2.28" height="2.98" fill="#d64545" opacity="0.55" />
<rect x="801.36" y="332.67" width="2.28" height="8.92" fill="#d64545" opacity="0.55" />
<rect x="804.63" y="332.67" width="2.28" height="15.01" fill="#d64545" opacity="0.55" />
<rect x="807.91" y="332.67" width="2.28" height="20.13" fill="#d64545" opacity="0.55" />
<rect x="811.18" y="332.67" width="2.28" height="24.63" fill="#d64545" opacity="0.55" />
<rect x="814.46" y="332.67" width="2.28" height="26.15" fill="#d64545" opacity="0.55" />
<rect x="817.73" y="332.67" width="2.28" height="23.03" fill="#d64545" opacity="0.55" />
<rect x="821.01" y="332.67" width="2.28" height="21.70" fill="#d64545" opacity="0.55" />
<rect x="824.28" y="332.67" width="2.28" height="24.29" fill="#d64545" opacity="0.55" />
<rect x="827.55" y="332.67" width="2.28" height="24.40" fill="#d64545" opacity="0.55" />
<rect x="830.83" y="332.67" width="2.28" height="26.75" fill="#d64545" opacity="0.55" />
<rect x="834.10" y="332.67" width="2.28" height="24.58" fill="#d64545" opacity="0.55" />
<rect x="837.38" y="332.67" width="2.28" height="24.28" fill="#d64545" opacity="0.55" />
<rect x="840.65" y="332.67" width="2.28" height="26.39" fill="#d64545" opacity="0.55" />
<rect x="843.92" y="332.67" width="2.28" height="19.75" fill="#d64545" opacity="0.55" />
<rect x="847.20" y="332.67" width="2.28" height="15.48" fill="#d64545" opacity="0.55" />
<rect x="850.47" y="332.67" width="2.28" height="10.16" fill="#d64545" opacity="0.55" />
<rect x="853.75" y="332.67" width="2.28" height="2.34" fill="#d64545" opacity="0.55" />
<rect x="857.02" y="327.59" width="2.28" height="5.08" fill="#2f9e44" opacity="0.55" />
<rect x="860.29" y="323.88" width="2.28" height="8.79" fill="#2f9e44" opacity="0.55" />
<rect x="863.57" y="320.91" width="2.28" height="11.76" fill="#2f9e44" opacity="0.55" />
<rect x="866.84" y="320.93" width="2.28" height="11.74" fill="#2f9e44" opacity="0.55" />
<rect x="870.12" y="320.84" width="2.28" height="11.83" fill="#2f9e44" opacity="0.55" />
<rect x="873.39" y="320.80" width="2.28" height="11.87" fill="#2f9e44" opacity="0.55" />
<rect x="876.67" y="319.23" width="2.28" height="13.44" fill="#2f9e44" opacity="0.55" />
<rect x="879.94" y="320.50" width="2.28" height="12.17" fill="#2f9e44" opacity="0.55" />
<rect x="883.21" y="318.35" width="2.28" height="14.32" fill="#2f9e44" opacity="0.55" />
<rect x="886.49" y="315.81" width="2.28" height="16.86" fill="#2f9e44" opacity="0.55" />
<rect x="889.76" y="317.12" width="2.28" height="15.55" fill="#2f9e44" opacity="0.55" />
<rect x="893.04" y="315.96" width="2.28" height="16.71" fill="#2f9e44" opacity="0.55" />
<rect x="896.31" y="317.37" width="2.28" height="15.30" fill="#2f9e44" opacity="0.55" />
<rect x="899.58" y="321.22" width="2.28" height="11.45" fill="#2f9e44" opacity="0.55" />
<rect x="902.86" y="326.84" width="2.28" height="5.82" fill="#2f9e44" opacity="0.55" />
<polyline fill="none" stroke="#1f77b4" stroke-width="2" points="137.85,313.29 141.13,316.51 144.40,322.02 147.68,328.00 150.95,332.99 154.22,335.75 157.50,339.01 160.77,342.35 164.05,343.05 167.32,342.38 170.59,342.86 173.87,343.73 177.14,344.20 180.42,343.43 183.69,347.66 186.97,349.59 190.24,350.82 193.51,350.83 196.79,350.39 200.06,346.44 203.34,341.10 206.61,339.23 209.88,337.33 213.16,336.38 216.43,331.97 219.71,329.85 222.98,330.22 226.25,330.19 229.53,331.38 232.80,330.64 236.08,328.88 239.35,326.26 242.63,323.61 245.90,323.15 249.17,322.29 252.45,317.44 255.72,315.57 259.00,313.96 262.27,313.86 265.54,318.36 268.82,320.88 272.09,323.16 275.37,325.12 278.64,327.43 281.92,328.55 285.19,328.24 288.46,327.72 291.74,326.27 295.01,325.19 298.29,323.27 301.56,318.85 304.83,311.50 308.11,306.19 311.38,308.36 314.66,313.39 317.93,317.84 321.20,322.54 324.48,329.07 327.75,338.08 331.03,345.18 334.30,347.09 337.58,347.40 340.85,346.53 344.12,348.70 347.40,347.58 350.67,347.56 353.95,352.61 357.22,358.90 360.49,366.50 363.77,374.50 367.04,379.56 370.32,381.85 373.59,379.82 376.86,375.20 380.14,373.11 383.41,369.77 386.69,371.42 389.96,371.09 393.24,369.50 396.51,364.83 399.78,360.41 403.06,361.80 406.33,360.67 409.61,361.36 412.88,362.99 416.15,363.33 419.43,363.34 422.70,359.99 425.98,356.31 429.25,353.54 432.53,350.40 435.80,347.28 439.07,344.79 442.35,342.94 445.62,341.22 448.90,341.26 452.17,345.28 455.44,348.33 458.72,348.37 461.99,346.32 465.27,346.61 468.54,346.23 471.81,346.58 475.09,349.20 478.36,355.38 481.64,361.01 484.91,363.88 488.19,367.81 491.46,374.48 494.73,376.53 498.01,371.97 501.28,366.29 504.56,357.50 507.83,349.93 511.10,362.25 514.38,372.80 517.65,383.26 520.93,395.53 524.20,403.29 527.47,416.43 530.75,422.91 534.02,422.18 537.30,420.71 540.57,421.97 543.85,422.91 547.12,422.82 550.39,423.43 553.67,421.82 556.94,419.63 560.22,417.40 563.49,419.59 566.76,418.57 570.04,412.34 573.31,406.12 576.59,403.86 579.86,399.04 583.14,392.45 586.41,386.11 589.68,378.43 592.96,372.56 596.23,367.33 599.51,364.23 602.78,361.79 606.05,360.70 609.33,361.96 612.60,360.91 615.88,359.98 619.15,361.87 622.42,364.08 625.70,368.20 628.97,370.59 632.25,375.97 635.52,380.34 638.80,385.17 642.07,391.89 645.34,395.64 648.62,393.56 651.89,391.54 655.17,387.71 658.44,384.31 661.71,381.28 664.99,377.58 668.26,374.64 671.54,372.71 674.81,365.55 678.08,356.22 681.36,341.68 684.63,326.71 687.91,314.08 691.18,306.21 694.46,298.00 697.73,288.60 701.00,288.34 704.28,285.23 707.55,283.26 710.83,280.57 714.10,280.90 717.37,288.16 720.65,291.79 723.92,295.42 727.20,299.55 730.47,302.17 733.75,301.95 737.02,304.30 740.29,307.41 743.57,312.02 746.84,316.84 750.12,319.18 753.39,316.37 756.66,313.73 759.94,314.23 763.21,313.44 766.49,313.44 769.76,313.86 773.03,315.38 776.31,318.07 779.58,314.82 782.86,303.53 786.13,291.06 789.41,289.16 792.68,293.55 795.95,297.16 799.23,304.77 802.50,312.95 805.78,322.79 809.05,332.94 812.32,343.59 815.60,351.66 818.87,354.29 822.15,358.39 825.42,367.05 828.69,373.26 831.97,382.30 835.24,386.28 838.52,392.05 841.79,400.75 845.07,399.04 848.34,398.64 851.61,395.86 854.89,388.63 858.16,379.94 861.44,374.03 864.71,368.12 867.98,365.21 871.26,362.16 874.53,359.15 877.81,354.23 881.08,352.45 884.36,346.72 887.63,339.96 890.90,337.39 894.18,332.06 897.45,329.63 900.73,330.62 904.00,334.79" />
<polyline fill="none" stroke="#ff7f0e" stroke-width="2" points="137.85,313.29 141.13,313.94 144.40,315.55 147.68,318.04 150.95,321.03 154.22,323.97 157.50,326.98 160.77,330.06 164.05,332.65 167.32,334.60 170.59,336.25 173.87,337.75 177.14,339.04 180.42,339.91 183.69,341.46 186.97,343.09 190.24,344.64 193.51,345.87 196.79,346.78 200.06,346.71 203.34,345.59 206.61,344.32 209.88,342.92 213.16,341.61 216.43,339.68 219.71,337.71 222.98,336.22 226.25,335.01 229.53,334.28 232.80,333.55 236.08,332.62 239.35,331.35 242.63,329.80 245.90,328.47 249.17,327.23 252.45,325.27 255.72,323.33 259.00,321.46 262.27,319.94 265.54,319.62 268.82,319.87 272.09,320.53 275.37,321.45 278.64,322.65 281.92,323.83 285.19,324.71 288.46,325.31 291.74,325.50 295.01,325.44 298.29,325.01 301.56,323.77 304.83,321.32 308.11,318.29 311.38,316.31 314.66,315.72 317.93,316.15 321.20,317.42 324.48,319.75 327.75,323.42 331.03,327.77 334.30,331.64 337.58,334.79 340.85,337.14 344.12,339.45 347.40,341.07 350.67,342.37 353.95,344.42 357.22,347.31 360.49,351.15 363.77,355.82 367.04,360.57 370.32,364.83 373.59,367.82 376.86,369.30 380.14,370.06 383.41,370.00 386.69,370.29 389.96,370.45 393.24,370.26 396.51,369.17 399.78,367.42 403.06,366.30 406.33,365.17 409.61,364.41 412.88,364.12 416.15,363.96 419.43,363.84 422.70,363.07 425.98,361.72 429.25,360.08 432.53,358.15 435.80,355.97 439.07,353.74 442.35,351.58 445.62,349.51 448.90,347.86 452.17,347.34 455.44,347.54 458.72,347.71 461.99,347.43 465.27,347.26 468.54,347.06 471.81,346.96 475.09,347.41 478.36,349.00 481.64,351.41 484.91,353.90 488.19,356.68 491.46,360.24 494.73,363.50 498.01,365.19 501.28,365.41 504.56,363.83 507.83,361.05 511.10,361.29 514.38,363.59 517.65,367.53 520.93,373.13 524.20,379.16 527.47,386.61 530.75,393.87 534.02,399.53 537.30,403.77 540.57,407.41 543.85,410.51 547.12,412.97 550.39,415.06 553.67,416.42 556.94,417.06 560.22,417.13 563.49,417.62 566.76,417.81 570.04,416.72 573.31,414.60 576.59,412.45 579.86,409.77 583.14,406.30 586.41,402.27 589.68,397.50 592.96,392.51 596.23,387.47 599.51,382.83 602.78,378.62 606.05,375.04 609.33,372.42 612.60,370.12 615.88,368.09 619.15,366.85 622.42,366.29 625.70,366.67 628.97,367.46 632.25,369.16 635.52,371.40 638.80,374.15 642.07,377.70 645.34,381.29 648.62,383.74 651.89,385.30 655.17,385.78 658.44,385.49 661.71,384.65 664.99,383.23 668.26,381.52 671.54,379.75 674.81,376.91 678.08,372.77 681.36,366.55 684.63,358.59 687.91,349.68 691.18,340.99 694.46,332.39 697.73,323.63 701.00,316.57 704.28,310.31 707.55,304.90 710.83,300.03 714.10,296.20 717.37,294.60 720.65,294.03 723.92,294.31 727.20,295.36 730.47,296.72 733.75,297.77 737.02,299.07 740.29,300.74 743.57,303.00 746.84,305.77 750.12,308.45 753.39,310.03 756.66,310.77 759.94,311.47 763.21,311.86 766.49,312.18 769.76,312.51 773.03,313.09 776.31,314.08 779.58,314.23 782.86,312.09 786.13,307.88 789.41,304.14 792.68,302.02 795.95,301.05 799.23,301.79 802.50,304.02 805.78,307.78 809.05,312.81 812.32,318.97 815.60,325.50 818.87,331.26 822.15,336.69 825.42,342.76 828.69,348.86 831.97,355.55 835.24,361.69 838.52,367.76 841.79,374.36 845.07,379.30 848.34,383.17 851.61,385.71 854.89,386.29 858.16,385.02 861.44,382.82 864.71,379.88 867.98,376.95 871.26,373.99 874.53,371.02 877.81,367.66 881.08,364.62 884.36,361.04 887.63,356.83 890.90,352.94 894.18,348.76 897.45,344.94 900.73,342.07 904.00,340.62" />
<text x="754.00" y="290.00" font-size="13" font-family="Arial" fill="#1f77b4" text-anchor="start">MACD</text>
<text x="818.00" y="290.00" font-size="13" font-family="Arial" fill="#ff7f0e" text-anchor="start">Signal</text>
<line x1="56" y1="624" x2="904" y2="624" stroke="#cbd2d9" />
<line x1="56" y1="484" x2="56" y2="624" stroke="#cbd2d9" />
<text x="16.00" y="476.00" font-size="12" font-family="Arial" fill="#52606d" text-anchor="start">KD</text>
<line x1="56" y1="624.00" x2="904" y2="624.00" stroke="#edf2f7" />
<line x1="52" y1="624.00" x2="56" y2="624.00" stroke="#9fb3c8" />
<text x="48.00" y="628.00" font-size="11" font-family="Arial" fill="#52606d" text-anchor="end">-5.00</text>
<line x1="56" y1="577.33" x2="904" y2="577.33" stroke="#edf2f7" />
<line x1="52" y1="577.33" x2="56" y2="577.33" stroke="#9fb3c8" />
<text x="48.00" y="581.33" font-size="11" font-family="Arial" fill="#52606d" text-anchor="end">31.7</text>
<line x1="56" y1="530.67" x2="904" y2="530.67" stroke="#edf2f7" />
<line x1="52" y1="530.67" x2="56" y2="530.67" stroke="#9fb3c8" />
<text x="48.00" y="534.67" font-size="11" font-family="Arial" fill="#52606d" text-anchor="end">68.3</text>
<line x1="56" y1="484.00" x2="904" y2="484.00" stroke="#edf2f7" />
<line x1="52" y1="484.00" x2="56" y2="484.00" stroke="#9fb3c8" />
<text x="48.00" y="488.00" font-size="11" font-family="Arial" fill="#52606d" text-anchor="end">105</text>
<line x1="56.00" y1="624" x2="56.00" y2="628" stroke="#9fb3c8" />
<text x="56.00" y="642.00" font-size="11" font-family="Arial" fill="#52606d" text-anchor="middle">07/11</text>
<line x1="226.25" y1="624" x2="226.25" y2="628" stroke="#9fb3c8" />
<text x="226.25" y="642.00" font-size="11" font-family="Arial" fill="#52606d" text-anchor="middle">09/24</text>
<line x1="396.51" y1="624" x2="396.51" y2="628" stroke="#9fb3c8" />
<text x="396.51" y="642.00" font-size="11" font-family="Arial" fill="#52606d" text-anchor="middle">12/08</text>
<line x1="563.49" y1="624" x2="563.49" y2="628" stroke="#9fb3c8" />
<text x="563.49" y="642.00" font-size="11" font-family="Arial" fill="#52606d" text-anchor="middle">02/23</text>
<line x1="733.75" y1="624" x2="733.75" y2="628" stroke="#9fb3c8" />
<text x="733.75" y="642.00" font-size="11" font-family="Arial" fill="#52606d" text-anchor="middle">05/07</text>
<line x1="904.00" y1="624" x2="904.00" y2="628" stroke="#9fb3c8" />
<text x="904.00" y="642.00" font-size="11" font-family="Arial" fill="#52606d" text-anchor="middle">07/23</text>
<line x1="56" y1="592.18" x2="904" y2="592.18" stroke="#f0b429" stroke-dasharray="5 5" />
<text x="912.00" y="596.18" font-size="10" font-family="Arial" fill="#8d2b0b" text-anchor="start">20.0</text>
<line x1="56" y1="515.82" x2="904" y2="515.82" stroke="#f0b429" stroke-dasharray="5 5" />
<text x="912.00" y="519.82" font-size="10" font-family="Arial" fill="#8d2b0b" text-anchor="start">80.0</text>
<polyline fill="none" stroke="#2ca02c" stroke-width="2" points="82.19,564.98 85.47,563.87 88.74,560.23 92.02,560.70 95.29,560.85 98.56,559.34 101.84,556.63 105.11,562.05 108.39,556.79 111.66,562.74 114.93,570.58 118.21,579.56 121.48,584.45 124.76,587.95 128.03,589.46 131.31,601.10 134.58,604.99 137.85,612.43 141.13,616.48 144.40,621.82 147.68,624.52 150.95,624.56 154.22,619.97 157.50,621.05 160.77,619.34 164.05,611.02 167.32,599.40 170.59,592.76 173.87,585.81 177.14,580.50 180.42,569.22 183.69,586.41 186.97,590.98 190.24,593.58 193.51,591.10 196.79,588.07 200.06,567.82 203.34,548.16 206.61,548.34 209.88,546.79 213.16,550.88 216.43,539.40 219.71,538.25 222.98,548.58 226.25,563.12 229.53,584.86 232.80,586.26 236.08,577.91 239.35,562.44 242.63,549.58 245.90,553.17 249.17,551.46 252.45,540.54 255.72,540.71 259.00,540.41 262.27,546.55 265.54,573.99 268.82,586.19 272.09,589.32 275.37,591.64 278.64,596.25 281.92,595.63 285.19,587.70 288.46,578.23 291.74,566.52 295.01,558.66 298.29,546.94 301.56,538.04 304.83,535.92 308.11,534.97 311.38,552.71 314.66,572.78 317.93,588.61 321.20,595.28 324.48,605.08 327.75,610.61 331.03,612.64 334.30,606.65 337.58,597.88 340.85,587.21 344.12,588.16 347.40,571.88 350.67,565.42 353.95,576.63 357.22,588.60 360.49,597.38 363.77,602.48 367.04,603.92 370.32,599.78 373.59,589.15 376.86,576.24 380.14,568.11 383.41,552.50 386.69,558.35 389.96,557.62 393.24,553.71 396.51,539.50 399.78,531.61 403.06,557.16 406.33,562.93 409.61,578.11 412.88,590.86 416.15,593.06 419.43,595.05 422.70,580.89 425.98,567.40 429.25,557.20 432.53,546.04 435.80,535.97 439.07,529.95 442.35,527.31 445.62,527.60 448.90,544.71 452.17,567.53 455.44,581.60 458.72,579.13 461.99,567.13 465.27,570.33 468.54,570.02 471.81,574.21 475.09,583.98 478.36,594.97 481.64,604.11 484.91,606.21 488.19,606.63 491.46,606.96 494.73,600.03 498.01,580.63 501.28,559.21 504.56,540.51 507.83,527.79 511.10,550.60 514.38,567.96 517.65,584.20 520.93,594.88 524.20,600.32 527.47,606.28 530.75,606.80 534.02,601.39 537.30,590.64 540.57,590.43 543.85,590.96 547.12,590.08 550.39,595.51 553.67,595.43 556.94,596.38 560.22,600.78 563.49,605.84 566.76,601.90 570.04,575.92 573.31,558.33 576.59,561.34 579.86,553.81 583.14,539.96 586.41,533.13 589.68,521.45 592.96,517.82 596.23,516.95 599.51,523.04 602.78,528.71 606.05,538.75 609.33,560.83 612.60,568.85 615.88,575.42 619.15,589.60 622.42,596.89 625.70,602.50 628.97,604.53 632.25,608.80 635.52,611.01 638.80,613.23 642.07,615.15 645.34,614.04 648.62,599.90 651.89,588.96 655.17,576.06 658.44,564.33 661.71,551.06 664.99,547.78 668.26,547.46 671.54,550.48 674.81,533.27 678.08,522.34 681.36,515.09 684.63,508.00 687.91,508.45 691.18,511.90 694.46,510.20 697.73,504.73 701.00,512.70 704.28,514.24 707.55,517.53 710.83,518.71 714.10,528.59 717.37,547.71 720.65,552.55 723.92,556.75 727.20,560.45 730.47,559.50 733.75,549.83 737.02,550.88 740.29,553.65 743.57,562.41 746.84,575.62 750.12,577.63 753.39,559.67 756.66,545.19 759.94,548.49 763.21,545.85 766.49,545.50 769.76,545.96 773.03,549.65 776.31,556.59 779.58,545.00 782.86,526.88 786.13,519.04 789.41,528.18 792.68,544.72 795.95,555.22 799.23,570.72 802.50,584.02 805.78,592.15 809.05,600.52 812.32,602.96 815.60,602.81 818.87,594.98 822.15,593.43 825.42,600.21 828.69,600.10 831.97,605.69 835.24,602.00 838.52,606.43 841.79,607.23 845.07,591.51 848.34,582.97 851.61,569.98 854.89,548.31 858.16,530.68 861.44,522.63 864.71,518.03 867.98,520.00 871.26,521.97 874.53,523.89 877.81,519.62 881.08,530.18 884.36,522.43 887.63,518.09 890.90,524.67 894.18,518.04 897.45,519.53 900.73,534.09 904.00,555.72" />
<polyline fill="none" stroke="#d62728" stroke-width="2" points="82.19,557.66 85.47,559.73 88.74,559.90 92.02,560.17 95.29,560.39 98.56,560.04 101.84,558.91 105.11,559.95 108.39,558.90 111.66,560.18 114.93,563.65 118.21,568.95 121.48,574.12 124.76,578.73 128.03,582.31 131.31,588.57 134.58,594.04 137.85,600.17 141.13,605.61 144.40,611.01 147.68,615.51 150.95,618.53 154.22,619.01 157.50,619.69 160.77,619.57 164.05,616.72 167.32,610.95 170.59,604.89 173.87,598.53 177.14,592.52 180.42,584.75 183.69,585.30 186.97,587.20 190.24,589.33 193.51,589.92 196.79,589.30 200.06,582.14 203.34,570.81 206.61,563.32 209.88,557.81 213.16,555.50 216.43,550.14 219.71,546.17 222.98,546.98 226.25,552.36 229.53,563.19 232.80,570.88 236.08,573.23 239.35,569.63 242.63,562.95 245.90,559.69 249.17,556.95 252.45,551.48 255.72,547.89 259.00,545.39 262.27,545.78 265.54,555.18 268.82,565.52 272.09,573.45 275.37,579.51 278.64,585.09 281.92,588.61 285.19,588.31 288.46,584.95 291.74,578.80 295.01,572.09 298.29,563.71 301.56,555.15 304.83,548.74 308.11,544.15 311.38,547.01 314.66,555.60 317.93,566.60 321.20,576.16 324.48,585.80 327.75,594.07 331.03,600.26 334.30,602.39 337.58,600.89 340.85,596.33 344.12,593.60 347.40,586.36 350.67,579.38 353.95,578.46 357.22,581.84 360.49,587.02 363.77,592.18 367.04,596.09 370.32,597.32 373.59,594.60 376.86,588.48 380.14,581.69 383.41,571.96 386.69,567.42 389.96,564.16 393.24,560.68 396.51,553.62 399.78,546.28 403.06,549.91 406.33,554.25 409.61,562.20 412.88,571.76 416.15,578.86 419.43,584.26 422.70,583.13 425.98,577.89 429.25,570.99 432.53,562.68 435.80,553.77 439.07,545.83 442.35,539.66 445.62,535.64 448.90,538.66 452.17,548.29 455.44,559.39 458.72,565.97 461.99,566.36 465.27,567.68 468.54,568.46 471.81,570.38 475.09,574.91 478.36,581.60 481.64,589.10 484.91,594.81 488.19,598.75 491.46,601.49 494.73,601.00 498.01,594.21 501.28,582.55 504.56,568.53 507.83,554.95 511.10,553.50 514.38,558.32 517.65,566.95 520.93,576.26 524.20,584.28 527.47,591.61 530.75,596.67 534.02,598.24 537.30,595.71 540.57,593.95 543.85,592.95 547.12,592.00 550.39,593.17 553.67,593.92 556.94,594.74 560.22,596.76 563.49,599.78 566.76,600.49 570.04,592.30 573.31,580.97 576.59,574.43 579.86,567.56 583.14,558.36 586.41,549.95 589.68,540.45 592.96,532.91 596.23,527.59 599.51,526.07 602.78,526.95 606.05,530.88 609.33,540.87 612.60,550.19 615.88,558.60 619.15,568.93 622.42,578.25 625.70,586.34 628.97,592.40 632.25,597.87 635.52,602.25 638.80,605.91 642.07,608.99 645.34,610.67 648.62,607.08 651.89,601.04 655.17,592.71 658.44,583.25 661.71,572.52 664.99,564.28 668.26,558.67 671.54,555.94 674.81,548.38 678.08,539.70 681.36,531.50 684.63,523.67 687.91,518.59 691.18,516.36 694.46,514.31 697.73,511.12 701.00,511.64 704.28,512.51 707.55,514.18 710.83,515.69 714.10,519.99 717.37,529.23 720.65,537.00 723.92,543.59 727.20,549.21 730.47,552.64 733.75,551.70 737.02,551.43 740.29,552.17 743.57,555.58 746.84,562.26 750.12,567.38 753.39,564.81 756.66,558.27 759.94,555.01 763.21,551.96 766.49,549.80 769.76,548.52 773.03,548.90 776.31,551.46 779.58,549.31 782.86,541.83 786.13,534.24 789.41,532.22 792.68,536.39 795.95,542.66 799.23,552.02 802.50,562.69 805.78,572.51 809.05,581.84 812.32,588.88 815.60,593.52 818.87,594.01 822.15,593.82 825.42,595.95 828.69,597.33 831.97,600.12 835.24,600.74 838.52,602.64 841.79,604.17 845.07,599.95 848.34,594.29 851.61,586.19 854.89,573.56 858.16,559.27 861.44,547.06 864.71,537.38 867.98,531.59 871.26,528.38 874.53,526.88 877.81,524.46 881.08,526.37 884.36,525.06 887.63,522.74 890.90,523.38 894.18,521.60 897.45,520.91 900.73,525.30 904.00,535.44" />
<text x="824.00" y="502.00" font-size="13" font-family="Arial" fill="#2ca02c" text-anchor="start">K</text>
<text x="860.00" y="502.00" font-size="13" font-family="Arial" fill="#d62728" text-anchor="start">D</text>
</svg>