<svg xmlns="http://www.w3.org/2000/svg" width="960" height="680" viewBox="0 0 960 680"><rect width="100%" height="100%" fill="white" />
<text x="56.00" y="32.00" font-size="20" font-family="Arial" fill="#1f2933" text-anchor="start">NFLX Technical Indicators</text>
<line x1="56" y1="220" x2="904" y2="220" stroke="#cbd2d9" />
<line x1="56" y1="58" x2="56" y2="220" stroke="#cbd2d9" />
<text x="16.00" y="50.00" font-size="12" font-family="Arial" fill="#52606d" text-anchor="start">RSI14</text>
<line x1="56" y1="220.00" x2="904" y2="220.00" stroke="#edf2f7" />
<line x1="52" y1="220.00" x2="56" y2="220.00" stroke="#9fb3c8" />
<text x="48.00" y="224.00" font-size="11" font-family="Arial" fill="#52606d" text-anchor="end">-5.00</text>
<line x1="56" y1="166.00" x2="904" y2="166.00" stroke="#edf2f7" />
<line x1="52" y1="166.00" x2="56" y2="166.00" stroke="#9fb3c8" />
<text x="48.00" y="170.00" font-size="11" font-family="Arial" fill="#52606d" text-anchor="end">31.7</text>
<line x1="56" y1="112.00" x2="904" y2="112.00" stroke="#edf2f7" />
<line x1="52" y1="112.00" x2="56" y2="112.00" stroke="#9fb3c8" />
<text x="48.00" y="116.00" font-size="11" font-family="Arial" fill="#52606d" text-anchor="end">68.3</text>
<line x1="56" y1="58.00" x2="904" y2="58.00" stroke="#edf2f7" />
<line x1="52" y1="58.00" x2="56" y2="58.00" stroke="#9fb3c8" />
<text x="48.00" y="62.00" font-size="11" font-family="Arial" fill="#52606d" text-anchor="end">105</text>
<line x1="56" y1="168.45" x2="904" y2="168.45" stroke="#f0b429" stroke-dasharray="5 5" />
<text x="912.00" y="172.45" font-size="10" font-family="Arial" fill="#8d2b0b" text-anchor="start">30.0</text>
<line x1="56" y1="109.55" x2="904" y2="109.55" stroke="#f0b429" stroke-dasharray="5 5" />
<text x="912.00" y="113.55" font-size="10" font-family="Arial" fill="#8d2b0b" text-anchor="start">70.0</text>
<polyline fill="none" stroke="#1f77b4" stroke-width="2" points="101.84,167.08 105.11,168.15 108.39,161.75 111.66,166.69 114.93,166.84 118.21,161.46 121.48,166.39 124.76,154.19 128.03,153.48 131.31,142.53 134.58,140.39 137.85,138.11 141.13,144.74 144.40,136.24 147.68,133.70 150.95,131.83 154.22,142.29 157.50,142.38 160.77,144.89 164.05,145.42 167.32,140.03 170.59,136.93 173.87,138.01 177.14,134.75 180.42,144.38 183.69,141.81 186.97,136.66 190.24,125.37 193.51,131.42 196.79,131.08 200.06,124.67 203.34,131.81 206.61,147.90 209.88,152.31 213.16,146.83 216.43,147.39 219.71,136.89 222.98,143.90 226.25,137.26 229.53,137.13 232.80,140.41 236.08,145.53 239.35,143.76 242.63,142.74 245.90,144.43 249.17,147.45 252.45,157.32 255.72,159.89 259.00,162.64 262.27,157.05 265.54,143.61 268.82,134.49 272.09,128.72 275.37,133.37 278.64,133.82 281.92,135.48 285.19,140.79 288.46,148.56 291.74,141.47 295.01,127.33 298.29,126.46 301.56,161.26 304.83,161.75 308.11,165.09 311.38,165.11 314.66,162.02 317.93,162.46 321.20,164.90 324.48,152.91 327.75,157.41 331.03,159.07 334.30,156.79 337.58,157.17 340.85,154.18 344.12,147.08 347.40,140.61 350.67,133.18 353.95,134.48 357.22,148.83 360.49,151.50 363.77,138.09 367.04,149.48 370.32,158.86 373.59,161.43 376.86,152.64 380.14,157.85 383.41,152.34 386.69,147.96 389.96,143.39 393.24,142.74 396.51,155.39 399.78,156.88 403.06,162.54 406.33,168.17 409.61,168.29 412.88,174.10 416.15,169.05 419.43,165.08 422.70,167.49 425.98,164.45 429.25,163.58 432.53,165.18 435.80,163.48 439.07,166.03 442.35,164.74 445.62,164.03 448.90,159.74 452.17,160.68 455.44,161.80 458.72,161.87 461.99,169.87 465.27,166.95 468.54,169.20 471.81,168.66 475.09,169.27 478.36,172.48 481.64,172.63 484.91,165.35 488.19,171.24 491.46,172.75 494.73,172.90 498.01,175.23 501.28,180.46 504.56,184.51 507.83,165.30 511.10,166.60 514.38,166.99 517.65,170.00 520.93,174.30 524.20,171.73 527.47,173.91 530.75,180.93 534.02,179.20 537.30,173.55 540.57,163.71 543.85,166.21 547.12,160.89 550.39,169.47 553.67,178.36 556.94,172.01 560.22,171.18 563.49,164.87 566.76,167.75 570.04,157.64 573.31,165.58 576.59,154.96 579.86,136.28 583.14,130.36 586.41,107.19 589.68,106.05 592.96,105.21 596.23,103.87 599.51,103.14 602.78,103.79 606.05,106.96 609.33,113.11 612.60,121.60 615.88,123.90 619.15,121.27 622.42,121.76 625.70,125.54 628.97,124.47 632.25,137.10 635.52,136.81 638.80,131.07 642.07,140.85 645.34,135.82 648.62,132.16 651.89,131.77 655.17,133.86 658.44,122.80 661.71,125.66 664.99,116.58 668.26,115.87 671.54,116.45 674.81,114.79 678.08,107.82 681.36,105.61 684.63,105.26 687.91,98.77 691.18,96.29 694.46,96.15 697.73,141.12 701.00,147.52 704.28,152.76 707.55,150.59 710.83,151.63 714.10,152.61 717.37,155.39 720.65,151.76 723.92,152.20 727.20,146.01 730.47,150.94 733.75,154.07 737.02,162.34 740.29,160.58 743.57,160.63 746.84,162.73 750.12,167.94 753.39,156.80 756.66,157.10 759.94,158.98 763.21,158.54 766.49,145.27 769.76,146.50 773.03,151.20 776.31,145.24 779.58,148.03 782.86,151.62 786.13,152.90 789.41,156.69 792.68,157.97 795.95,158.64 799.23,167.44 802.50,172.50 805.78,172.22 809.05,167.68 812.32,164.32 815.60,168.49 818.87,164.09 822.15,166.70 825.42,169.86 828.69,159.85 831.97,169.68 835.24,174.27 838.52,171.36 841.79,181.09 845.07,181.19 848.34,182.96 851.61,184.58 854.89,166.19 858.16,166.27 861.44,172.18 864.71,157.38 867.98,143.01 871.26,148.12 874.53,147.48 877.81,149.42 881.08,149.83 884.36,156.64 887.63,154.36 890.90,155.37 894.18,154.54 897.45,150.76 900.73,167.39 904.00,170.44" />
<text x="808.00" y="76.00" font-size="13" font-family="Arial" fill="#1f77b4" text-anchor="start">RSI14</text>
<line x1="56" y1="432" x2="904" y2="432" stroke="#cbd2d9" />
<line x1="56" y1="272" x2="56" y2="432" stroke="#cbd2d9" />
<text x="16.00" y="264.00" font-size="12" font-family="Arial" fill="#52606d" text-anchor="start">MACD</text>
<line x1="56" y1="432.00" x2="904" y2="432.00" stroke="#edf2f7" />
<line x1="52" y1="432.00" x2="56" y2="432.00" stroke="#9fb3c8" />
<text x="48.00" y="436.00" font-size="11" font-family="Arial" fill="#52606d" text-anchor="end">-5.29</text>
<line x1="56" y1="378.67" x2="904" y2="378.67" stroke="#edf2f7" />
<line x1="52" y1="378.67" x2="56" y2="378.67" stroke="#9fb3c8" />
<text x="48.00" y="382.67" font-size="11" font-family="Arial" fill="#52606d" text-anchor="end">-2.02</text>
<line x1="56" y1="325.33" x2="904" y2="325.33" stroke="#edf2f7" />
<line x1="52" y1="325.33" x2="56" y2="325.33" stroke="#9fb3c8" />
<text x="48.00" y="329.33" font-size="11" font-family="Arial" fill="#52606d" text-anchor="end">1.25</text>
<line x1="56" y1="272.00" x2="904" y2="272.00" stroke="#edf2f7" />
<line x1="52" y1="272.00" x2="56" y2="272.00" stroke="#9fb3c8" />
<text x="48.00" y="276.00" font-size="11" font-family="Arial" fill="#52606d" text-anchor="end">4.51</text>
<line x1="56" y1="345.67" x2="904" y2="345.67" stroke="#9fb3c8" stroke-dasharray="4 4" />
<rect x="136.71" y="345.67" width="2.28" height="0.00" fill="#2f9e44" opacity="0.55" />
<rect x="139.99" y="343.57" width="2.28" height="2.11" fill="#2f9e44" opacity="0.55" />
<rect x="143.26" y="339.45" width="2.28" height="6.22" fill="#2f9e44" opacity="0.55" />
<rect x="146.53" y="336.16" width="2.28" height="9.51" fill="#2f9e44" opacity="0.55" />
<rect x="149.81" y="333.81" width="2.28" height="11.86" fill="#2f9e44" opacity="0.55" />
<rect x="153.08" y="336.07" width="2.28" height="9.60" fill="#2f9e44" opacity="0.55" />
<rect x="156.36" y="337.93" width="2.28" height="7.75" fill="#2f9e44" opacity="0.55" />
<rect x="159.63" y="340.22" width="2.28" height="5.46" fill="#2f9e44" opacity="0.55" />
<rect x="162.90" y="342.04" width="2.28" height="3.64" fill="#2f9e44" opacity="0.55" />
<rect x="166.18" y="341.91" width="2.28" height="3.76" fill="#2f9e44" opacity="0.55" />
<rect x="169.45" y="341.15" width="2.28" height="4.53" fill="#2f9e44" opacity="0.55" />
<rect x="172.73" y="341.14" width="2.28" height="4.53" fill="#2f9e44" opacity="0.55" />
<rect x="176.00" y="340.52" width="2.28" height="5.16" fill="#2f9e44" opacity="0.55" />
<rect x="179.28" y="342.80" width="2.28" height="2.88" fill="#2f9e44" opacity="0.55" />
<rect x="182.55" y="343.76" width="2.28" height="1.91" fill="#2f9e44" opacity="0.55" />
<rect x="185.82" y="343.20" width="2.28" height="2.47" fill="#2f9e44" opacity="0.55" />
<rect x="189.10" y="339.72" width="2.28" height="5.95" fill="#2f9e44" opacity="0.55" />
<rect x="192.37" y="339.29" width="2.28" height="6.39" fill="#2f9e44" opacity="0.55" />
<rect x="195.65" y="339.28" width="2.28" height="6.39" fill="#2f9e44" opacity="0.55" />
<rect x="198.92" y="337.73" width="2.28" height="7.94" fill="#2f9e44" opacity="0.55" />
<rect x="202.19" y="338.86" width="2.28" height="6.81" fill="#2f9e44" opacity="0.55" />
<rect x="205.47" y="344.61" width="2.28" height="1.07" fill="#2f9e44" opacity="0.55" />
<rect x="208.74" y="345.67" width="2.28" height="4.24" fill="#d64545" opacity="0.55" />
<rect x="212.02" y="345.67" width="2.28" height="5.98" fill="#d64545" opacity="0.55" />
<rect x="215.29" y="345.67" width="2.28" height="6.99" fill="#d64545" opacity="0.55" />
<rect x="218.57" y="345.67" width="2.28" height="4.38" fill="#d64545" opacity="0.55" />
<rect x="221.84" y="345.67" width="2.28" height="4.71" fill="#d64545" opacity="0.55" />
<rect x="225.11" y="345.67" width="2.28" height="2.69" fill="#d64545" opacity="0.55" />
<rect x="228.39" y="345.67" width="2.28" height="1.25" fill="#d64545" opacity="0.55" />
<rect x="231.66" y="345.67" width="2.28" height="1.23" fill="#d64545" opacity="0.55" />
<rect x="234.94" y="345.67" width="2.28" height="2.67" fill="#d64545" opacity="0.55" />
<rect x="238.21" y="345.67" width="2.28" height="2.98" fill="#d64545" opacity="0.55" />
<rect x="241.48" y="345.67" width="2.28" height="2.78" fill="#d64545" opacity="0.55" />
<rect x="244.76" y="345.67" width="2.28" height="2.93" fill="#d64545" opacity="0.55" />
<rect x="248.03" y="345.67" width="2.28" height="3.63" fill="#d64545" opacity="0.55" />
<rect x="251.31" y="345.67" width="2.28" height="6.78" fill="#d64545" opacity="0.55" />
<rect x="254.58" y="345.67" width="2.28" height="9.23" fill="#d64545" opacity="0.55" />
<rect x="257.85" y="345.67" width="2.28" height="11.17" fill="#d64545" opacity="0.55" />
<rect x="261.13" y="345.67" width="2.28" height="10.68" fill="#d64545" opacity="0.55" />
<rect x="264.40" y="345.67" width="2.28" height="6.81" fill="#d64545" opacity="0.55" />
<rect x="267.68" y="345.67" width="2.28" height="1.48" fill="#d64545" opacity="0.55" />
<rect x="270.95" y="341.85" width="2.28" height="3.83" fill="#2f9e44" opacity="0.55" />
<rect x="274.23" y="339.75" width="2.28" height="5.92" fill="#2f9e44" opacity="0.55" />
<rect x="277.50" y="338.74" width="2.28" height="6.93" fill="#2f9e44" opacity="0.55" />
<rect x="280.77" y="338.77" width="2.28" height="6.90" fill="#2f9e44" opacity="0.55" />
<rect x="284.05" y="340.33" width="2.28" height="5.35" fill="#2f9e44" opacity="0.55" />
<rect x="287.32" y="343.57" width="2.28" height="2.10" fill="#2f9e44" opacity="0.55" />
<rect x="290.60" y="344.01" width="2.28" height="1.66" fill="#2f9e44" opacity="0.55" />
<rect x="293.87" y="340.23" width="2.28" height="5.44" fill="#2f9e44" opacity="0.55" />
<rect x="297.14" y="337.81" width="2.28" height="7.86" fill="#2f9e44" opacity="0.55" />
<rect x="300.42" y="345.67" width="2.28" height="4.04" fill="#d64545" opacity="0.55" />
<rect x="303.69" y="345.67" width="2.28" height="11.54" fill="#d64545" opacity="0.55" />
<rect x="306.97" y="345.67" width="2.28" height="17.54" fill="#d64545" opacity="0.55" />
<rect x="310.24" y="345.67" width="2.28" height="20.30" fill="#d64545" opacity="0.55" />
<rect x="313.51" y="345.67" width="2.28" height="19.99" fill="#d64545" opacity="0.55" />
<rect x="316.79" y="345.67" width="2.28" height="18.77" fill="#d64545" opacity="0.55" />
<rect x="320.06" y="345.67" width="2.28" height="17.97" fill="#d64545" opacity="0.55" />
<rect x="323.34" y="345.67" width="2.28" height="13.14" fill="#d64545" opacity="0.55" />
<rect x="326.61" y="345.67" width="2.28" height="11.08" fill="#d64545" opacity="0.55" />
<rect x="329.89" y="345.67" width="2.28" height="9.61" fill="#d64545" opacity="0.55" />
<rect x="333.16" y="345.67" width="2.28" height="7.26" fill="#d64545" opacity="0.55" />
<rect x="336.43" y="345.67" width="2.28" height="5.19" fill="#d64545" opacity="0.55" />
<rect x="339.71" y="345.67" width="2.28" height="2.54" fill="#d64545" opacity="0.55" />
<rect x="342.98" y="344.32" width="2.28" height="1.35" fill="#2f9e44" opacity="0.55" />
<rect x="346.26" y="339.86" width="2.28" height="5.81" fill="#2f9e44" opacity="0.55" />
<rect x="349.53" y="334.81" width="2.28" height="10.87" fill="#2f9e44" opacity="0.55" />
<rect x="352.80" y="332.20" width="2.28" height="13.47" fill="#2f9e44" opacity="0.55" />
<rect x="356.08" y="335.34" width="2.28" height="10.33" fill="#2f9e44" opacity="0.55" />
<rect x="359.35" y="338.52" width="2.28" height="7.15" fill="#2f9e44" opacity="0.55" />
<rect x="362.63" y="336.65" width="2.28" height="9.02" fill="#2f9e44" opacity="0.55" />
<rect x="365.90" y="339.96" width="2.28" height="5.71" fill="#2f9e44" opacity="0.55" />
<rect x="369.18" y="345.67" width="2.28" height="0.93" fill="#d64545" opacity="0.55" />
<rect x="372.45" y="345.67" width="2.28" height="6.22" fill="#d64545" opacity="0.55" />
<rect x="375.72" y="345.67" width="2.28" height="6.18" fill="#d64545" opacity="0.55" />
<rect x="379.00" y="345.67" width="2.28" height="8.23" fill="#d64545" opacity="0.55" />
<rect x="382.27" y="345.67" width="2.28" height="6.98" fill="#d64545" opacity="0.55" />
<rect x="385.55" y="345.67" width="2.28" height="4.02" fill="#d64545" opacity="0.55" />
<rect x="388.82" y="345.67" width="2.28" height="0.02" fill="#d64545" opacity="0.55" />
<rect x="392.09" y="342.64" width="2.28" height="3.03" fill="#2f9e44" opacity="0.55" />
<rect x="395.37" y="345.67" width="2.28" height="0.52" fill="#d64545" opacity="0.55" />
<rect x="398.64" y="345.67" width="2.28" height="3.18" fill="#d64545" opacity="0.55" />
<rect x="401.92" y="345.67" width="2.28" height="7.47" fill="#d64545" opacity="0.55" />
<rect x="405.19" y="345.67" width="2.28" height="13.02" fill="#d64545" opacity="0.55" />
<rect x="408.46" y="345.67" width="2.28" height="15.54" fill="#d64545" opacity="0.55" />
<rect x="411.74" y="345.67" width="2.28" height="20.07" fill="#d64545" opacity="0.55" />
<rect x="415.01" y="345.67" width="2.28" height="19.98" fill="#d64545" opacity="0.55" />
<rect x="418.29" y="345.67" width="2.28" height="17.23" fill="#d64545" opacity="0.55" />
<rect x="421.56" y="345.67" width="2.28" height="15.55" fill="#d64545" opacity="0.55" />
<rect x="424.84" y="345.67" width="2.28" height="12.29" fill="#d64545" opacity="0.55" />
<rect x="428.11" y="345.67" width="2.28" height="8.77" fill="#d64545" opacity="0.55" />
<rect x="431.38" y="345.67" width="2.28" height="6.31" fill="#d64545" opacity="0.55" />
<rect x="434.66" y="345.67" width="2.28" height="3.41" fill="#d64545" opacity="0.55" />
<rect x="437.93" y="345.67" width="2.28" height="1.98" fill="#d64545" opacity="0.55" />
<rect x="441.21" y="345.67" width="2.28" height="0.06" fill="#d64545" opacity="0.55" />
<rect x="444.48" y="343.74" width="2.28" height="1.94" fill="#2f9e44" opacity="0.55" />
<rect x="447.75" y="341.08" width="2.28" height="4.59" fill="#2f9e44" opacity="0.55" />
<rect x="451.03" y="339.37" width="2.28" height="6.30" fill="#2f9e44" opacity="0.55" />
<rect x="454.30" y="338.40" width="2.28" height="7.28" fill="#2f9e44" opacity="0.55" />
<rect x="457.58" y="337.59" width="2.28" height="8.08" fill="#2f9e44" opacity="0.55" />
<rect x="460.85" y="339.83" width="2.28" height="5.85" fill="#2f9e44" opacity="0.55" />
<rect x="464.12" y="340.48" width="2.28" height="5.20" fill="#2f9e44" opacity="0.55" />
<rect x="467.40" y="341.45" width="2.28" height="4.23" fill="#2f9e44" opacity="0.55" />
<rect x="470.67" y="341.65" width="2.28" height="4.02" fill="#2f9e44" opacity="0.55" />
<rect x="473.95" y="341.67" width="2.28" height="4.01" fill="#2f9e44" opacity="0.55" />
<rect x="477.22" y="342.48" width="2.28" height="3.20" fill="#2f9e44" opacity="0.55" />
<rect x="480.50" y="342.69" width="2.28" height="2.99" fill="#2f9e44" opacity="0.55" />
<rect x="483.77" y="341.51" width="2.28" height="4.16" fill="#2f9e44" opacity="0.55" />
<rect x="487.04" y="342.34" width="2.28" height="3.33" fill="#2f9e44" opacity="0.55" />
<rect x="490.32" y="343.06" width="2.28" height="2.61" fill="#2f9e44" opacity="0.55" />
<rect x="493.59" y="343.22" width="2.28" height="2.46" fill="#2f9e44" opacity="0.55" />
<rect x="496.87" y="343.73" width="2.28" height="1.94" fill="#2f9e44" opacity="0.55" />
<rect x="500.14" y="345.66" width="2.28" height="0.01" fill="#2f9e44" opacity="0.55" />
<rect x="503.41" y="345.67" width="2.28" height="2.62" fill="#d64545" opacity="0.55" />
<rect x="506.69" y="345.67" width="2.28" height="0.95" fill="#d64545" opacity="0.55" />
<rect x="509.96" y="345.49" width="2.28" height="0.19" fill="#2f9e44" opacity="0.55" />
<rect x="513.24" y="344.42" width="2.28" height="1.25" fill="#2f9e44" opacity="0.55" />
<rect x="516.51" y="344.32" width="2.28" height="1.35" fill="#2f9e44" opacity="0.55" />
<rect x="519.79" y="345.39" width="2.28" height="0.29" fill="#2f9e44" opacity="0.55" />
<rect x="523.06" y="345.25" width="2.28" height="0.42" fill="#2f9e44" opacity="0.55" />
<rect x="526.33" y="345.47" width="2.28" height="0.20" fill="#2f9e44" opacity="0.55" />
<rect x="529.61" y="345.67" width="2.28" height="2.41" fill="#d64545" opacity="0.55" />
<rect x="532.88" y="345.67" width="2.28" height="3.21" fill="#d64545" opacity="0.55" />
<rect x="536.16" y="345.67" width="2.28" height="2.31" fill="#d64545" opacity="0.55" />
<rect x="539.43" y="345.42" width="2.28" height="0.26" fill="#2f9e44" opacity="0.55" />
<rect x="542.70" y="344.09" width="2.28" height="1.58" fill="#2f9e44" opacity="0.55" />
<rect x="545.98" y="342.08" width="2.28" height="3.60" fill="#2f9e44" opacity="0.55" />
<rect x="549.25" y="343.22" width="2.28" height="2.45" fill="#2f9e44" opacity="0.55" />
<rect x="552.53" y="345.67" width="2.28" height="1.84" fill="#d64545" opacity="0.55" />
<rect x="555.80" y="345.67" width="2.28" height="2.89" fill="#d64545" opacity="0.55" />
<rect x="559.07" y="345.67" width="2.28" height="2.78" fill="#d64545" opacity="0.55" />
<rect x="562.35" y="345.67" width="2.28" height="1.04" fill="#d64545" opacity="0.55" />
<rect x="565.62" y="345.67" width="2.28" height="0.43" fill="#d64545" opacity="0.55" />
<rect x="568.90" y="343.46" width="2.28" height="2.22" fill="#2f9e44" opacity="0.55" />
<rect x="572.17" y="344.19" width="2.28" height="1.49" fill="#2f9e44" opacity="0.55" />
<rect x="575.45" y="342.13" width="2.28" height="3.55" fill="#2f9e44" opacity="0.55" />
<rect x="578.72" y="335.68" width="2.28" height="9.99" fill="#2f9e44" opacity="0.55" />
<rect x="581.99" y="329.74" width="2.28" height="15.93" fill="#2f9e44" opacity="0.55" />
<rect x="585.27" y="314.28" width="2.28" height="31.39" fill="#2f9e44" opacity="0.55" />
<rect x="588.54" y="305.00" width="2.28" height="40.67" fill="#2f9e44" opacity="0.55" />
<rect x="591.82" y="300.43" width="2.28" height="45.25" fill="#2f9e44" opacity="0.55" />
<rect x="595.09" y="298.77" width="2.28" height="46.90" fill="#2f9e44" opacity="0.55" />
<rect x="598.36" y="299.62" width="2.28" height="46.06" fill="#2f9e44" opacity="0.55" />
<rect x="601.64" y="302.77" width="2.28" height="42.90" fill="#2f9e44" opacity="0.55" />
<rect x="604.91" y="307.89" width="2.28" height="37.79" fill="#2f9e44" opacity="0.55" />
<rect x="608.19" y="314.75" width="2.28" height="30.92" fill="#2f9e44" opacity="0.55" />
<rect x="611.46" y="323.12" width="2.28" height="22.55" fill="#2f9e44" opacity="0.55" />
<rect x="614.73" y="330.52" width="2.28" height="15.15" fill="#2f9e44" opacity="0.55" />
<rect x="618.01" y="335.31" width="2.28" height="10.37" fill="#2f9e44" opacity="0.55" />
<rect x="621.28" y="339.39" width="2.28" height="6.29" fill="#2f9e44" opacity="0.55" />
<rect x="624.56" y="343.58" width="2.28" height="2.09" fill="#2f9e44" opacity="0.55" />
<rect x="627.83" y="345.67" width="2.28" height="0.74" fill="#d64545" opacity="0.55" />
<rect x="631.11" y="345.67" width="2.28" height="5.99" fill="#d64545" opacity="0.55" />
<rect x="634.38" y="345.67" width="2.28" height="9.32" fill="#d64545" opacity="0.55" />
<rect x="637.65" y="345.67" width="2.28" height="9.69" fill="#d64545" opacity="0.55" />
<rect x="640.93" y="345.67" width="2.28" height="12.36" fill="#d64545" opacity="0.55" />
<rect x="644.20" y="345.67" width="2.28" height="12.32" fill="#d64545" opacity="0.55" />
<rect x="647.48" y="345.67" width="2.28" height="10.89" fill="#d64545" opacity="0.55" />
<rect x="650.75" y="345.67" width="2.28" height="9.61" fill="#d64545" opacity="0.55" />
<rect x="654.02" y="345.67" width="2.28" height="9.06" fill="#d64545" opacity="0.55" />
<rect x="657.30" y="345.67" width="2.28" height="5.19" fill="#d64545" opacity="0.55" />
<rect x="660.57" y="345.67" width="2.28" height="3.36" fill="#d64545" opacity="0.55" />
<rect x="663.85" y="344.71" width="2.28" height="0.97" fill="#2f9e44" opacity="0.55" />
<rect x="667.12" y="342.00" width="2.28" height="3.67" fill="#2f9e44" opacity="0.55" />
<rect x="670.40" y="340.87" width="2.28" height="4.81" fill="#2f9e44" opacity="0.55" />
<rect x="673.67" y="340.07" width="2.28" height="5.60" fill="#2f9e44" opacity="0.55" />
<rect x="676.94" y="337.37" width="2.28" height="8.31" fill="#2f9e44" opacity="0.55" />
<rect x="680.22" y="335.40" width="2.28" height="10.27" fill="#2f9e44" opacity="0.55" />
<rect x="683.49" y="334.86" width="2.28" height="10.81" fill="#2f9e44" opacity="0.55" />
<rect x="686.77" y="332.18" width="2.28" height="13.49" fill="#2f9e44" opacity="0.55" />
<rect x="690.04" y="330.09" width="2.28" height="15.59" fill="#2f9e44" opacity="0.55" />
<rect x="693.31" y="329.91" width="2.28" height="15.76" fill="#2f9e44" opacity="0.55" />
<rect x="696.59" y="342.00" width="2.28" height="3.68" fill="#2f9e44" opacity="0.55" />
<rect x="699.86" y="345.67" width="2.28" height="7.13" fill="#d64545" opacity="0.55" />
<rect x="703.14" y="345.67" width="2.28" height="16.30" fill="#d64545" opacity="0.55" />
<rect x="706.41" y="345.67" width="2.28" height="20.91" fill="#d64545" opacity="0.55" />
<rect x="709.68" y="345.67" width="2.28" height="23.49" fill="#d64545" opacity="0.55" />
<rect x="712.96" y="345.67" width="2.28" height="24.56" fill="#d64545" opacity="0.55" />
<rect x="716.23" y="345.67" width="2.28" height="25.31" fill="#d64545" opacity="0.55" />
<rect x="719.51" y="345.67" width="2.28" height="23.69" fill="#d64545" opacity="0.55" />
<rect x="722.78" y="345.67" width="2.28" height="21.72" fill="#d64545" opacity="0.55" />
<rect x="726.06" y="345.67" width="2.28" height="17.87" fill="#d64545" opacity="0.55" />
<rect x="729.33" y="345.67" width="2.28" height="16.17" fill="#d64545" opacity="0.55" />
<rect x="732.60" y="345.67" width="2.28" height="15.35" fill="#d64545" opacity="0.55" />
<rect x="735.88" y="345.67" width="2.28" height="17.26" fill="#d64545" opacity="0.55" />
<rect x="739.15" y="345.67" width="2.28" height="17.08" fill="#d64545" opacity="0.55" />
<rect x="742.43" y="345.67" width="2.28" height="15.98" fill="#d64545" opacity="0.55" />
<rect x="745.70" y="345.67" width="2.28" height="15.10" fill="#d64545" opacity="0.55" />
<rect x="748.97" y="345.67" width="2.28" height="15.69" fill="#d64545" opacity="0.55" />
<rect x="752.25" y="345.67" width="2.28" height="12.72" fill="#d64545" opacity="0.55" />
<rect x="755.52" y="345.67" width="2.28" height="10.05" fill="#d64545" opacity="0.55" />
<rect x="758.80" y="345.67" width="2.28" height="8.23" fill="#d64545" opacity="0.55" />
<rect x="762.07" y="345.67" width="2.28" height="6.28" fill="#d64545" opacity="0.55" />
<rect x="765.34" y="345.67" width="2.28" height="1.68" fill="#d64545" opacity="0.55" />
<rect x="768.62" y="344.41" width="2.28" height="1.26" fill="#2f9e44" opacity="0.55" />
<rect x="771.89" y="343.62" width="2.28" height="2.05" fill="#2f9e44" opacity="0.55" />
<rect x="775.17" y="341.67" width="2.28" height="4.00" fill="#2f9e44" opacity="0.55" />
<rect x="778.44" y="341.10" width="2.28" height="4.57" fill="#2f9e44" opacity="0.55" />
<rect x="781.72" y="341.66" width="2.28" height="4.02" fill="#2f9e44" opacity="0.55" />
<rect x="784.99" y="342.29" width="2.28" height="3.38" fill="#2f9e44" opacity="0.55" />
<rect x="788.26" y="343.63" width="2.28" height="2.04" fill="#2f9e44" opacity="0.55" />
<rect x="791.54" y="344.68" width="2.28" height="1.00" fill="#2f9e44" opacity="0.55" />
<rect x="794.81" y="345.31" width="2.28" height="0.37" fill="#2f9e44" opacity="0.55" />
<rect x="798.09" y="345.67" width="2.28" height="2.41" fill="#d64545" opacity="0.55" />
<rect x="801.36" y="345.67" width="2.28" height="5.66" fill="#d64545" opacity="0.55" />
<rect x="804.63" y="345.67" width="2.28" height="7.08" fill="#d64545" opacity="0.55" />
<rect x="807.91" y="345.67" width="2.28" height="6.66" fill="#d64545" opacity="0.55" />
<rect x="811.18" y="345.67" width="2.28" height="5.26" fill="#d64545" opacity="0.55" />
<rect x="814.46" y="345.67" width="2.28" height="5.08" fill="#d64545" opacity="0.55" />
<rect x="817.73" y="345.67" width="2.28" height="3.75" fill="#d64545" opacity="0.55" />
<rect x="821.01" y="345.67" width="2.28" height="3.15" fill="#d64545" opacity="0.55" />
<rect x="824.28" y="345.67" width="2.28" height="3.23" fill="#d64545" opacity="0.55" />
<rect x="827.55" y="345.67" width="2.28" height="1.37" fill="#d64545" opacity="0.55" />
<rect x="830.83" y="345.67" width="2.28" height="2.85" fill="#d64545" opacity="0.55" />
<rect x="834.10" y="345.67" width="2.28" height="5.11" fill="#d64545" opacity="0.55" />
<rect x="837.38" y="345.67" width="2.28" height="5.44" fill="#d64545" opacity="0.55" />
<rect x="840.65" y="345.67" width="2.28" height="9.67" fill="#d64545" opacity="0.55" />
<rect x="843.92" y="345.67" width="2.28" height="11.47" fill="#d64545" opacity="0.55" />
<rect x="847.20" y="345.67" width="2.28" height="12.58" fill="#d64545" opacity="0.55" />
<rect x="850.47" y="345.67" width="2.28" height="13.13" fill="#d64545" opacity="0.55" />
<rect x="853.75" y="345.67" width="2.28" height="9.27" fill="#d64545" opacity="0.55" />
<rect x="857.02" y="345.67" width="2.28" height="5.88" fill="#d64545" opacity="0.55" />
<rect x="860.29" y="345.67" width="2.28" height="5.40" fill="#d64545" opacity="0.55" />
<rect x="863.57" y="345.67" width="2.28" height="1.36" fill="#d64545" opacity="0.55" />
<rect x="866.84" y="340.29" width="2.28" height="5.38" fill="#2f9e44" opacity="0.55" />
<rect x="870.12" y="337.51" width="2.28" height="8.16" fill="#2f9e44" opacity="0.55" />
<rect x="873.39" y="335.52" width="2.28" height="10.15" fill="#2f9e44" opacity="0.55" />
<rect x="876.67" y="334.93" width="2.28" height="10.74" fill="#2f9e44" opacity="0.55" />
<rect x="879.94" y="334.78" width="2.28" height="10.89" fill="#2f9e44" opacity="0.55" />
<rect x="883.21" y="337.01" width="2.28" height="8.66" fill="#2f9e44" opacity="0.55" />
<rect x="886.49" y="337.97" width="2.28" height="7.71" fill="#2f9e44" opacity="0.55" />
<rect x="889.76" y="338.88" width="2.28" height="6.80" fill="#2f9e44" opacity="0.55" />
<rect x="893.04" y="339.26" width="2.28" height="6.41" fill="#2f9e44" opacity="0.55" />
<rect x="896.31" y="338.77" width="2.28" height="6.90" fill="#2f9e44" opacity="0.55" />
<rect x="899.58" y="344.09" width="2.28" height="1.58" fill="#2f9e44" opacity="0.55" />
<rect x="902.86" y="345.67" width="2.28" height="2.90" fill="#d64545" opacity="0.55" />
<polyline fill="none" stroke="#1f77b4" stroke-width="2" points="137.85,365.86 141.13,363.23 144.40,357.56 147.68,351.89 150.95,346.58 154.22,346.44 157.50,346.36 160.77,347.28 164.05,348.19 167.32,347.13 170.59,345.23 173.87,344.09 177.14,342.18 180.42,343.74 183.69,344.22 186.97,343.05 190.24,338.08 193.51,336.05 196.79,334.45 200.06,330.91 203.34,330.33 206.61,335.82 209.88,342.19 213.16,345.42 216.43,348.18 219.71,346.67 222.98,348.17 226.25,346.82 229.53,345.70 232.80,345.98 236.08,348.08 239.35,349.15 242.63,349.63 245.90,350.52 249.17,352.13 252.45,356.97 255.72,361.72 259.00,366.47 262.27,368.64 265.54,366.47 268.82,361.51 272.09,355.25 275.37,351.67 278.64,348.93 281.92,347.23 285.19,347.45 288.46,350.17 291.74,350.20 295.01,345.06 298.29,340.67 301.56,353.58 304.83,363.96 308.11,374.35 311.38,382.18 314.66,386.87 317.93,390.34 321.20,394.04 324.48,392.50 327.75,393.20 331.03,394.14 334.30,393.60 337.58,392.83 340.85,390.81 344.12,386.59 347.40,380.67 350.67,372.90 353.95,366.92 357.22,367.48 360.49,368.87 363.77,364.75 367.04,366.63 370.32,373.51 373.59,380.35 376.86,381.85 380.14,385.97 383.41,386.46 386.69,384.51 389.96,380.52 393.24,376.70 396.51,380.39 399.78,383.84 403.06,390.00 406.33,398.81 409.61,405.21 412.88,414.76 416.15,419.66 419.43,421.22 422.70,423.43 425.98,423.23 429.25,421.91 432.53,421.03 435.80,418.98 439.07,418.05 442.35,416.14 445.62,413.66 448.90,409.86 452.17,406.57 455.44,403.78 458.72,400.95 461.99,401.72 465.27,401.07 468.54,400.99 471.81,400.19 475.09,399.20 478.36,399.21 481.64,398.67 484.91,396.46 488.19,396.46 491.46,396.53 494.73,396.07 498.01,396.10 501.28,398.02 504.56,401.30 507.83,399.88 511.10,398.69 514.38,397.32 517.65,396.87 520.93,397.87 524.20,397.63 527.47,397.80 530.75,401.01 534.02,402.61 537.30,402.29 540.57,399.66 543.85,397.94 547.12,395.03 550.39,395.56 553.67,400.31 556.94,402.09 560.22,402.67 563.49,401.19 566.76,400.68 570.04,397.48 573.31,397.84 576.59,394.89 579.86,385.95 583.14,376.03 586.41,352.72 589.68,333.28 592.96,317.39 596.23,304.01 599.51,293.34 602.78,285.77 606.05,281.44 609.33,280.57 612.60,283.31 615.88,286.92 619.15,289.11 622.42,291.62 625.70,295.29 628.97,298.30 632.25,305.06 635.52,310.71 638.80,313.50 642.07,319.26 645.34,322.30 648.62,323.60 651.89,324.72 655.17,326.44 658.44,323.86 661.71,322.87 664.99,318.30 668.26,314.68 671.54,312.34 674.81,310.15 678.08,305.37 681.36,300.83 684.63,297.59 687.91,291.54 691.18,285.55 694.46,281.43 697.73,292.60 701.00,305.18 704.28,318.44 707.55,328.27 710.83,336.72 714.10,343.94 717.37,351.00 720.65,355.31 723.92,358.77 727.20,359.39 730.47,361.73 733.75,364.75 737.02,370.97 740.29,375.06 743.57,377.95 746.84,380.84 750.12,385.37 753.39,385.58 756.66,385.42 759.94,385.65 763.21,385.27 766.49,381.10 769.76,377.84 773.03,376.53 776.31,373.58 779.58,371.87 782.86,371.42 786.13,371.21 789.41,372.04 792.68,372.84 795.95,373.37 799.23,376.76 802.50,381.42 805.78,384.61 809.05,385.86 812.32,385.78 815.60,386.86 818.87,386.47 822.15,386.65 825.42,387.54 828.69,386.02 831.97,388.22 835.24,391.75 838.52,393.44 841.79,400.09 845.07,404.75 848.34,409.01 851.61,412.85 854.89,411.30 858.16,409.38 861.44,410.25 864.71,406.56 867.98,398.46 871.26,393.64 874.53,389.11 877.81,385.84 881.08,382.97 884.36,383.03 887.63,382.06 890.90,381.27 894.18,380.05 897.45,377.83 900.73,382.77 904.00,387.96" />
<polyline fill="none" stroke="#ff7f0e" stroke-width="2" points="137.85,365.86 141.13,365.34 144.40,363.78 147.68,361.40 150.95,358.44 154.22,356.04 157.50,354.10 160.77,352.74 164.05,351.83 167.32,350.89 170.59,349.76 173.87,348.62 177.14,347.33 180.42,346.61 183.69,346.14 186.97,345.52 190.24,344.03 193.51,342.43 196.79,340.84 200.06,338.85 203.34,337.15 206.61,336.88 209.88,337.94 213.16,339.44 216.43,341.18 219.71,342.28 222.98,343.46 226.25,344.13 229.53,344.44 232.80,344.75 236.08,345.42 239.35,346.16 242.63,346.86 245.90,347.59 249.17,348.50 252.45,350.19 255.72,352.50 259.00,355.29 262.27,357.96 265.54,359.66 268.82,360.03 272.09,359.08 275.37,357.59 278.64,355.86 281.92,354.14 285.19,352.80 288.46,352.27 291.74,351.86 295.01,350.50 298.29,348.53 301.56,349.54 304.83,352.43 308.11,356.81 311.38,361.89 314.66,366.88 317.93,371.57 321.20,376.07 324.48,379.35 327.75,382.12 331.03,384.53 334.30,386.34 337.58,387.64 340.85,388.27 344.12,387.94 347.40,386.48 350.67,383.77 353.95,380.40 357.22,377.81 360.49,376.03 363.77,373.77 367.04,372.34 370.32,372.58 373.59,374.13 376.86,375.68 380.14,377.74 383.41,379.48 386.69,380.49 389.96,380.49 393.24,379.73 396.51,379.87 399.78,380.66 403.06,382.53 406.33,385.78 409.61,389.67 412.88,394.69 416.15,399.68 419.43,403.99 422.70,407.88 425.98,410.95 429.25,413.14 432.53,414.72 435.80,415.57 439.07,416.07 442.35,416.08 445.62,415.60 448.90,414.45 452.17,412.87 455.44,411.05 458.72,409.03 461.99,407.57 465.27,406.27 468.54,405.22 471.81,404.21 475.09,403.21 478.36,402.41 481.64,401.66 484.91,400.62 488.19,399.79 491.46,399.14 494.73,398.52 498.01,398.04 501.28,398.03 504.56,398.69 507.83,398.93 511.10,398.88 514.38,398.57 517.65,398.23 520.93,398.16 524.20,398.05 527.47,398.00 530.75,398.60 534.02,399.40 537.30,399.98 540.57,399.92 543.85,399.52 547.12,398.62 550.39,398.01 553.67,398.47 556.94,399.19 560.22,399.89 563.49,400.15 566.76,400.25 570.04,399.70 573.31,399.33 576.59,398.44 579.86,395.94 583.14,391.96 586.41,384.11 589.68,373.95 592.96,362.63 596.23,350.91 599.51,339.40 602.78,328.67 606.05,319.22 609.33,311.49 612.60,305.86 615.88,302.07 619.15,299.48 622.42,297.90 625.70,297.38 628.97,297.57 632.25,299.06 635.52,301.39 638.80,303.81 642.07,306.90 645.34,309.98 648.62,312.71 651.89,315.11 655.17,317.38 658.44,318.67 661.71,319.51 664.99,319.27 668.26,318.35 671.54,317.15 674.81,315.75 678.08,313.67 681.36,311.11 684.63,308.40 687.91,305.03 691.18,301.13 694.46,297.19 697.73,296.27 701.00,298.06 704.28,302.13 707.55,307.36 710.83,313.23 714.10,319.37 717.37,325.70 720.65,331.62 723.92,337.05 727.20,341.52 730.47,345.56 733.75,349.40 737.02,353.71 740.29,357.98 743.57,361.98 746.84,365.75 750.12,369.67 753.39,372.85 756.66,375.37 759.94,377.42 763.21,378.99 766.49,379.41 769.76,379.10 773.03,378.59 776.31,377.59 779.58,376.44 782.86,375.44 786.13,374.59 789.41,374.08 792.68,373.83 795.95,373.74 799.23,374.35 802.50,375.76 805.78,377.53 809.05,379.20 812.32,380.51 815.60,381.78 818.87,382.72 822.15,383.50 825.42,384.31 828.69,384.65 831.97,385.37 835.24,386.64 838.52,388.00 841.79,390.42 845.07,393.29 848.34,396.43 851.61,399.71 854.89,402.03 858.16,403.50 861.44,404.85 864.71,405.19 867.98,403.85 871.26,401.80 874.53,399.27 877.81,396.58 881.08,393.86 884.36,391.69 887.63,389.77 890.90,388.07 894.18,386.46 897.45,384.74 900.73,384.34 904.00,385.07" />
<text x="754.00" y="290.00" font-size="13" font-family="Arial" fill="#1f77b4" text-anchor="start">MACD</text>
<text x="818.00" y="290.00" font-size="13" font-family="Arial" fill="#ff7f0e" text-anchor="start">Signal</text>
<line x1="56" y1="624" x2="904" y2="624" stroke="#cbd2d9" />
<line x1="56" y1="484" x2="56" y2="624" stroke="#cbd2d9" />
<text x="16.00" y="476.00" font-size="12" font-family="Arial" fill="#52606d" text-anchor="start">KD</text>
<line x1="56" y1="624.00" x2="904" y2="624.00" stroke="#edf2f7" />
<line x1="52" y1="624.00" x2="56" y2="624.00" stroke="#9fb3c8" />
<text x="48.00" y="628.00" font-size="11" font-family="Arial" fill="#52606d" text-anchor="end">-5.00</text>
<line x1="56" y1="577.33" x2="904" y2="577.33" stroke="#edf2f7" />
<line x1="52" y1="577.33" x2="56" y2="577.33" stroke="#9fb3c8" />
<text x="48.00" y="581.33" font-size="11" font-family="Arial" fill="#52606d" text-anchor="end">31.7</text>
<line x1="56" y1="530.67" x2="904" y2="530.67" stroke="#edf2f7" />
<line x1="52" y1="530.67" x2="56" y2="530.67" stroke="#9fb3c8" />
<text x="48.00" y="534.67" font-size="11" font-family="Arial" fill="#52606d" text-anchor="end">68.3</text>
<line x1="56" y1="484.00" x2="904" y2="484.00" stroke="#edf2f7" />
<line x1="52" y1="484.00" x2="56" y2="484.00" stroke="#9fb3c8" />
<text x="48.00" y="488.00" font-size="11" font-family="Arial" fill="#52606d" text-anchor="end">105</text>
<line x1="56.00" y1="624" x2="56.00" y2="628" stroke="#9fb3c8" />
<text x="56.00" y="642.00" font-size="11" font-family="Arial" fill="#52606d" text-anchor="middle">07/08</text>
<line x1="226.25" y1="624" x2="226.25" y2="628" stroke="#9fb3c8" />
<text x="226.25" y="642.00" font-size="11" font-family="Arial" fill="#52606d" text-anchor="middle">09/19</text>
<line x1="396.51" y1="624" x2="396.51" y2="628" stroke="#9fb3c8" />
<text x="396.51" y="642.00" font-size="11" font-family="Arial" fill="#52606d" text-anchor="middle">12/03</text>
<line x1="563.49" y1="624" x2="563.49" y2="628" stroke="#9fb3c8" />
<text x="563.49" y="642.00" font-size="11" font-family="Arial" fill="#52606d" text-anchor="middle">02/18</text>
<line x1="733.75" y1="624" x2="733.75" y2="628" stroke="#9fb3c8" />
<text x="733.75" y="642.00" font-size="11" font-family="Arial" fill="#52606d" text-anchor="middle">05/04</text>
<line x1="904.00" y1="624" x2="904.00" y2="628" stroke="#9fb3c8" />
<text x="904.00" y="642.00" font-size="11" font-family="Arial" fill="#52606d" text-anchor="middle">07/20</text>
<line x1="56" y1="592.18" x2="904" y2="592.18" stroke="#f0b429" stroke-dasharray="5 5" />
<text x="912.00" y="596.18" font-size="10" font-family="Arial" fill="#8d2b0b" text-anchor="start">20.0</text>
<line x1="56" y1="515.82" x2="904" y2="515.82" stroke="#f0b429" stroke-dasharray="5 5" />
<text x="912.00" y="519.82" font-size="10" font-family="Arial" fill="#8d2b0b" text-anchor="start">80.0</text>
<polyline fill="none" stroke="#2ca02c" stroke-width="2" points="82.19,571.43 85.47,570.49 88.74,585.14 92.02,594.67 95.29,595.64 98.56,596.39 101.84,599.06 105.11,603.00 108.39,596.98 111.66,602.98 114.93,604.80 118.21,591.95 121.48,597.99 124.76,577.55 128.03,562.41 131.31,539.90 134.58,525.97 137.85,517.36 141.13,523.36 144.40,518.14 147.68,512.20 150.95,507.51 154.22,520.72 157.50,532.96 160.77,551.43 164.05,564.88 167.32,564.09 170.59,557.74 173.87,555.38 177.14,548.03 180.42,557.63 183.69,553.52 186.97,541.49 190.24,524.45 193.51,524.80 196.79,524.56 200.06,515.10 203.34,516.61 206.61,539.87 209.88,562.77 213.16,567.93 216.43,572.16 219.71,562.34 222.98,565.13 226.25,558.32 229.53,553.59 232.80,551.01 236.08,551.74 239.35,549.23 242.63,552.93 245.90,557.24 249.17,561.24 252.45,575.15 255.72,576.67 259.00,581.59 262.27,579.86 265.54,565.70 268.82,545.39 272.09,529.68 275.37,526.68 278.64,525.08 281.92,525.39 285.19,531.58 288.46,544.33 291.74,554.81 295.01,538.77 298.29,526.87 301.56,555.92 304.83,572.54 308.11,587.50 311.38,595.63 314.66,598.97 317.93,601.74 321.20,606.59 324.48,601.97 327.75,594.36 331.03,589.47 334.30,581.55 337.58,577.27 340.85,569.83 344.12,553.56 347.40,534.28 350.67,522.83 353.95,517.93 357.22,533.64 360.49,548.31 363.77,542.63 367.04,560.38 370.32,578.42 373.59,589.85 376.86,587.57 380.14,594.17 383.41,591.97 386.69,585.37 389.96,575.47 393.24,563.99 396.51,572.85 399.78,580.05 403.06,583.73 406.33,590.65 409.61,595.50 412.88,602.00 416.15,602.97 419.43,600.92 422.70,602.35 425.98,599.87 429.25,597.47 432.53,594.91 435.80,585.11 439.07,588.45 442.35,582.84 445.62,578.10 448.90,569.08 452.17,565.33 455.44,565.44 458.72,559.83 461.99,577.48 465.27,584.24 468.54,587.99 471.81,589.84 475.09,591.63 478.36,593.03 481.64,593.51 484.91,587.39 488.19,593.35 491.46,599.42 494.73,603.48 498.01,606.31 501.28,595.01 504.56,595.47 507.83,584.44 511.10,578.93 514.38,575.79 517.65,575.31 520.93,582.87 524.20,586.16 527.47,589.62 530.75,597.11 534.02,598.83 537.30,596.08 540.57,585.86 543.85,583.33 547.12,573.83 550.39,585.69 553.67,593.68 556.94,594.29 560.22,594.11 563.49,589.53 566.76,590.94 570.04,584.36 573.31,591.01 576.59,582.68 579.86,554.10 583.14,539.91 586.41,524.39 589.68,514.85 592.96,508.06 596.23,504.03 599.51,501.19 602.78,499.57 606.05,500.29 609.33,504.91 612.60,523.46 615.88,551.90 619.15,564.14 622.42,573.05 625.70,584.62 628.97,588.25 632.25,593.06 635.52,595.10 638.80,587.00 642.07,595.49 645.34,590.93 648.62,580.08 651.89,572.03 655.17,568.52 658.44,543.31 661.71,536.41 664.99,521.33 668.26,524.45 671.54,527.14 674.81,526.87 678.08,517.29 681.36,508.59 684.63,504.55 687.91,500.82 691.18,497.80 694.46,499.60 697.73,532.18 701.00,557.11 704.28,576.75 707.55,588.15 710.83,596.09 714.10,601.69 717.37,606.84 720.65,605.40 723.92,599.26 727.20,585.29 730.47,577.58 733.75,581.87 737.02,591.89 740.29,592.23 743.57,592.56 746.84,596.83 750.12,602.22 753.39,596.04 756.66,592.37 759.94,590.00 763.21,586.03 766.49,555.67 769.76,548.20 773.03,551.46 776.31,545.59 779.58,548.73 782.86,560.28 786.13,570.99 789.41,581.00 792.68,590.11 795.95,595.64 799.23,602.73 802.50,605.78 805.78,607.53 809.05,604.42 812.32,599.55 815.60,602.79 818.87,600.81 822.15,599.41 825.42,598.77 828.69,582.12 831.97,586.81 835.24,595.74 838.52,595.36 841.79,598.64 845.07,601.05 848.34,605.73 851.61,609.55 854.89,600.94 858.16,595.31 861.44,599.74 864.71,586.56 867.98,558.92 871.26,549.61 874.53,542.51 877.81,541.08 881.08,541.11 884.36,553.10 887.63,558.48 890.90,569.59 894.18,575.96 897.45,574.99 900.73,576.69 904.00,581.09" />
<polyline fill="none" stroke="#d62728" stroke-width="2" points="82.19,559.81 85.47,563.37 88.74,570.63 92.02,578.64 95.29,584.31 98.56,588.33 101.84,591.91 105.11,595.61 108.39,596.07 111.66,598.37 114.93,600.51 118.21,597.66 121.48,597.77 124.76,591.03 128.03,581.49 131.31,567.63 134.58,553.74 137.85,541.61 141.13,535.53 144.40,529.73 147.68,523.89 150.95,518.43 154.22,519.19 157.50,523.78 160.77,533.00 164.05,543.62 167.32,550.45 170.59,552.88 173.87,553.71 177.14,551.82 180.42,553.76 183.69,553.68 186.97,549.61 190.24,541.22 193.51,535.75 196.79,532.02 200.06,526.38 203.34,523.13 206.61,528.71 209.88,540.06 213.16,549.35 216.43,556.95 219.71,558.75 222.98,560.88 226.25,560.02 229.53,557.88 232.80,555.59 236.08,554.31 239.35,552.62 242.63,552.72 245.90,554.23 249.17,556.56 252.45,562.76 255.72,567.40 259.00,572.13 262.27,574.71 265.54,571.70 268.82,562.93 272.09,551.85 275.37,543.46 278.64,537.33 281.92,533.35 285.19,532.76 288.46,536.62 291.74,542.68 295.01,541.38 298.29,536.54 301.56,543.00 304.83,552.85 308.11,564.40 311.38,574.81 314.66,582.86 317.93,589.16 321.20,594.97 324.48,597.30 327.75,596.32 331.03,594.04 334.30,589.88 337.58,585.68 340.85,580.39 344.12,571.45 347.40,559.06 350.67,546.99 353.95,537.30 357.22,536.08 360.49,540.16 363.77,540.98 367.04,547.45 370.32,557.77 373.59,568.46 376.86,574.83 380.14,581.28 383.41,584.84 386.69,585.02 389.96,581.83 393.24,575.89 396.51,574.87 399.78,576.60 403.06,578.98 406.33,582.87 409.61,587.08 412.88,592.05 416.15,595.69 419.43,597.44 422.70,599.07 425.98,599.34 429.25,598.72 432.53,597.45 435.80,593.33 439.07,591.71 442.35,588.75 445.62,585.20 448.90,579.83 452.17,574.99 455.44,571.81 458.72,567.81 461.99,571.04 465.27,575.44 468.54,579.62 471.81,583.03 475.09,585.89 478.36,588.27 481.64,590.02 484.91,589.14 488.19,590.54 491.46,593.50 494.73,596.83 498.01,599.99 501.28,598.33 504.56,597.38 507.83,593.06 511.10,588.35 514.38,584.16 517.65,581.21 520.93,581.77 524.20,583.23 527.47,585.36 530.75,589.28 534.02,592.46 537.30,593.67 540.57,591.06 543.85,588.48 547.12,583.60 550.39,584.30 553.67,587.43 556.94,589.71 560.22,591.18 563.49,590.63 566.76,590.73 570.04,588.61 573.31,589.41 576.59,587.17 579.86,576.15 583.14,564.07 586.41,550.84 589.68,538.84 592.96,528.58 596.23,520.40 599.51,514.00 602.78,509.19 606.05,506.22 609.33,505.79 612.60,511.68 615.88,525.08 619.15,538.10 622.42,549.75 625.70,561.37 628.97,570.33 632.25,577.91 635.52,583.64 638.80,584.76 642.07,588.34 645.34,589.20 648.62,586.16 651.89,581.45 655.17,577.14 658.44,565.86 661.71,556.05 664.99,544.47 668.26,537.80 671.54,534.25 674.81,531.79 678.08,526.96 681.36,520.83 684.63,515.41 687.91,510.54 691.18,506.30 694.46,504.06 697.73,513.43 701.00,527.99 704.28,544.24 707.55,558.88 710.83,571.29 714.10,581.42 717.37,589.89 720.65,595.06 723.92,596.46 727.20,592.74 730.47,587.69 733.75,585.75 737.02,587.79 740.29,589.27 743.57,590.37 746.84,592.52 750.12,595.75 753.39,595.85 756.66,594.69 759.94,593.13 763.21,590.76 766.49,579.06 769.76,568.77 773.03,563.00 776.31,557.20 779.58,554.38 782.86,556.34 786.13,561.23 789.41,567.82 792.68,575.25 795.95,582.04 799.23,588.94 802.50,594.55 805.78,598.88 809.05,600.73 812.32,600.33 815.60,601.15 818.87,601.04 822.15,600.50 825.42,599.92 828.69,593.99 831.97,591.59 835.24,592.98 838.52,593.77 841.79,595.39 845.07,597.28 848.34,600.10 851.61,603.25 854.89,602.48 858.16,600.09 861.44,599.97 864.71,595.50 867.98,583.31 871.26,572.07 874.53,562.22 877.81,555.17 881.08,550.48 884.36,551.36 887.63,553.73 890.90,559.02 894.18,564.67 897.45,568.11 900.73,570.97 904.00,574.34" />
<text x="824.00" y="502.00" font-size="13" font-family="Arial" fill="#2ca02c" text-anchor="start">K</text>
<text x="860.00" y="502.00" font-size="13" font-family="Arial" fill="#d62728" text-anchor="start">D</text>
</svg>