<svg xmlns="http://www.w3.org/2000/svg" width="960" height="680" viewBox="0 0 960 680"><rect width="100%" height="100%" fill="white" />
<text x="56.00" y="32.00" font-size="20" font-family="Arial" fill="#1f2933" text-anchor="start">NFLX Technical Indicators</text>
<line x1="56" y1="220" x2="904" y2="220" stroke="#cbd2d9" />
<line x1="56" y1="58" x2="56" y2="220" stroke="#cbd2d9" />
<text x="16.00" y="50.00" font-size="12" font-family="Arial" fill="#52606d" text-anchor="start">RSI14</text>
<line x1="56" y1="220.00" x2="904" y2="220.00" stroke="#edf2f7" />
<line x1="52" y1="220.00" x2="56" y2="220.00" stroke="#9fb3c8" />
<text x="48.00" y="224.00" font-size="11" font-family="Arial" fill="#52606d" text-anchor="end">-5.00</text>
<line x1="56" y1="166.00" x2="904" y2="166.00" stroke="#edf2f7" />
<line x1="52" y1="166.00" x2="56" y2="166.00" stroke="#9fb3c8" />
<text x="48.00" y="170.00" font-size="11" font-family="Arial" fill="#52606d" text-anchor="end">31.7</text>
<line x1="56" y1="112.00" x2="904" y2="112.00" stroke="#edf2f7" />
<line x1="52" y1="112.00" x2="56" y2="112.00" stroke="#9fb3c8" />
<text x="48.00" y="116.00" font-size="11" font-family="Arial" fill="#52606d" text-anchor="end">68.3</text>
<line x1="56" y1="58.00" x2="904" y2="58.00" stroke="#edf2f7" />
<line x1="52" y1="58.00" x2="56" y2="58.00" stroke="#9fb3c8" />
<text x="48.00" y="62.00" font-size="11" font-family="Arial" fill="#52606d" text-anchor="end">105</text>
<line x1="56" y1="168.45" x2="904" y2="168.45" stroke="#f0b429" stroke-dasharray="5 5" />
<text x="912.00" y="172.45" font-size="10" font-family="Arial" fill="#8d2b0b" text-anchor="start">30.0</text>
<line x1="56" y1="109.55" x2="904" y2="109.55" stroke="#f0b429" stroke-dasharray="5 5" />
<text x="912.00" y="113.55" font-size="10" font-family="Arial" fill="#8d2b0b" text-anchor="start">70.0</text>
<polyline fill="none" stroke="#1f77b4" stroke-width="2" points="101.84,168.49 105.11,169.50 108.39,170.52 111.66,163.86 114.93,168.67 118.21,168.82 121.48,163.25 124.76,168.07 128.03,155.52 131.31,154.79 134.58,143.56 137.85,141.36 141.13,139.04 144.40,145.64 147.68,136.97 150.95,134.39 154.22,132.49 157.50,142.93 160.77,143.02 164.05,145.52 167.32,146.05 170.59,140.59 173.87,137.45 177.14,138.52 180.42,135.22 183.69,144.84 186.97,142.24 190.24,137.04 193.51,125.66 196.79,131.70 200.06,131.36 203.34,124.90 206.61,132.04 209.88,148.13 213.16,152.53 216.43,147.02 219.71,147.58 222.98,137.04 226.25,144.05 229.53,137.39 232.80,137.25 236.08,140.53 239.35,145.65 242.63,143.87 245.90,142.86 249.17,144.54 252.45,147.56 255.72,157.42 259.00,159.99 262.27,162.73 265.54,157.14 268.82,143.67 272.09,134.54 275.37,128.76 278.64,133.42 281.92,133.87 285.19,135.52 288.46,140.84 291.74,148.60 295.01,141.50 298.29,127.35 301.56,126.48 304.83,161.28 308.11,161.77 311.38,165.11 314.66,165.13 317.93,162.04 321.20,162.48 324.48,164.92 327.75,152.92 331.03,157.43 334.30,159.08 337.58,156.81 340.85,157.18 344.12,154.19 347.40,147.09 350.67,140.62 353.95,133.19 357.22,134.48 360.49,148.84 363.77,151.50 367.04,138.09 370.32,149.49 373.59,158.86 376.86,161.43 380.14,152.64 383.41,157.86 386.69,152.35 389.96,147.96 393.24,143.40 396.51,142.74 399.78,155.39 403.06,156.88 406.33,162.54 409.61,168.17 412.88,168.29 416.15,174.10 419.43,169.06 422.70,165.08 425.98,167.49 429.25,164.45 432.53,163.58 435.80,165.19 439.07,163.48 442.35,166.03 445.62,164.74 448.90,164.03 452.17,159.74 455.44,160.68 458.72,161.80 461.99,161.87 465.27,169.87 468.54,166.95 471.81,169.20 475.09,168.66 478.36,169.27 481.64,172.48 484.91,172.63 488.19,165.36 491.46,171.24 494.73,172.75 498.01,172.90 501.28,175.24 504.56,180.46 507.83,184.51 511.10,165.30 514.38,166.60 517.65,166.99 520.93,170.00 524.20,174.30 527.47,171.73 530.75,173.91 534.02,180.93 537.30,179.20 540.57,173.55 543.85,163.71 547.12,166.21 550.39,160.89 553.67,169.47 556.94,178.36 560.22,172.01 563.49,171.18 566.76,164.87 570.04,167.75 573.31,157.64 576.59,165.58 579.86,154.96 583.14,136.28 586.41,130.36 589.68,107.19 592.96,106.05 596.23,105.21 599.51,103.87 602.78,103.14 606.05,103.79 609.33,106.96 612.60,113.11 615.88,121.60 619.15,123.90 622.42,121.27 625.70,121.76 628.97,125.54 632.25,124.47 635.52,137.10 638.80,136.81 642.07,131.07 645.34,140.85 648.62,135.82 651.89,132.16 655.17,131.77 658.44,133.86 661.71,122.80 664.99,125.66 668.26,116.58 671.54,115.87 674.81,116.45 678.08,114.79 681.36,107.82 684.63,105.61 687.91,105.26 691.18,98.77 694.46,96.29 697.73,96.15 701.00,141.12 704.28,147.52 707.55,152.76 710.83,150.59 714.10,151.63 717.37,152.61 720.65,155.39 723.92,151.76 727.20,152.20 730.47,146.01 733.75,150.94 737.02,154.07 740.29,162.34 743.57,160.58 746.84,160.63 750.12,162.73 753.39,167.94 756.66,156.80 759.94,157.10 763.21,158.98 766.49,158.54 769.76,145.27 773.03,146.50 776.31,151.20 779.58,145.24 782.86,148.03 786.13,151.62 789.41,152.90 792.68,156.69 795.95,157.97 799.23,158.64 802.50,167.44 805.78,172.50 809.05,172.22 812.32,167.68 815.60,164.32 818.87,168.49 822.15,164.09 825.42,166.70 828.69,169.86 831.97,159.85 835.24,169.68 838.52,174.27 841.79,171.36 845.07,181.09 848.34,181.19 851.61,182.96 854.89,184.58 858.16,166.19 861.44,166.27 864.71,172.18 867.98,157.38 871.26,143.01 874.53,148.12 877.81,147.48 881.08,149.42 884.36,149.83 887.63,156.64 890.90,154.36 894.18,155.37 897.45,154.54 900.73,150.76 904.00,167.39" />
<text x="808.00" y="76.00" font-size="13" font-family="Arial" fill="#1f77b4" text-anchor="start">RSI14</text>
<line x1="56" y1="432" x2="904" y2="432" stroke="#cbd2d9" />
<line x1="56" y1="272" x2="56" y2="432" stroke="#cbd2d9" />
<text x="16.00" y="264.00" font-size="12" font-family="Arial" fill="#52606d" text-anchor="start">MACD</text>
<line x1="56" y1="432.00" x2="904" y2="432.00" stroke="#edf2f7" />
<line x1="52" y1="432.00" x2="56" y2="432.00" stroke="#9fb3c8" />
<text x="48.00" y="436.00" font-size="11" font-family="Arial" fill="#52606d" text-anchor="end">-5.29</text>
<line x1="56" y1="378.67" x2="904" y2="378.67" stroke="#edf2f7" />
<line x1="52" y1="378.67" x2="56" y2="378.67" stroke="#9fb3c8" />
<text x="48.00" y="382.67" font-size="11" font-family="Arial" fill="#52606d" text-anchor="end">-2.02</text>
<line x1="56" y1="325.33" x2="904" y2="325.33" stroke="#edf2f7" />
<line x1="52" y1="325.33" x2="56" y2="325.33" stroke="#9fb3c8" />
<text x="48.00" y="329.33" font-size="11" font-family="Arial" fill="#52606d" text-anchor="end">1.25</text>
<line x1="56" y1="272.00" x2="904" y2="272.00" stroke="#edf2f7" />
<line x1="52" y1="272.00" x2="56" y2="272.00" stroke="#9fb3c8" />
<text x="48.00" y="276.00" font-size="11" font-family="Arial" fill="#52606d" text-anchor="end">4.51</text>
<line x1="56" y1="345.67" x2="904" y2="345.67" stroke="#9fb3c8" stroke-dasharray="4 4" />
<rect x="136.71" y="345.67" width="2.28" height="0.00" fill="#2f9e44" opacity="0.55" />
<rect x="139.99" y="340.29" width="2.28" height="5.39" fill="#2f9e44" opacity="0.55" />
<rect x="143.26" y="339.11" width="2.28" height="6.57" fill="#2f9e44" opacity="0.55" />
<rect x="146.53" y="335.74" width="2.28" height="9.93" fill="#2f9e44" opacity="0.55" />
<rect x="149.81" y="333.06" width="2.28" height="12.61" fill="#2f9e44" opacity="0.55" />
<rect x="153.08" y="331.21" width="2.28" height="14.47" fill="#2f9e44" opacity="0.55" />
<rect x="156.36" y="333.87" width="2.28" height="11.80" fill="#2f9e44" opacity="0.55" />
<rect x="159.63" y="336.05" width="2.28" height="9.62" fill="#2f9e44" opacity="0.55" />
<rect x="162.90" y="338.61" width="2.28" height="7.06" fill="#2f9e44" opacity="0.55" />
<rect x="166.18" y="340.65" width="2.28" height="5.02" fill="#2f9e44" opacity="0.55" />
<rect x="169.45" y="340.71" width="2.28" height="4.96" fill="#2f9e44" opacity="0.55" />
<rect x="172.73" y="340.10" width="2.28" height="5.57" fill="#2f9e44" opacity="0.55" />
<rect x="176.00" y="340.22" width="2.28" height="5.45" fill="#2f9e44" opacity="0.55" />
<rect x="179.28" y="339.71" width="2.28" height="5.96" fill="#2f9e44" opacity="0.55" />
<rect x="182.55" y="342.08" width="2.28" height="3.59" fill="#2f9e44" opacity="0.55" />
<rect x="185.82" y="343.12" width="2.28" height="2.55" fill="#2f9e44" opacity="0.55" />
<rect x="189.10" y="342.63" width="2.28" height="3.04" fill="#2f9e44" opacity="0.55" />
<rect x="192.37" y="339.21" width="2.28" height="6.46" fill="#2f9e44" opacity="0.55" />
<rect x="195.65" y="338.83" width="2.28" height="6.85" fill="#2f9e44" opacity="0.55" />
<rect x="198.92" y="338.86" width="2.28" height="6.81" fill="#2f9e44" opacity="0.55" />
<rect x="202.19" y="337.35" width="2.28" height="8.32" fill="#2f9e44" opacity="0.55" />
<rect x="205.47" y="338.51" width="2.28" height="7.16" fill="#2f9e44" opacity="0.55" />
<rect x="208.74" y="344.29" width="2.28" height="1.38" fill="#2f9e44" opacity="0.55" />
<rect x="212.02" y="345.67" width="2.28" height="3.96" fill="#d64545" opacity="0.55" />
<rect x="215.29" y="345.67" width="2.28" height="5.72" fill="#d64545" opacity="0.55" />
<rect x="218.57" y="345.67" width="2.28" height="6.75" fill="#d64545" opacity="0.55" />
<rect x="221.84" y="345.67" width="2.28" height="4.16" fill="#d64545" opacity="0.55" />
<rect x="225.11" y="345.67" width="2.28" height="4.51" fill="#d64545" opacity="0.55" />
<rect x="228.39" y="345.67" width="2.28" height="2.50" fill="#d64545" opacity="0.55" />
<rect x="231.66" y="345.67" width="2.28" height="1.08" fill="#d64545" opacity="0.55" />
<rect x="234.94" y="345.67" width="2.28" height="1.06" fill="#d64545" opacity="0.55" />
<rect x="238.21" y="345.67" width="2.28" height="2.52" fill="#d64545" opacity="0.55" />
<rect x="241.48" y="345.67" width="2.28" height="2.85" fill="#d64545" opacity="0.55" />
<rect x="244.76" y="345.67" width="2.28" height="2.65" fill="#d64545" opacity="0.55" />
<rect x="248.03" y="345.67" width="2.28" height="2.81" fill="#d64545" opacity="0.55" />
<rect x="251.31" y="345.67" width="2.28" height="3.52" fill="#d64545" opacity="0.55" />
<rect x="254.58" y="345.67" width="2.28" height="6.68" fill="#d64545" opacity="0.55" />
<rect x="257.85" y="345.67" width="2.28" height="9.13" fill="#d64545" opacity="0.55" />
<rect x="261.13" y="345.67" width="2.28" height="11.09" fill="#d64545" opacity="0.55" />
<rect x="264.40" y="345.67" width="2.28" height="10.60" fill="#d64545" opacity="0.55" />
<rect x="267.68" y="345.67" width="2.28" height="6.73" fill="#d64545" opacity="0.55" />
<rect x="270.95" y="345.67" width="2.28" height="1.41" fill="#d64545" opacity="0.55" />
<rect x="274.23" y="341.78" width="2.28" height="3.89" fill="#2f9e44" opacity="0.55" />
<rect x="277.50" y="339.69" width="2.28" height="5.98" fill="#2f9e44" opacity="0.55" />
<rect x="280.77" y="338.69" width="2.28" height="6.98" fill="#2f9e44" opacity="0.55" />
<rect x="284.05" y="338.72" width="2.28" height="6.95" fill="#2f9e44" opacity="0.55" />
<rect x="287.32" y="340.28" width="2.28" height="5.39" fill="#2f9e44" opacity="0.55" />
<rect x="290.60" y="343.53" width="2.28" height="2.15" fill="#2f9e44" opacity="0.55" />
<rect x="293.87" y="343.97" width="2.28" height="1.70" fill="#2f9e44" opacity="0.55" />
<rect x="297.14" y="340.19" width="2.28" height="5.48" fill="#2f9e44" opacity="0.55" />
<rect x="300.42" y="337.78" width="2.28" height="7.89" fill="#2f9e44" opacity="0.55" />
<rect x="303.69" y="345.67" width="2.28" height="4.01" fill="#d64545" opacity="0.55" />
<rect x="306.97" y="345.67" width="2.28" height="11.51" fill="#d64545" opacity="0.55" />
<rect x="310.24" y="345.67" width="2.28" height="17.51" fill="#d64545" opacity="0.55" />
<rect x="313.51" y="345.67" width="2.28" height="20.27" fill="#d64545" opacity="0.55" />
<rect x="316.79" y="345.67" width="2.28" height="19.96" fill="#d64545" opacity="0.55" />
<rect x="320.06" y="345.67" width="2.28" height="18.75" fill="#d64545" opacity="0.55" />
<rect x="323.34" y="345.67" width="2.28" height="17.95" fill="#d64545" opacity="0.55" />
<rect x="326.61" y="345.67" width="2.28" height="13.12" fill="#d64545" opacity="0.55" />
<rect x="329.89" y="345.67" width="2.28" height="11.06" fill="#d64545" opacity="0.55" />
<rect x="333.16" y="345.67" width="2.28" height="9.60" fill="#d64545" opacity="0.55" />
<rect x="336.43" y="345.67" width="2.28" height="7.25" fill="#d64545" opacity="0.55" />
<rect x="339.71" y="345.67" width="2.28" height="5.17" fill="#d64545" opacity="0.55" />
<rect x="342.98" y="345.67" width="2.28" height="2.53" fill="#d64545" opacity="0.55" />
<rect x="346.26" y="344.31" width="2.28" height="1.36" fill="#2f9e44" opacity="0.55" />
<rect x="349.53" y="339.85" width="2.28" height="5.82" fill="#2f9e44" opacity="0.55" />
<rect x="352.80" y="334.79" width="2.28" height="10.88" fill="#2f9e44" opacity="0.55" />
<rect x="356.08" y="332.19" width="2.28" height="13.48" fill="#2f9e44" opacity="0.55" />
<rect x="359.35" y="335.33" width="2.28" height="10.34" fill="#2f9e44" opacity="0.55" />
<rect x="362.63" y="338.51" width="2.28" height="7.16" fill="#2f9e44" opacity="0.55" />
<rect x="365.90" y="336.65" width="2.28" height="9.03" fill="#2f9e44" opacity="0.55" />
<rect x="369.18" y="339.96" width="2.28" height="5.72" fill="#2f9e44" opacity="0.55" />
<rect x="372.45" y="345.67" width="2.28" height="0.93" fill="#d64545" opacity="0.55" />
<rect x="375.72" y="345.67" width="2.28" height="6.22" fill="#d64545" opacity="0.55" />
<rect x="379.00" y="345.67" width="2.28" height="6.17" fill="#d64545" opacity="0.55" />
<rect x="382.27" y="345.67" width="2.28" height="8.23" fill="#d64545" opacity="0.55" />
<rect x="385.55" y="345.67" width="2.28" height="6.98" fill="#d64545" opacity="0.55" />
<rect x="388.82" y="345.67" width="2.28" height="4.02" fill="#d64545" opacity="0.55" />
<rect x="392.09" y="345.67" width="2.28" height="0.02" fill="#d64545" opacity="0.55" />
<rect x="395.37" y="342.64" width="2.28" height="3.03" fill="#2f9e44" opacity="0.55" />
<rect x="398.64" y="345.67" width="2.28" height="0.52" fill="#d64545" opacity="0.55" />
<rect x="401.92" y="345.67" width="2.28" height="3.18" fill="#d64545" opacity="0.55" />
<rect x="405.19" y="345.67" width="2.28" height="7.47" fill="#d64545" opacity="0.55" />
<rect x="408.46" y="345.67" width="2.28" height="13.02" fill="#d64545" opacity="0.55" />
<rect x="411.74" y="345.67" width="2.28" height="15.54" fill="#d64545" opacity="0.55" />
<rect x="415.01" y="345.67" width="2.28" height="20.07" fill="#d64545" opacity="0.55" />
<rect x="418.29" y="345.67" width="2.28" height="19.97" fill="#d64545" opacity="0.55" />
<rect x="421.56" y="345.67" width="2.28" height="17.23" fill="#d64545" opacity="0.55" />
<rect x="424.84" y="345.67" width="2.28" height="15.55" fill="#d64545" opacity="0.55" />
<rect x="428.11" y="345.67" width="2.28" height="12.28" fill="#d64545" opacity="0.55" />
<rect x="431.38" y="345.67" width="2.28" height="8.77" fill="#d64545" opacity="0.55" />
<rect x="434.66" y="345.67" width="2.28" height="6.31" fill="#d64545" opacity="0.55" />
<rect x="437.93" y="345.67" width="2.28" height="3.41" fill="#d64545" opacity="0.55" />
<rect x="441.21" y="345.67" width="2.28" height="1.98" fill="#d64545" opacity="0.55" />
<rect x="444.48" y="345.67" width="2.28" height="0.06" fill="#d64545" opacity="0.55" />
<rect x="447.75" y="343.73" width="2.28" height="1.94" fill="#2f9e44" opacity="0.55" />
<rect x="451.03" y="341.08" width="2.28" height="4.59" fill="#2f9e44" opacity="0.55" />
<rect x="454.30" y="339.37" width="2.28" height="6.31" fill="#2f9e44" opacity="0.55" />
<rect x="457.58" y="338.40" width="2.28" height="7.28" fill="#2f9e44" opacity="0.55" />
<rect x="460.85" y="337.59" width="2.28" height="8.08" fill="#2f9e44" opacity="0.55" />
<rect x="464.12" y="339.82" width="2.28" height="5.85" fill="#2f9e44" opacity="0.55" />
<rect x="467.40" y="340.47" width="2.28" height="5.20" fill="#2f9e44" opacity="0.55" />
<rect x="470.67" y="341.44" width="2.28" height="4.23" fill="#2f9e44" opacity="0.55" />
<rect x="473.95" y="341.65" width="2.28" height="4.02" fill="#2f9e44" opacity="0.55" />
<rect x="477.22" y="341.66" width="2.28" height="4.01" fill="#2f9e44" opacity="0.55" />
<rect x="480.50" y="342.47" width="2.28" height="3.20" fill="#2f9e44" opacity="0.55" />
<rect x="483.77" y="342.68" width="2.28" height="2.99" fill="#2f9e44" opacity="0.55" />
<rect x="487.04" y="341.51" width="2.28" height="4.16" fill="#2f9e44" opacity="0.55" />
<rect x="490.32" y="342.34" width="2.28" height="3.33" fill="#2f9e44" opacity="0.55" />
<rect x="493.59" y="343.06" width="2.28" height="2.61" fill="#2f9e44" opacity="0.55" />
<rect x="496.87" y="343.22" width="2.28" height="2.46" fill="#2f9e44" opacity="0.55" />
<rect x="500.14" y="343.73" width="2.28" height="1.94" fill="#2f9e44" opacity="0.55" />
<rect x="503.41" y="345.66" width="2.28" height="0.01" fill="#2f9e44" opacity="0.55" />
<rect x="506.69" y="345.67" width="2.28" height="2.62" fill="#d64545" opacity="0.55" />
<rect x="509.96" y="345.67" width="2.28" height="0.95" fill="#d64545" opacity="0.55" />
<rect x="513.24" y="345.48" width="2.28" height="0.19" fill="#2f9e44" opacity="0.55" />
<rect x="516.51" y="344.42" width="2.28" height="1.25" fill="#2f9e44" opacity="0.55" />
<rect x="519.79" y="344.32" width="2.28" height="1.35" fill="#2f9e44" opacity="0.55" />
<rect x="523.06" y="345.39" width="2.28" height="0.29" fill="#2f9e44" opacity="0.55" />
<rect x="526.33" y="345.25" width="2.28" height="0.42" fill="#2f9e44" opacity="0.55" />
<rect x="529.61" y="345.47" width="2.28" height="0.20" fill="#2f9e44" opacity="0.55" />
<rect x="532.88" y="345.67" width="2.28" height="2.41" fill="#d64545" opacity="0.55" />
<rect x="536.16" y="345.67" width="2.28" height="3.21" fill="#d64545" opacity="0.55" />
<rect x="539.43" y="345.67" width="2.28" height="2.31" fill="#d64545" opacity="0.55" />
<rect x="542.70" y="345.41" width="2.28" height="0.26" fill="#2f9e44" opacity="0.55" />
<rect x="545.98" y="344.09" width="2.28" height="1.58" fill="#2f9e44" opacity="0.55" />
<rect x="549.25" y="342.08" width="2.28" height="3.60" fill="#2f9e44" opacity="0.55" />
<rect x="552.53" y="343.22" width="2.28" height="2.45" fill="#2f9e44" opacity="0.55" />
<rect x="555.80" y="345.67" width="2.28" height="1.84" fill="#d64545" opacity="0.55" />
<rect x="559.07" y="345.67" width="2.28" height="2.89" fill="#d64545" opacity="0.55" />
<rect x="562.35" y="345.67" width="2.28" height="2.78" fill="#d64545" opacity="0.55" />
<rect x="565.62" y="345.67" width="2.28" height="1.04" fill="#d64545" opacity="0.55" />
<rect x="568.90" y="345.67" width="2.28" height="0.43" fill="#d64545" opacity="0.55" />
<rect x="572.17" y="343.46" width="2.28" height="2.22" fill="#2f9e44" opacity="0.55" />
<rect x="575.45" y="344.18" width="2.28" height="1.49" fill="#2f9e44" opacity="0.55" />
<rect x="578.72" y="342.12" width="2.28" height="3.55" fill="#2f9e44" opacity="0.55" />
<rect x="581.99" y="335.68" width="2.28" height="9.99" fill="#2f9e44" opacity="0.55" />
<rect x="585.27" y="329.74" width="2.28" height="15.93" fill="#2f9e44" opacity="0.55" />
<rect x="588.54" y="314.28" width="2.28" height="31.39" fill="#2f9e44" opacity="0.55" />
<rect x="591.82" y="305.00" width="2.28" height="40.67" fill="#2f9e44" opacity="0.55" />
<rect x="595.09" y="300.43" width="2.28" height="45.25" fill="#2f9e44" opacity="0.55" />
<rect x="598.36" y="298.77" width="2.28" height="46.90" fill="#2f9e44" opacity="0.55" />
<rect x="601.64" y="299.62" width="2.28" height="46.05" fill="#2f9e44" opacity="0.55" />
<rect x="604.91" y="302.77" width="2.28" height="42.90" fill="#2f9e44" opacity="0.55" />
<rect x="608.19" y="307.89" width="2.28" height="37.79" fill="#2f9e44" opacity="0.55" />
<rect x="611.46" y="314.75" width="2.28" height="30.92" fill="#2f9e44" opacity="0.55" />
<rect x="614.73" y="323.12" width="2.28" height="22.55" fill="#2f9e44" opacity="0.55" />
<rect x="618.01" y="330.52" width="2.28" height="15.15" fill="#2f9e44" opacity="0.55" />
<rect x="621.28" y="335.30" width="2.28" height="10.37" fill="#2f9e44" opacity="0.55" />
<rect x="624.56" y="339.38" width="2.28" height="6.29" fill="#2f9e44" opacity="0.55" />
<rect x="627.83" y="343.58" width="2.28" height="2.09" fill="#2f9e44" opacity="0.55" />
<rect x="631.11" y="345.67" width="2.28" height="0.74" fill="#d64545" opacity="0.55" />
<rect x="634.38" y="345.67" width="2.28" height="5.99" fill="#d64545" opacity="0.55" />
<rect x="637.65" y="345.67" width="2.28" height="9.31" fill="#d64545" opacity="0.55" />
<rect x="640.93" y="345.67" width="2.28" height="9.69" fill="#d64545" opacity="0.55" />
<rect x="644.20" y="345.67" width="2.28" height="12.36" fill="#d64545" opacity="0.55" />
<rect x="647.48" y="345.67" width="2.28" height="12.32" fill="#d64545" opacity="0.55" />
<rect x="650.75" y="345.67" width="2.28" height="10.89" fill="#d64545" opacity="0.55" />
<rect x="654.02" y="345.67" width="2.28" height="9.61" fill="#d64545" opacity="0.55" />
<rect x="657.30" y="345.67" width="2.28" height="9.06" fill="#d64545" opacity="0.55" />
<rect x="660.57" y="345.67" width="2.28" height="5.19" fill="#d64545" opacity="0.55" />
<rect x="663.85" y="345.67" width="2.28" height="3.36" fill="#d64545" opacity="0.55" />
<rect x="667.12" y="344.70" width="2.28" height="0.97" fill="#2f9e44" opacity="0.55" />
<rect x="670.40" y="342.00" width="2.28" height="3.67" fill="#2f9e44" opacity="0.55" />
<rect x="673.67" y="340.87" width="2.28" height="4.81" fill="#2f9e44" opacity="0.55" />
<rect x="676.94" y="340.07" width="2.28" height="5.60" fill="#2f9e44" opacity="0.55" />
<rect x="680.22" y="337.37" width="2.28" height="8.31" fill="#2f9e44" opacity="0.55" />
<rect x="683.49" y="335.40" width="2.28" height="10.27" fill="#2f9e44" opacity="0.55" />
<rect x="686.77" y="334.86" width="2.28" height="10.81" fill="#2f9e44" opacity="0.55" />
<rect x="690.04" y="332.18" width="2.28" height="13.49" fill="#2f9e44" opacity="0.55" />
<rect x="693.31" y="330.08" width="2.28" height="15.59" fill="#2f9e44" opacity="0.55" />
<rect x="696.59" y="329.91" width="2.28" height="15.76" fill="#2f9e44" opacity="0.55" />
<rect x="699.86" y="342.00" width="2.28" height="3.68" fill="#2f9e44" opacity="0.55" />
<rect x="703.14" y="345.67" width="2.28" height="7.13" fill="#d64545" opacity="0.55" />
<rect x="706.41" y="345.67" width="2.28" height="16.30" fill="#d64545" opacity="0.55" />
<rect x="709.68" y="345.67" width="2.28" height="20.91" fill="#d64545" opacity="0.55" />
<rect x="712.96" y="345.67" width="2.28" height="23.49" fill="#d64545" opacity="0.55" />
<rect x="716.23" y="345.67" width="2.28" height="24.56" fill="#d64545" opacity="0.55" />
<rect x="719.51" y="345.67" width="2.28" height="25.31" fill="#d64545" opacity="0.55" />
<rect x="722.78" y="345.67" width="2.28" height="23.69" fill="#d64545" opacity="0.55" />
<rect x="726.06" y="345.67" width="2.28" height="21.72" fill="#d64545" opacity="0.55" />
<rect x="729.33" y="345.67" width="2.28" height="17.87" fill="#d64545" opacity="0.55" />
<rect x="732.60" y="345.67" width="2.28" height="16.17" fill="#d64545" opacity="0.55" />
<rect x="735.88" y="345.67" width="2.28" height="15.35" fill="#d64545" opacity="0.55" />
<rect x="739.15" y="345.67" width="2.28" height="17.25" fill="#d64545" opacity="0.55" />
<rect x="742.43" y="345.67" width="2.28" height="17.08" fill="#d64545" opacity="0.55" />
<rect x="745.70" y="345.67" width="2.28" height="15.98" fill="#d64545" opacity="0.55" />
<rect x="748.97" y="345.67" width="2.28" height="15.10" fill="#d64545" opacity="0.55" />
<rect x="752.25" y="345.67" width="2.28" height="15.69" fill="#d64545" opacity="0.55" />
<rect x="755.52" y="345.67" width="2.28" height="12.72" fill="#d64545" opacity="0.55" />
<rect x="758.80" y="345.67" width="2.28" height="10.05" fill="#d64545" opacity="0.55" />
<rect x="762.07" y="345.67" width="2.28" height="8.23" fill="#d64545" opacity="0.55" />
<rect x="765.34" y="345.67" width="2.28" height="6.28" fill="#d64545" opacity="0.55" />
<rect x="768.62" y="345.67" width="2.28" height="1.68" fill="#d64545" opacity="0.55" />
<rect x="771.89" y="344.41" width="2.28" height="1.26" fill="#2f9e44" opacity="0.55" />
<rect x="775.17" y="343.62" width="2.28" height="2.05" fill="#2f9e44" opacity="0.55" />
<rect x="778.44" y="341.67" width="2.28" height="4.00" fill="#2f9e44" opacity="0.55" />
<rect x="781.72" y="341.10" width="2.28" height="4.57" fill="#2f9e44" opacity="0.55" />
<rect x="784.99" y="341.66" width="2.28" height="4.01" fill="#2f9e44" opacity="0.55" />
<rect x="788.26" y="342.29" width="2.28" height="3.38" fill="#2f9e44" opacity="0.55" />
<rect x="791.54" y="343.63" width="2.28" height="2.04" fill="#2f9e44" opacity="0.55" />
<rect x="794.81" y="344.68" width="2.28" height="1.00" fill="#2f9e44" opacity="0.55" />
<rect x="798.09" y="345.30" width="2.28" height="0.37" fill="#2f9e44" opacity="0.55" />
<rect x="801.36" y="345.67" width="2.28" height="2.41" fill="#d64545" opacity="0.55" />
<rect x="804.63" y="345.67" width="2.28" height="5.66" fill="#d64545" opacity="0.55" />
<rect x="807.91" y="345.67" width="2.28" height="7.08" fill="#d64545" opacity="0.55" />
<rect x="811.18" y="345.67" width="2.28" height="6.66" fill="#d64545" opacity="0.55" />
<rect x="814.46" y="345.67" width="2.28" height="5.26" fill="#d64545" opacity="0.55" />
<rect x="817.73" y="345.67" width="2.28" height="5.08" fill="#d64545" opacity="0.55" />
<rect x="821.01" y="345.67" width="2.28" height="3.75" fill="#d64545" opacity="0.55" />
<rect x="824.28" y="345.67" width="2.28" height="3.15" fill="#d64545" opacity="0.55" />
<rect x="827.55" y="345.67" width="2.28" height="3.23" fill="#d64545" opacity="0.55" />
<rect x="830.83" y="345.67" width="2.28" height="1.37" fill="#d64545" opacity="0.55" />
<rect x="834.10" y="345.67" width="2.28" height="2.85" fill="#d64545" opacity="0.55" />
<rect x="837.38" y="345.67" width="2.28" height="5.11" fill="#d64545" opacity="0.55" />
<rect x="840.65" y="345.67" width="2.28" height="5.44" fill="#d64545" opacity="0.55" />
<rect x="843.92" y="345.67" width="2.28" height="9.67" fill="#d64545" opacity="0.55" />
<rect x="847.20" y="345.67" width="2.28" height="11.47" fill="#d64545" opacity="0.55" />
<rect x="850.47" y="345.67" width="2.28" height="12.58" fill="#d64545" opacity="0.55" />
<rect x="853.75" y="345.67" width="2.28" height="13.13" fill="#d64545" opacity="0.55" />
<rect x="857.02" y="345.67" width="2.28" height="9.27" fill="#d64545" opacity="0.55" />
<rect x="860.29" y="345.67" width="2.28" height="5.88" fill="#d64545" opacity="0.55" />
<rect x="863.57" y="345.67" width="2.28" height="5.40" fill="#d64545" opacity="0.55" />
<rect x="866.84" y="345.67" width="2.28" height="1.36" fill="#d64545" opacity="0.55" />
<rect x="870.12" y="340.29" width="2.28" height="5.38" fill="#2f9e44" opacity="0.55" />
<rect x="873.39" y="337.51" width="2.28" height="8.16" fill="#2f9e44" opacity="0.55" />
<rect x="876.67" y="335.52" width="2.28" height="10.15" fill="#2f9e44" opacity="0.55" />
<rect x="879.94" y="334.93" width="2.28" height="10.74" fill="#2f9e44" opacity="0.55" />
<rect x="883.21" y="334.78" width="2.28" height="10.89" fill="#2f9e44" opacity="0.55" />
<rect x="886.49" y="337.01" width="2.28" height="8.66" fill="#2f9e44" opacity="0.55" />
<rect x="889.76" y="337.96" width="2.28" height="7.71" fill="#2f9e44" opacity="0.55" />
<rect x="893.04" y="338.88" width="2.28" height="6.80" fill="#2f9e44" opacity="0.55" />
<rect x="896.31" y="339.26" width="2.28" height="6.41" fill="#2f9e44" opacity="0.55" />
<rect x="899.58" y="338.77" width="2.28" height="6.90" fill="#2f9e44" opacity="0.55" />
<rect x="902.86" y="344.09" width="2.28" height="1.58" fill="#2f9e44" opacity="0.55" />
<polyline fill="none" stroke="#1f77b4" stroke-width="2" points="137.85,375.45 141.13,368.72 144.40,365.90 147.68,360.05 150.95,354.21 154.22,348.74 157.50,348.46 160.77,348.23 164.05,349.03 167.32,349.82 170.59,348.64 173.87,346.64 177.14,345.39 180.42,343.39 183.69,344.87 186.97,345.27 190.24,344.02 193.51,338.98 196.79,336.88 200.06,335.22 203.34,331.63 206.61,331.00 209.88,336.43 213.16,342.76 216.43,345.95 219.71,348.67 222.98,347.12 226.25,348.59 229.53,347.21 232.80,346.06 236.08,346.31 239.35,348.39 242.63,349.43 245.90,349.90 249.17,350.76 252.45,352.36 255.72,357.18 259.00,361.92 262.27,366.65 265.54,368.81 268.82,366.62 272.09,361.65 275.37,355.38 278.64,351.79 281.92,349.05 285.19,347.34 288.46,347.55 291.74,350.26 295.01,350.28 298.29,345.13 301.56,340.74 304.83,353.64 308.11,364.02 311.38,374.41 314.66,382.24 317.93,386.92 321.20,390.39 324.48,394.08 327.75,392.53 331.03,393.23 334.30,394.17 337.58,393.63 340.85,392.85 344.12,390.84 347.40,386.61 350.67,380.69 353.95,372.92 357.22,366.94 360.49,367.49 363.77,368.89 367.04,364.77 370.32,366.65 373.59,373.52 376.86,380.36 380.14,381.86 383.41,385.97 386.69,386.47 389.96,384.51 393.24,380.52 396.51,376.71 399.78,380.39 403.06,383.85 406.33,390.00 409.61,398.81 412.88,405.21 416.15,414.76 419.43,419.66 422.70,421.22 425.98,423.43 429.25,423.23 432.53,421.91 435.80,421.03 439.07,418.98 442.35,418.04 445.62,416.14 448.90,413.66 452.17,409.86 455.44,406.57 458.72,403.78 461.99,400.95 465.27,401.72 468.54,401.07 471.81,400.99 475.09,400.19 478.36,399.20 481.64,399.21 484.91,398.67 488.19,396.46 491.46,396.46 494.73,396.52 498.01,396.06 501.28,396.09 504.56,398.02 507.83,401.30 511.10,399.88 514.38,398.69 517.65,397.31 520.93,396.87 524.20,397.87 527.47,397.63 530.75,397.79 534.02,401.01 537.30,402.61 540.57,402.29 543.85,399.66 547.12,397.93 550.39,395.02 553.67,395.55 556.94,400.30 560.22,402.08 563.49,402.67 566.76,401.18 570.04,400.68 573.31,397.48 576.59,397.84 579.86,394.89 583.14,385.95 586.41,376.02 589.68,352.72 592.96,333.27 596.23,317.39 599.51,304.01 602.78,293.34 606.05,285.77 609.33,281.44 612.60,280.57 615.88,283.31 619.15,286.91 622.42,289.11 625.70,291.62 628.97,295.29 632.25,298.30 635.52,305.06 638.80,310.71 642.07,313.50 645.34,319.26 648.62,322.30 651.89,323.60 655.17,324.72 658.44,326.44 661.71,323.86 664.99,322.87 668.26,318.30 671.54,314.68 674.81,312.34 678.08,310.15 681.36,305.37 684.63,300.83 687.91,297.59 691.18,291.54 694.46,285.55 697.73,281.43 701.00,292.60 704.28,305.18 707.55,318.43 710.83,328.27 714.10,336.72 717.37,343.93 720.65,351.00 723.92,355.31 727.20,358.77 730.47,359.38 733.75,361.73 737.02,364.74 740.29,370.96 743.57,375.06 746.84,377.95 750.12,380.84 753.39,385.36 756.66,385.58 759.94,385.42 763.21,385.65 766.49,385.27 769.76,381.09 773.03,377.84 776.31,376.53 779.58,373.58 782.86,371.87 786.13,371.42 789.41,371.21 792.68,372.04 795.95,372.84 799.23,373.37 802.50,376.76 805.78,381.42 809.05,384.61 812.32,385.85 815.60,385.77 818.87,386.86 822.15,386.47 825.42,386.65 828.69,387.53 831.97,386.02 835.24,388.22 838.52,391.75 841.79,393.44 845.07,400.08 848.34,404.75 851.61,409.01 854.89,412.85 858.16,411.30 861.44,409.37 864.71,410.24 867.98,406.55 871.26,398.46 874.53,393.64 877.81,389.11 881.08,385.83 884.36,382.97 887.63,383.03 890.90,382.06 894.18,381.27 897.45,380.05 900.73,377.83 904.00,382.76" />
<polyline fill="none" stroke="#ff7f0e" stroke-width="2" points="137.85,375.45 141.13,374.10 144.40,372.46 147.68,369.98 150.95,366.83 154.22,363.21 157.50,360.26 160.77,357.85 164.05,356.09 167.32,354.83 170.59,353.60 173.87,352.20 177.14,350.84 180.42,349.35 183.69,348.45 186.97,347.82 190.24,347.06 193.51,345.44 196.79,343.73 200.06,342.03 203.34,339.95 206.61,338.16 209.88,337.81 213.16,338.80 216.43,340.23 219.71,341.92 222.98,342.96 226.25,344.09 229.53,344.71 232.80,344.98 236.08,345.25 239.35,345.88 242.63,346.59 245.90,347.25 249.17,347.95 252.45,348.83 255.72,350.50 259.00,352.79 262.27,355.56 265.54,358.21 268.82,359.89 272.09,360.24 275.37,359.27 278.64,357.78 281.92,356.03 285.19,354.29 288.46,352.94 291.74,352.41 295.01,351.98 298.29,350.61 301.56,348.64 304.83,349.64 308.11,352.52 311.38,356.89 314.66,361.96 317.93,366.95 321.20,371.64 324.48,376.13 327.75,379.41 331.03,382.17 334.30,384.57 337.58,386.38 340.85,387.68 344.12,388.31 347.40,387.97 350.67,386.51 353.95,383.79 357.22,380.42 360.49,377.84 363.77,376.05 367.04,373.79 370.32,372.36 373.59,372.59 376.86,374.15 380.14,375.69 383.41,377.75 386.69,379.49 389.96,380.50 393.24,380.50 396.51,379.74 399.78,379.87 403.06,380.67 406.33,382.53 409.61,385.79 412.88,389.67 416.15,394.69 419.43,399.68 422.70,403.99 425.98,407.88 429.25,410.95 432.53,413.14 435.80,414.72 439.07,415.57 442.35,416.07 445.62,416.08 448.90,415.60 452.17,414.45 455.44,412.87 458.72,411.05 461.99,409.03 465.27,407.57 468.54,406.27 471.81,405.21 475.09,404.21 478.36,403.21 481.64,402.41 484.91,401.66 488.19,400.62 491.46,399.79 494.73,399.13 498.01,398.52 501.28,398.04 504.56,398.03 507.83,398.69 511.10,398.92 514.38,398.88 517.65,398.56 520.93,398.23 524.20,398.15 527.47,398.05 530.75,398.00 534.02,398.60 537.30,399.40 540.57,399.98 543.85,399.91 547.12,399.52 550.39,398.62 553.67,398.01 556.94,398.47 560.22,399.19 563.49,399.88 566.76,400.14 570.04,400.25 573.31,399.70 576.59,399.33 579.86,398.44 583.14,395.94 586.41,391.96 589.68,384.11 592.96,373.94 596.23,362.63 599.51,350.91 602.78,339.39 606.05,328.67 609.33,319.22 612.60,311.49 615.88,305.86 619.15,302.07 622.42,299.48 625.70,297.90 628.97,297.38 632.25,297.56 635.52,299.06 638.80,301.39 642.07,303.81 645.34,306.90 648.62,309.98 651.89,312.71 655.17,315.11 658.44,317.37 661.71,318.67 664.99,319.51 668.26,319.27 671.54,318.35 674.81,317.15 678.08,315.75 681.36,313.67 684.63,311.10 687.91,308.40 691.18,305.03 694.46,301.13 697.73,297.19 701.00,296.27 704.28,298.05 707.55,302.13 710.83,307.36 714.10,313.23 717.37,319.37 720.65,325.70 723.92,331.62 727.20,337.05 730.47,341.52 733.75,345.56 737.02,349.40 740.29,353.71 743.57,357.98 746.84,361.97 750.12,365.75 753.39,369.67 756.66,372.85 759.94,375.36 763.21,377.42 766.49,378.99 769.76,379.41 773.03,379.10 776.31,378.58 779.58,377.58 782.86,376.44 786.13,375.44 789.41,374.59 792.68,374.08 795.95,373.83 799.23,373.74 802.50,374.34 805.78,375.76 809.05,377.53 812.32,379.19 815.60,380.51 818.87,381.78 822.15,382.72 825.42,383.50 828.69,384.31 831.97,384.65 835.24,385.36 838.52,386.64 841.79,388.00 845.07,390.42 848.34,393.28 851.61,396.43 854.89,399.71 858.16,402.03 861.44,403.50 864.71,404.85 867.98,405.19 871.26,403.84 874.53,401.80 877.81,399.26 881.08,396.58 884.36,393.86 887.63,391.69 890.90,389.76 894.18,388.06 897.45,386.46 900.73,384.74 904.00,384.34" />
<text x="754.00" y="290.00" font-size="13" font-family="Arial" fill="#1f77b4" text-anchor="start">MACD</text>
<text x="818.00" y="290.00" font-size="13" font-family="Arial" fill="#ff7f0e" text-anchor="start">Signal</text>
<line x1="56" y1="624" x2="904" y2="624" stroke="#cbd2d9" />
<line x1="56" y1="484" x2="56" y2="624" stroke="#cbd2d9" />
<text x="16.00" y="476.00" font-size="12" font-family="Arial" fill="#52606d" text-anchor="start">KD</text>
<line x1="56" y1="624.00" x2="904" y2="624.00" stroke="#edf2f7" />
<line x1="52" y1="624.00" x2="56" y2="624.00" stroke="#9fb3c8" />
<text x="48.00" y="628.00" font-size="11" font-family="Arial" fill="#52606d" text-anchor="end">-5.00</text>
<line x1="56" y1="577.33" x2="904" y2="577.33" stroke="#edf2f7" />
<line x1="52" y1="577.33" x2="56" y2="577.33" stroke="#9fb3c8" />
<text x="48.00" y="581.33" font-size="11" font-family="Arial" fill="#52606d" text-anchor="end">31.7</text>
<line x1="56" y1="530.67" x2="904" y2="530.67" stroke="#edf2f7" />
<line x1="52" y1="530.67" x2="56" y2="530.67" stroke="#9fb3c8" />
<text x="48.00" y="534.67" font-size="11" font-family="Arial" fill="#52606d" text-anchor="end">68.3</text>
<line x1="56" y1="484.00" x2="904" y2="484.00" stroke="#edf2f7" />
<line x1="52" y1="484.00" x2="56" y2="484.00" stroke="#9fb3c8" />
<text x="48.00" y="488.00" font-size="11" font-family="Arial" fill="#52606d" text-anchor="end">105</text>
<line x1="56.00" y1="624" x2="56.00" y2="628" stroke="#9fb3c8" />
<text x="56.00" y="642.00" font-size="11" font-family="Arial" fill="#52606d" text-anchor="middle">07/07</text>
<line x1="226.25" y1="624" x2="226.25" y2="628" stroke="#9fb3c8" />
<text x="226.25" y="642.00" font-size="11" font-family="Arial" fill="#52606d" text-anchor="middle">09/18</text>
<line x1="396.51" y1="624" x2="396.51" y2="628" stroke="#9fb3c8" />
<text x="396.51" y="642.00" font-size="11" font-family="Arial" fill="#52606d" text-anchor="middle">12/02</text>
<line x1="563.49" y1="624" x2="563.49" y2="628" stroke="#9fb3c8" />
<text x="563.49" y="642.00" font-size="11" font-family="Arial" fill="#52606d" text-anchor="middle">02/17</text>
<line x1="733.75" y1="624" x2="733.75" y2="628" stroke="#9fb3c8" />
<text x="733.75" y="642.00" font-size="11" font-family="Arial" fill="#52606d" text-anchor="middle">05/01</text>
<line x1="904.00" y1="624" x2="904.00" y2="628" stroke="#9fb3c8" />
<text x="904.00" y="642.00" font-size="11" font-family="Arial" fill="#52606d" text-anchor="middle">07/17</text>
<line x1="56" y1="592.18" x2="904" y2="592.18" stroke="#f0b429" stroke-dasharray="5 5" />
<text x="912.00" y="596.18" font-size="10" font-family="Arial" fill="#8d2b0b" text-anchor="start">20.0</text>
<line x1="56" y1="515.82" x2="904" y2="515.82" stroke="#f0b429" stroke-dasharray="5 5" />
<text x="912.00" y="519.82" font-size="10" font-family="Arial" fill="#8d2b0b" text-anchor="start">80.0</text>
<polyline fill="none" stroke="#2ca02c" stroke-width="2" points="82.19,546.66 85.47,566.53 88.74,567.23 92.02,582.96 95.29,593.22 98.56,594.67 101.84,595.74 105.11,598.63 108.39,602.72 111.66,596.79 114.93,602.85 118.21,604.71 121.48,591.90 124.76,597.95 128.03,577.52 131.31,562.39 134.58,539.89 137.85,525.96 141.13,517.36 144.40,523.36 147.68,518.14 150.95,512.20 154.22,507.51 157.50,520.72 160.77,532.96 164.05,551.43 167.32,564.88 170.59,564.09 173.87,557.74 177.14,555.38 180.42,548.03 183.69,557.63 186.97,553.52 190.24,541.49 193.51,524.45 196.79,524.80 200.06,524.56 203.34,515.10 206.61,516.61 209.88,539.87 213.16,562.77 216.43,567.93 219.71,572.16 222.98,562.34 226.25,565.13 229.53,558.32 232.80,553.59 236.08,551.01 239.35,551.74 242.63,549.23 245.90,552.93 249.17,557.24 252.45,561.24 255.72,575.15 259.00,576.67 262.27,581.59 265.54,579.86 268.82,565.70 272.09,545.39 275.37,529.68 278.64,526.68 281.92,525.08 285.19,525.39 288.46,531.58 291.74,544.33 295.01,554.81 298.29,538.77 301.56,526.87 304.83,555.92 308.11,572.54 311.38,587.50 314.66,595.63 317.93,598.97 321.20,601.74 324.48,606.59 327.75,601.97 331.03,594.36 334.30,589.47 337.58,581.55 340.85,577.27 344.12,569.83 347.40,553.56 350.67,534.28 353.95,522.83 357.22,517.93 360.49,533.64 363.77,548.31 367.04,542.63 370.32,560.38 373.59,578.42 376.86,589.85 380.14,587.57 383.41,594.17 386.69,591.97 389.96,585.37 393.24,575.47 396.51,563.99 399.78,572.85 403.06,580.05 406.33,583.73 409.61,590.65 412.88,595.50 416.15,602.00 419.43,602.97 422.70,600.92 425.98,602.35 429.25,599.87 432.53,597.47 435.80,594.91 439.07,585.11 442.35,588.45 445.62,582.84 448.90,578.10 452.17,569.08 455.44,565.33 458.72,565.44 461.99,559.83 465.27,577.48 468.54,584.24 471.81,587.99 475.09,589.84 478.36,591.63 481.64,593.03 484.91,593.51 488.19,587.39 491.46,593.35 494.73,599.42 498.01,603.48 501.28,606.31 504.56,595.01 507.83,595.47 511.10,584.44 514.38,578.93 517.65,575.79 520.93,575.31 524.20,582.87 527.47,586.16 530.75,589.62 534.02,597.11 537.30,598.83 540.57,596.08 543.85,585.86 547.12,583.33 550.39,573.83 553.67,585.69 556.94,593.68 560.22,594.29 563.49,594.11 566.76,589.53 570.04,590.94 573.31,584.36 576.59,591.01 579.86,582.68 583.14,554.10 586.41,539.91 589.68,524.39 592.96,514.85 596.23,508.06 599.51,504.03 602.78,501.19 606.05,499.57 609.33,500.29 612.60,504.91 615.88,523.46 619.15,551.90 622.42,564.14 625.70,573.05 628.97,584.62 632.25,588.25 635.52,593.06 638.80,595.10 642.07,587.00 645.34,595.49 648.62,590.93 651.89,580.08 655.17,572.03 658.44,568.52 661.71,543.31 664.99,536.41 668.26,521.33 671.54,524.45 674.81,527.14 678.08,526.87 681.36,517.29 684.63,508.59 687.91,504.55 691.18,500.82 694.46,497.80 697.73,499.60 701.00,532.18 704.28,557.11 707.55,576.75 710.83,588.15 714.10,596.09 717.37,601.69 720.65,606.84 723.92,605.40 727.20,599.26 730.47,585.29 733.75,577.58 737.02,581.87 740.29,591.89 743.57,592.23 746.84,592.56 750.12,596.83 753.39,602.22 756.66,596.04 759.94,592.37 763.21,590.00 766.49,586.03 769.76,555.67 773.03,548.20 776.31,551.46 779.58,545.59 782.86,548.73 786.13,560.28 789.41,570.99 792.68,581.00 795.95,590.11 799.23,595.64 802.50,602.73 805.78,605.78 809.05,607.53 812.32,604.42 815.60,599.55 818.87,602.79 822.15,600.81 825.42,599.41 828.69,598.77 831.97,582.12 835.24,586.81 838.52,595.74 841.79,595.36 845.07,598.64 848.34,601.05 851.61,605.73 854.89,609.55 858.16,600.94 861.44,595.31 864.71,599.74 867.98,586.56 871.26,558.92 874.53,549.61 877.81,542.51 881.08,541.08 884.36,541.11 887.63,553.10 890.90,558.48 894.18,569.59 897.45,575.96 900.73,574.99 904.00,576.69" />
<polyline fill="none" stroke="#d62728" stroke-width="2" points="82.19,551.55 85.47,556.55 88.74,560.11 92.02,567.73 95.29,576.23 98.56,582.37 101.84,586.83 105.11,590.76 108.39,594.75 111.66,595.43 114.93,597.90 118.21,600.17 121.48,597.41 124.76,597.59 128.03,590.90 131.31,581.40 134.58,567.56 137.85,553.70 141.13,541.58 144.40,535.51 147.68,529.72 150.95,523.88 154.22,518.42 157.50,519.19 160.77,523.78 164.05,533.00 167.32,543.62 170.59,550.45 173.87,552.88 177.14,553.71 180.42,551.82 183.69,553.76 186.97,553.68 190.24,549.61 193.51,541.22 196.79,535.75 200.06,532.02 203.34,526.38 206.61,523.13 209.88,528.71 213.16,540.06 216.43,549.35 219.71,556.95 222.98,558.75 226.25,560.88 229.53,560.02 232.80,557.88 236.08,555.59 239.35,554.31 242.63,552.62 245.90,552.72 249.17,554.23 252.45,556.56 255.72,562.76 259.00,567.40 262.27,572.13 265.54,574.71 268.82,571.70 272.09,562.93 275.37,551.85 278.64,543.46 281.92,537.33 285.19,533.35 288.46,532.76 291.74,536.62 295.01,542.68 298.29,541.38 301.56,536.54 304.83,543.00 308.11,552.85 311.38,564.40 314.66,574.81 317.93,582.86 321.20,589.16 324.48,594.97 327.75,597.30 331.03,596.32 334.30,594.04 337.58,589.88 340.85,585.68 344.12,580.39 347.40,571.45 350.67,559.06 353.95,546.99 357.22,537.30 360.49,536.08 363.77,540.16 367.04,540.98 370.32,547.45 373.59,557.77 376.86,568.46 380.14,574.83 383.41,581.28 386.69,584.84 389.96,585.02 393.24,581.83 396.51,575.89 399.78,574.87 403.06,576.60 406.33,578.98 409.61,582.87 412.88,587.08 416.15,592.05 419.43,595.69 422.70,597.44 425.98,599.07 429.25,599.34 432.53,598.72 435.80,597.45 439.07,593.33 442.35,591.71 445.62,588.75 448.90,585.20 452.17,579.83 455.44,574.99 458.72,571.81 461.99,567.81 465.27,571.04 468.54,575.44 471.81,579.62 475.09,583.03 478.36,585.89 481.64,588.27 484.91,590.02 488.19,589.14 491.46,590.54 494.73,593.50 498.01,596.83 501.28,599.99 504.56,598.33 507.83,597.38 511.10,593.06 514.38,588.35 517.65,584.16 520.93,581.21 524.20,581.77 527.47,583.23 530.75,585.36 534.02,589.28 537.30,592.46 540.57,593.67 543.85,591.06 547.12,588.48 550.39,583.60 553.67,584.30 556.94,587.43 560.22,589.71 563.49,591.18 566.76,590.63 570.04,590.73 573.31,588.61 576.59,589.41 579.86,587.17 583.14,576.15 586.41,564.07 589.68,550.84 592.96,538.84 596.23,528.58 599.51,520.40 602.78,514.00 606.05,509.19 609.33,506.22 612.60,505.79 615.88,511.68 619.15,525.08 622.42,538.10 625.70,549.75 628.97,561.37 632.25,570.33 635.52,577.91 638.80,583.64 642.07,584.76 645.34,588.34 648.62,589.20 651.89,586.16 655.17,581.45 658.44,577.14 661.71,565.86 664.99,556.05 668.26,544.47 671.54,537.80 674.81,534.25 678.08,531.79 681.36,526.96 684.63,520.83 687.91,515.41 691.18,510.54 694.46,506.30 697.73,504.06 701.00,513.43 704.28,527.99 707.55,544.24 710.83,558.88 714.10,571.29 717.37,581.42 720.65,589.89 723.92,595.06 727.20,596.46 730.47,592.74 733.75,587.69 737.02,585.75 740.29,587.79 743.57,589.27 746.84,590.37 750.12,592.52 753.39,595.75 756.66,595.85 759.94,594.69 763.21,593.13 766.49,590.76 769.76,579.06 773.03,568.77 776.31,563.00 779.58,557.20 782.86,554.38 786.13,556.34 789.41,561.23 792.68,567.82 795.95,575.25 799.23,582.04 802.50,588.94 805.78,594.55 809.05,598.88 812.32,600.73 815.60,600.33 818.87,601.15 822.15,601.04 825.42,600.50 828.69,599.92 831.97,593.99 835.24,591.59 838.52,592.98 841.79,593.77 845.07,595.39 848.34,597.28 851.61,600.10 854.89,603.25 858.16,602.48 861.44,600.09 864.71,599.97 867.98,595.50 871.26,583.31 874.53,572.07 877.81,562.22 881.08,555.17 884.36,550.48 887.63,551.36 890.90,553.73 894.18,559.02 897.45,564.67 900.73,568.11 904.00,570.97" />
<text x="824.00" y="502.00" font-size="13" font-family="Arial" fill="#2ca02c" text-anchor="start">K</text>
<text x="860.00" y="502.00" font-size="13" font-family="Arial" fill="#d62728" text-anchor="start">D</text>
</svg>