<svg xmlns="http://www.w3.org/2000/svg" width="960" height="680" viewBox="0 0 960 680"><rect width="100%" height="100%" fill="white" />
<text x="56.00" y="32.00" font-size="20" font-family="Arial" fill="#1f2933" text-anchor="start">NFLX Technical Indicators</text>
<line x1="56" y1="220" x2="904" y2="220" stroke="#cbd2d9" />
<line x1="56" y1="58" x2="56" y2="220" stroke="#cbd2d9" />
<text x="16.00" y="50.00" font-size="12" font-family="Arial" fill="#52606d" text-anchor="start">RSI14</text>
<line x1="56" y1="220.00" x2="904" y2="220.00" stroke="#edf2f7" />
<line x1="52" y1="220.00" x2="56" y2="220.00" stroke="#9fb3c8" />
<text x="48.00" y="224.00" font-size="11" font-family="Arial" fill="#52606d" text-anchor="end">-5.00</text>
<line x1="56" y1="166.00" x2="904" y2="166.00" stroke="#edf2f7" />
<line x1="52" y1="166.00" x2="56" y2="166.00" stroke="#9fb3c8" />
<text x="48.00" y="170.00" font-size="11" font-family="Arial" fill="#52606d" text-anchor="end">31.7</text>
<line x1="56" y1="112.00" x2="904" y2="112.00" stroke="#edf2f7" />
<line x1="52" y1="112.00" x2="56" y2="112.00" stroke="#9fb3c8" />
<text x="48.00" y="116.00" font-size="11" font-family="Arial" fill="#52606d" text-anchor="end">68.3</text>
<line x1="56" y1="58.00" x2="904" y2="58.00" stroke="#edf2f7" />
<line x1="52" y1="58.00" x2="56" y2="58.00" stroke="#9fb3c8" />
<text x="48.00" y="62.00" font-size="11" font-family="Arial" fill="#52606d" text-anchor="end">105</text>
<line x1="56" y1="168.45" x2="904" y2="168.45" stroke="#f0b429" stroke-dasharray="5 5" />
<text x="912.00" y="172.45" font-size="10" font-family="Arial" fill="#8d2b0b" text-anchor="start">30.0</text>
<line x1="56" y1="109.55" x2="904" y2="109.55" stroke="#f0b429" stroke-dasharray="5 5" />
<text x="912.00" y="113.55" font-size="10" font-family="Arial" fill="#8d2b0b" text-anchor="start">70.0</text>
<polyline fill="none" stroke="#1f77b4" stroke-width="2" points="101.84,146.75 105.11,138.79 108.39,155.24 111.66,147.91 114.93,156.74 118.21,159.16 121.48,157.87 124.76,157.92 128.03,159.18 131.31,160.47 134.58,154.38 137.85,160.18 141.13,160.36 144.40,155.19 147.68,160.85 150.95,149.09 154.22,148.41 157.50,137.91 160.77,135.86 164.05,133.69 167.32,140.81 170.59,132.62 173.87,130.19 177.14,128.39 180.42,139.41 183.69,139.51 186.97,142.15 190.24,142.70 193.51,137.45 196.79,134.43 200.06,135.55 203.34,132.37 206.61,142.38 209.88,139.85 213.16,134.80 216.43,123.74 219.71,129.93 222.98,129.60 226.25,123.30 229.53,130.59 232.80,146.98 236.08,151.47 239.35,146.02 242.63,146.59 245.90,136.17 249.17,143.26 252.45,136.66 255.72,136.53 259.00,139.84 262.27,145.01 265.54,143.25 268.82,142.24 272.09,143.94 275.37,146.99 278.64,156.94 281.92,159.53 285.19,162.30 288.46,156.73 291.74,143.32 295.01,134.22 298.29,128.47 301.56,133.15 304.83,133.60 308.11,135.26 311.38,140.59 314.66,148.38 317.93,141.30 321.20,127.19 324.48,126.32 327.75,161.19 331.03,161.68 334.30,165.02 337.58,165.04 340.85,161.96 344.12,162.40 347.40,164.84 350.67,152.85 353.95,157.36 357.22,159.02 360.49,156.74 363.77,157.12 367.04,154.13 370.32,147.03 373.59,140.57 376.86,133.15 380.14,134.44 383.41,148.80 386.69,151.47 389.96,138.06 393.24,149.46 396.51,158.84 399.78,161.41 403.06,152.62 406.33,157.84 409.61,152.33 412.88,147.94 416.15,143.38 419.43,142.73 422.70,155.38 425.98,156.87 429.25,162.53 432.53,168.16 435.80,168.28 439.07,174.09 442.35,169.05 445.62,165.08 448.90,167.48 452.17,164.44 455.44,163.58 458.72,165.18 461.99,163.48 465.27,166.03 468.54,164.73 471.81,164.03 475.09,159.74 478.36,160.68 481.64,161.80 484.91,161.86 488.19,169.87 491.46,166.94 494.73,169.20 498.01,168.66 501.28,169.27 504.56,172.48 507.83,172.63 511.10,165.35 514.38,171.24 517.65,172.74 520.93,172.90 524.20,175.23 527.47,180.46 530.75,184.51 534.02,165.30 537.30,166.60 540.57,166.99 543.85,170.00 547.12,174.30 550.39,171.72 553.67,173.90 556.94,180.93 560.22,179.20 563.49,173.55 566.76,163.71 570.04,166.21 573.31,160.89 576.59,169.47 579.86,178.36 583.14,172.01 586.41,171.18 589.68,164.87 592.96,167.75 596.23,157.64 599.51,165.58 602.78,154.96 606.05,136.28 609.33,130.36 612.60,107.19 615.88,106.05 619.15,105.21 622.42,103.87 625.70,103.14 628.97,103.79 632.25,106.96 635.52,113.11 638.80,121.59 642.07,123.90 645.34,121.27 648.62,121.75 651.89,125.54 655.17,124.47 658.44,137.10 661.71,136.81 664.99,131.07 668.26,140.85 671.54,135.82 674.81,132.16 678.08,131.77 681.36,133.86 684.63,122.80 687.91,125.66 691.18,116.58 694.46,115.87 697.73,116.45 701.00,114.79 704.28,107.82 707.55,105.61 710.83,105.26 714.10,98.77 717.37,96.29 720.65,96.15 723.92,141.12 727.20,147.52 730.47,152.76 733.75,150.59 737.02,151.63 740.29,152.61 743.57,155.39 746.84,151.76 750.12,152.20 753.39,146.01 756.66,150.94 759.94,154.07 763.21,162.34 766.49,160.58 769.76,160.63 773.03,162.73 776.31,167.94 779.58,156.80 782.86,157.10 786.13,158.98 789.41,158.54 792.68,145.27 795.95,146.50 799.23,151.20 802.50,145.24 805.78,148.03 809.05,151.62 812.32,152.90 815.60,156.69 818.87,157.97 822.15,158.64 825.42,167.44 828.69,172.50 831.97,172.22 835.24,167.68 838.52,164.32 841.79,168.49 845.07,164.09 848.34,166.70 851.61,169.86 854.89,159.85 858.16,169.68 861.44,174.27 864.71,171.36 867.98,181.09 871.26,181.19 874.53,182.96 877.81,184.58 881.08,166.19 884.36,166.27 887.63,172.18 890.90,157.38 894.18,143.01 897.45,148.12 900.73,147.48 904.00,149.42" />
<text x="808.00" y="76.00" font-size="13" font-family="Arial" fill="#1f77b4" text-anchor="start">RSI14</text>
<line x1="56" y1="432" x2="904" y2="432" stroke="#cbd2d9" />
<line x1="56" y1="272" x2="56" y2="432" stroke="#cbd2d9" />
<text x="16.00" y="264.00" font-size="12" font-family="Arial" fill="#52606d" text-anchor="start">MACD</text>
<line x1="56" y1="432.00" x2="904" y2="432.00" stroke="#edf2f7" />
<line x1="52" y1="432.00" x2="56" y2="432.00" stroke="#9fb3c8" />
<text x="48.00" y="436.00" font-size="11" font-family="Arial" fill="#52606d" text-anchor="end">-5.29</text>
<line x1="56" y1="378.67" x2="904" y2="378.67" stroke="#edf2f7" />
<line x1="52" y1="378.67" x2="56" y2="378.67" stroke="#9fb3c8" />
<text x="48.00" y="382.67" font-size="11" font-family="Arial" fill="#52606d" text-anchor="end">-2.02</text>
<line x1="56" y1="325.33" x2="904" y2="325.33" stroke="#edf2f7" />
<line x1="52" y1="325.33" x2="56" y2="325.33" stroke="#9fb3c8" />
<text x="48.00" y="329.33" font-size="11" font-family="Arial" fill="#52606d" text-anchor="end">1.25</text>
<line x1="56" y1="272.00" x2="904" y2="272.00" stroke="#edf2f7" />
<line x1="52" y1="272.00" x2="56" y2="272.00" stroke="#9fb3c8" />
<text x="48.00" y="276.00" font-size="11" font-family="Arial" fill="#52606d" text-anchor="end">4.51</text>
<line x1="56" y1="345.67" x2="904" y2="345.67" stroke="#9fb3c8" stroke-dasharray="4 4" />
<rect x="136.71" y="345.67" width="2.28" height="0.00" fill="#2f9e44" opacity="0.55" />
<rect x="139.99" y="345.67" width="2.28" height="1.07" fill="#d64545" opacity="0.55" />
<rect x="143.26" y="345.62" width="2.28" height="0.06" fill="#2f9e44" opacity="0.55" />
<rect x="146.53" y="345.67" width="2.28" height="1.21" fill="#d64545" opacity="0.55" />
<rect x="149.81" y="343.98" width="2.28" height="1.69" fill="#2f9e44" opacity="0.55" />
<rect x="153.08" y="341.62" width="2.28" height="4.06" fill="#2f9e44" opacity="0.55" />
<rect x="156.36" y="336.65" width="2.28" height="9.02" fill="#2f9e44" opacity="0.55" />
<rect x="159.63" y="332.91" width="2.28" height="12.76" fill="#2f9e44" opacity="0.55" />
<rect x="162.90" y="330.13" width="2.28" height="15.54" fill="#2f9e44" opacity="0.55" />
<rect x="166.18" y="331.02" width="2.28" height="14.65" fill="#2f9e44" opacity="0.55" />
<rect x="169.45" y="329.32" width="2.28" height="16.35" fill="#2f9e44" opacity="0.55" />
<rect x="172.73" y="327.96" width="2.28" height="17.71" fill="#2f9e44" opacity="0.55" />
<rect x="176.00" y="327.16" width="2.28" height="18.51" fill="#2f9e44" opacity="0.55" />
<rect x="179.28" y="330.66" width="2.28" height="15.01" fill="#2f9e44" opacity="0.55" />
<rect x="182.55" y="333.52" width="2.28" height="12.16" fill="#2f9e44" opacity="0.55" />
<rect x="185.82" y="336.61" width="2.28" height="9.06" fill="#2f9e44" opacity="0.55" />
<rect x="189.10" y="339.08" width="2.28" height="6.60" fill="#2f9e44" opacity="0.55" />
<rect x="192.37" y="339.47" width="2.28" height="6.20" fill="#2f9e44" opacity="0.55" />
<rect x="195.65" y="339.13" width="2.28" height="6.54" fill="#2f9e44" opacity="0.55" />
<rect x="198.92" y="339.46" width="2.28" height="6.21" fill="#2f9e44" opacity="0.55" />
<rect x="202.19" y="339.12" width="2.28" height="6.55" fill="#2f9e44" opacity="0.55" />
<rect x="205.47" y="341.63" width="2.28" height="4.05" fill="#2f9e44" opacity="0.55" />
<rect x="208.74" y="342.77" width="2.28" height="2.90" fill="#2f9e44" opacity="0.55" />
<rect x="212.02" y="342.36" width="2.28" height="3.31" fill="#2f9e44" opacity="0.55" />
<rect x="215.29" y="339.00" width="2.28" height="6.67" fill="#2f9e44" opacity="0.55" />
<rect x="218.57" y="338.67" width="2.28" height="7.00" fill="#2f9e44" opacity="0.55" />
<rect x="221.84" y="338.75" width="2.28" height="6.92" fill="#2f9e44" opacity="0.55" />
<rect x="225.11" y="337.27" width="2.28" height="8.40" fill="#2f9e44" opacity="0.55" />
<rect x="228.39" y="338.46" width="2.28" height="7.21" fill="#2f9e44" opacity="0.55" />
<rect x="231.66" y="344.26" width="2.28" height="1.42" fill="#2f9e44" opacity="0.55" />
<rect x="234.94" y="345.67" width="2.28" height="3.94" fill="#d64545" opacity="0.55" />
<rect x="238.21" y="345.67" width="2.28" height="5.71" fill="#d64545" opacity="0.55" />
<rect x="241.48" y="345.67" width="2.28" height="6.75" fill="#d64545" opacity="0.55" />
<rect x="244.76" y="345.67" width="2.28" height="4.17" fill="#d64545" opacity="0.55" />
<rect x="248.03" y="345.67" width="2.28" height="4.52" fill="#d64545" opacity="0.55" />
<rect x="251.31" y="345.67" width="2.28" height="2.51" fill="#d64545" opacity="0.55" />
<rect x="254.58" y="345.67" width="2.28" height="1.09" fill="#d64545" opacity="0.55" />
<rect x="257.85" y="345.67" width="2.28" height="1.08" fill="#d64545" opacity="0.55" />
<rect x="261.13" y="345.67" width="2.28" height="2.53" fill="#d64545" opacity="0.55" />
<rect x="264.40" y="345.67" width="2.28" height="2.86" fill="#d64545" opacity="0.55" />
<rect x="267.68" y="345.67" width="2.28" height="2.67" fill="#d64545" opacity="0.55" />
<rect x="270.95" y="345.67" width="2.28" height="2.83" fill="#d64545" opacity="0.55" />
<rect x="274.23" y="345.67" width="2.28" height="3.54" fill="#d64545" opacity="0.55" />
<rect x="277.50" y="345.67" width="2.28" height="6.69" fill="#d64545" opacity="0.55" />
<rect x="280.77" y="345.67" width="2.28" height="9.15" fill="#d64545" opacity="0.55" />
<rect x="284.05" y="345.67" width="2.28" height="11.10" fill="#d64545" opacity="0.55" />
<rect x="287.32" y="345.67" width="2.28" height="10.61" fill="#d64545" opacity="0.55" />
<rect x="290.60" y="345.67" width="2.28" height="6.75" fill="#d64545" opacity="0.55" />
<rect x="293.87" y="345.67" width="2.28" height="1.42" fill="#d64545" opacity="0.55" />
<rect x="297.14" y="341.80" width="2.28" height="3.88" fill="#2f9e44" opacity="0.55" />
<rect x="300.42" y="339.70" width="2.28" height="5.97" fill="#2f9e44" opacity="0.55" />
<rect x="303.69" y="338.70" width="2.28" height="6.97" fill="#2f9e44" opacity="0.55" />
<rect x="306.97" y="338.73" width="2.28" height="6.95" fill="#2f9e44" opacity="0.55" />
<rect x="310.24" y="340.29" width="2.28" height="5.39" fill="#2f9e44" opacity="0.55" />
<rect x="313.51" y="343.53" width="2.28" height="2.14" fill="#2f9e44" opacity="0.55" />
<rect x="316.79" y="343.98" width="2.28" height="1.69" fill="#2f9e44" opacity="0.55" />
<rect x="320.06" y="340.20" width="2.28" height="5.47" fill="#2f9e44" opacity="0.55" />
<rect x="323.34" y="337.78" width="2.28" height="7.89" fill="#2f9e44" opacity="0.55" />
<rect x="326.61" y="345.67" width="2.28" height="4.01" fill="#d64545" opacity="0.55" />
<rect x="329.89" y="345.67" width="2.28" height="11.51" fill="#d64545" opacity="0.55" />
<rect x="333.16" y="345.67" width="2.28" height="17.52" fill="#d64545" opacity="0.55" />
<rect x="336.43" y="345.67" width="2.28" height="20.28" fill="#d64545" opacity="0.55" />
<rect x="339.71" y="345.67" width="2.28" height="19.97" fill="#d64545" opacity="0.55" />
<rect x="342.98" y="345.67" width="2.28" height="18.75" fill="#d64545" opacity="0.55" />
<rect x="346.26" y="345.67" width="2.28" height="17.96" fill="#d64545" opacity="0.55" />
<rect x="349.53" y="345.67" width="2.28" height="13.13" fill="#d64545" opacity="0.55" />
<rect x="352.80" y="345.67" width="2.28" height="11.06" fill="#d64545" opacity="0.55" />
<rect x="356.08" y="345.67" width="2.28" height="9.60" fill="#d64545" opacity="0.55" />
<rect x="359.35" y="345.67" width="2.28" height="7.25" fill="#d64545" opacity="0.55" />
<rect x="362.63" y="345.67" width="2.28" height="5.18" fill="#d64545" opacity="0.55" />
<rect x="365.90" y="345.67" width="2.28" height="2.53" fill="#d64545" opacity="0.55" />
<rect x="369.18" y="344.31" width="2.28" height="1.36" fill="#2f9e44" opacity="0.55" />
<rect x="372.45" y="339.85" width="2.28" height="5.82" fill="#2f9e44" opacity="0.55" />
<rect x="375.72" y="334.80" width="2.28" height="10.88" fill="#2f9e44" opacity="0.55" />
<rect x="379.00" y="332.19" width="2.28" height="13.48" fill="#2f9e44" opacity="0.55" />
<rect x="382.27" y="335.33" width="2.28" height="10.34" fill="#2f9e44" opacity="0.55" />
<rect x="385.55" y="338.51" width="2.28" height="7.16" fill="#2f9e44" opacity="0.55" />
<rect x="388.82" y="336.65" width="2.28" height="9.03" fill="#2f9e44" opacity="0.55" />
<rect x="392.09" y="339.96" width="2.28" height="5.72" fill="#2f9e44" opacity="0.55" />
<rect x="395.37" y="345.67" width="2.28" height="0.93" fill="#d64545" opacity="0.55" />
<rect x="398.64" y="345.67" width="2.28" height="6.22" fill="#d64545" opacity="0.55" />
<rect x="401.92" y="345.67" width="2.28" height="6.17" fill="#d64545" opacity="0.55" />
<rect x="405.19" y="345.67" width="2.28" height="8.23" fill="#d64545" opacity="0.55" />
<rect x="408.46" y="345.67" width="2.28" height="6.98" fill="#d64545" opacity="0.55" />
<rect x="411.74" y="345.67" width="2.28" height="4.02" fill="#d64545" opacity="0.55" />
<rect x="415.01" y="345.67" width="2.28" height="0.02" fill="#d64545" opacity="0.55" />
<rect x="418.29" y="342.64" width="2.28" height="3.03" fill="#2f9e44" opacity="0.55" />
<rect x="421.56" y="345.67" width="2.28" height="0.52" fill="#d64545" opacity="0.55" />
<rect x="424.84" y="345.67" width="2.28" height="3.18" fill="#d64545" opacity="0.55" />
<rect x="428.11" y="345.67" width="2.28" height="7.47" fill="#d64545" opacity="0.55" />
<rect x="431.38" y="345.67" width="2.28" height="13.02" fill="#d64545" opacity="0.55" />
<rect x="434.66" y="345.67" width="2.28" height="15.54" fill="#d64545" opacity="0.55" />
<rect x="437.93" y="345.67" width="2.28" height="20.07" fill="#d64545" opacity="0.55" />
<rect x="441.21" y="345.67" width="2.28" height="19.97" fill="#d64545" opacity="0.55" />
<rect x="444.48" y="345.67" width="2.28" height="17.23" fill="#d64545" opacity="0.55" />
<rect x="447.75" y="345.67" width="2.28" height="15.55" fill="#d64545" opacity="0.55" />
<rect x="451.03" y="345.67" width="2.28" height="12.28" fill="#d64545" opacity="0.55" />
<rect x="454.30" y="345.67" width="2.28" height="8.77" fill="#d64545" opacity="0.55" />
<rect x="457.58" y="345.67" width="2.28" height="6.31" fill="#d64545" opacity="0.55" />
<rect x="460.85" y="345.67" width="2.28" height="3.41" fill="#d64545" opacity="0.55" />
<rect x="464.12" y="345.67" width="2.28" height="1.98" fill="#d64545" opacity="0.55" />
<rect x="467.40" y="345.67" width="2.28" height="0.06" fill="#d64545" opacity="0.55" />
<rect x="470.67" y="343.73" width="2.28" height="1.94" fill="#2f9e44" opacity="0.55" />
<rect x="473.95" y="341.08" width="2.28" height="4.59" fill="#2f9e44" opacity="0.55" />
<rect x="477.22" y="339.37" width="2.28" height="6.31" fill="#2f9e44" opacity="0.55" />
<rect x="480.50" y="338.40" width="2.28" height="7.28" fill="#2f9e44" opacity="0.55" />
<rect x="483.77" y="337.59" width="2.28" height="8.08" fill="#2f9e44" opacity="0.55" />
<rect x="487.04" y="339.82" width="2.28" height="5.85" fill="#2f9e44" opacity="0.55" />
<rect x="490.32" y="340.47" width="2.28" height="5.20" fill="#2f9e44" opacity="0.55" />
<rect x="493.59" y="341.45" width="2.28" height="4.23" fill="#2f9e44" opacity="0.55" />
<rect x="496.87" y="341.65" width="2.28" height="4.02" fill="#2f9e44" opacity="0.55" />
<rect x="500.14" y="341.66" width="2.28" height="4.01" fill="#2f9e44" opacity="0.55" />
<rect x="503.41" y="342.47" width="2.28" height="3.20" fill="#2f9e44" opacity="0.55" />
<rect x="506.69" y="342.68" width="2.28" height="2.99" fill="#2f9e44" opacity="0.55" />
<rect x="509.96" y="341.51" width="2.28" height="4.16" fill="#2f9e44" opacity="0.55" />
<rect x="513.24" y="342.34" width="2.28" height="3.33" fill="#2f9e44" opacity="0.55" />
<rect x="516.51" y="343.06" width="2.28" height="2.61" fill="#2f9e44" opacity="0.55" />
<rect x="519.79" y="343.22" width="2.28" height="2.46" fill="#2f9e44" opacity="0.55" />
<rect x="523.06" y="343.73" width="2.28" height="1.94" fill="#2f9e44" opacity="0.55" />
<rect x="526.33" y="345.66" width="2.28" height="0.01" fill="#2f9e44" opacity="0.55" />
<rect x="529.61" y="345.67" width="2.28" height="2.62" fill="#d64545" opacity="0.55" />
<rect x="532.88" y="345.67" width="2.28" height="0.95" fill="#d64545" opacity="0.55" />
<rect x="536.16" y="345.49" width="2.28" height="0.19" fill="#2f9e44" opacity="0.55" />
<rect x="539.43" y="344.42" width="2.28" height="1.25" fill="#2f9e44" opacity="0.55" />
<rect x="542.70" y="344.32" width="2.28" height="1.35" fill="#2f9e44" opacity="0.55" />
<rect x="545.98" y="345.39" width="2.28" height="0.29" fill="#2f9e44" opacity="0.55" />
<rect x="549.25" y="345.25" width="2.28" height="0.42" fill="#2f9e44" opacity="0.55" />
<rect x="552.53" y="345.47" width="2.28" height="0.20" fill="#2f9e44" opacity="0.55" />
<rect x="555.80" y="345.67" width="2.28" height="2.41" fill="#d64545" opacity="0.55" />
<rect x="559.07" y="345.67" width="2.28" height="3.21" fill="#d64545" opacity="0.55" />
<rect x="562.35" y="345.67" width="2.28" height="2.31" fill="#d64545" opacity="0.55" />
<rect x="565.62" y="345.42" width="2.28" height="0.26" fill="#2f9e44" opacity="0.55" />
<rect x="568.90" y="344.09" width="2.28" height="1.58" fill="#2f9e44" opacity="0.55" />
<rect x="572.17" y="342.08" width="2.28" height="3.60" fill="#2f9e44" opacity="0.55" />
<rect x="575.45" y="343.22" width="2.28" height="2.45" fill="#2f9e44" opacity="0.55" />
<rect x="578.72" y="345.67" width="2.28" height="1.84" fill="#d64545" opacity="0.55" />
<rect x="581.99" y="345.67" width="2.28" height="2.89" fill="#d64545" opacity="0.55" />
<rect x="585.27" y="345.67" width="2.28" height="2.78" fill="#d64545" opacity="0.55" />
<rect x="588.54" y="345.67" width="2.28" height="1.04" fill="#d64545" opacity="0.55" />
<rect x="591.82" y="345.67" width="2.28" height="0.43" fill="#d64545" opacity="0.55" />
<rect x="595.09" y="343.46" width="2.28" height="2.22" fill="#2f9e44" opacity="0.55" />
<rect x="598.36" y="344.18" width="2.28" height="1.49" fill="#2f9e44" opacity="0.55" />
<rect x="601.64" y="342.12" width="2.28" height="3.55" fill="#2f9e44" opacity="0.55" />
<rect x="604.91" y="335.68" width="2.28" height="9.99" fill="#2f9e44" opacity="0.55" />
<rect x="608.19" y="329.74" width="2.28" height="15.93" fill="#2f9e44" opacity="0.55" />
<rect x="611.46" y="314.28" width="2.28" height="31.39" fill="#2f9e44" opacity="0.55" />
<rect x="614.73" y="305.00" width="2.28" height="40.67" fill="#2f9e44" opacity="0.55" />
<rect x="618.01" y="300.43" width="2.28" height="45.25" fill="#2f9e44" opacity="0.55" />
<rect x="621.28" y="298.77" width="2.28" height="46.90" fill="#2f9e44" opacity="0.55" />
<rect x="624.56" y="299.62" width="2.28" height="46.05" fill="#2f9e44" opacity="0.55" />
<rect x="627.83" y="302.77" width="2.28" height="42.90" fill="#2f9e44" opacity="0.55" />
<rect x="631.11" y="307.89" width="2.28" height="37.79" fill="#2f9e44" opacity="0.55" />
<rect x="634.38" y="314.75" width="2.28" height="30.92" fill="#2f9e44" opacity="0.55" />
<rect x="637.65" y="323.12" width="2.28" height="22.55" fill="#2f9e44" opacity="0.55" />
<rect x="640.93" y="330.52" width="2.28" height="15.15" fill="#2f9e44" opacity="0.55" />
<rect x="644.20" y="335.31" width="2.28" height="10.37" fill="#2f9e44" opacity="0.55" />
<rect x="647.48" y="339.38" width="2.28" height="6.29" fill="#2f9e44" opacity="0.55" />
<rect x="650.75" y="343.58" width="2.28" height="2.09" fill="#2f9e44" opacity="0.55" />
<rect x="654.02" y="345.67" width="2.28" height="0.74" fill="#d64545" opacity="0.55" />
<rect x="657.30" y="345.67" width="2.28" height="5.99" fill="#d64545" opacity="0.55" />
<rect x="660.57" y="345.67" width="2.28" height="9.31" fill="#d64545" opacity="0.55" />
<rect x="663.85" y="345.67" width="2.28" height="9.69" fill="#d64545" opacity="0.55" />
<rect x="667.12" y="345.67" width="2.28" height="12.36" fill="#d64545" opacity="0.55" />
<rect x="670.40" y="345.67" width="2.28" height="12.32" fill="#d64545" opacity="0.55" />
<rect x="673.67" y="345.67" width="2.28" height="10.89" fill="#d64545" opacity="0.55" />
<rect x="676.94" y="345.67" width="2.28" height="9.61" fill="#d64545" opacity="0.55" />
<rect x="680.22" y="345.67" width="2.28" height="9.06" fill="#d64545" opacity="0.55" />
<rect x="683.49" y="345.67" width="2.28" height="5.19" fill="#d64545" opacity="0.55" />
<rect x="686.77" y="345.67" width="2.28" height="3.36" fill="#d64545" opacity="0.55" />
<rect x="690.04" y="344.70" width="2.28" height="0.97" fill="#2f9e44" opacity="0.55" />
<rect x="693.31" y="342.00" width="2.28" height="3.67" fill="#2f9e44" opacity="0.55" />
<rect x="696.59" y="340.87" width="2.28" height="4.81" fill="#2f9e44" opacity="0.55" />
<rect x="699.86" y="340.07" width="2.28" height="5.60" fill="#2f9e44" opacity="0.55" />
<rect x="703.14" y="337.37" width="2.28" height="8.31" fill="#2f9e44" opacity="0.55" />
<rect x="706.41" y="335.40" width="2.28" height="10.27" fill="#2f9e44" opacity="0.55" />
<rect x="709.68" y="334.86" width="2.28" height="10.81" fill="#2f9e44" opacity="0.55" />
<rect x="712.96" y="332.18" width="2.28" height="13.49" fill="#2f9e44" opacity="0.55" />
<rect x="716.23" y="330.09" width="2.28" height="15.59" fill="#2f9e44" opacity="0.55" />
<rect x="719.51" y="329.91" width="2.28" height="15.76" fill="#2f9e44" opacity="0.55" />
<rect x="722.78" y="342.00" width="2.28" height="3.68" fill="#2f9e44" opacity="0.55" />
<rect x="726.06" y="345.67" width="2.28" height="7.13" fill="#d64545" opacity="0.55" />
<rect x="729.33" y="345.67" width="2.28" height="16.30" fill="#d64545" opacity="0.55" />
<rect x="732.60" y="345.67" width="2.28" height="20.91" fill="#d64545" opacity="0.55" />
<rect x="735.88" y="345.67" width="2.28" height="23.49" fill="#d64545" opacity="0.55" />
<rect x="739.15" y="345.67" width="2.28" height="24.56" fill="#d64545" opacity="0.55" />
<rect x="742.43" y="345.67" width="2.28" height="25.31" fill="#d64545" opacity="0.55" />
<rect x="745.70" y="345.67" width="2.28" height="23.69" fill="#d64545" opacity="0.55" />
<rect x="748.97" y="345.67" width="2.28" height="21.72" fill="#d64545" opacity="0.55" />
<rect x="752.25" y="345.67" width="2.28" height="17.87" fill="#d64545" opacity="0.55" />
<rect x="755.52" y="345.67" width="2.28" height="16.17" fill="#d64545" opacity="0.55" />
<rect x="758.80" y="345.67" width="2.28" height="15.35" fill="#d64545" opacity="0.55" />
<rect x="762.07" y="345.67" width="2.28" height="17.26" fill="#d64545" opacity="0.55" />
<rect x="765.34" y="345.67" width="2.28" height="17.08" fill="#d64545" opacity="0.55" />
<rect x="768.62" y="345.67" width="2.28" height="15.98" fill="#d64545" opacity="0.55" />
<rect x="771.89" y="345.67" width="2.28" height="15.10" fill="#d64545" opacity="0.55" />
<rect x="775.17" y="345.67" width="2.28" height="15.69" fill="#d64545" opacity="0.55" />
<rect x="778.44" y="345.67" width="2.28" height="12.72" fill="#d64545" opacity="0.55" />
<rect x="781.72" y="345.67" width="2.28" height="10.05" fill="#d64545" opacity="0.55" />
<rect x="784.99" y="345.67" width="2.28" height="8.23" fill="#d64545" opacity="0.55" />
<rect x="788.26" y="345.67" width="2.28" height="6.28" fill="#d64545" opacity="0.55" />
<rect x="791.54" y="345.67" width="2.28" height="1.68" fill="#d64545" opacity="0.55" />
<rect x="794.81" y="344.41" width="2.28" height="1.26" fill="#2f9e44" opacity="0.55" />
<rect x="798.09" y="343.62" width="2.28" height="2.05" fill="#2f9e44" opacity="0.55" />
<rect x="801.36" y="341.67" width="2.28" height="4.00" fill="#2f9e44" opacity="0.55" />
<rect x="804.63" y="341.10" width="2.28" height="4.57" fill="#2f9e44" opacity="0.55" />
<rect x="807.91" y="341.66" width="2.28" height="4.01" fill="#2f9e44" opacity="0.55" />
<rect x="811.18" y="342.29" width="2.28" height="3.38" fill="#2f9e44" opacity="0.55" />
<rect x="814.46" y="343.63" width="2.28" height="2.04" fill="#2f9e44" opacity="0.55" />
<rect x="817.73" y="344.68" width="2.28" height="1.00" fill="#2f9e44" opacity="0.55" />
<rect x="821.01" y="345.30" width="2.28" height="0.37" fill="#2f9e44" opacity="0.55" />
<rect x="824.28" y="345.67" width="2.28" height="2.41" fill="#d64545" opacity="0.55" />
<rect x="827.55" y="345.67" width="2.28" height="5.66" fill="#d64545" opacity="0.55" />
<rect x="830.83" y="345.67" width="2.28" height="7.08" fill="#d64545" opacity="0.55" />
<rect x="834.10" y="345.67" width="2.28" height="6.66" fill="#d64545" opacity="0.55" />
<rect x="837.38" y="345.67" width="2.28" height="5.26" fill="#d64545" opacity="0.55" />
<rect x="840.65" y="345.67" width="2.28" height="5.08" fill="#d64545" opacity="0.55" />
<rect x="843.92" y="345.67" width="2.28" height="3.75" fill="#d64545" opacity="0.55" />
<rect x="847.20" y="345.67" width="2.28" height="3.15" fill="#d64545" opacity="0.55" />
<rect x="850.47" y="345.67" width="2.28" height="3.23" fill="#d64545" opacity="0.55" />
<rect x="853.75" y="345.67" width="2.28" height="1.37" fill="#d64545" opacity="0.55" />
<rect x="857.02" y="345.67" width="2.28" height="2.85" fill="#d64545" opacity="0.55" />
<rect x="860.29" y="345.67" width="2.28" height="5.11" fill="#d64545" opacity="0.55" />
<rect x="863.57" y="345.67" width="2.28" height="5.44" fill="#d64545" opacity="0.55" />
<rect x="866.84" y="345.67" width="2.28" height="9.67" fill="#d64545" opacity="0.55" />
<rect x="870.12" y="345.67" width="2.28" height="11.47" fill="#d64545" opacity="0.55" />
<rect x="873.39" y="345.67" width="2.28" height="12.58" fill="#d64545" opacity="0.55" />
<rect x="876.67" y="345.67" width="2.28" height="13.13" fill="#d64545" opacity="0.55" />
<rect x="879.94" y="345.67" width="2.28" height="9.27" fill="#d64545" opacity="0.55" />
<rect x="883.21" y="345.67" width="2.28" height="5.88" fill="#d64545" opacity="0.55" />
<rect x="886.49" y="345.67" width="2.28" height="5.40" fill="#d64545" opacity="0.55" />
<rect x="889.76" y="345.67" width="2.28" height="1.36" fill="#d64545" opacity="0.55" />
<rect x="893.04" y="340.29" width="2.28" height="5.38" fill="#2f9e44" opacity="0.55" />
<rect x="896.31" y="337.51" width="2.28" height="8.16" fill="#2f9e44" opacity="0.55" />
<rect x="899.58" y="335.52" width="2.28" height="10.15" fill="#2f9e44" opacity="0.55" />
<rect x="902.86" y="334.93" width="2.28" height="10.74" fill="#2f9e44" opacity="0.55" />
<polyline fill="none" stroke="#1f77b4" stroke-width="2" points="137.85,393.79 141.13,395.12 144.40,393.99 147.68,395.56 150.95,392.24 154.22,388.85 157.50,381.64 160.77,374.71 164.05,368.04 167.32,365.27 170.59,359.48 173.87,353.69 177.14,348.26 180.42,348.01 183.69,347.82 186.97,348.65 190.24,349.47 193.51,348.32 196.79,346.34 200.06,345.12 203.34,343.14 206.61,344.63 209.88,345.05 213.16,343.82 216.43,338.79 219.71,336.71 222.98,335.06 226.25,331.48 229.53,330.87 232.80,336.31 236.08,342.64 239.35,345.84 242.63,348.57 245.90,347.03 249.17,348.51 252.45,347.13 255.72,345.99 259.00,346.24 262.27,348.33 265.54,349.38 268.82,349.85 272.09,350.71 275.37,352.31 278.64,357.14 281.92,361.88 285.19,366.61 288.46,368.78 291.74,366.59 295.01,361.62 298.29,355.36 301.56,351.77 304.83,349.02 308.11,347.32 311.38,347.53 314.66,350.24 317.93,350.26 321.20,345.12 324.48,340.73 327.75,353.63 331.03,364.01 334.30,374.40 337.58,382.23 340.85,386.91 344.12,390.38 347.40,394.07 350.67,392.53 353.95,393.23 357.22,394.16 360.49,393.63 363.77,392.85 367.04,390.83 370.32,386.60 373.59,380.69 376.86,372.91 380.14,366.94 383.41,367.49 386.69,368.89 389.96,364.76 393.24,366.64 396.51,373.52 399.78,380.36 403.06,381.86 406.33,385.97 409.61,386.47 412.88,384.51 416.15,380.52 419.43,376.71 422.70,380.39 425.98,383.84 429.25,390.00 432.53,398.81 435.80,405.21 439.07,414.76 442.35,419.66 445.62,421.22 448.90,423.43 452.17,423.23 455.44,421.91 458.72,421.03 461.99,418.98 465.27,418.04 468.54,416.14 471.81,413.66 475.09,409.86 478.36,406.57 481.64,403.78 484.91,400.95 488.19,401.72 491.46,401.07 494.73,400.99 498.01,400.19 501.28,399.20 504.56,399.21 507.83,398.67 511.10,396.46 514.38,396.46 517.65,396.53 520.93,396.07 524.20,396.09 527.47,398.02 530.75,401.30 534.02,399.88 537.30,398.69 540.57,397.31 543.85,396.87 547.12,397.87 550.39,397.63 553.67,397.80 556.94,401.01 560.22,402.61 563.49,402.29 566.76,399.66 570.04,397.93 573.31,395.02 576.59,395.56 579.86,400.30 583.14,402.08 586.41,402.67 589.68,401.18 592.96,400.68 596.23,397.48 599.51,397.84 602.78,394.89 606.05,385.95 609.33,376.02 612.60,352.72 615.88,333.28 619.15,317.39 622.42,304.01 625.70,293.34 628.97,285.77 632.25,281.44 635.52,280.57 638.80,283.31 642.07,286.91 645.34,289.11 648.62,291.62 651.89,295.29 655.17,298.30 658.44,305.06 661.71,310.71 664.99,313.50 668.26,319.26 671.54,322.30 674.81,323.60 678.08,324.72 681.36,326.44 684.63,323.86 687.91,322.87 691.18,318.30 694.46,314.68 697.73,312.34 701.00,310.15 704.28,305.37 707.55,300.83 710.83,297.59 714.10,291.54 717.37,285.55 720.65,281.43 723.92,292.60 727.20,305.18 730.47,318.43 733.75,328.27 737.02,336.72 740.29,343.93 743.57,351.00 746.84,355.31 750.12,358.77 753.39,359.38 756.66,361.73 759.94,364.74 763.21,370.97 766.49,375.06 769.76,377.95 773.03,380.84 776.31,385.37 779.58,385.58 782.86,385.42 786.13,385.65 789.41,385.27 792.68,381.09 795.95,377.84 799.23,376.53 802.50,373.58 805.78,371.87 809.05,371.42 812.32,371.21 815.60,372.04 818.87,372.84 822.15,373.37 825.42,376.76 828.69,381.42 831.97,384.61 835.24,385.85 838.52,385.77 841.79,386.86 845.07,386.47 848.34,386.65 851.61,387.53 854.89,386.02 858.16,388.22 861.44,391.75 864.71,393.44 867.98,400.08 871.26,404.75 874.53,409.01 877.81,412.85 881.08,411.30 884.36,409.37 887.63,410.24 890.90,406.55 894.18,398.46 897.45,393.64 900.73,389.11 904.00,385.83" />
<polyline fill="none" stroke="#ff7f0e" stroke-width="2" points="137.85,393.79 141.13,394.06 144.40,394.04 147.68,394.35 150.95,393.92 154.22,392.91 157.50,390.66 160.77,387.47 164.05,383.58 167.32,379.92 170.59,375.83 173.87,371.40 177.14,366.77 180.42,363.02 183.69,359.98 186.97,357.72 190.24,356.07 193.51,354.52 196.79,352.88 200.06,351.33 203.34,349.69 206.61,348.68 209.88,347.95 213.16,347.13 216.43,345.46 219.71,343.71 222.98,341.98 226.25,339.88 229.53,338.08 232.80,337.73 236.08,338.71 239.35,340.14 242.63,341.82 245.90,342.86 249.17,343.99 252.45,344.62 255.72,344.89 259.00,345.16 262.27,345.80 265.54,346.51 268.82,347.18 272.09,347.89 275.37,348.77 278.64,350.45 281.92,352.73 285.19,355.51 288.46,358.16 291.74,359.85 295.01,360.20 298.29,359.23 301.56,357.74 304.83,356.00 308.11,354.26 311.38,352.92 314.66,352.38 317.93,351.96 321.20,350.59 324.48,348.62 327.75,349.62 331.03,352.50 334.30,356.88 337.58,361.95 340.85,366.94 344.12,371.63 347.40,376.12 350.67,379.40 353.95,382.16 357.22,384.56 360.49,386.38 363.77,387.67 367.04,388.30 370.32,387.96 373.59,386.51 376.86,383.79 380.14,380.42 383.41,377.83 386.69,376.04 389.96,373.79 393.24,372.36 396.51,372.59 399.78,374.15 403.06,375.69 406.33,377.75 409.61,379.49 412.88,380.49 416.15,380.50 419.43,379.74 422.70,379.87 425.98,380.67 429.25,382.53 432.53,385.79 435.80,389.67 439.07,394.69 442.35,399.68 445.62,403.99 448.90,407.88 452.17,410.95 455.44,413.14 458.72,414.72 461.99,415.57 465.27,416.07 468.54,416.08 471.81,415.60 475.09,414.45 478.36,412.87 481.64,411.05 484.91,409.03 488.19,407.57 491.46,406.27 494.73,405.21 498.01,404.21 501.28,403.21 504.56,402.41 507.83,401.66 511.10,400.62 514.38,399.79 517.65,399.13 520.93,398.52 524.20,398.04 527.47,398.03 530.75,398.69 534.02,398.92 537.30,398.88 540.57,398.56 543.85,398.23 547.12,398.15 550.39,398.05 553.67,398.00 556.94,398.60 560.22,399.40 563.49,399.98 566.76,399.91 570.04,399.52 573.31,398.62 576.59,398.01 579.86,398.47 583.14,399.19 586.41,399.88 589.68,400.14 592.96,400.25 596.23,399.70 599.51,399.33 602.78,398.44 606.05,395.94 609.33,391.96 612.60,384.11 615.88,373.94 619.15,362.63 622.42,350.91 625.70,339.39 628.97,328.67 632.25,319.22 635.52,311.49 638.80,305.86 642.07,302.07 645.34,299.48 648.62,297.90 651.89,297.38 655.17,297.57 658.44,299.06 661.71,301.39 664.99,303.81 668.26,306.90 671.54,309.98 674.81,312.71 678.08,315.11 681.36,317.37 684.63,318.67 687.91,319.51 691.18,319.27 694.46,318.35 697.73,317.15 701.00,315.75 704.28,313.67 707.55,311.10 710.83,308.40 714.10,305.03 717.37,301.13 720.65,297.19 723.92,296.27 727.20,298.05 730.47,302.13 733.75,307.36 737.02,313.23 740.29,319.37 743.57,325.70 746.84,331.62 750.12,337.05 753.39,341.52 756.66,345.56 759.94,349.40 763.21,353.71 766.49,357.98 769.76,361.97 773.03,365.75 776.31,369.67 779.58,372.85 782.86,375.37 786.13,377.42 789.41,378.99 792.68,379.41 795.95,379.10 799.23,378.58 802.50,377.58 805.78,376.44 809.05,375.44 812.32,374.59 815.60,374.08 818.87,373.83 822.15,373.74 825.42,374.34 828.69,375.76 831.97,377.53 835.24,379.19 838.52,380.51 841.79,381.78 845.07,382.72 848.34,383.50 851.61,384.31 854.89,384.65 858.16,385.36 861.44,386.64 864.71,388.00 867.98,390.42 871.26,393.28 874.53,396.43 877.81,399.71 881.08,402.03 884.36,403.50 887.63,404.85 890.90,405.19 894.18,403.84 897.45,401.80 900.73,399.26 904.00,396.58" />
<text x="754.00" y="290.00" font-size="13" font-family="Arial" fill="#1f77b4" text-anchor="start">MACD</text>
<text x="818.00" y="290.00" font-size="13" font-family="Arial" fill="#ff7f0e" text-anchor="start">Signal</text>
<line x1="56" y1="624" x2="904" y2="624" stroke="#cbd2d9" />
<line x1="56" y1="484" x2="56" y2="624" stroke="#cbd2d9" />
<text x="16.00" y="476.00" font-size="12" font-family="Arial" fill="#52606d" text-anchor="start">KD</text>
<line x1="56" y1="624.00" x2="904" y2="624.00" stroke="#edf2f7" />
<line x1="52" y1="624.00" x2="56" y2="624.00" stroke="#9fb3c8" />
<text x="48.00" y="628.00" font-size="11" font-family="Arial" fill="#52606d" text-anchor="end">-5.00</text>
<line x1="56" y1="577.33" x2="904" y2="577.33" stroke="#edf2f7" />
<line x1="52" y1="577.33" x2="56" y2="577.33" stroke="#9fb3c8" />
<text x="48.00" y="581.33" font-size="11" font-family="Arial" fill="#52606d" text-anchor="end">31.7</text>
<line x1="56" y1="530.67" x2="904" y2="530.67" stroke="#edf2f7" />
<line x1="52" y1="530.67" x2="56" y2="530.67" stroke="#9fb3c8" />
<text x="48.00" y="534.67" font-size="11" font-family="Arial" fill="#52606d" text-anchor="end">68.3</text>
<line x1="56" y1="484.00" x2="904" y2="484.00" stroke="#edf2f7" />
<line x1="52" y1="484.00" x2="56" y2="484.00" stroke="#9fb3c8" />
<text x="48.00" y="488.00" font-size="11" font-family="Arial" fill="#52606d" text-anchor="end">105</text>
<line x1="56.00" y1="624" x2="56.00" y2="628" stroke="#9fb3c8" />
<text x="56.00" y="642.00" font-size="11" font-family="Arial" fill="#52606d" text-anchor="middle">06/25</text>
<line x1="226.25" y1="624" x2="226.25" y2="628" stroke="#9fb3c8" />
<text x="226.25" y="642.00" font-size="11" font-family="Arial" fill="#52606d" text-anchor="middle">09/09</text>
<line x1="396.51" y1="624" x2="396.51" y2="628" stroke="#9fb3c8" />
<text x="396.51" y="642.00" font-size="11" font-family="Arial" fill="#52606d" text-anchor="middle">11/20</text>
<line x1="563.49" y1="624" x2="563.49" y2="628" stroke="#9fb3c8" />
<text x="563.49" y="642.00" font-size="11" font-family="Arial" fill="#52606d" text-anchor="middle">02/05</text>
<line x1="733.75" y1="624" x2="733.75" y2="628" stroke="#9fb3c8" />
<text x="733.75" y="642.00" font-size="11" font-family="Arial" fill="#52606d" text-anchor="middle">04/22</text>
<line x1="904.00" y1="624" x2="904.00" y2="628" stroke="#9fb3c8" />
<text x="904.00" y="642.00" font-size="11" font-family="Arial" fill="#52606d" text-anchor="middle">07/08</text>
<line x1="56" y1="592.18" x2="904" y2="592.18" stroke="#f0b429" stroke-dasharray="5 5" />
<text x="912.00" y="596.18" font-size="10" font-family="Arial" fill="#8d2b0b" text-anchor="start">20.0</text>
<line x1="56" y1="515.82" x2="904" y2="515.82" stroke="#f0b429" stroke-dasharray="5 5" />
<text x="912.00" y="519.82" font-size="10" font-family="Arial" fill="#8d2b0b" text-anchor="start">80.0</text>
<polyline fill="none" stroke="#2ca02c" stroke-width="2" points="82.19,567.21 85.47,569.23 88.74,583.33 92.02,589.43 95.29,586.73 98.56,579.71 101.84,580.99 105.11,564.65 108.39,578.53 111.66,575.23 114.93,588.29 118.21,596.78 121.48,597.04 124.76,597.32 128.03,599.68 131.31,603.42 134.58,597.26 137.85,603.16 141.13,604.92 144.40,592.03 147.68,598.04 150.95,577.58 154.22,562.43 157.50,539.92 160.77,525.98 164.05,517.37 167.32,523.37 170.59,518.14 173.87,512.20 177.14,507.51 180.42,520.72 183.69,532.96 186.97,551.43 190.24,564.88 193.51,564.09 196.79,557.74 200.06,555.38 203.34,548.04 206.61,557.63 209.88,553.52 213.16,541.49 216.43,524.45 219.71,524.80 222.98,524.56 226.25,515.10 229.53,516.61 232.80,539.87 236.08,562.77 239.35,567.93 242.63,572.16 245.90,562.34 249.17,565.13 252.45,558.32 255.72,553.59 259.00,551.01 262.27,551.74 265.54,549.23 268.82,552.93 272.09,557.24 275.37,561.24 278.64,575.15 281.92,576.67 285.19,581.59 288.46,579.86 291.74,565.70 295.01,545.39 298.29,529.68 301.56,526.68 304.83,525.08 308.11,525.39 311.38,531.58 314.66,544.33 317.93,554.81 321.20,538.77 324.48,526.87 327.75,555.92 331.03,572.54 334.30,587.50 337.58,595.63 340.85,598.97 344.12,601.74 347.40,606.59 350.67,601.97 353.95,594.36 357.22,589.47 360.49,581.55 363.77,577.27 367.04,569.83 370.32,553.56 373.59,534.28 376.86,522.83 380.14,517.93 383.41,533.64 386.69,548.31 389.96,542.63 393.24,560.38 396.51,578.42 399.78,589.85 403.06,587.57 406.33,594.17 409.61,591.97 412.88,585.37 416.15,575.47 419.43,563.99 422.70,572.85 425.98,580.05 429.25,583.73 432.53,590.65 435.80,595.50 439.07,602.00 442.35,602.97 445.62,600.92 448.90,602.35 452.17,599.87 455.44,597.47 458.72,594.91 461.99,585.11 465.27,588.45 468.54,582.84 471.81,578.10 475.09,569.08 478.36,565.33 481.64,565.44 484.91,559.83 488.19,577.48 491.46,584.24 494.73,587.99 498.01,589.84 501.28,591.63 504.56,593.03 507.83,593.51 511.10,587.39 514.38,593.35 517.65,599.42 520.93,603.48 524.20,606.31 527.47,595.01 530.75,595.47 534.02,584.44 537.30,578.93 540.57,575.79 543.85,575.31 547.12,582.87 550.39,586.16 553.67,589.62 556.94,597.11 560.22,598.83 563.49,596.08 566.76,585.86 570.04,583.33 573.31,573.83 576.59,585.69 579.86,593.68 583.14,594.29 586.41,594.11 589.68,589.53 592.96,590.94 596.23,584.36 599.51,591.01 602.78,582.68 606.05,554.10 609.33,539.91 612.60,524.39 615.88,514.85 619.15,508.06 622.42,504.03 625.70,501.19 628.97,499.57 632.25,500.29 635.52,504.91 638.80,523.46 642.07,551.90 645.34,564.14 648.62,573.05 651.89,584.62 655.17,588.25 658.44,593.06 661.71,595.10 664.99,587.00 668.26,595.49 671.54,590.93 674.81,580.08 678.08,572.03 681.36,568.52 684.63,543.31 687.91,536.41 691.18,521.33 694.46,524.45 697.73,527.14 701.00,526.87 704.28,517.29 707.55,508.59 710.83,504.55 714.10,500.82 717.37,497.80 720.65,499.60 723.92,532.18 727.20,557.11 730.47,576.75 733.75,588.15 737.02,596.09 740.29,601.69 743.57,606.84 746.84,605.40 750.12,599.26 753.39,585.29 756.66,577.58 759.94,581.87 763.21,591.89 766.49,592.23 769.76,592.56 773.03,596.83 776.31,602.22 779.58,596.04 782.86,592.37 786.13,590.00 789.41,586.03 792.68,555.67 795.95,548.20 799.23,551.46 802.50,545.59 805.78,548.73 809.05,560.28 812.32,570.99 815.60,581.00 818.87,590.11 822.15,595.64 825.42,602.73 828.69,605.78 831.97,607.53 835.24,604.42 838.52,599.55 841.79,602.79 845.07,600.81 848.34,599.41 851.61,598.77 854.89,582.12 858.16,586.81 861.44,595.74 864.71,595.36 867.98,598.64 871.26,601.05 874.53,605.73 877.81,609.55 881.08,600.94 884.36,595.31 887.63,599.74 890.90,586.56 894.18,558.92 897.45,549.61 900.73,542.51 904.00,541.08" />
<polyline fill="none" stroke="#d62728" stroke-width="2" points="82.19,558.40 85.47,562.01 88.74,569.12 92.02,575.89 95.29,579.50 98.56,579.57 101.84,580.04 105.11,574.91 108.39,576.12 111.66,575.82 114.93,579.98 118.21,585.58 121.48,589.40 124.76,592.04 128.03,594.59 131.31,597.53 134.58,597.44 137.85,599.35 141.13,601.21 144.40,598.15 147.68,598.11 150.95,591.27 154.22,581.66 157.50,567.75 160.77,553.82 164.05,541.67 167.32,535.57 170.59,529.76 173.87,523.91 177.14,518.44 180.42,519.20 183.69,523.79 186.97,533.00 190.24,543.63 193.51,550.45 196.79,552.88 200.06,553.71 203.34,551.82 206.61,553.76 209.88,553.68 213.16,549.61 216.43,541.22 219.71,535.75 222.98,532.02 226.25,526.38 229.53,523.13 232.80,528.71 236.08,540.06 239.35,549.35 242.63,556.95 245.90,558.75 249.17,560.88 252.45,560.02 255.72,557.88 259.00,555.59 262.27,554.31 265.54,552.62 268.82,552.72 272.09,554.23 275.37,556.56 278.64,562.76 281.92,567.40 285.19,572.13 288.46,574.71 291.74,571.70 295.01,562.93 298.29,551.85 301.56,543.46 304.83,537.33 308.11,533.35 311.38,532.76 314.66,536.62 317.93,542.68 321.20,541.38 324.48,536.54 327.75,543.00 331.03,552.85 334.30,564.40 337.58,574.81 340.85,582.86 344.12,589.16 347.40,594.97 350.67,597.30 353.95,596.32 357.22,594.04 360.49,589.88 363.77,585.68 367.04,580.39 370.32,571.45 373.59,559.06 376.86,546.99 380.14,537.30 383.41,536.08 386.69,540.16 389.96,540.98 393.24,547.45 396.51,557.77 399.78,568.46 403.06,574.83 406.33,581.28 409.61,584.84 412.88,585.02 416.15,581.83 419.43,575.89 422.70,574.87 425.98,576.60 429.25,578.98 432.53,582.87 435.80,587.08 439.07,592.05 442.35,595.69 445.62,597.44 448.90,599.07 452.17,599.34 455.44,598.72 458.72,597.45 461.99,593.33 465.27,591.71 468.54,588.75 471.81,585.20 475.09,579.83 478.36,574.99 481.64,571.81 484.91,567.81 488.19,571.04 491.46,575.44 494.73,579.62 498.01,583.03 501.28,585.89 504.56,588.27 507.83,590.02 511.10,589.14 514.38,590.54 517.65,593.50 520.93,596.83 524.20,599.99 527.47,598.33 530.75,597.38 534.02,593.06 537.30,588.35 540.57,584.16 543.85,581.21 547.12,581.77 550.39,583.23 553.67,585.36 556.94,589.28 560.22,592.46 563.49,593.67 566.76,591.06 570.04,588.48 573.31,583.60 576.59,584.30 579.86,587.43 583.14,589.71 586.41,591.18 589.68,590.63 592.96,590.73 596.23,588.61 599.51,589.41 602.78,587.17 606.05,576.15 609.33,564.07 612.60,550.84 615.88,538.84 619.15,528.58 622.42,520.40 625.70,514.00 628.97,509.19 632.25,506.22 635.52,505.79 638.80,511.68 642.07,525.08 645.34,538.10 648.62,549.75 651.89,561.37 655.17,570.33 658.44,577.91 661.71,583.64 664.99,584.76 668.26,588.34 671.54,589.20 674.81,586.16 678.08,581.45 681.36,577.14 684.63,565.86 687.91,556.05 691.18,544.47 694.46,537.80 697.73,534.25 701.00,531.79 704.28,526.96 707.55,520.83 710.83,515.41 714.10,510.54 717.37,506.30 720.65,504.06 723.92,513.43 727.20,527.99 730.47,544.24 733.75,558.88 737.02,571.29 740.29,581.42 743.57,589.89 746.84,595.06 750.12,596.46 753.39,592.74 756.66,587.69 759.94,585.75 763.21,587.79 766.49,589.27 769.76,590.37 773.03,592.52 776.31,595.75 779.58,595.85 782.86,594.69 786.13,593.13 789.41,590.76 792.68,579.06 795.95,568.77 799.23,563.00 802.50,557.20 805.78,554.38 809.05,556.34 812.32,561.23 815.60,567.82 818.87,575.25 822.15,582.04 825.42,588.94 828.69,594.55 831.97,598.88 835.24,600.73 838.52,600.33 841.79,601.15 845.07,601.04 848.34,600.50 851.61,599.92 854.89,593.99 858.16,591.59 861.44,592.98 864.71,593.77 867.98,595.39 871.26,597.28 874.53,600.10 877.81,603.25 881.08,602.48 884.36,600.09 887.63,599.97 890.90,595.50 894.18,583.31 897.45,572.07 900.73,562.22 904.00,555.17" />
<text x="824.00" y="502.00" font-size="13" font-family="Arial" fill="#2ca02c" text-anchor="start">K</text>
<text x="860.00" y="502.00" font-size="13" font-family="Arial" fill="#d62728" text-anchor="start">D</text>
</svg>