<svg xmlns="http://www.w3.org/2000/svg" width="960" height="680" viewBox="0 0 960 680"><rect width="100%" height="100%" fill="white" />
<text x="56.00" y="32.00" font-size="20" font-family="Arial" fill="#1f2933" text-anchor="start">NVDA Technical Indicators</text>
<line x1="56" y1="220" x2="904" y2="220" stroke="#cbd2d9" />
<line x1="56" y1="58" x2="56" y2="220" stroke="#cbd2d9" />
<text x="16.00" y="50.00" font-size="12" font-family="Arial" fill="#52606d" text-anchor="start">RSI14</text>
<line x1="56" y1="220.00" x2="904" y2="220.00" stroke="#edf2f7" />
<line x1="52" y1="220.00" x2="56" y2="220.00" stroke="#9fb3c8" />
<text x="48.00" y="224.00" font-size="11" font-family="Arial" fill="#52606d" text-anchor="end">-5.00</text>
<line x1="56" y1="166.00" x2="904" y2="166.00" stroke="#edf2f7" />
<line x1="52" y1="166.00" x2="56" y2="166.00" stroke="#9fb3c8" />
<text x="48.00" y="170.00" font-size="11" font-family="Arial" fill="#52606d" text-anchor="end">31.7</text>
<line x1="56" y1="112.00" x2="904" y2="112.00" stroke="#edf2f7" />
<line x1="52" y1="112.00" x2="56" y2="112.00" stroke="#9fb3c8" />
<text x="48.00" y="116.00" font-size="11" font-family="Arial" fill="#52606d" text-anchor="end">68.3</text>
<line x1="56" y1="58.00" x2="904" y2="58.00" stroke="#edf2f7" />
<line x1="52" y1="58.00" x2="56" y2="58.00" stroke="#9fb3c8" />
<text x="48.00" y="62.00" font-size="11" font-family="Arial" fill="#52606d" text-anchor="end">105</text>
<line x1="56" y1="168.45" x2="904" y2="168.45" stroke="#f0b429" stroke-dasharray="5 5" />
<text x="912.00" y="172.45" font-size="10" font-family="Arial" fill="#8d2b0b" text-anchor="start">30.0</text>
<line x1="56" y1="109.55" x2="904" y2="109.55" stroke="#f0b429" stroke-dasharray="5 5" />
<text x="912.00" y="113.55" font-size="10" font-family="Arial" fill="#8d2b0b" text-anchor="start">70.0</text>
<polyline fill="none" stroke="#1f77b4" stroke-width="2" points="101.84,105.08 105.11,101.19 108.39,102.13 111.66,98.09 114.93,103.04 118.21,98.38 121.48,103.78 124.76,118.06 128.03,108.78 131.31,113.96 134.58,112.28 137.85,110.33 141.13,107.63 144.40,109.83 147.68,108.17 150.95,113.86 154.22,113.09 157.50,118.91 160.77,115.76 164.05,135.69 167.32,136.33 170.59,137.50 173.87,129.85 177.14,125.69 180.42,121.49 183.69,122.08 186.97,127.09 190.24,144.18 193.51,151.62 196.79,151.96 200.06,148.76 203.34,158.39 206.61,154.37 209.88,147.15 213.16,131.61 216.43,131.99 219.71,130.57 222.98,130.77 226.25,138.78 229.53,149.44 232.80,135.35 236.08,134.44 239.35,121.81 242.63,133.45 245.90,136.42 249.17,135.03 252.45,134.03 255.72,127.04 259.00,119.39 262.27,118.40 265.54,115.91 268.82,119.53 272.09,125.31 275.37,126.68 278.64,119.23 281.92,113.83 285.19,136.25 288.46,127.87 291.74,142.26 295.01,142.57 298.29,139.11 301.56,136.67 304.83,137.77 308.11,140.63 311.38,142.35 314.66,138.34 317.93,130.38 321.20,121.91 324.48,110.38 327.75,104.91 331.03,113.84 334.30,114.68 337.58,110.16 340.85,126.09 344.12,131.83 347.40,142.15 350.67,142.05 353.95,127.90 357.22,136.12 360.49,135.32 363.77,144.28 367.04,139.85 370.32,144.30 373.59,150.33 376.86,143.06 380.14,149.67 383.41,151.55 386.69,146.15 389.96,151.47 393.24,147.81 396.51,151.54 399.78,147.00 403.06,144.63 406.33,147.12 409.61,141.06 412.88,142.49 416.15,137.47 419.43,138.43 422.70,140.47 425.98,145.24 429.25,153.92 432.53,151.36 435.80,148.44 439.07,157.91 442.35,151.46 445.62,139.53 448.90,135.41 452.17,127.78 455.44,128.85 458.72,126.21 461.99,130.63 465.27,131.94 468.54,134.00 471.81,129.98 475.09,131.57 478.36,133.54 481.64,129.94 484.91,139.05 488.19,139.44 491.46,139.25 494.73,137.16 498.01,143.62 501.28,134.31 504.56,136.36 507.83,153.07 511.10,141.51 514.38,138.51 517.65,133.14 520.93,135.72 524.20,131.76 527.47,126.35 530.75,124.63 534.02,128.20 537.30,140.75 540.57,150.28 543.85,159.18 547.12,162.10 550.39,137.32 553.67,131.11 556.94,133.49 560.22,131.40 563.49,136.58 566.76,142.94 570.04,139.45 573.31,134.77 576.59,134.91 579.86,131.81 583.14,129.05 586.41,126.98 589.68,122.80 592.96,142.89 596.23,153.22 599.51,144.54 602.78,147.71 606.05,142.93 609.33,142.44 612.60,150.17 615.88,142.20 619.15,138.93 622.42,136.97 625.70,141.62 628.97,146.02 632.25,140.84 635.52,142.93 638.80,145.44 642.07,148.43 645.34,156.92 648.62,150.81 651.89,151.47 655.17,144.32 658.44,155.29 661.71,159.85 664.99,162.56 668.26,145.22 671.54,143.03 674.81,140.35 678.08,139.93 681.36,139.10 684.63,132.22 687.91,129.27 691.18,122.28 694.46,121.33 697.73,112.39 701.00,109.88 704.28,111.17 707.55,107.53 710.83,107.12 714.10,113.07 717.37,109.82 720.65,117.43 723.92,107.34 727.20,100.29 730.47,108.09 733.75,116.29 737.02,132.93 740.29,134.61 743.57,134.56 746.84,137.79 750.12,123.08 753.39,119.26 756.66,115.65 759.94,111.81 763.21,110.63 766.49,106.41 769.76,99.65 773.03,117.40 776.31,121.83 779.58,124.35 782.86,121.54 786.13,127.57 789.41,133.53 792.68,134.20 795.95,137.47 799.23,135.18 802.50,139.87 805.78,123.70 809.05,126.05 812.32,137.32 815.60,132.47 818.87,147.82 822.15,143.60 825.42,144.08 828.69,151.92 831.97,146.22 835.24,145.81 838.52,136.93 841.79,142.70 845.07,145.71 848.34,138.32 851.61,140.72 854.89,149.95 858.16,150.98 861.44,154.22 864.71,157.30 867.98,153.49 871.26,145.96 874.53,148.84 877.81,151.93 881.08,150.76 884.36,148.45 887.63,137.49 890.90,139.42 894.18,128.68 897.45,139.11 900.73,129.55 904.00,128.80" />
<text x="808.00" y="76.00" font-size="13" font-family="Arial" fill="#1f77b4" text-anchor="start">RSI14</text>
<line x1="56" y1="432" x2="904" y2="432" stroke="#cbd2d9" />
<line x1="56" y1="272" x2="56" y2="432" stroke="#cbd2d9" />
<text x="16.00" y="264.00" font-size="12" font-family="Arial" fill="#52606d" text-anchor="start">MACD</text>
<line x1="56" y1="432.00" x2="904" y2="432.00" stroke="#edf2f7" />
<line x1="52" y1="432.00" x2="56" y2="432.00" stroke="#9fb3c8" />
<text x="48.00" y="436.00" font-size="11" font-family="Arial" fill="#52606d" text-anchor="end">-4.90</text>
<line x1="56" y1="378.67" x2="904" y2="378.67" stroke="#edf2f7" />
<line x1="52" y1="378.67" x2="56" y2="378.67" stroke="#9fb3c8" />
<text x="48.00" y="382.67" font-size="11" font-family="Arial" fill="#52606d" text-anchor="end">0.11</text>
<line x1="56" y1="325.33" x2="904" y2="325.33" stroke="#edf2f7" />
<line x1="52" y1="325.33" x2="56" y2="325.33" stroke="#9fb3c8" />
<text x="48.00" y="329.33" font-size="11" font-family="Arial" fill="#52606d" text-anchor="end">5.12</text>
<line x1="56" y1="272.00" x2="904" y2="272.00" stroke="#edf2f7" />
<line x1="52" y1="272.00" x2="56" y2="272.00" stroke="#9fb3c8" />
<text x="48.00" y="276.00" font-size="11" font-family="Arial" fill="#52606d" text-anchor="end">10.1</text>
<line x1="56" y1="379.87" x2="904" y2="379.87" stroke="#9fb3c8" stroke-dasharray="4 4" />
<rect x="136.71" y="379.87" width="2.28" height="0.00" fill="#2f9e44" opacity="0.55" />
<rect x="139.99" y="378.55" width="2.28" height="1.32" fill="#2f9e44" opacity="0.55" />
<rect x="143.26" y="378.67" width="2.28" height="1.19" fill="#2f9e44" opacity="0.55" />
<rect x="146.53" y="378.52" width="2.28" height="1.34" fill="#2f9e44" opacity="0.55" />
<rect x="149.81" y="379.87" width="2.28" height="0.16" fill="#d64545" opacity="0.55" />
<rect x="153.08" y="379.87" width="2.28" height="1.25" fill="#d64545" opacity="0.55" />
<rect x="156.36" y="379.87" width="2.28" height="3.39" fill="#d64545" opacity="0.55" />
<rect x="159.63" y="379.87" width="2.28" height="3.94" fill="#d64545" opacity="0.55" />
<rect x="162.90" y="379.87" width="2.28" height="8.84" fill="#d64545" opacity="0.55" />
<rect x="166.18" y="379.87" width="2.28" height="12.03" fill="#d64545" opacity="0.55" />
<rect x="169.45" y="379.87" width="2.28" height="14.07" fill="#d64545" opacity="0.55" />
<rect x="172.73" y="379.87" width="2.28" height="12.93" fill="#d64545" opacity="0.55" />
<rect x="176.00" y="379.87" width="2.28" height="10.63" fill="#d64545" opacity="0.55" />
<rect x="179.28" y="379.87" width="2.28" height="7.60" fill="#d64545" opacity="0.55" />
<rect x="182.55" y="379.87" width="2.28" height="5.71" fill="#d64545" opacity="0.55" />
<rect x="185.82" y="379.87" width="2.28" height="5.47" fill="#d64545" opacity="0.55" />
<rect x="189.10" y="379.87" width="2.28" height="9.35" fill="#d64545" opacity="0.55" />
<rect x="192.37" y="379.87" width="2.28" height="13.85" fill="#d64545" opacity="0.55" />
<rect x="195.65" y="379.87" width="2.28" height="16.26" fill="#d64545" opacity="0.55" />
<rect x="198.92" y="379.87" width="2.28" height="16.38" fill="#d64545" opacity="0.55" />
<rect x="202.19" y="379.87" width="2.28" height="18.88" fill="#d64545" opacity="0.55" />
<rect x="205.47" y="379.87" width="2.28" height="18.67" fill="#d64545" opacity="0.55" />
<rect x="208.74" y="379.87" width="2.28" height="15.95" fill="#d64545" opacity="0.55" />
<rect x="212.02" y="379.87" width="2.28" height="8.96" fill="#d64545" opacity="0.55" />
<rect x="215.29" y="379.87" width="2.28" height="4.20" fill="#d64545" opacity="0.55" />
<rect x="218.57" y="379.87" width="2.28" height="0.54" fill="#d64545" opacity="0.55" />
<rect x="221.84" y="378.11" width="2.28" height="1.76" fill="#2f9e44" opacity="0.55" />
<rect x="225.11" y="378.70" width="2.28" height="1.17" fill="#2f9e44" opacity="0.55" />
<rect x="228.39" y="379.87" width="2.28" height="2.36" fill="#d64545" opacity="0.55" />
<rect x="231.66" y="379.87" width="2.28" height="0.39" fill="#d64545" opacity="0.55" />
<rect x="234.94" y="378.70" width="2.28" height="1.17" fill="#2f9e44" opacity="0.55" />
<rect x="238.21" y="373.05" width="2.28" height="6.82" fill="#2f9e44" opacity="0.55" />
<rect x="241.48" y="373.39" width="2.28" height="6.48" fill="#2f9e44" opacity="0.55" />
<rect x="244.76" y="374.94" width="2.28" height="4.93" fill="#2f9e44" opacity="0.55" />
<rect x="248.03" y="375.71" width="2.28" height="4.16" fill="#2f9e44" opacity="0.55" />
<rect x="251.31" y="376.10" width="2.28" height="3.76" fill="#2f9e44" opacity="0.55" />
<rect x="254.58" y="374.11" width="2.28" height="5.76" fill="#2f9e44" opacity="0.55" />
<rect x="257.85" y="370.00" width="2.28" height="9.86" fill="#2f9e44" opacity="0.55" />
<rect x="261.13" y="367.58" width="2.28" height="12.29" fill="#2f9e44" opacity="0.55" />
<rect x="264.40" y="365.69" width="2.28" height="14.18" fill="#2f9e44" opacity="0.55" />
<rect x="267.68" y="366.25" width="2.28" height="13.61" fill="#2f9e44" opacity="0.55" />
<rect x="270.95" y="368.90" width="2.28" height="10.97" fill="#2f9e44" opacity="0.55" />
<rect x="274.23" y="371.67" width="2.28" height="8.20" fill="#2f9e44" opacity="0.55" />
<rect x="277.50" y="371.29" width="2.28" height="8.58" fill="#2f9e44" opacity="0.55" />
<rect x="280.77" y="369.38" width="2.28" height="10.49" fill="#2f9e44" opacity="0.55" />
<rect x="284.05" y="375.38" width="2.28" height="4.49" fill="#2f9e44" opacity="0.55" />
<rect x="287.32" y="376.14" width="2.28" height="3.73" fill="#2f9e44" opacity="0.55" />
<rect x="290.60" y="379.87" width="2.28" height="2.85" fill="#d64545" opacity="0.55" />
<rect x="293.87" y="379.87" width="2.28" height="7.23" fill="#d64545" opacity="0.55" />
<rect x="297.14" y="379.87" width="2.28" height="8.50" fill="#d64545" opacity="0.55" />
<rect x="300.42" y="379.87" width="2.28" height="8.13" fill="#d64545" opacity="0.55" />
<rect x="303.69" y="379.87" width="2.28" height="8.08" fill="#d64545" opacity="0.55" />
<rect x="306.97" y="379.87" width="2.28" height="8.83" fill="#d64545" opacity="0.55" />
<rect x="310.24" y="379.87" width="2.28" height="9.61" fill="#d64545" opacity="0.55" />
<rect x="313.51" y="379.87" width="2.28" height="8.47" fill="#d64545" opacity="0.55" />
<rect x="316.79" y="379.87" width="2.28" height="4.67" fill="#d64545" opacity="0.55" />
<rect x="320.06" y="378.48" width="2.28" height="1.39" fill="#2f9e44" opacity="0.55" />
<rect x="323.34" y="368.41" width="2.28" height="11.46" fill="#2f9e44" opacity="0.55" />
<rect x="326.61" y="358.78" width="2.28" height="21.09" fill="#2f9e44" opacity="0.55" />
<rect x="329.89" y="356.86" width="2.28" height="23.01" fill="#2f9e44" opacity="0.55" />
<rect x="333.16" y="357.39" width="2.28" height="22.47" fill="#2f9e44" opacity="0.55" />
<rect x="336.43" y="356.23" width="2.28" height="23.64" fill="#2f9e44" opacity="0.55" />
<rect x="339.71" y="362.66" width="2.28" height="17.21" fill="#2f9e44" opacity="0.55" />
<rect x="342.98" y="370.35" width="2.28" height="9.51" fill="#2f9e44" opacity="0.55" />
<rect x="346.26" y="379.87" width="2.28" height="1.07" fill="#d64545" opacity="0.55" />
<rect x="349.53" y="379.87" width="2.28" height="8.01" fill="#d64545" opacity="0.55" />
<rect x="352.80" y="379.87" width="2.28" height="4.95" fill="#d64545" opacity="0.55" />
<rect x="356.08" y="379.87" width="2.28" height="7.15" fill="#d64545" opacity="0.55" />
<rect x="359.35" y="379.87" width="2.28" height="8.10" fill="#d64545" opacity="0.55" />
<rect x="362.63" y="379.87" width="2.28" height="13.33" fill="#d64545" opacity="0.55" />
<rect x="365.90" y="379.87" width="2.28" height="13.99" fill="#d64545" opacity="0.55" />
<rect x="369.18" y="379.87" width="2.28" height="16.38" fill="#d64545" opacity="0.55" />
<rect x="372.45" y="379.87" width="2.28" height="20.84" fill="#d64545" opacity="0.55" />
<rect x="375.72" y="379.87" width="2.28" height="19.24" fill="#d64545" opacity="0.55" />
<rect x="379.00" y="379.87" width="2.28" height="21.38" fill="#d64545" opacity="0.55" />
<rect x="382.27" y="379.87" width="2.28" height="22.92" fill="#d64545" opacity="0.55" />
<rect x="385.55" y="379.87" width="2.28" height="20.25" fill="#d64545" opacity="0.55" />
<rect x="388.82" y="379.87" width="2.28" height="20.74" fill="#d64545" opacity="0.55" />
<rect x="392.09" y="379.87" width="2.28" height="18.27" fill="#d64545" opacity="0.55" />
<rect x="395.37" y="379.87" width="2.28" height="17.91" fill="#d64545" opacity="0.55" />
<rect x="398.64" y="379.87" width="2.28" height="14.64" fill="#d64545" opacity="0.55" />
<rect x="401.92" y="379.87" width="2.28" height="10.64" fill="#d64545" opacity="0.55" />
<rect x="405.19" y="379.87" width="2.28" height="8.67" fill="#d64545" opacity="0.55" />
<rect x="408.46" y="379.87" width="2.28" height="4.21" fill="#d64545" opacity="0.55" />
<rect x="411.74" y="379.87" width="2.28" height="1.65" fill="#d64545" opacity="0.55" />
<rect x="415.01" y="377.49" width="2.28" height="2.38" fill="#2f9e44" opacity="0.55" />
<rect x="418.29" y="375.29" width="2.28" height="4.58" fill="#2f9e44" opacity="0.55" />
<rect x="421.56" y="374.76" width="2.28" height="5.10" fill="#2f9e44" opacity="0.55" />
<rect x="424.84" y="376.46" width="2.28" height="3.41" fill="#2f9e44" opacity="0.55" />
<rect x="428.11" y="379.87" width="2.28" height="1.68" fill="#d64545" opacity="0.55" />
<rect x="431.38" y="379.87" width="2.28" height="3.74" fill="#d64545" opacity="0.55" />
<rect x="434.66" y="379.87" width="2.28" height="3.69" fill="#d64545" opacity="0.55" />
<rect x="437.93" y="379.87" width="2.28" height="7.87" fill="#d64545" opacity="0.55" />
<rect x="441.21" y="379.87" width="2.28" height="7.70" fill="#d64545" opacity="0.55" />
<rect x="444.48" y="379.87" width="2.28" height="2.32" fill="#d64545" opacity="0.55" />
<rect x="447.75" y="376.62" width="2.28" height="3.24" fill="#2f9e44" opacity="0.55" />
<rect x="451.03" y="369.34" width="2.28" height="10.53" fill="#2f9e44" opacity="0.55" />
<rect x="454.30" y="365.53" width="2.28" height="14.34" fill="#2f9e44" opacity="0.55" />
<rect x="457.58" y="362.43" width="2.28" height="17.44" fill="#2f9e44" opacity="0.55" />
<rect x="460.85" y="362.84" width="2.28" height="17.03" fill="#2f9e44" opacity="0.55" />
<rect x="464.12" y="364.36" width="2.28" height="15.51" fill="#2f9e44" opacity="0.55" />
<rect x="467.40" y="366.78" width="2.28" height="13.09" fill="#2f9e44" opacity="0.55" />
<rect x="470.67" y="367.36" width="2.28" height="12.50" fill="#2f9e44" opacity="0.55" />
<rect x="473.95" y="368.89" width="2.28" height="10.98" fill="#2f9e44" opacity="0.55" />
<rect x="477.22" y="371.04" width="2.28" height="8.82" fill="#2f9e44" opacity="0.55" />
<rect x="480.50" y="371.64" width="2.28" height="8.23" fill="#2f9e44" opacity="0.55" />
<rect x="483.77" y="375.28" width="2.28" height="4.59" fill="#2f9e44" opacity="0.55" />
<rect x="487.04" y="378.00" width="2.28" height="1.87" fill="#2f9e44" opacity="0.55" />
<rect x="490.32" y="379.83" width="2.28" height="0.03" fill="#2f9e44" opacity="0.55" />
<rect x="493.59" y="379.87" width="2.28" height="0.61" fill="#d64545" opacity="0.55" />
<rect x="496.87" y="379.87" width="2.28" height="2.88" fill="#d64545" opacity="0.55" />
<rect x="500.14" y="379.87" width="2.28" height="1.57" fill="#d64545" opacity="0.55" />
<rect x="503.41" y="379.87" width="2.28" height="1.30" fill="#d64545" opacity="0.55" />
<rect x="506.69" y="379.87" width="2.28" height="6.67" fill="#d64545" opacity="0.55" />
<rect x="509.96" y="379.87" width="2.28" height="6.17" fill="#d64545" opacity="0.55" />
<rect x="513.24" y="379.87" width="2.28" height="4.55" fill="#d64545" opacity="0.55" />
<rect x="516.51" y="379.87" width="2.28" height="1.40" fill="#d64545" opacity="0.55" />
<rect x="519.79" y="379.87" width="2.28" height="0.20" fill="#d64545" opacity="0.55" />
<rect x="523.06" y="377.93" width="2.28" height="1.93" fill="#2f9e44" opacity="0.55" />
<rect x="526.33" y="374.69" width="2.28" height="5.17" fill="#2f9e44" opacity="0.55" />
<rect x="529.61" y="372.31" width="2.28" height="7.56" fill="#2f9e44" opacity="0.55" />
<rect x="532.88" y="372.20" width="2.28" height="7.67" fill="#2f9e44" opacity="0.55" />
<rect x="536.16" y="376.36" width="2.28" height="3.51" fill="#2f9e44" opacity="0.55" />
<rect x="539.43" y="379.87" width="2.28" height="2.95" fill="#d64545" opacity="0.55" />
<rect x="542.70" y="379.87" width="2.28" height="11.09" fill="#d64545" opacity="0.55" />
<rect x="545.98" y="379.87" width="2.28" height="17.24" fill="#d64545" opacity="0.55" />
<rect x="549.25" y="379.87" width="2.28" height="11.01" fill="#d64545" opacity="0.55" />
<rect x="552.53" y="379.87" width="2.28" height="3.38" fill="#d64545" opacity="0.55" />
<rect x="555.80" y="379.29" width="2.28" height="0.58" fill="#2f9e44" opacity="0.55" />
<rect x="559.07" y="375.79" width="2.28" height="4.07" fill="#2f9e44" opacity="0.55" />
<rect x="562.35" y="375.92" width="2.28" height="3.95" fill="#2f9e44" opacity="0.55" />
<rect x="565.62" y="379.01" width="2.28" height="0.86" fill="#2f9e44" opacity="0.55" />
<rect x="568.90" y="379.53" width="2.28" height="0.34" fill="#2f9e44" opacity="0.55" />
<rect x="572.17" y="377.83" width="2.28" height="2.04" fill="#2f9e44" opacity="0.55" />
<rect x="575.45" y="376.94" width="2.28" height="2.93" fill="#2f9e44" opacity="0.55" />
<rect x="578.72" y="375.24" width="2.28" height="4.63" fill="#2f9e44" opacity="0.55" />
<rect x="581.99" y="373.27" width="2.28" height="6.60" fill="#2f9e44" opacity="0.55" />
<rect x="585.27" y="371.54" width="2.28" height="8.33" fill="#2f9e44" opacity="0.55" />
<rect x="588.54" y="369.11" width="2.28" height="10.76" fill="#2f9e44" opacity="0.55" />
<rect x="591.82" y="375.48" width="2.28" height="4.39" fill="#2f9e44" opacity="0.55" />
<rect x="595.09" y="379.87" width="2.28" height="5.16" fill="#d64545" opacity="0.55" />
<rect x="598.36" y="379.87" width="2.28" height="7.36" fill="#d64545" opacity="0.55" />
<rect x="601.64" y="379.87" width="2.28" height="10.07" fill="#d64545" opacity="0.55" />
<rect x="604.91" y="379.87" width="2.28" height="9.25" fill="#d64545" opacity="0.55" />
<rect x="608.19" y="379.87" width="2.28" height="8.07" fill="#d64545" opacity="0.55" />
<rect x="611.46" y="379.87" width="2.28" height="10.66" fill="#d64545" opacity="0.55" />
<rect x="614.73" y="379.87" width="2.28" height="8.42" fill="#d64545" opacity="0.55" />
<rect x="618.01" y="379.87" width="2.28" height="5.10" fill="#d64545" opacity="0.55" />
<rect x="621.28" y="379.87" width="2.28" height="1.83" fill="#d64545" opacity="0.55" />
<rect x="624.56" y="379.87" width="2.28" height="1.60" fill="#d64545" opacity="0.55" />
<rect x="627.83" y="379.87" width="2.28" height="3.27" fill="#d64545" opacity="0.55" />
<rect x="631.11" y="379.87" width="2.28" height="2.06" fill="#d64545" opacity="0.55" />
<rect x="634.38" y="379.87" width="2.28" height="2.00" fill="#d64545" opacity="0.55" />
<rect x="637.65" y="379.87" width="2.28" height="2.82" fill="#d64545" opacity="0.55" />
<rect x="640.93" y="379.87" width="2.28" height="4.35" fill="#d64545" opacity="0.55" />
<rect x="644.20" y="379.87" width="2.28" height="8.96" fill="#d64545" opacity="0.55" />
<rect x="647.48" y="379.87" width="2.28" height="9.28" fill="#d64545" opacity="0.55" />
<rect x="650.75" y="379.87" width="2.28" height="9.15" fill="#d64545" opacity="0.55" />
<rect x="654.02" y="379.87" width="2.28" height="6.08" fill="#d64545" opacity="0.55" />
<rect x="657.30" y="379.87" width="2.28" height="8.71" fill="#d64545" opacity="0.55" />
<rect x="660.57" y="379.87" width="2.28" height="12.24" fill="#d64545" opacity="0.55" />
<rect x="663.85" y="379.87" width="2.28" height="15.19" fill="#d64545" opacity="0.55" />
<rect x="667.12" y="379.87" width="2.28" height="9.73" fill="#d64545" opacity="0.55" />
<rect x="670.40" y="379.87" width="2.28" height="4.60" fill="#d64545" opacity="0.55" />
<rect x="673.67" y="379.62" width="2.28" height="0.25" fill="#2f9e44" opacity="0.55" />
<rect x="676.94" y="376.14" width="2.28" height="3.73" fill="#2f9e44" opacity="0.55" />
<rect x="680.22" y="373.56" width="2.28" height="6.31" fill="#2f9e44" opacity="0.55" />
<rect x="683.49" y="369.32" width="2.28" height="10.55" fill="#2f9e44" opacity="0.55" />
<rect x="686.77" y="365.73" width="2.28" height="14.14" fill="#2f9e44" opacity="0.55" />
<rect x="690.04" y="360.81" width="2.28" height="19.05" fill="#2f9e44" opacity="0.55" />
<rect x="693.31" y="358.11" width="2.28" height="21.76" fill="#2f9e44" opacity="0.55" />
<rect x="696.59" y="352.55" width="2.28" height="27.31" fill="#2f9e44" opacity="0.55" />
<rect x="699.86" y="348.85" width="2.28" height="31.01" fill="#2f9e44" opacity="0.55" />
<rect x="703.14" y="348.53" width="2.28" height="31.33" fill="#2f9e44" opacity="0.55" />
<rect x="706.41" y="347.81" width="2.28" height="32.06" fill="#2f9e44" opacity="0.55" />
<rect x="709.68" y="348.94" width="2.28" height="30.93" fill="#2f9e44" opacity="0.55" />
<rect x="712.96" y="352.99" width="2.28" height="26.88" fill="#2f9e44" opacity="0.55" />
<rect x="716.23" y="355.46" width="2.28" height="24.41" fill="#2f9e44" opacity="0.55" />
<rect x="719.51" y="360.57" width="2.28" height="19.29" fill="#2f9e44" opacity="0.55" />
<rect x="722.78" y="359.33" width="2.28" height="20.53" fill="#2f9e44" opacity="0.55" />
<rect x="726.06" y="354.41" width="2.28" height="25.45" fill="#2f9e44" opacity="0.55" />
<rect x="729.33" y="355.50" width="2.28" height="24.36" fill="#2f9e44" opacity="0.55" />
<rect x="732.60" y="360.68" width="2.28" height="19.19" fill="#2f9e44" opacity="0.55" />
<rect x="735.88" y="372.10" width="2.28" height="7.76" fill="#2f9e44" opacity="0.55" />
<rect x="739.15" y="379.87" width="2.28" height="1.18" fill="#d64545" opacity="0.55" />
<rect x="742.43" y="379.87" width="2.28" height="7.32" fill="#d64545" opacity="0.55" />
<rect x="745.70" y="379.87" width="2.28" height="12.73" fill="#d64545" opacity="0.55" />
<rect x="748.97" y="379.87" width="2.28" height="8.34" fill="#d64545" opacity="0.55" />
<rect x="752.25" y="379.87" width="2.28" height="3.20" fill="#d64545" opacity="0.55" />
<rect x="755.52" y="377.72" width="2.28" height="2.15" fill="#2f9e44" opacity="0.55" />
<rect x="758.80" y="372.15" width="2.28" height="7.72" fill="#2f9e44" opacity="0.55" />
<rect x="762.07" y="368.72" width="2.28" height="11.15" fill="#2f9e44" opacity="0.55" />
<rect x="765.34" y="364.31" width="2.28" height="15.55" fill="#2f9e44" opacity="0.55" />
<rect x="768.62" y="356.27" width="2.28" height="23.60" fill="#2f9e44" opacity="0.55" />
<rect x="771.89" y="360.22" width="2.28" height="19.65" fill="#2f9e44" opacity="0.55" />
<rect x="775.17" y="366.49" width="2.28" height="13.38" fill="#2f9e44" opacity="0.55" />
<rect x="778.44" y="373.04" width="2.28" height="6.83" fill="#2f9e44" opacity="0.55" />
<rect x="781.72" y="376.33" width="2.28" height="3.54" fill="#2f9e44" opacity="0.55" />
<rect x="784.99" y="379.87" width="2.28" height="2.18" fill="#d64545" opacity="0.55" />
<rect x="788.26" y="379.87" width="2.28" height="9.26" fill="#d64545" opacity="0.55" />
<rect x="791.54" y="379.87" width="2.28" height="14.29" fill="#d64545" opacity="0.55" />
<rect x="794.81" y="379.87" width="2.28" height="18.95" fill="#d64545" opacity="0.55" />
<rect x="798.09" y="379.87" width="2.28" height="20.43" fill="#d64545" opacity="0.55" />
<rect x="801.36" y="379.87" width="2.28" height="23.03" fill="#d64545" opacity="0.55" />
<rect x="804.63" y="379.87" width="2.28" height="15.06" fill="#d64545" opacity="0.55" />
<rect x="807.91" y="379.87" width="2.28" height="10.87" fill="#d64545" opacity="0.55" />
<rect x="811.18" y="379.87" width="2.28" height="13.67" fill="#d64545" opacity="0.55" />
<rect x="814.46" y="379.87" width="2.28" height="12.37" fill="#d64545" opacity="0.55" />
<rect x="817.73" y="379.87" width="2.28" height="20.58" fill="#d64545" opacity="0.55" />
<rect x="821.01" y="379.87" width="2.28" height="22.66" fill="#d64545" opacity="0.55" />
<rect x="824.28" y="379.87" width="2.28" height="23.44" fill="#d64545" opacity="0.55" />
<rect x="827.55" y="379.87" width="2.28" height="28.29" fill="#d64545" opacity="0.55" />
<rect x="830.83" y="379.87" width="2.28" height="27.07" fill="#d64545" opacity="0.55" />
<rect x="834.10" y="379.87" width="2.28" height="24.85" fill="#d64545" opacity="0.55" />
<rect x="837.38" y="379.87" width="2.28" height="17.35" fill="#d64545" opacity="0.55" />
<rect x="840.65" y="379.87" width="2.28" height="15.25" fill="#d64545" opacity="0.55" />
<rect x="843.92" y="379.87" width="2.28" height="15.06" fill="#d64545" opacity="0.55" />
<rect x="847.20" y="379.87" width="2.28" height="10.07" fill="#d64545" opacity="0.55" />
<rect x="850.47" y="379.87" width="2.28" height="7.79" fill="#d64545" opacity="0.55" />
<rect x="853.75" y="379.87" width="2.28" height="11.78" fill="#d64545" opacity="0.55" />
<rect x="857.02" y="379.87" width="2.28" height="14.32" fill="#d64545" opacity="0.55" />
<rect x="860.29" y="379.87" width="2.28" height="17.30" fill="#d64545" opacity="0.55" />
<rect x="863.57" y="379.87" width="2.28" height="20.32" fill="#d64545" opacity="0.55" />
<rect x="866.84" y="379.87" width="2.28" height="19.32" fill="#d64545" opacity="0.55" />
<rect x="870.12" y="379.87" width="2.28" height="13.98" fill="#d64545" opacity="0.55" />
<rect x="873.39" y="379.87" width="2.28" height="11.37" fill="#d64545" opacity="0.55" />
<rect x="876.67" y="379.87" width="2.28" height="10.74" fill="#d64545" opacity="0.55" />
<rect x="879.94" y="379.87" width="2.28" height="8.99" fill="#d64545" opacity="0.55" />
<rect x="883.21" y="379.87" width="2.28" height="6.17" fill="#d64545" opacity="0.55" />
<rect x="886.49" y="378.73" width="2.28" height="1.13" fill="#2f9e44" opacity="0.55" />
<rect x="889.76" y="374.80" width="2.28" height="5.07" fill="#2f9e44" opacity="0.55" />
<rect x="893.04" y="366.72" width="2.28" height="13.14" fill="#2f9e44" opacity="0.55" />
<rect x="896.31" y="367.12" width="2.28" height="12.75" fill="#2f9e44" opacity="0.55" />
<rect x="899.58" y="362.15" width="2.28" height="17.71" fill="#2f9e44" opacity="0.55" />
<rect x="902.86" y="359.28" width="2.28" height="20.59" fill="#2f9e44" opacity="0.55" />
<polyline fill="none" stroke="#1f77b4" stroke-width="2" points="137.85,330.70 141.13,329.04 144.40,328.87 147.68,328.39 150.95,329.93 154.22,331.33 157.50,334.32 160.77,335.86 164.05,342.97 167.32,349.17 170.59,354.73 173.87,356.81 177.14,357.17 180.42,356.04 183.69,355.58 186.97,356.70 190.24,362.93 193.51,370.89 196.79,377.36 200.06,381.57 203.34,388.79 206.61,393.26 209.88,394.52 213.16,389.77 216.43,386.06 219.71,382.53 222.98,379.80 226.25,380.09 229.53,384.22 232.80,382.35 236.08,380.49 239.35,373.14 242.63,371.85 245.90,372.17 249.17,371.90 252.45,371.36 255.72,367.92 259.00,361.35 262.27,355.86 265.54,350.42 268.82,347.58 272.09,347.49 275.37,348.21 278.64,345.68 281.92,341.15 285.19,346.03 288.46,345.86 291.74,353.14 295.01,359.33 298.29,362.73 301.56,364.39 304.83,366.36 308.11,369.31 311.38,372.50 314.66,373.48 317.93,370.84 321.20,364.44 324.48,351.51 327.75,336.60 331.03,328.93 334.30,323.84 337.58,316.77 340.85,318.90 344.12,324.21 347.40,335.06 350.67,344.01 353.95,342.18 357.22,346.18 360.49,349.15 363.77,357.72 367.04,361.87 370.32,368.36 373.59,378.02 376.86,381.23 380.14,388.72 383.41,395.99 386.69,398.38 389.96,404.05 393.24,406.15 396.51,410.27 399.78,410.66 403.06,409.32 406.33,409.51 409.61,406.11 412.88,403.96 416.15,399.34 419.43,395.99 422.70,394.19 425.98,395.04 429.25,400.54 432.53,403.54 435.80,404.41 439.07,410.56 442.35,412.32 445.62,407.51 448.90,401.14 452.17,391.22 455.44,383.83 458.72,376.36 461.99,372.51 465.27,370.16 468.54,369.31 471.81,366.77 475.09,365.55 478.36,365.50 481.64,364.04 484.91,366.53 488.19,368.78 491.46,370.61 494.73,371.41 498.01,374.39 501.28,373.48 504.56,373.53 507.83,380.57 511.10,381.62 514.38,381.13 517.65,378.33 520.93,377.18 524.20,374.56 527.47,370.03 530.75,365.75 534.02,363.73 537.30,367.01 540.57,374.20 543.85,385.12 547.12,395.57 550.39,392.10 553.67,385.32 556.94,381.21 560.22,376.70 563.49,375.84 566.76,378.71 570.04,379.15 573.31,376.94 576.59,375.31 579.86,372.46 583.14,368.84 586.41,365.03 589.68,359.91 592.96,365.18 596.23,376.02 599.51,380.06 602.78,385.28 606.05,386.78 609.33,387.62 612.60,392.87 615.88,392.74 619.15,390.69 622.42,387.88 625.70,388.05 628.97,390.53 632.25,389.84 635.52,390.28 638.80,391.80 642.07,394.42 645.34,401.28 648.62,403.91 651.89,406.07 655.17,404.52 658.44,409.33 661.71,415.92 664.99,422.67 668.26,419.63 671.54,415.66 674.81,410.75 678.08,406.33 681.36,402.18 684.63,395.30 687.91,388.18 691.18,378.50 694.46,370.35 697.73,357.97 701.00,346.52 704.28,338.36 707.55,329.62 710.83,323.02 714.10,320.35 717.37,316.72 720.65,317.01 723.92,310.64 727.20,299.35 730.47,294.35 733.75,294.73 737.02,304.22 740.29,313.46 743.57,321.43 746.84,330.02 750.12,327.71 753.39,323.38 756.66,317.48 759.94,309.98 763.21,303.76 766.49,295.47 769.76,281.53 773.03,280.57 776.31,283.50 779.58,288.34 782.86,290.74 786.13,297.01 789.41,306.41 792.68,315.01 795.95,324.40 799.23,330.99 802.50,339.35 805.78,335.15 809.05,333.67 812.32,339.88 815.60,341.68 818.87,355.03 822.15,362.78 825.42,369.42 828.69,381.34 831.97,386.89 835.24,390.88 838.52,387.72 841.79,389.43 845.07,393.01 848.34,390.53 851.61,390.20 854.89,397.14 858.16,403.26 861.44,410.56 864.71,418.65 867.98,422.48 871.26,420.65 874.53,420.88 877.81,422.93 881.08,423.43 884.36,422.15 887.63,414.56 890.90,409.36 894.18,398.00 897.45,395.20 900.73,385.81 904.00,377.79" />
<polyline fill="none" stroke="#ff7f0e" stroke-width="2" points="137.85,330.70 141.13,330.37 144.40,330.07 147.68,329.73 150.95,329.77 154.22,330.08 157.50,330.93 160.77,331.92 164.05,334.13 167.32,337.14 170.59,340.65 173.87,343.89 177.14,346.54 180.42,348.44 183.69,349.87 186.97,351.24 190.24,353.57 193.51,357.04 196.79,361.10 200.06,365.20 203.34,369.92 206.61,374.58 209.88,378.57 213.16,380.81 216.43,381.86 219.71,382.00 222.98,381.56 226.25,381.26 229.53,381.85 232.80,381.95 236.08,381.66 239.35,379.96 242.63,378.34 245.90,377.10 249.17,376.06 252.45,375.12 255.72,373.68 259.00,371.22 262.27,368.14 265.54,364.60 268.82,361.20 272.09,358.45 275.37,356.40 278.64,354.26 281.92,351.64 285.19,350.52 288.46,349.58 291.74,350.30 295.01,352.10 298.29,354.23 301.56,356.26 304.83,358.28 308.11,360.49 311.38,362.89 314.66,365.01 317.93,366.17 321.20,365.83 324.48,362.96 327.75,357.69 331.03,351.94 334.30,346.32 337.58,340.41 340.85,336.11 344.12,333.73 347.40,334.00 350.67,336.00 353.95,337.24 357.22,339.02 360.49,341.05 363.77,344.38 367.04,347.88 370.32,351.98 373.59,357.19 376.86,362.00 380.14,367.34 383.41,373.07 386.69,378.13 389.96,383.32 393.24,387.88 396.51,392.36 399.78,396.02 403.06,398.68 406.33,400.85 409.61,401.90 412.88,402.31 416.15,401.72 419.43,400.57 422.70,399.30 425.98,398.44 429.25,398.86 432.53,399.80 435.80,400.72 439.07,402.69 442.35,404.62 445.62,405.19 448.90,404.38 452.17,401.75 455.44,398.17 458.72,393.81 461.99,389.55 465.27,385.67 468.54,382.40 471.81,379.27 475.09,376.53 478.36,374.32 481.64,372.26 484.91,371.12 488.19,370.65 491.46,370.64 494.73,370.79 498.01,371.51 501.28,371.91 504.56,372.23 507.83,373.90 511.10,375.44 514.38,376.58 517.65,376.93 520.93,376.98 524.20,376.50 527.47,375.20 530.75,373.31 534.02,371.40 537.30,370.52 540.57,371.26 543.85,374.03 547.12,378.34 550.39,381.09 553.67,381.94 556.94,381.79 560.22,380.77 563.49,379.79 566.76,379.57 570.04,379.49 573.31,378.98 576.59,378.24 579.86,377.09 583.14,375.44 586.41,373.36 589.68,370.67 592.96,369.57 596.23,370.86 599.51,372.70 602.78,375.22 606.05,377.53 609.33,379.55 612.60,382.21 615.88,384.32 619.15,385.59 622.42,386.05 625.70,386.45 628.97,387.27 632.25,387.78 635.52,388.28 638.80,388.98 642.07,390.07 645.34,392.31 648.62,394.63 651.89,396.92 655.17,398.44 658.44,400.62 661.71,403.68 664.99,407.48 668.26,409.91 671.54,411.06 674.81,411.00 678.08,410.06 681.36,408.49 684.63,405.85 687.91,402.31 691.18,397.55 694.46,392.11 697.73,385.28 701.00,377.53 704.28,369.70 707.55,361.68 710.83,353.95 714.10,347.23 717.37,341.13 720.65,336.30 723.92,331.17 727.20,324.81 730.47,318.72 733.75,313.92 737.02,311.98 740.29,312.27 743.57,314.11 746.84,317.29 750.12,319.37 753.39,320.17 756.66,319.64 759.94,317.71 763.21,314.92 766.49,311.03 769.76,305.13 773.03,300.22 776.31,296.87 779.58,295.17 782.86,294.28 786.13,294.83 789.41,297.14 792.68,300.72 795.95,305.45 799.23,310.56 802.50,316.32 805.78,320.08 809.05,322.80 812.32,326.22 815.60,329.31 818.87,334.45 822.15,340.12 825.42,345.98 828.69,353.05 831.97,359.82 835.24,366.03 838.52,370.37 841.79,374.18 845.07,377.94 848.34,380.46 851.61,382.41 854.89,385.35 858.16,388.93 861.44,393.26 864.71,398.34 867.98,403.17 871.26,406.66 874.53,409.51 877.81,412.19 881.08,414.44 884.36,415.98 887.63,415.70 890.90,414.43 894.18,411.14 897.45,407.96 900.73,403.53 904.00,398.38" />
<text x="754.00" y="290.00" font-size="13" font-family="Arial" fill="#1f77b4" text-anchor="start">MACD</text>
<text x="818.00" y="290.00" font-size="13" font-family="Arial" fill="#ff7f0e" text-anchor="start">Signal</text>
<line x1="56" y1="624" x2="904" y2="624" stroke="#cbd2d9" />
<line x1="56" y1="484" x2="56" y2="624" stroke="#cbd2d9" />
<text x="16.00" y="476.00" font-size="12" font-family="Arial" fill="#52606d" text-anchor="start">KD</text>
<line x1="56" y1="624.00" x2="904" y2="624.00" stroke="#edf2f7" />
<line x1="52" y1="624.00" x2="56" y2="624.00" stroke="#9fb3c8" />
<text x="48.00" y="628.00" font-size="11" font-family="Arial" fill="#52606d" text-anchor="end">-5.00</text>
<line x1="56" y1="577.33" x2="904" y2="577.33" stroke="#edf2f7" />
<line x1="52" y1="577.33" x2="56" y2="577.33" stroke="#9fb3c8" />
<text x="48.00" y="581.33" font-size="11" font-family="Arial" fill="#52606d" text-anchor="end">31.7</text>
<line x1="56" y1="530.67" x2="904" y2="530.67" stroke="#edf2f7" />
<line x1="52" y1="530.67" x2="56" y2="530.67" stroke="#9fb3c8" />
<text x="48.00" y="534.67" font-size="11" font-family="Arial" fill="#52606d" text-anchor="end">68.3</text>
<line x1="56" y1="484.00" x2="904" y2="484.00" stroke="#edf2f7" />
<line x1="52" y1="484.00" x2="56" y2="484.00" stroke="#9fb3c8" />
<text x="48.00" y="488.00" font-size="11" font-family="Arial" fill="#52606d" text-anchor="end">105</text>
<line x1="56.00" y1="624" x2="56.00" y2="628" stroke="#9fb3c8" />
<text x="56.00" y="642.00" font-size="11" font-family="Arial" fill="#52606d" text-anchor="middle">07/02</text>
<line x1="226.25" y1="624" x2="226.25" y2="628" stroke="#9fb3c8" />
<text x="226.25" y="642.00" font-size="11" font-family="Arial" fill="#52606d" text-anchor="middle">09/16</text>
<line x1="396.51" y1="624" x2="396.51" y2="628" stroke="#9fb3c8" />
<text x="396.51" y="642.00" font-size="11" font-family="Arial" fill="#52606d" text-anchor="middle">11/28</text>
<line x1="563.49" y1="624" x2="563.49" y2="628" stroke="#9fb3c8" />
<text x="563.49" y="642.00" font-size="11" font-family="Arial" fill="#52606d" text-anchor="middle">02/12</text>
<line x1="733.75" y1="624" x2="733.75" y2="628" stroke="#9fb3c8" />
<text x="733.75" y="642.00" font-size="11" font-family="Arial" fill="#52606d" text-anchor="middle">04/29</text>
<line x1="904.00" y1="624" x2="904.00" y2="628" stroke="#9fb3c8" />
<text x="904.00" y="642.00" font-size="11" font-family="Arial" fill="#52606d" text-anchor="middle">07/15</text>
<line x1="56" y1="592.18" x2="904" y2="592.18" stroke="#f0b429" stroke-dasharray="5 5" />
<text x="912.00" y="596.18" font-size="10" font-family="Arial" fill="#8d2b0b" text-anchor="start">20.0</text>
<line x1="56" y1="515.82" x2="904" y2="515.82" stroke="#f0b429" stroke-dasharray="5 5" />
<text x="912.00" y="519.82" font-size="10" font-family="Arial" fill="#8d2b0b" text-anchor="start">80.0</text>
<polyline fill="none" stroke="#2ca02c" stroke-width="2" points="82.19,537.00 85.47,525.00 88.74,516.96 92.02,513.63 95.29,515.91 98.56,532.38 101.84,531.20 105.11,520.16 108.39,516.30 111.66,509.31 114.93,514.76 118.21,509.00 121.48,515.63 124.76,529.44 128.03,526.21 131.31,532.30 134.58,532.40 137.85,529.33 141.13,520.99 144.40,517.52 147.68,513.35 150.95,515.46 154.22,518.60 157.50,530.30 160.77,530.97 164.05,560.25 167.32,562.16 170.59,564.56 173.87,558.03 177.14,547.78 180.42,533.09 183.69,523.59 186.97,524.81 190.24,541.81 193.51,558.89 196.79,570.67 200.06,575.97 203.34,584.18 206.61,586.98 209.88,583.76 213.16,567.97 216.43,550.83 219.71,537.71 222.98,529.14 226.25,530.93 229.53,544.12 232.80,539.56 236.08,535.18 239.35,523.33 242.63,529.02 245.90,536.65 249.17,539.85 252.45,540.67 255.72,531.61 259.00,520.83 262.27,513.89 265.54,511.73 268.82,513.30 272.09,519.26 275.37,524.41 278.64,518.80 281.92,517.75 285.19,546.70 288.46,551.50 291.74,573.27 295.01,582.71 298.29,584.43 301.56,582.31 304.83,582.24 308.11,585.62 311.38,588.89 314.66,582.05 317.93,557.22 321.20,537.03 324.48,525.30 327.75,520.13 331.03,521.66 334.30,523.15 337.58,518.89 340.85,527.39 344.12,540.53 347.40,563.83 350.67,570.29 353.95,560.72 357.22,561.37 360.49,560.97 363.77,569.77 367.04,567.07 370.32,570.76 373.59,581.91 376.86,578.95 380.14,590.25 383.41,588.86 386.69,581.19 389.96,580.44 393.24,576.03 396.51,578.31 399.78,575.15 403.06,570.58 406.33,570.53 409.61,550.40 412.88,539.53 416.15,529.30 419.43,525.96 422.70,527.26 425.98,536.56 429.25,562.99 432.53,576.59 435.80,581.13 439.07,592.29 442.35,592.06 445.62,571.79 448.90,550.28 452.17,531.09 455.44,519.63 458.72,514.41 461.99,515.30 465.27,517.19 468.54,521.29 471.81,522.00 475.09,533.04 478.36,544.98 481.64,552.88 484.91,569.74 488.19,581.60 491.46,586.83 494.73,586.85 498.01,590.11 501.28,579.37 504.56,572.71 507.83,586.94 511.10,579.03 514.38,568.74 517.65,552.53 520.93,545.68 524.20,534.35 527.47,522.75 530.75,515.17 534.02,515.93 537.30,531.42 540.57,551.12 543.85,569.41 547.12,584.33 550.39,569.83 553.67,551.81 556.94,542.50 560.22,533.57 563.49,532.19 566.76,539.01 570.04,539.51 573.31,534.20 576.59,532.92 579.86,530.66 583.14,524.79 586.41,517.15 589.68,513.53 592.96,535.62 596.23,561.77 599.51,566.34 602.78,573.86 606.05,573.36 609.33,572.48 612.60,582.06 615.88,579.55 619.15,570.86 622.42,549.93 625.70,545.42 628.97,553.73 632.25,551.31 635.52,553.81 638.80,560.34 642.07,570.54 645.34,584.32 648.62,586.24 651.89,588.60 655.17,581.59 658.44,593.84 661.71,601.05 664.99,605.01 668.26,584.37 671.54,567.24 674.81,551.72 678.08,540.74 681.36,532.28 684.63,525.16 687.91,516.72 691.18,510.56 694.46,505.50 697.73,500.84 701.00,499.92 704.28,500.36 707.55,497.41 710.83,495.73 714.10,499.89 717.37,497.83 720.65,505.71 723.92,506.74 727.20,502.23 730.47,506.16 733.75,517.82 737.02,546.51 740.29,567.85 743.57,577.71 746.84,588.08 750.12,573.26 753.39,556.33 756.66,539.59 759.94,527.98 763.21,520.16 766.49,513.14 769.76,506.64 773.03,513.24 776.31,521.81 779.58,534.19 782.86,543.49 786.13,558.16 789.41,577.44 792.68,586.33 795.95,591.30 799.23,590.33 802.50,595.21 805.78,567.78 809.05,559.52 812.32,568.57 815.60,567.09 818.87,582.77 822.15,587.85 825.42,586.38 828.69,595.41 831.97,595.70 835.24,595.47 838.52,579.17 841.79,576.61 845.07,575.78 848.34,553.72 851.61,548.06 854.89,569.79 858.16,579.84 861.44,585.43 864.71,593.73 867.98,592.63 871.26,582.92 874.53,580.85 877.81,584.29 881.08,577.94 884.36,565.69 887.63,543.45 890.90,532.33 894.18,518.42 897.45,525.03 900.73,514.96 904.00,509.21" />
<polyline fill="none" stroke="#d62728" stroke-width="2" points="82.19,548.33 85.47,540.55 88.74,532.69 92.02,526.33 95.29,522.86 98.56,526.03 101.84,527.75 105.11,525.22 108.39,522.25 111.66,517.93 114.93,516.87 118.21,514.25 121.48,514.71 124.76,519.62 128.03,521.82 131.31,525.31 134.58,527.68 137.85,528.23 141.13,525.82 144.40,523.05 147.68,519.81 150.95,518.36 154.22,518.44 157.50,522.40 160.77,525.26 164.05,536.92 167.32,545.33 170.59,551.74 173.87,553.84 177.14,551.82 180.42,545.57 183.69,538.25 186.97,533.77 190.24,536.45 193.51,543.93 196.79,552.84 200.06,560.55 203.34,568.43 206.61,574.61 209.88,577.66 213.16,574.43 216.43,566.56 219.71,556.94 222.98,547.68 226.25,542.09 229.53,542.77 232.80,541.70 236.08,539.53 239.35,534.13 242.63,532.43 245.90,533.83 249.17,535.84 252.45,537.45 255.72,535.50 259.00,530.61 262.27,525.04 265.54,520.60 268.82,518.17 272.09,518.53 275.37,520.49 278.64,519.93 281.92,519.20 285.19,528.37 288.46,536.08 291.74,548.48 295.01,559.89 298.29,568.07 301.56,572.82 304.83,575.96 308.11,579.18 311.38,582.42 314.66,582.29 317.93,573.94 321.20,561.63 324.48,549.52 327.75,539.73 331.03,533.70 334.30,530.19 337.58,526.42 340.85,526.75 344.12,531.34 347.40,542.17 350.67,551.54 353.95,554.60 357.22,556.86 360.49,558.23 363.77,562.08 367.04,563.74 370.32,566.08 373.59,571.36 376.86,573.89 380.14,579.34 383.41,582.51 386.69,582.07 389.96,581.53 393.24,579.69 396.51,579.23 399.78,577.87 403.06,575.44 406.33,573.80 409.61,566.00 412.88,557.18 416.15,547.88 419.43,540.58 422.70,536.14 425.98,536.28 429.25,545.18 432.53,555.65 435.80,564.15 439.07,573.53 442.35,579.71 445.62,577.07 448.90,568.14 452.17,555.79 455.44,543.74 458.72,533.96 461.99,527.74 465.27,524.22 468.54,523.25 471.81,522.83 475.09,526.23 478.36,532.48 481.64,539.28 484.91,549.44 488.19,560.16 491.46,569.05 494.73,574.98 498.01,580.03 501.28,579.81 504.56,577.44 507.83,580.61 511.10,580.08 514.38,576.30 517.65,568.38 520.93,560.81 524.20,551.99 527.47,542.24 530.75,533.22 534.02,527.46 537.30,528.78 540.57,536.23 543.85,547.29 547.12,559.63 550.39,563.03 553.67,559.29 556.94,553.70 560.22,546.99 563.49,542.06 566.76,541.04 570.04,540.53 573.31,538.42 576.59,536.59 579.86,534.61 583.14,531.34 586.41,526.61 589.68,522.25 592.96,526.71 596.23,538.40 599.51,547.71 602.78,556.43 606.05,562.07 609.33,565.54 612.60,571.05 615.88,573.88 619.15,572.87 622.42,565.23 625.70,558.62 628.97,556.99 632.25,555.10 635.52,554.67 638.80,556.56 642.07,561.22 645.34,568.92 648.62,574.69 651.89,579.33 655.17,580.08 658.44,584.67 661.71,590.13 664.99,595.09 668.26,591.51 671.54,583.42 674.81,572.85 678.08,562.15 681.36,552.19 684.63,543.18 687.91,534.36 691.18,526.43 694.46,519.45 697.73,513.25 701.00,508.81 704.28,505.99 707.55,503.13 710.83,500.66 714.10,500.41 717.37,499.55 720.65,501.60 723.92,503.32 727.20,502.95 730.47,504.02 733.75,508.62 737.02,521.25 740.29,536.79 743.57,550.43 746.84,562.98 750.12,566.40 753.39,563.05 756.66,555.23 759.94,546.14 763.21,537.48 766.49,529.37 769.76,521.79 773.03,518.94 776.31,519.90 779.58,524.66 782.86,530.94 786.13,540.01 789.41,552.49 792.68,563.77 795.95,572.95 799.23,578.74 802.50,584.23 805.78,578.75 809.05,572.34 812.32,571.08 815.60,569.75 818.87,574.09 822.15,578.68 825.42,581.24 828.69,585.97 831.97,589.21 835.24,591.30 838.52,587.26 841.79,583.71 845.07,581.07 848.34,571.95 851.61,563.99 854.89,565.92 858.16,570.56 861.44,575.52 864.71,581.59 867.98,585.27 871.26,584.49 874.53,583.27 877.81,583.61 881.08,581.72 884.36,576.38 887.63,565.40 890.90,554.38 894.18,542.39 897.45,536.60 900.73,529.39 904.00,522.66" />
<text x="824.00" y="502.00" font-size="13" font-family="Arial" fill="#2ca02c" text-anchor="start">K</text>
<text x="860.00" y="502.00" font-size="13" font-family="Arial" fill="#d62728" text-anchor="start">D</text>
</svg>