<svg xmlns="http://www.w3.org/2000/svg" width="960" height="680" viewBox="0 0 960 680"><rect width="100%" height="100%" fill="white" />
<text x="56.00" y="32.00" font-size="20" font-family="Arial" fill="#1f2933" text-anchor="start">NVDA Technical Indicators</text>
<line x1="56" y1="220" x2="904" y2="220" stroke="#cbd2d9" />
<line x1="56" y1="58" x2="56" y2="220" stroke="#cbd2d9" />
<text x="16.00" y="50.00" font-size="12" font-family="Arial" fill="#52606d" text-anchor="start">RSI14</text>
<line x1="56" y1="220.00" x2="904" y2="220.00" stroke="#edf2f7" />
<line x1="52" y1="220.00" x2="56" y2="220.00" stroke="#9fb3c8" />
<text x="48.00" y="224.00" font-size="11" font-family="Arial" fill="#52606d" text-anchor="end">-5.00</text>
<line x1="56" y1="166.00" x2="904" y2="166.00" stroke="#edf2f7" />
<line x1="52" y1="166.00" x2="56" y2="166.00" stroke="#9fb3c8" />
<text x="48.00" y="170.00" font-size="11" font-family="Arial" fill="#52606d" text-anchor="end">31.7</text>
<line x1="56" y1="112.00" x2="904" y2="112.00" stroke="#edf2f7" />
<line x1="52" y1="112.00" x2="56" y2="112.00" stroke="#9fb3c8" />
<text x="48.00" y="116.00" font-size="11" font-family="Arial" fill="#52606d" text-anchor="end">68.3</text>
<line x1="56" y1="58.00" x2="904" y2="58.00" stroke="#edf2f7" />
<line x1="52" y1="58.00" x2="56" y2="58.00" stroke="#9fb3c8" />
<text x="48.00" y="62.00" font-size="11" font-family="Arial" fill="#52606d" text-anchor="end">105</text>
<line x1="56" y1="168.45" x2="904" y2="168.45" stroke="#f0b429" stroke-dasharray="5 5" />
<text x="912.00" y="172.45" font-size="10" font-family="Arial" fill="#8d2b0b" text-anchor="start">30.0</text>
<line x1="56" y1="109.55" x2="904" y2="109.55" stroke="#f0b429" stroke-dasharray="5 5" />
<text x="912.00" y="113.55" font-size="10" font-family="Arial" fill="#8d2b0b" text-anchor="start">70.0</text>
<polyline fill="none" stroke="#1f77b4" stroke-width="2" points="101.84,96.65 105.11,98.96 108.39,103.06 111.66,118.51 114.93,112.36 118.21,108.15 121.48,108.96 124.76,104.53 128.03,108.86 131.31,103.83 134.58,108.65 137.85,121.56 141.13,112.11 144.40,116.91 147.68,115.20 150.95,113.21 154.22,110.44 157.50,112.51 160.77,110.81 164.05,116.17 167.32,115.39 170.59,120.90 173.87,117.73 177.14,136.80 180.42,137.41 183.69,138.54 186.97,130.94 190.24,126.79 193.51,122.59 196.79,123.16 200.06,128.03 203.34,144.70 206.61,152.00 209.88,152.33 213.16,149.15 216.43,158.64 219.71,154.64 222.98,147.46 226.25,131.97 229.53,132.34 232.80,130.93 236.08,131.13 239.35,139.06 242.63,149.61 245.90,135.55 249.17,134.65 252.45,122.03 255.72,133.60 259.00,136.55 262.27,135.17 265.54,134.17 268.82,127.19 272.09,119.53 275.37,118.54 278.64,116.05 281.92,119.66 285.19,125.42 288.46,126.79 291.74,119.33 295.01,113.93 298.29,136.30 301.56,127.93 304.83,142.29 308.11,142.60 311.38,139.15 314.66,136.71 317.93,137.80 321.20,140.66 324.48,142.38 327.75,138.37 331.03,130.41 334.30,121.94 337.58,110.41 340.85,104.94 344.12,113.86 347.40,114.70 350.67,110.19 353.95,126.10 357.22,131.84 360.49,142.16 363.77,142.06 367.04,127.91 370.32,136.12 373.59,135.33 376.86,144.28 380.14,139.85 383.41,144.31 386.69,150.34 389.96,143.07 393.24,149.68 396.51,151.55 399.78,146.16 403.06,151.47 406.33,147.81 409.61,151.54 412.88,147.01 416.15,144.64 419.43,147.12 422.70,141.06 425.98,142.49 429.25,137.47 432.53,138.43 435.80,140.47 439.07,145.24 442.35,153.92 445.62,151.36 448.90,148.44 452.17,157.91 455.44,151.46 458.72,139.53 461.99,135.41 465.27,127.78 468.54,128.85 471.81,126.21 475.09,130.63 478.36,131.94 481.64,134.00 484.91,129.98 488.19,131.57 491.46,133.54 494.73,129.94 498.01,139.05 501.28,139.44 504.56,139.25 507.83,137.16 511.10,143.63 514.38,134.31 517.65,136.36 520.93,153.07 524.20,141.51 527.47,138.51 530.75,133.14 534.02,135.72 537.30,131.76 540.57,126.35 543.85,124.63 547.12,128.20 550.39,140.75 553.67,150.28 556.94,159.18 560.22,162.10 563.49,137.32 566.76,131.11 570.04,133.49 573.31,131.40 576.59,136.58 579.86,142.94 583.14,139.45 586.41,134.77 589.68,134.91 592.96,131.81 596.23,129.05 599.51,126.98 602.78,122.80 606.05,142.89 609.33,153.22 612.60,144.54 615.88,147.71 619.15,142.93 622.42,142.44 625.70,150.17 628.97,142.20 632.25,138.93 635.52,136.97 638.80,141.62 642.07,146.02 645.34,140.84 648.62,142.93 651.89,145.44 655.17,148.43 658.44,156.92 661.71,150.81 664.99,151.47 668.26,144.32 671.54,155.29 674.81,159.85 678.08,162.56 681.36,145.22 684.63,143.03 687.91,140.35 691.18,139.93 694.46,139.10 697.73,132.22 701.00,129.27 704.28,122.28 707.55,121.33 710.83,112.39 714.10,109.88 717.37,111.17 720.65,107.53 723.92,107.12 727.20,113.07 730.47,109.82 733.75,117.43 737.02,107.34 740.29,100.29 743.57,108.09 746.84,116.29 750.12,132.93 753.39,134.61 756.66,134.56 759.94,137.79 763.21,123.08 766.49,119.26 769.76,115.65 773.03,111.81 776.31,110.63 779.58,106.41 782.86,99.65 786.13,117.40 789.41,121.83 792.68,124.35 795.95,121.54 799.23,127.57 802.50,133.53 805.78,134.20 809.05,137.47 812.32,135.18 815.60,139.87 818.87,123.70 822.15,126.05 825.42,137.32 828.69,132.75 831.97,148.08 835.24,143.84 838.52,144.32 841.79,152.15 845.07,146.42 848.34,146.01 851.61,137.10 854.89,142.86 858.16,145.87 861.44,138.45 864.71,140.85 867.98,150.08 871.26,151.10 874.53,154.34 877.81,157.42 881.08,153.60 884.36,146.05 887.63,148.93 890.90,152.02 894.18,150.85 897.45,148.53 900.73,137.55 904.00,139.49" />
<text x="808.00" y="76.00" font-size="13" font-family="Arial" fill="#1f77b4" text-anchor="start">RSI14</text>
<line x1="56" y1="432" x2="904" y2="432" stroke="#cbd2d9" />
<line x1="56" y1="272" x2="56" y2="432" stroke="#cbd2d9" />
<text x="16.00" y="264.00" font-size="12" font-family="Arial" fill="#52606d" text-anchor="start">MACD</text>
<line x1="56" y1="432.00" x2="904" y2="432.00" stroke="#edf2f7" />
<line x1="52" y1="432.00" x2="56" y2="432.00" stroke="#9fb3c8" />
<text x="48.00" y="436.00" font-size="11" font-family="Arial" fill="#52606d" text-anchor="end">-4.94</text>
<line x1="56" y1="378.67" x2="904" y2="378.67" stroke="#edf2f7" />
<line x1="52" y1="378.67" x2="56" y2="378.67" stroke="#9fb3c8" />
<text x="48.00" y="382.67" font-size="11" font-family="Arial" fill="#52606d" text-anchor="end">0.09</text>
<line x1="56" y1="325.33" x2="904" y2="325.33" stroke="#edf2f7" />
<line x1="52" y1="325.33" x2="56" y2="325.33" stroke="#9fb3c8" />
<text x="48.00" y="329.33" font-size="11" font-family="Arial" fill="#52606d" text-anchor="end">5.12</text>
<line x1="56" y1="272.00" x2="904" y2="272.00" stroke="#edf2f7" />
<line x1="52" y1="272.00" x2="56" y2="272.00" stroke="#9fb3c8" />
<text x="48.00" y="276.00" font-size="11" font-family="Arial" fill="#52606d" text-anchor="end">10.1</text>
<line x1="56" y1="379.59" x2="904" y2="379.59" stroke="#9fb3c8" stroke-dasharray="4 4" />
<rect x="136.71" y="379.59" width="2.28" height="0.00" fill="#2f9e44" opacity="0.55" />
<rect x="139.99" y="378.03" width="2.28" height="1.56" fill="#2f9e44" opacity="0.55" />
<rect x="143.26" y="378.77" width="2.28" height="0.83" fill="#2f9e44" opacity="0.55" />
<rect x="146.53" y="378.94" width="2.28" height="0.65" fill="#2f9e44" opacity="0.55" />
<rect x="149.81" y="378.64" width="2.28" height="0.96" fill="#2f9e44" opacity="0.55" />
<rect x="153.08" y="377.65" width="2.28" height="1.95" fill="#2f9e44" opacity="0.55" />
<rect x="156.36" y="378.03" width="2.28" height="1.56" fill="#2f9e44" opacity="0.55" />
<rect x="159.63" y="378.08" width="2.28" height="1.52" fill="#2f9e44" opacity="0.55" />
<rect x="162.90" y="379.59" width="2.28" height="0.13" fill="#d64545" opacity="0.55" />
<rect x="166.18" y="379.59" width="2.28" height="1.34" fill="#d64545" opacity="0.55" />
<rect x="169.45" y="379.59" width="2.28" height="3.55" fill="#d64545" opacity="0.55" />
<rect x="172.73" y="379.59" width="2.28" height="4.16" fill="#d64545" opacity="0.55" />
<rect x="176.00" y="379.59" width="2.28" height="9.09" fill="#d64545" opacity="0.55" />
<rect x="179.28" y="379.59" width="2.28" height="12.30" fill="#d64545" opacity="0.55" />
<rect x="182.55" y="379.59" width="2.28" height="14.35" fill="#d64545" opacity="0.55" />
<rect x="185.82" y="379.59" width="2.28" height="13.22" fill="#d64545" opacity="0.55" />
<rect x="189.10" y="379.59" width="2.28" height="10.93" fill="#d64545" opacity="0.55" />
<rect x="192.37" y="379.59" width="2.28" height="7.91" fill="#d64545" opacity="0.55" />
<rect x="195.65" y="379.59" width="2.28" height="6.01" fill="#d64545" opacity="0.55" />
<rect x="198.92" y="379.59" width="2.28" height="5.76" fill="#d64545" opacity="0.55" />
<rect x="202.19" y="379.59" width="2.28" height="9.63" fill="#d64545" opacity="0.55" />
<rect x="205.47" y="379.59" width="2.28" height="14.10" fill="#d64545" opacity="0.55" />
<rect x="208.74" y="379.59" width="2.28" height="16.48" fill="#d64545" opacity="0.55" />
<rect x="212.02" y="379.59" width="2.28" height="16.59" fill="#d64545" opacity="0.55" />
<rect x="215.29" y="379.59" width="2.28" height="19.07" fill="#d64545" opacity="0.55" />
<rect x="218.57" y="379.59" width="2.28" height="18.85" fill="#d64545" opacity="0.55" />
<rect x="221.84" y="379.59" width="2.28" height="16.12" fill="#d64545" opacity="0.55" />
<rect x="225.11" y="379.59" width="2.28" height="9.14" fill="#d64545" opacity="0.55" />
<rect x="228.39" y="379.59" width="2.28" height="4.38" fill="#d64545" opacity="0.55" />
<rect x="231.66" y="379.59" width="2.28" height="0.72" fill="#d64545" opacity="0.55" />
<rect x="234.94" y="378.01" width="2.28" height="1.58" fill="#2f9e44" opacity="0.55" />
<rect x="238.21" y="378.58" width="2.28" height="1.01" fill="#2f9e44" opacity="0.55" />
<rect x="241.48" y="379.59" width="2.28" height="2.50" fill="#d64545" opacity="0.55" />
<rect x="244.76" y="379.59" width="2.28" height="0.53" fill="#d64545" opacity="0.55" />
<rect x="248.03" y="378.55" width="2.28" height="1.04" fill="#2f9e44" opacity="0.55" />
<rect x="251.31" y="372.91" width="2.28" height="6.68" fill="#2f9e44" opacity="0.55" />
<rect x="254.58" y="373.24" width="2.28" height="6.36" fill="#2f9e44" opacity="0.55" />
<rect x="257.85" y="374.78" width="2.28" height="4.81" fill="#2f9e44" opacity="0.55" />
<rect x="261.13" y="375.54" width="2.28" height="4.05" fill="#2f9e44" opacity="0.55" />
<rect x="264.40" y="375.93" width="2.28" height="3.67" fill="#2f9e44" opacity="0.55" />
<rect x="267.68" y="373.93" width="2.28" height="5.66" fill="#2f9e44" opacity="0.55" />
<rect x="270.95" y="369.83" width="2.28" height="9.76" fill="#2f9e44" opacity="0.55" />
<rect x="274.23" y="367.41" width="2.28" height="12.18" fill="#2f9e44" opacity="0.55" />
<rect x="277.50" y="365.52" width="2.28" height="14.07" fill="#2f9e44" opacity="0.55" />
<rect x="280.77" y="366.08" width="2.28" height="13.52" fill="#2f9e44" opacity="0.55" />
<rect x="284.05" y="368.71" width="2.28" height="10.88" fill="#2f9e44" opacity="0.55" />
<rect x="287.32" y="371.47" width="2.28" height="8.12" fill="#2f9e44" opacity="0.55" />
<rect x="290.60" y="371.08" width="2.28" height="8.51" fill="#2f9e44" opacity="0.55" />
<rect x="293.87" y="369.18" width="2.28" height="10.41" fill="#2f9e44" opacity="0.55" />
<rect x="297.14" y="375.16" width="2.28" height="4.43" fill="#2f9e44" opacity="0.55" />
<rect x="300.42" y="375.92" width="2.28" height="3.68" fill="#2f9e44" opacity="0.55" />
<rect x="303.69" y="379.59" width="2.28" height="2.88" fill="#d64545" opacity="0.55" />
<rect x="306.97" y="379.59" width="2.28" height="7.24" fill="#d64545" opacity="0.55" />
<rect x="310.24" y="379.59" width="2.28" height="8.51" fill="#d64545" opacity="0.55" />
<rect x="313.51" y="379.59" width="2.28" height="8.14" fill="#d64545" opacity="0.55" />
<rect x="316.79" y="379.59" width="2.28" height="8.08" fill="#d64545" opacity="0.55" />
<rect x="320.06" y="379.59" width="2.28" height="8.83" fill="#d64545" opacity="0.55" />
<rect x="323.34" y="379.59" width="2.28" height="9.60" fill="#d64545" opacity="0.55" />
<rect x="326.61" y="379.59" width="2.28" height="8.47" fill="#d64545" opacity="0.55" />
<rect x="329.89" y="379.59" width="2.28" height="4.67" fill="#d64545" opacity="0.55" />
<rect x="333.16" y="378.23" width="2.28" height="1.37" fill="#2f9e44" opacity="0.55" />
<rect x="336.43" y="368.19" width="2.28" height="11.41" fill="#2f9e44" opacity="0.55" />
<rect x="339.71" y="358.58" width="2.28" height="21.02" fill="#2f9e44" opacity="0.55" />
<rect x="342.98" y="356.66" width="2.28" height="22.93" fill="#2f9e44" opacity="0.55" />
<rect x="346.26" y="357.19" width="2.28" height="22.40" fill="#2f9e44" opacity="0.55" />
<rect x="349.53" y="356.03" width="2.28" height="23.56" fill="#2f9e44" opacity="0.55" />
<rect x="352.80" y="362.45" width="2.28" height="17.15" fill="#2f9e44" opacity="0.55" />
<rect x="356.08" y="370.12" width="2.28" height="9.48" fill="#2f9e44" opacity="0.55" />
<rect x="359.35" y="379.59" width="2.28" height="1.07" fill="#d64545" opacity="0.55" />
<rect x="362.63" y="379.59" width="2.28" height="8.00" fill="#d64545" opacity="0.55" />
<rect x="365.90" y="379.59" width="2.28" height="4.94" fill="#d64545" opacity="0.55" />
<rect x="369.18" y="379.59" width="2.28" height="7.14" fill="#d64545" opacity="0.55" />
<rect x="372.45" y="379.59" width="2.28" height="8.09" fill="#d64545" opacity="0.55" />
<rect x="375.72" y="379.59" width="2.28" height="13.30" fill="#d64545" opacity="0.55" />
<rect x="379.00" y="379.59" width="2.28" height="13.96" fill="#d64545" opacity="0.55" />
<rect x="382.27" y="379.59" width="2.28" height="16.34" fill="#d64545" opacity="0.55" />
<rect x="385.55" y="379.59" width="2.28" height="20.78" fill="#d64545" opacity="0.55" />
<rect x="388.82" y="379.59" width="2.28" height="19.19" fill="#d64545" opacity="0.55" />
<rect x="392.09" y="379.59" width="2.28" height="21.33" fill="#d64545" opacity="0.55" />
<rect x="395.37" y="379.59" width="2.28" height="22.86" fill="#d64545" opacity="0.55" />
<rect x="398.64" y="379.59" width="2.28" height="20.19" fill="#d64545" opacity="0.55" />
<rect x="401.92" y="379.59" width="2.28" height="20.68" fill="#d64545" opacity="0.55" />
<rect x="405.19" y="379.59" width="2.28" height="18.22" fill="#d64545" opacity="0.55" />
<rect x="408.46" y="379.59" width="2.28" height="17.86" fill="#d64545" opacity="0.55" />
<rect x="411.74" y="379.59" width="2.28" height="14.61" fill="#d64545" opacity="0.55" />
<rect x="415.01" y="379.59" width="2.28" height="10.61" fill="#d64545" opacity="0.55" />
<rect x="418.29" y="379.59" width="2.28" height="8.65" fill="#d64545" opacity="0.55" />
<rect x="421.56" y="379.59" width="2.28" height="4.20" fill="#d64545" opacity="0.55" />
<rect x="424.84" y="379.59" width="2.28" height="1.65" fill="#d64545" opacity="0.55" />
<rect x="428.11" y="377.23" width="2.28" height="2.37" fill="#2f9e44" opacity="0.55" />
<rect x="431.38" y="375.03" width="2.28" height="4.57" fill="#2f9e44" opacity="0.55" />
<rect x="434.66" y="374.51" width="2.28" height="5.09" fill="#2f9e44" opacity="0.55" />
<rect x="437.93" y="376.20" width="2.28" height="3.40" fill="#2f9e44" opacity="0.55" />
<rect x="441.21" y="379.59" width="2.28" height="1.68" fill="#d64545" opacity="0.55" />
<rect x="444.48" y="379.59" width="2.28" height="3.73" fill="#d64545" opacity="0.55" />
<rect x="447.75" y="379.59" width="2.28" height="3.68" fill="#d64545" opacity="0.55" />
<rect x="451.03" y="379.59" width="2.28" height="7.85" fill="#d64545" opacity="0.55" />
<rect x="454.30" y="379.59" width="2.28" height="7.68" fill="#d64545" opacity="0.55" />
<rect x="457.58" y="379.59" width="2.28" height="2.31" fill="#d64545" opacity="0.55" />
<rect x="460.85" y="376.36" width="2.28" height="3.24" fill="#2f9e44" opacity="0.55" />
<rect x="464.12" y="369.09" width="2.28" height="10.50" fill="#2f9e44" opacity="0.55" />
<rect x="467.40" y="365.30" width="2.28" height="14.30" fill="#2f9e44" opacity="0.55" />
<rect x="470.67" y="362.20" width="2.28" height="17.39" fill="#2f9e44" opacity="0.55" />
<rect x="473.95" y="362.61" width="2.28" height="16.98" fill="#2f9e44" opacity="0.55" />
<rect x="477.22" y="364.13" width="2.28" height="15.47" fill="#2f9e44" opacity="0.55" />
<rect x="480.50" y="366.54" width="2.28" height="13.05" fill="#2f9e44" opacity="0.55" />
<rect x="483.77" y="367.13" width="2.28" height="12.47" fill="#2f9e44" opacity="0.55" />
<rect x="487.04" y="368.64" width="2.28" height="10.95" fill="#2f9e44" opacity="0.55" />
<rect x="490.32" y="370.80" width="2.28" height="8.80" fill="#2f9e44" opacity="0.55" />
<rect x="493.59" y="371.39" width="2.28" height="8.20" fill="#2f9e44" opacity="0.55" />
<rect x="496.87" y="375.02" width="2.28" height="4.58" fill="#2f9e44" opacity="0.55" />
<rect x="500.14" y="377.73" width="2.28" height="1.86" fill="#2f9e44" opacity="0.55" />
<rect x="503.41" y="379.56" width="2.28" height="0.03" fill="#2f9e44" opacity="0.55" />
<rect x="506.69" y="379.59" width="2.28" height="0.61" fill="#d64545" opacity="0.55" />
<rect x="509.96" y="379.59" width="2.28" height="2.87" fill="#d64545" opacity="0.55" />
<rect x="513.24" y="379.59" width="2.28" height="1.57" fill="#d64545" opacity="0.55" />
<rect x="516.51" y="379.59" width="2.28" height="1.29" fill="#d64545" opacity="0.55" />
<rect x="519.79" y="379.59" width="2.28" height="6.65" fill="#d64545" opacity="0.55" />
<rect x="523.06" y="379.59" width="2.28" height="6.16" fill="#d64545" opacity="0.55" />
<rect x="526.33" y="379.59" width="2.28" height="4.54" fill="#d64545" opacity="0.55" />
<rect x="529.61" y="379.59" width="2.28" height="1.40" fill="#d64545" opacity="0.55" />
<rect x="532.88" y="379.59" width="2.28" height="0.20" fill="#d64545" opacity="0.55" />
<rect x="536.16" y="377.67" width="2.28" height="1.93" fill="#2f9e44" opacity="0.55" />
<rect x="539.43" y="374.44" width="2.28" height="5.16" fill="#2f9e44" opacity="0.55" />
<rect x="542.70" y="372.05" width="2.28" height="7.54" fill="#2f9e44" opacity="0.55" />
<rect x="545.98" y="371.95" width="2.28" height="7.65" fill="#2f9e44" opacity="0.55" />
<rect x="549.25" y="376.10" width="2.28" height="3.50" fill="#2f9e44" opacity="0.55" />
<rect x="552.53" y="379.59" width="2.28" height="2.94" fill="#d64545" opacity="0.55" />
<rect x="555.80" y="379.59" width="2.28" height="11.06" fill="#d64545" opacity="0.55" />
<rect x="559.07" y="379.59" width="2.28" height="17.19" fill="#d64545" opacity="0.55" />
<rect x="562.35" y="379.59" width="2.28" height="10.98" fill="#d64545" opacity="0.55" />
<rect x="565.62" y="379.59" width="2.28" height="3.37" fill="#d64545" opacity="0.55" />
<rect x="568.90" y="379.02" width="2.28" height="0.58" fill="#2f9e44" opacity="0.55" />
<rect x="572.17" y="375.53" width="2.28" height="4.06" fill="#2f9e44" opacity="0.55" />
<rect x="575.45" y="375.66" width="2.28" height="3.94" fill="#2f9e44" opacity="0.55" />
<rect x="578.72" y="378.74" width="2.28" height="0.86" fill="#2f9e44" opacity="0.55" />
<rect x="581.99" y="379.25" width="2.28" height="0.34" fill="#2f9e44" opacity="0.55" />
<rect x="585.27" y="377.56" width="2.28" height="2.03" fill="#2f9e44" opacity="0.55" />
<rect x="588.54" y="376.67" width="2.28" height="2.92" fill="#2f9e44" opacity="0.55" />
<rect x="591.82" y="374.98" width="2.28" height="4.61" fill="#2f9e44" opacity="0.55" />
<rect x="595.09" y="373.02" width="2.28" height="6.58" fill="#2f9e44" opacity="0.55" />
<rect x="598.36" y="371.29" width="2.28" height="8.30" fill="#2f9e44" opacity="0.55" />
<rect x="601.64" y="368.87" width="2.28" height="10.73" fill="#2f9e44" opacity="0.55" />
<rect x="604.91" y="375.22" width="2.28" height="4.37" fill="#2f9e44" opacity="0.55" />
<rect x="608.19" y="379.59" width="2.28" height="5.14" fill="#d64545" opacity="0.55" />
<rect x="611.46" y="379.59" width="2.28" height="7.34" fill="#d64545" opacity="0.55" />
<rect x="614.73" y="379.59" width="2.28" height="10.04" fill="#d64545" opacity="0.55" />
<rect x="618.01" y="379.59" width="2.28" height="9.22" fill="#d64545" opacity="0.55" />
<rect x="621.28" y="379.59" width="2.28" height="8.05" fill="#d64545" opacity="0.55" />
<rect x="624.56" y="379.59" width="2.28" height="10.63" fill="#d64545" opacity="0.55" />
<rect x="627.83" y="379.59" width="2.28" height="8.40" fill="#d64545" opacity="0.55" />
<rect x="631.11" y="379.59" width="2.28" height="5.08" fill="#d64545" opacity="0.55" />
<rect x="634.38" y="379.59" width="2.28" height="1.83" fill="#d64545" opacity="0.55" />
<rect x="637.65" y="379.59" width="2.28" height="1.59" fill="#d64545" opacity="0.55" />
<rect x="640.93" y="379.59" width="2.28" height="3.26" fill="#d64545" opacity="0.55" />
<rect x="644.20" y="379.59" width="2.28" height="2.05" fill="#d64545" opacity="0.55" />
<rect x="647.48" y="379.59" width="2.28" height="1.99" fill="#d64545" opacity="0.55" />
<rect x="650.75" y="379.59" width="2.28" height="2.81" fill="#d64545" opacity="0.55" />
<rect x="654.02" y="379.59" width="2.28" height="4.34" fill="#d64545" opacity="0.55" />
<rect x="657.30" y="379.59" width="2.28" height="8.94" fill="#d64545" opacity="0.55" />
<rect x="660.57" y="379.59" width="2.28" height="9.25" fill="#d64545" opacity="0.55" />
<rect x="663.85" y="379.59" width="2.28" height="9.13" fill="#d64545" opacity="0.55" />
<rect x="667.12" y="379.59" width="2.28" height="6.06" fill="#d64545" opacity="0.55" />
<rect x="670.40" y="379.59" width="2.28" height="8.69" fill="#d64545" opacity="0.55" />
<rect x="673.67" y="379.59" width="2.28" height="12.21" fill="#d64545" opacity="0.55" />
<rect x="676.94" y="379.59" width="2.28" height="15.15" fill="#d64545" opacity="0.55" />
<rect x="680.22" y="379.59" width="2.28" height="9.70" fill="#d64545" opacity="0.55" />
<rect x="683.49" y="379.59" width="2.28" height="4.59" fill="#d64545" opacity="0.55" />
<rect x="686.77" y="379.34" width="2.28" height="0.25" fill="#2f9e44" opacity="0.55" />
<rect x="690.04" y="375.87" width="2.28" height="3.72" fill="#2f9e44" opacity="0.55" />
<rect x="693.31" y="373.31" width="2.28" height="6.29" fill="#2f9e44" opacity="0.55" />
<rect x="696.59" y="369.07" width="2.28" height="10.52" fill="#2f9e44" opacity="0.55" />
<rect x="699.86" y="365.50" width="2.28" height="14.10" fill="#2f9e44" opacity="0.55" />
<rect x="703.14" y="360.59" width="2.28" height="19.00" fill="#2f9e44" opacity="0.55" />
<rect x="706.41" y="357.90" width="2.28" height="21.70" fill="#2f9e44" opacity="0.55" />
<rect x="709.68" y="352.36" width="2.28" height="27.24" fill="#2f9e44" opacity="0.55" />
<rect x="712.96" y="348.67" width="2.28" height="30.93" fill="#2f9e44" opacity="0.55" />
<rect x="716.23" y="348.35" width="2.28" height="31.25" fill="#2f9e44" opacity="0.55" />
<rect x="719.51" y="347.62" width="2.28" height="31.97" fill="#2f9e44" opacity="0.55" />
<rect x="722.78" y="348.75" width="2.28" height="30.84" fill="#2f9e44" opacity="0.55" />
<rect x="726.06" y="352.79" width="2.28" height="26.80" fill="#2f9e44" opacity="0.55" />
<rect x="729.33" y="355.25" width="2.28" height="24.35" fill="#2f9e44" opacity="0.55" />
<rect x="732.60" y="360.35" width="2.28" height="19.24" fill="#2f9e44" opacity="0.55" />
<rect x="735.88" y="359.12" width="2.28" height="20.48" fill="#2f9e44" opacity="0.55" />
<rect x="739.15" y="354.21" width="2.28" height="25.38" fill="#2f9e44" opacity="0.55" />
<rect x="742.43" y="355.30" width="2.28" height="24.30" fill="#2f9e44" opacity="0.55" />
<rect x="745.70" y="360.46" width="2.28" height="19.13" fill="#2f9e44" opacity="0.55" />
<rect x="748.97" y="371.85" width="2.28" height="7.74" fill="#2f9e44" opacity="0.55" />
<rect x="752.25" y="379.59" width="2.28" height="1.18" fill="#d64545" opacity="0.55" />
<rect x="755.52" y="379.59" width="2.28" height="7.30" fill="#d64545" opacity="0.55" />
<rect x="758.80" y="379.59" width="2.28" height="12.70" fill="#d64545" opacity="0.55" />
<rect x="762.07" y="379.59" width="2.28" height="8.31" fill="#d64545" opacity="0.55" />
<rect x="765.34" y="379.59" width="2.28" height="3.19" fill="#d64545" opacity="0.55" />
<rect x="768.62" y="377.45" width="2.28" height="2.15" fill="#2f9e44" opacity="0.55" />
<rect x="771.89" y="371.89" width="2.28" height="7.70" fill="#2f9e44" opacity="0.55" />
<rect x="775.17" y="368.47" width="2.28" height="11.12" fill="#2f9e44" opacity="0.55" />
<rect x="778.44" y="364.08" width="2.28" height="15.51" fill="#2f9e44" opacity="0.55" />
<rect x="781.72" y="356.06" width="2.28" height="23.53" fill="#2f9e44" opacity="0.55" />
<rect x="784.99" y="360.00" width="2.28" height="19.59" fill="#2f9e44" opacity="0.55" />
<rect x="788.26" y="366.25" width="2.28" height="13.34" fill="#2f9e44" opacity="0.55" />
<rect x="791.54" y="372.78" width="2.28" height="6.81" fill="#2f9e44" opacity="0.55" />
<rect x="794.81" y="376.07" width="2.28" height="3.53" fill="#2f9e44" opacity="0.55" />
<rect x="798.09" y="379.59" width="2.28" height="2.17" fill="#d64545" opacity="0.55" />
<rect x="801.36" y="379.59" width="2.28" height="9.24" fill="#d64545" opacity="0.55" />
<rect x="804.63" y="379.59" width="2.28" height="14.25" fill="#d64545" opacity="0.55" />
<rect x="807.91" y="379.59" width="2.28" height="18.90" fill="#d64545" opacity="0.55" />
<rect x="811.18" y="379.59" width="2.28" height="20.38" fill="#d64545" opacity="0.55" />
<rect x="814.46" y="379.59" width="2.28" height="22.97" fill="#d64545" opacity="0.55" />
<rect x="817.73" y="379.59" width="2.28" height="15.02" fill="#d64545" opacity="0.55" />
<rect x="821.01" y="379.59" width="2.28" height="10.84" fill="#d64545" opacity="0.55" />
<rect x="824.28" y="379.59" width="2.28" height="13.63" fill="#d64545" opacity="0.55" />
<rect x="827.55" y="379.59" width="2.28" height="12.50" fill="#d64545" opacity="0.55" />
<rect x="830.83" y="379.59" width="2.28" height="20.78" fill="#d64545" opacity="0.55" />
<rect x="834.10" y="379.59" width="2.28" height="22.90" fill="#d64545" opacity="0.55" />
<rect x="837.38" y="379.59" width="2.28" height="23.69" fill="#d64545" opacity="0.55" />
<rect x="840.65" y="379.59" width="2.28" height="28.51" fill="#d64545" opacity="0.55" />
<rect x="843.92" y="379.59" width="2.28" height="27.26" fill="#d64545" opacity="0.55" />
<rect x="847.20" y="379.59" width="2.28" height="25.01" fill="#d64545" opacity="0.55" />
<rect x="850.47" y="379.59" width="2.28" height="17.50" fill="#d64545" opacity="0.55" />
<rect x="853.75" y="379.59" width="2.28" height="15.37" fill="#d64545" opacity="0.55" />
<rect x="857.02" y="379.59" width="2.28" height="15.14" fill="#d64545" opacity="0.55" />
<rect x="860.29" y="379.59" width="2.28" height="10.13" fill="#d64545" opacity="0.55" />
<rect x="863.57" y="379.59" width="2.28" height="7.82" fill="#d64545" opacity="0.55" />
<rect x="866.84" y="379.59" width="2.28" height="11.77" fill="#d64545" opacity="0.55" />
<rect x="870.12" y="379.59" width="2.28" height="14.28" fill="#d64545" opacity="0.55" />
<rect x="873.39" y="379.59" width="2.28" height="17.22" fill="#d64545" opacity="0.55" />
<rect x="876.67" y="379.59" width="2.28" height="20.20" fill="#d64545" opacity="0.55" />
<rect x="879.94" y="379.59" width="2.28" height="19.19" fill="#d64545" opacity="0.55" />
<rect x="883.21" y="379.59" width="2.28" height="13.87" fill="#d64545" opacity="0.55" />
<rect x="886.49" y="379.59" width="2.28" height="11.25" fill="#d64545" opacity="0.55" />
<rect x="889.76" y="379.59" width="2.28" height="10.61" fill="#d64545" opacity="0.55" />
<rect x="893.04" y="379.59" width="2.28" height="8.87" fill="#d64545" opacity="0.55" />
<rect x="896.31" y="379.59" width="2.28" height="6.06" fill="#d64545" opacity="0.55" />
<rect x="899.58" y="378.37" width="2.28" height="1.22" fill="#2f9e44" opacity="0.55" />
<rect x="902.86" y="374.45" width="2.28" height="5.14" fill="#2f9e44" opacity="0.55" />
<polyline fill="none" stroke="#1f77b4" stroke-width="2" points="137.85,329.93 141.13,327.97 144.40,328.50 147.68,328.52 150.95,327.97 154.22,326.49 157.50,326.48 160.77,326.15 164.05,327.83 167.32,329.37 170.59,332.48 173.87,334.13 177.14,341.33 180.42,347.61 183.69,353.25 186.97,355.43 190.24,355.86 193.51,354.82 196.79,354.43 200.06,355.62 203.34,361.89 206.61,369.88 209.88,376.39 213.16,380.65 216.43,387.90 219.71,392.39 222.98,393.69 226.25,388.99 229.53,385.33 232.80,381.84 236.08,379.15 239.35,379.47 242.63,383.60 245.90,381.76 249.17,379.93 252.45,372.63 255.72,371.36 259.00,371.70 262.27,371.45 265.54,370.92 268.82,367.50 272.09,360.97 275.37,355.50 278.64,350.09 281.92,347.27 285.19,347.18 288.46,347.91 291.74,345.39 295.01,340.89 298.29,345.76 301.56,345.60 304.83,352.87 308.11,359.04 311.38,362.44 314.66,364.10 317.93,366.07 321.20,369.02 324.48,372.19 327.75,373.18 331.03,370.55 334.30,364.17 337.58,351.27 340.85,336.41 344.12,328.77 347.40,323.70 350.67,316.65 353.95,318.77 357.22,324.07 360.49,334.89 363.77,343.82 367.04,342.00 370.32,345.98 373.59,348.95 376.86,357.49 380.14,361.63 383.41,368.11 386.69,377.74 389.96,380.95 393.24,388.42 396.51,395.66 399.78,398.04 403.06,403.70 406.33,405.80 409.61,409.90 412.88,410.30 416.15,408.96 419.43,409.15 422.70,405.76 425.98,403.62 429.25,399.01 432.53,395.67 435.80,393.88 439.07,394.72 442.35,400.21 445.62,403.20 448.90,404.07 452.17,410.20 455.44,411.95 458.72,407.16 461.99,400.80 465.27,390.91 468.54,383.54 471.81,376.10 475.09,372.26 478.36,369.91 481.64,369.06 484.91,366.53 488.19,365.31 491.46,365.26 494.73,363.81 498.01,366.29 501.28,368.54 504.56,370.36 507.83,371.16 511.10,374.13 514.38,373.22 517.65,373.27 520.93,380.29 524.20,381.34 527.47,380.85 530.75,378.06 534.02,376.91 537.30,374.30 540.57,369.78 543.85,365.51 547.12,363.50 550.39,366.77 553.67,373.95 556.94,384.83 560.22,395.26 563.49,391.80 566.76,385.03 570.04,380.94 573.31,376.43 576.59,375.57 579.86,378.44 583.14,378.87 586.41,376.67 589.68,375.05 592.96,372.21 596.23,368.60 599.51,364.80 602.78,359.69 606.05,364.95 609.33,375.75 612.60,379.78 615.88,384.99 619.15,386.49 622.42,387.32 625.70,392.56 628.97,392.43 632.25,390.39 635.52,387.59 638.80,387.75 642.07,390.23 645.34,389.54 648.62,389.97 651.89,391.49 655.17,394.10 658.44,400.94 661.71,403.57 664.99,405.73 668.26,404.18 671.54,408.97 674.81,415.55 678.08,422.28 681.36,419.25 684.63,415.29 687.91,410.39 691.18,405.99 694.46,401.85 697.73,394.98 701.00,387.88 704.28,378.23 707.55,370.11 710.83,357.76 714.10,346.33 717.37,338.20 720.65,329.49 723.92,322.91 727.20,320.24 730.47,316.62 733.75,316.91 737.02,310.55 740.29,299.30 743.57,294.31 746.84,294.69 750.12,304.15 753.39,313.37 756.66,321.32 759.94,329.89 763.21,327.58 766.49,323.26 769.76,317.38 773.03,309.90 776.31,303.70 779.58,295.43 782.86,281.53 786.13,280.57 789.41,283.49 792.68,288.31 795.95,290.72 799.23,296.96 802.50,306.33 805.78,314.91 809.05,324.28 812.32,330.85 815.60,339.19 818.87,335.00 822.15,333.52 825.42,339.72 828.69,341.72 831.97,355.20 835.24,363.04 838.52,369.75 841.79,381.69 845.07,387.26 848.34,391.27 851.61,388.13 854.89,389.84 858.16,393.40 861.44,390.92 864.71,390.57 867.98,397.46 871.26,403.53 874.53,410.78 877.81,418.81 881.08,422.60 884.36,420.74 887.63,420.94 890.90,422.96 894.18,423.43 897.45,422.13 900.73,414.55 904.00,409.34" />
<polyline fill="none" stroke="#ff7f0e" stroke-width="2" points="137.85,329.93 141.13,329.54 144.40,329.33 147.68,329.17 150.95,328.93 154.22,328.44 157.50,328.05 160.77,327.67 164.05,327.70 167.32,328.03 170.59,328.92 173.87,329.96 177.14,332.24 180.42,335.31 183.69,338.90 186.97,342.21 190.24,344.94 193.51,346.91 196.79,348.42 200.06,349.86 203.34,352.26 206.61,355.79 209.88,359.91 213.16,364.06 216.43,368.82 219.71,373.54 222.98,377.57 226.25,379.85 229.53,380.95 232.80,381.13 236.08,380.73 239.35,380.48 242.63,381.10 245.90,381.24 249.17,380.98 252.45,379.31 255.72,377.72 259.00,376.51 262.27,375.50 265.54,374.58 268.82,373.17 272.09,370.73 275.37,367.68 278.64,364.16 281.92,360.78 285.19,358.06 288.46,356.03 291.74,353.90 295.01,351.30 298.29,350.19 301.56,349.27 304.83,349.99 308.11,351.80 311.38,353.93 314.66,355.96 317.93,357.98 321.20,360.19 324.48,362.59 327.75,364.71 331.03,365.88 334.30,365.54 337.58,362.68 340.85,357.43 344.12,351.70 347.40,346.10 350.67,340.21 353.95,335.92 357.22,333.55 360.49,333.82 363.77,335.82 367.04,337.05 370.32,338.84 373.59,340.86 376.86,344.19 380.14,347.68 383.41,351.76 386.69,356.96 389.96,361.76 393.24,367.09 396.51,372.80 399.78,377.85 403.06,383.02 406.33,387.58 409.61,392.04 412.88,395.69 416.15,398.35 419.43,400.51 422.70,401.56 425.98,401.97 429.25,401.38 432.53,400.24 435.80,398.96 439.07,398.12 442.35,398.53 445.62,399.47 448.90,400.39 452.17,402.35 455.44,404.27 458.72,404.85 461.99,404.04 465.27,401.41 468.54,397.84 471.81,393.49 475.09,389.25 478.36,385.38 481.64,382.12 484.91,379.00 488.19,376.26 491.46,374.06 494.73,372.01 498.01,370.87 501.28,370.40 504.56,370.39 507.83,370.55 511.10,371.26 514.38,371.65 517.65,371.98 520.93,373.64 524.20,375.18 527.47,376.31 530.75,376.66 534.02,376.71 537.30,376.23 540.57,374.94 543.85,373.06 547.12,371.14 550.39,370.27 553.67,371.01 556.94,373.77 560.22,378.07 563.49,380.81 566.76,381.66 570.04,381.51 573.31,380.50 576.59,379.51 579.86,379.30 583.14,379.21 586.41,378.71 589.68,377.97 592.96,376.82 596.23,375.18 599.51,373.10 602.78,370.42 606.05,369.33 609.33,370.61 612.60,372.45 615.88,374.96 619.15,377.26 622.42,379.27 625.70,381.93 628.97,384.03 632.25,385.30 635.52,385.76 638.80,386.16 642.07,386.97 645.34,387.49 648.62,387.98 651.89,388.69 655.17,389.77 658.44,392.00 661.71,394.32 664.99,396.60 668.26,398.11 671.54,400.29 674.81,403.34 678.08,407.13 681.36,409.55 684.63,410.70 687.91,410.64 691.18,409.71 694.46,408.13 697.73,405.50 701.00,401.98 704.28,397.23 707.55,391.80 710.83,384.99 714.10,377.26 717.37,369.45 720.65,361.46 723.92,353.75 727.20,347.05 730.47,340.96 733.75,336.15 737.02,331.03 740.29,324.69 743.57,318.61 746.84,313.83 750.12,311.89 753.39,312.19 756.66,314.01 759.94,317.19 763.21,319.27 766.49,320.06 769.76,319.53 773.03,317.60 776.31,314.82 779.58,310.94 782.86,305.06 786.13,300.16 789.41,296.83 792.68,295.13 795.95,294.24 799.23,294.79 802.50,297.10 805.78,300.66 809.05,305.38 812.32,310.48 815.60,316.22 818.87,319.98 822.15,322.68 825.42,326.09 828.69,329.22 831.97,334.41 835.24,340.14 838.52,346.06 841.79,353.19 845.07,360.00 848.34,366.26 851.61,370.63 854.89,374.47 858.16,378.26 861.44,380.79 864.71,382.75 867.98,385.69 871.26,389.26 874.53,393.56 877.81,398.61 881.08,403.41 884.36,406.88 887.63,409.69 890.90,412.34 894.18,414.56 897.45,416.07 900.73,415.77 904.00,414.48" />
<text x="754.00" y="290.00" font-size="13" font-family="Arial" fill="#1f77b4" text-anchor="start">MACD</text>
<text x="818.00" y="290.00" font-size="13" font-family="Arial" fill="#ff7f0e" text-anchor="start">Signal</text>
<line x1="56" y1="624" x2="904" y2="624" stroke="#cbd2d9" />
<line x1="56" y1="484" x2="56" y2="624" stroke="#cbd2d9" />
<text x="16.00" y="476.00" font-size="12" font-family="Arial" fill="#52606d" text-anchor="start">KD</text>
<line x1="56" y1="624.00" x2="904" y2="624.00" stroke="#edf2f7" />
<line x1="52" y1="624.00" x2="56" y2="624.00" stroke="#9fb3c8" />
<text x="48.00" y="628.00" font-size="11" font-family="Arial" fill="#52606d" text-anchor="end">-5.00</text>
<line x1="56" y1="577.33" x2="904" y2="577.33" stroke="#edf2f7" />
<line x1="52" y1="577.33" x2="56" y2="577.33" stroke="#9fb3c8" />
<text x="48.00" y="581.33" font-size="11" font-family="Arial" fill="#52606d" text-anchor="end">31.7</text>
<line x1="56" y1="530.67" x2="904" y2="530.67" stroke="#edf2f7" />
<line x1="52" y1="530.67" x2="56" y2="530.67" stroke="#9fb3c8" />
<text x="48.00" y="534.67" font-size="11" font-family="Arial" fill="#52606d" text-anchor="end">68.3</text>
<line x1="56" y1="484.00" x2="904" y2="484.00" stroke="#edf2f7" />
<line x1="52" y1="484.00" x2="56" y2="484.00" stroke="#9fb3c8" />
<text x="48.00" y="488.00" font-size="11" font-family="Arial" fill="#52606d" text-anchor="end">105</text>
<line x1="56.00" y1="624" x2="56.00" y2="628" stroke="#9fb3c8" />
<text x="56.00" y="642.00" font-size="11" font-family="Arial" fill="#52606d" text-anchor="middle">06/26</text>
<line x1="226.25" y1="624" x2="226.25" y2="628" stroke="#9fb3c8" />
<text x="226.25" y="642.00" font-size="11" font-family="Arial" fill="#52606d" text-anchor="middle">09/10</text>
<line x1="396.51" y1="624" x2="396.51" y2="628" stroke="#9fb3c8" />
<text x="396.51" y="642.00" font-size="11" font-family="Arial" fill="#52606d" text-anchor="middle">11/21</text>
<line x1="563.49" y1="624" x2="563.49" y2="628" stroke="#9fb3c8" />
<text x="563.49" y="642.00" font-size="11" font-family="Arial" fill="#52606d" text-anchor="middle">02/06</text>
<line x1="733.75" y1="624" x2="733.75" y2="628" stroke="#9fb3c8" />
<text x="733.75" y="642.00" font-size="11" font-family="Arial" fill="#52606d" text-anchor="middle">04/23</text>
<line x1="904.00" y1="624" x2="904.00" y2="628" stroke="#9fb3c8" />
<text x="904.00" y="642.00" font-size="11" font-family="Arial" fill="#52606d" text-anchor="middle">07/09</text>
<line x1="56" y1="592.18" x2="904" y2="592.18" stroke="#f0b429" stroke-dasharray="5 5" />
<text x="912.00" y="596.18" font-size="10" font-family="Arial" fill="#8d2b0b" text-anchor="start">20.0</text>
<line x1="56" y1="515.82" x2="904" y2="515.82" stroke="#f0b429" stroke-dasharray="5 5" />
<text x="912.00" y="519.82" font-size="10" font-family="Arial" fill="#8d2b0b" text-anchor="start">80.0</text>
<polyline fill="none" stroke="#2ca02c" stroke-width="2" points="82.19,537.93 85.47,523.47 88.74,520.19 92.02,520.20 95.29,514.03 98.56,509.12 101.84,505.87 105.11,505.70 108.39,509.98 111.66,527.77 114.93,527.43 118.21,516.95 121.48,513.31 124.76,506.62 128.03,512.38 131.31,506.84 134.58,513.72 137.85,527.71 141.13,524.48 144.40,530.44 147.68,530.44 150.95,527.34 154.22,518.97 157.50,515.48 160.77,511.32 164.05,513.45 167.32,516.36 170.59,527.77 173.87,528.19 177.14,557.44 180.42,559.72 183.69,562.39 186.97,556.02 190.24,545.85 193.51,531.17 196.79,521.68 200.06,522.97 203.34,540.04 206.61,557.22 209.88,569.06 213.16,574.41 216.43,582.74 219.71,585.61 222.98,582.43 226.25,566.65 229.53,549.41 232.80,536.22 236.08,527.61 239.35,529.38 242.63,542.57 245.90,537.88 249.17,533.42 252.45,521.59 255.72,527.32 259.00,534.98 262.27,538.19 265.54,539.02 268.82,529.95 272.09,519.08 275.37,512.11 278.64,510.03 281.92,511.64 285.19,517.64 288.46,522.82 291.74,517.16 295.01,516.02 298.29,544.91 301.56,549.62 304.83,571.46 308.11,581.02 311.38,582.81 314.66,580.74 317.93,580.70 321.20,584.10 324.48,587.41 327.75,580.39 331.03,555.25 334.30,535.10 337.58,523.63 340.85,518.74 344.12,520.44 347.40,522.06 350.67,517.88 353.95,526.41 357.22,539.54 360.49,562.81 363.77,569.33 367.04,559.79 370.32,560.46 373.59,560.07 376.86,568.88 380.14,566.11 383.41,569.73 386.69,580.80 389.96,577.77 393.24,589.03 396.51,587.66 399.78,580.00 403.06,579.31 406.33,574.94 409.61,577.25 412.88,574.11 416.15,569.55 419.43,569.51 422.70,549.16 425.98,538.14 429.25,527.87 432.53,524.38 435.80,525.57 439.07,534.81 442.35,561.18 445.62,574.73 448.90,579.24 452.17,590.55 455.44,590.41 458.72,570.11 461.99,548.56 465.27,529.45 468.54,518.05 471.81,512.94 475.09,513.91 478.36,515.84 481.64,519.95 484.91,520.55 488.19,531.25 491.46,542.92 494.73,550.30 498.01,567.10 501.28,578.92 504.56,584.19 507.83,584.22 511.10,587.66 514.38,577.02 517.65,570.33 520.93,584.71 524.20,576.84 527.47,566.56 530.75,550.36 534.02,543.52 537.30,532.18 540.57,520.66 543.85,513.18 547.12,514.05 550.39,529.59 553.67,549.41 556.94,567.89 560.22,582.95 563.49,568.53 566.76,550.54 570.04,541.26 573.31,532.34 576.59,530.97 579.86,537.79 583.14,538.29 586.41,532.98 589.68,531.62 592.96,529.15 596.23,523.14 599.51,515.41 602.78,511.84 606.05,534.00 609.33,560.28 612.60,564.95 615.88,572.55 619.15,572.09 622.42,571.24 625.70,580.85 628.97,578.35 632.25,569.60 635.52,548.38 638.80,543.69 642.07,551.84 645.34,549.37 648.62,551.84 651.89,558.36 655.17,568.56 658.44,582.50 661.71,584.52 664.99,586.95 668.26,579.97 671.54,592.29 674.81,599.56 678.08,603.59 681.36,582.92 684.63,565.76 687.91,550.21 691.18,539.22 694.46,530.75 697.73,523.71 701.00,515.32 704.28,509.26 707.55,504.23 710.83,499.61 714.10,498.76 717.37,499.22 720.65,496.30 723.92,494.53 727.20,498.64 730.47,496.46 733.75,504.25 737.02,505.26 740.29,500.74 743.57,504.67 746.84,516.30 750.12,544.99 753.39,566.34 756.66,576.26 759.94,586.67 763.21,571.85 766.49,554.93 769.76,538.19 773.03,526.65 776.31,518.90 779.58,511.96 782.86,505.57 786.13,512.25 789.41,520.86 792.68,533.19 795.95,542.36 799.23,556.93 802.50,576.13 805.78,585.02 809.05,590.05 812.32,589.03 815.60,593.85 818.87,566.28 822.15,558.05 825.42,567.14 828.69,566.13 831.97,582.13 835.24,587.43 838.52,586.10 841.79,595.22 845.07,595.57 848.34,595.39 851.61,579.12 854.89,576.58 858.16,575.76 861.44,553.70 864.71,548.05 867.98,569.78 871.26,579.84 874.53,585.43 877.81,593.72 881.08,592.63 884.36,582.92 887.63,580.85 890.90,584.29 894.18,577.94 897.45,565.69 900.73,543.45 904.00,532.33" />
<polyline fill="none" stroke="#d62728" stroke-width="2" points="82.19,548.64 85.47,540.25 88.74,533.56 92.02,529.11 95.29,524.08 98.56,519.09 101.84,514.69 105.11,511.69 108.39,511.12 111.66,516.67 114.93,520.26 118.21,519.15 121.48,517.21 124.76,513.68 128.03,513.24 131.31,511.11 134.58,511.98 137.85,517.22 141.13,519.64 144.40,523.24 147.68,525.64 150.95,526.21 154.22,523.79 157.50,521.02 160.77,517.79 164.05,516.34 167.32,516.35 170.59,520.16 173.87,522.83 177.14,534.37 180.42,542.82 183.69,549.34 186.97,551.57 190.24,549.66 193.51,543.50 196.79,536.23 200.06,531.81 203.34,534.55 206.61,542.10 209.88,551.09 213.16,558.86 216.43,566.82 219.71,573.08 222.98,576.20 226.25,573.02 229.53,565.15 232.80,555.51 236.08,546.21 239.35,540.60 242.63,541.25 245.90,540.13 249.17,537.89 252.45,532.46 255.72,530.74 259.00,532.15 262.27,534.17 265.54,535.78 268.82,533.84 272.09,528.92 275.37,523.32 278.64,518.89 281.92,516.47 285.19,516.86 288.46,518.85 291.74,518.29 295.01,517.53 298.29,526.66 301.56,534.31 304.83,546.70 308.11,558.14 311.38,566.36 314.66,571.16 317.93,574.34 321.20,577.59 324.48,580.86 327.75,580.71 331.03,572.22 334.30,559.85 337.58,547.78 340.85,538.10 344.12,532.21 347.40,528.83 350.67,525.18 353.95,525.59 357.22,530.24 360.49,541.09 363.77,550.51 367.04,553.60 370.32,555.89 373.59,557.28 376.86,561.15 380.14,562.80 383.41,565.11 386.69,570.34 389.96,572.82 393.24,578.22 396.51,581.37 399.78,580.91 403.06,580.38 406.33,578.56 409.61,578.13 412.88,576.79 416.15,574.38 419.43,572.75 422.70,564.89 425.98,555.97 429.25,546.61 432.53,539.20 435.80,534.65 439.07,534.71 442.35,543.53 445.62,553.93 448.90,562.37 452.17,571.76 455.44,577.98 458.72,575.36 461.99,566.43 465.27,554.10 468.54,542.09 471.81,532.37 475.09,526.21 478.36,522.76 481.64,521.82 484.91,521.40 488.19,524.68 491.46,530.76 494.73,537.27 498.01,547.22 501.28,557.78 504.56,566.59 507.83,572.46 511.10,577.53 514.38,577.36 517.65,575.02 520.93,578.25 524.20,577.78 527.47,574.04 530.75,566.15 534.02,558.60 537.30,549.80 540.57,540.09 543.85,531.12 547.12,525.43 550.39,526.82 553.67,534.35 556.94,545.53 560.22,558.00 563.49,561.51 566.76,557.85 570.04,552.32 573.31,545.66 576.59,540.76 579.86,539.77 583.14,539.28 586.41,537.18 589.68,535.33 592.96,533.27 596.23,529.89 599.51,525.06 602.78,520.66 606.05,525.10 609.33,536.83 612.60,546.20 615.88,554.98 619.15,560.69 622.42,564.21 625.70,569.75 628.97,572.62 632.25,571.61 635.52,563.87 638.80,557.14 642.07,555.37 645.34,553.37 648.62,552.86 651.89,554.69 655.17,559.32 658.44,567.04 661.71,572.87 664.99,577.56 668.26,578.37 671.54,583.01 674.81,588.53 678.08,593.55 681.36,590.00 684.63,581.92 687.91,571.35 691.18,560.64 694.46,550.68 697.73,541.69 701.00,532.90 704.28,525.02 707.55,518.09 710.83,511.93 714.10,507.54 717.37,504.77 720.65,501.94 723.92,499.47 727.20,499.20 730.47,498.28 733.75,500.27 737.02,501.94 740.29,501.54 743.57,502.58 746.84,507.15 750.12,519.76 753.39,535.29 756.66,548.95 759.94,561.52 763.21,564.97 766.49,561.62 769.76,553.81 773.03,544.76 776.31,536.14 779.58,528.08 782.86,520.58 786.13,517.80 789.41,518.82 792.68,523.61 795.95,529.86 799.23,538.88 802.50,551.30 805.78,562.54 809.05,571.71 812.32,577.49 815.60,582.94 818.87,577.39 822.15,570.94 825.42,569.67 828.69,568.49 831.97,573.04 835.24,577.84 838.52,580.59 841.79,585.47 845.07,588.83 848.34,591.02 851.61,587.05 854.89,583.56 858.16,580.96 861.44,571.87 864.71,563.93 867.98,565.88 871.26,570.53 874.53,575.50 877.81,581.57 881.08,585.26 884.36,584.48 887.63,583.27 890.90,583.61 894.18,581.72 897.45,576.38 900.73,565.40 904.00,554.38" />
<text x="824.00" y="502.00" font-size="13" font-family="Arial" fill="#2ca02c" text-anchor="start">K</text>
<text x="860.00" y="502.00" font-size="13" font-family="Arial" fill="#d62728" text-anchor="start">D</text>
</svg>