<svg xmlns="http://www.w3.org/2000/svg" width="960" height="680" viewBox="0 0 960 680"><rect width="100%" height="100%" fill="white" />
<text x="56.00" y="32.00" font-size="20" font-family="Arial" fill="#1f2933" text-anchor="start">ORCL Technical Indicators</text>
<line x1="56" y1="220" x2="904" y2="220" stroke="#cbd2d9" />
<line x1="56" y1="58" x2="56" y2="220" stroke="#cbd2d9" />
<text x="16.00" y="50.00" font-size="12" font-family="Arial" fill="#52606d" text-anchor="start">RSI14</text>
<line x1="56" y1="220.00" x2="904" y2="220.00" stroke="#edf2f7" />
<line x1="52" y1="220.00" x2="56" y2="220.00" stroke="#9fb3c8" />
<text x="48.00" y="224.00" font-size="11" font-family="Arial" fill="#52606d" text-anchor="end">-5.00</text>
<line x1="56" y1="166.00" x2="904" y2="166.00" stroke="#edf2f7" />
<line x1="52" y1="166.00" x2="56" y2="166.00" stroke="#9fb3c8" />
<text x="48.00" y="170.00" font-size="11" font-family="Arial" fill="#52606d" text-anchor="end">31.7</text>
<line x1="56" y1="112.00" x2="904" y2="112.00" stroke="#edf2f7" />
<line x1="52" y1="112.00" x2="56" y2="112.00" stroke="#9fb3c8" />
<text x="48.00" y="116.00" font-size="11" font-family="Arial" fill="#52606d" text-anchor="end">68.3</text>
<line x1="56" y1="58.00" x2="904" y2="58.00" stroke="#edf2f7" />
<line x1="52" y1="58.00" x2="56" y2="58.00" stroke="#9fb3c8" />
<text x="48.00" y="62.00" font-size="11" font-family="Arial" fill="#52606d" text-anchor="end">105</text>
<line x1="56" y1="168.45" x2="904" y2="168.45" stroke="#f0b429" stroke-dasharray="5 5" />
<text x="912.00" y="172.45" font-size="10" font-family="Arial" fill="#8d2b0b" text-anchor="start">30.0</text>
<line x1="56" y1="109.55" x2="904" y2="109.55" stroke="#f0b429" stroke-dasharray="5 5" />
<text x="912.00" y="113.55" font-size="10" font-family="Arial" fill="#8d2b0b" text-anchor="start">70.0</text>
<polyline fill="none" stroke="#1f77b4" stroke-width="2" points="101.84,116.50 105.11,115.80 108.39,112.26 111.66,130.56 114.93,121.07 118.21,117.89 121.48,117.11 124.76,129.33 128.03,128.51 131.31,125.24 134.58,123.77 137.85,139.55 141.13,138.43 144.40,133.68 147.68,132.56 150.95,152.10 154.22,151.42 157.50,153.60 160.77,148.23 164.05,149.46 167.32,151.06 170.59,148.06 173.87,140.13 177.14,157.92 180.42,158.75 183.69,160.65 186.97,161.12 190.24,144.21 193.51,136.38 196.79,132.55 200.06,90.57 203.34,107.28 206.61,117.98 209.88,114.56 213.16,113.05 216.43,116.73 219.71,120.10 222.98,115.35 226.25,108.78 229.53,118.56 232.80,122.01 236.08,132.15 239.35,136.37 242.63,136.75 245.90,137.62 249.17,133.30 252.45,133.45 255.72,135.27 259.00,131.88 262.27,137.20 265.54,134.28 268.82,128.69 272.09,131.88 275.37,123.00 278.64,130.11 281.92,127.39 285.19,122.18 288.46,137.83 291.74,145.93 295.01,147.03 298.29,148.43 301.56,143.12 304.83,140.83 308.11,142.15 311.38,142.56 314.66,146.58 317.93,157.83 321.20,152.84 324.48,155.60 327.75,160.83 331.03,158.79 334.30,162.31 337.58,164.67 340.85,162.97 344.12,165.56 347.40,170.22 350.67,174.41 353.95,168.27 357.22,169.75 360.49,168.97 363.77,162.70 367.04,170.74 370.32,175.86 373.59,174.04 376.86,175.45 380.14,165.79 383.41,167.41 386.69,167.97 389.96,167.75 393.24,158.96 396.51,151.07 399.78,147.41 403.06,144.10 406.33,142.98 409.61,141.23 412.88,161.47 416.15,166.63 419.43,169.31 422.70,164.71 425.98,170.23 429.25,168.26 432.53,154.57 435.80,148.19 439.07,150.46 442.35,148.24 445.62,147.70 448.90,149.99 452.17,147.79 455.44,149.99 458.72,148.93 461.99,152.12 465.27,150.41 468.54,151.43 471.81,154.98 475.09,141.05 478.36,133.55 481.64,136.69 484.91,146.92 488.19,150.80 491.46,149.04 494.73,159.62 498.01,164.30 501.28,158.03 504.56,158.90 507.83,151.27 511.10,158.11 514.38,159.87 517.65,162.99 520.93,166.43 524.20,169.70 527.47,173.28 530.75,177.91 534.02,182.73 537.30,172.74 540.57,154.91 543.85,151.24 547.12,153.40 550.39,153.96 553.67,149.39 556.94,154.80 560.22,151.96 563.49,151.46 566.76,159.03 570.04,164.19 573.31,157.38 576.59,154.97 579.86,151.61 583.14,156.23 586.41,150.77 589.68,151.02 592.96,146.12 596.23,142.69 599.51,145.03 602.78,146.84 606.05,149.65 609.33,130.62 612.60,136.00 615.88,141.16 619.15,140.01 622.42,141.73 625.70,144.18 628.97,140.11 632.25,148.11 635.52,140.95 638.80,150.02 642.07,151.26 645.34,154.94 648.62,158.37 651.89,159.30 655.17,145.04 658.44,147.45 661.71,145.57 664.99,146.76 668.26,150.13 671.54,149.17 674.81,156.55 678.08,156.06 681.36,128.18 684.63,120.50 687.91,114.52 691.18,108.25 694.46,113.49 697.73,111.57 701.00,108.91 704.28,104.62 707.55,121.73 710.83,125.70 714.10,126.13 717.37,135.22 720.65,137.80 723.92,140.75 727.20,129.15 730.47,121.60 733.75,117.62 737.02,111.57 740.29,111.20 743.57,110.27 746.84,113.65 750.12,124.10 753.39,121.44 756.66,116.45 759.94,120.47 763.21,129.38 766.49,135.88 769.76,128.93 773.03,127.35 776.31,125.05 779.58,124.06 782.86,127.34 786.13,115.28 789.41,101.99 792.68,93.74 795.95,98.17 799.23,113.97 802.50,111.11 805.78,130.73 809.05,132.10 812.32,136.55 815.60,139.83 818.87,150.67 822.15,150.64 825.42,143.92 828.69,146.75 831.97,149.86 835.24,149.18 838.52,155.17 841.79,160.83 845.07,164.74 848.34,167.19 851.61,169.06 854.89,169.43 858.16,170.05 861.44,172.14 864.71,173.28 867.98,168.37 871.26,169.68 874.53,170.36 877.81,164.61 881.08,166.85 884.36,172.76 887.63,174.84 890.90,167.59 894.18,172.77 897.45,169.35 900.73,172.49 904.00,163.80" />
<text x="808.00" y="76.00" font-size="13" font-family="Arial" fill="#1f77b4" text-anchor="start">RSI14</text>
<line x1="56" y1="432" x2="904" y2="432" stroke="#cbd2d9" />
<line x1="56" y1="272" x2="56" y2="432" stroke="#cbd2d9" />
<text x="16.00" y="264.00" font-size="12" font-family="Arial" fill="#52606d" text-anchor="start">MACD</text>
<line x1="56" y1="432.00" x2="904" y2="432.00" stroke="#edf2f7" />
<line x1="52" y1="432.00" x2="56" y2="432.00" stroke="#9fb3c8" />
<text x="48.00" y="436.00" font-size="11" font-family="Arial" fill="#52606d" text-anchor="end">-21.2</text>
<line x1="56" y1="378.67" x2="904" y2="378.67" stroke="#edf2f7" />
<line x1="52" y1="378.67" x2="56" y2="378.67" stroke="#9fb3c8" />
<text x="48.00" y="382.67" font-size="11" font-family="Arial" fill="#52606d" text-anchor="end">-6.83</text>
<line x1="56" y1="325.33" x2="904" y2="325.33" stroke="#edf2f7" />
<line x1="52" y1="325.33" x2="56" y2="325.33" stroke="#9fb3c8" />
<text x="48.00" y="329.33" font-size="11" font-family="Arial" fill="#52606d" text-anchor="end">7.59</text>
<line x1="56" y1="272.00" x2="904" y2="272.00" stroke="#edf2f7" />
<line x1="52" y1="272.00" x2="56" y2="272.00" stroke="#9fb3c8" />
<text x="48.00" y="276.00" font-size="11" font-family="Arial" fill="#52606d" text-anchor="end">22.0</text>
<line x1="56" y1="353.41" x2="904" y2="353.41" stroke="#9fb3c8" stroke-dasharray="4 4" />
<rect x="136.71" y="353.41" width="2.28" height="0.00" fill="#2f9e44" opacity="0.55" />
<rect x="139.99" y="353.41" width="2.28" height="1.77" fill="#d64545" opacity="0.55" />
<rect x="143.26" y="353.41" width="2.28" height="2.11" fill="#d64545" opacity="0.55" />
<rect x="146.53" y="353.41" width="2.28" height="2.13" fill="#d64545" opacity="0.55" />
<rect x="149.81" y="353.41" width="2.28" height="5.50" fill="#d64545" opacity="0.55" />
<rect x="153.08" y="353.41" width="2.28" height="7.30" fill="#d64545" opacity="0.55" />
<rect x="156.36" y="353.41" width="2.28" height="8.55" fill="#d64545" opacity="0.55" />
<rect x="159.63" y="353.41" width="2.28" height="8.18" fill="#d64545" opacity="0.55" />
<rect x="162.90" y="353.41" width="2.28" height="7.77" fill="#d64545" opacity="0.55" />
<rect x="166.18" y="353.41" width="2.28" height="7.40" fill="#d64545" opacity="0.55" />
<rect x="169.45" y="353.41" width="2.28" height="6.39" fill="#d64545" opacity="0.55" />
<rect x="172.73" y="353.41" width="2.28" height="4.35" fill="#d64545" opacity="0.55" />
<rect x="176.00" y="353.41" width="2.28" height="6.13" fill="#d64545" opacity="0.55" />
<rect x="179.28" y="353.41" width="2.28" height="7.06" fill="#d64545" opacity="0.55" />
<rect x="182.55" y="353.41" width="2.28" height="7.65" fill="#d64545" opacity="0.55" />
<rect x="185.82" y="353.41" width="2.28" height="7.64" fill="#d64545" opacity="0.55" />
<rect x="189.10" y="353.41" width="2.28" height="4.85" fill="#d64545" opacity="0.55" />
<rect x="192.37" y="353.41" width="2.28" height="1.41" fill="#d64545" opacity="0.55" />
<rect x="195.65" y="351.77" width="2.28" height="1.64" fill="#2f9e44" opacity="0.55" />
<rect x="198.92" y="329.57" width="2.28" height="23.84" fill="#2f9e44" opacity="0.55" />
<rect x="202.19" y="321.63" width="2.28" height="31.78" fill="#2f9e44" opacity="0.55" />
<rect x="205.47" y="322.00" width="2.28" height="31.41" fill="#2f9e44" opacity="0.55" />
<rect x="208.74" y="321.64" width="2.28" height="31.77" fill="#2f9e44" opacity="0.55" />
<rect x="212.02" y="322.19" width="2.28" height="31.22" fill="#2f9e44" opacity="0.55" />
<rect x="215.29" y="325.63" width="2.28" height="27.78" fill="#2f9e44" opacity="0.55" />
<rect x="218.57" y="330.66" width="2.28" height="22.75" fill="#2f9e44" opacity="0.55" />
<rect x="221.84" y="332.54" width="2.28" height="20.87" fill="#2f9e44" opacity="0.55" />
<rect x="225.11" y="330.66" width="2.28" height="22.75" fill="#2f9e44" opacity="0.55" />
<rect x="228.39" y="334.46" width="2.28" height="18.95" fill="#2f9e44" opacity="0.55" />
<rect x="231.66" y="339.59" width="2.28" height="13.82" fill="#2f9e44" opacity="0.55" />
<rect x="234.94" y="348.04" width="2.28" height="5.37" fill="#2f9e44" opacity="0.55" />
<rect x="238.21" y="353.41" width="2.28" height="2.59" fill="#d64545" opacity="0.55" />
<rect x="241.48" y="353.41" width="2.28" height="8.13" fill="#d64545" opacity="0.55" />
<rect x="244.76" y="353.41" width="2.28" height="12.04" fill="#d64545" opacity="0.55" />
<rect x="248.03" y="353.41" width="2.28" height="12.53" fill="#d64545" opacity="0.55" />
<rect x="251.31" y="353.41" width="2.28" height="12.69" fill="#d64545" opacity="0.55" />
<rect x="254.58" y="353.41" width="2.28" height="13.17" fill="#d64545" opacity="0.55" />
<rect x="257.85" y="353.41" width="2.28" height="11.90" fill="#d64545" opacity="0.55" />
<rect x="261.13" y="353.41" width="2.28" height="12.57" fill="#d64545" opacity="0.55" />
<rect x="264.40" y="353.41" width="2.28" height="11.64" fill="#d64545" opacity="0.55" />
<rect x="267.68" y="353.41" width="2.28" height="8.70" fill="#d64545" opacity="0.55" />
<rect x="270.95" y="353.41" width="2.28" height="7.63" fill="#d64545" opacity="0.55" />
<rect x="274.23" y="353.41" width="2.28" height="3.31" fill="#d64545" opacity="0.55" />
<rect x="277.50" y="353.41" width="2.28" height="2.81" fill="#d64545" opacity="0.55" />
<rect x="280.77" y="353.41" width="2.28" height="1.53" fill="#d64545" opacity="0.55" />
<rect x="284.05" y="352.12" width="2.28" height="1.29" fill="#2f9e44" opacity="0.55" />
<rect x="287.32" y="353.41" width="2.28" height="2.35" fill="#d64545" opacity="0.55" />
<rect x="290.60" y="353.41" width="2.28" height="8.06" fill="#d64545" opacity="0.55" />
<rect x="293.87" y="353.41" width="2.28" height="11.94" fill="#d64545" opacity="0.55" />
<rect x="297.14" y="353.41" width="2.28" height="14.53" fill="#d64545" opacity="0.55" />
<rect x="300.42" y="353.41" width="2.28" height="13.84" fill="#d64545" opacity="0.55" />
<rect x="303.69" y="353.41" width="2.28" height="12.06" fill="#d64545" opacity="0.55" />
<rect x="306.97" y="353.41" width="2.28" height="10.89" fill="#d64545" opacity="0.55" />
<rect x="310.24" y="353.41" width="2.28" height="9.81" fill="#d64545" opacity="0.55" />
<rect x="313.51" y="353.41" width="2.28" height="9.98" fill="#d64545" opacity="0.55" />
<rect x="316.79" y="353.41" width="2.28" height="13.92" fill="#d64545" opacity="0.55" />
<rect x="320.06" y="353.41" width="2.28" height="14.34" fill="#d64545" opacity="0.55" />
<rect x="323.34" y="353.41" width="2.28" height="14.95" fill="#d64545" opacity="0.55" />
<rect x="326.61" y="353.41" width="2.28" height="16.76" fill="#d64545" opacity="0.55" />
<rect x="329.89" y="353.41" width="2.28" height="16.43" fill="#d64545" opacity="0.55" />
<rect x="333.16" y="353.41" width="2.28" height="16.75" fill="#d64545" opacity="0.55" />
<rect x="336.43" y="353.41" width="2.28" height="16.98" fill="#d64545" opacity="0.55" />
<rect x="339.71" y="353.41" width="2.28" height="15.66" fill="#d64545" opacity="0.55" />
<rect x="342.98" y="353.41" width="2.28" height="14.87" fill="#d64545" opacity="0.55" />
<rect x="346.26" y="353.41" width="2.28" height="15.46" fill="#d64545" opacity="0.55" />
<rect x="349.53" y="353.41" width="2.28" height="16.92" fill="#d64545" opacity="0.55" />
<rect x="352.80" y="353.41" width="2.28" height="15.37" fill="#d64545" opacity="0.55" />
<rect x="356.08" y="353.41" width="2.28" height="13.91" fill="#d64545" opacity="0.55" />
<rect x="359.35" y="353.41" width="2.28" height="11.70" fill="#d64545" opacity="0.55" />
<rect x="362.63" y="353.41" width="2.28" height="8.09" fill="#d64545" opacity="0.55" />
<rect x="365.90" y="353.41" width="2.28" height="8.41" fill="#d64545" opacity="0.55" />
<rect x="369.18" y="353.41" width="2.28" height="10.49" fill="#d64545" opacity="0.55" />
<rect x="372.45" y="353.41" width="2.28" height="10.38" fill="#d64545" opacity="0.55" />
<rect x="375.72" y="353.41" width="2.28" height="10.01" fill="#d64545" opacity="0.55" />
<rect x="379.00" y="353.41" width="2.28" height="6.85" fill="#d64545" opacity="0.55" />
<rect x="382.27" y="353.41" width="2.28" height="4.65" fill="#d64545" opacity="0.55" />
<rect x="385.55" y="353.41" width="2.28" height="2.69" fill="#d64545" opacity="0.55" />
<rect x="388.82" y="353.41" width="2.28" height="0.70" fill="#d64545" opacity="0.55" />
<rect x="392.09" y="350.70" width="2.28" height="2.71" fill="#2f9e44" opacity="0.55" />
<rect x="395.37" y="346.58" width="2.28" height="6.82" fill="#2f9e44" opacity="0.55" />
<rect x="398.64" y="343.04" width="2.28" height="10.37" fill="#2f9e44" opacity="0.55" />
<rect x="401.92" y="340.14" width="2.28" height="13.27" fill="#2f9e44" opacity="0.55" />
<rect x="405.19" y="338.28" width="2.28" height="15.13" fill="#2f9e44" opacity="0.55" />
<rect x="408.46" y="337.09" width="2.28" height="16.32" fill="#2f9e44" opacity="0.55" />
<rect x="411.74" y="342.41" width="2.28" height="11.00" fill="#2f9e44" opacity="0.55" />
<rect x="415.01" y="348.00" width="2.28" height="5.41" fill="#2f9e44" opacity="0.55" />
<rect x="418.29" y="352.56" width="2.28" height="0.85" fill="#2f9e44" opacity="0.55" />
<rect x="421.56" y="353.41" width="2.28" height="0.79" fill="#d64545" opacity="0.55" />
<rect x="424.84" y="353.41" width="2.28" height="3.77" fill="#d64545" opacity="0.55" />
<rect x="428.11" y="353.41" width="2.28" height="4.66" fill="#d64545" opacity="0.55" />
<rect x="431.38" y="353.41" width="2.28" height="1.77" fill="#d64545" opacity="0.55" />
<rect x="434.66" y="351.35" width="2.28" height="2.05" fill="#2f9e44" opacity="0.55" />
<rect x="437.93" y="349.36" width="2.28" height="4.05" fill="#2f9e44" opacity="0.55" />
<rect x="441.21" y="347.42" width="2.28" height="5.99" fill="#2f9e44" opacity="0.55" />
<rect x="444.48" y="346.00" width="2.28" height="7.41" fill="#2f9e44" opacity="0.55" />
<rect x="447.75" y="345.74" width="2.28" height="7.67" fill="#2f9e44" opacity="0.55" />
<rect x="451.03" y="345.19" width="2.28" height="8.22" fill="#2f9e44" opacity="0.55" />
<rect x="454.30" y="345.48" width="2.28" height="7.93" fill="#2f9e44" opacity="0.55" />
<rect x="457.58" y="345.57" width="2.28" height="7.84" fill="#2f9e44" opacity="0.55" />
<rect x="460.85" y="346.46" width="2.28" height="6.95" fill="#2f9e44" opacity="0.55" />
<rect x="464.12" y="346.82" width="2.28" height="6.58" fill="#2f9e44" opacity="0.55" />
<rect x="467.40" y="347.34" width="2.28" height="6.07" fill="#2f9e44" opacity="0.55" />
<rect x="470.67" y="348.47" width="2.28" height="4.94" fill="#2f9e44" opacity="0.55" />
<rect x="473.95" y="346.99" width="2.28" height="6.42" fill="#2f9e44" opacity="0.55" />
<rect x="477.22" y="344.73" width="2.28" height="8.68" fill="#2f9e44" opacity="0.55" />
<rect x="480.50" y="344.11" width="2.28" height="9.30" fill="#2f9e44" opacity="0.55" />
<rect x="483.77" y="346.05" width="2.28" height="7.36" fill="#2f9e44" opacity="0.55" />
<rect x="487.04" y="348.36" width="2.28" height="5.05" fill="#2f9e44" opacity="0.55" />
<rect x="490.32" y="349.62" width="2.28" height="3.79" fill="#2f9e44" opacity="0.55" />
<rect x="493.59" y="353.08" width="2.28" height="0.33" fill="#2f9e44" opacity="0.55" />
<rect x="496.87" y="353.41" width="2.28" height="3.11" fill="#d64545" opacity="0.55" />
<rect x="500.14" y="353.41" width="2.28" height="3.94" fill="#d64545" opacity="0.55" />
<rect x="503.41" y="353.41" width="2.28" height="4.32" fill="#d64545" opacity="0.55" />
<rect x="506.69" y="353.41" width="2.28" height="2.91" fill="#d64545" opacity="0.55" />
<rect x="509.96" y="353.41" width="2.28" height="3.46" fill="#d64545" opacity="0.55" />
<rect x="513.24" y="353.41" width="2.28" height="3.92" fill="#d64545" opacity="0.55" />
<rect x="516.51" y="353.41" width="2.28" height="4.69" fill="#d64545" opacity="0.55" />
<rect x="519.79" y="353.41" width="2.28" height="5.75" fill="#d64545" opacity="0.55" />
<rect x="523.06" y="353.41" width="2.28" height="6.95" fill="#d64545" opacity="0.55" />
<rect x="526.33" y="353.41" width="2.28" height="8.35" fill="#d64545" opacity="0.55" />
<rect x="529.61" y="353.41" width="2.28" height="10.41" fill="#d64545" opacity="0.55" />
<rect x="532.88" y="353.41" width="2.28" height="13.26" fill="#d64545" opacity="0.55" />
<rect x="536.16" y="353.41" width="2.28" height="12.55" fill="#d64545" opacity="0.55" />
<rect x="539.43" y="353.41" width="2.28" height="7.87" fill="#d64545" opacity="0.55" />
<rect x="542.70" y="353.41" width="2.28" height="3.39" fill="#d64545" opacity="0.55" />
<rect x="545.98" y="353.41" width="2.28" height="0.67" fill="#d64545" opacity="0.55" />
<rect x="549.25" y="352.14" width="2.28" height="1.27" fill="#2f9e44" opacity="0.55" />
<rect x="552.53" y="349.75" width="2.28" height="3.66" fill="#2f9e44" opacity="0.55" />
<rect x="555.80" y="349.54" width="2.28" height="3.87" fill="#2f9e44" opacity="0.55" />
<rect x="559.07" y="348.74" width="2.28" height="4.67" fill="#2f9e44" opacity="0.55" />
<rect x="562.35" y="348.06" width="2.28" height="5.35" fill="#2f9e44" opacity="0.55" />
<rect x="565.62" y="349.56" width="2.28" height="3.85" fill="#2f9e44" opacity="0.55" />
<rect x="568.90" y="351.98" width="2.28" height="1.43" fill="#2f9e44" opacity="0.55" />
<rect x="572.17" y="352.12" width="2.28" height="1.29" fill="#2f9e44" opacity="0.55" />
<rect x="575.45" y="351.55" width="2.28" height="1.86" fill="#2f9e44" opacity="0.55" />
<rect x="578.72" y="350.41" width="2.28" height="3.00" fill="#2f9e44" opacity="0.55" />
<rect x="581.99" y="350.71" width="2.28" height="2.70" fill="#2f9e44" opacity="0.55" />
<rect x="585.27" y="349.83" width="2.28" height="3.58" fill="#2f9e44" opacity="0.55" />
<rect x="588.54" y="349.24" width="2.28" height="4.17" fill="#2f9e44" opacity="0.55" />
<rect x="591.82" y="348.02" width="2.28" height="5.39" fill="#2f9e44" opacity="0.55" />
<rect x="595.09" y="346.71" width="2.28" height="6.70" fill="#2f9e44" opacity="0.55" />
<rect x="598.36" y="346.41" width="2.28" height="7.00" fill="#2f9e44" opacity="0.55" />
<rect x="601.64" y="346.69" width="2.28" height="6.72" fill="#2f9e44" opacity="0.55" />
<rect x="604.91" y="347.50" width="2.28" height="5.91" fill="#2f9e44" opacity="0.55" />
<rect x="608.19" y="344.89" width="2.28" height="8.52" fill="#2f9e44" opacity="0.55" />
<rect x="611.46" y="344.45" width="2.28" height="8.96" fill="#2f9e44" opacity="0.55" />
<rect x="614.73" y="345.42" width="2.28" height="7.99" fill="#2f9e44" opacity="0.55" />
<rect x="618.01" y="346.10" width="2.28" height="7.31" fill="#2f9e44" opacity="0.55" />
<rect x="621.28" y="347.08" width="2.28" height="6.33" fill="#2f9e44" opacity="0.55" />
<rect x="624.56" y="348.33" width="2.28" height="5.08" fill="#2f9e44" opacity="0.55" />
<rect x="627.83" y="348.65" width="2.28" height="4.76" fill="#2f9e44" opacity="0.55" />
<rect x="631.11" y="350.38" width="2.28" height="3.03" fill="#2f9e44" opacity="0.55" />
<rect x="634.38" y="350.45" width="2.28" height="2.96" fill="#2f9e44" opacity="0.55" />
<rect x="637.65" y="352.26" width="2.28" height="1.15" fill="#2f9e44" opacity="0.55" />
<rect x="640.93" y="353.41" width="2.28" height="0.22" fill="#d64545" opacity="0.55" />
<rect x="644.20" y="353.41" width="2.28" height="1.74" fill="#d64545" opacity="0.55" />
<rect x="647.48" y="353.41" width="2.28" height="3.25" fill="#d64545" opacity="0.55" />
<rect x="650.75" y="353.41" width="2.28" height="4.15" fill="#d64545" opacity="0.55" />
<rect x="654.02" y="353.41" width="2.28" height="2.44" fill="#d64545" opacity="0.55" />
<rect x="657.30" y="353.41" width="2.28" height="1.58" fill="#d64545" opacity="0.55" />
<rect x="660.57" y="353.41" width="2.28" height="0.58" fill="#d64545" opacity="0.55" />
<rect x="663.85" y="353.41" width="2.28" height="0.00" fill="#d64545" opacity="0.55" />
<rect x="667.12" y="353.41" width="2.28" height="0.09" fill="#d64545" opacity="0.55" />
<rect x="670.40" y="353.32" width="2.28" height="0.08" fill="#2f9e44" opacity="0.55" />
<rect x="673.67" y="353.41" width="2.28" height="0.95" fill="#d64545" opacity="0.55" />
<rect x="676.94" y="353.41" width="2.28" height="1.38" fill="#d64545" opacity="0.55" />
<rect x="680.22" y="350.74" width="2.28" height="2.67" fill="#2f9e44" opacity="0.55" />
<rect x="683.49" y="346.50" width="2.28" height="6.91" fill="#2f9e44" opacity="0.55" />
<rect x="686.77" y="342.51" width="2.28" height="10.90" fill="#2f9e44" opacity="0.55" />
<rect x="690.04" y="338.51" width="2.28" height="14.90" fill="#2f9e44" opacity="0.55" />
<rect x="693.31" y="337.51" width="2.28" height="15.90" fill="#2f9e44" opacity="0.55" />
<rect x="696.59" y="337.13" width="2.28" height="16.28" fill="#2f9e44" opacity="0.55" />
<rect x="699.86" y="336.94" width="2.28" height="16.47" fill="#2f9e44" opacity="0.55" />
<rect x="703.14" y="336.27" width="2.28" height="17.14" fill="#2f9e44" opacity="0.55" />
<rect x="706.41" y="339.50" width="2.28" height="13.91" fill="#2f9e44" opacity="0.55" />
<rect x="709.68" y="343.11" width="2.28" height="10.30" fill="#2f9e44" opacity="0.55" />
<rect x="712.96" y="346.16" width="2.28" height="7.25" fill="#2f9e44" opacity="0.55" />
<rect x="716.23" y="350.28" width="2.28" height="3.13" fill="#2f9e44" opacity="0.55" />
<rect x="719.51" y="353.41" width="2.28" height="0.31" fill="#d64545" opacity="0.55" />
<rect x="722.78" y="353.41" width="2.28" height="3.22" fill="#d64545" opacity="0.55" />
<rect x="726.06" y="353.41" width="2.28" height="2.61" fill="#d64545" opacity="0.55" />
<rect x="729.33" y="353.41" width="2.28" height="0.27" fill="#d64545" opacity="0.55" />
<rect x="732.60" y="351.19" width="2.28" height="2.22" fill="#2f9e44" opacity="0.55" />
<rect x="735.88" y="347.89" width="2.28" height="5.52" fill="#2f9e44" opacity="0.55" />
<rect x="739.15" y="346.18" width="2.28" height="7.23" fill="#2f9e44" opacity="0.55" />
<rect x="742.43" y="345.38" width="2.28" height="8.03" fill="#2f9e44" opacity="0.55" />
<rect x="745.70" y="346.02" width="2.28" height="7.39" fill="#2f9e44" opacity="0.55" />
<rect x="748.97" y="348.71" width="2.28" height="4.70" fill="#2f9e44" opacity="0.55" />
<rect x="752.25" y="350.21" width="2.28" height="3.20" fill="#2f9e44" opacity="0.55" />
<rect x="755.52" y="350.21" width="2.28" height="3.20" fill="#2f9e44" opacity="0.55" />
<rect x="758.80" y="351.28" width="2.28" height="2.13" fill="#2f9e44" opacity="0.55" />
<rect x="762.07" y="353.41" width="2.28" height="0.42" fill="#d64545" opacity="0.55" />
<rect x="765.34" y="353.41" width="2.28" height="3.48" fill="#d64545" opacity="0.55" />
<rect x="768.62" y="353.41" width="2.28" height="3.92" fill="#d64545" opacity="0.55" />
<rect x="771.89" y="353.41" width="2.28" height="3.86" fill="#d64545" opacity="0.55" />
<rect x="775.17" y="353.41" width="2.28" height="3.34" fill="#d64545" opacity="0.55" />
<rect x="778.44" y="353.41" width="2.28" height="2.85" fill="#d64545" opacity="0.55" />
<rect x="781.72" y="353.41" width="2.28" height="3.12" fill="#d64545" opacity="0.55" />
<rect x="784.99" y="353.41" width="2.28" height="0.36" fill="#d64545" opacity="0.55" />
<rect x="788.26" y="347.06" width="2.28" height="6.35" fill="#2f9e44" opacity="0.55" />
<rect x="791.54" y="338.17" width="2.28" height="15.24" fill="#2f9e44" opacity="0.55" />
<rect x="794.81" y="334.51" width="2.28" height="18.90" fill="#2f9e44" opacity="0.55" />
<rect x="798.09" y="336.89" width="2.28" height="16.52" fill="#2f9e44" opacity="0.55" />
<rect x="801.36" y="338.19" width="2.28" height="15.22" fill="#2f9e44" opacity="0.55" />
<rect x="804.63" y="345.52" width="2.28" height="7.89" fill="#2f9e44" opacity="0.55" />
<rect x="807.91" y="351.39" width="2.28" height="2.02" fill="#2f9e44" opacity="0.55" />
<rect x="811.18" y="353.41" width="2.28" height="3.59" fill="#d64545" opacity="0.55" />
<rect x="814.46" y="353.41" width="2.28" height="8.40" fill="#d64545" opacity="0.55" />
<rect x="817.73" y="353.41" width="2.28" height="15.40" fill="#d64545" opacity="0.55" />
<rect x="821.01" y="353.41" width="2.28" height="19.33" fill="#d64545" opacity="0.55" />
<rect x="824.28" y="353.41" width="2.28" height="19.08" fill="#d64545" opacity="0.55" />
<rect x="827.55" y="353.41" width="2.28" height="19.21" fill="#d64545" opacity="0.55" />
<rect x="830.83" y="353.41" width="2.28" height="19.64" fill="#d64545" opacity="0.55" />
<rect x="834.10" y="353.41" width="2.28" height="18.88" fill="#d64545" opacity="0.55" />
<rect x="837.38" y="353.41" width="2.28" height="19.71" fill="#d64545" opacity="0.55" />
<rect x="840.65" y="353.41" width="2.28" height="21.63" fill="#d64545" opacity="0.55" />
<rect x="843.92" y="353.41" width="2.28" height="23.53" fill="#d64545" opacity="0.55" />
<rect x="847.20" y="353.41" width="2.28" height="24.67" fill="#d64545" opacity="0.55" />
<rect x="850.47" y="353.41" width="2.28" height="24.94" fill="#d64545" opacity="0.55" />
<rect x="853.75" y="353.41" width="2.28" height="23.87" fill="#d64545" opacity="0.55" />
<rect x="857.02" y="353.41" width="2.28" height="22.04" fill="#d64545" opacity="0.55" />
<rect x="860.29" y="353.41" width="2.28" height="20.47" fill="#d64545" opacity="0.55" />
<rect x="863.57" y="353.41" width="2.28" height="18.66" fill="#d64545" opacity="0.55" />
<rect x="866.84" y="353.41" width="2.28" height="15.40" fill="#d64545" opacity="0.55" />
<rect x="870.12" y="353.41" width="2.28" height="12.71" fill="#d64545" opacity="0.55" />
<rect x="873.39" y="353.41" width="2.28" height="10.23" fill="#d64545" opacity="0.55" />
<rect x="876.67" y="353.41" width="2.28" height="6.86" fill="#d64545" opacity="0.55" />
<rect x="879.94" y="353.41" width="2.28" height="4.69" fill="#d64545" opacity="0.55" />
<rect x="883.21" y="353.41" width="2.28" height="4.80" fill="#d64545" opacity="0.55" />
<rect x="886.49" y="353.41" width="2.28" height="5.03" fill="#d64545" opacity="0.55" />
<rect x="889.76" y="353.41" width="2.28" height="3.37" fill="#d64545" opacity="0.55" />
<rect x="893.04" y="353.41" width="2.28" height="3.65" fill="#d64545" opacity="0.55" />
<rect x="896.31" y="353.41" width="2.28" height="2.64" fill="#d64545" opacity="0.55" />
<rect x="899.58" y="353.41" width="2.28" height="2.58" fill="#d64545" opacity="0.55" />
<rect x="902.86" y="353.41" width="2.28" height="0.59" fill="#d64545" opacity="0.55" />
<polyline fill="none" stroke="#1f77b4" stroke-width="2" points="137.85,341.66 141.13,343.87 144.40,344.74 147.68,345.29 150.95,350.03 154.22,353.65 157.50,357.05 160.77,358.72 164.05,360.26 167.32,361.73 170.59,362.33 173.87,361.38 177.14,364.68 180.42,367.38 183.69,369.88 186.97,371.78 190.24,370.20 193.51,367.11 196.79,363.65 200.06,335.50 203.34,319.61 206.61,312.13 209.88,303.83 213.16,296.57 216.43,293.07 219.71,292.41 222.98,289.07 226.25,281.50 229.53,280.57 232.80,282.24 236.08,289.35 239.35,297.96 242.63,305.53 245.90,312.45 249.17,316.08 252.45,319.41 255.72,323.18 259.00,324.89 262.27,328.69 265.54,330.68 268.82,329.91 272.09,330.74 275.37,327.26 278.64,327.46 281.92,326.56 285.19,323.42 288.46,327.64 291.74,335.37 295.01,342.23 298.29,348.46 301.56,351.23 304.83,352.47 308.11,354.02 311.38,355.39 314.66,358.06 317.93,365.48 321.20,369.48 324.48,373.82 327.75,379.82 331.03,383.60 334.30,388.11 337.58,392.58 340.85,395.18 344.12,398.11 347.40,402.57 350.67,408.25 353.95,410.54 357.22,412.56 360.49,413.28 363.77,411.69 367.04,414.11 370.32,418.81 373.59,421.30 376.86,423.43 380.14,421.98 383.41,420.94 386.69,419.66 389.96,417.85 393.24,413.76 396.51,407.93 399.78,401.80 403.06,395.58 406.33,389.94 409.61,384.67 412.88,387.24 416.15,391.47 419.43,395.82 422.70,397.66 425.98,401.58 429.25,403.64 432.53,401.19 435.80,396.85 439.07,393.85 442.35,390.40 445.62,387.14 448.90,384.96 452.17,382.36 455.44,380.66 458.72,378.79 461.99,377.94 465.27,376.66 468.54,375.66 471.81,375.55 475.09,372.47 478.36,368.03 481.64,365.09 484.91,365.20 488.19,366.25 491.46,366.56 494.73,369.93 498.01,374.15 501.28,375.96 504.56,377.42 507.83,376.74 511.10,378.16 514.38,379.60 517.65,381.54 520.93,384.04 524.20,386.97 527.47,390.47 530.75,395.13 534.02,401.29 537.30,403.71 540.57,401.00 543.85,397.37 547.12,394.82 550.39,392.56 553.67,389.26 556.94,388.08 560.22,386.11 563.49,384.09 566.76,384.64 570.04,386.69 573.31,386.51 576.59,385.47 579.86,383.59 583.14,383.21 586.41,381.44 589.68,379.81 592.96,377.24 596.23,374.25 599.51,372.21 602.78,370.80 606.05,370.13 609.33,365.40 612.60,362.72 615.88,361.69 619.15,360.55 622.42,359.94 625.70,359.92 628.97,359.06 632.25,360.03 635.52,359.35 638.80,360.87 642.07,362.30 645.34,364.25 648.62,366.58 651.89,368.51 655.17,367.41 658.44,366.95 661.71,366.09 664.99,365.52 668.26,365.63 671.54,365.43 674.81,366.70 678.08,367.47 681.36,362.76 684.63,356.80 687.91,350.08 691.18,342.35 694.46,337.38 697.73,332.93 701.00,328.62 704.28,323.67 707.55,323.42 710.83,324.46 714.10,325.69 717.37,329.03 720.65,332.55 723.92,336.27 727.20,336.30 730.47,334.04 733.75,331.00 737.02,326.31 740.29,322.79 743.57,319.98 746.84,318.78 750.12,320.30 753.39,321.00 756.66,320.20 759.94,320.73 763.21,323.39 766.49,327.32 769.76,328.73 773.03,329.65 776.31,329.95 779.58,330.17 782.86,331.23 786.13,328.56 789.41,320.26 792.68,307.56 795.95,299.18 799.23,297.42 802.50,294.91 805.78,300.28 809.05,305.64 812.32,312.15 815.60,319.06 818.87,329.91 822.15,338.67 825.42,343.19 828.69,348.13 831.97,353.46 835.24,357.42 838.52,363.18 841.79,370.50 845.07,378.29 848.34,385.59 851.61,392.11 854.89,396.99 858.16,400.68 861.44,404.22 864.71,407.08 867.98,407.67 871.26,408.16 874.53,408.24 877.81,406.58 881.08,405.59 884.36,406.90 887.63,408.38 890.90,407.57 894.18,408.76 897.45,408.41 900.73,409.00 904.00,407.15" />
<polyline fill="none" stroke="#ff7f0e" stroke-width="2" points="137.85,341.66 141.13,342.10 144.40,342.63 147.68,343.16 150.95,344.53 154.22,346.36 157.50,348.49 160.77,350.54 164.05,352.48 167.32,354.33 170.59,355.93 173.87,357.02 177.14,358.55 180.42,360.32 183.69,362.23 186.97,364.14 190.24,365.35 193.51,365.70 196.79,365.29 200.06,359.33 203.34,351.39 206.61,343.54 209.88,335.59 213.16,327.79 216.43,320.85 219.71,315.16 222.98,309.94 226.25,304.25 229.53,299.52 232.80,296.06 236.08,294.72 239.35,295.37 242.63,297.40 245.90,300.41 249.17,303.54 252.45,306.72 255.72,310.01 259.00,312.98 262.27,316.13 265.54,319.04 268.82,321.21 272.09,323.12 275.37,323.94 278.64,324.65 281.92,325.03 285.19,324.71 288.46,325.30 291.74,327.31 295.01,330.29 298.29,333.93 301.56,337.39 304.83,340.40 308.11,343.13 311.38,345.58 314.66,348.07 317.93,351.55 321.20,355.14 324.48,358.88 327.75,363.07 331.03,367.17 334.30,371.36 337.58,375.61 340.85,379.52 344.12,383.24 347.40,387.10 350.67,391.33 353.95,395.18 357.22,398.65 360.49,401.58 363.77,403.60 367.04,405.70 370.32,408.32 373.59,410.92 376.86,413.42 380.14,415.13 383.41,416.29 386.69,416.97 389.96,417.14 393.24,416.47 396.51,414.76 399.78,412.17 403.06,408.85 406.33,405.07 409.61,400.99 412.88,398.24 416.15,396.88 419.43,396.67 422.70,396.87 425.98,397.81 429.25,398.98 432.53,399.42 435.80,398.91 439.07,397.89 442.35,396.40 445.62,394.54 448.90,392.63 452.17,390.57 455.44,388.59 458.72,386.63 461.99,384.89 465.27,383.25 468.54,381.73 471.81,380.49 475.09,378.89 478.36,376.72 481.64,374.39 484.91,372.55 488.19,371.29 491.46,370.34 494.73,370.26 498.01,371.04 501.28,372.02 504.56,373.10 507.83,373.83 511.10,374.70 514.38,375.68 517.65,376.85 520.93,378.29 524.20,380.02 527.47,382.11 530.75,384.71 534.02,388.03 537.30,391.17 540.57,393.13 543.85,393.98 547.12,394.15 550.39,393.83 553.67,392.92 556.94,391.95 560.22,390.78 563.49,389.44 566.76,388.48 570.04,388.12 573.31,387.80 576.59,387.34 579.86,386.59 583.14,385.91 586.41,385.02 589.68,383.97 592.96,382.63 596.23,380.95 599.51,379.20 602.78,377.52 606.05,376.04 609.33,373.92 612.60,371.68 615.88,369.68 619.15,367.85 622.42,366.27 625.70,365.00 628.97,363.81 632.25,363.05 635.52,362.31 638.80,362.03 642.07,362.08 645.34,362.51 648.62,363.33 651.89,364.36 655.17,364.97 658.44,365.37 661.71,365.51 664.99,365.51 668.26,365.54 671.54,365.52 674.81,365.75 678.08,366.10 681.36,365.43 684.63,363.70 687.91,360.98 691.18,357.25 694.46,353.28 697.73,349.21 701.00,345.09 704.28,340.81 707.55,337.33 710.83,334.76 714.10,332.94 717.37,332.16 720.65,332.24 723.92,333.04 727.20,333.70 730.47,333.76 733.75,333.21 737.02,331.83 740.29,330.02 743.57,328.01 746.84,326.17 750.12,324.99 753.39,324.19 756.66,323.39 759.94,322.86 763.21,322.97 766.49,323.84 769.76,324.82 773.03,325.78 776.31,326.62 779.58,327.33 782.86,328.11 786.13,328.20 789.41,326.61 792.68,322.80 795.95,318.08 799.23,313.95 802.50,310.14 805.78,308.17 809.05,307.66 812.32,308.56 815.60,310.66 818.87,314.51 822.15,319.34 825.42,324.11 828.69,328.91 831.97,333.82 835.24,338.54 838.52,343.47 841.79,348.88 845.07,354.76 848.34,360.93 851.61,367.16 854.89,373.13 858.16,378.64 861.44,383.76 864.71,388.42 867.98,392.27 871.26,395.45 874.53,398.01 877.81,399.72 881.08,400.89 884.36,402.10 887.63,403.35 890.90,404.19 894.18,405.11 897.45,405.77 900.73,406.41 904.00,406.56" />
<text x="754.00" y="290.00" font-size="13" font-family="Arial" fill="#1f77b4" text-anchor="start">MACD</text>
<text x="818.00" y="290.00" font-size="13" font-family="Arial" fill="#ff7f0e" text-anchor="start">Signal</text>
<line x1="56" y1="624" x2="904" y2="624" stroke="#cbd2d9" />
<line x1="56" y1="484" x2="56" y2="624" stroke="#cbd2d9" />
<text x="16.00" y="476.00" font-size="12" font-family="Arial" fill="#52606d" text-anchor="start">KD</text>
<line x1="56" y1="624.00" x2="904" y2="624.00" stroke="#edf2f7" />
<line x1="52" y1="624.00" x2="56" y2="624.00" stroke="#9fb3c8" />
<text x="48.00" y="628.00" font-size="11" font-family="Arial" fill="#52606d" text-anchor="end">-5.00</text>
<line x1="56" y1="577.33" x2="904" y2="577.33" stroke="#edf2f7" />
<line x1="52" y1="577.33" x2="56" y2="577.33" stroke="#9fb3c8" />
<text x="48.00" y="581.33" font-size="11" font-family="Arial" fill="#52606d" text-anchor="end">31.7</text>
<line x1="56" y1="530.67" x2="904" y2="530.67" stroke="#edf2f7" />
<line x1="52" y1="530.67" x2="56" y2="530.67" stroke="#9fb3c8" />
<text x="48.00" y="534.67" font-size="11" font-family="Arial" fill="#52606d" text-anchor="end">68.3</text>
<line x1="56" y1="484.00" x2="904" y2="484.00" stroke="#edf2f7" />
<line x1="52" y1="484.00" x2="56" y2="484.00" stroke="#9fb3c8" />
<text x="48.00" y="488.00" font-size="11" font-family="Arial" fill="#52606d" text-anchor="end">105</text>
<line x1="56.00" y1="624" x2="56.00" y2="628" stroke="#9fb3c8" />
<text x="56.00" y="642.00" font-size="11" font-family="Arial" fill="#52606d" text-anchor="middle">07/09</text>
<line x1="226.25" y1="624" x2="226.25" y2="628" stroke="#9fb3c8" />
<text x="226.25" y="642.00" font-size="11" font-family="Arial" fill="#52606d" text-anchor="middle">09/22</text>
<line x1="396.51" y1="624" x2="396.51" y2="628" stroke="#9fb3c8" />
<text x="396.51" y="642.00" font-size="11" font-family="Arial" fill="#52606d" text-anchor="middle">12/04</text>
<line x1="563.49" y1="624" x2="563.49" y2="628" stroke="#9fb3c8" />
<text x="563.49" y="642.00" font-size="11" font-family="Arial" fill="#52606d" text-anchor="middle">02/19</text>
<line x1="733.75" y1="624" x2="733.75" y2="628" stroke="#9fb3c8" />
<text x="733.75" y="642.00" font-size="11" font-family="Arial" fill="#52606d" text-anchor="middle">05/05</text>
<line x1="904.00" y1="624" x2="904.00" y2="628" stroke="#9fb3c8" />
<text x="904.00" y="642.00" font-size="11" font-family="Arial" fill="#52606d" text-anchor="middle">07/21</text>
<line x1="56" y1="592.18" x2="904" y2="592.18" stroke="#f0b429" stroke-dasharray="5 5" />
<text x="912.00" y="596.18" font-size="10" font-family="Arial" fill="#8d2b0b" text-anchor="start">20.0</text>
<line x1="56" y1="515.82" x2="904" y2="515.82" stroke="#f0b429" stroke-dasharray="5 5" />
<text x="912.00" y="519.82" font-size="10" font-family="Arial" fill="#8d2b0b" text-anchor="start">80.0</text>
<polyline fill="none" stroke="#2ca02c" stroke-width="2" points="82.19,550.10 85.47,556.10 88.74,554.09 92.02,551.29 95.29,548.48 98.56,544.51 101.84,540.65 105.11,536.61 108.39,537.79 111.66,553.98 114.93,554.14 118.21,549.76 121.48,545.96 124.76,559.56 128.03,567.15 131.31,566.37 134.58,563.23 137.85,582.83 141.13,595.42 144.40,595.07 147.68,592.35 150.95,601.20 154.22,600.72 157.50,603.09 160.77,600.12 164.05,599.46 167.32,599.22 170.59,596.07 173.87,584.35 177.14,594.68 180.42,595.06 183.69,598.66 186.97,601.88 190.24,586.27 193.51,566.20 196.79,549.00 200.06,536.50 203.34,534.94 206.61,539.07 209.88,538.64 213.16,536.85 216.43,538.24 219.71,542.30 222.98,540.46 226.25,540.48 229.53,546.15 232.80,555.11 236.08,576.47 239.35,592.69 242.63,601.04 245.90,604.85 249.17,601.31 252.45,599.14 255.72,599.24 259.00,590.98 262.27,584.52 265.54,571.81 268.82,554.35 272.09,553.31 275.37,538.35 278.64,537.91 281.92,532.97 285.19,529.08 288.46,544.17 291.74,569.36 295.01,585.23 298.29,595.39 301.56,596.32 304.83,594.37 308.11,594.60 311.38,595.19 314.66,598.53 317.93,607.27 321.20,605.48 324.48,609.33 327.75,611.48 331.03,610.78 334.30,611.12 337.58,609.60 340.85,606.96 344.12,605.32 347.40,610.87 350.67,612.90 353.95,604.99 357.22,602.08 360.49,598.83 363.77,590.44 367.04,601.37 370.32,603.59 373.59,603.55 376.86,599.90 380.14,590.57 383.41,586.97 386.69,585.45 389.96,584.30 393.24,577.77 396.51,553.09 399.78,537.19 403.06,528.43 406.33,523.81 409.61,519.25 412.88,540.41 416.15,563.80 419.43,580.05 422.70,587.32 425.98,597.70 429.25,603.26 432.53,596.56 435.80,586.52 439.07,568.96 442.35,549.00 445.62,537.23 448.90,534.10 452.17,528.70 455.44,530.18 458.72,539.52 461.99,571.99 465.27,582.58 468.54,593.11 471.81,596.68 475.09,573.65 478.36,552.82 481.64,545.55 484.91,557.59 488.19,572.93 491.46,580.75 494.73,594.07 498.01,599.56 501.28,598.35 504.56,598.70 507.83,592.95 511.10,596.97 514.38,602.12 517.65,598.46 520.93,601.68 524.20,608.76 527.47,609.56 530.75,610.98 534.02,612.96 537.30,608.51 540.57,593.04 543.85,573.47 547.12,563.62 550.39,557.86 553.67,544.31 556.94,543.91 560.22,540.56 563.49,539.75 566.76,565.59 570.04,580.18 573.31,581.61 576.59,578.81 579.86,572.65 583.14,576.19 586.41,571.00 589.68,568.02 592.96,549.51 596.23,539.05 599.51,537.94 602.78,542.53 606.05,550.64 609.33,544.11 612.60,545.20 615.88,553.12 619.15,560.46 622.42,567.48 625.70,575.14 628.97,575.89 632.25,588.57 635.52,588.78 638.80,599.98 642.07,604.79 645.34,610.94 648.62,612.37 651.89,612.24 655.17,594.62 658.44,585.91 661.71,577.52 664.99,571.92 668.26,569.96 671.54,569.14 674.81,581.52 678.08,585.92 681.36,555.71 684.63,542.41 687.91,528.79 691.18,518.35 694.46,517.56 697.73,514.90 701.00,510.73 704.28,505.75 707.55,512.21 710.83,530.27 714.10,548.03 717.37,566.02 720.65,579.34 723.92,591.37 727.20,584.09 730.47,566.84 733.75,544.28 737.02,527.48 740.29,521.75 743.57,516.48 746.84,515.22 750.12,521.81 753.39,525.12 756.66,522.80 759.94,528.46 763.21,547.29 766.49,570.83 769.76,569.57 773.03,565.62 776.31,558.54 779.58,551.92 782.86,551.56 786.13,534.41 789.41,520.88 792.68,512.47 795.95,508.97 799.23,516.71 802.50,517.95 805.78,534.15 809.05,546.21 812.32,561.28 815.60,577.82 818.87,586.46 822.15,592.13 825.42,589.78 828.69,590.80 831.97,594.00 835.24,594.02 838.52,601.84 841.79,607.12 845.07,608.89 848.34,610.32 851.61,612.75 854.89,612.64 858.16,612.86 861.44,614.91 864.71,614.94 867.98,610.54 871.26,607.55 874.53,605.73 877.81,594.25 881.08,594.31 884.36,601.65 887.63,606.31 890.90,600.42 894.18,605.24 897.45,601.82 900.73,605.12 904.00,599.04" />
<polyline fill="none" stroke="#d62728" stroke-width="2" points="82.19,552.70 85.47,553.83 88.74,553.92 92.02,553.04 95.29,551.52 98.56,549.18 101.84,546.34 105.11,543.09 108.39,541.33 111.66,545.54 114.93,548.41 118.21,548.86 121.48,547.89 124.76,551.78 128.03,556.90 131.31,560.06 134.58,561.12 137.85,568.36 141.13,577.38 144.40,583.27 147.68,586.30 150.95,591.27 154.22,594.42 157.50,597.31 160.77,598.25 164.05,598.65 167.32,598.84 170.59,597.92 173.87,593.39 177.14,593.82 180.42,594.23 183.69,595.71 186.97,597.76 190.24,593.93 193.51,584.69 196.79,572.79 200.06,560.70 203.34,552.11 206.61,547.76 209.88,544.72 213.16,542.10 216.43,540.81 219.71,541.31 222.98,541.02 226.25,540.84 229.53,542.61 232.80,546.78 236.08,556.68 239.35,568.68 242.63,579.47 245.90,587.93 249.17,592.39 252.45,594.64 255.72,596.17 259.00,594.44 262.27,591.14 265.54,584.69 268.82,574.58 272.09,567.49 275.37,557.78 278.64,551.15 281.92,545.09 285.19,539.76 288.46,541.23 291.74,550.61 295.01,562.15 298.29,573.23 301.56,580.93 304.83,585.41 308.11,588.47 311.38,590.71 314.66,593.32 317.93,597.97 321.20,600.47 324.48,603.43 327.75,606.11 331.03,607.67 334.30,608.82 337.58,609.08 340.85,608.37 344.12,607.36 347.40,608.53 350.67,609.98 353.95,608.32 357.22,606.24 360.49,603.77 363.77,599.33 367.04,600.01 370.32,601.20 373.59,601.98 376.86,601.29 380.14,597.72 383.41,594.14 386.69,591.24 389.96,588.93 393.24,585.21 396.51,574.50 399.78,562.06 403.06,550.85 406.33,541.84 409.61,534.31 412.88,536.34 416.15,545.50 419.43,557.02 422.70,567.12 425.98,577.31 429.25,585.96 432.53,589.49 435.80,588.50 439.07,581.99 442.35,570.99 445.62,559.74 448.90,551.19 452.17,543.70 455.44,539.19 458.72,539.30 461.99,550.20 465.27,560.99 468.54,571.70 471.81,580.02 475.09,577.90 478.36,569.54 481.64,561.54 484.91,560.22 488.19,564.46 491.46,569.89 494.73,577.95 498.01,585.16 501.28,589.55 504.56,592.60 507.83,592.72 511.10,594.13 514.38,596.80 517.65,597.35 520.93,598.79 524.20,602.11 527.47,604.60 530.75,606.73 534.02,608.81 537.30,608.71 540.57,603.49 543.85,593.48 547.12,583.53 550.39,574.97 553.67,564.75 556.94,557.80 560.22,552.06 563.49,547.95 566.76,553.83 570.04,562.61 573.31,568.95 576.59,572.23 579.86,572.37 583.14,573.64 586.41,572.76 589.68,571.18 592.96,563.96 596.23,555.66 599.51,549.75 602.78,547.34 606.05,548.44 609.33,547.00 612.60,546.40 615.88,548.64 619.15,552.58 622.42,557.55 625.70,563.41 628.97,567.57 632.25,574.57 635.52,579.31 638.80,586.20 642.07,592.40 645.34,598.58 648.62,603.17 651.89,606.20 655.17,602.34 658.44,596.86 661.71,590.42 664.99,584.25 668.26,579.49 671.54,576.04 674.81,577.86 678.08,580.55 681.36,572.27 684.63,562.32 687.91,551.14 691.18,540.21 694.46,532.66 697.73,526.74 701.00,521.40 704.28,516.18 707.55,514.86 710.83,520.00 714.10,529.34 717.37,541.57 720.65,554.16 723.92,566.56 727.20,572.41 730.47,570.55 733.75,561.80 737.02,550.36 740.29,540.82 743.57,532.71 746.84,526.88 750.12,525.19 753.39,525.16 756.66,524.38 759.94,525.74 763.21,532.92 766.49,545.56 769.76,553.56 773.03,557.58 776.31,557.90 779.58,555.91 782.86,554.46 786.13,547.78 789.41,538.81 792.68,530.03 795.95,523.01 799.23,520.91 802.50,519.92 805.78,524.67 809.05,531.85 812.32,541.66 815.60,553.71 818.87,564.63 822.15,573.80 825.42,579.12 828.69,583.02 831.97,586.68 835.24,589.12 838.52,593.36 841.79,597.95 845.07,601.60 848.34,604.51 851.61,607.25 854.89,609.05 858.16,610.32 861.44,611.85 864.71,612.88 867.98,612.10 871.26,610.58 874.53,608.96 877.81,604.06 881.08,600.81 884.36,601.09 887.63,602.83 890.90,602.03 894.18,603.10 897.45,602.67 900.73,603.49 904.00,602.00" />
<text x="824.00" y="502.00" font-size="13" font-family="Arial" fill="#2ca02c" text-anchor="start">K</text>
<text x="860.00" y="502.00" font-size="13" font-family="Arial" fill="#d62728" text-anchor="start">D</text>
</svg>