<svg xmlns="http://www.w3.org/2000/svg" width="960" height="680" viewBox="0 0 960 680"><rect width="100%" height="100%" fill="white" />
<text x="56.00" y="32.00" font-size="20" font-family="Arial" fill="#1f2933" text-anchor="start">ORCL Technical Indicators</text>
<line x1="56" y1="220" x2="904" y2="220" stroke="#cbd2d9" />
<line x1="56" y1="58" x2="56" y2="220" stroke="#cbd2d9" />
<text x="16.00" y="50.00" font-size="12" font-family="Arial" fill="#52606d" text-anchor="start">RSI14</text>
<line x1="56" y1="220.00" x2="904" y2="220.00" stroke="#edf2f7" />
<line x1="52" y1="220.00" x2="56" y2="220.00" stroke="#9fb3c8" />
<text x="48.00" y="224.00" font-size="11" font-family="Arial" fill="#52606d" text-anchor="end">-5.00</text>
<line x1="56" y1="166.00" x2="904" y2="166.00" stroke="#edf2f7" />
<line x1="52" y1="166.00" x2="56" y2="166.00" stroke="#9fb3c8" />
<text x="48.00" y="170.00" font-size="11" font-family="Arial" fill="#52606d" text-anchor="end">31.7</text>
<line x1="56" y1="112.00" x2="904" y2="112.00" stroke="#edf2f7" />
<line x1="52" y1="112.00" x2="56" y2="112.00" stroke="#9fb3c8" />
<text x="48.00" y="116.00" font-size="11" font-family="Arial" fill="#52606d" text-anchor="end">68.3</text>
<line x1="56" y1="58.00" x2="904" y2="58.00" stroke="#edf2f7" />
<line x1="52" y1="58.00" x2="56" y2="58.00" stroke="#9fb3c8" />
<text x="48.00" y="62.00" font-size="11" font-family="Arial" fill="#52606d" text-anchor="end">105</text>
<line x1="56" y1="168.45" x2="904" y2="168.45" stroke="#f0b429" stroke-dasharray="5 5" />
<text x="912.00" y="172.45" font-size="10" font-family="Arial" fill="#8d2b0b" text-anchor="start">30.0</text>
<line x1="56" y1="109.55" x2="904" y2="109.55" stroke="#f0b429" stroke-dasharray="5 5" />
<text x="912.00" y="113.55" font-size="10" font-family="Arial" fill="#8d2b0b" text-anchor="start">70.0</text>
<polyline fill="none" stroke="#1f77b4" stroke-width="2" points="101.84,106.76 105.11,116.46 108.39,113.17 111.66,112.37 114.93,110.37 118.21,108.15 121.48,106.25 124.76,105.73 128.03,103.05 131.31,122.11 134.58,114.18 137.85,111.49 141.13,110.84 144.40,123.43 147.68,122.72 150.95,119.83 154.22,118.54 157.50,134.84 160.77,133.81 164.05,129.46 167.32,128.43 170.59,148.64 173.87,147.99 177.14,150.25 180.42,145.17 183.69,146.44 186.97,148.09 190.24,145.24 193.51,137.67 196.79,155.89 200.06,156.74 203.34,158.69 206.61,159.18 209.88,142.74 213.16,135.10 216.43,131.36 219.71,90.23 222.98,106.95 226.25,117.66 229.53,114.27 232.80,112.77 236.08,116.46 239.35,119.83 242.63,115.11 245.90,108.58 249.17,118.37 252.45,121.82 255.72,131.97 259.00,136.19 262.27,136.57 265.54,137.45 268.82,133.15 272.09,133.30 275.37,135.12 278.64,131.73 281.92,137.06 285.19,134.15 288.46,128.57 291.74,131.77 295.01,122.90 298.29,130.01 301.56,127.30 304.83,122.10 308.11,137.76 311.38,145.87 314.66,146.97 317.93,148.36 321.20,143.06 324.48,140.78 327.75,142.10 331.03,142.51 334.30,146.53 337.58,157.79 340.85,152.80 344.12,155.56 347.40,160.79 350.67,158.75 353.95,162.28 357.22,164.64 360.49,162.94 363.77,165.53 367.04,170.19 370.32,174.39 373.59,168.25 376.86,169.72 380.14,168.94 383.41,162.67 386.69,170.72 389.96,175.85 393.24,174.02 396.51,175.44 399.78,165.77 403.06,167.40 406.33,167.96 409.61,167.74 412.88,158.95 416.15,151.06 419.43,147.40 422.70,144.09 425.98,142.97 429.25,141.22 432.53,161.46 435.80,166.63 439.07,169.30 442.35,164.71 445.62,170.23 448.90,168.26 452.17,154.56 455.44,148.19 458.72,150.46 461.99,148.23 465.27,147.70 468.54,149.98 471.81,147.79 475.09,149.99 478.36,148.93 481.64,152.12 484.91,150.41 488.19,151.43 491.46,154.98 494.73,141.05 498.01,133.55 501.28,136.69 504.56,146.92 507.83,150.80 511.10,149.04 514.38,159.62 517.65,164.30 520.93,158.03 524.20,158.90 527.47,151.27 530.75,158.11 534.02,159.87 537.30,162.99 540.57,166.43 543.85,169.70 547.12,173.28 550.39,177.91 553.67,182.73 556.94,172.74 560.22,154.91 563.49,151.23 566.76,153.40 570.04,153.96 573.31,149.39 576.59,154.80 579.86,151.96 583.14,151.46 586.41,159.03 589.68,164.19 592.96,157.38 596.23,154.97 599.51,151.61 602.78,156.23 606.05,150.77 609.33,151.02 612.60,146.12 615.88,142.69 619.15,145.03 622.42,146.84 625.70,149.65 628.97,130.62 632.25,136.00 635.52,141.16 638.80,140.01 642.07,141.73 645.34,144.18 648.62,140.11 651.89,148.11 655.17,140.95 658.44,150.02 661.71,151.26 664.99,154.94 668.26,158.37 671.54,159.30 674.81,145.04 678.08,147.45 681.36,145.57 684.63,146.76 687.91,150.13 691.18,149.17 694.46,156.55 697.73,156.06 701.00,128.18 704.28,120.50 707.55,114.52 710.83,108.25 714.10,113.49 717.37,111.57 720.65,108.91 723.92,104.62 727.20,121.73 730.47,125.70 733.75,126.13 737.02,135.22 740.29,137.80 743.57,140.75 746.84,129.15 750.12,121.60 753.39,117.62 756.66,111.57 759.94,111.20 763.21,110.27 766.49,113.65 769.76,124.10 773.03,121.44 776.31,116.45 779.58,120.47 782.86,129.38 786.13,135.88 789.41,128.93 792.68,127.35 795.95,125.05 799.23,124.06 802.50,127.34 805.78,115.28 809.05,101.99 812.32,93.74 815.60,98.17 818.87,113.97 822.15,111.11 825.42,130.73 828.69,132.10 831.97,136.55 835.24,139.83 838.52,150.67 841.79,150.64 845.07,143.92 848.34,146.75 851.61,149.86 854.89,149.18 858.16,155.17 861.44,160.83 864.71,164.74 867.98,167.19 871.26,169.06 874.53,169.43 877.81,170.05 881.08,172.14 884.36,173.28 887.63,168.37 890.90,169.68 894.18,170.36 897.45,164.61 900.73,166.85 904.00,172.76" />
<text x="808.00" y="76.00" font-size="13" font-family="Arial" fill="#1f77b4" text-anchor="start">RSI14</text>
<line x1="56" y1="432" x2="904" y2="432" stroke="#cbd2d9" />
<line x1="56" y1="272" x2="56" y2="432" stroke="#cbd2d9" />
<text x="16.00" y="264.00" font-size="12" font-family="Arial" fill="#52606d" text-anchor="start">MACD</text>
<line x1="56" y1="432.00" x2="904" y2="432.00" stroke="#edf2f7" />
<line x1="52" y1="432.00" x2="56" y2="432.00" stroke="#9fb3c8" />
<text x="48.00" y="436.00" font-size="11" font-family="Arial" fill="#52606d" text-anchor="end">-21.3</text>
<line x1="56" y1="378.67" x2="904" y2="378.67" stroke="#edf2f7" />
<line x1="52" y1="378.67" x2="56" y2="378.67" stroke="#9fb3c8" />
<text x="48.00" y="382.67" font-size="11" font-family="Arial" fill="#52606d" text-anchor="end">-6.76</text>
<line x1="56" y1="325.33" x2="904" y2="325.33" stroke="#edf2f7" />
<line x1="52" y1="325.33" x2="56" y2="325.33" stroke="#9fb3c8" />
<text x="48.00" y="329.33" font-size="11" font-family="Arial" fill="#52606d" text-anchor="end">7.73</text>
<line x1="56" y1="272.00" x2="904" y2="272.00" stroke="#edf2f7" />
<line x1="52" y1="272.00" x2="56" y2="272.00" stroke="#9fb3c8" />
<text x="48.00" y="276.00" font-size="11" font-family="Arial" fill="#52606d" text-anchor="end">22.2</text>
<line x1="56" y1="353.79" x2="904" y2="353.79" stroke="#9fb3c8" stroke-dasharray="4 4" />
<rect x="136.71" y="353.79" width="2.28" height="0.00" fill="#2f9e44" opacity="0.55" />
<rect x="139.99" y="353.21" width="2.28" height="0.58" fill="#2f9e44" opacity="0.55" />
<rect x="143.26" y="353.79" width="2.28" height="0.94" fill="#d64545" opacity="0.55" />
<rect x="146.53" y="353.79" width="2.28" height="1.92" fill="#d64545" opacity="0.55" />
<rect x="149.81" y="353.79" width="2.28" height="2.04" fill="#d64545" opacity="0.55" />
<rect x="153.08" y="353.79" width="2.28" height="1.95" fill="#d64545" opacity="0.55" />
<rect x="156.36" y="353.79" width="2.28" height="4.25" fill="#d64545" opacity="0.55" />
<rect x="159.63" y="353.79" width="2.28" height="5.48" fill="#d64545" opacity="0.55" />
<rect x="162.90" y="353.79" width="2.28" height="5.39" fill="#d64545" opacity="0.55" />
<rect x="166.18" y="353.79" width="2.28" height="5.04" fill="#d64545" opacity="0.55" />
<rect x="169.45" y="353.79" width="2.28" height="8.07" fill="#d64545" opacity="0.55" />
<rect x="172.73" y="353.79" width="2.28" height="9.60" fill="#d64545" opacity="0.55" />
<rect x="176.00" y="353.79" width="2.28" height="10.61" fill="#d64545" opacity="0.55" />
<rect x="179.28" y="353.79" width="2.28" height="10.05" fill="#d64545" opacity="0.55" />
<rect x="182.55" y="353.79" width="2.28" height="9.47" fill="#d64545" opacity="0.55" />
<rect x="185.82" y="353.79" width="2.28" height="8.94" fill="#d64545" opacity="0.55" />
<rect x="189.10" y="353.79" width="2.28" height="7.80" fill="#d64545" opacity="0.55" />
<rect x="192.37" y="353.79" width="2.28" height="5.65" fill="#d64545" opacity="0.55" />
<rect x="195.65" y="353.79" width="2.28" height="7.31" fill="#d64545" opacity="0.55" />
<rect x="198.92" y="353.79" width="2.28" height="8.14" fill="#d64545" opacity="0.55" />
<rect x="202.19" y="353.79" width="2.28" height="8.63" fill="#d64545" opacity="0.55" />
<rect x="205.47" y="353.79" width="2.28" height="8.55" fill="#d64545" opacity="0.55" />
<rect x="208.74" y="353.79" width="2.28" height="5.70" fill="#d64545" opacity="0.55" />
<rect x="212.02" y="353.79" width="2.28" height="2.21" fill="#d64545" opacity="0.55" />
<rect x="215.29" y="352.90" width="2.28" height="0.89" fill="#2f9e44" opacity="0.55" />
<rect x="218.57" y="330.76" width="2.28" height="23.03" fill="#2f9e44" opacity="0.55" />
<rect x="221.84" y="322.81" width="2.28" height="30.98" fill="#2f9e44" opacity="0.55" />
<rect x="225.11" y="323.13" width="2.28" height="30.66" fill="#2f9e44" opacity="0.55" />
<rect x="228.39" y="322.73" width="2.28" height="31.06" fill="#2f9e44" opacity="0.55" />
<rect x="231.66" y="323.24" width="2.28" height="30.55" fill="#2f9e44" opacity="0.55" />
<rect x="234.94" y="326.62" width="2.28" height="27.17" fill="#2f9e44" opacity="0.55" />
<rect x="238.21" y="331.59" width="2.28" height="22.20" fill="#2f9e44" opacity="0.55" />
<rect x="241.48" y="333.43" width="2.28" height="20.36" fill="#2f9e44" opacity="0.55" />
<rect x="244.76" y="331.53" width="2.28" height="22.26" fill="#2f9e44" opacity="0.55" />
<rect x="248.03" y="335.29" width="2.28" height="18.50" fill="#2f9e44" opacity="0.55" />
<rect x="251.31" y="340.36" width="2.28" height="13.43" fill="#2f9e44" opacity="0.55" />
<rect x="254.58" y="348.75" width="2.28" height="5.04" fill="#2f9e44" opacity="0.55" />
<rect x="257.85" y="353.79" width="2.28" height="2.85" fill="#d64545" opacity="0.55" />
<rect x="261.13" y="353.79" width="2.28" height="8.35" fill="#d64545" opacity="0.55" />
<rect x="264.40" y="353.79" width="2.28" height="12.22" fill="#d64545" opacity="0.55" />
<rect x="267.68" y="353.79" width="2.28" height="12.69" fill="#d64545" opacity="0.55" />
<rect x="270.95" y="353.79" width="2.28" height="12.83" fill="#d64545" opacity="0.55" />
<rect x="274.23" y="353.79" width="2.28" height="13.29" fill="#d64545" opacity="0.55" />
<rect x="277.50" y="353.79" width="2.28" height="12.02" fill="#d64545" opacity="0.55" />
<rect x="280.77" y="353.79" width="2.28" height="12.66" fill="#d64545" opacity="0.55" />
<rect x="284.05" y="353.79" width="2.28" height="11.73" fill="#d64545" opacity="0.55" />
<rect x="287.32" y="353.79" width="2.28" height="8.79" fill="#d64545" opacity="0.55" />
<rect x="290.60" y="353.79" width="2.28" height="7.72" fill="#d64545" opacity="0.55" />
<rect x="293.87" y="353.79" width="2.28" height="3.41" fill="#d64545" opacity="0.55" />
<rect x="297.14" y="353.79" width="2.28" height="2.91" fill="#d64545" opacity="0.55" />
<rect x="300.42" y="353.79" width="2.28" height="1.62" fill="#d64545" opacity="0.55" />
<rect x="303.69" y="352.60" width="2.28" height="1.19" fill="#2f9e44" opacity="0.55" />
<rect x="306.97" y="353.79" width="2.28" height="2.42" fill="#d64545" opacity="0.55" />
<rect x="310.24" y="353.79" width="2.28" height="8.10" fill="#d64545" opacity="0.55" />
<rect x="313.51" y="353.79" width="2.28" height="11.95" fill="#d64545" opacity="0.55" />
<rect x="316.79" y="353.79" width="2.28" height="14.53" fill="#d64545" opacity="0.55" />
<rect x="320.06" y="353.79" width="2.28" height="13.83" fill="#d64545" opacity="0.55" />
<rect x="323.34" y="353.79" width="2.28" height="12.06" fill="#d64545" opacity="0.55" />
<rect x="326.61" y="353.79" width="2.28" height="10.89" fill="#d64545" opacity="0.55" />
<rect x="329.89" y="353.79" width="2.28" height="9.81" fill="#d64545" opacity="0.55" />
<rect x="333.16" y="353.79" width="2.28" height="9.98" fill="#d64545" opacity="0.55" />
<rect x="336.43" y="353.79" width="2.28" height="13.89" fill="#d64545" opacity="0.55" />
<rect x="339.71" y="353.79" width="2.28" height="14.31" fill="#d64545" opacity="0.55" />
<rect x="342.98" y="353.79" width="2.28" height="14.91" fill="#d64545" opacity="0.55" />
<rect x="346.26" y="353.79" width="2.28" height="16.71" fill="#d64545" opacity="0.55" />
<rect x="349.53" y="353.79" width="2.28" height="16.38" fill="#d64545" opacity="0.55" />
<rect x="352.80" y="353.79" width="2.28" height="16.70" fill="#d64545" opacity="0.55" />
<rect x="356.08" y="353.79" width="2.28" height="16.92" fill="#d64545" opacity="0.55" />
<rect x="359.35" y="353.79" width="2.28" height="15.61" fill="#d64545" opacity="0.55" />
<rect x="362.63" y="353.79" width="2.28" height="14.82" fill="#d64545" opacity="0.55" />
<rect x="365.90" y="353.79" width="2.28" height="15.41" fill="#d64545" opacity="0.55" />
<rect x="369.18" y="353.79" width="2.28" height="16.86" fill="#d64545" opacity="0.55" />
<rect x="372.45" y="353.79" width="2.28" height="15.31" fill="#d64545" opacity="0.55" />
<rect x="375.72" y="353.79" width="2.28" height="13.85" fill="#d64545" opacity="0.55" />
<rect x="379.00" y="353.79" width="2.28" height="11.66" fill="#d64545" opacity="0.55" />
<rect x="382.27" y="353.79" width="2.28" height="8.06" fill="#d64545" opacity="0.55" />
<rect x="385.55" y="353.79" width="2.28" height="8.38" fill="#d64545" opacity="0.55" />
<rect x="388.82" y="353.79" width="2.28" height="10.45" fill="#d64545" opacity="0.55" />
<rect x="392.09" y="353.79" width="2.28" height="10.34" fill="#d64545" opacity="0.55" />
<rect x="395.37" y="353.79" width="2.28" height="9.97" fill="#d64545" opacity="0.55" />
<rect x="398.64" y="353.79" width="2.28" height="6.82" fill="#d64545" opacity="0.55" />
<rect x="401.92" y="353.79" width="2.28" height="4.63" fill="#d64545" opacity="0.55" />
<rect x="405.19" y="353.79" width="2.28" height="2.68" fill="#d64545" opacity="0.55" />
<rect x="408.46" y="353.79" width="2.28" height="0.71" fill="#d64545" opacity="0.55" />
<rect x="411.74" y="351.10" width="2.28" height="2.69" fill="#2f9e44" opacity="0.55" />
<rect x="415.01" y="347.00" width="2.28" height="6.78" fill="#2f9e44" opacity="0.55" />
<rect x="418.29" y="343.48" width="2.28" height="10.31" fill="#2f9e44" opacity="0.55" />
<rect x="421.56" y="340.59" width="2.28" height="13.20" fill="#2f9e44" opacity="0.55" />
<rect x="424.84" y="338.74" width="2.28" height="15.05" fill="#2f9e44" opacity="0.55" />
<rect x="428.11" y="337.55" width="2.28" height="16.23" fill="#2f9e44" opacity="0.55" />
<rect x="431.38" y="342.85" width="2.28" height="10.94" fill="#2f9e44" opacity="0.55" />
<rect x="434.66" y="348.40" width="2.28" height="5.38" fill="#2f9e44" opacity="0.55" />
<rect x="437.93" y="352.95" width="2.28" height="0.84" fill="#2f9e44" opacity="0.55" />
<rect x="441.21" y="353.79" width="2.28" height="0.79" fill="#d64545" opacity="0.55" />
<rect x="444.48" y="353.79" width="2.28" height="3.75" fill="#d64545" opacity="0.55" />
<rect x="447.75" y="353.79" width="2.28" height="4.64" fill="#d64545" opacity="0.55" />
<rect x="451.03" y="353.79" width="2.28" height="1.76" fill="#d64545" opacity="0.55" />
<rect x="454.30" y="351.75" width="2.28" height="2.04" fill="#2f9e44" opacity="0.55" />
<rect x="457.58" y="349.76" width="2.28" height="4.02" fill="#2f9e44" opacity="0.55" />
<rect x="460.85" y="347.83" width="2.28" height="5.96" fill="#2f9e44" opacity="0.55" />
<rect x="464.12" y="346.42" width="2.28" height="7.37" fill="#2f9e44" opacity="0.55" />
<rect x="467.40" y="346.16" width="2.28" height="7.63" fill="#2f9e44" opacity="0.55" />
<rect x="470.67" y="345.61" width="2.28" height="8.17" fill="#2f9e44" opacity="0.55" />
<rect x="473.95" y="345.90" width="2.28" height="7.89" fill="#2f9e44" opacity="0.55" />
<rect x="477.22" y="345.99" width="2.28" height="7.80" fill="#2f9e44" opacity="0.55" />
<rect x="480.50" y="346.87" width="2.28" height="6.91" fill="#2f9e44" opacity="0.55" />
<rect x="483.77" y="347.24" width="2.28" height="6.55" fill="#2f9e44" opacity="0.55" />
<rect x="487.04" y="347.75" width="2.28" height="6.04" fill="#2f9e44" opacity="0.55" />
<rect x="490.32" y="348.87" width="2.28" height="4.91" fill="#2f9e44" opacity="0.55" />
<rect x="493.59" y="347.40" width="2.28" height="6.38" fill="#2f9e44" opacity="0.55" />
<rect x="496.87" y="345.15" width="2.28" height="8.64" fill="#2f9e44" opacity="0.55" />
<rect x="500.14" y="344.53" width="2.28" height="9.25" fill="#2f9e44" opacity="0.55" />
<rect x="503.41" y="346.47" width="2.28" height="7.32" fill="#2f9e44" opacity="0.55" />
<rect x="506.69" y="348.77" width="2.28" height="5.02" fill="#2f9e44" opacity="0.55" />
<rect x="509.96" y="350.02" width="2.28" height="3.77" fill="#2f9e44" opacity="0.55" />
<rect x="513.24" y="353.46" width="2.28" height="0.33" fill="#2f9e44" opacity="0.55" />
<rect x="516.51" y="353.79" width="2.28" height="3.09" fill="#d64545" opacity="0.55" />
<rect x="519.79" y="353.79" width="2.28" height="3.92" fill="#d64545" opacity="0.55" />
<rect x="523.06" y="353.79" width="2.28" height="4.30" fill="#d64545" opacity="0.55" />
<rect x="526.33" y="353.79" width="2.28" height="2.90" fill="#d64545" opacity="0.55" />
<rect x="529.61" y="353.79" width="2.28" height="3.44" fill="#d64545" opacity="0.55" />
<rect x="532.88" y="353.79" width="2.28" height="3.90" fill="#d64545" opacity="0.55" />
<rect x="536.16" y="353.79" width="2.28" height="4.67" fill="#d64545" opacity="0.55" />
<rect x="539.43" y="353.79" width="2.28" height="5.72" fill="#d64545" opacity="0.55" />
<rect x="542.70" y="353.79" width="2.28" height="6.91" fill="#d64545" opacity="0.55" />
<rect x="545.98" y="353.79" width="2.28" height="8.31" fill="#d64545" opacity="0.55" />
<rect x="549.25" y="353.79" width="2.28" height="10.36" fill="#d64545" opacity="0.55" />
<rect x="552.53" y="353.79" width="2.28" height="13.19" fill="#d64545" opacity="0.55" />
<rect x="555.80" y="353.79" width="2.28" height="12.48" fill="#d64545" opacity="0.55" />
<rect x="559.07" y="353.79" width="2.28" height="7.83" fill="#d64545" opacity="0.55" />
<rect x="562.35" y="353.79" width="2.28" height="3.37" fill="#d64545" opacity="0.55" />
<rect x="565.62" y="353.79" width="2.28" height="0.67" fill="#d64545" opacity="0.55" />
<rect x="568.90" y="352.52" width="2.28" height="1.27" fill="#2f9e44" opacity="0.55" />
<rect x="572.17" y="350.15" width="2.28" height="3.64" fill="#2f9e44" opacity="0.55" />
<rect x="575.45" y="349.94" width="2.28" height="3.85" fill="#2f9e44" opacity="0.55" />
<rect x="578.72" y="349.14" width="2.28" height="4.65" fill="#2f9e44" opacity="0.55" />
<rect x="581.99" y="348.46" width="2.28" height="5.33" fill="#2f9e44" opacity="0.55" />
<rect x="585.27" y="349.96" width="2.28" height="3.83" fill="#2f9e44" opacity="0.55" />
<rect x="588.54" y="352.36" width="2.28" height="1.42" fill="#2f9e44" opacity="0.55" />
<rect x="591.82" y="352.50" width="2.28" height="1.29" fill="#2f9e44" opacity="0.55" />
<rect x="595.09" y="351.94" width="2.28" height="1.85" fill="#2f9e44" opacity="0.55" />
<rect x="598.36" y="350.81" width="2.28" height="2.98" fill="#2f9e44" opacity="0.55" />
<rect x="601.64" y="351.10" width="2.28" height="2.69" fill="#2f9e44" opacity="0.55" />
<rect x="604.91" y="350.23" width="2.28" height="3.56" fill="#2f9e44" opacity="0.55" />
<rect x="608.19" y="349.64" width="2.28" height="4.15" fill="#2f9e44" opacity="0.55" />
<rect x="611.46" y="348.43" width="2.28" height="5.36" fill="#2f9e44" opacity="0.55" />
<rect x="614.73" y="347.12" width="2.28" height="6.67" fill="#2f9e44" opacity="0.55" />
<rect x="618.01" y="346.83" width="2.28" height="6.96" fill="#2f9e44" opacity="0.55" />
<rect x="621.28" y="347.10" width="2.28" height="6.69" fill="#2f9e44" opacity="0.55" />
<rect x="624.56" y="347.91" width="2.28" height="5.88" fill="#2f9e44" opacity="0.55" />
<rect x="627.83" y="345.32" width="2.28" height="8.47" fill="#2f9e44" opacity="0.55" />
<rect x="631.11" y="344.87" width="2.28" height="8.91" fill="#2f9e44" opacity="0.55" />
<rect x="634.38" y="345.84" width="2.28" height="7.95" fill="#2f9e44" opacity="0.55" />
<rect x="637.65" y="346.52" width="2.28" height="7.27" fill="#2f9e44" opacity="0.55" />
<rect x="640.93" y="347.49" width="2.28" height="6.30" fill="#2f9e44" opacity="0.55" />
<rect x="644.20" y="348.73" width="2.28" height="5.06" fill="#2f9e44" opacity="0.55" />
<rect x="647.48" y="349.06" width="2.28" height="4.73" fill="#2f9e44" opacity="0.55" />
<rect x="650.75" y="350.78" width="2.28" height="3.01" fill="#2f9e44" opacity="0.55" />
<rect x="654.02" y="350.84" width="2.28" height="2.95" fill="#2f9e44" opacity="0.55" />
<rect x="657.30" y="352.64" width="2.28" height="1.15" fill="#2f9e44" opacity="0.55" />
<rect x="660.57" y="353.79" width="2.28" height="0.22" fill="#d64545" opacity="0.55" />
<rect x="663.85" y="353.79" width="2.28" height="1.73" fill="#d64545" opacity="0.55" />
<rect x="667.12" y="353.79" width="2.28" height="3.24" fill="#d64545" opacity="0.55" />
<rect x="670.40" y="353.79" width="2.28" height="4.13" fill="#d64545" opacity="0.55" />
<rect x="673.67" y="353.79" width="2.28" height="2.43" fill="#d64545" opacity="0.55" />
<rect x="676.94" y="353.79" width="2.28" height="1.57" fill="#d64545" opacity="0.55" />
<rect x="680.22" y="353.79" width="2.28" height="0.57" fill="#d64545" opacity="0.55" />
<rect x="683.49" y="353.79" width="2.28" height="0.00" fill="#d64545" opacity="0.55" />
<rect x="686.77" y="353.79" width="2.28" height="0.09" fill="#d64545" opacity="0.55" />
<rect x="690.04" y="353.70" width="2.28" height="0.08" fill="#2f9e44" opacity="0.55" />
<rect x="693.31" y="353.79" width="2.28" height="0.94" fill="#d64545" opacity="0.55" />
<rect x="696.59" y="353.79" width="2.28" height="1.37" fill="#d64545" opacity="0.55" />
<rect x="699.86" y="351.13" width="2.28" height="2.65" fill="#2f9e44" opacity="0.55" />
<rect x="703.14" y="346.92" width="2.28" height="6.87" fill="#2f9e44" opacity="0.55" />
<rect x="706.41" y="342.95" width="2.28" height="10.84" fill="#2f9e44" opacity="0.55" />
<rect x="709.68" y="338.96" width="2.28" height="14.83" fill="#2f9e44" opacity="0.55" />
<rect x="712.96" y="337.97" width="2.28" height="15.82" fill="#2f9e44" opacity="0.55" />
<rect x="716.23" y="337.59" width="2.28" height="16.19" fill="#2f9e44" opacity="0.55" />
<rect x="719.51" y="337.40" width="2.28" height="16.39" fill="#2f9e44" opacity="0.55" />
<rect x="722.78" y="336.74" width="2.28" height="17.05" fill="#2f9e44" opacity="0.55" />
<rect x="726.06" y="339.95" width="2.28" height="13.84" fill="#2f9e44" opacity="0.55" />
<rect x="729.33" y="343.54" width="2.28" height="10.25" fill="#2f9e44" opacity="0.55" />
<rect x="732.60" y="346.57" width="2.28" height="7.22" fill="#2f9e44" opacity="0.55" />
<rect x="735.88" y="350.67" width="2.28" height="3.11" fill="#2f9e44" opacity="0.55" />
<rect x="739.15" y="353.79" width="2.28" height="0.31" fill="#d64545" opacity="0.55" />
<rect x="742.43" y="353.79" width="2.28" height="3.21" fill="#d64545" opacity="0.55" />
<rect x="745.70" y="353.79" width="2.28" height="2.59" fill="#d64545" opacity="0.55" />
<rect x="748.97" y="353.79" width="2.28" height="0.27" fill="#d64545" opacity="0.55" />
<rect x="752.25" y="351.58" width="2.28" height="2.20" fill="#2f9e44" opacity="0.55" />
<rect x="755.52" y="348.30" width="2.28" height="5.49" fill="#2f9e44" opacity="0.55" />
<rect x="758.80" y="346.59" width="2.28" height="7.19" fill="#2f9e44" opacity="0.55" />
<rect x="762.07" y="345.79" width="2.28" height="7.99" fill="#2f9e44" opacity="0.55" />
<rect x="765.34" y="346.44" width="2.28" height="7.35" fill="#2f9e44" opacity="0.55" />
<rect x="768.62" y="349.11" width="2.28" height="4.67" fill="#2f9e44" opacity="0.55" />
<rect x="771.89" y="350.61" width="2.28" height="3.18" fill="#2f9e44" opacity="0.55" />
<rect x="775.17" y="350.61" width="2.28" height="3.18" fill="#2f9e44" opacity="0.55" />
<rect x="778.44" y="351.67" width="2.28" height="2.12" fill="#2f9e44" opacity="0.55" />
<rect x="781.72" y="353.79" width="2.28" height="0.42" fill="#d64545" opacity="0.55" />
<rect x="784.99" y="353.79" width="2.28" height="3.47" fill="#d64545" opacity="0.55" />
<rect x="788.26" y="353.79" width="2.28" height="3.90" fill="#d64545" opacity="0.55" />
<rect x="791.54" y="353.79" width="2.28" height="3.84" fill="#d64545" opacity="0.55" />
<rect x="794.81" y="353.79" width="2.28" height="3.32" fill="#d64545" opacity="0.55" />
<rect x="798.09" y="353.79" width="2.28" height="2.83" fill="#d64545" opacity="0.55" />
<rect x="801.36" y="353.79" width="2.28" height="3.10" fill="#d64545" opacity="0.55" />
<rect x="804.63" y="353.79" width="2.28" height="0.36" fill="#d64545" opacity="0.55" />
<rect x="807.91" y="347.47" width="2.28" height="6.32" fill="#2f9e44" opacity="0.55" />
<rect x="811.18" y="338.62" width="2.28" height="15.17" fill="#2f9e44" opacity="0.55" />
<rect x="814.46" y="334.99" width="2.28" height="18.80" fill="#2f9e44" opacity="0.55" />
<rect x="817.73" y="337.35" width="2.28" height="16.44" fill="#2f9e44" opacity="0.55" />
<rect x="821.01" y="338.64" width="2.28" height="15.15" fill="#2f9e44" opacity="0.55" />
<rect x="824.28" y="345.94" width="2.28" height="7.85" fill="#2f9e44" opacity="0.55" />
<rect x="827.55" y="351.77" width="2.28" height="2.01" fill="#2f9e44" opacity="0.55" />
<rect x="830.83" y="353.79" width="2.28" height="3.57" fill="#d64545" opacity="0.55" />
<rect x="834.10" y="353.79" width="2.28" height="8.35" fill="#d64545" opacity="0.55" />
<rect x="837.38" y="353.79" width="2.28" height="15.32" fill="#d64545" opacity="0.55" />
<rect x="840.65" y="353.79" width="2.28" height="19.23" fill="#d64545" opacity="0.55" />
<rect x="843.92" y="353.79" width="2.28" height="18.99" fill="#d64545" opacity="0.55" />
<rect x="847.20" y="353.79" width="2.28" height="19.11" fill="#d64545" opacity="0.55" />
<rect x="850.47" y="353.79" width="2.28" height="19.54" fill="#d64545" opacity="0.55" />
<rect x="853.75" y="353.79" width="2.28" height="18.78" fill="#d64545" opacity="0.55" />
<rect x="857.02" y="353.79" width="2.28" height="19.61" fill="#d64545" opacity="0.55" />
<rect x="860.29" y="353.79" width="2.28" height="21.52" fill="#d64545" opacity="0.55" />
<rect x="863.57" y="353.79" width="2.28" height="23.41" fill="#d64545" opacity="0.55" />
<rect x="866.84" y="353.79" width="2.28" height="24.54" fill="#d64545" opacity="0.55" />
<rect x="870.12" y="353.79" width="2.28" height="24.82" fill="#d64545" opacity="0.55" />
<rect x="873.39" y="353.79" width="2.28" height="23.74" fill="#d64545" opacity="0.55" />
<rect x="876.67" y="353.79" width="2.28" height="21.93" fill="#d64545" opacity="0.55" />
<rect x="879.94" y="353.79" width="2.28" height="20.37" fill="#d64545" opacity="0.55" />
<rect x="883.21" y="353.79" width="2.28" height="18.56" fill="#d64545" opacity="0.55" />
<rect x="886.49" y="353.79" width="2.28" height="15.32" fill="#d64545" opacity="0.55" />
<rect x="889.76" y="353.79" width="2.28" height="12.65" fill="#d64545" opacity="0.55" />
<rect x="893.04" y="353.79" width="2.28" height="10.18" fill="#d64545" opacity="0.55" />
<rect x="896.31" y="353.79" width="2.28" height="6.83" fill="#d64545" opacity="0.55" />
<rect x="899.58" y="353.79" width="2.28" height="4.67" fill="#d64545" opacity="0.55" />
<rect x="902.86" y="353.79" width="2.28" height="4.78" fill="#d64545" opacity="0.55" />
<polyline fill="none" stroke="#1f77b4" stroke-width="2" points="137.85,329.20 141.13,328.47 144.40,330.23 147.68,331.69 150.95,332.32 154.22,332.72 157.50,336.08 160.77,338.68 164.05,339.94 167.32,340.85 170.59,345.90 173.87,349.82 177.14,353.49 180.42,355.44 183.69,357.22 186.97,358.93 190.24,359.75 193.51,359.01 196.79,362.49 200.06,365.36 203.34,368.01 206.61,370.06 209.88,368.63 213.16,365.70 216.43,362.38 219.71,334.48 222.98,318.79 226.25,311.44 229.53,303.28 232.80,296.15 236.08,292.74 239.35,292.15 242.63,288.90 245.90,281.44 249.17,280.57 252.45,282.29 255.72,289.42 259.00,298.02 262.27,305.60 265.54,312.53 268.82,316.17 272.09,319.52 275.37,323.30 278.64,325.03 281.92,328.85 285.19,330.85 288.46,330.11 291.74,330.96 295.01,327.51 298.29,327.73 301.56,326.85 304.83,323.75 308.11,327.96 311.38,335.67 314.66,342.50 317.93,348.71 321.20,351.48 324.48,352.72 327.75,354.27 331.03,355.65 334.30,358.31 337.58,365.70 340.85,369.69 344.12,374.02 347.40,379.99 350.67,383.75 353.95,388.25 357.22,392.70 360.49,395.29 363.77,398.21 367.04,402.65 370.32,408.31 373.59,410.59 376.86,412.60 380.14,413.32 383.41,411.74 386.69,414.16 389.96,418.83 393.24,421.31 396.51,423.43 399.78,421.99 403.06,420.96 406.33,419.68 409.61,417.88 412.88,413.81 416.15,408.02 419.43,401.92 422.70,395.73 425.98,390.12 429.25,384.88 432.53,387.44 435.80,391.65 439.07,395.98 442.35,397.81 445.62,401.70 448.90,403.75 452.17,401.32 455.44,397.00 458.72,394.01 461.99,390.59 465.27,387.34 468.54,385.17 471.81,382.58 475.09,380.90 478.36,379.03 481.64,378.19 484.91,376.92 488.19,375.92 491.46,375.81 494.73,372.75 498.01,368.33 501.28,365.41 504.56,365.51 507.83,366.56 511.10,366.87 514.38,370.22 517.65,374.42 520.93,376.22 524.20,377.68 527.47,377.00 530.75,378.41 534.02,379.84 537.30,381.77 540.57,384.26 543.85,387.18 547.12,390.65 550.39,395.29 553.67,401.42 556.94,403.83 560.22,401.14 563.49,397.53 566.76,394.99 570.04,392.74 573.31,389.46 576.59,388.28 579.86,386.32 583.14,384.31 586.41,384.86 589.68,386.90 592.96,386.72 596.23,385.69 599.51,383.81 602.78,383.43 606.05,381.68 609.33,380.05 612.60,377.50 615.88,374.52 619.15,372.49 622.42,371.09 625.70,370.43 628.97,365.72 632.25,363.05 635.52,362.03 638.80,360.89 642.07,360.29 645.34,360.26 648.62,359.41 651.89,360.37 655.17,359.70 658.44,361.21 661.71,362.63 664.99,364.58 668.26,366.89 671.54,368.81 674.81,367.72 678.08,367.26 681.36,366.40 684.63,365.83 687.91,365.94 691.18,365.75 694.46,367.01 697.73,367.78 701.00,363.09 704.28,357.16 707.55,350.48 710.83,342.78 714.10,337.84 717.37,333.41 720.65,329.13 723.92,324.20 727.20,323.95 730.47,324.98 733.75,326.21 737.02,329.53 740.29,333.04 743.57,336.73 746.84,336.77 750.12,334.51 753.39,331.49 756.66,326.83 759.94,323.33 763.21,320.53 766.49,319.33 769.76,320.84 773.03,321.54 776.31,320.74 779.58,321.27 782.86,323.92 786.13,327.83 789.41,329.24 792.68,330.15 795.95,330.45 799.23,330.67 802.50,331.72 805.78,329.07 809.05,320.81 812.32,308.17 815.60,299.83 818.87,298.08 822.15,295.59 825.42,300.93 828.69,306.26 831.97,312.73 835.24,319.61 838.52,330.40 841.79,339.12 845.07,343.62 848.34,348.53 851.61,353.84 854.89,357.78 858.16,363.51 861.44,370.79 864.71,378.54 867.98,385.81 871.26,392.29 874.53,397.15 877.81,400.82 881.08,404.35 884.36,407.18 887.63,407.78 890.90,408.26 894.18,408.34 897.45,406.69 900.73,405.70 904.00,407.00" />
<polyline fill="none" stroke="#ff7f0e" stroke-width="2" points="137.85,329.20 141.13,329.05 144.40,329.29 147.68,329.77 150.95,330.28 154.22,330.77 157.50,331.83 160.77,333.20 164.05,334.55 167.32,335.81 170.59,337.83 173.87,340.23 177.14,342.88 180.42,345.39 183.69,347.76 186.97,349.99 190.24,351.94 193.51,353.36 196.79,355.18 200.06,357.22 203.34,359.38 206.61,361.51 209.88,362.94 213.16,363.49 216.43,363.27 219.71,357.51 222.98,349.77 226.25,342.10 229.53,334.34 232.80,326.70 236.08,319.91 239.35,314.36 242.63,309.26 245.90,303.70 249.17,299.07 252.45,295.72 255.72,294.46 259.00,295.17 262.27,297.26 265.54,300.31 268.82,303.48 272.09,306.69 275.37,310.01 278.64,313.02 281.92,316.18 285.19,319.12 288.46,321.31 291.74,323.24 295.01,324.10 298.29,324.82 301.56,325.23 304.83,324.93 308.11,325.54 311.38,327.57 314.66,330.55 317.93,334.18 321.20,337.64 324.48,340.66 327.75,343.38 331.03,345.83 334.30,348.33 337.58,351.80 340.85,355.38 344.12,359.11 347.40,363.28 350.67,367.38 353.95,371.55 357.22,375.78 360.49,379.69 363.77,383.39 367.04,387.24 370.32,391.46 373.59,395.28 376.86,398.75 380.14,401.66 383.41,403.68 386.69,405.77 389.96,408.38 393.24,410.97 396.51,413.46 399.78,415.17 403.06,416.32 406.33,417.00 409.61,417.17 412.88,416.50 416.15,414.80 419.43,412.23 422.70,408.93 425.98,405.17 429.25,401.11 432.53,398.37 435.80,397.03 439.07,396.82 442.35,397.02 445.62,397.95 448.90,399.11 452.17,399.55 455.44,399.04 458.72,398.04 461.99,396.55 465.27,394.71 468.54,392.80 471.81,390.76 475.09,388.78 478.36,386.83 481.64,385.11 484.91,383.47 488.19,381.96 491.46,380.73 494.73,379.13 498.01,376.97 501.28,374.66 504.56,372.83 507.83,371.58 511.10,370.63 514.38,370.55 517.65,371.33 520.93,372.30 524.20,373.38 527.47,374.10 530.75,374.96 534.02,375.94 537.30,377.11 540.57,378.54 543.85,380.27 547.12,382.34 550.39,384.93 553.67,388.23 556.94,391.35 560.22,393.31 563.49,394.15 566.76,394.32 570.04,394.00 573.31,393.09 576.59,392.13 579.86,390.97 583.14,389.64 586.41,388.68 589.68,388.33 592.96,388.00 596.23,387.54 599.51,386.80 602.78,386.12 606.05,385.23 609.33,384.20 612.60,382.86 615.88,381.19 619.15,379.45 622.42,377.78 625.70,376.31 628.97,374.19 632.25,371.96 635.52,369.98 638.80,368.16 642.07,366.58 645.34,365.32 648.62,364.14 651.89,363.38 655.17,362.65 658.44,362.36 661.71,362.41 664.99,362.85 668.26,363.66 671.54,364.69 674.81,365.29 678.08,365.69 681.36,365.83 684.63,365.83 687.91,365.85 691.18,365.83 694.46,366.07 697.73,366.41 701.00,365.75 704.28,364.03 707.55,361.32 710.83,357.61 714.10,353.66 717.37,349.61 720.65,345.51 723.92,341.25 727.20,337.79 730.47,335.23 733.75,333.42 737.02,332.65 740.29,332.72 743.57,333.53 746.84,334.17 750.12,334.24 753.39,333.69 756.66,332.32 759.94,330.52 763.21,328.52 766.49,326.68 769.76,325.52 773.03,324.72 776.31,323.92 779.58,323.39 782.86,323.50 786.13,324.37 789.41,325.34 792.68,326.30 795.95,327.13 799.23,327.84 802.50,328.62 805.78,328.71 809.05,327.13 812.32,323.33 815.60,318.63 818.87,314.52 822.15,310.74 825.42,308.78 828.69,308.27 831.97,309.16 835.24,311.25 838.52,315.08 841.79,319.89 845.07,324.64 848.34,329.42 851.61,334.30 854.89,338.99 858.16,343.90 861.44,349.28 864.71,355.13 867.98,361.27 871.26,367.47 874.53,373.41 877.81,378.89 881.08,383.98 884.36,388.62 887.63,392.45 890.90,395.61 894.18,398.16 897.45,399.87 900.73,401.03 904.00,402.23" />
<text x="754.00" y="290.00" font-size="13" font-family="Arial" fill="#1f77b4" text-anchor="start">MACD</text>
<text x="818.00" y="290.00" font-size="13" font-family="Arial" fill="#ff7f0e" text-anchor="start">Signal</text>
<line x1="56" y1="624" x2="904" y2="624" stroke="#cbd2d9" />
<line x1="56" y1="484" x2="56" y2="624" stroke="#cbd2d9" />
<text x="16.00" y="476.00" font-size="12" font-family="Arial" fill="#52606d" text-anchor="start">KD</text>
<line x1="56" y1="624.00" x2="904" y2="624.00" stroke="#edf2f7" />
<line x1="52" y1="624.00" x2="56" y2="624.00" stroke="#9fb3c8" />
<text x="48.00" y="628.00" font-size="11" font-family="Arial" fill="#52606d" text-anchor="end">-5.00</text>
<line x1="56" y1="577.33" x2="904" y2="577.33" stroke="#edf2f7" />
<line x1="52" y1="577.33" x2="56" y2="577.33" stroke="#9fb3c8" />
<text x="48.00" y="581.33" font-size="11" font-family="Arial" fill="#52606d" text-anchor="end">31.7</text>
<line x1="56" y1="530.67" x2="904" y2="530.67" stroke="#edf2f7" />
<line x1="52" y1="530.67" x2="56" y2="530.67" stroke="#9fb3c8" />
<text x="48.00" y="534.67" font-size="11" font-family="Arial" fill="#52606d" text-anchor="end">68.3</text>
<line x1="56" y1="484.00" x2="904" y2="484.00" stroke="#edf2f7" />
<line x1="52" y1="484.00" x2="56" y2="484.00" stroke="#9fb3c8" />
<text x="48.00" y="488.00" font-size="11" font-family="Arial" fill="#52606d" text-anchor="end">105</text>
<line x1="56.00" y1="624" x2="56.00" y2="628" stroke="#9fb3c8" />
<text x="56.00" y="642.00" font-size="11" font-family="Arial" fill="#52606d" text-anchor="middle">06/30</text>
<line x1="226.25" y1="624" x2="226.25" y2="628" stroke="#9fb3c8" />
<text x="226.25" y="642.00" font-size="11" font-family="Arial" fill="#52606d" text-anchor="middle">09/12</text>
<line x1="396.51" y1="624" x2="396.51" y2="628" stroke="#9fb3c8" />
<text x="396.51" y="642.00" font-size="11" font-family="Arial" fill="#52606d" text-anchor="middle">11/25</text>
<line x1="563.49" y1="624" x2="563.49" y2="628" stroke="#9fb3c8" />
<text x="563.49" y="642.00" font-size="11" font-family="Arial" fill="#52606d" text-anchor="middle">02/10</text>
<line x1="733.75" y1="624" x2="733.75" y2="628" stroke="#9fb3c8" />
<text x="733.75" y="642.00" font-size="11" font-family="Arial" fill="#52606d" text-anchor="middle">04/27</text>
<line x1="904.00" y1="624" x2="904.00" y2="628" stroke="#9fb3c8" />
<text x="904.00" y="642.00" font-size="11" font-family="Arial" fill="#52606d" text-anchor="middle">07/13</text>
<line x1="56" y1="592.18" x2="904" y2="592.18" stroke="#f0b429" stroke-dasharray="5 5" />
<text x="912.00" y="596.18" font-size="10" font-family="Arial" fill="#8d2b0b" text-anchor="start">20.0</text>
<line x1="56" y1="515.82" x2="904" y2="515.82" stroke="#f0b429" stroke-dasharray="5 5" />
<text x="912.00" y="519.82" font-size="10" font-family="Arial" fill="#8d2b0b" text-anchor="start">80.0</text>
<polyline fill="none" stroke="#2ca02c" stroke-width="2" points="82.19,555.54 85.47,558.71 88.74,551.59 92.02,538.61 95.29,531.59 98.56,532.13 101.84,535.52 105.11,546.38 108.39,547.62 111.66,546.97 114.93,545.60 118.21,542.59 121.48,539.37 124.76,535.75 128.03,537.22 131.31,553.60 134.58,553.89 137.85,549.59 141.13,545.85 144.40,559.48 147.68,567.10 150.95,566.34 154.22,563.20 157.50,582.82 160.77,595.41 164.05,595.06 167.32,592.35 170.59,601.20 173.87,600.72 177.14,603.09 180.42,600.12 183.69,599.46 186.97,599.22 190.24,596.07 193.51,584.34 196.79,594.68 200.06,595.06 203.34,598.66 206.61,601.88 209.88,586.27 213.16,566.20 216.43,549.00 219.71,536.50 222.98,534.94 226.25,539.07 229.53,538.64 232.80,536.85 236.08,538.24 239.35,542.30 242.63,540.46 245.90,540.48 249.17,546.15 252.45,555.11 255.72,576.47 259.00,592.69 262.27,601.04 265.54,604.85 268.82,601.31 272.09,599.14 275.37,599.24 278.64,590.98 281.92,584.52 285.19,571.81 288.46,554.35 291.74,553.31 295.01,538.35 298.29,537.91 301.56,532.97 304.83,529.08 308.11,544.17 311.38,569.36 314.66,585.23 317.93,595.39 321.20,596.32 324.48,594.37 327.75,594.60 331.03,595.19 334.30,598.53 337.58,607.27 340.85,605.48 344.12,609.33 347.40,611.48 350.67,610.78 353.95,611.12 357.22,609.60 360.49,606.96 363.77,605.32 367.04,610.87 370.32,612.90 373.59,604.99 376.86,602.08 380.14,598.83 383.41,590.44 386.69,601.37 389.96,603.59 393.24,603.55 396.51,599.90 399.78,590.57 403.06,586.97 406.33,585.45 409.61,584.30 412.88,577.77 416.15,553.09 419.43,537.19 422.70,528.43 425.98,523.81 429.25,519.25 432.53,540.41 435.80,563.80 439.07,580.05 442.35,587.32 445.62,597.70 448.90,603.26 452.17,596.56 455.44,586.52 458.72,568.96 461.99,549.00 465.27,537.23 468.54,534.10 471.81,528.70 475.09,530.18 478.36,539.52 481.64,571.99 484.91,582.58 488.19,593.11 491.46,596.68 494.73,573.65 498.01,552.82 501.28,545.55 504.56,557.59 507.83,572.93 511.10,580.75 514.38,594.07 517.65,599.56 520.93,598.35 524.20,598.70 527.47,592.95 530.75,596.97 534.02,602.12 537.30,598.46 540.57,601.68 543.85,608.76 547.12,609.56 550.39,610.98 553.67,612.96 556.94,608.51 560.22,593.04 563.49,573.47 566.76,563.62 570.04,557.86 573.31,544.31 576.59,543.91 579.86,540.56 583.14,539.75 586.41,565.59 589.68,580.18 592.96,581.61 596.23,578.81 599.51,572.65 602.78,576.19 606.05,571.00 609.33,568.02 612.60,549.51 615.88,539.05 619.15,537.94 622.42,542.53 625.70,550.64 628.97,544.11 632.25,545.20 635.52,553.12 638.80,560.46 642.07,567.48 645.34,575.14 648.62,575.89 651.89,588.57 655.17,588.78 658.44,599.98 661.71,604.79 664.99,610.94 668.26,612.37 671.54,612.24 674.81,594.62 678.08,585.91 681.36,577.52 684.63,571.92 687.91,569.96 691.18,569.14 694.46,581.52 697.73,585.92 701.00,555.71 704.28,542.41 707.55,528.79 710.83,518.35 714.10,517.56 717.37,514.90 720.65,510.73 723.92,505.75 727.20,512.21 730.47,530.27 733.75,548.03 737.02,566.02 740.29,579.34 743.57,591.37 746.84,584.09 750.12,566.84 753.39,544.28 756.66,527.48 759.94,521.75 763.21,516.48 766.49,515.22 769.76,521.81 773.03,525.12 776.31,522.80 779.58,528.46 782.86,547.29 786.13,570.83 789.41,569.57 792.68,565.62 795.95,558.54 799.23,551.92 802.50,551.56 805.78,534.41 809.05,520.88 812.32,512.47 815.60,508.97 818.87,516.71 822.15,517.95 825.42,534.15 828.69,546.21 831.97,561.28 835.24,577.82 838.52,586.46 841.79,592.13 845.07,589.78 848.34,590.80 851.61,594.00 854.89,594.02 858.16,601.84 861.44,607.12 864.71,608.89 867.98,610.32 871.26,612.75 874.53,612.64 877.81,612.86 881.08,614.91 884.36,614.94 887.63,610.54 890.90,607.55 894.18,605.73 897.45,594.25 900.73,594.31 904.00,601.65" />
<polyline fill="none" stroke="#d62728" stroke-width="2" points="82.19,554.51 85.47,555.91 88.74,554.47 92.02,549.19 95.29,543.32 98.56,539.59 101.84,538.23 105.11,540.95 108.39,543.17 111.66,544.44 114.93,544.82 118.21,544.08 121.48,542.51 124.76,540.26 128.03,539.24 131.31,544.03 134.58,547.32 137.85,548.08 141.13,547.33 144.40,551.38 147.68,556.62 150.95,559.86 154.22,560.98 157.50,568.26 160.77,577.31 164.05,583.23 167.32,586.27 170.59,591.24 173.87,594.40 177.14,597.30 180.42,598.24 183.69,598.65 186.97,598.84 190.24,597.92 193.51,593.39 196.79,593.82 200.06,594.23 203.34,595.71 206.61,597.76 209.88,593.93 213.16,584.69 216.43,572.79 219.71,560.70 222.98,552.11 226.25,547.76 229.53,544.72 232.80,542.10 236.08,540.81 239.35,541.31 242.63,541.02 245.90,540.84 249.17,542.61 252.45,546.78 255.72,556.68 259.00,568.68 262.27,579.47 265.54,587.93 268.82,592.39 272.09,594.64 275.37,596.17 278.64,594.44 281.92,591.14 285.19,584.69 288.46,574.58 291.74,567.49 295.01,557.78 298.29,551.15 301.56,545.09 304.83,539.76 308.11,541.23 311.38,550.61 314.66,562.15 317.93,573.23 321.20,580.93 324.48,585.41 327.75,588.47 331.03,590.71 334.30,593.32 337.58,597.97 340.85,600.47 344.12,603.43 347.40,606.11 350.67,607.67 353.95,608.82 357.22,609.08 360.49,608.37 363.77,607.36 367.04,608.53 370.32,609.98 373.59,608.32 376.86,606.24 380.14,603.77 383.41,599.33 386.69,600.01 389.96,601.20 393.24,601.98 396.51,601.29 399.78,597.72 403.06,594.14 406.33,591.24 409.61,588.93 412.88,585.21 416.15,574.50 419.43,562.06 422.70,550.85 425.98,541.84 429.25,534.31 432.53,536.34 435.80,545.50 439.07,557.02 442.35,567.12 445.62,577.31 448.90,585.96 452.17,589.49 455.44,588.50 458.72,581.99 461.99,570.99 465.27,559.74 468.54,551.19 471.81,543.70 475.09,539.19 478.36,539.30 481.64,550.20 484.91,560.99 488.19,571.70 491.46,580.02 494.73,577.90 498.01,569.54 501.28,561.54 504.56,560.22 507.83,564.46 511.10,569.89 514.38,577.95 517.65,585.16 520.93,589.55 524.20,592.60 527.47,592.72 530.75,594.13 534.02,596.80 537.30,597.35 540.57,598.79 543.85,602.11 547.12,604.60 550.39,606.73 553.67,608.81 556.94,608.71 560.22,603.49 563.49,593.48 566.76,583.53 570.04,574.97 573.31,564.75 576.59,557.80 579.86,552.06 583.14,547.95 586.41,553.83 589.68,562.61 592.96,568.95 596.23,572.23 599.51,572.37 602.78,573.64 606.05,572.76 609.33,571.18 612.60,563.96 615.88,555.66 619.15,549.75 622.42,547.34 625.70,548.44 628.97,547.00 632.25,546.40 635.52,548.64 638.80,552.58 642.07,557.55 645.34,563.41 648.62,567.57 651.89,574.57 655.17,579.31 658.44,586.20 661.71,592.40 664.99,598.58 668.26,603.17 671.54,606.20 674.81,602.34 678.08,596.86 681.36,590.42 684.63,584.25 687.91,579.49 691.18,576.04 694.46,577.86 697.73,580.55 701.00,572.27 704.28,562.32 707.55,551.14 710.83,540.21 714.10,532.66 717.37,526.74 720.65,521.40 723.92,516.18 727.20,514.86 730.47,520.00 733.75,529.34 737.02,541.57 740.29,554.16 743.57,566.56 746.84,572.41 750.12,570.55 753.39,561.80 756.66,550.36 759.94,540.82 763.21,532.71 766.49,526.88 769.76,525.19 773.03,525.16 776.31,524.38 779.58,525.74 782.86,532.92 786.13,545.56 789.41,553.56 792.68,557.58 795.95,557.90 799.23,555.91 802.50,554.46 805.78,547.78 809.05,538.81 812.32,530.03 815.60,523.01 818.87,520.91 822.15,519.92 825.42,524.67 828.69,531.85 831.97,541.66 835.24,553.71 838.52,564.63 841.79,573.80 845.07,579.12 848.34,583.02 851.61,586.68 854.89,589.12 858.16,593.36 861.44,597.95 864.71,601.60 867.98,604.51 871.26,607.25 874.53,609.05 877.81,610.32 881.08,611.85 884.36,612.88 887.63,612.10 890.90,610.58 894.18,608.96 897.45,604.06 900.73,600.81 904.00,601.09" />
<text x="824.00" y="502.00" font-size="13" font-family="Arial" fill="#2ca02c" text-anchor="start">K</text>
<text x="860.00" y="502.00" font-size="13" font-family="Arial" fill="#d62728" text-anchor="start">D</text>
</svg>