<svg xmlns="http://www.w3.org/2000/svg" width="960" height="680" viewBox="0 0 960 680"><rect width="100%" height="100%" fill="white" />
<text x="56.00" y="32.00" font-size="20" font-family="Arial" fill="#1f2933" text-anchor="start">QQQ Technical Indicators</text>
<line x1="56" y1="220" x2="904" y2="220" stroke="#cbd2d9" />
<line x1="56" y1="58" x2="56" y2="220" stroke="#cbd2d9" />
<text x="16.00" y="50.00" font-size="12" font-family="Arial" fill="#52606d" text-anchor="start">RSI14</text>
<line x1="56" y1="220.00" x2="904" y2="220.00" stroke="#edf2f7" />
<line x1="52" y1="220.00" x2="56" y2="220.00" stroke="#9fb3c8" />
<text x="48.00" y="224.00" font-size="11" font-family="Arial" fill="#52606d" text-anchor="end">-5.00</text>
<line x1="56" y1="166.00" x2="904" y2="166.00" stroke="#edf2f7" />
<line x1="52" y1="166.00" x2="56" y2="166.00" stroke="#9fb3c8" />
<text x="48.00" y="170.00" font-size="11" font-family="Arial" fill="#52606d" text-anchor="end">31.7</text>
<line x1="56" y1="112.00" x2="904" y2="112.00" stroke="#edf2f7" />
<line x1="52" y1="112.00" x2="56" y2="112.00" stroke="#9fb3c8" />
<text x="48.00" y="116.00" font-size="11" font-family="Arial" fill="#52606d" text-anchor="end">68.3</text>
<line x1="56" y1="58.00" x2="904" y2="58.00" stroke="#edf2f7" />
<line x1="52" y1="58.00" x2="56" y2="58.00" stroke="#9fb3c8" />
<text x="48.00" y="62.00" font-size="11" font-family="Arial" fill="#52606d" text-anchor="end">105</text>
<line x1="56" y1="168.45" x2="904" y2="168.45" stroke="#f0b429" stroke-dasharray="5 5" />
<text x="912.00" y="172.45" font-size="10" font-family="Arial" fill="#8d2b0b" text-anchor="start">30.0</text>
<line x1="56" y1="109.55" x2="904" y2="109.55" stroke="#f0b429" stroke-dasharray="5 5" />
<text x="912.00" y="113.55" font-size="10" font-family="Arial" fill="#8d2b0b" text-anchor="start">70.0</text>
<polyline fill="none" stroke="#1f77b4" stroke-width="2" points="101.84,109.44 105.11,107.75 108.39,105.86 111.66,103.47 114.93,106.81 118.21,105.66 121.48,116.96 124.76,145.28 128.03,127.18 131.31,134.34 134.58,124.52 137.85,122.15 141.13,116.09 144.40,119.52 147.68,111.98 150.95,111.70 154.22,112.70 157.50,118.41 160.77,118.93 164.05,134.70 167.32,140.36 170.59,144.49 173.87,131.08 177.14,133.81 180.42,130.55 183.69,129.29 186.97,124.28 190.24,136.27 193.51,143.50 196.79,136.72 200.06,129.75 203.34,128.68 206.61,125.06 209.88,122.99 213.16,122.74 216.43,118.37 219.71,115.24 222.98,109.75 226.25,110.95 229.53,113.88 232.80,107.93 236.08,104.06 239.35,100.99 242.63,110.81 245.90,115.64 249.17,121.34 252.45,118.17 255.72,114.75 259.00,112.79 262.27,109.48 265.54,106.80 268.82,113.48 272.09,108.29 275.37,116.20 278.64,108.56 281.92,110.33 285.19,145.49 288.46,131.13 291.74,135.88 295.01,131.51 298.29,134.27 301.56,130.08 304.83,122.81 308.11,123.04 311.38,131.23 314.66,126.06 317.93,120.14 321.20,111.90 324.48,108.80 327.75,107.04 331.03,120.73 334.30,118.42 337.58,116.16 340.85,131.97 344.12,128.47 347.40,140.27 350.67,142.04 353.95,130.11 357.22,131.78 360.49,132.29 363.77,144.42 367.04,143.96 370.32,148.53 373.59,154.44 376.86,150.35 380.14,160.60 383.41,155.64 386.69,141.09 389.96,137.98 393.24,133.61 396.51,129.76 399.78,131.81 403.06,127.93 406.33,126.72 409.61,127.40 412.88,125.17 416.15,126.74 419.43,125.99 422.70,123.44 425.98,126.53 429.25,142.05 432.53,145.42 435.80,143.83 439.07,155.27 442.35,144.41 445.62,136.03 448.90,133.14 452.17,130.34 455.44,128.57 458.72,128.63 461.99,132.80 465.27,134.79 468.54,141.56 471.81,143.08 475.09,136.41 478.36,129.76 481.64,129.06 484.91,134.53 488.19,126.97 491.46,126.36 494.73,127.96 498.01,138.60 501.28,135.44 504.56,136.27 507.83,153.58 511.10,141.94 514.38,136.43 517.65,134.11 520.93,130.88 524.20,124.66 527.47,122.51 530.75,128.47 534.02,138.95 537.30,133.77 540.57,145.27 543.85,155.34 547.12,161.95 550.39,147.23 553.67,142.55 556.94,145.09 560.22,143.34 563.49,153.90 566.76,152.44 570.04,152.95 573.31,147.46 576.59,149.66 579.86,143.16 583.14,150.33 586.41,142.82 589.68,133.91 592.96,141.36 596.23,143.22 599.51,142.33 602.78,148.70 606.05,138.63 609.33,140.52 612.60,149.17 615.88,140.66 619.15,140.65 622.42,140.74 625.70,150.92 628.97,153.95 632.25,145.92 635.52,142.60 638.80,150.51 642.07,152.16 645.34,160.77 648.62,152.61 651.89,155.77 655.17,151.13 658.44,161.46 661.71,167.92 664.99,170.14 668.26,150.22 671.54,144.14 674.81,143.57 678.08,140.51 681.36,140.43 684.63,126.62 687.91,123.90 691.18,123.31 694.46,119.09 697.73,112.53 701.00,108.12 704.28,106.66 707.55,102.92 710.83,105.49 714.10,108.63 717.37,103.37 720.65,108.06 723.92,102.30 727.20,102.15 730.47,110.66 733.75,108.51 737.02,105.36 740.29,102.35 743.57,104.10 746.84,100.03 750.12,94.66 753.39,95.81 756.66,90.63 759.94,90.06 763.21,98.24 766.49,95.56 769.76,93.86 773.03,107.50 776.31,111.03 779.58,116.01 782.86,109.75 786.13,109.07 789.41,107.52 792.68,101.68 795.95,102.75 799.23,100.08 802.50,98.95 805.78,97.12 809.05,95.74 812.32,98.77 815.60,104.35 818.87,141.45 822.15,133.64 825.42,139.67 828.69,148.69 831.97,133.63 835.24,131.32 838.52,120.52 841.79,129.65 845.07,134.02 848.34,125.61 851.61,126.77 854.89,140.37 858.16,141.88 861.44,138.75 864.71,143.93 867.98,134.62 871.26,128.93 874.53,135.17 877.81,141.57 881.08,136.43 884.36,143.05 887.63,141.98 890.90,135.79 894.18,134.65 897.45,142.20 900.73,137.84 904.00,138.95" />
<text x="808.00" y="76.00" font-size="13" font-family="Arial" fill="#1f77b4" text-anchor="start">RSI14</text>
<line x1="56" y1="432" x2="904" y2="432" stroke="#cbd2d9" />
<line x1="56" y1="272" x2="56" y2="432" stroke="#cbd2d9" />
<text x="16.00" y="264.00" font-size="12" font-family="Arial" fill="#52606d" text-anchor="start">MACD</text>
<line x1="56" y1="432.00" x2="904" y2="432.00" stroke="#edf2f7" />
<line x1="52" y1="432.00" x2="56" y2="432.00" stroke="#9fb3c8" />
<text x="48.00" y="436.00" font-size="11" font-family="Arial" fill="#52606d" text-anchor="end">-12.4</text>
<line x1="56" y1="378.67" x2="904" y2="378.67" stroke="#edf2f7" />
<line x1="52" y1="378.67" x2="56" y2="378.67" stroke="#9fb3c8" />
<text x="48.00" y="382.67" font-size="11" font-family="Arial" fill="#52606d" text-anchor="end">0.83</text>
<line x1="56" y1="325.33" x2="904" y2="325.33" stroke="#edf2f7" />
<line x1="52" y1="325.33" x2="56" y2="325.33" stroke="#9fb3c8" />
<text x="48.00" y="329.33" font-size="11" font-family="Arial" fill="#52606d" text-anchor="end">14.1</text>
<line x1="56" y1="272.00" x2="904" y2="272.00" stroke="#edf2f7" />
<line x1="52" y1="272.00" x2="56" y2="272.00" stroke="#9fb3c8" />
<text x="48.00" y="276.00" font-size="11" font-family="Arial" fill="#52606d" text-anchor="end">27.4</text>
<line x1="56" y1="382.01" x2="904" y2="382.01" stroke="#9fb3c8" stroke-dasharray="4 4" />
<rect x="136.71" y="382.01" width="2.28" height="0.00" fill="#2f9e44" opacity="0.55" />
<rect x="139.99" y="379.99" width="2.28" height="2.02" fill="#2f9e44" opacity="0.55" />
<rect x="143.26" y="379.38" width="2.28" height="2.63" fill="#2f9e44" opacity="0.55" />
<rect x="146.53" y="377.41" width="2.28" height="4.60" fill="#2f9e44" opacity="0.55" />
<rect x="149.81" y="376.47" width="2.28" height="5.54" fill="#2f9e44" opacity="0.55" />
<rect x="153.08" y="376.42" width="2.28" height="5.59" fill="#2f9e44" opacity="0.55" />
<rect x="156.36" y="377.49" width="2.28" height="4.52" fill="#2f9e44" opacity="0.55" />
<rect x="159.63" y="378.61" width="2.28" height="3.40" fill="#2f9e44" opacity="0.55" />
<rect x="162.90" y="381.66" width="2.28" height="0.35" fill="#2f9e44" opacity="0.55" />
<rect x="166.18" y="382.01" width="2.28" height="2.62" fill="#d64545" opacity="0.55" />
<rect x="169.45" y="382.01" width="2.28" height="5.17" fill="#d64545" opacity="0.55" />
<rect x="172.73" y="382.01" width="2.28" height="4.43" fill="#d64545" opacity="0.55" />
<rect x="176.00" y="382.01" width="2.28" height="4.30" fill="#d64545" opacity="0.55" />
<rect x="179.28" y="382.01" width="2.28" height="3.54" fill="#d64545" opacity="0.55" />
<rect x="182.55" y="382.01" width="2.28" height="2.78" fill="#d64545" opacity="0.55" />
<rect x="185.82" y="382.01" width="2.28" height="1.36" fill="#d64545" opacity="0.55" />
<rect x="189.10" y="382.01" width="2.28" height="2.22" fill="#d64545" opacity="0.55" />
<rect x="192.37" y="382.01" width="2.28" height="3.97" fill="#d64545" opacity="0.55" />
<rect x="195.65" y="382.01" width="2.28" height="3.82" fill="#d64545" opacity="0.55" />
<rect x="198.92" y="382.01" width="2.28" height="2.30" fill="#d64545" opacity="0.55" />
<rect x="202.19" y="382.01" width="2.28" height="1.11" fill="#d64545" opacity="0.55" />
<rect x="205.47" y="381.67" width="2.28" height="0.33" fill="#2f9e44" opacity="0.55" />
<rect x="208.74" y="380.46" width="2.28" height="1.55" fill="#2f9e44" opacity="0.55" />
<rect x="212.02" y="379.81" width="2.28" height="2.20" fill="#2f9e44" opacity="0.55" />
<rect x="215.29" y="378.76" width="2.28" height="3.25" fill="#2f9e44" opacity="0.55" />
<rect x="218.57" y="377.71" width="2.28" height="4.30" fill="#2f9e44" opacity="0.55" />
<rect x="221.84" y="376.10" width="2.28" height="5.91" fill="#2f9e44" opacity="0.55" />
<rect x="225.11" y="375.66" width="2.28" height="6.35" fill="#2f9e44" opacity="0.55" />
<rect x="228.39" y="376.15" width="2.28" height="5.85" fill="#2f9e44" opacity="0.55" />
<rect x="231.66" y="375.56" width="2.28" height="6.44" fill="#2f9e44" opacity="0.55" />
<rect x="234.94" y="374.67" width="2.28" height="7.34" fill="#2f9e44" opacity="0.55" />
<rect x="238.21" y="373.77" width="2.28" height="8.23" fill="#2f9e44" opacity="0.55" />
<rect x="241.48" y="374.87" width="2.28" height="7.14" fill="#2f9e44" opacity="0.55" />
<rect x="244.76" y="376.68" width="2.28" height="5.33" fill="#2f9e44" opacity="0.55" />
<rect x="248.03" y="378.99" width="2.28" height="3.02" fill="#2f9e44" opacity="0.55" />
<rect x="251.31" y="380.20" width="2.28" height="1.81" fill="#2f9e44" opacity="0.55" />
<rect x="254.58" y="380.60" width="2.28" height="1.41" fill="#2f9e44" opacity="0.55" />
<rect x="257.85" y="380.74" width="2.28" height="1.27" fill="#2f9e44" opacity="0.55" />
<rect x="261.13" y="380.41" width="2.28" height="1.60" fill="#2f9e44" opacity="0.55" />
<rect x="264.40" y="379.91" width="2.28" height="2.10" fill="#2f9e44" opacity="0.55" />
<rect x="267.68" y="380.61" width="2.28" height="1.40" fill="#2f9e44" opacity="0.55" />
<rect x="270.95" y="380.22" width="2.28" height="1.79" fill="#2f9e44" opacity="0.55" />
<rect x="274.23" y="381.15" width="2.28" height="0.85" fill="#2f9e44" opacity="0.55" />
<rect x="277.50" y="380.28" width="2.28" height="1.73" fill="#2f9e44" opacity="0.55" />
<rect x="280.77" y="380.28" width="2.28" height="1.73" fill="#2f9e44" opacity="0.55" />
<rect x="284.05" y="382.01" width="2.28" height="4.05" fill="#d64545" opacity="0.55" />
<rect x="287.32" y="382.01" width="2.28" height="4.53" fill="#d64545" opacity="0.55" />
<rect x="290.60" y="382.01" width="2.28" height="5.87" fill="#d64545" opacity="0.55" />
<rect x="293.87" y="382.01" width="2.28" height="5.57" fill="#d64545" opacity="0.55" />
<rect x="297.14" y="382.01" width="2.28" height="5.88" fill="#d64545" opacity="0.55" />
<rect x="300.42" y="382.01" width="2.28" height="4.98" fill="#d64545" opacity="0.55" />
<rect x="303.69" y="382.01" width="2.28" height="2.41" fill="#d64545" opacity="0.55" />
<rect x="306.97" y="382.01" width="2.28" height="0.91" fill="#d64545" opacity="0.55" />
<rect x="310.24" y="382.01" width="2.28" height="1.62" fill="#d64545" opacity="0.55" />
<rect x="313.51" y="382.01" width="2.28" height="0.88" fill="#d64545" opacity="0.55" />
<rect x="316.79" y="380.89" width="2.28" height="1.12" fill="#2f9e44" opacity="0.55" />
<rect x="320.06" y="377.09" width="2.28" height="4.92" fill="#2f9e44" opacity="0.55" />
<rect x="323.34" y="373.93" width="2.28" height="8.08" fill="#2f9e44" opacity="0.55" />
<rect x="326.61" y="371.87" width="2.28" height="10.14" fill="#2f9e44" opacity="0.55" />
<rect x="329.89" y="373.83" width="2.28" height="8.17" fill="#2f9e44" opacity="0.55" />
<rect x="333.16" y="374.99" width="2.28" height="7.02" fill="#2f9e44" opacity="0.55" />
<rect x="336.43" y="375.59" width="2.28" height="6.42" fill="#2f9e44" opacity="0.55" />
<rect x="339.71" y="379.87" width="2.28" height="2.13" fill="#2f9e44" opacity="0.55" />
<rect x="342.98" y="381.94" width="2.28" height="0.07" fill="#2f9e44" opacity="0.55" />
<rect x="346.26" y="382.01" width="2.28" height="4.50" fill="#d64545" opacity="0.55" />
<rect x="349.53" y="382.01" width="2.28" height="7.91" fill="#d64545" opacity="0.55" />
<rect x="352.80" y="382.01" width="2.28" height="6.45" fill="#d64545" opacity="0.55" />
<rect x="356.08" y="382.01" width="2.28" height="5.88" fill="#d64545" opacity="0.55" />
<rect x="359.35" y="382.01" width="2.28" height="5.58" fill="#d64545" opacity="0.55" />
<rect x="362.63" y="382.01" width="2.28" height="8.58" fill="#d64545" opacity="0.55" />
<rect x="365.90" y="382.01" width="2.28" height="10.09" fill="#d64545" opacity="0.55" />
<rect x="369.18" y="382.01" width="2.28" height="12.03" fill="#d64545" opacity="0.55" />
<rect x="372.45" y="382.01" width="2.28" height="14.66" fill="#d64545" opacity="0.55" />
<rect x="375.72" y="382.01" width="2.28" height="14.75" fill="#d64545" opacity="0.55" />
<rect x="379.00" y="382.01" width="2.28" height="17.75" fill="#d64545" opacity="0.55" />
<rect x="382.27" y="382.01" width="2.28" height="17.64" fill="#d64545" opacity="0.55" />
<rect x="385.55" y="382.01" width="2.28" height="12.79" fill="#d64545" opacity="0.55" />
<rect x="388.82" y="382.01" width="2.28" height="8.12" fill="#d64545" opacity="0.55" />
<rect x="392.09" y="382.01" width="2.28" height="3.35" fill="#d64545" opacity="0.55" />
<rect x="395.37" y="380.88" width="2.28" height="1.13" fill="#2f9e44" opacity="0.55" />
<rect x="398.64" y="378.62" width="2.28" height="3.38" fill="#2f9e44" opacity="0.55" />
<rect x="401.92" y="376.12" width="2.28" height="5.89" fill="#2f9e44" opacity="0.55" />
<rect x="405.19" y="374.45" width="2.28" height="7.56" fill="#2f9e44" opacity="0.55" />
<rect x="408.46" y="373.95" width="2.28" height="8.06" fill="#2f9e44" opacity="0.55" />
<rect x="411.74" y="373.42" width="2.28" height="8.59" fill="#2f9e44" opacity="0.55" />
<rect x="415.01" y="373.88" width="2.28" height="8.12" fill="#2f9e44" opacity="0.55" />
<rect x="418.29" y="374.46" width="2.28" height="7.55" fill="#2f9e44" opacity="0.55" />
<rect x="421.56" y="374.63" width="2.28" height="7.38" fill="#2f9e44" opacity="0.55" />
<rect x="424.84" y="375.73" width="2.28" height="6.27" fill="#2f9e44" opacity="0.55" />
<rect x="428.11" y="379.91" width="2.28" height="2.10" fill="#2f9e44" opacity="0.55" />
<rect x="431.38" y="382.01" width="2.28" height="1.53" fill="#d64545" opacity="0.55" />
<rect x="434.66" y="382.01" width="2.28" height="3.51" fill="#d64545" opacity="0.55" />
<rect x="437.93" y="382.01" width="2.28" height="7.57" fill="#d64545" opacity="0.55" />
<rect x="441.21" y="382.01" width="2.28" height="7.57" fill="#d64545" opacity="0.55" />
<rect x="444.48" y="382.01" width="2.28" height="5.20" fill="#d64545" opacity="0.55" />
<rect x="447.75" y="382.01" width="2.28" height="2.74" fill="#d64545" opacity="0.55" />
<rect x="451.03" y="382.01" width="2.28" height="0.36" fill="#d64545" opacity="0.55" />
<rect x="454.30" y="380.43" width="2.28" height="1.58" fill="#2f9e44" opacity="0.55" />
<rect x="457.58" y="379.35" width="2.28" height="2.65" fill="#2f9e44" opacity="0.55" />
<rect x="460.85" y="379.65" width="2.28" height="2.36" fill="#2f9e44" opacity="0.55" />
<rect x="464.12" y="380.38" width="2.28" height="1.63" fill="#2f9e44" opacity="0.55" />
<rect x="467.40" y="382.01" width="2.28" height="0.29" fill="#d64545" opacity="0.55" />
<rect x="470.67" y="382.01" width="2.28" height="1.84" fill="#d64545" opacity="0.55" />
<rect x="473.95" y="382.01" width="2.28" height="1.52" fill="#d64545" opacity="0.55" />
<rect x="477.22" y="381.92" width="2.28" height="0.09" fill="#2f9e44" opacity="0.55" />
<rect x="480.50" y="380.81" width="2.28" height="1.20" fill="#2f9e44" opacity="0.55" />
<rect x="483.77" y="381.14" width="2.28" height="0.86" fill="#2f9e44" opacity="0.55" />
<rect x="487.04" y="379.88" width="2.28" height="2.13" fill="#2f9e44" opacity="0.55" />
<rect x="490.32" y="379.12" width="2.28" height="2.89" fill="#2f9e44" opacity="0.55" />
<rect x="493.59" y="379.11" width="2.28" height="2.90" fill="#2f9e44" opacity="0.55" />
<rect x="496.87" y="381.04" width="2.28" height="0.97" fill="#2f9e44" opacity="0.55" />
<rect x="500.14" y="381.81" width="2.28" height="0.20" fill="#2f9e44" opacity="0.55" />
<rect x="503.41" y="382.01" width="2.28" height="0.50" fill="#d64545" opacity="0.55" />
<rect x="506.69" y="382.01" width="2.28" height="4.37" fill="#d64545" opacity="0.55" />
<rect x="509.96" y="382.01" width="2.28" height="4.53" fill="#d64545" opacity="0.55" />
<rect x="513.24" y="382.01" width="2.28" height="3.31" fill="#d64545" opacity="0.55" />
<rect x="516.51" y="382.01" width="2.28" height="1.91" fill="#d64545" opacity="0.55" />
<rect x="519.79" y="382.01" width="2.28" height="0.28" fill="#d64545" opacity="0.55" />
<rect x="523.06" y="379.85" width="2.28" height="2.16" fill="#2f9e44" opacity="0.55" />
<rect x="526.33" y="377.95" width="2.28" height="4.06" fill="#2f9e44" opacity="0.55" />
<rect x="529.61" y="378.00" width="2.28" height="4.01" fill="#2f9e44" opacity="0.55" />
<rect x="532.88" y="380.24" width="2.28" height="1.77" fill="#2f9e44" opacity="0.55" />
<rect x="536.16" y="380.72" width="2.28" height="1.29" fill="#2f9e44" opacity="0.55" />
<rect x="539.43" y="382.01" width="2.28" height="1.61" fill="#d64545" opacity="0.55" />
<rect x="542.70" y="382.01" width="2.28" height="6.18" fill="#d64545" opacity="0.55" />
<rect x="545.98" y="382.01" width="2.28" height="11.00" fill="#d64545" opacity="0.55" />
<rect x="549.25" y="382.01" width="2.28" height="10.25" fill="#d64545" opacity="0.55" />
<rect x="552.53" y="382.01" width="2.28" height="8.06" fill="#d64545" opacity="0.55" />
<rect x="555.80" y="382.01" width="2.28" height="6.98" fill="#d64545" opacity="0.55" />
<rect x="559.07" y="382.01" width="2.28" height="5.49" fill="#d64545" opacity="0.55" />
<rect x="562.35" y="382.01" width="2.28" height="7.43" fill="#d64545" opacity="0.55" />
<rect x="565.62" y="382.01" width="2.28" height="7.87" fill="#d64545" opacity="0.55" />
<rect x="568.90" y="382.01" width="2.28" height="7.81" fill="#d64545" opacity="0.55" />
<rect x="572.17" y="382.01" width="2.28" height="6.13" fill="#d64545" opacity="0.55" />
<rect x="575.45" y="382.01" width="2.28" height="5.25" fill="#d64545" opacity="0.55" />
<rect x="578.72" y="382.01" width="2.28" height="2.93" fill="#d64545" opacity="0.55" />
<rect x="581.99" y="382.01" width="2.28" height="3.10" fill="#d64545" opacity="0.55" />
<rect x="585.27" y="382.01" width="2.28" height="1.26" fill="#d64545" opacity="0.55" />
<rect x="588.54" y="379.66" width="2.28" height="2.35" fill="#2f9e44" opacity="0.55" />
<rect x="591.82" y="379.30" width="2.28" height="2.71" fill="#2f9e44" opacity="0.55" />
<rect x="595.09" y="379.59" width="2.28" height="2.42" fill="#2f9e44" opacity="0.55" />
<rect x="598.36" y="379.58" width="2.28" height="2.43" fill="#2f9e44" opacity="0.55" />
<rect x="601.64" y="381.25" width="2.28" height="0.75" fill="#2f9e44" opacity="0.55" />
<rect x="604.91" y="379.89" width="2.28" height="2.12" fill="#2f9e44" opacity="0.55" />
<rect x="608.19" y="379.51" width="2.28" height="2.50" fill="#2f9e44" opacity="0.55" />
<rect x="611.46" y="381.65" width="2.28" height="0.36" fill="#2f9e44" opacity="0.55" />
<rect x="614.73" y="380.86" width="2.28" height="1.15" fill="#2f9e44" opacity="0.55" />
<rect x="618.01" y="380.33" width="2.28" height="1.68" fill="#2f9e44" opacity="0.55" />
<rect x="621.28" y="380.01" width="2.28" height="1.99" fill="#2f9e44" opacity="0.55" />
<rect x="624.56" y="382.01" width="2.28" height="0.50" fill="#d64545" opacity="0.55" />
<rect x="627.83" y="382.01" width="2.28" height="2.85" fill="#d64545" opacity="0.55" />
<rect x="631.11" y="382.01" width="2.28" height="2.37" fill="#d64545" opacity="0.55" />
<rect x="634.38" y="382.01" width="2.28" height="1.10" fill="#d64545" opacity="0.55" />
<rect x="637.65" y="382.01" width="2.28" height="2.30" fill="#d64545" opacity="0.55" />
<rect x="640.93" y="382.01" width="2.28" height="3.30" fill="#d64545" opacity="0.55" />
<rect x="644.20" y="382.01" width="2.28" height="6.45" fill="#d64545" opacity="0.55" />
<rect x="647.48" y="382.01" width="2.28" height="6.24" fill="#d64545" opacity="0.55" />
<rect x="650.75" y="382.01" width="2.28" height="6.67" fill="#d64545" opacity="0.55" />
<rect x="654.02" y="382.01" width="2.28" height="5.45" fill="#d64545" opacity="0.55" />
<rect x="657.30" y="382.01" width="2.28" height="7.82" fill="#d64545" opacity="0.55" />
<rect x="660.57" y="382.01" width="2.28" height="11.58" fill="#d64545" opacity="0.55" />
<rect x="663.85" y="382.01" width="2.28" height="14.21" fill="#d64545" opacity="0.55" />
<rect x="667.12" y="382.01" width="2.28" height="10.03" fill="#d64545" opacity="0.55" />
<rect x="670.40" y="382.01" width="2.28" height="4.78" fill="#d64545" opacity="0.55" />
<rect x="673.67" y="382.01" width="2.28" height="0.79" fill="#d64545" opacity="0.55" />
<rect x="676.94" y="379.07" width="2.28" height="2.94" fill="#2f9e44" opacity="0.55" />
<rect x="680.22" y="376.59" width="2.28" height="5.42" fill="#2f9e44" opacity="0.55" />
<rect x="683.49" y="370.57" width="2.28" height="11.44" fill="#2f9e44" opacity="0.55" />
<rect x="686.77" y="366.10" width="2.28" height="15.90" fill="#2f9e44" opacity="0.55" />
<rect x="690.04" y="363.71" width="2.28" height="18.30" fill="#2f9e44" opacity="0.55" />
<rect x="693.31" y="361.39" width="2.28" height="20.61" fill="#2f9e44" opacity="0.55" />
<rect x="696.59" y="358.03" width="2.28" height="23.97" fill="#2f9e44" opacity="0.55" />
<rect x="699.86" y="354.87" width="2.28" height="27.13" fill="#2f9e44" opacity="0.55" />
<rect x="703.14" y="353.53" width="2.28" height="28.48" fill="#2f9e44" opacity="0.55" />
<rect x="706.41" y="352.10" width="2.28" height="29.91" fill="#2f9e44" opacity="0.55" />
<rect x="709.68" y="353.44" width="2.28" height="28.57" fill="#2f9e44" opacity="0.55" />
<rect x="712.96" y="356.61" width="2.28" height="25.40" fill="#2f9e44" opacity="0.55" />
<rect x="716.23" y="357.42" width="2.28" height="24.59" fill="#2f9e44" opacity="0.55" />
<rect x="719.51" y="360.48" width="2.28" height="21.53" fill="#2f9e44" opacity="0.55" />
<rect x="722.78" y="360.70" width="2.28" height="21.31" fill="#2f9e44" opacity="0.55" />
<rect x="726.06" y="362.27" width="2.28" height="19.73" fill="#2f9e44" opacity="0.55" />
<rect x="729.33" y="366.46" width="2.28" height="15.54" fill="#2f9e44" opacity="0.55" />
<rect x="732.60" y="369.37" width="2.28" height="12.64" fill="#2f9e44" opacity="0.55" />
<rect x="735.88" y="370.80" width="2.28" height="11.21" fill="#2f9e44" opacity="0.55" />
<rect x="739.15" y="371.18" width="2.28" height="10.83" fill="#2f9e44" opacity="0.55" />
<rect x="742.43" y="372.89" width="2.28" height="9.12" fill="#2f9e44" opacity="0.55" />
<rect x="745.70" y="372.79" width="2.28" height="9.22" fill="#2f9e44" opacity="0.55" />
<rect x="748.97" y="370.20" width="2.28" height="11.81" fill="#2f9e44" opacity="0.55" />
<rect x="752.25" y="370.05" width="2.28" height="11.96" fill="#2f9e44" opacity="0.55" />
<rect x="755.52" y="367.08" width="2.28" height="14.93" fill="#2f9e44" opacity="0.55" />
<rect x="758.80" y="366.17" width="2.28" height="15.84" fill="#2f9e44" opacity="0.55" />
<rect x="762.07" y="368.72" width="2.28" height="13.29" fill="#2f9e44" opacity="0.55" />
<rect x="765.34" y="369.87" width="2.28" height="12.14" fill="#2f9e44" opacity="0.55" />
<rect x="768.62" y="370.72" width="2.28" height="11.29" fill="#2f9e44" opacity="0.55" />
<rect x="771.89" y="375.45" width="2.28" height="6.56" fill="#2f9e44" opacity="0.55" />
<rect x="775.17" y="380.38" width="2.28" height="1.63" fill="#2f9e44" opacity="0.55" />
<rect x="778.44" y="382.01" width="2.28" height="3.50" fill="#d64545" opacity="0.55" />
<rect x="781.72" y="382.01" width="2.28" height="4.38" fill="#d64545" opacity="0.55" />
<rect x="784.99" y="382.01" width="2.28" height="5.18" fill="#d64545" opacity="0.55" />
<rect x="788.26" y="382.01" width="2.28" height="5.45" fill="#d64545" opacity="0.55" />
<rect x="791.54" y="382.01" width="2.28" height="2.86" fill="#d64545" opacity="0.55" />
<rect x="794.81" y="382.01" width="2.28" height="2.10" fill="#d64545" opacity="0.55" />
<rect x="798.09" y="382.01" width="2.28" height="0.72" fill="#d64545" opacity="0.55" />
<rect x="801.36" y="381.91" width="2.28" height="0.09" fill="#2f9e44" opacity="0.55" />
<rect x="804.63" y="381.06" width="2.28" height="0.95" fill="#2f9e44" opacity="0.55" />
<rect x="807.91" y="380.49" width="2.28" height="1.52" fill="#2f9e44" opacity="0.55" />
<rect x="811.18" y="381.50" width="2.28" height="0.51" fill="#2f9e44" opacity="0.55" />
<rect x="814.46" y="382.01" width="2.28" height="1.87" fill="#d64545" opacity="0.55" />
<rect x="817.73" y="382.01" width="2.28" height="13.15" fill="#d64545" opacity="0.55" />
<rect x="821.01" y="382.01" width="2.28" height="17.48" fill="#d64545" opacity="0.55" />
<rect x="824.28" y="382.01" width="2.28" height="22.10" fill="#d64545" opacity="0.55" />
<rect x="827.55" y="382.01" width="2.28" height="28.13" fill="#d64545" opacity="0.55" />
<rect x="830.83" y="382.01" width="2.28" height="25.03" fill="#d64545" opacity="0.55" />
<rect x="834.10" y="382.01" width="2.28" height="21.25" fill="#d64545" opacity="0.55" />
<rect x="837.38" y="382.01" width="2.28" height="12.45" fill="#d64545" opacity="0.55" />
<rect x="840.65" y="382.01" width="2.28" height="10.38" fill="#d64545" opacity="0.55" />
<rect x="843.92" y="382.01" width="2.28" height="10.87" fill="#d64545" opacity="0.55" />
<rect x="847.20" y="382.01" width="2.28" height="6.38" fill="#d64545" opacity="0.55" />
<rect x="850.47" y="382.01" width="2.28" height="4.12" fill="#d64545" opacity="0.55" />
<rect x="853.75" y="382.01" width="2.28" height="9.12" fill="#d64545" opacity="0.55" />
<rect x="857.02" y="382.01" width="2.28" height="12.93" fill="#d64545" opacity="0.55" />
<rect x="860.29" y="382.01" width="2.28" height="13.51" fill="#d64545" opacity="0.55" />
<rect x="863.57" y="382.01" width="2.28" height="16.01" fill="#d64545" opacity="0.55" />
<rect x="866.84" y="382.01" width="2.28" height="12.51" fill="#d64545" opacity="0.55" />
<rect x="870.12" y="382.01" width="2.28" height="6.76" fill="#d64545" opacity="0.55" />
<rect x="873.39" y="382.01" width="2.28" height="5.91" fill="#d64545" opacity="0.55" />
<rect x="876.67" y="382.01" width="2.28" height="8.52" fill="#d64545" opacity="0.55" />
<rect x="879.94" y="382.01" width="2.28" height="7.29" fill="#d64545" opacity="0.55" />
<rect x="883.21" y="382.01" width="2.28" height="9.76" fill="#d64545" opacity="0.55" />
<rect x="886.49" y="382.01" width="2.28" height="10.44" fill="#d64545" opacity="0.55" />
<rect x="889.76" y="382.01" width="2.28" height="7.43" fill="#d64545" opacity="0.55" />
<rect x="893.04" y="382.01" width="2.28" height="4.70" fill="#d64545" opacity="0.55" />
<rect x="896.31" y="382.01" width="2.28" height="6.39" fill="#d64545" opacity="0.55" />
<rect x="899.58" y="382.01" width="2.28" height="5.17" fill="#d64545" opacity="0.55" />
<rect x="902.86" y="382.01" width="2.28" height="4.72" fill="#d64545" opacity="0.55" />
<polyline fill="none" stroke="#1f77b4" stroke-width="2" points="137.85,370.52 141.13,368.00 144.40,366.73 147.68,363.61 150.95,361.29 154.22,359.84 157.50,359.78 160.77,360.05 164.05,363.02 167.32,366.64 170.59,370.48 173.87,370.85 177.14,371.80 180.42,371.92 183.69,371.86 186.97,370.77 190.24,372.19 193.51,374.93 196.79,375.74 200.06,374.80 203.34,373.88 206.61,372.35 209.88,370.75 213.16,369.55 216.43,367.68 219.71,365.56 222.98,362.48 226.25,360.45 229.53,359.48 232.80,357.28 236.08,354.55 239.35,351.60 242.63,350.91 245.90,351.39 249.17,352.94 252.45,353.70 255.72,353.74 259.00,353.57 262.27,352.84 265.54,351.81 268.82,352.16 272.09,351.33 275.37,352.05 278.64,350.74 281.92,350.31 285.19,357.10 288.46,358.72 291.74,361.52 295.01,362.61 298.29,364.39 301.56,364.73 304.83,362.77 308.11,361.50 311.38,362.61 314.66,362.09 317.93,359.82 321.20,354.78 324.48,349.60 327.75,345.01 331.03,344.93 334.30,344.33 337.58,343.33 340.85,347.08 344.12,349.13 347.40,354.82 350.67,360.20 353.95,360.36 357.22,361.26 360.49,362.36 363.77,367.50 367.04,371.54 370.32,376.48 373.59,382.77 376.86,386.55 380.14,394.00 383.41,398.29 386.69,396.64 389.96,394.00 393.24,390.07 396.51,385.31 399.78,382.21 403.06,378.23 406.33,374.67 409.61,372.15 412.88,369.48 416.15,367.91 419.43,366.60 422.70,364.93 425.98,364.46 429.25,368.12 432.53,372.12 435.80,374.99 439.07,380.93 442.35,382.83 445.62,381.76 448.90,379.99 452.17,377.69 455.44,375.36 458.72,373.62 461.99,373.32 465.27,373.65 468.54,375.64 471.81,377.65 475.09,377.71 478.36,376.08 481.64,374.67 484.91,374.79 488.19,372.99 491.46,371.51 494.73,370.77 498.01,372.46 501.28,373.18 504.56,374.01 507.83,378.97 511.10,380.27 514.38,379.87 517.65,378.95 520.93,377.39 524.20,374.41 527.47,371.49 530.75,370.54 534.02,372.34 537.30,372.50 540.57,375.80 543.85,381.91 547.12,389.48 550.39,391.30 553.67,391.12 556.94,391.78 560.22,391.67 563.49,395.46 566.76,397.87 570.04,399.77 573.31,399.62 576.59,400.05 579.86,398.47 583.14,399.41 586.41,397.88 589.68,393.69 592.96,392.65 596.23,392.33 599.51,391.72 602.78,393.20 606.05,391.31 609.33,390.31 612.60,392.35 615.88,391.28 619.15,390.33 622.42,389.52 625.70,392.13 628.97,395.19 632.25,395.31 635.52,394.32 638.80,396.09 642.07,397.92 645.34,402.67 648.62,404.03 651.89,406.12 655.17,406.26 658.44,410.59 661.71,417.24 664.99,423.43 668.26,421.75 671.54,417.70 674.81,413.91 678.08,409.44 681.36,405.61 684.63,396.73 687.91,388.29 691.18,381.32 694.46,373.85 697.73,364.50 701.00,354.55 704.28,346.09 707.55,337.19 710.83,331.38 714.10,328.20 717.37,322.86 720.65,320.54 723.92,315.43 727.20,312.07 730.47,312.38 733.75,312.12 737.02,310.75 740.29,308.43 743.57,307.85 746.84,305.45 750.12,299.91 753.39,296.77 756.66,290.06 759.94,285.20 763.21,284.43 766.49,282.54 769.76,280.57 773.03,283.66 776.31,288.18 779.58,294.18 782.86,296.17 786.13,298.26 789.41,299.89 792.68,298.02 795.95,297.78 799.23,296.58 802.50,295.74 805.78,294.65 809.05,293.70 812.32,294.58 815.60,297.43 818.87,312.00 822.15,320.69 825.42,330.84 828.69,343.90 831.97,347.07 835.24,348.59 838.52,342.91 841.79,343.43 845.07,346.64 848.34,343.75 851.61,342.52 854.89,349.80 858.16,356.84 861.44,360.79 864.71,367.29 867.98,366.93 871.26,362.86 874.53,363.49 877.81,368.23 881.08,368.82 884.36,373.73 887.63,377.02 890.90,375.86 894.18,374.31 897.45,377.60 900.73,377.67 904.00,378.41" />
<polyline fill="none" stroke="#ff7f0e" stroke-width="2" points="137.85,370.52 141.13,370.02 144.40,369.36 147.68,368.21 150.95,366.83 154.22,365.43 157.50,364.30 160.77,363.45 164.05,363.36 167.32,364.02 170.59,365.31 173.87,366.42 177.14,367.49 180.42,368.38 183.69,369.08 186.97,369.42 190.24,369.97 193.51,370.96 196.79,371.92 200.06,372.49 203.34,372.77 206.61,372.69 209.88,372.30 213.16,371.75 216.43,370.94 219.71,369.86 222.98,368.38 226.25,366.80 229.53,365.33 232.80,363.72 236.08,361.89 239.35,359.83 242.63,358.05 245.90,356.71 249.17,355.96 252.45,355.51 255.72,355.15 259.00,354.84 262.27,354.44 265.54,353.91 268.82,353.56 272.09,353.12 275.37,352.90 278.64,352.47 281.92,352.04 285.19,353.05 288.46,354.19 291.74,355.65 295.01,357.04 298.29,358.51 301.56,359.76 304.83,360.36 308.11,360.59 311.38,360.99 314.66,361.21 317.93,360.93 321.20,359.70 324.48,357.68 327.75,355.15 331.03,353.10 334.30,351.35 337.58,349.74 340.85,349.21 344.12,349.19 347.40,350.32 350.67,352.30 353.95,353.91 357.22,355.38 360.49,356.78 363.77,358.92 367.04,361.44 370.32,364.45 373.59,368.12 376.86,371.80 380.14,376.24 383.41,380.65 386.69,383.85 389.96,385.88 393.24,386.72 396.51,386.44 399.78,385.59 403.06,384.12 406.33,382.23 409.61,380.21 412.88,378.07 416.15,376.04 419.43,374.15 422.70,372.30 425.98,370.74 429.25,370.21 432.53,370.59 435.80,371.47 439.07,373.37 442.35,375.26 445.62,376.56 448.90,377.24 452.17,377.33 455.44,376.94 458.72,376.28 461.99,375.69 465.27,375.28 468.54,375.35 471.81,375.81 475.09,376.19 478.36,376.17 481.64,375.87 484.91,375.65 488.19,375.12 491.46,374.40 494.73,373.67 498.01,373.43 501.28,373.38 504.56,373.51 507.83,374.60 511.10,375.73 514.38,376.56 517.65,377.04 520.93,377.11 524.20,376.57 527.47,375.56 530.75,374.55 534.02,374.11 537.30,373.79 540.57,374.19 543.85,375.73 547.12,378.48 550.39,381.05 553.67,383.06 556.94,384.81 560.22,386.18 563.49,388.04 566.76,390.00 570.04,391.96 573.31,393.49 576.59,394.80 579.86,395.53 583.14,396.31 586.41,396.62 589.68,396.04 592.96,395.36 596.23,394.75 599.51,394.15 602.78,393.96 606.05,393.43 609.33,392.80 612.60,392.71 615.88,392.43 619.15,392.01 622.42,391.51 625.70,391.63 628.97,392.35 632.25,392.94 635.52,393.22 638.80,393.79 642.07,394.62 645.34,396.23 648.62,397.79 651.89,399.45 655.17,400.82 658.44,402.77 661.71,405.66 664.99,409.22 668.26,411.72 671.54,412.92 674.81,413.12 678.08,412.38 681.36,411.03 684.63,408.17 687.91,404.19 691.18,399.62 694.46,394.46 697.73,388.47 701.00,381.69 704.28,374.57 707.55,367.09 710.83,359.95 714.10,353.60 717.37,347.45 720.65,342.07 723.92,336.74 727.20,331.81 730.47,327.92 733.75,324.76 737.02,321.96 740.29,319.25 743.57,316.97 746.84,314.67 750.12,311.72 753.39,308.73 756.66,304.99 759.94,301.04 763.21,297.71 766.49,294.68 769.76,291.86 773.03,290.22 776.31,289.81 779.58,290.69 782.86,291.78 786.13,293.08 789.41,294.44 792.68,295.16 795.95,295.68 799.23,295.86 802.50,295.84 805.78,295.60 809.05,295.22 812.32,295.09 815.60,295.56 818.87,298.85 822.15,303.22 825.42,308.74 828.69,315.77 831.97,322.03 835.24,327.34 838.52,330.46 841.79,333.05 845.07,335.77 848.34,337.37 851.61,338.40 854.89,340.68 858.16,343.91 861.44,347.28 864.71,351.29 867.98,354.41 871.26,356.10 874.53,357.58 877.81,359.71 881.08,361.53 884.36,363.97 887.63,366.58 890.90,368.44 894.18,369.61 897.45,371.21 900.73,372.50 904.00,373.68" />
<text x="754.00" y="290.00" font-size="13" font-family="Arial" fill="#1f77b4" text-anchor="start">MACD</text>
<text x="818.00" y="290.00" font-size="13" font-family="Arial" fill="#ff7f0e" text-anchor="start">Signal</text>
<line x1="56" y1="624" x2="904" y2="624" stroke="#cbd2d9" />
<line x1="56" y1="484" x2="56" y2="624" stroke="#cbd2d9" />
<text x="16.00" y="476.00" font-size="12" font-family="Arial" fill="#52606d" text-anchor="start">KD</text>
<line x1="56" y1="624.00" x2="904" y2="624.00" stroke="#edf2f7" />
<line x1="52" y1="624.00" x2="56" y2="624.00" stroke="#9fb3c8" />
<text x="48.00" y="628.00" font-size="11" font-family="Arial" fill="#52606d" text-anchor="end">-5.00</text>
<line x1="56" y1="577.33" x2="904" y2="577.33" stroke="#edf2f7" />
<line x1="52" y1="577.33" x2="56" y2="577.33" stroke="#9fb3c8" />
<text x="48.00" y="581.33" font-size="11" font-family="Arial" fill="#52606d" text-anchor="end">31.7</text>
<line x1="56" y1="530.67" x2="904" y2="530.67" stroke="#edf2f7" />
<line x1="52" y1="530.67" x2="56" y2="530.67" stroke="#9fb3c8" />
<text x="48.00" y="534.67" font-size="11" font-family="Arial" fill="#52606d" text-anchor="end">68.3</text>
<line x1="56" y1="484.00" x2="904" y2="484.00" stroke="#edf2f7" />
<line x1="52" y1="484.00" x2="56" y2="484.00" stroke="#9fb3c8" />
<text x="48.00" y="488.00" font-size="11" font-family="Arial" fill="#52606d" text-anchor="end">105</text>
<line x1="56.00" y1="624" x2="56.00" y2="628" stroke="#9fb3c8" />
<text x="56.00" y="642.00" font-size="11" font-family="Arial" fill="#52606d" text-anchor="middle">07/02</text>
<line x1="226.25" y1="624" x2="226.25" y2="628" stroke="#9fb3c8" />
<text x="226.25" y="642.00" font-size="11" font-family="Arial" fill="#52606d" text-anchor="middle">09/16</text>
<line x1="396.51" y1="624" x2="396.51" y2="628" stroke="#9fb3c8" />
<text x="396.51" y="642.00" font-size="11" font-family="Arial" fill="#52606d" text-anchor="middle">11/28</text>
<line x1="563.49" y1="624" x2="563.49" y2="628" stroke="#9fb3c8" />
<text x="563.49" y="642.00" font-size="11" font-family="Arial" fill="#52606d" text-anchor="middle">02/12</text>
<line x1="733.75" y1="624" x2="733.75" y2="628" stroke="#9fb3c8" />
<text x="733.75" y="642.00" font-size="11" font-family="Arial" fill="#52606d" text-anchor="middle">04/29</text>
<line x1="904.00" y1="624" x2="904.00" y2="628" stroke="#9fb3c8" />
<text x="904.00" y="642.00" font-size="11" font-family="Arial" fill="#52606d" text-anchor="middle">07/15</text>
<line x1="56" y1="592.18" x2="904" y2="592.18" stroke="#f0b429" stroke-dasharray="5 5" />
<text x="912.00" y="596.18" font-size="10" font-family="Arial" fill="#8d2b0b" text-anchor="start">20.0</text>
<line x1="56" y1="515.82" x2="904" y2="515.82" stroke="#f0b429" stroke-dasharray="5 5" />
<text x="912.00" y="519.82" font-size="10" font-family="Arial" fill="#8d2b0b" text-anchor="start">80.0</text>
<polyline fill="none" stroke="#2ca02c" stroke-width="2" points="82.19,552.29 85.47,555.02 88.74,544.14 92.02,545.39 95.29,540.49 98.56,545.72 101.84,541.76 105.11,536.01 108.39,531.43 111.66,526.53 114.93,536.03 118.21,542.21 121.48,557.58 124.76,578.44 128.03,573.54 131.31,577.33 134.58,566.88 137.85,556.38 141.13,539.84 144.40,534.66 147.68,524.45 150.95,520.81 154.22,521.47 157.50,526.83 160.77,531.46 164.05,556.83 167.32,569.56 170.59,582.57 173.87,576.26 177.14,574.89 180.42,568.84 183.69,561.06 186.97,545.66 190.24,550.11 193.51,563.61 196.79,563.70 200.06,551.95 203.34,546.80 206.61,537.87 209.88,528.70 213.16,526.17 216.43,520.26 219.71,516.31 222.98,512.65 226.25,513.25 229.53,516.94 232.80,519.49 236.08,516.37 239.35,512.69 242.63,518.92 245.90,529.60 249.17,542.90 252.45,546.18 255.72,542.07 259.00,538.66 262.27,530.15 265.54,525.15 268.82,527.85 272.09,523.21 275.37,527.06 278.64,520.03 281.92,519.01 285.19,554.87 288.46,556.86 291.74,565.21 295.01,563.38 298.29,566.07 301.56,560.96 304.83,544.23 308.11,533.35 311.38,536.41 314.66,529.38 317.93,521.72 321.20,514.79 324.48,511.05 327.75,507.86 331.03,517.10 334.30,519.83 337.58,518.24 340.85,535.08 344.12,551.19 347.40,574.70 350.67,579.22 353.95,567.36 357.22,560.55 360.49,556.57 363.77,568.34 367.04,571.28 370.32,580.54 373.59,589.36 376.86,590.75 380.14,601.00 383.41,599.64 386.69,584.27 389.96,565.96 393.24,545.73 396.51,529.83 399.78,521.63 403.06,515.17 406.33,509.79 409.61,507.41 412.88,508.91 416.15,512.01 419.43,518.86 422.70,519.24 425.98,524.63 429.25,555.57 432.53,578.39 435.80,586.50 439.07,599.89 442.35,596.11 445.62,581.99 448.90,568.25 452.17,550.83 455.44,533.89 458.72,524.59 461.99,523.46 465.27,525.12 468.54,542.40 471.81,563.27 475.09,563.77 478.36,549.15 481.64,542.41 484.91,546.36 488.19,534.29 491.46,526.81 494.73,524.99 498.01,538.44 501.28,549.02 504.56,557.51 507.83,578.33 511.10,577.05 514.38,567.94 517.65,558.25 520.93,546.74 524.20,532.02 527.47,525.13 530.75,525.96 534.02,537.35 537.30,539.30 540.57,558.62 543.85,573.77 547.12,587.51 550.39,583.91 553.67,576.79 556.94,573.76 560.22,568.02 563.49,579.18 566.76,585.08 570.04,584.45 573.31,576.17 576.59,574.72 579.86,564.40 583.14,570.47 586.41,563.21 589.68,541.82 592.96,540.97 596.23,543.91 599.51,548.97 602.78,557.76 606.05,548.08 609.33,544.74 612.60,558.05 615.88,552.96 619.15,548.27 622.42,542.55 625.70,558.84 628.97,576.53 632.25,575.48 635.52,569.13 638.80,581.11 642.07,585.93 645.34,593.88 648.62,590.76 651.89,592.28 655.17,587.34 658.44,597.79 661.71,604.03 664.99,606.72 668.26,588.26 671.54,567.89 674.81,553.59 678.08,536.68 681.36,525.31 684.63,517.16 687.91,508.98 691.18,505.17 694.46,507.04 697.73,501.99 701.00,498.84 704.28,497.62 707.55,496.31 710.83,497.80 714.10,501.24 717.37,498.46 720.65,501.16 723.92,498.86 727.20,497.21 730.47,506.07 733.75,507.81 737.02,505.00 740.29,503.34 743.57,505.25 746.84,502.46 750.12,499.36 753.39,502.68 756.66,499.15 759.94,497.75 763.21,501.33 766.49,500.09 769.76,499.27 773.03,509.52 776.31,523.34 779.58,542.17 782.86,540.21 786.13,536.75 789.41,529.76 792.68,518.63 795.95,514.41 799.23,508.25 802.50,506.07 805.78,503.97 809.05,500.53 812.32,502.46 815.60,509.92 818.87,545.86 822.15,559.29 825.42,564.65 828.69,577.84 831.97,570.70 835.24,563.06 838.52,542.55 841.79,536.56 845.07,537.91 848.34,525.66 851.61,519.28 854.89,535.33 858.16,549.63 861.44,559.95 864.71,575.49 867.98,568.38 871.26,551.38 874.53,551.22 877.81,563.62 881.08,557.24 884.36,569.30 887.63,573.24 890.90,562.19 894.18,552.24 897.45,561.52 900.73,554.54 904.00,551.71" />
<polyline fill="none" stroke="#d62728" stroke-width="2" points="82.19,553.43 85.47,553.96 88.74,550.69 92.02,548.92 95.29,546.11 98.56,545.98 101.84,544.57 105.11,541.72 108.39,538.29 111.66,534.37 114.93,534.92 118.21,537.35 121.48,544.09 124.76,555.54 128.03,561.54 131.31,566.80 134.58,566.83 137.85,563.35 141.13,555.51 144.40,548.56 147.68,540.52 150.95,533.95 154.22,529.79 157.50,528.81 160.77,529.69 164.05,538.74 167.32,549.01 170.59,560.20 173.87,565.55 177.14,568.66 180.42,568.72 183.69,566.17 186.97,559.33 190.24,556.26 193.51,558.71 196.79,560.37 200.06,557.57 203.34,553.98 206.61,548.61 209.88,541.97 213.16,536.70 216.43,531.22 219.71,526.25 222.98,521.72 226.25,518.89 229.53,518.24 232.80,518.66 236.08,517.89 239.35,516.16 242.63,517.08 245.90,521.25 249.17,528.47 252.45,534.37 255.72,536.94 259.00,537.51 262.27,535.06 265.54,531.76 268.82,530.46 272.09,528.04 275.37,527.71 278.64,525.15 281.92,523.11 285.19,533.69 288.46,541.41 291.74,549.35 295.01,554.02 298.29,558.04 301.56,559.01 304.83,554.09 308.11,547.17 311.38,543.59 314.66,538.85 317.93,533.14 321.20,527.02 324.48,521.70 327.75,517.09 331.03,517.09 334.30,518.01 337.58,518.08 340.85,523.75 344.12,532.90 347.40,546.83 350.67,557.63 353.95,560.87 357.22,560.76 360.49,559.37 363.77,562.36 367.04,565.33 370.32,570.40 373.59,576.72 376.86,581.40 380.14,587.93 383.41,591.83 386.69,589.31 389.96,581.53 393.24,569.60 396.51,556.34 399.78,544.77 403.06,534.90 406.33,526.53 409.61,520.16 412.88,516.41 416.15,514.94 419.43,516.25 422.70,517.25 425.98,519.71 429.25,531.66 432.53,547.24 435.80,560.33 439.07,573.52 442.35,581.05 445.62,581.36 448.90,576.99 452.17,568.27 455.44,556.81 458.72,546.07 461.99,538.53 465.27,534.06 468.54,536.84 471.81,545.65 475.09,551.69 478.36,550.84 481.64,548.03 484.91,547.47 488.19,543.08 491.46,537.66 494.73,533.44 498.01,535.10 501.28,539.74 504.56,545.66 507.83,556.55 511.10,563.39 514.38,564.90 517.65,562.69 520.93,557.37 524.20,548.92 527.47,540.99 530.75,535.98 534.02,536.43 537.30,537.39 540.57,544.47 543.85,554.23 547.12,565.33 550.39,571.52 553.67,573.28 556.94,573.44 560.22,571.63 563.49,574.15 566.76,577.79 570.04,580.01 573.31,578.73 576.59,577.39 579.86,573.06 583.14,572.20 586.41,569.20 589.68,560.08 592.96,553.71 596.23,550.44 599.51,549.95 602.78,552.56 606.05,551.06 609.33,548.96 612.60,551.99 615.88,552.31 619.15,550.96 622.42,548.16 625.70,551.72 628.97,559.99 632.25,565.15 635.52,566.48 638.80,571.36 642.07,576.21 645.34,582.10 648.62,584.99 651.89,587.42 655.17,587.39 658.44,590.86 661.71,595.25 664.99,599.07 668.26,595.47 671.54,586.27 674.81,575.38 678.08,562.48 681.36,550.09 684.63,539.11 687.91,529.07 691.18,521.10 694.46,516.41 697.73,511.61 701.00,507.35 704.28,504.11 707.55,501.51 710.83,500.27 714.10,500.59 717.37,499.88 720.65,500.31 723.92,499.82 727.20,498.95 730.47,501.32 733.75,503.49 737.02,503.99 740.29,503.77 743.57,504.27 746.84,503.66 750.12,502.23 753.39,502.38 756.66,501.30 759.94,500.12 763.21,500.52 766.49,500.38 769.76,500.01 773.03,503.18 776.31,509.90 779.58,520.65 782.86,527.17 786.13,530.36 789.41,530.16 792.68,526.32 795.95,522.35 799.23,517.65 802.50,513.79 805.78,510.51 809.05,507.18 812.32,505.61 815.60,507.05 818.87,519.98 822.15,533.09 825.42,543.61 828.69,555.02 831.97,560.25 835.24,561.18 838.52,554.97 841.79,548.84 845.07,545.19 848.34,538.68 851.61,532.21 854.89,533.25 858.16,538.71 861.44,545.79 864.71,555.69 867.98,559.92 871.26,557.07 874.53,555.12 877.81,557.95 881.08,557.71 884.36,561.58 887.63,565.47 890.90,564.37 894.18,560.33 897.45,560.73 900.73,558.66 904.00,556.34" />
<text x="824.00" y="502.00" font-size="13" font-family="Arial" fill="#2ca02c" text-anchor="start">K</text>
<text x="860.00" y="502.00" font-size="13" font-family="Arial" fill="#d62728" text-anchor="start">D</text>
</svg>