<svg xmlns="http://www.w3.org/2000/svg" width="960" height="680" viewBox="0 0 960 680"><rect width="100%" height="100%" fill="white" />
<text x="56.00" y="32.00" font-size="20" font-family="Arial" fill="#1f2933" text-anchor="start">QQQ Technical Indicators</text>
<line x1="56" y1="220" x2="904" y2="220" stroke="#cbd2d9" />
<line x1="56" y1="58" x2="56" y2="220" stroke="#cbd2d9" />
<text x="16.00" y="50.00" font-size="12" font-family="Arial" fill="#52606d" text-anchor="start">RSI14</text>
<line x1="56" y1="220.00" x2="904" y2="220.00" stroke="#edf2f7" />
<line x1="52" y1="220.00" x2="56" y2="220.00" stroke="#9fb3c8" />
<text x="48.00" y="224.00" font-size="11" font-family="Arial" fill="#52606d" text-anchor="end">-5.00</text>
<line x1="56" y1="166.00" x2="904" y2="166.00" stroke="#edf2f7" />
<line x1="52" y1="166.00" x2="56" y2="166.00" stroke="#9fb3c8" />
<text x="48.00" y="170.00" font-size="11" font-family="Arial" fill="#52606d" text-anchor="end">31.7</text>
<line x1="56" y1="112.00" x2="904" y2="112.00" stroke="#edf2f7" />
<line x1="52" y1="112.00" x2="56" y2="112.00" stroke="#9fb3c8" />
<text x="48.00" y="116.00" font-size="11" font-family="Arial" fill="#52606d" text-anchor="end">68.3</text>
<line x1="56" y1="58.00" x2="904" y2="58.00" stroke="#edf2f7" />
<line x1="52" y1="58.00" x2="56" y2="58.00" stroke="#9fb3c8" />
<text x="48.00" y="62.00" font-size="11" font-family="Arial" fill="#52606d" text-anchor="end">105</text>
<line x1="56" y1="168.45" x2="904" y2="168.45" stroke="#f0b429" stroke-dasharray="5 5" />
<text x="912.00" y="172.45" font-size="10" font-family="Arial" fill="#8d2b0b" text-anchor="start">30.0</text>
<line x1="56" y1="109.55" x2="904" y2="109.55" stroke="#f0b429" stroke-dasharray="5 5" />
<text x="912.00" y="113.55" font-size="10" font-family="Arial" fill="#8d2b0b" text-anchor="start">70.0</text>
<polyline fill="none" stroke="#1f77b4" stroke-width="2" points="101.84,122.28 105.11,122.04 108.39,117.90 111.66,114.92 114.93,109.65 118.21,110.81 121.48,113.65 124.76,107.90 128.03,104.13 131.31,101.13 134.58,110.72 137.85,115.45 141.13,121.05 144.40,117.95 147.68,114.61 150.95,112.69 154.22,109.44 157.50,106.80 160.77,113.38 164.05,108.27 167.32,116.09 170.59,108.55 173.87,110.30 177.14,145.24 180.42,131.00 183.69,135.73 186.97,131.39 190.24,134.15 193.51,129.98 196.79,122.75 200.06,122.98 203.34,131.14 206.61,126.00 209.88,120.10 213.16,111.88 216.43,108.80 219.71,107.04 222.98,120.70 226.25,118.40 229.53,116.14 232.80,131.94 236.08,128.44 239.35,140.23 242.63,142.00 245.90,130.09 249.17,131.75 252.45,132.27 255.72,144.39 259.00,143.93 262.27,148.50 265.54,154.40 268.82,150.33 272.09,160.57 275.37,155.62 278.64,141.08 281.92,137.96 285.19,133.60 288.46,129.75 291.74,131.80 295.01,127.93 298.29,126.71 301.56,127.39 304.83,125.16 308.11,126.74 311.38,125.98 314.66,123.43 317.93,126.53 321.20,142.05 324.48,145.41 327.75,143.83 331.03,155.26 334.30,144.41 337.58,136.03 340.85,133.14 344.12,130.34 347.40,128.57 350.67,128.62 353.95,132.80 357.22,134.79 360.49,141.56 363.77,143.08 367.04,136.40 370.32,129.76 373.59,129.05 376.86,134.53 380.14,126.96 383.41,126.36 386.69,127.96 389.96,138.60 393.24,135.44 396.51,136.27 399.78,153.58 403.06,141.94 406.33,136.43 409.61,134.11 412.88,130.87 416.15,124.66 419.43,122.51 422.70,128.47 425.98,138.94 429.25,133.77 432.53,145.27 435.80,155.34 439.07,161.95 442.35,147.23 445.62,142.55 448.90,145.09 452.17,143.34 455.44,153.90 458.72,152.44 461.99,152.95 465.27,147.46 468.54,149.66 471.81,143.16 475.09,150.33 478.36,142.82 481.64,133.91 484.91,141.36 488.19,143.22 491.46,142.33 494.73,148.70 498.01,138.63 501.28,140.52 504.56,149.17 507.83,140.66 511.10,140.65 514.38,140.74 517.65,150.92 520.93,153.95 524.20,145.92 527.47,142.60 530.75,150.51 534.02,152.16 537.30,160.77 540.57,152.61 543.85,155.77 547.12,151.13 550.39,161.46 553.67,167.92 556.94,170.14 560.22,150.22 563.49,144.14 566.76,143.57 570.04,140.51 573.31,140.43 576.59,126.62 579.86,123.90 583.14,123.31 586.41,119.09 589.68,112.53 592.96,108.12 596.23,106.66 599.51,102.92 602.78,105.49 606.05,108.63 609.33,103.37 612.60,108.06 615.88,102.30 619.15,102.15 622.42,110.66 625.70,108.51 628.97,105.36 632.25,102.35 635.52,104.10 638.80,100.03 642.07,94.66 645.34,95.81 648.62,90.63 651.89,90.06 655.17,98.24 658.44,95.56 661.71,93.86 664.99,107.50 668.26,111.03 671.54,116.01 674.81,109.75 678.08,109.07 681.36,107.52 684.63,101.68 687.91,102.75 691.18,100.08 694.46,98.95 697.73,97.12 701.00,95.74 704.28,98.77 707.55,104.35 710.83,141.45 714.10,133.64 717.37,139.67 720.65,148.69 723.92,133.63 727.20,131.32 730.47,120.52 733.75,129.65 737.02,134.02 740.29,125.61 743.57,126.77 746.84,140.37 750.12,141.88 753.39,138.75 756.66,143.93 759.94,134.62 763.21,128.93 766.49,135.17 769.76,141.57 773.03,136.43 776.31,143.05 779.58,141.98 782.86,135.79 786.13,134.65 789.41,142.20 792.68,137.84 795.95,138.95 799.23,145.42 802.50,150.68 805.78,150.19 809.05,141.79 812.32,143.85 815.60,150.98 818.87,154.71 822.15,155.73 825.42,158.91 828.69,164.87 831.97,149.01 835.24,146.19 838.52,138.92 841.79,127.13 845.07,131.01 848.34,132.59 851.61,128.43 854.89,129.85 858.16,131.51 861.44,128.56 864.71,124.06 867.98,124.87 871.26,125.88 874.53,135.76 877.81,136.84 881.08,140.74 884.36,138.75 887.63,144.25 890.90,140.53 894.18,139.97 897.45,131.97 900.73,136.21 904.00,135.93" />
<text x="808.00" y="76.00" font-size="13" font-family="Arial" fill="#1f77b4" text-anchor="start">RSI14</text>
<line x1="56" y1="432" x2="904" y2="432" stroke="#cbd2d9" />
<line x1="56" y1="272" x2="56" y2="432" stroke="#cbd2d9" />
<text x="16.00" y="264.00" font-size="12" font-family="Arial" fill="#52606d" text-anchor="start">MACD</text>
<line x1="56" y1="432.00" x2="904" y2="432.00" stroke="#edf2f7" />
<line x1="52" y1="432.00" x2="56" y2="432.00" stroke="#9fb3c8" />
<text x="48.00" y="436.00" font-size="11" font-family="Arial" fill="#52606d" text-anchor="end">-12.9</text>
<line x1="56" y1="378.67" x2="904" y2="378.67" stroke="#edf2f7" />
<line x1="52" y1="378.67" x2="56" y2="378.67" stroke="#9fb3c8" />
<text x="48.00" y="382.67" font-size="11" font-family="Arial" fill="#52606d" text-anchor="end">0.52</text>
<line x1="56" y1="325.33" x2="904" y2="325.33" stroke="#edf2f7" />
<line x1="52" y1="325.33" x2="56" y2="325.33" stroke="#9fb3c8" />
<text x="48.00" y="329.33" font-size="11" font-family="Arial" fill="#52606d" text-anchor="end">14.0</text>
<line x1="56" y1="272.00" x2="904" y2="272.00" stroke="#edf2f7" />
<line x1="52" y1="272.00" x2="56" y2="272.00" stroke="#9fb3c8" />
<text x="48.00" y="276.00" font-size="11" font-family="Arial" fill="#52606d" text-anchor="end">27.4</text>
<line x1="56" y1="380.73" x2="904" y2="380.73" stroke="#9fb3c8" stroke-dasharray="4 4" />
<rect x="136.71" y="380.73" width="2.28" height="0.00" fill="#2f9e44" opacity="0.55" />
<rect x="139.99" y="380.73" width="2.28" height="1.16" fill="#d64545" opacity="0.55" />
<rect x="143.26" y="380.73" width="2.28" height="1.47" fill="#d64545" opacity="0.55" />
<rect x="146.53" y="380.73" width="2.28" height="1.15" fill="#d64545" opacity="0.55" />
<rect x="149.81" y="380.73" width="2.28" height="0.74" fill="#d64545" opacity="0.55" />
<rect x="153.08" y="380.70" width="2.28" height="0.03" fill="#2f9e44" opacity="0.55" />
<rect x="156.36" y="379.85" width="2.28" height="0.88" fill="#2f9e44" opacity="0.55" />
<rect x="159.63" y="380.27" width="2.28" height="0.46" fill="#2f9e44" opacity="0.55" />
<rect x="162.90" y="379.67" width="2.28" height="1.06" fill="#2f9e44" opacity="0.55" />
<rect x="166.18" y="380.42" width="2.28" height="0.31" fill="#2f9e44" opacity="0.55" />
<rect x="169.45" y="379.42" width="2.28" height="1.30" fill="#2f9e44" opacity="0.55" />
<rect x="172.73" y="379.32" width="2.28" height="1.41" fill="#2f9e44" opacity="0.55" />
<rect x="176.00" y="380.73" width="2.28" height="4.22" fill="#d64545" opacity="0.55" />
<rect x="179.28" y="380.73" width="2.28" height="4.63" fill="#d64545" opacity="0.55" />
<rect x="182.55" y="380.73" width="2.28" height="5.90" fill="#d64545" opacity="0.55" />
<rect x="185.82" y="380.73" width="2.28" height="5.56" fill="#d64545" opacity="0.55" />
<rect x="189.10" y="380.73" width="2.28" height="5.84" fill="#d64545" opacity="0.55" />
<rect x="192.37" y="380.73" width="2.28" height="4.93" fill="#d64545" opacity="0.55" />
<rect x="195.65" y="380.73" width="2.28" height="2.38" fill="#d64545" opacity="0.55" />
<rect x="198.92" y="380.73" width="2.28" height="0.89" fill="#d64545" opacity="0.55" />
<rect x="202.19" y="380.73" width="2.28" height="1.58" fill="#d64545" opacity="0.55" />
<rect x="205.47" y="380.73" width="2.28" height="0.84" fill="#d64545" opacity="0.55" />
<rect x="208.74" y="379.60" width="2.28" height="1.13" fill="#2f9e44" opacity="0.55" />
<rect x="212.02" y="375.84" width="2.28" height="4.89" fill="#2f9e44" opacity="0.55" />
<rect x="215.29" y="372.72" width="2.28" height="8.01" fill="#2f9e44" opacity="0.55" />
<rect x="218.57" y="370.68" width="2.28" height="10.05" fill="#2f9e44" opacity="0.55" />
<rect x="221.84" y="372.62" width="2.28" height="8.10" fill="#2f9e44" opacity="0.55" />
<rect x="225.11" y="373.76" width="2.28" height="6.96" fill="#2f9e44" opacity="0.55" />
<rect x="228.39" y="374.36" width="2.28" height="6.37" fill="#2f9e44" opacity="0.55" />
<rect x="231.66" y="378.59" width="2.28" height="2.14" fill="#2f9e44" opacity="0.55" />
<rect x="234.94" y="380.63" width="2.28" height="0.09" fill="#2f9e44" opacity="0.55" />
<rect x="238.21" y="380.73" width="2.28" height="4.42" fill="#d64545" opacity="0.55" />
<rect x="241.48" y="380.73" width="2.28" height="7.78" fill="#d64545" opacity="0.55" />
<rect x="244.76" y="380.73" width="2.28" height="6.35" fill="#d64545" opacity="0.55" />
<rect x="248.03" y="380.73" width="2.28" height="5.79" fill="#d64545" opacity="0.55" />
<rect x="251.31" y="380.73" width="2.28" height="5.49" fill="#d64545" opacity="0.55" />
<rect x="254.58" y="380.73" width="2.28" height="8.45" fill="#d64545" opacity="0.55" />
<rect x="257.85" y="380.73" width="2.28" height="9.95" fill="#d64545" opacity="0.55" />
<rect x="261.13" y="380.73" width="2.28" height="11.86" fill="#d64545" opacity="0.55" />
<rect x="264.40" y="380.73" width="2.28" height="14.45" fill="#d64545" opacity="0.55" />
<rect x="267.68" y="380.73" width="2.28" height="14.55" fill="#d64545" opacity="0.55" />
<rect x="270.95" y="380.73" width="2.28" height="17.52" fill="#d64545" opacity="0.55" />
<rect x="274.23" y="380.73" width="2.28" height="17.40" fill="#d64545" opacity="0.55" />
<rect x="277.50" y="380.73" width="2.28" height="12.62" fill="#d64545" opacity="0.55" />
<rect x="280.77" y="380.73" width="2.28" height="8.00" fill="#d64545" opacity="0.55" />
<rect x="284.05" y="380.73" width="2.28" height="3.30" fill="#d64545" opacity="0.55" />
<rect x="287.32" y="379.60" width="2.28" height="1.12" fill="#2f9e44" opacity="0.55" />
<rect x="290.60" y="377.38" width="2.28" height="3.35" fill="#2f9e44" opacity="0.55" />
<rect x="293.87" y="374.90" width="2.28" height="5.82" fill="#2f9e44" opacity="0.55" />
<rect x="297.14" y="373.26" width="2.28" height="7.47" fill="#2f9e44" opacity="0.55" />
<rect x="300.42" y="372.76" width="2.28" height="7.97" fill="#2f9e44" opacity="0.55" />
<rect x="303.69" y="372.24" width="2.28" height="8.48" fill="#2f9e44" opacity="0.55" />
<rect x="306.97" y="372.70" width="2.28" height="8.03" fill="#2f9e44" opacity="0.55" />
<rect x="310.24" y="373.27" width="2.28" height="7.46" fill="#2f9e44" opacity="0.55" />
<rect x="313.51" y="373.44" width="2.28" height="7.29" fill="#2f9e44" opacity="0.55" />
<rect x="316.79" y="374.53" width="2.28" height="6.20" fill="#2f9e44" opacity="0.55" />
<rect x="320.06" y="378.65" width="2.28" height="2.07" fill="#2f9e44" opacity="0.55" />
<rect x="323.34" y="380.73" width="2.28" height="1.51" fill="#d64545" opacity="0.55" />
<rect x="326.61" y="380.73" width="2.28" height="3.47" fill="#d64545" opacity="0.55" />
<rect x="329.89" y="380.73" width="2.28" height="7.47" fill="#d64545" opacity="0.55" />
<rect x="333.16" y="380.73" width="2.28" height="7.47" fill="#d64545" opacity="0.55" />
<rect x="336.43" y="380.73" width="2.28" height="5.14" fill="#d64545" opacity="0.55" />
<rect x="339.71" y="380.73" width="2.28" height="2.71" fill="#d64545" opacity="0.55" />
<rect x="342.98" y="380.73" width="2.28" height="0.35" fill="#d64545" opacity="0.55" />
<rect x="346.26" y="379.17" width="2.28" height="1.56" fill="#2f9e44" opacity="0.55" />
<rect x="349.53" y="378.11" width="2.28" height="2.62" fill="#2f9e44" opacity="0.55" />
<rect x="352.80" y="378.39" width="2.28" height="2.33" fill="#2f9e44" opacity="0.55" />
<rect x="356.08" y="379.11" width="2.28" height="1.61" fill="#2f9e44" opacity="0.55" />
<rect x="359.35" y="380.73" width="2.28" height="0.28" fill="#d64545" opacity="0.55" />
<rect x="362.63" y="380.73" width="2.28" height="1.81" fill="#d64545" opacity="0.55" />
<rect x="365.90" y="380.73" width="2.28" height="1.50" fill="#d64545" opacity="0.55" />
<rect x="369.18" y="380.64" width="2.28" height="0.09" fill="#2f9e44" opacity="0.55" />
<rect x="372.45" y="379.54" width="2.28" height="1.18" fill="#2f9e44" opacity="0.55" />
<rect x="375.72" y="379.87" width="2.28" height="0.85" fill="#2f9e44" opacity="0.55" />
<rect x="379.00" y="378.62" width="2.28" height="2.11" fill="#2f9e44" opacity="0.55" />
<rect x="382.27" y="377.88" width="2.28" height="2.85" fill="#2f9e44" opacity="0.55" />
<rect x="385.55" y="377.86" width="2.28" height="2.86" fill="#2f9e44" opacity="0.55" />
<rect x="388.82" y="379.77" width="2.28" height="0.96" fill="#2f9e44" opacity="0.55" />
<rect x="392.09" y="380.53" width="2.28" height="0.20" fill="#2f9e44" opacity="0.55" />
<rect x="395.37" y="380.73" width="2.28" height="0.50" fill="#d64545" opacity="0.55" />
<rect x="398.64" y="380.73" width="2.28" height="4.32" fill="#d64545" opacity="0.55" />
<rect x="401.92" y="380.73" width="2.28" height="4.48" fill="#d64545" opacity="0.55" />
<rect x="405.19" y="380.73" width="2.28" height="3.27" fill="#d64545" opacity="0.55" />
<rect x="408.46" y="380.73" width="2.28" height="1.89" fill="#d64545" opacity="0.55" />
<rect x="411.74" y="380.73" width="2.28" height="0.28" fill="#d64545" opacity="0.55" />
<rect x="415.01" y="378.60" width="2.28" height="2.13" fill="#2f9e44" opacity="0.55" />
<rect x="418.29" y="376.72" width="2.28" height="4.01" fill="#2f9e44" opacity="0.55" />
<rect x="421.56" y="376.76" width="2.28" height="3.96" fill="#2f9e44" opacity="0.55" />
<rect x="424.84" y="378.98" width="2.28" height="1.75" fill="#2f9e44" opacity="0.55" />
<rect x="428.11" y="379.45" width="2.28" height="1.28" fill="#2f9e44" opacity="0.55" />
<rect x="431.38" y="380.73" width="2.28" height="1.59" fill="#d64545" opacity="0.55" />
<rect x="434.66" y="380.73" width="2.28" height="6.10" fill="#d64545" opacity="0.55" />
<rect x="437.93" y="380.73" width="2.28" height="10.86" fill="#d64545" opacity="0.55" />
<rect x="441.21" y="380.73" width="2.28" height="10.12" fill="#d64545" opacity="0.55" />
<rect x="444.48" y="380.73" width="2.28" height="7.95" fill="#d64545" opacity="0.55" />
<rect x="447.75" y="380.73" width="2.28" height="6.89" fill="#d64545" opacity="0.55" />
<rect x="451.03" y="380.73" width="2.28" height="5.42" fill="#d64545" opacity="0.55" />
<rect x="454.30" y="380.73" width="2.28" height="7.33" fill="#d64545" opacity="0.55" />
<rect x="457.58" y="380.73" width="2.28" height="7.77" fill="#d64545" opacity="0.55" />
<rect x="460.85" y="380.73" width="2.28" height="7.72" fill="#d64545" opacity="0.55" />
<rect x="464.12" y="380.73" width="2.28" height="6.06" fill="#d64545" opacity="0.55" />
<rect x="467.40" y="380.73" width="2.28" height="5.18" fill="#d64545" opacity="0.55" />
<rect x="470.67" y="380.73" width="2.28" height="2.90" fill="#d64545" opacity="0.55" />
<rect x="473.95" y="380.73" width="2.28" height="3.06" fill="#d64545" opacity="0.55" />
<rect x="477.22" y="380.73" width="2.28" height="1.24" fill="#d64545" opacity="0.55" />
<rect x="480.50" y="378.41" width="2.28" height="2.32" fill="#2f9e44" opacity="0.55" />
<rect x="483.77" y="378.05" width="2.28" height="2.68" fill="#2f9e44" opacity="0.55" />
<rect x="487.04" y="378.34" width="2.28" height="2.39" fill="#2f9e44" opacity="0.55" />
<rect x="490.32" y="378.33" width="2.28" height="2.40" fill="#2f9e44" opacity="0.55" />
<rect x="493.59" y="379.98" width="2.28" height="0.75" fill="#2f9e44" opacity="0.55" />
<rect x="496.87" y="378.63" width="2.28" height="2.09" fill="#2f9e44" opacity="0.55" />
<rect x="500.14" y="378.26" width="2.28" height="2.47" fill="#2f9e44" opacity="0.55" />
<rect x="503.41" y="380.37" width="2.28" height="0.35" fill="#2f9e44" opacity="0.55" />
<rect x="506.69" y="379.59" width="2.28" height="1.13" fill="#2f9e44" opacity="0.55" />
<rect x="509.96" y="379.07" width="2.28" height="1.66" fill="#2f9e44" opacity="0.55" />
<rect x="513.24" y="378.76" width="2.28" height="1.97" fill="#2f9e44" opacity="0.55" />
<rect x="516.51" y="380.73" width="2.28" height="0.49" fill="#d64545" opacity="0.55" />
<rect x="519.79" y="380.73" width="2.28" height="2.81" fill="#d64545" opacity="0.55" />
<rect x="523.06" y="380.73" width="2.28" height="2.34" fill="#d64545" opacity="0.55" />
<rect x="526.33" y="380.73" width="2.28" height="1.09" fill="#d64545" opacity="0.55" />
<rect x="529.61" y="380.73" width="2.28" height="2.27" fill="#d64545" opacity="0.55" />
<rect x="532.88" y="380.73" width="2.28" height="3.26" fill="#d64545" opacity="0.55" />
<rect x="536.16" y="380.73" width="2.28" height="6.36" fill="#d64545" opacity="0.55" />
<rect x="539.43" y="380.73" width="2.28" height="6.16" fill="#d64545" opacity="0.55" />
<rect x="542.70" y="380.73" width="2.28" height="6.59" fill="#d64545" opacity="0.55" />
<rect x="545.98" y="380.73" width="2.28" height="5.38" fill="#d64545" opacity="0.55" />
<rect x="549.25" y="380.73" width="2.28" height="7.72" fill="#d64545" opacity="0.55" />
<rect x="552.53" y="380.73" width="2.28" height="11.43" fill="#d64545" opacity="0.55" />
<rect x="555.80" y="380.73" width="2.28" height="14.03" fill="#d64545" opacity="0.55" />
<rect x="559.07" y="380.73" width="2.28" height="9.90" fill="#d64545" opacity="0.55" />
<rect x="562.35" y="380.73" width="2.28" height="4.72" fill="#d64545" opacity="0.55" />
<rect x="565.62" y="380.73" width="2.28" height="0.78" fill="#d64545" opacity="0.55" />
<rect x="568.90" y="377.83" width="2.28" height="2.90" fill="#2f9e44" opacity="0.55" />
<rect x="572.17" y="375.37" width="2.28" height="5.35" fill="#2f9e44" opacity="0.55" />
<rect x="575.45" y="369.43" width="2.28" height="11.30" fill="#2f9e44" opacity="0.55" />
<rect x="578.72" y="365.02" width="2.28" height="15.70" fill="#2f9e44" opacity="0.55" />
<rect x="581.99" y="362.66" width="2.28" height="18.06" fill="#2f9e44" opacity="0.55" />
<rect x="585.27" y="360.37" width="2.28" height="20.35" fill="#2f9e44" opacity="0.55" />
<rect x="588.54" y="357.06" width="2.28" height="23.67" fill="#2f9e44" opacity="0.55" />
<rect x="591.82" y="353.93" width="2.28" height="26.79" fill="#2f9e44" opacity="0.55" />
<rect x="595.09" y="352.61" width="2.28" height="28.12" fill="#2f9e44" opacity="0.55" />
<rect x="598.36" y="351.20" width="2.28" height="29.53" fill="#2f9e44" opacity="0.55" />
<rect x="601.64" y="352.52" width="2.28" height="28.21" fill="#2f9e44" opacity="0.55" />
<rect x="604.91" y="355.64" width="2.28" height="25.08" fill="#2f9e44" opacity="0.55" />
<rect x="608.19" y="356.45" width="2.28" height="24.28" fill="#2f9e44" opacity="0.55" />
<rect x="611.46" y="359.47" width="2.28" height="21.26" fill="#2f9e44" opacity="0.55" />
<rect x="614.73" y="359.68" width="2.28" height="21.04" fill="#2f9e44" opacity="0.55" />
<rect x="618.01" y="361.24" width="2.28" height="19.49" fill="#2f9e44" opacity="0.55" />
<rect x="621.28" y="365.38" width="2.28" height="15.35" fill="#2f9e44" opacity="0.55" />
<rect x="624.56" y="368.25" width="2.28" height="12.48" fill="#2f9e44" opacity="0.55" />
<rect x="627.83" y="369.66" width="2.28" height="11.07" fill="#2f9e44" opacity="0.55" />
<rect x="631.11" y="370.04" width="2.28" height="10.69" fill="#2f9e44" opacity="0.55" />
<rect x="634.38" y="371.72" width="2.28" height="9.00" fill="#2f9e44" opacity="0.55" />
<rect x="637.65" y="371.63" width="2.28" height="9.10" fill="#2f9e44" opacity="0.55" />
<rect x="640.93" y="369.07" width="2.28" height="11.66" fill="#2f9e44" opacity="0.55" />
<rect x="644.20" y="368.92" width="2.28" height="11.81" fill="#2f9e44" opacity="0.55" />
<rect x="647.48" y="365.98" width="2.28" height="14.74" fill="#2f9e44" opacity="0.55" />
<rect x="650.75" y="365.09" width="2.28" height="15.64" fill="#2f9e44" opacity="0.55" />
<rect x="654.02" y="367.61" width="2.28" height="13.12" fill="#2f9e44" opacity="0.55" />
<rect x="657.30" y="368.74" width="2.28" height="11.98" fill="#2f9e44" opacity="0.55" />
<rect x="660.57" y="369.58" width="2.28" height="11.14" fill="#2f9e44" opacity="0.55" />
<rect x="663.85" y="374.25" width="2.28" height="6.47" fill="#2f9e44" opacity="0.55" />
<rect x="667.12" y="379.12" width="2.28" height="1.61" fill="#2f9e44" opacity="0.55" />
<rect x="670.40" y="380.73" width="2.28" height="3.45" fill="#d64545" opacity="0.55" />
<rect x="673.67" y="380.73" width="2.28" height="4.33" fill="#d64545" opacity="0.55" />
<rect x="676.94" y="380.73" width="2.28" height="5.12" fill="#d64545" opacity="0.55" />
<rect x="680.22" y="380.73" width="2.28" height="5.38" fill="#d64545" opacity="0.55" />
<rect x="683.49" y="380.73" width="2.28" height="2.83" fill="#d64545" opacity="0.55" />
<rect x="686.77" y="380.73" width="2.28" height="2.07" fill="#d64545" opacity="0.55" />
<rect x="690.04" y="380.73" width="2.28" height="0.71" fill="#d64545" opacity="0.55" />
<rect x="693.31" y="380.63" width="2.28" height="0.09" fill="#2f9e44" opacity="0.55" />
<rect x="696.59" y="379.79" width="2.28" height="0.93" fill="#2f9e44" opacity="0.55" />
<rect x="699.86" y="379.23" width="2.28" height="1.50" fill="#2f9e44" opacity="0.55" />
<rect x="703.14" y="380.23" width="2.28" height="0.50" fill="#2f9e44" opacity="0.55" />
<rect x="706.41" y="380.73" width="2.28" height="1.84" fill="#d64545" opacity="0.55" />
<rect x="709.68" y="380.73" width="2.28" height="12.99" fill="#d64545" opacity="0.55" />
<rect x="712.96" y="380.73" width="2.28" height="17.26" fill="#d64545" opacity="0.55" />
<rect x="716.23" y="380.73" width="2.28" height="21.82" fill="#d64545" opacity="0.55" />
<rect x="719.51" y="380.73" width="2.28" height="27.77" fill="#d64545" opacity="0.55" />
<rect x="722.78" y="380.73" width="2.28" height="24.72" fill="#d64545" opacity="0.55" />
<rect x="726.06" y="380.73" width="2.28" height="20.98" fill="#d64545" opacity="0.55" />
<rect x="729.33" y="380.73" width="2.28" height="12.30" fill="#d64545" opacity="0.55" />
<rect x="732.60" y="380.73" width="2.28" height="10.25" fill="#d64545" opacity="0.55" />
<rect x="735.88" y="380.73" width="2.28" height="10.73" fill="#d64545" opacity="0.55" />
<rect x="739.15" y="380.73" width="2.28" height="6.30" fill="#d64545" opacity="0.55" />
<rect x="742.43" y="380.73" width="2.28" height="4.07" fill="#d64545" opacity="0.55" />
<rect x="745.70" y="380.73" width="2.28" height="9.00" fill="#d64545" opacity="0.55" />
<rect x="748.97" y="380.73" width="2.28" height="12.76" fill="#d64545" opacity="0.55" />
<rect x="752.25" y="380.73" width="2.28" height="13.34" fill="#d64545" opacity="0.55" />
<rect x="755.52" y="380.73" width="2.28" height="15.80" fill="#d64545" opacity="0.55" />
<rect x="758.80" y="380.73" width="2.28" height="12.35" fill="#d64545" opacity="0.55" />
<rect x="762.07" y="380.73" width="2.28" height="6.67" fill="#d64545" opacity="0.55" />
<rect x="765.34" y="380.73" width="2.28" height="5.84" fill="#d64545" opacity="0.55" />
<rect x="768.62" y="380.73" width="2.28" height="8.41" fill="#d64545" opacity="0.55" />
<rect x="771.89" y="380.73" width="2.28" height="7.20" fill="#d64545" opacity="0.55" />
<rect x="775.17" y="380.73" width="2.28" height="9.63" fill="#d64545" opacity="0.55" />
<rect x="778.44" y="380.73" width="2.28" height="10.31" fill="#d64545" opacity="0.55" />
<rect x="781.72" y="380.73" width="2.28" height="7.33" fill="#d64545" opacity="0.55" />
<rect x="784.99" y="380.73" width="2.28" height="4.64" fill="#d64545" opacity="0.55" />
<rect x="788.26" y="380.73" width="2.28" height="6.31" fill="#d64545" opacity="0.55" />
<rect x="791.54" y="380.73" width="2.28" height="5.11" fill="#d64545" opacity="0.55" />
<rect x="794.81" y="380.73" width="2.28" height="4.66" fill="#d64545" opacity="0.55" />
<rect x="798.09" y="380.73" width="2.28" height="7.21" fill="#d64545" opacity="0.55" />
<rect x="801.36" y="380.73" width="2.28" height="11.17" fill="#d64545" opacity="0.55" />
<rect x="804.63" y="380.73" width="2.28" height="12.91" fill="#d64545" opacity="0.55" />
<rect x="807.91" y="380.73" width="2.28" height="10.06" fill="#d64545" opacity="0.55" />
<rect x="811.18" y="380.73" width="2.28" height="8.65" fill="#d64545" opacity="0.55" />
<rect x="814.46" y="380.73" width="2.28" height="10.66" fill="#d64545" opacity="0.55" />
<rect x="817.73" y="380.73" width="2.28" height="13.26" fill="#d64545" opacity="0.55" />
<rect x="821.01" y="380.73" width="2.28" height="14.63" fill="#d64545" opacity="0.55" />
<rect x="824.28" y="380.73" width="2.28" height="16.27" fill="#d64545" opacity="0.55" />
<rect x="827.55" y="380.73" width="2.28" height="19.77" fill="#d64545" opacity="0.55" />
<rect x="830.83" y="380.73" width="2.28" height="15.20" fill="#d64545" opacity="0.55" />
<rect x="834.10" y="380.73" width="2.28" height="10.16" fill="#d64545" opacity="0.55" />
<rect x="837.38" y="380.73" width="2.28" height="3.15" fill="#d64545" opacity="0.55" />
<rect x="840.65" y="373.02" width="2.28" height="7.71" fill="#2f9e44" opacity="0.55" />
<rect x="843.92" y="368.02" width="2.28" height="12.71" fill="#2f9e44" opacity="0.55" />
<rect x="847.20" y="365.99" width="2.28" height="14.73" fill="#2f9e44" opacity="0.55" />
<rect x="850.47" y="363.18" width="2.28" height="17.54" fill="#2f9e44" opacity="0.55" />
<rect x="853.75" y="362.73" width="2.28" height="17.99" fill="#2f9e44" opacity="0.55" />
<rect x="857.02" y="363.89" width="2.28" height="16.83" fill="#2f9e44" opacity="0.55" />
<rect x="860.29" y="364.10" width="2.28" height="16.63" fill="#2f9e44" opacity="0.55" />
<rect x="863.57" y="362.95" width="2.28" height="17.78" fill="#2f9e44" opacity="0.55" />
<rect x="866.84" y="363.41" width="2.28" height="17.32" fill="#2f9e44" opacity="0.55" />
<rect x="870.12" y="364.96" width="2.28" height="15.77" fill="#2f9e44" opacity="0.55" />
<rect x="873.39" y="369.96" width="2.28" height="10.76" fill="#2f9e44" opacity="0.55" />
<rect x="876.67" y="374.13" width="2.28" height="6.60" fill="#2f9e44" opacity="0.55" />
<rect x="879.94" y="378.51" width="2.28" height="2.22" fill="#2f9e44" opacity="0.55" />
<rect x="883.21" y="380.73" width="2.28" height="0.13" fill="#d64545" opacity="0.55" />
<rect x="886.49" y="380.73" width="2.28" height="3.53" fill="#d64545" opacity="0.55" />
<rect x="889.76" y="380.73" width="2.28" height="4.47" fill="#d64545" opacity="0.55" />
<rect x="893.04" y="380.73" width="2.28" height="4.77" fill="#d64545" opacity="0.55" />
<rect x="896.31" y="380.73" width="2.28" height="2.33" fill="#d64545" opacity="0.55" />
<rect x="899.58" y="380.73" width="2.28" height="1.96" fill="#d64545" opacity="0.55" />
<rect x="902.86" y="380.73" width="2.28" height="1.62" fill="#d64545" opacity="0.55" />
<polyline fill="none" stroke="#1f77b4" stroke-width="2" points="137.85,351.40 141.13,352.85 144.40,353.53 147.68,353.50 150.95,353.27 154.22,352.49 157.50,351.43 160.77,351.73 164.05,350.87 167.32,351.54 170.59,350.22 173.87,349.76 177.14,356.44 180.42,358.01 183.69,360.76 186.97,361.81 190.24,363.55 193.51,363.87 196.79,361.91 200.06,360.64 203.34,361.73 206.61,361.20 209.88,358.95 213.16,353.97 216.43,348.84 219.71,344.30 222.98,344.21 226.25,343.61 229.53,342.61 232.80,346.31 236.08,348.33 239.35,353.95 242.63,359.26 245.90,359.41 249.17,360.29 252.45,361.38 255.72,366.44 259.00,370.43 262.27,375.31 265.54,381.52 268.82,385.24 272.09,392.59 275.37,396.83 278.64,395.20 281.92,392.59 285.19,388.71 288.46,384.01 291.74,380.94 295.01,377.01 298.29,373.50 301.56,371.01 304.83,368.37 308.11,366.82 311.38,365.53 314.66,363.87 317.93,363.41 321.20,367.02 324.48,370.98 327.75,373.80 331.03,379.67 334.30,381.54 337.58,380.49 340.85,378.74 344.12,376.47 347.40,374.17 350.67,372.45 353.95,372.16 357.22,372.48 360.49,374.44 363.77,376.42 367.04,376.49 370.32,374.87 373.59,373.49 376.86,373.60 380.14,371.82 383.41,370.37 386.69,369.64 389.96,371.30 393.24,372.01 396.51,372.83 399.78,377.73 403.06,379.01 406.33,378.62 409.61,377.71 412.88,376.17 416.15,373.23 419.43,370.35 422.70,369.40 425.98,371.18 429.25,371.34 432.53,374.60 435.80,380.63 439.07,388.11 442.35,389.90 445.62,389.72 448.90,390.38 452.17,390.27 455.44,394.01 458.72,396.39 461.99,398.27 465.27,398.12 468.54,398.54 471.81,396.98 475.09,397.91 478.36,396.40 481.64,392.26 484.91,391.23 488.19,390.92 491.46,390.31 494.73,391.78 498.01,389.91 501.28,388.92 504.56,390.94 507.83,389.88 511.10,388.94 514.38,388.14 517.65,390.72 520.93,393.75 524.20,393.86 527.47,392.88 530.75,394.63 534.02,396.43 537.30,401.13 540.57,402.47 543.85,404.54 547.12,404.68 550.39,408.95 553.67,415.51 556.94,421.62 560.22,419.97 563.49,415.97 566.76,412.22 570.04,407.82 573.31,404.03 576.59,395.26 579.86,386.93 583.14,380.05 586.41,372.67 589.68,363.44 592.96,353.62 596.23,345.26 599.51,336.47 602.78,330.74 606.05,327.59 609.33,322.33 612.60,320.03 615.88,314.99 619.15,311.67 622.42,311.98 625.70,311.73 628.97,310.37 632.25,308.07 635.52,307.51 638.80,305.14 642.07,299.67 645.34,296.57 648.62,289.94 651.89,285.14 655.17,284.38 658.44,282.52 661.71,280.57 664.99,283.62 668.26,288.08 671.54,294.01 674.81,295.97 678.08,298.04 681.36,299.64 684.63,297.80 687.91,297.56 691.18,296.37 694.46,295.55 697.73,294.48 701.00,293.53 704.28,294.41 707.55,297.21 710.83,311.60 714.10,320.19 717.37,330.20 720.65,343.10 723.92,346.23 727.20,347.73 730.47,342.12 733.75,342.64 737.02,345.80 740.29,342.95 743.57,341.74 746.84,348.92 750.12,355.87 753.39,359.78 756.66,366.20 759.94,365.83 763.21,361.82 766.49,362.44 769.76,367.12 773.03,367.71 776.31,372.55 779.58,375.80 782.86,374.66 786.13,373.13 789.41,376.37 792.68,376.45 795.95,377.17 799.23,381.51 802.50,388.27 805.78,393.24 809.05,392.91 812.32,393.66 815.60,398.33 818.87,404.24 822.15,409.27 825.42,414.99 828.69,423.43 831.97,422.65 835.24,420.16 838.52,413.93 841.79,401.14 845.07,392.97 848.34,387.26 851.61,380.06 854.89,375.12 858.16,372.07 861.44,368.12 864.71,362.52 867.98,358.65 871.26,356.26 874.53,358.57 877.81,361.09 881.08,364.92 884.36,367.30 887.63,371.58 890.90,373.64 894.18,375.13 897.45,373.27 900.73,373.39 904.00,373.46" />
<polyline fill="none" stroke="#ff7f0e" stroke-width="2" points="137.85,351.40 141.13,351.69 144.40,352.06 147.68,352.34 150.95,352.53 154.22,352.52 157.50,352.30 160.77,352.19 164.05,351.92 167.32,351.85 170.59,351.52 173.87,351.17 177.14,352.22 180.42,353.38 183.69,354.86 186.97,356.25 190.24,357.71 193.51,358.94 196.79,359.53 200.06,359.76 203.34,360.15 206.61,360.36 209.88,360.08 213.16,358.86 216.43,356.85 219.71,354.34 222.98,352.32 226.25,350.58 229.53,348.98 232.80,348.45 236.08,348.43 239.35,349.53 242.63,351.48 245.90,353.06 249.17,354.51 252.45,355.88 255.72,357.99 259.00,360.48 262.27,363.45 265.54,367.06 268.82,370.70 272.09,375.08 275.37,379.43 278.64,382.58 281.92,384.58 285.19,385.41 288.46,385.13 291.74,384.29 295.01,382.83 298.29,380.97 301.56,378.98 304.83,376.86 308.11,374.85 311.38,372.98 314.66,371.16 317.93,369.61 321.20,369.09 324.48,369.47 327.75,370.34 331.03,372.20 334.30,374.07 337.58,375.36 340.85,376.03 344.12,376.12 347.40,375.73 350.67,375.07 353.95,374.49 357.22,374.09 360.49,374.16 363.77,374.61 367.04,374.99 370.32,374.96 373.59,374.67 376.86,374.46 380.14,373.93 383.41,373.22 386.69,372.50 389.96,372.26 393.24,372.21 396.51,372.34 399.78,373.41 403.06,374.53 406.33,375.35 409.61,375.82 412.88,375.89 416.15,375.36 419.43,374.36 422.70,373.37 425.98,372.93 429.25,372.61 432.53,373.01 435.80,374.53 439.07,377.25 442.35,379.78 445.62,381.77 448.90,383.49 452.17,384.85 455.44,386.68 458.72,388.62 461.99,390.55 465.27,392.06 468.54,393.36 471.81,394.08 475.09,394.85 478.36,395.16 481.64,394.58 484.91,393.91 488.19,393.31 491.46,392.71 494.73,392.53 498.01,392.00 501.28,391.39 504.56,391.30 507.83,391.01 511.10,390.60 514.38,390.11 517.65,390.23 520.93,390.93 524.20,391.52 527.47,391.79 530.75,392.36 534.02,393.17 537.30,394.77 540.57,396.31 543.85,397.95 547.12,399.30 550.39,401.23 553.67,404.08 556.94,407.59 560.22,410.07 563.49,411.25 566.76,411.44 570.04,410.72 573.31,409.38 576.59,406.56 579.86,402.63 583.14,398.11 586.41,393.03 589.68,387.11 592.96,380.41 596.23,373.38 599.51,366.00 602.78,358.95 606.05,352.68 609.33,346.61 612.60,341.29 615.88,336.03 619.15,331.16 622.42,327.32 625.70,324.20 628.97,321.44 632.25,318.76 635.52,316.51 638.80,314.24 642.07,311.32 645.34,308.37 648.62,304.69 651.89,300.78 655.17,297.50 658.44,294.50 661.71,291.72 664.99,290.10 668.26,289.69 671.54,290.56 674.81,291.64 678.08,292.92 681.36,294.26 684.63,294.97 687.91,295.49 691.18,295.67 694.46,295.64 697.73,295.41 701.00,295.03 704.28,294.91 707.55,295.37 710.83,298.62 714.10,302.93 717.37,308.39 720.65,315.33 723.92,321.51 727.20,326.75 730.47,329.83 733.75,332.39 737.02,335.07 740.29,336.65 743.57,337.67 746.84,339.92 750.12,343.11 753.39,346.44 756.66,350.39 759.94,353.48 763.21,355.15 766.49,356.61 769.76,358.71 773.03,360.51 776.31,362.92 779.58,365.49 782.86,367.33 786.13,368.49 789.41,370.06 792.68,371.34 795.95,372.51 799.23,374.31 802.50,377.10 805.78,380.33 809.05,382.84 812.32,385.01 815.60,387.67 818.87,390.99 822.15,394.64 825.42,398.71 828.69,403.65 831.97,407.45 835.24,409.99 838.52,410.78 841.79,408.85 845.07,405.68 848.34,401.99 851.61,397.61 854.89,393.11 858.16,388.90 861.44,384.75 864.71,380.30 867.98,375.97 871.26,372.03 874.53,369.34 877.81,367.69 881.08,367.13 884.36,367.17 887.63,368.05 890.90,369.17 894.18,370.36 897.45,370.94 900.73,371.43 904.00,371.84" />
<text x="754.00" y="290.00" font-size="13" font-family="Arial" fill="#1f77b4" text-anchor="start">MACD</text>
<text x="818.00" y="290.00" font-size="13" font-family="Arial" fill="#ff7f0e" text-anchor="start">Signal</text>
<line x1="56" y1="624" x2="904" y2="624" stroke="#cbd2d9" />
<line x1="56" y1="484" x2="56" y2="624" stroke="#cbd2d9" />
<text x="16.00" y="476.00" font-size="12" font-family="Arial" fill="#52606d" text-anchor="start">KD</text>
<line x1="56" y1="624.00" x2="904" y2="624.00" stroke="#edf2f7" />
<line x1="52" y1="624.00" x2="56" y2="624.00" stroke="#9fb3c8" />
<text x="48.00" y="628.00" font-size="11" font-family="Arial" fill="#52606d" text-anchor="end">-5.00</text>
<line x1="56" y1="577.33" x2="904" y2="577.33" stroke="#edf2f7" />
<line x1="52" y1="577.33" x2="56" y2="577.33" stroke="#9fb3c8" />
<text x="48.00" y="581.33" font-size="11" font-family="Arial" fill="#52606d" text-anchor="end">31.7</text>
<line x1="56" y1="530.67" x2="904" y2="530.67" stroke="#edf2f7" />
<line x1="52" y1="530.67" x2="56" y2="530.67" stroke="#9fb3c8" />
<text x="48.00" y="534.67" font-size="11" font-family="Arial" fill="#52606d" text-anchor="end">68.3</text>
<line x1="56" y1="484.00" x2="904" y2="484.00" stroke="#edf2f7" />
<line x1="52" y1="484.00" x2="56" y2="484.00" stroke="#9fb3c8" />
<text x="48.00" y="488.00" font-size="11" font-family="Arial" fill="#52606d" text-anchor="end">105</text>
<line x1="56.00" y1="624" x2="56.00" y2="628" stroke="#9fb3c8" />
<text x="56.00" y="642.00" font-size="11" font-family="Arial" fill="#52606d" text-anchor="middle">08/19</text>
<line x1="226.25" y1="624" x2="226.25" y2="628" stroke="#9fb3c8" />
<text x="226.25" y="642.00" font-size="11" font-family="Arial" fill="#52606d" text-anchor="middle">10/31</text>
<line x1="396.51" y1="624" x2="396.51" y2="628" stroke="#9fb3c8" />
<text x="396.51" y="642.00" font-size="11" font-family="Arial" fill="#52606d" text-anchor="middle">01/16</text>
<line x1="563.49" y1="624" x2="563.49" y2="628" stroke="#9fb3c8" />
<text x="563.49" y="642.00" font-size="11" font-family="Arial" fill="#52606d" text-anchor="middle">04/01</text>
<line x1="733.75" y1="624" x2="733.75" y2="628" stroke="#9fb3c8" />
<text x="733.75" y="642.00" font-size="11" font-family="Arial" fill="#52606d" text-anchor="middle">06/16</text>
<line x1="904.00" y1="624" x2="904.00" y2="628" stroke="#9fb3c8" />
<text x="904.00" y="642.00" font-size="11" font-family="Arial" fill="#52606d" text-anchor="middle">08/31</text>
<line x1="56" y1="592.18" x2="904" y2="592.18" stroke="#f0b429" stroke-dasharray="5 5" />
<text x="912.00" y="596.18" font-size="10" font-family="Arial" fill="#8d2b0b" text-anchor="start">20.0</text>
<line x1="56" y1="515.82" x2="904" y2="515.82" stroke="#f0b429" stroke-dasharray="5 5" />
<text x="912.00" y="519.82" font-size="10" font-family="Arial" fill="#8d2b0b" text-anchor="start">80.0</text>
<polyline fill="none" stroke="#2ca02c" stroke-width="2" points="82.19,555.67 85.47,567.32 88.74,566.17 92.02,553.60 95.29,547.90 98.56,538.60 101.84,529.19 105.11,526.50 108.39,520.48 111.66,516.45 114.93,512.74 118.21,513.32 121.48,516.98 124.76,519.51 128.03,516.39 131.31,512.70 134.58,518.93 137.85,529.61 141.13,542.90 144.40,546.19 147.68,542.07 150.95,538.67 154.22,530.15 157.50,525.15 160.77,527.85 164.05,523.21 167.32,527.06 170.59,520.03 173.87,519.01 177.14,554.87 180.42,556.86 183.69,565.21 186.97,563.38 190.24,566.07 193.51,560.96 196.79,544.23 200.06,533.35 203.34,536.41 206.61,529.38 209.88,521.72 213.16,514.79 216.43,511.05 219.71,507.86 222.98,517.10 226.25,519.83 229.53,518.24 232.80,535.08 236.08,551.19 239.35,574.70 242.63,579.22 245.90,567.36 249.17,560.55 252.45,556.57 255.72,568.34 259.00,571.28 262.27,580.54 265.54,589.36 268.82,590.75 272.09,601.00 275.37,599.64 278.64,584.27 281.92,565.96 285.19,545.73 288.46,529.83 291.74,521.63 295.01,515.17 298.29,509.80 301.56,507.41 304.83,508.91 308.11,512.01 311.38,518.86 314.66,519.24 317.93,524.63 321.20,555.57 324.48,578.39 327.75,586.50 331.03,599.89 334.30,596.11 337.58,581.99 340.85,568.25 344.12,550.83 347.40,533.89 350.67,524.59 353.95,523.46 357.22,525.12 360.49,542.40 363.77,563.27 367.04,563.77 370.32,549.15 373.59,542.41 376.86,546.36 380.14,534.29 383.41,526.81 386.69,524.99 389.96,538.44 393.24,549.02 396.51,557.51 399.78,578.33 403.06,577.05 406.33,567.94 409.61,558.25 412.88,546.74 416.15,532.02 419.43,525.13 422.70,525.96 425.98,537.35 429.25,539.30 432.53,558.62 435.80,573.77 439.07,587.51 442.35,583.91 445.62,576.79 448.90,573.76 452.17,568.02 455.44,579.18 458.72,585.08 461.99,584.45 465.27,576.17 468.54,574.72 471.81,564.40 475.09,570.47 478.36,563.21 481.64,541.82 484.91,540.97 488.19,543.91 491.46,548.97 494.73,557.76 498.01,548.08 501.28,544.74 504.56,558.05 507.83,552.96 511.10,548.27 514.38,542.55 517.65,558.84 520.93,576.53 524.20,575.48 527.47,569.13 530.75,581.11 534.02,585.93 537.30,593.88 540.57,590.76 543.85,592.28 547.12,587.34 550.39,597.79 553.67,604.03 556.94,606.72 560.22,588.26 563.49,567.89 566.76,553.59 570.04,536.68 573.31,525.31 576.59,517.16 579.86,508.98 583.14,505.17 586.41,507.04 589.68,501.99 592.96,498.84 596.23,497.62 599.51,496.31 602.78,497.80 606.05,501.24 609.33,498.46 612.60,501.16 615.88,498.86 619.15,497.21 622.42,506.07 625.70,507.81 628.97,505.00 632.25,503.34 635.52,505.25 638.80,502.46 642.07,499.36 645.34,502.68 648.62,499.15 651.89,497.75 655.17,501.33 658.44,500.09 661.71,499.27 664.99,509.52 668.26,523.34 671.54,542.17 674.81,540.21 678.08,536.75 681.36,529.76 684.63,518.63 687.91,514.41 691.18,508.25 694.46,506.07 697.73,503.97 701.00,500.53 704.28,502.46 707.55,509.92 710.83,545.86 714.10,559.29 717.37,564.65 720.65,577.84 723.92,570.70 727.20,563.06 730.47,542.55 733.75,536.56 737.02,537.91 740.29,525.66 743.57,519.28 746.84,535.33 750.12,549.63 753.39,559.95 756.66,575.49 759.94,568.38 763.21,551.38 766.49,551.22 769.76,563.62 773.03,557.24 776.31,569.30 779.58,573.24 782.86,562.19 786.13,552.24 789.41,561.52 792.68,554.54 795.95,551.71 799.23,565.31 802.50,573.58 805.78,578.31 809.05,567.64 812.32,564.41 815.60,576.28 818.87,588.29 822.15,592.67 825.42,593.93 828.69,601.32 831.97,587.32 835.24,574.14 838.52,554.59 841.79,534.37 845.07,526.78 848.34,523.38 851.61,515.84 854.89,512.18 858.16,512.66 861.44,509.46 864.71,504.76 867.98,505.20 871.26,507.92 874.53,529.84 877.81,552.40 881.08,570.22 884.36,578.02 887.63,586.41 890.90,586.14 894.18,585.10 897.45,571.45 900.73,559.66 904.00,551.15" />
<polyline fill="none" stroke="#d62728" stroke-width="2" points="82.19,554.56 85.47,558.81 88.74,561.26 92.02,558.71 95.29,555.11 98.56,549.60 101.84,542.80 105.11,537.36 108.39,531.74 111.66,526.64 114.93,522.01 118.21,519.11 121.48,518.40 124.76,518.77 128.03,517.98 131.31,516.22 134.58,517.12 137.85,521.28 141.13,528.49 144.40,534.39 147.68,536.95 150.95,537.52 154.22,535.07 157.50,531.76 160.77,530.46 164.05,528.04 167.32,527.72 170.59,525.15 173.87,523.11 177.14,533.69 180.42,541.41 183.69,549.35 186.97,554.02 190.24,558.04 193.51,559.01 196.79,554.09 200.06,547.17 203.34,543.59 206.61,538.85 209.88,533.14 213.16,527.02 216.43,521.70 219.71,517.09 222.98,517.09 226.25,518.01 229.53,518.08 232.80,523.75 236.08,532.90 239.35,546.83 242.63,557.63 245.90,560.87 249.17,560.76 252.45,559.37 255.72,562.36 259.00,565.33 262.27,570.40 265.54,576.72 268.82,581.40 272.09,587.93 275.37,591.83 278.64,589.31 281.92,581.53 285.19,569.60 288.46,556.34 291.74,544.77 295.01,534.90 298.29,526.53 301.56,520.16 304.83,516.41 308.11,514.94 311.38,516.25 314.66,517.25 317.93,519.71 321.20,531.66 324.48,547.24 327.75,560.33 331.03,573.52 334.30,581.05 337.58,581.36 340.85,576.99 344.12,568.27 347.40,556.81 350.67,546.07 353.95,538.53 357.22,534.06 360.49,536.84 363.77,545.65 367.04,551.69 370.32,550.84 373.59,548.03 376.86,547.47 380.14,543.08 383.41,537.66 386.69,533.44 389.96,535.10 393.24,539.74 396.51,545.66 399.78,556.55 403.06,563.39 406.33,564.90 409.61,562.69 412.88,557.37 416.15,548.92 419.43,540.99 422.70,535.98 425.98,536.43 429.25,537.39 432.53,544.47 435.80,554.23 439.07,565.33 442.35,571.52 445.62,573.28 448.90,573.44 452.17,571.63 455.44,574.15 458.72,577.79 461.99,580.01 465.27,578.73 468.54,577.39 471.81,573.06 475.09,572.20 478.36,569.20 481.64,560.08 484.91,553.71 488.19,550.44 491.46,549.95 494.73,552.56 498.01,551.06 501.28,548.96 504.56,551.99 507.83,552.31 511.10,550.96 514.38,548.16 517.65,551.72 520.93,559.99 524.20,565.15 527.47,566.48 530.75,571.36 534.02,576.21 537.30,582.10 540.57,584.99 543.85,587.42 547.12,587.39 550.39,590.86 553.67,595.25 556.94,599.07 560.22,595.47 563.49,586.27 566.76,575.38 570.04,562.48 573.31,550.09 576.59,539.11 579.86,529.07 583.14,521.10 586.41,516.41 589.68,511.61 592.96,507.35 596.23,504.11 599.51,501.51 602.78,500.27 606.05,500.59 609.33,499.88 612.60,500.31 615.88,499.82 619.15,498.95 622.42,501.32 625.70,503.49 628.97,503.99 632.25,503.77 635.52,504.27 638.80,503.66 642.07,502.23 645.34,502.38 648.62,501.30 651.89,500.12 655.17,500.52 658.44,500.38 661.71,500.01 664.99,503.18 668.26,509.90 671.54,520.65 674.81,527.17 678.08,530.36 681.36,530.16 684.63,526.32 687.91,522.35 691.18,517.65 694.46,513.79 697.73,510.51 701.00,507.18 704.28,505.61 707.55,507.05 710.83,519.98 714.10,533.09 717.37,543.61 720.65,555.02 723.92,560.25 727.20,561.18 730.47,554.97 733.75,548.84 737.02,545.19 740.29,538.68 743.57,532.21 746.84,533.25 750.12,538.71 753.39,545.79 756.66,555.69 759.94,559.92 763.21,557.07 766.49,555.12 769.76,557.95 773.03,557.71 776.31,561.58 779.58,565.47 782.86,564.37 786.13,560.33 789.41,560.73 792.68,558.66 795.95,556.34 799.23,559.33 802.50,564.08 805.78,568.82 809.05,568.43 812.32,567.09 815.60,570.15 818.87,576.20 822.15,581.69 825.42,585.77 828.69,590.95 831.97,589.74 835.24,584.54 838.52,574.56 841.79,561.16 845.07,549.70 848.34,540.93 851.61,532.57 854.89,525.77 858.16,521.40 861.44,517.42 864.71,513.20 867.98,510.53 871.26,509.66 874.53,516.39 877.81,528.39 881.08,542.34 884.36,554.23 887.63,564.96 890.90,572.02 894.18,576.38 897.45,574.74 900.73,569.71 904.00,563.53" />
<text x="824.00" y="502.00" font-size="13" font-family="Arial" fill="#2ca02c" text-anchor="start">K</text>
<text x="860.00" y="502.00" font-size="13" font-family="Arial" fill="#d62728" text-anchor="start">D</text>
</svg>