<svg xmlns="http://www.w3.org/2000/svg" width="960" height="680" viewBox="0 0 960 680"><rect width="100%" height="100%" fill="white" />
<text x="56.00" y="32.00" font-size="20" font-family="Arial" fill="#1f2933" text-anchor="start">SOXX Technical Indicators</text>
<line x1="56" y1="220" x2="904" y2="220" stroke="#cbd2d9" />
<line x1="56" y1="58" x2="56" y2="220" stroke="#cbd2d9" />
<text x="16.00" y="50.00" font-size="12" font-family="Arial" fill="#52606d" text-anchor="start">RSI14</text>
<line x1="56" y1="220.00" x2="904" y2="220.00" stroke="#edf2f7" />
<line x1="52" y1="220.00" x2="56" y2="220.00" stroke="#9fb3c8" />
<text x="48.00" y="224.00" font-size="11" font-family="Arial" fill="#52606d" text-anchor="end">-5.00</text>
<line x1="56" y1="166.00" x2="904" y2="166.00" stroke="#edf2f7" />
<line x1="52" y1="166.00" x2="56" y2="166.00" stroke="#9fb3c8" />
<text x="48.00" y="170.00" font-size="11" font-family="Arial" fill="#52606d" text-anchor="end">31.7</text>
<line x1="56" y1="112.00" x2="904" y2="112.00" stroke="#edf2f7" />
<line x1="52" y1="112.00" x2="56" y2="112.00" stroke="#9fb3c8" />
<text x="48.00" y="116.00" font-size="11" font-family="Arial" fill="#52606d" text-anchor="end">68.3</text>
<line x1="56" y1="58.00" x2="904" y2="58.00" stroke="#edf2f7" />
<line x1="52" y1="58.00" x2="56" y2="58.00" stroke="#9fb3c8" />
<text x="48.00" y="62.00" font-size="11" font-family="Arial" fill="#52606d" text-anchor="end">105</text>
<line x1="56" y1="168.45" x2="904" y2="168.45" stroke="#f0b429" stroke-dasharray="5 5" />
<text x="912.00" y="172.45" font-size="10" font-family="Arial" fill="#8d2b0b" text-anchor="start">30.0</text>
<line x1="56" y1="109.55" x2="904" y2="109.55" stroke="#f0b429" stroke-dasharray="5 5" />
<text x="912.00" y="113.55" font-size="10" font-family="Arial" fill="#8d2b0b" text-anchor="start">70.0</text>
<polyline fill="none" stroke="#1f77b4" stroke-width="2" points="101.84,130.13 105.11,128.63 108.39,122.90 111.66,150.28 114.93,156.75 118.21,146.49 121.48,150.46 124.76,154.51 128.03,142.72 131.31,137.39 134.58,138.63 137.85,121.72 141.13,115.72 144.40,115.32 147.68,130.98 150.95,129.58 154.22,138.64 157.50,141.66 160.77,144.58 164.05,130.50 167.32,131.83 170.59,127.45 173.87,126.54 177.14,124.25 180.42,141.42 183.69,146.21 186.97,148.36 190.24,142.54 193.51,136.34 196.79,132.69 200.06,132.26 203.34,123.83 206.61,120.85 209.88,120.07 213.16,116.37 216.43,114.20 219.71,114.37 222.98,101.98 226.25,107.40 229.53,102.82 232.80,103.85 236.08,105.24 239.35,108.25 242.63,107.38 245.90,107.22 249.17,103.87 252.45,97.30 255.72,92.24 259.00,98.54 262.27,91.41 265.54,109.69 268.82,101.04 272.09,104.24 275.37,136.05 278.64,123.13 281.92,130.46 285.19,122.97 288.46,121.88 291.74,122.98 295.01,118.83 298.29,121.25 301.56,131.20 304.83,124.53 308.11,120.37 311.38,114.05 314.66,113.78 317.93,110.07 321.20,116.52 324.48,115.60 327.75,114.07 331.03,131.60 334.30,123.19 337.58,132.66 340.85,136.08 344.12,128.93 347.40,136.39 350.67,132.16 353.95,142.41 357.22,143.21 360.49,147.77 363.77,153.34 367.04,147.97 370.32,158.39 373.59,155.24 376.86,142.93 380.14,142.09 383.41,134.91 386.69,130.42 389.96,130.26 393.24,125.30 396.51,120.32 399.78,124.07 403.06,121.58 406.33,118.95 409.61,119.76 412.88,116.36 416.15,119.10 419.43,138.09 422.70,139.65 425.98,141.16 429.25,151.93 432.53,144.01 435.80,136.05 439.07,132.27 442.35,131.22 445.62,130.06 448.90,130.19 452.17,131.20 455.44,131.80 458.72,137.36 461.99,123.12 465.27,119.14 468.54,111.12 471.81,116.32 475.09,123.83 478.36,116.40 481.64,115.24 484.91,113.04 488.19,115.23 491.46,111.10 494.73,107.40 498.01,115.64 501.28,108.06 504.56,107.72 507.83,114.00 511.10,116.57 514.38,110.41 517.65,104.47 520.93,104.08 524.20,125.04 527.47,120.13 530.75,128.36 534.02,142.84 537.30,142.42 540.57,128.03 543.85,125.14 547.12,126.48 550.39,120.49 553.67,129.23 556.94,126.94 560.22,127.53 563.49,124.58 566.76,126.96 570.04,124.01 573.31,127.21 576.59,122.75 579.86,118.07 583.14,131.46 586.41,136.16 589.68,136.41 592.96,151.96 596.23,145.10 599.51,148.17 602.78,158.22 606.05,146.01 609.33,143.89 612.60,141.03 615.88,149.97 619.15,148.90 622.42,142.84 625.70,140.47 628.97,142.20 632.25,140.31 635.52,147.27 638.80,143.00 642.07,138.55 645.34,134.46 648.62,149.23 651.89,153.19 655.17,161.89 658.44,144.66 661.71,137.41 664.99,136.65 668.26,133.41 671.54,130.79 674.81,117.46 678.08,113.61 681.36,110.16 684.63,107.42 687.91,104.41 691.18,104.17 694.46,102.58 697.73,99.03 701.00,98.39 704.28,97.27 707.55,93.65 710.83,91.04 714.10,86.37 717.37,93.39 720.65,109.97 723.92,105.87 727.20,102.17 730.47,100.86 733.75,104.42 737.02,98.13 740.29,92.61 743.57,104.41 746.84,97.80 750.12,95.36 753.39,106.89 756.66,103.90 759.94,103.48 763.21,117.27 766.49,124.33 769.76,124.01 773.03,115.95 776.31,114.59 779.58,110.82 782.86,102.80 786.13,106.56 789.41,105.24 792.68,105.50 795.95,104.75 799.23,97.22 802.50,95.24 805.78,104.08 809.05,134.74 812.32,125.53 815.60,129.04 818.87,136.38 822.15,124.15 825.42,121.99 828.69,115.14 831.97,127.80 835.24,125.87 838.52,117.71 841.79,114.89 845.07,130.66 848.34,131.18 851.61,126.00 854.89,135.70 858.16,130.28 861.44,124.94 864.71,135.56 867.98,142.95 871.26,139.47 874.53,145.81 877.81,143.29 881.08,138.59 884.36,138.67 887.63,145.31 890.90,141.51 894.18,144.59 897.45,150.28 900.73,152.18 904.00,151.42" />
<text x="808.00" y="76.00" font-size="13" font-family="Arial" fill="#1f77b4" text-anchor="start">RSI14</text>
<line x1="56" y1="432" x2="904" y2="432" stroke="#cbd2d9" />
<line x1="56" y1="272" x2="56" y2="432" stroke="#cbd2d9" />
<text x="16.00" y="264.00" font-size="12" font-family="Arial" fill="#52606d" text-anchor="start">MACD</text>
<line x1="56" y1="432.00" x2="904" y2="432.00" stroke="#edf2f7" />
<line x1="52" y1="432.00" x2="56" y2="432.00" stroke="#9fb3c8" />
<text x="48.00" y="436.00" font-size="11" font-family="Arial" fill="#52606d" text-anchor="end">-13.7</text>
<line x1="56" y1="378.67" x2="904" y2="378.67" stroke="#edf2f7" />
<line x1="52" y1="378.67" x2="56" y2="378.67" stroke="#9fb3c8" />
<text x="48.00" y="382.67" font-size="11" font-family="Arial" fill="#52606d" text-anchor="end">5.09</text>
<line x1="56" y1="325.33" x2="904" y2="325.33" stroke="#edf2f7" />
<line x1="52" y1="325.33" x2="56" y2="325.33" stroke="#9fb3c8" />
<text x="48.00" y="329.33" font-size="11" font-family="Arial" fill="#52606d" text-anchor="end">23.8</text>
<line x1="56" y1="272.00" x2="904" y2="272.00" stroke="#edf2f7" />
<line x1="52" y1="272.00" x2="56" y2="272.00" stroke="#9fb3c8" />
<text x="48.00" y="276.00" font-size="11" font-family="Arial" fill="#52606d" text-anchor="end">42.6</text>
<line x1="56" y1="393.15" x2="904" y2="393.15" stroke="#9fb3c8" stroke-dasharray="4 4" />
<rect x="136.71" y="393.15" width="2.28" height="0.00" fill="#2f9e44" opacity="0.55" />
<rect x="139.99" y="391.15" width="2.28" height="2.00" fill="#2f9e44" opacity="0.55" />
<rect x="143.26" y="389.95" width="2.28" height="3.20" fill="#2f9e44" opacity="0.55" />
<rect x="146.53" y="390.43" width="2.28" height="2.72" fill="#2f9e44" opacity="0.55" />
<rect x="149.81" y="390.76" width="2.28" height="2.40" fill="#2f9e44" opacity="0.55" />
<rect x="153.08" y="391.81" width="2.28" height="1.34" fill="#2f9e44" opacity="0.55" />
<rect x="156.36" y="392.82" width="2.28" height="0.33" fill="#2f9e44" opacity="0.55" />
<rect x="159.63" y="393.15" width="2.28" height="0.59" fill="#d64545" opacity="0.55" />
<rect x="162.90" y="393.09" width="2.28" height="0.06" fill="#2f9e44" opacity="0.55" />
<rect x="166.18" y="392.82" width="2.28" height="0.33" fill="#2f9e44" opacity="0.55" />
<rect x="169.45" y="392.26" width="2.28" height="0.89" fill="#2f9e44" opacity="0.55" />
<rect x="172.73" y="391.90" width="2.28" height="1.25" fill="#2f9e44" opacity="0.55" />
<rect x="176.00" y="391.55" width="2.28" height="1.61" fill="#2f9e44" opacity="0.55" />
<rect x="179.28" y="392.75" width="2.28" height="0.41" fill="#2f9e44" opacity="0.55" />
<rect x="182.55" y="393.15" width="2.28" height="0.85" fill="#d64545" opacity="0.55" />
<rect x="185.82" y="393.15" width="2.28" height="1.83" fill="#d64545" opacity="0.55" />
<rect x="189.10" y="393.15" width="2.28" height="1.93" fill="#d64545" opacity="0.55" />
<rect x="192.37" y="393.15" width="2.28" height="1.39" fill="#d64545" opacity="0.55" />
<rect x="195.65" y="393.15" width="2.28" height="0.67" fill="#d64545" opacity="0.55" />
<rect x="198.92" y="393.15" width="2.28" height="0.16" fill="#d64545" opacity="0.55" />
<rect x="202.19" y="392.22" width="2.28" height="0.94" fill="#2f9e44" opacity="0.55" />
<rect x="205.47" y="391.28" width="2.28" height="1.87" fill="#2f9e44" opacity="0.55" />
<rect x="208.74" y="390.73" width="2.28" height="2.42" fill="#2f9e44" opacity="0.55" />
<rect x="212.02" y="390.15" width="2.28" height="3.00" fill="#2f9e44" opacity="0.55" />
<rect x="215.29" y="389.75" width="2.28" height="3.41" fill="#2f9e44" opacity="0.55" />
<rect x="218.57" y="389.72" width="2.28" height="3.43" fill="#2f9e44" opacity="0.55" />
<rect x="221.84" y="388.30" width="2.28" height="4.85" fill="#2f9e44" opacity="0.55" />
<rect x="225.11" y="388.03" width="2.28" height="5.12" fill="#2f9e44" opacity="0.55" />
<rect x="228.39" y="387.49" width="2.28" height="5.66" fill="#2f9e44" opacity="0.55" />
<rect x="231.66" y="387.59" width="2.28" height="5.56" fill="#2f9e44" opacity="0.55" />
<rect x="234.94" y="388.12" width="2.28" height="5.03" fill="#2f9e44" opacity="0.55" />
<rect x="238.21" y="388.98" width="2.28" height="4.17" fill="#2f9e44" opacity="0.55" />
<rect x="241.48" y="389.76" width="2.28" height="3.40" fill="#2f9e44" opacity="0.55" />
<rect x="244.76" y="390.53" width="2.28" height="2.62" fill="#2f9e44" opacity="0.55" />
<rect x="248.03" y="390.89" width="2.28" height="2.26" fill="#2f9e44" opacity="0.55" />
<rect x="251.31" y="390.43" width="2.28" height="2.73" fill="#2f9e44" opacity="0.55" />
<rect x="254.58" y="389.46" width="2.28" height="3.70" fill="#2f9e44" opacity="0.55" />
<rect x="257.85" y="389.51" width="2.28" height="3.64" fill="#2f9e44" opacity="0.55" />
<rect x="261.13" y="388.37" width="2.28" height="4.78" fill="#2f9e44" opacity="0.55" />
<rect x="264.40" y="389.26" width="2.28" height="3.90" fill="#2f9e44" opacity="0.55" />
<rect x="267.68" y="388.45" width="2.28" height="4.70" fill="#2f9e44" opacity="0.55" />
<rect x="270.95" y="388.63" width="2.28" height="4.52" fill="#2f9e44" opacity="0.55" />
<rect x="274.23" y="392.48" width="2.28" height="0.68" fill="#2f9e44" opacity="0.55" />
<rect x="277.50" y="392.80" width="2.28" height="0.36" fill="#2f9e44" opacity="0.55" />
<rect x="280.77" y="393.15" width="2.28" height="1.13" fill="#d64545" opacity="0.55" />
<rect x="284.05" y="393.15" width="2.28" height="0.64" fill="#d64545" opacity="0.55" />
<rect x="287.32" y="393.15" width="2.28" height="0.26" fill="#d64545" opacity="0.55" />
<rect x="290.60" y="393.15" width="2.28" height="0.36" fill="#d64545" opacity="0.55" />
<rect x="293.87" y="392.88" width="2.28" height="0.27" fill="#2f9e44" opacity="0.55" />
<rect x="297.14" y="393.00" width="2.28" height="0.15" fill="#2f9e44" opacity="0.55" />
<rect x="300.42" y="393.15" width="2.28" height="1.43" fill="#d64545" opacity="0.55" />
<rect x="303.69" y="393.15" width="2.28" height="1.30" fill="#d64545" opacity="0.55" />
<rect x="306.97" y="393.15" width="2.28" height="0.47" fill="#d64545" opacity="0.55" />
<rect x="310.24" y="391.78" width="2.28" height="1.37" fill="#2f9e44" opacity="0.55" />
<rect x="313.51" y="390.83" width="2.28" height="2.32" fill="#2f9e44" opacity="0.55" />
<rect x="316.79" y="389.63" width="2.28" height="3.53" fill="#2f9e44" opacity="0.55" />
<rect x="320.06" y="390.02" width="2.28" height="3.13" fill="#2f9e44" opacity="0.55" />
<rect x="323.34" y="390.45" width="2.28" height="2.70" fill="#2f9e44" opacity="0.55" />
<rect x="326.61" y="390.75" width="2.28" height="2.40" fill="#2f9e44" opacity="0.55" />
<rect x="329.89" y="393.15" width="2.28" height="0.34" fill="#d64545" opacity="0.55" />
<rect x="333.16" y="393.15" width="2.28" height="0.59" fill="#d64545" opacity="0.55" />
<rect x="336.43" y="393.15" width="2.28" height="2.40" fill="#d64545" opacity="0.55" />
<rect x="339.71" y="393.15" width="2.28" height="4.19" fill="#d64545" opacity="0.55" />
<rect x="342.98" y="393.15" width="2.28" height="3.92" fill="#d64545" opacity="0.55" />
<rect x="346.26" y="393.15" width="2.28" height="4.99" fill="#d64545" opacity="0.55" />
<rect x="349.53" y="393.15" width="2.28" height="4.77" fill="#d64545" opacity="0.55" />
<rect x="352.80" y="393.15" width="2.28" height="6.43" fill="#d64545" opacity="0.55" />
<rect x="356.08" y="393.15" width="2.28" height="7.46" fill="#d64545" opacity="0.55" />
<rect x="359.35" y="393.15" width="2.28" height="8.75" fill="#d64545" opacity="0.55" />
<rect x="362.63" y="393.15" width="2.28" height="10.43" fill="#d64545" opacity="0.55" />
<rect x="365.90" y="393.15" width="2.28" height="10.20" fill="#d64545" opacity="0.55" />
<rect x="369.18" y="393.15" width="2.28" height="12.05" fill="#d64545" opacity="0.55" />
<rect x="372.45" y="393.15" width="2.28" height="12.14" fill="#d64545" opacity="0.55" />
<rect x="375.72" y="393.15" width="2.28" height="9.43" fill="#d64545" opacity="0.55" />
<rect x="379.00" y="393.15" width="2.28" height="7.09" fill="#d64545" opacity="0.55" />
<rect x="382.27" y="393.15" width="2.28" height="3.83" fill="#d64545" opacity="0.55" />
<rect x="385.55" y="393.15" width="2.28" height="0.59" fill="#d64545" opacity="0.55" />
<rect x="388.82" y="391.63" width="2.28" height="1.52" fill="#2f9e44" opacity="0.55" />
<rect x="392.09" y="389.30" width="2.28" height="3.86" fill="#2f9e44" opacity="0.55" />
<rect x="395.37" y="386.85" width="2.28" height="6.31" fill="#2f9e44" opacity="0.55" />
<rect x="398.64" y="386.20" width="2.28" height="6.95" fill="#2f9e44" opacity="0.55" />
<rect x="401.92" y="385.62" width="2.28" height="7.53" fill="#2f9e44" opacity="0.55" />
<rect x="405.19" y="385.08" width="2.28" height="8.07" fill="#2f9e44" opacity="0.55" />
<rect x="408.46" y="385.33" width="2.28" height="7.82" fill="#2f9e44" opacity="0.55" />
<rect x="411.74" y="385.22" width="2.28" height="7.93" fill="#2f9e44" opacity="0.55" />
<rect x="415.01" y="385.99" width="2.28" height="7.17" fill="#2f9e44" opacity="0.55" />
<rect x="418.29" y="389.68" width="2.28" height="3.48" fill="#2f9e44" opacity="0.55" />
<rect x="421.56" y="392.55" width="2.28" height="0.60" fill="#2f9e44" opacity="0.55" />
<rect x="424.84" y="393.15" width="2.28" height="1.61" fill="#d64545" opacity="0.55" />
<rect x="428.11" y="393.15" width="2.28" height="5.01" fill="#d64545" opacity="0.55" />
<rect x="431.38" y="393.15" width="2.28" height="5.75" fill="#d64545" opacity="0.55" />
<rect x="434.66" y="393.15" width="2.28" height="4.59" fill="#d64545" opacity="0.55" />
<rect x="437.93" y="393.15" width="2.28" height="2.97" fill="#d64545" opacity="0.55" />
<rect x="441.21" y="393.15" width="2.28" height="1.67" fill="#d64545" opacity="0.55" />
<rect x="444.48" y="393.15" width="2.28" height="0.63" fill="#d64545" opacity="0.55" />
<rect x="447.75" y="393.15" width="2.28" height="0.02" fill="#d64545" opacity="0.55" />
<rect x="451.03" y="393.00" width="2.28" height="0.16" fill="#2f9e44" opacity="0.55" />
<rect x="454.30" y="393.03" width="2.28" height="0.12" fill="#2f9e44" opacity="0.55" />
<rect x="457.58" y="393.15" width="2.28" height="0.66" fill="#d64545" opacity="0.55" />
<rect x="460.85" y="392.06" width="2.28" height="1.09" fill="#2f9e44" opacity="0.55" />
<rect x="464.12" y="390.30" width="2.28" height="2.85" fill="#2f9e44" opacity="0.55" />
<rect x="467.40" y="387.55" width="2.28" height="5.60" fill="#2f9e44" opacity="0.55" />
<rect x="470.67" y="386.84" width="2.28" height="6.31" fill="#2f9e44" opacity="0.55" />
<rect x="473.95" y="387.79" width="2.28" height="5.36" fill="#2f9e44" opacity="0.55" />
<rect x="477.22" y="387.12" width="2.28" height="6.04" fill="#2f9e44" opacity="0.55" />
<rect x="480.50" y="386.85" width="2.28" height="6.30" fill="#2f9e44" opacity="0.55" />
<rect x="483.77" y="386.63" width="2.28" height="6.52" fill="#2f9e44" opacity="0.55" />
<rect x="487.04" y="387.24" width="2.28" height="5.91" fill="#2f9e44" opacity="0.55" />
<rect x="490.32" y="387.14" width="2.28" height="6.01" fill="#2f9e44" opacity="0.55" />
<rect x="493.59" y="386.63" width="2.28" height="6.52" fill="#2f9e44" opacity="0.55" />
<rect x="496.87" y="387.78" width="2.28" height="5.37" fill="#2f9e44" opacity="0.55" />
<rect x="500.14" y="387.04" width="2.28" height="6.12" fill="#2f9e44" opacity="0.55" />
<rect x="503.41" y="387.02" width="2.28" height="6.13" fill="#2f9e44" opacity="0.55" />
<rect x="506.69" y="388.29" width="2.28" height="4.86" fill="#2f9e44" opacity="0.55" />
<rect x="509.96" y="389.89" width="2.28" height="3.26" fill="#2f9e44" opacity="0.55" />
<rect x="513.24" y="389.88" width="2.28" height="3.28" fill="#2f9e44" opacity="0.55" />
<rect x="516.51" y="388.60" width="2.28" height="4.55" fill="#2f9e44" opacity="0.55" />
<rect x="519.79" y="388.20" width="2.28" height="4.96" fill="#2f9e44" opacity="0.55" />
<rect x="523.06" y="391.18" width="2.28" height="1.97" fill="#2f9e44" opacity="0.55" />
<rect x="526.33" y="392.29" width="2.28" height="0.87" fill="#2f9e44" opacity="0.55" />
<rect x="529.61" y="393.15" width="2.28" height="1.45" fill="#d64545" opacity="0.55" />
<rect x="532.88" y="393.15" width="2.28" height="5.88" fill="#d64545" opacity="0.55" />
<rect x="536.16" y="393.15" width="2.28" height="8.55" fill="#d64545" opacity="0.55" />
<rect x="539.43" y="393.15" width="2.28" height="6.82" fill="#d64545" opacity="0.55" />
<rect x="542.70" y="393.15" width="2.28" height="4.86" fill="#d64545" opacity="0.55" />
<rect x="545.98" y="393.15" width="2.28" height="3.84" fill="#d64545" opacity="0.55" />
<rect x="549.25" y="393.15" width="2.28" height="1.64" fill="#d64545" opacity="0.55" />
<rect x="552.53" y="393.15" width="2.28" height="1.97" fill="#d64545" opacity="0.55" />
<rect x="555.80" y="393.15" width="2.28" height="1.71" fill="#d64545" opacity="0.55" />
<rect x="559.07" y="393.15" width="2.28" height="1.78" fill="#d64545" opacity="0.55" />
<rect x="562.35" y="393.15" width="2.28" height="1.24" fill="#d64545" opacity="0.55" />
<rect x="565.62" y="393.15" width="2.28" height="1.42" fill="#d64545" opacity="0.55" />
<rect x="568.90" y="393.15" width="2.28" height="1.00" fill="#d64545" opacity="0.55" />
<rect x="572.17" y="393.15" width="2.28" height="1.37" fill="#d64545" opacity="0.55" />
<rect x="575.45" y="393.15" width="2.28" height="0.77" fill="#d64545" opacity="0.55" />
<rect x="578.72" y="392.62" width="2.28" height="0.53" fill="#2f9e44" opacity="0.55" />
<rect x="581.99" y="393.15" width="2.28" height="0.91" fill="#d64545" opacity="0.55" />
<rect x="585.27" y="393.15" width="2.28" height="2.77" fill="#d64545" opacity="0.55" />
<rect x="588.54" y="393.15" width="2.28" height="4.03" fill="#d64545" opacity="0.55" />
<rect x="591.82" y="393.15" width="2.28" height="7.91" fill="#d64545" opacity="0.55" />
<rect x="595.09" y="393.15" width="2.28" height="8.86" fill="#d64545" opacity="0.55" />
<rect x="598.36" y="393.15" width="2.28" height="9.82" fill="#d64545" opacity="0.55" />
<rect x="601.64" y="393.15" width="2.28" height="12.61" fill="#d64545" opacity="0.55" />
<rect x="604.91" y="393.15" width="2.28" height="11.45" fill="#d64545" opacity="0.55" />
<rect x="608.19" y="393.15" width="2.28" height="9.74" fill="#d64545" opacity="0.55" />
<rect x="611.46" y="393.15" width="2.28" height="7.61" fill="#d64545" opacity="0.55" />
<rect x="614.73" y="393.15" width="2.28" height="8.05" fill="#d64545" opacity="0.55" />
<rect x="618.01" y="393.15" width="2.28" height="7.71" fill="#d64545" opacity="0.55" />
<rect x="621.28" y="393.15" width="2.28" height="5.89" fill="#d64545" opacity="0.55" />
<rect x="624.56" y="393.15" width="2.28" height="3.94" fill="#d64545" opacity="0.55" />
<rect x="627.83" y="393.15" width="2.28" height="2.83" fill="#d64545" opacity="0.55" />
<rect x="631.11" y="393.15" width="2.28" height="1.60" fill="#d64545" opacity="0.55" />
<rect x="634.38" y="393.15" width="2.28" height="2.09" fill="#d64545" opacity="0.55" />
<rect x="637.65" y="393.15" width="2.28" height="1.50" fill="#d64545" opacity="0.55" />
<rect x="640.93" y="393.15" width="2.28" height="0.19" fill="#d64545" opacity="0.55" />
<rect x="644.20" y="391.70" width="2.28" height="1.46" fill="#2f9e44" opacity="0.55" />
<rect x="647.48" y="393.15" width="2.28" height="0.51" fill="#d64545" opacity="0.55" />
<rect x="650.75" y="393.15" width="2.28" height="2.64" fill="#d64545" opacity="0.55" />
<rect x="654.02" y="393.15" width="2.28" height="6.26" fill="#d64545" opacity="0.55" />
<rect x="657.30" y="393.15" width="2.28" height="4.70" fill="#d64545" opacity="0.55" />
<rect x="660.57" y="393.15" width="2.28" height="1.60" fill="#d64545" opacity="0.55" />
<rect x="663.85" y="392.45" width="2.28" height="0.70" fill="#2f9e44" opacity="0.55" />
<rect x="667.12" y="390.14" width="2.28" height="3.01" fill="#2f9e44" opacity="0.55" />
<rect x="670.40" y="388.11" width="2.28" height="5.04" fill="#2f9e44" opacity="0.55" />
<rect x="673.67" y="382.92" width="2.28" height="10.23" fill="#2f9e44" opacity="0.55" />
<rect x="676.94" y="378.67" width="2.28" height="14.48" fill="#2f9e44" opacity="0.55" />
<rect x="680.22" y="375.31" width="2.28" height="17.84" fill="#2f9e44" opacity="0.55" />
<rect x="683.49" y="372.94" width="2.28" height="20.21" fill="#2f9e44" opacity="0.55" />
<rect x="686.77" y="371.16" width="2.28" height="21.99" fill="#2f9e44" opacity="0.55" />
<rect x="690.04" y="371.21" width="2.28" height="21.94" fill="#2f9e44" opacity="0.55" />
<rect x="693.31" y="371.83" width="2.28" height="21.33" fill="#2f9e44" opacity="0.55" />
<rect x="696.59" y="371.78" width="2.28" height="21.37" fill="#2f9e44" opacity="0.55" />
<rect x="699.86" y="372.82" width="2.28" height="20.34" fill="#2f9e44" opacity="0.55" />
<rect x="703.14" y="374.28" width="2.28" height="18.87" fill="#2f9e44" opacity="0.55" />
<rect x="706.41" y="374.54" width="2.28" height="18.62" fill="#2f9e44" opacity="0.55" />
<rect x="709.68" y="374.41" width="2.28" height="18.75" fill="#2f9e44" opacity="0.55" />
<rect x="712.96" y="372.01" width="2.28" height="21.14" fill="#2f9e44" opacity="0.55" />
<rect x="716.23" y="373.24" width="2.28" height="19.91" fill="#2f9e44" opacity="0.55" />
<rect x="719.51" y="378.63" width="2.28" height="14.52" fill="#2f9e44" opacity="0.55" />
<rect x="722.78" y="381.30" width="2.28" height="11.86" fill="#2f9e44" opacity="0.55" />
<rect x="726.06" y="382.11" width="2.28" height="11.04" fill="#2f9e44" opacity="0.55" />
<rect x="729.33" y="383.05" width="2.28" height="10.11" fill="#2f9e44" opacity="0.55" />
<rect x="732.60" y="385.48" width="2.28" height="7.67" fill="#2f9e44" opacity="0.55" />
<rect x="735.88" y="384.32" width="2.28" height="8.83" fill="#2f9e44" opacity="0.55" />
<rect x="739.15" y="380.37" width="2.28" height="12.78" fill="#2f9e44" opacity="0.55" />
<rect x="742.43" y="381.91" width="2.28" height="11.24" fill="#2f9e44" opacity="0.55" />
<rect x="745.70" y="379.14" width="2.28" height="14.02" fill="#2f9e44" opacity="0.55" />
<rect x="748.97" y="376.65" width="2.28" height="16.51" fill="#2f9e44" opacity="0.55" />
<rect x="752.25" y="379.81" width="2.28" height="13.35" fill="#2f9e44" opacity="0.55" />
<rect x="755.52" y="381.10" width="2.28" height="12.06" fill="#2f9e44" opacity="0.55" />
<rect x="758.80" y="383.09" width="2.28" height="10.06" fill="#2f9e44" opacity="0.55" />
<rect x="762.07" y="389.66" width="2.28" height="3.49" fill="#2f9e44" opacity="0.55" />
<rect x="765.34" y="393.15" width="2.28" height="4.01" fill="#d64545" opacity="0.55" />
<rect x="768.62" y="393.15" width="2.28" height="9.23" fill="#d64545" opacity="0.55" />
<rect x="771.89" y="393.15" width="2.28" height="8.62" fill="#d64545" opacity="0.55" />
<rect x="775.17" y="393.15" width="2.28" height="7.83" fill="#d64545" opacity="0.55" />
<rect x="778.44" y="393.15" width="2.28" height="5.47" fill="#d64545" opacity="0.55" />
<rect x="781.72" y="391.73" width="2.28" height="1.42" fill="#2f9e44" opacity="0.55" />
<rect x="784.99" y="389.42" width="2.28" height="3.73" fill="#2f9e44" opacity="0.55" />
<rect x="788.26" y="388.00" width="2.28" height="5.15" fill="#2f9e44" opacity="0.55" />
<rect x="791.54" y="388.30" width="2.28" height="4.86" fill="#2f9e44" opacity="0.55" />
<rect x="794.81" y="389.07" width="2.28" height="4.08" fill="#2f9e44" opacity="0.55" />
<rect x="798.09" y="384.63" width="2.28" height="8.52" fill="#2f9e44" opacity="0.55" />
<rect x="801.36" y="381.25" width="2.28" height="11.91" fill="#2f9e44" opacity="0.55" />
<rect x="804.63" y="383.01" width="2.28" height="10.14" fill="#2f9e44" opacity="0.55" />
<rect x="807.91" y="393.15" width="2.28" height="3.85" fill="#d64545" opacity="0.55" />
<rect x="811.18" y="393.15" width="2.28" height="7.60" fill="#d64545" opacity="0.55" />
<rect x="814.46" y="393.15" width="2.28" height="12.15" fill="#d64545" opacity="0.55" />
<rect x="817.73" y="393.15" width="2.28" height="18.98" fill="#d64545" opacity="0.55" />
<rect x="821.01" y="393.15" width="2.28" height="14.87" fill="#d64545" opacity="0.55" />
<rect x="824.28" y="393.15" width="2.28" height="10.62" fill="#d64545" opacity="0.55" />
<rect x="827.55" y="393.15" width="2.28" height="2.28" fill="#d64545" opacity="0.55" />
<rect x="830.83" y="393.15" width="2.28" height="4.47" fill="#d64545" opacity="0.55" />
<rect x="834.10" y="393.15" width="2.28" height="4.82" fill="#d64545" opacity="0.55" />
<rect x="837.38" y="391.49" width="2.28" height="1.67" fill="#2f9e44" opacity="0.55" />
<rect x="840.65" y="385.44" width="2.28" height="7.72" fill="#2f9e44" opacity="0.55" />
<rect x="843.92" y="392.20" width="2.28" height="0.96" fill="#2f9e44" opacity="0.55" />
<rect x="847.20" y="393.15" width="2.28" height="4.45" fill="#d64545" opacity="0.55" />
<rect x="850.47" y="393.15" width="2.28" height="4.07" fill="#d64545" opacity="0.55" />
<rect x="853.75" y="393.15" width="2.28" height="10.77" fill="#d64545" opacity="0.55" />
<rect x="857.02" y="393.15" width="2.28" height="10.71" fill="#d64545" opacity="0.55" />
<rect x="860.29" y="393.15" width="2.28" height="6.02" fill="#d64545" opacity="0.55" />
<rect x="863.57" y="393.15" width="2.28" height="10.92" fill="#d64545" opacity="0.55" />
<rect x="866.84" y="393.15" width="2.28" height="20.14" fill="#d64545" opacity="0.55" />
<rect x="870.12" y="393.15" width="2.28" height="22.74" fill="#d64545" opacity="0.55" />
<rect x="873.39" y="393.15" width="2.28" height="29.15" fill="#d64545" opacity="0.55" />
<rect x="876.67" y="393.15" width="2.28" height="30.28" fill="#d64545" opacity="0.55" />
<rect x="879.94" y="393.15" width="2.28" height="26.26" fill="#d64545" opacity="0.55" />
<rect x="883.21" y="393.15" width="2.28" height="22.80" fill="#d64545" opacity="0.55" />
<rect x="886.49" y="393.15" width="2.28" height="24.80" fill="#d64545" opacity="0.55" />
<rect x="889.76" y="393.15" width="2.28" height="22.42" fill="#d64545" opacity="0.55" />
<rect x="893.04" y="393.15" width="2.28" height="22.27" fill="#d64545" opacity="0.55" />
<rect x="896.31" y="393.15" width="2.28" height="25.67" fill="#d64545" opacity="0.55" />
<rect x="899.58" y="393.15" width="2.28" height="28.14" fill="#d64545" opacity="0.55" />
<rect x="902.86" y="393.15" width="2.28" height="27.83" fill="#d64545" opacity="0.55" />
<polyline fill="none" stroke="#1f77b4" stroke-width="2" points="137.85,393.57 141.13,391.07 144.40,389.08 147.68,388.87 150.95,388.60 154.22,389.32 157.50,390.24 160.77,391.31 164.05,390.65 167.32,390.29 170.59,389.51 173.87,388.84 177.14,388.08 180.42,389.18 183.69,390.65 186.97,392.09 190.24,392.67 193.51,392.47 196.79,391.92 200.06,391.46 203.34,390.12 206.61,388.72 209.88,387.56 213.16,386.24 216.43,384.98 219.71,384.09 222.98,381.46 226.25,379.92 229.53,377.96 232.80,376.67 236.08,375.94 239.35,375.76 242.63,375.69 245.90,375.80 249.17,375.59 252.45,374.45 255.72,372.56 259.00,371.70 262.27,369.37 265.54,369.28 268.82,367.30 272.09,366.34 275.37,370.02 278.64,370.25 281.92,372.02 285.19,371.69 288.46,371.38 291.74,371.56 295.01,370.87 298.29,370.95 301.56,372.89 304.83,373.08 308.11,372.37 311.38,370.19 314.66,368.65 317.93,366.57 321.20,366.18 324.48,365.93 327.75,365.63 331.03,368.45 334.30,368.86 337.58,371.26 340.85,374.10 344.12,374.81 347.40,377.13 350.67,378.11 353.95,381.37 357.22,384.26 360.49,387.75 363.77,392.03 367.04,394.35 370.32,399.22 373.59,402.34 376.86,401.99 380.14,401.42 383.41,399.11 386.69,396.02 389.96,393.53 393.24,390.23 396.51,386.21 399.78,383.83 403.06,381.36 406.33,378.81 409.61,377.10 412.88,375.01 416.15,373.98 419.43,376.80 422.70,379.53 425.98,382.13 429.25,386.79 432.53,388.96 435.80,388.95 439.07,388.08 442.35,387.20 445.62,386.31 448.90,385.71 452.17,385.49 455.44,385.50 458.72,386.45 461.99,384.42 465.27,381.94 468.54,377.80 471.81,375.51 475.09,375.12 478.36,372.93 481.64,371.10 484.91,369.24 488.19,368.38 491.46,366.77 494.73,364.63 498.01,364.44 501.28,362.16 504.56,360.62 507.83,360.67 511.10,361.46 514.38,360.62 517.65,358.21 520.93,356.57 524.20,359.06 527.47,359.95 530.75,362.62 534.02,368.53 537.30,373.33 540.57,373.31 543.85,372.56 547.12,372.50 550.39,370.71 553.67,371.53 556.94,371.71 560.22,372.22 563.49,371.99 566.76,372.52 570.04,372.36 573.31,373.06 576.59,372.66 579.86,371.22 583.14,372.89 586.41,375.45 589.68,377.71 592.96,383.57 596.23,386.74 599.51,390.15 602.78,396.09 606.05,397.80 609.33,398.52 612.60,398.29 615.88,400.75 619.15,402.33 622.42,401.99 625.70,401.02 628.97,400.62 632.25,399.79 635.52,400.81 638.80,400.59 642.07,399.33 645.34,397.32 648.62,399.41 651.89,402.20 655.17,407.38 658.44,407.00 661.71,404.31 664.99,401.82 668.26,398.76 671.54,395.47 674.81,387.72 678.08,379.85 681.36,372.03 684.63,364.61 687.91,357.33 691.18,351.90 694.46,347.18 697.73,341.79 701.00,337.74 704.28,334.49 707.55,330.09 710.83,325.27 714.10,317.60 717.37,313.85 720.65,315.61 723.92,315.31 727.20,313.36 730.47,311.77 733.75,312.29 737.02,308.92 740.29,301.77 743.57,300.50 746.84,294.22 750.12,287.61 753.39,287.43 756.66,285.71 759.94,285.18 763.21,290.89 766.49,299.39 769.76,306.92 773.03,308.46 776.31,309.63 779.58,308.64 782.86,301.39 786.13,298.14 789.41,295.44 792.68,294.52 795.95,294.28 799.23,287.71 802.50,281.34 805.78,280.57 809.05,295.53 812.32,301.18 815.60,308.76 818.87,320.34 822.15,319.95 825.42,318.35 828.69,310.58 831.97,313.88 835.24,315.45 838.52,308.54 841.79,300.56 845.07,307.08 848.34,313.60 851.61,314.24 854.89,323.64 858.16,326.25 861.44,323.07 864.71,330.70 867.98,344.96 871.26,353.23 874.53,366.94 877.81,375.63 881.08,378.17 884.36,380.42 887.63,388.62 890.90,391.85 894.18,397.26 897.45,407.08 900.73,416.58 904.00,423.23" />
<polyline fill="none" stroke="#ff7f0e" stroke-width="2" points="137.85,393.57 141.13,393.07 144.40,392.27 147.68,391.59 150.95,390.99 154.22,390.66 157.50,390.58 160.77,390.72 164.05,390.71 167.32,390.63 170.59,390.40 173.87,390.09 177.14,389.69 180.42,389.59 183.69,389.80 186.97,390.26 190.24,390.74 193.51,391.09 196.79,391.25 200.06,391.29 203.34,391.06 206.61,390.59 209.88,389.99 213.16,389.24 216.43,388.38 219.71,387.53 222.98,386.31 226.25,385.03 229.53,383.62 232.80,382.23 236.08,380.97 239.35,379.93 242.63,379.08 245.90,378.42 249.17,377.86 252.45,377.18 255.72,376.25 259.00,375.34 262.27,374.15 265.54,373.17 268.82,372.00 272.09,370.87 275.37,370.70 278.64,370.61 281.92,370.89 285.19,371.05 288.46,371.12 291.74,371.21 295.01,371.14 298.29,371.10 301.56,371.46 304.83,371.78 308.11,371.90 311.38,371.56 314.66,370.98 317.93,370.09 321.20,369.31 324.48,368.64 327.75,368.04 331.03,368.12 334.30,368.27 337.58,368.87 340.85,369.91 344.12,370.89 347.40,372.14 350.67,373.33 353.95,374.94 357.22,376.81 360.49,379.00 363.77,381.60 367.04,384.15 370.32,387.17 373.59,390.20 376.86,392.56 380.14,394.33 383.41,395.29 386.69,395.43 389.96,395.05 393.24,394.09 396.51,392.51 399.78,390.78 403.06,388.89 406.33,386.88 409.61,384.92 412.88,382.94 416.15,381.15 419.43,380.28 422.70,380.13 425.98,380.53 429.25,381.78 432.53,383.22 435.80,384.36 439.07,385.11 442.35,385.53 445.62,385.68 448.90,385.69 452.17,385.65 455.44,385.62 458.72,385.78 461.99,385.51 465.27,384.80 468.54,383.40 471.81,381.82 475.09,380.48 478.36,378.97 481.64,377.40 484.91,375.76 488.19,374.29 491.46,372.78 494.73,371.15 498.01,369.81 501.28,368.28 504.56,366.75 507.83,365.53 511.10,364.72 514.38,363.90 517.65,362.76 520.93,361.52 524.20,361.03 527.47,360.81 530.75,361.17 534.02,362.65 537.30,364.78 540.57,366.49 543.85,367.70 547.12,368.66 550.39,369.07 553.67,369.56 556.94,369.99 560.22,370.44 563.49,370.75 566.76,371.10 570.04,371.35 573.31,371.69 576.59,371.89 579.86,371.75 583.14,371.98 586.41,372.67 589.68,373.68 592.96,375.66 596.23,377.87 599.51,380.33 602.78,383.48 606.05,386.34 609.33,388.78 612.60,390.68 615.88,392.70 619.15,394.62 622.42,396.10 625.70,397.08 628.97,397.79 632.25,398.19 635.52,398.71 638.80,399.09 642.07,399.14 645.34,398.77 648.62,398.90 651.89,399.56 655.17,401.12 658.44,402.30 661.71,402.70 664.99,402.53 668.26,401.77 671.54,400.51 674.81,397.95 678.08,394.33 681.36,389.87 684.63,384.82 687.91,379.32 691.18,373.84 694.46,368.51 697.73,363.16 701.00,358.08 704.28,353.36 707.55,348.71 710.83,344.02 714.10,338.74 717.37,333.76 720.65,330.13 723.92,327.16 727.20,324.40 730.47,321.88 733.75,319.96 737.02,317.75 740.29,314.56 743.57,311.74 746.84,308.24 750.12,304.11 753.39,300.78 756.66,297.76 759.94,295.25 763.21,294.37 766.49,295.38 769.76,297.69 773.03,299.84 776.31,301.80 779.58,303.17 782.86,302.81 786.13,301.88 789.41,300.59 792.68,299.37 795.95,298.35 799.23,296.23 802.50,293.25 805.78,290.71 809.05,291.68 812.32,293.58 815.60,296.61 818.87,301.36 822.15,305.08 825.42,307.73 828.69,308.30 831.97,309.42 835.24,310.62 838.52,310.21 841.79,308.28 845.07,308.04 848.34,309.15 851.61,310.17 854.89,312.86 858.16,315.54 861.44,317.05 864.71,319.78 867.98,324.81 871.26,330.50 874.53,337.79 877.81,345.35 881.08,351.92 884.36,357.62 887.63,363.82 890.90,369.42 894.18,374.99 897.45,381.41 900.73,388.44 904.00,395.40" />
<text x="754.00" y="290.00" font-size="13" font-family="Arial" fill="#1f77b4" text-anchor="start">MACD</text>
<text x="818.00" y="290.00" font-size="13" font-family="Arial" fill="#ff7f0e" text-anchor="start">Signal</text>
<line x1="56" y1="624" x2="904" y2="624" stroke="#cbd2d9" />
<line x1="56" y1="484" x2="56" y2="624" stroke="#cbd2d9" />
<text x="16.00" y="476.00" font-size="12" font-family="Arial" fill="#52606d" text-anchor="start">KD</text>
<line x1="56" y1="624.00" x2="904" y2="624.00" stroke="#edf2f7" />
<line x1="52" y1="624.00" x2="56" y2="624.00" stroke="#9fb3c8" />
<text x="48.00" y="628.00" font-size="11" font-family="Arial" fill="#52606d" text-anchor="end">-5.00</text>
<line x1="56" y1="577.33" x2="904" y2="577.33" stroke="#edf2f7" />
<line x1="52" y1="577.33" x2="56" y2="577.33" stroke="#9fb3c8" />
<text x="48.00" y="581.33" font-size="11" font-family="Arial" fill="#52606d" text-anchor="end">31.7</text>
<line x1="56" y1="530.67" x2="904" y2="530.67" stroke="#edf2f7" />
<line x1="52" y1="530.67" x2="56" y2="530.67" stroke="#9fb3c8" />
<text x="48.00" y="534.67" font-size="11" font-family="Arial" fill="#52606d" text-anchor="end">68.3</text>
<line x1="56" y1="484.00" x2="904" y2="484.00" stroke="#edf2f7" />
<line x1="52" y1="484.00" x2="56" y2="484.00" stroke="#9fb3c8" />
<text x="48.00" y="488.00" font-size="11" font-family="Arial" fill="#52606d" text-anchor="end">105</text>
<line x1="56.00" y1="624" x2="56.00" y2="628" stroke="#9fb3c8" />
<text x="56.00" y="642.00" font-size="11" font-family="Arial" fill="#52606d" text-anchor="middle">07/08</text>
<line x1="226.25" y1="624" x2="226.25" y2="628" stroke="#9fb3c8" />
<text x="226.25" y="642.00" font-size="11" font-family="Arial" fill="#52606d" text-anchor="middle">09/19</text>
<line x1="396.51" y1="624" x2="396.51" y2="628" stroke="#9fb3c8" />
<text x="396.51" y="642.00" font-size="11" font-family="Arial" fill="#52606d" text-anchor="middle">12/03</text>
<line x1="563.49" y1="624" x2="563.49" y2="628" stroke="#9fb3c8" />
<text x="563.49" y="642.00" font-size="11" font-family="Arial" fill="#52606d" text-anchor="middle">02/18</text>
<line x1="733.75" y1="624" x2="733.75" y2="628" stroke="#9fb3c8" />
<text x="733.75" y="642.00" font-size="11" font-family="Arial" fill="#52606d" text-anchor="middle">05/04</text>
<line x1="904.00" y1="624" x2="904.00" y2="628" stroke="#9fb3c8" />
<text x="904.00" y="642.00" font-size="11" font-family="Arial" fill="#52606d" text-anchor="middle">07/20</text>
<line x1="56" y1="592.18" x2="904" y2="592.18" stroke="#f0b429" stroke-dasharray="5 5" />
<text x="912.00" y="596.18" font-size="10" font-family="Arial" fill="#8d2b0b" text-anchor="start">20.0</text>
<line x1="56" y1="515.82" x2="904" y2="515.82" stroke="#f0b429" stroke-dasharray="5 5" />
<text x="912.00" y="519.82" font-size="10" font-family="Arial" fill="#8d2b0b" text-anchor="start">80.0</text>
<polyline fill="none" stroke="#2ca02c" stroke-width="2" points="82.19,550.07 85.47,547.14 88.74,558.30 92.02,570.93 95.29,581.25 98.56,588.20 101.84,576.86 105.11,567.64 108.39,554.81 111.66,571.50 114.93,577.49 118.21,573.72 121.48,575.31 124.76,580.79 128.03,574.84 131.31,565.89 134.58,561.01 137.85,540.71 141.13,526.66 144.40,518.72 147.68,524.93 150.95,527.62 154.22,544.19 157.50,555.66 160.77,566.55 164.05,557.99 167.32,553.65 170.59,545.25 173.87,532.82 177.14,525.92 180.42,539.05 183.69,553.91 186.97,568.83 190.24,572.28 193.51,567.06 196.79,558.88 200.06,552.88 203.34,537.41 206.61,527.52 209.88,519.89 213.16,512.80 216.43,507.68 219.71,509.24 222.98,507.03 226.25,508.88 229.53,506.14 232.80,508.69 236.08,511.35 239.35,515.38 242.63,516.82 245.90,518.76 249.17,518.44 252.45,512.11 255.72,508.07 259.00,511.76 262.27,511.38 265.54,520.01 268.82,512.84 272.09,510.60 275.37,540.21 278.64,538.62 281.92,551.14 285.19,542.17 288.46,533.50 291.74,528.97 295.01,521.10 298.29,518.81 301.56,530.23 304.83,528.20 308.11,521.92 311.38,514.13 314.66,509.75 317.93,508.21 321.20,512.34 324.48,513.69 327.75,512.34 331.03,529.03 334.30,535.94 337.58,559.79 340.85,564.49 344.12,556.58 347.40,560.65 350.67,556.57 353.95,569.32 357.22,573.49 360.49,583.32 363.77,591.84 367.04,590.58 370.32,599.12 373.59,595.31 376.86,580.60 380.14,567.03 383.41,545.80 386.69,528.49 389.96,519.33 393.24,512.32 396.51,505.87 399.78,504.21 403.06,504.06 406.33,501.67 409.61,502.07 412.88,501.20 416.15,503.80 419.43,540.09 422.70,565.90 425.98,578.25 429.25,590.75 432.53,590.32 435.80,580.02 439.07,567.97 442.35,556.30 445.62,543.36 448.90,529.06 452.17,520.85 455.44,516.11 458.72,524.59 461.99,518.08 465.27,518.55 468.54,510.91 471.81,511.04 475.09,519.15 478.36,512.78 481.64,507.26 484.91,505.81 488.19,508.10 491.46,513.79 494.73,510.82 498.01,516.33 501.28,512.01 504.56,512.79 507.83,520.29 511.10,528.74 514.38,521.98 517.65,514.65 520.93,511.22 524.20,531.51 527.47,538.55 530.75,553.07 534.02,567.58 537.30,576.78 540.57,564.40 543.85,551.69 547.12,544.62 550.39,529.23 553.67,530.66 556.94,528.43 560.22,527.51 563.49,523.19 566.76,526.52 570.04,526.98 573.31,533.70 576.59,527.15 579.86,517.09 583.14,530.59 586.41,547.71 589.68,557.16 592.96,573.37 596.23,576.63 599.51,582.73 602.78,592.87 606.05,585.17 609.33,577.24 612.60,562.09 615.88,564.62 619.15,560.98 622.42,549.15 625.70,537.47 628.97,532.51 632.25,526.44 635.52,544.22 638.80,546.68 642.07,537.42 645.34,526.99 648.62,553.29 651.89,572.80 655.17,585.24 658.44,573.74 661.71,555.71 664.99,542.57 668.26,529.10 671.54,516.54 674.81,508.43 678.08,502.71 681.36,500.23 684.63,497.17 687.91,495.12 691.18,493.76 694.46,493.69 697.73,492.70 701.00,493.05 704.28,494.48 707.55,493.62 710.83,496.52 714.10,495.94 717.37,499.23 720.65,512.61 723.92,516.21 727.20,509.75 730.47,504.46 733.75,506.80 737.02,504.19 740.29,499.76 743.57,504.98 746.84,500.30 750.12,497.56 753.39,504.21 756.66,502.67 759.94,500.78 763.21,514.32 766.49,540.86 769.76,552.34 773.03,542.08 776.31,531.90 779.58,521.25 782.86,512.35 786.13,513.30 789.41,511.75 792.68,510.87 795.95,509.14 799.23,503.19 802.50,500.32 805.78,504.85 809.05,542.48 812.32,550.61 815.60,555.55 818.87,567.89 822.15,556.19 825.42,544.29 828.69,526.82 831.97,529.85 835.24,528.53 838.52,517.54 841.79,508.78 845.07,521.77 848.34,534.14 851.61,536.40 854.89,561.47 858.16,558.69 861.44,543.55 864.71,554.12 867.98,570.50 871.26,573.68 874.53,582.26 877.81,583.95 881.08,577.41 884.36,573.19 887.63,581.19 890.90,577.79 894.18,579.79 897.45,589.44 900.73,588.60 904.00,587.02" />
<polyline fill="none" stroke="#d62728" stroke-width="2" points="82.19,552.69 85.47,550.84 88.74,553.33 92.02,559.20 95.29,566.55 98.56,573.76 101.84,574.80 105.11,572.41 108.39,566.54 111.66,568.19 114.93,571.29 118.21,572.10 121.48,573.17 124.76,575.71 128.03,575.42 131.31,572.24 134.58,568.50 137.85,559.24 141.13,548.38 144.40,538.49 147.68,533.97 150.95,531.85 154.22,535.97 157.50,542.53 160.77,550.54 164.05,553.02 167.32,553.23 170.59,550.57 173.87,544.65 177.14,538.41 180.42,538.62 183.69,543.72 186.97,552.09 190.24,558.82 193.51,561.57 196.79,560.67 200.06,558.07 203.34,551.18 206.61,543.30 209.88,535.49 213.16,527.93 216.43,521.18 219.71,517.20 222.98,513.81 226.25,512.17 229.53,510.16 232.80,509.67 236.08,510.23 239.35,511.95 242.63,513.57 245.90,515.30 249.17,516.35 252.45,514.94 255.72,512.65 259.00,512.35 262.27,512.03 265.54,514.69 268.82,514.07 272.09,512.91 275.37,522.01 278.64,527.55 281.92,535.41 285.19,537.67 288.46,536.28 291.74,533.84 295.01,529.59 298.29,526.00 301.56,527.41 304.83,527.67 308.11,525.76 311.38,521.88 314.66,517.84 317.93,514.63 321.20,513.86 324.48,513.81 327.75,513.32 331.03,518.55 334.30,524.35 337.58,536.16 340.85,545.61 344.12,549.26 347.40,553.06 350.67,554.23 353.95,559.26 357.22,564.00 360.49,570.44 363.77,577.57 367.04,581.91 370.32,587.65 373.59,590.20 376.86,587.00 380.14,580.34 383.41,568.83 386.69,555.38 389.96,543.37 393.24,533.02 396.51,523.97 399.78,517.38 403.06,512.94 406.33,509.19 409.61,506.81 412.88,504.94 416.15,504.56 419.43,516.40 422.70,532.90 425.98,548.02 429.25,562.26 432.53,571.61 435.80,574.42 439.07,572.27 442.35,566.95 445.62,559.09 448.90,549.08 452.17,539.67 455.44,531.82 458.72,529.41 461.99,525.63 465.27,523.27 468.54,519.15 471.81,516.45 475.09,517.35 478.36,515.83 481.64,512.97 484.91,510.59 488.19,509.76 491.46,511.10 494.73,511.01 498.01,512.78 501.28,512.52 504.56,512.61 507.83,515.17 511.10,519.69 514.38,520.46 517.65,518.52 520.93,516.09 524.20,521.23 527.47,527.00 530.75,535.69 534.02,546.32 537.30,556.48 540.57,559.12 543.85,556.64 547.12,552.63 550.39,544.83 553.67,540.11 556.94,536.22 560.22,533.32 563.49,529.94 566.76,528.80 570.04,528.19 573.31,530.03 576.59,529.07 579.86,525.08 583.14,526.91 586.41,533.85 589.68,541.62 592.96,552.20 596.23,560.35 599.51,567.81 602.78,576.16 606.05,579.17 609.33,578.52 612.60,573.05 615.88,570.24 619.15,567.15 622.42,561.15 625.70,553.26 628.97,546.34 632.25,539.71 635.52,541.21 638.80,543.04 642.07,541.16 645.34,536.44 648.62,542.06 651.89,552.30 655.17,563.28 658.44,566.77 661.71,563.08 664.99,556.25 668.26,547.20 671.54,536.98 674.81,527.46 678.08,519.21 681.36,512.88 684.63,507.65 687.91,503.47 691.18,500.23 694.46,498.05 697.73,496.27 701.00,495.20 704.28,494.96 707.55,494.51 710.83,495.18 714.10,495.43 717.37,496.70 720.65,502.00 723.92,506.74 727.20,507.74 730.47,506.65 733.75,506.70 737.02,505.86 740.29,503.83 743.57,504.21 746.84,502.91 750.12,501.13 753.39,502.15 756.66,502.33 759.94,501.81 763.21,505.98 766.49,517.61 769.76,529.18 773.03,533.48 776.31,532.96 779.58,529.05 782.86,523.49 786.13,520.09 789.41,517.31 792.68,515.16 795.95,513.16 799.23,509.83 802.50,506.66 805.78,506.06 809.05,518.20 812.32,529.00 815.60,537.85 818.87,547.87 822.15,550.64 825.42,548.52 828.69,541.29 831.97,537.48 835.24,534.49 838.52,528.84 841.79,522.15 845.07,522.02 848.34,526.06 851.61,529.51 854.89,540.16 858.16,546.34 861.44,545.41 864.71,548.31 867.98,555.71 871.26,561.70 874.53,568.55 877.81,573.68 881.08,574.93 884.36,574.35 887.63,576.63 890.90,577.01 894.18,577.94 897.45,581.77 900.73,584.05 904.00,585.04" />
<text x="824.00" y="502.00" font-size="13" font-family="Arial" fill="#2ca02c" text-anchor="start">K</text>
<text x="860.00" y="502.00" font-size="13" font-family="Arial" fill="#d62728" text-anchor="start">D</text>
</svg>