<svg xmlns="http://www.w3.org/2000/svg" width="960" height="680" viewBox="0 0 960 680"><rect width="100%" height="100%" fill="white" />
<text x="56.00" y="32.00" font-size="20" font-family="Arial" fill="#1f2933" text-anchor="start">SOXX Technical Indicators</text>
<line x1="56" y1="220" x2="904" y2="220" stroke="#cbd2d9" />
<line x1="56" y1="58" x2="56" y2="220" stroke="#cbd2d9" />
<text x="16.00" y="50.00" font-size="12" font-family="Arial" fill="#52606d" text-anchor="start">RSI14</text>
<line x1="56" y1="220.00" x2="904" y2="220.00" stroke="#edf2f7" />
<line x1="52" y1="220.00" x2="56" y2="220.00" stroke="#9fb3c8" />
<text x="48.00" y="224.00" font-size="11" font-family="Arial" fill="#52606d" text-anchor="end">-5.00</text>
<line x1="56" y1="166.00" x2="904" y2="166.00" stroke="#edf2f7" />
<line x1="52" y1="166.00" x2="56" y2="166.00" stroke="#9fb3c8" />
<text x="48.00" y="170.00" font-size="11" font-family="Arial" fill="#52606d" text-anchor="end">31.7</text>
<line x1="56" y1="112.00" x2="904" y2="112.00" stroke="#edf2f7" />
<line x1="52" y1="112.00" x2="56" y2="112.00" stroke="#9fb3c8" />
<text x="48.00" y="116.00" font-size="11" font-family="Arial" fill="#52606d" text-anchor="end">68.3</text>
<line x1="56" y1="58.00" x2="904" y2="58.00" stroke="#edf2f7" />
<line x1="52" y1="58.00" x2="56" y2="58.00" stroke="#9fb3c8" />
<text x="48.00" y="62.00" font-size="11" font-family="Arial" fill="#52606d" text-anchor="end">105</text>
<line x1="56" y1="168.45" x2="904" y2="168.45" stroke="#f0b429" stroke-dasharray="5 5" />
<text x="912.00" y="172.45" font-size="10" font-family="Arial" fill="#8d2b0b" text-anchor="start">30.0</text>
<line x1="56" y1="109.55" x2="904" y2="109.55" stroke="#f0b429" stroke-dasharray="5 5" />
<text x="912.00" y="113.55" font-size="10" font-family="Arial" fill="#8d2b0b" text-anchor="start">70.0</text>
<polyline fill="none" stroke="#1f77b4" stroke-width="2" points="101.84,129.02 105.11,117.42 108.39,116.38 111.66,112.32 114.93,140.25 118.21,147.17 121.48,138.63 124.76,142.78 128.03,147.05 131.31,136.83 134.58,132.16 137.85,133.42 141.13,118.33 144.40,112.89 147.68,112.52 150.95,128.16 154.22,126.86 157.50,135.98 160.77,139.02 164.05,141.98 167.32,128.63 170.59,129.97 173.87,125.79 177.14,124.92 180.42,122.72 183.69,139.95 186.97,144.77 190.24,146.94 193.51,141.29 196.79,135.25 200.06,131.70 203.34,131.28 206.61,123.05 209.88,120.13 213.16,119.37 216.43,115.75 219.71,113.61 222.98,113.78 226.25,101.61 229.53,107.02 232.80,102.50 236.08,103.53 239.35,104.91 242.63,107.92 245.90,107.06 249.17,106.91 252.45,103.59 255.72,97.10 259.00,92.08 262.27,98.37 265.54,91.30 268.82,109.56 272.09,100.95 275.37,104.14 278.64,135.95 281.92,123.06 285.19,130.39 288.46,122.91 291.74,121.82 295.01,122.93 298.29,118.78 301.56,121.21 304.83,131.15 308.11,124.49 311.38,120.33 314.66,114.02 317.93,113.75 321.20,110.05 324.48,116.50 327.75,115.57 331.03,114.05 334.30,131.58 337.58,123.17 340.85,132.64 344.12,136.06 347.40,128.92 350.67,136.37 353.95,132.15 357.22,142.40 360.49,143.19 363.77,147.76 367.04,153.33 370.32,147.96 373.59,158.38 376.86,155.23 380.14,142.93 383.41,142.09 386.69,134.90 389.96,130.41 393.24,130.26 396.51,125.30 399.78,120.32 403.06,124.06 406.33,121.58 409.61,118.94 412.88,119.75 416.15,116.36 419.43,119.10 422.70,138.09 425.98,139.65 429.25,141.15 432.53,151.93 435.80,144.00 439.07,136.05 442.35,132.27 445.62,131.22 448.90,130.06 452.17,130.19 455.44,131.20 458.72,131.79 461.99,137.36 465.27,123.12 468.54,119.13 471.81,111.12 475.09,116.32 478.36,123.83 481.64,116.40 484.91,115.24 488.19,113.04 491.46,115.23 494.73,111.10 498.01,107.40 501.28,115.64 504.56,108.06 507.83,107.72 511.10,114.00 514.38,116.57 517.65,110.41 520.93,104.47 524.20,104.08 527.47,125.04 530.75,120.13 534.02,128.36 537.30,142.84 540.57,142.42 543.85,128.03 547.12,125.14 550.39,126.48 553.67,120.49 556.94,129.23 560.22,126.94 563.49,127.53 566.76,124.58 570.04,126.96 573.31,124.01 576.59,127.21 579.86,122.75 583.14,118.07 586.41,131.46 589.68,136.16 592.96,136.41 596.23,151.96 599.51,145.10 602.78,148.17 606.05,158.22 609.33,146.01 612.60,143.89 615.88,141.03 619.15,149.97 622.42,148.90 625.70,142.84 628.97,140.47 632.25,142.20 635.52,140.31 638.80,147.27 642.07,143.00 645.34,138.55 648.62,134.46 651.89,149.23 655.17,153.19 658.44,161.89 661.71,144.66 664.99,137.41 668.26,136.65 671.54,133.41 674.81,130.79 678.08,117.46 681.36,113.61 684.63,110.16 687.91,107.42 691.18,104.41 694.46,104.17 697.73,102.58 701.00,99.03 704.28,98.39 707.55,97.27 710.83,93.65 714.10,91.04 717.37,86.37 720.65,93.39 723.92,109.97 727.20,105.87 730.47,102.17 733.75,100.86 737.02,104.42 740.29,98.13 743.57,92.61 746.84,104.41 750.12,97.80 753.39,95.36 756.66,106.89 759.94,103.90 763.21,103.48 766.49,117.27 769.76,124.33 773.03,124.01 776.31,115.95 779.58,114.59 782.86,110.82 786.13,102.80 789.41,106.56 792.68,105.24 795.95,105.50 799.23,104.75 802.50,97.22 805.78,95.24 809.05,104.08 812.32,134.74 815.60,125.53 818.87,129.04 822.15,136.38 825.42,124.15 828.69,121.99 831.97,115.14 835.24,127.80 838.52,125.87 841.79,117.71 845.07,114.89 848.34,130.66 851.61,131.18 854.89,126.00 858.16,135.70 861.44,130.28 864.71,124.94 867.98,135.56 871.26,142.95 874.53,139.47 877.81,145.81 881.08,143.29 884.36,138.59 887.63,138.67 890.90,145.31 894.18,141.51 897.45,144.59 900.73,150.28 904.00,152.18" />
<text x="808.00" y="76.00" font-size="13" font-family="Arial" fill="#1f77b4" text-anchor="start">RSI14</text>
<line x1="56" y1="432" x2="904" y2="432" stroke="#cbd2d9" />
<line x1="56" y1="272" x2="56" y2="432" stroke="#cbd2d9" />
<text x="16.00" y="264.00" font-size="12" font-family="Arial" fill="#52606d" text-anchor="start">MACD</text>
<line x1="56" y1="432.00" x2="904" y2="432.00" stroke="#edf2f7" />
<line x1="52" y1="432.00" x2="56" y2="432.00" stroke="#9fb3c8" />
<text x="48.00" y="436.00" font-size="11" font-family="Arial" fill="#52606d" text-anchor="end">-13.7</text>
<line x1="56" y1="378.67" x2="904" y2="378.67" stroke="#edf2f7" />
<line x1="52" y1="378.67" x2="56" y2="378.67" stroke="#9fb3c8" />
<text x="48.00" y="382.67" font-size="11" font-family="Arial" fill="#52606d" text-anchor="end">5.09</text>
<line x1="56" y1="325.33" x2="904" y2="325.33" stroke="#edf2f7" />
<line x1="52" y1="325.33" x2="56" y2="325.33" stroke="#9fb3c8" />
<text x="48.00" y="329.33" font-size="11" font-family="Arial" fill="#52606d" text-anchor="end">23.8</text>
<line x1="56" y1="272.00" x2="904" y2="272.00" stroke="#edf2f7" />
<line x1="52" y1="272.00" x2="56" y2="272.00" stroke="#9fb3c8" />
<text x="48.00" y="276.00" font-size="11" font-family="Arial" fill="#52606d" text-anchor="end">42.6</text>
<line x1="56" y1="393.15" x2="904" y2="393.15" stroke="#9fb3c8" stroke-dasharray="4 4" />
<rect x="136.71" y="393.15" width="2.28" height="0.00" fill="#2f9e44" opacity="0.55" />
<rect x="139.99" y="391.55" width="2.28" height="1.60" fill="#2f9e44" opacity="0.55" />
<rect x="143.26" y="389.95" width="2.28" height="3.20" fill="#2f9e44" opacity="0.55" />
<rect x="146.53" y="389.07" width="2.28" height="4.08" fill="#2f9e44" opacity="0.55" />
<rect x="149.81" y="389.80" width="2.28" height="3.35" fill="#2f9e44" opacity="0.55" />
<rect x="153.08" y="390.32" width="2.28" height="2.83" fill="#2f9e44" opacity="0.55" />
<rect x="156.36" y="391.53" width="2.28" height="1.63" fill="#2f9e44" opacity="0.55" />
<rect x="159.63" y="392.65" width="2.28" height="0.50" fill="#2f9e44" opacity="0.55" />
<rect x="162.90" y="393.15" width="2.28" height="0.51" fill="#d64545" opacity="0.55" />
<rect x="166.18" y="393.09" width="2.28" height="0.06" fill="#2f9e44" opacity="0.55" />
<rect x="169.45" y="392.86" width="2.28" height="0.29" fill="#2f9e44" opacity="0.55" />
<rect x="172.73" y="392.35" width="2.28" height="0.80" fill="#2f9e44" opacity="0.55" />
<rect x="176.00" y="392.01" width="2.28" height="1.14" fill="#2f9e44" opacity="0.55" />
<rect x="179.28" y="391.68" width="2.28" height="1.48" fill="#2f9e44" opacity="0.55" />
<rect x="182.55" y="392.89" width="2.28" height="0.26" fill="#2f9e44" opacity="0.55" />
<rect x="185.82" y="393.15" width="2.28" height="1.00" fill="#d64545" opacity="0.55" />
<rect x="189.10" y="393.15" width="2.28" height="1.98" fill="#d64545" opacity="0.55" />
<rect x="192.37" y="393.15" width="2.28" height="2.08" fill="#d64545" opacity="0.55" />
<rect x="195.65" y="393.15" width="2.28" height="1.54" fill="#d64545" opacity="0.55" />
<rect x="198.92" y="393.15" width="2.28" height="0.82" fill="#d64545" opacity="0.55" />
<rect x="202.19" y="393.15" width="2.28" height="0.31" fill="#d64545" opacity="0.55" />
<rect x="205.47" y="392.35" width="2.28" height="0.80" fill="#2f9e44" opacity="0.55" />
<rect x="208.74" y="391.41" width="2.28" height="1.74" fill="#2f9e44" opacity="0.55" />
<rect x="212.02" y="390.86" width="2.28" height="2.30" fill="#2f9e44" opacity="0.55" />
<rect x="215.29" y="390.27" width="2.28" height="2.88" fill="#2f9e44" opacity="0.55" />
<rect x="218.57" y="389.86" width="2.28" height="3.29" fill="#2f9e44" opacity="0.55" />
<rect x="221.84" y="389.83" width="2.28" height="3.33" fill="#2f9e44" opacity="0.55" />
<rect x="225.11" y="388.40" width="2.28" height="4.75" fill="#2f9e44" opacity="0.55" />
<rect x="228.39" y="388.13" width="2.28" height="5.02" fill="#2f9e44" opacity="0.55" />
<rect x="231.66" y="387.58" width="2.28" height="5.57" fill="#2f9e44" opacity="0.55" />
<rect x="234.94" y="387.68" width="2.28" height="5.48" fill="#2f9e44" opacity="0.55" />
<rect x="238.21" y="388.20" width="2.28" height="4.95" fill="#2f9e44" opacity="0.55" />
<rect x="241.48" y="389.06" width="2.28" height="4.10" fill="#2f9e44" opacity="0.55" />
<rect x="244.76" y="389.82" width="2.28" height="3.33" fill="#2f9e44" opacity="0.55" />
<rect x="248.03" y="390.59" width="2.28" height="2.56" fill="#2f9e44" opacity="0.55" />
<rect x="251.31" y="390.95" width="2.28" height="2.21" fill="#2f9e44" opacity="0.55" />
<rect x="254.58" y="390.48" width="2.28" height="2.67" fill="#2f9e44" opacity="0.55" />
<rect x="257.85" y="389.51" width="2.28" height="3.65" fill="#2f9e44" opacity="0.55" />
<rect x="261.13" y="389.56" width="2.28" height="3.60" fill="#2f9e44" opacity="0.55" />
<rect x="264.40" y="388.42" width="2.28" height="4.73" fill="#2f9e44" opacity="0.55" />
<rect x="267.68" y="389.30" width="2.28" height="3.86" fill="#2f9e44" opacity="0.55" />
<rect x="270.95" y="388.49" width="2.28" height="4.67" fill="#2f9e44" opacity="0.55" />
<rect x="274.23" y="388.66" width="2.28" height="4.49" fill="#2f9e44" opacity="0.55" />
<rect x="277.50" y="392.51" width="2.28" height="0.64" fill="#2f9e44" opacity="0.55" />
<rect x="280.77" y="392.83" width="2.28" height="0.33" fill="#2f9e44" opacity="0.55" />
<rect x="284.05" y="393.15" width="2.28" height="1.15" fill="#d64545" opacity="0.55" />
<rect x="287.32" y="393.15" width="2.28" height="0.67" fill="#d64545" opacity="0.55" />
<rect x="290.60" y="393.15" width="2.28" height="0.28" fill="#d64545" opacity="0.55" />
<rect x="293.87" y="393.15" width="2.28" height="0.38" fill="#d64545" opacity="0.55" />
<rect x="297.14" y="392.90" width="2.28" height="0.25" fill="#2f9e44" opacity="0.55" />
<rect x="300.42" y="393.02" width="2.28" height="0.13" fill="#2f9e44" opacity="0.55" />
<rect x="303.69" y="393.15" width="2.28" height="1.45" fill="#d64545" opacity="0.55" />
<rect x="306.97" y="393.15" width="2.28" height="1.31" fill="#d64545" opacity="0.55" />
<rect x="310.24" y="393.15" width="2.28" height="0.48" fill="#d64545" opacity="0.55" />
<rect x="313.51" y="391.80" width="2.28" height="1.36" fill="#2f9e44" opacity="0.55" />
<rect x="316.79" y="390.84" width="2.28" height="2.31" fill="#2f9e44" opacity="0.55" />
<rect x="320.06" y="389.64" width="2.28" height="3.51" fill="#2f9e44" opacity="0.55" />
<rect x="323.34" y="390.04" width="2.28" height="3.12" fill="#2f9e44" opacity="0.55" />
<rect x="326.61" y="390.46" width="2.28" height="2.69" fill="#2f9e44" opacity="0.55" />
<rect x="329.89" y="390.76" width="2.28" height="2.39" fill="#2f9e44" opacity="0.55" />
<rect x="333.16" y="393.15" width="2.28" height="0.34" fill="#d64545" opacity="0.55" />
<rect x="336.43" y="393.15" width="2.28" height="0.60" fill="#d64545" opacity="0.55" />
<rect x="339.71" y="393.15" width="2.28" height="2.40" fill="#d64545" opacity="0.55" />
<rect x="342.98" y="393.15" width="2.28" height="4.19" fill="#d64545" opacity="0.55" />
<rect x="346.26" y="393.15" width="2.28" height="3.93" fill="#d64545" opacity="0.55" />
<rect x="349.53" y="393.15" width="2.28" height="5.00" fill="#d64545" opacity="0.55" />
<rect x="352.80" y="393.15" width="2.28" height="4.78" fill="#d64545" opacity="0.55" />
<rect x="356.08" y="393.15" width="2.28" height="6.44" fill="#d64545" opacity="0.55" />
<rect x="359.35" y="393.15" width="2.28" height="7.46" fill="#d64545" opacity="0.55" />
<rect x="362.63" y="393.15" width="2.28" height="8.76" fill="#d64545" opacity="0.55" />
<rect x="365.90" y="393.15" width="2.28" height="10.43" fill="#d64545" opacity="0.55" />
<rect x="369.18" y="393.15" width="2.28" height="10.20" fill="#d64545" opacity="0.55" />
<rect x="372.45" y="393.15" width="2.28" height="12.05" fill="#d64545" opacity="0.55" />
<rect x="375.72" y="393.15" width="2.28" height="12.14" fill="#d64545" opacity="0.55" />
<rect x="379.00" y="393.15" width="2.28" height="9.44" fill="#d64545" opacity="0.55" />
<rect x="382.27" y="393.15" width="2.28" height="7.09" fill="#d64545" opacity="0.55" />
<rect x="385.55" y="393.15" width="2.28" height="3.83" fill="#d64545" opacity="0.55" />
<rect x="388.82" y="393.15" width="2.28" height="0.59" fill="#d64545" opacity="0.55" />
<rect x="392.09" y="391.63" width="2.28" height="1.52" fill="#2f9e44" opacity="0.55" />
<rect x="395.37" y="389.30" width="2.28" height="3.85" fill="#2f9e44" opacity="0.55" />
<rect x="398.64" y="386.85" width="2.28" height="6.30" fill="#2f9e44" opacity="0.55" />
<rect x="401.92" y="386.21" width="2.28" height="6.95" fill="#2f9e44" opacity="0.55" />
<rect x="405.19" y="385.62" width="2.28" height="7.53" fill="#2f9e44" opacity="0.55" />
<rect x="408.46" y="385.09" width="2.28" height="8.07" fill="#2f9e44" opacity="0.55" />
<rect x="411.74" y="385.33" width="2.28" height="7.82" fill="#2f9e44" opacity="0.55" />
<rect x="415.01" y="385.22" width="2.28" height="7.93" fill="#2f9e44" opacity="0.55" />
<rect x="418.29" y="385.99" width="2.28" height="7.16" fill="#2f9e44" opacity="0.55" />
<rect x="421.56" y="389.68" width="2.28" height="3.48" fill="#2f9e44" opacity="0.55" />
<rect x="424.84" y="392.56" width="2.28" height="0.60" fill="#2f9e44" opacity="0.55" />
<rect x="428.11" y="393.15" width="2.28" height="1.61" fill="#d64545" opacity="0.55" />
<rect x="431.38" y="393.15" width="2.28" height="5.01" fill="#d64545" opacity="0.55" />
<rect x="434.66" y="393.15" width="2.28" height="5.75" fill="#d64545" opacity="0.55" />
<rect x="437.93" y="393.15" width="2.28" height="4.59" fill="#d64545" opacity="0.55" />
<rect x="441.21" y="393.15" width="2.28" height="2.97" fill="#d64545" opacity="0.55" />
<rect x="444.48" y="393.15" width="2.28" height="1.67" fill="#d64545" opacity="0.55" />
<rect x="447.75" y="393.15" width="2.28" height="0.63" fill="#d64545" opacity="0.55" />
<rect x="451.03" y="393.15" width="2.28" height="0.02" fill="#d64545" opacity="0.55" />
<rect x="454.30" y="393.00" width="2.28" height="0.16" fill="#2f9e44" opacity="0.55" />
<rect x="457.58" y="393.03" width="2.28" height="0.12" fill="#2f9e44" opacity="0.55" />
<rect x="460.85" y="393.15" width="2.28" height="0.66" fill="#d64545" opacity="0.55" />
<rect x="464.12" y="392.06" width="2.28" height="1.09" fill="#2f9e44" opacity="0.55" />
<rect x="467.40" y="390.30" width="2.28" height="2.85" fill="#2f9e44" opacity="0.55" />
<rect x="470.67" y="387.55" width="2.28" height="5.60" fill="#2f9e44" opacity="0.55" />
<rect x="473.95" y="386.84" width="2.28" height="6.31" fill="#2f9e44" opacity="0.55" />
<rect x="477.22" y="387.79" width="2.28" height="5.36" fill="#2f9e44" opacity="0.55" />
<rect x="480.50" y="387.12" width="2.28" height="6.04" fill="#2f9e44" opacity="0.55" />
<rect x="483.77" y="386.85" width="2.28" height="6.30" fill="#2f9e44" opacity="0.55" />
<rect x="487.04" y="386.63" width="2.28" height="6.52" fill="#2f9e44" opacity="0.55" />
<rect x="490.32" y="387.24" width="2.28" height="5.91" fill="#2f9e44" opacity="0.55" />
<rect x="493.59" y="387.14" width="2.28" height="6.01" fill="#2f9e44" opacity="0.55" />
<rect x="496.87" y="386.63" width="2.28" height="6.52" fill="#2f9e44" opacity="0.55" />
<rect x="500.14" y="387.78" width="2.28" height="5.37" fill="#2f9e44" opacity="0.55" />
<rect x="503.41" y="387.04" width="2.28" height="6.12" fill="#2f9e44" opacity="0.55" />
<rect x="506.69" y="387.02" width="2.28" height="6.13" fill="#2f9e44" opacity="0.55" />
<rect x="509.96" y="388.29" width="2.28" height="4.86" fill="#2f9e44" opacity="0.55" />
<rect x="513.24" y="389.89" width="2.28" height="3.26" fill="#2f9e44" opacity="0.55" />
<rect x="516.51" y="389.88" width="2.28" height="3.28" fill="#2f9e44" opacity="0.55" />
<rect x="519.79" y="388.60" width="2.28" height="4.55" fill="#2f9e44" opacity="0.55" />
<rect x="523.06" y="388.20" width="2.28" height="4.96" fill="#2f9e44" opacity="0.55" />
<rect x="526.33" y="391.18" width="2.28" height="1.97" fill="#2f9e44" opacity="0.55" />
<rect x="529.61" y="392.29" width="2.28" height="0.86" fill="#2f9e44" opacity="0.55" />
<rect x="532.88" y="393.15" width="2.28" height="1.45" fill="#d64545" opacity="0.55" />
<rect x="536.16" y="393.15" width="2.28" height="5.88" fill="#d64545" opacity="0.55" />
<rect x="539.43" y="393.15" width="2.28" height="8.55" fill="#d64545" opacity="0.55" />
<rect x="542.70" y="393.15" width="2.28" height="6.82" fill="#d64545" opacity="0.55" />
<rect x="545.98" y="393.15" width="2.28" height="4.86" fill="#d64545" opacity="0.55" />
<rect x="549.25" y="393.15" width="2.28" height="3.84" fill="#d64545" opacity="0.55" />
<rect x="552.53" y="393.15" width="2.28" height="1.64" fill="#d64545" opacity="0.55" />
<rect x="555.80" y="393.15" width="2.28" height="1.97" fill="#d64545" opacity="0.55" />
<rect x="559.07" y="393.15" width="2.28" height="1.71" fill="#d64545" opacity="0.55" />
<rect x="562.35" y="393.15" width="2.28" height="1.78" fill="#d64545" opacity="0.55" />
<rect x="565.62" y="393.15" width="2.28" height="1.24" fill="#d64545" opacity="0.55" />
<rect x="568.90" y="393.15" width="2.28" height="1.42" fill="#d64545" opacity="0.55" />
<rect x="572.17" y="393.15" width="2.28" height="1.00" fill="#d64545" opacity="0.55" />
<rect x="575.45" y="393.15" width="2.28" height="1.37" fill="#d64545" opacity="0.55" />
<rect x="578.72" y="393.15" width="2.28" height="0.77" fill="#d64545" opacity="0.55" />
<rect x="581.99" y="392.62" width="2.28" height="0.53" fill="#2f9e44" opacity="0.55" />
<rect x="585.27" y="393.15" width="2.28" height="0.91" fill="#d64545" opacity="0.55" />
<rect x="588.54" y="393.15" width="2.28" height="2.77" fill="#d64545" opacity="0.55" />
<rect x="591.82" y="393.15" width="2.28" height="4.03" fill="#d64545" opacity="0.55" />
<rect x="595.09" y="393.15" width="2.28" height="7.91" fill="#d64545" opacity="0.55" />
<rect x="598.36" y="393.15" width="2.28" height="8.86" fill="#d64545" opacity="0.55" />
<rect x="601.64" y="393.15" width="2.28" height="9.82" fill="#d64545" opacity="0.55" />
<rect x="604.91" y="393.15" width="2.28" height="12.61" fill="#d64545" opacity="0.55" />
<rect x="608.19" y="393.15" width="2.28" height="11.45" fill="#d64545" opacity="0.55" />
<rect x="611.46" y="393.15" width="2.28" height="9.74" fill="#d64545" opacity="0.55" />
<rect x="614.73" y="393.15" width="2.28" height="7.61" fill="#d64545" opacity="0.55" />
<rect x="618.01" y="393.15" width="2.28" height="8.05" fill="#d64545" opacity="0.55" />
<rect x="621.28" y="393.15" width="2.28" height="7.71" fill="#d64545" opacity="0.55" />
<rect x="624.56" y="393.15" width="2.28" height="5.89" fill="#d64545" opacity="0.55" />
<rect x="627.83" y="393.15" width="2.28" height="3.94" fill="#d64545" opacity="0.55" />
<rect x="631.11" y="393.15" width="2.28" height="2.83" fill="#d64545" opacity="0.55" />
<rect x="634.38" y="393.15" width="2.28" height="1.60" fill="#d64545" opacity="0.55" />
<rect x="637.65" y="393.15" width="2.28" height="2.09" fill="#d64545" opacity="0.55" />
<rect x="640.93" y="393.15" width="2.28" height="1.50" fill="#d64545" opacity="0.55" />
<rect x="644.20" y="393.15" width="2.28" height="0.19" fill="#d64545" opacity="0.55" />
<rect x="647.48" y="391.70" width="2.28" height="1.46" fill="#2f9e44" opacity="0.55" />
<rect x="650.75" y="393.15" width="2.28" height="0.51" fill="#d64545" opacity="0.55" />
<rect x="654.02" y="393.15" width="2.28" height="2.64" fill="#d64545" opacity="0.55" />
<rect x="657.30" y="393.15" width="2.28" height="6.26" fill="#d64545" opacity="0.55" />
<rect x="660.57" y="393.15" width="2.28" height="4.70" fill="#d64545" opacity="0.55" />
<rect x="663.85" y="393.15" width="2.28" height="1.60" fill="#d64545" opacity="0.55" />
<rect x="667.12" y="392.45" width="2.28" height="0.70" fill="#2f9e44" opacity="0.55" />
<rect x="670.40" y="390.14" width="2.28" height="3.01" fill="#2f9e44" opacity="0.55" />
<rect x="673.67" y="388.11" width="2.28" height="5.04" fill="#2f9e44" opacity="0.55" />
<rect x="676.94" y="382.92" width="2.28" height="10.23" fill="#2f9e44" opacity="0.55" />
<rect x="680.22" y="378.67" width="2.28" height="14.48" fill="#2f9e44" opacity="0.55" />
<rect x="683.49" y="375.31" width="2.28" height="17.84" fill="#2f9e44" opacity="0.55" />
<rect x="686.77" y="372.94" width="2.28" height="20.21" fill="#2f9e44" opacity="0.55" />
<rect x="690.04" y="371.16" width="2.28" height="21.99" fill="#2f9e44" opacity="0.55" />
<rect x="693.31" y="371.21" width="2.28" height="21.94" fill="#2f9e44" opacity="0.55" />
<rect x="696.59" y="371.83" width="2.28" height="21.33" fill="#2f9e44" opacity="0.55" />
<rect x="699.86" y="371.78" width="2.28" height="21.37" fill="#2f9e44" opacity="0.55" />
<rect x="703.14" y="372.82" width="2.28" height="20.34" fill="#2f9e44" opacity="0.55" />
<rect x="706.41" y="374.28" width="2.28" height="18.87" fill="#2f9e44" opacity="0.55" />
<rect x="709.68" y="374.54" width="2.28" height="18.62" fill="#2f9e44" opacity="0.55" />
<rect x="712.96" y="374.41" width="2.28" height="18.75" fill="#2f9e44" opacity="0.55" />
<rect x="716.23" y="372.01" width="2.28" height="21.14" fill="#2f9e44" opacity="0.55" />
<rect x="719.51" y="373.24" width="2.28" height="19.91" fill="#2f9e44" opacity="0.55" />
<rect x="722.78" y="378.63" width="2.28" height="14.52" fill="#2f9e44" opacity="0.55" />
<rect x="726.06" y="381.30" width="2.28" height="11.86" fill="#2f9e44" opacity="0.55" />
<rect x="729.33" y="382.11" width="2.28" height="11.04" fill="#2f9e44" opacity="0.55" />
<rect x="732.60" y="383.05" width="2.28" height="10.11" fill="#2f9e44" opacity="0.55" />
<rect x="735.88" y="385.48" width="2.28" height="7.67" fill="#2f9e44" opacity="0.55" />
<rect x="739.15" y="384.32" width="2.28" height="8.83" fill="#2f9e44" opacity="0.55" />
<rect x="742.43" y="380.37" width="2.28" height="12.78" fill="#2f9e44" opacity="0.55" />
<rect x="745.70" y="381.91" width="2.28" height="11.24" fill="#2f9e44" opacity="0.55" />
<rect x="748.97" y="379.14" width="2.28" height="14.02" fill="#2f9e44" opacity="0.55" />
<rect x="752.25" y="376.65" width="2.28" height="16.51" fill="#2f9e44" opacity="0.55" />
<rect x="755.52" y="379.81" width="2.28" height="13.35" fill="#2f9e44" opacity="0.55" />
<rect x="758.80" y="381.10" width="2.28" height="12.06" fill="#2f9e44" opacity="0.55" />
<rect x="762.07" y="383.09" width="2.28" height="10.06" fill="#2f9e44" opacity="0.55" />
<rect x="765.34" y="389.66" width="2.28" height="3.49" fill="#2f9e44" opacity="0.55" />
<rect x="768.62" y="393.15" width="2.28" height="4.01" fill="#d64545" opacity="0.55" />
<rect x="771.89" y="393.15" width="2.28" height="9.23" fill="#d64545" opacity="0.55" />
<rect x="775.17" y="393.15" width="2.28" height="8.62" fill="#d64545" opacity="0.55" />
<rect x="778.44" y="393.15" width="2.28" height="7.83" fill="#d64545" opacity="0.55" />
<rect x="781.72" y="393.15" width="2.28" height="5.47" fill="#d64545" opacity="0.55" />
<rect x="784.99" y="391.73" width="2.28" height="1.42" fill="#2f9e44" opacity="0.55" />
<rect x="788.26" y="389.42" width="2.28" height="3.73" fill="#2f9e44" opacity="0.55" />
<rect x="791.54" y="388.00" width="2.28" height="5.15" fill="#2f9e44" opacity="0.55" />
<rect x="794.81" y="388.30" width="2.28" height="4.86" fill="#2f9e44" opacity="0.55" />
<rect x="798.09" y="389.07" width="2.28" height="4.08" fill="#2f9e44" opacity="0.55" />
<rect x="801.36" y="384.63" width="2.28" height="8.52" fill="#2f9e44" opacity="0.55" />
<rect x="804.63" y="381.25" width="2.28" height="11.91" fill="#2f9e44" opacity="0.55" />
<rect x="807.91" y="383.01" width="2.28" height="10.14" fill="#2f9e44" opacity="0.55" />
<rect x="811.18" y="393.15" width="2.28" height="3.85" fill="#d64545" opacity="0.55" />
<rect x="814.46" y="393.15" width="2.28" height="7.60" fill="#d64545" opacity="0.55" />
<rect x="817.73" y="393.15" width="2.28" height="12.15" fill="#d64545" opacity="0.55" />
<rect x="821.01" y="393.15" width="2.28" height="18.98" fill="#d64545" opacity="0.55" />
<rect x="824.28" y="393.15" width="2.28" height="14.87" fill="#d64545" opacity="0.55" />
<rect x="827.55" y="393.15" width="2.28" height="10.62" fill="#d64545" opacity="0.55" />
<rect x="830.83" y="393.15" width="2.28" height="2.28" fill="#d64545" opacity="0.55" />
<rect x="834.10" y="393.15" width="2.28" height="4.47" fill="#d64545" opacity="0.55" />
<rect x="837.38" y="393.15" width="2.28" height="4.82" fill="#d64545" opacity="0.55" />
<rect x="840.65" y="391.49" width="2.28" height="1.67" fill="#2f9e44" opacity="0.55" />
<rect x="843.92" y="385.44" width="2.28" height="7.72" fill="#2f9e44" opacity="0.55" />
<rect x="847.20" y="392.20" width="2.28" height="0.96" fill="#2f9e44" opacity="0.55" />
<rect x="850.47" y="393.15" width="2.28" height="4.45" fill="#d64545" opacity="0.55" />
<rect x="853.75" y="393.15" width="2.28" height="4.07" fill="#d64545" opacity="0.55" />
<rect x="857.02" y="393.15" width="2.28" height="10.77" fill="#d64545" opacity="0.55" />
<rect x="860.29" y="393.15" width="2.28" height="10.71" fill="#d64545" opacity="0.55" />
<rect x="863.57" y="393.15" width="2.28" height="6.02" fill="#d64545" opacity="0.55" />
<rect x="866.84" y="393.15" width="2.28" height="10.92" fill="#d64545" opacity="0.55" />
<rect x="870.12" y="393.15" width="2.28" height="20.14" fill="#d64545" opacity="0.55" />
<rect x="873.39" y="393.15" width="2.28" height="22.74" fill="#d64545" opacity="0.55" />
<rect x="876.67" y="393.15" width="2.28" height="29.15" fill="#d64545" opacity="0.55" />
<rect x="879.94" y="393.15" width="2.28" height="30.28" fill="#d64545" opacity="0.55" />
<rect x="883.21" y="393.15" width="2.28" height="26.26" fill="#d64545" opacity="0.55" />
<rect x="886.49" y="393.15" width="2.28" height="22.80" fill="#d64545" opacity="0.55" />
<rect x="889.76" y="393.15" width="2.28" height="24.80" fill="#d64545" opacity="0.55" />
<rect x="893.04" y="393.15" width="2.28" height="22.42" fill="#d64545" opacity="0.55" />
<rect x="896.31" y="393.15" width="2.28" height="22.27" fill="#d64545" opacity="0.55" />
<rect x="899.58" y="393.15" width="2.28" height="25.67" fill="#d64545" opacity="0.55" />
<rect x="902.86" y="393.15" width="2.28" height="28.14" fill="#d64545" opacity="0.55" />
<polyline fill="none" stroke="#1f77b4" stroke-width="2" points="137.85,394.00 141.13,392.00 144.40,389.60 147.68,387.70 150.95,387.59 154.22,387.40 157.50,388.20 160.77,389.20 164.05,390.35 167.32,389.75 170.59,389.46 173.87,388.74 177.14,388.11 180.42,387.41 183.69,388.56 186.97,390.07 190.24,391.55 193.51,392.17 196.79,392.01 200.06,391.49 203.34,391.06 206.61,389.75 209.88,388.38 213.16,387.25 216.43,385.94 219.71,384.71 222.98,383.84 226.25,381.23 229.53,379.70 232.80,377.76 236.08,376.48 239.35,375.77 242.63,375.60 245.90,375.54 249.17,375.66 252.45,375.47 255.72,374.33 259.00,372.45 262.27,371.60 265.54,369.28 268.82,369.19 272.09,367.22 275.37,366.27 278.64,369.95 281.92,370.19 285.19,371.96 288.46,371.64 291.74,371.33 295.01,371.52 298.29,370.82 301.56,370.91 304.83,372.86 308.11,373.04 311.38,372.34 314.66,370.16 317.93,368.63 321.20,366.54 324.48,366.16 327.75,365.91 331.03,365.61 334.30,368.44 337.58,368.84 340.85,371.25 344.12,374.08 347.40,374.80 350.67,377.12 353.95,378.10 357.22,381.36 360.49,384.25 363.77,387.74 367.04,392.02 370.32,394.34 373.59,399.21 376.86,402.33 380.14,401.99 383.41,401.42 386.69,399.11 389.96,396.02 393.24,393.53 396.51,390.23 399.78,386.20 403.06,383.82 406.33,381.36 409.61,378.80 412.88,377.10 416.15,375.00 419.43,373.98 422.70,376.80 425.98,379.53 429.25,382.13 432.53,386.79 435.80,388.96 439.07,388.95 442.35,388.08 445.62,387.20 448.90,386.31 452.17,385.71 455.44,385.49 458.72,385.50 461.99,386.44 465.27,384.42 468.54,381.94 471.81,377.80 475.09,375.51 478.36,375.12 481.64,372.93 484.91,371.10 488.19,369.24 491.46,368.37 494.73,366.77 498.01,364.63 501.28,364.43 504.56,362.16 507.83,360.62 511.10,360.67 514.38,361.46 517.65,360.62 520.93,358.21 524.20,356.56 527.47,359.06 530.75,359.95 534.02,362.62 537.30,368.53 540.57,373.33 543.85,373.31 547.12,372.56 550.39,372.50 553.67,370.71 556.94,371.53 560.22,371.71 563.49,372.22 566.76,371.99 570.04,372.52 573.31,372.36 576.59,373.06 579.86,372.66 583.14,371.22 586.41,372.89 589.68,375.45 592.96,377.71 596.23,383.57 599.51,386.74 602.78,390.15 606.05,396.09 609.33,397.80 612.60,398.52 615.88,398.29 619.15,400.75 622.42,402.33 625.70,401.99 628.97,401.02 632.25,400.62 635.52,399.79 638.80,400.81 642.07,400.59 645.34,399.33 648.62,397.32 651.89,399.41 655.17,402.20 658.44,407.38 661.71,407.00 664.99,404.31 668.26,401.82 671.54,398.76 674.81,395.47 678.08,387.72 681.36,379.85 684.63,372.03 687.91,364.61 691.18,357.33 694.46,351.90 697.73,347.18 701.00,341.79 704.28,337.74 707.55,334.49 710.83,330.09 714.10,325.27 717.37,317.60 720.65,313.85 723.92,315.61 727.20,315.31 730.47,313.36 733.75,311.77 737.02,312.29 740.29,308.92 743.57,301.77 746.84,300.50 750.12,294.22 753.39,287.61 756.66,287.43 759.94,285.71 763.21,285.18 766.49,290.89 769.76,299.39 773.03,306.92 776.31,308.46 779.58,309.63 782.86,308.64 786.13,301.39 789.41,298.14 792.68,295.44 795.95,294.52 799.23,294.28 802.50,287.71 805.78,281.34 809.05,280.57 812.32,295.53 815.60,301.18 818.87,308.76 822.15,320.34 825.42,319.95 828.69,318.35 831.97,310.58 835.24,313.88 838.52,315.45 841.79,308.54 845.07,300.56 848.34,307.08 851.61,313.60 854.89,314.24 858.16,323.64 861.44,326.25 864.71,323.07 867.98,330.70 871.26,344.96 874.53,353.23 877.81,366.94 881.08,375.63 884.36,378.17 887.63,380.42 890.90,388.62 894.18,391.85 897.45,397.26 900.73,407.08 904.00,416.58" />
<polyline fill="none" stroke="#ff7f0e" stroke-width="2" points="137.85,394.00 141.13,393.60 144.40,392.80 147.68,391.78 150.95,390.94 154.22,390.23 157.50,389.83 160.77,389.70 164.05,389.83 167.32,389.81 170.59,389.74 173.87,389.54 177.14,389.26 180.42,388.89 183.69,388.82 186.97,389.07 190.24,389.57 193.51,390.09 196.79,390.47 200.06,390.68 203.34,390.75 206.61,390.55 209.88,390.12 213.16,389.54 216.43,388.82 219.71,388.00 222.98,387.17 226.25,385.98 229.53,384.72 232.80,383.33 236.08,381.96 239.35,380.72 242.63,379.70 245.90,378.87 249.17,378.23 252.45,377.67 255.72,377.01 259.00,376.09 262.27,375.20 265.54,374.01 268.82,373.05 272.09,371.88 275.37,370.76 278.64,370.60 281.92,370.52 285.19,370.80 288.46,370.97 291.74,371.04 295.01,371.14 298.29,371.07 301.56,371.04 304.83,371.40 308.11,371.73 311.38,371.85 314.66,371.51 317.93,370.94 321.20,370.06 324.48,369.28 327.75,368.61 331.03,368.01 334.30,368.09 337.58,368.24 340.85,368.84 344.12,369.89 347.40,370.87 350.67,372.12 353.95,373.32 357.22,374.93 360.49,376.79 363.77,378.98 367.04,381.59 370.32,384.14 373.59,387.15 376.86,390.19 380.14,392.55 383.41,394.32 386.69,395.28 389.96,395.43 393.24,395.05 396.51,394.08 399.78,392.51 403.06,390.77 406.33,388.89 409.61,386.87 412.88,384.92 416.15,382.93 419.43,381.14 422.70,380.27 425.98,380.12 429.25,380.53 432.53,381.78 435.80,383.21 439.07,384.36 442.35,385.11 445.62,385.52 448.90,385.68 452.17,385.69 455.44,385.65 458.72,385.62 461.99,385.78 465.27,385.51 468.54,384.80 471.81,383.40 475.09,381.82 478.36,380.48 481.64,378.97 484.91,377.40 488.19,375.76 491.46,374.29 494.73,372.78 498.01,371.15 501.28,369.81 504.56,368.28 507.83,366.75 511.10,365.53 514.38,364.72 517.65,363.90 520.93,362.76 524.20,361.52 527.47,361.03 530.75,360.81 534.02,361.17 537.30,362.64 540.57,364.78 543.85,366.49 547.12,367.70 550.39,368.66 553.67,369.07 556.94,369.56 560.22,369.99 563.49,370.44 566.76,370.75 570.04,371.10 573.31,371.35 576.59,371.69 579.86,371.89 583.14,371.75 586.41,371.98 589.68,372.67 592.96,373.68 596.23,375.66 599.51,377.87 602.78,380.33 606.05,383.48 609.33,386.34 612.60,388.78 615.88,390.68 619.15,392.70 622.42,394.62 625.70,396.10 628.97,397.08 632.25,397.79 635.52,398.19 638.80,398.71 642.07,399.09 645.34,399.14 648.62,398.77 651.89,398.90 655.17,399.56 658.44,401.12 661.71,402.30 664.99,402.70 668.26,402.53 671.54,401.77 674.81,400.51 678.08,397.95 681.36,394.33 684.63,389.87 687.91,384.82 691.18,379.32 694.46,373.84 697.73,368.51 701.00,363.16 704.28,358.08 707.55,353.36 710.83,348.71 714.10,344.02 717.37,338.74 720.65,333.76 723.92,330.13 727.20,327.16 730.47,324.40 733.75,321.88 737.02,319.96 740.29,317.75 743.57,314.56 746.84,311.74 750.12,308.24 753.39,304.11 756.66,300.78 759.94,297.76 763.21,295.25 766.49,294.37 769.76,295.38 773.03,297.69 776.31,299.84 779.58,301.80 782.86,303.17 786.13,302.81 789.41,301.88 792.68,300.59 795.95,299.37 799.23,298.35 802.50,296.23 805.78,293.25 809.05,290.71 812.32,291.68 815.60,293.58 818.87,296.61 822.15,301.36 825.42,305.08 828.69,307.73 831.97,308.30 835.24,309.42 838.52,310.62 841.79,310.21 845.07,308.28 848.34,308.04 851.61,309.15 854.89,310.17 858.16,312.86 861.44,315.54 864.71,317.05 867.98,319.78 871.26,324.81 874.53,330.50 877.81,337.79 881.08,345.35 884.36,351.92 887.63,357.62 890.90,363.82 894.18,369.42 897.45,374.99 900.73,381.41 904.00,388.44" />
<text x="754.00" y="290.00" font-size="13" font-family="Arial" fill="#1f77b4" text-anchor="start">MACD</text>
<text x="818.00" y="290.00" font-size="13" font-family="Arial" fill="#ff7f0e" text-anchor="start">Signal</text>
<line x1="56" y1="624" x2="904" y2="624" stroke="#cbd2d9" />
<line x1="56" y1="484" x2="56" y2="624" stroke="#cbd2d9" />
<text x="16.00" y="476.00" font-size="12" font-family="Arial" fill="#52606d" text-anchor="start">KD</text>
<line x1="56" y1="624.00" x2="904" y2="624.00" stroke="#edf2f7" />
<line x1="52" y1="624.00" x2="56" y2="624.00" stroke="#9fb3c8" />
<text x="48.00" y="628.00" font-size="11" font-family="Arial" fill="#52606d" text-anchor="end">-5.00</text>
<line x1="56" y1="577.33" x2="904" y2="577.33" stroke="#edf2f7" />
<line x1="52" y1="577.33" x2="56" y2="577.33" stroke="#9fb3c8" />
<text x="48.00" y="581.33" font-size="11" font-family="Arial" fill="#52606d" text-anchor="end">31.7</text>
<line x1="56" y1="530.67" x2="904" y2="530.67" stroke="#edf2f7" />
<line x1="52" y1="530.67" x2="56" y2="530.67" stroke="#9fb3c8" />
<text x="48.00" y="534.67" font-size="11" font-family="Arial" fill="#52606d" text-anchor="end">68.3</text>
<line x1="56" y1="484.00" x2="904" y2="484.00" stroke="#edf2f7" />
<line x1="52" y1="484.00" x2="56" y2="484.00" stroke="#9fb3c8" />
<text x="48.00" y="488.00" font-size="11" font-family="Arial" fill="#52606d" text-anchor="end">105</text>
<line x1="56.00" y1="624" x2="56.00" y2="628" stroke="#9fb3c8" />
<text x="56.00" y="642.00" font-size="11" font-family="Arial" fill="#52606d" text-anchor="middle">07/07</text>
<line x1="226.25" y1="624" x2="226.25" y2="628" stroke="#9fb3c8" />
<text x="226.25" y="642.00" font-size="11" font-family="Arial" fill="#52606d" text-anchor="middle">09/18</text>
<line x1="396.51" y1="624" x2="396.51" y2="628" stroke="#9fb3c8" />
<text x="396.51" y="642.00" font-size="11" font-family="Arial" fill="#52606d" text-anchor="middle">12/02</text>
<line x1="563.49" y1="624" x2="563.49" y2="628" stroke="#9fb3c8" />
<text x="563.49" y="642.00" font-size="11" font-family="Arial" fill="#52606d" text-anchor="middle">02/17</text>
<line x1="733.75" y1="624" x2="733.75" y2="628" stroke="#9fb3c8" />
<text x="733.75" y="642.00" font-size="11" font-family="Arial" fill="#52606d" text-anchor="middle">05/01</text>
<line x1="904.00" y1="624" x2="904.00" y2="628" stroke="#9fb3c8" />
<text x="904.00" y="642.00" font-size="11" font-family="Arial" fill="#52606d" text-anchor="middle">07/17</text>
<line x1="56" y1="592.18" x2="904" y2="592.18" stroke="#f0b429" stroke-dasharray="5 5" />
<text x="912.00" y="596.18" font-size="10" font-family="Arial" fill="#8d2b0b" text-anchor="start">20.0</text>
<line x1="56" y1="515.82" x2="904" y2="515.82" stroke="#f0b429" stroke-dasharray="5 5" />
<text x="912.00" y="519.82" font-size="10" font-family="Arial" fill="#8d2b0b" text-anchor="start">80.0</text>
<polyline fill="none" stroke="#2ca02c" stroke-width="2" points="82.19,548.68 85.47,546.53 88.74,544.77 92.02,556.73 95.29,569.88 98.56,580.55 101.84,587.73 105.11,576.55 108.39,567.43 111.66,554.67 114.93,571.41 118.21,577.42 121.48,573.68 124.76,575.28 128.03,580.77 131.31,574.83 134.58,565.88 137.85,561.01 141.13,540.71 144.40,526.65 147.68,518.72 150.95,524.93 154.22,527.62 157.50,544.19 160.77,555.66 164.05,566.55 167.32,557.99 170.59,553.65 173.87,545.25 177.14,532.82 180.42,525.92 183.69,539.05 186.97,553.91 190.24,568.83 193.51,572.28 196.79,567.06 200.06,558.88 203.34,552.88 206.61,537.41 209.88,527.52 213.16,519.89 216.43,512.80 219.71,507.68 222.98,509.24 226.25,507.03 229.53,508.88 232.80,506.14 236.08,508.69 239.35,511.35 242.63,515.38 245.90,516.82 249.17,518.76 252.45,518.44 255.72,512.11 259.00,508.07 262.27,511.76 265.54,511.38 268.82,520.01 272.09,512.84 275.37,510.60 278.64,540.22 281.92,538.62 285.19,551.14 288.46,542.17 291.74,533.50 295.01,528.97 298.29,521.10 301.56,518.81 304.83,530.23 308.11,528.20 311.38,521.92 314.66,514.13 317.93,509.75 321.20,508.21 324.48,512.34 327.75,513.69 331.03,512.34 334.30,529.03 337.58,535.94 340.85,559.79 344.12,564.49 347.40,556.58 350.67,560.65 353.95,556.57 357.22,569.32 360.49,573.49 363.77,583.32 367.04,591.84 370.32,590.58 373.59,599.12 376.86,595.31 380.14,580.60 383.41,567.03 386.69,545.80 389.96,528.49 393.24,519.33 396.51,512.32 399.78,505.87 403.06,504.21 406.33,504.06 409.61,501.67 412.88,502.07 416.15,501.20 419.43,503.80 422.70,540.09 425.98,565.90 429.25,578.25 432.53,590.75 435.80,590.32 439.07,580.02 442.35,567.97 445.62,556.30 448.90,543.36 452.17,529.06 455.44,520.85 458.72,516.11 461.99,524.59 465.27,518.08 468.54,518.55 471.81,510.91 475.09,511.04 478.36,519.15 481.64,512.78 484.91,507.26 488.19,505.81 491.46,508.10 494.73,513.79 498.01,510.82 501.28,516.33 504.56,512.01 507.83,512.79 511.10,520.29 514.38,528.74 517.65,521.98 520.93,514.65 524.20,511.22 527.47,531.51 530.75,538.55 534.02,553.07 537.30,567.58 540.57,576.78 543.85,564.40 547.12,551.69 550.39,544.62 553.67,529.23 556.94,530.66 560.22,528.43 563.49,527.51 566.76,523.19 570.04,526.52 573.31,526.98 576.59,533.70 579.86,527.15 583.14,517.09 586.41,530.59 589.68,547.71 592.96,557.16 596.23,573.37 599.51,576.63 602.78,582.73 606.05,592.87 609.33,585.17 612.60,577.24 615.88,562.09 619.15,564.62 622.42,560.98 625.70,549.15 628.97,537.47 632.25,532.51 635.52,526.44 638.80,544.22 642.07,546.68 645.34,537.42 648.62,526.99 651.89,553.29 655.17,572.80 658.44,585.24 661.71,573.74 664.99,555.71 668.26,542.57 671.54,529.10 674.81,516.54 678.08,508.43 681.36,502.71 684.63,500.23 687.91,497.17 691.18,495.12 694.46,493.76 697.73,493.69 701.00,492.70 704.28,493.05 707.55,494.48 710.83,493.62 714.10,496.52 717.37,495.94 720.65,499.23 723.92,512.61 727.20,516.21 730.47,509.75 733.75,504.46 737.02,506.80 740.29,504.19 743.57,499.76 746.84,504.98 750.12,500.30 753.39,497.56 756.66,504.21 759.94,502.67 763.21,500.78 766.49,514.32 769.76,540.86 773.03,552.34 776.31,542.08 779.58,531.90 782.86,521.25 786.13,512.35 789.41,513.30 792.68,511.75 795.95,510.87 799.23,509.14 802.50,503.19 805.78,500.32 809.05,504.85 812.32,542.48 815.60,550.61 818.87,555.55 822.15,567.89 825.42,556.19 828.69,544.29 831.97,526.82 835.24,529.85 838.52,528.53 841.79,517.54 845.07,508.78 848.34,521.77 851.61,534.14 854.89,536.40 858.16,561.47 861.44,558.69 864.71,543.55 867.98,554.12 871.26,570.50 874.53,573.68 877.81,582.26 881.08,583.95 884.36,577.41 887.63,573.19 890.90,581.19 894.18,577.79 897.45,579.79 900.73,589.44 904.00,588.60" />
<polyline fill="none" stroke="#d62728" stroke-width="2" points="82.19,552.23 85.47,550.33 88.74,548.48 92.02,551.23 95.29,557.45 98.56,565.15 101.84,572.68 105.11,573.97 108.39,571.79 111.66,566.08 114.93,567.86 118.21,571.05 121.48,571.92 124.76,573.04 128.03,575.62 131.31,575.35 134.58,572.20 137.85,568.47 141.13,559.21 144.40,548.36 147.68,538.48 150.95,533.96 154.22,531.85 157.50,535.96 160.77,542.53 164.05,550.54 167.32,553.02 170.59,553.23 173.87,550.57 177.14,544.65 180.42,538.41 183.69,538.62 186.97,543.72 190.24,552.09 193.51,558.82 196.79,561.57 200.06,560.67 203.34,558.07 206.61,551.18 209.88,543.30 213.16,535.49 216.43,527.93 219.71,521.18 222.98,517.20 226.25,513.81 229.53,512.17 232.80,510.16 236.08,509.67 239.35,510.23 242.63,511.95 245.90,513.57 249.17,515.30 252.45,516.35 255.72,514.94 259.00,512.65 262.27,512.35 265.54,512.03 268.82,514.69 272.09,514.07 275.37,512.91 278.64,522.01 281.92,527.55 285.19,535.41 288.46,537.67 291.74,536.28 295.01,533.84 298.29,529.59 301.56,526.00 304.83,527.41 308.11,527.67 311.38,525.76 314.66,521.88 317.93,517.84 321.20,514.63 324.48,513.86 327.75,513.81 331.03,513.32 334.30,518.55 337.58,524.35 340.85,536.16 344.12,545.61 347.40,549.26 350.67,553.06 353.95,554.23 357.22,559.26 360.49,564.00 363.77,570.44 367.04,577.57 370.32,581.91 373.59,587.65 376.86,590.20 380.14,587.00 383.41,580.34 386.69,568.83 389.96,555.38 393.24,543.37 396.51,533.02 399.78,523.97 403.06,517.38 406.33,512.94 409.61,509.19 412.88,506.81 416.15,504.94 419.43,504.56 422.70,516.40 425.98,532.90 429.25,548.02 432.53,562.26 435.80,571.61 439.07,574.42 442.35,572.27 445.62,566.95 448.90,559.09 452.17,549.08 455.44,539.67 458.72,531.82 461.99,529.41 465.27,525.63 468.54,523.27 471.81,519.15 475.09,516.45 478.36,517.35 481.64,515.83 484.91,512.97 488.19,510.59 491.46,509.76 494.73,511.10 498.01,511.01 501.28,512.78 504.56,512.52 507.83,512.61 511.10,515.17 514.38,519.69 517.65,520.46 520.93,518.52 524.20,516.09 527.47,521.23 530.75,527.00 534.02,535.69 537.30,546.32 540.57,556.48 543.85,559.12 547.12,556.64 550.39,552.63 553.67,544.83 556.94,540.11 560.22,536.22 563.49,533.32 566.76,529.94 570.04,528.80 573.31,528.19 576.59,530.03 579.86,529.07 583.14,525.08 586.41,526.91 589.68,533.85 592.96,541.62 596.23,552.20 599.51,560.35 602.78,567.81 606.05,576.16 609.33,579.17 612.60,578.52 615.88,573.05 619.15,570.24 622.42,567.15 625.70,561.15 628.97,553.26 632.25,546.34 635.52,539.71 638.80,541.21 642.07,543.04 645.34,541.16 648.62,536.44 651.89,542.06 655.17,552.30 658.44,563.28 661.71,566.77 664.99,563.08 668.26,556.25 671.54,547.20 674.81,536.98 678.08,527.46 681.36,519.21 684.63,512.88 687.91,507.65 691.18,503.47 694.46,500.23 697.73,498.05 701.00,496.27 704.28,495.20 707.55,494.96 710.83,494.51 714.10,495.18 717.37,495.43 720.65,496.70 723.92,502.00 727.20,506.74 730.47,507.74 733.75,506.65 737.02,506.70 740.29,505.86 743.57,503.83 746.84,504.21 750.12,502.91 753.39,501.13 756.66,502.15 759.94,502.33 763.21,501.81 766.49,505.98 769.76,517.61 773.03,529.18 776.31,533.48 779.58,532.96 782.86,529.05 786.13,523.49 789.41,520.09 792.68,517.31 795.95,515.16 799.23,513.16 802.50,509.83 805.78,506.66 809.05,506.06 812.32,518.20 815.60,529.00 818.87,537.85 822.15,547.87 825.42,550.64 828.69,548.52 831.97,541.29 835.24,537.48 838.52,534.49 841.79,528.84 845.07,522.15 848.34,522.02 851.61,526.06 854.89,529.51 858.16,540.16 861.44,546.34 864.71,545.41 867.98,548.31 871.26,555.71 874.53,561.70 877.81,568.55 881.08,573.68 884.36,574.93 887.63,574.35 890.90,576.63 894.18,577.01 897.45,577.94 900.73,581.77 904.00,584.05" />
<text x="824.00" y="502.00" font-size="13" font-family="Arial" fill="#2ca02c" text-anchor="start">K</text>
<text x="860.00" y="502.00" font-size="13" font-family="Arial" fill="#d62728" text-anchor="start">D</text>
</svg>