<svg xmlns="http://www.w3.org/2000/svg" width="960" height="680" viewBox="0 0 960 680"><rect width="100%" height="100%" fill="white" />
<text x="56.00" y="32.00" font-size="20" font-family="Arial" fill="#1f2933" text-anchor="start">SOXX Technical Indicators</text>
<line x1="56" y1="220" x2="904" y2="220" stroke="#cbd2d9" />
<line x1="56" y1="58" x2="56" y2="220" stroke="#cbd2d9" />
<text x="16.00" y="50.00" font-size="12" font-family="Arial" fill="#52606d" text-anchor="start">RSI14</text>
<line x1="56" y1="220.00" x2="904" y2="220.00" stroke="#edf2f7" />
<line x1="52" y1="220.00" x2="56" y2="220.00" stroke="#9fb3c8" />
<text x="48.00" y="224.00" font-size="11" font-family="Arial" fill="#52606d" text-anchor="end">-5.00</text>
<line x1="56" y1="166.00" x2="904" y2="166.00" stroke="#edf2f7" />
<line x1="52" y1="166.00" x2="56" y2="166.00" stroke="#9fb3c8" />
<text x="48.00" y="170.00" font-size="11" font-family="Arial" fill="#52606d" text-anchor="end">31.7</text>
<line x1="56" y1="112.00" x2="904" y2="112.00" stroke="#edf2f7" />
<line x1="52" y1="112.00" x2="56" y2="112.00" stroke="#9fb3c8" />
<text x="48.00" y="116.00" font-size="11" font-family="Arial" fill="#52606d" text-anchor="end">68.3</text>
<line x1="56" y1="58.00" x2="904" y2="58.00" stroke="#edf2f7" />
<line x1="52" y1="58.00" x2="56" y2="58.00" stroke="#9fb3c8" />
<text x="48.00" y="62.00" font-size="11" font-family="Arial" fill="#52606d" text-anchor="end">105</text>
<line x1="56" y1="168.45" x2="904" y2="168.45" stroke="#f0b429" stroke-dasharray="5 5" />
<text x="912.00" y="172.45" font-size="10" font-family="Arial" fill="#8d2b0b" text-anchor="start">30.0</text>
<line x1="56" y1="109.55" x2="904" y2="109.55" stroke="#f0b429" stroke-dasharray="5 5" />
<text x="912.00" y="113.55" font-size="10" font-family="Arial" fill="#8d2b0b" text-anchor="start">70.0</text>
<polyline fill="none" stroke="#1f77b4" stroke-width="2" points="101.84,115.91 105.11,127.76 108.39,132.35 111.66,133.90 114.93,133.97 118.21,123.09 121.48,122.08 124.76,118.09 128.03,142.10 131.31,148.30 134.58,140.27 137.85,144.05 141.13,147.97 144.40,138.23 147.68,133.72 150.95,134.90 154.22,120.12 157.50,114.70 160.77,114.34 164.05,129.21 167.32,127.93 170.59,136.68 173.87,139.62 177.14,142.48 180.42,129.32 183.69,130.62 186.97,126.48 190.24,125.62 193.51,123.44 196.79,140.27 200.06,145.01 203.34,147.14 206.61,141.54 209.88,135.56 213.16,132.03 216.43,131.61 219.71,123.42 222.98,120.51 226.25,119.75 229.53,116.13 232.80,114.00 236.08,114.17 239.35,101.98 242.63,107.34 245.90,102.80 249.17,103.82 252.45,105.20 255.72,108.18 259.00,107.32 262.27,107.17 265.54,103.85 268.82,97.33 272.09,92.30 275.37,98.55 278.64,91.46 281.92,109.66 285.19,101.04 288.46,104.23 291.74,135.98 295.01,123.09 298.29,130.42 301.56,122.94 304.83,121.85 308.11,122.96 311.38,118.81 314.66,121.23 317.93,131.17 321.20,124.50 324.48,120.35 327.75,114.04 331.03,113.77 334.30,110.07 337.58,116.51 340.85,115.59 344.12,114.07 347.40,131.59 350.67,123.18 353.95,132.65 357.22,136.06 360.49,128.92 363.77,136.38 367.04,132.15 370.32,142.40 373.59,143.20 376.86,147.76 380.14,153.33 383.41,147.96 386.69,158.38 389.96,155.23 393.24,142.93 396.51,142.09 399.78,134.90 403.06,130.41 406.33,130.26 409.61,125.30 412.88,120.32 416.15,124.06 419.43,121.58 422.70,118.94 425.98,119.75 429.25,116.36 432.53,119.10 435.80,138.09 439.07,139.65 442.35,141.15 445.62,151.93 448.90,144.00 452.17,136.05 455.44,132.27 458.72,131.22 461.99,130.06 465.27,130.19 468.54,131.20 471.81,131.80 475.09,137.36 478.36,123.12 481.64,119.13 484.91,111.12 488.19,116.32 491.46,123.83 494.73,116.40 498.01,115.24 501.28,113.04 504.56,115.23 507.83,111.10 511.10,107.40 514.38,115.64 517.65,108.06 520.93,107.72 524.20,114.00 527.47,116.57 530.75,110.41 534.02,104.47 537.30,104.08 540.57,125.04 543.85,120.13 547.12,128.36 550.39,142.84 553.67,142.42 556.94,128.03 560.22,125.14 563.49,126.48 566.76,120.49 570.04,129.23 573.31,126.94 576.59,127.53 579.86,124.58 583.14,126.96 586.41,124.01 589.68,127.21 592.96,122.75 596.23,118.07 599.51,131.46 602.78,136.16 606.05,136.41 609.33,151.96 612.60,145.10 615.88,148.17 619.15,158.22 622.42,146.01 625.70,143.89 628.97,141.03 632.25,149.97 635.52,148.90 638.80,142.84 642.07,140.47 645.34,142.20 648.62,140.31 651.89,147.27 655.17,143.00 658.44,138.55 661.71,134.46 664.99,149.23 668.26,153.19 671.54,161.89 674.81,144.66 678.08,137.41 681.36,136.65 684.63,133.41 687.91,130.79 691.18,117.46 694.46,113.61 697.73,110.16 701.00,107.42 704.28,104.41 707.55,104.17 710.83,102.58 714.10,99.03 717.37,98.39 720.65,97.27 723.92,93.65 727.20,91.04 730.47,86.37 733.75,93.39 737.02,109.97 740.29,105.87 743.57,102.17 746.84,100.86 750.12,104.42 753.39,98.13 756.66,92.61 759.94,104.41 763.21,97.80 766.49,95.36 769.76,106.89 773.03,103.90 776.31,103.48 779.58,117.27 782.86,124.33 786.13,124.01 789.41,115.95 792.68,114.59 795.95,110.82 799.23,102.80 802.50,106.56 805.78,105.24 809.05,105.50 812.32,104.75 815.60,97.22 818.87,95.24 822.15,104.08 825.42,134.74 828.69,125.53 831.97,129.04 835.24,136.38 838.52,124.15 841.79,121.99 845.07,115.14 848.34,127.80 851.61,125.87 854.89,117.71 858.16,114.89 861.44,130.66 864.71,131.18 867.98,126.00 871.26,135.70 874.53,130.28 877.81,124.94 881.08,135.56 884.36,142.95 887.63,139.47 890.90,145.81 894.18,143.29 897.45,138.59 900.73,138.67 904.00,145.31" />
<text x="808.00" y="76.00" font-size="13" font-family="Arial" fill="#1f77b4" text-anchor="start">RSI14</text>
<line x1="56" y1="432" x2="904" y2="432" stroke="#cbd2d9" />
<line x1="56" y1="272" x2="56" y2="432" stroke="#cbd2d9" />
<text x="16.00" y="264.00" font-size="12" font-family="Arial" fill="#52606d" text-anchor="start">MACD</text>
<line x1="56" y1="432.00" x2="904" y2="432.00" stroke="#edf2f7" />
<line x1="52" y1="432.00" x2="56" y2="432.00" stroke="#9fb3c8" />
<text x="48.00" y="436.00" font-size="11" font-family="Arial" fill="#52606d" text-anchor="end">-13.7</text>
<line x1="56" y1="378.67" x2="904" y2="378.67" stroke="#edf2f7" />
<line x1="52" y1="378.67" x2="56" y2="378.67" stroke="#9fb3c8" />
<text x="48.00" y="382.67" font-size="11" font-family="Arial" fill="#52606d" text-anchor="end">5.09</text>
<line x1="56" y1="325.33" x2="904" y2="325.33" stroke="#edf2f7" />
<line x1="52" y1="325.33" x2="56" y2="325.33" stroke="#9fb3c8" />
<text x="48.00" y="329.33" font-size="11" font-family="Arial" fill="#52606d" text-anchor="end">23.8</text>
<line x1="56" y1="272.00" x2="904" y2="272.00" stroke="#edf2f7" />
<line x1="52" y1="272.00" x2="56" y2="272.00" stroke="#9fb3c8" />
<text x="48.00" y="276.00" font-size="11" font-family="Arial" fill="#52606d" text-anchor="end">42.6</text>
<line x1="56" y1="393.15" x2="904" y2="393.15" stroke="#9fb3c8" stroke-dasharray="4 4" />
<rect x="136.71" y="393.15" width="2.28" height="0.00" fill="#2f9e44" opacity="0.55" />
<rect x="139.99" y="393.15" width="2.28" height="0.87" fill="#d64545" opacity="0.55" />
<rect x="143.26" y="393.15" width="2.28" height="0.65" fill="#d64545" opacity="0.55" />
<rect x="146.53" y="393.15" width="2.28" height="0.10" fill="#d64545" opacity="0.55" />
<rect x="149.81" y="392.98" width="2.28" height="0.17" fill="#2f9e44" opacity="0.55" />
<rect x="153.08" y="391.40" width="2.28" height="1.75" fill="#2f9e44" opacity="0.55" />
<rect x="156.36" y="389.83" width="2.28" height="3.32" fill="#2f9e44" opacity="0.55" />
<rect x="159.63" y="388.97" width="2.28" height="4.18" fill="#2f9e44" opacity="0.55" />
<rect x="162.90" y="389.71" width="2.28" height="3.44" fill="#2f9e44" opacity="0.55" />
<rect x="166.18" y="390.25" width="2.28" height="2.91" fill="#2f9e44" opacity="0.55" />
<rect x="169.45" y="391.46" width="2.28" height="1.69" fill="#2f9e44" opacity="0.55" />
<rect x="172.73" y="392.60" width="2.28" height="0.55" fill="#2f9e44" opacity="0.55" />
<rect x="176.00" y="393.15" width="2.28" height="0.47" fill="#d64545" opacity="0.55" />
<rect x="179.28" y="393.05" width="2.28" height="0.11" fill="#2f9e44" opacity="0.55" />
<rect x="182.55" y="392.83" width="2.28" height="0.33" fill="#2f9e44" opacity="0.55" />
<rect x="185.82" y="392.31" width="2.28" height="0.84" fill="#2f9e44" opacity="0.55" />
<rect x="189.10" y="391.98" width="2.28" height="1.17" fill="#2f9e44" opacity="0.55" />
<rect x="192.37" y="391.65" width="2.28" height="1.51" fill="#2f9e44" opacity="0.55" />
<rect x="195.65" y="392.86" width="2.28" height="0.29" fill="#2f9e44" opacity="0.55" />
<rect x="198.92" y="393.15" width="2.28" height="0.98" fill="#d64545" opacity="0.55" />
<rect x="202.19" y="393.15" width="2.28" height="1.96" fill="#d64545" opacity="0.55" />
<rect x="205.47" y="393.15" width="2.28" height="2.06" fill="#d64545" opacity="0.55" />
<rect x="208.74" y="393.15" width="2.28" height="1.52" fill="#d64545" opacity="0.55" />
<rect x="212.02" y="393.15" width="2.28" height="0.80" fill="#d64545" opacity="0.55" />
<rect x="215.29" y="393.15" width="2.28" height="0.29" fill="#d64545" opacity="0.55" />
<rect x="218.57" y="392.34" width="2.28" height="0.81" fill="#2f9e44" opacity="0.55" />
<rect x="221.84" y="391.40" width="2.28" height="1.76" fill="#2f9e44" opacity="0.55" />
<rect x="225.11" y="390.84" width="2.28" height="2.31" fill="#2f9e44" opacity="0.55" />
<rect x="228.39" y="390.26" width="2.28" height="2.89" fill="#2f9e44" opacity="0.55" />
<rect x="231.66" y="389.85" width="2.28" height="3.31" fill="#2f9e44" opacity="0.55" />
<rect x="234.94" y="389.82" width="2.28" height="3.34" fill="#2f9e44" opacity="0.55" />
<rect x="238.21" y="388.39" width="2.28" height="4.76" fill="#2f9e44" opacity="0.55" />
<rect x="241.48" y="388.12" width="2.28" height="5.03" fill="#2f9e44" opacity="0.55" />
<rect x="244.76" y="387.57" width="2.28" height="5.58" fill="#2f9e44" opacity="0.55" />
<rect x="248.03" y="387.67" width="2.28" height="5.48" fill="#2f9e44" opacity="0.55" />
<rect x="251.31" y="388.19" width="2.28" height="4.96" fill="#2f9e44" opacity="0.55" />
<rect x="254.58" y="389.05" width="2.28" height="4.10" fill="#2f9e44" opacity="0.55" />
<rect x="257.85" y="389.82" width="2.28" height="3.34" fill="#2f9e44" opacity="0.55" />
<rect x="261.13" y="390.59" width="2.28" height="2.57" fill="#2f9e44" opacity="0.55" />
<rect x="264.40" y="390.94" width="2.28" height="2.21" fill="#2f9e44" opacity="0.55" />
<rect x="267.68" y="390.48" width="2.28" height="2.68" fill="#2f9e44" opacity="0.55" />
<rect x="270.95" y="389.50" width="2.28" height="3.65" fill="#2f9e44" opacity="0.55" />
<rect x="274.23" y="389.55" width="2.28" height="3.60" fill="#2f9e44" opacity="0.55" />
<rect x="277.50" y="388.41" width="2.28" height="4.74" fill="#2f9e44" opacity="0.55" />
<rect x="280.77" y="389.29" width="2.28" height="3.86" fill="#2f9e44" opacity="0.55" />
<rect x="284.05" y="388.48" width="2.28" height="4.67" fill="#2f9e44" opacity="0.55" />
<rect x="287.32" y="388.66" width="2.28" height="4.49" fill="#2f9e44" opacity="0.55" />
<rect x="290.60" y="392.51" width="2.28" height="0.65" fill="#2f9e44" opacity="0.55" />
<rect x="293.87" y="392.82" width="2.28" height="0.33" fill="#2f9e44" opacity="0.55" />
<rect x="297.14" y="393.15" width="2.28" height="1.15" fill="#d64545" opacity="0.55" />
<rect x="300.42" y="393.15" width="2.28" height="0.66" fill="#d64545" opacity="0.55" />
<rect x="303.69" y="393.15" width="2.28" height="0.28" fill="#d64545" opacity="0.55" />
<rect x="306.97" y="393.15" width="2.28" height="0.38" fill="#d64545" opacity="0.55" />
<rect x="310.24" y="392.90" width="2.28" height="0.25" fill="#2f9e44" opacity="0.55" />
<rect x="313.51" y="393.02" width="2.28" height="0.14" fill="#2f9e44" opacity="0.55" />
<rect x="316.79" y="393.15" width="2.28" height="1.45" fill="#d64545" opacity="0.55" />
<rect x="320.06" y="393.15" width="2.28" height="1.31" fill="#d64545" opacity="0.55" />
<rect x="323.34" y="393.15" width="2.28" height="0.48" fill="#d64545" opacity="0.55" />
<rect x="326.61" y="391.79" width="2.28" height="1.36" fill="#2f9e44" opacity="0.55" />
<rect x="329.89" y="390.84" width="2.28" height="2.31" fill="#2f9e44" opacity="0.55" />
<rect x="333.16" y="389.64" width="2.28" height="3.52" fill="#2f9e44" opacity="0.55" />
<rect x="336.43" y="390.03" width="2.28" height="3.12" fill="#2f9e44" opacity="0.55" />
<rect x="339.71" y="390.46" width="2.28" height="2.69" fill="#2f9e44" opacity="0.55" />
<rect x="342.98" y="390.76" width="2.28" height="2.39" fill="#2f9e44" opacity="0.55" />
<rect x="346.26" y="393.15" width="2.28" height="0.34" fill="#d64545" opacity="0.55" />
<rect x="349.53" y="393.15" width="2.28" height="0.60" fill="#d64545" opacity="0.55" />
<rect x="352.80" y="393.15" width="2.28" height="2.40" fill="#d64545" opacity="0.55" />
<rect x="356.08" y="393.15" width="2.28" height="4.19" fill="#d64545" opacity="0.55" />
<rect x="359.35" y="393.15" width="2.28" height="3.93" fill="#d64545" opacity="0.55" />
<rect x="362.63" y="393.15" width="2.28" height="5.00" fill="#d64545" opacity="0.55" />
<rect x="365.90" y="393.15" width="2.28" height="4.78" fill="#d64545" opacity="0.55" />
<rect x="369.18" y="393.15" width="2.28" height="6.44" fill="#d64545" opacity="0.55" />
<rect x="372.45" y="393.15" width="2.28" height="7.46" fill="#d64545" opacity="0.55" />
<rect x="375.72" y="393.15" width="2.28" height="8.76" fill="#d64545" opacity="0.55" />
<rect x="379.00" y="393.15" width="2.28" height="10.43" fill="#d64545" opacity="0.55" />
<rect x="382.27" y="393.15" width="2.28" height="10.20" fill="#d64545" opacity="0.55" />
<rect x="385.55" y="393.15" width="2.28" height="12.05" fill="#d64545" opacity="0.55" />
<rect x="388.82" y="393.15" width="2.28" height="12.14" fill="#d64545" opacity="0.55" />
<rect x="392.09" y="393.15" width="2.28" height="9.44" fill="#d64545" opacity="0.55" />
<rect x="395.37" y="393.15" width="2.28" height="7.09" fill="#d64545" opacity="0.55" />
<rect x="398.64" y="393.15" width="2.28" height="3.83" fill="#d64545" opacity="0.55" />
<rect x="401.92" y="393.15" width="2.28" height="0.59" fill="#d64545" opacity="0.55" />
<rect x="405.19" y="391.63" width="2.28" height="1.52" fill="#2f9e44" opacity="0.55" />
<rect x="408.46" y="389.30" width="2.28" height="3.85" fill="#2f9e44" opacity="0.55" />
<rect x="411.74" y="386.85" width="2.28" height="6.31" fill="#2f9e44" opacity="0.55" />
<rect x="415.01" y="386.21" width="2.28" height="6.95" fill="#2f9e44" opacity="0.55" />
<rect x="418.29" y="385.62" width="2.28" height="7.53" fill="#2f9e44" opacity="0.55" />
<rect x="421.56" y="385.09" width="2.28" height="8.07" fill="#2f9e44" opacity="0.55" />
<rect x="424.84" y="385.33" width="2.28" height="7.82" fill="#2f9e44" opacity="0.55" />
<rect x="428.11" y="385.22" width="2.28" height="7.93" fill="#2f9e44" opacity="0.55" />
<rect x="431.38" y="385.99" width="2.28" height="7.16" fill="#2f9e44" opacity="0.55" />
<rect x="434.66" y="389.68" width="2.28" height="3.48" fill="#2f9e44" opacity="0.55" />
<rect x="437.93" y="392.56" width="2.28" height="0.60" fill="#2f9e44" opacity="0.55" />
<rect x="441.21" y="393.15" width="2.28" height="1.61" fill="#d64545" opacity="0.55" />
<rect x="444.48" y="393.15" width="2.28" height="5.01" fill="#d64545" opacity="0.55" />
<rect x="447.75" y="393.15" width="2.28" height="5.75" fill="#d64545" opacity="0.55" />
<rect x="451.03" y="393.15" width="2.28" height="4.59" fill="#d64545" opacity="0.55" />
<rect x="454.30" y="393.15" width="2.28" height="2.97" fill="#d64545" opacity="0.55" />
<rect x="457.58" y="393.15" width="2.28" height="1.67" fill="#d64545" opacity="0.55" />
<rect x="460.85" y="393.15" width="2.28" height="0.63" fill="#d64545" opacity="0.55" />
<rect x="464.12" y="393.15" width="2.28" height="0.02" fill="#d64545" opacity="0.55" />
<rect x="467.40" y="393.00" width="2.28" height="0.16" fill="#2f9e44" opacity="0.55" />
<rect x="470.67" y="393.03" width="2.28" height="0.12" fill="#2f9e44" opacity="0.55" />
<rect x="473.95" y="393.15" width="2.28" height="0.66" fill="#d64545" opacity="0.55" />
<rect x="477.22" y="392.06" width="2.28" height="1.09" fill="#2f9e44" opacity="0.55" />
<rect x="480.50" y="390.30" width="2.28" height="2.85" fill="#2f9e44" opacity="0.55" />
<rect x="483.77" y="387.55" width="2.28" height="5.60" fill="#2f9e44" opacity="0.55" />
<rect x="487.04" y="386.84" width="2.28" height="6.31" fill="#2f9e44" opacity="0.55" />
<rect x="490.32" y="387.79" width="2.28" height="5.36" fill="#2f9e44" opacity="0.55" />
<rect x="493.59" y="387.12" width="2.28" height="6.04" fill="#2f9e44" opacity="0.55" />
<rect x="496.87" y="386.85" width="2.28" height="6.30" fill="#2f9e44" opacity="0.55" />
<rect x="500.14" y="386.63" width="2.28" height="6.52" fill="#2f9e44" opacity="0.55" />
<rect x="503.41" y="387.24" width="2.28" height="5.91" fill="#2f9e44" opacity="0.55" />
<rect x="506.69" y="387.14" width="2.28" height="6.01" fill="#2f9e44" opacity="0.55" />
<rect x="509.96" y="386.63" width="2.28" height="6.52" fill="#2f9e44" opacity="0.55" />
<rect x="513.24" y="387.78" width="2.28" height="5.37" fill="#2f9e44" opacity="0.55" />
<rect x="516.51" y="387.04" width="2.28" height="6.12" fill="#2f9e44" opacity="0.55" />
<rect x="519.79" y="387.02" width="2.28" height="6.13" fill="#2f9e44" opacity="0.55" />
<rect x="523.06" y="388.29" width="2.28" height="4.86" fill="#2f9e44" opacity="0.55" />
<rect x="526.33" y="389.89" width="2.28" height="3.26" fill="#2f9e44" opacity="0.55" />
<rect x="529.61" y="389.88" width="2.28" height="3.28" fill="#2f9e44" opacity="0.55" />
<rect x="532.88" y="388.60" width="2.28" height="4.55" fill="#2f9e44" opacity="0.55" />
<rect x="536.16" y="388.20" width="2.28" height="4.96" fill="#2f9e44" opacity="0.55" />
<rect x="539.43" y="391.18" width="2.28" height="1.97" fill="#2f9e44" opacity="0.55" />
<rect x="542.70" y="392.29" width="2.28" height="0.86" fill="#2f9e44" opacity="0.55" />
<rect x="545.98" y="393.15" width="2.28" height="1.45" fill="#d64545" opacity="0.55" />
<rect x="549.25" y="393.15" width="2.28" height="5.88" fill="#d64545" opacity="0.55" />
<rect x="552.53" y="393.15" width="2.28" height="8.55" fill="#d64545" opacity="0.55" />
<rect x="555.80" y="393.15" width="2.28" height="6.82" fill="#d64545" opacity="0.55" />
<rect x="559.07" y="393.15" width="2.28" height="4.86" fill="#d64545" opacity="0.55" />
<rect x="562.35" y="393.15" width="2.28" height="3.84" fill="#d64545" opacity="0.55" />
<rect x="565.62" y="393.15" width="2.28" height="1.64" fill="#d64545" opacity="0.55" />
<rect x="568.90" y="393.15" width="2.28" height="1.97" fill="#d64545" opacity="0.55" />
<rect x="572.17" y="393.15" width="2.28" height="1.71" fill="#d64545" opacity="0.55" />
<rect x="575.45" y="393.15" width="2.28" height="1.78" fill="#d64545" opacity="0.55" />
<rect x="578.72" y="393.15" width="2.28" height="1.24" fill="#d64545" opacity="0.55" />
<rect x="581.99" y="393.15" width="2.28" height="1.42" fill="#d64545" opacity="0.55" />
<rect x="585.27" y="393.15" width="2.28" height="1.00" fill="#d64545" opacity="0.55" />
<rect x="588.54" y="393.15" width="2.28" height="1.37" fill="#d64545" opacity="0.55" />
<rect x="591.82" y="393.15" width="2.28" height="0.77" fill="#d64545" opacity="0.55" />
<rect x="595.09" y="392.62" width="2.28" height="0.53" fill="#2f9e44" opacity="0.55" />
<rect x="598.36" y="393.15" width="2.28" height="0.91" fill="#d64545" opacity="0.55" />
<rect x="601.64" y="393.15" width="2.28" height="2.77" fill="#d64545" opacity="0.55" />
<rect x="604.91" y="393.15" width="2.28" height="4.03" fill="#d64545" opacity="0.55" />
<rect x="608.19" y="393.15" width="2.28" height="7.91" fill="#d64545" opacity="0.55" />
<rect x="611.46" y="393.15" width="2.28" height="8.86" fill="#d64545" opacity="0.55" />
<rect x="614.73" y="393.15" width="2.28" height="9.82" fill="#d64545" opacity="0.55" />
<rect x="618.01" y="393.15" width="2.28" height="12.61" fill="#d64545" opacity="0.55" />
<rect x="621.28" y="393.15" width="2.28" height="11.45" fill="#d64545" opacity="0.55" />
<rect x="624.56" y="393.15" width="2.28" height="9.74" fill="#d64545" opacity="0.55" />
<rect x="627.83" y="393.15" width="2.28" height="7.61" fill="#d64545" opacity="0.55" />
<rect x="631.11" y="393.15" width="2.28" height="8.05" fill="#d64545" opacity="0.55" />
<rect x="634.38" y="393.15" width="2.28" height="7.71" fill="#d64545" opacity="0.55" />
<rect x="637.65" y="393.15" width="2.28" height="5.89" fill="#d64545" opacity="0.55" />
<rect x="640.93" y="393.15" width="2.28" height="3.94" fill="#d64545" opacity="0.55" />
<rect x="644.20" y="393.15" width="2.28" height="2.83" fill="#d64545" opacity="0.55" />
<rect x="647.48" y="393.15" width="2.28" height="1.60" fill="#d64545" opacity="0.55" />
<rect x="650.75" y="393.15" width="2.28" height="2.09" fill="#d64545" opacity="0.55" />
<rect x="654.02" y="393.15" width="2.28" height="1.50" fill="#d64545" opacity="0.55" />
<rect x="657.30" y="393.15" width="2.28" height="0.19" fill="#d64545" opacity="0.55" />
<rect x="660.57" y="391.70" width="2.28" height="1.46" fill="#2f9e44" opacity="0.55" />
<rect x="663.85" y="393.15" width="2.28" height="0.51" fill="#d64545" opacity="0.55" />
<rect x="667.12" y="393.15" width="2.28" height="2.64" fill="#d64545" opacity="0.55" />
<rect x="670.40" y="393.15" width="2.28" height="6.26" fill="#d64545" opacity="0.55" />
<rect x="673.67" y="393.15" width="2.28" height="4.70" fill="#d64545" opacity="0.55" />
<rect x="676.94" y="393.15" width="2.28" height="1.60" fill="#d64545" opacity="0.55" />
<rect x="680.22" y="392.45" width="2.28" height="0.70" fill="#2f9e44" opacity="0.55" />
<rect x="683.49" y="390.14" width="2.28" height="3.01" fill="#2f9e44" opacity="0.55" />
<rect x="686.77" y="388.11" width="2.28" height="5.04" fill="#2f9e44" opacity="0.55" />
<rect x="690.04" y="382.92" width="2.28" height="10.23" fill="#2f9e44" opacity="0.55" />
<rect x="693.31" y="378.67" width="2.28" height="14.48" fill="#2f9e44" opacity="0.55" />
<rect x="696.59" y="375.31" width="2.28" height="17.84" fill="#2f9e44" opacity="0.55" />
<rect x="699.86" y="372.94" width="2.28" height="20.21" fill="#2f9e44" opacity="0.55" />
<rect x="703.14" y="371.16" width="2.28" height="21.99" fill="#2f9e44" opacity="0.55" />
<rect x="706.41" y="371.21" width="2.28" height="21.94" fill="#2f9e44" opacity="0.55" />
<rect x="709.68" y="371.83" width="2.28" height="21.33" fill="#2f9e44" opacity="0.55" />
<rect x="712.96" y="371.78" width="2.28" height="21.37" fill="#2f9e44" opacity="0.55" />
<rect x="716.23" y="372.82" width="2.28" height="20.34" fill="#2f9e44" opacity="0.55" />
<rect x="719.51" y="374.28" width="2.28" height="18.87" fill="#2f9e44" opacity="0.55" />
<rect x="722.78" y="374.54" width="2.28" height="18.62" fill="#2f9e44" opacity="0.55" />
<rect x="726.06" y="374.41" width="2.28" height="18.75" fill="#2f9e44" opacity="0.55" />
<rect x="729.33" y="372.01" width="2.28" height="21.14" fill="#2f9e44" opacity="0.55" />
<rect x="732.60" y="373.24" width="2.28" height="19.91" fill="#2f9e44" opacity="0.55" />
<rect x="735.88" y="378.63" width="2.28" height="14.52" fill="#2f9e44" opacity="0.55" />
<rect x="739.15" y="381.30" width="2.28" height="11.86" fill="#2f9e44" opacity="0.55" />
<rect x="742.43" y="382.11" width="2.28" height="11.04" fill="#2f9e44" opacity="0.55" />
<rect x="745.70" y="383.05" width="2.28" height="10.11" fill="#2f9e44" opacity="0.55" />
<rect x="748.97" y="385.48" width="2.28" height="7.67" fill="#2f9e44" opacity="0.55" />
<rect x="752.25" y="384.32" width="2.28" height="8.83" fill="#2f9e44" opacity="0.55" />
<rect x="755.52" y="380.37" width="2.28" height="12.78" fill="#2f9e44" opacity="0.55" />
<rect x="758.80" y="381.91" width="2.28" height="11.24" fill="#2f9e44" opacity="0.55" />
<rect x="762.07" y="379.14" width="2.28" height="14.02" fill="#2f9e44" opacity="0.55" />
<rect x="765.34" y="376.65" width="2.28" height="16.51" fill="#2f9e44" opacity="0.55" />
<rect x="768.62" y="379.81" width="2.28" height="13.35" fill="#2f9e44" opacity="0.55" />
<rect x="771.89" y="381.10" width="2.28" height="12.06" fill="#2f9e44" opacity="0.55" />
<rect x="775.17" y="383.09" width="2.28" height="10.06" fill="#2f9e44" opacity="0.55" />
<rect x="778.44" y="389.66" width="2.28" height="3.49" fill="#2f9e44" opacity="0.55" />
<rect x="781.72" y="393.15" width="2.28" height="4.01" fill="#d64545" opacity="0.55" />
<rect x="784.99" y="393.15" width="2.28" height="9.23" fill="#d64545" opacity="0.55" />
<rect x="788.26" y="393.15" width="2.28" height="8.62" fill="#d64545" opacity="0.55" />
<rect x="791.54" y="393.15" width="2.28" height="7.83" fill="#d64545" opacity="0.55" />
<rect x="794.81" y="393.15" width="2.28" height="5.47" fill="#d64545" opacity="0.55" />
<rect x="798.09" y="391.73" width="2.28" height="1.42" fill="#2f9e44" opacity="0.55" />
<rect x="801.36" y="389.42" width="2.28" height="3.73" fill="#2f9e44" opacity="0.55" />
<rect x="804.63" y="388.00" width="2.28" height="5.15" fill="#2f9e44" opacity="0.55" />
<rect x="807.91" y="388.30" width="2.28" height="4.86" fill="#2f9e44" opacity="0.55" />
<rect x="811.18" y="389.07" width="2.28" height="4.08" fill="#2f9e44" opacity="0.55" />
<rect x="814.46" y="384.63" width="2.28" height="8.52" fill="#2f9e44" opacity="0.55" />
<rect x="817.73" y="381.25" width="2.28" height="11.91" fill="#2f9e44" opacity="0.55" />
<rect x="821.01" y="383.01" width="2.28" height="10.14" fill="#2f9e44" opacity="0.55" />
<rect x="824.28" y="393.15" width="2.28" height="3.85" fill="#d64545" opacity="0.55" />
<rect x="827.55" y="393.15" width="2.28" height="7.60" fill="#d64545" opacity="0.55" />
<rect x="830.83" y="393.15" width="2.28" height="12.15" fill="#d64545" opacity="0.55" />
<rect x="834.10" y="393.15" width="2.28" height="18.98" fill="#d64545" opacity="0.55" />
<rect x="837.38" y="393.15" width="2.28" height="14.87" fill="#d64545" opacity="0.55" />
<rect x="840.65" y="393.15" width="2.28" height="10.62" fill="#d64545" opacity="0.55" />
<rect x="843.92" y="393.15" width="2.28" height="2.28" fill="#d64545" opacity="0.55" />
<rect x="847.20" y="393.15" width="2.28" height="4.47" fill="#d64545" opacity="0.55" />
<rect x="850.47" y="393.15" width="2.28" height="4.82" fill="#d64545" opacity="0.55" />
<rect x="853.75" y="391.49" width="2.28" height="1.67" fill="#2f9e44" opacity="0.55" />
<rect x="857.02" y="385.44" width="2.28" height="7.72" fill="#2f9e44" opacity="0.55" />
<rect x="860.29" y="392.20" width="2.28" height="0.96" fill="#2f9e44" opacity="0.55" />
<rect x="863.57" y="393.15" width="2.28" height="4.45" fill="#d64545" opacity="0.55" />
<rect x="866.84" y="393.15" width="2.28" height="4.07" fill="#d64545" opacity="0.55" />
<rect x="870.12" y="393.15" width="2.28" height="10.77" fill="#d64545" opacity="0.55" />
<rect x="873.39" y="393.15" width="2.28" height="10.71" fill="#d64545" opacity="0.55" />
<rect x="876.67" y="393.15" width="2.28" height="6.02" fill="#d64545" opacity="0.55" />
<rect x="879.94" y="393.15" width="2.28" height="10.92" fill="#d64545" opacity="0.55" />
<rect x="883.21" y="393.15" width="2.28" height="20.14" fill="#d64545" opacity="0.55" />
<rect x="886.49" y="393.15" width="2.28" height="22.74" fill="#d64545" opacity="0.55" />
<rect x="889.76" y="393.15" width="2.28" height="29.15" fill="#d64545" opacity="0.55" />
<rect x="893.04" y="393.15" width="2.28" height="30.28" fill="#d64545" opacity="0.55" />
<rect x="896.31" y="393.15" width="2.28" height="26.26" fill="#d64545" opacity="0.55" />
<rect x="899.58" y="393.15" width="2.28" height="22.80" fill="#d64545" opacity="0.55" />
<rect x="902.86" y="393.15" width="2.28" height="24.80" fill="#d64545" opacity="0.55" />
<polyline fill="none" stroke="#1f77b4" stroke-width="2" points="137.85,393.94 141.13,395.03 144.40,394.97 147.68,394.45 150.95,394.13 154.22,392.12 157.50,389.71 160.77,387.81 164.05,387.69 167.32,387.50 170.59,388.29 173.87,389.29 177.14,390.42 180.42,389.83 183.69,389.53 186.97,388.80 190.24,388.17 193.51,387.47 196.79,388.61 200.06,390.12 203.34,391.60 206.61,392.21 209.88,392.05 213.16,391.53 216.43,391.10 219.71,389.79 222.98,388.40 226.25,387.28 229.53,385.97 232.80,384.73 236.08,383.86 239.35,381.25 242.63,379.72 245.90,377.77 249.17,376.50 252.45,375.78 255.72,375.62 259.00,375.55 262.27,375.68 265.54,375.48 268.82,374.34 272.09,372.46 275.37,371.61 278.64,369.29 281.92,369.20 285.19,367.22 288.46,366.28 291.74,369.96 295.01,370.20 298.29,371.96 301.56,371.64 304.83,371.33 308.11,371.52 311.38,370.83 314.66,370.91 317.93,372.86 321.20,373.05 324.48,372.34 327.75,370.16 331.03,368.63 334.30,366.54 337.58,366.16 340.85,365.91 344.12,365.61 347.40,368.44 350.67,368.85 353.95,371.25 357.22,374.09 360.49,374.80 363.77,377.12 367.04,378.10 370.32,381.36 373.59,384.25 376.86,387.74 380.14,392.02 383.41,394.35 386.69,399.21 389.96,402.33 393.24,401.99 396.51,401.42 399.78,399.11 403.06,396.02 406.33,393.53 409.61,390.23 412.88,386.20 416.15,383.82 419.43,381.36 422.70,378.81 425.98,377.10 429.25,375.00 432.53,373.98 435.80,376.80 439.07,379.53 442.35,382.13 445.62,386.79 448.90,388.96 452.17,388.95 455.44,388.08 458.72,387.20 461.99,386.31 465.27,385.71 468.54,385.49 471.81,385.50 475.09,386.44 478.36,384.42 481.64,381.94 484.91,377.80 488.19,375.51 491.46,375.12 494.73,372.93 498.01,371.10 501.28,369.24 504.56,368.37 507.83,366.77 511.10,364.63 514.38,364.43 517.65,362.16 520.93,360.62 524.20,360.67 527.47,361.46 530.75,360.62 534.02,358.21 537.30,356.56 540.57,359.06 543.85,359.95 547.12,362.62 550.39,368.53 553.67,373.33 556.94,373.31 560.22,372.56 563.49,372.50 566.76,370.71 570.04,371.53 573.31,371.71 576.59,372.22 579.86,371.99 583.14,372.52 586.41,372.36 589.68,373.06 592.96,372.66 596.23,371.22 599.51,372.89 602.78,375.45 606.05,377.71 609.33,383.57 612.60,386.74 615.88,390.15 619.15,396.09 622.42,397.80 625.70,398.52 628.97,398.29 632.25,400.75 635.52,402.33 638.80,401.99 642.07,401.02 645.34,400.62 648.62,399.79 651.89,400.81 655.17,400.59 658.44,399.33 661.71,397.32 664.99,399.41 668.26,402.20 671.54,407.38 674.81,407.00 678.08,404.31 681.36,401.82 684.63,398.76 687.91,395.47 691.18,387.72 694.46,379.85 697.73,372.03 701.00,364.61 704.28,357.33 707.55,351.90 710.83,347.18 714.10,341.79 717.37,337.74 720.65,334.49 723.92,330.09 727.20,325.27 730.47,317.60 733.75,313.85 737.02,315.61 740.29,315.31 743.57,313.36 746.84,311.77 750.12,312.29 753.39,308.92 756.66,301.77 759.94,300.50 763.21,294.22 766.49,287.61 769.76,287.43 773.03,285.71 776.31,285.18 779.58,290.89 782.86,299.39 786.13,306.92 789.41,308.46 792.68,309.63 795.95,308.64 799.23,301.39 802.50,298.14 805.78,295.44 809.05,294.52 812.32,294.28 815.60,287.71 818.87,281.34 822.15,280.57 825.42,295.53 828.69,301.18 831.97,308.76 835.24,320.34 838.52,319.95 841.79,318.35 845.07,310.58 848.34,313.88 851.61,315.45 854.89,308.54 858.16,300.56 861.44,307.08 864.71,313.60 867.98,314.24 871.26,323.64 874.53,326.25 877.81,323.07 881.08,330.70 884.36,344.96 887.63,353.23 890.90,366.94 894.18,375.63 897.45,378.17 900.73,380.42 904.00,388.62" />
<polyline fill="none" stroke="#ff7f0e" stroke-width="2" points="137.85,393.94 141.13,394.16 144.40,394.32 147.68,394.35 150.95,394.30 154.22,393.87 157.50,393.04 160.77,391.99 164.05,391.13 167.32,390.40 170.59,389.98 173.87,389.84 177.14,389.96 180.42,389.93 183.69,389.85 186.97,389.64 190.24,389.35 193.51,388.97 196.79,388.90 200.06,389.14 203.34,389.63 206.61,390.15 209.88,390.53 213.16,390.73 216.43,390.80 219.71,390.60 222.98,390.16 226.25,389.58 229.53,388.86 232.80,388.03 236.08,387.20 239.35,386.01 242.63,384.75 245.90,383.36 249.17,381.98 252.45,380.74 255.72,379.72 259.00,378.89 262.27,378.24 265.54,377.69 268.82,377.02 272.09,376.11 275.37,375.21 278.64,374.02 281.92,373.06 285.19,371.89 288.46,370.77 291.74,370.61 295.01,370.52 298.29,370.81 301.56,370.98 304.83,371.05 308.11,371.14 311.38,371.08 314.66,371.05 317.93,371.41 321.20,371.74 324.48,371.86 327.75,371.52 331.03,370.94 334.30,370.06 337.58,369.28 340.85,368.61 344.12,368.01 347.40,368.09 350.67,368.25 353.95,368.85 357.22,369.89 360.49,370.88 363.77,372.12 367.04,373.32 370.32,374.93 373.59,376.79 376.86,378.98 380.14,381.59 383.41,384.14 386.69,387.16 389.96,390.19 393.24,392.55 396.51,394.32 399.78,395.28 403.06,395.43 406.33,395.05 409.61,394.08 412.88,392.51 416.15,390.77 419.43,388.89 422.70,386.87 425.98,384.92 429.25,382.93 432.53,381.14 435.80,380.27 439.07,380.12 442.35,380.53 445.62,381.78 448.90,383.22 452.17,384.36 455.44,385.11 458.72,385.52 461.99,385.68 465.27,385.69 468.54,385.65 471.81,385.62 475.09,385.78 478.36,385.51 481.64,384.80 484.91,383.40 488.19,381.82 491.46,380.48 494.73,378.97 498.01,377.40 501.28,375.76 504.56,374.29 507.83,372.78 511.10,371.15 514.38,369.81 517.65,368.28 520.93,366.75 524.20,365.53 527.47,364.72 530.75,363.90 534.02,362.76 537.30,361.52 540.57,361.03 543.85,360.81 547.12,361.17 550.39,362.64 553.67,364.78 556.94,366.49 560.22,367.70 563.49,368.66 566.76,369.07 570.04,369.56 573.31,369.99 576.59,370.44 579.86,370.75 583.14,371.10 586.41,371.35 589.68,371.69 592.96,371.89 596.23,371.75 599.51,371.98 602.78,372.67 606.05,373.68 609.33,375.66 612.60,377.87 615.88,380.33 619.15,383.48 622.42,386.34 625.70,388.78 628.97,390.68 632.25,392.70 635.52,394.62 638.80,396.10 642.07,397.08 645.34,397.79 648.62,398.19 651.89,398.71 655.17,399.09 658.44,399.14 661.71,398.77 664.99,398.90 668.26,399.56 671.54,401.12 674.81,402.30 678.08,402.70 681.36,402.53 684.63,401.77 687.91,400.51 691.18,397.95 694.46,394.33 697.73,389.87 701.00,384.82 704.28,379.32 707.55,373.84 710.83,368.51 714.10,363.16 717.37,358.08 720.65,353.36 723.92,348.71 727.20,344.02 730.47,338.74 733.75,333.76 737.02,330.13 740.29,327.16 743.57,324.40 746.84,321.88 750.12,319.96 753.39,317.75 756.66,314.56 759.94,311.74 763.21,308.24 766.49,304.11 769.76,300.78 773.03,297.76 776.31,295.25 779.58,294.37 782.86,295.38 786.13,297.69 789.41,299.84 792.68,301.80 795.95,303.17 799.23,302.81 802.50,301.88 805.78,300.59 809.05,299.37 812.32,298.35 815.60,296.23 818.87,293.25 822.15,290.71 825.42,291.68 828.69,293.58 831.97,296.61 835.24,301.36 838.52,305.08 841.79,307.73 845.07,308.30 848.34,309.42 851.61,310.62 854.89,310.21 858.16,308.28 861.44,308.04 864.71,309.15 867.98,310.17 871.26,312.86 874.53,315.54 877.81,317.05 881.08,319.78 884.36,324.81 887.63,330.50 890.90,337.79 894.18,345.35 897.45,351.92 900.73,357.62 904.00,363.82" />
<text x="754.00" y="290.00" font-size="13" font-family="Arial" fill="#1f77b4" text-anchor="start">MACD</text>
<text x="818.00" y="290.00" font-size="13" font-family="Arial" fill="#ff7f0e" text-anchor="start">Signal</text>
<line x1="56" y1="624" x2="904" y2="624" stroke="#cbd2d9" />
<line x1="56" y1="484" x2="56" y2="624" stroke="#cbd2d9" />
<text x="16.00" y="476.00" font-size="12" font-family="Arial" fill="#52606d" text-anchor="start">KD</text>
<line x1="56" y1="624.00" x2="904" y2="624.00" stroke="#edf2f7" />
<line x1="52" y1="624.00" x2="56" y2="624.00" stroke="#9fb3c8" />
<text x="48.00" y="628.00" font-size="11" font-family="Arial" fill="#52606d" text-anchor="end">-5.00</text>
<line x1="56" y1="577.33" x2="904" y2="577.33" stroke="#edf2f7" />
<line x1="52" y1="577.33" x2="56" y2="577.33" stroke="#9fb3c8" />
<text x="48.00" y="581.33" font-size="11" font-family="Arial" fill="#52606d" text-anchor="end">31.7</text>
<line x1="56" y1="530.67" x2="904" y2="530.67" stroke="#edf2f7" />
<line x1="52" y1="530.67" x2="56" y2="530.67" stroke="#9fb3c8" />
<text x="48.00" y="534.67" font-size="11" font-family="Arial" fill="#52606d" text-anchor="end">68.3</text>
<line x1="56" y1="484.00" x2="904" y2="484.00" stroke="#edf2f7" />
<line x1="52" y1="484.00" x2="56" y2="484.00" stroke="#9fb3c8" />
<text x="48.00" y="488.00" font-size="11" font-family="Arial" fill="#52606d" text-anchor="end">105</text>
<line x1="56.00" y1="624" x2="56.00" y2="628" stroke="#9fb3c8" />
<text x="56.00" y="642.00" font-size="11" font-family="Arial" fill="#52606d" text-anchor="middle">06/30</text>
<line x1="226.25" y1="624" x2="226.25" y2="628" stroke="#9fb3c8" />
<text x="226.25" y="642.00" font-size="11" font-family="Arial" fill="#52606d" text-anchor="middle">09/12</text>
<line x1="396.51" y1="624" x2="396.51" y2="628" stroke="#9fb3c8" />
<text x="396.51" y="642.00" font-size="11" font-family="Arial" fill="#52606d" text-anchor="middle">11/25</text>
<line x1="563.49" y1="624" x2="563.49" y2="628" stroke="#9fb3c8" />
<text x="563.49" y="642.00" font-size="11" font-family="Arial" fill="#52606d" text-anchor="middle">02/10</text>
<line x1="733.75" y1="624" x2="733.75" y2="628" stroke="#9fb3c8" />
<text x="733.75" y="642.00" font-size="11" font-family="Arial" fill="#52606d" text-anchor="middle">04/27</text>
<line x1="904.00" y1="624" x2="904.00" y2="628" stroke="#9fb3c8" />
<text x="904.00" y="642.00" font-size="11" font-family="Arial" fill="#52606d" text-anchor="middle">07/13</text>
<line x1="56" y1="592.18" x2="904" y2="592.18" stroke="#f0b429" stroke-dasharray="5 5" />
<text x="912.00" y="596.18" font-size="10" font-family="Arial" fill="#8d2b0b" text-anchor="start">20.0</text>
<line x1="56" y1="515.82" x2="904" y2="515.82" stroke="#f0b429" stroke-dasharray="5 5" />
<text x="912.00" y="519.82" font-size="10" font-family="Arial" fill="#8d2b0b" text-anchor="start">80.0</text>
<polyline fill="none" stroke="#2ca02c" stroke-width="2" points="82.19,540.66 85.47,539.12 88.74,538.72 92.02,541.75 95.29,540.52 98.56,541.08 101.84,541.14 105.11,554.31 108.39,568.27 111.66,579.47 114.93,587.02 118.21,576.07 121.48,567.11 124.76,554.46 128.03,571.27 131.31,577.33 134.58,573.61 137.85,575.24 141.13,580.74 144.40,574.81 147.68,565.87 150.95,561.00 154.22,540.70 157.50,526.65 160.77,518.72 164.05,524.92 167.32,527.62 170.59,544.19 173.87,555.66 177.14,566.55 180.42,557.99 183.69,553.65 186.97,545.25 190.24,532.82 193.51,525.92 196.79,539.05 200.06,553.91 203.34,568.83 206.61,572.28 209.88,567.06 213.16,558.88 216.43,552.88 219.71,537.41 222.98,527.52 226.25,519.89 229.53,512.80 232.80,507.68 236.08,509.24 239.35,507.03 242.63,508.88 245.90,506.14 249.17,508.69 252.45,511.35 255.72,515.38 259.00,516.82 262.27,518.76 265.54,518.44 268.82,512.11 272.09,508.07 275.37,511.76 278.64,511.38 281.92,520.01 285.19,512.84 288.46,510.60 291.74,540.21 295.01,538.62 298.29,551.14 301.56,542.17 304.83,533.50 308.11,528.97 311.38,521.10 314.66,518.81 317.93,530.23 321.20,528.20 324.48,521.92 327.75,514.13 331.03,509.75 334.30,508.21 337.58,512.34 340.85,513.69 344.12,512.34 347.40,529.03 350.67,535.94 353.95,559.79 357.22,564.49 360.49,556.58 363.77,560.65 367.04,556.57 370.32,569.32 373.59,573.49 376.86,583.32 380.14,591.84 383.41,590.58 386.69,599.12 389.96,595.31 393.24,580.60 396.51,567.03 399.78,545.80 403.06,528.49 406.33,519.33 409.61,512.32 412.88,505.87 416.15,504.21 419.43,504.06 422.70,501.67 425.98,502.07 429.25,501.20 432.53,503.80 435.80,540.09 439.07,565.90 442.35,578.25 445.62,590.75 448.90,590.32 452.17,580.02 455.44,567.97 458.72,556.30 461.99,543.36 465.27,529.06 468.54,520.85 471.81,516.11 475.09,524.59 478.36,518.08 481.64,518.55 484.91,510.91 488.19,511.04 491.46,519.15 494.73,512.78 498.01,507.26 501.28,505.81 504.56,508.10 507.83,513.79 511.10,510.82 514.38,516.33 517.65,512.01 520.93,512.79 524.20,520.29 527.47,528.74 530.75,521.98 534.02,514.65 537.30,511.22 540.57,531.51 543.85,538.55 547.12,553.07 550.39,567.58 553.67,576.78 556.94,564.40 560.22,551.69 563.49,544.62 566.76,529.23 570.04,530.66 573.31,528.43 576.59,527.51 579.86,523.19 583.14,526.52 586.41,526.98 589.68,533.70 592.96,527.15 596.23,517.09 599.51,530.59 602.78,547.71 606.05,557.16 609.33,573.37 612.60,576.63 615.88,582.73 619.15,592.87 622.42,585.17 625.70,577.24 628.97,562.09 632.25,564.62 635.52,560.98 638.80,549.15 642.07,537.47 645.34,532.51 648.62,526.44 651.89,544.22 655.17,546.68 658.44,537.42 661.71,526.99 664.99,553.29 668.26,572.80 671.54,585.24 674.81,573.74 678.08,555.71 681.36,542.57 684.63,529.10 687.91,516.54 691.18,508.43 694.46,502.71 697.73,500.23 701.00,497.17 704.28,495.12 707.55,493.76 710.83,493.69 714.10,492.70 717.37,493.05 720.65,494.48 723.92,493.62 727.20,496.52 730.47,495.94 733.75,499.23 737.02,512.61 740.29,516.21 743.57,509.75 746.84,504.46 750.12,506.80 753.39,504.19 756.66,499.76 759.94,504.98 763.21,500.30 766.49,497.56 769.76,504.21 773.03,502.67 776.31,500.78 779.58,514.32 782.86,540.86 786.13,552.34 789.41,542.08 792.68,531.90 795.95,521.25 799.23,512.35 802.50,513.30 805.78,511.75 809.05,510.87 812.32,509.14 815.60,503.19 818.87,500.32 822.15,504.85 825.42,542.48 828.69,550.61 831.97,555.55 835.24,567.89 838.52,556.19 841.79,544.29 845.07,526.82 848.34,529.85 851.61,528.53 854.89,517.54 858.16,508.78 861.44,521.77 864.71,534.14 867.98,536.40 871.26,561.47 874.53,558.69 877.81,543.55 881.08,554.12 884.36,570.50 887.63,573.68 890.90,582.26 894.18,583.95 897.45,577.41 900.73,573.19 904.00,581.19" />
<polyline fill="none" stroke="#d62728" stroke-width="2" points="82.19,549.55 85.47,546.07 88.74,543.62 92.02,543.00 95.29,542.17 98.56,541.81 101.84,541.59 105.11,545.83 108.39,553.31 111.66,562.03 114.93,570.36 118.21,572.26 121.48,570.55 124.76,565.18 128.03,567.21 131.31,570.58 134.58,571.59 137.85,572.81 141.13,575.45 144.40,575.24 147.68,572.11 150.95,568.41 154.22,559.17 157.50,548.33 160.77,538.46 164.05,533.95 167.32,531.84 170.59,535.95 173.87,542.52 177.14,550.53 180.42,553.02 183.69,553.23 186.97,550.57 190.24,544.65 193.51,538.41 196.79,538.62 200.06,543.72 203.34,552.09 206.61,558.82 209.88,561.57 213.16,560.67 216.43,558.07 219.71,551.18 222.98,543.30 226.25,535.49 229.53,527.93 232.80,521.18 236.08,517.20 239.35,513.81 242.63,512.17 245.90,510.16 249.17,509.67 252.45,510.23 255.72,511.95 259.00,513.57 262.27,515.30 265.54,516.35 268.82,514.94 272.09,512.65 275.37,512.35 278.64,512.03 281.92,514.69 285.19,514.07 288.46,512.91 291.74,522.01 295.01,527.55 298.29,535.41 301.56,537.67 304.83,536.28 308.11,533.84 311.38,529.60 314.66,526.00 317.93,527.41 321.20,527.67 324.48,525.76 327.75,521.88 331.03,517.84 334.30,514.63 337.58,513.86 340.85,513.81 344.12,513.32 347.40,518.55 350.67,524.35 353.95,536.16 357.22,545.61 360.49,549.26 363.77,553.06 367.04,554.23 370.32,559.26 373.59,564.00 376.86,570.44 380.14,577.57 383.41,581.91 386.69,587.65 389.96,590.20 393.24,587.00 396.51,580.34 399.78,568.83 403.06,555.38 406.33,543.37 409.61,533.02 412.88,523.97 416.15,517.38 419.43,512.94 422.70,509.19 425.98,506.81 429.25,504.94 432.53,504.56 435.80,516.40 439.07,532.90 442.35,548.02 445.62,562.26 448.90,571.61 452.17,574.42 455.44,572.27 458.72,566.95 461.99,559.09 465.27,549.08 468.54,539.67 471.81,531.82 475.09,529.41 478.36,525.63 481.64,523.27 484.91,519.15 488.19,516.45 491.46,517.35 494.73,515.83 498.01,512.97 501.28,510.59 504.56,509.76 507.83,511.10 511.10,511.01 514.38,512.78 517.65,512.52 520.93,512.61 524.20,515.17 527.47,519.69 530.75,520.46 534.02,518.52 537.30,516.09 540.57,521.23 543.85,527.00 547.12,535.69 550.39,546.32 553.67,556.48 556.94,559.12 560.22,556.64 563.49,552.63 566.76,544.83 570.04,540.11 573.31,536.22 576.59,533.32 579.86,529.94 583.14,528.80 586.41,528.19 589.68,530.03 592.96,529.07 596.23,525.08 599.51,526.91 602.78,533.85 606.05,541.62 609.33,552.20 612.60,560.35 615.88,567.81 619.15,576.16 622.42,579.17 625.70,578.52 628.97,573.05 632.25,570.24 635.52,567.15 638.80,561.15 642.07,553.26 645.34,546.34 648.62,539.71 651.89,541.21 655.17,543.04 658.44,541.16 661.71,536.44 664.99,542.06 668.26,552.30 671.54,563.28 674.81,566.77 678.08,563.08 681.36,556.25 684.63,547.20 687.91,536.98 691.18,527.46 694.46,519.21 697.73,512.88 701.00,507.65 704.28,503.47 707.55,500.23 710.83,498.05 714.10,496.27 717.37,495.20 720.65,494.96 723.92,494.51 727.20,495.18 730.47,495.43 733.75,496.70 737.02,502.00 740.29,506.74 743.57,507.74 746.84,506.65 750.12,506.70 753.39,505.86 756.66,503.83 759.94,504.21 763.21,502.91 766.49,501.13 769.76,502.15 773.03,502.33 776.31,501.81 779.58,505.98 782.86,517.61 786.13,529.18 789.41,533.48 792.68,532.96 795.95,529.05 799.23,523.49 802.50,520.09 805.78,517.31 809.05,515.16 812.32,513.16 815.60,509.83 818.87,506.66 822.15,506.06 825.42,518.20 828.69,529.00 831.97,537.85 835.24,547.87 838.52,550.64 841.79,548.52 845.07,541.29 848.34,537.48 851.61,534.49 854.89,528.84 858.16,522.15 861.44,522.02 864.71,526.06 867.98,529.51 871.26,540.16 874.53,546.34 877.81,545.41 881.08,548.31 884.36,555.71 887.63,561.70 890.90,568.55 894.18,573.68 897.45,574.93 900.73,574.35 904.00,576.63" />
<text x="824.00" y="502.00" font-size="13" font-family="Arial" fill="#2ca02c" text-anchor="start">K</text>
<text x="860.00" y="502.00" font-size="13" font-family="Arial" fill="#d62728" text-anchor="start">D</text>
</svg>