<svg xmlns="http://www.w3.org/2000/svg" width="960" height="680" viewBox="0 0 960 680"><rect width="100%" height="100%" fill="white" />
<text x="56.00" y="32.00" font-size="20" font-family="Arial" fill="#1f2933" text-anchor="start">TSM Technical Indicators</text>
<line x1="56" y1="220" x2="904" y2="220" stroke="#cbd2d9" />
<line x1="56" y1="58" x2="56" y2="220" stroke="#cbd2d9" />
<text x="16.00" y="50.00" font-size="12" font-family="Arial" fill="#52606d" text-anchor="start">RSI14</text>
<line x1="56" y1="220.00" x2="904" y2="220.00" stroke="#edf2f7" />
<line x1="52" y1="220.00" x2="56" y2="220.00" stroke="#9fb3c8" />
<text x="48.00" y="224.00" font-size="11" font-family="Arial" fill="#52606d" text-anchor="end">-5.00</text>
<line x1="56" y1="166.00" x2="904" y2="166.00" stroke="#edf2f7" />
<line x1="52" y1="166.00" x2="56" y2="166.00" stroke="#9fb3c8" />
<text x="48.00" y="170.00" font-size="11" font-family="Arial" fill="#52606d" text-anchor="end">31.7</text>
<line x1="56" y1="112.00" x2="904" y2="112.00" stroke="#edf2f7" />
<line x1="52" y1="112.00" x2="56" y2="112.00" stroke="#9fb3c8" />
<text x="48.00" y="116.00" font-size="11" font-family="Arial" fill="#52606d" text-anchor="end">68.3</text>
<line x1="56" y1="58.00" x2="904" y2="58.00" stroke="#edf2f7" />
<line x1="52" y1="58.00" x2="56" y2="58.00" stroke="#9fb3c8" />
<text x="48.00" y="62.00" font-size="11" font-family="Arial" fill="#52606d" text-anchor="end">105</text>
<line x1="56" y1="168.45" x2="904" y2="168.45" stroke="#f0b429" stroke-dasharray="5 5" />
<text x="912.00" y="172.45" font-size="10" font-family="Arial" fill="#8d2b0b" text-anchor="start">30.0</text>
<line x1="56" y1="109.55" x2="904" y2="109.55" stroke="#f0b429" stroke-dasharray="5 5" />
<text x="912.00" y="113.55" font-size="10" font-family="Arial" fill="#8d2b0b" text-anchor="start">70.0</text>
<polyline fill="none" stroke="#1f77b4" stroke-width="2" points="101.84,114.25 105.11,106.23 108.39,117.15 111.66,120.19 114.93,128.14 118.21,121.17 121.48,119.73 124.76,115.35 128.03,121.01 131.31,123.79 134.58,121.74 137.85,124.46 141.13,136.61 144.40,130.86 147.68,141.51 150.95,143.15 154.22,127.39 157.50,128.67 160.77,128.34 164.05,125.43 167.32,130.71 170.59,131.53 173.87,135.52 177.14,131.35 180.42,146.03 183.69,151.62 186.97,153.29 190.24,143.12 193.51,138.92 196.79,134.10 200.06,133.23 203.34,135.12 206.61,147.30 209.88,150.81 213.16,145.23 216.43,138.66 219.71,126.95 222.98,122.42 226.25,118.29 229.53,109.50 232.80,112.38 236.08,112.00 239.35,110.07 242.63,108.66 245.90,107.95 249.17,102.70 252.45,111.37 255.72,104.53 259.00,97.78 262.27,101.86 265.54,109.82 268.82,115.91 272.09,116.15 275.37,110.47 278.64,103.51 281.92,104.22 285.19,101.37 288.46,95.43 291.74,110.33 295.01,103.74 298.29,110.84 301.56,133.77 304.83,118.78 308.11,125.23 311.38,120.12 314.66,124.61 317.93,128.90 321.20,127.12 324.48,130.15 327.75,135.36 331.03,133.83 334.30,130.33 337.58,127.67 340.85,125.04 344.12,122.23 347.40,124.58 350.67,128.09 353.95,124.08 357.22,136.82 360.49,137.26 363.77,142.03 367.04,144.90 370.32,135.12 373.59,139.64 376.86,140.25 380.14,149.01 383.41,145.75 386.69,148.63 389.96,152.69 393.24,146.65 396.51,151.61 399.78,153.99 403.06,141.45 406.33,141.40 409.61,135.10 412.88,133.32 416.15,138.36 419.43,133.02 422.70,129.19 425.98,132.84 429.25,130.66 432.53,122.68 435.80,121.10 439.07,114.70 442.35,122.13 445.62,139.34 448.90,144.06 452.17,145.01 455.44,154.81 458.72,145.11 461.99,140.27 465.27,135.62 468.54,131.85 471.81,129.96 475.09,125.93 478.36,128.62 481.64,130.53 484.91,125.77 488.19,112.30 491.46,110.48 494.73,107.07 498.01,119.84 501.28,120.76 504.56,116.22 507.83,110.46 511.10,111.31 514.38,117.55 517.65,107.62 520.93,107.17 524.20,126.83 527.47,127.99 530.75,126.91 534.02,120.76 537.30,123.52 540.57,118.99 543.85,116.01 547.12,119.87 550.39,131.32 553.67,122.24 556.94,128.70 560.22,138.84 563.49,134.37 566.76,121.09 570.04,117.21 573.31,113.61 576.59,107.70 579.86,114.10 583.14,115.94 586.41,118.30 589.68,120.48 592.96,122.64 596.23,115.75 599.51,116.36 602.78,107.35 606.05,106.37 609.33,119.34 612.60,121.78 615.88,127.65 619.15,142.01 622.42,138.43 625.70,141.41 628.97,152.32 632.25,143.83 635.52,145.00 638.80,138.78 642.07,151.14 645.34,149.78 648.62,148.08 651.89,142.24 655.17,147.01 658.44,147.58 661.71,154.34 664.99,145.68 668.26,141.51 671.54,137.73 674.81,153.07 678.08,152.51 681.36,158.55 684.63,141.33 687.91,138.92 691.18,140.62 694.46,138.60 697.73,135.92 701.00,122.83 704.28,123.19 707.55,120.27 710.83,121.27 714.10,115.41 717.37,120.25 720.65,130.98 723.92,126.34 727.20,130.09 730.47,128.81 733.75,117.18 737.02,121.62 740.29,111.96 743.57,110.89 746.84,122.13 750.12,121.34 753.39,120.12 756.66,119.21 759.94,116.94 763.21,124.26 766.49,111.13 769.76,116.07 773.03,118.36 776.31,124.82 779.58,130.95 782.86,129.29 786.13,118.86 789.41,129.73 792.68,135.75 795.95,138.07 799.23,132.21 802.50,128.83 805.78,130.95 809.05,126.05 812.32,120.17 815.60,119.02 818.87,124.96 822.15,115.74 825.42,110.86 828.69,119.63 831.97,115.78 835.24,136.75 838.52,130.79 841.79,130.23 845.07,141.49 848.34,134.43 851.61,132.98 854.89,124.75 858.16,133.94 861.44,130.95 864.71,118.98 867.98,117.09 871.26,133.88 874.53,132.09 877.81,134.97 881.08,136.29 884.36,126.58 887.63,118.80 890.90,134.64 894.18,138.70 897.45,132.15 900.73,139.79 904.00,138.09" />
<text x="808.00" y="76.00" font-size="13" font-family="Arial" fill="#1f77b4" text-anchor="start">RSI14</text>
<line x1="56" y1="432" x2="904" y2="432" stroke="#cbd2d9" />
<line x1="56" y1="272" x2="56" y2="432" stroke="#cbd2d9" />
<text x="16.00" y="264.00" font-size="12" font-family="Arial" fill="#52606d" text-anchor="start">MACD</text>
<line x1="56" y1="432.00" x2="904" y2="432.00" stroke="#edf2f7" />
<line x1="52" y1="432.00" x2="56" y2="432.00" stroke="#9fb3c8" />
<text x="48.00" y="436.00" font-size="11" font-family="Arial" fill="#52606d" text-anchor="end">-7.61</text>
<line x1="56" y1="378.67" x2="904" y2="378.67" stroke="#edf2f7" />
<line x1="52" y1="378.67" x2="56" y2="378.67" stroke="#9fb3c8" />
<text x="48.00" y="382.67" font-size="11" font-family="Arial" fill="#52606d" text-anchor="end">0.17</text>
<line x1="56" y1="325.33" x2="904" y2="325.33" stroke="#edf2f7" />
<line x1="52" y1="325.33" x2="56" y2="325.33" stroke="#9fb3c8" />
<text x="48.00" y="329.33" font-size="11" font-family="Arial" fill="#52606d" text-anchor="end">7.95</text>
<line x1="56" y1="272.00" x2="904" y2="272.00" stroke="#edf2f7" />
<line x1="52" y1="272.00" x2="56" y2="272.00" stroke="#9fb3c8" />
<text x="48.00" y="276.00" font-size="11" font-family="Arial" fill="#52606d" text-anchor="end">15.7</text>
<line x1="56" y1="379.82" x2="904" y2="379.82" stroke="#9fb3c8" stroke-dasharray="4 4" />
<rect x="136.71" y="379.82" width="2.28" height="0.00" fill="#2f9e44" opacity="0.55" />
<rect x="139.99" y="379.82" width="2.28" height="3.78" fill="#d64545" opacity="0.55" />
<rect x="143.26" y="379.82" width="2.28" height="4.57" fill="#d64545" opacity="0.55" />
<rect x="146.53" y="379.82" width="2.28" height="7.88" fill="#d64545" opacity="0.55" />
<rect x="149.81" y="379.82" width="2.28" height="10.25" fill="#d64545" opacity="0.55" />
<rect x="153.08" y="379.82" width="2.28" height="6.52" fill="#d64545" opacity="0.55" />
<rect x="156.36" y="379.82" width="2.28" height="4.37" fill="#d64545" opacity="0.55" />
<rect x="159.63" y="379.82" width="2.28" height="2.86" fill="#d64545" opacity="0.55" />
<rect x="162.90" y="379.82" width="2.28" height="0.97" fill="#d64545" opacity="0.55" />
<rect x="166.18" y="379.82" width="2.28" height="1.14" fill="#d64545" opacity="0.55" />
<rect x="169.45" y="379.82" width="2.28" height="1.54" fill="#d64545" opacity="0.55" />
<rect x="172.73" y="379.82" width="2.28" height="2.78" fill="#d64545" opacity="0.55" />
<rect x="176.00" y="379.82" width="2.28" height="2.48" fill="#d64545" opacity="0.55" />
<rect x="179.28" y="379.82" width="2.28" height="6.07" fill="#d64545" opacity="0.55" />
<rect x="182.55" y="379.82" width="2.28" height="9.91" fill="#d64545" opacity="0.55" />
<rect x="185.82" y="379.82" width="2.28" height="12.46" fill="#d64545" opacity="0.55" />
<rect x="189.10" y="379.82" width="2.28" height="11.04" fill="#d64545" opacity="0.55" />
<rect x="192.37" y="379.82" width="2.28" height="8.50" fill="#d64545" opacity="0.55" />
<rect x="195.65" y="379.82" width="2.28" height="5.15" fill="#d64545" opacity="0.55" />
<rect x="198.92" y="379.82" width="2.28" height="2.55" fill="#d64545" opacity="0.55" />
<rect x="202.19" y="379.82" width="2.28" height="1.26" fill="#d64545" opacity="0.55" />
<rect x="205.47" y="379.82" width="2.28" height="3.60" fill="#d64545" opacity="0.55" />
<rect x="208.74" y="379.82" width="2.28" height="5.96" fill="#d64545" opacity="0.55" />
<rect x="212.02" y="379.82" width="2.28" height="5.82" fill="#d64545" opacity="0.55" />
<rect x="215.29" y="379.82" width="2.28" height="3.76" fill="#d64545" opacity="0.55" />
<rect x="218.57" y="378.52" width="2.28" height="1.30" fill="#2f9e44" opacity="0.55" />
<rect x="221.84" y="373.76" width="2.28" height="6.06" fill="#2f9e44" opacity="0.55" />
<rect x="225.11" y="369.46" width="2.28" height="10.35" fill="#2f9e44" opacity="0.55" />
<rect x="228.39" y="363.21" width="2.28" height="16.61" fill="#2f9e44" opacity="0.55" />
<rect x="231.66" y="360.88" width="2.28" height="18.94" fill="#2f9e44" opacity="0.55" />
<rect x="234.94" y="360.32" width="2.28" height="19.50" fill="#2f9e44" opacity="0.55" />
<rect x="238.21" y="360.25" width="2.28" height="19.57" fill="#2f9e44" opacity="0.55" />
<rect x="241.48" y="360.76" width="2.28" height="19.06" fill="#2f9e44" opacity="0.55" />
<rect x="244.76" y="361.99" width="2.28" height="17.83" fill="#2f9e44" opacity="0.55" />
<rect x="248.03" y="361.43" width="2.28" height="18.39" fill="#2f9e44" opacity="0.55" />
<rect x="251.31" y="363.98" width="2.28" height="15.84" fill="#2f9e44" opacity="0.55" />
<rect x="254.58" y="363.39" width="2.28" height="16.43" fill="#2f9e44" opacity="0.55" />
<rect x="257.85" y="359.89" width="2.28" height="19.92" fill="#2f9e44" opacity="0.55" />
<rect x="261.13" y="360.04" width="2.28" height="19.78" fill="#2f9e44" opacity="0.55" />
<rect x="264.40" y="363.40" width="2.28" height="16.41" fill="#2f9e44" opacity="0.55" />
<rect x="267.68" y="368.32" width="2.28" height="11.50" fill="#2f9e44" opacity="0.55" />
<rect x="270.95" y="372.59" width="2.28" height="7.23" fill="#2f9e44" opacity="0.55" />
<rect x="274.23" y="373.57" width="2.28" height="6.24" fill="#2f9e44" opacity="0.55" />
<rect x="277.50" y="371.10" width="2.28" height="8.72" fill="#2f9e44" opacity="0.55" />
<rect x="280.77" y="370.75" width="2.28" height="9.06" fill="#2f9e44" opacity="0.55" />
<rect x="284.05" y="369.85" width="2.28" height="9.97" fill="#2f9e44" opacity="0.55" />
<rect x="287.32" y="366.00" width="2.28" height="13.81" fill="#2f9e44" opacity="0.55" />
<rect x="290.60" y="368.62" width="2.28" height="11.20" fill="#2f9e44" opacity="0.55" />
<rect x="293.87" y="366.98" width="2.28" height="12.84" fill="#2f9e44" opacity="0.55" />
<rect x="297.14" y="369.35" width="2.28" height="10.47" fill="#2f9e44" opacity="0.55" />
<rect x="300.42" y="379.82" width="2.28" height="0.66" fill="#d64545" opacity="0.55" />
<rect x="303.69" y="378.50" width="2.28" height="1.31" fill="#2f9e44" opacity="0.55" />
<rect x="306.97" y="379.82" width="2.28" height="1.28" fill="#d64545" opacity="0.55" />
<rect x="310.24" y="379.59" width="2.28" height="0.23" fill="#2f9e44" opacity="0.55" />
<rect x="313.51" y="379.82" width="2.28" height="1.69" fill="#d64545" opacity="0.55" />
<rect x="316.79" y="379.82" width="2.28" height="5.61" fill="#d64545" opacity="0.55" />
<rect x="320.06" y="379.82" width="2.28" height="7.36" fill="#d64545" opacity="0.55" />
<rect x="323.34" y="379.82" width="2.28" height="10.17" fill="#d64545" opacity="0.55" />
<rect x="326.61" y="379.82" width="2.28" height="14.52" fill="#d64545" opacity="0.55" />
<rect x="329.89" y="379.82" width="2.28" height="16.33" fill="#d64545" opacity="0.55" />
<rect x="333.16" y="379.82" width="2.28" height="15.39" fill="#d64545" opacity="0.55" />
<rect x="336.43" y="379.82" width="2.28" height="13.15" fill="#d64545" opacity="0.55" />
<rect x="339.71" y="379.82" width="2.28" height="10.18" fill="#d64545" opacity="0.55" />
<rect x="342.98" y="379.82" width="2.28" height="6.76" fill="#d64545" opacity="0.55" />
<rect x="346.26" y="379.82" width="2.28" height="5.59" fill="#d64545" opacity="0.55" />
<rect x="349.53" y="379.82" width="2.28" height="6.27" fill="#d64545" opacity="0.55" />
<rect x="352.80" y="379.82" width="2.28" height="4.93" fill="#d64545" opacity="0.55" />
<rect x="356.08" y="379.82" width="2.28" height="8.99" fill="#d64545" opacity="0.55" />
<rect x="359.35" y="379.82" width="2.28" height="11.70" fill="#d64545" opacity="0.55" />
<rect x="362.63" y="379.82" width="2.28" height="15.12" fill="#d64545" opacity="0.55" />
<rect x="365.90" y="379.82" width="2.28" height="18.05" fill="#d64545" opacity="0.55" />
<rect x="369.18" y="379.82" width="2.28" height="15.48" fill="#d64545" opacity="0.55" />
<rect x="372.45" y="379.82" width="2.28" height="15.15" fill="#d64545" opacity="0.55" />
<rect x="375.72" y="379.82" width="2.28" height="14.67" fill="#d64545" opacity="0.55" />
<rect x="379.00" y="379.82" width="2.28" height="17.50" fill="#d64545" opacity="0.55" />
<rect x="382.27" y="379.82" width="2.28" height="17.43" fill="#d64545" opacity="0.55" />
<rect x="385.55" y="379.82" width="2.28" height="17.85" fill="#d64545" opacity="0.55" />
<rect x="388.82" y="379.82" width="2.28" height="19.09" fill="#d64545" opacity="0.55" />
<rect x="392.09" y="379.82" width="2.28" height="17.01" fill="#d64545" opacity="0.55" />
<rect x="395.37" y="379.82" width="2.28" height="16.97" fill="#d64545" opacity="0.55" />
<rect x="398.64" y="379.82" width="2.28" height="17.13" fill="#d64545" opacity="0.55" />
<rect x="401.92" y="379.82" width="2.28" height="12.13" fill="#d64545" opacity="0.55" />
<rect x="405.19" y="379.82" width="2.28" height="8.28" fill="#d64545" opacity="0.55" />
<rect x="408.46" y="379.82" width="2.28" height="3.07" fill="#d64545" opacity="0.55" />
<rect x="411.74" y="378.69" width="2.28" height="1.12" fill="#2f9e44" opacity="0.55" />
<rect x="415.01" y="377.70" width="2.28" height="2.12" fill="#2f9e44" opacity="0.55" />
<rect x="418.29" y="375.20" width="2.28" height="4.62" fill="#2f9e44" opacity="0.55" />
<rect x="421.56" y="372.34" width="2.28" height="7.47" fill="#2f9e44" opacity="0.55" />
<rect x="424.84" y="371.99" width="2.28" height="7.83" fill="#2f9e44" opacity="0.55" />
<rect x="428.11" y="371.36" width="2.28" height="8.46" fill="#2f9e44" opacity="0.55" />
<rect x="431.38" y="368.29" width="2.28" height="11.52" fill="#2f9e44" opacity="0.55" />
<rect x="434.66" y="366.32" width="2.28" height="13.50" fill="#2f9e44" opacity="0.55" />
<rect x="437.93" y="362.91" width="2.28" height="16.91" fill="#2f9e44" opacity="0.55" />
<rect x="441.21" y="363.68" width="2.28" height="16.14" fill="#2f9e44" opacity="0.55" />
<rect x="444.48" y="370.70" width="2.28" height="9.12" fill="#2f9e44" opacity="0.55" />
<rect x="447.75" y="377.58" width="2.28" height="2.24" fill="#2f9e44" opacity="0.55" />
<rect x="451.03" y="379.82" width="2.28" height="2.72" fill="#d64545" opacity="0.55" />
<rect x="454.30" y="379.82" width="2.28" height="10.13" fill="#d64545" opacity="0.55" />
<rect x="457.58" y="379.82" width="2.28" height="11.00" fill="#d64545" opacity="0.55" />
<rect x="460.85" y="379.82" width="2.28" height="9.20" fill="#d64545" opacity="0.55" />
<rect x="464.12" y="379.82" width="2.28" height="5.77" fill="#d64545" opacity="0.55" />
<rect x="467.40" y="379.82" width="2.28" height="1.77" fill="#d64545" opacity="0.55" />
<rect x="470.67" y="378.24" width="2.28" height="1.58" fill="#2f9e44" opacity="0.55" />
<rect x="473.95" y="374.52" width="2.28" height="5.30" fill="#2f9e44" opacity="0.55" />
<rect x="477.22" y="373.37" width="2.28" height="6.45" fill="#2f9e44" opacity="0.55" />
<rect x="480.50" y="373.64" width="2.28" height="6.17" fill="#2f9e44" opacity="0.55" />
<rect x="483.77" y="372.36" width="2.28" height="7.46" fill="#2f9e44" opacity="0.55" />
<rect x="487.04" y="365.22" width="2.28" height="14.60" fill="#2f9e44" opacity="0.55" />
<rect x="490.32" y="360.50" width="2.28" height="19.32" fill="#2f9e44" opacity="0.55" />
<rect x="493.59" y="356.49" width="2.28" height="23.32" fill="#2f9e44" opacity="0.55" />
<rect x="496.87" y="359.25" width="2.28" height="20.56" fill="#2f9e44" opacity="0.55" />
<rect x="500.14" y="362.64" width="2.28" height="17.17" fill="#2f9e44" opacity="0.55" />
<rect x="503.41" y="363.55" width="2.28" height="16.27" fill="#2f9e44" opacity="0.55" />
<rect x="506.69" y="361.79" width="2.28" height="18.02" fill="#2f9e44" opacity="0.55" />
<rect x="509.96" y="362.29" width="2.28" height="17.53" fill="#2f9e44" opacity="0.55" />
<rect x="513.24" y="365.75" width="2.28" height="14.07" fill="#2f9e44" opacity="0.55" />
<rect x="516.51" y="362.81" width="2.28" height="17.01" fill="#2f9e44" opacity="0.55" />
<rect x="519.79" y="362.04" width="2.28" height="17.77" fill="#2f9e44" opacity="0.55" />
<rect x="523.06" y="369.69" width="2.28" height="10.13" fill="#2f9e44" opacity="0.55" />
<rect x="526.33" y="376.04" width="2.28" height="3.78" fill="#2f9e44" opacity="0.55" />
<rect x="529.61" y="379.82" width="2.28" height="0.45" fill="#d64545" opacity="0.55" />
<rect x="532.88" y="379.82" width="2.28" height="0.40" fill="#d64545" opacity="0.55" />
<rect x="536.16" y="379.82" width="2.28" height="1.87" fill="#d64545" opacity="0.55" />
<rect x="539.43" y="379.82" width="2.28" height="0.83" fill="#d64545" opacity="0.55" />
<rect x="542.70" y="378.81" width="2.28" height="1.01" fill="#2f9e44" opacity="0.55" />
<rect x="545.98" y="379.49" width="2.28" height="0.32" fill="#2f9e44" opacity="0.55" />
<rect x="549.25" y="379.82" width="2.28" height="4.62" fill="#d64545" opacity="0.55" />
<rect x="552.53" y="379.82" width="2.28" height="3.34" fill="#d64545" opacity="0.55" />
<rect x="555.80" y="379.82" width="2.28" height="5.38" fill="#d64545" opacity="0.55" />
<rect x="559.07" y="379.82" width="2.28" height="11.28" fill="#d64545" opacity="0.55" />
<rect x="562.35" y="379.82" width="2.28" height="12.75" fill="#d64545" opacity="0.55" />
<rect x="565.62" y="379.82" width="2.28" height="5.61" fill="#d64545" opacity="0.55" />
<rect x="568.90" y="378.29" width="2.28" height="1.52" fill="#2f9e44" opacity="0.55" />
<rect x="572.17" y="371.56" width="2.28" height="8.26" fill="#2f9e44" opacity="0.55" />
<rect x="575.45" y="362.98" width="2.28" height="16.83" fill="#2f9e44" opacity="0.55" />
<rect x="578.72" y="361.64" width="2.28" height="18.18" fill="#2f9e44" opacity="0.55" />
<rect x="581.99" y="363.10" width="2.28" height="16.72" fill="#2f9e44" opacity="0.55" />
<rect x="585.27" y="366.46" width="2.28" height="13.36" fill="#2f9e44" opacity="0.55" />
<rect x="588.54" y="370.76" width="2.28" height="9.06" fill="#2f9e44" opacity="0.55" />
<rect x="591.82" y="375.43" width="2.28" height="4.39" fill="#2f9e44" opacity="0.55" />
<rect x="595.09" y="374.85" width="2.28" height="4.97" fill="#2f9e44" opacity="0.55" />
<rect x="598.36" y="375.67" width="2.28" height="4.15" fill="#2f9e44" opacity="0.55" />
<rect x="601.64" y="370.27" width="2.28" height="9.55" fill="#2f9e44" opacity="0.55" />
<rect x="604.91" y="367.25" width="2.28" height="12.57" fill="#2f9e44" opacity="0.55" />
<rect x="608.19" y="371.53" width="2.28" height="8.29" fill="#2f9e44" opacity="0.55" />
<rect x="611.46" y="376.40" width="2.28" height="3.42" fill="#2f9e44" opacity="0.55" />
<rect x="614.73" y="379.82" width="2.28" height="2.97" fill="#d64545" opacity="0.55" />
<rect x="618.01" y="379.82" width="2.28" height="14.56" fill="#d64545" opacity="0.55" />
<rect x="621.28" y="379.82" width="2.28" height="19.93" fill="#d64545" opacity="0.55" />
<rect x="624.56" y="379.82" width="2.28" height="24.51" fill="#d64545" opacity="0.55" />
<rect x="627.83" y="379.82" width="2.28" height="33.25" fill="#d64545" opacity="0.55" />
<rect x="631.11" y="379.82" width="2.28" height="33.29" fill="#d64545" opacity="0.55" />
<rect x="634.38" y="379.82" width="2.28" height="32.76" fill="#d64545" opacity="0.55" />
<rect x="637.65" y="379.82" width="2.28" height="27.88" fill="#d64545" opacity="0.55" />
<rect x="640.93" y="379.82" width="2.28" height="31.48" fill="#d64545" opacity="0.55" />
<rect x="644.20" y="379.82" width="2.28" height="31.67" fill="#d64545" opacity="0.55" />
<rect x="647.48" y="379.82" width="2.28" height="29.51" fill="#d64545" opacity="0.55" />
<rect x="650.75" y="379.82" width="2.28" height="23.82" fill="#d64545" opacity="0.55" />
<rect x="654.02" y="379.82" width="2.28" height="21.89" fill="#d64545" opacity="0.55" />
<rect x="657.30" y="379.82" width="2.28" height="19.92" fill="#d64545" opacity="0.55" />
<rect x="660.57" y="379.82" width="2.28" height="21.80" fill="#d64545" opacity="0.55" />
<rect x="663.85" y="379.82" width="2.28" height="17.76" fill="#d64545" opacity="0.55" />
<rect x="667.12" y="379.82" width="2.28" height="12.10" fill="#d64545" opacity="0.55" />
<rect x="670.40" y="379.82" width="2.28" height="5.83" fill="#d64545" opacity="0.55" />
<rect x="673.67" y="379.82" width="2.28" height="10.91" fill="#d64545" opacity="0.55" />
<rect x="676.94" y="379.82" width="2.28" height="13.08" fill="#d64545" opacity="0.55" />
<rect x="680.22" y="379.82" width="2.28" height="18.03" fill="#d64545" opacity="0.55" />
<rect x="683.49" y="379.82" width="2.28" height="10.59" fill="#d64545" opacity="0.55" />
<rect x="686.77" y="379.82" width="2.28" height="3.58" fill="#d64545" opacity="0.55" />
<rect x="690.04" y="379.61" width="2.28" height="0.21" fill="#2f9e44" opacity="0.55" />
<rect x="693.31" y="375.80" width="2.28" height="4.02" fill="#2f9e44" opacity="0.55" />
<rect x="696.59" y="371.81" width="2.28" height="8.01" fill="#2f9e44" opacity="0.55" />
<rect x="699.86" y="360.51" width="2.28" height="19.31" fill="#2f9e44" opacity="0.55" />
<rect x="703.14" y="354.43" width="2.28" height="25.39" fill="#2f9e44" opacity="0.55" />
<rect x="706.41" y="349.58" width="2.28" height="30.24" fill="#2f9e44" opacity="0.55" />
<rect x="709.68" y="348.51" width="2.28" height="31.31" fill="#2f9e44" opacity="0.55" />
<rect x="712.96" y="344.98" width="2.28" height="34.84" fill="#2f9e44" opacity="0.55" />
<rect x="716.23" y="346.77" width="2.28" height="33.05" fill="#2f9e44" opacity="0.55" />
<rect x="719.51" y="354.91" width="2.28" height="24.91" fill="#2f9e44" opacity="0.55" />
<rect x="722.78" y="358.41" width="2.28" height="21.41" fill="#2f9e44" opacity="0.55" />
<rect x="726.06" y="363.85" width="2.28" height="15.96" fill="#2f9e44" opacity="0.55" />
<rect x="729.33" y="367.60" width="2.28" height="12.22" fill="#2f9e44" opacity="0.55" />
<rect x="732.60" y="362.47" width="2.28" height="17.35" fill="#2f9e44" opacity="0.55" />
<rect x="735.88" y="362.62" width="2.28" height="17.20" fill="#2f9e44" opacity="0.55" />
<rect x="739.15" y="355.38" width="2.28" height="24.44" fill="#2f9e44" opacity="0.55" />
<rect x="742.43" y="351.49" width="2.28" height="28.33" fill="#2f9e44" opacity="0.55" />
<rect x="745.70" y="356.58" width="2.28" height="23.24" fill="#2f9e44" opacity="0.55" />
<rect x="748.97" y="360.92" width="2.28" height="18.90" fill="#2f9e44" opacity="0.55" />
<rect x="752.25" y="364.28" width="2.28" height="15.54" fill="#2f9e44" opacity="0.55" />
<rect x="755.52" y="367.16" width="2.28" height="12.66" fill="#2f9e44" opacity="0.55" />
<rect x="758.80" y="368.59" width="2.28" height="11.23" fill="#2f9e44" opacity="0.55" />
<rect x="762.07" y="373.94" width="2.28" height="5.88" fill="#2f9e44" opacity="0.55" />
<rect x="765.34" y="367.37" width="2.28" height="12.44" fill="#2f9e44" opacity="0.55" />
<rect x="768.62" y="367.00" width="2.28" height="12.81" fill="#2f9e44" opacity="0.55" />
<rect x="771.89" y="369.31" width="2.28" height="10.51" fill="#2f9e44" opacity="0.55" />
<rect x="775.17" y="375.22" width="2.28" height="4.59" fill="#2f9e44" opacity="0.55" />
<rect x="778.44" y="379.82" width="2.28" height="3.35" fill="#d64545" opacity="0.55" />
<rect x="781.72" y="379.82" width="2.28" height="7.86" fill="#d64545" opacity="0.55" />
<rect x="784.99" y="379.82" width="2.28" height="3.25" fill="#d64545" opacity="0.55" />
<rect x="788.26" y="379.82" width="2.28" height="6.81" fill="#d64545" opacity="0.55" />
<rect x="791.54" y="379.82" width="2.28" height="13.12" fill="#d64545" opacity="0.55" />
<rect x="794.81" y="379.82" width="2.28" height="18.59" fill="#d64545" opacity="0.55" />
<rect x="798.09" y="379.82" width="2.28" height="17.81" fill="#d64545" opacity="0.55" />
<rect x="801.36" y="379.82" width="2.28" height="14.63" fill="#d64545" opacity="0.55" />
<rect x="804.63" y="379.82" width="2.28" height="13.64" fill="#d64545" opacity="0.55" />
<rect x="807.91" y="379.82" width="2.28" height="9.50" fill="#d64545" opacity="0.55" />
<rect x="811.18" y="379.82" width="2.28" height="2.43" fill="#d64545" opacity="0.55" />
<rect x="814.46" y="377.33" width="2.28" height="2.49" fill="#2f9e44" opacity="0.55" />
<rect x="817.73" y="377.75" width="2.28" height="2.07" fill="#2f9e44" opacity="0.55" />
<rect x="821.01" y="371.20" width="2.28" height="8.62" fill="#2f9e44" opacity="0.55" />
<rect x="824.28" y="363.31" width="2.28" height="16.51" fill="#2f9e44" opacity="0.55" />
<rect x="827.55" y="364.23" width="2.28" height="15.59" fill="#2f9e44" opacity="0.55" />
<rect x="830.83" y="362.71" width="2.28" height="17.11" fill="#2f9e44" opacity="0.55" />
<rect x="834.10" y="376.34" width="2.28" height="3.48" fill="#2f9e44" opacity="0.55" />
<rect x="837.38" y="379.82" width="2.28" height="0.89" fill="#d64545" opacity="0.55" />
<rect x="840.65" y="379.82" width="2.28" height="3.80" fill="#d64545" opacity="0.55" />
<rect x="843.92" y="379.82" width="2.28" height="14.51" fill="#d64545" opacity="0.55" />
<rect x="847.20" y="379.82" width="2.28" height="15.32" fill="#d64545" opacity="0.55" />
<rect x="850.47" y="379.82" width="2.28" height="14.41" fill="#d64545" opacity="0.55" />
<rect x="853.75" y="379.82" width="2.28" height="6.05" fill="#d64545" opacity="0.55" />
<rect x="857.02" y="379.82" width="2.28" height="7.89" fill="#d64545" opacity="0.55" />
<rect x="860.29" y="379.82" width="2.28" height="6.45" fill="#d64545" opacity="0.55" />
<rect x="863.57" y="372.47" width="2.28" height="7.35" fill="#2f9e44" opacity="0.55" />
<rect x="866.84" y="362.35" width="2.28" height="17.47" fill="#2f9e44" opacity="0.55" />
<rect x="870.12" y="371.23" width="2.28" height="8.59" fill="#2f9e44" opacity="0.55" />
<rect x="873.39" y="375.93" width="2.28" height="3.89" fill="#2f9e44" opacity="0.55" />
<rect x="876.67" y="379.82" width="2.28" height="2.46" fill="#d64545" opacity="0.55" />
<rect x="879.94" y="379.82" width="2.28" height="8.11" fill="#d64545" opacity="0.55" />
<rect x="883.21" y="379.82" width="2.28" height="1.89" fill="#d64545" opacity="0.55" />
<rect x="886.49" y="368.49" width="2.28" height="11.32" fill="#2f9e44" opacity="0.55" />
<rect x="889.76" y="376.03" width="2.28" height="3.78" fill="#2f9e44" opacity="0.55" />
<rect x="893.04" y="379.82" width="2.28" height="6.19" fill="#d64545" opacity="0.55" />
<rect x="896.31" y="379.82" width="2.28" height="5.05" fill="#d64545" opacity="0.55" />
<rect x="899.58" y="379.82" width="2.28" height="13.09" fill="#d64545" opacity="0.55" />
<rect x="902.86" y="379.82" width="2.28" height="16.12" fill="#d64545" opacity="0.55" />
<polyline fill="none" stroke="#1f77b4" stroke-width="2" points="137.85,351.38 141.13,356.11 144.40,358.04 147.68,363.33 150.95,368.25 154.22,366.16 157.50,365.10 160.77,364.30 164.05,362.66 167.32,363.11 170.59,363.89 173.87,365.84 177.14,366.15 180.42,371.26 183.69,377.58 186.97,383.24 190.24,384.58 193.51,384.16 196.79,382.10 200.06,380.14 203.34,379.16 206.61,382.40 209.88,386.25 213.16,387.57 216.43,386.45 219.71,381.07 222.98,374.79 226.25,367.91 229.53,357.50 232.80,350.44 236.08,345.00 239.35,340.04 242.63,335.79 245.90,332.56 249.17,327.40 252.45,325.99 255.72,321.30 259.00,312.82 262.27,308.02 265.54,307.28 268.82,309.32 272.09,311.78 275.37,311.21 278.64,306.55 281.92,303.94 285.19,300.54 288.46,293.25 291.74,293.06 295.01,288.21 298.29,287.97 301.56,299.25 304.83,296.95 308.11,299.87 311.38,298.30 314.66,300.65 317.93,305.97 321.20,309.56 324.48,314.90 327.75,322.89 331.03,328.78 334.30,331.69 337.58,332.73 340.85,332.31 344.12,330.58 347.40,330.81 350.67,333.05 353.95,332.95 357.22,339.26 360.49,344.89 363.77,352.09 367.04,359.53 370.32,360.83 373.59,364.29 376.86,367.48 380.14,374.69 383.41,378.97 386.69,383.86 389.96,389.87 393.24,392.04 396.51,396.25 399.78,400.68 403.06,398.72 406.33,396.94 409.61,392.49 412.88,388.02 416.15,386.50 419.43,382.84 422.70,378.12 425.98,375.80 429.25,373.06 432.53,367.12 435.80,361.76 439.07,354.13 442.35,350.86 445.62,355.60 448.90,361.93 452.17,367.56 455.44,377.51 458.72,381.12 461.99,381.62 465.27,379.64 468.54,376.08 471.81,372.34 475.09,367.29 478.36,364.52 481.64,363.26 484.91,360.11 488.19,349.32 491.46,339.78 494.73,329.94 498.01,327.56 501.28,326.65 504.56,323.49 507.83,317.23 511.10,313.34 514.38,313.28 517.65,306.09 520.93,300.88 524.20,305.99 527.47,311.40 530.75,315.74 534.02,315.79 537.30,317.73 540.57,316.90 543.85,314.81 547.12,315.41 550.39,321.51 553.67,321.07 556.94,324.45 560.22,333.17 563.49,337.83 566.76,332.09 570.04,324.58 573.31,315.78 576.59,302.99 579.86,297.11 583.14,294.39 586.41,294.40 589.68,296.44 592.96,300.01 596.23,298.19 599.51,297.97 602.78,290.18 606.05,284.03 609.33,286.24 612.60,290.25 615.88,297.38 619.15,312.61 622.42,322.96 625.70,333.66 628.97,350.72 632.25,359.08 635.52,366.74 638.80,368.83 642.07,380.30 645.34,388.41 648.62,393.62 651.89,393.89 655.17,397.44 658.44,400.44 661.71,407.77 664.99,408.17 668.26,405.54 671.54,400.73 674.81,408.53 678.08,413.97 681.36,423.43 684.63,418.64 687.91,412.52 691.18,408.68 694.46,403.87 697.73,397.87 701.00,381.75 704.28,369.32 707.55,356.91 710.83,348.01 714.10,335.77 717.37,329.29 720.65,331.21 723.92,329.36 727.20,330.81 730.47,331.50 733.75,322.03 737.02,317.88 740.29,304.53 743.57,293.56 746.84,292.84 750.12,292.45 753.39,291.93 756.66,291.64 759.94,290.27 763.21,294.15 766.49,284.47 769.76,280.90 773.03,280.57 776.31,285.34 779.58,294.12 782.86,300.59 786.13,296.80 789.41,302.06 792.68,311.65 795.95,321.77 799.23,325.44 802.50,325.92 805.78,328.34 809.05,326.57 812.32,320.11 815.60,314.57 818.87,314.47 822.15,305.76 825.42,293.75 828.69,290.78 831.97,284.97 835.24,297.73 838.52,302.32 841.79,306.19 845.07,320.52 848.34,325.16 851.61,327.86 854.89,321.01 858.16,324.83 861.44,324.99 864.71,309.35 867.98,294.87 871.26,301.60 874.53,305.33 877.81,312.30 881.08,319.97 884.36,314.22 887.63,298.18 890.90,304.77 894.18,316.30 897.45,316.41 900.73,327.73 904.00,334.79" />
<polyline fill="none" stroke="#ff7f0e" stroke-width="2" points="137.85,351.38 141.13,352.33 144.40,353.47 147.68,355.44 150.95,358.00 154.22,359.63 157.50,360.73 160.77,361.44 164.05,361.69 167.32,361.97 170.59,362.36 173.87,363.05 177.14,363.67 180.42,365.19 183.69,367.67 186.97,370.78 190.24,373.54 193.51,375.66 196.79,376.95 200.06,377.59 203.34,377.90 206.61,378.80 209.88,380.29 213.16,381.75 216.43,382.69 219.71,382.37 222.98,380.85 226.25,378.26 229.53,374.11 232.80,369.38 236.08,364.50 239.35,359.61 242.63,354.84 245.90,350.39 249.17,345.79 252.45,341.83 255.72,337.72 259.00,332.74 262.27,327.80 265.54,323.69 268.82,320.82 272.09,319.01 275.37,317.45 278.64,315.27 281.92,313.01 285.19,310.51 288.46,307.06 291.74,304.26 295.01,301.05 298.29,298.43 301.56,298.60 304.83,298.27 308.11,298.59 311.38,298.53 314.66,298.95 317.93,300.36 321.20,302.20 324.48,304.74 327.75,308.37 331.03,312.45 334.30,316.30 337.58,319.59 340.85,322.13 344.12,323.82 347.40,325.22 350.67,326.78 353.95,328.02 357.22,330.27 360.49,333.19 363.77,336.97 367.04,341.48 370.32,345.35 373.59,349.14 376.86,352.81 380.14,357.18 383.41,361.54 386.69,366.00 389.96,370.78 393.24,375.03 396.51,379.27 399.78,383.56 403.06,386.59 406.33,388.66 409.61,389.43 412.88,389.14 416.15,388.62 419.43,387.46 422.70,385.59 425.98,383.63 429.25,381.52 432.53,378.64 435.80,375.26 439.07,371.04 442.35,367.00 445.62,364.72 448.90,364.16 452.17,364.84 455.44,367.37 458.72,370.12 461.99,372.42 465.27,373.87 468.54,374.31 471.81,373.92 475.09,372.59 478.36,370.98 481.64,369.43 484.91,367.57 488.19,363.92 491.46,359.09 494.73,353.26 498.01,348.12 501.28,343.83 504.56,339.76 507.83,335.25 511.10,330.87 514.38,327.35 517.65,323.10 520.93,318.66 524.20,316.12 527.47,315.18 530.75,315.29 534.02,315.39 537.30,315.86 540.57,316.07 543.85,315.82 547.12,315.73 550.39,316.89 553.67,317.73 556.94,319.07 560.22,321.89 563.49,325.08 566.76,326.48 570.04,326.10 573.31,324.04 576.59,319.83 579.86,315.28 583.14,311.10 586.41,307.76 589.68,305.50 592.96,304.40 596.23,303.16 599.51,302.12 602.78,299.73 606.05,296.59 609.33,294.52 612.60,293.67 615.88,294.41 619.15,298.05 622.42,303.03 625.70,309.16 628.97,317.47 632.25,325.79 635.52,333.98 638.80,340.95 642.07,348.82 645.34,356.74 648.62,364.11 651.89,370.07 655.17,375.54 658.44,380.52 661.71,385.97 664.99,390.41 668.26,393.44 671.54,394.89 674.81,397.62 678.08,400.89 681.36,405.40 684.63,408.05 687.91,408.94 691.18,408.89 694.46,407.88 697.73,405.88 701.00,401.06 704.28,394.71 707.55,387.15 710.83,379.32 714.10,370.61 717.37,362.35 720.65,356.12 723.92,350.77 727.20,346.78 730.47,343.72 733.75,339.38 737.02,335.08 740.29,328.97 743.57,321.89 746.84,316.08 750.12,311.35 753.39,307.47 756.66,304.30 759.94,301.50 763.21,300.03 766.49,296.92 769.76,293.71 773.03,291.08 776.31,289.94 779.58,290.77 782.86,292.74 786.13,293.55 789.41,295.25 792.68,298.53 795.95,303.18 799.23,307.63 802.50,311.29 805.78,314.70 809.05,317.07 812.32,317.68 815.60,317.06 818.87,316.54 822.15,314.39 825.42,310.26 828.69,306.36 831.97,302.08 835.24,301.21 838.52,301.44 841.79,302.39 845.07,306.01 848.34,309.84 851.61,313.45 854.89,314.96 858.16,316.93 861.44,318.54 864.71,316.71 867.98,312.34 871.26,310.19 874.53,309.22 877.81,309.83 881.08,311.86 884.36,312.33 887.63,309.50 890.90,308.56 894.18,310.10 897.45,311.37 900.73,314.64 904.00,318.67" />
<text x="754.00" y="290.00" font-size="13" font-family="Arial" fill="#1f77b4" text-anchor="start">MACD</text>
<text x="818.00" y="290.00" font-size="13" font-family="Arial" fill="#ff7f0e" text-anchor="start">Signal</text>
<line x1="56" y1="624" x2="904" y2="624" stroke="#cbd2d9" />
<line x1="56" y1="484" x2="56" y2="624" stroke="#cbd2d9" />
<text x="16.00" y="476.00" font-size="12" font-family="Arial" fill="#52606d" text-anchor="start">KD</text>
<line x1="56" y1="624.00" x2="904" y2="624.00" stroke="#edf2f7" />
<line x1="52" y1="624.00" x2="56" y2="624.00" stroke="#9fb3c8" />
<text x="48.00" y="628.00" font-size="11" font-family="Arial" fill="#52606d" text-anchor="end">-5.00</text>
<line x1="56" y1="577.33" x2="904" y2="577.33" stroke="#edf2f7" />
<line x1="52" y1="577.33" x2="56" y2="577.33" stroke="#9fb3c8" />
<text x="48.00" y="581.33" font-size="11" font-family="Arial" fill="#52606d" text-anchor="end">31.7</text>
<line x1="56" y1="530.67" x2="904" y2="530.67" stroke="#edf2f7" />
<line x1="52" y1="530.67" x2="56" y2="530.67" stroke="#9fb3c8" />
<text x="48.00" y="534.67" font-size="11" font-family="Arial" fill="#52606d" text-anchor="end">68.3</text>
<line x1="56" y1="484.00" x2="904" y2="484.00" stroke="#edf2f7" />
<line x1="52" y1="484.00" x2="56" y2="484.00" stroke="#9fb3c8" />
<text x="48.00" y="488.00" font-size="11" font-family="Arial" fill="#52606d" text-anchor="end">105</text>
<line x1="56.00" y1="624" x2="56.00" y2="628" stroke="#9fb3c8" />
<text x="56.00" y="642.00" font-size="11" font-family="Arial" fill="#52606d" text-anchor="middle">06/25</text>
<line x1="226.25" y1="624" x2="226.25" y2="628" stroke="#9fb3c8" />
<text x="226.25" y="642.00" font-size="11" font-family="Arial" fill="#52606d" text-anchor="middle">09/09</text>
<line x1="396.51" y1="624" x2="396.51" y2="628" stroke="#9fb3c8" />
<text x="396.51" y="642.00" font-size="11" font-family="Arial" fill="#52606d" text-anchor="middle">11/20</text>
<line x1="563.49" y1="624" x2="563.49" y2="628" stroke="#9fb3c8" />
<text x="563.49" y="642.00" font-size="11" font-family="Arial" fill="#52606d" text-anchor="middle">02/05</text>
<line x1="733.75" y1="624" x2="733.75" y2="628" stroke="#9fb3c8" />
<text x="733.75" y="642.00" font-size="11" font-family="Arial" fill="#52606d" text-anchor="middle">04/22</text>
<line x1="904.00" y1="624" x2="904.00" y2="628" stroke="#9fb3c8" />
<text x="904.00" y="642.00" font-size="11" font-family="Arial" fill="#52606d" text-anchor="middle">07/08</text>
<line x1="56" y1="592.18" x2="904" y2="592.18" stroke="#f0b429" stroke-dasharray="5 5" />
<text x="912.00" y="596.18" font-size="10" font-family="Arial" fill="#8d2b0b" text-anchor="start">20.0</text>
<line x1="56" y1="515.82" x2="904" y2="515.82" stroke="#f0b429" stroke-dasharray="5 5" />
<text x="912.00" y="519.82" font-size="10" font-family="Arial" fill="#8d2b0b" text-anchor="start">80.0</text>
<polyline fill="none" stroke="#2ca02c" stroke-width="2" points="82.19,563.66 85.47,560.64 88.74,563.94 92.02,564.51 95.29,569.31 98.56,553.37 101.84,544.21 105.11,536.62 108.39,541.50 111.66,547.71 114.93,559.96 118.21,557.19 121.48,552.92 124.76,545.85 128.03,548.37 131.31,553.66 134.58,550.11 137.85,553.05 141.13,572.20 144.40,574.96 147.68,589.78 150.95,599.02 154.22,580.37 157.50,569.67 160.77,561.97 164.05,551.98 167.32,551.61 170.59,552.33 173.87,557.49 177.14,555.34 180.42,582.85 183.69,589.97 186.97,597.06 190.24,591.33 193.51,582.72 196.79,566.88 200.06,555.08 203.34,549.44 206.61,560.55 209.88,574.10 213.16,579.50 216.43,572.43 219.71,553.60 222.98,538.99 226.25,532.34 229.53,525.96 232.80,523.35 236.08,521.17 239.35,518.04 242.63,516.36 245.90,516.18 249.17,513.44 252.45,519.66 255.72,523.25 259.00,520.62 262.27,521.87 265.54,528.78 268.82,538.35 272.09,544.92 275.37,540.20 278.64,530.13 281.92,531.61 285.19,528.76 288.46,524.26 291.74,530.76 295.01,523.27 298.29,524.46 301.56,549.64 304.83,539.43 308.11,544.58 311.38,534.33 314.66,538.64 317.93,547.96 321.20,550.63 324.48,556.73 327.75,568.43 331.03,578.45 334.30,578.53 337.58,573.45 340.85,564.94 344.12,549.54 347.40,542.62 350.67,542.99 353.95,538.06 357.22,560.19 360.49,579.69 363.77,593.09 367.04,592.10 370.32,580.26 373.59,577.59 376.86,576.51 380.14,586.54 383.41,583.09 386.69,583.44 389.96,589.60 393.24,586.01 396.51,592.01 399.78,591.36 403.06,576.53 406.33,564.75 409.61,548.36 412.88,534.93 416.15,532.16 419.43,525.42 422.70,518.69 425.98,517.76 429.25,521.46 432.53,515.56 435.80,514.35 439.07,514.99 442.35,521.52 445.62,546.76 448.90,570.10 452.17,583.07 455.44,594.10 458.72,593.07 461.99,587.75 465.27,579.51 468.54,564.16 471.81,549.75 475.09,533.10 478.36,526.25 481.64,523.66 484.91,520.93 488.19,515.11 491.46,518.15 494.73,516.50 498.01,526.25 501.28,534.79 504.56,533.68 507.83,523.58 511.10,521.39 514.38,529.91 517.65,530.53 520.93,530.03 524.20,547.97 527.47,561.18 530.75,570.46 534.02,569.24 537.30,575.49 540.57,570.68 543.85,561.75 547.12,559.10 550.39,571.80 553.67,557.27 556.94,562.39 560.22,573.23 563.49,572.93 566.76,549.10 570.04,535.82 573.31,525.04 576.59,518.68 579.86,518.84 583.14,520.16 586.41,522.53 589.68,525.59 592.96,529.57 596.23,524.83 599.51,522.03 602.78,514.90 606.05,509.51 609.33,522.28 612.60,533.57 615.88,548.94 619.15,565.23 622.42,572.14 625.70,579.77 628.97,592.03 632.25,589.66 635.52,588.57 638.80,578.53 642.07,588.41 645.34,591.39 648.62,590.60 651.89,579.20 655.17,580.58 658.44,576.03 661.71,585.57 664.99,579.81 668.26,560.25 671.54,542.85 674.81,567.52 678.08,578.70 681.36,589.41 684.63,571.78 687.91,555.93 691.18,548.20 694.46,539.91 697.73,530.26 701.00,523.45 704.28,519.20 707.55,515.05 710.83,513.76 714.10,508.38 717.37,508.46 720.65,520.36 723.92,521.78 727.20,542.36 730.47,554.36 733.75,535.16 737.02,530.75 740.29,524.19 743.57,521.15 746.84,529.03 750.12,534.37 753.39,536.05 756.66,536.08 759.94,534.21 763.21,542.64 766.49,526.64 769.76,522.74 773.03,523.11 776.31,532.49 779.58,547.70 782.86,555.05 786.13,539.68 789.41,545.21 792.68,558.81 795.95,570.80 799.23,568.45 802.50,560.55 805.78,558.30 809.05,547.85 812.32,536.90 815.60,527.62 818.87,527.40 822.15,524.80 825.42,516.29 828.69,519.79 831.97,515.61 835.24,545.25 838.52,554.61 841.79,555.27 845.07,573.89 848.34,573.69 851.61,570.84 854.89,552.33 858.16,553.82 861.44,544.60 864.71,528.73 867.98,521.37 871.26,535.84 874.53,543.14 877.81,555.31 881.08,566.39 884.36,557.03 887.63,535.82 890.90,545.33 894.18,558.81 897.45,555.30 900.73,566.59 904.00,570.98" />
<polyline fill="none" stroke="#d62728" stroke-width="2" points="82.19,557.22 85.47,558.36 88.74,560.22 92.02,561.65 95.29,564.21 98.56,560.59 101.84,555.13 105.11,548.96 108.39,546.47 111.66,546.88 114.93,551.24 118.21,553.23 121.48,553.12 124.76,550.70 128.03,549.92 131.31,551.17 134.58,550.82 137.85,551.56 141.13,558.44 144.40,563.95 147.68,572.56 150.95,581.38 154.22,581.04 157.50,577.25 160.77,572.16 164.05,565.43 167.32,560.82 170.59,557.99 173.87,557.82 177.14,557.00 180.42,565.62 183.69,573.73 186.97,581.51 190.24,584.78 193.51,584.10 196.79,578.36 200.06,570.60 203.34,563.54 206.61,562.55 209.88,566.40 213.16,570.76 216.43,571.32 219.71,565.41 222.98,556.61 226.25,548.52 229.53,541.00 232.80,535.12 236.08,530.47 239.35,526.33 242.63,523.00 245.90,520.73 249.17,518.30 252.45,518.75 255.72,520.25 259.00,520.37 262.27,520.87 265.54,523.51 268.82,528.46 272.09,533.94 275.37,536.03 278.64,534.06 281.92,533.25 285.19,531.75 288.46,529.26 291.74,529.76 295.01,527.59 298.29,526.55 301.56,534.25 304.83,535.97 308.11,538.84 311.38,537.34 314.66,537.77 317.93,541.17 321.20,544.32 324.48,548.46 327.75,555.12 331.03,562.90 334.30,568.11 337.58,569.89 340.85,568.24 344.12,562.01 347.40,555.54 350.67,551.36 353.95,546.93 357.22,551.35 360.49,560.80 363.77,571.56 367.04,578.41 370.32,579.02 373.59,578.55 376.86,577.87 380.14,580.76 383.41,581.54 386.69,582.17 389.96,584.65 393.24,585.10 396.51,587.41 399.78,588.72 403.06,584.66 406.33,578.02 409.61,568.14 412.88,557.07 416.15,548.77 419.43,540.99 422.70,533.55 425.98,528.29 429.25,526.01 432.53,522.53 435.80,519.80 439.07,518.20 442.35,519.31 445.62,528.46 448.90,542.34 452.17,555.92 455.44,568.64 458.72,576.78 461.99,580.44 465.27,580.13 468.54,574.81 471.81,566.46 475.09,555.34 478.36,545.64 481.64,538.31 484.91,532.52 488.19,526.72 491.46,523.86 494.73,521.41 498.01,523.02 501.28,526.95 504.56,529.19 507.83,527.32 511.10,525.34 514.38,526.87 517.65,528.09 520.93,528.73 524.20,535.15 527.47,543.83 530.75,552.70 534.02,558.22 537.30,563.97 540.57,566.21 543.85,564.72 547.12,562.85 550.39,565.83 553.67,562.98 556.94,562.79 560.22,566.27 563.49,568.49 566.76,562.03 570.04,553.29 573.31,543.87 576.59,535.47 579.86,529.93 583.14,526.67 586.41,525.29 589.68,525.39 592.96,526.78 596.23,526.13 599.51,524.77 602.78,521.48 606.05,517.49 609.33,519.08 612.60,523.91 615.88,532.25 619.15,543.25 622.42,552.88 625.70,561.84 628.97,571.91 632.25,577.82 635.52,581.41 638.80,580.45 642.07,583.10 645.34,585.87 648.62,587.44 651.89,584.70 655.17,583.32 658.44,580.89 661.71,582.45 664.99,581.57 668.26,574.47 671.54,563.93 674.81,565.12 678.08,569.65 681.36,576.23 684.63,574.75 687.91,568.48 691.18,561.72 694.46,554.45 697.73,546.39 701.00,538.74 704.28,532.23 707.55,526.50 710.83,522.25 714.10,517.63 717.37,514.57 720.65,516.50 723.92,518.26 727.20,526.29 730.47,535.65 733.75,535.49 737.02,533.91 740.29,530.67 743.57,527.50 746.84,528.01 750.12,530.13 753.39,532.10 756.66,533.43 759.94,533.69 763.21,536.67 766.49,533.33 769.76,529.80 773.03,527.57 776.31,529.21 779.58,535.37 782.86,541.93 786.13,541.18 789.41,542.52 792.68,547.95 795.95,555.57 799.23,559.86 802.50,560.09 805.78,559.49 809.05,555.61 812.32,549.38 815.60,542.13 818.87,537.22 822.15,533.08 825.42,527.48 828.69,524.92 831.97,521.82 835.24,529.63 838.52,537.95 841.79,543.73 845.07,553.78 848.34,560.42 851.61,563.89 854.89,560.04 858.16,557.96 861.44,553.51 864.71,545.25 867.98,537.29 871.26,536.81 874.53,538.92 877.81,544.38 881.08,551.72 884.36,553.49 887.63,547.60 890.90,546.84 894.18,550.83 897.45,552.32 900.73,557.08 904.00,561.71" />
<text x="824.00" y="502.00" font-size="13" font-family="Arial" fill="#2ca02c" text-anchor="start">K</text>
<text x="860.00" y="502.00" font-size="13" font-family="Arial" fill="#d62728" text-anchor="start">D</text>
</svg>