<svg xmlns="http://www.w3.org/2000/svg" width="960" height="680" viewBox="0 0 960 680"><rect width="100%" height="100%" fill="white" />
<text x="56.00" y="32.00" font-size="20" font-family="Arial" fill="#1f2933" text-anchor="start">VOO Technical Indicators</text>
<line x1="56" y1="220" x2="904" y2="220" stroke="#cbd2d9" />
<line x1="56" y1="58" x2="56" y2="220" stroke="#cbd2d9" />
<text x="16.00" y="50.00" font-size="12" font-family="Arial" fill="#52606d" text-anchor="start">RSI14</text>
<line x1="56" y1="220.00" x2="904" y2="220.00" stroke="#edf2f7" />
<line x1="52" y1="220.00" x2="56" y2="220.00" stroke="#9fb3c8" />
<text x="48.00" y="224.00" font-size="11" font-family="Arial" fill="#52606d" text-anchor="end">-5.00</text>
<line x1="56" y1="166.00" x2="904" y2="166.00" stroke="#edf2f7" />
<line x1="52" y1="166.00" x2="56" y2="166.00" stroke="#9fb3c8" />
<text x="48.00" y="170.00" font-size="11" font-family="Arial" fill="#52606d" text-anchor="end">31.7</text>
<line x1="56" y1="112.00" x2="904" y2="112.00" stroke="#edf2f7" />
<line x1="52" y1="112.00" x2="56" y2="112.00" stroke="#9fb3c8" />
<text x="48.00" y="116.00" font-size="11" font-family="Arial" fill="#52606d" text-anchor="end">68.3</text>
<line x1="56" y1="58.00" x2="904" y2="58.00" stroke="#edf2f7" />
<line x1="52" y1="58.00" x2="56" y2="58.00" stroke="#9fb3c8" />
<text x="48.00" y="62.00" font-size="11" font-family="Arial" fill="#52606d" text-anchor="end">105</text>
<line x1="56" y1="168.45" x2="904" y2="168.45" stroke="#f0b429" stroke-dasharray="5 5" />
<text x="912.00" y="172.45" font-size="10" font-family="Arial" fill="#8d2b0b" text-anchor="start">30.0</text>
<line x1="56" y1="109.55" x2="904" y2="109.55" stroke="#f0b429" stroke-dasharray="5 5" />
<text x="912.00" y="113.55" font-size="10" font-family="Arial" fill="#8d2b0b" text-anchor="start">70.0</text>
<polyline fill="none" stroke="#1f77b4" stroke-width="2" points="101.84,117.60 105.11,113.27 108.39,113.80 111.66,119.62 114.93,122.30 118.21,130.19 121.48,154.19 124.76,134.51 128.03,140.07 131.31,132.19 134.58,132.93 137.85,125.39 141.13,128.13 144.40,118.74 147.68,116.04 150.95,116.03 154.22,119.42 157.50,120.00 160.77,128.58 164.05,132.42 167.32,137.90 170.59,121.82 173.87,127.53 177.14,123.81 180.42,121.72 183.69,118.55 186.97,127.03 190.24,136.43 193.51,131.08 196.79,123.46 200.06,127.04 203.34,124.62 206.61,122.35 209.88,119.68 213.16,112.90 216.43,113.26 219.71,109.19 222.98,111.54 226.25,113.66 229.53,109.59 232.80,105.93 236.08,102.45 239.35,112.44 242.63,118.27 245.90,126.01 249.17,120.08 252.45,117.44 255.72,114.12 259.00,111.06 262.27,110.12 265.54,110.04 268.82,106.98 272.09,114.56 275.37,109.08 278.64,114.58 281.92,150.12 285.19,135.17 288.46,136.54 291.74,132.56 295.01,139.22 298.29,134.09 301.56,125.52 304.83,125.67 308.11,131.38 311.38,126.57 314.66,120.23 317.93,112.55 321.20,110.99 324.48,110.74 327.75,124.14 331.03,121.99 334.30,120.50 337.58,133.69 340.85,131.09 344.12,141.43 347.40,140.43 350.67,127.40 353.95,125.70 357.22,125.32 360.49,141.29 363.77,141.51 367.04,149.11 370.32,154.89 373.59,151.22 376.86,160.83 380.14,151.45 383.41,139.60 386.69,133.21 389.96,128.80 393.24,125.41 396.51,129.41 399.78,128.27 403.06,125.88 406.33,125.28 409.61,123.91 412.88,127.26 416.15,128.20 419.43,122.79 422.70,120.83 425.98,133.65 429.25,135.20 432.53,138.22 435.80,148.75 439.07,140.93 442.35,132.82 445.62,127.68 448.90,124.09 452.17,121.59 455.44,121.52 458.72,126.05 461.99,127.84 465.27,136.65 468.54,134.67 471.81,128.02 475.09,122.68 478.36,126.96 481.64,127.20 484.91,120.84 488.19,119.39 491.46,122.61 494.73,129.88 498.01,126.97 501.28,128.26 504.56,152.23 507.83,139.68 511.10,134.73 514.38,134.34 517.65,129.44 520.93,125.74 524.20,125.95 527.47,128.80 530.75,133.14 534.02,127.31 537.30,138.31 540.57,143.91 543.85,155.14 547.12,135.85 550.39,132.06 553.67,134.76 556.94,134.90 560.22,148.61 563.49,147.98 566.76,146.15 570.04,140.97 573.31,143.42 576.59,136.19 579.86,145.69 583.14,138.66 586.41,131.43 589.68,136.85 592.96,141.03 596.23,140.66 599.51,148.47 602.78,141.35 606.05,146.00 609.33,155.90 612.60,147.48 615.88,148.77 619.15,149.62 622.42,160.10 625.70,163.26 628.97,153.09 632.25,150.43 635.52,159.16 638.80,160.66 642.07,167.97 645.34,157.67 648.62,159.49 651.89,154.42 655.17,163.71 658.44,170.52 661.71,171.76 664.99,149.91 668.26,144.89 671.54,144.15 674.81,141.23 678.08,140.81 681.36,126.00 684.63,123.06 687.91,123.59 691.18,118.65 694.46,113.19 697.73,109.91 701.00,109.02 704.28,104.30 707.55,106.24 710.83,112.89 714.10,108.40 717.37,112.45 720.65,108.89 723.92,108.16 727.20,113.52 730.47,113.56 733.75,108.53 737.02,107.10 740.29,111.57 743.57,107.43 746.84,101.18 750.12,105.08 753.39,101.54 756.66,100.63 759.94,102.35 763.21,99.84 766.49,96.61 769.76,112.40 773.03,113.33 776.31,120.82 779.58,114.39 782.86,113.30 786.13,110.97 789.41,107.36 792.68,107.46 795.95,104.29 799.23,103.07 802.50,101.66 805.78,100.91 809.05,112.39 812.32,109.69 815.60,139.84 818.87,137.72 822.15,140.33 825.42,152.50 828.69,138.57 831.97,134.61 835.24,123.74 838.52,128.62 841.79,137.67 845.07,131.50 848.34,133.68 851.61,143.39 854.89,144.00 858.16,143.97 861.44,147.53 864.71,135.49 867.98,129.98 871.26,131.58 874.53,132.34 877.81,126.54 881.08,131.19 884.36,133.56 887.63,127.74 890.90,124.56 894.18,132.04 897.45,129.20 900.73,126.31 904.00,131.67" />
<text x="808.00" y="76.00" font-size="13" font-family="Arial" fill="#1f77b4" text-anchor="start">RSI14</text>
<line x1="56" y1="432" x2="904" y2="432" stroke="#cbd2d9" />
<line x1="56" y1="272" x2="56" y2="432" stroke="#cbd2d9" />
<text x="16.00" y="264.00" font-size="12" font-family="Arial" fill="#52606d" text-anchor="start">MACD</text>
<line x1="56" y1="432.00" x2="904" y2="432.00" stroke="#edf2f7" />
<line x1="52" y1="432.00" x2="56" y2="432.00" stroke="#9fb3c8" />
<text x="48.00" y="436.00" font-size="11" font-family="Arial" fill="#52606d" text-anchor="end">-11.5</text>
<line x1="56" y1="378.67" x2="904" y2="378.67" stroke="#edf2f7" />
<line x1="52" y1="378.67" x2="56" y2="378.67" stroke="#9fb3c8" />
<text x="48.00" y="382.67" font-size="11" font-family="Arial" fill="#52606d" text-anchor="end">-2.45</text>
<line x1="56" y1="325.33" x2="904" y2="325.33" stroke="#edf2f7" />
<line x1="52" y1="325.33" x2="56" y2="325.33" stroke="#9fb3c8" />
<text x="48.00" y="329.33" font-size="11" font-family="Arial" fill="#52606d" text-anchor="end">6.61</text>
<line x1="56" y1="272.00" x2="904" y2="272.00" stroke="#edf2f7" />
<line x1="52" y1="272.00" x2="56" y2="272.00" stroke="#9fb3c8" />
<text x="48.00" y="276.00" font-size="11" font-family="Arial" fill="#52606d" text-anchor="end">15.7</text>
<line x1="56" y1="364.23" x2="904" y2="364.23" stroke="#9fb3c8" stroke-dasharray="4 4" />
<rect x="136.71" y="364.23" width="2.28" height="0.00" fill="#2f9e44" opacity="0.55" />
<rect x="139.99" y="363.39" width="2.28" height="0.84" fill="#2f9e44" opacity="0.55" />
<rect x="143.26" y="360.68" width="2.28" height="3.55" fill="#2f9e44" opacity="0.55" />
<rect x="146.53" y="358.50" width="2.28" height="5.73" fill="#2f9e44" opacity="0.55" />
<rect x="149.81" y="357.54" width="2.28" height="6.69" fill="#2f9e44" opacity="0.55" />
<rect x="153.08" y="357.89" width="2.28" height="6.34" fill="#2f9e44" opacity="0.55" />
<rect x="156.36" y="358.66" width="2.28" height="5.57" fill="#2f9e44" opacity="0.55" />
<rect x="159.63" y="360.78" width="2.28" height="3.45" fill="#2f9e44" opacity="0.55" />
<rect x="162.90" y="363.03" width="2.28" height="1.20" fill="#2f9e44" opacity="0.55" />
<rect x="166.18" y="364.23" width="2.28" height="1.29" fill="#d64545" opacity="0.55" />
<rect x="169.45" y="363.85" width="2.28" height="0.38" fill="#2f9e44" opacity="0.55" />
<rect x="172.73" y="363.92" width="2.28" height="0.31" fill="#2f9e44" opacity="0.55" />
<rect x="176.00" y="363.26" width="2.28" height="0.97" fill="#2f9e44" opacity="0.55" />
<rect x="179.28" y="362.56" width="2.28" height="1.67" fill="#2f9e44" opacity="0.55" />
<rect x="182.55" y="361.60" width="2.28" height="2.64" fill="#2f9e44" opacity="0.55" />
<rect x="185.82" y="362.58" width="2.28" height="1.65" fill="#2f9e44" opacity="0.55" />
<rect x="189.10" y="364.23" width="2.28" height="0.85" fill="#d64545" opacity="0.55" />
<rect x="192.37" y="364.23" width="2.28" height="1.43" fill="#d64545" opacity="0.55" />
<rect x="195.65" y="364.23" width="2.28" height="0.08" fill="#d64545" opacity="0.55" />
<rect x="198.92" y="364.23" width="2.28" height="0.01" fill="#d64545" opacity="0.55" />
<rect x="202.19" y="363.79" width="2.28" height="0.44" fill="#2f9e44" opacity="0.55" />
<rect x="205.47" y="363.17" width="2.28" height="1.06" fill="#2f9e44" opacity="0.55" />
<rect x="208.74" y="362.37" width="2.28" height="1.86" fill="#2f9e44" opacity="0.55" />
<rect x="212.02" y="360.33" width="2.28" height="3.90" fill="#2f9e44" opacity="0.55" />
<rect x="215.29" y="359.49" width="2.28" height="4.74" fill="#2f9e44" opacity="0.55" />
<rect x="218.57" y="358.24" width="2.28" height="5.99" fill="#2f9e44" opacity="0.55" />
<rect x="221.84" y="358.28" width="2.28" height="5.95" fill="#2f9e44" opacity="0.55" />
<rect x="225.11" y="359.11" width="2.28" height="5.13" fill="#2f9e44" opacity="0.55" />
<rect x="228.39" y="359.07" width="2.28" height="5.16" fill="#2f9e44" opacity="0.55" />
<rect x="231.66" y="358.51" width="2.28" height="5.72" fill="#2f9e44" opacity="0.55" />
<rect x="234.94" y="357.62" width="2.28" height="6.61" fill="#2f9e44" opacity="0.55" />
<rect x="238.21" y="358.88" width="2.28" height="5.35" fill="#2f9e44" opacity="0.55" />
<rect x="241.48" y="361.00" width="2.28" height="3.24" fill="#2f9e44" opacity="0.55" />
<rect x="244.76" y="363.87" width="2.28" height="0.36" fill="#2f9e44" opacity="0.55" />
<rect x="248.03" y="364.23" width="2.28" height="0.43" fill="#d64545" opacity="0.55" />
<rect x="251.31" y="364.23" width="2.28" height="0.56" fill="#d64545" opacity="0.55" />
<rect x="254.58" y="364.23" width="2.28" height="0.08" fill="#d64545" opacity="0.55" />
<rect x="257.85" y="363.48" width="2.28" height="0.75" fill="#2f9e44" opacity="0.55" />
<rect x="261.13" y="363.04" width="2.28" height="1.19" fill="#2f9e44" opacity="0.55" />
<rect x="264.40" y="363.11" width="2.28" height="1.12" fill="#2f9e44" opacity="0.55" />
<rect x="267.68" y="362.73" width="2.28" height="1.50" fill="#2f9e44" opacity="0.55" />
<rect x="270.95" y="363.70" width="2.28" height="0.53" fill="#2f9e44" opacity="0.55" />
<rect x="274.23" y="363.31" width="2.28" height="0.92" fill="#2f9e44" opacity="0.55" />
<rect x="277.50" y="364.05" width="2.28" height="0.18" fill="#2f9e44" opacity="0.55" />
<rect x="280.77" y="364.23" width="2.28" height="6.77" fill="#d64545" opacity="0.55" />
<rect x="284.05" y="364.23" width="2.28" height="7.68" fill="#d64545" opacity="0.55" />
<rect x="287.32" y="364.23" width="2.28" height="8.45" fill="#d64545" opacity="0.55" />
<rect x="290.60" y="364.23" width="2.28" height="7.74" fill="#d64545" opacity="0.55" />
<rect x="293.87" y="364.23" width="2.28" height="8.64" fill="#d64545" opacity="0.55" />
<rect x="297.14" y="364.23" width="2.28" height="7.71" fill="#d64545" opacity="0.55" />
<rect x="300.42" y="364.23" width="2.28" height="4.55" fill="#d64545" opacity="0.55" />
<rect x="303.69" y="364.23" width="2.28" height="2.54" fill="#d64545" opacity="0.55" />
<rect x="306.97" y="364.23" width="2.28" height="2.50" fill="#d64545" opacity="0.55" />
<rect x="310.24" y="364.23" width="2.28" height="1.23" fill="#d64545" opacity="0.55" />
<rect x="313.51" y="362.88" width="2.28" height="1.35" fill="#2f9e44" opacity="0.55" />
<rect x="316.79" y="358.74" width="2.28" height="5.49" fill="#2f9e44" opacity="0.55" />
<rect x="320.06" y="356.00" width="2.28" height="8.23" fill="#2f9e44" opacity="0.55" />
<rect x="323.34" y="354.82" width="2.28" height="9.41" fill="#2f9e44" opacity="0.55" />
<rect x="326.61" y="357.31" width="2.28" height="6.92" fill="#2f9e44" opacity="0.55" />
<rect x="329.89" y="358.82" width="2.28" height="5.42" fill="#2f9e44" opacity="0.55" />
<rect x="333.16" y="359.84" width="2.28" height="4.39" fill="#2f9e44" opacity="0.55" />
<rect x="336.43" y="363.70" width="2.28" height="0.53" fill="#2f9e44" opacity="0.55" />
<rect x="339.71" y="364.23" width="2.28" height="1.49" fill="#d64545" opacity="0.55" />
<rect x="342.98" y="364.23" width="2.28" height="5.41" fill="#d64545" opacity="0.55" />
<rect x="346.26" y="364.23" width="2.28" height="7.60" fill="#d64545" opacity="0.55" />
<rect x="349.53" y="364.23" width="2.28" height="5.25" fill="#d64545" opacity="0.55" />
<rect x="352.80" y="364.23" width="2.28" height="3.19" fill="#d64545" opacity="0.55" />
<rect x="356.08" y="364.23" width="2.28" height="1.84" fill="#d64545" opacity="0.55" />
<rect x="359.35" y="364.23" width="2.28" height="4.92" fill="#d64545" opacity="0.55" />
<rect x="362.63" y="364.23" width="2.28" height="6.86" fill="#d64545" opacity="0.55" />
<rect x="365.90" y="364.23" width="2.28" height="10.05" fill="#d64545" opacity="0.55" />
<rect x="369.18" y="364.23" width="2.28" height="13.57" fill="#d64545" opacity="0.55" />
<rect x="372.45" y="364.23" width="2.28" height="14.39" fill="#d64545" opacity="0.55" />
<rect x="375.72" y="364.23" width="2.28" height="17.68" fill="#d64545" opacity="0.55" />
<rect x="379.00" y="364.23" width="2.28" height="16.66" fill="#d64545" opacity="0.55" />
<rect x="382.27" y="364.23" width="2.28" height="11.82" fill="#d64545" opacity="0.55" />
<rect x="385.55" y="364.23" width="2.28" height="6.03" fill="#d64545" opacity="0.55" />
<rect x="388.82" y="364.23" width="2.28" height="0.48" fill="#d64545" opacity="0.55" />
<rect x="392.09" y="359.90" width="2.28" height="4.33" fill="#2f9e44" opacity="0.55" />
<rect x="395.37" y="358.18" width="2.28" height="6.06" fill="#2f9e44" opacity="0.55" />
<rect x="398.64" y="357.03" width="2.28" height="7.20" fill="#2f9e44" opacity="0.55" />
<rect x="401.92" y="355.89" width="2.28" height="8.34" fill="#2f9e44" opacity="0.55" />
<rect x="405.19" y="355.46" width="2.28" height="8.77" fill="#2f9e44" opacity="0.55" />
<rect x="408.46" y="355.27" width="2.28" height="8.96" fill="#2f9e44" opacity="0.55" />
<rect x="411.74" y="356.41" width="2.28" height="7.83" fill="#2f9e44" opacity="0.55" />
<rect x="415.01" y="357.81" width="2.28" height="6.42" fill="#2f9e44" opacity="0.55" />
<rect x="418.29" y="357.64" width="2.28" height="6.59" fill="#2f9e44" opacity="0.55" />
<rect x="421.56" y="357.42" width="2.28" height="6.81" fill="#2f9e44" opacity="0.55" />
<rect x="424.84" y="360.34" width="2.28" height="3.89" fill="#2f9e44" opacity="0.55" />
<rect x="428.11" y="362.86" width="2.28" height="1.37" fill="#2f9e44" opacity="0.55" />
<rect x="431.38" y="364.23" width="2.28" height="1.09" fill="#d64545" opacity="0.55" />
<rect x="434.66" y="364.23" width="2.28" height="5.29" fill="#d64545" opacity="0.55" />
<rect x="437.93" y="364.23" width="2.28" height="6.05" fill="#d64545" opacity="0.55" />
<rect x="441.21" y="364.23" width="2.28" height="4.27" fill="#d64545" opacity="0.55" />
<rect x="444.48" y="364.23" width="2.28" height="1.58" fill="#d64545" opacity="0.55" />
<rect x="447.75" y="363.06" width="2.28" height="1.17" fill="#2f9e44" opacity="0.55" />
<rect x="451.03" y="360.73" width="2.28" height="3.50" fill="#2f9e44" opacity="0.55" />
<rect x="454.30" y="359.55" width="2.28" height="4.68" fill="#2f9e44" opacity="0.55" />
<rect x="457.58" y="360.04" width="2.28" height="4.20" fill="#2f9e44" opacity="0.55" />
<rect x="460.85" y="361.03" width="2.28" height="3.20" fill="#2f9e44" opacity="0.55" />
<rect x="464.12" y="363.69" width="2.28" height="0.54" fill="#2f9e44" opacity="0.55" />
<rect x="467.40" y="364.23" width="2.28" height="0.87" fill="#d64545" opacity="0.55" />
<rect x="470.67" y="364.23" width="2.28" height="0.31" fill="#d64545" opacity="0.55" />
<rect x="473.95" y="362.93" width="2.28" height="1.30" fill="#2f9e44" opacity="0.55" />
<rect x="477.22" y="362.90" width="2.28" height="1.33" fill="#2f9e44" opacity="0.55" />
<rect x="480.50" y="363.16" width="2.28" height="1.08" fill="#2f9e44" opacity="0.55" />
<rect x="483.77" y="361.94" width="2.28" height="2.29" fill="#2f9e44" opacity="0.55" />
<rect x="487.04" y="361.09" width="2.28" height="3.15" fill="#2f9e44" opacity="0.55" />
<rect x="490.32" y="361.38" width="2.28" height="2.86" fill="#2f9e44" opacity="0.55" />
<rect x="493.59" y="363.04" width="2.28" height="1.19" fill="#2f9e44" opacity="0.55" />
<rect x="496.87" y="363.70" width="2.28" height="0.53" fill="#2f9e44" opacity="0.55" />
<rect x="500.14" y="364.23" width="2.28" height="0.29" fill="#d64545" opacity="0.55" />
<rect x="503.41" y="364.23" width="2.28" height="5.80" fill="#d64545" opacity="0.55" />
<rect x="506.69" y="364.23" width="2.28" height="6.46" fill="#d64545" opacity="0.55" />
<rect x="509.96" y="364.23" width="2.28" height="5.46" fill="#d64545" opacity="0.55" />
<rect x="513.24" y="364.23" width="2.28" height="4.60" fill="#d64545" opacity="0.55" />
<rect x="516.51" y="364.23" width="2.28" height="2.73" fill="#d64545" opacity="0.55" />
<rect x="519.79" y="364.23" width="2.28" height="0.57" fill="#d64545" opacity="0.55" />
<rect x="523.06" y="363.57" width="2.28" height="0.66" fill="#2f9e44" opacity="0.55" />
<rect x="526.33" y="363.46" width="2.28" height="0.77" fill="#2f9e44" opacity="0.55" />
<rect x="529.61" y="364.23" width="2.28" height="0.10" fill="#d64545" opacity="0.55" />
<rect x="532.88" y="363.70" width="2.28" height="0.53" fill="#2f9e44" opacity="0.55" />
<rect x="536.16" y="364.23" width="2.28" height="1.30" fill="#d64545" opacity="0.55" />
<rect x="539.43" y="364.23" width="2.28" height="3.71" fill="#d64545" opacity="0.55" />
<rect x="542.70" y="364.23" width="2.28" height="8.06" fill="#d64545" opacity="0.55" />
<rect x="545.98" y="364.23" width="2.28" height="5.93" fill="#d64545" opacity="0.55" />
<rect x="549.25" y="364.23" width="2.28" height="3.25" fill="#d64545" opacity="0.55" />
<rect x="552.53" y="364.23" width="2.28" height="2.15" fill="#d64545" opacity="0.55" />
<rect x="555.80" y="364.23" width="2.28" height="1.46" fill="#d64545" opacity="0.55" />
<rect x="559.07" y="364.23" width="2.28" height="4.69" fill="#d64545" opacity="0.55" />
<rect x="562.35" y="364.23" width="2.28" height="6.39" fill="#d64545" opacity="0.55" />
<rect x="565.62" y="364.23" width="2.28" height="6.75" fill="#d64545" opacity="0.55" />
<rect x="568.90" y="364.23" width="2.28" height="5.47" fill="#d64545" opacity="0.55" />
<rect x="572.17" y="364.23" width="2.28" height="5.00" fill="#d64545" opacity="0.55" />
<rect x="575.45" y="364.23" width="2.28" height="2.78" fill="#d64545" opacity="0.55" />
<rect x="578.72" y="364.23" width="2.28" height="3.62" fill="#d64545" opacity="0.55" />
<rect x="581.99" y="364.23" width="2.28" height="2.24" fill="#d64545" opacity="0.55" />
<rect x="585.27" y="363.49" width="2.28" height="0.74" fill="#2f9e44" opacity="0.55" />
<rect x="588.54" y="362.98" width="2.28" height="1.25" fill="#2f9e44" opacity="0.55" />
<rect x="591.82" y="363.81" width="2.28" height="0.43" fill="#2f9e44" opacity="0.55" />
<rect x="595.09" y="364.23" width="2.28" height="0.01" fill="#d64545" opacity="0.55" />
<rect x="598.36" y="364.23" width="2.28" height="2.36" fill="#d64545" opacity="0.55" />
<rect x="601.64" y="364.23" width="2.28" height="2.02" fill="#d64545" opacity="0.55" />
<rect x="604.91" y="364.23" width="2.28" height="2.94" fill="#d64545" opacity="0.55" />
<rect x="608.19" y="364.23" width="2.28" height="6.47" fill="#d64545" opacity="0.55" />
<rect x="611.46" y="364.23" width="2.28" height="6.30" fill="#d64545" opacity="0.55" />
<rect x="614.73" y="364.23" width="2.28" height="6.21" fill="#d64545" opacity="0.55" />
<rect x="618.01" y="364.23" width="2.28" height="6.01" fill="#d64545" opacity="0.55" />
<rect x="621.28" y="364.23" width="2.28" height="9.05" fill="#d64545" opacity="0.55" />
<rect x="624.56" y="364.23" width="2.28" height="11.65" fill="#d64545" opacity="0.55" />
<rect x="627.83" y="364.23" width="2.28" height="10.26" fill="#d64545" opacity="0.55" />
<rect x="631.11" y="364.23" width="2.28" height="8.07" fill="#d64545" opacity="0.55" />
<rect x="634.38" y="364.23" width="2.28" height="9.27" fill="#d64545" opacity="0.55" />
<rect x="637.65" y="364.23" width="2.28" height="9.96" fill="#d64545" opacity="0.55" />
<rect x="640.93" y="364.23" width="2.28" height="12.94" fill="#d64545" opacity="0.55" />
<rect x="644.20" y="364.23" width="2.28" height="11.46" fill="#d64545" opacity="0.55" />
<rect x="647.48" y="364.23" width="2.28" height="10.43" fill="#d64545" opacity="0.55" />
<rect x="650.75" y="364.23" width="2.28" height="7.71" fill="#d64545" opacity="0.55" />
<rect x="654.02" y="364.23" width="2.28" height="9.31" fill="#d64545" opacity="0.55" />
<rect x="657.30" y="364.23" width="2.28" height="13.26" fill="#d64545" opacity="0.55" />
<rect x="660.57" y="364.23" width="2.28" height="15.44" fill="#d64545" opacity="0.55" />
<rect x="663.85" y="364.23" width="2.28" height="9.37" fill="#d64545" opacity="0.55" />
<rect x="667.12" y="364.23" width="2.28" height="2.88" fill="#d64545" opacity="0.55" />
<rect x="670.40" y="362.21" width="2.28" height="2.02" fill="#2f9e44" opacity="0.55" />
<rect x="673.67" y="357.81" width="2.28" height="6.42" fill="#2f9e44" opacity="0.55" />
<rect x="676.94" y="354.85" width="2.28" height="9.38" fill="#2f9e44" opacity="0.55" />
<rect x="680.22" y="347.37" width="2.28" height="16.86" fill="#2f9e44" opacity="0.55" />
<rect x="683.49" y="341.84" width="2.28" height="22.39" fill="#2f9e44" opacity="0.55" />
<rect x="686.77" y="339.41" width="2.28" height="24.82" fill="#2f9e44" opacity="0.55" />
<rect x="690.04" y="336.65" width="2.28" height="27.58" fill="#2f9e44" opacity="0.55" />
<rect x="693.31" y="333.34" width="2.28" height="30.89" fill="#2f9e44" opacity="0.55" />
<rect x="696.59" y="330.86" width="2.28" height="33.37" fill="#2f9e44" opacity="0.55" />
<rect x="699.86" y="330.50" width="2.28" height="33.73" fill="#2f9e44" opacity="0.55" />
<rect x="703.14" y="329.13" width="2.28" height="35.11" fill="#2f9e44" opacity="0.55" />
<rect x="706.41" y="330.69" width="2.28" height="33.54" fill="#2f9e44" opacity="0.55" />
<rect x="709.68" y="335.24" width="2.28" height="28.99" fill="#2f9e44" opacity="0.55" />
<rect x="712.96" y="337.39" width="2.28" height="26.84" fill="#2f9e44" opacity="0.55" />
<rect x="716.23" y="341.46" width="2.28" height="22.77" fill="#2f9e44" opacity="0.55" />
<rect x="719.51" y="343.66" width="2.28" height="20.57" fill="#2f9e44" opacity="0.55" />
<rect x="722.78" y="346.14" width="2.28" height="18.09" fill="#2f9e44" opacity="0.55" />
<rect x="726.06" y="350.32" width="2.28" height="13.91" fill="#2f9e44" opacity="0.55" />
<rect x="729.33" y="354.18" width="2.28" height="10.05" fill="#2f9e44" opacity="0.55" />
<rect x="732.60" y="355.28" width="2.28" height="8.95" fill="#2f9e44" opacity="0.55" />
<rect x="735.88" y="356.26" width="2.28" height="7.97" fill="#2f9e44" opacity="0.55" />
<rect x="739.15" y="358.75" width="2.28" height="5.48" fill="#2f9e44" opacity="0.55" />
<rect x="742.43" y="359.23" width="2.28" height="5.00" fill="#2f9e44" opacity="0.55" />
<rect x="745.70" y="356.88" width="2.28" height="7.35" fill="#2f9e44" opacity="0.55" />
<rect x="748.97" y="357.19" width="2.28" height="7.04" fill="#2f9e44" opacity="0.55" />
<rect x="752.25" y="356.31" width="2.28" height="7.92" fill="#2f9e44" opacity="0.55" />
<rect x="755.52" y="356.26" width="2.28" height="7.97" fill="#2f9e44" opacity="0.55" />
<rect x="758.80" y="357.62" width="2.28" height="6.61" fill="#2f9e44" opacity="0.55" />
<rect x="762.07" y="358.09" width="2.28" height="6.14" fill="#2f9e44" opacity="0.55" />
<rect x="765.34" y="357.40" width="2.28" height="6.83" fill="#2f9e44" opacity="0.55" />
<rect x="768.62" y="361.13" width="2.28" height="3.10" fill="#2f9e44" opacity="0.55" />
<rect x="771.89" y="364.23" width="2.28" height="0.30" fill="#d64545" opacity="0.55" />
<rect x="775.17" y="364.23" width="2.28" height="4.75" fill="#d64545" opacity="0.55" />
<rect x="778.44" y="364.23" width="2.28" height="5.37" fill="#d64545" opacity="0.55" />
<rect x="781.72" y="364.23" width="2.28" height="5.68" fill="#d64545" opacity="0.55" />
<rect x="784.99" y="364.23" width="2.28" height="5.24" fill="#d64545" opacity="0.55" />
<rect x="788.26" y="364.23" width="2.28" height="3.67" fill="#d64545" opacity="0.55" />
<rect x="791.54" y="364.23" width="2.28" height="3.17" fill="#d64545" opacity="0.55" />
<rect x="794.81" y="364.23" width="2.28" height="1.85" fill="#d64545" opacity="0.55" />
<rect x="798.09" y="364.23" width="2.28" height="0.98" fill="#d64545" opacity="0.55" />
<rect x="801.36" y="364.23" width="2.28" height="0.34" fill="#d64545" opacity="0.55" />
<rect x="804.63" y="364.23" width="2.28" height="0.19" fill="#d64545" opacity="0.55" />
<rect x="807.91" y="364.23" width="2.28" height="2.56" fill="#d64545" opacity="0.55" />
<rect x="811.18" y="364.23" width="2.28" height="3.53" fill="#d64545" opacity="0.55" />
<rect x="814.46" y="364.23" width="2.28" height="11.34" fill="#d64545" opacity="0.55" />
<rect x="817.73" y="364.23" width="2.28" height="15.61" fill="#d64545" opacity="0.55" />
<rect x="821.01" y="364.23" width="2.28" height="18.76" fill="#d64545" opacity="0.55" />
<rect x="824.28" y="364.23" width="2.28" height="24.26" fill="#d64545" opacity="0.55" />
<rect x="827.55" y="364.23" width="2.28" height="22.72" fill="#d64545" opacity="0.55" />
<rect x="830.83" y="364.23" width="2.28" height="19.57" fill="#d64545" opacity="0.55" />
<rect x="834.10" y="364.23" width="2.28" height="12.49" fill="#d64545" opacity="0.55" />
<rect x="837.38" y="364.23" width="2.28" height="9.27" fill="#d64545" opacity="0.55" />
<rect x="840.65" y="364.23" width="2.28" height="10.20" fill="#d64545" opacity="0.55" />
<rect x="843.92" y="364.23" width="2.28" height="8.03" fill="#d64545" opacity="0.55" />
<rect x="847.20" y="364.23" width="2.28" height="7.28" fill="#d64545" opacity="0.55" />
<rect x="850.47" y="364.23" width="2.28" height="10.34" fill="#d64545" opacity="0.55" />
<rect x="853.75" y="364.23" width="2.28" height="12.19" fill="#d64545" opacity="0.55" />
<rect x="857.02" y="364.23" width="2.28" height="12.91" fill="#d64545" opacity="0.55" />
<rect x="860.29" y="364.23" width="2.28" height="14.18" fill="#d64545" opacity="0.55" />
<rect x="863.57" y="364.23" width="2.28" height="10.33" fill="#d64545" opacity="0.55" />
<rect x="866.84" y="364.23" width="2.28" height="5.33" fill="#d64545" opacity="0.55" />
<rect x="870.12" y="364.23" width="2.28" height="2.53" fill="#d64545" opacity="0.55" />
<rect x="873.39" y="364.23" width="2.28" height="0.97" fill="#d64545" opacity="0.55" />
<rect x="876.67" y="362.11" width="2.28" height="2.12" fill="#2f9e44" opacity="0.55" />
<rect x="879.94" y="361.72" width="2.28" height="2.51" fill="#2f9e44" opacity="0.55" />
<rect x="883.21" y="362.40" width="2.28" height="1.83" fill="#2f9e44" opacity="0.55" />
<rect x="886.49" y="361.00" width="2.28" height="3.23" fill="#2f9e44" opacity="0.55" />
<rect x="889.76" y="359.23" width="2.28" height="5.00" fill="#2f9e44" opacity="0.55" />
<rect x="893.04" y="360.52" width="2.28" height="3.71" fill="#2f9e44" opacity="0.55" />
<rect x="896.31" y="360.70" width="2.28" height="3.53" fill="#2f9e44" opacity="0.55" />
<rect x="899.58" y="360.13" width="2.28" height="4.10" fill="#2f9e44" opacity="0.55" />
<rect x="902.86" y="361.52" width="2.28" height="2.71" fill="#2f9e44" opacity="0.55" />
<polyline fill="none" stroke="#1f77b4" stroke-width="2" points="137.85,354.80 141.13,353.75 144.40,350.15 147.68,346.54 150.95,343.91 154.22,342.67 157.50,342.04 160.77,343.30 164.05,345.25 167.32,348.06 170.59,346.30 173.87,346.29 177.14,345.39 180.42,344.27 183.69,342.65 186.97,343.22 190.24,345.93 193.51,346.87 196.79,345.54 200.06,345.47 203.34,344.92 206.61,344.03 209.88,342.76 213.16,339.74 216.43,337.72 219.71,334.97 222.98,333.53 226.25,333.07 229.53,331.74 232.80,329.76 236.08,327.21 239.35,327.13 242.63,328.44 245.90,331.22 249.17,332.12 252.45,332.40 255.72,331.93 259.00,330.91 262.27,330.18 265.54,329.97 268.82,329.22 272.09,330.05 275.37,329.43 278.64,330.12 281.92,338.77 285.19,341.60 288.46,344.48 291.74,345.71 295.01,348.76 298.29,349.77 301.56,347.73 304.83,346.37 308.11,346.95 311.38,345.99 314.66,343.07 317.93,337.56 321.20,332.76 324.48,329.23 327.75,329.99 331.03,330.14 334.30,330.07 337.58,333.79 340.85,336.19 344.12,341.46 347.40,345.55 350.67,344.51 353.95,343.25 357.22,342.36 360.49,346.67 363.77,350.32 367.04,356.03 370.32,362.95 373.59,367.35 376.86,375.07 380.14,378.22 383.41,376.33 386.69,372.05 389.96,366.61 393.24,360.72 396.51,357.48 399.78,354.53 403.06,351.31 406.33,348.69 409.61,346.27 412.88,345.44 416.15,345.24 419.43,343.42 422.70,341.50 425.98,343.44 429.25,345.63 432.53,348.36 435.80,353.88 439.07,356.15 442.35,355.44 445.62,353.14 448.90,350.10 452.17,346.89 455.44,344.55 458.72,343.98 461.99,344.18 465.27,346.70 468.54,348.33 471.81,347.85 475.09,345.91 478.36,345.55 481.64,345.54 484.91,343.75 488.19,342.11 491.46,341.68 494.73,343.05 498.01,343.58 501.28,344.47 504.56,351.44 507.83,353.71 511.10,354.08 514.38,354.36 517.65,353.17 520.93,351.15 524.20,349.76 527.47,349.46 530.75,350.35 534.02,349.59 537.30,351.74 540.57,355.08 543.85,361.45 547.12,360.80 550.39,358.94 553.67,358.37 556.94,358.04 560.22,362.45 563.49,365.74 566.76,367.79 570.04,367.88 573.31,368.66 576.59,367.13 579.86,368.88 583.14,368.06 586.41,364.89 589.68,364.07 592.96,364.79 596.23,365.23 599.51,368.16 602.78,368.33 606.05,369.99 609.33,375.13 612.60,376.53 615.88,378.00 619.15,379.30 622.42,384.61 625.70,390.12 628.97,391.29 632.25,391.11 635.52,394.64 638.80,397.81 642.07,404.03 645.34,405.41 648.62,406.99 651.89,406.20 655.17,410.12 658.44,417.39 661.71,423.43 664.99,419.71 668.26,413.94 671.54,408.52 674.81,402.53 678.08,397.22 681.36,385.52 684.63,374.39 687.91,365.75 691.18,356.11 694.46,345.07 697.73,334.25 701.00,325.46 704.28,315.30 707.55,308.49 710.83,305.79 714.10,301.23 717.37,299.61 720.65,296.66 723.92,294.62 727.20,295.33 730.47,296.68 733.75,295.54 737.02,294.52 740.29,295.64 743.57,294.87 746.84,290.68 750.12,289.23 753.39,286.37 756.66,284.33 759.94,284.04 763.21,282.97 766.49,280.57 769.76,283.53 773.03,287.01 776.31,292.64 779.58,294.60 782.86,296.33 786.13,297.20 789.41,296.55 792.68,296.84 795.95,295.98 799.23,295.35 802.50,294.80 805.78,294.70 809.05,297.71 812.32,299.57 815.60,310.21 818.87,318.38 822.15,326.23 825.42,337.79 828.69,341.92 831.97,343.67 835.24,339.72 838.52,338.81 841.79,342.29 845.07,342.13 848.34,343.20 851.61,348.84 854.89,353.74 858.16,357.69 861.44,362.50 864.71,361.24 867.98,357.56 871.26,355.39 874.53,354.09 877.81,350.46 881.08,349.44 884.36,349.67 887.63,347.46 890.90,344.43 894.18,344.80 897.45,344.10 900.73,342.50 904.00,343.22" />
<polyline fill="none" stroke="#ff7f0e" stroke-width="2" points="137.85,354.80 141.13,354.59 144.40,353.70 147.68,352.27 150.95,350.60 154.22,349.01 157.50,347.62 160.77,346.76 164.05,346.45 167.32,346.78 170.59,346.68 173.87,346.60 177.14,346.36 180.42,345.94 183.69,345.28 186.97,344.87 190.24,345.08 193.51,345.44 196.79,345.46 200.06,345.46 203.34,345.35 206.61,345.09 209.88,344.62 213.16,343.65 216.43,342.46 219.71,340.96 222.98,339.48 226.25,338.19 229.53,336.90 232.80,335.47 236.08,333.82 239.35,332.48 242.63,331.67 245.90,331.58 249.17,331.69 252.45,331.83 255.72,331.85 259.00,331.66 262.27,331.37 265.54,331.09 268.82,330.71 272.09,330.58 275.37,330.35 278.64,330.30 281.92,332.00 285.19,333.92 288.46,336.03 291.74,337.96 295.01,340.12 298.29,342.05 301.56,343.19 304.83,343.82 308.11,344.45 311.38,344.76 314.66,344.42 317.93,343.05 321.20,340.99 324.48,338.64 327.75,336.91 331.03,335.55 334.30,334.46 337.58,334.32 340.85,334.70 344.12,336.05 347.40,337.95 350.67,339.26 353.95,340.06 357.22,340.52 360.49,341.75 363.77,343.46 367.04,345.98 370.32,349.37 373.59,352.97 376.86,357.39 380.14,361.55 383.41,364.51 386.69,366.02 389.96,366.14 393.24,365.05 396.51,363.54 399.78,361.74 403.06,359.65 406.33,357.46 409.61,355.22 412.88,353.27 416.15,351.66 419.43,350.01 422.70,348.31 425.98,347.34 429.25,346.99 432.53,347.27 435.80,348.59 439.07,350.10 442.35,351.17 445.62,351.56 448.90,351.27 452.17,350.39 455.44,349.22 458.72,348.18 461.99,347.38 465.27,347.24 468.54,347.46 471.81,347.54 475.09,347.21 478.36,346.88 481.64,346.61 484.91,346.04 488.19,345.25 491.46,344.54 494.73,344.24 498.01,344.11 501.28,344.18 504.56,345.63 507.83,347.25 511.10,348.61 514.38,349.76 517.65,350.44 520.93,350.59 524.20,350.42 527.47,350.23 530.75,350.25 534.02,350.12 537.30,350.45 540.57,351.37 543.85,353.39 547.12,354.87 550.39,355.68 553.67,356.22 556.94,356.59 560.22,357.76 563.49,359.36 566.76,361.04 570.04,362.41 573.31,363.66 576.59,364.35 579.86,365.26 583.14,365.82 586.41,365.63 589.68,365.32 592.96,365.21 596.23,365.22 599.51,365.81 602.78,366.31 606.05,367.05 609.33,368.66 612.60,370.24 615.88,371.79 619.15,373.29 622.42,375.56 625.70,378.47 628.97,381.03 632.25,383.05 635.52,385.37 638.80,387.86 642.07,391.09 645.34,393.95 648.62,396.56 651.89,398.49 655.17,400.82 658.44,404.13 661.71,407.99 664.99,410.33 668.26,411.05 671.54,410.55 674.81,408.94 678.08,406.60 681.36,402.38 684.63,396.78 687.91,390.58 691.18,383.68 694.46,375.96 697.73,367.62 701.00,359.19 704.28,350.41 707.55,342.03 710.83,334.78 714.10,328.07 717.37,322.38 720.65,317.23 723.92,312.71 727.20,309.23 730.47,306.72 733.75,304.48 737.02,302.49 740.29,301.12 743.57,299.87 746.84,298.03 750.12,296.27 753.39,294.29 756.66,292.30 759.94,290.65 763.21,289.11 766.49,287.40 769.76,286.63 773.03,286.70 776.31,287.89 779.58,289.23 782.86,290.65 786.13,291.96 789.41,292.88 792.68,293.67 795.95,294.13 799.23,294.38 802.50,294.46 805.78,294.51 809.05,295.15 812.32,296.03 815.60,298.87 818.87,302.77 822.15,307.46 825.42,313.53 828.69,319.21 831.97,324.10 835.24,327.22 838.52,329.54 841.79,332.09 845.07,334.10 848.34,335.92 851.61,338.50 854.89,341.55 858.16,344.78 861.44,348.32 864.71,350.91 867.98,352.24 871.26,352.87 874.53,353.11 877.81,352.58 881.08,351.95 884.36,351.50 887.63,350.69 890.90,349.44 894.18,348.51 897.45,347.63 900.73,346.60 904.00,345.93" />
<text x="754.00" y="290.00" font-size="13" font-family="Arial" fill="#1f77b4" text-anchor="start">MACD</text>
<text x="818.00" y="290.00" font-size="13" font-family="Arial" fill="#ff7f0e" text-anchor="start">Signal</text>
<line x1="56" y1="624" x2="904" y2="624" stroke="#cbd2d9" />
<line x1="56" y1="484" x2="56" y2="624" stroke="#cbd2d9" />
<text x="16.00" y="476.00" font-size="12" font-family="Arial" fill="#52606d" text-anchor="start">KD</text>
<line x1="56" y1="624.00" x2="904" y2="624.00" stroke="#edf2f7" />
<line x1="52" y1="624.00" x2="56" y2="624.00" stroke="#9fb3c8" />
<text x="48.00" y="628.00" font-size="11" font-family="Arial" fill="#52606d" text-anchor="end">-5.00</text>
<line x1="56" y1="577.33" x2="904" y2="577.33" stroke="#edf2f7" />
<line x1="52" y1="577.33" x2="56" y2="577.33" stroke="#9fb3c8" />
<text x="48.00" y="581.33" font-size="11" font-family="Arial" fill="#52606d" text-anchor="end">31.7</text>
<line x1="56" y1="530.67" x2="904" y2="530.67" stroke="#edf2f7" />
<line x1="52" y1="530.67" x2="56" y2="530.67" stroke="#9fb3c8" />
<text x="48.00" y="534.67" font-size="11" font-family="Arial" fill="#52606d" text-anchor="end">68.3</text>
<line x1="56" y1="484.00" x2="904" y2="484.00" stroke="#edf2f7" />
<line x1="52" y1="484.00" x2="56" y2="484.00" stroke="#9fb3c8" />
<text x="48.00" y="488.00" font-size="11" font-family="Arial" fill="#52606d" text-anchor="end">105</text>
<line x1="56.00" y1="624" x2="56.00" y2="628" stroke="#9fb3c8" />
<text x="56.00" y="642.00" font-size="11" font-family="Arial" fill="#52606d" text-anchor="middle">07/03</text>
<line x1="226.25" y1="624" x2="226.25" y2="628" stroke="#9fb3c8" />
<text x="226.25" y="642.00" font-size="11" font-family="Arial" fill="#52606d" text-anchor="middle">09/17</text>
<line x1="396.51" y1="624" x2="396.51" y2="628" stroke="#9fb3c8" />
<text x="396.51" y="642.00" font-size="11" font-family="Arial" fill="#52606d" text-anchor="middle">12/01</text>
<line x1="563.49" y1="624" x2="563.49" y2="628" stroke="#9fb3c8" />
<text x="563.49" y="642.00" font-size="11" font-family="Arial" fill="#52606d" text-anchor="middle">02/13</text>
<line x1="733.75" y1="624" x2="733.75" y2="628" stroke="#9fb3c8" />
<text x="733.75" y="642.00" font-size="11" font-family="Arial" fill="#52606d" text-anchor="middle">04/30</text>
<line x1="904.00" y1="624" x2="904.00" y2="628" stroke="#9fb3c8" />
<text x="904.00" y="642.00" font-size="11" font-family="Arial" fill="#52606d" text-anchor="middle">07/16</text>
<line x1="56" y1="592.18" x2="904" y2="592.18" stroke="#f0b429" stroke-dasharray="5 5" />
<text x="912.00" y="596.18" font-size="10" font-family="Arial" fill="#8d2b0b" text-anchor="start">20.0</text>
<line x1="56" y1="515.82" x2="904" y2="515.82" stroke="#f0b429" stroke-dasharray="5 5" />
<text x="912.00" y="519.82" font-size="10" font-family="Arial" fill="#8d2b0b" text-anchor="start">80.0</text>
<polyline fill="none" stroke="#2ca02c" stroke-width="2" points="82.19,579.54 85.47,581.44 88.74,585.22 92.02,585.61 95.29,585.88 98.56,573.84 101.84,567.25 105.11,558.94 108.39,554.35 111.66,564.89 114.93,579.65 118.21,597.06 121.48,614.06 124.76,606.08 128.03,606.96 131.31,598.02 134.58,592.83 137.85,579.49 141.13,573.26 144.40,559.48 147.68,550.35 150.95,548.49 154.22,551.65 157.50,555.66 160.77,568.34 164.05,592.15 167.32,615.97 170.59,601.43 173.87,600.18 177.14,591.41 180.42,582.18 183.69,572.52 186.97,575.55 190.24,589.61 193.51,592.59 196.79,582.08 200.06,582.36 203.34,578.49 206.61,572.10 209.88,566.14 213.16,556.06 216.43,550.51 219.71,546.71 222.98,549.71 226.25,553.44 229.53,557.08 232.80,554.13 236.08,551.87 239.35,563.42 242.63,578.91 245.90,598.13 249.17,600.03 252.45,596.05 255.72,590.38 259.00,579.08 262.27,571.07 265.54,568.27 268.82,560.55 272.09,561.92 275.37,557.35 278.64,564.81 281.92,593.44 285.19,592.77 288.46,594.19 291.74,589.32 295.01,594.85 298.29,591.21 301.56,574.88 304.83,564.16 308.11,563.79 311.38,555.05 314.66,545.78 317.93,536.82 321.20,531.91 324.48,529.41 327.75,541.57 331.03,546.57 334.30,547.77 337.58,567.88 340.85,591.82 344.12,609.29 347.40,606.38 350.67,589.08 353.95,571.63 357.22,559.32 360.49,570.12 363.77,577.33 367.04,593.28 370.32,603.57 373.59,606.97 376.86,617.09 380.14,614.32 383.41,600.39 386.69,580.37 389.96,561.39 393.24,545.82 396.51,539.46 399.78,533.89 403.06,528.26 406.33,524.23 409.61,526.83 412.88,533.83 416.15,560.65 419.43,568.52 422.70,567.50 425.98,598.47 429.25,623.19 432.53,627.63 435.80,637.68 439.07,632.66 442.35,615.34 445.62,593.85 448.90,572.11 452.17,555.08 455.44,544.89 458.72,543.08 461.99,543.84 465.27,560.86 468.54,577.55 471.81,577.53 475.09,564.43 478.36,565.44 481.64,566.47 484.91,555.97 488.19,547.39 491.46,545.36 494.73,552.73 498.01,566.15 501.28,577.53 504.56,597.60 507.83,594.20 511.10,584.22 514.38,576.96 517.65,564.44 520.93,550.75 524.20,543.77 527.47,541.99 530.75,545.21 534.02,540.93 537.30,562.46 540.57,580.57 543.85,597.45 547.12,583.49 550.39,567.98 553.67,560.44 556.94,555.75 560.22,573.77 563.49,584.93 566.76,590.01 570.04,586.62 573.31,587.85 576.59,579.03 579.86,586.87 583.14,582.26 586.41,565.39 589.68,560.65 592.96,564.94 596.23,571.11 599.51,575.00 602.78,569.09 606.05,571.57 609.33,589.20 612.60,582.72 615.88,579.87 619.15,576.52 622.42,590.93 625.70,604.91 628.97,603.38 632.25,598.77 635.52,612.19 638.80,613.12 642.07,614.93 645.34,607.29 648.62,603.86 651.89,596.18 655.17,608.69 658.44,612.52 661.71,613.34 664.99,592.16 668.26,571.88 671.54,557.46 674.81,542.67 678.08,532.30 681.36,521.17 684.63,513.53 687.91,509.49 691.18,505.03 694.46,502.03 697.73,499.99 701.00,499.53 704.28,499.48 707.55,502.35 710.83,509.72 714.10,506.98 717.37,508.57 720.65,506.48 723.92,506.09 727.20,515.77 730.47,526.57 733.75,522.69 737.02,523.81 740.29,529.45 743.57,522.89 746.84,516.69 750.12,518.19 753.39,512.74 756.66,510.28 759.94,510.27 763.21,509.20 766.49,507.43 769.76,520.89 773.03,536.58 776.31,559.60 779.58,560.90 782.86,558.52 786.13,550.00 789.41,537.96 792.68,530.05 795.95,521.49 799.23,517.24 802.50,514.34 805.78,511.42 809.05,519.78 812.32,524.75 815.60,556.12 818.87,573.93 822.15,574.60 825.42,587.98 828.69,583.32 831.97,575.70 835.24,554.68 838.52,545.44 841.79,549.11 845.07,542.53 848.34,540.86 851.61,554.51 854.89,564.53 858.16,580.09 861.44,589.29 864.71,578.05 867.98,557.37 871.26,545.98 874.53,539.52 877.81,524.87 881.08,521.50 884.36,522.54 887.63,513.42 890.90,506.67 894.18,518.17 897.45,518.29 900.73,510.99 904.00,516.64" />
<polyline fill="none" stroke="#d62728" stroke-width="2" points="82.19,562.51 85.47,568.82 88.74,574.29 92.02,578.06 95.29,580.67 98.56,578.39 101.84,574.68 105.11,569.43 108.39,564.40 111.66,564.57 114.93,569.59 118.21,578.75 121.48,590.52 124.76,595.71 128.03,599.46 131.31,598.98 134.58,596.93 137.85,591.12 141.13,585.16 144.40,576.60 147.68,567.85 150.95,561.40 154.22,558.15 157.50,557.32 160.77,560.99 164.05,571.38 167.32,586.24 170.59,591.31 173.87,594.26 177.14,593.31 180.42,589.60 183.69,583.91 186.97,581.12 190.24,583.95 193.51,586.83 196.79,585.25 200.06,584.28 203.34,582.35 206.61,578.94 209.88,574.67 213.16,568.47 216.43,562.48 219.71,557.22 222.98,554.72 226.25,554.29 229.53,555.22 232.80,554.86 236.08,553.86 239.35,557.05 242.63,564.33 245.90,575.60 249.17,583.74 252.45,587.85 255.72,588.69 259.00,585.49 262.27,580.68 265.54,576.55 268.82,571.21 272.09,568.11 275.37,564.52 278.64,564.62 281.92,574.23 285.19,580.41 288.46,585.00 291.74,586.44 295.01,589.25 298.29,589.90 301.56,584.89 304.83,577.98 308.11,573.25 311.38,567.18 314.66,560.05 317.93,552.31 321.20,545.51 324.48,540.14 327.75,540.62 331.03,542.60 334.30,544.32 337.58,552.18 340.85,565.39 344.12,580.02 347.40,588.81 350.67,588.90 353.95,583.14 357.22,575.20 360.49,573.51 363.77,574.78 367.04,580.95 370.32,588.49 373.59,594.65 376.86,602.13 380.14,606.19 383.41,604.26 386.69,596.30 389.96,584.66 393.24,571.72 396.51,560.96 399.78,551.94 403.06,544.05 406.33,537.44 409.61,533.90 412.88,533.88 416.15,542.80 419.43,551.37 422.70,556.75 425.98,570.66 429.25,588.17 432.53,601.32 435.80,613.44 439.07,619.85 442.35,618.35 445.62,610.18 448.90,597.49 452.17,583.35 455.44,570.53 458.72,561.38 461.99,555.54 465.27,557.31 468.54,564.06 471.81,568.55 475.09,567.17 478.36,566.60 481.64,566.55 484.91,563.02 488.19,557.81 491.46,553.66 494.73,553.35 498.01,557.62 501.28,564.25 504.56,575.37 507.83,581.65 511.10,582.51 514.38,580.66 517.65,575.25 520.93,567.08 524.20,559.31 527.47,553.54 530.75,550.76 534.02,547.48 537.30,552.48 540.57,561.84 543.85,573.71 547.12,576.97 550.39,573.97 553.67,569.46 556.94,564.89 560.22,567.85 563.49,573.55 566.76,579.04 570.04,581.56 573.31,583.66 576.59,582.12 579.86,583.70 583.14,583.22 586.41,577.28 589.68,571.74 592.96,569.47 596.23,570.02 599.51,571.68 602.78,570.81 606.05,571.07 609.33,577.11 612.60,578.98 615.88,579.28 619.15,578.36 622.42,582.55 625.70,590.00 628.97,594.46 632.25,595.90 635.52,601.33 638.80,605.26 642.07,608.48 645.34,608.08 648.62,606.68 651.89,603.18 655.17,605.01 658.44,607.52 661.71,609.46 664.99,603.69 668.26,593.09 671.54,581.21 674.81,568.36 678.08,556.34 681.36,544.62 684.63,534.26 687.91,526.00 691.18,519.01 694.46,513.35 697.73,508.90 701.00,505.77 704.28,503.68 707.55,503.23 710.83,505.40 714.10,505.93 717.37,506.81 720.65,506.70 723.92,506.49 727.20,509.59 730.47,515.25 733.75,517.73 737.02,519.76 740.29,522.99 743.57,522.95 746.84,520.87 750.12,519.97 753.39,517.56 756.66,515.14 759.94,513.51 763.21,512.08 766.49,510.53 769.76,513.98 773.03,521.51 776.31,534.21 779.58,543.11 782.86,548.24 786.13,548.83 789.41,545.21 792.68,540.15 795.95,533.93 799.23,528.37 802.50,523.69 805.78,519.60 809.05,519.66 812.32,521.36 815.60,532.94 818.87,546.60 822.15,555.94 825.42,566.62 828.69,572.18 831.97,573.35 835.24,567.13 838.52,559.90 841.79,556.30 845.07,551.71 848.34,548.09 851.61,550.23 854.89,555.00 858.16,563.36 861.44,572.01 864.71,574.02 867.98,568.47 871.26,560.97 874.53,553.82 877.81,544.17 881.08,536.61 884.36,531.92 887.63,525.75 890.90,519.39 894.18,518.99 897.45,518.75 900.73,516.17 904.00,516.32" />
<text x="824.00" y="502.00" font-size="13" font-family="Arial" fill="#2ca02c" text-anchor="start">K</text>
<text x="860.00" y="502.00" font-size="13" font-family="Arial" fill="#d62728" text-anchor="start">D</text>
</svg>