<svg xmlns="http://www.w3.org/2000/svg" width="960" height="680" viewBox="0 0 960 680"><rect width="100%" height="100%" fill="white" />
<text x="56.00" y="32.00" font-size="20" font-family="Arial" fill="#1f2933" text-anchor="start">VOO Technical Indicators</text>
<line x1="56" y1="220" x2="904" y2="220" stroke="#cbd2d9" />
<line x1="56" y1="58" x2="56" y2="220" stroke="#cbd2d9" />
<text x="16.00" y="50.00" font-size="12" font-family="Arial" fill="#52606d" text-anchor="start">RSI14</text>
<line x1="56" y1="220.00" x2="904" y2="220.00" stroke="#edf2f7" />
<line x1="52" y1="220.00" x2="56" y2="220.00" stroke="#9fb3c8" />
<text x="48.00" y="224.00" font-size="11" font-family="Arial" fill="#52606d" text-anchor="end">-5.00</text>
<line x1="56" y1="166.00" x2="904" y2="166.00" stroke="#edf2f7" />
<line x1="52" y1="166.00" x2="56" y2="166.00" stroke="#9fb3c8" />
<text x="48.00" y="170.00" font-size="11" font-family="Arial" fill="#52606d" text-anchor="end">31.7</text>
<line x1="56" y1="112.00" x2="904" y2="112.00" stroke="#edf2f7" />
<line x1="52" y1="112.00" x2="56" y2="112.00" stroke="#9fb3c8" />
<text x="48.00" y="116.00" font-size="11" font-family="Arial" fill="#52606d" text-anchor="end">68.3</text>
<line x1="56" y1="58.00" x2="904" y2="58.00" stroke="#edf2f7" />
<line x1="52" y1="58.00" x2="56" y2="58.00" stroke="#9fb3c8" />
<text x="48.00" y="62.00" font-size="11" font-family="Arial" fill="#52606d" text-anchor="end">105</text>
<line x1="56" y1="168.45" x2="904" y2="168.45" stroke="#f0b429" stroke-dasharray="5 5" />
<text x="912.00" y="172.45" font-size="10" font-family="Arial" fill="#8d2b0b" text-anchor="start">30.0</text>
<line x1="56" y1="109.55" x2="904" y2="109.55" stroke="#f0b429" stroke-dasharray="5 5" />
<text x="912.00" y="113.55" font-size="10" font-family="Arial" fill="#8d2b0b" text-anchor="start">70.0</text>
<polyline fill="none" stroke="#1f77b4" stroke-width="2" points="101.84,107.38 105.11,108.23 108.39,106.80 111.66,106.80 114.93,100.36 118.21,99.89 121.48,97.21 124.76,97.79 128.03,104.15 131.31,107.09 134.58,115.81 137.85,142.91 141.13,126.25 144.40,132.22 147.68,125.35 150.95,126.13 154.22,119.50 157.50,122.36 160.77,113.99 164.05,111.58 167.32,111.57 170.59,115.06 173.87,115.65 177.14,124.49 180.42,128.46 183.69,134.13 186.97,119.06 190.24,124.87 193.51,121.35 196.79,119.36 200.06,116.36 203.34,124.97 206.61,134.52 209.88,129.35 213.16,121.97 216.43,125.59 219.71,123.24 222.98,121.04 226.25,118.44 229.53,111.85 232.80,112.20 236.08,108.24 239.35,110.60 242.63,112.73 245.90,108.76 249.17,105.17 252.45,101.78 255.72,111.79 259.00,117.65 262.27,125.43 265.54,119.56 268.82,116.96 272.09,113.67 275.37,110.64 278.64,109.71 281.92,109.64 285.19,106.61 288.46,114.20 291.74,108.77 295.01,114.28 298.29,149.90 301.56,135.00 304.83,136.37 308.11,132.41 311.38,139.07 314.66,133.95 317.93,125.41 321.20,125.55 324.48,131.27 327.75,126.47 331.03,120.14 334.30,112.48 337.58,110.92 340.85,110.67 344.12,124.07 347.40,121.93 350.67,120.44 353.95,133.64 357.22,131.04 360.49,141.39 363.77,140.38 367.04,127.36 370.32,125.67 373.59,125.29 376.86,141.26 380.14,141.48 383.41,149.08 386.69,154.87 389.96,151.19 393.24,160.81 396.51,151.44 399.78,139.59 403.06,133.20 406.33,128.79 409.61,125.40 412.88,129.40 416.15,128.26 419.43,125.87 422.70,125.27 425.98,123.90 429.25,127.25 432.53,128.19 435.80,122.78 439.07,120.82 442.35,133.64 445.62,135.19 448.90,138.22 452.17,148.75 455.44,140.93 458.72,132.81 461.99,127.68 465.27,124.09 468.54,121.59 471.81,121.51 475.09,126.05 478.36,127.84 481.64,136.65 484.91,134.67 488.19,128.02 491.46,122.68 494.73,126.96 498.01,127.19 501.28,120.84 504.56,119.39 507.83,122.61 511.10,129.87 514.38,126.96 517.65,128.26 520.93,152.23 524.20,139.68 527.47,134.73 530.75,134.33 534.02,129.44 537.30,125.74 540.57,125.95 543.85,128.80 547.12,133.14 550.39,127.31 553.67,138.31 556.94,143.91 560.22,155.14 563.49,135.85 566.76,132.05 570.04,134.76 573.31,134.90 576.59,148.61 579.86,147.98 583.14,146.15 586.41,140.97 589.68,143.42 592.96,136.19 596.23,145.69 599.51,138.66 602.78,131.43 606.05,136.85 609.33,141.03 612.60,140.66 615.88,148.47 619.15,141.35 622.42,146.00 625.70,155.90 628.97,147.48 632.25,148.77 635.52,149.62 638.80,160.10 642.07,163.26 645.34,153.09 648.62,150.43 651.89,159.16 655.17,160.66 658.44,167.97 661.71,157.67 664.99,159.49 668.26,154.42 671.54,163.71 674.81,170.52 678.08,171.76 681.36,149.91 684.63,144.89 687.91,144.15 691.18,141.23 694.46,140.81 697.73,126.00 701.00,123.06 704.28,123.59 707.55,118.65 710.83,113.19 714.10,109.91 717.37,109.02 720.65,104.30 723.92,106.24 727.20,112.89 730.47,108.40 733.75,112.45 737.02,108.89 740.29,108.16 743.57,113.52 746.84,113.56 750.12,108.53 753.39,107.10 756.66,111.57 759.94,107.43 763.21,101.18 766.49,105.08 769.76,101.54 773.03,100.63 776.31,102.35 779.58,99.84 782.86,96.61 786.13,112.40 789.41,113.33 792.68,120.82 795.95,114.39 799.23,113.30 802.50,110.97 805.78,107.36 809.05,107.46 812.32,104.29 815.60,103.07 818.87,101.66 822.15,100.91 825.42,112.39 828.69,109.69 831.97,139.84 835.24,137.72 838.52,140.33 841.79,152.50 845.07,138.57 848.34,134.61 851.61,123.74 854.89,128.62 858.16,137.67 861.44,131.50 864.71,133.68 867.98,143.39 871.26,144.00 874.53,143.97 877.81,147.53 881.08,135.49 884.36,129.98 887.63,131.58 890.90,132.34 894.18,126.54 897.45,131.19 900.73,133.56 904.00,127.74" />
<text x="808.00" y="76.00" font-size="13" font-family="Arial" fill="#1f77b4" text-anchor="start">RSI14</text>
<line x1="56" y1="432" x2="904" y2="432" stroke="#cbd2d9" />
<line x1="56" y1="272" x2="56" y2="432" stroke="#cbd2d9" />
<text x="16.00" y="264.00" font-size="12" font-family="Arial" fill="#52606d" text-anchor="start">MACD</text>
<line x1="56" y1="432.00" x2="904" y2="432.00" stroke="#edf2f7" />
<line x1="52" y1="432.00" x2="56" y2="432.00" stroke="#9fb3c8" />
<text x="48.00" y="436.00" font-size="11" font-family="Arial" fill="#52606d" text-anchor="end">-11.5</text>
<line x1="56" y1="378.67" x2="904" y2="378.67" stroke="#edf2f7" />
<line x1="52" y1="378.67" x2="56" y2="378.67" stroke="#9fb3c8" />
<text x="48.00" y="382.67" font-size="11" font-family="Arial" fill="#52606d" text-anchor="end">-2.45</text>
<line x1="56" y1="325.33" x2="904" y2="325.33" stroke="#edf2f7" />
<line x1="52" y1="325.33" x2="56" y2="325.33" stroke="#9fb3c8" />
<text x="48.00" y="329.33" font-size="11" font-family="Arial" fill="#52606d" text-anchor="end">6.61</text>
<line x1="56" y1="272.00" x2="904" y2="272.00" stroke="#edf2f7" />
<line x1="52" y1="272.00" x2="56" y2="272.00" stroke="#9fb3c8" />
<text x="48.00" y="276.00" font-size="11" font-family="Arial" fill="#52606d" text-anchor="end">15.7</text>
<line x1="56" y1="364.23" x2="904" y2="364.23" stroke="#9fb3c8" stroke-dasharray="4 4" />
<rect x="136.71" y="364.23" width="2.28" height="0.00" fill="#2f9e44" opacity="0.55" />
<rect x="139.99" y="364.23" width="2.28" height="0.81" fill="#d64545" opacity="0.55" />
<rect x="143.26" y="364.23" width="2.28" height="2.49" fill="#d64545" opacity="0.55" />
<rect x="146.53" y="364.23" width="2.28" height="2.00" fill="#d64545" opacity="0.55" />
<rect x="149.81" y="364.23" width="2.28" height="1.88" fill="#d64545" opacity="0.55" />
<rect x="153.08" y="364.23" width="2.28" height="0.21" fill="#d64545" opacity="0.55" />
<rect x="156.36" y="364.00" width="2.28" height="0.23" fill="#2f9e44" opacity="0.55" />
<rect x="159.63" y="361.58" width="2.28" height="2.65" fill="#2f9e44" opacity="0.55" />
<rect x="162.90" y="359.61" width="2.28" height="4.63" fill="#2f9e44" opacity="0.55" />
<rect x="166.18" y="358.79" width="2.28" height="5.44" fill="#2f9e44" opacity="0.55" />
<rect x="169.45" y="359.23" width="2.28" height="5.00" fill="#2f9e44" opacity="0.55" />
<rect x="172.73" y="360.05" width="2.28" height="4.19" fill="#2f9e44" opacity="0.55" />
<rect x="176.00" y="362.19" width="2.28" height="2.04" fill="#2f9e44" opacity="0.55" />
<rect x="179.28" y="364.23" width="2.28" height="0.20" fill="#d64545" opacity="0.55" />
<rect x="182.55" y="364.23" width="2.28" height="2.67" fill="#d64545" opacity="0.55" />
<rect x="185.82" y="364.23" width="2.28" height="0.97" fill="#d64545" opacity="0.55" />
<rect x="189.10" y="364.23" width="2.28" height="1.00" fill="#d64545" opacity="0.55" />
<rect x="192.37" y="364.23" width="2.28" height="0.29" fill="#d64545" opacity="0.55" />
<rect x="195.65" y="363.77" width="2.28" height="0.47" fill="#2f9e44" opacity="0.55" />
<rect x="198.92" y="362.74" width="2.28" height="1.49" fill="#2f9e44" opacity="0.55" />
<rect x="202.19" y="363.67" width="2.28" height="0.56" fill="#2f9e44" opacity="0.55" />
<rect x="205.47" y="364.23" width="2.28" height="1.88" fill="#d64545" opacity="0.55" />
<rect x="208.74" y="364.23" width="2.28" height="2.40" fill="#d64545" opacity="0.55" />
<rect x="212.02" y="364.23" width="2.28" height="1.00" fill="#d64545" opacity="0.55" />
<rect x="215.29" y="364.23" width="2.28" height="0.87" fill="#d64545" opacity="0.55" />
<rect x="218.57" y="364.23" width="2.28" height="0.37" fill="#d64545" opacity="0.55" />
<rect x="221.84" y="363.93" width="2.28" height="0.31" fill="#2f9e44" opacity="0.55" />
<rect x="225.11" y="363.07" width="2.28" height="1.16" fill="#2f9e44" opacity="0.55" />
<rect x="228.39" y="360.99" width="2.28" height="3.24" fill="#2f9e44" opacity="0.55" />
<rect x="231.66" y="360.10" width="2.28" height="4.13" fill="#2f9e44" opacity="0.55" />
<rect x="234.94" y="358.82" width="2.28" height="5.42" fill="#2f9e44" opacity="0.55" />
<rect x="238.21" y="358.82" width="2.28" height="5.41" fill="#2f9e44" opacity="0.55" />
<rect x="241.48" y="359.60" width="2.28" height="4.63" fill="#2f9e44" opacity="0.55" />
<rect x="244.76" y="359.53" width="2.28" height="4.70" fill="#2f9e44" opacity="0.55" />
<rect x="248.03" y="358.94" width="2.28" height="5.29" fill="#2f9e44" opacity="0.55" />
<rect x="251.31" y="358.02" width="2.28" height="6.21" fill="#2f9e44" opacity="0.55" />
<rect x="254.58" y="359.25" width="2.28" height="4.98" fill="#2f9e44" opacity="0.55" />
<rect x="257.85" y="361.34" width="2.28" height="2.89" fill="#2f9e44" opacity="0.55" />
<rect x="261.13" y="364.19" width="2.28" height="0.04" fill="#2f9e44" opacity="0.55" />
<rect x="264.40" y="364.23" width="2.28" height="0.73" fill="#d64545" opacity="0.55" />
<rect x="267.68" y="364.23" width="2.28" height="0.84" fill="#d64545" opacity="0.55" />
<rect x="270.95" y="364.23" width="2.28" height="0.33" fill="#d64545" opacity="0.55" />
<rect x="274.23" y="363.72" width="2.28" height="0.51" fill="#2f9e44" opacity="0.55" />
<rect x="277.50" y="363.26" width="2.28" height="0.97" fill="#2f9e44" opacity="0.55" />
<rect x="280.77" y="363.32" width="2.28" height="0.91" fill="#2f9e44" opacity="0.55" />
<rect x="284.05" y="362.93" width="2.28" height="1.31" fill="#2f9e44" opacity="0.55" />
<rect x="287.32" y="363.88" width="2.28" height="0.35" fill="#2f9e44" opacity="0.55" />
<rect x="290.60" y="363.48" width="2.28" height="0.75" fill="#2f9e44" opacity="0.55" />
<rect x="293.87" y="364.20" width="2.28" height="0.03" fill="#2f9e44" opacity="0.55" />
<rect x="297.14" y="364.23" width="2.28" height="6.91" fill="#d64545" opacity="0.55" />
<rect x="300.42" y="364.23" width="2.28" height="7.81" fill="#d64545" opacity="0.55" />
<rect x="303.69" y="364.23" width="2.28" height="8.57" fill="#d64545" opacity="0.55" />
<rect x="306.97" y="364.23" width="2.28" height="7.85" fill="#d64545" opacity="0.55" />
<rect x="310.24" y="364.23" width="2.28" height="8.74" fill="#d64545" opacity="0.55" />
<rect x="313.51" y="364.23" width="2.28" height="7.81" fill="#d64545" opacity="0.55" />
<rect x="316.79" y="364.23" width="2.28" height="4.63" fill="#d64545" opacity="0.55" />
<rect x="320.06" y="364.23" width="2.28" height="2.63" fill="#d64545" opacity="0.55" />
<rect x="323.34" y="364.23" width="2.28" height="2.58" fill="#d64545" opacity="0.55" />
<rect x="326.61" y="364.23" width="2.28" height="1.30" fill="#d64545" opacity="0.55" />
<rect x="329.89" y="362.95" width="2.28" height="1.28" fill="#2f9e44" opacity="0.55" />
<rect x="333.16" y="358.80" width="2.28" height="5.43" fill="#2f9e44" opacity="0.55" />
<rect x="336.43" y="356.05" width="2.28" height="8.18" fill="#2f9e44" opacity="0.55" />
<rect x="339.71" y="354.88" width="2.28" height="9.35" fill="#2f9e44" opacity="0.55" />
<rect x="342.98" y="357.36" width="2.28" height="6.87" fill="#2f9e44" opacity="0.55" />
<rect x="346.26" y="358.86" width="2.28" height="5.37" fill="#2f9e44" opacity="0.55" />
<rect x="349.53" y="359.89" width="2.28" height="4.35" fill="#2f9e44" opacity="0.55" />
<rect x="352.80" y="363.74" width="2.28" height="0.49" fill="#2f9e44" opacity="0.55" />
<rect x="356.08" y="364.23" width="2.28" height="1.52" fill="#d64545" opacity="0.55" />
<rect x="359.35" y="364.23" width="2.28" height="5.44" fill="#d64545" opacity="0.55" />
<rect x="362.63" y="364.23" width="2.28" height="7.63" fill="#d64545" opacity="0.55" />
<rect x="365.90" y="364.23" width="2.28" height="5.28" fill="#d64545" opacity="0.55" />
<rect x="369.18" y="364.23" width="2.28" height="3.22" fill="#d64545" opacity="0.55" />
<rect x="372.45" y="364.23" width="2.28" height="1.86" fill="#d64545" opacity="0.55" />
<rect x="375.72" y="364.23" width="2.28" height="4.94" fill="#d64545" opacity="0.55" />
<rect x="379.00" y="364.23" width="2.28" height="6.88" fill="#d64545" opacity="0.55" />
<rect x="382.27" y="364.23" width="2.28" height="10.07" fill="#d64545" opacity="0.55" />
<rect x="385.55" y="364.23" width="2.28" height="13.59" fill="#d64545" opacity="0.55" />
<rect x="388.82" y="364.23" width="2.28" height="14.40" fill="#d64545" opacity="0.55" />
<rect x="392.09" y="364.23" width="2.28" height="17.70" fill="#d64545" opacity="0.55" />
<rect x="395.37" y="364.23" width="2.28" height="16.68" fill="#d64545" opacity="0.55" />
<rect x="398.64" y="364.23" width="2.28" height="11.83" fill="#d64545" opacity="0.55" />
<rect x="401.92" y="364.23" width="2.28" height="6.05" fill="#d64545" opacity="0.55" />
<rect x="405.19" y="364.23" width="2.28" height="0.49" fill="#d64545" opacity="0.55" />
<rect x="408.46" y="359.91" width="2.28" height="4.32" fill="#2f9e44" opacity="0.55" />
<rect x="411.74" y="358.19" width="2.28" height="6.05" fill="#2f9e44" opacity="0.55" />
<rect x="415.01" y="357.04" width="2.28" height="7.20" fill="#2f9e44" opacity="0.55" />
<rect x="418.29" y="355.90" width="2.28" height="8.33" fill="#2f9e44" opacity="0.55" />
<rect x="421.56" y="355.47" width="2.28" height="8.76" fill="#2f9e44" opacity="0.55" />
<rect x="424.84" y="355.28" width="2.28" height="8.95" fill="#2f9e44" opacity="0.55" />
<rect x="428.11" y="356.41" width="2.28" height="7.82" fill="#2f9e44" opacity="0.55" />
<rect x="431.38" y="357.82" width="2.28" height="6.41" fill="#2f9e44" opacity="0.55" />
<rect x="434.66" y="357.64" width="2.28" height="6.59" fill="#2f9e44" opacity="0.55" />
<rect x="437.93" y="357.43" width="2.28" height="6.80" fill="#2f9e44" opacity="0.55" />
<rect x="441.21" y="360.34" width="2.28" height="3.89" fill="#2f9e44" opacity="0.55" />
<rect x="444.48" y="362.87" width="2.28" height="1.37" fill="#2f9e44" opacity="0.55" />
<rect x="447.75" y="364.23" width="2.28" height="1.10" fill="#d64545" opacity="0.55" />
<rect x="451.03" y="364.23" width="2.28" height="5.29" fill="#d64545" opacity="0.55" />
<rect x="454.30" y="364.23" width="2.28" height="6.05" fill="#d64545" opacity="0.55" />
<rect x="457.58" y="364.23" width="2.28" height="4.27" fill="#d64545" opacity="0.55" />
<rect x="460.85" y="364.23" width="2.28" height="1.58" fill="#d64545" opacity="0.55" />
<rect x="464.12" y="363.06" width="2.28" height="1.17" fill="#2f9e44" opacity="0.55" />
<rect x="467.40" y="360.73" width="2.28" height="3.50" fill="#2f9e44" opacity="0.55" />
<rect x="470.67" y="359.56" width="2.28" height="4.68" fill="#2f9e44" opacity="0.55" />
<rect x="473.95" y="360.04" width="2.28" height="4.19" fill="#2f9e44" opacity="0.55" />
<rect x="477.22" y="361.03" width="2.28" height="3.20" fill="#2f9e44" opacity="0.55" />
<rect x="480.50" y="363.69" width="2.28" height="0.54" fill="#2f9e44" opacity="0.55" />
<rect x="483.77" y="364.23" width="2.28" height="0.88" fill="#d64545" opacity="0.55" />
<rect x="487.04" y="364.23" width="2.28" height="0.32" fill="#d64545" opacity="0.55" />
<rect x="490.32" y="362.93" width="2.28" height="1.30" fill="#2f9e44" opacity="0.55" />
<rect x="493.59" y="362.91" width="2.28" height="1.33" fill="#2f9e44" opacity="0.55" />
<rect x="496.87" y="363.16" width="2.28" height="1.07" fill="#2f9e44" opacity="0.55" />
<rect x="500.14" y="361.95" width="2.28" height="2.29" fill="#2f9e44" opacity="0.55" />
<rect x="503.41" y="361.09" width="2.28" height="3.14" fill="#2f9e44" opacity="0.55" />
<rect x="506.69" y="361.38" width="2.28" height="2.86" fill="#2f9e44" opacity="0.55" />
<rect x="509.96" y="363.04" width="2.28" height="1.19" fill="#2f9e44" opacity="0.55" />
<rect x="513.24" y="363.70" width="2.28" height="0.53" fill="#2f9e44" opacity="0.55" />
<rect x="516.51" y="364.23" width="2.28" height="0.29" fill="#d64545" opacity="0.55" />
<rect x="519.79" y="364.23" width="2.28" height="5.80" fill="#d64545" opacity="0.55" />
<rect x="523.06" y="364.23" width="2.28" height="6.46" fill="#d64545" opacity="0.55" />
<rect x="526.33" y="364.23" width="2.28" height="5.46" fill="#d64545" opacity="0.55" />
<rect x="529.61" y="364.23" width="2.28" height="4.60" fill="#d64545" opacity="0.55" />
<rect x="532.88" y="364.23" width="2.28" height="2.73" fill="#d64545" opacity="0.55" />
<rect x="536.16" y="364.23" width="2.28" height="0.57" fill="#d64545" opacity="0.55" />
<rect x="539.43" y="363.57" width="2.28" height="0.66" fill="#2f9e44" opacity="0.55" />
<rect x="542.70" y="363.46" width="2.28" height="0.77" fill="#2f9e44" opacity="0.55" />
<rect x="545.98" y="364.23" width="2.28" height="0.10" fill="#d64545" opacity="0.55" />
<rect x="549.25" y="363.70" width="2.28" height="0.53" fill="#2f9e44" opacity="0.55" />
<rect x="552.53" y="364.23" width="2.28" height="1.30" fill="#d64545" opacity="0.55" />
<rect x="555.80" y="364.23" width="2.28" height="3.71" fill="#d64545" opacity="0.55" />
<rect x="559.07" y="364.23" width="2.28" height="8.06" fill="#d64545" opacity="0.55" />
<rect x="562.35" y="364.23" width="2.28" height="5.93" fill="#d64545" opacity="0.55" />
<rect x="565.62" y="364.23" width="2.28" height="3.25" fill="#d64545" opacity="0.55" />
<rect x="568.90" y="364.23" width="2.28" height="2.15" fill="#d64545" opacity="0.55" />
<rect x="572.17" y="364.23" width="2.28" height="1.46" fill="#d64545" opacity="0.55" />
<rect x="575.45" y="364.23" width="2.28" height="4.69" fill="#d64545" opacity="0.55" />
<rect x="578.72" y="364.23" width="2.28" height="6.39" fill="#d64545" opacity="0.55" />
<rect x="581.99" y="364.23" width="2.28" height="6.75" fill="#d64545" opacity="0.55" />
<rect x="585.27" y="364.23" width="2.28" height="5.47" fill="#d64545" opacity="0.55" />
<rect x="588.54" y="364.23" width="2.28" height="5.00" fill="#d64545" opacity="0.55" />
<rect x="591.82" y="364.23" width="2.28" height="2.78" fill="#d64545" opacity="0.55" />
<rect x="595.09" y="364.23" width="2.28" height="3.62" fill="#d64545" opacity="0.55" />
<rect x="598.36" y="364.23" width="2.28" height="2.24" fill="#d64545" opacity="0.55" />
<rect x="601.64" y="363.49" width="2.28" height="0.74" fill="#2f9e44" opacity="0.55" />
<rect x="604.91" y="362.98" width="2.28" height="1.25" fill="#2f9e44" opacity="0.55" />
<rect x="608.19" y="363.81" width="2.28" height="0.43" fill="#2f9e44" opacity="0.55" />
<rect x="611.46" y="364.23" width="2.28" height="0.01" fill="#d64545" opacity="0.55" />
<rect x="614.73" y="364.23" width="2.28" height="2.36" fill="#d64545" opacity="0.55" />
<rect x="618.01" y="364.23" width="2.28" height="2.02" fill="#d64545" opacity="0.55" />
<rect x="621.28" y="364.23" width="2.28" height="2.94" fill="#d64545" opacity="0.55" />
<rect x="624.56" y="364.23" width="2.28" height="6.47" fill="#d64545" opacity="0.55" />
<rect x="627.83" y="364.23" width="2.28" height="6.30" fill="#d64545" opacity="0.55" />
<rect x="631.11" y="364.23" width="2.28" height="6.21" fill="#d64545" opacity="0.55" />
<rect x="634.38" y="364.23" width="2.28" height="6.01" fill="#d64545" opacity="0.55" />
<rect x="637.65" y="364.23" width="2.28" height="9.05" fill="#d64545" opacity="0.55" />
<rect x="640.93" y="364.23" width="2.28" height="11.65" fill="#d64545" opacity="0.55" />
<rect x="644.20" y="364.23" width="2.28" height="10.26" fill="#d64545" opacity="0.55" />
<rect x="647.48" y="364.23" width="2.28" height="8.07" fill="#d64545" opacity="0.55" />
<rect x="650.75" y="364.23" width="2.28" height="9.27" fill="#d64545" opacity="0.55" />
<rect x="654.02" y="364.23" width="2.28" height="9.96" fill="#d64545" opacity="0.55" />
<rect x="657.30" y="364.23" width="2.28" height="12.94" fill="#d64545" opacity="0.55" />
<rect x="660.57" y="364.23" width="2.28" height="11.46" fill="#d64545" opacity="0.55" />
<rect x="663.85" y="364.23" width="2.28" height="10.43" fill="#d64545" opacity="0.55" />
<rect x="667.12" y="364.23" width="2.28" height="7.71" fill="#d64545" opacity="0.55" />
<rect x="670.40" y="364.23" width="2.28" height="9.31" fill="#d64545" opacity="0.55" />
<rect x="673.67" y="364.23" width="2.28" height="13.26" fill="#d64545" opacity="0.55" />
<rect x="676.94" y="364.23" width="2.28" height="15.44" fill="#d64545" opacity="0.55" />
<rect x="680.22" y="364.23" width="2.28" height="9.37" fill="#d64545" opacity="0.55" />
<rect x="683.49" y="364.23" width="2.28" height="2.88" fill="#d64545" opacity="0.55" />
<rect x="686.77" y="362.21" width="2.28" height="2.02" fill="#2f9e44" opacity="0.55" />
<rect x="690.04" y="357.81" width="2.28" height="6.42" fill="#2f9e44" opacity="0.55" />
<rect x="693.31" y="354.85" width="2.28" height="9.38" fill="#2f9e44" opacity="0.55" />
<rect x="696.59" y="347.37" width="2.28" height="16.86" fill="#2f9e44" opacity="0.55" />
<rect x="699.86" y="341.84" width="2.28" height="22.39" fill="#2f9e44" opacity="0.55" />
<rect x="703.14" y="339.41" width="2.28" height="24.82" fill="#2f9e44" opacity="0.55" />
<rect x="706.41" y="336.65" width="2.28" height="27.58" fill="#2f9e44" opacity="0.55" />
<rect x="709.68" y="333.34" width="2.28" height="30.89" fill="#2f9e44" opacity="0.55" />
<rect x="712.96" y="330.86" width="2.28" height="33.37" fill="#2f9e44" opacity="0.55" />
<rect x="716.23" y="330.50" width="2.28" height="33.73" fill="#2f9e44" opacity="0.55" />
<rect x="719.51" y="329.13" width="2.28" height="35.11" fill="#2f9e44" opacity="0.55" />
<rect x="722.78" y="330.69" width="2.28" height="33.54" fill="#2f9e44" opacity="0.55" />
<rect x="726.06" y="335.24" width="2.28" height="28.99" fill="#2f9e44" opacity="0.55" />
<rect x="729.33" y="337.39" width="2.28" height="26.84" fill="#2f9e44" opacity="0.55" />
<rect x="732.60" y="341.46" width="2.28" height="22.77" fill="#2f9e44" opacity="0.55" />
<rect x="735.88" y="343.66" width="2.28" height="20.57" fill="#2f9e44" opacity="0.55" />
<rect x="739.15" y="346.14" width="2.28" height="18.09" fill="#2f9e44" opacity="0.55" />
<rect x="742.43" y="350.32" width="2.28" height="13.91" fill="#2f9e44" opacity="0.55" />
<rect x="745.70" y="354.18" width="2.28" height="10.05" fill="#2f9e44" opacity="0.55" />
<rect x="748.97" y="355.28" width="2.28" height="8.95" fill="#2f9e44" opacity="0.55" />
<rect x="752.25" y="356.26" width="2.28" height="7.97" fill="#2f9e44" opacity="0.55" />
<rect x="755.52" y="358.75" width="2.28" height="5.48" fill="#2f9e44" opacity="0.55" />
<rect x="758.80" y="359.23" width="2.28" height="5.00" fill="#2f9e44" opacity="0.55" />
<rect x="762.07" y="356.88" width="2.28" height="7.35" fill="#2f9e44" opacity="0.55" />
<rect x="765.34" y="357.19" width="2.28" height="7.04" fill="#2f9e44" opacity="0.55" />
<rect x="768.62" y="356.31" width="2.28" height="7.92" fill="#2f9e44" opacity="0.55" />
<rect x="771.89" y="356.26" width="2.28" height="7.97" fill="#2f9e44" opacity="0.55" />
<rect x="775.17" y="357.62" width="2.28" height="6.61" fill="#2f9e44" opacity="0.55" />
<rect x="778.44" y="358.09" width="2.28" height="6.14" fill="#2f9e44" opacity="0.55" />
<rect x="781.72" y="357.40" width="2.28" height="6.83" fill="#2f9e44" opacity="0.55" />
<rect x="784.99" y="361.13" width="2.28" height="3.10" fill="#2f9e44" opacity="0.55" />
<rect x="788.26" y="364.23" width="2.28" height="0.30" fill="#d64545" opacity="0.55" />
<rect x="791.54" y="364.23" width="2.28" height="4.75" fill="#d64545" opacity="0.55" />
<rect x="794.81" y="364.23" width="2.28" height="5.37" fill="#d64545" opacity="0.55" />
<rect x="798.09" y="364.23" width="2.28" height="5.68" fill="#d64545" opacity="0.55" />
<rect x="801.36" y="364.23" width="2.28" height="5.24" fill="#d64545" opacity="0.55" />
<rect x="804.63" y="364.23" width="2.28" height="3.67" fill="#d64545" opacity="0.55" />
<rect x="807.91" y="364.23" width="2.28" height="3.17" fill="#d64545" opacity="0.55" />
<rect x="811.18" y="364.23" width="2.28" height="1.85" fill="#d64545" opacity="0.55" />
<rect x="814.46" y="364.23" width="2.28" height="0.98" fill="#d64545" opacity="0.55" />
<rect x="817.73" y="364.23" width="2.28" height="0.34" fill="#d64545" opacity="0.55" />
<rect x="821.01" y="364.23" width="2.28" height="0.19" fill="#d64545" opacity="0.55" />
<rect x="824.28" y="364.23" width="2.28" height="2.56" fill="#d64545" opacity="0.55" />
<rect x="827.55" y="364.23" width="2.28" height="3.53" fill="#d64545" opacity="0.55" />
<rect x="830.83" y="364.23" width="2.28" height="11.34" fill="#d64545" opacity="0.55" />
<rect x="834.10" y="364.23" width="2.28" height="15.61" fill="#d64545" opacity="0.55" />
<rect x="837.38" y="364.23" width="2.28" height="18.76" fill="#d64545" opacity="0.55" />
<rect x="840.65" y="364.23" width="2.28" height="24.26" fill="#d64545" opacity="0.55" />
<rect x="843.92" y="364.23" width="2.28" height="22.72" fill="#d64545" opacity="0.55" />
<rect x="847.20" y="364.23" width="2.28" height="19.57" fill="#d64545" opacity="0.55" />
<rect x="850.47" y="364.23" width="2.28" height="12.49" fill="#d64545" opacity="0.55" />
<rect x="853.75" y="364.23" width="2.28" height="9.27" fill="#d64545" opacity="0.55" />
<rect x="857.02" y="364.23" width="2.28" height="10.20" fill="#d64545" opacity="0.55" />
<rect x="860.29" y="364.23" width="2.28" height="8.03" fill="#d64545" opacity="0.55" />
<rect x="863.57" y="364.23" width="2.28" height="7.28" fill="#d64545" opacity="0.55" />
<rect x="866.84" y="364.23" width="2.28" height="10.34" fill="#d64545" opacity="0.55" />
<rect x="870.12" y="364.23" width="2.28" height="12.19" fill="#d64545" opacity="0.55" />
<rect x="873.39" y="364.23" width="2.28" height="12.91" fill="#d64545" opacity="0.55" />
<rect x="876.67" y="364.23" width="2.28" height="14.18" fill="#d64545" opacity="0.55" />
<rect x="879.94" y="364.23" width="2.28" height="10.33" fill="#d64545" opacity="0.55" />
<rect x="883.21" y="364.23" width="2.28" height="5.33" fill="#d64545" opacity="0.55" />
<rect x="886.49" y="364.23" width="2.28" height="2.53" fill="#d64545" opacity="0.55" />
<rect x="889.76" y="364.23" width="2.28" height="0.97" fill="#d64545" opacity="0.55" />
<rect x="893.04" y="362.11" width="2.28" height="2.12" fill="#2f9e44" opacity="0.55" />
<rect x="896.31" y="361.72" width="2.28" height="2.51" fill="#2f9e44" opacity="0.55" />
<rect x="899.58" y="362.40" width="2.28" height="1.83" fill="#2f9e44" opacity="0.55" />
<rect x="902.86" y="361.00" width="2.28" height="3.23" fill="#2f9e44" opacity="0.55" />
<polyline fill="none" stroke="#1f77b4" stroke-width="2" points="137.85,344.58 141.13,345.60 144.40,347.90 147.68,347.90 150.95,348.25 154.22,346.64 157.50,346.14 160.77,343.06 164.05,339.93 167.32,337.75 170.59,336.93 173.87,336.71 177.14,338.34 180.42,340.63 183.69,343.77 186.97,342.32 190.24,342.59 193.51,341.96 196.79,341.08 200.06,339.69 203.34,340.47 206.61,343.38 209.88,344.50 213.16,343.35 216.43,343.44 219.71,343.03 222.98,342.28 226.25,341.14 229.53,338.24 232.80,336.33 236.08,333.68 239.35,332.33 242.63,331.96 245.90,330.72 249.17,328.81 252.45,326.33 255.72,326.32 259.00,327.68 262.27,330.52 265.54,331.47 268.82,331.80 272.09,331.37 275.37,330.40 278.64,329.70 281.92,329.52 285.19,328.81 288.46,329.67 291.74,329.08 295.01,329.80 298.29,338.47 301.56,341.32 304.83,344.22 308.11,345.47 311.38,348.54 314.66,349.56 317.93,347.54 321.20,346.19 324.48,346.79 327.75,345.84 331.03,342.93 334.30,337.43 337.58,332.64 340.85,329.12 344.12,329.89 347.40,330.04 350.67,329.98 353.95,333.71 357.22,336.11 360.49,341.39 363.77,345.49 367.04,344.45 370.32,343.20 373.59,342.31 376.86,346.62 380.14,350.28 383.41,355.99 386.69,362.91 389.96,367.32 393.24,375.04 396.51,378.19 399.78,376.30 403.06,372.03 406.33,366.59 409.61,360.70 412.88,357.46 416.15,354.51 419.43,351.30 422.70,348.68 425.98,346.25 429.25,345.43 432.53,345.23 435.80,343.41 439.07,341.49 442.35,343.43 445.62,345.62 448.90,348.35 452.17,353.87 455.44,356.14 458.72,355.43 461.99,353.13 465.27,350.09 468.54,346.88 471.81,344.54 475.09,343.97 478.36,344.17 481.64,346.70 484.91,348.33 488.19,347.85 491.46,345.91 494.73,345.55 498.01,345.53 501.28,343.75 504.56,342.11 507.83,341.68 511.10,343.05 514.38,343.57 517.65,344.47 520.93,351.43 524.20,353.71 527.47,354.07 530.75,354.36 534.02,353.17 537.30,351.15 540.57,349.76 543.85,349.46 547.12,350.35 550.39,349.59 553.67,351.74 556.94,355.08 560.22,361.44 563.49,360.80 566.76,358.94 570.04,358.37 573.31,358.04 576.59,362.45 579.86,365.74 583.14,367.79 586.41,367.88 589.68,368.66 592.96,367.13 596.23,368.88 599.51,368.06 602.78,364.89 606.05,364.07 609.33,364.79 612.60,365.23 615.88,368.16 619.15,368.33 622.42,369.99 625.70,375.13 628.97,376.53 632.25,378.00 635.52,379.30 638.80,384.60 642.07,390.12 645.34,391.29 648.62,391.11 651.89,394.64 655.17,397.81 658.44,404.03 661.71,405.41 664.99,406.99 668.26,406.20 671.54,410.12 674.81,417.39 678.08,423.43 681.36,419.71 684.63,413.94 687.91,408.52 691.18,402.53 694.46,397.22 697.73,385.52 701.00,374.39 704.28,365.75 707.55,356.11 710.83,345.07 714.10,334.25 717.37,325.46 720.65,315.30 723.92,308.49 727.20,305.79 730.47,301.23 733.75,299.61 737.02,296.66 740.29,294.62 743.57,295.33 746.84,296.68 750.12,295.54 753.39,294.52 756.66,295.64 759.94,294.87 763.21,290.68 766.49,289.23 769.76,286.37 773.03,284.33 776.31,284.04 779.58,282.97 782.86,280.57 786.13,283.53 789.41,287.01 792.68,292.64 795.95,294.60 799.23,296.33 802.50,297.20 805.78,296.55 809.05,296.84 812.32,295.98 815.60,295.35 818.87,294.80 822.15,294.70 825.42,297.71 828.69,299.57 831.97,310.21 835.24,318.38 838.52,326.23 841.79,337.79 845.07,341.92 848.34,343.67 851.61,339.72 854.89,338.81 858.16,342.29 861.44,342.13 864.71,343.20 867.98,348.84 871.26,353.74 874.53,357.69 877.81,362.50 881.08,361.24 884.36,357.56 887.63,355.39 890.90,354.09 894.18,350.46 897.45,349.44 900.73,349.67 904.00,347.46" />
<polyline fill="none" stroke="#ff7f0e" stroke-width="2" points="137.85,344.58 141.13,344.78 144.40,345.41 147.68,345.91 150.95,346.38 154.22,346.43 157.50,346.37 160.77,345.71 164.05,344.55 167.32,343.19 170.59,341.94 173.87,340.89 177.14,340.38 180.42,340.43 183.69,341.10 186.97,341.34 190.24,341.59 193.51,341.67 196.79,341.55 200.06,341.18 203.34,341.04 206.61,341.50 209.88,342.10 213.16,342.35 216.43,342.57 219.71,342.66 222.98,342.59 226.25,342.30 229.53,341.49 232.80,340.45 236.08,339.10 239.35,337.75 242.63,336.59 245.90,335.41 249.17,334.09 252.45,332.54 255.72,331.30 259.00,330.57 262.27,330.56 265.54,330.74 268.82,330.95 272.09,331.04 275.37,330.91 278.64,330.67 281.92,330.44 285.19,330.11 288.46,330.02 291.74,329.84 295.01,329.83 298.29,331.56 301.56,333.51 304.83,335.65 308.11,337.61 311.38,339.80 314.66,341.75 317.93,342.91 321.20,343.57 324.48,344.21 327.75,344.54 331.03,344.22 334.30,342.86 337.58,340.81 340.85,338.48 344.12,336.76 347.40,335.41 350.67,334.33 353.95,334.21 357.22,334.59 360.49,335.95 363.77,337.86 367.04,339.17 370.32,339.98 373.59,340.44 376.86,341.68 380.14,343.40 383.41,345.92 386.69,349.32 389.96,352.92 393.24,357.34 396.51,361.51 399.78,364.47 403.06,365.98 406.33,366.10 409.61,365.02 412.88,363.51 416.15,361.71 419.43,359.63 422.70,357.44 425.98,355.20 429.25,353.24 432.53,351.64 435.80,349.99 439.07,348.29 442.35,347.32 445.62,346.98 448.90,347.25 452.17,348.58 455.44,350.09 458.72,351.16 461.99,351.55 465.27,351.26 468.54,350.39 471.81,349.22 475.09,348.17 478.36,347.37 481.64,347.23 484.91,347.45 488.19,347.53 491.46,347.21 494.73,346.88 498.01,346.61 501.28,346.04 504.56,345.25 507.83,344.54 511.10,344.24 514.38,344.11 517.65,344.18 520.93,345.63 524.20,347.25 527.47,348.61 530.75,349.76 534.02,350.44 537.30,350.58 540.57,350.42 543.85,350.23 547.12,350.25 550.39,350.12 553.67,350.44 556.94,351.37 560.22,353.39 563.49,354.87 566.76,355.68 570.04,356.22 573.31,356.58 576.59,357.76 579.86,359.35 583.14,361.04 586.41,362.41 589.68,363.66 592.96,364.35 596.23,365.26 599.51,365.82 602.78,365.63 606.05,365.32 609.33,365.21 612.60,365.22 615.88,365.80 619.15,366.31 622.42,367.05 625.70,368.66 628.97,370.24 632.25,371.79 635.52,373.29 638.80,375.55 642.07,378.47 645.34,381.03 648.62,383.05 651.89,385.37 655.17,387.86 658.44,391.09 661.71,393.95 664.99,396.56 668.26,398.49 671.54,400.82 674.81,404.13 678.08,407.99 681.36,410.33 684.63,411.05 687.91,410.55 691.18,408.94 694.46,406.60 697.73,402.38 701.00,396.78 704.28,390.58 707.55,383.68 710.83,375.96 714.10,367.62 717.37,359.19 720.65,350.41 723.92,342.03 727.20,334.78 730.47,328.07 733.75,322.38 737.02,317.23 740.29,312.71 743.57,309.23 746.84,306.72 750.12,304.48 753.39,302.49 756.66,301.12 759.94,299.87 763.21,298.03 766.49,296.27 769.76,294.29 773.03,292.30 776.31,290.65 779.58,289.11 782.86,287.40 786.13,286.63 789.41,286.70 792.68,287.89 795.95,289.23 799.23,290.65 802.50,291.96 805.78,292.88 809.05,293.67 812.32,294.13 815.60,294.38 818.87,294.46 822.15,294.51 825.42,295.15 828.69,296.03 831.97,298.87 835.24,302.77 838.52,307.46 841.79,313.53 845.07,319.21 848.34,324.10 851.61,327.22 854.89,329.54 858.16,332.09 861.44,334.10 864.71,335.92 867.98,338.50 871.26,341.55 874.53,344.78 877.81,348.32 881.08,350.91 884.36,352.24 887.63,352.87 890.90,353.11 894.18,352.58 897.45,351.95 900.73,351.50 904.00,350.69" />
<text x="754.00" y="290.00" font-size="13" font-family="Arial" fill="#1f77b4" text-anchor="start">MACD</text>
<text x="818.00" y="290.00" font-size="13" font-family="Arial" fill="#ff7f0e" text-anchor="start">Signal</text>
<line x1="56" y1="624" x2="904" y2="624" stroke="#cbd2d9" />
<line x1="56" y1="484" x2="56" y2="624" stroke="#cbd2d9" />
<text x="16.00" y="476.00" font-size="12" font-family="Arial" fill="#52606d" text-anchor="start">KD</text>
<line x1="56" y1="624.00" x2="904" y2="624.00" stroke="#edf2f7" />
<line x1="52" y1="624.00" x2="56" y2="624.00" stroke="#9fb3c8" />
<text x="48.00" y="628.00" font-size="11" font-family="Arial" fill="#52606d" text-anchor="end">-5.00</text>
<line x1="56" y1="577.33" x2="904" y2="577.33" stroke="#edf2f7" />
<line x1="52" y1="577.33" x2="56" y2="577.33" stroke="#9fb3c8" />
<text x="48.00" y="581.33" font-size="11" font-family="Arial" fill="#52606d" text-anchor="end">31.7</text>
<line x1="56" y1="530.67" x2="904" y2="530.67" stroke="#edf2f7" />
<line x1="52" y1="530.67" x2="56" y2="530.67" stroke="#9fb3c8" />
<text x="48.00" y="534.67" font-size="11" font-family="Arial" fill="#52606d" text-anchor="end">68.3</text>
<line x1="56" y1="484.00" x2="904" y2="484.00" stroke="#edf2f7" />
<line x1="52" y1="484.00" x2="56" y2="484.00" stroke="#9fb3c8" />
<text x="48.00" y="488.00" font-size="11" font-family="Arial" fill="#52606d" text-anchor="end">105</text>
<line x1="56.00" y1="624" x2="56.00" y2="628" stroke="#9fb3c8" />
<text x="56.00" y="642.00" font-size="11" font-family="Arial" fill="#52606d" text-anchor="middle">06/26</text>
<line x1="226.25" y1="624" x2="226.25" y2="628" stroke="#9fb3c8" />
<text x="226.25" y="642.00" font-size="11" font-family="Arial" fill="#52606d" text-anchor="middle">09/10</text>
<line x1="396.51" y1="624" x2="396.51" y2="628" stroke="#9fb3c8" />
<text x="396.51" y="642.00" font-size="11" font-family="Arial" fill="#52606d" text-anchor="middle">11/21</text>
<line x1="563.49" y1="624" x2="563.49" y2="628" stroke="#9fb3c8" />
<text x="563.49" y="642.00" font-size="11" font-family="Arial" fill="#52606d" text-anchor="middle">02/06</text>
<line x1="733.75" y1="624" x2="733.75" y2="628" stroke="#9fb3c8" />
<text x="733.75" y="642.00" font-size="11" font-family="Arial" fill="#52606d" text-anchor="middle">04/23</text>
<line x1="904.00" y1="624" x2="904.00" y2="628" stroke="#9fb3c8" />
<text x="904.00" y="642.00" font-size="11" font-family="Arial" fill="#52606d" text-anchor="middle">07/09</text>
<line x1="56" y1="592.18" x2="904" y2="592.18" stroke="#f0b429" stroke-dasharray="5 5" />
<text x="912.00" y="596.18" font-size="10" font-family="Arial" fill="#8d2b0b" text-anchor="start">20.0</text>
<line x1="56" y1="515.82" x2="904" y2="515.82" stroke="#f0b429" stroke-dasharray="5 5" />
<text x="912.00" y="519.82" font-size="10" font-family="Arial" fill="#8d2b0b" text-anchor="start">80.0</text>
<polyline fill="none" stroke="#2ca02c" stroke-width="2" points="82.19,558.04 85.47,560.46 88.74,575.04 92.02,581.75 95.29,600.38 98.56,610.46 101.84,602.05 105.11,598.96 108.39,594.78 111.66,591.98 114.93,577.91 118.21,569.96 121.48,560.75 124.76,555.56 128.03,565.69 131.31,580.18 134.58,597.42 137.85,614.30 141.13,606.24 144.40,607.07 147.68,598.09 150.95,592.88 154.22,579.52 157.50,573.28 160.77,559.49 164.05,550.36 167.32,548.49 170.59,551.65 173.87,555.66 177.14,568.34 180.42,592.15 183.69,615.97 186.97,601.43 190.24,600.18 193.51,591.41 196.79,582.18 200.06,572.51 203.34,575.55 206.61,589.61 209.88,592.59 213.16,582.08 216.43,582.36 219.71,578.49 222.98,572.10 226.25,566.14 229.53,556.06 232.80,550.51 236.08,546.71 239.35,549.71 242.63,553.44 245.90,557.08 249.17,554.13 252.45,551.87 255.72,563.42 259.00,578.91 262.27,598.13 265.54,600.03 268.82,596.05 272.09,590.38 275.37,579.08 278.64,571.07 281.92,568.27 285.19,560.55 288.46,561.92 291.74,557.35 295.01,564.81 298.29,593.44 301.56,592.77 304.83,594.19 308.11,589.32 311.38,594.85 314.66,591.21 317.93,574.88 321.20,564.16 324.48,563.79 327.75,555.05 331.03,545.78 334.30,536.82 337.58,531.91 340.85,529.41 344.12,541.57 347.40,546.57 350.67,547.77 353.95,567.88 357.22,591.82 360.49,609.29 363.77,606.38 367.04,589.08 370.32,571.63 373.59,559.32 376.86,570.12 380.14,577.33 383.41,593.28 386.69,603.57 389.96,606.97 393.24,617.09 396.51,614.32 399.78,600.39 403.06,580.37 406.33,561.39 409.61,545.82 412.88,539.46 416.15,533.89 419.43,528.26 422.70,524.23 425.98,526.83 429.25,533.83 432.53,560.65 435.80,568.52 439.07,567.50 442.35,598.47 445.62,623.19 448.90,627.63 452.17,637.68 455.44,632.66 458.72,615.34 461.99,593.85 465.27,572.11 468.54,555.08 471.81,544.89 475.09,543.08 478.36,543.84 481.64,560.86 484.91,577.55 488.19,577.53 491.46,564.43 494.73,565.44 498.01,566.47 501.28,555.97 504.56,547.39 507.83,545.36 511.10,552.73 514.38,566.15 517.65,577.53 520.93,597.60 524.20,594.20 527.47,584.22 530.75,576.96 534.02,564.44 537.30,550.75 540.57,543.77 543.85,541.99 547.12,545.21 550.39,540.93 553.67,562.46 556.94,580.57 560.22,597.45 563.49,583.49 566.76,567.98 570.04,560.44 573.31,555.75 576.59,573.77 579.86,584.93 583.14,590.01 586.41,586.62 589.68,587.85 592.96,579.03 596.23,586.87 599.51,582.26 602.78,565.39 606.05,560.65 609.33,564.94 612.60,571.11 615.88,575.00 619.15,569.09 622.42,571.57 625.70,589.20 628.97,582.72 632.25,579.87 635.52,576.52 638.80,590.93 642.07,604.91 645.34,603.38 648.62,598.77 651.89,612.19 655.17,613.12 658.44,614.93 661.71,607.29 664.99,603.86 668.26,596.18 671.54,608.69 674.81,612.52 678.08,613.34 681.36,592.16 684.63,571.88 687.91,557.46 691.18,542.67 694.46,532.30 697.73,521.17 701.00,513.53 704.28,509.49 707.55,505.03 710.83,502.03 714.10,499.99 717.37,499.53 720.65,499.48 723.92,502.35 727.20,509.72 730.47,506.98 733.75,508.57 737.02,506.48 740.29,506.09 743.57,515.77 746.84,526.57 750.12,522.69 753.39,523.81 756.66,529.45 759.94,522.89 763.21,516.69 766.49,518.19 769.76,512.74 773.03,510.28 776.31,510.27 779.58,509.20 782.86,507.43 786.13,520.89 789.41,536.58 792.68,559.60 795.95,560.90 799.23,558.52 802.50,550.00 805.78,537.96 809.05,530.05 812.32,521.49 815.60,517.24 818.87,514.34 822.15,511.42 825.42,519.78 828.69,524.75 831.97,556.12 835.24,573.93 838.52,574.60 841.79,587.98 845.07,583.32 848.34,575.70 851.61,554.68 854.89,545.44 858.16,549.11 861.44,542.53 864.71,540.86 867.98,554.51 871.26,564.53 874.53,580.09 877.81,589.29 881.08,578.05 884.36,557.37 887.63,545.98 890.90,539.52 894.18,524.87 897.45,521.50 900.73,522.54 904.00,513.42" />
<polyline fill="none" stroke="#d62728" stroke-width="2" points="82.19,555.35 85.47,557.05 88.74,563.05 92.02,569.28 95.29,579.65 98.56,589.92 101.84,593.96 105.11,595.63 108.39,595.34 111.66,594.22 114.93,588.79 118.21,582.51 121.48,575.26 124.76,568.69 128.03,567.69 131.31,571.85 134.58,580.38 137.85,591.68 141.13,596.54 144.40,600.05 147.68,599.39 150.95,597.22 154.22,591.32 157.50,585.31 160.77,576.70 164.05,567.92 167.32,561.45 170.59,558.18 173.87,557.34 177.14,561.01 180.42,571.39 183.69,586.25 186.97,591.31 190.24,594.27 193.51,593.32 196.79,589.60 200.06,583.91 203.34,581.12 206.61,583.95 209.88,586.83 213.16,585.25 216.43,584.29 219.71,582.35 222.98,578.94 226.25,574.67 229.53,568.47 232.80,562.48 236.08,557.22 239.35,554.72 242.63,554.29 245.90,555.22 249.17,554.86 252.45,553.86 255.72,557.05 259.00,564.33 262.27,575.60 265.54,583.74 268.82,587.85 272.09,588.69 275.37,585.49 278.64,580.68 281.92,576.55 285.19,571.21 288.46,568.11 291.74,564.52 295.01,564.62 298.29,574.23 301.56,580.41 304.83,585.00 308.11,586.44 311.38,589.25 314.66,589.90 317.93,584.89 321.20,577.98 324.48,573.25 327.75,567.18 331.03,560.05 334.30,552.31 337.58,545.51 340.85,540.14 344.12,540.62 347.40,542.60 350.67,544.32 353.95,552.18 357.22,565.39 360.49,580.02 363.77,588.81 367.04,588.90 370.32,583.14 373.59,575.20 376.86,573.51 380.14,574.78 383.41,580.95 386.69,588.49 389.96,594.65 393.24,602.13 396.51,606.19 399.78,604.26 403.06,596.30 406.33,584.66 409.61,571.72 412.88,560.96 416.15,551.94 419.43,544.05 422.70,537.44 425.98,533.90 429.25,533.88 432.53,542.80 435.80,551.37 439.07,556.75 442.35,570.66 445.62,588.17 448.90,601.32 452.17,613.44 455.44,619.85 458.72,618.35 461.99,610.18 465.27,597.49 468.54,583.35 471.81,570.53 475.09,561.38 478.36,555.54 481.64,557.31 484.91,564.06 488.19,568.55 491.46,567.17 494.73,566.60 498.01,566.55 501.28,563.02 504.56,557.81 507.83,553.66 511.10,553.35 514.38,557.62 517.65,564.25 520.93,575.37 524.20,581.65 527.47,582.51 530.75,580.66 534.02,575.25 537.30,567.08 540.57,559.31 543.85,553.54 547.12,550.76 550.39,547.48 553.67,552.48 556.94,561.84 560.22,573.71 563.49,576.97 566.76,573.97 570.04,569.46 573.31,564.89 576.59,567.85 579.86,573.55 583.14,579.04 586.41,581.56 589.68,583.66 592.96,582.12 596.23,583.70 599.51,583.22 602.78,577.28 606.05,571.74 609.33,569.47 612.60,570.02 615.88,571.68 619.15,570.81 622.42,571.07 625.70,577.11 628.97,578.98 632.25,579.28 635.52,578.36 638.80,582.55 642.07,590.00 645.34,594.46 648.62,595.90 651.89,601.33 655.17,605.26 658.44,608.48 661.71,608.08 664.99,606.68 668.26,603.18 671.54,605.01 674.81,607.52 678.08,609.46 681.36,603.69 684.63,593.09 687.91,581.21 691.18,568.36 694.46,556.34 697.73,544.62 701.00,534.26 704.28,526.00 707.55,519.01 710.83,513.35 714.10,508.90 717.37,505.77 720.65,503.68 723.92,503.23 727.20,505.40 730.47,505.93 733.75,506.81 737.02,506.70 740.29,506.49 743.57,509.59 746.84,515.25 750.12,517.73 753.39,519.76 756.66,522.99 759.94,522.95 763.21,520.87 766.49,519.97 769.76,517.56 773.03,515.14 776.31,513.51 779.58,512.08 782.86,510.53 786.13,513.98 789.41,521.51 792.68,534.21 795.95,543.11 799.23,548.24 802.50,548.83 805.78,545.21 809.05,540.15 812.32,533.93 815.60,528.37 818.87,523.69 822.15,519.60 825.42,519.66 828.69,521.36 831.97,532.94 835.24,546.60 838.52,555.94 841.79,566.62 845.07,572.18 848.34,573.35 851.61,567.13 854.89,559.90 858.16,556.30 861.44,551.71 864.71,548.09 867.98,550.23 871.26,555.00 874.53,563.36 877.81,572.01 881.08,574.02 884.36,568.47 887.63,560.97 890.90,553.82 894.18,544.17 897.45,536.61 900.73,531.92 904.00,525.75" />
<text x="824.00" y="502.00" font-size="13" font-family="Arial" fill="#2ca02c" text-anchor="start">K</text>
<text x="860.00" y="502.00" font-size="13" font-family="Arial" fill="#d62728" text-anchor="start">D</text>
</svg>