<svg xmlns="http://www.w3.org/2000/svg" width="960" height="680" viewBox="0 0 960 680"><rect width="100%" height="100%" fill="white" />
<text x="56.00" y="32.00" font-size="20" font-family="Arial" fill="#1f2933" text-anchor="start">VOO Technical Indicators</text>
<line x1="56" y1="220" x2="904" y2="220" stroke="#cbd2d9" />
<line x1="56" y1="58" x2="56" y2="220" stroke="#cbd2d9" />
<text x="16.00" y="50.00" font-size="12" font-family="Arial" fill="#52606d" text-anchor="start">RSI14</text>
<line x1="56" y1="220.00" x2="904" y2="220.00" stroke="#edf2f7" />
<line x1="52" y1="220.00" x2="56" y2="220.00" stroke="#9fb3c8" />
<text x="48.00" y="224.00" font-size="11" font-family="Arial" fill="#52606d" text-anchor="end">-5.00</text>
<line x1="56" y1="166.00" x2="904" y2="166.00" stroke="#edf2f7" />
<line x1="52" y1="166.00" x2="56" y2="166.00" stroke="#9fb3c8" />
<text x="48.00" y="170.00" font-size="11" font-family="Arial" fill="#52606d" text-anchor="end">31.7</text>
<line x1="56" y1="112.00" x2="904" y2="112.00" stroke="#edf2f7" />
<line x1="52" y1="112.00" x2="56" y2="112.00" stroke="#9fb3c8" />
<text x="48.00" y="116.00" font-size="11" font-family="Arial" fill="#52606d" text-anchor="end">68.3</text>
<line x1="56" y1="58.00" x2="904" y2="58.00" stroke="#edf2f7" />
<line x1="52" y1="58.00" x2="56" y2="58.00" stroke="#9fb3c8" />
<text x="48.00" y="62.00" font-size="11" font-family="Arial" fill="#52606d" text-anchor="end">105</text>
<line x1="56" y1="168.45" x2="904" y2="168.45" stroke="#f0b429" stroke-dasharray="5 5" />
<text x="912.00" y="172.45" font-size="10" font-family="Arial" fill="#8d2b0b" text-anchor="start">30.0</text>
<line x1="56" y1="109.55" x2="904" y2="109.55" stroke="#f0b429" stroke-dasharray="5 5" />
<text x="912.00" y="113.55" font-size="10" font-family="Arial" fill="#8d2b0b" text-anchor="start">70.0</text>
<polyline fill="none" stroke="#1f77b4" stroke-width="2" points="101.84,110.25 105.11,109.65 108.39,106.28 111.66,106.80 114.93,112.57 118.21,115.24 121.48,123.16 124.76,147.94 128.03,130.34 131.31,135.99 134.58,128.78 137.85,129.53 141.13,122.57 144.40,125.32 147.68,116.56 150.95,114.04 154.22,114.02 157.50,117.41 160.77,117.98 164.05,126.58 167.32,130.44 170.59,135.96 173.87,120.52 177.14,126.24 180.42,122.64 183.69,120.61 186.97,117.55 190.24,126.03 193.51,135.45 196.79,130.22 200.06,122.75 203.34,126.33 206.61,123.96 209.88,121.73 213.16,119.11 216.43,112.44 219.71,112.79 222.98,108.78 226.25,111.13 229.53,113.24 232.80,109.23 236.08,105.61 239.35,102.18 242.63,112.15 245.90,117.98 249.17,125.73 252.45,119.84 255.72,117.22 259.00,113.92 262.27,110.87 265.54,109.94 268.82,109.87 272.09,106.83 275.37,114.40 278.64,108.95 281.92,114.45 285.19,150.00 288.46,135.09 291.74,136.45 295.01,132.48 298.29,139.14 301.56,134.02 304.83,125.47 308.11,125.61 311.38,131.32 314.66,126.52 317.93,120.19 321.20,112.52 324.48,110.96 327.75,110.71 331.03,124.11 334.30,121.96 337.58,120.47 340.85,133.67 344.12,131.07 347.40,141.41 350.67,140.40 353.95,127.38 357.22,125.68 360.49,125.30 363.77,141.27 367.04,141.49 370.32,149.09 373.59,154.88 376.86,151.20 380.14,160.82 383.41,151.44 386.69,139.59 389.96,133.21 393.24,128.80 396.51,125.41 399.78,129.41 403.06,128.27 406.33,125.87 409.61,125.28 412.88,123.90 416.15,127.25 419.43,128.19 422.70,122.79 425.98,120.83 429.25,133.65 432.53,135.20 435.80,138.22 439.07,148.75 442.35,140.93 445.62,132.81 448.90,127.68 452.17,124.09 455.44,121.59 458.72,121.51 461.99,126.05 465.27,127.84 468.54,136.65 471.81,134.67 475.09,128.02 478.36,122.68 481.64,126.96 484.91,127.19 488.19,120.84 491.46,119.39 494.73,122.61 498.01,129.87 501.28,126.96 504.56,128.26 507.83,152.23 511.10,139.68 514.38,134.73 517.65,134.33 520.93,129.44 524.20,125.74 527.47,125.95 530.75,128.80 534.02,133.14 537.30,127.31 540.57,138.31 543.85,143.91 547.12,155.14 550.39,135.85 553.67,132.05 556.94,134.76 560.22,134.90 563.49,148.61 566.76,147.98 570.04,146.15 573.31,140.97 576.59,143.42 579.86,136.19 583.14,145.69 586.41,138.66 589.68,131.43 592.96,136.85 596.23,141.03 599.51,140.66 602.78,148.47 606.05,141.35 609.33,146.00 612.60,155.90 615.88,147.48 619.15,148.77 622.42,149.62 625.70,160.10 628.97,163.26 632.25,153.09 635.52,150.43 638.80,159.16 642.07,160.66 645.34,167.97 648.62,157.67 651.89,159.49 655.17,154.42 658.44,163.71 661.71,170.52 664.99,171.76 668.26,149.91 671.54,144.89 674.81,144.15 678.08,141.23 681.36,140.81 684.63,126.00 687.91,123.06 691.18,123.59 694.46,118.65 697.73,113.19 701.00,109.91 704.28,109.02 707.55,104.30 710.83,106.24 714.10,112.89 717.37,108.40 720.65,112.45 723.92,108.89 727.20,108.16 730.47,113.52 733.75,113.56 737.02,108.53 740.29,107.10 743.57,111.57 746.84,107.43 750.12,101.18 753.39,105.08 756.66,101.54 759.94,100.63 763.21,102.35 766.49,99.84 769.76,96.61 773.03,112.40 776.31,113.33 779.58,120.82 782.86,114.39 786.13,113.30 789.41,110.97 792.68,107.36 795.95,107.46 799.23,104.29 802.50,103.07 805.78,101.66 809.05,100.91 812.32,112.39 815.60,109.69 818.87,139.84 822.15,137.72 825.42,140.33 828.69,152.50 831.97,138.57 835.24,134.61 838.52,123.74 841.79,128.62 845.07,137.67 848.34,131.50 851.61,133.68 854.89,143.39 858.16,144.00 861.44,143.97 864.71,147.53 867.98,135.49 871.26,129.98 874.53,131.58 877.81,132.34 881.08,126.54 884.36,131.19 887.63,133.56 890.90,127.74 894.18,124.56 897.45,132.04 900.73,129.20 904.00,126.31" />
<text x="808.00" y="76.00" font-size="13" font-family="Arial" fill="#1f77b4" text-anchor="start">RSI14</text>
<line x1="56" y1="432" x2="904" y2="432" stroke="#cbd2d9" />
<line x1="56" y1="272" x2="56" y2="432" stroke="#cbd2d9" />
<text x="16.00" y="264.00" font-size="12" font-family="Arial" fill="#52606d" text-anchor="start">MACD</text>
<line x1="56" y1="432.00" x2="904" y2="432.00" stroke="#edf2f7" />
<line x1="52" y1="432.00" x2="56" y2="432.00" stroke="#9fb3c8" />
<text x="48.00" y="436.00" font-size="11" font-family="Arial" fill="#52606d" text-anchor="end">-11.5</text>
<line x1="56" y1="378.67" x2="904" y2="378.67" stroke="#edf2f7" />
<line x1="52" y1="378.67" x2="56" y2="378.67" stroke="#9fb3c8" />
<text x="48.00" y="382.67" font-size="11" font-family="Arial" fill="#52606d" text-anchor="end">-2.45</text>
<line x1="56" y1="325.33" x2="904" y2="325.33" stroke="#edf2f7" />
<line x1="52" y1="325.33" x2="56" y2="325.33" stroke="#9fb3c8" />
<text x="48.00" y="329.33" font-size="11" font-family="Arial" fill="#52606d" text-anchor="end">6.61</text>
<line x1="56" y1="272.00" x2="904" y2="272.00" stroke="#edf2f7" />
<line x1="52" y1="272.00" x2="56" y2="272.00" stroke="#9fb3c8" />
<text x="48.00" y="276.00" font-size="11" font-family="Arial" fill="#52606d" text-anchor="end">15.7</text>
<line x1="56" y1="364.23" x2="904" y2="364.23" stroke="#9fb3c8" stroke-dasharray="4 4" />
<rect x="136.71" y="364.23" width="2.28" height="0.00" fill="#2f9e44" opacity="0.55" />
<rect x="139.99" y="362.68" width="2.28" height="1.55" fill="#2f9e44" opacity="0.55" />
<rect x="143.26" y="362.33" width="2.28" height="1.90" fill="#2f9e44" opacity="0.55" />
<rect x="146.53" y="360.01" width="2.28" height="4.22" fill="#2f9e44" opacity="0.55" />
<rect x="149.81" y="358.13" width="2.28" height="6.10" fill="#2f9e44" opacity="0.55" />
<rect x="153.08" y="357.40" width="2.28" height="6.83" fill="#2f9e44" opacity="0.55" />
<rect x="156.36" y="357.92" width="2.28" height="6.31" fill="#2f9e44" opacity="0.55" />
<rect x="159.63" y="358.82" width="2.28" height="5.41" fill="#2f9e44" opacity="0.55" />
<rect x="162.90" y="361.04" width="2.28" height="3.19" fill="#2f9e44" opacity="0.55" />
<rect x="166.18" y="363.35" width="2.28" height="0.88" fill="#2f9e44" opacity="0.55" />
<rect x="169.45" y="364.23" width="2.28" height="1.66" fill="#d64545" opacity="0.55" />
<rect x="172.73" y="364.23" width="2.28" height="0.02" fill="#d64545" opacity="0.55" />
<rect x="176.00" y="364.23" width="2.28" height="0.11" fill="#d64545" opacity="0.55" />
<rect x="179.28" y="363.69" width="2.28" height="0.54" fill="#2f9e44" opacity="0.55" />
<rect x="182.55" y="362.99" width="2.28" height="1.24" fill="#2f9e44" opacity="0.55" />
<rect x="185.82" y="362.02" width="2.28" height="2.22" fill="#2f9e44" opacity="0.55" />
<rect x="189.10" y="362.99" width="2.28" height="1.24" fill="#2f9e44" opacity="0.55" />
<rect x="192.37" y="364.23" width="2.28" height="1.24" fill="#d64545" opacity="0.55" />
<rect x="195.65" y="364.23" width="2.28" height="1.81" fill="#d64545" opacity="0.55" />
<rect x="198.92" y="364.23" width="2.28" height="0.45" fill="#d64545" opacity="0.55" />
<rect x="202.19" y="364.23" width="2.28" height="0.36" fill="#d64545" opacity="0.55" />
<rect x="205.47" y="364.12" width="2.28" height="0.11" fill="#2f9e44" opacity="0.55" />
<rect x="208.74" y="363.48" width="2.28" height="0.75" fill="#2f9e44" opacity="0.55" />
<rect x="212.02" y="362.66" width="2.28" height="1.57" fill="#2f9e44" opacity="0.55" />
<rect x="215.29" y="360.60" width="2.28" height="3.63" fill="#2f9e44" opacity="0.55" />
<rect x="218.57" y="359.75" width="2.28" height="4.48" fill="#2f9e44" opacity="0.55" />
<rect x="221.84" y="358.48" width="2.28" height="5.75" fill="#2f9e44" opacity="0.55" />
<rect x="225.11" y="358.51" width="2.28" height="5.72" fill="#2f9e44" opacity="0.55" />
<rect x="228.39" y="359.32" width="2.28" height="4.91" fill="#2f9e44" opacity="0.55" />
<rect x="231.66" y="359.27" width="2.28" height="4.96" fill="#2f9e44" opacity="0.55" />
<rect x="234.94" y="358.70" width="2.28" height="5.53" fill="#2f9e44" opacity="0.55" />
<rect x="238.21" y="357.79" width="2.28" height="6.44" fill="#2f9e44" opacity="0.55" />
<rect x="241.48" y="359.04" width="2.28" height="5.19" fill="#2f9e44" opacity="0.55" />
<rect x="244.76" y="361.14" width="2.28" height="3.09" fill="#2f9e44" opacity="0.55" />
<rect x="248.03" y="364.01" width="2.28" height="0.22" fill="#2f9e44" opacity="0.55" />
<rect x="251.31" y="364.23" width="2.28" height="0.56" fill="#d64545" opacity="0.55" />
<rect x="254.58" y="364.23" width="2.28" height="0.68" fill="#d64545" opacity="0.55" />
<rect x="257.85" y="364.23" width="2.28" height="0.19" fill="#d64545" opacity="0.55" />
<rect x="261.13" y="363.58" width="2.28" height="0.65" fill="#2f9e44" opacity="0.55" />
<rect x="264.40" y="363.14" width="2.28" height="1.09" fill="#2f9e44" opacity="0.55" />
<rect x="267.68" y="363.20" width="2.28" height="1.03" fill="#2f9e44" opacity="0.55" />
<rect x="270.95" y="362.82" width="2.28" height="1.41" fill="#2f9e44" opacity="0.55" />
<rect x="274.23" y="363.78" width="2.28" height="0.45" fill="#2f9e44" opacity="0.55" />
<rect x="277.50" y="363.38" width="2.28" height="0.85" fill="#2f9e44" opacity="0.55" />
<rect x="280.77" y="364.11" width="2.28" height="0.12" fill="#2f9e44" opacity="0.55" />
<rect x="284.05" y="364.23" width="2.28" height="6.83" fill="#d64545" opacity="0.55" />
<rect x="287.32" y="364.23" width="2.28" height="7.74" fill="#d64545" opacity="0.55" />
<rect x="290.60" y="364.23" width="2.28" height="8.50" fill="#d64545" opacity="0.55" />
<rect x="293.87" y="364.23" width="2.28" height="7.79" fill="#d64545" opacity="0.55" />
<rect x="297.14" y="364.23" width="2.28" height="8.68" fill="#d64545" opacity="0.55" />
<rect x="300.42" y="364.23" width="2.28" height="7.75" fill="#d64545" opacity="0.55" />
<rect x="303.69" y="364.23" width="2.28" height="4.58" fill="#d64545" opacity="0.55" />
<rect x="306.97" y="364.23" width="2.28" height="2.58" fill="#d64545" opacity="0.55" />
<rect x="310.24" y="364.23" width="2.28" height="2.53" fill="#d64545" opacity="0.55" />
<rect x="313.51" y="364.23" width="2.28" height="1.26" fill="#d64545" opacity="0.55" />
<rect x="316.79" y="362.91" width="2.28" height="1.32" fill="#2f9e44" opacity="0.55" />
<rect x="320.06" y="358.77" width="2.28" height="5.46" fill="#2f9e44" opacity="0.55" />
<rect x="323.34" y="356.02" width="2.28" height="8.21" fill="#2f9e44" opacity="0.55" />
<rect x="326.61" y="354.85" width="2.28" height="9.38" fill="#2f9e44" opacity="0.55" />
<rect x="329.89" y="357.33" width="2.28" height="6.90" fill="#2f9e44" opacity="0.55" />
<rect x="333.16" y="358.83" width="2.28" height="5.40" fill="#2f9e44" opacity="0.55" />
<rect x="336.43" y="359.86" width="2.28" height="4.37" fill="#2f9e44" opacity="0.55" />
<rect x="339.71" y="363.72" width="2.28" height="0.52" fill="#2f9e44" opacity="0.55" />
<rect x="342.98" y="364.23" width="2.28" height="1.50" fill="#d64545" opacity="0.55" />
<rect x="346.26" y="364.23" width="2.28" height="5.43" fill="#d64545" opacity="0.55" />
<rect x="349.53" y="364.23" width="2.28" height="7.61" fill="#d64545" opacity="0.55" />
<rect x="352.80" y="364.23" width="2.28" height="5.26" fill="#d64545" opacity="0.55" />
<rect x="356.08" y="364.23" width="2.28" height="3.20" fill="#d64545" opacity="0.55" />
<rect x="359.35" y="364.23" width="2.28" height="1.85" fill="#d64545" opacity="0.55" />
<rect x="362.63" y="364.23" width="2.28" height="4.93" fill="#d64545" opacity="0.55" />
<rect x="365.90" y="364.23" width="2.28" height="6.86" fill="#d64545" opacity="0.55" />
<rect x="369.18" y="364.23" width="2.28" height="10.06" fill="#d64545" opacity="0.55" />
<rect x="372.45" y="364.23" width="2.28" height="13.58" fill="#d64545" opacity="0.55" />
<rect x="375.72" y="364.23" width="2.28" height="14.39" fill="#d64545" opacity="0.55" />
<rect x="379.00" y="364.23" width="2.28" height="17.69" fill="#d64545" opacity="0.55" />
<rect x="382.27" y="364.23" width="2.28" height="16.67" fill="#d64545" opacity="0.55" />
<rect x="385.55" y="364.23" width="2.28" height="11.83" fill="#d64545" opacity="0.55" />
<rect x="388.82" y="364.23" width="2.28" height="6.04" fill="#d64545" opacity="0.55" />
<rect x="392.09" y="364.23" width="2.28" height="0.48" fill="#d64545" opacity="0.55" />
<rect x="395.37" y="359.90" width="2.28" height="4.33" fill="#2f9e44" opacity="0.55" />
<rect x="398.64" y="358.18" width="2.28" height="6.05" fill="#2f9e44" opacity="0.55" />
<rect x="401.92" y="357.03" width="2.28" height="7.20" fill="#2f9e44" opacity="0.55" />
<rect x="405.19" y="355.90" width="2.28" height="8.34" fill="#2f9e44" opacity="0.55" />
<rect x="408.46" y="355.47" width="2.28" height="8.77" fill="#2f9e44" opacity="0.55" />
<rect x="411.74" y="355.28" width="2.28" height="8.95" fill="#2f9e44" opacity="0.55" />
<rect x="415.01" y="356.41" width="2.28" height="7.82" fill="#2f9e44" opacity="0.55" />
<rect x="418.29" y="357.82" width="2.28" height="6.42" fill="#2f9e44" opacity="0.55" />
<rect x="421.56" y="357.64" width="2.28" height="6.59" fill="#2f9e44" opacity="0.55" />
<rect x="424.84" y="357.43" width="2.28" height="6.81" fill="#2f9e44" opacity="0.55" />
<rect x="428.11" y="360.34" width="2.28" height="3.89" fill="#2f9e44" opacity="0.55" />
<rect x="431.38" y="362.86" width="2.28" height="1.37" fill="#2f9e44" opacity="0.55" />
<rect x="434.66" y="364.23" width="2.28" height="1.09" fill="#d64545" opacity="0.55" />
<rect x="437.93" y="364.23" width="2.28" height="5.29" fill="#d64545" opacity="0.55" />
<rect x="441.21" y="364.23" width="2.28" height="6.05" fill="#d64545" opacity="0.55" />
<rect x="444.48" y="364.23" width="2.28" height="4.27" fill="#d64545" opacity="0.55" />
<rect x="447.75" y="364.23" width="2.28" height="1.58" fill="#d64545" opacity="0.55" />
<rect x="451.03" y="363.06" width="2.28" height="1.17" fill="#2f9e44" opacity="0.55" />
<rect x="454.30" y="360.73" width="2.28" height="3.50" fill="#2f9e44" opacity="0.55" />
<rect x="457.58" y="359.55" width="2.28" height="4.68" fill="#2f9e44" opacity="0.55" />
<rect x="460.85" y="360.04" width="2.28" height="4.19" fill="#2f9e44" opacity="0.55" />
<rect x="464.12" y="361.03" width="2.28" height="3.20" fill="#2f9e44" opacity="0.55" />
<rect x="467.40" y="363.69" width="2.28" height="0.54" fill="#2f9e44" opacity="0.55" />
<rect x="470.67" y="364.23" width="2.28" height="0.87" fill="#d64545" opacity="0.55" />
<rect x="473.95" y="364.23" width="2.28" height="0.32" fill="#d64545" opacity="0.55" />
<rect x="477.22" y="362.93" width="2.28" height="1.30" fill="#2f9e44" opacity="0.55" />
<rect x="480.50" y="362.90" width="2.28" height="1.33" fill="#2f9e44" opacity="0.55" />
<rect x="483.77" y="363.16" width="2.28" height="1.08" fill="#2f9e44" opacity="0.55" />
<rect x="487.04" y="361.94" width="2.28" height="2.29" fill="#2f9e44" opacity="0.55" />
<rect x="490.32" y="361.09" width="2.28" height="3.14" fill="#2f9e44" opacity="0.55" />
<rect x="493.59" y="361.38" width="2.28" height="2.86" fill="#2f9e44" opacity="0.55" />
<rect x="496.87" y="363.04" width="2.28" height="1.19" fill="#2f9e44" opacity="0.55" />
<rect x="500.14" y="363.70" width="2.28" height="0.53" fill="#2f9e44" opacity="0.55" />
<rect x="503.41" y="364.23" width="2.28" height="0.29" fill="#d64545" opacity="0.55" />
<rect x="506.69" y="364.23" width="2.28" height="5.80" fill="#d64545" opacity="0.55" />
<rect x="509.96" y="364.23" width="2.28" height="6.46" fill="#d64545" opacity="0.55" />
<rect x="513.24" y="364.23" width="2.28" height="5.46" fill="#d64545" opacity="0.55" />
<rect x="516.51" y="364.23" width="2.28" height="4.60" fill="#d64545" opacity="0.55" />
<rect x="519.79" y="364.23" width="2.28" height="2.73" fill="#d64545" opacity="0.55" />
<rect x="523.06" y="364.23" width="2.28" height="0.57" fill="#d64545" opacity="0.55" />
<rect x="526.33" y="363.57" width="2.28" height="0.66" fill="#2f9e44" opacity="0.55" />
<rect x="529.61" y="363.46" width="2.28" height="0.77" fill="#2f9e44" opacity="0.55" />
<rect x="532.88" y="364.23" width="2.28" height="0.10" fill="#d64545" opacity="0.55" />
<rect x="536.16" y="363.70" width="2.28" height="0.53" fill="#2f9e44" opacity="0.55" />
<rect x="539.43" y="364.23" width="2.28" height="1.30" fill="#d64545" opacity="0.55" />
<rect x="542.70" y="364.23" width="2.28" height="3.71" fill="#d64545" opacity="0.55" />
<rect x="545.98" y="364.23" width="2.28" height="8.06" fill="#d64545" opacity="0.55" />
<rect x="549.25" y="364.23" width="2.28" height="5.93" fill="#d64545" opacity="0.55" />
<rect x="552.53" y="364.23" width="2.28" height="3.25" fill="#d64545" opacity="0.55" />
<rect x="555.80" y="364.23" width="2.28" height="2.15" fill="#d64545" opacity="0.55" />
<rect x="559.07" y="364.23" width="2.28" height="1.46" fill="#d64545" opacity="0.55" />
<rect x="562.35" y="364.23" width="2.28" height="4.69" fill="#d64545" opacity="0.55" />
<rect x="565.62" y="364.23" width="2.28" height="6.39" fill="#d64545" opacity="0.55" />
<rect x="568.90" y="364.23" width="2.28" height="6.75" fill="#d64545" opacity="0.55" />
<rect x="572.17" y="364.23" width="2.28" height="5.47" fill="#d64545" opacity="0.55" />
<rect x="575.45" y="364.23" width="2.28" height="5.00" fill="#d64545" opacity="0.55" />
<rect x="578.72" y="364.23" width="2.28" height="2.78" fill="#d64545" opacity="0.55" />
<rect x="581.99" y="364.23" width="2.28" height="3.62" fill="#d64545" opacity="0.55" />
<rect x="585.27" y="364.23" width="2.28" height="2.24" fill="#d64545" opacity="0.55" />
<rect x="588.54" y="363.49" width="2.28" height="0.74" fill="#2f9e44" opacity="0.55" />
<rect x="591.82" y="362.98" width="2.28" height="1.25" fill="#2f9e44" opacity="0.55" />
<rect x="595.09" y="363.81" width="2.28" height="0.43" fill="#2f9e44" opacity="0.55" />
<rect x="598.36" y="364.23" width="2.28" height="0.01" fill="#d64545" opacity="0.55" />
<rect x="601.64" y="364.23" width="2.28" height="2.36" fill="#d64545" opacity="0.55" />
<rect x="604.91" y="364.23" width="2.28" height="2.02" fill="#d64545" opacity="0.55" />
<rect x="608.19" y="364.23" width="2.28" height="2.94" fill="#d64545" opacity="0.55" />
<rect x="611.46" y="364.23" width="2.28" height="6.47" fill="#d64545" opacity="0.55" />
<rect x="614.73" y="364.23" width="2.28" height="6.30" fill="#d64545" opacity="0.55" />
<rect x="618.01" y="364.23" width="2.28" height="6.21" fill="#d64545" opacity="0.55" />
<rect x="621.28" y="364.23" width="2.28" height="6.01" fill="#d64545" opacity="0.55" />
<rect x="624.56" y="364.23" width="2.28" height="9.05" fill="#d64545" opacity="0.55" />
<rect x="627.83" y="364.23" width="2.28" height="11.65" fill="#d64545" opacity="0.55" />
<rect x="631.11" y="364.23" width="2.28" height="10.26" fill="#d64545" opacity="0.55" />
<rect x="634.38" y="364.23" width="2.28" height="8.07" fill="#d64545" opacity="0.55" />
<rect x="637.65" y="364.23" width="2.28" height="9.27" fill="#d64545" opacity="0.55" />
<rect x="640.93" y="364.23" width="2.28" height="9.96" fill="#d64545" opacity="0.55" />
<rect x="644.20" y="364.23" width="2.28" height="12.94" fill="#d64545" opacity="0.55" />
<rect x="647.48" y="364.23" width="2.28" height="11.46" fill="#d64545" opacity="0.55" />
<rect x="650.75" y="364.23" width="2.28" height="10.43" fill="#d64545" opacity="0.55" />
<rect x="654.02" y="364.23" width="2.28" height="7.71" fill="#d64545" opacity="0.55" />
<rect x="657.30" y="364.23" width="2.28" height="9.31" fill="#d64545" opacity="0.55" />
<rect x="660.57" y="364.23" width="2.28" height="13.26" fill="#d64545" opacity="0.55" />
<rect x="663.85" y="364.23" width="2.28" height="15.44" fill="#d64545" opacity="0.55" />
<rect x="667.12" y="364.23" width="2.28" height="9.37" fill="#d64545" opacity="0.55" />
<rect x="670.40" y="364.23" width="2.28" height="2.88" fill="#d64545" opacity="0.55" />
<rect x="673.67" y="362.21" width="2.28" height="2.02" fill="#2f9e44" opacity="0.55" />
<rect x="676.94" y="357.81" width="2.28" height="6.42" fill="#2f9e44" opacity="0.55" />
<rect x="680.22" y="354.85" width="2.28" height="9.38" fill="#2f9e44" opacity="0.55" />
<rect x="683.49" y="347.37" width="2.28" height="16.86" fill="#2f9e44" opacity="0.55" />
<rect x="686.77" y="341.84" width="2.28" height="22.39" fill="#2f9e44" opacity="0.55" />
<rect x="690.04" y="339.41" width="2.28" height="24.82" fill="#2f9e44" opacity="0.55" />
<rect x="693.31" y="336.65" width="2.28" height="27.58" fill="#2f9e44" opacity="0.55" />
<rect x="696.59" y="333.34" width="2.28" height="30.89" fill="#2f9e44" opacity="0.55" />
<rect x="699.86" y="330.86" width="2.28" height="33.37" fill="#2f9e44" opacity="0.55" />
<rect x="703.14" y="330.50" width="2.28" height="33.73" fill="#2f9e44" opacity="0.55" />
<rect x="706.41" y="329.13" width="2.28" height="35.11" fill="#2f9e44" opacity="0.55" />
<rect x="709.68" y="330.69" width="2.28" height="33.54" fill="#2f9e44" opacity="0.55" />
<rect x="712.96" y="335.24" width="2.28" height="28.99" fill="#2f9e44" opacity="0.55" />
<rect x="716.23" y="337.39" width="2.28" height="26.84" fill="#2f9e44" opacity="0.55" />
<rect x="719.51" y="341.46" width="2.28" height="22.77" fill="#2f9e44" opacity="0.55" />
<rect x="722.78" y="343.66" width="2.28" height="20.57" fill="#2f9e44" opacity="0.55" />
<rect x="726.06" y="346.14" width="2.28" height="18.09" fill="#2f9e44" opacity="0.55" />
<rect x="729.33" y="350.32" width="2.28" height="13.91" fill="#2f9e44" opacity="0.55" />
<rect x="732.60" y="354.18" width="2.28" height="10.05" fill="#2f9e44" opacity="0.55" />
<rect x="735.88" y="355.28" width="2.28" height="8.95" fill="#2f9e44" opacity="0.55" />
<rect x="739.15" y="356.26" width="2.28" height="7.97" fill="#2f9e44" opacity="0.55" />
<rect x="742.43" y="358.75" width="2.28" height="5.48" fill="#2f9e44" opacity="0.55" />
<rect x="745.70" y="359.23" width="2.28" height="5.00" fill="#2f9e44" opacity="0.55" />
<rect x="748.97" y="356.88" width="2.28" height="7.35" fill="#2f9e44" opacity="0.55" />
<rect x="752.25" y="357.19" width="2.28" height="7.04" fill="#2f9e44" opacity="0.55" />
<rect x="755.52" y="356.31" width="2.28" height="7.92" fill="#2f9e44" opacity="0.55" />
<rect x="758.80" y="356.26" width="2.28" height="7.97" fill="#2f9e44" opacity="0.55" />
<rect x="762.07" y="357.62" width="2.28" height="6.61" fill="#2f9e44" opacity="0.55" />
<rect x="765.34" y="358.09" width="2.28" height="6.14" fill="#2f9e44" opacity="0.55" />
<rect x="768.62" y="357.40" width="2.28" height="6.83" fill="#2f9e44" opacity="0.55" />
<rect x="771.89" y="361.13" width="2.28" height="3.10" fill="#2f9e44" opacity="0.55" />
<rect x="775.17" y="364.23" width="2.28" height="0.30" fill="#d64545" opacity="0.55" />
<rect x="778.44" y="364.23" width="2.28" height="4.75" fill="#d64545" opacity="0.55" />
<rect x="781.72" y="364.23" width="2.28" height="5.37" fill="#d64545" opacity="0.55" />
<rect x="784.99" y="364.23" width="2.28" height="5.68" fill="#d64545" opacity="0.55" />
<rect x="788.26" y="364.23" width="2.28" height="5.24" fill="#d64545" opacity="0.55" />
<rect x="791.54" y="364.23" width="2.28" height="3.67" fill="#d64545" opacity="0.55" />
<rect x="794.81" y="364.23" width="2.28" height="3.17" fill="#d64545" opacity="0.55" />
<rect x="798.09" y="364.23" width="2.28" height="1.85" fill="#d64545" opacity="0.55" />
<rect x="801.36" y="364.23" width="2.28" height="0.98" fill="#d64545" opacity="0.55" />
<rect x="804.63" y="364.23" width="2.28" height="0.34" fill="#d64545" opacity="0.55" />
<rect x="807.91" y="364.23" width="2.28" height="0.19" fill="#d64545" opacity="0.55" />
<rect x="811.18" y="364.23" width="2.28" height="2.56" fill="#d64545" opacity="0.55" />
<rect x="814.46" y="364.23" width="2.28" height="3.53" fill="#d64545" opacity="0.55" />
<rect x="817.73" y="364.23" width="2.28" height="11.34" fill="#d64545" opacity="0.55" />
<rect x="821.01" y="364.23" width="2.28" height="15.61" fill="#d64545" opacity="0.55" />
<rect x="824.28" y="364.23" width="2.28" height="18.76" fill="#d64545" opacity="0.55" />
<rect x="827.55" y="364.23" width="2.28" height="24.26" fill="#d64545" opacity="0.55" />
<rect x="830.83" y="364.23" width="2.28" height="22.72" fill="#d64545" opacity="0.55" />
<rect x="834.10" y="364.23" width="2.28" height="19.57" fill="#d64545" opacity="0.55" />
<rect x="837.38" y="364.23" width="2.28" height="12.49" fill="#d64545" opacity="0.55" />
<rect x="840.65" y="364.23" width="2.28" height="9.27" fill="#d64545" opacity="0.55" />
<rect x="843.92" y="364.23" width="2.28" height="10.20" fill="#d64545" opacity="0.55" />
<rect x="847.20" y="364.23" width="2.28" height="8.03" fill="#d64545" opacity="0.55" />
<rect x="850.47" y="364.23" width="2.28" height="7.28" fill="#d64545" opacity="0.55" />
<rect x="853.75" y="364.23" width="2.28" height="10.34" fill="#d64545" opacity="0.55" />
<rect x="857.02" y="364.23" width="2.28" height="12.19" fill="#d64545" opacity="0.55" />
<rect x="860.29" y="364.23" width="2.28" height="12.91" fill="#d64545" opacity="0.55" />
<rect x="863.57" y="364.23" width="2.28" height="14.18" fill="#d64545" opacity="0.55" />
<rect x="866.84" y="364.23" width="2.28" height="10.33" fill="#d64545" opacity="0.55" />
<rect x="870.12" y="364.23" width="2.28" height="5.33" fill="#d64545" opacity="0.55" />
<rect x="873.39" y="364.23" width="2.28" height="2.53" fill="#d64545" opacity="0.55" />
<rect x="876.67" y="364.23" width="2.28" height="0.97" fill="#d64545" opacity="0.55" />
<rect x="879.94" y="362.11" width="2.28" height="2.12" fill="#2f9e44" opacity="0.55" />
<rect x="883.21" y="361.72" width="2.28" height="2.51" fill="#2f9e44" opacity="0.55" />
<rect x="886.49" y="362.40" width="2.28" height="1.83" fill="#2f9e44" opacity="0.55" />
<rect x="889.76" y="361.00" width="2.28" height="3.23" fill="#2f9e44" opacity="0.55" />
<rect x="893.04" y="359.23" width="2.28" height="5.00" fill="#2f9e44" opacity="0.55" />
<rect x="896.31" y="360.52" width="2.28" height="3.71" fill="#2f9e44" opacity="0.55" />
<rect x="899.58" y="360.70" width="2.28" height="3.53" fill="#2f9e44" opacity="0.55" />
<rect x="902.86" y="360.13" width="2.28" height="4.10" fill="#2f9e44" opacity="0.55" />
<polyline fill="none" stroke="#1f77b4" stroke-width="2" points="137.85,353.23 141.13,351.29 144.40,350.48 147.68,347.10 150.95,343.69 154.22,341.25 157.50,340.19 160.77,339.74 164.05,341.16 167.32,343.25 170.59,346.21 173.87,344.58 177.14,344.69 180.42,343.90 183.69,342.89 186.97,341.37 190.24,342.03 193.51,344.82 196.79,345.84 200.06,344.59 203.34,344.59 206.61,344.10 209.88,343.27 213.16,342.06 216.43,339.09 219.71,337.11 222.98,334.41 226.25,333.01 229.53,332.59 232.80,331.30 236.08,329.34 239.35,326.83 242.63,326.78 245.90,328.11 249.17,330.92 252.45,331.84 255.72,332.13 259.00,331.69 262.27,330.69 265.54,329.97 268.82,329.77 272.09,329.04 275.37,329.88 278.64,329.28 281.92,329.98 285.19,338.64 288.46,341.48 291.74,344.36 295.01,345.60 298.29,348.67 301.56,349.68 304.83,347.65 308.11,346.29 311.38,346.88 314.66,345.93 317.93,343.01 321.20,337.50 324.48,332.70 327.75,329.18 331.03,329.95 334.30,330.10 337.58,330.03 340.85,333.76 344.12,336.15 347.40,341.43 350.67,345.52 353.95,344.49 357.22,343.23 360.49,342.34 363.77,346.65 367.04,350.30 370.32,356.01 373.59,362.93 376.86,367.34 380.14,375.06 383.41,378.20 386.69,376.32 389.96,372.04 393.24,366.60 396.51,360.71 399.78,357.48 403.06,354.53 406.33,351.31 409.61,348.68 412.88,346.26 416.15,345.43 419.43,345.24 422.70,343.41 425.98,341.50 429.25,343.44 432.53,345.62 435.80,348.36 439.07,353.87 442.35,356.14 445.62,355.43 448.90,353.14 452.17,350.09 455.44,346.89 458.72,344.54 461.99,343.98 465.27,344.17 468.54,346.70 471.81,348.33 475.09,347.85 478.36,345.91 481.64,345.55 484.91,345.53 488.19,343.75 491.46,342.11 494.73,341.68 498.01,343.05 501.28,343.58 504.56,344.47 507.83,351.44 511.10,353.71 514.38,354.08 517.65,354.36 520.93,353.17 524.20,351.15 527.47,349.76 530.75,349.46 534.02,350.35 537.30,349.59 540.57,351.74 543.85,355.08 547.12,361.45 550.39,360.80 553.67,358.94 556.94,358.37 560.22,358.04 563.49,362.45 566.76,365.74 570.04,367.79 573.31,367.88 576.59,368.66 579.86,367.13 583.14,368.88 586.41,368.06 589.68,364.89 592.96,364.07 596.23,364.79 599.51,365.23 602.78,368.16 606.05,368.33 609.33,369.99 612.60,375.13 615.88,376.53 619.15,378.00 622.42,379.30 625.70,384.61 628.97,390.12 632.25,391.29 635.52,391.11 638.80,394.64 642.07,397.81 645.34,404.03 648.62,405.41 651.89,406.99 655.17,406.20 658.44,410.12 661.71,417.39 664.99,423.43 668.26,419.71 671.54,413.94 674.81,408.52 678.08,402.53 681.36,397.22 684.63,385.52 687.91,374.39 691.18,365.75 694.46,356.11 697.73,345.07 701.00,334.25 704.28,325.46 707.55,315.30 710.83,308.49 714.10,305.79 717.37,301.23 720.65,299.61 723.92,296.66 727.20,294.62 730.47,295.33 733.75,296.68 737.02,295.54 740.29,294.52 743.57,295.64 746.84,294.87 750.12,290.68 753.39,289.23 756.66,286.37 759.94,284.33 763.21,284.04 766.49,282.97 769.76,280.57 773.03,283.53 776.31,287.01 779.58,292.64 782.86,294.60 786.13,296.33 789.41,297.20 792.68,296.55 795.95,296.84 799.23,295.98 802.50,295.35 805.78,294.80 809.05,294.70 812.32,297.71 815.60,299.57 818.87,310.21 822.15,318.38 825.42,326.23 828.69,337.79 831.97,341.92 835.24,343.67 838.52,339.72 841.79,338.81 845.07,342.29 848.34,342.13 851.61,343.20 854.89,348.84 858.16,353.74 861.44,357.69 864.71,362.50 867.98,361.24 871.26,357.56 874.53,355.39 877.81,354.09 881.08,350.46 884.36,349.44 887.63,349.67 890.90,347.46 894.18,344.43 897.45,344.80 900.73,344.10 904.00,342.50" />
<polyline fill="none" stroke="#ff7f0e" stroke-width="2" points="137.85,353.23 141.13,352.85 144.40,352.37 147.68,351.32 150.95,349.79 154.22,348.08 157.50,346.51 160.77,345.15 164.05,344.35 167.32,344.13 170.59,344.55 173.87,344.55 177.14,344.58 180.42,344.45 183.69,344.13 186.97,343.58 190.24,343.27 193.51,343.58 196.79,344.03 200.06,344.14 203.34,344.23 206.61,344.21 209.88,344.02 213.16,343.63 216.43,342.72 219.71,341.60 222.98,340.16 226.25,338.73 229.53,337.50 232.80,336.26 236.08,334.88 239.35,333.27 242.63,331.97 245.90,331.20 249.17,331.14 252.45,331.28 255.72,331.45 259.00,331.50 262.27,331.34 265.54,331.06 268.82,330.80 272.09,330.45 275.37,330.34 278.64,330.13 281.92,330.10 285.19,331.80 288.46,333.74 291.74,335.86 295.01,337.81 298.29,339.98 301.56,341.92 304.83,343.07 308.11,343.71 311.38,344.35 314.66,344.66 317.93,344.33 321.20,342.97 324.48,340.91 327.75,338.57 331.03,336.84 334.30,335.49 337.58,334.40 340.85,334.27 344.12,334.65 347.40,336.01 350.67,337.91 353.95,339.22 357.22,340.02 360.49,340.49 363.77,341.72 367.04,343.44 370.32,345.95 373.59,349.35 376.86,352.95 380.14,357.37 383.41,361.53 386.69,364.49 389.96,366.00 393.24,366.12 396.51,365.04 399.78,363.53 403.06,361.73 406.33,359.64 409.61,357.45 412.88,355.21 416.15,353.26 419.43,351.65 422.70,350.00 425.98,348.30 429.25,347.33 432.53,346.99 435.80,347.26 439.07,348.58 442.35,350.10 445.62,351.16 448.90,351.56 452.17,351.27 455.44,350.39 458.72,349.22 461.99,348.17 465.27,347.37 468.54,347.24 471.81,347.46 475.09,347.54 478.36,347.21 481.64,346.88 484.91,346.61 488.19,346.04 491.46,345.25 494.73,344.54 498.01,344.24 501.28,344.11 504.56,344.18 507.83,345.63 511.10,347.25 514.38,348.61 517.65,349.76 520.93,350.44 524.20,350.59 527.47,350.42 530.75,350.23 534.02,350.25 537.30,350.12 540.57,350.45 543.85,351.37 547.12,353.39 550.39,354.87 553.67,355.68 556.94,356.22 560.22,356.59 563.49,357.76 566.76,359.35 570.04,361.04 573.31,362.41 576.59,363.66 579.86,364.35 583.14,365.26 586.41,365.82 589.68,365.63 592.96,365.32 596.23,365.21 599.51,365.22 602.78,365.80 606.05,366.31 609.33,367.05 612.60,368.66 615.88,370.24 619.15,371.79 622.42,373.29 625.70,375.55 628.97,378.47 632.25,381.03 635.52,383.05 638.80,385.37 642.07,387.86 645.34,391.09 648.62,393.95 651.89,396.56 655.17,398.49 658.44,400.82 661.71,404.13 664.99,407.99 668.26,410.33 671.54,411.05 674.81,410.55 678.08,408.94 681.36,406.60 684.63,402.38 687.91,396.78 691.18,390.58 694.46,383.68 697.73,375.96 701.00,367.62 704.28,359.19 707.55,350.41 710.83,342.03 714.10,334.78 717.37,328.07 720.65,322.38 723.92,317.23 727.20,312.71 730.47,309.23 733.75,306.72 737.02,304.48 740.29,302.49 743.57,301.12 746.84,299.87 750.12,298.03 753.39,296.27 756.66,294.29 759.94,292.30 763.21,290.65 766.49,289.11 769.76,287.40 773.03,286.63 776.31,286.70 779.58,287.89 782.86,289.23 786.13,290.65 789.41,291.96 792.68,292.88 795.95,293.67 799.23,294.13 802.50,294.38 805.78,294.46 809.05,294.51 812.32,295.15 815.60,296.03 818.87,298.87 822.15,302.77 825.42,307.46 828.69,313.53 831.97,319.21 835.24,324.10 838.52,327.22 841.79,329.54 845.07,332.09 848.34,334.10 851.61,335.92 854.89,338.50 858.16,341.55 861.44,344.78 864.71,348.32 867.98,350.91 871.26,352.24 874.53,352.87 877.81,353.11 881.08,352.58 884.36,351.95 887.63,351.50 890.90,350.69 894.18,349.44 897.45,348.51 900.73,347.63 904.00,346.60" />
<text x="754.00" y="290.00" font-size="13" font-family="Arial" fill="#1f77b4" text-anchor="start">MACD</text>
<text x="818.00" y="290.00" font-size="13" font-family="Arial" fill="#ff7f0e" text-anchor="start">Signal</text>
<line x1="56" y1="624" x2="904" y2="624" stroke="#cbd2d9" />
<line x1="56" y1="484" x2="56" y2="624" stroke="#cbd2d9" />
<text x="16.00" y="476.00" font-size="12" font-family="Arial" fill="#52606d" text-anchor="start">KD</text>
<line x1="56" y1="624.00" x2="904" y2="624.00" stroke="#edf2f7" />
<line x1="52" y1="624.00" x2="56" y2="624.00" stroke="#9fb3c8" />
<text x="48.00" y="628.00" font-size="11" font-family="Arial" fill="#52606d" text-anchor="end">-5.00</text>
<line x1="56" y1="577.33" x2="904" y2="577.33" stroke="#edf2f7" />
<line x1="52" y1="577.33" x2="56" y2="577.33" stroke="#9fb3c8" />
<text x="48.00" y="581.33" font-size="11" font-family="Arial" fill="#52606d" text-anchor="end">31.7</text>
<line x1="56" y1="530.67" x2="904" y2="530.67" stroke="#edf2f7" />
<line x1="52" y1="530.67" x2="56" y2="530.67" stroke="#9fb3c8" />
<text x="48.00" y="534.67" font-size="11" font-family="Arial" fill="#52606d" text-anchor="end">68.3</text>
<line x1="56" y1="484.00" x2="904" y2="484.00" stroke="#edf2f7" />
<line x1="52" y1="484.00" x2="56" y2="484.00" stroke="#9fb3c8" />
<text x="48.00" y="488.00" font-size="11" font-family="Arial" fill="#52606d" text-anchor="end">105</text>
<line x1="56.00" y1="624" x2="56.00" y2="628" stroke="#9fb3c8" />
<text x="56.00" y="642.00" font-size="11" font-family="Arial" fill="#52606d" text-anchor="middle">07/02</text>
<line x1="226.25" y1="624" x2="226.25" y2="628" stroke="#9fb3c8" />
<text x="226.25" y="642.00" font-size="11" font-family="Arial" fill="#52606d" text-anchor="middle">09/16</text>
<line x1="396.51" y1="624" x2="396.51" y2="628" stroke="#9fb3c8" />
<text x="396.51" y="642.00" font-size="11" font-family="Arial" fill="#52606d" text-anchor="middle">11/28</text>
<line x1="563.49" y1="624" x2="563.49" y2="628" stroke="#9fb3c8" />
<text x="563.49" y="642.00" font-size="11" font-family="Arial" fill="#52606d" text-anchor="middle">02/12</text>
<line x1="733.75" y1="624" x2="733.75" y2="628" stroke="#9fb3c8" />
<text x="733.75" y="642.00" font-size="11" font-family="Arial" fill="#52606d" text-anchor="middle">04/29</text>
<line x1="904.00" y1="624" x2="904.00" y2="628" stroke="#9fb3c8" />
<text x="904.00" y="642.00" font-size="11" font-family="Arial" fill="#52606d" text-anchor="middle">07/15</text>
<line x1="56" y1="592.18" x2="904" y2="592.18" stroke="#f0b429" stroke-dasharray="5 5" />
<text x="912.00" y="596.18" font-size="10" font-family="Arial" fill="#8d2b0b" text-anchor="start">20.0</text>
<line x1="56" y1="515.82" x2="904" y2="515.82" stroke="#f0b429" stroke-dasharray="5 5" />
<text x="912.00" y="519.82" font-size="10" font-family="Arial" fill="#8d2b0b" text-anchor="start">80.0</text>
<polyline fill="none" stroke="#2ca02c" stroke-width="2" points="82.19,581.87 85.47,598.12 88.74,593.82 92.02,593.48 95.29,591.12 98.56,589.55 101.84,576.29 105.11,568.88 108.39,560.03 111.66,555.07 114.93,565.37 118.21,579.97 121.48,597.27 124.76,614.20 128.03,606.18 131.31,607.03 134.58,598.06 137.85,592.86 141.13,579.51 144.40,573.27 147.68,559.49 150.95,550.35 154.22,548.49 157.50,551.65 160.77,555.66 164.05,568.34 167.32,592.15 170.59,615.97 173.87,601.43 177.14,600.18 180.42,591.41 183.69,582.18 186.97,572.52 190.24,575.55 193.51,589.61 196.79,592.59 200.06,582.08 203.34,582.36 206.61,578.49 209.88,572.10 213.16,566.14 216.43,556.06 219.71,550.51 222.98,546.71 226.25,549.71 229.53,553.44 232.80,557.08 236.08,554.13 239.35,551.87 242.63,563.42 245.90,578.91 249.17,598.13 252.45,600.03 255.72,596.05 259.00,590.38 262.27,579.08 265.54,571.07 268.82,568.27 272.09,560.55 275.37,561.92 278.64,557.35 281.92,564.81 285.19,593.44 288.46,592.77 291.74,594.19 295.01,589.32 298.29,594.85 301.56,591.21 304.83,574.88 308.11,564.16 311.38,563.79 314.66,555.05 317.93,545.78 321.20,536.82 324.48,531.91 327.75,529.41 331.03,541.57 334.30,546.57 337.58,547.77 340.85,567.88 344.12,591.82 347.40,609.29 350.67,606.38 353.95,589.08 357.22,571.63 360.49,559.32 363.77,570.12 367.04,577.33 370.32,593.28 373.59,603.57 376.86,606.97 380.14,617.09 383.41,614.32 386.69,600.39 389.96,580.37 393.24,561.39 396.51,545.82 399.78,539.46 403.06,533.89 406.33,528.26 409.61,524.23 412.88,526.83 416.15,533.83 419.43,560.65 422.70,568.52 425.98,567.50 429.25,598.47 432.53,623.19 435.80,627.63 439.07,637.68 442.35,632.66 445.62,615.34 448.90,593.85 452.17,572.11 455.44,555.08 458.72,544.89 461.99,543.08 465.27,543.84 468.54,560.86 471.81,577.55 475.09,577.53 478.36,564.43 481.64,565.44 484.91,566.47 488.19,555.97 491.46,547.39 494.73,545.36 498.01,552.73 501.28,566.15 504.56,577.53 507.83,597.60 511.10,594.20 514.38,584.22 517.65,576.96 520.93,564.44 524.20,550.75 527.47,543.77 530.75,541.99 534.02,545.21 537.30,540.93 540.57,562.46 543.85,580.57 547.12,597.45 550.39,583.49 553.67,567.98 556.94,560.44 560.22,555.75 563.49,573.77 566.76,584.93 570.04,590.01 573.31,586.62 576.59,587.85 579.86,579.03 583.14,586.87 586.41,582.26 589.68,565.39 592.96,560.65 596.23,564.94 599.51,571.11 602.78,575.00 606.05,569.09 609.33,571.57 612.60,589.20 615.88,582.72 619.15,579.87 622.42,576.52 625.70,590.93 628.97,604.91 632.25,603.38 635.52,598.77 638.80,612.19 642.07,613.12 645.34,614.93 648.62,607.29 651.89,603.86 655.17,596.18 658.44,608.69 661.71,612.52 664.99,613.34 668.26,592.16 671.54,571.88 674.81,557.46 678.08,542.67 681.36,532.30 684.63,521.17 687.91,513.53 691.18,509.49 694.46,505.03 697.73,502.03 701.00,499.99 704.28,499.53 707.55,499.48 710.83,502.35 714.10,509.72 717.37,506.98 720.65,508.57 723.92,506.48 727.20,506.09 730.47,515.77 733.75,526.57 737.02,522.69 740.29,523.81 743.57,529.45 746.84,522.89 750.12,516.69 753.39,518.19 756.66,512.74 759.94,510.28 763.21,510.27 766.49,509.20 769.76,507.43 773.03,520.89 776.31,536.58 779.58,559.60 782.86,560.90 786.13,558.52 789.41,550.00 792.68,537.96 795.95,530.05 799.23,521.49 802.50,517.24 805.78,514.34 809.05,511.42 812.32,519.78 815.60,524.75 818.87,556.12 822.15,573.93 825.42,574.60 828.69,587.98 831.97,583.32 835.24,575.70 838.52,554.68 841.79,545.44 845.07,549.11 848.34,542.53 851.61,540.86 854.89,554.51 858.16,564.53 861.44,580.09 864.71,589.29 867.98,578.05 871.26,557.37 874.53,545.98 877.81,539.52 881.08,524.87 884.36,521.50 887.63,522.54 890.90,513.42 894.18,506.67 897.45,518.17 900.73,518.29 904.00,510.99" />
<polyline fill="none" stroke="#d62728" stroke-width="2" points="82.19,563.29 85.47,574.90 88.74,581.21 92.02,585.30 95.29,587.24 98.56,588.01 101.84,584.10 105.11,579.03 108.39,572.69 111.66,566.82 114.93,566.34 118.21,570.88 121.48,579.68 124.76,591.19 128.03,596.18 131.31,599.80 134.58,599.22 137.85,597.10 141.13,591.24 144.40,585.25 147.68,576.66 150.95,567.89 154.22,561.43 157.50,558.17 160.77,557.33 164.05,561.00 167.32,571.38 170.59,586.25 173.87,591.31 177.14,594.27 180.42,593.32 183.69,589.60 186.97,583.91 190.24,581.12 193.51,583.95 196.79,586.83 200.06,585.25 203.34,584.29 206.61,582.35 209.88,578.94 213.16,574.67 216.43,568.47 219.71,562.48 222.98,557.22 226.25,554.72 229.53,554.29 232.80,555.22 236.08,554.86 239.35,553.86 242.63,557.05 245.90,564.33 249.17,575.60 252.45,583.74 255.72,587.85 259.00,588.69 262.27,585.49 265.54,580.68 268.82,576.55 272.09,571.21 275.37,568.11 278.64,564.52 281.92,564.62 285.19,574.23 288.46,580.41 291.74,585.00 295.01,586.44 298.29,589.24 301.56,589.90 304.83,584.89 308.11,577.98 311.38,573.25 314.66,567.18 317.93,560.05 321.20,552.31 324.48,545.51 327.75,540.14 331.03,540.62 334.30,542.60 337.58,544.32 340.85,552.18 344.12,565.39 347.40,580.02 350.67,588.81 353.95,588.90 357.22,583.14 360.49,575.20 363.77,573.51 367.04,574.78 370.32,580.95 373.59,588.49 376.86,594.65 380.14,602.13 383.41,606.19 386.69,604.26 389.96,596.30 393.24,584.66 396.51,571.72 399.78,560.96 403.06,551.94 406.33,544.05 409.61,537.44 412.88,533.90 416.15,533.88 419.43,542.80 422.70,551.37 425.98,556.75 429.25,570.66 432.53,588.17 435.80,601.32 439.07,613.44 442.35,619.85 445.62,618.35 448.90,610.18 452.17,597.49 455.44,583.35 458.72,570.53 461.99,561.38 465.27,555.54 468.54,557.31 471.81,564.06 475.09,568.55 478.36,567.17 481.64,566.60 484.91,566.55 488.19,563.02 491.46,557.81 494.73,553.66 498.01,553.35 501.28,557.62 504.56,564.25 507.83,575.37 511.10,581.65 514.38,582.51 517.65,580.66 520.93,575.25 524.20,567.08 527.47,559.31 530.75,553.54 534.02,550.76 537.30,547.48 540.57,552.48 543.85,561.84 547.12,573.71 550.39,576.97 553.67,573.97 556.94,569.46 560.22,564.89 563.49,567.85 566.76,573.55 570.04,579.04 573.31,581.56 576.59,583.66 579.86,582.12 583.14,583.70 586.41,583.22 589.68,577.28 592.96,571.74 596.23,569.47 599.51,570.02 602.78,571.68 606.05,570.81 609.33,571.07 612.60,577.11 615.88,578.98 619.15,579.28 622.42,578.36 625.70,582.55 628.97,590.00 632.25,594.46 635.52,595.90 638.80,601.33 642.07,605.26 645.34,608.48 648.62,608.08 651.89,606.68 655.17,603.18 658.44,605.01 661.71,607.52 664.99,609.46 668.26,603.69 671.54,593.09 674.81,581.21 678.08,568.36 681.36,556.34 684.63,544.62 687.91,534.26 691.18,526.00 694.46,519.01 697.73,513.35 701.00,508.90 704.28,505.77 707.55,503.68 710.83,503.23 714.10,505.40 717.37,505.93 720.65,506.81 723.92,506.70 727.20,506.49 730.47,509.59 733.75,515.25 737.02,517.73 740.29,519.76 743.57,522.99 746.84,522.95 750.12,520.87 753.39,519.97 756.66,517.56 759.94,515.14 763.21,513.51 766.49,512.08 769.76,510.53 773.03,513.98 776.31,521.51 779.58,534.21 782.86,543.11 786.13,548.24 789.41,548.83 792.68,545.21 795.95,540.15 799.23,533.93 802.50,528.37 805.78,523.69 809.05,519.60 812.32,519.66 815.60,521.36 818.87,532.94 822.15,546.60 825.42,555.94 828.69,566.62 831.97,572.18 835.24,573.35 838.52,567.13 841.79,559.90 845.07,556.30 848.34,551.71 851.61,548.09 854.89,550.23 858.16,555.00 861.44,563.36 864.71,572.01 867.98,574.02 871.26,568.47 874.53,560.97 877.81,553.82 881.08,544.17 884.36,536.61 887.63,531.92 890.90,525.75 894.18,519.39 897.45,518.99 900.73,518.75 904.00,516.17" />
<text x="824.00" y="502.00" font-size="13" font-family="Arial" fill="#2ca02c" text-anchor="start">K</text>
<text x="860.00" y="502.00" font-size="13" font-family="Arial" fill="#d62728" text-anchor="start">D</text>
</svg>