<svg xmlns="http://www.w3.org/2000/svg" width="960" height="680" viewBox="0 0 960 680"><rect width="100%" height="100%" fill="white" />
<text x="56.00" y="32.00" font-size="20" font-family="Arial" fill="#1f2933" text-anchor="start">VT Technical Indicators</text>
<line x1="56" y1="220" x2="904" y2="220" stroke="#cbd2d9" />
<line x1="56" y1="58" x2="56" y2="220" stroke="#cbd2d9" />
<text x="16.00" y="50.00" font-size="12" font-family="Arial" fill="#52606d" text-anchor="start">RSI14</text>
<line x1="56" y1="220.00" x2="904" y2="220.00" stroke="#edf2f7" />
<line x1="52" y1="220.00" x2="56" y2="220.00" stroke="#9fb3c8" />
<text x="48.00" y="224.00" font-size="11" font-family="Arial" fill="#52606d" text-anchor="end">-5.00</text>
<line x1="56" y1="166.00" x2="904" y2="166.00" stroke="#edf2f7" />
<line x1="52" y1="166.00" x2="56" y2="166.00" stroke="#9fb3c8" />
<text x="48.00" y="170.00" font-size="11" font-family="Arial" fill="#52606d" text-anchor="end">31.7</text>
<line x1="56" y1="112.00" x2="904" y2="112.00" stroke="#edf2f7" />
<line x1="52" y1="112.00" x2="56" y2="112.00" stroke="#9fb3c8" />
<text x="48.00" y="116.00" font-size="11" font-family="Arial" fill="#52606d" text-anchor="end">68.3</text>
<line x1="56" y1="58.00" x2="904" y2="58.00" stroke="#edf2f7" />
<line x1="52" y1="58.00" x2="56" y2="58.00" stroke="#9fb3c8" />
<text x="48.00" y="62.00" font-size="11" font-family="Arial" fill="#52606d" text-anchor="end">105</text>
<line x1="56" y1="168.45" x2="904" y2="168.45" stroke="#f0b429" stroke-dasharray="5 5" />
<text x="912.00" y="172.45" font-size="10" font-family="Arial" fill="#8d2b0b" text-anchor="start">30.0</text>
<line x1="56" y1="109.55" x2="904" y2="109.55" stroke="#f0b429" stroke-dasharray="5 5" />
<text x="912.00" y="113.55" font-size="10" font-family="Arial" fill="#8d2b0b" text-anchor="start">70.0</text>
<polyline fill="none" stroke="#1f77b4" stroke-width="2" points="101.84,96.81 105.11,96.02 108.39,104.43 111.66,102.22 114.93,99.52 118.21,100.99 121.48,99.60 124.76,98.06 128.03,92.55 131.31,97.43 134.58,96.34 137.85,105.53 141.13,108.74 144.40,114.81 147.68,123.23 150.95,138.40 154.22,125.41 157.50,127.76 160.77,122.35 164.05,120.89 167.32,116.37 170.59,120.06 173.87,111.52 177.14,108.42 180.42,111.89 183.69,111.89 186.97,111.51 190.24,118.88 193.51,120.89 196.79,126.49 200.06,112.03 203.34,121.11 206.61,119.04 209.88,118.67 213.16,115.42 216.43,123.58 219.71,132.93 222.98,129.25 226.25,122.71 229.53,121.86 232.80,117.21 236.08,116.40 239.35,114.56 242.63,107.08 245.90,110.45 249.17,106.43 252.45,107.08 255.72,109.83 259.00,106.17 262.27,105.13 265.54,102.13 268.82,109.89 272.09,118.39 275.37,127.78 278.64,121.95 281.92,118.21 285.19,115.34 288.46,110.84 291.74,109.63 295.01,107.40 298.29,104.53 301.56,116.66 304.83,111.77 308.11,120.93 311.38,150.66 314.66,135.82 317.93,136.28 321.20,131.55 324.48,134.26 327.75,131.50 331.03,123.50 334.30,126.45 337.58,131.28 340.85,125.75 344.12,120.90 347.40,114.18 350.67,113.73 353.95,115.56 357.22,126.82 360.49,125.32 363.77,124.27 367.04,138.79 370.32,133.61 373.59,142.39 376.86,140.03 380.14,127.90 383.41,125.83 386.69,123.96 389.96,139.69 393.24,140.00 396.51,149.06 399.78,154.33 403.06,153.26 406.33,162.86 409.61,152.55 412.88,142.36 416.15,135.51 419.43,130.00 422.70,126.94 425.98,131.10 429.25,129.79 432.53,126.85 435.80,125.73 439.07,124.25 442.35,127.69 445.62,128.99 448.90,121.98 452.17,119.87 455.44,131.08 458.72,131.08 461.99,135.44 465.27,144.77 468.54,137.17 471.81,129.68 475.09,124.90 478.36,121.33 481.64,119.50 484.91,118.75 488.19,123.41 491.46,123.71 494.73,132.36 498.01,125.26 501.28,118.30 504.56,114.03 507.83,119.79 511.10,119.22 514.38,114.06 517.65,110.84 520.93,116.52 524.20,117.58 527.47,115.61 530.75,115.61 534.02,139.57 537.30,128.30 540.57,123.73 543.85,122.17 547.12,118.67 550.39,112.73 553.67,115.15 556.94,115.96 560.22,127.93 563.49,123.64 566.76,128.43 570.04,132.56 573.31,145.54 576.59,126.73 579.86,121.21 583.14,121.86 586.41,119.99 589.68,134.13 592.96,132.07 596.23,132.41 599.51,128.28 602.78,130.77 606.05,123.64 609.33,133.19 612.60,127.40 615.88,121.46 619.15,125.26 622.42,129.36 625.70,135.55 628.97,151.55 632.25,144.17 635.52,151.93 638.80,158.35 642.07,150.59 645.34,150.68 648.62,151.49 651.89,161.48 655.17,164.95 658.44,152.74 661.71,149.74 664.99,158.11 668.26,159.05 671.54,168.00 674.81,155.29 678.08,157.55 681.36,150.97 684.63,159.71 687.91,164.60 691.18,165.70 694.46,146.45 697.73,141.25 701.00,142.38 704.28,139.60 707.55,139.36 710.83,123.86 714.10,122.78 717.37,122.69 720.65,118.35 723.92,113.67 727.20,112.27 730.47,111.80 733.75,106.51 737.02,108.75 740.29,118.93 743.57,114.86 746.84,120.22 750.12,116.44 753.39,116.56 756.66,121.80 759.94,124.91 763.21,116.68 766.49,115.88 769.76,121.48 773.03,115.90 776.31,107.40 779.58,115.42 782.86,111.31 786.13,110.93 789.41,116.93 792.68,113.61 795.95,111.71 799.23,126.43 802.50,125.71 805.78,131.57 809.05,123.73 812.32,121.65 815.60,120.34 818.87,114.18 822.15,115.60 825.42,113.20 828.69,112.35 831.97,110.68 835.24,108.13 838.52,118.77 841.79,116.41 845.07,143.49 848.34,139.78 851.61,140.61 854.89,150.65 858.16,134.54 861.44,132.04 864.71,123.90 867.98,127.27 871.26,134.22 874.53,127.91 877.81,128.37 881.08,141.72 884.36,141.98 887.63,139.50 890.90,143.20 894.18,135.26 897.45,130.97 900.73,134.78 904.00,134.57" />
<text x="808.00" y="76.00" font-size="13" font-family="Arial" fill="#1f77b4" text-anchor="start">RSI14</text>
<line x1="56" y1="432" x2="904" y2="432" stroke="#cbd2d9" />
<line x1="56" y1="272" x2="56" y2="432" stroke="#cbd2d9" />
<text x="16.00" y="264.00" font-size="12" font-family="Arial" fill="#52606d" text-anchor="start">MACD</text>
<line x1="56" y1="432.00" x2="904" y2="432.00" stroke="#edf2f7" />
<line x1="52" y1="432.00" x2="56" y2="432.00" stroke="#9fb3c8" />
<text x="48.00" y="436.00" font-size="11" font-family="Arial" fill="#52606d" text-anchor="end">-2.72</text>
<line x1="56" y1="378.67" x2="904" y2="378.67" stroke="#edf2f7" />
<line x1="52" y1="378.67" x2="56" y2="378.67" stroke="#9fb3c8" />
<text x="48.00" y="382.67" font-size="11" font-family="Arial" fill="#52606d" text-anchor="end">-0.79</text>
<line x1="56" y1="325.33" x2="904" y2="325.33" stroke="#edf2f7" />
<line x1="52" y1="325.33" x2="56" y2="325.33" stroke="#9fb3c8" />
<text x="48.00" y="329.33" font-size="11" font-family="Arial" fill="#52606d" text-anchor="end">1.14</text>
<line x1="56" y1="272.00" x2="904" y2="272.00" stroke="#edf2f7" />
<line x1="52" y1="272.00" x2="56" y2="272.00" stroke="#9fb3c8" />
<text x="48.00" y="276.00" font-size="11" font-family="Arial" fill="#52606d" text-anchor="end">3.07</text>
<line x1="56" y1="356.88" x2="904" y2="356.88" stroke="#9fb3c8" stroke-dasharray="4 4" />
<rect x="136.71" y="356.88" width="2.28" height="0.00" fill="#2f9e44" opacity="0.55" />
<rect x="139.99" y="356.88" width="2.28" height="1.43" fill="#d64545" opacity="0.55" />
<rect x="143.26" y="356.88" width="2.28" height="3.41" fill="#d64545" opacity="0.55" />
<rect x="146.53" y="356.88" width="2.28" height="6.01" fill="#d64545" opacity="0.55" />
<rect x="149.81" y="356.88" width="2.28" height="10.30" fill="#d64545" opacity="0.55" />
<rect x="153.08" y="356.88" width="2.28" height="9.64" fill="#d64545" opacity="0.55" />
<rect x="156.36" y="356.88" width="2.28" height="9.47" fill="#d64545" opacity="0.55" />
<rect x="159.63" y="356.88" width="2.28" height="7.65" fill="#d64545" opacity="0.55" />
<rect x="162.90" y="356.88" width="2.28" height="5.95" fill="#d64545" opacity="0.55" />
<rect x="166.18" y="356.88" width="2.28" height="3.48" fill="#d64545" opacity="0.55" />
<rect x="169.45" y="356.88" width="2.28" height="2.58" fill="#d64545" opacity="0.55" />
<rect x="172.73" y="356.27" width="2.28" height="0.61" fill="#2f9e44" opacity="0.55" />
<rect x="176.00" y="353.36" width="2.28" height="3.52" fill="#2f9e44" opacity="0.55" />
<rect x="179.28" y="352.52" width="2.28" height="4.37" fill="#2f9e44" opacity="0.55" />
<rect x="182.55" y="352.46" width="2.28" height="4.42" fill="#2f9e44" opacity="0.55" />
<rect x="185.82" y="352.78" width="2.28" height="4.10" fill="#2f9e44" opacity="0.55" />
<rect x="189.10" y="354.52" width="2.28" height="2.36" fill="#2f9e44" opacity="0.55" />
<rect x="192.37" y="356.30" width="2.28" height="0.58" fill="#2f9e44" opacity="0.55" />
<rect x="195.65" y="356.88" width="2.28" height="1.67" fill="#d64545" opacity="0.55" />
<rect x="198.92" y="356.22" width="2.28" height="0.66" fill="#2f9e44" opacity="0.55" />
<rect x="202.19" y="356.58" width="2.28" height="0.30" fill="#2f9e44" opacity="0.55" />
<rect x="205.47" y="356.49" width="2.28" height="0.39" fill="#2f9e44" opacity="0.55" />
<rect x="208.74" y="356.62" width="2.28" height="0.26" fill="#2f9e44" opacity="0.55" />
<rect x="212.02" y="356.06" width="2.28" height="0.82" fill="#2f9e44" opacity="0.55" />
<rect x="215.29" y="356.88" width="2.28" height="0.43" fill="#d64545" opacity="0.55" />
<rect x="218.57" y="356.88" width="2.28" height="3.12" fill="#d64545" opacity="0.55" />
<rect x="221.84" y="356.88" width="2.28" height="4.06" fill="#d64545" opacity="0.55" />
<rect x="225.11" y="356.88" width="2.28" height="3.05" fill="#d64545" opacity="0.55" />
<rect x="228.39" y="356.88" width="2.28" height="2.27" fill="#d64545" opacity="0.55" />
<rect x="231.66" y="356.88" width="2.28" height="0.64" fill="#d64545" opacity="0.55" />
<rect x="234.94" y="356.49" width="2.28" height="0.39" fill="#2f9e44" opacity="0.55" />
<rect x="238.21" y="355.60" width="2.28" height="1.29" fill="#2f9e44" opacity="0.55" />
<rect x="241.48" y="353.03" width="2.28" height="3.86" fill="#2f9e44" opacity="0.55" />
<rect x="244.76" y="352.34" width="2.28" height="4.54" fill="#2f9e44" opacity="0.55" />
<rect x="248.03" y="351.08" width="2.28" height="5.81" fill="#2f9e44" opacity="0.55" />
<rect x="251.31" y="350.95" width="2.28" height="5.93" fill="#2f9e44" opacity="0.55" />
<rect x="254.58" y="351.82" width="2.28" height="5.06" fill="#2f9e44" opacity="0.55" />
<rect x="257.85" y="351.82" width="2.28" height="5.06" fill="#2f9e44" opacity="0.55" />
<rect x="261.13" y="352.08" width="2.28" height="4.80" fill="#2f9e44" opacity="0.55" />
<rect x="264.40" y="351.84" width="2.28" height="5.04" fill="#2f9e44" opacity="0.55" />
<rect x="267.68" y="353.19" width="2.28" height="3.69" fill="#2f9e44" opacity="0.55" />
<rect x="270.95" y="355.66" width="2.28" height="1.22" fill="#2f9e44" opacity="0.55" />
<rect x="274.23" y="356.88" width="2.28" height="2.07" fill="#d64545" opacity="0.55" />
<rect x="277.50" y="356.88" width="2.28" height="3.08" fill="#d64545" opacity="0.55" />
<rect x="280.77" y="356.88" width="2.28" height="2.99" fill="#d64545" opacity="0.55" />
<rect x="284.05" y="356.88" width="2.28" height="2.37" fill="#d64545" opacity="0.55" />
<rect x="287.32" y="356.88" width="2.28" height="0.94" fill="#d64545" opacity="0.55" />
<rect x="290.60" y="356.86" width="2.28" height="0.02" fill="#2f9e44" opacity="0.55" />
<rect x="293.87" y="355.93" width="2.28" height="0.95" fill="#2f9e44" opacity="0.55" />
<rect x="297.14" y="354.85" width="2.28" height="2.03" fill="#2f9e44" opacity="0.55" />
<rect x="300.42" y="356.10" width="2.28" height="0.78" fill="#2f9e44" opacity="0.55" />
<rect x="303.69" y="355.96" width="2.28" height="0.93" fill="#2f9e44" opacity="0.55" />
<rect x="306.97" y="356.88" width="2.28" height="0.63" fill="#d64545" opacity="0.55" />
<rect x="310.24" y="356.88" width="2.28" height="8.13" fill="#d64545" opacity="0.55" />
<rect x="313.51" y="356.88" width="2.28" height="8.96" fill="#d64545" opacity="0.55" />
<rect x="316.79" y="356.88" width="2.28" height="9.42" fill="#d64545" opacity="0.55" />
<rect x="320.06" y="356.88" width="2.28" height="8.15" fill="#d64545" opacity="0.55" />
<rect x="323.34" y="356.88" width="2.28" height="7.82" fill="#d64545" opacity="0.55" />
<rect x="326.61" y="356.88" width="2.28" height="6.69" fill="#d64545" opacity="0.55" />
<rect x="329.89" y="356.88" width="2.28" height="3.46" fill="#d64545" opacity="0.55" />
<rect x="333.16" y="356.88" width="2.28" height="2.10" fill="#d64545" opacity="0.55" />
<rect x="336.43" y="356.88" width="2.28" height="2.38" fill="#d64545" opacity="0.55" />
<rect x="339.71" y="356.88" width="2.28" height="1.05" fill="#d64545" opacity="0.55" />
<rect x="342.98" y="355.71" width="2.28" height="1.17" fill="#2f9e44" opacity="0.55" />
<rect x="346.26" y="352.14" width="2.28" height="4.74" fill="#2f9e44" opacity="0.55" />
<rect x="349.53" y="350.20" width="2.28" height="6.69" fill="#2f9e44" opacity="0.55" />
<rect x="352.80" y="349.88" width="2.28" height="7.00" fill="#2f9e44" opacity="0.55" />
<rect x="356.08" y="352.47" width="2.28" height="4.41" fill="#2f9e44" opacity="0.55" />
<rect x="359.35" y="354.14" width="2.28" height="2.75" fill="#2f9e44" opacity="0.55" />
<rect x="362.63" y="355.29" width="2.28" height="1.59" fill="#2f9e44" opacity="0.55" />
<rect x="365.90" y="356.88" width="2.28" height="2.56" fill="#d64545" opacity="0.55" />
<rect x="369.18" y="356.88" width="2.28" height="3.96" fill="#d64545" opacity="0.55" />
<rect x="372.45" y="356.88" width="2.28" height="7.05" fill="#d64545" opacity="0.55" />
<rect x="375.72" y="356.88" width="2.28" height="8.27" fill="#d64545" opacity="0.55" />
<rect x="379.00" y="356.88" width="2.28" height="5.45" fill="#d64545" opacity="0.55" />
<rect x="382.27" y="356.88" width="2.28" height="2.93" fill="#d64545" opacity="0.55" />
<rect x="385.55" y="356.88" width="2.28" height="0.80" fill="#d64545" opacity="0.55" />
<rect x="388.82" y="356.88" width="2.28" height="3.44" fill="#d64545" opacity="0.55" />
<rect x="392.09" y="356.88" width="2.28" height="5.18" fill="#d64545" opacity="0.55" />
<rect x="395.37" y="356.88" width="2.28" height="8.84" fill="#d64545" opacity="0.55" />
<rect x="398.64" y="356.88" width="2.28" height="12.61" fill="#d64545" opacity="0.55" />
<rect x="401.92" y="356.88" width="2.28" height="14.19" fill="#d64545" opacity="0.55" />
<rect x="405.19" y="356.88" width="2.28" height="18.16" fill="#d64545" opacity="0.55" />
<rect x="408.46" y="356.88" width="2.28" height="17.28" fill="#d64545" opacity="0.55" />
<rect x="411.74" y="356.88" width="2.28" height="12.96" fill="#d64545" opacity="0.55" />
<rect x="415.01" y="356.88" width="2.28" height="7.33" fill="#d64545" opacity="0.55" />
<rect x="418.29" y="356.88" width="2.28" height="1.40" fill="#d64545" opacity="0.55" />
<rect x="421.56" y="353.28" width="2.28" height="3.60" fill="#2f9e44" opacity="0.55" />
<rect x="424.84" y="351.47" width="2.28" height="5.41" fill="#2f9e44" opacity="0.55" />
<rect x="428.11" y="350.15" width="2.28" height="6.73" fill="#2f9e44" opacity="0.55" />
<rect x="431.38" y="348.66" width="2.28" height="8.22" fill="#2f9e44" opacity="0.55" />
<rect x="434.66" y="347.79" width="2.28" height="9.09" fill="#2f9e44" opacity="0.55" />
<rect x="437.93" y="347.27" width="2.28" height="9.61" fill="#2f9e44" opacity="0.55" />
<rect x="441.21" y="348.26" width="2.28" height="8.62" fill="#2f9e44" opacity="0.55" />
<rect x="444.48" y="349.68" width="2.28" height="7.20" fill="#2f9e44" opacity="0.55" />
<rect x="447.75" y="348.96" width="2.28" height="7.92" fill="#2f9e44" opacity="0.55" />
<rect x="451.03" y="348.35" width="2.28" height="8.53" fill="#2f9e44" opacity="0.55" />
<rect x="454.30" y="350.88" width="2.28" height="6.00" fill="#2f9e44" opacity="0.55" />
<rect x="457.58" y="352.93" width="2.28" height="3.95" fill="#2f9e44" opacity="0.55" />
<rect x="460.85" y="355.51" width="2.28" height="1.37" fill="#2f9e44" opacity="0.55" />
<rect x="464.12" y="356.88" width="2.28" height="2.72" fill="#d64545" opacity="0.55" />
<rect x="467.40" y="356.88" width="2.28" height="3.47" fill="#d64545" opacity="0.55" />
<rect x="470.67" y="356.88" width="2.28" height="1.83" fill="#d64545" opacity="0.55" />
<rect x="473.95" y="356.26" width="2.28" height="0.62" fill="#2f9e44" opacity="0.55" />
<rect x="477.22" y="353.73" width="2.28" height="3.16" fill="#2f9e44" opacity="0.55" />
<rect x="480.50" y="351.83" width="2.28" height="5.05" fill="#2f9e44" opacity="0.55" />
<rect x="483.77" y="350.83" width="2.28" height="6.06" fill="#2f9e44" opacity="0.55" />
<rect x="487.04" y="351.54" width="2.28" height="5.34" fill="#2f9e44" opacity="0.55" />
<rect x="490.32" y="352.51" width="2.28" height="4.37" fill="#2f9e44" opacity="0.55" />
<rect x="493.59" y="355.15" width="2.28" height="1.73" fill="#2f9e44" opacity="0.55" />
<rect x="496.87" y="355.28" width="2.28" height="1.61" fill="#2f9e44" opacity="0.55" />
<rect x="500.14" y="353.54" width="2.28" height="3.35" fill="#2f9e44" opacity="0.55" />
<rect x="503.41" y="351.36" width="2.28" height="5.52" fill="#2f9e44" opacity="0.55" />
<rect x="506.69" y="351.56" width="2.28" height="5.33" fill="#2f9e44" opacity="0.55" />
<rect x="509.96" y="352.02" width="2.28" height="4.86" fill="#2f9e44" opacity="0.55" />
<rect x="513.24" y="351.15" width="2.28" height="5.74" fill="#2f9e44" opacity="0.55" />
<rect x="516.51" y="350.02" width="2.28" height="6.86" fill="#2f9e44" opacity="0.55" />
<rect x="519.79" y="350.89" width="2.28" height="5.99" fill="#2f9e44" opacity="0.55" />
<rect x="523.06" y="352.22" width="2.28" height="4.66" fill="#2f9e44" opacity="0.55" />
<rect x="526.33" y="353.01" width="2.28" height="3.87" fill="#2f9e44" opacity="0.55" />
<rect x="529.61" y="354.02" width="2.28" height="2.86" fill="#2f9e44" opacity="0.55" />
<rect x="532.88" y="356.88" width="2.28" height="2.58" fill="#d64545" opacity="0.55" />
<rect x="536.16" y="356.88" width="2.28" height="3.24" fill="#d64545" opacity="0.55" />
<rect x="539.43" y="356.88" width="2.28" height="2.38" fill="#d64545" opacity="0.55" />
<rect x="542.70" y="356.88" width="2.28" height="1.52" fill="#d64545" opacity="0.55" />
<rect x="545.98" y="356.88" width="2.28" height="0.08" fill="#d64545" opacity="0.55" />
<rect x="549.25" y="354.22" width="2.28" height="2.67" fill="#2f9e44" opacity="0.55" />
<rect x="552.53" y="353.37" width="2.28" height="3.51" fill="#2f9e44" opacity="0.55" />
<rect x="555.80" y="353.48" width="2.28" height="3.41" fill="#2f9e44" opacity="0.55" />
<rect x="559.07" y="356.26" width="2.28" height="0.62" fill="#2f9e44" opacity="0.55" />
<rect x="562.35" y="356.88" width="2.28" height="0.24" fill="#d64545" opacity="0.55" />
<rect x="565.62" y="356.88" width="2.28" height="2.03" fill="#d64545" opacity="0.55" />
<rect x="568.90" y="356.88" width="2.28" height="4.20" fill="#d64545" opacity="0.55" />
<rect x="572.17" y="356.88" width="2.28" height="8.72" fill="#d64545" opacity="0.55" />
<rect x="575.45" y="356.88" width="2.28" height="5.96" fill="#d64545" opacity="0.55" />
<rect x="578.72" y="356.88" width="2.28" height="2.07" fill="#d64545" opacity="0.55" />
<rect x="581.99" y="356.82" width="2.28" height="0.06" fill="#2f9e44" opacity="0.55" />
<rect x="585.27" y="355.05" width="2.28" height="1.83" fill="#2f9e44" opacity="0.55" />
<rect x="588.54" y="356.88" width="2.28" height="0.96" fill="#d64545" opacity="0.55" />
<rect x="591.82" y="356.88" width="2.28" height="2.26" fill="#d64545" opacity="0.55" />
<rect x="595.09" y="356.88" width="2.28" height="3.30" fill="#d64545" opacity="0.55" />
<rect x="598.36" y="356.88" width="2.28" height="2.77" fill="#d64545" opacity="0.55" />
<rect x="601.64" y="356.88" width="2.28" height="3.12" fill="#d64545" opacity="0.55" />
<rect x="604.91" y="356.88" width="2.28" height="1.18" fill="#d64545" opacity="0.55" />
<rect x="608.19" y="356.88" width="2.28" height="2.42" fill="#d64545" opacity="0.55" />
<rect x="611.46" y="356.88" width="2.28" height="1.46" fill="#d64545" opacity="0.55" />
<rect x="614.73" y="355.77" width="2.28" height="1.11" fill="#2f9e44" opacity="0.55" />
<rect x="618.01" y="355.34" width="2.28" height="1.54" fill="#2f9e44" opacity="0.55" />
<rect x="621.28" y="356.36" width="2.28" height="0.52" fill="#2f9e44" opacity="0.55" />
<rect x="624.56" y="356.88" width="2.28" height="1.95" fill="#d64545" opacity="0.55" />
<rect x="627.83" y="356.88" width="2.28" height="8.72" fill="#d64545" opacity="0.55" />
<rect x="631.11" y="356.88" width="2.28" height="10.58" fill="#d64545" opacity="0.55" />
<rect x="634.38" y="356.88" width="2.28" height="14.34" fill="#d64545" opacity="0.55" />
<rect x="637.65" y="356.88" width="2.28" height="18.97" fill="#d64545" opacity="0.55" />
<rect x="640.93" y="356.88" width="2.28" height="18.69" fill="#d64545" opacity="0.55" />
<rect x="644.20" y="356.88" width="2.28" height="17.64" fill="#d64545" opacity="0.55" />
<rect x="647.48" y="356.88" width="2.28" height="16.40" fill="#d64545" opacity="0.55" />
<rect x="650.75" y="356.88" width="2.28" height="19.11" fill="#d64545" opacity="0.55" />
<rect x="654.02" y="356.88" width="2.28" height="21.56" fill="#d64545" opacity="0.55" />
<rect x="657.30" y="356.88" width="2.28" height="18.41" fill="#d64545" opacity="0.55" />
<rect x="660.57" y="356.88" width="2.28" height="14.40" fill="#d64545" opacity="0.55" />
<rect x="663.85" y="356.88" width="2.28" height="14.81" fill="#d64545" opacity="0.55" />
<rect x="667.12" y="356.88" width="2.28" height="14.55" fill="#d64545" opacity="0.55" />
<rect x="670.40" y="356.88" width="2.28" height="18.48" fill="#d64545" opacity="0.55" />
<rect x="673.67" y="356.88" width="2.28" height="15.68" fill="#d64545" opacity="0.55" />
<rect x="676.94" y="356.88" width="2.28" height="14.01" fill="#d64545" opacity="0.55" />
<rect x="680.22" y="356.88" width="2.28" height="9.64" fill="#d64545" opacity="0.55" />
<rect x="683.49" y="356.88" width="2.28" height="10.82" fill="#d64545" opacity="0.55" />
<rect x="686.77" y="356.88" width="2.28" height="13.79" fill="#d64545" opacity="0.55" />
<rect x="690.04" y="356.88" width="2.28" height="15.25" fill="#d64545" opacity="0.55" />
<rect x="693.31" y="356.88" width="2.28" height="7.64" fill="#d64545" opacity="0.55" />
<rect x="696.59" y="356.46" width="2.28" height="0.42" fill="#2f9e44" opacity="0.55" />
<rect x="699.86" y="351.51" width="2.28" height="5.38" fill="#2f9e44" opacity="0.55" />
<rect x="703.14" y="346.98" width="2.28" height="9.90" fill="#2f9e44" opacity="0.55" />
<rect x="706.41" y="344.11" width="2.28" height="12.77" fill="#2f9e44" opacity="0.55" />
<rect x="709.68" y="334.74" width="2.28" height="22.14" fill="#2f9e44" opacity="0.55" />
<rect x="712.96" y="329.01" width="2.28" height="27.87" fill="#2f9e44" opacity="0.55" />
<rect x="716.23" y="326.52" width="2.28" height="30.36" fill="#2f9e44" opacity="0.55" />
<rect x="719.51" y="323.82" width="2.28" height="33.06" fill="#2f9e44" opacity="0.55" />
<rect x="722.78" y="320.73" width="2.28" height="36.16" fill="#2f9e44" opacity="0.55" />
<rect x="726.06" y="319.67" width="2.28" height="37.21" fill="#2f9e44" opacity="0.55" />
<rect x="729.33" y="320.67" width="2.28" height="36.21" fill="#2f9e44" opacity="0.55" />
<rect x="732.60" y="319.68" width="2.28" height="37.20" fill="#2f9e44" opacity="0.55" />
<rect x="735.88" y="321.82" width="2.28" height="35.07" fill="#2f9e44" opacity="0.55" />
<rect x="739.15" y="328.27" width="2.28" height="28.61" fill="#2f9e44" opacity="0.55" />
<rect x="742.43" y="331.77" width="2.28" height="25.11" fill="#2f9e44" opacity="0.55" />
<rect x="745.70" y="337.33" width="2.28" height="19.55" fill="#2f9e44" opacity="0.55" />
<rect x="748.97" y="340.17" width="2.28" height="16.71" fill="#2f9e44" opacity="0.55" />
<rect x="752.25" y="343.32" width="2.28" height="13.56" fill="#2f9e44" opacity="0.55" />
<rect x="755.52" y="348.00" width="2.28" height="8.88" fill="#2f9e44" opacity="0.55" />
<rect x="758.80" y="352.83" width="2.28" height="4.06" fill="#2f9e44" opacity="0.55" />
<rect x="762.07" y="352.61" width="2.28" height="4.27" fill="#2f9e44" opacity="0.55" />
<rect x="765.34" y="352.80" width="2.28" height="4.08" fill="#2f9e44" opacity="0.55" />
<rect x="768.62" y="355.22" width="2.28" height="1.66" fill="#2f9e44" opacity="0.55" />
<rect x="771.89" y="354.63" width="2.28" height="2.25" fill="#2f9e44" opacity="0.55" />
<rect x="775.17" y="349.75" width="2.28" height="7.13" fill="#2f9e44" opacity="0.55" />
<rect x="778.44" y="349.99" width="2.28" height="6.90" fill="#2f9e44" opacity="0.55" />
<rect x="781.72" y="348.51" width="2.28" height="8.37" fill="#2f9e44" opacity="0.55" />
<rect x="784.99" y="348.37" width="2.28" height="8.51" fill="#2f9e44" opacity="0.55" />
<rect x="788.26" y="351.05" width="2.28" height="5.83" fill="#2f9e44" opacity="0.55" />
<rect x="791.54" y="351.82" width="2.28" height="5.06" fill="#2f9e44" opacity="0.55" />
<rect x="794.81" y="352.13" width="2.28" height="4.76" fill="#2f9e44" opacity="0.55" />
<rect x="798.09" y="356.88" width="2.28" height="0.73" fill="#d64545" opacity="0.55" />
<rect x="801.36" y="356.88" width="2.28" height="4.44" fill="#d64545" opacity="0.55" />
<rect x="804.63" y="356.88" width="2.28" height="9.08" fill="#d64545" opacity="0.55" />
<rect x="807.91" y="356.88" width="2.28" height="8.61" fill="#d64545" opacity="0.55" />
<rect x="811.18" y="356.88" width="2.28" height="7.45" fill="#d64545" opacity="0.55" />
<rect x="814.46" y="356.88" width="2.28" height="6.28" fill="#d64545" opacity="0.55" />
<rect x="817.73" y="356.88" width="2.28" height="2.61" fill="#d64545" opacity="0.55" />
<rect x="821.01" y="356.88" width="2.28" height="1.12" fill="#d64545" opacity="0.55" />
<rect x="824.28" y="356.32" width="2.28" height="0.56" fill="#2f9e44" opacity="0.55" />
<rect x="827.55" y="355.42" width="2.28" height="1.46" fill="#2f9e44" opacity="0.55" />
<rect x="830.83" y="354.65" width="2.28" height="2.23" fill="#2f9e44" opacity="0.55" />
<rect x="834.10" y="353.54" width="2.28" height="3.34" fill="#2f9e44" opacity="0.55" />
<rect x="837.38" y="356.06" width="2.28" height="0.82" fill="#2f9e44" opacity="0.55" />
<rect x="840.65" y="356.88" width="2.28" height="0.34" fill="#d64545" opacity="0.55" />
<rect x="843.92" y="356.88" width="2.28" height="10.17" fill="#d64545" opacity="0.55" />
<rect x="847.20" y="356.88" width="2.28" height="14.95" fill="#d64545" opacity="0.55" />
<rect x="850.47" y="356.88" width="2.28" height="18.00" fill="#d64545" opacity="0.55" />
<rect x="853.75" y="356.88" width="2.28" height="23.63" fill="#d64545" opacity="0.55" />
<rect x="857.02" y="356.88" width="2.28" height="19.86" fill="#d64545" opacity="0.55" />
<rect x="860.29" y="356.88" width="2.28" height="15.65" fill="#d64545" opacity="0.55" />
<rect x="863.57" y="356.88" width="2.28" height="8.26" fill="#d64545" opacity="0.55" />
<rect x="866.84" y="356.88" width="2.28" height="4.81" fill="#d64545" opacity="0.55" />
<rect x="870.12" y="356.88" width="2.28" height="5.48" fill="#d64545" opacity="0.55" />
<rect x="873.39" y="356.88" width="2.28" height="2.73" fill="#d64545" opacity="0.55" />
<rect x="876.67" y="356.88" width="2.28" height="1.33" fill="#d64545" opacity="0.55" />
<rect x="879.94" y="356.88" width="2.28" height="6.37" fill="#d64545" opacity="0.55" />
<rect x="883.21" y="356.88" width="2.28" height="9.60" fill="#d64545" opacity="0.55" />
<rect x="886.49" y="356.88" width="2.28" height="10.34" fill="#d64545" opacity="0.55" />
<rect x="889.76" y="356.88" width="2.28" height="12.09" fill="#d64545" opacity="0.55" />
<rect x="893.04" y="356.88" width="2.28" height="9.44" fill="#d64545" opacity="0.55" />
<rect x="896.31" y="356.88" width="2.28" height="5.49" fill="#d64545" opacity="0.55" />
<rect x="899.58" y="356.88" width="2.28" height="4.37" fill="#d64545" opacity="0.55" />
<rect x="902.86" y="356.88" width="2.28" height="3.51" fill="#d64545" opacity="0.55" />
<polyline fill="none" stroke="#1f77b4" stroke-width="2" points="137.85,317.30 141.13,319.09 144.40,321.92 147.68,326.03 150.95,332.89 154.22,334.64 157.50,336.83 160.77,336.93 164.05,336.72 167.32,335.12 170.59,334.87 173.87,331.52 177.14,327.73 180.42,325.80 183.69,324.63 186.97,323.93 190.24,325.08 193.51,326.72 196.79,329.38 200.06,326.88 203.34,327.17 206.61,326.98 209.88,327.04 213.16,326.28 216.43,327.64 219.71,331.12 222.98,333.07 226.25,332.82 229.53,332.61 232.80,331.14 236.08,330.00 239.35,328.79 242.63,325.26 245.90,323.44 249.17,320.72 252.45,319.11 255.72,318.72 259.00,317.46 262.27,316.51 265.54,315.01 268.82,315.44 272.09,317.60 275.37,321.41 278.64,323.20 281.92,323.85 285.19,323.82 288.46,322.63 291.74,321.66 295.01,320.49 298.29,318.90 301.56,319.96 304.83,319.58 308.11,321.30 311.38,330.83 314.66,333.90 317.93,336.72 321.20,337.48 324.48,339.11 327.75,339.65 331.03,337.29 334.30,336.45 337.58,337.32 340.85,336.25 344.12,333.74 347.40,328.99 350.67,325.37 353.95,323.31 357.22,324.79 360.49,325.77 363.77,326.53 367.04,331.31 370.32,333.70 373.59,338.55 376.86,341.85 380.14,340.38 383.41,338.60 386.69,336.67 389.96,340.17 393.24,343.21 396.51,349.07 399.78,356.00 403.06,361.13 406.33,369.64 409.61,373.08 412.88,372.00 416.15,368.20 419.43,362.62 422.70,356.72 425.98,353.56 429.25,350.56 432.53,347.01 435.80,343.87 439.07,340.95 442.35,339.78 445.62,339.40 448.90,336.70 452.17,333.96 455.44,334.99 458.72,336.05 461.99,338.29 465.27,343.06 468.54,344.67 471.81,343.50 475.09,340.89 478.36,337.56 481.64,334.41 484.91,331.89 488.19,331.27 491.46,331.14 494.73,333.36 498.01,333.08 501.28,330.50 504.56,326.94 507.83,325.81 511.10,325.06 514.38,322.75 517.65,319.90 520.93,319.28 524.20,319.44 527.47,319.27 530.75,319.56 534.02,325.65 537.30,327.12 540.57,326.86 543.85,326.38 547.12,324.95 550.39,321.54 553.67,319.82 556.94,319.07 560.22,321.70 563.49,322.63 566.76,324.92 570.04,328.14 573.31,334.85 576.59,333.58 579.86,330.20 583.14,328.05 586.41,325.82 589.68,328.86 592.96,330.72 596.23,332.59 599.51,332.75 602.78,333.88 606.05,332.24 609.33,334.08 612.60,333.49 615.88,330.64 619.15,329.82 622.42,330.72 625.70,333.67 628.97,342.62 632.25,347.12 635.52,354.46 638.80,363.84 642.07,368.23 645.34,371.59 648.62,374.45 651.89,381.94 655.17,389.78 658.44,391.24 661.71,390.82 664.99,394.93 668.26,398.31 671.54,406.86 674.81,407.98 678.08,409.82 681.36,407.86 684.63,411.74 687.91,418.16 691.18,423.43 694.46,417.73 697.73,409.56 701.00,403.26 704.28,396.27 707.55,390.20 710.83,375.30 714.10,362.60 717.37,352.51 720.65,341.55 723.92,329.42 727.20,319.06 730.47,311.01 733.75,300.72 737.02,294.09 740.29,293.38 743.57,290.61 746.84,291.28 750.12,289.94 753.39,289.70 756.66,292.17 759.94,295.98 763.21,294.69 766.49,293.87 769.76,295.87 773.03,294.71 776.31,288.05 779.58,286.56 782.86,282.99 786.13,280.73 789.41,281.95 792.68,281.46 795.95,280.57 799.23,286.24 802.50,291.06 805.78,297.96 809.05,299.65 812.32,300.35 815.60,300.75 818.87,297.73 822.15,296.52 825.42,294.70 828.69,293.44 831.97,292.12 835.24,290.17 838.52,292.48 841.79,293.73 845.07,306.10 848.34,314.62 851.61,322.16 854.89,333.70 858.16,334.90 861.44,334.60 864.71,329.27 867.98,327.02 871.26,329.07 874.53,326.99 877.81,325.93 881.08,332.57 884.36,338.20 887.63,341.52 890.90,346.29 894.18,346.00 897.45,343.42 900.73,343.39 904.00,343.41" />
<polyline fill="none" stroke="#ff7f0e" stroke-width="2" points="137.85,317.30 141.13,317.66 144.40,318.51 147.68,320.01 150.95,322.59 154.22,325.00 157.50,327.37 160.77,329.28 164.05,330.77 167.32,331.64 170.59,332.28 173.87,332.13 177.14,331.25 180.42,330.16 183.69,329.05 186.97,328.03 190.24,327.44 193.51,327.30 196.79,327.71 200.06,327.55 203.34,327.47 206.61,327.37 209.88,327.31 213.16,327.10 216.43,327.21 219.71,327.99 222.98,329.01 226.25,329.77 229.53,330.34 232.80,330.50 236.08,330.40 239.35,330.08 242.63,329.11 245.90,327.98 249.17,326.53 252.45,325.04 255.72,323.78 259.00,322.51 262.27,321.31 265.54,320.05 268.82,319.13 272.09,318.82 275.37,319.34 278.64,320.11 281.92,320.86 285.19,321.45 288.46,321.69 291.74,321.68 295.01,321.44 298.29,320.94 301.56,320.74 304.83,320.51 308.11,320.67 311.38,322.70 314.66,324.94 317.93,327.30 321.20,329.33 324.48,331.29 327.75,332.96 331.03,333.82 334.30,334.35 337.58,334.94 340.85,335.21 344.12,334.91 347.40,333.73 350.67,332.06 353.95,330.31 357.22,329.20 360.49,328.52 363.77,328.12 367.04,328.76 370.32,329.75 373.59,331.51 376.86,333.58 380.14,334.94 383.41,335.67 386.69,335.87 389.96,336.73 393.24,338.02 396.51,340.23 399.78,343.39 403.06,346.93 406.33,351.48 409.61,355.80 412.88,359.04 416.15,360.87 419.43,361.22 422.70,360.32 425.98,358.97 429.25,357.29 432.53,355.23 435.80,352.96 439.07,350.56 442.35,348.40 445.62,346.60 448.90,344.62 452.17,342.49 455.44,340.99 458.72,340.00 461.99,339.66 465.27,340.34 468.54,341.21 471.81,341.66 475.09,341.51 478.36,340.72 481.64,339.46 484.91,337.94 488.19,336.61 491.46,335.52 494.73,335.08 498.01,334.68 501.28,333.85 504.56,332.47 507.83,331.13 511.10,329.92 514.38,328.48 517.65,326.77 520.93,325.27 524.20,324.10 527.47,323.14 530.75,322.42 534.02,323.07 537.30,323.88 540.57,324.47 543.85,324.86 547.12,324.87 550.39,324.21 553.67,323.33 556.94,322.48 560.22,322.32 563.49,322.38 566.76,322.89 570.04,323.94 573.31,326.12 576.59,327.61 579.86,328.13 583.14,328.12 586.41,327.66 589.68,327.90 592.96,328.46 596.23,329.29 599.51,329.98 602.78,330.76 606.05,331.06 609.33,331.66 612.60,332.03 615.88,331.75 619.15,331.36 622.42,331.23 625.70,331.72 628.97,333.90 632.25,336.54 635.52,340.13 638.80,344.87 642.07,349.54 645.34,353.95 648.62,358.05 651.89,362.83 655.17,368.22 658.44,372.82 661.71,376.42 664.99,380.12 668.26,383.76 671.54,388.38 674.81,392.30 678.08,395.80 681.36,398.22 684.63,400.92 687.91,404.37 691.18,408.18 694.46,410.09 697.73,409.98 701.00,408.64 704.28,406.17 707.55,402.97 710.83,397.44 714.10,390.47 717.37,382.88 720.65,374.61 723.92,365.57 727.20,356.27 730.47,347.22 733.75,337.92 737.02,329.15 740.29,322.00 743.57,315.72 746.84,310.83 750.12,306.66 753.39,303.27 756.66,301.05 759.94,300.03 763.21,298.96 766.49,297.94 769.76,297.53 773.03,296.97 776.31,295.18 779.58,293.46 782.86,291.37 786.13,289.24 789.41,287.78 792.68,286.52 795.95,285.33 799.23,285.51 802.50,286.62 805.78,288.89 809.05,291.04 812.32,292.90 815.60,294.47 818.87,295.13 822.15,295.41 825.42,295.27 828.69,294.90 831.97,294.34 835.24,293.51 838.52,293.30 841.79,293.39 845.07,295.93 848.34,299.67 851.61,304.17 854.89,310.07 858.16,315.04 861.44,318.95 864.71,321.02 867.98,322.22 871.26,323.59 874.53,324.27 877.81,324.60 881.08,326.19 884.36,328.59 887.63,331.18 890.90,334.20 894.18,336.56 897.45,337.93 900.73,339.02 904.00,339.90" />
<text x="754.00" y="290.00" font-size="13" font-family="Arial" fill="#1f77b4" text-anchor="start">MACD</text>
<text x="818.00" y="290.00" font-size="13" font-family="Arial" fill="#ff7f0e" text-anchor="start">Signal</text>
<line x1="56" y1="624" x2="904" y2="624" stroke="#cbd2d9" />
<line x1="56" y1="484" x2="56" y2="624" stroke="#cbd2d9" />
<text x="16.00" y="476.00" font-size="12" font-family="Arial" fill="#52606d" text-anchor="start">KD</text>
<line x1="56" y1="624.00" x2="904" y2="624.00" stroke="#edf2f7" />
<line x1="52" y1="624.00" x2="56" y2="624.00" stroke="#9fb3c8" />
<text x="48.00" y="628.00" font-size="11" font-family="Arial" fill="#52606d" text-anchor="end">-5.00</text>
<line x1="56" y1="577.33" x2="904" y2="577.33" stroke="#edf2f7" />
<line x1="52" y1="577.33" x2="56" y2="577.33" stroke="#9fb3c8" />
<text x="48.00" y="581.33" font-size="11" font-family="Arial" fill="#52606d" text-anchor="end">31.7</text>
<line x1="56" y1="530.67" x2="904" y2="530.67" stroke="#edf2f7" />
<line x1="52" y1="530.67" x2="56" y2="530.67" stroke="#9fb3c8" />
<text x="48.00" y="534.67" font-size="11" font-family="Arial" fill="#52606d" text-anchor="end">68.3</text>
<line x1="56" y1="484.00" x2="904" y2="484.00" stroke="#edf2f7" />
<line x1="52" y1="484.00" x2="56" y2="484.00" stroke="#9fb3c8" />
<text x="48.00" y="488.00" font-size="11" font-family="Arial" fill="#52606d" text-anchor="end">105</text>
<line x1="56.00" y1="624" x2="56.00" y2="628" stroke="#9fb3c8" />
<text x="56.00" y="642.00" font-size="11" font-family="Arial" fill="#52606d" text-anchor="middle">06/20</text>
<line x1="226.25" y1="624" x2="226.25" y2="628" stroke="#9fb3c8" />
<text x="226.25" y="642.00" font-size="11" font-family="Arial" fill="#52606d" text-anchor="middle">09/04</text>
<line x1="396.51" y1="624" x2="396.51" y2="628" stroke="#9fb3c8" />
<text x="396.51" y="642.00" font-size="11" font-family="Arial" fill="#52606d" text-anchor="middle">11/17</text>
<line x1="563.49" y1="624" x2="563.49" y2="628" stroke="#9fb3c8" />
<text x="563.49" y="642.00" font-size="11" font-family="Arial" fill="#52606d" text-anchor="middle">02/02</text>
<line x1="733.75" y1="624" x2="733.75" y2="628" stroke="#9fb3c8" />
<text x="733.75" y="642.00" font-size="11" font-family="Arial" fill="#52606d" text-anchor="middle">04/17</text>
<line x1="904.00" y1="624" x2="904.00" y2="628" stroke="#9fb3c8" />
<text x="904.00" y="642.00" font-size="11" font-family="Arial" fill="#52606d" text-anchor="middle">07/02</text>
<line x1="56" y1="592.18" x2="904" y2="592.18" stroke="#f0b429" stroke-dasharray="5 5" />
<text x="912.00" y="596.18" font-size="10" font-family="Arial" fill="#8d2b0b" text-anchor="start">20.0</text>
<line x1="56" y1="515.82" x2="904" y2="515.82" stroke="#f0b429" stroke-dasharray="5 5" />
<text x="912.00" y="519.82" font-size="10" font-family="Arial" fill="#8d2b0b" text-anchor="start">80.0</text>
<polyline fill="none" stroke="#2ca02c" stroke-width="2" points="82.19,548.75 85.47,544.34 88.74,562.46 92.02,573.98 95.29,579.63 98.56,587.17 101.84,617.49 105.11,636.95 108.39,665.80 111.66,673.77 114.93,664.43 118.21,659.39 121.48,649.58 124.76,637.35 128.03,613.46 131.31,601.38 134.58,590.32 137.85,590.05 141.13,605.73 144.40,633.84 147.68,665.44 150.95,665.32 154.22,647.70 157.50,638.48 160.77,624.01 164.05,611.62 167.32,595.81 170.59,588.89 173.87,574.62 177.14,563.31 180.42,564.74 183.69,567.74 186.97,572.26 190.24,586.52 193.51,611.17 196.79,635.27 200.06,624.48 203.34,631.20 206.61,630.46 209.88,629.08 213.16,620.27 216.43,625.41 219.71,643.13 222.98,648.25 226.25,637.37 229.53,628.65 232.80,613.91 236.08,602.57 239.35,594.28 242.63,580.10 245.90,572.88 249.17,567.32 252.45,567.30 255.72,573.15 259.00,579.47 262.27,581.85 265.54,580.85 268.82,598.55 272.09,632.21 275.37,645.71 278.64,643.93 281.92,635.16 285.19,623.19 288.46,606.18 291.74,594.36 295.01,585.06 298.29,574.61 301.56,575.97 304.83,573.54 308.11,591.10 311.38,616.40 314.66,613.99 317.93,613.02 321.20,605.50 324.48,603.78 327.75,598.55 331.03,582.28 334.30,574.76 337.58,575.30 340.85,569.04 344.12,561.35 347.40,555.53 350.67,552.55 353.95,552.61 357.22,567.63 360.49,575.32 363.77,578.88 367.04,610.31 370.32,626.62 373.59,640.42 376.86,632.74 380.14,612.34 383.41,592.09 386.69,576.98 389.96,586.37 393.24,593.07 396.51,611.07 399.78,619.85 403.06,624.72 406.33,633.35 409.61,629.37 412.88,617.06 416.15,600.25 419.43,579.39 422.70,562.84 425.98,556.14 429.25,549.99 432.53,543.31 435.80,539.00 439.07,541.63 442.35,549.58 445.62,579.91 448.90,589.79 452.17,590.31 455.44,612.14 458.72,631.02 461.99,647.69 465.27,661.46 468.54,657.45 471.81,639.90 475.09,617.56 478.36,594.18 481.64,573.99 484.91,558.47 488.19,554.43 491.46,552.12 494.73,568.36 498.01,563.24 501.28,556.56 504.56,546.93 507.83,548.79 511.10,548.72 514.38,540.96 517.65,533.41 520.93,533.69 524.20,536.24 527.47,542.82 530.75,551.18 534.02,582.09 537.30,581.16 540.57,570.23 543.85,559.33 547.12,549.22 550.39,538.08 553.67,533.51 556.94,532.43 560.22,542.01 563.49,544.42 566.76,563.94 570.04,582.39 573.31,599.99 576.59,581.83 579.86,561.36 583.14,550.76 586.41,542.89 589.68,552.85 592.96,556.63 596.23,559.53 599.51,556.04 602.78,564.26 606.05,557.28 609.33,566.48 612.60,561.42 615.88,547.56 619.15,543.76 622.42,546.70 625.70,561.59 628.97,569.86 632.25,568.77 635.52,577.18 638.80,590.36 642.07,586.19 645.34,583.49 648.62,580.98 651.89,591.29 655.17,604.47 658.44,599.96 661.71,592.11 664.99,603.23 668.26,603.13 671.54,606.84 674.81,597.32 678.08,593.27 681.36,583.06 684.63,592.40 687.91,601.59 691.18,606.64 694.46,583.24 697.73,560.36 701.00,547.09 704.28,533.91 707.55,524.76 710.83,517.78 714.10,511.98 717.37,509.02 720.65,505.06 723.92,502.52 727.20,500.73 730.47,500.59 733.75,500.87 737.02,505.46 740.29,517.76 743.57,519.60 746.84,526.35 750.12,529.83 753.39,535.52 756.66,549.03 759.94,563.91 763.21,547.75 766.49,542.20 769.76,546.42 773.03,535.43 776.31,524.53 779.58,526.11 782.86,518.36 786.13,514.06 789.41,518.66 792.68,515.19 795.95,513.28 799.23,535.72 802.50,556.94 805.78,576.68 809.05,570.58 812.32,560.94 815.60,551.04 818.87,537.00 822.15,529.30 825.42,521.35 828.69,517.41 831.97,515.17 835.24,510.92 838.52,519.19 841.79,524.53 845.07,556.27 848.34,571.96 851.61,574.04 854.89,587.68 858.16,577.77 861.44,567.66 864.71,547.47 867.98,537.87 871.26,539.81 874.53,531.50 877.81,526.48 881.08,542.67 884.36,555.34 887.63,567.06 890.90,578.99 894.18,573.42 897.45,560.21 900.73,555.88 904.00,552.59" />
<polyline fill="none" stroke="#d62728" stroke-width="2" points="82.19,552.25 85.47,549.61 88.74,553.90 92.02,560.59 95.29,566.93 98.56,573.68 101.84,588.29 105.11,604.51 108.39,624.94 111.66,641.22 114.93,648.95 118.21,652.43 121.48,651.48 124.76,646.77 128.03,635.67 131.31,624.24 134.58,612.93 137.85,605.31 141.13,605.45 144.40,614.91 147.68,631.76 150.95,642.94 154.22,644.53 157.50,642.51 160.77,636.35 164.05,628.10 167.32,617.34 170.59,607.86 173.87,596.78 177.14,585.62 180.42,578.66 183.69,575.02 186.97,574.10 190.24,578.24 193.51,589.22 196.79,604.57 200.06,611.21 203.34,617.87 206.61,622.07 209.88,624.41 213.16,623.03 216.43,623.82 219.71,630.26 222.98,636.26 226.25,636.63 229.53,633.97 232.80,627.28 236.08,619.04 239.35,610.79 242.63,600.56 245.90,591.33 249.17,583.33 252.45,577.98 255.72,576.37 259.00,577.40 262.27,578.89 265.54,579.54 268.82,585.88 272.09,601.32 275.37,616.12 278.64,625.39 281.92,628.64 285.19,626.82 288.46,619.94 291.74,611.41 295.01,602.63 298.29,593.29 301.56,587.51 304.83,582.86 308.11,585.60 311.38,595.87 314.66,601.91 317.93,605.61 321.20,605.57 324.48,604.98 327.75,602.84 331.03,595.98 334.30,588.91 337.58,584.37 340.85,579.26 344.12,573.29 347.40,567.37 350.67,562.43 353.95,559.16 357.22,561.98 360.49,566.43 363.77,570.58 367.04,583.82 370.32,598.09 373.59,612.20 376.86,619.04 380.14,616.81 383.41,608.57 386.69,598.04 389.96,594.15 393.24,593.79 396.51,599.55 399.78,606.32 403.06,612.45 406.33,619.42 409.61,622.73 412.88,620.84 416.15,613.98 419.43,602.45 422.70,589.25 425.98,578.21 429.25,568.80 432.53,560.31 435.80,553.21 439.07,549.35 442.35,549.43 445.62,559.59 448.90,569.66 452.17,576.54 455.44,588.41 458.72,602.61 461.99,617.64 465.27,632.25 468.54,640.65 471.81,640.40 475.09,632.78 478.36,619.91 481.64,604.61 484.91,589.23 488.19,577.63 491.46,569.13 494.73,568.87 498.01,566.99 501.28,563.52 504.56,557.99 507.83,554.92 511.10,552.86 514.38,548.89 517.65,543.73 520.93,540.38 524.20,539.00 527.47,540.28 530.75,543.91 534.02,556.64 537.30,564.81 540.57,566.62 543.85,564.19 547.12,559.20 550.39,552.16 553.67,545.94 556.94,541.44 560.22,541.63 563.49,542.56 566.76,549.69 570.04,560.59 573.31,573.72 576.59,576.42 579.86,571.40 583.14,564.52 586.41,557.31 589.68,555.83 592.96,556.09 596.23,557.24 599.51,556.84 602.78,559.31 606.05,558.64 609.33,561.25 612.60,561.31 615.88,556.72 619.15,552.40 622.42,550.50 625.70,554.20 628.97,559.42 632.25,562.54 635.52,567.42 638.80,575.07 642.07,578.77 645.34,580.34 648.62,580.56 651.89,584.13 655.17,590.91 658.44,593.93 661.71,593.32 664.99,596.63 668.26,598.79 671.54,601.48 674.81,600.09 678.08,597.82 681.36,592.90 684.63,592.73 687.91,595.68 691.18,599.34 694.46,593.97 697.73,582.77 701.00,570.87 704.28,558.55 707.55,547.29 710.83,537.45 714.10,528.96 717.37,522.31 720.65,516.56 723.92,511.88 727.20,508.16 730.47,505.64 733.75,504.05 737.02,504.52 740.29,508.94 743.57,512.49 746.84,517.11 750.12,521.35 753.39,526.07 756.66,533.72 759.94,543.79 763.21,545.11 766.49,544.14 769.76,544.90 773.03,541.74 776.31,536.01 779.58,532.71 782.86,527.93 786.13,523.31 789.41,521.76 792.68,519.57 795.95,517.47 799.23,523.55 802.50,534.68 805.78,548.68 809.05,555.98 812.32,557.63 815.60,555.43 818.87,549.29 822.15,542.63 825.42,535.53 828.69,529.49 831.97,524.72 835.24,520.12 838.52,519.81 841.79,521.38 845.07,533.01 848.34,546.00 851.61,555.34 854.89,566.12 858.16,570.00 861.44,569.22 864.71,561.97 867.98,553.94 871.26,549.23 874.53,543.32 877.81,537.71 881.08,539.36 884.36,544.69 887.63,552.14 890.90,561.09 894.18,565.20 897.45,563.54 900.73,560.98 904.00,558.19" />
<text x="824.00" y="502.00" font-size="13" font-family="Arial" fill="#2ca02c" text-anchor="start">K</text>
<text x="860.00" y="502.00" font-size="13" font-family="Arial" fill="#d62728" text-anchor="start">D</text>
</svg>