<svg xmlns="http://www.w3.org/2000/svg" width="960" height="680" viewBox="0 0 960 680"><rect width="100%" height="100%" fill="white" />
<text x="56.00" y="32.00" font-size="20" font-family="Arial" fill="#1f2933" text-anchor="start">VT Technical Indicators</text>
<line x1="56" y1="220" x2="904" y2="220" stroke="#cbd2d9" />
<line x1="56" y1="58" x2="56" y2="220" stroke="#cbd2d9" />
<text x="16.00" y="50.00" font-size="12" font-family="Arial" fill="#52606d" text-anchor="start">RSI14</text>
<line x1="56" y1="220.00" x2="904" y2="220.00" stroke="#edf2f7" />
<line x1="52" y1="220.00" x2="56" y2="220.00" stroke="#9fb3c8" />
<text x="48.00" y="224.00" font-size="11" font-family="Arial" fill="#52606d" text-anchor="end">-5.00</text>
<line x1="56" y1="166.00" x2="904" y2="166.00" stroke="#edf2f7" />
<line x1="52" y1="166.00" x2="56" y2="166.00" stroke="#9fb3c8" />
<text x="48.00" y="170.00" font-size="11" font-family="Arial" fill="#52606d" text-anchor="end">31.7</text>
<line x1="56" y1="112.00" x2="904" y2="112.00" stroke="#edf2f7" />
<line x1="52" y1="112.00" x2="56" y2="112.00" stroke="#9fb3c8" />
<text x="48.00" y="116.00" font-size="11" font-family="Arial" fill="#52606d" text-anchor="end">68.3</text>
<line x1="56" y1="58.00" x2="904" y2="58.00" stroke="#edf2f7" />
<line x1="52" y1="58.00" x2="56" y2="58.00" stroke="#9fb3c8" />
<text x="48.00" y="62.00" font-size="11" font-family="Arial" fill="#52606d" text-anchor="end">105</text>
<line x1="56" y1="168.45" x2="904" y2="168.45" stroke="#f0b429" stroke-dasharray="5 5" />
<text x="912.00" y="172.45" font-size="10" font-family="Arial" fill="#8d2b0b" text-anchor="start">30.0</text>
<line x1="56" y1="109.55" x2="904" y2="109.55" stroke="#f0b429" stroke-dasharray="5 5" />
<text x="912.00" y="113.55" font-size="10" font-family="Arial" fill="#8d2b0b" text-anchor="start">70.0</text>
<polyline fill="none" stroke="#1f77b4" stroke-width="2" points="101.84,123.45 105.11,129.53 108.39,137.77 111.66,152.04 114.93,135.09 118.21,137.38 121.48,130.60 124.76,128.79 128.03,123.23 131.31,126.91 134.58,116.70 137.85,113.06 141.13,116.56 144.40,116.56 147.68,116.11 150.95,123.50 154.22,125.51 157.50,131.08 160.77,114.99 164.05,124.08 167.32,121.83 170.59,121.43 173.87,117.92 177.14,126.08 180.42,135.38 183.69,131.47 186.97,124.58 190.24,123.68 193.51,118.79 196.79,117.95 200.06,116.02 203.34,108.21 206.61,111.59 209.88,107.41 213.16,108.07 216.43,110.83 219.71,107.04 222.98,105.97 226.25,102.87 229.53,110.65 232.80,119.16 236.08,128.54 239.35,122.60 242.63,118.79 245.90,115.87 249.17,111.30 252.45,110.07 255.72,107.81 259.00,104.90 262.27,117.04 265.54,112.09 268.82,121.26 272.09,150.95 275.37,136.03 278.64,136.49 281.92,131.74 285.19,134.44 288.46,131.67 291.74,123.64 295.01,126.59 298.29,131.42 301.56,125.87 304.83,121.00 308.11,114.26 311.38,113.81 314.66,115.64 317.93,126.90 321.20,125.40 324.48,124.35 327.75,138.87 331.03,133.67 334.30,142.46 337.58,140.09 340.85,127.95 344.12,125.87 347.40,124.00 350.67,139.73 353.95,140.04 357.22,149.09 360.49,154.36 363.77,153.30 367.04,162.89 370.32,152.57 373.59,142.38 376.86,135.53 380.14,130.01 383.41,126.95 386.69,131.11 389.96,129.80 393.24,126.86 396.51,125.74 399.78,124.26 403.06,127.70 406.33,129.00 409.61,121.99 412.88,119.88 416.15,131.09 419.43,131.09 422.70,135.45 425.98,144.78 429.25,137.17 432.53,129.69 435.80,124.91 439.07,121.33 442.35,119.51 445.62,118.75 448.90,123.42 452.17,123.71 455.44,132.37 458.72,125.27 461.99,118.30 465.27,114.03 468.54,119.79 471.81,119.22 475.09,114.06 478.36,110.84 481.64,116.52 484.91,117.58 488.19,115.61 491.46,115.61 494.73,139.57 498.01,128.30 501.28,123.73 504.56,122.17 507.83,118.67 511.10,112.73 514.38,115.15 517.65,115.96 520.93,127.93 524.20,123.65 527.47,128.44 530.75,132.56 534.02,145.54 537.30,126.73 540.57,121.21 543.85,121.86 547.12,119.99 550.39,134.14 553.67,132.07 556.94,132.41 560.22,128.28 563.49,130.77 566.76,123.64 570.04,133.19 573.31,127.40 576.59,121.46 579.86,125.26 583.14,129.36 586.41,135.55 589.68,151.55 592.96,144.17 596.23,151.93 599.51,158.35 602.78,150.59 606.05,150.68 609.33,151.49 612.60,161.48 615.88,164.95 619.15,152.74 622.42,149.74 625.70,158.11 628.97,159.05 632.25,168.00 635.52,155.29 638.80,157.55 642.07,150.97 645.34,159.71 648.62,164.60 651.89,165.70 655.17,146.45 658.44,141.25 661.71,142.38 664.99,139.60 668.26,139.36 671.54,123.86 674.81,122.78 678.08,122.69 681.36,118.35 684.63,113.67 687.91,112.27 691.18,111.80 694.46,106.51 697.73,108.75 701.00,118.93 704.28,114.86 707.55,120.22 710.83,116.44 714.10,116.56 717.37,121.80 720.65,124.91 723.92,116.68 727.20,115.88 730.47,121.48 733.75,115.90 737.02,107.40 740.29,115.42 743.57,111.31 746.84,110.93 750.12,116.93 753.39,113.61 756.66,111.71 759.94,126.43 763.21,125.71 766.49,131.57 769.76,123.73 773.03,121.65 776.31,120.34 779.58,114.18 782.86,115.60 786.13,113.20 789.41,112.35 792.68,110.68 795.95,108.13 799.23,118.77 802.50,116.41 805.78,143.49 809.05,139.78 812.32,140.61 815.60,150.65 818.87,134.54 822.15,132.04 825.42,123.90 828.69,127.27 831.97,134.22 835.24,127.91 838.52,128.37 841.79,141.72 845.07,141.98 848.34,139.50 851.61,143.20 854.89,135.26 858.16,130.97 861.44,134.78 864.71,134.57 867.98,127.90 871.26,135.11 874.53,137.60 877.81,132.41 881.08,129.77 884.36,138.81 887.63,134.48 890.90,132.25 894.18,138.14 897.45,144.41 900.73,146.58 904.00,137.27" />
<text x="808.00" y="76.00" font-size="13" font-family="Arial" fill="#1f77b4" text-anchor="start">RSI14</text>
<line x1="56" y1="432" x2="904" y2="432" stroke="#cbd2d9" />
<line x1="56" y1="272" x2="56" y2="432" stroke="#cbd2d9" />
<text x="16.00" y="264.00" font-size="12" font-family="Arial" fill="#52606d" text-anchor="start">MACD</text>
<line x1="56" y1="432.00" x2="904" y2="432.00" stroke="#edf2f7" />
<line x1="52" y1="432.00" x2="56" y2="432.00" stroke="#9fb3c8" />
<text x="48.00" y="436.00" font-size="11" font-family="Arial" fill="#52606d" text-anchor="end">-2.72</text>
<line x1="56" y1="378.67" x2="904" y2="378.67" stroke="#edf2f7" />
<line x1="52" y1="378.67" x2="56" y2="378.67" stroke="#9fb3c8" />
<text x="48.00" y="382.67" font-size="11" font-family="Arial" fill="#52606d" text-anchor="end">-0.79</text>
<line x1="56" y1="325.33" x2="904" y2="325.33" stroke="#edf2f7" />
<line x1="52" y1="325.33" x2="56" y2="325.33" stroke="#9fb3c8" />
<text x="48.00" y="329.33" font-size="11" font-family="Arial" fill="#52606d" text-anchor="end">1.14</text>
<line x1="56" y1="272.00" x2="904" y2="272.00" stroke="#edf2f7" />
<line x1="52" y1="272.00" x2="56" y2="272.00" stroke="#9fb3c8" />
<text x="48.00" y="276.00" font-size="11" font-family="Arial" fill="#52606d" text-anchor="end">3.07</text>
<line x1="56" y1="356.88" x2="904" y2="356.88" stroke="#9fb3c8" stroke-dasharray="4 4" />
<rect x="136.71" y="356.88" width="2.28" height="0.00" fill="#2f9e44" opacity="0.55" />
<rect x="139.99" y="354.68" width="2.28" height="2.20" fill="#2f9e44" opacity="0.55" />
<rect x="143.26" y="353.58" width="2.28" height="3.31" fill="#2f9e44" opacity="0.55" />
<rect x="146.53" y="353.11" width="2.28" height="3.77" fill="#2f9e44" opacity="0.55" />
<rect x="149.81" y="354.25" width="2.28" height="2.63" fill="#2f9e44" opacity="0.55" />
<rect x="153.08" y="355.58" width="2.28" height="1.30" fill="#2f9e44" opacity="0.55" />
<rect x="156.36" y="356.88" width="2.28" height="0.63" fill="#d64545" opacity="0.55" />
<rect x="159.63" y="354.95" width="2.28" height="1.93" fill="#2f9e44" opacity="0.55" />
<rect x="162.90" y="355.17" width="2.28" height="1.71" fill="#2f9e44" opacity="0.55" />
<rect x="166.18" y="354.98" width="2.28" height="1.90" fill="#2f9e44" opacity="0.55" />
<rect x="169.45" y="355.06" width="2.28" height="1.82" fill="#2f9e44" opacity="0.55" />
<rect x="172.73" y="354.49" width="2.28" height="2.39" fill="#2f9e44" opacity="0.55" />
<rect x="176.00" y="355.75" width="2.28" height="1.13" fill="#2f9e44" opacity="0.55" />
<rect x="179.28" y="356.88" width="2.28" height="1.60" fill="#d64545" opacity="0.55" />
<rect x="182.55" y="356.88" width="2.28" height="2.58" fill="#d64545" opacity="0.55" />
<rect x="185.82" y="356.88" width="2.28" height="1.62" fill="#d64545" opacity="0.55" />
<rect x="189.10" y="356.88" width="2.28" height="0.90" fill="#d64545" opacity="0.55" />
<rect x="192.37" y="356.22" width="2.28" height="0.66" fill="#2f9e44" opacity="0.55" />
<rect x="195.65" y="355.25" width="2.28" height="1.63" fill="#2f9e44" opacity="0.55" />
<rect x="198.92" y="354.42" width="2.28" height="2.46" fill="#2f9e44" opacity="0.55" />
<rect x="202.19" y="351.92" width="2.28" height="4.96" fill="#2f9e44" opacity="0.55" />
<rect x="205.47" y="351.30" width="2.28" height="5.58" fill="#2f9e44" opacity="0.55" />
<rect x="208.74" y="350.10" width="2.28" height="6.78" fill="#2f9e44" opacity="0.55" />
<rect x="212.02" y="350.04" width="2.28" height="6.84" fill="#2f9e44" opacity="0.55" />
<rect x="215.29" y="350.97" width="2.28" height="5.92" fill="#2f9e44" opacity="0.55" />
<rect x="218.57" y="351.03" width="2.28" height="5.86" fill="#2f9e44" opacity="0.55" />
<rect x="221.84" y="351.33" width="2.28" height="5.55" fill="#2f9e44" opacity="0.55" />
<rect x="225.11" y="351.14" width="2.28" height="5.74" fill="#2f9e44" opacity="0.55" />
<rect x="228.39" y="352.55" width="2.28" height="4.34" fill="#2f9e44" opacity="0.55" />
<rect x="231.66" y="355.06" width="2.28" height="1.83" fill="#2f9e44" opacity="0.55" />
<rect x="234.94" y="356.88" width="2.28" height="1.51" fill="#d64545" opacity="0.55" />
<rect x="238.21" y="356.88" width="2.28" height="2.56" fill="#d64545" opacity="0.55" />
<rect x="241.48" y="356.88" width="2.28" height="2.50" fill="#d64545" opacity="0.55" />
<rect x="244.76" y="356.88" width="2.28" height="1.92" fill="#d64545" opacity="0.55" />
<rect x="248.03" y="356.88" width="2.28" height="0.53" fill="#d64545" opacity="0.55" />
<rect x="251.31" y="356.47" width="2.28" height="0.41" fill="#2f9e44" opacity="0.55" />
<rect x="254.58" y="355.57" width="2.28" height="1.31" fill="#2f9e44" opacity="0.55" />
<rect x="257.85" y="354.52" width="2.28" height="2.37" fill="#2f9e44" opacity="0.55" />
<rect x="261.13" y="355.79" width="2.28" height="1.09" fill="#2f9e44" opacity="0.55" />
<rect x="264.40" y="355.67" width="2.28" height="1.21" fill="#2f9e44" opacity="0.55" />
<rect x="267.68" y="356.88" width="2.28" height="0.36" fill="#d64545" opacity="0.55" />
<rect x="270.95" y="356.88" width="2.28" height="7.88" fill="#d64545" opacity="0.55" />
<rect x="274.23" y="356.88" width="2.28" height="8.73" fill="#d64545" opacity="0.55" />
<rect x="277.50" y="356.88" width="2.28" height="9.21" fill="#d64545" opacity="0.55" />
<rect x="280.77" y="356.88" width="2.28" height="7.95" fill="#d64545" opacity="0.55" />
<rect x="284.05" y="356.88" width="2.28" height="7.64" fill="#d64545" opacity="0.55" />
<rect x="287.32" y="356.88" width="2.28" height="6.52" fill="#d64545" opacity="0.55" />
<rect x="290.60" y="356.88" width="2.28" height="3.31" fill="#d64545" opacity="0.55" />
<rect x="293.87" y="356.88" width="2.28" height="1.95" fill="#d64545" opacity="0.55" />
<rect x="297.14" y="356.88" width="2.28" height="2.25" fill="#d64545" opacity="0.55" />
<rect x="300.42" y="356.88" width="2.28" height="0.92" fill="#d64545" opacity="0.55" />
<rect x="303.69" y="355.59" width="2.28" height="1.29" fill="#2f9e44" opacity="0.55" />
<rect x="306.97" y="352.04" width="2.28" height="4.84" fill="#2f9e44" opacity="0.55" />
<rect x="310.24" y="350.10" width="2.28" height="6.79" fill="#2f9e44" opacity="0.55" />
<rect x="313.51" y="349.79" width="2.28" height="7.09" fill="#2f9e44" opacity="0.55" />
<rect x="316.79" y="352.38" width="2.28" height="4.50" fill="#2f9e44" opacity="0.55" />
<rect x="320.06" y="354.06" width="2.28" height="2.82" fill="#2f9e44" opacity="0.55" />
<rect x="323.34" y="355.22" width="2.28" height="1.66" fill="#2f9e44" opacity="0.55" />
<rect x="326.61" y="356.88" width="2.28" height="2.49" fill="#d64545" opacity="0.55" />
<rect x="329.89" y="356.88" width="2.28" height="3.89" fill="#d64545" opacity="0.55" />
<rect x="333.16" y="356.88" width="2.28" height="6.99" fill="#d64545" opacity="0.55" />
<rect x="336.43" y="356.88" width="2.28" height="8.22" fill="#d64545" opacity="0.55" />
<rect x="339.71" y="356.88" width="2.28" height="5.40" fill="#d64545" opacity="0.55" />
<rect x="342.98" y="356.88" width="2.28" height="2.88" fill="#d64545" opacity="0.55" />
<rect x="346.26" y="356.88" width="2.28" height="0.76" fill="#d64545" opacity="0.55" />
<rect x="349.53" y="356.88" width="2.28" height="3.40" fill="#d64545" opacity="0.55" />
<rect x="352.80" y="356.88" width="2.28" height="5.15" fill="#d64545" opacity="0.55" />
<rect x="356.08" y="356.88" width="2.28" height="8.81" fill="#d64545" opacity="0.55" />
<rect x="359.35" y="356.88" width="2.28" height="12.58" fill="#d64545" opacity="0.55" />
<rect x="362.63" y="356.88" width="2.28" height="14.16" fill="#d64545" opacity="0.55" />
<rect x="365.90" y="356.88" width="2.28" height="18.14" fill="#d64545" opacity="0.55" />
<rect x="369.18" y="356.88" width="2.28" height="17.26" fill="#d64545" opacity="0.55" />
<rect x="372.45" y="356.88" width="2.28" height="12.94" fill="#d64545" opacity="0.55" />
<rect x="375.72" y="356.88" width="2.28" height="7.31" fill="#d64545" opacity="0.55" />
<rect x="379.00" y="356.88" width="2.28" height="1.38" fill="#d64545" opacity="0.55" />
<rect x="382.27" y="353.27" width="2.28" height="3.62" fill="#2f9e44" opacity="0.55" />
<rect x="385.55" y="351.46" width="2.28" height="5.42" fill="#2f9e44" opacity="0.55" />
<rect x="388.82" y="350.14" width="2.28" height="6.75" fill="#2f9e44" opacity="0.55" />
<rect x="392.09" y="348.65" width="2.28" height="8.23" fill="#2f9e44" opacity="0.55" />
<rect x="395.37" y="347.78" width="2.28" height="9.10" fill="#2f9e44" opacity="0.55" />
<rect x="398.64" y="347.26" width="2.28" height="9.62" fill="#2f9e44" opacity="0.55" />
<rect x="401.92" y="348.25" width="2.28" height="8.64" fill="#2f9e44" opacity="0.55" />
<rect x="405.19" y="349.67" width="2.28" height="7.21" fill="#2f9e44" opacity="0.55" />
<rect x="408.46" y="348.95" width="2.28" height="7.93" fill="#2f9e44" opacity="0.55" />
<rect x="411.74" y="348.35" width="2.28" height="8.54" fill="#2f9e44" opacity="0.55" />
<rect x="415.01" y="350.88" width="2.28" height="6.01" fill="#2f9e44" opacity="0.55" />
<rect x="418.29" y="352.92" width="2.28" height="3.96" fill="#2f9e44" opacity="0.55" />
<rect x="421.56" y="355.50" width="2.28" height="1.38" fill="#2f9e44" opacity="0.55" />
<rect x="424.84" y="356.88" width="2.28" height="2.71" fill="#d64545" opacity="0.55" />
<rect x="428.11" y="356.88" width="2.28" height="3.46" fill="#d64545" opacity="0.55" />
<rect x="431.38" y="356.88" width="2.28" height="1.83" fill="#d64545" opacity="0.55" />
<rect x="434.66" y="356.26" width="2.28" height="0.62" fill="#2f9e44" opacity="0.55" />
<rect x="437.93" y="353.72" width="2.28" height="3.16" fill="#2f9e44" opacity="0.55" />
<rect x="441.21" y="351.83" width="2.28" height="5.05" fill="#2f9e44" opacity="0.55" />
<rect x="444.48" y="350.82" width="2.28" height="6.06" fill="#2f9e44" opacity="0.55" />
<rect x="447.75" y="351.54" width="2.28" height="5.34" fill="#2f9e44" opacity="0.55" />
<rect x="451.03" y="352.51" width="2.28" height="4.38" fill="#2f9e44" opacity="0.55" />
<rect x="454.30" y="355.15" width="2.28" height="1.73" fill="#2f9e44" opacity="0.55" />
<rect x="457.58" y="355.27" width="2.28" height="1.61" fill="#2f9e44" opacity="0.55" />
<rect x="460.85" y="353.53" width="2.28" height="3.35" fill="#2f9e44" opacity="0.55" />
<rect x="464.12" y="351.35" width="2.28" height="5.53" fill="#2f9e44" opacity="0.55" />
<rect x="467.40" y="351.55" width="2.28" height="5.33" fill="#2f9e44" opacity="0.55" />
<rect x="470.67" y="352.02" width="2.28" height="4.86" fill="#2f9e44" opacity="0.55" />
<rect x="473.95" y="351.14" width="2.28" height="5.74" fill="#2f9e44" opacity="0.55" />
<rect x="477.22" y="350.02" width="2.28" height="6.87" fill="#2f9e44" opacity="0.55" />
<rect x="480.50" y="350.89" width="2.28" height="5.99" fill="#2f9e44" opacity="0.55" />
<rect x="483.77" y="352.22" width="2.28" height="4.67" fill="#2f9e44" opacity="0.55" />
<rect x="487.04" y="353.01" width="2.28" height="3.87" fill="#2f9e44" opacity="0.55" />
<rect x="490.32" y="354.02" width="2.28" height="2.86" fill="#2f9e44" opacity="0.55" />
<rect x="493.59" y="356.88" width="2.28" height="2.58" fill="#d64545" opacity="0.55" />
<rect x="496.87" y="356.88" width="2.28" height="3.24" fill="#d64545" opacity="0.55" />
<rect x="500.14" y="356.88" width="2.28" height="2.38" fill="#d64545" opacity="0.55" />
<rect x="503.41" y="356.88" width="2.28" height="1.52" fill="#d64545" opacity="0.55" />
<rect x="506.69" y="356.88" width="2.28" height="0.07" fill="#d64545" opacity="0.55" />
<rect x="509.96" y="354.22" width="2.28" height="2.67" fill="#2f9e44" opacity="0.55" />
<rect x="513.24" y="353.37" width="2.28" height="3.51" fill="#2f9e44" opacity="0.55" />
<rect x="516.51" y="353.48" width="2.28" height="3.41" fill="#2f9e44" opacity="0.55" />
<rect x="519.79" y="356.26" width="2.28" height="0.62" fill="#2f9e44" opacity="0.55" />
<rect x="523.06" y="356.88" width="2.28" height="0.24" fill="#d64545" opacity="0.55" />
<rect x="526.33" y="356.88" width="2.28" height="2.03" fill="#d64545" opacity="0.55" />
<rect x="529.61" y="356.88" width="2.28" height="4.20" fill="#d64545" opacity="0.55" />
<rect x="532.88" y="356.88" width="2.28" height="8.72" fill="#d64545" opacity="0.55" />
<rect x="536.16" y="356.88" width="2.28" height="5.96" fill="#d64545" opacity="0.55" />
<rect x="539.43" y="356.88" width="2.28" height="2.07" fill="#d64545" opacity="0.55" />
<rect x="542.70" y="356.82" width="2.28" height="0.06" fill="#2f9e44" opacity="0.55" />
<rect x="545.98" y="355.05" width="2.28" height="1.83" fill="#2f9e44" opacity="0.55" />
<rect x="549.25" y="356.88" width="2.28" height="0.96" fill="#d64545" opacity="0.55" />
<rect x="552.53" y="356.88" width="2.28" height="2.26" fill="#d64545" opacity="0.55" />
<rect x="555.80" y="356.88" width="2.28" height="3.30" fill="#d64545" opacity="0.55" />
<rect x="559.07" y="356.88" width="2.28" height="2.77" fill="#d64545" opacity="0.55" />
<rect x="562.35" y="356.88" width="2.28" height="3.12" fill="#d64545" opacity="0.55" />
<rect x="565.62" y="356.88" width="2.28" height="1.18" fill="#d64545" opacity="0.55" />
<rect x="568.90" y="356.88" width="2.28" height="2.42" fill="#d64545" opacity="0.55" />
<rect x="572.17" y="356.88" width="2.28" height="1.46" fill="#d64545" opacity="0.55" />
<rect x="575.45" y="355.77" width="2.28" height="1.11" fill="#2f9e44" opacity="0.55" />
<rect x="578.72" y="355.34" width="2.28" height="1.54" fill="#2f9e44" opacity="0.55" />
<rect x="581.99" y="356.36" width="2.28" height="0.52" fill="#2f9e44" opacity="0.55" />
<rect x="585.27" y="356.88" width="2.28" height="1.95" fill="#d64545" opacity="0.55" />
<rect x="588.54" y="356.88" width="2.28" height="8.72" fill="#d64545" opacity="0.55" />
<rect x="591.82" y="356.88" width="2.28" height="10.58" fill="#d64545" opacity="0.55" />
<rect x="595.09" y="356.88" width="2.28" height="14.34" fill="#d64545" opacity="0.55" />
<rect x="598.36" y="356.88" width="2.28" height="18.97" fill="#d64545" opacity="0.55" />
<rect x="601.64" y="356.88" width="2.28" height="18.69" fill="#d64545" opacity="0.55" />
<rect x="604.91" y="356.88" width="2.28" height="17.64" fill="#d64545" opacity="0.55" />
<rect x="608.19" y="356.88" width="2.28" height="16.40" fill="#d64545" opacity="0.55" />
<rect x="611.46" y="356.88" width="2.28" height="19.11" fill="#d64545" opacity="0.55" />
<rect x="614.73" y="356.88" width="2.28" height="21.56" fill="#d64545" opacity="0.55" />
<rect x="618.01" y="356.88" width="2.28" height="18.41" fill="#d64545" opacity="0.55" />
<rect x="621.28" y="356.88" width="2.28" height="14.40" fill="#d64545" opacity="0.55" />
<rect x="624.56" y="356.88" width="2.28" height="14.81" fill="#d64545" opacity="0.55" />
<rect x="627.83" y="356.88" width="2.28" height="14.55" fill="#d64545" opacity="0.55" />
<rect x="631.11" y="356.88" width="2.28" height="18.48" fill="#d64545" opacity="0.55" />
<rect x="634.38" y="356.88" width="2.28" height="15.68" fill="#d64545" opacity="0.55" />
<rect x="637.65" y="356.88" width="2.28" height="14.01" fill="#d64545" opacity="0.55" />
<rect x="640.93" y="356.88" width="2.28" height="9.64" fill="#d64545" opacity="0.55" />
<rect x="644.20" y="356.88" width="2.28" height="10.82" fill="#d64545" opacity="0.55" />
<rect x="647.48" y="356.88" width="2.28" height="13.79" fill="#d64545" opacity="0.55" />
<rect x="650.75" y="356.88" width="2.28" height="15.25" fill="#d64545" opacity="0.55" />
<rect x="654.02" y="356.88" width="2.28" height="7.64" fill="#d64545" opacity="0.55" />
<rect x="657.30" y="356.46" width="2.28" height="0.42" fill="#2f9e44" opacity="0.55" />
<rect x="660.57" y="351.51" width="2.28" height="5.38" fill="#2f9e44" opacity="0.55" />
<rect x="663.85" y="346.98" width="2.28" height="9.90" fill="#2f9e44" opacity="0.55" />
<rect x="667.12" y="344.11" width="2.28" height="12.77" fill="#2f9e44" opacity="0.55" />
<rect x="670.40" y="334.74" width="2.28" height="22.14" fill="#2f9e44" opacity="0.55" />
<rect x="673.67" y="329.01" width="2.28" height="27.87" fill="#2f9e44" opacity="0.55" />
<rect x="676.94" y="326.52" width="2.28" height="30.36" fill="#2f9e44" opacity="0.55" />
<rect x="680.22" y="323.82" width="2.28" height="33.06" fill="#2f9e44" opacity="0.55" />
<rect x="683.49" y="320.73" width="2.28" height="36.16" fill="#2f9e44" opacity="0.55" />
<rect x="686.77" y="319.67" width="2.28" height="37.21" fill="#2f9e44" opacity="0.55" />
<rect x="690.04" y="320.67" width="2.28" height="36.21" fill="#2f9e44" opacity="0.55" />
<rect x="693.31" y="319.68" width="2.28" height="37.20" fill="#2f9e44" opacity="0.55" />
<rect x="696.59" y="321.82" width="2.28" height="35.07" fill="#2f9e44" opacity="0.55" />
<rect x="699.86" y="328.27" width="2.28" height="28.61" fill="#2f9e44" opacity="0.55" />
<rect x="703.14" y="331.77" width="2.28" height="25.11" fill="#2f9e44" opacity="0.55" />
<rect x="706.41" y="337.33" width="2.28" height="19.55" fill="#2f9e44" opacity="0.55" />
<rect x="709.68" y="340.17" width="2.28" height="16.71" fill="#2f9e44" opacity="0.55" />
<rect x="712.96" y="343.32" width="2.28" height="13.56" fill="#2f9e44" opacity="0.55" />
<rect x="716.23" y="348.00" width="2.28" height="8.88" fill="#2f9e44" opacity="0.55" />
<rect x="719.51" y="352.83" width="2.28" height="4.06" fill="#2f9e44" opacity="0.55" />
<rect x="722.78" y="352.61" width="2.28" height="4.27" fill="#2f9e44" opacity="0.55" />
<rect x="726.06" y="352.80" width="2.28" height="4.08" fill="#2f9e44" opacity="0.55" />
<rect x="729.33" y="355.22" width="2.28" height="1.66" fill="#2f9e44" opacity="0.55" />
<rect x="732.60" y="354.63" width="2.28" height="2.25" fill="#2f9e44" opacity="0.55" />
<rect x="735.88" y="349.75" width="2.28" height="7.13" fill="#2f9e44" opacity="0.55" />
<rect x="739.15" y="349.99" width="2.28" height="6.90" fill="#2f9e44" opacity="0.55" />
<rect x="742.43" y="348.51" width="2.28" height="8.37" fill="#2f9e44" opacity="0.55" />
<rect x="745.70" y="348.37" width="2.28" height="8.51" fill="#2f9e44" opacity="0.55" />
<rect x="748.97" y="351.05" width="2.28" height="5.83" fill="#2f9e44" opacity="0.55" />
<rect x="752.25" y="351.82" width="2.28" height="5.06" fill="#2f9e44" opacity="0.55" />
<rect x="755.52" y="352.13" width="2.28" height="4.76" fill="#2f9e44" opacity="0.55" />
<rect x="758.80" y="356.88" width="2.28" height="0.73" fill="#d64545" opacity="0.55" />
<rect x="762.07" y="356.88" width="2.28" height="4.44" fill="#d64545" opacity="0.55" />
<rect x="765.34" y="356.88" width="2.28" height="9.08" fill="#d64545" opacity="0.55" />
<rect x="768.62" y="356.88" width="2.28" height="8.61" fill="#d64545" opacity="0.55" />
<rect x="771.89" y="356.88" width="2.28" height="7.45" fill="#d64545" opacity="0.55" />
<rect x="775.17" y="356.88" width="2.28" height="6.28" fill="#d64545" opacity="0.55" />
<rect x="778.44" y="356.88" width="2.28" height="2.61" fill="#d64545" opacity="0.55" />
<rect x="781.72" y="356.88" width="2.28" height="1.12" fill="#d64545" opacity="0.55" />
<rect x="784.99" y="356.32" width="2.28" height="0.56" fill="#2f9e44" opacity="0.55" />
<rect x="788.26" y="355.42" width="2.28" height="1.46" fill="#2f9e44" opacity="0.55" />
<rect x="791.54" y="354.65" width="2.28" height="2.23" fill="#2f9e44" opacity="0.55" />
<rect x="794.81" y="353.54" width="2.28" height="3.34" fill="#2f9e44" opacity="0.55" />
<rect x="798.09" y="356.06" width="2.28" height="0.82" fill="#2f9e44" opacity="0.55" />
<rect x="801.36" y="356.88" width="2.28" height="0.34" fill="#d64545" opacity="0.55" />
<rect x="804.63" y="356.88" width="2.28" height="10.17" fill="#d64545" opacity="0.55" />
<rect x="807.91" y="356.88" width="2.28" height="14.95" fill="#d64545" opacity="0.55" />
<rect x="811.18" y="356.88" width="2.28" height="18.00" fill="#d64545" opacity="0.55" />
<rect x="814.46" y="356.88" width="2.28" height="23.63" fill="#d64545" opacity="0.55" />
<rect x="817.73" y="356.88" width="2.28" height="19.86" fill="#d64545" opacity="0.55" />
<rect x="821.01" y="356.88" width="2.28" height="15.65" fill="#d64545" opacity="0.55" />
<rect x="824.28" y="356.88" width="2.28" height="8.26" fill="#d64545" opacity="0.55" />
<rect x="827.55" y="356.88" width="2.28" height="4.81" fill="#d64545" opacity="0.55" />
<rect x="830.83" y="356.88" width="2.28" height="5.48" fill="#d64545" opacity="0.55" />
<rect x="834.10" y="356.88" width="2.28" height="2.73" fill="#d64545" opacity="0.55" />
<rect x="837.38" y="356.88" width="2.28" height="1.33" fill="#d64545" opacity="0.55" />
<rect x="840.65" y="356.88" width="2.28" height="6.37" fill="#d64545" opacity="0.55" />
<rect x="843.92" y="356.88" width="2.28" height="9.60" fill="#d64545" opacity="0.55" />
<rect x="847.20" y="356.88" width="2.28" height="10.34" fill="#d64545" opacity="0.55" />
<rect x="850.47" y="356.88" width="2.28" height="12.09" fill="#d64545" opacity="0.55" />
<rect x="853.75" y="356.88" width="2.28" height="9.44" fill="#d64545" opacity="0.55" />
<rect x="857.02" y="356.88" width="2.28" height="5.49" fill="#d64545" opacity="0.55" />
<rect x="860.29" y="356.88" width="2.28" height="4.37" fill="#d64545" opacity="0.55" />
<rect x="863.57" y="356.88" width="2.28" height="3.51" fill="#d64545" opacity="0.55" />
<rect x="866.84" y="356.88" width="2.28" height="0.05" fill="#d64545" opacity="0.55" />
<rect x="870.12" y="356.88" width="2.28" height="0.62" fill="#d64545" opacity="0.55" />
<rect x="873.39" y="356.88" width="2.28" height="2.04" fill="#d64545" opacity="0.55" />
<rect x="876.67" y="356.88" width="2.28" height="0.87" fill="#d64545" opacity="0.55" />
<rect x="879.94" y="356.01" width="2.28" height="0.87" fill="#2f9e44" opacity="0.55" />
<rect x="883.21" y="356.88" width="2.28" height="1.44" fill="#d64545" opacity="0.55" />
<rect x="886.49" y="356.88" width="2.28" height="1.25" fill="#d64545" opacity="0.55" />
<rect x="889.76" y="356.88" width="2.28" height="0.31" fill="#d64545" opacity="0.55" />
<rect x="893.04" y="356.88" width="2.28" height="1.89" fill="#d64545" opacity="0.55" />
<rect x="896.31" y="356.88" width="2.28" height="5.30" fill="#d64545" opacity="0.55" />
<rect x="899.58" y="356.88" width="2.28" height="8.15" fill="#d64545" opacity="0.55" />
<rect x="902.86" y="356.88" width="2.28" height="6.35" fill="#d64545" opacity="0.55" />
<polyline fill="none" stroke="#1f77b4" stroke-width="2" points="137.85,339.49 141.13,336.73 144.40,334.80 147.68,333.39 150.95,333.88 154.22,334.89 157.50,336.97 160.77,333.93 164.05,333.72 167.32,333.06 170.59,332.68 173.87,331.51 177.14,332.49 180.42,335.61 183.69,337.24 186.97,336.68 190.24,336.19 193.51,334.47 196.79,333.09 200.06,331.65 203.34,327.90 206.61,325.89 209.88,322.99 213.16,321.22 216.43,320.67 219.71,319.26 222.98,318.18 226.25,316.56 229.53,316.88 232.80,318.93 236.08,322.65 239.35,324.34 242.63,324.91 245.90,324.80 249.17,323.54 252.45,322.50 255.72,321.27 259.00,319.62 262.27,320.63 265.54,320.20 268.82,321.87 272.09,331.36 275.37,334.39 278.64,337.17 281.92,337.90 285.19,339.49 288.46,340.01 291.74,337.62 295.01,336.75 298.29,337.61 301.56,336.52 304.83,333.99 308.11,329.22 311.38,325.58 314.66,323.50 317.93,324.97 321.20,325.94 324.48,326.68 327.75,331.46 331.03,333.83 334.30,338.68 337.58,341.96 340.85,340.49 344.12,338.69 347.40,336.76 350.67,340.25 353.95,343.29 357.22,349.15 360.49,356.06 363.77,361.19 367.04,369.70 370.32,373.13 373.59,372.05 376.86,368.25 380.14,362.66 383.41,356.76 386.69,353.60 389.96,350.59 393.24,347.04 396.51,343.90 399.78,340.98 403.06,339.80 406.33,339.42 409.61,336.72 412.88,333.98 416.15,335.01 419.43,336.07 422.70,338.30 425.98,343.07 429.25,344.68 432.53,343.51 435.80,340.90 439.07,337.57 442.35,334.42 445.62,331.90 448.90,331.28 452.17,331.15 455.44,333.36 458.72,333.08 461.99,330.51 465.27,326.95 468.54,325.81 471.81,325.06 475.09,322.75 478.36,319.91 481.64,319.28 484.91,319.44 488.19,319.27 491.46,319.57 494.73,325.66 498.01,327.12 501.28,326.86 504.56,326.38 507.83,324.95 511.10,321.54 514.38,319.82 517.65,319.08 520.93,321.70 524.20,322.63 527.47,324.93 530.75,328.14 534.02,334.85 537.30,333.58 540.57,330.20 543.85,328.05 547.12,325.83 550.39,328.86 553.67,330.72 556.94,332.59 560.22,332.75 563.49,333.88 566.76,332.24 570.04,334.08 573.31,333.49 576.59,330.64 579.86,329.82 583.14,330.72 586.41,333.67 589.68,342.62 592.96,347.12 596.23,354.46 599.51,363.84 602.78,368.23 606.05,371.59 609.33,374.45 612.60,381.94 615.88,389.78 619.15,391.24 622.42,390.82 625.70,394.93 628.97,398.31 632.25,406.86 635.52,407.98 638.80,409.82 642.07,407.86 645.34,411.74 648.62,418.16 651.89,423.43 655.17,417.73 658.44,409.56 661.71,403.26 664.99,396.27 668.26,390.20 671.54,375.30 674.81,362.60 678.08,352.51 681.36,341.55 684.63,329.42 687.91,319.06 691.18,311.01 694.46,300.72 697.73,294.09 701.00,293.38 704.28,290.61 707.55,291.28 710.83,289.94 714.10,289.70 717.37,292.17 720.65,295.98 723.92,294.69 727.20,293.87 730.47,295.87 733.75,294.71 737.02,288.05 740.29,286.56 743.57,282.99 746.84,280.73 750.12,281.95 753.39,281.46 756.66,280.57 759.94,286.24 763.21,291.06 766.49,297.96 769.76,299.65 773.03,300.35 776.31,300.75 779.58,297.73 782.86,296.52 786.13,294.70 789.41,293.44 792.68,292.12 795.95,290.17 799.23,292.48 802.50,293.73 805.78,306.10 809.05,314.62 812.32,322.16 815.60,333.70 818.87,334.90 822.15,334.60 825.42,329.27 828.69,327.02 831.97,329.07 835.24,326.99 838.52,325.93 841.79,332.57 845.07,338.20 848.34,341.52 851.61,346.29 854.89,346.00 858.16,343.42 861.44,343.39 864.71,343.41 867.98,339.96 871.26,340.69 874.53,342.62 877.81,341.67 881.08,339.71 884.36,342.38 887.63,342.50 890.90,341.63 894.18,343.69 897.45,348.42 900.73,353.30 904.00,353.10" />
<polyline fill="none" stroke="#ff7f0e" stroke-width="2" points="137.85,339.49 141.13,338.94 144.40,338.11 147.68,337.17 150.95,336.51 154.22,336.18 157.50,336.34 160.77,335.86 164.05,335.43 167.32,334.95 170.59,334.50 173.87,333.90 177.14,333.62 180.42,334.02 183.69,334.66 186.97,335.07 190.24,335.29 193.51,335.13 196.79,334.72 200.06,334.10 203.34,332.86 206.61,331.47 209.88,329.77 213.16,328.06 216.43,326.58 219.71,325.12 222.98,323.73 226.25,322.30 229.53,321.21 232.80,320.76 236.08,321.14 239.35,321.78 242.63,322.40 245.90,322.88 249.17,323.01 252.45,322.91 255.72,322.58 259.00,321.99 262.27,321.72 265.54,321.42 268.82,321.51 272.09,323.48 275.37,325.66 278.64,327.96 281.92,329.95 285.19,331.86 288.46,333.49 291.74,334.31 295.01,334.80 298.29,335.36 301.56,335.60 304.83,335.27 308.11,334.06 311.38,332.37 314.66,330.59 317.93,329.47 321.20,328.76 324.48,328.35 327.75,328.97 331.03,329.94 334.30,331.69 337.58,333.74 340.85,335.09 344.12,335.81 347.40,336.00 350.67,336.85 353.95,338.14 357.22,340.34 360.49,343.48 363.77,347.03 367.04,351.56 370.32,355.87 373.59,359.11 376.86,360.94 380.14,361.28 383.41,360.38 386.69,359.02 389.96,357.33 393.24,355.28 396.51,353.00 399.78,350.60 403.06,348.44 406.33,346.64 409.61,344.65 412.88,342.52 416.15,341.02 419.43,340.03 422.70,339.68 425.98,340.36 429.25,341.22 432.53,341.68 435.80,341.53 439.07,340.74 442.35,339.47 445.62,337.96 448.90,336.62 452.17,335.53 455.44,335.10 458.72,334.69 461.99,333.86 465.27,332.47 468.54,331.14 471.81,329.93 475.09,328.49 478.36,326.77 481.64,325.28 484.91,324.11 488.19,323.14 491.46,322.43 494.73,323.07 498.01,323.88 501.28,324.48 504.56,324.86 507.83,324.88 511.10,324.21 514.38,323.33 517.65,322.48 520.93,322.33 524.20,322.39 527.47,322.89 530.75,323.94 534.02,326.12 537.30,327.62 540.57,328.13 543.85,328.12 547.12,327.66 550.39,327.90 553.67,328.46 556.94,329.29 560.22,329.98 563.49,330.76 566.76,331.06 570.04,331.66 573.31,332.03 576.59,331.75 579.86,331.36 583.14,331.23 586.41,331.72 589.68,333.90 592.96,336.54 596.23,340.13 599.51,344.87 602.78,349.54 606.05,353.95 609.33,358.05 612.60,362.83 615.88,368.22 619.15,372.82 622.42,376.42 625.70,380.12 628.97,383.76 632.25,388.38 635.52,392.30 638.80,395.80 642.07,398.22 645.34,400.92 648.62,404.37 651.89,408.18 655.17,410.09 658.44,409.98 661.71,408.64 664.99,406.17 668.26,402.97 671.54,397.44 674.81,390.47 678.08,382.88 681.36,374.61 684.63,365.57 687.91,356.27 691.18,347.22 694.46,337.92 697.73,329.15 701.00,322.00 704.28,315.72 707.55,310.83 710.83,306.66 714.10,303.27 717.37,301.05 720.65,300.03 723.92,298.96 727.20,297.94 730.47,297.53 733.75,296.97 737.02,295.18 740.29,293.46 743.57,291.37 746.84,289.24 750.12,287.78 753.39,286.52 756.66,285.33 759.94,285.51 763.21,286.62 766.49,288.89 769.76,291.04 773.03,292.90 776.31,294.47 779.58,295.13 782.86,295.41 786.13,295.26 789.41,294.90 792.68,294.34 795.95,293.51 799.23,293.30 802.50,293.39 805.78,295.93 809.05,299.67 812.32,304.17 815.60,310.07 818.87,315.04 822.15,318.95 825.42,321.02 828.69,322.22 831.97,323.59 835.24,324.27 838.52,324.60 841.79,326.19 845.07,328.59 848.34,331.18 851.61,334.20 854.89,336.56 858.16,337.93 861.44,339.02 864.71,339.90 867.98,339.91 871.26,340.07 874.53,340.58 877.81,340.80 881.08,340.58 884.36,340.94 887.63,341.25 890.90,341.33 894.18,341.80 897.45,343.12 900.73,345.16 904.00,346.75" />
<text x="754.00" y="290.00" font-size="13" font-family="Arial" fill="#1f77b4" text-anchor="start">MACD</text>
<text x="818.00" y="290.00" font-size="13" font-family="Arial" fill="#ff7f0e" text-anchor="start">Signal</text>
<line x1="56" y1="624" x2="904" y2="624" stroke="#cbd2d9" />
<line x1="56" y1="484" x2="56" y2="624" stroke="#cbd2d9" />
<text x="16.00" y="476.00" font-size="12" font-family="Arial" fill="#52606d" text-anchor="start">KD</text>
<line x1="56" y1="624.00" x2="904" y2="624.00" stroke="#edf2f7" />
<line x1="52" y1="624.00" x2="56" y2="624.00" stroke="#9fb3c8" />
<text x="48.00" y="628.00" font-size="11" font-family="Arial" fill="#52606d" text-anchor="end">-5.00</text>
<line x1="56" y1="577.33" x2="904" y2="577.33" stroke="#edf2f7" />
<line x1="52" y1="577.33" x2="56" y2="577.33" stroke="#9fb3c8" />
<text x="48.00" y="581.33" font-size="11" font-family="Arial" fill="#52606d" text-anchor="end">31.7</text>
<line x1="56" y1="530.67" x2="904" y2="530.67" stroke="#edf2f7" />
<line x1="52" y1="530.67" x2="56" y2="530.67" stroke="#9fb3c8" />
<text x="48.00" y="534.67" font-size="11" font-family="Arial" fill="#52606d" text-anchor="end">68.3</text>
<line x1="56" y1="484.00" x2="904" y2="484.00" stroke="#edf2f7" />
<line x1="52" y1="484.00" x2="56" y2="484.00" stroke="#9fb3c8" />
<text x="48.00" y="488.00" font-size="11" font-family="Arial" fill="#52606d" text-anchor="end">105</text>
<line x1="56.00" y1="624" x2="56.00" y2="628" stroke="#9fb3c8" />
<text x="56.00" y="642.00" font-size="11" font-family="Arial" fill="#52606d" text-anchor="middle">07/09</text>
<line x1="226.25" y1="624" x2="226.25" y2="628" stroke="#9fb3c8" />
<text x="226.25" y="642.00" font-size="11" font-family="Arial" fill="#52606d" text-anchor="middle">09/22</text>
<line x1="396.51" y1="624" x2="396.51" y2="628" stroke="#9fb3c8" />
<text x="396.51" y="642.00" font-size="11" font-family="Arial" fill="#52606d" text-anchor="middle">12/04</text>
<line x1="563.49" y1="624" x2="563.49" y2="628" stroke="#9fb3c8" />
<text x="563.49" y="642.00" font-size="11" font-family="Arial" fill="#52606d" text-anchor="middle">02/19</text>
<line x1="733.75" y1="624" x2="733.75" y2="628" stroke="#9fb3c8" />
<text x="733.75" y="642.00" font-size="11" font-family="Arial" fill="#52606d" text-anchor="middle">05/05</text>
<line x1="904.00" y1="624" x2="904.00" y2="628" stroke="#9fb3c8" />
<text x="904.00" y="642.00" font-size="11" font-family="Arial" fill="#52606d" text-anchor="middle">07/21</text>
<line x1="56" y1="592.18" x2="904" y2="592.18" stroke="#f0b429" stroke-dasharray="5 5" />
<text x="912.00" y="596.18" font-size="10" font-family="Arial" fill="#8d2b0b" text-anchor="start">20.0</text>
<line x1="56" y1="515.82" x2="904" y2="515.82" stroke="#f0b429" stroke-dasharray="5 5" />
<text x="912.00" y="519.82" font-size="10" font-family="Arial" fill="#8d2b0b" text-anchor="start">80.0</text>
<polyline fill="none" stroke="#2ca02c" stroke-width="2" points="82.19,579.32 85.47,590.51 88.74,582.23 92.02,580.56 95.29,576.44 98.56,580.80 101.84,599.56 105.11,629.73 108.39,662.70 111.66,663.49 114.93,646.48 118.21,637.67 121.48,623.47 124.76,611.26 128.03,595.57 131.31,588.73 134.58,574.52 137.85,563.24 141.13,564.69 144.40,567.71 147.68,572.23 150.95,586.51 154.22,611.16 157.50,635.26 160.77,624.48 164.05,631.20 167.32,630.46 170.59,629.08 173.87,620.27 177.14,625.41 180.42,643.13 183.69,648.25 186.97,637.37 190.24,628.65 193.51,613.91 196.79,602.57 200.06,594.28 203.34,580.10 206.61,572.88 209.88,567.32 213.16,567.30 216.43,573.15 219.71,579.47 222.98,581.85 226.25,580.85 229.53,598.55 232.80,632.21 236.08,645.71 239.35,643.93 242.63,635.16 245.90,623.19 249.17,606.18 252.45,594.36 255.72,585.06 259.00,574.61 262.27,575.97 265.54,573.54 268.82,591.10 272.09,616.40 275.37,613.99 278.64,613.02 281.92,605.50 285.19,603.78 288.46,598.55 291.74,582.28 295.01,574.76 298.29,575.30 301.56,569.04 304.83,561.35 308.11,555.53 311.38,552.55 314.66,552.61 317.93,567.63 321.20,575.32 324.48,578.88 327.75,610.31 331.03,626.62 334.30,640.42 337.58,632.74 340.85,612.34 344.12,592.09 347.40,576.98 350.67,586.37 353.95,593.07 357.22,611.07 360.49,619.85 363.77,624.72 367.04,633.35 370.32,629.37 373.59,617.06 376.86,600.25 380.14,579.39 383.41,562.84 386.69,556.14 389.96,549.99 393.24,543.31 396.51,539.00 399.78,541.63 403.06,549.58 406.33,579.91 409.61,589.79 412.88,590.31 416.15,612.14 419.43,631.02 422.70,647.69 425.98,661.46 429.25,657.45 432.53,639.90 435.80,617.56 439.07,594.18 442.35,573.99 445.62,558.47 448.90,554.43 452.17,552.12 455.44,568.36 458.72,563.24 461.99,556.56 465.27,546.93 468.54,548.79 471.81,548.72 475.09,540.96 478.36,533.41 481.64,533.69 484.91,536.24 488.19,542.82 491.46,551.18 494.73,582.09 498.01,581.16 501.28,570.23 504.56,559.33 507.83,549.22 511.10,538.08 514.38,533.51 517.65,532.43 520.93,542.01 524.20,544.42 527.47,563.94 530.75,582.39 534.02,599.99 537.30,581.83 540.57,561.36 543.85,550.77 547.12,542.89 550.39,552.85 553.67,556.63 556.94,559.53 560.22,556.04 563.49,564.26 566.76,557.28 570.04,566.48 573.31,561.42 576.59,547.56 579.86,543.76 583.14,546.70 586.41,561.59 589.68,569.86 592.96,568.77 596.23,577.18 599.51,590.36 602.78,586.19 606.05,583.49 609.33,580.98 612.60,591.29 615.88,604.47 619.15,599.96 622.42,592.11 625.70,603.23 628.97,603.13 632.25,606.84 635.52,597.32 638.80,593.27 642.07,583.06 645.34,592.40 648.62,601.59 651.89,606.64 655.17,583.24 658.44,560.36 661.71,547.09 664.99,533.91 668.26,524.76 671.54,517.78 674.81,511.98 678.08,509.02 681.36,505.06 684.63,502.52 687.91,500.73 691.18,500.59 694.46,500.87 697.73,505.46 701.00,517.76 704.28,519.60 707.55,526.35 710.83,529.83 714.10,535.52 717.37,549.03 720.65,563.91 723.92,547.75 727.20,542.20 730.47,546.42 733.75,535.43 737.02,524.53 740.29,526.11 743.57,518.36 746.84,514.06 750.12,518.66 753.39,515.19 756.66,513.28 759.94,535.72 763.21,556.94 766.49,576.68 769.76,570.58 773.03,560.94 776.31,551.04 779.58,537.00 782.86,529.30 786.13,521.35 789.41,517.41 792.68,515.17 795.95,510.92 799.23,519.19 802.50,524.53 805.78,556.27 809.05,571.96 812.32,574.04 815.60,587.68 818.87,577.77 822.15,567.66 825.42,547.47 828.69,537.87 831.97,539.81 835.24,531.50 838.52,526.48 841.79,542.67 845.07,555.34 848.34,567.06 851.61,578.99 854.89,573.42 858.16,560.21 861.44,555.88 864.71,552.59 867.98,533.89 871.26,534.47 874.53,539.56 877.81,532.39 881.08,522.56 884.36,536.86 887.63,535.50 890.90,528.87 894.18,537.47 897.45,554.03 900.73,570.42 904.00,561.12" />
<polyline fill="none" stroke="#d62728" stroke-width="2" points="82.19,562.44 85.47,571.80 88.74,575.27 92.02,577.04 95.29,576.84 98.56,578.16 101.84,585.29 105.11,600.10 108.39,620.97 111.66,635.14 114.93,638.92 118.21,638.51 121.48,633.49 124.76,626.08 128.03,615.91 131.31,606.85 134.58,596.07 137.85,585.13 141.13,578.32 144.40,574.78 147.68,573.93 150.95,578.12 154.22,589.14 157.50,604.51 160.77,611.17 164.05,617.84 167.32,622.05 170.59,624.39 173.87,623.02 177.14,623.82 180.42,630.25 183.69,636.25 186.97,636.63 190.24,633.97 193.51,627.28 196.79,619.04 200.06,610.79 203.34,600.56 206.61,591.33 209.88,583.33 213.16,577.98 216.43,576.37 219.71,577.40 222.98,578.89 226.25,579.54 229.53,585.88 232.80,601.32 236.08,616.12 239.35,625.39 242.63,628.64 245.90,626.82 249.17,619.94 252.45,611.41 255.72,602.63 259.00,593.29 262.27,587.51 265.54,582.86 268.82,585.60 272.09,595.87 275.37,601.91 278.64,605.61 281.92,605.57 285.19,604.98 288.46,602.84 291.74,595.98 295.01,588.91 298.29,584.37 301.56,579.26 304.83,573.29 308.11,567.37 311.38,562.43 314.66,559.16 317.93,561.98 321.20,566.43 324.48,570.58 327.75,583.82 331.03,598.09 334.30,612.20 337.58,619.04 340.85,616.81 344.12,608.57 347.40,598.04 350.67,594.15 353.95,593.79 357.22,599.55 360.49,606.32 363.77,612.45 367.04,619.42 370.32,622.73 373.59,620.84 376.86,613.98 380.14,602.45 383.41,589.25 386.69,578.21 389.96,568.80 393.24,560.31 396.51,553.21 399.78,549.35 403.06,549.43 406.33,559.59 409.61,569.66 412.88,576.54 416.15,588.41 419.43,602.61 422.70,617.64 425.98,632.25 429.25,640.65 432.53,640.40 435.80,632.78 439.07,619.91 442.35,604.61 445.62,589.23 448.90,577.63 452.17,569.13 455.44,568.87 458.72,566.99 461.99,563.52 465.27,557.99 468.54,554.92 471.81,552.86 475.09,548.89 478.36,543.73 481.64,540.38 484.91,539.00 488.19,540.28 491.46,543.91 494.73,556.64 498.01,564.81 501.28,566.62 504.56,564.19 507.83,559.20 511.10,552.16 514.38,545.94 517.65,541.44 520.93,541.63 524.20,542.56 527.47,549.69 530.75,560.59 534.02,573.72 537.30,576.42 540.57,571.40 543.85,564.52 547.12,557.31 550.39,555.83 553.67,556.09 556.94,557.24 560.22,556.84 563.49,559.31 566.76,558.64 570.04,561.25 573.31,561.31 576.59,556.72 579.86,552.40 583.14,550.50 586.41,554.20 589.68,559.42 592.96,562.54 596.23,567.42 599.51,575.07 602.78,578.77 606.05,580.34 609.33,580.56 612.60,584.13 615.88,590.91 619.15,593.93 622.42,593.32 625.70,596.63 628.97,598.79 632.25,601.48 635.52,600.09 638.80,597.82 642.07,592.90 645.34,592.73 648.62,595.68 651.89,599.34 655.17,593.97 658.44,582.77 661.71,570.87 664.99,558.55 668.26,547.29 671.54,537.45 674.81,528.96 678.08,522.31 681.36,516.56 684.63,511.88 687.91,508.16 691.18,505.64 694.46,504.05 697.73,504.52 701.00,508.94 704.28,512.49 707.55,517.11 710.83,521.35 714.10,526.07 717.37,533.72 720.65,543.79 723.92,545.11 727.20,544.14 730.47,544.90 733.75,541.74 737.02,536.01 740.29,532.71 743.57,527.93 746.84,523.31 750.12,521.76 753.39,519.57 756.66,517.47 759.94,523.55 763.21,534.68 766.49,548.68 769.76,555.98 773.03,557.63 776.31,555.43 779.58,549.29 782.86,542.63 786.13,535.53 789.41,529.49 792.68,524.72 795.95,520.12 799.23,519.81 802.50,521.38 805.78,533.01 809.05,546.00 812.32,555.34 815.60,566.12 818.87,570.00 822.15,569.22 825.42,561.97 828.69,553.94 831.97,549.23 835.24,543.32 838.52,537.71 841.79,539.36 845.07,544.69 848.34,552.14 851.61,561.09 854.89,565.20 858.16,563.54 861.44,560.98 864.71,558.19 867.98,550.09 871.26,544.88 874.53,543.11 877.81,539.53 881.08,533.88 884.36,534.87 887.63,535.08 890.90,533.01 894.18,534.50 897.45,541.01 900.73,550.81 904.00,554.25" />
<text x="824.00" y="502.00" font-size="13" font-family="Arial" fill="#2ca02c" text-anchor="start">K</text>
<text x="860.00" y="502.00" font-size="13" font-family="Arial" fill="#d62728" text-anchor="start">D</text>
</svg>