<svg xmlns="http://www.w3.org/2000/svg" width="960" height="680" viewBox="0 0 960 680"><rect width="100%" height="100%" fill="white" />
<text x="56.00" y="32.00" font-size="20" font-family="Arial" fill="#1f2933" text-anchor="start">世芯-KY(3661) Technical Indicators</text>
<line x1="56" y1="220" x2="904" y2="220" stroke="#cbd2d9" />
<line x1="56" y1="58" x2="56" y2="220" stroke="#cbd2d9" />
<text x="16.00" y="50.00" font-size="12" font-family="Arial" fill="#52606d" text-anchor="start">RSI14</text>
<line x1="56" y1="220.00" x2="904" y2="220.00" stroke="#edf2f7" />
<line x1="52" y1="220.00" x2="56" y2="220.00" stroke="#9fb3c8" />
<text x="48.00" y="224.00" font-size="11" font-family="Arial" fill="#52606d" text-anchor="end">-5.00</text>
<line x1="56" y1="166.00" x2="904" y2="166.00" stroke="#edf2f7" />
<line x1="52" y1="166.00" x2="56" y2="166.00" stroke="#9fb3c8" />
<text x="48.00" y="170.00" font-size="11" font-family="Arial" fill="#52606d" text-anchor="end">31.7</text>
<line x1="56" y1="112.00" x2="904" y2="112.00" stroke="#edf2f7" />
<line x1="52" y1="112.00" x2="56" y2="112.00" stroke="#9fb3c8" />
<text x="48.00" y="116.00" font-size="11" font-family="Arial" fill="#52606d" text-anchor="end">68.3</text>
<line x1="56" y1="58.00" x2="904" y2="58.00" stroke="#edf2f7" />
<line x1="52" y1="58.00" x2="56" y2="58.00" stroke="#9fb3c8" />
<text x="48.00" y="62.00" font-size="11" font-family="Arial" fill="#52606d" text-anchor="end">105</text>
<line x1="56" y1="168.45" x2="904" y2="168.45" stroke="#f0b429" stroke-dasharray="5 5" />
<text x="912.00" y="172.45" font-size="10" font-family="Arial" fill="#8d2b0b" text-anchor="start">30.0</text>
<line x1="56" y1="109.55" x2="904" y2="109.55" stroke="#f0b429" stroke-dasharray="5 5" />
<text x="912.00" y="113.55" font-size="10" font-family="Arial" fill="#8d2b0b" text-anchor="start">70.0</text>
<polyline fill="none" stroke="#1f77b4" stroke-width="2" points="101.84,108.19 105.11,109.89 108.39,109.12 111.66,107.56 114.93,108.23 118.21,100.93 121.48,97.22 124.76,101.17 128.03,115.48 131.31,112.24 134.58,102.36 137.85,97.46 141.13,93.00 144.40,106.59 147.68,111.54 150.95,107.81 154.22,103.11 157.50,110.42 160.77,110.83 164.05,116.19 167.32,121.37 170.59,115.37 173.87,125.10 177.14,125.46 180.42,128.46 183.69,125.40 186.97,121.42 190.24,117.91 193.51,110.71 196.79,108.96 200.06,104.28 203.34,102.46 206.61,109.53 209.88,125.22 213.16,146.17 216.43,139.77 219.71,144.21 222.98,134.43 226.25,130.81 229.53,126.73 232.80,131.11 236.08,128.72 239.35,136.32 242.63,138.07 245.90,131.46 249.17,138.45 252.45,132.69 255.72,132.45 259.00,135.95 262.27,134.59 265.54,135.55 268.82,143.73 272.09,147.32 275.37,149.76 278.64,144.12 281.92,146.50 285.19,144.29 288.46,143.52 291.74,147.60 295.01,162.88 298.29,164.56 301.56,168.37 304.83,153.33 308.11,156.58 311.38,161.33 314.66,159.38 317.93,148.46 321.20,149.25 324.48,144.35 327.75,152.23 331.03,164.42 334.30,164.05 337.58,162.90 340.85,163.31 344.12,151.68 347.40,143.67 350.67,150.64 353.95,153.95 357.22,157.78 360.49,157.78 363.77,144.71 367.04,138.39 370.32,130.90 373.59,133.70 376.86,134.02 380.14,140.67 383.41,123.91 386.69,130.20 389.96,123.82 393.24,128.57 396.51,135.00 399.78,134.75 403.06,135.63 406.33,130.32 409.61,148.98 412.88,145.19 416.15,155.03 419.43,158.00 422.70,158.71 425.98,159.45 429.25,149.50 432.53,140.18 435.80,139.17 439.07,139.96 442.35,133.16 445.62,144.92 448.90,145.85 452.17,146.58 455.44,148.34 458.72,139.78 461.99,133.80 465.27,138.19 468.54,142.40 471.81,145.15 475.09,152.93 478.36,141.63 481.64,143.19 484.91,140.52 488.19,139.90 491.46,140.22 494.73,142.85 498.01,140.29 501.28,128.95 504.56,123.79 507.83,122.47 511.10,116.30 514.38,115.60 517.65,111.70 520.93,116.88 524.20,124.00 527.47,126.58 530.75,122.96 534.02,120.34 537.30,137.86 540.57,146.64 543.85,145.20 547.12,138.56 550.39,141.25 553.67,150.66 556.94,148.01 560.22,137.35 563.49,131.98 566.76,137.98 570.04,141.76 573.31,147.68 576.59,155.16 579.86,154.02 583.14,141.54 586.41,137.59 589.68,145.65 592.96,152.15 596.23,141.72 599.51,140.86 602.78,136.26 606.05,139.27 609.33,133.49 612.60,130.73 615.88,130.17 619.15,133.83 622.42,139.76 625.70,153.08 628.97,143.29 632.25,140.87 635.52,155.83 638.80,151.83 642.07,136.01 645.34,138.41 648.62,144.18 651.89,147.03 655.17,143.52 658.44,137.85 661.71,141.87 664.99,134.15 668.26,143.16 671.54,146.69 674.81,144.52 678.08,148.43 681.36,149.58 684.63,161.08 687.91,168.93 691.18,155.30 694.46,156.12 697.73,156.12 701.00,147.68 704.28,145.86 707.55,139.32 710.83,136.22 714.10,131.19 717.37,130.74 720.65,119.99 723.92,118.56 727.20,114.75 730.47,104.80 733.75,102.99 737.02,108.47 740.29,102.88 743.57,106.35 746.84,115.94 750.12,115.78 753.39,111.85 756.66,108.63 759.94,114.96 763.21,104.35 766.49,99.94 769.76,98.28 773.03,91.41 776.31,94.96 779.58,118.99 782.86,117.90 786.13,126.40 789.41,126.95 792.68,132.82 795.95,127.92 799.23,120.22 802.50,120.62 805.78,120.49 809.05,131.10 812.32,136.21 815.60,142.92 818.87,138.92 822.15,126.02 825.42,135.31 828.69,134.74 831.97,142.61 835.24,144.22 838.52,147.57 841.79,144.66 845.07,150.85 848.34,150.06 851.61,148.20 854.89,142.34 858.16,139.80 861.44,139.59 864.71,137.07 867.98,139.52 871.26,137.24 874.53,139.43 877.81,144.18 881.08,157.96 884.36,151.97 887.63,142.81 890.90,132.26 894.18,119.23 897.45,128.90 900.73,142.73 904.00,147.53" />
<text x="808.00" y="76.00" font-size="13" font-family="Arial" fill="#1f77b4" text-anchor="start">RSI14</text>
<line x1="56" y1="432" x2="904" y2="432" stroke="#cbd2d9" />
<line x1="56" y1="272" x2="56" y2="432" stroke="#cbd2d9" />
<text x="16.00" y="264.00" font-size="12" font-family="Arial" fill="#52606d" text-anchor="start">MACD</text>
<line x1="56" y1="432.00" x2="904" y2="432.00" stroke="#edf2f7" />
<line x1="52" y1="432.00" x2="56" y2="432.00" stroke="#9fb3c8" />
<text x="48.00" y="436.00" font-size="11" font-family="Arial" fill="#52606d" text-anchor="end">-204</text>
<line x1="56" y1="378.67" x2="904" y2="378.67" stroke="#edf2f7" />
<line x1="52" y1="378.67" x2="56" y2="378.67" stroke="#9fb3c8" />
<text x="48.00" y="382.67" font-size="11" font-family="Arial" fill="#52606d" text-anchor="end">35.8</text>
<line x1="56" y1="325.33" x2="904" y2="325.33" stroke="#edf2f7" />
<line x1="52" y1="325.33" x2="56" y2="325.33" stroke="#9fb3c8" />
<text x="48.00" y="329.33" font-size="11" font-family="Arial" fill="#52606d" text-anchor="end">276</text>
<line x1="56" y1="272.00" x2="904" y2="272.00" stroke="#edf2f7" />
<line x1="52" y1="272.00" x2="56" y2="272.00" stroke="#9fb3c8" />
<text x="48.00" y="276.00" font-size="11" font-family="Arial" fill="#52606d" text-anchor="end">516</text>
<line x1="56" y1="386.62" x2="904" y2="386.62" stroke="#9fb3c8" stroke-dasharray="4 4" />
<rect x="136.71" y="386.62" width="2.28" height="0.00" fill="#2f9e44" opacity="0.55" />
<rect x="139.99" y="381.33" width="2.28" height="5.29" fill="#2f9e44" opacity="0.55" />
<rect x="143.26" y="380.79" width="2.28" height="5.83" fill="#2f9e44" opacity="0.55" />
<rect x="146.53" y="382.01" width="2.28" height="4.61" fill="#2f9e44" opacity="0.55" />
<rect x="149.81" y="381.97" width="2.28" height="4.65" fill="#2f9e44" opacity="0.55" />
<rect x="153.08" y="380.51" width="2.28" height="6.11" fill="#2f9e44" opacity="0.55" />
<rect x="156.36" y="381.63" width="2.28" height="5.00" fill="#2f9e44" opacity="0.55" />
<rect x="159.63" y="383.11" width="2.28" height="3.51" fill="#2f9e44" opacity="0.55" />
<rect x="162.90" y="385.61" width="2.28" height="1.02" fill="#2f9e44" opacity="0.55" />
<rect x="166.18" y="386.62" width="2.28" height="1.98" fill="#d64545" opacity="0.55" />
<rect x="169.45" y="386.62" width="2.28" height="2.32" fill="#d64545" opacity="0.55" />
<rect x="172.73" y="386.62" width="2.28" height="4.70" fill="#d64545" opacity="0.55" />
<rect x="176.00" y="386.62" width="2.28" height="6.46" fill="#d64545" opacity="0.55" />
<rect x="179.28" y="386.62" width="2.28" height="8.21" fill="#d64545" opacity="0.55" />
<rect x="182.55" y="386.62" width="2.28" height="8.53" fill="#d64545" opacity="0.55" />
<rect x="185.82" y="386.62" width="2.28" height="7.62" fill="#d64545" opacity="0.55" />
<rect x="189.10" y="386.62" width="2.28" height="6.04" fill="#d64545" opacity="0.55" />
<rect x="192.37" y="386.62" width="2.28" height="2.78" fill="#d64545" opacity="0.55" />
<rect x="195.65" y="386.62" width="2.28" height="0.32" fill="#d64545" opacity="0.55" />
<rect x="198.92" y="383.91" width="2.28" height="2.71" fill="#2f9e44" opacity="0.55" />
<rect x="202.19" y="381.74" width="2.28" height="4.88" fill="#2f9e44" opacity="0.55" />
<rect x="205.47" y="382.07" width="2.28" height="4.56" fill="#2f9e44" opacity="0.55" />
<rect x="208.74" y="385.63" width="2.28" height="0.99" fill="#2f9e44" opacity="0.55" />
<rect x="212.02" y="386.62" width="2.28" height="6.94" fill="#d64545" opacity="0.55" />
<rect x="215.29" y="386.62" width="2.28" height="10.17" fill="#d64545" opacity="0.55" />
<rect x="218.57" y="386.62" width="2.28" height="13.33" fill="#d64545" opacity="0.55" />
<rect x="221.84" y="386.62" width="2.28" height="12.06" fill="#d64545" opacity="0.55" />
<rect x="225.11" y="386.62" width="2.28" height="9.72" fill="#d64545" opacity="0.55" />
<rect x="228.39" y="386.62" width="2.28" height="6.61" fill="#d64545" opacity="0.55" />
<rect x="231.66" y="386.62" width="2.28" height="5.69" fill="#d64545" opacity="0.55" />
<rect x="234.94" y="386.62" width="2.28" height="4.28" fill="#d64545" opacity="0.55" />
<rect x="238.21" y="386.62" width="2.28" height="5.37" fill="#d64545" opacity="0.55" />
<rect x="241.48" y="386.62" width="2.28" height="6.45" fill="#d64545" opacity="0.55" />
<rect x="244.76" y="386.62" width="2.28" height="5.09" fill="#d64545" opacity="0.55" />
<rect x="248.03" y="386.62" width="2.28" height="5.99" fill="#d64545" opacity="0.55" />
<rect x="251.31" y="386.62" width="2.28" height="4.73" fill="#d64545" opacity="0.55" />
<rect x="254.58" y="386.62" width="2.28" height="3.78" fill="#d64545" opacity="0.55" />
<rect x="257.85" y="386.62" width="2.28" height="3.99" fill="#d64545" opacity="0.55" />
<rect x="261.13" y="386.62" width="2.28" height="3.71" fill="#d64545" opacity="0.55" />
<rect x="264.40" y="386.62" width="2.28" height="3.69" fill="#d64545" opacity="0.55" />
<rect x="267.68" y="386.62" width="2.28" height="5.53" fill="#d64545" opacity="0.55" />
<rect x="270.95" y="386.62" width="2.28" height="7.44" fill="#d64545" opacity="0.55" />
<rect x="274.23" y="386.62" width="2.28" height="8.98" fill="#d64545" opacity="0.55" />
<rect x="277.50" y="386.62" width="2.28" height="8.42" fill="#d64545" opacity="0.55" />
<rect x="280.77" y="386.62" width="2.28" height="8.26" fill="#d64545" opacity="0.55" />
<rect x="284.05" y="386.62" width="2.28" height="7.34" fill="#d64545" opacity="0.55" />
<rect x="287.32" y="386.62" width="2.28" height="6.27" fill="#d64545" opacity="0.55" />
<rect x="290.60" y="386.62" width="2.28" height="6.13" fill="#d64545" opacity="0.55" />
<rect x="293.87" y="386.62" width="2.28" height="9.83" fill="#d64545" opacity="0.55" />
<rect x="297.14" y="386.62" width="2.28" height="12.17" fill="#d64545" opacity="0.55" />
<rect x="300.42" y="386.62" width="2.28" height="14.30" fill="#d64545" opacity="0.55" />
<rect x="303.69" y="386.62" width="2.28" height="12.11" fill="#d64545" opacity="0.55" />
<rect x="306.97" y="386.62" width="2.28" height="10.98" fill="#d64545" opacity="0.55" />
<rect x="310.24" y="386.62" width="2.28" height="11.12" fill="#d64545" opacity="0.55" />
<rect x="313.51" y="386.62" width="2.28" height="10.10" fill="#d64545" opacity="0.55" />
<rect x="316.79" y="386.62" width="2.28" height="6.63" fill="#d64545" opacity="0.55" />
<rect x="320.06" y="386.62" width="2.28" height="4.11" fill="#d64545" opacity="0.55" />
<rect x="323.34" y="386.62" width="2.28" height="1.12" fill="#d64545" opacity="0.55" />
<rect x="326.61" y="386.62" width="2.28" height="1.03" fill="#d64545" opacity="0.55" />
<rect x="329.89" y="386.62" width="2.28" height="4.88" fill="#d64545" opacity="0.55" />
<rect x="333.16" y="386.62" width="2.28" height="6.74" fill="#d64545" opacity="0.55" />
<rect x="336.43" y="386.62" width="2.28" height="7.10" fill="#d64545" opacity="0.55" />
<rect x="339.71" y="386.62" width="2.28" height="6.84" fill="#d64545" opacity="0.55" />
<rect x="342.98" y="386.62" width="2.28" height="3.92" fill="#d64545" opacity="0.55" />
<rect x="346.26" y="386.52" width="2.28" height="0.10" fill="#2f9e44" opacity="0.55" />
<rect x="349.53" y="385.64" width="2.28" height="0.98" fill="#2f9e44" opacity="0.55" />
<rect x="352.80" y="385.85" width="2.28" height="0.77" fill="#2f9e44" opacity="0.55" />
<rect x="356.08" y="386.62" width="2.28" height="0.33" fill="#d64545" opacity="0.55" />
<rect x="359.35" y="386.62" width="2.28" height="0.72" fill="#d64545" opacity="0.55" />
<rect x="362.63" y="384.65" width="2.28" height="1.97" fill="#2f9e44" opacity="0.55" />
<rect x="365.90" y="381.30" width="2.28" height="5.32" fill="#2f9e44" opacity="0.55" />
<rect x="369.18" y="377.23" width="2.28" height="9.39" fill="#2f9e44" opacity="0.55" />
<rect x="372.45" y="375.57" width="2.28" height="11.05" fill="#2f9e44" opacity="0.55" />
<rect x="375.72" y="374.96" width="2.28" height="11.66" fill="#2f9e44" opacity="0.55" />
<rect x="379.00" y="376.49" width="2.28" height="10.13" fill="#2f9e44" opacity="0.55" />
<rect x="382.27" y="373.14" width="2.28" height="13.49" fill="#2f9e44" opacity="0.55" />
<rect x="385.55" y="373.09" width="2.28" height="13.53" fill="#2f9e44" opacity="0.55" />
<rect x="388.82" y="371.54" width="2.28" height="15.08" fill="#2f9e44" opacity="0.55" />
<rect x="392.09" y="372.42" width="2.28" height="14.20" fill="#2f9e44" opacity="0.55" />
<rect x="395.37" y="375.31" width="2.28" height="11.31" fill="#2f9e44" opacity="0.55" />
<rect x="398.64" y="377.63" width="2.28" height="8.99" fill="#2f9e44" opacity="0.55" />
<rect x="401.92" y="379.77" width="2.28" height="6.85" fill="#2f9e44" opacity="0.55" />
<rect x="405.19" y="380.08" width="2.28" height="6.54" fill="#2f9e44" opacity="0.55" />
<rect x="408.46" y="385.76" width="2.28" height="0.86" fill="#2f9e44" opacity="0.55" />
<rect x="411.74" y="386.62" width="2.28" height="1.79" fill="#d64545" opacity="0.55" />
<rect x="415.01" y="386.62" width="2.28" height="6.86" fill="#d64545" opacity="0.55" />
<rect x="418.29" y="386.62" width="2.28" height="10.91" fill="#d64545" opacity="0.55" />
<rect x="421.56" y="386.62" width="2.28" height="13.15" fill="#d64545" opacity="0.55" />
<rect x="424.84" y="386.62" width="2.28" height="14.12" fill="#d64545" opacity="0.55" />
<rect x="428.11" y="386.62" width="2.28" height="11.65" fill="#d64545" opacity="0.55" />
<rect x="431.38" y="386.62" width="2.28" height="6.91" fill="#d64545" opacity="0.55" />
<rect x="434.66" y="386.62" width="2.28" height="3.19" fill="#d64545" opacity="0.55" />
<rect x="437.93" y="386.62" width="2.28" height="0.79" fill="#d64545" opacity="0.55" />
<rect x="441.21" y="383.90" width="2.28" height="2.72" fill="#2f9e44" opacity="0.55" />
<rect x="444.48" y="384.99" width="2.28" height="1.63" fill="#2f9e44" opacity="0.55" />
<rect x="447.75" y="385.94" width="2.28" height="0.68" fill="#2f9e44" opacity="0.55" />
<rect x="451.03" y="386.62" width="2.28" height="0.05" fill="#d64545" opacity="0.55" />
<rect x="454.30" y="386.62" width="2.28" height="0.89" fill="#d64545" opacity="0.55" />
<rect x="457.58" y="385.91" width="2.28" height="0.71" fill="#2f9e44" opacity="0.55" />
<rect x="460.85" y="383.27" width="2.28" height="3.35" fill="#2f9e44" opacity="0.55" />
<rect x="464.12" y="382.76" width="2.28" height="3.87" fill="#2f9e44" opacity="0.55" />
<rect x="467.40" y="383.61" width="2.28" height="3.01" fill="#2f9e44" opacity="0.55" />
<rect x="470.67" y="384.92" width="2.28" height="1.70" fill="#2f9e44" opacity="0.55" />
<rect x="473.95" y="386.62" width="2.28" height="1.33" fill="#d64545" opacity="0.55" />
<rect x="477.22" y="386.62" width="2.28" height="0.46" fill="#d64545" opacity="0.55" />
<rect x="480.50" y="386.62" width="2.28" height="0.23" fill="#d64545" opacity="0.55" />
<rect x="483.77" y="385.97" width="2.28" height="0.65" fill="#2f9e44" opacity="0.55" />
<rect x="487.04" y="385.23" width="2.28" height="1.40" fill="#2f9e44" opacity="0.55" />
<rect x="490.32" y="384.83" width="2.28" height="1.80" fill="#2f9e44" opacity="0.55" />
<rect x="493.59" y="385.16" width="2.28" height="1.46" fill="#2f9e44" opacity="0.55" />
<rect x="496.87" y="384.88" width="2.28" height="1.75" fill="#2f9e44" opacity="0.55" />
<rect x="500.14" y="382.24" width="2.28" height="4.38" fill="#2f9e44" opacity="0.55" />
<rect x="503.41" y="379.42" width="2.28" height="7.21" fill="#2f9e44" opacity="0.55" />
<rect x="506.69" y="377.62" width="2.28" height="9.00" fill="#2f9e44" opacity="0.55" />
<rect x="509.96" y="375.18" width="2.28" height="11.44" fill="#2f9e44" opacity="0.55" />
<rect x="513.24" y="374.04" width="2.28" height="12.58" fill="#2f9e44" opacity="0.55" />
<rect x="516.51" y="372.81" width="2.28" height="13.81" fill="#2f9e44" opacity="0.55" />
<rect x="519.79" y="373.61" width="2.28" height="13.01" fill="#2f9e44" opacity="0.55" />
<rect x="523.06" y="376.02" width="2.28" height="10.60" fill="#2f9e44" opacity="0.55" />
<rect x="526.33" y="378.63" width="2.28" height="7.99" fill="#2f9e44" opacity="0.55" />
<rect x="529.61" y="379.97" width="2.28" height="6.65" fill="#2f9e44" opacity="0.55" />
<rect x="532.88" y="380.68" width="2.28" height="5.95" fill="#2f9e44" opacity="0.55" />
<rect x="536.16" y="384.64" width="2.28" height="1.98" fill="#2f9e44" opacity="0.55" />
<rect x="539.43" y="386.62" width="2.28" height="2.76" fill="#d64545" opacity="0.55" />
<rect x="542.70" y="386.62" width="2.28" height="5.47" fill="#d64545" opacity="0.55" />
<rect x="545.98" y="386.62" width="2.28" height="5.68" fill="#d64545" opacity="0.55" />
<rect x="549.25" y="386.62" width="2.28" height="6.23" fill="#d64545" opacity="0.55" />
<rect x="552.53" y="386.62" width="2.28" height="8.56" fill="#d64545" opacity="0.55" />
<rect x="555.80" y="386.62" width="2.28" height="9.18" fill="#d64545" opacity="0.55" />
<rect x="559.07" y="386.62" width="2.28" height="6.98" fill="#d64545" opacity="0.55" />
<rect x="562.35" y="386.62" width="2.28" height="4.02" fill="#d64545" opacity="0.55" />
<rect x="565.62" y="386.62" width="2.28" height="3.29" fill="#d64545" opacity="0.55" />
<rect x="568.90" y="386.62" width="2.28" height="3.56" fill="#d64545" opacity="0.55" />
<rect x="572.17" y="386.62" width="2.28" height="5.01" fill="#d64545" opacity="0.55" />
<rect x="575.45" y="386.62" width="2.28" height="7.73" fill="#d64545" opacity="0.55" />
<rect x="578.72" y="386.62" width="2.28" height="8.84" fill="#d64545" opacity="0.55" />
<rect x="581.99" y="386.62" width="2.28" height="6.51" fill="#d64545" opacity="0.55" />
<rect x="585.27" y="386.62" width="2.28" height="3.77" fill="#d64545" opacity="0.55" />
<rect x="588.54" y="386.62" width="2.28" height="3.81" fill="#d64545" opacity="0.55" />
<rect x="591.82" y="386.62" width="2.28" height="5.43" fill="#d64545" opacity="0.55" />
<rect x="595.09" y="386.62" width="2.28" height="3.71" fill="#d64545" opacity="0.55" />
<rect x="598.36" y="386.62" width="2.28" height="2.16" fill="#d64545" opacity="0.55" />
<rect x="601.64" y="386.50" width="2.28" height="0.12" fill="#2f9e44" opacity="0.55" />
<rect x="604.91" y="385.72" width="2.28" height="0.90" fill="#2f9e44" opacity="0.55" />
<rect x="608.19" y="383.80" width="2.28" height="2.82" fill="#2f9e44" opacity="0.55" />
<rect x="611.46" y="381.98" width="2.28" height="4.64" fill="#2f9e44" opacity="0.55" />
<rect x="614.73" y="380.90" width="2.28" height="5.72" fill="#2f9e44" opacity="0.55" />
<rect x="618.01" y="381.20" width="2.28" height="5.43" fill="#2f9e44" opacity="0.55" />
<rect x="621.28" y="382.85" width="2.28" height="3.77" fill="#2f9e44" opacity="0.55" />
<rect x="624.56" y="386.62" width="2.28" height="0.78" fill="#d64545" opacity="0.55" />
<rect x="627.83" y="386.62" width="2.28" height="1.46" fill="#d64545" opacity="0.55" />
<rect x="631.11" y="386.62" width="2.28" height="1.22" fill="#d64545" opacity="0.55" />
<rect x="634.38" y="386.62" width="2.28" height="5.45" fill="#d64545" opacity="0.55" />
<rect x="637.65" y="386.62" width="2.28" height="6.87" fill="#d64545" opacity="0.55" />
<rect x="640.93" y="386.62" width="2.28" height="3.03" fill="#d64545" opacity="0.55" />
<rect x="644.20" y="386.62" width="2.28" height="1.11" fill="#d64545" opacity="0.55" />
<rect x="647.48" y="386.62" width="2.28" height="1.57" fill="#d64545" opacity="0.55" />
<rect x="650.75" y="386.62" width="2.28" height="2.64" fill="#d64545" opacity="0.55" />
<rect x="654.02" y="386.62" width="2.28" height="2.18" fill="#d64545" opacity="0.55" />
<rect x="657.30" y="386.62" width="2.28" height="0.15" fill="#d64545" opacity="0.55" />
<rect x="660.57" y="386.55" width="2.28" height="0.07" fill="#2f9e44" opacity="0.55" />
<rect x="663.85" y="384.15" width="2.28" height="2.47" fill="#2f9e44" opacity="0.55" />
<rect x="667.12" y="385.33" width="2.28" height="1.29" fill="#2f9e44" opacity="0.55" />
<rect x="670.40" y="386.62" width="2.28" height="0.59" fill="#d64545" opacity="0.55" />
<rect x="673.67" y="386.62" width="2.28" height="1.10" fill="#d64545" opacity="0.55" />
<rect x="676.94" y="386.62" width="2.28" height="2.51" fill="#d64545" opacity="0.55" />
<rect x="680.22" y="386.62" width="2.28" height="3.54" fill="#d64545" opacity="0.55" />
<rect x="683.49" y="386.62" width="2.28" height="8.03" fill="#d64545" opacity="0.55" />
<rect x="686.77" y="386.62" width="2.28" height="14.08" fill="#d64545" opacity="0.55" />
<rect x="690.04" y="386.62" width="2.28" height="13.53" fill="#d64545" opacity="0.55" />
<rect x="693.31" y="386.62" width="2.28" height="12.67" fill="#d64545" opacity="0.55" />
<rect x="696.59" y="386.62" width="2.28" height="11.28" fill="#d64545" opacity="0.55" />
<rect x="699.86" y="386.62" width="2.28" height="7.40" fill="#d64545" opacity="0.55" />
<rect x="703.14" y="386.62" width="2.28" height="3.85" fill="#d64545" opacity="0.55" />
<rect x="706.41" y="385.97" width="2.28" height="0.66" fill="#2f9e44" opacity="0.55" />
<rect x="709.68" y="382.01" width="2.28" height="4.61" fill="#2f9e44" opacity="0.55" />
<rect x="712.96" y="377.99" width="2.28" height="8.64" fill="#2f9e44" opacity="0.55" />
<rect x="716.23" y="375.57" width="2.28" height="11.06" fill="#2f9e44" opacity="0.55" />
<rect x="719.51" y="370.69" width="2.28" height="15.94" fill="#2f9e44" opacity="0.55" />
<rect x="722.78" y="367.75" width="2.28" height="18.87" fill="#2f9e44" opacity="0.55" />
<rect x="726.06" y="365.23" width="2.28" height="21.39" fill="#2f9e44" opacity="0.55" />
<rect x="729.33" y="359.62" width="2.28" height="27.00" fill="#2f9e44" opacity="0.55" />
<rect x="732.60" y="356.39" width="2.28" height="30.24" fill="#2f9e44" opacity="0.55" />
<rect x="735.88" y="357.22" width="2.28" height="29.40" fill="#2f9e44" opacity="0.55" />
<rect x="739.15" y="356.10" width="2.28" height="30.52" fill="#2f9e44" opacity="0.55" />
<rect x="742.43" y="357.99" width="2.28" height="28.64" fill="#2f9e44" opacity="0.55" />
<rect x="745.70" y="363.21" width="2.28" height="23.41" fill="#2f9e44" opacity="0.55" />
<rect x="748.97" y="367.97" width="2.28" height="18.65" fill="#2f9e44" opacity="0.55" />
<rect x="752.25" y="370.46" width="2.28" height="16.16" fill="#2f9e44" opacity="0.55" />
<rect x="755.52" y="371.65" width="2.28" height="14.97" fill="#2f9e44" opacity="0.55" />
<rect x="758.80" y="375.04" width="2.28" height="11.58" fill="#2f9e44" opacity="0.55" />
<rect x="762.07" y="372.36" width="2.28" height="14.27" fill="#2f9e44" opacity="0.55" />
<rect x="765.34" y="368.67" width="2.28" height="17.96" fill="#2f9e44" opacity="0.55" />
<rect x="768.62" y="366.49" width="2.28" height="20.13" fill="#2f9e44" opacity="0.55" />
<rect x="771.89" y="359.90" width="2.28" height="26.73" fill="#2f9e44" opacity="0.55" />
<rect x="775.17" y="358.73" width="2.28" height="27.89" fill="#2f9e44" opacity="0.55" />
<rect x="778.44" y="367.69" width="2.28" height="18.93" fill="#2f9e44" opacity="0.55" />
<rect x="781.72" y="374.35" width="2.28" height="12.28" fill="#2f9e44" opacity="0.55" />
<rect x="784.99" y="383.13" width="2.28" height="3.49" fill="#2f9e44" opacity="0.55" />
<rect x="788.26" y="386.62" width="2.28" height="3.20" fill="#d64545" opacity="0.55" />
<rect x="791.54" y="386.62" width="2.28" height="10.28" fill="#d64545" opacity="0.55" />
<rect x="794.81" y="386.62" width="2.28" height="12.53" fill="#d64545" opacity="0.55" />
<rect x="798.09" y="386.62" width="2.28" height="9.70" fill="#d64545" opacity="0.55" />
<rect x="801.36" y="386.62" width="2.28" height="8.26" fill="#d64545" opacity="0.55" />
<rect x="804.63" y="386.62" width="2.28" height="7.55" fill="#d64545" opacity="0.55" />
<rect x="807.91" y="386.62" width="2.28" height="11.07" fill="#d64545" opacity="0.55" />
<rect x="811.18" y="386.62" width="2.28" height="15.33" fill="#d64545" opacity="0.55" />
<rect x="814.46" y="386.62" width="2.28" height="20.64" fill="#d64545" opacity="0.55" />
<rect x="817.73" y="386.62" width="2.28" height="21.82" fill="#d64545" opacity="0.55" />
<rect x="821.01" y="386.62" width="2.28" height="15.71" fill="#d64545" opacity="0.55" />
<rect x="824.28" y="386.62" width="2.28" height="15.50" fill="#d64545" opacity="0.55" />
<rect x="827.55" y="386.62" width="2.28" height="14.72" fill="#d64545" opacity="0.55" />
<rect x="830.83" y="386.62" width="2.28" height="17.48" fill="#d64545" opacity="0.55" />
<rect x="834.10" y="386.62" width="2.28" height="19.45" fill="#d64545" opacity="0.55" />
<rect x="837.38" y="386.62" width="2.28" height="21.62" fill="#d64545" opacity="0.55" />
<rect x="840.65" y="386.62" width="2.28" height="21.00" fill="#d64545" opacity="0.55" />
<rect x="843.92" y="386.62" width="2.28" height="22.71" fill="#d64545" opacity="0.55" />
<rect x="847.20" y="386.62" width="2.28" height="22.49" fill="#d64545" opacity="0.55" />
<rect x="850.47" y="386.62" width="2.28" height="20.67" fill="#d64545" opacity="0.55" />
<rect x="853.75" y="386.62" width="2.28" height="16.46" fill="#d64545" opacity="0.55" />
<rect x="857.02" y="386.62" width="2.28" height="12.09" fill="#d64545" opacity="0.55" />
<rect x="860.29" y="386.62" width="2.28" height="8.66" fill="#d64545" opacity="0.55" />
<rect x="863.57" y="386.62" width="2.28" height="5.20" fill="#d64545" opacity="0.55" />
<rect x="866.84" y="386.62" width="2.28" height="3.53" fill="#d64545" opacity="0.55" />
<rect x="870.12" y="386.62" width="2.28" height="1.56" fill="#d64545" opacity="0.55" />
<rect x="873.39" y="386.62" width="2.28" height="0.85" fill="#d64545" opacity="0.55" />
<rect x="876.67" y="386.62" width="2.28" height="1.76" fill="#d64545" opacity="0.55" />
<rect x="879.94" y="386.62" width="2.28" height="7.30" fill="#d64545" opacity="0.55" />
<rect x="883.21" y="386.62" width="2.28" height="8.71" fill="#d64545" opacity="0.55" />
<rect x="886.49" y="386.62" width="2.28" height="6.31" fill="#d64545" opacity="0.55" />
<rect x="889.76" y="386.62" width="2.28" height="0.56" fill="#d64545" opacity="0.55" />
<rect x="893.04" y="377.16" width="2.28" height="9.47" fill="#2f9e44" opacity="0.55" />
<rect x="896.31" y="374.78" width="2.28" height="11.84" fill="#2f9e44" opacity="0.55" />
<rect x="899.58" y="380.04" width="2.28" height="6.59" fill="#2f9e44" opacity="0.55" />
<rect x="902.86" y="386.21" width="2.28" height="0.41" fill="#2f9e44" opacity="0.55" />
<polyline fill="none" stroke="#1f77b4" stroke-width="2" points="137.85,344.38 141.13,337.76 144.40,335.77 147.68,335.84 150.95,334.63 154.22,331.64 157.50,331.51 160.77,332.12 164.05,334.36 167.32,337.85 170.59,338.77 173.87,342.32 177.14,345.69 180.42,349.50 183.69,351.95 186.97,352.94 190.24,352.88 193.51,350.31 196.79,347.93 200.06,344.22 203.34,340.84 206.61,340.02 209.88,343.33 213.16,353.00 216.43,358.77 219.71,365.27 222.98,367.01 226.25,367.11 229.53,365.65 232.80,366.15 236.08,365.81 239.35,368.24 242.63,370.94 245.90,370.84 249.17,373.25 252.45,373.16 255.72,373.16 259.00,374.37 262.27,375.02 265.54,375.92 268.82,379.15 272.09,382.91 275.37,386.70 278.64,388.24 281.92,390.15 285.19,391.07 288.46,391.56 291.74,392.95 295.01,399.11 298.29,404.50 301.56,410.20 304.83,411.03 308.11,412.65 311.38,415.56 314.66,417.08 317.93,415.26 321.20,413.77 324.48,411.06 327.75,411.22 331.03,416.30 334.30,419.84 337.58,421.98 340.85,423.43 344.12,421.49 347.40,417.44 350.67,416.31 353.95,416.33 357.22,417.51 360.49,418.08 363.77,414.90 367.04,410.22 370.32,403.80 373.59,399.38 376.86,395.86 380.14,394.85 383.41,388.12 386.69,384.69 389.96,379.37 393.24,376.70 396.51,376.76 399.78,376.83 403.06,377.27 406.33,375.94 409.61,381.40 412.88,384.50 416.15,391.29 419.43,398.06 422.70,403.59 425.98,408.09 429.25,408.53 432.53,405.52 435.80,402.60 439.07,400.40 442.35,396.21 445.62,396.89 448.90,397.66 452.17,398.41 455.44,399.48 458.72,397.69 461.99,394.21 465.27,392.73 468.54,392.83 471.81,393.72 475.09,397.09 478.36,396.33 481.64,396.15 484.91,395.11 488.19,394.02 491.46,393.17 494.73,393.13 498.01,392.41 501.28,388.68 504.56,384.06 507.83,380.02 511.10,374.71 514.38,370.43 517.65,365.75 520.93,363.29 524.20,363.05 527.47,363.67 530.75,363.35 534.02,362.56 537.30,366.03 540.57,371.46 543.85,375.54 547.12,377.17 550.39,379.27 553.67,383.74 556.94,386.66 560.22,386.20 563.49,384.25 566.76,384.34 570.04,385.51 573.31,388.20 576.59,392.86 579.86,396.18 583.14,395.48 586.41,393.68 589.68,394.67 592.96,397.65 596.23,396.86 599.51,395.85 602.78,393.54 606.05,392.53 609.33,389.91 612.60,386.93 615.88,384.41 619.15,383.35 622.42,384.06 625.70,388.81 628.97,389.85 632.25,389.92 635.52,395.52 638.80,398.65 642.07,395.57 645.34,393.93 648.62,394.78 651.89,396.51 655.17,396.59 658.44,394.60 661.71,394.37 664.99,391.35 668.26,392.20 671.54,394.23 674.81,395.02 678.08,397.05 681.36,398.97 684.63,405.47 687.91,415.03 691.18,417.87 694.46,420.18 697.73,421.60 701.00,419.57 704.28,416.99 707.55,412.32 710.83,407.21 714.10,401.03 717.37,395.84 720.65,386.98 723.92,379.32 727.20,371.46 730.47,359.09 733.75,348.30 737.02,341.79 740.29,333.03 743.57,327.76 746.84,327.13 750.12,327.23 753.39,325.68 756.66,323.13 759.94,323.62 763.21,317.37 766.49,309.19 769.76,301.98 773.03,288.71 776.31,280.57 779.58,284.80 782.86,288.38 786.13,296.29 789.41,303.79 792.68,313.44 795.95,318.82 799.23,318.41 802.50,319.04 805.78,320.22 809.05,326.50 812.32,334.59 815.60,345.07 818.87,351.71 822.15,349.51 825.42,353.18 828.69,356.08 831.97,363.21 835.24,370.05 838.52,377.62 841.79,382.25 845.07,389.64 848.34,395.04 851.61,398.38 854.89,398.30 858.16,396.94 861.44,395.68 864.71,393.52 867.98,392.73 871.26,391.15 874.53,390.66 877.81,392.00 881.08,399.37 884.36,402.96 887.63,402.13 890.90,396.52 894.18,384.13 897.45,378.79 900.73,382.40 904.00,388.47" />
<polyline fill="none" stroke="#ff7f0e" stroke-width="2" points="137.85,344.38 141.13,343.06 144.40,341.60 147.68,340.45 150.95,339.28 154.22,337.75 157.50,336.50 160.77,335.63 164.05,335.37 167.32,335.87 170.59,336.45 173.87,337.62 177.14,339.24 180.42,341.29 183.69,343.42 186.97,345.33 190.24,346.84 193.51,347.53 196.79,347.61 200.06,346.93 203.34,345.71 206.61,344.58 209.88,344.33 213.16,346.06 216.43,348.60 219.71,351.94 222.98,354.95 226.25,357.38 229.53,359.04 232.80,360.46 236.08,361.53 239.35,362.87 242.63,364.49 245.90,365.76 249.17,367.26 252.45,368.44 255.72,369.38 259.00,370.38 262.27,371.31 265.54,372.23 268.82,373.61 272.09,375.47 275.37,377.72 278.64,379.82 281.92,381.89 285.19,383.72 288.46,385.29 291.74,386.82 295.01,389.28 298.29,392.32 301.56,395.90 304.83,398.93 308.11,401.67 311.38,404.45 314.66,406.97 317.93,408.63 321.20,409.66 324.48,409.94 327.75,410.20 331.03,411.42 334.30,413.10 337.58,414.88 340.85,416.59 344.12,417.57 347.40,417.54 350.67,417.30 353.95,417.10 357.22,417.18 360.49,417.36 363.77,416.87 367.04,415.54 370.32,413.19 373.59,410.43 376.86,407.52 380.14,404.98 383.41,401.61 386.69,398.23 389.96,394.46 393.24,390.91 396.51,388.08 399.78,385.83 403.06,384.12 406.33,382.48 409.61,382.27 412.88,382.71 416.15,384.43 419.43,387.15 422.70,390.44 425.98,393.97 429.25,396.88 432.53,398.61 435.80,399.41 439.07,399.61 442.35,398.93 445.62,398.52 448.90,398.35 452.17,398.36 455.44,398.58 458.72,398.40 461.99,397.57 465.27,396.60 468.54,395.85 471.81,395.42 475.09,395.75 478.36,395.87 481.64,395.93 484.91,395.76 488.19,395.41 491.46,394.96 494.73,394.60 498.01,394.16 501.28,393.07 504.56,391.26 507.83,389.01 511.10,386.15 514.38,383.01 517.65,379.56 520.93,376.30 524.20,373.65 527.47,371.66 530.75,369.99 534.02,368.51 537.30,368.01 540.57,368.70 543.85,370.07 547.12,371.49 550.39,373.05 553.67,375.19 556.94,377.48 560.22,379.23 563.49,380.23 566.76,381.05 570.04,381.94 573.31,383.20 576.59,385.13 579.86,387.34 583.14,388.97 586.41,389.91 589.68,390.86 592.96,392.22 596.23,393.15 599.51,393.69 602.78,393.66 606.05,393.43 609.33,392.73 612.60,391.57 615.88,390.14 619.15,388.78 622.42,387.84 625.70,388.03 628.97,388.40 632.25,388.70 635.52,390.07 638.80,391.78 642.07,392.54 645.34,392.82 648.62,393.21 651.89,393.87 655.17,394.41 658.44,394.45 661.71,394.43 664.99,393.82 668.26,393.49 671.54,393.64 674.81,393.92 678.08,394.55 681.36,395.43 684.63,397.44 687.91,400.96 691.18,404.34 694.46,407.51 697.73,410.33 701.00,412.17 704.28,413.14 707.55,412.97 710.83,411.82 714.10,409.66 717.37,406.90 720.65,402.91 723.92,398.19 727.20,392.85 730.47,386.10 733.75,378.54 737.02,371.19 740.29,363.56 743.57,356.40 746.84,350.54 750.12,345.88 753.39,341.84 756.66,338.10 759.94,335.20 763.21,331.64 766.49,327.15 769.76,322.11 773.03,315.43 776.31,308.46 779.58,303.73 782.86,300.66 786.13,299.79 789.41,300.59 792.68,303.16 795.95,306.29 799.23,308.72 802.50,310.78 805.78,312.67 809.05,315.44 812.32,319.27 815.60,324.43 818.87,329.88 822.15,333.81 825.42,337.68 828.69,341.36 831.97,345.73 835.24,350.60 838.52,356.00 841.79,361.25 845.07,366.93 848.34,372.55 851.61,377.72 854.89,381.83 858.16,384.86 861.44,387.02 864.71,388.32 867.98,389.20 871.26,389.59 874.53,389.81 877.81,390.24 881.08,392.07 884.36,394.25 887.63,395.82 890.90,395.96 894.18,393.60 897.45,390.63 900.73,388.99 904.00,388.88" />
<text x="754.00" y="290.00" font-size="13" font-family="Arial" fill="#1f77b4" text-anchor="start">MACD</text>
<text x="818.00" y="290.00" font-size="13" font-family="Arial" fill="#ff7f0e" text-anchor="start">Signal</text>
<line x1="56" y1="624" x2="904" y2="624" stroke="#cbd2d9" />
<line x1="56" y1="484" x2="56" y2="624" stroke="#cbd2d9" />
<text x="16.00" y="476.00" font-size="12" font-family="Arial" fill="#52606d" text-anchor="start">KD</text>
<line x1="56" y1="624.00" x2="904" y2="624.00" stroke="#edf2f7" />
<line x1="52" y1="624.00" x2="56" y2="624.00" stroke="#9fb3c8" />
<text x="48.00" y="628.00" font-size="11" font-family="Arial" fill="#52606d" text-anchor="end">-5.00</text>
<line x1="56" y1="577.33" x2="904" y2="577.33" stroke="#edf2f7" />
<line x1="52" y1="577.33" x2="56" y2="577.33" stroke="#9fb3c8" />
<text x="48.00" y="581.33" font-size="11" font-family="Arial" fill="#52606d" text-anchor="end">31.7</text>
<line x1="56" y1="530.67" x2="904" y2="530.67" stroke="#edf2f7" />
<line x1="52" y1="530.67" x2="56" y2="530.67" stroke="#9fb3c8" />
<text x="48.00" y="534.67" font-size="11" font-family="Arial" fill="#52606d" text-anchor="end">68.3</text>
<line x1="56" y1="484.00" x2="904" y2="484.00" stroke="#edf2f7" />
<line x1="52" y1="484.00" x2="56" y2="484.00" stroke="#9fb3c8" />
<text x="48.00" y="488.00" font-size="11" font-family="Arial" fill="#52606d" text-anchor="end">105</text>
<line x1="56.00" y1="624" x2="56.00" y2="628" stroke="#9fb3c8" />
<text x="56.00" y="642.00" font-size="11" font-family="Arial" fill="#52606d" text-anchor="middle">06/12</text>
<line x1="226.25" y1="624" x2="226.25" y2="628" stroke="#9fb3c8" />
<text x="226.25" y="642.00" font-size="11" font-family="Arial" fill="#52606d" text-anchor="middle">08/26</text>
<line x1="396.51" y1="624" x2="396.51" y2="628" stroke="#9fb3c8" />
<text x="396.51" y="642.00" font-size="11" font-family="Arial" fill="#52606d" text-anchor="middle">11/12</text>
<line x1="563.49" y1="624" x2="563.49" y2="628" stroke="#9fb3c8" />
<text x="563.49" y="642.00" font-size="11" font-family="Arial" fill="#52606d" text-anchor="middle">01/26</text>
<line x1="733.75" y1="624" x2="733.75" y2="628" stroke="#9fb3c8" />
<text x="733.75" y="642.00" font-size="11" font-family="Arial" fill="#52606d" text-anchor="middle">04/22</text>
<line x1="904.00" y1="624" x2="904.00" y2="628" stroke="#9fb3c8" />
<text x="904.00" y="642.00" font-size="11" font-family="Arial" fill="#52606d" text-anchor="middle">07/07</text>
<line x1="56" y1="592.18" x2="904" y2="592.18" stroke="#f0b429" stroke-dasharray="5 5" />
<text x="912.00" y="596.18" font-size="10" font-family="Arial" fill="#8d2b0b" text-anchor="start">20.0</text>
<line x1="56" y1="515.82" x2="904" y2="515.82" stroke="#f0b429" stroke-dasharray="5 5" />
<text x="912.00" y="519.82" font-size="10" font-family="Arial" fill="#8d2b0b" text-anchor="start">80.0</text>
<polyline fill="none" stroke="#2ca02c" stroke-width="2" points="82.19,554.71 85.47,542.34 88.74,535.84 92.02,533.94 95.29,523.17 98.56,518.75 101.84,515.40 105.11,517.18 108.39,517.93 111.66,517.06 114.93,517.24 118.21,511.81 121.48,508.90 124.76,511.69 128.03,527.37 131.31,532.34 134.58,526.33 137.85,516.77 141.13,510.01 144.40,514.32 147.68,522.57 150.95,521.17 154.22,513.50 157.50,515.10 160.77,517.82 164.05,534.69 167.32,561.64 170.59,560.03 173.87,577.81 177.14,590.38 180.42,596.41 183.69,593.83 186.97,581.67 190.24,560.42 193.51,546.34 196.79,535.90 200.06,534.17 203.34,530.19 206.61,531.39 209.88,545.77 213.16,570.20 216.43,580.20 219.71,591.64 222.98,588.95 226.25,582.88 229.53,570.17 232.80,565.10 236.08,558.24 239.35,559.45 242.63,563.03 245.90,556.11 249.17,573.18 252.45,570.80 255.72,570.42 259.00,577.55 262.27,579.23 265.54,578.72 268.82,591.02 272.09,596.27 275.37,603.39 278.64,600.06 281.92,601.88 285.19,598.65 288.46,595.28 291.74,599.90 295.01,602.84 298.29,605.41 301.56,606.55 304.83,594.50 308.11,590.96 311.38,595.68 314.66,597.21 317.93,587.19 321.20,578.25 324.48,552.87 327.75,554.88 331.03,572.47 334.30,579.71 337.58,583.42 340.85,586.64 344.12,577.62 347.40,561.91 350.67,561.76 353.95,563.51 357.22,571.76 360.49,577.26 363.77,562.44 367.04,541.36 370.32,527.66 373.59,522.23 376.86,519.36 380.14,526.01 383.41,514.13 386.69,513.60 389.96,506.51 393.24,508.33 396.51,520.84 399.78,528.74 403.06,535.35 406.33,530.74 409.61,559.70 412.88,572.76 416.15,584.97 419.43,594.47 422.70,599.16 425.98,602.99 429.25,596.25 432.53,581.59 435.80,568.96 439.07,552.28 442.35,532.06 445.62,539.92 448.90,546.65 452.17,552.23 455.44,562.27 458.72,563.42 461.99,551.91 465.27,552.61 468.54,561.44 471.81,572.92 475.09,586.19 478.36,574.92 481.64,570.66 484.91,562.93 488.19,556.69 491.46,553.08 494.73,551.10 498.01,544.77 501.28,529.67 504.56,521.63 507.83,515.11 511.10,514.84 514.38,513.57 517.65,511.57 520.93,513.75 524.20,520.76 527.47,528.22 530.75,532.48 534.02,535.64 537.30,560.25 540.57,578.56 543.85,589.11 547.12,584.20 550.39,583.42 553.67,594.82 556.94,599.43 560.22,589.21 563.49,574.69 566.76,570.04 570.04,572.93 573.31,584.84 576.59,595.77 579.86,596.27 583.14,584.39 586.41,572.05 589.68,573.33 592.96,583.01 596.23,570.66 599.51,557.29 602.78,539.94 606.05,537.23 609.33,528.41 612.60,519.22 615.88,513.46 619.15,514.44 622.42,529.91 625.70,559.15 628.97,563.31 632.25,562.00 635.52,579.40 638.80,586.03 642.07,567.14 645.34,558.36 648.62,562.07 651.89,566.45 655.17,563.03 658.44,550.02 661.71,549.15 664.99,541.20 668.26,557.09 671.54,574.80 674.81,582.67 678.08,594.32 681.36,596.65 684.63,603.37 687.91,607.92 691.18,600.91 694.46,595.32 697.73,591.26 701.00,579.11 704.28,568.64 707.55,548.84 710.83,533.72 714.10,522.02 717.37,518.54 720.65,511.83 723.92,510.09 727.20,506.64 730.47,501.21 733.75,499.65 737.02,506.43 740.29,505.37 743.57,508.28 746.84,516.64 750.12,525.85 753.39,526.86 756.66,523.31 759.94,532.66 763.21,518.56 766.49,512.44 769.76,509.32 773.03,503.00 776.31,506.84 779.58,524.96 782.86,535.67 786.13,548.99 789.41,559.34 792.68,575.84 795.95,581.29 799.23,574.96 802.50,571.08 805.78,556.71 809.05,559.09 812.32,569.05 815.60,581.62 818.87,584.06 822.15,562.91 825.42,563.31 828.69,562.53 831.97,575.21 835.24,581.59 838.52,581.64 841.79,578.19 845.07,585.03 848.34,587.17 851.61,586.72 854.89,576.70 858.16,562.36 861.44,546.99 864.71,537.47 867.98,536.59 871.26,533.09 874.53,533.38 877.81,550.30 881.08,572.75 884.36,580.84 887.63,574.58 890.90,554.28 894.18,532.97 897.45,528.91 900.73,544.21 904.00,561.85" />
<polyline fill="none" stroke="#d62728" stroke-width="2" points="82.19,554.24 85.47,550.27 88.74,545.46 92.02,541.62 95.29,535.47 98.56,529.90 101.84,525.07 105.11,522.44 108.39,520.93 111.66,519.64 114.93,518.84 118.21,516.50 121.48,513.96 124.76,513.21 128.03,517.93 131.31,522.73 134.58,523.93 137.85,521.54 141.13,517.70 144.40,516.57 147.68,518.57 150.95,519.44 154.22,517.46 157.50,516.67 160.77,517.06 164.05,522.93 167.32,535.83 170.59,543.90 173.87,555.20 177.14,566.93 180.42,576.76 183.69,582.45 186.97,582.19 190.24,574.93 193.51,565.40 196.79,555.57 200.06,548.43 203.34,542.35 206.61,538.70 209.88,541.06 213.16,550.77 216.43,560.58 219.71,570.93 222.98,576.94 226.25,578.92 229.53,576.00 232.80,572.37 236.08,567.66 239.35,564.92 242.63,564.29 245.90,561.56 249.17,565.43 252.45,567.22 255.72,568.29 259.00,571.38 262.27,574.00 265.54,575.57 268.82,580.72 272.09,585.91 275.37,591.73 278.64,594.51 281.92,596.97 285.19,597.53 288.46,596.78 291.74,597.82 295.01,599.49 298.29,601.47 301.56,603.16 304.83,600.27 308.11,597.17 311.38,596.67 314.66,596.85 317.93,593.63 321.20,588.50 324.48,576.62 327.75,569.38 331.03,570.41 334.30,573.51 337.58,576.81 340.85,580.09 344.12,579.27 347.40,573.48 350.67,569.57 353.95,567.55 357.22,568.96 360.49,571.73 363.77,568.63 367.04,559.54 370.32,548.91 373.59,540.02 376.86,533.13 380.14,530.76 383.41,525.21 386.69,521.34 389.96,516.40 393.24,513.71 396.51,516.09 399.78,520.30 403.06,525.32 406.33,527.13 409.61,537.98 412.88,549.58 416.15,561.38 419.43,572.41 422.70,581.32 425.98,588.55 429.25,591.12 432.53,587.94 435.80,581.61 439.07,571.84 442.35,558.58 445.62,552.36 448.90,550.45 452.17,551.05 455.44,554.79 458.72,557.67 461.99,555.75 465.27,554.70 468.54,556.95 471.81,562.27 475.09,570.24 478.36,571.80 481.64,571.42 484.91,568.59 488.19,564.63 491.46,560.78 494.73,557.55 498.01,553.29 501.28,545.42 504.56,537.49 507.83,530.03 511.10,524.96 514.38,521.16 517.65,517.97 520.93,516.56 524.20,517.96 527.47,521.38 530.75,525.08 534.02,528.60 537.30,539.15 540.57,552.29 543.85,564.56 547.12,571.11 550.39,575.21 553.67,581.75 556.94,587.64 560.22,588.17 563.49,583.67 566.76,579.13 570.04,577.06 573.31,579.65 576.59,585.03 579.86,588.77 583.14,587.31 586.41,582.22 589.68,579.26 592.96,580.51 596.23,577.23 599.51,570.58 602.78,560.37 606.05,552.65 609.33,544.57 612.60,536.12 615.88,528.57 619.15,523.86 622.42,525.88 625.70,536.97 628.97,545.75 632.25,551.17 635.52,560.58 638.80,569.06 642.07,568.42 645.34,565.07 648.62,564.07 651.89,564.86 655.17,564.25 658.44,559.51 661.71,556.06 664.99,551.11 668.26,553.10 671.54,560.33 674.81,567.78 678.08,576.63 681.36,583.30 684.63,589.99 687.91,595.97 691.18,597.61 694.46,596.85 697.73,594.99 701.00,589.70 704.28,582.68 707.55,571.40 710.83,558.84 714.10,546.57 717.37,537.22 720.65,528.76 723.92,522.53 727.20,517.24 730.47,511.89 733.75,507.81 737.02,507.35 740.29,506.69 743.57,507.22 746.84,510.36 750.12,515.52 753.39,519.30 756.66,520.64 759.94,524.64 763.21,522.62 766.49,519.22 769.76,515.92 773.03,511.62 776.31,510.02 779.58,515.00 782.86,521.89 786.13,530.92 789.41,540.40 792.68,552.21 795.95,561.90 799.23,566.26 802.50,567.86 805.78,564.15 809.05,562.46 812.32,564.66 815.60,570.31 818.87,574.89 822.15,570.90 825.42,568.37 828.69,566.42 831.97,569.35 835.24,573.43 838.52,576.17 841.79,576.84 845.07,579.57 848.34,582.10 851.61,583.64 854.89,581.33 858.16,575.01 861.44,565.67 864.71,556.27 867.98,549.71 871.26,544.17 874.53,540.57 877.81,543.82 881.08,553.46 884.36,562.59 887.63,566.58 890.90,562.48 894.18,552.65 897.45,544.73 900.73,544.56 904.00,550.32" />
<text x="824.00" y="502.00" font-size="13" font-family="Arial" fill="#2ca02c" text-anchor="start">K</text>
<text x="860.00" y="502.00" font-size="13" font-family="Arial" fill="#d62728" text-anchor="start">D</text>
</svg>