<svg xmlns="http://www.w3.org/2000/svg" width="960" height="680" viewBox="0 0 960 680"><rect width="100%" height="100%" fill="white" />
<text x="56.00" y="32.00" font-size="20" font-family="Arial" fill="#1f2933" text-anchor="start">元大台灣50(0050) Technical Indicators</text>
<line x1="56" y1="220" x2="904" y2="220" stroke="#cbd2d9" />
<line x1="56" y1="58" x2="56" y2="220" stroke="#cbd2d9" />
<text x="16.00" y="50.00" font-size="12" font-family="Arial" fill="#52606d" text-anchor="start">RSI14</text>
<line x1="56" y1="220.00" x2="904" y2="220.00" stroke="#edf2f7" />
<line x1="52" y1="220.00" x2="56" y2="220.00" stroke="#9fb3c8" />
<text x="48.00" y="224.00" font-size="11" font-family="Arial" fill="#52606d" text-anchor="end">-5.00</text>
<line x1="56" y1="166.00" x2="904" y2="166.00" stroke="#edf2f7" />
<line x1="52" y1="166.00" x2="56" y2="166.00" stroke="#9fb3c8" />
<text x="48.00" y="170.00" font-size="11" font-family="Arial" fill="#52606d" text-anchor="end">31.7</text>
<line x1="56" y1="112.00" x2="904" y2="112.00" stroke="#edf2f7" />
<line x1="52" y1="112.00" x2="56" y2="112.00" stroke="#9fb3c8" />
<text x="48.00" y="116.00" font-size="11" font-family="Arial" fill="#52606d" text-anchor="end">68.3</text>
<line x1="56" y1="58.00" x2="904" y2="58.00" stroke="#edf2f7" />
<line x1="52" y1="58.00" x2="56" y2="58.00" stroke="#9fb3c8" />
<text x="48.00" y="62.00" font-size="11" font-family="Arial" fill="#52606d" text-anchor="end">105</text>
<line x1="56" y1="168.45" x2="904" y2="168.45" stroke="#f0b429" stroke-dasharray="5 5" />
<text x="912.00" y="172.45" font-size="10" font-family="Arial" fill="#8d2b0b" text-anchor="start">30.0</text>
<line x1="56" y1="109.55" x2="904" y2="109.55" stroke="#f0b429" stroke-dasharray="5 5" />
<text x="912.00" y="113.55" font-size="10" font-family="Arial" fill="#8d2b0b" text-anchor="start">70.0</text>
<polyline fill="none" stroke="#1f77b4" stroke-width="2" points="101.84,110.67 105.11,109.44 108.39,107.02 111.66,109.07 114.93,107.74 118.21,119.85 121.48,114.28 124.76,109.42 128.03,117.72 131.31,122.90 134.58,116.40 137.85,123.88 141.13,111.45 144.40,111.45 147.68,108.52 150.95,108.16 154.22,104.90 157.50,108.68 160.77,108.68 164.05,107.40 167.32,109.59 170.59,135.54 173.87,131.93 177.14,135.49 180.42,124.76 183.69,124.25 186.97,121.65 190.24,129.56 193.51,129.56 196.79,137.18 200.06,137.18 203.34,137.97 206.61,132.64 209.88,125.20 213.16,119.35 216.43,113.76 219.71,105.25 222.98,101.95 226.25,98.69 229.53,98.69 232.80,94.57 236.08,102.40 239.35,98.81 242.63,98.53 245.90,96.24 249.17,91.20 252.45,92.20 255.72,96.36 259.00,113.82 262.27,109.67 265.54,107.55 268.82,100.84 272.09,96.70 275.37,90.55 278.64,98.58 281.92,96.76 285.19,105.22 288.46,109.28 291.74,103.58 295.01,98.52 298.29,110.09 301.56,105.27 304.83,104.84 308.11,110.83 311.38,114.92 314.66,107.38 317.93,112.48 321.20,107.37 324.48,107.37 327.75,105.68 331.03,113.07 334.30,115.48 337.58,124.66 340.85,123.55 344.12,131.70 347.40,125.39 350.67,130.15 353.95,127.71 357.22,131.02 360.49,142.75 363.77,140.80 367.04,152.59 370.32,155.38 373.59,138.46 376.86,152.05 380.14,153.75 383.41,147.16 386.69,139.69 389.96,135.88 393.24,132.83 396.51,139.28 399.78,137.80 403.06,133.39 406.33,134.25 409.61,130.10 412.88,123.58 416.15,124.59 419.43,121.52 422.70,128.80 425.98,128.03 429.25,134.66 432.53,139.86 435.80,143.03 439.07,143.03 442.35,136.83 445.62,128.66 448.90,126.16 452.17,124.90 455.44,120.38 458.72,114.22 461.99,115.60 465.27,112.40 468.54,104.39 471.81,94.35 475.09,91.77 478.36,98.46 481.64,97.59 484.91,100.77 488.19,98.78 491.46,97.42 494.73,97.22 498.01,98.74 501.28,93.37 504.56,91.36 507.83,91.36 511.10,102.76 514.38,98.46 517.65,96.63 520.93,96.63 524.20,93.42 527.47,89.57 530.75,96.29 534.02,111.49 537.30,123.49 540.57,115.11 543.85,115.63 547.12,124.70 550.39,125.68 553.67,113.83 556.94,107.15 560.22,101.30 563.49,100.67 566.76,95.09 570.04,91.34 573.31,91.23 576.59,99.04 579.86,112.85 583.14,133.31 586.41,125.70 589.68,128.79 592.96,144.26 596.23,137.23 599.51,126.27 602.78,133.23 606.05,135.93 609.33,137.41 612.60,133.17 615.88,128.77 619.15,137.04 622.42,137.49 625.70,144.58 628.97,143.85 632.25,135.55 635.52,137.45 638.80,141.25 642.07,146.22 645.34,152.56 648.62,137.68 651.89,143.80 655.17,138.05 658.44,124.55 661.71,124.77 664.99,119.96 668.26,120.71 671.54,113.68 674.81,111.05 678.08,108.98 681.36,113.80 684.63,112.69 687.91,108.79 691.18,107.88 694.46,107.88 697.73,99.37 701.00,94.12 704.28,100.24 707.55,107.56 710.83,109.01 714.10,100.45 717.37,100.45 720.65,98.34 723.92,95.09 727.20,99.41 730.47,100.04 733.75,100.38 737.02,109.44 740.29,107.94 743.57,112.30 746.84,115.66 750.12,126.77 753.39,130.17 756.66,117.72 759.94,113.42 763.21,104.96 766.49,108.90 769.76,103.63 773.03,114.35 776.31,104.45 779.58,104.28 782.86,103.91 786.13,100.52 789.41,108.32 792.68,117.58 795.95,130.47 799.23,123.69 802.50,134.82 805.78,136.09 809.05,130.12 812.32,122.02 815.60,120.55 818.87,120.32 822.15,117.22 825.42,109.32 828.69,113.75 831.97,125.09 835.24,124.96 838.52,138.62 841.79,134.78 845.07,126.27 848.34,122.76 851.61,124.69 854.89,126.33 858.16,126.72 861.44,134.38 864.71,134.93 867.98,135.89 871.26,135.89 874.53,135.09 877.81,142.00 881.08,134.16 884.36,133.76 887.63,155.81 890.90,158.30 894.18,143.16 897.45,138.70 900.73,138.54 904.00,145.76" />
<text x="808.00" y="76.00" font-size="13" font-family="Arial" fill="#1f77b4" text-anchor="start">RSI14</text>
<line x1="56" y1="432" x2="904" y2="432" stroke="#cbd2d9" />
<line x1="56" y1="272" x2="56" y2="432" stroke="#cbd2d9" />
<text x="16.00" y="264.00" font-size="12" font-family="Arial" fill="#52606d" text-anchor="start">MACD</text>
<line x1="56" y1="432.00" x2="904" y2="432.00" stroke="#edf2f7" />
<line x1="52" y1="432.00" x2="56" y2="432.00" stroke="#9fb3c8" />
<text x="48.00" y="436.00" font-size="11" font-family="Arial" fill="#52606d" text-anchor="end">-1.44</text>
<line x1="56" y1="378.67" x2="904" y2="378.67" stroke="#edf2f7" />
<line x1="52" y1="378.67" x2="56" y2="378.67" stroke="#9fb3c8" />
<text x="48.00" y="382.67" font-size="11" font-family="Arial" fill="#52606d" text-anchor="end">0.74</text>
<line x1="56" y1="325.33" x2="904" y2="325.33" stroke="#edf2f7" />
<line x1="52" y1="325.33" x2="56" y2="325.33" stroke="#9fb3c8" />
<text x="48.00" y="329.33" font-size="11" font-family="Arial" fill="#52606d" text-anchor="end">2.91</text>
<line x1="56" y1="272.00" x2="904" y2="272.00" stroke="#edf2f7" />
<line x1="52" y1="272.00" x2="56" y2="272.00" stroke="#9fb3c8" />
<text x="48.00" y="276.00" font-size="11" font-family="Arial" fill="#52606d" text-anchor="end">5.09</text>
<line x1="56" y1="396.74" x2="904" y2="396.74" stroke="#9fb3c8" stroke-dasharray="4 4" />
<rect x="136.71" y="396.74" width="2.28" height="0.00" fill="#2f9e44" opacity="0.55" />
<rect x="139.99" y="395.17" width="2.28" height="1.57" fill="#2f9e44" opacity="0.55" />
<rect x="143.26" y="394.40" width="2.28" height="2.34" fill="#2f9e44" opacity="0.55" />
<rect x="146.53" y="393.57" width="2.28" height="3.17" fill="#2f9e44" opacity="0.55" />
<rect x="149.81" y="393.29" width="2.28" height="3.45" fill="#2f9e44" opacity="0.55" />
<rect x="153.08" y="392.76" width="2.28" height="3.98" fill="#2f9e44" opacity="0.55" />
<rect x="156.36" y="393.11" width="2.28" height="3.63" fill="#2f9e44" opacity="0.55" />
<rect x="159.63" y="393.69" width="2.28" height="3.05" fill="#2f9e44" opacity="0.55" />
<rect x="162.90" y="394.17" width="2.28" height="2.57" fill="#2f9e44" opacity="0.55" />
<rect x="166.18" y="394.94" width="2.28" height="1.80" fill="#2f9e44" opacity="0.55" />
<rect x="169.45" y="396.74" width="2.28" height="1.27" fill="#d64545" opacity="0.55" />
<rect x="172.73" y="396.74" width="2.28" height="2.85" fill="#d64545" opacity="0.55" />
<rect x="176.00" y="396.74" width="2.28" height="4.26" fill="#d64545" opacity="0.55" />
<rect x="179.28" y="396.74" width="2.28" height="3.64" fill="#d64545" opacity="0.55" />
<rect x="182.55" y="396.74" width="2.28" height="3.14" fill="#d64545" opacity="0.55" />
<rect x="185.82" y="396.74" width="2.28" height="2.44" fill="#d64545" opacity="0.55" />
<rect x="189.10" y="396.74" width="2.28" height="2.79" fill="#d64545" opacity="0.55" />
<rect x="192.37" y="396.74" width="2.28" height="3.00" fill="#d64545" opacity="0.55" />
<rect x="195.65" y="396.74" width="2.28" height="3.89" fill="#d64545" opacity="0.55" />
<rect x="198.92" y="396.74" width="2.28" height="4.36" fill="#d64545" opacity="0.55" />
<rect x="202.19" y="396.74" width="2.28" height="4.63" fill="#d64545" opacity="0.55" />
<rect x="205.47" y="396.74" width="2.28" height="4.13" fill="#d64545" opacity="0.55" />
<rect x="208.74" y="396.74" width="2.28" height="2.85" fill="#d64545" opacity="0.55" />
<rect x="212.02" y="396.74" width="2.28" height="1.22" fill="#d64545" opacity="0.55" />
<rect x="215.29" y="396.13" width="2.28" height="0.61" fill="#2f9e44" opacity="0.55" />
<rect x="218.57" y="393.49" width="2.28" height="3.25" fill="#2f9e44" opacity="0.55" />
<rect x="221.84" y="391.34" width="2.28" height="5.40" fill="#2f9e44" opacity="0.55" />
<rect x="225.11" y="389.54" width="2.28" height="7.20" fill="#2f9e44" opacity="0.55" />
<rect x="228.39" y="388.92" width="2.28" height="7.82" fill="#2f9e44" opacity="0.55" />
<rect x="231.66" y="387.93" width="2.28" height="8.81" fill="#2f9e44" opacity="0.55" />
<rect x="234.94" y="388.56" width="2.28" height="8.19" fill="#2f9e44" opacity="0.55" />
<rect x="238.21" y="388.64" width="2.28" height="8.10" fill="#2f9e44" opacity="0.55" />
<rect x="241.48" y="389.24" width="2.28" height="7.50" fill="#2f9e44" opacity="0.55" />
<rect x="244.76" y="389.62" width="2.28" height="7.13" fill="#2f9e44" opacity="0.55" />
<rect x="248.03" y="388.85" width="2.28" height="7.89" fill="#2f9e44" opacity="0.55" />
<rect x="251.31" y="389.11" width="2.28" height="7.63" fill="#2f9e44" opacity="0.55" />
<rect x="254.58" y="390.26" width="2.28" height="6.48" fill="#2f9e44" opacity="0.55" />
<rect x="257.85" y="393.05" width="2.28" height="3.69" fill="#2f9e44" opacity="0.55" />
<rect x="261.13" y="394.45" width="2.28" height="2.29" fill="#2f9e44" opacity="0.55" />
<rect x="264.40" y="395.29" width="2.28" height="1.45" fill="#2f9e44" opacity="0.55" />
<rect x="267.68" y="394.50" width="2.28" height="2.24" fill="#2f9e44" opacity="0.55" />
<rect x="270.95" y="393.13" width="2.28" height="3.61" fill="#2f9e44" opacity="0.55" />
<rect x="274.23" y="390.25" width="2.28" height="6.49" fill="#2f9e44" opacity="0.55" />
<rect x="277.50" y="389.96" width="2.28" height="6.79" fill="#2f9e44" opacity="0.55" />
<rect x="280.77" y="389.78" width="2.28" height="6.96" fill="#2f9e44" opacity="0.55" />
<rect x="284.05" y="391.32" width="2.28" height="5.42" fill="#2f9e44" opacity="0.55" />
<rect x="287.32" y="393.40" width="2.28" height="3.34" fill="#2f9e44" opacity="0.55" />
<rect x="290.60" y="393.58" width="2.28" height="3.16" fill="#2f9e44" opacity="0.55" />
<rect x="293.87" y="392.40" width="2.28" height="4.34" fill="#2f9e44" opacity="0.55" />
<rect x="297.14" y="393.75" width="2.28" height="2.99" fill="#2f9e44" opacity="0.55" />
<rect x="300.42" y="393.55" width="2.28" height="3.19" fill="#2f9e44" opacity="0.55" />
<rect x="303.69" y="393.85" width="2.28" height="2.90" fill="#2f9e44" opacity="0.55" />
<rect x="306.97" y="395.37" width="2.28" height="1.37" fill="#2f9e44" opacity="0.55" />
<rect x="310.24" y="396.74" width="2.28" height="0.62" fill="#d64545" opacity="0.55" />
<rect x="313.51" y="396.74" width="2.28" height="0.03" fill="#d64545" opacity="0.55" />
<rect x="316.79" y="396.74" width="2.28" height="0.77" fill="#d64545" opacity="0.55" />
<rect x="320.06" y="396.74" width="2.28" height="0.00" fill="#d64545" opacity="0.55" />
<rect x="323.34" y="396.68" width="2.28" height="0.06" fill="#2f9e44" opacity="0.55" />
<rect x="326.61" y="396.53" width="2.28" height="0.21" fill="#2f9e44" opacity="0.55" />
<rect x="329.89" y="396.74" width="2.28" height="1.04" fill="#d64545" opacity="0.55" />
<rect x="333.16" y="396.74" width="2.28" height="2.50" fill="#d64545" opacity="0.55" />
<rect x="336.43" y="396.74" width="2.28" height="4.92" fill="#d64545" opacity="0.55" />
<rect x="339.71" y="396.74" width="2.28" height="6.35" fill="#d64545" opacity="0.55" />
<rect x="342.98" y="396.74" width="2.28" height="8.45" fill="#d64545" opacity="0.55" />
<rect x="346.26" y="396.74" width="2.28" height="8.46" fill="#d64545" opacity="0.55" />
<rect x="349.53" y="396.74" width="2.28" height="9.07" fill="#d64545" opacity="0.55" />
<rect x="352.80" y="396.74" width="2.28" height="8.83" fill="#d64545" opacity="0.55" />
<rect x="356.08" y="396.74" width="2.28" height="8.99" fill="#d64545" opacity="0.55" />
<rect x="359.35" y="396.74" width="2.28" height="10.75" fill="#d64545" opacity="0.55" />
<rect x="362.63" y="396.74" width="2.28" height="11.24" fill="#d64545" opacity="0.55" />
<rect x="365.90" y="396.74" width="2.28" height="13.42" fill="#d64545" opacity="0.55" />
<rect x="369.18" y="396.74" width="2.28" height="14.90" fill="#d64545" opacity="0.55" />
<rect x="372.45" y="396.74" width="2.28" height="12.38" fill="#d64545" opacity="0.55" />
<rect x="375.72" y="396.74" width="2.28" height="13.44" fill="#d64545" opacity="0.55" />
<rect x="379.00" y="396.74" width="2.28" height="13.97" fill="#d64545" opacity="0.55" />
<rect x="382.27" y="396.74" width="2.28" height="12.43" fill="#d64545" opacity="0.55" />
<rect x="385.55" y="396.74" width="2.28" height="9.33" fill="#d64545" opacity="0.55" />
<rect x="388.82" y="396.74" width="2.28" height="6.08" fill="#d64545" opacity="0.55" />
<rect x="392.09" y="396.74" width="2.28" height="3.06" fill="#d64545" opacity="0.55" />
<rect x="395.37" y="396.74" width="2.28" height="2.32" fill="#d64545" opacity="0.55" />
<rect x="398.64" y="396.74" width="2.28" height="1.43" fill="#d64545" opacity="0.55" />
<rect x="401.92" y="396.62" width="2.28" height="0.12" fill="#2f9e44" opacity="0.55" />
<rect x="405.19" y="395.81" width="2.28" height="0.93" fill="#2f9e44" opacity="0.55" />
<rect x="408.46" y="394.52" width="2.28" height="2.23" fill="#2f9e44" opacity="0.55" />
<rect x="411.74" y="392.37" width="2.28" height="4.37" fill="#2f9e44" opacity="0.55" />
<rect x="415.01" y="391.43" width="2.28" height="5.31" fill="#2f9e44" opacity="0.55" />
<rect x="418.29" y="390.46" width="2.28" height="6.28" fill="#2f9e44" opacity="0.55" />
<rect x="421.56" y="391.30" width="2.28" height="5.44" fill="#2f9e44" opacity="0.55" />
<rect x="424.84" y="392.02" width="2.28" height="4.72" fill="#2f9e44" opacity="0.55" />
<rect x="428.11" y="393.78" width="2.28" height="2.96" fill="#2f9e44" opacity="0.55" />
<rect x="431.38" y="395.96" width="2.28" height="0.78" fill="#2f9e44" opacity="0.55" />
<rect x="434.66" y="396.74" width="2.28" height="1.24" fill="#d64545" opacity="0.55" />
<rect x="437.93" y="396.74" width="2.28" height="2.52" fill="#d64545" opacity="0.55" />
<rect x="441.21" y="396.74" width="2.28" height="2.33" fill="#d64545" opacity="0.55" />
<rect x="444.48" y="396.74" width="2.28" height="0.78" fill="#d64545" opacity="0.55" />
<rect x="447.75" y="396.11" width="2.28" height="0.63" fill="#2f9e44" opacity="0.55" />
<rect x="451.03" y="395.09" width="2.28" height="1.65" fill="#2f9e44" opacity="0.55" />
<rect x="454.30" y="393.76" width="2.28" height="2.98" fill="#2f9e44" opacity="0.55" />
<rect x="457.58" y="391.86" width="2.28" height="4.88" fill="#2f9e44" opacity="0.55" />
<rect x="460.85" y="391.16" width="2.28" height="5.58" fill="#2f9e44" opacity="0.55" />
<rect x="464.12" y="390.42" width="2.28" height="6.32" fill="#2f9e44" opacity="0.55" />
<rect x="467.40" y="388.33" width="2.28" height="8.41" fill="#2f9e44" opacity="0.55" />
<rect x="470.67" y="383.68" width="2.28" height="13.06" fill="#2f9e44" opacity="0.55" />
<rect x="473.95" y="380.24" width="2.28" height="16.50" fill="#2f9e44" opacity="0.55" />
<rect x="477.22" y="379.99" width="2.28" height="16.76" fill="#2f9e44" opacity="0.55" />
<rect x="480.50" y="380.56" width="2.28" height="16.18" fill="#2f9e44" opacity="0.55" />
<rect x="483.77" y="382.42" width="2.28" height="14.32" fill="#2f9e44" opacity="0.55" />
<rect x="487.04" y="383.88" width="2.28" height="12.86" fill="#2f9e44" opacity="0.55" />
<rect x="490.32" y="385.27" width="2.28" height="11.47" fill="#2f9e44" opacity="0.55" />
<rect x="493.59" y="387.03" width="2.28" height="9.71" fill="#2f9e44" opacity="0.55" />
<rect x="496.87" y="389.17" width="2.28" height="7.57" fill="#2f9e44" opacity="0.55" />
<rect x="500.14" y="389.25" width="2.28" height="7.49" fill="#2f9e44" opacity="0.55" />
<rect x="503.41" y="389.19" width="2.28" height="7.55" fill="#2f9e44" opacity="0.55" />
<rect x="506.69" y="389.98" width="2.28" height="6.76" fill="#2f9e44" opacity="0.55" />
<rect x="509.96" y="392.43" width="2.28" height="4.31" fill="#2f9e44" opacity="0.55" />
<rect x="513.24" y="393.18" width="2.28" height="3.56" fill="#2f9e44" opacity="0.55" />
<rect x="516.51" y="393.60" width="2.28" height="3.14" fill="#2f9e44" opacity="0.55" />
<rect x="519.79" y="394.51" width="2.28" height="2.23" fill="#2f9e44" opacity="0.55" />
<rect x="523.06" y="394.43" width="2.28" height="2.31" fill="#2f9e44" opacity="0.55" />
<rect x="526.33" y="393.20" width="2.28" height="3.54" fill="#2f9e44" opacity="0.55" />
<rect x="529.61" y="393.81" width="2.28" height="2.93" fill="#2f9e44" opacity="0.55" />
<rect x="532.88" y="396.64" width="2.28" height="0.10" fill="#2f9e44" opacity="0.55" />
<rect x="536.16" y="396.74" width="2.28" height="3.88" fill="#d64545" opacity="0.55" />
<rect x="539.43" y="396.74" width="2.28" height="4.42" fill="#d64545" opacity="0.55" />
<rect x="542.70" y="396.74" width="2.28" height="5.08" fill="#d64545" opacity="0.55" />
<rect x="545.98" y="396.74" width="2.28" height="7.10" fill="#d64545" opacity="0.55" />
<rect x="549.25" y="396.74" width="2.28" height="8.60" fill="#d64545" opacity="0.55" />
<rect x="552.53" y="396.74" width="2.28" height="6.34" fill="#d64545" opacity="0.55" />
<rect x="555.80" y="396.74" width="2.28" height="2.60" fill="#d64545" opacity="0.55" />
<rect x="559.07" y="394.64" width="2.28" height="2.10" fill="#2f9e44" opacity="0.55" />
<rect x="562.35" y="391.91" width="2.28" height="4.84" fill="#2f9e44" opacity="0.55" />
<rect x="565.62" y="387.77" width="2.28" height="8.97" fill="#2f9e44" opacity="0.55" />
<rect x="568.90" y="383.45" width="2.28" height="13.29" fill="#2f9e44" opacity="0.55" />
<rect x="572.17" y="381.85" width="2.28" height="14.89" fill="#2f9e44" opacity="0.55" />
<rect x="575.45" y="383.38" width="2.28" height="13.36" fill="#2f9e44" opacity="0.55" />
<rect x="578.72" y="388.08" width="2.28" height="8.66" fill="#2f9e44" opacity="0.55" />
<rect x="581.99" y="396.74" width="2.28" height="0.20" fill="#d64545" opacity="0.55" />
<rect x="585.27" y="396.74" width="2.28" height="3.51" fill="#d64545" opacity="0.55" />
<rect x="588.54" y="396.74" width="2.28" height="6.81" fill="#d64545" opacity="0.55" />
<rect x="591.82" y="396.74" width="2.28" height="14.12" fill="#d64545" opacity="0.55" />
<rect x="595.09" y="396.74" width="2.28" height="15.98" fill="#d64545" opacity="0.55" />
<rect x="598.36" y="396.74" width="2.28" height="12.12" fill="#d64545" opacity="0.55" />
<rect x="601.64" y="396.74" width="2.28" height="11.99" fill="#d64545" opacity="0.55" />
<rect x="604.91" y="396.74" width="2.28" height="12.72" fill="#d64545" opacity="0.55" />
<rect x="608.19" y="396.74" width="2.28" height="13.44" fill="#d64545" opacity="0.55" />
<rect x="611.46" y="396.74" width="2.28" height="11.91" fill="#d64545" opacity="0.55" />
<rect x="614.73" y="396.74" width="2.28" height="8.87" fill="#d64545" opacity="0.55" />
<rect x="618.01" y="396.74" width="2.28" height="9.61" fill="#d64545" opacity="0.55" />
<rect x="621.28" y="396.74" width="2.28" height="10.01" fill="#d64545" opacity="0.55" />
<rect x="624.56" y="396.74" width="2.28" height="12.57" fill="#d64545" opacity="0.55" />
<rect x="627.83" y="396.74" width="2.28" height="13.52" fill="#d64545" opacity="0.55" />
<rect x="631.11" y="396.74" width="2.28" height="10.82" fill="#d64545" opacity="0.55" />
<rect x="634.38" y="396.74" width="2.28" height="9.36" fill="#d64545" opacity="0.55" />
<rect x="637.65" y="396.74" width="2.28" height="9.36" fill="#d64545" opacity="0.55" />
<rect x="640.93" y="396.74" width="2.28" height="10.72" fill="#d64545" opacity="0.55" />
<rect x="644.20" y="396.74" width="2.28" height="13.53" fill="#d64545" opacity="0.55" />
<rect x="647.48" y="396.74" width="2.28" height="9.85" fill="#d64545" opacity="0.55" />
<rect x="650.75" y="396.74" width="2.28" height="9.42" fill="#d64545" opacity="0.55" />
<rect x="654.02" y="396.74" width="2.28" height="6.60" fill="#d64545" opacity="0.55" />
<rect x="657.30" y="395.19" width="2.28" height="1.55" fill="#2f9e44" opacity="0.55" />
<rect x="660.57" y="390.27" width="2.28" height="6.47" fill="#2f9e44" opacity="0.55" />
<rect x="663.85" y="385.08" width="2.28" height="11.66" fill="#2f9e44" opacity="0.55" />
<rect x="667.12" y="382.74" width="2.28" height="14.00" fill="#2f9e44" opacity="0.55" />
<rect x="670.40" y="378.22" width="2.28" height="18.52" fill="#2f9e44" opacity="0.55" />
<rect x="673.67" y="374.87" width="2.28" height="21.87" fill="#2f9e44" opacity="0.55" />
<rect x="676.94" y="372.79" width="2.28" height="23.95" fill="#2f9e44" opacity="0.55" />
<rect x="680.22" y="374.32" width="2.28" height="22.42" fill="#2f9e44" opacity="0.55" />
<rect x="683.49" y="376.12" width="2.28" height="20.62" fill="#2f9e44" opacity="0.55" />
<rect x="686.77" y="376.43" width="2.28" height="20.31" fill="#2f9e44" opacity="0.55" />
<rect x="690.04" y="377.53" width="2.28" height="19.21" fill="#2f9e44" opacity="0.55" />
<rect x="693.31" y="379.67" width="2.28" height="17.07" fill="#2f9e44" opacity="0.55" />
<rect x="696.59" y="376.78" width="2.28" height="19.96" fill="#2f9e44" opacity="0.55" />
<rect x="699.86" y="371.80" width="2.28" height="24.94" fill="#2f9e44" opacity="0.55" />
<rect x="703.14" y="372.12" width="2.28" height="24.63" fill="#2f9e44" opacity="0.55" />
<rect x="706.41" y="376.18" width="2.28" height="20.56" fill="#2f9e44" opacity="0.55" />
<rect x="709.68" y="380.88" width="2.28" height="15.86" fill="#2f9e44" opacity="0.55" />
<rect x="712.96" y="379.00" width="2.28" height="17.74" fill="#2f9e44" opacity="0.55" />
<rect x="716.23" y="379.50" width="2.28" height="17.24" fill="#2f9e44" opacity="0.55" />
<rect x="719.51" y="379.74" width="2.28" height="17.01" fill="#2f9e44" opacity="0.55" />
<rect x="722.78" y="378.58" width="2.28" height="18.17" fill="#2f9e44" opacity="0.55" />
<rect x="726.06" y="380.77" width="2.28" height="15.97" fill="#2f9e44" opacity="0.55" />
<rect x="729.33" y="384.05" width="2.28" height="12.70" fill="#2f9e44" opacity="0.55" />
<rect x="732.60" y="387.79" width="2.28" height="8.95" fill="#2f9e44" opacity="0.55" />
<rect x="735.88" y="393.66" width="2.28" height="3.08" fill="#2f9e44" opacity="0.55" />
<rect x="739.15" y="396.74" width="2.28" height="0.88" fill="#d64545" opacity="0.55" />
<rect x="742.43" y="396.74" width="2.28" height="5.29" fill="#d64545" opacity="0.55" />
<rect x="745.70" y="396.74" width="2.28" height="9.52" fill="#d64545" opacity="0.55" />
<rect x="748.97" y="396.74" width="2.28" height="15.40" fill="#d64545" opacity="0.55" />
<rect x="752.25" y="396.74" width="2.28" height="20.11" fill="#d64545" opacity="0.55" />
<rect x="755.52" y="396.74" width="2.28" height="17.65" fill="#d64545" opacity="0.55" />
<rect x="758.80" y="396.74" width="2.28" height="13.74" fill="#d64545" opacity="0.55" />
<rect x="762.07" y="396.74" width="2.28" height="5.91" fill="#d64545" opacity="0.55" />
<rect x="765.34" y="396.74" width="2.28" height="2.55" fill="#d64545" opacity="0.55" />
<rect x="768.62" y="394.01" width="2.28" height="2.73" fill="#2f9e44" opacity="0.55" />
<rect x="771.89" y="394.79" width="2.28" height="1.95" fill="#2f9e44" opacity="0.55" />
<rect x="775.17" y="388.54" width="2.28" height="8.20" fill="#2f9e44" opacity="0.55" />
<rect x="778.44" y="385.69" width="2.28" height="11.05" fill="#2f9e44" opacity="0.55" />
<rect x="781.72" y="384.99" width="2.28" height="11.75" fill="#2f9e44" opacity="0.55" />
<rect x="784.99" y="383.05" width="2.28" height="13.69" fill="#2f9e44" opacity="0.55" />
<rect x="788.26" y="385.77" width="2.28" height="10.98" fill="#2f9e44" opacity="0.55" />
<rect x="791.54" y="391.97" width="2.28" height="4.77" fill="#2f9e44" opacity="0.55" />
<rect x="794.81" y="396.74" width="2.28" height="5.26" fill="#d64545" opacity="0.55" />
<rect x="798.09" y="396.74" width="2.28" height="8.20" fill="#d64545" opacity="0.55" />
<rect x="801.36" y="396.74" width="2.28" height="15.55" fill="#d64545" opacity="0.55" />
<rect x="804.63" y="396.74" width="2.28" height="20.80" fill="#d64545" opacity="0.55" />
<rect x="807.91" y="396.74" width="2.28" height="20.54" fill="#d64545" opacity="0.55" />
<rect x="811.18" y="396.74" width="2.28" height="14.92" fill="#d64545" opacity="0.55" />
<rect x="814.46" y="396.74" width="2.28" height="10.32" fill="#d64545" opacity="0.55" />
<rect x="817.73" y="396.74" width="2.28" height="7.43" fill="#d64545" opacity="0.55" />
<rect x="821.01" y="396.74" width="2.28" height="3.89" fill="#d64545" opacity="0.55" />
<rect x="824.28" y="392.88" width="2.28" height="3.86" fill="#2f9e44" opacity="0.55" />
<rect x="827.55" y="390.54" width="2.28" height="6.20" fill="#2f9e44" opacity="0.55" />
<rect x="830.83" y="394.67" width="2.28" height="2.07" fill="#2f9e44" opacity="0.55" />
<rect x="834.10" y="396.74" width="2.28" height="1.25" fill="#d64545" opacity="0.55" />
<rect x="837.38" y="396.74" width="2.28" height="10.33" fill="#d64545" opacity="0.55" />
<rect x="840.65" y="396.74" width="2.28" height="14.05" fill="#d64545" opacity="0.55" />
<rect x="843.92" y="396.74" width="2.28" height="11.07" fill="#d64545" opacity="0.55" />
<rect x="847.20" y="396.74" width="2.28" height="6.82" fill="#d64545" opacity="0.55" />
<rect x="850.47" y="396.74" width="2.28" height="5.26" fill="#d64545" opacity="0.55" />
<rect x="853.75" y="396.74" width="2.28" height="5.28" fill="#d64545" opacity="0.55" />
<rect x="857.02" y="396.74" width="2.28" height="5.75" fill="#d64545" opacity="0.55" />
<rect x="860.29" y="396.74" width="2.28" height="9.48" fill="#d64545" opacity="0.55" />
<rect x="863.57" y="396.74" width="2.28" height="12.10" fill="#d64545" opacity="0.55" />
<rect x="866.84" y="396.74" width="2.28" height="14.00" fill="#d64545" opacity="0.55" />
<rect x="870.12" y="396.74" width="2.28" height="14.94" fill="#d64545" opacity="0.55" />
<rect x="873.39" y="396.74" width="2.28" height="14.87" fill="#d64545" opacity="0.55" />
<rect x="876.67" y="396.74" width="2.28" height="16.95" fill="#d64545" opacity="0.55" />
<rect x="879.94" y="396.74" width="2.28" height="14.78" fill="#d64545" opacity="0.55" />
<rect x="883.21" y="396.74" width="2.28" height="12.83" fill="#d64545" opacity="0.55" />
<rect x="886.49" y="396.74" width="2.28" height="20.95" fill="#d64545" opacity="0.55" />
<rect x="889.76" y="396.74" width="2.28" height="26.69" fill="#d64545" opacity="0.55" />
<rect x="893.04" y="396.74" width="2.28" height="22.98" fill="#d64545" opacity="0.55" />
<rect x="896.31" y="396.74" width="2.28" height="17.49" fill="#d64545" opacity="0.55" />
<rect x="899.58" y="396.74" width="2.28" height="13.16" fill="#d64545" opacity="0.55" />
<rect x="902.86" y="396.74" width="2.28" height="13.27" fill="#d64545" opacity="0.55" />
<polyline fill="none" stroke="#1f77b4" stroke-width="2" points="137.85,382.22 141.13,380.25 144.40,378.90 147.68,377.28 150.95,376.13 154.22,374.61 157.50,374.05 160.77,373.87 164.05,373.70 167.32,374.03 170.59,377.41 173.87,379.71 177.14,382.19 180.42,382.47 183.69,382.76 186.97,382.67 190.24,383.71 193.51,384.68 196.79,386.53 200.06,388.10 203.34,389.52 206.61,390.05 209.88,389.49 213.16,388.17 216.43,386.18 219.71,382.73 222.98,379.23 226.25,375.63 229.53,373.05 232.80,369.86 236.08,368.44 239.35,366.50 242.63,365.22 245.90,363.82 249.17,361.08 252.45,359.44 255.72,358.96 259.00,360.83 262.27,361.66 265.54,362.13 268.82,360.79 272.09,358.51 275.37,354.01 278.64,352.02 281.92,350.10 285.19,350.29 288.46,351.54 291.74,350.92 295.01,348.66 298.29,349.26 301.56,348.26 304.83,347.83 308.11,349.02 311.38,351.16 314.66,350.58 317.93,351.51 321.20,350.74 324.48,350.67 327.75,350.46 331.03,351.98 334.30,354.06 337.58,357.71 340.85,360.73 344.12,364.94 347.40,367.07 350.67,369.94 353.95,371.92 357.22,374.32 360.49,378.76 363.77,382.07 367.04,387.60 370.32,392.80 373.59,393.38 376.86,397.80 380.14,401.83 383.41,403.39 386.69,402.62 389.96,400.90 393.24,398.64 396.51,398.48 399.78,397.95 403.06,396.37 406.33,395.33 409.61,393.47 412.88,390.24 416.15,387.97 419.43,385.43 422.70,384.91 425.98,384.44 429.25,385.46 432.53,387.45 435.80,389.78 439.07,391.68 442.35,392.08 445.62,390.73 448.90,389.16 452.17,387.73 455.44,385.65 458.72,382.53 461.99,380.43 465.27,378.11 468.54,373.92 471.81,366.01 475.09,358.44 478.36,354.00 481.64,350.52 484.91,348.81 488.19,347.05 491.46,345.57 494.73,344.90 498.01,345.16 501.28,343.36 504.56,341.41 507.83,340.51 511.10,341.89 514.38,341.74 517.65,341.38 520.93,341.73 524.20,341.07 527.47,338.96 530.75,338.84 534.02,341.64 537.30,346.59 540.57,348.23 543.85,350.17 547.12,353.96 550.39,357.62 553.67,356.94 556.94,353.85 560.22,348.62 563.49,344.68 566.76,338.30 570.04,330.66 573.31,325.33 576.59,323.53 579.86,326.06 583.14,334.97 586.41,339.15 589.68,344.16 592.96,354.99 596.23,360.85 599.51,360.02 602.78,362.89 606.05,366.79 609.33,370.87 612.60,372.32 615.88,371.50 619.15,374.64 622.42,377.55 625.70,383.25 628.97,387.59 632.25,387.59 635.52,388.47 638.80,390.81 642.07,394.84 645.34,401.04 648.62,399.82 651.89,401.75 655.17,400.58 658.44,392.04 661.71,385.50 664.99,377.39 668.26,371.55 671.54,362.41 674.81,353.59 678.08,345.52 681.36,341.44 684.63,338.09 687.91,333.32 691.18,329.62 694.46,327.49 697.73,319.62 701.00,308.40 704.28,302.56 707.55,301.48 710.83,302.22 714.10,295.90 717.37,292.10 720.65,288.08 723.92,282.37 727.20,280.57 730.47,280.68 733.75,282.18 737.02,287.29 740.29,291.47 743.57,297.20 746.84,303.80 750.12,313.53 753.39,323.27 756.66,325.22 759.94,324.75 763.21,318.40 766.49,315.68 769.76,309.71 773.03,310.01 776.31,301.71 779.58,296.09 782.86,292.45 786.13,287.10 789.41,287.06 792.68,292.08 795.95,303.42 799.23,308.41 802.50,319.65 805.78,330.10 809.05,334.98 812.32,333.08 815.60,331.06 818.87,330.03 822.15,327.46 825.42,318.75 828.69,314.86 831.97,318.48 835.24,322.10 838.52,333.76 841.79,340.99 845.07,340.78 848.34,338.24 851.61,337.99 854.89,339.34 858.16,341.24 861.44,347.34 864.71,352.98 867.98,358.39 871.26,363.06 874.53,366.71 877.81,373.02 881.08,374.55 884.36,375.80 887.63,389.17 890.90,401.57 894.18,403.61 897.45,402.49 900.73,401.45 904.00,404.88" />
<polyline fill="none" stroke="#ff7f0e" stroke-width="2" points="137.85,382.22 141.13,381.82 144.40,381.24 147.68,380.45 150.95,379.58 154.22,378.59 157.50,377.68 160.77,376.92 164.05,376.28 167.32,375.83 170.59,376.14 173.87,376.86 177.14,377.92 180.42,378.83 183.69,379.62 186.97,380.23 190.24,380.92 193.51,381.68 196.79,382.65 200.06,383.74 203.34,384.89 206.61,385.93 209.88,386.64 213.16,386.94 216.43,386.79 219.71,385.98 222.98,384.63 226.25,382.83 229.53,380.87 232.80,378.67 236.08,376.62 239.35,374.60 242.63,372.72 245.90,370.94 249.17,368.97 252.45,367.06 255.72,365.44 259.00,364.52 262.27,363.95 265.54,363.58 268.82,363.02 272.09,362.12 275.37,360.50 278.64,358.80 281.92,357.06 285.19,355.71 288.46,354.87 291.74,354.08 295.01,353.00 298.29,352.25 301.56,351.45 304.83,350.73 308.11,350.39 311.38,350.54 314.66,350.55 317.93,350.74 321.20,350.74 324.48,350.73 327.75,350.67 331.03,350.93 334.30,351.56 337.58,352.79 340.85,354.38 344.12,356.49 347.40,358.61 350.67,360.87 353.95,363.08 357.22,365.33 360.49,368.02 363.77,370.83 367.04,374.18 370.32,377.91 373.59,381.00 376.86,384.36 380.14,387.85 383.41,390.96 386.69,393.29 389.96,394.81 393.24,395.58 396.51,396.16 399.78,396.52 403.06,396.49 406.33,396.25 409.61,395.70 412.88,394.61 416.15,393.28 419.43,391.71 422.70,390.35 425.98,389.17 429.25,388.43 432.53,388.23 435.80,388.54 439.07,389.17 442.35,389.75 445.62,389.95 448.90,389.79 452.17,389.38 455.44,388.63 458.72,387.41 461.99,386.01 465.27,384.43 468.54,382.33 471.81,379.07 475.09,374.94 478.36,370.75 481.64,366.71 484.91,363.13 488.19,359.91 491.46,357.04 494.73,354.62 498.01,352.72 501.28,350.85 504.56,348.96 507.83,347.27 511.10,346.20 514.38,345.30 517.65,344.52 520.93,343.96 524.20,343.38 527.47,342.50 530.75,341.77 534.02,341.74 537.30,342.71 540.57,343.82 543.85,345.09 547.12,346.86 550.39,349.01 553.67,350.60 556.94,351.25 560.22,350.72 563.49,349.51 566.76,347.27 570.04,343.95 573.31,340.23 576.59,336.89 579.86,334.72 583.14,334.77 586.41,335.65 589.68,337.35 592.96,340.88 596.23,344.87 599.51,347.90 602.78,350.90 606.05,354.08 609.33,357.44 612.60,360.41 615.88,362.63 619.15,365.03 622.42,367.54 625.70,370.68 628.97,374.06 632.25,376.77 635.52,379.11 638.80,381.45 642.07,384.13 645.34,387.51 648.62,389.97 651.89,392.33 655.17,393.98 658.44,393.59 661.71,391.97 664.99,389.05 668.26,385.55 671.54,380.92 674.81,375.46 678.08,369.47 681.36,363.86 684.63,358.71 687.91,353.63 691.18,348.83 694.46,344.56 697.73,339.57 701.00,333.34 704.28,327.18 707.55,322.04 710.83,318.08 714.10,313.64 717.37,309.33 720.65,305.08 723.92,300.54 727.20,296.55 730.47,293.37 733.75,291.13 737.02,290.36 740.29,290.58 743.57,291.91 746.84,294.29 750.12,298.14 753.39,303.16 756.66,307.58 759.94,311.01 763.21,312.49 766.49,313.13 769.76,312.44 773.03,311.96 776.31,309.91 779.58,307.14 782.86,304.21 786.13,300.78 789.41,298.04 792.68,296.85 795.95,298.16 799.23,300.21 802.50,304.10 805.78,309.30 809.05,314.43 812.32,318.16 815.60,320.74 818.87,322.60 822.15,323.57 825.42,322.61 828.69,321.06 831.97,320.54 835.24,320.85 838.52,323.44 841.79,326.95 845.07,329.72 848.34,331.42 851.61,332.74 854.89,334.06 858.16,335.49 861.44,337.86 864.71,340.89 867.98,344.39 871.26,348.12 874.53,351.84 877.81,356.08 881.08,359.77 884.36,362.98 887.63,368.22 890.90,374.89 894.18,380.63 897.45,385.00 900.73,388.29 904.00,391.61" />
<text x="754.00" y="290.00" font-size="13" font-family="Arial" fill="#1f77b4" text-anchor="start">MACD</text>
<text x="818.00" y="290.00" font-size="13" font-family="Arial" fill="#ff7f0e" text-anchor="start">Signal</text>
<line x1="56" y1="624" x2="904" y2="624" stroke="#cbd2d9" />
<line x1="56" y1="484" x2="56" y2="624" stroke="#cbd2d9" />
<text x="16.00" y="476.00" font-size="12" font-family="Arial" fill="#52606d" text-anchor="start">KD</text>
<line x1="56" y1="624.00" x2="904" y2="624.00" stroke="#edf2f7" />
<line x1="52" y1="624.00" x2="56" y2="624.00" stroke="#9fb3c8" />
<text x="48.00" y="628.00" font-size="11" font-family="Arial" fill="#52606d" text-anchor="end">-5.00</text>
<line x1="56" y1="577.33" x2="904" y2="577.33" stroke="#edf2f7" />
<line x1="52" y1="577.33" x2="56" y2="577.33" stroke="#9fb3c8" />
<text x="48.00" y="581.33" font-size="11" font-family="Arial" fill="#52606d" text-anchor="end">31.7</text>
<line x1="56" y1="530.67" x2="904" y2="530.67" stroke="#edf2f7" />
<line x1="52" y1="530.67" x2="56" y2="530.67" stroke="#9fb3c8" />
<text x="48.00" y="534.67" font-size="11" font-family="Arial" fill="#52606d" text-anchor="end">68.3</text>
<line x1="56" y1="484.00" x2="904" y2="484.00" stroke="#edf2f7" />
<line x1="52" y1="484.00" x2="56" y2="484.00" stroke="#9fb3c8" />
<text x="48.00" y="488.00" font-size="11" font-family="Arial" fill="#52606d" text-anchor="end">105</text>
<line x1="56.00" y1="624" x2="56.00" y2="628" stroke="#9fb3c8" />
<text x="56.00" y="642.00" font-size="11" font-family="Arial" fill="#52606d" text-anchor="middle">07/02</text>
<line x1="226.25" y1="624" x2="226.25" y2="628" stroke="#9fb3c8" />
<text x="226.25" y="642.00" font-size="11" font-family="Arial" fill="#52606d" text-anchor="middle">09/12</text>
<line x1="396.51" y1="624" x2="396.51" y2="628" stroke="#9fb3c8" />
<text x="396.51" y="642.00" font-size="11" font-family="Arial" fill="#52606d" text-anchor="middle">12/01</text>
<line x1="563.49" y1="624" x2="563.49" y2="628" stroke="#9fb3c8" />
<text x="563.49" y="642.00" font-size="11" font-family="Arial" fill="#52606d" text-anchor="middle">02/23</text>
<line x1="733.75" y1="624" x2="733.75" y2="628" stroke="#9fb3c8" />
<text x="733.75" y="642.00" font-size="11" font-family="Arial" fill="#52606d" text-anchor="middle">05/12</text>
<line x1="904.00" y1="624" x2="904.00" y2="628" stroke="#9fb3c8" />
<text x="904.00" y="642.00" font-size="11" font-family="Arial" fill="#52606d" text-anchor="middle">07/24</text>
<line x1="56" y1="592.18" x2="904" y2="592.18" stroke="#f0b429" stroke-dasharray="5 5" />
<text x="912.00" y="596.18" font-size="10" font-family="Arial" fill="#8d2b0b" text-anchor="start">20.0</text>
<line x1="56" y1="515.82" x2="904" y2="515.82" stroke="#f0b429" stroke-dasharray="5 5" />
<text x="912.00" y="519.82" font-size="10" font-family="Arial" fill="#8d2b0b" text-anchor="start">80.0</text>
<polyline fill="none" stroke="#2ca02c" stroke-width="2" points="82.19,581.16 85.47,583.15 88.74,580.29 92.02,574.16 95.29,565.32 98.56,562.15 101.84,571.62 105.11,578.41 108.39,577.71 111.66,580.59 114.93,596.30 118.21,628.65 121.48,633.27 124.76,619.42 128.03,624.04 131.31,636.36 134.58,624.56 137.85,630.54 141.13,605.35 144.40,588.56 147.68,576.26 150.95,567.30 154.22,557.36 157.50,553.51 160.77,554.20 164.05,552.22 167.32,562.09 170.59,599.09 173.87,617.19 177.14,634.73 180.42,625.63 183.69,618.35 186.97,607.88 190.24,612.14 193.51,615.00 196.79,629.61 200.06,644.96 203.34,656.58 206.61,658.44 209.88,643.35 213.16,622.07 216.43,599.80 219.71,578.23 222.98,564.81 226.25,551.11 229.53,542.34 232.80,536.34 236.08,537.38 239.35,534.69 242.63,534.45 245.90,535.89 249.17,537.33 252.45,544.01 255.72,551.82 259.00,574.34 262.27,582.47 265.54,583.27 268.82,571.95 272.09,560.51 275.37,547.86 278.64,544.14 281.92,539.31 285.19,540.99 288.46,548.62 291.74,544.96 295.01,539.56 298.29,546.62 301.56,543.83 304.83,543.88 308.11,549.05 311.38,556.09 314.66,551.78 317.93,554.57 321.20,554.07 324.48,556.21 327.75,552.86 331.03,558.81 334.30,565.71 337.58,581.04 340.85,597.54 344.12,620.77 347.40,623.21 350.67,632.18 353.95,633.26 357.22,638.88 360.49,643.19 363.77,648.15 367.04,651.10 370.32,651.60 373.59,631.69 376.86,635.49 380.14,641.48 383.41,637.17 386.69,620.16 389.96,600.51 393.24,582.34 396.51,582.21 399.78,579.30 403.06,569.67 406.33,564.61 409.61,559.83 412.88,556.58 416.15,560.73 419.43,558.84 422.70,568.99 425.98,577.19 429.25,598.28 432.53,615.15 435.80,631.60 439.07,639.61 442.35,636.49 445.62,621.73 448.90,607.66 452.17,593.50 455.44,578.97 458.72,565.04 461.99,556.84 465.27,550.01 468.54,542.73 471.81,536.98 475.09,530.05 478.36,529.41 481.64,528.05 484.91,529.91 488.19,528.42 491.46,528.57 494.73,530.42 498.01,543.39 501.28,546.02 504.56,545.35 507.83,544.90 511.10,552.59 514.38,553.98 517.65,548.57 520.93,544.97 524.20,534.43 527.47,526.09 530.75,530.82 534.02,551.55 537.30,571.61 540.57,567.99 543.85,566.17 547.12,575.49 550.39,581.91 553.67,562.83 556.94,542.80 560.22,529.89 563.49,525.14 566.76,517.05 570.04,512.74 573.31,509.68 576.59,510.71 579.86,522.51 583.14,551.02 586.41,563.58 589.68,575.64 592.96,583.35 596.23,581.84 599.51,567.60 602.78,563.48 606.05,562.91 609.33,560.57 612.60,552.86 615.88,539.28 619.15,541.30 622.42,555.22 625.70,571.94 628.97,581.37 632.25,571.67 635.52,568.76 638.80,573.92 642.07,583.22 645.34,596.83 648.62,578.10 651.89,579.07 655.17,567.60 658.44,545.02 661.71,531.06 664.99,520.14 668.26,514.47 671.54,508.75 674.81,508.10 678.08,504.49 681.36,505.70 684.63,507.02 687.91,505.07 691.18,505.10 694.46,515.20 697.73,509.73 701.00,510.64 704.28,515.49 707.55,523.88 710.83,531.31 714.10,520.40 717.37,513.58 720.65,512.08 723.92,509.89 727.20,513.42 730.47,516.27 733.75,518.42 737.02,527.28 740.29,535.70 743.57,555.08 746.84,567.40 750.12,588.65 753.39,602.04 756.66,586.61 759.94,565.78 763.21,544.66 766.49,537.02 769.76,528.77 773.03,531.63 776.31,519.97 779.58,515.57 782.86,512.96 786.13,508.66 789.41,514.78 792.68,530.35 795.95,549.53 799.23,551.35 802.50,566.55 805.78,576.76 809.05,574.94 812.32,560.14 815.60,544.74 818.87,530.08 822.15,520.28 825.42,512.56 828.69,513.43 831.97,522.48 835.24,534.46 838.52,563.63 841.79,577.08 845.07,571.19 848.34,560.37 851.61,555.60 854.89,554.42 858.16,547.04 861.44,554.21 864.71,559.88 867.98,567.26 871.26,583.10 874.53,591.94 877.81,591.74 881.08,580.71 884.36,572.78 887.63,589.87 890.90,597.75 894.18,585.11 897.45,570.50 900.73,560.53 904.00,562.49" />
<polyline fill="none" stroke="#d62728" stroke-width="2" points="82.19,563.05 85.47,569.75 88.74,573.27 92.02,573.57 95.29,570.82 98.56,567.93 101.84,569.16 105.11,572.24 108.39,574.06 111.66,576.24 114.93,582.93 118.21,598.17 121.48,609.87 124.76,613.05 128.03,616.71 131.31,623.26 134.58,623.69 137.85,625.98 141.13,619.10 144.40,608.92 147.68,598.03 150.95,587.79 154.22,577.65 157.50,569.60 160.77,564.47 164.05,560.38 167.32,560.95 170.59,573.66 173.87,588.17 177.14,603.69 180.42,611.01 183.69,613.46 186.97,611.60 190.24,611.78 193.51,612.85 196.79,618.44 200.06,627.28 203.34,637.05 206.61,644.18 209.88,643.90 213.16,636.62 216.43,624.35 219.71,608.98 222.98,594.25 226.25,579.87 229.53,567.36 232.80,557.02 236.08,550.48 239.35,545.22 242.63,541.63 245.90,539.72 249.17,538.92 252.45,540.62 255.72,544.35 259.00,554.35 262.27,563.72 265.54,570.24 268.82,570.81 272.09,567.37 275.37,560.87 278.64,555.29 281.92,549.96 285.19,546.97 288.46,547.52 291.74,546.67 295.01,544.30 298.29,545.07 301.56,544.66 304.83,544.40 308.11,545.95 311.38,549.33 314.66,550.15 317.93,551.62 321.20,552.44 324.48,553.69 327.75,553.42 331.03,555.22 334.30,558.71 337.58,566.16 340.85,576.62 344.12,591.34 347.40,601.96 350.67,612.03 353.95,619.11 357.22,625.70 360.49,631.53 363.77,637.07 367.04,641.75 370.32,645.03 373.59,640.59 376.86,638.89 380.14,639.75 383.41,638.89 386.69,632.65 389.96,621.94 393.24,608.74 396.51,599.90 399.78,593.03 403.06,585.24 406.33,578.36 409.61,572.19 412.88,566.98 416.15,564.90 419.43,562.88 422.70,564.92 425.98,569.01 429.25,578.77 432.53,590.90 435.80,604.46 439.07,616.18 442.35,622.95 445.62,622.54 448.90,617.58 452.17,609.55 455.44,599.36 458.72,587.92 461.99,577.56 465.27,568.38 468.54,559.83 471.81,552.21 475.09,544.83 478.36,539.69 481.64,535.81 484.91,533.84 488.19,532.03 491.46,530.88 494.73,530.73 498.01,534.95 501.28,538.64 504.56,540.87 507.83,542.21 511.10,545.67 514.38,548.44 517.65,548.49 520.93,547.31 524.20,543.02 527.47,537.38 530.75,535.19 534.02,540.64 537.30,550.96 540.57,556.64 543.85,559.82 547.12,565.04 550.39,570.67 553.67,568.05 556.94,559.64 560.22,549.72 563.49,541.53 566.76,533.37 570.04,526.49 573.31,520.89 576.59,517.50 579.86,519.17 583.14,529.79 586.41,541.05 589.68,552.58 592.96,562.84 596.23,569.17 599.51,568.65 602.78,566.92 606.05,565.59 609.33,563.91 612.60,560.23 615.88,553.25 619.15,549.27 622.42,551.25 625.70,558.15 628.97,565.89 632.25,567.82 635.52,568.13 638.80,570.06 642.07,574.45 645.34,581.91 648.62,580.64 651.89,580.12 655.17,575.94 658.44,565.64 661.71,554.11 664.99,542.79 668.26,533.35 671.54,525.15 674.81,519.46 678.08,514.47 681.36,511.55 684.63,510.04 687.91,508.39 691.18,507.29 694.46,509.93 697.73,509.86 701.00,510.12 704.28,511.91 707.55,515.90 710.83,521.04 714.10,520.82 717.37,518.41 720.65,516.30 723.92,514.16 727.20,513.91 730.47,514.70 733.75,515.94 737.02,519.72 740.29,525.05 743.57,535.06 746.84,545.84 750.12,560.11 753.39,574.08 756.66,578.26 759.94,574.10 763.21,564.29 766.49,555.20 769.76,546.39 773.03,541.47 776.31,534.30 779.58,528.06 782.86,523.03 786.13,518.24 789.41,517.09 792.68,521.51 795.95,530.85 799.23,537.68 802.50,547.30 805.78,557.12 809.05,563.06 812.32,562.09 815.60,556.30 818.87,547.56 822.15,538.47 825.42,529.83 828.69,524.37 831.97,523.74 835.24,527.31 838.52,539.42 841.79,551.97 845.07,558.38 848.34,559.04 851.61,557.90 854.89,556.74 858.16,553.51 861.44,553.74 864.71,555.79 867.98,559.61 871.26,567.44 874.53,575.61 877.81,580.98 881.08,580.89 884.36,578.19 887.63,582.08 890.90,587.30 894.18,586.57 897.45,581.22 900.73,574.32 904.00,570.38" />
<text x="824.00" y="502.00" font-size="13" font-family="Arial" fill="#2ca02c" text-anchor="start">K</text>
<text x="860.00" y="502.00" font-size="13" font-family="Arial" fill="#d62728" text-anchor="start">D</text>
</svg>