<svg xmlns="http://www.w3.org/2000/svg" width="960" height="680" viewBox="0 0 960 680"><rect width="100%" height="100%" fill="white" />
<text x="56.00" y="32.00" font-size="20" font-family="Arial" fill="#1f2933" text-anchor="start">元大高股息(0056) Technical Indicators</text>
<line x1="56" y1="220" x2="904" y2="220" stroke="#cbd2d9" />
<line x1="56" y1="58" x2="56" y2="220" stroke="#cbd2d9" />
<text x="16.00" y="50.00" font-size="12" font-family="Arial" fill="#52606d" text-anchor="start">RSI14</text>
<line x1="56" y1="220.00" x2="904" y2="220.00" stroke="#edf2f7" />
<line x1="52" y1="220.00" x2="56" y2="220.00" stroke="#9fb3c8" />
<text x="48.00" y="224.00" font-size="11" font-family="Arial" fill="#52606d" text-anchor="end">-5.00</text>
<line x1="56" y1="166.00" x2="904" y2="166.00" stroke="#edf2f7" />
<line x1="52" y1="166.00" x2="56" y2="166.00" stroke="#9fb3c8" />
<text x="48.00" y="170.00" font-size="11" font-family="Arial" fill="#52606d" text-anchor="end">31.7</text>
<line x1="56" y1="112.00" x2="904" y2="112.00" stroke="#edf2f7" />
<line x1="52" y1="112.00" x2="56" y2="112.00" stroke="#9fb3c8" />
<text x="48.00" y="116.00" font-size="11" font-family="Arial" fill="#52606d" text-anchor="end">68.3</text>
<line x1="56" y1="58.00" x2="904" y2="58.00" stroke="#edf2f7" />
<line x1="52" y1="58.00" x2="56" y2="58.00" stroke="#9fb3c8" />
<text x="48.00" y="62.00" font-size="11" font-family="Arial" fill="#52606d" text-anchor="end">105</text>
<line x1="56" y1="168.45" x2="904" y2="168.45" stroke="#f0b429" stroke-dasharray="5 5" />
<text x="912.00" y="172.45" font-size="10" font-family="Arial" fill="#8d2b0b" text-anchor="start">30.0</text>
<line x1="56" y1="109.55" x2="904" y2="109.55" stroke="#f0b429" stroke-dasharray="5 5" />
<text x="912.00" y="113.55" font-size="10" font-family="Arial" fill="#8d2b0b" text-anchor="start">70.0</text>
<polyline fill="none" stroke="#1f77b4" stroke-width="2" points="101.84,130.63 105.11,132.65 108.39,138.57 111.66,129.99 114.93,127.63 118.21,123.57 121.48,129.76 124.76,123.84 128.03,118.78 131.31,117.45 134.58,116.10 137.85,114.55 141.13,130.19 144.40,121.12 147.68,119.53 150.95,119.06 154.22,116.89 157.50,127.58 160.77,125.63 164.05,125.05 167.32,124.44 170.59,125.40 173.87,115.95 177.14,116.46 180.42,113.97 183.69,112.60 186.97,113.21 190.24,114.48 193.51,123.16 196.79,124.36 200.06,125.62 203.34,122.55 206.61,128.48 209.88,152.62 213.16,142.77 216.43,146.96 219.71,133.40 222.98,134.63 226.25,129.95 229.53,129.95 232.80,132.37 236.08,146.20 239.35,145.74 242.63,141.61 245.90,135.17 249.17,127.62 252.45,118.37 255.72,112.12 259.00,104.07 262.27,108.77 265.54,104.90 268.82,104.19 272.09,102.57 275.37,109.28 278.64,104.89 281.92,102.02 285.19,98.17 288.46,96.15 291.74,98.85 295.01,97.72 298.29,119.53 301.56,113.23 304.83,113.02 308.11,108.43 311.38,108.43 314.66,101.13 317.93,102.57 321.20,103.07 324.48,124.11 327.75,135.71 331.03,133.51 334.30,121.28 337.58,123.92 340.85,116.38 344.12,113.41 347.40,111.86 350.67,114.72 353.95,107.28 357.22,111.48 360.49,106.07 363.77,108.77 367.04,107.78 370.32,113.09 373.59,126.45 376.86,132.12 380.14,127.93 383.41,139.54 386.69,139.00 389.96,143.37 393.24,141.84 396.51,140.26 399.78,150.73 403.06,158.30 406.33,171.03 409.61,174.22 412.88,153.05 416.15,160.27 419.43,156.69 422.70,156.69 425.98,144.29 429.25,135.88 432.53,138.02 435.80,138.43 439.07,136.15 442.35,132.08 445.62,130.27 448.90,127.26 452.17,125.85 455.44,127.05 458.72,126.82 461.99,134.90 465.27,131.54 468.54,136.98 471.81,142.86 475.09,139.05 478.36,141.65 481.64,133.82 484.91,125.45 488.19,131.13 491.46,130.88 494.73,129.27 498.01,126.07 501.28,127.60 504.56,126.44 507.83,118.91 511.10,116.02 514.38,113.03 517.65,105.88 520.93,115.07 524.20,115.50 527.47,109.82 530.75,108.46 534.02,104.40 537.30,103.53 540.57,99.40 543.85,97.04 547.12,96.61 550.39,108.94 553.67,101.59 556.94,103.02 560.22,95.93 563.49,92.81 566.76,91.67 570.04,107.07 573.31,128.78 576.59,139.08 579.86,129.60 583.14,125.92 586.41,132.72 589.68,133.41 592.96,124.10 596.23,119.28 599.51,114.25 602.78,109.02 606.05,103.06 609.33,100.19 612.60,98.24 615.88,108.48 619.15,125.13 622.42,145.88 625.70,136.02 628.97,134.46 632.25,147.05 635.52,143.19 638.80,134.31 642.07,135.68 645.34,136.07 648.62,132.27 651.89,128.50 655.17,125.20 658.44,133.48 661.71,135.10 664.99,145.76 668.26,144.73 671.54,137.11 674.81,137.39 678.08,139.35 681.36,147.50 684.63,155.92 687.91,141.49 691.18,144.93 694.46,141.51 697.73,130.13 701.00,129.48 704.28,125.87 707.55,124.67 710.83,119.91 714.10,117.13 717.37,112.09 720.65,110.54 723.92,106.53 727.20,102.88 730.47,98.79 733.75,116.18 737.02,113.70 740.29,114.56 743.57,112.70 746.84,116.07 750.12,116.65 753.39,107.38 756.66,102.43 759.94,95.63 763.21,91.98 766.49,91.46 769.76,88.16 773.03,91.43 776.31,99.11 779.58,99.11 782.86,111.23 786.13,110.86 789.41,118.92 792.68,118.64 795.95,107.61 799.23,102.26 802.50,93.76 805.78,94.20 809.05,89.89 812.32,100.93 815.60,95.92 818.87,91.08 822.15,88.95 825.42,86.83 828.69,99.46 831.97,107.84 835.24,126.76 838.52,118.80 841.79,129.33 845.07,129.52 848.34,124.74 851.61,120.78 854.89,120.56 858.16,118.73 861.44,114.97 864.71,109.99 867.98,113.84 871.26,117.67 874.53,117.43 877.81,131.54 881.08,129.49 884.36,121.71 887.63,125.63 890.90,126.83 894.18,125.35 897.45,122.96 900.73,132.42 904.00,131.06" />
<text x="808.00" y="76.00" font-size="13" font-family="Arial" fill="#1f77b4" text-anchor="start">RSI14</text>
<line x1="56" y1="432" x2="904" y2="432" stroke="#cbd2d9" />
<line x1="56" y1="272" x2="56" y2="432" stroke="#cbd2d9" />
<text x="16.00" y="264.00" font-size="12" font-family="Arial" fill="#52606d" text-anchor="start">MACD</text>
<line x1="56" y1="432.00" x2="904" y2="432.00" stroke="#edf2f7" />
<line x1="52" y1="432.00" x2="56" y2="432.00" stroke="#9fb3c8" />
<text x="48.00" y="436.00" font-size="11" font-family="Arial" fill="#52606d" text-anchor="end">-0.54</text>
<line x1="56" y1="378.67" x2="904" y2="378.67" stroke="#edf2f7" />
<line x1="52" y1="378.67" x2="56" y2="378.67" stroke="#9fb3c8" />
<text x="48.00" y="382.67" font-size="11" font-family="Arial" fill="#52606d" text-anchor="end">0.66</text>
<line x1="56" y1="325.33" x2="904" y2="325.33" stroke="#edf2f7" />
<line x1="52" y1="325.33" x2="56" y2="325.33" stroke="#9fb3c8" />
<text x="48.00" y="329.33" font-size="11" font-family="Arial" fill="#52606d" text-anchor="end">1.85</text>
<line x1="56" y1="272.00" x2="904" y2="272.00" stroke="#edf2f7" />
<line x1="52" y1="272.00" x2="56" y2="272.00" stroke="#9fb3c8" />
<text x="48.00" y="276.00" font-size="11" font-family="Arial" fill="#52606d" text-anchor="end">3.04</text>
<line x1="56" y1="407.95" x2="904" y2="407.95" stroke="#9fb3c8" stroke-dasharray="4 4" />
<rect x="136.71" y="407.95" width="2.28" height="0.00" fill="#2f9e44" opacity="0.55" />
<rect x="139.99" y="407.95" width="2.28" height="0.55" fill="#d64545" opacity="0.55" />
<rect x="143.26" y="407.95" width="2.28" height="0.01" fill="#d64545" opacity="0.55" />
<rect x="146.53" y="407.52" width="2.28" height="0.43" fill="#2f9e44" opacity="0.55" />
<rect x="149.81" y="407.30" width="2.28" height="0.64" fill="#2f9e44" opacity="0.55" />
<rect x="153.08" y="407.06" width="2.28" height="0.89" fill="#2f9e44" opacity="0.55" />
<rect x="156.36" y="407.74" width="2.28" height="0.21" fill="#2f9e44" opacity="0.55" />
<rect x="159.63" y="407.95" width="2.28" height="0.14" fill="#d64545" opacity="0.55" />
<rect x="162.90" y="407.95" width="2.28" height="0.40" fill="#d64545" opacity="0.55" />
<rect x="166.18" y="407.95" width="2.28" height="0.58" fill="#d64545" opacity="0.55" />
<rect x="169.45" y="407.95" width="2.28" height="0.81" fill="#d64545" opacity="0.55" />
<rect x="172.73" y="407.95" width="2.28" height="0.15" fill="#d64545" opacity="0.55" />
<rect x="176.00" y="407.80" width="2.28" height="0.15" fill="#2f9e44" opacity="0.55" />
<rect x="179.28" y="407.47" width="2.28" height="0.47" fill="#2f9e44" opacity="0.55" />
<rect x="182.55" y="407.25" width="2.28" height="0.69" fill="#2f9e44" opacity="0.55" />
<rect x="185.82" y="407.27" width="2.28" height="0.67" fill="#2f9e44" opacity="0.55" />
<rect x="189.10" y="407.47" width="2.28" height="0.48" fill="#2f9e44" opacity="0.55" />
<rect x="192.37" y="407.95" width="2.28" height="0.14" fill="#d64545" opacity="0.55" />
<rect x="195.65" y="407.95" width="2.28" height="0.67" fill="#d64545" opacity="0.55" />
<rect x="198.92" y="407.95" width="2.28" height="1.12" fill="#d64545" opacity="0.55" />
<rect x="202.19" y="407.95" width="2.28" height="1.25" fill="#d64545" opacity="0.55" />
<rect x="205.47" y="407.95" width="2.28" height="1.59" fill="#d64545" opacity="0.55" />
<rect x="208.74" y="407.95" width="2.28" height="3.17" fill="#d64545" opacity="0.55" />
<rect x="212.02" y="407.95" width="2.28" height="3.51" fill="#d64545" opacity="0.55" />
<rect x="215.29" y="407.95" width="2.28" height="3.91" fill="#d64545" opacity="0.55" />
<rect x="218.57" y="407.95" width="2.28" height="3.11" fill="#d64545" opacity="0.55" />
<rect x="221.84" y="407.95" width="2.28" height="2.58" fill="#d64545" opacity="0.55" />
<rect x="225.11" y="407.95" width="2.28" height="1.82" fill="#d64545" opacity="0.55" />
<rect x="228.39" y="407.95" width="2.28" height="1.29" fill="#d64545" opacity="0.55" />
<rect x="231.66" y="407.95" width="2.28" height="1.07" fill="#d64545" opacity="0.55" />
<rect x="234.94" y="407.95" width="2.28" height="1.79" fill="#d64545" opacity="0.55" />
<rect x="238.21" y="407.95" width="2.28" height="2.16" fill="#d64545" opacity="0.55" />
<rect x="241.48" y="407.95" width="2.28" height="2.07" fill="#d64545" opacity="0.55" />
<rect x="244.76" y="407.95" width="2.28" height="1.53" fill="#d64545" opacity="0.55" />
<rect x="248.03" y="407.95" width="2.28" height="0.61" fill="#d64545" opacity="0.55" />
<rect x="251.31" y="407.17" width="2.28" height="0.78" fill="#2f9e44" opacity="0.55" />
<rect x="254.58" y="405.70" width="2.28" height="2.25" fill="#2f9e44" opacity="0.55" />
<rect x="257.85" y="403.83" width="2.28" height="4.12" fill="#2f9e44" opacity="0.55" />
<rect x="261.13" y="403.18" width="2.28" height="4.76" fill="#2f9e44" opacity="0.55" />
<rect x="264.40" y="402.52" width="2.28" height="5.43" fill="#2f9e44" opacity="0.55" />
<rect x="267.68" y="402.34" width="2.28" height="5.61" fill="#2f9e44" opacity="0.55" />
<rect x="270.95" y="402.36" width="2.28" height="5.59" fill="#2f9e44" opacity="0.55" />
<rect x="274.23" y="403.09" width="2.28" height="4.86" fill="#2f9e44" opacity="0.55" />
<rect x="277.50" y="403.32" width="2.28" height="4.63" fill="#2f9e44" opacity="0.55" />
<rect x="280.77" y="403.39" width="2.28" height="4.56" fill="#2f9e44" opacity="0.55" />
<rect x="284.05" y="403.15" width="2.28" height="4.79" fill="#2f9e44" opacity="0.55" />
<rect x="287.32" y="403.01" width="2.28" height="4.93" fill="#2f9e44" opacity="0.55" />
<rect x="290.60" y="403.46" width="2.28" height="4.49" fill="#2f9e44" opacity="0.55" />
<rect x="293.87" y="403.94" width="2.28" height="4.01" fill="#2f9e44" opacity="0.55" />
<rect x="297.14" y="405.81" width="2.28" height="2.14" fill="#2f9e44" opacity="0.55" />
<rect x="300.42" y="406.48" width="2.28" height="1.47" fill="#2f9e44" opacity="0.55" />
<rect x="303.69" y="407.12" width="2.28" height="0.82" fill="#2f9e44" opacity="0.55" />
<rect x="306.97" y="407.13" width="2.28" height="0.82" fill="#2f9e44" opacity="0.55" />
<rect x="310.24" y="407.35" width="2.28" height="0.60" fill="#2f9e44" opacity="0.55" />
<rect x="313.51" y="406.57" width="2.28" height="1.37" fill="#2f9e44" opacity="0.55" />
<rect x="316.79" y="406.42" width="2.28" height="1.53" fill="#2f9e44" opacity="0.55" />
<rect x="320.06" y="406.61" width="2.28" height="1.34" fill="#2f9e44" opacity="0.55" />
<rect x="323.34" y="407.95" width="2.28" height="0.31" fill="#d64545" opacity="0.55" />
<rect x="326.61" y="407.95" width="2.28" height="2.44" fill="#d64545" opacity="0.55" />
<rect x="329.89" y="407.95" width="2.28" height="3.61" fill="#d64545" opacity="0.55" />
<rect x="333.16" y="407.95" width="2.28" height="2.94" fill="#d64545" opacity="0.55" />
<rect x="336.43" y="407.95" width="2.28" height="2.74" fill="#d64545" opacity="0.55" />
<rect x="339.71" y="407.95" width="2.28" height="1.62" fill="#d64545" opacity="0.55" />
<rect x="342.98" y="407.95" width="2.28" height="0.53" fill="#d64545" opacity="0.55" />
<rect x="346.26" y="407.68" width="2.28" height="0.27" fill="#2f9e44" opacity="0.55" />
<rect x="349.53" y="407.55" width="2.28" height="0.40" fill="#2f9e44" opacity="0.55" />
<rect x="352.80" y="406.47" width="2.28" height="1.48" fill="#2f9e44" opacity="0.55" />
<rect x="356.08" y="406.32" width="2.28" height="1.62" fill="#2f9e44" opacity="0.55" />
<rect x="359.35" y="405.55" width="2.28" height="2.39" fill="#2f9e44" opacity="0.55" />
<rect x="362.63" y="405.55" width="2.28" height="2.40" fill="#2f9e44" opacity="0.55" />
<rect x="365.90" y="405.68" width="2.28" height="2.26" fill="#2f9e44" opacity="0.55" />
<rect x="369.18" y="406.41" width="2.28" height="1.53" fill="#2f9e44" opacity="0.55" />
<rect x="372.45" y="407.95" width="2.28" height="0.19" fill="#d64545" opacity="0.55" />
<rect x="375.72" y="407.95" width="2.28" height="1.93" fill="#d64545" opacity="0.55" />
<rect x="379.00" y="407.95" width="2.28" height="2.63" fill="#d64545" opacity="0.55" />
<rect x="382.27" y="407.95" width="2.28" height="4.19" fill="#d64545" opacity="0.55" />
<rect x="385.55" y="407.95" width="2.28" height="5.05" fill="#d64545" opacity="0.55" />
<rect x="388.82" y="407.95" width="2.28" height="5.91" fill="#d64545" opacity="0.55" />
<rect x="392.09" y="407.95" width="2.28" height="6.13" fill="#d64545" opacity="0.55" />
<rect x="395.37" y="407.95" width="2.28" height="5.94" fill="#d64545" opacity="0.55" />
<rect x="398.64" y="407.95" width="2.28" height="6.64" fill="#d64545" opacity="0.55" />
<rect x="401.92" y="407.95" width="2.28" height="7.75" fill="#d64545" opacity="0.55" />
<rect x="405.19" y="407.95" width="2.28" height="10.26" fill="#d64545" opacity="0.55" />
<rect x="408.46" y="407.95" width="2.28" height="12.06" fill="#d64545" opacity="0.55" />
<rect x="411.74" y="407.95" width="2.28" height="10.51" fill="#d64545" opacity="0.55" />
<rect x="415.01" y="407.95" width="2.28" height="10.34" fill="#d64545" opacity="0.55" />
<rect x="418.29" y="407.95" width="2.28" height="9.26" fill="#d64545" opacity="0.55" />
<rect x="421.56" y="407.95" width="2.28" height="8.05" fill="#d64545" opacity="0.55" />
<rect x="424.84" y="407.95" width="2.28" height="5.34" fill="#d64545" opacity="0.55" />
<rect x="428.11" y="407.95" width="2.28" height="2.09" fill="#d64545" opacity="0.55" />
<rect x="431.38" y="407.95" width="2.28" height="0.16" fill="#d64545" opacity="0.55" />
<rect x="434.66" y="406.86" width="2.28" height="1.09" fill="#2f9e44" opacity="0.55" />
<rect x="437.93" y="405.76" width="2.28" height="2.19" fill="#2f9e44" opacity="0.55" />
<rect x="441.21" y="404.56" width="2.28" height="3.38" fill="#2f9e44" opacity="0.55" />
<rect x="444.48" y="403.68" width="2.28" height="4.27" fill="#2f9e44" opacity="0.55" />
<rect x="447.75" y="402.89" width="2.28" height="5.06" fill="#2f9e44" opacity="0.55" />
<rect x="451.03" y="402.42" width="2.28" height="5.53" fill="#2f9e44" opacity="0.55" />
<rect x="454.30" y="402.49" width="2.28" height="5.46" fill="#2f9e44" opacity="0.55" />
<rect x="457.58" y="402.78" width="2.28" height="5.17" fill="#2f9e44" opacity="0.55" />
<rect x="460.85" y="403.92" width="2.28" height="4.02" fill="#2f9e44" opacity="0.55" />
<rect x="464.12" y="404.50" width="2.28" height="3.45" fill="#2f9e44" opacity="0.55" />
<rect x="467.40" y="405.54" width="2.28" height="2.41" fill="#2f9e44" opacity="0.55" />
<rect x="470.67" y="406.91" width="2.28" height="1.04" fill="#2f9e44" opacity="0.55" />
<rect x="473.95" y="407.48" width="2.28" height="0.47" fill="#2f9e44" opacity="0.55" />
<rect x="477.22" y="407.95" width="2.28" height="0.18" fill="#d64545" opacity="0.55" />
<rect x="480.50" y="407.80" width="2.28" height="0.15" fill="#2f9e44" opacity="0.55" />
<rect x="483.77" y="406.70" width="2.28" height="1.25" fill="#2f9e44" opacity="0.55" />
<rect x="487.04" y="406.59" width="2.28" height="1.36" fill="#2f9e44" opacity="0.55" />
<rect x="490.32" y="406.58" width="2.28" height="1.37" fill="#2f9e44" opacity="0.55" />
<rect x="493.59" y="406.51" width="2.28" height="1.43" fill="#2f9e44" opacity="0.55" />
<rect x="496.87" y="406.25" width="2.28" height="1.70" fill="#2f9e44" opacity="0.55" />
<rect x="500.14" y="406.32" width="2.28" height="1.63" fill="#2f9e44" opacity="0.55" />
<rect x="503.41" y="406.37" width="2.28" height="1.58" fill="#2f9e44" opacity="0.55" />
<rect x="506.69" y="405.77" width="2.28" height="2.18" fill="#2f9e44" opacity="0.55" />
<rect x="509.96" y="405.22" width="2.28" height="2.72" fill="#2f9e44" opacity="0.55" />
<rect x="513.24" y="404.72" width="2.28" height="3.22" fill="#2f9e44" opacity="0.55" />
<rect x="516.51" y="403.66" width="2.28" height="4.29" fill="#2f9e44" opacity="0.55" />
<rect x="519.79" y="403.86" width="2.28" height="4.09" fill="#2f9e44" opacity="0.55" />
<rect x="523.06" y="404.30" width="2.28" height="3.64" fill="#2f9e44" opacity="0.55" />
<rect x="526.33" y="404.12" width="2.28" height="3.82" fill="#2f9e44" opacity="0.55" />
<rect x="529.61" y="404.12" width="2.28" height="3.83" fill="#2f9e44" opacity="0.55" />
<rect x="532.88" y="403.82" width="2.28" height="4.13" fill="#2f9e44" opacity="0.55" />
<rect x="536.16" y="403.83" width="2.28" height="4.12" fill="#2f9e44" opacity="0.55" />
<rect x="539.43" y="403.49" width="2.28" height="4.45" fill="#2f9e44" opacity="0.55" />
<rect x="542.70" y="403.21" width="2.28" height="4.73" fill="#2f9e44" opacity="0.55" />
<rect x="545.98" y="403.35" width="2.28" height="4.60" fill="#2f9e44" opacity="0.55" />
<rect x="549.25" y="404.48" width="2.28" height="3.46" fill="#2f9e44" opacity="0.55" />
<rect x="552.53" y="404.38" width="2.28" height="3.57" fill="#2f9e44" opacity="0.55" />
<rect x="555.80" y="404.76" width="2.28" height="3.19" fill="#2f9e44" opacity="0.55" />
<rect x="559.07" y="403.95" width="2.28" height="4.00" fill="#2f9e44" opacity="0.55" />
<rect x="562.35" y="403.06" width="2.28" height="4.89" fill="#2f9e44" opacity="0.55" />
<rect x="565.62" y="402.65" width="2.28" height="5.30" fill="#2f9e44" opacity="0.55" />
<rect x="568.90" y="403.88" width="2.28" height="4.07" fill="#2f9e44" opacity="0.55" />
<rect x="572.17" y="406.98" width="2.28" height="0.97" fill="#2f9e44" opacity="0.55" />
<rect x="575.45" y="407.95" width="2.28" height="2.44" fill="#d64545" opacity="0.55" />
<rect x="578.72" y="407.95" width="2.28" height="3.33" fill="#d64545" opacity="0.55" />
<rect x="581.99" y="407.95" width="2.28" height="3.34" fill="#d64545" opacity="0.55" />
<rect x="585.27" y="407.95" width="2.28" height="4.18" fill="#d64545" opacity="0.55" />
<rect x="588.54" y="407.95" width="2.28" height="4.76" fill="#d64545" opacity="0.55" />
<rect x="591.82" y="407.95" width="2.28" height="3.63" fill="#d64545" opacity="0.55" />
<rect x="595.09" y="407.95" width="2.28" height="2.05" fill="#d64545" opacity="0.55" />
<rect x="598.36" y="407.95" width="2.28" height="0.11" fill="#d64545" opacity="0.55" />
<rect x="601.64" y="405.81" width="2.28" height="2.14" fill="#2f9e44" opacity="0.55" />
<rect x="604.91" y="403.04" width="2.28" height="4.90" fill="#2f9e44" opacity="0.55" />
<rect x="608.19" y="400.83" width="2.28" height="7.12" fill="#2f9e44" opacity="0.55" />
<rect x="611.46" y="399.35" width="2.28" height="8.60" fill="#2f9e44" opacity="0.55" />
<rect x="614.73" y="400.18" width="2.28" height="7.77" fill="#2f9e44" opacity="0.55" />
<rect x="618.01" y="403.48" width="2.28" height="4.47" fill="#2f9e44" opacity="0.55" />
<rect x="621.28" y="407.95" width="2.28" height="1.96" fill="#d64545" opacity="0.55" />
<rect x="624.56" y="407.95" width="2.28" height="4.01" fill="#d64545" opacity="0.55" />
<rect x="627.83" y="407.95" width="2.28" height="4.95" fill="#d64545" opacity="0.55" />
<rect x="631.11" y="407.95" width="2.28" height="8.43" fill="#d64545" opacity="0.55" />
<rect x="634.38" y="407.95" width="2.28" height="9.54" fill="#d64545" opacity="0.55" />
<rect x="637.65" y="407.95" width="2.28" height="7.80" fill="#d64545" opacity="0.55" />
<rect x="640.93" y="407.95" width="2.28" height="6.77" fill="#d64545" opacity="0.55" />
<rect x="644.20" y="407.95" width="2.28" height="6.00" fill="#d64545" opacity="0.55" />
<rect x="647.48" y="407.95" width="2.28" height="4.47" fill="#d64545" opacity="0.55" />
<rect x="650.75" y="407.95" width="2.28" height="2.52" fill="#d64545" opacity="0.55" />
<rect x="654.02" y="407.95" width="2.28" height="0.47" fill="#d64545" opacity="0.55" />
<rect x="657.30" y="407.95" width="2.28" height="0.78" fill="#d64545" opacity="0.55" />
<rect x="660.57" y="407.95" width="2.28" height="1.36" fill="#d64545" opacity="0.55" />
<rect x="663.85" y="407.95" width="2.28" height="3.99" fill="#d64545" opacity="0.55" />
<rect x="667.12" y="407.95" width="2.28" height="5.34" fill="#d64545" opacity="0.55" />
<rect x="670.40" y="407.95" width="2.28" height="4.49" fill="#d64545" opacity="0.55" />
<rect x="673.67" y="407.95" width="2.28" height="3.86" fill="#d64545" opacity="0.55" />
<rect x="676.94" y="407.95" width="2.28" height="3.70" fill="#d64545" opacity="0.55" />
<rect x="680.22" y="407.95" width="2.28" height="5.08" fill="#d64545" opacity="0.55" />
<rect x="683.49" y="407.95" width="2.28" height="7.74" fill="#d64545" opacity="0.55" />
<rect x="686.77" y="407.95" width="2.28" height="6.30" fill="#d64545" opacity="0.55" />
<rect x="690.04" y="407.95" width="2.28" height="5.90" fill="#d64545" opacity="0.55" />
<rect x="693.31" y="407.95" width="2.28" height="4.65" fill="#d64545" opacity="0.55" />
<rect x="696.59" y="407.95" width="2.28" height="0.98" fill="#d64545" opacity="0.55" />
<rect x="699.86" y="406.40" width="2.28" height="1.55" fill="#2f9e44" opacity="0.55" />
<rect x="703.14" y="403.97" width="2.28" height="3.98" fill="#2f9e44" opacity="0.55" />
<rect x="706.41" y="402.36" width="2.28" height="5.59" fill="#2f9e44" opacity="0.55" />
<rect x="709.68" y="400.41" width="2.28" height="7.54" fill="#2f9e44" opacity="0.55" />
<rect x="712.96" y="398.84" width="2.28" height="9.11" fill="#2f9e44" opacity="0.55" />
<rect x="716.23" y="396.86" width="2.28" height="11.09" fill="#2f9e44" opacity="0.55" />
<rect x="719.51" y="395.78" width="2.28" height="12.16" fill="#2f9e44" opacity="0.55" />
<rect x="722.78" y="394.49" width="2.28" height="13.46" fill="#2f9e44" opacity="0.55" />
<rect x="726.06" y="393.14" width="2.28" height="14.81" fill="#2f9e44" opacity="0.55" />
<rect x="729.33" y="391.46" width="2.28" height="16.49" fill="#2f9e44" opacity="0.55" />
<rect x="732.60" y="394.22" width="2.28" height="13.73" fill="#2f9e44" opacity="0.55" />
<rect x="735.88" y="396.06" width="2.28" height="11.89" fill="#2f9e44" opacity="0.55" />
<rect x="739.15" y="398.24" width="2.28" height="9.70" fill="#2f9e44" opacity="0.55" />
<rect x="742.43" y="399.82" width="2.28" height="8.13" fill="#2f9e44" opacity="0.55" />
<rect x="745.70" y="402.06" width="2.28" height="5.89" fill="#2f9e44" opacity="0.55" />
<rect x="748.97" y="404.18" width="2.28" height="3.77" fill="#2f9e44" opacity="0.55" />
<rect x="752.25" y="403.13" width="2.28" height="4.82" fill="#2f9e44" opacity="0.55" />
<rect x="755.52" y="401.08" width="2.28" height="6.87" fill="#2f9e44" opacity="0.55" />
<rect x="758.80" y="396.98" width="2.28" height="10.97" fill="#2f9e44" opacity="0.55" />
<rect x="762.07" y="392.91" width="2.28" height="15.03" fill="#2f9e44" opacity="0.55" />
<rect x="765.34" y="391.20" width="2.28" height="16.74" fill="#2f9e44" opacity="0.55" />
<rect x="768.62" y="388.87" width="2.28" height="19.07" fill="#2f9e44" opacity="0.55" />
<rect x="771.89" y="389.43" width="2.28" height="18.52" fill="#2f9e44" opacity="0.55" />
<rect x="775.17" y="392.51" width="2.28" height="15.43" fill="#2f9e44" opacity="0.55" />
<rect x="778.44" y="395.84" width="2.28" height="12.11" fill="#2f9e44" opacity="0.55" />
<rect x="781.72" y="401.15" width="2.28" height="6.79" fill="#2f9e44" opacity="0.55" />
<rect x="784.99" y="405.32" width="2.28" height="2.63" fill="#2f9e44" opacity="0.55" />
<rect x="788.26" y="407.95" width="2.28" height="2.15" fill="#d64545" opacity="0.55" />
<rect x="791.54" y="407.95" width="2.28" height="5.56" fill="#d64545" opacity="0.55" />
<rect x="794.81" y="407.95" width="2.28" height="4.03" fill="#d64545" opacity="0.55" />
<rect x="798.09" y="407.95" width="2.28" height="0.87" fill="#d64545" opacity="0.55" />
<rect x="801.36" y="401.69" width="2.28" height="6.26" fill="#2f9e44" opacity="0.55" />
<rect x="804.63" y="398.24" width="2.28" height="9.70" fill="#2f9e44" opacity="0.55" />
<rect x="807.91" y="393.47" width="2.28" height="14.48" fill="#2f9e44" opacity="0.55" />
<rect x="811.18" y="394.21" width="2.28" height="13.74" fill="#2f9e44" opacity="0.55" />
<rect x="814.46" y="392.19" width="2.28" height="15.76" fill="#2f9e44" opacity="0.55" />
<rect x="817.73" y="387.64" width="2.28" height="20.31" fill="#2f9e44" opacity="0.55" />
<rect x="821.01" y="384.07" width="2.28" height="23.88" fill="#2f9e44" opacity="0.55" />
<rect x="824.28" y="381.07" width="2.28" height="26.88" fill="#2f9e44" opacity="0.55" />
<rect x="827.55" y="384.77" width="2.28" height="23.18" fill="#2f9e44" opacity="0.55" />
<rect x="830.83" y="391.68" width="2.28" height="16.27" fill="#2f9e44" opacity="0.55" />
<rect x="834.10" y="404.55" width="2.28" height="3.40" fill="#2f9e44" opacity="0.55" />
<rect x="837.38" y="407.95" width="2.28" height="0.71" fill="#d64545" opacity="0.55" />
<rect x="840.65" y="407.95" width="2.28" height="8.88" fill="#d64545" opacity="0.55" />
<rect x="843.92" y="407.95" width="2.28" height="14.60" fill="#d64545" opacity="0.55" />
<rect x="847.20" y="407.95" width="2.28" height="15.48" fill="#d64545" opacity="0.55" />
<rect x="850.47" y="407.95" width="2.28" height="13.56" fill="#d64545" opacity="0.55" />
<rect x="853.75" y="407.95" width="2.28" height="12.38" fill="#d64545" opacity="0.55" />
<rect x="857.02" y="407.95" width="2.28" height="10.69" fill="#d64545" opacity="0.55" />
<rect x="860.29" y="407.95" width="2.28" height="7.47" fill="#d64545" opacity="0.55" />
<rect x="863.57" y="407.95" width="2.28" height="2.30" fill="#d64545" opacity="0.55" />
<rect x="866.84" y="407.95" width="2.28" height="1.02" fill="#d64545" opacity="0.55" />
<rect x="870.12" y="407.95" width="2.28" height="2.25" fill="#d64545" opacity="0.55" />
<rect x="873.39" y="407.95" width="2.28" height="3.55" fill="#d64545" opacity="0.55" />
<rect x="876.67" y="407.95" width="2.28" height="9.94" fill="#d64545" opacity="0.55" />
<rect x="879.94" y="407.95" width="2.28" height="13.20" fill="#d64545" opacity="0.55" />
<rect x="883.21" y="407.95" width="2.28" height="11.14" fill="#d64545" opacity="0.55" />
<rect x="886.49" y="407.95" width="2.28" height="11.40" fill="#d64545" opacity="0.55" />
<rect x="889.76" y="407.95" width="2.28" height="12.07" fill="#d64545" opacity="0.55" />
<rect x="893.04" y="407.95" width="2.28" height="11.79" fill="#d64545" opacity="0.55" />
<rect x="896.31" y="407.95" width="2.28" height="10.49" fill="#d64545" opacity="0.55" />
<rect x="899.58" y="407.95" width="2.28" height="12.86" fill="#d64545" opacity="0.55" />
<rect x="902.86" y="407.95" width="2.28" height="13.67" fill="#d64545" opacity="0.55" />
<polyline fill="none" stroke="#1f77b4" stroke-width="2" points="137.85,397.72 141.13,398.41 144.40,397.87 147.68,397.32 150.95,396.95 154.22,396.48 157.50,397.11 160.77,397.50 164.05,397.85 167.32,398.17 170.59,398.61 173.87,397.99 177.14,397.65 180.42,397.21 183.69,396.81 186.97,396.67 190.24,396.75 193.51,397.40 196.79,398.10 200.06,398.83 203.34,399.27 206.61,400.01 209.88,402.38 213.16,403.60 216.43,404.97 219.71,404.95 222.98,405.07 226.25,404.76 229.53,404.55 232.80,404.60 236.08,405.77 239.35,406.68 242.63,407.10 245.90,406.95 249.17,406.17 252.45,404.59 255.72,402.56 259.00,399.67 262.27,397.83 265.54,395.80 268.82,394.22 272.09,392.84 275.37,392.36 278.64,391.44 281.92,390.37 285.19,388.93 288.46,387.56 291.74,386.88 295.01,386.36 298.29,387.69 301.56,388.00 304.83,388.44 308.11,388.24 311.38,388.31 314.66,387.19 317.93,386.65 321.20,386.50 324.48,388.23 327.75,390.96 331.03,393.04 334.30,393.10 337.58,393.59 340.85,392.87 344.12,391.92 347.40,391.05 350.67,390.82 353.95,389.37 357.22,388.82 360.49,387.45 363.77,386.85 367.04,386.42 370.32,386.76 373.59,388.54 376.86,390.76 380.14,392.11 383.41,394.72 386.69,396.84 389.96,399.18 393.24,400.94 396.51,402.22 399.78,404.59 403.06,407.64 406.33,412.72 409.61,417.52 412.88,418.60 416.15,421.02 419.43,422.25 422.70,423.06 425.98,421.68 429.25,418.95 432.53,417.06 435.80,415.54 439.07,413.89 442.35,411.85 445.62,409.90 448.90,407.85 452.17,406.00 455.44,404.70 458.72,403.69 461.99,403.84 465.27,403.55 468.54,403.99 471.81,405.10 475.09,405.55 478.36,406.24 481.64,405.88 484.91,404.47 488.19,404.01 491.46,403.67 494.73,403.24 498.01,402.55 501.28,402.21 504.56,401.87 507.83,400.73 511.10,399.50 514.38,398.19 517.65,396.06 520.93,395.23 524.20,394.77 527.47,393.63 530.75,392.67 534.02,391.34 537.30,390.32 540.57,388.87 543.85,387.41 547.12,386.40 550.39,386.66 553.67,385.67 556.94,385.25 560.22,383.44 563.49,381.32 566.76,379.59 570.04,379.80 573.31,382.66 576.59,386.68 579.86,388.40 583.14,389.25 586.41,391.13 589.68,392.90 592.96,392.68 596.23,391.61 599.51,389.70 602.78,386.92 606.05,382.93 609.33,378.94 612.60,375.30 615.88,374.19 619.15,376.38 622.42,383.29 625.70,386.34 628.97,388.52 632.25,394.11 635.52,397.60 638.80,397.81 642.07,398.47 645.34,399.20 648.62,398.79 651.89,397.47 655.17,395.54 658.44,396.05 661.71,396.96 664.99,400.59 668.26,403.27 671.54,403.55 674.81,403.88 678.08,404.64 681.36,407.30 684.63,411.89 687.91,412.03 691.18,413.10 694.46,413.01 697.73,409.58 701.00,406.67 704.28,403.25 707.55,400.24 710.83,396.41 714.10,392.56 717.37,387.81 720.65,383.69 723.92,379.04 727.20,373.98 730.47,368.18 733.75,367.50 737.02,366.37 740.29,366.13 743.57,365.67 746.84,366.44 750.12,367.62 753.39,365.37 756.66,361.60 759.94,354.75 763.21,346.93 766.49,341.04 769.76,333.94 773.03,329.86 776.31,329.09 779.58,329.38 782.86,333.00 786.13,336.51 789.41,341.83 792.68,346.63 795.95,346.11 799.23,343.16 802.50,334.47 805.78,328.60 809.05,320.20 812.32,317.51 815.60,311.55 818.87,301.92 822.15,292.38 825.42,282.66 828.69,280.57 831.97,283.41 835.24,295.43 838.52,299.72 841.79,310.11 845.07,319.48 848.34,324.23 851.61,325.70 854.89,327.61 858.16,328.60 861.44,327.25 864.71,322.65 867.98,321.63 871.26,323.42 874.53,325.60 877.81,334.49 881.08,341.04 884.36,341.77 887.63,344.87 890.90,348.56 894.18,351.24 897.45,352.55 900.73,358.13 904.00,362.36" />
<polyline fill="none" stroke="#ff7f0e" stroke-width="2" points="137.85,397.72 141.13,397.86 144.40,397.86 147.68,397.75 150.95,397.59 154.22,397.37 157.50,397.32 160.77,397.35 164.05,397.45 167.32,397.60 170.59,397.80 173.87,397.84 177.14,397.80 180.42,397.68 183.69,397.51 186.97,397.34 190.24,397.22 193.51,397.26 196.79,397.43 200.06,397.71 203.34,398.02 206.61,398.42 209.88,399.21 213.16,400.09 216.43,401.06 219.71,401.84 222.98,402.49 226.25,402.94 229.53,403.26 232.80,403.53 236.08,403.98 239.35,404.52 242.63,405.03 245.90,405.42 249.17,405.57 252.45,405.37 255.72,404.81 259.00,403.78 262.27,402.59 265.54,401.23 268.82,399.83 272.09,398.43 275.37,397.22 278.64,396.06 281.92,394.92 285.19,393.72 288.46,392.49 291.74,391.37 295.01,390.37 298.29,389.83 301.56,389.46 304.83,389.26 308.11,389.05 311.38,388.91 314.66,388.56 317.93,388.18 321.20,387.84 324.48,387.92 327.75,388.53 331.03,389.43 334.30,390.17 337.58,390.85 340.85,391.26 344.12,391.39 347.40,391.32 350.67,391.22 353.95,390.85 357.22,390.45 360.49,389.85 363.77,389.25 367.04,388.68 370.32,388.30 373.59,388.35 376.86,388.83 380.14,389.49 383.41,390.53 386.69,391.79 389.96,393.27 393.24,394.80 396.51,396.29 399.78,397.95 403.06,399.89 406.33,402.45 409.61,405.47 412.88,408.09 416.15,410.68 419.43,412.99 422.70,415.01 425.98,416.34 429.25,416.86 432.53,416.90 435.80,416.63 439.07,416.08 442.35,415.24 445.62,414.17 448.90,412.91 452.17,411.52 455.44,410.16 458.72,408.87 461.99,407.86 465.27,407.00 468.54,406.40 471.81,406.14 475.09,406.02 478.36,406.06 481.64,406.03 484.91,405.72 488.19,405.38 491.46,405.04 494.73,404.68 498.01,404.25 501.28,403.84 504.56,403.45 507.83,402.91 511.10,402.22 514.38,401.42 517.65,400.35 520.93,399.32 524.20,398.41 527.47,397.46 530.75,396.50 534.02,395.47 537.30,394.44 540.57,393.33 543.85,392.14 547.12,390.99 550.39,390.13 553.67,389.24 556.94,388.44 560.22,387.44 563.49,386.21 566.76,384.89 570.04,383.87 573.31,383.63 576.59,384.24 579.86,385.07 583.14,385.91 586.41,386.95 589.68,388.14 592.96,389.05 596.23,389.56 599.51,389.59 602.78,389.06 606.05,387.83 609.33,386.05 612.60,383.90 615.88,381.96 619.15,380.84 622.42,381.33 625.70,382.33 628.97,383.57 632.25,385.68 635.52,388.06 638.80,390.01 642.07,391.70 645.34,393.20 648.62,394.32 651.89,394.95 655.17,395.07 658.44,395.26 661.71,395.60 664.99,396.60 668.26,397.93 671.54,399.06 674.81,400.02 678.08,400.95 681.36,402.22 684.63,404.15 687.91,405.73 691.18,407.20 694.46,408.36 697.73,408.61 701.00,408.22 704.28,407.23 707.55,405.83 710.83,403.95 714.10,401.67 717.37,398.90 720.65,395.86 723.92,392.49 727.20,388.79 730.47,384.67 733.75,381.23 737.02,378.26 740.29,375.84 743.57,373.80 746.84,372.33 750.12,371.39 753.39,370.18 756.66,368.47 759.94,365.72 763.21,361.96 766.49,357.78 769.76,353.01 773.03,348.38 776.31,344.52 779.58,341.49 782.86,339.80 786.13,339.14 789.41,339.68 792.68,341.07 795.95,342.08 799.23,342.29 802.50,340.73 805.78,338.30 809.05,334.68 812.32,331.25 815.60,327.31 818.87,322.23 822.15,316.26 825.42,309.54 828.69,303.75 831.97,299.68 835.24,298.83 838.52,299.01 841.79,301.23 845.07,304.88 848.34,308.75 851.61,312.14 854.89,315.23 858.16,317.91 861.44,319.77 864.71,320.35 867.98,320.61 871.26,321.17 874.53,322.06 877.81,324.54 881.08,327.84 884.36,330.63 887.63,333.47 890.90,336.49 894.18,339.44 897.45,342.06 900.73,345.28 904.00,348.69" />
<text x="754.00" y="290.00" font-size="13" font-family="Arial" fill="#1f77b4" text-anchor="start">MACD</text>
<text x="818.00" y="290.00" font-size="13" font-family="Arial" fill="#ff7f0e" text-anchor="start">Signal</text>
<line x1="56" y1="624" x2="904" y2="624" stroke="#cbd2d9" />
<line x1="56" y1="484" x2="56" y2="624" stroke="#cbd2d9" />
<text x="16.00" y="476.00" font-size="12" font-family="Arial" fill="#52606d" text-anchor="start">KD</text>
<line x1="56" y1="624.00" x2="904" y2="624.00" stroke="#edf2f7" />
<line x1="52" y1="624.00" x2="56" y2="624.00" stroke="#9fb3c8" />
<text x="48.00" y="628.00" font-size="11" font-family="Arial" fill="#52606d" text-anchor="end">-5.00</text>
<line x1="56" y1="577.33" x2="904" y2="577.33" stroke="#edf2f7" />
<line x1="52" y1="577.33" x2="56" y2="577.33" stroke="#9fb3c8" />
<text x="48.00" y="581.33" font-size="11" font-family="Arial" fill="#52606d" text-anchor="end">31.7</text>
<line x1="56" y1="530.67" x2="904" y2="530.67" stroke="#edf2f7" />
<line x1="52" y1="530.67" x2="56" y2="530.67" stroke="#9fb3c8" />
<text x="48.00" y="534.67" font-size="11" font-family="Arial" fill="#52606d" text-anchor="end">68.3</text>
<line x1="56" y1="484.00" x2="904" y2="484.00" stroke="#edf2f7" />
<line x1="52" y1="484.00" x2="56" y2="484.00" stroke="#9fb3c8" />
<text x="48.00" y="488.00" font-size="11" font-family="Arial" fill="#52606d" text-anchor="end">105</text>
<line x1="56.00" y1="624" x2="56.00" y2="628" stroke="#9fb3c8" />
<text x="56.00" y="642.00" font-size="11" font-family="Arial" fill="#52606d" text-anchor="middle">06/16</text>
<line x1="226.25" y1="624" x2="226.25" y2="628" stroke="#9fb3c8" />
<text x="226.25" y="642.00" font-size="11" font-family="Arial" fill="#52606d" text-anchor="middle">08/27</text>
<line x1="396.51" y1="624" x2="396.51" y2="628" stroke="#9fb3c8" />
<text x="396.51" y="642.00" font-size="11" font-family="Arial" fill="#52606d" text-anchor="middle">11/13</text>
<line x1="563.49" y1="624" x2="563.49" y2="628" stroke="#9fb3c8" />
<text x="563.49" y="642.00" font-size="11" font-family="Arial" fill="#52606d" text-anchor="middle">01/27</text>
<line x1="733.75" y1="624" x2="733.75" y2="628" stroke="#9fb3c8" />
<text x="733.75" y="642.00" font-size="11" font-family="Arial" fill="#52606d" text-anchor="middle">04/23</text>
<line x1="904.00" y1="624" x2="904.00" y2="628" stroke="#9fb3c8" />
<text x="904.00" y="642.00" font-size="11" font-family="Arial" fill="#52606d" text-anchor="middle">07/08</text>
<line x1="56" y1="592.18" x2="904" y2="592.18" stroke="#f0b429" stroke-dasharray="5 5" />
<text x="912.00" y="596.18" font-size="10" font-family="Arial" fill="#8d2b0b" text-anchor="start">20.0</text>
<line x1="56" y1="515.82" x2="904" y2="515.82" stroke="#f0b429" stroke-dasharray="5 5" />
<text x="912.00" y="519.82" font-size="10" font-family="Arial" fill="#8d2b0b" text-anchor="start">80.0</text>
<polyline fill="none" stroke="#2ca02c" stroke-width="2" points="82.19,641.61 85.47,698.83 88.74,739.06 92.02,761.75 95.29,772.81 98.56,762.97 101.84,811.41 105.11,910.84 108.39,986.51 111.66,1021.31 114.93,1039.82 118.21,1043.81 121.48,1066.54 124.76,1069.01 128.03,1019.56 131.31,977.57 134.58,936.04 137.85,908.18 141.13,881.33 144.40,853.17 147.68,832.41 150.95,818.00 154.22,805.84 157.50,805.12 160.77,802.66 164.05,883.48 167.32,916.23 170.59,939.28 173.87,914.81 177.14,896.98 180.42,865.86 183.69,843.19 186.97,828.47 190.24,819.42 193.51,818.12 196.79,858.23 200.06,959.74 203.34,1104.73 206.61,1195.06 209.88,1112.16 213.16,1047.55 216.43,1009.37 219.71,968.80 222.98,978.77 226.25,972.06 229.53,967.58 232.80,955.10 236.08,964.20 239.35,978.94 242.63,983.75 245.90,978.61 249.17,964.03 252.45,915.81 255.72,861.61 259.00,802.64 262.27,763.65 265.54,733.08 268.82,717.17 272.09,714.32 275.37,719.79 278.64,731.62 281.92,741.00 285.19,766.28 288.46,775.48 291.74,796.02 295.01,801.92 298.29,823.17 301.56,826.81 304.83,829.93 308.11,833.31 311.38,835.55 314.66,808.70 317.93,791.76 321.20,775.41 324.48,778.07 327.75,814.26 331.03,830.19 334.30,823.51 337.58,821.72 340.85,807.90 344.12,788.25 347.40,772.45 350.67,764.19 353.95,745.49 357.22,736.40 360.49,736.76 363.77,739.70 367.04,739.34 370.32,744.12 373.59,764.55 376.86,754.65 380.14,742.75 383.41,747.28 386.69,749.68 389.96,756.26 393.24,759.09 396.51,762.53 399.78,757.72 403.06,761.87 406.33,743.85 409.61,731.88 412.88,710.07 416.15,705.51 419.43,700.56 422.70,697.25 425.98,686.08 429.25,668.39 432.53,659.63 435.80,654.33 439.07,653.52 442.35,646.45 445.62,644.45 448.90,639.86 452.17,647.72 455.44,676.38 458.72,713.10 461.99,754.47 465.27,786.27 468.54,812.75 471.81,823.91 475.09,824.85 478.36,829.98 481.64,819.90 484.91,792.26 488.19,782.02 491.46,774.73 494.73,767.15 498.01,756.20 501.28,761.08 504.56,762.32 507.83,748.98 511.10,758.89 514.38,759.24 517.65,732.74 520.93,722.05 524.20,720.87 527.47,709.78 530.75,698.90 534.02,690.47 537.30,704.57 540.57,699.01 543.85,688.27 547.12,679.38 550.39,680.55 553.67,693.99 556.94,706.93 560.22,692.29 563.49,669.24 566.76,649.67 570.04,649.71 573.31,665.39 576.59,666.58 579.86,656.27 583.14,644.53 586.41,643.42 589.68,643.37 592.96,631.53 596.23,615.00 599.51,596.90 602.78,583.34 606.05,567.79 609.33,557.71 612.60,548.44 615.88,547.20 619.15,565.91 622.42,596.64 625.70,605.29 628.97,609.03 632.25,609.72 635.52,606.97 638.80,596.97 642.07,590.25 645.34,586.05 648.62,571.95 651.89,560.08 655.17,551.79 658.44,553.52 661.71,570.08 664.99,603.12 668.26,622.24 671.54,622.70 674.81,623.46 678.08,626.92 681.36,637.79 684.63,646.69 687.91,633.36 691.18,630.89 694.46,623.49 697.73,599.93 701.00,583.03 704.28,570.40 707.55,560.48 710.83,552.24 714.10,550.14 717.37,544.06 720.65,541.44 723.92,540.43 727.20,537.72 730.47,534.37 733.75,544.09 737.02,551.79 740.29,561.42 743.57,564.14 746.84,569.12 750.12,572.97 753.39,557.58 756.66,536.20 759.94,521.38 763.21,511.56 766.49,507.80 769.76,502.24 773.03,501.28 776.31,504.24 779.58,507.26 782.86,518.37 786.13,531.09 789.41,553.45 792.68,567.81 795.95,551.44 799.23,532.01 802.50,518.66 805.78,513.12 809.05,507.10 812.32,509.89 815.60,503.72 818.87,499.27 822.15,496.30 825.42,494.32 828.69,500.76 831.97,512.31 835.24,534.95 838.52,537.65 841.79,550.68 845.07,559.57 848.34,558.54 851.61,551.65 854.89,544.34 858.16,528.67 861.44,516.31 864.71,508.41 867.98,510.96 871.26,515.62 874.53,523.59 877.81,548.66 881.08,561.70 884.36,555.20 887.63,559.28 890.90,563.80 894.18,563.82 897.45,550.75 900.73,559.99 904.00,562.89" />
<polyline fill="none" stroke="#d62728" stroke-width="2" points="82.19,583.20 85.47,621.75 88.74,660.85 92.02,694.48 95.29,720.59 98.56,734.72 101.84,760.28 105.11,810.47 108.39,869.15 111.66,919.87 114.93,959.85 118.21,987.84 121.48,1014.07 124.76,1032.38 128.03,1028.11 131.31,1011.26 134.58,986.19 137.85,960.19 141.13,933.90 144.40,906.99 147.68,882.13 150.95,860.76 154.22,842.45 157.50,830.01 160.77,820.89 164.05,841.75 167.32,866.58 170.59,890.82 173.87,898.81 177.14,898.20 180.42,887.42 183.69,872.68 186.97,857.94 190.24,845.10 193.51,836.11 196.79,843.48 200.06,882.23 203.34,956.40 206.61,1035.95 209.88,1061.36 213.16,1056.75 216.43,1040.96 219.71,1016.91 222.98,1004.20 226.25,993.48 229.53,984.85 232.80,974.93 236.08,971.35 239.35,973.88 242.63,977.17 245.90,977.65 249.17,973.11 252.45,954.01 255.72,923.21 259.00,883.02 262.27,843.23 265.54,806.51 268.82,776.73 272.09,755.93 275.37,743.88 278.64,739.79 281.92,740.20 285.19,748.89 288.46,757.75 291.74,770.51 295.01,780.98 298.29,795.04 301.56,805.63 304.83,813.73 308.11,820.26 311.38,825.36 314.66,819.80 317.93,810.46 321.20,798.77 324.48,791.87 327.75,799.34 331.03,809.62 334.30,814.25 337.58,816.74 340.85,813.79 344.12,805.28 347.40,794.34 350.67,784.29 353.95,771.35 357.22,759.70 360.49,752.05 363.77,747.93 367.04,745.07 370.32,744.75 373.59,751.35 376.86,752.45 380.14,749.22 383.41,748.57 386.69,748.94 389.96,751.38 393.24,753.95 396.51,756.81 399.78,757.11 403.06,758.70 406.33,753.75 409.61,746.46 412.88,734.33 416.15,724.72 419.43,716.67 422.70,710.20 425.98,702.16 429.25,690.90 432.53,680.48 435.80,671.76 439.07,665.68 442.35,659.27 445.62,654.33 448.90,649.51 452.17,648.91 455.44,658.07 458.72,676.41 461.99,702.43 465.27,730.38 468.54,757.84 471.81,779.86 475.09,794.86 478.36,806.57 481.64,811.01 484.91,804.76 488.19,797.18 491.46,789.70 494.73,782.18 498.01,773.52 501.28,769.37 504.56,767.02 507.83,761.01 511.10,760.30 514.38,759.95 517.65,750.88 520.93,741.27 524.20,734.47 527.47,726.24 530.75,717.13 534.02,708.24 537.30,707.02 540.57,704.35 543.85,698.99 547.12,692.45 550.39,688.49 553.67,690.32 556.94,695.86 560.22,694.67 563.49,686.19 566.76,674.02 570.04,665.92 573.31,665.74 576.59,666.02 579.86,662.77 583.14,656.69 586.41,652.26 589.68,649.30 592.96,643.38 596.23,633.92 599.51,621.58 602.78,608.83 606.05,595.15 609.33,582.67 612.60,571.26 615.88,563.24 619.15,564.13 622.42,574.97 625.70,585.08 628.97,593.06 632.25,598.62 635.52,601.40 638.80,599.92 642.07,596.70 645.34,593.15 648.62,586.08 651.89,577.42 655.17,568.87 658.44,563.76 661.71,565.87 664.99,578.28 668.26,592.94 671.54,602.86 674.81,609.72 678.08,615.46 681.36,622.90 684.63,630.83 687.91,631.67 691.18,631.41 694.46,628.77 697.73,619.16 701.00,607.11 704.28,594.88 707.55,583.41 710.83,573.02 714.10,565.39 717.37,558.28 720.65,552.67 723.92,548.59 727.20,544.96 730.47,541.43 733.75,542.32 737.02,545.48 740.29,550.79 743.57,555.24 746.84,559.87 750.12,564.23 753.39,562.02 756.66,553.41 759.94,542.73 763.21,532.34 766.49,524.16 769.76,516.85 773.03,511.66 776.31,509.19 779.58,508.54 782.86,511.82 786.13,518.24 789.41,529.98 792.68,542.59 795.95,545.54 799.23,541.03 802.50,533.57 805.78,526.75 809.05,520.20 812.32,516.77 815.60,512.42 818.87,508.03 822.15,504.12 825.42,500.86 828.69,500.82 831.97,504.65 835.24,514.75 838.52,522.39 841.79,531.82 845.07,541.07 848.34,546.89 851.61,548.48 854.89,547.10 858.16,540.96 861.44,532.74 864.71,524.63 867.98,520.07 871.26,518.59 874.53,520.26 877.81,529.72 881.08,540.38 884.36,545.32 887.63,549.98 890.90,554.58 894.18,557.66 897.45,555.36 900.73,556.90 904.00,558.90" />
<text x="824.00" y="502.00" font-size="13" font-family="Arial" fill="#2ca02c" text-anchor="start">K</text>
<text x="860.00" y="502.00" font-size="13" font-family="Arial" fill="#d62728" text-anchor="start">D</text>
</svg>