<svg xmlns="http://www.w3.org/2000/svg" width="960" height="680" viewBox="0 0 960 680"><rect width="100%" height="100%" fill="white" />
<text x="56.00" y="32.00" font-size="20" font-family="Arial" fill="#1f2933" text-anchor="start">台積電(2330) Technical Indicators</text>
<line x1="56" y1="220" x2="904" y2="220" stroke="#cbd2d9" />
<line x1="56" y1="58" x2="56" y2="220" stroke="#cbd2d9" />
<text x="16.00" y="50.00" font-size="12" font-family="Arial" fill="#52606d" text-anchor="start">RSI14</text>
<line x1="56" y1="220.00" x2="904" y2="220.00" stroke="#edf2f7" />
<line x1="52" y1="220.00" x2="56" y2="220.00" stroke="#9fb3c8" />
<text x="48.00" y="224.00" font-size="11" font-family="Arial" fill="#52606d" text-anchor="end">-5.00</text>
<line x1="56" y1="166.00" x2="904" y2="166.00" stroke="#edf2f7" />
<line x1="52" y1="166.00" x2="56" y2="166.00" stroke="#9fb3c8" />
<text x="48.00" y="170.00" font-size="11" font-family="Arial" fill="#52606d" text-anchor="end">31.7</text>
<line x1="56" y1="112.00" x2="904" y2="112.00" stroke="#edf2f7" />
<line x1="52" y1="112.00" x2="56" y2="112.00" stroke="#9fb3c8" />
<text x="48.00" y="116.00" font-size="11" font-family="Arial" fill="#52606d" text-anchor="end">68.3</text>
<line x1="56" y1="58.00" x2="904" y2="58.00" stroke="#edf2f7" />
<line x1="52" y1="58.00" x2="56" y2="58.00" stroke="#9fb3c8" />
<text x="48.00" y="62.00" font-size="11" font-family="Arial" fill="#52606d" text-anchor="end">105</text>
<line x1="56" y1="168.45" x2="904" y2="168.45" stroke="#f0b429" stroke-dasharray="5 5" />
<text x="912.00" y="172.45" font-size="10" font-family="Arial" fill="#8d2b0b" text-anchor="start">30.0</text>
<line x1="56" y1="109.55" x2="904" y2="109.55" stroke="#f0b429" stroke-dasharray="5 5" />
<text x="912.00" y="113.55" font-size="10" font-family="Arial" fill="#8d2b0b" text-anchor="start">70.0</text>
<polyline fill="none" stroke="#1f77b4" stroke-width="2" points="101.84,118.92 105.11,121.16 108.39,123.45 111.66,123.45 114.93,120.26 118.21,117.19 121.48,117.19 124.76,120.19 128.03,115.14 131.31,109.32 134.58,109.32 137.85,102.96 141.13,106.27 144.40,118.53 147.68,114.01 150.95,114.01 154.22,114.01 157.50,114.01 160.77,121.00 164.05,113.63 167.32,111.97 170.59,127.72 173.87,121.99 177.14,134.82 180.42,117.38 183.69,119.67 186.97,118.30 190.24,118.30 193.51,112.76 196.79,125.09 200.06,123.54 203.34,123.54 206.61,121.85 209.88,143.55 213.16,137.94 216.43,143.29 219.71,131.40 222.98,129.89 226.25,125.44 229.53,136.72 232.80,136.72 236.08,134.98 239.35,136.96 242.63,136.96 245.90,136.96 249.17,128.85 252.45,128.85 255.72,121.47 259.00,113.88 262.27,109.98 265.54,105.36 268.82,108.27 272.09,101.85 275.37,110.11 278.64,105.78 281.92,115.86 285.19,109.18 288.46,101.47 291.74,101.47 295.01,110.72 298.29,119.09 301.56,117.93 304.83,113.45 308.11,105.98 311.38,100.80 314.66,96.52 317.93,104.55 321.20,101.21 324.48,110.58 327.75,109.00 331.03,103.29 334.30,100.80 337.58,113.14 340.85,108.72 344.12,108.72 347.40,115.65 350.67,119.01 353.95,113.61 357.22,115.37 360.49,110.22 363.77,110.22 367.04,112.22 370.32,110.33 373.59,112.50 376.86,129.61 380.14,128.32 383.41,130.10 386.69,125.97 389.96,129.77 393.24,126.86 396.51,132.69 399.78,142.88 403.06,137.90 406.33,149.55 409.61,152.09 412.88,134.18 416.15,150.34 419.43,152.25 422.70,142.10 425.98,136.51 429.25,137.68 432.53,136.50 435.80,143.79 439.07,138.74 442.35,133.99 445.62,135.34 448.90,131.67 452.17,123.95 455.44,128.47 458.72,123.18 461.99,131.95 465.27,129.69 468.54,137.90 471.81,141.68 475.09,142.95 478.36,142.95 481.64,142.95 484.91,132.48 488.19,126.17 491.46,124.96 494.73,121.37 498.01,116.91 501.28,120.84 504.56,114.34 507.83,108.05 511.10,97.31 514.38,94.11 517.65,104.15 520.93,103.01 524.20,104.72 527.47,103.44 530.75,100.94 534.02,100.94 537.30,108.84 540.57,101.89 543.85,99.53 547.12,97.84 550.39,110.54 553.67,107.66 556.94,106.26 560.22,111.67 563.49,107.79 566.76,102.45 570.04,107.78 573.31,117.68 576.59,120.80 579.86,114.70 583.14,119.43 586.41,125.48 589.68,122.49 592.96,116.13 596.23,106.90 599.51,102.93 602.78,107.56 606.05,100.62 609.33,96.39 612.60,102.10 615.88,107.66 619.15,117.91 622.42,132.63 625.70,127.44 628.97,129.41 632.25,143.28 635.52,136.87 638.80,124.97 642.07,133.62 645.34,136.56 648.62,139.49 651.89,135.00 655.17,130.22 658.44,138.80 661.71,140.27 664.99,144.66 668.26,144.66 671.54,138.65 674.81,139.50 678.08,142.96 681.36,149.40 684.63,152.40 687.91,135.41 691.18,142.40 694.46,134.87 697.73,123.80 701.00,123.24 704.28,118.39 707.55,120.24 710.83,113.60 714.10,111.30 717.37,110.83 720.65,121.79 723.92,122.73 727.20,119.68 730.47,119.68 733.75,115.94 737.02,105.52 740.29,99.71 743.57,109.73 746.84,116.18 750.12,123.88 753.39,111.53 756.66,115.47 759.94,115.47 763.21,110.57 766.49,114.03 769.76,123.05 773.03,121.05 776.31,126.65 779.58,121.38 782.86,122.22 786.13,126.48 789.41,132.19 792.68,135.34 795.95,129.27 799.23,126.12 802.50,119.76 805.78,126.80 809.05,123.25 812.32,124.17 815.60,117.30 818.87,117.30 822.15,114.52 825.42,109.91 828.69,118.38 831.97,122.39 835.24,134.85 838.52,133.41 841.79,141.39 845.07,141.22 848.34,131.89 851.61,123.54 854.89,120.66 858.16,123.51 861.44,120.45 864.71,110.27 867.98,114.19 871.26,131.01 874.53,131.01 877.81,138.37 881.08,134.35 884.36,129.30 887.63,119.21 890.90,125.45 894.18,128.47 897.45,126.75 900.73,129.99 904.00,126.87" />
<text x="808.00" y="76.00" font-size="13" font-family="Arial" fill="#1f77b4" text-anchor="start">RSI14</text>
<line x1="56" y1="432" x2="904" y2="432" stroke="#cbd2d9" />
<line x1="56" y1="272" x2="56" y2="432" stroke="#cbd2d9" />
<text x="16.00" y="264.00" font-size="12" font-family="Arial" fill="#52606d" text-anchor="start">MACD</text>
<line x1="56" y1="432.00" x2="904" y2="432.00" stroke="#edf2f7" />
<line x1="52" y1="432.00" x2="56" y2="432.00" stroke="#9fb3c8" />
<text x="48.00" y="436.00" font-size="11" font-family="Arial" fill="#52606d" text-anchor="end">-25.1</text>
<line x1="56" y1="378.67" x2="904" y2="378.67" stroke="#edf2f7" />
<line x1="52" y1="378.67" x2="56" y2="378.67" stroke="#9fb3c8" />
<text x="48.00" y="382.67" font-size="11" font-family="Arial" fill="#52606d" text-anchor="end">17.7</text>
<line x1="56" y1="325.33" x2="904" y2="325.33" stroke="#edf2f7" />
<line x1="52" y1="325.33" x2="56" y2="325.33" stroke="#9fb3c8" />
<text x="48.00" y="329.33" font-size="11" font-family="Arial" fill="#52606d" text-anchor="end">60.6</text>
<line x1="56" y1="272.00" x2="904" y2="272.00" stroke="#edf2f7" />
<line x1="52" y1="272.00" x2="56" y2="272.00" stroke="#9fb3c8" />
<text x="48.00" y="276.00" font-size="11" font-family="Arial" fill="#52606d" text-anchor="end">103</text>
<line x1="56" y1="400.74" x2="904" y2="400.74" stroke="#9fb3c8" stroke-dasharray="4 4" />
<rect x="136.71" y="400.74" width="2.28" height="0.00" fill="#2f9e44" opacity="0.55" />
<rect x="139.99" y="399.15" width="2.28" height="1.59" fill="#2f9e44" opacity="0.55" />
<rect x="143.26" y="400.07" width="2.28" height="0.68" fill="#2f9e44" opacity="0.55" />
<rect x="146.53" y="399.76" width="2.28" height="0.98" fill="#2f9e44" opacity="0.55" />
<rect x="149.81" y="399.88" width="2.28" height="0.86" fill="#2f9e44" opacity="0.55" />
<rect x="153.08" y="400.27" width="2.28" height="0.47" fill="#2f9e44" opacity="0.55" />
<rect x="156.36" y="400.74" width="2.28" height="0.06" fill="#d64545" opacity="0.55" />
<rect x="159.63" y="400.74" width="2.28" height="1.44" fill="#d64545" opacity="0.55" />
<rect x="162.90" y="400.74" width="2.28" height="0.92" fill="#d64545" opacity="0.55" />
<rect x="166.18" y="400.74" width="2.28" height="0.42" fill="#d64545" opacity="0.55" />
<rect x="169.45" y="400.74" width="2.28" height="2.30" fill="#d64545" opacity="0.55" />
<rect x="172.73" y="400.74" width="2.28" height="2.44" fill="#d64545" opacity="0.55" />
<rect x="176.00" y="400.74" width="2.28" height="4.61" fill="#d64545" opacity="0.55" />
<rect x="179.28" y="400.74" width="2.28" height="1.65" fill="#d64545" opacity="0.55" />
<rect x="182.55" y="400.74" width="2.28" height="0.34" fill="#d64545" opacity="0.55" />
<rect x="185.82" y="400.08" width="2.28" height="0.66" fill="#2f9e44" opacity="0.55" />
<rect x="189.10" y="399.73" width="2.28" height="1.02" fill="#2f9e44" opacity="0.55" />
<rect x="192.37" y="398.23" width="2.28" height="2.52" fill="#2f9e44" opacity="0.55" />
<rect x="195.65" y="399.62" width="2.28" height="1.12" fill="#2f9e44" opacity="0.55" />
<rect x="198.92" y="400.41" width="2.28" height="0.34" fill="#2f9e44" opacity="0.55" />
<rect x="202.19" y="400.74" width="2.28" height="0.42" fill="#d64545" opacity="0.55" />
<rect x="205.47" y="400.74" width="2.28" height="0.73" fill="#d64545" opacity="0.55" />
<rect x="208.74" y="400.74" width="2.28" height="5.04" fill="#d64545" opacity="0.55" />
<rect x="212.02" y="400.74" width="2.28" height="6.54" fill="#d64545" opacity="0.55" />
<rect x="215.29" y="400.74" width="2.28" height="8.53" fill="#d64545" opacity="0.55" />
<rect x="218.57" y="400.74" width="2.28" height="6.78" fill="#d64545" opacity="0.55" />
<rect x="221.84" y="400.74" width="2.28" height="5.12" fill="#d64545" opacity="0.55" />
<rect x="225.11" y="400.74" width="2.28" height="2.81" fill="#d64545" opacity="0.55" />
<rect x="228.39" y="400.74" width="2.28" height="3.73" fill="#d64545" opacity="0.55" />
<rect x="231.66" y="400.74" width="2.28" height="4.27" fill="#d64545" opacity="0.55" />
<rect x="234.94" y="400.74" width="2.28" height="4.13" fill="#d64545" opacity="0.55" />
<rect x="238.21" y="400.74" width="2.28" height="4.36" fill="#d64545" opacity="0.55" />
<rect x="241.48" y="400.74" width="2.28" height="4.40" fill="#d64545" opacity="0.55" />
<rect x="244.76" y="400.74" width="2.28" height="4.31" fill="#d64545" opacity="0.55" />
<rect x="248.03" y="400.74" width="2.28" height="2.57" fill="#d64545" opacity="0.55" />
<rect x="251.31" y="400.74" width="2.28" height="1.45" fill="#d64545" opacity="0.55" />
<rect x="254.58" y="399.94" width="2.28" height="0.80" fill="#2f9e44" opacity="0.55" />
<rect x="257.85" y="396.71" width="2.28" height="4.03" fill="#2f9e44" opacity="0.55" />
<rect x="261.13" y="393.84" width="2.28" height="6.91" fill="#2f9e44" opacity="0.55" />
<rect x="264.40" y="390.95" width="2.28" height="9.79" fill="#2f9e44" opacity="0.55" />
<rect x="267.68" y="390.20" width="2.28" height="10.55" fill="#2f9e44" opacity="0.55" />
<rect x="270.95" y="388.09" width="2.28" height="12.66" fill="#2f9e44" opacity="0.55" />
<rect x="274.23" y="388.81" width="2.28" height="11.94" fill="#2f9e44" opacity="0.55" />
<rect x="277.50" y="388.54" width="2.28" height="12.21" fill="#2f9e44" opacity="0.55" />
<rect x="280.77" y="390.84" width="2.28" height="9.91" fill="#2f9e44" opacity="0.55" />
<rect x="284.05" y="390.72" width="2.28" height="10.03" fill="#2f9e44" opacity="0.55" />
<rect x="287.32" y="387.93" width="2.28" height="12.82" fill="#2f9e44" opacity="0.55" />
<rect x="290.60" y="387.18" width="2.28" height="13.57" fill="#2f9e44" opacity="0.55" />
<rect x="293.87" y="389.35" width="2.28" height="11.39" fill="#2f9e44" opacity="0.55" />
<rect x="297.14" y="393.28" width="2.28" height="7.47" fill="#2f9e44" opacity="0.55" />
<rect x="300.42" y="396.13" width="2.28" height="4.61" fill="#2f9e44" opacity="0.55" />
<rect x="303.69" y="397.01" width="2.28" height="3.74" fill="#2f9e44" opacity="0.55" />
<rect x="306.97" y="395.03" width="2.28" height="5.72" fill="#2f9e44" opacity="0.55" />
<rect x="310.24" y="391.77" width="2.28" height="8.98" fill="#2f9e44" opacity="0.55" />
<rect x="313.51" y="387.90" width="2.28" height="12.85" fill="#2f9e44" opacity="0.55" />
<rect x="316.79" y="388.20" width="2.28" height="12.54" fill="#2f9e44" opacity="0.55" />
<rect x="320.06" y="387.60" width="2.28" height="13.14" fill="#2f9e44" opacity="0.55" />
<rect x="323.34" y="390.42" width="2.28" height="10.32" fill="#2f9e44" opacity="0.55" />
<rect x="326.61" y="392.51" width="2.28" height="8.23" fill="#2f9e44" opacity="0.55" />
<rect x="329.89" y="391.69" width="2.28" height="9.05" fill="#2f9e44" opacity="0.55" />
<rect x="333.16" y="390.69" width="2.28" height="10.06" fill="#2f9e44" opacity="0.55" />
<rect x="336.43" y="393.97" width="2.28" height="6.78" fill="#2f9e44" opacity="0.55" />
<rect x="339.71" y="394.66" width="2.28" height="6.08" fill="#2f9e44" opacity="0.55" />
<rect x="342.98" y="396.08" width="2.28" height="4.67" fill="#2f9e44" opacity="0.55" />
<rect x="346.26" y="399.45" width="2.28" height="1.29" fill="#2f9e44" opacity="0.55" />
<rect x="349.53" y="400.74" width="2.28" height="2.35" fill="#d64545" opacity="0.55" />
<rect x="352.80" y="400.74" width="2.28" height="2.81" fill="#d64545" opacity="0.55" />
<rect x="356.08" y="400.74" width="2.28" height="4.01" fill="#d64545" opacity="0.55" />
<rect x="359.35" y="400.74" width="2.28" height="2.85" fill="#d64545" opacity="0.55" />
<rect x="362.63" y="400.74" width="2.28" height="2.61" fill="#d64545" opacity="0.55" />
<rect x="365.90" y="400.74" width="2.28" height="3.36" fill="#d64545" opacity="0.55" />
<rect x="369.18" y="400.74" width="2.28" height="3.50" fill="#d64545" opacity="0.55" />
<rect x="372.45" y="400.74" width="2.28" height="4.42" fill="#d64545" opacity="0.55" />
<rect x="375.72" y="400.74" width="2.28" height="8.91" fill="#d64545" opacity="0.55" />
<rect x="379.00" y="400.74" width="2.28" height="11.47" fill="#d64545" opacity="0.55" />
<rect x="382.27" y="400.74" width="2.28" height="13.42" fill="#d64545" opacity="0.55" />
<rect x="385.55" y="400.74" width="2.28" height="13.31" fill="#d64545" opacity="0.55" />
<rect x="388.82" y="400.74" width="2.28" height="13.83" fill="#d64545" opacity="0.55" />
<rect x="392.09" y="400.74" width="2.28" height="13.11" fill="#d64545" opacity="0.55" />
<rect x="395.37" y="400.74" width="2.28" height="13.61" fill="#d64545" opacity="0.55" />
<rect x="398.64" y="400.74" width="2.28" height="15.98" fill="#d64545" opacity="0.55" />
<rect x="401.92" y="400.74" width="2.28" height="15.82" fill="#d64545" opacity="0.55" />
<rect x="405.19" y="400.74" width="2.28" height="18.38" fill="#d64545" opacity="0.55" />
<rect x="408.46" y="400.74" width="2.28" height="20.11" fill="#d64545" opacity="0.55" />
<rect x="411.74" y="400.74" width="2.28" height="15.67" fill="#d64545" opacity="0.55" />
<rect x="415.01" y="400.74" width="2.28" height="17.79" fill="#d64545" opacity="0.55" />
<rect x="418.29" y="400.74" width="2.28" height="19.15" fill="#d64545" opacity="0.55" />
<rect x="421.56" y="400.74" width="2.28" height="15.99" fill="#d64545" opacity="0.55" />
<rect x="424.84" y="400.74" width="2.28" height="11.30" fill="#d64545" opacity="0.55" />
<rect x="428.11" y="400.74" width="2.28" height="8.23" fill="#d64545" opacity="0.55" />
<rect x="431.38" y="400.74" width="2.28" height="5.53" fill="#d64545" opacity="0.55" />
<rect x="434.66" y="400.74" width="2.28" height="5.96" fill="#d64545" opacity="0.55" />
<rect x="437.93" y="400.74" width="2.28" height="4.36" fill="#d64545" opacity="0.55" />
<rect x="441.21" y="400.74" width="2.28" height="1.57" fill="#d64545" opacity="0.55" />
<rect x="444.48" y="400.74" width="2.28" height="0.15" fill="#d64545" opacity="0.55" />
<rect x="447.75" y="398.83" width="2.28" height="1.91" fill="#2f9e44" opacity="0.55" />
<rect x="451.03" y="394.90" width="2.28" height="5.85" fill="#2f9e44" opacity="0.55" />
<rect x="454.30" y="393.95" width="2.28" height="6.79" fill="#2f9e44" opacity="0.55" />
<rect x="457.58" y="391.79" width="2.28" height="8.95" fill="#2f9e44" opacity="0.55" />
<rect x="460.85" y="393.34" width="2.28" height="7.40" fill="#2f9e44" opacity="0.55" />
<rect x="464.12" y="394.00" width="2.28" height="6.75" fill="#2f9e44" opacity="0.55" />
<rect x="467.40" y="397.22" width="2.28" height="3.52" fill="#2f9e44" opacity="0.55" />
<rect x="470.67" y="400.72" width="2.28" height="0.02" fill="#2f9e44" opacity="0.55" />
<rect x="473.95" y="400.74" width="2.28" height="2.68" fill="#d64545" opacity="0.55" />
<rect x="477.22" y="400.74" width="2.28" height="4.32" fill="#d64545" opacity="0.55" />
<rect x="480.50" y="400.74" width="2.28" height="5.22" fill="#d64545" opacity="0.55" />
<rect x="483.77" y="400.74" width="2.28" height="2.83" fill="#d64545" opacity="0.55" />
<rect x="487.04" y="400.02" width="2.28" height="0.72" fill="#2f9e44" opacity="0.55" />
<rect x="490.32" y="397.51" width="2.28" height="3.23" fill="#2f9e44" opacity="0.55" />
<rect x="493.59" y="395.01" width="2.28" height="5.74" fill="#2f9e44" opacity="0.55" />
<rect x="496.87" y="392.25" width="2.28" height="8.49" fill="#2f9e44" opacity="0.55" />
<rect x="500.14" y="391.87" width="2.28" height="8.87" fill="#2f9e44" opacity="0.55" />
<rect x="503.41" y="389.87" width="2.28" height="10.88" fill="#2f9e44" opacity="0.55" />
<rect x="506.69" y="386.58" width="2.28" height="14.17" fill="#2f9e44" opacity="0.55" />
<rect x="509.96" y="378.74" width="2.28" height="22.01" fill="#2f9e44" opacity="0.55" />
<rect x="513.24" y="372.46" width="2.28" height="28.29" fill="#2f9e44" opacity="0.55" />
<rect x="516.51" y="372.68" width="2.28" height="28.07" fill="#2f9e44" opacity="0.55" />
<rect x="519.79" y="373.87" width="2.28" height="26.88" fill="#2f9e44" opacity="0.55" />
<rect x="523.06" y="376.84" width="2.28" height="23.90" fill="#2f9e44" opacity="0.55" />
<rect x="526.33" y="379.66" width="2.28" height="21.08" fill="#2f9e44" opacity="0.55" />
<rect x="529.61" y="381.49" width="2.28" height="19.26" fill="#2f9e44" opacity="0.55" />
<rect x="532.88" y="384.22" width="2.28" height="16.53" fill="#2f9e44" opacity="0.55" />
<rect x="536.16" y="388.99" width="2.28" height="11.76" fill="#2f9e44" opacity="0.55" />
<rect x="539.43" y="389.29" width="2.28" height="11.45" fill="#2f9e44" opacity="0.55" />
<rect x="542.70" y="389.17" width="2.28" height="11.58" fill="#2f9e44" opacity="0.55" />
<rect x="545.98" y="389.21" width="2.28" height="11.53" fill="#2f9e44" opacity="0.55" />
<rect x="549.25" y="393.32" width="2.28" height="7.42" fill="#2f9e44" opacity="0.55" />
<rect x="552.53" y="395.45" width="2.28" height="5.30" fill="#2f9e44" opacity="0.55" />
<rect x="555.80" y="397.02" width="2.28" height="3.73" fill="#2f9e44" opacity="0.55" />
<rect x="559.07" y="400.14" width="2.28" height="0.60" fill="#2f9e44" opacity="0.55" />
<rect x="562.35" y="400.74" width="2.28" height="0.17" fill="#d64545" opacity="0.55" />
<rect x="565.62" y="398.99" width="2.28" height="1.75" fill="#2f9e44" opacity="0.55" />
<rect x="568.90" y="399.83" width="2.28" height="0.92" fill="#2f9e44" opacity="0.55" />
<rect x="572.17" y="400.74" width="2.28" height="2.79" fill="#d64545" opacity="0.55" />
<rect x="575.45" y="400.74" width="2.28" height="6.51" fill="#d64545" opacity="0.55" />
<rect x="578.72" y="400.74" width="2.28" height="6.48" fill="#d64545" opacity="0.55" />
<rect x="581.99" y="400.74" width="2.28" height="8.04" fill="#d64545" opacity="0.55" />
<rect x="585.27" y="400.74" width="2.28" height="10.88" fill="#d64545" opacity="0.55" />
<rect x="588.54" y="400.74" width="2.28" height="11.60" fill="#d64545" opacity="0.55" />
<rect x="591.82" y="400.74" width="2.28" height="9.33" fill="#d64545" opacity="0.55" />
<rect x="595.09" y="400.74" width="2.28" height="2.93" fill="#d64545" opacity="0.55" />
<rect x="598.36" y="397.38" width="2.28" height="3.36" fill="#2f9e44" opacity="0.55" />
<rect x="601.64" y="395.43" width="2.28" height="5.31" fill="#2f9e44" opacity="0.55" />
<rect x="604.91" y="390.01" width="2.28" height="10.73" fill="#2f9e44" opacity="0.55" />
<rect x="608.19" y="383.90" width="2.28" height="16.84" fill="#2f9e44" opacity="0.55" />
<rect x="611.46" y="383.25" width="2.28" height="17.49" fill="#2f9e44" opacity="0.55" />
<rect x="614.73" y="386.09" width="2.28" height="14.65" fill="#2f9e44" opacity="0.55" />
<rect x="618.01" y="392.59" width="2.28" height="8.16" fill="#2f9e44" opacity="0.55" />
<rect x="621.28" y="400.74" width="2.28" height="2.67" fill="#d64545" opacity="0.55" />
<rect x="624.56" y="400.74" width="2.28" height="7.36" fill="#d64545" opacity="0.55" />
<rect x="627.83" y="400.74" width="2.28" height="11.48" fill="#d64545" opacity="0.55" />
<rect x="631.11" y="400.74" width="2.28" height="20.53" fill="#d64545" opacity="0.55" />
<rect x="634.38" y="400.74" width="2.28" height="22.68" fill="#d64545" opacity="0.55" />
<rect x="637.65" y="400.74" width="2.28" height="16.40" fill="#d64545" opacity="0.55" />
<rect x="640.93" y="400.74" width="2.28" height="16.56" fill="#d64545" opacity="0.55" />
<rect x="644.20" y="400.74" width="2.28" height="17.96" fill="#d64545" opacity="0.55" />
<rect x="647.48" y="400.74" width="2.28" height="20.01" fill="#d64545" opacity="0.55" />
<rect x="650.75" y="400.74" width="2.28" height="18.29" fill="#d64545" opacity="0.55" />
<rect x="654.02" y="400.74" width="2.28" height="13.94" fill="#d64545" opacity="0.55" />
<rect x="657.30" y="400.74" width="2.28" height="15.26" fill="#d64545" opacity="0.55" />
<rect x="660.57" y="400.74" width="2.28" height="16.47" fill="#d64545" opacity="0.55" />
<rect x="663.85" y="400.74" width="2.28" height="19.09" fill="#d64545" opacity="0.55" />
<rect x="667.12" y="400.74" width="2.28" height="20.04" fill="#d64545" opacity="0.55" />
<rect x="670.40" y="400.74" width="2.28" height="17.07" fill="#d64545" opacity="0.55" />
<rect x="673.67" y="400.74" width="2.28" height="14.94" fill="#d64545" opacity="0.55" />
<rect x="676.94" y="400.74" width="2.28" height="14.59" fill="#d64545" opacity="0.55" />
<rect x="680.22" y="400.74" width="2.28" height="16.93" fill="#d64545" opacity="0.55" />
<rect x="683.49" y="400.74" width="2.28" height="19.21" fill="#d64545" opacity="0.55" />
<rect x="686.77" y="400.74" width="2.28" height="12.18" fill="#d64545" opacity="0.55" />
<rect x="690.04" y="400.74" width="2.28" height="10.75" fill="#d64545" opacity="0.55" />
<rect x="693.31" y="400.74" width="2.28" height="5.35" fill="#d64545" opacity="0.55" />
<rect x="696.59" y="395.31" width="2.28" height="5.44" fill="#2f9e44" opacity="0.55" />
<rect x="699.86" y="388.46" width="2.28" height="12.29" fill="#2f9e44" opacity="0.55" />
<rect x="703.14" y="381.30" width="2.28" height="19.45" fill="#2f9e44" opacity="0.55" />
<rect x="706.41" y="378.71" width="2.28" height="22.03" fill="#2f9e44" opacity="0.55" />
<rect x="709.68" y="373.24" width="2.28" height="27.50" fill="#2f9e44" opacity="0.55" />
<rect x="712.96" y="369.48" width="2.28" height="31.26" fill="#2f9e44" opacity="0.55" />
<rect x="716.23" y="368.65" width="2.28" height="32.10" fill="#2f9e44" opacity="0.55" />
<rect x="719.51" y="374.51" width="2.28" height="26.23" fill="#2f9e44" opacity="0.55" />
<rect x="722.78" y="380.37" width="2.28" height="20.37" fill="#2f9e44" opacity="0.55" />
<rect x="726.06" y="383.59" width="2.28" height="17.16" fill="#2f9e44" opacity="0.55" />
<rect x="729.33" y="387.00" width="2.28" height="13.75" fill="#2f9e44" opacity="0.55" />
<rect x="732.60" y="388.01" width="2.28" height="12.73" fill="#2f9e44" opacity="0.55" />
<rect x="735.88" y="381.55" width="2.28" height="19.19" fill="#2f9e44" opacity="0.55" />
<rect x="739.15" y="372.78" width="2.28" height="27.97" fill="#2f9e44" opacity="0.55" />
<rect x="742.43" y="373.37" width="2.28" height="27.38" fill="#2f9e44" opacity="0.55" />
<rect x="745.70" y="378.67" width="2.28" height="22.08" fill="#2f9e44" opacity="0.55" />
<rect x="748.97" y="387.49" width="2.28" height="13.26" fill="#2f9e44" opacity="0.55" />
<rect x="752.25" y="383.43" width="2.28" height="17.31" fill="#2f9e44" opacity="0.55" />
<rect x="755.52" y="384.62" width="2.28" height="16.12" fill="#2f9e44" opacity="0.55" />
<rect x="758.80" y="387.10" width="2.28" height="13.64" fill="#2f9e44" opacity="0.55" />
<rect x="762.07" y="385.53" width="2.28" height="15.22" fill="#2f9e44" opacity="0.55" />
<rect x="765.34" y="387.87" width="2.28" height="12.87" fill="#2f9e44" opacity="0.55" />
<rect x="768.62" y="395.35" width="2.28" height="5.39" fill="#2f9e44" opacity="0.55" />
<rect x="771.89" y="399.73" width="2.28" height="1.01" fill="#2f9e44" opacity="0.55" />
<rect x="775.17" y="400.74" width="2.28" height="5.55" fill="#d64545" opacity="0.55" />
<rect x="778.44" y="400.74" width="2.28" height="6.39" fill="#d64545" opacity="0.55" />
<rect x="781.72" y="400.74" width="2.28" height="7.94" fill="#d64545" opacity="0.55" />
<rect x="784.99" y="400.74" width="2.28" height="11.43" fill="#d64545" opacity="0.55" />
<rect x="788.26" y="400.74" width="2.28" height="16.71" fill="#d64545" opacity="0.55" />
<rect x="791.54" y="400.74" width="2.28" height="21.61" fill="#d64545" opacity="0.55" />
<rect x="794.81" y="400.74" width="2.28" height="20.82" fill="#d64545" opacity="0.55" />
<rect x="798.09" y="400.74" width="2.28" height="18.04" fill="#d64545" opacity="0.55" />
<rect x="801.36" y="400.74" width="2.28" height="11.74" fill="#d64545" opacity="0.55" />
<rect x="804.63" y="400.74" width="2.28" height="11.06" fill="#d64545" opacity="0.55" />
<rect x="807.91" y="400.74" width="2.28" height="8.38" fill="#d64545" opacity="0.55" />
<rect x="811.18" y="400.74" width="2.28" height="7.32" fill="#d64545" opacity="0.55" />
<rect x="814.46" y="400.74" width="2.28" height="2.19" fill="#d64545" opacity="0.55" />
<rect x="817.73" y="400.25" width="2.28" height="0.49" fill="#2f9e44" opacity="0.55" />
<rect x="821.01" y="397.27" width="2.28" height="3.47" fill="#2f9e44" opacity="0.55" />
<rect x="824.28" y="392.68" width="2.28" height="8.06" fill="#2f9e44" opacity="0.55" />
<rect x="827.55" y="394.08" width="2.28" height="6.67" fill="#2f9e44" opacity="0.55" />
<rect x="830.83" y="397.58" width="2.28" height="3.16" fill="#2f9e44" opacity="0.55" />
<rect x="834.10" y="400.74" width="2.28" height="5.44" fill="#d64545" opacity="0.55" />
<rect x="837.38" y="400.74" width="2.28" height="10.45" fill="#d64545" opacity="0.55" />
<rect x="840.65" y="400.74" width="2.28" height="17.67" fill="#d64545" opacity="0.55" />
<rect x="843.92" y="400.74" width="2.28" height="21.81" fill="#d64545" opacity="0.55" />
<rect x="847.20" y="400.74" width="2.28" height="19.08" fill="#d64545" opacity="0.55" />
<rect x="850.47" y="400.74" width="2.28" height="11.74" fill="#d64545" opacity="0.55" />
<rect x="853.75" y="400.74" width="2.28" height="5.04" fill="#d64545" opacity="0.55" />
<rect x="857.02" y="400.74" width="2.28" height="2.27" fill="#d64545" opacity="0.55" />
<rect x="860.29" y="399.66" width="2.28" height="1.09" fill="#2f9e44" opacity="0.55" />
<rect x="863.57" y="390.16" width="2.28" height="10.58" fill="#2f9e44" opacity="0.55" />
<rect x="866.84" y="386.87" width="2.28" height="13.87" fill="#2f9e44" opacity="0.55" />
<rect x="870.12" y="394.02" width="2.28" height="6.72" fill="#2f9e44" opacity="0.55" />
<rect x="873.39" y="399.42" width="2.28" height="1.32" fill="#2f9e44" opacity="0.55" />
<rect x="876.67" y="400.74" width="2.28" height="6.67" fill="#d64545" opacity="0.55" />
<rect x="879.94" y="400.74" width="2.28" height="9.49" fill="#d64545" opacity="0.55" />
<rect x="883.21" y="400.74" width="2.28" height="8.12" fill="#d64545" opacity="0.55" />
<rect x="886.49" y="400.55" width="2.28" height="0.20" fill="#2f9e44" opacity="0.55" />
<rect x="889.76" y="399.03" width="2.28" height="1.71" fill="#2f9e44" opacity="0.55" />
<rect x="893.04" y="400.27" width="2.28" height="0.47" fill="#2f9e44" opacity="0.55" />
<rect x="896.31" y="400.40" width="2.28" height="0.34" fill="#2f9e44" opacity="0.55" />
<rect x="899.58" y="400.74" width="2.28" height="1.86" fill="#d64545" opacity="0.55" />
<rect x="902.86" y="400.74" width="2.28" height="1.67" fill="#d64545" opacity="0.55" />
<polyline fill="none" stroke="#1f77b4" stroke-width="2" points="137.85,372.72 141.13,370.74 144.40,371.48 147.68,370.93 150.95,370.84 154.22,371.10 157.50,371.65 160.77,373.39 164.05,373.11 167.32,372.71 170.59,375.17 173.87,375.91 177.14,379.23 180.42,376.69 183.69,375.46 186.97,374.30 190.24,373.68 193.51,371.56 196.79,372.67 200.06,373.37 203.34,374.23 206.61,374.72 209.88,380.30 213.16,383.43 216.43,387.55 219.71,387.50 222.98,387.12 226.25,385.52 229.53,387.37 232.80,388.97 236.08,389.87 239.35,391.19 242.63,392.33 245.90,393.32 249.17,392.22 252.45,391.46 255.72,389.01 259.00,384.77 262.27,380.17 265.54,374.83 268.82,371.44 272.09,366.17 275.37,363.90 278.64,360.58 281.92,360.41 285.19,357.78 288.46,351.78 291.74,347.64 295.01,346.97 298.29,349.03 301.56,350.73 304.83,350.67 308.11,347.26 311.38,341.76 314.66,334.68 317.93,331.85 321.20,327.96 324.48,328.20 327.75,328.23 331.03,325.15 334.30,321.63 337.58,323.21 340.85,322.39 344.12,322.64 347.40,325.69 350.67,329.92 353.95,331.09 357.22,333.29 360.49,332.83 363.77,333.25 367.04,334.84 370.32,335.85 373.59,337.87 376.86,344.60 380.14,350.02 383.41,355.33 386.69,358.54 389.96,362.52 393.24,365.08 396.51,368.98 399.78,375.34 403.06,379.14 406.33,386.30 409.61,393.05 412.88,392.53 416.15,399.10 419.43,405.25 422.70,406.08 425.98,404.22 429.25,403.21 432.53,401.89 435.80,403.80 439.07,403.30 442.35,400.91 445.62,399.52 448.90,396.98 452.17,391.58 455.44,388.94 458.72,384.54 461.99,384.24 465.27,383.21 468.54,385.56 471.81,389.05 475.09,392.41 478.36,395.14 481.64,397.35 484.91,395.66 488.19,391.93 491.46,388.61 494.73,384.67 498.01,379.79 501.28,377.20 504.56,372.47 507.83,365.64 511.10,352.30 514.38,338.95 517.65,332.15 520.93,326.62 524.20,323.62 527.47,321.17 530.75,318.18 534.02,316.78 537.30,318.61 540.57,316.05 543.85,313.03 547.12,310.19 550.39,312.45 553.67,313.25 556.94,313.89 560.22,316.86 563.49,317.68 566.76,315.32 570.04,315.92 573.31,320.32 576.59,325.67 579.86,327.27 583.14,330.83 586.41,336.40 589.68,340.01 592.96,340.08 596.23,334.41 599.51,327.27 602.78,324.00 606.05,315.89 609.33,305.58 612.60,300.55 615.88,299.73 619.15,304.18 622.42,315.68 625.70,322.21 628.97,329.20 632.25,343.38 635.52,351.21 638.80,349.02 642.07,353.32 645.34,359.21 648.62,366.27 651.89,369.12 655.17,368.25 658.44,373.38 661.71,378.71 664.99,386.10 668.26,392.06 671.54,393.36 674.81,394.96 678.08,398.26 681.36,404.83 684.63,411.92 687.91,407.93 691.18,409.19 694.46,405.12 697.73,392.98 701.00,383.06 704.28,371.03 707.55,362.94 710.83,350.60 714.10,339.02 717.37,330.16 720.65,329.47 723.92,330.23 727.20,329.16 730.47,329.14 733.75,326.96 737.02,315.71 740.29,299.94 743.57,293.69 746.84,293.47 750.12,298.98 753.39,290.59 756.66,287.75 759.94,286.82 763.21,281.44 766.49,280.57 769.76,286.70 773.03,290.83 776.31,298.77 779.58,301.21 782.86,304.75 786.13,311.10 789.41,320.55 792.68,330.85 795.95,335.27 799.23,337.00 802.50,333.63 805.78,335.72 809.05,335.13 812.32,335.91 815.60,331.32 818.87,328.51 822.15,324.67 825.42,318.06 828.69,317.79 831.97,320.50 835.24,330.47 838.52,338.09 841.79,349.73 845.07,359.32 848.34,361.36 851.61,356.95 854.89,351.52 858.16,349.31 861.44,345.68 864.71,333.55 867.98,326.79 871.26,332.26 874.53,337.33 877.81,346.98 881.08,352.18 884.36,352.84 887.63,344.47 890.90,342.53 894.18,343.65 897.45,343.70 900.73,346.36 904.00,346.59" />
<polyline fill="none" stroke="#ff7f0e" stroke-width="2" points="137.85,372.72 141.13,372.33 144.40,372.16 147.68,371.91 150.95,371.70 154.22,371.58 157.50,371.59 160.77,371.95 164.05,372.18 167.32,372.29 170.59,372.86 173.87,373.47 177.14,374.63 180.42,375.04 183.69,375.12 186.97,374.96 190.24,374.70 193.51,374.07 196.79,373.79 200.06,373.71 203.34,373.81 206.61,374.00 209.88,375.26 213.16,376.89 216.43,379.02 219.71,380.72 222.98,382.00 226.25,382.70 229.53,383.64 232.80,384.70 236.08,385.74 239.35,386.83 242.63,387.93 245.90,389.01 249.17,389.65 252.45,390.01 255.72,389.81 259.00,388.80 262.27,387.08 265.54,384.63 268.82,381.99 272.09,378.83 275.37,375.84 278.64,372.79 281.92,370.31 285.19,367.81 288.46,364.60 291.74,361.21 295.01,358.36 298.29,356.49 301.56,355.34 304.83,354.41 308.11,352.98 311.38,350.74 314.66,347.52 317.93,344.39 321.20,341.10 324.48,338.52 327.75,336.46 331.03,334.20 334.30,331.69 337.58,329.99 340.85,328.47 344.12,327.31 347.40,326.98 350.67,327.57 353.95,328.27 357.22,329.28 360.49,329.99 363.77,330.64 367.04,331.48 370.32,332.35 373.59,333.46 376.86,335.68 380.14,338.55 383.41,341.91 386.69,345.23 389.96,348.69 393.24,351.97 396.51,355.37 399.78,359.36 403.06,363.32 406.33,367.91 409.61,372.94 412.88,376.86 416.15,381.31 419.43,386.10 422.70,390.09 425.98,392.92 429.25,394.98 432.53,396.36 435.80,397.85 439.07,398.94 442.35,399.33 445.62,399.37 448.90,398.89 452.17,397.43 455.44,395.73 458.72,393.49 461.99,391.64 465.27,389.95 468.54,389.07 471.81,389.07 475.09,389.74 478.36,390.82 481.64,392.13 484.91,392.83 488.19,392.65 491.46,391.84 494.73,390.41 498.01,388.29 501.28,386.07 504.56,383.35 507.83,379.81 511.10,374.31 514.38,367.23 517.65,360.22 520.93,353.50 524.20,347.52 527.47,342.25 530.75,337.44 534.02,333.31 537.30,330.37 540.57,327.50 543.85,324.61 547.12,321.73 550.39,319.87 553.67,318.55 556.94,317.62 560.22,317.46 563.49,317.51 566.76,317.07 570.04,316.84 573.31,317.54 576.59,319.16 579.86,320.78 583.14,322.79 586.41,325.51 589.68,328.41 592.96,330.75 596.23,331.48 599.51,330.64 602.78,329.31 606.05,326.63 609.33,322.42 612.60,318.04 615.88,314.38 619.15,312.34 622.42,313.01 625.70,314.85 628.97,317.72 632.25,322.85 635.52,328.52 638.80,332.62 642.07,336.76 645.34,341.25 648.62,346.25 651.89,350.83 655.17,354.31 658.44,358.13 661.71,362.24 664.99,367.01 668.26,372.02 671.54,376.29 674.81,380.03 678.08,383.67 681.36,387.90 684.63,392.71 687.91,395.75 691.18,398.44 694.46,399.78 697.73,398.42 701.00,395.34 704.28,390.48 707.55,384.97 710.83,378.10 714.10,370.28 717.37,362.26 720.65,355.70 723.92,350.61 727.20,346.32 730.47,342.88 733.75,339.70 737.02,334.90 740.29,327.91 743.57,321.06 746.84,315.55 750.12,312.23 753.39,307.90 756.66,303.87 759.94,300.46 763.21,296.66 766.49,293.44 769.76,292.09 773.03,291.84 776.31,293.23 779.58,294.82 782.86,296.81 786.13,299.67 789.41,303.84 792.68,309.25 795.95,314.45 799.23,318.96 802.50,321.89 805.78,324.66 809.05,326.75 812.32,328.58 815.60,329.13 818.87,329.01 822.15,328.14 825.42,326.12 828.69,324.46 831.97,323.67 835.24,325.03 838.52,327.64 841.79,332.06 845.07,337.51 848.34,342.28 851.61,345.22 854.89,346.48 858.16,347.04 861.44,346.77 864.71,344.13 867.98,340.66 871.26,338.98 874.53,338.65 877.81,340.31 881.08,342.69 884.36,344.72 887.63,344.67 890.90,344.24 894.18,344.12 897.45,344.04 900.73,344.50 904.00,344.92" />
<text x="754.00" y="290.00" font-size="13" font-family="Arial" fill="#1f77b4" text-anchor="start">MACD</text>
<text x="818.00" y="290.00" font-size="13" font-family="Arial" fill="#ff7f0e" text-anchor="start">Signal</text>
<line x1="56" y1="624" x2="904" y2="624" stroke="#cbd2d9" />
<line x1="56" y1="484" x2="56" y2="624" stroke="#cbd2d9" />
<text x="16.00" y="476.00" font-size="12" font-family="Arial" fill="#52606d" text-anchor="start">KD</text>
<line x1="56" y1="624.00" x2="904" y2="624.00" stroke="#edf2f7" />
<line x1="52" y1="624.00" x2="56" y2="624.00" stroke="#9fb3c8" />
<text x="48.00" y="628.00" font-size="11" font-family="Arial" fill="#52606d" text-anchor="end">-5.00</text>
<line x1="56" y1="577.33" x2="904" y2="577.33" stroke="#edf2f7" />
<line x1="52" y1="577.33" x2="56" y2="577.33" stroke="#9fb3c8" />
<text x="48.00" y="581.33" font-size="11" font-family="Arial" fill="#52606d" text-anchor="end">31.7</text>
<line x1="56" y1="530.67" x2="904" y2="530.67" stroke="#edf2f7" />
<line x1="52" y1="530.67" x2="56" y2="530.67" stroke="#9fb3c8" />
<text x="48.00" y="534.67" font-size="11" font-family="Arial" fill="#52606d" text-anchor="end">68.3</text>
<line x1="56" y1="484.00" x2="904" y2="484.00" stroke="#edf2f7" />
<line x1="52" y1="484.00" x2="56" y2="484.00" stroke="#9fb3c8" />
<text x="48.00" y="488.00" font-size="11" font-family="Arial" fill="#52606d" text-anchor="end">105</text>
<line x1="56.00" y1="624" x2="56.00" y2="628" stroke="#9fb3c8" />
<text x="56.00" y="642.00" font-size="11" font-family="Arial" fill="#52606d" text-anchor="middle">06/13</text>
<line x1="226.25" y1="624" x2="226.25" y2="628" stroke="#9fb3c8" />
<text x="226.25" y="642.00" font-size="11" font-family="Arial" fill="#52606d" text-anchor="middle">08/27</text>
<line x1="396.51" y1="624" x2="396.51" y2="628" stroke="#9fb3c8" />
<text x="396.51" y="642.00" font-size="11" font-family="Arial" fill="#52606d" text-anchor="middle">11/13</text>
<line x1="563.49" y1="624" x2="563.49" y2="628" stroke="#9fb3c8" />
<text x="563.49" y="642.00" font-size="11" font-family="Arial" fill="#52606d" text-anchor="middle">01/27</text>
<line x1="733.75" y1="624" x2="733.75" y2="628" stroke="#9fb3c8" />
<text x="733.75" y="642.00" font-size="11" font-family="Arial" fill="#52606d" text-anchor="middle">04/23</text>
<line x1="904.00" y1="624" x2="904.00" y2="628" stroke="#9fb3c8" />
<text x="904.00" y="642.00" font-size="11" font-family="Arial" fill="#52606d" text-anchor="middle">07/08</text>
<line x1="56" y1="592.18" x2="904" y2="592.18" stroke="#f0b429" stroke-dasharray="5 5" />
<text x="912.00" y="596.18" font-size="10" font-family="Arial" fill="#8d2b0b" text-anchor="start">20.0</text>
<line x1="56" y1="515.82" x2="904" y2="515.82" stroke="#f0b429" stroke-dasharray="5 5" />
<text x="912.00" y="519.82" font-size="10" font-family="Arial" fill="#8d2b0b" text-anchor="start">80.0</text>
<polyline fill="none" stroke="#2ca02c" stroke-width="2" points="82.19,543.64 85.47,538.38 88.74,531.64 92.02,540.04 95.29,536.35 98.56,533.89 101.84,533.21 105.11,541.30 108.39,557.59 111.66,572.14 114.93,572.54 118.21,563.50 121.48,559.77 124.76,562.52 128.03,555.10 131.31,543.22 134.58,537.64 137.85,530.90 141.13,528.61 144.40,541.24 147.68,541.28 150.95,541.32 154.22,542.55 157.50,553.50 160.77,570.10 164.05,568.00 167.32,563.60 170.59,586.84 173.87,586.64 177.14,612.67 180.42,583.87 183.69,570.70 186.97,562.42 190.24,556.90 193.51,543.65 196.79,548.77 200.06,549.40 203.34,549.81 206.61,558.83 209.88,588.18 213.16,598.08 216.43,614.34 219.71,602.64 222.98,588.71 226.25,568.00 229.53,577.03 232.80,583.05 236.08,583.26 239.35,587.21 242.63,589.84 245.90,599.35 249.17,587.08 252.45,580.74 255.72,562.79 259.00,549.19 262.27,542.97 265.54,531.55 268.82,525.76 272.09,519.66 275.37,521.57 278.64,515.95 281.92,522.97 285.19,518.42 288.46,514.05 291.74,517.20 295.01,527.31 298.29,544.90 301.56,555.95 304.83,553.98 308.11,539.87 311.38,527.58 314.66,521.74 317.93,523.45 321.20,519.91 324.48,524.12 327.75,526.04 331.03,518.24 334.30,516.12 337.58,526.58 340.85,526.07 344.12,527.14 347.40,535.49 350.67,544.88 353.95,544.54 357.22,548.30 360.49,541.64 363.77,538.95 367.04,541.05 370.32,537.78 373.59,537.93 376.86,559.05 380.14,580.69 383.41,598.12 386.69,600.74 389.96,608.48 393.24,607.64 396.51,616.09 399.78,620.07 403.06,615.20 406.33,622.11 409.61,626.07 412.88,603.49 416.15,613.12 419.43,619.51 422.70,606.84 425.98,584.61 429.25,572.27 432.53,561.57 435.80,569.27 439.07,564.51 442.35,549.53 445.62,542.16 448.90,535.26 452.17,527.17 455.44,530.75 458.72,523.48 461.99,534.13 465.27,539.07 468.54,559.55 471.81,578.19 475.09,592.96 478.36,598.41 481.64,602.03 484.91,589.69 488.19,570.92 491.46,550.97 494.73,534.75 498.01,523.29 501.28,519.31 504.56,512.54 507.83,507.71 511.10,508.09 514.38,504.00 517.65,507.15 520.93,507.60 524.20,509.45 527.47,508.52 530.75,506.63 534.02,506.08 537.30,518.69 540.57,517.44 543.85,518.73 547.12,514.53 550.39,523.54 553.67,525.37 556.94,522.38 560.22,528.01 563.49,521.73 566.76,515.42 570.04,522.75 573.31,543.43 576.59,561.65 579.86,559.40 583.14,564.92 586.41,577.98 589.68,578.03 592.96,562.52 596.23,541.83 599.51,529.56 602.78,526.55 606.05,518.39 609.33,512.31 612.60,511.21 615.88,513.44 619.15,526.24 622.42,553.50 625.70,568.57 628.97,581.26 632.25,588.51 635.52,586.72 638.80,569.00 642.07,565.63 645.34,566.00 648.62,568.90 651.89,563.93 655.17,551.21 658.44,555.65 661.71,574.51 664.99,583.70 668.26,588.42 671.54,579.46 674.81,575.18 678.08,579.10 681.36,593.49 684.63,603.19 687.91,574.78 691.18,572.40 694.46,552.41 697.73,532.89 701.00,519.85 704.28,510.96 707.55,506.80 710.83,502.11 714.10,501.86 717.37,500.99 720.65,509.52 723.92,522.62 727.20,525.71 730.47,532.02 733.75,534.19 737.02,522.13 740.29,521.42 743.57,527.88 746.84,537.05 750.12,549.40 753.39,538.65 756.66,535.14 759.94,533.48 763.21,526.38 766.49,526.72 769.76,538.02 773.03,541.53 776.31,550.92 779.58,553.66 782.86,558.63 786.13,569.50 789.41,587.32 792.68,599.19 795.95,593.50 799.23,582.15 802.50,557.96 805.78,553.93 809.05,543.31 812.32,542.90 815.60,531.25 818.87,529.84 822.15,525.91 825.42,518.30 828.69,524.29 831.97,533.27 835.24,549.50 838.52,558.30 841.79,574.24 845.07,581.33 848.34,574.98 851.61,558.77 854.89,539.07 858.16,527.19 861.44,515.95 864.71,507.42 867.98,507.61 871.26,520.79 874.53,535.75 877.81,560.02 881.08,570.13 884.36,568.80 887.63,548.71 890.90,543.40 894.18,543.91 897.45,536.66 900.73,536.55 904.00,530.58" />
<polyline fill="none" stroke="#d62728" stroke-width="2" points="82.19,550.55 85.47,546.49 88.74,541.54 92.02,541.04 95.29,539.48 98.56,537.62 101.84,536.15 105.11,537.87 108.39,544.44 111.66,553.67 114.93,559.96 118.21,561.14 121.48,560.69 124.76,561.30 128.03,559.23 131.31,553.89 134.58,548.48 137.85,542.62 141.13,537.95 144.40,539.04 147.68,539.79 150.95,540.30 154.22,541.05 157.50,545.20 160.77,553.50 164.05,558.33 167.32,560.09 170.59,569.01 173.87,574.88 177.14,587.48 180.42,586.28 183.69,581.08 186.97,574.86 190.24,568.87 193.51,560.47 196.79,556.57 200.06,554.18 203.34,552.72 206.61,554.76 209.88,565.90 213.16,576.63 216.43,589.20 219.71,593.68 222.98,592.02 226.25,584.02 229.53,581.69 232.80,582.14 236.08,582.52 239.35,584.08 242.63,586.00 245.90,590.45 249.17,589.32 252.45,586.46 255.72,578.57 259.00,568.78 262.27,560.18 265.54,550.63 268.82,542.34 272.09,534.78 275.37,530.38 278.64,525.57 281.92,524.70 285.19,522.61 288.46,519.75 291.74,518.90 295.01,521.71 298.29,529.44 301.56,538.28 304.83,543.51 308.11,542.30 311.38,537.39 314.66,532.17 317.93,529.27 321.20,526.15 324.48,525.47 327.75,525.66 331.03,523.19 334.30,520.83 337.58,522.75 340.85,523.85 344.12,524.95 347.40,528.46 350.67,533.94 353.95,537.47 357.22,541.08 360.49,541.27 363.77,540.50 367.04,540.68 370.32,539.71 373.59,539.12 376.86,545.76 380.14,557.41 383.41,570.98 386.69,580.90 389.96,590.09 393.24,595.94 396.51,602.66 399.78,608.46 403.06,610.71 406.33,614.51 409.61,618.36 412.88,613.40 416.15,613.31 419.43,615.38 422.70,612.53 425.98,603.22 429.25,592.91 432.53,582.46 435.80,578.06 439.07,573.54 442.35,565.54 445.62,557.75 448.90,550.25 452.17,542.56 455.44,538.62 458.72,533.57 461.99,533.76 465.27,535.53 468.54,543.54 471.81,555.09 475.09,567.71 478.36,577.94 481.64,585.97 484.91,587.21 488.19,581.78 491.46,571.51 494.73,559.26 498.01,547.27 501.28,537.95 504.56,529.48 507.83,522.22 511.10,517.51 514.38,513.01 517.65,511.05 520.93,509.90 524.20,509.75 527.47,509.34 530.75,508.44 534.02,507.65 537.30,511.33 540.57,513.37 543.85,515.16 547.12,514.95 550.39,517.81 553.67,520.33 556.94,521.01 560.22,523.35 563.49,522.81 566.76,520.35 570.04,521.15 573.31,528.57 576.59,539.60 579.86,546.20 583.14,552.44 586.41,560.95 589.68,566.64 592.96,565.27 596.23,557.46 599.51,548.16 602.78,540.96 606.05,533.43 609.33,526.39 612.60,521.33 615.88,518.70 619.15,521.21 622.42,531.97 625.70,544.17 628.97,556.53 632.25,567.19 635.52,573.70 638.80,572.14 642.07,569.97 645.34,568.64 648.62,568.73 651.89,567.13 655.17,561.82 658.44,559.76 661.71,564.68 664.99,571.02 668.26,576.82 671.54,577.70 674.81,576.86 678.08,577.61 681.36,582.90 684.63,589.67 687.91,584.70 691.18,580.60 694.46,571.21 697.73,558.43 701.00,545.57 704.28,534.03 707.55,524.95 710.83,517.34 714.10,512.18 717.37,508.45 720.65,508.80 723.92,513.41 727.20,517.51 730.47,522.35 733.75,526.29 737.02,524.91 740.29,523.74 743.57,525.12 746.84,529.10 750.12,535.87 753.39,536.79 756.66,536.24 759.94,535.32 763.21,532.34 766.49,530.47 769.76,532.98 773.03,535.83 776.31,540.86 779.58,545.13 782.86,549.63 786.13,556.25 789.41,566.61 792.68,577.47 795.95,582.81 799.23,582.59 802.50,574.38 805.78,567.56 809.05,559.48 812.32,553.95 815.60,546.38 818.87,540.87 822.15,535.89 825.42,530.02 828.69,528.11 831.97,529.83 835.24,536.39 838.52,543.69 841.79,553.87 845.07,563.02 848.34,567.01 851.61,564.26 854.89,555.87 858.16,546.31 861.44,536.19 864.71,526.60 867.98,520.27 871.26,520.44 874.53,525.55 877.81,537.04 881.08,548.07 884.36,554.98 887.63,552.89 890.90,549.73 894.18,547.79 897.45,544.08 900.73,541.57 904.00,537.91" />
<text x="824.00" y="502.00" font-size="13" font-family="Arial" fill="#2ca02c" text-anchor="start">K</text>
<text x="860.00" y="502.00" font-size="13" font-family="Arial" fill="#d62728" text-anchor="start">D</text>
</svg>