<svg xmlns="http://www.w3.org/2000/svg" width="960" height="680" viewBox="0 0 960 680"><rect width="100%" height="100%" fill="white" />
<text x="56.00" y="32.00" font-size="20" font-family="Arial" fill="#1f2933" text-anchor="start">台達電(2308) Technical Indicators</text>
<line x1="56" y1="220" x2="904" y2="220" stroke="#cbd2d9" />
<line x1="56" y1="58" x2="56" y2="220" stroke="#cbd2d9" />
<text x="16.00" y="50.00" font-size="12" font-family="Arial" fill="#52606d" text-anchor="start">RSI14</text>
<line x1="56" y1="220.00" x2="904" y2="220.00" stroke="#edf2f7" />
<line x1="52" y1="220.00" x2="56" y2="220.00" stroke="#9fb3c8" />
<text x="48.00" y="224.00" font-size="11" font-family="Arial" fill="#52606d" text-anchor="end">-5.00</text>
<line x1="56" y1="166.00" x2="904" y2="166.00" stroke="#edf2f7" />
<line x1="52" y1="166.00" x2="56" y2="166.00" stroke="#9fb3c8" />
<text x="48.00" y="170.00" font-size="11" font-family="Arial" fill="#52606d" text-anchor="end">31.7</text>
<line x1="56" y1="112.00" x2="904" y2="112.00" stroke="#edf2f7" />
<line x1="52" y1="112.00" x2="56" y2="112.00" stroke="#9fb3c8" />
<text x="48.00" y="116.00" font-size="11" font-family="Arial" fill="#52606d" text-anchor="end">68.3</text>
<line x1="56" y1="58.00" x2="904" y2="58.00" stroke="#edf2f7" />
<line x1="52" y1="58.00" x2="56" y2="58.00" stroke="#9fb3c8" />
<text x="48.00" y="62.00" font-size="11" font-family="Arial" fill="#52606d" text-anchor="end">105</text>
<line x1="56" y1="168.45" x2="904" y2="168.45" stroke="#f0b429" stroke-dasharray="5 5" />
<text x="912.00" y="172.45" font-size="10" font-family="Arial" fill="#8d2b0b" text-anchor="start">30.0</text>
<line x1="56" y1="109.55" x2="904" y2="109.55" stroke="#f0b429" stroke-dasharray="5 5" />
<text x="912.00" y="113.55" font-size="10" font-family="Arial" fill="#8d2b0b" text-anchor="start">70.0</text>
<polyline fill="none" stroke="#1f77b4" stroke-width="2" points="101.84,102.18 105.11,101.65 108.39,102.22 111.66,92.65 114.93,92.53 118.21,102.97 121.48,96.79 124.76,95.28 128.03,96.29 131.31,93.68 134.58,92.21 137.85,94.41 141.13,92.54 144.40,94.87 147.68,96.09 150.95,94.47 154.22,93.51 157.50,91.94 160.77,83.75 164.05,80.28 167.32,76.79 170.59,85.80 173.87,85.54 177.14,83.76 180.42,83.64 183.69,83.12 186.97,79.56 190.24,83.78 193.51,81.97 196.79,81.75 200.06,102.64 203.34,123.15 206.61,116.58 209.88,112.56 213.16,109.75 216.43,107.71 219.71,100.87 222.98,106.66 226.25,106.25 229.53,118.01 232.80,119.46 236.08,121.95 239.35,118.58 242.63,109.56 245.90,109.56 249.17,98.71 252.45,92.21 255.72,95.01 259.00,94.28 262.27,94.80 265.54,94.13 268.82,96.98 272.09,89.86 275.37,91.95 278.64,89.82 281.92,97.16 285.19,98.21 288.46,102.01 291.74,119.19 295.01,117.73 298.29,113.73 301.56,108.88 304.83,100.88 308.11,95.33 311.38,97.90 314.66,95.75 317.93,92.42 321.20,107.60 324.48,104.39 327.75,103.05 331.03,112.67 334.30,110.07 337.58,109.26 340.85,109.26 344.12,113.44 347.40,103.48 350.67,102.78 353.95,108.90 357.22,126.19 360.49,130.60 363.77,134.06 367.04,136.37 370.32,138.71 373.59,135.52 376.86,139.56 380.14,134.46 383.41,137.72 386.69,139.37 389.96,142.36 393.24,152.88 396.51,154.44 399.78,158.97 403.06,159.95 406.33,138.37 409.61,152.82 412.88,153.25 416.15,147.91 419.43,138.13 422.70,138.93 425.98,141.69 429.25,130.87 432.53,127.19 435.80,125.37 439.07,124.90 442.35,131.74 445.62,131.74 448.90,134.56 452.17,135.65 455.44,143.57 458.72,145.82 461.99,150.79 465.27,156.67 468.54,159.52 471.81,159.06 475.09,150.01 478.36,134.85 481.64,138.26 484.91,134.35 488.19,134.02 491.46,131.95 494.73,132.39 498.01,131.62 501.28,120.72 504.56,116.47 507.83,107.25 511.10,116.58 514.38,124.95 517.65,123.58 520.93,113.99 524.20,123.84 527.47,117.15 530.75,122.69 534.02,108.37 537.30,110.09 540.57,108.56 543.85,107.77 547.12,95.00 550.39,93.75 553.67,103.68 556.94,101.51 560.22,98.49 563.49,106.47 566.76,116.59 570.04,127.80 573.31,121.53 576.59,122.74 579.86,135.96 583.14,134.15 586.41,130.54 589.68,129.63 592.96,117.82 596.23,112.25 599.51,104.34 602.78,100.36 606.05,101.58 609.33,102.87 612.60,122.06 615.88,136.41 619.15,126.58 622.42,128.92 625.70,142.59 628.97,134.12 632.25,123.36 635.52,127.29 638.80,125.86 642.07,129.31 645.34,121.59 648.62,119.40 651.89,120.94 655.17,119.03 658.44,129.09 661.71,128.52 664.99,115.63 668.26,120.86 671.54,121.62 674.81,125.48 678.08,139.51 681.36,129.46 684.63,134.84 687.91,126.76 691.18,115.65 694.46,118.10 697.73,112.34 701.00,112.03 704.28,111.39 707.55,109.11 710.83,105.45 714.10,106.25 717.37,102.66 720.65,96.93 723.92,96.93 727.20,102.88 730.47,97.98 733.75,106.61 737.02,101.08 740.29,99.22 743.57,99.22 746.84,96.62 750.12,105.48 753.39,102.95 756.66,99.36 759.94,111.28 763.21,108.53 766.49,115.49 769.76,119.51 773.03,120.88 776.31,131.16 779.58,137.41 782.86,147.65 786.13,147.65 789.41,135.52 792.68,129.74 795.95,116.21 799.23,112.90 802.50,105.03 805.78,117.95 809.05,115.22 812.32,117.63 815.60,123.35 818.87,117.95 822.15,120.86 825.42,131.96 828.69,135.57 831.97,125.29 835.24,140.56 838.52,143.00 841.79,139.30 845.07,139.64 848.34,138.18 851.61,142.88 854.89,143.25 858.16,143.25 861.44,148.78 864.71,154.49 867.98,155.85 871.26,165.90 874.53,156.22 877.81,151.97 881.08,148.26 884.36,149.71 887.63,140.17 890.90,146.32 894.18,153.43 897.45,153.76 900.73,154.10 904.00,154.10" />
<text x="808.00" y="76.00" font-size="13" font-family="Arial" fill="#1f77b4" text-anchor="start">RSI14</text>
<line x1="56" y1="432" x2="904" y2="432" stroke="#cbd2d9" />
<line x1="56" y1="272" x2="56" y2="432" stroke="#cbd2d9" />
<text x="16.00" y="264.00" font-size="12" font-family="Arial" fill="#52606d" text-anchor="start">MACD</text>
<line x1="56" y1="432.00" x2="904" y2="432.00" stroke="#edf2f7" />
<line x1="52" y1="432.00" x2="56" y2="432.00" stroke="#9fb3c8" />
<text x="48.00" y="436.00" font-size="11" font-family="Arial" fill="#52606d" text-anchor="end">-87.8</text>
<line x1="56" y1="378.67" x2="904" y2="378.67" stroke="#edf2f7" />
<line x1="52" y1="378.67" x2="56" y2="378.67" stroke="#9fb3c8" />
<text x="48.00" y="382.67" font-size="11" font-family="Arial" fill="#52606d" text-anchor="end">7.17</text>
<line x1="56" y1="325.33" x2="904" y2="325.33" stroke="#edf2f7" />
<line x1="52" y1="325.33" x2="56" y2="325.33" stroke="#9fb3c8" />
<text x="48.00" y="329.33" font-size="11" font-family="Arial" fill="#52606d" text-anchor="end">102</text>
<line x1="56" y1="272.00" x2="904" y2="272.00" stroke="#edf2f7" />
<line x1="52" y1="272.00" x2="56" y2="272.00" stroke="#9fb3c8" />
<text x="48.00" y="276.00" font-size="11" font-family="Arial" fill="#52606d" text-anchor="end">197</text>
<line x1="56" y1="382.69" x2="904" y2="382.69" stroke="#9fb3c8" stroke-dasharray="4 4" />
<rect x="136.71" y="382.69" width="2.28" height="0.00" fill="#2f9e44" opacity="0.55" />
<rect x="139.99" y="382.41" width="2.28" height="0.28" fill="#2f9e44" opacity="0.55" />
<rect x="143.26" y="382.46" width="2.28" height="0.23" fill="#2f9e44" opacity="0.55" />
<rect x="146.53" y="382.68" width="2.28" height="0.01" fill="#2f9e44" opacity="0.55" />
<rect x="149.81" y="382.69" width="2.28" height="0.08" fill="#d64545" opacity="0.55" />
<rect x="153.08" y="382.69" width="2.28" height="0.17" fill="#d64545" opacity="0.55" />
<rect x="156.36" y="382.69" width="2.28" height="0.17" fill="#d64545" opacity="0.55" />
<rect x="159.63" y="381.67" width="2.28" height="1.02" fill="#2f9e44" opacity="0.55" />
<rect x="162.90" y="380.19" width="2.28" height="2.50" fill="#2f9e44" opacity="0.55" />
<rect x="166.18" y="378.15" width="2.28" height="4.54" fill="#2f9e44" opacity="0.55" />
<rect x="169.45" y="377.66" width="2.28" height="5.04" fill="#2f9e44" opacity="0.55" />
<rect x="172.73" y="377.70" width="2.28" height="4.99" fill="#2f9e44" opacity="0.55" />
<rect x="176.00" y="377.68" width="2.28" height="5.02" fill="#2f9e44" opacity="0.55" />
<rect x="179.28" y="378.07" width="2.28" height="4.62" fill="#2f9e44" opacity="0.55" />
<rect x="182.55" y="378.62" width="2.28" height="4.07" fill="#2f9e44" opacity="0.55" />
<rect x="185.82" y="378.21" width="2.28" height="4.48" fill="#2f9e44" opacity="0.55" />
<rect x="189.10" y="378.59" width="2.28" height="4.10" fill="#2f9e44" opacity="0.55" />
<rect x="192.37" y="378.70" width="2.28" height="4.00" fill="#2f9e44" opacity="0.55" />
<rect x="195.65" y="379.14" width="2.28" height="3.55" fill="#2f9e44" opacity="0.55" />
<rect x="198.92" y="380.81" width="2.28" height="1.88" fill="#2f9e44" opacity="0.55" />
<rect x="202.19" y="382.69" width="2.28" height="0.80" fill="#d64545" opacity="0.55" />
<rect x="205.47" y="382.69" width="2.28" height="1.87" fill="#d64545" opacity="0.55" />
<rect x="208.74" y="382.69" width="2.28" height="2.11" fill="#d64545" opacity="0.55" />
<rect x="212.02" y="382.69" width="2.28" height="1.97" fill="#d64545" opacity="0.55" />
<rect x="215.29" y="382.69" width="2.28" height="1.69" fill="#d64545" opacity="0.55" />
<rect x="218.57" y="382.69" width="2.28" height="0.40" fill="#d64545" opacity="0.55" />
<rect x="221.84" y="382.69" width="2.28" height="0.20" fill="#d64545" opacity="0.55" />
<rect x="225.11" y="382.69" width="2.28" height="0.22" fill="#d64545" opacity="0.55" />
<rect x="228.39" y="382.69" width="2.28" height="1.27" fill="#d64545" opacity="0.55" />
<rect x="231.66" y="382.69" width="2.28" height="2.20" fill="#d64545" opacity="0.55" />
<rect x="234.94" y="382.69" width="2.28" height="3.06" fill="#d64545" opacity="0.55" />
<rect x="238.21" y="382.69" width="2.28" height="3.26" fill="#d64545" opacity="0.55" />
<rect x="241.48" y="382.69" width="2.28" height="2.18" fill="#d64545" opacity="0.55" />
<rect x="244.76" y="382.69" width="2.28" height="1.59" fill="#d64545" opacity="0.55" />
<rect x="248.03" y="381.95" width="2.28" height="0.74" fill="#2f9e44" opacity="0.55" />
<rect x="251.31" y="378.85" width="2.28" height="3.85" fill="#2f9e44" opacity="0.55" />
<rect x="254.58" y="377.52" width="2.28" height="5.17" fill="#2f9e44" opacity="0.55" />
<rect x="257.85" y="376.97" width="2.28" height="5.72" fill="#2f9e44" opacity="0.55" />
<rect x="261.13" y="377.19" width="2.28" height="5.50" fill="#2f9e44" opacity="0.55" />
<rect x="264.40" y="377.69" width="2.28" height="5.00" fill="#2f9e44" opacity="0.55" />
<rect x="267.68" y="378.70" width="2.28" height="4.00" fill="#2f9e44" opacity="0.55" />
<rect x="270.95" y="377.81" width="2.28" height="4.88" fill="#2f9e44" opacity="0.55" />
<rect x="274.23" y="377.93" width="2.28" height="4.77" fill="#2f9e44" opacity="0.55" />
<rect x="277.50" y="377.86" width="2.28" height="4.83" fill="#2f9e44" opacity="0.55" />
<rect x="280.77" y="378.87" width="2.28" height="3.82" fill="#2f9e44" opacity="0.55" />
<rect x="284.05" y="380.09" width="2.28" height="2.60" fill="#2f9e44" opacity="0.55" />
<rect x="287.32" y="381.55" width="2.28" height="1.14" fill="#2f9e44" opacity="0.55" />
<rect x="290.60" y="382.69" width="2.28" height="1.43" fill="#d64545" opacity="0.55" />
<rect x="293.87" y="382.69" width="2.28" height="3.07" fill="#d64545" opacity="0.55" />
<rect x="297.14" y="382.69" width="2.28" height="3.64" fill="#d64545" opacity="0.55" />
<rect x="300.42" y="382.69" width="2.28" height="3.28" fill="#d64545" opacity="0.55" />
<rect x="303.69" y="382.69" width="2.28" height="1.46" fill="#d64545" opacity="0.55" />
<rect x="306.97" y="381.62" width="2.28" height="1.07" fill="#2f9e44" opacity="0.55" />
<rect x="310.24" y="380.59" width="2.28" height="2.10" fill="#2f9e44" opacity="0.55" />
<rect x="313.51" y="379.71" width="2.28" height="2.98" fill="#2f9e44" opacity="0.55" />
<rect x="316.79" y="378.51" width="2.28" height="4.18" fill="#2f9e44" opacity="0.55" />
<rect x="320.06" y="379.64" width="2.28" height="3.05" fill="#2f9e44" opacity="0.55" />
<rect x="323.34" y="380.01" width="2.28" height="2.68" fill="#2f9e44" opacity="0.55" />
<rect x="326.61" y="380.35" width="2.28" height="2.34" fill="#2f9e44" opacity="0.55" />
<rect x="329.89" y="381.94" width="2.28" height="0.75" fill="#2f9e44" opacity="0.55" />
<rect x="333.16" y="382.69" width="2.28" height="0.05" fill="#d64545" opacity="0.55" />
<rect x="336.43" y="382.69" width="2.28" height="0.70" fill="#d64545" opacity="0.55" />
<rect x="339.71" y="382.69" width="2.28" height="1.40" fill="#d64545" opacity="0.55" />
<rect x="342.98" y="382.69" width="2.28" height="2.44" fill="#d64545" opacity="0.55" />
<rect x="346.26" y="382.69" width="2.28" height="1.15" fill="#d64545" opacity="0.55" />
<rect x="349.53" y="382.69" width="2.28" height="0.42" fill="#d64545" opacity="0.55" />
<rect x="352.80" y="382.69" width="2.28" height="0.80" fill="#d64545" opacity="0.55" />
<rect x="356.08" y="382.69" width="2.28" height="3.09" fill="#d64545" opacity="0.55" />
<rect x="359.35" y="382.69" width="2.28" height="5.20" fill="#d64545" opacity="0.55" />
<rect x="362.63" y="382.69" width="2.28" height="6.98" fill="#d64545" opacity="0.55" />
<rect x="365.90" y="382.69" width="2.28" height="8.29" fill="#d64545" opacity="0.55" />
<rect x="369.18" y="382.69" width="2.28" height="9.23" fill="#d64545" opacity="0.55" />
<rect x="372.45" y="382.69" width="2.28" height="9.18" fill="#d64545" opacity="0.55" />
<rect x="375.72" y="382.69" width="2.28" height="9.35" fill="#d64545" opacity="0.55" />
<rect x="379.00" y="382.69" width="2.28" height="8.56" fill="#d64545" opacity="0.55" />
<rect x="382.27" y="382.69" width="2.28" height="8.15" fill="#d64545" opacity="0.55" />
<rect x="385.55" y="382.69" width="2.28" height="7.80" fill="#d64545" opacity="0.55" />
<rect x="388.82" y="382.69" width="2.28" height="7.64" fill="#d64545" opacity="0.55" />
<rect x="392.09" y="382.69" width="2.28" height="8.55" fill="#d64545" opacity="0.55" />
<rect x="395.37" y="382.69" width="2.28" height="8.99" fill="#d64545" opacity="0.55" />
<rect x="398.64" y="382.69" width="2.28" height="9.52" fill="#d64545" opacity="0.55" />
<rect x="401.92" y="382.69" width="2.28" height="9.56" fill="#d64545" opacity="0.55" />
<rect x="405.19" y="382.69" width="2.28" height="6.98" fill="#d64545" opacity="0.55" />
<rect x="408.46" y="382.69" width="2.28" height="7.13" fill="#d64545" opacity="0.55" />
<rect x="411.74" y="382.69" width="2.28" height="6.93" fill="#d64545" opacity="0.55" />
<rect x="415.01" y="382.69" width="2.28" height="5.83" fill="#d64545" opacity="0.55" />
<rect x="418.29" y="382.69" width="2.28" height="3.57" fill="#d64545" opacity="0.55" />
<rect x="421.56" y="382.69" width="2.28" height="2.04" fill="#d64545" opacity="0.55" />
<rect x="424.84" y="382.69" width="2.28" height="1.30" fill="#d64545" opacity="0.55" />
<rect x="428.11" y="381.96" width="2.28" height="0.73" fill="#2f9e44" opacity="0.55" />
<rect x="431.38" y="380.12" width="2.28" height="2.57" fill="#2f9e44" opacity="0.55" />
<rect x="434.66" y="378.79" width="2.28" height="3.90" fill="#2f9e44" opacity="0.55" />
<rect x="437.93" y="378.07" width="2.28" height="4.62" fill="#2f9e44" opacity="0.55" />
<rect x="441.21" y="378.57" width="2.28" height="4.12" fill="#2f9e44" opacity="0.55" />
<rect x="444.48" y="379.09" width="2.28" height="3.60" fill="#2f9e44" opacity="0.55" />
<rect x="447.75" y="379.91" width="2.28" height="2.78" fill="#2f9e44" opacity="0.55" />
<rect x="451.03" y="380.69" width="2.28" height="2.01" fill="#2f9e44" opacity="0.55" />
<rect x="454.30" y="382.12" width="2.28" height="0.57" fill="#2f9e44" opacity="0.55" />
<rect x="457.58" y="382.69" width="2.28" height="0.63" fill="#d64545" opacity="0.55" />
<rect x="460.85" y="382.69" width="2.28" height="1.93" fill="#d64545" opacity="0.55" />
<rect x="464.12" y="382.69" width="2.28" height="3.42" fill="#d64545" opacity="0.55" />
<rect x="467.40" y="382.69" width="2.28" height="4.57" fill="#d64545" opacity="0.55" />
<rect x="470.67" y="382.69" width="2.28" height="5.01" fill="#d64545" opacity="0.55" />
<rect x="473.95" y="382.69" width="2.28" height="4.30" fill="#d64545" opacity="0.55" />
<rect x="477.22" y="382.69" width="2.28" height="2.10" fill="#d64545" opacity="0.55" />
<rect x="480.50" y="382.69" width="2.28" height="0.95" fill="#d64545" opacity="0.55" />
<rect x="483.77" y="382.40" width="2.28" height="0.29" fill="#2f9e44" opacity="0.55" />
<rect x="487.04" y="381.58" width="2.28" height="1.11" fill="#2f9e44" opacity="0.55" />
<rect x="490.32" y="380.88" width="2.28" height="1.81" fill="#2f9e44" opacity="0.55" />
<rect x="493.59" y="380.55" width="2.28" height="2.14" fill="#2f9e44" opacity="0.55" />
<rect x="496.87" y="380.36" width="2.28" height="2.33" fill="#2f9e44" opacity="0.55" />
<rect x="500.14" y="379.21" width="2.28" height="3.48" fill="#2f9e44" opacity="0.55" />
<rect x="503.41" y="378.13" width="2.28" height="4.56" fill="#2f9e44" opacity="0.55" />
<rect x="506.69" y="376.28" width="2.28" height="6.42" fill="#2f9e44" opacity="0.55" />
<rect x="509.96" y="376.18" width="2.28" height="6.51" fill="#2f9e44" opacity="0.55" />
<rect x="513.24" y="377.21" width="2.28" height="5.48" fill="#2f9e44" opacity="0.55" />
<rect x="516.51" y="378.01" width="2.28" height="4.68" fill="#2f9e44" opacity="0.55" />
<rect x="519.79" y="377.39" width="2.28" height="5.30" fill="#2f9e44" opacity="0.55" />
<rect x="523.06" y="378.24" width="2.28" height="4.45" fill="#2f9e44" opacity="0.55" />
<rect x="526.33" y="378.01" width="2.28" height="4.68" fill="#2f9e44" opacity="0.55" />
<rect x="529.61" y="378.74" width="2.28" height="3.95" fill="#2f9e44" opacity="0.55" />
<rect x="532.88" y="376.65" width="2.28" height="6.04" fill="#2f9e44" opacity="0.55" />
<rect x="536.16" y="375.95" width="2.28" height="6.74" fill="#2f9e44" opacity="0.55" />
<rect x="539.43" y="375.64" width="2.28" height="7.05" fill="#2f9e44" opacity="0.55" />
<rect x="542.70" y="375.78" width="2.28" height="6.91" fill="#2f9e44" opacity="0.55" />
<rect x="545.98" y="372.46" width="2.28" height="10.23" fill="#2f9e44" opacity="0.55" />
<rect x="549.25" y="370.57" width="2.28" height="12.12" fill="#2f9e44" opacity="0.55" />
<rect x="552.53" y="371.30" width="2.28" height="11.39" fill="#2f9e44" opacity="0.55" />
<rect x="555.80" y="371.88" width="2.28" height="10.81" fill="#2f9e44" opacity="0.55" />
<rect x="559.07" y="372.00" width="2.28" height="10.69" fill="#2f9e44" opacity="0.55" />
<rect x="562.35" y="373.82" width="2.28" height="8.87" fill="#2f9e44" opacity="0.55" />
<rect x="565.62" y="376.97" width="2.28" height="5.72" fill="#2f9e44" opacity="0.55" />
<rect x="568.90" y="381.18" width="2.28" height="1.51" fill="#2f9e44" opacity="0.55" />
<rect x="572.17" y="382.69" width="2.28" height="0.10" fill="#d64545" opacity="0.55" />
<rect x="575.45" y="382.69" width="2.28" height="1.60" fill="#d64545" opacity="0.55" />
<rect x="578.72" y="382.69" width="2.28" height="4.92" fill="#d64545" opacity="0.55" />
<rect x="581.99" y="382.69" width="2.28" height="6.69" fill="#d64545" opacity="0.55" />
<rect x="585.27" y="382.69" width="2.28" height="7.03" fill="#d64545" opacity="0.55" />
<rect x="588.54" y="382.69" width="2.28" height="6.97" fill="#d64545" opacity="0.55" />
<rect x="591.82" y="382.69" width="2.28" height="4.16" fill="#d64545" opacity="0.55" />
<rect x="595.09" y="382.69" width="2.28" height="0.82" fill="#d64545" opacity="0.55" />
<rect x="598.36" y="378.78" width="2.28" height="3.91" fill="#2f9e44" opacity="0.55" />
<rect x="601.64" y="374.49" width="2.28" height="8.20" fill="#2f9e44" opacity="0.55" />
<rect x="604.91" y="372.69" width="2.28" height="10.01" fill="#2f9e44" opacity="0.55" />
<rect x="608.19" y="372.56" width="2.28" height="10.13" fill="#2f9e44" opacity="0.55" />
<rect x="611.46" y="376.36" width="2.28" height="6.33" fill="#2f9e44" opacity="0.55" />
<rect x="614.73" y="382.45" width="2.28" height="0.24" fill="#2f9e44" opacity="0.55" />
<rect x="618.01" y="382.69" width="2.28" height="1.07" fill="#d64545" opacity="0.55" />
<rect x="621.28" y="382.69" width="2.28" height="2.70" fill="#d64545" opacity="0.55" />
<rect x="624.56" y="382.69" width="2.28" height="7.48" fill="#d64545" opacity="0.55" />
<rect x="627.83" y="382.69" width="2.28" height="7.90" fill="#d64545" opacity="0.55" />
<rect x="631.11" y="382.69" width="2.28" height="4.12" fill="#d64545" opacity="0.55" />
<rect x="634.38" y="382.69" width="2.28" height="2.89" fill="#d64545" opacity="0.55" />
<rect x="637.65" y="382.69" width="2.28" height="1.71" fill="#d64545" opacity="0.55" />
<rect x="640.93" y="382.69" width="2.28" height="2.05" fill="#d64545" opacity="0.55" />
<rect x="644.20" y="382.26" width="2.28" height="0.43" fill="#2f9e44" opacity="0.55" />
<rect x="647.48" y="380.11" width="2.28" height="2.58" fill="#2f9e44" opacity="0.55" />
<rect x="650.75" y="379.53" width="2.28" height="3.16" fill="#2f9e44" opacity="0.55" />
<rect x="654.02" y="378.90" width="2.28" height="3.79" fill="#2f9e44" opacity="0.55" />
<rect x="657.30" y="381.32" width="2.28" height="1.38" fill="#2f9e44" opacity="0.55" />
<rect x="660.57" y="382.69" width="2.28" height="0.33" fill="#d64545" opacity="0.55" />
<rect x="663.85" y="379.55" width="2.28" height="3.14" fill="#2f9e44" opacity="0.55" />
<rect x="667.12" y="379.09" width="2.28" height="3.60" fill="#2f9e44" opacity="0.55" />
<rect x="670.40" y="379.48" width="2.28" height="3.21" fill="#2f9e44" opacity="0.55" />
<rect x="673.67" y="381.10" width="2.28" height="1.59" fill="#2f9e44" opacity="0.55" />
<rect x="676.94" y="382.69" width="2.28" height="3.57" fill="#d64545" opacity="0.55" />
<rect x="680.22" y="382.69" width="2.28" height="3.55" fill="#d64545" opacity="0.55" />
<rect x="683.49" y="382.69" width="2.28" height="5.26" fill="#d64545" opacity="0.55" />
<rect x="686.77" y="382.69" width="2.28" height="3.31" fill="#d64545" opacity="0.55" />
<rect x="690.04" y="379.55" width="2.28" height="3.14" fill="#2f9e44" opacity="0.55" />
<rect x="693.31" y="376.67" width="2.28" height="6.02" fill="#2f9e44" opacity="0.55" />
<rect x="696.59" y="372.28" width="2.28" height="10.41" fill="#2f9e44" opacity="0.55" />
<rect x="699.86" y="370.23" width="2.28" height="12.46" fill="#2f9e44" opacity="0.55" />
<rect x="703.14" y="369.60" width="2.28" height="13.09" fill="#2f9e44" opacity="0.55" />
<rect x="706.41" y="369.03" width="2.28" height="13.66" fill="#2f9e44" opacity="0.55" />
<rect x="709.68" y="367.67" width="2.28" height="15.03" fill="#2f9e44" opacity="0.55" />
<rect x="712.96" y="368.23" width="2.28" height="14.46" fill="#2f9e44" opacity="0.55" />
<rect x="716.23" y="367.69" width="2.28" height="15.00" fill="#2f9e44" opacity="0.55" />
<rect x="719.51" y="364.56" width="2.28" height="18.13" fill="#2f9e44" opacity="0.55" />
<rect x="722.78" y="364.11" width="2.28" height="18.58" fill="#2f9e44" opacity="0.55" />
<rect x="726.06" y="366.65" width="2.28" height="16.04" fill="#2f9e44" opacity="0.55" />
<rect x="729.33" y="366.34" width="2.28" height="16.35" fill="#2f9e44" opacity="0.55" />
<rect x="732.60" y="369.64" width="2.28" height="13.05" fill="#2f9e44" opacity="0.55" />
<rect x="735.88" y="369.36" width="2.28" height="13.33" fill="#2f9e44" opacity="0.55" />
<rect x="739.15" y="369.19" width="2.28" height="13.50" fill="#2f9e44" opacity="0.55" />
<rect x="742.43" y="370.57" width="2.28" height="12.13" fill="#2f9e44" opacity="0.55" />
<rect x="745.70" y="370.90" width="2.28" height="11.79" fill="#2f9e44" opacity="0.55" />
<rect x="748.97" y="374.51" width="2.28" height="8.18" fill="#2f9e44" opacity="0.55" />
<rect x="752.25" y="376.44" width="2.28" height="6.25" fill="#2f9e44" opacity="0.55" />
<rect x="755.52" y="376.33" width="2.28" height="6.36" fill="#2f9e44" opacity="0.55" />
<rect x="758.80" y="380.33" width="2.28" height="2.36" fill="#2f9e44" opacity="0.55" />
<rect x="762.07" y="382.23" width="2.28" height="0.47" fill="#2f9e44" opacity="0.55" />
<rect x="765.34" y="382.69" width="2.28" height="3.41" fill="#d64545" opacity="0.55" />
<rect x="768.62" y="382.69" width="2.28" height="7.60" fill="#d64545" opacity="0.55" />
<rect x="771.89" y="382.69" width="2.28" height="11.03" fill="#d64545" opacity="0.55" />
<rect x="775.17" y="382.69" width="2.28" height="16.29" fill="#d64545" opacity="0.55" />
<rect x="778.44" y="382.69" width="2.28" height="21.48" fill="#d64545" opacity="0.55" />
<rect x="781.72" y="382.69" width="2.28" height="28.09" fill="#d64545" opacity="0.55" />
<rect x="784.99" y="382.69" width="2.28" height="31.44" fill="#d64545" opacity="0.55" />
<rect x="788.26" y="382.69" width="2.28" height="28.40" fill="#d64545" opacity="0.55" />
<rect x="791.54" y="382.69" width="2.28" height="23.22" fill="#d64545" opacity="0.55" />
<rect x="794.81" y="382.69" width="2.28" height="12.30" fill="#d64545" opacity="0.55" />
<rect x="798.09" y="382.69" width="2.28" height="3.13" fill="#d64545" opacity="0.55" />
<rect x="801.36" y="374.30" width="2.28" height="8.40" fill="#2f9e44" opacity="0.55" />
<rect x="804.63" y="372.62" width="2.28" height="10.07" fill="#2f9e44" opacity="0.55" />
<rect x="807.91" y="370.63" width="2.28" height="12.06" fill="#2f9e44" opacity="0.55" />
<rect x="811.18" y="371.43" width="2.28" height="11.26" fill="#2f9e44" opacity="0.55" />
<rect x="814.46" y="375.21" width="2.28" height="7.48" fill="#2f9e44" opacity="0.55" />
<rect x="817.73" y="375.15" width="2.28" height="7.54" fill="#2f9e44" opacity="0.55" />
<rect x="821.01" y="377.16" width="2.28" height="5.53" fill="#2f9e44" opacity="0.55" />
<rect x="824.28" y="382.69" width="2.28" height="1.07" fill="#d64545" opacity="0.55" />
<rect x="827.55" y="382.69" width="2.28" height="7.34" fill="#d64545" opacity="0.55" />
<rect x="830.83" y="382.69" width="2.28" height="5.76" fill="#d64545" opacity="0.55" />
<rect x="834.10" y="382.69" width="2.28" height="12.70" fill="#d64545" opacity="0.55" />
<rect x="837.38" y="382.69" width="2.28" height="18.34" fill="#d64545" opacity="0.55" />
<rect x="840.65" y="382.69" width="2.28" height="19.45" fill="#d64545" opacity="0.55" />
<rect x="843.92" y="382.69" width="2.28" height="19.74" fill="#d64545" opacity="0.55" />
<rect x="847.20" y="382.69" width="2.28" height="18.59" fill="#d64545" opacity="0.55" />
<rect x="850.47" y="382.69" width="2.28" height="19.52" fill="#d64545" opacity="0.55" />
<rect x="853.75" y="382.69" width="2.28" height="19.57" fill="#d64545" opacity="0.55" />
<rect x="857.02" y="382.69" width="2.28" height="18.85" fill="#d64545" opacity="0.55" />
<rect x="860.29" y="382.69" width="2.28" height="20.15" fill="#d64545" opacity="0.55" />
<rect x="863.57" y="382.69" width="2.28" height="22.96" fill="#d64545" opacity="0.55" />
<rect x="866.84" y="382.69" width="2.28" height="24.36" fill="#d64545" opacity="0.55" />
<rect x="870.12" y="382.69" width="2.28" height="30.13" fill="#d64545" opacity="0.55" />
<rect x="873.39" y="382.69" width="2.28" height="28.76" fill="#d64545" opacity="0.55" />
<rect x="876.67" y="382.69" width="2.28" height="24.73" fill="#d64545" opacity="0.55" />
<rect x="879.94" y="382.69" width="2.28" height="19.35" fill="#d64545" opacity="0.55" />
<rect x="883.21" y="382.69" width="2.28" height="15.52" fill="#d64545" opacity="0.55" />
<rect x="886.49" y="382.69" width="2.28" height="8.35" fill="#d64545" opacity="0.55" />
<rect x="889.76" y="382.69" width="2.28" height="6.07" fill="#d64545" opacity="0.55" />
<rect x="893.04" y="382.69" width="2.28" height="7.86" fill="#d64545" opacity="0.55" />
<rect x="896.31" y="382.69" width="2.28" height="8.50" fill="#d64545" opacity="0.55" />
<rect x="899.58" y="382.69" width="2.28" height="8.37" fill="#d64545" opacity="0.55" />
<rect x="902.86" y="382.69" width="2.28" height="7.56" fill="#d64545" opacity="0.55" />
<polyline fill="none" stroke="#1f77b4" stroke-width="2" points="137.85,367.73 141.13,367.38 144.40,367.37 147.68,367.58 150.95,367.70 154.22,367.83 157.50,367.87 160.77,366.43 164.05,364.32 167.32,361.15 170.59,359.39 173.87,358.19 177.14,356.91 180.42,356.16 183.69,355.69 186.97,354.16 190.24,353.51 193.51,352.62 196.79,352.17 200.06,353.38 203.34,356.26 206.61,357.79 209.88,358.56 213.16,358.91 216.43,359.05 219.71,357.87 222.98,357.72 226.25,357.79 229.53,359.16 232.80,360.64 236.08,362.27 239.35,363.28 242.63,362.74 245.90,362.55 249.17,360.04 252.45,355.97 255.72,353.35 259.00,351.37 262.27,350.22 265.54,349.46 268.82,349.47 272.09,347.36 275.37,346.29 278.64,345.02 281.92,345.07 285.19,345.64 288.46,346.81 291.74,349.75 295.01,352.15 298.29,353.63 301.56,354.09 304.83,352.64 308.11,349.84 311.38,348.29 314.66,346.66 317.93,344.42 321.20,344.79 324.48,344.48 327.75,344.24 331.03,345.64 334.30,346.45 337.58,347.27 340.85,348.32 344.12,349.98 347.40,348.98 350.67,348.36 353.95,348.93 357.22,351.99 360.49,355.41 363.77,358.93 367.04,362.31 370.32,365.56 373.59,367.80 376.86,370.31 380.14,371.66 383.41,373.29 386.69,374.89 389.96,376.64 393.24,379.68 396.51,382.37 399.78,385.28 403.06,387.71 406.33,386.88 409.61,388.81 412.88,390.35 416.15,390.70 419.43,389.33 422.70,388.31 425.98,387.90 429.25,385.69 432.53,383.21 435.80,380.90 439.07,379.03 442.35,378.49 445.62,378.12 448.90,378.24 452.17,378.51 455.44,379.80 458.72,381.16 461.99,382.95 465.27,385.29 468.54,387.58 471.81,389.27 475.09,389.63 478.36,387.97 481.64,387.05 484.91,385.74 488.19,384.64 491.46,383.48 494.73,382.62 498.01,381.85 501.28,379.83 504.56,377.61 507.83,374.15 511.10,372.43 514.38,372.08 517.65,371.71 520.93,369.77 524.20,369.50 527.47,368.11 530.75,367.85 534.02,364.25 537.30,361.87 540.57,359.79 543.85,358.20 547.12,352.33 550.39,347.41 553.67,345.29 556.94,343.17 560.22,340.62 563.49,340.22 566.76,341.94 570.04,345.77 573.31,347.40 576.59,349.30 579.86,353.85 583.14,357.30 586.41,359.39 589.68,361.08 592.96,359.30 596.23,356.17 599.51,350.46 602.78,344.12 606.05,339.82 609.33,337.15 612.60,339.38 615.88,345.40 619.15,346.98 622.42,349.29 625.70,355.94 628.97,358.33 632.25,355.59 635.52,355.08 638.80,354.33 642.07,355.17 645.34,352.59 648.62,349.79 651.89,348.42 655.17,346.84 658.44,348.91 661.71,350.70 664.99,346.44 668.26,345.08 671.54,344.67 674.81,345.89 678.08,351.95 681.36,352.81 684.63,355.84 687.91,354.72 691.18,347.48 694.46,343.10 697.73,336.11 701.00,330.94 704.28,327.03 707.55,323.05 710.83,317.93 714.10,314.88 717.37,310.59 720.65,302.93 723.92,297.83 727.20,296.36 730.47,291.97 733.75,292.00 737.02,288.39 740.29,284.85 743.57,283.19 746.84,280.57 750.12,282.14 753.39,282.50 756.66,280.81 759.94,284.21 763.21,285.99 766.49,290.72 769.76,296.81 773.03,303.00 776.31,312.33 779.58,322.89 782.86,336.52 786.13,347.73 789.41,351.79 792.68,352.42 795.95,344.57 799.23,336.18 802.50,322.56 805.78,318.37 809.05,313.36 812.32,311.35 815.60,313.26 818.87,311.31 822.15,311.93 825.42,318.80 828.69,326.91 831.97,326.78 835.24,336.89 838.52,347.11 841.79,353.08 845.07,358.31 848.34,361.80 851.61,367.61 854.89,372.56 858.16,376.55 861.44,382.89 864.71,391.43 867.98,398.92 871.26,412.22 874.53,418.05 877.81,420.20 881.08,419.66 884.36,419.72 887.63,414.63 890.90,413.87 894.18,417.62 897.45,420.38 900.73,422.34 904.00,423.43" />
<polyline fill="none" stroke="#ff7f0e" stroke-width="2" points="137.85,367.73 141.13,367.66 144.40,367.60 147.68,367.60 150.95,367.62 154.22,367.66 157.50,367.70 160.77,367.45 164.05,366.82 167.32,365.69 170.59,364.43 173.87,363.18 177.14,361.93 180.42,360.77 183.69,359.76 186.97,358.64 190.24,357.61 193.51,356.61 196.79,355.72 200.06,355.25 203.34,355.45 206.61,355.92 209.88,356.45 213.16,356.94 216.43,357.36 219.71,357.46 222.98,357.51 226.25,357.57 229.53,357.89 232.80,358.44 236.08,359.20 239.35,360.02 242.63,360.56 245.90,360.96 249.17,360.78 252.45,359.82 255.72,358.52 259.00,357.09 262.27,355.72 265.54,354.47 268.82,353.47 272.09,352.25 275.37,351.05 278.64,349.85 281.92,348.89 285.19,348.24 288.46,347.96 291.74,348.31 295.01,349.08 298.29,349.99 301.56,350.81 304.83,351.18 308.11,350.91 311.38,350.38 314.66,349.64 317.93,348.59 321.20,347.83 324.48,347.16 327.75,346.58 331.03,346.39 334.30,346.40 337.58,346.58 340.85,346.93 344.12,347.54 347.40,347.82 350.67,347.93 353.95,348.13 357.22,348.90 360.49,350.20 363.77,351.95 367.04,354.02 370.32,356.33 373.59,358.62 376.86,360.96 380.14,363.10 383.41,365.14 386.69,367.09 389.96,369.00 393.24,371.14 396.51,373.38 399.78,375.76 403.06,378.15 406.33,379.90 409.61,381.68 412.88,383.41 416.15,384.87 419.43,385.76 422.70,386.27 425.98,386.60 429.25,386.42 432.53,385.78 435.80,384.80 439.07,383.65 442.35,382.62 445.62,381.72 448.90,381.02 452.17,380.52 455.44,380.38 458.72,380.53 461.99,381.01 465.27,381.87 468.54,383.01 471.81,384.26 475.09,385.34 478.36,385.86 481.64,386.10 484.91,386.03 488.19,385.75 491.46,385.30 494.73,384.76 498.01,384.18 501.28,383.31 504.56,382.17 507.83,380.57 511.10,378.94 514.38,377.57 517.65,376.40 520.93,375.07 524.20,373.96 527.47,372.79 530.75,371.80 534.02,370.29 537.30,368.61 540.57,366.84 543.85,365.11 547.12,362.56 550.39,359.53 553.67,356.68 556.94,353.98 560.22,351.31 563.49,349.09 566.76,347.66 570.04,347.28 573.31,347.30 576.59,347.70 579.86,348.93 583.14,350.61 586.41,352.36 589.68,354.11 592.96,355.15 596.23,355.35 599.51,354.37 602.78,352.32 606.05,349.82 609.33,347.29 612.60,345.71 615.88,345.64 619.15,345.91 622.42,346.59 625.70,348.46 628.97,350.43 632.25,351.46 635.52,352.19 638.80,352.61 642.07,353.13 645.34,353.02 648.62,352.37 651.89,351.58 655.17,350.63 658.44,350.29 661.71,350.37 664.99,349.59 668.26,348.69 671.54,347.88 674.81,347.49 678.08,348.38 681.36,349.27 684.63,350.58 687.91,351.41 691.18,350.62 694.46,349.12 697.73,346.52 701.00,343.40 704.28,340.13 707.55,336.71 710.83,332.95 714.10,329.34 717.37,325.59 720.65,321.06 723.92,316.41 727.20,312.40 730.47,308.31 733.75,305.05 737.02,301.72 740.29,298.35 743.57,295.31 746.84,292.37 750.12,290.32 753.39,288.76 756.66,287.17 759.94,286.58 763.21,286.46 766.49,287.31 769.76,289.21 773.03,291.97 776.31,296.04 779.58,301.41 782.86,308.43 786.13,316.29 789.41,323.39 792.68,329.20 795.95,332.27 799.23,333.05 802.50,330.95 805.78,328.44 809.05,325.42 812.32,322.61 815.60,320.74 818.87,318.85 822.15,317.47 825.42,317.73 828.69,319.57 831.97,321.01 835.24,324.19 838.52,328.77 841.79,333.63 845.07,338.57 848.34,343.22 851.61,348.10 854.89,352.99 858.16,357.70 861.44,362.74 864.71,368.48 867.98,374.57 871.26,382.10 874.53,389.29 877.81,395.47 881.08,400.31 884.36,404.19 887.63,406.28 890.90,407.80 894.18,409.76 897.45,411.89 900.73,413.98 904.00,415.87" />
<text x="754.00" y="290.00" font-size="13" font-family="Arial" fill="#1f77b4" text-anchor="start">MACD</text>
<text x="818.00" y="290.00" font-size="13" font-family="Arial" fill="#ff7f0e" text-anchor="start">Signal</text>
<line x1="56" y1="624" x2="904" y2="624" stroke="#cbd2d9" />
<line x1="56" y1="484" x2="56" y2="624" stroke="#cbd2d9" />
<text x="16.00" y="476.00" font-size="12" font-family="Arial" fill="#52606d" text-anchor="start">KD</text>
<line x1="56" y1="624.00" x2="904" y2="624.00" stroke="#edf2f7" />
<line x1="52" y1="624.00" x2="56" y2="624.00" stroke="#9fb3c8" />
<text x="48.00" y="628.00" font-size="11" font-family="Arial" fill="#52606d" text-anchor="end">-5.00</text>
<line x1="56" y1="577.33" x2="904" y2="577.33" stroke="#edf2f7" />
<line x1="52" y1="577.33" x2="56" y2="577.33" stroke="#9fb3c8" />
<text x="48.00" y="581.33" font-size="11" font-family="Arial" fill="#52606d" text-anchor="end">31.7</text>
<line x1="56" y1="530.67" x2="904" y2="530.67" stroke="#edf2f7" />
<line x1="52" y1="530.67" x2="56" y2="530.67" stroke="#9fb3c8" />
<text x="48.00" y="534.67" font-size="11" font-family="Arial" fill="#52606d" text-anchor="end">68.3</text>
<line x1="56" y1="484.00" x2="904" y2="484.00" stroke="#edf2f7" />
<line x1="52" y1="484.00" x2="56" y2="484.00" stroke="#9fb3c8" />
<text x="48.00" y="488.00" font-size="11" font-family="Arial" fill="#52606d" text-anchor="end">105</text>
<line x1="56.00" y1="624" x2="56.00" y2="628" stroke="#9fb3c8" />
<text x="56.00" y="642.00" font-size="11" font-family="Arial" fill="#52606d" text-anchor="middle">06/17</text>
<line x1="226.25" y1="624" x2="226.25" y2="628" stroke="#9fb3c8" />
<text x="226.25" y="642.00" font-size="11" font-family="Arial" fill="#52606d" text-anchor="middle">08/29</text>
<line x1="396.51" y1="624" x2="396.51" y2="628" stroke="#9fb3c8" />
<text x="396.51" y="642.00" font-size="11" font-family="Arial" fill="#52606d" text-anchor="middle">11/17</text>
<line x1="563.49" y1="624" x2="563.49" y2="628" stroke="#9fb3c8" />
<text x="563.49" y="642.00" font-size="11" font-family="Arial" fill="#52606d" text-anchor="middle">01/29</text>
<line x1="733.75" y1="624" x2="733.75" y2="628" stroke="#9fb3c8" />
<text x="733.75" y="642.00" font-size="11" font-family="Arial" fill="#52606d" text-anchor="middle">04/27</text>
<line x1="904.00" y1="624" x2="904.00" y2="628" stroke="#9fb3c8" />
<text x="904.00" y="642.00" font-size="11" font-family="Arial" fill="#52606d" text-anchor="middle">07/10</text>
<line x1="56" y1="592.18" x2="904" y2="592.18" stroke="#f0b429" stroke-dasharray="5 5" />
<text x="912.00" y="596.18" font-size="10" font-family="Arial" fill="#8d2b0b" text-anchor="start">20.0</text>
<line x1="56" y1="515.82" x2="904" y2="515.82" stroke="#f0b429" stroke-dasharray="5 5" />
<text x="912.00" y="519.82" font-size="10" font-family="Arial" fill="#8d2b0b" text-anchor="start">80.0</text>
<polyline fill="none" stroke="#2ca02c" stroke-width="2" points="82.19,540.80 85.47,545.69 88.74,535.07 92.02,528.14 95.29,517.79 98.56,513.55 101.84,517.93 105.11,519.54 108.39,521.05 111.66,514.05 114.93,512.42 118.21,517.68 121.48,511.56 124.76,513.56 128.03,515.47 131.31,510.97 134.58,506.68 137.85,514.06 141.13,516.91 144.40,520.47 147.68,525.39 150.95,527.25 154.22,525.54 157.50,521.00 160.77,521.08 164.05,512.85 167.32,507.77 170.59,508.01 173.87,507.51 177.14,502.96 180.42,501.54 183.69,501.21 186.97,500.96 190.24,503.39 193.51,504.66 196.79,504.88 200.06,520.67 203.34,554.34 206.61,561.13 209.88,556.77 213.16,547.21 216.43,535.83 219.71,525.93 222.98,523.51 226.25,521.14 229.53,528.30 232.80,534.21 236.08,551.14 239.35,559.57 242.63,542.19 245.90,538.72 249.17,528.83 252.45,518.86 255.72,515.64 259.00,512.27 262.27,510.27 265.54,507.99 268.82,508.75 272.09,505.47 275.37,506.44 278.64,506.03 281.92,513.47 285.19,519.30 288.46,526.27 291.74,546.75 295.01,561.22 298.29,564.40 301.56,554.38 304.83,535.78 308.11,524.17 311.38,518.03 314.66,511.63 317.93,508.70 321.20,517.44 324.48,519.08 327.75,519.75 331.03,526.98 334.30,532.70 337.58,538.20 340.85,543.15 344.12,551.03 347.40,535.85 350.67,525.47 353.95,526.84 357.22,549.07 360.49,570.29 363.77,587.77 367.04,599.68 370.32,596.91 373.59,592.08 376.86,592.39 380.14,587.97 383.41,586.66 386.69,581.03 389.96,581.03 393.24,595.54 396.51,605.37 399.78,611.44 403.06,613.37 406.33,591.43 409.61,599.64 412.88,605.94 416.15,601.62 419.43,578.44 422.70,564.66 425.98,561.02 429.25,542.26 432.53,530.68 435.80,522.24 439.07,515.85 442.35,519.80 445.62,524.81 448.90,534.84 452.17,543.18 455.44,563.30 458.72,579.11 461.99,591.38 465.27,601.21 468.54,608.39 471.81,611.33 475.09,604.29 478.36,580.13 481.64,568.07 484.91,550.21 488.19,537.76 491.46,530.16 494.73,525.57 498.01,521.55 501.28,514.52 504.56,513.88 507.83,508.21 511.10,520.95 514.38,535.97 517.65,544.43 520.93,537.56 524.20,540.79 527.47,535.14 530.75,539.12 534.02,527.29 537.30,526.28 540.57,523.54 543.85,524.96 547.12,514.68 550.39,511.72 553.67,514.62 556.94,513.31 560.22,507.86 563.49,515.15 566.76,526.89 570.04,545.71 573.31,556.36 576.59,564.82 579.86,579.21 583.14,583.75 586.41,582.56 589.68,580.71 592.96,553.86 596.23,545.79 599.51,528.45 602.78,521.85 606.05,518.03 609.33,516.06 612.60,527.61 615.88,546.88 619.15,550.27 622.42,561.08 625.70,577.16 628.97,577.51 632.25,558.62 635.52,549.81 638.80,540.10 642.07,535.49 645.34,526.23 648.62,518.97 651.89,515.56 655.17,517.58 658.44,534.86 661.71,547.35 664.99,530.93 668.26,528.83 671.54,530.82 674.81,538.01 678.08,562.89 681.36,559.44 684.63,566.63 687.91,553.48 691.18,533.67 694.46,527.79 697.73,517.96 701.00,511.88 704.28,512.08 707.55,510.90 710.83,505.02 714.10,504.55 717.37,510.27 720.65,506.87 723.92,506.01 727.20,516.01 730.47,513.37 733.75,519.26 737.02,514.84 740.29,508.71 743.57,515.35 746.84,515.69 750.12,522.78 753.39,521.99 756.66,522.82 759.94,532.53 763.21,535.53 766.49,544.08 769.76,566.07 773.03,582.56 776.31,595.80 779.58,600.38 782.86,606.59 786.13,607.55 789.41,595.74 792.68,580.25 795.95,552.50 799.23,537.57 802.50,526.54 805.78,526.96 809.05,523.95 812.32,523.44 815.60,529.33 818.87,527.67 822.15,533.54 825.42,559.79 828.69,565.93 831.97,552.70 835.24,564.73 838.52,575.74 841.79,576.10 845.07,576.88 848.34,575.22 851.61,580.39 854.89,584.44 858.16,587.14 861.44,597.31 864.71,600.45 867.98,603.82 871.26,606.82 874.53,600.26 877.81,590.27 881.08,579.19 884.36,573.15 887.63,556.16 890.90,551.44 894.18,561.21 897.45,568.34 900.73,579.02 904.00,586.14" />
<polyline fill="none" stroke="#d62728" stroke-width="2" points="82.19,549.60 85.47,548.30 88.74,543.89 92.02,538.64 95.29,531.69 98.56,525.64 101.84,523.07 105.11,521.90 108.39,521.61 111.66,519.09 114.93,516.87 118.21,517.14 121.48,515.28 124.76,514.71 128.03,514.96 131.31,513.63 134.58,511.31 137.85,512.23 141.13,513.79 144.40,516.02 147.68,519.14 150.95,521.84 154.22,523.08 157.50,522.38 160.77,521.95 164.05,518.92 167.32,515.20 170.59,512.81 173.87,511.04 177.14,508.35 180.42,506.08 183.69,504.46 186.97,503.29 190.24,503.33 193.51,503.77 196.79,504.14 200.06,509.65 203.34,524.55 206.61,536.74 209.88,543.42 213.16,544.68 216.43,541.73 219.71,536.46 222.98,532.15 226.25,528.48 229.53,528.42 232.80,530.35 236.08,537.28 239.35,544.71 242.63,543.87 245.90,542.15 249.17,537.71 252.45,531.43 255.72,526.16 259.00,521.53 262.27,517.78 265.54,514.52 268.82,512.59 272.09,510.22 275.37,508.96 278.64,507.98 281.92,509.81 285.19,512.98 288.46,517.41 291.74,527.19 295.01,538.53 298.29,547.15 301.56,549.56 304.83,544.97 308.11,538.04 311.38,531.37 314.66,524.79 317.93,519.42 321.20,518.76 324.48,518.87 327.75,519.16 331.03,521.77 334.30,525.41 337.58,529.67 340.85,534.16 344.12,539.79 347.40,538.47 350.67,534.14 353.95,531.70 357.22,537.49 360.49,548.43 363.77,561.54 367.04,574.25 370.32,581.81 373.59,585.23 376.86,587.62 380.14,587.73 383.41,587.38 386.69,585.26 389.96,583.85 393.24,587.75 396.51,593.62 399.78,599.56 403.06,604.17 406.33,599.92 409.61,599.83 412.88,601.86 416.15,601.78 419.43,594.00 422.70,584.22 425.98,576.49 429.25,565.08 432.53,553.61 435.80,543.15 439.07,534.05 442.35,529.30 445.62,527.80 448.90,530.15 452.17,534.49 455.44,544.09 458.72,555.77 461.99,567.64 465.27,578.83 468.54,588.68 471.81,596.23 475.09,598.92 478.36,592.65 481.64,584.46 484.91,573.04 488.19,561.28 491.46,550.91 494.73,542.46 498.01,535.49 501.28,528.50 504.56,523.63 507.83,518.49 511.10,519.31 514.38,524.86 517.65,531.38 520.93,533.44 524.20,535.89 527.47,535.64 530.75,536.80 534.02,533.63 537.30,531.18 540.57,528.63 543.85,527.41 547.12,523.16 550.39,519.35 553.67,517.77 556.94,516.28 560.22,513.48 563.49,514.03 566.76,518.32 570.04,527.45 573.31,537.09 576.59,546.33 579.86,557.29 583.14,566.11 586.41,571.60 589.68,574.64 592.96,567.71 596.23,560.40 599.51,549.75 602.78,540.45 606.05,532.98 609.33,527.34 612.60,527.43 615.88,533.91 619.15,539.37 622.42,546.60 625.70,556.79 628.97,563.69 632.25,562.00 635.52,557.94 638.80,551.99 642.07,546.49 645.34,539.74 648.62,532.82 651.89,527.06 655.17,523.90 658.44,527.56 661.71,534.15 664.99,533.08 668.26,531.66 671.54,531.38 674.81,533.59 678.08,543.36 681.36,548.72 684.63,554.69 687.91,554.29 691.18,547.41 694.46,540.87 697.73,533.23 701.00,526.12 704.28,521.44 707.55,517.93 710.83,513.62 714.10,510.60 717.37,510.49 720.65,509.28 723.92,508.19 727.20,510.80 730.47,511.65 733.75,514.19 737.02,514.41 740.29,512.51 743.57,513.45 746.84,514.20 750.12,517.06 753.39,518.70 756.66,520.08 759.94,524.23 763.21,527.99 766.49,533.36 769.76,544.26 773.03,557.03 776.31,569.95 779.58,580.09 782.86,588.93 786.13,595.13 789.41,595.34 792.68,590.31 795.95,577.71 799.23,564.33 802.50,551.73 805.78,543.47 809.05,536.97 812.32,532.46 815.60,531.42 818.87,530.17 822.15,531.29 825.42,540.79 828.69,549.17 831.97,550.35 835.24,555.14 838.52,562.01 841.79,566.70 845.07,570.10 848.34,571.80 851.61,574.67 854.89,577.93 858.16,581.00 861.44,586.43 864.71,591.11 867.98,595.34 871.26,599.17 874.53,599.54 877.81,596.45 881.08,590.69 884.36,584.85 887.63,575.28 890.90,567.34 894.18,565.30 897.45,566.31 900.73,570.55 904.00,575.74" />
<text x="824.00" y="502.00" font-size="13" font-family="Arial" fill="#2ca02c" text-anchor="start">K</text>
<text x="860.00" y="502.00" font-size="13" font-family="Arial" fill="#d62728" text-anchor="start">D</text>
</svg>