<svg xmlns="http://www.w3.org/2000/svg" width="960" height="680" viewBox="0 0 960 680"><rect width="100%" height="100%" fill="white" />
<text x="56.00" y="32.00" font-size="20" font-family="Arial" fill="#1f2933" text-anchor="start">奇鋐(3017) Technical Indicators</text>
<line x1="56" y1="220" x2="904" y2="220" stroke="#cbd2d9" />
<line x1="56" y1="58" x2="56" y2="220" stroke="#cbd2d9" />
<text x="16.00" y="50.00" font-size="12" font-family="Arial" fill="#52606d" text-anchor="start">RSI14</text>
<line x1="56" y1="220.00" x2="904" y2="220.00" stroke="#edf2f7" />
<line x1="52" y1="220.00" x2="56" y2="220.00" stroke="#9fb3c8" />
<text x="48.00" y="224.00" font-size="11" font-family="Arial" fill="#52606d" text-anchor="end">-5.00</text>
<line x1="56" y1="166.00" x2="904" y2="166.00" stroke="#edf2f7" />
<line x1="52" y1="166.00" x2="56" y2="166.00" stroke="#9fb3c8" />
<text x="48.00" y="170.00" font-size="11" font-family="Arial" fill="#52606d" text-anchor="end">31.7</text>
<line x1="56" y1="112.00" x2="904" y2="112.00" stroke="#edf2f7" />
<line x1="52" y1="112.00" x2="56" y2="112.00" stroke="#9fb3c8" />
<text x="48.00" y="116.00" font-size="11" font-family="Arial" fill="#52606d" text-anchor="end">68.3</text>
<line x1="56" y1="58.00" x2="904" y2="58.00" stroke="#edf2f7" />
<line x1="52" y1="58.00" x2="56" y2="58.00" stroke="#9fb3c8" />
<text x="48.00" y="62.00" font-size="11" font-family="Arial" fill="#52606d" text-anchor="end">105</text>
<line x1="56" y1="168.45" x2="904" y2="168.45" stroke="#f0b429" stroke-dasharray="5 5" />
<text x="912.00" y="172.45" font-size="10" font-family="Arial" fill="#8d2b0b" text-anchor="start">30.0</text>
<line x1="56" y1="109.55" x2="904" y2="109.55" stroke="#f0b429" stroke-dasharray="5 5" />
<text x="912.00" y="113.55" font-size="10" font-family="Arial" fill="#8d2b0b" text-anchor="start">70.0</text>
<polyline fill="none" stroke="#1f77b4" stroke-width="2" points="101.84,98.50 105.11,100.91 108.39,93.42 111.66,103.43 114.93,112.93 118.21,116.53 121.48,113.71 124.76,117.02 128.03,111.34 131.31,110.23 134.58,113.32 137.85,102.94 141.13,101.14 144.40,95.14 147.68,92.01 150.95,90.01 154.22,84.90 157.50,89.14 160.77,88.32 164.05,86.01 167.32,103.70 170.59,105.49 173.87,97.07 177.14,116.15 180.42,130.70 183.69,124.10 186.97,128.18 190.24,123.83 193.51,130.95 196.79,127.14 200.06,134.02 203.34,134.98 206.61,146.93 209.88,145.40 213.16,147.54 216.43,147.72 219.71,145.66 222.98,141.14 226.25,141.78 229.53,137.58 232.80,128.08 236.08,123.59 239.35,124.94 242.63,126.35 245.90,135.68 249.17,125.65 252.45,129.48 255.72,135.57 259.00,135.57 262.27,140.70 265.54,148.19 268.82,151.98 272.09,141.78 275.37,132.42 278.64,120.11 281.92,112.10 285.19,115.63 288.46,116.83 291.74,113.60 295.01,116.21 298.29,117.56 301.56,109.02 304.83,115.59 308.11,126.23 311.38,128.43 314.66,125.93 317.93,122.67 321.20,123.96 324.48,120.56 327.75,106.45 331.03,103.58 334.30,97.19 337.58,96.15 340.85,91.82 344.12,105.72 347.40,104.91 350.67,101.02 353.95,107.68 357.22,101.16 360.49,103.30 363.77,110.66 367.04,112.73 370.32,126.80 373.59,126.80 376.86,135.23 380.14,139.85 383.41,140.62 386.69,153.45 389.96,152.57 393.24,141.15 396.51,131.78 399.78,130.54 403.06,133.71 406.33,139.07 409.61,142.72 412.88,136.63 416.15,141.17 419.43,132.52 422.70,132.52 425.98,129.01 429.25,126.93 432.53,126.22 435.80,127.28 439.07,136.39 442.35,142.65 445.62,143.52 448.90,139.54 452.17,124.84 455.44,121.52 458.72,117.15 461.99,119.38 465.27,116.79 468.54,113.67 471.81,117.40 475.09,122.29 478.36,134.22 481.64,135.22 484.91,140.19 488.19,149.00 491.46,152.17 494.73,147.75 498.01,151.12 501.28,152.80 504.56,137.04 507.83,144.13 511.10,147.43 514.38,158.61 517.65,155.49 520.93,157.48 524.20,142.94 527.47,139.58 530.75,140.42 534.02,132.13 537.30,125.67 540.57,121.75 543.85,128.61 547.12,124.49 550.39,109.52 553.67,106.43 556.94,114.73 560.22,120.74 563.49,120.22 566.76,118.10 570.04,120.97 573.31,135.29 576.59,131.37 579.86,118.10 583.14,110.99 586.41,110.99 589.68,108.73 592.96,116.43 596.23,110.79 599.51,108.94 602.78,133.84 606.05,131.01 609.33,118.10 612.60,117.11 615.88,118.38 619.15,122.91 622.42,117.17 625.70,124.14 628.97,112.92 632.25,110.94 635.52,117.65 638.80,123.42 642.07,113.63 645.34,105.42 648.62,113.71 651.89,119.52 655.17,131.87 658.44,124.84 661.71,128.05 664.99,131.25 668.26,120.09 671.54,119.84 674.81,118.29 678.08,124.17 681.36,118.17 684.63,117.39 687.91,111.74 691.18,115.68 694.46,111.33 697.73,108.02 701.00,102.96 704.28,104.55 707.55,96.07 710.83,106.35 714.10,111.17 717.37,109.04 720.65,109.04 723.92,107.00 727.20,123.22 730.47,140.99 733.75,142.11 737.02,140.22 740.29,133.60 743.57,135.92 746.84,132.00 750.12,134.17 753.39,141.08 756.66,144.01 759.94,145.32 763.21,148.64 766.49,136.89 769.76,133.55 773.03,131.55 776.31,122.54 779.58,124.69 782.86,134.35 786.13,129.01 789.41,122.32 792.68,129.03 795.95,120.92 799.23,131.35 802.50,138.25 805.78,140.07 809.05,141.62 812.32,151.96 815.60,153.22 818.87,148.04 822.15,147.67 825.42,150.10 828.69,150.41 831.97,147.32 835.24,145.52 838.52,145.05 841.79,135.73 845.07,137.97 848.34,155.80 851.61,151.80 854.89,135.17 858.16,129.55 861.44,123.22 864.71,122.21 867.98,129.24 871.26,143.41 874.53,149.93 877.81,148.25 881.08,148.25 884.36,154.91 887.63,159.84 890.90,156.26 894.18,151.56 897.45,152.94 900.73,156.51 904.00,142.41" />
<text x="808.00" y="76.00" font-size="13" font-family="Arial" fill="#1f77b4" text-anchor="start">RSI14</text>
<line x1="56" y1="432" x2="904" y2="432" stroke="#cbd2d9" />
<line x1="56" y1="272" x2="56" y2="432" stroke="#cbd2d9" />
<text x="16.00" y="264.00" font-size="12" font-family="Arial" fill="#52606d" text-anchor="start">MACD</text>
<line x1="56" y1="432.00" x2="904" y2="432.00" stroke="#edf2f7" />
<line x1="52" y1="432.00" x2="56" y2="432.00" stroke="#9fb3c8" />
<text x="48.00" y="436.00" font-size="11" font-family="Arial" fill="#52606d" text-anchor="end">-109</text>
<line x1="56" y1="378.67" x2="904" y2="378.67" stroke="#edf2f7" />
<line x1="52" y1="378.67" x2="56" y2="378.67" stroke="#9fb3c8" />
<text x="48.00" y="382.67" font-size="11" font-family="Arial" fill="#52606d" text-anchor="end">10.5</text>
<line x1="56" y1="325.33" x2="904" y2="325.33" stroke="#edf2f7" />
<line x1="52" y1="325.33" x2="56" y2="325.33" stroke="#9fb3c8" />
<text x="48.00" y="329.33" font-size="11" font-family="Arial" fill="#52606d" text-anchor="end">130</text>
<line x1="56" y1="272.00" x2="904" y2="272.00" stroke="#edf2f7" />
<line x1="52" y1="272.00" x2="56" y2="272.00" stroke="#9fb3c8" />
<text x="48.00" y="276.00" font-size="11" font-family="Arial" fill="#52606d" text-anchor="end">249</text>
<line x1="56" y1="383.38" x2="904" y2="383.38" stroke="#9fb3c8" stroke-dasharray="4 4" />
<rect x="136.71" y="383.38" width="2.28" height="0.00" fill="#2f9e44" opacity="0.55" />
<rect x="139.99" y="382.26" width="2.28" height="1.12" fill="#2f9e44" opacity="0.55" />
<rect x="143.26" y="380.53" width="2.28" height="2.85" fill="#2f9e44" opacity="0.55" />
<rect x="146.53" y="378.94" width="2.28" height="4.44" fill="#2f9e44" opacity="0.55" />
<rect x="149.81" y="377.76" width="2.28" height="5.62" fill="#2f9e44" opacity="0.55" />
<rect x="153.08" y="375.63" width="2.28" height="7.75" fill="#2f9e44" opacity="0.55" />
<rect x="156.36" y="375.16" width="2.28" height="8.21" fill="#2f9e44" opacity="0.55" />
<rect x="159.63" y="375.21" width="2.28" height="8.16" fill="#2f9e44" opacity="0.55" />
<rect x="162.90" y="375.04" width="2.28" height="8.34" fill="#2f9e44" opacity="0.55" />
<rect x="166.18" y="376.88" width="2.28" height="6.50" fill="#2f9e44" opacity="0.55" />
<rect x="169.45" y="378.76" width="2.28" height="4.62" fill="#2f9e44" opacity="0.55" />
<rect x="172.73" y="378.31" width="2.28" height="5.06" fill="#2f9e44" opacity="0.55" />
<rect x="176.00" y="380.43" width="2.28" height="2.94" fill="#2f9e44" opacity="0.55" />
<rect x="179.28" y="383.38" width="2.28" height="0.67" fill="#d64545" opacity="0.55" />
<rect x="182.55" y="383.38" width="2.28" height="1.89" fill="#d64545" opacity="0.55" />
<rect x="185.82" y="383.38" width="2.28" height="3.40" fill="#d64545" opacity="0.55" />
<rect x="189.10" y="383.38" width="2.28" height="3.58" fill="#d64545" opacity="0.55" />
<rect x="192.37" y="383.38" width="2.28" height="4.76" fill="#d64545" opacity="0.55" />
<rect x="195.65" y="383.38" width="2.28" height="4.78" fill="#d64545" opacity="0.55" />
<rect x="198.92" y="383.38" width="2.28" height="5.77" fill="#d64545" opacity="0.55" />
<rect x="202.19" y="383.38" width="2.28" height="6.46" fill="#d64545" opacity="0.55" />
<rect x="205.47" y="383.38" width="2.28" height="8.73" fill="#d64545" opacity="0.55" />
<rect x="208.74" y="383.38" width="2.28" height="9.65" fill="#d64545" opacity="0.55" />
<rect x="212.02" y="383.38" width="2.28" height="10.26" fill="#d64545" opacity="0.55" />
<rect x="215.29" y="383.38" width="2.28" height="10.27" fill="#d64545" opacity="0.55" />
<rect x="218.57" y="383.38" width="2.28" height="9.60" fill="#d64545" opacity="0.55" />
<rect x="221.84" y="383.38" width="2.28" height="8.20" fill="#d64545" opacity="0.55" />
<rect x="225.11" y="383.38" width="2.28" height="7.06" fill="#d64545" opacity="0.55" />
<rect x="228.39" y="383.38" width="2.28" height="5.52" fill="#d64545" opacity="0.55" />
<rect x="231.66" y="383.38" width="2.28" height="3.00" fill="#d64545" opacity="0.55" />
<rect x="234.94" y="383.38" width="2.28" height="0.59" fill="#d64545" opacity="0.55" />
<rect x="238.21" y="382.61" width="2.28" height="0.77" fill="#2f9e44" opacity="0.55" />
<rect x="241.48" y="381.98" width="2.28" height="1.40" fill="#2f9e44" opacity="0.55" />
<rect x="244.76" y="382.71" width="2.28" height="0.67" fill="#2f9e44" opacity="0.55" />
<rect x="248.03" y="381.81" width="2.28" height="1.56" fill="#2f9e44" opacity="0.55" />
<rect x="251.31" y="381.82" width="2.28" height="1.56" fill="#2f9e44" opacity="0.55" />
<rect x="254.58" y="382.67" width="2.28" height="0.71" fill="#2f9e44" opacity="0.55" />
<rect x="257.85" y="383.29" width="2.28" height="0.08" fill="#2f9e44" opacity="0.55" />
<rect x="261.13" y="383.38" width="2.28" height="0.97" fill="#d64545" opacity="0.55" />
<rect x="264.40" y="383.38" width="2.28" height="2.60" fill="#d64545" opacity="0.55" />
<rect x="267.68" y="383.38" width="2.28" height="4.08" fill="#d64545" opacity="0.55" />
<rect x="270.95" y="383.38" width="2.28" height="3.69" fill="#d64545" opacity="0.55" />
<rect x="274.23" y="383.38" width="2.28" height="2.02" fill="#d64545" opacity="0.55" />
<rect x="277.50" y="382.13" width="2.28" height="1.25" fill="#2f9e44" opacity="0.55" />
<rect x="280.77" y="378.32" width="2.28" height="5.06" fill="#2f9e44" opacity="0.55" />
<rect x="284.05" y="376.66" width="2.28" height="6.72" fill="#2f9e44" opacity="0.55" />
<rect x="287.32" y="376.17" width="2.28" height="7.20" fill="#2f9e44" opacity="0.55" />
<rect x="290.60" y="375.60" width="2.28" height="7.78" fill="#2f9e44" opacity="0.55" />
<rect x="293.87" y="376.02" width="2.28" height="7.35" fill="#2f9e44" opacity="0.55" />
<rect x="297.14" y="376.92" width="2.28" height="6.45" fill="#2f9e44" opacity="0.55" />
<rect x="300.42" y="376.09" width="2.28" height="7.29" fill="#2f9e44" opacity="0.55" />
<rect x="303.69" y="376.80" width="2.28" height="6.58" fill="#2f9e44" opacity="0.55" />
<rect x="306.97" y="379.03" width="2.28" height="4.35" fill="#2f9e44" opacity="0.55" />
<rect x="310.24" y="381.10" width="2.28" height="2.28" fill="#2f9e44" opacity="0.55" />
<rect x="313.51" y="382.26" width="2.28" height="1.12" fill="#2f9e44" opacity="0.55" />
<rect x="316.79" y="382.64" width="2.28" height="0.74" fill="#2f9e44" opacity="0.55" />
<rect x="320.06" y="383.23" width="2.28" height="0.15" fill="#2f9e44" opacity="0.55" />
<rect x="323.34" y="383.21" width="2.28" height="0.17" fill="#2f9e44" opacity="0.55" />
<rect x="326.61" y="380.23" width="2.28" height="3.14" fill="#2f9e44" opacity="0.55" />
<rect x="329.89" y="377.86" width="2.28" height="5.52" fill="#2f9e44" opacity="0.55" />
<rect x="333.16" y="374.56" width="2.28" height="8.81" fill="#2f9e44" opacity="0.55" />
<rect x="336.43" y="372.74" width="2.28" height="10.63" fill="#2f9e44" opacity="0.55" />
<rect x="339.71" y="370.39" width="2.28" height="12.98" fill="#2f9e44" opacity="0.55" />
<rect x="342.98" y="371.58" width="2.28" height="11.79" fill="#2f9e44" opacity="0.55" />
<rect x="346.26" y="372.95" width="2.28" height="10.42" fill="#2f9e44" opacity="0.55" />
<rect x="349.53" y="373.25" width="2.28" height="10.13" fill="#2f9e44" opacity="0.55" />
<rect x="352.80" y="375.16" width="2.28" height="8.22" fill="#2f9e44" opacity="0.55" />
<rect x="356.08" y="374.72" width="2.28" height="8.66" fill="#2f9e44" opacity="0.55" />
<rect x="359.35" y="375.56" width="2.28" height="7.82" fill="#2f9e44" opacity="0.55" />
<rect x="362.63" y="377.89" width="2.28" height="5.49" fill="#2f9e44" opacity="0.55" />
<rect x="365.90" y="380.33" width="2.28" height="3.04" fill="#2f9e44" opacity="0.55" />
<rect x="369.18" y="383.38" width="2.28" height="1.21" fill="#d64545" opacity="0.55" />
<rect x="372.45" y="383.38" width="2.28" height="4.22" fill="#d64545" opacity="0.55" />
<rect x="375.72" y="383.38" width="2.28" height="7.72" fill="#d64545" opacity="0.55" />
<rect x="379.00" y="383.38" width="2.28" height="10.75" fill="#d64545" opacity="0.55" />
<rect x="382.27" y="383.38" width="2.28" height="12.59" fill="#d64545" opacity="0.55" />
<rect x="385.55" y="383.38" width="2.28" height="16.13" fill="#d64545" opacity="0.55" />
<rect x="388.82" y="383.38" width="2.28" height="17.65" fill="#d64545" opacity="0.55" />
<rect x="392.09" y="383.38" width="2.28" height="15.94" fill="#d64545" opacity="0.55" />
<rect x="395.37" y="383.38" width="2.28" height="12.25" fill="#d64545" opacity="0.55" />
<rect x="398.64" y="383.38" width="2.28" height="9.20" fill="#d64545" opacity="0.55" />
<rect x="401.92" y="383.38" width="2.28" height="7.54" fill="#d64545" opacity="0.55" />
<rect x="405.19" y="383.38" width="2.28" height="7.26" fill="#d64545" opacity="0.55" />
<rect x="408.46" y="383.38" width="2.28" height="7.56" fill="#d64545" opacity="0.55" />
<rect x="411.74" y="383.38" width="2.28" height="6.32" fill="#d64545" opacity="0.55" />
<rect x="415.01" y="383.38" width="2.28" height="6.18" fill="#d64545" opacity="0.55" />
<rect x="418.29" y="383.38" width="2.28" height="4.14" fill="#d64545" opacity="0.55" />
<rect x="421.56" y="383.38" width="2.28" height="2.73" fill="#d64545" opacity="0.55" />
<rect x="424.84" y="383.38" width="2.28" height="1.06" fill="#d64545" opacity="0.55" />
<rect x="428.11" y="382.98" width="2.28" height="0.40" fill="#2f9e44" opacity="0.55" />
<rect x="431.38" y="382.01" width="2.28" height="1.36" fill="#2f9e44" opacity="0.55" />
<rect x="434.66" y="381.70" width="2.28" height="1.67" fill="#2f9e44" opacity="0.55" />
<rect x="437.93" y="382.96" width="2.28" height="0.42" fill="#2f9e44" opacity="0.55" />
<rect x="441.21" y="383.38" width="2.28" height="1.47" fill="#d64545" opacity="0.55" />
<rect x="444.48" y="383.38" width="2.28" height="2.80" fill="#d64545" opacity="0.55" />
<rect x="447.75" y="383.38" width="2.28" height="2.99" fill="#d64545" opacity="0.55" />
<rect x="451.03" y="383.38" width="2.28" height="0.44" fill="#d64545" opacity="0.55" />
<rect x="454.30" y="381.55" width="2.28" height="1.83" fill="#2f9e44" opacity="0.55" />
<rect x="457.58" y="379.29" width="2.28" height="4.09" fill="#2f9e44" opacity="0.55" />
<rect x="460.85" y="378.45" width="2.28" height="4.93" fill="#2f9e44" opacity="0.55" />
<rect x="464.12" y="377.70" width="2.28" height="5.68" fill="#2f9e44" opacity="0.55" />
<rect x="467.40" y="376.91" width="2.28" height="6.46" fill="#2f9e44" opacity="0.55" />
<rect x="470.67" y="377.30" width="2.28" height="6.07" fill="#2f9e44" opacity="0.55" />
<rect x="473.95" y="378.57" width="2.28" height="4.81" fill="#2f9e44" opacity="0.55" />
<rect x="477.22" y="381.32" width="2.28" height="2.05" fill="#2f9e44" opacity="0.55" />
<rect x="480.50" y="383.38" width="2.28" height="0.07" fill="#d64545" opacity="0.55" />
<rect x="483.77" y="383.38" width="2.28" height="2.26" fill="#d64545" opacity="0.55" />
<rect x="487.04" y="383.38" width="2.28" height="5.08" fill="#d64545" opacity="0.55" />
<rect x="490.32" y="383.38" width="2.28" height="7.28" fill="#d64545" opacity="0.55" />
<rect x="493.59" y="383.38" width="2.28" height="7.82" fill="#d64545" opacity="0.55" />
<rect x="496.87" y="383.38" width="2.28" height="8.41" fill="#d64545" opacity="0.55" />
<rect x="500.14" y="383.38" width="2.28" height="8.70" fill="#d64545" opacity="0.55" />
<rect x="503.41" y="383.38" width="2.28" height="6.34" fill="#d64545" opacity="0.55" />
<rect x="506.69" y="383.38" width="2.28" height="5.71" fill="#d64545" opacity="0.55" />
<rect x="509.96" y="383.38" width="2.28" height="5.62" fill="#d64545" opacity="0.55" />
<rect x="513.24" y="383.38" width="2.28" height="7.57" fill="#d64545" opacity="0.55" />
<rect x="516.51" y="383.38" width="2.28" height="7.96" fill="#d64545" opacity="0.55" />
<rect x="519.79" y="383.38" width="2.28" height="8.19" fill="#d64545" opacity="0.55" />
<rect x="523.06" y="383.38" width="2.28" height="5.73" fill="#d64545" opacity="0.55" />
<rect x="526.33" y="383.38" width="2.28" height="3.26" fill="#d64545" opacity="0.55" />
<rect x="529.61" y="383.38" width="2.28" height="1.63" fill="#d64545" opacity="0.55" />
<rect x="532.88" y="382.40" width="2.28" height="0.97" fill="#2f9e44" opacity="0.55" />
<rect x="536.16" y="379.47" width="2.28" height="3.90" fill="#2f9e44" opacity="0.55" />
<rect x="539.43" y="376.94" width="2.28" height="6.44" fill="#2f9e44" opacity="0.55" />
<rect x="542.70" y="376.64" width="2.28" height="6.73" fill="#2f9e44" opacity="0.55" />
<rect x="545.98" y="375.93" width="2.28" height="7.44" fill="#2f9e44" opacity="0.55" />
<rect x="549.25" y="371.73" width="2.28" height="11.64" fill="#2f9e44" opacity="0.55" />
<rect x="552.53" y="368.59" width="2.28" height="14.79" fill="#2f9e44" opacity="0.55" />
<rect x="555.80" y="368.73" width="2.28" height="14.65" fill="#2f9e44" opacity="0.55" />
<rect x="559.07" y="370.68" width="2.28" height="12.70" fill="#2f9e44" opacity="0.55" />
<rect x="562.35" y="372.54" width="2.28" height="10.84" fill="#2f9e44" opacity="0.55" />
<rect x="565.62" y="373.84" width="2.28" height="9.53" fill="#2f9e44" opacity="0.55" />
<rect x="568.90" y="375.75" width="2.28" height="7.63" fill="#2f9e44" opacity="0.55" />
<rect x="572.17" y="379.96" width="2.28" height="3.42" fill="#2f9e44" opacity="0.55" />
<rect x="575.45" y="382.10" width="2.28" height="1.27" fill="#2f9e44" opacity="0.55" />
<rect x="578.72" y="380.14" width="2.28" height="3.24" fill="#2f9e44" opacity="0.55" />
<rect x="581.99" y="376.70" width="2.28" height="6.67" fill="#2f9e44" opacity="0.55" />
<rect x="585.27" y="375.11" width="2.28" height="8.26" fill="#2f9e44" opacity="0.55" />
<rect x="588.54" y="373.93" width="2.28" height="9.45" fill="#2f9e44" opacity="0.55" />
<rect x="591.82" y="375.22" width="2.28" height="8.16" fill="#2f9e44" opacity="0.55" />
<rect x="595.09" y="374.73" width="2.28" height="8.65" fill="#2f9e44" opacity="0.55" />
<rect x="598.36" y="374.45" width="2.28" height="8.92" fill="#2f9e44" opacity="0.55" />
<rect x="601.64" y="380.20" width="2.28" height="3.17" fill="#2f9e44" opacity="0.55" />
<rect x="604.91" y="383.38" width="2.28" height="0.06" fill="#d64545" opacity="0.55" />
<rect x="608.19" y="381.07" width="2.28" height="2.31" fill="#2f9e44" opacity="0.55" />
<rect x="611.46" y="379.60" width="2.28" height="3.77" fill="#2f9e44" opacity="0.55" />
<rect x="614.73" y="379.50" width="2.28" height="3.88" fill="#2f9e44" opacity="0.55" />
<rect x="618.01" y="380.98" width="2.28" height="2.39" fill="#2f9e44" opacity="0.55" />
<rect x="621.28" y="380.24" width="2.28" height="3.13" fill="#2f9e44" opacity="0.55" />
<rect x="624.56" y="381.87" width="2.28" height="1.51" fill="#2f9e44" opacity="0.55" />
<rect x="627.83" y="378.61" width="2.28" height="4.76" fill="#2f9e44" opacity="0.55" />
<rect x="631.11" y="376.19" width="2.28" height="7.18" fill="#2f9e44" opacity="0.55" />
<rect x="634.38" y="377.01" width="2.28" height="6.37" fill="#2f9e44" opacity="0.55" />
<rect x="637.65" y="379.68" width="2.28" height="3.69" fill="#2f9e44" opacity="0.55" />
<rect x="640.93" y="377.54" width="2.28" height="5.84" fill="#2f9e44" opacity="0.55" />
<rect x="644.20" y="371.92" width="2.28" height="11.46" fill="#2f9e44" opacity="0.55" />
<rect x="647.48" y="371.73" width="2.28" height="11.64" fill="#2f9e44" opacity="0.55" />
<rect x="650.75" y="374.41" width="2.28" height="8.96" fill="#2f9e44" opacity="0.55" />
<rect x="654.02" y="381.20" width="2.28" height="2.17" fill="#2f9e44" opacity="0.55" />
<rect x="657.30" y="382.65" width="2.28" height="0.73" fill="#2f9e44" opacity="0.55" />
<rect x="660.57" y="383.38" width="2.28" height="1.86" fill="#d64545" opacity="0.55" />
<rect x="663.85" y="383.38" width="2.28" height="5.02" fill="#d64545" opacity="0.55" />
<rect x="667.12" y="383.38" width="2.28" height="1.51" fill="#d64545" opacity="0.55" />
<rect x="670.40" y="382.95" width="2.28" height="0.42" fill="#2f9e44" opacity="0.55" />
<rect x="673.67" y="381.39" width="2.28" height="1.99" fill="#2f9e44" opacity="0.55" />
<rect x="676.94" y="382.86" width="2.28" height="0.52" fill="#2f9e44" opacity="0.55" />
<rect x="680.22" y="381.15" width="2.28" height="2.22" fill="#2f9e44" opacity="0.55" />
<rect x="683.49" y="380.27" width="2.28" height="3.11" fill="#2f9e44" opacity="0.55" />
<rect x="686.77" y="377.09" width="2.28" height="6.29" fill="#2f9e44" opacity="0.55" />
<rect x="690.04" y="377.09" width="2.28" height="6.29" fill="#2f9e44" opacity="0.55" />
<rect x="693.31" y="375.38" width="2.28" height="8.00" fill="#2f9e44" opacity="0.55" />
<rect x="696.59" y="373.13" width="2.28" height="10.25" fill="#2f9e44" opacity="0.55" />
<rect x="699.86" y="369.11" width="2.28" height="14.26" fill="#2f9e44" opacity="0.55" />
<rect x="703.14" y="368.38" width="2.28" height="15.00" fill="#2f9e44" opacity="0.55" />
<rect x="706.41" y="361.77" width="2.28" height="21.60" fill="#2f9e44" opacity="0.55" />
<rect x="709.68" y="362.59" width="2.28" height="20.78" fill="#2f9e44" opacity="0.55" />
<rect x="712.96" y="366.51" width="2.28" height="16.87" fill="#2f9e44" opacity="0.55" />
<rect x="716.23" y="369.05" width="2.28" height="14.33" fill="#2f9e44" opacity="0.55" />
<rect x="719.51" y="372.19" width="2.28" height="11.18" fill="#2f9e44" opacity="0.55" />
<rect x="722.78" y="374.16" width="2.28" height="9.22" fill="#2f9e44" opacity="0.55" />
<rect x="726.06" y="381.87" width="2.28" height="1.51" fill="#2f9e44" opacity="0.55" />
<rect x="729.33" y="383.38" width="2.28" height="11.97" fill="#d64545" opacity="0.55" />
<rect x="732.60" y="383.38" width="2.28" height="21.20" fill="#d64545" opacity="0.55" />
<rect x="735.88" y="383.38" width="2.28" height="25.79" fill="#d64545" opacity="0.55" />
<rect x="739.15" y="383.38" width="2.28" height="24.90" fill="#d64545" opacity="0.55" />
<rect x="742.43" y="383.38" width="2.28" height="24.70" fill="#d64545" opacity="0.55" />
<rect x="745.70" y="383.38" width="2.28" height="22.03" fill="#d64545" opacity="0.55" />
<rect x="748.97" y="383.38" width="2.28" height="20.62" fill="#d64545" opacity="0.55" />
<rect x="752.25" y="383.38" width="2.28" height="22.02" fill="#d64545" opacity="0.55" />
<rect x="755.52" y="383.38" width="2.28" height="23.50" fill="#d64545" opacity="0.55" />
<rect x="758.80" y="383.38" width="2.28" height="24.17" fill="#d64545" opacity="0.55" />
<rect x="762.07" y="383.38" width="2.28" height="25.10" fill="#d64545" opacity="0.55" />
<rect x="765.34" y="383.38" width="2.28" height="20.24" fill="#d64545" opacity="0.55" />
<rect x="768.62" y="383.38" width="2.28" height="14.95" fill="#d64545" opacity="0.55" />
<rect x="771.89" y="383.38" width="2.28" height="10.21" fill="#d64545" opacity="0.55" />
<rect x="775.17" y="383.38" width="2.28" height="2.61" fill="#d64545" opacity="0.55" />
<rect x="778.44" y="381.99" width="2.28" height="1.39" fill="#2f9e44" opacity="0.55" />
<rect x="781.72" y="383.17" width="2.28" height="0.20" fill="#2f9e44" opacity="0.55" />
<rect x="784.99" y="381.69" width="2.28" height="1.69" fill="#2f9e44" opacity="0.55" />
<rect x="788.26" y="377.61" width="2.28" height="5.76" fill="#2f9e44" opacity="0.55" />
<rect x="791.54" y="377.99" width="2.28" height="5.38" fill="#2f9e44" opacity="0.55" />
<rect x="794.81" y="374.31" width="2.28" height="9.07" fill="#2f9e44" opacity="0.55" />
<rect x="798.09" y="376.85" width="2.28" height="6.52" fill="#2f9e44" opacity="0.55" />
<rect x="801.36" y="382.19" width="2.28" height="1.19" fill="#2f9e44" opacity="0.55" />
<rect x="804.63" y="383.38" width="2.28" height="3.33" fill="#d64545" opacity="0.55" />
<rect x="807.91" y="383.38" width="2.28" height="6.96" fill="#d64545" opacity="0.55" />
<rect x="811.18" y="383.38" width="2.28" height="14.38" fill="#d64545" opacity="0.55" />
<rect x="814.46" y="383.38" width="2.28" height="19.20" fill="#d64545" opacity="0.55" />
<rect x="817.73" y="383.38" width="2.28" height="19.37" fill="#d64545" opacity="0.55" />
<rect x="821.01" y="383.38" width="2.28" height="18.43" fill="#d64545" opacity="0.55" />
<rect x="824.28" y="383.38" width="2.28" height="18.09" fill="#d64545" opacity="0.55" />
<rect x="827.55" y="383.38" width="2.28" height="17.10" fill="#d64545" opacity="0.55" />
<rect x="830.83" y="383.38" width="2.28" height="14.58" fill="#d64545" opacity="0.55" />
<rect x="834.10" y="383.38" width="2.28" height="11.62" fill="#d64545" opacity="0.55" />
<rect x="837.38" y="383.38" width="2.28" height="8.94" fill="#d64545" opacity="0.55" />
<rect x="840.65" y="383.38" width="2.28" height="3.71" fill="#d64545" opacity="0.55" />
<rect x="843.92" y="383.38" width="2.28" height="0.85" fill="#d64545" opacity="0.55" />
<rect x="847.20" y="383.38" width="2.28" height="6.06" fill="#d64545" opacity="0.55" />
<rect x="850.47" y="383.38" width="2.28" height="7.60" fill="#d64545" opacity="0.55" />
<rect x="853.75" y="383.38" width="2.28" height="1.62" fill="#d64545" opacity="0.55" />
<rect x="857.02" y="378.31" width="2.28" height="5.07" fill="#2f9e44" opacity="0.55" />
<rect x="860.29" y="370.83" width="2.28" height="12.55" fill="#2f9e44" opacity="0.55" />
<rect x="863.57" y="366.14" width="2.28" height="17.24" fill="#2f9e44" opacity="0.55" />
<rect x="866.84" y="366.62" width="2.28" height="16.76" fill="#2f9e44" opacity="0.55" />
<rect x="870.12" y="374.06" width="2.28" height="9.31" fill="#2f9e44" opacity="0.55" />
<rect x="873.39" y="382.80" width="2.28" height="0.58" fill="#2f9e44" opacity="0.55" />
<rect x="876.67" y="383.38" width="2.28" height="4.22" fill="#d64545" opacity="0.55" />
<rect x="879.94" y="383.38" width="2.28" height="7.00" fill="#d64545" opacity="0.55" />
<rect x="883.21" y="383.38" width="2.28" height="11.93" fill="#d64545" opacity="0.55" />
<rect x="886.49" y="383.38" width="2.28" height="17.34" fill="#d64545" opacity="0.55" />
<rect x="889.76" y="383.38" width="2.28" height="18.46" fill="#d64545" opacity="0.55" />
<rect x="893.04" y="383.38" width="2.28" height="16.35" fill="#d64545" opacity="0.55" />
<rect x="896.31" y="383.38" width="2.28" height="14.71" fill="#d64545" opacity="0.55" />
<rect x="899.58" y="383.38" width="2.28" height="14.58" fill="#d64545" opacity="0.55" />
<rect x="902.86" y="383.38" width="2.28" height="8.21" fill="#d64545" opacity="0.55" />
<polyline fill="none" stroke="#1f77b4" stroke-width="2" points="137.85,369.32 141.13,367.93 144.40,365.49 147.68,362.79 150.95,360.20 154.22,356.13 157.50,353.61 160.77,351.62 164.05,349.37 167.32,349.58 170.59,350.30 173.87,348.60 177.14,349.98 180.42,353.76 183.69,355.46 186.97,357.82 190.24,358.89 193.51,361.25 196.79,362.47 200.06,364.91 203.34,367.21 206.61,371.66 209.88,374.99 213.16,378.16 216.43,380.75 219.71,382.48 222.98,383.13 226.25,383.75 229.53,383.59 232.80,381.82 236.08,379.55 239.35,378.00 242.63,377.03 245.90,377.59 249.17,376.30 252.45,375.92 255.72,376.59 259.00,377.19 262.27,378.49 265.54,380.77 268.82,383.27 272.09,383.80 275.37,382.64 278.64,379.06 281.92,373.98 285.19,370.65 288.46,368.36 291.74,365.84 295.01,364.43 298.29,363.72 301.56,361.06 304.83,360.13 308.11,361.27 311.38,362.77 314.66,363.65 317.93,363.84 321.20,364.40 324.48,364.34 327.75,360.58 331.03,356.82 334.30,351.32 337.58,346.84 340.85,341.25 344.12,339.49 347.40,338.25 350.67,336.02 353.95,335.87 357.22,333.27 360.49,332.15 363.77,333.11 367.04,334.80 370.32,339.35 373.59,343.41 376.86,348.84 380.14,354.56 383.41,359.55 386.69,367.12 389.96,373.05 393.24,375.33 396.51,374.70 399.78,373.94 403.06,374.18 406.33,375.71 409.61,377.90 412.88,378.24 416.15,379.65 419.43,378.64 422.70,377.91 425.98,376.51 429.25,374.95 432.53,373.65 435.80,372.92 439.07,374.07 442.35,376.33 445.62,378.36 448.90,379.29 452.17,376.85 455.44,374.13 458.72,370.84 461.99,368.77 465.27,366.60 468.54,364.20 471.81,363.07 475.09,363.13 478.36,365.38 481.64,367.52 484.91,370.27 488.19,374.36 491.46,378.38 494.73,380.88 498.01,383.57 501.28,386.04 504.56,385.27 507.83,386.06 511.10,387.37 514.38,391.21 517.65,393.59 520.93,395.88 524.20,394.85 527.47,393.20 530.75,391.97 534.02,389.12 537.30,385.22 540.57,381.07 543.85,379.10 547.12,376.53 550.39,369.41 553.67,362.57 556.94,359.05 560.22,357.82 563.49,356.97 566.76,355.89 570.04,355.90 573.31,359.25 576.59,361.08 579.86,358.30 583.14,353.20 586.41,349.54 589.68,345.99 592.96,345.25 596.23,342.59 599.51,340.09 602.78,345.05 606.05,348.30 609.33,345.35 612.60,342.94 615.88,341.87 619.15,342.75 622.42,341.23 625.70,342.48 628.97,338.04 632.25,333.82 635.52,333.04 638.80,334.80 642.07,331.19 645.34,322.70 648.62,319.61 651.89,320.05 655.17,326.30 658.44,327.56 661.71,330.61 664.99,335.03 668.26,331.90 671.54,329.86 674.81,327.79 678.08,329.13 681.36,326.87 684.63,325.21 687.91,320.46 691.18,318.89 694.46,315.17 697.73,310.36 701.00,302.79 704.28,298.30 707.55,286.29 710.83,281.92 714.10,281.62 717.37,280.57 720.65,280.93 723.92,280.58 727.20,287.92 730.47,304.39 733.75,318.91 737.02,329.96 740.29,335.29 743.57,341.26 746.84,344.10 750.12,347.84 753.39,354.75 756.66,362.10 759.94,368.81 763.21,376.02 766.49,376.22 769.76,374.67 773.03,372.49 776.31,365.54 779.58,361.19 782.86,362.33 786.13,360.42 789.41,354.90 792.68,353.94 795.95,347.98 799.23,348.90 802.50,353.94 805.78,359.29 809.05,364.66 812.32,375.68 815.60,385.29 818.87,390.31 822.15,393.98 825.42,398.16 828.69,401.45 831.97,402.56 835.24,402.51 838.52,402.07 841.79,397.76 845.07,395.11 848.34,401.84 851.61,405.28 854.89,399.70 858.16,391.75 861.44,381.14 864.71,372.13 867.98,368.42 871.26,373.54 874.53,382.13 877.81,387.98 881.08,392.51 884.36,400.42 887.63,410.17 890.90,415.90 894.18,417.87 897.45,419.92 900.73,423.43 904.00,419.11" />
<polyline fill="none" stroke="#ff7f0e" stroke-width="2" points="137.85,369.32 141.13,369.04 144.40,368.33 147.68,367.22 150.95,365.82 154.22,363.88 157.50,361.83 160.77,359.79 164.05,357.70 167.32,356.08 170.59,354.92 173.87,353.66 177.14,352.92 180.42,353.09 183.69,353.56 186.97,354.41 190.24,355.31 193.51,356.50 196.79,357.69 200.06,359.13 203.34,360.75 206.61,362.93 209.88,365.34 213.16,367.91 216.43,370.48 219.71,372.88 222.98,374.93 226.25,376.69 229.53,378.07 232.80,378.82 236.08,378.97 239.35,378.77 242.63,378.42 245.90,378.26 249.17,377.87 252.45,377.48 255.72,377.30 259.00,377.28 262.27,377.52 265.54,378.17 268.82,379.19 272.09,380.11 275.37,380.62 278.64,380.31 281.92,379.04 285.19,377.36 288.46,375.56 291.74,373.62 295.01,371.78 298.29,370.17 301.56,368.35 304.83,366.70 308.11,365.61 311.38,365.05 314.66,364.77 317.93,364.58 321.20,364.54 324.48,364.50 327.75,363.72 331.03,362.34 334.30,360.13 337.58,357.47 340.85,354.23 344.12,351.28 347.40,348.68 350.67,346.14 353.95,344.09 357.22,341.92 360.49,339.97 363.77,338.60 367.04,337.84 370.32,338.14 373.59,339.19 376.86,341.12 380.14,343.81 383.41,346.96 386.69,350.99 389.96,355.40 393.24,359.39 396.51,362.45 399.78,364.75 403.06,366.63 406.33,368.45 409.61,370.34 412.88,371.92 416.15,373.47 419.43,374.50 422.70,375.18 425.98,375.45 429.25,375.35 432.53,375.01 435.80,374.59 439.07,374.49 442.35,374.85 445.62,375.55 448.90,376.30 452.17,376.41 455.44,375.95 458.72,374.93 461.99,373.70 465.27,372.28 468.54,370.67 471.81,369.15 475.09,367.94 478.36,367.43 481.64,367.45 484.91,368.01 488.19,369.28 491.46,371.10 494.73,373.06 498.01,375.16 501.28,377.34 504.56,378.92 507.83,380.35 511.10,381.76 514.38,383.65 517.65,385.64 520.93,387.68 524.20,389.12 527.47,389.93 530.75,390.34 534.02,390.10 537.30,389.12 540.57,387.51 543.85,385.83 547.12,383.97 550.39,381.06 553.67,377.36 556.94,373.70 560.22,370.52 563.49,367.81 566.76,365.43 570.04,363.52 573.31,362.67 576.59,362.35 579.86,361.54 583.14,359.87 586.41,357.81 589.68,355.44 592.96,353.40 596.23,351.24 599.51,349.01 602.78,348.22 606.05,348.23 609.33,347.66 612.60,346.71 615.88,345.75 619.15,345.15 622.42,344.36 625.70,343.99 628.97,342.80 632.25,341.00 635.52,339.41 638.80,338.49 642.07,337.03 645.34,334.16 648.62,331.25 651.89,329.01 655.17,328.47 658.44,328.29 661.71,328.75 664.99,330.01 668.26,330.38 671.54,330.28 674.81,329.78 678.08,329.65 681.36,329.10 684.63,328.32 687.91,326.75 691.18,325.18 694.46,323.18 697.73,320.61 701.00,317.05 704.28,313.30 707.55,307.90 710.83,302.70 714.10,298.48 717.37,294.90 720.65,292.11 723.92,289.80 727.20,289.43 730.47,292.42 733.75,297.72 737.02,304.17 740.29,310.39 743.57,316.56 746.84,322.07 750.12,327.23 753.39,332.73 756.66,338.61 759.94,344.65 763.21,350.92 766.49,355.98 769.76,359.72 773.03,362.27 776.31,362.93 779.58,362.58 782.86,362.53 786.13,362.11 789.41,360.67 792.68,359.32 795.95,357.05 799.23,355.42 802.50,355.13 805.78,355.96 809.05,357.70 812.32,361.29 815.60,366.09 818.87,370.94 822.15,375.54 825.42,380.07 828.69,384.34 831.97,387.99 835.24,390.89 838.52,393.13 841.79,394.05 845.07,394.27 848.34,395.78 851.61,397.68 854.89,398.08 858.16,396.82 861.44,393.68 864.71,389.37 867.98,385.18 871.26,382.85 874.53,382.71 877.81,383.76 881.08,385.51 884.36,388.49 887.63,392.83 890.90,397.44 894.18,401.53 897.45,405.21 900.73,408.85 904.00,410.90" />
<text x="754.00" y="290.00" font-size="13" font-family="Arial" fill="#1f77b4" text-anchor="start">MACD</text>
<text x="818.00" y="290.00" font-size="13" font-family="Arial" fill="#ff7f0e" text-anchor="start">Signal</text>
<line x1="56" y1="624" x2="904" y2="624" stroke="#cbd2d9" />
<line x1="56" y1="484" x2="56" y2="624" stroke="#cbd2d9" />
<text x="16.00" y="476.00" font-size="12" font-family="Arial" fill="#52606d" text-anchor="start">KD</text>
<line x1="56" y1="624.00" x2="904" y2="624.00" stroke="#edf2f7" />
<line x1="52" y1="624.00" x2="56" y2="624.00" stroke="#9fb3c8" />
<text x="48.00" y="628.00" font-size="11" font-family="Arial" fill="#52606d" text-anchor="end">-5.00</text>
<line x1="56" y1="577.33" x2="904" y2="577.33" stroke="#edf2f7" />
<line x1="52" y1="577.33" x2="56" y2="577.33" stroke="#9fb3c8" />
<text x="48.00" y="581.33" font-size="11" font-family="Arial" fill="#52606d" text-anchor="end">31.7</text>
<line x1="56" y1="530.67" x2="904" y2="530.67" stroke="#edf2f7" />
<line x1="52" y1="530.67" x2="56" y2="530.67" stroke="#9fb3c8" />
<text x="48.00" y="534.67" font-size="11" font-family="Arial" fill="#52606d" text-anchor="end">68.3</text>
<line x1="56" y1="484.00" x2="904" y2="484.00" stroke="#edf2f7" />
<line x1="52" y1="484.00" x2="56" y2="484.00" stroke="#9fb3c8" />
<text x="48.00" y="488.00" font-size="11" font-family="Arial" fill="#52606d" text-anchor="end">105</text>
<line x1="56.00" y1="624" x2="56.00" y2="628" stroke="#9fb3c8" />
<text x="56.00" y="642.00" font-size="11" font-family="Arial" fill="#52606d" text-anchor="middle">06/26</text>
<line x1="226.25" y1="624" x2="226.25" y2="628" stroke="#9fb3c8" />
<text x="226.25" y="642.00" font-size="11" font-family="Arial" fill="#52606d" text-anchor="middle">09/09</text>
<line x1="396.51" y1="624" x2="396.51" y2="628" stroke="#9fb3c8" />
<text x="396.51" y="642.00" font-size="11" font-family="Arial" fill="#52606d" text-anchor="middle">11/26</text>
<line x1="563.49" y1="624" x2="563.49" y2="628" stroke="#9fb3c8" />
<text x="563.49" y="642.00" font-size="11" font-family="Arial" fill="#52606d" text-anchor="middle">02/09</text>
<line x1="733.75" y1="624" x2="733.75" y2="628" stroke="#9fb3c8" />
<text x="733.75" y="642.00" font-size="11" font-family="Arial" fill="#52606d" text-anchor="middle">05/07</text>
<line x1="904.00" y1="624" x2="904.00" y2="628" stroke="#9fb3c8" />
<text x="904.00" y="642.00" font-size="11" font-family="Arial" fill="#52606d" text-anchor="middle">07/21</text>
<line x1="56" y1="592.18" x2="904" y2="592.18" stroke="#f0b429" stroke-dasharray="5 5" />
<text x="912.00" y="596.18" font-size="10" font-family="Arial" fill="#8d2b0b" text-anchor="start">20.0</text>
<line x1="56" y1="515.82" x2="904" y2="515.82" stroke="#f0b429" stroke-dasharray="5 5" />
<text x="912.00" y="519.82" font-size="10" font-family="Arial" fill="#8d2b0b" text-anchor="start">80.0</text>
<polyline fill="none" stroke="#2ca02c" stroke-width="2" points="82.19,539.52 85.47,527.34 88.74,518.79 92.02,520.81 95.29,522.36 98.56,515.29 101.84,519.87 105.11,524.28 108.39,516.69 111.66,519.92 114.93,536.79 118.21,552.24 121.48,559.35 124.76,570.15 128.03,565.18 131.31,558.25 134.58,558.77 137.85,542.57 141.13,529.19 144.40,523.45 147.68,514.66 150.95,511.73 154.22,506.32 157.50,504.49 160.77,502.34 164.05,503.18 167.32,512.10 170.59,524.87 173.87,521.42 177.14,536.78 180.42,563.73 183.69,570.13 186.97,579.54 190.24,578.10 193.51,586.13 196.79,585.06 200.06,591.95 203.34,597.42 206.61,603.32 209.88,605.02 213.16,609.23 216.43,607.40 219.71,602.84 222.98,593.12 226.25,587.56 229.53,574.14 232.80,557.60 236.08,541.86 239.35,536.55 242.63,534.19 245.90,541.91 249.17,536.43 252.45,537.98 255.72,548.83 259.00,562.29 262.27,567.87 265.54,581.53 268.82,592.38 272.09,587.75 275.37,571.60 278.64,549.16 281.92,529.56 285.19,524.56 288.46,522.03 291.74,516.32 295.01,514.12 298.29,517.81 301.56,510.40 304.83,512.72 308.11,528.68 311.38,542.24 314.66,546.89 317.93,544.14 321.20,543.77 324.48,541.39 327.75,525.53 331.03,514.79 334.30,508.74 337.58,504.60 340.85,499.86 344.12,504.85 347.40,507.68 350.67,503.84 353.95,506.42 357.22,504.10 360.49,505.58 363.77,517.91 367.04,528.31 370.32,551.56 373.59,567.06 376.86,583.92 380.14,594.31 383.41,601.25 386.69,602.81 389.96,603.28 393.24,593.01 396.51,571.28 399.78,555.12 403.06,542.41 406.33,540.85 409.61,544.74 412.88,539.44 416.15,542.27 419.43,533.22 422.70,532.43 425.98,525.48 429.25,515.54 432.53,513.21 435.80,520.14 439.07,537.21 442.35,558.72 445.62,578.36 448.90,582.17 452.17,560.85 455.44,544.42 458.72,526.40 461.99,519.69 465.27,510.98 468.54,505.05 471.81,503.92 475.09,508.43 478.36,527.16 481.64,550.79 484.91,568.83 488.19,585.10 491.46,593.97 494.73,595.94 498.01,600.28 501.28,604.18 504.56,591.07 507.83,587.61 511.10,590.78 514.38,598.58 517.65,596.98 520.93,599.89 524.20,581.94 527.47,564.67 530.75,554.49 534.02,537.96 537.30,523.13 540.57,514.81 543.85,515.32 547.12,510.46 550.39,503.76 553.67,503.48 556.94,509.86 560.22,518.73 563.49,525.19 566.76,526.84 570.04,529.92 573.31,544.56 576.59,560.84 579.86,546.44 583.14,530.83 586.41,522.46 589.68,523.96 592.96,529.73 596.23,526.15 599.51,521.12 602.78,536.85 606.05,547.42 609.33,537.06 612.60,533.20 615.88,532.08 619.15,536.46 622.42,530.14 625.70,533.57 628.97,521.46 632.25,512.17 635.52,513.52 638.80,525.71 642.07,513.93 645.34,509.17 648.62,513.17 651.89,521.20 655.17,539.50 658.44,544.60 661.71,552.30 664.99,561.73 668.26,547.24 671.54,537.00 674.81,527.67 678.08,528.81 681.36,519.71 684.63,515.82 687.91,513.70 691.18,515.68 694.46,510.15 697.73,505.67 701.00,507.81 704.28,513.99 707.55,506.11 710.83,511.47 714.10,519.56 717.37,521.52 720.65,523.21 723.92,521.73 727.20,541.37 730.47,566.79 733.75,581.38 737.02,587.36 740.29,583.86 743.57,583.58 746.84,578.98 750.12,577.95 753.39,582.18 756.66,584.17 759.94,587.29 763.21,593.83 766.49,584.35 769.76,573.56 773.03,563.69 776.31,543.72 779.58,536.64 782.86,541.43 786.13,538.55 789.41,526.65 792.68,528.19 795.95,525.01 799.23,538.91 802.50,556.39 805.78,561.20 809.05,566.09 812.32,581.92 815.60,589.31 818.87,590.03 822.15,590.20 825.42,591.01 828.69,589.28 831.97,579.88 835.24,570.92 838.52,557.92 841.79,543.11 845.07,543.61 848.34,568.29 851.61,576.56 854.89,559.07 858.16,540.46 861.44,524.16 864.71,514.41 867.98,515.33 871.26,532.31 874.53,552.94 877.81,564.83 881.08,577.34 884.36,589.68 887.63,593.25 890.90,593.17 894.18,589.83 897.45,587.11 900.73,585.31 904.00,565.28" />
<polyline fill="none" stroke="#d62728" stroke-width="2" points="82.19,549.17 85.47,541.89 88.74,534.19 92.02,529.73 95.29,527.27 98.56,523.28 101.84,522.14 105.11,522.86 108.39,520.80 111.66,520.51 114.93,525.93 118.21,534.70 121.48,542.92 124.76,552.00 128.03,556.39 131.31,557.01 134.58,557.60 137.85,552.59 141.13,544.79 144.40,537.68 147.68,530.00 150.95,523.91 154.22,518.05 157.50,513.53 160.77,509.80 164.05,507.59 167.32,509.09 170.59,514.35 173.87,516.71 177.14,523.40 180.42,536.85 183.69,547.94 186.97,558.47 190.24,565.01 193.51,572.05 196.79,576.39 200.06,581.58 203.34,586.86 206.61,592.35 209.88,596.57 213.16,600.79 216.43,602.99 219.71,602.94 222.98,599.67 226.25,595.63 229.53,588.47 232.80,578.18 236.08,566.07 239.35,556.23 242.63,548.88 245.90,546.56 249.17,543.18 252.45,541.45 255.72,543.91 259.00,550.04 262.27,555.98 265.54,564.50 268.82,573.79 272.09,578.44 275.37,576.16 278.64,567.16 281.92,554.63 285.19,544.61 288.46,537.08 291.74,530.16 295.01,524.81 298.29,522.48 301.56,518.45 304.83,516.54 308.11,520.59 311.38,527.80 314.66,534.17 317.93,537.49 321.20,539.58 324.48,540.19 327.75,535.30 331.03,528.47 334.30,521.89 337.58,516.13 340.85,510.70 344.12,508.75 347.40,508.40 350.67,506.88 353.95,506.72 357.22,505.85 360.49,505.76 363.77,509.81 367.04,515.98 370.32,527.84 373.59,540.91 376.86,555.25 380.14,568.27 383.41,579.26 386.69,587.11 389.96,592.50 393.24,592.67 396.51,585.54 399.78,575.40 403.06,564.40 406.33,556.55 409.61,552.61 412.88,548.22 416.15,546.24 419.43,541.90 422.70,538.74 425.98,534.32 429.25,528.06 432.53,523.11 435.80,522.12 439.07,527.15 442.35,537.67 445.62,551.23 448.90,561.55 452.17,561.31 455.44,555.68 458.72,545.92 461.99,537.18 465.27,528.45 468.54,520.65 471.81,515.07 475.09,512.86 478.36,517.62 481.64,528.68 484.91,542.06 488.19,556.41 491.46,568.93 494.73,577.93 498.01,585.38 501.28,591.65 504.56,591.46 507.83,590.17 511.10,590.38 514.38,593.11 517.65,594.40 520.93,596.23 524.20,591.47 527.47,582.54 530.75,573.19 534.02,561.44 537.30,548.67 540.57,537.38 543.85,530.03 547.12,523.51 550.39,516.92 553.67,512.44 556.94,511.58 560.22,513.97 563.49,517.71 566.76,520.75 570.04,523.81 573.31,530.72 576.59,540.76 579.86,542.65 583.14,538.71 586.41,533.30 589.68,530.18 592.96,530.03 596.23,528.74 599.51,526.20 602.78,529.75 606.05,535.64 609.33,536.11 612.60,535.14 615.88,534.12 619.15,534.90 622.42,533.31 625.70,533.40 628.97,529.42 632.25,523.67 635.52,520.29 638.80,522.10 642.07,519.37 645.34,515.97 648.62,515.04 651.89,517.09 655.17,524.56 658.44,531.24 661.71,538.26 664.99,546.08 668.26,546.47 671.54,543.31 674.81,538.10 678.08,535.00 681.36,529.91 684.63,525.21 687.91,521.37 691.18,519.47 694.46,516.36 697.73,512.80 701.00,511.14 704.28,512.09 707.55,510.10 710.83,510.55 714.10,513.56 717.37,516.21 720.65,518.54 723.92,519.60 727.20,526.86 730.47,540.17 733.75,553.91 737.02,565.06 740.29,571.33 743.57,575.41 746.84,576.60 750.12,577.05 753.39,578.76 756.66,580.57 759.94,582.81 763.21,586.48 766.49,585.77 769.76,581.70 773.03,575.70 776.31,565.04 779.58,555.57 782.86,550.86 786.13,546.76 789.41,540.05 792.68,536.10 795.95,532.40 799.23,534.57 802.50,541.85 805.78,548.30 809.05,554.23 812.32,563.46 815.60,572.08 818.87,578.06 822.15,582.11 825.42,585.08 828.69,586.48 831.97,584.28 835.24,579.82 838.52,572.52 841.79,562.72 845.07,556.35 848.34,560.33 851.61,565.74 854.89,563.52 858.16,555.83 861.44,545.28 864.71,534.99 867.98,528.43 871.26,529.73 874.53,537.46 877.81,546.59 881.08,556.84 884.36,567.78 887.63,576.27 890.90,581.90 894.18,584.54 897.45,585.40 900.73,585.37 904.00,578.67" />
<text x="824.00" y="502.00" font-size="13" font-family="Arial" fill="#2ca02c" text-anchor="start">K</text>
<text x="860.00" y="502.00" font-size="13" font-family="Arial" fill="#d62728" text-anchor="start">D</text>
</svg>