<svg xmlns="http://www.w3.org/2000/svg" width="960" height="680" viewBox="0 0 960 680"><rect width="100%" height="100%" fill="white" />
<text x="56.00" y="32.00" font-size="20" font-family="Arial" fill="#1f2933" text-anchor="start">富邦科技(0052) Technical Indicators</text>
<line x1="56" y1="220" x2="904" y2="220" stroke="#cbd2d9" />
<line x1="56" y1="58" x2="56" y2="220" stroke="#cbd2d9" />
<text x="16.00" y="50.00" font-size="12" font-family="Arial" fill="#52606d" text-anchor="start">RSI14</text>
<line x1="56" y1="220.00" x2="904" y2="220.00" stroke="#edf2f7" />
<line x1="52" y1="220.00" x2="56" y2="220.00" stroke="#9fb3c8" />
<text x="48.00" y="224.00" font-size="11" font-family="Arial" fill="#52606d" text-anchor="end">-5.00</text>
<line x1="56" y1="166.00" x2="904" y2="166.00" stroke="#edf2f7" />
<line x1="52" y1="166.00" x2="56" y2="166.00" stroke="#9fb3c8" />
<text x="48.00" y="170.00" font-size="11" font-family="Arial" fill="#52606d" text-anchor="end">31.7</text>
<line x1="56" y1="112.00" x2="904" y2="112.00" stroke="#edf2f7" />
<line x1="52" y1="112.00" x2="56" y2="112.00" stroke="#9fb3c8" />
<text x="48.00" y="116.00" font-size="11" font-family="Arial" fill="#52606d" text-anchor="end">68.3</text>
<line x1="56" y1="58.00" x2="904" y2="58.00" stroke="#edf2f7" />
<line x1="52" y1="58.00" x2="56" y2="58.00" stroke="#9fb3c8" />
<text x="48.00" y="62.00" font-size="11" font-family="Arial" fill="#52606d" text-anchor="end">105</text>
<line x1="56" y1="168.45" x2="904" y2="168.45" stroke="#f0b429" stroke-dasharray="5 5" />
<text x="912.00" y="172.45" font-size="10" font-family="Arial" fill="#8d2b0b" text-anchor="start">30.0</text>
<line x1="56" y1="109.55" x2="904" y2="109.55" stroke="#f0b429" stroke-dasharray="5 5" />
<text x="912.00" y="113.55" font-size="10" font-family="Arial" fill="#8d2b0b" text-anchor="start">70.0</text>
<polyline fill="none" stroke="#1f77b4" stroke-width="2" points="101.84,105.94 105.11,104.93 108.39,111.45 111.66,105.84 114.93,101.15 118.21,100.30 121.48,95.83 124.76,98.85 128.03,108.12 131.31,105.70 134.58,103.19 137.85,104.58 141.13,103.44 144.40,117.81 147.68,112.40 150.95,106.46 154.22,118.57 157.50,123.33 160.77,117.86 164.05,126.79 167.32,111.65 170.59,113.65 173.87,110.43 177.14,110.08 180.42,107.87 183.69,113.36 186.97,115.05 190.24,112.05 193.51,115.65 196.79,140.39 200.06,134.75 203.34,139.14 206.61,126.56 209.88,125.20 213.16,120.81 216.43,129.24 219.71,128.78 222.98,136.80 226.25,138.74 229.53,138.88 232.80,134.50 236.08,127.82 239.35,122.37 242.63,117.86 245.90,110.06 249.17,106.61 252.45,103.71 255.72,105.49 259.00,99.82 262.27,106.19 265.54,103.78 268.82,103.01 272.09,101.04 275.37,94.44 278.64,94.18 281.92,100.52 285.19,115.28 288.46,111.47 291.74,109.96 295.01,102.97 298.29,98.34 301.56,92.08 304.83,99.48 308.11,96.66 311.38,110.19 314.66,113.34 317.93,108.14 321.20,101.41 324.48,112.60 327.75,107.93 331.03,107.60 334.30,112.44 337.58,117.74 340.85,110.00 344.12,113.57 347.40,107.69 350.67,107.69 353.95,106.48 357.22,112.77 360.49,116.29 363.77,125.17 367.04,123.25 370.32,130.82 373.59,123.89 376.86,128.83 380.14,126.08 383.41,128.84 386.69,140.41 389.96,201.79 393.24,201.81 396.51,201.81 399.78,201.81 403.06,201.81 406.33,201.81 409.61,201.81 412.88,201.53 416.15,201.21 419.43,200.86 422.70,200.93 425.98,200.87 429.25,200.35 432.53,200.37 435.80,199.71 439.07,198.61 442.35,198.62 445.62,198.17 448.90,198.27 452.17,198.08 455.44,198.22 458.72,198.32 461.99,198.38 465.27,198.42 468.54,197.46 471.81,195.71 475.09,194.90 478.36,194.58 481.64,193.33 484.91,191.36 488.19,191.15 491.46,189.24 494.73,185.37 498.01,178.20 501.28,175.18 504.56,175.68 507.83,175.35 511.10,175.66 514.38,174.35 517.65,172.41 520.93,171.75 524.20,172.35 527.47,166.10 530.75,163.49 534.02,162.43 537.30,164.29 540.57,162.03 543.85,159.14 547.12,158.83 550.39,154.33 553.67,148.22 556.94,149.77 560.22,153.62 563.49,157.67 566.76,150.62 570.04,150.13 573.31,153.61 576.59,154.53 579.86,144.23 583.14,136.17 586.41,128.85 589.68,131.04 592.96,122.27 596.23,116.77 599.51,116.58 602.78,121.39 606.05,130.67 609.33,144.77 612.60,137.59 615.88,139.20 619.15,151.70 622.42,144.04 625.70,133.54 628.97,138.11 632.25,140.06 635.52,140.81 638.80,137.64 642.07,133.03 645.34,139.01 648.62,140.80 651.89,147.82 655.17,147.60 658.44,140.63 661.71,141.85 664.99,144.62 668.26,150.14 671.54,155.17 674.81,140.39 678.08,146.02 681.36,141.00 684.63,127.15 687.91,127.49 691.18,122.30 694.46,122.92 697.73,116.02 701.00,112.42 704.28,110.44 707.55,116.13 710.83,114.51 714.10,111.17 717.37,109.81 720.65,109.35 723.92,100.31 727.20,94.43 730.47,104.05 733.75,110.44 737.02,113.79 740.29,104.34 743.57,104.34 746.84,102.22 750.12,98.23 753.39,102.23 756.66,103.59 759.94,104.07 763.21,111.32 766.49,109.42 769.76,115.65 773.03,116.61 776.31,126.29 779.58,129.30 782.86,118.23 786.13,112.59 789.41,105.40 792.68,108.47 795.95,104.35 799.23,113.29 802.50,106.06 805.78,104.40 809.05,102.47 812.32,99.92 815.60,110.79 818.87,120.37 822.15,133.60 825.42,127.77 828.69,137.83 831.97,138.33 835.24,131.45 838.52,123.32 841.79,122.38 845.07,121.20 848.34,118.64 851.61,110.28 854.89,114.67 858.16,124.40 861.44,124.70 864.71,137.97 867.98,134.46 871.26,126.04 874.53,122.13 877.81,123.89 881.08,127.17 884.36,127.17 887.63,135.31 890.90,135.60 894.18,136.53 897.45,136.53 900.73,135.88 904.00,142.51" />
<text x="808.00" y="76.00" font-size="13" font-family="Arial" fill="#1f77b4" text-anchor="start">RSI14</text>
<line x1="56" y1="432" x2="904" y2="432" stroke="#cbd2d9" />
<line x1="56" y1="272" x2="56" y2="432" stroke="#cbd2d9" />
<text x="16.00" y="264.00" font-size="12" font-family="Arial" fill="#52606d" text-anchor="start">MACD</text>
<line x1="56" y1="432.00" x2="904" y2="432.00" stroke="#edf2f7" />
<line x1="52" y1="432.00" x2="56" y2="432.00" stroke="#9fb3c8" />
<text x="48.00" y="436.00" font-size="11" font-family="Arial" fill="#52606d" text-anchor="end">-61.3</text>
<line x1="56" y1="378.67" x2="904" y2="378.67" stroke="#edf2f7" />
<line x1="52" y1="378.67" x2="56" y2="378.67" stroke="#9fb3c8" />
<text x="48.00" y="382.67" font-size="11" font-family="Arial" fill="#52606d" text-anchor="end">-36.6</text>
<line x1="56" y1="325.33" x2="904" y2="325.33" stroke="#edf2f7" />
<line x1="52" y1="325.33" x2="56" y2="325.33" stroke="#9fb3c8" />
<text x="48.00" y="329.33" font-size="11" font-family="Arial" fill="#52606d" text-anchor="end">-11.9</text>
<line x1="56" y1="272.00" x2="904" y2="272.00" stroke="#edf2f7" />
<line x1="52" y1="272.00" x2="56" y2="272.00" stroke="#9fb3c8" />
<text x="48.00" y="276.00" font-size="11" font-family="Arial" fill="#52606d" text-anchor="end">12.8</text>
<line x1="56" y1="299.68" x2="904" y2="299.68" stroke="#9fb3c8" stroke-dasharray="4 4" />
<rect x="136.71" y="299.68" width="2.28" height="0.00" fill="#2f9e44" opacity="0.55" />
<rect x="139.99" y="299.65" width="2.28" height="0.03" fill="#2f9e44" opacity="0.55" />
<rect x="143.26" y="299.68" width="2.28" height="0.39" fill="#d64545" opacity="0.55" />
<rect x="146.53" y="299.68" width="2.28" height="0.41" fill="#d64545" opacity="0.55" />
<rect x="149.81" y="299.68" width="2.28" height="0.09" fill="#d64545" opacity="0.55" />
<rect x="153.08" y="299.68" width="2.28" height="0.32" fill="#d64545" opacity="0.55" />
<rect x="156.36" y="299.68" width="2.28" height="0.67" fill="#d64545" opacity="0.55" />
<rect x="159.63" y="299.68" width="2.28" height="0.62" fill="#d64545" opacity="0.55" />
<rect x="162.90" y="299.68" width="2.28" height="0.93" fill="#d64545" opacity="0.55" />
<rect x="166.18" y="299.68" width="2.28" height="0.17" fill="#d64545" opacity="0.55" />
<rect x="169.45" y="299.50" width="2.28" height="0.18" fill="#2f9e44" opacity="0.55" />
<rect x="172.73" y="299.10" width="2.28" height="0.57" fill="#2f9e44" opacity="0.55" />
<rect x="176.00" y="298.93" width="2.28" height="0.75" fill="#2f9e44" opacity="0.55" />
<rect x="179.28" y="298.75" width="2.28" height="0.92" fill="#2f9e44" opacity="0.55" />
<rect x="182.55" y="298.94" width="2.28" height="0.74" fill="#2f9e44" opacity="0.55" />
<rect x="185.82" y="299.22" width="2.28" height="0.46" fill="#2f9e44" opacity="0.55" />
<rect x="189.10" y="299.30" width="2.28" height="0.37" fill="#2f9e44" opacity="0.55" />
<rect x="192.37" y="299.56" width="2.28" height="0.12" fill="#2f9e44" opacity="0.55" />
<rect x="195.65" y="299.68" width="2.28" height="1.08" fill="#d64545" opacity="0.55" />
<rect x="198.92" y="299.68" width="2.28" height="1.56" fill="#d64545" opacity="0.55" />
<rect x="202.19" y="299.68" width="2.28" height="2.05" fill="#d64545" opacity="0.55" />
<rect x="205.47" y="299.68" width="2.28" height="1.61" fill="#d64545" opacity="0.55" />
<rect x="208.74" y="299.68" width="2.28" height="1.23" fill="#d64545" opacity="0.55" />
<rect x="212.02" y="299.68" width="2.28" height="0.69" fill="#d64545" opacity="0.55" />
<rect x="215.29" y="299.68" width="2.28" height="0.74" fill="#d64545" opacity="0.55" />
<rect x="218.57" y="299.68" width="2.28" height="0.76" fill="#d64545" opacity="0.55" />
<rect x="221.84" y="299.68" width="2.28" height="1.15" fill="#d64545" opacity="0.55" />
<rect x="225.11" y="299.68" width="2.28" height="1.48" fill="#d64545" opacity="0.55" />
<rect x="228.39" y="299.68" width="2.28" height="1.66" fill="#d64545" opacity="0.55" />
<rect x="231.66" y="299.68" width="2.28" height="1.53" fill="#d64545" opacity="0.55" />
<rect x="234.94" y="299.68" width="2.28" height="1.07" fill="#d64545" opacity="0.55" />
<rect x="238.21" y="299.68" width="2.28" height="0.45" fill="#d64545" opacity="0.55" />
<rect x="241.48" y="299.47" width="2.28" height="0.21" fill="#2f9e44" opacity="0.55" />
<rect x="244.76" y="298.52" width="2.28" height="1.15" fill="#2f9e44" opacity="0.55" />
<rect x="248.03" y="297.73" width="2.28" height="1.95" fill="#2f9e44" opacity="0.55" />
<rect x="251.31" y="297.10" width="2.28" height="2.58" fill="#2f9e44" opacity="0.55" />
<rect x="254.58" y="296.95" width="2.28" height="2.73" fill="#2f9e44" opacity="0.55" />
<rect x="257.85" y="296.49" width="2.28" height="3.19" fill="#2f9e44" opacity="0.55" />
<rect x="261.13" y="296.65" width="2.28" height="3.03" fill="#2f9e44" opacity="0.55" />
<rect x="264.40" y="296.75" width="2.28" height="2.93" fill="#2f9e44" opacity="0.55" />
<rect x="267.68" y="296.97" width="2.28" height="2.71" fill="#2f9e44" opacity="0.55" />
<rect x="270.95" y="297.14" width="2.28" height="2.54" fill="#2f9e44" opacity="0.55" />
<rect x="274.23" y="296.71" width="2.28" height="2.97" fill="#2f9e44" opacity="0.55" />
<rect x="277.50" y="296.65" width="2.28" height="3.02" fill="#2f9e44" opacity="0.55" />
<rect x="280.77" y="297.08" width="2.28" height="2.60" fill="#2f9e44" opacity="0.55" />
<rect x="284.05" y="298.12" width="2.28" height="1.55" fill="#2f9e44" opacity="0.55" />
<rect x="287.32" y="298.66" width="2.28" height="1.02" fill="#2f9e44" opacity="0.55" />
<rect x="290.60" y="299.03" width="2.28" height="0.64" fill="#2f9e44" opacity="0.55" />
<rect x="293.87" y="298.74" width="2.28" height="0.93" fill="#2f9e44" opacity="0.55" />
<rect x="297.14" y="298.17" width="2.28" height="1.51" fill="#2f9e44" opacity="0.55" />
<rect x="300.42" y="297.02" width="2.28" height="2.66" fill="#2f9e44" opacity="0.55" />
<rect x="303.69" y="296.88" width="2.28" height="2.80" fill="#2f9e44" opacity="0.55" />
<rect x="306.97" y="296.64" width="2.28" height="3.03" fill="#2f9e44" opacity="0.55" />
<rect x="310.24" y="297.43" width="2.28" height="2.25" fill="#2f9e44" opacity="0.55" />
<rect x="313.51" y="298.35" width="2.28" height="1.33" fill="#2f9e44" opacity="0.55" />
<rect x="316.79" y="298.55" width="2.28" height="1.13" fill="#2f9e44" opacity="0.55" />
<rect x="320.06" y="297.93" width="2.28" height="1.74" fill="#2f9e44" opacity="0.55" />
<rect x="323.34" y="298.42" width="2.28" height="1.26" fill="#2f9e44" opacity="0.55" />
<rect x="326.61" y="298.32" width="2.28" height="1.36" fill="#2f9e44" opacity="0.55" />
<rect x="329.89" y="298.44" width="2.28" height="1.24" fill="#2f9e44" opacity="0.55" />
<rect x="333.16" y="299.01" width="2.28" height="0.67" fill="#2f9e44" opacity="0.55" />
<rect x="336.43" y="299.68" width="2.28" height="0.19" fill="#d64545" opacity="0.55" />
<rect x="339.71" y="299.64" width="2.28" height="0.04" fill="#2f9e44" opacity="0.55" />
<rect x="342.98" y="299.68" width="2.28" height="0.19" fill="#d64545" opacity="0.55" />
<rect x="346.26" y="299.40" width="2.28" height="0.28" fill="#2f9e44" opacity="0.55" />
<rect x="349.53" y="299.28" width="2.28" height="0.40" fill="#2f9e44" opacity="0.55" />
<rect x="352.80" y="299.23" width="2.28" height="0.45" fill="#2f9e44" opacity="0.55" />
<rect x="356.08" y="299.68" width="2.28" height="0.04" fill="#d64545" opacity="0.55" />
<rect x="359.35" y="299.68" width="2.28" height="0.70" fill="#d64545" opacity="0.55" />
<rect x="362.63" y="299.68" width="2.28" height="1.74" fill="#d64545" opacity="0.55" />
<rect x="365.90" y="299.68" width="2.28" height="2.30" fill="#d64545" opacity="0.55" />
<rect x="369.18" y="299.68" width="2.28" height="3.13" fill="#d64545" opacity="0.55" />
<rect x="372.45" y="299.68" width="2.28" height="3.05" fill="#d64545" opacity="0.55" />
<rect x="375.72" y="299.68" width="2.28" height="3.29" fill="#d64545" opacity="0.55" />
<rect x="379.00" y="299.68" width="2.28" height="3.17" fill="#d64545" opacity="0.55" />
<rect x="382.27" y="299.68" width="2.28" height="3.21" fill="#d64545" opacity="0.55" />
<rect x="385.55" y="299.68" width="2.28" height="3.95" fill="#d64545" opacity="0.55" />
<rect x="388.82" y="299.68" width="2.28" height="32.96" fill="#d64545" opacity="0.55" />
<rect x="392.09" y="299.68" width="2.28" height="49.52" fill="#d64545" opacity="0.55" />
<rect x="395.37" y="299.68" width="2.28" height="57.22" fill="#d64545" opacity="0.55" />
<rect x="398.64" y="299.68" width="2.28" height="58.85" fill="#d64545" opacity="0.55" />
<rect x="401.92" y="299.68" width="2.28" height="56.44" fill="#d64545" opacity="0.55" />
<rect x="405.19" y="299.68" width="2.28" height="51.50" fill="#d64545" opacity="0.55" />
<rect x="408.46" y="299.68" width="2.28" height="45.11" fill="#d64545" opacity="0.55" />
<rect x="411.74" y="299.68" width="2.28" height="38.01" fill="#d64545" opacity="0.55" />
<rect x="415.01" y="299.68" width="2.28" height="30.75" fill="#d64545" opacity="0.55" />
<rect x="418.29" y="299.68" width="2.28" height="23.69" fill="#d64545" opacity="0.55" />
<rect x="421.56" y="299.68" width="2.28" height="17.21" fill="#d64545" opacity="0.55" />
<rect x="424.84" y="299.68" width="2.28" height="11.30" fill="#d64545" opacity="0.55" />
<rect x="428.11" y="299.68" width="2.28" height="5.98" fill="#d64545" opacity="0.55" />
<rect x="431.38" y="299.68" width="2.28" height="1.37" fill="#d64545" opacity="0.55" />
<rect x="434.66" y="297.04" width="2.28" height="2.63" fill="#2f9e44" opacity="0.55" />
<rect x="437.93" y="293.60" width="2.28" height="6.08" fill="#2f9e44" opacity="0.55" />
<rect x="441.21" y="290.80" width="2.28" height="8.87" fill="#2f9e44" opacity="0.55" />
<rect x="444.48" y="288.54" width="2.28" height="11.14" fill="#2f9e44" opacity="0.55" />
<rect x="447.75" y="286.85" width="2.28" height="12.83" fill="#2f9e44" opacity="0.55" />
<rect x="451.03" y="285.56" width="2.28" height="14.12" fill="#2f9e44" opacity="0.55" />
<rect x="454.30" y="284.72" width="2.28" height="14.96" fill="#2f9e44" opacity="0.55" />
<rect x="457.58" y="284.20" width="2.28" height="15.48" fill="#2f9e44" opacity="0.55" />
<rect x="460.85" y="283.93" width="2.28" height="15.75" fill="#2f9e44" opacity="0.55" />
<rect x="464.12" y="283.85" width="2.28" height="15.83" fill="#2f9e44" opacity="0.55" />
<rect x="467.40" y="283.87" width="2.28" height="15.80" fill="#2f9e44" opacity="0.55" />
<rect x="470.67" y="283.96" width="2.28" height="15.72" fill="#2f9e44" opacity="0.55" />
<rect x="473.95" y="284.16" width="2.28" height="15.52" fill="#2f9e44" opacity="0.55" />
<rect x="477.22" y="284.48" width="2.28" height="15.20" fill="#2f9e44" opacity="0.55" />
<rect x="480.50" y="284.86" width="2.28" height="14.82" fill="#2f9e44" opacity="0.55" />
<rect x="483.77" y="285.26" width="2.28" height="14.42" fill="#2f9e44" opacity="0.55" />
<rect x="487.04" y="285.76" width="2.28" height="13.92" fill="#2f9e44" opacity="0.55" />
<rect x="490.32" y="286.26" width="2.28" height="13.41" fill="#2f9e44" opacity="0.55" />
<rect x="493.59" y="286.72" width="2.28" height="12.96" fill="#2f9e44" opacity="0.55" />
<rect x="496.87" y="287.05" width="2.28" height="12.62" fill="#2f9e44" opacity="0.55" />
<rect x="500.14" y="287.44" width="2.28" height="12.24" fill="#2f9e44" opacity="0.55" />
<rect x="503.41" y="288.01" width="2.28" height="11.66" fill="#2f9e44" opacity="0.55" />
<rect x="506.69" y="288.64" width="2.28" height="11.04" fill="#2f9e44" opacity="0.55" />
<rect x="509.96" y="289.33" width="2.28" height="10.35" fill="#2f9e44" opacity="0.55" />
<rect x="513.24" y="289.99" width="2.28" height="9.69" fill="#2f9e44" opacity="0.55" />
<rect x="516.51" y="290.60" width="2.28" height="9.07" fill="#2f9e44" opacity="0.55" />
<rect x="519.79" y="291.21" width="2.28" height="8.47" fill="#2f9e44" opacity="0.55" />
<rect x="523.06" y="291.85" width="2.28" height="7.83" fill="#2f9e44" opacity="0.55" />
<rect x="526.33" y="292.32" width="2.28" height="7.36" fill="#2f9e44" opacity="0.55" />
<rect x="529.61" y="292.76" width="2.28" height="6.91" fill="#2f9e44" opacity="0.55" />
<rect x="532.88" y="293.21" width="2.28" height="6.47" fill="#2f9e44" opacity="0.55" />
<rect x="536.16" y="293.75" width="2.28" height="5.93" fill="#2f9e44" opacity="0.55" />
<rect x="539.43" y="294.21" width="2.28" height="5.47" fill="#2f9e44" opacity="0.55" />
<rect x="542.70" y="294.60" width="2.28" height="5.08" fill="#2f9e44" opacity="0.55" />
<rect x="545.98" y="294.99" width="2.28" height="4.69" fill="#2f9e44" opacity="0.55" />
<rect x="549.25" y="295.30" width="2.28" height="4.38" fill="#2f9e44" opacity="0.55" />
<rect x="552.53" y="295.51" width="2.28" height="4.17" fill="#2f9e44" opacity="0.55" />
<rect x="555.80" y="295.81" width="2.28" height="3.87" fill="#2f9e44" opacity="0.55" />
<rect x="559.07" y="296.21" width="2.28" height="3.46" fill="#2f9e44" opacity="0.55" />
<rect x="562.35" y="296.68" width="2.28" height="3.00" fill="#2f9e44" opacity="0.55" />
<rect x="565.62" y="296.95" width="2.28" height="2.73" fill="#2f9e44" opacity="0.55" />
<rect x="568.90" y="297.19" width="2.28" height="2.48" fill="#2f9e44" opacity="0.55" />
<rect x="572.17" y="297.50" width="2.28" height="2.18" fill="#2f9e44" opacity="0.55" />
<rect x="575.45" y="297.78" width="2.28" height="1.90" fill="#2f9e44" opacity="0.55" />
<rect x="578.72" y="297.86" width="2.28" height="1.82" fill="#2f9e44" opacity="0.55" />
<rect x="581.99" y="297.81" width="2.28" height="1.86" fill="#2f9e44" opacity="0.55" />
<rect x="585.27" y="297.70" width="2.28" height="1.98" fill="#2f9e44" opacity="0.55" />
<rect x="588.54" y="297.74" width="2.28" height="1.94" fill="#2f9e44" opacity="0.55" />
<rect x="591.82" y="297.64" width="2.28" height="2.04" fill="#2f9e44" opacity="0.55" />
<rect x="595.09" y="297.51" width="2.28" height="2.17" fill="#2f9e44" opacity="0.55" />
<rect x="598.36" y="297.52" width="2.28" height="2.15" fill="#2f9e44" opacity="0.55" />
<rect x="601.64" y="297.70" width="2.28" height="1.97" fill="#2f9e44" opacity="0.55" />
<rect x="604.91" y="298.06" width="2.28" height="1.62" fill="#2f9e44" opacity="0.55" />
<rect x="608.19" y="298.64" width="2.28" height="1.04" fill="#2f9e44" opacity="0.55" />
<rect x="611.46" y="298.91" width="2.28" height="0.77" fill="#2f9e44" opacity="0.55" />
<rect x="614.73" y="299.15" width="2.28" height="0.52" fill="#2f9e44" opacity="0.55" />
<rect x="618.01" y="299.63" width="2.28" height="0.04" fill="#2f9e44" opacity="0.55" />
<rect x="621.28" y="299.68" width="2.28" height="0.10" fill="#d64545" opacity="0.55" />
<rect x="624.56" y="299.61" width="2.28" height="0.06" fill="#2f9e44" opacity="0.55" />
<rect x="627.83" y="299.62" width="2.28" height="0.06" fill="#2f9e44" opacity="0.55" />
<rect x="631.11" y="299.68" width="2.28" height="0.00" fill="#d64545" opacity="0.55" />
<rect x="634.38" y="299.68" width="2.28" height="0.06" fill="#d64545" opacity="0.55" />
<rect x="637.65" y="299.68" width="2.28" height="0.02" fill="#d64545" opacity="0.55" />
<rect x="640.93" y="299.57" width="2.28" height="0.10" fill="#2f9e44" opacity="0.55" />
<rect x="644.20" y="299.63" width="2.28" height="0.05" fill="#2f9e44" opacity="0.55" />
<rect x="647.48" y="299.68" width="2.28" height="0.02" fill="#d64545" opacity="0.55" />
<rect x="650.75" y="299.68" width="2.28" height="0.23" fill="#d64545" opacity="0.55" />
<rect x="654.02" y="299.68" width="2.28" height="0.34" fill="#d64545" opacity="0.55" />
<rect x="657.30" y="299.68" width="2.28" height="0.27" fill="#d64545" opacity="0.55" />
<rect x="660.57" y="299.68" width="2.28" height="0.23" fill="#d64545" opacity="0.55" />
<rect x="663.85" y="299.68" width="2.28" height="0.25" fill="#d64545" opacity="0.55" />
<rect x="667.12" y="299.68" width="2.28" height="0.36" fill="#d64545" opacity="0.55" />
<rect x="670.40" y="299.68" width="2.28" height="0.52" fill="#d64545" opacity="0.55" />
<rect x="673.67" y="299.68" width="2.28" height="0.34" fill="#d64545" opacity="0.55" />
<rect x="676.94" y="299.68" width="2.28" height="0.32" fill="#d64545" opacity="0.55" />
<rect x="680.22" y="299.68" width="2.28" height="0.19" fill="#d64545" opacity="0.55" />
<rect x="683.49" y="299.45" width="2.28" height="0.23" fill="#2f9e44" opacity="0.55" />
<rect x="686.77" y="299.20" width="2.28" height="0.48" fill="#2f9e44" opacity="0.55" />
<rect x="690.04" y="298.93" width="2.28" height="0.75" fill="#2f9e44" opacity="0.55" />
<rect x="693.31" y="298.80" width="2.28" height="0.87" fill="#2f9e44" opacity="0.55" />
<rect x="696.59" y="298.58" width="2.28" height="1.10" fill="#2f9e44" opacity="0.55" />
<rect x="699.86" y="298.38" width="2.28" height="1.30" fill="#2f9e44" opacity="0.55" />
<rect x="703.14" y="298.26" width="2.28" height="1.42" fill="#2f9e44" opacity="0.55" />
<rect x="706.41" y="298.35" width="2.28" height="1.32" fill="#2f9e44" opacity="0.55" />
<rect x="709.68" y="298.45" width="2.28" height="1.23" fill="#2f9e44" opacity="0.55" />
<rect x="712.96" y="298.48" width="2.28" height="1.19" fill="#2f9e44" opacity="0.55" />
<rect x="716.23" y="298.54" width="2.28" height="1.13" fill="#2f9e44" opacity="0.55" />
<rect x="719.51" y="298.65" width="2.28" height="1.03" fill="#2f9e44" opacity="0.55" />
<rect x="722.78" y="298.47" width="2.28" height="1.21" fill="#2f9e44" opacity="0.55" />
<rect x="726.06" y="298.14" width="2.28" height="1.53" fill="#2f9e44" opacity="0.55" />
<rect x="729.33" y="298.20" width="2.28" height="1.48" fill="#2f9e44" opacity="0.55" />
<rect x="732.60" y="298.44" width="2.28" height="1.24" fill="#2f9e44" opacity="0.55" />
<rect x="735.88" y="298.75" width="2.28" height="0.93" fill="#2f9e44" opacity="0.55" />
<rect x="739.15" y="298.65" width="2.28" height="1.03" fill="#2f9e44" opacity="0.55" />
<rect x="742.43" y="298.68" width="2.28" height="1.00" fill="#2f9e44" opacity="0.55" />
<rect x="745.70" y="298.70" width="2.28" height="0.98" fill="#2f9e44" opacity="0.55" />
<rect x="748.97" y="298.60" width="2.28" height="1.07" fill="#2f9e44" opacity="0.55" />
<rect x="752.25" y="298.71" width="2.28" height="0.97" fill="#2f9e44" opacity="0.55" />
<rect x="755.52" y="298.90" width="2.28" height="0.78" fill="#2f9e44" opacity="0.55" />
<rect x="758.80" y="299.11" width="2.28" height="0.57" fill="#2f9e44" opacity="0.55" />
<rect x="762.07" y="299.43" width="2.28" height="0.25" fill="#2f9e44" opacity="0.55" />
<rect x="765.34" y="299.63" width="2.28" height="0.04" fill="#2f9e44" opacity="0.55" />
<rect x="768.62" y="299.68" width="2.28" height="0.23" fill="#d64545" opacity="0.55" />
<rect x="771.89" y="299.68" width="2.28" height="0.45" fill="#d64545" opacity="0.55" />
<rect x="775.17" y="299.68" width="2.28" height="0.76" fill="#d64545" opacity="0.55" />
<rect x="778.44" y="299.68" width="2.28" height="1.02" fill="#d64545" opacity="0.55" />
<rect x="781.72" y="299.68" width="2.28" height="0.90" fill="#d64545" opacity="0.55" />
<rect x="784.99" y="299.68" width="2.28" height="0.65" fill="#d64545" opacity="0.55" />
<rect x="788.26" y="299.68" width="2.28" height="0.24" fill="#d64545" opacity="0.55" />
<rect x="791.54" y="299.68" width="2.28" height="0.06" fill="#d64545" opacity="0.55" />
<rect x="794.81" y="299.49" width="2.28" height="0.18" fill="#2f9e44" opacity="0.55" />
<rect x="798.09" y="299.54" width="2.28" height="0.14" fill="#2f9e44" opacity="0.55" />
<rect x="801.36" y="299.33" width="2.28" height="0.35" fill="#2f9e44" opacity="0.55" />
<rect x="804.63" y="299.19" width="2.28" height="0.49" fill="#2f9e44" opacity="0.55" />
<rect x="807.91" y="299.08" width="2.28" height="0.60" fill="#2f9e44" opacity="0.55" />
<rect x="811.18" y="298.96" width="2.28" height="0.72" fill="#2f9e44" opacity="0.55" />
<rect x="814.46" y="299.15" width="2.28" height="0.52" fill="#2f9e44" opacity="0.55" />
<rect x="817.73" y="299.53" width="2.28" height="0.15" fill="#2f9e44" opacity="0.55" />
<rect x="821.01" y="299.68" width="2.28" height="0.44" fill="#d64545" opacity="0.55" />
<rect x="824.28" y="299.68" width="2.28" height="0.66" fill="#d64545" opacity="0.55" />
<rect x="827.55" y="299.68" width="2.28" height="1.07" fill="#d64545" opacity="0.55" />
<rect x="830.83" y="299.68" width="2.28" height="1.33" fill="#d64545" opacity="0.55" />
<rect x="834.10" y="299.68" width="2.28" height="1.26" fill="#d64545" opacity="0.55" />
<rect x="837.38" y="299.68" width="2.28" height="0.92" fill="#d64545" opacity="0.55" />
<rect x="840.65" y="299.68" width="2.28" height="0.66" fill="#d64545" opacity="0.55" />
<rect x="843.92" y="299.68" width="2.28" height="0.45" fill="#d64545" opacity="0.55" />
<rect x="847.20" y="299.68" width="2.28" height="0.25" fill="#d64545" opacity="0.55" />
<rect x="850.47" y="299.48" width="2.28" height="0.20" fill="#2f9e44" opacity="0.55" />
<rect x="853.75" y="299.33" width="2.28" height="0.35" fill="#2f9e44" opacity="0.55" />
<rect x="857.02" y="299.51" width="2.28" height="0.17" fill="#2f9e44" opacity="0.55" />
<rect x="860.29" y="299.67" width="2.28" height="0.01" fill="#2f9e44" opacity="0.55" />
<rect x="863.57" y="299.68" width="2.28" height="0.46" fill="#d64545" opacity="0.55" />
<rect x="866.84" y="299.68" width="2.28" height="0.66" fill="#d64545" opacity="0.55" />
<rect x="870.12" y="299.68" width="2.28" height="0.51" fill="#d64545" opacity="0.55" />
<rect x="873.39" y="299.68" width="2.28" height="0.27" fill="#d64545" opacity="0.55" />
<rect x="876.67" y="299.68" width="2.28" height="0.18" fill="#d64545" opacity="0.55" />
<rect x="879.94" y="299.68" width="2.28" height="0.22" fill="#d64545" opacity="0.55" />
<rect x="883.21" y="299.68" width="2.28" height="0.27" fill="#d64545" opacity="0.55" />
<rect x="886.49" y="299.68" width="2.28" height="0.50" fill="#d64545" opacity="0.55" />
<rect x="889.76" y="299.68" width="2.28" height="0.65" fill="#d64545" opacity="0.55" />
<rect x="893.04" y="299.68" width="2.28" height="0.76" fill="#d64545" opacity="0.55" />
<rect x="896.31" y="299.68" width="2.28" height="0.81" fill="#d64545" opacity="0.55" />
<rect x="899.58" y="299.68" width="2.28" height="0.81" fill="#d64545" opacity="0.55" />
<rect x="902.86" y="299.68" width="2.28" height="0.92" fill="#d64545" opacity="0.55" />
<polyline fill="none" stroke="#1f77b4" stroke-width="2" points="137.85,291.70 141.13,291.67 144.40,292.18 147.68,292.30 150.95,292.01 154.22,292.32 157.50,292.83 160.77,292.94 164.05,293.49 167.32,292.77 170.59,292.37 173.87,291.83 177.14,291.47 180.42,291.06 183.69,291.07 186.97,291.23 190.24,291.22 193.51,291.45 196.79,292.91 200.06,293.78 203.34,294.79 206.61,294.75 209.88,294.67 213.16,294.30 216.43,294.54 219.71,294.75 222.98,295.43 226.25,296.13 229.53,296.73 232.80,296.98 236.08,296.79 239.35,296.28 242.63,295.57 245.90,294.34 249.17,293.05 252.45,291.78 255.72,290.94 259.00,289.68 262.27,289.09 265.54,288.46 268.82,288.00 272.09,287.54 275.37,286.36 278.64,285.55 281.92,285.33 285.19,285.98 288.46,286.27 291.74,286.48 295.01,285.96 298.29,285.01 301.56,283.19 304.83,282.35 308.11,281.36 311.38,281.58 314.66,282.17 317.93,282.09 321.20,281.04 324.48,281.21 327.75,280.76 331.03,280.57 334.30,280.98 337.58,281.88 340.85,281.65 344.12,281.92 347.40,281.38 350.67,281.16 353.95,281.00 357.22,281.50 360.49,282.33 363.77,283.81 367.04,284.94 370.32,286.56 373.59,287.24 376.86,288.30 380.14,288.97 383.41,289.82 386.69,291.54 389.96,328.79 393.24,357.73 396.51,379.74 399.78,396.08 403.06,407.77 406.33,415.71 409.61,420.60 412.88,423.01 416.15,423.43 419.43,422.29 422.70,420.12 425.98,417.03 429.25,413.21 432.53,408.94 435.80,404.28 439.07,399.32 442.35,394.30 445.62,389.25 448.90,384.35 452.17,379.54 455.44,374.95 458.72,370.57 461.99,366.36 465.27,362.32 468.54,358.40 471.81,354.55 475.09,350.87 478.36,347.39 481.64,344.06 484.91,340.87 488.19,337.88 491.46,335.03 494.73,332.25 498.01,329.43 501.28,326.76 504.56,324.41 507.83,322.28 511.10,320.39 514.38,318.62 517.65,316.97 520.93,315.46 524.20,314.14 527.47,312.77 530.75,311.49 534.02,310.32 537.30,309.37 540.57,308.46 543.85,307.59 547.12,306.80 550.39,306.01 553.67,305.19 556.94,304.52 560.22,304.06 563.49,303.77 566.76,303.36 570.04,302.99 573.31,302.75 576.59,302.56 579.86,302.17 583.14,301.67 586.41,301.06 589.68,300.61 592.96,300.00 596.23,299.33 599.51,298.81 602.78,298.49 606.05,298.45 609.33,298.77 612.60,298.85 615.88,298.96 619.15,299.43 622.42,299.60 625.70,299.42 628.97,299.41 632.25,299.47 635.52,299.54 638.80,299.51 642.07,299.36 645.34,299.40 648.62,299.48 651.89,299.74 655.17,299.94 658.44,299.93 661.71,299.95 664.99,300.03 668.26,300.23 671.54,300.52 674.81,300.42 678.08,300.49 681.36,300.41 684.63,299.93 687.91,299.56 691.18,299.10 694.46,298.76 697.73,298.26 701.00,297.73 704.28,297.26 707.55,297.02 710.83,296.81 714.10,296.55 717.37,296.33 720.65,296.17 723.92,295.69 727.20,294.98 730.47,294.66 733.75,294.60 737.02,294.68 740.29,294.32 743.57,294.10 746.84,293.88 750.12,293.51 753.39,293.38 756.66,293.37 759.94,293.44 763.21,293.70 766.49,293.89 769.76,294.22 773.03,294.56 776.31,295.06 779.58,295.57 782.86,295.68 786.13,295.59 789.41,295.24 792.68,295.07 795.95,294.78 799.23,294.80 802.50,294.50 805.78,294.23 809.05,293.97 812.32,293.68 815.60,293.74 818.87,294.08 822.15,294.78 825.42,295.16 828.69,295.84 831.97,296.43 835.24,296.68 838.52,296.57 841.79,296.47 845.07,296.38 848.34,296.23 851.61,295.74 854.89,295.50 858.16,295.64 861.44,295.80 864.71,296.38 867.98,296.74 871.26,296.72 874.53,296.55 877.81,296.50 881.08,296.60 884.36,296.71 887.63,297.07 890.90,297.38 894.18,297.68 897.45,297.94 900.73,298.14 904.00,298.48" />
<polyline fill="none" stroke="#ff7f0e" stroke-width="2" points="137.85,291.70 141.13,291.70 144.40,291.79 147.68,291.89 150.95,291.92 154.22,292.00 157.50,292.16 160.77,292.32 164.05,292.55 167.32,292.60 170.59,292.55 173.87,292.41 177.14,292.22 180.42,291.99 183.69,291.80 186.97,291.69 190.24,291.60 193.51,291.57 196.79,291.84 200.06,292.22 203.34,292.74 206.61,293.14 209.88,293.45 213.16,293.62 216.43,293.80 219.71,293.99 222.98,294.28 226.25,294.65 229.53,295.07 232.80,295.45 236.08,295.72 239.35,295.83 242.63,295.78 245.90,295.49 249.17,295.00 252.45,294.36 255.72,293.67 259.00,292.88 262.27,292.12 265.54,291.39 268.82,290.71 272.09,290.07 275.37,289.33 278.64,288.58 281.92,287.93 285.19,287.54 288.46,287.28 291.74,287.12 295.01,286.89 298.29,286.51 301.56,285.85 304.83,285.15 308.11,284.39 311.38,283.83 314.66,283.50 317.93,283.21 321.20,282.78 324.48,282.46 327.75,282.12 331.03,281.81 334.30,281.65 337.58,281.69 340.85,281.68 344.12,281.73 347.40,281.66 350.67,281.56 353.95,281.45 357.22,281.46 360.49,281.63 363.77,282.07 367.04,282.64 370.32,283.43 373.59,284.19 376.86,285.01 380.14,285.80 383.41,286.61 386.69,287.59 389.96,295.83 393.24,308.21 396.51,322.52 399.78,337.23 403.06,351.34 406.33,364.21 409.61,375.49 412.88,384.99 416.15,392.68 419.43,398.60 422.70,402.91 425.98,405.73 429.25,407.23 432.53,407.57 435.80,406.91 439.07,405.39 442.35,403.17 445.62,400.39 448.90,397.18 452.17,393.65 455.44,389.91 458.72,386.04 461.99,382.11 465.27,378.15 468.54,374.20 471.81,370.27 475.09,366.39 478.36,362.59 481.64,358.89 484.91,355.28 488.19,351.80 491.46,348.45 494.73,345.21 498.01,342.05 501.28,338.99 504.56,336.08 507.83,333.32 511.10,330.73 514.38,328.31 517.65,326.04 520.93,323.93 524.20,321.97 527.47,320.13 530.75,318.40 534.02,316.78 537.30,315.30 540.57,313.93 543.85,312.66 547.12,311.49 550.39,310.40 553.67,309.35 556.94,308.39 560.22,307.52 563.49,306.77 566.76,306.09 570.04,305.47 573.31,304.93 576.59,304.45 579.86,304.00 583.14,303.53 586.41,303.04 589.68,302.55 592.96,302.04 596.23,301.50 599.51,300.96 602.78,300.47 606.05,300.06 609.33,299.80 612.60,299.61 615.88,299.48 619.15,299.47 622.42,299.50 625.70,299.48 628.97,299.47 632.25,299.47 635.52,299.48 638.80,299.49 642.07,299.46 645.34,299.45 648.62,299.45 651.89,299.51 655.17,299.60 658.44,299.66 661.71,299.72 664.99,299.78 668.26,299.87 671.54,300.00 674.81,300.09 678.08,300.17 681.36,300.22 684.63,300.16 687.91,300.04 691.18,299.85 694.46,299.63 697.73,299.36 701.00,299.03 704.28,298.68 707.55,298.35 710.83,298.04 714.10,297.74 717.37,297.46 720.65,297.20 723.92,296.90 727.20,296.52 730.47,296.14 733.75,295.84 737.02,295.60 740.29,295.35 743.57,295.10 746.84,294.85 750.12,294.59 753.39,294.34 756.66,294.15 759.94,294.01 763.21,293.95 766.49,293.94 769.76,293.99 773.03,294.11 776.31,294.30 779.58,294.55 782.86,294.78 786.13,294.94 789.41,295.00 792.68,295.01 795.95,294.97 799.23,294.93 802.50,294.85 805.78,294.72 809.05,294.57 812.32,294.39 815.60,294.26 818.87,294.23 822.15,294.34 825.42,294.50 828.69,294.77 831.97,295.10 835.24,295.42 838.52,295.65 841.79,295.81 845.07,295.93 848.34,295.99 851.61,295.94 854.89,295.85 858.16,295.81 861.44,295.81 864.71,295.92 867.98,296.08 871.26,296.21 874.53,296.28 877.81,296.32 881.08,296.38 884.36,296.45 887.63,296.57 890.90,296.73 894.18,296.92 897.45,297.12 900.73,297.33 904.00,297.56" />
<text x="754.00" y="290.00" font-size="13" font-family="Arial" fill="#1f77b4" text-anchor="start">MACD</text>
<text x="818.00" y="290.00" font-size="13" font-family="Arial" fill="#ff7f0e" text-anchor="start">Signal</text>
<line x1="56" y1="624" x2="904" y2="624" stroke="#cbd2d9" />
<line x1="56" y1="484" x2="56" y2="624" stroke="#cbd2d9" />
<text x="16.00" y="476.00" font-size="12" font-family="Arial" fill="#52606d" text-anchor="start">KD</text>
<line x1="56" y1="624.00" x2="904" y2="624.00" stroke="#edf2f7" />
<line x1="52" y1="624.00" x2="56" y2="624.00" stroke="#9fb3c8" />
<text x="48.00" y="628.00" font-size="11" font-family="Arial" fill="#52606d" text-anchor="end">-5.00</text>
<line x1="56" y1="577.33" x2="904" y2="577.33" stroke="#edf2f7" />
<line x1="52" y1="577.33" x2="56" y2="577.33" stroke="#9fb3c8" />
<text x="48.00" y="581.33" font-size="11" font-family="Arial" fill="#52606d" text-anchor="end">31.7</text>
<line x1="56" y1="530.67" x2="904" y2="530.67" stroke="#edf2f7" />
<line x1="52" y1="530.67" x2="56" y2="530.67" stroke="#9fb3c8" />
<text x="48.00" y="534.67" font-size="11" font-family="Arial" fill="#52606d" text-anchor="end">68.3</text>
<line x1="56" y1="484.00" x2="904" y2="484.00" stroke="#edf2f7" />
<line x1="52" y1="484.00" x2="56" y2="484.00" stroke="#9fb3c8" />
<text x="48.00" y="488.00" font-size="11" font-family="Arial" fill="#52606d" text-anchor="end">105</text>
<line x1="56.00" y1="624" x2="56.00" y2="628" stroke="#9fb3c8" />
<text x="56.00" y="642.00" font-size="11" font-family="Arial" fill="#52606d" text-anchor="middle">06/20</text>
<line x1="226.25" y1="624" x2="226.25" y2="628" stroke="#9fb3c8" />
<text x="226.25" y="642.00" font-size="11" font-family="Arial" fill="#52606d" text-anchor="middle">09/02</text>
<line x1="396.51" y1="624" x2="396.51" y2="628" stroke="#9fb3c8" />
<text x="396.51" y="642.00" font-size="11" font-family="Arial" fill="#52606d" text-anchor="middle">11/19</text>
<line x1="563.49" y1="624" x2="563.49" y2="628" stroke="#9fb3c8" />
<text x="563.49" y="642.00" font-size="11" font-family="Arial" fill="#52606d" text-anchor="middle">02/02</text>
<line x1="733.75" y1="624" x2="733.75" y2="628" stroke="#9fb3c8" />
<text x="733.75" y="642.00" font-size="11" font-family="Arial" fill="#52606d" text-anchor="middle">04/29</text>
<line x1="904.00" y1="624" x2="904.00" y2="628" stroke="#9fb3c8" />
<text x="904.00" y="642.00" font-size="11" font-family="Arial" fill="#52606d" text-anchor="middle">07/14</text>
<line x1="56" y1="592.18" x2="904" y2="592.18" stroke="#f0b429" stroke-dasharray="5 5" />
<text x="912.00" y="596.18" font-size="10" font-family="Arial" fill="#8d2b0b" text-anchor="start">20.0</text>
<line x1="56" y1="515.82" x2="904" y2="515.82" stroke="#f0b429" stroke-dasharray="5 5" />
<text x="912.00" y="519.82" font-size="10" font-family="Arial" fill="#8d2b0b" text-anchor="start">80.0</text>
<polyline fill="none" stroke="#2ca02c" stroke-width="2" points="82.19,553.19 85.47,549.53 88.74,560.62 92.02,590.24 95.29,623.41 98.56,624.47 101.84,616.33 105.11,607.86 108.39,610.71 111.66,598.72 114.93,583.88 118.21,573.54 121.48,562.80 124.76,557.29 128.03,567.39 131.31,569.62 134.58,566.24 137.85,567.18 141.13,580.01 144.40,607.82 147.68,628.41 150.95,618.08 154.22,629.79 157.50,645.67 160.77,640.82 164.05,653.38 167.32,622.26 170.59,604.28 173.87,588.74 177.14,577.65 180.42,567.45 183.69,565.08 186.97,568.20 190.24,564.87 193.51,588.29 196.79,620.69 200.06,632.35 203.34,647.45 206.61,632.68 209.88,619.38 213.16,600.71 216.43,601.28 219.71,600.72 222.98,613.35 226.25,627.95 229.53,638.61 232.80,648.66 236.08,640.02 239.35,621.09 242.63,601.38 245.90,581.16 249.17,568.63 252.45,555.53 255.72,548.77 259.00,541.80 262.27,541.79 265.54,540.42 268.82,540.88 272.09,544.08 275.37,543.38 278.64,544.46 281.92,549.75 285.19,572.68 288.46,583.03 291.74,586.91 295.01,576.57 298.29,563.97 301.56,551.25 304.83,547.36 308.11,540.85 311.38,545.11 314.66,553.51 317.93,551.30 321.20,544.82 324.48,551.46 327.75,552.49 331.03,556.28 334.30,563.78 337.58,574.38 340.85,565.56 344.12,564.16 347.40,560.95 350.67,561.14 353.95,557.83 357.22,562.90 360.49,570.22 363.77,585.67 367.04,603.17 370.32,626.90 373.59,627.05 376.86,635.26 380.14,634.61 383.41,638.50 386.69,648.34 389.96,638.27 393.24,631.49 396.51,626.98 399.78,623.97 403.06,621.96 406.33,620.62 409.61,619.73 412.88,619.08 416.15,615.83 419.43,603.60 422.70,629.96 425.98,645.53 429.25,639.94 432.53,641.41 435.80,625.14 439.07,603.31 442.35,594.23 445.62,583.15 448.90,587.52 452.17,589.20 455.44,608.81 458.72,624.79 461.99,639.59 465.27,647.84 468.54,646.70 471.81,634.49 475.09,621.32 478.36,607.33 481.64,591.03 484.91,575.47 488.19,564.28 491.46,554.88 494.73,546.07 498.01,540.29 501.28,532.46 504.56,530.52 507.83,529.14 511.10,530.92 514.38,529.92 517.65,529.52 520.93,530.46 524.20,549.99 527.47,551.18 530.75,550.50 534.02,547.58 537.30,553.81 540.57,562.07 543.85,561.41 547.12,562.28 550.39,556.72 553.67,550.98 556.94,554.34 560.22,571.30 563.49,595.24 566.76,600.45 570.04,602.84 573.31,614.78 576.59,622.86 579.86,608.06 583.14,584.89 586.41,566.04 589.68,559.25 592.96,546.54 596.23,538.04 599.51,532.12 602.78,531.37 606.05,544.42 609.33,575.25 612.60,589.26 615.88,601.12 619.15,608.24 622.42,605.20 625.70,589.78 628.97,584.28 632.25,582.58 635.52,579.46 638.80,572.49 642.07,558.87 645.34,559.02 648.62,574.74 651.89,601.80 655.17,617.98 658.44,614.87 661.71,615.43 664.99,621.65 668.26,629.36 671.54,638.45 674.81,618.62 678.08,617.98 681.36,606.67 684.63,579.70 687.91,562.21 691.18,547.65 694.46,539.13 697.73,530.96 701.00,527.56 704.28,522.56 707.55,524.02 710.83,527.47 714.10,523.16 717.37,518.14 720.65,523.77 723.92,512.64 727.20,509.85 730.47,514.96 733.75,523.33 737.02,531.57 740.29,518.87 743.57,510.42 746.84,507.56 750.12,503.11 753.39,504.17 756.66,506.09 759.94,507.78 763.21,515.29 766.49,519.49 769.76,539.69 773.03,551.74 776.31,573.07 779.58,587.35 782.86,574.52 786.13,551.62 789.41,533.88 792.68,526.32 795.95,518.74 799.23,522.04 802.50,512.07 805.78,510.38 809.05,506.55 812.32,502.05 815.60,510.84 818.87,528.57 822.15,547.82 825.42,552.16 828.69,567.46 831.97,575.95 835.24,572.75 838.52,558.41 841.79,544.15 845.07,526.22 848.34,514.96 851.61,508.22 854.89,508.72 858.16,516.21 861.44,526.59 864.71,556.17 867.98,570.10 871.26,563.96 874.53,551.77 877.81,545.96 881.08,546.32 884.36,540.00 887.63,549.11 890.90,555.67 894.18,563.23 897.45,574.40 900.73,580.58 904.00,580.81" />
<polyline fill="none" stroke="#d62728" stroke-width="2" points="82.19,553.73 85.47,552.33 88.74,555.09 92.02,566.81 95.29,585.67 98.56,598.61 101.84,604.51 105.11,605.63 108.39,607.32 111.66,604.45 114.93,597.59 118.21,589.58 121.48,580.65 124.76,572.86 128.03,571.04 131.31,570.57 134.58,569.12 137.85,568.48 141.13,572.32 144.40,584.15 147.68,598.90 150.95,605.30 154.22,613.46 157.50,624.20 160.77,629.74 164.05,637.62 167.32,632.50 170.59,623.09 173.87,611.64 177.14,600.31 180.42,589.36 183.69,581.26 186.97,576.91 190.24,572.90 193.51,578.03 196.79,592.25 200.06,605.61 203.34,619.56 206.61,623.93 209.88,622.41 213.16,615.18 216.43,610.55 219.71,607.27 222.98,609.30 226.25,615.51 229.53,623.21 232.80,631.69 236.08,634.47 239.35,630.01 242.63,620.47 245.90,607.36 249.17,594.45 252.45,581.48 255.72,570.57 259.00,560.98 262.27,554.58 265.54,549.86 268.82,546.87 272.09,545.94 275.37,545.09 278.64,544.88 281.92,546.50 285.19,555.23 288.46,564.50 291.74,571.97 295.01,573.50 298.29,570.32 301.56,563.97 304.83,558.43 308.11,552.57 311.38,550.08 314.66,551.23 317.93,551.25 321.20,549.11 324.48,549.89 327.75,550.76 331.03,552.60 334.30,556.33 337.58,562.34 340.85,563.42 344.12,563.67 347.40,562.76 350.67,562.22 353.95,560.76 357.22,561.47 360.49,564.39 363.77,571.48 367.04,582.04 370.32,596.99 373.59,607.01 376.86,616.43 380.14,622.49 383.41,627.82 386.69,634.66 389.96,635.86 393.24,634.41 396.51,631.93 399.78,629.28 403.06,626.84 406.33,624.76 409.61,623.09 412.88,621.75 416.15,619.78 419.43,614.39 422.70,619.58 425.98,628.23 429.25,632.13 432.53,635.23 435.80,631.86 439.07,622.35 442.35,612.97 445.62,603.03 448.90,597.86 452.17,594.97 455.44,599.59 458.72,607.99 461.99,618.52 465.27,628.29 468.54,634.43 471.81,634.45 475.09,630.08 478.36,622.49 481.64,612.00 484.91,599.83 488.19,587.98 491.46,576.94 494.73,566.65 498.01,557.86 501.28,549.40 504.56,543.10 507.83,538.45 511.10,535.94 514.38,533.93 517.65,532.46 520.93,531.80 524.20,537.86 527.47,542.30 530.75,545.04 534.02,545.88 537.30,548.53 540.57,553.04 543.85,555.83 547.12,557.98 550.39,557.56 553.67,555.37 556.94,555.03 560.22,560.45 563.49,572.05 566.76,581.52 570.04,588.62 573.31,597.34 576.59,605.85 579.86,606.59 583.14,599.35 586.41,588.25 589.68,578.58 592.96,567.90 596.23,557.95 599.51,549.34 602.78,543.35 606.05,543.70 609.33,554.22 612.60,565.90 615.88,577.64 619.15,587.84 622.42,593.63 625.70,592.34 628.97,589.66 632.25,587.30 635.52,584.68 638.80,580.62 642.07,573.37 645.34,568.58 648.62,570.64 651.89,581.03 655.17,593.34 658.44,600.52 661.71,605.49 664.99,610.88 668.26,617.04 671.54,624.17 674.81,622.32 678.08,620.88 681.36,616.14 684.63,603.99 687.91,590.06 691.18,575.92 694.46,563.66 697.73,552.76 701.00,544.36 704.28,537.09 707.55,532.74 710.83,530.98 714.10,528.37 717.37,524.96 720.65,524.57 723.92,520.59 727.20,517.01 730.47,516.33 733.75,518.66 737.02,522.96 740.29,521.60 743.57,517.87 746.84,514.44 750.12,510.66 753.39,508.50 756.66,507.70 759.94,507.73 763.21,510.25 766.49,513.33 769.76,522.11 773.03,531.99 776.31,545.68 779.58,559.57 782.86,564.55 786.13,560.24 789.41,551.46 792.68,543.08 795.95,534.96 799.23,530.65 802.50,524.46 805.78,519.77 809.05,515.36 812.32,510.92 815.60,510.89 818.87,516.79 822.15,527.13 825.42,535.47 828.69,546.14 831.97,556.07 835.24,561.63 838.52,560.56 841.79,555.09 845.07,545.47 848.34,535.30 851.61,526.27 854.89,520.42 858.16,519.02 861.44,521.54 864.71,533.08 867.98,545.42 871.26,551.60 874.53,551.66 877.81,549.76 881.08,548.61 884.36,545.74 887.63,546.87 890.90,549.80 894.18,554.28 897.45,560.99 900.73,567.52 904.00,571.95" />
<text x="824.00" y="502.00" font-size="13" font-family="Arial" fill="#2ca02c" text-anchor="start">K</text>
<text x="860.00" y="502.00" font-size="13" font-family="Arial" fill="#d62728" text-anchor="start">D</text>
</svg>