<svg xmlns="http://www.w3.org/2000/svg" width="960" height="680" viewBox="0 0 960 680"><rect width="100%" height="100%" fill="white" />
<text x="56.00" y="32.00" font-size="20" font-family="Arial" fill="#1f2933" text-anchor="start">廣達(2382) Technical Indicators</text>
<line x1="56" y1="220" x2="904" y2="220" stroke="#cbd2d9" />
<line x1="56" y1="58" x2="56" y2="220" stroke="#cbd2d9" />
<text x="16.00" y="50.00" font-size="12" font-family="Arial" fill="#52606d" text-anchor="start">RSI14</text>
<line x1="56" y1="220.00" x2="904" y2="220.00" stroke="#edf2f7" />
<line x1="52" y1="220.00" x2="56" y2="220.00" stroke="#9fb3c8" />
<text x="48.00" y="224.00" font-size="11" font-family="Arial" fill="#52606d" text-anchor="end">-5.00</text>
<line x1="56" y1="166.00" x2="904" y2="166.00" stroke="#edf2f7" />
<line x1="52" y1="166.00" x2="56" y2="166.00" stroke="#9fb3c8" />
<text x="48.00" y="170.00" font-size="11" font-family="Arial" fill="#52606d" text-anchor="end">31.7</text>
<line x1="56" y1="112.00" x2="904" y2="112.00" stroke="#edf2f7" />
<line x1="52" y1="112.00" x2="56" y2="112.00" stroke="#9fb3c8" />
<text x="48.00" y="116.00" font-size="11" font-family="Arial" fill="#52606d" text-anchor="end">68.3</text>
<line x1="56" y1="58.00" x2="904" y2="58.00" stroke="#edf2f7" />
<line x1="52" y1="58.00" x2="56" y2="58.00" stroke="#9fb3c8" />
<text x="48.00" y="62.00" font-size="11" font-family="Arial" fill="#52606d" text-anchor="end">105</text>
<line x1="56" y1="168.45" x2="904" y2="168.45" stroke="#f0b429" stroke-dasharray="5 5" />
<text x="912.00" y="172.45" font-size="10" font-family="Arial" fill="#8d2b0b" text-anchor="start">30.0</text>
<line x1="56" y1="109.55" x2="904" y2="109.55" stroke="#f0b429" stroke-dasharray="5 5" />
<text x="912.00" y="113.55" font-size="10" font-family="Arial" fill="#8d2b0b" text-anchor="start">70.0</text>
<polyline fill="none" stroke="#1f77b4" stroke-width="2" points="101.84,122.77 105.11,128.91 108.39,128.91 111.66,136.00 114.93,134.21 118.21,130.64 121.48,133.93 124.76,129.32 128.03,129.32 131.31,150.62 134.58,146.55 137.85,138.15 141.13,139.06 144.40,132.83 147.68,141.19 150.95,136.72 154.22,120.59 157.50,121.56 160.77,113.89 164.05,113.39 167.32,112.86 170.59,111.22 173.87,112.46 177.14,128.05 180.42,146.32 183.69,147.63 186.97,147.63 190.24,149.80 193.51,151.27 196.79,162.08 200.06,162.64 203.34,163.23 206.61,144.26 209.88,148.49 213.16,141.71 216.43,146.09 219.71,150.89 222.98,158.66 226.25,161.34 229.53,161.34 232.80,154.19 236.08,151.24 239.35,148.27 242.63,143.43 245.90,127.11 249.17,132.28 252.45,126.94 255.72,124.40 259.00,129.04 262.27,129.97 265.54,121.22 268.82,119.40 272.09,119.40 275.37,112.82 278.64,119.48 281.92,117.61 285.19,117.61 288.46,111.43 291.74,119.71 295.01,111.08 298.29,105.58 301.56,99.34 304.83,104.65 308.11,119.65 311.38,125.37 314.66,139.82 317.93,137.38 321.20,130.99 324.48,135.03 327.75,126.36 331.03,133.64 334.30,135.55 337.58,130.99 340.85,116.64 344.12,123.83 347.40,120.59 350.67,123.26 353.95,130.32 357.22,133.97 360.49,144.77 363.77,142.49 367.04,138.53 370.32,144.95 373.59,139.75 376.86,139.75 380.14,143.81 383.41,147.17 386.69,152.93 389.96,156.33 393.24,161.68 396.51,164.17 399.78,153.39 403.06,157.12 406.33,154.11 409.61,149.66 412.88,143.33 416.15,140.62 419.43,139.93 422.70,133.17 425.98,131.24 429.25,126.27 432.53,123.89 435.80,120.42 439.07,120.42 442.35,123.48 445.62,130.36 448.90,138.31 452.17,140.80 455.44,143.30 458.72,159.30 461.99,166.88 465.27,170.87 468.54,161.80 471.81,158.36 475.09,160.85 478.36,161.36 481.64,162.41 484.91,162.41 488.19,162.41 491.46,144.15 494.73,136.17 498.01,134.66 501.28,128.83 504.56,128.83 507.83,143.92 511.10,129.99 514.38,133.76 517.65,136.01 520.93,127.14 524.20,131.82 527.47,124.29 530.75,135.20 534.02,140.92 537.30,143.96 540.57,133.95 543.85,137.80 547.12,129.87 550.39,129.33 553.67,130.07 556.94,135.96 560.22,140.14 563.49,148.86 566.76,143.78 570.04,141.64 573.31,147.98 576.59,138.80 579.86,133.18 583.14,131.96 586.41,130.69 589.68,134.68 592.96,133.96 596.23,118.06 599.51,127.51 602.78,118.47 606.05,127.58 609.33,142.72 612.60,134.39 615.88,134.92 619.15,142.13 622.42,141.58 625.70,134.71 628.97,135.29 632.25,134.73 635.52,134.73 638.80,134.73 642.07,129.64 645.34,139.09 648.62,143.02 651.89,147.41 655.17,145.09 658.44,139.80 661.71,136.89 664.99,133.99 668.26,145.67 671.54,148.86 674.81,132.37 678.08,140.09 681.36,134.70 684.63,117.93 687.91,114.15 691.18,108.94 694.46,112.34 697.73,109.83 701.00,127.56 704.28,120.50 707.55,117.62 710.83,113.98 714.10,108.10 717.37,113.94 720.65,127.30 723.92,126.61 727.20,124.84 730.47,129.51 733.75,128.70 737.02,138.26 740.29,133.43 743.57,130.88 746.84,114.13 750.12,116.72 753.39,120.38 756.66,118.51 759.94,122.36 763.21,122.00 766.49,128.79 769.76,152.00 773.03,155.58 776.31,161.05 779.58,161.05 782.86,145.10 786.13,139.20 789.41,138.84 792.68,138.84 795.95,142.46 799.23,145.24 802.50,123.63 805.78,109.50 809.05,101.60 812.32,97.90 815.60,107.04 818.87,115.69 822.15,123.80 825.42,124.65 828.69,122.50 831.97,128.77 835.24,127.88 838.52,129.15 841.79,133.90 845.07,128.01 848.34,127.02 851.61,124.99 854.89,130.46 858.16,130.83 861.44,134.93 864.71,138.23 867.98,134.71 871.26,134.00 874.53,131.08 877.81,133.79 881.08,127.84 884.36,127.12 887.63,132.13 890.90,128.92 894.18,132.55 897.45,132.55 900.73,128.47 904.00,126.69" />
<text x="808.00" y="76.00" font-size="13" font-family="Arial" fill="#1f77b4" text-anchor="start">RSI14</text>
<line x1="56" y1="432" x2="904" y2="432" stroke="#cbd2d9" />
<line x1="56" y1="272" x2="56" y2="432" stroke="#cbd2d9" />
<text x="16.00" y="264.00" font-size="12" font-family="Arial" fill="#52606d" text-anchor="start">MACD</text>
<line x1="56" y1="432.00" x2="904" y2="432.00" stroke="#edf2f7" />
<line x1="52" y1="432.00" x2="56" y2="432.00" stroke="#9fb3c8" />
<text x="48.00" y="436.00" font-size="11" font-family="Arial" fill="#52606d" text-anchor="end">-8.15</text>
<line x1="56" y1="378.67" x2="904" y2="378.67" stroke="#edf2f7" />
<line x1="52" y1="378.67" x2="56" y2="378.67" stroke="#9fb3c8" />
<text x="48.00" y="382.67" font-size="11" font-family="Arial" fill="#52606d" text-anchor="end">1.81</text>
<line x1="56" y1="325.33" x2="904" y2="325.33" stroke="#edf2f7" />
<line x1="52" y1="325.33" x2="56" y2="325.33" stroke="#9fb3c8" />
<text x="48.00" y="329.33" font-size="11" font-family="Arial" fill="#52606d" text-anchor="end">11.8</text>
<line x1="56" y1="272.00" x2="904" y2="272.00" stroke="#edf2f7" />
<line x1="52" y1="272.00" x2="56" y2="272.00" stroke="#9fb3c8" />
<text x="48.00" y="276.00" font-size="11" font-family="Arial" fill="#52606d" text-anchor="end">21.7</text>
<line x1="56" y1="388.35" x2="904" y2="388.35" stroke="#9fb3c8" stroke-dasharray="4 4" />
<rect x="136.71" y="388.35" width="2.28" height="0.00" fill="#2f9e44" opacity="0.55" />
<rect x="139.99" y="388.35" width="2.28" height="0.29" fill="#d64545" opacity="0.55" />
<rect x="143.26" y="387.56" width="2.28" height="0.79" fill="#2f9e44" opacity="0.55" />
<rect x="146.53" y="388.35" width="2.28" height="0.07" fill="#d64545" opacity="0.55" />
<rect x="149.81" y="388.06" width="2.28" height="0.29" fill="#2f9e44" opacity="0.55" />
<rect x="153.08" y="383.88" width="2.28" height="4.47" fill="#2f9e44" opacity="0.55" />
<rect x="156.36" y="381.63" width="2.28" height="6.72" fill="#2f9e44" opacity="0.55" />
<rect x="159.63" y="378.17" width="2.28" height="10.19" fill="#2f9e44" opacity="0.55" />
<rect x="162.90" y="376.37" width="2.28" height="11.99" fill="#2f9e44" opacity="0.55" />
<rect x="166.18" y="375.73" width="2.28" height="12.63" fill="#2f9e44" opacity="0.55" />
<rect x="169.45" y="375.54" width="2.28" height="12.82" fill="#2f9e44" opacity="0.55" />
<rect x="172.73" y="376.35" width="2.28" height="12.00" fill="#2f9e44" opacity="0.55" />
<rect x="176.00" y="380.01" width="2.28" height="8.35" fill="#2f9e44" opacity="0.55" />
<rect x="179.28" y="386.80" width="2.28" height="1.56" fill="#2f9e44" opacity="0.55" />
<rect x="182.55" y="388.35" width="2.28" height="3.27" fill="#d64545" opacity="0.55" />
<rect x="185.82" y="388.35" width="2.28" height="6.25" fill="#d64545" opacity="0.55" />
<rect x="189.10" y="388.35" width="2.28" height="8.43" fill="#d64545" opacity="0.55" />
<rect x="192.37" y="388.35" width="2.28" height="9.79" fill="#d64545" opacity="0.55" />
<rect x="195.65" y="388.35" width="2.28" height="13.12" fill="#d64545" opacity="0.55" />
<rect x="198.92" y="388.35" width="2.28" height="14.73" fill="#d64545" opacity="0.55" />
<rect x="202.19" y="388.35" width="2.28" height="15.16" fill="#d64545" opacity="0.55" />
<rect x="205.47" y="388.35" width="2.28" height="11.36" fill="#d64545" opacity="0.55" />
<rect x="208.74" y="388.35" width="2.28" height="9.37" fill="#d64545" opacity="0.55" />
<rect x="212.02" y="388.35" width="2.28" height="6.20" fill="#d64545" opacity="0.55" />
<rect x="215.29" y="388.35" width="2.28" height="4.83" fill="#d64545" opacity="0.55" />
<rect x="218.57" y="388.35" width="2.28" height="4.82" fill="#d64545" opacity="0.55" />
<rect x="221.84" y="388.35" width="2.28" height="6.68" fill="#d64545" opacity="0.55" />
<rect x="225.11" y="388.35" width="2.28" height="8.23" fill="#d64545" opacity="0.55" />
<rect x="228.39" y="388.35" width="2.28" height="8.63" fill="#d64545" opacity="0.55" />
<rect x="231.66" y="388.35" width="2.28" height="7.08" fill="#d64545" opacity="0.55" />
<rect x="234.94" y="388.35" width="2.28" height="5.05" fill="#d64545" opacity="0.55" />
<rect x="238.21" y="388.35" width="2.28" height="2.82" fill="#d64545" opacity="0.55" />
<rect x="241.48" y="388.35" width="2.28" height="0.23" fill="#d64545" opacity="0.55" />
<rect x="244.76" y="383.16" width="2.28" height="5.19" fill="#2f9e44" opacity="0.55" />
<rect x="248.03" y="380.89" width="2.28" height="7.47" fill="#2f9e44" opacity="0.55" />
<rect x="251.31" y="378.32" width="2.28" height="10.03" fill="#2f9e44" opacity="0.55" />
<rect x="254.58" y="376.42" width="2.28" height="11.94" fill="#2f9e44" opacity="0.55" />
<rect x="257.85" y="376.59" width="2.28" height="11.76" fill="#2f9e44" opacity="0.55" />
<rect x="261.13" y="377.40" width="2.28" height="10.95" fill="#2f9e44" opacity="0.55" />
<rect x="264.40" y="376.20" width="2.28" height="12.15" fill="#2f9e44" opacity="0.55" />
<rect x="267.68" y="375.54" width="2.28" height="12.81" fill="#2f9e44" opacity="0.55" />
<rect x="270.95" y="375.80" width="2.28" height="12.56" fill="#2f9e44" opacity="0.55" />
<rect x="274.23" y="374.76" width="2.28" height="13.59" fill="#2f9e44" opacity="0.55" />
<rect x="277.50" y="375.90" width="2.28" height="12.45" fill="#2f9e44" opacity="0.55" />
<rect x="280.77" y="376.85" width="2.28" height="11.51" fill="#2f9e44" opacity="0.55" />
<rect x="284.05" y="378.15" width="2.28" height="10.20" fill="#2f9e44" opacity="0.55" />
<rect x="287.32" y="377.93" width="2.28" height="10.43" fill="#2f9e44" opacity="0.55" />
<rect x="290.60" y="379.69" width="2.28" height="8.67" fill="#2f9e44" opacity="0.55" />
<rect x="293.87" y="378.86" width="2.28" height="9.49" fill="#2f9e44" opacity="0.55" />
<rect x="297.14" y="376.99" width="2.28" height="11.37" fill="#2f9e44" opacity="0.55" />
<rect x="300.42" y="373.73" width="2.28" height="14.62" fill="#2f9e44" opacity="0.55" />
<rect x="303.69" y="373.57" width="2.28" height="14.79" fill="#2f9e44" opacity="0.55" />
<rect x="306.97" y="377.27" width="2.28" height="11.09" fill="#2f9e44" opacity="0.55" />
<rect x="310.24" y="381.68" width="2.28" height="6.67" fill="#2f9e44" opacity="0.55" />
<rect x="313.51" y="388.35" width="2.28" height="0.36" fill="#d64545" opacity="0.55" />
<rect x="316.79" y="388.35" width="2.28" height="4.40" fill="#d64545" opacity="0.55" />
<rect x="320.06" y="388.35" width="2.28" height="5.14" fill="#d64545" opacity="0.55" />
<rect x="323.34" y="388.35" width="2.28" height="6.67" fill="#d64545" opacity="0.55" />
<rect x="326.61" y="388.35" width="2.28" height="4.84" fill="#d64545" opacity="0.55" />
<rect x="329.89" y="388.35" width="2.28" height="5.61" fill="#d64545" opacity="0.55" />
<rect x="333.16" y="388.35" width="2.28" height="6.57" fill="#d64545" opacity="0.55" />
<rect x="336.43" y="388.35" width="2.28" height="5.72" fill="#d64545" opacity="0.55" />
<rect x="339.71" y="388.02" width="2.28" height="0.33" fill="#2f9e44" opacity="0.55" />
<rect x="342.98" y="386.37" width="2.28" height="1.99" fill="#2f9e44" opacity="0.55" />
<rect x="346.26" y="384.31" width="2.28" height="4.04" fill="#2f9e44" opacity="0.55" />
<rect x="349.53" y="384.18" width="2.28" height="4.17" fill="#2f9e44" opacity="0.55" />
<rect x="352.80" y="386.46" width="2.28" height="1.89" fill="#2f9e44" opacity="0.55" />
<rect x="356.08" y="388.35" width="2.28" height="0.93" fill="#d64545" opacity="0.55" />
<rect x="359.35" y="388.35" width="2.28" height="6.34" fill="#d64545" opacity="0.55" />
<rect x="362.63" y="388.35" width="2.28" height="8.97" fill="#d64545" opacity="0.55" />
<rect x="365.90" y="388.35" width="2.28" height="9.18" fill="#d64545" opacity="0.55" />
<rect x="369.18" y="388.35" width="2.28" height="11.10" fill="#d64545" opacity="0.55" />
<rect x="372.45" y="388.35" width="2.28" height="10.37" fill="#d64545" opacity="0.55" />
<rect x="375.72" y="388.35" width="2.28" height="9.53" fill="#d64545" opacity="0.55" />
<rect x="379.00" y="388.35" width="2.28" height="9.85" fill="#d64545" opacity="0.55" />
<rect x="382.27" y="388.35" width="2.28" height="10.67" fill="#d64545" opacity="0.55" />
<rect x="385.55" y="388.35" width="2.28" height="12.60" fill="#d64545" opacity="0.55" />
<rect x="388.82" y="388.35" width="2.28" height="14.42" fill="#d64545" opacity="0.55" />
<rect x="392.09" y="388.35" width="2.28" height="16.88" fill="#d64545" opacity="0.55" />
<rect x="395.37" y="388.35" width="2.28" height="18.56" fill="#d64545" opacity="0.55" />
<rect x="398.64" y="388.35" width="2.28" height="16.20" fill="#d64545" opacity="0.55" />
<rect x="401.92" y="388.35" width="2.28" height="15.16" fill="#d64545" opacity="0.55" />
<rect x="405.19" y="388.35" width="2.28" height="12.91" fill="#d64545" opacity="0.55" />
<rect x="408.46" y="388.35" width="2.28" height="9.65" fill="#d64545" opacity="0.55" />
<rect x="411.74" y="388.35" width="2.28" height="5.39" fill="#d64545" opacity="0.55" />
<rect x="415.01" y="388.35" width="2.28" height="1.58" fill="#d64545" opacity="0.55" />
<rect x="418.29" y="387.10" width="2.28" height="1.25" fill="#2f9e44" opacity="0.55" />
<rect x="421.56" y="383.50" width="2.28" height="4.85" fill="#2f9e44" opacity="0.55" />
<rect x="424.84" y="380.82" width="2.28" height="7.54" fill="#2f9e44" opacity="0.55" />
<rect x="428.11" y="378.01" width="2.28" height="10.35" fill="#2f9e44" opacity="0.55" />
<rect x="431.38" y="375.97" width="2.28" height="12.38" fill="#2f9e44" opacity="0.55" />
<rect x="434.66" y="374.22" width="2.28" height="14.13" fill="#2f9e44" opacity="0.55" />
<rect x="437.93" y="373.79" width="2.28" height="14.56" fill="#2f9e44" opacity="0.55" />
<rect x="441.21" y="374.76" width="2.28" height="13.59" fill="#2f9e44" opacity="0.55" />
<rect x="444.48" y="377.27" width="2.28" height="11.08" fill="#2f9e44" opacity="0.55" />
<rect x="447.75" y="380.98" width="2.28" height="7.37" fill="#2f9e44" opacity="0.55" />
<rect x="451.03" y="384.25" width="2.28" height="4.11" fill="#2f9e44" opacity="0.55" />
<rect x="454.30" y="387.06" width="2.28" height="1.29" fill="#2f9e44" opacity="0.55" />
<rect x="457.58" y="388.35" width="2.28" height="4.69" fill="#d64545" opacity="0.55" />
<rect x="460.85" y="388.35" width="2.28" height="10.96" fill="#d64545" opacity="0.55" />
<rect x="464.12" y="388.35" width="2.28" height="16.04" fill="#d64545" opacity="0.55" />
<rect x="467.40" y="388.35" width="2.28" height="16.65" fill="#d64545" opacity="0.55" />
<rect x="470.67" y="388.35" width="2.28" height="15.41" fill="#d64545" opacity="0.55" />
<rect x="473.95" y="388.35" width="2.28" height="14.59" fill="#d64545" opacity="0.55" />
<rect x="477.22" y="388.35" width="2.28" height="13.35" fill="#d64545" opacity="0.55" />
<rect x="480.50" y="388.35" width="2.28" height="12.05" fill="#d64545" opacity="0.55" />
<rect x="483.77" y="388.35" width="2.28" height="10.42" fill="#d64545" opacity="0.55" />
<rect x="487.04" y="388.35" width="2.28" height="8.63" fill="#d64545" opacity="0.55" />
<rect x="490.32" y="388.35" width="2.28" height="3.76" fill="#d64545" opacity="0.55" />
<rect x="493.59" y="386.91" width="2.28" height="1.44" fill="#2f9e44" opacity="0.55" />
<rect x="496.87" y="383.15" width="2.28" height="5.21" fill="#2f9e44" opacity="0.55" />
<rect x="500.14" y="379.47" width="2.28" height="8.88" fill="#2f9e44" opacity="0.55" />
<rect x="503.41" y="377.43" width="2.28" height="10.93" fill="#2f9e44" opacity="0.55" />
<rect x="506.69" y="379.61" width="2.28" height="8.74" fill="#2f9e44" opacity="0.55" />
<rect x="509.96" y="377.86" width="2.28" height="10.49" fill="#2f9e44" opacity="0.55" />
<rect x="513.24" y="378.04" width="2.28" height="10.32" fill="#2f9e44" opacity="0.55" />
<rect x="516.51" y="379.08" width="2.28" height="9.27" fill="#2f9e44" opacity="0.55" />
<rect x="519.79" y="377.75" width="2.28" height="10.61" fill="#2f9e44" opacity="0.55" />
<rect x="523.06" y="378.42" width="2.28" height="9.93" fill="#2f9e44" opacity="0.55" />
<rect x="526.33" y="377.10" width="2.28" height="11.26" fill="#2f9e44" opacity="0.55" />
<rect x="529.61" y="379.40" width="2.28" height="8.95" fill="#2f9e44" opacity="0.55" />
<rect x="532.88" y="382.85" width="2.28" height="5.50" fill="#2f9e44" opacity="0.55" />
<rect x="536.16" y="386.17" width="2.28" height="2.18" fill="#2f9e44" opacity="0.55" />
<rect x="539.43" y="385.66" width="2.28" height="2.70" fill="#2f9e44" opacity="0.55" />
<rect x="542.70" y="386.52" width="2.28" height="1.83" fill="#2f9e44" opacity="0.55" />
<rect x="545.98" y="384.80" width="2.28" height="3.56" fill="#2f9e44" opacity="0.55" />
<rect x="549.25" y="383.77" width="2.28" height="4.58" fill="#2f9e44" opacity="0.55" />
<rect x="552.53" y="383.59" width="2.28" height="4.77" fill="#2f9e44" opacity="0.55" />
<rect x="555.80" y="385.15" width="2.28" height="3.21" fill="#2f9e44" opacity="0.55" />
<rect x="559.07" y="387.38" width="2.28" height="0.97" fill="#2f9e44" opacity="0.55" />
<rect x="562.35" y="388.35" width="2.28" height="2.94" fill="#d64545" opacity="0.55" />
<rect x="565.62" y="388.35" width="2.28" height="4.10" fill="#d64545" opacity="0.55" />
<rect x="568.90" y="388.35" width="2.28" height="4.16" fill="#d64545" opacity="0.55" />
<rect x="572.17" y="388.35" width="2.28" height="5.72" fill="#d64545" opacity="0.55" />
<rect x="575.45" y="388.35" width="2.28" height="4.22" fill="#d64545" opacity="0.55" />
<rect x="578.72" y="388.35" width="2.28" height="1.53" fill="#d64545" opacity="0.55" />
<rect x="581.99" y="387.80" width="2.28" height="0.56" fill="#2f9e44" opacity="0.55" />
<rect x="585.27" y="386.19" width="2.28" height="2.16" fill="#2f9e44" opacity="0.55" />
<rect x="588.54" y="386.18" width="2.28" height="2.18" fill="#2f9e44" opacity="0.55" />
<rect x="591.82" y="386.14" width="2.28" height="2.21" fill="#2f9e44" opacity="0.55" />
<rect x="595.09" y="381.65" width="2.28" height="6.70" fill="#2f9e44" opacity="0.55" />
<rect x="598.36" y="381.29" width="2.28" height="7.07" fill="#2f9e44" opacity="0.55" />
<rect x="601.64" y="378.25" width="2.28" height="10.10" fill="#2f9e44" opacity="0.55" />
<rect x="604.91" y="379.18" width="2.28" height="9.17" fill="#2f9e44" opacity="0.55" />
<rect x="608.19" y="384.97" width="2.28" height="3.39" fill="#2f9e44" opacity="0.55" />
<rect x="611.46" y="385.98" width="2.28" height="2.37" fill="#2f9e44" opacity="0.55" />
<rect x="614.73" y="387.04" width="2.28" height="1.32" fill="#2f9e44" opacity="0.55" />
<rect x="618.01" y="388.35" width="2.28" height="1.93" fill="#d64545" opacity="0.55" />
<rect x="621.28" y="388.35" width="2.28" height="3.81" fill="#d64545" opacity="0.55" />
<rect x="624.56" y="388.35" width="2.28" height="2.68" fill="#d64545" opacity="0.55" />
<rect x="627.83" y="388.35" width="2.28" height="2.11" fill="#d64545" opacity="0.55" />
<rect x="631.11" y="388.35" width="2.28" height="1.57" fill="#d64545" opacity="0.55" />
<rect x="634.38" y="388.35" width="2.28" height="1.24" fill="#d64545" opacity="0.55" />
<rect x="637.65" y="388.35" width="2.28" height="1.07" fill="#d64545" opacity="0.55" />
<rect x="640.93" y="387.98" width="2.28" height="0.37" fill="#2f9e44" opacity="0.55" />
<rect x="644.20" y="388.35" width="2.28" height="1.06" fill="#d64545" opacity="0.55" />
<rect x="647.48" y="388.35" width="2.28" height="3.01" fill="#d64545" opacity="0.55" />
<rect x="650.75" y="388.35" width="2.28" height="5.36" fill="#d64545" opacity="0.55" />
<rect x="654.02" y="388.35" width="2.28" height="6.11" fill="#d64545" opacity="0.55" />
<rect x="657.30" y="388.35" width="2.28" height="5.12" fill="#d64545" opacity="0.55" />
<rect x="660.57" y="388.35" width="2.28" height="3.59" fill="#d64545" opacity="0.55" />
<rect x="663.85" y="388.35" width="2.28" height="1.80" fill="#d64545" opacity="0.55" />
<rect x="667.12" y="388.35" width="2.28" height="3.35" fill="#d64545" opacity="0.55" />
<rect x="670.40" y="388.35" width="2.28" height="5.02" fill="#d64545" opacity="0.55" />
<rect x="673.67" y="388.35" width="2.28" height="1.72" fill="#d64545" opacity="0.55" />
<rect x="676.94" y="388.35" width="2.28" height="1.62" fill="#d64545" opacity="0.55" />
<rect x="680.22" y="388.30" width="2.28" height="0.06" fill="#2f9e44" opacity="0.55" />
<rect x="683.49" y="380.93" width="2.28" height="7.42" fill="#2f9e44" opacity="0.55" />
<rect x="686.77" y="374.85" width="2.28" height="13.50" fill="#2f9e44" opacity="0.55" />
<rect x="690.04" y="368.90" width="2.28" height="19.46" fill="#2f9e44" opacity="0.55" />
<rect x="693.31" y="367.14" width="2.28" height="21.22" fill="#2f9e44" opacity="0.55" />
<rect x="696.59" y="365.93" width="2.28" height="22.43" fill="#2f9e44" opacity="0.55" />
<rect x="699.86" y="371.50" width="2.28" height="16.86" fill="#2f9e44" opacity="0.55" />
<rect x="703.14" y="372.69" width="2.28" height="15.66" fill="#2f9e44" opacity="0.55" />
<rect x="706.41" y="372.99" width="2.28" height="15.36" fill="#2f9e44" opacity="0.55" />
<rect x="709.68" y="372.25" width="2.28" height="16.11" fill="#2f9e44" opacity="0.55" />
<rect x="712.96" y="369.21" width="2.28" height="19.15" fill="#2f9e44" opacity="0.55" />
<rect x="716.23" y="370.40" width="2.28" height="17.95" fill="#2f9e44" opacity="0.55" />
<rect x="719.51" y="376.96" width="2.28" height="11.39" fill="#2f9e44" opacity="0.55" />
<rect x="722.78" y="381.78" width="2.28" height="6.57" fill="#2f9e44" opacity="0.55" />
<rect x="726.06" y="384.76" width="2.28" height="3.59" fill="#2f9e44" opacity="0.55" />
<rect x="729.33" y="388.35" width="2.28" height="0.48" fill="#d64545" opacity="0.55" />
<rect x="732.60" y="388.35" width="2.28" height="3.14" fill="#d64545" opacity="0.55" />
<rect x="735.88" y="388.35" width="2.28" height="8.36" fill="#d64545" opacity="0.55" />
<rect x="739.15" y="388.35" width="2.28" height="9.76" fill="#d64545" opacity="0.55" />
<rect x="742.43" y="388.35" width="2.28" height="9.53" fill="#d64545" opacity="0.55" />
<rect x="745.70" y="388.35" width="2.28" height="0.58" fill="#d64545" opacity="0.55" />
<rect x="748.97" y="384.56" width="2.28" height="3.80" fill="#2f9e44" opacity="0.55" />
<rect x="752.25" y="383.62" width="2.28" height="4.74" fill="#2f9e44" opacity="0.55" />
<rect x="755.52" y="382.68" width="2.28" height="5.68" fill="#2f9e44" opacity="0.55" />
<rect x="758.80" y="384.02" width="2.28" height="4.34" fill="#2f9e44" opacity="0.55" />
<rect x="762.07" y="385.36" width="2.28" height="2.99" fill="#2f9e44" opacity="0.55" />
<rect x="765.34" y="388.35" width="2.28" height="0.51" fill="#d64545" opacity="0.55" />
<rect x="768.62" y="388.35" width="2.28" height="12.87" fill="#d64545" opacity="0.55" />
<rect x="771.89" y="388.35" width="2.28" height="22.41" fill="#d64545" opacity="0.55" />
<rect x="775.17" y="388.35" width="2.28" height="31.01" fill="#d64545" opacity="0.55" />
<rect x="778.44" y="388.35" width="2.28" height="35.07" fill="#d64545" opacity="0.55" />
<rect x="781.72" y="388.35" width="2.28" height="29.85" fill="#d64545" opacity="0.55" />
<rect x="784.99" y="388.35" width="2.28" height="22.44" fill="#d64545" opacity="0.55" />
<rect x="788.26" y="388.35" width="2.28" height="16.54" fill="#d64545" opacity="0.55" />
<rect x="791.54" y="388.35" width="2.28" height="12.05" fill="#d64545" opacity="0.55" />
<rect x="794.81" y="388.35" width="2.28" height="10.17" fill="#d64545" opacity="0.55" />
<rect x="798.09" y="388.35" width="2.28" height="9.67" fill="#d64545" opacity="0.55" />
<rect x="801.36" y="386.78" width="2.28" height="1.57" fill="#2f9e44" opacity="0.55" />
<rect x="804.63" y="368.36" width="2.28" height="19.99" fill="#2f9e44" opacity="0.55" />
<rect x="807.91" y="348.34" width="2.28" height="40.01" fill="#2f9e44" opacity="0.55" />
<rect x="811.18" y="332.38" width="2.28" height="55.97" fill="#2f9e44" opacity="0.55" />
<rect x="814.46" y="330.02" width="2.28" height="58.34" fill="#2f9e44" opacity="0.55" />
<rect x="817.73" y="336.60" width="2.28" height="51.76" fill="#2f9e44" opacity="0.55" />
<rect x="821.01" y="348.73" width="2.28" height="39.62" fill="#2f9e44" opacity="0.55" />
<rect x="824.28" y="359.52" width="2.28" height="28.83" fill="#2f9e44" opacity="0.55" />
<rect x="827.55" y="366.59" width="2.28" height="21.76" fill="#2f9e44" opacity="0.55" />
<rect x="830.83" y="376.46" width="2.28" height="11.89" fill="#2f9e44" opacity="0.55" />
<rect x="834.10" y="383.33" width="2.28" height="5.02" fill="#2f9e44" opacity="0.55" />
<rect x="837.38" y="388.35" width="2.28" height="0.99" fill="#d64545" opacity="0.55" />
<rect x="840.65" y="388.35" width="2.28" height="8.02" fill="#d64545" opacity="0.55" />
<rect x="843.92" y="388.35" width="2.28" height="8.81" fill="#d64545" opacity="0.55" />
<rect x="847.20" y="388.35" width="2.28" height="8.87" fill="#d64545" opacity="0.55" />
<rect x="850.47" y="388.35" width="2.28" height="7.78" fill="#d64545" opacity="0.55" />
<rect x="853.75" y="388.35" width="2.28" height="9.92" fill="#d64545" opacity="0.55" />
<rect x="857.02" y="388.35" width="2.28" height="11.57" fill="#d64545" opacity="0.55" />
<rect x="860.29" y="388.35" width="2.28" height="14.50" fill="#d64545" opacity="0.55" />
<rect x="863.57" y="388.35" width="2.28" height="17.71" fill="#d64545" opacity="0.55" />
<rect x="866.84" y="388.35" width="2.28" height="17.64" fill="#d64545" opacity="0.55" />
<rect x="870.12" y="388.35" width="2.28" height="16.84" fill="#d64545" opacity="0.55" />
<rect x="873.39" y="388.35" width="2.28" height="14.57" fill="#d64545" opacity="0.55" />
<rect x="876.67" y="388.35" width="2.28" height="13.85" fill="#d64545" opacity="0.55" />
<rect x="879.94" y="388.35" width="2.28" height="10.35" fill="#d64545" opacity="0.55" />
<rect x="883.21" y="388.35" width="2.28" height="7.66" fill="#d64545" opacity="0.55" />
<rect x="886.49" y="388.35" width="2.28" height="7.65" fill="#d64545" opacity="0.55" />
<rect x="889.76" y="388.35" width="2.28" height="6.22" fill="#d64545" opacity="0.55" />
<rect x="893.04" y="388.35" width="2.28" height="6.54" fill="#d64545" opacity="0.55" />
<rect x="896.31" y="388.35" width="2.28" height="6.72" fill="#d64545" opacity="0.55" />
<rect x="899.58" y="388.35" width="2.28" height="5.25" fill="#d64545" opacity="0.55" />
<rect x="902.86" y="388.35" width="2.28" height="3.66" fill="#d64545" opacity="0.55" />
<polyline fill="none" stroke="#1f77b4" stroke-width="2" points="137.85,393.19 141.13,393.55 144.40,392.27 147.68,393.15 150.95,392.72 154.22,387.42 157.50,383.49 160.77,377.48 164.05,372.68 167.32,368.88 170.59,365.49 173.87,363.31 177.14,364.87 180.42,371.27 183.69,376.91 186.97,381.46 190.24,385.75 193.51,389.56 196.79,396.16 200.06,401.46 203.34,405.67 206.61,404.72 209.88,405.07 213.16,403.45 216.43,403.28 219.71,404.48 222.98,408.01 226.25,411.61 229.53,414.18 232.80,414.40 236.08,413.63 239.35,412.10 242.63,409.56 245.90,402.85 249.17,398.71 252.45,393.63 255.72,388.75 259.00,385.98 262.27,384.05 265.54,379.82 268.82,375.95 272.09,373.07 275.37,368.63 278.64,366.66 281.92,364.73 285.19,363.48 288.46,360.65 291.74,360.24 295.01,357.04 298.29,352.33 301.56,345.42 304.83,341.56 308.11,342.49 311.38,345.23 314.66,352.35 317.93,357.49 321.20,359.52 324.48,362.72 327.75,362.10 331.03,364.27 334.30,366.88 337.58,367.46 340.85,361.32 344.12,359.17 347.40,356.10 350.67,354.93 353.95,356.73 357.22,359.79 360.49,366.78 363.77,371.65 367.04,374.16 370.32,378.85 373.59,380.72 376.86,382.26 380.14,385.04 383.41,388.53 386.69,393.61 389.96,399.03 393.24,405.72 396.51,412.04 399.78,413.73 403.06,416.48 406.33,417.45 409.61,416.61 412.88,413.70 416.15,410.28 419.43,407.13 422.70,402.32 425.98,397.75 429.25,392.35 432.53,387.23 435.80,381.94 439.07,377.87 442.35,375.45 445.62,375.19 448.90,377.05 452.17,379.29 455.44,381.78 458.72,388.93 461.99,397.95 465.27,407.04 468.54,411.81 471.81,414.43 475.09,417.25 478.36,419.34 481.64,421.06 484.91,422.03 488.19,422.41 491.46,418.47 494.73,412.91 498.01,407.84 501.28,401.94 504.56,397.17 507.83,397.17 511.10,392.80 514.38,390.39 517.65,389.12 520.93,385.13 524.20,383.32 527.47,379.18 530.75,379.25 534.02,381.33 537.30,384.10 540.57,382.91 543.85,383.32 547.12,380.71 550.39,378.53 553.67,377.16 556.94,377.91 560.22,379.91 563.49,384.55 566.76,386.74 570.04,387.84 573.31,390.84 576.59,390.38 579.86,388.08 583.14,385.85 586.41,383.71 589.68,383.15 592.96,382.56 596.23,376.39 599.51,374.26 602.78,368.70 606.05,367.34 609.33,372.28 612.60,372.70 615.88,373.42 619.15,377.15 622.42,379.98 625.70,379.52 628.97,379.47 632.25,379.33 635.52,379.31 638.80,379.40 642.07,377.87 645.34,379.56 648.62,382.27 651.89,385.96 655.17,388.23 658.44,388.52 661.71,387.89 664.99,386.55 668.26,388.93 671.54,391.86 674.81,389.00 678.08,389.30 681.36,387.61 684.63,378.39 687.91,368.93 691.18,358.12 694.46,351.05 697.73,344.23 701.00,345.59 704.28,342.87 707.55,339.33 710.83,334.55 714.10,326.73 717.37,323.44 720.65,327.15 723.92,330.33 727.20,332.41 730.47,336.60 733.75,340.05 737.02,347.36 740.29,351.20 743.57,353.35 746.84,344.55 750.12,339.22 753.39,337.10 756.66,334.74 759.94,335.00 763.21,335.59 766.49,339.22 769.76,354.80 773.03,369.95 776.31,386.30 779.58,399.13 782.86,401.37 786.13,399.56 789.41,397.81 792.68,396.32 795.95,396.99 799.23,398.91 802.50,387.27 805.78,363.85 809.05,333.83 812.32,303.88 815.60,286.93 818.87,280.57 822.15,282.80 825.42,286.38 828.69,288.01 831.97,294.91 835.24,300.53 838.52,306.78 841.79,315.81 845.07,318.81 848.34,321.09 851.61,321.94 854.89,326.56 858.16,331.10 861.44,337.66 864.71,345.30 867.98,349.64 871.26,353.05 874.53,354.42 877.81,357.16 881.08,356.25 884.36,355.47 887.63,357.37 890.90,357.51 894.18,359.46 897.45,361.31 900.73,361.16 904.00,360.49" />
<polyline fill="none" stroke="#ff7f0e" stroke-width="2" points="137.85,393.19 141.13,393.26 144.40,393.06 147.68,393.08 150.95,393.01 154.22,391.89 157.50,390.21 160.77,387.66 164.05,384.67 167.32,381.51 170.59,378.31 173.87,375.31 177.14,373.22 180.42,372.83 183.69,373.65 186.97,375.21 190.24,377.32 193.51,379.77 196.79,383.04 200.06,386.73 203.34,390.52 206.61,393.36 209.88,395.70 213.16,397.25 216.43,398.46 219.71,399.66 222.98,401.33 226.25,403.39 229.53,405.54 232.80,407.31 236.08,408.58 239.35,409.28 242.63,409.34 245.90,408.04 249.17,406.17 252.45,403.67 255.72,400.68 259.00,397.74 262.27,395.00 265.54,391.97 268.82,388.76 272.09,385.62 275.37,382.23 278.64,379.11 281.92,376.24 285.19,373.68 288.46,371.08 291.74,368.91 295.01,366.54 298.29,363.70 301.56,360.04 304.83,356.34 308.11,353.57 311.38,351.90 314.66,351.99 317.93,353.09 321.20,354.38 324.48,356.05 327.75,357.26 331.03,358.66 334.30,360.30 337.58,361.73 340.85,361.65 344.12,361.15 347.40,360.14 350.67,359.10 353.95,358.63 357.22,358.86 360.49,360.44 363.77,362.69 367.04,364.98 370.32,367.76 373.59,370.35 376.86,372.73 380.14,375.19 383.41,377.86 386.69,381.01 389.96,384.61 393.24,388.84 396.51,393.48 399.78,397.53 403.06,401.32 406.33,404.54 409.61,406.96 412.88,408.31 416.15,408.70 419.43,408.39 422.70,407.17 425.98,405.29 429.25,402.70 432.53,399.61 435.80,396.07 439.07,392.43 442.35,389.04 445.62,386.27 448.90,384.42 452.17,383.40 455.44,383.07 458.72,384.25 461.99,386.99 465.27,391.00 468.54,395.16 471.81,399.01 475.09,402.66 478.36,406.00 481.64,409.01 484.91,411.61 488.19,413.77 491.46,414.71 494.73,414.35 498.01,413.05 501.28,410.83 504.56,408.10 507.83,405.91 511.10,403.29 514.38,400.71 517.65,398.39 520.93,395.74 524.20,393.26 527.47,390.44 530.75,388.20 534.02,386.83 537.30,386.28 540.57,385.61 543.85,385.15 547.12,384.26 550.39,383.12 553.67,381.92 556.94,381.12 560.22,380.88 563.49,381.61 566.76,382.64 570.04,383.68 573.31,385.11 576.59,386.16 579.86,386.55 583.14,386.41 586.41,385.87 589.68,385.32 592.96,384.77 596.23,383.09 599.51,381.33 602.78,378.80 606.05,376.51 609.33,375.66 612.60,375.07 615.88,374.74 619.15,375.22 622.42,376.17 625.70,376.84 628.97,377.37 632.25,377.76 635.52,378.07 638.80,378.34 642.07,378.24 645.34,378.51 648.62,379.26 651.89,380.60 655.17,382.13 658.44,383.41 661.71,384.30 664.99,384.75 668.26,385.59 671.54,386.84 674.81,387.27 678.08,387.68 681.36,387.67 684.63,385.81 687.91,382.44 691.18,377.57 694.46,372.27 697.73,366.66 701.00,362.45 704.28,358.53 707.55,354.69 710.83,350.66 714.10,345.88 717.37,341.39 720.65,338.54 723.92,336.90 727.20,336.00 730.47,336.12 733.75,336.91 737.02,339.00 740.29,341.44 743.57,343.82 746.84,343.97 750.12,343.02 753.39,341.83 756.66,340.41 759.94,339.33 763.21,338.58 766.49,338.71 769.76,341.93 773.03,347.53 776.31,355.28 779.58,364.05 782.86,371.52 786.13,377.13 789.41,381.26 792.68,384.27 795.95,386.82 799.23,389.24 802.50,388.84 805.78,383.85 809.05,373.84 812.32,359.85 815.60,345.27 818.87,332.33 822.15,322.42 825.42,315.21 828.69,309.77 831.97,306.80 835.24,305.54 838.52,305.79 841.79,307.80 845.07,310.00 848.34,312.22 851.61,314.16 854.89,316.64 858.16,319.53 861.44,323.16 864.71,327.59 867.98,332.00 871.26,336.21 874.53,339.85 877.81,343.31 881.08,345.90 884.36,347.81 887.63,349.73 890.90,351.28 894.18,352.92 897.45,354.60 900.73,355.91 904.00,356.82" />
<text x="754.00" y="290.00" font-size="13" font-family="Arial" fill="#1f77b4" text-anchor="start">MACD</text>
<text x="818.00" y="290.00" font-size="13" font-family="Arial" fill="#ff7f0e" text-anchor="start">Signal</text>
<line x1="56" y1="624" x2="904" y2="624" stroke="#cbd2d9" />
<line x1="56" y1="484" x2="56" y2="624" stroke="#cbd2d9" />
<text x="16.00" y="476.00" font-size="12" font-family="Arial" fill="#52606d" text-anchor="start">KD</text>
<line x1="56" y1="624.00" x2="904" y2="624.00" stroke="#edf2f7" />
<line x1="52" y1="624.00" x2="56" y2="624.00" stroke="#9fb3c8" />
<text x="48.00" y="628.00" font-size="11" font-family="Arial" fill="#52606d" text-anchor="end">-5.00</text>
<line x1="56" y1="577.33" x2="904" y2="577.33" stroke="#edf2f7" />
<line x1="52" y1="577.33" x2="56" y2="577.33" stroke="#9fb3c8" />
<text x="48.00" y="581.33" font-size="11" font-family="Arial" fill="#52606d" text-anchor="end">31.7</text>
<line x1="56" y1="530.67" x2="904" y2="530.67" stroke="#edf2f7" />
<line x1="52" y1="530.67" x2="56" y2="530.67" stroke="#9fb3c8" />
<text x="48.00" y="534.67" font-size="11" font-family="Arial" fill="#52606d" text-anchor="end">68.3</text>
<line x1="56" y1="484.00" x2="904" y2="484.00" stroke="#edf2f7" />
<line x1="52" y1="484.00" x2="56" y2="484.00" stroke="#9fb3c8" />
<text x="48.00" y="488.00" font-size="11" font-family="Arial" fill="#52606d" text-anchor="end">105</text>
<line x1="56.00" y1="624" x2="56.00" y2="628" stroke="#9fb3c8" />
<text x="56.00" y="642.00" font-size="11" font-family="Arial" fill="#52606d" text-anchor="middle">06/19</text>
<line x1="226.25" y1="624" x2="226.25" y2="628" stroke="#9fb3c8" />
<text x="226.25" y="642.00" font-size="11" font-family="Arial" fill="#52606d" text-anchor="middle">09/02</text>
<line x1="396.51" y1="624" x2="396.51" y2="628" stroke="#9fb3c8" />
<text x="396.51" y="642.00" font-size="11" font-family="Arial" fill="#52606d" text-anchor="middle">11/19</text>
<line x1="563.49" y1="624" x2="563.49" y2="628" stroke="#9fb3c8" />
<text x="563.49" y="642.00" font-size="11" font-family="Arial" fill="#52606d" text-anchor="middle">02/02</text>
<line x1="733.75" y1="624" x2="733.75" y2="628" stroke="#9fb3c8" />
<text x="733.75" y="642.00" font-size="11" font-family="Arial" fill="#52606d" text-anchor="middle">04/29</text>
<line x1="904.00" y1="624" x2="904.00" y2="628" stroke="#9fb3c8" />
<text x="904.00" y="642.00" font-size="11" font-family="Arial" fill="#52606d" text-anchor="middle">07/14</text>
<line x1="56" y1="592.18" x2="904" y2="592.18" stroke="#f0b429" stroke-dasharray="5 5" />
<text x="912.00" y="596.18" font-size="10" font-family="Arial" fill="#8d2b0b" text-anchor="start">20.0</text>
<line x1="56" y1="515.82" x2="904" y2="515.82" stroke="#f0b429" stroke-dasharray="5 5" />
<text x="912.00" y="519.82" font-size="10" font-family="Arial" fill="#8d2b0b" text-anchor="start">80.0</text>
<polyline fill="none" stroke="#2ca02c" stroke-width="2" points="82.19,558.76 85.47,560.20 88.74,564.63 92.02,571.04 95.29,577.05 98.56,589.71 101.84,588.70 105.11,593.26 108.39,593.53 111.66,597.59 114.93,597.64 118.21,592.37 121.48,589.22 124.76,572.77 128.03,561.80 131.31,577.49 134.58,582.09 137.85,572.00 141.13,566.73 144.40,552.98 147.68,556.98 150.95,552.33 154.22,537.99 157.50,529.34 160.77,516.35 164.05,508.57 167.32,509.81 170.59,508.45 173.87,508.27 177.14,518.68 180.42,549.01 183.69,568.56 186.97,580.12 190.24,589.48 193.51,596.55 196.79,602.96 200.06,605.40 203.34,607.05 206.61,593.46 209.88,580.91 213.16,561.96 216.43,553.65 219.71,554.62 222.98,574.05 226.25,587.25 229.53,594.81 232.80,590.85 236.08,584.35 239.35,576.16 242.63,564.28 245.90,541.61 249.17,536.02 252.45,525.22 255.72,514.48 259.00,513.52 262.27,515.44 265.54,507.08 268.82,507.36 272.09,510.87 275.37,507.38 278.64,513.64 281.92,514.09 285.19,516.79 288.46,521.56 291.74,530.67 295.01,526.17 298.29,514.23 301.56,512.94 304.83,515.11 308.11,526.26 311.38,537.93 314.66,564.50 317.93,576.34 321.20,577.05 324.48,581.44 327.75,573.93 331.03,574.83 334.30,577.60 337.58,567.26 340.85,542.38 344.12,533.97 347.40,522.97 350.67,519.48 353.95,527.30 357.22,538.04 360.49,563.65 363.77,568.21 367.04,566.30 370.32,573.52 373.59,571.96 376.86,570.92 380.14,573.69 383.41,578.91 386.69,588.71 389.96,596.47 393.24,603.52 396.51,608.23 399.78,601.63 403.06,602.17 406.33,598.69 409.61,591.65 412.88,565.84 416.15,543.33 419.43,530.53 422.70,519.11 425.98,516.73 429.25,508.74 432.53,502.62 435.80,504.03 439.07,505.42 442.35,509.55 445.62,518.13 448.90,538.24 452.17,562.06 455.44,571.49 458.72,586.87 461.99,597.13 465.27,603.96 468.54,603.41 471.81,600.44 475.09,600.72 478.36,600.79 481.64,601.42 484.91,601.17 488.19,595.09 491.46,561.88 494.73,544.57 498.01,530.85 501.28,517.35 504.56,513.55 507.83,526.60 511.10,521.59 514.38,522.18 517.65,526.60 520.93,518.16 524.20,521.21 527.47,512.11 530.75,523.71 534.02,542.06 537.30,563.39 540.57,557.05 543.85,560.53 547.12,544.86 550.39,533.12 553.67,530.33 556.94,537.65 560.22,549.41 563.49,569.05 566.76,574.89 570.04,575.69 573.31,586.57 576.59,577.07 579.86,562.61 583.14,545.05 586.41,529.12 589.68,526.80 592.96,524.20 596.23,515.01 599.51,520.09 602.78,511.45 606.05,519.57 609.33,552.26 612.60,556.88 615.88,560.97 619.15,565.72 622.42,568.18 625.70,560.62 628.97,556.29 632.25,552.70 635.52,540.00 638.80,531.54 642.07,521.50 645.34,526.80 648.62,546.13 651.89,560.18 655.17,566.28 658.44,562.73 661.71,556.01 664.99,547.18 668.26,558.70 671.54,570.63 674.81,545.24 678.08,545.51 681.36,534.99 684.63,520.11 687.91,511.37 691.18,509.51 694.46,510.41 697.73,509.09 701.00,522.43 704.28,521.99 707.55,517.51 710.83,510.18 714.10,504.50 717.37,510.95 720.65,529.77 723.92,541.19 727.20,546.02 730.47,557.41 733.75,569.91 737.02,585.18 740.29,588.28 743.57,586.50 746.84,556.22 750.12,543.17 753.39,538.14 756.66,531.64 759.94,530.98 763.21,530.01 766.49,537.16 769.76,563.09 773.03,578.27 776.31,591.39 779.58,599.13 782.86,592.17 786.13,582.14 789.41,575.12 792.68,570.43 795.95,560.27 799.23,557.36 802.50,535.02 805.78,520.14 809.05,513.55 812.32,512.54 815.60,516.29 818.87,523.21 822.15,532.41 825.42,539.03 828.69,542.72 831.97,560.88 835.24,571.95 838.52,580.37 841.79,588.55 845.07,579.51 848.34,564.90 851.61,549.73 854.89,550.78 858.16,552.23 861.44,561.38 864.71,572.94 867.98,572.69 871.26,571.00 874.53,563.82 877.81,563.58 881.08,546.24 884.36,545.29 887.63,550.55 890.90,549.34 894.18,557.26 897.45,565.04 900.73,563.29 904.00,559.04" />
<polyline fill="none" stroke="#d62728" stroke-width="2" points="82.19,555.59 85.47,557.13 88.74,559.63 92.02,563.43 95.29,567.97 98.56,575.22 101.84,579.71 105.11,584.23 108.39,587.33 111.66,590.75 114.93,593.04 118.21,592.82 121.48,591.62 124.76,585.34 128.03,577.49 131.31,577.49 134.58,579.02 137.85,576.68 141.13,573.36 144.40,566.57 147.68,563.37 150.95,559.69 154.22,552.46 157.50,544.75 160.77,535.28 164.05,526.38 167.32,520.86 170.59,516.72 173.87,513.91 177.14,515.50 180.42,526.67 183.69,540.63 186.97,553.79 190.24,565.69 193.51,575.98 196.79,584.97 200.06,591.78 203.34,596.87 206.61,595.73 209.88,590.79 213.16,581.18 216.43,572.01 219.71,566.21 222.98,568.82 226.25,574.97 229.53,581.58 232.80,584.67 236.08,584.56 239.35,581.76 242.63,575.93 245.90,564.49 249.17,555.00 252.45,545.07 255.72,534.88 259.00,527.76 262.27,523.65 265.54,518.13 268.82,514.54 272.09,513.31 275.37,511.34 278.64,512.11 281.92,512.77 285.19,514.11 288.46,516.59 291.74,521.29 295.01,522.91 298.29,520.02 301.56,517.66 304.83,516.81 308.11,519.96 311.38,525.95 314.66,538.80 317.93,551.31 321.20,559.89 324.48,567.07 327.75,569.36 331.03,571.18 334.30,573.32 337.58,571.30 340.85,561.66 344.12,552.43 347.40,542.61 350.67,534.90 353.95,532.37 357.22,534.26 360.49,544.06 363.77,552.11 367.04,556.84 370.32,562.40 373.59,565.59 376.86,567.36 380.14,569.47 383.41,572.62 386.69,577.98 389.96,584.14 393.24,590.60 396.51,596.48 399.78,598.20 403.06,599.52 406.33,599.24 409.61,596.71 412.88,586.42 416.15,572.06 419.43,558.21 422.70,545.18 425.98,535.70 429.25,526.71 432.53,518.68 435.80,513.80 439.07,511.00 442.35,510.52 445.62,513.05 448.90,521.45 452.17,534.99 455.44,547.15 458.72,560.39 461.99,572.64 465.27,583.08 468.54,589.86 471.81,593.38 475.09,595.83 478.36,597.48 481.64,598.79 484.91,599.58 488.19,598.09 491.46,586.02 494.73,572.20 498.01,558.42 501.28,544.73 504.56,534.34 507.83,531.76 511.10,528.37 514.38,526.31 517.65,526.41 520.93,523.66 524.20,522.84 527.47,519.26 530.75,520.75 534.02,527.85 537.30,539.70 540.57,545.48 543.85,550.50 547.12,548.62 550.39,543.45 553.67,539.08 556.94,538.60 560.22,542.20 563.49,551.15 566.76,559.07 570.04,564.61 573.31,571.93 576.59,573.64 579.86,569.96 583.14,561.66 586.41,550.81 589.68,542.81 592.96,536.61 596.23,529.41 599.51,526.30 602.78,521.35 606.05,520.76 609.33,531.26 612.60,539.80 615.88,546.86 619.15,553.14 622.42,558.15 625.70,558.98 628.97,558.08 632.25,556.29 635.52,550.86 638.80,544.42 642.07,536.78 645.34,533.45 648.62,537.68 651.89,545.18 655.17,552.21 658.44,555.72 661.71,555.81 664.99,552.94 668.26,554.86 671.54,560.12 674.81,555.16 678.08,551.94 681.36,546.29 684.63,537.56 687.91,528.83 691.18,522.39 694.46,518.40 697.73,515.30 701.00,517.67 704.28,519.11 707.55,518.58 710.83,515.78 714.10,512.02 717.37,511.66 720.65,517.70 723.92,525.53 727.20,532.36 730.47,540.71 733.75,550.45 737.02,562.02 740.29,570.78 743.57,576.02 746.84,569.42 750.12,560.67 753.39,553.16 756.66,545.99 759.94,540.98 763.21,537.33 766.49,537.27 769.76,545.88 773.03,556.67 776.31,568.25 779.58,578.54 782.86,583.08 786.13,582.77 789.41,580.22 792.68,576.96 795.95,571.40 799.23,566.72 802.50,556.15 805.78,544.15 809.05,533.95 812.32,526.81 815.60,523.30 818.87,523.27 822.15,526.32 825.42,530.56 828.69,534.61 831.97,543.37 835.24,552.89 838.52,562.05 841.79,570.88 845.07,573.76 848.34,570.80 851.61,563.78 854.89,559.45 858.16,557.04 861.44,558.48 864.71,563.30 867.98,566.43 871.26,567.95 874.53,566.58 877.81,565.58 881.08,559.13 884.36,554.52 887.63,553.20 890.90,551.91 894.18,553.70 897.45,557.48 900.73,559.42 904.00,559.29" />
<text x="824.00" y="502.00" font-size="13" font-family="Arial" fill="#2ca02c" text-anchor="start">K</text>
<text x="860.00" y="502.00" font-size="13" font-family="Arial" fill="#d62728" text-anchor="start">D</text>
</svg>