<svg xmlns="http://www.w3.org/2000/svg" width="960" height="680" viewBox="0 0 960 680"><rect width="100%" height="100%" fill="white" />
<text x="56.00" y="32.00" font-size="20" font-family="Arial" fill="#1f2933" text-anchor="start">日月光投控(3711) Technical Indicators</text>
<line x1="56" y1="220" x2="904" y2="220" stroke="#cbd2d9" />
<line x1="56" y1="58" x2="56" y2="220" stroke="#cbd2d9" />
<text x="16.00" y="50.00" font-size="12" font-family="Arial" fill="#52606d" text-anchor="start">RSI14</text>
<line x1="56" y1="220.00" x2="904" y2="220.00" stroke="#edf2f7" />
<line x1="52" y1="220.00" x2="56" y2="220.00" stroke="#9fb3c8" />
<text x="48.00" y="224.00" font-size="11" font-family="Arial" fill="#52606d" text-anchor="end">-5.00</text>
<line x1="56" y1="166.00" x2="904" y2="166.00" stroke="#edf2f7" />
<line x1="52" y1="166.00" x2="56" y2="166.00" stroke="#9fb3c8" />
<text x="48.00" y="170.00" font-size="11" font-family="Arial" fill="#52606d" text-anchor="end">31.7</text>
<line x1="56" y1="112.00" x2="904" y2="112.00" stroke="#edf2f7" />
<line x1="52" y1="112.00" x2="56" y2="112.00" stroke="#9fb3c8" />
<text x="48.00" y="116.00" font-size="11" font-family="Arial" fill="#52606d" text-anchor="end">68.3</text>
<line x1="56" y1="58.00" x2="904" y2="58.00" stroke="#edf2f7" />
<line x1="52" y1="58.00" x2="56" y2="58.00" stroke="#9fb3c8" />
<text x="48.00" y="62.00" font-size="11" font-family="Arial" fill="#52606d" text-anchor="end">105</text>
<line x1="56" y1="168.45" x2="904" y2="168.45" stroke="#f0b429" stroke-dasharray="5 5" />
<text x="912.00" y="172.45" font-size="10" font-family="Arial" fill="#8d2b0b" text-anchor="start">30.0</text>
<line x1="56" y1="109.55" x2="904" y2="109.55" stroke="#f0b429" stroke-dasharray="5 5" />
<text x="912.00" y="113.55" font-size="10" font-family="Arial" fill="#8d2b0b" text-anchor="start">70.0</text>
<polyline fill="none" stroke="#1f77b4" stroke-width="2" points="101.84,119.76 105.11,114.76 108.39,120.24 111.66,125.50 114.93,119.93 118.21,115.90 121.48,123.03 124.76,120.83 128.03,124.45 131.31,129.74 134.58,128.38 137.85,143.97 141.13,146.60 144.40,150.45 147.68,140.96 150.95,138.05 154.22,132.48 157.50,141.31 160.77,139.83 164.05,141.32 167.32,141.32 170.59,133.27 173.87,139.91 177.14,149.82 180.42,152.34 183.69,153.62 186.97,137.22 190.24,135.81 193.51,131.61 196.79,140.83 200.06,131.39 203.34,120.73 206.61,118.87 209.88,118.87 213.16,128.69 216.43,124.26 219.71,102.56 222.98,113.93 226.25,111.65 229.53,117.67 232.80,117.00 236.08,118.29 239.35,114.05 242.63,115.45 245.90,113.97 249.17,113.97 252.45,110.12 255.72,107.27 259.00,115.60 262.27,115.60 265.54,134.28 268.82,137.86 272.09,140.23 275.37,136.58 278.64,134.17 281.92,118.64 285.19,117.07 288.46,110.61 291.74,126.14 295.01,133.68 298.29,120.99 301.56,107.57 304.83,104.21 308.11,101.46 311.38,111.14 314.66,114.81 317.93,112.08 321.20,106.75 324.48,106.36 327.75,95.44 331.03,93.64 334.30,86.11 337.58,88.49 340.85,99.18 344.12,104.89 347.40,106.34 350.67,114.14 353.95,114.14 357.22,114.89 360.49,116.49 363.77,112.75 367.04,126.33 370.32,129.71 373.59,136.15 376.86,142.59 380.14,128.96 383.41,142.76 386.69,141.26 389.96,139.71 393.24,134.16 396.51,123.18 399.78,124.35 403.06,130.15 406.33,126.68 409.61,126.24 412.88,127.55 416.15,124.64 419.43,118.82 422.70,116.72 425.98,113.10 429.25,113.10 432.53,114.88 435.80,129.97 439.07,136.63 442.35,137.28 445.62,145.37 448.90,135.95 452.17,133.09 455.44,130.26 458.72,130.26 461.99,123.49 465.27,113.94 468.54,117.16 471.81,115.83 475.09,109.70 478.36,105.82 481.64,100.95 484.91,99.04 488.19,101.79 491.46,104.60 494.73,98.05 498.01,94.91 501.28,92.73 504.56,91.09 507.83,89.18 511.10,97.48 514.38,102.79 517.65,111.18 520.93,106.45 524.20,101.06 527.47,98.82 530.75,107.50 534.02,103.26 537.30,109.24 540.57,125.84 543.85,131.26 547.12,123.45 550.39,123.09 553.67,141.14 556.94,126.44 560.22,115.05 563.49,108.51 566.76,105.03 570.04,109.71 573.31,100.10 576.59,98.33 579.86,99.57 583.14,112.83 586.41,120.37 589.68,138.03 592.96,127.61 596.23,133.05 599.51,142.31 602.78,136.07 606.05,132.29 609.33,136.87 612.60,134.25 615.88,136.11 619.15,134.13 622.42,127.69 625.70,133.13 628.97,134.66 632.25,141.78 635.52,140.26 638.80,131.08 642.07,128.11 645.34,131.23 648.62,131.23 651.89,144.47 655.17,129.80 658.44,129.80 661.71,134.45 664.99,122.53 668.26,119.61 671.54,119.28 674.81,111.82 678.08,110.05 681.36,104.50 684.63,103.59 687.91,109.09 691.18,104.25 694.46,101.90 697.73,106.50 701.00,106.84 704.28,99.47 707.55,99.81 710.83,99.81 714.10,105.10 717.37,112.67 720.65,100.68 723.92,103.84 727.20,102.93 730.47,99.44 733.75,114.19 737.02,108.85 740.29,104.87 743.57,108.85 746.84,108.85 750.12,109.48 753.39,129.62 756.66,144.37 759.94,142.81 763.21,130.96 766.49,117.96 769.76,107.97 773.03,110.22 776.31,105.44 779.58,111.08 782.86,116.86 786.13,120.40 789.41,124.27 792.68,118.20 795.95,126.71 799.23,131.74 802.50,142.03 805.78,134.60 809.05,142.21 812.32,140.88 815.60,129.89 818.87,129.89 822.15,129.42 825.42,128.67 828.69,124.25 831.97,112.28 835.24,116.42 838.52,119.53 841.79,123.65 845.07,126.72 848.34,128.46 851.61,116.62 854.89,112.48 858.16,108.57 861.44,121.71 864.71,122.67 867.98,131.26 871.26,138.36 874.53,126.82 877.81,126.82 881.08,128.88 884.36,137.01 887.63,127.59 890.90,127.88 894.18,144.62 897.45,148.05 900.73,139.51 904.00,134.60" />
<text x="808.00" y="76.00" font-size="13" font-family="Arial" fill="#1f77b4" text-anchor="start">RSI14</text>
<line x1="56" y1="432" x2="904" y2="432" stroke="#cbd2d9" />
<line x1="56" y1="272" x2="56" y2="432" stroke="#cbd2d9" />
<text x="16.00" y="264.00" font-size="12" font-family="Arial" fill="#52606d" text-anchor="start">MACD</text>
<line x1="56" y1="432.00" x2="904" y2="432.00" stroke="#edf2f7" />
<line x1="52" y1="432.00" x2="56" y2="432.00" stroke="#9fb3c8" />
<text x="48.00" y="436.00" font-size="11" font-family="Arial" fill="#52606d" text-anchor="end">-14.3</text>
<line x1="56" y1="378.67" x2="904" y2="378.67" stroke="#edf2f7" />
<line x1="52" y1="378.67" x2="56" y2="378.67" stroke="#9fb3c8" />
<text x="48.00" y="382.67" font-size="11" font-family="Arial" fill="#52606d" text-anchor="end">5.14</text>
<line x1="56" y1="325.33" x2="904" y2="325.33" stroke="#edf2f7" />
<line x1="52" y1="325.33" x2="56" y2="325.33" stroke="#9fb3c8" />
<text x="48.00" y="329.33" font-size="11" font-family="Arial" fill="#52606d" text-anchor="end">24.6</text>
<line x1="56" y1="272.00" x2="904" y2="272.00" stroke="#edf2f7" />
<line x1="52" y1="272.00" x2="56" y2="272.00" stroke="#9fb3c8" />
<text x="48.00" y="276.00" font-size="11" font-family="Arial" fill="#52606d" text-anchor="end">44.1</text>
<line x1="56" y1="392.73" x2="904" y2="392.73" stroke="#9fb3c8" stroke-dasharray="4 4" />
<rect x="136.71" y="392.73" width="2.28" height="0.00" fill="#2f9e44" opacity="0.55" />
<rect x="139.99" y="392.73" width="2.28" height="1.12" fill="#d64545" opacity="0.55" />
<rect x="143.26" y="392.73" width="2.28" height="2.07" fill="#d64545" opacity="0.55" />
<rect x="146.53" y="392.73" width="2.28" height="2.06" fill="#d64545" opacity="0.55" />
<rect x="149.81" y="392.73" width="2.28" height="1.80" fill="#d64545" opacity="0.55" />
<rect x="153.08" y="392.73" width="2.28" height="1.22" fill="#d64545" opacity="0.55" />
<rect x="156.36" y="392.73" width="2.28" height="1.34" fill="#d64545" opacity="0.55" />
<rect x="159.63" y="392.73" width="2.28" height="1.27" fill="#d64545" opacity="0.55" />
<rect x="162.90" y="392.73" width="2.28" height="1.26" fill="#d64545" opacity="0.55" />
<rect x="166.18" y="392.73" width="2.28" height="1.20" fill="#d64545" opacity="0.55" />
<rect x="169.45" y="392.73" width="2.28" height="0.68" fill="#d64545" opacity="0.55" />
<rect x="172.73" y="392.73" width="2.28" height="0.67" fill="#d64545" opacity="0.55" />
<rect x="176.00" y="392.73" width="2.28" height="1.24" fill="#d64545" opacity="0.55" />
<rect x="179.28" y="392.73" width="2.28" height="1.71" fill="#d64545" opacity="0.55" />
<rect x="182.55" y="392.73" width="2.28" height="2.00" fill="#d64545" opacity="0.55" />
<rect x="185.82" y="392.73" width="2.28" height="1.21" fill="#d64545" opacity="0.55" />
<rect x="189.10" y="392.73" width="2.28" height="0.55" fill="#d64545" opacity="0.55" />
<rect x="192.37" y="392.58" width="2.28" height="0.16" fill="#2f9e44" opacity="0.55" />
<rect x="195.65" y="392.65" width="2.28" height="0.08" fill="#2f9e44" opacity="0.55" />
<rect x="198.92" y="392.09" width="2.28" height="0.65" fill="#2f9e44" opacity="0.55" />
<rect x="202.19" y="390.89" width="2.28" height="1.84" fill="#2f9e44" opacity="0.55" />
<rect x="205.47" y="390.07" width="2.28" height="2.67" fill="#2f9e44" opacity="0.55" />
<rect x="208.74" y="389.69" width="2.28" height="3.04" fill="#2f9e44" opacity="0.55" />
<rect x="212.02" y="390.14" width="2.28" height="2.59" fill="#2f9e44" opacity="0.55" />
<rect x="215.29" y="390.23" width="2.28" height="2.50" fill="#2f9e44" opacity="0.55" />
<rect x="218.57" y="387.76" width="2.28" height="4.98" fill="#2f9e44" opacity="0.55" />
<rect x="221.84" y="387.28" width="2.28" height="5.46" fill="#2f9e44" opacity="0.55" />
<rect x="225.11" y="386.96" width="2.28" height="5.77" fill="#2f9e44" opacity="0.55" />
<rect x="228.39" y="387.56" width="2.28" height="5.17" fill="#2f9e44" opacity="0.55" />
<rect x="231.66" y="388.19" width="2.28" height="4.55" fill="#2f9e44" opacity="0.55" />
<rect x="234.94" y="388.99" width="2.28" height="3.75" fill="#2f9e44" opacity="0.55" />
<rect x="238.21" y="389.26" width="2.28" height="3.48" fill="#2f9e44" opacity="0.55" />
<rect x="241.48" y="389.79" width="2.28" height="2.94" fill="#2f9e44" opacity="0.55" />
<rect x="244.76" y="390.21" width="2.28" height="2.53" fill="#2f9e44" opacity="0.55" />
<rect x="248.03" y="390.71" width="2.28" height="2.02" fill="#2f9e44" opacity="0.55" />
<rect x="251.31" y="390.82" width="2.28" height="1.92" fill="#2f9e44" opacity="0.55" />
<rect x="254.58" y="390.76" width="2.28" height="1.98" fill="#2f9e44" opacity="0.55" />
<rect x="257.85" y="391.38" width="2.28" height="1.36" fill="#2f9e44" opacity="0.55" />
<rect x="261.13" y="391.96" width="2.28" height="0.77" fill="#2f9e44" opacity="0.55" />
<rect x="264.40" y="392.73" width="2.28" height="0.89" fill="#d64545" opacity="0.55" />
<rect x="267.68" y="392.73" width="2.28" height="2.27" fill="#d64545" opacity="0.55" />
<rect x="270.95" y="392.73" width="2.28" height="3.31" fill="#d64545" opacity="0.55" />
<rect x="274.23" y="392.73" width="2.28" height="3.64" fill="#d64545" opacity="0.55" />
<rect x="277.50" y="392.73" width="2.28" height="3.59" fill="#d64545" opacity="0.55" />
<rect x="280.77" y="392.73" width="2.28" height="2.08" fill="#d64545" opacity="0.55" />
<rect x="284.05" y="392.73" width="2.28" height="0.95" fill="#d64545" opacity="0.55" />
<rect x="287.32" y="392.23" width="2.28" height="0.51" fill="#2f9e44" opacity="0.55" />
<rect x="290.60" y="392.48" width="2.28" height="0.26" fill="#2f9e44" opacity="0.55" />
<rect x="293.87" y="392.73" width="2.28" height="0.61" fill="#d64545" opacity="0.55" />
<rect x="297.14" y="392.47" width="2.28" height="0.26" fill="#2f9e44" opacity="0.55" />
<rect x="300.42" y="389.69" width="2.28" height="3.04" fill="#2f9e44" opacity="0.55" />
<rect x="303.69" y="387.43" width="2.28" height="5.31" fill="#2f9e44" opacity="0.55" />
<rect x="306.97" y="385.70" width="2.28" height="7.03" fill="#2f9e44" opacity="0.55" />
<rect x="310.24" y="385.98" width="2.28" height="6.75" fill="#2f9e44" opacity="0.55" />
<rect x="313.51" y="387.00" width="2.28" height="5.74" fill="#2f9e44" opacity="0.55" />
<rect x="316.79" y="387.57" width="2.28" height="5.16" fill="#2f9e44" opacity="0.55" />
<rect x="320.06" y="387.24" width="2.28" height="5.49" fill="#2f9e44" opacity="0.55" />
<rect x="323.34" y="387.41" width="2.28" height="5.32" fill="#2f9e44" opacity="0.55" />
<rect x="326.61" y="384.87" width="2.28" height="7.86" fill="#2f9e44" opacity="0.55" />
<rect x="329.89" y="383.21" width="2.28" height="9.53" fill="#2f9e44" opacity="0.55" />
<rect x="333.16" y="379.00" width="2.28" height="13.74" fill="#2f9e44" opacity="0.55" />
<rect x="336.43" y="377.60" width="2.28" height="15.14" fill="#2f9e44" opacity="0.55" />
<rect x="339.71" y="379.03" width="2.28" height="13.71" fill="#2f9e44" opacity="0.55" />
<rect x="342.98" y="381.66" width="2.28" height="11.08" fill="#2f9e44" opacity="0.55" />
<rect x="346.26" y="384.42" width="2.28" height="8.32" fill="#2f9e44" opacity="0.55" />
<rect x="349.53" y="387.90" width="2.28" height="4.83" fill="#2f9e44" opacity="0.55" />
<rect x="352.80" y="390.73" width="2.28" height="2.01" fill="#2f9e44" opacity="0.55" />
<rect x="356.08" y="392.73" width="2.28" height="0.34" fill="#d64545" opacity="0.55" />
<rect x="359.35" y="392.73" width="2.28" height="2.35" fill="#d64545" opacity="0.55" />
<rect x="362.63" y="392.73" width="2.28" height="3.09" fill="#d64545" opacity="0.55" />
<rect x="365.90" y="392.73" width="2.28" height="5.33" fill="#d64545" opacity="0.55" />
<rect x="369.18" y="392.73" width="2.28" height="7.25" fill="#d64545" opacity="0.55" />
<rect x="372.45" y="392.73" width="2.28" height="9.28" fill="#d64545" opacity="0.55" />
<rect x="375.72" y="392.73" width="2.28" height="11.34" fill="#d64545" opacity="0.55" />
<rect x="379.00" y="392.73" width="2.28" height="10.09" fill="#d64545" opacity="0.55" />
<rect x="382.27" y="392.73" width="2.28" height="11.39" fill="#d64545" opacity="0.55" />
<rect x="385.55" y="392.73" width="2.28" height="11.60" fill="#d64545" opacity="0.55" />
<rect x="388.82" y="392.73" width="2.28" height="11.08" fill="#d64545" opacity="0.55" />
<rect x="392.09" y="392.73" width="2.28" height="9.42" fill="#d64545" opacity="0.55" />
<rect x="395.37" y="392.73" width="2.28" height="5.81" fill="#d64545" opacity="0.55" />
<rect x="398.64" y="392.73" width="2.28" height="3.58" fill="#d64545" opacity="0.55" />
<rect x="401.92" y="392.73" width="2.28" height="3.02" fill="#d64545" opacity="0.55" />
<rect x="405.19" y="392.73" width="2.28" height="1.96" fill="#d64545" opacity="0.55" />
<rect x="408.46" y="392.73" width="2.28" height="1.25" fill="#d64545" opacity="0.55" />
<rect x="411.74" y="392.73" width="2.28" height="1.06" fill="#d64545" opacity="0.55" />
<rect x="415.01" y="392.73" width="2.28" height="0.50" fill="#d64545" opacity="0.55" />
<rect x="418.29" y="391.86" width="2.28" height="0.87" fill="#2f9e44" opacity="0.55" />
<rect x="421.56" y="390.76" width="2.28" height="1.97" fill="#2f9e44" opacity="0.55" />
<rect x="424.84" y="389.54" width="2.28" height="3.20" fill="#2f9e44" opacity="0.55" />
<rect x="428.11" y="389.09" width="2.28" height="3.65" fill="#2f9e44" opacity="0.55" />
<rect x="431.38" y="389.33" width="2.28" height="3.41" fill="#2f9e44" opacity="0.55" />
<rect x="434.66" y="391.47" width="2.28" height="1.26" fill="#2f9e44" opacity="0.55" />
<rect x="437.93" y="392.73" width="2.28" height="1.18" fill="#d64545" opacity="0.55" />
<rect x="441.21" y="392.73" width="2.28" height="2.91" fill="#d64545" opacity="0.55" />
<rect x="444.48" y="392.73" width="2.28" height="5.12" fill="#d64545" opacity="0.55" />
<rect x="447.75" y="392.73" width="2.28" height="5.09" fill="#d64545" opacity="0.55" />
<rect x="451.03" y="392.73" width="2.28" height="4.51" fill="#d64545" opacity="0.55" />
<rect x="454.30" y="392.73" width="2.28" height="3.60" fill="#d64545" opacity="0.55" />
<rect x="457.58" y="392.73" width="2.28" height="2.96" fill="#d64545" opacity="0.55" />
<rect x="460.85" y="392.73" width="2.28" height="1.48" fill="#d64545" opacity="0.55" />
<rect x="464.12" y="391.50" width="2.28" height="1.24" fill="#2f9e44" opacity="0.55" />
<rect x="467.40" y="390.32" width="2.28" height="2.42" fill="#2f9e44" opacity="0.55" />
<rect x="470.67" y="389.56" width="2.28" height="3.17" fill="#2f9e44" opacity="0.55" />
<rect x="473.95" y="388.08" width="2.28" height="4.66" fill="#2f9e44" opacity="0.55" />
<rect x="477.22" y="386.58" width="2.28" height="6.16" fill="#2f9e44" opacity="0.55" />
<rect x="480.50" y="384.72" width="2.28" height="8.02" fill="#2f9e44" opacity="0.55" />
<rect x="483.77" y="383.54" width="2.28" height="9.20" fill="#2f9e44" opacity="0.55" />
<rect x="487.04" y="383.72" width="2.28" height="9.01" fill="#2f9e44" opacity="0.55" />
<rect x="490.32" y="384.78" width="2.28" height="7.95" fill="#2f9e44" opacity="0.55" />
<rect x="493.59" y="384.19" width="2.28" height="8.55" fill="#2f9e44" opacity="0.55" />
<rect x="496.87" y="383.38" width="2.28" height="9.36" fill="#2f9e44" opacity="0.55" />
<rect x="500.14" y="382.77" width="2.28" height="9.97" fill="#2f9e44" opacity="0.55" />
<rect x="503.41" y="382.50" width="2.28" height="10.23" fill="#2f9e44" opacity="0.55" />
<rect x="506.69" y="382.32" width="2.28" height="10.42" fill="#2f9e44" opacity="0.55" />
<rect x="509.96" y="383.87" width="2.28" height="8.87" fill="#2f9e44" opacity="0.55" />
<rect x="513.24" y="386.18" width="2.28" height="6.55" fill="#2f9e44" opacity="0.55" />
<rect x="516.51" y="389.21" width="2.28" height="3.52" fill="#2f9e44" opacity="0.55" />
<rect x="519.79" y="390.47" width="2.28" height="2.27" fill="#2f9e44" opacity="0.55" />
<rect x="523.06" y="390.11" width="2.28" height="2.63" fill="#2f9e44" opacity="0.55" />
<rect x="526.33" y="389.64" width="2.28" height="3.10" fill="#2f9e44" opacity="0.55" />
<rect x="529.61" y="390.85" width="2.28" height="1.88" fill="#2f9e44" opacity="0.55" />
<rect x="532.88" y="390.82" width="2.28" height="1.92" fill="#2f9e44" opacity="0.55" />
<rect x="536.16" y="392.00" width="2.28" height="0.74" fill="#2f9e44" opacity="0.55" />
<rect x="539.43" y="392.73" width="2.28" height="2.70" fill="#d64545" opacity="0.55" />
<rect x="542.70" y="392.73" width="2.28" height="5.98" fill="#d64545" opacity="0.55" />
<rect x="545.98" y="392.73" width="2.28" height="6.39" fill="#d64545" opacity="0.55" />
<rect x="549.25" y="392.73" width="2.28" height="6.59" fill="#d64545" opacity="0.55" />
<rect x="552.53" y="392.73" width="2.28" height="9.94" fill="#d64545" opacity="0.55" />
<rect x="555.80" y="392.73" width="2.28" height="8.30" fill="#d64545" opacity="0.55" />
<rect x="559.07" y="392.73" width="2.28" height="3.26" fill="#d64545" opacity="0.55" />
<rect x="562.35" y="390.03" width="2.28" height="2.71" fill="#2f9e44" opacity="0.55" />
<rect x="565.62" y="384.93" width="2.28" height="7.81" fill="#2f9e44" opacity="0.55" />
<rect x="568.90" y="383.43" width="2.28" height="9.30" fill="#2f9e44" opacity="0.55" />
<rect x="572.17" y="377.70" width="2.28" height="15.03" fill="#2f9e44" opacity="0.55" />
<rect x="575.45" y="373.99" width="2.28" height="18.74" fill="#2f9e44" opacity="0.55" />
<rect x="578.72" y="373.34" width="2.28" height="19.39" fill="#2f9e44" opacity="0.55" />
<rect x="581.99" y="377.37" width="2.28" height="15.36" fill="#2f9e44" opacity="0.55" />
<rect x="585.27" y="383.12" width="2.28" height="9.61" fill="#2f9e44" opacity="0.55" />
<rect x="588.54" y="392.73" width="2.28" height="0.57" fill="#d64545" opacity="0.55" />
<rect x="591.82" y="392.73" width="2.28" height="2.96" fill="#d64545" opacity="0.55" />
<rect x="595.09" y="392.73" width="2.28" height="6.81" fill="#d64545" opacity="0.55" />
<rect x="598.36" y="392.73" width="2.28" height="13.19" fill="#d64545" opacity="0.55" />
<rect x="601.64" y="392.73" width="2.28" height="14.30" fill="#d64545" opacity="0.55" />
<rect x="604.91" y="392.73" width="2.28" height="12.96" fill="#d64545" opacity="0.55" />
<rect x="608.19" y="392.73" width="2.28" height="13.67" fill="#d64545" opacity="0.55" />
<rect x="611.46" y="392.73" width="2.28" height="12.67" fill="#d64545" opacity="0.55" />
<rect x="614.73" y="392.73" width="2.28" height="12.42" fill="#d64545" opacity="0.55" />
<rect x="618.01" y="392.73" width="2.28" height="11.17" fill="#d64545" opacity="0.55" />
<rect x="621.28" y="392.73" width="2.28" height="7.42" fill="#d64545" opacity="0.55" />
<rect x="624.56" y="392.73" width="2.28" height="6.78" fill="#d64545" opacity="0.55" />
<rect x="627.83" y="392.73" width="2.28" height="6.82" fill="#d64545" opacity="0.55" />
<rect x="631.11" y="392.73" width="2.28" height="9.26" fill="#d64545" opacity="0.55" />
<rect x="634.38" y="392.73" width="2.28" height="10.01" fill="#d64545" opacity="0.55" />
<rect x="637.65" y="392.73" width="2.28" height="6.80" fill="#d64545" opacity="0.55" />
<rect x="640.93" y="392.73" width="2.28" height="3.41" fill="#d64545" opacity="0.55" />
<rect x="644.20" y="392.73" width="2.28" height="2.25" fill="#d64545" opacity="0.55" />
<rect x="647.48" y="392.73" width="2.28" height="1.59" fill="#d64545" opacity="0.55" />
<rect x="650.75" y="392.73" width="2.28" height="5.60" fill="#d64545" opacity="0.55" />
<rect x="654.02" y="392.73" width="2.28" height="2.36" fill="#d64545" opacity="0.55" />
<rect x="657.30" y="392.73" width="2.28" height="0.37" fill="#d64545" opacity="0.55" />
<rect x="660.57" y="392.73" width="2.28" height="0.82" fill="#d64545" opacity="0.55" />
<rect x="663.85" y="388.59" width="2.28" height="4.15" fill="#2f9e44" opacity="0.55" />
<rect x="667.12" y="384.30" width="2.28" height="8.44" fill="#2f9e44" opacity="0.55" />
<rect x="670.40" y="382.07" width="2.28" height="10.67" fill="#2f9e44" opacity="0.55" />
<rect x="673.67" y="377.20" width="2.28" height="15.54" fill="#2f9e44" opacity="0.55" />
<rect x="676.94" y="374.08" width="2.28" height="18.65" fill="#2f9e44" opacity="0.55" />
<rect x="680.22" y="369.50" width="2.28" height="23.24" fill="#2f9e44" opacity="0.55" />
<rect x="683.49" y="367.50" width="2.28" height="25.24" fill="#2f9e44" opacity="0.55" />
<rect x="686.77" y="369.44" width="2.28" height="23.30" fill="#2f9e44" opacity="0.55" />
<rect x="690.04" y="368.95" width="2.28" height="23.79" fill="#2f9e44" opacity="0.55" />
<rect x="693.31" y="368.58" width="2.28" height="24.15" fill="#2f9e44" opacity="0.55" />
<rect x="696.59" y="371.39" width="2.28" height="21.34" fill="#2f9e44" opacity="0.55" />
<rect x="699.86" y="374.97" width="2.28" height="17.76" fill="#2f9e44" opacity="0.55" />
<rect x="703.14" y="373.34" width="2.28" height="19.39" fill="#2f9e44" opacity="0.55" />
<rect x="706.41" y="374.12" width="2.28" height="18.61" fill="#2f9e44" opacity="0.55" />
<rect x="709.68" y="376.32" width="2.28" height="16.41" fill="#2f9e44" opacity="0.55" />
<rect x="712.96" y="380.55" width="2.28" height="12.18" fill="#2f9e44" opacity="0.55" />
<rect x="716.23" y="386.47" width="2.28" height="6.27" fill="#2f9e44" opacity="0.55" />
<rect x="719.51" y="383.18" width="2.28" height="9.56" fill="#2f9e44" opacity="0.55" />
<rect x="722.78" y="383.32" width="2.28" height="9.41" fill="#2f9e44" opacity="0.55" />
<rect x="726.06" y="384.08" width="2.28" height="8.66" fill="#2f9e44" opacity="0.55" />
<rect x="729.33" y="383.11" width="2.28" height="9.62" fill="#2f9e44" opacity="0.55" />
<rect x="732.60" y="388.08" width="2.28" height="4.66" fill="#2f9e44" opacity="0.55" />
<rect x="735.88" y="388.71" width="2.28" height="4.03" fill="#2f9e44" opacity="0.55" />
<rect x="739.15" y="387.12" width="2.28" height="5.62" fill="#2f9e44" opacity="0.55" />
<rect x="742.43" y="388.56" width="2.28" height="4.17" fill="#2f9e44" opacity="0.55" />
<rect x="745.70" y="390.64" width="2.28" height="2.10" fill="#2f9e44" opacity="0.55" />
<rect x="748.97" y="392.73" width="2.28" height="0.43" fill="#d64545" opacity="0.55" />
<rect x="752.25" y="392.73" width="2.28" height="9.36" fill="#d64545" opacity="0.55" />
<rect x="755.52" y="392.73" width="2.28" height="21.97" fill="#d64545" opacity="0.55" />
<rect x="758.80" y="392.73" width="2.28" height="28.91" fill="#d64545" opacity="0.55" />
<rect x="762.07" y="392.73" width="2.28" height="26.67" fill="#d64545" opacity="0.55" />
<rect x="765.34" y="392.73" width="2.28" height="15.78" fill="#d64545" opacity="0.55" />
<rect x="768.62" y="391.87" width="2.28" height="0.86" fill="#2f9e44" opacity="0.55" />
<rect x="771.89" y="383.25" width="2.28" height="9.49" fill="#2f9e44" opacity="0.55" />
<rect x="775.17" y="373.71" width="2.28" height="19.03" fill="#2f9e44" opacity="0.55" />
<rect x="778.44" y="372.10" width="2.28" height="20.63" fill="#2f9e44" opacity="0.55" />
<rect x="781.72" y="375.78" width="2.28" height="16.95" fill="#2f9e44" opacity="0.55" />
<rect x="784.99" y="381.58" width="2.28" height="11.16" fill="#2f9e44" opacity="0.55" />
<rect x="788.26" y="388.59" width="2.28" height="4.14" fill="#2f9e44" opacity="0.55" />
<rect x="791.54" y="389.26" width="2.28" height="3.47" fill="#2f9e44" opacity="0.55" />
<rect x="794.81" y="392.73" width="2.28" height="2.37" fill="#d64545" opacity="0.55" />
<rect x="798.09" y="392.73" width="2.28" height="9.58" fill="#d64545" opacity="0.55" />
<rect x="801.36" y="392.73" width="2.28" height="20.90" fill="#d64545" opacity="0.55" />
<rect x="804.63" y="392.73" width="2.28" height="22.70" fill="#d64545" opacity="0.55" />
<rect x="807.91" y="392.73" width="2.28" height="28.63" fill="#d64545" opacity="0.55" />
<rect x="811.18" y="392.73" width="2.28" height="30.69" fill="#d64545" opacity="0.55" />
<rect x="814.46" y="392.73" width="2.28" height="23.06" fill="#d64545" opacity="0.55" />
<rect x="817.73" y="392.73" width="2.28" height="17.66" fill="#d64545" opacity="0.55" />
<rect x="821.01" y="392.73" width="2.28" height="13.56" fill="#d64545" opacity="0.55" />
<rect x="824.28" y="392.73" width="2.28" height="10.29" fill="#d64545" opacity="0.55" />
<rect x="827.55" y="392.73" width="2.28" height="5.08" fill="#d64545" opacity="0.55" />
<rect x="830.83" y="384.20" width="2.28" height="8.53" fill="#2f9e44" opacity="0.55" />
<rect x="834.10" y="378.71" width="2.28" height="14.02" fill="#2f9e44" opacity="0.55" />
<rect x="837.38" y="378.10" width="2.28" height="14.63" fill="#2f9e44" opacity="0.55" />
<rect x="840.65" y="381.14" width="2.28" height="11.59" fill="#2f9e44" opacity="0.55" />
<rect x="843.92" y="385.82" width="2.28" height="6.92" fill="#2f9e44" opacity="0.55" />
<rect x="847.20" y="390.59" width="2.28" height="2.14" fill="#2f9e44" opacity="0.55" />
<rect x="850.47" y="385.14" width="2.28" height="7.60" fill="#2f9e44" opacity="0.55" />
<rect x="853.75" y="378.77" width="2.28" height="13.96" fill="#2f9e44" opacity="0.55" />
<rect x="857.02" y="372.03" width="2.28" height="20.71" fill="#2f9e44" opacity="0.55" />
<rect x="860.29" y="376.32" width="2.28" height="16.41" fill="#2f9e44" opacity="0.55" />
<rect x="863.57" y="381.15" width="2.28" height="11.58" fill="#2f9e44" opacity="0.55" />
<rect x="866.84" y="390.46" width="2.28" height="2.27" fill="#2f9e44" opacity="0.55" />
<rect x="870.12" y="392.73" width="2.28" height="9.02" fill="#d64545" opacity="0.55" />
<rect x="873.39" y="392.73" width="2.28" height="7.30" fill="#d64545" opacity="0.55" />
<rect x="876.67" y="392.73" width="2.28" height="6.59" fill="#d64545" opacity="0.55" />
<rect x="879.94" y="392.73" width="2.28" height="7.75" fill="#d64545" opacity="0.55" />
<rect x="883.21" y="392.73" width="2.28" height="13.87" fill="#d64545" opacity="0.55" />
<rect x="886.49" y="392.73" width="2.28" height="10.32" fill="#d64545" opacity="0.55" />
<rect x="889.76" y="392.73" width="2.28" height="8.39" fill="#d64545" opacity="0.55" />
<rect x="893.04" y="392.73" width="2.28" height="19.27" fill="#d64545" opacity="0.55" />
<rect x="896.31" y="392.73" width="2.28" height="28.65" fill="#d64545" opacity="0.55" />
<rect x="899.58" y="392.73" width="2.28" height="27.27" fill="#d64545" opacity="0.55" />
<rect x="902.86" y="392.73" width="2.28" height="21.42" fill="#d64545" opacity="0.55" />
<polyline fill="none" stroke="#1f77b4" stroke-width="2" points="137.85,388.40 141.13,389.80 144.40,391.26 147.68,391.77 150.95,391.97 154.22,391.69 157.50,392.14 160.77,392.39 164.05,392.70 167.32,392.94 170.59,392.59 173.87,392.74 177.14,393.62 180.42,394.52 183.69,395.31 186.97,394.82 190.24,394.30 193.51,393.55 196.79,393.60 200.06,392.88 203.34,391.23 206.61,389.73 209.88,388.59 213.16,388.40 216.43,387.87 219.71,384.14 222.98,382.30 226.25,380.54 229.53,379.85 232.80,379.34 236.08,379.20 239.35,378.60 242.63,378.40 245.90,378.19 249.17,378.19 252.45,377.81 255.72,377.25 259.00,377.53 262.27,377.93 265.54,379.81 268.82,381.76 272.09,383.63 275.37,384.87 278.64,385.72 281.92,384.73 285.19,383.83 288.46,382.25 291.74,382.43 295.01,383.45 298.29,382.51 301.56,378.97 304.83,375.38 308.11,371.90 311.38,370.49 314.66,370.07 317.93,369.35 321.20,367.65 324.48,366.49 327.75,361.99 331.03,357.94 334.30,350.29 337.58,345.11 340.85,343.11 344.12,342.98 347.40,343.65 350.67,345.93 353.95,348.25 357.22,350.69 360.49,353.29 363.77,354.80 367.04,358.37 370.32,362.10 373.59,366.45 376.86,371.35 380.14,372.62 383.41,376.76 386.69,379.87 389.96,382.13 393.24,382.82 396.51,380.67 399.78,379.33 403.06,379.52 406.33,378.95 409.61,378.56 412.88,378.62 416.15,378.19 419.43,376.61 422.70,375.01 425.98,372.98 429.25,371.62 432.53,371.01 435.80,372.84 439.07,375.58 442.35,378.03 445.62,381.53 448.90,382.77 452.17,383.32 455.44,383.31 458.72,383.41 461.99,382.30 465.27,379.27 468.54,377.49 471.81,375.94 475.09,373.29 478.36,370.25 481.64,366.39 484.91,362.91 488.19,360.84 491.46,359.91 494.73,357.18 498.01,354.03 501.28,350.93 504.56,348.10 507.83,345.32 511.10,344.65 514.38,345.32 517.65,347.47 520.93,348.16 524.20,347.15 527.47,345.90 530.75,346.65 534.02,346.13 537.30,347.13 540.57,351.24 543.85,356.02 547.12,358.02 550.39,359.87 553.67,365.70 556.94,366.14 560.22,361.91 563.49,355.27 566.76,348.22 570.04,344.40 573.31,334.91 576.59,326.51 579.86,321.02 583.14,321.21 586.41,324.55 589.68,334.88 592.96,338.00 596.23,343.56 599.51,353.24 602.78,357.92 606.05,359.82 609.33,363.95 612.60,366.11 615.88,368.97 619.15,370.51 622.42,368.61 625.70,369.68 628.97,371.42 632.25,376.17 635.52,379.43 638.80,377.91 642.07,375.38 645.34,374.78 648.62,374.52 651.89,379.93 655.17,377.28 658.44,375.38 661.71,376.04 664.99,370.03 668.26,363.64 671.54,358.74 674.81,349.98 678.08,342.20 681.36,331.81 684.63,323.50 687.91,319.61 691.18,313.18 694.46,306.77 697.73,304.25 701.00,303.39 704.28,296.91 707.55,293.04 710.83,291.14 714.10,292.32 717.37,296.67 720.65,290.99 723.92,288.78 727.20,287.37 730.47,284.00 733.75,287.80 737.02,287.42 740.29,284.43 743.57,284.84 746.84,286.38 750.12,289.02 753.39,300.29 756.66,318.39 759.94,332.56 763.21,336.98 766.49,330.04 769.76,313.19 773.03,302.19 776.31,287.89 779.58,281.13 782.86,280.57 786.13,283.58 789.41,289.56 792.68,289.36 795.95,295.79 799.23,305.40 802.50,321.94 805.78,329.42 809.05,342.50 812.32,352.24 815.60,350.37 818.87,349.39 822.15,348.68 825.42,347.98 828.69,344.04 831.97,328.30 835.24,319.30 838.52,315.03 841.79,315.17 845.07,318.12 848.34,322.36 851.61,315.01 854.89,305.15 858.16,293.23 861.44,293.42 864.71,295.35 867.98,304.10 871.26,317.64 874.53,317.74 877.81,318.68 881.08,321.79 884.36,331.37 887.63,330.39 890.90,330.56 894.18,346.26 897.45,362.80 900.73,368.24 904.00,367.75" />
<polyline fill="none" stroke="#ff7f0e" stroke-width="2" points="137.85,388.40 141.13,388.68 144.40,389.20 147.68,389.71 150.95,390.16 154.22,390.47 157.50,390.80 160.77,391.12 164.05,391.44 167.32,391.74 170.59,391.91 173.87,392.07 177.14,392.38 180.42,392.81 183.69,393.31 186.97,393.61 190.24,393.75 193.51,393.71 196.79,393.69 200.06,393.53 203.34,393.07 206.61,392.40 209.88,391.64 213.16,390.99 216.43,390.37 219.71,389.12 222.98,387.76 226.25,386.31 229.53,385.02 232.80,383.89 236.08,382.95 239.35,382.08 242.63,381.34 245.90,380.71 249.17,380.21 252.45,379.73 255.72,379.23 259.00,378.89 262.27,378.70 265.54,378.92 268.82,379.49 272.09,380.32 275.37,381.23 278.64,382.13 281.92,382.65 285.19,382.88 288.46,382.76 291.74,382.69 295.01,382.84 298.29,382.78 301.56,382.02 304.83,380.69 308.11,378.93 311.38,377.24 314.66,375.81 317.93,374.52 321.20,373.14 324.48,371.81 327.75,369.85 331.03,367.47 334.30,364.03 337.58,360.25 340.85,356.82 344.12,354.05 347.40,351.97 350.67,350.76 353.95,350.26 357.22,350.35 360.49,350.93 363.77,351.71 367.04,353.04 370.32,354.85 373.59,357.17 376.86,360.01 380.14,362.53 383.41,365.38 386.69,368.28 389.96,371.05 393.24,373.40 396.51,374.85 399.78,375.75 403.06,376.50 406.33,376.99 409.61,377.31 412.88,377.57 416.15,377.69 419.43,377.48 422.70,376.98 425.98,376.18 429.25,375.27 432.53,374.42 435.80,374.10 439.07,374.40 442.35,375.13 445.62,376.41 448.90,377.68 452.17,378.81 455.44,379.71 458.72,380.45 461.99,380.82 465.27,380.51 468.54,379.91 471.81,379.11 475.09,377.95 478.36,376.41 481.64,374.40 484.91,372.10 488.19,369.85 491.46,367.86 494.73,365.73 498.01,363.39 501.28,360.90 504.56,358.34 507.83,355.73 511.10,353.52 514.38,351.88 517.65,351.00 520.93,350.43 524.20,349.77 527.47,349.00 530.75,348.53 534.02,348.05 537.30,347.86 540.57,348.54 543.85,350.04 547.12,351.63 550.39,353.28 553.67,355.76 556.94,357.84 560.22,358.65 563.49,357.98 566.76,356.03 570.04,353.70 573.31,349.94 576.59,345.26 579.86,340.41 583.14,336.57 586.41,334.16 589.68,334.31 592.96,335.05 596.23,336.75 599.51,340.05 602.78,343.62 606.05,346.86 609.33,350.28 612.60,353.45 615.88,356.55 619.15,359.34 622.42,361.20 625.70,362.89 628.97,364.60 632.25,366.91 635.52,369.42 638.80,371.12 642.07,371.97 645.34,372.53 648.62,372.93 651.89,374.33 655.17,374.92 658.44,375.01 661.71,375.22 664.99,374.18 668.26,372.07 671.54,369.40 674.81,365.52 678.08,360.86 681.36,355.05 684.63,348.74 687.91,342.91 691.18,336.97 694.46,330.93 697.73,325.59 701.00,321.15 704.28,316.30 707.55,311.65 710.83,307.55 714.10,304.50 717.37,302.94 720.65,300.55 723.92,298.19 727.20,296.03 730.47,293.63 733.75,292.46 737.02,291.45 740.29,290.05 743.57,289.01 746.84,288.48 750.12,288.59 753.39,290.93 756.66,296.42 759.94,303.65 763.21,310.32 766.49,314.26 769.76,314.05 773.03,311.67 776.31,306.92 779.58,301.76 782.86,297.52 786.13,294.73 789.41,293.70 792.68,292.83 795.95,293.42 799.23,295.82 802.50,301.04 805.78,306.72 809.05,313.88 812.32,321.55 815.60,327.31 818.87,331.73 822.15,335.12 825.42,337.69 828.69,338.96 831.97,336.83 835.24,333.32 838.52,329.66 841.79,326.77 845.07,325.04 848.34,324.50 851.61,322.60 854.89,319.11 858.16,313.93 861.44,309.83 864.71,306.94 867.98,306.37 871.26,308.62 874.53,310.45 877.81,312.09 881.08,314.03 884.36,317.50 887.63,320.08 890.90,322.17 894.18,326.99 897.45,334.15 900.73,340.97 904.00,346.33" />
<text x="754.00" y="290.00" font-size="13" font-family="Arial" fill="#1f77b4" text-anchor="start">MACD</text>
<text x="818.00" y="290.00" font-size="13" font-family="Arial" fill="#ff7f0e" text-anchor="start">Signal</text>
<line x1="56" y1="624" x2="904" y2="624" stroke="#cbd2d9" />
<line x1="56" y1="484" x2="56" y2="624" stroke="#cbd2d9" />
<text x="16.00" y="476.00" font-size="12" font-family="Arial" fill="#52606d" text-anchor="start">KD</text>
<line x1="56" y1="624.00" x2="904" y2="624.00" stroke="#edf2f7" />
<line x1="52" y1="624.00" x2="56" y2="624.00" stroke="#9fb3c8" />
<text x="48.00" y="628.00" font-size="11" font-family="Arial" fill="#52606d" text-anchor="end">-5.00</text>
<line x1="56" y1="577.33" x2="904" y2="577.33" stroke="#edf2f7" />
<line x1="52" y1="577.33" x2="56" y2="577.33" stroke="#9fb3c8" />
<text x="48.00" y="581.33" font-size="11" font-family="Arial" fill="#52606d" text-anchor="end">31.7</text>
<line x1="56" y1="530.67" x2="904" y2="530.67" stroke="#edf2f7" />
<line x1="52" y1="530.67" x2="56" y2="530.67" stroke="#9fb3c8" />
<text x="48.00" y="534.67" font-size="11" font-family="Arial" fill="#52606d" text-anchor="end">68.3</text>
<line x1="56" y1="484.00" x2="904" y2="484.00" stroke="#edf2f7" />
<line x1="52" y1="484.00" x2="56" y2="484.00" stroke="#9fb3c8" />
<text x="48.00" y="488.00" font-size="11" font-family="Arial" fill="#52606d" text-anchor="end">105</text>
<line x1="56.00" y1="624" x2="56.00" y2="628" stroke="#9fb3c8" />
<text x="56.00" y="642.00" font-size="11" font-family="Arial" fill="#52606d" text-anchor="middle">06/27</text>
<line x1="226.25" y1="624" x2="226.25" y2="628" stroke="#9fb3c8" />
<text x="226.25" y="642.00" font-size="11" font-family="Arial" fill="#52606d" text-anchor="middle">09/10</text>
<line x1="396.51" y1="624" x2="396.51" y2="628" stroke="#9fb3c8" />
<text x="396.51" y="642.00" font-size="11" font-family="Arial" fill="#52606d" text-anchor="middle">11/27</text>
<line x1="563.49" y1="624" x2="563.49" y2="628" stroke="#9fb3c8" />
<text x="563.49" y="642.00" font-size="11" font-family="Arial" fill="#52606d" text-anchor="middle">02/10</text>
<line x1="733.75" y1="624" x2="733.75" y2="628" stroke="#9fb3c8" />
<text x="733.75" y="642.00" font-size="11" font-family="Arial" fill="#52606d" text-anchor="middle">05/08</text>
<line x1="904.00" y1="624" x2="904.00" y2="628" stroke="#9fb3c8" />
<text x="904.00" y="642.00" font-size="11" font-family="Arial" fill="#52606d" text-anchor="middle">07/22</text>
<line x1="56" y1="592.18" x2="904" y2="592.18" stroke="#f0b429" stroke-dasharray="5 5" />
<text x="912.00" y="596.18" font-size="10" font-family="Arial" fill="#8d2b0b" text-anchor="start">20.0</text>
<line x1="56" y1="515.82" x2="904" y2="515.82" stroke="#f0b429" stroke-dasharray="5 5" />
<text x="912.00" y="519.82" font-size="10" font-family="Arial" fill="#8d2b0b" text-anchor="start">80.0</text>
<polyline fill="none" stroke="#2ca02c" stroke-width="2" points="82.19,553.48 85.47,541.42 88.74,533.39 92.02,532.70 95.29,528.61 98.56,528.29 101.84,526.24 105.11,521.81 108.39,524.50 111.66,537.09 114.93,535.94 118.21,527.39 121.48,531.03 124.76,533.13 128.03,545.03 131.31,564.42 134.58,570.72 137.85,585.62 141.13,599.99 144.40,607.03 147.68,600.75 150.95,592.91 154.22,579.43 157.50,581.91 160.77,581.07 164.05,582.51 167.32,583.48 170.59,574.11 173.87,587.74 177.14,598.97 180.42,608.30 183.69,614.98 186.97,595.13 190.24,579.42 193.51,561.53 196.79,564.44 200.06,555.37 203.34,541.02 206.61,536.06 209.88,532.76 213.16,542.55 216.43,543.74 219.71,528.64 222.98,526.29 226.25,522.67 229.53,526.06 232.80,529.10 236.08,532.26 239.35,527.55 242.63,526.14 245.90,532.80 249.17,541.16 252.45,537.02 255.72,537.01 259.00,545.42 262.27,551.02 265.54,578.53 268.82,592.98 272.09,603.96 275.37,607.08 278.64,606.35 281.92,583.45 285.19,563.27 288.46,548.17 291.74,551.38 295.01,561.26 298.29,549.04 301.56,532.11 304.83,524.68 308.11,516.31 311.38,517.29 314.66,520.58 317.93,518.83 321.20,514.38 324.48,511.02 327.75,507.63 331.03,506.94 334.30,503.07 337.58,503.86 340.85,509.48 344.12,515.96 347.40,522.98 350.67,531.99 353.95,540.74 357.22,557.32 360.49,577.52 363.77,583.84 367.04,595.13 370.32,605.51 373.59,608.04 376.86,608.76 380.14,589.38 383.41,597.09 386.69,599.94 389.96,599.54 393.24,584.84 396.51,562.41 399.78,548.93 403.06,547.32 406.33,540.35 409.61,534.96 412.88,534.63 416.15,529.36 419.43,521.93 422.70,525.24 425.98,521.23 429.25,519.97 432.53,522.21 435.80,540.69 439.07,561.96 442.35,577.03 445.62,589.84 448.90,587.31 452.17,581.94 455.44,574.67 458.72,569.83 461.99,547.74 465.27,534.03 468.54,527.39 471.81,523.14 475.09,521.17 478.36,514.56 481.64,510.89 484.91,511.53 488.19,513.73 491.46,518.17 494.73,521.60 498.01,518.93 501.28,513.25 504.56,508.06 507.83,509.16 511.10,513.91 514.38,519.77 517.65,528.14 520.93,532.26 524.20,531.82 527.47,526.83 530.75,532.72 534.02,527.79 537.30,531.21 540.57,553.37 543.85,573.54 547.12,572.49 550.39,571.07 553.67,583.92 556.94,570.10 560.22,548.48 563.49,538.71 566.76,526.69 570.04,527.77 573.31,517.32 576.59,510.79 579.86,507.67 583.14,513.77 586.41,526.64 589.68,557.57 592.96,562.23 596.23,572.40 599.51,582.99 602.78,582.47 606.05,577.24 609.33,576.96 612.60,571.96 615.88,564.29 619.15,555.32 622.42,540.41 625.70,538.49 628.97,548.15 632.25,563.67 635.52,571.19 638.80,557.77 642.07,544.46 645.34,540.45 648.62,537.78 651.89,558.12 655.17,542.92 658.44,538.63 661.71,546.63 664.99,531.98 668.26,522.00 671.54,516.41 674.81,513.82 678.08,512.58 681.36,511.62 684.63,509.70 687.91,512.52 691.18,511.24 694.46,507.98 697.73,509.20 701.00,519.62 704.28,514.43 707.55,521.16 710.83,526.49 714.10,533.76 717.37,549.85 720.65,532.94 723.92,532.59 727.20,530.45 730.47,527.82 733.75,538.49 737.02,535.28 740.29,531.87 743.57,533.14 746.84,537.49 750.12,544.84 753.39,566.21 756.66,585.05 759.94,593.42 763.21,586.47 766.49,563.02 769.76,540.36 773.03,531.27 776.31,524.46 779.58,523.01 782.86,525.34 786.13,528.95 789.41,536.83 792.68,537.90 795.95,559.58 799.23,575.06 802.50,584.95 805.78,583.28 809.05,589.90 812.32,592.17 815.60,577.01 818.87,566.91 822.15,556.37 825.42,548.12 828.69,535.27 831.97,522.00 835.24,521.88 838.52,523.92 841.79,534.38 845.07,544.34 848.34,552.63 851.61,540.61 854.89,531.00 858.16,520.54 861.44,527.38 864.71,533.02 867.98,546.84 871.26,565.41 874.53,559.09 877.81,556.99 881.08,558.40 884.36,567.09 887.63,553.58 890.90,544.98 894.18,567.36 897.45,576.99 900.73,570.57 904.00,558.10" />
<polyline fill="none" stroke="#d62728" stroke-width="2" points="82.19,553.83 85.47,549.69 88.74,544.26 92.02,540.40 95.29,536.47 98.56,533.74 101.84,531.24 105.11,528.10 108.39,526.90 111.66,530.30 114.93,532.18 118.21,530.58 121.48,530.73 124.76,531.53 128.03,536.03 131.31,545.49 134.58,553.90 137.85,564.48 141.13,576.31 144.40,586.55 147.68,591.28 150.95,591.83 154.22,587.70 157.50,585.77 160.77,584.20 164.05,583.64 167.32,583.58 170.59,580.43 173.87,582.86 177.14,588.23 180.42,594.92 183.69,601.61 186.97,599.45 190.24,592.77 193.51,582.36 196.79,576.39 200.06,569.38 203.34,559.93 206.61,551.97 209.88,545.57 213.16,544.56 216.43,544.29 219.71,539.07 222.98,534.81 226.25,530.76 229.53,529.20 232.80,529.16 236.08,530.19 239.35,529.31 242.63,528.25 245.90,529.77 249.17,533.57 252.45,534.72 255.72,535.48 259.00,538.79 262.27,542.87 265.54,554.75 268.82,567.50 272.09,579.65 275.37,588.79 278.64,594.65 281.92,590.91 285.19,581.70 288.46,570.52 291.74,564.14 295.01,563.18 298.29,558.47 301.56,549.68 304.83,541.35 308.11,533.00 311.38,527.77 314.66,525.37 317.93,523.19 321.20,520.25 324.48,517.18 327.75,513.99 331.03,511.64 334.30,508.79 337.58,507.14 340.85,507.92 344.12,510.60 347.40,514.73 350.67,520.48 353.95,527.24 357.22,537.26 360.49,550.68 363.77,561.73 367.04,572.87 370.32,583.75 373.59,591.84 376.86,597.48 380.14,594.78 383.41,595.55 386.69,597.01 389.96,597.86 393.24,593.52 396.51,583.15 399.78,571.74 403.06,563.60 406.33,555.85 409.61,548.89 412.88,544.14 416.15,539.21 419.43,533.45 422.70,530.72 425.98,527.55 429.25,525.02 432.53,524.08 435.80,529.62 439.07,540.40 442.35,552.61 445.62,565.02 448.90,572.45 452.17,575.62 455.44,575.30 458.72,573.48 461.99,564.90 465.27,554.61 468.54,545.54 471.81,538.07 475.09,532.44 478.36,526.48 481.64,521.28 484.91,518.03 488.19,516.60 491.46,517.12 494.73,518.62 498.01,518.72 501.28,516.90 504.56,513.95 507.83,512.35 511.10,512.87 514.38,515.17 517.65,519.49 520.93,523.75 524.20,526.44 527.47,526.57 530.75,528.62 534.02,528.34 537.30,529.30 540.57,537.32 543.85,549.40 547.12,557.10 550.39,561.75 553.67,569.14 556.94,569.46 560.22,562.47 563.49,554.55 566.76,545.26 570.04,539.43 573.31,532.06 576.59,524.97 579.86,519.20 583.14,517.39 586.41,520.47 589.68,532.84 592.96,542.64 596.23,552.56 599.51,562.70 602.78,569.29 606.05,571.94 609.33,573.61 612.60,573.06 615.88,570.14 619.15,565.20 622.42,556.93 625.70,550.79 628.97,549.91 632.25,554.50 635.52,560.06 638.80,559.30 642.07,554.35 645.34,549.72 648.62,545.74 651.89,549.87 655.17,547.55 658.44,544.58 661.71,545.26 664.99,540.84 668.26,534.56 671.54,528.51 674.81,523.61 678.08,519.93 681.36,517.16 684.63,514.68 687.91,513.96 691.18,513.05 694.46,511.36 697.73,510.64 701.00,513.63 704.28,513.90 707.55,516.32 710.83,519.71 714.10,524.39 717.37,532.88 720.65,532.90 723.92,532.80 727.20,532.01 730.47,530.61 733.75,533.24 737.02,533.92 740.29,533.24 743.57,533.21 746.84,534.63 750.12,538.03 753.39,547.43 756.66,559.97 759.94,571.12 763.21,576.24 766.49,571.83 769.76,561.34 773.03,551.32 776.31,542.37 779.58,535.91 782.86,532.39 786.13,531.24 789.41,533.11 792.68,534.71 795.95,543.00 799.23,553.68 802.50,564.11 805.78,570.50 809.05,576.96 812.32,582.03 815.60,580.36 818.87,575.87 822.15,569.37 825.42,562.29 828.69,553.28 831.97,542.85 835.24,535.86 838.52,531.88 841.79,532.71 845.07,536.59 848.34,541.93 851.61,541.49 854.89,538.00 858.16,532.18 861.44,530.58 864.71,531.39 867.98,536.54 871.26,546.16 874.53,550.47 877.81,552.65 881.08,554.56 884.36,558.74 887.63,557.02 890.90,553.01 894.18,557.79 897.45,564.19 900.73,566.32 904.00,563.58" />
<text x="824.00" y="502.00" font-size="13" font-family="Arial" fill="#2ca02c" text-anchor="start">K</text>
<text x="860.00" y="502.00" font-size="13" font-family="Arial" fill="#d62728" text-anchor="start">D</text>
</svg>