<svg xmlns="http://www.w3.org/2000/svg" width="960" height="680" viewBox="0 0 960 680"><rect width="100%" height="100%" fill="white" />
<text x="56.00" y="32.00" font-size="20" font-family="Arial" fill="#1f2933" text-anchor="start">日月光投控(3711) Technical Indicators</text>
<line x1="56" y1="220" x2="904" y2="220" stroke="#cbd2d9" />
<line x1="56" y1="58" x2="56" y2="220" stroke="#cbd2d9" />
<text x="16.00" y="50.00" font-size="12" font-family="Arial" fill="#52606d" text-anchor="start">RSI14</text>
<line x1="56" y1="220.00" x2="904" y2="220.00" stroke="#edf2f7" />
<line x1="52" y1="220.00" x2="56" y2="220.00" stroke="#9fb3c8" />
<text x="48.00" y="224.00" font-size="11" font-family="Arial" fill="#52606d" text-anchor="end">-5.00</text>
<line x1="56" y1="166.00" x2="904" y2="166.00" stroke="#edf2f7" />
<line x1="52" y1="166.00" x2="56" y2="166.00" stroke="#9fb3c8" />
<text x="48.00" y="170.00" font-size="11" font-family="Arial" fill="#52606d" text-anchor="end">31.7</text>
<line x1="56" y1="112.00" x2="904" y2="112.00" stroke="#edf2f7" />
<line x1="52" y1="112.00" x2="56" y2="112.00" stroke="#9fb3c8" />
<text x="48.00" y="116.00" font-size="11" font-family="Arial" fill="#52606d" text-anchor="end">68.3</text>
<line x1="56" y1="58.00" x2="904" y2="58.00" stroke="#edf2f7" />
<line x1="52" y1="58.00" x2="56" y2="58.00" stroke="#9fb3c8" />
<text x="48.00" y="62.00" font-size="11" font-family="Arial" fill="#52606d" text-anchor="end">105</text>
<line x1="56" y1="168.45" x2="904" y2="168.45" stroke="#f0b429" stroke-dasharray="5 5" />
<text x="912.00" y="172.45" font-size="10" font-family="Arial" fill="#8d2b0b" text-anchor="start">30.0</text>
<line x1="56" y1="109.55" x2="904" y2="109.55" stroke="#f0b429" stroke-dasharray="5 5" />
<text x="912.00" y="113.55" font-size="10" font-family="Arial" fill="#8d2b0b" text-anchor="start">70.0</text>
<polyline fill="none" stroke="#1f77b4" stroke-width="2" points="101.84,115.15 105.11,115.15 108.39,120.00 111.66,116.35 114.93,115.45 118.21,114.52 121.48,110.04 124.76,115.75 128.03,121.23 131.31,116.08 134.58,112.35 137.85,119.71 141.13,117.64 144.40,121.38 147.68,126.83 150.95,125.54 154.22,141.60 157.50,144.32 160.77,148.29 164.05,139.06 167.32,136.23 170.59,130.82 173.87,139.81 177.14,138.37 180.42,139.88 183.69,139.88 186.97,132.00 190.24,138.73 193.51,148.78 196.79,151.35 200.06,152.65 203.34,136.44 206.61,135.05 209.88,130.90 213.16,140.19 216.43,130.84 219.71,120.28 222.98,118.44 226.25,118.44 229.53,128.29 232.80,123.89 236.08,102.34 239.35,113.73 242.63,111.45 245.90,117.48 249.17,116.82 252.45,118.11 255.72,113.89 259.00,115.29 262.27,113.81 265.54,113.81 268.82,109.98 272.09,107.13 275.37,115.47 278.64,115.47 281.92,134.18 285.19,137.76 288.46,140.14 291.74,136.49 295.01,134.08 298.29,118.58 301.56,117.01 304.83,110.55 308.11,126.09 311.38,133.64 314.66,120.95 317.93,107.55 321.20,104.18 324.48,101.43 327.75,111.12 331.03,114.79 334.30,112.06 337.58,106.73 340.85,106.35 344.12,95.43 347.40,93.63 350.67,86.10 353.95,88.48 357.22,99.17 360.49,104.89 363.77,106.33 367.04,114.13 370.32,114.13 373.59,114.89 376.86,116.48 380.14,112.74 383.41,126.33 386.69,129.70 389.96,136.15 393.24,142.59 396.51,128.95 399.78,142.75 403.06,141.26 406.33,139.71 409.61,134.16 412.88,123.18 416.15,124.35 419.43,130.14 422.70,126.68 425.98,126.24 429.25,127.55 432.53,124.64 435.80,118.81 439.07,116.72 442.35,113.10 445.62,113.10 448.90,114.88 452.17,129.97 455.44,136.62 458.72,137.28 461.99,145.37 465.27,135.95 468.54,133.09 471.81,130.26 475.09,130.26 478.36,123.49 481.64,113.94 484.91,117.16 488.19,115.83 491.46,109.70 494.73,105.82 498.01,100.95 501.28,99.04 504.56,101.79 507.83,104.60 511.10,98.05 514.38,94.91 517.65,92.73 520.93,91.09 524.20,89.18 527.47,97.48 530.75,102.79 534.02,111.18 537.30,106.45 540.57,101.06 543.85,98.82 547.12,107.50 550.39,103.26 553.67,109.24 556.94,125.84 560.22,131.26 563.49,123.45 566.76,123.09 570.04,141.14 573.31,126.44 576.59,115.05 579.86,108.51 583.14,105.03 586.41,109.71 589.68,100.10 592.96,98.33 596.23,99.57 599.51,112.83 602.78,120.37 606.05,138.03 609.33,127.61 612.60,133.05 615.88,142.31 619.15,136.07 622.42,132.29 625.70,136.87 628.97,134.25 632.25,136.11 635.52,134.13 638.80,127.69 642.07,133.13 645.34,134.66 648.62,141.78 651.89,140.26 655.17,131.08 658.44,128.11 661.71,131.23 664.99,131.23 668.26,144.47 671.54,129.80 674.81,129.80 678.08,134.45 681.36,122.53 684.63,119.61 687.91,119.28 691.18,111.82 694.46,110.05 697.73,104.50 701.00,103.59 704.28,109.09 707.55,104.25 710.83,101.90 714.10,106.50 717.37,106.84 720.65,99.47 723.92,99.81 727.20,99.81 730.47,105.10 733.75,112.67 737.02,100.68 740.29,103.84 743.57,102.93 746.84,99.44 750.12,114.19 753.39,108.85 756.66,104.87 759.94,108.85 763.21,108.85 766.49,109.48 769.76,129.62 773.03,144.37 776.31,142.81 779.58,130.96 782.86,117.96 786.13,107.97 789.41,110.22 792.68,105.44 795.95,111.08 799.23,116.86 802.50,120.40 805.78,124.27 809.05,118.20 812.32,126.71 815.60,131.74 818.87,142.03 822.15,134.60 825.42,142.21 828.69,140.88 831.97,129.89 835.24,129.89 838.52,129.42 841.79,128.67 845.07,124.25 848.34,112.28 851.61,116.42 854.89,119.53 858.16,123.65 861.44,126.72 864.71,128.46 867.98,116.62 871.26,112.48 874.53,108.57 877.81,121.71 881.08,122.67 884.36,131.26 887.63,138.36 890.90,126.82 894.18,126.82 897.45,128.88 900.73,137.01 904.00,127.59" />
<text x="808.00" y="76.00" font-size="13" font-family="Arial" fill="#1f77b4" text-anchor="start">RSI14</text>
<line x1="56" y1="432" x2="904" y2="432" stroke="#cbd2d9" />
<line x1="56" y1="272" x2="56" y2="432" stroke="#cbd2d9" />
<text x="16.00" y="264.00" font-size="12" font-family="Arial" fill="#52606d" text-anchor="start">MACD</text>
<line x1="56" y1="432.00" x2="904" y2="432.00" stroke="#edf2f7" />
<line x1="52" y1="432.00" x2="56" y2="432.00" stroke="#9fb3c8" />
<text x="48.00" y="436.00" font-size="11" font-family="Arial" fill="#52606d" text-anchor="end">-14.3</text>
<line x1="56" y1="378.67" x2="904" y2="378.67" stroke="#edf2f7" />
<line x1="52" y1="378.67" x2="56" y2="378.67" stroke="#9fb3c8" />
<text x="48.00" y="382.67" font-size="11" font-family="Arial" fill="#52606d" text-anchor="end">5.14</text>
<line x1="56" y1="325.33" x2="904" y2="325.33" stroke="#edf2f7" />
<line x1="52" y1="325.33" x2="56" y2="325.33" stroke="#9fb3c8" />
<text x="48.00" y="329.33" font-size="11" font-family="Arial" fill="#52606d" text-anchor="end">24.6</text>
<line x1="56" y1="272.00" x2="904" y2="272.00" stroke="#edf2f7" />
<line x1="52" y1="272.00" x2="56" y2="272.00" stroke="#9fb3c8" />
<text x="48.00" y="276.00" font-size="11" font-family="Arial" fill="#52606d" text-anchor="end">44.1</text>
<line x1="56" y1="392.73" x2="904" y2="392.73" stroke="#9fb3c8" stroke-dasharray="4 4" />
<rect x="136.71" y="392.73" width="2.28" height="0.00" fill="#2f9e44" opacity="0.55" />
<rect x="139.99" y="392.71" width="2.28" height="0.02" fill="#2f9e44" opacity="0.55" />
<rect x="143.26" y="392.73" width="2.28" height="0.22" fill="#d64545" opacity="0.55" />
<rect x="146.53" y="392.73" width="2.28" height="0.70" fill="#d64545" opacity="0.55" />
<rect x="149.81" y="392.73" width="2.28" height="0.95" fill="#d64545" opacity="0.55" />
<rect x="153.08" y="392.73" width="2.28" height="2.00" fill="#d64545" opacity="0.55" />
<rect x="156.36" y="392.73" width="2.28" height="2.79" fill="#d64545" opacity="0.55" />
<rect x="159.63" y="392.73" width="2.28" height="3.47" fill="#d64545" opacity="0.55" />
<rect x="162.90" y="392.73" width="2.28" height="3.24" fill="#d64545" opacity="0.55" />
<rect x="166.18" y="392.73" width="2.28" height="2.81" fill="#d64545" opacity="0.55" />
<rect x="169.45" y="392.73" width="2.28" height="2.08" fill="#d64545" opacity="0.55" />
<rect x="172.73" y="392.73" width="2.28" height="2.07" fill="#d64545" opacity="0.55" />
<rect x="176.00" y="392.73" width="2.28" height="1.91" fill="#d64545" opacity="0.55" />
<rect x="179.28" y="392.73" width="2.28" height="1.82" fill="#d64545" opacity="0.55" />
<rect x="182.55" y="392.73" width="2.28" height="1.69" fill="#d64545" opacity="0.55" />
<rect x="185.82" y="392.73" width="2.28" height="1.10" fill="#d64545" opacity="0.55" />
<rect x="189.10" y="392.73" width="2.28" height="1.04" fill="#d64545" opacity="0.55" />
<rect x="192.37" y="392.73" width="2.28" height="1.57" fill="#d64545" opacity="0.55" />
<rect x="195.65" y="392.73" width="2.28" height="2.01" fill="#d64545" opacity="0.55" />
<rect x="198.92" y="392.73" width="2.28" height="2.27" fill="#d64545" opacity="0.55" />
<rect x="202.19" y="392.73" width="2.28" height="1.45" fill="#d64545" opacity="0.55" />
<rect x="205.47" y="392.73" width="2.28" height="0.77" fill="#d64545" opacity="0.55" />
<rect x="208.74" y="392.73" width="2.28" height="0.04" fill="#d64545" opacity="0.55" />
<rect x="212.02" y="392.73" width="2.28" height="0.09" fill="#d64545" opacity="0.55" />
<rect x="215.29" y="392.25" width="2.28" height="0.49" fill="#2f9e44" opacity="0.55" />
<rect x="218.57" y="391.04" width="2.28" height="1.69" fill="#2f9e44" opacity="0.55" />
<rect x="221.84" y="390.20" width="2.28" height="2.53" fill="#2f9e44" opacity="0.55" />
<rect x="225.11" y="389.82" width="2.28" height="2.92" fill="#2f9e44" opacity="0.55" />
<rect x="228.39" y="390.26" width="2.28" height="2.48" fill="#2f9e44" opacity="0.55" />
<rect x="231.66" y="390.34" width="2.28" height="2.40" fill="#2f9e44" opacity="0.55" />
<rect x="234.94" y="387.85" width="2.28" height="4.88" fill="#2f9e44" opacity="0.55" />
<rect x="238.21" y="387.37" width="2.28" height="5.37" fill="#2f9e44" opacity="0.55" />
<rect x="241.48" y="387.05" width="2.28" height="5.69" fill="#2f9e44" opacity="0.55" />
<rect x="244.76" y="387.64" width="2.28" height="5.10" fill="#2f9e44" opacity="0.55" />
<rect x="248.03" y="388.26" width="2.28" height="4.48" fill="#2f9e44" opacity="0.55" />
<rect x="251.31" y="389.05" width="2.28" height="3.68" fill="#2f9e44" opacity="0.55" />
<rect x="254.58" y="389.32" width="2.28" height="3.42" fill="#2f9e44" opacity="0.55" />
<rect x="257.85" y="389.84" width="2.28" height="2.89" fill="#2f9e44" opacity="0.55" />
<rect x="261.13" y="390.26" width="2.28" height="2.47" fill="#2f9e44" opacity="0.55" />
<rect x="264.40" y="390.76" width="2.28" height="1.97" fill="#2f9e44" opacity="0.55" />
<rect x="267.68" y="390.86" width="2.28" height="1.87" fill="#2f9e44" opacity="0.55" />
<rect x="270.95" y="390.80" width="2.28" height="1.94" fill="#2f9e44" opacity="0.55" />
<rect x="274.23" y="391.41" width="2.28" height="1.32" fill="#2f9e44" opacity="0.55" />
<rect x="277.50" y="392.00" width="2.28" height="0.74" fill="#2f9e44" opacity="0.55" />
<rect x="280.77" y="392.73" width="2.28" height="0.92" fill="#d64545" opacity="0.55" />
<rect x="284.05" y="392.73" width="2.28" height="2.30" fill="#d64545" opacity="0.55" />
<rect x="287.32" y="392.73" width="2.28" height="3.34" fill="#d64545" opacity="0.55" />
<rect x="290.60" y="392.73" width="2.28" height="3.67" fill="#d64545" opacity="0.55" />
<rect x="293.87" y="392.73" width="2.28" height="3.62" fill="#d64545" opacity="0.55" />
<rect x="297.14" y="392.73" width="2.28" height="2.10" fill="#d64545" opacity="0.55" />
<rect x="300.42" y="392.73" width="2.28" height="0.97" fill="#d64545" opacity="0.55" />
<rect x="303.69" y="392.25" width="2.28" height="0.49" fill="#2f9e44" opacity="0.55" />
<rect x="306.97" y="392.49" width="2.28" height="0.24" fill="#2f9e44" opacity="0.55" />
<rect x="310.24" y="392.73" width="2.28" height="0.62" fill="#d64545" opacity="0.55" />
<rect x="313.51" y="392.49" width="2.28" height="0.25" fill="#2f9e44" opacity="0.55" />
<rect x="316.79" y="389.70" width="2.28" height="3.03" fill="#2f9e44" opacity="0.55" />
<rect x="320.06" y="387.44" width="2.28" height="5.30" fill="#2f9e44" opacity="0.55" />
<rect x="323.34" y="385.71" width="2.28" height="7.02" fill="#2f9e44" opacity="0.55" />
<rect x="326.61" y="385.99" width="2.28" height="6.74" fill="#2f9e44" opacity="0.55" />
<rect x="329.89" y="387.01" width="2.28" height="5.73" fill="#2f9e44" opacity="0.55" />
<rect x="333.16" y="387.58" width="2.28" height="5.15" fill="#2f9e44" opacity="0.55" />
<rect x="336.43" y="387.25" width="2.28" height="5.49" fill="#2f9e44" opacity="0.55" />
<rect x="339.71" y="387.42" width="2.28" height="5.31" fill="#2f9e44" opacity="0.55" />
<rect x="342.98" y="384.88" width="2.28" height="7.85" fill="#2f9e44" opacity="0.55" />
<rect x="346.26" y="383.22" width="2.28" height="9.52" fill="#2f9e44" opacity="0.55" />
<rect x="349.53" y="379.00" width="2.28" height="13.73" fill="#2f9e44" opacity="0.55" />
<rect x="352.80" y="377.61" width="2.28" height="15.13" fill="#2f9e44" opacity="0.55" />
<rect x="356.08" y="379.03" width="2.28" height="13.70" fill="#2f9e44" opacity="0.55" />
<rect x="359.35" y="381.66" width="2.28" height="11.07" fill="#2f9e44" opacity="0.55" />
<rect x="362.63" y="384.42" width="2.28" height="8.32" fill="#2f9e44" opacity="0.55" />
<rect x="365.90" y="387.91" width="2.28" height="4.83" fill="#2f9e44" opacity="0.55" />
<rect x="369.18" y="390.73" width="2.28" height="2.00" fill="#2f9e44" opacity="0.55" />
<rect x="372.45" y="392.73" width="2.28" height="0.34" fill="#d64545" opacity="0.55" />
<rect x="375.72" y="392.73" width="2.28" height="2.36" fill="#d64545" opacity="0.55" />
<rect x="379.00" y="392.73" width="2.28" height="3.10" fill="#d64545" opacity="0.55" />
<rect x="382.27" y="392.73" width="2.28" height="5.33" fill="#d64545" opacity="0.55" />
<rect x="385.55" y="392.73" width="2.28" height="7.25" fill="#d64545" opacity="0.55" />
<rect x="388.82" y="392.73" width="2.28" height="9.28" fill="#d64545" opacity="0.55" />
<rect x="392.09" y="392.73" width="2.28" height="11.35" fill="#d64545" opacity="0.55" />
<rect x="395.37" y="392.73" width="2.28" height="10.09" fill="#d64545" opacity="0.55" />
<rect x="398.64" y="392.73" width="2.28" height="11.39" fill="#d64545" opacity="0.55" />
<rect x="401.92" y="392.73" width="2.28" height="11.60" fill="#d64545" opacity="0.55" />
<rect x="405.19" y="392.73" width="2.28" height="11.08" fill="#d64545" opacity="0.55" />
<rect x="408.46" y="392.73" width="2.28" height="9.42" fill="#d64545" opacity="0.55" />
<rect x="411.74" y="392.73" width="2.28" height="5.81" fill="#d64545" opacity="0.55" />
<rect x="415.01" y="392.73" width="2.28" height="3.58" fill="#d64545" opacity="0.55" />
<rect x="418.29" y="392.73" width="2.28" height="3.02" fill="#d64545" opacity="0.55" />
<rect x="421.56" y="392.73" width="2.28" height="1.96" fill="#d64545" opacity="0.55" />
<rect x="424.84" y="392.73" width="2.28" height="1.25" fill="#d64545" opacity="0.55" />
<rect x="428.11" y="392.73" width="2.28" height="1.06" fill="#d64545" opacity="0.55" />
<rect x="431.38" y="392.73" width="2.28" height="0.50" fill="#d64545" opacity="0.55" />
<rect x="434.66" y="391.87" width="2.28" height="0.87" fill="#2f9e44" opacity="0.55" />
<rect x="437.93" y="390.76" width="2.28" height="1.97" fill="#2f9e44" opacity="0.55" />
<rect x="441.21" y="389.54" width="2.28" height="3.20" fill="#2f9e44" opacity="0.55" />
<rect x="444.48" y="389.09" width="2.28" height="3.65" fill="#2f9e44" opacity="0.55" />
<rect x="447.75" y="389.33" width="2.28" height="3.41" fill="#2f9e44" opacity="0.55" />
<rect x="451.03" y="391.47" width="2.28" height="1.26" fill="#2f9e44" opacity="0.55" />
<rect x="454.30" y="392.73" width="2.28" height="1.18" fill="#d64545" opacity="0.55" />
<rect x="457.58" y="392.73" width="2.28" height="2.91" fill="#d64545" opacity="0.55" />
<rect x="460.85" y="392.73" width="2.28" height="5.12" fill="#d64545" opacity="0.55" />
<rect x="464.12" y="392.73" width="2.28" height="5.09" fill="#d64545" opacity="0.55" />
<rect x="467.40" y="392.73" width="2.28" height="4.51" fill="#d64545" opacity="0.55" />
<rect x="470.67" y="392.73" width="2.28" height="3.60" fill="#d64545" opacity="0.55" />
<rect x="473.95" y="392.73" width="2.28" height="2.96" fill="#d64545" opacity="0.55" />
<rect x="477.22" y="392.73" width="2.28" height="1.48" fill="#d64545" opacity="0.55" />
<rect x="480.50" y="391.50" width="2.28" height="1.24" fill="#2f9e44" opacity="0.55" />
<rect x="483.77" y="390.32" width="2.28" height="2.42" fill="#2f9e44" opacity="0.55" />
<rect x="487.04" y="389.56" width="2.28" height="3.17" fill="#2f9e44" opacity="0.55" />
<rect x="490.32" y="388.08" width="2.28" height="4.66" fill="#2f9e44" opacity="0.55" />
<rect x="493.59" y="386.58" width="2.28" height="6.16" fill="#2f9e44" opacity="0.55" />
<rect x="496.87" y="384.72" width="2.28" height="8.02" fill="#2f9e44" opacity="0.55" />
<rect x="500.14" y="383.54" width="2.28" height="9.20" fill="#2f9e44" opacity="0.55" />
<rect x="503.41" y="383.73" width="2.28" height="9.01" fill="#2f9e44" opacity="0.55" />
<rect x="506.69" y="384.78" width="2.28" height="7.95" fill="#2f9e44" opacity="0.55" />
<rect x="509.96" y="384.19" width="2.28" height="8.55" fill="#2f9e44" opacity="0.55" />
<rect x="513.24" y="383.38" width="2.28" height="9.36" fill="#2f9e44" opacity="0.55" />
<rect x="516.51" y="382.77" width="2.28" height="9.97" fill="#2f9e44" opacity="0.55" />
<rect x="519.79" y="382.50" width="2.28" height="10.23" fill="#2f9e44" opacity="0.55" />
<rect x="523.06" y="382.32" width="2.28" height="10.42" fill="#2f9e44" opacity="0.55" />
<rect x="526.33" y="383.87" width="2.28" height="8.87" fill="#2f9e44" opacity="0.55" />
<rect x="529.61" y="386.18" width="2.28" height="6.55" fill="#2f9e44" opacity="0.55" />
<rect x="532.88" y="389.21" width="2.28" height="3.52" fill="#2f9e44" opacity="0.55" />
<rect x="536.16" y="390.47" width="2.28" height="2.27" fill="#2f9e44" opacity="0.55" />
<rect x="539.43" y="390.11" width="2.28" height="2.63" fill="#2f9e44" opacity="0.55" />
<rect x="542.70" y="389.64" width="2.28" height="3.10" fill="#2f9e44" opacity="0.55" />
<rect x="545.98" y="390.85" width="2.28" height="1.88" fill="#2f9e44" opacity="0.55" />
<rect x="549.25" y="390.82" width="2.28" height="1.92" fill="#2f9e44" opacity="0.55" />
<rect x="552.53" y="392.00" width="2.28" height="0.74" fill="#2f9e44" opacity="0.55" />
<rect x="555.80" y="392.73" width="2.28" height="2.70" fill="#d64545" opacity="0.55" />
<rect x="559.07" y="392.73" width="2.28" height="5.98" fill="#d64545" opacity="0.55" />
<rect x="562.35" y="392.73" width="2.28" height="6.39" fill="#d64545" opacity="0.55" />
<rect x="565.62" y="392.73" width="2.28" height="6.59" fill="#d64545" opacity="0.55" />
<rect x="568.90" y="392.73" width="2.28" height="9.94" fill="#d64545" opacity="0.55" />
<rect x="572.17" y="392.73" width="2.28" height="8.30" fill="#d64545" opacity="0.55" />
<rect x="575.45" y="392.73" width="2.28" height="3.26" fill="#d64545" opacity="0.55" />
<rect x="578.72" y="390.03" width="2.28" height="2.71" fill="#2f9e44" opacity="0.55" />
<rect x="581.99" y="384.93" width="2.28" height="7.81" fill="#2f9e44" opacity="0.55" />
<rect x="585.27" y="383.43" width="2.28" height="9.30" fill="#2f9e44" opacity="0.55" />
<rect x="588.54" y="377.70" width="2.28" height="15.03" fill="#2f9e44" opacity="0.55" />
<rect x="591.82" y="373.99" width="2.28" height="18.74" fill="#2f9e44" opacity="0.55" />
<rect x="595.09" y="373.34" width="2.28" height="19.39" fill="#2f9e44" opacity="0.55" />
<rect x="598.36" y="377.37" width="2.28" height="15.36" fill="#2f9e44" opacity="0.55" />
<rect x="601.64" y="383.12" width="2.28" height="9.61" fill="#2f9e44" opacity="0.55" />
<rect x="604.91" y="392.73" width="2.28" height="0.57" fill="#d64545" opacity="0.55" />
<rect x="608.19" y="392.73" width="2.28" height="2.96" fill="#d64545" opacity="0.55" />
<rect x="611.46" y="392.73" width="2.28" height="6.81" fill="#d64545" opacity="0.55" />
<rect x="614.73" y="392.73" width="2.28" height="13.19" fill="#d64545" opacity="0.55" />
<rect x="618.01" y="392.73" width="2.28" height="14.30" fill="#d64545" opacity="0.55" />
<rect x="621.28" y="392.73" width="2.28" height="12.96" fill="#d64545" opacity="0.55" />
<rect x="624.56" y="392.73" width="2.28" height="13.67" fill="#d64545" opacity="0.55" />
<rect x="627.83" y="392.73" width="2.28" height="12.67" fill="#d64545" opacity="0.55" />
<rect x="631.11" y="392.73" width="2.28" height="12.42" fill="#d64545" opacity="0.55" />
<rect x="634.38" y="392.73" width="2.28" height="11.17" fill="#d64545" opacity="0.55" />
<rect x="637.65" y="392.73" width="2.28" height="7.42" fill="#d64545" opacity="0.55" />
<rect x="640.93" y="392.73" width="2.28" height="6.78" fill="#d64545" opacity="0.55" />
<rect x="644.20" y="392.73" width="2.28" height="6.82" fill="#d64545" opacity="0.55" />
<rect x="647.48" y="392.73" width="2.28" height="9.26" fill="#d64545" opacity="0.55" />
<rect x="650.75" y="392.73" width="2.28" height="10.01" fill="#d64545" opacity="0.55" />
<rect x="654.02" y="392.73" width="2.28" height="6.80" fill="#d64545" opacity="0.55" />
<rect x="657.30" y="392.73" width="2.28" height="3.41" fill="#d64545" opacity="0.55" />
<rect x="660.57" y="392.73" width="2.28" height="2.25" fill="#d64545" opacity="0.55" />
<rect x="663.85" y="392.73" width="2.28" height="1.59" fill="#d64545" opacity="0.55" />
<rect x="667.12" y="392.73" width="2.28" height="5.60" fill="#d64545" opacity="0.55" />
<rect x="670.40" y="392.73" width="2.28" height="2.36" fill="#d64545" opacity="0.55" />
<rect x="673.67" y="392.73" width="2.28" height="0.37" fill="#d64545" opacity="0.55" />
<rect x="676.94" y="392.73" width="2.28" height="0.82" fill="#d64545" opacity="0.55" />
<rect x="680.22" y="388.59" width="2.28" height="4.15" fill="#2f9e44" opacity="0.55" />
<rect x="683.49" y="384.30" width="2.28" height="8.44" fill="#2f9e44" opacity="0.55" />
<rect x="686.77" y="382.07" width="2.28" height="10.67" fill="#2f9e44" opacity="0.55" />
<rect x="690.04" y="377.20" width="2.28" height="15.54" fill="#2f9e44" opacity="0.55" />
<rect x="693.31" y="374.08" width="2.28" height="18.65" fill="#2f9e44" opacity="0.55" />
<rect x="696.59" y="369.50" width="2.28" height="23.24" fill="#2f9e44" opacity="0.55" />
<rect x="699.86" y="367.50" width="2.28" height="25.24" fill="#2f9e44" opacity="0.55" />
<rect x="703.14" y="369.44" width="2.28" height="23.30" fill="#2f9e44" opacity="0.55" />
<rect x="706.41" y="368.95" width="2.28" height="23.79" fill="#2f9e44" opacity="0.55" />
<rect x="709.68" y="368.58" width="2.28" height="24.15" fill="#2f9e44" opacity="0.55" />
<rect x="712.96" y="371.39" width="2.28" height="21.34" fill="#2f9e44" opacity="0.55" />
<rect x="716.23" y="374.97" width="2.28" height="17.76" fill="#2f9e44" opacity="0.55" />
<rect x="719.51" y="373.34" width="2.28" height="19.39" fill="#2f9e44" opacity="0.55" />
<rect x="722.78" y="374.12" width="2.28" height="18.61" fill="#2f9e44" opacity="0.55" />
<rect x="726.06" y="376.32" width="2.28" height="16.41" fill="#2f9e44" opacity="0.55" />
<rect x="729.33" y="380.55" width="2.28" height="12.18" fill="#2f9e44" opacity="0.55" />
<rect x="732.60" y="386.47" width="2.28" height="6.27" fill="#2f9e44" opacity="0.55" />
<rect x="735.88" y="383.18" width="2.28" height="9.56" fill="#2f9e44" opacity="0.55" />
<rect x="739.15" y="383.32" width="2.28" height="9.41" fill="#2f9e44" opacity="0.55" />
<rect x="742.43" y="384.08" width="2.28" height="8.66" fill="#2f9e44" opacity="0.55" />
<rect x="745.70" y="383.11" width="2.28" height="9.62" fill="#2f9e44" opacity="0.55" />
<rect x="748.97" y="388.08" width="2.28" height="4.66" fill="#2f9e44" opacity="0.55" />
<rect x="752.25" y="388.71" width="2.28" height="4.03" fill="#2f9e44" opacity="0.55" />
<rect x="755.52" y="387.12" width="2.28" height="5.62" fill="#2f9e44" opacity="0.55" />
<rect x="758.80" y="388.56" width="2.28" height="4.17" fill="#2f9e44" opacity="0.55" />
<rect x="762.07" y="390.64" width="2.28" height="2.10" fill="#2f9e44" opacity="0.55" />
<rect x="765.34" y="392.73" width="2.28" height="0.43" fill="#d64545" opacity="0.55" />
<rect x="768.62" y="392.73" width="2.28" height="9.36" fill="#d64545" opacity="0.55" />
<rect x="771.89" y="392.73" width="2.28" height="21.97" fill="#d64545" opacity="0.55" />
<rect x="775.17" y="392.73" width="2.28" height="28.91" fill="#d64545" opacity="0.55" />
<rect x="778.44" y="392.73" width="2.28" height="26.67" fill="#d64545" opacity="0.55" />
<rect x="781.72" y="392.73" width="2.28" height="15.78" fill="#d64545" opacity="0.55" />
<rect x="784.99" y="391.87" width="2.28" height="0.86" fill="#2f9e44" opacity="0.55" />
<rect x="788.26" y="383.25" width="2.28" height="9.49" fill="#2f9e44" opacity="0.55" />
<rect x="791.54" y="373.71" width="2.28" height="19.03" fill="#2f9e44" opacity="0.55" />
<rect x="794.81" y="372.10" width="2.28" height="20.63" fill="#2f9e44" opacity="0.55" />
<rect x="798.09" y="375.78" width="2.28" height="16.95" fill="#2f9e44" opacity="0.55" />
<rect x="801.36" y="381.58" width="2.28" height="11.16" fill="#2f9e44" opacity="0.55" />
<rect x="804.63" y="388.59" width="2.28" height="4.14" fill="#2f9e44" opacity="0.55" />
<rect x="807.91" y="389.26" width="2.28" height="3.47" fill="#2f9e44" opacity="0.55" />
<rect x="811.18" y="392.73" width="2.28" height="2.37" fill="#d64545" opacity="0.55" />
<rect x="814.46" y="392.73" width="2.28" height="9.58" fill="#d64545" opacity="0.55" />
<rect x="817.73" y="392.73" width="2.28" height="20.90" fill="#d64545" opacity="0.55" />
<rect x="821.01" y="392.73" width="2.28" height="22.70" fill="#d64545" opacity="0.55" />
<rect x="824.28" y="392.73" width="2.28" height="28.63" fill="#d64545" opacity="0.55" />
<rect x="827.55" y="392.73" width="2.28" height="30.69" fill="#d64545" opacity="0.55" />
<rect x="830.83" y="392.73" width="2.28" height="23.06" fill="#d64545" opacity="0.55" />
<rect x="834.10" y="392.73" width="2.28" height="17.66" fill="#d64545" opacity="0.55" />
<rect x="837.38" y="392.73" width="2.28" height="13.56" fill="#d64545" opacity="0.55" />
<rect x="840.65" y="392.73" width="2.28" height="10.29" fill="#d64545" opacity="0.55" />
<rect x="843.92" y="392.73" width="2.28" height="5.08" fill="#d64545" opacity="0.55" />
<rect x="847.20" y="384.20" width="2.28" height="8.53" fill="#2f9e44" opacity="0.55" />
<rect x="850.47" y="378.71" width="2.28" height="14.02" fill="#2f9e44" opacity="0.55" />
<rect x="853.75" y="378.10" width="2.28" height="14.63" fill="#2f9e44" opacity="0.55" />
<rect x="857.02" y="381.14" width="2.28" height="11.59" fill="#2f9e44" opacity="0.55" />
<rect x="860.29" y="385.82" width="2.28" height="6.92" fill="#2f9e44" opacity="0.55" />
<rect x="863.57" y="390.59" width="2.28" height="2.14" fill="#2f9e44" opacity="0.55" />
<rect x="866.84" y="385.14" width="2.28" height="7.60" fill="#2f9e44" opacity="0.55" />
<rect x="870.12" y="378.77" width="2.28" height="13.96" fill="#2f9e44" opacity="0.55" />
<rect x="873.39" y="372.03" width="2.28" height="20.71" fill="#2f9e44" opacity="0.55" />
<rect x="876.67" y="376.32" width="2.28" height="16.41" fill="#2f9e44" opacity="0.55" />
<rect x="879.94" y="381.15" width="2.28" height="11.58" fill="#2f9e44" opacity="0.55" />
<rect x="883.21" y="390.46" width="2.28" height="2.27" fill="#2f9e44" opacity="0.55" />
<rect x="886.49" y="392.73" width="2.28" height="9.02" fill="#d64545" opacity="0.55" />
<rect x="889.76" y="392.73" width="2.28" height="7.30" fill="#d64545" opacity="0.55" />
<rect x="893.04" y="392.73" width="2.28" height="6.59" fill="#d64545" opacity="0.55" />
<rect x="896.31" y="392.73" width="2.28" height="7.75" fill="#d64545" opacity="0.55" />
<rect x="899.58" y="392.73" width="2.28" height="13.87" fill="#d64545" opacity="0.55" />
<rect x="902.86" y="392.73" width="2.28" height="10.32" fill="#d64545" opacity="0.55" />
<polyline fill="none" stroke="#1f77b4" stroke-width="2" points="137.85,384.16 141.13,384.14 144.40,384.43 147.68,385.08 150.95,385.57 154.22,387.12 157.50,388.61 160.77,390.15 164.05,390.74 167.32,391.00 170.59,390.80 173.87,391.31 177.14,391.62 180.42,391.98 183.69,392.27 186.97,391.97 190.24,392.17 193.51,393.09 196.79,394.03 200.06,394.85 203.34,394.39 206.61,393.91 209.88,393.19 213.16,393.27 216.43,392.57 219.71,390.94 222.98,389.46 226.25,388.35 229.53,388.17 232.80,387.65 236.08,383.95 239.35,382.12 242.63,380.37 245.90,379.69 249.17,379.19 252.45,379.07 255.72,378.48 259.00,378.28 262.27,378.08 265.54,378.09 268.82,377.72 272.09,377.17 275.37,377.45 278.64,377.85 281.92,379.74 285.19,381.70 288.46,383.57 291.74,384.82 295.01,385.67 298.29,384.68 301.56,383.79 304.83,382.21 308.11,382.40 311.38,383.42 314.66,382.48 317.93,378.94 321.20,375.35 324.48,371.87 327.75,370.47 331.03,370.05 334.30,369.33 337.58,367.63 340.85,366.48 344.12,361.97 347.40,357.93 350.67,350.28 353.95,345.10 357.22,343.10 360.49,342.96 363.77,343.64 367.04,345.92 370.32,348.24 373.59,350.68 376.86,353.28 380.14,354.79 383.41,358.36 386.69,362.09 389.96,366.44 393.24,371.35 396.51,372.61 399.78,376.76 403.06,379.87 406.33,382.12 409.61,382.82 412.88,380.66 416.15,379.33 419.43,379.52 422.70,378.95 425.98,378.55 429.25,378.62 432.53,378.19 435.80,376.60 439.07,375.01 442.35,372.98 445.62,371.62 448.90,371.01 452.17,372.84 455.44,375.58 458.72,378.03 461.99,381.53 465.27,382.77 468.54,383.32 471.81,383.31 475.09,383.41 478.36,382.30 481.64,379.27 484.91,377.49 488.19,375.94 491.46,373.29 494.73,370.25 498.01,366.39 501.28,362.90 504.56,360.84 507.83,359.91 511.10,357.18 514.38,354.03 517.65,350.93 520.93,348.10 524.20,345.32 527.47,344.65 530.75,345.32 534.02,347.47 537.30,348.16 540.57,347.15 543.85,345.90 547.12,346.65 550.39,346.13 553.67,347.13 556.94,351.24 560.22,356.02 563.49,358.02 566.76,359.87 570.04,365.70 573.31,366.14 576.59,361.91 579.86,355.27 583.14,348.22 586.41,344.40 589.68,334.91 592.96,326.51 596.23,321.02 599.51,321.21 602.78,324.55 606.05,334.88 609.33,338.00 612.60,343.56 615.88,353.24 619.15,357.92 622.42,359.82 625.70,363.95 628.97,366.11 632.25,368.97 635.52,370.51 638.80,368.61 642.07,369.68 645.34,371.42 648.62,376.17 651.89,379.43 655.17,377.91 658.44,375.38 661.71,374.78 664.99,374.52 668.26,379.93 671.54,377.28 674.81,375.38 678.08,376.04 681.36,370.03 684.63,363.64 687.91,358.74 691.18,349.98 694.46,342.20 697.73,331.81 701.00,323.50 704.28,319.61 707.55,313.18 710.83,306.77 714.10,304.25 717.37,303.39 720.65,296.91 723.92,293.04 727.20,291.14 730.47,292.32 733.75,296.67 737.02,290.99 740.29,288.78 743.57,287.37 746.84,284.00 750.12,287.80 753.39,287.42 756.66,284.43 759.94,284.84 763.21,286.38 766.49,289.02 769.76,300.29 773.03,318.39 776.31,332.56 779.58,336.98 782.86,330.04 786.13,313.19 789.41,302.19 792.68,287.89 795.95,281.13 799.23,280.57 802.50,283.58 805.78,289.56 809.05,289.36 812.32,295.79 815.60,305.40 818.87,321.94 822.15,329.42 825.42,342.50 828.69,352.24 831.97,350.37 835.24,349.39 838.52,348.68 841.79,347.98 845.07,344.04 848.34,328.30 851.61,319.30 854.89,315.03 858.16,315.17 861.44,318.12 864.71,322.36 867.98,315.01 871.26,305.15 874.53,293.23 877.81,293.42 881.08,295.35 884.36,304.10 887.63,317.64 890.90,317.74 894.18,318.68 897.45,321.79 900.73,331.37 904.00,330.39" />
<polyline fill="none" stroke="#ff7f0e" stroke-width="2" points="137.85,384.16 141.13,384.16 144.40,384.21 147.68,384.38 150.95,384.62 154.22,385.12 157.50,385.82 160.77,386.68 164.05,387.50 167.32,388.20 170.59,388.72 173.87,389.24 177.14,389.71 180.42,390.17 183.69,390.59 186.97,390.86 190.24,391.13 193.51,391.52 196.79,392.02 200.06,392.59 203.34,392.95 206.61,393.14 209.88,393.15 213.16,393.17 216.43,393.05 219.71,392.63 222.98,391.99 226.25,391.27 229.53,390.65 232.80,390.05 236.08,388.83 239.35,387.49 242.63,386.06 245.90,384.79 249.17,383.67 252.45,382.75 255.72,381.89 259.00,381.17 262.27,380.55 265.54,380.06 268.82,379.59 272.09,379.11 275.37,378.78 278.64,378.59 281.92,378.82 285.19,379.40 288.46,380.23 291.74,381.15 295.01,382.05 298.29,382.58 301.56,382.82 304.83,382.70 308.11,382.64 311.38,382.79 314.66,382.73 317.93,381.97 321.20,380.65 324.48,378.89 327.75,377.21 331.03,375.78 334.30,374.49 337.58,373.12 340.85,371.79 344.12,369.82 347.40,367.45 350.67,364.01 353.95,360.23 357.22,356.80 360.49,354.04 363.77,351.96 367.04,350.75 370.32,350.25 373.59,350.34 376.86,350.92 380.14,351.70 383.41,353.03 386.69,354.84 389.96,357.16 393.24,360.00 396.51,362.52 399.78,365.37 403.06,368.27 406.33,371.04 409.61,373.40 412.88,374.85 416.15,375.74 419.43,376.50 422.70,376.99 425.98,377.30 429.25,377.57 432.53,377.69 435.80,377.47 439.07,376.98 442.35,376.18 445.62,375.27 448.90,374.42 452.17,374.10 455.44,374.40 458.72,375.12 461.99,376.41 465.27,377.68 468.54,378.81 471.81,379.71 475.09,380.45 478.36,380.82 481.64,380.51 484.91,379.90 488.19,379.11 491.46,377.95 494.73,376.41 498.01,374.40 501.28,372.10 504.56,369.85 507.83,367.86 511.10,365.73 514.38,363.39 517.65,360.89 520.93,358.34 524.20,355.73 527.47,353.52 530.75,351.88 534.02,351.00 537.30,350.43 540.57,349.77 543.85,349.00 547.12,348.53 550.39,348.05 553.67,347.86 556.94,348.54 560.22,350.04 563.49,351.63 566.76,353.28 570.04,355.76 573.31,357.84 576.59,358.65 579.86,357.98 583.14,356.03 586.41,353.70 589.68,349.94 592.96,345.26 596.23,340.41 599.51,336.57 602.78,334.16 606.05,334.31 609.33,335.05 612.60,336.75 615.88,340.05 619.15,343.62 622.42,346.86 625.70,350.28 628.97,353.45 632.25,356.55 635.52,359.34 638.80,361.20 642.07,362.89 645.34,364.60 648.62,366.91 651.89,369.42 655.17,371.12 658.44,371.97 661.71,372.53 664.99,372.93 668.26,374.33 671.54,374.92 674.81,375.01 678.08,375.22 681.36,374.18 684.63,372.07 687.91,369.40 691.18,365.52 694.46,360.86 697.73,355.05 701.00,348.74 704.28,342.91 707.55,336.97 710.83,330.93 714.10,325.59 717.37,321.15 720.65,316.30 723.92,311.65 727.20,307.55 730.47,304.50 733.75,302.94 737.02,300.55 740.29,298.19 743.57,296.03 746.84,293.63 750.12,292.46 753.39,291.45 756.66,290.05 759.94,289.01 763.21,288.48 766.49,288.59 769.76,290.93 773.03,296.42 776.31,303.65 779.58,310.32 782.86,314.26 786.13,314.05 789.41,311.67 792.68,306.92 795.95,301.76 799.23,297.52 802.50,294.73 805.78,293.70 809.05,292.83 812.32,293.42 815.60,295.82 818.87,301.04 822.15,306.72 825.42,313.88 828.69,321.55 831.97,327.31 835.24,331.73 838.52,335.12 841.79,337.69 845.07,338.96 848.34,336.83 851.61,333.32 854.89,329.66 858.16,326.77 861.44,325.04 864.71,324.50 867.98,322.60 871.26,319.11 874.53,313.93 877.81,309.83 881.08,306.94 884.36,306.37 887.63,308.62 890.90,310.45 894.18,312.09 897.45,314.03 900.73,317.50 904.00,320.08" />
<text x="754.00" y="290.00" font-size="13" font-family="Arial" fill="#1f77b4" text-anchor="start">MACD</text>
<text x="818.00" y="290.00" font-size="13" font-family="Arial" fill="#ff7f0e" text-anchor="start">Signal</text>
<line x1="56" y1="624" x2="904" y2="624" stroke="#cbd2d9" />
<line x1="56" y1="484" x2="56" y2="624" stroke="#cbd2d9" />
<text x="16.00" y="476.00" font-size="12" font-family="Arial" fill="#52606d" text-anchor="start">KD</text>
<line x1="56" y1="624.00" x2="904" y2="624.00" stroke="#edf2f7" />
<line x1="52" y1="624.00" x2="56" y2="624.00" stroke="#9fb3c8" />
<text x="48.00" y="628.00" font-size="11" font-family="Arial" fill="#52606d" text-anchor="end">-5.00</text>
<line x1="56" y1="577.33" x2="904" y2="577.33" stroke="#edf2f7" />
<line x1="52" y1="577.33" x2="56" y2="577.33" stroke="#9fb3c8" />
<text x="48.00" y="581.33" font-size="11" font-family="Arial" fill="#52606d" text-anchor="end">31.7</text>
<line x1="56" y1="530.67" x2="904" y2="530.67" stroke="#edf2f7" />
<line x1="52" y1="530.67" x2="56" y2="530.67" stroke="#9fb3c8" />
<text x="48.00" y="534.67" font-size="11" font-family="Arial" fill="#52606d" text-anchor="end">68.3</text>
<line x1="56" y1="484.00" x2="904" y2="484.00" stroke="#edf2f7" />
<line x1="52" y1="484.00" x2="56" y2="484.00" stroke="#9fb3c8" />
<text x="48.00" y="488.00" font-size="11" font-family="Arial" fill="#52606d" text-anchor="end">105</text>
<line x1="56.00" y1="624" x2="56.00" y2="628" stroke="#9fb3c8" />
<text x="56.00" y="642.00" font-size="11" font-family="Arial" fill="#52606d" text-anchor="middle">06/20</text>
<line x1="226.25" y1="624" x2="226.25" y2="628" stroke="#9fb3c8" />
<text x="226.25" y="642.00" font-size="11" font-family="Arial" fill="#52606d" text-anchor="middle">09/03</text>
<line x1="396.51" y1="624" x2="396.51" y2="628" stroke="#9fb3c8" />
<text x="396.51" y="642.00" font-size="11" font-family="Arial" fill="#52606d" text-anchor="middle">11/20</text>
<line x1="563.49" y1="624" x2="563.49" y2="628" stroke="#9fb3c8" />
<text x="563.49" y="642.00" font-size="11" font-family="Arial" fill="#52606d" text-anchor="middle">02/03</text>
<line x1="733.75" y1="624" x2="733.75" y2="628" stroke="#9fb3c8" />
<text x="733.75" y="642.00" font-size="11" font-family="Arial" fill="#52606d" text-anchor="middle">04/30</text>
<line x1="904.00" y1="624" x2="904.00" y2="628" stroke="#9fb3c8" />
<text x="904.00" y="642.00" font-size="11" font-family="Arial" fill="#52606d" text-anchor="middle">07/15</text>
<line x1="56" y1="592.18" x2="904" y2="592.18" stroke="#f0b429" stroke-dasharray="5 5" />
<text x="912.00" y="596.18" font-size="10" font-family="Arial" fill="#8d2b0b" text-anchor="start">20.0</text>
<line x1="56" y1="515.82" x2="904" y2="515.82" stroke="#f0b429" stroke-dasharray="5 5" />
<text x="912.00" y="519.82" font-size="10" font-family="Arial" fill="#8d2b0b" text-anchor="start">80.0</text>
<polyline fill="none" stroke="#2ca02c" stroke-width="2" points="82.19,568.94 85.47,571.89 88.74,565.45 92.02,569.56 95.29,575.11 98.56,567.55 101.84,550.80 105.11,539.64 108.39,536.87 111.66,531.39 114.93,530.14 118.21,527.48 121.48,522.63 124.76,525.05 128.03,537.46 131.31,536.19 134.58,527.55 137.85,531.14 141.13,533.21 144.40,545.08 147.68,564.46 150.95,570.74 154.22,585.64 157.50,600.00 160.77,607.03 164.05,600.76 167.32,592.92 170.59,579.43 173.87,581.91 177.14,581.07 180.42,582.51 183.69,583.48 186.97,574.11 190.24,587.74 193.51,598.97 196.79,608.30 200.06,614.98 203.34,595.13 206.61,579.42 209.88,561.53 213.16,564.44 216.43,555.37 219.71,541.02 222.98,536.06 226.25,532.76 229.53,542.55 232.80,543.74 236.08,528.64 239.35,526.29 242.63,522.67 245.90,526.06 249.17,529.10 252.45,532.26 255.72,527.55 259.00,526.14 262.27,532.80 265.54,541.16 268.82,537.02 272.09,537.01 275.37,545.42 278.64,551.02 281.92,578.53 285.19,592.98 288.46,603.96 291.74,607.08 295.01,606.35 298.29,583.45 301.56,563.27 304.83,548.17 308.11,551.38 311.38,561.26 314.66,549.04 317.93,532.11 321.20,524.68 324.48,516.31 327.75,517.29 331.03,520.58 334.30,518.83 337.58,514.38 340.85,511.02 344.12,507.63 347.40,506.94 350.67,503.07 353.95,503.86 357.22,509.48 360.49,515.96 363.77,522.98 367.04,531.99 370.32,540.74 373.59,557.32 376.86,577.52 380.14,583.84 383.41,595.13 386.69,605.51 389.96,608.04 393.24,608.76 396.51,589.38 399.78,597.09 403.06,599.94 406.33,599.54 409.61,584.84 412.88,562.41 416.15,548.93 419.43,547.32 422.70,540.35 425.98,534.96 429.25,534.63 432.53,529.36 435.80,521.93 439.07,525.24 442.35,521.23 445.62,519.97 448.90,522.21 452.17,540.69 455.44,561.96 458.72,577.03 461.99,589.84 465.27,587.31 468.54,581.94 471.81,574.67 475.09,569.83 478.36,547.74 481.64,534.03 484.91,527.39 488.19,523.14 491.46,521.17 494.73,514.56 498.01,510.89 501.28,511.53 504.56,513.73 507.83,518.17 511.10,521.60 514.38,518.93 517.65,513.25 520.93,508.06 524.20,509.16 527.47,513.91 530.75,519.77 534.02,528.14 537.30,532.26 540.57,531.82 543.85,526.83 547.12,532.72 550.39,527.79 553.67,531.21 556.94,553.37 560.22,573.54 563.49,572.49 566.76,571.07 570.04,583.92 573.31,570.10 576.59,548.48 579.86,538.71 583.14,526.69 586.41,527.77 589.68,517.32 592.96,510.79 596.23,507.67 599.51,513.77 602.78,526.64 606.05,557.57 609.33,562.23 612.60,572.40 615.88,582.99 619.15,582.47 622.42,577.24 625.70,576.96 628.97,571.96 632.25,564.29 635.52,555.32 638.80,540.41 642.07,538.49 645.34,548.15 648.62,563.67 651.89,571.19 655.17,557.77 658.44,544.46 661.71,540.45 664.99,537.78 668.26,558.12 671.54,542.92 674.81,538.63 678.08,546.63 681.36,531.98 684.63,522.00 687.91,516.41 691.18,513.82 694.46,512.58 697.73,511.62 701.00,509.70 704.28,512.52 707.55,511.24 710.83,507.98 714.10,509.20 717.37,519.62 720.65,514.43 723.92,521.16 727.20,526.49 730.47,533.76 733.75,549.85 737.02,532.94 740.29,532.59 743.57,530.45 746.84,527.82 750.12,538.49 753.39,535.28 756.66,531.87 759.94,533.14 763.21,537.49 766.49,544.84 769.76,566.21 773.03,585.05 776.31,593.42 779.58,586.47 782.86,563.02 786.13,540.36 789.41,531.27 792.68,524.46 795.95,523.01 799.23,525.34 802.50,528.95 805.78,536.83 809.05,537.90 812.32,559.58 815.60,575.06 818.87,584.95 822.15,583.28 825.42,589.90 828.69,592.17 831.97,577.01 835.24,566.91 838.52,556.37 841.79,548.12 845.07,535.27 848.34,522.00 851.61,521.88 854.89,523.92 858.16,534.38 861.44,544.34 864.71,552.63 867.98,540.61 871.26,531.00 874.53,520.54 877.81,527.38 881.08,533.02 884.36,546.84 887.63,565.41 890.90,559.09 894.18,556.99 897.45,558.40 900.73,567.09 904.00,553.58" />
<polyline fill="none" stroke="#d62728" stroke-width="2" points="82.19,558.98 85.47,563.28 88.74,564.01 92.02,565.86 95.29,568.94 98.56,568.48 101.84,562.59 105.11,554.94 108.39,548.92 111.66,543.07 114.93,538.76 118.21,535.00 121.48,530.88 124.76,528.93 128.03,531.78 131.31,533.25 134.58,531.35 137.85,531.28 141.13,531.92 144.40,536.31 147.68,545.69 150.95,554.04 154.22,564.57 157.50,576.38 160.77,586.60 164.05,591.32 167.32,591.85 170.59,587.71 173.87,585.78 177.14,584.21 180.42,583.64 183.69,583.59 186.97,580.43 190.24,582.87 193.51,588.23 196.79,594.92 200.06,601.61 203.34,599.45 206.61,592.77 209.88,582.36 213.16,576.39 216.43,569.38 219.71,559.93 222.98,551.97 226.25,545.57 229.53,544.56 232.80,544.29 236.08,539.07 239.35,534.81 242.63,530.76 245.90,529.20 249.17,529.16 252.45,530.19 255.72,529.31 259.00,528.25 262.27,529.77 265.54,533.57 268.82,534.72 272.09,535.48 275.37,538.79 278.64,542.87 281.92,554.75 285.19,567.50 288.46,579.65 291.74,588.79 295.01,594.65 298.29,590.91 301.56,581.70 304.83,570.52 308.11,564.14 311.38,563.18 314.66,558.47 317.93,549.68 321.20,541.35 324.48,533.00 327.75,527.77 331.03,525.37 334.30,523.19 337.58,520.25 340.85,517.18 344.12,513.99 347.40,511.64 350.67,508.79 353.95,507.14 357.22,507.92 360.49,510.60 363.77,514.73 367.04,520.48 370.32,527.24 373.59,537.26 376.86,550.68 380.14,561.73 383.41,572.87 386.69,583.75 389.96,591.84 393.24,597.48 396.51,594.78 399.78,595.55 403.06,597.01 406.33,597.86 409.61,593.52 412.88,583.15 416.15,571.74 419.43,563.60 422.70,555.85 425.98,548.89 429.25,544.14 432.53,539.21 435.80,533.45 439.07,530.72 442.35,527.55 445.62,525.02 448.90,524.08 452.17,529.62 455.44,540.40 458.72,552.61 461.99,565.02 465.27,572.45 468.54,575.62 471.81,575.30 475.09,573.48 478.36,564.90 481.64,554.61 484.91,545.54 488.19,538.07 491.46,532.44 494.73,526.48 498.01,521.28 501.28,518.03 504.56,516.60 507.83,517.12 511.10,518.62 514.38,518.72 517.65,516.90 520.93,513.95 524.20,512.35 527.47,512.87 530.75,515.17 534.02,519.49 537.30,523.75 540.57,526.44 543.85,526.57 547.12,528.62 550.39,528.34 553.67,529.30 556.94,537.32 560.22,549.40 563.49,557.10 566.76,561.75 570.04,569.14 573.31,569.46 576.59,562.47 579.86,554.55 583.14,545.26 586.41,539.43 589.68,532.06 592.96,524.97 596.23,519.20 599.51,517.39 602.78,520.47 606.05,532.84 609.33,542.64 612.60,552.56 615.88,562.70 619.15,569.29 622.42,571.94 625.70,573.61 628.97,573.06 632.25,570.14 635.52,565.20 638.80,556.93 642.07,550.79 645.34,549.91 648.62,554.50 651.89,560.06 655.17,559.30 658.44,554.35 661.71,549.72 664.99,545.74 668.26,549.87 671.54,547.55 674.81,544.58 678.08,545.26 681.36,540.84 684.63,534.56 687.91,528.51 691.18,523.61 694.46,519.93 697.73,517.16 701.00,514.68 704.28,513.96 707.55,513.05 710.83,511.36 714.10,510.64 717.37,513.63 720.65,513.90 723.92,516.32 727.20,519.71 730.47,524.39 733.75,532.88 737.02,532.90 740.29,532.80 743.57,532.01 746.84,530.61 750.12,533.24 753.39,533.92 756.66,533.24 759.94,533.21 763.21,534.63 766.49,538.03 769.76,547.43 773.03,559.97 776.31,571.12 779.58,576.24 782.86,571.83 786.13,561.34 789.41,551.32 792.68,542.37 795.95,535.91 799.23,532.39 802.50,531.24 805.78,533.11 809.05,534.71 812.32,543.00 815.60,553.68 818.87,564.11 822.15,570.50 825.42,576.96 828.69,582.03 831.97,580.36 835.24,575.87 838.52,569.37 841.79,562.29 845.07,553.28 848.34,542.85 851.61,535.86 854.89,531.88 858.16,532.71 861.44,536.59 864.71,541.93 867.98,541.49 871.26,538.00 874.53,532.18 877.81,530.58 881.08,531.39 884.36,536.54 887.63,546.16 890.90,550.47 894.18,552.65 897.45,554.56 900.73,558.74 904.00,557.02" />
<text x="824.00" y="502.00" font-size="13" font-family="Arial" fill="#2ca02c" text-anchor="start">K</text>
<text x="860.00" y="502.00" font-size="13" font-family="Arial" fill="#d62728" text-anchor="start">D</text>
</svg>