<svg xmlns="http://www.w3.org/2000/svg" width="960" height="680" viewBox="0 0 960 680"><rect width="100%" height="100%" fill="white" />
<text x="56.00" y="32.00" font-size="20" font-family="Arial" fill="#1f2933" text-anchor="start">緯穎(6669) Technical Indicators</text>
<line x1="56" y1="220" x2="904" y2="220" stroke="#cbd2d9" />
<line x1="56" y1="58" x2="56" y2="220" stroke="#cbd2d9" />
<text x="16.00" y="50.00" font-size="12" font-family="Arial" fill="#52606d" text-anchor="start">RSI14</text>
<line x1="56" y1="220.00" x2="904" y2="220.00" stroke="#edf2f7" />
<line x1="52" y1="220.00" x2="56" y2="220.00" stroke="#9fb3c8" />
<text x="48.00" y="224.00" font-size="11" font-family="Arial" fill="#52606d" text-anchor="end">-5.00</text>
<line x1="56" y1="166.00" x2="904" y2="166.00" stroke="#edf2f7" />
<line x1="52" y1="166.00" x2="56" y2="166.00" stroke="#9fb3c8" />
<text x="48.00" y="170.00" font-size="11" font-family="Arial" fill="#52606d" text-anchor="end">31.7</text>
<line x1="56" y1="112.00" x2="904" y2="112.00" stroke="#edf2f7" />
<line x1="52" y1="112.00" x2="56" y2="112.00" stroke="#9fb3c8" />
<text x="48.00" y="116.00" font-size="11" font-family="Arial" fill="#52606d" text-anchor="end">68.3</text>
<line x1="56" y1="58.00" x2="904" y2="58.00" stroke="#edf2f7" />
<line x1="52" y1="58.00" x2="56" y2="58.00" stroke="#9fb3c8" />
<text x="48.00" y="62.00" font-size="11" font-family="Arial" fill="#52606d" text-anchor="end">105</text>
<line x1="56" y1="168.45" x2="904" y2="168.45" stroke="#f0b429" stroke-dasharray="5 5" />
<text x="912.00" y="172.45" font-size="10" font-family="Arial" fill="#8d2b0b" text-anchor="start">30.0</text>
<line x1="56" y1="109.55" x2="904" y2="109.55" stroke="#f0b429" stroke-dasharray="5 5" />
<text x="912.00" y="113.55" font-size="10" font-family="Arial" fill="#8d2b0b" text-anchor="start">70.0</text>
<polyline fill="none" stroke="#1f77b4" stroke-width="2" points="101.84,138.63 105.11,138.63 108.39,142.97 111.66,127.32 114.93,124.13 118.21,123.21 121.48,140.24 124.76,134.66 128.03,136.33 131.31,141.78 134.58,128.64 137.85,135.51 141.13,140.87 144.40,143.23 147.68,136.67 150.95,136.17 154.22,128.20 157.50,125.62 160.77,123.89 164.05,115.08 167.32,129.20 170.59,121.22 173.87,119.88 177.14,117.53 180.42,112.53 183.69,99.85 186.97,96.81 190.24,93.57 193.51,93.30 196.79,99.14 200.06,96.51 203.34,109.47 206.61,134.50 209.88,132.05 213.16,135.95 216.43,131.36 219.71,131.07 222.98,136.10 226.25,136.82 229.53,137.58 232.80,146.81 236.08,142.86 239.35,139.76 242.63,138.96 245.90,132.06 249.17,125.33 252.45,135.03 255.72,118.46 259.00,118.46 262.27,124.15 265.54,125.77 268.82,127.45 272.09,130.84 275.37,128.15 278.64,126.13 281.92,135.49 285.19,134.34 288.46,139.50 291.74,138.21 295.01,142.18 298.29,122.77 301.56,124.13 304.83,123.18 308.11,114.65 311.38,112.41 314.66,119.98 317.93,126.08 321.20,122.35 324.48,117.73 327.75,105.31 331.03,103.11 334.30,110.12 337.58,106.53 340.85,100.59 344.12,100.59 347.40,99.36 350.67,104.44 353.95,103.34 357.22,102.41 360.49,96.19 363.77,94.39 367.04,99.84 370.32,101.49 373.59,115.31 376.86,108.66 380.14,127.89 383.41,118.40 386.69,105.68 389.96,115.16 393.24,120.65 396.51,129.70 399.78,127.15 403.06,137.25 406.33,136.43 409.61,131.16 412.88,139.47 416.15,142.19 419.43,136.09 422.70,125.77 425.98,125.77 429.25,121.69 432.53,128.81 435.80,126.95 439.07,122.63 442.35,125.64 445.62,120.57 448.90,123.74 452.17,129.87 455.44,129.65 458.72,129.95 461.99,136.73 465.27,142.90 468.54,149.17 471.81,148.24 475.09,148.24 478.36,141.12 481.64,143.17 484.91,142.83 488.19,143.80 491.46,139.35 494.73,135.77 498.01,132.61 501.28,126.69 504.56,127.14 507.83,123.22 511.10,118.67 514.38,115.55 517.65,117.72 520.93,149.13 524.20,156.23 527.47,164.10 530.75,159.74 534.02,160.36 537.30,165.17 540.57,168.95 543.85,170.67 547.12,172.86 550.39,159.81 553.67,162.66 556.94,152.18 560.22,158.27 563.49,157.91 566.76,156.77 570.04,163.12 573.31,160.71 576.59,151.54 579.86,153.83 583.14,157.29 586.41,154.46 589.68,155.28 592.96,150.57 596.23,146.02 599.51,139.80 602.78,138.66 606.05,124.10 609.33,128.88 612.60,120.82 615.88,121.24 619.15,138.29 622.42,123.01 625.70,123.34 628.97,139.60 632.25,138.09 635.52,127.69 638.80,133.27 642.07,134.07 645.34,137.57 648.62,139.73 651.89,146.85 655.17,149.69 658.44,147.16 661.71,154.66 664.99,149.47 668.26,147.23 671.54,159.97 674.81,162.47 678.08,163.37 681.36,165.89 684.63,157.20 687.91,157.63 691.18,158.30 694.46,145.88 697.73,145.22 701.00,141.86 704.28,140.84 707.55,133.61 710.83,136.12 714.10,137.59 717.37,130.52 720.65,120.79 723.92,110.77 727.20,106.44 730.47,114.22 733.75,102.84 737.02,97.50 740.29,103.41 743.57,102.39 746.84,113.27 750.12,108.30 753.39,114.52 756.66,108.81 759.94,113.98 763.21,106.20 766.49,103.34 769.76,95.92 773.03,106.35 776.31,112.97 779.58,125.83 782.86,126.76 786.13,134.03 789.41,133.41 792.68,121.53 795.95,117.47 799.23,115.62 802.50,128.14 805.78,134.85 809.05,138.71 812.32,125.91 815.60,124.34 818.87,125.72 822.15,122.70 825.42,123.85 828.69,121.53 831.97,135.61 835.24,134.86 838.52,142.46 841.79,147.28 845.07,148.72 848.34,146.79 851.61,147.44 854.89,139.57 858.16,137.70 861.44,142.79 864.71,149.19 867.98,151.53 871.26,153.55 874.53,161.56 877.81,147.91 881.08,145.66 884.36,131.55 887.63,126.75 890.90,124.92 894.18,133.87 897.45,134.62 900.73,133.40 904.00,133.83" />
<text x="808.00" y="76.00" font-size="13" font-family="Arial" fill="#1f77b4" text-anchor="start">RSI14</text>
<line x1="56" y1="432" x2="904" y2="432" stroke="#cbd2d9" />
<line x1="56" y1="272" x2="56" y2="432" stroke="#cbd2d9" />
<text x="16.00" y="264.00" font-size="12" font-family="Arial" fill="#52606d" text-anchor="start">MACD</text>
<line x1="56" y1="432.00" x2="904" y2="432.00" stroke="#edf2f7" />
<line x1="52" y1="432.00" x2="56" y2="432.00" stroke="#9fb3c8" />
<text x="48.00" y="436.00" font-size="11" font-family="Arial" fill="#52606d" text-anchor="end">-211</text>
<line x1="56" y1="378.67" x2="904" y2="378.67" stroke="#edf2f7" />
<line x1="52" y1="378.67" x2="56" y2="378.67" stroke="#9fb3c8" />
<text x="48.00" y="382.67" font-size="11" font-family="Arial" fill="#52606d" text-anchor="end">9.69</text>
<line x1="56" y1="325.33" x2="904" y2="325.33" stroke="#edf2f7" />
<line x1="52" y1="325.33" x2="56" y2="325.33" stroke="#9fb3c8" />
<text x="48.00" y="329.33" font-size="11" font-family="Arial" fill="#52606d" text-anchor="end">230</text>
<line x1="56" y1="272.00" x2="904" y2="272.00" stroke="#edf2f7" />
<line x1="52" y1="272.00" x2="56" y2="272.00" stroke="#9fb3c8" />
<text x="48.00" y="276.00" font-size="11" font-family="Arial" fill="#52606d" text-anchor="end">450</text>
<line x1="56" y1="381.01" x2="904" y2="381.01" stroke="#9fb3c8" stroke-dasharray="4 4" />
<rect x="136.71" y="381.01" width="2.28" height="0.00" fill="#2f9e44" opacity="0.55" />
<rect x="139.99" y="381.01" width="2.28" height="0.90" fill="#d64545" opacity="0.55" />
<rect x="143.26" y="381.01" width="2.28" height="1.81" fill="#d64545" opacity="0.55" />
<rect x="146.53" y="381.01" width="2.28" height="1.33" fill="#d64545" opacity="0.55" />
<rect x="149.81" y="381.01" width="2.28" height="0.91" fill="#d64545" opacity="0.55" />
<rect x="153.08" y="380.34" width="2.28" height="0.67" fill="#2f9e44" opacity="0.55" />
<rect x="156.36" y="378.95" width="2.28" height="2.06" fill="#2f9e44" opacity="0.55" />
<rect x="159.63" y="377.91" width="2.28" height="3.10" fill="#2f9e44" opacity="0.55" />
<rect x="162.90" y="375.72" width="2.28" height="5.29" fill="#2f9e44" opacity="0.55" />
<rect x="166.18" y="376.47" width="2.28" height="4.55" fill="#2f9e44" opacity="0.55" />
<rect x="169.45" y="375.57" width="2.28" height="5.44" fill="#2f9e44" opacity="0.55" />
<rect x="172.73" y="375.06" width="2.28" height="5.96" fill="#2f9e44" opacity="0.55" />
<rect x="176.00" y="374.60" width="2.28" height="6.42" fill="#2f9e44" opacity="0.55" />
<rect x="179.28" y="373.54" width="2.28" height="7.48" fill="#2f9e44" opacity="0.55" />
<rect x="182.55" y="369.09" width="2.28" height="11.92" fill="#2f9e44" opacity="0.55" />
<rect x="185.82" y="365.64" width="2.28" height="15.38" fill="#2f9e44" opacity="0.55" />
<rect x="189.10" y="362.72" width="2.28" height="18.29" fill="#2f9e44" opacity="0.55" />
<rect x="192.37" y="361.91" width="2.28" height="19.10" fill="#2f9e44" opacity="0.55" />
<rect x="195.65" y="363.41" width="2.28" height="17.60" fill="#2f9e44" opacity="0.55" />
<rect x="198.92" y="364.37" width="2.28" height="16.64" fill="#2f9e44" opacity="0.55" />
<rect x="202.19" y="367.98" width="2.28" height="13.03" fill="#2f9e44" opacity="0.55" />
<rect x="205.47" y="376.09" width="2.28" height="4.92" fill="#2f9e44" opacity="0.55" />
<rect x="208.74" y="381.01" width="2.28" height="0.12" fill="#d64545" opacity="0.55" />
<rect x="212.02" y="381.01" width="2.28" height="4.55" fill="#d64545" opacity="0.55" />
<rect x="215.29" y="381.01" width="2.28" height="6.25" fill="#d64545" opacity="0.55" />
<rect x="218.57" y="381.01" width="2.28" height="7.26" fill="#d64545" opacity="0.55" />
<rect x="221.84" y="381.01" width="2.28" height="8.90" fill="#d64545" opacity="0.55" />
<rect x="225.11" y="381.01" width="2.28" height="9.92" fill="#d64545" opacity="0.55" />
<rect x="228.39" y="381.01" width="2.28" height="10.48" fill="#d64545" opacity="0.55" />
<rect x="231.66" y="381.01" width="2.28" height="12.50" fill="#d64545" opacity="0.55" />
<rect x="234.94" y="381.01" width="2.28" height="12.60" fill="#d64545" opacity="0.55" />
<rect x="238.21" y="381.01" width="2.28" height="11.61" fill="#d64545" opacity="0.55" />
<rect x="241.48" y="381.01" width="2.28" height="10.41" fill="#d64545" opacity="0.55" />
<rect x="244.76" y="381.01" width="2.28" height="7.92" fill="#d64545" opacity="0.55" />
<rect x="248.03" y="381.01" width="2.28" height="4.58" fill="#d64545" opacity="0.55" />
<rect x="251.31" y="381.01" width="2.28" height="4.11" fill="#d64545" opacity="0.55" />
<rect x="254.58" y="380.23" width="2.28" height="0.79" fill="#2f9e44" opacity="0.55" />
<rect x="257.85" y="377.32" width="2.28" height="3.69" fill="#2f9e44" opacity="0.55" />
<rect x="261.13" y="376.87" width="2.28" height="4.14" fill="#2f9e44" opacity="0.55" />
<rect x="264.40" y="377.25" width="2.28" height="3.76" fill="#2f9e44" opacity="0.55" />
<rect x="267.68" y="378.14" width="2.28" height="2.88" fill="#2f9e44" opacity="0.55" />
<rect x="270.95" y="379.60" width="2.28" height="1.42" fill="#2f9e44" opacity="0.55" />
<rect x="274.23" y="380.14" width="2.28" height="0.87" fill="#2f9e44" opacity="0.55" />
<rect x="277.50" y="380.24" width="2.28" height="0.77" fill="#2f9e44" opacity="0.55" />
<rect x="280.77" y="381.01" width="2.28" height="1.07" fill="#d64545" opacity="0.55" />
<rect x="284.05" y="381.01" width="2.28" height="2.10" fill="#d64545" opacity="0.55" />
<rect x="287.32" y="381.01" width="2.28" height="3.70" fill="#d64545" opacity="0.55" />
<rect x="290.60" y="381.01" width="2.28" height="4.42" fill="#d64545" opacity="0.55" />
<rect x="293.87" y="381.01" width="2.28" height="5.46" fill="#d64545" opacity="0.55" />
<rect x="297.14" y="381.01" width="2.28" height="1.97" fill="#d64545" opacity="0.55" />
<rect x="300.42" y="381.01" width="2.28" height="0.02" fill="#d64545" opacity="0.55" />
<rect x="303.69" y="379.71" width="2.28" height="1.31" fill="#2f9e44" opacity="0.55" />
<rect x="306.97" y="376.81" width="2.28" height="4.20" fill="#2f9e44" opacity="0.55" />
<rect x="310.24" y="374.68" width="2.28" height="6.34" fill="#2f9e44" opacity="0.55" />
<rect x="313.51" y="374.94" width="2.28" height="6.07" fill="#2f9e44" opacity="0.55" />
<rect x="316.79" y="376.56" width="2.28" height="4.45" fill="#2f9e44" opacity="0.55" />
<rect x="320.06" y="377.08" width="2.28" height="3.93" fill="#2f9e44" opacity="0.55" />
<rect x="323.34" y="376.59" width="2.28" height="4.42" fill="#2f9e44" opacity="0.55" />
<rect x="326.61" y="372.43" width="2.28" height="8.59" fill="#2f9e44" opacity="0.55" />
<rect x="329.89" y="369.50" width="2.28" height="11.52" fill="#2f9e44" opacity="0.55" />
<rect x="333.16" y="369.63" width="2.28" height="11.39" fill="#2f9e44" opacity="0.55" />
<rect x="336.43" y="369.14" width="2.28" height="11.87" fill="#2f9e44" opacity="0.55" />
<rect x="339.71" y="366.97" width="2.28" height="14.04" fill="#2f9e44" opacity="0.55" />
<rect x="342.98" y="366.66" width="2.28" height="14.35" fill="#2f9e44" opacity="0.55" />
<rect x="346.26" y="366.98" width="2.28" height="14.04" fill="#2f9e44" opacity="0.55" />
<rect x="349.53" y="369.05" width="2.28" height="11.97" fill="#2f9e44" opacity="0.55" />
<rect x="352.80" y="370.93" width="2.28" height="10.08" fill="#2f9e44" opacity="0.55" />
<rect x="356.08" y="372.70" width="2.28" height="8.31" fill="#2f9e44" opacity="0.55" />
<rect x="359.35" y="371.85" width="2.28" height="9.17" fill="#2f9e44" opacity="0.55" />
<rect x="362.63" y="371.29" width="2.28" height="9.72" fill="#2f9e44" opacity="0.55" />
<rect x="365.90" y="372.70" width="2.28" height="8.31" fill="#2f9e44" opacity="0.55" />
<rect x="369.18" y="374.76" width="2.28" height="6.25" fill="#2f9e44" opacity="0.55" />
<rect x="372.45" y="378.94" width="2.28" height="2.07" fill="#2f9e44" opacity="0.55" />
<rect x="375.72" y="379.88" width="2.28" height="1.14" fill="#2f9e44" opacity="0.55" />
<rect x="379.00" y="381.01" width="2.28" height="3.73" fill="#d64545" opacity="0.55" />
<rect x="382.27" y="381.01" width="2.28" height="3.80" fill="#d64545" opacity="0.55" />
<rect x="385.55" y="378.80" width="2.28" height="2.21" fill="#2f9e44" opacity="0.55" />
<rect x="388.82" y="378.08" width="2.28" height="2.93" fill="#2f9e44" opacity="0.55" />
<rect x="392.09" y="379.82" width="2.28" height="1.20" fill="#2f9e44" opacity="0.55" />
<rect x="395.37" y="381.01" width="2.28" height="3.19" fill="#d64545" opacity="0.55" />
<rect x="398.64" y="381.01" width="2.28" height="5.25" fill="#d64545" opacity="0.55" />
<rect x="401.92" y="381.01" width="2.28" height="10.09" fill="#d64545" opacity="0.55" />
<rect x="405.19" y="381.01" width="2.28" height="12.78" fill="#d64545" opacity="0.55" />
<rect x="408.46" y="381.01" width="2.28" height="12.31" fill="#d64545" opacity="0.55" />
<rect x="411.74" y="381.01" width="2.28" height="14.59" fill="#d64545" opacity="0.55" />
<rect x="415.01" y="381.01" width="2.28" height="16.63" fill="#d64545" opacity="0.55" />
<rect x="418.29" y="381.01" width="2.28" height="15.30" fill="#d64545" opacity="0.55" />
<rect x="421.56" y="381.01" width="2.28" height="9.78" fill="#d64545" opacity="0.55" />
<rect x="424.84" y="381.01" width="2.28" height="6.12" fill="#d64545" opacity="0.55" />
<rect x="428.11" y="381.01" width="2.28" height="2.00" fill="#d64545" opacity="0.55" />
<rect x="431.38" y="381.01" width="2.28" height="1.70" fill="#d64545" opacity="0.55" />
<rect x="434.66" y="381.01" width="2.28" height="0.96" fill="#d64545" opacity="0.55" />
<rect x="437.93" y="379.94" width="2.28" height="1.07" fill="#2f9e44" opacity="0.55" />
<rect x="441.21" y="379.83" width="2.28" height="1.18" fill="#2f9e44" opacity="0.55" />
<rect x="444.48" y="378.01" width="2.28" height="3.00" fill="#2f9e44" opacity="0.55" />
<rect x="447.75" y="378.15" width="2.28" height="2.86" fill="#2f9e44" opacity="0.55" />
<rect x="451.03" y="380.34" width="2.28" height="0.67" fill="#2f9e44" opacity="0.55" />
<rect x="454.30" y="381.01" width="2.28" height="0.96" fill="#d64545" opacity="0.55" />
<rect x="457.58" y="381.01" width="2.28" height="2.31" fill="#d64545" opacity="0.55" />
<rect x="460.85" y="381.01" width="2.28" height="5.06" fill="#d64545" opacity="0.55" />
<rect x="464.12" y="381.01" width="2.28" height="8.53" fill="#d64545" opacity="0.55" />
<rect x="467.40" y="381.01" width="2.28" height="12.47" fill="#d64545" opacity="0.55" />
<rect x="470.67" y="381.01" width="2.28" height="14.30" fill="#d64545" opacity="0.55" />
<rect x="473.95" y="381.01" width="2.28" height="14.90" fill="#d64545" opacity="0.55" />
<rect x="477.22" y="381.01" width="2.28" height="13.01" fill="#d64545" opacity="0.55" />
<rect x="480.50" y="381.01" width="2.28" height="11.82" fill="#d64545" opacity="0.55" />
<rect x="483.77" y="381.01" width="2.28" height="10.48" fill="#d64545" opacity="0.55" />
<rect x="487.04" y="381.01" width="2.28" height="9.41" fill="#d64545" opacity="0.55" />
<rect x="490.32" y="381.01" width="2.28" height="7.41" fill="#d64545" opacity="0.55" />
<rect x="493.59" y="381.01" width="2.28" height="5.07" fill="#d64545" opacity="0.55" />
<rect x="496.87" y="381.01" width="2.28" height="2.70" fill="#d64545" opacity="0.55" />
<rect x="500.14" y="380.77" width="2.28" height="0.24" fill="#2f9e44" opacity="0.55" />
<rect x="503.41" y="379.04" width="2.28" height="1.97" fill="#2f9e44" opacity="0.55" />
<rect x="506.69" y="377.20" width="2.28" height="3.81" fill="#2f9e44" opacity="0.55" />
<rect x="509.96" y="375.17" width="2.28" height="5.84" fill="#2f9e44" opacity="0.55" />
<rect x="513.24" y="373.44" width="2.28" height="7.58" fill="#2f9e44" opacity="0.55" />
<rect x="516.51" y="373.12" width="2.28" height="7.89" fill="#2f9e44" opacity="0.55" />
<rect x="519.79" y="379.59" width="2.28" height="1.42" fill="#2f9e44" opacity="0.55" />
<rect x="523.06" y="381.01" width="2.28" height="4.99" fill="#d64545" opacity="0.55" />
<rect x="526.33" y="381.01" width="2.28" height="11.76" fill="#d64545" opacity="0.55" />
<rect x="529.61" y="381.01" width="2.28" height="14.54" fill="#d64545" opacity="0.55" />
<rect x="532.88" y="381.01" width="2.28" height="15.78" fill="#d64545" opacity="0.55" />
<rect x="536.16" y="381.01" width="2.28" height="17.52" fill="#d64545" opacity="0.55" />
<rect x="539.43" y="381.01" width="2.28" height="19.22" fill="#d64545" opacity="0.55" />
<rect x="542.70" y="381.01" width="2.28" height="19.94" fill="#d64545" opacity="0.55" />
<rect x="545.98" y="381.01" width="2.28" height="20.18" fill="#d64545" opacity="0.55" />
<rect x="549.25" y="381.01" width="2.28" height="16.69" fill="#d64545" opacity="0.55" />
<rect x="552.53" y="381.01" width="2.28" height="14.46" fill="#d64545" opacity="0.55" />
<rect x="555.80" y="381.01" width="2.28" height="9.86" fill="#d64545" opacity="0.55" />
<rect x="559.07" y="381.01" width="2.28" height="8.29" fill="#d64545" opacity="0.55" />
<rect x="562.35" y="381.01" width="2.28" height="6.50" fill="#d64545" opacity="0.55" />
<rect x="565.62" y="381.01" width="2.28" height="4.51" fill="#d64545" opacity="0.55" />
<rect x="568.90" y="381.01" width="2.28" height="4.87" fill="#d64545" opacity="0.55" />
<rect x="572.17" y="381.01" width="2.28" height="4.06" fill="#d64545" opacity="0.55" />
<rect x="575.45" y="381.01" width="2.28" height="1.20" fill="#d64545" opacity="0.55" />
<rect x="578.72" y="380.69" width="2.28" height="0.33" fill="#2f9e44" opacity="0.55" />
<rect x="581.99" y="380.46" width="2.28" height="0.56" fill="#2f9e44" opacity="0.55" />
<rect x="585.27" y="379.47" width="2.28" height="1.54" fill="#2f9e44" opacity="0.55" />
<rect x="588.54" y="378.82" width="2.28" height="2.19" fill="#2f9e44" opacity="0.55" />
<rect x="591.82" y="377.37" width="2.28" height="3.64" fill="#2f9e44" opacity="0.55" />
<rect x="595.09" y="375.50" width="2.28" height="5.52" fill="#2f9e44" opacity="0.55" />
<rect x="598.36" y="373.10" width="2.28" height="7.91" fill="#2f9e44" opacity="0.55" />
<rect x="601.64" y="371.49" width="2.28" height="9.52" fill="#2f9e44" opacity="0.55" />
<rect x="604.91" y="367.33" width="2.28" height="13.68" fill="#2f9e44" opacity="0.55" />
<rect x="608.19" y="366.10" width="2.28" height="14.92" fill="#2f9e44" opacity="0.55" />
<rect x="611.46" y="363.65" width="2.28" height="17.37" fill="#2f9e44" opacity="0.55" />
<rect x="614.73" y="362.93" width="2.28" height="18.09" fill="#2f9e44" opacity="0.55" />
<rect x="618.01" y="366.83" width="2.28" height="14.19" fill="#2f9e44" opacity="0.55" />
<rect x="621.28" y="365.26" width="2.28" height="15.75" fill="#2f9e44" opacity="0.55" />
<rect x="624.56" y="365.12" width="2.28" height="15.89" fill="#2f9e44" opacity="0.55" />
<rect x="627.83" y="370.13" width="2.28" height="10.89" fill="#2f9e44" opacity="0.55" />
<rect x="631.11" y="373.39" width="2.28" height="7.63" fill="#2f9e44" opacity="0.55" />
<rect x="634.38" y="372.39" width="2.28" height="8.62" fill="#2f9e44" opacity="0.55" />
<rect x="637.65" y="373.84" width="2.28" height="7.17" fill="#2f9e44" opacity="0.55" />
<rect x="640.93" y="375.40" width="2.28" height="5.61" fill="#2f9e44" opacity="0.55" />
<rect x="644.20" y="377.72" width="2.28" height="3.29" fill="#2f9e44" opacity="0.55" />
<rect x="647.48" y="380.02" width="2.28" height="0.99" fill="#2f9e44" opacity="0.55" />
<rect x="650.75" y="381.01" width="2.28" height="2.68" fill="#d64545" opacity="0.55" />
<rect x="654.02" y="381.01" width="2.28" height="5.82" fill="#d64545" opacity="0.55" />
<rect x="657.30" y="381.01" width="2.28" height="6.94" fill="#d64545" opacity="0.55" />
<rect x="660.57" y="381.01" width="2.28" height="9.72" fill="#d64545" opacity="0.55" />
<rect x="663.85" y="381.01" width="2.28" height="9.77" fill="#d64545" opacity="0.55" />
<rect x="667.12" y="381.01" width="2.28" height="8.77" fill="#d64545" opacity="0.55" />
<rect x="670.40" y="381.01" width="2.28" height="12.09" fill="#d64545" opacity="0.55" />
<rect x="673.67" y="381.01" width="2.28" height="14.54" fill="#d64545" opacity="0.55" />
<rect x="676.94" y="381.01" width="2.28" height="15.60" fill="#d64545" opacity="0.55" />
<rect x="680.22" y="381.01" width="2.28" height="16.38" fill="#d64545" opacity="0.55" />
<rect x="683.49" y="381.01" width="2.28" height="14.06" fill="#d64545" opacity="0.55" />
<rect x="686.77" y="381.01" width="2.28" height="11.83" fill="#d64545" opacity="0.55" />
<rect x="690.04" y="381.01" width="2.28" height="9.82" fill="#d64545" opacity="0.55" />
<rect x="693.31" y="381.01" width="2.28" height="5.18" fill="#d64545" opacity="0.55" />
<rect x="696.59" y="381.01" width="2.28" height="1.60" fill="#d64545" opacity="0.55" />
<rect x="699.86" y="379.29" width="2.28" height="1.73" fill="#2f9e44" opacity="0.55" />
<rect x="703.14" y="376.82" width="2.28" height="4.20" fill="#2f9e44" opacity="0.55" />
<rect x="706.41" y="373.60" width="2.28" height="7.41" fill="#2f9e44" opacity="0.55" />
<rect x="709.68" y="372.27" width="2.28" height="8.74" fill="#2f9e44" opacity="0.55" />
<rect x="712.96" y="372.00" width="2.28" height="9.01" fill="#2f9e44" opacity="0.55" />
<rect x="716.23" y="370.54" width="2.28" height="10.47" fill="#2f9e44" opacity="0.55" />
<rect x="719.51" y="367.39" width="2.28" height="13.62" fill="#2f9e44" opacity="0.55" />
<rect x="722.78" y="362.40" width="2.28" height="18.61" fill="#2f9e44" opacity="0.55" />
<rect x="726.06" y="358.21" width="2.28" height="22.80" fill="#2f9e44" opacity="0.55" />
<rect x="729.33" y="358.25" width="2.28" height="22.76" fill="#2f9e44" opacity="0.55" />
<rect x="732.60" y="353.71" width="2.28" height="27.31" fill="#2f9e44" opacity="0.55" />
<rect x="735.88" y="348.54" width="2.28" height="32.47" fill="#2f9e44" opacity="0.55" />
<rect x="739.15" y="348.51" width="2.28" height="32.50" fill="#2f9e44" opacity="0.55" />
<rect x="742.43" y="349.76" width="2.28" height="31.26" fill="#2f9e44" opacity="0.55" />
<rect x="745.70" y="355.03" width="2.28" height="25.99" fill="#2f9e44" opacity="0.55" />
<rect x="748.97" y="357.27" width="2.28" height="23.74" fill="#2f9e44" opacity="0.55" />
<rect x="752.25" y="361.92" width="2.28" height="19.09" fill="#2f9e44" opacity="0.55" />
<rect x="755.52" y="363.06" width="2.28" height="17.95" fill="#2f9e44" opacity="0.55" />
<rect x="758.80" y="366.57" width="2.28" height="14.44" fill="#2f9e44" opacity="0.55" />
<rect x="762.07" y="365.25" width="2.28" height="15.76" fill="#2f9e44" opacity="0.55" />
<rect x="765.34" y="363.72" width="2.28" height="17.30" fill="#2f9e44" opacity="0.55" />
<rect x="768.62" y="357.51" width="2.28" height="23.50" fill="#2f9e44" opacity="0.55" />
<rect x="771.89" y="358.67" width="2.28" height="22.35" fill="#2f9e44" opacity="0.55" />
<rect x="775.17" y="363.45" width="2.28" height="17.56" fill="#2f9e44" opacity="0.55" />
<rect x="778.44" y="372.93" width="2.28" height="8.08" fill="#2f9e44" opacity="0.55" />
<rect x="781.72" y="380.44" width="2.28" height="0.57" fill="#2f9e44" opacity="0.55" />
<rect x="784.99" y="381.01" width="2.28" height="7.94" fill="#d64545" opacity="0.55" />
<rect x="788.26" y="381.01" width="2.28" height="13.32" fill="#d64545" opacity="0.55" />
<rect x="791.54" y="381.01" width="2.28" height="10.17" fill="#d64545" opacity="0.55" />
<rect x="794.81" y="381.01" width="2.28" height="5.67" fill="#d64545" opacity="0.55" />
<rect x="798.09" y="381.01" width="2.28" height="1.96" fill="#d64545" opacity="0.55" />
<rect x="801.36" y="381.01" width="2.28" height="5.17" fill="#d64545" opacity="0.55" />
<rect x="804.63" y="381.01" width="2.28" height="10.66" fill="#d64545" opacity="0.55" />
<rect x="807.91" y="381.01" width="2.28" height="16.07" fill="#d64545" opacity="0.55" />
<rect x="811.18" y="381.01" width="2.28" height="11.79" fill="#d64545" opacity="0.55" />
<rect x="814.46" y="381.01" width="2.28" height="8.02" fill="#d64545" opacity="0.55" />
<rect x="817.73" y="381.01" width="2.28" height="6.41" fill="#d64545" opacity="0.55" />
<rect x="821.01" y="381.01" width="2.28" height="3.73" fill="#d64545" opacity="0.55" />
<rect x="824.28" y="381.01" width="2.28" height="2.85" fill="#d64545" opacity="0.55" />
<rect x="827.55" y="381.01" width="2.28" height="1.33" fill="#d64545" opacity="0.55" />
<rect x="830.83" y="381.01" width="2.28" height="6.63" fill="#d64545" opacity="0.55" />
<rect x="834.10" y="381.01" width="2.28" height="9.74" fill="#d64545" opacity="0.55" />
<rect x="837.38" y="381.01" width="2.28" height="15.20" fill="#d64545" opacity="0.55" />
<rect x="840.65" y="381.01" width="2.28" height="20.77" fill="#d64545" opacity="0.55" />
<rect x="843.92" y="381.01" width="2.28" height="24.33" fill="#d64545" opacity="0.55" />
<rect x="847.20" y="381.01" width="2.28" height="24.90" fill="#d64545" opacity="0.55" />
<rect x="850.47" y="381.01" width="2.28" height="24.55" fill="#d64545" opacity="0.55" />
<rect x="853.75" y="381.01" width="2.28" height="20.28" fill="#d64545" opacity="0.55" />
<rect x="857.02" y="381.01" width="2.28" height="15.99" fill="#d64545" opacity="0.55" />
<rect x="860.29" y="381.01" width="2.28" height="14.65" fill="#d64545" opacity="0.55" />
<rect x="863.57" y="381.01" width="2.28" height="15.95" fill="#d64545" opacity="0.55" />
<rect x="866.84" y="381.01" width="2.28" height="17.10" fill="#d64545" opacity="0.55" />
<rect x="870.12" y="381.01" width="2.28" height="17.91" fill="#d64545" opacity="0.55" />
<rect x="873.39" y="381.01" width="2.28" height="21.58" fill="#d64545" opacity="0.55" />
<rect x="876.67" y="381.01" width="2.28" height="18.08" fill="#d64545" opacity="0.55" />
<rect x="879.94" y="381.01" width="2.28" height="14.01" fill="#d64545" opacity="0.55" />
<rect x="883.21" y="381.01" width="2.28" height="4.43" fill="#d64545" opacity="0.55" />
<rect x="886.49" y="376.54" width="2.28" height="4.47" fill="#2f9e44" opacity="0.55" />
<rect x="889.76" y="370.08" width="2.28" height="10.93" fill="#2f9e44" opacity="0.55" />
<rect x="893.04" y="370.07" width="2.28" height="10.94" fill="#2f9e44" opacity="0.55" />
<rect x="896.31" y="370.89" width="2.28" height="10.12" fill="#2f9e44" opacity="0.55" />
<rect x="899.58" y="371.36" width="2.28" height="9.66" fill="#2f9e44" opacity="0.55" />
<rect x="902.86" y="372.30" width="2.28" height="8.72" fill="#2f9e44" opacity="0.55" />
<polyline fill="none" stroke="#1f77b4" stroke-width="2" points="137.85,378.20 141.13,379.32 144.40,380.69 147.68,380.54 150.95,380.34 154.22,378.59 157.50,376.69 160.77,374.87 164.05,371.36 167.32,370.97 170.59,368.71 173.87,366.71 177.14,364.65 180.42,361.72 183.69,354.29 186.97,346.99 190.24,339.50 193.51,333.92 196.79,331.02 200.06,327.82 203.34,328.17 206.61,335.05 209.88,340.12 213.16,345.69 216.43,348.95 219.71,351.78 222.98,355.64 226.25,359.14 229.53,362.32 232.80,367.47 236.08,370.72 239.35,372.63 242.63,374.03 245.90,373.52 249.17,371.33 252.45,371.89 255.72,366.79 259.00,362.96 262.27,361.48 265.54,360.92 268.82,361.08 272.09,362.19 275.37,362.52 278.64,362.43 281.92,364.54 285.19,366.10 288.46,368.61 291.74,370.45 295.01,372.85 298.29,369.85 301.56,367.90 304.83,366.25 308.11,362.31 311.38,358.58 314.66,357.33 317.93,357.84 321.20,357.38 324.48,355.78 327.75,349.47 331.03,343.66 334.30,340.95 337.58,337.49 340.85,331.81 344.12,327.92 347.40,324.72 350.67,323.80 353.95,323.16 357.22,322.85 360.49,319.71 363.77,316.72 367.04,316.06 370.32,316.55 373.59,320.21 376.86,320.86 380.14,326.66 383.41,327.69 386.69,321.12 389.96,319.66 393.24,321.10 396.51,326.29 399.78,329.66 403.06,337.02 406.33,342.91 409.61,345.52 412.88,351.44 416.15,357.64 419.43,360.13 422.70,357.06 425.98,354.93 429.25,351.31 432.53,351.44 435.80,350.94 439.07,348.63 442.35,348.23 445.62,345.66 448.90,345.08 452.17,347.10 455.44,348.98 458.72,350.91 461.99,354.92 465.27,360.52 468.54,367.59 471.81,372.99 475.09,377.32 478.36,378.68 481.64,380.44 484.91,381.72 488.19,383.01 491.46,382.86 494.73,381.79 498.01,380.09 501.28,377.09 504.56,374.87 507.83,372.08 511.10,368.58 514.38,364.95 517.65,362.67 520.93,368.78 524.20,376.44 527.47,386.15 530.75,392.57 534.02,397.75 537.30,403.87 540.57,410.38 543.85,416.08 547.12,421.37 550.39,422.05 553.67,423.43 556.94,421.30 560.22,421.81 563.49,421.64 566.76,420.77 570.04,422.36 573.31,422.56 576.59,420.00 579.86,418.39 583.14,418.02 586.41,416.65 589.68,415.45 592.96,413.09 596.23,409.84 599.51,405.46 602.78,401.47 606.05,393.89 609.33,388.93 612.60,382.14 615.88,376.89 619.15,377.25 622.42,371.75 625.70,367.64 628.97,369.92 632.25,371.27 635.52,368.12 638.80,367.77 642.07,367.93 645.34,369.43 648.62,371.48 651.89,375.83 655.17,380.42 658.44,383.27 661.71,388.48 664.99,390.98 668.26,392.17 671.54,398.51 674.81,404.59 678.08,409.56 681.36,414.44 684.63,415.63 687.91,416.35 691.18,416.80 694.46,413.45 697.73,410.28 701.00,406.52 704.28,403.00 707.55,397.93 710.83,394.42 714.10,391.89 717.37,387.81 720.65,381.26 723.92,371.61 727.20,361.72 730.47,356.07 733.75,344.70 737.02,331.42 740.29,323.26 743.57,316.69 746.84,315.47 750.12,311.78 753.39,311.65 756.66,308.30 759.94,308.20 763.21,302.94 766.49,297.08 769.76,285.00 773.03,280.57 776.31,280.97 779.58,288.43 782.86,295.79 786.13,306.29 789.41,314.99 792.68,314.40 795.95,311.31 799.23,308.09 802.50,312.59 805.78,320.75 809.05,330.17 812.32,328.84 815.60,327.08 818.87,327.07 822.15,325.32 825.42,325.15 828.69,323.97 831.97,330.92 835.24,336.47 838.52,345.73 841.79,356.49 845.07,366.14 848.34,372.93 851.61,378.71 854.89,379.52 858.16,379.23 861.44,381.54 864.71,386.83 867.98,392.26 871.26,397.54 874.53,406.61 877.81,407.63 881.08,407.06 884.36,398.59 887.63,388.57 890.90,379.38 894.18,376.63 897.45,374.92 900.73,372.97 904.00,371.73" />
<polyline fill="none" stroke="#ff7f0e" stroke-width="2" points="137.85,378.20 141.13,378.42 144.40,378.87 147.68,379.21 150.95,379.43 154.22,379.27 157.50,378.75 160.77,377.98 164.05,376.65 167.32,375.52 170.59,374.15 173.87,372.67 177.14,371.06 180.42,369.19 183.69,366.21 186.97,362.37 190.24,357.79 193.51,353.02 196.79,348.62 200.06,344.46 203.34,341.20 206.61,339.97 209.88,340.00 213.16,341.14 216.43,342.70 219.71,344.52 222.98,346.74 226.25,349.22 229.53,351.84 232.80,354.97 236.08,358.12 239.35,361.02 242.63,363.62 245.90,365.60 249.17,366.75 252.45,367.78 255.72,367.58 259.00,366.66 262.27,365.62 265.54,364.68 268.82,363.96 272.09,363.61 275.37,363.39 278.64,363.20 281.92,363.46 285.19,363.99 288.46,364.91 291.74,366.02 295.01,367.39 298.29,367.88 301.56,367.88 304.83,367.56 308.11,366.51 311.38,364.92 314.66,363.40 317.93,362.29 321.20,361.31 324.48,360.20 327.75,358.06 331.03,355.18 334.30,352.33 337.58,349.36 340.85,345.85 344.12,342.27 347.40,338.76 350.67,335.76 353.95,333.24 357.22,331.17 360.49,328.87 363.77,326.44 367.04,324.37 370.32,322.80 373.59,322.29 376.86,322.00 380.14,322.93 383.41,323.88 386.69,323.33 389.96,322.60 393.24,322.30 396.51,323.10 399.78,324.41 403.06,326.93 406.33,330.13 409.61,333.20 412.88,336.85 416.15,341.01 419.43,344.83 422.70,347.28 425.98,348.81 429.25,349.31 432.53,349.74 435.80,349.98 439.07,349.71 442.35,349.41 445.62,348.66 448.90,347.95 452.17,347.78 455.44,348.02 458.72,348.60 461.99,349.86 465.27,351.99 468.54,355.11 471.81,358.69 475.09,362.41 478.36,365.67 481.64,368.62 484.91,371.24 488.19,373.59 491.46,375.45 494.73,376.72 498.01,377.39 501.28,377.33 504.56,376.84 507.83,375.89 511.10,374.42 514.38,372.53 517.65,370.56 520.93,370.20 524.20,371.45 527.47,374.39 530.75,378.02 534.02,381.97 537.30,386.35 540.57,391.16 543.85,396.14 547.12,401.19 550.39,405.36 553.67,408.97 556.94,411.44 560.22,413.51 563.49,415.14 566.76,416.27 570.04,417.48 573.31,418.50 576.59,418.80 579.86,418.72 583.14,418.58 586.41,418.19 589.68,417.64 592.96,416.73 596.23,415.35 599.51,413.38 602.78,411.00 606.05,407.57 609.33,403.85 612.60,399.50 615.88,394.98 619.15,391.43 622.42,387.50 625.70,383.52 628.97,380.80 632.25,378.90 635.52,376.74 638.80,374.95 642.07,373.55 645.34,372.72 648.62,372.47 651.89,373.14 655.17,374.60 658.44,376.33 661.71,378.76 664.99,381.21 668.26,383.40 671.54,386.42 674.81,390.05 678.08,393.96 681.36,398.05 684.63,401.57 687.91,404.52 691.18,406.98 694.46,408.27 697.73,408.67 701.00,408.24 704.28,407.19 707.55,405.34 710.83,403.16 714.10,400.90 717.37,398.28 720.65,394.88 723.92,390.23 727.20,384.52 730.47,378.83 733.75,372.01 737.02,363.89 740.29,355.76 743.57,347.95 746.84,341.45 750.12,335.52 753.39,330.74 756.66,326.26 759.94,322.65 763.21,318.70 766.49,314.38 769.76,308.50 773.03,302.92 776.31,298.53 779.58,296.51 782.86,296.37 786.13,298.35 789.41,301.68 792.68,304.22 795.95,305.64 799.23,306.13 802.50,307.42 805.78,310.09 809.05,314.10 812.32,317.05 815.60,319.06 818.87,320.66 822.15,321.59 825.42,322.30 828.69,322.64 831.97,324.29 835.24,326.73 838.52,330.53 841.79,335.72 845.07,341.80 848.34,348.03 851.61,354.17 854.89,359.24 858.16,363.23 861.44,366.90 864.71,370.88 867.98,375.16 871.26,379.63 874.53,385.03 877.81,389.55 881.08,393.05 884.36,394.16 887.63,393.04 890.90,390.31 894.18,387.57 897.45,385.04 900.73,382.63 904.00,380.45" />
<text x="754.00" y="290.00" font-size="13" font-family="Arial" fill="#1f77b4" text-anchor="start">MACD</text>
<text x="818.00" y="290.00" font-size="13" font-family="Arial" fill="#ff7f0e" text-anchor="start">Signal</text>
<line x1="56" y1="624" x2="904" y2="624" stroke="#cbd2d9" />
<line x1="56" y1="484" x2="56" y2="624" stroke="#cbd2d9" />
<text x="16.00" y="476.00" font-size="12" font-family="Arial" fill="#52606d" text-anchor="start">KD</text>
<line x1="56" y1="624.00" x2="904" y2="624.00" stroke="#edf2f7" />
<line x1="52" y1="624.00" x2="56" y2="624.00" stroke="#9fb3c8" />
<text x="48.00" y="628.00" font-size="11" font-family="Arial" fill="#52606d" text-anchor="end">-5.00</text>
<line x1="56" y1="577.33" x2="904" y2="577.33" stroke="#edf2f7" />
<line x1="52" y1="577.33" x2="56" y2="577.33" stroke="#9fb3c8" />
<text x="48.00" y="581.33" font-size="11" font-family="Arial" fill="#52606d" text-anchor="end">31.7</text>
<line x1="56" y1="530.67" x2="904" y2="530.67" stroke="#edf2f7" />
<line x1="52" y1="530.67" x2="56" y2="530.67" stroke="#9fb3c8" />
<text x="48.00" y="534.67" font-size="11" font-family="Arial" fill="#52606d" text-anchor="end">68.3</text>
<line x1="56" y1="484.00" x2="904" y2="484.00" stroke="#edf2f7" />
<line x1="52" y1="484.00" x2="56" y2="484.00" stroke="#9fb3c8" />
<text x="48.00" y="488.00" font-size="11" font-family="Arial" fill="#52606d" text-anchor="end">105</text>
<line x1="56.00" y1="624" x2="56.00" y2="628" stroke="#9fb3c8" />
<text x="56.00" y="642.00" font-size="11" font-family="Arial" fill="#52606d" text-anchor="middle">06/16</text>
<line x1="226.25" y1="624" x2="226.25" y2="628" stroke="#9fb3c8" />
<text x="226.25" y="642.00" font-size="11" font-family="Arial" fill="#52606d" text-anchor="middle">08/28</text>
<line x1="396.51" y1="624" x2="396.51" y2="628" stroke="#9fb3c8" />
<text x="396.51" y="642.00" font-size="11" font-family="Arial" fill="#52606d" text-anchor="middle">11/14</text>
<line x1="563.49" y1="624" x2="563.49" y2="628" stroke="#9fb3c8" />
<text x="563.49" y="642.00" font-size="11" font-family="Arial" fill="#52606d" text-anchor="middle">01/28</text>
<line x1="733.75" y1="624" x2="733.75" y2="628" stroke="#9fb3c8" />
<text x="733.75" y="642.00" font-size="11" font-family="Arial" fill="#52606d" text-anchor="middle">04/24</text>
<line x1="904.00" y1="624" x2="904.00" y2="628" stroke="#9fb3c8" />
<text x="904.00" y="642.00" font-size="11" font-family="Arial" fill="#52606d" text-anchor="middle">07/09</text>
<line x1="56" y1="592.18" x2="904" y2="592.18" stroke="#f0b429" stroke-dasharray="5 5" />
<text x="912.00" y="596.18" font-size="10" font-family="Arial" fill="#8d2b0b" text-anchor="start">20.0</text>
<line x1="56" y1="515.82" x2="904" y2="515.82" stroke="#f0b429" stroke-dasharray="5 5" />
<text x="912.00" y="519.82" font-size="10" font-family="Arial" fill="#8d2b0b" text-anchor="start">80.0</text>
<polyline fill="none" stroke="#2ca02c" stroke-width="2" points="82.19,567.26 85.47,592.96 88.74,610.10 92.02,610.16 95.29,605.69 98.56,604.97 101.84,606.18 105.11,606.99 108.39,611.48 111.66,594.49 114.93,573.57 118.21,559.70 121.48,580.91 124.76,584.25 128.03,589.42 131.31,602.68 134.58,585.02 137.85,596.18 141.13,617.79 144.40,625.97 147.68,617.75 150.95,611.19 154.22,588.37 157.50,573.21 160.77,562.34 164.05,550.38 167.32,555.43 170.59,546.87 173.87,540.65 177.14,535.03 180.42,530.08 183.69,523.27 186.97,519.44 190.24,518.09 193.51,516.69 196.79,518.89 200.06,516.43 203.34,522.59 206.61,547.68 209.88,574.19 213.16,595.54 216.43,602.98 219.71,607.50 222.98,616.66 226.25,623.64 229.53,629.17 232.80,624.46 236.08,615.35 239.35,604.76 242.63,596.57 245.90,576.93 249.17,559.90 252.45,560.26 255.72,543.96 259.00,536.23 262.27,539.76 265.54,545.23 268.82,552.21 272.09,564.66 275.37,569.10 278.64,568.85 281.92,594.83 285.19,612.77 288.46,617.58 291.74,619.40 295.01,627.13 298.29,594.96 301.56,580.47 304.83,571.73 308.11,558.68 311.38,546.42 314.66,544.19 317.93,547.85 321.20,545.54 324.48,543.78 327.75,534.01 331.03,530.64 334.30,532.60 337.58,528.58 340.85,524.11 344.12,524.18 347.40,522.59 350.67,528.50 353.95,532.69 357.22,541.70 360.49,536.35 363.77,530.65 367.04,535.13 370.32,541.53 373.59,560.07 376.86,556.04 380.14,579.26 383.41,575.45 386.69,555.50 389.96,552.23 393.24,556.15 396.51,569.76 399.78,574.56 403.06,592.92 406.33,603.89 409.61,606.03 412.88,614.31 416.15,619.03 419.43,613.25 422.70,584.56 425.98,568.75 429.25,555.16 432.53,554.92 435.80,553.00 439.07,544.60 442.35,542.27 445.62,536.85 448.90,542.20 452.17,564.90 455.44,579.51 458.72,589.77 461.99,609.97 465.27,618.24 468.54,625.83 471.81,626.86 475.09,625.18 478.36,616.70 481.64,613.05 484.91,610.24 488.19,609.15 491.46,596.98 494.73,581.90 498.01,569.59 501.28,556.76 504.56,560.85 507.83,557.24 511.10,548.74 514.38,544.23 517.65,549.10 520.93,576.05 524.20,596.39 527.47,608.37 530.75,613.76 534.02,618.00 537.30,621.22 540.57,623.55 543.85,624.90 547.12,625.98 550.39,617.81 553.67,615.85 556.94,600.53 560.22,603.26 563.49,604.36 566.76,601.90 570.04,619.55 573.31,627.32 576.59,617.12 579.86,616.40 583.14,625.38 586.41,619.83 589.68,617.77 592.96,607.33 596.23,591.29 599.51,575.70 602.78,564.22 606.05,549.48 609.33,549.28 612.60,541.40 615.88,541.00 619.15,553.73 622.42,545.68 625.70,540.61 628.97,559.26 632.25,575.90 635.52,568.22 638.80,571.67 642.07,575.19 645.34,581.34 648.62,589.47 651.89,609.09 655.17,617.11 658.44,619.16 661.71,625.79 664.99,624.62 668.26,621.06 671.54,626.14 674.81,624.47 678.08,623.33 681.36,627.66 684.63,621.78 687.91,618.60 691.18,617.57 694.46,604.11 697.73,586.01 701.00,570.00 704.28,557.70 707.55,548.64 710.83,548.14 714.10,549.40 717.37,545.47 720.65,536.07 723.92,530.57 727.20,525.23 730.47,529.30 733.75,523.56 737.02,521.65 740.29,523.12 743.57,523.27 746.84,530.41 750.12,530.51 753.39,536.78 756.66,531.27 759.94,535.83 763.21,533.79 766.49,528.34 769.76,523.90 773.03,527.83 776.31,535.22 779.58,551.02 782.86,562.39 786.13,585.56 789.41,596.38 792.68,587.21 795.95,574.32 799.23,562.76 802.50,567.37 805.78,578.09 809.05,589.90 812.32,579.31 815.60,569.63 818.87,567.41 822.15,560.67 825.42,557.44 828.69,549.03 831.97,561.16 835.24,568.10 838.52,589.95 841.79,598.49 845.07,606.22 848.34,609.29 851.61,612.18 854.89,605.81 858.16,593.68 861.44,594.31 864.71,602.09 867.98,602.85 871.26,606.90 874.53,609.20 877.81,598.01 881.08,588.22 884.36,564.72 887.63,539.94 890.90,524.03 894.18,524.25 897.45,525.19 900.73,524.43 904.00,525.29" />
<polyline fill="none" stroke="#d62728" stroke-width="2" points="82.19,558.42 85.47,569.93 88.74,583.32 92.02,592.27 95.29,596.74 98.56,599.48 101.84,601.72 105.11,603.47 108.39,606.14 111.66,602.26 114.93,592.70 118.21,581.70 121.48,581.43 124.76,582.37 128.03,584.72 131.31,590.71 134.58,588.81 137.85,591.27 141.13,600.11 144.40,608.73 147.68,611.74 150.95,611.56 154.22,603.83 157.50,593.62 160.77,583.19 164.05,572.26 167.32,566.65 170.59,560.06 173.87,553.59 177.14,547.40 180.42,541.63 183.69,535.51 186.97,530.15 190.24,526.13 193.51,522.98 196.79,521.62 200.06,519.89 203.34,520.79 206.61,529.76 209.88,544.57 213.16,561.56 216.43,575.37 219.71,586.08 222.98,596.27 226.25,605.40 229.53,613.32 232.80,617.03 236.08,616.47 239.35,612.57 242.63,607.24 245.90,597.13 249.17,584.72 252.45,576.57 255.72,565.70 259.00,555.88 262.27,550.50 265.54,548.75 268.82,549.90 272.09,554.82 275.37,559.58 278.64,562.67 281.92,573.39 285.19,586.52 288.46,596.87 291.74,604.38 295.01,611.96 298.29,606.30 301.56,597.69 304.83,589.03 308.11,578.92 311.38,568.08 314.66,560.12 317.93,556.03 321.20,552.53 324.48,549.61 327.75,544.41 331.03,539.82 334.30,537.41 337.58,534.47 340.85,531.02 344.12,528.74 347.40,526.69 350.67,527.29 353.95,529.09 357.22,533.30 360.49,534.31 363.77,533.09 367.04,533.77 370.32,536.36 373.59,544.26 376.86,548.19 380.14,558.55 383.41,564.18 386.69,561.29 389.96,558.27 393.24,557.56 396.51,561.63 399.78,565.94 403.06,574.93 406.33,584.58 409.61,591.73 412.88,599.26 416.15,605.85 419.43,608.32 422.70,600.40 425.98,589.85 429.25,578.29 432.53,570.50 435.80,564.66 439.07,557.98 442.35,552.74 445.62,547.44 448.90,545.69 452.17,552.10 455.44,561.23 458.72,570.75 461.99,583.82 465.27,595.29 468.54,605.47 471.81,612.60 475.09,616.79 478.36,616.76 481.64,615.52 484.91,613.76 488.19,612.23 491.46,607.14 494.73,598.73 498.01,589.02 501.28,578.26 504.56,572.46 507.83,567.39 511.10,561.17 514.38,555.52 517.65,553.38 520.93,560.94 524.20,572.75 527.47,584.63 530.75,594.34 534.02,602.23 537.30,608.56 540.57,613.55 543.85,617.34 547.12,620.22 550.39,619.42 553.67,618.23 556.94,612.33 560.22,609.31 563.49,607.66 566.76,605.74 570.04,610.34 573.31,616.00 576.59,616.37 579.86,616.38 583.14,619.38 586.41,619.53 589.68,618.94 592.96,615.07 596.23,607.14 599.51,596.66 602.78,585.85 606.05,573.72 609.33,565.58 612.60,557.52 615.88,552.01 619.15,552.58 622.42,550.28 625.70,547.06 628.97,551.12 632.25,559.38 635.52,562.33 638.80,565.44 642.07,568.69 645.34,572.91 648.62,578.43 651.89,588.65 655.17,598.14 658.44,605.14 661.71,612.03 664.99,616.22 668.26,617.84 671.54,620.61 674.81,621.89 678.08,622.37 681.36,624.13 684.63,623.35 687.91,621.77 691.18,620.37 694.46,614.95 697.73,605.30 701.00,593.53 704.28,581.59 707.55,570.61 710.83,563.12 714.10,558.55 717.37,554.19 720.65,548.15 723.92,542.29 727.20,536.60 730.47,534.17 733.75,530.63 737.02,527.64 740.29,526.13 743.57,525.18 746.84,526.92 750.12,528.12 753.39,531.01 756.66,531.09 759.94,532.67 763.21,533.05 766.49,531.48 769.76,528.95 773.03,528.58 776.31,530.79 779.58,537.53 782.86,545.82 786.13,559.07 789.41,571.50 792.68,576.74 795.95,575.93 799.23,571.54 802.50,570.15 805.78,572.80 809.05,578.50 812.32,578.77 815.60,575.72 818.87,572.95 822.15,568.86 825.42,565.06 828.69,559.72 831.97,560.20 835.24,562.83 838.52,571.87 841.79,580.74 845.07,589.23 848.34,595.92 851.61,601.34 854.89,602.83 858.16,599.78 861.44,597.96 864.71,599.33 867.98,600.51 871.26,602.64 874.53,604.83 877.81,602.56 881.08,597.78 884.36,586.76 887.63,571.15 890.90,555.44 894.18,545.05 897.45,538.43 900.73,533.76 904.00,530.94" />
<text x="824.00" y="502.00" font-size="13" font-family="Arial" fill="#2ca02c" text-anchor="start">K</text>
<text x="860.00" y="502.00" font-size="13" font-family="Arial" fill="#d62728" text-anchor="start">D</text>
</svg>