<svg xmlns="http://www.w3.org/2000/svg" width="960" height="680" viewBox="0 0 960 680"><rect width="100%" height="100%" fill="white" />
<text x="56.00" y="32.00" font-size="20" font-family="Arial" fill="#1f2933" text-anchor="start">聯發科(2454) Technical Indicators</text>
<line x1="56" y1="220" x2="904" y2="220" stroke="#cbd2d9" />
<line x1="56" y1="58" x2="56" y2="220" stroke="#cbd2d9" />
<text x="16.00" y="50.00" font-size="12" font-family="Arial" fill="#52606d" text-anchor="start">RSI14</text>
<line x1="56" y1="220.00" x2="904" y2="220.00" stroke="#edf2f7" />
<line x1="52" y1="220.00" x2="56" y2="220.00" stroke="#9fb3c8" />
<text x="48.00" y="224.00" font-size="11" font-family="Arial" fill="#52606d" text-anchor="end">-5.00</text>
<line x1="56" y1="166.00" x2="904" y2="166.00" stroke="#edf2f7" />
<line x1="52" y1="166.00" x2="56" y2="166.00" stroke="#9fb3c8" />
<text x="48.00" y="170.00" font-size="11" font-family="Arial" fill="#52606d" text-anchor="end">31.7</text>
<line x1="56" y1="112.00" x2="904" y2="112.00" stroke="#edf2f7" />
<line x1="52" y1="112.00" x2="56" y2="112.00" stroke="#9fb3c8" />
<text x="48.00" y="116.00" font-size="11" font-family="Arial" fill="#52606d" text-anchor="end">68.3</text>
<line x1="56" y1="58.00" x2="904" y2="58.00" stroke="#edf2f7" />
<line x1="52" y1="58.00" x2="56" y2="58.00" stroke="#9fb3c8" />
<text x="48.00" y="62.00" font-size="11" font-family="Arial" fill="#52606d" text-anchor="end">105</text>
<line x1="56" y1="168.45" x2="904" y2="168.45" stroke="#f0b429" stroke-dasharray="5 5" />
<text x="912.00" y="172.45" font-size="10" font-family="Arial" fill="#8d2b0b" text-anchor="start">30.0</text>
<line x1="56" y1="109.55" x2="904" y2="109.55" stroke="#f0b429" stroke-dasharray="5 5" />
<text x="912.00" y="113.55" font-size="10" font-family="Arial" fill="#8d2b0b" text-anchor="start">70.0</text>
<polyline fill="none" stroke="#1f77b4" stroke-width="2" points="101.84,128.44 105.11,132.61 108.39,111.63 111.66,104.64 114.93,101.99 118.21,114.46 121.48,112.82 124.76,110.38 128.03,117.41 131.31,113.82 134.58,111.27 137.85,110.41 141.13,110.41 144.40,110.41 147.68,110.41 150.95,123.74 154.22,137.75 157.50,132.09 160.77,135.34 164.05,146.81 167.32,143.68 170.59,148.95 173.87,138.43 177.14,139.84 180.42,138.35 183.69,136.80 186.97,133.69 190.24,127.84 193.51,135.00 196.79,124.28 200.06,131.04 203.34,141.33 206.61,138.50 209.88,138.50 213.16,126.57 216.43,129.80 219.71,129.80 222.98,134.88 226.25,139.70 229.53,142.81 232.80,142.81 236.08,131.39 239.35,134.92 242.63,121.74 245.90,123.56 249.17,108.65 252.45,115.36 255.72,118.63 259.00,117.68 262.27,117.68 265.54,108.74 268.82,117.49 272.09,117.49 275.37,137.93 278.64,145.67 281.92,151.52 285.19,159.07 288.46,155.09 291.74,160.64 295.01,159.25 298.29,163.86 301.56,164.60 304.83,153.07 308.11,151.72 311.38,148.95 314.66,146.16 317.93,152.63 321.20,154.66 324.48,151.53 327.75,146.90 331.03,146.90 334.30,143.65 337.58,143.65 340.85,146.70 344.12,156.11 347.40,142.55 350.67,147.77 353.95,151.45 357.22,148.08 360.49,148.08 363.77,150.88 367.04,145.28 370.32,140.01 373.59,151.57 376.86,158.53 380.14,160.66 383.41,162.77 386.69,160.68 389.96,160.68 393.24,164.28 396.51,164.28 399.78,176.04 403.06,177.57 406.33,166.22 409.61,173.11 412.88,171.00 416.15,157.40 419.43,128.60 422.70,121.96 425.98,114.35 429.25,108.65 432.53,115.92 435.80,119.43 439.07,118.74 442.35,115.94 445.62,113.88 448.90,119.33 452.17,113.60 455.44,129.12 458.72,127.50 461.99,125.06 465.27,125.06 468.54,124.17 471.81,125.57 475.09,128.45 478.36,131.34 481.64,134.24 484.91,137.14 488.19,135.73 491.46,126.71 494.73,126.71 498.01,124.20 501.28,115.41 504.56,106.35 507.83,110.41 511.10,109.58 514.38,125.17 517.65,132.42 520.93,126.92 524.20,119.30 527.47,116.73 530.75,119.90 534.02,117.14 537.30,123.62 540.57,123.62 543.85,130.11 547.12,125.40 550.39,103.63 553.67,93.15 556.94,92.86 560.22,92.56 563.49,92.56 566.76,98.44 570.04,112.90 573.31,104.23 576.59,103.81 579.86,110.91 583.14,123.44 586.41,111.26 589.68,110.00 592.96,109.14 596.23,120.63 599.51,117.51 602.78,113.16 606.05,106.93 609.33,115.14 612.60,128.44 615.88,140.32 619.15,134.26 622.42,135.48 625.70,146.57 628.97,141.83 632.25,135.25 635.52,133.16 638.80,140.70 642.07,141.82 645.34,139.35 648.62,139.35 651.89,145.62 655.17,142.77 658.44,151.54 661.71,152.09 664.99,152.09 668.26,155.63 671.54,156.22 674.81,164.33 678.08,166.25 681.36,168.60 684.63,168.60 687.91,167.40 691.18,145.38 694.46,146.08 697.73,146.08 701.00,138.14 704.28,124.27 707.55,116.87 710.83,108.18 714.10,106.07 717.37,110.59 720.65,98.93 723.92,91.20 727.20,101.92 730.47,94.34 733.75,94.34 737.02,89.58 740.29,94.24 743.57,93.24 746.84,87.22 750.12,82.78 753.39,79.75 756.66,80.65 759.94,78.61 763.21,76.69 766.49,90.48 769.76,104.00 773.03,109.40 776.31,117.60 779.58,113.61 782.86,126.06 786.13,123.64 789.41,114.64 792.68,107.79 795.95,101.15 799.23,100.84 802.50,95.54 805.78,106.05 809.05,110.35 812.32,106.02 815.60,107.36 818.87,106.98 822.15,112.51 825.42,118.50 828.69,128.13 831.97,117.93 835.24,129.44 838.52,131.75 841.79,129.16 845.07,121.89 848.34,119.82 851.61,123.72 854.89,126.45 858.16,124.36 861.44,122.40 864.71,132.63 867.98,131.82 871.26,146.58 874.53,145.48 877.81,134.26 881.08,131.58 884.36,131.27 887.63,136.94 890.90,139.50 894.18,142.11 897.45,143.42 900.73,146.10 904.00,146.10" />
<text x="808.00" y="76.00" font-size="13" font-family="Arial" fill="#1f77b4" text-anchor="start">RSI14</text>
<line x1="56" y1="432" x2="904" y2="432" stroke="#cbd2d9" />
<line x1="56" y1="272" x2="56" y2="432" stroke="#cbd2d9" />
<text x="16.00" y="264.00" font-size="12" font-family="Arial" fill="#52606d" text-anchor="start">MACD</text>
<line x1="56" y1="432.00" x2="904" y2="432.00" stroke="#edf2f7" />
<line x1="52" y1="432.00" x2="56" y2="432.00" stroke="#9fb3c8" />
<text x="48.00" y="436.00" font-size="11" font-family="Arial" fill="#52606d" text-anchor="end">-145</text>
<line x1="56" y1="378.67" x2="904" y2="378.67" stroke="#edf2f7" />
<line x1="52" y1="378.67" x2="56" y2="378.67" stroke="#9fb3c8" />
<text x="48.00" y="382.67" font-size="11" font-family="Arial" fill="#52606d" text-anchor="end">85.8</text>
<line x1="56" y1="325.33" x2="904" y2="325.33" stroke="#edf2f7" />
<line x1="52" y1="325.33" x2="56" y2="325.33" stroke="#9fb3c8" />
<text x="48.00" y="329.33" font-size="11" font-family="Arial" fill="#52606d" text-anchor="end">317</text>
<line x1="56" y1="272.00" x2="904" y2="272.00" stroke="#edf2f7" />
<line x1="52" y1="272.00" x2="56" y2="272.00" stroke="#9fb3c8" />
<text x="48.00" y="276.00" font-size="11" font-family="Arial" fill="#52606d" text-anchor="end">548</text>
<line x1="56" y1="398.46" x2="904" y2="398.46" stroke="#9fb3c8" stroke-dasharray="4 4" />
<rect x="136.71" y="398.46" width="2.28" height="0.00" fill="#2f9e44" opacity="0.55" />
<rect x="139.99" y="398.36" width="2.28" height="0.10" fill="#2f9e44" opacity="0.55" />
<rect x="143.26" y="398.39" width="2.28" height="0.07" fill="#2f9e44" opacity="0.55" />
<rect x="146.53" y="398.46" width="2.28" height="0.05" fill="#d64545" opacity="0.55" />
<rect x="149.81" y="398.46" width="2.28" height="0.64" fill="#d64545" opacity="0.55" />
<rect x="153.08" y="398.46" width="2.28" height="1.65" fill="#d64545" opacity="0.55" />
<rect x="156.36" y="398.46" width="2.28" height="1.99" fill="#d64545" opacity="0.55" />
<rect x="159.63" y="398.46" width="2.28" height="2.32" fill="#d64545" opacity="0.55" />
<rect x="162.90" y="398.46" width="2.28" height="3.06" fill="#d64545" opacity="0.55" />
<rect x="166.18" y="398.46" width="2.28" height="3.29" fill="#d64545" opacity="0.55" />
<rect x="169.45" y="398.46" width="2.28" height="3.61" fill="#d64545" opacity="0.55" />
<rect x="172.73" y="398.46" width="2.28" height="3.18" fill="#d64545" opacity="0.55" />
<rect x="176.00" y="398.46" width="2.28" height="2.85" fill="#d64545" opacity="0.55" />
<rect x="179.28" y="398.46" width="2.28" height="2.47" fill="#d64545" opacity="0.55" />
<rect x="182.55" y="398.46" width="2.28" height="2.07" fill="#d64545" opacity="0.55" />
<rect x="185.82" y="398.46" width="2.28" height="1.59" fill="#d64545" opacity="0.55" />
<rect x="189.10" y="398.46" width="2.28" height="0.95" fill="#d64545" opacity="0.55" />
<rect x="192.37" y="398.46" width="2.28" height="0.81" fill="#d64545" opacity="0.55" />
<rect x="195.65" y="398.46" width="2.28" height="0.12" fill="#d64545" opacity="0.55" />
<rect x="198.92" y="398.45" width="2.28" height="0.00" fill="#2f9e44" opacity="0.55" />
<rect x="202.19" y="398.46" width="2.28" height="0.44" fill="#d64545" opacity="0.55" />
<rect x="205.47" y="398.46" width="2.28" height="0.58" fill="#d64545" opacity="0.55" />
<rect x="208.74" y="398.46" width="2.28" height="0.65" fill="#d64545" opacity="0.55" />
<rect x="212.02" y="398.46" width="2.28" height="0.04" fill="#d64545" opacity="0.55" />
<rect x="215.29" y="398.27" width="2.28" height="0.19" fill="#2f9e44" opacity="0.55" />
<rect x="218.57" y="398.15" width="2.28" height="0.30" fill="#2f9e44" opacity="0.55" />
<rect x="221.84" y="398.33" width="2.28" height="0.12" fill="#2f9e44" opacity="0.55" />
<rect x="225.11" y="398.46" width="2.28" height="0.23" fill="#d64545" opacity="0.55" />
<rect x="228.39" y="398.46" width="2.28" height="0.60" fill="#d64545" opacity="0.55" />
<rect x="231.66" y="398.46" width="2.28" height="0.82" fill="#d64545" opacity="0.55" />
<rect x="234.94" y="398.46" width="2.28" height="0.43" fill="#d64545" opacity="0.55" />
<rect x="238.21" y="398.46" width="2.28" height="0.32" fill="#d64545" opacity="0.55" />
<rect x="241.48" y="397.99" width="2.28" height="0.47" fill="#2f9e44" opacity="0.55" />
<rect x="244.76" y="397.60" width="2.28" height="0.85" fill="#2f9e44" opacity="0.55" />
<rect x="248.03" y="396.28" width="2.28" height="2.18" fill="#2f9e44" opacity="0.55" />
<rect x="251.31" y="395.87" width="2.28" height="2.59" fill="#2f9e44" opacity="0.55" />
<rect x="254.58" y="395.92" width="2.28" height="2.54" fill="#2f9e44" opacity="0.55" />
<rect x="257.85" y="396.05" width="2.28" height="2.41" fill="#2f9e44" opacity="0.55" />
<rect x="261.13" y="396.29" width="2.28" height="2.16" fill="#2f9e44" opacity="0.55" />
<rect x="264.40" y="395.89" width="2.28" height="2.57" fill="#2f9e44" opacity="0.55" />
<rect x="267.68" y="396.18" width="2.28" height="2.28" fill="#2f9e44" opacity="0.55" />
<rect x="270.95" y="396.53" width="2.28" height="1.92" fill="#2f9e44" opacity="0.55" />
<rect x="274.23" y="397.92" width="2.28" height="0.54" fill="#2f9e44" opacity="0.55" />
<rect x="277.50" y="398.46" width="2.28" height="0.93" fill="#d64545" opacity="0.55" />
<rect x="280.77" y="398.46" width="2.28" height="2.28" fill="#d64545" opacity="0.55" />
<rect x="284.05" y="398.46" width="2.28" height="3.71" fill="#d64545" opacity="0.55" />
<rect x="287.32" y="398.46" width="2.28" height="4.25" fill="#d64545" opacity="0.55" />
<rect x="290.60" y="398.46" width="2.28" height="4.89" fill="#d64545" opacity="0.55" />
<rect x="293.87" y="398.46" width="2.28" height="5.00" fill="#d64545" opacity="0.55" />
<rect x="297.14" y="398.46" width="2.28" height="5.24" fill="#d64545" opacity="0.55" />
<rect x="300.42" y="398.46" width="2.28" height="5.19" fill="#d64545" opacity="0.55" />
<rect x="303.69" y="398.46" width="2.28" height="4.31" fill="#d64545" opacity="0.55" />
<rect x="306.97" y="398.46" width="2.28" height="3.43" fill="#d64545" opacity="0.55" />
<rect x="310.24" y="398.46" width="2.28" height="2.53" fill="#d64545" opacity="0.55" />
<rect x="313.51" y="398.46" width="2.28" height="1.66" fill="#d64545" opacity="0.55" />
<rect x="316.79" y="398.46" width="2.28" height="1.41" fill="#d64545" opacity="0.55" />
<rect x="320.06" y="398.46" width="2.28" height="1.29" fill="#d64545" opacity="0.55" />
<rect x="323.34" y="398.46" width="2.28" height="0.96" fill="#d64545" opacity="0.55" />
<rect x="326.61" y="398.46" width="2.28" height="0.44" fill="#d64545" opacity="0.55" />
<rect x="329.89" y="398.46" width="2.28" height="0.04" fill="#d64545" opacity="0.55" />
<rect x="333.16" y="398.05" width="2.28" height="0.40" fill="#2f9e44" opacity="0.55" />
<rect x="336.43" y="397.75" width="2.28" height="0.70" fill="#2f9e44" opacity="0.55" />
<rect x="339.71" y="397.70" width="2.28" height="0.76" fill="#2f9e44" opacity="0.55" />
<rect x="342.98" y="398.16" width="2.28" height="0.29" fill="#2f9e44" opacity="0.55" />
<rect x="346.26" y="397.85" width="2.28" height="0.60" fill="#2f9e44" opacity="0.55" />
<rect x="349.53" y="397.94" width="2.28" height="0.52" fill="#2f9e44" opacity="0.55" />
<rect x="352.80" y="398.19" width="2.28" height="0.27" fill="#2f9e44" opacity="0.55" />
<rect x="356.08" y="398.18" width="2.28" height="0.27" fill="#2f9e44" opacity="0.55" />
<rect x="359.35" y="398.15" width="2.28" height="0.31" fill="#2f9e44" opacity="0.55" />
<rect x="362.63" y="398.25" width="2.28" height="0.20" fill="#2f9e44" opacity="0.55" />
<rect x="365.90" y="398.08" width="2.28" height="0.38" fill="#2f9e44" opacity="0.55" />
<rect x="369.18" y="397.73" width="2.28" height="0.72" fill="#2f9e44" opacity="0.55" />
<rect x="372.45" y="398.09" width="2.28" height="0.36" fill="#2f9e44" opacity="0.55" />
<rect x="375.72" y="398.46" width="2.28" height="0.28" fill="#d64545" opacity="0.55" />
<rect x="379.00" y="398.46" width="2.28" height="0.78" fill="#d64545" opacity="0.55" />
<rect x="382.27" y="398.46" width="2.28" height="1.15" fill="#d64545" opacity="0.55" />
<rect x="385.55" y="398.46" width="2.28" height="1.22" fill="#d64545" opacity="0.55" />
<rect x="388.82" y="398.46" width="2.28" height="1.15" fill="#d64545" opacity="0.55" />
<rect x="392.09" y="398.46" width="2.28" height="1.22" fill="#d64545" opacity="0.55" />
<rect x="395.37" y="398.46" width="2.28" height="1.15" fill="#d64545" opacity="0.55" />
<rect x="398.64" y="398.46" width="2.28" height="1.86" fill="#d64545" opacity="0.55" />
<rect x="401.92" y="398.46" width="2.28" height="2.30" fill="#d64545" opacity="0.55" />
<rect x="405.19" y="398.46" width="2.28" height="2.03" fill="#d64545" opacity="0.55" />
<rect x="408.46" y="398.46" width="2.28" height="2.27" fill="#d64545" opacity="0.55" />
<rect x="411.74" y="398.46" width="2.28" height="2.16" fill="#d64545" opacity="0.55" />
<rect x="415.01" y="398.46" width="2.28" height="1.40" fill="#d64545" opacity="0.55" />
<rect x="418.29" y="397.57" width="2.28" height="0.88" fill="#2f9e44" opacity="0.55" />
<rect x="421.56" y="395.54" width="2.28" height="2.91" fill="#2f9e44" opacity="0.55" />
<rect x="424.84" y="393.56" width="2.28" height="4.89" fill="#2f9e44" opacity="0.55" />
<rect x="428.11" y="391.80" width="2.28" height="6.65" fill="#2f9e44" opacity="0.55" />
<rect x="431.38" y="391.44" width="2.28" height="7.02" fill="#2f9e44" opacity="0.55" />
<rect x="434.66" y="391.77" width="2.28" height="6.69" fill="#2f9e44" opacity="0.55" />
<rect x="437.93" y="392.24" width="2.28" height="6.22" fill="#2f9e44" opacity="0.55" />
<rect x="441.21" y="392.58" width="2.28" height="5.88" fill="#2f9e44" opacity="0.55" />
<rect x="444.48" y="392.90" width="2.28" height="5.56" fill="#2f9e44" opacity="0.55" />
<rect x="447.75" y="393.71" width="2.28" height="4.75" fill="#2f9e44" opacity="0.55" />
<rect x="451.03" y="393.93" width="2.28" height="4.53" fill="#2f9e44" opacity="0.55" />
<rect x="454.30" y="395.29" width="2.28" height="3.17" fill="#2f9e44" opacity="0.55" />
<rect x="457.58" y="396.22" width="2.28" height="2.24" fill="#2f9e44" opacity="0.55" />
<rect x="460.85" y="396.77" width="2.28" height="1.69" fill="#2f9e44" opacity="0.55" />
<rect x="464.12" y="397.27" width="2.28" height="1.19" fill="#2f9e44" opacity="0.55" />
<rect x="467.40" y="397.64" width="2.28" height="0.82" fill="#2f9e44" opacity="0.55" />
<rect x="470.67" y="398.06" width="2.28" height="0.40" fill="#2f9e44" opacity="0.55" />
<rect x="473.95" y="398.46" width="2.28" height="0.10" fill="#d64545" opacity="0.55" />
<rect x="477.22" y="398.46" width="2.28" height="0.62" fill="#d64545" opacity="0.55" />
<rect x="480.50" y="398.46" width="2.28" height="1.13" fill="#d64545" opacity="0.55" />
<rect x="483.77" y="398.46" width="2.28" height="1.60" fill="#d64545" opacity="0.55" />
<rect x="487.04" y="398.46" width="2.28" height="1.80" fill="#d64545" opacity="0.55" />
<rect x="490.32" y="398.46" width="2.28" height="1.39" fill="#d64545" opacity="0.55" />
<rect x="493.59" y="398.46" width="2.28" height="1.12" fill="#d64545" opacity="0.55" />
<rect x="496.87" y="398.46" width="2.28" height="0.80" fill="#d64545" opacity="0.55" />
<rect x="500.14" y="398.46" width="2.28" height="0.04" fill="#d64545" opacity="0.55" />
<rect x="503.41" y="397.27" width="2.28" height="1.18" fill="#2f9e44" opacity="0.55" />
<rect x="506.69" y="396.79" width="2.28" height="1.67" fill="#2f9e44" opacity="0.55" />
<rect x="509.96" y="396.56" width="2.28" height="1.90" fill="#2f9e44" opacity="0.55" />
<rect x="513.24" y="397.23" width="2.28" height="1.22" fill="#2f9e44" opacity="0.55" />
<rect x="516.51" y="398.15" width="2.28" height="0.30" fill="#2f9e44" opacity="0.55" />
<rect x="519.79" y="398.44" width="2.28" height="0.01" fill="#2f9e44" opacity="0.55" />
<rect x="523.06" y="398.11" width="2.28" height="0.35" fill="#2f9e44" opacity="0.55" />
<rect x="526.33" y="397.77" width="2.28" height="0.69" fill="#2f9e44" opacity="0.55" />
<rect x="529.61" y="397.80" width="2.28" height="0.65" fill="#2f9e44" opacity="0.55" />
<rect x="532.88" y="397.71" width="2.28" height="0.75" fill="#2f9e44" opacity="0.55" />
<rect x="536.16" y="398.05" width="2.28" height="0.40" fill="#2f9e44" opacity="0.55" />
<rect x="539.43" y="398.37" width="2.28" height="0.09" fill="#2f9e44" opacity="0.55" />
<rect x="542.70" y="398.46" width="2.28" height="0.47" fill="#d64545" opacity="0.55" />
<rect x="545.98" y="398.46" width="2.28" height="0.58" fill="#d64545" opacity="0.55" />
<rect x="549.25" y="397.03" width="2.28" height="1.43" fill="#2f9e44" opacity="0.55" />
<rect x="552.53" y="393.86" width="2.28" height="4.59" fill="#2f9e44" opacity="0.55" />
<rect x="555.80" y="392.13" width="2.28" height="6.32" fill="#2f9e44" opacity="0.55" />
<rect x="559.07" y="391.41" width="2.28" height="7.05" fill="#2f9e44" opacity="0.55" />
<rect x="562.35" y="391.43" width="2.28" height="7.02" fill="#2f9e44" opacity="0.55" />
<rect x="565.62" y="392.24" width="2.28" height="6.21" fill="#2f9e44" opacity="0.55" />
<rect x="568.90" y="394.03" width="2.28" height="4.43" fill="#2f9e44" opacity="0.55" />
<rect x="572.17" y="394.22" width="2.28" height="4.24" fill="#2f9e44" opacity="0.55" />
<rect x="575.45" y="394.65" width="2.28" height="3.81" fill="#2f9e44" opacity="0.55" />
<rect x="578.72" y="395.73" width="2.28" height="2.73" fill="#2f9e44" opacity="0.55" />
<rect x="581.99" y="397.61" width="2.28" height="0.85" fill="#2f9e44" opacity="0.55" />
<rect x="585.27" y="397.26" width="2.28" height="1.20" fill="#2f9e44" opacity="0.55" />
<rect x="588.54" y="397.06" width="2.28" height="1.39" fill="#2f9e44" opacity="0.55" />
<rect x="591.82" y="397.06" width="2.28" height="1.40" fill="#2f9e44" opacity="0.55" />
<rect x="595.09" y="398.20" width="2.28" height="0.26" fill="#2f9e44" opacity="0.55" />
<rect x="598.36" y="398.46" width="2.28" height="0.22" fill="#d64545" opacity="0.55" />
<rect x="601.64" y="398.46" width="2.28" height="0.04" fill="#d64545" opacity="0.55" />
<rect x="604.91" y="397.47" width="2.28" height="0.98" fill="#2f9e44" opacity="0.55" />
<rect x="608.19" y="397.74" width="2.28" height="0.72" fill="#2f9e44" opacity="0.55" />
<rect x="611.46" y="398.46" width="2.28" height="0.92" fill="#d64545" opacity="0.55" />
<rect x="614.73" y="398.46" width="2.28" height="3.49" fill="#d64545" opacity="0.55" />
<rect x="618.01" y="398.46" width="2.28" height="4.29" fill="#d64545" opacity="0.55" />
<rect x="621.28" y="398.46" width="2.28" height="4.89" fill="#d64545" opacity="0.55" />
<rect x="624.56" y="398.46" width="2.28" height="6.64" fill="#d64545" opacity="0.55" />
<rect x="627.83" y="398.46" width="2.28" height="6.95" fill="#d64545" opacity="0.55" />
<rect x="631.11" y="398.46" width="2.28" height="6.03" fill="#d64545" opacity="0.55" />
<rect x="634.38" y="398.46" width="2.28" height="4.97" fill="#d64545" opacity="0.55" />
<rect x="637.65" y="398.46" width="2.28" height="5.10" fill="#d64545" opacity="0.55" />
<rect x="640.93" y="398.46" width="2.28" height="5.16" fill="#d64545" opacity="0.55" />
<rect x="644.20" y="398.46" width="2.28" height="4.72" fill="#d64545" opacity="0.55" />
<rect x="647.48" y="398.46" width="2.28" height="4.26" fill="#d64545" opacity="0.55" />
<rect x="650.75" y="398.46" width="2.28" height="4.55" fill="#d64545" opacity="0.55" />
<rect x="654.02" y="398.46" width="2.28" height="4.26" fill="#d64545" opacity="0.55" />
<rect x="657.30" y="398.46" width="2.28" height="4.99" fill="#d64545" opacity="0.55" />
<rect x="660.57" y="398.46" width="2.28" height="5.29" fill="#d64545" opacity="0.55" />
<rect x="663.85" y="398.46" width="2.28" height="5.22" fill="#d64545" opacity="0.55" />
<rect x="667.12" y="398.46" width="2.28" height="5.36" fill="#d64545" opacity="0.55" />
<rect x="670.40" y="398.46" width="2.28" height="5.23" fill="#d64545" opacity="0.55" />
<rect x="673.67" y="398.46" width="2.28" height="5.95" fill="#d64545" opacity="0.55" />
<rect x="676.94" y="398.46" width="2.28" height="6.36" fill="#d64545" opacity="0.55" />
<rect x="680.22" y="398.46" width="2.28" height="6.61" fill="#d64545" opacity="0.55" />
<rect x="683.49" y="398.46" width="2.28" height="6.35" fill="#d64545" opacity="0.55" />
<rect x="686.77" y="398.46" width="2.28" height="5.71" fill="#d64545" opacity="0.55" />
<rect x="690.04" y="398.46" width="2.28" height="3.32" fill="#d64545" opacity="0.55" />
<rect x="693.31" y="398.46" width="2.28" height="1.62" fill="#d64545" opacity="0.55" />
<rect x="696.59" y="398.46" width="2.28" height="0.38" fill="#d64545" opacity="0.55" />
<rect x="699.86" y="397.28" width="2.28" height="1.18" fill="#2f9e44" opacity="0.55" />
<rect x="703.14" y="394.80" width="2.28" height="3.65" fill="#2f9e44" opacity="0.55" />
<rect x="706.41" y="392.33" width="2.28" height="6.13" fill="#2f9e44" opacity="0.55" />
<rect x="709.68" y="389.49" width="2.28" height="8.96" fill="#2f9e44" opacity="0.55" />
<rect x="712.96" y="387.69" width="2.28" height="10.76" fill="#2f9e44" opacity="0.55" />
<rect x="716.23" y="387.46" width="2.28" height="10.99" fill="#2f9e44" opacity="0.55" />
<rect x="719.51" y="385.11" width="2.28" height="13.34" fill="#2f9e44" opacity="0.55" />
<rect x="722.78" y="381.37" width="2.28" height="17.09" fill="#2f9e44" opacity="0.55" />
<rect x="726.06" y="381.15" width="2.28" height="17.31" fill="#2f9e44" opacity="0.55" />
<rect x="729.33" y="378.81" width="2.28" height="19.65" fill="#2f9e44" opacity="0.55" />
<rect x="732.60" y="378.52" width="2.28" height="19.94" fill="#2f9e44" opacity="0.55" />
<rect x="735.88" y="376.94" width="2.28" height="21.51" fill="#2f9e44" opacity="0.55" />
<rect x="739.15" y="377.92" width="2.28" height="20.54" fill="#2f9e44" opacity="0.55" />
<rect x="742.43" y="379.38" width="2.28" height="19.08" fill="#2f9e44" opacity="0.55" />
<rect x="745.70" y="377.83" width="2.28" height="20.63" fill="#2f9e44" opacity="0.55" />
<rect x="748.97" y="374.15" width="2.28" height="24.31" fill="#2f9e44" opacity="0.55" />
<rect x="752.25" y="369.53" width="2.28" height="28.93" fill="#2f9e44" opacity="0.55" />
<rect x="755.52" y="368.80" width="2.28" height="29.66" fill="#2f9e44" opacity="0.55" />
<rect x="758.80" y="367.39" width="2.28" height="31.07" fill="#2f9e44" opacity="0.55" />
<rect x="762.07" y="365.12" width="2.28" height="33.34" fill="#2f9e44" opacity="0.55" />
<rect x="765.34" y="368.80" width="2.28" height="29.66" fill="#2f9e44" opacity="0.55" />
<rect x="768.62" y="376.44" width="2.28" height="22.01" fill="#2f9e44" opacity="0.55" />
<rect x="771.89" y="384.54" width="2.28" height="13.92" fill="#2f9e44" opacity="0.55" />
<rect x="775.17" y="393.34" width="2.28" height="5.12" fill="#2f9e44" opacity="0.55" />
<rect x="778.44" y="397.95" width="2.28" height="0.51" fill="#2f9e44" opacity="0.55" />
<rect x="781.72" y="398.46" width="2.28" height="6.87" fill="#d64545" opacity="0.55" />
<rect x="784.99" y="398.46" width="2.28" height="10.91" fill="#d64545" opacity="0.55" />
<rect x="788.26" y="398.46" width="2.28" height="9.02" fill="#d64545" opacity="0.55" />
<rect x="791.54" y="398.46" width="2.28" height="3.64" fill="#d64545" opacity="0.55" />
<rect x="794.81" y="393.72" width="2.28" height="4.74" fill="#2f9e44" opacity="0.55" />
<rect x="798.09" y="389.24" width="2.28" height="9.22" fill="#2f9e44" opacity="0.55" />
<rect x="801.36" y="382.27" width="2.28" height="16.19" fill="#2f9e44" opacity="0.55" />
<rect x="804.63" y="382.99" width="2.28" height="15.46" fill="#2f9e44" opacity="0.55" />
<rect x="807.91" y="386.64" width="2.28" height="11.82" fill="#2f9e44" opacity="0.55" />
<rect x="811.18" y="386.90" width="2.28" height="11.56" fill="#2f9e44" opacity="0.55" />
<rect x="814.46" y="389.07" width="2.28" height="9.38" fill="#2f9e44" opacity="0.55" />
<rect x="817.73" y="391.62" width="2.28" height="6.83" fill="#2f9e44" opacity="0.55" />
<rect x="821.01" y="396.27" width="2.28" height="2.19" fill="#2f9e44" opacity="0.55" />
<rect x="824.28" y="398.46" width="2.28" height="3.75" fill="#d64545" opacity="0.55" />
<rect x="827.55" y="398.46" width="2.28" height="11.64" fill="#d64545" opacity="0.55" />
<rect x="830.83" y="398.46" width="2.28" height="11.03" fill="#d64545" opacity="0.55" />
<rect x="834.10" y="398.46" width="2.28" height="15.70" fill="#d64545" opacity="0.55" />
<rect x="837.38" y="398.46" width="2.28" height="19.74" fill="#d64545" opacity="0.55" />
<rect x="840.65" y="398.46" width="2.28" height="20.72" fill="#d64545" opacity="0.55" />
<rect x="843.92" y="398.46" width="2.28" height="16.82" fill="#d64545" opacity="0.55" />
<rect x="847.20" y="398.46" width="2.28" height="12.96" fill="#d64545" opacity="0.55" />
<rect x="850.47" y="398.46" width="2.28" height="12.08" fill="#d64545" opacity="0.55" />
<rect x="853.75" y="398.46" width="2.28" height="12.65" fill="#d64545" opacity="0.55" />
<rect x="857.02" y="398.46" width="2.28" height="11.94" fill="#d64545" opacity="0.55" />
<rect x="860.29" y="398.46" width="2.28" height="10.51" fill="#d64545" opacity="0.55" />
<rect x="863.57" y="398.46" width="2.28" height="13.37" fill="#d64545" opacity="0.55" />
<rect x="866.84" y="398.46" width="2.28" height="14.72" fill="#d64545" opacity="0.55" />
<rect x="870.12" y="398.46" width="2.28" height="21.66" fill="#d64545" opacity="0.55" />
<rect x="873.39" y="398.46" width="2.28" height="24.97" fill="#d64545" opacity="0.55" />
<rect x="876.67" y="398.46" width="2.28" height="21.31" fill="#d64545" opacity="0.55" />
<rect x="879.94" y="398.46" width="2.28" height="17.01" fill="#d64545" opacity="0.55" />
<rect x="883.21" y="398.46" width="2.28" height="13.66" fill="#d64545" opacity="0.55" />
<rect x="886.49" y="398.46" width="2.28" height="13.40" fill="#d64545" opacity="0.55" />
<rect x="889.76" y="398.46" width="2.28" height="13.89" fill="#d64545" opacity="0.55" />
<rect x="893.04" y="398.46" width="2.28" height="14.80" fill="#d64545" opacity="0.55" />
<rect x="896.31" y="398.46" width="2.28" height="15.37" fill="#d64545" opacity="0.55" />
<rect x="899.58" y="398.46" width="2.28" height="16.18" fill="#d64545" opacity="0.55" />
<rect x="902.86" y="398.46" width="2.28" height="16.03" fill="#d64545" opacity="0.55" />
<polyline fill="none" stroke="#1f77b4" stroke-width="2" points="137.85,388.41 141.13,388.28 144.40,388.30 147.68,388.43 150.95,389.18 154.22,390.60 157.50,391.44 160.77,392.35 164.05,393.86 167.32,394.91 170.59,396.13 173.87,396.49 177.14,396.88 180.42,397.12 183.69,397.23 186.97,397.15 190.24,396.74 193.51,396.80 196.79,396.15 200.06,396.03 203.34,396.58 206.61,396.86 209.88,397.10 213.16,396.49 216.43,396.22 219.71,396.03 222.98,396.18 226.25,396.59 229.53,397.11 232.80,397.54 236.08,397.25 239.35,397.22 242.63,396.32 245.90,395.72 249.17,393.85 252.45,392.79 255.72,392.21 259.00,391.74 262.27,391.44 265.54,390.39 268.82,390.11 272.09,389.99 275.37,391.24 278.64,392.93 281.92,394.86 285.19,397.22 288.46,398.81 291.74,400.69 295.01,402.04 298.29,403.60 301.56,404.85 304.83,405.04 308.11,405.02 311.38,404.75 314.66,404.29 317.93,404.40 321.20,404.60 324.48,404.51 327.75,404.10 331.03,403.71 334.30,403.17 337.58,402.69 340.85,402.44 344.12,402.84 347.40,402.37 350.67,402.33 353.95,402.52 357.22,402.44 360.49,402.33 363.77,402.38 367.04,402.11 370.32,401.59 373.59,401.86 376.86,402.57 380.14,403.26 383.41,403.92 386.69,404.29 389.96,404.52 393.24,404.89 396.51,405.11 399.78,406.28 403.06,407.29 406.33,407.54 409.61,408.34 412.88,408.77 416.15,408.36 419.43,405.86 422.70,403.10 425.98,399.90 429.25,396.47 432.53,394.35 435.80,393.01 439.07,391.93 442.35,390.79 445.62,389.72 448.90,389.35 452.17,388.43 455.44,389.00 458.72,389.37 461.99,389.50 465.27,389.70 468.54,389.87 471.81,390.19 475.09,390.71 478.36,391.39 481.64,392.18 484.91,393.05 488.19,393.70 491.46,393.64 494.73,393.65 498.01,393.53 501.28,392.77 504.56,391.26 507.83,390.36 511.10,389.65 514.38,390.02 517.65,390.86 520.93,391.15 524.20,390.73 527.47,390.22 530.75,390.09 534.02,389.81 537.30,390.05 540.57,390.34 543.85,391.03 547.12,391.28 550.39,388.91 553.67,384.60 556.94,381.29 560.22,378.80 563.49,377.07 566.76,376.33 570.04,377.01 573.31,376.13 576.59,375.61 579.86,376.01 583.14,377.68 586.41,377.03 589.68,376.49 592.96,376.13 596.23,377.21 599.51,377.74 602.78,377.57 606.05,376.30 609.33,376.39 612.60,378.26 615.88,381.69 619.15,383.57 622.42,385.39 625.70,388.80 628.97,390.85 632.25,391.44 635.52,391.62 638.80,393.02 642.07,394.37 645.34,395.11 648.62,395.72 651.89,397.15 655.17,397.92 658.44,399.90 661.71,401.52 664.99,402.76 668.26,404.23 671.54,405.41 674.81,407.63 678.08,409.62 681.36,411.52 684.63,412.85 687.91,413.64 691.18,412.08 694.46,410.79 697.73,409.64 701.00,407.78 704.28,404.40 707.55,400.39 710.83,395.31 714.10,390.82 717.37,387.85 720.65,382.16 723.92,374.14 727.20,369.60 730.47,362.34 733.75,357.07 737.02,350.12 740.29,345.95 743.57,342.65 746.84,335.94 750.12,326.18 753.39,314.33 756.66,306.18 759.94,297.01 763.21,286.41 766.49,282.67 769.76,284.81 773.03,289.43 776.31,296.94 779.58,301.43 782.86,310.53 786.13,317.29 789.41,317.65 792.68,313.19 795.95,303.62 799.23,296.84 802.50,285.82 805.78,282.68 809.05,283.37 812.32,280.74 815.60,280.57 818.87,281.41 822.15,285.51 825.42,292.39 828.69,303.19 831.97,305.34 835.24,313.93 838.52,322.90 841.79,329.06 845.07,329.37 848.34,328.75 851.61,330.89 854.89,334.62 858.16,336.89 861.44,338.10 864.71,344.30 867.98,349.32 871.26,361.68 874.53,371.24 877.81,372.90 881.08,372.86 884.36,372.93 887.63,376.02 890.90,379.97 894.18,384.58 897.45,389.00 900.73,393.85 904.00,397.70" />
<polyline fill="none" stroke="#ff7f0e" stroke-width="2" points="137.85,388.41 141.13,388.38 144.40,388.37 147.68,388.38 150.95,388.54 154.22,388.95 157.50,389.45 160.77,390.03 164.05,390.79 167.32,391.62 170.59,392.52 173.87,393.31 177.14,394.03 180.42,394.65 183.69,395.16 186.97,395.56 190.24,395.80 193.51,396.00 196.79,396.03 200.06,396.03 203.34,396.14 206.61,396.28 209.88,396.45 213.16,396.46 216.43,396.41 219.71,396.33 222.98,396.30 226.25,396.36 229.53,396.51 232.80,396.72 236.08,396.82 239.35,396.90 242.63,396.79 245.90,396.57 249.17,396.03 252.45,395.38 255.72,394.75 259.00,394.15 262.27,393.60 265.54,392.96 268.82,392.39 272.09,391.91 275.37,391.78 278.64,392.01 281.92,392.58 285.19,393.51 288.46,394.57 291.74,395.79 295.01,397.04 298.29,398.35 301.56,399.65 304.83,400.73 308.11,401.59 311.38,402.22 314.66,402.63 317.93,402.99 321.20,403.31 324.48,403.55 327.75,403.66 331.03,403.67 334.30,403.57 337.58,403.39 340.85,403.20 344.12,403.13 347.40,402.98 350.67,402.85 353.95,402.78 357.22,402.71 360.49,402.64 363.77,402.59 367.04,402.49 370.32,402.31 373.59,402.22 376.86,402.29 380.14,402.48 383.41,402.77 386.69,403.08 389.96,403.36 393.24,403.67 396.51,403.96 399.78,404.42 403.06,405.00 406.33,405.51 409.61,406.07 412.88,406.61 416.15,406.96 419.43,406.74 422.70,406.01 425.98,404.79 429.25,403.13 432.53,401.37 435.80,399.70 439.07,398.14 442.35,396.67 445.62,395.28 448.90,394.10 452.17,392.96 455.44,392.17 458.72,391.61 461.99,391.19 465.27,390.89 468.54,390.69 471.81,390.59 475.09,390.61 478.36,390.77 481.64,391.05 484.91,391.45 488.19,391.90 491.46,392.25 494.73,392.53 498.01,392.73 501.28,392.74 504.56,392.44 507.83,392.03 511.10,391.55 514.38,391.25 517.65,391.17 520.93,391.17 524.20,391.08 527.47,390.91 530.75,390.74 534.02,390.56 537.30,390.46 540.57,390.43 543.85,390.55 547.12,390.70 550.39,390.34 553.67,389.19 556.94,387.61 560.22,385.85 563.49,384.09 566.76,382.54 570.04,381.43 573.31,380.37 576.59,379.42 579.86,378.74 583.14,378.53 586.41,378.23 589.68,377.88 592.96,377.53 596.23,377.47 599.51,377.52 602.78,377.53 606.05,377.28 609.33,377.11 612.60,377.34 615.88,378.21 619.15,379.28 622.42,380.50 625.70,382.16 628.97,383.90 632.25,385.41 635.52,386.65 638.80,387.92 642.07,389.21 645.34,390.39 648.62,391.46 651.89,392.60 655.17,393.66 658.44,394.91 661.71,396.23 664.99,397.54 668.26,398.88 671.54,400.18 674.81,401.67 678.08,403.26 681.36,404.91 684.63,406.50 687.91,407.93 691.18,408.76 694.46,409.17 697.73,409.26 701.00,408.96 704.28,408.05 707.55,406.52 710.83,404.28 714.10,401.59 717.37,398.84 720.65,395.50 723.92,391.23 727.20,386.90 730.47,381.99 733.75,377.01 737.02,371.63 740.29,366.49 743.57,361.73 746.84,356.57 750.12,350.49 753.39,343.26 756.66,335.84 759.94,328.08 763.21,319.74 766.49,312.33 769.76,306.82 773.03,303.35 776.31,302.07 779.58,301.94 782.86,303.66 786.13,306.38 789.41,308.64 792.68,309.55 795.95,308.36 799.23,306.06 802.50,302.01 805.78,298.15 809.05,295.19 812.32,292.30 815.60,289.96 818.87,288.25 822.15,287.70 825.42,288.64 828.69,291.55 831.97,294.31 835.24,298.23 838.52,303.17 841.79,308.34 845.07,312.55 848.34,315.79 851.61,318.81 854.89,321.97 858.16,324.96 861.44,327.58 864.71,330.93 867.98,334.61 871.26,340.02 874.53,346.27 877.81,351.59 881.08,355.85 884.36,359.26 887.63,362.61 890.90,366.08 894.18,369.78 897.45,373.63 900.73,377.67 904.00,381.68" />
<text x="754.00" y="290.00" font-size="13" font-family="Arial" fill="#1f77b4" text-anchor="start">MACD</text>
<text x="818.00" y="290.00" font-size="13" font-family="Arial" fill="#ff7f0e" text-anchor="start">Signal</text>
<line x1="56" y1="624" x2="904" y2="624" stroke="#cbd2d9" />
<line x1="56" y1="484" x2="56" y2="624" stroke="#cbd2d9" />
<text x="16.00" y="476.00" font-size="12" font-family="Arial" fill="#52606d" text-anchor="start">KD</text>
<line x1="56" y1="624.00" x2="904" y2="624.00" stroke="#edf2f7" />
<line x1="52" y1="624.00" x2="56" y2="624.00" stroke="#9fb3c8" />
<text x="48.00" y="628.00" font-size="11" font-family="Arial" fill="#52606d" text-anchor="end">-5.00</text>
<line x1="56" y1="577.33" x2="904" y2="577.33" stroke="#edf2f7" />
<line x1="52" y1="577.33" x2="56" y2="577.33" stroke="#9fb3c8" />
<text x="48.00" y="581.33" font-size="11" font-family="Arial" fill="#52606d" text-anchor="end">31.7</text>
<line x1="56" y1="530.67" x2="904" y2="530.67" stroke="#edf2f7" />
<line x1="52" y1="530.67" x2="56" y2="530.67" stroke="#9fb3c8" />
<text x="48.00" y="534.67" font-size="11" font-family="Arial" fill="#52606d" text-anchor="end">68.3</text>
<line x1="56" y1="484.00" x2="904" y2="484.00" stroke="#edf2f7" />
<line x1="52" y1="484.00" x2="56" y2="484.00" stroke="#9fb3c8" />
<text x="48.00" y="488.00" font-size="11" font-family="Arial" fill="#52606d" text-anchor="end">105</text>
<line x1="56.00" y1="624" x2="56.00" y2="628" stroke="#9fb3c8" />
<text x="56.00" y="642.00" font-size="11" font-family="Arial" fill="#52606d" text-anchor="middle">06/17</text>
<line x1="226.25" y1="624" x2="226.25" y2="628" stroke="#9fb3c8" />
<text x="226.25" y="642.00" font-size="11" font-family="Arial" fill="#52606d" text-anchor="middle">08/29</text>
<line x1="396.51" y1="624" x2="396.51" y2="628" stroke="#9fb3c8" />
<text x="396.51" y="642.00" font-size="11" font-family="Arial" fill="#52606d" text-anchor="middle">11/17</text>
<line x1="563.49" y1="624" x2="563.49" y2="628" stroke="#9fb3c8" />
<text x="563.49" y="642.00" font-size="11" font-family="Arial" fill="#52606d" text-anchor="middle">01/29</text>
<line x1="733.75" y1="624" x2="733.75" y2="628" stroke="#9fb3c8" />
<text x="733.75" y="642.00" font-size="11" font-family="Arial" fill="#52606d" text-anchor="middle">04/27</text>
<line x1="904.00" y1="624" x2="904.00" y2="628" stroke="#9fb3c8" />
<text x="904.00" y="642.00" font-size="11" font-family="Arial" fill="#52606d" text-anchor="middle">07/10</text>
<line x1="56" y1="592.18" x2="904" y2="592.18" stroke="#f0b429" stroke-dasharray="5 5" />
<text x="912.00" y="596.18" font-size="10" font-family="Arial" fill="#8d2b0b" text-anchor="start">20.0</text>
<line x1="56" y1="515.82" x2="904" y2="515.82" stroke="#f0b429" stroke-dasharray="5 5" />
<text x="912.00" y="519.82" font-size="10" font-family="Arial" fill="#8d2b0b" text-anchor="start">80.0</text>
<polyline fill="none" stroke="#2ca02c" stroke-width="2" points="82.19,573.01 85.47,604.62 88.74,611.97 92.02,606.73 95.29,603.23 98.56,601.90 101.84,608.53 105.11,620.48 108.39,592.02 111.66,567.97 114.93,551.76 118.21,550.29 121.48,546.64 124.76,540.21 128.03,541.26 131.31,536.62 134.58,535.44 137.85,547.45 141.13,562.65 144.40,572.79 147.68,579.55 150.95,604.24 154.22,618.31 157.50,619.82 160.77,620.58 164.05,630.81 167.32,634.32 170.59,639.46 173.87,631.73 177.14,628.29 180.42,623.98 183.69,617.81 186.97,607.33 190.24,590.70 193.51,591.21 196.79,574.11 200.06,579.48 203.34,598.30 206.61,608.94 209.88,618.78 213.16,603.44 216.43,598.08 219.71,594.51 222.98,599.43 226.25,610.01 229.53,624.81 232.80,634.68 236.08,621.69 239.35,619.92 242.63,594.53 245.90,585.08 249.17,564.44 252.45,556.47 255.72,553.59 259.00,551.58 262.27,551.51 265.54,543.50 268.82,546.30 272.09,553.29 275.37,586.61 278.64,605.70 281.92,618.20 285.19,624.53 288.46,625.87 291.74,629.00 295.01,626.49 298.29,629.06 301.56,631.25 304.83,624.67 308.11,618.23 311.38,607.13 314.66,595.74 317.93,601.94 321.20,610.67 324.48,611.89 327.75,605.81 331.03,603.79 334.30,604.34 337.58,604.70 340.85,610.86 344.12,629.58 347.40,618.43 350.67,622.81 353.95,634.60 357.22,636.55 360.49,638.43 363.77,638.45 367.04,629.99 370.32,613.88 373.59,630.72 376.86,644.07 380.14,651.72 383.41,654.88 386.69,654.69 389.96,651.69 393.24,650.66 396.51,649.98 399.78,646.91 403.06,642.65 406.33,632.35 409.61,631.52 412.88,629.69 416.15,617.00 419.43,582.84 422.70,563.21 425.98,546.45 429.25,533.18 432.53,529.21 435.80,528.45 439.07,527.86 442.35,525.84 445.62,523.67 448.90,536.23 452.17,537.14 455.44,577.92 458.72,596.41 461.99,600.98 465.27,604.03 468.54,603.47 471.81,605.69 475.09,612.34 478.36,621.94 481.64,634.38 484.91,648.19 488.19,654.64 491.46,639.64 494.73,629.63 498.01,616.86 501.28,597.39 504.56,573.84 507.83,561.24 511.10,551.43 514.38,557.54 517.65,568.65 520.93,573.09 524.20,565.37 527.47,554.72 530.75,551.29 534.02,542.14 537.30,543.71 540.57,544.76 543.85,553.12 547.12,552.91 550.39,534.35 553.67,523.49 556.94,518.82 560.22,515.13 563.49,512.67 566.76,513.32 570.04,520.01 573.31,514.39 576.59,510.80 579.86,523.00 583.14,549.88 586.41,541.71 589.68,532.84 592.96,524.65 596.23,534.03 599.51,534.18 602.78,524.28 606.05,519.16 609.33,522.41 612.60,545.42 615.88,570.35 619.15,578.04 622.42,584.79 625.70,590.50 628.97,589.68 632.25,582.20 635.52,573.19 638.80,573.90 642.07,569.88 645.34,563.09 648.62,558.57 651.89,565.84 655.17,573.85 658.44,585.42 661.71,594.11 664.99,598.91 668.26,607.74 671.54,604.55 674.81,609.61 678.08,613.96 681.36,615.80 684.63,614.23 687.91,609.72 691.18,586.98 694.46,569.79 697.73,552.86 701.00,541.89 704.28,529.46 707.55,523.13 710.83,516.14 714.10,510.89 717.37,511.09 720.65,505.15 723.92,501.02 727.20,505.37 730.47,501.14 733.75,505.69 737.02,504.28 740.29,505.84 743.57,505.54 746.84,501.25 750.12,498.38 753.39,497.68 756.66,497.86 759.94,497.43 763.21,498.70 766.49,504.69 769.76,515.17 773.03,529.74 776.31,554.66 779.58,563.98 782.86,580.13 786.13,587.32 789.41,576.86 792.68,551.85 795.95,532.29 799.23,524.66 802.50,515.29 805.78,515.15 809.05,517.71 812.32,513.56 815.60,518.62 818.87,524.01 822.15,543.21 825.42,560.72 828.69,575.15 831.97,568.27 835.24,576.72 838.52,583.32 841.79,584.05 845.07,565.55 848.34,548.50 851.61,537.27 854.89,535.14 858.16,529.27 861.44,529.28 864.71,540.94 867.98,558.34 871.26,579.18 874.53,589.27 877.81,581.28 881.08,572.00 884.36,565.37 887.63,567.54 890.90,567.30 894.18,570.05 897.45,572.92 900.73,580.18 904.00,592.67" />
<polyline fill="none" stroke="#d62728" stroke-width="2" points="82.19,560.34 85.47,575.10 88.74,587.39 92.02,593.84 95.29,596.97 98.56,598.61 101.84,601.92 105.11,608.10 108.39,602.74 111.66,591.15 114.93,578.02 118.21,568.78 121.48,561.40 124.76,554.33 128.03,549.97 131.31,545.52 134.58,542.16 137.85,543.92 141.13,550.17 144.40,557.71 147.68,564.99 150.95,578.07 154.22,591.49 157.50,600.93 160.77,607.48 164.05,615.26 167.32,621.61 170.59,627.56 173.87,628.95 177.14,628.73 180.42,627.15 183.69,624.03 186.97,618.47 190.24,609.21 193.51,603.21 196.79,593.51 200.06,588.83 203.34,591.99 206.61,597.64 209.88,604.69 213.16,604.27 216.43,602.21 219.71,599.64 222.98,599.57 226.25,603.05 229.53,610.30 232.80,618.43 236.08,619.51 239.35,619.65 242.63,611.27 245.90,602.54 249.17,589.84 252.45,578.72 255.72,570.34 259.00,564.09 262.27,559.89 265.54,554.43 268.82,551.72 272.09,552.24 275.37,563.70 278.64,577.70 281.92,591.20 285.19,602.31 288.46,610.16 291.74,616.44 295.01,619.79 298.29,622.88 301.56,625.67 304.83,625.34 308.11,622.97 311.38,617.69 314.66,610.37 317.93,607.56 321.20,608.60 324.48,609.70 327.75,608.40 331.03,606.86 334.30,606.02 337.58,605.58 340.85,607.34 344.12,614.75 347.40,615.98 350.67,618.26 353.95,623.70 357.22,627.99 360.49,631.47 363.77,633.80 367.04,632.53 370.32,626.31 373.59,627.78 376.86,633.21 380.14,639.38 383.41,644.55 386.69,647.93 389.96,649.18 393.24,649.67 396.51,649.78 399.78,648.82 403.06,646.76 406.33,641.96 409.61,638.48 412.88,635.55 416.15,629.36 419.43,613.86 422.70,596.97 425.98,580.13 429.25,564.48 432.53,552.72 435.80,544.63 439.07,539.04 442.35,534.64 445.62,530.98 448.90,532.73 452.17,534.20 455.44,548.77 458.72,564.65 461.99,576.76 465.27,585.85 468.54,591.72 471.81,596.38 475.09,601.70 478.36,608.45 481.64,617.09 484.91,627.46 488.19,636.52 491.46,637.56 494.73,634.92 498.01,628.90 501.28,618.39 504.56,603.54 507.83,589.44 511.10,576.77 514.38,570.36 517.65,569.79 520.93,570.89 524.20,569.05 527.47,564.27 530.75,559.95 534.02,554.01 537.30,550.58 540.57,548.64 543.85,550.13 547.12,551.06 550.39,545.49 553.67,538.16 556.94,531.71 560.22,526.18 563.49,521.68 566.76,518.89 570.04,519.27 573.31,517.64 576.59,515.36 579.86,517.91 583.14,528.56 586.41,532.95 589.68,532.91 592.96,530.16 596.23,531.45 599.51,532.36 602.78,529.67 606.05,526.17 609.33,524.91 612.60,531.75 615.88,544.62 619.15,555.76 622.42,565.43 625.70,573.79 628.97,579.08 632.25,580.12 635.52,577.81 638.80,576.51 642.07,574.30 645.34,570.56 648.62,566.57 651.89,566.32 655.17,568.83 658.44,574.36 661.71,580.94 664.99,586.93 668.26,593.87 671.54,597.43 674.81,601.49 678.08,605.65 681.36,609.03 684.63,610.76 687.91,610.42 691.18,602.60 694.46,591.67 697.73,578.73 701.00,566.45 704.28,554.12 707.55,543.79 710.83,534.57 714.10,526.68 717.37,521.48 720.65,516.04 723.92,511.03 727.20,509.14 730.47,506.48 733.75,506.21 737.02,505.57 740.29,505.66 743.57,505.62 746.84,504.16 750.12,502.23 753.39,500.71 756.66,499.76 759.94,498.98 763.21,498.89 766.49,500.82 769.76,505.61 773.03,513.65 776.31,527.32 779.58,539.54 782.86,553.07 786.13,564.48 789.41,568.61 792.68,563.02 795.95,552.78 799.23,543.40 802.50,534.03 805.78,527.74 809.05,524.40 812.32,520.79 815.60,520.06 818.87,521.38 822.15,528.66 825.42,539.34 828.69,551.28 831.97,556.94 835.24,563.53 838.52,570.13 841.79,574.77 845.07,571.70 848.34,563.97 851.61,555.07 854.89,548.42 858.16,542.04 861.44,537.79 864.71,538.84 867.98,545.34 871.26,556.62 874.53,567.50 877.81,572.10 881.08,572.06 884.36,569.83 887.63,569.07 890.90,568.48 894.18,569.00 897.45,570.31 900.73,573.60 904.00,579.96" />
<text x="824.00" y="502.00" font-size="13" font-family="Arial" fill="#2ca02c" text-anchor="start">K</text>
<text x="860.00" y="502.00" font-size="13" font-family="Arial" fill="#d62728" text-anchor="start">D</text>
</svg>