<svg xmlns="http://www.w3.org/2000/svg" width="960" height="680" viewBox="0 0 960 680"><rect width="100%" height="100%" fill="white" />
<text x="56.00" y="32.00" font-size="20" font-family="Arial" fill="#1f2933" text-anchor="start">聯電(2303) Technical Indicators</text>
<line x1="56" y1="220" x2="904" y2="220" stroke="#cbd2d9" />
<line x1="56" y1="58" x2="56" y2="220" stroke="#cbd2d9" />
<text x="16.00" y="50.00" font-size="12" font-family="Arial" fill="#52606d" text-anchor="start">RSI14</text>
<line x1="56" y1="220.00" x2="904" y2="220.00" stroke="#edf2f7" />
<line x1="52" y1="220.00" x2="56" y2="220.00" stroke="#9fb3c8" />
<text x="48.00" y="224.00" font-size="11" font-family="Arial" fill="#52606d" text-anchor="end">-5.00</text>
<line x1="56" y1="166.00" x2="904" y2="166.00" stroke="#edf2f7" />
<line x1="52" y1="166.00" x2="56" y2="166.00" stroke="#9fb3c8" />
<text x="48.00" y="170.00" font-size="11" font-family="Arial" fill="#52606d" text-anchor="end">31.7</text>
<line x1="56" y1="112.00" x2="904" y2="112.00" stroke="#edf2f7" />
<line x1="52" y1="112.00" x2="56" y2="112.00" stroke="#9fb3c8" />
<text x="48.00" y="116.00" font-size="11" font-family="Arial" fill="#52606d" text-anchor="end">68.3</text>
<line x1="56" y1="58.00" x2="904" y2="58.00" stroke="#edf2f7" />
<line x1="52" y1="58.00" x2="56" y2="58.00" stroke="#9fb3c8" />
<text x="48.00" y="62.00" font-size="11" font-family="Arial" fill="#52606d" text-anchor="end">105</text>
<line x1="56" y1="168.45" x2="904" y2="168.45" stroke="#f0b429" stroke-dasharray="5 5" />
<text x="912.00" y="172.45" font-size="10" font-family="Arial" fill="#8d2b0b" text-anchor="start">30.0</text>
<line x1="56" y1="109.55" x2="904" y2="109.55" stroke="#f0b429" stroke-dasharray="5 5" />
<text x="912.00" y="113.55" font-size="10" font-family="Arial" fill="#8d2b0b" text-anchor="start">70.0</text>
<polyline fill="none" stroke="#1f77b4" stroke-width="2" points="101.84,165.13 105.11,158.65 108.39,159.58 111.66,157.86 114.93,158.91 118.21,157.96 121.48,163.38 124.76,147.57 128.03,152.23 131.31,152.23 134.58,152.23 137.85,160.42 141.13,163.00 144.40,171.73 147.68,174.27 150.95,170.26 154.22,175.43 157.50,177.41 160.77,175.31 164.05,176.05 167.32,170.44 170.59,168.20 173.87,167.03 177.14,157.97 180.42,166.77 183.69,154.24 186.97,141.07 190.24,147.21 193.51,155.64 196.79,156.13 200.06,139.07 203.34,147.97 206.61,151.26 209.88,152.21 213.16,148.75 216.43,146.65 219.71,146.65 222.98,132.34 226.25,142.07 229.53,137.38 232.80,139.19 236.08,141.65 239.35,145.87 242.63,142.35 245.90,143.01 249.17,143.70 252.45,137.52 255.72,132.53 259.00,116.69 262.27,119.94 265.54,112.62 268.82,106.05 272.09,114.55 275.37,110.66 278.64,106.23 281.92,123.64 285.19,128.75 288.46,128.32 291.74,124.41 295.01,119.21 298.29,114.22 301.56,116.95 304.83,124.82 308.11,129.13 311.38,125.49 314.66,118.55 317.93,115.97 321.20,124.54 324.48,124.11 327.75,125.48 331.03,123.54 334.30,119.76 337.58,125.83 340.85,123.29 344.12,118.03 347.40,108.77 350.67,111.95 353.95,116.69 357.22,133.97 360.49,142.36 363.77,140.21 367.04,139.66 370.32,142.47 373.59,148.36 376.86,151.37 380.14,154.32 383.41,149.25 386.69,147.10 389.96,142.82 393.24,138.05 396.51,121.52 399.78,138.50 403.06,135.12 406.33,130.49 409.61,132.22 412.88,125.84 416.15,120.20 419.43,117.94 422.70,114.32 425.98,108.55 429.25,106.24 432.53,104.55 435.80,108.42 439.07,118.57 442.35,117.40 445.62,116.99 448.90,114.12 452.17,105.80 455.44,107.41 458.72,104.84 461.99,103.59 465.27,118.15 468.54,123.15 471.81,120.46 475.09,124.87 478.36,127.07 481.64,130.76 484.91,138.34 488.19,140.94 491.46,132.13 494.73,100.90 498.01,114.07 501.28,105.14 504.56,104.47 507.83,108.26 511.10,116.44 514.38,113.30 517.65,100.61 520.93,92.47 524.20,85.75 527.47,85.16 530.75,90.31 534.02,106.47 537.30,98.82 540.57,90.95 543.85,92.28 547.12,119.57 550.39,134.77 553.67,138.47 556.94,138.25 560.22,135.97 563.49,136.74 566.76,135.73 570.04,134.41 573.31,134.41 576.59,133.23 579.86,129.97 583.14,120.60 586.41,127.95 589.68,128.31 592.96,131.67 596.23,138.39 599.51,146.48 602.78,139.46 606.05,139.78 609.33,146.97 612.60,144.42 615.88,138.10 619.15,143.40 622.42,146.86 625.70,143.06 628.97,142.28 632.25,140.67 635.52,149.26 638.80,152.17 642.07,155.62 645.34,156.25 648.62,144.08 651.89,147.34 655.17,148.79 658.44,151.71 661.71,153.53 664.99,148.70 668.26,161.44 671.54,141.29 674.81,134.63 678.08,135.72 681.36,129.31 684.63,136.42 687.91,137.86 691.18,129.95 694.46,114.90 697.73,106.98 701.00,101.78 704.28,104.40 707.55,101.27 710.83,118.24 714.10,116.72 717.37,122.30 720.65,117.91 723.92,119.84 727.20,114.78 730.47,108.75 733.75,106.14 737.02,97.14 740.29,93.09 743.57,107.76 746.84,104.12 750.12,96.67 753.39,110.27 756.66,102.83 759.94,101.48 763.21,100.80 766.49,99.41 769.76,110.22 773.03,103.88 776.31,107.87 779.58,100.29 782.86,97.23 786.13,91.42 789.41,94.10 792.68,93.01 795.95,92.34 799.23,101.03 802.50,118.87 805.78,126.31 809.05,120.72 812.32,133.36 815.60,127.65 818.87,137.11 822.15,131.39 825.42,124.73 828.69,119.23 831.97,119.81 835.24,121.03 838.52,117.00 841.79,108.19 845.07,103.37 848.34,100.02 851.61,99.81 854.89,117.39 858.16,117.39 861.44,117.07 864.71,114.14 867.98,118.60 871.26,115.13 874.53,120.92 877.81,133.32 881.08,124.83 884.36,131.99 887.63,131.99 890.90,134.62 894.18,137.28 897.45,124.33 900.73,130.68 904.00,144.72" />
<text x="808.00" y="76.00" font-size="13" font-family="Arial" fill="#1f77b4" text-anchor="start">RSI14</text>
<line x1="56" y1="432" x2="904" y2="432" stroke="#cbd2d9" />
<line x1="56" y1="272" x2="56" y2="432" stroke="#cbd2d9" />
<text x="16.00" y="264.00" font-size="12" font-family="Arial" fill="#52606d" text-anchor="start">MACD</text>
<line x1="56" y1="432.00" x2="904" y2="432.00" stroke="#edf2f7" />
<line x1="52" y1="432.00" x2="56" y2="432.00" stroke="#9fb3c8" />
<text x="48.00" y="436.00" font-size="11" font-family="Arial" fill="#52606d" text-anchor="end">-4.43</text>
<line x1="56" y1="378.67" x2="904" y2="378.67" stroke="#edf2f7" />
<line x1="52" y1="378.67" x2="56" y2="378.67" stroke="#9fb3c8" />
<text x="48.00" y="382.67" font-size="11" font-family="Arial" fill="#52606d" text-anchor="end">3.05</text>
<line x1="56" y1="325.33" x2="904" y2="325.33" stroke="#edf2f7" />
<line x1="52" y1="325.33" x2="56" y2="325.33" stroke="#9fb3c8" />
<text x="48.00" y="329.33" font-size="11" font-family="Arial" fill="#52606d" text-anchor="end">10.5</text>
<line x1="56" y1="272.00" x2="904" y2="272.00" stroke="#edf2f7" />
<line x1="52" y1="272.00" x2="56" y2="272.00" stroke="#9fb3c8" />
<text x="48.00" y="276.00" font-size="11" font-family="Arial" fill="#52606d" text-anchor="end">18.0</text>
<line x1="56" y1="400.41" x2="904" y2="400.41" stroke="#9fb3c8" stroke-dasharray="4 4" />
<rect x="136.71" y="400.41" width="2.28" height="0.00" fill="#2f9e44" opacity="0.55" />
<rect x="139.99" y="400.41" width="2.28" height="0.26" fill="#d64545" opacity="0.55" />
<rect x="143.26" y="400.41" width="2.28" height="0.83" fill="#d64545" opacity="0.55" />
<rect x="146.53" y="400.41" width="2.28" height="1.28" fill="#d64545" opacity="0.55" />
<rect x="149.81" y="400.41" width="2.28" height="1.37" fill="#d64545" opacity="0.55" />
<rect x="153.08" y="400.41" width="2.28" height="1.64" fill="#d64545" opacity="0.55" />
<rect x="156.36" y="400.41" width="2.28" height="1.83" fill="#d64545" opacity="0.55" />
<rect x="159.63" y="400.41" width="2.28" height="1.76" fill="#d64545" opacity="0.55" />
<rect x="162.90" y="400.41" width="2.28" height="1.63" fill="#d64545" opacity="0.55" />
<rect x="166.18" y="400.41" width="2.28" height="1.31" fill="#d64545" opacity="0.55" />
<rect x="169.45" y="400.41" width="2.28" height="0.94" fill="#d64545" opacity="0.55" />
<rect x="172.73" y="400.41" width="2.28" height="0.59" fill="#d64545" opacity="0.55" />
<rect x="176.00" y="400.41" width="2.28" height="0.11" fill="#d64545" opacity="0.55" />
<rect x="179.28" y="400.41" width="2.28" height="0.10" fill="#d64545" opacity="0.55" />
<rect x="182.55" y="400.16" width="2.28" height="0.25" fill="#2f9e44" opacity="0.55" />
<rect x="185.82" y="399.52" width="2.28" height="0.89" fill="#2f9e44" opacity="0.55" />
<rect x="189.10" y="399.34" width="2.28" height="1.07" fill="#2f9e44" opacity="0.55" />
<rect x="192.37" y="399.59" width="2.28" height="0.82" fill="#2f9e44" opacity="0.55" />
<rect x="195.65" y="399.77" width="2.28" height="0.64" fill="#2f9e44" opacity="0.55" />
<rect x="198.92" y="399.31" width="2.28" height="1.10" fill="#2f9e44" opacity="0.55" />
<rect x="202.19" y="399.42" width="2.28" height="0.99" fill="#2f9e44" opacity="0.55" />
<rect x="205.47" y="399.65" width="2.28" height="0.75" fill="#2f9e44" opacity="0.55" />
<rect x="208.74" y="399.85" width="2.28" height="0.56" fill="#2f9e44" opacity="0.55" />
<rect x="212.02" y="399.85" width="2.28" height="0.56" fill="#2f9e44" opacity="0.55" />
<rect x="215.29" y="399.78" width="2.28" height="0.63" fill="#2f9e44" opacity="0.55" />
<rect x="218.57" y="399.73" width="2.28" height="0.68" fill="#2f9e44" opacity="0.55" />
<rect x="221.84" y="399.21" width="2.28" height="1.19" fill="#2f9e44" opacity="0.55" />
<rect x="225.11" y="399.28" width="2.28" height="1.13" fill="#2f9e44" opacity="0.55" />
<rect x="228.39" y="399.17" width="2.28" height="1.23" fill="#2f9e44" opacity="0.55" />
<rect x="231.66" y="399.21" width="2.28" height="1.19" fill="#2f9e44" opacity="0.55" />
<rect x="234.94" y="399.37" width="2.28" height="1.04" fill="#2f9e44" opacity="0.55" />
<rect x="238.21" y="399.66" width="2.28" height="0.75" fill="#2f9e44" opacity="0.55" />
<rect x="241.48" y="399.75" width="2.28" height="0.66" fill="#2f9e44" opacity="0.55" />
<rect x="244.76" y="399.85" width="2.28" height="0.56" fill="#2f9e44" opacity="0.55" />
<rect x="248.03" y="399.95" width="2.28" height="0.46" fill="#2f9e44" opacity="0.55" />
<rect x="251.31" y="399.84" width="2.28" height="0.57" fill="#2f9e44" opacity="0.55" />
<rect x="254.58" y="399.63" width="2.28" height="0.78" fill="#2f9e44" opacity="0.55" />
<rect x="257.85" y="398.88" width="2.28" height="1.52" fill="#2f9e44" opacity="0.55" />
<rect x="261.13" y="398.58" width="2.28" height="1.83" fill="#2f9e44" opacity="0.55" />
<rect x="264.40" y="398.10" width="2.28" height="2.31" fill="#2f9e44" opacity="0.55" />
<rect x="267.68" y="397.49" width="2.28" height="2.91" fill="#2f9e44" opacity="0.55" />
<rect x="270.95" y="397.52" width="2.28" height="2.88" fill="#2f9e44" opacity="0.55" />
<rect x="274.23" y="397.46" width="2.28" height="2.94" fill="#2f9e44" opacity="0.55" />
<rect x="277.50" y="397.29" width="2.28" height="3.12" fill="#2f9e44" opacity="0.55" />
<rect x="280.77" y="397.95" width="2.28" height="2.45" fill="#2f9e44" opacity="0.55" />
<rect x="284.05" y="398.73" width="2.28" height="1.67" fill="#2f9e44" opacity="0.55" />
<rect x="287.32" y="399.33" width="2.28" height="1.08" fill="#2f9e44" opacity="0.55" />
<rect x="290.60" y="399.60" width="2.28" height="0.81" fill="#2f9e44" opacity="0.55" />
<rect x="293.87" y="399.56" width="2.28" height="0.85" fill="#2f9e44" opacity="0.55" />
<rect x="297.14" y="399.31" width="2.28" height="1.10" fill="#2f9e44" opacity="0.55" />
<rect x="300.42" y="399.35" width="2.28" height="1.06" fill="#2f9e44" opacity="0.55" />
<rect x="303.69" y="399.75" width="2.28" height="0.66" fill="#2f9e44" opacity="0.55" />
<rect x="306.97" y="400.24" width="2.28" height="0.17" fill="#2f9e44" opacity="0.55" />
<rect x="310.24" y="400.41" width="2.28" height="0.02" fill="#d64545" opacity="0.55" />
<rect x="313.51" y="400.22" width="2.28" height="0.19" fill="#2f9e44" opacity="0.55" />
<rect x="316.79" y="399.99" width="2.28" height="0.42" fill="#2f9e44" opacity="0.55" />
<rect x="320.06" y="400.22" width="2.28" height="0.19" fill="#2f9e44" opacity="0.55" />
<rect x="323.34" y="400.40" width="2.28" height="0.01" fill="#2f9e44" opacity="0.55" />
<rect x="326.61" y="400.41" width="2.28" height="0.20" fill="#d64545" opacity="0.55" />
<rect x="329.89" y="400.41" width="2.28" height="0.29" fill="#d64545" opacity="0.55" />
<rect x="333.16" y="400.41" width="2.28" height="0.20" fill="#d64545" opacity="0.55" />
<rect x="336.43" y="400.41" width="2.28" height="0.36" fill="#d64545" opacity="0.55" />
<rect x="339.71" y="400.41" width="2.28" height="0.39" fill="#d64545" opacity="0.55" />
<rect x="342.98" y="400.41" width="2.28" height="0.19" fill="#d64545" opacity="0.55" />
<rect x="346.26" y="399.97" width="2.28" height="0.44" fill="#2f9e44" opacity="0.55" />
<rect x="349.53" y="399.74" width="2.28" height="0.66" fill="#2f9e44" opacity="0.55" />
<rect x="352.80" y="399.82" width="2.28" height="0.59" fill="#2f9e44" opacity="0.55" />
<rect x="356.08" y="400.41" width="2.28" height="0.13" fill="#d64545" opacity="0.55" />
<rect x="359.35" y="400.41" width="2.28" height="0.98" fill="#d64545" opacity="0.55" />
<rect x="362.63" y="400.41" width="2.28" height="1.43" fill="#d64545" opacity="0.55" />
<rect x="365.90" y="400.41" width="2.28" height="1.65" fill="#d64545" opacity="0.55" />
<rect x="369.18" y="400.41" width="2.28" height="1.87" fill="#d64545" opacity="0.55" />
<rect x="372.45" y="400.41" width="2.28" height="2.19" fill="#d64545" opacity="0.55" />
<rect x="375.72" y="400.41" width="2.28" height="2.44" fill="#d64545" opacity="0.55" />
<rect x="379.00" y="400.41" width="2.28" height="2.64" fill="#d64545" opacity="0.55" />
<rect x="382.27" y="400.41" width="2.28" height="2.49" fill="#d64545" opacity="0.55" />
<rect x="385.55" y="400.41" width="2.28" height="2.22" fill="#d64545" opacity="0.55" />
<rect x="388.82" y="400.41" width="2.28" height="1.81" fill="#d64545" opacity="0.55" />
<rect x="392.09" y="400.41" width="2.28" height="1.31" fill="#d64545" opacity="0.55" />
<rect x="395.37" y="400.41" width="2.28" height="0.24" fill="#d64545" opacity="0.55" />
<rect x="398.64" y="400.41" width="2.28" height="0.21" fill="#d64545" opacity="0.55" />
<rect x="401.92" y="400.41" width="2.28" height="0.03" fill="#d64545" opacity="0.55" />
<rect x="405.19" y="400.10" width="2.28" height="0.31" fill="#2f9e44" opacity="0.55" />
<rect x="408.46" y="399.98" width="2.28" height="0.43" fill="#2f9e44" opacity="0.55" />
<rect x="411.74" y="399.62" width="2.28" height="0.79" fill="#2f9e44" opacity="0.55" />
<rect x="415.01" y="399.13" width="2.28" height="1.28" fill="#2f9e44" opacity="0.55" />
<rect x="418.29" y="398.76" width="2.28" height="1.64" fill="#2f9e44" opacity="0.55" />
<rect x="421.56" y="398.41" width="2.28" height="2.00" fill="#2f9e44" opacity="0.55" />
<rect x="424.84" y="397.91" width="2.28" height="2.49" fill="#2f9e44" opacity="0.55" />
<rect x="428.11" y="397.58" width="2.28" height="2.83" fill="#2f9e44" opacity="0.55" />
<rect x="431.38" y="397.41" width="2.28" height="3.00" fill="#2f9e44" opacity="0.55" />
<rect x="434.66" y="397.61" width="2.28" height="2.79" fill="#2f9e44" opacity="0.55" />
<rect x="437.93" y="398.25" width="2.28" height="2.16" fill="#2f9e44" opacity="0.55" />
<rect x="441.21" y="398.74" width="2.28" height="1.67" fill="#2f9e44" opacity="0.55" />
<rect x="444.48" y="399.16" width="2.28" height="1.25" fill="#2f9e44" opacity="0.55" />
<rect x="447.75" y="399.39" width="2.28" height="1.01" fill="#2f9e44" opacity="0.55" />
<rect x="451.03" y="399.11" width="2.28" height="1.29" fill="#2f9e44" opacity="0.55" />
<rect x="454.30" y="399.11" width="2.28" height="1.30" fill="#2f9e44" opacity="0.55" />
<rect x="457.58" y="399.06" width="2.28" height="1.34" fill="#2f9e44" opacity="0.55" />
<rect x="460.85" y="399.08" width="2.28" height="1.33" fill="#2f9e44" opacity="0.55" />
<rect x="464.12" y="399.63" width="2.28" height="0.77" fill="#2f9e44" opacity="0.55" />
<rect x="467.40" y="400.25" width="2.28" height="0.16" fill="#2f9e44" opacity="0.55" />
<rect x="470.67" y="400.41" width="2.28" height="0.18" fill="#d64545" opacity="0.55" />
<rect x="473.95" y="400.41" width="2.28" height="0.58" fill="#d64545" opacity="0.55" />
<rect x="477.22" y="400.41" width="2.28" height="0.94" fill="#d64545" opacity="0.55" />
<rect x="480.50" y="400.41" width="2.28" height="1.30" fill="#d64545" opacity="0.55" />
<rect x="483.77" y="400.41" width="2.28" height="1.77" fill="#d64545" opacity="0.55" />
<rect x="487.04" y="400.41" width="2.28" height="2.12" fill="#d64545" opacity="0.55" />
<rect x="490.32" y="400.41" width="2.28" height="1.97" fill="#d64545" opacity="0.55" />
<rect x="493.59" y="400.04" width="2.28" height="0.37" fill="#2f9e44" opacity="0.55" />
<rect x="496.87" y="399.23" width="2.28" height="1.18" fill="#2f9e44" opacity="0.55" />
<rect x="500.14" y="397.81" width="2.28" height="2.59" fill="#2f9e44" opacity="0.55" />
<rect x="503.41" y="397.03" width="2.28" height="3.38" fill="#2f9e44" opacity="0.55" />
<rect x="506.69" y="396.97" width="2.28" height="3.44" fill="#2f9e44" opacity="0.55" />
<rect x="509.96" y="397.59" width="2.28" height="2.82" fill="#2f9e44" opacity="0.55" />
<rect x="513.24" y="397.89" width="2.28" height="2.51" fill="#2f9e44" opacity="0.55" />
<rect x="516.51" y="396.61" width="2.28" height="3.80" fill="#2f9e44" opacity="0.55" />
<rect x="519.79" y="394.31" width="2.28" height="6.10" fill="#2f9e44" opacity="0.55" />
<rect x="523.06" y="390.93" width="2.28" height="9.48" fill="#2f9e44" opacity="0.55" />
<rect x="526.33" y="389.17" width="2.28" height="11.23" fill="#2f9e44" opacity="0.55" />
<rect x="529.61" y="389.18" width="2.28" height="11.23" fill="#2f9e44" opacity="0.55" />
<rect x="532.88" y="391.21" width="2.28" height="9.20" fill="#2f9e44" opacity="0.55" />
<rect x="536.16" y="391.15" width="2.28" height="9.25" fill="#2f9e44" opacity="0.55" />
<rect x="539.43" y="388.75" width="2.28" height="11.66" fill="#2f9e44" opacity="0.55" />
<rect x="542.70" y="388.24" width="2.28" height="12.17" fill="#2f9e44" opacity="0.55" />
<rect x="545.98" y="392.19" width="2.28" height="8.22" fill="#2f9e44" opacity="0.55" />
<rect x="549.25" y="398.08" width="2.28" height="2.33" fill="#2f9e44" opacity="0.55" />
<rect x="552.53" y="400.41" width="2.28" height="2.55" fill="#d64545" opacity="0.55" />
<rect x="555.80" y="400.41" width="2.28" height="5.73" fill="#d64545" opacity="0.55" />
<rect x="559.07" y="400.41" width="2.28" height="7.26" fill="#d64545" opacity="0.55" />
<rect x="562.35" y="400.41" width="2.28" height="8.25" fill="#d64545" opacity="0.55" />
<rect x="565.62" y="400.41" width="2.28" height="8.50" fill="#d64545" opacity="0.55" />
<rect x="568.90" y="400.41" width="2.28" height="8.22" fill="#d64545" opacity="0.55" />
<rect x="572.17" y="400.41" width="2.28" height="7.83" fill="#d64545" opacity="0.55" />
<rect x="575.45" y="400.41" width="2.28" height="7.19" fill="#d64545" opacity="0.55" />
<rect x="578.72" y="400.41" width="2.28" height="6.10" fill="#d64545" opacity="0.55" />
<rect x="581.99" y="400.41" width="2.28" height="3.65" fill="#d64545" opacity="0.55" />
<rect x="585.27" y="400.41" width="2.28" height="2.97" fill="#d64545" opacity="0.55" />
<rect x="588.54" y="400.41" width="2.28" height="2.59" fill="#d64545" opacity="0.55" />
<rect x="591.82" y="400.41" width="2.28" height="2.76" fill="#d64545" opacity="0.55" />
<rect x="595.09" y="400.41" width="2.28" height="3.70" fill="#d64545" opacity="0.55" />
<rect x="598.36" y="400.41" width="2.28" height="5.40" fill="#d64545" opacity="0.55" />
<rect x="601.64" y="400.41" width="2.28" height="5.35" fill="#d64545" opacity="0.55" />
<rect x="604.91" y="400.41" width="2.28" height="5.19" fill="#d64545" opacity="0.55" />
<rect x="608.19" y="400.41" width="2.28" height="5.94" fill="#d64545" opacity="0.55" />
<rect x="611.46" y="400.41" width="2.28" height="5.86" fill="#d64545" opacity="0.55" />
<rect x="614.73" y="400.41" width="2.28" height="4.77" fill="#d64545" opacity="0.55" />
<rect x="618.01" y="400.41" width="2.28" height="4.60" fill="#d64545" opacity="0.55" />
<rect x="621.28" y="400.41" width="2.28" height="4.79" fill="#d64545" opacity="0.55" />
<rect x="624.56" y="400.41" width="2.28" height="4.25" fill="#d64545" opacity="0.55" />
<rect x="627.83" y="400.41" width="2.28" height="3.62" fill="#d64545" opacity="0.55" />
<rect x="631.11" y="400.41" width="2.28" height="2.87" fill="#d64545" opacity="0.55" />
<rect x="634.38" y="400.41" width="2.28" height="3.33" fill="#d64545" opacity="0.55" />
<rect x="637.65" y="400.41" width="2.28" height="3.85" fill="#d64545" opacity="0.55" />
<rect x="640.93" y="400.41" width="2.28" height="4.46" fill="#d64545" opacity="0.55" />
<rect x="644.20" y="400.41" width="2.28" height="4.68" fill="#d64545" opacity="0.55" />
<rect x="647.48" y="400.41" width="2.28" height="3.38" fill="#d64545" opacity="0.55" />
<rect x="650.75" y="400.41" width="2.28" height="2.75" fill="#d64545" opacity="0.55" />
<rect x="654.02" y="400.41" width="2.28" height="2.35" fill="#d64545" opacity="0.55" />
<rect x="657.30" y="400.41" width="2.28" height="2.29" fill="#d64545" opacity="0.55" />
<rect x="660.57" y="400.41" width="2.28" height="2.30" fill="#d64545" opacity="0.55" />
<rect x="663.85" y="400.41" width="2.28" height="1.73" fill="#d64545" opacity="0.55" />
<rect x="667.12" y="400.41" width="2.28" height="2.91" fill="#d64545" opacity="0.55" />
<rect x="670.40" y="400.41" width="2.28" height="1.33" fill="#d64545" opacity="0.55" />
<rect x="673.67" y="399.71" width="2.28" height="0.69" fill="#2f9e44" opacity="0.55" />
<rect x="676.94" y="398.54" width="2.28" height="1.86" fill="#2f9e44" opacity="0.55" />
<rect x="680.22" y="396.95" width="2.28" height="3.46" fill="#2f9e44" opacity="0.55" />
<rect x="683.49" y="396.92" width="2.28" height="3.49" fill="#2f9e44" opacity="0.55" />
<rect x="686.77" y="397.22" width="2.28" height="3.19" fill="#2f9e44" opacity="0.55" />
<rect x="690.04" y="396.45" width="2.28" height="3.96" fill="#2f9e44" opacity="0.55" />
<rect x="693.31" y="393.37" width="2.28" height="7.03" fill="#2f9e44" opacity="0.55" />
<rect x="696.59" y="389.69" width="2.28" height="10.72" fill="#2f9e44" opacity="0.55" />
<rect x="699.86" y="386.21" width="2.28" height="14.20" fill="#2f9e44" opacity="0.55" />
<rect x="703.14" y="385.12" width="2.28" height="15.28" fill="#2f9e44" opacity="0.55" />
<rect x="706.41" y="384.24" width="2.28" height="16.16" fill="#2f9e44" opacity="0.55" />
<rect x="709.68" y="386.89" width="2.28" height="13.52" fill="#2f9e44" opacity="0.55" />
<rect x="712.96" y="388.99" width="2.28" height="11.42" fill="#2f9e44" opacity="0.55" />
<rect x="716.23" y="391.88" width="2.28" height="8.53" fill="#2f9e44" opacity="0.55" />
<rect x="719.51" y="393.25" width="2.28" height="7.16" fill="#2f9e44" opacity="0.55" />
<rect x="722.78" y="394.96" width="2.28" height="5.45" fill="#2f9e44" opacity="0.55" />
<rect x="726.06" y="395.28" width="2.28" height="5.13" fill="#2f9e44" opacity="0.55" />
<rect x="729.33" y="394.23" width="2.28" height="6.18" fill="#2f9e44" opacity="0.55" />
<rect x="732.60" y="393.29" width="2.28" height="7.12" fill="#2f9e44" opacity="0.55" />
<rect x="735.88" y="389.62" width="2.28" height="10.79" fill="#2f9e44" opacity="0.55" />
<rect x="739.15" y="385.88" width="2.28" height="14.52" fill="#2f9e44" opacity="0.55" />
<rect x="742.43" y="386.94" width="2.28" height="13.46" fill="#2f9e44" opacity="0.55" />
<rect x="745.70" y="387.01" width="2.28" height="13.40" fill="#2f9e44" opacity="0.55" />
<rect x="748.97" y="383.88" width="2.28" height="16.53" fill="#2f9e44" opacity="0.55" />
<rect x="752.25" y="385.92" width="2.28" height="14.48" fill="#2f9e44" opacity="0.55" />
<rect x="755.52" y="384.12" width="2.28" height="16.29" fill="#2f9e44" opacity="0.55" />
<rect x="758.80" y="383.43" width="2.28" height="16.97" fill="#2f9e44" opacity="0.55" />
<rect x="762.07" y="383.97" width="2.28" height="16.44" fill="#2f9e44" opacity="0.55" />
<rect x="765.34" y="384.83" width="2.28" height="15.58" fill="#2f9e44" opacity="0.55" />
<rect x="768.62" y="389.02" width="2.28" height="11.39" fill="#2f9e44" opacity="0.55" />
<rect x="771.89" y="389.29" width="2.28" height="11.12" fill="#2f9e44" opacity="0.55" />
<rect x="775.17" y="391.58" width="2.28" height="8.83" fill="#2f9e44" opacity="0.55" />
<rect x="778.44" y="389.23" width="2.28" height="11.18" fill="#2f9e44" opacity="0.55" />
<rect x="781.72" y="386.57" width="2.28" height="13.84" fill="#2f9e44" opacity="0.55" />
<rect x="784.99" y="380.54" width="2.28" height="19.86" fill="#2f9e44" opacity="0.55" />
<rect x="788.26" y="379.25" width="2.28" height="21.16" fill="#2f9e44" opacity="0.55" />
<rect x="791.54" y="379.24" width="2.28" height="21.16" fill="#2f9e44" opacity="0.55" />
<rect x="794.81" y="380.55" width="2.28" height="19.86" fill="#2f9e44" opacity="0.55" />
<rect x="798.09" y="385.33" width="2.28" height="15.08" fill="#2f9e44" opacity="0.55" />
<rect x="801.36" y="394.98" width="2.28" height="5.43" fill="#2f9e44" opacity="0.55" />
<rect x="804.63" y="400.41" width="2.28" height="4.33" fill="#d64545" opacity="0.55" />
<rect x="807.91" y="400.41" width="2.28" height="8.25" fill="#d64545" opacity="0.55" />
<rect x="811.18" y="400.41" width="2.28" height="15.91" fill="#d64545" opacity="0.55" />
<rect x="814.46" y="400.41" width="2.28" height="17.86" fill="#d64545" opacity="0.55" />
<rect x="817.73" y="400.41" width="2.28" height="23.02" fill="#d64545" opacity="0.55" />
<rect x="821.01" y="400.41" width="2.28" height="22.94" fill="#d64545" opacity="0.55" />
<rect x="824.28" y="400.41" width="2.28" height="18.64" fill="#d64545" opacity="0.55" />
<rect x="827.55" y="400.41" width="2.28" height="12.09" fill="#d64545" opacity="0.55" />
<rect x="830.83" y="400.41" width="2.28" height="8.26" fill="#d64545" opacity="0.55" />
<rect x="834.10" y="400.41" width="2.28" height="6.52" fill="#d64545" opacity="0.55" />
<rect x="837.38" y="400.41" width="2.28" height="3.28" fill="#d64545" opacity="0.55" />
<rect x="840.65" y="395.64" width="2.28" height="4.77" fill="#2f9e44" opacity="0.55" />
<rect x="843.92" y="387.01" width="2.28" height="13.39" fill="#2f9e44" opacity="0.55" />
<rect x="847.20" y="379.41" width="2.28" height="20.99" fill="#2f9e44" opacity="0.55" />
<rect x="850.47" y="376.25" width="2.28" height="24.16" fill="#2f9e44" opacity="0.55" />
<rect x="853.75" y="382.80" width="2.28" height="17.61" fill="#2f9e44" opacity="0.55" />
<rect x="857.02" y="388.65" width="2.28" height="11.76" fill="#2f9e44" opacity="0.55" />
<rect x="860.29" y="393.56" width="2.28" height="6.85" fill="#2f9e44" opacity="0.55" />
<rect x="863.57" y="395.84" width="2.28" height="4.56" fill="#2f9e44" opacity="0.55" />
<rect x="866.84" y="399.95" width="2.28" height="0.45" fill="#2f9e44" opacity="0.55" />
<rect x="870.12" y="400.41" width="2.28" height="0.79" fill="#d64545" opacity="0.55" />
<rect x="873.39" y="400.41" width="2.28" height="4.41" fill="#d64545" opacity="0.55" />
<rect x="876.67" y="400.41" width="2.28" height="12.23" fill="#d64545" opacity="0.55" />
<rect x="879.94" y="400.41" width="2.28" height="12.50" fill="#d64545" opacity="0.55" />
<rect x="883.21" y="400.41" width="2.28" height="16.00" fill="#d64545" opacity="0.55" />
<rect x="886.49" y="400.41" width="2.28" height="18.13" fill="#d64545" opacity="0.55" />
<rect x="889.76" y="400.41" width="2.28" height="20.38" fill="#d64545" opacity="0.55" />
<rect x="893.04" y="400.41" width="2.28" height="22.54" fill="#d64545" opacity="0.55" />
<rect x="896.31" y="400.41" width="2.28" height="16.52" fill="#d64545" opacity="0.55" />
<rect x="899.58" y="400.41" width="2.28" height="15.21" fill="#d64545" opacity="0.55" />
<rect x="902.86" y="400.41" width="2.28" height="21.42" fill="#d64545" opacity="0.55" />
<polyline fill="none" stroke="#1f77b4" stroke-width="2" points="137.85,402.80 141.13,403.12 144.40,403.90 147.68,404.67 150.95,405.11 154.22,405.79 157.50,406.43 160.77,406.81 164.05,407.09 167.32,407.09 170.59,406.96 173.87,406.76 177.14,406.30 180.42,406.32 183.69,405.91 186.97,405.05 190.24,404.60 193.51,404.65 196.79,404.67 200.06,403.93 203.34,403.79 206.61,403.84 209.88,403.89 213.16,403.76 216.43,403.53 219.71,403.31 222.98,402.49 226.25,402.28 229.53,401.86 232.80,401.61 236.08,401.50 239.35,401.60 242.63,401.53 245.90,401.49 249.17,401.47 252.45,401.22 255.72,400.82 259.00,399.69 262.27,398.93 265.54,397.87 268.82,396.54 272.09,395.85 275.37,395.05 278.64,394.10 281.92,394.15 285.19,394.51 288.46,394.83 291.74,394.90 295.01,394.65 298.29,394.13 301.56,393.90 304.83,394.14 308.11,394.59 311.38,394.78 314.66,394.52 317.93,394.19 321.20,394.37 324.48,394.55 327.75,394.81 331.03,394.97 334.30,394.93 337.58,395.18 340.85,395.30 344.12,395.15 347.40,394.42 350.67,394.02 353.95,393.96 357.22,394.70 360.49,395.80 363.77,396.60 367.04,397.24 370.32,397.92 373.59,398.79 376.86,399.66 380.14,400.51 383.41,400.98 386.69,401.26 389.96,401.31 393.24,401.13 396.51,400.12 399.78,400.15 403.06,399.97 406.33,399.56 409.61,399.33 412.88,398.77 416.15,397.96 419.43,397.19 422.70,396.34 425.98,395.21 429.25,394.17 432.53,393.26 435.80,392.76 439.07,392.85 442.35,392.92 445.62,393.04 448.90,393.02 452.17,392.41 455.44,392.09 458.72,391.70 461.99,391.39 465.27,391.75 468.54,392.33 471.81,392.70 475.09,393.25 478.36,393.85 481.64,394.53 484.91,395.44 488.19,396.32 491.46,396.66 494.73,394.24 498.01,393.13 501.28,391.07 504.56,389.44 507.83,388.52 511.10,388.43 514.38,388.11 517.65,385.87 520.93,382.05 524.20,376.30 527.47,371.74 530.75,368.93 534.02,368.66 537.30,366.30 540.57,360.97 543.85,357.42 547.12,359.32 550.39,364.63 553.67,370.15 556.94,374.76 560.22,378.11 563.49,381.15 566.76,383.53 570.04,385.31 573.31,386.87 576.59,388.03 579.86,388.46 583.14,386.93 586.41,386.99 589.68,387.26 592.96,388.11 596.23,389.99 599.51,393.03 602.78,394.32 606.05,395.46 609.33,397.69 612.60,399.08 615.88,399.18 619.15,400.16 622.42,401.55 625.70,402.07 628.97,402.34 632.25,402.31 635.52,403.61 638.80,405.09 642.07,406.81 645.34,408.20 648.62,407.75 651.89,407.81 655.17,408.00 658.44,408.51 661.71,409.09 664.99,408.95 668.26,410.86 671.54,409.62 674.81,407.42 678.08,405.78 681.36,403.32 684.63,402.42 687.91,401.92 691.18,400.17 694.46,395.33 697.73,388.97 701.00,381.94 704.28,377.03 707.55,372.11 710.83,371.37 714.10,370.62 717.37,371.38 720.65,370.96 723.92,371.31 727.20,370.34 730.47,367.75 733.75,365.03 737.02,358.66 740.29,351.30 743.57,348.99 746.84,345.70 750.12,338.44 753.39,336.87 756.66,330.99 759.94,326.06 763.21,322.49 766.49,319.46 769.76,320.80 773.03,318.29 776.31,318.37 779.58,313.22 782.86,307.11 786.13,296.12 789.41,289.53 792.68,284.23 795.95,280.57 799.23,281.58 802.50,289.88 805.78,300.71 809.05,306.70 812.32,318.33 815.60,324.75 818.87,335.67 822.15,341.33 825.42,341.68 828.69,338.16 831.97,336.38 835.24,336.28 838.52,333.86 841.79,324.62 845.07,312.65 848.34,299.80 851.61,290.60 854.89,292.74 858.16,295.65 861.44,298.85 864.71,299.99 867.98,303.99 871.26,305.43 874.53,310.15 877.81,321.03 881.08,324.42 884.36,331.93 887.63,338.59 890.90,345.94 894.18,353.73 897.45,351.84 900.73,354.33 904.00,365.90" />
<polyline fill="none" stroke="#ff7f0e" stroke-width="2" points="137.85,402.80 141.13,402.87 144.40,403.08 147.68,403.39 150.95,403.74 154.22,404.15 157.50,404.60 160.77,405.05 164.05,405.45 167.32,405.78 170.59,406.02 173.87,406.16 177.14,406.19 180.42,406.22 183.69,406.16 186.97,405.93 190.24,405.67 193.51,405.46 196.79,405.30 200.06,405.03 203.34,404.78 206.61,404.59 209.88,404.45 213.16,404.31 216.43,404.16 219.71,403.99 222.98,403.69 226.25,403.41 229.53,403.10 232.80,402.80 236.08,402.54 239.35,402.35 242.63,402.19 245.90,402.05 249.17,401.93 252.45,401.79 255.72,401.60 259.00,401.22 262.27,400.76 265.54,400.18 268.82,399.45 272.09,398.73 275.37,398.00 278.64,397.22 281.92,396.60 285.19,396.18 288.46,395.91 291.74,395.71 295.01,395.50 298.29,395.23 301.56,394.96 304.83,394.80 308.11,394.75 311.38,394.76 314.66,394.71 317.93,394.61 321.20,394.56 324.48,394.56 327.75,394.61 331.03,394.68 334.30,394.73 337.58,394.82 340.85,394.92 344.12,394.96 347.40,394.85 350.67,394.69 353.95,394.54 357.22,394.57 360.49,394.82 363.77,395.18 367.04,395.59 370.32,396.06 373.59,396.60 376.86,397.21 380.14,397.87 383.41,398.50 386.69,399.05 389.96,399.50 393.24,399.83 396.51,399.89 399.78,399.94 403.06,399.94 406.33,399.87 409.61,399.76 412.88,399.56 416.15,399.24 419.43,398.83 422.70,398.33 425.98,397.71 429.25,397.00 432.53,396.25 435.80,395.55 439.07,395.01 442.35,394.60 445.62,394.28 448.90,394.03 452.17,393.71 455.44,393.38 458.72,393.05 461.99,392.72 465.27,392.52 468.54,392.48 471.81,392.53 475.09,392.67 478.36,392.91 481.64,393.23 484.91,393.67 488.19,394.20 491.46,394.70 494.73,394.60 498.01,394.31 501.28,393.66 504.56,392.82 507.83,391.96 511.10,391.25 514.38,390.62 517.65,389.67 520.93,388.15 524.20,385.78 527.47,382.97 530.75,380.16 534.02,377.86 537.30,375.55 540.57,372.63 543.85,369.59 547.12,367.54 550.39,366.95 553.67,367.59 556.94,369.03 560.22,370.84 563.49,372.90 566.76,375.03 570.04,377.09 573.31,379.04 576.59,380.84 579.86,382.37 583.14,383.28 586.41,384.02 589.68,384.67 592.96,385.36 596.23,386.28 599.51,387.63 602.78,388.97 606.05,390.27 609.33,391.75 612.60,393.22 615.88,394.41 619.15,395.56 622.42,396.76 625.70,397.82 628.97,398.73 632.25,399.44 635.52,400.28 638.80,401.24 642.07,402.35 645.34,403.52 648.62,404.37 651.89,405.06 655.17,405.64 658.44,406.22 661.71,406.79 664.99,407.22 668.26,407.95 671.54,408.29 674.81,408.11 678.08,407.65 681.36,406.78 684.63,405.91 687.91,405.11 691.18,404.12 694.46,402.36 697.73,399.69 701.00,396.14 704.28,392.31 707.55,388.27 710.83,384.89 714.10,382.04 717.37,379.91 720.65,378.12 723.92,376.76 727.20,375.47 730.47,373.93 733.75,372.15 737.02,369.45 740.29,365.82 743.57,362.46 746.84,359.11 750.12,354.97 753.39,351.35 756.66,347.28 759.94,343.04 763.21,338.93 766.49,335.03 769.76,332.19 773.03,329.41 776.31,327.20 779.58,324.40 782.86,320.95 786.13,315.98 789.41,310.69 792.68,305.40 795.95,300.43 799.23,296.66 802.50,295.31 805.78,296.39 809.05,298.45 812.32,302.43 815.60,306.89 818.87,312.65 822.15,318.38 825.42,323.04 828.69,326.07 831.97,328.13 835.24,329.76 838.52,330.58 841.79,329.39 845.07,326.04 848.34,320.79 851.61,314.75 854.89,310.35 858.16,307.41 861.44,305.70 864.71,304.56 867.98,304.44 871.26,304.64 874.53,305.74 877.81,308.80 881.08,311.92 884.36,315.93 887.63,320.46 890.90,325.55 894.18,331.19 897.45,335.32 900.73,339.12 904.00,344.48" />
<text x="754.00" y="290.00" font-size="13" font-family="Arial" fill="#1f77b4" text-anchor="start">MACD</text>
<text x="818.00" y="290.00" font-size="13" font-family="Arial" fill="#ff7f0e" text-anchor="start">Signal</text>
<line x1="56" y1="624" x2="904" y2="624" stroke="#cbd2d9" />
<line x1="56" y1="484" x2="56" y2="624" stroke="#cbd2d9" />
<text x="16.00" y="476.00" font-size="12" font-family="Arial" fill="#52606d" text-anchor="start">KD</text>
<line x1="56" y1="624.00" x2="904" y2="624.00" stroke="#edf2f7" />
<line x1="52" y1="624.00" x2="56" y2="624.00" stroke="#9fb3c8" />
<text x="48.00" y="628.00" font-size="11" font-family="Arial" fill="#52606d" text-anchor="end">-5.00</text>
<line x1="56" y1="577.33" x2="904" y2="577.33" stroke="#edf2f7" />
<line x1="52" y1="577.33" x2="56" y2="577.33" stroke="#9fb3c8" />
<text x="48.00" y="581.33" font-size="11" font-family="Arial" fill="#52606d" text-anchor="end">31.7</text>
<line x1="56" y1="530.67" x2="904" y2="530.67" stroke="#edf2f7" />
<line x1="52" y1="530.67" x2="56" y2="530.67" stroke="#9fb3c8" />
<text x="48.00" y="534.67" font-size="11" font-family="Arial" fill="#52606d" text-anchor="end">68.3</text>
<line x1="56" y1="484.00" x2="904" y2="484.00" stroke="#edf2f7" />
<line x1="52" y1="484.00" x2="56" y2="484.00" stroke="#9fb3c8" />
<text x="48.00" y="488.00" font-size="11" font-family="Arial" fill="#52606d" text-anchor="end">105</text>
<line x1="56.00" y1="624" x2="56.00" y2="628" stroke="#9fb3c8" />
<text x="56.00" y="642.00" font-size="11" font-family="Arial" fill="#52606d" text-anchor="middle">06/24</text>
<line x1="226.25" y1="624" x2="226.25" y2="628" stroke="#9fb3c8" />
<text x="226.25" y="642.00" font-size="11" font-family="Arial" fill="#52606d" text-anchor="middle">09/05</text>
<line x1="396.51" y1="624" x2="396.51" y2="628" stroke="#9fb3c8" />
<text x="396.51" y="642.00" font-size="11" font-family="Arial" fill="#52606d" text-anchor="middle">11/24</text>
<line x1="563.49" y1="624" x2="563.49" y2="628" stroke="#9fb3c8" />
<text x="563.49" y="642.00" font-size="11" font-family="Arial" fill="#52606d" text-anchor="middle">02/05</text>
<line x1="733.75" y1="624" x2="733.75" y2="628" stroke="#9fb3c8" />
<text x="733.75" y="642.00" font-size="11" font-family="Arial" fill="#52606d" text-anchor="middle">05/05</text>
<line x1="904.00" y1="624" x2="904.00" y2="628" stroke="#9fb3c8" />
<text x="904.00" y="642.00" font-size="11" font-family="Arial" fill="#52606d" text-anchor="middle">07/17</text>
<line x1="56" y1="592.18" x2="904" y2="592.18" stroke="#f0b429" stroke-dasharray="5 5" />
<text x="912.00" y="596.18" font-size="10" font-family="Arial" fill="#8d2b0b" text-anchor="start">20.0</text>
<line x1="56" y1="515.82" x2="904" y2="515.82" stroke="#f0b429" stroke-dasharray="5 5" />
<text x="912.00" y="519.82" font-size="10" font-family="Arial" fill="#8d2b0b" text-anchor="start">80.0</text>
<polyline fill="none" stroke="#2ca02c" stroke-width="2" points="82.19,567.82 85.47,591.31 88.74,603.19 92.02,606.60 95.29,613.38 98.56,628.05 101.84,632.00 105.11,626.87 108.39,625.56 111.66,622.33 114.93,623.52 118.21,622.64 121.48,638.74 124.76,619.44 128.03,619.93 131.31,624.03 134.58,631.27 137.85,651.17 141.13,645.78 144.40,648.50 147.68,638.13 150.95,628.83 154.22,628.99 157.50,633.07 160.77,632.68 164.05,634.13 167.32,632.31 170.59,630.23 173.87,628.56 177.14,615.94 180.42,631.05 183.69,619.24 186.97,599.35 190.24,594.78 193.51,605.64 196.79,613.74 200.06,597.42 203.34,601.32 206.61,609.99 209.88,617.52 213.16,623.19 216.43,624.79 219.71,626.45 222.98,606.48 226.25,607.37 229.53,601.57 232.80,600.42 236.08,603.28 239.35,611.54 242.63,617.55 245.90,623.77 249.17,634.47 252.45,635.11 255.72,622.33 259.00,593.24 262.27,581.54 265.54,566.55 268.82,552.77 272.09,549.39 275.37,541.74 278.64,541.83 281.92,553.17 285.19,567.48 288.46,583.09 291.74,590.94 295.01,589.56 298.29,581.51 301.56,578.19 304.83,582.07 308.11,586.50 311.38,584.16 314.66,571.34 317.93,559.62 321.20,570.16 324.48,576.20 327.75,582.21 331.03,583.51 334.30,576.61 337.58,585.98 340.85,589.37 344.12,581.84 347.40,570.85 350.67,567.09 353.95,567.75 357.22,581.91 360.49,599.80 363.77,609.62 367.04,615.64 370.32,623.55 373.59,628.95 376.86,632.03 380.14,634.62 383.41,632.65 386.69,631.43 389.96,624.93 393.24,613.96 396.51,584.84 399.78,587.43 403.06,583.84 406.33,573.87 409.61,569.49 412.88,557.51 416.15,550.03 419.43,546.69 422.70,541.54 425.98,536.14 429.25,533.48 432.53,530.02 435.80,529.88 439.07,538.62 442.35,547.03 445.62,559.71 448.90,568.72 452.17,561.66 455.44,558.35 458.72,550.58 461.99,544.51 465.27,552.20 468.54,561.89 471.81,564.44 475.09,570.04 478.36,600.82 481.64,619.44 484.91,627.00 488.19,629.76 491.46,621.74 494.73,584.38 498.01,579.77 501.28,567.38 504.56,558.31 507.83,553.88 511.10,554.57 514.38,552.20 517.65,537.50 520.93,528.59 524.20,521.06 527.47,521.61 530.75,523.87 534.02,531.79 537.30,526.76 540.57,517.05 543.85,516.47 547.12,533.04 550.39,560.45 553.67,577.73 556.94,589.05 560.22,594.60 563.49,598.90 566.76,600.96 570.04,601.35 573.31,598.52 576.59,585.97 579.86,569.85 583.14,555.79 586.41,556.29 589.68,557.30 592.96,561.88 596.23,581.86 599.51,598.29 602.78,600.03 606.05,601.63 609.33,601.80 612.60,599.43 615.88,589.05 619.15,586.56 622.42,589.94 625.70,584.94 628.97,580.37 632.25,571.04 635.52,582.69 638.80,601.60 642.07,606.67 645.34,611.31 648.62,595.82 651.89,591.97 655.17,592.28 658.44,598.24 661.71,606.06 664.99,601.73 668.26,607.67 671.54,582.38 674.81,563.22 678.08,551.85 681.36,541.44 684.63,541.90 687.91,543.77 691.18,535.66 694.46,523.71 697.73,518.99 701.00,518.47 704.28,519.47 707.55,515.51 710.83,522.52 714.10,525.78 717.37,532.39 720.65,536.87 723.92,544.78 727.20,547.03 730.47,537.44 733.75,531.99 737.02,521.26 740.29,516.89 743.57,521.69 746.84,519.58 750.12,512.16 753.39,516.56 756.66,510.53 759.94,514.83 763.21,519.13 766.49,522.58 769.76,531.69 773.03,527.52 776.31,528.76 779.58,518.89 782.86,515.73 786.13,509.84 789.41,513.52 792.68,514.41 795.95,516.85 799.23,523.82 802.50,539.81 805.78,555.88 809.05,567.74 812.32,584.41 815.60,587.63 818.87,598.74 822.15,598.08 825.42,585.92 828.69,560.95 831.97,546.32 835.24,538.05 838.52,526.40 841.79,517.01 845.07,514.45 848.34,512.87 851.61,513.38 854.89,526.50 858.16,535.24 861.44,540.65 864.71,541.35 867.98,559.51 871.26,564.02 874.53,573.86 877.81,587.96 881.08,575.85 884.36,577.66 887.63,578.86 890.90,583.83 894.18,580.29 897.45,557.72 900.73,550.76 904.00,566.99" />
<polyline fill="none" stroke="#d62728" stroke-width="2" points="82.19,558.61 85.47,569.51 88.74,580.73 92.02,589.35 95.29,597.36 98.56,607.59 101.84,615.73 105.11,619.44 108.39,621.48 111.66,621.76 114.93,622.35 118.21,622.45 121.48,627.88 124.76,625.07 128.03,623.35 131.31,623.58 134.58,626.14 137.85,634.48 141.13,638.25 144.40,641.67 147.68,640.49 150.95,636.60 154.22,634.07 157.50,633.73 160.77,633.38 164.05,633.63 167.32,633.19 170.59,632.20 173.87,630.99 177.14,625.97 180.42,627.66 183.69,624.86 186.97,616.36 190.24,609.16 193.51,607.99 196.79,609.91 200.06,605.75 203.34,604.27 206.61,606.18 209.88,609.96 213.16,614.37 216.43,617.84 219.71,620.71 222.98,615.97 226.25,613.10 229.53,609.26 232.80,606.31 236.08,605.30 239.35,607.38 242.63,610.77 245.90,615.10 249.17,621.56 252.45,626.08 255.72,624.83 259.00,614.30 262.27,603.38 265.54,591.10 268.82,578.33 272.09,568.68 275.37,559.70 278.64,553.74 281.92,553.55 285.19,558.19 288.46,566.49 291.74,574.64 295.01,579.61 298.29,580.25 301.56,579.56 304.83,580.40 308.11,582.43 311.38,583.01 314.66,579.12 317.93,572.62 321.20,571.80 324.48,573.27 327.75,576.25 331.03,578.67 334.30,577.98 337.58,580.65 340.85,583.56 344.12,582.98 347.40,578.94 350.67,574.99 353.95,572.57 357.22,575.69 360.49,583.73 363.77,592.36 367.04,600.12 370.32,607.93 373.59,614.94 376.86,620.64 380.14,625.30 383.41,627.75 386.69,628.98 389.96,627.63 393.24,623.07 396.51,610.33 399.78,602.69 403.06,596.41 406.33,588.89 409.61,582.43 412.88,574.12 416.15,566.09 419.43,559.62 422.70,553.59 425.98,547.78 429.25,543.01 432.53,538.68 435.80,535.75 439.07,536.70 442.35,540.15 445.62,546.67 448.90,554.02 452.17,556.57 455.44,557.16 458.72,554.97 461.99,551.48 465.27,551.72 468.54,555.11 471.81,558.22 475.09,562.16 478.36,575.05 481.64,589.85 484.91,602.23 488.19,611.41 491.46,614.85 494.73,604.70 498.01,596.39 501.28,586.72 504.56,577.25 507.83,569.46 511.10,564.50 514.38,560.40 517.65,552.77 520.93,544.71 524.20,536.83 527.47,531.75 530.75,529.13 534.02,530.02 537.30,528.93 540.57,524.97 543.85,522.14 547.12,525.77 550.39,537.33 553.67,550.79 556.94,563.54 560.22,573.90 563.49,582.23 566.76,588.47 570.04,592.77 573.31,594.68 576.59,591.78 579.86,584.47 583.14,574.91 586.41,568.70 589.68,564.90 592.96,563.89 596.23,569.88 599.51,579.35 602.78,586.25 606.05,591.37 609.33,594.85 612.60,596.38 615.88,593.93 619.15,591.48 622.42,590.96 625.70,588.96 628.97,586.09 632.25,581.08 635.52,581.61 638.80,588.27 642.07,594.41 645.34,600.04 648.62,598.63 651.89,596.41 655.17,595.03 658.44,596.10 661.71,599.42 664.99,600.19 668.26,602.68 671.54,595.92 674.81,585.02 678.08,573.96 681.36,563.12 684.63,556.05 687.91,551.96 691.18,546.53 694.46,538.92 697.73,532.28 701.00,527.67 704.28,524.94 707.55,521.80 710.83,522.04 714.10,523.29 717.37,526.32 720.65,529.84 723.92,534.82 727.20,538.89 730.47,538.41 733.75,536.27 737.02,531.27 740.29,526.47 743.57,524.88 746.84,523.11 750.12,519.46 753.39,518.50 756.66,515.84 759.94,515.50 763.21,516.71 766.49,518.67 769.76,523.01 773.03,524.51 776.31,525.93 779.58,523.58 782.86,520.97 786.13,517.26 789.41,516.01 792.68,515.48 795.95,515.94 799.23,518.56 802.50,525.65 805.78,535.72 809.05,546.39 812.32,559.07 815.60,568.59 818.87,578.64 822.15,585.12 825.42,585.38 828.69,577.24 831.97,566.93 835.24,557.31 838.52,547.00 841.79,537.01 845.07,529.49 848.34,523.95 851.61,520.42 854.89,522.45 858.16,526.71 861.44,531.36 864.71,534.69 867.98,542.96 871.26,549.98 874.53,557.94 877.81,567.95 881.08,570.58 884.36,572.94 887.63,574.92 890.90,577.89 894.18,578.69 897.45,571.70 900.73,564.72 904.00,565.47" />
<text x="824.00" y="502.00" font-size="13" font-family="Arial" fill="#2ca02c" text-anchor="start">K</text>
<text x="860.00" y="502.00" font-size="13" font-family="Arial" fill="#d62728" text-anchor="start">D</text>
</svg>