<svg xmlns="http://www.w3.org/2000/svg" width="960" height="680" viewBox="0 0 960 680"><rect width="100%" height="100%" fill="white" />
<text x="56.00" y="32.00" font-size="20" font-family="Arial" fill="#1f2933" text-anchor="start">聯電(2303) Technical Indicators</text>
<line x1="56" y1="220" x2="904" y2="220" stroke="#cbd2d9" />
<line x1="56" y1="58" x2="56" y2="220" stroke="#cbd2d9" />
<text x="16.00" y="50.00" font-size="12" font-family="Arial" fill="#52606d" text-anchor="start">RSI14</text>
<line x1="56" y1="220.00" x2="904" y2="220.00" stroke="#edf2f7" />
<line x1="52" y1="220.00" x2="56" y2="220.00" stroke="#9fb3c8" />
<text x="48.00" y="224.00" font-size="11" font-family="Arial" fill="#52606d" text-anchor="end">-5.00</text>
<line x1="56" y1="166.00" x2="904" y2="166.00" stroke="#edf2f7" />
<line x1="52" y1="166.00" x2="56" y2="166.00" stroke="#9fb3c8" />
<text x="48.00" y="170.00" font-size="11" font-family="Arial" fill="#52606d" text-anchor="end">31.7</text>
<line x1="56" y1="112.00" x2="904" y2="112.00" stroke="#edf2f7" />
<line x1="52" y1="112.00" x2="56" y2="112.00" stroke="#9fb3c8" />
<text x="48.00" y="116.00" font-size="11" font-family="Arial" fill="#52606d" text-anchor="end">68.3</text>
<line x1="56" y1="58.00" x2="904" y2="58.00" stroke="#edf2f7" />
<line x1="52" y1="58.00" x2="56" y2="58.00" stroke="#9fb3c8" />
<text x="48.00" y="62.00" font-size="11" font-family="Arial" fill="#52606d" text-anchor="end">105</text>
<line x1="56" y1="168.45" x2="904" y2="168.45" stroke="#f0b429" stroke-dasharray="5 5" />
<text x="912.00" y="172.45" font-size="10" font-family="Arial" fill="#8d2b0b" text-anchor="start">30.0</text>
<line x1="56" y1="109.55" x2="904" y2="109.55" stroke="#f0b429" stroke-dasharray="5 5" />
<text x="912.00" y="113.55" font-size="10" font-family="Arial" fill="#8d2b0b" text-anchor="start">70.0</text>
<polyline fill="none" stroke="#1f77b4" stroke-width="2" points="101.84,135.80 105.11,134.19 108.39,136.07 111.66,135.17 114.93,144.54 118.21,129.50 121.48,136.43 124.76,136.43 128.03,136.43 131.31,148.17 134.58,151.78 137.85,163.60 141.13,166.94 144.40,162.85 147.68,169.42 150.95,171.89 154.22,169.75 157.50,170.66 160.77,164.96 164.05,162.69 167.32,161.51 170.59,152.41 173.87,162.60 177.14,150.06 180.42,137.04 183.69,143.75 186.97,152.89 190.24,153.42 193.51,136.48 196.79,145.88 200.06,149.35 203.34,150.34 206.61,146.89 209.88,144.81 213.16,144.81 216.43,130.62 219.71,140.68 222.98,136.01 226.25,137.88 229.53,140.42 232.80,144.75 236.08,141.25 239.35,141.92 242.63,142.63 245.90,136.48 249.17,131.52 252.45,115.81 255.72,119.11 259.00,111.86 262.27,105.37 265.54,113.96 268.82,110.10 272.09,105.71 275.37,123.26 278.64,128.41 281.92,127.98 285.19,124.08 288.46,118.89 291.74,113.92 295.01,116.66 298.29,124.57 301.56,128.90 304.83,125.28 308.11,118.35 311.38,115.77 314.66,124.37 317.93,123.94 321.20,125.32 324.48,123.38 327.75,119.61 331.03,125.70 334.30,123.15 337.58,117.90 340.85,108.66 344.12,111.84 347.40,116.59 350.67,133.90 353.95,142.31 357.22,140.16 360.49,139.60 363.77,142.42 367.04,148.31 370.32,151.33 373.59,154.28 376.86,149.21 380.14,147.06 383.41,142.78 386.69,138.01 389.96,121.49 393.24,138.48 396.51,135.10 399.78,130.47 403.06,132.20 406.33,125.82 409.61,120.18 412.88,117.92 416.15,114.30 419.43,108.53 422.70,106.23 425.98,104.54 429.25,108.41 432.53,118.56 435.80,117.39 439.07,116.98 442.35,114.10 445.62,105.79 448.90,107.40 452.17,104.83 455.44,103.58 458.72,118.14 461.99,123.15 465.27,120.45 468.54,124.86 471.81,127.06 475.09,130.75 478.36,138.34 481.64,140.94 484.91,132.13 488.19,100.90 491.46,114.07 494.73,105.14 498.01,104.47 501.28,108.26 504.56,116.44 507.83,113.30 511.10,100.60 514.38,92.47 517.65,85.75 520.93,85.15 524.20,90.31 527.47,106.47 530.75,98.82 534.02,90.95 537.30,92.28 540.57,119.57 543.85,134.77 547.12,138.47 550.39,138.25 553.67,135.97 556.94,136.74 560.22,135.73 563.49,134.41 566.76,134.41 570.04,133.23 573.31,129.97 576.59,120.60 579.86,127.95 583.14,128.31 586.41,131.67 589.68,138.39 592.96,146.48 596.23,139.46 599.51,139.78 602.78,146.97 606.05,144.42 609.33,138.10 612.60,143.40 615.88,146.86 619.15,143.06 622.42,142.28 625.70,140.67 628.97,149.26 632.25,152.17 635.52,155.62 638.80,156.25 642.07,144.08 645.34,147.34 648.62,148.79 651.89,151.71 655.17,153.53 658.44,148.70 661.71,161.44 664.99,141.29 668.26,134.63 671.54,135.72 674.81,129.31 678.08,136.42 681.36,137.86 684.63,129.95 687.91,114.90 691.18,106.98 694.46,101.78 697.73,104.39 701.00,101.27 704.28,118.24 707.55,116.72 710.83,122.30 714.10,117.91 717.37,119.84 720.65,114.78 723.92,108.75 727.20,106.14 730.47,97.14 733.75,93.09 737.02,107.76 740.29,104.12 743.57,96.67 746.84,110.27 750.12,102.83 753.39,101.48 756.66,100.80 759.94,99.41 763.21,110.22 766.49,103.88 769.76,107.87 773.03,100.29 776.31,97.23 779.58,91.42 782.86,94.10 786.13,93.01 789.41,92.34 792.68,101.03 795.95,118.87 799.23,126.31 802.50,120.72 805.78,133.36 809.05,127.65 812.32,137.11 815.60,131.39 818.87,124.73 822.15,119.23 825.42,119.81 828.69,121.03 831.97,117.00 835.24,108.19 838.52,103.37 841.79,100.02 845.07,99.81 848.34,117.39 851.61,117.39 854.89,117.07 858.16,114.14 861.44,118.60 864.71,115.13 867.98,120.92 871.26,133.32 874.53,124.83 877.81,131.99 881.08,131.99 884.36,134.62 887.63,137.28 890.90,124.33 894.18,130.68 897.45,144.72 900.73,154.16 904.00,150.09" />
<text x="808.00" y="76.00" font-size="13" font-family="Arial" fill="#1f77b4" text-anchor="start">RSI14</text>
<line x1="56" y1="432" x2="904" y2="432" stroke="#cbd2d9" />
<line x1="56" y1="272" x2="56" y2="432" stroke="#cbd2d9" />
<text x="16.00" y="264.00" font-size="12" font-family="Arial" fill="#52606d" text-anchor="start">MACD</text>
<line x1="56" y1="432.00" x2="904" y2="432.00" stroke="#edf2f7" />
<line x1="52" y1="432.00" x2="56" y2="432.00" stroke="#9fb3c8" />
<text x="48.00" y="436.00" font-size="11" font-family="Arial" fill="#52606d" text-anchor="end">-6.05</text>
<line x1="56" y1="378.67" x2="904" y2="378.67" stroke="#edf2f7" />
<line x1="52" y1="378.67" x2="56" y2="378.67" stroke="#9fb3c8" />
<text x="48.00" y="382.67" font-size="11" font-family="Arial" fill="#52606d" text-anchor="end">2.00</text>
<line x1="56" y1="325.33" x2="904" y2="325.33" stroke="#edf2f7" />
<line x1="52" y1="325.33" x2="56" y2="325.33" stroke="#9fb3c8" />
<text x="48.00" y="329.33" font-size="11" font-family="Arial" fill="#52606d" text-anchor="end">10.1</text>
<line x1="56" y1="272.00" x2="904" y2="272.00" stroke="#edf2f7" />
<line x1="52" y1="272.00" x2="56" y2="272.00" stroke="#9fb3c8" />
<text x="48.00" y="276.00" font-size="11" font-family="Arial" fill="#52606d" text-anchor="end">18.1</text>
<line x1="56" y1="391.94" x2="904" y2="391.94" stroke="#9fb3c8" stroke-dasharray="4 4" />
<rect x="136.71" y="391.94" width="2.28" height="0.00" fill="#2f9e44" opacity="0.55" />
<rect x="139.99" y="391.94" width="2.28" height="0.65" fill="#d64545" opacity="0.55" />
<rect x="143.26" y="391.94" width="2.28" height="0.93" fill="#d64545" opacity="0.55" />
<rect x="146.53" y="391.94" width="2.28" height="1.33" fill="#d64545" opacity="0.55" />
<rect x="149.81" y="391.94" width="2.28" height="1.61" fill="#d64545" opacity="0.55" />
<rect x="153.08" y="391.94" width="2.28" height="1.63" fill="#d64545" opacity="0.55" />
<rect x="156.36" y="391.94" width="2.28" height="1.58" fill="#d64545" opacity="0.55" />
<rect x="159.63" y="391.94" width="2.28" height="1.32" fill="#d64545" opacity="0.55" />
<rect x="162.90" y="391.94" width="2.28" height="1.01" fill="#d64545" opacity="0.55" />
<rect x="166.18" y="391.94" width="2.28" height="0.71" fill="#d64545" opacity="0.55" />
<rect x="169.45" y="391.94" width="2.28" height="0.28" fill="#d64545" opacity="0.55" />
<rect x="172.73" y="391.94" width="2.28" height="0.28" fill="#d64545" opacity="0.55" />
<rect x="176.00" y="391.90" width="2.28" height="0.04" fill="#2f9e44" opacity="0.55" />
<rect x="179.28" y="391.31" width="2.28" height="0.63" fill="#2f9e44" opacity="0.55" />
<rect x="182.55" y="391.13" width="2.28" height="0.80" fill="#2f9e44" opacity="0.55" />
<rect x="185.82" y="391.36" width="2.28" height="0.57" fill="#2f9e44" opacity="0.55" />
<rect x="189.10" y="391.52" width="2.28" height="0.42" fill="#2f9e44" opacity="0.55" />
<rect x="192.37" y="391.09" width="2.28" height="0.85" fill="#2f9e44" opacity="0.55" />
<rect x="195.65" y="391.18" width="2.28" height="0.76" fill="#2f9e44" opacity="0.55" />
<rect x="198.92" y="391.39" width="2.28" height="0.54" fill="#2f9e44" opacity="0.55" />
<rect x="202.19" y="391.57" width="2.28" height="0.37" fill="#2f9e44" opacity="0.55" />
<rect x="205.47" y="391.56" width="2.28" height="0.38" fill="#2f9e44" opacity="0.55" />
<rect x="208.74" y="391.49" width="2.28" height="0.45" fill="#2f9e44" opacity="0.55" />
<rect x="212.02" y="391.43" width="2.28" height="0.50" fill="#2f9e44" opacity="0.55" />
<rect x="215.29" y="390.95" width="2.28" height="0.99" fill="#2f9e44" opacity="0.55" />
<rect x="218.57" y="391.00" width="2.28" height="0.94" fill="#2f9e44" opacity="0.55" />
<rect x="221.84" y="390.89" width="2.28" height="1.04" fill="#2f9e44" opacity="0.55" />
<rect x="225.11" y="390.93" width="2.28" height="1.01" fill="#2f9e44" opacity="0.55" />
<rect x="228.39" y="391.06" width="2.28" height="0.88" fill="#2f9e44" opacity="0.55" />
<rect x="231.66" y="391.33" width="2.28" height="0.61" fill="#2f9e44" opacity="0.55" />
<rect x="234.94" y="391.41" width="2.28" height="0.53" fill="#2f9e44" opacity="0.55" />
<rect x="238.21" y="391.49" width="2.28" height="0.45" fill="#2f9e44" opacity="0.55" />
<rect x="241.48" y="391.58" width="2.28" height="0.36" fill="#2f9e44" opacity="0.55" />
<rect x="244.76" y="391.47" width="2.28" height="0.47" fill="#2f9e44" opacity="0.55" />
<rect x="248.03" y="391.28" width="2.28" height="0.66" fill="#2f9e44" opacity="0.55" />
<rect x="251.31" y="390.58" width="2.28" height="1.36" fill="#2f9e44" opacity="0.55" />
<rect x="254.58" y="390.29" width="2.28" height="1.65" fill="#2f9e44" opacity="0.55" />
<rect x="257.85" y="389.84" width="2.28" height="2.10" fill="#2f9e44" opacity="0.55" />
<rect x="261.13" y="389.28" width="2.28" height="2.66" fill="#2f9e44" opacity="0.55" />
<rect x="264.40" y="389.30" width="2.28" height="2.64" fill="#2f9e44" opacity="0.55" />
<rect x="267.68" y="389.24" width="2.28" height="2.70" fill="#2f9e44" opacity="0.55" />
<rect x="270.95" y="389.08" width="2.28" height="2.86" fill="#2f9e44" opacity="0.55" />
<rect x="274.23" y="389.69" width="2.28" height="2.25" fill="#2f9e44" opacity="0.55" />
<rect x="277.50" y="390.41" width="2.28" height="1.53" fill="#2f9e44" opacity="0.55" />
<rect x="280.77" y="390.96" width="2.28" height="0.98" fill="#2f9e44" opacity="0.55" />
<rect x="284.05" y="391.21" width="2.28" height="0.73" fill="#2f9e44" opacity="0.55" />
<rect x="287.32" y="391.17" width="2.28" height="0.77" fill="#2f9e44" opacity="0.55" />
<rect x="290.60" y="390.94" width="2.28" height="1.00" fill="#2f9e44" opacity="0.55" />
<rect x="293.87" y="390.98" width="2.28" height="0.96" fill="#2f9e44" opacity="0.55" />
<rect x="297.14" y="391.35" width="2.28" height="0.59" fill="#2f9e44" opacity="0.55" />
<rect x="300.42" y="391.80" width="2.28" height="0.14" fill="#2f9e44" opacity="0.55" />
<rect x="303.69" y="391.94" width="2.28" height="0.04" fill="#d64545" opacity="0.55" />
<rect x="306.97" y="391.78" width="2.28" height="0.16" fill="#2f9e44" opacity="0.55" />
<rect x="310.24" y="391.57" width="2.28" height="0.37" fill="#2f9e44" opacity="0.55" />
<rect x="313.51" y="391.77" width="2.28" height="0.17" fill="#2f9e44" opacity="0.55" />
<rect x="316.79" y="391.94" width="2.28" height="0.00" fill="#d64545" opacity="0.55" />
<rect x="320.06" y="391.94" width="2.28" height="0.20" fill="#d64545" opacity="0.55" />
<rect x="323.34" y="391.94" width="2.28" height="0.28" fill="#d64545" opacity="0.55" />
<rect x="326.61" y="391.94" width="2.28" height="0.19" fill="#d64545" opacity="0.55" />
<rect x="329.89" y="391.94" width="2.28" height="0.35" fill="#d64545" opacity="0.55" />
<rect x="333.16" y="391.94" width="2.28" height="0.37" fill="#d64545" opacity="0.55" />
<rect x="336.43" y="391.94" width="2.28" height="0.18" fill="#d64545" opacity="0.55" />
<rect x="339.71" y="391.54" width="2.28" height="0.40" fill="#2f9e44" opacity="0.55" />
<rect x="342.98" y="391.33" width="2.28" height="0.61" fill="#2f9e44" opacity="0.55" />
<rect x="346.26" y="391.40" width="2.28" height="0.54" fill="#2f9e44" opacity="0.55" />
<rect x="349.53" y="391.94" width="2.28" height="0.13" fill="#d64545" opacity="0.55" />
<rect x="352.80" y="391.94" width="2.28" height="0.92" fill="#d64545" opacity="0.55" />
<rect x="356.08" y="391.94" width="2.28" height="1.33" fill="#d64545" opacity="0.55" />
<rect x="359.35" y="391.94" width="2.28" height="1.54" fill="#d64545" opacity="0.55" />
<rect x="362.63" y="391.94" width="2.28" height="1.74" fill="#d64545" opacity="0.55" />
<rect x="365.90" y="391.94" width="2.28" height="2.04" fill="#d64545" opacity="0.55" />
<rect x="369.18" y="391.94" width="2.28" height="2.27" fill="#d64545" opacity="0.55" />
<rect x="372.45" y="391.94" width="2.28" height="2.46" fill="#d64545" opacity="0.55" />
<rect x="375.72" y="391.94" width="2.28" height="2.32" fill="#d64545" opacity="0.55" />
<rect x="379.00" y="391.94" width="2.28" height="2.06" fill="#d64545" opacity="0.55" />
<rect x="382.27" y="391.94" width="2.28" height="1.68" fill="#d64545" opacity="0.55" />
<rect x="385.55" y="391.94" width="2.28" height="1.22" fill="#d64545" opacity="0.55" />
<rect x="388.82" y="391.94" width="2.28" height="0.22" fill="#d64545" opacity="0.55" />
<rect x="392.09" y="391.94" width="2.28" height="0.19" fill="#d64545" opacity="0.55" />
<rect x="395.37" y="391.94" width="2.28" height="0.03" fill="#d64545" opacity="0.55" />
<rect x="398.64" y="391.65" width="2.28" height="0.29" fill="#2f9e44" opacity="0.55" />
<rect x="401.92" y="391.54" width="2.28" height="0.40" fill="#2f9e44" opacity="0.55" />
<rect x="405.19" y="391.21" width="2.28" height="0.73" fill="#2f9e44" opacity="0.55" />
<rect x="408.46" y="390.75" width="2.28" height="1.19" fill="#2f9e44" opacity="0.55" />
<rect x="411.74" y="390.41" width="2.28" height="1.53" fill="#2f9e44" opacity="0.55" />
<rect x="415.01" y="390.09" width="2.28" height="1.85" fill="#2f9e44" opacity="0.55" />
<rect x="418.29" y="389.62" width="2.28" height="2.32" fill="#2f9e44" opacity="0.55" />
<rect x="421.56" y="389.31" width="2.28" height="2.63" fill="#2f9e44" opacity="0.55" />
<rect x="424.84" y="389.16" width="2.28" height="2.78" fill="#2f9e44" opacity="0.55" />
<rect x="428.11" y="389.34" width="2.28" height="2.59" fill="#2f9e44" opacity="0.55" />
<rect x="431.38" y="389.93" width="2.28" height="2.01" fill="#2f9e44" opacity="0.55" />
<rect x="434.66" y="390.39" width="2.28" height="1.55" fill="#2f9e44" opacity="0.55" />
<rect x="437.93" y="390.78" width="2.28" height="1.16" fill="#2f9e44" opacity="0.55" />
<rect x="441.21" y="391.00" width="2.28" height="0.94" fill="#2f9e44" opacity="0.55" />
<rect x="444.48" y="390.74" width="2.28" height="1.20" fill="#2f9e44" opacity="0.55" />
<rect x="447.75" y="390.74" width="2.28" height="1.20" fill="#2f9e44" opacity="0.55" />
<rect x="451.03" y="390.69" width="2.28" height="1.25" fill="#2f9e44" opacity="0.55" />
<rect x="454.30" y="390.71" width="2.28" height="1.23" fill="#2f9e44" opacity="0.55" />
<rect x="457.58" y="391.22" width="2.28" height="0.72" fill="#2f9e44" opacity="0.55" />
<rect x="460.85" y="391.79" width="2.28" height="0.15" fill="#2f9e44" opacity="0.55" />
<rect x="464.12" y="391.94" width="2.28" height="0.16" fill="#d64545" opacity="0.55" />
<rect x="467.40" y="391.94" width="2.28" height="0.54" fill="#d64545" opacity="0.55" />
<rect x="470.67" y="391.94" width="2.28" height="0.88" fill="#d64545" opacity="0.55" />
<rect x="473.95" y="391.94" width="2.28" height="1.21" fill="#d64545" opacity="0.55" />
<rect x="477.22" y="391.94" width="2.28" height="1.64" fill="#d64545" opacity="0.55" />
<rect x="480.50" y="391.94" width="2.28" height="1.97" fill="#d64545" opacity="0.55" />
<rect x="483.77" y="391.94" width="2.28" height="1.83" fill="#d64545" opacity="0.55" />
<rect x="487.04" y="391.60" width="2.28" height="0.34" fill="#2f9e44" opacity="0.55" />
<rect x="490.32" y="390.85" width="2.28" height="1.09" fill="#2f9e44" opacity="0.55" />
<rect x="493.59" y="389.53" width="2.28" height="2.41" fill="#2f9e44" opacity="0.55" />
<rect x="496.87" y="388.80" width="2.28" height="3.14" fill="#2f9e44" opacity="0.55" />
<rect x="500.14" y="388.74" width="2.28" height="3.20" fill="#2f9e44" opacity="0.55" />
<rect x="503.41" y="389.32" width="2.28" height="2.62" fill="#2f9e44" opacity="0.55" />
<rect x="506.69" y="389.60" width="2.28" height="2.34" fill="#2f9e44" opacity="0.55" />
<rect x="509.96" y="388.41" width="2.28" height="3.53" fill="#2f9e44" opacity="0.55" />
<rect x="513.24" y="386.27" width="2.28" height="5.67" fill="#2f9e44" opacity="0.55" />
<rect x="516.51" y="383.13" width="2.28" height="8.81" fill="#2f9e44" opacity="0.55" />
<rect x="519.79" y="381.50" width="2.28" height="10.44" fill="#2f9e44" opacity="0.55" />
<rect x="523.06" y="381.50" width="2.28" height="10.44" fill="#2f9e44" opacity="0.55" />
<rect x="526.33" y="383.39" width="2.28" height="8.55" fill="#2f9e44" opacity="0.55" />
<rect x="529.61" y="383.34" width="2.28" height="8.60" fill="#2f9e44" opacity="0.55" />
<rect x="532.88" y="381.10" width="2.28" height="10.84" fill="#2f9e44" opacity="0.55" />
<rect x="536.16" y="380.63" width="2.28" height="11.31" fill="#2f9e44" opacity="0.55" />
<rect x="539.43" y="384.30" width="2.28" height="7.64" fill="#2f9e44" opacity="0.55" />
<rect x="542.70" y="389.78" width="2.28" height="2.16" fill="#2f9e44" opacity="0.55" />
<rect x="545.98" y="391.94" width="2.28" height="2.37" fill="#d64545" opacity="0.55" />
<rect x="549.25" y="391.94" width="2.28" height="5.33" fill="#d64545" opacity="0.55" />
<rect x="552.53" y="391.94" width="2.28" height="6.75" fill="#d64545" opacity="0.55" />
<rect x="555.80" y="391.94" width="2.28" height="7.66" fill="#d64545" opacity="0.55" />
<rect x="559.07" y="391.94" width="2.28" height="7.90" fill="#d64545" opacity="0.55" />
<rect x="562.35" y="391.94" width="2.28" height="7.64" fill="#d64545" opacity="0.55" />
<rect x="565.62" y="391.94" width="2.28" height="7.28" fill="#d64545" opacity="0.55" />
<rect x="568.90" y="391.94" width="2.28" height="6.68" fill="#d64545" opacity="0.55" />
<rect x="572.17" y="391.94" width="2.28" height="5.67" fill="#d64545" opacity="0.55" />
<rect x="575.45" y="391.94" width="2.28" height="3.39" fill="#d64545" opacity="0.55" />
<rect x="578.72" y="391.94" width="2.28" height="2.76" fill="#d64545" opacity="0.55" />
<rect x="581.99" y="391.94" width="2.28" height="2.40" fill="#d64545" opacity="0.55" />
<rect x="585.27" y="391.94" width="2.28" height="2.56" fill="#d64545" opacity="0.55" />
<rect x="588.54" y="391.94" width="2.28" height="3.44" fill="#d64545" opacity="0.55" />
<rect x="591.82" y="391.94" width="2.28" height="5.01" fill="#d64545" opacity="0.55" />
<rect x="595.09" y="391.94" width="2.28" height="4.97" fill="#d64545" opacity="0.55" />
<rect x="598.36" y="391.94" width="2.28" height="4.82" fill="#d64545" opacity="0.55" />
<rect x="601.64" y="391.94" width="2.28" height="5.52" fill="#d64545" opacity="0.55" />
<rect x="604.91" y="391.94" width="2.28" height="5.45" fill="#d64545" opacity="0.55" />
<rect x="608.19" y="391.94" width="2.28" height="4.43" fill="#d64545" opacity="0.55" />
<rect x="611.46" y="391.94" width="2.28" height="4.28" fill="#d64545" opacity="0.55" />
<rect x="614.73" y="391.94" width="2.28" height="4.46" fill="#d64545" opacity="0.55" />
<rect x="618.01" y="391.94" width="2.28" height="3.95" fill="#d64545" opacity="0.55" />
<rect x="621.28" y="391.94" width="2.28" height="3.36" fill="#d64545" opacity="0.55" />
<rect x="624.56" y="391.94" width="2.28" height="2.67" fill="#d64545" opacity="0.55" />
<rect x="627.83" y="391.94" width="2.28" height="3.10" fill="#d64545" opacity="0.55" />
<rect x="631.11" y="391.94" width="2.28" height="3.58" fill="#d64545" opacity="0.55" />
<rect x="634.38" y="391.94" width="2.28" height="4.14" fill="#d64545" opacity="0.55" />
<rect x="637.65" y="391.94" width="2.28" height="4.35" fill="#d64545" opacity="0.55" />
<rect x="640.93" y="391.94" width="2.28" height="3.14" fill="#d64545" opacity="0.55" />
<rect x="644.20" y="391.94" width="2.28" height="2.56" fill="#d64545" opacity="0.55" />
<rect x="647.48" y="391.94" width="2.28" height="2.19" fill="#d64545" opacity="0.55" />
<rect x="650.75" y="391.94" width="2.28" height="2.13" fill="#d64545" opacity="0.55" />
<rect x="654.02" y="391.94" width="2.28" height="2.14" fill="#d64545" opacity="0.55" />
<rect x="657.30" y="391.94" width="2.28" height="1.60" fill="#d64545" opacity="0.55" />
<rect x="660.57" y="391.94" width="2.28" height="2.71" fill="#d64545" opacity="0.55" />
<rect x="663.85" y="391.94" width="2.28" height="1.24" fill="#d64545" opacity="0.55" />
<rect x="667.12" y="391.29" width="2.28" height="0.64" fill="#2f9e44" opacity="0.55" />
<rect x="670.40" y="390.21" width="2.28" height="1.73" fill="#2f9e44" opacity="0.55" />
<rect x="673.67" y="388.72" width="2.28" height="3.21" fill="#2f9e44" opacity="0.55" />
<rect x="676.94" y="388.70" width="2.28" height="3.24" fill="#2f9e44" opacity="0.55" />
<rect x="680.22" y="388.97" width="2.28" height="2.97" fill="#2f9e44" opacity="0.55" />
<rect x="683.49" y="388.26" width="2.28" height="3.68" fill="#2f9e44" opacity="0.55" />
<rect x="686.77" y="385.40" width="2.28" height="6.54" fill="#2f9e44" opacity="0.55" />
<rect x="690.04" y="381.98" width="2.28" height="9.96" fill="#2f9e44" opacity="0.55" />
<rect x="693.31" y="378.74" width="2.28" height="13.19" fill="#2f9e44" opacity="0.55" />
<rect x="696.59" y="377.73" width="2.28" height="14.20" fill="#2f9e44" opacity="0.55" />
<rect x="699.86" y="376.92" width="2.28" height="15.02" fill="#2f9e44" opacity="0.55" />
<rect x="703.14" y="379.37" width="2.28" height="12.57" fill="#2f9e44" opacity="0.55" />
<rect x="706.41" y="381.33" width="2.28" height="10.61" fill="#2f9e44" opacity="0.55" />
<rect x="709.68" y="384.01" width="2.28" height="7.92" fill="#2f9e44" opacity="0.55" />
<rect x="712.96" y="385.29" width="2.28" height="6.65" fill="#2f9e44" opacity="0.55" />
<rect x="716.23" y="386.88" width="2.28" height="5.06" fill="#2f9e44" opacity="0.55" />
<rect x="719.51" y="387.17" width="2.28" height="4.77" fill="#2f9e44" opacity="0.55" />
<rect x="722.78" y="386.20" width="2.28" height="5.74" fill="#2f9e44" opacity="0.55" />
<rect x="726.06" y="385.32" width="2.28" height="6.62" fill="#2f9e44" opacity="0.55" />
<rect x="729.33" y="381.91" width="2.28" height="10.03" fill="#2f9e44" opacity="0.55" />
<rect x="732.60" y="378.44" width="2.28" height="13.50" fill="#2f9e44" opacity="0.55" />
<rect x="735.88" y="379.43" width="2.28" height="12.51" fill="#2f9e44" opacity="0.55" />
<rect x="739.15" y="379.49" width="2.28" height="12.45" fill="#2f9e44" opacity="0.55" />
<rect x="742.43" y="376.58" width="2.28" height="15.36" fill="#2f9e44" opacity="0.55" />
<rect x="745.70" y="378.48" width="2.28" height="13.46" fill="#2f9e44" opacity="0.55" />
<rect x="748.97" y="376.80" width="2.28" height="15.14" fill="#2f9e44" opacity="0.55" />
<rect x="752.25" y="376.16" width="2.28" height="15.78" fill="#2f9e44" opacity="0.55" />
<rect x="755.52" y="376.66" width="2.28" height="15.28" fill="#2f9e44" opacity="0.55" />
<rect x="758.80" y="377.46" width="2.28" height="14.48" fill="#2f9e44" opacity="0.55" />
<rect x="762.07" y="381.36" width="2.28" height="10.58" fill="#2f9e44" opacity="0.55" />
<rect x="765.34" y="381.61" width="2.28" height="10.33" fill="#2f9e44" opacity="0.55" />
<rect x="768.62" y="383.74" width="2.28" height="8.20" fill="#2f9e44" opacity="0.55" />
<rect x="771.89" y="381.55" width="2.28" height="10.39" fill="#2f9e44" opacity="0.55" />
<rect x="775.17" y="379.08" width="2.28" height="12.86" fill="#2f9e44" opacity="0.55" />
<rect x="778.44" y="373.48" width="2.28" height="18.46" fill="#2f9e44" opacity="0.55" />
<rect x="781.72" y="372.27" width="2.28" height="19.66" fill="#2f9e44" opacity="0.55" />
<rect x="784.99" y="372.27" width="2.28" height="19.67" fill="#2f9e44" opacity="0.55" />
<rect x="788.26" y="373.48" width="2.28" height="18.46" fill="#2f9e44" opacity="0.55" />
<rect x="791.54" y="377.92" width="2.28" height="14.01" fill="#2f9e44" opacity="0.55" />
<rect x="794.81" y="386.90" width="2.28" height="5.04" fill="#2f9e44" opacity="0.55" />
<rect x="798.09" y="391.94" width="2.28" height="4.02" fill="#d64545" opacity="0.55" />
<rect x="801.36" y="391.94" width="2.28" height="7.67" fill="#d64545" opacity="0.55" />
<rect x="804.63" y="391.94" width="2.28" height="14.78" fill="#d64545" opacity="0.55" />
<rect x="807.91" y="391.94" width="2.28" height="16.60" fill="#d64545" opacity="0.55" />
<rect x="811.18" y="391.94" width="2.28" height="21.39" fill="#d64545" opacity="0.55" />
<rect x="814.46" y="391.94" width="2.28" height="21.32" fill="#d64545" opacity="0.55" />
<rect x="817.73" y="391.94" width="2.28" height="17.32" fill="#d64545" opacity="0.55" />
<rect x="821.01" y="391.94" width="2.28" height="11.24" fill="#d64545" opacity="0.55" />
<rect x="824.28" y="391.94" width="2.28" height="7.67" fill="#d64545" opacity="0.55" />
<rect x="827.55" y="391.94" width="2.28" height="6.06" fill="#d64545" opacity="0.55" />
<rect x="830.83" y="391.94" width="2.28" height="3.05" fill="#d64545" opacity="0.55" />
<rect x="834.10" y="387.50" width="2.28" height="4.43" fill="#2f9e44" opacity="0.55" />
<rect x="837.38" y="379.49" width="2.28" height="12.45" fill="#2f9e44" opacity="0.55" />
<rect x="840.65" y="372.43" width="2.28" height="19.51" fill="#2f9e44" opacity="0.55" />
<rect x="843.92" y="369.49" width="2.28" height="22.45" fill="#2f9e44" opacity="0.55" />
<rect x="847.20" y="375.58" width="2.28" height="16.36" fill="#2f9e44" opacity="0.55" />
<rect x="850.47" y="381.01" width="2.28" height="10.93" fill="#2f9e44" opacity="0.55" />
<rect x="853.75" y="385.57" width="2.28" height="6.37" fill="#2f9e44" opacity="0.55" />
<rect x="857.02" y="387.70" width="2.28" height="4.24" fill="#2f9e44" opacity="0.55" />
<rect x="860.29" y="391.52" width="2.28" height="0.42" fill="#2f9e44" opacity="0.55" />
<rect x="863.57" y="391.94" width="2.28" height="0.73" fill="#d64545" opacity="0.55" />
<rect x="866.84" y="391.94" width="2.28" height="4.10" fill="#d64545" opacity="0.55" />
<rect x="870.12" y="391.94" width="2.28" height="11.36" fill="#d64545" opacity="0.55" />
<rect x="873.39" y="391.94" width="2.28" height="11.62" fill="#d64545" opacity="0.55" />
<rect x="876.67" y="391.94" width="2.28" height="14.87" fill="#d64545" opacity="0.55" />
<rect x="879.94" y="391.94" width="2.28" height="16.85" fill="#d64545" opacity="0.55" />
<rect x="883.21" y="391.94" width="2.28" height="18.94" fill="#d64545" opacity="0.55" />
<rect x="886.49" y="391.94" width="2.28" height="20.95" fill="#d64545" opacity="0.55" />
<rect x="889.76" y="391.94" width="2.28" height="15.36" fill="#d64545" opacity="0.55" />
<rect x="893.04" y="391.94" width="2.28" height="14.13" fill="#d64545" opacity="0.55" />
<rect x="896.31" y="391.94" width="2.28" height="19.91" fill="#d64545" opacity="0.55" />
<rect x="899.58" y="391.94" width="2.28" height="28.88" fill="#d64545" opacity="0.55" />
<rect x="902.86" y="391.94" width="2.28" height="31.49" fill="#d64545" opacity="0.55" />
<polyline fill="none" stroke="#1f77b4" stroke-width="2" points="137.85,393.60 141.13,394.41 144.40,394.92 147.68,395.65 150.95,396.33 154.22,396.77 157.50,397.10 160.77,397.18 164.05,397.13 167.32,397.00 170.59,396.63 173.87,396.71 177.14,396.38 180.42,395.63 183.69,395.25 186.97,395.34 190.24,395.40 193.51,394.75 196.79,394.65 200.06,394.73 203.34,394.81 206.61,394.71 209.88,394.52 213.16,394.34 216.43,393.61 219.71,393.42 222.98,393.06 226.25,392.84 229.53,392.76 232.80,392.87 236.08,392.81 239.35,392.78 242.63,392.78 245.90,392.56 249.17,392.20 252.45,391.16 255.72,390.45 259.00,389.48 262.27,388.25 265.54,387.62 268.82,386.88 272.09,386.00 275.37,386.05 278.64,386.40 281.92,386.70 285.19,386.77 288.46,386.54 291.74,386.06 295.01,385.85 298.29,386.07 301.56,386.49 304.83,386.68 308.11,386.44 311.38,386.13 314.66,386.30 317.93,386.47 321.20,386.71 324.48,386.86 327.75,386.83 331.03,387.07 334.30,387.18 337.58,387.04 340.85,386.36 344.12,385.99 347.40,385.93 350.67,386.62 353.95,387.65 357.22,388.39 360.49,388.99 363.77,389.62 367.04,390.43 370.32,391.23 373.59,392.03 376.86,392.47 380.14,392.73 383.41,392.77 386.69,392.61 389.96,391.67 393.24,391.69 396.51,391.53 399.78,391.15 403.06,390.93 406.33,390.41 409.61,389.66 412.88,388.94 416.15,388.15 419.43,387.11 422.70,386.14 425.98,385.29 429.25,384.83 432.53,384.91 435.80,384.98 439.07,385.09 442.35,385.07 445.62,384.51 448.90,384.21 452.17,383.85 455.44,383.56 458.72,383.89 461.99,384.43 465.27,384.78 468.54,385.29 471.81,385.84 475.09,386.48 478.36,387.32 481.64,388.14 484.91,388.46 488.19,386.20 491.46,385.18 494.73,383.26 498.01,381.75 501.28,380.89 504.56,380.81 507.83,380.51 511.10,378.43 514.38,374.88 517.65,369.53 520.93,365.29 524.20,362.69 527.47,362.44 530.75,360.24 534.02,355.29 537.30,351.99 540.57,353.75 543.85,358.69 547.12,363.82 550.39,368.10 553.67,371.21 556.94,374.04 560.22,376.26 563.49,377.91 566.76,379.36 570.04,380.44 573.31,380.84 576.59,379.41 579.86,379.47 583.14,379.72 586.41,380.51 589.68,382.25 592.96,385.08 596.23,386.28 599.51,387.34 602.78,389.41 606.05,390.71 609.33,390.80 612.60,391.71 615.88,393.00 619.15,393.48 622.42,393.74 625.70,393.71 628.97,394.91 632.25,396.29 635.52,397.89 638.80,399.18 642.07,398.76 645.34,398.82 648.62,398.99 651.89,399.47 655.17,400.01 658.44,399.88 661.71,401.66 664.99,400.50 668.26,398.45 671.54,396.93 674.81,394.65 678.08,393.81 681.36,393.34 684.63,391.71 687.91,387.22 691.18,381.31 694.46,374.77 697.73,370.21 701.00,365.64 704.28,364.96 707.55,364.26 710.83,364.96 714.10,364.58 717.37,364.90 720.65,364.00 723.92,361.59 727.20,359.06 730.47,353.14 733.75,346.30 737.02,344.16 740.29,341.10 743.57,334.35 746.84,332.89 750.12,327.43 753.39,322.85 756.66,319.52 759.94,316.71 763.21,317.96 766.49,315.62 769.76,315.70 773.03,310.92 776.31,305.23 779.58,295.02 782.86,288.90 786.13,283.98 789.41,280.57 792.68,281.51 795.95,289.22 799.23,299.29 802.50,304.86 805.78,315.67 809.05,321.63 812.32,331.77 815.60,337.03 818.87,337.36 822.15,334.09 825.42,332.44 828.69,332.35 831.97,330.10 835.24,321.50 838.52,310.38 841.79,298.44 845.07,289.89 848.34,291.88 851.61,294.59 854.89,297.56 858.16,298.62 861.44,302.34 864.71,303.67 867.98,308.06 871.26,318.17 874.53,321.32 877.81,328.30 881.08,334.49 884.36,341.32 887.63,348.56 890.90,346.81 894.18,349.12 897.45,359.87 900.73,376.06 904.00,386.54" />
<polyline fill="none" stroke="#ff7f0e" stroke-width="2" points="137.85,393.60 141.13,393.76 144.40,393.99 147.68,394.32 150.95,394.73 154.22,395.13 157.50,395.53 160.77,395.86 164.05,396.11 167.32,396.29 170.59,396.36 173.87,396.43 177.14,396.42 180.42,396.26 183.69,396.06 186.97,395.92 190.24,395.81 193.51,395.60 196.79,395.41 200.06,395.27 203.34,395.18 206.61,395.09 209.88,394.97 213.16,394.85 216.43,394.60 219.71,394.36 222.98,394.10 226.25,393.85 229.53,393.63 232.80,393.48 236.08,393.34 239.35,393.23 242.63,393.14 245.90,393.02 249.17,392.86 252.45,392.52 255.72,392.11 259.00,391.58 262.27,390.91 265.54,390.25 268.82,389.58 272.09,388.86 275.37,388.30 278.64,387.92 281.92,387.68 285.19,387.49 288.46,387.30 291.74,387.05 295.01,386.81 298.29,386.66 301.56,386.63 304.83,386.64 308.11,386.60 311.38,386.51 314.66,386.47 317.93,386.47 321.20,386.51 324.48,386.58 327.75,386.63 331.03,386.72 334.30,386.81 337.58,386.86 340.85,386.76 344.12,386.60 347.40,386.47 350.67,386.50 353.95,386.73 357.22,387.06 360.49,387.45 363.77,387.88 367.04,388.39 370.32,388.96 373.59,389.57 376.86,390.15 380.14,390.67 383.41,391.09 386.69,391.39 389.96,391.45 393.24,391.50 396.51,391.50 399.78,391.43 403.06,391.33 406.33,391.15 409.61,390.85 412.88,390.47 416.15,390.01 419.43,389.43 422.70,388.77 425.98,388.07 429.25,387.42 432.53,386.92 435.80,386.53 439.07,386.25 442.35,386.01 445.62,385.71 448.90,385.41 452.17,385.10 455.44,384.79 458.72,384.61 461.99,384.57 465.27,384.61 468.54,384.75 471.81,384.97 475.09,385.27 478.36,385.68 481.64,386.17 484.91,386.63 488.19,386.54 491.46,386.27 494.73,385.67 498.01,384.88 501.28,384.08 504.56,383.43 507.83,382.85 511.10,381.96 514.38,380.55 517.65,378.34 520.93,375.73 524.20,373.12 527.47,370.99 530.75,368.84 534.02,366.13 537.30,363.30 540.57,361.39 543.85,360.85 547.12,361.44 550.39,362.78 553.67,364.46 556.94,366.38 560.22,368.35 563.49,370.26 566.76,372.08 570.04,373.75 573.31,375.17 576.59,376.02 579.86,376.71 583.14,377.31 586.41,377.95 589.68,378.81 592.96,380.07 596.23,381.31 599.51,382.52 602.78,383.90 606.05,385.26 609.33,386.37 612.60,387.43 615.88,388.55 619.15,389.54 622.42,390.38 625.70,391.04 628.97,391.82 632.25,392.71 635.52,393.75 638.80,394.83 642.07,395.62 645.34,396.26 648.62,396.81 651.89,397.34 655.17,397.87 658.44,398.27 661.71,398.95 664.99,399.26 668.26,399.10 671.54,398.67 674.81,397.86 678.08,397.05 681.36,396.31 684.63,395.39 687.91,393.76 691.18,391.27 694.46,387.97 697.73,384.42 701.00,380.66 704.28,377.52 707.55,374.87 710.83,372.89 714.10,371.23 717.37,369.96 720.65,368.77 723.92,367.33 727.20,365.68 730.47,363.17 733.75,359.80 737.02,356.67 740.29,353.56 743.57,349.71 746.84,346.35 750.12,342.57 753.39,338.62 756.66,334.80 759.94,331.18 763.21,328.54 766.49,325.95 769.76,323.90 773.03,321.31 776.31,318.09 779.58,313.48 782.86,308.56 786.13,303.64 789.41,299.03 792.68,295.53 795.95,294.26 799.23,295.27 802.50,297.19 805.78,300.88 809.05,305.03 812.32,310.38 815.60,315.71 818.87,320.04 822.15,322.85 825.42,324.77 828.69,326.28 831.97,327.05 835.24,325.94 838.52,322.83 841.79,317.95 845.07,312.34 848.34,308.25 851.61,305.51 854.89,303.92 858.16,302.86 861.44,302.76 864.71,302.94 867.98,303.96 871.26,306.80 874.53,309.71 877.81,313.43 881.08,317.64 884.36,322.37 887.63,327.61 890.90,331.45 894.18,334.98 897.45,339.96 900.73,347.18 904.00,355.05" />
<text x="754.00" y="290.00" font-size="13" font-family="Arial" fill="#1f77b4" text-anchor="start">MACD</text>
<text x="818.00" y="290.00" font-size="13" font-family="Arial" fill="#ff7f0e" text-anchor="start">Signal</text>
<line x1="56" y1="624" x2="904" y2="624" stroke="#cbd2d9" />
<line x1="56" y1="484" x2="56" y2="624" stroke="#cbd2d9" />
<text x="16.00" y="476.00" font-size="12" font-family="Arial" fill="#52606d" text-anchor="start">KD</text>
<line x1="56" y1="624.00" x2="904" y2="624.00" stroke="#edf2f7" />
<line x1="52" y1="624.00" x2="56" y2="624.00" stroke="#9fb3c8" />
<text x="48.00" y="628.00" font-size="11" font-family="Arial" fill="#52606d" text-anchor="end">-5.00</text>
<line x1="56" y1="577.33" x2="904" y2="577.33" stroke="#edf2f7" />
<line x1="52" y1="577.33" x2="56" y2="577.33" stroke="#9fb3c8" />
<text x="48.00" y="581.33" font-size="11" font-family="Arial" fill="#52606d" text-anchor="end">31.7</text>
<line x1="56" y1="530.67" x2="904" y2="530.67" stroke="#edf2f7" />
<line x1="52" y1="530.67" x2="56" y2="530.67" stroke="#9fb3c8" />
<text x="48.00" y="534.67" font-size="11" font-family="Arial" fill="#52606d" text-anchor="end">68.3</text>
<line x1="56" y1="484.00" x2="904" y2="484.00" stroke="#edf2f7" />
<line x1="52" y1="484.00" x2="56" y2="484.00" stroke="#9fb3c8" />
<text x="48.00" y="488.00" font-size="11" font-family="Arial" fill="#52606d" text-anchor="end">105</text>
<line x1="56.00" y1="624" x2="56.00" y2="628" stroke="#9fb3c8" />
<text x="56.00" y="642.00" font-size="11" font-family="Arial" fill="#52606d" text-anchor="middle">06/26</text>
<line x1="226.25" y1="624" x2="226.25" y2="628" stroke="#9fb3c8" />
<text x="226.25" y="642.00" font-size="11" font-family="Arial" fill="#52606d" text-anchor="middle">09/09</text>
<line x1="396.51" y1="624" x2="396.51" y2="628" stroke="#9fb3c8" />
<text x="396.51" y="642.00" font-size="11" font-family="Arial" fill="#52606d" text-anchor="middle">11/26</text>
<line x1="563.49" y1="624" x2="563.49" y2="628" stroke="#9fb3c8" />
<text x="563.49" y="642.00" font-size="11" font-family="Arial" fill="#52606d" text-anchor="middle">02/09</text>
<line x1="733.75" y1="624" x2="733.75" y2="628" stroke="#9fb3c8" />
<text x="733.75" y="642.00" font-size="11" font-family="Arial" fill="#52606d" text-anchor="middle">05/07</text>
<line x1="904.00" y1="624" x2="904.00" y2="628" stroke="#9fb3c8" />
<text x="904.00" y="642.00" font-size="11" font-family="Arial" fill="#52606d" text-anchor="middle">07/21</text>
<line x1="56" y1="592.18" x2="904" y2="592.18" stroke="#f0b429" stroke-dasharray="5 5" />
<text x="912.00" y="596.18" font-size="10" font-family="Arial" fill="#8d2b0b" text-anchor="start">20.0</text>
<line x1="56" y1="515.82" x2="904" y2="515.82" stroke="#f0b429" stroke-dasharray="5 5" />
<text x="912.00" y="519.82" font-size="10" font-family="Arial" fill="#8d2b0b" text-anchor="start">80.0</text>
<polyline fill="none" stroke="#2ca02c" stroke-width="2" points="82.19,578.31 85.47,590.02 88.74,602.33 92.02,620.68 95.29,627.08 98.56,623.60 101.84,623.37 105.11,620.88 108.39,622.55 111.66,622.00 114.93,638.31 118.21,619.16 121.48,619.73 124.76,623.90 128.03,631.19 131.31,651.11 134.58,645.74 137.85,648.48 141.13,638.12 144.40,628.82 147.68,628.99 150.95,633.06 154.22,632.68 157.50,634.13 160.77,632.31 164.05,630.22 167.32,628.56 170.59,615.94 173.87,631.05 177.14,619.24 180.42,599.35 183.69,594.78 186.97,605.64 190.24,613.74 193.51,597.42 196.79,601.32 200.06,609.99 203.34,617.52 206.61,623.19 209.88,624.79 213.16,626.45 216.43,606.48 219.71,607.37 222.98,601.57 226.25,600.42 229.53,603.28 232.80,611.54 236.08,617.55 239.35,623.77 242.63,634.47 245.90,635.11 249.17,622.33 252.45,593.24 255.72,581.54 259.00,566.55 262.27,552.77 265.54,549.39 268.82,541.74 272.09,541.83 275.37,553.17 278.64,567.48 281.92,583.09 285.19,590.94 288.46,589.56 291.74,581.51 295.01,578.19 298.29,582.07 301.56,586.50 304.83,584.16 308.11,571.34 311.38,559.62 314.66,570.16 317.93,576.20 321.20,582.21 324.48,583.51 327.75,576.61 331.03,585.98 334.30,589.37 337.58,581.84 340.85,570.85 344.12,567.09 347.40,567.75 350.67,581.91 353.95,599.80 357.22,609.62 360.49,615.64 363.77,623.55 367.04,628.95 370.32,632.03 373.59,634.62 376.86,632.65 380.14,631.43 383.41,624.93 386.69,613.96 389.96,584.84 393.24,587.43 396.51,583.84 399.78,573.87 403.06,569.49 406.33,557.51 409.61,550.03 412.88,546.69 416.15,541.54 419.43,536.14 422.70,533.48 425.98,530.02 429.25,529.88 432.53,538.62 435.80,547.03 439.07,559.71 442.35,568.72 445.62,561.66 448.90,558.35 452.17,550.58 455.44,544.51 458.72,552.20 461.99,561.89 465.27,564.44 468.54,570.04 471.81,600.82 475.09,619.44 478.36,627.00 481.64,629.76 484.91,621.74 488.19,584.38 491.46,579.77 494.73,567.38 498.01,558.31 501.28,553.88 504.56,554.57 507.83,552.20 511.10,537.50 514.38,528.59 517.65,521.06 520.93,521.61 524.20,523.87 527.47,531.79 530.75,526.76 534.02,517.05 537.30,516.47 540.57,533.04 543.85,560.45 547.12,577.73 550.39,589.05 553.67,594.60 556.94,598.90 560.22,600.96 563.49,601.35 566.76,598.52 570.04,585.97 573.31,569.85 576.59,555.79 579.86,556.29 583.14,557.30 586.41,561.88 589.68,581.86 592.96,598.29 596.23,600.03 599.51,601.63 602.78,601.80 606.05,599.43 609.33,589.05 612.60,586.56 615.88,589.94 619.15,584.94 622.42,580.37 625.70,571.04 628.97,582.69 632.25,601.60 635.52,606.67 638.80,611.31 642.07,595.82 645.34,591.97 648.62,592.28 651.89,598.24 655.17,606.06 658.44,601.73 661.71,607.67 664.99,582.38 668.26,563.22 671.54,551.85 674.81,541.44 678.08,541.90 681.36,543.77 684.63,535.66 687.91,523.71 691.18,518.99 694.46,518.47 697.73,519.47 701.00,515.51 704.28,522.52 707.55,525.78 710.83,532.39 714.10,536.87 717.37,544.78 720.65,547.03 723.92,537.44 727.20,531.99 730.47,521.26 733.75,516.89 737.02,521.69 740.29,519.58 743.57,512.16 746.84,516.56 750.12,510.53 753.39,514.83 756.66,519.13 759.94,522.58 763.21,531.69 766.49,527.52 769.76,528.76 773.03,518.89 776.31,515.73 779.58,509.84 782.86,513.52 786.13,514.41 789.41,516.85 792.68,523.82 795.95,539.81 799.23,555.88 802.50,567.74 805.78,584.41 809.05,587.63 812.32,598.74 815.60,598.08 818.87,585.92 822.15,560.95 825.42,546.32 828.69,538.05 831.97,526.40 835.24,517.01 838.52,514.45 841.79,512.87 845.07,513.38 848.34,526.50 851.61,535.24 854.89,540.65 858.16,541.35 861.44,559.51 864.71,564.02 867.98,573.86 871.26,587.96 874.53,575.85 877.81,577.66 881.08,578.86 884.36,583.83 887.63,580.29 890.90,557.72 894.18,550.76 897.45,566.99 900.73,583.87 904.00,586.14" />
<polyline fill="none" stroke="#d62728" stroke-width="2" points="82.19,562.10 85.47,571.41 88.74,581.71 92.02,594.70 95.29,605.50 98.56,611.53 101.84,615.48 105.11,617.28 108.39,619.03 111.66,620.02 114.93,626.12 118.21,623.80 121.48,622.44 124.76,622.93 128.03,625.68 131.31,634.16 134.58,638.02 137.85,641.50 141.13,640.37 144.40,636.52 147.68,634.01 150.95,633.69 154.22,633.36 157.50,633.61 160.77,633.18 164.05,632.19 167.32,630.98 170.59,625.97 173.87,627.66 177.14,624.86 180.42,616.35 183.69,609.16 186.97,607.99 190.24,609.91 193.51,605.75 196.79,604.27 200.06,606.18 203.34,609.96 206.61,614.37 209.88,617.84 213.16,620.71 216.43,615.97 219.71,613.10 222.98,609.26 226.25,606.31 229.53,605.30 232.80,607.38 236.08,610.77 239.35,615.10 242.63,621.56 245.90,626.08 249.17,624.83 252.45,614.30 255.72,603.38 259.00,591.10 262.27,578.33 265.54,568.68 268.82,559.70 272.09,553.74 275.37,553.55 278.64,558.19 281.92,566.49 285.19,574.64 288.46,579.61 291.74,580.25 295.01,579.56 298.29,580.40 301.56,582.43 304.83,583.01 308.11,579.12 311.38,572.62 314.66,571.80 317.93,573.27 321.20,576.25 324.48,578.67 327.75,577.98 331.03,580.65 334.30,583.56 337.58,582.98 340.85,578.94 344.12,574.99 347.40,572.57 350.67,575.69 353.95,583.73 357.22,592.36 360.49,600.12 363.77,607.93 367.04,614.94 370.32,620.64 373.59,625.30 376.86,627.75 380.14,628.98 383.41,627.63 386.69,623.07 389.96,610.33 393.24,602.69 396.51,596.41 399.78,588.89 403.06,582.43 406.33,574.12 409.61,566.09 412.88,559.62 416.15,553.59 419.43,547.78 422.70,543.01 425.98,538.68 429.25,535.75 432.53,536.70 435.80,540.15 439.07,546.67 442.35,554.02 445.62,556.57 448.90,557.16 452.17,554.97 455.44,551.48 458.72,551.72 461.99,555.11 465.27,558.22 468.54,562.16 471.81,575.05 475.09,589.85 478.36,602.23 481.64,611.41 484.91,614.85 488.19,604.70 491.46,596.39 494.73,586.72 498.01,577.25 501.28,569.46 504.56,564.50 507.83,560.40 511.10,552.77 514.38,544.71 517.65,536.83 520.93,531.75 524.20,529.13 527.47,530.02 530.75,528.93 534.02,524.97 537.30,522.14 540.57,525.77 543.85,537.33 547.12,550.79 550.39,563.54 553.67,573.90 556.94,582.23 560.22,588.47 563.49,592.77 566.76,594.68 570.04,591.78 573.31,584.47 576.59,574.91 579.86,568.70 583.14,564.90 586.41,563.89 589.68,569.88 592.96,579.35 596.23,586.25 599.51,591.37 602.78,594.85 606.05,596.38 609.33,593.93 612.60,591.48 615.88,590.96 619.15,588.96 622.42,586.09 625.70,581.08 628.97,581.61 632.25,588.27 635.52,594.41 638.80,600.04 642.07,598.63 645.34,596.41 648.62,595.03 651.89,596.10 655.17,599.42 658.44,600.19 661.71,602.68 664.99,595.92 668.26,585.02 671.54,573.96 674.81,563.12 678.08,556.05 681.36,551.96 684.63,546.53 687.91,538.92 691.18,532.28 694.46,527.67 697.73,524.94 701.00,521.80 704.28,522.04 707.55,523.29 710.83,526.32 714.10,529.84 717.37,534.82 720.65,538.89 723.92,538.41 727.20,536.27 730.47,531.27 733.75,526.47 737.02,524.88 740.29,523.11 743.57,519.46 746.84,518.50 750.12,515.84 753.39,515.50 756.66,516.71 759.94,518.67 763.21,523.01 766.49,524.51 769.76,525.93 773.03,523.58 776.31,520.97 779.58,517.26 782.86,516.01 786.13,515.48 789.41,515.94 792.68,518.56 795.95,525.65 799.23,535.72 802.50,546.39 805.78,559.07 809.05,568.59 812.32,578.64 815.60,585.12 818.87,585.38 822.15,577.24 825.42,566.93 828.69,557.31 831.97,547.00 835.24,537.01 838.52,529.49 841.79,523.95 845.07,520.42 848.34,522.45 851.61,526.71 854.89,531.36 858.16,534.69 861.44,542.96 864.71,549.98 867.98,557.94 871.26,567.95 874.53,570.58 877.81,572.94 881.08,574.92 884.36,577.89 887.63,578.69 890.90,571.70 894.18,564.72 897.45,565.47 900.73,571.61 904.00,576.45" />
<text x="824.00" y="502.00" font-size="13" font-family="Arial" fill="#2ca02c" text-anchor="start">K</text>
<text x="860.00" y="502.00" font-size="13" font-family="Arial" fill="#d62728" text-anchor="start">D</text>
</svg>