<svg xmlns="http://www.w3.org/2000/svg" width="960" height="680" viewBox="0 0 960 680"><rect width="100%" height="100%" fill="white" />
<text x="56.00" y="32.00" font-size="20" font-family="Arial" fill="#1f2933" text-anchor="start">華碩(2357) Technical Indicators</text>
<line x1="56" y1="220" x2="904" y2="220" stroke="#cbd2d9" />
<line x1="56" y1="58" x2="56" y2="220" stroke="#cbd2d9" />
<text x="16.00" y="50.00" font-size="12" font-family="Arial" fill="#52606d" text-anchor="start">RSI14</text>
<line x1="56" y1="220.00" x2="904" y2="220.00" stroke="#edf2f7" />
<line x1="52" y1="220.00" x2="56" y2="220.00" stroke="#9fb3c8" />
<text x="48.00" y="224.00" font-size="11" font-family="Arial" fill="#52606d" text-anchor="end">-5.00</text>
<line x1="56" y1="166.00" x2="904" y2="166.00" stroke="#edf2f7" />
<line x1="52" y1="166.00" x2="56" y2="166.00" stroke="#9fb3c8" />
<text x="48.00" y="170.00" font-size="11" font-family="Arial" fill="#52606d" text-anchor="end">31.7</text>
<line x1="56" y1="112.00" x2="904" y2="112.00" stroke="#edf2f7" />
<line x1="52" y1="112.00" x2="56" y2="112.00" stroke="#9fb3c8" />
<text x="48.00" y="116.00" font-size="11" font-family="Arial" fill="#52606d" text-anchor="end">68.3</text>
<line x1="56" y1="58.00" x2="904" y2="58.00" stroke="#edf2f7" />
<line x1="52" y1="58.00" x2="56" y2="58.00" stroke="#9fb3c8" />
<text x="48.00" y="62.00" font-size="11" font-family="Arial" fill="#52606d" text-anchor="end">105</text>
<line x1="56" y1="168.45" x2="904" y2="168.45" stroke="#f0b429" stroke-dasharray="5 5" />
<text x="912.00" y="172.45" font-size="10" font-family="Arial" fill="#8d2b0b" text-anchor="start">30.0</text>
<line x1="56" y1="109.55" x2="904" y2="109.55" stroke="#f0b429" stroke-dasharray="5 5" />
<text x="912.00" y="113.55" font-size="10" font-family="Arial" fill="#8d2b0b" text-anchor="start">70.0</text>
<polyline fill="none" stroke="#1f77b4" stroke-width="2" points="101.84,141.70 105.11,141.70 108.39,145.70 111.66,141.90 114.93,143.85 118.21,141.59 121.48,142.02 124.76,141.52 128.03,149.19 131.31,141.40 134.58,137.09 137.85,133.40 141.13,130.26 144.40,136.23 147.68,135.24 150.95,130.80 154.22,129.34 157.50,124.16 160.77,122.35 164.05,121.42 167.32,123.00 170.59,135.82 173.87,141.32 177.14,148.46 180.42,147.78 183.69,152.57 186.97,151.80 190.24,151.80 193.51,156.37 196.79,155.46 200.06,158.39 203.34,147.52 206.61,143.43 209.88,145.59 213.16,146.33 216.43,147.87 219.71,156.95 222.98,156.95 226.25,150.56 229.53,141.08 232.80,132.97 236.08,132.97 239.35,121.77 242.63,117.68 245.90,107.01 249.17,101.49 252.45,114.61 255.72,120.10 259.00,128.77 262.27,125.24 265.54,133.38 268.82,125.36 272.09,125.36 275.37,125.36 278.64,122.22 281.92,131.38 285.19,136.24 288.46,133.12 291.74,128.35 295.01,127.76 298.29,124.18 301.56,123.59 304.83,136.15 308.11,124.23 311.38,131.58 314.66,133.70 317.93,133.06 321.20,133.06 324.48,132.34 327.75,128.70 331.03,123.27 334.30,124.29 337.58,114.62 340.85,119.75 344.12,119.75 347.40,119.75 350.67,132.35 353.95,137.82 357.22,140.46 360.49,146.35 363.77,146.35 367.04,158.74 370.32,159.37 373.59,160.68 376.86,168.80 380.14,175.12 383.41,175.12 386.69,183.20 389.96,192.67 393.24,189.91 396.51,183.49 399.78,183.49 403.06,172.51 406.33,168.22 409.61,151.82 412.88,152.29 416.15,156.94 419.43,155.44 422.70,152.38 425.98,145.77 429.25,150.83 432.53,149.31 435.80,153.29 439.07,156.54 442.35,157.09 445.62,158.78 448.90,161.04 452.17,163.27 455.44,161.05 458.72,166.17 461.99,176.15 465.27,177.56 468.54,177.56 471.81,179.06 475.09,179.82 478.36,170.84 481.64,174.52 484.91,175.83 488.19,165.92 491.46,158.07 494.73,163.39 498.01,167.11 501.28,162.59 504.56,169.32 507.83,169.80 511.10,152.27 514.38,166.12 517.65,157.95 520.93,161.10 524.20,165.68 527.47,165.68 530.75,165.68 534.02,169.58 537.30,160.15 540.57,156.59 543.85,161.73 547.12,162.23 550.39,156.47 553.67,158.21 556.94,164.15 560.22,160.59 563.49,159.03 566.76,157.95 570.04,157.95 573.31,151.02 576.59,154.90 579.86,133.63 583.14,136.18 586.41,146.85 589.68,141.92 592.96,134.42 596.23,129.66 599.51,131.39 602.78,138.80 606.05,152.58 609.33,139.77 612.60,134.31 615.88,140.63 619.15,132.47 622.42,111.90 625.70,113.75 628.97,111.32 632.25,111.32 635.52,110.03 638.80,109.69 642.07,121.52 645.34,119.84 648.62,132.19 651.89,131.19 655.17,131.19 658.44,126.45 661.71,124.92 664.99,135.39 668.26,143.14 671.54,133.02 674.81,139.82 678.08,142.51 681.36,135.79 684.63,132.64 687.91,127.63 691.18,127.63 694.46,126.57 697.73,124.41 701.00,121.74 704.28,116.72 707.55,113.93 710.83,119.39 714.10,114.51 717.37,123.99 720.65,133.70 723.92,131.89 727.20,131.89 730.47,131.89 733.75,137.67 737.02,130.49 740.29,131.36 743.57,111.06 746.84,107.48 750.12,103.90 753.39,95.03 756.66,104.70 759.94,111.58 763.21,107.00 766.49,128.34 769.76,131.14 773.03,128.51 776.31,129.53 779.58,123.44 782.86,115.17 786.13,108.32 789.41,113.74 792.68,113.21 795.95,118.27 799.23,102.61 802.50,92.93 805.78,86.48 809.05,85.80 812.32,99.73 815.60,98.92 818.87,116.15 822.15,115.28 825.42,129.18 828.69,131.94 831.97,131.74 835.24,130.30 838.52,130.57 841.79,127.87 845.07,132.06 848.34,132.37 851.61,133.34 854.89,137.88 858.16,144.77 861.44,156.20 864.71,155.50 867.98,156.20 871.26,156.46 874.53,152.12 877.81,148.70 881.08,146.55 884.36,152.26 887.63,142.16 890.90,143.25 894.18,143.25 897.45,134.96 900.73,135.40 904.00,131.74" />
<text x="808.00" y="76.00" font-size="13" font-family="Arial" fill="#1f77b4" text-anchor="start">RSI14</text>
<line x1="56" y1="432" x2="904" y2="432" stroke="#cbd2d9" />
<line x1="56" y1="272" x2="56" y2="432" stroke="#cbd2d9" />
<text x="16.00" y="264.00" font-size="12" font-family="Arial" fill="#52606d" text-anchor="start">MACD</text>
<line x1="56" y1="432.00" x2="904" y2="432.00" stroke="#edf2f7" />
<line x1="52" y1="432.00" x2="56" y2="432.00" stroke="#9fb3c8" />
<text x="48.00" y="436.00" font-size="11" font-family="Arial" fill="#52606d" text-anchor="end">-33.4</text>
<line x1="56" y1="378.67" x2="904" y2="378.67" stroke="#edf2f7" />
<line x1="52" y1="378.67" x2="56" y2="378.67" stroke="#9fb3c8" />
<text x="48.00" y="382.67" font-size="11" font-family="Arial" fill="#52606d" text-anchor="end">2.80</text>
<line x1="56" y1="325.33" x2="904" y2="325.33" stroke="#edf2f7" />
<line x1="52" y1="325.33" x2="56" y2="325.33" stroke="#9fb3c8" />
<text x="48.00" y="329.33" font-size="11" font-family="Arial" fill="#52606d" text-anchor="end">39.0</text>
<line x1="56" y1="272.00" x2="904" y2="272.00" stroke="#edf2f7" />
<line x1="52" y1="272.00" x2="56" y2="272.00" stroke="#9fb3c8" />
<text x="48.00" y="276.00" font-size="11" font-family="Arial" fill="#52606d" text-anchor="end">75.3</text>
<line x1="56" y1="382.79" x2="904" y2="382.79" stroke="#9fb3c8" stroke-dasharray="4 4" />
<rect x="136.71" y="382.79" width="2.28" height="0.00" fill="#2f9e44" opacity="0.55" />
<rect x="139.99" y="380.84" width="2.28" height="1.94" fill="#2f9e44" opacity="0.55" />
<rect x="143.26" y="380.69" width="2.28" height="2.10" fill="#2f9e44" opacity="0.55" />
<rect x="146.53" y="380.51" width="2.28" height="2.28" fill="#2f9e44" opacity="0.55" />
<rect x="149.81" y="379.72" width="2.28" height="3.06" fill="#2f9e44" opacity="0.55" />
<rect x="153.08" y="379.13" width="2.28" height="3.66" fill="#2f9e44" opacity="0.55" />
<rect x="156.36" y="377.99" width="2.28" height="4.80" fill="#2f9e44" opacity="0.55" />
<rect x="159.63" y="377.20" width="2.28" height="5.59" fill="#2f9e44" opacity="0.55" />
<rect x="162.90" y="376.85" width="2.28" height="5.94" fill="#2f9e44" opacity="0.55" />
<rect x="166.18" y="377.17" width="2.28" height="5.62" fill="#2f9e44" opacity="0.55" />
<rect x="169.45" y="379.32" width="2.28" height="3.47" fill="#2f9e44" opacity="0.55" />
<rect x="172.73" y="381.71" width="2.28" height="1.08" fill="#2f9e44" opacity="0.55" />
<rect x="176.00" y="382.79" width="2.28" height="1.70" fill="#d64545" opacity="0.55" />
<rect x="179.28" y="382.79" width="2.28" height="3.33" fill="#d64545" opacity="0.55" />
<rect x="182.55" y="382.79" width="2.28" height="5.03" fill="#d64545" opacity="0.55" />
<rect x="185.82" y="382.79" width="2.28" height="5.80" fill="#d64545" opacity="0.55" />
<rect x="189.10" y="382.79" width="2.28" height="6.01" fill="#d64545" opacity="0.55" />
<rect x="192.37" y="382.79" width="2.28" height="6.55" fill="#d64545" opacity="0.55" />
<rect x="195.65" y="382.79" width="2.28" height="6.47" fill="#d64545" opacity="0.55" />
<rect x="198.92" y="382.79" width="2.28" height="6.52" fill="#d64545" opacity="0.55" />
<rect x="202.19" y="382.79" width="2.28" height="5.12" fill="#d64545" opacity="0.55" />
<rect x="205.47" y="382.79" width="2.28" height="3.50" fill="#d64545" opacity="0.55" />
<rect x="208.74" y="382.79" width="2.28" height="2.53" fill="#d64545" opacity="0.55" />
<rect x="212.02" y="382.79" width="2.28" height="1.82" fill="#d64545" opacity="0.55" />
<rect x="215.29" y="382.79" width="2.28" height="1.41" fill="#d64545" opacity="0.55" />
<rect x="218.57" y="382.79" width="2.28" height="2.17" fill="#d64545" opacity="0.55" />
<rect x="221.84" y="382.79" width="2.28" height="2.48" fill="#d64545" opacity="0.55" />
<rect x="225.11" y="382.79" width="2.28" height="1.94" fill="#d64545" opacity="0.55" />
<rect x="228.39" y="382.79" width="2.28" height="0.55" fill="#d64545" opacity="0.55" />
<rect x="231.66" y="381.49" width="2.28" height="1.30" fill="#2f9e44" opacity="0.55" />
<rect x="234.94" y="380.32" width="2.28" height="2.46" fill="#2f9e44" opacity="0.55" />
<rect x="238.21" y="378.25" width="2.28" height="4.54" fill="#2f9e44" opacity="0.55" />
<rect x="241.48" y="376.52" width="2.28" height="6.27" fill="#2f9e44" opacity="0.55" />
<rect x="244.76" y="373.69" width="2.28" height="9.10" fill="#2f9e44" opacity="0.55" />
<rect x="248.03" y="370.97" width="2.28" height="11.82" fill="#2f9e44" opacity="0.55" />
<rect x="251.31" y="371.21" width="2.28" height="11.57" fill="#2f9e44" opacity="0.55" />
<rect x="254.58" y="372.63" width="2.28" height="10.16" fill="#2f9e44" opacity="0.55" />
<rect x="257.85" y="375.17" width="2.28" height="7.62" fill="#2f9e44" opacity="0.55" />
<rect x="261.13" y="376.62" width="2.28" height="6.17" fill="#2f9e44" opacity="0.55" />
<rect x="264.40" y="379.00" width="2.28" height="3.79" fill="#2f9e44" opacity="0.55" />
<rect x="267.68" y="379.38" width="2.28" height="3.41" fill="#2f9e44" opacity="0.55" />
<rect x="270.95" y="379.90" width="2.28" height="2.89" fill="#2f9e44" opacity="0.55" />
<rect x="274.23" y="380.49" width="2.28" height="2.30" fill="#2f9e44" opacity="0.55" />
<rect x="277.50" y="380.57" width="2.28" height="2.21" fill="#2f9e44" opacity="0.55" />
<rect x="280.77" y="381.92" width="2.28" height="0.86" fill="#2f9e44" opacity="0.55" />
<rect x="284.05" y="382.79" width="2.28" height="0.77" fill="#d64545" opacity="0.55" />
<rect x="287.32" y="382.79" width="2.28" height="1.44" fill="#d64545" opacity="0.55" />
<rect x="290.60" y="382.79" width="2.28" height="1.20" fill="#d64545" opacity="0.55" />
<rect x="293.87" y="382.79" width="2.28" height="1.01" fill="#d64545" opacity="0.55" />
<rect x="297.14" y="382.79" width="2.28" height="0.43" fill="#d64545" opacity="0.55" />
<rect x="300.42" y="382.79" width="2.28" height="0.07" fill="#d64545" opacity="0.55" />
<rect x="303.69" y="382.79" width="2.28" height="1.28" fill="#d64545" opacity="0.55" />
<rect x="306.97" y="382.79" width="2.28" height="0.31" fill="#d64545" opacity="0.55" />
<rect x="310.24" y="382.79" width="2.28" height="0.69" fill="#d64545" opacity="0.55" />
<rect x="313.51" y="382.79" width="2.28" height="1.26" fill="#d64545" opacity="0.55" />
<rect x="316.79" y="382.79" width="2.28" height="1.57" fill="#d64545" opacity="0.55" />
<rect x="320.06" y="382.79" width="2.28" height="1.79" fill="#d64545" opacity="0.55" />
<rect x="323.34" y="382.79" width="2.28" height="1.84" fill="#d64545" opacity="0.55" />
<rect x="326.61" y="382.79" width="2.28" height="1.43" fill="#d64545" opacity="0.55" />
<rect x="329.89" y="382.79" width="2.28" height="0.48" fill="#d64545" opacity="0.55" />
<rect x="333.16" y="382.79" width="2.28" height="0.04" fill="#d64545" opacity="0.55" />
<rect x="336.43" y="381.23" width="2.28" height="1.56" fill="#2f9e44" opacity="0.55" />
<rect x="339.71" y="380.84" width="2.28" height="1.94" fill="#2f9e44" opacity="0.55" />
<rect x="342.98" y="380.80" width="2.28" height="1.99" fill="#2f9e44" opacity="0.55" />
<rect x="346.26" y="380.98" width="2.28" height="1.80" fill="#2f9e44" opacity="0.55" />
<rect x="349.53" y="382.36" width="2.28" height="0.43" fill="#2f9e44" opacity="0.55" />
<rect x="352.80" y="382.79" width="2.28" height="1.09" fill="#d64545" opacity="0.55" />
<rect x="356.08" y="382.79" width="2.28" height="2.36" fill="#d64545" opacity="0.55" />
<rect x="359.35" y="382.79" width="2.28" height="3.75" fill="#d64545" opacity="0.55" />
<rect x="362.63" y="382.79" width="2.28" height="4.51" fill="#d64545" opacity="0.55" />
<rect x="365.90" y="382.79" width="2.28" height="6.34" fill="#d64545" opacity="0.55" />
<rect x="369.18" y="382.79" width="2.28" height="7.30" fill="#d64545" opacity="0.55" />
<rect x="372.45" y="382.79" width="2.28" height="7.75" fill="#d64545" opacity="0.55" />
<rect x="375.72" y="382.79" width="2.28" height="8.90" fill="#d64545" opacity="0.55" />
<rect x="379.00" y="382.79" width="2.28" height="10.40" fill="#d64545" opacity="0.55" />
<rect x="382.27" y="382.79" width="2.28" height="10.78" fill="#d64545" opacity="0.55" />
<rect x="385.55" y="382.79" width="2.28" height="12.45" fill="#d64545" opacity="0.55" />
<rect x="388.82" y="382.79" width="2.28" height="16.93" fill="#d64545" opacity="0.55" />
<rect x="392.09" y="382.79" width="2.28" height="18.48" fill="#d64545" opacity="0.55" />
<rect x="395.37" y="382.79" width="2.28" height="17.72" fill="#d64545" opacity="0.55" />
<rect x="398.64" y="382.79" width="2.28" height="16.13" fill="#d64545" opacity="0.55" />
<rect x="401.92" y="382.79" width="2.28" height="13.01" fill="#d64545" opacity="0.55" />
<rect x="405.19" y="382.79" width="2.28" height="9.67" fill="#d64545" opacity="0.55" />
<rect x="408.46" y="382.79" width="2.28" height="4.86" fill="#d64545" opacity="0.55" />
<rect x="411.74" y="382.79" width="2.28" height="1.39" fill="#d64545" opacity="0.55" />
<rect x="415.01" y="382.53" width="2.28" height="0.26" fill="#2f9e44" opacity="0.55" />
<rect x="418.29" y="381.04" width="2.28" height="1.75" fill="#2f9e44" opacity="0.55" />
<rect x="421.56" y="379.57" width="2.28" height="3.22" fill="#2f9e44" opacity="0.55" />
<rect x="424.84" y="377.74" width="2.28" height="5.05" fill="#2f9e44" opacity="0.55" />
<rect x="428.11" y="377.39" width="2.28" height="5.40" fill="#2f9e44" opacity="0.55" />
<rect x="431.38" y="377.02" width="2.28" height="5.77" fill="#2f9e44" opacity="0.55" />
<rect x="434.66" y="377.47" width="2.28" height="5.32" fill="#2f9e44" opacity="0.55" />
<rect x="437.93" y="378.34" width="2.28" height="4.45" fill="#2f9e44" opacity="0.55" />
<rect x="441.21" y="378.98" width="2.28" height="3.80" fill="#2f9e44" opacity="0.55" />
<rect x="444.48" y="379.64" width="2.28" height="3.14" fill="#2f9e44" opacity="0.55" />
<rect x="447.75" y="380.38" width="2.28" height="2.41" fill="#2f9e44" opacity="0.55" />
<rect x="451.03" y="381.12" width="2.28" height="1.67" fill="#2f9e44" opacity="0.55" />
<rect x="454.30" y="381.30" width="2.28" height="1.49" fill="#2f9e44" opacity="0.55" />
<rect x="457.58" y="382.10" width="2.28" height="0.69" fill="#2f9e44" opacity="0.55" />
<rect x="460.85" y="382.79" width="2.28" height="1.69" fill="#d64545" opacity="0.55" />
<rect x="464.12" y="382.79" width="2.28" height="3.26" fill="#d64545" opacity="0.55" />
<rect x="467.40" y="382.79" width="2.28" height="3.87" fill="#d64545" opacity="0.55" />
<rect x="470.67" y="382.79" width="2.28" height="4.20" fill="#d64545" opacity="0.55" />
<rect x="473.95" y="382.79" width="2.28" height="4.14" fill="#d64545" opacity="0.55" />
<rect x="477.22" y="382.79" width="2.28" height="3.05" fill="#d64545" opacity="0.55" />
<rect x="480.50" y="382.79" width="2.28" height="2.67" fill="#d64545" opacity="0.55" />
<rect x="483.77" y="382.79" width="2.28" height="2.32" fill="#d64545" opacity="0.55" />
<rect x="487.04" y="382.79" width="2.28" height="1.03" fill="#d64545" opacity="0.55" />
<rect x="490.32" y="382.09" width="2.28" height="0.69" fill="#2f9e44" opacity="0.55" />
<rect x="493.59" y="381.60" width="2.28" height="1.19" fill="#2f9e44" opacity="0.55" />
<rect x="496.87" y="381.72" width="2.28" height="1.07" fill="#2f9e44" opacity="0.55" />
<rect x="500.14" y="381.26" width="2.28" height="1.52" fill="#2f9e44" opacity="0.55" />
<rect x="503.41" y="381.97" width="2.28" height="0.82" fill="#2f9e44" opacity="0.55" />
<rect x="506.69" y="382.31" width="2.28" height="0.48" fill="#2f9e44" opacity="0.55" />
<rect x="509.96" y="380.81" width="2.28" height="1.98" fill="#2f9e44" opacity="0.55" />
<rect x="513.24" y="382.22" width="2.28" height="0.57" fill="#2f9e44" opacity="0.55" />
<rect x="516.51" y="382.02" width="2.28" height="0.77" fill="#2f9e44" opacity="0.55" />
<rect x="519.79" y="382.33" width="2.28" height="0.46" fill="#2f9e44" opacity="0.55" />
<rect x="523.06" y="382.79" width="2.28" height="0.50" fill="#d64545" opacity="0.55" />
<rect x="526.33" y="382.79" width="2.28" height="0.85" fill="#d64545" opacity="0.55" />
<rect x="529.61" y="382.79" width="2.28" height="0.80" fill="#d64545" opacity="0.55" />
<rect x="532.88" y="382.79" width="2.28" height="1.29" fill="#d64545" opacity="0.55" />
<rect x="536.16" y="382.79" width="2.28" height="0.41" fill="#d64545" opacity="0.55" />
<rect x="539.43" y="382.04" width="2.28" height="0.74" fill="#2f9e44" opacity="0.55" />
<rect x="542.70" y="382.01" width="2.28" height="0.78" fill="#2f9e44" opacity="0.55" />
<rect x="545.98" y="381.88" width="2.28" height="0.90" fill="#2f9e44" opacity="0.55" />
<rect x="549.25" y="381.10" width="2.28" height="1.69" fill="#2f9e44" opacity="0.55" />
<rect x="552.53" y="380.73" width="2.28" height="2.06" fill="#2f9e44" opacity="0.55" />
<rect x="555.80" y="381.36" width="2.28" height="1.43" fill="#2f9e44" opacity="0.55" />
<rect x="559.07" y="381.31" width="2.28" height="1.48" fill="#2f9e44" opacity="0.55" />
<rect x="562.35" y="381.00" width="2.28" height="1.78" fill="#2f9e44" opacity="0.55" />
<rect x="565.62" y="380.61" width="2.28" height="2.18" fill="#2f9e44" opacity="0.55" />
<rect x="568.90" y="380.27" width="2.28" height="2.51" fill="#2f9e44" opacity="0.55" />
<rect x="572.17" y="379.47" width="2.28" height="3.32" fill="#2f9e44" opacity="0.55" />
<rect x="575.45" y="379.39" width="2.28" height="3.40" fill="#2f9e44" opacity="0.55" />
<rect x="578.72" y="377.30" width="2.28" height="5.49" fill="#2f9e44" opacity="0.55" />
<rect x="581.99" y="376.37" width="2.28" height="6.41" fill="#2f9e44" opacity="0.55" />
<rect x="585.27" y="377.21" width="2.28" height="5.58" fill="#2f9e44" opacity="0.55" />
<rect x="588.54" y="377.35" width="2.28" height="5.43" fill="#2f9e44" opacity="0.55" />
<rect x="591.82" y="376.72" width="2.28" height="6.07" fill="#2f9e44" opacity="0.55" />
<rect x="595.09" y="375.90" width="2.28" height="6.89" fill="#2f9e44" opacity="0.55" />
<rect x="598.36" y="375.82" width="2.28" height="6.97" fill="#2f9e44" opacity="0.55" />
<rect x="601.64" y="376.85" width="2.28" height="5.94" fill="#2f9e44" opacity="0.55" />
<rect x="604.91" y="379.59" width="2.28" height="3.20" fill="#2f9e44" opacity="0.55" />
<rect x="608.19" y="379.82" width="2.28" height="2.97" fill="#2f9e44" opacity="0.55" />
<rect x="611.46" y="379.26" width="2.28" height="3.52" fill="#2f9e44" opacity="0.55" />
<rect x="614.73" y="379.94" width="2.28" height="2.85" fill="#2f9e44" opacity="0.55" />
<rect x="618.01" y="379.23" width="2.28" height="3.56" fill="#2f9e44" opacity="0.55" />
<rect x="621.28" y="374.26" width="2.28" height="8.53" fill="#2f9e44" opacity="0.55" />
<rect x="624.56" y="371.84" width="2.28" height="10.95" fill="#2f9e44" opacity="0.55" />
<rect x="627.83" y="370.20" width="2.28" height="12.59" fill="#2f9e44" opacity="0.55" />
<rect x="631.11" y="369.87" width="2.28" height="12.92" fill="#2f9e44" opacity="0.55" />
<rect x="634.38" y="370.05" width="2.28" height="12.74" fill="#2f9e44" opacity="0.55" />
<rect x="637.65" y="370.84" width="2.28" height="11.94" fill="#2f9e44" opacity="0.55" />
<rect x="640.93" y="373.50" width="2.28" height="9.29" fill="#2f9e44" opacity="0.55" />
<rect x="644.20" y="375.45" width="2.28" height="7.34" fill="#2f9e44" opacity="0.55" />
<rect x="647.48" y="378.89" width="2.28" height="3.90" fill="#2f9e44" opacity="0.55" />
<rect x="650.75" y="381.25" width="2.28" height="1.54" fill="#2f9e44" opacity="0.55" />
<rect x="654.02" y="382.79" width="2.28" height="0.19" fill="#d64545" opacity="0.55" />
<rect x="657.30" y="382.79" width="2.28" height="0.64" fill="#d64545" opacity="0.55" />
<rect x="660.57" y="382.79" width="2.28" height="0.80" fill="#d64545" opacity="0.55" />
<rect x="663.85" y="382.79" width="2.28" height="2.35" fill="#d64545" opacity="0.55" />
<rect x="667.12" y="382.79" width="2.28" height="4.52" fill="#d64545" opacity="0.55" />
<rect x="670.40" y="382.79" width="2.28" height="4.20" fill="#d64545" opacity="0.55" />
<rect x="673.67" y="382.79" width="2.28" height="4.99" fill="#d64545" opacity="0.55" />
<rect x="676.94" y="382.79" width="2.28" height="5.79" fill="#d64545" opacity="0.55" />
<rect x="680.22" y="382.79" width="2.28" height="5.06" fill="#d64545" opacity="0.55" />
<rect x="683.49" y="382.79" width="2.28" height="3.91" fill="#d64545" opacity="0.55" />
<rect x="686.77" y="382.79" width="2.28" height="2.20" fill="#d64545" opacity="0.55" />
<rect x="690.04" y="382.79" width="2.28" height="1.11" fill="#d64545" opacity="0.55" />
<rect x="693.31" y="382.79" width="2.28" height="0.28" fill="#d64545" opacity="0.55" />
<rect x="696.59" y="382.28" width="2.28" height="0.51" fill="#2f9e44" opacity="0.55" />
<rect x="699.86" y="381.46" width="2.28" height="1.33" fill="#2f9e44" opacity="0.55" />
<rect x="703.14" y="380.23" width="2.28" height="2.56" fill="#2f9e44" opacity="0.55" />
<rect x="706.41" y="379.16" width="2.28" height="3.62" fill="#2f9e44" opacity="0.55" />
<rect x="709.68" y="379.33" width="2.28" height="3.46" fill="#2f9e44" opacity="0.55" />
<rect x="712.96" y="378.84" width="2.28" height="3.94" fill="#2f9e44" opacity="0.55" />
<rect x="716.23" y="379.85" width="2.28" height="2.94" fill="#2f9e44" opacity="0.55" />
<rect x="719.51" y="381.91" width="2.28" height="0.88" fill="#2f9e44" opacity="0.55" />
<rect x="722.78" y="382.79" width="2.28" height="0.33" fill="#d64545" opacity="0.55" />
<rect x="726.06" y="382.79" width="2.28" height="1.21" fill="#d64545" opacity="0.55" />
<rect x="729.33" y="382.79" width="2.28" height="1.83" fill="#d64545" opacity="0.55" />
<rect x="732.60" y="382.79" width="2.28" height="2.87" fill="#d64545" opacity="0.55" />
<rect x="735.88" y="382.79" width="2.28" height="2.60" fill="#d64545" opacity="0.55" />
<rect x="739.15" y="382.79" width="2.28" height="2.51" fill="#d64545" opacity="0.55" />
<rect x="742.43" y="381.77" width="2.28" height="1.02" fill="#2f9e44" opacity="0.55" />
<rect x="745.70" y="378.84" width="2.28" height="3.94" fill="#2f9e44" opacity="0.55" />
<rect x="748.97" y="376.37" width="2.28" height="6.42" fill="#2f9e44" opacity="0.55" />
<rect x="752.25" y="372.11" width="2.28" height="10.68" fill="#2f9e44" opacity="0.55" />
<rect x="755.52" y="371.31" width="2.28" height="11.48" fill="#2f9e44" opacity="0.55" />
<rect x="758.80" y="372.47" width="2.28" height="10.31" fill="#2f9e44" opacity="0.55" />
<rect x="762.07" y="372.54" width="2.28" height="10.24" fill="#2f9e44" opacity="0.55" />
<rect x="765.34" y="376.71" width="2.28" height="6.07" fill="#2f9e44" opacity="0.55" />
<rect x="768.62" y="380.42" width="2.28" height="2.37" fill="#2f9e44" opacity="0.55" />
<rect x="771.89" y="382.50" width="2.28" height="0.28" fill="#2f9e44" opacity="0.55" />
<rect x="775.17" y="382.79" width="2.28" height="1.47" fill="#d64545" opacity="0.55" />
<rect x="778.44" y="382.79" width="2.28" height="1.32" fill="#d64545" opacity="0.55" />
<rect x="781.72" y="381.90" width="2.28" height="0.88" fill="#2f9e44" opacity="0.55" />
<rect x="784.99" y="378.43" width="2.28" height="4.36" fill="#2f9e44" opacity="0.55" />
<rect x="788.26" y="377.62" width="2.28" height="5.16" fill="#2f9e44" opacity="0.55" />
<rect x="791.54" y="377.48" width="2.28" height="5.30" fill="#2f9e44" opacity="0.55" />
<rect x="794.81" y="378.75" width="2.28" height="4.04" fill="#2f9e44" opacity="0.55" />
<rect x="798.09" y="373.96" width="2.28" height="8.83" fill="#2f9e44" opacity="0.55" />
<rect x="801.36" y="365.02" width="2.28" height="17.77" fill="#2f9e44" opacity="0.55" />
<rect x="804.63" y="353.37" width="2.28" height="29.42" fill="#2f9e44" opacity="0.55" />
<rect x="807.91" y="347.06" width="2.28" height="35.73" fill="#2f9e44" opacity="0.55" />
<rect x="811.18" y="348.92" width="2.28" height="33.87" fill="#2f9e44" opacity="0.55" />
<rect x="814.46" y="351.73" width="2.28" height="31.05" fill="#2f9e44" opacity="0.55" />
<rect x="817.73" y="360.72" width="2.28" height="22.07" fill="#2f9e44" opacity="0.55" />
<rect x="821.01" y="367.68" width="2.28" height="15.11" fill="#2f9e44" opacity="0.55" />
<rect x="824.28" y="378.33" width="2.28" height="4.46" fill="#2f9e44" opacity="0.55" />
<rect x="827.55" y="382.79" width="2.28" height="4.26" fill="#d64545" opacity="0.55" />
<rect x="830.83" y="382.79" width="2.28" height="10.14" fill="#d64545" opacity="0.55" />
<rect x="834.10" y="382.79" width="2.28" height="13.39" fill="#d64545" opacity="0.55" />
<rect x="837.38" y="382.79" width="2.28" height="15.50" fill="#d64545" opacity="0.55" />
<rect x="840.65" y="382.79" width="2.28" height="15.59" fill="#d64545" opacity="0.55" />
<rect x="843.92" y="382.79" width="2.28" height="16.67" fill="#d64545" opacity="0.55" />
<rect x="847.20" y="382.79" width="2.28" height="17.14" fill="#d64545" opacity="0.55" />
<rect x="850.47" y="382.79" width="2.28" height="17.33" fill="#d64545" opacity="0.55" />
<rect x="853.75" y="382.79" width="2.28" height="18.27" fill="#d64545" opacity="0.55" />
<rect x="857.02" y="382.79" width="2.28" height="20.38" fill="#d64545" opacity="0.55" />
<rect x="860.29" y="382.79" width="2.28" height="25.19" fill="#d64545" opacity="0.55" />
<rect x="863.57" y="382.79" width="2.28" height="27.06" fill="#d64545" opacity="0.55" />
<rect x="866.84" y="382.79" width="2.28" height="27.36" fill="#d64545" opacity="0.55" />
<rect x="870.12" y="382.79" width="2.28" height="26.43" fill="#d64545" opacity="0.55" />
<rect x="873.39" y="382.79" width="2.28" height="23.69" fill="#d64545" opacity="0.55" />
<rect x="876.67" y="382.79" width="2.28" height="20.09" fill="#d64545" opacity="0.55" />
<rect x="879.94" y="382.79" width="2.28" height="16.37" fill="#d64545" opacity="0.55" />
<rect x="883.21" y="382.79" width="2.28" height="14.80" fill="#d64545" opacity="0.55" />
<rect x="886.49" y="382.79" width="2.28" height="10.78" fill="#d64545" opacity="0.55" />
<rect x="889.76" y="382.79" width="2.28" height="7.95" fill="#d64545" opacity="0.55" />
<rect x="893.04" y="382.79" width="2.28" height="5.70" fill="#d64545" opacity="0.55" />
<rect x="896.31" y="382.79" width="2.28" height="2.06" fill="#d64545" opacity="0.55" />
<rect x="899.58" y="382.48" width="2.28" height="0.31" fill="#2f9e44" opacity="0.55" />
<rect x="902.86" y="380.10" width="2.28" height="2.69" fill="#2f9e44" opacity="0.55" />
<polyline fill="none" stroke="#1f77b4" stroke-width="2" points="137.85,384.74 141.13,382.31 144.40,381.63 147.68,380.89 150.95,379.33 154.22,377.82 157.50,375.48 160.77,373.29 164.05,371.46 167.32,370.38 170.59,371.66 173.87,373.78 177.14,376.98 180.42,379.44 183.69,382.40 186.97,384.62 190.24,386.33 193.51,388.52 196.79,390.05 200.06,391.73 203.34,391.61 206.61,390.87 209.88,390.52 213.16,390.28 216.43,390.22 219.71,391.52 222.98,392.45 226.25,392.40 229.53,391.15 232.80,388.97 236.08,387.19 239.35,383.98 242.63,380.68 245.90,375.58 249.17,369.90 252.45,367.25 255.72,366.13 259.00,366.76 262.27,366.67 265.54,368.10 268.82,367.63 272.09,367.43 275.37,367.45 278.64,366.98 281.92,368.11 285.19,369.94 288.46,370.97 291.74,371.02 295.01,371.09 298.29,370.62 301.56,370.27 304.83,371.80 308.11,370.92 311.38,371.46 314.66,372.35 317.93,373.05 321.20,373.72 324.48,374.23 327.75,374.18 331.03,373.35 334.30,372.92 337.58,370.93 340.85,370.06 344.12,369.52 347.40,369.25 350.67,370.52 353.95,372.31 357.22,374.17 360.49,376.49 363.77,378.39 367.04,381.80 370.32,384.59 373.59,386.98 376.86,390.35 380.14,394.44 383.41,397.52 386.69,402.30 389.96,411.02 393.24,417.19 396.51,420.86 399.78,423.30 403.06,423.43 406.33,422.51 409.61,418.92 412.88,415.80 416.15,414.08 419.43,412.16 422.70,409.87 425.98,406.78 429.25,405.08 432.53,403.28 435.80,402.40 439.07,402.15 442.35,401.84 445.62,401.72 448.90,401.85 452.17,402.17 455.44,401.98 458.72,402.61 461.99,405.42 465.27,407.80 468.54,409.38 471.81,410.75 475.09,411.73 478.36,411.40 481.64,411.69 484.91,411.93 488.19,410.89 491.46,408.99 494.73,408.20 498.01,408.06 501.28,407.22 504.56,407.72 507.83,407.93 511.10,405.94 514.38,407.21 517.65,406.81 520.93,407.01 524.20,408.10 527.47,408.66 530.75,408.81 534.02,409.62 537.30,408.85 540.57,407.50 543.85,407.27 547.12,406.92 550.39,405.71 553.67,404.83 556.94,405.11 560.22,404.68 563.49,403.93 566.76,402.99 570.04,402.03 573.31,400.39 576.59,399.46 579.86,396.00 583.14,393.47 586.41,392.91 589.68,391.70 592.96,389.54 596.23,387.00 599.51,385.19 602.78,384.73 606.05,386.67 609.33,386.15 612.60,384.72 615.88,384.68 619.15,383.08 622.42,375.97 625.70,370.81 628.97,366.03 632.25,362.47 635.52,359.47 638.80,357.27 642.07,357.61 645.34,357.72 648.62,360.19 651.89,362.16 655.17,363.94 658.44,364.56 661.71,364.91 664.99,367.05 668.26,370.35 671.54,371.08 674.81,373.11 678.08,375.37 681.36,375.89 684.63,375.72 687.91,374.56 691.18,373.75 694.46,373.00 697.73,372.08 701.00,370.93 704.28,369.05 707.55,367.08 710.83,366.38 714.10,364.91 717.37,365.18 720.65,367.03 723.92,368.32 727.20,369.50 730.47,370.57 733.75,372.33 737.02,372.72 740.29,373.25 743.57,369.47 746.84,365.56 750.12,361.47 753.39,354.54 756.66,350.87 759.94,349.46 763.21,346.97 766.49,349.62 769.76,352.74 773.03,354.75 776.31,356.87 779.58,357.05 782.86,354.63 786.13,350.06 789.41,347.97 792.68,346.50 795.95,346.76 799.23,339.75 802.50,326.37 805.78,307.37 809.05,292.13 812.32,285.52 815.60,280.57 818.87,284.04 822.15,287.22 825.42,296.76 828.69,306.54 831.97,314.96 835.24,321.56 838.52,327.53 841.79,331.52 845.07,336.77 848.34,341.53 851.61,346.05 854.89,351.56 858.16,358.77 861.44,369.88 864.71,378.51 867.98,385.65 871.26,391.33 874.53,394.51 877.81,395.92 881.08,396.30 884.36,398.43 887.63,397.11 890.90,396.26 894.18,395.44 897.45,392.31 900.73,389.87 904.00,386.81" />
<polyline fill="none" stroke="#ff7f0e" stroke-width="2" points="137.85,384.74 141.13,384.26 144.40,383.73 147.68,383.16 150.95,382.40 154.22,381.48 157.50,380.28 160.77,378.88 164.05,377.40 167.32,376.00 170.59,375.13 173.87,374.86 177.14,375.28 180.42,376.11 183.69,377.37 186.97,378.82 190.24,380.32 193.51,381.96 196.79,383.58 200.06,385.21 203.34,386.49 206.61,387.37 209.88,388.00 213.16,388.45 216.43,388.81 219.71,389.35 222.98,389.97 226.25,390.46 229.53,390.59 232.80,390.27 236.08,389.65 239.35,388.52 242.63,386.95 245.90,384.68 249.17,381.72 252.45,378.83 255.72,376.29 259.00,374.38 262.27,372.84 265.54,371.89 268.82,371.04 272.09,370.32 275.37,369.74 278.64,369.19 281.92,368.97 285.19,369.17 288.46,369.53 291.74,369.83 295.01,370.08 298.29,370.19 301.56,370.20 304.83,370.52 308.11,370.60 311.38,370.77 314.66,371.09 317.93,371.48 321.20,371.93 324.48,372.39 327.75,372.75 331.03,372.87 334.30,372.88 337.58,372.49 340.85,372.00 344.12,371.51 347.40,371.05 350.67,370.95 353.95,371.22 357.22,371.81 360.49,372.75 363.77,373.87 367.04,375.46 370.32,377.28 373.59,379.22 376.86,381.45 380.14,384.05 383.41,386.74 386.69,389.85 389.96,394.09 393.24,398.71 396.51,403.14 399.78,407.17 403.06,410.42 406.33,412.84 409.61,414.06 412.88,414.40 416.15,414.34 419.43,413.90 422.70,413.10 425.98,411.83 429.25,410.48 432.53,409.04 435.80,407.71 439.07,406.60 442.35,405.65 445.62,404.86 448.90,404.26 452.17,403.84 455.44,403.47 458.72,403.30 461.99,403.72 465.27,404.54 468.54,405.50 471.81,406.55 475.09,407.59 478.36,408.35 481.64,409.02 484.91,409.60 488.19,409.86 491.46,409.69 494.73,409.39 498.01,409.12 501.28,408.74 504.56,408.54 507.83,408.42 511.10,407.92 514.38,407.78 517.65,407.58 520.93,407.47 524.20,407.59 527.47,407.81 530.75,408.01 534.02,408.33 537.30,408.43 540.57,408.25 543.85,408.05 547.12,407.83 550.39,407.40 553.67,406.89 556.94,406.53 560.22,406.16 563.49,405.72 566.76,405.17 570.04,404.54 573.31,403.71 576.59,402.86 579.86,401.49 583.14,399.89 586.41,398.49 589.68,397.13 592.96,395.62 596.23,393.89 599.51,392.15 602.78,390.67 606.05,389.87 609.33,389.12 612.60,388.24 615.88,387.53 619.15,386.64 622.42,384.51 625.70,381.77 628.97,378.62 632.25,375.39 635.52,372.21 638.80,369.22 642.07,366.90 645.34,365.06 648.62,364.09 651.89,363.70 655.17,363.75 658.44,363.91 661.71,364.11 664.99,364.70 668.26,365.83 671.54,366.88 674.81,368.13 678.08,369.57 681.36,370.84 684.63,371.81 687.91,372.36 691.18,372.64 694.46,372.71 697.73,372.59 701.00,372.25 704.28,371.61 707.55,370.71 710.83,369.84 714.10,368.86 717.37,368.12 720.65,367.90 723.92,367.99 727.20,368.29 730.47,368.75 733.75,369.46 737.02,370.11 740.29,370.74 743.57,370.49 746.84,369.50 750.12,367.89 753.39,365.22 756.66,362.35 759.94,359.77 763.21,357.21 766.49,355.70 769.76,355.10 773.03,355.03 776.31,355.40 779.58,355.73 782.86,355.51 786.13,354.42 789.41,353.13 792.68,351.80 795.95,350.79 799.23,348.59 802.50,344.14 805.78,336.79 809.05,327.86 812.32,319.39 815.60,311.62 818.87,306.11 822.15,302.33 825.42,301.22 828.69,302.28 831.97,304.82 835.24,308.16 838.52,312.04 841.79,315.93 845.07,320.10 848.34,324.39 851.61,328.72 854.89,333.29 858.16,338.38 861.44,344.68 864.71,351.45 867.98,358.29 871.26,364.90 874.53,370.82 877.81,375.84 881.08,379.93 884.36,383.63 887.63,386.33 890.90,388.31 894.18,389.74 897.45,390.25 900.73,390.18 904.00,389.50" />
<text x="754.00" y="290.00" font-size="13" font-family="Arial" fill="#1f77b4" text-anchor="start">MACD</text>
<text x="818.00" y="290.00" font-size="13" font-family="Arial" fill="#ff7f0e" text-anchor="start">Signal</text>
<line x1="56" y1="624" x2="904" y2="624" stroke="#cbd2d9" />
<line x1="56" y1="484" x2="56" y2="624" stroke="#cbd2d9" />
<text x="16.00" y="476.00" font-size="12" font-family="Arial" fill="#52606d" text-anchor="start">KD</text>
<line x1="56" y1="624.00" x2="904" y2="624.00" stroke="#edf2f7" />
<line x1="52" y1="624.00" x2="56" y2="624.00" stroke="#9fb3c8" />
<text x="48.00" y="628.00" font-size="11" font-family="Arial" fill="#52606d" text-anchor="end">-5.00</text>
<line x1="56" y1="577.33" x2="904" y2="577.33" stroke="#edf2f7" />
<line x1="52" y1="577.33" x2="56" y2="577.33" stroke="#9fb3c8" />
<text x="48.00" y="581.33" font-size="11" font-family="Arial" fill="#52606d" text-anchor="end">31.7</text>
<line x1="56" y1="530.67" x2="904" y2="530.67" stroke="#edf2f7" />
<line x1="52" y1="530.67" x2="56" y2="530.67" stroke="#9fb3c8" />
<text x="48.00" y="534.67" font-size="11" font-family="Arial" fill="#52606d" text-anchor="end">68.3</text>
<line x1="56" y1="484.00" x2="904" y2="484.00" stroke="#edf2f7" />
<line x1="52" y1="484.00" x2="56" y2="484.00" stroke="#9fb3c8" />
<text x="48.00" y="488.00" font-size="11" font-family="Arial" fill="#52606d" text-anchor="end">105</text>
<line x1="56.00" y1="624" x2="56.00" y2="628" stroke="#9fb3c8" />
<text x="56.00" y="642.00" font-size="11" font-family="Arial" fill="#52606d" text-anchor="middle">06/20</text>
<line x1="226.25" y1="624" x2="226.25" y2="628" stroke="#9fb3c8" />
<text x="226.25" y="642.00" font-size="11" font-family="Arial" fill="#52606d" text-anchor="middle">09/03</text>
<line x1="396.51" y1="624" x2="396.51" y2="628" stroke="#9fb3c8" />
<text x="396.51" y="642.00" font-size="11" font-family="Arial" fill="#52606d" text-anchor="middle">11/20</text>
<line x1="563.49" y1="624" x2="563.49" y2="628" stroke="#9fb3c8" />
<text x="563.49" y="642.00" font-size="11" font-family="Arial" fill="#52606d" text-anchor="middle">02/03</text>
<line x1="733.75" y1="624" x2="733.75" y2="628" stroke="#9fb3c8" />
<text x="733.75" y="642.00" font-size="11" font-family="Arial" fill="#52606d" text-anchor="middle">04/30</text>
<line x1="904.00" y1="624" x2="904.00" y2="628" stroke="#9fb3c8" />
<text x="904.00" y="642.00" font-size="11" font-family="Arial" fill="#52606d" text-anchor="middle">07/15</text>
<line x1="56" y1="592.18" x2="904" y2="592.18" stroke="#f0b429" stroke-dasharray="5 5" />
<text x="912.00" y="596.18" font-size="10" font-family="Arial" fill="#8d2b0b" text-anchor="start">20.0</text>
<line x1="56" y1="515.82" x2="904" y2="515.82" stroke="#f0b429" stroke-dasharray="5 5" />
<text x="912.00" y="519.82" font-size="10" font-family="Arial" fill="#8d2b0b" text-anchor="start">80.0</text>
<polyline fill="none" stroke="#2ca02c" stroke-width="2" points="82.19,578.86 85.47,603.55 88.74,621.50 92.02,633.02 95.29,657.17 98.56,666.75 101.84,672.14 105.11,675.74 108.39,689.10 111.66,689.04 114.93,717.50 118.21,723.81 121.48,729.67 124.76,731.92 128.03,757.26 131.31,750.22 134.58,731.18 137.85,703.01 141.13,675.31 144.40,667.82 147.68,660.83 150.95,647.16 154.22,635.20 157.50,623.50 160.77,621.36 164.05,621.97 167.32,625.99 170.59,644.63 173.87,665.03 177.14,678.93 180.42,676.90 183.69,681.43 186.97,683.80 190.24,685.38 193.51,687.27 196.79,694.47 200.06,701.79 203.34,705.23 206.61,713.65 209.88,728.12 213.16,747.20 216.43,761.12 219.71,771.22 222.98,774.10 226.25,766.82 229.53,743.57 232.80,713.13 236.08,691.55 239.35,661.53 242.63,638.06 245.90,615.66 249.17,595.07 252.45,588.54 255.72,590.80 259.00,602.75 262.27,611.28 265.54,626.30 268.82,640.09 272.09,655.70 275.37,666.10 278.64,669.54 281.92,697.12 285.19,733.86 288.46,750.37 291.74,748.62 295.01,745.85 298.29,734.44 301.56,722.05 304.83,731.96 308.11,711.98 311.38,699.02 314.66,695.30 317.93,692.01 321.20,689.82 324.48,687.54 327.75,681.95 331.03,671.72 334.30,665.71 337.58,658.00 340.85,659.32 344.12,659.81 347.40,663.37 350.67,679.42 353.95,720.83 357.22,745.36 360.49,724.73 363.77,710.97 367.04,710.95 370.32,710.31 373.59,711.17 376.86,705.46 380.14,698.56 383.41,687.49 386.69,684.91 389.96,674.23 393.24,666.32 396.51,659.03 399.78,651.95 403.06,643.33 406.33,635.87 409.61,620.22 412.88,610.16 416.15,607.22 419.43,603.97 422.70,599.24 425.98,590.98 429.25,608.18 432.53,624.21 435.80,664.63 439.07,700.11 442.35,725.20 445.62,726.34 448.90,731.66 452.17,726.80 455.44,714.13 458.72,719.50 461.99,709.54 465.27,702.24 468.54,698.18 471.81,696.60 475.09,690.53 478.36,681.83 481.64,681.35 484.91,679.48 488.19,677.61 491.46,677.08 494.73,690.23 498.01,708.97 501.28,715.77 504.56,723.94 507.83,706.71 511.10,680.49 514.38,687.28 517.65,683.14 520.93,689.51 524.20,699.72 527.47,703.47 530.75,706.79 534.02,703.87 537.30,693.26 540.57,683.38 543.85,698.48 547.12,711.29 550.39,715.03 553.67,727.73 556.94,737.87 560.22,724.93 563.49,714.44 566.76,706.19 570.04,710.10 573.31,700.45 576.59,702.00 579.86,669.17 583.14,650.27 586.41,651.63 589.68,650.51 592.96,639.02 596.23,624.74 599.51,617.24 602.78,632.67 606.05,663.01 609.33,663.30 612.60,653.52 615.88,658.08 619.15,645.61 622.42,611.56 625.70,592.54 628.97,576.69 632.25,566.12 635.52,557.65 638.80,553.84 642.07,557.43 645.34,564.17 648.62,605.66 651.89,637.52 655.17,658.76 658.44,664.76 661.71,666.04 664.99,680.49 668.26,689.00 671.54,680.38 674.81,697.94 678.08,708.29 681.36,700.24 684.63,687.40 687.91,665.97 691.18,651.69 694.46,640.12 697.73,628.63 701.00,617.62 704.28,605.46 707.55,601.99 710.83,604.55 714.10,601.72 717.37,609.29 720.65,641.15 723.92,662.99 727.20,683.55 730.47,697.26 733.75,709.64 737.02,707.40 740.29,706.95 743.57,668.97 746.84,640.59 750.12,618.64 753.39,595.35 756.66,584.22 759.94,580.18 763.21,572.27 766.49,581.83 769.76,593.40 773.03,611.68 776.31,624.91 779.58,625.44 782.86,611.43 786.13,593.65 789.41,585.99 792.68,580.04 795.95,579.85 799.23,565.40 802.50,550.99 805.78,539.36 809.05,535.23 812.32,539.71 815.60,541.53 818.87,550.89 822.15,556.27 825.42,570.05 828.69,592.89 831.97,607.90 835.24,616.48 838.52,623.70 841.79,625.49 845.07,636.68 848.34,644.61 851.61,658.77 854.89,675.34 858.16,678.37 861.44,672.76 864.71,665.65 867.98,660.58 871.26,641.19 874.53,625.96 877.81,613.97 881.08,602.29 884.36,598.80 887.63,583.02 890.90,567.20 894.18,556.66 897.45,544.46 900.73,537.67 904.00,530.01" />
<polyline fill="none" stroke="#d62728" stroke-width="2" points="82.19,562.29 85.47,576.04 88.74,591.20 92.02,605.14 95.29,622.48 98.56,637.24 101.84,648.87 105.11,657.83 108.39,668.25 111.66,675.18 114.93,689.29 118.21,700.79 121.48,710.42 124.76,717.59 128.03,730.81 131.31,737.28 134.58,735.25 137.85,724.50 141.13,708.11 144.40,694.68 147.68,683.39 150.95,671.32 154.22,659.28 157.50,647.35 160.77,638.69 164.05,633.11 167.32,630.74 170.59,635.37 173.87,645.25 177.14,656.48 180.42,663.29 183.69,669.33 186.97,674.16 190.24,677.90 193.51,681.02 196.79,685.50 200.06,690.93 203.34,695.70 206.61,701.68 209.88,710.49 213.16,722.73 216.43,735.53 219.71,747.43 222.98,756.32 226.25,759.82 229.53,754.40 232.80,740.64 236.08,724.28 239.35,703.36 242.63,681.60 245.90,659.62 249.17,638.10 252.45,621.58 255.72,611.32 259.00,608.46 262.27,609.40 265.54,615.04 268.82,623.39 272.09,634.16 275.37,644.80 278.64,653.05 281.92,667.74 285.19,689.78 288.46,709.98 291.74,722.86 295.01,730.52 298.29,731.83 301.56,728.57 304.83,729.70 308.11,723.79 311.38,715.54 314.66,708.79 317.93,703.20 321.20,698.74 324.48,695.00 327.75,690.65 331.03,684.34 334.30,678.13 337.58,671.42 340.85,667.39 344.12,664.86 347.40,664.36 350.67,669.38 353.95,686.53 357.22,706.14 360.49,712.34 363.77,711.88 367.04,711.57 370.32,711.15 373.59,711.16 376.86,709.26 380.14,705.69 383.41,699.62 386.69,694.72 389.96,687.89 393.24,680.70 396.51,673.48 399.78,666.30 403.06,658.64 406.33,651.05 409.61,640.78 412.88,630.57 416.15,622.79 419.43,616.52 422.70,610.76 425.98,604.17 429.25,605.50 432.53,611.74 435.80,629.37 439.07,652.95 442.35,677.03 445.62,693.47 448.90,706.20 452.17,713.07 455.44,713.42 458.72,715.45 461.99,713.48 465.27,709.73 468.54,705.88 471.81,702.79 475.09,698.70 478.36,693.08 481.64,689.17 484.91,685.94 488.19,683.16 491.46,681.13 494.73,684.17 498.01,692.44 501.28,700.21 504.56,708.12 507.83,707.65 511.10,698.60 514.38,694.82 517.65,690.93 520.93,690.46 524.20,693.54 527.47,696.85 530.75,700.16 534.02,701.40 537.30,698.68 540.57,693.58 543.85,695.22 547.12,700.57 550.39,705.39 553.67,712.84 556.94,721.18 560.22,722.43 563.49,719.77 566.76,715.24 570.04,713.53 573.31,709.17 576.59,706.78 579.86,694.24 583.14,679.59 586.41,670.27 589.68,663.68 592.96,655.46 596.23,645.22 599.51,635.89 602.78,634.82 606.05,644.22 609.33,650.58 612.60,651.56 615.88,653.74 619.15,651.03 622.42,637.87 625.70,622.76 628.97,607.40 632.25,593.64 635.52,581.64 638.80,572.38 642.07,567.39 645.34,566.32 648.62,579.43 651.89,598.80 655.17,618.78 658.44,634.11 661.71,644.75 664.99,656.66 668.26,667.44 671.54,671.75 674.81,680.48 678.08,689.75 681.36,693.25 684.63,691.30 687.91,682.86 691.18,672.47 694.46,661.69 697.73,650.67 701.00,639.65 704.28,628.25 707.55,619.50 710.83,614.52 714.10,610.25 717.37,609.93 720.65,620.34 723.92,634.55 727.20,650.89 730.47,666.35 733.75,680.78 737.02,689.65 740.29,695.42 743.57,686.60 746.84,671.26 750.12,653.72 753.39,634.26 756.66,617.58 759.94,605.11 763.21,594.16 766.49,590.05 769.76,591.17 773.03,598.01 776.31,606.97 779.58,613.13 782.86,612.56 786.13,606.26 789.41,599.50 792.68,593.01 795.95,588.63 799.23,580.88 802.50,570.92 805.78,560.40 809.05,552.01 812.32,547.91 815.60,545.78 818.87,547.49 822.15,550.41 825.42,556.96 828.69,568.93 831.97,581.92 835.24,593.44 838.52,603.53 841.79,610.85 845.07,619.46 848.34,627.84 851.61,638.15 854.89,650.55 858.16,659.82 861.44,664.14 864.71,664.64 867.98,663.29 871.26,655.92 874.53,645.94 877.81,635.28 881.08,624.28 884.36,615.79 887.63,604.86 890.90,592.31 894.18,580.43 897.45,568.44 900.73,558.18 904.00,548.79" />
<text x="824.00" y="502.00" font-size="13" font-family="Arial" fill="#2ca02c" text-anchor="start">K</text>
<text x="860.00" y="502.00" font-size="13" font-family="Arial" fill="#d62728" text-anchor="start">D</text>
</svg>