<svg xmlns="http://www.w3.org/2000/svg" width="960" height="680" viewBox="0 0 960 680"><rect width="100%" height="100%" fill="white" />
<text x="56.00" y="32.00" font-size="20" font-family="Arial" fill="#1f2933" text-anchor="start">華碩(2357) Technical Indicators</text>
<line x1="56" y1="220" x2="904" y2="220" stroke="#cbd2d9" />
<line x1="56" y1="58" x2="56" y2="220" stroke="#cbd2d9" />
<text x="16.00" y="50.00" font-size="12" font-family="Arial" fill="#52606d" text-anchor="start">RSI14</text>
<line x1="56" y1="220.00" x2="904" y2="220.00" stroke="#edf2f7" />
<line x1="52" y1="220.00" x2="56" y2="220.00" stroke="#9fb3c8" />
<text x="48.00" y="224.00" font-size="11" font-family="Arial" fill="#52606d" text-anchor="end">-5.00</text>
<line x1="56" y1="166.00" x2="904" y2="166.00" stroke="#edf2f7" />
<line x1="52" y1="166.00" x2="56" y2="166.00" stroke="#9fb3c8" />
<text x="48.00" y="170.00" font-size="11" font-family="Arial" fill="#52606d" text-anchor="end">31.7</text>
<line x1="56" y1="112.00" x2="904" y2="112.00" stroke="#edf2f7" />
<line x1="52" y1="112.00" x2="56" y2="112.00" stroke="#9fb3c8" />
<text x="48.00" y="116.00" font-size="11" font-family="Arial" fill="#52606d" text-anchor="end">68.3</text>
<line x1="56" y1="58.00" x2="904" y2="58.00" stroke="#edf2f7" />
<line x1="52" y1="58.00" x2="56" y2="58.00" stroke="#9fb3c8" />
<text x="48.00" y="62.00" font-size="11" font-family="Arial" fill="#52606d" text-anchor="end">105</text>
<line x1="56" y1="168.45" x2="904" y2="168.45" stroke="#f0b429" stroke-dasharray="5 5" />
<text x="912.00" y="172.45" font-size="10" font-family="Arial" fill="#8d2b0b" text-anchor="start">30.0</text>
<line x1="56" y1="109.55" x2="904" y2="109.55" stroke="#f0b429" stroke-dasharray="5 5" />
<text x="912.00" y="113.55" font-size="10" font-family="Arial" fill="#8d2b0b" text-anchor="start">70.0</text>
<polyline fill="none" stroke="#1f77b4" stroke-width="2" points="101.84,175.77 105.11,169.31 108.39,170.78 111.66,167.07 114.93,167.41 118.21,166.59 121.48,172.49 124.76,160.86 128.03,154.60 131.31,149.33 134.58,144.90 137.85,150.45 141.13,149.11 144.40,143.16 147.68,141.22 150.95,134.44 154.22,132.10 157.50,130.91 160.77,132.45 164.05,144.87 167.32,150.09 170.59,156.77 173.87,155.97 177.14,160.42 180.42,159.53 183.69,159.53 186.97,163.75 190.24,162.71 193.51,165.40 196.79,153.17 200.06,148.60 203.34,150.69 206.61,151.40 209.88,152.88 213.16,161.55 216.43,161.55 219.71,154.62 222.98,144.40 226.25,135.72 229.53,135.72 232.80,123.81 236.08,119.50 239.35,108.28 242.63,102.51 245.90,115.67 249.17,121.16 252.45,129.82 255.72,126.20 259.00,134.32 262.27,126.12 265.54,126.12 268.82,126.12 272.09,122.92 275.37,132.07 278.64,136.92 281.92,133.75 285.19,128.91 288.46,128.31 291.74,124.69 295.01,124.08 298.29,136.63 301.56,124.58 304.83,131.93 308.11,134.05 311.38,133.40 314.66,133.40 317.93,132.68 321.20,129.01 324.48,123.54 327.75,124.56 331.03,114.82 334.30,119.95 337.58,119.95 340.85,119.95 344.12,132.55 347.40,138.01 350.67,140.65 353.95,146.53 357.22,146.53 360.49,158.90 363.77,159.53 367.04,160.84 370.32,168.94 373.59,175.24 376.86,175.24 380.14,183.30 383.41,192.74 386.69,189.99 389.96,183.56 393.24,183.56 396.51,172.57 399.78,168.27 403.06,151.86 406.33,152.33 409.61,156.97 412.88,155.48 416.15,152.42 419.43,145.80 422.70,150.86 425.98,149.34 429.25,153.31 432.53,156.57 435.80,157.11 439.07,158.81 442.35,161.07 445.62,163.30 448.90,161.07 452.17,166.19 455.44,176.16 458.72,177.57 461.99,177.57 465.27,179.08 468.54,179.84 471.81,170.86 475.09,174.53 478.36,175.84 481.64,165.93 484.91,158.08 488.19,163.40 491.46,167.12 494.73,162.60 498.01,169.33 501.28,169.80 504.56,152.28 507.83,166.12 511.10,157.95 514.38,161.10 517.65,165.68 520.93,165.68 524.20,165.68 527.47,169.59 530.75,160.15 534.02,156.59 537.30,161.74 540.57,162.23 543.85,156.47 547.12,158.22 550.39,164.16 553.67,160.59 556.94,159.04 560.22,157.95 563.49,157.95 566.76,151.02 570.04,154.90 573.31,133.63 576.59,136.18 579.86,146.85 583.14,141.92 586.41,134.42 589.68,129.67 592.96,131.39 596.23,138.80 599.51,152.58 602.78,139.77 606.05,134.31 609.33,140.63 612.60,132.47 615.88,111.90 619.15,113.75 622.42,111.32 625.70,111.32 628.97,110.03 632.25,109.69 635.52,121.52 638.80,119.84 642.07,132.19 645.34,131.19 648.62,131.19 651.89,126.45 655.17,124.92 658.44,135.39 661.71,143.14 664.99,133.02 668.26,139.82 671.54,142.51 674.81,135.79 678.08,132.64 681.36,127.63 684.63,127.63 687.91,126.57 691.18,124.41 694.46,121.74 697.73,116.72 701.00,113.93 704.28,119.39 707.55,114.51 710.83,123.99 714.10,133.70 717.37,131.89 720.65,131.89 723.92,131.89 727.20,137.67 730.47,130.49 733.75,131.36 737.02,111.06 740.29,107.48 743.57,103.90 746.84,95.03 750.12,104.70 753.39,111.58 756.66,107.00 759.94,128.34 763.21,131.14 766.49,128.51 769.76,129.53 773.03,123.44 776.31,115.17 779.58,108.32 782.86,113.74 786.13,113.21 789.41,118.27 792.68,102.61 795.95,92.93 799.23,86.48 802.50,85.80 805.78,99.73 809.05,98.92 812.32,116.15 815.60,115.28 818.87,129.18 822.15,131.94 825.42,131.74 828.69,130.30 831.97,130.57 835.24,127.87 838.52,132.06 841.79,132.37 845.07,133.34 848.34,137.88 851.61,144.77 854.89,156.20 858.16,155.50 861.44,156.20 864.71,156.46 867.98,152.12 871.26,148.70 874.53,146.55 877.81,152.26 881.08,142.16 884.36,143.25 887.63,143.25 890.90,134.96 894.18,135.40 897.45,131.74 900.73,130.51 904.00,137.93" />
<text x="808.00" y="76.00" font-size="13" font-family="Arial" fill="#1f77b4" text-anchor="start">RSI14</text>
<line x1="56" y1="432" x2="904" y2="432" stroke="#cbd2d9" />
<line x1="56" y1="272" x2="56" y2="432" stroke="#cbd2d9" />
<text x="16.00" y="264.00" font-size="12" font-family="Arial" fill="#52606d" text-anchor="start">MACD</text>
<line x1="56" y1="432.00" x2="904" y2="432.00" stroke="#edf2f7" />
<line x1="52" y1="432.00" x2="56" y2="432.00" stroke="#9fb3c8" />
<text x="48.00" y="436.00" font-size="11" font-family="Arial" fill="#52606d" text-anchor="end">-33.5</text>
<line x1="56" y1="378.67" x2="904" y2="378.67" stroke="#edf2f7" />
<line x1="52" y1="378.67" x2="56" y2="378.67" stroke="#9fb3c8" />
<text x="48.00" y="382.67" font-size="11" font-family="Arial" fill="#52606d" text-anchor="end">2.79</text>
<line x1="56" y1="325.33" x2="904" y2="325.33" stroke="#edf2f7" />
<line x1="52" y1="325.33" x2="56" y2="325.33" stroke="#9fb3c8" />
<text x="48.00" y="329.33" font-size="11" font-family="Arial" fill="#52606d" text-anchor="end">39.0</text>
<line x1="56" y1="272.00" x2="904" y2="272.00" stroke="#edf2f7" />
<line x1="52" y1="272.00" x2="56" y2="272.00" stroke="#9fb3c8" />
<text x="48.00" y="276.00" font-size="11" font-family="Arial" fill="#52606d" text-anchor="end">75.3</text>
<line x1="56" y1="382.77" x2="904" y2="382.77" stroke="#9fb3c8" stroke-dasharray="4 4" />
<rect x="136.71" y="382.77" width="2.28" height="0.00" fill="#2f9e44" opacity="0.55" />
<rect x="139.99" y="381.65" width="2.28" height="1.12" fill="#2f9e44" opacity="0.55" />
<rect x="143.26" y="380.13" width="2.28" height="2.64" fill="#2f9e44" opacity="0.55" />
<rect x="146.53" y="378.98" width="2.28" height="3.79" fill="#2f9e44" opacity="0.55" />
<rect x="149.81" y="377.43" width="2.28" height="5.34" fill="#2f9e44" opacity="0.55" />
<rect x="153.08" y="376.33" width="2.28" height="6.44" fill="#2f9e44" opacity="0.55" />
<rect x="156.36" y="375.76" width="2.28" height="7.01" fill="#2f9e44" opacity="0.55" />
<rect x="159.63" y="375.93" width="2.28" height="6.84" fill="#2f9e44" opacity="0.55" />
<rect x="162.90" y="377.98" width="2.28" height="4.79" fill="#2f9e44" opacity="0.55" />
<rect x="166.18" y="380.31" width="2.28" height="2.46" fill="#2f9e44" opacity="0.55" />
<rect x="169.45" y="382.77" width="2.28" height="0.30" fill="#d64545" opacity="0.55" />
<rect x="172.73" y="382.77" width="2.28" height="1.93" fill="#d64545" opacity="0.55" />
<rect x="176.00" y="382.77" width="2.28" height="3.65" fill="#d64545" opacity="0.55" />
<rect x="179.28" y="382.77" width="2.28" height="4.45" fill="#d64545" opacity="0.55" />
<rect x="182.55" y="382.77" width="2.28" height="4.70" fill="#d64545" opacity="0.55" />
<rect x="185.82" y="382.77" width="2.28" height="5.30" fill="#d64545" opacity="0.55" />
<rect x="189.10" y="382.77" width="2.28" height="5.27" fill="#d64545" opacity="0.55" />
<rect x="192.37" y="382.77" width="2.28" height="5.37" fill="#d64545" opacity="0.55" />
<rect x="195.65" y="382.77" width="2.28" height="4.03" fill="#d64545" opacity="0.55" />
<rect x="198.92" y="382.77" width="2.28" height="2.48" fill="#d64545" opacity="0.55" />
<rect x="202.19" y="382.77" width="2.28" height="1.56" fill="#d64545" opacity="0.55" />
<rect x="205.47" y="382.77" width="2.28" height="0.91" fill="#d64545" opacity="0.55" />
<rect x="208.74" y="382.77" width="2.28" height="0.56" fill="#d64545" opacity="0.55" />
<rect x="212.02" y="382.77" width="2.28" height="1.37" fill="#d64545" opacity="0.55" />
<rect x="215.29" y="382.77" width="2.28" height="1.73" fill="#d64545" opacity="0.55" />
<rect x="218.57" y="382.77" width="2.28" height="1.24" fill="#d64545" opacity="0.55" />
<rect x="221.84" y="382.67" width="2.28" height="0.10" fill="#2f9e44" opacity="0.55" />
<rect x="225.11" y="380.86" width="2.28" height="1.91" fill="#2f9e44" opacity="0.55" />
<rect x="228.39" y="379.74" width="2.28" height="3.03" fill="#2f9e44" opacity="0.55" />
<rect x="231.66" y="377.70" width="2.28" height="5.07" fill="#2f9e44" opacity="0.55" />
<rect x="234.94" y="376.01" width="2.28" height="6.76" fill="#2f9e44" opacity="0.55" />
<rect x="238.21" y="373.22" width="2.28" height="9.55" fill="#2f9e44" opacity="0.55" />
<rect x="241.48" y="370.52" width="2.28" height="12.25" fill="#2f9e44" opacity="0.55" />
<rect x="244.76" y="370.80" width="2.28" height="11.97" fill="#2f9e44" opacity="0.55" />
<rect x="248.03" y="372.24" width="2.28" height="10.53" fill="#2f9e44" opacity="0.55" />
<rect x="251.31" y="374.81" width="2.28" height="7.96" fill="#2f9e44" opacity="0.55" />
<rect x="254.58" y="376.28" width="2.28" height="6.49" fill="#2f9e44" opacity="0.55" />
<rect x="257.85" y="378.69" width="2.28" height="4.08" fill="#2f9e44" opacity="0.55" />
<rect x="261.13" y="379.08" width="2.28" height="3.69" fill="#2f9e44" opacity="0.55" />
<rect x="264.40" y="379.63" width="2.28" height="3.14" fill="#2f9e44" opacity="0.55" />
<rect x="267.68" y="380.24" width="2.28" height="2.53" fill="#2f9e44" opacity="0.55" />
<rect x="270.95" y="380.34" width="2.28" height="2.43" fill="#2f9e44" opacity="0.55" />
<rect x="274.23" y="381.70" width="2.28" height="1.07" fill="#2f9e44" opacity="0.55" />
<rect x="277.50" y="382.77" width="2.28" height="0.58" fill="#d64545" opacity="0.55" />
<rect x="280.77" y="382.77" width="2.28" height="1.26" fill="#d64545" opacity="0.55" />
<rect x="284.05" y="382.77" width="2.28" height="1.03" fill="#d64545" opacity="0.55" />
<rect x="287.32" y="382.77" width="2.28" height="0.86" fill="#d64545" opacity="0.55" />
<rect x="290.60" y="382.77" width="2.28" height="0.29" fill="#d64545" opacity="0.55" />
<rect x="293.87" y="382.71" width="2.28" height="0.06" fill="#2f9e44" opacity="0.55" />
<rect x="297.14" y="382.77" width="2.28" height="1.16" fill="#d64545" opacity="0.55" />
<rect x="300.42" y="382.77" width="2.28" height="0.20" fill="#d64545" opacity="0.55" />
<rect x="303.69" y="382.77" width="2.28" height="0.59" fill="#d64545" opacity="0.55" />
<rect x="306.97" y="382.77" width="2.28" height="1.17" fill="#d64545" opacity="0.55" />
<rect x="310.24" y="382.77" width="2.28" height="1.48" fill="#d64545" opacity="0.55" />
<rect x="313.51" y="382.77" width="2.28" height="1.71" fill="#d64545" opacity="0.55" />
<rect x="316.79" y="382.77" width="2.28" height="1.76" fill="#d64545" opacity="0.55" />
<rect x="320.06" y="382.77" width="2.28" height="1.36" fill="#d64545" opacity="0.55" />
<rect x="323.34" y="382.77" width="2.28" height="0.42" fill="#d64545" opacity="0.55" />
<rect x="326.61" y="382.75" width="2.28" height="0.02" fill="#2f9e44" opacity="0.55" />
<rect x="329.89" y="381.16" width="2.28" height="1.61" fill="#2f9e44" opacity="0.55" />
<rect x="333.16" y="380.78" width="2.28" height="1.99" fill="#2f9e44" opacity="0.55" />
<rect x="336.43" y="380.74" width="2.28" height="2.03" fill="#2f9e44" opacity="0.55" />
<rect x="339.71" y="380.92" width="2.28" height="1.85" fill="#2f9e44" opacity="0.55" />
<rect x="342.98" y="382.30" width="2.28" height="0.47" fill="#2f9e44" opacity="0.55" />
<rect x="346.26" y="382.77" width="2.28" height="1.05" fill="#d64545" opacity="0.55" />
<rect x="349.53" y="382.77" width="2.28" height="2.32" fill="#d64545" opacity="0.55" />
<rect x="352.80" y="382.77" width="2.28" height="3.71" fill="#d64545" opacity="0.55" />
<rect x="356.08" y="382.77" width="2.28" height="4.48" fill="#d64545" opacity="0.55" />
<rect x="359.35" y="382.77" width="2.28" height="6.31" fill="#d64545" opacity="0.55" />
<rect x="362.63" y="382.77" width="2.28" height="7.28" fill="#d64545" opacity="0.55" />
<rect x="365.90" y="382.77" width="2.28" height="7.73" fill="#d64545" opacity="0.55" />
<rect x="369.18" y="382.77" width="2.28" height="8.87" fill="#d64545" opacity="0.55" />
<rect x="372.45" y="382.77" width="2.28" height="10.38" fill="#d64545" opacity="0.55" />
<rect x="375.72" y="382.77" width="2.28" height="10.76" fill="#d64545" opacity="0.55" />
<rect x="379.00" y="382.77" width="2.28" height="12.43" fill="#d64545" opacity="0.55" />
<rect x="382.27" y="382.77" width="2.28" height="16.91" fill="#d64545" opacity="0.55" />
<rect x="385.55" y="382.77" width="2.28" height="18.46" fill="#d64545" opacity="0.55" />
<rect x="388.82" y="382.77" width="2.28" height="17.70" fill="#d64545" opacity="0.55" />
<rect x="392.09" y="382.77" width="2.28" height="16.12" fill="#d64545" opacity="0.55" />
<rect x="395.37" y="382.77" width="2.28" height="12.99" fill="#d64545" opacity="0.55" />
<rect x="398.64" y="382.77" width="2.28" height="9.66" fill="#d64545" opacity="0.55" />
<rect x="401.92" y="382.77" width="2.28" height="4.85" fill="#d64545" opacity="0.55" />
<rect x="405.19" y="382.77" width="2.28" height="1.38" fill="#d64545" opacity="0.55" />
<rect x="408.46" y="382.50" width="2.28" height="0.27" fill="#2f9e44" opacity="0.55" />
<rect x="411.74" y="381.02" width="2.28" height="1.75" fill="#2f9e44" opacity="0.55" />
<rect x="415.01" y="379.54" width="2.28" height="3.23" fill="#2f9e44" opacity="0.55" />
<rect x="418.29" y="377.71" width="2.28" height="5.06" fill="#2f9e44" opacity="0.55" />
<rect x="421.56" y="377.36" width="2.28" height="5.41" fill="#2f9e44" opacity="0.55" />
<rect x="424.84" y="377.00" width="2.28" height="5.77" fill="#2f9e44" opacity="0.55" />
<rect x="428.11" y="377.45" width="2.28" height="5.32" fill="#2f9e44" opacity="0.55" />
<rect x="431.38" y="378.31" width="2.28" height="4.46" fill="#2f9e44" opacity="0.55" />
<rect x="434.66" y="378.96" width="2.28" height="3.81" fill="#2f9e44" opacity="0.55" />
<rect x="437.93" y="379.62" width="2.28" height="3.15" fill="#2f9e44" opacity="0.55" />
<rect x="441.21" y="380.35" width="2.28" height="2.42" fill="#2f9e44" opacity="0.55" />
<rect x="444.48" y="381.10" width="2.28" height="1.67" fill="#2f9e44" opacity="0.55" />
<rect x="447.75" y="381.28" width="2.28" height="1.49" fill="#2f9e44" opacity="0.55" />
<rect x="451.03" y="382.08" width="2.28" height="0.69" fill="#2f9e44" opacity="0.55" />
<rect x="454.30" y="382.77" width="2.28" height="1.69" fill="#d64545" opacity="0.55" />
<rect x="457.58" y="382.77" width="2.28" height="3.26" fill="#d64545" opacity="0.55" />
<rect x="460.85" y="382.77" width="2.28" height="3.87" fill="#d64545" opacity="0.55" />
<rect x="464.12" y="382.77" width="2.28" height="4.19" fill="#d64545" opacity="0.55" />
<rect x="467.40" y="382.77" width="2.28" height="4.14" fill="#d64545" opacity="0.55" />
<rect x="470.67" y="382.77" width="2.28" height="3.04" fill="#d64545" opacity="0.55" />
<rect x="473.95" y="382.77" width="2.28" height="2.67" fill="#d64545" opacity="0.55" />
<rect x="477.22" y="382.77" width="2.28" height="2.32" fill="#d64545" opacity="0.55" />
<rect x="480.50" y="382.77" width="2.28" height="1.03" fill="#d64545" opacity="0.55" />
<rect x="483.77" y="382.07" width="2.28" height="0.70" fill="#2f9e44" opacity="0.55" />
<rect x="487.04" y="381.58" width="2.28" height="1.19" fill="#2f9e44" opacity="0.55" />
<rect x="490.32" y="381.70" width="2.28" height="1.07" fill="#2f9e44" opacity="0.55" />
<rect x="493.59" y="381.25" width="2.28" height="1.52" fill="#2f9e44" opacity="0.55" />
<rect x="496.87" y="381.95" width="2.28" height="0.82" fill="#2f9e44" opacity="0.55" />
<rect x="500.14" y="382.29" width="2.28" height="0.48" fill="#2f9e44" opacity="0.55" />
<rect x="503.41" y="380.79" width="2.28" height="1.98" fill="#2f9e44" opacity="0.55" />
<rect x="506.69" y="382.20" width="2.28" height="0.57" fill="#2f9e44" opacity="0.55" />
<rect x="509.96" y="382.00" width="2.28" height="0.77" fill="#2f9e44" opacity="0.55" />
<rect x="513.24" y="382.31" width="2.28" height="0.46" fill="#2f9e44" opacity="0.55" />
<rect x="516.51" y="382.77" width="2.28" height="0.50" fill="#d64545" opacity="0.55" />
<rect x="519.79" y="382.77" width="2.28" height="0.85" fill="#d64545" opacity="0.55" />
<rect x="523.06" y="382.77" width="2.28" height="0.80" fill="#d64545" opacity="0.55" />
<rect x="526.33" y="382.77" width="2.28" height="1.29" fill="#d64545" opacity="0.55" />
<rect x="529.61" y="382.77" width="2.28" height="0.41" fill="#d64545" opacity="0.55" />
<rect x="532.88" y="382.03" width="2.28" height="0.74" fill="#2f9e44" opacity="0.55" />
<rect x="536.16" y="381.99" width="2.28" height="0.78" fill="#2f9e44" opacity="0.55" />
<rect x="539.43" y="381.87" width="2.28" height="0.90" fill="#2f9e44" opacity="0.55" />
<rect x="542.70" y="381.08" width="2.28" height="1.69" fill="#2f9e44" opacity="0.55" />
<rect x="545.98" y="380.71" width="2.28" height="2.06" fill="#2f9e44" opacity="0.55" />
<rect x="549.25" y="381.34" width="2.28" height="1.43" fill="#2f9e44" opacity="0.55" />
<rect x="552.53" y="381.29" width="2.28" height="1.48" fill="#2f9e44" opacity="0.55" />
<rect x="555.80" y="380.99" width="2.28" height="1.78" fill="#2f9e44" opacity="0.55" />
<rect x="559.07" y="380.59" width="2.28" height="2.18" fill="#2f9e44" opacity="0.55" />
<rect x="562.35" y="380.26" width="2.28" height="2.51" fill="#2f9e44" opacity="0.55" />
<rect x="565.62" y="379.45" width="2.28" height="3.32" fill="#2f9e44" opacity="0.55" />
<rect x="568.90" y="379.37" width="2.28" height="3.40" fill="#2f9e44" opacity="0.55" />
<rect x="572.17" y="377.28" width="2.28" height="5.49" fill="#2f9e44" opacity="0.55" />
<rect x="575.45" y="376.36" width="2.28" height="6.41" fill="#2f9e44" opacity="0.55" />
<rect x="578.72" y="377.19" width="2.28" height="5.58" fill="#2f9e44" opacity="0.55" />
<rect x="581.99" y="377.34" width="2.28" height="5.43" fill="#2f9e44" opacity="0.55" />
<rect x="585.27" y="376.70" width="2.28" height="6.07" fill="#2f9e44" opacity="0.55" />
<rect x="588.54" y="375.88" width="2.28" height="6.89" fill="#2f9e44" opacity="0.55" />
<rect x="591.82" y="375.81" width="2.28" height="6.96" fill="#2f9e44" opacity="0.55" />
<rect x="595.09" y="376.83" width="2.28" height="5.94" fill="#2f9e44" opacity="0.55" />
<rect x="598.36" y="379.57" width="2.28" height="3.20" fill="#2f9e44" opacity="0.55" />
<rect x="601.64" y="379.80" width="2.28" height="2.97" fill="#2f9e44" opacity="0.55" />
<rect x="604.91" y="379.25" width="2.28" height="3.52" fill="#2f9e44" opacity="0.55" />
<rect x="608.19" y="379.92" width="2.28" height="2.85" fill="#2f9e44" opacity="0.55" />
<rect x="611.46" y="379.21" width="2.28" height="3.56" fill="#2f9e44" opacity="0.55" />
<rect x="614.73" y="374.24" width="2.28" height="8.53" fill="#2f9e44" opacity="0.55" />
<rect x="618.01" y="371.82" width="2.28" height="10.95" fill="#2f9e44" opacity="0.55" />
<rect x="621.28" y="370.18" width="2.28" height="12.59" fill="#2f9e44" opacity="0.55" />
<rect x="624.56" y="369.85" width="2.28" height="12.92" fill="#2f9e44" opacity="0.55" />
<rect x="627.83" y="370.04" width="2.28" height="12.73" fill="#2f9e44" opacity="0.55" />
<rect x="631.11" y="370.83" width="2.28" height="11.94" fill="#2f9e44" opacity="0.55" />
<rect x="634.38" y="373.49" width="2.28" height="9.28" fill="#2f9e44" opacity="0.55" />
<rect x="637.65" y="375.43" width="2.28" height="7.34" fill="#2f9e44" opacity="0.55" />
<rect x="640.93" y="378.87" width="2.28" height="3.90" fill="#2f9e44" opacity="0.55" />
<rect x="644.20" y="381.23" width="2.28" height="1.54" fill="#2f9e44" opacity="0.55" />
<rect x="647.48" y="382.77" width="2.28" height="0.19" fill="#d64545" opacity="0.55" />
<rect x="650.75" y="382.77" width="2.28" height="0.64" fill="#d64545" opacity="0.55" />
<rect x="654.02" y="382.77" width="2.28" height="0.80" fill="#d64545" opacity="0.55" />
<rect x="657.30" y="382.77" width="2.28" height="2.35" fill="#d64545" opacity="0.55" />
<rect x="660.57" y="382.77" width="2.28" height="4.52" fill="#d64545" opacity="0.55" />
<rect x="663.85" y="382.77" width="2.28" height="4.20" fill="#d64545" opacity="0.55" />
<rect x="667.12" y="382.77" width="2.28" height="4.99" fill="#d64545" opacity="0.55" />
<rect x="670.40" y="382.77" width="2.28" height="5.79" fill="#d64545" opacity="0.55" />
<rect x="673.67" y="382.77" width="2.28" height="5.05" fill="#d64545" opacity="0.55" />
<rect x="676.94" y="382.77" width="2.28" height="3.91" fill="#d64545" opacity="0.55" />
<rect x="680.22" y="382.77" width="2.28" height="2.20" fill="#d64545" opacity="0.55" />
<rect x="683.49" y="382.77" width="2.28" height="1.11" fill="#d64545" opacity="0.55" />
<rect x="686.77" y="382.77" width="2.28" height="0.28" fill="#d64545" opacity="0.55" />
<rect x="690.04" y="382.26" width="2.28" height="0.51" fill="#2f9e44" opacity="0.55" />
<rect x="693.31" y="381.44" width="2.28" height="1.33" fill="#2f9e44" opacity="0.55" />
<rect x="696.59" y="380.21" width="2.28" height="2.56" fill="#2f9e44" opacity="0.55" />
<rect x="699.86" y="379.15" width="2.28" height="3.62" fill="#2f9e44" opacity="0.55" />
<rect x="703.14" y="379.31" width="2.28" height="3.46" fill="#2f9e44" opacity="0.55" />
<rect x="706.41" y="378.83" width="2.28" height="3.94" fill="#2f9e44" opacity="0.55" />
<rect x="709.68" y="379.83" width="2.28" height="2.94" fill="#2f9e44" opacity="0.55" />
<rect x="712.96" y="381.89" width="2.28" height="0.88" fill="#2f9e44" opacity="0.55" />
<rect x="716.23" y="382.77" width="2.28" height="0.33" fill="#d64545" opacity="0.55" />
<rect x="719.51" y="382.77" width="2.28" height="1.21" fill="#d64545" opacity="0.55" />
<rect x="722.78" y="382.77" width="2.28" height="1.83" fill="#d64545" opacity="0.55" />
<rect x="726.06" y="382.77" width="2.28" height="2.87" fill="#d64545" opacity="0.55" />
<rect x="729.33" y="382.77" width="2.28" height="2.60" fill="#d64545" opacity="0.55" />
<rect x="732.60" y="382.77" width="2.28" height="2.51" fill="#d64545" opacity="0.55" />
<rect x="735.88" y="381.75" width="2.28" height="1.02" fill="#2f9e44" opacity="0.55" />
<rect x="739.15" y="378.83" width="2.28" height="3.94" fill="#2f9e44" opacity="0.55" />
<rect x="742.43" y="376.35" width="2.28" height="6.42" fill="#2f9e44" opacity="0.55" />
<rect x="745.70" y="372.09" width="2.28" height="10.68" fill="#2f9e44" opacity="0.55" />
<rect x="748.97" y="371.29" width="2.28" height="11.48" fill="#2f9e44" opacity="0.55" />
<rect x="752.25" y="372.46" width="2.28" height="10.31" fill="#2f9e44" opacity="0.55" />
<rect x="755.52" y="372.53" width="2.28" height="10.24" fill="#2f9e44" opacity="0.55" />
<rect x="758.80" y="376.70" width="2.28" height="6.07" fill="#2f9e44" opacity="0.55" />
<rect x="762.07" y="380.40" width="2.28" height="2.37" fill="#2f9e44" opacity="0.55" />
<rect x="765.34" y="382.49" width="2.28" height="0.28" fill="#2f9e44" opacity="0.55" />
<rect x="768.62" y="382.77" width="2.28" height="1.47" fill="#d64545" opacity="0.55" />
<rect x="771.89" y="382.77" width="2.28" height="1.32" fill="#d64545" opacity="0.55" />
<rect x="775.17" y="381.89" width="2.28" height="0.88" fill="#2f9e44" opacity="0.55" />
<rect x="778.44" y="378.41" width="2.28" height="4.36" fill="#2f9e44" opacity="0.55" />
<rect x="781.72" y="377.61" width="2.28" height="5.16" fill="#2f9e44" opacity="0.55" />
<rect x="784.99" y="377.47" width="2.28" height="5.30" fill="#2f9e44" opacity="0.55" />
<rect x="788.26" y="378.73" width="2.28" height="4.04" fill="#2f9e44" opacity="0.55" />
<rect x="791.54" y="373.94" width="2.28" height="8.83" fill="#2f9e44" opacity="0.55" />
<rect x="794.81" y="365.00" width="2.28" height="17.77" fill="#2f9e44" opacity="0.55" />
<rect x="798.09" y="353.36" width="2.28" height="29.41" fill="#2f9e44" opacity="0.55" />
<rect x="801.36" y="347.05" width="2.28" height="35.72" fill="#2f9e44" opacity="0.55" />
<rect x="804.63" y="348.91" width="2.28" height="33.86" fill="#2f9e44" opacity="0.55" />
<rect x="807.91" y="351.72" width="2.28" height="31.05" fill="#2f9e44" opacity="0.55" />
<rect x="811.18" y="360.71" width="2.28" height="22.06" fill="#2f9e44" opacity="0.55" />
<rect x="814.46" y="367.66" width="2.28" height="15.11" fill="#2f9e44" opacity="0.55" />
<rect x="817.73" y="378.31" width="2.28" height="4.46" fill="#2f9e44" opacity="0.55" />
<rect x="821.01" y="382.77" width="2.28" height="4.26" fill="#d64545" opacity="0.55" />
<rect x="824.28" y="382.77" width="2.28" height="10.14" fill="#d64545" opacity="0.55" />
<rect x="827.55" y="382.77" width="2.28" height="13.39" fill="#d64545" opacity="0.55" />
<rect x="830.83" y="382.77" width="2.28" height="15.49" fill="#d64545" opacity="0.55" />
<rect x="834.10" y="382.77" width="2.28" height="15.58" fill="#d64545" opacity="0.55" />
<rect x="837.38" y="382.77" width="2.28" height="16.67" fill="#d64545" opacity="0.55" />
<rect x="840.65" y="382.77" width="2.28" height="17.14" fill="#d64545" opacity="0.55" />
<rect x="843.92" y="382.77" width="2.28" height="17.33" fill="#d64545" opacity="0.55" />
<rect x="847.20" y="382.77" width="2.28" height="18.27" fill="#d64545" opacity="0.55" />
<rect x="850.47" y="382.77" width="2.28" height="20.38" fill="#d64545" opacity="0.55" />
<rect x="853.75" y="382.77" width="2.28" height="25.19" fill="#d64545" opacity="0.55" />
<rect x="857.02" y="382.77" width="2.28" height="27.05" fill="#d64545" opacity="0.55" />
<rect x="860.29" y="382.77" width="2.28" height="27.36" fill="#d64545" opacity="0.55" />
<rect x="863.57" y="382.77" width="2.28" height="26.43" fill="#d64545" opacity="0.55" />
<rect x="866.84" y="382.77" width="2.28" height="23.68" fill="#d64545" opacity="0.55" />
<rect x="870.12" y="382.77" width="2.28" height="20.08" fill="#d64545" opacity="0.55" />
<rect x="873.39" y="382.77" width="2.28" height="16.36" fill="#d64545" opacity="0.55" />
<rect x="876.67" y="382.77" width="2.28" height="14.80" fill="#d64545" opacity="0.55" />
<rect x="879.94" y="382.77" width="2.28" height="10.78" fill="#d64545" opacity="0.55" />
<rect x="883.21" y="382.77" width="2.28" height="7.95" fill="#d64545" opacity="0.55" />
<rect x="886.49" y="382.77" width="2.28" height="5.70" fill="#d64545" opacity="0.55" />
<rect x="889.76" y="382.77" width="2.28" height="2.06" fill="#d64545" opacity="0.55" />
<rect x="893.04" y="382.46" width="2.28" height="0.31" fill="#2f9e44" opacity="0.55" />
<rect x="896.31" y="380.08" width="2.28" height="2.69" fill="#2f9e44" opacity="0.55" />
<rect x="899.58" y="378.39" width="2.28" height="4.38" fill="#2f9e44" opacity="0.55" />
<rect x="902.86" y="378.91" width="2.28" height="3.86" fill="#2f9e44" opacity="0.55" />
<polyline fill="none" stroke="#1f77b4" stroke-width="2" points="137.85,391.64 141.13,390.24 144.40,388.06 147.68,385.96 150.95,383.07 154.22,380.36 157.50,378.05 160.77,376.51 164.05,377.36 167.32,379.08 170.59,381.90 173.87,384.01 177.14,386.65 180.42,388.56 183.69,389.99 186.97,391.91 190.24,393.20 193.51,394.64 196.79,394.31 200.06,393.37 203.34,392.85 206.61,392.43 209.88,392.21 213.16,393.37 216.43,394.16 219.71,393.98 222.98,392.61 226.25,390.32 229.53,388.45 232.80,385.14 236.08,381.76 239.35,376.58 242.63,370.82 245.90,368.11 249.17,366.92 252.45,367.49 255.72,367.34 259.00,368.73 262.27,368.21 265.54,367.96 268.82,367.94 272.09,367.43 275.37,368.53 278.64,370.33 281.92,371.32 285.19,371.35 288.46,371.40 291.74,370.90 295.01,370.53 298.29,372.04 301.56,371.14 304.83,371.66 308.11,372.54 311.38,373.22 314.66,373.87 317.93,374.37 321.20,374.31 324.48,373.47 327.75,373.03 331.03,371.03 334.30,370.15 337.58,369.61 340.85,369.33 344.12,370.59 347.40,372.38 350.67,374.23 353.95,376.54 357.22,378.43 360.49,381.84 363.77,384.63 367.04,387.01 370.32,390.37 373.59,394.47 376.86,397.54 380.14,402.32 383.41,411.03 386.69,417.20 389.96,420.86 393.24,423.30 396.51,423.43 399.78,422.51 403.06,418.91 406.33,415.79 409.61,414.07 412.88,412.15 416.15,409.87 419.43,406.78 422.70,405.07 425.98,403.27 429.25,402.39 432.53,402.14 435.80,401.83 439.07,401.71 442.35,401.83 445.62,402.16 448.90,401.97 452.17,402.60 455.44,405.40 458.72,407.78 461.99,409.36 465.27,410.73 468.54,411.71 471.81,411.38 475.09,411.67 478.36,411.91 481.64,410.87 484.91,408.97 488.19,408.18 491.46,408.04 494.73,407.20 498.01,407.70 501.28,407.91 504.56,405.92 507.83,407.18 511.10,406.79 514.38,406.99 517.65,408.07 520.93,408.64 524.20,408.79 527.47,409.60 530.75,408.83 534.02,407.48 537.30,407.25 540.57,406.90 543.85,405.69 547.12,404.81 550.39,405.09 553.67,404.66 556.94,403.91 560.22,402.97 563.49,402.01 566.76,400.37 570.04,399.44 573.31,395.98 576.59,393.45 579.86,392.89 583.14,391.68 586.41,389.52 589.68,386.98 592.96,385.17 596.23,384.71 599.51,386.65 602.78,386.13 606.05,384.70 609.33,384.66 612.60,383.06 615.88,375.96 619.15,370.80 622.42,366.01 625.70,362.45 628.97,359.45 632.25,357.26 635.52,357.60 638.80,357.71 642.07,360.18 645.34,362.15 648.62,363.92 651.89,364.54 655.17,364.90 658.44,367.04 661.71,370.33 664.99,371.06 668.26,373.10 671.54,375.35 674.81,375.88 678.08,375.70 681.36,374.55 684.63,373.74 687.91,372.98 691.18,372.06 694.46,370.91 697.73,369.04 701.00,367.07 704.28,366.37 707.55,364.90 710.83,365.17 714.10,367.01 717.37,368.30 720.65,369.48 723.92,370.56 727.20,372.31 730.47,372.70 733.75,373.23 737.02,369.45 740.29,365.54 743.57,361.46 746.84,354.53 750.12,350.86 753.39,349.45 756.66,346.96 759.94,349.61 763.21,352.72 766.49,354.74 769.76,356.85 773.03,357.04 776.31,354.61 779.58,350.05 782.86,347.95 786.13,346.49 789.41,346.74 792.68,339.74 795.95,326.36 799.23,307.36 802.50,292.12 805.78,285.52 809.05,280.57 812.32,284.04 815.60,287.22 818.87,296.76 822.15,306.53 825.42,314.95 828.69,321.55 831.97,327.52 835.24,331.51 838.52,336.76 841.79,341.52 845.07,346.04 848.34,351.55 851.61,358.75 854.89,369.86 858.16,378.49 861.44,385.63 864.71,391.31 867.98,394.49 871.26,395.90 874.53,396.28 877.81,398.41 881.08,397.09 884.36,396.24 887.63,395.42 890.90,392.29 894.18,389.85 897.45,386.79 900.73,384.00 904.00,383.56" />
<polyline fill="none" stroke="#ff7f0e" stroke-width="2" points="137.85,391.64 141.13,391.36 144.40,390.70 147.68,389.75 150.95,388.41 154.22,386.80 157.50,385.05 160.77,383.34 164.05,382.15 167.32,381.53 170.59,381.61 173.87,382.09 177.14,383.00 180.42,384.11 183.69,385.29 186.97,386.61 190.24,387.93 193.51,389.27 196.79,390.28 200.06,390.90 203.34,391.29 206.61,391.52 209.88,391.66 213.16,392.00 216.43,392.43 219.71,392.74 222.98,392.72 226.25,392.24 229.53,391.48 232.80,390.21 236.08,388.52 239.35,386.13 242.63,383.07 245.90,380.08 249.17,377.45 252.45,375.46 255.72,373.83 259.00,372.81 262.27,371.89 265.54,371.11 268.82,370.47 272.09,369.86 275.37,369.60 278.64,369.74 281.92,370.06 285.19,370.32 288.46,370.53 291.74,370.61 295.01,370.59 298.29,370.88 301.56,370.93 304.83,371.08 308.11,371.37 311.38,371.74 314.66,372.17 317.93,372.61 321.20,372.95 324.48,373.05 327.75,373.05 331.03,372.65 334.30,372.15 337.58,371.64 340.85,371.18 344.12,371.06 347.40,371.32 350.67,371.90 353.95,372.83 357.22,373.95 360.49,375.53 363.77,377.35 367.04,379.28 370.32,381.50 373.59,384.09 376.86,386.78 380.14,389.89 383.41,394.12 386.69,398.73 389.96,403.16 393.24,407.19 396.51,410.44 399.78,412.85 403.06,414.06 406.33,414.41 409.61,414.34 412.88,413.90 416.15,413.10 419.43,411.83 422.70,410.48 425.98,409.04 429.25,407.71 432.53,406.59 435.80,405.64 439.07,404.86 442.35,404.25 445.62,403.83 448.90,403.46 452.17,403.29 455.44,403.71 458.72,404.52 461.99,405.49 465.27,406.54 468.54,407.57 471.81,408.34 475.09,409.00 478.36,409.58 481.64,409.84 484.91,409.67 488.19,409.37 491.46,409.10 494.73,408.72 498.01,408.52 501.28,408.40 504.56,407.90 507.83,407.76 511.10,407.56 514.38,407.45 517.65,407.57 520.93,407.79 524.20,407.99 527.47,408.31 530.75,408.41 534.02,408.23 537.30,408.03 540.57,407.81 543.85,407.38 547.12,406.87 550.39,406.51 553.67,406.14 556.94,405.70 560.22,405.15 563.49,404.52 566.76,403.69 570.04,402.84 573.31,401.47 576.59,399.87 579.86,398.47 583.14,397.11 586.41,395.60 589.68,393.87 592.96,392.13 596.23,390.65 599.51,389.85 602.78,389.10 606.05,388.22 609.33,387.51 612.60,386.62 615.88,384.49 619.15,381.75 622.42,378.60 625.70,375.37 628.97,372.19 632.25,369.20 635.52,366.88 638.80,365.05 642.07,364.07 645.34,363.69 648.62,363.74 651.89,363.90 655.17,364.10 658.44,364.69 661.71,365.81 664.99,366.86 668.26,368.11 671.54,369.56 674.81,370.82 678.08,371.80 681.36,372.35 684.63,372.63 687.91,372.70 691.18,372.57 694.46,372.24 697.73,371.60 701.00,370.69 704.28,369.83 707.55,368.84 710.83,368.11 714.10,367.89 717.37,367.97 720.65,368.27 723.92,368.73 727.20,369.45 730.47,370.10 733.75,370.72 737.02,370.47 740.29,369.48 743.57,367.88 746.84,365.21 750.12,362.34 753.39,359.76 756.66,357.20 759.94,355.68 763.21,355.09 766.49,355.02 769.76,355.39 773.03,355.72 776.31,355.50 779.58,354.41 782.86,353.12 786.13,351.79 789.41,350.78 792.68,348.57 795.95,344.13 799.23,336.78 802.50,327.85 805.78,319.38 809.05,311.62 812.32,306.10 815.60,302.33 818.87,301.21 822.15,302.28 825.42,304.81 828.69,308.16 831.97,312.03 835.24,315.93 838.52,320.10 841.79,324.38 845.07,328.71 848.34,333.28 851.61,338.37 854.89,344.67 858.16,351.43 861.44,358.27 864.71,364.88 867.98,370.80 871.26,375.82 874.53,379.91 877.81,383.61 881.08,386.31 884.36,388.29 887.63,389.72 890.90,390.23 894.18,390.16 897.45,389.48 900.73,388.39 904.00,387.42" />
<text x="754.00" y="290.00" font-size="13" font-family="Arial" fill="#1f77b4" text-anchor="start">MACD</text>
<text x="818.00" y="290.00" font-size="13" font-family="Arial" fill="#ff7f0e" text-anchor="start">Signal</text>
<line x1="56" y1="624" x2="904" y2="624" stroke="#cbd2d9" />
<line x1="56" y1="484" x2="56" y2="624" stroke="#cbd2d9" />
<text x="16.00" y="476.00" font-size="12" font-family="Arial" fill="#52606d" text-anchor="start">KD</text>
<line x1="56" y1="624.00" x2="904" y2="624.00" stroke="#edf2f7" />
<line x1="52" y1="624.00" x2="56" y2="624.00" stroke="#9fb3c8" />
<text x="48.00" y="628.00" font-size="11" font-family="Arial" fill="#52606d" text-anchor="end">-5.00</text>
<line x1="56" y1="577.33" x2="904" y2="577.33" stroke="#edf2f7" />
<line x1="52" y1="577.33" x2="56" y2="577.33" stroke="#9fb3c8" />
<text x="48.00" y="581.33" font-size="11" font-family="Arial" fill="#52606d" text-anchor="end">31.7</text>
<line x1="56" y1="530.67" x2="904" y2="530.67" stroke="#edf2f7" />
<line x1="52" y1="530.67" x2="56" y2="530.67" stroke="#9fb3c8" />
<text x="48.00" y="534.67" font-size="11" font-family="Arial" fill="#52606d" text-anchor="end">68.3</text>
<line x1="56" y1="484.00" x2="904" y2="484.00" stroke="#edf2f7" />
<line x1="52" y1="484.00" x2="56" y2="484.00" stroke="#9fb3c8" />
<text x="48.00" y="488.00" font-size="11" font-family="Arial" fill="#52606d" text-anchor="end">105</text>
<line x1="56.00" y1="624" x2="56.00" y2="628" stroke="#9fb3c8" />
<text x="56.00" y="642.00" font-size="11" font-family="Arial" fill="#52606d" text-anchor="middle">06/24</text>
<line x1="226.25" y1="624" x2="226.25" y2="628" stroke="#9fb3c8" />
<text x="226.25" y="642.00" font-size="11" font-family="Arial" fill="#52606d" text-anchor="middle">09/05</text>
<line x1="396.51" y1="624" x2="396.51" y2="628" stroke="#9fb3c8" />
<text x="396.51" y="642.00" font-size="11" font-family="Arial" fill="#52606d" text-anchor="middle">11/24</text>
<line x1="563.49" y1="624" x2="563.49" y2="628" stroke="#9fb3c8" />
<text x="563.49" y="642.00" font-size="11" font-family="Arial" fill="#52606d" text-anchor="middle">02/05</text>
<line x1="733.75" y1="624" x2="733.75" y2="628" stroke="#9fb3c8" />
<text x="733.75" y="642.00" font-size="11" font-family="Arial" fill="#52606d" text-anchor="middle">05/05</text>
<line x1="904.00" y1="624" x2="904.00" y2="628" stroke="#9fb3c8" />
<text x="904.00" y="642.00" font-size="11" font-family="Arial" fill="#52606d" text-anchor="middle">07/17</text>
<line x1="56" y1="592.18" x2="904" y2="592.18" stroke="#f0b429" stroke-dasharray="5 5" />
<text x="912.00" y="596.18" font-size="10" font-family="Arial" fill="#8d2b0b" text-anchor="start">20.0</text>
<line x1="56" y1="515.82" x2="904" y2="515.82" stroke="#f0b429" stroke-dasharray="5 5" />
<text x="912.00" y="519.82" font-size="10" font-family="Arial" fill="#8d2b0b" text-anchor="start">80.0</text>
<polyline fill="none" stroke="#2ca02c" stroke-width="2" points="82.19,588.47 85.47,611.00 88.74,642.48 92.02,656.96 95.29,665.62 98.56,671.39 101.84,686.20 105.11,687.10 108.39,716.21 111.66,722.95 114.93,729.10 118.21,731.54 121.48,757.01 124.76,750.05 128.03,731.06 131.31,702.93 134.58,675.26 137.85,667.79 141.13,660.81 144.40,647.14 147.68,635.19 150.95,623.49 154.22,621.36 157.50,621.97 160.77,625.99 164.05,644.63 167.32,665.02 170.59,678.93 173.87,676.90 177.14,681.43 180.42,683.80 183.69,685.38 186.97,687.27 190.24,694.47 193.51,701.79 196.79,705.23 200.06,713.65 203.34,728.12 206.61,747.20 209.88,761.12 213.16,771.22 216.43,774.10 219.71,766.82 222.98,743.57 226.25,713.13 229.53,691.55 232.80,661.53 236.08,638.06 239.35,615.66 242.63,595.07 245.90,588.54 249.17,590.80 252.45,602.75 255.72,611.28 259.00,626.30 262.27,640.09 265.54,655.70 268.82,666.10 272.09,669.54 275.37,697.12 278.64,733.86 281.92,750.37 285.19,748.62 288.46,745.85 291.74,734.44 295.01,722.05 298.29,731.96 301.56,711.98 304.83,699.02 308.11,695.30 311.38,692.01 314.66,689.82 317.93,687.54 321.20,681.95 324.48,671.72 327.75,665.71 331.03,658.00 334.30,659.32 337.58,659.81 340.85,663.37 344.12,679.42 347.40,720.83 350.67,745.36 353.95,724.73 357.22,710.97 360.49,710.95 363.77,710.31 367.04,711.17 370.32,705.46 373.59,698.56 376.86,687.49 380.14,684.91 383.41,674.23 386.69,666.32 389.96,659.03 393.24,651.95 396.51,643.33 399.78,635.87 403.06,620.22 406.33,610.16 409.61,607.22 412.88,603.97 416.15,599.24 419.43,590.98 422.70,608.18 425.98,624.21 429.25,664.63 432.53,700.11 435.80,725.20 439.07,726.34 442.35,731.66 445.62,726.80 448.90,714.13 452.17,719.50 455.44,709.54 458.72,702.24 461.99,698.18 465.27,696.60 468.54,690.53 471.81,681.83 475.09,681.35 478.36,679.48 481.64,677.61 484.91,677.08 488.19,690.23 491.46,708.97 494.73,715.77 498.01,723.94 501.28,706.71 504.56,680.49 507.83,687.28 511.10,683.14 514.38,689.51 517.65,699.72 520.93,703.47 524.20,706.79 527.47,703.87 530.75,693.26 534.02,683.38 537.30,698.48 540.57,711.29 543.85,715.03 547.12,727.73 550.39,737.87 553.67,724.93 556.94,714.44 560.22,706.19 563.49,710.10 566.76,700.45 570.04,702.00 573.31,669.17 576.59,650.27 579.86,651.63 583.14,650.51 586.41,639.02 589.68,624.74 592.96,617.24 596.23,632.67 599.51,663.01 602.78,663.30 606.05,653.52 609.33,658.08 612.60,645.61 615.88,611.56 619.15,592.54 622.42,576.69 625.70,566.12 628.97,557.65 632.25,553.84 635.52,557.43 638.80,564.17 642.07,605.66 645.34,637.52 648.62,658.76 651.89,664.76 655.17,666.04 658.44,680.49 661.71,689.00 664.99,680.38 668.26,697.94 671.54,708.29 674.81,700.24 678.08,687.40 681.36,665.97 684.63,651.69 687.91,640.12 691.18,628.63 694.46,617.62 697.73,605.46 701.00,601.99 704.28,604.55 707.55,601.72 710.83,609.29 714.10,641.15 717.37,662.99 720.65,683.55 723.92,697.26 727.20,709.64 730.47,707.40 733.75,706.95 737.02,668.97 740.29,640.59 743.57,618.64 746.84,595.35 750.12,584.22 753.39,580.18 756.66,572.27 759.94,581.83 763.21,593.40 766.49,611.68 769.76,624.91 773.03,625.44 776.31,611.43 779.58,593.65 782.86,585.99 786.13,580.04 789.41,579.85 792.68,565.40 795.95,550.99 799.23,539.36 802.50,535.23 805.78,539.71 809.05,541.53 812.32,550.89 815.60,556.27 818.87,570.05 822.15,592.89 825.42,607.90 828.69,616.48 831.97,623.70 835.24,625.49 838.52,636.68 841.79,644.61 845.07,658.77 848.34,675.34 851.61,678.37 854.89,672.76 858.16,665.65 861.44,660.58 864.71,641.19 867.98,625.96 871.26,613.97 874.53,602.29 877.81,598.80 881.08,583.02 884.36,567.20 887.63,556.66 890.90,544.46 894.18,537.67 897.45,530.01 900.73,523.43 904.00,528.98" />
<polyline fill="none" stroke="#d62728" stroke-width="2" points="82.19,565.49 85.47,580.66 88.74,601.27 92.02,619.83 95.29,635.09 98.56,647.19 101.84,660.19 105.11,669.16 108.39,684.85 111.66,697.55 114.93,708.06 118.21,715.89 121.48,729.60 124.76,736.42 128.03,734.63 131.31,724.07 134.58,707.80 137.85,694.46 141.13,683.24 144.40,671.21 147.68,659.20 150.95,647.30 154.22,638.65 157.50,633.09 160.77,630.72 164.05,635.36 167.32,645.25 170.59,656.47 173.87,663.28 177.14,669.33 180.42,674.15 183.69,677.89 186.97,681.02 190.24,685.50 193.51,690.93 196.79,695.70 200.06,701.68 203.34,710.49 206.61,722.73 209.88,735.53 213.16,747.43 216.43,756.32 219.71,759.82 222.98,754.40 226.25,740.64 229.53,724.28 232.80,703.36 236.08,681.60 239.35,659.62 242.63,638.10 245.90,621.58 249.17,611.32 252.45,608.46 255.72,609.40 259.00,615.04 262.27,623.39 265.54,634.16 268.82,644.80 272.09,653.05 275.37,667.74 278.64,689.78 281.92,709.98 285.19,722.86 288.46,730.52 291.74,731.83 295.01,728.57 298.29,729.70 301.56,723.79 304.83,715.54 308.11,708.79 311.38,703.20 314.66,698.74 317.93,695.00 321.20,690.65 324.48,684.34 327.75,678.13 331.03,671.42 334.30,667.39 337.58,664.86 340.85,664.36 344.12,669.38 347.40,686.53 350.67,706.14 353.95,712.34 357.22,711.88 360.49,711.57 363.77,711.15 367.04,711.16 370.32,709.26 373.59,705.69 376.86,699.62 380.14,694.72 383.41,687.89 386.69,680.70 389.96,673.48 393.24,666.30 396.51,658.64 399.78,651.05 403.06,640.78 406.33,630.57 409.61,622.79 412.88,616.52 416.15,610.76 419.43,604.17 422.70,605.50 425.98,611.74 429.25,629.37 432.53,652.95 435.80,677.03 439.07,693.47 442.35,706.20 445.62,713.07 448.90,713.42 452.17,715.45 455.44,713.48 458.72,709.73 461.99,705.88 465.27,702.79 468.54,698.70 471.81,693.08 475.09,689.17 478.36,685.94 481.64,683.16 484.91,681.13 488.19,684.17 491.46,692.44 494.73,700.21 498.01,708.12 501.28,707.65 504.56,698.60 507.83,694.82 511.10,690.93 514.38,690.46 517.65,693.54 520.93,696.85 524.20,700.16 527.47,701.40 530.75,698.68 534.02,693.58 537.30,695.22 540.57,700.57 543.85,705.39 547.12,712.84 550.39,721.18 553.67,722.43 556.94,719.77 560.22,715.24 563.49,713.53 566.76,709.17 570.04,706.78 573.31,694.24 576.59,679.59 579.86,670.27 583.14,663.68 586.41,655.46 589.68,645.22 592.96,635.89 596.23,634.82 599.51,644.22 602.78,650.58 606.05,651.56 609.33,653.74 612.60,651.03 615.88,637.87 619.15,622.76 622.42,607.40 625.70,593.64 628.97,581.64 632.25,572.38 635.52,567.39 638.80,566.32 642.07,579.43 645.34,598.80 648.62,618.78 651.89,634.11 655.17,644.75 658.44,656.66 661.71,667.44 664.99,671.75 668.26,680.48 671.54,689.75 674.81,693.25 678.08,691.30 681.36,682.86 684.63,672.47 687.91,661.69 691.18,650.67 694.46,639.65 697.73,628.25 701.00,619.50 704.28,614.52 707.55,610.25 710.83,609.93 714.10,620.34 717.37,634.55 720.65,650.89 723.92,666.35 727.20,680.78 730.47,689.65 733.75,695.42 737.02,686.60 740.29,671.26 743.57,653.72 746.84,634.26 750.12,617.58 753.39,605.11 756.66,594.16 759.94,590.05 763.21,591.17 766.49,598.01 769.76,606.97 773.03,613.13 776.31,612.56 779.58,606.26 782.86,599.50 786.13,593.01 789.41,588.63 792.68,580.88 795.95,570.92 799.23,560.40 802.50,552.01 805.78,547.91 809.05,545.78 812.32,547.49 815.60,550.41 818.87,556.96 822.15,568.93 825.42,581.92 828.69,593.44 831.97,603.53 835.24,610.85 838.52,619.46 841.79,627.84 845.07,638.15 848.34,650.55 851.61,659.82 854.89,664.14 858.16,664.64 861.44,663.29 864.71,655.92 867.98,645.94 871.26,635.28 874.53,624.28 877.81,615.79 881.08,604.86 884.36,592.31 887.63,580.43 890.90,568.44 894.18,558.18 897.45,548.79 900.73,540.34 904.00,536.55" />
<text x="824.00" y="502.00" font-size="13" font-family="Arial" fill="#2ca02c" text-anchor="start">K</text>
<text x="860.00" y="502.00" font-size="13" font-family="Arial" fill="#d62728" text-anchor="start">D</text>
</svg>