<svg xmlns="http://www.w3.org/2000/svg" width="960" height="520" viewBox="0 0 960 520"><rect width="100%" height="100%" fill="white" />
<text x="56.00" y="32.00" font-size="20" font-family="Arial" fill="#1f2933" text-anchor="start">元大台灣50(0050) Price and Moving Averages</text>
<line x1="56" y1="464" x2="904" y2="464" stroke="#cbd2d9" />
<line x1="56" y1="56" x2="56" y2="464" stroke="#cbd2d9" />
<text x="16.00" y="38.00" font-size="12" font-family="Arial" fill="#52606d" text-anchor="start">Price</text>
<line x1="56" y1="464.00" x2="904" y2="464.00" stroke="#edf2f7" />
<line x1="52" y1="464.00" x2="56" y2="464.00" stroke="#9fb3c8" />
<text x="48.00" y="468.00" font-size="11" font-family="Arial" fill="#52606d" text-anchor="end">41.7</text>
<line x1="56" y1="362.00" x2="904" y2="362.00" stroke="#edf2f7" />
<line x1="52" y1="362.00" x2="56" y2="362.00" stroke="#9fb3c8" />
<text x="48.00" y="366.00" font-size="11" font-family="Arial" fill="#52606d" text-anchor="end">60.1</text>
<line x1="56" y1="260.00" x2="904" y2="260.00" stroke="#edf2f7" />
<line x1="52" y1="260.00" x2="56" y2="260.00" stroke="#9fb3c8" />
<text x="48.00" y="264.00" font-size="11" font-family="Arial" fill="#52606d" text-anchor="end">78.4</text>
<line x1="56" y1="158.00" x2="904" y2="158.00" stroke="#edf2f7" />
<line x1="52" y1="158.00" x2="56" y2="158.00" stroke="#9fb3c8" />
<text x="48.00" y="162.00" font-size="11" font-family="Arial" fill="#52606d" text-anchor="end">96.7</text>
<line x1="56" y1="56.00" x2="904" y2="56.00" stroke="#edf2f7" />
<line x1="52" y1="56.00" x2="56" y2="56.00" stroke="#9fb3c8" />
<text x="48.00" y="60.00" font-size="11" font-family="Arial" fill="#52606d" text-anchor="end">115</text>
<line x1="56.00" y1="464" x2="56.00" y2="468" stroke="#9fb3c8" />
<text x="56.00" y="482.00" font-size="11" font-family="Arial" fill="#52606d" text-anchor="middle">06/13</text>
<line x1="226.25" y1="464" x2="226.25" y2="468" stroke="#9fb3c8" />
<text x="226.25" y="482.00" font-size="11" font-family="Arial" fill="#52606d" text-anchor="middle">08/26</text>
<line x1="396.51" y1="464" x2="396.51" y2="468" stroke="#9fb3c8" />
<text x="396.51" y="482.00" font-size="11" font-family="Arial" fill="#52606d" text-anchor="middle">11/12</text>
<line x1="563.49" y1="464" x2="563.49" y2="468" stroke="#9fb3c8" />
<text x="563.49" y="482.00" font-size="11" font-family="Arial" fill="#52606d" text-anchor="middle">01/26</text>
<line x1="733.75" y1="464" x2="733.75" y2="468" stroke="#9fb3c8" />
<text x="733.75" y="482.00" font-size="11" font-family="Arial" fill="#52606d" text-anchor="middle">04/22</text>
<line x1="904.00" y1="464" x2="904.00" y2="468" stroke="#9fb3c8" />
<text x="904.00" y="482.00" font-size="11" font-family="Arial" fill="#52606d" text-anchor="middle">07/07</text>
<polyline fill="none" stroke="#1f77b4" stroke-width="2" points="56.00,439.30 59.27,439.30 62.55,439.30 65.82,437.08 69.10,439.64 72.37,440.02 75.64,442.14 78.92,437.51 82.19,433.75 85.47,433.43 88.74,433.15 92.02,432.77 95.29,431.25 98.56,431.19 101.84,427.54 105.11,430.05 108.39,431.63 111.66,432.83 114.93,430.10 118.21,427.05 121.48,425.91 124.76,427.49 128.03,423.84 131.31,421.66 134.58,420.03 137.85,415.94 141.13,416.98 144.40,418.90 147.68,418.08 150.95,416.43 154.22,416.98 157.50,416.16 160.77,419.45 164.05,416.43 167.32,413.42 170.59,415.89 173.87,417.53 177.14,413.97 180.42,416.43 183.69,408.48 186.97,408.48 190.24,406.29 193.51,406.01 196.79,403.54 200.06,404.64 203.34,404.64 206.61,403.82 209.88,404.37 213.16,412.59 216.43,410.95 219.71,412.32 222.98,407.11 226.25,406.83 229.53,405.46 232.80,408.21 236.08,408.21 239.35,410.95 242.63,410.95 245.90,411.22 249.17,409.30 252.45,406.29 255.72,403.54 259.00,400.53 262.27,394.77 265.54,392.02 268.82,389.01 272.09,389.01 275.37,384.89 278.64,387.09 281.92,383.79 285.19,383.52 288.46,381.33 291.74,375.57 295.01,375.84 298.29,376.94 301.56,382.15 304.83,379.13 308.11,377.49 311.38,371.45 314.66,366.79 317.93,357.74 321.20,360.75 324.48,358.28 327.75,361.58 331.03,363.22 334.30,357.19 337.58,350.60 340.85,355.82 344.12,350.06 347.40,349.51 350.67,352.25 353.95,354.17 357.22,346.22 360.49,348.68 363.77,342.92 367.04,342.92 370.32,341.00 373.59,344.30 376.86,345.39 380.14,349.78 383.41,348.96 386.69,353.07 389.96,348.68 393.24,351.15 396.51,349.51 399.78,351.15 403.06,357.74 406.33,356.64 409.61,364.59 412.88,366.79 416.15,356.64 419.43,367.89 422.70,369.53 425.98,365.14 429.25,359.66 432.53,356.64 435.80,354.17 439.07,358.83 442.35,357.74 445.62,354.44 448.90,354.99 452.17,351.98 455.44,346.76 458.72,347.31 461.99,344.84 465.27,348.68 468.54,348.14 471.81,351.70 475.09,354.72 478.36,356.64 481.64,356.64 484.91,353.35 488.19,348.41 491.46,346.76 494.73,345.94 498.01,342.92 501.28,338.26 504.56,338.81 507.83,336.34 511.10,328.94 514.38,314.95 517.65,310.01 520.93,313.03 524.20,311.66 527.47,313.03 530.75,310.28 534.02,308.36 537.30,308.09 540.57,308.64 543.85,301.23 547.12,297.94 550.39,297.94 553.67,302.06 556.94,296.77 560.22,294.27 563.49,294.27 566.76,289.82 570.04,283.42 573.31,285.92 576.59,292.32 579.86,298.44 583.14,290.37 586.41,290.65 589.68,295.66 592.96,296.21 596.23,284.81 599.51,276.19 602.78,266.73 606.05,265.62 609.33,254.49 612.60,245.03 615.88,244.75 619.15,249.20 622.42,258.11 625.70,275.63 628.97,265.62 632.25,268.68 635.52,286.76 638.80,277.86 642.07,261.17 645.34,270.07 648.62,273.68 651.89,275.63 655.17,269.79 658.44,263.39 661.71,273.40 664.99,273.96 668.26,283.14 671.54,282.31 674.81,272.29 678.08,274.52 681.36,278.97 684.63,285.09 687.91,293.71 691.18,276.46 694.46,284.81 697.73,277.30 701.00,255.60 704.28,255.88 707.55,246.98 710.83,247.81 714.10,233.91 717.37,228.06 720.65,223.34 723.92,228.06 727.20,225.84 730.47,217.77 733.75,215.83 737.02,215.83 740.29,195.80 743.57,178.83 746.84,184.39 750.12,191.35 753.39,192.74 756.66,169.93 759.94,169.93 763.21,163.53 766.49,152.68 769.76,156.58 773.03,157.13 776.31,157.41 779.58,164.92 782.86,161.86 786.13,165.48 789.41,168.26 792.68,178.27 795.95,181.61 799.23,162.97 802.50,154.91 805.78,135.44 809.05,139.33 812.32,125.70 815.60,137.11 818.87,109.85 822.15,109.29 825.42,108.18 828.69,97.61 831.97,105.95 835.24,116.80 838.52,134.60 841.79,120.42 845.07,138.50 848.34,140.72 851.61,129.04 854.89,110.68 858.16,107.06 861.44,106.51 864.71,99.28 867.98,77.86 871.26,83.70 874.53,100.11 877.81,99.83 881.08,122.64 884.36,115.13 887.63,96.49 890.90,87.87 894.18,90.93 897.45,93.43 900.73,93.99 904.00,105.40" />
<text x="780.00" y="60.00" font-size="14" font-family="Arial" fill="#1f77b4" text-anchor="start">Close</text>
<polyline fill="none" stroke="#2ca02c" stroke-width="2" points="118.21,434.45 121.48,433.78 124.76,433.19 128.03,432.42 131.31,431.65 134.58,430.67 137.85,429.46 141.13,428.21 144.40,427.28 147.68,426.49 150.95,425.64 154.22,424.83 157.50,424.00 160.77,423.41 164.05,422.68 167.32,421.97 170.59,421.26 173.87,420.56 177.14,419.61 180.42,418.93 183.69,418.00 186.97,417.13 190.24,416.07 193.51,415.18 196.79,414.27 200.06,413.50 203.34,412.94 206.61,412.28 209.88,411.55 213.16,411.28 216.43,411.00 219.71,410.77 222.98,410.32 226.25,409.69 229.53,409.14 232.80,408.88 236.08,408.49 239.35,408.16 242.63,408.01 245.90,407.75 249.17,407.79 252.45,407.68 255.72,407.55 259.00,407.27 262.27,406.83 265.54,406.20 268.82,405.42 272.09,404.68 275.37,403.71 278.64,402.43 281.92,401.07 285.19,399.63 288.46,398.35 291.74,396.78 295.01,395.30 298.29,393.74 301.56,392.43 304.83,390.84 308.11,389.17 311.38,387.18 314.66,385.06 317.93,382.63 321.20,380.49 324.48,378.38 327.75,376.72 331.03,375.28 334.30,373.69 337.58,371.77 340.85,370.31 344.12,368.46 347.40,366.75 350.67,365.18 353.95,363.83 357.22,362.36 360.49,361.00 363.77,359.30 367.04,357.34 370.32,355.43 373.59,353.77 376.86,352.47 380.14,351.62 383.41,351.18 386.69,350.80 389.96,350.32 393.24,349.80 396.51,349.11 399.78,348.81 403.06,349.16 406.33,349.21 409.61,349.93 412.88,350.80 416.15,351.02 419.43,351.70 422.70,352.87 425.98,353.69 429.25,354.53 432.53,355.21 435.80,355.87 439.07,356.60 442.35,357.22 445.62,357.45 448.90,357.75 452.17,357.70 455.44,357.60 458.72,357.41 461.99,357.17 465.27,357.05 468.54,356.57 471.81,356.32 475.09,355.83 478.36,355.32 481.64,355.32 484.91,354.60 488.19,353.54 491.46,352.62 494.73,351.94 498.01,351.25 501.28,350.45 504.56,349.45 507.83,348.38 511.10,347.11 514.38,345.11 517.65,343.01 520.93,341.32 524.20,339.54 527.47,337.95 530.75,336.03 534.02,334.04 537.30,331.86 540.57,329.55 543.85,326.78 547.12,323.85 550.39,321.08 553.67,318.76 556.94,316.26 560.22,313.68 563.49,311.24 566.76,308.82 570.04,306.05 573.31,303.53 576.59,301.70 579.86,300.87 583.14,299.89 586.41,298.77 589.68,297.97 592.96,297.13 596.23,295.86 599.51,294.25 602.78,292.18 606.05,290.03 609.33,287.69 612.60,285.05 615.88,282.39 619.15,279.75 622.42,277.81 625.70,276.88 628.97,275.45 632.25,274.39 635.52,274.56 638.80,274.16 642.07,272.60 645.34,271.18 648.62,270.35 651.89,269.59 655.17,268.30 658.44,266.66 661.71,266.09 664.99,265.98 668.26,266.80 671.54,267.63 674.81,268.52 678.08,270.00 681.36,271.71 684.63,273.50 687.91,275.28 691.18,275.32 694.46,276.28 697.73,276.71 701.00,275.16 704.28,274.06 707.55,273.35 710.83,272.24 714.10,270.25 717.37,267.87 720.65,265.55 723.92,263.78 727.20,261.40 730.47,258.59 733.75,255.23 737.02,251.90 740.29,248.08 743.57,243.29 746.84,238.57 750.12,233.88 753.39,228.83 756.66,223.50 759.94,217.76 763.21,212.07 766.49,206.92 769.76,201.96 773.03,197.47 776.31,192.95 779.58,189.50 782.86,186.19 786.13,183.29 789.41,180.30 792.68,177.93 795.95,176.12 799.23,173.48 802.50,170.43 805.78,167.41 809.05,165.44 812.32,162.50 815.60,159.79 818.87,155.65 822.15,152.61 825.42,149.53 828.69,146.23 831.97,143.89 835.24,141.90 838.52,140.78 841.79,138.93 845.07,137.61 848.34,136.55 851.61,134.73 854.89,131.85 858.16,128.29 861.44,124.53 864.71,121.35 867.98,117.50 871.26,114.91 874.53,112.95 877.81,111.65 881.08,110.93 884.36,111.19 887.63,110.56 890.90,109.54 894.18,109.21 897.45,108.58 900.73,107.44 904.00,105.98" />
<text x="780.00" y="82.00" font-size="14" font-family="Arial" fill="#2ca02c" text-anchor="start">MA20</text>
<polyline fill="none" stroke="#ff7f0e" stroke-width="2" points="249.17,420.08 252.45,419.53 255.72,418.94 259.00,418.29 262.27,417.58 265.54,416.79 268.82,415.94 272.09,415.06 275.37,414.18 278.64,413.40 281.92,412.57 285.19,411.75 288.46,410.89 291.74,409.96 295.01,409.04 298.29,408.19 301.56,407.40 304.83,406.52 308.11,405.60 311.38,404.62 314.66,403.62 317.93,402.48 321.20,401.37 324.48,400.28 327.75,399.27 331.03,398.33 334.30,397.35 337.58,396.24 340.85,395.19 344.12,394.06 347.40,392.94 350.67,391.86 353.95,390.83 357.22,389.61 360.49,388.48 363.77,387.30 367.04,386.09 370.32,384.81 373.59,383.65 376.86,382.47 380.14,381.49 383.41,380.50 386.69,379.61 389.96,378.66 393.24,377.78 396.51,376.86 399.78,375.97 403.06,375.20 406.33,374.41 409.61,373.61 412.88,372.87 416.15,371.94 419.43,371.29 422.70,370.67 425.98,370.00 429.25,369.19 432.53,368.33 435.80,367.38 439.07,366.51 442.35,365.62 445.62,364.71 448.90,363.85 452.17,362.99 455.44,362.10 458.72,361.31 461.99,360.52 465.27,359.85 468.54,359.17 471.81,358.61 475.09,358.07 478.36,357.62 481.64,357.17 484.91,356.71 488.19,356.26 491.46,355.77 494.73,355.25 498.01,354.60 501.28,353.92 504.56,353.27 507.83,352.69 511.10,352.06 514.38,351.35 517.65,350.50 520.93,349.75 524.20,348.91 527.47,348.08 530.75,347.30 534.02,346.59 537.30,345.80 540.57,345.11 543.85,344.30 547.12,343.40 550.39,342.46 553.67,341.72 556.94,340.86 560.22,340.05 563.49,339.24 566.76,338.38 570.04,337.37 573.31,336.38 576.59,335.42 579.86,334.58 583.14,333.53 586.41,332.56 589.68,331.64 592.96,330.75 596.23,329.65 599.51,328.29 602.78,326.79 606.05,325.14 609.33,323.27 612.60,321.41 615.88,319.35 619.15,317.35 622.42,315.56 625.70,314.16 628.97,312.65 632.25,311.22 635.52,310.02 638.80,308.69 642.07,307.14 645.34,305.72 648.62,304.41 651.89,303.23 655.17,301.94 658.44,300.58 661.71,299.32 664.99,298.09 668.26,296.95 671.54,295.74 674.81,294.33 678.08,292.96 681.36,291.72 684.63,290.67 687.91,289.79 691.18,288.63 694.46,287.66 697.73,286.64 701.00,285.26 704.28,283.91 707.55,282.55 710.83,281.43 714.10,280.16 717.37,278.75 720.65,277.27 723.92,275.86 727.20,274.45 730.47,272.94 733.75,271.40 737.02,269.86 740.29,268.10 743.57,266.11 746.84,264.22 750.12,262.38 753.39,260.64 756.66,258.57 759.94,256.50 763.21,254.39 766.49,252.21 769.76,250.06 773.03,247.80 776.31,245.45 779.58,243.36 782.86,241.22 786.13,239.05 789.41,236.91 792.68,235.14 795.95,233.56 799.23,231.83 802.50,229.99 805.78,228.00 809.05,226.24 812.32,224.26 815.60,222.39 818.87,219.92 822.15,217.15 825.42,214.52 828.69,211.67 831.97,208.66 835.24,205.97 838.52,203.86 841.79,201.37 845.07,199.12 848.34,196.87 851.61,194.52 854.89,191.98 858.16,189.21 861.44,186.41 864.71,183.35 867.98,179.94 871.26,176.80 874.53,173.89 877.81,170.91 881.08,168.20 884.36,165.22 887.63,162.22 890.90,158.94 894.18,155.84 897.45,153.13 900.73,150.43 904.00,148.07" />
<text x="780.00" y="104.00" font-size="14" font-family="Arial" fill="#ff7f0e" text-anchor="start">MA60</text>
<polyline fill="none" stroke="#d62728" stroke-width="2" points="707.55,354.91 710.83,353.96 714.10,352.93 717.37,351.87 720.65,350.80 723.92,349.75 727.20,348.67 730.47,347.55 733.75,346.44 737.02,345.35 740.29,344.17 743.57,342.89 746.84,341.65 750.12,340.45 753.39,339.26 756.66,337.97 759.94,336.67 763.21,335.33 766.49,333.93 769.76,332.56 773.03,331.21 776.31,329.87 779.58,328.56 782.86,327.25 786.13,325.97 789.41,324.71 792.68,323.52 795.95,322.34 799.23,321.06 802.50,319.75 805.78,318.34 809.05,316.96 812.32,315.50 815.60,314.09 818.87,312.56 822.15,311.04 825.42,309.50 828.69,307.90 831.97,306.36 835.24,304.86 838.52,303.49 841.79,302.05 845.07,300.71 848.34,299.39 851.61,298.01 854.89,296.54 858.16,295.06 861.44,293.57 864.71,292.04 867.98,290.37 871.26,288.73 874.53,287.17 877.81,285.64 881.08,284.22 884.36,282.76 887.63,281.21 890.90,279.60 894.18,278.00 897.45,276.42 900.73,274.83 904.00,273.31" />
<text x="780.00" y="126.00" font-size="14" font-family="Arial" fill="#d62728" text-anchor="start">MA200</text>
</svg>