<svg xmlns="http://www.w3.org/2000/svg" width="960" height="520" viewBox="0 0 960 520"><rect width="100%" height="100%" fill="white" />
<text x="56.00" y="32.00" font-size="20" font-family="Arial" fill="#1f2933" text-anchor="start">元大台灣50(0050) Price and Moving Averages</text>
<line x1="56" y1="464" x2="904" y2="464" stroke="#cbd2d9" />
<line x1="56" y1="56" x2="56" y2="464" stroke="#cbd2d9" />
<text x="16.00" y="38.00" font-size="12" font-family="Arial" fill="#52606d" text-anchor="start">Price</text>
<line x1="56" y1="464.00" x2="904" y2="464.00" stroke="#edf2f7" />
<line x1="52" y1="464.00" x2="56" y2="464.00" stroke="#9fb3c8" />
<text x="48.00" y="468.00" font-size="11" font-family="Arial" fill="#52606d" text-anchor="end">41.7</text>
<line x1="56" y1="362.00" x2="904" y2="362.00" stroke="#edf2f7" />
<line x1="52" y1="362.00" x2="56" y2="362.00" stroke="#9fb3c8" />
<text x="48.00" y="366.00" font-size="11" font-family="Arial" fill="#52606d" text-anchor="end">60.1</text>
<line x1="56" y1="260.00" x2="904" y2="260.00" stroke="#edf2f7" />
<line x1="52" y1="260.00" x2="56" y2="260.00" stroke="#9fb3c8" />
<text x="48.00" y="264.00" font-size="11" font-family="Arial" fill="#52606d" text-anchor="end">78.4</text>
<line x1="56" y1="158.00" x2="904" y2="158.00" stroke="#edf2f7" />
<line x1="52" y1="158.00" x2="56" y2="158.00" stroke="#9fb3c8" />
<text x="48.00" y="162.00" font-size="11" font-family="Arial" fill="#52606d" text-anchor="end">96.7</text>
<line x1="56" y1="56.00" x2="904" y2="56.00" stroke="#edf2f7" />
<line x1="52" y1="56.00" x2="56" y2="56.00" stroke="#9fb3c8" />
<text x="48.00" y="60.00" font-size="11" font-family="Arial" fill="#52606d" text-anchor="end">115</text>
<line x1="56.00" y1="464" x2="56.00" y2="468" stroke="#9fb3c8" />
<text x="56.00" y="482.00" font-size="11" font-family="Arial" fill="#52606d" text-anchor="middle">06/23</text>
<line x1="226.25" y1="464" x2="226.25" y2="468" stroke="#9fb3c8" />
<text x="226.25" y="482.00" font-size="11" font-family="Arial" fill="#52606d" text-anchor="middle">09/03</text>
<line x1="396.51" y1="464" x2="396.51" y2="468" stroke="#9fb3c8" />
<text x="396.51" y="482.00" font-size="11" font-family="Arial" fill="#52606d" text-anchor="middle">11/20</text>
<line x1="563.49" y1="464" x2="563.49" y2="468" stroke="#9fb3c8" />
<text x="563.49" y="482.00" font-size="11" font-family="Arial" fill="#52606d" text-anchor="middle">02/03</text>
<line x1="733.75" y1="464" x2="733.75" y2="468" stroke="#9fb3c8" />
<text x="733.75" y="482.00" font-size="11" font-family="Arial" fill="#52606d" text-anchor="middle">04/30</text>
<line x1="904.00" y1="464" x2="904.00" y2="468" stroke="#9fb3c8" />
<text x="904.00" y="482.00" font-size="11" font-family="Arial" fill="#52606d" text-anchor="middle">07/15</text>
<polyline fill="none" stroke="#1f77b4" stroke-width="2" points="56.00,442.14 59.27,437.51 62.55,433.75 65.82,433.43 69.10,433.15 72.37,432.77 75.64,431.25 78.92,431.19 82.19,427.54 85.47,430.05 88.74,431.63 92.02,432.83 95.29,430.10 98.56,427.05 101.84,425.91 105.11,427.49 108.39,423.84 111.66,421.66 114.93,420.03 118.21,415.94 121.48,416.98 124.76,418.90 128.03,418.08 131.31,416.43 134.58,416.98 137.85,416.16 141.13,419.45 144.40,416.43 147.68,413.42 150.95,415.89 154.22,417.53 157.50,413.97 160.77,416.43 164.05,408.48 167.32,408.48 170.59,406.29 173.87,406.01 177.14,403.54 180.42,404.64 183.69,404.64 186.97,403.82 190.24,404.37 193.51,412.59 196.79,410.95 200.06,412.32 203.34,407.11 206.61,406.83 209.88,405.46 213.16,408.21 216.43,408.21 219.71,410.95 222.98,410.95 226.25,411.22 229.53,409.30 232.80,406.29 236.08,403.54 239.35,400.53 242.63,394.77 245.90,392.02 249.17,389.01 252.45,389.01 255.72,384.89 259.00,387.09 262.27,383.79 265.54,383.52 268.82,381.33 272.09,375.57 275.37,375.84 278.64,376.94 281.92,382.15 285.19,379.13 288.46,377.49 291.74,371.45 295.01,366.79 298.29,357.74 301.56,360.75 304.83,358.28 308.11,361.58 311.38,363.22 314.66,357.19 317.93,350.60 321.20,355.82 324.48,350.06 327.75,349.51 331.03,352.25 334.30,354.17 337.58,346.22 340.85,348.68 344.12,342.92 347.40,342.92 350.67,341.00 353.95,344.30 357.22,345.39 360.49,349.78 363.77,348.96 367.04,353.07 370.32,348.68 373.59,351.15 376.86,349.51 380.14,351.15 383.41,357.74 386.69,356.64 389.96,364.59 393.24,366.79 396.51,356.64 399.78,367.89 403.06,369.53 406.33,365.14 409.61,359.66 412.88,356.64 416.15,354.17 419.43,358.83 422.70,357.74 425.98,354.44 429.25,354.99 432.53,351.98 435.80,346.76 439.07,347.31 442.35,344.84 445.62,348.68 448.90,348.14 452.17,351.70 455.44,354.72 458.72,356.64 461.99,356.64 465.27,353.35 468.54,348.41 471.81,346.76 475.09,345.94 478.36,342.92 481.64,338.26 484.91,338.81 488.19,336.34 491.46,328.94 494.73,314.95 498.01,310.01 501.28,313.03 504.56,311.66 507.83,313.03 511.10,310.28 514.38,308.36 517.65,308.09 520.93,308.64 524.20,301.23 527.47,297.94 530.75,297.94 534.02,302.06 537.30,296.77 540.57,294.27 543.85,294.27 547.12,289.82 550.39,283.42 553.67,285.92 556.94,292.32 560.22,298.44 563.49,290.37 566.76,290.65 570.04,295.66 573.31,296.21 576.59,284.81 579.86,276.19 583.14,266.73 586.41,265.62 589.68,254.49 592.96,245.03 596.23,244.75 599.51,249.20 602.78,258.11 606.05,275.63 609.33,265.62 612.60,268.68 615.88,286.76 619.15,277.86 622.42,261.17 625.70,270.07 628.97,273.68 632.25,275.63 635.52,269.79 638.80,263.39 642.07,273.40 645.34,273.96 648.62,283.14 651.89,282.31 655.17,272.29 658.44,274.52 661.71,278.97 664.99,285.09 668.26,293.71 671.54,276.46 674.81,284.81 678.08,277.30 681.36,255.60 684.63,255.88 687.91,246.98 691.18,247.81 694.46,233.91 697.73,228.06 701.00,223.34 704.28,228.06 707.55,225.84 710.83,217.77 714.10,215.83 717.37,215.83 720.65,195.80 723.92,178.83 727.20,184.39 730.47,191.35 733.75,192.74 737.02,169.93 740.29,169.93 743.57,163.53 746.84,152.68 750.12,156.58 753.39,157.13 756.66,157.41 759.94,164.92 763.21,161.86 766.49,165.48 769.76,168.26 773.03,178.27 776.31,181.61 779.58,162.97 782.86,154.91 786.13,135.44 789.41,139.33 792.68,125.70 795.95,137.11 799.23,109.85 802.50,109.29 805.78,108.18 809.05,97.61 812.32,105.95 815.60,116.80 818.87,134.60 822.15,120.42 825.42,138.50 828.69,140.72 831.97,129.04 835.24,110.68 838.52,107.06 841.79,106.51 845.07,99.28 848.34,77.86 851.61,83.70 854.89,100.11 858.16,99.83 861.44,122.64 864.71,115.13 867.98,96.49 871.26,87.87 874.53,90.93 877.81,93.43 881.08,93.99 884.36,105.40 887.63,106.23 890.90,107.62 894.18,107.62 897.45,106.51 900.73,115.41 904.00,104.84" />
<text x="780.00" y="60.00" font-size="14" font-family="Arial" fill="#1f77b4" text-anchor="start">Close</text>
<polyline fill="none" stroke="#2ca02c" stroke-width="2" points="118.21,429.46 121.48,428.21 124.76,427.28 128.03,426.49 131.31,425.64 134.58,424.83 137.85,424.00 141.13,423.41 144.40,422.68 147.68,421.97 150.95,421.26 154.22,420.56 157.50,419.61 160.77,418.93 164.05,418.00 167.32,417.13 170.59,416.07 173.87,415.18 177.14,414.27 180.42,413.50 183.69,412.94 186.97,412.28 190.24,411.55 193.51,411.28 196.79,411.00 200.06,410.77 203.34,410.32 206.61,409.69 209.88,409.14 213.16,408.88 216.43,408.49 219.71,408.16 222.98,408.01 226.25,407.75 229.53,407.79 232.80,407.68 236.08,407.55 239.35,407.27 242.63,406.83 245.90,406.20 249.17,405.42 252.45,404.68 255.72,403.71 259.00,402.43 262.27,401.07 265.54,399.63 268.82,398.35 272.09,396.78 275.37,395.30 278.64,393.74 281.92,392.43 285.19,390.84 288.46,389.17 291.74,387.18 295.01,385.06 298.29,382.63 301.56,380.49 304.83,378.38 308.11,376.72 311.38,375.28 314.66,373.69 317.93,371.77 321.20,370.31 324.48,368.46 327.75,366.75 331.03,365.18 334.30,363.83 337.58,362.36 340.85,361.00 344.12,359.30 347.40,357.34 350.67,355.43 353.95,353.77 357.22,352.47 360.49,351.62 363.77,351.18 367.04,350.80 370.32,350.32 373.59,349.80 376.86,349.11 380.14,348.81 383.41,349.16 386.69,349.21 389.96,349.93 393.24,350.80 396.51,351.02 399.78,351.70 403.06,352.87 406.33,353.69 409.61,354.53 412.88,355.21 416.15,355.87 419.43,356.60 422.70,357.22 425.98,357.45 429.25,357.75 432.53,357.70 435.80,357.60 439.07,357.41 442.35,357.17 445.62,357.05 448.90,356.57 452.17,356.32 455.44,355.83 458.72,355.32 461.99,355.32 465.27,354.60 468.54,353.54 471.81,352.62 475.09,351.94 478.36,351.25 481.64,350.45 484.91,349.45 488.19,348.38 491.46,347.11 494.73,345.11 498.01,343.01 501.28,341.32 504.56,339.54 507.83,337.95 511.10,336.03 514.38,334.04 517.65,331.86 520.93,329.55 524.20,326.78 527.47,323.85 530.75,321.08 534.02,318.76 537.30,316.26 540.57,313.68 543.85,311.24 547.12,308.82 550.39,306.05 553.67,303.53 556.94,301.70 560.22,300.87 563.49,299.89 566.76,298.77 570.04,297.97 573.31,297.13 576.59,295.86 579.86,294.25 583.14,292.18 586.41,290.03 589.68,287.69 592.96,285.05 596.23,282.39 599.51,279.75 602.78,277.81 606.05,276.88 609.33,275.45 612.60,274.39 615.88,274.56 619.15,274.16 622.42,272.60 625.70,271.18 628.97,270.35 632.25,269.59 635.52,268.30 638.80,266.66 642.07,266.09 645.34,265.98 648.62,266.80 651.89,267.63 655.17,268.52 658.44,270.00 661.71,271.71 664.99,273.50 668.26,275.28 671.54,275.32 674.81,276.28 678.08,276.71 681.36,275.16 684.63,274.06 687.91,273.35 691.18,272.24 694.46,270.25 697.73,267.87 701.00,265.55 704.28,263.78 707.55,261.40 710.83,258.59 714.10,255.23 717.37,251.90 720.65,248.08 723.92,243.29 727.20,238.57 730.47,233.88 733.75,228.83 737.02,223.50 740.29,217.76 743.57,212.07 746.84,206.92 750.12,201.96 753.39,197.47 756.66,192.95 759.94,189.50 763.21,186.19 766.49,183.29 769.76,180.30 773.03,177.93 776.31,176.12 779.58,173.48 782.86,170.43 786.13,167.41 789.41,165.44 792.68,162.50 795.95,159.79 799.23,155.65 802.50,152.61 805.78,149.53 809.05,146.23 812.32,143.89 815.60,141.90 818.87,140.78 822.15,138.93 825.42,137.61 828.69,136.55 831.97,134.73 835.24,131.85 838.52,128.29 841.79,124.53 845.07,121.35 848.34,117.50 851.61,114.91 854.89,112.95 858.16,111.65 861.44,110.93 864.71,111.19 867.98,110.56 871.26,109.54 874.53,109.21 877.81,108.58 881.08,107.44 884.36,105.98 887.63,105.27 890.90,103.73 894.18,102.07 897.45,100.94 900.73,101.18 904.00,101.07" />
<text x="780.00" y="82.00" font-size="14" font-family="Arial" fill="#2ca02c" text-anchor="start">MA20</text>
<polyline fill="none" stroke="#ff7f0e" stroke-width="2" points="249.17,415.94 252.45,415.06 255.72,414.18 259.00,413.40 262.27,412.57 265.54,411.75 268.82,410.89 272.09,409.96 275.37,409.04 278.64,408.19 281.92,407.40 285.19,406.52 288.46,405.60 291.74,404.62 295.01,403.62 298.29,402.48 301.56,401.37 304.83,400.28 308.11,399.27 311.38,398.33 314.66,397.35 317.93,396.24 321.20,395.19 324.48,394.06 327.75,392.94 331.03,391.86 334.30,390.83 337.58,389.61 340.85,388.48 344.12,387.30 347.40,386.09 350.67,384.81 353.95,383.65 357.22,382.47 360.49,381.49 363.77,380.50 367.04,379.61 370.32,378.66 373.59,377.78 376.86,376.86 380.14,375.97 383.41,375.20 386.69,374.41 389.96,373.61 393.24,372.87 396.51,371.94 399.78,371.29 403.06,370.67 406.33,370.00 409.61,369.19 412.88,368.33 416.15,367.38 419.43,366.51 422.70,365.62 425.98,364.71 429.25,363.85 432.53,362.99 435.80,362.10 439.07,361.31 442.35,360.52 445.62,359.85 448.90,359.17 452.17,358.61 455.44,358.07 458.72,357.62 461.99,357.17 465.27,356.71 468.54,356.26 471.81,355.77 475.09,355.25 478.36,354.60 481.64,353.92 484.91,353.27 488.19,352.69 491.46,352.06 494.73,351.35 498.01,350.50 501.28,349.75 504.56,348.91 507.83,348.08 511.10,347.30 514.38,346.59 517.65,345.80 520.93,345.11 524.20,344.30 527.47,343.40 530.75,342.46 534.02,341.72 537.30,340.86 540.57,340.05 543.85,339.24 547.12,338.38 550.39,337.37 553.67,336.38 556.94,335.42 560.22,334.58 563.49,333.53 566.76,332.56 570.04,331.64 573.31,330.75 576.59,329.65 579.86,328.29 583.14,326.79 586.41,325.14 589.68,323.27 592.96,321.41 596.23,319.35 599.51,317.35 602.78,315.56 606.05,314.16 609.33,312.65 612.60,311.22 615.88,310.02 619.15,308.69 622.42,307.14 625.70,305.72 628.97,304.41 632.25,303.23 635.52,301.94 638.80,300.58 642.07,299.32 645.34,298.09 648.62,296.95 651.89,295.74 655.17,294.33 658.44,292.96 661.71,291.72 664.99,290.67 668.26,289.79 671.54,288.63 674.81,287.66 678.08,286.64 681.36,285.26 684.63,283.91 687.91,282.55 691.18,281.43 694.46,280.16 697.73,278.75 701.00,277.27 704.28,275.86 707.55,274.45 710.83,272.94 714.10,271.40 717.37,269.86 720.65,268.10 723.92,266.11 727.20,264.22 730.47,262.38 733.75,260.64 737.02,258.57 740.29,256.50 743.57,254.39 746.84,252.21 750.12,250.06 753.39,247.80 756.66,245.45 759.94,243.36 763.21,241.22 766.49,239.05 769.76,236.91 773.03,235.14 776.31,233.56 779.58,231.83 782.86,229.99 786.13,228.00 789.41,226.24 792.68,224.26 795.95,222.39 799.23,219.92 802.50,217.15 805.78,214.52 809.05,211.67 812.32,208.66 815.60,205.97 818.87,203.86 822.15,201.37 825.42,199.12 828.69,196.87 831.97,194.52 835.24,191.98 838.52,189.21 841.79,186.41 845.07,183.35 848.34,179.94 851.61,176.80 854.89,173.89 858.16,170.91 861.44,168.20 864.71,165.22 867.98,162.22 871.26,158.94 874.53,155.84 877.81,153.13 881.08,150.43 884.36,148.07 887.63,145.71 890.90,143.61 894.18,141.60 897.45,139.66 900.73,137.78 904.00,135.76" />
<text x="780.00" y="104.00" font-size="14" font-family="Arial" fill="#ff7f0e" text-anchor="start">MA60</text>
<polyline fill="none" stroke="#d62728" stroke-width="2" points="707.55,348.67 710.83,347.55 714.10,346.44 717.37,345.35 720.65,344.17 723.92,342.89 727.20,341.65 730.47,340.45 733.75,339.26 737.02,337.97 740.29,336.67 743.57,335.33 746.84,333.93 750.12,332.56 753.39,331.21 756.66,329.87 759.94,328.56 763.21,327.25 766.49,325.97 769.76,324.71 773.03,323.52 776.31,322.34 779.58,321.06 782.86,319.75 786.13,318.34 789.41,316.96 792.68,315.50 795.95,314.09 799.23,312.56 802.50,311.04 805.78,309.50 809.05,307.90 812.32,306.36 815.60,304.86 818.87,303.49 822.15,302.05 825.42,300.71 828.69,299.39 831.97,298.01 835.24,296.54 838.52,295.06 841.79,293.57 845.07,292.04 848.34,290.37 851.61,288.73 854.89,287.17 858.16,285.64 861.44,284.22 864.71,282.76 867.98,281.21 871.26,279.60 874.53,278.00 877.81,276.42 881.08,274.83 884.36,273.31 887.63,271.81 890.90,270.33 894.18,268.87 897.45,267.42 900.73,266.04 904.00,264.62" />
<text x="780.00" y="126.00" font-size="14" font-family="Arial" fill="#d62728" text-anchor="start">MA200</text>
</svg>