<svg xmlns="http://www.w3.org/2000/svg" width="960" height="520" viewBox="0 0 960 520"><rect width="100%" height="100%" fill="white" />
<text x="56.00" y="32.00" font-size="20" font-family="Arial" fill="#1f2933" text-anchor="start">富邦科技(0052) Price and Moving Averages</text>
<line x1="56" y1="464" x2="904" y2="464" stroke="#cbd2d9" />
<line x1="56" y1="56" x2="56" y2="464" stroke="#cbd2d9" />
<text x="16.00" y="38.00" font-size="12" font-family="Arial" fill="#52606d" text-anchor="start">Price</text>
<line x1="56" y1="464.00" x2="904" y2="464.00" stroke="#edf2f7" />
<line x1="52" y1="464.00" x2="56" y2="464.00" stroke="#9fb3c8" />
<text x="48.00" y="468.00" font-size="11" font-family="Arial" fill="#52606d" text-anchor="end">21.0</text>
<line x1="56" y1="362.00" x2="904" y2="362.00" stroke="#edf2f7" />
<line x1="52" y1="362.00" x2="56" y2="362.00" stroke="#9fb3c8" />
<text x="48.00" y="366.00" font-size="11" font-family="Arial" fill="#52606d" text-anchor="end">82.8</text>
<line x1="56" y1="260.00" x2="904" y2="260.00" stroke="#edf2f7" />
<line x1="52" y1="260.00" x2="56" y2="260.00" stroke="#9fb3c8" />
<text x="48.00" y="264.00" font-size="11" font-family="Arial" fill="#52606d" text-anchor="end">145</text>
<line x1="56" y1="158.00" x2="904" y2="158.00" stroke="#edf2f7" />
<line x1="52" y1="158.00" x2="56" y2="158.00" stroke="#9fb3c8" />
<text x="48.00" y="162.00" font-size="11" font-family="Arial" fill="#52606d" text-anchor="end">206</text>
<line x1="56" y1="56.00" x2="904" y2="56.00" stroke="#edf2f7" />
<line x1="52" y1="56.00" x2="56" y2="56.00" stroke="#9fb3c8" />
<text x="48.00" y="60.00" font-size="11" font-family="Arial" fill="#52606d" text-anchor="end">268</text>
<line x1="56.00" y1="464" x2="56.00" y2="468" stroke="#9fb3c8" />
<text x="56.00" y="482.00" font-size="11" font-family="Arial" fill="#52606d" text-anchor="middle">06/13</text>
<line x1="226.25" y1="464" x2="226.25" y2="468" stroke="#9fb3c8" />
<text x="226.25" y="482.00" font-size="11" font-family="Arial" fill="#52606d" text-anchor="middle">08/26</text>
<line x1="396.51" y1="464" x2="396.51" y2="468" stroke="#9fb3c8" />
<text x="396.51" y="482.00" font-size="11" font-family="Arial" fill="#52606d" text-anchor="middle">11/12</text>
<line x1="563.49" y1="464" x2="563.49" y2="468" stroke="#9fb3c8" />
<text x="563.49" y="482.00" font-size="11" font-family="Arial" fill="#52606d" text-anchor="middle">01/26</text>
<line x1="733.75" y1="464" x2="733.75" y2="468" stroke="#9fb3c8" />
<text x="733.75" y="482.00" font-size="11" font-family="Arial" fill="#52606d" text-anchor="middle">04/22</text>
<line x1="904.00" y1="464" x2="904.00" y2="468" stroke="#9fb3c8" />
<text x="904.00" y="482.00" font-size="11" font-family="Arial" fill="#52606d" text-anchor="middle">07/07</text>
<polyline fill="none" stroke="#1f77b4" stroke-width="2" points="56.00,206.64 59.27,206.56 62.55,204.30 65.82,200.92 69.10,204.22 72.37,203.82 75.64,206.88 78.92,201.24 82.19,197.21 85.47,196.49 88.74,196.09 92.02,195.60 95.29,194.32 98.56,192.95 101.84,190.21 105.11,192.38 108.39,194.23 111.66,196.49 114.93,191.66 118.21,188.60 121.48,187.79 124.76,189.72 128.03,185.62 131.31,181.51 134.58,180.70 137.85,176.11 141.13,177.00 144.40,179.82 147.68,177.89 150.95,175.79 154.22,176.19 157.50,175.31 160.77,179.58 164.05,176.11 167.32,171.60 170.59,175.87 173.87,177.72 177.14,174.18 180.42,177.81 183.69,166.13 186.97,167.01 190.24,164.03 193.51,163.71 196.79,161.70 200.06,163.79 203.34,164.44 206.61,162.18 209.88,163.47 213.16,174.91 216.43,171.52 219.71,174.02 222.98,165.56 226.25,164.52 229.53,161.05 232.80,165.48 236.08,165.16 239.35,169.59 242.63,170.72 245.90,170.80 249.17,168.38 252.45,164.36 255.72,160.65 259.00,157.27 262.27,150.34 265.54,146.72 268.82,143.42 272.09,144.14 275.37,137.37 278.64,140.03 281.92,137.29 285.19,136.41 288.46,134.15 291.74,125.05 295.01,124.65 298.29,127.07 301.56,133.43 304.83,129.72 308.11,128.19 311.38,120.14 314.66,113.46 317.93,101.62 321.20,105.40 324.48,100.25 327.75,107.90 331.03,109.83 334.30,102.74 337.58,91.39 340.85,98.88 344.12,91.31 347.40,90.74 350.67,93.96 353.95,97.59 357.22,86.56 360.49,89.05 363.77,79.79 367.04,79.79 370.32,77.86 373.59,81.80 376.86,84.06 380.14,90.10 383.41,88.09 386.69,93.48 389.96,86.47 393.24,90.10 396.51,87.36 399.78,89.29 403.06,98.31 406.33,441.29 409.61,442.14 412.88,442.14 416.15,442.14 419.43,442.14 422.70,442.14 425.98,442.14 429.25,441.65 432.53,441.12 435.80,440.59 439.07,441.63 442.35,441.55 445.62,440.91 448.90,441.12 452.17,440.41 455.44,439.28 458.72,439.36 461.99,438.96 465.27,439.72 468.54,439.57 471.81,440.52 475.09,441.16 478.36,441.47 481.64,441.71 484.91,441.18 488.19,440.26 491.46,439.86 494.73,439.72 498.01,439.17 501.28,438.35 504.56,438.27 507.83,437.56 511.10,436.16 514.38,433.51 517.65,432.39 520.93,432.92 524.20,432.81 527.47,433.09 530.75,432.71 534.02,432.16 537.30,431.98 540.57,432.39 543.85,430.82 547.12,430.16 550.39,429.91 553.67,430.76 556.94,430.26 560.22,429.63 563.49,429.57 566.76,428.65 570.04,427.34 573.31,427.78 576.59,428.87 579.86,430.10 583.14,428.73 586.41,428.63 589.68,429.55 592.96,429.79 596.23,427.91 599.51,426.18 602.78,424.38 606.05,424.82 609.33,422.43 612.60,420.66 615.88,420.60 619.15,421.43 622.42,423.19 625.70,426.52 628.97,424.74 632.25,425.14 635.52,428.71 638.80,426.81 642.07,423.75 645.34,425.06 648.62,425.62 651.89,425.83 655.17,425.01 658.44,423.77 661.71,425.23 664.99,425.69 668.26,427.55 671.54,427.51 674.81,425.98 678.08,426.27 681.36,426.91 684.63,428.26 687.91,429.62 691.18,426.54 694.46,428.00 697.73,426.85 701.00,422.96 704.28,423.04 707.55,421.37 710.83,421.50 714.10,419.13 717.37,417.73 720.65,416.92 723.92,417.97 727.20,417.39 730.47,416.17 733.75,415.66 737.02,415.50 740.29,411.62 743.57,408.07 746.84,409.80 750.12,411.04 753.39,411.70 756.66,407.16 759.94,407.16 763.21,406.01 766.49,403.61 769.76,404.36 773.03,404.60 776.31,404.69 779.58,405.92 782.86,405.18 786.13,406.25 789.41,406.42 792.68,408.15 795.95,408.73 799.23,405.51 802.50,403.45 805.78,400.23 809.05,400.81 812.32,398.83 815.60,400.56 818.87,397.10 822.15,396.19 825.42,395.11 828.69,393.63 831.97,395.78 835.24,397.92 838.52,401.47 841.79,399.32 845.07,402.46 848.34,402.62 851.61,400.23 854.89,396.93 858.16,396.52 861.44,396.02 864.71,394.95 867.98,390.91 871.26,391.98 874.53,394.54 877.81,394.62 881.08,398.58 884.36,397.34 887.63,394.04 890.90,392.31 894.18,392.80 897.45,393.71 900.73,393.71 904.00,395.94" />
<text x="780.00" y="60.00" font-size="14" font-family="Arial" fill="#1f77b4" text-anchor="start">Close</text>
<polyline fill="none" stroke="#2ca02c" stroke-width="2" points="118.21,198.04 121.48,197.10 124.76,196.26 128.03,195.32 131.31,194.35 134.58,193.18 137.85,191.79 141.13,190.30 144.40,189.23 147.68,188.26 150.95,187.22 154.22,186.23 157.50,185.21 160.77,184.48 164.05,183.64 167.32,182.71 170.59,181.88 173.87,181.05 177.14,179.94 180.42,179.25 183.69,178.12 186.97,177.08 190.24,175.80 193.51,174.70 196.79,173.71 200.06,172.87 203.34,172.28 206.61,171.54 209.88,170.73 213.16,170.58 216.43,170.36 219.71,170.25 222.98,169.77 226.25,169.01 229.53,168.26 232.80,167.96 236.08,167.42 239.35,167.01 242.63,166.84 245.90,166.49 249.17,166.60 252.45,166.47 255.72,166.30 259.00,165.98 262.27,165.41 265.54,164.56 268.82,163.51 272.09,162.60 275.37,161.30 278.64,159.56 281.92,157.84 285.19,155.96 288.46,154.39 291.74,152.42 295.01,150.60 298.29,148.68 301.56,147.09 304.83,145.10 308.11,142.97 311.38,140.44 314.66,137.69 317.93,134.56 321.20,131.79 324.48,128.94 327.75,126.82 331.03,124.98 334.30,122.94 337.58,120.30 340.85,118.38 344.12,115.94 347.40,113.62 350.67,111.49 353.95,109.67 357.22,107.74 360.49,105.96 363.77,103.60 367.04,100.92 370.32,98.32 373.59,96.00 376.86,94.20 380.14,93.03 383.41,92.35 386.69,91.76 389.96,91.07 393.24,90.18 396.51,89.06 399.78,88.38 403.06,88.73 406.33,105.85 409.61,123.39 412.88,140.96 416.15,158.37 419.43,175.60 422.70,193.38 425.98,211.03 429.25,229.13 432.53,247.19 435.80,265.33 439.07,283.32 442.35,301.19 445.62,318.73 448.90,336.39 452.17,353.73 455.44,371.37 458.72,388.84 461.99,406.42 465.27,423.94 468.54,441.00 471.81,440.96 475.09,440.91 478.36,440.88 481.64,440.86 484.91,440.81 488.19,440.72 491.46,440.60 494.73,440.50 498.01,440.41 501.28,440.30 504.56,440.13 507.83,439.93 511.10,439.69 514.38,439.31 517.65,438.91 520.93,438.59 524.20,438.26 527.47,437.97 530.75,437.62 534.02,437.25 537.30,436.82 540.57,436.38 543.85,435.85 547.12,435.27 550.39,434.71 553.67,434.23 556.94,433.75 560.22,433.25 563.49,432.77 566.76,432.28 570.04,431.74 573.31,431.25 576.59,430.89 579.86,430.72 583.14,430.53 586.41,430.32 589.68,430.16 592.96,429.99 596.23,429.75 599.51,429.45 602.78,429.07 606.05,428.69 609.33,428.27 612.60,427.80 615.88,427.33 619.15,426.87 622.42,426.51 625.70,426.36 628.97,426.12 632.25,425.94 635.52,426.01 638.80,425.96 642.07,425.70 645.34,425.45 648.62,425.30 651.89,425.16 655.17,424.93 658.44,424.63 661.71,424.49 664.99,424.47 668.26,424.63 671.54,424.76 674.81,424.94 678.08,425.22 681.36,425.54 684.63,425.88 687.91,426.20 691.18,426.20 694.46,426.36 697.73,426.45 701.00,426.16 704.28,425.97 707.55,425.85 710.83,425.67 714.10,425.35 717.37,424.95 720.65,424.54 723.92,424.25 727.20,423.86 730.47,423.38 733.75,422.79 737.02,422.19 740.29,421.47 743.57,420.56 746.84,419.71 750.12,418.84 753.39,417.95 756.66,416.98 759.94,415.94 763.21,414.90 766.49,413.93 769.76,412.99 773.03,412.16 776.31,411.31 779.58,410.65 782.86,410.03 786.13,409.49 789.41,408.92 792.68,408.45 795.95,408.08 799.23,407.57 802.50,406.97 805.78,406.40 809.05,406.04 812.32,405.49 815.60,404.97 818.87,404.24 822.15,403.69 825.42,403.09 828.69,402.47 831.97,402.08 835.24,401.75 838.52,401.60 841.79,401.33 845.07,401.16 848.34,401.03 851.61,400.73 854.89,400.25 858.16,399.67 861.44,399.03 864.71,398.51 867.98,397.88 871.26,397.47 874.53,397.15 877.81,396.94 881.08,396.84 884.36,396.86 887.63,396.75 890.90,396.61 894.18,396.57 897.45,396.46 900.73,396.25 904.00,395.98" />
<text x="780.00" y="82.00" font-size="14" font-family="Arial" fill="#2ca02c" text-anchor="start">MA20</text>
<polyline fill="none" stroke="#ff7f0e" stroke-width="2" points="249.17,180.92 252.45,180.22 255.72,179.45 259.00,178.67 262.27,177.83 265.54,176.87 268.82,175.86 272.09,174.81 275.37,173.75 278.64,172.80 281.92,171.81 285.19,170.82 288.46,169.79 291.74,168.64 295.01,167.50 298.29,166.45 301.56,165.46 304.83,164.39 308.11,163.25 311.38,162.06 314.66,160.81 317.93,159.37 321.20,157.96 324.48,156.54 327.75,155.31 331.03,154.13 334.30,152.91 337.58,151.48 340.85,150.13 344.12,148.69 347.40,147.27 350.67,145.90 353.95,144.61 357.22,143.06 360.49,141.61 363.77,140.08 367.04,138.48 370.32,136.81 373.59,135.27 376.86,133.71 380.14,132.44 383.41,131.13 386.69,129.95 389.96,128.66 393.24,127.47 396.51,126.20 399.78,124.94 403.06,123.88 406.33,128.51 409.61,132.96 412.88,137.47 416.15,141.94 419.43,146.55 422.70,151.18 425.98,155.86 429.25,160.47 432.53,165.07 435.80,169.58 439.07,174.10 442.35,178.61 445.62,183.15 448.90,187.77 452.17,192.43 455.44,197.13 458.72,201.95 461.99,206.82 465.27,211.75 468.54,216.68 471.81,221.73 475.09,226.75 478.36,231.82 481.64,236.91 484.91,242.02 488.19,247.28 491.46,252.53 494.73,257.74 498.01,262.84 501.28,267.98 504.56,273.15 507.83,278.44 511.10,283.82 514.38,289.35 517.65,294.80 520.93,300.34 524.20,305.76 527.47,311.15 530.75,316.65 534.02,322.33 537.30,327.88 540.57,333.56 543.85,339.23 547.12,344.83 550.39,350.37 553.67,356.11 556.94,361.80 560.22,367.63 563.49,373.46 566.76,379.30 570.04,385.06 573.31,390.79 576.59,396.44 579.86,402.14 583.14,407.72 586.41,413.43 589.68,419.08 592.96,424.79 596.23,430.44 599.51,435.90 602.78,435.62 606.05,435.33 609.33,435.00 612.60,434.64 615.88,434.28 619.15,433.94 622.42,433.62 625.70,433.37 628.97,433.10 632.25,432.84 635.52,432.62 638.80,432.38 642.07,432.09 645.34,431.83 648.62,431.58 651.89,431.35 655.17,431.12 658.44,430.86 661.71,430.62 664.99,430.39 668.26,430.17 671.54,429.95 674.81,429.69 678.08,429.43 681.36,429.19 684.63,428.99 687.91,428.82 691.18,428.60 694.46,428.42 697.73,428.22 701.00,427.97 704.28,427.73 707.55,427.48 710.83,427.28 714.10,427.06 717.37,426.81 720.65,426.54 723.92,426.29 727.20,426.03 730.47,425.77 733.75,425.50 737.02,425.21 740.29,424.89 743.57,424.53 746.84,424.19 750.12,423.86 753.39,423.55 756.66,423.18 759.94,422.81 763.21,422.43 766.49,422.03 769.76,421.64 773.03,421.24 776.31,420.81 779.58,420.43 782.86,420.04 786.13,419.65 789.41,419.27 792.68,418.94 795.95,418.64 799.23,418.33 802.50,417.97 805.78,417.60 809.05,417.27 812.32,416.91 815.60,416.56 818.87,416.13 822.15,415.62 825.42,415.13 828.69,414.60 831.97,414.05 835.24,413.57 838.52,413.20 841.79,412.77 845.07,412.39 848.34,412.00 851.61,411.59 854.89,411.14 858.16,410.66 861.44,410.17 864.71,409.62 867.98,409.01 871.26,408.45 874.53,407.92 877.81,407.38 881.08,406.88 884.36,406.35 887.63,405.81 890.90,405.21 894.18,404.64 897.45,404.16 900.73,403.67 904.00,403.24" />
<text x="780.00" y="104.00" font-size="14" font-family="Arial" fill="#ff7f0e" text-anchor="start">MA60</text>
<polyline fill="none" stroke="#d62728" stroke-width="2" points="707.55,281.44 710.83,282.51 714.10,283.57 717.37,284.64 720.65,285.72 723.92,286.79 727.20,287.86 730.47,288.90 733.75,289.98 737.02,291.07 740.29,292.14 743.57,293.20 746.84,294.27 750.12,295.36 753.39,296.45 756.66,297.54 759.94,298.61 763.21,299.67 766.49,300.70 769.76,301.77 773.03,302.85 776.31,303.93 779.58,305.01 782.86,306.11 786.13,307.23 789.41,308.36 792.68,309.52 795.95,310.68 799.23,311.81 802.50,312.94 805.78,314.06 809.05,315.18 812.32,316.30 815.60,317.41 818.87,318.51 822.15,319.63 825.42,320.73 828.69,321.81 831.97,322.92 835.24,324.02 838.52,325.19 841.79,326.36 845.07,327.55 848.34,328.74 851.61,329.94 854.89,331.10 858.16,332.26 861.44,333.43 864.71,334.59 867.98,335.67 871.26,336.77 874.53,337.87 877.81,339.02 881.08,340.19 884.36,341.37 887.63,342.51 890.90,343.65 894.18,344.76 897.45,345.88 900.73,346.99 904.00,348.13" />
<text x="780.00" y="126.00" font-size="14" font-family="Arial" fill="#d62728" text-anchor="start">MA200</text>
</svg>