<svg xmlns="http://www.w3.org/2000/svg" width="960" height="520" viewBox="0 0 960 520"><rect width="100%" height="100%" fill="white" />
<text x="56.00" y="32.00" font-size="20" font-family="Arial" fill="#1f2933" text-anchor="start">主動統一台股增長(00981A) Price and Moving Averages</text>
<line x1="56" y1="464" x2="904" y2="464" stroke="#cbd2d9" />
<line x1="56" y1="56" x2="56" y2="464" stroke="#cbd2d9" />
<text x="16.00" y="38.00" font-size="12" font-family="Arial" fill="#52606d" text-anchor="start">Price</text>
<line x1="56" y1="464.00" x2="904" y2="464.00" stroke="#edf2f7" />
<line x1="52" y1="464.00" x2="56" y2="464.00" stroke="#9fb3c8" />
<text x="48.00" y="468.00" font-size="11" font-family="Arial" fill="#52606d" text-anchor="end">9.28</text>
<line x1="56" y1="362.00" x2="904" y2="362.00" stroke="#edf2f7" />
<line x1="52" y1="362.00" x2="56" y2="362.00" stroke="#9fb3c8" />
<text x="48.00" y="366.00" font-size="11" font-family="Arial" fill="#52606d" text-anchor="end">15.4</text>
<line x1="56" y1="260.00" x2="904" y2="260.00" stroke="#edf2f7" />
<line x1="52" y1="260.00" x2="56" y2="260.00" stroke="#9fb3c8" />
<text x="48.00" y="264.00" font-size="11" font-family="Arial" fill="#52606d" text-anchor="end">21.4</text>
<line x1="56" y1="158.00" x2="904" y2="158.00" stroke="#edf2f7" />
<line x1="52" y1="158.00" x2="56" y2="158.00" stroke="#9fb3c8" />
<text x="48.00" y="162.00" font-size="11" font-family="Arial" fill="#52606d" text-anchor="end">27.5</text>
<line x1="56" y1="56.00" x2="904" y2="56.00" stroke="#edf2f7" />
<line x1="52" y1="56.00" x2="56" y2="56.00" stroke="#9fb3c8" />
<text x="48.00" y="60.00" font-size="11" font-family="Arial" fill="#52606d" text-anchor="end">33.6</text>
<line x1="56.00" y1="464" x2="56.00" y2="468" stroke="#9fb3c8" />
<text x="56.00" y="482.00" font-size="11" font-family="Arial" fill="#52606d" text-anchor="middle">07/01</text>
<line x1="226.25" y1="464" x2="226.25" y2="468" stroke="#9fb3c8" />
<text x="226.25" y="482.00" font-size="11" font-family="Arial" fill="#52606d" text-anchor="middle">09/11</text>
<line x1="396.51" y1="464" x2="396.51" y2="468" stroke="#9fb3c8" />
<text x="396.51" y="482.00" font-size="11" font-family="Arial" fill="#52606d" text-anchor="middle">11/28</text>
<line x1="563.49" y1="464" x2="563.49" y2="468" stroke="#9fb3c8" />
<text x="563.49" y="482.00" font-size="11" font-family="Arial" fill="#52606d" text-anchor="middle">02/11</text>
<line x1="733.75" y1="464" x2="733.75" y2="468" stroke="#9fb3c8" />
<text x="733.75" y="482.00" font-size="11" font-family="Arial" fill="#52606d" text-anchor="middle">05/11</text>
<line x1="904.00" y1="464" x2="904.00" y2="468" stroke="#9fb3c8" />
<text x="904.00" y="482.00" font-size="11" font-family="Arial" fill="#52606d" text-anchor="middle">07/23</text>
<polyline fill="none" stroke="#1f77b4" stroke-width="2" points="56.00,442.14 59.27,441.66 62.55,439.24 65.82,439.72 69.10,441.82 72.37,440.21 75.64,436.33 78.92,436.01 82.19,436.82 85.47,438.75 88.74,436.01 92.02,434.24 95.29,433.59 98.56,429.72 101.84,431.17 105.11,434.08 108.39,433.59 111.66,431.33 114.93,431.82 118.21,429.72 121.48,431.17 124.76,430.85 128.03,425.36 131.31,425.20 134.58,428.43 137.85,424.72 141.13,425.04 144.40,420.04 147.68,415.68 150.95,412.29 154.22,411.65 157.50,409.23 160.77,409.39 164.05,408.10 167.32,403.42 170.59,409.39 173.87,418.43 177.14,415.36 180.42,415.84 183.69,410.20 186.97,409.07 190.24,404.07 193.51,404.55 196.79,400.68 200.06,408.75 203.34,411.00 206.61,410.20 209.88,410.20 213.16,405.52 216.43,404.07 219.71,402.45 222.98,396.81 226.25,397.13 229.53,398.42 232.80,401.32 236.08,399.71 239.35,400.84 242.63,396.16 245.90,397.94 249.17,397.13 252.45,396.81 255.72,398.74 259.00,401.32 262.27,406.97 265.54,400.84 268.82,400.84 272.09,397.29 275.37,393.58 278.64,393.74 281.92,393.90 285.19,391.16 288.46,394.71 291.74,398.26 295.01,392.13 298.29,389.38 301.56,392.45 304.83,389.71 308.11,386.48 311.38,387.77 314.66,388.09 317.93,382.29 321.20,376.15 324.48,372.77 327.75,370.67 331.03,366.15 334.30,363.73 337.58,366.47 340.85,369.54 344.12,364.38 347.40,369.70 350.67,364.86 353.95,365.67 357.22,366.47 360.49,364.22 363.77,369.86 367.04,367.44 370.32,377.45 373.59,377.93 376.86,367.93 380.14,380.67 383.41,380.67 386.69,374.22 389.96,368.25 393.24,362.60 396.51,358.08 399.78,363.73 403.06,365.34 406.33,364.54 409.61,366.31 412.88,362.12 416.15,360.50 419.43,360.83 422.70,356.47 425.98,356.47 429.25,354.86 432.53,358.25 435.80,363.89 439.07,365.67 442.35,366.64 445.62,361.96 448.90,357.76 452.17,357.12 455.44,353.73 458.72,349.69 461.99,348.57 465.27,348.40 468.54,347.11 471.81,349.05 475.09,348.57 478.36,343.24 481.64,347.27 484.91,349.37 488.19,350.66 491.46,349.21 494.73,349.37 498.01,345.18 501.28,346.47 504.56,344.85 507.83,347.11 511.10,344.53 514.38,348.08 517.65,339.05 520.93,334.21 524.20,333.24 527.47,327.11 530.75,324.36 534.02,326.30 537.30,330.33 540.57,335.01 543.85,324.53 547.12,320.17 550.39,327.27 553.67,332.43 556.94,324.04 560.22,318.88 563.49,315.33 566.76,313.55 570.04,307.91 573.31,296.94 576.59,294.03 579.86,295.81 583.14,300.49 586.41,319.36 589.68,305.33 592.96,300.81 596.23,323.72 599.51,313.39 602.78,296.45 606.05,294.68 609.33,293.55 612.60,292.90 615.88,284.83 619.15,275.61 622.42,273.47 625.70,273.80 628.97,285.00 632.25,290.43 635.52,276.27 638.80,275.45 642.07,276.76 645.34,283.19 648.62,299.16 651.89,279.73 655.17,286.97 658.44,278.41 661.71,254.37 664.99,248.11 668.26,239.05 671.54,240.70 674.81,230.99 678.08,219.79 681.36,207.11 684.63,206.61 687.91,192.12 691.18,185.21 694.46,176.15 697.73,181.58 701.00,162.15 704.28,160.51 707.55,161.99 710.83,163.14 714.10,154.25 717.37,132.02 720.65,134.82 723.92,137.45 727.20,132.84 730.47,143.87 733.75,131.03 737.02,126.42 740.29,137.78 743.57,135.15 746.84,151.94 750.12,154.91 753.39,167.26 756.66,171.54 759.94,144.70 763.21,126.75 766.49,99.41 769.76,101.39 773.03,93.65 776.31,114.07 779.58,100.57 782.86,97.93 786.13,104.02 789.41,96.12 792.68,103.53 795.95,112.59 799.23,127.74 802.50,105.67 805.78,127.74 809.05,130.70 812.32,116.04 815.60,101.72 818.87,102.05 822.15,101.05 825.42,90.63 828.69,78.36 831.97,88.95 835.24,90.96 838.52,90.63 841.79,117.35 845.07,116.84 848.34,94.32 851.61,82.23 854.89,81.39 858.16,77.86 861.44,95.67 864.71,118.52 867.98,120.03 871.26,116.67 874.53,116.67 877.81,126.76 881.08,142.72 884.36,126.25 887.63,133.48 890.90,175.82 894.18,184.73 897.45,154.15 900.73,141.04 904.00,137.85" />
<text x="780.00" y="60.00" font-size="14" font-family="Arial" fill="#1f77b4" text-anchor="start">Close</text>
<polyline fill="none" stroke="#2ca02c" stroke-width="2" points="118.21,435.90 121.48,435.35 124.76,434.81 128.03,434.12 131.31,433.39 134.58,432.72 137.85,431.95 141.13,431.38 144.40,430.58 147.68,429.53 150.95,428.20 154.22,426.98 157.50,425.73 160.77,424.52 164.05,423.44 167.32,422.06 170.59,420.82 173.87,420.06 177.14,419.26 180.42,418.47 183.69,417.49 186.97,416.38 190.24,415.05 193.51,414.00 196.79,412.78 200.06,411.79 203.34,411.11 206.61,410.37 209.88,409.87 213.16,409.37 216.43,408.95 219.71,408.50 222.98,407.87 226.25,407.26 229.53,406.78 232.80,406.67 236.08,406.19 239.35,405.31 242.63,404.35 245.90,403.45 249.17,402.80 252.45,402.19 255.72,401.92 259.00,401.76 262.27,402.07 265.54,401.68 268.82,401.17 272.09,400.52 275.37,399.69 278.64,399.11 281.92,398.60 285.19,398.03 288.46,397.93 291.74,397.98 295.01,397.67 298.29,397.07 301.56,396.71 304.83,396.15 308.11,395.67 311.38,395.16 314.66,394.71 317.93,393.98 321.20,392.85 324.48,391.43 327.75,389.61 331.03,387.88 334.30,386.02 337.58,384.48 340.85,383.28 344.12,381.81 347.40,380.60 350.67,379.28 353.95,377.83 357.22,376.24 360.49,374.85 363.77,373.87 367.04,372.62 370.32,372.01 373.59,371.58 376.86,370.59 380.14,370.22 383.41,370.14 386.69,370.04 389.96,369.81 393.24,369.41 396.51,369.01 399.78,369.01 403.06,368.95 406.33,368.70 409.61,368.80 412.88,368.42 416.15,368.20 419.43,367.96 422.70,367.46 425.98,367.07 429.25,366.32 432.53,365.86 435.80,365.18 439.07,364.57 442.35,364.51 445.62,363.57 448.90,362.42 452.17,361.57 455.44,360.84 458.72,360.20 461.99,359.72 465.27,358.96 468.54,358.04 471.81,357.27 475.09,356.38 478.36,355.44 481.64,354.78 484.91,354.20 488.19,353.91 491.46,353.55 494.73,353.28 498.01,352.62 501.28,351.75 504.56,350.71 507.83,349.73 511.10,348.86 514.38,348.38 517.65,347.48 520.93,346.50 524.20,345.68 527.47,344.60 530.75,343.40 534.02,342.36 537.30,341.43 540.57,340.75 543.85,339.81 547.12,338.46 550.39,337.35 553.67,336.44 556.94,335.18 560.22,333.66 563.49,332.16 566.76,330.52 570.04,328.67 573.31,326.16 576.59,323.64 579.86,321.02 583.14,319.10 586.41,318.35 589.68,316.96 592.96,315.64 596.23,315.61 599.51,314.97 602.78,313.27 606.05,311.25 609.33,309.71 612.60,308.34 615.88,306.22 619.15,303.38 622.42,300.85 625.70,298.60 628.97,297.08 632.25,295.92 635.52,294.34 638.80,293.27 642.07,292.41 645.34,291.77 648.62,291.71 651.89,289.73 655.17,288.81 658.44,287.69 661.71,284.22 664.99,280.96 668.26,278.09 671.54,275.39 674.81,272.26 678.08,268.60 681.36,264.72 684.63,261.27 687.91,257.20 691.18,252.77 694.46,247.33 697.73,241.89 701.00,236.18 704.28,230.43 707.55,224.70 710.83,218.69 714.10,211.45 717.37,204.06 720.65,196.45 723.92,189.41 727.20,183.33 730.47,178.12 733.75,172.72 737.02,167.00 740.29,162.34 743.57,158.11 746.84,155.35 750.12,152.77 753.39,151.52 756.66,150.84 759.94,149.27 763.21,146.53 766.49,143.39 769.76,140.43 773.03,137.02 776.31,134.56 779.58,131.88 782.86,130.17 786.13,128.63 789.41,126.57 792.68,125.10 795.95,123.54 799.23,123.37 802.50,122.34 805.78,121.83 809.05,121.61 812.32,119.82 815.60,117.16 818.87,113.90 822.15,110.37 825.42,107.67 828.69,105.25 831.97,104.73 835.24,104.20 838.52,104.05 841.79,104.22 845.07,105.03 848.34,104.85 851.61,103.76 854.89,103.02 858.16,101.74 861.44,100.89 864.71,100.43 867.98,101.15 871.26,100.60 874.53,99.90 877.81,100.43 881.08,102.48 884.36,103.69 887.63,105.31 890.90,109.57 894.18,114.89 897.45,118.15 900.73,120.66 904.00,123.02" />
<text x="780.00" y="82.00" font-size="14" font-family="Arial" fill="#2ca02c" text-anchor="start">MA20</text>
<polyline fill="none" stroke="#ff7f0e" stroke-width="2" points="249.17,418.73 252.45,417.97 255.72,417.26 259.00,416.63 262.27,416.08 265.54,415.40 268.82,414.74 272.09,414.09 275.37,413.38 278.64,412.67 281.92,411.92 285.19,411.17 288.46,410.51 291.74,409.92 295.01,409.30 298.29,408.60 301.56,407.91 304.83,407.17 308.11,406.43 311.38,405.69 314.66,405.00 317.93,404.18 321.20,403.27 324.48,402.40 327.75,401.49 331.03,400.45 334.30,399.43 337.58,398.46 340.85,397.62 344.12,396.76 347.40,396.05 350.67,395.27 353.95,394.54 357.22,393.83 360.49,393.10 363.77,392.54 367.04,391.84 370.32,391.16 373.59,390.53 376.86,389.73 380.14,389.24 383.41,388.77 386.69,388.27 389.96,387.67 393.24,387.03 396.51,386.19 399.78,385.40 403.06,384.65 406.33,383.89 409.61,383.24 412.88,382.54 416.15,381.84 419.43,381.24 422.70,380.56 425.98,379.86 429.25,379.09 432.53,378.40 435.80,377.78 439.07,377.27 442.35,376.75 445.62,376.17 448.90,375.51 452.17,374.82 455.44,374.03 458.72,373.07 461.99,372.20 465.27,371.33 468.54,370.49 471.81,369.75 475.09,369.00 478.36,368.15 481.64,367.42 484.91,366.66 488.19,365.87 491.46,365.16 494.73,364.49 498.01,363.70 501.28,362.98 504.56,362.29 507.83,361.61 511.10,360.88 514.38,360.31 517.65,359.69 520.93,359.05 524.20,358.43 527.47,357.78 530.75,357.12 534.02,356.45 537.30,355.80 540.57,355.31 543.85,354.56 547.12,353.81 550.39,353.17 553.67,352.60 556.94,351.93 560.22,351.08 563.49,350.22 566.76,349.15 570.04,347.98 573.31,346.80 576.59,345.36 579.86,343.94 583.14,342.71 586.41,341.90 589.68,340.94 592.96,339.99 596.23,339.32 599.51,338.46 602.78,337.32 606.05,336.13 609.33,334.99 612.60,333.86 615.88,332.59 619.15,331.24 622.42,329.86 625.70,328.51 628.97,327.29 632.25,326.07 635.52,324.58 638.80,323.06 642.07,321.64 645.34,320.39 648.62,319.43 651.89,318.19 655.17,317.15 658.44,315.98 661.71,314.41 664.99,312.76 668.26,310.93 671.54,309.13 674.81,307.26 678.08,305.13 681.36,302.76 684.63,300.36 687.91,297.74 691.18,295.01 694.46,292.19 697.73,289.44 701.00,286.40 704.28,283.29 707.55,280.25 710.83,277.16 714.10,274.08 717.37,270.71 720.65,267.41 723.92,264.25 727.20,261.05 730.47,258.01 733.75,254.69 737.02,251.22 740.29,248.10 743.57,245.02 746.84,242.10 750.12,239.14 753.39,236.53 756.66,234.07 759.94,231.23 763.21,228.11 766.49,224.64 769.76,221.38 773.03,218.04 776.31,215.01 779.58,211.68 782.86,207.99 786.13,204.63 789.41,201.22 792.68,197.55 795.95,194.20 799.23,191.39 802.50,188.24 805.78,185.48 809.05,182.78 812.32,179.96 815.60,177.06 818.87,174.21 822.15,171.33 825.42,168.09 828.69,164.55 831.97,161.43 835.24,158.36 838.52,155.25 841.79,152.49 845.07,149.45 848.34,146.36 851.61,142.95 854.89,139.67 858.16,136.72 861.44,134.18 864.71,132.17 867.98,130.16 871.26,128.26 874.53,126.54 877.81,125.20 881.08,124.14 884.36,123.04 887.63,122.18 890.90,122.17 894.18,122.22 897.45,122.09 900.73,121.76 904.00,121.36" />
<text x="780.00" y="104.00" font-size="14" font-family="Arial" fill="#ff7f0e" text-anchor="start">MA60</text>
<polyline fill="none" stroke="#d62728" stroke-width="2" points="707.55,357.43 710.83,356.03 714.10,354.60 717.37,353.06 720.65,351.54 723.92,350.01 727.20,348.48 730.47,347.01 733.75,345.49 737.02,343.94 740.29,342.43 743.57,340.93 746.84,339.52 750.12,338.12 753.39,336.81 756.66,335.51 759.94,334.07 763.21,332.53 766.49,330.87 769.76,329.22 773.03,327.54 776.31,325.95 779.58,324.30 782.86,322.67 786.13,321.06 789.41,319.40 792.68,317.79 795.95,316.23 799.23,314.77 802.50,313.22 805.78,311.80 809.05,310.39 812.32,308.93 815.60,307.39 818.87,305.86 822.15,304.35 825.42,302.75 828.69,301.05 831.97,299.42 835.24,297.79 838.52,296.20 841.79,294.74 845.07,293.30 848.34,291.75 851.61,290.16 854.89,288.52 858.16,286.86 861.44,285.28 864.71,283.82 867.98,282.40 871.26,280.96 874.53,279.53 877.81,278.18 881.08,276.91 884.36,275.55 887.63,274.21 890.90,273.09 894.18,272.01 897.45,270.80 900.73,269.51 904.00,268.22" />
<text x="780.00" y="126.00" font-size="14" font-family="Arial" fill="#d62728" text-anchor="start">MA200</text>
</svg>