<svg xmlns="http://www.w3.org/2000/svg" width="960" height="520" viewBox="0 0 960 520"><rect width="100%" height="100%" fill="white" />
<text x="56.00" y="32.00" font-size="20" font-family="Arial" fill="#1f2933" text-anchor="start">台達電(2308) Price and Moving Averages</text>
<line x1="56" y1="464" x2="904" y2="464" stroke="#cbd2d9" />
<line x1="56" y1="56" x2="56" y2="464" stroke="#cbd2d9" />
<text x="16.00" y="38.00" font-size="12" font-family="Arial" fill="#52606d" text-anchor="start">Price</text>
<line x1="56" y1="464.00" x2="904" y2="464.00" stroke="#edf2f7" />
<line x1="52" y1="464.00" x2="56" y2="464.00" stroke="#9fb3c8" />
<text x="48.00" y="468.00" font-size="11" font-family="Arial" fill="#52606d" text-anchor="end">285</text>
<line x1="56" y1="362.00" x2="904" y2="362.00" stroke="#edf2f7" />
<line x1="52" y1="362.00" x2="56" y2="362.00" stroke="#9fb3c8" />
<text x="48.00" y="366.00" font-size="11" font-family="Arial" fill="#52606d" text-anchor="end">872</text>
<line x1="56" y1="260.00" x2="904" y2="260.00" stroke="#edf2f7" />
<line x1="52" y1="260.00" x2="56" y2="260.00" stroke="#9fb3c8" />
<text x="48.00" y="264.00" font-size="11" font-family="Arial" fill="#52606d" text-anchor="end">1,459</text>
<line x1="56" y1="158.00" x2="904" y2="158.00" stroke="#edf2f7" />
<line x1="52" y1="158.00" x2="56" y2="158.00" stroke="#9fb3c8" />
<text x="48.00" y="162.00" font-size="11" font-family="Arial" fill="#52606d" text-anchor="end">2,046</text>
<line x1="56" y1="56.00" x2="904" y2="56.00" stroke="#edf2f7" />
<line x1="52" y1="56.00" x2="56" y2="56.00" stroke="#9fb3c8" />
<text x="48.00" y="60.00" font-size="11" font-family="Arial" fill="#52606d" text-anchor="end">2,633</text>
<line x1="56.00" y1="464" x2="56.00" y2="468" stroke="#9fb3c8" />
<text x="56.00" y="482.00" font-size="11" font-family="Arial" fill="#52606d" text-anchor="middle">06/24</text>
<line x1="226.25" y1="464" x2="226.25" y2="468" stroke="#9fb3c8" />
<text x="226.25" y="482.00" font-size="11" font-family="Arial" fill="#52606d" text-anchor="middle">09/05</text>
<line x1="396.51" y1="464" x2="396.51" y2="468" stroke="#9fb3c8" />
<text x="396.51" y="482.00" font-size="11" font-family="Arial" fill="#52606d" text-anchor="middle">11/24</text>
<line x1="563.49" y1="464" x2="563.49" y2="468" stroke="#9fb3c8" />
<text x="563.49" y="482.00" font-size="11" font-family="Arial" fill="#52606d" text-anchor="middle">02/05</text>
<line x1="733.75" y1="464" x2="733.75" y2="468" stroke="#9fb3c8" />
<text x="733.75" y="482.00" font-size="11" font-family="Arial" fill="#52606d" text-anchor="middle">05/05</text>
<line x1="904.00" y1="464" x2="904.00" y2="468" stroke="#9fb3c8" />
<text x="904.00" y="482.00" font-size="11" font-family="Arial" fill="#52606d" text-anchor="middle">07/17</text>
<polyline fill="none" stroke="#1f77b4" stroke-width="2" points="56.00,441.45 59.27,440.33 62.55,440.93 65.82,440.24 69.10,442.14 72.37,439.55 75.64,439.29 78.92,434.19 82.19,434.54 85.47,435.75 88.74,435.49 92.02,435.57 95.29,430.13 98.56,430.04 101.84,431.77 105.11,428.14 108.39,427.10 111.66,427.27 114.93,425.55 118.21,424.51 121.48,424.85 124.76,423.64 128.03,423.99 131.31,424.16 134.58,423.30 137.85,422.78 141.13,421.91 144.40,415.52 147.68,411.02 150.95,404.28 154.22,406.18 157.50,405.84 160.77,403.41 164.05,403.24 167.32,402.55 170.59,396.84 173.87,397.71 177.14,394.94 180.42,394.60 183.69,399.27 186.97,405.49 190.24,401.51 193.51,398.75 196.79,396.67 200.06,395.12 203.34,389.06 206.61,390.97 209.88,390.62 213.16,394.60 216.43,395.12 219.71,395.98 222.98,394.08 226.25,388.03 229.53,388.03 232.80,378.00 236.08,368.84 239.35,369.87 242.63,368.84 245.90,369.01 249.17,368.14 252.45,369.01 255.72,359.33 259.00,360.02 262.27,356.73 265.54,359.15 268.82,359.50 272.09,360.71 275.37,366.93 278.64,365.90 281.92,362.96 285.19,358.98 288.46,350.68 291.74,342.90 295.01,343.94 298.29,340.83 301.56,335.47 304.83,342.04 308.11,338.06 311.38,336.33 314.66,340.83 317.93,338.06 321.20,337.20 324.48,337.20 327.75,338.93 331.03,328.55 334.30,327.69 337.58,330.28 340.85,338.93 344.12,341.52 347.40,343.59 350.67,344.98 353.95,346.36 357.22,344.46 360.49,346.71 363.77,343.77 367.04,345.50 370.32,346.36 373.59,347.92 376.86,354.14 380.14,355.18 383.41,358.29 386.69,358.98 389.96,348.61 393.24,358.81 396.51,359.15 399.78,356.21 403.06,350.16 406.33,350.68 409.61,352.41 412.88,345.32 416.15,342.56 419.43,341.17 422.70,340.83 425.98,344.29 429.25,344.29 432.53,345.67 435.80,346.19 439.07,350.16 442.35,351.37 445.62,354.14 448.90,357.77 452.17,359.67 455.44,359.50 458.72,356.04 461.99,348.78 465.27,350.51 468.54,348.43 471.81,348.26 475.09,347.22 478.36,347.40 481.64,347.05 484.91,341.52 488.19,338.93 491.46,332.01 494.73,335.47 498.01,338.93 501.28,338.06 504.56,331.15 507.83,335.47 511.10,330.28 514.38,332.87 517.65,319.04 520.93,319.91 524.20,318.18 527.47,317.31 530.75,298.30 534.02,295.70 537.30,300.89 540.57,297.43 543.85,292.24 547.12,296.57 550.39,302.62 553.67,310.40 556.94,303.48 560.22,304.35 563.49,314.72 566.76,312.99 570.04,309.53 573.31,308.67 576.59,295.70 579.86,287.92 583.14,274.09 586.41,265.45 589.68,266.31 592.96,267.18 596.23,281.87 599.51,296.57 602.78,282.74 606.05,285.33 609.33,302.62 612.60,290.52 615.88,271.50 619.15,276.68 622.42,274.09 625.70,278.41 628.97,264.58 632.25,260.26 635.52,261.99 638.80,258.53 642.07,269.77 645.34,268.90 648.62,245.56 651.89,251.61 655.17,252.48 658.44,256.80 661.71,274.96 664.99,258.53 668.26,266.31 671.54,251.61 674.81,225.68 678.08,229.14 681.36,213.58 684.63,212.71 687.91,210.98 691.18,204.93 694.46,194.56 697.73,195.42 701.00,185.05 704.28,165.17 707.55,165.17 710.83,171.22 714.10,154.79 717.37,164.30 720.65,146.15 723.92,139.23 727.20,139.23 730.47,129.73 733.75,139.23 737.02,131.45 740.29,119.35 743.57,133.18 746.84,125.40 750.12,134.05 753.39,139.23 756.66,140.96 759.94,154.79 763.21,164.30 766.49,182.46 769.76,182.46 773.03,162.57 776.31,151.34 779.58,117.62 782.86,107.25 786.13,77.86 789.41,100.33 792.68,90.82 795.95,95.15 799.23,105.52 802.50,89.10 805.78,94.28 809.05,115.89 812.32,123.67 815.60,96.01 818.87,133.18 822.15,140.10 825.42,130.59 828.69,131.45 831.97,128.00 835.24,139.01 838.52,139.88 841.79,139.88 845.07,152.05 848.34,165.95 851.61,169.43 854.89,198.97 858.16,182.46 861.44,174.64 864.71,167.69 867.98,171.17 871.26,152.92 874.53,166.82 877.81,185.07 881.08,185.94 884.36,186.81 887.63,186.81 890.90,185.07 894.18,191.15 897.45,185.07 900.73,182.46 904.00,211.14" />
<text x="780.00" y="60.00" font-size="14" font-family="Arial" fill="#1f77b4" text-anchor="start">Close</text>
<polyline fill="none" stroke="#2ca02c" stroke-width="2" points="118.21,434.20 121.48,433.37 124.76,432.53 128.03,431.69 131.31,430.88 134.58,429.94 137.85,429.10 141.13,428.23 144.40,427.30 147.68,426.12 150.95,424.55 154.22,423.09 157.50,421.60 160.77,420.26 164.05,418.92 167.32,417.46 170.59,415.90 173.87,414.43 177.14,412.81 180.42,411.26 183.69,410.00 186.97,409.03 190.24,407.93 193.51,406.67 196.79,405.29 200.06,403.88 203.34,402.20 206.61,400.65 209.88,399.40 213.16,398.58 216.43,398.12 219.71,397.61 222.98,397.03 226.25,396.26 229.53,395.50 232.80,394.27 236.08,392.87 239.35,391.48 242.63,390.17 245.90,388.89 249.17,387.34 252.45,385.51 255.72,383.40 259.00,381.47 262.27,379.47 265.54,377.67 268.82,376.19 272.09,374.68 275.37,373.50 278.64,372.06 281.92,370.45 285.19,368.60 288.46,366.43 291.74,364.18 295.01,361.97 298.29,360.11 301.56,358.45 304.83,357.05 308.11,355.51 311.38,353.88 314.66,352.52 317.93,350.97 321.20,349.86 324.48,348.72 327.75,347.83 331.03,346.30 334.30,344.71 337.58,343.19 340.85,341.79 344.12,340.57 347.40,339.60 350.67,338.90 353.95,338.68 357.22,338.76 360.49,338.90 363.77,339.05 367.04,339.55 370.32,339.76 373.59,340.26 376.86,341.15 380.14,341.86 383.41,342.88 386.69,343.97 389.96,344.54 393.24,345.53 396.51,347.06 399.78,348.49 403.06,349.48 406.33,350.07 409.61,350.61 412.88,350.70 416.15,350.58 419.43,350.32 422.70,350.14 425.98,350.02 429.25,350.04 432.53,350.05 435.80,350.04 439.07,350.16 442.35,350.02 445.62,349.96 448.90,349.94 452.17,349.97 455.44,350.52 458.72,350.38 461.99,349.86 465.27,349.58 468.54,349.49 471.81,349.37 475.09,349.11 478.36,349.21 481.64,349.44 484.91,349.45 488.19,349.36 491.46,348.75 494.73,348.31 498.01,347.97 501.28,347.56 504.56,346.61 507.83,345.82 511.10,344.62 514.38,343.38 517.65,341.35 520.93,339.37 524.20,337.47 527.47,335.90 530.75,333.29 534.02,330.65 537.30,328.28 540.57,325.79 543.85,323.04 547.12,320.51 550.39,318.57 553.67,317.14 556.94,315.71 560.22,314.16 563.49,312.95 566.76,311.70 570.04,310.61 573.31,309.27 576.59,307.55 579.86,305.30 583.14,303.05 586.41,300.33 589.68,297.73 592.96,295.23 596.23,294.41 599.51,294.45 602.78,293.54 606.05,292.94 609.33,293.45 612.60,293.15 615.88,291.60 619.15,289.91 622.42,288.44 625.70,287.14 628.97,284.64 632.25,282.00 635.52,279.62 638.80,277.12 642.07,275.82 645.34,274.87 648.62,273.44 651.89,272.75 655.17,272.06 658.44,271.54 661.71,271.19 664.99,269.29 668.26,268.47 671.54,266.79 674.81,262.94 678.08,259.87 681.36,256.97 684.63,253.78 687.91,250.62 691.18,246.95 694.46,243.45 697.73,240.20 701.00,236.36 704.28,231.69 707.55,226.46 710.83,221.57 714.10,217.04 717.37,212.67 720.65,207.35 723.92,201.48 727.20,194.69 730.47,188.25 733.75,181.90 737.02,175.89 740.29,170.57 743.57,165.77 746.84,161.36 750.12,157.43 753.39,153.84 756.66,150.65 759.94,148.66 763.21,147.10 766.49,146.97 769.76,147.84 773.03,147.71 776.31,146.71 779.58,144.85 782.86,142.00 786.13,138.59 789.41,136.64 792.68,134.22 795.95,132.49 799.23,130.81 802.50,128.69 805.78,127.43 809.05,126.57 812.32,126.48 815.60,124.58 818.87,124.28 822.15,124.24 825.42,123.03 828.69,121.38 831.97,118.66 835.24,116.49 838.52,115.35 841.79,114.78 845.07,116.50 848.34,119.44 851.61,124.02 854.89,128.95 858.16,133.53 861.44,137.50 864.71,140.61 867.98,144.72 871.26,147.65 874.53,150.20 877.81,153.27 881.08,157.76 884.36,160.44 887.63,162.78 890.90,165.50 894.18,168.49 897.45,171.34 900.73,173.51 904.00,177.08" />
<text x="780.00" y="82.00" font-size="14" font-family="Arial" fill="#2ca02c" text-anchor="start">MA20</text>
<polyline fill="none" stroke="#ff7f0e" stroke-width="2" points="249.17,410.51 252.45,409.30 255.72,407.95 259.00,406.61 262.27,405.21 265.54,403.83 268.82,402.50 272.09,401.19 275.37,400.07 278.64,398.92 281.92,397.71 285.19,396.43 288.46,395.02 291.74,393.57 295.01,392.13 298.29,390.61 301.56,389.07 304.83,387.65 308.11,386.17 311.38,384.68 314.66,383.28 317.93,381.84 321.20,380.40 324.48,378.95 327.75,377.53 331.03,375.95 334.30,374.37 337.58,372.84 340.85,371.56 344.12,370.40 347.40,369.39 350.67,368.37 353.95,367.38 357.22,366.40 360.49,365.46 363.77,364.48 367.04,363.62 370.32,362.76 373.59,361.98 376.86,361.31 380.14,360.57 383.41,359.79 386.69,359.08 389.96,358.24 393.24,357.61 396.51,357.01 399.78,356.46 403.06,355.78 406.33,355.12 409.61,354.41 412.88,353.58 416.15,352.69 419.43,351.81 422.70,351.03 425.98,350.30 429.25,349.73 432.53,349.35 435.80,348.95 439.07,348.64 442.35,348.35 445.62,348.11 448.90,347.93 452.17,347.93 455.44,347.92 458.72,347.91 461.99,347.74 465.27,347.59 468.54,347.39 471.81,347.07 475.09,346.76 478.36,346.50 481.64,346.31 484.91,346.15 488.19,346.09 491.46,345.89 494.73,345.80 498.01,345.86 501.28,345.79 504.56,345.67 507.83,345.66 511.10,345.48 514.38,345.40 517.65,345.10 520.93,344.81 524.20,344.46 527.47,344.27 530.75,343.78 534.02,343.21 537.30,342.57 540.57,341.84 543.85,340.98 547.12,340.18 550.39,339.45 553.67,338.88 556.94,338.16 560.22,337.50 563.49,336.99 566.76,336.43 570.04,335.79 573.31,335.04 576.59,334.04 579.86,332.87 583.14,331.46 586.41,330.07 589.68,328.53 592.96,327.00 596.23,325.76 599.51,324.86 602.78,323.73 606.05,322.61 609.33,321.90 612.60,321.03 615.88,319.87 619.15,318.80 622.42,317.63 625.70,316.54 628.97,315.18 632.25,313.75 635.52,312.28 638.80,310.74 642.07,309.33 645.34,307.85 648.62,305.95 651.89,304.15 655.17,302.42 658.44,300.89 661.71,299.63 664.99,298.13 668.26,296.77 671.54,295.17 674.81,293.14 678.08,291.18 681.36,289.05 684.63,286.94 687.91,284.93 691.18,282.75 694.46,280.34 697.73,277.97 701.00,275.53 704.28,272.69 707.55,269.94 710.83,267.25 714.10,264.51 717.37,261.92 720.65,259.05 723.92,256.08 727.20,253.43 730.47,250.66 733.75,247.97 737.02,245.20 740.29,242.32 743.57,239.60 746.84,236.65 750.12,233.71 753.39,230.97 756.66,228.25 759.94,225.58 763.21,223.10 766.49,220.98 769.76,218.88 773.03,216.66 776.31,214.39 779.58,211.78 782.86,209.14 786.13,206.00 789.41,203.22 792.68,200.03 795.95,196.68 799.23,193.72 802.50,190.45 805.78,186.98 809.05,184.07 812.32,181.61 815.60,178.60 818.87,176.25 822.15,173.94 825.42,171.71 828.69,169.56 831.97,167.33 835.24,165.34 838.52,163.17 841.79,161.02 845.07,159.46 848.34,158.04 851.61,156.65 854.89,155.69 858.16,154.15 861.44,152.75 864.71,151.10 867.98,149.76 871.26,148.55 874.53,147.51 877.81,147.04 881.08,146.59 884.36,146.19 887.63,145.89 890.90,145.73 894.18,145.66 897.45,145.66 900.73,145.95 904.00,146.71" />
<text x="780.00" y="104.00" font-size="14" font-family="Arial" fill="#ff7f0e" text-anchor="start">MA60</text>
<polyline fill="none" stroke="#d62728" stroke-width="2" points="707.55,343.03 710.83,341.68 714.10,340.25 717.37,338.87 720.65,337.40 723.92,335.89 727.20,334.38 730.47,332.84 733.75,331.36 737.02,329.85 740.29,328.26 743.57,326.75 746.84,325.20 750.12,323.72 753.39,322.27 756.66,320.81 759.94,319.45 763.21,318.13 766.49,316.91 769.76,315.69 773.03,314.38 776.31,313.02 779.58,311.49 782.86,309.90 786.13,308.17 789.41,306.56 792.68,304.90 795.95,303.26 799.23,301.71 802.50,300.10 805.78,298.55 809.05,297.10 812.32,295.69 815.60,294.15 818.87,292.80 822.15,291.49 825.42,290.16 828.69,288.83 831.97,287.49 835.24,286.22 838.52,284.92 841.79,283.59 845.07,282.34 848.34,281.18 851.61,280.04 854.89,279.06 858.16,278.03 861.44,276.95 864.71,275.83 867.98,274.72 871.26,273.51 874.53,272.36 877.81,271.31 881.08,270.30 884.36,269.30 887.63,268.34 890.90,267.42 894.18,266.53 897.45,265.61 900.73,264.68 904.00,263.89" />
<text x="780.00" y="126.00" font-size="14" font-family="Arial" fill="#d62728" text-anchor="start">MA200</text>
</svg>