<svg xmlns="http://www.w3.org/2000/svg" width="960" height="520" viewBox="0 0 960 520"><rect width="100%" height="100%" fill="white" />
<text x="56.00" y="32.00" font-size="20" font-family="Arial" fill="#1f2933" text-anchor="start">鴻海(2317) Price and Moving Averages</text>
<line x1="56" y1="464" x2="904" y2="464" stroke="#cbd2d9" />
<line x1="56" y1="56" x2="56" y2="464" stroke="#cbd2d9" />
<text x="16.00" y="38.00" font-size="12" font-family="Arial" fill="#52606d" text-anchor="start">Price</text>
<line x1="56" y1="464.00" x2="904" y2="464.00" stroke="#edf2f7" />
<line x1="52" y1="464.00" x2="56" y2="464.00" stroke="#9fb3c8" />
<text x="48.00" y="468.00" font-size="11" font-family="Arial" fill="#52606d" text-anchor="end">142</text>
<line x1="56" y1="362.00" x2="904" y2="362.00" stroke="#edf2f7" />
<line x1="52" y1="362.00" x2="56" y2="362.00" stroke="#9fb3c8" />
<text x="48.00" y="366.00" font-size="11" font-family="Arial" fill="#52606d" text-anchor="end">184</text>
<line x1="56" y1="260.00" x2="904" y2="260.00" stroke="#edf2f7" />
<line x1="52" y1="260.00" x2="56" y2="260.00" stroke="#9fb3c8" />
<text x="48.00" y="264.00" font-size="11" font-family="Arial" fill="#52606d" text-anchor="end">225</text>
<line x1="56" y1="158.00" x2="904" y2="158.00" stroke="#edf2f7" />
<line x1="52" y1="158.00" x2="56" y2="158.00" stroke="#9fb3c8" />
<text x="48.00" y="162.00" font-size="11" font-family="Arial" fill="#52606d" text-anchor="end">267</text>
<line x1="56" y1="56.00" x2="904" y2="56.00" stroke="#edf2f7" />
<line x1="52" y1="56.00" x2="56" y2="56.00" stroke="#9fb3c8" />
<text x="48.00" y="60.00" font-size="11" font-family="Arial" fill="#52606d" text-anchor="end">309</text>
<line x1="56.00" y1="464" x2="56.00" y2="468" stroke="#9fb3c8" />
<text x="56.00" y="482.00" font-size="11" font-family="Arial" fill="#52606d" text-anchor="middle">06/27</text>
<line x1="226.25" y1="464" x2="226.25" y2="468" stroke="#9fb3c8" />
<text x="226.25" y="482.00" font-size="11" font-family="Arial" fill="#52606d" text-anchor="middle">09/10</text>
<line x1="396.51" y1="464" x2="396.51" y2="468" stroke="#9fb3c8" />
<text x="396.51" y="482.00" font-size="11" font-family="Arial" fill="#52606d" text-anchor="middle">11/27</text>
<line x1="563.49" y1="464" x2="563.49" y2="468" stroke="#9fb3c8" />
<text x="563.49" y="482.00" font-size="11" font-family="Arial" fill="#52606d" text-anchor="middle">02/10</text>
<line x1="733.75" y1="464" x2="733.75" y2="468" stroke="#9fb3c8" />
<text x="733.75" y="482.00" font-size="11" font-family="Arial" fill="#52606d" text-anchor="middle">05/08</text>
<line x1="904.00" y1="464" x2="904.00" y2="468" stroke="#9fb3c8" />
<text x="904.00" y="482.00" font-size="11" font-family="Arial" fill="#52606d" text-anchor="middle">07/22</text>
<polyline fill="none" stroke="#1f77b4" stroke-width="2" points="56.00,432.99 59.27,442.14 62.55,431.85 65.82,426.39 69.10,421.65 72.37,428.77 75.64,428.77 78.92,433.51 82.19,428.77 85.47,427.58 88.74,427.58 92.02,429.95 95.29,424.02 98.56,425.21 101.84,421.65 105.11,418.10 108.39,419.28 111.66,426.39 114.93,416.91 118.21,397.94 121.48,396.76 124.76,393.20 128.03,403.87 131.31,403.87 134.58,388.46 137.85,383.72 141.13,373.05 144.40,369.49 147.68,349.34 150.95,349.34 154.22,341.04 157.50,343.41 160.77,339.85 164.05,337.48 167.32,319.70 170.59,312.59 173.87,317.33 177.14,335.11 180.42,322.07 183.69,330.37 186.97,318.51 190.24,314.96 193.51,317.33 196.79,322.07 200.06,328.00 203.34,339.85 206.61,339.85 209.88,335.11 213.16,329.18 216.43,324.44 219.71,328.00 222.98,318.51 226.25,312.59 229.53,301.92 232.80,294.80 236.08,298.36 239.35,299.55 242.63,307.84 245.90,300.73 249.17,303.10 252.45,298.36 255.72,286.51 259.00,281.76 262.27,265.17 265.54,290.06 268.82,298.36 272.09,291.25 275.37,275.84 278.64,273.46 281.92,268.72 285.19,277.02 288.46,285.32 291.74,305.47 295.01,322.07 298.29,320.88 301.56,281.76 304.83,273.46 308.11,245.01 311.38,243.83 314.66,235.53 317.93,243.83 321.20,226.04 324.48,217.75 327.75,194.04 331.03,189.29 334.30,199.96 337.58,214.19 340.85,231.97 344.12,224.86 347.40,222.49 350.67,231.97 353.95,218.93 357.22,226.04 360.49,215.38 363.77,213.00 367.04,239.09 370.32,250.94 373.59,265.17 376.86,267.54 380.14,249.75 383.41,277.02 386.69,288.88 389.96,291.25 393.24,272.28 396.51,262.80 399.78,275.84 403.06,284.13 406.33,284.13 409.61,272.28 412.88,268.72 416.15,262.80 419.43,260.42 422.70,253.31 425.98,256.87 429.25,274.65 432.53,272.28 435.80,285.32 439.07,293.62 442.35,297.17 445.62,298.36 448.90,285.32 452.17,279.39 455.44,279.39 458.72,279.39 461.99,275.84 465.27,262.80 468.54,269.91 471.81,263.98 475.09,260.42 478.36,254.50 481.64,250.94 484.91,245.01 488.19,266.35 491.46,263.98 494.73,268.72 498.01,273.46 501.28,254.50 504.56,256.87 507.83,254.50 511.10,266.35 514.38,280.58 517.65,291.25 520.93,280.58 524.20,285.32 527.47,279.39 530.75,275.84 534.02,275.84 537.30,279.39 540.57,287.69 543.85,301.92 547.12,297.17 550.39,291.25 553.67,299.55 556.94,300.73 560.22,292.43 563.49,286.51 566.76,272.28 570.04,268.72 573.31,260.42 576.59,226.04 579.86,234.34 583.14,243.83 586.41,267.54 589.68,295.99 592.96,279.39 596.23,281.76 599.51,311.40 602.78,313.77 606.05,291.25 609.33,301.92 612.60,301.92 615.88,297.17 619.15,307.84 622.42,312.59 625.70,324.44 628.97,329.18 632.25,345.78 635.52,348.15 638.80,336.30 642.07,335.11 645.34,337.48 648.62,350.52 651.89,365.93 655.17,343.41 658.44,352.89 661.71,355.26 664.99,332.74 668.26,336.30 671.54,335.11 674.81,336.30 678.08,318.51 681.36,318.51 684.63,319.70 687.91,322.07 691.18,318.51 694.46,310.22 697.73,286.51 701.00,277.02 704.28,285.32 707.55,269.91 710.83,275.84 714.10,277.02 717.37,290.06 720.65,271.09 723.92,242.64 727.20,213.00 730.47,209.45 733.75,217.75 737.02,213.00 740.29,217.75 743.57,215.38 746.84,230.79 750.12,221.30 753.39,221.30 756.66,229.60 759.94,241.46 763.21,223.67 766.49,217.75 769.76,191.67 773.03,196.41 776.31,184.55 779.58,186.92 782.86,125.28 786.13,114.61 789.41,95.64 792.68,77.86 795.95,115.79 799.23,135.95 802.50,171.51 805.78,152.54 809.05,186.92 812.32,197.59 815.60,192.85 818.87,176.25 822.15,172.70 825.42,165.58 828.69,173.88 831.97,173.88 835.24,195.22 838.52,203.52 841.79,199.96 845.07,221.30 848.34,226.04 851.61,215.38 854.89,222.49 858.16,226.95 861.44,223.29 864.71,219.63 867.98,231.84 871.26,230.61 874.53,230.61 877.81,230.61 881.08,233.06 884.36,235.50 887.63,226.95 890.90,218.41 894.18,239.16 897.45,237.94 900.73,209.86 904.00,196.43" />
<text x="780.00" y="60.00" font-size="14" font-family="Arial" fill="#1f77b4" text-anchor="start">Close</text>
<polyline fill="none" stroke="#2ca02c" stroke-width="2" points="118.21,425.47 121.48,423.66 124.76,421.21 128.03,419.81 131.31,418.69 134.58,417.03 137.85,414.78 141.13,411.99 144.40,408.79 147.68,404.82 150.95,400.91 154.22,396.58 157.50,392.25 160.77,388.04 164.05,383.66 167.32,378.56 170.59,373.28 173.87,368.19 177.14,363.62 180.42,358.88 183.69,355.50 186.97,351.59 190.24,347.68 193.51,343.35 196.79,339.26 200.06,336.24 203.34,334.04 206.61,332.38 209.88,330.66 213.16,329.66 216.43,328.41 219.71,327.76 222.98,326.52 226.25,325.15 229.53,323.37 232.80,322.13 236.08,321.42 239.35,320.53 242.63,319.17 245.90,318.10 249.17,316.74 252.45,315.73 255.72,314.31 259.00,312.53 262.27,309.68 265.54,307.78 268.82,305.71 272.09,303.28 275.37,300.32 278.64,297.53 281.92,294.74 285.19,292.20 288.46,290.54 291.74,290.18 295.01,291.19 298.29,292.49 301.56,291.66 304.83,290.36 308.11,287.22 311.38,284.37 314.66,280.99 317.93,278.27 321.20,275.24 324.48,272.04 327.75,268.49 331.03,263.45 334.30,258.53 337.58,254.67 340.85,252.48 344.12,250.05 347.40,247.74 350.67,245.49 353.95,242.17 357.22,238.20 360.49,232.86 363.77,227.47 367.04,225.33 370.32,224.21 373.59,225.21 376.86,226.40 380.14,227.11 383.41,228.77 386.69,231.91 389.96,235.59 393.24,239.50 396.51,243.18 399.78,246.97 403.06,250.47 406.33,253.07 409.61,255.44 412.88,257.76 416.15,259.30 419.43,261.37 422.70,262.74 425.98,264.81 429.25,267.89 432.53,269.55 435.80,271.27 439.07,272.69 442.35,274.18 445.62,276.61 448.90,277.02 452.17,276.55 455.44,275.95 458.72,276.31 461.99,276.96 465.27,276.31 468.54,275.60 471.81,274.59 475.09,274.00 478.36,273.29 481.64,272.69 484.91,271.92 488.19,272.58 491.46,272.93 494.73,272.63 498.01,272.69 501.28,271.15 504.56,269.32 507.83,267.18 511.10,265.58 514.38,265.34 517.65,265.94 520.93,266.00 524.20,266.29 527.47,266.47 530.75,267.12 534.02,267.42 537.30,268.19 540.57,269.55 543.85,271.92 547.12,274.24 550.39,276.55 553.67,278.21 556.94,280.04 560.22,281.23 563.49,281.88 566.76,282.77 570.04,283.36 573.31,283.66 576.59,281.64 579.86,279.33 583.14,276.96 586.41,276.31 589.68,276.84 592.96,276.84 596.23,277.14 599.51,278.92 602.78,280.64 606.05,280.81 609.33,280.81 612.60,281.05 615.88,281.35 619.15,281.76 622.42,282.36 625.70,283.96 628.97,286.09 632.25,289.77 635.52,293.74 638.80,297.53 642.07,302.98 645.34,308.14 648.62,313.48 651.89,318.40 655.17,320.77 658.44,324.44 661.71,328.12 664.99,329.18 668.26,330.31 671.54,332.50 674.81,334.22 678.08,335.05 681.36,336.12 684.63,336.71 687.91,337.19 691.18,336.89 694.46,335.94 697.73,332.98 701.00,329.42 704.28,326.87 707.55,323.61 710.83,320.53 714.10,316.85 717.37,313.06 720.65,309.44 723.92,303.93 727.20,296.82 730.47,290.65 733.75,284.73 737.02,278.62 740.29,272.69 743.57,267.54 746.84,263.15 750.12,258.23 753.39,253.19 756.66,248.75 759.94,245.31 763.21,242.17 766.49,239.20 769.76,234.52 773.03,230.85 776.31,226.28 779.58,221.78 782.86,213.54 786.13,205.71 789.41,198.36 792.68,191.61 795.95,186.92 799.23,182.83 802.50,180.76 805.78,177.50 809.05,176.08 812.32,174.42 815.60,172.99 818.87,170.74 822.15,167.90 825.42,164.10 828.69,161.61 831.97,159.42 835.24,159.60 838.52,159.95 841.79,160.72 845.07,162.44 848.34,167.48 851.61,172.52 854.89,178.86 858.16,186.32 861.44,191.69 864.71,195.88 867.98,198.89 871.26,202.79 874.53,204.98 877.81,206.63 881.08,208.64 884.36,211.60 887.63,214.32 890.90,216.96 894.18,220.22 897.45,223.42 900.73,224.16 904.00,223.80" />
<text x="780.00" y="82.00" font-size="14" font-family="Arial" fill="#2ca02c" text-anchor="start">MA20</text>
<polyline fill="none" stroke="#ff7f0e" stroke-width="2" points="249.17,365.90 252.45,363.66 255.72,361.07 259.00,358.56 262.27,355.88 265.54,353.68 268.82,351.51 272.09,349.22 275.37,346.59 278.64,344.00 281.92,341.35 285.19,338.84 288.46,336.43 291.74,334.46 295.01,332.74 298.29,331.06 301.56,328.79 304.83,326.36 308.11,323.33 311.38,320.45 314.66,317.74 317.93,315.19 321.20,312.41 324.48,309.31 327.75,305.81 331.03,302.49 334.30,299.43 337.58,296.78 340.85,294.49 344.12,292.41 347.40,290.30 350.67,288.48 353.95,286.41 357.22,284.51 360.49,282.47 363.77,280.70 367.04,279.47 370.32,278.36 373.59,277.20 376.86,276.29 380.14,274.95 383.41,274.25 386.69,273.82 389.96,273.39 393.24,272.56 396.51,271.47 399.78,270.40 403.06,269.47 406.33,268.62 409.61,267.68 412.88,266.75 416.15,265.66 419.43,264.69 422.70,263.70 425.98,262.95 429.25,262.62 432.53,262.18 435.80,261.95 439.07,261.71 442.35,261.65 445.62,261.57 448.90,261.35 452.17,261.23 455.44,261.19 458.72,261.43 461.99,261.19 465.27,260.60 468.54,260.25 471.81,260.05 475.09,259.83 478.36,259.59 481.64,259.16 484.91,258.49 488.19,257.84 491.46,256.87 494.73,256.00 498.01,255.86 501.28,255.54 504.56,255.74 507.83,255.92 511.10,256.43 514.38,257.05 517.65,258.13 520.93,259.18 524.20,260.70 527.47,262.20 530.75,263.47 534.02,264.49 537.30,265.28 540.57,266.33 543.85,267.66 547.12,268.74 550.39,269.95 553.67,271.17 556.94,272.60 560.22,273.92 563.49,274.71 566.76,275.07 570.04,275.12 573.31,275.01 576.59,274.61 579.86,273.90 583.14,273.15 586.41,272.75 589.68,273.15 592.96,273.43 596.23,273.52 599.51,273.98 602.78,274.47 606.05,274.79 609.33,275.34 612.60,275.99 615.88,276.61 619.15,277.52 622.42,278.44 625.70,279.27 628.97,280.22 632.25,281.23 635.52,282.14 638.80,282.79 642.07,283.40 645.34,284.27 648.62,285.46 651.89,286.90 655.17,287.97 658.44,289.25 661.71,290.79 664.99,291.84 668.26,293.05 671.54,294.29 674.81,295.65 678.08,296.78 681.36,298.00 684.63,298.89 687.91,299.86 691.18,300.69 694.46,301.30 697.73,301.84 701.00,302.17 704.28,302.69 707.55,302.75 710.83,302.67 714.10,302.43 717.37,302.59 720.65,302.35 723.92,301.74 727.20,300.69 730.47,299.59 733.75,298.56 737.02,297.31 740.29,295.91 743.57,294.55 746.84,293.54 750.12,292.23 753.39,290.91 756.66,289.86 759.94,289.11 763.21,288.30 766.49,287.45 769.76,286.31 773.03,285.81 776.31,284.98 779.58,284.04 782.86,281.66 786.13,278.64 789.41,275.58 792.68,272.18 795.95,268.92 799.23,265.96 802.50,263.96 805.78,261.47 809.05,259.55 812.32,257.90 815.60,255.98 818.87,253.71 822.15,251.18 825.42,248.45 828.69,245.59 831.97,242.68 835.24,240.33 838.52,238.14 841.79,235.84 845.07,233.69 848.34,231.36 851.61,229.23 854.89,227.05 858.16,224.91 861.44,223.09 864.71,221.15 867.98,219.42 871.26,217.66 874.53,216.20 877.81,214.73 881.08,213.29 884.36,211.85 887.63,210.32 890.90,208.79 894.18,208.00 897.45,207.35 900.73,206.09 904.00,204.87" />
<text x="780.00" y="104.00" font-size="14" font-family="Arial" fill="#ff7f0e" text-anchor="start">MA60</text>
<polyline fill="none" stroke="#d62728" stroke-width="2" points="707.55,305.62 710.83,304.84 714.10,304.01 717.37,303.30 720.65,302.53 723.92,301.63 727.20,300.55 730.47,299.46 733.75,298.38 737.02,297.30 740.29,296.25 743.57,295.19 746.84,294.19 750.12,293.18 753.39,292.16 756.66,291.20 759.94,290.32 763.21,289.34 766.49,288.30 769.76,287.17 773.03,286.16 776.31,285.10 779.58,284.07 782.86,282.68 786.13,281.23 789.41,279.77 792.68,278.24 795.95,276.95 799.23,275.78 802.50,274.89 805.78,273.91 809.05,273.14 812.32,272.41 815.60,271.67 818.87,270.87 822.15,270.13 825.42,269.40 828.69,268.68 831.97,267.87 835.24,267.24 838.52,266.61 841.79,266.01 845.07,265.55 848.34,265.09 851.61,264.56 854.89,264.03 858.16,263.46 861.44,262.88 864.71,262.30 867.98,261.82 871.26,261.35 874.53,260.86 877.81,260.42 881.08,260.02 884.36,259.69 887.63,259.35 890.90,258.95 894.18,258.65 897.45,258.30 900.73,257.85 904.00,257.31" />
<text x="780.00" y="126.00" font-size="14" font-family="Arial" fill="#d62728" text-anchor="start">MA200</text>
</svg>