<svg xmlns="http://www.w3.org/2000/svg" width="960" height="520" viewBox="0 0 960 520"><rect width="100%" height="100%" fill="white" />
<text x="56.00" y="32.00" font-size="20" font-family="Arial" fill="#1f2933" text-anchor="start">廣達(2382) Price and Moving Averages</text>
<line x1="56" y1="464" x2="904" y2="464" stroke="#cbd2d9" />
<line x1="56" y1="56" x2="56" y2="464" stroke="#cbd2d9" />
<text x="16.00" y="38.00" font-size="12" font-family="Arial" fill="#52606d" text-anchor="start">Price</text>
<line x1="56" y1="464.00" x2="904" y2="464.00" stroke="#edf2f7" />
<line x1="52" y1="464.00" x2="56" y2="464.00" stroke="#9fb3c8" />
<text x="48.00" y="468.00" font-size="11" font-family="Arial" fill="#52606d" text-anchor="end">244</text>
<line x1="56" y1="362.00" x2="904" y2="362.00" stroke="#edf2f7" />
<line x1="52" y1="362.00" x2="56" y2="362.00" stroke="#9fb3c8" />
<text x="48.00" y="366.00" font-size="11" font-family="Arial" fill="#52606d" text-anchor="end">289</text>
<line x1="56" y1="260.00" x2="904" y2="260.00" stroke="#edf2f7" />
<line x1="52" y1="260.00" x2="56" y2="260.00" stroke="#9fb3c8" />
<text x="48.00" y="264.00" font-size="11" font-family="Arial" fill="#52606d" text-anchor="end">335</text>
<line x1="56" y1="158.00" x2="904" y2="158.00" stroke="#edf2f7" />
<line x1="52" y1="158.00" x2="56" y2="158.00" stroke="#9fb3c8" />
<text x="48.00" y="162.00" font-size="11" font-family="Arial" fill="#52606d" text-anchor="end">381</text>
<line x1="56" y1="56.00" x2="904" y2="56.00" stroke="#edf2f7" />
<line x1="52" y1="56.00" x2="56" y2="56.00" stroke="#9fb3c8" />
<text x="48.00" y="60.00" font-size="11" font-family="Arial" fill="#52606d" text-anchor="end">427</text>
<line x1="56.00" y1="464" x2="56.00" y2="468" stroke="#9fb3c8" />
<text x="56.00" y="482.00" font-size="11" font-family="Arial" fill="#52606d" text-anchor="middle">06/13</text>
<line x1="226.25" y1="464" x2="226.25" y2="468" stroke="#9fb3c8" />
<text x="226.25" y="482.00" font-size="11" font-family="Arial" fill="#52606d" text-anchor="middle">08/27</text>
<line x1="396.51" y1="464" x2="396.51" y2="468" stroke="#9fb3c8" />
<text x="396.51" y="482.00" font-size="11" font-family="Arial" fill="#52606d" text-anchor="middle">11/13</text>
<line x1="563.49" y1="464" x2="563.49" y2="468" stroke="#9fb3c8" />
<text x="563.49" y="482.00" font-size="11" font-family="Arial" fill="#52606d" text-anchor="middle">01/27</text>
<line x1="733.75" y1="464" x2="733.75" y2="468" stroke="#9fb3c8" />
<text x="733.75" y="482.00" font-size="11" font-family="Arial" fill="#52606d" text-anchor="middle">04/23</text>
<line x1="904.00" y1="464" x2="904.00" y2="468" stroke="#9fb3c8" />
<text x="904.00" y="482.00" font-size="11" font-family="Arial" fill="#52606d" text-anchor="middle">07/08</text>
<polyline fill="none" stroke="#1f77b4" stroke-width="2" points="56.00,395.56 59.27,398.75 62.55,405.13 65.82,405.13 69.10,413.63 72.37,412.57 75.64,407.25 78.92,391.30 82.19,383.86 85.47,390.24 88.74,399.81 92.02,395.35 95.29,380.87 98.56,378.64 101.84,383.10 105.11,387.56 108.39,389.78 111.66,400.92 114.93,392.01 118.21,398.70 121.48,398.70 124.76,406.49 128.03,404.27 131.31,399.81 134.58,403.15 137.85,397.58 141.13,397.58 144.40,422.09 147.68,417.63 150.95,407.61 154.22,408.72 157.50,400.92 160.77,410.95 164.05,405.38 167.32,379.76 170.59,380.87 173.87,365.28 177.14,364.16 180.42,363.05 183.69,359.71 186.97,360.82 190.24,376.42 193.51,402.04 196.79,404.27 200.06,404.27 203.34,407.61 206.61,409.84 209.88,428.77 213.16,429.89 216.43,431.00 219.71,409.84 222.98,416.52 226.25,407.61 229.53,414.29 232.80,422.09 236.08,436.57 239.35,442.14 242.63,442.14 245.90,434.34 249.17,431.00 252.45,427.66 255.72,422.09 259.00,398.70 262.27,405.38 265.54,396.47 268.82,392.01 272.09,397.58 275.37,398.70 278.64,384.21 281.92,380.87 285.19,380.87 288.46,368.62 291.74,375.30 295.01,371.96 298.29,371.96 301.56,360.82 304.83,368.62 308.11,351.91 311.38,338.54 314.66,319.60 317.93,325.17 321.20,342.99 324.48,350.79 327.75,374.19 331.03,369.73 334.30,357.48 337.58,364.16 340.85,346.34 344.12,358.59 347.40,361.93 350.67,353.02 353.95,317.37 357.22,329.63 360.49,320.71 363.77,325.17 367.04,337.42 370.32,344.11 373.59,366.39 376.86,361.93 380.14,354.13 383.41,367.50 386.69,357.48 389.96,357.48 393.24,365.28 396.51,371.96 399.78,384.21 403.06,392.01 406.33,405.38 409.61,412.06 412.88,396.47 416.15,405.38 419.43,400.92 422.70,394.24 425.98,384.21 429.25,379.76 432.53,378.64 435.80,367.50 439.07,364.16 442.35,355.25 445.62,350.79 448.90,344.11 452.17,344.11 455.44,347.45 458.72,355.25 461.99,365.28 465.27,368.62 468.54,371.96 471.81,398.70 475.09,416.52 478.36,427.66 481.64,416.52 484.91,412.06 488.19,417.63 491.46,418.75 494.73,420.98 498.01,420.98 501.28,420.98 504.56,400.92 507.83,389.78 511.10,387.56 514.38,378.64 517.65,378.64 520.93,398.70 524.20,376.42 527.47,381.99 530.75,385.33 534.02,369.73 537.30,376.42 540.57,361.93 543.85,378.64 547.12,388.67 550.39,394.24 553.67,376.42 556.94,383.10 560.22,367.50 563.49,366.39 566.76,367.50 570.04,376.42 573.31,383.10 576.59,398.70 579.86,390.90 583.14,387.56 586.41,398.70 589.68,384.21 592.96,374.19 596.23,371.96 599.51,369.73 602.78,375.30 606.05,374.19 609.33,344.11 612.60,357.48 615.88,336.31 619.15,350.79 622.42,380.87 625.70,361.93 628.97,363.05 632.25,378.64 635.52,377.53 638.80,363.05 642.07,364.16 645.34,363.05 648.62,363.05 651.89,363.05 655.17,354.13 658.44,368.62 661.71,375.30 664.99,383.10 668.26,379.76 671.54,371.96 674.81,367.50 678.08,363.05 681.36,380.87 684.63,386.44 687.91,359.71 691.18,373.07 694.46,363.05 697.73,321.83 701.00,309.57 704.28,290.64 707.55,296.21 710.83,287.29 714.10,319.60 717.37,297.32 720.65,287.29 723.92,273.93 727.20,249.42 730.47,260.56 733.75,289.52 737.02,287.29 740.29,281.72 743.57,291.75 746.84,289.52 750.12,310.69 753.39,298.43 756.66,291.75 759.94,234.93 763.21,240.50 766.49,248.30 769.76,241.62 773.03,249.42 776.31,248.30 779.58,261.67 782.86,325.17 786.13,338.54 789.41,360.82 792.68,360.82 795.95,320.71 799.23,302.89 802.50,301.78 805.78,301.78 809.05,311.80 812.32,319.60 815.60,251.64 818.87,177.01 822.15,114.62 825.42,77.86 828.69,106.82 831.97,136.90 835.24,168.09 838.52,171.44 841.79,159.18 845.07,182.58 848.34,178.12 851.61,182.58 854.89,199.29 858.16,173.66 861.44,169.21 864.71,160.29 867.98,177.01 871.26,178.12 874.53,190.37 877.81,200.40 881.08,189.26 884.36,187.03 887.63,178.12 890.90,184.80 894.18,166.98 897.45,164.75 900.73,175.89 904.00,166.98" />
<text x="780.00" y="60.00" font-size="14" font-family="Arial" fill="#1f77b4" text-anchor="start">Close</text>
<polyline fill="none" stroke="#2ca02c" stroke-width="2" points="118.21,395.51 121.48,395.67 124.76,396.05 128.03,396.01 131.31,395.74 134.58,395.22 137.85,394.47 141.13,393.99 144.40,395.53 147.68,397.21 150.95,398.08 154.22,398.53 157.50,398.81 160.77,400.31 164.05,401.65 167.32,401.48 170.59,401.15 173.87,399.92 177.14,398.08 180.42,396.63 183.69,394.69 186.97,392.79 190.24,391.29 193.51,391.18 196.79,391.40 200.06,391.45 203.34,391.96 206.61,392.57 209.88,392.90 213.16,393.52 216.43,394.69 219.71,394.74 222.98,395.52 226.25,395.35 229.53,395.80 232.80,397.92 236.08,400.70 239.35,404.54 242.63,408.44 245.90,412.01 249.17,415.57 252.45,418.92 255.72,421.20 259.00,421.03 262.27,421.09 265.54,420.70 268.82,419.92 272.09,419.31 275.37,417.80 278.64,415.52 281.92,413.01 285.19,411.56 288.46,409.17 291.74,407.55 295.01,405.44 298.29,402.93 301.56,399.14 304.83,395.47 308.11,390.95 311.38,386.16 314.66,380.59 317.93,375.47 321.20,371.51 324.48,369.12 327.75,367.56 331.03,366.22 334.30,364.50 337.58,362.82 340.85,360.21 344.12,358.93 347.40,357.98 350.67,356.59 353.95,354.02 357.22,351.74 360.49,349.18 363.77,346.84 367.04,345.67 370.32,344.44 373.59,345.17 376.86,346.34 380.14,348.06 383.41,350.18 386.69,350.90 389.96,351.24 393.24,350.79 396.51,350.90 399.78,352.24 403.06,353.63 406.33,356.59 409.61,359.26 412.88,360.99 416.15,363.60 419.43,367.78 422.70,371.01 425.98,374.19 429.25,376.92 432.53,378.98 435.80,380.15 439.07,380.04 442.35,379.70 445.62,379.53 448.90,378.37 452.17,377.70 455.44,377.20 458.72,376.69 461.99,376.36 465.27,375.58 468.54,374.58 471.81,374.24 475.09,374.47 478.36,376.03 481.64,376.58 484.91,377.14 488.19,378.31 491.46,380.04 494.73,382.10 498.01,384.21 501.28,386.89 504.56,388.73 507.83,390.45 511.10,392.29 514.38,394.02 517.65,395.74 520.93,398.31 524.20,399.36 527.47,400.20 530.75,401.04 534.02,400.92 537.30,399.81 540.57,397.08 543.85,394.63 547.12,393.24 550.39,392.35 553.67,390.29 556.94,388.50 560.22,385.83 563.49,383.10 566.76,380.43 570.04,379.20 573.31,378.87 576.59,379.42 579.86,380.04 583.14,380.48 586.41,380.48 589.68,380.87 592.96,380.48 596.23,379.81 599.51,379.81 602.78,379.76 606.05,380.37 609.33,378.64 612.60,377.08 615.88,374.19 619.15,372.91 622.42,372.79 625.70,372.52 628.97,372.35 632.25,372.91 635.52,372.96 638.80,371.96 642.07,370.23 645.34,368.84 648.62,367.61 651.89,365.83 655.17,364.33 658.44,364.05 661.71,364.22 664.99,364.89 668.26,365.11 671.54,365.00 674.81,366.17 678.08,366.44 681.36,368.67 684.63,370.46 687.91,369.40 691.18,369.95 694.46,369.95 697.73,367.11 701.00,363.72 704.28,360.10 707.55,356.70 710.83,352.91 714.10,350.74 717.37,347.45 720.65,344.11 723.92,339.37 727.20,333.08 730.47,326.95 733.75,322.44 737.02,318.21 740.29,313.92 743.57,310.35 746.84,305.79 750.12,302.00 753.39,298.94 756.66,294.87 759.94,288.46 763.21,284.40 766.49,281.33 769.76,278.88 773.03,276.54 776.31,274.59 779.58,271.70 782.86,273.09 786.13,275.65 789.41,280.00 792.68,285.57 795.95,288.57 799.23,289.24 802.50,289.97 805.78,290.97 809.05,291.97 812.32,293.48 815.60,290.52 818.87,284.45 822.15,275.60 825.42,267.74 828.69,261.06 831.97,255.49 835.24,251.81 838.52,247.91 841.79,243.46 845.07,239.50 848.34,232.15 851.61,224.35 854.89,216.27 858.16,206.92 861.44,199.34 864.71,192.21 867.98,185.97 871.26,179.79 874.53,173.72 877.81,167.76 881.08,164.64 884.36,165.14 887.63,168.32 890.90,173.66 894.18,176.67 897.45,178.06 900.73,178.45 904.00,178.23" />
<text x="780.00" y="82.00" font-size="14" font-family="Arial" fill="#2ca02c" text-anchor="start">MA20</text>
<polyline fill="none" stroke="#ff7f0e" stroke-width="2" points="249.17,401.92 252.45,402.46 255.72,402.85 259.00,402.74 262.27,402.74 265.54,402.46 268.82,402.11 272.09,401.95 275.37,402.08 278.64,402.08 281.92,401.93 285.19,401.61 288.46,401.17 291.74,401.07 295.01,400.96 298.29,400.78 301.56,400.33 304.83,399.98 308.11,399.16 311.38,398.27 314.66,396.95 317.93,395.73 321.20,394.67 324.48,393.78 327.75,393.35 331.03,392.79 334.30,392.12 337.58,391.57 340.85,390.30 344.12,389.32 347.40,388.56 350.67,387.63 353.95,386.24 357.22,384.88 360.49,383.47 363.77,382.56 367.04,381.84 370.32,381.48 373.59,381.52 376.86,381.50 380.14,381.41 383.41,381.52 386.69,381.21 389.96,380.46 393.24,379.81 396.51,379.27 399.78,378.88 403.06,378.59 406.33,378.20 409.61,377.90 412.88,377.33 416.15,377.25 419.43,376.99 422.70,376.77 425.98,376.27 429.25,375.56 432.53,374.60 435.80,373.35 439.07,372.05 442.35,370.73 445.62,369.40 448.90,368.00 452.17,366.70 455.44,365.85 458.72,365.02 461.99,364.50 465.27,364.11 468.54,363.68 471.81,363.68 475.09,364.22 478.36,365.00 481.64,365.59 484.91,366.31 488.19,367.02 491.46,367.80 494.73,368.62 498.01,369.62 501.28,370.49 504.56,371.31 507.83,372.16 511.10,373.30 514.38,374.19 517.65,374.78 520.93,375.58 524.20,375.62 527.47,375.82 530.75,376.29 534.02,376.38 537.30,376.88 540.57,376.94 543.85,377.21 547.12,377.81 550.39,379.09 553.67,379.87 556.94,380.91 560.22,381.61 563.49,382.10 566.76,382.49 570.04,382.65 573.31,383.01 576.59,383.75 579.86,384.14 583.14,384.64 586.41,385.33 589.68,385.64 592.96,385.68 596.23,385.48 599.51,385.10 602.78,384.60 606.05,383.97 609.33,383.10 612.60,382.30 615.88,381.22 619.15,380.50 622.42,380.44 625.70,380.15 628.97,379.89 632.25,380.07 635.52,380.30 638.80,380.43 642.07,380.65 645.34,380.96 648.62,381.28 651.89,381.54 655.17,381.52 658.44,381.58 661.71,381.69 664.99,381.87 668.26,381.56 671.54,380.82 674.81,379.81 678.08,378.92 681.36,378.40 684.63,377.88 687.91,376.90 691.18,376.10 694.46,375.13 697.73,373.48 701.00,371.96 704.28,370.31 707.55,368.78 710.83,367.26 714.10,366.28 717.37,364.59 720.65,363.10 723.92,361.30 727.20,359.04 730.47,357.22 733.75,355.77 737.02,354.52 740.29,352.91 743.57,351.29 746.84,349.55 750.12,348.45 753.39,347.04 756.66,345.78 759.94,343.59 763.21,341.47 766.49,339.34 769.76,336.98 773.03,334.49 776.31,332.11 779.58,330.02 782.86,328.79 786.13,328.03 789.41,327.81 792.68,327.62 795.95,326.80 799.23,325.60 802.50,324.39 805.78,323.69 809.05,322.92 812.32,322.65 815.60,320.99 818.87,317.60 822.15,313.47 825.42,308.72 828.69,304.19 831.97,300.18 835.24,296.93 838.52,293.72 841.79,290.32 845.07,287.31 848.34,284.23 851.61,281.37 854.89,278.55 858.16,275.19 861.44,271.62 864.71,267.97 867.98,264.72 871.26,261.56 874.53,258.68 877.81,255.67 881.08,252.39 884.36,249.51 887.63,246.26 890.90,243.29 894.18,240.71 897.45,238.30 900.73,236.38 904.00,234.23" />
<text x="780.00" y="104.00" font-size="14" font-family="Arial" fill="#ff7f0e" text-anchor="start">MA60</text>
<polyline fill="none" stroke="#d62728" stroke-width="2" points="707.55,381.26 710.83,380.72 714.10,380.32 717.37,379.78 720.65,379.19 723.92,378.50 727.20,377.68 730.47,376.95 733.75,376.44 737.02,375.96 740.29,375.41 743.57,374.87 746.84,374.34 750.12,373.99 753.39,373.59 756.66,373.13 759.94,372.37 763.21,371.63 766.49,370.86 769.76,370.11 773.03,369.36 776.31,368.61 779.58,367.89 782.86,367.49 786.13,367.19 789.41,366.97 792.68,366.79 795.95,366.41 799.23,365.81 802.50,365.23 805.78,364.70 809.05,364.22 812.32,363.81 815.60,363.01 818.87,361.87 822.15,360.55 825.42,359.03 828.69,357.74 831.97,356.60 835.24,355.63 838.52,354.69 841.79,353.68 845.07,352.71 848.34,351.59 851.61,350.48 854.89,349.46 858.16,348.29 861.44,347.08 864.71,345.74 867.98,344.48 871.26,343.21 874.53,342.11 877.81,341.03 881.08,339.94 884.36,338.81 887.63,337.59 890.90,336.33 894.18,334.95 897.45,333.56 900.73,332.27 904.00,330.95" />
<text x="780.00" y="126.00" font-size="14" font-family="Arial" fill="#d62728" text-anchor="start">MA200</text>
</svg>