<svg xmlns="http://www.w3.org/2000/svg" width="960" height="520" viewBox="0 0 960 520"><rect width="100%" height="100%" fill="white" />
<text x="56.00" y="32.00" font-size="20" font-family="Arial" fill="#1f2933" text-anchor="start">廣達(2382) Price and Moving Averages</text>
<line x1="56" y1="464" x2="904" y2="464" stroke="#cbd2d9" />
<line x1="56" y1="56" x2="56" y2="464" stroke="#cbd2d9" />
<text x="16.00" y="38.00" font-size="12" font-family="Arial" fill="#52606d" text-anchor="start">Price</text>
<line x1="56" y1="464.00" x2="904" y2="464.00" stroke="#edf2f7" />
<line x1="52" y1="464.00" x2="56" y2="464.00" stroke="#9fb3c8" />
<text x="48.00" y="468.00" font-size="11" font-family="Arial" fill="#52606d" text-anchor="end">234</text>
<line x1="56" y1="362.00" x2="904" y2="362.00" stroke="#edf2f7" />
<line x1="52" y1="362.00" x2="56" y2="362.00" stroke="#9fb3c8" />
<text x="48.00" y="366.00" font-size="11" font-family="Arial" fill="#52606d" text-anchor="end">278</text>
<line x1="56" y1="260.00" x2="904" y2="260.00" stroke="#edf2f7" />
<line x1="52" y1="260.00" x2="56" y2="260.00" stroke="#9fb3c8" />
<text x="48.00" y="264.00" font-size="11" font-family="Arial" fill="#52606d" text-anchor="end">322</text>
<line x1="56" y1="158.00" x2="904" y2="158.00" stroke="#edf2f7" />
<line x1="52" y1="158.00" x2="56" y2="158.00" stroke="#9fb3c8" />
<text x="48.00" y="162.00" font-size="11" font-family="Arial" fill="#52606d" text-anchor="end">365</text>
<line x1="56" y1="56.00" x2="904" y2="56.00" stroke="#edf2f7" />
<line x1="52" y1="56.00" x2="56" y2="56.00" stroke="#9fb3c8" />
<text x="48.00" y="60.00" font-size="11" font-family="Arial" fill="#52606d" text-anchor="end">409</text>
<line x1="56.00" y1="464" x2="56.00" y2="468" stroke="#9fb3c8" />
<text x="56.00" y="482.00" font-size="11" font-family="Arial" fill="#52606d" text-anchor="middle">07/01</text>
<line x1="226.25" y1="464" x2="226.25" y2="468" stroke="#9fb3c8" />
<text x="226.25" y="482.00" font-size="11" font-family="Arial" fill="#52606d" text-anchor="middle">09/12</text>
<line x1="396.51" y1="464" x2="396.51" y2="468" stroke="#9fb3c8" />
<text x="396.51" y="482.00" font-size="11" font-family="Arial" fill="#52606d" text-anchor="middle">12/01</text>
<line x1="563.49" y1="464" x2="563.49" y2="468" stroke="#9fb3c8" />
<text x="563.49" y="482.00" font-size="11" font-family="Arial" fill="#52606d" text-anchor="middle">02/23</text>
<line x1="733.75" y1="464" x2="733.75" y2="468" stroke="#9fb3c8" />
<text x="733.75" y="482.00" font-size="11" font-family="Arial" fill="#52606d" text-anchor="middle">05/12</text>
<line x1="904.00" y1="464" x2="904.00" y2="468" stroke="#9fb3c8" />
<text x="904.00" y="482.00" font-size="11" font-family="Arial" fill="#52606d" text-anchor="middle">07/24</text>
<polyline fill="none" stroke="#1f77b4" stroke-width="2" points="56.00,380.87 59.27,378.64 62.55,383.10 65.82,387.56 69.10,389.78 72.37,400.92 75.64,392.01 78.92,398.70 82.19,398.70 85.47,406.49 88.74,404.27 92.02,399.81 95.29,403.15 98.56,397.58 101.84,397.58 105.11,422.09 108.39,417.63 111.66,407.61 114.93,408.72 118.21,400.92 121.48,410.95 124.76,405.38 128.03,379.76 131.31,380.87 134.58,365.28 137.85,364.16 141.13,363.05 144.40,359.71 147.68,360.82 150.95,376.42 154.22,402.04 157.50,404.27 160.77,404.27 164.05,407.61 167.32,409.84 170.59,428.77 173.87,429.89 177.14,431.00 180.42,409.84 183.69,416.52 186.97,407.61 190.24,414.29 193.51,422.09 196.79,436.57 200.06,442.14 203.34,442.14 206.61,434.34 209.88,431.00 213.16,427.66 216.43,422.09 219.71,398.70 222.98,405.38 226.25,396.47 229.53,392.01 232.80,397.58 236.08,398.70 239.35,384.21 242.63,380.87 245.90,380.87 249.17,368.62 252.45,375.30 255.72,371.96 259.00,371.96 262.27,360.82 265.54,368.62 268.82,351.91 272.09,338.54 275.37,319.60 278.64,325.17 281.92,342.99 285.19,350.79 288.46,374.19 291.74,369.73 295.01,357.48 298.29,364.16 301.56,346.34 304.83,358.59 308.11,361.93 311.38,353.02 314.66,317.37 317.93,329.63 321.20,320.71 324.48,325.17 327.75,337.42 331.03,344.11 334.30,366.39 337.58,361.93 340.85,354.14 344.12,367.50 347.40,357.48 350.67,357.48 353.95,365.28 357.22,371.96 360.49,384.21 363.77,392.01 367.04,405.38 370.32,412.06 373.59,396.47 376.86,405.38 380.14,400.92 383.41,394.24 386.69,384.21 389.96,379.76 393.24,378.64 396.51,367.50 399.78,364.16 403.06,355.25 406.33,350.79 409.61,344.11 412.88,344.11 416.15,347.45 419.43,355.25 422.70,365.28 425.98,368.62 429.25,371.96 432.53,398.70 435.80,416.52 439.07,427.66 442.35,416.52 445.62,412.06 448.90,417.63 452.17,418.75 455.44,420.98 458.72,420.98 461.99,420.98 465.27,400.92 468.54,389.78 471.81,387.56 475.09,378.64 478.36,378.64 481.64,398.70 484.91,376.42 488.19,381.99 491.46,385.33 494.73,369.73 498.01,376.42 501.28,361.93 504.56,378.64 507.83,388.67 511.10,394.24 514.38,376.42 517.65,383.10 520.93,367.50 524.20,366.39 527.47,367.50 530.75,376.42 534.02,383.10 537.30,398.70 540.57,390.90 543.85,387.56 547.12,398.70 550.39,384.21 553.67,374.19 556.94,371.96 560.22,369.73 563.49,375.30 566.76,374.19 570.04,344.11 573.31,357.48 576.59,336.31 579.86,350.79 583.14,380.87 586.41,361.93 589.68,363.05 592.96,378.64 596.23,377.53 599.51,363.05 602.78,364.16 606.05,363.05 609.33,363.05 612.60,363.05 615.88,354.14 619.15,368.62 622.42,375.30 625.70,383.10 628.97,379.76 632.25,371.96 635.52,367.50 638.80,363.05 642.07,380.87 645.34,386.44 648.62,359.71 651.89,373.07 655.17,363.05 658.44,321.83 661.71,309.57 664.99,290.64 668.26,296.21 671.54,287.29 674.81,319.60 678.08,297.32 681.36,287.29 684.63,273.93 687.91,249.42 691.18,260.56 694.46,289.52 697.73,287.29 701.00,281.72 704.28,291.75 707.55,289.52 710.83,310.69 714.10,298.43 717.37,291.75 720.65,234.93 723.92,240.50 727.20,248.30 730.47,241.62 733.75,249.42 737.02,248.30 740.29,261.67 743.57,325.17 746.84,338.54 750.12,360.82 753.39,360.82 756.66,320.71 759.94,302.89 763.21,301.78 766.49,301.78 769.76,311.80 773.03,319.60 776.31,251.64 779.58,177.01 782.86,114.62 786.13,77.86 789.41,106.82 792.68,136.90 795.95,168.09 799.23,171.44 802.50,159.18 805.78,182.58 809.05,178.12 812.32,182.58 815.60,199.29 818.87,173.66 822.15,169.21 825.42,160.29 828.69,177.01 831.97,178.12 835.24,190.37 838.52,200.40 841.79,189.26 845.07,187.03 848.34,178.12 851.61,184.80 854.89,166.98 858.16,164.75 861.44,175.89 864.71,166.98 867.98,174.78 871.26,174.78 874.53,164.75 877.81,160.29 881.08,158.07 884.36,189.20 887.63,250.76 890.90,272.83 894.18,254.25 897.45,242.63 900.73,226.37 904.00,244.95" />
<text x="780.00" y="60.00" font-size="14" font-family="Arial" fill="#1f77b4" text-anchor="start">Close</text>
<polyline fill="none" stroke="#2ca02c" stroke-width="2" points="118.21,398.81 121.48,400.31 124.76,401.65 128.03,401.48 131.31,401.15 134.58,399.92 137.85,398.08 141.13,396.63 144.40,394.69 147.68,392.79 150.95,391.29 154.22,391.18 157.50,391.40 160.77,391.45 164.05,391.96 167.32,392.57 170.59,392.90 173.87,393.52 177.14,394.69 180.42,394.74 183.69,395.52 186.97,395.35 190.24,395.80 193.51,397.92 196.79,400.70 200.06,404.54 203.34,408.44 206.61,412.01 209.88,415.57 213.16,418.92 216.43,421.20 219.71,421.03 222.98,421.09 226.25,420.70 229.53,419.92 232.80,419.31 236.08,417.80 239.35,415.52 242.63,413.01 245.90,411.56 249.17,409.17 252.45,407.55 255.72,405.44 259.00,402.93 262.27,399.14 265.54,395.47 268.82,390.95 272.09,386.16 275.37,380.59 278.64,375.47 281.92,371.51 285.19,369.12 288.46,367.56 291.74,366.22 295.01,364.50 298.29,362.82 301.56,360.21 304.83,358.93 308.11,357.98 311.38,356.59 314.66,354.02 317.93,351.74 321.20,349.18 324.48,346.84 327.75,345.67 331.03,344.44 334.30,345.17 337.58,346.34 340.85,348.06 344.12,350.18 347.40,350.90 350.67,351.24 353.95,350.79 357.22,350.90 360.49,352.24 363.77,353.63 367.04,356.59 370.32,359.26 373.59,360.99 376.86,363.60 380.14,367.78 383.41,371.01 386.69,374.19 389.96,376.92 393.24,378.98 396.51,380.15 399.78,380.04 403.06,379.70 406.33,379.53 409.61,378.36 412.88,377.70 416.15,377.20 419.43,376.69 422.70,376.36 425.98,375.58 429.25,374.58 432.53,374.24 435.80,374.47 439.07,376.03 442.35,376.58 445.62,377.14 448.90,378.31 452.17,380.04 455.44,382.10 458.72,384.21 461.99,386.89 465.27,388.73 468.54,390.45 471.81,392.29 475.09,394.02 478.36,395.74 481.64,398.31 484.91,399.36 488.19,400.20 491.46,401.04 494.73,400.92 498.01,399.81 501.28,397.08 504.56,394.63 507.83,393.24 511.10,392.35 514.38,390.29 517.65,388.50 520.93,385.83 524.20,383.10 527.47,380.43 530.75,379.20 534.02,378.87 537.30,379.42 540.57,380.04 543.85,380.48 547.12,380.48 550.39,380.87 553.67,380.48 556.94,379.81 560.22,379.81 563.49,379.76 566.76,380.37 570.04,378.64 573.31,377.08 576.59,374.19 579.86,372.91 583.14,372.79 586.41,372.52 589.68,372.35 592.96,372.91 596.23,372.96 599.51,371.96 602.78,370.23 606.05,368.84 609.33,367.61 612.60,365.83 615.88,364.33 619.15,364.05 622.42,364.22 625.70,364.89 628.97,365.11 632.25,365.00 635.52,366.17 638.80,366.44 642.07,368.67 645.34,370.46 648.62,369.40 651.89,369.95 655.17,369.95 658.44,367.11 661.71,363.72 664.99,360.10 668.26,356.70 671.54,352.91 674.81,350.74 678.08,347.45 681.36,344.11 684.63,339.37 687.91,333.08 691.18,326.95 694.46,322.44 697.73,318.21 701.00,313.92 704.28,310.35 707.55,305.79 710.83,302.00 714.10,298.94 717.37,294.87 720.65,288.46 723.92,284.40 727.20,281.33 730.47,278.88 733.75,276.54 737.02,274.59 740.29,271.70 743.57,273.09 746.84,275.65 750.12,280.00 753.39,285.57 756.66,288.57 759.94,289.24 763.21,289.97 766.49,290.97 769.76,291.97 773.03,293.48 776.31,290.52 779.58,284.45 782.86,275.60 786.13,267.74 789.41,261.06 792.68,255.49 795.95,251.81 799.23,247.91 802.50,243.46 805.78,239.50 809.05,232.15 812.32,224.35 815.60,216.27 818.87,206.92 822.15,199.34 825.42,192.21 828.69,185.97 831.97,179.79 835.24,173.72 838.52,167.76 841.79,164.64 845.07,165.14 848.34,168.32 851.61,173.66 854.89,176.67 858.16,178.06 861.44,178.45 864.71,178.23 867.98,179.01 871.26,178.62 874.53,177.95 877.81,176.84 881.08,174.78 884.36,175.55 887.63,179.63 890.90,185.26 894.18,189.12 897.45,192.35 900.73,194.15 904.00,196.37" />
<text x="780.00" y="82.00" font-size="14" font-family="Arial" fill="#2ca02c" text-anchor="start">MA20</text>
<polyline fill="none" stroke="#ff7f0e" stroke-width="2" points="249.17,401.17 252.45,401.07 255.72,400.96 259.00,400.78 262.27,400.33 265.54,399.98 268.82,399.16 272.09,398.27 275.37,396.95 278.64,395.73 281.92,394.67 285.19,393.78 288.46,393.35 291.74,392.79 295.01,392.12 298.29,391.57 301.56,390.30 304.83,389.32 308.11,388.56 311.38,387.63 314.66,386.24 317.93,384.88 321.20,383.47 324.48,382.56 327.75,381.84 331.03,381.48 334.30,381.52 337.58,381.50 340.85,381.41 344.12,381.52 347.40,381.21 350.67,380.46 353.95,379.81 357.22,379.27 360.49,378.88 363.77,378.59 367.04,378.20 370.32,377.90 373.59,377.33 376.86,377.25 380.14,376.99 383.41,376.77 386.69,376.27 389.96,375.56 393.24,374.60 396.51,373.35 399.78,372.05 403.06,370.73 406.33,369.40 409.61,368.00 412.88,366.70 416.15,365.85 419.43,365.02 422.70,364.50 425.98,364.11 429.25,363.68 432.53,363.68 435.80,364.22 439.07,365.00 442.35,365.59 445.62,366.31 448.90,367.02 452.17,367.80 455.44,368.62 458.72,369.62 461.99,370.49 465.27,371.31 468.54,372.16 471.81,373.30 475.09,374.19 478.36,374.78 481.64,375.58 484.91,375.62 488.19,375.82 491.46,376.29 494.73,376.38 498.01,376.88 501.28,376.94 504.56,377.21 507.83,377.81 511.10,379.09 514.38,379.87 517.65,380.91 520.93,381.61 524.20,382.10 527.47,382.49 530.75,382.65 534.02,383.01 537.30,383.75 540.57,384.14 543.85,384.64 547.12,385.33 550.39,385.64 553.67,385.68 556.94,385.48 560.22,385.10 563.49,384.60 566.76,383.97 570.04,383.10 573.31,382.30 576.59,381.22 579.86,380.50 583.14,380.44 586.41,380.15 589.68,379.89 592.96,380.07 596.23,380.30 599.51,380.43 602.78,380.65 606.05,380.96 609.33,381.28 612.60,381.54 615.88,381.52 619.15,381.58 622.42,381.69 625.70,381.87 628.97,381.56 632.25,380.82 635.52,379.81 638.80,378.92 642.07,378.40 645.34,377.88 648.62,376.90 651.89,376.10 655.17,375.13 658.44,373.48 661.71,371.96 664.99,370.31 668.26,368.78 671.54,367.26 674.81,366.28 678.08,364.59 681.36,363.10 684.63,361.30 687.91,359.04 691.18,357.22 694.46,355.77 697.73,354.52 701.00,352.91 704.28,351.29 707.55,349.55 710.83,348.45 714.10,347.04 717.37,345.78 720.65,343.59 723.92,341.47 727.20,339.34 730.47,336.98 733.75,334.49 737.02,332.11 740.29,330.02 743.57,328.79 746.84,328.03 750.12,327.81 753.39,327.62 756.66,326.80 759.94,325.60 763.21,324.39 766.49,323.69 769.76,322.92 773.03,322.65 776.31,320.99 779.58,317.60 782.86,313.47 786.13,308.72 789.41,304.19 792.68,300.18 795.95,296.93 799.23,293.72 802.50,290.32 805.78,287.31 809.05,284.23 812.32,281.37 815.60,278.55 818.87,275.19 822.15,271.62 825.42,267.97 828.69,264.72 831.97,261.56 835.24,258.68 838.52,255.67 841.79,252.39 845.07,249.51 848.34,246.26 851.61,243.29 854.89,240.71 858.16,238.30 861.44,236.38 864.71,234.23 867.98,232.35 871.26,229.94 874.53,227.73 877.81,225.61 881.08,223.68 884.36,222.68 887.63,222.52 890.90,222.24 894.18,221.69 897.45,221.04 900.73,219.95 904.00,219.20" />
<text x="780.00" y="104.00" font-size="14" font-family="Arial" fill="#ff7f0e" text-anchor="start">MA60</text>
<polyline fill="none" stroke="#d62728" stroke-width="2" points="707.55,374.34 710.83,373.99 714.10,373.59 717.37,373.13 720.65,372.37 723.92,371.63 727.20,370.86 730.47,370.11 733.75,369.36 737.02,368.61 740.29,367.89 743.57,367.49 746.84,367.19 750.12,366.97 753.39,366.79 756.66,366.41 759.94,365.81 763.21,365.23 766.49,364.70 769.76,364.22 773.03,363.81 776.31,363.01 779.58,361.87 782.86,360.55 786.13,359.03 789.41,357.74 792.68,356.60 795.95,355.63 799.23,354.69 802.50,353.68 805.78,352.71 809.05,351.59 812.32,350.48 815.60,349.46 818.87,348.29 822.15,347.08 825.42,345.74 828.69,344.48 831.97,343.21 835.24,342.11 838.52,341.03 841.79,339.94 845.07,338.81 848.34,337.59 851.61,336.33 854.89,334.95 858.16,333.56 861.44,332.27 864.71,330.95 867.98,329.69 871.26,328.45 874.53,327.28 877.81,326.06 881.08,324.86 884.36,323.85 887.63,323.12 890.90,322.49 894.18,321.84 897.45,321.15 900.73,320.37 904.00,319.75" />
<text x="780.00" y="126.00" font-size="14" font-family="Arial" fill="#d62728" text-anchor="start">MA200</text>
</svg>