<svg xmlns="http://www.w3.org/2000/svg" width="960" height="520" viewBox="0 0 960 520"><rect width="100%" height="100%" fill="white" />
<text x="56.00" y="32.00" font-size="20" font-family="Arial" fill="#1f2933" text-anchor="start">聯發科(2454) Price and Moving Averages</text>
<line x1="56" y1="464" x2="904" y2="464" stroke="#cbd2d9" />
<line x1="56" y1="56" x2="56" y2="464" stroke="#cbd2d9" />
<text x="16.00" y="38.00" font-size="12" font-family="Arial" fill="#52606d" text-anchor="start">Price</text>
<line x1="56" y1="464.00" x2="904" y2="464.00" stroke="#edf2f7" />
<line x1="52" y1="464.00" x2="56" y2="464.00" stroke="#9fb3c8" />
<text x="48.00" y="468.00" font-size="11" font-family="Arial" fill="#52606d" text-anchor="end">907</text>
<line x1="56" y1="362.00" x2="904" y2="362.00" stroke="#edf2f7" />
<line x1="52" y1="362.00" x2="56" y2="362.00" stroke="#9fb3c8" />
<text x="48.00" y="366.00" font-size="11" font-family="Arial" fill="#52606d" text-anchor="end">1,886</text>
<line x1="56" y1="260.00" x2="904" y2="260.00" stroke="#edf2f7" />
<line x1="52" y1="260.00" x2="56" y2="260.00" stroke="#9fb3c8" />
<text x="48.00" y="264.00" font-size="11" font-family="Arial" fill="#52606d" text-anchor="end">2,864</text>
<line x1="56" y1="158.00" x2="904" y2="158.00" stroke="#edf2f7" />
<line x1="52" y1="158.00" x2="56" y2="158.00" stroke="#9fb3c8" />
<text x="48.00" y="162.00" font-size="11" font-family="Arial" fill="#52606d" text-anchor="end">3,843</text>
<line x1="56" y1="56.00" x2="904" y2="56.00" stroke="#edf2f7" />
<line x1="52" y1="56.00" x2="56" y2="56.00" stroke="#9fb3c8" />
<text x="48.00" y="60.00" font-size="11" font-family="Arial" fill="#52606d" text-anchor="end">4,822</text>
<line x1="56.00" y1="464" x2="56.00" y2="468" stroke="#9fb3c8" />
<text x="56.00" y="482.00" font-size="11" font-family="Arial" fill="#52606d" text-anchor="middle">06/17</text>
<line x1="226.25" y1="464" x2="226.25" y2="468" stroke="#9fb3c8" />
<text x="226.25" y="482.00" font-size="11" font-family="Arial" fill="#52606d" text-anchor="middle">08/29</text>
<line x1="396.51" y1="464" x2="396.51" y2="468" stroke="#9fb3c8" />
<text x="396.51" y="482.00" font-size="11" font-family="Arial" fill="#52606d" text-anchor="middle">11/17</text>
<line x1="563.49" y1="464" x2="563.49" y2="468" stroke="#9fb3c8" />
<text x="563.49" y="482.00" font-size="11" font-family="Arial" fill="#52606d" text-anchor="middle">01/29</text>
<line x1="733.75" y1="464" x2="733.75" y2="468" stroke="#9fb3c8" />
<text x="733.75" y="482.00" font-size="11" font-family="Arial" fill="#52606d" text-anchor="middle">04/27</text>
<line x1="904.00" y1="464" x2="904.00" y2="468" stroke="#9fb3c8" />
<text x="904.00" y="482.00" font-size="11" font-family="Arial" fill="#52606d" text-anchor="middle">07/10</text>
<polyline fill="none" stroke="#1f77b4" stroke-width="2" points="56.00,431.43 59.27,430.44 62.55,432.43 65.82,433.93 69.10,433.43 72.37,431.93 75.64,429.44 78.92,429.94 82.19,430.44 85.47,433.93 88.74,431.43 92.02,429.44 95.29,429.44 98.56,427.41 101.84,428.42 105.11,429.44 108.39,420.80 111.66,416.23 114.93,414.20 118.21,417.76 121.48,416.74 124.76,415.21 128.03,417.25 131.31,415.21 134.58,413.69 137.85,413.18 141.13,413.18 144.40,413.18 147.68,413.18 150.95,416.23 154.22,420.30 157.50,418.26 160.77,419.28 164.05,423.34 167.32,422.33 170.59,424.36 173.87,420.80 177.14,421.31 180.42,420.80 183.69,420.30 186.97,419.28 190.24,417.25 193.51,419.28 196.79,415.21 200.06,417.25 203.34,420.80 206.61,419.79 209.88,419.79 213.16,415.21 216.43,416.23 219.71,416.23 222.98,417.76 226.25,419.28 229.53,420.30 232.80,420.30 236.08,416.74 239.35,417.76 242.63,412.67 245.90,413.18 249.17,405.05 252.45,407.09 255.72,408.10 259.00,407.59 262.27,407.59 265.54,402.51 268.82,405.05 272.09,405.05 275.37,412.17 278.64,415.72 281.92,418.77 285.19,423.34 288.46,421.82 291.74,425.38 295.01,424.87 298.29,427.92 301.56,428.42 304.83,424.36 308.11,423.85 311.38,422.84 314.66,421.82 317.93,424.87 321.20,425.88 324.48,424.87 327.75,423.34 331.03,423.34 334.30,422.33 337.58,422.33 340.85,423.34 344.12,426.90 347.40,422.84 350.67,424.87 353.95,426.39 357.22,425.38 360.49,425.38 363.77,426.39 367.04,424.87 370.32,423.34 373.59,427.41 376.86,430.46 380.14,431.47 383.41,432.49 386.69,431.98 389.96,431.98 393.24,433.51 396.51,433.51 399.78,439.60 403.06,440.62 406.33,438.08 409.61,442.14 412.88,441.63 416.15,438.08 419.43,426.39 422.70,422.33 425.98,416.74 429.25,411.66 432.53,414.71 435.80,416.23 439.07,415.72 442.35,413.69 445.62,412.17 448.90,414.20 452.17,410.13 455.44,416.74 458.72,415.72 461.99,414.20 465.27,414.20 468.54,413.69 471.81,414.20 475.09,415.21 478.36,416.23 481.64,417.25 484.91,418.26 488.19,417.76 491.46,414.20 494.73,414.20 498.01,413.18 501.28,409.12 504.56,403.53 507.83,404.67 511.10,404.15 514.38,408.81 517.65,411.40 520.93,408.81 524.20,404.67 527.47,403.11 530.75,404.15 534.02,402.60 537.30,404.67 540.57,404.67 543.85,406.74 547.12,404.67 550.39,389.65 553.67,375.15 556.94,374.63 560.22,374.11 563.49,374.11 566.76,376.18 570.04,381.88 573.31,372.56 576.59,372.04 579.86,375.15 583.14,381.36 586.41,368.93 589.68,367.38 592.96,366.34 596.23,372.56 599.51,369.45 602.78,364.79 606.05,357.02 609.33,361.68 612.60,370.49 615.88,380.33 619.15,374.63 622.42,375.66 625.70,386.02 628.97,381.88 632.25,375.66 635.52,373.59 638.80,380.33 642.07,381.36 645.34,379.29 648.62,379.29 651.89,384.47 655.17,382.40 658.44,390.17 661.71,390.68 664.99,390.68 668.26,393.79 671.54,394.31 674.81,402.08 678.08,404.15 681.36,406.74 684.63,406.74 687.91,406.22 691.18,394.83 694.46,395.35 697.73,395.35 701.00,390.68 704.28,380.33 707.55,373.07 710.83,362.20 714.10,359.09 717.37,361.68 720.65,342.00 723.92,320.76 727.20,329.05 730.47,306.26 733.75,306.26 737.02,287.62 740.29,291.76 743.57,288.14 746.84,261.20 750.12,231.68 753.39,203.20 756.66,204.23 759.94,182.48 763.21,156.58 766.49,175.23 769.76,196.46 773.03,205.78 776.31,220.80 779.58,206.30 782.86,231.68 786.13,223.91 789.41,190.77 792.68,158.65 795.95,118.77 799.23,116.70 802.50,77.86 805.78,101.68 809.05,112.04 812.32,86.66 815.60,89.77 818.87,87.70 822.15,99.61 825.42,113.08 828.69,136.90 831.97,94.95 835.24,128.10 838.52,135.35 841.79,125.51 845.07,95.47 848.34,86.14 851.61,96.50 854.89,103.75 858.16,95.98 861.44,88.73 864.71,114.63 867.98,112.04 871.26,156.58 874.53,153.47 877.81,118.77 881.08,109.45 884.36,108.41 887.63,123.95 890.90,131.20 894.18,138.55 897.45,142.20 900.73,149.49 904.00,149.49" />
<text x="780.00" y="60.00" font-size="14" font-family="Arial" fill="#1f77b4" text-anchor="start">Close</text>
<polyline fill="none" stroke="#2ca02c" stroke-width="2" points="118.21,428.10 121.48,427.36 124.76,426.60 128.03,425.84 131.31,424.90 134.58,423.92 137.85,422.98 141.13,422.17 144.40,421.33 147.68,420.47 150.95,419.58 154.22,419.03 157.50,418.47 160.77,417.96 164.05,417.76 167.32,417.45 170.59,417.20 173.87,417.20 177.14,417.45 180.42,417.78 183.69,417.91 186.97,418.03 190.24,418.14 193.51,418.24 196.79,418.24 200.06,418.42 203.34,418.80 206.61,419.13 209.88,419.46 213.16,419.56 216.43,419.56 219.71,419.36 222.98,419.33 226.25,419.33 229.53,419.18 232.80,419.08 236.08,418.70 239.35,418.54 242.63,418.11 245.90,417.73 249.17,416.97 252.45,416.36 255.72,415.90 259.00,415.32 262.27,414.94 265.54,414.20 268.82,413.41 272.09,412.67 275.37,412.29 278.64,412.32 281.92,412.45 285.19,412.80 288.46,413.00 291.74,413.31 295.01,413.54 298.29,413.92 301.56,414.50 304.83,414.83 308.11,415.39 311.38,415.88 314.66,416.71 317.93,417.60 321.20,418.49 324.48,419.36 327.75,420.14 331.03,421.18 334.30,422.05 337.58,422.91 340.85,423.47 344.12,424.03 347.40,424.23 350.67,424.31 353.95,424.54 357.22,424.54 360.49,424.56 363.77,424.49 367.04,424.31 370.32,424.26 373.59,424.44 376.86,424.82 380.14,425.30 383.41,425.68 386.69,425.99 389.96,426.34 393.24,426.85 396.51,427.36 399.78,428.22 403.06,429.14 406.33,429.87 409.61,430.63 412.88,431.57 416.15,432.24 419.43,432.24 422.70,432.08 425.98,431.65 429.25,430.91 432.53,430.41 435.80,430.05 439.07,429.47 442.35,428.63 445.62,427.66 448.90,426.75 452.17,425.66 455.44,424.89 458.72,424.00 461.99,423.04 465.27,421.77 468.54,420.42 471.81,419.23 475.09,417.88 478.36,416.61 481.64,415.57 484.91,415.16 488.19,414.94 491.46,414.81 494.73,414.94 498.01,414.86 501.28,414.50 504.56,413.89 507.83,413.44 511.10,413.04 514.38,412.77 517.65,412.84 520.93,412.44 524.20,411.89 527.47,411.33 530.75,410.83 534.02,410.28 537.30,409.80 540.57,409.27 543.85,408.80 547.12,408.17 550.39,406.74 553.67,404.61 556.94,402.63 560.22,400.62 563.49,398.67 566.76,397.02 570.04,395.94 573.31,394.34 576.59,392.73 579.86,391.05 583.14,389.55 586.41,387.55 589.68,385.69 592.96,383.85 596.23,382.27 599.51,380.61 602.78,378.62 606.05,376.23 609.33,373.98 612.60,372.27 615.88,371.81 619.15,371.78 622.42,371.83 625.70,372.43 628.97,372.82 632.25,372.79 635.52,372.38 638.80,372.76 642.07,373.23 645.34,373.44 648.62,373.33 651.89,374.11 655.17,374.86 658.44,376.05 661.71,376.96 664.99,378.02 668.26,379.47 671.54,381.34 674.81,383.36 678.08,385.04 681.36,386.36 684.63,387.97 687.91,389.49 691.18,389.93 694.46,390.61 697.73,391.59 701.00,392.45 704.28,392.45 707.55,392.03 710.83,391.18 714.10,390.17 717.37,389.03 720.65,387.01 723.92,383.54 727.20,380.46 730.47,376.23 733.75,371.86 737.02,366.52 740.29,361.01 743.57,355.21 746.84,347.93 750.12,339.18 753.39,329.03 756.66,319.50 759.94,308.85 763.21,296.91 766.49,286.14 769.76,276.95 773.03,268.58 776.31,261.51 779.58,253.87 782.86,247.37 786.13,241.47 789.41,234.97 792.68,226.45 795.95,217.08 799.23,207.60 802.50,197.11 805.78,187.61 809.05,178.80 812.32,170.07 815.60,162.98 818.87,157.20 822.15,151.97 825.42,148.50 828.69,147.52 831.97,143.50 835.24,140.09 838.52,136.56 841.79,131.80 845.07,126.26 848.34,118.98 851.61,112.61 854.89,108.26 858.16,105.13 861.44,103.62 864.71,103.52 867.98,105.23 871.26,107.97 874.53,110.05 877.81,111.65 881.08,112.64 884.36,113.67 887.63,114.89 890.90,115.80 894.18,115.88 897.45,118.24 900.73,119.31 904.00,120.02" />
<text x="780.00" y="82.00" font-size="14" font-family="Arial" fill="#2ca02c" text-anchor="start">MA20</text>
<polyline fill="none" stroke="#ff7f0e" stroke-width="2" points="249.17,420.99 252.45,420.58 255.72,420.21 259.00,419.80 262.27,419.36 265.54,418.84 268.82,418.40 272.09,417.99 275.37,417.69 278.64,417.45 281.92,417.20 285.19,417.06 288.46,416.93 291.74,416.87 295.01,416.82 298.29,416.82 301.56,416.80 304.83,416.86 308.11,416.98 311.38,417.13 314.66,417.20 317.93,417.33 321.20,417.51 324.48,417.64 327.75,417.77 331.03,417.93 334.30,418.09 337.58,418.24 340.85,418.41 344.12,418.64 347.40,418.75 350.67,418.82 353.95,418.96 357.22,419.06 360.49,419.09 363.77,419.16 367.04,419.17 370.32,419.21 373.59,419.31 376.86,419.47 380.14,419.66 383.41,419.88 386.69,420.13 389.96,420.34 393.24,420.64 396.51,420.91 399.78,421.23 403.06,421.57 406.33,421.88 409.61,422.33 412.88,422.75 416.15,423.12 419.43,423.26 422.70,423.31 425.98,423.25 429.25,423.11 432.53,423.07 435.80,423.05 439.07,423.10 442.35,423.11 445.62,423.23 448.90,423.34 452.17,423.38 455.44,423.53 458.72,423.67 461.99,423.86 465.27,424.01 468.54,424.16 471.81,424.19 475.09,424.18 478.36,424.14 481.64,424.04 484.91,423.98 488.19,423.85 491.46,423.67 494.73,423.45 498.01,423.19 501.28,422.94 504.56,422.60 507.83,422.30 511.10,422.00 514.38,421.73 517.65,421.49 520.93,421.22 524.20,420.91 527.47,420.58 530.75,420.27 534.02,419.94 537.30,419.63 540.57,419.26 543.85,418.99 547.12,418.66 550.39,418.05 553.67,417.21 556.94,416.36 560.22,415.49 563.49,414.65 566.76,413.86 570.04,413.10 573.31,412.14 576.59,411.14 579.86,410.19 583.14,409.35 586.41,408.29 589.68,407.19 592.96,406.07 596.23,404.96 599.51,403.77 602.78,402.55 606.05,401.13 609.33,399.80 612.60,398.67 615.88,397.90 619.15,397.11 622.42,396.42 625.70,396.00 628.97,395.45 632.25,394.77 635.52,394.07 638.80,393.51 642.07,393.00 645.34,392.42 648.62,391.90 651.89,391.37 655.17,390.81 658.44,390.41 661.71,390.02 664.99,389.64 668.26,389.30 671.54,388.95 674.81,388.71 678.08,388.49 681.36,388.30 684.63,388.12 687.91,387.98 691.18,387.66 694.46,387.36 697.73,387.13 701.00,386.92 704.28,386.52 707.55,386.00 710.83,385.22 714.10,384.35 717.37,383.56 720.65,382.52 723.92,381.15 727.20,379.89 730.47,378.29 733.75,376.65 737.02,374.70 740.29,372.78 743.57,370.84 746.84,368.70 750.12,366.31 753.39,363.45 756.66,360.62 759.94,357.42 763.21,353.76 766.49,350.32 769.76,347.39 773.03,344.61 776.31,342.04 779.58,339.12 782.86,336.84 786.13,334.45 789.41,331.52 792.68,327.95 795.95,323.78 799.23,319.64 802.50,314.99 805.78,310.66 809.05,306.35 812.32,301.45 815.60,296.71 818.87,291.91 822.15,287.13 825.42,282.65 828.69,278.67 831.97,274.03 835.24,269.83 838.52,265.73 841.79,261.50 845.07,256.77 848.34,251.79 851.61,247.03 854.89,242.26 858.16,237.34 861.44,232.31 864.71,227.66 867.98,222.95 871.26,218.86 874.53,214.68 877.81,209.89 881.08,204.93 884.36,199.97 887.63,195.45 890.90,191.05 894.18,186.77 897.45,182.63 900.73,178.78 904.00,175.05" />
<text x="780.00" y="104.00" font-size="14" font-family="Arial" fill="#ff7f0e" text-anchor="start">MA60</text>
<polyline fill="none" stroke="#d62728" stroke-width="2" points="707.55,410.37 710.83,410.02 714.10,409.67 717.37,409.31 720.65,408.85 723.92,408.29 727.20,407.77 730.47,407.16 733.75,406.54 737.02,405.83 740.29,405.11 743.57,404.40 746.84,403.56 750.12,402.57 753.39,401.45 756.66,400.33 759.94,399.09 763.21,397.77 766.49,396.57 769.76,395.48 773.03,394.42 776.31,393.44 779.58,392.39 782.86,391.46 786.13,390.51 789.41,389.39 792.68,388.12 795.95,386.65 799.23,385.17 802.50,383.49 805.78,381.92 809.05,380.38 812.32,378.72 815.60,377.07 818.87,375.39 822.15,373.78 825.42,372.22 828.69,370.80 831.97,369.17 835.24,367.71 838.52,366.28 841.79,364.81 845.07,363.20 848.34,361.54 851.61,359.95 854.89,358.38 858.16,356.75 861.44,355.10 864.71,353.57 867.98,352.06 871.26,350.76 874.53,349.44 877.81,347.95 881.08,346.40 884.36,344.84 887.63,343.36 890.90,341.93 894.18,340.54 897.45,339.18 900.73,337.87 904.00,336.59" />
<text x="780.00" y="126.00" font-size="14" font-family="Arial" fill="#d62728" text-anchor="start">MA200</text>
</svg>