<svg xmlns="http://www.w3.org/2000/svg" width="960" height="520" viewBox="0 0 960 520"><rect width="100%" height="100%" fill="white" />
<text x="56.00" y="32.00" font-size="20" font-family="Arial" fill="#1f2933" text-anchor="start">聯發科(2454) Price and Moving Averages</text>
<line x1="56" y1="464" x2="904" y2="464" stroke="#cbd2d9" />
<line x1="56" y1="56" x2="56" y2="464" stroke="#cbd2d9" />
<text x="16.00" y="38.00" font-size="12" font-family="Arial" fill="#52606d" text-anchor="start">Price</text>
<line x1="56" y1="464.00" x2="904" y2="464.00" stroke="#edf2f7" />
<line x1="52" y1="464.00" x2="56" y2="464.00" stroke="#9fb3c8" />
<text x="48.00" y="468.00" font-size="11" font-family="Arial" fill="#52606d" text-anchor="end">912</text>
<line x1="56" y1="362.00" x2="904" y2="362.00" stroke="#edf2f7" />
<line x1="52" y1="362.00" x2="56" y2="362.00" stroke="#9fb3c8" />
<text x="48.00" y="366.00" font-size="11" font-family="Arial" fill="#52606d" text-anchor="end">1,897</text>
<line x1="56" y1="260.00" x2="904" y2="260.00" stroke="#edf2f7" />
<line x1="52" y1="260.00" x2="56" y2="260.00" stroke="#9fb3c8" />
<text x="48.00" y="264.00" font-size="11" font-family="Arial" fill="#52606d" text-anchor="end">2,882</text>
<line x1="56" y1="158.00" x2="904" y2="158.00" stroke="#edf2f7" />
<line x1="52" y1="158.00" x2="56" y2="158.00" stroke="#9fb3c8" />
<text x="48.00" y="162.00" font-size="11" font-family="Arial" fill="#52606d" text-anchor="end">3,866</text>
<line x1="56" y1="56.00" x2="904" y2="56.00" stroke="#edf2f7" />
<line x1="52" y1="56.00" x2="56" y2="56.00" stroke="#9fb3c8" />
<text x="48.00" y="60.00" font-size="11" font-family="Arial" fill="#52606d" text-anchor="end">4,851</text>
<line x1="56.00" y1="464" x2="56.00" y2="468" stroke="#9fb3c8" />
<text x="56.00" y="482.00" font-size="11" font-family="Arial" fill="#52606d" text-anchor="middle">06/10</text>
<line x1="226.25" y1="464" x2="226.25" y2="468" stroke="#9fb3c8" />
<text x="226.25" y="482.00" font-size="11" font-family="Arial" fill="#52606d" text-anchor="middle">08/22</text>
<line x1="396.51" y1="464" x2="396.51" y2="468" stroke="#9fb3c8" />
<text x="396.51" y="482.00" font-size="11" font-family="Arial" fill="#52606d" text-anchor="middle">11/10</text>
<line x1="563.49" y1="464" x2="563.49" y2="468" stroke="#9fb3c8" />
<text x="563.49" y="482.00" font-size="11" font-family="Arial" fill="#52606d" text-anchor="middle">01/22</text>
<line x1="733.75" y1="464" x2="733.75" y2="468" stroke="#9fb3c8" />
<text x="733.75" y="482.00" font-size="11" font-family="Arial" fill="#52606d" text-anchor="middle">04/20</text>
<line x1="904.00" y1="464" x2="904.00" y2="468" stroke="#9fb3c8" />
<text x="904.00" y="482.00" font-size="11" font-family="Arial" fill="#52606d" text-anchor="middle">07/03</text>
<polyline fill="none" stroke="#1f77b4" stroke-width="2" points="56.00,425.45 59.27,427.45 62.55,430.44 65.82,433.93 69.10,433.43 72.37,431.43 75.64,430.44 78.92,432.43 82.19,433.93 85.47,433.43 88.74,431.93 92.02,429.44 95.29,429.94 98.56,430.44 101.84,433.93 105.11,431.43 108.39,429.44 111.66,429.44 114.93,427.41 118.21,428.42 121.48,429.44 124.76,420.80 128.03,416.23 131.31,414.20 134.58,417.76 137.85,416.74 141.13,415.21 144.40,417.25 147.68,415.21 150.95,413.69 154.22,413.18 157.50,413.18 160.77,413.18 164.05,413.18 167.32,416.23 170.59,420.30 173.87,418.26 177.14,419.28 180.42,423.34 183.69,422.33 186.97,424.36 190.24,420.80 193.51,421.31 196.79,420.80 200.06,420.30 203.34,419.28 206.61,417.25 209.88,419.28 213.16,415.21 216.43,417.25 219.71,420.80 222.98,419.79 226.25,419.79 229.53,415.21 232.80,416.23 236.08,416.23 239.35,417.76 242.63,419.28 245.90,420.30 249.17,420.30 252.45,416.74 255.72,417.76 259.00,412.67 262.27,413.18 265.54,405.05 268.82,407.09 272.09,408.10 275.37,407.59 278.64,407.59 281.92,402.51 285.19,405.05 288.46,405.05 291.74,412.17 295.01,415.72 298.29,418.77 301.56,423.34 304.83,421.82 308.11,425.38 311.38,424.87 314.66,427.92 317.93,428.42 321.20,424.36 324.48,423.85 327.75,422.84 331.03,421.82 334.30,424.87 337.58,425.88 340.85,424.87 344.12,423.34 347.40,423.34 350.67,422.33 353.95,422.33 357.22,423.34 360.49,426.90 363.77,422.84 367.04,424.87 370.32,426.39 373.59,425.38 376.86,425.38 380.14,426.39 383.41,424.87 386.69,423.34 389.96,427.41 393.24,430.46 396.51,431.47 399.78,432.49 403.06,431.98 406.33,431.98 409.61,433.51 412.88,433.51 416.15,439.60 419.43,440.62 422.70,438.08 425.98,442.14 429.25,441.63 432.53,438.08 435.80,426.39 439.07,422.33 442.35,416.74 445.62,411.66 448.90,414.71 452.17,416.23 455.44,415.72 458.72,413.69 461.99,412.17 465.27,414.20 468.54,410.13 471.81,416.74 475.09,415.72 478.36,414.20 481.64,414.20 484.91,413.69 488.19,414.20 491.46,415.21 494.73,416.23 498.01,417.25 501.28,418.26 504.56,417.76 507.83,414.20 511.10,414.20 514.38,413.18 517.65,409.12 520.93,403.53 524.20,404.67 527.47,404.15 530.75,408.81 534.02,411.40 537.30,408.81 540.57,404.67 543.85,403.11 547.12,404.15 550.39,402.60 553.67,404.67 556.94,404.67 560.22,406.74 563.49,404.67 566.76,389.65 570.04,375.15 573.31,374.63 576.59,374.11 579.86,374.11 583.14,376.18 586.41,381.88 589.68,372.56 592.96,372.04 596.23,375.15 599.51,381.36 602.78,368.93 606.05,367.38 609.33,366.34 612.60,372.56 615.88,369.45 619.15,364.79 622.42,357.02 625.70,361.68 628.97,370.49 632.25,380.33 635.52,374.63 638.80,375.66 642.07,386.02 645.34,381.88 648.62,375.66 651.89,373.59 655.17,380.33 658.44,381.36 661.71,379.29 664.99,379.29 668.26,384.47 671.54,382.40 674.81,390.17 678.08,390.68 681.36,390.68 684.63,393.79 687.91,394.31 691.18,402.08 694.46,404.15 697.73,406.74 701.00,406.74 704.28,406.22 707.55,394.83 710.83,395.35 714.10,395.35 717.37,390.68 720.65,380.33 723.92,373.07 727.20,362.20 730.47,359.09 733.75,361.68 737.02,342.00 740.29,320.76 743.57,329.05 746.84,306.26 750.12,306.26 753.39,287.62 756.66,291.76 759.94,288.14 763.21,261.20 766.49,231.68 769.76,203.20 773.03,204.23 776.31,182.48 779.58,156.58 782.86,175.23 786.13,196.46 789.41,205.78 792.68,220.80 795.95,206.30 799.23,231.68 802.50,223.91 805.78,190.77 809.05,158.65 812.32,118.77 815.60,116.70 818.87,77.86 822.15,101.68 825.42,112.04 828.69,86.66 831.97,89.77 835.24,87.70 838.52,99.61 841.79,113.08 845.07,136.90 848.34,94.95 851.61,128.10 854.89,135.35 858.16,125.51 861.44,95.47 864.71,86.14 867.98,96.50 871.26,103.75 874.53,95.98 877.81,88.73 881.08,114.63 884.36,112.04 887.63,156.58 890.90,153.47 894.18,118.77 897.45,109.45 900.73,108.41 904.00,123.95" />
<text x="780.00" y="60.00" font-size="14" font-family="Arial" fill="#1f77b4" text-anchor="start">Close</text>
<polyline fill="none" stroke="#2ca02c" stroke-width="2" points="118.21,430.71 121.48,430.91 124.76,430.58 128.03,429.87 131.31,428.88 134.58,428.10 137.85,427.36 141.13,426.60 144.40,425.84 147.68,424.90 150.95,423.92 154.22,422.98 157.50,422.17 160.77,421.33 164.05,420.47 167.32,419.58 170.59,419.03 173.87,418.47 177.14,417.96 180.42,417.76 183.69,417.45 186.97,417.20 190.24,417.20 193.51,417.45 196.79,417.78 200.06,417.91 203.34,418.03 206.61,418.14 209.88,418.24 213.16,418.24 216.43,418.42 219.71,418.80 222.98,419.13 226.25,419.46 229.53,419.56 232.80,419.56 236.08,419.36 239.35,419.33 242.63,419.33 245.90,419.18 249.17,419.08 252.45,418.70 255.72,418.54 259.00,418.11 262.27,417.73 265.54,416.97 268.82,416.36 272.09,415.90 275.37,415.32 278.64,414.94 281.92,414.20 285.19,413.41 288.46,412.67 291.74,412.29 295.01,412.32 298.29,412.45 301.56,412.80 304.83,413.00 308.11,413.31 311.38,413.54 314.66,413.92 317.93,414.50 321.20,414.83 324.48,415.39 327.75,415.88 331.03,416.71 334.30,417.60 337.58,418.49 340.85,419.36 344.12,420.14 347.40,421.18 350.67,422.05 353.95,422.91 357.22,423.47 360.49,424.03 363.77,424.23 367.04,424.31 370.32,424.54 373.59,424.54 376.86,424.56 380.14,424.49 383.41,424.31 386.69,424.26 389.96,424.44 393.24,424.82 396.51,425.30 399.78,425.68 403.06,425.99 406.33,426.34 409.61,426.85 412.88,427.36 416.15,428.22 419.43,429.14 422.70,429.87 425.98,430.63 429.25,431.57 432.53,432.24 435.80,432.24 439.07,432.08 442.35,431.65 445.62,430.91 448.90,430.41 452.17,430.05 455.44,429.47 458.72,428.63 461.99,427.66 465.27,426.75 468.54,425.66 471.81,424.89 475.09,424.00 478.36,423.04 481.64,421.77 484.91,420.42 488.19,419.23 491.46,417.88 494.73,416.61 498.01,415.57 501.28,415.16 504.56,414.94 507.83,414.81 511.10,414.94 514.38,414.86 517.65,414.50 520.93,413.89 524.20,413.44 527.47,413.04 530.75,412.77 534.02,412.84 537.30,412.44 540.57,411.89 543.85,411.33 547.12,410.83 550.39,410.28 553.67,409.80 556.94,409.27 560.22,408.80 563.49,408.17 566.76,406.74 570.04,404.61 573.31,402.63 576.59,400.62 579.86,398.67 583.14,397.02 586.41,395.94 589.68,394.34 592.96,392.73 596.23,391.05 599.51,389.55 602.78,387.55 606.05,385.69 609.33,383.85 612.60,382.27 615.88,380.61 619.15,378.62 622.42,376.23 625.70,373.98 628.97,372.27 632.25,371.81 635.52,371.78 638.80,371.83 642.07,372.43 645.34,372.82 648.62,372.79 651.89,372.38 655.17,372.76 658.44,373.23 661.71,373.44 664.99,373.33 668.26,374.11 671.54,374.86 674.81,376.05 678.08,376.96 681.36,378.02 684.63,379.47 687.91,381.34 691.18,383.36 694.46,385.04 697.73,386.36 701.00,387.97 704.28,389.49 707.55,389.93 710.83,390.61 714.10,391.59 717.37,392.45 720.65,392.45 723.92,392.03 727.20,391.18 730.47,390.17 733.75,389.03 737.02,387.01 740.29,383.54 743.57,380.46 746.84,376.23 750.12,371.86 753.39,366.52 756.66,361.01 759.94,355.21 763.21,347.93 766.49,339.18 769.76,329.03 773.03,319.50 776.31,308.85 779.58,296.91 782.86,286.14 786.13,276.95 789.41,268.58 792.68,261.51 795.95,253.87 799.23,247.37 802.50,241.47 805.78,234.97 809.05,226.45 812.32,217.08 815.60,207.60 818.87,197.11 822.15,187.61 825.42,178.80 828.69,170.07 831.97,162.98 835.24,157.20 838.52,151.97 841.79,148.50 845.07,147.52 848.34,143.50 851.61,140.09 854.89,136.56 858.16,131.80 861.44,126.26 864.71,118.98 867.98,112.61 871.26,108.26 874.53,105.13 877.81,103.62 881.08,103.52 884.36,105.23 887.63,107.97 890.90,110.05 894.18,111.65 897.45,112.64 900.73,113.67 904.00,114.89" />
<text x="780.00" y="82.00" font-size="14" font-family="Arial" fill="#2ca02c" text-anchor="start">MA20</text>
<polyline fill="none" stroke="#ff7f0e" stroke-width="2" points="249.17,422.41 252.45,422.27 255.72,422.10 259.00,421.81 262.27,421.46 265.54,420.99 268.82,420.58 272.09,420.21 275.37,419.80 278.64,419.36 281.92,418.84 285.19,418.40 288.46,417.99 291.74,417.69 295.01,417.45 298.29,417.20 301.56,417.06 304.83,416.93 308.11,416.87 311.38,416.82 314.66,416.82 317.93,416.80 321.20,416.86 324.48,416.98 327.75,417.13 331.03,417.20 334.30,417.33 337.58,417.51 340.85,417.64 344.12,417.77 347.40,417.93 350.67,418.09 353.95,418.24 357.22,418.41 360.49,418.64 363.77,418.75 367.04,418.82 370.32,418.96 373.59,419.06 376.86,419.09 380.14,419.16 383.41,419.17 386.69,419.21 389.96,419.31 393.24,419.47 396.51,419.66 399.78,419.88 403.06,420.13 406.33,420.34 409.61,420.64 412.88,420.91 416.15,421.23 419.43,421.57 422.70,421.88 425.98,422.33 429.25,422.75 432.53,423.12 435.80,423.26 439.07,423.31 442.35,423.25 445.62,423.11 448.90,423.07 452.17,423.05 455.44,423.10 458.72,423.11 461.99,423.23 465.27,423.34 468.54,423.38 471.81,423.53 475.09,423.67 478.36,423.86 481.64,424.01 484.91,424.16 488.19,424.19 491.46,424.18 494.73,424.14 498.01,424.04 501.28,423.98 504.56,423.85 507.83,423.67 511.10,423.45 514.38,423.19 517.65,422.94 520.93,422.60 524.20,422.30 527.47,422.00 530.75,421.73 534.02,421.49 537.30,421.22 540.57,420.91 543.85,420.58 547.12,420.27 550.39,419.94 553.67,419.63 556.94,419.26 560.22,418.99 563.49,418.66 566.76,418.05 570.04,417.21 573.31,416.36 576.59,415.49 579.86,414.65 583.14,413.86 586.41,413.10 589.68,412.14 592.96,411.14 596.23,410.19 599.51,409.35 602.78,408.29 606.05,407.19 609.33,406.07 612.60,404.96 615.88,403.77 619.15,402.55 622.42,401.13 625.70,399.80 628.97,398.67 632.25,397.90 635.52,397.11 638.80,396.42 642.07,396.00 645.34,395.45 648.62,394.77 651.89,394.07 655.17,393.51 658.44,393.00 661.71,392.42 664.99,391.90 668.26,391.37 671.54,390.81 674.81,390.41 678.08,390.02 681.36,389.64 684.63,389.30 687.91,388.95 691.18,388.71 694.46,388.49 697.73,388.30 701.00,388.12 704.28,387.98 707.55,387.66 710.83,387.36 714.10,387.13 717.37,386.92 720.65,386.52 723.92,386.00 727.20,385.22 730.47,384.35 733.75,383.56 737.02,382.52 740.29,381.15 743.57,379.89 746.84,378.29 750.12,376.65 753.39,374.70 756.66,372.78 759.94,370.84 763.21,368.70 766.49,366.31 769.76,363.45 773.03,360.62 776.31,357.42 779.58,353.76 782.86,350.32 786.13,347.39 789.41,344.61 792.68,342.04 795.95,339.12 799.23,336.84 802.50,334.45 805.78,331.52 809.05,327.95 812.32,323.78 815.60,319.64 818.87,314.99 822.15,310.66 825.42,306.35 828.69,301.45 831.97,296.71 835.24,291.91 838.52,287.13 841.79,282.65 845.07,278.67 848.34,274.03 851.61,269.83 854.89,265.73 858.16,261.50 861.44,256.77 864.71,251.79 867.98,247.03 871.26,242.26 874.53,237.34 877.81,232.31 881.08,227.66 884.36,222.95 887.63,218.86 890.90,214.68 894.18,209.89 897.45,204.93 900.73,199.97 904.00,195.45" />
<text x="780.00" y="104.00" font-size="14" font-family="Arial" fill="#ff7f0e" text-anchor="start">MA60</text>
<polyline fill="none" stroke="#d62728" stroke-width="2" points="707.55,411.45 710.83,411.30 714.10,411.14 717.37,410.94 720.65,410.67 723.92,410.37 727.20,410.02 730.47,409.67 733.75,409.31 737.02,408.85 740.29,408.29 743.57,407.77 746.84,407.16 750.12,406.54 753.39,405.83 756.66,405.11 759.94,404.40 763.21,403.56 766.49,402.57 769.76,401.45 773.03,400.33 776.31,399.09 779.58,397.77 782.86,396.57 786.13,395.48 789.41,394.42 792.68,393.44 795.95,392.39 799.23,391.46 802.50,390.51 805.78,389.39 809.05,388.12 812.32,386.65 815.60,385.17 818.87,383.49 822.15,381.92 825.42,380.38 828.69,378.72 831.97,377.07 835.24,375.39 838.52,373.78 841.79,372.22 845.07,370.80 848.34,369.17 851.61,367.71 854.89,366.28 858.16,364.81 861.44,363.20 864.71,361.54 867.98,359.95 871.26,358.38 874.53,356.75 877.81,355.10 881.08,353.57 884.36,352.06 887.63,350.76 890.90,349.44 894.18,347.95 897.45,346.40 900.73,344.84 904.00,343.36" />
<text x="780.00" y="126.00" font-size="14" font-family="Arial" fill="#d62728" text-anchor="start">MA200</text>
</svg>