<svg xmlns="http://www.w3.org/2000/svg" width="960" height="520" viewBox="0 0 960 520"><rect width="100%" height="100%" fill="white" />
<text x="56.00" y="32.00" font-size="20" font-family="Arial" fill="#1f2933" text-anchor="start">聯發科(2454) Price and Moving Averages</text>
<line x1="56" y1="464" x2="904" y2="464" stroke="#cbd2d9" />
<line x1="56" y1="56" x2="56" y2="464" stroke="#cbd2d9" />
<text x="16.00" y="38.00" font-size="12" font-family="Arial" fill="#52606d" text-anchor="start">Price</text>
<line x1="56" y1="464.00" x2="904" y2="464.00" stroke="#edf2f7" />
<line x1="52" y1="464.00" x2="56" y2="464.00" stroke="#9fb3c8" />
<text x="48.00" y="468.00" font-size="11" font-family="Arial" fill="#52606d" text-anchor="end">907</text>
<line x1="56" y1="362.00" x2="904" y2="362.00" stroke="#edf2f7" />
<line x1="52" y1="362.00" x2="56" y2="362.00" stroke="#9fb3c8" />
<text x="48.00" y="366.00" font-size="11" font-family="Arial" fill="#52606d" text-anchor="end">1,886</text>
<line x1="56" y1="260.00" x2="904" y2="260.00" stroke="#edf2f7" />
<line x1="52" y1="260.00" x2="56" y2="260.00" stroke="#9fb3c8" />
<text x="48.00" y="264.00" font-size="11" font-family="Arial" fill="#52606d" text-anchor="end">2,864</text>
<line x1="56" y1="158.00" x2="904" y2="158.00" stroke="#edf2f7" />
<line x1="52" y1="158.00" x2="56" y2="158.00" stroke="#9fb3c8" />
<text x="48.00" y="162.00" font-size="11" font-family="Arial" fill="#52606d" text-anchor="end">3,843</text>
<line x1="56" y1="56.00" x2="904" y2="56.00" stroke="#edf2f7" />
<line x1="52" y1="56.00" x2="56" y2="56.00" stroke="#9fb3c8" />
<text x="48.00" y="60.00" font-size="11" font-family="Arial" fill="#52606d" text-anchor="end">4,822</text>
<line x1="56.00" y1="464" x2="56.00" y2="468" stroke="#9fb3c8" />
<text x="56.00" y="482.00" font-size="11" font-family="Arial" fill="#52606d" text-anchor="middle">06/23</text>
<line x1="226.25" y1="464" x2="226.25" y2="468" stroke="#9fb3c8" />
<text x="226.25" y="482.00" font-size="11" font-family="Arial" fill="#52606d" text-anchor="middle">09/04</text>
<line x1="396.51" y1="464" x2="396.51" y2="468" stroke="#9fb3c8" />
<text x="396.51" y="482.00" font-size="11" font-family="Arial" fill="#52606d" text-anchor="middle">11/21</text>
<line x1="563.49" y1="464" x2="563.49" y2="468" stroke="#9fb3c8" />
<text x="563.49" y="482.00" font-size="11" font-family="Arial" fill="#52606d" text-anchor="middle">02/04</text>
<line x1="733.75" y1="464" x2="733.75" y2="468" stroke="#9fb3c8" />
<text x="733.75" y="482.00" font-size="11" font-family="Arial" fill="#52606d" text-anchor="middle">05/04</text>
<line x1="904.00" y1="464" x2="904.00" y2="468" stroke="#9fb3c8" />
<text x="904.00" y="482.00" font-size="11" font-family="Arial" fill="#52606d" text-anchor="middle">07/16</text>
<polyline fill="none" stroke="#1f77b4" stroke-width="2" points="56.00,433.43 59.27,431.93 62.55,429.44 65.82,429.94 69.10,430.44 72.37,433.93 75.64,431.43 78.92,429.44 82.19,429.44 85.47,427.41 88.74,428.42 92.02,429.44 95.29,420.80 98.56,416.23 101.84,414.20 105.11,417.76 108.39,416.74 111.66,415.21 114.93,417.25 118.21,415.21 121.48,413.69 124.76,413.18 128.03,413.18 131.31,413.18 134.58,413.18 137.85,416.23 141.13,420.30 144.40,418.26 147.68,419.28 150.95,423.34 154.22,422.33 157.50,424.36 160.77,420.80 164.05,421.31 167.32,420.80 170.59,420.30 173.87,419.28 177.14,417.25 180.42,419.28 183.69,415.21 186.97,417.25 190.24,420.80 193.51,419.79 196.79,419.79 200.06,415.21 203.34,416.23 206.61,416.23 209.88,417.76 213.16,419.28 216.43,420.30 219.71,420.30 222.98,416.74 226.25,417.76 229.53,412.67 232.80,413.18 236.08,405.05 239.35,407.09 242.63,408.10 245.90,407.59 249.17,407.59 252.45,402.51 255.72,405.05 259.00,405.05 262.27,412.17 265.54,415.72 268.82,418.77 272.09,423.34 275.37,421.82 278.64,425.38 281.92,424.87 285.19,427.92 288.46,428.42 291.74,424.36 295.01,423.85 298.29,422.84 301.56,421.82 304.83,424.87 308.11,425.88 311.38,424.87 314.66,423.34 317.93,423.34 321.20,422.33 324.48,422.33 327.75,423.34 331.03,426.90 334.30,422.84 337.58,424.87 340.85,426.39 344.12,425.38 347.40,425.38 350.67,426.39 353.95,424.87 357.22,423.34 360.49,427.41 363.77,430.46 367.04,431.47 370.32,432.49 373.59,431.98 376.86,431.98 380.14,433.51 383.41,433.51 386.69,439.60 389.96,440.62 393.24,438.08 396.51,442.14 399.78,441.63 403.06,438.08 406.33,426.39 409.61,422.33 412.88,416.74 416.15,411.66 419.43,414.71 422.70,416.23 425.98,415.72 429.25,413.69 432.53,412.17 435.80,414.20 439.07,410.13 442.35,416.74 445.62,415.72 448.90,414.20 452.17,414.20 455.44,413.69 458.72,414.20 461.99,415.21 465.27,416.23 468.54,417.25 471.81,418.26 475.09,417.76 478.36,414.20 481.64,414.20 484.91,413.18 488.19,409.12 491.46,403.53 494.73,404.67 498.01,404.15 501.28,408.81 504.56,411.40 507.83,408.81 511.10,404.67 514.38,403.11 517.65,404.15 520.93,402.60 524.20,404.67 527.47,404.67 530.75,406.74 534.02,404.67 537.30,389.65 540.57,375.15 543.85,374.63 547.12,374.11 550.39,374.11 553.67,376.18 556.94,381.88 560.22,372.56 563.49,372.04 566.76,375.15 570.04,381.36 573.31,368.93 576.59,367.38 579.86,366.34 583.14,372.56 586.41,369.45 589.68,364.79 592.96,357.02 596.23,361.68 599.51,370.49 602.78,380.33 606.05,374.63 609.33,375.66 612.60,386.02 615.88,381.88 619.15,375.66 622.42,373.59 625.70,380.33 628.97,381.36 632.25,379.29 635.52,379.29 638.80,384.47 642.07,382.40 645.34,390.17 648.62,390.68 651.89,390.68 655.17,393.79 658.44,394.31 661.71,402.08 664.99,404.15 668.26,406.74 671.54,406.74 674.81,406.22 678.08,394.83 681.36,395.35 684.63,395.35 687.91,390.68 691.18,380.33 694.46,373.07 697.73,362.20 701.00,359.09 704.28,361.68 707.55,342.00 710.83,320.76 714.10,329.05 717.37,306.26 720.65,306.26 723.92,287.62 727.20,291.76 730.47,288.14 733.75,261.20 737.02,231.68 740.29,203.20 743.57,204.23 746.84,182.48 750.12,156.58 753.39,175.23 756.66,196.46 759.94,205.78 763.21,220.80 766.49,206.30 769.76,231.68 773.03,223.91 776.31,190.77 779.58,158.65 782.86,118.77 786.13,116.70 789.41,77.86 792.68,101.68 795.95,112.04 799.23,86.66 802.50,89.77 805.78,87.70 809.05,99.61 812.32,113.08 815.60,136.90 818.87,94.95 822.15,128.10 825.42,135.35 828.69,125.51 831.97,95.47 835.24,86.14 838.52,96.50 841.79,103.75 845.07,95.98 848.34,88.73 851.61,114.63 854.89,112.04 858.16,156.58 861.44,153.47 864.71,118.77 867.98,109.45 871.26,108.41 874.53,123.95 877.81,131.20 881.08,138.55 884.36,142.20 887.63,149.49 890.90,149.49 894.18,159.91 897.45,177.11 900.73,168.77 904.00,172.94" />
<text x="780.00" y="60.00" font-size="14" font-family="Arial" fill="#1f77b4" text-anchor="start">Close</text>
<polyline fill="none" stroke="#2ca02c" stroke-width="2" points="118.21,424.90 121.48,423.92 124.76,422.98 128.03,422.17 131.31,421.33 134.58,420.47 137.85,419.58 141.13,419.03 144.40,418.47 147.68,417.96 150.95,417.76 154.22,417.45 157.50,417.20 160.77,417.20 164.05,417.45 167.32,417.78 170.59,417.91 173.87,418.03 177.14,418.14 180.42,418.24 183.69,418.24 186.97,418.42 190.24,418.80 193.51,419.13 196.79,419.46 200.06,419.56 203.34,419.56 206.61,419.36 209.88,419.33 213.16,419.33 216.43,419.18 219.71,419.08 222.98,418.70 226.25,418.54 229.53,418.11 232.80,417.73 236.08,416.97 239.35,416.36 242.63,415.90 245.90,415.32 249.17,414.94 252.45,414.20 255.72,413.41 259.00,412.67 262.27,412.29 265.54,412.32 268.82,412.45 272.09,412.80 275.37,413.00 278.64,413.31 281.92,413.54 285.19,413.92 288.46,414.50 291.74,414.83 295.01,415.39 298.29,415.88 301.56,416.71 304.83,417.60 308.11,418.49 311.38,419.36 314.66,420.14 317.93,421.18 321.20,422.05 324.48,422.91 327.75,423.47 331.03,424.03 334.30,424.23 337.58,424.31 340.85,424.54 344.12,424.54 347.40,424.56 350.67,424.49 353.95,424.31 357.22,424.26 360.49,424.44 363.77,424.82 367.04,425.30 370.32,425.68 373.59,425.99 376.86,426.34 380.14,426.85 383.41,427.36 386.69,428.22 389.96,429.14 393.24,429.87 396.51,430.63 399.78,431.57 403.06,432.24 406.33,432.24 409.61,432.08 412.88,431.65 416.15,430.91 419.43,430.41 422.70,430.05 425.98,429.47 429.25,428.63 432.53,427.66 435.80,426.75 439.07,425.66 442.35,424.89 445.62,424.00 448.90,423.04 452.17,421.77 455.44,420.42 458.72,419.23 461.99,417.88 465.27,416.61 468.54,415.57 471.81,415.16 475.09,414.94 478.36,414.81 481.64,414.94 484.91,414.86 488.19,414.50 491.46,413.89 494.73,413.44 498.01,413.04 501.28,412.77 504.56,412.84 507.83,412.44 511.10,411.89 514.38,411.33 517.65,410.83 520.93,410.28 524.20,409.80 527.47,409.27 530.75,408.80 534.02,408.17 537.30,406.74 540.57,404.61 543.85,402.63 547.12,400.62 550.39,398.67 553.67,397.02 556.94,395.94 560.22,394.34 563.49,392.73 566.76,391.05 570.04,389.55 573.31,387.55 576.59,385.69 579.86,383.85 583.14,382.27 586.41,380.61 589.68,378.62 592.96,376.23 596.23,373.98 599.51,372.27 602.78,371.81 606.05,371.78 609.33,371.83 612.60,372.43 615.88,372.82 619.15,372.79 622.42,372.38 625.70,372.76 628.97,373.23 632.25,373.44 635.52,373.33 638.80,374.11 642.07,374.86 645.34,376.05 648.62,376.96 651.89,378.02 655.17,379.47 658.44,381.34 661.71,383.36 664.99,385.04 668.26,386.36 671.54,387.97 674.81,389.49 678.08,389.93 681.36,390.61 684.63,391.59 687.91,392.45 691.18,392.45 694.46,392.03 697.73,391.18 701.00,390.17 704.28,389.03 707.55,387.01 710.83,383.54 714.10,380.46 717.37,376.23 720.65,371.86 723.92,366.52 727.20,361.01 730.47,355.21 733.75,347.93 737.02,339.18 740.29,329.03 743.57,319.50 746.84,308.85 750.12,296.91 753.39,286.14 756.66,276.95 759.94,268.58 763.21,261.51 766.49,253.87 769.76,247.37 773.03,241.47 776.31,234.97 779.58,226.45 782.86,217.08 786.13,207.60 789.41,197.11 792.68,187.61 795.95,178.80 799.23,170.07 802.50,162.98 805.78,157.20 809.05,151.97 812.32,148.50 815.60,147.52 818.87,143.50 822.15,140.09 825.42,136.56 828.69,131.80 831.97,126.26 835.24,118.98 838.52,112.61 841.79,108.26 845.07,105.13 848.34,103.62 851.61,103.52 854.89,105.23 858.16,107.97 861.44,110.05 864.71,111.65 867.98,112.64 871.26,113.67 874.53,114.89 877.81,115.80 881.08,115.88 884.36,118.24 887.63,119.31 890.90,120.02 894.18,121.74 897.45,125.82 900.73,129.95 904.00,133.77" />
<text x="780.00" y="82.00" font-size="14" font-family="Arial" fill="#2ca02c" text-anchor="start">MA20</text>
<polyline fill="none" stroke="#ff7f0e" stroke-width="2" points="249.17,419.36 252.45,418.84 255.72,418.40 259.00,417.99 262.27,417.69 265.54,417.45 268.82,417.20 272.09,417.06 275.37,416.93 278.64,416.87 281.92,416.82 285.19,416.82 288.46,416.80 291.74,416.86 295.01,416.98 298.29,417.13 301.56,417.20 304.83,417.33 308.11,417.51 311.38,417.64 314.66,417.77 317.93,417.93 321.20,418.09 324.48,418.24 327.75,418.41 331.03,418.64 334.30,418.75 337.58,418.82 340.85,418.96 344.12,419.06 347.40,419.09 350.67,419.16 353.95,419.17 357.22,419.21 360.49,419.31 363.77,419.47 367.04,419.66 370.32,419.88 373.59,420.13 376.86,420.34 380.14,420.64 383.41,420.91 386.69,421.23 389.96,421.57 393.24,421.88 396.51,422.33 399.78,422.75 403.06,423.12 406.33,423.26 409.61,423.31 412.88,423.25 416.15,423.11 419.43,423.07 422.70,423.05 425.98,423.10 429.25,423.11 432.53,423.23 435.80,423.34 439.07,423.38 442.35,423.53 445.62,423.67 448.90,423.86 452.17,424.01 455.44,424.16 458.72,424.19 461.99,424.18 465.27,424.14 468.54,424.04 471.81,423.98 475.09,423.85 478.36,423.67 481.64,423.45 484.91,423.19 488.19,422.94 491.46,422.60 494.73,422.30 498.01,422.00 501.28,421.73 504.56,421.49 507.83,421.22 511.10,420.91 514.38,420.58 517.65,420.27 520.93,419.94 524.20,419.63 527.47,419.26 530.75,418.99 534.02,418.66 537.30,418.05 540.57,417.21 543.85,416.36 547.12,415.49 550.39,414.65 553.67,413.86 556.94,413.10 560.22,412.14 563.49,411.14 566.76,410.19 570.04,409.35 573.31,408.29 576.59,407.19 579.86,406.07 583.14,404.96 586.41,403.77 589.68,402.55 592.96,401.13 596.23,399.80 599.51,398.67 602.78,397.90 606.05,397.11 609.33,396.42 612.60,396.00 615.88,395.45 619.15,394.77 622.42,394.07 625.70,393.51 628.97,393.00 632.25,392.42 635.52,391.90 638.80,391.37 642.07,390.81 645.34,390.41 648.62,390.02 651.89,389.64 655.17,389.30 658.44,388.95 661.71,388.71 664.99,388.49 668.26,388.30 671.54,388.12 674.81,387.98 678.08,387.66 681.36,387.36 684.63,387.13 687.91,386.92 691.18,386.52 694.46,386.00 697.73,385.22 701.00,384.35 704.28,383.56 707.55,382.52 710.83,381.15 714.10,379.89 717.37,378.29 720.65,376.65 723.92,374.70 727.20,372.78 730.47,370.84 733.75,368.70 737.02,366.31 740.29,363.45 743.57,360.62 746.84,357.42 750.12,353.76 753.39,350.32 756.66,347.39 759.94,344.61 763.21,342.04 766.49,339.12 769.76,336.84 773.03,334.45 776.31,331.52 779.58,327.95 782.86,323.78 786.13,319.64 789.41,314.99 792.68,310.66 795.95,306.35 799.23,301.45 802.50,296.71 805.78,291.91 809.05,287.13 812.32,282.65 815.60,278.67 818.87,274.03 822.15,269.83 825.42,265.73 828.69,261.50 831.97,256.77 835.24,251.79 838.52,247.03 841.79,242.26 845.07,237.34 848.34,232.31 851.61,227.66 854.89,222.95 858.16,218.86 861.44,214.68 864.71,209.89 867.98,204.93 871.26,199.97 874.53,195.45 877.81,191.05 881.08,186.77 884.36,182.63 887.63,178.78 890.90,175.05 894.18,171.68 897.45,168.65 900.73,165.44 904.00,162.62" />
<text x="780.00" y="104.00" font-size="14" font-family="Arial" fill="#ff7f0e" text-anchor="start">MA60</text>
<polyline fill="none" stroke="#d62728" stroke-width="2" points="707.55,408.85 710.83,408.29 714.10,407.77 717.37,407.16 720.65,406.54 723.92,405.83 727.20,405.11 730.47,404.40 733.75,403.56 737.02,402.57 740.29,401.45 743.57,400.33 746.84,399.09 750.12,397.77 753.39,396.57 756.66,395.48 759.94,394.42 763.21,393.44 766.49,392.39 769.76,391.46 773.03,390.51 776.31,389.39 779.58,388.12 782.86,386.65 786.13,385.17 789.41,383.49 792.68,381.92 795.95,380.38 799.23,378.72 802.50,377.07 805.78,375.39 809.05,373.78 812.32,372.22 815.60,370.80 818.87,369.17 822.15,367.71 825.42,366.28 828.69,364.81 831.97,363.20 835.24,361.54 838.52,359.95 841.79,358.38 845.07,356.75 848.34,355.10 851.61,353.57 854.89,352.06 858.16,350.76 861.44,349.44 864.71,347.95 867.98,346.40 871.26,344.84 874.53,343.36 877.81,341.93 881.08,340.54 884.36,339.18 887.63,337.87 890.90,336.59 894.18,335.35 897.45,334.20 900.73,333.00 904.00,331.83" />
<text x="780.00" y="126.00" font-size="14" font-family="Arial" fill="#d62728" text-anchor="start">MA200</text>
</svg>