<svg xmlns="http://www.w3.org/2000/svg" width="960" height="520" viewBox="0 0 960 520"><rect width="100%" height="100%" fill="white" />
<text x="56.00" y="32.00" font-size="20" font-family="Arial" fill="#1f2933" text-anchor="start">富邦金(2881) Price and Moving Averages</text>
<line x1="56" y1="464" x2="904" y2="464" stroke="#cbd2d9" />
<line x1="56" y1="56" x2="56" y2="464" stroke="#cbd2d9" />
<text x="16.00" y="38.00" font-size="12" font-family="Arial" fill="#52606d" text-anchor="start">Price</text>
<line x1="56" y1="464.00" x2="904" y2="464.00" stroke="#edf2f7" />
<line x1="52" y1="464.00" x2="56" y2="464.00" stroke="#9fb3c8" />
<text x="48.00" y="468.00" font-size="11" font-family="Arial" fill="#52606d" text-anchor="end">72.3</text>
<line x1="56" y1="362.00" x2="904" y2="362.00" stroke="#edf2f7" />
<line x1="52" y1="362.00" x2="56" y2="362.00" stroke="#9fb3c8" />
<text x="48.00" y="366.00" font-size="11" font-family="Arial" fill="#52606d" text-anchor="end">88.6</text>
<line x1="56" y1="260.00" x2="904" y2="260.00" stroke="#edf2f7" />
<line x1="52" y1="260.00" x2="56" y2="260.00" stroke="#9fb3c8" />
<text x="48.00" y="264.00" font-size="11" font-family="Arial" fill="#52606d" text-anchor="end">105</text>
<line x1="56" y1="158.00" x2="904" y2="158.00" stroke="#edf2f7" />
<line x1="52" y1="158.00" x2="56" y2="158.00" stroke="#9fb3c8" />
<text x="48.00" y="162.00" font-size="11" font-family="Arial" fill="#52606d" text-anchor="end">121</text>
<line x1="56" y1="56.00" x2="904" y2="56.00" stroke="#edf2f7" />
<line x1="52" y1="56.00" x2="56" y2="56.00" stroke="#9fb3c8" />
<text x="48.00" y="60.00" font-size="11" font-family="Arial" fill="#52606d" text-anchor="end">137</text>
<line x1="56.00" y1="464" x2="56.00" y2="468" stroke="#9fb3c8" />
<text x="56.00" y="482.00" font-size="11" font-family="Arial" fill="#52606d" text-anchor="middle">06/12</text>
<line x1="226.25" y1="464" x2="226.25" y2="468" stroke="#9fb3c8" />
<text x="226.25" y="482.00" font-size="11" font-family="Arial" fill="#52606d" text-anchor="middle">08/26</text>
<line x1="396.51" y1="464" x2="396.51" y2="468" stroke="#9fb3c8" />
<text x="396.51" y="482.00" font-size="11" font-family="Arial" fill="#52606d" text-anchor="middle">11/12</text>
<line x1="563.49" y1="464" x2="563.49" y2="468" stroke="#9fb3c8" />
<text x="563.49" y="482.00" font-size="11" font-family="Arial" fill="#52606d" text-anchor="middle">01/26</text>
<line x1="733.75" y1="464" x2="733.75" y2="468" stroke="#9fb3c8" />
<text x="733.75" y="482.00" font-size="11" font-family="Arial" fill="#52606d" text-anchor="middle">04/22</text>
<line x1="904.00" y1="464" x2="904.00" y2="468" stroke="#9fb3c8" />
<text x="904.00" y="482.00" font-size="11" font-family="Arial" fill="#52606d" text-anchor="middle">07/07</text>
<polyline fill="none" stroke="#1f77b4" stroke-width="2" points="56.00,424.77 59.27,430.39 62.55,433.20 65.82,434.33 69.10,425.33 72.37,429.27 75.64,439.38 78.92,440.51 82.19,432.64 85.47,434.89 88.74,432.64 92.02,432.64 95.29,425.90 98.56,425.01 101.84,426.78 105.11,426.19 108.39,438.01 111.66,432.10 114.93,436.83 118.21,442.14 121.48,430.33 124.76,428.56 128.03,428.56 131.31,423.24 134.58,417.92 137.85,419.69 141.13,422.06 144.40,425.60 147.68,429.15 150.95,421.47 154.22,422.65 157.50,423.83 160.77,427.37 164.05,432.10 167.32,428.56 170.59,429.74 173.87,420.28 177.14,420.28 180.42,417.92 183.69,415.56 186.97,413.19 190.24,407.29 193.51,404.33 196.79,400.20 200.06,391.93 203.34,391.93 206.61,390.75 209.88,396.06 213.16,403.15 216.43,394.88 219.71,397.24 222.98,387.20 226.25,401.97 229.53,410.24 232.80,413.19 236.08,420.87 239.35,417.33 242.63,403.74 245.90,408.47 249.17,405.51 252.45,402.56 255.72,408.47 259.00,406.11 262.27,399.02 265.54,403.15 268.82,393.70 272.09,391.93 275.37,391.93 278.64,392.52 281.92,394.88 285.19,397.83 288.46,393.11 291.74,394.29 295.01,390.75 298.29,395.77 301.56,392.74 304.83,381.84 308.11,387.29 311.38,387.29 314.66,392.74 317.93,390.32 321.20,384.26 324.48,372.76 327.75,384.87 331.03,382.45 334.30,373.97 337.58,372.76 340.85,374.57 344.12,377.00 347.40,367.91 350.67,361.86 353.95,360.04 357.22,358.83 360.49,366.10 363.77,360.65 367.04,357.01 370.32,364.28 373.59,359.43 376.86,356.41 380.14,367.91 383.41,360.65 386.69,368.52 389.96,367.91 393.24,365.49 396.51,361.25 399.78,347.32 403.06,351.56 406.33,360.65 409.61,374.57 412.88,383.05 416.15,375.78 419.43,379.42 422.70,359.43 425.98,353.98 429.25,352.17 432.53,347.93 435.80,355.80 439.07,360.65 442.35,358.83 445.62,352.77 448.90,343.08 452.17,341.87 455.44,338.24 458.72,333.40 461.99,340.06 465.27,340.66 468.54,330.37 471.81,337.64 475.09,335.21 478.36,327.34 481.64,330.37 484.91,327.34 488.19,321.89 491.46,322.50 494.73,323.10 498.01,329.16 501.28,321.89 504.56,329.16 507.83,334.61 511.10,337.64 514.38,327.95 517.65,332.79 520.93,334.61 524.20,329.16 527.47,338.24 530.75,341.27 534.02,346.11 537.30,348.53 540.57,346.72 543.85,341.27 547.12,341.27 550.39,347.32 553.67,353.38 556.94,353.38 560.22,350.35 563.49,352.17 566.76,357.01 570.04,356.41 573.31,357.62 576.59,366.10 579.86,368.52 583.14,360.65 586.41,355.20 589.68,350.35 592.96,357.01 596.23,348.53 599.51,344.30 602.78,340.06 606.05,337.03 609.33,346.72 612.60,353.98 615.88,346.11 619.15,353.38 622.42,352.77 625.70,372.76 628.97,368.52 632.25,378.81 635.52,388.50 638.80,381.84 642.07,376.39 645.34,375.18 648.62,383.05 651.89,378.81 655.17,372.76 658.44,374.57 661.71,382.45 664.99,380.02 668.26,390.92 671.54,389.11 674.81,378.81 678.08,380.02 681.36,385.47 684.63,393.34 687.91,395.77 691.18,384.87 694.46,384.87 697.73,385.47 701.00,376.39 704.28,380.63 707.55,386.08 710.83,391.53 714.10,386.08 717.37,386.68 720.65,384.26 723.92,383.66 727.20,388.50 730.47,385.47 733.75,381.84 737.02,381.84 740.29,384.87 743.57,384.26 746.84,380.02 750.12,363.67 753.39,371.55 756.66,365.49 759.94,358.22 763.21,354.59 766.49,344.30 769.76,330.97 773.03,338.24 776.31,349.14 779.58,343.08 782.86,343.69 786.13,334.61 789.41,340.06 792.68,327.95 795.95,336.42 799.23,334.61 802.50,340.66 805.78,324.92 809.05,289.80 812.32,250.44 815.60,250.44 818.87,250.44 822.15,247.41 825.42,229.24 828.69,232.27 831.97,226.22 835.24,201.99 838.52,214.10 841.79,159.61 845.07,174.74 848.34,156.58 851.61,177.77 854.89,144.47 858.16,117.22 861.44,96.02 864.71,80.88 867.98,77.86 871.26,83.91 874.53,102.08 877.81,93.00 881.08,105.11 884.36,138.41 887.63,132.36 890.90,149.57 894.18,168.36 897.45,158.96 900.73,155.83 904.00,146.44" />
<text x="780.00" y="60.00" font-size="14" font-family="Arial" fill="#1f77b4" text-anchor="start">Close</text>
<polyline fill="none" stroke="#2ca02c" stroke-width="2" points="118.21,432.15 121.48,432.43 124.76,432.33 128.03,432.10 131.31,431.55 134.58,431.18 137.85,430.70 141.13,429.83 144.40,429.09 147.68,428.91 150.95,428.24 154.22,427.74 157.50,427.30 160.77,427.37 164.05,427.73 167.32,427.82 170.59,427.99 173.87,427.11 177.14,426.52 180.42,425.57 183.69,424.24 186.97,423.39 190.24,422.32 193.51,421.11 196.79,419.96 200.06,418.66 203.34,417.27 206.61,415.71 209.88,414.23 213.16,412.93 216.43,411.60 219.71,410.33 222.98,408.50 226.25,407.23 229.53,406.14 232.80,405.37 236.08,404.92 239.35,404.78 242.63,403.95 245.90,403.48 249.17,402.97 252.45,402.44 255.72,402.50 259.00,402.59 262.27,402.53 265.54,403.09 268.82,403.18 272.09,403.24 275.37,403.03 278.64,402.50 281.92,402.50 285.19,402.53 288.46,402.83 291.74,402.44 295.01,401.47 298.29,400.60 301.56,399.19 304.83,397.42 308.11,396.59 311.38,395.53 314.66,394.90 317.93,394.28 321.20,393.07 324.48,391.41 327.75,390.70 331.03,389.66 334.30,388.68 337.58,387.72 340.85,386.85 344.12,386.07 347.40,384.72 350.67,382.93 353.95,381.27 357.22,379.50 360.49,378.27 363.77,376.51 367.04,374.72 370.32,373.85 373.59,372.45 376.86,370.91 380.14,369.67 383.41,368.18 386.69,367.40 389.96,367.16 393.24,366.19 396.51,365.13 399.78,363.79 403.06,362.73 406.33,362.04 409.61,361.92 412.88,362.67 416.15,363.37 419.43,364.34 422.70,364.37 425.98,363.76 429.25,363.34 432.53,362.89 435.80,362.46 439.07,362.52 442.35,362.64 445.62,361.89 448.90,361.01 452.17,359.68 455.44,358.19 458.72,356.59 461.99,355.53 465.27,355.20 468.54,354.14 471.81,352.99 475.09,351.02 478.36,348.23 481.64,345.96 484.91,343.36 488.19,341.48 491.46,339.91 494.73,338.45 498.01,337.51 501.28,335.82 504.56,334.24 507.83,333.03 511.10,332.28 514.38,331.52 517.65,331.06 520.93,330.88 524.20,330.67 527.47,330.58 530.75,330.61 534.02,331.40 537.30,331.94 540.57,332.52 543.85,333.21 547.12,333.76 550.39,334.76 553.67,336.33 556.94,337.88 560.22,339.24 563.49,340.39 566.76,342.15 570.04,343.51 573.31,344.66 576.59,346.08 579.86,348.11 583.14,349.50 586.41,350.53 589.68,351.59 592.96,352.53 596.23,352.89 599.51,352.80 602.78,352.38 606.05,351.90 609.33,352.17 612.60,352.80 615.88,352.74 619.15,352.74 622.42,352.71 625.70,353.83 628.97,354.65 632.25,355.74 635.52,357.35 638.80,358.56 642.07,359.07 645.34,359.40 648.62,360.52 651.89,361.71 655.17,362.83 658.44,363.70 661.71,365.40 664.99,367.19 668.26,369.73 671.54,372.33 674.81,373.94 678.08,375.24 681.36,377.21 684.63,379.21 687.91,381.36 691.18,381.96 694.46,382.78 697.73,383.11 701.00,382.51 704.28,382.45 707.55,382.93 710.83,383.75 714.10,383.90 717.37,384.29 720.65,384.87 723.92,385.32 727.20,385.62 730.47,385.90 733.75,385.44 737.02,385.08 740.29,385.38 743.57,385.59 746.84,385.32 750.12,383.84 753.39,382.63 756.66,381.66 759.94,380.33 763.21,378.78 766.49,377.18 769.76,374.69 773.03,372.30 776.31,370.18 779.58,368.03 782.86,365.88 786.13,363.40 789.41,361.22 792.68,358.19 795.95,355.74 799.23,353.38 802.50,351.32 805.78,348.32 809.05,343.60 812.32,337.12 815.60,331.46 818.87,325.40 822.15,319.50 825.42,313.05 828.69,306.93 831.97,301.03 835.24,294.58 838.52,288.37 841.79,278.90 845.07,270.48 848.34,261.12 851.61,253.28 854.89,243.50 858.16,232.97 861.44,220.95 864.71,208.26 867.98,195.12 871.26,183.07 874.53,173.68 877.81,165.81 881.08,158.55 884.36,152.94 887.63,147.19 890.90,143.21 894.18,140.01 897.45,136.65 900.73,134.34 904.00,130.96" />
<text x="780.00" y="82.00" font-size="14" font-family="Arial" fill="#2ca02c" text-anchor="start">MA20</text>
<polyline fill="none" stroke="#ff7f0e" stroke-width="2" points="249.17,419.79 252.45,419.42 255.72,419.05 259.00,418.60 262.27,418.01 265.54,417.64 268.82,417.05 272.09,416.26 275.37,415.45 278.64,414.78 281.92,414.11 285.19,413.53 288.46,412.87 291.74,412.35 295.01,411.78 298.29,411.26 301.56,410.70 304.83,409.77 308.11,409.02 311.38,408.19 314.66,407.37 317.93,406.70 321.20,405.97 324.48,405.04 327.75,404.40 331.03,403.80 334.30,403.04 337.58,402.22 340.85,401.37 344.12,400.50 347.40,399.61 350.67,398.60 353.95,397.53 357.22,396.39 360.49,395.29 363.77,394.16 367.04,392.95 370.32,392.01 373.59,391.00 376.86,389.97 380.14,389.18 383.41,388.30 386.69,387.66 389.96,387.05 393.24,386.47 396.51,385.96 399.78,385.22 403.06,384.56 406.33,383.97 409.61,383.50 412.88,383.30 416.15,382.94 419.43,382.81 422.70,382.10 425.98,381.17 429.25,380.15 432.53,378.93 435.80,377.91 439.07,377.19 442.35,376.36 445.62,375.48 448.90,374.49 452.17,373.38 455.44,372.25 458.72,371.16 461.99,370.11 465.27,369.22 468.54,368.20 471.81,367.29 475.09,366.34 478.36,365.21 481.64,364.09 484.91,362.99 488.19,361.78 491.46,360.65 494.73,359.43 498.01,358.37 501.28,357.38 504.56,356.41 507.83,355.53 511.10,354.61 514.38,353.57 517.65,352.71 520.93,352.08 524.20,351.15 527.47,350.41 530.75,349.87 534.02,349.42 537.30,348.99 540.57,348.48 543.85,348.04 547.12,347.70 550.39,347.49 553.67,347.39 556.94,347.18 560.22,347.01 563.49,346.93 566.76,346.81 570.04,346.76 573.31,346.78 576.59,346.75 579.86,346.88 583.14,346.75 586.41,346.54 589.68,346.28 592.96,346.21 596.23,346.23 599.51,346.11 602.78,345.77 606.05,345.14 609.33,344.54 612.60,344.17 615.88,343.62 619.15,343.52 622.42,343.50 625.70,343.84 628.97,344.18 632.25,344.57 635.52,345.03 638.80,345.42 642.07,345.81 645.34,346.34 648.62,347.03 651.89,347.71 655.17,348.36 658.44,348.94 661.71,349.63 664.99,350.46 668.26,351.35 671.54,352.25 674.81,353.11 678.08,353.93 681.36,354.90 684.63,356.09 687.91,357.32 691.18,358.34 694.46,359.27 697.73,360.33 701.00,361.12 704.28,361.89 707.55,362.69 710.83,363.75 714.10,364.64 717.37,365.51 720.65,366.43 723.92,367.19 727.20,367.97 730.47,368.63 733.75,369.18 737.02,369.77 740.29,370.50 743.57,371.21 746.84,371.76 750.12,371.93 753.39,372.23 756.66,372.48 759.94,372.58 763.21,372.54 766.49,372.34 769.76,371.90 773.03,371.43 776.31,371.11 779.58,370.82 782.86,370.63 786.13,370.36 789.41,370.08 792.68,369.74 795.95,369.61 799.23,369.52 802.50,369.58 805.78,369.21 809.05,368.14 812.32,366.55 815.60,364.83 818.87,363.13 822.15,361.04 825.42,358.72 828.69,356.28 831.97,353.57 835.24,350.57 838.52,347.87 841.79,344.28 845.07,340.80 848.34,337.10 851.61,333.85 854.89,330.02 858.16,325.59 861.44,320.86 864.71,315.69 867.98,310.51 871.26,305.59 874.53,300.96 877.81,296.08 881.08,291.28 884.36,286.99 887.63,282.78 890.90,278.86 894.18,275.24 897.45,271.62 900.73,267.87 904.00,263.88" />
<text x="780.00" y="104.00" font-size="14" font-family="Arial" fill="#ff7f0e" text-anchor="start">MA60</text>
<polyline fill="none" stroke="#d62728" stroke-width="2" points="707.55,380.62 710.83,380.45 714.10,380.23 717.37,380.00 720.65,379.75 723.92,379.54 727.20,379.33 730.47,379.06 733.75,378.77 737.02,378.52 740.29,378.27 743.57,378.03 746.84,377.76 750.12,377.45 753.39,377.18 756.66,376.88 759.94,376.54 763.21,376.12 766.49,375.68 769.76,375.15 773.03,374.63 776.31,374.23 779.58,373.80 782.86,373.38 786.13,372.93 789.41,372.54 792.68,372.08 795.95,371.66 799.23,371.20 802.50,370.76 805.78,370.28 809.05,369.61 812.32,368.74 815.60,367.86 818.87,366.95 822.15,366.05 825.42,365.04 828.69,364.10 831.97,363.13 835.24,362.05 838.52,361.05 841.79,359.78 845.07,358.62 848.34,357.38 851.61,356.26 854.89,355.03 858.16,353.65 861.44,352.18 864.71,350.60 867.98,348.98 871.26,347.42 874.53,345.95 877.81,344.48 881.08,342.99 884.36,341.63 887.63,340.23 890.90,338.87 894.18,337.63 897.45,336.40 900.73,335.14 904.00,333.84" />
<text x="780.00" y="126.00" font-size="14" font-family="Arial" fill="#d62728" text-anchor="start">MA200</text>
</svg>