<svg xmlns="http://www.w3.org/2000/svg" width="960" height="520" viewBox="0 0 960 520"><rect width="100%" height="100%" fill="white" />
<text x="56.00" y="32.00" font-size="20" font-family="Arial" fill="#1f2933" text-anchor="start">富邦金(2881) Price and Moving Averages</text>
<line x1="56" y1="464" x2="904" y2="464" stroke="#cbd2d9" />
<line x1="56" y1="56" x2="56" y2="464" stroke="#cbd2d9" />
<text x="16.00" y="38.00" font-size="12" font-family="Arial" fill="#52606d" text-anchor="start">Price</text>
<line x1="56" y1="464.00" x2="904" y2="464.00" stroke="#edf2f7" />
<line x1="52" y1="464.00" x2="56" y2="464.00" stroke="#9fb3c8" />
<text x="48.00" y="468.00" font-size="11" font-family="Arial" fill="#52606d" text-anchor="end">72.3</text>
<line x1="56" y1="362.00" x2="904" y2="362.00" stroke="#edf2f7" />
<line x1="52" y1="362.00" x2="56" y2="362.00" stroke="#9fb3c8" />
<text x="48.00" y="366.00" font-size="11" font-family="Arial" fill="#52606d" text-anchor="end">88.6</text>
<line x1="56" y1="260.00" x2="904" y2="260.00" stroke="#edf2f7" />
<line x1="52" y1="260.00" x2="56" y2="260.00" stroke="#9fb3c8" />
<text x="48.00" y="264.00" font-size="11" font-family="Arial" fill="#52606d" text-anchor="end">105</text>
<line x1="56" y1="158.00" x2="904" y2="158.00" stroke="#edf2f7" />
<line x1="52" y1="158.00" x2="56" y2="158.00" stroke="#9fb3c8" />
<text x="48.00" y="162.00" font-size="11" font-family="Arial" fill="#52606d" text-anchor="end">121</text>
<line x1="56" y1="56.00" x2="904" y2="56.00" stroke="#edf2f7" />
<line x1="52" y1="56.00" x2="56" y2="56.00" stroke="#9fb3c8" />
<text x="48.00" y="60.00" font-size="11" font-family="Arial" fill="#52606d" text-anchor="end">137</text>
<line x1="56.00" y1="464" x2="56.00" y2="468" stroke="#9fb3c8" />
<text x="56.00" y="482.00" font-size="11" font-family="Arial" fill="#52606d" text-anchor="middle">06/16</text>
<line x1="226.25" y1="464" x2="226.25" y2="468" stroke="#9fb3c8" />
<text x="226.25" y="482.00" font-size="11" font-family="Arial" fill="#52606d" text-anchor="middle">08/28</text>
<line x1="396.51" y1="464" x2="396.51" y2="468" stroke="#9fb3c8" />
<text x="396.51" y="482.00" font-size="11" font-family="Arial" fill="#52606d" text-anchor="middle">11/14</text>
<line x1="563.49" y1="464" x2="563.49" y2="468" stroke="#9fb3c8" />
<text x="563.49" y="482.00" font-size="11" font-family="Arial" fill="#52606d" text-anchor="middle">01/28</text>
<line x1="733.75" y1="464" x2="733.75" y2="468" stroke="#9fb3c8" />
<text x="733.75" y="482.00" font-size="11" font-family="Arial" fill="#52606d" text-anchor="middle">04/24</text>
<line x1="904.00" y1="464" x2="904.00" y2="468" stroke="#9fb3c8" />
<text x="904.00" y="482.00" font-size="11" font-family="Arial" fill="#52606d" text-anchor="middle">07/09</text>
<polyline fill="none" stroke="#1f77b4" stroke-width="2" points="56.00,433.20 59.27,434.33 62.55,425.33 65.82,429.27 69.10,439.38 72.37,440.51 75.64,432.64 78.92,434.89 82.19,432.64 85.47,432.64 88.74,425.90 92.02,425.01 95.29,426.78 98.56,426.19 101.84,438.01 105.11,432.10 108.39,436.83 111.66,442.14 114.93,430.33 118.21,428.56 121.48,428.56 124.76,423.24 128.03,417.92 131.31,419.69 134.58,422.06 137.85,425.60 141.13,429.15 144.40,421.47 147.68,422.65 150.95,423.83 154.22,427.37 157.50,432.10 160.77,428.56 164.05,429.74 167.32,420.28 170.59,420.28 173.87,417.92 177.14,415.56 180.42,413.19 183.69,407.29 186.97,404.33 190.24,400.20 193.51,391.93 196.79,391.93 200.06,390.75 203.34,396.06 206.61,403.15 209.88,394.88 213.16,397.24 216.43,387.20 219.71,401.97 222.98,410.24 226.25,413.19 229.53,420.87 232.80,417.33 236.08,403.74 239.35,408.47 242.63,405.51 245.90,402.56 249.17,408.47 252.45,406.11 255.72,399.02 259.00,403.15 262.27,393.70 265.54,391.93 268.82,391.93 272.09,392.52 275.37,394.88 278.64,397.83 281.92,393.11 285.19,394.29 288.46,390.75 291.74,395.77 295.01,392.74 298.29,381.84 301.56,387.29 304.83,387.29 308.11,392.74 311.38,390.32 314.66,384.26 317.93,372.76 321.20,384.87 324.48,382.45 327.75,373.97 331.03,372.76 334.30,374.57 337.58,377.00 340.85,367.91 344.12,361.86 347.40,360.04 350.67,358.83 353.95,366.10 357.22,360.65 360.49,357.01 363.77,364.28 367.04,359.43 370.32,356.41 373.59,367.91 376.86,360.65 380.14,368.52 383.41,367.91 386.69,365.49 389.96,361.25 393.24,347.32 396.51,351.56 399.78,360.65 403.06,374.57 406.33,383.05 409.61,375.78 412.88,379.42 416.15,359.43 419.43,353.98 422.70,352.17 425.98,347.93 429.25,355.80 432.53,360.65 435.80,358.83 439.07,352.77 442.35,343.08 445.62,341.87 448.90,338.24 452.17,333.40 455.44,340.06 458.72,340.66 461.99,330.37 465.27,337.64 468.54,335.21 471.81,327.34 475.09,330.37 478.36,327.34 481.64,321.89 484.91,322.50 488.19,323.10 491.46,329.16 494.73,321.89 498.01,329.16 501.28,334.61 504.56,337.64 507.83,327.95 511.10,332.79 514.38,334.61 517.65,329.16 520.93,338.24 524.20,341.27 527.47,346.11 530.75,348.53 534.02,346.72 537.30,341.27 540.57,341.27 543.85,347.32 547.12,353.38 550.39,353.38 553.67,350.35 556.94,352.17 560.22,357.01 563.49,356.41 566.76,357.62 570.04,366.10 573.31,368.52 576.59,360.65 579.86,355.20 583.14,350.35 586.41,357.01 589.68,348.53 592.96,344.30 596.23,340.06 599.51,337.03 602.78,346.72 606.05,353.98 609.33,346.11 612.60,353.38 615.88,352.77 619.15,372.76 622.42,368.52 625.70,378.81 628.97,388.50 632.25,381.84 635.52,376.39 638.80,375.18 642.07,383.05 645.34,378.81 648.62,372.76 651.89,374.57 655.17,382.45 658.44,380.02 661.71,390.92 664.99,389.11 668.26,378.81 671.54,380.02 674.81,385.47 678.08,393.34 681.36,395.77 684.63,384.87 687.91,384.87 691.18,385.47 694.46,376.39 697.73,380.63 701.00,386.08 704.28,391.53 707.55,386.08 710.83,386.68 714.10,384.26 717.37,383.66 720.65,388.50 723.92,385.47 727.20,381.84 730.47,381.84 733.75,384.87 737.02,384.26 740.29,380.02 743.57,363.67 746.84,371.55 750.12,365.49 753.39,358.22 756.66,354.59 759.94,344.30 763.21,330.97 766.49,338.24 769.76,349.14 773.03,343.08 776.31,343.69 779.58,334.61 782.86,340.06 786.13,327.95 789.41,336.42 792.68,334.61 795.95,340.66 799.23,324.92 802.50,289.80 805.78,250.44 809.05,250.44 812.32,250.44 815.60,247.41 818.87,229.24 822.15,232.27 825.42,226.22 828.69,201.99 831.97,214.10 835.24,159.61 838.52,174.74 841.79,156.58 845.07,177.77 848.34,144.47 851.61,117.22 854.89,96.02 858.16,80.88 861.44,77.86 864.71,83.91 867.98,102.08 871.26,93.00 874.53,105.11 877.81,138.41 881.08,132.36 884.36,149.57 887.63,168.36 890.90,158.96 894.18,155.83 897.45,146.44 900.73,127.66 904.00,137.05" />
<text x="780.00" y="60.00" font-size="14" font-family="Arial" fill="#1f77b4" text-anchor="start">Close</text>
<polyline fill="none" stroke="#2ca02c" stroke-width="2" points="118.21,432.33 121.48,432.10 124.76,431.55 128.03,431.18 131.31,430.70 134.58,429.83 137.85,429.09 141.13,428.91 144.40,428.24 147.68,427.74 150.95,427.30 154.22,427.37 157.50,427.73 160.77,427.82 164.05,427.99 167.32,427.11 170.59,426.52 173.87,425.57 177.14,424.24 180.42,423.39 183.69,422.32 186.97,421.11 190.24,419.96 193.51,418.66 196.79,417.27 200.06,415.71 203.34,414.23 206.61,412.93 209.88,411.60 213.16,410.33 216.43,408.50 219.71,407.23 222.98,406.14 226.25,405.37 229.53,404.92 232.80,404.78 236.08,403.95 239.35,403.48 242.63,402.97 245.90,402.44 249.17,402.50 252.45,402.59 255.72,402.53 259.00,403.09 262.27,403.18 265.54,403.24 268.82,403.03 272.09,402.50 275.37,402.50 278.64,402.53 281.92,402.83 285.19,402.44 288.46,401.47 291.74,400.60 295.01,399.19 298.29,397.42 301.56,396.59 304.83,395.53 308.11,394.90 311.38,394.28 314.66,393.07 317.93,391.41 321.20,390.70 324.48,389.66 327.75,388.68 331.03,387.72 334.30,386.85 337.58,386.07 340.85,384.72 344.12,382.93 347.40,381.27 350.67,379.50 353.95,378.27 357.22,376.51 360.49,374.72 363.77,373.85 367.04,372.45 370.32,370.91 373.59,369.67 376.86,368.18 380.14,367.40 383.41,367.16 386.69,366.19 389.96,365.13 393.24,363.79 396.51,362.73 399.78,362.04 403.06,361.92 406.33,362.67 409.61,363.37 412.88,364.34 416.15,364.37 419.43,363.76 422.70,363.34 425.98,362.89 429.25,362.46 432.53,362.52 435.80,362.64 439.07,361.89 442.35,361.01 445.62,359.68 448.90,358.19 452.17,356.59 455.44,355.53 458.72,355.20 461.99,354.14 465.27,352.99 468.54,351.02 471.81,348.23 475.09,345.96 478.36,343.36 481.64,341.48 484.91,339.91 488.19,338.45 491.46,337.51 494.73,335.82 498.01,334.24 501.28,333.03 504.56,332.28 507.83,331.52 511.10,331.06 514.38,330.88 517.65,330.67 520.93,330.58 524.20,330.61 527.47,331.40 530.75,331.94 534.02,332.52 537.30,333.21 540.57,333.76 543.85,334.76 547.12,336.33 550.39,337.88 553.67,339.24 556.94,340.39 560.22,342.15 563.49,343.51 566.76,344.66 570.04,346.08 573.31,348.11 576.59,349.50 579.86,350.53 583.14,351.59 586.41,352.53 589.68,352.89 592.96,352.80 596.23,352.38 599.51,351.90 602.78,352.17 606.05,352.80 609.33,352.74 612.60,352.74 615.88,352.71 619.15,353.83 622.42,354.65 625.70,355.74 628.97,357.35 632.25,358.56 635.52,359.07 638.80,359.40 642.07,360.52 645.34,361.71 648.62,362.83 651.89,363.70 655.17,365.40 658.44,367.19 661.71,369.73 664.99,372.33 668.26,373.94 671.54,375.24 674.81,377.21 678.08,379.21 681.36,381.36 684.63,381.96 687.91,382.78 691.18,383.11 694.46,382.51 697.73,382.45 701.00,382.93 704.28,383.75 707.55,383.90 710.83,384.29 714.10,384.87 717.37,385.32 720.65,385.62 723.92,385.90 727.20,385.44 730.47,385.08 733.75,385.38 737.02,385.59 740.29,385.32 743.57,383.84 746.84,382.63 750.12,381.66 753.39,380.33 756.66,378.78 759.94,377.18 763.21,374.69 766.49,372.30 769.76,370.18 773.03,368.03 776.31,365.88 779.58,363.40 782.86,361.22 786.13,358.19 789.41,355.74 792.68,353.38 795.95,351.32 799.23,348.32 802.50,343.60 805.78,337.12 809.05,331.46 812.32,325.40 815.60,319.50 818.87,313.05 822.15,306.93 825.42,301.03 828.69,294.58 831.97,288.37 835.24,278.90 838.52,270.48 841.79,261.12 845.07,253.28 848.34,243.50 851.61,232.97 854.89,220.95 858.16,208.26 861.44,195.12 864.71,183.07 867.98,173.68 871.26,165.81 874.53,158.55 877.81,152.94 881.08,147.19 884.36,143.21 887.63,140.01 890.90,136.65 894.18,134.34 897.45,130.96 900.73,129.36 904.00,127.48" />
<text x="780.00" y="82.00" font-size="14" font-family="Arial" fill="#2ca02c" text-anchor="start">MA20</text>
<polyline fill="none" stroke="#ff7f0e" stroke-width="2" points="249.17,419.05 252.45,418.60 255.72,418.01 259.00,417.64 262.27,417.05 265.54,416.26 268.82,415.45 272.09,414.78 275.37,414.11 278.64,413.53 281.92,412.87 285.19,412.35 288.46,411.78 291.74,411.26 295.01,410.70 298.29,409.77 301.56,409.02 304.83,408.19 308.11,407.37 311.38,406.70 314.66,405.97 317.93,405.04 321.20,404.40 324.48,403.80 327.75,403.04 331.03,402.22 334.30,401.37 337.58,400.50 340.85,399.61 344.12,398.60 347.40,397.53 350.67,396.39 353.95,395.29 357.22,394.16 360.49,392.95 363.77,392.01 367.04,391.00 370.32,389.97 373.59,389.18 376.86,388.30 380.14,387.66 383.41,387.05 386.69,386.47 389.96,385.96 393.24,385.22 396.51,384.56 399.78,383.97 403.06,383.50 406.33,383.30 409.61,382.94 412.88,382.81 416.15,382.10 419.43,381.17 422.70,380.15 425.98,378.93 429.25,377.91 432.53,377.19 435.80,376.36 439.07,375.48 442.35,374.49 445.62,373.38 448.90,372.25 452.17,371.16 455.44,370.11 458.72,369.22 461.99,368.20 465.27,367.29 468.54,366.34 471.81,365.21 475.09,364.09 478.36,362.99 481.64,361.78 484.91,360.65 488.19,359.43 491.46,358.37 494.73,357.38 498.01,356.41 501.28,355.53 504.56,354.61 507.83,353.57 511.10,352.71 514.38,352.08 517.65,351.15 520.93,350.41 524.20,349.87 527.47,349.42 530.75,348.99 534.02,348.48 537.30,348.04 540.57,347.70 543.85,347.49 547.12,347.39 550.39,347.18 553.67,347.01 556.94,346.93 560.22,346.81 563.49,346.76 566.76,346.78 570.04,346.75 573.31,346.88 576.59,346.75 579.86,346.54 583.14,346.28 586.41,346.21 589.68,346.23 592.96,346.11 596.23,345.77 599.51,345.14 602.78,344.54 606.05,344.17 609.33,343.62 612.60,343.52 615.88,343.50 619.15,343.84 622.42,344.18 625.70,344.57 628.97,345.03 632.25,345.42 635.52,345.81 638.80,346.34 642.07,347.03 645.34,347.71 648.62,348.36 651.89,348.94 655.17,349.63 658.44,350.46 661.71,351.35 664.99,352.25 668.26,353.11 671.54,353.93 674.81,354.90 678.08,356.09 681.36,357.32 684.63,358.34 687.91,359.27 691.18,360.33 694.46,361.12 697.73,361.89 701.00,362.69 704.28,363.75 707.55,364.64 710.83,365.51 714.10,366.43 717.37,367.19 720.65,367.97 723.92,368.63 727.20,369.18 730.47,369.77 733.75,370.50 737.02,371.21 740.29,371.76 743.57,371.93 746.84,372.23 750.12,372.48 753.39,372.58 756.66,372.54 759.94,372.34 763.21,371.90 766.49,371.43 769.76,371.11 773.03,370.82 776.31,370.63 779.58,370.36 782.86,370.08 786.13,369.74 789.41,369.61 792.68,369.52 795.95,369.58 799.23,369.21 802.50,368.14 805.78,366.55 809.05,364.83 812.32,363.13 815.60,361.04 818.87,358.72 822.15,356.28 825.42,353.57 828.69,350.57 831.97,347.87 835.24,344.28 838.52,340.80 841.79,337.10 845.07,333.85 848.34,330.02 851.61,325.59 854.89,320.86 858.16,315.69 861.44,310.51 864.71,305.59 867.98,300.96 871.26,296.08 874.53,291.28 877.81,286.99 881.08,282.78 884.36,278.86 887.63,275.24 890.90,271.62 894.18,267.87 897.45,263.88 900.73,259.48 904.00,255.33" />
<text x="780.00" y="104.00" font-size="14" font-family="Arial" fill="#ff7f0e" text-anchor="start">MA60</text>
<polyline fill="none" stroke="#d62728" stroke-width="2" points="707.55,380.23 710.83,380.00 714.10,379.75 717.37,379.54 720.65,379.33 723.92,379.06 727.20,378.77 730.47,378.52 733.75,378.27 737.02,378.03 740.29,377.76 743.57,377.45 746.84,377.18 750.12,376.88 753.39,376.54 756.66,376.12 759.94,375.68 763.21,375.15 766.49,374.63 769.76,374.23 773.03,373.80 776.31,373.38 779.58,372.93 782.86,372.54 786.13,372.08 789.41,371.66 792.68,371.20 795.95,370.76 799.23,370.28 802.50,369.61 805.78,368.74 809.05,367.86 812.32,366.95 815.60,366.05 818.87,365.04 822.15,364.10 825.42,363.13 828.69,362.05 831.97,361.05 835.24,359.78 838.52,358.62 841.79,357.38 845.07,356.26 848.34,355.03 851.61,353.65 854.89,352.18 858.16,350.60 861.44,348.98 864.71,347.42 867.98,345.95 871.26,344.48 874.53,342.99 877.81,341.63 881.08,340.23 884.36,338.87 887.63,337.63 890.90,336.40 894.18,335.14 897.45,333.84 900.73,332.47 904.00,331.11" />
<text x="780.00" y="126.00" font-size="14" font-family="Arial" fill="#d62728" text-anchor="start">MA200</text>
</svg>