<svg xmlns="http://www.w3.org/2000/svg" width="960" height="520" viewBox="0 0 960 520"><rect width="100%" height="100%" fill="white" />
<text x="56.00" y="32.00" font-size="20" font-family="Arial" fill="#1f2933" text-anchor="start">中信金(2891) Price and Moving Averages</text>
<line x1="56" y1="464" x2="904" y2="464" stroke="#cbd2d9" />
<line x1="56" y1="56" x2="56" y2="464" stroke="#cbd2d9" />
<text x="16.00" y="38.00" font-size="12" font-family="Arial" fill="#52606d" text-anchor="start">Price</text>
<line x1="56" y1="464.00" x2="904" y2="464.00" stroke="#edf2f7" />
<line x1="52" y1="464.00" x2="56" y2="464.00" stroke="#9fb3c8" />
<text x="48.00" y="468.00" font-size="11" font-family="Arial" fill="#52606d" text-anchor="end">37.9</text>
<line x1="56" y1="362.00" x2="904" y2="362.00" stroke="#edf2f7" />
<line x1="52" y1="362.00" x2="56" y2="362.00" stroke="#9fb3c8" />
<text x="48.00" y="366.00" font-size="11" font-family="Arial" fill="#52606d" text-anchor="end">46.3</text>
<line x1="56" y1="260.00" x2="904" y2="260.00" stroke="#edf2f7" />
<line x1="52" y1="260.00" x2="56" y2="260.00" stroke="#9fb3c8" />
<text x="48.00" y="264.00" font-size="11" font-family="Arial" fill="#52606d" text-anchor="end">54.7</text>
<line x1="56" y1="158.00" x2="904" y2="158.00" stroke="#edf2f7" />
<line x1="52" y1="158.00" x2="56" y2="158.00" stroke="#9fb3c8" />
<text x="48.00" y="162.00" font-size="11" font-family="Arial" fill="#52606d" text-anchor="end">63.2</text>
<line x1="56" y1="56.00" x2="904" y2="56.00" stroke="#edf2f7" />
<line x1="52" y1="56.00" x2="56" y2="56.00" stroke="#9fb3c8" />
<text x="48.00" y="60.00" font-size="11" font-family="Arial" fill="#52606d" text-anchor="end">71.6</text>
<line x1="56.00" y1="464" x2="56.00" y2="468" stroke="#9fb3c8" />
<text x="56.00" y="482.00" font-size="11" font-family="Arial" fill="#52606d" text-anchor="middle">06/30</text>
<line x1="226.25" y1="464" x2="226.25" y2="468" stroke="#9fb3c8" />
<text x="226.25" y="482.00" font-size="11" font-family="Arial" fill="#52606d" text-anchor="middle">09/11</text>
<line x1="396.51" y1="464" x2="396.51" y2="468" stroke="#9fb3c8" />
<text x="396.51" y="482.00" font-size="11" font-family="Arial" fill="#52606d" text-anchor="middle">11/28</text>
<line x1="563.49" y1="464" x2="563.49" y2="468" stroke="#9fb3c8" />
<text x="563.49" y="482.00" font-size="11" font-family="Arial" fill="#52606d" text-anchor="middle">02/11</text>
<line x1="733.75" y1="464" x2="733.75" y2="468" stroke="#9fb3c8" />
<text x="733.75" y="482.00" font-size="11" font-family="Arial" fill="#52606d" text-anchor="middle">05/11</text>
<line x1="904.00" y1="464" x2="904.00" y2="468" stroke="#9fb3c8" />
<text x="904.00" y="482.00" font-size="11" font-family="Arial" fill="#52606d" text-anchor="middle">07/23</text>
<polyline fill="none" stroke="#1f77b4" stroke-width="2" points="56.00,439.14 59.27,435.83 62.55,436.93 65.82,431.41 69.10,430.31 72.37,425.33 75.64,431.41 78.92,436.93 82.19,434.72 85.47,437.48 88.74,433.40 92.02,421.74 95.29,420.58 98.56,422.91 101.84,424.07 105.11,426.41 108.39,424.66 111.66,420.58 114.93,421.16 118.21,426.41 121.48,431.07 124.76,435.73 128.03,433.40 131.31,440.98 134.58,424.66 137.85,425.24 141.13,421.74 144.40,421.16 147.68,420.58 150.95,419.41 154.22,422.91 157.50,420.58 160.77,418.25 164.05,422.33 167.32,422.33 170.59,421.16 173.87,424.07 177.14,418.25 180.42,424.07 183.69,421.74 186.97,432.23 190.24,435.15 193.51,434.57 196.79,442.14 200.06,439.23 203.34,432.23 206.61,433.40 209.88,433.40 213.16,433.98 216.43,435.15 219.71,432.23 222.98,431.65 226.25,429.32 229.53,422.91 232.80,418.83 236.08,415.33 239.35,419.41 242.63,418.83 245.90,413.00 249.17,418.25 252.45,417.66 255.72,418.83 259.00,426.41 262.27,425.24 265.54,421.74 268.82,419.99 272.09,421.16 275.37,428.15 278.64,429.32 281.92,426.41 285.19,425.24 288.46,430.49 291.74,428.15 295.01,425.24 298.29,425.24 301.56,426.41 304.83,427.57 308.11,428.74 311.38,431.65 314.66,432.23 317.93,424.66 321.20,433.40 324.48,432.23 327.75,432.82 331.03,433.98 334.30,431.65 337.58,427.57 340.85,429.32 344.12,425.82 347.40,433.40 350.67,427.57 353.95,416.50 357.22,419.99 360.49,421.74 363.77,424.07 367.04,429.90 370.32,425.24 373.59,421.74 376.86,417.08 380.14,415.91 383.41,407.75 386.69,417.08 389.96,415.91 393.24,408.92 396.51,415.33 399.78,415.91 403.06,407.75 406.33,412.42 409.61,404.84 412.88,402.51 416.15,402.51 419.43,397.85 422.70,399.59 425.98,396.68 429.25,379.78 432.53,376.86 435.80,378.03 439.07,351.22 442.35,346.55 445.62,344.81 448.90,334.31 452.17,334.31 455.44,335.48 458.72,341.31 461.99,334.31 465.27,336.65 468.54,336.65 471.81,329.65 475.09,340.14 478.36,340.73 481.64,346.55 484.91,346.55 488.19,342.47 491.46,338.98 494.73,343.06 498.01,347.14 501.28,334.31 504.56,333.15 507.83,324.99 511.10,327.32 514.38,331.98 517.65,329.65 520.93,333.15 524.20,327.32 527.47,329.65 530.75,324.99 534.02,315.66 537.30,328.49 540.57,328.49 543.85,326.15 547.12,324.99 550.39,319.16 553.67,320.33 556.94,315.66 560.22,319.16 563.49,313.33 566.76,293.51 570.04,294.68 573.31,298.18 576.59,270.20 579.86,294.68 583.14,298.18 586.41,333.15 589.68,321.49 592.96,322.66 596.23,327.32 599.51,324.99 602.78,324.99 606.05,323.82 609.33,323.82 612.60,316.83 615.88,305.17 619.15,300.51 622.42,320.33 625.70,314.50 628.97,321.49 632.25,315.66 635.52,306.34 638.80,304.01 642.07,304.01 645.34,316.83 648.62,323.82 651.89,295.85 655.17,286.52 658.44,271.37 661.71,263.21 664.99,283.02 668.26,292.35 671.54,300.51 674.81,302.84 678.08,306.34 681.36,299.34 684.63,302.84 687.91,302.84 691.18,304.01 694.46,298.18 697.73,307.50 701.00,305.17 704.28,307.50 707.55,300.51 710.83,302.84 714.10,312.17 717.37,305.17 720.65,298.18 723.92,284.19 727.20,266.70 730.47,264.37 733.75,277.19 737.02,298.18 740.29,281.86 743.57,283.02 746.84,283.02 750.12,283.02 753.39,276.03 756.66,248.05 759.94,251.55 763.21,250.38 766.49,253.88 769.76,250.38 773.03,231.73 776.31,230.57 779.58,216.58 782.86,197.93 786.13,174.61 789.41,100.01 792.68,129.15 795.95,145.47 799.23,159.46 802.50,115.16 805.78,126.82 809.05,134.98 812.32,133.81 815.60,104.67 818.87,96.51 822.15,94.18 825.42,83.69 828.69,100.01 831.97,77.86 835.24,107.00 838.52,98.84 841.79,102.34 845.07,102.34 848.34,94.18 851.61,98.84 854.89,107.00 858.16,98.84 861.44,89.51 864.71,103.50 867.98,90.68 871.26,107.00 874.53,107.00 877.81,117.88 881.08,136.01 884.36,154.15 887.63,160.19 890.90,171.07 894.18,178.33 897.45,163.82 900.73,148.10 904.00,154.15" />
<text x="780.00" y="60.00" font-size="14" font-family="Arial" fill="#1f77b4" text-anchor="start">Close</text>
<polyline fill="none" stroke="#2ca02c" stroke-width="2" points="118.21,429.07 121.48,428.67 124.76,428.66 128.03,428.49 131.31,428.96 134.58,428.68 137.85,428.68 141.13,428.19 144.40,427.40 147.68,426.70 150.95,425.79 154.22,425.27 157.50,425.21 160.77,425.09 164.05,425.07 167.32,424.98 170.59,424.72 173.87,424.69 177.14,424.57 180.42,424.72 183.69,424.48 186.97,424.54 190.24,424.51 193.51,424.57 196.79,424.63 200.06,425.36 203.34,425.71 206.61,426.29 209.88,426.90 213.16,427.57 216.43,428.36 219.71,428.82 222.98,429.38 226.25,429.93 229.53,429.96 232.80,429.79 236.08,429.49 239.35,429.26 242.63,429.29 245.90,428.74 249.17,428.56 252.45,427.83 255.72,427.02 259.00,426.61 262.27,425.76 265.54,424.89 268.82,424.28 272.09,423.67 275.37,423.40 278.64,423.17 281.92,422.73 285.19,422.38 288.46,422.33 291.74,422.27 295.01,422.38 298.29,422.70 301.56,423.26 304.83,423.67 308.11,424.16 311.38,425.09 314.66,425.79 317.93,426.14 321.20,426.87 324.48,427.16 327.75,427.54 331.03,428.15 334.30,428.74 337.58,429.06 340.85,429.12 344.12,428.94 347.40,429.29 350.67,429.41 353.95,428.71 357.22,428.30 360.49,428.13 363.77,428.07 367.04,428.24 370.32,428.13 373.59,427.78 376.86,427.05 380.14,426.23 383.41,425.39 386.69,424.57 389.96,423.75 393.24,422.56 396.51,421.63 399.78,420.84 403.06,419.85 406.33,419.00 409.61,417.95 412.88,416.41 416.15,415.16 419.43,414.22 422.70,413.20 425.98,411.95 429.25,409.74 432.53,407.08 435.80,404.72 439.07,401.20 442.35,397.67 445.62,394.12 448.90,390.44 452.17,386.31 455.44,382.28 458.72,378.90 461.99,374.85 465.27,370.89 468.54,367.33 471.81,363.19 475.09,359.96 478.36,356.87 481.64,354.07 484.91,351.51 488.19,348.65 491.46,345.77 494.73,343.93 498.01,342.45 501.28,340.26 504.56,339.36 507.83,338.28 511.10,337.40 514.38,337.29 517.65,337.05 520.93,336.94 524.20,336.24 527.47,336.00 530.75,335.42 534.02,334.37 537.30,334.31 540.57,333.73 543.85,333.00 547.12,331.92 550.39,330.55 553.67,329.45 556.94,328.28 560.22,327.09 563.49,325.40 566.76,323.36 570.04,321.43 573.31,320.09 576.59,317.24 579.86,315.37 583.14,313.80 586.41,313.80 589.68,313.51 592.96,313.16 596.23,313.27 599.51,313.74 602.78,313.56 606.05,313.33 609.33,313.21 612.60,312.81 615.88,312.11 619.15,311.12 622.42,311.35 625.70,311.12 628.97,311.52 632.25,312.63 635.52,313.21 638.80,313.51 642.07,315.20 645.34,316.30 648.62,317.59 651.89,315.72 655.17,313.97 658.44,311.41 661.71,308.20 664.99,306.10 668.26,304.47 671.54,303.31 674.81,302.26 678.08,301.73 681.36,301.44 684.63,301.56 687.91,300.68 691.18,300.16 694.46,298.99 697.73,298.59 701.00,298.53 704.28,298.70 707.55,298.53 710.83,297.83 714.10,297.24 717.37,297.71 720.65,298.29 723.92,298.93 727.20,299.11 730.47,298.18 733.75,297.42 737.02,297.30 740.29,296.25 743.57,295.09 746.84,294.27 750.12,293.28 753.39,291.94 756.66,289.14 759.94,286.81 763.21,283.96 766.49,281.39 769.76,278.53 773.03,275.10 776.31,271.48 779.58,266.70 782.86,261.34 786.13,255.16 789.41,245.95 792.68,239.08 795.95,233.13 799.23,227.24 802.50,218.09 805.78,210.34 809.05,202.94 812.32,195.48 815.60,186.56 818.87,177.58 822.15,169.89 825.42,161.50 828.69,153.98 831.97,145.18 835.24,138.01 838.52,131.36 841.79,124.95 845.07,119.24 848.34,114.05 851.61,110.26 854.89,110.61 858.16,109.10 861.44,106.30 864.71,103.50 867.98,102.28 871.26,101.29 874.53,99.89 877.81,99.09 881.08,100.66 884.36,103.54 887.63,106.84 890.90,111.21 894.18,115.13 897.45,119.43 900.73,121.48 904.00,124.25" />
<text x="780.00" y="82.00" font-size="14" font-family="Arial" fill="#2ca02c" text-anchor="start">MA20</text>
<polyline fill="none" stroke="#ff7f0e" stroke-width="2" points="249.17,427.37 252.45,427.01 255.72,426.73 259.00,426.55 262.27,426.45 265.54,426.31 268.82,426.22 272.09,426.05 275.37,425.90 278.64,425.81 281.92,425.63 285.19,425.49 288.46,425.64 291.74,425.76 295.01,425.80 298.29,425.82 301.56,425.82 304.83,425.87 308.11,426.01 311.38,426.18 314.66,426.28 317.93,426.17 321.20,426.13 324.48,426.11 327.75,425.98 331.03,426.13 334.30,426.24 337.58,426.34 340.85,426.47 344.12,426.56 347.40,426.79 350.67,426.87 353.95,426.80 357.22,426.83 360.49,426.82 363.77,426.85 367.04,427.00 370.32,427.02 373.59,427.08 376.86,426.96 380.14,426.86 383.41,426.45 386.69,426.15 389.96,425.84 393.24,425.29 396.51,424.89 399.78,424.62 403.06,424.19 406.33,423.84 409.61,423.36 412.88,422.81 416.15,422.32 419.43,421.75 422.70,421.26 425.98,420.82 429.25,420.17 432.53,419.53 435.80,418.84 439.07,417.71 442.35,416.60 445.62,415.38 448.90,413.99 452.17,412.58 455.44,411.07 458.72,409.67 461.99,408.21 465.27,406.82 468.54,405.41 471.81,403.77 475.09,402.29 478.36,400.86 481.64,399.55 484.91,398.15 488.19,396.72 491.46,395.28 494.73,393.91 498.01,392.59 501.28,391.04 504.56,389.44 507.83,387.67 511.10,385.92 514.38,384.37 517.65,382.64 520.93,380.99 524.20,379.23 527.47,377.49 530.75,375.72 534.02,373.85 537.30,372.17 540.57,370.55 543.85,368.76 547.12,367.05 550.39,365.43 553.67,363.77 556.94,362.00 560.22,360.25 563.49,358.31 566.76,356.11 570.04,354.00 573.31,352.01 576.59,349.59 579.86,347.70 583.14,345.72 586.41,344.34 589.68,342.88 592.96,341.34 596.23,339.86 599.51,338.48 602.78,337.02 606.05,335.67 609.33,334.36 612.60,332.93 615.88,331.39 619.15,329.74 622.42,328.47 625.70,327.38 628.97,326.46 632.25,325.42 635.52,324.67 638.80,323.96 642.07,323.28 645.34,322.99 648.62,322.81 651.89,322.15 655.17,321.24 658.44,320.19 661.71,318.97 664.99,318.07 668.26,317.45 671.54,316.79 674.81,316.16 678.08,315.49 681.36,314.70 684.63,314.04 687.91,313.44 691.18,312.79 694.46,311.97 697.73,311.52 701.00,311.06 704.28,310.77 707.55,310.32 710.83,309.83 714.10,309.54 717.37,309.08 720.65,308.59 723.92,307.83 727.20,306.86 730.47,306.01 733.75,305.15 737.02,304.65 740.29,303.91 743.57,303.21 746.84,302.61 750.12,301.99 753.39,301.32 756.66,300.14 759.94,299.11 763.21,298.39 766.49,297.71 769.76,296.91 773.03,296.27 776.31,295.20 779.58,293.84 782.86,291.59 786.13,289.14 789.41,285.43 792.68,282.13 795.95,279.14 799.23,276.38 802.50,272.90 805.78,269.62 809.05,266.59 812.32,263.73 815.60,260.47 818.87,256.74 822.15,253.06 825.42,249.10 828.69,245.51 831.97,241.70 835.24,238.41 838.52,235.00 841.79,231.42 845.07,227.73 848.34,224.37 851.61,221.24 854.89,218.50 858.16,215.76 861.44,212.54 864.71,209.39 867.98,205.89 871.26,202.63 874.53,199.31 877.81,196.28 881.08,193.50 884.36,191.02 887.63,188.63 890.90,186.51 894.18,184.35 897.45,182.00 900.73,179.34 904.00,176.90" />
<text x="780.00" y="104.00" font-size="14" font-family="Arial" fill="#ff7f0e" text-anchor="start">MA60</text>
<polyline fill="none" stroke="#d62728" stroke-width="2" points="707.55,379.66 710.83,378.98 714.10,378.36 717.37,377.70 720.65,377.04 723.92,376.31 727.20,375.51 730.47,374.68 733.75,373.88 737.02,373.20 740.29,372.42 743.57,371.67 746.84,370.97 750.12,370.29 753.39,369.55 756.66,368.67 759.94,367.80 763.21,366.93 766.49,366.09 769.76,365.24 773.03,364.26 776.31,363.26 779.58,362.17 782.86,360.99 786.13,359.66 789.41,358.03 792.68,356.55 795.95,355.17 799.23,353.86 802.50,352.34 805.78,350.87 809.05,349.43 812.32,348.00 815.60,346.43 818.87,344.80 822.15,343.16 825.42,341.47 828.69,339.85 831.97,338.15 835.24,336.57 838.52,334.95 841.79,333.30 845.07,331.64 848.34,329.94 851.61,328.22 854.89,326.56 858.16,324.89 861.44,323.17 864.71,321.52 867.98,319.81 871.26,318.17 874.53,316.54 877.81,314.97 881.08,313.50 884.36,312.16 887.63,310.87 890.90,309.65 894.18,308.44 897.45,307.17 900.73,305.84 904.00,304.52" />
<text x="780.00" y="126.00" font-size="14" font-family="Arial" fill="#d62728" text-anchor="start">MA200</text>
</svg>