<svg xmlns="http://www.w3.org/2000/svg" width="960" height="520" viewBox="0 0 960 520"><rect width="100%" height="100%" fill="white" />
<text x="56.00" y="32.00" font-size="20" font-family="Arial" fill="#1f2933" text-anchor="start">欣興(3037) Price and Moving Averages</text>
<line x1="56" y1="464" x2="904" y2="464" stroke="#cbd2d9" />
<line x1="56" y1="56" x2="56" y2="464" stroke="#cbd2d9" />
<text x="16.00" y="38.00" font-size="12" font-family="Arial" fill="#52606d" text-anchor="start">Price</text>
<line x1="56" y1="464.00" x2="904" y2="464.00" stroke="#edf2f7" />
<line x1="52" y1="464.00" x2="56" y2="464.00" stroke="#9fb3c8" />
<text x="48.00" y="468.00" font-size="11" font-family="Arial" fill="#52606d" text-anchor="end">39.5</text>
<line x1="56" y1="362.00" x2="904" y2="362.00" stroke="#edf2f7" />
<line x1="52" y1="362.00" x2="56" y2="362.00" stroke="#9fb3c8" />
<text x="48.00" y="366.00" font-size="11" font-family="Arial" fill="#52606d" text-anchor="end">315</text>
<line x1="56" y1="260.00" x2="904" y2="260.00" stroke="#edf2f7" />
<line x1="52" y1="260.00" x2="56" y2="260.00" stroke="#9fb3c8" />
<text x="48.00" y="264.00" font-size="11" font-family="Arial" fill="#52606d" text-anchor="end">591</text>
<line x1="56" y1="158.00" x2="904" y2="158.00" stroke="#edf2f7" />
<line x1="52" y1="158.00" x2="56" y2="158.00" stroke="#9fb3c8" />
<text x="48.00" y="162.00" font-size="11" font-family="Arial" fill="#52606d" text-anchor="end">866</text>
<line x1="56" y1="56.00" x2="904" y2="56.00" stroke="#edf2f7" />
<line x1="52" y1="56.00" x2="56" y2="56.00" stroke="#9fb3c8" />
<text x="48.00" y="60.00" font-size="11" font-family="Arial" fill="#52606d" text-anchor="end">1,142</text>
<line x1="56.00" y1="464" x2="56.00" y2="468" stroke="#9fb3c8" />
<text x="56.00" y="482.00" font-size="11" font-family="Arial" fill="#52606d" text-anchor="middle">06/19</text>
<line x1="226.25" y1="464" x2="226.25" y2="468" stroke="#9fb3c8" />
<text x="226.25" y="482.00" font-size="11" font-family="Arial" fill="#52606d" text-anchor="middle">09/02</text>
<line x1="396.51" y1="464" x2="396.51" y2="468" stroke="#9fb3c8" />
<text x="396.51" y="482.00" font-size="11" font-family="Arial" fill="#52606d" text-anchor="middle">11/19</text>
<line x1="563.49" y1="464" x2="563.49" y2="468" stroke="#9fb3c8" />
<text x="563.49" y="482.00" font-size="11" font-family="Arial" fill="#52606d" text-anchor="middle">02/02</text>
<line x1="733.75" y1="464" x2="733.75" y2="468" stroke="#9fb3c8" />
<text x="733.75" y="482.00" font-size="11" font-family="Arial" fill="#52606d" text-anchor="middle">04/29</text>
<line x1="904.00" y1="464" x2="904.00" y2="468" stroke="#9fb3c8" />
<text x="904.00" y="482.00" font-size="11" font-family="Arial" fill="#52606d" text-anchor="middle">07/14</text>
<polyline fill="none" stroke="#1f77b4" stroke-width="2" points="56.00,441.96 59.27,442.14 62.55,438.49 65.82,437.95 69.10,437.03 72.37,437.03 75.64,437.40 78.92,437.03 82.19,437.76 85.47,437.76 88.74,435.94 92.02,435.57 95.29,436.67 98.56,436.30 101.84,433.93 105.11,432.27 108.39,432.83 111.66,434.31 114.93,429.87 118.21,428.58 121.48,429.32 124.76,429.50 128.03,429.32 131.31,431.17 134.58,430.06 137.85,429.69 141.13,430.24 144.40,429.50 147.68,426.92 150.95,426.18 154.22,427.84 157.50,428.77 160.77,428.58 164.05,429.14 167.32,428.40 170.59,428.03 173.87,426.00 177.14,427.47 180.42,427.66 183.69,427.66 186.97,428.58 190.24,426.18 193.51,427.29 196.79,429.32 200.06,429.32 203.34,428.77 206.61,426.92 209.88,426.18 213.16,422.49 216.43,423.23 219.71,425.26 222.98,428.95 226.25,430.24 229.53,429.69 232.80,429.32 236.08,429.14 239.35,429.32 242.63,428.77 245.90,426.36 249.17,426.00 252.45,425.26 255.72,426.18 259.00,422.49 262.27,424.15 265.54,423.78 268.82,420.45 272.09,420.09 275.37,419.90 278.64,420.64 281.92,420.64 285.19,423.59 288.46,422.67 291.74,421.38 295.01,422.12 298.29,421.01 301.56,420.27 304.83,419.53 308.11,419.16 311.38,421.93 314.66,424.70 317.93,420.09 321.20,417.50 324.48,419.35 327.75,419.53 331.03,419.53 334.30,419.90 337.58,421.01 340.85,418.24 344.12,418.61 347.40,417.32 350.67,419.53 353.95,418.24 357.22,412.70 360.49,416.39 363.77,418.52 367.04,417.97 370.32,419.44 373.59,418.34 376.86,417.61 380.14,417.24 383.41,413.21 386.69,415.28 389.96,416.76 393.24,415.84 396.51,419.35 399.78,415.28 403.06,419.53 406.33,418.05 409.61,413.62 412.88,412.70 416.15,409.56 419.43,409.74 422.70,405.86 425.98,406.23 429.25,406.05 432.53,405.31 435.80,399.22 439.07,397.18 442.35,395.15 445.62,394.60 448.90,395.52 452.17,395.52 455.44,396.81 458.72,399.58 461.99,400.32 465.27,402.17 468.54,399.22 471.81,397.18 475.09,399.03 478.36,398.48 481.64,397.18 484.91,397.18 488.19,397.55 491.46,397.37 494.73,397.74 498.01,393.67 501.28,393.49 504.56,395.15 507.83,394.60 511.10,395.34 514.38,388.69 517.65,384.81 520.93,386.29 524.20,386.47 527.47,377.42 530.75,367.45 534.02,364.86 537.30,360.06 540.57,357.85 543.85,353.41 547.12,355.63 550.39,347.87 553.67,342.89 556.94,351.38 560.22,338.82 563.49,343.81 566.76,336.42 570.04,335.31 573.31,343.62 576.59,353.04 579.86,350.27 583.14,341.41 586.41,342.33 589.68,328.85 592.96,313.89 596.23,309.27 599.51,300.78 602.78,300.96 606.05,307.61 609.33,324.60 612.60,312.41 615.88,319.06 619.15,334.94 622.42,322.02 625.70,306.50 628.97,301.33 632.25,290.99 635.52,275.84 638.80,278.06 642.07,264.39 645.34,264.02 648.62,274.00 651.89,294.31 655.17,308.72 658.44,291.73 661.71,293.20 664.99,292.10 668.26,296.34 671.54,314.44 674.81,298.19 678.08,286.92 681.36,270.30 684.63,249.62 687.91,247.77 691.18,242.97 694.46,247.40 697.73,258.11 701.00,250.36 704.28,240.38 707.55,241.12 710.83,228.19 714.10,216.37 717.37,214.16 720.65,209.72 723.92,186.82 727.20,168.72 730.47,173.90 733.75,182.02 737.02,152.47 740.29,142.13 743.57,145.08 746.84,161.71 750.12,147.67 753.39,176.48 756.66,160.60 759.94,155.43 763.21,149.15 766.49,153.21 769.76,175.37 773.03,177.22 776.31,176.48 779.58,174.63 782.86,144.35 786.13,120.34 789.41,112.95 792.68,77.86 795.95,79.70 799.23,100.02 802.50,88.94 805.78,90.79 809.05,118.49 812.32,109.25 815.60,119.97 818.87,134.00 822.15,142.13 825.42,120.70 828.69,152.10 831.97,163.18 835.24,145.45 838.52,124.03 841.79,116.27 845.07,113.69 848.34,121.07 851.61,107.41 854.89,118.86 858.16,134.74 861.44,101.87 864.71,118.49 867.98,118.12 871.26,83.40 874.53,94.48 877.81,117.01 881.08,120.70 884.36,139.22 887.63,167.72 890.90,159.21 894.18,154.76 897.45,154.76 900.73,144.40 904.00,155.13" />
<text x="780.00" y="60.00" font-size="14" font-family="Arial" fill="#1f77b4" text-anchor="start">Close</text>
<polyline fill="none" stroke="#2ca02c" stroke-width="2" points="118.21,436.04 121.48,435.41 124.76,434.78 128.03,434.32 131.31,433.98 134.58,433.63 137.85,433.27 141.13,432.91 144.40,432.53 147.68,431.99 150.95,431.41 154.22,431.00 157.50,430.66 160.77,430.26 164.05,429.90 167.32,429.62 170.59,429.41 173.87,429.07 177.14,428.73 180.42,428.62 183.69,428.57 186.97,428.53 190.24,428.37 193.51,428.27 196.79,428.17 200.06,428.14 203.34,428.09 206.61,427.93 209.88,427.76 213.16,427.54 216.43,427.39 219.71,427.26 222.98,427.27 226.25,427.35 229.53,427.38 232.80,427.43 236.08,427.48 239.35,427.65 242.63,427.71 245.90,427.65 249.17,427.57 252.45,427.40 255.72,427.40 259.00,427.16 262.27,426.90 265.54,426.62 268.82,426.21 272.09,425.87 275.37,425.55 278.64,425.46 281.92,425.33 285.19,425.25 288.46,424.93 291.74,424.49 295.01,424.11 298.29,423.70 301.56,423.25 304.83,422.76 308.11,422.28 311.38,422.06 314.66,422.00 317.93,421.74 321.20,421.30 324.48,421.15 327.75,420.92 331.03,420.70 334.30,420.68 337.58,420.72 340.85,420.64 344.12,420.54 347.40,420.37 350.67,420.17 353.95,419.95 357.22,419.51 360.49,419.23 363.77,419.10 367.04,418.99 370.32,418.98 373.59,418.94 376.86,418.73 380.14,418.35 383.41,418.01 386.69,417.90 389.96,417.77 393.24,417.58 396.51,417.57 399.78,417.34 403.06,417.27 406.33,417.26 409.61,417.01 412.88,416.78 416.15,416.28 419.43,415.86 422.70,415.51 425.98,415.01 429.25,414.38 432.53,413.75 435.80,412.74 439.07,411.68 442.35,410.56 445.62,409.43 448.90,408.54 452.17,407.55 455.44,406.56 458.72,405.74 461.99,404.79 465.27,404.14 468.54,403.12 471.81,402.08 475.09,401.35 478.36,400.64 481.64,400.02 484.91,399.39 488.19,398.98 491.46,398.53 494.73,398.12 498.01,397.53 501.28,397.25 504.56,397.15 507.83,397.12 511.10,397.16 514.38,396.81 517.65,396.28 520.93,395.75 524.20,395.10 527.47,393.95 530.75,392.22 534.02,390.50 537.30,388.64 540.57,386.58 543.85,384.33 547.12,382.25 550.39,379.79 553.67,377.05 556.94,374.75 560.22,371.81 563.49,369.31 566.76,366.46 570.04,363.47 573.31,360.92 576.59,358.81 579.86,356.88 583.14,354.71 586.41,352.52 589.68,349.64 592.96,346.46 596.23,343.55 599.51,340.35 602.78,337.39 606.05,334.88 609.33,333.44 612.60,331.28 615.88,329.84 619.15,329.44 622.42,327.97 625.70,326.36 628.97,324.23 632.25,321.96 635.52,318.99 638.80,315.71 642.07,311.28 645.34,306.96 648.62,303.59 651.89,301.19 655.17,300.19 658.44,299.08 661.71,298.27 664.99,297.84 668.26,297.61 671.54,297.95 674.81,296.63 678.08,295.36 681.36,292.92 684.63,288.65 687.91,284.94 691.18,281.76 694.46,279.07 697.73,277.42 701.00,276.15 704.28,274.26 707.55,273.10 710.83,271.31 714.10,268.43 717.37,264.42 720.65,259.47 723.92,254.23 727.20,248.00 730.47,242.09 733.75,236.38 737.02,228.28 740.29,220.47 743.57,213.38 746.84,207.95 750.12,202.85 753.39,199.29 756.66,195.17 759.94,190.57 763.21,185.12 766.49,180.27 769.76,177.02 773.03,173.82 776.31,171.24 779.58,169.15 782.86,165.66 786.13,161.19 789.41,157.49 792.68,152.95 795.95,148.24 799.23,144.14 802.50,140.97 805.78,138.40 809.05,137.07 812.32,134.45 815.60,133.06 818.87,130.94 822.15,130.01 825.42,128.28 828.69,128.42 831.97,128.92 835.24,127.43 838.52,124.77 841.79,121.76 845.07,118.71 848.34,117.55 851.61,116.90 854.89,117.20 858.16,120.04 861.44,121.15 864.71,122.07 867.98,123.53 871.26,123.16 874.53,121.96 877.81,122.35 881.08,122.39 884.36,122.65 887.63,123.93 890.90,125.85 894.18,125.98 897.45,125.56 900.73,125.51 904.00,127.07" />
<text x="780.00" y="82.00" font-size="14" font-family="Arial" fill="#2ca02c" text-anchor="start">MA20</text>
<polyline fill="none" stroke="#ff7f0e" stroke-width="2" points="249.17,430.73 252.45,430.45 255.72,430.18 259.00,429.92 262.27,429.69 265.54,429.46 268.82,429.19 272.09,428.90 275.37,428.61 278.64,428.33 281.92,428.04 285.19,427.84 288.46,427.62 291.74,427.37 295.01,427.13 298.29,426.92 301.56,426.72 304.83,426.49 308.11,426.24 311.38,426.11 314.66,426.04 317.93,425.89 321.20,425.69 324.48,425.52 327.75,425.33 331.03,425.16 334.30,424.99 337.58,424.84 340.85,424.65 344.12,424.51 347.40,424.36 350.67,424.23 353.95,424.05 357.22,423.79 360.49,423.57 363.77,423.41 367.04,423.24 370.32,423.13 373.59,422.98 376.86,422.81 380.14,422.64 383.41,422.38 386.69,422.20 389.96,422.02 393.24,421.80 396.51,421.63 399.78,421.41 403.06,421.29 406.33,421.15 409.61,421.00 412.88,420.83 416.15,420.57 419.43,420.25 422.70,419.84 425.98,419.45 429.25,419.06 432.53,418.66 435.80,418.16 439.07,417.64 442.35,417.12 445.62,416.59 448.90,416.10 452.17,415.59 455.44,415.16 458.72,414.75 461.99,414.36 465.27,414.05 468.54,413.70 471.81,413.33 475.09,412.97 478.36,412.60 481.64,412.16 484.91,411.73 488.19,411.33 491.46,410.92 494.73,410.53 498.01,410.09 501.28,409.66 504.56,409.26 507.83,408.80 511.10,408.31 514.38,407.79 517.65,407.24 520.93,406.69 524.20,406.14 527.47,405.44 530.75,404.57 534.02,403.63 537.30,402.66 540.57,401.65 543.85,400.58 547.12,399.52 550.39,398.34 553.67,397.18 556.94,396.10 560.22,394.77 563.49,393.53 566.76,392.15 570.04,390.77 573.31,389.53 576.59,388.46 579.86,387.41 583.14,386.18 586.41,384.94 589.68,383.49 592.96,381.73 596.23,379.97 599.51,377.99 602.78,376.04 606.05,374.27 609.33,372.80 612.60,371.18 615.88,369.67 619.15,368.49 622.42,367.09 625.70,365.43 628.97,363.69 632.25,361.89 635.52,359.87 638.80,357.92 642.07,355.75 645.34,353.55 648.62,351.53 651.89,349.82 655.17,348.31 658.44,346.50 661.71,344.68 664.99,342.89 668.26,341.21 671.54,339.80 674.81,338.13 678.08,336.30 681.36,334.18 684.63,331.71 687.91,329.22 691.18,326.64 694.46,324.20 697.73,321.95 701.00,319.53 704.28,316.96 707.55,314.39 710.83,311.72 714.10,308.91 717.37,306.04 720.65,303.10 723.92,299.92 727.20,296.61 730.47,293.43 733.75,290.46 737.02,287.04 740.29,283.51 743.57,280.01 746.84,276.90 750.12,273.65 753.39,270.73 756.66,267.76 759.94,264.62 763.21,261.50 766.49,258.47 769.76,255.66 773.03,252.73 776.31,249.84 779.58,247.06 782.86,243.76 786.13,240.28 789.41,236.93 792.68,233.08 795.95,229.39 799.23,226.04 802.50,222.40 805.78,218.50 809.05,215.27 812.32,211.77 815.60,208.19 818.87,205.06 822.15,202.32 825.42,199.31 828.69,196.99 831.97,195.11 835.24,192.90 838.52,190.56 841.79,188.10 845.07,185.43 848.34,182.54 851.61,179.19 854.89,176.31 858.16,173.66 861.44,170.49 864.71,167.53 867.98,164.26 871.26,160.68 874.53,157.47 877.81,154.92 881.08,152.77 884.36,150.96 887.63,149.70 890.90,148.23 894.18,146.51 897.45,144.92 900.73,143.32 904.00,141.89" />
<text x="780.00" y="104.00" font-size="14" font-family="Arial" fill="#ff7f0e" text-anchor="start">MA60</text>
<polyline fill="none" stroke="#d62728" stroke-width="2" points="707.55,388.23 710.83,387.16 714.10,386.03 717.37,384.91 720.65,383.77 723.92,382.52 727.20,381.18 730.47,379.86 733.75,378.58 737.02,377.16 740.29,375.68 743.57,374.22 746.84,372.86 750.12,371.41 753.39,370.11 756.66,368.74 759.94,367.36 763.21,365.94 766.49,364.54 769.76,363.26 773.03,362.01 776.31,360.74 779.58,359.47 782.86,358.04 786.13,356.49 789.41,354.90 792.68,353.15 795.95,351.39 799.23,349.74 802.50,348.06 805.78,346.38 809.05,344.83 812.32,343.23 815.60,341.69 818.87,340.21 822.15,338.78 825.42,337.25 828.69,335.88 831.97,334.56 835.24,333.15 838.52,331.63 841.79,330.07 845.07,328.50 848.34,326.97 851.61,325.36 854.89,323.81 858.16,322.34 861.44,320.71 864.71,319.18 867.98,317.65 871.26,315.96 874.53,314.30 877.81,312.74 881.08,311.19 884.36,309.74 887.63,308.43 890.90,307.08 894.18,305.71 897.45,304.34 900.73,302.93 904.00,301.58" />
<text x="780.00" y="126.00" font-size="14" font-family="Arial" fill="#d62728" text-anchor="start">MA200</text>
</svg>