<svg xmlns="http://www.w3.org/2000/svg" width="960" height="520" viewBox="0 0 960 520"><rect width="100%" height="100%" fill="white" />
<text x="56.00" y="32.00" font-size="20" font-family="Arial" fill="#1f2933" text-anchor="start">世芯-KY(3661) Price and Moving Averages</text>
<line x1="56" y1="464" x2="904" y2="464" stroke="#cbd2d9" />
<line x1="56" y1="56" x2="56" y2="464" stroke="#cbd2d9" />
<text x="16.00" y="38.00" font-size="12" font-family="Arial" fill="#52606d" text-anchor="start">Price</text>
<line x1="56" y1="464.00" x2="904" y2="464.00" stroke="#edf2f7" />
<line x1="52" y1="464.00" x2="56" y2="464.00" stroke="#9fb3c8" />
<text x="48.00" y="468.00" font-size="11" font-family="Arial" fill="#52606d" text-anchor="end">2,312</text>
<line x1="56" y1="362.00" x2="904" y2="362.00" stroke="#edf2f7" />
<line x1="52" y1="362.00" x2="56" y2="362.00" stroke="#9fb3c8" />
<text x="48.00" y="366.00" font-size="11" font-family="Arial" fill="#52606d" text-anchor="end">3,121</text>
<line x1="56" y1="260.00" x2="904" y2="260.00" stroke="#edf2f7" />
<line x1="52" y1="260.00" x2="56" y2="260.00" stroke="#9fb3c8" />
<text x="48.00" y="264.00" font-size="11" font-family="Arial" fill="#52606d" text-anchor="end">3,930</text>
<line x1="56" y1="158.00" x2="904" y2="158.00" stroke="#edf2f7" />
<line x1="52" y1="158.00" x2="56" y2="158.00" stroke="#9fb3c8" />
<text x="48.00" y="162.00" font-size="11" font-family="Arial" fill="#52606d" text-anchor="end">4,739</text>
<line x1="56" y1="56.00" x2="904" y2="56.00" stroke="#edf2f7" />
<line x1="52" y1="56.00" x2="56" y2="56.00" stroke="#9fb3c8" />
<text x="48.00" y="60.00" font-size="11" font-family="Arial" fill="#52606d" text-anchor="end">5,548</text>
<line x1="56.00" y1="464" x2="56.00" y2="468" stroke="#9fb3c8" />
<text x="56.00" y="482.00" font-size="11" font-family="Arial" fill="#52606d" text-anchor="middle">06/20</text>
<line x1="226.25" y1="464" x2="226.25" y2="468" stroke="#9fb3c8" />
<text x="226.25" y="482.00" font-size="11" font-family="Arial" fill="#52606d" text-anchor="middle">09/03</text>
<line x1="396.51" y1="464" x2="396.51" y2="468" stroke="#9fb3c8" />
<text x="396.51" y="482.00" font-size="11" font-family="Arial" fill="#52606d" text-anchor="middle">11/20</text>
<line x1="563.49" y1="464" x2="563.49" y2="468" stroke="#9fb3c8" />
<text x="563.49" y="482.00" font-size="11" font-family="Arial" fill="#52606d" text-anchor="middle">02/03</text>
<line x1="733.75" y1="464" x2="733.75" y2="468" stroke="#9fb3c8" />
<text x="733.75" y="482.00" font-size="11" font-family="Arial" fill="#52606d" text-anchor="middle">04/30</text>
<line x1="904.00" y1="464" x2="904.00" y2="468" stroke="#9fb3c8" />
<text x="904.00" y="482.00" font-size="11" font-family="Arial" fill="#52606d" text-anchor="middle">07/15</text>
<polyline fill="none" stroke="#1f77b4" stroke-width="2" points="56.00,405.75 59.27,402.00 62.55,409.49 65.82,395.76 69.10,395.76 72.37,380.78 75.64,368.91 78.92,357.67 82.19,357.05 85.47,358.92 88.74,357.05 92.02,353.30 95.29,353.93 98.56,335.20 101.84,323.34 105.11,327.08 108.39,342.07 111.66,334.57 114.93,305.85 118.21,286.50 121.48,264.65 124.76,283.38 128.03,290.87 131.31,277.76 134.58,259.03 137.85,270.27 141.13,270.89 144.40,279.01 147.68,287.12 150.95,270.27 154.22,286.50 157.50,287.12 160.77,292.12 164.05,285.25 167.32,275.89 170.59,267.15 173.87,246.54 177.14,240.92 180.42,224.69 183.69,217.82 186.97,227.19 190.24,251.54 193.51,298.36 196.79,282.75 200.06,294.62 203.34,269.02 206.61,258.41 209.88,245.92 213.16,255.91 216.43,249.04 219.71,266.52 222.98,270.71 226.25,253.70 229.53,270.08 232.80,254.96 236.08,254.33 239.35,261.89 242.63,258.74 245.90,260.63 249.17,277.65 252.45,285.84 255.72,291.51 259.00,281.43 262.27,286.47 265.54,282.69 268.82,281.43 272.09,288.99 275.37,325.55 278.64,330.59 281.92,342.56 285.19,318.61 288.46,327.44 291.74,341.30 295.01,338.15 298.29,319.24 301.56,321.13 304.83,312.31 308.11,330.59 311.38,367.77 314.66,367.14 317.93,365.25 321.20,366.51 324.48,347.61 327.75,332.48 331.03,349.50 334.30,358.32 337.58,369.03 340.85,369.03 344.12,345.71 347.40,332.48 350.67,314.83 353.95,320.50 357.22,321.13 360.49,334.37 363.77,292.77 367.04,306.01 370.32,287.10 373.59,297.18 376.86,311.68 380.14,311.05 383.41,312.94 386.69,300.34 389.96,345.71 393.24,336.89 396.51,367.77 399.78,378.49 403.06,381.01 406.33,383.53 409.61,363.36 412.88,341.30 416.15,338.78 419.43,340.67 422.70,324.29 425.98,353.28 429.25,355.80 432.53,357.69 435.80,362.10 439.07,344.45 442.35,330.59 445.62,340.04 448.90,349.50 452.17,355.80 455.44,375.34 458.72,352.02 461.99,355.80 465.27,350.13 468.54,348.87 471.81,349.50 475.09,354.54 478.36,350.13 481.64,328.07 484.91,316.09 488.19,312.94 491.46,297.18 494.73,295.29 498.01,284.58 501.28,291.51 504.56,301.60 507.83,305.38 511.10,297.82 514.38,292.14 517.65,319.24 520.93,336.89 524.20,334.37 527.47,322.39 530.75,327.44 534.02,346.97 537.30,342.56 540.57,323.03 543.85,311.68 547.12,323.03 550.39,330.59 553.67,343.19 556.94,361.47 560.22,359.58 563.49,336.89 566.76,328.70 570.04,346.34 573.31,362.73 576.59,341.30 579.86,339.41 583.14,329.33 586.41,335.63 589.68,323.03 592.96,316.72 596.23,315.46 599.51,321.76 602.78,332.48 606.05,362.10 609.33,343.19 612.60,338.15 615.88,377.86 619.15,369.66 622.42,331.22 625.70,337.52 628.97,353.28 632.25,361.47 635.52,353.28 638.80,339.41 642.07,349.50 645.34,329.96 648.62,353.28 651.89,363.36 655.17,358.32 658.44,369.03 661.71,372.18 664.99,408.74 668.26,442.14 671.54,411.26 674.81,414.41 678.08,414.41 681.36,394.87 684.63,390.46 687.91,374.08 691.18,365.88 694.46,352.02 697.73,350.76 701.00,317.35 704.28,312.31 707.55,298.45 710.83,253.07 714.10,242.98 717.37,253.70 720.65,224.08 723.92,231.01 727.20,251.18 730.47,250.55 733.75,234.16 737.02,219.66 740.29,232.27 743.57,179.96 746.84,150.97 750.12,138.99 753.39,77.86 756.66,86.05 759.94,152.86 763.21,146.55 766.49,174.92 769.76,176.81 773.03,196.97 776.31,175.55 779.58,137.10 782.86,138.36 786.13,137.73 789.41,170.50 792.68,188.15 795.95,213.36 799.23,198.87 802.50,143.40 805.78,178.70 809.05,176.18 812.32,208.32 815.60,215.25 818.87,229.75 822.15,219.66 825.42,246.13 828.69,243.61 831.97,237.94 835.24,219.66 838.52,211.47 841.79,210.84 845.07,203.28 848.34,210.21 851.61,203.91 854.89,209.58 858.16,222.18 861.44,267.56 864.71,253.07 867.98,228.49 871.26,194.45 874.53,138.36 877.81,169.24 881.08,224.08 884.36,246.76 887.63,242.98 890.90,224.71 894.18,224.71 897.45,234.16 900.73,285.84 904.00,284.58" />
<text x="780.00" y="60.00" font-size="14" font-family="Arial" fill="#1f77b4" text-anchor="start">Close</text>
<polyline fill="none" stroke="#2ca02c" stroke-width="2" points="118.21,357.55 121.48,350.49 124.76,344.56 128.03,338.63 131.31,332.73 134.58,325.90 137.85,320.37 141.13,315.47 144.40,311.54 147.68,308.04 150.95,303.61 154.22,300.08 157.50,296.77 160.77,293.68 164.05,291.18 167.32,288.81 170.59,285.81 173.87,281.04 177.14,276.35 180.42,272.30 183.69,268.86 186.97,266.99 190.24,265.40 193.51,265.77 196.79,266.02 200.06,267.80 203.34,267.74 206.61,267.11 209.88,265.46 213.16,263.90 216.43,262.84 219.71,261.84 222.98,261.02 226.25,259.10 229.53,258.34 232.80,257.29 236.08,256.65 239.35,257.42 242.63,258.31 245.90,260.11 249.17,263.10 252.45,266.03 255.72,268.03 259.00,267.18 262.27,267.37 265.54,266.77 268.82,267.39 272.09,268.92 275.37,272.90 278.64,276.64 281.92,281.31 285.19,283.92 288.46,286.75 291.74,291.13 295.01,294.54 298.29,297.75 301.56,301.09 304.83,303.61 308.11,307.21 311.38,312.56 314.66,317.04 317.93,321.01 321.20,324.76 324.48,328.07 327.75,330.37 331.03,333.71 334.30,337.55 337.58,341.55 340.85,343.73 344.12,344.49 347.40,343.98 350.67,343.79 353.95,343.45 357.22,342.44 360.49,342.25 363.77,340.92 367.04,340.17 370.32,338.91 373.59,337.24 376.86,334.43 380.14,331.63 383.41,329.01 386.69,325.70 389.96,325.61 393.24,325.83 396.51,326.74 399.78,327.75 403.06,328.35 406.33,329.08 409.61,329.96 412.88,330.40 416.15,331.60 419.43,332.61 422.70,332.76 425.98,333.71 429.25,336.86 432.53,339.44 435.80,343.19 439.07,345.56 442.35,346.50 445.62,347.95 448.90,349.78 452.17,352.55 455.44,354.03 458.72,354.79 461.99,354.19 465.27,352.77 468.54,351.17 471.81,349.46 475.09,349.02 478.36,349.46 481.64,348.93 484.91,347.70 488.19,347.13 491.46,344.33 494.73,341.30 498.01,337.65 501.28,334.12 504.56,331.97 507.83,330.71 511.10,328.60 514.38,325.74 517.65,323.91 520.93,321.99 524.20,321.10 527.47,319.43 530.75,318.30 534.02,318.20 537.30,317.86 540.57,316.28 543.85,314.36 547.12,314.11 550.39,314.83 553.67,316.34 556.94,319.56 560.22,322.77 563.49,325.39 566.76,327.25 570.04,329.49 573.31,332.35 576.59,334.53 579.86,336.89 583.14,337.39 586.41,337.33 589.68,336.76 592.96,336.48 596.23,335.88 599.51,334.62 602.78,334.12 606.05,336.07 609.33,337.65 612.60,338.40 615.88,340.77 619.15,342.09 622.42,340.58 625.70,339.47 628.97,340.29 632.25,341.93 635.52,342.28 638.80,341.11 642.07,341.52 645.34,341.05 648.62,342.25 651.89,343.63 655.17,345.40 658.44,348.01 661.71,350.85 664.99,355.20 668.26,360.68 671.54,363.14 674.81,366.70 678.08,370.51 681.36,371.37 684.63,372.41 687.91,374.55 691.18,375.97 694.46,375.90 697.73,375.37 701.00,373.57 704.28,372.22 707.55,369.66 710.83,365.82 714.10,360.30 717.37,354.82 720.65,348.11 723.92,341.21 727.20,335.16 730.47,327.25 733.75,316.85 737.02,307.27 740.29,298.16 743.57,286.44 746.84,274.24 750.12,261.67 753.39,246.86 756.66,232.87 759.94,222.91 763.21,212.70 766.49,205.58 769.76,198.80 773.03,193.73 776.31,189.85 779.58,184.56 782.86,178.79 786.13,174.47 789.41,171.45 792.68,168.30 795.95,166.44 799.23,164.67 802.50,160.86 805.78,158.18 809.05,157.99 812.32,160.86 815.60,164.67 818.87,172.27 822.15,178.95 825.42,183.61 828.69,188.47 831.97,191.62 835.24,193.76 838.52,194.49 841.79,196.25 845.07,199.56 848.34,203.15 851.61,206.46 854.89,208.41 858.16,210.12 861.44,212.83 864.71,215.54 867.98,219.79 871.26,220.58 874.53,218.69 877.81,216.73 881.08,217.17 884.36,218.03 887.63,219.19 890.90,218.12 894.18,217.17 897.45,216.99 900.73,220.29 904.00,223.95" />
<text x="780.00" y="82.00" font-size="14" font-family="Arial" fill="#2ca02c" text-anchor="start">MA20</text>
<polyline fill="none" stroke="#ff7f0e" stroke-width="2" points="249.17,296.50 252.45,294.51 255.72,292.66 259.00,290.53 262.27,288.71 265.54,286.82 268.82,285.17 272.09,283.84 275.37,283.30 278.64,282.86 281.92,282.59 285.19,281.95 288.46,281.51 291.74,281.30 295.01,281.35 298.29,281.28 301.56,281.19 304.83,280.69 308.11,280.62 311.38,281.66 314.66,283.00 317.93,284.68 321.20,286.06 324.48,287.01 327.75,287.92 331.03,289.43 334.30,290.89 337.58,292.53 340.85,294.03 344.12,295.01 347.40,296.04 350.67,296.52 353.95,297.07 357.22,297.56 360.49,298.37 363.77,298.66 367.04,299.30 370.32,299.98 373.59,300.92 376.86,302.37 380.14,303.92 383.41,305.35 386.69,306.16 389.96,306.95 393.24,307.86 396.51,309.07 399.78,310.90 403.06,312.94 406.33,315.24 409.61,317.03 412.88,318.56 416.15,319.77 419.43,320.93 422.70,322.11 425.98,323.50 429.25,325.18 432.53,326.90 435.80,328.57 439.07,330.00 442.35,331.17 445.62,332.21 448.90,333.27 452.17,334.34 455.44,335.90 458.72,337.00 461.99,338.21 465.27,339.36 468.54,340.36 471.81,340.76 475.09,341.16 478.36,341.28 481.64,341.44 484.91,341.25 488.19,340.78 491.46,340.09 494.73,339.70 498.01,339.09 501.28,338.74 504.56,338.26 507.83,337.22 511.10,336.06 514.38,334.84 517.65,334.05 520.93,333.88 524.20,333.91 527.47,333.46 530.75,332.94 534.02,332.57 537.30,332.13 540.57,331.75 543.85,331.41 547.12,331.54 550.39,331.71 553.67,332.08 556.94,332.53 560.22,333.64 563.49,334.16 566.76,334.85 570.04,335.67 573.31,336.52 576.59,337.03 579.86,337.47 583.14,337.95 586.41,337.78 589.68,337.55 592.96,336.70 596.23,335.65 599.51,334.66 602.78,333.81 606.05,333.79 609.33,333.82 612.60,333.81 615.88,334.43 619.15,335.19 622.42,334.82 625.70,334.52 628.97,334.44 632.25,334.43 635.52,334.58 638.80,334.73 642.07,334.88 645.34,334.56 648.62,334.52 651.89,334.32 655.17,334.42 658.44,334.64 661.71,335.01 664.99,336.01 668.26,337.55 671.54,338.50 674.81,339.57 678.08,341.01 681.36,342.32 684.63,343.61 687.91,344.89 691.18,346.07 694.46,347.20 697.73,348.18 701.00,348.45 704.28,348.56 707.55,348.57 710.83,347.92 714.10,346.65 717.37,345.26 720.65,343.42 723.92,341.90 727.20,340.63 730.47,339.02 733.75,337.22 737.02,335.49 740.29,334.17 743.57,331.79 746.84,328.79 750.12,325.39 753.39,320.66 756.66,316.10 759.94,313.04 763.21,310.00 766.49,307.14 769.76,304.04 773.03,301.64 776.31,298.91 779.58,295.70 782.86,292.42 786.13,289.33 789.41,286.89 792.68,284.77 795.95,282.96 799.23,280.74 802.50,277.09 805.78,274.35 809.05,271.65 812.32,268.82 815.60,266.25 818.87,264.56 822.15,262.59 825.42,260.81 828.69,258.84 831.97,256.92 835.24,254.93 838.52,252.63 841.79,250.64 845.07,248.14 848.34,245.59 851.61,243.01 854.89,240.36 858.16,237.86 861.44,235.50 864.71,232.35 867.98,229.31 871.26,225.64 874.53,221.04 877.81,217.28 881.08,214.51 884.36,212.38 887.63,210.34 890.90,208.21 894.18,206.11 897.45,204.73 900.73,204.29 904.00,204.05" />
<text x="780.00" y="104.00" font-size="14" font-family="Arial" fill="#ff7f0e" text-anchor="start">MA60</text>
<polyline fill="none" stroke="#d62728" stroke-width="2" points="707.55,326.04 710.83,325.28 714.10,324.49 717.37,323.71 720.65,322.85 723.92,322.02 727.20,321.38 730.47,320.79 733.75,320.17 737.02,319.48 740.29,318.85 743.57,317.96 746.84,316.95 750.12,315.88 753.39,314.59 756.66,313.40 759.94,312.53 763.21,311.55 766.49,310.76 769.76,310.11 773.03,309.66 776.31,309.22 779.58,308.49 782.86,307.72 786.13,307.02 789.41,306.58 792.68,306.17 795.95,305.88 799.23,305.48 802.50,304.76 805.78,304.30 809.05,303.75 812.32,303.36 815.60,302.97 818.87,302.70 822.15,302.42 825.42,302.31 828.69,302.30 831.97,302.28 835.24,302.26 838.52,302.22 841.79,302.14 845.07,301.90 848.34,301.46 851.61,301.07 854.89,300.64 858.16,300.41 861.44,300.45 864.71,300.49 867.98,300.35 871.26,300.08 874.53,299.44 877.81,298.93 881.08,298.78 884.36,298.67 887.63,298.61 890.90,298.46 894.18,298.27 897.45,298.15 900.73,298.28 904.00,298.31" />
<text x="780.00" y="126.00" font-size="14" font-family="Arial" fill="#d62728" text-anchor="start">MA200</text>
</svg>