<svg xmlns="http://www.w3.org/2000/svg" width="960" height="520" viewBox="0 0 960 520"><rect width="100%" height="100%" fill="white" />
<text x="56.00" y="32.00" font-size="20" font-family="Arial" fill="#1f2933" text-anchor="start">日月光投控(3711) Price and Moving Averages</text>
<line x1="56" y1="464" x2="904" y2="464" stroke="#cbd2d9" />
<line x1="56" y1="56" x2="56" y2="464" stroke="#cbd2d9" />
<text x="16.00" y="38.00" font-size="12" font-family="Arial" fill="#52606d" text-anchor="start">Price</text>
<line x1="56" y1="464.00" x2="904" y2="464.00" stroke="#edf2f7" />
<line x1="52" y1="464.00" x2="56" y2="464.00" stroke="#9fb3c8" />
<text x="48.00" y="468.00" font-size="11" font-family="Arial" fill="#52606d" text-anchor="end">107</text>
<line x1="56" y1="362.00" x2="904" y2="362.00" stroke="#edf2f7" />
<line x1="52" y1="362.00" x2="56" y2="362.00" stroke="#9fb3c8" />
<text x="48.00" y="366.00" font-size="11" font-family="Arial" fill="#52606d" text-anchor="end">269</text>
<line x1="56" y1="260.00" x2="904" y2="260.00" stroke="#edf2f7" />
<line x1="52" y1="260.00" x2="56" y2="260.00" stroke="#9fb3c8" />
<text x="48.00" y="264.00" font-size="11" font-family="Arial" fill="#52606d" text-anchor="end">431</text>
<line x1="56" y1="158.00" x2="904" y2="158.00" stroke="#edf2f7" />
<line x1="52" y1="158.00" x2="56" y2="158.00" stroke="#9fb3c8" />
<text x="48.00" y="162.00" font-size="11" font-family="Arial" fill="#52606d" text-anchor="end">593</text>
<line x1="56" y1="56.00" x2="904" y2="56.00" stroke="#edf2f7" />
<line x1="52" y1="56.00" x2="56" y2="56.00" stroke="#9fb3c8" />
<text x="48.00" y="60.00" font-size="11" font-family="Arial" fill="#52606d" text-anchor="end">755</text>
<line x1="56.00" y1="464" x2="56.00" y2="468" stroke="#9fb3c8" />
<text x="56.00" y="482.00" font-size="11" font-family="Arial" fill="#52606d" text-anchor="middle">07/08</text>
<line x1="226.25" y1="464" x2="226.25" y2="468" stroke="#9fb3c8" />
<text x="226.25" y="482.00" font-size="11" font-family="Arial" fill="#52606d" text-anchor="middle">09/19</text>
<line x1="396.51" y1="464" x2="396.51" y2="468" stroke="#9fb3c8" />
<text x="396.51" y="482.00" font-size="11" font-family="Arial" fill="#52606d" text-anchor="middle">12/08</text>
<line x1="563.49" y1="464" x2="563.49" y2="468" stroke="#9fb3c8" />
<text x="563.49" y="482.00" font-size="11" font-family="Arial" fill="#52606d" text-anchor="middle">03/03</text>
<line x1="733.75" y1="464" x2="733.75" y2="468" stroke="#9fb3c8" />
<text x="733.75" y="482.00" font-size="11" font-family="Arial" fill="#52606d" text-anchor="middle">05/19</text>
<line x1="904.00" y1="464" x2="904.00" y2="468" stroke="#9fb3c8" />
<text x="904.00" y="482.00" font-size="11" font-family="Arial" fill="#52606d" text-anchor="middle">07/31</text>
<polyline fill="none" stroke="#1f77b4" stroke-width="2" points="56.00,442.14 59.27,439.96 62.55,437.78 65.82,437.78 69.10,438.71 72.37,437.46 75.64,437.15 78.92,436.84 82.19,435.28 85.47,436.22 88.74,437.15 92.02,435.59 95.29,434.35 98.56,435.59 101.84,434.97 105.11,435.59 108.39,436.53 111.66,436.22 114.93,439.34 118.21,439.96 121.48,440.90 124.76,439.02 128.03,438.40 131.31,437.15 134.58,439.02 137.85,438.71 141.13,439.02 144.40,439.02 147.68,437.46 150.95,438.71 154.22,440.90 157.50,441.52 160.77,441.83 164.05,438.71 167.32,438.40 170.59,437.46 173.87,439.34 177.14,437.15 180.42,434.03 183.69,433.41 186.97,433.41 190.24,435.28 193.51,434.03 196.79,424.37 200.06,427.17 203.34,425.92 206.61,427.48 209.88,427.17 213.16,427.48 216.43,425.61 219.71,425.92 222.98,425.30 226.25,425.30 229.53,423.74 232.80,422.49 236.08,424.05 239.35,424.05 242.63,428.11 245.90,429.04 249.17,429.67 252.45,428.73 255.72,428.11 259.00,423.12 262.27,422.49 265.54,419.69 268.82,423.43 272.09,425.61 275.37,420.31 278.64,411.89 281.92,409.08 285.19,406.59 288.46,409.71 291.74,410.95 295.01,409.08 298.29,405.03 301.56,404.72 304.83,393.49 308.11,390.99 311.38,376.96 314.66,377.89 317.93,382.26 321.20,384.76 324.48,385.38 327.75,388.81 331.03,388.81 334.30,389.12 337.58,389.75 340.85,386.94 344.12,392.55 347.40,394.11 350.67,397.23 353.95,400.66 357.22,392.55 360.49,400.97 363.77,400.04 367.04,399.10 370.32,395.67 373.59,387.56 376.86,388.19 380.14,391.31 383.41,388.81 386.69,388.50 389.96,389.12 393.24,387.25 396.51,383.20 399.78,381.64 403.06,378.83 406.33,378.83 409.61,379.45 412.88,385.38 416.15,388.50 419.43,388.81 422.70,392.86 425.98,388.19 429.25,386.63 432.53,385.07 435.80,385.07 439.07,381.32 442.35,374.77 445.62,376.02 448.90,375.09 452.17,370.41 455.44,366.98 458.72,361.99 461.99,359.80 465.27,360.74 468.54,361.68 471.81,354.81 475.09,350.76 478.36,347.64 481.64,345.15 484.91,342.03 488.19,344.83 491.46,346.70 494.73,349.82 498.01,345.46 501.28,339.53 504.56,336.72 507.83,340.16 511.10,335.48 514.38,337.97 517.65,346.08 520.93,349.20 524.20,342.96 527.47,342.65 530.75,354.19 534.02,341.40 537.30,327.37 540.57,316.76 543.85,310.21 547.12,313.64 550.39,293.37 553.67,288.69 556.94,289.63 560.22,300.23 563.49,307.10 566.76,327.06 570.04,310.84 573.31,318.01 576.59,331.73 579.86,322.07 583.14,315.83 586.41,322.38 589.68,318.32 592.96,320.82 596.23,318.01 599.51,308.34 602.78,314.89 606.05,316.76 609.33,325.81 612.60,323.94 615.88,311.77 619.15,307.41 622.42,310.84 625.70,310.84 628.97,326.43 632.25,306.16 635.52,306.16 638.80,311.77 642.07,292.44 645.34,286.82 648.62,286.20 651.89,270.92 655.17,266.86 658.44,252.83 661.71,250.33 664.99,255.63 668.26,243.47 671.54,236.92 674.81,241.29 678.08,241.60 681.36,221.95 684.63,222.26 687.91,222.26 691.18,226.63 694.46,233.18 697.73,203.86 701.00,206.98 704.28,204.48 707.55,194.50 710.83,209.47 714.10,196.37 717.37,185.15 720.65,189.51 723.92,189.51 727.20,190.14 730.47,213.22 733.75,236.92 737.02,234.43 740.29,213.22 743.57,181.40 746.84,146.47 750.12,150.22 753.39,130.88 756.66,140.23 759.94,150.22 763.21,156.45 766.49,163.31 769.76,145.85 773.03,161.44 776.31,171.42 779.58,194.50 782.86,176.41 786.13,195.13 789.41,192.01 792.68,163.31 795.95,163.31 799.23,162.07 802.50,160.20 805.78,148.97 809.05,110.92 812.32,118.40 815.60,124.02 818.87,131.50 822.15,137.12 825.42,140.23 828.69,107.17 831.97,92.83 835.24,77.86 838.52,102.04 841.79,103.93 845.07,121.55 848.34,137.92 851.61,105.19 854.89,105.19 858.16,109.59 861.44,127.85 864.71,101.41 867.98,102.04 871.26,144.84 874.53,155.54 877.81,132.88 881.08,118.41 884.36,122.81 887.63,145.47 890.90,148.62 894.18,182.61 897.45,217.23 900.73,213.46 904.00,181.98" />
<text x="780.00" y="60.00" font-size="14" font-family="Arial" fill="#1f77b4" text-anchor="start">Close</text>
<polyline fill="none" stroke="#2ca02c" stroke-width="2" points="118.21,437.23 121.48,437.17 124.76,437.12 128.03,437.15 131.31,437.12 134.58,437.14 137.85,437.20 141.13,437.29 144.40,437.40 147.68,437.51 150.95,437.64 154.22,437.82 157.50,438.12 160.77,438.49 164.05,438.65 167.32,438.82 170.59,438.91 173.87,439.06 177.14,439.10 180.42,438.84 183.69,438.51 186.97,438.14 190.24,437.95 193.51,437.73 196.79,437.09 200.06,436.50 203.34,435.86 206.61,435.28 209.88,434.69 213.16,434.19 216.43,433.53 219.71,432.79 222.98,431.98 226.25,431.15 229.53,430.40 232.80,429.60 236.08,428.93 239.35,428.17 242.63,427.72 245.90,427.47 249.17,427.28 252.45,427.05 255.72,426.69 259.00,426.14 262.27,426.05 265.54,425.68 268.82,425.55 272.09,425.46 275.37,425.11 278.64,424.33 281.92,423.51 285.19,422.54 288.46,421.76 291.74,421.04 295.01,420.31 298.29,419.44 301.56,418.47 304.83,416.94 308.11,415.09 311.38,412.48 314.66,409.89 317.93,407.57 321.20,405.40 324.48,403.52 327.75,401.83 331.03,400.29 334.30,398.57 337.58,396.78 340.85,395.11 344.12,394.14 347.40,393.39 350.67,392.93 353.95,392.47 357.22,391.55 360.49,391.15 363.77,390.90 367.04,390.62 370.32,390.73 373.59,390.56 376.86,391.12 380.14,391.79 383.41,392.12 386.69,392.30 389.96,392.49 393.24,392.41 396.51,392.13 399.78,391.76 403.06,391.21 406.33,390.81 409.61,390.15 412.88,389.71 416.15,389.28 419.43,388.69 422.70,388.70 425.98,388.06 429.25,387.39 432.53,386.69 435.80,386.16 439.07,385.85 442.35,385.18 445.62,384.41 448.90,383.73 452.17,382.82 455.44,381.71 458.72,380.45 461.99,379.28 465.27,378.24 468.54,377.38 471.81,376.18 475.09,374.74 478.36,372.86 481.64,370.69 484.91,368.35 488.19,365.95 491.46,363.87 494.73,362.03 498.01,360.05 501.28,357.78 504.56,355.55 507.83,353.82 511.10,351.79 514.38,349.93 517.65,348.72 520.93,347.83 524.20,346.88 527.47,346.02 530.75,345.69 534.02,344.68 537.30,343.31 540.57,341.61 543.85,339.73 547.12,338.16 550.39,335.73 553.67,332.92 556.94,330.07 560.22,327.59 563.49,325.67 566.76,325.04 570.04,323.75 573.31,322.64 576.59,322.46 579.86,321.66 583.14,320.15 586.41,318.81 589.68,317.57 592.96,316.48 596.23,314.67 599.51,313.02 602.78,312.40 606.05,312.40 609.33,313.18 612.60,313.69 615.88,314.61 619.15,315.55 622.42,316.61 625.70,317.14 628.97,318.10 632.25,317.06 635.52,316.83 638.80,316.51 642.07,314.55 645.34,312.79 648.62,311.31 651.89,308.73 655.17,306.16 658.44,302.76 661.71,299.38 664.99,296.74 668.26,293.17 671.54,289.18 674.81,284.95 678.08,280.83 681.36,276.34 684.63,272.09 687.91,267.66 691.18,263.45 694.46,258.78 697.73,253.67 701.00,248.71 704.28,243.35 707.55,238.45 710.83,234.58 714.10,230.09 717.37,225.80 720.65,221.93 723.92,218.77 727.20,215.76 730.47,213.64 733.75,213.31 737.02,213.19 740.29,211.78 743.57,208.77 746.84,205.00 750.12,201.40 753.39,196.83 756.66,192.51 759.94,188.36 763.21,185.99 766.49,183.81 769.76,180.87 773.03,179.22 776.31,177.32 779.58,177.22 782.86,176.79 786.13,177.07 789.41,177.19 792.68,175.85 795.95,173.36 799.23,169.61 802.50,165.90 805.78,162.69 809.05,159.17 812.32,157.76 815.60,156.45 818.87,156.48 822.15,156.33 825.42,155.83 828.69,153.37 831.97,149.84 835.24,146.44 838.52,143.47 841.79,140.10 845.07,136.45 848.34,134.52 851.61,130.03 854.89,125.69 858.16,123.00 861.44,121.23 864.71,118.19 867.98,115.29 871.26,115.08 874.53,117.31 877.81,118.03 881.08,117.75 884.36,117.32 887.63,117.74 890.90,118.16 894.18,121.93 897.45,128.15 900.73,134.93 904.00,138.93" />
<text x="780.00" y="82.00" font-size="14" font-family="Arial" fill="#2ca02c" text-anchor="start">MA20</text>
<polyline fill="none" stroke="#ff7f0e" stroke-width="2" points="249.17,434.34 252.45,434.12 255.72,433.92 259.00,433.68 262.27,433.42 265.54,433.10 268.82,432.87 272.09,432.68 275.37,432.40 278.64,432.01 281.92,431.56 285.19,431.05 288.46,430.62 291.74,430.23 295.01,429.79 298.29,429.29 301.56,428.77 304.83,428.06 308.11,427.30 311.38,426.26 314.66,425.23 317.93,424.25 321.20,423.35 324.48,422.46 327.75,421.66 331.03,420.82 334.30,419.99 337.58,419.17 340.85,418.30 344.12,417.56 347.40,416.81 350.67,416.08 353.95,415.40 357.22,414.58 360.49,413.95 363.77,413.31 367.04,412.67 370.32,411.95 373.59,411.12 376.86,410.36 380.14,409.65 383.41,408.91 386.69,408.13 389.96,407.38 393.24,406.76 396.51,406.03 399.78,405.29 403.06,404.48 406.33,403.68 409.61,402.88 412.88,402.21 416.15,401.58 419.43,400.97 422.70,400.43 425.98,399.84 429.25,399.24 432.53,398.59 435.80,397.94 439.07,397.16 442.35,396.26 445.62,395.36 448.90,394.47 452.17,393.51 455.44,392.57 458.72,391.56 461.99,390.57 465.27,389.52 468.54,388.46 471.81,387.36 475.09,386.35 478.36,385.32 481.64,384.30 484.91,383.17 488.19,382.07 491.46,381.03 494.73,380.11 498.01,379.12 501.28,378.22 504.56,377.32 507.83,376.70 511.10,376.00 514.38,375.26 517.65,374.61 520.93,374.01 524.20,373.25 527.47,372.48 530.75,371.90 534.02,371.09 537.30,370.10 540.57,368.83 543.85,367.44 547.12,366.04 550.39,364.25 553.67,362.52 556.94,360.67 560.22,359.00 563.49,357.47 566.76,356.33 570.04,355.05 573.31,353.88 576.59,352.89 579.86,351.77 583.14,350.56 586.41,349.45 589.68,348.30 592.96,347.26 596.23,346.20 599.51,345.03 602.78,343.96 606.05,342.92 609.33,341.92 612.60,340.85 615.88,339.56 619.15,338.14 622.42,336.85 625.70,335.59 628.97,334.61 632.25,333.29 635.52,332.04 638.80,330.99 642.07,329.60 645.34,328.13 648.62,326.72 651.89,325.12 655.17,323.54 658.44,321.75 661.71,319.91 664.99,318.15 668.26,316.29 671.54,314.39 674.81,312.62 678.08,310.89 681.36,308.89 684.63,306.85 687.91,304.78 691.18,302.72 694.46,300.85 697.73,298.59 701.00,296.43 704.28,294.17 707.55,291.82 710.83,289.68 714.10,287.18 717.37,284.45 720.65,281.89 723.92,279.34 727.20,276.60 730.47,274.47 733.75,272.96 737.02,271.59 740.29,269.97 743.57,267.77 746.84,265.32 750.12,263.01 753.39,260.36 756.66,257.70 759.94,255.08 763.21,252.24 766.49,249.78 769.76,246.91 773.03,244.07 776.31,241.56 779.58,239.54 782.86,237.11 786.13,235.05 789.41,232.91 792.68,230.33 795.95,227.91 799.23,225.36 802.50,222.76 805.78,219.81 809.05,216.26 812.32,213.03 815.60,209.98 818.87,206.99 822.15,204.09 825.42,200.99 828.69,197.67 831.97,194.12 835.24,190.22 838.52,187.05 841.79,184.00 845.07,181.25 848.34,179.04 851.61,176.34 854.89,173.88 858.16,171.54 861.44,169.41 864.71,167.04 867.98,164.79 871.26,163.18 874.53,161.75 877.81,160.27 881.08,158.53 884.36,156.88 887.63,155.52 890.90,154.12 894.18,153.76 897.45,153.93 900.73,154.08 904.00,153.87" />
<text x="780.00" y="104.00" font-size="14" font-family="Arial" fill="#ff7f0e" text-anchor="start">MA60</text>
<polyline fill="none" stroke="#d62728" stroke-width="2" points="707.55,371.64 710.83,370.47 714.10,369.25 717.37,367.99 720.65,366.75 723.92,365.50 727.20,364.27 730.47,363.15 733.75,362.15 737.02,361.14 740.29,360.03 743.57,358.75 746.84,357.30 750.12,355.88 753.39,354.36 756.66,352.89 759.94,351.46 763.21,350.06 766.49,348.69 769.76,347.23 773.03,345.83 776.31,344.49 779.58,343.26 782.86,341.95 786.13,340.74 789.41,339.51 792.68,338.13 795.95,336.75 799.23,335.37 802.50,333.98 805.78,332.53 809.05,330.88 812.32,329.27 815.60,327.68 818.87,326.14 822.15,324.64 825.42,323.15 828.69,321.49 831.97,319.77 835.24,317.99 838.52,316.33 841.79,314.68 845.07,313.11 848.34,311.63 851.61,310.04 854.89,308.43 858.16,306.85 861.44,305.35 864.71,303.72 867.98,302.09 871.26,300.69 874.53,299.34 877.81,297.87 881.08,296.34 884.36,294.84 887.63,293.45 890.90,292.07 894.18,290.87 897.45,289.81 900.73,288.73 904.00,287.50" />
<text x="780.00" y="126.00" font-size="14" font-family="Arial" fill="#d62728" text-anchor="start">MA200</text>
</svg>