<svg xmlns="http://www.w3.org/2000/svg" width="960" height="520" viewBox="0 0 960 520"><rect width="100%" height="100%" fill="white" />
<text x="56.00" y="32.00" font-size="20" font-family="Arial" fill="#1f2933" text-anchor="start">日月光投控(3711) Price and Moving Averages</text>
<line x1="56" y1="464" x2="904" y2="464" stroke="#cbd2d9" />
<line x1="56" y1="56" x2="56" y2="464" stroke="#cbd2d9" />
<text x="16.00" y="38.00" font-size="12" font-family="Arial" fill="#52606d" text-anchor="start">Price</text>
<line x1="56" y1="464.00" x2="904" y2="464.00" stroke="#edf2f7" />
<line x1="52" y1="464.00" x2="56" y2="464.00" stroke="#9fb3c8" />
<text x="48.00" y="468.00" font-size="11" font-family="Arial" fill="#52606d" text-anchor="end">104</text>
<line x1="56" y1="362.00" x2="904" y2="362.00" stroke="#edf2f7" />
<line x1="52" y1="362.00" x2="56" y2="362.00" stroke="#9fb3c8" />
<text x="48.00" y="366.00" font-size="11" font-family="Arial" fill="#52606d" text-anchor="end">267</text>
<line x1="56" y1="260.00" x2="904" y2="260.00" stroke="#edf2f7" />
<line x1="52" y1="260.00" x2="56" y2="260.00" stroke="#9fb3c8" />
<text x="48.00" y="264.00" font-size="11" font-family="Arial" fill="#52606d" text-anchor="end">430</text>
<line x1="56" y1="158.00" x2="904" y2="158.00" stroke="#edf2f7" />
<line x1="52" y1="158.00" x2="56" y2="158.00" stroke="#9fb3c8" />
<text x="48.00" y="162.00" font-size="11" font-family="Arial" fill="#52606d" text-anchor="end">592</text>
<line x1="56" y1="56.00" x2="904" y2="56.00" stroke="#edf2f7" />
<line x1="52" y1="56.00" x2="56" y2="56.00" stroke="#9fb3c8" />
<text x="48.00" y="60.00" font-size="11" font-family="Arial" fill="#52606d" text-anchor="end">755</text>
<line x1="56.00" y1="464" x2="56.00" y2="468" stroke="#9fb3c8" />
<text x="56.00" y="482.00" font-size="11" font-family="Arial" fill="#52606d" text-anchor="middle">07/01</text>
<line x1="226.25" y1="464" x2="226.25" y2="468" stroke="#9fb3c8" />
<text x="226.25" y="482.00" font-size="11" font-family="Arial" fill="#52606d" text-anchor="middle">09/12</text>
<line x1="396.51" y1="464" x2="396.51" y2="468" stroke="#9fb3c8" />
<text x="396.51" y="482.00" font-size="11" font-family="Arial" fill="#52606d" text-anchor="middle">12/01</text>
<line x1="563.49" y1="464" x2="563.49" y2="468" stroke="#9fb3c8" />
<text x="563.49" y="482.00" font-size="11" font-family="Arial" fill="#52606d" text-anchor="middle">02/23</text>
<line x1="733.75" y1="464" x2="733.75" y2="468" stroke="#9fb3c8" />
<text x="733.75" y="482.00" font-size="11" font-family="Arial" fill="#52606d" text-anchor="middle">05/12</text>
<line x1="904.00" y1="464" x2="904.00" y2="468" stroke="#9fb3c8" />
<text x="904.00" y="482.00" font-size="11" font-family="Arial" fill="#52606d" text-anchor="middle">07/24</text>
<polyline fill="none" stroke="#1f77b4" stroke-width="2" points="56.00,442.14 59.27,441.34 62.55,439.79 65.82,437.92 69.10,439.79 72.37,440.41 75.64,438.23 78.92,436.06 82.19,436.06 85.47,436.99 88.74,435.75 92.02,435.44 95.29,435.13 98.56,433.58 101.84,434.51 105.11,435.44 108.39,433.89 111.66,432.65 114.93,433.89 118.21,433.27 121.48,433.89 124.76,434.82 128.03,434.51 131.31,437.61 134.58,438.23 137.85,439.17 141.13,437.30 144.40,436.68 147.68,435.44 150.95,437.30 154.22,436.99 157.50,437.30 160.77,437.30 164.05,435.75 167.32,436.99 170.59,439.17 173.87,439.79 177.14,440.10 180.42,436.99 183.69,436.68 186.97,435.75 190.24,437.61 193.51,435.44 196.79,432.34 200.06,431.72 203.34,431.72 206.61,433.58 209.88,432.34 213.16,422.71 216.43,425.51 219.71,424.27 222.98,425.82 226.25,425.51 229.53,425.82 232.80,423.96 236.08,424.27 239.35,423.65 242.63,423.65 245.90,422.09 249.17,420.85 252.45,422.40 255.72,422.40 259.00,426.44 262.27,427.37 265.54,427.99 268.82,427.06 272.09,426.44 275.37,421.47 278.64,420.85 281.92,418.06 285.19,421.78 288.46,423.96 291.74,418.68 295.01,410.30 298.29,407.50 301.56,405.02 304.83,408.13 308.11,409.37 311.38,407.50 314.66,403.47 317.93,403.16 321.20,391.98 324.48,389.50 327.75,375.53 331.03,376.46 334.30,380.81 337.58,383.29 340.85,383.91 344.12,387.33 347.40,387.33 350.67,387.64 353.95,388.26 357.22,385.47 360.49,391.05 363.77,392.61 367.04,395.71 370.32,399.12 373.59,391.05 376.86,399.43 380.14,398.50 383.41,397.57 386.69,394.16 389.96,386.09 393.24,386.71 396.51,389.81 399.78,387.33 403.06,387.02 406.33,387.64 409.61,385.78 412.88,381.74 416.15,380.19 419.43,377.40 422.70,377.40 425.98,378.02 429.25,383.91 432.53,387.02 435.80,387.33 439.07,391.36 442.35,386.71 445.62,385.16 448.90,383.60 452.17,383.60 455.44,379.88 458.72,373.36 461.99,374.60 465.27,373.67 468.54,369.01 471.81,365.60 475.09,360.63 478.36,358.46 481.64,359.39 484.91,360.32 488.19,353.49 491.46,349.46 494.73,346.36 498.01,343.87 501.28,340.77 504.56,343.56 507.83,345.42 511.10,348.53 514.38,344.18 517.65,338.28 520.93,335.49 524.20,338.91 527.47,334.25 530.75,336.73 534.02,344.80 537.30,347.91 540.57,341.70 543.85,341.39 547.12,352.87 550.39,340.15 553.67,326.18 556.94,315.63 560.22,309.11 563.49,312.52 566.76,292.35 570.04,287.69 573.31,288.62 576.59,299.17 579.86,306.00 583.14,325.87 586.41,309.73 589.68,316.87 592.96,330.52 596.23,320.90 599.51,314.69 602.78,321.21 606.05,317.18 609.33,319.66 612.60,316.87 615.88,307.24 619.15,313.76 622.42,315.63 625.70,324.63 628.97,322.76 632.25,310.66 635.52,306.31 638.80,309.73 642.07,309.73 645.34,325.25 648.62,305.07 651.89,305.07 655.17,310.66 658.44,291.41 661.71,285.83 664.99,285.21 668.26,270.00 671.54,265.96 674.81,251.99 678.08,249.51 681.36,254.79 684.63,242.68 687.91,236.16 691.18,240.51 694.46,240.82 697.73,221.26 701.00,221.57 704.28,221.57 707.55,225.92 710.83,232.44 714.10,203.26 717.37,206.36 720.65,203.88 723.92,193.95 727.20,208.85 730.47,195.81 733.75,184.64 737.02,188.98 740.29,188.98 743.57,189.60 746.84,212.57 750.12,236.16 753.39,233.68 756.66,212.57 759.94,180.91 763.21,146.15 766.49,149.87 769.76,130.63 773.03,139.94 776.31,149.87 779.58,156.08 782.86,162.91 786.13,145.52 789.41,161.04 792.68,170.98 795.95,193.95 799.23,175.94 802.50,194.57 805.78,191.46 809.05,162.91 812.32,162.91 815.60,161.67 818.87,159.80 822.15,148.63 825.42,110.76 828.69,118.21 831.97,123.80 835.24,131.25 838.52,136.83 841.79,139.94 845.07,107.03 848.34,92.76 851.61,77.86 854.89,101.92 858.16,103.80 861.44,121.34 864.71,137.63 867.98,105.06 871.26,105.06 874.53,109.44 877.81,127.61 881.08,101.30 884.36,101.92 887.63,144.52 890.90,155.17 894.18,132.62 897.45,118.21 900.73,122.60 904.00,145.15" />
<text x="780.00" y="60.00" font-size="14" font-family="Arial" fill="#1f77b4" text-anchor="start">Close</text>
<polyline fill="none" stroke="#2ca02c" stroke-width="2" points="118.21,436.61 121.48,436.20 124.76,435.88 128.03,435.61 131.31,435.60 134.58,435.52 137.85,435.46 141.13,435.41 144.40,435.44 147.68,435.41 150.95,435.43 154.22,435.49 157.50,435.58 160.77,435.69 164.05,435.80 167.32,435.92 170.59,436.11 173.87,436.40 177.14,436.78 180.42,436.93 183.69,437.10 186.97,437.19 190.24,437.33 193.51,437.38 196.79,437.12 200.06,436.79 203.34,436.42 206.61,436.23 209.88,436.01 213.16,435.38 216.43,434.79 219.71,434.15 222.98,433.58 226.25,432.99 229.53,432.49 232.80,431.84 236.08,431.09 239.35,430.29 242.63,429.47 245.90,428.72 249.17,427.93 252.45,427.26 255.72,426.50 259.00,426.05 262.27,425.80 265.54,425.62 268.82,425.38 272.09,425.03 275.37,424.48 278.64,424.39 281.92,424.02 285.19,423.89 288.46,423.80 291.74,423.46 295.01,422.68 298.29,421.86 301.56,420.90 304.83,420.12 308.11,419.41 311.38,418.68 314.66,417.81 317.93,416.85 321.20,415.33 324.48,413.48 327.75,410.89 331.03,408.31 334.30,406.00 337.58,403.84 340.85,401.96 344.12,400.29 347.40,398.75 350.67,397.04 353.95,395.26 357.22,393.60 360.49,392.64 363.77,391.89 367.04,391.43 370.32,390.98 373.59,390.06 376.86,389.66 380.14,389.41 383.41,389.13 386.69,389.24 389.96,389.07 393.24,389.63 396.51,390.29 399.78,390.62 403.06,390.80 406.33,390.99 409.61,390.91 412.88,390.63 416.15,390.26 419.43,389.72 422.70,389.31 425.98,388.66 429.25,388.23 432.53,387.79 435.80,387.20 439.07,387.22 442.35,386.58 445.62,385.92 448.90,385.22 452.17,384.69 455.44,384.38 458.72,383.71 461.99,382.95 465.27,382.27 468.54,381.37 471.81,380.27 475.09,379.01 478.36,377.85 481.64,376.81 484.91,375.95 488.19,374.76 491.46,373.33 494.73,371.45 498.01,369.29 501.28,366.97 504.56,364.58 507.83,362.51 511.10,360.68 514.38,358.71 517.65,356.44 520.93,354.22 524.20,352.50 527.47,350.48 530.75,348.64 534.02,347.43 537.30,346.54 540.57,345.59 543.85,344.74 547.12,344.42 550.39,343.41 553.67,342.04 556.94,340.35 560.22,338.49 563.49,336.92 566.76,334.50 570.04,331.70 573.31,328.86 576.59,326.40 579.86,324.49 583.14,323.87 586.41,322.58 589.68,321.48 592.96,321.29 596.23,320.50 599.51,318.99 602.78,317.66 606.05,316.43 609.33,315.35 612.60,313.55 615.88,311.90 619.15,311.28 622.42,311.28 625.70,312.06 628.97,312.57 632.25,313.48 635.52,314.41 638.80,315.47 642.07,316.00 645.34,316.96 648.62,315.92 651.89,315.69 655.17,315.38 658.44,313.42 661.71,311.67 664.99,310.19 668.26,307.63 671.54,305.07 674.81,301.69 678.08,298.32 681.36,295.70 684.63,292.14 687.91,288.17 691.18,283.96 694.46,279.87 697.73,275.40 701.00,271.16 704.28,266.75 707.55,262.56 710.83,257.92 714.10,252.83 717.37,247.90 720.65,242.56 723.92,237.68 727.20,233.83 730.47,229.36 733.75,225.10 737.02,221.25 740.29,218.10 743.57,215.10 746.84,212.99 750.12,212.66 753.39,212.54 756.66,211.14 759.94,208.15 763.21,204.39 766.49,200.81 769.76,196.26 773.03,191.96 776.31,187.83 779.58,185.47 782.86,183.30 786.13,180.38 789.41,178.74 792.68,176.84 795.95,176.75 799.23,176.32 802.50,176.60 805.78,176.72 809.05,175.39 812.32,172.90 815.60,169.18 818.87,165.48 822.15,162.29 825.42,158.78 828.69,157.38 831.97,156.08 835.24,156.11 838.52,155.95 841.79,155.46 845.07,153.01 848.34,149.50 851.61,146.11 854.89,143.16 858.16,139.80 861.44,136.17 864.71,134.25 867.98,129.78 871.26,125.46 874.53,122.78 877.81,121.02 881.08,118.00 884.36,115.11 887.63,114.90 890.90,117.12 894.18,117.84 897.45,117.56 900.73,117.13 904.00,117.55" />
<text x="780.00" y="82.00" font-size="14" font-family="Arial" fill="#2ca02c" text-anchor="start">MA20</text>
<polyline fill="none" stroke="#ff7f0e" stroke-width="2" points="249.17,433.88 252.45,433.55 255.72,433.24 259.00,433.01 262.27,432.84 265.54,432.64 268.82,432.42 272.09,432.22 275.37,431.98 278.64,431.73 281.92,431.41 285.19,431.18 288.46,430.99 291.74,430.71 295.01,430.32 298.29,429.87 301.56,429.37 304.83,428.94 308.11,428.55 311.38,428.11 314.66,427.61 317.93,427.10 321.20,426.39 324.48,425.64 327.75,424.60 331.03,423.57 334.30,422.60 337.58,421.70 340.85,420.82 344.12,420.02 347.40,419.19 350.67,418.36 353.95,417.55 357.22,416.68 360.49,415.94 363.77,415.20 367.04,414.47 370.32,413.80 373.59,412.98 376.86,412.35 380.14,411.72 383.41,411.08 386.69,410.35 389.96,409.53 393.24,408.77 396.51,408.07 399.78,407.33 403.06,406.56 406.33,405.81 409.61,405.20 412.88,404.47 416.15,403.73 419.43,402.93 422.70,402.12 425.98,401.33 429.25,400.66 432.53,400.04 435.80,399.43 439.07,398.90 442.35,398.31 445.62,397.71 448.90,397.06 452.17,396.42 455.44,395.64 458.72,394.74 461.99,393.85 465.27,392.96 468.54,392.00 471.81,391.07 475.09,390.07 478.36,389.08 481.64,388.04 484.91,386.98 488.19,385.89 491.46,384.88 494.73,383.86 498.01,382.84 501.28,381.72 504.56,380.62 507.83,379.58 511.10,378.67 514.38,377.69 517.65,376.79 520.93,375.89 524.20,375.28 527.47,374.58 530.75,373.84 534.02,373.20 537.30,372.60 540.57,371.84 543.85,371.07 547.12,370.49 550.39,369.69 553.67,368.70 556.94,367.45 560.22,366.06 563.49,364.67 566.76,362.89 570.04,361.17 573.31,359.32 576.59,357.66 579.86,356.14 583.14,355.00 586.41,353.73 589.68,352.56 592.96,351.58 596.23,350.47 599.51,349.26 602.78,348.16 606.05,347.01 609.33,345.98 612.60,344.92 615.88,343.75 619.15,342.69 622.42,341.65 625.70,340.66 628.97,339.59 632.25,338.32 635.52,336.90 638.80,335.62 642.07,334.36 645.34,333.39 648.62,332.08 651.89,330.83 655.17,329.78 658.44,328.40 661.71,326.93 664.99,325.54 668.26,323.94 671.54,322.37 674.81,320.59 678.08,318.76 681.36,317.00 684.63,315.15 687.91,313.27 691.18,311.50 694.46,309.78 697.73,307.79 701.00,305.76 704.28,303.70 707.55,301.65 710.83,299.79 714.10,297.54 717.37,295.39 720.65,293.14 723.92,290.80 727.20,288.67 730.47,286.18 733.75,283.46 737.02,280.92 740.29,278.38 743.57,275.66 746.84,273.53 750.12,272.03 753.39,270.66 756.66,269.05 759.94,266.86 763.21,264.42 766.49,262.13 769.76,259.49 773.03,256.84 776.31,254.24 779.58,251.41 782.86,248.96 786.13,246.11 789.41,243.28 792.68,240.78 795.95,238.77 799.23,236.35 802.50,234.31 805.78,232.17 809.05,229.60 812.32,227.20 815.60,224.66 818.87,222.06 822.15,219.13 825.42,215.60 828.69,212.39 831.97,209.35 835.24,206.37 838.52,203.49 841.79,200.40 845.07,197.10 848.34,193.56 851.61,189.68 854.89,186.53 858.16,183.49 861.44,180.76 864.71,178.56 867.98,175.87 871.26,173.43 874.53,171.09 877.81,168.97 881.08,166.61 884.36,164.38 887.63,162.78 890.90,161.35 894.18,159.87 897.45,158.15 900.73,156.50 904.00,155.15" />
<text x="780.00" y="104.00" font-size="14" font-family="Arial" fill="#ff7f0e" text-anchor="start">MA60</text>
<polyline fill="none" stroke="#d62728" stroke-width="2" points="707.55,376.04 710.83,374.99 714.10,373.80 717.37,372.64 720.65,371.47 723.92,370.24 727.20,369.08 730.47,367.87 733.75,366.61 737.02,365.37 740.29,364.13 743.57,362.90 746.84,361.79 750.12,360.79 753.39,359.79 756.66,358.68 759.94,357.41 763.21,355.97 766.49,354.56 769.76,353.04 773.03,351.58 776.31,350.16 779.58,348.76 782.86,347.40 786.13,345.94 789.41,344.56 792.68,343.22 795.95,342.00 799.23,340.70 802.50,339.49 805.78,338.26 809.05,336.89 812.32,335.52 815.60,334.14 818.87,332.76 822.15,331.32 825.42,329.68 828.69,328.07 831.97,326.49 835.24,324.96 838.52,323.46 841.79,321.98 845.07,320.33 848.34,318.62 851.61,316.84 854.89,315.19 858.16,313.56 861.44,311.99 864.71,310.52 867.98,308.93 871.26,307.33 874.53,305.76 877.81,304.26 881.08,302.64 884.36,301.02 887.63,299.63 890.90,298.28 894.18,296.83 897.45,295.30 900.73,293.80 904.00,292.42" />
<text x="780.00" y="126.00" font-size="14" font-family="Arial" fill="#d62728" text-anchor="start">MA200</text>
</svg>