<svg xmlns="http://www.w3.org/2000/svg" width="960" height="520" viewBox="0 0 960 520"><rect width="100%" height="100%" fill="white" />
<text x="56.00" y="32.00" font-size="20" font-family="Arial" fill="#1f2933" text-anchor="start">南電(8046) Price and Moving Averages</text>
<line x1="56" y1="464" x2="904" y2="464" stroke="#cbd2d9" />
<line x1="56" y1="56" x2="56" y2="464" stroke="#cbd2d9" />
<text x="16.00" y="38.00" font-size="12" font-family="Arial" fill="#52606d" text-anchor="start">Price</text>
<line x1="56" y1="464.00" x2="904" y2="464.00" stroke="#edf2f7" />
<line x1="52" y1="464.00" x2="56" y2="464.00" stroke="#9fb3c8" />
<text x="48.00" y="468.00" font-size="11" font-family="Arial" fill="#52606d" text-anchor="end">39.0</text>
<line x1="56" y1="362.00" x2="904" y2="362.00" stroke="#edf2f7" />
<line x1="52" y1="362.00" x2="56" y2="362.00" stroke="#9fb3c8" />
<text x="48.00" y="366.00" font-size="11" font-family="Arial" fill="#52606d" text-anchor="end">342</text>
<line x1="56" y1="260.00" x2="904" y2="260.00" stroke="#edf2f7" />
<line x1="52" y1="260.00" x2="56" y2="260.00" stroke="#9fb3c8" />
<text x="48.00" y="264.00" font-size="11" font-family="Arial" fill="#52606d" text-anchor="end">644</text>
<line x1="56" y1="158.00" x2="904" y2="158.00" stroke="#edf2f7" />
<line x1="52" y1="158.00" x2="56" y2="158.00" stroke="#9fb3c8" />
<text x="48.00" y="162.00" font-size="11" font-family="Arial" fill="#52606d" text-anchor="end">947</text>
<line x1="56" y1="56.00" x2="904" y2="56.00" stroke="#edf2f7" />
<line x1="52" y1="56.00" x2="56" y2="56.00" stroke="#9fb3c8" />
<text x="48.00" y="60.00" font-size="11" font-family="Arial" fill="#52606d" text-anchor="end">1,250</text>
<line x1="56.00" y1="464" x2="56.00" y2="468" stroke="#9fb3c8" />
<text x="56.00" y="482.00" font-size="11" font-family="Arial" fill="#52606d" text-anchor="middle">06/13</text>
<line x1="226.25" y1="464" x2="226.25" y2="468" stroke="#9fb3c8" />
<text x="226.25" y="482.00" font-size="11" font-family="Arial" fill="#52606d" text-anchor="middle">08/27</text>
<line x1="396.51" y1="464" x2="396.51" y2="468" stroke="#9fb3c8" />
<text x="396.51" y="482.00" font-size="11" font-family="Arial" fill="#52606d" text-anchor="middle">11/13</text>
<line x1="563.49" y1="464" x2="563.49" y2="468" stroke="#9fb3c8" />
<text x="563.49" y="482.00" font-size="11" font-family="Arial" fill="#52606d" text-anchor="middle">01/27</text>
<line x1="733.75" y1="464" x2="733.75" y2="468" stroke="#9fb3c8" />
<text x="733.75" y="482.00" font-size="11" font-family="Arial" fill="#52606d" text-anchor="middle">04/23</text>
<line x1="904.00" y1="464" x2="904.00" y2="468" stroke="#9fb3c8" />
<text x="904.00" y="482.00" font-size="11" font-family="Arial" fill="#52606d" text-anchor="middle">07/08</text>
<polyline fill="none" stroke="#1f77b4" stroke-width="2" points="56.00,441.64 59.27,440.48 62.55,441.14 65.82,440.81 69.10,441.64 72.37,442.14 75.64,441.31 78.92,439.81 82.19,439.64 85.47,439.48 88.74,439.64 92.02,439.81 95.29,439.98 98.56,439.14 101.84,435.44 105.11,434.77 108.39,435.11 111.66,434.60 114.93,430.40 118.21,430.06 121.48,428.55 124.76,428.89 128.03,424.18 131.31,418.97 134.58,419.98 137.85,419.64 141.13,420.65 144.40,422.33 147.68,419.47 150.95,418.30 154.22,416.45 157.50,415.10 160.77,417.62 164.05,416.62 167.32,417.46 170.59,417.79 173.87,417.46 177.14,418.63 180.42,419.14 183.69,420.48 186.97,416.28 190.24,417.62 193.51,419.14 196.79,419.64 200.06,420.15 203.34,415.61 206.61,416.62 209.88,420.99 213.16,420.31 216.43,419.14 219.71,414.60 222.98,414.26 226.25,408.04 229.53,401.15 232.80,403.17 236.08,409.55 239.35,410.90 242.63,413.08 245.90,414.77 249.17,414.09 252.45,414.60 255.72,415.27 259.00,414.93 262.27,416.78 265.54,415.27 268.82,416.95 272.09,411.07 275.37,412.08 278.64,409.89 281.92,403.17 285.19,397.95 288.46,398.29 291.74,403.00 295.01,400.14 298.29,403.50 301.56,401.15 304.83,400.48 308.11,399.47 311.38,391.73 314.66,392.07 317.93,389.55 321.20,388.03 324.48,387.19 327.75,391.06 331.03,382.49 334.30,382.49 337.58,382.82 340.85,383.83 344.12,385.18 347.40,384.50 350.67,385.51 353.95,383.50 357.22,384.34 360.49,379.46 363.77,382.32 367.04,379.46 370.32,381.31 373.59,382.99 376.86,385.68 380.14,385.34 383.41,385.34 386.69,379.46 389.96,379.96 393.24,381.48 396.51,378.96 399.78,382.15 403.06,385.51 406.33,387.87 409.61,392.74 412.88,386.69 416.15,393.08 419.43,394.09 422.70,393.08 425.98,390.72 429.25,389.55 432.53,388.88 435.80,387.53 439.07,389.04 442.35,386.69 445.62,390.22 448.90,386.35 452.17,386.35 455.44,381.65 458.72,382.99 461.99,383.66 465.27,385.85 468.54,387.70 471.81,393.41 475.09,395.26 478.36,398.29 481.64,396.61 484.91,395.10 488.19,396.78 491.46,396.78 494.73,394.26 498.01,396.27 501.28,396.27 504.56,396.10 507.83,397.45 511.10,395.94 514.38,394.93 517.65,395.94 520.93,397.45 524.20,396.27 527.47,391.57 530.75,387.03 534.02,389.21 537.30,388.54 540.57,379.80 543.85,370.21 547.12,362.31 550.39,355.76 553.67,352.56 556.94,348.69 560.22,352.73 563.49,344.32 566.76,343.99 570.04,351.38 573.31,346.51 576.59,353.40 579.86,344.49 583.14,339.28 586.41,343.48 589.68,349.70 592.96,337.09 596.23,339.45 599.51,337.26 602.78,323.31 606.05,308.01 609.33,291.20 612.60,290.52 615.88,295.23 619.15,309.02 622.42,325.83 625.70,322.13 628.97,319.27 632.25,334.91 635.52,333.23 638.80,318.94 642.07,319.61 645.34,303.97 648.62,286.83 651.89,294.22 655.17,286.49 658.44,288.51 661.71,295.23 664.99,297.59 668.26,312.04 671.54,295.57 674.81,285.82 678.08,288.51 681.36,282.12 684.63,301.62 687.91,284.14 691.18,286.15 694.46,267.32 697.73,262.95 701.00,252.19 704.28,252.87 707.55,256.90 710.83,259.93 714.10,256.56 717.37,234.71 720.65,233.70 723.92,209.49 727.20,211.84 730.47,207.14 733.75,209.83 737.02,183.26 740.29,170.15 743.57,163.76 746.84,169.14 750.12,139.22 753.39,145.61 756.66,141.91 759.94,161.07 763.21,158.72 766.49,189.99 769.76,171.83 773.03,174.52 776.31,181.25 779.58,192.34 782.86,212.85 786.13,211.17 789.41,208.82 792.68,198.39 795.95,183.94 799.23,163.09 802.50,179.90 805.78,167.12 809.05,172.84 812.32,191.33 815.60,192.01 818.87,172.84 822.15,187.30 825.42,173.18 828.69,181.92 831.97,193.02 835.24,197.72 838.52,169.81 841.79,192.34 845.07,205.79 848.34,201.76 851.61,187.97 854.89,173.85 858.16,179.57 861.44,183.26 864.71,186.63 867.98,171.50 871.26,156.03 874.53,125.03 877.81,98.07 881.08,113.24 884.36,77.86 887.63,81.23 890.90,91.33 894.18,77.86 897.45,114.92 900.73,130.08 904.00,104.81" />
<text x="780.00" y="60.00" font-size="14" font-family="Arial" fill="#1f77b4" text-anchor="start">Close</text>
<polyline fill="none" stroke="#2ca02c" stroke-width="2" points="118.21,438.35 121.48,437.70 124.76,437.12 128.03,436.27 131.31,435.18 134.58,434.10 137.85,432.97 141.13,431.94 144.40,431.06 147.68,430.06 150.95,429.00 154.22,427.84 157.50,426.60 160.77,425.48 164.05,424.36 167.32,423.46 170.59,422.61 173.87,421.73 177.14,420.93 180.42,420.36 183.69,419.89 186.97,419.27 190.24,418.71 193.51,418.46 196.79,418.49 200.06,418.50 203.34,418.30 206.61,418.09 209.88,418.03 213.16,418.07 216.43,418.11 219.71,418.02 222.98,417.98 226.25,417.50 229.53,416.72 232.80,416.01 236.08,415.60 239.35,415.27 242.63,414.99 245.90,414.77 249.17,414.45 252.45,414.37 255.72,414.25 259.00,414.04 262.27,413.90 265.54,413.66 268.82,413.72 272.09,413.45 275.37,413.00 278.64,412.48 281.92,411.68 285.19,410.85 288.46,410.05 291.74,409.80 295.01,409.75 298.29,409.76 301.56,409.34 304.83,408.82 308.11,408.14 311.38,406.99 314.66,405.89 317.93,404.64 321.20,403.27 324.48,401.89 327.75,400.60 331.03,398.96 334.30,397.24 337.58,395.83 340.85,394.41 344.12,393.18 347.40,392.25 350.67,391.62 353.95,390.88 357.22,389.95 360.49,388.92 363.77,387.86 367.04,386.77 370.32,385.82 373.59,384.99 376.86,384.69 380.14,384.35 383.41,384.14 386.69,383.71 389.96,383.35 393.24,382.87 396.51,382.70 399.78,382.68 403.06,382.81 406.33,383.02 409.61,383.39 412.88,383.50 416.15,383.88 419.43,384.41 422.70,384.85 425.98,385.41 429.25,385.77 432.53,386.24 435.80,386.56 439.07,386.86 442.35,386.91 445.62,387.15 448.90,387.20 452.17,387.55 455.44,387.63 458.72,387.71 461.99,387.94 465.27,388.13 468.54,388.24 471.81,388.51 475.09,388.64 478.36,389.22 481.64,389.40 484.91,389.45 488.19,389.63 491.46,389.93 494.73,390.17 498.01,390.54 501.28,390.98 504.56,391.33 507.83,391.87 511.10,392.15 514.38,392.58 517.65,393.06 520.93,393.85 524.20,394.52 527.47,394.91 530.75,394.97 534.02,395.05 537.30,394.80 540.57,394.03 543.85,392.62 547.12,390.91 550.39,388.94 553.67,386.73 556.94,384.33 560.22,382.25 563.49,379.65 566.76,377.04 570.04,374.80 573.31,372.26 576.59,370.13 579.86,367.61 583.14,364.78 586.41,362.08 589.68,359.75 592.96,357.02 596.23,354.65 599.51,352.05 602.78,348.79 606.05,345.20 609.33,341.25 612.60,337.66 615.88,334.63 619.15,332.45 622.42,331.31 625.70,329.78 628.97,328.53 632.25,328.07 635.52,327.17 638.80,325.79 642.07,324.10 645.34,322.07 648.62,319.45 651.89,316.99 655.17,313.83 658.44,311.40 661.71,309.19 664.99,307.20 668.26,306.64 671.54,306.02 674.81,305.75 678.08,305.65 681.36,304.99 684.63,304.62 687.91,302.54 691.18,300.74 694.46,298.14 697.73,294.54 701.00,290.49 704.28,287.19 707.55,284.05 710.83,281.85 714.10,280.34 717.37,277.36 720.65,274.72 723.92,270.77 727.20,266.60 730.47,262.08 733.75,256.97 737.02,251.35 740.29,245.57 743.57,239.33 746.84,233.68 750.12,225.56 753.39,218.64 756.66,211.42 759.94,206.11 763.21,200.90 766.49,197.79 769.76,193.74 773.03,189.62 776.31,185.69 779.58,182.47 782.86,181.38 786.13,180.25 789.41,180.22 792.68,179.55 795.95,178.39 799.23,176.05 802.50,175.88 805.78,175.73 809.05,176.19 812.32,177.30 815.60,179.94 818.87,181.30 822.15,183.57 825.42,184.17 828.69,185.33 831.97,185.48 835.24,186.78 838.52,186.54 841.79,187.10 845.07,187.77 848.34,187.21 851.61,186.05 854.89,184.31 858.16,183.37 861.44,183.33 864.71,184.51 867.98,184.09 871.26,183.53 874.53,181.14 877.81,176.48 881.08,172.54 884.36,167.79 887.63,162.49 890.90,158.40 894.18,153.19 897.45,149.29 900.73,145.91 904.00,142.66" />
<text x="780.00" y="82.00" font-size="14" font-family="Arial" fill="#2ca02c" text-anchor="start">MA20</text>
<polyline fill="none" stroke="#ff7f0e" stroke-width="2" points="249.17,424.23 252.45,423.78 255.72,423.36 259.00,422.92 262.27,422.52 265.54,422.08 268.82,421.66 272.09,421.16 275.37,420.70 278.64,420.20 281.92,419.60 285.19,418.90 288.46,418.21 291.74,417.59 295.01,416.94 298.29,416.41 301.56,415.85 304.83,415.27 308.11,414.69 311.38,414.04 314.66,413.41 317.93,412.76 321.20,412.08 324.48,411.46 327.75,411.00 331.03,410.37 334.30,409.75 337.58,409.12 340.85,408.48 344.12,407.91 347.40,407.35 350.67,406.83 353.95,406.30 357.22,405.75 360.49,405.13 363.77,404.54 367.04,403.91 370.32,403.30 373.59,402.71 376.86,402.15 380.14,401.57 383.41,401.05 386.69,400.41 389.96,399.76 393.24,399.13 396.51,398.44 399.78,397.88 403.06,397.36 406.33,396.81 409.61,396.35 412.88,395.81 416.15,395.45 419.43,395.12 422.70,394.87 425.98,394.69 429.25,394.47 432.53,394.12 435.80,393.73 439.07,393.33 442.35,392.86 445.62,392.46 448.90,391.99 452.17,391.51 455.44,390.96 458.72,390.39 461.99,389.87 465.27,389.35 468.54,388.96 471.81,388.65 475.09,388.40 478.36,388.32 481.64,388.30 484.91,388.25 488.19,388.14 491.46,388.09 494.73,387.93 498.01,387.85 501.28,387.78 504.56,387.73 507.83,387.82 511.10,387.89 514.38,387.98 517.65,388.11 520.93,388.28 524.20,388.37 527.47,388.52 530.75,388.59 534.02,388.70 537.30,388.78 540.57,388.69 543.85,388.45 547.12,388.06 550.39,387.60 553.67,387.07 556.94,386.56 560.22,386.06 563.49,385.48 566.76,384.86 570.04,384.33 573.31,383.68 576.59,383.15 579.86,382.46 583.14,381.79 586.41,381.19 589.68,380.66 592.96,379.96 596.23,379.25 599.51,378.44 602.78,377.37 606.05,375.96 609.33,374.36 612.60,372.65 615.88,371.01 619.15,369.61 622.42,368.52 625.70,367.40 628.97,366.24 632.25,365.36 635.52,364.43 638.80,363.30 642.07,362.13 645.34,360.75 648.62,359.10 651.89,357.64 655.17,356.03 658.44,354.44 661.71,352.93 664.99,351.43 668.26,350.08 671.54,348.41 674.81,346.54 678.08,344.74 681.36,342.86 684.63,341.27 687.91,339.39 691.18,337.59 694.46,335.44 697.73,333.22 701.00,330.82 704.28,328.41 707.55,326.09 710.83,323.84 714.10,321.52 717.37,318.81 720.65,316.10 723.92,313.06 727.20,310.14 730.47,307.11 733.75,304.13 737.02,300.86 740.29,297.52 743.57,294.21 746.84,291.10 750.12,287.55 753.39,284.16 756.66,280.65 759.94,277.59 763.21,274.51 766.49,271.82 769.76,268.90 773.03,265.92 776.31,263.20 779.58,260.75 782.86,258.58 786.13,256.27 789.41,254.13 792.68,251.78 795.95,249.22 799.23,246.55 802.50,244.42 805.78,242.35 809.05,240.39 812.32,238.66 815.60,236.71 818.87,234.16 822.15,231.91 825.42,229.47 828.69,226.93 831.97,224.59 835.24,222.57 838.52,220.07 841.79,218.21 845.07,216.86 848.34,215.32 851.61,213.68 854.89,211.77 858.16,209.84 861.44,207.93 864.71,205.84 867.98,203.77 871.26,201.61 874.53,198.89 877.81,195.82 881.08,192.68 884.36,189.24 887.63,185.83 890.90,182.89 894.18,179.81 897.45,177.52 900.73,175.47 904.00,172.94" />
<text x="780.00" y="104.00" font-size="14" font-family="Arial" fill="#ff7f0e" text-anchor="start">MA60</text>
<polyline fill="none" stroke="#d62728" stroke-width="2" points="707.55,382.05 710.83,381.14 714.10,380.22 717.37,379.19 720.65,378.16 723.92,377.00 727.20,375.84 730.47,374.67 733.75,373.52 737.02,372.24 740.29,370.89 743.57,369.52 746.84,368.16 750.12,366.66 753.39,365.19 756.66,363.72 759.94,362.35 763.21,360.97 766.49,359.75 769.76,358.46 773.03,357.18 776.31,355.94 779.58,354.76 782.86,353.70 786.13,352.66 789.41,351.61 792.68,350.50 795.95,349.32 799.23,348.02 802.50,346.82 805.78,345.57 809.05,344.35 812.32,343.23 815.60,342.10 818.87,340.88 822.15,339.73 825.42,338.51 828.69,337.33 831.97,336.20 835.24,335.10 838.52,333.84 841.79,332.72 845.07,331.67 848.34,330.58 851.61,329.42 854.89,328.19 858.16,327.01 861.44,325.84 864.71,324.67 867.98,323.43 871.26,322.11 874.53,320.66 877.81,319.08 881.08,317.61 884.36,315.99 887.63,314.38 890.90,312.79 894.18,311.13 897.45,309.63 900.73,308.21 904.00,306.66" />
<text x="780.00" y="126.00" font-size="14" font-family="Arial" fill="#d62728" text-anchor="start">MA200</text>
</svg>