<svg xmlns="http://www.w3.org/2000/svg" width="960" height="520" viewBox="0 0 960 520"><rect width="100%" height="100%" fill="white" />
<text x="56.00" y="32.00" font-size="20" font-family="Arial" fill="#1f2933" text-anchor="start">AAPL Price and Moving Averages</text>
<line x1="56" y1="464" x2="904" y2="464" stroke="#cbd2d9" />
<line x1="56" y1="56" x2="56" y2="464" stroke="#cbd2d9" />
<text x="16.00" y="38.00" font-size="12" font-family="Arial" fill="#52606d" text-anchor="start">Price</text>
<line x1="56" y1="464.00" x2="904" y2="464.00" stroke="#edf2f7" />
<line x1="52" y1="464.00" x2="56" y2="464.00" stroke="#9fb3c8" />
<text x="48.00" y="468.00" font-size="11" font-family="Arial" fill="#52606d" text-anchor="end">193</text>
<line x1="56" y1="362.00" x2="904" y2="362.00" stroke="#edf2f7" />
<line x1="52" y1="362.00" x2="56" y2="362.00" stroke="#9fb3c8" />
<text x="48.00" y="366.00" font-size="11" font-family="Arial" fill="#52606d" text-anchor="end">226</text>
<line x1="56" y1="260.00" x2="904" y2="260.00" stroke="#edf2f7" />
<line x1="52" y1="260.00" x2="56" y2="260.00" stroke="#9fb3c8" />
<text x="48.00" y="264.00" font-size="11" font-family="Arial" fill="#52606d" text-anchor="end">258</text>
<line x1="56" y1="158.00" x2="904" y2="158.00" stroke="#edf2f7" />
<line x1="52" y1="158.00" x2="56" y2="158.00" stroke="#9fb3c8" />
<text x="48.00" y="162.00" font-size="11" font-family="Arial" fill="#52606d" text-anchor="end">290</text>
<line x1="56" y1="56.00" x2="904" y2="56.00" stroke="#edf2f7" />
<line x1="52" y1="56.00" x2="56" y2="56.00" stroke="#9fb3c8" />
<text x="48.00" y="60.00" font-size="11" font-family="Arial" fill="#52606d" text-anchor="end">322</text>
<line x1="56.00" y1="464" x2="56.00" y2="468" stroke="#9fb3c8" />
<text x="56.00" y="482.00" font-size="11" font-family="Arial" fill="#52606d" text-anchor="middle">06/25</text>
<line x1="226.25" y1="464" x2="226.25" y2="468" stroke="#9fb3c8" />
<text x="226.25" y="482.00" font-size="11" font-family="Arial" fill="#52606d" text-anchor="middle">09/09</text>
<line x1="396.51" y1="464" x2="396.51" y2="468" stroke="#9fb3c8" />
<text x="396.51" y="482.00" font-size="11" font-family="Arial" fill="#52606d" text-anchor="middle">11/20</text>
<line x1="563.49" y1="464" x2="563.49" y2="468" stroke="#9fb3c8" />
<text x="563.49" y="482.00" font-size="11" font-family="Arial" fill="#52606d" text-anchor="middle">02/05</text>
<line x1="733.75" y1="464" x2="733.75" y2="468" stroke="#9fb3c8" />
<text x="733.75" y="482.00" font-size="11" font-family="Arial" fill="#52606d" text-anchor="middle">04/22</text>
<line x1="904.00" y1="464" x2="904.00" y2="468" stroke="#9fb3c8" />
<text x="904.00" y="482.00" font-size="11" font-family="Arial" fill="#52606d" text-anchor="middle">07/08</text>
<polyline fill="none" stroke="#1f77b4" stroke-width="2" points="56.00,440.38 59.27,442.14 62.55,441.89 65.82,428.99 69.10,420.62 72.37,406.05 75.64,402.54 78.92,413.90 82.19,413.71 85.47,410.15 88.74,406.14 92.02,410.08 95.29,418.10 98.56,416.55 101.84,413.24 105.11,413.68 108.39,410.02 111.66,405.92 114.93,399.86 118.21,400.65 121.48,401.88 124.76,401.50 128.03,400.97 131.31,409.74 134.58,416.74 137.85,421.41 141.13,437.79 144.40,434.73 147.68,436.08 150.95,403.49 154.22,382.10 157.50,352.69 160.77,358.72 164.05,350.92 167.32,339.30 170.59,341.03 173.87,344.79 177.14,347.00 180.42,348.05 183.69,362.42 186.97,365.92 190.24,356.89 193.51,358.79 196.79,351.99 200.06,348.27 203.34,341.73 206.61,343.05 209.88,350.70 213.16,323.06 216.43,318.92 219.71,319.20 222.98,324.92 226.25,336.07 229.53,359.95 232.80,349.72 236.08,336.96 239.35,328.65 242.63,324.07 245.90,321.42 249.17,324.92 252.45,300.85 255.72,267.43 259.00,272.64 262.27,279.34 265.54,264.93 268.82,269.39 272.09,272.64 275.37,272.01 278.64,269.42 281.92,264.11 285.19,261.30 288.46,265.50 291.74,266.17 295.01,261.17 298.29,273.87 301.56,301.58 304.83,294.03 308.11,293.68 311.38,288.72 314.66,294.69 317.93,279.40 321.20,247.97 324.48,246.30 327.75,259.94 331.03,256.37 334.30,246.14 337.58,227.22 340.85,226.62 344.12,224.41 347.40,219.03 350.67,222.29 353.95,226.46 357.22,223.33 360.49,223.02 363.77,224.18 367.04,228.29 370.32,224.43 373.59,206.03 376.86,211.66 380.14,213.30 383.41,215.01 386.69,230.66 389.96,230.73 393.24,227.18 396.51,234.49 399.78,217.92 403.06,203.91 406.33,200.59 409.61,198.76 412.88,194.65 416.15,181.21 419.43,171.44 422.70,177.89 425.98,188.80 429.25,194.87 432.53,197.68 435.80,199.93 439.07,194.87 442.35,197.24 445.62,196.45 448.90,209.63 452.17,208.05 455.44,216.81 458.72,215.71 461.99,211.03 465.27,219.56 468.54,215.17 471.81,210.58 475.09,211.88 478.36,210.74 481.64,212.89 484.91,216.75 488.19,219.44 491.46,231.29 494.73,246.79 498.01,253.21 501.28,257.29 504.56,256.24 507.83,253.46 511.10,250.93 514.38,254.38 517.65,259.91 520.93,268.38 524.20,296.30 527.47,293.30 530.75,291.09 534.02,292.07 537.30,268.76 540.57,259.72 543.85,265.51 547.12,259.69 550.39,255.89 553.67,222.60 556.94,224.27 560.22,202.11 563.49,203.94 566.76,196.96 570.04,207.21 573.31,210.18 576.59,204.42 579.86,248.01 583.14,266.84 586.41,241.20 589.68,239.71 592.96,251.65 596.23,238.99 599.51,233.92 602.78,215.06 606.05,208.44 609.33,212.50 612.60,240.25 615.88,238.54 619.15,241.61 622.42,245.51 625.70,252.56 628.97,261.52 632.25,253.86 635.52,250.85 638.80,250.92 642.07,266.90 645.34,284.75 648.62,276.21 651.89,271.74 655.17,285.32 658.44,288.42 661.71,291.49 664.99,280.41 668.26,279.94 671.54,276.84 674.81,275.98 678.08,288.93 681.36,295.80 684.63,273.14 687.91,267.31 691.18,266.39 694.46,257.09 697.73,274.05 701.00,256.96 704.28,251.93 707.55,251.96 710.83,256.01 714.10,257.18 717.37,233.13 720.65,242.72 723.92,221.10 727.20,212.18 730.47,233.95 733.75,211.80 737.02,210.98 740.29,218.48 743.57,229.40 746.84,219.58 750.12,221.29 753.39,217.56 756.66,189.74 759.94,200.22 763.21,176.95 766.49,166.41 769.76,166.64 773.03,148.03 776.31,149.20 779.58,142.48 782.86,129.59 786.13,131.68 789.41,125.28 792.68,132.85 795.95,129.27 799.23,118.88 802.50,110.20 805.78,98.07 809.05,99.62 812.32,91.64 815.60,86.38 818.87,87.80 822.15,106.02 825.42,77.86 828.69,93.51 831.97,90.43 835.24,102.76 838.52,121.13 841.79,155.94 845.07,152.68 848.34,139.85 851.61,154.11 854.89,137.35 858.16,128.42 861.44,138.84 864.71,132.31 867.98,135.48 871.26,144.07 874.53,147.93 877.81,204.73 881.08,177.39 884.36,183.85 887.63,159.71 890.90,143.81 894.18,98.67 897.45,85.90 900.73,92.24 904.00,83.59" />
<text x="780.00" y="60.00" font-size="14" font-family="Arial" fill="#1f77b4" text-anchor="start">Close</text>
<polyline fill="none" stroke="#2ca02c" stroke-width="2" points="118.21,415.73 121.48,413.81 124.76,411.77 128.03,409.73 131.31,408.77 134.58,408.57 137.85,409.34 141.13,411.10 144.40,412.14 147.68,413.26 150.95,412.93 154.22,411.73 157.50,408.86 160.77,405.89 164.05,402.61 167.32,398.91 170.59,395.28 173.87,392.02 177.14,389.07 180.42,386.48 183.69,384.57 186.97,382.77 190.24,380.54 193.51,378.43 196.79,375.54 200.06,372.12 203.34,368.13 206.61,363.40 209.88,359.20 213.16,353.55 216.43,349.32 219.71,346.17 222.98,344.78 226.25,343.65 229.53,344.10 232.80,344.62 236.08,344.42 239.35,343.61 242.63,342.47 245.90,341.14 249.17,339.26 252.45,336.01 255.72,331.53 259.00,327.23 262.27,323.59 265.54,319.43 268.82,315.81 272.09,312.29 275.37,308.36 278.64,305.67 281.92,302.93 285.19,300.04 288.46,297.07 291.74,293.57 295.01,288.63 298.29,284.84 301.56,283.07 304.83,281.34 308.11,279.82 311.38,278.19 314.66,276.67 317.93,275.60 321.20,274.63 324.48,273.31 327.75,272.34 331.03,271.91 334.30,270.75 337.58,268.48 340.85,266.21 344.12,263.96 347.40,261.71 350.67,259.75 353.95,257.80 357.22,255.66 360.49,253.75 363.77,251.27 367.04,247.60 370.32,244.12 373.59,239.74 376.86,235.89 380.14,231.82 383.41,228.60 386.69,227.73 389.96,226.96 393.24,225.32 396.51,224.22 399.78,222.81 403.06,221.65 406.33,220.35 409.61,219.06 412.88,217.84 416.15,215.79 419.43,213.04 422.70,210.77 425.98,209.06 429.25,207.59 432.53,206.06 435.80,204.83 439.07,204.28 442.35,203.56 445.62,202.71 448.90,202.44 452.17,201.31 455.44,200.62 458.72,200.04 461.99,198.87 465.27,198.95 468.54,199.52 471.81,200.02 475.09,200.67 478.36,201.48 481.64,203.06 484.91,205.33 488.19,207.40 491.46,209.53 494.73,212.12 498.01,214.90 501.28,217.77 504.56,220.84 507.83,223.65 511.10,226.37 514.38,228.61 517.65,231.20 520.93,233.78 524.20,237.81 527.47,241.93 530.75,245.50 534.02,249.35 537.30,252.26 540.57,254.65 543.85,257.39 547.12,259.73 550.39,261.68 553.67,261.84 556.94,261.49 560.22,259.26 563.49,256.79 566.76,253.78 570.04,251.32 573.31,249.16 576.59,246.84 579.86,246.52 583.14,246.86 586.41,245.50 589.68,242.67 592.96,240.59 596.23,237.99 599.51,235.08 602.78,232.39 606.05,229.83 609.33,227.18 612.60,226.21 615.88,225.34 619.15,226.29 622.42,227.35 625.70,229.88 628.97,232.75 632.25,235.60 635.52,237.78 638.80,239.82 642.07,242.94 645.34,244.78 648.62,245.25 651.89,246.77 655.17,249.06 658.44,250.89 661.71,253.52 664.99,255.84 668.26,259.09 671.54,262.51 674.81,265.68 678.08,268.12 681.36,270.98 684.63,272.55 687.91,273.65 691.18,274.34 694.46,274.12 697.73,275.12 701.00,275.43 704.28,275.48 707.55,274.73 710.83,273.30 714.10,272.35 717.37,270.42 720.65,268.29 723.92,264.92 727.20,260.95 730.47,258.63 733.75,255.22 737.02,251.93 740.29,249.06 743.57,246.08 746.84,242.27 750.12,239.68 753.39,237.19 756.66,233.36 759.94,230.51 763.21,225.66 766.49,221.13 769.76,216.86 773.03,211.67 776.31,206.33 779.58,200.59 782.86,195.41 786.13,189.86 789.41,185.07 792.68,181.10 795.95,175.87 799.23,171.22 802.50,166.19 805.78,160.17 809.05,153.68 812.32,147.28 815.60,140.53 818.87,134.05 822.15,129.86 825.42,123.74 828.69,119.57 831.97,115.77 835.24,112.58 838.52,111.23 841.79,111.57 845.07,112.08 848.34,112.59 851.61,113.71 854.89,114.32 858.16,114.10 861.44,114.57 864.71,115.25 867.98,116.51 871.26,118.81 874.53,121.23 877.81,126.88 881.08,131.43 884.36,136.23 887.63,138.92 890.90,142.22 894.18,142.47 897.45,142.25 900.73,141.72 904.00,139.84" />
<text x="780.00" y="82.00" font-size="14" font-family="Arial" fill="#2ca02c" text-anchor="start">MA20</text>
<polyline fill="none" stroke="#ff7f0e" stroke-width="2" points="249.17,379.85 252.45,377.53 255.72,374.62 259.00,371.79 262.27,369.30 265.54,366.71 268.82,364.43 272.09,362.26 275.37,359.90 278.64,357.49 281.92,355.06 285.19,352.65 288.46,350.24 291.74,347.70 295.01,345.11 298.29,342.79 301.56,340.92 304.83,338.99 308.11,337.12 311.38,335.27 314.66,333.50 317.93,331.46 321.20,328.90 324.48,326.32 327.75,323.83 331.03,321.15 334.30,318.23 337.58,314.72 340.85,311.25 344.12,307.73 347.40,304.65 350.67,301.99 353.95,299.88 357.22,297.63 360.49,295.50 363.77,293.58 367.04,291.70 370.32,289.69 373.59,287.34 376.86,285.07 380.14,282.58 383.41,280.07 386.69,277.97 389.96,275.83 393.24,273.75 396.51,271.85 399.78,269.79 403.06,267.47 406.33,264.97 409.61,262.90 412.88,260.83 416.15,258.53 419.43,255.97 422.70,253.33 425.98,250.48 429.25,247.90 432.53,245.58 435.80,243.43 439.07,241.28 442.35,239.21 445.62,237.07 448.90,235.55 452.17,234.56 455.44,233.63 458.72,232.57 461.99,231.67 465.27,230.84 468.54,229.88 471.81,228.86 475.09,227.90 478.36,227.01 481.64,226.20 484.91,225.39 488.19,224.61 491.46,224.11 494.73,223.66 498.01,222.86 501.28,222.24 504.56,221.62 507.83,221.03 511.10,220.30 514.38,219.88 517.65,220.08 520.93,220.45 524.20,221.06 527.47,221.67 530.75,222.42 534.02,223.50 537.30,224.21 540.57,224.79 543.85,225.57 547.12,226.19 550.39,226.68 553.67,226.67 556.94,226.69 560.22,226.32 563.49,225.92 566.76,225.46 570.04,225.48 573.31,225.46 576.59,225.31 579.86,225.86 583.14,226.46 586.41,226.63 589.68,226.84 592.96,227.13 596.23,227.48 599.51,227.98 602.78,228.22 606.05,228.38 609.33,228.68 612.60,229.66 615.88,230.78 619.15,231.85 622.42,232.79 625.70,233.75 628.97,234.82 632.25,235.71 635.52,236.65 638.80,237.54 642.07,238.72 645.34,239.97 648.62,241.10 651.89,242.02 655.17,243.18 658.44,244.47 661.71,245.67 664.99,246.76 668.26,247.91 671.54,249.00 674.81,250.08 678.08,251.35 681.36,252.67 684.63,253.56 687.91,254.16 691.18,254.49 694.46,254.55 697.73,254.83 701.00,254.85 704.28,254.82 707.55,254.84 710.83,254.86 714.10,254.82 717.37,254.23 720.65,253.34 723.92,252.13 727.20,250.82 730.47,249.85 733.75,248.90 737.02,248.09 740.29,247.31 743.57,246.80 746.84,246.20 750.12,246.17 753.39,246.06 756.66,245.86 759.94,245.79 763.21,245.46 766.49,244.78 769.76,244.05 773.03,243.11 776.31,241.47 779.58,239.39 782.86,237.53 786.13,235.73 789.41,233.63 792.68,231.86 795.95,230.12 799.23,228.51 802.50,226.87 805.78,224.97 809.05,222.62 812.32,220.18 815.60,217.59 818.87,214.96 822.15,212.52 825.42,209.46 828.69,206.78 831.97,204.11 835.24,201.64 838.52,199.21 841.79,197.06 845.07,195.01 848.34,192.81 851.61,190.62 854.89,188.10 858.16,185.38 861.44,183.03 864.71,180.56 867.98,178.21 871.26,176.01 874.53,173.66 877.81,172.14 881.08,170.55 884.36,169.16 887.63,167.38 890.90,165.49 894.18,162.57 897.45,159.72 900.73,157.05 904.00,154.25" />
<text x="780.00" y="104.00" font-size="14" font-family="Arial" fill="#ff7f0e" text-anchor="start">MA60</text>
<polyline fill="none" stroke="#d62728" stroke-width="2" points="707.55,284.16 710.83,283.24 714.10,282.32 717.37,281.27 720.65,280.34 723.92,279.35 727.20,278.38 730.47,277.53 733.75,276.52 737.02,275.51 740.29,274.55 743.57,273.67 746.84,272.71 750.12,271.73 753.39,270.74 756.66,269.62 759.94,268.55 763.21,267.39 766.49,266.19 769.76,265.02 773.03,263.76 776.31,262.50 779.58,261.20 782.86,259.84 786.13,258.45 789.41,257.00 792.68,255.55 795.95,254.01 799.23,252.43 802.50,250.80 805.78,249.27 809.05,247.86 812.32,246.56 815.60,245.20 818.87,243.88 822.15,242.71 825.42,241.40 828.69,240.14 831.97,238.86 835.24,237.63 838.52,236.43 841.79,235.38 845.07,234.35 848.34,233.26 851.61,232.27 854.89,231.22 858.16,230.15 861.44,229.13 864.71,228.04 867.98,227.10 871.26,226.22 874.53,225.37 877.81,224.77 881.08,223.97 884.36,223.09 887.63,222.14 890.90,221.18 894.18,220.03 897.45,218.84 900.73,217.69 904.00,216.48" />
<text x="780.00" y="126.00" font-size="14" font-family="Arial" fill="#d62728" text-anchor="start">MA200</text>
</svg>