<svg xmlns="http://www.w3.org/2000/svg" width="960" height="520" viewBox="0 0 960 520"><rect width="100%" height="100%" fill="white" />
<text x="56.00" y="32.00" font-size="20" font-family="Arial" fill="#1f2933" text-anchor="start">AAPL Price and Moving Averages</text>
<line x1="56" y1="464" x2="904" y2="464" stroke="#cbd2d9" />
<line x1="56" y1="56" x2="56" y2="464" stroke="#cbd2d9" />
<text x="16.00" y="38.00" font-size="12" font-family="Arial" fill="#52606d" text-anchor="start">Price</text>
<line x1="56" y1="464.00" x2="904" y2="464.00" stroke="#edf2f7" />
<line x1="52" y1="464.00" x2="56" y2="464.00" stroke="#9fb3c8" />
<text x="48.00" y="468.00" font-size="11" font-family="Arial" fill="#52606d" text-anchor="end">194</text>
<line x1="56" y1="362.00" x2="904" y2="362.00" stroke="#edf2f7" />
<line x1="52" y1="362.00" x2="56" y2="362.00" stroke="#9fb3c8" />
<text x="48.00" y="366.00" font-size="11" font-family="Arial" fill="#52606d" text-anchor="end">231</text>
<line x1="56" y1="260.00" x2="904" y2="260.00" stroke="#edf2f7" />
<line x1="52" y1="260.00" x2="56" y2="260.00" stroke="#9fb3c8" />
<text x="48.00" y="264.00" font-size="11" font-family="Arial" fill="#52606d" text-anchor="end">268</text>
<line x1="56" y1="158.00" x2="904" y2="158.00" stroke="#edf2f7" />
<line x1="52" y1="158.00" x2="56" y2="158.00" stroke="#9fb3c8" />
<text x="48.00" y="162.00" font-size="11" font-family="Arial" fill="#52606d" text-anchor="end">305</text>
<line x1="56" y1="56.00" x2="904" y2="56.00" stroke="#edf2f7" />
<line x1="52" y1="56.00" x2="56" y2="56.00" stroke="#9fb3c8" />
<text x="48.00" y="60.00" font-size="11" font-family="Arial" fill="#52606d" text-anchor="end">342</text>
<line x1="56.00" y1="464" x2="56.00" y2="468" stroke="#9fb3c8" />
<text x="56.00" y="482.00" font-size="11" font-family="Arial" fill="#52606d" text-anchor="middle">07/11</text>
<line x1="226.25" y1="464" x2="226.25" y2="468" stroke="#9fb3c8" />
<text x="226.25" y="482.00" font-size="11" font-family="Arial" fill="#52606d" text-anchor="middle">09/24</text>
<line x1="396.51" y1="464" x2="396.51" y2="468" stroke="#9fb3c8" />
<text x="396.51" y="482.00" font-size="11" font-family="Arial" fill="#52606d" text-anchor="middle">12/08</text>
<line x1="563.49" y1="464" x2="563.49" y2="468" stroke="#9fb3c8" />
<text x="563.49" y="482.00" font-size="11" font-family="Arial" fill="#52606d" text-anchor="middle">02/23</text>
<line x1="733.75" y1="464" x2="733.75" y2="468" stroke="#9fb3c8" />
<text x="733.75" y="482.00" font-size="11" font-family="Arial" fill="#52606d" text-anchor="middle">05/07</text>
<line x1="904.00" y1="464" x2="904.00" y2="468" stroke="#9fb3c8" />
<text x="904.00" y="482.00" font-size="11" font-family="Arial" fill="#52606d" text-anchor="middle">07/23</text>
<polyline fill="none" stroke="#1f77b4" stroke-width="2" points="56.00,418.04 59.27,425.01 62.55,423.67 65.82,420.78 69.10,421.17 72.37,417.98 75.64,414.41 78.92,409.14 82.19,409.83 85.47,410.90 88.74,410.57 92.02,410.10 95.29,417.74 98.56,423.83 101.84,427.89 105.11,442.14 108.39,439.48 111.66,440.66 114.93,412.30 118.21,393.68 121.48,368.10 124.76,373.35 128.03,366.56 131.31,356.44 134.58,357.95 137.85,361.22 141.13,363.15 144.40,364.06 147.68,376.56 150.95,379.61 154.22,371.75 157.50,373.40 160.77,367.49 164.05,364.25 167.32,358.56 170.59,359.71 173.87,366.36 177.14,342.31 180.42,338.71 183.69,338.96 186.97,343.94 190.24,353.64 193.51,374.42 196.79,365.51 200.06,354.41 203.34,347.18 206.61,343.19 209.88,340.88 213.16,343.94 216.43,322.99 219.71,293.91 222.98,298.45 226.25,304.27 229.53,291.74 232.80,295.62 236.08,298.45 239.35,297.90 242.63,295.64 245.90,291.02 249.17,288.58 252.45,292.23 255.72,292.81 259.00,288.47 262.27,299.52 265.54,323.62 268.82,317.05 272.09,316.75 275.37,312.44 278.64,317.63 281.92,304.33 285.19,276.98 288.46,275.52 291.74,287.40 295.01,284.29 298.29,275.39 301.56,258.92 304.83,258.40 308.11,256.47 311.38,251.80 314.66,254.63 317.93,258.26 321.20,255.54 324.48,255.27 327.75,256.28 331.03,259.86 334.30,256.50 337.58,240.49 340.85,245.38 344.12,246.81 347.40,248.30 350.67,261.92 353.95,261.97 357.22,258.89 360.49,265.25 363.77,250.83 367.04,238.64 370.32,235.75 373.59,234.16 376.86,230.58 380.14,218.89 383.41,210.39 386.69,216.00 389.96,225.49 393.24,230.77 396.51,233.22 399.78,235.18 403.06,230.77 406.33,232.84 409.61,232.15 412.88,243.62 416.15,242.25 419.43,249.87 422.70,248.91 425.98,244.83 429.25,252.26 432.53,248.44 435.80,244.45 439.07,245.58 442.35,244.59 445.62,246.46 448.90,249.81 452.17,252.15 455.44,262.47 458.72,275.95 461.99,281.54 465.27,285.08 468.54,284.18 471.81,281.76 475.09,279.55 478.36,282.55 481.64,287.37 484.91,294.74 488.19,319.04 491.46,316.42 494.73,314.50 498.01,315.35 501.28,295.07 504.56,287.20 507.83,292.24 511.10,287.18 514.38,283.87 517.65,254.90 520.93,256.36 524.20,237.07 527.47,238.67 530.75,232.59 534.02,241.51 537.30,244.10 540.57,239.09 543.85,277.01 547.12,293.40 550.39,271.09 553.67,269.79 556.94,280.18 560.22,269.16 563.49,264.76 566.76,248.34 570.04,242.59 573.31,246.11 576.59,270.26 579.86,268.78 583.14,271.45 586.41,274.83 589.68,280.98 592.96,288.77 596.23,282.10 599.51,279.49 602.78,279.54 606.05,293.45 609.33,308.98 612.60,301.55 615.88,297.66 619.15,309.48 622.42,312.18 625.70,314.85 628.97,305.21 632.25,304.80 635.52,302.10 638.80,301.35 642.07,312.62 645.34,318.59 648.62,298.88 651.89,293.81 655.17,293.01 658.44,284.91 661.71,299.67 664.99,284.80 668.26,280.42 671.54,280.45 674.81,283.98 678.08,285.00 681.36,264.07 684.63,272.41 687.91,253.60 691.18,245.84 694.46,264.78 697.73,245.51 701.00,244.79 704.28,251.32 707.55,260.82 710.83,252.28 714.10,253.77 717.37,250.52 720.65,226.31 723.92,235.43 727.20,215.19 730.47,206.02 733.75,206.21 737.02,190.02 740.29,191.04 743.57,185.19 746.84,173.97 750.12,175.79 753.39,170.22 756.66,176.81 759.94,173.70 763.21,164.66 766.49,157.10 769.76,146.55 773.03,147.90 776.31,140.95 779.58,136.38 782.86,137.62 786.13,153.47 789.41,128.96 792.68,142.58 795.95,139.90 799.23,150.63 802.50,166.61 805.78,196.91 809.05,194.07 812.32,182.90 815.60,195.31 818.87,180.73 822.15,172.95 825.42,182.02 828.69,176.34 831.97,179.10 835.24,186.57 838.52,189.93 841.79,239.35 845.07,215.57 848.34,221.19 851.61,200.19 854.89,186.35 858.16,147.07 861.44,135.96 864.71,141.47 867.98,133.95 871.26,126.15 874.53,128.63 877.81,123.14 881.08,129.90 884.36,95.06 887.63,79.18 890.90,77.86 894.18,97.57 897.45,94.40 900.73,99.49 904.00,111.15" />
<text x="780.00" y="60.00" font-size="14" font-family="Arial" fill="#1f77b4" text-anchor="start">Close</text>
<polyline fill="none" stroke="#2ca02c" stroke-width="2" points="118.21,419.47 121.48,416.97 124.76,414.39 128.03,411.53 131.31,408.31 134.58,405.15 137.85,402.32 141.13,399.75 144.40,397.50 147.68,395.83 150.95,394.27 154.22,392.33 157.50,390.49 160.77,387.98 164.05,385.00 167.32,381.54 170.59,377.41 173.87,373.76 177.14,368.84 180.42,365.16 183.69,362.43 186.97,361.22 190.24,360.23 193.51,360.63 196.79,361.08 200.06,360.90 203.34,360.20 206.61,359.20 209.88,358.04 213.16,356.41 216.43,353.58 219.71,349.69 222.98,345.94 226.25,342.78 229.53,339.15 232.80,336.01 236.08,332.94 239.35,329.52 242.63,327.19 245.90,324.80 249.17,322.28 252.45,319.70 255.72,316.66 259.00,312.36 262.27,309.06 265.54,307.52 268.82,306.01 272.09,304.69 275.37,303.27 278.64,301.95 281.92,301.02 285.19,300.18 288.46,299.03 291.74,298.19 295.01,297.81 298.29,296.80 301.56,294.82 304.83,292.85 308.11,290.89 311.38,288.93 314.66,287.23 317.93,285.53 321.20,283.67 324.48,282.01 327.75,279.85 331.03,276.66 334.30,273.63 337.58,269.82 340.85,266.47 344.12,262.93 347.40,260.12 350.67,259.37 353.95,258.69 357.22,257.27 360.49,256.32 363.77,255.09 367.04,254.08 370.32,252.94 373.59,251.83 376.86,250.77 380.14,248.98 383.41,246.59 386.69,244.61 389.96,243.12 393.24,241.84 396.51,240.51 399.78,239.45 403.06,238.96 406.33,238.33 409.61,237.60 412.88,237.37 416.15,236.38 419.43,235.78 422.70,235.28 425.98,234.26 429.25,234.33 432.53,234.82 435.80,235.25 439.07,235.82 442.35,236.52 445.62,237.90 448.90,239.87 452.17,241.68 455.44,243.53 458.72,245.79 461.99,248.21 465.27,250.70 468.54,253.37 471.81,255.82 475.09,258.19 478.36,260.13 481.64,262.39 484.91,264.63 488.19,268.14 491.46,271.72 494.73,274.83 498.01,278.18 501.28,280.71 504.56,282.79 507.83,285.17 511.10,287.21 514.38,288.91 517.65,289.05 520.93,288.74 524.20,286.80 527.47,284.66 530.75,282.03 534.02,279.90 537.30,278.01 540.57,275.99 543.85,275.71 547.12,276.02 550.39,274.83 553.67,272.37 556.94,270.56 560.22,268.29 563.49,265.76 566.76,263.43 570.04,261.20 573.31,258.89 576.59,258.04 579.86,257.29 583.14,258.12 586.41,259.04 589.68,261.23 592.96,263.74 596.23,266.21 599.51,268.11 602.78,269.89 606.05,272.60 609.33,274.20 612.60,274.61 615.88,275.94 619.15,277.92 622.42,279.52 625.70,281.81 628.97,283.83 632.25,286.65 635.52,289.63 638.80,292.39 642.07,294.51 645.34,297.00 648.62,298.37 651.89,299.32 655.17,299.92 658.44,299.73 661.71,300.61 664.99,300.87 668.26,300.92 671.54,300.27 674.81,299.02 678.08,298.19 681.36,296.51 684.63,294.66 687.91,291.73 691.18,288.28 694.46,286.25 697.73,283.29 701.00,280.42 704.28,277.92 707.55,275.33 710.83,272.02 714.10,269.76 717.37,267.60 720.65,264.26 723.92,261.79 727.20,257.56 730.47,253.62 733.75,249.91 737.02,245.39 740.29,240.74 743.57,235.75 746.84,231.25 750.12,226.42 753.39,222.25 756.66,218.80 759.94,214.24 763.21,210.20 766.49,205.82 769.76,200.58 773.03,194.93 776.31,189.37 779.58,183.50 782.86,177.85 786.13,174.21 789.41,168.89 792.68,165.26 795.95,161.95 799.23,159.17 802.50,158.00 805.78,158.29 809.05,158.74 812.32,159.18 815.60,160.16 818.87,160.69 822.15,160.49 825.42,160.91 828.69,161.49 831.97,162.59 835.24,164.59 838.52,166.70 841.79,171.62 845.07,175.58 848.34,179.75 851.61,182.09 854.89,184.96 858.16,185.18 861.44,184.99 864.71,184.53 867.98,182.90 871.26,179.36 874.53,176.09 877.81,173.10 881.08,169.83 884.36,165.55 887.63,160.86 890.90,155.65 894.18,151.71 897.45,147.47 900.73,143.12 904.00,139.18" />
<text x="780.00" y="82.00" font-size="14" font-family="Arial" fill="#2ca02c" text-anchor="start">MA20</text>
<polyline fill="none" stroke="#ff7f0e" stroke-width="2" points="249.17,368.06 252.45,365.96 255.72,363.76 259.00,361.51 262.27,359.48 265.54,357.86 268.82,356.18 272.09,354.55 275.37,352.94 278.64,351.40 281.92,349.62 285.19,347.40 288.46,345.15 291.74,342.98 295.01,340.66 298.29,338.11 301.56,335.06 304.83,332.04 308.11,328.97 311.38,326.30 314.66,323.98 317.93,322.15 321.20,320.19 324.48,318.33 327.75,316.66 331.03,315.03 334.30,313.28 337.58,311.24 340.85,309.26 344.12,307.10 347.40,304.91 350.67,303.08 353.95,301.22 357.22,299.41 360.49,297.76 363.77,295.97 367.04,293.95 370.32,291.77 373.59,289.97 376.86,288.17 380.14,286.17 383.41,283.94 386.69,281.65 389.96,279.16 393.24,276.92 396.51,274.90 399.78,273.03 403.06,271.16 406.33,269.36 409.61,267.49 412.88,266.17 416.15,265.31 419.43,264.50 422.70,263.58 425.98,262.80 429.25,262.07 432.53,261.24 435.80,260.35 439.07,259.51 442.35,258.74 445.62,258.04 448.90,257.33 452.17,256.65 455.44,256.22 458.72,255.83 461.99,255.13 465.27,254.59 468.54,254.05 471.81,253.54 475.09,252.90 478.36,252.54 481.64,252.71 484.91,253.03 488.19,253.56 491.46,254.10 494.73,254.75 498.01,255.69 501.28,256.30 504.56,256.81 507.83,257.49 511.10,258.03 514.38,258.46 517.65,258.45 520.93,258.46 524.20,258.14 527.47,257.79 530.75,257.39 534.02,257.41 537.30,257.39 540.57,257.26 543.85,257.74 547.12,258.26 550.39,258.41 553.67,258.60 556.94,258.85 560.22,259.15 563.49,259.59 566.76,259.80 570.04,259.94 573.31,260.19 576.59,261.05 579.86,262.02 583.14,262.95 586.41,263.77 589.68,264.61 592.96,265.53 596.23,266.32 599.51,267.13 602.78,267.91 606.05,268.93 609.33,270.02 612.60,271.01 615.88,271.80 619.15,272.81 622.42,273.93 625.70,274.98 628.97,275.92 632.25,276.93 635.52,277.87 638.80,278.82 642.07,279.92 645.34,281.07 648.62,281.84 651.89,282.37 655.17,282.65 658.44,282.71 661.71,282.95 664.99,282.96 668.26,282.94 671.54,282.95 674.81,282.98 678.08,282.94 681.36,282.43 684.63,281.65 687.91,280.60 691.18,279.46 694.46,278.62 697.73,277.79 701.00,277.08 704.28,276.40 707.55,275.96 710.83,275.43 714.10,275.42 717.37,275.32 720.65,275.14 723.92,275.09 727.20,274.79 730.47,274.20 733.75,273.57 737.02,272.75 740.29,271.32 743.57,269.52 746.84,267.90 750.12,266.33 753.39,264.50 756.66,262.96 759.94,261.44 763.21,260.05 766.49,258.62 769.76,256.96 773.03,254.92 776.31,252.79 779.58,250.54 782.86,248.26 786.13,246.13 789.41,243.47 792.68,241.14 795.95,238.82 799.23,236.67 802.50,234.55 805.78,232.68 809.05,230.89 812.32,228.98 815.60,227.08 818.87,224.89 822.15,222.52 825.42,220.47 828.69,218.33 831.97,216.28 835.24,214.37 838.52,212.32 841.79,211.00 845.07,209.61 848.34,208.40 851.61,206.85 854.89,205.21 858.16,202.67 861.44,200.19 864.71,197.87 867.98,195.43 871.26,192.80 874.53,190.19 877.81,187.84 881.08,185.47 884.36,182.83 887.63,180.05 890.90,176.93 894.18,174.47 897.45,171.96 900.73,169.43 904.00,166.94" />
<text x="780.00" y="104.00" font-size="14" font-family="Arial" fill="#ff7f0e" text-anchor="start">MA60</text>
<polyline fill="none" stroke="#d62728" stroke-width="2" points="707.55,299.34 710.83,298.51 714.10,297.65 717.37,296.79 720.65,295.82 723.92,294.89 727.20,293.87 730.47,292.83 733.75,291.82 737.02,290.72 740.29,289.62 743.57,288.49 746.84,287.31 750.12,286.10 753.39,284.83 756.66,283.58 759.94,282.23 763.21,280.86 766.49,279.44 769.76,278.11 773.03,276.88 776.31,275.75 779.58,274.56 782.86,273.42 786.13,272.40 789.41,271.26 792.68,270.17 795.95,269.05 799.23,267.98 802.50,266.93 805.78,266.02 809.05,265.13 812.32,264.18 815.60,263.32 818.87,262.40 822.15,261.47 825.42,260.58 828.69,259.63 831.97,258.82 835.24,258.06 838.52,257.31 841.79,256.79 845.07,256.10 848.34,255.33 851.61,254.51 854.89,253.67 858.16,252.66 861.44,251.63 864.71,250.63 867.98,249.58 871.26,248.60 874.53,247.77 877.81,246.89 881.08,246.02 884.36,245.04 887.63,243.96 890.90,242.85 894.18,241.85 897.45,240.85 900.73,239.89 904.00,239.00" />
<text x="780.00" y="126.00" font-size="14" font-family="Arial" fill="#d62728" text-anchor="start">MA200</text>
</svg>