<svg xmlns="http://www.w3.org/2000/svg" width="960" height="520" viewBox="0 0 960 520"><rect width="100%" height="100%" fill="white" />
<text x="56.00" y="32.00" font-size="20" font-family="Arial" fill="#1f2933" text-anchor="start">AAPL Price and Moving Averages</text>
<line x1="56" y1="464" x2="904" y2="464" stroke="#cbd2d9" />
<line x1="56" y1="56" x2="56" y2="464" stroke="#cbd2d9" />
<text x="16.00" y="38.00" font-size="12" font-family="Arial" fill="#52606d" text-anchor="start">Price</text>
<line x1="56" y1="464.00" x2="904" y2="464.00" stroke="#edf2f7" />
<line x1="52" y1="464.00" x2="56" y2="464.00" stroke="#9fb3c8" />
<text x="48.00" y="468.00" font-size="11" font-family="Arial" fill="#52606d" text-anchor="end">193</text>
<line x1="56" y1="362.00" x2="904" y2="362.00" stroke="#edf2f7" />
<line x1="52" y1="362.00" x2="56" y2="362.00" stroke="#9fb3c8" />
<text x="48.00" y="366.00" font-size="11" font-family="Arial" fill="#52606d" text-anchor="end">226</text>
<line x1="56" y1="260.00" x2="904" y2="260.00" stroke="#edf2f7" />
<line x1="52" y1="260.00" x2="56" y2="260.00" stroke="#9fb3c8" />
<text x="48.00" y="264.00" font-size="11" font-family="Arial" fill="#52606d" text-anchor="end">258</text>
<line x1="56" y1="158.00" x2="904" y2="158.00" stroke="#edf2f7" />
<line x1="52" y1="158.00" x2="56" y2="158.00" stroke="#9fb3c8" />
<text x="48.00" y="162.00" font-size="11" font-family="Arial" fill="#52606d" text-anchor="end">291</text>
<line x1="56" y1="56.00" x2="904" y2="56.00" stroke="#edf2f7" />
<line x1="52" y1="56.00" x2="56" y2="56.00" stroke="#9fb3c8" />
<text x="48.00" y="60.00" font-size="11" font-family="Arial" fill="#52606d" text-anchor="end">323</text>
<line x1="56.00" y1="464" x2="56.00" y2="468" stroke="#9fb3c8" />
<text x="56.00" y="482.00" font-size="11" font-family="Arial" fill="#52606d" text-anchor="middle">06/26</text>
<line x1="226.25" y1="464" x2="226.25" y2="468" stroke="#9fb3c8" />
<text x="226.25" y="482.00" font-size="11" font-family="Arial" fill="#52606d" text-anchor="middle">09/10</text>
<line x1="396.51" y1="464" x2="396.51" y2="468" stroke="#9fb3c8" />
<text x="396.51" y="482.00" font-size="11" font-family="Arial" fill="#52606d" text-anchor="middle">11/21</text>
<line x1="563.49" y1="464" x2="563.49" y2="468" stroke="#9fb3c8" />
<text x="563.49" y="482.00" font-size="11" font-family="Arial" fill="#52606d" text-anchor="middle">02/06</text>
<line x1="733.75" y1="464" x2="733.75" y2="468" stroke="#9fb3c8" />
<text x="733.75" y="482.00" font-size="11" font-family="Arial" fill="#52606d" text-anchor="middle">04/23</text>
<line x1="904.00" y1="464" x2="904.00" y2="468" stroke="#9fb3c8" />
<text x="904.00" y="482.00" font-size="11" font-family="Arial" fill="#52606d" text-anchor="middle">07/09</text>
<polyline fill="none" stroke="#1f77b4" stroke-width="2" points="56.00,442.14 59.27,441.89 62.55,429.10 65.82,420.81 69.10,406.36 72.37,402.89 75.64,414.15 78.92,413.96 82.19,410.43 85.47,406.46 88.74,410.37 92.02,418.31 95.29,416.78 98.56,413.49 101.84,413.93 105.11,410.30 108.39,406.24 111.66,400.23 114.93,401.01 118.21,402.23 121.48,401.86 124.76,401.33 128.03,410.02 131.31,416.97 134.58,421.59 137.85,437.83 141.13,434.79 144.40,436.14 147.68,403.83 150.95,382.62 154.22,353.48 157.50,359.46 160.77,351.72 164.05,340.20 167.32,341.92 170.59,345.65 173.87,347.84 177.14,348.87 180.42,363.12 183.69,366.59 186.97,357.64 190.24,359.52 193.51,352.79 196.79,349.09 200.06,342.61 203.34,343.93 206.61,351.50 209.88,324.11 213.16,320.00 216.43,320.29 219.71,325.95 222.98,337.01 226.25,360.68 229.53,350.53 232.80,337.88 236.08,329.65 239.35,325.11 242.63,322.48 245.90,325.95 249.17,302.09 252.45,268.97 255.72,274.13 259.00,280.77 262.27,266.49 265.54,270.91 268.82,274.13 272.09,273.51 275.37,270.94 278.64,265.68 281.92,262.89 285.19,267.06 288.46,267.71 291.74,262.77 295.01,275.35 298.29,302.81 301.56,295.33 304.83,294.99 308.11,290.07 311.38,295.99 314.66,280.83 317.93,249.68 321.20,248.02 324.48,261.54 327.75,258.01 331.03,247.86 334.30,229.11 337.58,228.51 340.85,226.32 344.12,221.00 347.40,224.22 350.67,228.35 353.95,225.25 357.22,224.94 360.49,226.10 363.77,230.17 367.04,226.35 370.32,208.11 373.59,213.68 376.86,215.31 380.14,217.01 383.41,232.52 386.69,232.58 389.96,229.07 393.24,236.31 396.51,219.89 399.78,206.01 403.06,202.72 406.33,200.90 409.61,196.82 412.88,183.50 416.15,173.82 419.43,180.21 422.70,191.02 425.98,197.04 429.25,199.83 432.53,202.06 435.80,197.04 439.07,199.39 442.35,198.61 445.62,211.68 448.90,210.11 452.17,218.79 455.44,217.70 458.72,213.06 461.99,221.52 465.27,217.16 468.54,212.62 471.81,213.90 475.09,212.78 478.36,214.91 481.64,218.73 484.91,221.40 488.19,233.15 491.46,248.51 494.73,254.87 498.01,258.91 501.28,257.88 504.56,255.12 507.83,252.61 511.10,256.03 514.38,261.51 517.65,269.91 520.93,297.59 524.20,294.61 527.47,292.42 530.75,293.39 534.02,270.29 537.30,261.32 540.57,267.06 543.85,261.29 547.12,257.53 550.39,224.53 553.67,226.19 556.94,204.22 560.22,206.04 563.49,199.11 566.76,209.28 570.04,212.22 573.31,206.51 576.59,249.71 579.86,268.38 583.14,242.97 586.41,241.49 589.68,253.32 592.96,240.77 596.23,235.75 599.51,217.06 602.78,210.50 606.05,214.51 609.33,242.03 612.60,240.33 615.88,243.38 619.15,247.23 622.42,254.23 625.70,263.11 628.97,255.52 632.25,252.54 635.52,252.60 638.80,268.44 642.07,286.13 645.34,277.66 648.62,273.24 651.89,286.70 655.17,289.77 658.44,292.82 661.71,281.84 664.99,281.37 668.26,278.29 671.54,277.44 674.81,290.28 678.08,297.08 681.36,274.62 684.63,268.85 687.91,267.94 691.18,258.72 694.46,275.53 697.73,258.59 701.00,253.60 704.28,253.63 707.55,257.65 710.83,258.81 714.10,234.97 717.37,244.47 720.65,223.05 723.92,214.20 727.20,235.78 730.47,213.82 733.75,213.01 737.02,220.44 740.29,231.27 743.57,221.54 746.84,223.24 750.12,219.53 753.39,191.96 756.66,202.34 759.94,179.28 763.21,168.84 766.49,169.06 769.76,150.61 773.03,151.77 776.31,145.12 779.58,132.34 782.86,134.41 786.13,128.07 789.41,135.57 792.68,132.02 795.95,121.72 799.23,113.12 802.50,101.09 805.78,102.63 809.05,94.72 812.32,89.51 815.60,90.92 818.87,108.97 822.15,81.06 825.42,96.57 828.69,93.53 831.97,105.74 835.24,123.95 838.52,158.46 841.79,155.23 845.07,142.51 848.34,156.64 851.61,140.03 854.89,131.17 858.16,141.51 861.44,135.04 864.71,138.18 867.98,146.69 871.26,150.52 874.53,206.82 877.81,179.72 881.08,186.12 884.36,162.20 887.63,146.43 890.90,101.69 894.18,89.04 897.45,95.32 900.73,86.74 904.00,77.86" />
<text x="780.00" y="60.00" font-size="14" font-family="Arial" fill="#1f77b4" text-anchor="start">Close</text>
<polyline fill="none" stroke="#2ca02c" stroke-width="2" points="118.21,414.06 121.48,412.04 124.76,410.01 128.03,409.06 131.31,408.87 134.58,409.63 137.85,411.38 141.13,412.41 144.40,413.52 147.68,413.19 150.95,411.99 154.22,409.15 157.50,406.21 160.77,402.95 164.05,399.29 167.32,395.69 170.59,392.46 173.87,389.54 177.14,386.97 180.42,385.07 183.69,383.29 186.97,381.08 190.24,378.99 193.51,376.13 196.79,372.73 200.06,368.79 203.34,364.09 206.61,359.93 209.88,354.32 213.16,350.13 216.43,347.02 219.71,345.64 222.98,344.52 226.25,344.96 229.53,345.48 232.80,345.28 236.08,344.48 239.35,343.34 242.63,342.02 245.90,340.16 249.17,336.94 252.45,332.51 255.72,328.24 259.00,324.64 262.27,320.51 265.54,316.92 268.82,313.43 272.09,309.53 275.37,306.87 278.64,304.16 281.92,301.29 285.19,298.34 288.46,294.88 291.74,289.98 295.01,286.22 298.29,284.47 301.56,282.75 304.83,281.25 308.11,279.63 311.38,278.13 314.66,277.07 317.93,276.10 321.20,274.80 324.48,273.83 327.75,273.41 331.03,272.26 334.30,270.01 337.58,267.76 340.85,265.53 344.12,263.29 347.40,261.36 350.67,259.42 353.95,257.30 357.22,255.41 360.49,252.95 363.77,249.31 367.04,245.87 370.32,241.52 373.59,237.70 376.86,233.67 380.14,230.48 383.41,229.62 386.69,228.85 389.96,227.22 393.24,226.14 396.51,224.74 399.78,223.59 403.06,222.30 406.33,221.03 409.61,219.82 412.88,217.78 416.15,215.05 419.43,212.80 422.70,211.11 425.98,209.65 429.25,208.14 432.53,206.92 435.80,206.37 439.07,205.65 442.35,204.82 445.62,204.55 448.90,203.43 452.17,202.74 455.44,202.17 458.72,201.01 461.99,201.09 465.27,201.65 468.54,202.14 471.81,202.80 475.09,203.59 478.36,205.16 481.64,207.41 484.91,209.47 488.19,211.57 491.46,214.15 494.73,216.90 498.01,219.74 501.28,222.78 504.56,225.57 507.83,228.27 511.10,230.49 514.38,233.06 517.65,235.61 520.93,239.61 524.20,243.69 527.47,247.23 530.75,251.04 534.02,253.92 537.30,256.30 540.57,259.01 543.85,261.33 547.12,263.27 550.39,263.43 553.67,263.08 556.94,260.86 560.22,258.42 563.49,255.43 566.76,253.00 570.04,250.86 573.31,248.55 576.59,248.24 579.86,248.58 583.14,247.23 586.41,244.43 589.68,242.36 592.96,239.78 596.23,236.90 599.51,234.24 602.78,231.70 606.05,229.07 609.33,228.11 612.60,227.25 615.88,228.19 619.15,229.24 622.42,231.74 625.70,234.59 628.97,237.42 632.25,239.58 635.52,241.60 638.80,244.69 642.07,246.51 645.34,246.98 648.62,248.49 651.89,250.75 655.17,252.58 658.44,255.18 661.71,257.48 664.99,260.70 668.26,264.09 671.54,267.23 674.81,269.65 678.08,272.48 681.36,274.05 684.63,275.13 687.91,275.81 691.18,275.59 694.46,276.59 697.73,276.90 701.00,276.95 704.28,276.21 707.55,274.78 710.83,273.84 714.10,271.93 717.37,269.81 720.65,266.48 723.92,262.55 727.20,260.24 730.47,256.87 733.75,253.60 737.02,250.75 740.29,247.80 743.57,244.03 746.84,241.46 750.12,238.99 753.39,235.19 756.66,232.37 759.94,227.56 763.21,223.07 766.49,218.85 769.76,213.69 773.03,208.40 776.31,202.72 779.58,197.58 782.86,192.08 786.13,187.33 789.41,183.40 792.68,178.21 795.95,173.61 799.23,168.61 802.50,162.64 805.78,156.21 809.05,149.87 812.32,143.19 815.60,136.75 818.87,132.61 822.15,126.54 825.42,122.41 828.69,118.64 831.97,115.47 835.24,114.14 838.52,114.48 841.79,114.98 845.07,115.49 848.34,116.60 851.61,117.20 854.89,116.98 858.16,117.45 861.44,118.12 864.71,119.37 867.98,121.65 871.26,124.05 874.53,129.65 877.81,134.16 881.08,138.92 884.36,141.58 887.63,144.85 890.90,145.11 894.18,144.88 897.45,144.36 900.73,142.50 904.00,138.47" />
<text x="780.00" y="82.00" font-size="14" font-family="Arial" fill="#2ca02c" text-anchor="start">MA20</text>
<polyline fill="none" stroke="#ff7f0e" stroke-width="2" points="249.17,378.10 252.45,375.21 255.72,372.41 259.00,369.94 262.27,367.37 265.54,365.11 268.82,362.97 272.09,360.62 275.37,358.24 278.64,355.83 281.92,353.43 285.19,351.04 288.46,348.53 291.74,345.97 295.01,343.66 298.29,341.81 301.56,339.90 304.83,338.04 308.11,336.21 311.38,334.46 314.66,332.43 317.93,329.90 321.20,327.34 324.48,324.87 327.75,322.22 331.03,319.32 334.30,315.84 337.58,312.40 340.85,308.91 344.12,305.86 347.40,303.22 350.67,301.14 353.95,298.90 357.22,296.79 360.49,294.88 363.77,293.02 367.04,291.03 370.32,288.70 373.59,286.45 376.86,283.99 380.14,281.49 383.41,279.41 386.69,277.29 389.96,275.23 393.24,273.35 396.51,271.31 399.78,269.01 403.06,266.53 406.33,264.47 409.61,262.42 412.88,260.14 416.15,257.61 419.43,254.99 422.70,252.17 425.98,249.61 429.25,247.31 432.53,245.18 435.80,243.05 439.07,240.99 442.35,238.87 445.62,237.37 448.90,236.38 452.17,235.46 455.44,234.41 458.72,233.52 461.99,232.70 465.27,231.75 468.54,230.73 471.81,229.78 475.09,228.90 478.36,228.10 481.64,227.30 484.91,226.52 488.19,226.03 491.46,225.58 494.73,224.78 498.01,224.18 501.28,223.56 504.56,222.98 507.83,222.25 511.10,221.84 514.38,222.04 517.65,222.40 520.93,223.00 524.20,223.61 527.47,224.35 530.75,225.43 534.02,226.12 537.30,226.71 540.57,227.47 543.85,228.09 547.12,228.58 550.39,228.57 553.67,228.59 556.94,228.22 560.22,227.82 563.49,227.37 566.76,227.38 570.04,227.36 573.31,227.21 576.59,227.76 579.86,228.36 583.14,228.53 586.41,228.74 589.68,229.02 592.96,229.37 596.23,229.86 599.51,230.10 602.78,230.26 606.05,230.56 609.33,231.53 612.60,232.64 615.88,233.69 619.15,234.63 622.42,235.58 625.70,236.64 628.97,237.53 632.25,238.45 635.52,239.34 638.80,240.51 642.07,241.75 645.34,242.87 648.62,243.78 651.89,244.93 655.17,246.21 658.44,247.40 661.71,248.47 664.99,249.62 668.26,250.69 671.54,251.77 674.81,253.03 678.08,254.33 681.36,255.22 684.63,255.82 687.91,256.14 691.18,256.20 694.46,256.48 697.73,256.49 701.00,256.47 704.28,256.48 707.55,256.51 710.83,256.47 714.10,255.88 717.37,255.00 720.65,253.81 723.92,252.50 727.20,251.54 730.47,250.60 733.75,249.80 737.02,249.02 740.29,248.52 743.57,247.92 746.84,247.90 750.12,247.79 753.39,247.58 756.66,247.52 759.94,247.19 763.21,246.52 766.49,245.80 769.76,244.86 773.03,243.23 776.31,241.18 779.58,239.33 782.86,237.55 786.13,235.46 789.41,233.71 792.68,231.98 795.95,230.39 799.23,228.77 802.50,226.88 805.78,224.55 809.05,222.13 812.32,219.56 815.60,216.96 818.87,214.54 822.15,211.50 825.42,208.85 828.69,206.20 831.97,203.76 835.24,201.35 838.52,199.22 841.79,197.18 845.07,195.00 848.34,192.83 851.61,190.34 854.89,187.64 858.16,185.30 861.44,182.86 864.71,180.53 867.98,178.35 871.26,176.02 874.53,174.52 877.81,172.93 881.08,171.56 884.36,169.79 887.63,167.92 890.90,165.02 894.18,162.20 897.45,159.56 900.73,156.78 904.00,153.78" />
<text x="780.00" y="104.00" font-size="14" font-family="Arial" fill="#ff7f0e" text-anchor="start">MA60</text>
<polyline fill="none" stroke="#d62728" stroke-width="2" points="707.55,284.64 710.83,283.72 714.10,282.69 717.37,281.77 720.65,280.78 723.92,279.82 727.20,278.98 730.47,277.98 733.75,276.97 737.02,276.02 740.29,275.15 743.57,274.20 746.84,273.23 750.12,272.24 753.39,271.13 756.66,270.08 759.94,268.92 763.21,267.73 766.49,266.58 769.76,265.33 773.03,264.07 776.31,262.79 779.58,261.45 782.86,260.07 786.13,258.62 789.41,257.19 792.68,255.66 795.95,254.10 799.23,252.48 802.50,250.97 805.78,249.57 809.05,248.28 812.32,246.93 815.60,245.62 818.87,244.47 822.15,243.16 825.42,241.92 828.69,240.65 831.97,239.43 835.24,238.23 838.52,237.19 841.79,236.18 845.07,235.10 848.34,234.12 851.61,233.07 854.89,232.01 858.16,231.00 861.44,229.92 864.71,228.99 867.98,228.12 871.26,227.27 874.53,226.68 877.81,225.89 881.08,225.02 884.36,224.08 887.63,223.12 890.90,221.98 894.18,220.80 897.45,219.66 900.73,218.47 904.00,217.35" />
<text x="780.00" y="126.00" font-size="14" font-family="Arial" fill="#d62728" text-anchor="start">MA200</text>
</svg>