<svg xmlns="http://www.w3.org/2000/svg" width="960" height="520" viewBox="0 0 960 520"><rect width="100%" height="100%" fill="white" />
<text x="56.00" y="32.00" font-size="20" font-family="Arial" fill="#1f2933" text-anchor="start">AMD Price and Moving Averages</text>
<line x1="56" y1="464" x2="904" y2="464" stroke="#cbd2d9" />
<line x1="56" y1="56" x2="56" y2="464" stroke="#cbd2d9" />
<text x="16.00" y="38.00" font-size="12" font-family="Arial" fill="#52606d" text-anchor="start">Price</text>
<line x1="56" y1="464.00" x2="904" y2="464.00" stroke="#edf2f7" />
<line x1="52" y1="464.00" x2="56" y2="464.00" stroke="#9fb3c8" />
<text x="48.00" y="468.00" font-size="11" font-family="Arial" fill="#52606d" text-anchor="end">103</text>
<line x1="56" y1="362.00" x2="904" y2="362.00" stroke="#edf2f7" />
<line x1="52" y1="362.00" x2="56" y2="362.00" stroke="#9fb3c8" />
<text x="48.00" y="366.00" font-size="11" font-family="Arial" fill="#52606d" text-anchor="end">229</text>
<line x1="56" y1="260.00" x2="904" y2="260.00" stroke="#edf2f7" />
<line x1="52" y1="260.00" x2="56" y2="260.00" stroke="#9fb3c8" />
<text x="48.00" y="264.00" font-size="11" font-family="Arial" fill="#52606d" text-anchor="end">355</text>
<line x1="56" y1="158.00" x2="904" y2="158.00" stroke="#edf2f7" />
<line x1="52" y1="158.00" x2="56" y2="158.00" stroke="#9fb3c8" />
<text x="48.00" y="162.00" font-size="11" font-family="Arial" fill="#52606d" text-anchor="end">482</text>
<line x1="56" y1="56.00" x2="904" y2="56.00" stroke="#edf2f7" />
<line x1="52" y1="56.00" x2="56" y2="56.00" stroke="#9fb3c8" />
<text x="48.00" y="60.00" font-size="11" font-family="Arial" fill="#52606d" text-anchor="end">608</text>
<line x1="56.00" y1="464" x2="56.00" y2="468" stroke="#9fb3c8" />
<text x="56.00" y="482.00" font-size="11" font-family="Arial" fill="#52606d" text-anchor="middle">06/23</text>
<line x1="226.25" y1="464" x2="226.25" y2="468" stroke="#9fb3c8" />
<text x="226.25" y="482.00" font-size="11" font-family="Arial" fill="#52606d" text-anchor="middle">09/05</text>
<line x1="396.51" y1="464" x2="396.51" y2="468" stroke="#9fb3c8" />
<text x="396.51" y="482.00" font-size="11" font-family="Arial" fill="#52606d" text-anchor="middle">11/18</text>
<line x1="563.49" y1="464" x2="563.49" y2="468" stroke="#9fb3c8" />
<text x="563.49" y="482.00" font-size="11" font-family="Arial" fill="#52606d" text-anchor="middle">02/03</text>
<line x1="733.75" y1="464" x2="733.75" y2="468" stroke="#9fb3c8" />
<text x="733.75" y="482.00" font-size="11" font-family="Arial" fill="#52606d" text-anchor="middle">04/20</text>
<line x1="904.00" y1="464" x2="904.00" y2="468" stroke="#9fb3c8" />
<text x="904.00" y="482.00" font-size="11" font-family="Arial" fill="#52606d" text-anchor="middle">07/06</text>
<polyline fill="none" stroke="#1f77b4" stroke-width="2" points="56.00,442.14 59.27,435.00 62.55,430.99 65.82,430.76 69.10,430.66 72.37,432.20 75.64,436.87 78.92,434.93 82.19,435.42 85.47,437.93 88.74,435.49 92.02,435.02 95.29,430.37 98.56,428.55 101.84,428.70 105.11,421.13 108.39,417.53 111.66,417.26 114.93,420.02 118.21,420.01 121.48,421.85 124.76,418.68 128.03,415.88 131.31,412.37 134.58,406.56 137.85,403.51 141.13,401.84 144.40,404.43 147.68,408.15 150.95,404.05 154.22,406.04 157.50,415.07 160.77,407.58 164.05,407.29 167.32,407.68 170.59,405.52 173.87,397.88 177.14,400.68 180.42,403.46 183.69,404.56 186.97,412.30 190.24,413.39 193.51,414.60 196.79,411.33 200.06,414.88 203.34,412.25 206.61,411.83 209.88,410.66 213.16,415.47 216.43,415.72 219.71,415.87 222.98,416.14 226.25,424.74 229.53,424.52 232.80,420.96 236.08,417.96 239.35,421.08 242.63,418.74 245.90,416.65 249.17,417.22 252.45,418.27 255.72,419.27 259.00,419.70 262.27,417.76 265.54,416.86 268.82,416.88 272.09,416.56 275.37,418.03 278.64,416.49 281.92,416.14 285.19,414.35 288.46,409.74 291.74,413.82 295.01,382.31 298.29,376.01 301.56,356.60 304.83,358.76 308.11,373.28 311.38,372.05 314.66,370.70 317.93,354.15 321.20,357.41 324.48,358.60 327.75,352.57 331.03,354.61 334.30,360.90 337.58,357.06 340.85,342.59 344.12,337.14 347.40,338.48 350.67,333.38 353.95,341.04 357.22,340.01 360.49,337.16 363.77,344.91 367.04,339.84 370.32,354.88 373.59,358.23 376.86,349.81 380.14,355.02 383.41,337.77 386.69,346.59 389.96,347.52 393.24,352.60 396.51,360.86 399.78,366.30 403.06,380.45 406.33,382.25 409.61,373.16 412.88,380.36 416.15,373.81 419.43,371.16 422.70,369.36 425.98,373.00 429.25,371.10 432.53,372.41 435.80,370.80 439.07,368.27 442.35,367.85 445.62,368.02 448.90,368.01 452.17,376.60 455.44,379.19 458.72,377.90 461.99,386.83 465.27,384.45 468.54,374.46 471.81,373.24 475.09,373.28 478.36,373.16 481.64,373.21 484.91,372.70 488.19,372.92 491.46,373.88 494.73,366.36 498.01,368.29 501.28,373.72 504.56,377.22 507.83,381.53 511.10,382.75 514.38,379.10 517.65,368.38 520.93,366.26 524.20,362.77 527.47,359.61 530.75,359.54 534.02,345.11 537.30,341.94 540.57,337.13 543.85,343.89 547.12,343.31 550.39,342.74 553.67,343.19 556.94,355.66 560.22,347.96 563.49,351.32 566.76,385.15 570.04,391.36 573.31,378.49 576.59,372.39 579.86,374.35 583.14,374.34 586.41,380.51 589.68,379.40 592.96,382.82 596.23,385.21 599.51,382.58 602.78,385.18 606.05,388.05 609.33,374.13 612.60,376.54 615.88,382.33 619.15,385.13 622.42,386.42 625.70,392.61 628.97,383.63 632.25,385.75 635.52,391.41 638.80,383.14 642.07,382.70 645.34,381.41 648.62,387.13 651.89,390.64 655.17,388.06 658.44,388.28 661.71,385.74 664.99,381.05 668.26,384.23 671.54,383.14 674.81,380.97 678.08,368.94 681.36,382.26 684.63,383.70 687.91,388.50 691.18,382.54 694.46,377.06 697.73,371.18 701.00,369.02 704.28,367.93 707.55,359.62 710.83,355.73 714.10,348.95 717.37,347.51 720.65,340.86 723.92,338.39 727.20,322.14 730.47,322.03 733.75,324.81 737.02,317.11 740.29,301.80 743.57,300.29 746.84,266.00 750.12,276.64 753.39,285.86 756.66,274.64 759.94,260.61 763.21,255.73 766.49,271.06 769.76,259.99 773.03,206.61 776.31,217.05 779.58,179.33 782.86,176.42 786.13,184.90 789.41,187.15 792.68,183.76 795.95,204.42 799.23,206.93 802.50,212.54 805.78,185.47 809.05,183.85 812.32,169.39 815.60,140.02 818.87,146.76 822.15,128.56 825.42,130.17 828.69,134.99 831.97,125.78 835.24,108.84 838.52,124.44 841.79,170.30 845.07,150.97 848.34,162.93 851.61,181.58 854.89,152.49 858.16,133.82 861.44,105.02 864.71,137.28 867.98,133.09 871.26,113.00 874.53,101.49 877.81,127.14 881.08,127.23 884.36,116.87 887.63,125.74 890.90,111.29 894.18,77.86 897.45,110.17 900.73,128.78 904.00,101.15" />
<text x="780.00" y="60.00" font-size="14" font-family="Arial" fill="#1f77b4" text-anchor="start">Close</text>
<polyline fill="none" stroke="#2ca02c" stroke-width="2" points="118.21,430.05 121.48,429.03 124.76,428.22 128.03,427.46 131.31,426.54 134.58,425.34 137.85,423.90 141.13,422.15 144.40,420.63 147.68,419.26 150.95,417.57 154.22,416.10 157.50,415.10 160.77,413.96 164.05,412.90 167.32,411.85 170.59,411.07 173.87,410.08 177.14,409.25 180.42,408.43 183.69,407.65 186.97,407.18 190.24,406.91 193.51,406.85 196.79,406.80 200.06,407.21 203.34,407.65 206.61,408.15 209.88,408.46 213.16,408.83 216.43,409.41 219.71,409.90 222.98,409.95 226.25,410.81 229.53,411.67 232.80,412.34 236.08,412.96 239.35,414.12 242.63,415.02 245.90,415.68 249.17,416.32 252.45,416.61 255.72,416.91 259.00,417.16 262.27,417.49 265.54,417.58 268.82,417.82 272.09,418.05 275.37,418.42 278.64,418.47 281.92,418.49 285.19,418.42 288.46,418.10 291.74,417.55 295.01,415.44 298.29,413.19 301.56,410.12 304.83,407.01 308.11,404.74 311.38,402.51 314.66,400.18 317.93,396.97 321.20,393.88 324.48,390.83 327.75,387.57 331.03,384.45 334.30,381.65 337.58,378.68 340.85,374.91 344.12,370.94 347.40,367.06 350.67,363.01 353.95,359.57 357.22,355.88 360.49,353.63 363.77,352.07 367.04,351.23 370.32,351.04 373.59,350.29 376.86,349.17 380.14,348.39 383.41,347.57 386.69,347.03 389.96,346.48 393.24,346.48 396.51,346.79 399.78,347.06 403.06,348.23 406.33,350.21 409.61,352.01 412.88,354.11 416.15,356.13 419.43,357.63 422.70,359.10 425.98,360.89 429.25,362.20 432.53,363.83 435.80,364.63 439.07,365.13 442.35,366.03 445.62,366.68 448.90,368.19 452.17,369.69 455.44,371.28 458.72,372.54 461.99,373.84 465.27,374.75 468.54,374.45 471.81,374.00 475.09,374.00 478.36,373.64 481.64,373.61 484.91,373.69 488.19,373.87 491.46,373.91 494.73,373.68 498.01,373.47 501.28,373.62 504.56,374.06 507.83,374.75 511.10,375.48 514.38,376.04 517.65,375.63 520.93,374.98 524.20,374.22 527.47,372.86 530.75,371.62 534.02,370.15 537.30,368.59 540.57,366.78 543.85,365.31 547.12,363.82 550.39,362.32 553.67,360.83 556.94,359.92 560.22,359.00 563.49,358.15 566.76,358.73 570.04,359.43 573.31,359.28 576.59,358.76 579.86,358.53 583.14,358.82 586.41,359.54 589.68,360.37 592.96,361.53 596.23,362.81 599.51,364.69 602.78,366.85 606.05,369.39 609.33,370.91 612.60,372.57 615.88,374.55 619.15,376.65 622.42,378.18 625.70,380.42 628.97,382.03 632.25,382.06 635.52,382.06 638.80,382.30 642.07,382.81 645.34,383.16 648.62,383.80 651.89,384.31 655.17,384.74 658.44,385.02 661.71,385.04 664.99,384.97 668.26,384.92 671.54,384.67 674.81,385.02 678.08,384.64 681.36,384.63 684.63,384.56 687.91,384.66 691.18,384.16 694.46,383.83 697.73,383.10 701.00,381.98 704.28,381.22 707.55,380.07 710.83,378.79 714.10,376.88 717.37,374.72 720.65,372.36 723.92,369.87 727.20,366.69 730.47,363.73 733.75,360.76 737.02,357.46 740.29,353.50 743.57,350.07 746.84,344.26 750.12,338.90 753.39,333.77 756.66,328.38 759.94,322.55 763.21,316.78 766.49,311.88 769.76,306.49 773.03,298.84 776.31,291.90 779.58,283.42 782.86,274.87 786.13,267.07 789.41,259.51 792.68,252.59 795.95,246.71 799.23,240.82 802.50,235.59 805.78,229.77 809.05,223.95 812.32,219.12 815.60,212.29 818.87,205.33 822.15,198.03 825.42,191.51 828.69,185.47 831.97,178.20 835.24,170.65 838.52,166.54 841.79,164.20 845.07,162.78 848.34,162.11 851.61,161.94 854.89,160.21 858.16,157.71 861.44,152.74 864.71,149.26 867.98,145.29 871.26,141.66 874.53,137.55 877.81,135.43 881.08,134.79 884.36,133.30 887.63,133.16 890.90,132.21 894.18,129.36 897.45,128.58 900.73,129.57 904.00,128.41" />
<text x="780.00" y="82.00" font-size="14" font-family="Arial" fill="#2ca02c" text-anchor="start">MA20</text>
<polyline fill="none" stroke="#ff7f0e" stroke-width="2" points="249.17,418.01 252.45,417.61 255.72,417.35 259.00,417.16 262.27,416.94 265.54,416.71 268.82,416.46 272.09,416.12 275.37,415.84 278.64,415.52 281.92,415.16 285.19,414.81 288.46,414.38 291.74,414.11 295.01,413.34 298.29,412.46 301.56,411.38 304.83,410.40 308.11,409.67 311.38,408.87 314.66,408.05 317.93,406.92 321.20,405.90 324.48,404.95 327.75,403.95 331.03,403.08 334.30,402.37 337.58,401.63 340.85,400.60 344.12,399.41 347.40,398.32 350.67,397.11 353.95,395.88 357.22,394.75 360.49,393.58 363.77,392.53 367.04,391.44 370.32,390.72 373.59,390.01 376.86,389.12 380.14,388.30 383.41,387.05 386.69,385.94 389.96,384.82 393.24,383.84 396.51,382.94 399.78,382.18 403.06,381.65 406.33,381.18 409.61,380.47 412.88,379.89 416.15,379.18 419.43,378.43 422.70,377.51 425.98,376.65 429.25,375.82 432.53,375.06 435.80,374.22 439.07,373.38 442.35,372.57 445.62,371.75 448.90,370.91 452.17,370.20 455.44,369.53 458.72,368.86 461.99,368.36 465.27,367.82 468.54,367.12 471.81,366.37 475.09,365.65 478.36,364.94 481.64,364.25 484.91,363.63 488.19,362.95 491.46,362.81 494.73,362.65 498.01,362.84 501.28,363.09 504.56,363.16 507.83,363.32 511.10,363.52 514.38,363.93 517.65,364.12 520.93,364.24 524.20,364.41 527.47,364.50 530.75,364.48 534.02,364.28 537.30,364.26 540.57,364.26 543.85,364.35 547.12,364.52 550.39,364.55 553.67,364.60 556.94,364.91 560.22,364.96 563.49,365.15 566.76,365.66 570.04,366.21 573.31,366.69 576.59,366.98 579.86,367.59 583.14,368.05 586.41,368.60 589.68,369.04 592.96,369.41 596.23,369.73 599.51,369.76 602.78,369.81 606.05,370.06 609.33,369.96 612.60,370.00 615.88,370.19 619.15,370.45 622.42,370.67 625.70,371.03 628.97,371.22 632.25,371.47 635.52,371.85 638.80,372.11 642.07,372.35 645.34,372.58 648.62,372.75 651.89,372.94 655.17,373.11 658.44,373.14 661.71,373.16 664.99,373.27 668.26,373.45 671.54,373.62 674.81,373.75 678.08,373.67 681.36,373.83 684.63,374.01 687.91,374.26 691.18,374.53 694.46,374.67 697.73,374.63 701.00,374.49 704.28,374.27 707.55,373.88 710.83,373.49 714.10,373.17 717.37,372.86 720.65,372.49 723.92,372.14 727.20,371.51 730.47,371.13 733.75,370.84 737.02,370.51 740.29,369.81 743.57,369.09 746.84,367.81 750.12,366.70 753.39,365.54 756.66,364.32 759.94,362.81 763.21,360.65 766.49,358.64 769.76,356.67 773.03,353.91 776.31,351.28 779.58,348.03 782.86,344.63 786.13,341.39 789.41,338.13 792.68,334.77 795.95,331.80 799.23,328.83 802.50,325.91 805.78,322.76 809.05,319.55 812.32,316.00 815.60,311.92 818.87,307.92 822.15,303.52 825.42,299.30 828.69,295.12 831.97,290.69 835.24,286.12 838.52,281.82 841.79,278.30 845.07,274.36 848.34,270.57 851.61,267.12 854.89,263.19 858.16,259.00 861.44,254.40 864.71,250.28 867.98,246.11 871.26,241.65 874.53,237.19 877.81,232.94 881.08,228.66 884.36,224.13 887.63,219.85 890.90,215.43 894.18,210.54 897.45,206.22 900.73,202.24 904.00,197.93" />
<text x="780.00" y="104.00" font-size="14" font-family="Arial" fill="#ff7f0e" text-anchor="start">MA60</text>
<polyline fill="none" stroke="#d62728" stroke-width="2" points="707.55,386.64 710.83,386.21 714.10,385.78 717.37,385.36 720.65,384.91 723.92,384.45 727.20,383.90 730.47,383.32 733.75,382.77 737.02,382.18 740.29,381.50 743.57,380.83 746.84,379.98 750.12,379.21 753.39,378.50 756.66,377.73 759.94,376.93 763.21,376.12 766.49,375.39 769.76,374.59 773.03,373.52 776.31,372.49 779.58,371.30 782.86,370.10 786.13,368.96 789.41,367.87 792.68,366.77 795.95,365.78 799.23,364.79 802.50,363.81 805.78,362.72 809.05,361.61 812.32,360.38 815.60,359.04 818.87,357.74 822.15,356.35 825.42,354.97 828.69,353.66 831.97,352.28 835.24,350.81 838.52,349.41 841.79,348.20 845.07,346.89 848.34,345.63 851.61,344.48 854.89,343.17 858.16,341.77 861.44,340.24 864.71,338.87 867.98,337.46 871.26,335.95 874.53,334.38 877.81,332.93 881.08,331.44 884.36,329.90 887.63,328.43 890.90,326.90 894.18,325.18 897.45,323.64 900.73,322.20 904.00,320.62" />
<text x="780.00" y="126.00" font-size="14" font-family="Arial" fill="#d62728" text-anchor="start">MA200</text>
</svg>