<svg xmlns="http://www.w3.org/2000/svg" width="960" height="520" viewBox="0 0 960 520"><rect width="100%" height="100%" fill="white" />
<text x="56.00" y="32.00" font-size="20" font-family="Arial" fill="#1f2933" text-anchor="start">AMZN Price and Moving Averages</text>
<line x1="56" y1="464" x2="904" y2="464" stroke="#cbd2d9" />
<line x1="56" y1="56" x2="56" y2="464" stroke="#cbd2d9" />
<text x="16.00" y="38.00" font-size="12" font-family="Arial" fill="#52606d" text-anchor="start">Price</text>
<line x1="56" y1="464.00" x2="904" y2="464.00" stroke="#edf2f7" />
<line x1="52" y1="464.00" x2="56" y2="464.00" stroke="#9fb3c8" />
<text x="48.00" y="468.00" font-size="11" font-family="Arial" fill="#52606d" text-anchor="end">194</text>
<line x1="56" y1="362.00" x2="904" y2="362.00" stroke="#edf2f7" />
<line x1="52" y1="362.00" x2="56" y2="362.00" stroke="#9fb3c8" />
<text x="48.00" y="366.00" font-size="11" font-family="Arial" fill="#52606d" text-anchor="end">216</text>
<line x1="56" y1="260.00" x2="904" y2="260.00" stroke="#edf2f7" />
<line x1="52" y1="260.00" x2="56" y2="260.00" stroke="#9fb3c8" />
<text x="48.00" y="264.00" font-size="11" font-family="Arial" fill="#52606d" text-anchor="end">237</text>
<line x1="56" y1="158.00" x2="904" y2="158.00" stroke="#edf2f7" />
<line x1="52" y1="158.00" x2="56" y2="158.00" stroke="#9fb3c8" />
<text x="48.00" y="162.00" font-size="11" font-family="Arial" fill="#52606d" text-anchor="end">258</text>
<line x1="56" y1="56.00" x2="904" y2="56.00" stroke="#edf2f7" />
<line x1="52" y1="56.00" x2="56" y2="56.00" stroke="#9fb3c8" />
<text x="48.00" y="60.00" font-size="11" font-family="Arial" fill="#52606d" text-anchor="end">280</text>
<line x1="56.00" y1="464" x2="56.00" y2="468" stroke="#9fb3c8" />
<text x="56.00" y="482.00" font-size="11" font-family="Arial" fill="#52606d" text-anchor="middle">06/20</text>
<line x1="226.25" y1="464" x2="226.25" y2="468" stroke="#9fb3c8" />
<text x="226.25" y="482.00" font-size="11" font-family="Arial" fill="#52606d" text-anchor="middle">09/04</text>
<line x1="396.51" y1="464" x2="396.51" y2="468" stroke="#9fb3c8" />
<text x="396.51" y="482.00" font-size="11" font-family="Arial" fill="#52606d" text-anchor="middle">11/17</text>
<line x1="563.49" y1="464" x2="563.49" y2="468" stroke="#9fb3c8" />
<text x="563.49" y="482.00" font-size="11" font-family="Arial" fill="#52606d" text-anchor="middle">02/02</text>
<line x1="733.75" y1="464" x2="733.75" y2="468" stroke="#9fb3c8" />
<text x="733.75" y="482.00" font-size="11" font-family="Arial" fill="#52606d" text-anchor="middle">04/17</text>
<line x1="904.00" y1="464" x2="904.00" y2="468" stroke="#9fb3c8" />
<text x="904.00" y="482.00" font-size="11" font-family="Arial" fill="#52606d" text-anchor="middle">07/02</text>
<polyline fill="none" stroke="#1f77b4" stroke-width="2" points="56.00,390.03 59.27,395.87 62.55,375.31 65.82,379.04 69.10,354.51 72.37,324.97 75.64,343.66 78.92,338.55 82.19,341.13 85.47,324.44 88.74,324.16 92.02,343.80 95.29,328.60 98.56,329.94 101.84,316.75 105.11,313.54 108.39,310.39 111.66,325.49 114.93,322.20 118.21,311.44 121.48,296.29 124.76,305.03 128.03,301.11 131.31,282.28 134.58,286.05 137.85,279.60 141.13,288.11 144.40,292.03 147.68,273.29 150.95,365.84 154.22,380.66 157.50,370.62 160.77,329.70 164.05,325.78 167.32,327.89 170.59,334.53 173.87,333.72 177.14,318.95 180.42,288.25 183.69,288.01 186.97,285.82 190.24,302.45 193.51,322.53 196.79,331.42 200.06,298.48 203.34,302.79 206.61,299.11 209.88,297.15 213.16,285.29 216.43,297.72 219.71,315.22 222.98,312.11 226.25,265.78 229.53,281.80 232.80,265.02 236.08,253.55 239.35,291.36 242.63,293.18 245.90,301.78 249.17,286.10 252.45,273.58 255.72,285.19 259.00,287.06 262.27,285.86 265.54,304.27 268.82,337.35 272.09,339.74 275.37,349.59 278.64,341.80 281.92,330.37 285.19,342.80 288.46,337.73 291.74,329.22 295.01,343.09 298.29,336.44 301.56,332.24 304.83,315.79 308.11,303.74 311.38,358.10 314.66,340.41 317.93,358.00 321.20,361.92 324.48,367.18 327.75,374.02 331.03,357.57 334.30,331.04 337.58,350.55 340.85,335.53 344.12,320.62 347.40,307.42 350.67,296.52 353.95,291.50 357.22,327.07 360.49,224.96 363.77,178.20 367.04,200.58 370.32,196.37 373.59,230.60 376.86,224.05 380.14,204.97 383.41,201.63 386.69,225.05 389.96,256.70 393.24,270.52 396.51,279.22 399.78,328.55 403.06,327.89 406.33,354.42 409.61,337.45 412.88,310.72 416.15,294.52 419.43,296.95 422.70,277.54 425.98,274.39 429.25,271.81 432.53,281.56 435.80,297.19 439.07,295.19 442.35,307.81 445.62,302.88 448.90,284.43 452.17,291.60 455.44,311.15 458.72,328.60 461.99,328.51 465.27,334.67 468.54,308.43 471.81,305.61 475.09,300.44 478.36,282.71 481.64,281.56 484.91,280.89 488.19,283.04 491.46,280.84 494.73,289.02 498.01,309.67 501.28,278.31 504.56,240.69 507.83,237.67 511.10,215.06 514.38,209.85 517.65,214.20 520.93,232.70 524.20,261.15 527.47,253.83 530.75,249.34 534.02,288.16 537.30,286.68 540.57,272.19 543.85,249.15 547.12,252.69 550.39,222.76 553.67,230.74 556.94,236.86 560.22,248.48 563.49,230.98 566.76,251.73 570.04,278.64 573.31,327.89 576.59,387.02 579.86,394.67 583.14,403.08 586.41,416.85 589.68,438.27 592.96,442.14 596.23,430.86 599.51,413.46 602.78,413.12 606.05,388.03 609.33,411.16 612.60,395.44 615.88,385.49 619.15,398.50 622.42,388.55 625.70,396.25 628.97,394.62 632.25,355.95 635.52,345.81 638.80,373.21 642.07,371.87 645.34,367.85 648.62,375.88 651.89,390.80 655.17,399.69 658.44,380.23 661.71,363.69 664.99,389.17 668.26,394.48 671.54,410.69 674.81,387.88 678.08,401.75 681.36,380.38 684.63,400.31 687.91,439.51 691.18,431.82 694.46,396.82 697.73,385.83 701.00,389.65 704.28,375.21 707.55,370.53 710.83,334.77 714.10,275.49 717.37,252.88 720.65,245.66 723.92,202.01 727.20,204.50 730.47,198.76 733.75,194.65 737.02,205.55 740.29,197.76 743.57,171.70 746.84,173.04 750.12,130.44 753.39,144.16 756.66,150.95 759.94,134.99 763.21,125.33 766.49,110.03 769.76,91.91 773.03,84.74 776.31,77.86 779.58,96.12 782.86,88.90 786.13,106.54 789.41,121.70 792.68,101.09 795.95,115.00 799.23,129.73 802.50,126.29 805.78,152.67 809.05,125.57 812.32,109.07 815.60,119.31 818.87,124.23 822.15,92.87 825.42,82.59 828.69,98.65 831.97,143.50 835.24,166.16 838.52,197.23 841.79,179.21 845.07,216.30 848.34,220.18 851.61,225.10 854.89,254.69 858.16,237.91 861.44,252.06 864.71,216.35 867.98,216.45 871.26,257.08 874.53,224.15 877.81,279.60 881.08,273.29 884.36,272.53 887.63,307.23 890.90,280.08 894.18,244.46 897.45,253.07 900.73,237.01 904.00,232.37" />
<text x="780.00" y="60.00" font-size="14" font-family="Arial" fill="#1f77b4" text-anchor="start">Close</text>
<polyline fill="none" stroke="#2ca02c" stroke-width="2" points="118.21,339.69 121.48,335.00 124.76,330.46 128.03,326.75 131.31,321.91 134.58,318.49 137.85,316.22 141.13,313.45 144.40,311.12 147.68,307.73 150.95,309.80 154.22,312.62 157.50,313.96 160.77,314.02 164.05,313.81 167.32,314.37 170.59,315.42 173.87,316.58 177.14,316.26 180.42,314.56 183.69,313.39 186.97,312.86 190.24,312.74 193.51,313.81 196.79,316.26 200.06,316.88 203.34,318.04 206.61,318.59 209.88,318.85 213.16,319.45 216.43,316.04 219.71,312.77 222.98,309.85 226.25,306.65 229.53,304.45 232.80,301.31 236.08,297.26 239.35,295.14 242.63,293.85 245.90,294.53 249.17,294.43 252.45,293.82 255.72,292.96 259.00,291.18 262.27,288.91 265.54,289.20 268.82,290.92 272.09,292.96 275.37,295.58 278.64,298.40 281.92,300.04 285.19,301.41 288.46,302.70 291.74,305.87 295.01,308.93 298.29,312.50 301.56,316.44 304.83,317.66 308.11,318.19 311.38,321.00 314.66,323.72 317.93,327.94 321.20,331.78 324.48,335.78 327.75,340.19 331.03,342.86 334.30,342.54 337.58,343.08 340.85,342.38 344.12,341.32 347.40,340.17 350.67,337.86 353.95,335.55 357.22,335.44 360.49,329.53 363.77,321.62 367.04,315.04 370.32,309.07 373.59,305.41 376.86,298.71 380.14,291.93 383.41,284.12 386.69,277.27 389.96,271.75 393.24,266.57 396.51,262.66 399.78,262.53 403.06,261.40 406.33,262.34 409.61,263.18 412.88,263.35 416.15,263.25 419.43,263.52 422.70,261.04 425.98,263.52 429.25,268.20 432.53,272.25 435.80,277.29 439.07,280.52 442.35,284.70 445.62,289.60 448.90,293.74 452.17,297.07 455.44,299.79 458.72,302.69 461.99,305.16 465.27,305.46 468.54,304.49 471.81,302.05 475.09,300.20 478.36,298.80 481.64,298.15 484.91,297.35 488.19,297.62 491.46,297.95 494.73,298.81 498.01,300.21 501.28,299.27 504.56,296.54 507.83,293.04 511.10,288.65 514.38,284.92 517.65,281.05 520.93,277.12 524.20,273.75 527.47,270.02 530.75,265.75 534.02,264.74 537.30,263.79 540.57,262.38 543.85,260.70 547.12,259.26 550.39,256.35 553.67,253.73 556.94,251.54 560.22,249.51 563.49,245.57 566.76,244.25 570.04,246.14 573.31,250.65 576.59,259.25 579.86,268.49 583.14,277.94 586.41,287.14 589.68,296.00 592.96,305.42 596.23,314.49 599.51,320.76 602.78,327.08 606.05,332.87 609.33,340.97 612.60,348.11 615.88,356.25 619.15,364.63 622.42,372.22 625.70,379.61 628.97,387.79 632.25,393.00 635.52,396.36 638.80,398.62 642.07,397.87 645.34,396.53 648.62,395.17 651.89,393.86 655.17,391.93 658.44,388.84 661.71,385.48 664.99,384.27 668.26,383.33 671.54,384.47 674.81,383.30 678.08,383.62 681.36,383.36 684.63,383.45 687.91,386.00 691.18,387.78 694.46,387.89 697.73,389.38 701.00,391.58 704.28,391.68 707.55,391.61 710.83,389.95 714.10,384.94 717.37,378.04 720.65,370.34 723.92,361.43 727.20,353.47 730.47,343.95 733.75,333.95 737.02,323.70 740.29,314.19 743.57,302.69 746.84,292.32 750.12,278.83 753.39,264.06 756.66,250.02 759.94,236.93 763.21,223.90 766.49,209.92 769.76,195.76 773.03,181.47 776.31,168.62 779.58,159.65 782.86,151.45 786.13,144.50 789.41,140.48 792.68,135.31 795.95,131.12 799.23,127.88 802.50,123.91 805.78,121.66 809.05,119.35 812.32,116.15 815.60,115.60 818.87,114.60 822.15,111.70 825.42,109.08 828.69,107.74 831.97,109.42 835.24,113.13 838.52,118.75 841.79,123.82 845.07,129.83 848.34,136.39 851.61,142.32 854.89,148.97 858.16,155.81 861.44,162.67 864.71,167.00 867.98,171.51 871.26,176.73 874.53,181.65 877.81,190.18 881.08,197.88 884.36,205.29 887.63,216.01 890.90,225.89 894.18,233.18 897.45,238.66 900.73,242.20 904.00,243.96" />
<text x="780.00" y="82.00" font-size="14" font-family="Arial" fill="#2ca02c" text-anchor="start">MA20</text>
<polyline fill="none" stroke="#ff7f0e" stroke-width="2" points="249.17,315.84 252.45,313.90 255.72,312.05 259.00,310.58 262.27,309.03 265.54,308.19 268.82,308.40 272.09,308.33 275.37,308.52 278.64,308.53 281.92,308.63 285.19,308.94 288.46,308.84 291.74,308.85 295.01,309.06 298.29,309.39 301.56,309.70 304.83,309.79 308.11,309.43 311.38,310.03 314.66,310.51 317.93,311.54 321.20,312.49 324.48,313.59 327.75,315.12 331.03,316.31 334.30,317.17 337.58,318.21 340.85,318.94 344.12,319.72 347.40,318.75 350.67,317.35 353.95,316.03 357.22,315.99 360.49,314.30 363.77,311.81 367.04,309.58 370.32,307.29 373.59,305.82 376.86,304.75 380.14,303.36 383.41,301.96 386.69,300.67 389.96,299.57 393.24,298.56 396.51,298.24 399.78,298.67 403.06,299.14 406.33,300.10 409.61,300.97 412.88,301.19 416.15,300.84 419.43,300.59 422.70,300.78 425.98,300.66 429.25,300.77 432.53,301.24 435.80,301.34 439.07,301.37 442.35,301.47 445.62,301.75 448.90,301.93 452.17,302.04 455.44,302.44 458.72,303.15 461.99,303.56 465.27,303.51 468.54,302.99 471.81,302.26 475.09,301.57 478.36,300.77 481.64,299.75 484.91,298.81 488.19,298.04 491.46,297.00 494.73,296.21 498.01,295.83 501.28,295.21 504.56,294.16 507.83,292.15 511.10,290.06 514.38,287.59 517.65,285.13 520.93,282.89 524.20,281.01 527.47,279.28 530.75,277.92 534.02,276.88 537.30,276.06 540.57,275.25 543.85,274.28 547.12,273.55 550.39,272.41 553.67,270.80 556.94,271.00 560.22,272.17 563.49,272.68 566.76,273.60 570.04,274.40 573.31,276.13 576.59,279.17 579.86,282.38 583.14,285.35 586.41,288.02 589.68,290.82 592.96,293.53 596.23,295.24 599.51,296.66 602.78,297.64 606.05,298.48 609.33,300.16 612.60,301.84 615.88,303.32 619.15,305.33 622.42,307.23 625.70,309.31 628.97,311.19 632.25,312.17 635.52,313.02 638.80,314.10 642.07,315.25 645.34,316.65 648.62,318.05 651.89,319.38 655.17,320.56 658.44,321.42 661.71,321.91 664.99,323.25 668.26,324.73 671.54,326.57 674.81,328.33 678.08,330.33 681.36,331.99 684.63,333.94 687.91,336.59 691.18,338.97 694.46,340.42 697.73,342.21 701.00,344.69 704.28,346.98 707.55,349.58 710.83,351.66 714.10,352.68 717.37,353.02 720.65,352.76 723.92,351.89 727.20,351.15 730.47,349.66 733.75,348.12 737.02,347.01 740.29,346.16 743.57,344.81 746.84,343.98 750.12,342.31 753.39,340.76 756.66,339.13 759.94,337.53 763.21,335.43 766.49,332.62 769.76,328.69 773.03,323.65 776.31,318.37 779.58,313.25 782.86,307.78 786.13,302.26 789.41,296.92 792.68,291.42 795.95,286.44 799.23,281.72 802.50,277.36 805.78,273.05 809.05,268.55 812.32,263.95 815.60,259.29 818.87,254.89 822.15,249.83 825.42,244.63 828.69,240.34 831.97,236.97 835.24,233.52 838.52,230.61 841.79,227.47 845.07,224.81 848.34,221.96 851.61,219.05 854.89,216.96 858.16,214.86 861.44,212.58 864.71,209.61 867.98,206.37 871.26,204.19 874.53,201.23 877.81,199.55 881.08,197.44 884.36,194.65 887.63,192.58 890.90,190.63 894.18,188.27 897.45,186.00 900.73,183.69 904.00,181.39" />
<text x="780.00" y="104.00" font-size="14" font-family="Arial" fill="#ff7f0e" text-anchor="start">MA60</text>
<polyline fill="none" stroke="#d62728" stroke-width="2" points="707.55,319.01 710.83,318.74 714.10,318.14 717.37,317.52 720.65,316.86 723.92,316.09 727.20,315.49 730.47,314.77 733.75,314.05 737.02,313.37 740.29,312.74 743.57,311.97 746.84,311.12 750.12,310.13 753.39,309.20 756.66,308.37 759.94,307.48 763.21,306.55 766.49,305.48 769.76,304.32 773.03,303.19 776.31,302.10 779.58,301.05 782.86,299.99 786.13,299.11 789.41,298.29 792.68,297.40 795.95,296.53 799.23,295.72 802.50,294.99 805.78,293.92 809.05,292.65 812.32,291.34 815.60,290.29 818.87,289.28 822.15,288.10 825.42,286.84 828.69,285.67 831.97,284.79 835.24,284.18 838.52,283.73 841.79,283.19 845.07,282.76 848.34,282.25 851.61,281.72 854.89,281.50 858.16,281.18 861.44,280.94 864.71,280.54 867.98,280.19 871.26,279.99 874.53,279.54 877.81,279.37 881.08,279.41 884.36,279.36 887.63,279.58 890.90,279.71 894.18,279.47 897.45,279.27 900.73,278.95 904.00,278.68" />
<text x="780.00" y="126.00" font-size="14" font-family="Arial" fill="#d62728" text-anchor="start">MA200</text>
</svg>