<svg xmlns="http://www.w3.org/2000/svg" width="960" height="520" viewBox="0 0 960 520"><rect width="100%" height="100%" fill="white" />
<text x="56.00" y="32.00" font-size="20" font-family="Arial" fill="#1f2933" text-anchor="start">AMZN Price and Moving Averages</text>
<line x1="56" y1="464" x2="904" y2="464" stroke="#cbd2d9" />
<line x1="56" y1="56" x2="56" y2="464" stroke="#cbd2d9" />
<text x="16.00" y="38.00" font-size="12" font-family="Arial" fill="#52606d" text-anchor="start">Price</text>
<line x1="56" y1="464.00" x2="904" y2="464.00" stroke="#edf2f7" />
<line x1="52" y1="464.00" x2="56" y2="464.00" stroke="#9fb3c8" />
<text x="48.00" y="468.00" font-size="11" font-family="Arial" fill="#52606d" text-anchor="end">194</text>
<line x1="56" y1="362.00" x2="904" y2="362.00" stroke="#edf2f7" />
<line x1="52" y1="362.00" x2="56" y2="362.00" stroke="#9fb3c8" />
<text x="48.00" y="366.00" font-size="11" font-family="Arial" fill="#52606d" text-anchor="end">216</text>
<line x1="56" y1="260.00" x2="904" y2="260.00" stroke="#edf2f7" />
<line x1="52" y1="260.00" x2="56" y2="260.00" stroke="#9fb3c8" />
<text x="48.00" y="264.00" font-size="11" font-family="Arial" fill="#52606d" text-anchor="end">237</text>
<line x1="56" y1="158.00" x2="904" y2="158.00" stroke="#edf2f7" />
<line x1="52" y1="158.00" x2="56" y2="158.00" stroke="#9fb3c8" />
<text x="48.00" y="162.00" font-size="11" font-family="Arial" fill="#52606d" text-anchor="end">258</text>
<line x1="56" y1="56.00" x2="904" y2="56.00" stroke="#edf2f7" />
<line x1="52" y1="56.00" x2="56" y2="56.00" stroke="#9fb3c8" />
<text x="48.00" y="60.00" font-size="11" font-family="Arial" fill="#52606d" text-anchor="end">280</text>
<line x1="56.00" y1="464" x2="56.00" y2="468" stroke="#9fb3c8" />
<text x="56.00" y="482.00" font-size="11" font-family="Arial" fill="#52606d" text-anchor="middle">07/02</text>
<line x1="226.25" y1="464" x2="226.25" y2="468" stroke="#9fb3c8" />
<text x="226.25" y="482.00" font-size="11" font-family="Arial" fill="#52606d" text-anchor="middle">09/16</text>
<line x1="396.51" y1="464" x2="396.51" y2="468" stroke="#9fb3c8" />
<text x="396.51" y="482.00" font-size="11" font-family="Arial" fill="#52606d" text-anchor="middle">11/28</text>
<line x1="563.49" y1="464" x2="563.49" y2="468" stroke="#9fb3c8" />
<text x="563.49" y="482.00" font-size="11" font-family="Arial" fill="#52606d" text-anchor="middle">02/12</text>
<line x1="733.75" y1="464" x2="733.75" y2="468" stroke="#9fb3c8" />
<text x="733.75" y="482.00" font-size="11" font-family="Arial" fill="#52606d" text-anchor="middle">04/29</text>
<line x1="904.00" y1="464" x2="904.00" y2="468" stroke="#9fb3c8" />
<text x="904.00" y="482.00" font-size="11" font-family="Arial" fill="#52606d" text-anchor="middle">07/15</text>
<polyline fill="none" stroke="#1f77b4" stroke-width="2" points="56.00,341.13 59.27,324.44 62.55,324.16 65.82,343.80 69.10,328.60 72.37,329.94 75.64,316.75 78.92,313.54 82.19,310.39 85.47,325.49 88.74,322.20 92.02,311.44 95.29,296.29 98.56,305.03 101.84,301.11 105.11,282.28 108.39,286.05 111.66,279.60 114.93,288.11 118.21,292.03 121.48,273.29 124.76,365.84 128.03,380.66 131.31,370.62 134.58,329.70 137.85,325.78 141.13,327.89 144.40,334.53 147.68,333.72 150.95,318.95 154.22,288.25 157.50,288.01 160.77,285.82 164.05,302.45 167.32,322.53 170.59,331.42 173.87,298.48 177.14,302.79 180.42,299.11 183.69,297.15 186.97,285.29 190.24,297.72 193.51,315.22 196.79,312.11 200.06,265.78 203.34,281.80 206.61,265.02 209.88,253.55 213.16,291.36 216.43,293.18 219.71,301.78 222.98,286.10 226.25,273.58 229.53,285.19 232.80,287.06 236.08,285.86 239.35,304.27 242.63,337.35 245.90,339.74 249.17,349.59 252.45,341.80 255.72,330.37 259.00,342.80 262.27,337.73 265.54,329.22 268.82,343.09 272.09,336.44 275.37,332.24 278.64,315.79 281.92,303.74 285.19,358.10 288.46,340.41 291.74,358.00 295.01,361.92 298.29,367.18 301.56,374.02 304.83,357.57 308.11,331.04 311.38,350.55 314.66,335.53 317.93,320.62 321.20,307.42 324.48,296.52 327.75,291.50 331.03,327.07 334.30,224.96 337.58,178.20 340.85,200.58 344.12,196.37 347.40,230.60 350.67,224.05 353.95,204.97 357.22,201.63 360.49,225.05 363.77,256.70 367.04,270.52 370.32,279.22 373.59,328.55 376.86,327.89 380.14,354.42 383.41,337.45 386.69,310.72 389.96,294.52 393.24,296.95 396.51,277.54 399.78,274.39 403.06,271.81 406.33,281.56 409.61,297.19 412.88,295.19 416.15,307.81 419.43,302.88 422.70,284.43 425.98,291.60 429.25,311.15 432.53,328.60 435.80,328.51 439.07,334.67 442.35,308.43 445.62,305.61 448.90,300.44 452.17,282.71 455.44,281.56 458.72,280.89 461.99,283.04 465.27,280.84 468.54,289.02 471.81,309.67 475.09,278.31 478.36,240.69 481.64,237.67 484.91,215.06 488.19,209.85 491.46,214.20 494.73,232.70 498.01,261.15 501.28,253.83 504.56,249.34 507.83,288.16 511.10,286.68 514.38,272.19 517.65,249.15 520.93,252.69 524.20,222.76 527.47,230.74 530.75,236.86 534.02,248.48 537.30,230.98 540.57,251.73 543.85,278.64 547.12,327.89 550.39,387.02 553.67,394.67 556.94,403.08 560.22,416.85 563.49,438.27 566.76,442.14 570.04,430.86 573.31,413.46 576.59,413.12 579.86,388.03 583.14,411.16 586.41,395.44 589.68,385.49 592.96,398.50 596.23,388.55 599.51,396.25 602.78,394.62 606.05,355.95 609.33,345.81 612.60,373.21 615.88,371.87 619.15,367.85 622.42,375.88 625.70,390.80 628.97,399.69 632.25,380.23 635.52,363.69 638.80,389.17 642.07,394.48 645.34,410.69 648.62,387.88 651.89,401.75 655.17,380.38 658.44,400.31 661.71,439.51 664.99,431.82 668.26,396.82 671.54,385.83 674.81,389.65 678.08,375.21 681.36,370.53 684.63,334.77 687.91,275.49 691.18,252.88 694.46,245.66 697.73,202.01 701.00,204.50 704.28,198.76 707.55,194.65 710.83,205.55 714.10,197.76 717.37,171.70 720.65,173.04 723.92,130.44 727.20,144.16 730.47,150.95 733.75,134.99 737.02,125.33 740.29,110.03 743.57,91.91 746.84,84.74 750.12,77.86 753.39,96.12 756.66,88.90 759.94,106.54 763.21,121.70 766.49,101.09 769.76,115.00 773.03,129.73 776.31,126.29 779.58,152.67 782.86,125.57 786.13,109.07 789.41,119.31 792.68,124.23 795.95,92.87 799.23,82.59 802.50,98.65 805.78,143.50 809.05,166.16 812.32,197.23 815.60,179.21 818.87,216.30 822.15,220.18 825.42,225.10 828.69,254.69 831.97,237.91 835.24,252.06 838.52,216.35 841.79,216.45 845.07,257.08 848.34,224.15 851.61,279.60 854.89,273.29 858.16,272.53 861.44,307.23 864.71,280.08 867.98,244.46 871.26,253.07 874.53,237.01 877.81,232.37 881.08,225.24 884.36,216.54 887.63,227.83 890.90,211.48 894.18,219.60 897.45,210.19 900.73,209.33 904.00,173.61" />
<text x="780.00" y="60.00" font-size="14" font-family="Arial" fill="#1f77b4" text-anchor="start">Close</text>
<polyline fill="none" stroke="#2ca02c" stroke-width="2" points="118.21,311.12 121.48,307.73 124.76,309.80 128.03,312.62 131.31,313.96 134.58,314.02 137.85,313.81 141.13,314.37 144.40,315.42 147.68,316.58 150.95,316.26 154.22,314.56 157.50,313.39 160.77,312.86 164.05,312.74 167.32,313.81 170.59,316.26 173.87,316.88 177.14,318.04 180.42,318.59 183.69,318.85 186.97,319.45 190.24,316.04 193.51,312.77 196.79,309.85 200.06,306.65 203.34,304.45 206.61,301.31 209.88,297.26 213.16,295.14 216.43,293.85 219.71,294.53 222.98,294.43 226.25,293.82 229.53,292.96 232.80,291.18 236.08,288.91 239.35,289.20 242.63,290.92 245.90,292.96 249.17,295.58 252.45,298.40 255.72,300.04 259.00,301.41 262.27,302.70 265.54,305.87 268.82,308.93 272.09,312.50 275.37,316.44 278.64,317.66 281.92,318.19 285.19,321.00 288.46,323.72 291.74,327.94 295.01,331.78 298.29,335.78 301.56,340.19 304.83,342.86 308.11,342.54 311.38,343.08 314.66,342.38 317.93,341.32 321.20,340.17 324.48,337.86 327.75,335.55 331.03,335.44 334.30,329.53 337.58,321.62 340.85,315.04 344.12,309.07 347.40,305.41 350.67,298.71 353.95,291.93 357.22,284.12 360.49,277.27 363.77,271.75 367.04,266.57 370.32,262.66 373.59,262.53 376.86,261.40 380.14,262.34 383.41,263.18 386.69,263.35 389.96,263.25 393.24,263.52 396.51,261.04 399.78,263.52 403.06,268.20 406.33,272.25 409.61,277.29 412.88,280.52 416.15,284.70 419.43,289.60 422.70,293.74 425.98,297.07 429.25,299.79 432.53,302.69 435.80,305.16 439.07,305.46 442.35,304.49 445.62,302.05 448.90,300.20 452.17,298.80 455.44,298.15 458.72,297.35 461.99,297.62 465.27,297.95 468.54,298.81 471.81,300.21 475.09,299.27 478.36,296.54 481.64,293.04 484.91,288.65 488.19,284.92 491.46,281.05 494.73,277.12 498.01,273.75 501.28,270.02 504.56,265.75 507.83,264.74 511.10,263.79 514.38,262.38 517.65,260.70 520.93,259.26 524.20,256.35 527.47,253.73 530.75,251.54 534.02,249.51 537.30,245.57 540.57,244.25 543.85,246.14 547.12,250.65 550.39,259.25 553.67,268.49 556.94,277.94 560.22,287.14 563.49,296.00 566.76,305.42 570.04,314.49 573.31,320.76 576.59,327.08 579.86,332.87 583.14,340.97 586.41,348.11 589.68,356.25 592.96,364.63 596.23,372.22 599.51,379.61 602.78,387.79 606.05,393.00 609.33,396.36 612.60,398.62 615.88,397.87 619.15,396.53 622.42,395.17 625.70,393.86 628.97,391.93 632.25,388.84 635.52,385.48 638.80,384.27 642.07,383.33 645.34,384.47 648.62,383.30 651.89,383.62 655.17,383.36 658.44,383.45 661.71,386.00 664.99,387.78 668.26,387.89 671.54,389.38 674.81,391.58 678.08,391.68 681.36,391.61 684.63,389.95 687.91,384.94 691.18,378.04 694.46,370.34 697.73,361.43 701.00,353.47 704.28,343.95 707.55,333.95 710.83,323.70 714.10,314.19 717.37,302.69 720.65,292.32 723.92,278.83 727.20,264.06 730.47,250.02 733.75,236.93 737.02,223.90 740.29,209.92 743.57,195.76 746.84,181.47 750.12,168.62 753.39,159.65 756.66,151.45 759.94,144.50 763.21,140.48 766.49,135.31 769.76,131.12 773.03,127.88 776.31,123.91 779.58,121.66 782.86,119.35 786.13,116.15 789.41,115.60 792.68,114.60 795.95,111.70 799.23,109.08 802.50,107.74 805.78,109.42 809.05,113.13 812.32,118.75 815.60,123.82 818.87,129.83 822.15,136.39 825.42,142.32 828.69,148.97 831.97,155.81 835.24,162.67 838.52,167.00 841.79,171.51 845.07,176.73 848.34,181.65 851.61,190.18 854.89,197.88 858.16,205.29 861.44,216.01 864.71,225.89 867.98,233.18 871.26,238.66 874.53,242.20 877.81,243.96 881.08,246.26 884.36,246.27 887.63,246.65 890.90,245.97 894.18,244.22 897.45,242.83 900.73,240.69 904.00,238.56" />
<text x="780.00" y="82.00" font-size="14" font-family="Arial" fill="#2ca02c" text-anchor="start">MA20</text>
<polyline fill="none" stroke="#ff7f0e" stroke-width="2" points="249.17,308.52 252.45,308.53 255.72,308.63 259.00,308.94 262.27,308.84 265.54,308.85 268.82,309.06 272.09,309.39 275.37,309.70 278.64,309.79 281.92,309.43 285.19,310.03 288.46,310.51 291.74,311.54 295.01,312.49 298.29,313.59 301.56,315.12 304.83,316.31 308.11,317.17 311.38,318.21 314.66,318.94 317.93,319.72 321.20,318.75 324.48,317.35 327.75,316.03 331.03,315.99 334.30,314.30 337.58,311.81 340.85,309.58 344.12,307.29 347.40,305.82 350.67,304.75 353.95,303.36 357.22,301.96 360.49,300.67 363.77,299.57 367.04,298.56 370.32,298.24 373.59,298.67 376.86,299.14 380.14,300.10 383.41,300.97 386.69,301.19 389.96,300.84 393.24,300.59 396.51,300.78 399.78,300.66 403.06,300.77 406.33,301.24 409.61,301.34 412.88,301.37 416.15,301.47 419.43,301.75 422.70,301.93 425.98,302.04 429.25,302.44 432.53,303.15 435.80,303.56 439.07,303.51 442.35,302.99 445.62,302.26 448.90,301.57 452.17,300.77 455.44,299.75 458.72,298.81 461.99,298.04 465.27,297.00 468.54,296.21 471.81,295.83 475.09,295.21 478.36,294.16 481.64,292.15 484.91,290.06 488.19,287.59 491.46,285.13 494.73,282.89 498.01,281.01 501.28,279.28 504.56,277.92 507.83,276.88 511.10,276.06 514.38,275.25 517.65,274.28 520.93,273.55 524.20,272.41 527.47,270.80 530.75,271.00 534.02,272.17 537.30,272.68 540.57,273.60 543.85,274.40 547.12,276.13 550.39,279.17 553.67,282.38 556.94,285.35 560.22,288.02 563.49,290.82 566.76,293.53 570.04,295.24 573.31,296.66 576.59,297.64 579.86,298.48 583.14,300.16 586.41,301.84 589.68,303.32 592.96,305.33 596.23,307.23 599.51,309.31 602.78,311.19 606.05,312.17 609.33,313.02 612.60,314.10 615.88,315.25 619.15,316.65 622.42,318.05 625.70,319.38 628.97,320.56 632.25,321.42 635.52,321.91 638.80,323.25 642.07,324.73 645.34,326.57 648.62,328.33 651.89,330.33 655.17,331.99 658.44,333.94 661.71,336.59 664.99,338.97 668.26,340.42 671.54,342.21 674.81,344.69 678.08,346.98 681.36,349.58 684.63,351.66 687.91,352.68 691.18,353.02 694.46,352.76 697.73,351.89 701.00,351.15 704.28,349.66 707.55,348.12 710.83,347.01 714.10,346.16 717.37,344.81 720.65,343.98 723.92,342.31 727.20,340.76 730.47,339.13 733.75,337.53 737.02,335.43 740.29,332.62 743.57,328.69 746.84,323.65 750.12,318.37 753.39,313.25 756.66,307.78 759.94,302.26 763.21,296.92 766.49,291.42 769.76,286.44 773.03,281.72 776.31,277.36 779.58,273.05 782.86,268.55 786.13,263.95 789.41,259.29 792.68,254.89 795.95,249.83 799.23,244.63 802.50,240.34 805.78,236.97 809.05,233.52 812.32,230.61 815.60,227.47 818.87,224.81 822.15,221.96 825.42,219.05 828.69,216.96 831.97,214.86 835.24,212.58 838.52,209.61 841.79,206.37 845.07,204.19 848.34,201.23 851.61,199.55 854.89,197.44 858.16,194.65 861.44,192.58 864.71,190.63 867.98,188.27 871.26,186.00 874.53,183.69 877.81,181.39 881.08,179.57 884.36,178.58 887.63,178.17 890.90,177.60 894.18,177.89 897.45,177.98 900.73,178.16 904.00,177.81" />
<text x="780.00" y="104.00" font-size="14" font-family="Arial" fill="#ff7f0e" text-anchor="start">MA60</text>
<polyline fill="none" stroke="#d62728" stroke-width="2" points="707.55,314.05 710.83,313.37 714.10,312.74 717.37,311.97 720.65,311.12 723.92,310.13 727.20,309.20 730.47,308.37 733.75,307.48 737.02,306.55 740.29,305.48 743.57,304.32 746.84,303.19 750.12,302.10 753.39,301.05 756.66,299.99 759.94,299.11 763.21,298.29 766.49,297.40 769.76,296.53 773.03,295.72 776.31,294.99 779.58,293.92 782.86,292.65 786.13,291.34 789.41,290.29 792.68,289.28 795.95,288.10 799.23,286.84 802.50,285.67 805.78,284.79 809.05,284.18 812.32,283.73 815.60,283.19 818.87,282.76 822.15,282.25 825.42,281.72 828.69,281.50 831.97,281.18 835.24,280.94 838.52,280.54 841.79,280.19 845.07,279.99 848.34,279.54 851.61,279.37 854.89,279.41 858.16,279.36 861.44,279.58 864.71,279.71 867.98,279.47 871.26,279.27 874.53,278.95 877.81,278.68 881.08,278.44 884.36,278.10 887.63,277.80 890.90,277.43 894.18,277.00 897.45,276.37 900.73,275.72 904.00,274.84" />
<text x="780.00" y="126.00" font-size="14" font-family="Arial" fill="#d62728" text-anchor="start">MA200</text>
</svg>