<svg xmlns="http://www.w3.org/2000/svg" width="960" height="520" viewBox="0 0 960 520"><rect width="100%" height="100%" fill="white" />
<text x="56.00" y="32.00" font-size="20" font-family="Arial" fill="#1f2933" text-anchor="start">AMZN Price and Moving Averages</text>
<line x1="56" y1="464" x2="904" y2="464" stroke="#cbd2d9" />
<line x1="56" y1="56" x2="56" y2="464" stroke="#cbd2d9" />
<text x="16.00" y="38.00" font-size="12" font-family="Arial" fill="#52606d" text-anchor="start">Price</text>
<line x1="56" y1="464.00" x2="904" y2="464.00" stroke="#edf2f7" />
<line x1="52" y1="464.00" x2="56" y2="464.00" stroke="#9fb3c8" />
<text x="48.00" y="468.00" font-size="11" font-family="Arial" fill="#52606d" text-anchor="end">194</text>
<line x1="56" y1="362.00" x2="904" y2="362.00" stroke="#edf2f7" />
<line x1="52" y1="362.00" x2="56" y2="362.00" stroke="#9fb3c8" />
<text x="48.00" y="366.00" font-size="11" font-family="Arial" fill="#52606d" text-anchor="end">216</text>
<line x1="56" y1="260.00" x2="904" y2="260.00" stroke="#edf2f7" />
<line x1="52" y1="260.00" x2="56" y2="260.00" stroke="#9fb3c8" />
<text x="48.00" y="264.00" font-size="11" font-family="Arial" fill="#52606d" text-anchor="end">237</text>
<line x1="56" y1="158.00" x2="904" y2="158.00" stroke="#edf2f7" />
<line x1="52" y1="158.00" x2="56" y2="158.00" stroke="#9fb3c8" />
<text x="48.00" y="162.00" font-size="11" font-family="Arial" fill="#52606d" text-anchor="end">258</text>
<line x1="56" y1="56.00" x2="904" y2="56.00" stroke="#edf2f7" />
<line x1="52" y1="56.00" x2="56" y2="56.00" stroke="#9fb3c8" />
<text x="48.00" y="60.00" font-size="11" font-family="Arial" fill="#52606d" text-anchor="end">280</text>
<line x1="56.00" y1="464" x2="56.00" y2="468" stroke="#9fb3c8" />
<text x="56.00" y="482.00" font-size="11" font-family="Arial" fill="#52606d" text-anchor="middle">07/07</text>
<line x1="226.25" y1="464" x2="226.25" y2="468" stroke="#9fb3c8" />
<text x="226.25" y="482.00" font-size="11" font-family="Arial" fill="#52606d" text-anchor="middle">09/18</text>
<line x1="396.51" y1="464" x2="396.51" y2="468" stroke="#9fb3c8" />
<text x="396.51" y="482.00" font-size="11" font-family="Arial" fill="#52606d" text-anchor="middle">12/02</text>
<line x1="563.49" y1="464" x2="563.49" y2="468" stroke="#9fb3c8" />
<text x="563.49" y="482.00" font-size="11" font-family="Arial" fill="#52606d" text-anchor="middle">02/17</text>
<line x1="733.75" y1="464" x2="733.75" y2="468" stroke="#9fb3c8" />
<text x="733.75" y="482.00" font-size="11" font-family="Arial" fill="#52606d" text-anchor="middle">05/01</text>
<line x1="904.00" y1="464" x2="904.00" y2="468" stroke="#9fb3c8" />
<text x="904.00" y="482.00" font-size="11" font-family="Arial" fill="#52606d" text-anchor="middle">07/17</text>
<polyline fill="none" stroke="#1f77b4" stroke-width="2" points="56.00,324.16 59.27,343.80 62.55,328.60 65.82,329.94 69.10,316.75 72.37,313.54 75.64,310.39 78.92,325.49 82.19,322.20 85.47,311.44 88.74,296.29 92.02,305.03 95.29,301.11 98.56,282.28 101.84,286.05 105.11,279.60 108.39,288.11 111.66,292.03 114.93,273.29 118.21,365.84 121.48,380.66 124.76,370.62 128.03,329.70 131.31,325.78 134.58,327.89 137.85,334.53 141.13,333.72 144.40,318.95 147.68,288.25 150.95,288.01 154.22,285.82 157.50,302.45 160.77,322.53 164.05,331.42 167.32,298.48 170.59,302.79 173.87,299.11 177.14,297.15 180.42,285.29 183.69,297.72 186.97,315.22 190.24,312.11 193.51,265.78 196.79,281.80 200.06,265.02 203.34,253.55 206.61,291.36 209.88,293.18 213.16,301.78 216.43,286.10 219.71,273.58 222.98,285.19 226.25,287.06 229.53,285.86 232.80,304.27 236.08,337.35 239.35,339.74 242.63,349.59 245.90,341.80 249.17,330.37 252.45,342.80 255.72,337.73 259.00,329.22 262.27,343.09 265.54,336.44 268.82,332.24 272.09,315.79 275.37,303.74 278.64,358.10 281.92,340.41 285.19,358.00 288.46,361.92 291.74,367.18 295.01,374.02 298.29,357.57 301.56,331.04 304.83,350.55 308.11,335.53 311.38,320.62 314.66,307.42 317.93,296.52 321.20,291.50 324.48,327.07 327.75,224.96 331.03,178.20 334.30,200.58 337.58,196.37 340.85,230.60 344.12,224.05 347.40,204.97 350.67,201.63 353.95,225.05 357.22,256.70 360.49,270.52 363.77,279.22 367.04,328.55 370.32,327.89 373.59,354.42 376.86,337.45 380.14,310.72 383.41,294.52 386.69,296.95 389.96,277.54 393.24,274.39 396.51,271.81 399.78,281.56 403.06,297.19 406.33,295.19 409.61,307.81 412.88,302.88 416.15,284.43 419.43,291.60 422.70,311.15 425.98,328.60 429.25,328.51 432.53,334.67 435.80,308.43 439.07,305.61 442.35,300.44 445.62,282.71 448.90,281.56 452.17,280.89 455.44,283.04 458.72,280.84 461.99,289.02 465.27,309.67 468.54,278.31 471.81,240.69 475.09,237.67 478.36,215.06 481.64,209.85 484.91,214.20 488.19,232.70 491.46,261.15 494.73,253.83 498.01,249.34 501.28,288.16 504.56,286.68 507.83,272.19 511.10,249.15 514.38,252.69 517.65,222.76 520.93,230.74 524.20,236.86 527.47,248.48 530.75,230.98 534.02,251.73 537.30,278.64 540.57,327.89 543.85,387.02 547.12,394.67 550.39,403.08 553.67,416.85 556.94,438.27 560.22,442.14 563.49,430.86 566.76,413.46 570.04,413.12 573.31,388.03 576.59,411.16 579.86,395.44 583.14,385.49 586.41,398.50 589.68,388.55 592.96,396.25 596.23,394.62 599.51,355.95 602.78,345.81 606.05,373.21 609.33,371.87 612.60,367.85 615.88,375.88 619.15,390.80 622.42,399.69 625.70,380.23 628.97,363.69 632.25,389.17 635.52,394.48 638.80,410.69 642.07,387.88 645.34,401.75 648.62,380.38 651.89,400.31 655.17,439.51 658.44,431.82 661.71,396.82 664.99,385.83 668.26,389.65 671.54,375.21 674.81,370.53 678.08,334.77 681.36,275.49 684.63,252.88 687.91,245.66 691.18,202.01 694.46,204.50 697.73,198.76 701.00,194.65 704.28,205.55 707.55,197.76 710.83,171.70 714.10,173.04 717.37,130.44 720.65,144.16 723.92,150.95 727.20,134.99 730.47,125.33 733.75,110.03 737.02,91.91 740.29,84.74 743.57,77.86 746.84,96.12 750.12,88.90 753.39,106.54 756.66,121.70 759.94,101.09 763.21,115.00 766.49,129.73 769.76,126.29 773.03,152.67 776.31,125.57 779.58,109.07 782.86,119.31 786.13,124.23 789.41,92.87 792.68,82.59 795.95,98.65 799.23,143.50 802.50,166.16 805.78,197.23 809.05,179.21 812.32,216.30 815.60,220.18 818.87,225.10 822.15,254.69 825.42,237.91 828.69,252.06 831.97,216.35 835.24,216.45 838.52,257.08 841.79,224.15 845.07,279.60 848.34,273.29 851.61,272.53 854.89,307.23 858.16,280.08 861.44,244.46 864.71,253.07 867.98,237.01 871.26,232.37 874.53,225.24 877.81,216.54 881.08,227.83 884.36,211.48 887.63,219.60 890.90,210.19 894.18,209.33 897.45,173.61 900.73,197.85 904.00,210.57" />
<text x="780.00" y="60.00" font-size="14" font-family="Arial" fill="#1f77b4" text-anchor="start">Close</text>
<polyline fill="none" stroke="#2ca02c" stroke-width="2" points="118.21,309.80 121.48,312.62 124.76,313.96 128.03,314.02 131.31,313.81 134.58,314.37 137.85,315.42 141.13,316.58 144.40,316.26 147.68,314.56 150.95,313.39 154.22,312.86 157.50,312.74 160.77,313.81 164.05,316.26 167.32,316.88 170.59,318.04 173.87,318.59 177.14,318.85 180.42,319.45 183.69,316.04 186.97,312.77 190.24,309.85 193.51,306.65 196.79,304.45 200.06,301.31 203.34,297.26 206.61,295.14 209.88,293.85 213.16,294.53 216.43,294.43 219.71,293.82 222.98,292.96 226.25,291.18 229.53,288.91 232.80,289.20 236.08,290.92 239.35,292.96 242.63,295.58 245.90,298.40 249.17,300.04 252.45,301.41 255.72,302.70 259.00,305.87 262.27,308.93 265.54,312.50 268.82,316.44 272.09,317.66 275.37,318.19 278.64,321.00 281.92,323.72 285.19,327.94 288.46,331.78 291.74,335.78 295.01,340.19 298.29,342.86 301.56,342.54 304.83,343.08 308.11,342.38 311.38,341.32 314.66,340.17 317.93,337.86 321.20,335.55 324.48,335.44 327.75,329.53 331.03,321.62 334.30,315.04 337.58,309.07 340.85,305.41 344.12,298.71 347.40,291.93 350.67,284.12 353.95,277.27 357.22,271.75 360.49,266.57 363.77,262.66 367.04,262.53 370.32,261.40 373.59,262.34 376.86,263.18 380.14,263.35 383.41,263.25 386.69,263.52 389.96,261.04 393.24,263.52 396.51,268.20 399.78,272.25 403.06,277.29 406.33,280.52 409.61,284.70 412.88,289.60 416.15,293.74 419.43,297.07 422.70,299.79 425.98,302.69 429.25,305.16 432.53,305.46 435.80,304.49 439.07,302.05 442.35,300.20 445.62,298.80 448.90,298.15 452.17,297.35 455.44,297.62 458.72,297.95 461.99,298.81 465.27,300.21 468.54,299.27 471.81,296.54 475.09,293.04 478.36,288.65 481.64,284.92 484.91,281.05 488.19,277.12 491.46,273.75 494.73,270.02 498.01,265.75 501.28,264.74 504.56,263.79 507.83,262.38 511.10,260.70 514.38,259.26 517.65,256.35 520.93,253.73 524.20,251.54 527.47,249.51 530.75,245.57 534.02,244.25 537.30,246.14 540.57,250.65 543.85,259.25 547.12,268.49 550.39,277.94 553.67,287.14 556.94,296.00 560.22,305.42 563.49,314.49 566.76,320.76 570.04,327.08 573.31,332.87 576.59,340.97 579.86,348.11 583.14,356.25 586.41,364.63 589.68,372.22 592.96,379.61 596.23,387.79 599.51,393.00 602.78,396.36 606.05,398.62 609.33,397.87 612.60,396.53 615.88,395.17 619.15,393.86 622.42,391.93 625.70,388.84 628.97,385.48 632.25,384.27 635.52,383.33 638.80,384.47 642.07,383.30 645.34,383.62 648.62,383.36 651.89,383.45 655.17,386.00 658.44,387.78 661.71,387.89 664.99,389.38 668.26,391.58 671.54,391.68 674.81,391.61 678.08,389.95 681.36,384.94 684.63,378.04 687.91,370.34 691.18,361.43 694.46,353.47 697.73,343.95 701.00,333.95 704.28,323.70 707.55,314.19 710.83,302.69 714.10,292.32 717.37,278.83 720.65,264.06 723.92,250.02 727.20,236.93 730.47,223.90 733.75,209.92 737.02,195.76 740.29,181.47 743.57,168.62 746.84,159.65 750.12,151.45 753.39,144.50 756.66,140.48 759.94,135.31 763.21,131.12 766.49,127.88 769.76,123.91 773.03,121.66 776.31,119.35 779.58,116.15 782.86,115.60 786.13,114.60 789.41,111.70 792.68,109.08 795.95,107.74 799.23,109.42 802.50,113.13 805.78,118.75 809.05,123.82 812.32,129.83 815.60,136.39 818.87,142.32 822.15,148.97 825.42,155.81 828.69,162.67 831.97,167.00 835.24,171.51 838.52,176.73 841.79,181.65 845.07,190.18 848.34,197.88 851.61,205.29 854.89,216.01 858.16,225.89 861.44,233.18 864.71,238.66 867.98,242.20 871.26,243.96 874.53,246.26 877.81,246.27 881.08,246.65 884.36,245.97 887.63,244.22 890.90,242.83 894.18,240.69 897.45,238.56 900.73,237.63 904.00,235.30" />
<text x="780.00" y="82.00" font-size="14" font-family="Arial" fill="#2ca02c" text-anchor="start">MA20</text>
<polyline fill="none" stroke="#ff7f0e" stroke-width="2" points="249.17,308.63 252.45,308.94 255.72,308.84 259.00,308.85 262.27,309.06 265.54,309.39 268.82,309.70 272.09,309.79 275.37,309.43 278.64,310.03 281.92,310.51 285.19,311.54 288.46,312.49 291.74,313.59 295.01,315.12 298.29,316.31 301.56,317.17 304.83,318.21 308.11,318.94 311.38,319.72 314.66,318.75 317.93,317.35 321.20,316.03 324.48,315.99 327.75,314.30 331.03,311.81 334.30,309.58 337.58,307.29 340.85,305.82 344.12,304.75 347.40,303.36 350.67,301.96 353.95,300.67 357.22,299.57 360.49,298.56 363.77,298.24 367.04,298.67 370.32,299.14 373.59,300.10 376.86,300.97 380.14,301.19 383.41,300.84 386.69,300.59 389.96,300.78 393.24,300.66 396.51,300.77 399.78,301.24 403.06,301.34 406.33,301.37 409.61,301.47 412.88,301.75 416.15,301.93 419.43,302.04 422.70,302.44 425.98,303.15 429.25,303.56 432.53,303.51 435.80,302.99 439.07,302.26 442.35,301.57 445.62,300.77 448.90,299.75 452.17,298.81 455.44,298.04 458.72,297.00 461.99,296.21 465.27,295.83 468.54,295.21 471.81,294.16 475.09,292.15 478.36,290.06 481.64,287.59 484.91,285.13 488.19,282.89 491.46,281.01 494.73,279.28 498.01,277.92 501.28,276.88 504.56,276.06 507.83,275.25 511.10,274.28 514.38,273.55 517.65,272.41 520.93,270.80 524.20,271.00 527.47,272.17 530.75,272.68 534.02,273.60 537.30,274.40 540.57,276.13 543.85,279.17 547.12,282.38 550.39,285.35 553.67,288.02 556.94,290.82 560.22,293.53 563.49,295.24 566.76,296.66 570.04,297.64 573.31,298.48 576.59,300.16 579.86,301.84 583.14,303.32 586.41,305.33 589.68,307.23 592.96,309.31 596.23,311.19 599.51,312.17 602.78,313.02 606.05,314.10 609.33,315.25 612.60,316.65 615.88,318.05 619.15,319.38 622.42,320.56 625.70,321.42 628.97,321.91 632.25,323.25 635.52,324.73 638.80,326.57 642.07,328.33 645.34,330.33 648.62,331.99 651.89,333.94 655.17,336.59 658.44,338.97 661.71,340.42 664.99,342.21 668.26,344.69 671.54,346.98 674.81,349.58 678.08,351.66 681.36,352.68 684.63,353.02 687.91,352.76 691.18,351.89 694.46,351.15 697.73,349.66 701.00,348.12 704.28,347.01 707.55,346.16 710.83,344.81 714.10,343.98 717.37,342.31 720.65,340.76 723.92,339.13 727.20,337.53 730.47,335.43 733.75,332.62 737.02,328.69 740.29,323.65 743.57,318.37 746.84,313.25 750.12,307.78 753.39,302.26 756.66,296.92 759.94,291.42 763.21,286.44 766.49,281.72 769.76,277.36 773.03,273.05 776.31,268.55 779.58,263.95 782.86,259.29 786.13,254.89 789.41,249.83 792.68,244.63 795.95,240.34 799.23,236.97 802.50,233.52 805.78,230.61 809.05,227.47 812.32,224.81 815.60,221.96 818.87,219.05 822.15,216.96 825.42,214.86 828.69,212.58 831.97,209.61 835.24,206.37 838.52,204.19 841.79,201.23 845.07,199.55 848.34,197.44 851.61,194.65 854.89,192.58 858.16,190.63 861.44,188.27 864.71,186.00 867.98,183.69 871.26,181.39 874.53,179.57 877.81,178.58 881.08,178.17 884.36,177.60 887.63,177.89 890.90,177.98 894.18,178.16 897.45,177.81 900.73,177.68 904.00,177.90" />
<text x="780.00" y="104.00" font-size="14" font-family="Arial" fill="#ff7f0e" text-anchor="start">MA60</text>
<polyline fill="none" stroke="#d62728" stroke-width="2" points="707.55,312.74 710.83,311.97 714.10,311.12 717.37,310.13 720.65,309.20 723.92,308.37 727.20,307.48 730.47,306.55 733.75,305.48 737.02,304.32 740.29,303.19 743.57,302.10 746.84,301.05 750.12,299.99 753.39,299.11 756.66,298.29 759.94,297.40 763.21,296.53 766.49,295.72 769.76,294.99 773.03,293.92 776.31,292.65 779.58,291.34 782.86,290.29 786.13,289.28 789.41,288.10 792.68,286.84 795.95,285.67 799.23,284.79 802.50,284.18 805.78,283.73 809.05,283.19 812.32,282.76 815.60,282.25 818.87,281.72 822.15,281.50 825.42,281.18 828.69,280.94 831.97,280.54 835.24,280.19 838.52,279.99 841.79,279.54 845.07,279.37 848.34,279.41 851.61,279.36 854.89,279.58 858.16,279.71 861.44,279.47 864.71,279.27 867.98,278.95 871.26,278.68 874.53,278.44 877.81,278.10 881.08,277.80 884.36,277.43 887.63,277.00 890.90,276.37 894.18,275.72 897.45,274.84 900.73,274.12 904.00,273.52" />
<text x="780.00" y="126.00" font-size="14" font-family="Arial" fill="#d62728" text-anchor="start">MA200</text>
</svg>