<svg xmlns="http://www.w3.org/2000/svg" width="960" height="520" viewBox="0 0 960 520"><rect width="100%" height="100%" fill="white" />
<text x="56.00" y="32.00" font-size="20" font-family="Arial" fill="#1f2933" text-anchor="start">AVGO Price and Moving Averages</text>
<line x1="56" y1="464" x2="904" y2="464" stroke="#cbd2d9" />
<line x1="56" y1="56" x2="56" y2="464" stroke="#cbd2d9" />
<text x="16.00" y="38.00" font-size="12" font-family="Arial" fill="#52606d" text-anchor="start">Price</text>
<line x1="56" y1="464.00" x2="904" y2="464.00" stroke="#edf2f7" />
<line x1="52" y1="464.00" x2="56" y2="464.00" stroke="#9fb3c8" />
<text x="48.00" y="468.00" font-size="11" font-family="Arial" fill="#52606d" text-anchor="end">250</text>
<line x1="56" y1="362.00" x2="904" y2="362.00" stroke="#edf2f7" />
<line x1="52" y1="362.00" x2="56" y2="362.00" stroke="#9fb3c8" />
<text x="48.00" y="366.00" font-size="11" font-family="Arial" fill="#52606d" text-anchor="end">311</text>
<line x1="56" y1="260.00" x2="904" y2="260.00" stroke="#edf2f7" />
<line x1="52" y1="260.00" x2="56" y2="260.00" stroke="#9fb3c8" />
<text x="48.00" y="264.00" font-size="11" font-family="Arial" fill="#52606d" text-anchor="end">372</text>
<line x1="56" y1="158.00" x2="904" y2="158.00" stroke="#edf2f7" />
<line x1="52" y1="158.00" x2="56" y2="158.00" stroke="#9fb3c8" />
<text x="48.00" y="162.00" font-size="11" font-family="Arial" fill="#52606d" text-anchor="end">433</text>
<line x1="56" y1="56.00" x2="904" y2="56.00" stroke="#edf2f7" />
<line x1="52" y1="56.00" x2="56" y2="56.00" stroke="#9fb3c8" />
<text x="48.00" y="60.00" font-size="11" font-family="Arial" fill="#52606d" text-anchor="end">494</text>
<line x1="56.00" y1="464" x2="56.00" y2="468" stroke="#9fb3c8" />
<text x="56.00" y="482.00" font-size="11" font-family="Arial" fill="#52606d" text-anchor="middle">06/26</text>
<line x1="226.25" y1="464" x2="226.25" y2="468" stroke="#9fb3c8" />
<text x="226.25" y="482.00" font-size="11" font-family="Arial" fill="#52606d" text-anchor="middle">09/10</text>
<line x1="396.51" y1="464" x2="396.51" y2="468" stroke="#9fb3c8" />
<text x="396.51" y="482.00" font-size="11" font-family="Arial" fill="#52606d" text-anchor="middle">11/21</text>
<line x1="563.49" y1="464" x2="563.49" y2="468" stroke="#9fb3c8" />
<text x="563.49" y="482.00" font-size="11" font-family="Arial" fill="#52606d" text-anchor="middle">02/06</text>
<line x1="733.75" y1="464" x2="733.75" y2="468" stroke="#9fb3c8" />
<text x="733.75" y="482.00" font-size="11" font-family="Arial" fill="#52606d" text-anchor="middle">04/23</text>
<line x1="904.00" y1="464" x2="904.00" y2="468" stroke="#9fb3c8" />
<text x="904.00" y="482.00" font-size="11" font-family="Arial" fill="#52606d" text-anchor="middle">07/09</text>
<polyline fill="none" stroke="#1f77b4" stroke-width="2" points="56.00,433.13 59.27,434.50 62.55,424.04 65.82,442.14 69.10,433.58 72.37,424.82 75.64,426.48 78.92,430.43 82.19,420.31 85.47,424.46 88.74,426.15 92.02,424.13 95.29,415.27 98.56,415.48 101.84,406.13 105.11,411.29 108.39,403.21 111.66,419.17 114.93,410.71 118.21,402.38 121.48,399.94 124.76,393.11 128.03,387.93 131.31,379.30 134.58,394.10 137.85,402.49 141.13,387.43 144.40,395.38 147.68,380.88 150.95,377.41 154.22,375.40 157.50,377.18 160.77,362.37 164.05,368.57 167.32,365.02 170.59,373.13 173.87,374.09 177.14,392.09 180.42,398.30 183.69,400.90 186.97,393.60 190.24,393.22 193.51,386.95 196.79,383.23 200.06,369.30 203.34,387.98 206.61,386.57 209.88,379.68 213.16,373.53 216.43,325.77 219.71,307.92 222.98,322.82 226.25,268.24 229.53,284.73 232.80,284.33 236.08,277.33 239.35,284.11 242.63,307.06 245.90,308.42 249.17,309.10 252.45,318.34 255.72,318.09 259.00,317.47 262.27,322.81 265.54,325.42 268.82,336.43 272.09,333.09 275.37,327.31 278.64,319.35 281.92,319.03 285.19,323.82 288.46,322.29 291.74,307.19 295.01,307.98 298.29,341.87 301.56,288.57 304.83,309.46 308.11,297.50 311.38,292.81 314.66,300.82 317.93,300.97 321.20,311.91 324.48,315.83 327.75,309.20 331.03,292.85 334.30,279.68 337.58,261.54 340.85,239.92 344.12,255.72 347.40,267.09 350.67,278.85 353.95,296.48 357.22,284.79 360.49,290.42 363.77,300.66 367.04,285.77 370.32,296.45 373.59,291.03 376.86,316.36 380.14,312.24 383.41,311.92 386.69,315.50 389.96,292.36 393.24,304.99 396.51,315.99 399.78,253.25 403.06,241.50 406.33,220.66 409.61,211.70 412.88,239.75 416.15,247.25 419.43,248.84 422.70,248.14 425.98,232.84 429.25,214.79 432.53,206.17 435.80,195.07 439.07,206.03 442.35,283.21 445.62,316.64 448.90,314.17 452.17,339.56 455.44,333.14 458.72,315.73 461.99,312.83 465.27,299.73 468.54,298.23 471.81,295.05 475.09,299.61 478.36,298.85 481.64,305.09 484.91,302.56 488.19,309.55 491.46,308.97 494.73,309.42 498.01,327.77 501.28,306.97 504.56,294.92 507.83,290.92 511.10,315.43 514.38,310.22 517.65,295.75 520.93,327.57 524.20,333.89 527.47,339.40 530.75,348.46 534.02,340.47 537.30,327.25 540.57,326.50 543.85,330.68 547.12,329.73 550.39,330.05 553.67,347.99 556.94,368.44 560.22,364.34 563.49,327.03 566.76,308.69 570.04,314.51 573.31,310.65 576.59,329.95 579.86,339.94 583.14,327.67 586.41,326.05 589.68,325.25 592.96,327.48 596.23,331.33 599.51,339.40 602.78,328.05 606.05,345.71 609.33,349.29 612.60,350.51 615.88,358.80 619.15,352.66 622.42,327.28 625.70,331.10 628.97,305.67 632.25,310.95 635.52,312.63 638.80,321.95 642.07,344.95 645.34,340.35 648.62,346.36 651.89,355.32 655.17,348.81 658.44,364.34 661.71,343.24 664.99,350.28 668.26,349.41 671.54,365.08 674.81,379.66 678.08,391.79 681.36,364.93 684.63,358.29 687.91,356.52 691.18,356.72 694.46,324.12 697.73,296.32 701.00,289.18 704.28,261.42 707.55,247.74 710.83,246.02 714.10,219.42 717.37,216.50 720.65,203.04 723.92,214.57 727.20,210.33 730.47,176.16 733.75,180.68 737.02,175.98 740.29,183.59 743.57,214.24 746.84,204.86 750.12,184.87 753.39,178.45 756.66,186.42 759.94,168.30 763.21,171.51 766.49,193.00 769.76,163.90 773.03,166.52 776.31,181.75 779.58,185.94 782.86,147.56 786.13,171.92 789.41,179.40 792.68,195.48 795.95,184.32 799.23,189.64 802.50,190.36 805.78,177.23 809.05,177.48 812.32,169.60 815.60,135.92 818.87,113.90 822.15,77.86 825.42,81.76 828.69,182.40 831.97,237.76 835.24,219.62 838.52,227.03 841.79,260.50 845.07,238.03 848.34,243.87 851.61,224.06 854.89,252.81 858.16,225.80 861.44,195.01 864.71,226.05 867.98,246.07 871.26,242.86 874.53,248.14 877.81,271.35 881.08,258.93 884.36,250.08 887.63,264.13 890.90,278.99 894.18,256.51 897.45,261.72 900.73,231.80 904.00,211.04" />
<text x="780.00" y="60.00" font-size="14" font-family="Arial" fill="#1f77b4" text-anchor="start">Close</text>
<polyline fill="none" stroke="#2ca02c" stroke-width="2" points="118.21,421.39 121.48,419.73 124.76,417.66 128.03,415.86 131.31,412.71 134.58,410.74 137.85,409.62 141.13,407.67 144.40,405.92 147.68,403.95 150.95,401.59 154.22,399.06 157.50,396.71 160.77,394.06 164.05,391.72 167.32,389.66 170.59,387.76 173.87,386.30 177.14,384.95 180.42,384.33 183.69,384.25 186.97,383.93 190.24,383.94 193.51,383.89 196.79,384.09 200.06,382.85 203.34,382.12 206.61,382.08 209.88,381.29 213.16,380.93 216.43,378.34 219.71,374.97 222.98,372.25 226.25,367.55 229.53,363.35 232.80,359.32 236.08,354.53 239.35,350.03 242.63,345.78 245.90,341.28 249.17,336.69 252.45,332.93 255.72,329.17 259.00,325.70 262.27,322.68 265.54,320.48 268.82,317.91 272.09,315.23 275.37,312.62 278.64,309.91 281.92,309.57 285.19,310.36 288.46,310.34 291.74,312.29 295.01,313.45 298.29,316.33 301.56,316.89 304.83,318.16 308.11,317.68 311.38,316.90 314.66,316.48 317.93,315.61 321.20,315.31 324.48,315.22 327.75,314.54 331.03,312.91 334.30,310.08 337.58,306.50 340.85,302.13 344.12,298.95 347.40,296.35 350.67,294.10 353.95,292.81 357.22,291.69 360.49,290.81 363.77,288.75 367.04,288.61 370.32,287.96 373.59,287.64 376.86,288.82 380.14,289.39 383.41,289.93 386.69,290.11 389.96,288.94 393.24,288.73 396.51,289.89 399.78,288.57 403.06,287.56 406.33,286.60 409.61,284.40 412.88,283.03 416.15,281.45 419.43,279.07 422.70,277.24 425.98,274.36 429.25,270.07 432.53,266.09 435.80,261.02 439.07,256.77 442.35,255.11 445.62,255.33 448.90,255.44 452.17,256.65 455.44,258.68 458.72,259.22 461.99,259.06 465.27,261.39 468.54,264.22 471.81,267.94 475.09,272.34 478.36,275.29 481.64,278.19 484.91,280.87 488.19,283.94 491.46,287.75 494.73,292.48 498.01,298.56 501.28,304.15 504.56,308.60 507.83,308.98 511.10,308.92 514.38,308.73 517.65,306.54 520.93,306.26 524.20,307.17 527.47,308.49 530.75,310.93 534.02,313.04 537.30,314.65 540.57,316.00 543.85,317.59 547.12,318.82 550.39,320.19 553.67,322.12 556.94,325.09 560.22,327.84 563.49,327.80 566.76,327.89 570.04,328.87 573.31,329.85 576.59,330.58 579.86,332.06 583.14,333.66 586.41,333.58 589.68,333.15 592.96,332.56 596.23,331.70 599.51,331.65 602.78,331.69 606.05,332.65 609.33,333.58 612.60,334.62 615.88,336.05 619.15,336.29 622.42,334.23 625.70,332.57 628.97,331.50 632.25,331.61 635.52,331.52 638.80,332.08 642.07,332.83 645.34,332.85 648.62,333.79 651.89,335.25 655.17,336.43 658.44,338.27 661.71,338.87 664.99,339.41 668.26,340.48 671.54,341.45 674.81,342.97 678.08,345.03 681.36,345.34 684.63,345.62 687.91,347.08 691.18,348.36 694.46,349.29 697.73,348.55 701.00,347.38 704.28,344.35 707.55,339.49 710.83,334.78 714.10,328.43 717.37,321.49 720.65,314.20 723.92,306.71 727.20,300.07 730.47,291.36 733.75,282.92 737.02,273.47 740.29,263.67 743.57,254.79 746.84,246.78 750.12,238.11 753.39,229.21 756.66,220.70 759.94,212.90 763.21,206.66 766.49,201.85 769.76,196.98 773.03,192.92 776.31,189.70 779.58,188.03 782.86,184.58 786.13,183.03 789.41,181.27 792.68,180.53 795.95,180.93 799.23,181.38 802.50,182.10 805.78,181.78 809.05,179.95 812.32,178.18 815.60,175.74 818.87,172.51 822.15,167.08 825.42,162.75 828.69,163.30 831.97,165.54 835.24,168.32 838.52,171.35 841.79,175.28 845.07,177.89 848.34,182.70 851.61,185.31 854.89,188.98 858.16,190.50 861.44,191.03 864.71,192.85 867.98,195.64 871.26,198.92 874.53,202.45 877.81,207.54 881.08,213.69 884.36,220.50 887.63,229.81 890.90,239.67 894.18,243.38 897.45,244.58 900.73,245.19 904.00,244.39" />
<text x="780.00" y="82.00" font-size="14" font-family="Arial" fill="#2ca02c" text-anchor="start">MA20</text>
<polyline fill="none" stroke="#ff7f0e" stroke-width="2" points="249.17,380.78 252.45,378.87 255.72,376.93 259.00,375.15 262.27,373.16 265.54,371.36 268.82,369.88 272.09,368.33 275.37,366.61 278.64,364.93 281.92,363.17 285.19,361.46 288.46,359.77 291.74,357.97 295.01,356.17 298.29,355.10 301.56,353.06 304.83,351.49 308.11,349.47 311.38,347.50 314.66,345.81 317.93,344.16 321.20,342.81 324.48,341.61 327.75,340.44 331.03,338.75 334.30,336.70 337.58,334.60 340.85,332.01 344.12,329.93 347.40,328.09 350.67,326.48 353.95,325.13 357.22,323.84 360.49,322.54 363.77,321.47 367.04,320.01 370.32,318.72 373.59,317.03 376.86,315.67 380.14,314.19 383.41,312.83 386.69,311.53 389.96,309.96 393.24,308.65 396.51,307.76 399.78,305.52 403.06,303.10 406.33,300.45 409.61,297.75 412.88,296.32 416.15,295.31 419.43,294.07 422.70,293.74 425.98,292.87 429.25,291.72 432.53,290.53 435.80,289.05 439.07,287.36 442.35,286.94 445.62,287.07 448.90,287.00 452.17,287.36 455.44,287.62 458.72,287.50 461.99,287.29 465.27,286.68 468.54,286.10 471.81,285.56 475.09,285.23 478.36,284.89 481.64,284.58 484.91,284.25 488.19,284.29 491.46,284.31 494.73,283.77 498.01,284.42 501.28,284.38 504.56,284.34 507.83,284.30 511.10,284.55 514.38,284.70 517.65,284.43 520.93,284.63 524.20,285.04 527.47,285.82 530.75,286.96 534.02,288.28 537.30,289.73 540.57,290.91 543.85,291.97 547.12,292.82 550.39,293.38 553.67,294.43 556.94,295.73 560.22,296.79 563.49,297.48 566.76,297.69 570.04,298.08 573.31,297.98 576.59,298.28 579.86,298.74 583.14,298.95 586.41,299.51 589.68,299.85 592.96,300.04 596.23,301.34 599.51,302.97 602.78,304.76 606.05,306.99 609.33,308.82 612.60,310.54 615.88,312.37 619.15,314.12 622.42,315.69 625.70,317.63 628.97,319.29 632.25,321.22 635.52,322.99 638.80,323.64 642.07,324.11 645.34,324.55 648.62,324.66 651.89,325.03 655.17,325.58 658.44,326.44 661.71,327.17 664.99,328.03 668.26,328.94 671.54,330.03 674.81,331.38 678.08,332.82 681.36,333.86 684.63,334.67 687.91,335.47 691.18,336.26 694.46,336.19 697.73,336.02 701.00,335.92 704.28,335.43 707.55,334.30 710.83,333.23 714.10,331.96 717.37,330.11 720.65,327.93 723.92,325.85 727.20,323.55 730.47,320.81 733.75,318.36 737.02,315.86 740.29,313.40 743.57,311.48 746.84,309.39 750.12,306.67 753.39,303.51 756.66,300.54 759.94,297.90 763.21,295.61 766.49,293.58 769.76,291.14 773.03,288.41 776.31,285.78 779.58,283.42 782.86,280.44 786.13,277.89 789.41,275.42 792.68,273.15 795.95,270.57 799.23,268.26 802.50,265.67 805.78,262.81 809.05,259.92 812.32,256.77 815.60,253.16 818.87,249.60 822.15,245.38 825.42,241.65 828.69,239.50 831.97,238.26 835.24,236.55 838.52,234.59 841.79,233.26 845.07,231.45 848.34,229.59 851.61,227.51 854.89,225.65 858.16,223.70 861.44,221.11 864.71,219.05 867.98,217.07 871.26,214.79 874.53,212.40 877.81,210.84 881.08,209.18 884.36,207.41 887.63,205.86 890.90,205.11 894.18,204.45 897.45,203.99 900.73,203.50 904.00,202.88" />
<text x="780.00" y="104.00" font-size="14" font-family="Arial" fill="#ff7f0e" text-anchor="start">MA60</text>
<polyline fill="none" stroke="#d62728" stroke-width="2" points="707.55,331.54 710.83,330.60 714.10,329.53 717.37,328.49 720.65,327.29 723.92,326.20 727.20,325.12 730.47,323.87 733.75,322.62 737.02,321.40 740.29,320.20 743.57,319.14 746.84,318.04 750.12,316.89 753.39,315.71 756.66,314.61 759.94,313.39 763.21,312.23 766.49,311.10 769.76,309.87 773.03,308.69 776.31,307.60 779.58,306.56 782.86,305.36 786.13,304.32 789.41,303.25 792.68,302.22 795.95,301.20 799.23,300.17 802.50,299.22 805.78,298.22 809.05,297.23 812.32,296.19 815.60,295.06 818.87,293.78 822.15,292.35 825.42,290.89 828.69,289.93 831.97,289.16 835.24,288.27 838.52,287.40 841.79,286.73 845.07,285.96 848.34,285.24 851.61,284.45 854.89,283.86 858.16,283.05 861.44,282.09 864.71,281.33 867.98,280.69 871.26,280.27 874.53,279.98 877.81,279.72 881.08,279.67 884.36,279.50 887.63,279.40 890.90,279.41 894.18,279.27 897.45,279.04 900.73,278.66 904.00,278.17" />
<text x="780.00" y="126.00" font-size="14" font-family="Arial" fill="#d62728" text-anchor="start">MA200</text>
</svg>