<svg xmlns="http://www.w3.org/2000/svg" width="960" height="520" viewBox="0 0 960 520"><rect width="100%" height="100%" fill="white" />
<text x="56.00" y="32.00" font-size="20" font-family="Arial" fill="#1f2933" text-anchor="start">AVGO Price and Moving Averages</text>
<line x1="56" y1="464" x2="904" y2="464" stroke="#cbd2d9" />
<line x1="56" y1="56" x2="56" y2="464" stroke="#cbd2d9" />
<text x="16.00" y="38.00" font-size="12" font-family="Arial" fill="#52606d" text-anchor="start">Price</text>
<line x1="56" y1="464.00" x2="904" y2="464.00" stroke="#edf2f7" />
<line x1="52" y1="464.00" x2="56" y2="464.00" stroke="#9fb3c8" />
<text x="48.00" y="468.00" font-size="11" font-family="Arial" fill="#52606d" text-anchor="end">260</text>
<line x1="56" y1="362.00" x2="904" y2="362.00" stroke="#edf2f7" />
<line x1="52" y1="362.00" x2="56" y2="362.00" stroke="#9fb3c8" />
<text x="48.00" y="366.00" font-size="11" font-family="Arial" fill="#52606d" text-anchor="end">318</text>
<line x1="56" y1="260.00" x2="904" y2="260.00" stroke="#edf2f7" />
<line x1="52" y1="260.00" x2="56" y2="260.00" stroke="#9fb3c8" />
<text x="48.00" y="264.00" font-size="11" font-family="Arial" fill="#52606d" text-anchor="end">377</text>
<line x1="56" y1="158.00" x2="904" y2="158.00" stroke="#edf2f7" />
<line x1="52" y1="158.00" x2="56" y2="158.00" stroke="#9fb3c8" />
<text x="48.00" y="162.00" font-size="11" font-family="Arial" fill="#52606d" text-anchor="end">435</text>
<line x1="56" y1="56.00" x2="904" y2="56.00" stroke="#edf2f7" />
<line x1="52" y1="56.00" x2="56" y2="56.00" stroke="#9fb3c8" />
<text x="48.00" y="60.00" font-size="11" font-family="Arial" fill="#52606d" text-anchor="end">493</text>
<line x1="56.00" y1="464" x2="56.00" y2="468" stroke="#9fb3c8" />
<text x="56.00" y="482.00" font-size="11" font-family="Arial" fill="#52606d" text-anchor="middle">07/11</text>
<line x1="226.25" y1="464" x2="226.25" y2="468" stroke="#9fb3c8" />
<text x="226.25" y="482.00" font-size="11" font-family="Arial" fill="#52606d" text-anchor="middle">09/24</text>
<line x1="396.51" y1="464" x2="396.51" y2="468" stroke="#9fb3c8" />
<text x="396.51" y="482.00" font-size="11" font-family="Arial" fill="#52606d" text-anchor="middle">12/08</text>
<line x1="563.49" y1="464" x2="563.49" y2="468" stroke="#9fb3c8" />
<text x="563.49" y="482.00" font-size="11" font-family="Arial" fill="#52606d" text-anchor="middle">02/23</text>
<line x1="733.75" y1="464" x2="733.75" y2="468" stroke="#9fb3c8" />
<text x="733.75" y="482.00" font-size="11" font-family="Arial" fill="#52606d" text-anchor="middle">05/07</text>
<line x1="904.00" y1="464" x2="904.00" y2="468" stroke="#9fb3c8" />
<text x="904.00" y="482.00" font-size="11" font-family="Arial" fill="#52606d" text-anchor="middle">07/23</text>
<polyline fill="none" stroke="#1f77b4" stroke-width="2" points="56.00,442.14 59.27,440.03 62.55,430.76 65.82,430.99 69.10,421.20 72.37,426.60 75.64,418.15 78.92,434.84 82.19,425.99 85.47,417.28 88.74,414.73 92.02,407.58 95.29,402.17 98.56,393.14 101.84,408.62 105.11,417.40 108.39,401.65 111.66,409.96 114.93,394.79 118.21,391.17 121.48,389.07 124.76,390.92 128.03,375.43 131.31,381.92 134.58,378.20 137.85,386.69 141.13,387.70 144.40,406.52 147.68,413.01 150.95,415.73 154.22,408.10 157.50,407.70 160.77,401.14 164.05,397.26 167.32,382.68 170.59,402.22 173.87,400.74 177.14,393.54 180.42,387.11 183.69,337.15 186.97,318.48 190.24,334.06 193.51,276.98 196.79,294.23 200.06,293.81 203.34,286.49 206.61,293.58 209.88,317.58 213.16,319.00 216.43,319.71 219.71,329.38 222.98,329.12 226.25,328.47 229.53,334.05 232.80,336.78 236.08,348.31 239.35,344.81 242.63,338.76 245.90,330.44 249.17,330.11 252.45,335.11 255.72,333.52 259.00,317.72 262.27,318.55 265.54,353.99 268.82,298.25 272.09,320.10 275.37,307.58 278.64,302.68 281.92,311.06 285.19,311.22 288.46,322.65 291.74,326.75 295.01,319.82 298.29,302.72 301.56,288.95 304.83,269.97 308.11,247.36 311.38,263.89 314.66,275.78 317.93,288.08 321.20,306.52 324.48,294.29 327.75,300.18 331.03,310.89 334.30,295.31 337.58,306.49 340.85,300.82 344.12,327.31 347.40,323.00 350.67,322.67 353.95,326.41 357.22,302.21 360.49,315.42 363.77,326.93 367.04,261.30 370.32,249.01 373.59,227.22 376.86,217.85 380.14,247.19 383.41,255.02 386.69,256.69 389.96,255.96 393.24,239.96 396.51,221.08 399.78,212.06 403.06,200.45 406.33,211.92 409.61,292.64 412.88,327.61 416.15,325.02 419.43,351.57 422.70,344.86 425.98,326.65 429.25,323.62 432.53,309.92 435.80,308.35 439.07,305.02 442.35,309.79 445.62,308.99 448.90,315.52 452.17,312.88 455.44,320.19 458.72,319.58 461.99,320.05 465.27,339.24 468.54,317.49 471.81,304.88 475.09,300.70 478.36,326.34 481.64,320.89 484.91,305.75 488.19,339.03 491.46,345.65 494.73,351.41 498.01,360.89 501.28,352.53 504.56,338.70 507.83,337.92 511.10,342.29 514.38,341.29 517.65,341.63 520.93,360.40 524.20,381.78 527.47,377.50 530.75,338.47 534.02,319.28 537.30,325.38 540.57,321.34 543.85,341.52 547.12,351.97 550.39,339.14 553.67,337.45 556.94,336.61 560.22,338.94 563.49,342.97 566.76,351.41 570.04,339.54 573.31,358.01 576.59,361.76 579.86,363.03 583.14,371.70 586.41,365.27 589.68,338.74 592.96,342.72 596.23,316.13 599.51,321.65 602.78,323.41 606.05,333.16 609.33,357.21 612.60,352.40 615.88,358.69 619.15,368.06 622.42,361.25 625.70,377.50 628.97,355.42 632.25,362.79 635.52,361.88 638.80,378.27 642.07,393.52 645.34,406.20 648.62,378.11 651.89,371.16 655.17,369.31 658.44,369.52 661.71,335.43 664.99,306.35 668.26,298.88 671.54,269.85 674.81,255.54 678.08,253.74 681.36,225.92 684.63,222.87 687.91,208.79 691.18,220.85 694.46,216.41 697.73,180.68 701.00,185.40 704.28,180.48 707.55,188.44 710.83,220.50 714.10,210.69 717.37,189.78 720.65,183.07 723.92,191.41 727.20,172.46 730.47,175.81 733.75,198.28 737.02,167.85 740.29,170.59 743.57,186.52 746.84,190.90 750.12,150.77 753.39,176.24 756.66,184.06 759.94,200.88 763.21,189.21 766.49,194.77 769.76,195.53 773.03,181.79 776.31,182.05 779.58,173.82 782.86,138.58 786.13,115.55 789.41,77.86 792.68,81.94 795.95,187.20 799.23,245.10 802.50,226.13 805.78,233.88 809.05,268.89 812.32,245.38 815.60,251.49 818.87,230.78 822.15,260.84 825.42,232.59 828.69,200.39 831.97,232.85 835.24,253.79 838.52,250.43 841.79,255.96 845.07,280.23 848.34,267.25 851.61,257.98 854.89,272.68 858.16,288.22 861.44,264.71 864.71,270.17 867.98,238.86 871.26,217.16 874.53,219.15 877.81,246.97 881.08,238.13 884.36,229.09 887.63,263.75 890.90,270.08 894.18,257.27 897.45,242.69 900.73,224.67 904.00,232.26" />
<text x="780.00" y="60.00" font-size="14" font-family="Arial" fill="#1f77b4" text-anchor="start">Close</text>
<polyline fill="none" stroke="#2ca02c" stroke-width="2" points="118.21,416.46 121.48,413.80 124.76,411.35 128.03,408.58 131.31,406.13 134.58,403.98 137.85,401.98 141.13,400.46 144.40,399.05 147.68,398.40 150.95,398.32 154.22,397.99 157.50,397.99 160.77,397.94 164.05,398.15 167.32,396.85 170.59,396.09 173.87,396.05 177.14,395.23 180.42,394.84 183.69,392.14 186.97,388.61 190.24,385.77 193.51,380.85 196.79,376.46 200.06,372.24 203.34,367.23 206.61,362.53 209.88,358.08 213.16,353.38 216.43,348.58 219.71,344.64 222.98,340.71 226.25,337.08 229.53,333.92 232.80,331.63 236.08,328.93 239.35,326.13 242.63,323.39 245.90,320.56 249.17,320.21 252.45,321.04 255.72,321.01 259.00,323.05 262.27,324.27 265.54,327.27 268.82,327.86 272.09,329.19 275.37,328.69 278.64,327.87 281.92,327.44 285.19,326.53 288.46,326.21 291.74,326.12 295.01,325.41 298.29,323.71 301.56,320.74 304.83,317.00 308.11,312.43 311.38,309.10 314.66,306.38 317.93,304.03 321.20,302.68 324.48,301.51 327.75,300.59 331.03,298.44 334.30,298.29 337.58,297.61 340.85,297.27 344.12,298.50 347.40,299.10 350.67,299.67 353.95,299.86 357.22,298.63 360.49,298.41 363.77,299.62 367.04,298.24 370.32,297.19 373.59,296.19 376.86,293.88 380.14,292.45 383.41,290.80 386.69,288.31 389.96,286.39 393.24,283.38 396.51,278.89 399.78,274.73 403.06,269.43 406.33,264.98 409.61,263.25 412.88,263.48 416.15,263.60 419.43,264.85 422.70,266.99 425.98,267.55 429.25,267.38 432.53,269.81 435.80,272.78 439.07,276.67 442.35,281.27 445.62,284.36 448.90,287.38 452.17,290.19 455.44,293.40 458.72,297.39 461.99,302.33 465.27,308.69 468.54,314.55 471.81,319.19 475.09,319.60 478.36,319.53 481.64,319.33 484.91,317.04 488.19,316.74 491.46,317.69 494.73,319.08 498.01,321.63 501.28,323.84 504.56,325.52 507.83,326.93 511.10,328.60 514.38,329.88 517.65,331.32 520.93,333.33 524.20,336.44 527.47,339.31 530.75,339.28 534.02,339.37 537.30,340.39 540.57,341.42 543.85,342.18 547.12,343.74 550.39,345.41 553.67,345.33 556.94,344.87 560.22,344.25 563.49,343.35 566.76,343.30 570.04,343.34 573.31,344.35 576.59,345.32 579.86,346.41 583.14,347.91 586.41,348.15 589.68,346.00 592.96,344.26 596.23,343.15 599.51,343.26 602.78,343.17 606.05,343.76 609.33,344.54 612.60,344.56 615.88,345.54 619.15,347.07 622.42,348.30 625.70,350.23 628.97,350.85 632.25,351.42 635.52,352.54 638.80,353.55 642.07,355.14 645.34,357.30 648.62,357.62 651.89,357.91 655.17,359.44 658.44,360.78 661.71,361.75 664.99,360.98 668.26,359.76 671.54,356.59 674.81,351.51 678.08,346.57 681.36,339.94 684.63,332.68 687.91,325.05 691.18,317.22 694.46,310.27 697.73,301.16 701.00,292.34 704.28,282.45 707.55,272.20 710.83,262.91 714.10,254.54 717.37,245.47 720.65,236.16 723.92,227.25 727.20,219.11 730.47,212.58 733.75,207.55 737.02,202.45 740.29,198.20 743.57,194.84 746.84,193.09 750.12,189.48 753.39,187.86 756.66,186.02 759.94,185.24 763.21,185.67 766.49,186.14 769.76,186.89 773.03,186.55 776.31,184.63 779.58,182.79 782.86,180.23 786.13,176.85 789.41,171.18 792.68,166.65 795.95,167.22 799.23,169.56 802.50,172.48 805.78,175.64 809.05,179.76 812.32,182.48 815.60,187.52 818.87,190.24 822.15,194.08 825.42,195.67 828.69,196.23 831.97,198.13 835.24,201.05 838.52,204.48 841.79,208.17 845.07,213.49 848.34,219.93 851.61,227.05 854.89,236.79 858.16,247.10 861.44,250.98 864.71,252.23 867.98,252.87 871.26,252.03 874.53,249.55 877.81,249.63 881.08,248.96 884.36,248.87 887.63,249.02 890.90,250.89 894.18,253.74 897.45,254.23 900.73,252.77 904.00,251.86" />
<text x="780.00" y="82.00" font-size="14" font-family="Arial" fill="#2ca02c" text-anchor="start">MA20</text>
<polyline fill="none" stroke="#ff7f0e" stroke-width="2" points="249.17,376.27 252.45,374.49 255.72,372.71 259.00,370.83 262.27,368.95 265.54,367.83 268.82,365.69 272.09,364.06 275.37,361.94 278.64,359.88 281.92,358.11 285.19,356.39 288.46,354.97 291.74,353.72 295.01,352.49 298.29,350.73 301.56,348.59 304.83,346.39 308.11,343.68 311.38,341.50 314.66,339.58 317.93,337.89 321.20,336.49 324.48,335.14 327.75,333.77 331.03,332.65 334.30,331.13 337.58,329.78 340.85,328.01 344.12,326.59 347.40,325.04 350.67,323.62 353.95,322.26 357.22,320.61 360.49,319.25 363.77,318.32 367.04,315.97 370.32,313.44 373.59,310.67 376.86,307.85 380.14,306.35 383.41,305.29 386.69,304.00 389.96,303.65 393.24,302.75 396.51,301.53 399.78,300.29 403.06,298.74 406.33,296.98 409.61,296.54 412.88,296.67 416.15,296.60 419.43,296.97 422.70,297.25 425.98,297.12 429.25,296.90 432.53,296.26 435.80,295.66 439.07,295.09 442.35,294.75 445.62,294.40 448.90,294.07 452.17,293.73 455.44,293.77 458.72,293.79 461.99,293.22 465.27,293.90 468.54,293.86 471.81,293.82 475.09,293.78 478.36,294.04 481.64,294.20 484.91,293.92 488.19,294.12 491.46,294.55 494.73,295.36 498.01,296.56 501.28,297.94 504.56,299.46 507.83,300.69 511.10,301.80 514.38,302.69 517.65,303.27 520.93,304.38 524.20,305.74 527.47,306.85 530.75,307.57 534.02,307.78 537.30,308.19 540.57,308.09 543.85,308.40 547.12,308.89 550.39,309.10 553.67,309.69 556.94,310.04 560.22,310.24 563.49,311.60 566.76,313.31 570.04,315.18 573.31,317.52 576.59,319.42 579.86,321.22 583.14,323.14 586.41,324.96 589.68,326.61 592.96,328.64 596.23,330.37 599.51,332.39 602.78,334.25 606.05,334.93 609.33,335.42 612.60,335.88 615.88,335.99 619.15,336.38 622.42,336.96 625.70,337.86 628.97,338.61 632.25,339.52 635.52,340.47 638.80,341.61 642.07,343.02 645.34,344.53 648.62,345.62 651.89,346.47 655.17,347.30 658.44,348.12 661.71,348.06 664.99,347.87 668.26,347.77 671.54,347.26 674.81,346.08 678.08,344.96 681.36,343.63 684.63,341.69 687.91,339.41 691.18,337.23 694.46,334.83 697.73,331.96 701.00,329.41 704.28,326.78 707.55,324.22 710.83,322.21 714.10,320.02 717.37,317.18 720.65,313.87 723.92,310.77 727.20,308.00 730.47,305.61 733.75,303.49 737.02,300.93 740.29,298.08 743.57,295.33 746.84,292.85 750.12,289.74 753.39,287.07 756.66,284.49 759.94,282.12 763.21,279.42 766.49,277.01 769.76,274.30 773.03,271.30 776.31,268.28 779.58,264.98 782.86,261.21 786.13,257.49 789.41,253.07 792.68,249.17 795.95,246.93 799.23,245.62 802.50,243.84 805.78,241.78 809.05,240.39 812.32,238.50 815.60,236.56 818.87,234.38 822.15,232.44 825.42,230.39 828.69,227.69 831.97,225.54 835.24,223.46 838.52,221.08 841.79,218.57 845.07,216.94 848.34,215.21 851.61,213.35 854.89,211.74 858.16,210.95 861.44,210.26 864.71,209.78 867.98,209.26 871.26,208.62 874.53,208.05 877.81,208.40 881.08,208.65 884.36,208.99 887.63,209.71 890.90,210.60 894.18,211.88 897.45,212.83 900.73,213.57 904.00,214.30" />
<text x="780.00" y="104.00" font-size="14" font-family="Arial" fill="#ff7f0e" text-anchor="start">MA60</text>
<polyline fill="none" stroke="#d62728" stroke-width="2" points="707.55,331.33 710.83,330.22 714.10,329.07 717.37,327.87 720.65,326.63 723.92,325.48 727.20,324.21 730.47,322.99 733.75,321.81 737.02,320.52 740.29,319.29 743.57,318.15 746.84,317.06 750.12,315.81 753.39,314.72 756.66,313.60 759.94,312.52 763.21,311.45 766.49,310.38 769.76,309.38 773.03,308.34 776.31,307.30 779.58,306.21 782.86,305.03 786.13,303.70 789.41,302.20 792.68,300.67 795.95,299.67 799.23,298.86 802.50,297.93 805.78,297.02 809.05,296.32 812.32,295.51 815.60,294.76 818.87,293.93 822.15,293.32 825.42,292.47 828.69,291.47 831.97,290.67 835.24,290.00 838.52,289.57 841.79,289.26 845.07,288.99 848.34,288.94 851.61,288.76 854.89,288.65 858.16,288.66 861.44,288.52 864.71,288.28 867.98,287.88 871.26,287.37 874.53,286.81 877.81,286.40 881.08,285.95 884.36,285.43 887.63,285.06 890.90,284.67 894.18,284.23 897.45,283.75 900.73,283.22 904.00,282.73" />
<text x="780.00" y="126.00" font-size="14" font-family="Arial" fill="#d62728" text-anchor="start">MA200</text>
</svg>