<svg xmlns="http://www.w3.org/2000/svg" width="960" height="520" viewBox="0 0 960 520"><rect width="100%" height="100%" fill="white" />
<text x="56.00" y="32.00" font-size="20" font-family="Arial" fill="#1f2933" text-anchor="start">CRM Price and Moving Averages</text>
<line x1="56" y1="464" x2="904" y2="464" stroke="#cbd2d9" />
<line x1="56" y1="56" x2="56" y2="464" stroke="#cbd2d9" />
<text x="16.00" y="38.00" font-size="12" font-family="Arial" fill="#52606d" text-anchor="start">Price</text>
<line x1="56" y1="464.00" x2="904" y2="464.00" stroke="#edf2f7" />
<line x1="52" y1="464.00" x2="56" y2="464.00" stroke="#9fb3c8" />
<text x="48.00" y="468.00" font-size="11" font-family="Arial" fill="#52606d" text-anchor="end">143</text>
<line x1="56" y1="362.00" x2="904" y2="362.00" stroke="#edf2f7" />
<line x1="52" y1="362.00" x2="56" y2="362.00" stroke="#9fb3c8" />
<text x="48.00" y="366.00" font-size="11" font-family="Arial" fill="#52606d" text-anchor="end">177</text>
<line x1="56" y1="260.00" x2="904" y2="260.00" stroke="#edf2f7" />
<line x1="52" y1="260.00" x2="56" y2="260.00" stroke="#9fb3c8" />
<text x="48.00" y="264.00" font-size="11" font-family="Arial" fill="#52606d" text-anchor="end">211</text>
<line x1="56" y1="158.00" x2="904" y2="158.00" stroke="#edf2f7" />
<line x1="52" y1="158.00" x2="56" y2="158.00" stroke="#9fb3c8" />
<text x="48.00" y="162.00" font-size="11" font-family="Arial" fill="#52606d" text-anchor="end">245</text>
<line x1="56" y1="56.00" x2="904" y2="56.00" stroke="#edf2f7" />
<line x1="52" y1="56.00" x2="56" y2="56.00" stroke="#9fb3c8" />
<text x="48.00" y="60.00" font-size="11" font-family="Arial" fill="#52606d" text-anchor="end">279</text>
<line x1="56.00" y1="464" x2="56.00" y2="468" stroke="#9fb3c8" />
<text x="56.00" y="482.00" font-size="11" font-family="Arial" fill="#52606d" text-anchor="middle">06/23</text>
<line x1="226.25" y1="464" x2="226.25" y2="468" stroke="#9fb3c8" />
<text x="226.25" y="482.00" font-size="11" font-family="Arial" fill="#52606d" text-anchor="middle">09/05</text>
<line x1="396.51" y1="464" x2="396.51" y2="468" stroke="#9fb3c8" />
<text x="396.51" y="482.00" font-size="11" font-family="Arial" fill="#52606d" text-anchor="middle">11/18</text>
<line x1="563.49" y1="464" x2="563.49" y2="468" stroke="#9fb3c8" />
<text x="563.49" y="482.00" font-size="11" font-family="Arial" fill="#52606d" text-anchor="middle">02/03</text>
<line x1="733.75" y1="464" x2="733.75" y2="468" stroke="#9fb3c8" />
<text x="733.75" y="482.00" font-size="11" font-family="Arial" fill="#52606d" text-anchor="middle">04/20</text>
<line x1="904.00" y1="464" x2="904.00" y2="468" stroke="#9fb3c8" />
<text x="904.00" y="482.00" font-size="11" font-family="Arial" fill="#52606d" text-anchor="middle">07/06</text>
<polyline fill="none" stroke="#1f77b4" stroke-width="2" points="56.00,108.37 59.27,85.25 62.55,95.41 65.82,86.53 69.10,78.54 72.37,80.72 75.64,83.04 78.92,91.09 82.19,82.33 85.47,89.33 88.74,77.86 92.02,85.99 95.29,106.70 98.56,124.28 101.84,119.48 105.11,125.74 108.39,124.64 111.66,118.89 114.93,111.44 118.21,111.74 121.48,107.83 124.76,97.02 128.03,95.59 131.31,91.38 134.58,87.99 137.85,96.51 141.13,104.20 144.40,123.50 147.68,146.12 150.95,141.41 154.22,155.80 157.50,150.80 160.77,175.50 164.05,176.60 167.32,199.93 170.59,202.97 173.87,186.97 177.14,197.88 180.42,170.85 183.69,166.29 186.97,160.24 190.24,158.90 193.51,160.75 196.79,153.42 200.06,154.67 203.34,166.98 206.61,147.85 209.88,134.83 213.16,129.70 216.43,139.80 219.71,129.11 222.98,166.17 226.25,146.06 229.53,141.56 232.80,142.19 236.08,170.46 239.35,159.41 242.63,169.90 245.90,170.61 249.17,180.18 252.45,170.28 255.72,164.10 259.00,155.71 262.27,147.95 265.54,163.27 268.82,159.30 272.09,174.04 275.37,166.64 278.64,161.65 281.92,185.83 285.19,189.74 288.46,180.22 291.74,175.80 295.01,159.62 298.29,177.65 301.56,175.59 304.83,160.97 308.11,171.86 311.38,150.76 314.66,177.56 317.93,187.08 321.20,158.97 324.48,167.68 327.75,134.25 331.03,107.00 334.30,127.21 337.58,131.95 340.85,132.61 344.12,130.70 347.40,134.31 350.67,142.67 353.95,127.18 357.22,115.96 360.49,113.18 363.77,133.78 367.04,139.03 370.32,179.05 373.59,177.23 376.86,171.77 380.14,163.44 383.41,158.91 386.69,175.59 389.96,165.95 393.24,185.74 396.51,196.28 399.78,213.05 403.06,220.54 406.33,215.35 409.61,216.22 412.88,194.43 416.15,212.25 419.43,205.11 422.70,198.28 425.98,192.67 429.25,180.70 432.53,154.61 435.80,115.48 439.07,118.58 442.35,114.14 445.62,104.64 448.90,110.17 452.17,110.52 455.44,133.36 458.72,132.37 461.99,122.73 465.27,122.35 468.54,116.20 471.81,102.09 475.09,105.67 478.36,100.20 481.64,97.75 484.91,97.30 488.19,98.23 491.46,101.25 494.73,135.00 498.01,127.11 501.28,107.26 504.56,97.63 507.83,114.34 511.10,116.11 514.38,117.72 517.65,172.55 520.93,177.01 524.20,195.06 527.47,214.26 530.75,235.30 534.02,230.79 537.30,211.33 540.57,211.45 543.85,207.41 547.12,210.01 550.39,211.71 553.67,253.21 556.94,258.56 560.22,262.99 563.49,306.13 566.76,296.98 570.04,325.29 573.31,321.16 576.59,313.15 579.86,314.89 583.14,340.15 586.41,338.86 589.68,326.04 592.96,342.27 596.23,331.81 599.51,339.28 602.78,339.67 606.05,360.60 609.33,338.89 612.60,319.97 615.88,296.89 619.15,310.88 622.42,316.38 625.70,307.11 628.97,315.99 632.25,291.15 635.52,289.00 638.80,298.92 642.07,310.52 645.34,312.85 648.62,297.46 651.89,316.74 655.17,300.27 658.44,309.33 661.71,312.23 664.99,310.28 668.26,309.12 671.54,309.71 674.81,346.07 678.08,349.24 681.36,338.24 684.63,357.16 687.91,340.06 691.18,335.16 694.46,336.44 697.73,333.63 701.00,340.06 704.28,346.25 707.55,365.95 710.83,381.17 714.10,398.83 717.37,375.27 720.65,379.80 723.92,360.94 727.20,350.09 730.47,347.34 733.75,334.96 737.02,332.44 740.29,324.38 743.57,373.83 746.84,359.27 750.12,353.21 753.39,349.79 756.66,350.09 759.94,364.15 763.21,342.30 766.49,337.33 769.76,332.80 773.03,350.18 776.31,334.75 779.58,348.30 782.86,361.27 786.13,379.80 789.41,396.19 792.68,390.97 795.95,373.20 799.23,355.31 802.50,355.49 805.78,353.45 809.05,364.81 812.32,353.54 815.60,356.51 818.87,361.21 822.15,365.23 825.42,320.48 828.69,265.04 831.97,291.29 835.24,321.95 838.52,327.53 841.79,336.79 845.07,346.11 848.34,367.69 851.61,380.96 854.89,393.07 858.16,394.76 861.44,398.78 864.71,407.32 867.98,427.42 871.26,437.15 874.53,442.14 877.81,432.23 881.08,434.21 884.36,441.93 887.63,417.35 890.90,418.68 894.18,422.49 897.45,402.75 900.73,394.10 904.00,395.48" />
<text x="780.00" y="60.00" font-size="14" font-family="Arial" fill="#1f77b4" text-anchor="start">Close</text>
<polyline fill="none" stroke="#2ca02c" stroke-width="2" points="118.21,99.37 121.48,99.34 124.76,99.93 128.03,99.94 131.31,100.18 134.58,100.65 137.85,101.44 141.13,102.50 144.40,104.12 147.68,107.31 150.95,109.91 154.22,113.81 157.50,117.05 160.77,120.49 164.05,123.11 167.32,127.13 170.59,130.99 173.87,134.11 177.14,138.06 180.42,141.03 183.69,143.76 186.97,146.38 190.24,149.47 193.51,152.73 196.79,155.83 200.06,159.17 203.34,162.69 206.61,164.87 209.88,165.44 213.16,164.62 216.43,164.54 219.71,163.20 222.98,163.97 226.25,162.50 229.53,160.75 232.80,157.86 236.08,156.23 239.35,154.86 242.63,153.46 245.90,153.45 249.17,154.14 252.45,154.64 255.72,154.90 259.00,154.65 262.27,154.38 265.54,154.81 268.82,154.42 272.09,155.73 275.37,157.32 278.64,158.92 281.92,161.22 285.19,164.25 288.46,164.95 291.74,166.44 295.01,167.35 298.29,169.12 301.56,169.37 304.83,169.45 308.11,169.55 311.38,168.56 314.66,168.43 317.93,169.27 321.20,169.01 324.48,169.61 327.75,168.92 331.03,166.11 334.30,164.51 337.58,162.40 340.85,160.70 344.12,159.15 347.40,156.58 350.67,154.22 353.95,151.57 357.22,148.58 360.49,146.26 363.77,144.06 367.04,142.24 370.32,143.14 373.59,143.41 376.86,144.46 380.14,143.75 383.41,142.34 386.69,143.18 389.96,143.09 393.24,145.66 396.51,150.13 399.78,154.42 403.06,158.85 406.33,162.99 409.61,167.26 412.88,170.27 416.15,173.75 419.43,177.64 422.70,181.76 425.98,185.73 429.25,188.08 432.53,188.86 435.80,185.68 439.07,182.75 442.35,179.87 445.62,176.93 448.90,174.49 452.17,171.23 455.44,169.60 458.72,166.94 461.99,163.26 465.27,158.72 468.54,153.51 471.81,147.84 475.09,142.32 478.36,137.61 481.64,131.88 484.91,126.49 488.19,121.49 491.46,116.92 494.73,114.63 498.01,113.26 501.28,112.85 504.56,111.80 507.83,111.81 511.10,112.38 514.38,112.76 517.65,115.86 520.93,118.04 524.20,121.18 527.47,125.75 530.75,131.40 534.02,137.13 537.30,142.59 540.57,147.88 543.85,153.24 547.12,158.86 550.39,164.58 553.67,172.32 556.94,180.19 560.22,186.59 563.49,195.54 566.76,205.03 570.04,216.41 573.31,226.75 576.59,236.60 579.86,246.46 583.14,254.84 586.41,262.93 589.68,269.48 592.96,275.88 596.23,280.71 599.51,286.13 602.78,292.55 606.05,300.01 609.33,306.58 612.60,312.08 615.88,316.34 619.15,319.22 622.42,322.11 625.70,324.32 628.97,324.81 632.25,324.52 635.52,322.71 638.80,321.60 642.07,321.46 645.34,321.36 648.62,319.23 651.89,318.12 655.17,316.83 658.44,315.19 661.71,314.21 664.99,312.76 668.26,311.23 671.54,308.68 674.81,309.04 678.08,310.51 681.36,312.57 684.63,314.89 687.91,316.07 691.18,317.47 694.46,318.50 697.73,320.62 701.00,323.17 704.28,325.54 707.55,328.31 710.83,331.73 714.10,336.80 717.37,339.72 720.65,343.70 723.92,346.28 727.20,348.17 730.47,350.03 733.75,351.32 737.02,352.45 740.29,351.37 743.57,352.60 746.84,353.65 750.12,353.45 753.39,353.94 756.66,354.69 759.94,356.07 763.21,356.51 766.49,356.37 769.76,355.70 773.03,354.91 776.31,352.59 779.58,350.06 782.86,349.36 786.13,349.36 789.41,351.12 792.68,353.17 795.95,354.46 799.23,355.48 802.50,356.63 805.78,358.08 809.05,357.63 812.32,357.35 815.60,357.51 818.87,358.08 822.15,358.84 825.42,356.66 828.69,352.79 831.97,350.49 835.24,349.95 838.52,348.82 841.79,348.92 845.07,348.81 848.34,349.13 851.61,349.19 854.89,349.03 858.16,349.22 861.44,350.50 864.71,353.10 867.98,356.70 871.26,360.88 874.53,364.75 877.81,368.68 881.08,372.57 884.36,376.60 887.63,379.21 890.90,384.12 894.18,391.99 897.45,397.57 900.73,401.17 904.00,404.57" />
<text x="780.00" y="82.00" font-size="14" font-family="Arial" fill="#2ca02c" text-anchor="start">MA20</text>
<polyline fill="none" stroke="#ff7f0e" stroke-width="2" points="249.17,132.42 252.45,133.45 255.72,134.77 259.00,135.77 262.27,136.80 265.54,138.21 268.82,139.52 272.09,141.03 275.37,142.29 278.64,143.62 281.92,145.22 285.19,147.09 288.46,148.66 291.74,149.81 295.01,150.40 298.29,151.37 301.56,152.20 304.83,152.81 308.11,153.69 311.38,154.34 314.66,155.44 317.93,156.76 321.20,157.79 324.48,159.00 327.75,159.71 331.03,160.03 334.30,160.54 337.58,161.00 340.85,161.15 344.12,160.90 347.40,160.78 350.67,160.56 353.95,160.17 357.22,159.17 360.49,158.12 363.77,157.01 367.04,155.95 370.32,155.82 373.59,155.47 376.86,155.49 380.14,155.44 383.41,155.42 386.69,155.70 389.96,155.78 393.24,156.32 396.51,157.01 399.78,157.78 403.06,158.99 406.33,160.34 409.61,161.78 412.88,162.69 416.15,164.07 419.43,164.72 422.70,165.59 425.98,166.45 429.25,167.09 432.53,166.82 435.80,166.09 439.07,165.24 442.35,164.29 445.62,163.04 448.90,162.03 452.17,161.14 455.44,160.77 458.72,160.51 461.99,159.83 465.27,159.22 468.54,158.25 471.81,157.18 475.09,156.24 478.36,154.82 481.64,153.28 484.91,151.90 488.19,150.61 491.46,149.64 494.73,148.93 498.01,148.12 501.28,147.22 504.56,145.98 507.83,145.38 511.10,144.35 514.38,143.20 517.65,143.42 520.93,143.58 524.20,144.59 527.47,146.38 530.75,148.18 534.02,149.83 537.30,151.14 540.57,152.49 543.85,153.71 547.12,154.83 550.39,156.24 553.67,158.52 556.94,160.95 560.22,163.10 563.49,165.89 566.76,167.85 570.04,170.32 573.31,172.81 576.59,175.30 579.86,177.90 583.14,180.65 586.41,183.53 589.68,185.87 592.96,188.30 596.23,190.28 599.51,192.26 602.78,194.33 606.05,196.74 609.33,199.14 612.60,200.94 615.88,202.47 619.15,204.35 622.42,206.41 625.70,208.51 628.97,211.20 632.25,214.13 635.52,216.97 638.80,220.05 642.07,223.48 645.34,226.86 648.62,229.98 651.89,233.03 655.17,235.83 658.44,238.94 661.71,242.11 664.99,245.34 668.26,248.79 671.54,252.19 674.81,256.29 678.08,260.48 681.36,264.50 684.63,268.81 687.91,272.79 691.18,276.13 694.46,279.62 697.73,283.39 701.00,287.43 704.28,291.30 707.55,295.46 710.83,299.85 714.10,303.62 717.37,306.93 720.65,310.00 723.92,312.45 727.20,314.36 730.47,316.31 733.75,318.37 737.02,320.38 740.29,322.33 743.57,325.06 746.84,327.52 750.12,329.19 753.39,330.71 756.66,332.16 759.94,333.13 763.21,333.88 766.49,334.08 769.76,334.28 773.03,334.89 776.31,335.23 779.58,335.36 782.86,335.74 786.13,336.63 789.41,337.53 792.68,338.52 795.95,339.08 799.23,339.34 802.50,339.26 805.78,339.50 809.05,340.25 812.32,341.19 815.60,341.95 818.87,342.70 822.15,343.67 825.42,343.74 828.69,343.31 831.97,343.34 835.24,343.73 838.52,344.01 841.79,344.41 845.07,345.22 848.34,346.07 851.61,347.42 854.89,348.81 858.16,350.19 861.44,351.66 864.71,353.30 867.98,355.26 871.26,356.78 874.53,358.33 877.81,359.89 881.08,361.18 884.36,362.88 887.63,364.25 890.90,365.62 894.18,367.10 897.45,368.14 900.73,368.94 904.00,369.43" />
<text x="780.00" y="104.00" font-size="14" font-family="Arial" fill="#ff7f0e" text-anchor="start">MA60</text>
<polyline fill="none" stroke="#d62728" stroke-width="2" points="707.55,188.51 710.83,189.88 714.10,191.44 717.37,192.84 720.65,194.31 723.92,195.72 727.20,197.07 730.47,198.39 733.75,199.61 737.02,200.86 740.29,202.04 743.57,203.52 746.84,204.88 750.12,206.11 753.39,207.24 756.66,208.40 759.94,209.59 763.21,210.68 766.49,211.77 769.76,212.87 773.03,214.07 776.31,215.20 779.58,216.46 782.86,217.79 786.13,219.23 789.41,220.77 792.68,222.24 795.95,223.59 799.23,224.75 802.50,225.79 805.78,226.85 809.05,227.90 812.32,228.91 815.60,229.82 818.87,230.74 822.15,231.57 825.42,232.15 828.69,232.54 831.97,233.01 835.24,233.77 838.52,234.57 841.79,235.46 845.07,236.39 848.34,237.43 851.61,238.56 854.89,239.76 858.16,240.90 861.44,242.15 864.71,243.51 867.98,245.00 871.26,246.49 874.53,248.05 877.81,249.38 881.08,250.82 884.36,252.33 887.63,253.70 890.90,254.94 894.18,256.26 897.45,257.42 900.73,258.54 904.00,259.62" />
<text x="780.00" y="126.00" font-size="14" font-family="Arial" fill="#d62728" text-anchor="start">MA200</text>
</svg>