<svg xmlns="http://www.w3.org/2000/svg" width="960" height="520" viewBox="0 0 960 520"><rect width="100%" height="100%" fill="white" />
<text x="56.00" y="32.00" font-size="20" font-family="Arial" fill="#1f2933" text-anchor="start">GOOGL Price and Moving Averages</text>
<line x1="56" y1="464" x2="904" y2="464" stroke="#cbd2d9" />
<line x1="56" y1="56" x2="56" y2="464" stroke="#cbd2d9" />
<text x="16.00" y="38.00" font-size="12" font-family="Arial" fill="#52606d" text-anchor="start">Price</text>
<line x1="56" y1="464.00" x2="904" y2="464.00" stroke="#edf2f7" />
<line x1="52" y1="464.00" x2="56" y2="464.00" stroke="#9fb3c8" />
<text x="48.00" y="468.00" font-size="11" font-family="Arial" fill="#52606d" text-anchor="end">160</text>
<line x1="56" y1="362.00" x2="904" y2="362.00" stroke="#edf2f7" />
<line x1="52" y1="362.00" x2="56" y2="362.00" stroke="#9fb3c8" />
<text x="48.00" y="366.00" font-size="11" font-family="Arial" fill="#52606d" text-anchor="end">224</text>
<line x1="56" y1="260.00" x2="904" y2="260.00" stroke="#edf2f7" />
<line x1="52" y1="260.00" x2="56" y2="260.00" stroke="#9fb3c8" />
<text x="48.00" y="264.00" font-size="11" font-family="Arial" fill="#52606d" text-anchor="end">288</text>
<line x1="56" y1="158.00" x2="904" y2="158.00" stroke="#edf2f7" />
<line x1="52" y1="158.00" x2="56" y2="158.00" stroke="#9fb3c8" />
<text x="48.00" y="162.00" font-size="11" font-family="Arial" fill="#52606d" text-anchor="end">352</text>
<line x1="56" y1="56.00" x2="904" y2="56.00" stroke="#edf2f7" />
<line x1="52" y1="56.00" x2="56" y2="56.00" stroke="#9fb3c8" />
<text x="48.00" y="60.00" font-size="11" font-family="Arial" fill="#52606d" text-anchor="end">416</text>
<line x1="56.00" y1="464" x2="56.00" y2="468" stroke="#9fb3c8" />
<text x="56.00" y="482.00" font-size="11" font-family="Arial" fill="#52606d" text-anchor="middle">06/27</text>
<line x1="226.25" y1="464" x2="226.25" y2="468" stroke="#9fb3c8" />
<text x="226.25" y="482.00" font-size="11" font-family="Arial" fill="#52606d" text-anchor="middle">09/11</text>
<line x1="396.51" y1="464" x2="396.51" y2="468" stroke="#9fb3c8" />
<text x="396.51" y="482.00" font-size="11" font-family="Arial" fill="#52606d" text-anchor="middle">11/24</text>
<line x1="563.49" y1="464" x2="563.49" y2="468" stroke="#9fb3c8" />
<text x="563.49" y="482.00" font-size="11" font-family="Arial" fill="#52606d" text-anchor="middle">02/09</text>
<line x1="733.75" y1="464" x2="733.75" y2="468" stroke="#9fb3c8" />
<text x="733.75" y="482.00" font-size="11" font-family="Arial" fill="#52606d" text-anchor="middle">04/24</text>
<line x1="904.00" y1="464" x2="904.00" y2="468" stroke="#9fb3c8" />
<text x="904.00" y="482.00" font-size="11" font-family="Arial" fill="#52606d" text-anchor="middle">07/10</text>
<polyline fill="none" stroke="#1f77b4" stroke-width="2" points="56.00,435.51 59.27,439.17 62.55,439.79 65.82,435.34 69.10,433.92 72.37,438.28 75.64,442.14 78.92,438.55 82.19,436.96 85.47,432.88 88.74,430.70 92.02,430.00 95.29,428.46 98.56,427.49 101.84,425.13 105.11,417.12 108.39,415.15 111.66,416.92 114.93,413.83 118.21,412.23 121.48,413.18 124.76,408.14 128.03,406.90 131.31,414.26 134.58,418.66 137.85,409.27 141.13,409.86 144.40,407.60 147.68,406.92 150.95,399.13 154.22,399.80 157.50,396.08 160.77,398.27 164.05,396.71 167.32,395.19 170.59,395.82 173.87,398.89 177.14,402.47 180.42,401.78 183.69,391.70 186.97,387.89 190.24,390.04 193.51,389.50 196.79,382.88 200.06,380.86 203.34,383.34 206.61,352.65 209.88,350.04 213.16,345.75 216.43,346.94 219.71,338.05 222.98,338.78 226.25,336.87 229.53,336.19 232.80,318.99 236.08,319.70 239.35,322.30 242.63,318.32 245.90,314.04 249.17,317.52 252.45,318.91 255.72,326.10 259.00,328.25 262.27,327.05 265.54,331.02 268.82,332.53 272.09,329.66 275.37,328.41 278.64,328.95 281.92,320.87 285.19,328.30 288.46,330.11 291.74,335.03 295.01,342.92 298.29,330.86 301.56,328.79 304.83,319.91 308.11,319.23 311.38,316.30 314.66,311.13 317.93,320.82 321.20,318.86 324.48,316.65 327.75,305.77 331.03,290.89 334.30,293.75 337.58,282.46 340.85,271.46 344.12,271.93 347.40,267.90 350.67,277.73 353.95,266.96 357.22,266.26 360.49,275.68 363.77,257.75 367.04,255.82 370.32,263.14 373.59,276.09 376.86,279.53 380.14,265.83 383.41,267.01 386.69,253.44 389.96,258.78 393.24,242.54 396.51,212.44 399.78,204.70 403.06,210.26 406.33,209.89 409.61,218.31 412.88,216.84 416.15,210.77 419.43,213.96 422.70,208.16 425.98,219.84 429.25,214.49 432.53,209.51 435.80,221.90 439.07,226.90 442.35,228.60 445.62,231.23 448.90,246.91 452.17,237.77 455.44,230.29 458.72,226.12 461.99,218.84 465.27,219.25 468.54,220.18 471.81,220.10 475.09,219.64 478.36,220.99 481.64,217.57 484.91,215.35 488.19,218.86 491.46,206.69 494.73,201.18 498.01,196.20 501.28,190.96 504.56,184.42 507.83,184.63 511.10,189.50 514.38,193.92 517.65,206.66 520.93,196.50 524.20,193.06 527.47,197.22 530.75,188.73 534.02,186.68 537.30,184.36 540.57,180.79 543.85,181.19 547.12,172.13 550.39,178.47 553.67,189.08 556.94,191.93 560.22,205.29 563.49,202.97 566.76,212.11 570.04,224.24 573.31,227.36 576.59,232.58 579.86,238.47 583.14,236.38 586.41,237.15 589.68,217.84 592.96,223.39 596.23,224.33 599.51,221.15 602.78,229.94 606.05,222.96 609.33,231.31 612.60,235.99 615.88,236.70 619.15,240.29 622.42,244.04 625.70,231.22 628.97,230.13 632.25,227.49 635.52,235.69 638.80,237.72 642.07,232.49 645.34,223.95 648.62,229.10 651.89,229.99 655.17,239.76 658.44,238.07 661.71,256.58 664.99,255.80 668.26,271.75 671.54,282.23 674.81,283.57 678.08,261.17 681.36,245.51 684.63,248.09 687.91,241.37 691.18,232.65 694.46,213.76 697.73,211.89 701.00,213.88 704.28,207.40 707.55,188.92 710.83,182.21 714.10,183.96 717.37,174.95 720.65,181.73 723.92,189.91 727.20,178.71 730.47,179.39 733.75,170.61 737.02,161.15 740.29,162.04 743.57,161.79 746.84,106.25 750.12,104.83 753.39,108.72 756.66,100.46 759.94,85.15 763.21,85.23 766.49,80.76 769.76,100.13 773.03,102.19 776.31,77.86 779.58,80.33 782.86,87.16 786.13,86.91 789.41,101.69 792.68,99.70 795.95,101.69 799.23,109.16 802.50,99.75 805.78,99.83 809.05,97.76 812.32,113.35 815.60,119.68 818.87,142.81 822.15,147.37 825.42,126.34 828.69,132.17 831.97,140.14 835.24,138.63 838.52,151.19 841.79,148.97 845.07,145.93 848.34,130.51 851.61,124.29 854.89,139.37 858.16,132.62 861.44,161.87 864.71,167.53 867.98,168.87 871.26,171.38 874.53,181.46 877.81,155.54 881.08,149.61 884.36,143.49 887.63,145.56 890.90,135.12 894.18,134.21 897.45,142.36 900.73,147.19 904.00,149.91" />
<text x="780.00" y="60.00" font-size="14" font-family="Arial" fill="#1f77b4" text-anchor="start">Close</text>
<polyline fill="none" stroke="#2ca02c" stroke-width="2" points="118.21,429.48 121.48,428.36 124.76,426.81 128.03,425.17 131.31,424.11 134.58,423.35 137.85,421.90 141.13,420.28 144.40,418.74 147.68,417.23 150.95,415.55 154.22,414.00 157.50,412.31 160.77,410.80 164.05,409.26 167.32,407.76 170.59,406.70 173.87,405.88 177.14,405.16 180.42,404.56 183.69,403.53 186.97,402.27 190.24,401.36 193.51,400.49 196.79,398.92 200.06,397.03 203.34,395.74 206.61,392.88 209.88,390.00 213.16,386.94 216.43,384.33 219.71,381.24 222.98,378.38 226.25,375.31 229.53,372.28 232.80,368.47 236.08,364.67 239.35,360.84 242.63,356.63 245.90,352.24 249.17,348.53 252.45,345.08 255.72,341.89 259.00,338.82 262.27,336.03 265.54,333.54 268.82,331.00 272.09,329.85 275.37,328.77 278.64,327.93 281.92,326.63 285.19,326.14 288.46,325.70 291.74,325.61 295.01,325.95 298.29,326.54 301.56,327.00 304.83,326.88 308.11,326.92 311.38,327.03 314.66,326.72 317.93,326.81 321.20,326.45 324.48,325.87 327.75,324.80 331.03,322.80 334.30,320.86 337.58,318.50 340.85,315.65 344.12,312.80 347.40,310.15 350.67,307.62 353.95,304.47 357.22,301.03 360.49,297.67 363.77,294.01 367.04,290.36 370.32,287.52 373.59,285.37 376.86,283.53 380.14,281.26 383.41,278.57 386.69,275.30 389.96,272.41 393.24,269.25 396.51,265.33 399.78,260.87 403.06,257.26 406.33,254.18 409.61,251.50 412.88,248.95 416.15,245.60 419.43,242.95 422.70,240.05 425.98,237.26 429.25,235.09 432.53,232.78 435.80,230.72 439.07,228.26 442.35,225.71 445.62,223.98 448.90,222.97 452.17,222.19 455.44,220.77 458.72,219.94 461.99,220.26 465.27,220.99 468.54,221.49 471.81,222.00 475.09,222.06 478.36,222.27 481.64,222.61 484.91,222.68 488.19,223.22 491.46,222.56 494.73,221.89 498.01,221.23 501.28,219.68 504.56,217.56 507.83,215.36 511.10,213.27 514.38,210.62 517.65,209.07 520.93,207.38 524.20,205.73 527.47,204.64 530.75,203.12 534.02,201.44 537.30,199.66 540.57,197.71 543.85,195.72 547.12,193.45 550.39,191.61 553.67,190.12 556.94,189.38 560.22,189.59 563.49,189.92 566.76,190.98 570.04,192.97 573.31,195.11 576.59,197.26 579.86,199.49 583.14,200.98 586.41,203.01 589.68,204.25 592.96,205.56 596.23,207.34 599.51,209.06 602.78,211.34 606.05,213.45 609.33,215.95 612.60,219.15 615.88,222.06 619.15,224.62 622.42,227.22 625.70,228.52 628.97,229.88 632.25,230.65 635.52,231.22 638.80,231.74 642.07,231.73 645.34,231.01 648.62,230.64 651.89,230.29 655.17,231.38 658.44,232.12 661.71,233.73 664.99,235.46 668.26,237.55 671.54,240.51 674.81,243.13 678.08,244.39 681.36,244.83 684.63,245.22 687.91,245.08 691.18,245.16 694.46,244.34 697.73,243.56 701.00,242.47 704.28,240.95 707.55,238.77 710.83,236.68 714.10,234.43 717.37,231.68 720.65,228.77 723.92,226.37 727.20,222.47 730.47,218.65 733.75,213.60 737.02,207.54 740.29,201.46 743.57,196.50 746.84,189.53 750.12,182.37 753.39,175.74 756.66,169.13 759.94,162.70 763.21,156.36 766.49,149.71 769.76,144.34 773.03,140.01 776.31,134.79 779.58,129.61 782.86,125.22 786.13,120.48 789.41,116.07 792.68,112.12 795.95,108.23 799.23,105.16 802.50,102.09 805.78,98.98 809.05,95.78 812.32,96.13 815.60,96.88 818.87,98.58 822.15,100.92 825.42,102.98 828.69,105.33 831.97,108.30 835.24,110.22 838.52,112.67 841.79,116.23 845.07,119.51 848.34,121.68 851.61,123.55 854.89,125.43 858.16,127.08 861.44,130.09 864.71,133.00 867.98,136.46 871.26,140.04 874.53,144.22 877.81,146.33 881.08,147.83 884.36,147.86 887.63,147.77 890.90,148.21 894.18,148.31 897.45,148.42 900.73,148.85 904.00,148.79" />
<text x="780.00" y="82.00" font-size="14" font-family="Arial" fill="#2ca02c" text-anchor="start">MA20</text>
<polyline fill="none" stroke="#ff7f0e" stroke-width="2" points="249.17,393.85 252.45,391.90 255.72,390.02 259.00,388.16 262.27,386.36 265.54,384.64 268.82,382.88 272.09,381.00 275.37,379.17 278.64,377.37 281.92,375.50 285.19,373.79 288.46,372.13 291.74,370.57 295.01,369.16 298.29,367.59 301.56,366.12 304.83,364.53 308.11,362.90 311.38,361.28 314.66,359.59 317.93,358.05 321.20,356.57 324.48,355.06 327.75,353.25 331.03,351.12 334.30,349.20 337.58,347.08 340.85,344.81 344.12,342.56 347.40,340.37 350.67,338.33 353.95,336.18 357.22,333.98 360.49,331.97 363.77,329.67 367.04,327.34 370.32,325.08 373.59,322.97 376.86,320.94 380.14,318.84 383.41,316.82 386.69,314.55 389.96,312.37 393.24,310.03 396.51,307.22 399.78,304.24 403.06,301.87 406.33,299.54 409.61,297.41 412.88,295.24 416.15,293.12 419.43,291.04 422.70,288.90 425.98,286.96 429.25,285.22 432.53,283.38 435.80,281.71 439.07,280.18 442.35,278.76 445.62,277.32 448.90,276.12 452.17,274.65 455.44,273.01 458.72,271.33 461.99,269.46 465.27,267.57 468.54,265.75 471.81,263.94 475.09,262.12 478.36,260.46 481.64,258.61 484.91,256.70 488.19,254.76 491.46,252.49 494.73,250.33 498.01,248.12 501.28,245.97 504.56,243.73 507.83,241.53 511.10,239.51 514.38,237.39 517.65,235.52 520.93,233.52 524.20,231.64 527.47,230.08 530.75,228.33 534.02,226.73 537.30,225.28 540.57,223.76 543.85,222.32 547.12,220.56 550.39,219.08 553.67,217.79 556.94,216.40 560.22,215.52 563.49,214.64 566.76,213.79 570.04,212.93 573.31,212.06 576.59,211.50 579.86,211.03 583.14,210.74 586.41,210.38 589.68,209.97 592.96,210.16 596.23,210.48 599.51,210.66 602.78,211.00 606.05,211.08 609.33,211.32 612.60,211.74 615.88,212.12 619.15,212.65 622.42,213.05 625.70,213.33 628.97,213.68 632.25,213.77 635.52,213.92 638.80,214.07 642.07,214.09 645.34,213.71 648.62,213.56 651.89,213.56 655.17,213.79 658.44,214.11 661.71,214.73 664.99,215.32 668.26,216.18 671.54,217.23 674.81,218.27 678.08,219.00 681.36,219.50 684.63,219.99 687.91,220.56 691.18,221.09 694.46,221.38 697.73,221.73 701.00,222.22 704.28,222.60 707.55,222.59 710.83,222.39 714.10,222.02 717.37,221.66 720.65,221.47 723.92,221.35 727.20,221.18 730.47,221.06 733.75,220.83 737.02,220.50 740.29,220.18 743.57,220.01 746.84,218.81 750.12,217.40 753.39,216.01 756.66,214.27 759.94,212.30 763.21,210.19 766.49,207.80 769.76,205.68 773.03,203.50 776.31,200.83 779.58,198.23 782.86,195.73 786.13,193.54 789.41,191.52 792.68,189.44 795.95,187.45 799.23,185.44 802.50,183.38 805.78,181.19 809.05,178.89 812.32,176.83 815.60,174.82 818.87,173.13 822.15,171.74 825.42,170.01 828.69,168.42 831.97,166.82 835.24,165.17 838.52,163.82 841.79,162.57 845.07,161.18 848.34,159.52 851.61,157.60 854.89,155.96 858.16,153.89 861.44,152.32 864.71,150.59 867.98,148.70 871.26,146.83 874.53,145.50 877.81,144.00 881.08,142.36 884.36,140.73 887.63,139.28 890.90,137.96 894.18,136.67 897.45,135.48 900.73,134.47 904.00,133.82" />
<text x="780.00" y="104.00" font-size="14" font-family="Arial" fill="#ff7f0e" text-anchor="start">MA60</text>
<polyline fill="none" stroke="#d62728" stroke-width="2" points="707.55,289.45 710.83,288.19 714.10,286.91 717.37,285.59 720.65,284.32 723.92,283.10 727.20,281.80 730.47,280.49 733.75,279.15 737.02,277.77 740.29,276.41 743.57,275.07 746.84,273.45 750.12,271.83 753.39,270.24 756.66,268.62 759.94,266.96 763.21,265.31 766.49,263.63 769.76,262.06 773.03,260.51 776.31,258.83 779.58,257.19 782.86,255.59 786.13,253.96 789.41,252.37 792.68,250.82 795.95,249.28 799.23,247.79 802.50,246.25 805.78,244.76 809.05,243.25 812.32,241.83 815.60,240.44 818.87,239.17 822.15,237.93 825.42,236.59 828.69,235.25 831.97,233.94 835.24,232.62 838.52,231.42 841.79,230.23 845.07,229.01 848.34,227.71 851.61,226.42 854.89,225.21 858.16,223.96 861.44,223.00 864.71,222.09 867.98,221.21 871.26,220.33 874.53,219.55 877.81,218.63 881.08,217.69 884.36,216.73 887.63,215.86 890.90,214.94 894.18,214.00 897.45,213.12 900.73,212.29 904.00,211.45" />
<text x="780.00" y="126.00" font-size="14" font-family="Arial" fill="#d62728" text-anchor="start">MA200</text>
</svg>