<svg xmlns="http://www.w3.org/2000/svg" width="960" height="520" viewBox="0 0 960 520"><rect width="100%" height="100%" fill="white" />
<text x="56.00" y="32.00" font-size="20" font-family="Arial" fill="#1f2933" text-anchor="start">GOOGL Price and Moving Averages</text>
<line x1="56" y1="464" x2="904" y2="464" stroke="#cbd2d9" />
<line x1="56" y1="56" x2="56" y2="464" stroke="#cbd2d9" />
<text x="16.00" y="38.00" font-size="12" font-family="Arial" fill="#52606d" text-anchor="start">Price</text>
<line x1="56" y1="464.00" x2="904" y2="464.00" stroke="#edf2f7" />
<line x1="52" y1="464.00" x2="56" y2="464.00" stroke="#9fb3c8" />
<text x="48.00" y="468.00" font-size="11" font-family="Arial" fill="#52606d" text-anchor="end">152</text>
<line x1="56" y1="362.00" x2="904" y2="362.00" stroke="#edf2f7" />
<line x1="52" y1="362.00" x2="56" y2="362.00" stroke="#9fb3c8" />
<text x="48.00" y="366.00" font-size="11" font-family="Arial" fill="#52606d" text-anchor="end">218</text>
<line x1="56" y1="260.00" x2="904" y2="260.00" stroke="#edf2f7" />
<line x1="52" y1="260.00" x2="56" y2="260.00" stroke="#9fb3c8" />
<text x="48.00" y="264.00" font-size="11" font-family="Arial" fill="#52606d" text-anchor="end">284</text>
<line x1="56" y1="158.00" x2="904" y2="158.00" stroke="#edf2f7" />
<line x1="52" y1="158.00" x2="56" y2="158.00" stroke="#9fb3c8" />
<text x="48.00" y="162.00" font-size="11" font-family="Arial" fill="#52606d" text-anchor="end">350</text>
<line x1="56" y1="56.00" x2="904" y2="56.00" stroke="#edf2f7" />
<line x1="52" y1="56.00" x2="56" y2="56.00" stroke="#9fb3c8" />
<text x="48.00" y="60.00" font-size="11" font-family="Arial" fill="#52606d" text-anchor="end">417</text>
<line x1="56.00" y1="464" x2="56.00" y2="468" stroke="#9fb3c8" />
<text x="56.00" y="482.00" font-size="11" font-family="Arial" fill="#52606d" text-anchor="middle">06/24</text>
<line x1="226.25" y1="464" x2="226.25" y2="468" stroke="#9fb3c8" />
<text x="226.25" y="482.00" font-size="11" font-family="Arial" fill="#52606d" text-anchor="middle">09/08</text>
<line x1="396.51" y1="464" x2="396.51" y2="468" stroke="#9fb3c8" />
<text x="396.51" y="482.00" font-size="11" font-family="Arial" fill="#52606d" text-anchor="middle">11/19</text>
<line x1="563.49" y1="464" x2="563.49" y2="468" stroke="#9fb3c8" />
<text x="563.49" y="482.00" font-size="11" font-family="Arial" fill="#52606d" text-anchor="middle">02/04</text>
<line x1="733.75" y1="464" x2="733.75" y2="468" stroke="#9fb3c8" />
<text x="733.75" y="482.00" font-size="11" font-family="Arial" fill="#52606d" text-anchor="middle">04/21</text>
<line x1="904.00" y1="464" x2="904.00" y2="468" stroke="#9fb3c8" />
<text x="904.00" y="482.00" font-size="11" font-family="Arial" fill="#52606d" text-anchor="middle">07/07</text>
<polyline fill="none" stroke="#1f77b4" stroke-width="2" points="56.00,442.14 59.27,436.13 62.55,431.73 65.82,424.05 69.10,427.59 72.37,428.19 75.64,423.88 78.92,422.51 82.19,426.73 85.47,430.46 88.74,426.99 92.02,425.45 95.29,421.49 98.56,419.39 101.84,418.71 105.11,417.22 108.39,416.28 111.66,414.00 114.93,406.25 118.21,404.34 121.48,406.05 124.76,403.06 128.03,401.51 131.31,402.43 134.58,397.55 137.85,396.35 141.13,403.48 144.40,407.74 147.68,398.65 150.95,399.21 154.22,397.03 157.50,396.37 160.77,388.83 164.05,389.48 167.32,385.87 170.59,388.00 173.87,386.49 177.14,385.01 180.42,385.63 183.69,388.60 186.97,392.06 190.24,391.40 193.51,381.64 196.79,377.95 200.06,380.03 203.34,379.50 206.61,373.10 209.88,371.15 213.16,373.55 216.43,343.84 219.71,341.32 222.98,337.16 226.25,338.32 229.53,329.71 232.80,330.42 236.08,328.57 239.35,327.91 242.63,311.26 245.90,311.95 249.17,314.46 252.45,310.61 255.72,306.47 259.00,309.84 262.27,311.18 265.54,318.14 268.82,320.22 272.09,319.07 275.37,322.90 278.64,324.36 281.92,321.59 285.19,320.37 288.46,320.90 291.74,313.08 295.01,320.27 298.29,322.02 301.56,326.78 304.83,334.42 308.11,322.75 311.38,320.74 314.66,312.15 317.93,311.49 321.20,308.66 324.48,303.65 327.75,313.03 331.03,311.13 334.30,308.99 337.58,298.46 340.85,284.06 344.12,286.83 347.40,275.90 350.67,265.26 353.95,265.70 357.22,261.81 360.49,271.33 363.77,260.90 367.04,260.22 370.32,269.34 373.59,251.98 376.86,250.12 380.14,257.20 383.41,269.74 386.69,273.07 389.96,259.81 393.24,260.95 396.51,247.81 399.78,252.98 403.06,237.26 406.33,208.12 409.61,200.64 412.88,206.01 416.15,205.66 419.43,213.81 422.70,212.39 425.98,206.51 429.25,209.60 432.53,203.98 435.80,215.29 439.07,210.11 442.35,205.29 445.62,217.28 448.90,222.12 452.17,223.77 455.44,226.31 458.72,241.49 461.99,232.64 465.27,225.40 468.54,221.36 471.81,214.32 475.09,214.72 478.36,215.61 481.64,215.54 484.91,215.09 488.19,216.40 491.46,213.09 494.73,210.95 498.01,214.34 501.28,202.56 504.56,197.23 507.83,192.41 511.10,187.34 514.38,181.00 517.65,181.20 520.93,185.92 524.20,190.20 527.47,202.53 530.75,192.70 534.02,189.37 537.30,193.39 540.57,185.18 543.85,183.19 547.12,180.94 550.39,177.49 553.67,177.88 556.94,169.11 560.22,175.24 563.49,185.52 566.76,188.28 570.04,201.21 573.31,198.96 576.59,207.80 579.86,219.54 583.14,222.56 586.41,227.62 589.68,233.32 592.96,231.30 596.23,232.04 599.51,213.35 602.78,218.73 606.05,219.64 609.33,216.55 612.60,225.06 615.88,218.31 619.15,226.39 622.42,230.92 625.70,231.61 628.97,235.08 632.25,238.71 635.52,226.30 638.80,225.25 642.07,222.69 645.34,230.63 648.62,232.59 651.89,227.53 655.17,219.27 658.44,224.25 661.71,225.11 664.99,234.57 668.26,232.93 671.54,250.85 674.81,250.10 678.08,265.53 681.36,275.68 684.63,276.97 687.91,255.29 691.18,240.13 694.46,242.63 697.73,236.12 701.00,227.69 704.28,209.40 707.55,207.60 710.83,209.52 714.10,203.25 717.37,185.36 720.65,178.87 723.92,180.56 727.20,171.83 730.47,178.40 733.75,186.31 737.02,175.47 740.29,176.14 743.57,167.64 746.84,158.48 750.12,159.34 753.39,159.10 756.66,105.34 759.94,103.97 763.21,107.73 766.49,99.74 769.76,84.92 773.03,85.00 776.31,80.66 779.58,99.42 782.86,101.41 786.13,77.86 789.41,80.25 792.68,86.86 795.95,86.62 799.23,100.93 802.50,99.00 805.78,100.93 809.05,108.16 812.32,99.05 815.60,99.12 818.87,97.12 822.15,112.22 825.42,118.34 828.69,140.73 831.97,145.14 835.24,124.78 838.52,130.43 841.79,138.14 845.07,136.68 848.34,148.84 851.61,146.69 854.89,143.74 858.16,128.82 861.44,122.81 864.71,137.40 867.98,130.86 871.26,159.17 874.53,164.65 877.81,165.95 881.08,168.39 884.36,178.14 887.63,153.05 890.90,147.31 894.18,141.38 897.45,143.39 900.73,133.28 904.00,132.40" />
<text x="780.00" y="60.00" font-size="14" font-family="Arial" fill="#1f77b4" text-anchor="start">Close</text>
<polyline fill="none" stroke="#2ca02c" stroke-width="2" points="118.21,423.18 121.48,421.37 124.76,419.72 128.03,418.21 131.31,417.13 134.58,415.62 137.85,414.03 141.13,413.01 144.40,412.27 147.68,410.87 150.95,409.31 154.22,407.81 157.50,406.35 160.77,404.72 164.05,403.23 167.32,401.58 170.59,400.12 173.87,398.63 177.14,397.18 180.42,396.15 183.69,395.37 186.97,394.67 190.24,394.08 193.51,393.09 196.79,391.87 200.06,390.99 203.34,390.15 206.61,388.63 209.88,386.80 213.16,385.55 216.43,382.78 219.71,379.99 222.98,377.03 226.25,374.50 229.53,371.52 232.80,368.74 236.08,365.77 239.35,362.84 242.63,359.16 245.90,355.47 249.17,351.76 252.45,347.69 255.72,343.45 259.00,339.86 262.27,336.52 265.54,333.42 268.82,330.46 272.09,327.76 275.37,325.34 278.64,322.88 281.92,321.77 285.19,320.73 288.46,319.91 291.74,318.65 295.01,318.18 298.29,317.76 301.56,317.67 304.83,317.99 308.11,318.57 311.38,319.01 314.66,318.89 317.93,318.94 321.20,319.05 324.48,318.74 327.75,318.83 331.03,318.48 334.30,317.92 337.58,316.89 340.85,314.95 344.12,313.07 347.40,310.78 350.67,308.03 353.95,305.27 357.22,302.71 360.49,300.26 363.77,297.20 367.04,293.87 370.32,290.62 373.59,287.08 376.86,283.55 380.14,280.80 383.41,278.72 386.69,276.94 389.96,274.74 393.24,272.14 396.51,268.97 399.78,266.17 403.06,263.11 406.33,259.32 409.61,255.01 412.88,251.51 416.15,248.53 419.43,245.94 422.70,243.47 425.98,240.23 429.25,237.66 432.53,234.85 435.80,232.15 439.07,230.05 442.35,227.81 445.62,225.81 448.90,223.43 452.17,220.97 455.44,219.29 458.72,218.32 461.99,217.56 465.27,216.18 468.54,215.39 471.81,215.70 475.09,216.40 478.36,216.88 481.64,217.38 484.91,217.44 488.19,217.64 491.46,217.97 494.73,218.04 498.01,218.56 501.28,217.92 504.56,217.28 507.83,216.63 511.10,215.13 514.38,213.08 517.65,210.95 520.93,208.93 524.20,206.37 527.47,204.86 530.75,203.23 534.02,201.63 537.30,200.58 540.57,199.10 543.85,197.48 547.12,195.75 550.39,193.87 553.67,191.95 556.94,189.75 560.22,187.96 563.49,186.52 566.76,185.81 570.04,186.00 573.31,186.33 576.59,187.36 579.86,189.28 583.14,191.35 586.41,193.44 589.68,195.59 592.96,197.03 596.23,199.00 599.51,200.20 602.78,201.46 606.05,203.19 609.33,204.85 612.60,207.06 615.88,209.10 619.15,211.53 622.42,214.62 625.70,217.44 628.97,219.91 632.25,222.44 635.52,223.69 638.80,225.01 642.07,225.75 645.34,226.30 648.62,226.81 651.89,226.80 655.17,226.10 658.44,225.75 661.71,225.40 664.99,226.46 668.26,227.17 671.54,228.73 674.81,230.41 678.08,232.43 681.36,235.30 684.63,237.83 687.91,239.05 691.18,239.47 694.46,239.85 697.73,239.72 701.00,239.79 704.28,239.00 707.55,238.24 710.83,237.19 714.10,235.72 717.37,233.61 720.65,231.59 723.92,229.41 727.20,226.74 730.47,223.94 733.75,221.61 737.02,217.84 740.29,214.14 743.57,209.24 746.84,203.38 750.12,197.50 753.39,192.69 756.66,185.95 759.94,179.02 763.21,172.60 766.49,166.20 769.76,159.98 773.03,153.85 776.31,147.40 779.58,142.21 782.86,138.02 786.13,132.97 789.41,127.95 792.68,123.70 795.95,119.11 799.23,114.84 802.50,111.02 805.78,107.26 809.05,104.28 812.32,101.31 815.60,98.30 818.87,95.20 822.15,95.55 825.42,96.27 828.69,97.92 831.97,100.19 835.24,102.18 838.52,104.45 841.79,107.32 845.07,109.19 848.34,111.56 851.61,115.00 854.89,118.18 858.16,120.27 861.44,122.08 864.71,123.91 867.98,125.50 871.26,128.41 874.53,131.24 877.81,134.58 881.08,138.04 884.36,142.10 887.63,144.14 890.90,145.59 894.18,145.62 897.45,145.53 900.73,145.96 904.00,146.05" />
<text x="780.00" y="82.00" font-size="14" font-family="Arial" fill="#2ca02c" text-anchor="start">MA20</text>
<polyline fill="none" stroke="#ff7f0e" stroke-width="2" points="249.17,390.10 252.45,387.91 255.72,385.75 259.00,383.72 262.27,381.84 265.54,380.01 268.82,378.21 272.09,376.47 275.37,374.81 278.64,373.10 281.92,371.29 285.19,369.51 288.46,367.77 291.74,365.96 295.01,364.31 298.29,362.70 301.56,361.19 304.83,359.82 308.11,358.30 311.38,356.88 314.66,355.34 317.93,353.77 321.20,352.19 324.48,350.56 327.75,349.07 331.03,347.63 334.30,346.17 337.58,344.42 340.85,342.36 344.12,340.50 347.40,338.44 350.67,336.25 353.95,334.07 357.22,331.95 360.49,329.98 363.77,327.90 367.04,325.77 370.32,323.82 373.59,321.60 376.86,319.34 380.14,317.15 383.41,315.12 386.69,313.14 389.96,311.11 393.24,309.16 396.51,306.96 399.78,304.85 403.06,302.59 406.33,299.87 409.61,296.99 412.88,294.69 416.15,292.43 419.43,290.37 422.70,288.27 425.98,286.22 429.25,284.21 432.53,282.13 435.80,280.25 439.07,278.57 442.35,276.79 445.62,275.17 448.90,273.70 452.17,272.32 455.44,270.93 458.72,269.76 461.99,268.34 465.27,266.76 468.54,265.13 471.81,263.32 475.09,261.49 478.36,259.73 481.64,257.98 484.91,256.22 488.19,254.60 491.46,252.82 494.73,250.97 498.01,249.09 501.28,246.90 504.56,244.80 507.83,242.66 511.10,240.58 514.38,238.41 517.65,236.29 520.93,234.32 524.20,232.28 527.47,230.47 530.75,228.53 534.02,226.71 537.30,225.20 540.57,223.50 543.85,221.96 547.12,220.55 550.39,219.08 553.67,217.68 556.94,215.98 560.22,214.55 563.49,213.31 566.76,211.96 570.04,211.11 573.31,210.26 576.59,209.43 579.86,208.60 583.14,207.76 586.41,207.22 589.68,206.76 592.96,206.48 596.23,206.14 599.51,205.74 602.78,205.91 606.05,206.23 609.33,206.41 612.60,206.73 615.88,206.80 619.15,207.04 622.42,207.44 625.70,207.81 628.97,208.33 632.25,208.72 635.52,208.99 638.80,209.32 642.07,209.41 645.34,209.56 648.62,209.70 651.89,209.72 655.17,209.35 658.44,209.21 661.71,209.21 664.99,209.43 668.26,209.74 671.54,210.34 674.81,210.91 678.08,211.75 681.36,212.76 684.63,213.77 687.91,214.47 691.18,214.96 694.46,215.43 697.73,215.99 701.00,216.50 704.28,216.78 707.55,217.12 710.83,217.59 714.10,217.96 717.37,217.95 720.65,217.76 723.92,217.39 727.20,217.05 730.47,216.86 733.75,216.75 737.02,216.58 740.29,216.47 743.57,216.25 746.84,215.93 750.12,215.62 753.39,215.45 756.66,214.29 759.94,212.93 763.21,211.59 766.49,209.89 769.76,207.99 773.03,205.95 776.31,203.63 779.58,201.58 782.86,199.48 786.13,196.89 789.41,194.37 792.68,191.95 795.95,189.84 799.23,187.87 802.50,185.86 805.78,183.93 809.05,181.99 812.32,180.00 815.60,177.88 818.87,175.65 822.15,173.66 825.42,171.71 828.69,170.08 831.97,168.73 835.24,167.05 838.52,165.51 841.79,163.97 845.07,162.37 848.34,161.06 851.61,159.85 854.89,158.51 858.16,156.91 861.44,155.04 864.71,153.45 867.98,151.45 871.26,149.94 874.53,148.25 877.81,146.43 881.08,144.62 884.36,143.33 887.63,141.88 890.90,140.29 894.18,138.71 897.45,137.31 900.73,136.04 904.00,134.78" />
<text x="780.00" y="104.00" font-size="14" font-family="Arial" fill="#ff7f0e" text-anchor="start">MA60</text>
<polyline fill="none" stroke="#d62728" stroke-width="2" points="707.55,286.23 710.83,285.07 714.10,283.90 717.37,282.67 720.65,281.44 723.92,280.21 727.20,278.93 730.47,277.70 733.75,276.52 737.02,275.26 740.29,273.99 743.57,272.69 746.84,271.36 750.12,270.05 753.39,268.75 756.66,267.18 759.94,265.61 763.21,264.07 766.49,262.50 769.76,260.89 773.03,259.30 776.31,257.67 779.58,256.15 782.86,254.65 786.13,253.03 789.41,251.44 792.68,249.89 795.95,248.31 799.23,246.78 802.50,245.28 805.78,243.79 809.05,242.34 812.32,240.86 815.60,239.41 818.87,237.95 822.15,236.58 825.42,235.23 828.69,234.00 831.97,232.80 835.24,231.50 838.52,230.21 841.79,228.94 845.07,227.66 848.34,226.50 851.61,225.34 854.89,224.16 858.16,222.91 861.44,221.66 864.71,220.49 867.98,219.27 871.26,218.35 874.53,217.47 877.81,216.61 881.08,215.76 884.36,215.00 887.63,214.12 890.90,213.21 894.18,212.28 897.45,211.44 900.73,210.55 904.00,209.63" />
<text x="780.00" y="126.00" font-size="14" font-family="Arial" fill="#d62728" text-anchor="start">MA200</text>
</svg>