<svg xmlns="http://www.w3.org/2000/svg" width="960" height="520" viewBox="0 0 960 520"><rect width="100%" height="100%" fill="white" />
<text x="56.00" y="32.00" font-size="20" font-family="Arial" fill="#1f2933" text-anchor="start">INTC Price and Moving Averages</text>
<line x1="56" y1="464" x2="904" y2="464" stroke="#cbd2d9" />
<line x1="56" y1="56" x2="56" y2="464" stroke="#cbd2d9" />
<text x="16.00" y="38.00" font-size="12" font-family="Arial" fill="#52606d" text-anchor="start">Price</text>
<line x1="56" y1="464.00" x2="904" y2="464.00" stroke="#edf2f7" />
<line x1="52" y1="464.00" x2="56" y2="464.00" stroke="#9fb3c8" />
<text x="48.00" y="468.00" font-size="11" font-family="Arial" fill="#52606d" text-anchor="end">12.0</text>
<line x1="56" y1="362.00" x2="904" y2="362.00" stroke="#edf2f7" />
<line x1="52" y1="362.00" x2="56" y2="362.00" stroke="#9fb3c8" />
<text x="48.00" y="366.00" font-size="11" font-family="Arial" fill="#52606d" text-anchor="end">46.1</text>
<line x1="56" y1="260.00" x2="904" y2="260.00" stroke="#edf2f7" />
<line x1="52" y1="260.00" x2="56" y2="260.00" stroke="#9fb3c8" />
<text x="48.00" y="264.00" font-size="11" font-family="Arial" fill="#52606d" text-anchor="end">80.1</text>
<line x1="56" y1="158.00" x2="904" y2="158.00" stroke="#edf2f7" />
<line x1="52" y1="158.00" x2="56" y2="158.00" stroke="#9fb3c8" />
<text x="48.00" y="162.00" font-size="11" font-family="Arial" fill="#52606d" text-anchor="end">114</text>
<line x1="56" y1="56.00" x2="904" y2="56.00" stroke="#edf2f7" />
<line x1="52" y1="56.00" x2="56" y2="56.00" stroke="#9fb3c8" />
<text x="48.00" y="60.00" font-size="11" font-family="Arial" fill="#52606d" text-anchor="end">148</text>
<line x1="56.00" y1="464" x2="56.00" y2="468" stroke="#9fb3c8" />
<text x="56.00" y="482.00" font-size="11" font-family="Arial" fill="#52606d" text-anchor="middle">07/08</text>
<line x1="226.25" y1="464" x2="226.25" y2="468" stroke="#9fb3c8" />
<text x="226.25" y="482.00" font-size="11" font-family="Arial" fill="#52606d" text-anchor="middle">09/19</text>
<line x1="396.51" y1="464" x2="396.51" y2="468" stroke="#9fb3c8" />
<text x="396.51" y="482.00" font-size="11" font-family="Arial" fill="#52606d" text-anchor="middle">12/03</text>
<line x1="563.49" y1="464" x2="563.49" y2="468" stroke="#9fb3c8" />
<text x="563.49" y="482.00" font-size="11" font-family="Arial" fill="#52606d" text-anchor="middle">02/18</text>
<line x1="733.75" y1="464" x2="733.75" y2="468" stroke="#9fb3c8" />
<text x="733.75" y="482.00" font-size="11" font-family="Arial" fill="#52606d" text-anchor="middle">05/04</text>
<line x1="904.00" y1="464" x2="904.00" y2="468" stroke="#9fb3c8" />
<text x="904.00" y="482.00" font-size="11" font-family="Arial" fill="#52606d" text-anchor="middle">07/20</text>
<polyline fill="none" stroke="#1f77b4" stroke-width="2" points="56.00,429.32 59.27,429.77 62.55,428.64 65.82,429.80 69.10,430.19 72.37,431.33 75.64,432.02 78.92,431.69 82.19,430.79 85.47,430.31 88.74,430.37 92.02,429.62 95.29,432.20 98.56,437.98 101.84,438.04 105.11,438.85 108.39,439.06 111.66,440.68 114.93,442.14 118.21,441.57 121.48,439.51 124.76,438.85 128.03,440.77 131.31,440.23 134.58,438.13 137.85,434.66 141.13,433.43 144.40,428.52 147.68,426.42 150.95,429.11 154.22,424.17 157.50,429.47 160.77,429.59 164.05,425.70 167.32,426.45 170.59,427.05 173.87,425.55 177.14,425.31 180.42,427.05 183.69,427.47 186.97,428.10 190.24,426.27 193.51,426.63 196.79,426.66 200.06,426.78 203.34,425.79 206.61,426.27 209.88,427.86 213.16,425.79 216.43,424.29 219.71,425.40 222.98,408.42 226.25,411.38 229.53,413.84 232.80,412.10 236.08,406.47 239.35,398.18 242.63,393.65 245.90,396.71 249.17,399.49 252.45,392.34 255.72,388.26 259.00,389.67 262.27,390.39 265.54,388.65 268.82,387.87 272.09,386.76 275.37,391.05 278.64,388.50 281.92,393.26 285.19,388.71 288.46,389.64 291.74,389.13 295.01,385.87 298.29,385.81 301.56,389.40 304.83,385.69 308.11,385.33 311.38,381.55 314.66,375.59 317.93,376.16 321.20,379.70 324.48,380.21 327.75,381.67 331.03,389.07 334.30,385.03 337.58,388.44 340.85,385.78 344.12,384.82 347.40,386.53 350.67,386.50 353.95,392.43 357.22,393.59 360.49,396.02 363.77,397.16 367.04,394.82 370.32,399.28 373.59,396.65 376.86,392.78 380.14,392.66 383.41,389.73 386.69,378.50 389.96,380.15 393.24,369.78 396.51,368.91 399.78,378.68 403.06,375.95 406.33,379.28 409.61,378.68 412.88,377.84 416.15,381.64 419.43,386.73 422.70,387.63 425.98,388.23 429.25,392.01 432.53,391.32 435.80,389.70 439.07,391.05 442.35,391.11 445.62,391.68 448.90,391.56 452.17,390.12 455.44,388.26 458.72,389.46 461.99,382.03 465.27,382.06 468.54,380.06 471.81,372.30 475.09,376.85 478.36,363.55 481.64,368.02 484.91,358.34 488.19,354.06 491.46,355.26 494.73,359.33 498.01,354.54 501.28,337.50 504.56,337.29 507.83,364.99 511.10,372.72 514.38,368.41 517.65,353.88 520.93,354.24 524.20,360.80 527.47,353.79 530.75,352.47 534.02,354.42 537.30,355.50 540.57,348.46 543.85,349.51 547.12,358.82 550.39,355.35 553.67,360.77 556.94,359.84 560.22,361.67 563.49,363.82 566.76,366.34 570.04,367.87 573.31,369.30 576.59,361.85 579.86,359.57 583.14,363.82 586.41,363.37 589.68,363.70 592.96,370.89 596.23,363.46 599.51,362.36 602.78,369.93 606.05,363.46 609.33,359.87 612.60,356.28 615.88,364.45 619.15,362.89 622.42,362.92 625.70,368.02 628.97,365.11 632.25,361.67 635.52,368.58 638.80,368.17 642.07,368.02 645.34,358.67 648.62,367.90 651.89,370.80 655.17,376.61 658.44,367.81 661.71,356.13 664.99,349.09 668.26,347.89 671.54,341.51 674.81,323.42 678.08,315.12 681.36,313.15 684.63,304.76 687.91,308.86 691.18,305.48 694.46,294.82 697.73,294.82 701.00,303.20 704.28,301.53 707.55,304.49 710.83,299.97 714.10,252.77 717.37,245.43 720.65,246.84 723.92,216.20 727.20,217.01 730.47,201.61 733.75,213.11 737.02,176.06 740.29,161.51 743.57,171.66 746.84,125.84 750.12,112.30 753.39,138.75 756.66,139.70 759.94,152.76 763.21,174.21 766.49,176.00 769.76,168.13 773.03,143.69 776.31,145.07 779.58,141.05 782.86,130.03 786.13,135.27 789.41,137.91 792.68,156.51 795.95,172.53 799.23,176.72 802.50,162.41 805.78,165.19 809.05,202.96 812.32,169.71 815.60,176.75 818.87,179.39 822.15,149.68 825.42,126.89 828.69,117.03 831.97,149.41 835.24,137.28 838.52,98.67 841.79,77.86 845.07,103.79 848.34,105.68 851.61,102.03 854.89,115.65 858.16,105.47 861.44,81.78 864.71,119.55 867.98,139.52 871.26,133.98 874.53,169.36 877.81,169.80 881.08,162.92 884.36,171.00 887.63,191.13 890.90,177.23 894.18,191.52 897.45,209.52 900.73,215.33 904.00,209.28" />
<text x="780.00" y="60.00" font-size="14" font-family="Arial" fill="#1f77b4" text-anchor="start">Close</text>
<polyline fill="none" stroke="#2ca02c" stroke-width="2" points="118.21,433.72 121.48,434.23 124.76,434.68 128.03,435.29 131.31,435.81 134.58,436.21 137.85,436.37 141.13,436.44 144.40,436.28 147.68,436.07 150.95,436.01 154.22,435.70 157.50,435.69 160.77,435.56 164.05,434.94 167.32,434.36 170.59,433.77 173.87,433.10 177.14,432.33 180.42,431.58 183.69,430.87 186.97,430.30 190.24,429.67 193.51,428.96 196.79,428.29 200.06,427.72 203.34,427.28 206.61,426.92 209.88,426.88 213.16,426.85 216.43,426.61 219.71,426.67 222.98,425.62 226.25,424.71 229.53,424.12 232.80,423.40 236.08,422.37 239.35,421.00 242.63,419.42 245.90,417.90 249.17,416.50 252.45,414.72 255.72,412.82 259.00,410.97 262.27,409.15 265.54,407.25 268.82,405.35 272.09,403.38 275.37,401.54 278.64,399.67 281.92,398.12 285.19,396.29 288.46,395.35 291.74,394.23 295.01,392.84 298.29,391.52 301.56,390.67 304.83,390.04 308.11,389.63 311.38,388.87 314.66,387.67 317.93,386.87 321.20,386.44 324.48,385.96 327.75,385.53 331.03,385.55 334.30,385.41 337.58,385.49 340.85,385.23 344.12,385.04 347.40,384.71 350.67,384.59 353.95,384.73 357.22,384.96 360.49,385.46 363.77,386.03 367.04,386.30 370.32,386.98 373.59,387.55 376.86,388.11 380.14,388.96 383.41,389.64 386.69,389.58 389.96,389.58 393.24,388.99 396.51,387.98 399.78,387.66 403.06,387.04 406.33,386.71 409.61,386.40 412.88,385.97 416.15,385.73 419.43,385.44 422.70,385.14 425.98,384.76 429.25,384.50 432.53,384.32 435.80,383.84 439.07,383.56 442.35,383.48 445.62,383.43 448.90,383.52 452.17,384.10 455.44,384.51 458.72,385.49 461.99,386.15 465.27,386.32 468.54,386.52 471.81,386.17 475.09,386.08 478.36,385.37 481.64,384.69 484.91,383.27 488.19,381.59 491.46,379.94 494.73,378.31 498.01,376.47 501.28,373.86 504.56,371.17 507.83,369.86 511.10,368.91 514.38,367.76 517.65,365.94 520.93,364.24 524.20,362.81 527.47,361.40 530.75,359.92 534.02,358.64 537.30,357.80 540.57,356.38 543.85,355.67 547.12,355.22 550.39,355.07 553.67,355.40 556.94,355.63 560.22,355.75 563.49,356.21 566.76,357.65 570.04,359.18 573.31,359.40 576.59,358.85 579.86,358.41 583.14,358.91 586.41,359.37 589.68,359.51 592.96,360.37 596.23,360.92 599.51,361.31 602.78,362.03 606.05,362.78 609.33,363.30 612.60,363.18 615.88,363.63 619.15,363.74 622.42,363.89 625.70,364.21 628.97,364.27 632.25,364.04 635.52,364.08 638.80,364.02 642.07,364.33 645.34,364.28 648.62,364.49 651.89,364.86 655.17,365.50 658.44,365.35 661.71,364.98 664.99,364.32 668.26,363.22 671.54,362.12 674.81,360.30 678.08,358.24 681.36,355.67 684.63,352.77 687.91,350.06 691.18,346.94 694.46,343.42 697.73,340.08 701.00,336.81 704.28,333.48 707.55,330.30 710.83,327.37 714.10,321.61 717.37,315.34 720.65,308.85 723.92,301.27 727.20,294.32 730.47,286.94 733.75,280.20 737.02,271.93 740.29,263.84 743.57,256.66 746.84,247.30 750.12,237.68 753.39,229.17 756.66,220.88 759.94,213.78 763.21,207.75 766.49,201.39 769.76,194.72 773.03,186.68 776.31,178.93 779.58,173.35 782.86,167.58 786.13,162.00 789.41,158.08 792.68,155.06 795.95,153.60 799.23,151.79 802.50,151.10 805.78,151.29 809.05,152.85 812.32,155.05 815.60,158.27 818.87,160.30 822.15,160.80 825.42,159.50 828.69,156.65 831.97,155.32 835.24,153.77 838.52,151.52 841.79,148.16 845.07,146.30 848.34,145.08 851.61,143.42 854.89,142.31 858.16,139.76 861.44,135.22 864.71,132.36 867.98,131.22 871.26,129.65 874.53,127.97 877.81,127.98 881.08,127.29 884.36,126.87 887.63,128.94 890.90,131.46 894.18,135.18 897.45,138.19 900.73,142.09 904.00,147.62" />
<text x="780.00" y="82.00" font-size="14" font-family="Arial" fill="#2ca02c" text-anchor="start">MA20</text>
<polyline fill="none" stroke="#ff7f0e" stroke-width="2" points="249.17,427.03 252.45,426.41 255.72,425.72 259.00,425.07 262.27,424.42 265.54,423.72 268.82,423.00 272.09,422.25 275.37,421.57 278.64,420.86 281.92,420.25 285.19,419.55 288.46,418.89 291.74,418.17 295.01,417.30 298.29,416.43 301.56,415.60 304.83,414.71 308.11,413.79 311.38,412.78 314.66,411.68 317.93,410.63 321.20,409.64 324.48,408.63 327.75,407.66 331.03,406.84 334.30,406.01 337.58,405.26 340.85,404.55 344.12,403.86 347.40,403.15 350.67,402.52 353.95,401.90 357.22,401.30 360.49,400.81 363.77,400.32 367.04,399.78 370.32,399.34 373.59,398.87 376.86,398.29 380.14,397.71 383.41,397.07 386.69,396.28 389.96,395.50 393.24,394.56 396.51,393.59 399.78,392.81 403.06,391.97 406.33,391.16 409.61,390.37 412.88,389.60 416.15,388.87 419.43,388.51 422.70,388.11 425.98,387.69 429.25,387.35 432.53,387.10 435.80,386.96 439.07,386.91 442.35,386.82 445.62,386.69 448.90,386.68 452.17,386.71 455.44,386.68 458.72,386.67 461.99,386.56 465.27,386.46 468.54,386.35 471.81,386.04 475.09,385.84 478.36,385.35 481.64,385.00 484.91,384.48 488.19,383.90 491.46,383.39 494.73,382.95 498.01,382.36 501.28,381.56 504.56,380.76 507.83,380.48 511.10,380.44 514.38,380.31 517.65,379.88 520.93,379.44 524.20,379.10 527.47,378.51 530.75,377.97 534.02,377.40 537.30,376.89 540.57,376.29 543.85,375.67 547.12,375.21 550.39,374.59 553.67,374.04 556.94,373.44 560.22,372.85 563.49,372.33 566.76,371.78 570.04,371.30 573.31,370.91 576.59,370.40 579.86,369.90 583.14,369.65 586.41,369.37 589.68,369.27 592.96,369.30 596.23,369.05 599.51,368.82 602.78,368.67 606.05,368.41 609.33,368.12 612.60,367.69 615.88,367.32 619.15,366.91 622.42,366.49 625.70,366.09 628.97,365.65 632.25,365.18 635.52,364.81 638.80,364.43 642.07,364.03 645.34,363.48 648.62,363.11 651.89,362.82 655.17,362.61 658.44,362.37 661.71,361.94 664.99,361.42 668.26,361.02 671.54,360.43 674.81,359.76 678.08,358.88 681.36,358.12 684.63,357.30 687.91,356.53 691.18,355.63 694.46,354.64 697.73,353.92 701.00,353.36 704.28,352.30 707.55,351.16 710.83,350.02 714.10,348.34 717.37,346.52 720.65,344.62 723.92,342.33 727.20,340.07 730.47,337.52 733.75,335.15 737.02,332.28 740.29,329.15 743.57,326.03 746.84,322.20 750.12,318.06 753.39,314.37 756.66,310.68 759.94,307.16 763.21,303.96 766.49,300.76 769.76,297.40 773.03,293.77 776.31,290.19 779.58,286.48 782.86,282.59 786.13,278.78 789.41,274.90 792.68,271.45 795.95,268.29 799.23,265.07 802.50,261.72 805.78,258.47 809.05,255.92 812.32,252.67 815.60,249.57 818.87,246.51 822.15,242.87 825.42,238.90 828.69,234.82 831.97,231.17 835.24,227.32 838.52,222.83 841.79,218.15 845.07,213.75 848.34,209.33 851.61,204.76 854.89,200.55 858.16,196.38 861.44,191.92 864.71,188.12 867.98,184.75 871.26,181.59 874.53,179.16 877.81,176.77 881.08,174.41 884.36,172.11 887.63,170.21 890.90,168.25 894.18,166.53 897.45,164.96 900.73,163.53 904.00,161.94" />
<text x="780.00" y="104.00" font-size="14" font-family="Arial" fill="#ff7f0e" text-anchor="start">MA60</text>
<polyline fill="none" stroke="#d62728" stroke-width="2" points="707.55,386.36 710.83,385.71 714.10,384.82 717.37,383.91 720.65,382.99 723.92,381.92 727.20,380.85 730.47,379.70 733.75,378.61 737.02,377.33 740.29,375.99 743.57,374.70 746.84,373.18 750.12,371.58 753.39,370.08 756.66,368.59 759.94,367.16 763.21,365.83 766.49,364.51 769.76,363.14 773.03,361.65 776.31,360.18 779.58,358.69 782.86,357.14 786.13,355.61 789.41,354.11 792.68,352.72 795.95,351.42 799.23,350.16 802.50,348.84 805.78,347.52 809.05,346.41 812.32,345.11 815.60,343.85 818.87,342.62 822.15,341.23 825.42,339.73 828.69,338.19 831.97,336.81 835.24,335.36 838.52,333.72 841.79,331.97 845.07,330.35 848.34,328.75 851.61,327.13 854.89,325.57 858.16,323.97 861.44,322.25 864.71,320.70 867.98,319.27 871.26,317.82 874.53,316.54 877.81,315.35 881.08,314.11 884.36,312.89 887.63,311.79 890.90,310.64 894.18,309.61 897.45,308.69 900.73,307.78 904.00,306.83" />
<text x="780.00" y="126.00" font-size="14" font-family="Arial" fill="#d62728" text-anchor="start">MA200</text>
</svg>