<svg xmlns="http://www.w3.org/2000/svg" width="960" height="520" viewBox="0 0 960 520"><rect width="100%" height="100%" fill="white" />
<text x="56.00" y="32.00" font-size="20" font-family="Arial" fill="#1f2933" text-anchor="start">MSFT Price and Moving Averages</text>
<line x1="56" y1="464" x2="904" y2="464" stroke="#cbd2d9" />
<line x1="56" y1="56" x2="56" y2="464" stroke="#cbd2d9" />
<text x="16.00" y="38.00" font-size="12" font-family="Arial" fill="#52606d" text-anchor="start">Price</text>
<line x1="56" y1="464.00" x2="904" y2="464.00" stroke="#edf2f7" />
<line x1="52" y1="464.00" x2="56" y2="464.00" stroke="#9fb3c8" />
<text x="48.00" y="468.00" font-size="11" font-family="Arial" fill="#52606d" text-anchor="end">342</text>
<line x1="56" y1="362.00" x2="904" y2="362.00" stroke="#edf2f7" />
<line x1="52" y1="362.00" x2="56" y2="362.00" stroke="#9fb3c8" />
<text x="48.00" y="366.00" font-size="11" font-family="Arial" fill="#52606d" text-anchor="end">394</text>
<line x1="56" y1="260.00" x2="904" y2="260.00" stroke="#edf2f7" />
<line x1="52" y1="260.00" x2="56" y2="260.00" stroke="#9fb3c8" />
<text x="48.00" y="264.00" font-size="11" font-family="Arial" fill="#52606d" text-anchor="end">446</text>
<line x1="56" y1="158.00" x2="904" y2="158.00" stroke="#edf2f7" />
<line x1="52" y1="158.00" x2="56" y2="158.00" stroke="#9fb3c8" />
<text x="48.00" y="162.00" font-size="11" font-family="Arial" fill="#52606d" text-anchor="end">498</text>
<line x1="56" y1="56.00" x2="904" y2="56.00" stroke="#edf2f7" />
<line x1="52" y1="56.00" x2="56" y2="56.00" stroke="#9fb3c8" />
<text x="48.00" y="60.00" font-size="11" font-family="Arial" fill="#52606d" text-anchor="end">550</text>
<line x1="56.00" y1="464" x2="56.00" y2="468" stroke="#9fb3c8" />
<text x="56.00" y="482.00" font-size="11" font-family="Arial" fill="#52606d" text-anchor="middle">07/03</text>
<line x1="226.25" y1="464" x2="226.25" y2="468" stroke="#9fb3c8" />
<text x="226.25" y="482.00" font-size="11" font-family="Arial" fill="#52606d" text-anchor="middle">09/17</text>
<line x1="396.51" y1="464" x2="396.51" y2="468" stroke="#9fb3c8" />
<text x="396.51" y="482.00" font-size="11" font-family="Arial" fill="#52606d" text-anchor="middle">12/01</text>
<line x1="563.49" y1="464" x2="563.49" y2="468" stroke="#9fb3c8" />
<text x="563.49" y="482.00" font-size="11" font-family="Arial" fill="#52606d" text-anchor="middle">02/13</text>
<line x1="733.75" y1="464" x2="733.75" y2="468" stroke="#9fb3c8" />
<text x="733.75" y="482.00" font-size="11" font-family="Arial" fill="#52606d" text-anchor="middle">04/30</text>
<line x1="904.00" y1="464" x2="904.00" y2="468" stroke="#9fb3c8" />
<text x="904.00" y="482.00" font-size="11" font-family="Arial" fill="#52606d" text-anchor="middle">07/16</text>
<polyline fill="none" stroke="#1f77b4" stroke-width="2" points="56.00,163.66 59.27,165.84 62.55,167.98 65.82,154.58 69.10,158.53 72.37,154.95 75.64,155.53 78.92,150.09 82.19,150.48 85.47,138.65 88.74,141.86 92.02,141.84 95.29,151.16 98.56,149.99 101.84,140.25 105.11,134.74 108.39,137.10 111.66,136.96 114.93,135.66 118.21,96.26 121.48,114.52 124.76,92.10 128.03,107.44 131.31,112.90 134.58,120.88 137.85,118.54 141.13,119.07 144.40,104.54 147.68,121.38 150.95,117.69 154.22,122.18 157.50,128.15 160.77,142.41 164.05,150.28 167.32,151.55 170.59,145.73 173.87,151.51 177.14,155.84 180.42,146.68 183.69,141.03 186.97,146.78 190.24,149.84 193.51,149.39 196.79,144.28 200.06,169.55 203.34,163.32 206.61,162.91 209.88,159.09 213.16,157.84 216.43,140.52 219.71,129.89 222.98,142.20 226.25,140.29 229.53,143.35 232.80,124.88 236.08,131.66 239.35,141.83 242.63,140.04 245.90,146.11 249.17,137.49 252.45,131.37 255.72,124.84 259.00,121.41 262.27,129.15 265.54,126.01 268.82,104.16 272.09,113.10 275.37,111.40 278.64,116.17 281.92,138.46 285.19,132.44 288.46,133.38 291.74,133.65 295.01,137.19 298.29,133.36 301.56,127.10 304.83,125.41 308.11,119.80 311.38,119.76 314.66,113.82 317.93,98.41 321.20,77.86 324.48,78.87 327.75,109.63 331.03,125.12 334.30,126.63 337.58,131.89 340.85,145.86 344.12,165.46 347.40,166.00 350.67,148.12 353.95,142.90 357.22,138.11 360.49,153.40 363.77,139.98 367.04,145.22 370.32,171.91 373.59,184.90 376.86,200.08 380.14,212.40 383.41,208.73 386.69,202.89 389.96,186.29 393.24,173.58 396.51,183.87 399.78,177.50 403.06,201.45 406.33,195.38 409.61,190.85 412.88,175.51 416.15,173.56 419.43,199.83 422.70,190.25 425.98,199.89 429.25,207.13 432.53,204.06 435.80,204.59 439.07,189.25 442.35,185.47 445.62,187.42 448.90,183.65 452.17,181.37 455.44,181.97 458.72,183.16 461.99,182.42 465.27,189.95 468.54,210.80 471.81,210.97 475.09,199.93 478.36,190.25 481.64,200.71 484.91,198.42 488.19,202.52 491.46,215.23 494.73,237.26 498.01,242.57 501.28,236.33 504.56,246.75 507.83,267.06 511.10,253.34 514.38,224.44 517.65,215.99 520.93,195.89 524.20,193.84 527.47,287.77 530.75,294.04 534.02,307.54 537.30,331.27 540.57,325.46 543.85,365.50 547.12,350.93 550.39,326.61 553.67,327.25 556.94,344.62 560.22,349.56 563.49,350.57 566.76,359.28 570.04,353.93 573.31,354.38 576.59,356.79 579.86,381.75 583.14,372.89 586.41,350.19 589.68,348.00 592.96,365.57 596.23,354.21 599.51,343.68 602.78,341.20 606.05,330.48 609.33,333.84 612.60,332.96 615.88,340.10 619.15,341.82 622.42,347.73 625.70,360.07 628.97,351.47 632.25,352.52 635.52,367.43 638.80,372.85 642.07,386.83 645.34,384.62 648.62,404.69 651.89,408.02 655.17,417.93 658.44,435.93 661.71,431.65 664.99,409.72 668.26,411.28 671.54,403.28 674.81,404.42 678.08,405.57 681.36,401.58 684.63,404.05 687.91,408.35 691.18,381.94 694.46,364.85 697.73,329.42 701.00,311.74 704.28,306.79 707.55,316.02 710.83,304.11 714.10,286.97 717.37,320.56 720.65,303.21 723.92,302.82 727.20,294.15 730.47,303.52 733.75,336.15 737.02,323.12 740.29,324.73 743.57,329.11 746.84,324.06 750.12,310.74 753.39,321.79 756.66,326.60 759.94,336.17 763.21,341.18 766.49,332.92 769.76,308.49 773.03,305.32 776.31,317.29 779.58,310.17 782.86,312.25 786.13,313.27 789.41,318.25 792.68,324.84 795.95,296.76 799.23,251.19 802.50,231.03 805.78,268.69 809.05,296.08 812.32,294.69 815.60,317.00 818.87,326.66 822.15,342.99 825.42,354.85 828.69,368.61 831.97,367.83 835.24,350.14 838.52,361.77 841.79,391.02 845.07,390.06 848.34,413.70 851.61,400.76 854.89,417.38 858.16,442.14 861.44,402.66 864.71,411.29 867.98,402.56 871.26,380.49 874.53,368.32 877.81,375.67 881.08,371.55 884.36,382.33 887.63,380.33 890.90,378.88 894.18,367.34 897.45,379.22 900.73,358.24 904.00,347.52" />
<text x="780.00" y="60.00" font-size="14" font-family="Arial" fill="#1f77b4" text-anchor="start">Close</text>
<polyline fill="none" stroke="#2ca02c" stroke-width="2" points="118.21,146.31 121.48,143.85 124.76,140.16 128.03,137.13 131.31,135.05 134.58,133.17 137.85,131.35 141.13,129.52 144.40,127.25 147.68,125.79 150.95,124.74 154.22,123.76 157.50,123.08 160.77,122.64 164.05,122.65 167.32,123.22 170.59,123.77 173.87,124.49 177.14,125.43 180.42,125.98 183.69,128.22 186.97,129.83 190.24,132.72 193.51,134.82 196.79,136.39 200.06,138.82 203.34,141.06 206.61,143.25 209.88,145.98 213.16,147.80 216.43,148.94 219.71,149.33 222.98,150.03 226.25,149.93 229.53,149.58 232.80,148.25 236.08,147.54 239.35,147.06 242.63,146.27 245.90,146.24 249.17,146.06 252.45,145.29 255.72,144.04 259.00,142.64 262.27,141.89 265.54,139.71 268.82,136.75 272.09,134.26 275.37,131.88 278.64,129.79 281.92,129.69 285.19,129.82 288.46,129.38 291.74,129.04 295.01,128.74 298.29,129.16 301.56,128.93 304.83,128.11 308.11,127.10 311.38,125.78 314.66,124.60 317.93,122.95 321.20,120.60 324.48,118.47 327.75,117.50 331.03,117.45 334.30,118.58 337.58,119.52 340.85,121.24 344.12,123.70 347.40,125.08 350.67,125.87 353.95,126.34 357.22,126.56 360.49,127.38 363.77,127.71 367.04,128.61 370.32,130.94 373.59,134.19 376.86,138.21 380.14,143.14 383.41,148.65 386.69,154.91 389.96,160.28 393.24,163.47 396.51,166.41 399.78,168.95 403.06,172.43 406.33,174.91 409.61,176.18 412.88,176.65 416.15,177.93 419.43,180.77 422.70,183.38 425.98,185.70 429.25,189.06 432.53,192.00 435.80,193.64 439.07,193.85 442.35,193.12 445.62,191.87 448.90,190.62 452.17,189.54 455.44,189.33 458.72,189.81 461.99,189.74 465.27,190.36 468.54,190.83 471.81,191.61 475.09,192.06 478.36,192.80 481.64,194.15 484.91,194.08 488.19,194.70 491.46,195.46 494.73,196.97 498.01,198.90 501.28,200.48 504.56,203.36 507.83,207.44 511.10,210.73 514.38,212.77 517.65,214.50 520.93,215.20 524.20,215.73 527.47,221.00 530.75,226.21 534.02,231.04 537.30,237.06 540.57,243.33 543.85,252.10 547.12,259.61 550.39,266.02 553.67,272.25 556.94,278.72 560.22,284.34 563.49,289.74 566.76,295.89 570.04,301.24 573.31,305.61 576.59,310.78 579.86,318.65 583.14,326.49 586.41,334.21 589.68,341.92 592.96,345.81 596.23,348.81 599.51,350.62 602.78,351.12 606.05,351.37 609.33,349.79 612.60,348.89 615.88,349.56 619.15,350.29 622.42,350.45 625.70,350.97 628.97,351.02 632.25,350.68 635.52,351.35 638.80,352.28 642.07,353.78 645.34,353.92 648.62,355.51 651.89,358.40 655.17,361.90 658.44,365.42 661.71,369.29 664.99,372.59 668.26,376.10 671.54,379.74 674.81,383.27 678.08,386.90 681.36,389.97 684.63,393.08 687.91,396.11 691.18,397.21 694.46,397.88 697.73,396.72 701.00,393.94 704.28,390.63 707.55,387.09 710.83,383.07 714.10,377.18 717.37,372.81 720.65,367.07 723.92,360.42 727.20,353.54 730.47,348.23 733.75,344.48 737.02,340.47 740.29,336.48 743.57,332.66 746.84,328.78 750.12,324.12 753.39,319.79 756.66,317.02 759.94,315.59 763.21,316.18 766.49,317.24 769.76,317.32 773.03,316.79 776.31,317.45 779.58,318.61 782.86,318.19 786.13,318.69 789.41,319.47 792.68,321.00 795.95,320.66 799.23,316.41 802.50,311.81 805.78,309.01 809.05,307.36 812.32,305.89 815.60,306.20 818.87,306.44 822.15,307.26 825.42,308.20 828.69,309.57 831.97,311.31 835.24,313.40 838.52,316.22 841.79,319.90 845.07,323.90 848.34,328.97 851.61,333.35 854.89,338.30 858.16,344.17 861.44,349.46 864.71,357.47 867.98,366.04 871.26,371.63 874.53,375.25 877.81,379.29 881.08,382.02 884.36,384.81 887.63,386.67 890.90,387.87 894.18,387.81 897.45,388.38 900.73,388.79 904.00,388.07" />
<text x="780.00" y="82.00" font-size="14" font-family="Arial" fill="#2ca02c" text-anchor="start">MA20</text>
<polyline fill="none" stroke="#ff7f0e" stroke-width="2" points="249.17,140.20 252.45,139.66 255.72,138.98 259.00,138.20 262.27,137.78 265.54,137.23 268.82,136.39 272.09,135.68 275.37,135.03 278.64,134.46 281.92,134.46 285.19,134.30 288.46,134.16 291.74,133.87 295.01,133.66 298.29,133.54 301.56,133.41 304.83,133.22 308.11,132.93 311.38,132.67 314.66,132.96 317.93,132.69 321.20,132.45 324.48,131.98 327.75,131.92 331.03,131.99 334.30,132.13 337.58,132.34 340.85,133.03 344.12,133.77 347.40,134.57 350.67,135.00 353.95,135.25 357.22,135.18 360.49,135.23 363.77,135.04 367.04,135.03 370.32,135.37 373.59,135.85 376.86,136.74 380.14,137.93 383.41,138.97 386.69,139.85 389.96,140.46 393.24,140.95 396.51,141.19 399.78,141.43 403.06,142.07 406.33,142.68 409.61,143.23 412.88,143.81 416.15,144.54 419.43,145.50 422.70,146.33 425.98,147.27 429.25,148.64 432.53,149.85 435.80,150.90 439.07,151.72 442.35,152.37 445.62,153.20 448.90,154.07 452.17,155.02 455.44,156.03 458.72,156.93 461.99,157.87 465.27,159.30 468.54,160.92 471.81,162.58 475.09,163.98 478.36,164.84 481.64,165.98 484.91,167.07 488.19,168.21 491.46,169.51 494.73,171.25 498.01,173.17 501.28,175.02 504.56,177.13 507.83,179.59 511.10,181.92 514.38,184.02 517.65,186.32 520.93,188.27 524.20,189.67 527.47,192.38 530.75,195.17 534.02,198.10 537.30,201.19 540.57,203.86 543.85,207.18 547.12,210.56 550.39,213.62 553.67,216.78 556.94,219.96 560.22,223.46 563.49,226.88 566.76,230.00 570.04,232.82 573.31,235.39 576.59,237.80 579.86,240.68 583.14,243.51 586.41,246.25 589.68,249.15 592.96,252.18 596.23,255.13 599.51,257.50 602.78,259.93 606.05,262.25 609.33,264.89 612.60,267.55 615.88,269.89 619.15,272.41 622.42,274.88 625.70,277.43 628.97,279.88 632.25,282.35 635.52,285.32 638.80,288.44 642.07,291.77 645.34,295.11 648.62,298.84 651.89,302.60 655.17,306.52 658.44,310.74 661.71,314.77 664.99,318.09 668.26,321.42 671.54,324.81 674.81,328.38 678.08,331.80 681.36,335.18 684.63,338.54 687.91,341.76 691.18,344.17 694.46,346.21 697.73,347.76 701.00,348.84 704.28,349.51 707.55,350.55 710.83,351.88 714.10,353.06 717.37,355.14 720.65,356.96 723.92,357.21 727.20,357.22 730.47,357.15 733.75,357.23 737.02,357.19 740.29,356.51 743.57,356.15 746.84,356.11 750.12,355.83 753.39,355.45 756.66,355.07 759.94,354.83 763.21,354.53 766.49,354.18 769.76,353.41 773.03,352.55 776.31,351.48 779.58,350.43 782.86,349.80 786.13,349.22 789.41,348.43 792.68,347.94 795.95,347.16 799.23,345.66 802.50,344.00 805.78,342.92 809.05,342.30 812.32,341.55 815.60,341.13 818.87,340.78 822.15,340.50 825.42,340.55 828.69,340.82 831.97,340.83 835.24,340.45 838.52,340.03 841.79,340.14 845.07,339.90 848.34,339.99 851.61,339.70 854.89,339.39 858.16,339.57 861.44,339.45 864.71,339.45 867.98,339.44 871.26,339.04 874.53,338.42 877.81,337.99 881.08,337.45 884.36,337.01 887.63,336.99 890.90,337.22 894.18,337.85 897.45,338.98 900.73,339.83 904.00,340.36" />
<text x="780.00" y="104.00" font-size="14" font-family="Arial" fill="#ff7f0e" text-anchor="start">MA60</text>
<polyline fill="none" stroke="#d62728" stroke-width="2" points="707.55,214.26 710.83,214.96 714.10,215.57 717.37,216.33 720.65,217.07 723.92,217.79 727.20,218.49 730.47,219.23 733.75,220.16 737.02,221.02 740.29,221.95 743.57,222.89 746.84,223.80 750.12,224.60 753.39,225.46 756.66,226.39 759.94,227.40 763.21,228.42 766.49,229.40 769.76,230.26 773.03,231.31 776.31,232.32 779.58,233.41 782.86,234.44 786.13,235.44 789.41,236.42 792.68,237.46 795.95,238.34 799.23,239.08 802.50,239.63 805.78,240.38 809.05,241.25 812.32,242.08 815.60,242.96 818.87,243.84 822.15,244.79 825.42,245.84 828.69,246.93 831.97,247.99 835.24,249.00 838.52,250.11 841.79,251.33 845.07,252.53 848.34,253.85 851.61,255.13 854.89,256.37 858.16,257.77 861.44,258.96 864.71,260.23 867.98,261.45 871.26,262.65 874.53,263.84 877.81,265.01 881.08,266.17 884.36,267.36 887.63,268.64 890.90,269.87 894.18,271.00 897.45,272.20 900.73,273.26 904.00,274.31" />
<text x="780.00" y="126.00" font-size="14" font-family="Arial" fill="#d62728" text-anchor="start">MA200</text>
</svg>