<svg xmlns="http://www.w3.org/2000/svg" width="960" height="520" viewBox="0 0 960 520"><rect width="100%" height="100%" fill="white" />
<text x="56.00" y="32.00" font-size="20" font-family="Arial" fill="#1f2933" text-anchor="start">MU Price and Moving Averages</text>
<line x1="56" y1="464" x2="904" y2="464" stroke="#cbd2d9" />
<line x1="56" y1="56" x2="56" y2="464" stroke="#cbd2d9" />
<text x="16.00" y="38.00" font-size="12" font-family="Arial" fill="#52606d" text-anchor="start">Price</text>
<line x1="56" y1="464.00" x2="904" y2="464.00" stroke="#edf2f7" />
<line x1="52" y1="464.00" x2="56" y2="464.00" stroke="#9fb3c8" />
<text x="48.00" y="468.00" font-size="11" font-family="Arial" fill="#52606d" text-anchor="end">38.2</text>
<line x1="56" y1="362.00" x2="904" y2="362.00" stroke="#edf2f7" />
<line x1="52" y1="362.00" x2="56" y2="362.00" stroke="#9fb3c8" />
<text x="48.00" y="366.00" font-size="11" font-family="Arial" fill="#52606d" text-anchor="end">349</text>
<line x1="56" y1="260.00" x2="904" y2="260.00" stroke="#edf2f7" />
<line x1="52" y1="260.00" x2="56" y2="260.00" stroke="#9fb3c8" />
<text x="48.00" y="264.00" font-size="11" font-family="Arial" fill="#52606d" text-anchor="end">659</text>
<line x1="56" y1="158.00" x2="904" y2="158.00" stroke="#edf2f7" />
<line x1="52" y1="158.00" x2="56" y2="158.00" stroke="#9fb3c8" />
<text x="48.00" y="162.00" font-size="11" font-family="Arial" fill="#52606d" text-anchor="end">969</text>
<line x1="56" y1="56.00" x2="904" y2="56.00" stroke="#edf2f7" />
<line x1="52" y1="56.00" x2="56" y2="56.00" stroke="#9fb3c8" />
<text x="48.00" y="60.00" font-size="11" font-family="Arial" fill="#52606d" text-anchor="end">1,280</text>
<line x1="56.00" y1="464" x2="56.00" y2="468" stroke="#9fb3c8" />
<text x="56.00" y="482.00" font-size="11" font-family="Arial" fill="#52606d" text-anchor="middle">07/02</text>
<line x1="226.25" y1="464" x2="226.25" y2="468" stroke="#9fb3c8" />
<text x="226.25" y="482.00" font-size="11" font-family="Arial" fill="#52606d" text-anchor="middle">09/16</text>
<line x1="396.51" y1="464" x2="396.51" y2="468" stroke="#9fb3c8" />
<text x="396.51" y="482.00" font-size="11" font-family="Arial" fill="#52606d" text-anchor="middle">11/28</text>
<line x1="563.49" y1="464" x2="563.49" y2="468" stroke="#9fb3c8" />
<text x="563.49" y="482.00" font-size="11" font-family="Arial" fill="#52606d" text-anchor="middle">02/12</text>
<line x1="733.75" y1="464" x2="733.75" y2="468" stroke="#9fb3c8" />
<text x="733.75" y="482.00" font-size="11" font-family="Arial" fill="#52606d" text-anchor="middle">04/29</text>
<line x1="904.00" y1="464" x2="904.00" y2="468" stroke="#9fb3c8" />
<text x="904.00" y="482.00" font-size="11" font-family="Arial" fill="#52606d" text-anchor="middle">07/15</text>
<polyline fill="none" stroke="#1f77b4" stroke-width="2" points="56.00,436.65 59.27,436.47 62.55,437.21 65.82,435.73 69.10,436.45 72.37,436.16 75.64,435.70 78.92,437.64 82.19,437.15 85.47,438.35 88.74,439.39 92.02,439.02 95.29,439.40 98.56,440.72 101.84,440.52 105.11,439.90 108.39,440.05 111.66,440.05 114.93,439.82 118.21,438.91 121.48,440.75 124.76,442.14 128.03,441.19 131.31,440.77 134.58,440.86 137.85,439.85 141.13,437.55 144.40,435.96 147.68,434.64 150.95,435.78 154.22,435.45 157.50,436.90 160.77,436.02 164.05,436.51 167.32,438.10 170.59,438.56 173.87,437.94 177.14,438.36 180.42,438.33 183.69,437.92 186.97,436.53 190.24,437.51 193.51,437.68 196.79,437.60 200.06,435.80 203.34,433.45 206.61,433.42 209.88,432.18 213.16,430.62 216.43,427.15 219.71,424.97 222.98,424.79 226.25,424.45 229.53,424.06 232.80,421.14 236.08,423.16 239.35,422.54 242.63,421.96 245.90,423.50 249.17,425.10 252.45,424.96 255.72,422.78 259.00,421.66 262.27,416.79 265.54,416.27 268.82,414.89 272.09,413.86 275.37,415.59 278.64,412.03 281.92,413.41 285.19,416.94 288.46,413.27 291.74,415.14 295.01,413.54 298.29,410.07 301.56,410.12 304.83,408.67 308.11,410.15 311.38,411.40 314.66,408.69 317.93,404.65 321.20,404.30 324.48,403.70 327.75,402.16 331.03,403.02 334.30,403.09 337.58,399.51 340.85,404.98 344.12,398.59 347.40,398.31 350.67,398.45 353.95,393.40 357.22,397.40 360.49,396.16 363.77,398.77 367.04,395.52 370.32,397.13 373.59,401.54 376.86,402.39 380.14,410.45 383.41,408.48 386.69,403.04 389.96,402.84 393.24,400.96 396.51,398.92 399.78,397.62 403.06,397.93 406.33,399.68 409.61,402.15 412.88,398.68 416.15,395.50 419.43,393.69 422.70,389.98 425.98,391.71 429.25,397.39 432.53,398.59 435.80,400.23 439.07,402.52 442.35,394.96 445.62,389.26 448.90,385.76 452.17,385.86 455.44,382.44 458.72,383.06 461.99,379.88 465.27,380.45 468.54,382.82 471.81,372.97 475.09,374.04 478.36,363.77 481.64,365.04 484.91,369.16 488.19,363.22 491.46,362.97 494.73,365.51 498.01,367.08 501.28,366.00 504.56,357.42 507.83,356.69 511.10,348.77 514.38,345.99 517.65,345.31 520.93,348.77 524.20,341.83 527.47,333.61 530.75,333.44 534.02,340.31 537.30,332.78 540.57,338.81 543.85,351.96 547.12,350.81 550.39,346.94 553.67,350.61 556.94,353.98 560.22,341.80 563.49,340.60 566.76,341.36 570.04,345.26 573.31,338.31 576.59,339.49 579.86,335.94 583.14,338.31 586.41,339.28 589.68,335.67 592.96,340.08 596.23,341.13 599.51,341.03 602.78,351.86 606.05,344.94 609.33,346.16 612.60,354.95 615.88,348.70 619.15,344.17 622.42,339.05 625.70,343.44 628.97,336.61 632.25,331.47 635.52,324.93 638.80,324.92 642.07,330.65 645.34,337.67 648.62,343.76 651.89,346.66 655.17,351.07 658.44,359.82 661.71,359.24 664.99,370.83 668.26,365.56 671.54,355.70 674.81,356.23 678.08,352.44 681.36,352.50 684.63,342.93 687.91,338.07 691.18,338.37 694.46,336.41 697.73,323.57 701.00,326.66 704.28,326.34 707.55,327.04 710.83,329.23 714.10,328.91 717.37,316.40 720.65,318.29 723.92,313.36 727.20,304.22 730.47,310.87 733.75,306.22 737.02,306.65 740.29,298.42 743.57,287.17 746.84,266.22 750.12,257.55 753.39,264.11 756.66,231.20 759.94,215.26 763.21,224.70 766.49,212.53 769.76,221.61 773.03,238.48 776.31,252.64 779.58,246.99 782.86,236.07 786.13,226.18 789.41,229.82 792.68,182.22 795.95,171.54 799.23,173.14 802.50,157.55 805.78,136.36 809.05,126.96 812.32,121.88 815.60,149.33 818.87,192.70 822.15,164.68 825.42,169.08 828.69,183.54 831.97,149.38 835.24,154.06 838.52,119.11 841.79,141.20 845.07,133.83 848.34,104.00 851.61,78.57 854.89,131.01 858.16,132.08 861.44,77.86 864.71,104.54 867.98,100.29 871.26,97.33 874.53,137.41 877.81,156.05 881.08,152.98 884.36,168.21 887.63,164.79 890.90,150.71 894.18,154.77 897.45,168.67 900.73,153.51 904.00,179.42" />
<text x="780.00" y="60.00" font-size="14" font-family="Arial" fill="#1f77b4" text-anchor="start">Close</text>
<polyline fill="none" stroke="#2ca02c" stroke-width="2" points="118.21,438.26 121.48,438.47 124.76,438.75 128.03,438.95 131.31,439.20 134.58,439.43 137.85,439.61 141.13,439.70 144.40,439.62 147.68,439.49 150.95,439.36 154.22,439.17 157.50,439.06 160.77,438.89 164.05,438.68 167.32,438.56 170.59,438.49 173.87,438.39 177.14,438.30 180.42,438.23 183.69,438.18 186.97,437.97 190.24,437.74 193.51,437.56 196.79,437.40 200.06,437.15 203.34,436.83 206.61,436.62 209.88,436.43 213.16,436.23 216.43,435.80 219.71,435.28 222.98,434.67 226.25,434.09 229.53,433.47 232.80,432.62 236.08,431.85 239.35,431.08 242.63,430.26 245.90,429.52 249.17,428.88 252.45,428.30 255.72,427.57 259.00,426.77 262.27,425.73 265.54,424.75 268.82,423.82 272.09,422.84 275.37,422.01 278.64,421.08 281.92,420.40 285.19,420.00 288.46,419.42 291.74,418.95 295.01,418.43 298.29,417.87 301.56,417.22 304.83,416.53 308.11,415.94 311.38,415.33 314.66,414.51 317.93,413.50 321.20,412.57 324.48,411.68 327.75,410.94 331.03,410.28 334.30,409.69 337.58,408.97 340.85,408.44 344.12,407.77 347.40,407.02 350.67,406.09 353.95,405.10 357.22,404.21 360.49,403.34 363.77,402.78 367.04,402.05 370.32,401.47 373.59,401.04 376.86,400.59 380.14,400.68 383.41,400.87 386.69,400.80 389.96,400.76 393.24,400.70 396.51,400.50 399.78,400.22 403.06,400.14 406.33,399.88 409.61,400.06 412.88,400.08 416.15,399.93 419.43,399.94 422.70,399.57 425.98,399.35 429.25,399.28 432.53,399.43 435.80,399.59 439.07,399.64 442.35,399.27 445.62,398.21 448.90,397.07 452.17,396.21 455.44,395.19 458.72,394.30 461.99,393.34 465.27,392.49 468.54,391.73 471.81,390.39 475.09,388.99 478.36,387.24 481.64,385.72 484.91,384.49 488.19,383.16 491.46,381.72 494.73,380.13 498.01,378.55 501.28,376.84 504.56,374.58 507.83,372.67 511.10,370.65 514.38,368.66 517.65,366.63 520.93,364.95 524.20,362.88 527.47,360.57 530.75,358.22 534.02,356.09 537.30,354.09 540.57,352.32 543.85,351.73 547.12,351.02 550.39,349.91 553.67,349.28 556.94,348.83 560.22,347.64 563.49,346.32 566.76,345.09 570.04,344.48 573.31,343.56 576.59,343.10 579.86,342.60 583.14,342.25 586.41,341.77 589.68,341.46 592.96,341.79 596.23,342.17 599.51,342.21 602.78,343.16 606.05,343.47 609.33,343.18 612.60,343.39 615.88,343.47 619.15,343.15 622.42,342.41 625.70,342.49 628.97,342.29 632.25,341.79 635.52,340.78 638.80,340.11 642.07,339.66 645.34,339.75 648.62,340.02 651.89,340.39 655.17,341.16 658.44,342.15 661.71,343.06 664.99,344.55 668.26,345.23 671.54,345.77 674.81,346.27 678.08,346.15 681.36,346.34 684.63,346.27 687.91,346.23 691.18,345.97 694.46,345.96 697.73,345.57 701.00,345.65 704.28,345.72 707.55,345.54 710.83,345.12 714.10,344.38 717.37,342.87 720.65,341.23 723.92,338.90 727.20,336.15 730.47,333.15 733.75,330.19 737.02,327.74 740.29,324.84 743.57,321.58 746.84,317.27 750.12,313.00 753.39,309.30 756.66,303.94 759.94,297.88 763.21,292.94 766.49,287.23 769.76,282.00 773.03,277.57 776.31,273.74 779.58,269.64 782.86,265.63 786.13,261.02 789.41,256.85 792.68,250.75 795.95,243.78 799.23,237.13 802.50,229.67 805.78,221.57 809.05,213.56 812.32,206.34 815.60,200.93 818.87,197.36 822.15,194.03 825.42,191.72 828.69,189.66 831.97,186.51 835.24,183.13 838.52,177.16 841.79,171.59 845.07,165.93 848.34,159.33 851.61,151.95 854.89,147.01 858.16,144.50 861.44,139.82 864.71,136.39 867.98,133.52 871.26,131.57 874.53,132.09 877.81,133.80 881.08,133.98 884.36,132.76 887.63,132.77 890.90,131.85 894.18,130.41 897.45,131.37 900.73,131.35 904.00,134.36" />
<text x="780.00" y="82.00" font-size="14" font-family="Arial" fill="#2ca02c" text-anchor="start">MA20</text>
<polyline fill="none" stroke="#ff7f0e" stroke-width="2" points="249.17,435.11 252.45,434.91 255.72,434.69 259.00,434.43 262.27,434.11 265.54,433.77 268.82,433.42 272.09,433.06 275.37,432.69 278.64,432.27 281.92,431.85 285.19,431.48 288.46,431.05 291.74,430.65 295.01,430.19 298.29,429.69 301.56,429.19 304.83,428.67 308.11,428.17 311.38,427.69 314.66,427.19 317.93,426.59 321.20,425.96 324.48,425.33 327.75,424.69 331.03,424.06 334.30,423.45 337.58,422.81 340.85,422.30 344.12,421.70 347.40,421.07 350.67,420.45 353.95,419.73 357.22,419.09 360.49,418.41 363.77,417.76 367.04,417.04 370.32,416.36 373.59,415.75 376.86,415.15 380.14,414.69 383.41,414.22 386.69,413.65 389.96,413.07 393.24,412.46 396.51,411.84 399.78,411.25 403.06,410.65 406.33,410.11 409.61,409.64 412.88,409.16 416.15,408.67 419.43,408.15 422.70,407.58 425.98,407.04 429.25,406.64 432.53,406.23 435.80,405.86 439.07,405.54 442.35,405.06 445.62,404.47 448.90,403.81 452.17,403.20 455.44,402.54 458.72,401.98 461.99,401.37 465.27,400.80 468.54,400.28 471.81,399.57 475.09,398.94 478.36,398.11 481.64,397.25 484.91,396.51 488.19,395.65 491.46,394.80 494.73,394.06 498.01,393.34 501.28,392.63 504.56,391.75 507.83,390.84 511.10,389.84 514.38,388.87 517.65,387.88 520.93,386.97 524.20,385.96 527.47,384.80 530.75,383.64 534.02,382.66 537.30,381.45 540.57,380.46 543.85,379.68 547.12,378.89 550.39,378.12 553.67,377.34 556.94,376.63 560.22,375.68 563.49,374.77 566.76,373.84 570.04,372.90 573.31,371.83 576.59,370.65 579.86,369.44 583.14,368.36 586.41,367.30 589.68,366.21 592.96,365.23 596.23,364.29 599.51,363.34 602.78,362.55 606.05,361.59 609.33,360.72 612.60,360.04 615.88,359.29 619.15,358.53 622.42,357.65 625.70,356.75 628.97,355.72 632.25,354.57 635.52,353.28 638.80,352.11 642.07,351.14 645.34,350.33 648.62,349.63 651.89,349.04 655.17,348.50 658.44,348.17 661.71,347.82 664.99,347.62 668.26,347.49 671.54,347.19 674.81,347.06 678.08,346.85 681.36,346.57 684.63,346.24 687.91,345.82 691.18,345.37 694.46,344.86 697.73,344.15 701.00,343.64 704.28,343.13 707.55,342.77 710.83,342.49 714.10,342.22 717.37,341.68 720.65,341.28 723.92,340.95 727.20,340.46 730.47,339.97 733.75,339.53 737.02,338.99 740.29,338.10 743.57,337.04 746.84,335.69 750.12,334.14 753.39,332.64 756.66,330.80 759.94,328.71 763.21,326.77 766.49,324.55 769.76,322.61 773.03,320.93 776.31,319.54 779.58,318.02 782.86,316.30 786.13,314.47 789.41,312.63 792.68,309.98 795.95,307.16 799.23,304.18 802.50,301.06 805.78,297.56 809.05,293.76 812.32,289.98 815.60,286.73 818.87,284.29 822.15,281.32 825.42,278.52 828.69,276.06 831.97,273.13 835.24,270.28 838.52,266.76 841.79,263.48 845.07,259.98 848.34,255.94 851.61,251.40 854.89,247.59 858.16,243.80 861.44,238.92 864.71,234.57 867.98,230.31 871.26,225.99 874.53,222.41 877.81,219.14 881.08,215.97 884.36,213.14 887.63,210.25 890.90,207.15 894.18,204.34 897.45,201.70 900.73,198.82 904.00,196.36" />
<text x="780.00" y="104.00" font-size="14" font-family="Arial" fill="#ff7f0e" text-anchor="start">MA60</text>
<polyline fill="none" stroke="#d62728" stroke-width="2" points="707.55,391.77 710.83,391.23 714.10,390.69 717.37,390.09 720.65,389.50 723.92,388.89 727.20,388.23 730.47,387.60 733.75,386.94 737.02,386.29 740.29,385.59 743.57,384.83 746.84,383.97 750.12,383.06 753.39,382.18 756.66,381.13 759.94,380.01 763.21,378.93 766.49,377.79 769.76,376.70 773.03,375.70 776.31,374.76 779.58,373.78 782.86,372.76 786.13,371.68 789.41,370.63 792.68,369.34 795.95,368.01 799.23,366.70 802.50,365.31 805.78,363.81 809.05,362.27 812.32,360.70 815.60,359.26 818.87,358.04 822.15,356.68 825.42,355.33 828.69,354.06 831.97,352.61 835.24,351.19 838.52,349.60 841.79,348.12 845.07,346.60 848.34,344.93 851.61,343.14 854.89,341.61 858.16,340.11 861.44,338.33 864.71,336.69 867.98,335.04 871.26,333.39 874.53,331.95 877.81,330.61 881.08,329.25 884.36,327.97 887.63,326.69 890.90,325.33 894.18,323.99 897.45,322.72 900.73,321.37 904.00,320.14" />
<text x="780.00" y="126.00" font-size="14" font-family="Arial" fill="#d62728" text-anchor="start">MA200</text>
</svg>