<svg xmlns="http://www.w3.org/2000/svg" width="960" height="520" viewBox="0 0 960 520"><rect width="100%" height="100%" fill="white" />
<text x="56.00" y="32.00" font-size="20" font-family="Arial" fill="#1f2933" text-anchor="start">NFLX Price and Moving Averages</text>
<line x1="56" y1="464" x2="904" y2="464" stroke="#cbd2d9" />
<line x1="56" y1="56" x2="56" y2="464" stroke="#cbd2d9" />
<text x="16.00" y="38.00" font-size="12" font-family="Arial" fill="#52606d" text-anchor="start">Price</text>
<line x1="56" y1="464.00" x2="904" y2="464.00" stroke="#edf2f7" />
<line x1="52" y1="464.00" x2="56" y2="464.00" stroke="#9fb3c8" />
<text x="48.00" y="468.00" font-size="11" font-family="Arial" fill="#52606d" text-anchor="end">67.1</text>
<line x1="56" y1="362.00" x2="904" y2="362.00" stroke="#edf2f7" />
<line x1="52" y1="362.00" x2="56" y2="362.00" stroke="#9fb3c8" />
<text x="48.00" y="366.00" font-size="11" font-family="Arial" fill="#52606d" text-anchor="end">84.8</text>
<line x1="56" y1="260.00" x2="904" y2="260.00" stroke="#edf2f7" />
<line x1="52" y1="260.00" x2="56" y2="260.00" stroke="#9fb3c8" />
<text x="48.00" y="264.00" font-size="11" font-family="Arial" fill="#52606d" text-anchor="end">102</text>
<line x1="56" y1="158.00" x2="904" y2="158.00" stroke="#edf2f7" />
<line x1="52" y1="158.00" x2="56" y2="158.00" stroke="#9fb3c8" />
<text x="48.00" y="162.00" font-size="11" font-family="Arial" fill="#52606d" text-anchor="end">120</text>
<line x1="56" y1="56.00" x2="904" y2="56.00" stroke="#edf2f7" />
<line x1="52" y1="56.00" x2="56" y2="56.00" stroke="#9fb3c8" />
<text x="48.00" y="60.00" font-size="11" font-family="Arial" fill="#52606d" text-anchor="end">138</text>
<line x1="56.00" y1="464" x2="56.00" y2="468" stroke="#9fb3c8" />
<text x="56.00" y="482.00" font-size="11" font-family="Arial" fill="#52606d" text-anchor="middle">06/30</text>
<line x1="226.25" y1="464" x2="226.25" y2="468" stroke="#9fb3c8" />
<text x="226.25" y="482.00" font-size="11" font-family="Arial" fill="#52606d" text-anchor="middle">09/12</text>
<line x1="396.51" y1="464" x2="396.51" y2="468" stroke="#9fb3c8" />
<text x="396.51" y="482.00" font-size="11" font-family="Arial" fill="#52606d" text-anchor="middle">11/25</text>
<line x1="563.49" y1="464" x2="563.49" y2="468" stroke="#9fb3c8" />
<text x="563.49" y="482.00" font-size="11" font-family="Arial" fill="#52606d" text-anchor="middle">02/10</text>
<line x1="733.75" y1="464" x2="733.75" y2="468" stroke="#9fb3c8" />
<text x="733.75" y="482.00" font-size="11" font-family="Arial" fill="#52606d" text-anchor="middle">04/27</text>
<line x1="904.00" y1="464" x2="904.00" y2="468" stroke="#9fb3c8" />
<text x="904.00" y="482.00" font-size="11" font-family="Arial" fill="#52606d" text-anchor="middle">07/13</text>
<polyline fill="none" stroke="#1f77b4" stroke-width="2" points="56.00,77.86 59.27,104.18 62.55,109.23 65.82,102.11 69.10,106.48 72.37,114.75 75.64,107.25 78.92,129.04 82.19,132.21 85.47,122.48 88.74,123.45 92.02,129.21 95.29,115.41 98.56,152.95 101.84,139.06 105.11,164.02 108.39,171.71 111.66,169.41 114.93,169.57 118.21,172.97 121.48,176.36 124.76,167.42 128.03,181.76 131.31,182.22 134.58,175.06 137.85,188.43 141.13,170.73 144.40,169.64 147.68,151.56 150.95,147.70 154.22,143.68 157.50,155.72 160.77,140.62 164.05,135.77 167.32,132.22 170.59,150.11 173.87,150.28 177.14,154.70 180.42,155.60 183.69,147.84 186.97,143.21 190.24,144.70 193.51,140.11 196.79,153.52 200.06,150.13 203.34,143.15 206.61,125.06 209.88,132.96 213.16,132.41 216.43,121.72 219.71,130.71 222.98,156.27 226.25,164.97 229.53,156.98 232.80,157.99 236.08,141.81 239.35,153.79 242.63,142.70 245.90,142.47 249.17,147.61 252.45,156.01 255.72,153.53 259.00,152.16 262.27,154.58 265.54,158.91 268.82,175.11 272.09,179.95 275.37,185.28 278.64,179.50 281.92,163.46 285.19,150.05 288.46,140.33 291.74,146.68 295.01,147.29 298.29,149.42 301.56,156.39 304.83,167.78 308.11,158.66 311.38,136.00 314.66,134.38 317.93,206.64 321.20,208.24 324.48,219.17 327.75,219.25 331.03,214.66 334.30,215.86 337.58,222.46 340.85,205.20 344.12,216.05 347.40,220.17 350.67,216.99 353.95,217.82 357.22,213.99 360.49,204.50 363.77,195.03 367.04,182.86 370.32,184.75 373.59,209.07 376.86,214.42 380.14,192.46 383.41,216.10 386.69,241.13 389.96,249.00 393.24,233.62 396.51,248.48 399.78,238.42 403.06,230.09 406.33,221.13 409.61,219.86 412.88,251.02 416.15,255.30 419.43,272.52 422.70,292.47 425.98,292.93 429.25,316.06 432.53,308.08 435.80,301.72 439.07,309.93 442.35,305.30 445.62,304.03 448.90,308.60 452.17,306.34 455.44,313.05 458.72,311.49 461.99,310.68 465.27,305.88 468.54,307.73 471.81,309.87 475.09,309.99 478.36,326.00 481.64,323.28 484.91,327.97 488.19,327.50 491.46,328.66 494.73,334.85 498.01,335.13 501.28,329.87 504.56,340.11 507.83,343.00 511.10,343.29 514.38,347.56 517.65,358.55 520.93,369.07 524.20,354.15 527.47,356.58 530.75,357.28 534.02,362.71 537.30,371.27 540.57,369.36 543.85,373.58 547.12,389.88 550.39,388.61 553.67,384.51 556.94,376.82 560.22,381.04 563.49,376.76 566.76,391.73 570.04,413.47 573.31,407.63 576.59,406.88 579.86,401.15 583.14,406.88 586.41,397.22 589.68,412.54 592.96,400.87 596.23,373.93 599.51,363.00 602.78,295.65 606.05,290.74 609.33,287.21 612.60,281.66 615.88,278.71 619.15,279.58 622.42,283.62 625.70,291.60 628.97,303.45 632.25,306.81 635.52,301.03 638.80,301.66 642.07,306.52 645.34,304.55 648.62,321.66 651.89,321.20 655.17,312.18 658.44,326.40 661.71,318.54 664.99,312.53 668.26,311.89 671.54,314.55 674.81,296.17 678.08,299.64 681.36,281.66 684.63,280.10 687.91,280.73 691.18,277.44 694.46,262.06 697.73,256.51 701.00,255.64 704.28,237.61 707.55,229.34 710.83,228.88 714.10,289.46 717.37,303.80 720.65,316.81 723.92,312.99 727.20,315.42 730.47,317.62 733.75,323.80 737.02,318.60 740.29,319.47 743.57,310.85 746.84,319.81 750.12,325.83 753.39,343.92 756.66,341.72 759.94,341.84 763.21,346.23 766.49,358.03 769.76,345.25 773.03,345.83 776.31,349.41 779.58,348.95 782.86,333.75 786.13,335.60 789.41,342.77 792.68,335.77 795.95,339.82 799.23,345.14 802.50,347.04 805.78,352.77 809.05,354.73 812.32,355.72 815.60,370.28 818.87,380.75 822.15,380.52 825.42,376.93 828.69,374.27 831.97,381.38 835.24,377.97 838.52,382.19 841.79,387.57 845.07,379.88 848.34,396.93 851.61,407.11 854.89,404.68 858.16,430.70 861.44,431.04 864.71,436.71 867.98,442.14 871.26,425.32 874.53,425.49 877.81,439.25 881.08,423.12 884.36,403.12 887.63,412.54 890.90,411.62 894.18,415.03 897.45,415.72 900.73,427.86 904.00,425.20" />
<text x="780.00" y="60.00" font-size="14" font-family="Arial" fill="#1f77b4" text-anchor="start">Close</text>
<polyline fill="none" stroke="#2ca02c" stroke-width="2" points="118.21,130.67 121.48,135.59 124.76,138.76 128.03,142.38 131.31,146.39 134.58,149.82 137.85,153.50 141.13,156.67 144.40,158.70 147.68,159.67 150.95,160.93 154.22,161.94 157.50,163.27 160.77,164.53 164.05,163.67 167.32,163.33 170.59,162.63 173.87,161.56 177.14,160.83 180.42,160.13 183.69,158.87 186.97,157.21 190.24,156.08 193.51,154.00 196.79,152.56 200.06,151.31 203.34,149.05 206.61,146.77 209.88,144.93 213.16,143.98 216.43,142.68 219.71,142.03 222.98,142.06 226.25,143.27 229.53,144.33 232.80,145.62 236.08,145.21 239.35,145.38 242.63,144.78 245.90,144.13 249.17,144.11 252.45,144.75 255.72,145.20 259.00,145.80 262.27,145.85 265.54,146.29 268.82,147.89 272.09,150.63 275.37,153.25 278.64,155.60 281.92,157.69 285.19,158.66 288.46,157.86 291.74,156.95 295.01,156.46 298.29,156.03 301.56,156.76 304.83,157.46 308.11,158.26 311.38,157.93 314.66,157.27 317.93,159.80 321.20,162.54 324.48,165.89 327.75,169.12 331.03,171.91 334.30,173.95 337.58,176.07 340.85,177.07 344.12,178.90 347.40,181.73 350.67,185.08 353.95,188.96 357.22,192.32 360.49,195.18 363.77,197.46 367.04,198.79 370.32,199.63 373.59,202.15 376.86,206.08 380.14,208.98 383.41,209.45 386.69,211.10 389.96,212.59 393.24,213.31 396.51,215.00 399.78,216.13 403.06,216.51 406.33,217.30 409.61,217.49 412.88,219.04 416.15,220.95 419.43,223.69 422.70,227.61 425.98,232.03 429.25,238.08 432.53,244.34 435.80,250.19 439.07,255.24 442.35,259.78 445.62,265.36 448.90,269.98 452.17,273.24 455.44,276.45 458.72,280.34 461.99,283.45 465.27,286.82 468.54,290.71 471.81,295.14 475.09,299.65 478.36,303.40 481.64,306.80 484.91,309.57 488.19,311.32 491.46,313.11 494.73,314.05 498.01,315.40 501.28,316.81 504.56,318.32 507.83,320.20 511.10,322.16 514.38,324.11 517.65,326.72 520.93,329.52 524.20,331.66 527.47,333.95 530.75,336.52 534.02,339.27 537.30,342.34 540.57,345.31 543.85,347.69 547.12,351.02 550.39,354.05 553.67,356.90 556.94,359.31 560.22,361.62 563.49,363.70 566.76,366.79 570.04,370.46 573.31,373.69 576.59,376.87 579.86,379.55 583.14,381.97 586.41,383.37 589.68,386.29 592.96,388.51 596.23,389.34 599.51,389.36 602.78,385.57 606.05,381.64 609.33,377.32 612.60,371.91 615.88,366.42 619.15,361.17 622.42,356.51 625.70,352.04 628.97,348.38 632.25,344.13 635.52,338.51 638.80,333.21 642.07,328.19 645.34,323.36 648.62,319.10 651.89,315.30 655.17,310.28 658.44,306.56 661.71,303.79 664.99,301.27 668.26,302.08 671.54,303.27 674.81,303.72 678.08,304.62 681.36,304.76 684.63,304.79 687.91,304.64 691.18,303.94 694.46,301.87 697.73,299.35 701.00,297.08 704.28,293.88 707.55,290.02 710.83,286.24 714.10,284.63 717.37,283.76 720.65,283.99 723.92,283.32 727.20,283.16 730.47,283.42 733.75,284.01 737.02,284.21 740.29,285.38 743.57,285.94 746.84,287.85 750.12,290.13 753.39,293.29 756.66,296.51 759.94,300.50 763.21,304.98 766.49,310.10 769.76,315.48 773.03,321.31 776.31,327.34 779.58,330.31 782.86,331.81 786.13,332.75 789.41,334.24 792.68,335.25 795.95,336.36 799.23,337.43 802.50,338.85 805.78,340.52 809.05,342.71 812.32,344.51 815.60,346.73 818.87,348.57 822.15,350.51 825.42,352.26 828.69,353.67 831.97,354.83 835.24,356.47 838.52,358.29 841.79,360.20 845.07,361.74 848.34,364.90 851.61,368.48 854.89,371.57 858.16,376.32 861.44,380.88 864.71,385.46 867.98,390.21 871.26,393.84 874.53,397.38 877.81,401.56 881.08,404.20 884.36,405.32 887.63,406.92 890.90,408.65 894.18,410.69 897.45,412.41 900.73,414.90 904.00,417.05" />
<text x="780.00" y="82.00" font-size="14" font-family="Arial" fill="#2ca02c" text-anchor="start">MA20</text>
<polyline fill="none" stroke="#ff7f0e" stroke-width="2" points="249.17,144.55 252.45,145.85 255.72,146.68 259.00,147.39 262.27,148.27 265.54,149.14 268.82,150.15 272.09,151.36 275.37,152.30 278.64,153.08 281.92,153.77 285.19,154.21 288.46,154.40 291.74,154.92 295.01,154.82 298.29,154.99 301.56,154.87 304.83,154.80 308.11,154.62 311.38,154.06 314.66,153.42 317.93,153.92 321.20,154.60 324.48,155.23 327.75,155.85 331.03,156.51 334.30,156.96 337.58,157.82 340.85,158.42 344.12,159.49 347.40,160.70 350.67,161.92 353.95,162.96 357.22,164.18 360.49,165.32 363.77,166.37 367.04,166.92 370.32,167.49 373.59,168.40 376.86,169.38 380.14,170.12 383.41,171.34 386.69,172.94 389.96,174.76 393.24,176.09 396.51,177.73 399.78,179.32 403.06,181.07 406.33,182.54 409.61,184.00 412.88,186.15 416.15,188.23 419.43,190.17 422.70,192.29 425.98,194.56 429.25,197.19 432.53,199.96 435.80,202.43 439.07,205.22 442.35,207.93 445.62,210.54 448.90,213.08 452.17,215.63 455.44,218.31 458.72,220.92 461.99,223.45 465.27,225.63 468.54,227.76 471.81,229.84 475.09,232.01 478.36,234.72 481.64,237.61 484.91,240.74 488.19,243.75 491.46,246.77 494.73,249.86 498.01,252.84 501.28,255.55 504.56,258.57 507.83,262.02 511.10,265.50 514.38,267.85 517.65,270.35 520.93,272.85 524.20,275.10 527.47,277.47 530.75,279.82 534.02,282.16 537.30,284.93 540.57,287.48 543.85,290.04 547.12,292.92 550.39,295.77 553.67,298.61 556.94,301.48 560.22,304.58 563.49,307.81 566.76,311.26 570.04,314.67 573.31,317.89 576.59,321.46 579.86,324.55 583.14,327.31 586.41,329.78 589.68,332.76 592.96,335.30 596.23,337.56 599.51,339.78 602.78,341.02 606.05,342.20 609.33,342.80 612.60,343.24 615.88,343.35 619.15,343.13 622.42,342.98 625.70,342.57 628.97,342.49 632.25,342.58 635.52,342.43 638.80,342.37 642.07,342.41 645.34,342.34 648.62,342.60 651.89,342.73 655.17,342.74 658.44,343.01 661.71,343.22 664.99,343.30 668.26,343.33 671.54,343.41 674.81,342.91 678.08,342.52 681.36,341.74 684.63,340.95 687.91,340.16 691.18,339.20 694.46,337.98 697.73,336.76 701.00,335.35 704.28,333.59 707.55,331.69 710.83,329.72 714.10,328.57 717.37,327.48 720.65,326.85 723.92,326.13 727.20,325.43 730.47,324.68 733.75,323.89 737.02,323.04 740.29,322.14 743.57,320.82 746.84,319.68 750.12,318.70 753.39,318.15 756.66,317.50 759.94,316.91 763.21,316.15 766.49,315.23 769.76,314.19 773.03,313.17 776.31,312.31 779.58,311.35 782.86,310.29 786.13,309.01 789.41,308.04 792.68,307.40 795.95,307.01 799.23,307.84 802.50,308.78 805.78,309.87 809.05,311.09 812.32,312.37 815.60,313.88 818.87,315.50 822.15,316.98 825.42,318.21 828.69,319.33 831.97,320.67 835.24,321.94 838.52,323.21 841.79,324.59 845.07,325.56 848.34,326.82 851.61,328.40 854.89,329.71 858.16,331.58 861.44,333.55 864.71,335.63 867.98,337.76 871.26,339.91 874.53,342.01 877.81,344.64 881.08,347.02 884.36,349.06 887.63,351.31 890.90,353.80 894.18,356.45 897.45,359.11 900.73,362.29 904.00,365.55" />
<text x="780.00" y="104.00" font-size="14" font-family="Arial" fill="#ff7f0e" text-anchor="start">MA60</text>
<polyline fill="none" stroke="#d62728" stroke-width="2" points="707.55,238.25 710.83,239.01 714.10,239.93 717.37,240.91 720.65,241.98 723.92,243.01 727.20,244.02 730.47,245.07 733.75,246.04 737.02,246.97 740.29,247.96 743.57,248.89 746.84,249.85 750.12,250.90 753.39,251.85 756.66,252.87 759.94,253.76 763.21,254.63 766.49,255.57 769.76,256.45 773.03,257.32 776.31,258.18 779.58,259.09 782.86,259.85 786.13,260.62 789.41,261.45 792.68,262.19 795.95,263.04 799.23,263.91 802.50,264.89 805.78,265.92 809.05,266.97 812.32,267.97 815.60,269.12 818.87,270.34 822.15,271.59 825.42,272.72 828.69,273.84 831.97,274.97 835.24,276.09 838.52,277.26 841.79,278.48 845.07,279.65 848.34,280.94 851.61,282.21 854.89,283.48 858.16,284.92 861.44,286.45 864.71,287.97 867.98,289.51 871.26,291.03 874.53,292.51 877.81,293.92 881.08,295.21 884.36,296.44 887.63,297.72 890.90,299.06 894.18,300.37 897.45,301.74 900.73,303.16 904.00,304.55" />
<text x="780.00" y="126.00" font-size="14" font-family="Arial" fill="#d62728" text-anchor="start">MA200</text>
</svg>