<svg xmlns="http://www.w3.org/2000/svg" width="960" height="520" viewBox="0 0 960 520"><rect width="100%" height="100%" fill="white" />
<text x="56.00" y="32.00" font-size="20" font-family="Arial" fill="#1f2933" text-anchor="start">NFLX Price and Moving Averages</text>
<line x1="56" y1="464" x2="904" y2="464" stroke="#cbd2d9" />
<line x1="56" y1="56" x2="56" y2="464" stroke="#cbd2d9" />
<text x="16.00" y="38.00" font-size="12" font-family="Arial" fill="#52606d" text-anchor="start">Price</text>
<line x1="56" y1="464.00" x2="904" y2="464.00" stroke="#edf2f7" />
<line x1="52" y1="464.00" x2="56" y2="464.00" stroke="#9fb3c8" />
<text x="48.00" y="468.00" font-size="11" font-family="Arial" fill="#52606d" text-anchor="end">67.4</text>
<line x1="56" y1="362.00" x2="904" y2="362.00" stroke="#edf2f7" />
<line x1="52" y1="362.00" x2="56" y2="362.00" stroke="#9fb3c8" />
<text x="48.00" y="366.00" font-size="11" font-family="Arial" fill="#52606d" text-anchor="end">83.8</text>
<line x1="56" y1="260.00" x2="904" y2="260.00" stroke="#edf2f7" />
<line x1="52" y1="260.00" x2="56" y2="260.00" stroke="#9fb3c8" />
<text x="48.00" y="264.00" font-size="11" font-family="Arial" fill="#52606d" text-anchor="end">100</text>
<line x1="56" y1="158.00" x2="904" y2="158.00" stroke="#edf2f7" />
<line x1="52" y1="158.00" x2="56" y2="158.00" stroke="#9fb3c8" />
<text x="48.00" y="162.00" font-size="11" font-family="Arial" fill="#52606d" text-anchor="end">117</text>
<line x1="56" y1="56.00" x2="904" y2="56.00" stroke="#edf2f7" />
<line x1="52" y1="56.00" x2="56" y2="56.00" stroke="#9fb3c8" />
<text x="48.00" y="60.00" font-size="11" font-family="Arial" fill="#52606d" text-anchor="end">133</text>
<line x1="56.00" y1="464" x2="56.00" y2="468" stroke="#9fb3c8" />
<text x="56.00" y="482.00" font-size="11" font-family="Arial" fill="#52606d" text-anchor="middle">07/02</text>
<line x1="226.25" y1="464" x2="226.25" y2="468" stroke="#9fb3c8" />
<text x="226.25" y="482.00" font-size="11" font-family="Arial" fill="#52606d" text-anchor="middle">09/16</text>
<line x1="396.51" y1="464" x2="396.51" y2="468" stroke="#9fb3c8" />
<text x="396.51" y="482.00" font-size="11" font-family="Arial" fill="#52606d" text-anchor="middle">11/28</text>
<line x1="563.49" y1="464" x2="563.49" y2="468" stroke="#9fb3c8" />
<text x="563.49" y="482.00" font-size="11" font-family="Arial" fill="#52606d" text-anchor="middle">02/12</text>
<line x1="733.75" y1="464" x2="733.75" y2="468" stroke="#9fb3c8" />
<text x="733.75" y="482.00" font-size="11" font-family="Arial" fill="#52606d" text-anchor="middle">04/29</text>
<line x1="904.00" y1="464" x2="904.00" y2="468" stroke="#9fb3c8" />
<text x="904.00" y="482.00" font-size="11" font-family="Arial" fill="#52606d" text-anchor="middle">07/15</text>
<polyline fill="none" stroke="#1f77b4" stroke-width="2" points="56.00,85.49 59.27,77.86 62.55,82.54 65.82,91.40 69.10,83.37 72.37,106.71 75.64,110.11 78.92,99.68 82.19,100.72 85.47,106.89 88.74,92.11 92.02,132.32 95.29,117.44 98.56,144.19 101.84,152.43 105.11,149.96 108.39,150.13 111.66,153.78 114.93,157.41 118.21,147.83 121.48,163.19 124.76,163.69 128.03,156.01 131.31,170.33 134.58,151.37 137.85,150.20 141.13,130.84 144.40,126.70 147.68,122.39 150.95,135.30 154.22,119.12 157.50,113.92 160.77,110.12 164.05,129.28 167.32,129.46 170.59,134.20 173.87,135.17 177.14,126.85 180.42,121.89 183.69,123.49 186.97,118.57 190.24,132.94 193.51,129.31 196.79,121.83 200.06,102.45 203.34,110.91 206.61,110.32 209.88,98.87 213.16,108.50 216.43,135.88 219.71,145.20 222.98,136.65 226.25,137.73 229.53,120.39 232.80,133.23 236.08,121.34 239.35,121.09 242.63,126.61 245.90,135.60 249.17,132.94 252.45,131.47 255.72,134.08 259.00,138.71 262.27,156.07 265.54,161.25 268.82,166.96 272.09,160.77 275.37,143.58 278.64,129.22 281.92,118.80 285.19,125.61 288.46,126.26 291.74,128.54 295.01,136.01 298.29,148.21 301.56,138.44 304.83,114.16 308.11,112.44 311.38,189.84 314.66,191.56 317.93,203.27 321.20,203.35 324.48,198.43 327.75,199.73 331.03,206.79 334.30,188.30 337.58,199.92 340.85,204.34 344.12,200.93 347.40,201.83 350.67,197.71 353.95,187.55 357.22,177.41 360.49,164.37 363.77,166.39 367.04,192.44 370.32,198.18 373.59,174.65 376.86,199.98 380.14,226.80 383.41,235.22 386.69,218.75 389.96,234.66 393.24,223.89 396.51,214.97 399.78,205.37 403.06,204.01 406.33,237.39 409.61,241.97 412.88,260.43 416.15,281.79 419.43,282.29 422.70,307.06 425.98,298.52 429.25,291.70 432.53,300.50 435.80,295.54 439.07,294.18 442.35,299.07 445.62,296.66 448.90,303.84 452.17,302.17 455.44,301.30 458.72,296.16 461.99,298.15 465.27,300.44 468.54,300.56 471.81,317.72 475.09,314.81 478.36,319.82 481.64,319.33 484.91,320.57 488.19,327.19 491.46,327.50 494.73,321.87 498.01,332.83 501.28,335.93 504.56,336.24 507.83,340.82 511.10,352.59 514.38,363.86 517.65,347.88 520.93,350.48 524.20,351.22 527.47,357.05 530.75,366.21 534.02,364.17 537.30,368.69 540.57,386.15 543.85,384.79 547.12,380.39 550.39,372.16 553.67,376.68 556.94,372.10 560.22,388.14 563.49,411.42 566.76,405.17 570.04,404.36 573.31,398.23 576.59,404.36 579.86,394.02 583.14,410.43 586.41,397.92 589.68,369.06 592.96,357.35 596.23,285.20 599.51,279.94 602.78,276.16 606.05,270.21 609.33,267.05 612.60,267.98 615.88,272.32 619.15,280.87 622.42,293.56 625.70,297.15 628.97,290.96 632.25,291.64 635.52,296.84 638.80,294.74 642.07,313.07 645.34,312.58 648.62,302.91 651.89,318.15 655.17,309.73 658.44,303.29 661.71,302.60 664.99,305.45 668.26,285.76 671.54,289.47 674.81,270.21 678.08,268.54 681.36,269.22 684.63,265.69 687.91,249.22 691.18,243.27 694.46,242.34 697.73,223.02 701.00,214.16 704.28,213.67 707.55,278.57 710.83,293.93 714.10,307.87 717.37,303.78 720.65,306.38 723.92,308.74 727.20,315.36 730.47,309.79 733.75,310.72 737.02,301.49 740.29,311.09 743.57,317.53 746.84,336.92 750.12,334.56 753.39,334.69 756.66,339.39 759.94,352.03 763.21,338.34 766.49,338.96 769.76,342.80 773.03,342.30 776.31,326.02 779.58,328.00 782.86,335.68 786.13,328.18 789.41,332.52 792.68,338.22 795.95,340.26 799.23,346.39 802.50,348.50 805.78,349.55 809.05,365.16 812.32,376.37 815.60,376.12 818.87,372.28 822.15,369.43 825.42,377.05 828.69,373.40 831.97,377.92 835.24,383.68 838.52,375.44 841.79,393.71 845.07,404.61 848.34,402.01 851.61,429.88 854.89,430.25 858.16,436.32 861.44,442.14 864.71,424.12 867.98,424.31 871.26,439.05 874.53,421.77 877.81,400.34 881.08,410.43 884.36,409.44 887.63,413.10 890.90,413.84 894.18,426.85 897.45,424.00 900.73,425.85 904.00,424.93" />
<text x="780.00" y="60.00" font-size="14" font-family="Arial" fill="#1f77b4" text-anchor="start">Close</text>
<polyline fill="none" stroke="#2ca02c" stroke-width="2" points="118.21,117.12 121.48,121.00 124.76,125.29 128.03,128.97 131.31,132.91 134.58,136.31 137.85,138.49 141.13,139.52 144.40,140.88 147.68,141.96 150.95,143.38 154.22,144.73 157.50,143.81 160.77,143.44 164.05,142.70 167.32,141.55 170.59,140.76 173.87,140.01 177.14,138.67 180.42,136.89 183.69,135.68 186.97,133.44 190.24,131.91 193.51,130.57 196.79,128.15 200.06,125.70 203.34,123.74 206.61,122.71 209.88,121.32 213.16,120.62 216.43,120.65 219.71,121.96 222.98,123.09 226.25,124.47 229.53,124.03 232.80,124.22 236.08,123.57 239.35,122.87 242.63,122.86 245.90,123.54 249.17,124.02 252.45,124.66 255.72,124.72 259.00,125.19 262.27,126.90 265.54,129.84 268.82,132.64 272.09,135.17 275.37,137.40 278.64,138.44 281.92,137.58 285.19,136.60 288.46,136.09 291.74,135.63 295.01,136.41 298.29,137.16 301.56,138.01 304.83,137.66 308.11,136.96 311.38,139.67 314.66,142.60 317.93,146.19 321.20,149.65 324.48,152.64 327.75,154.82 331.03,157.10 334.30,158.16 337.58,160.12 340.85,163.16 344.12,166.75 347.40,170.90 350.67,174.50 353.95,177.57 357.22,180.01 360.49,181.43 363.77,182.34 367.04,185.04 370.32,189.24 373.59,192.35 376.86,192.86 380.14,194.62 383.41,196.22 386.69,196.99 389.96,198.80 393.24,200.01 396.51,200.41 399.78,201.27 403.06,201.47 406.33,203.12 409.61,205.18 412.88,208.11 416.15,212.31 419.43,217.05 422.70,223.53 425.98,230.24 429.25,236.50 432.53,241.91 435.80,246.77 439.07,252.75 442.35,257.71 445.62,261.20 448.90,264.63 452.17,268.80 455.44,272.13 458.72,275.75 461.99,279.91 465.27,284.66 468.54,289.49 471.81,293.50 475.09,297.15 478.36,300.11 481.64,301.99 484.91,303.91 488.19,304.91 491.46,306.36 494.73,307.87 498.01,309.49 501.28,311.50 504.56,313.61 507.83,315.69 511.10,318.49 514.38,321.49 517.65,323.78 520.93,326.24 524.20,328.99 527.47,331.93 530.75,335.22 534.02,338.40 537.30,340.95 540.57,344.52 543.85,347.77 547.12,350.82 550.39,353.40 553.67,355.87 556.94,358.10 560.22,361.42 563.49,365.35 566.76,368.81 570.04,372.22 573.31,375.09 576.59,377.68 579.86,379.18 583.14,382.31 586.41,384.68 589.68,385.58 592.96,385.59 596.23,381.54 599.51,377.33 602.78,372.70 606.05,366.90 609.33,361.02 612.60,355.40 615.88,350.41 619.15,345.62 622.42,341.69 625.70,337.14 628.97,331.12 632.25,325.44 635.52,320.06 638.80,314.89 642.07,310.32 645.34,306.25 648.62,300.88 651.89,296.89 655.17,293.92 658.44,291.22 661.71,292.09 664.99,293.36 668.26,293.84 671.54,294.81 674.81,294.97 678.08,294.99 681.36,294.84 684.63,294.08 687.91,291.86 691.18,289.17 694.46,286.74 697.73,283.31 701.00,279.17 704.28,275.12 707.55,273.39 710.83,272.46 714.10,272.71 717.37,271.99 720.65,271.82 723.92,272.10 727.20,272.73 730.47,272.95 733.75,274.20 737.02,274.80 740.29,276.84 743.57,279.29 746.84,282.68 750.12,286.12 753.39,290.39 756.66,295.20 759.94,300.68 763.21,306.45 766.49,312.69 769.76,319.15 773.03,322.33 776.31,323.94 779.58,324.94 782.86,326.54 786.13,327.63 789.41,328.82 792.68,329.96 795.95,331.48 799.23,333.27 802.50,335.62 805.78,337.54 809.05,339.92 812.32,341.90 815.60,343.97 818.87,345.85 822.15,347.36 825.42,348.61 828.69,350.36 831.97,352.31 835.24,354.35 838.52,356.01 841.79,359.39 845.07,363.22 848.34,366.54 851.61,371.62 854.89,376.51 858.16,381.42 861.44,386.51 864.71,390.40 867.98,394.19 871.26,398.66 874.53,401.49 877.81,402.69 881.08,404.41 884.36,406.26 887.63,408.45 890.90,410.29 894.18,412.96 897.45,415.26 900.73,417.37 904.00,419.85" />
<text x="780.00" y="82.00" font-size="14" font-family="Arial" fill="#2ca02c" text-anchor="start">MA20</text>
<polyline fill="none" stroke="#ff7f0e" stroke-width="2" points="249.17,125.60 252.45,126.37 255.72,127.31 259.00,128.24 262.27,129.32 265.54,130.62 268.82,131.62 272.09,132.47 275.37,133.20 278.64,133.67 281.92,133.87 285.19,134.43 288.46,134.33 291.74,134.51 295.01,134.38 298.29,134.31 301.56,134.12 304.83,133.52 308.11,132.83 311.38,133.37 314.66,134.10 317.93,134.77 321.20,135.43 324.48,136.13 327.75,136.62 331.03,137.55 334.30,138.18 337.58,139.33 340.85,140.63 344.12,141.94 347.40,143.04 350.67,144.35 353.95,145.58 357.22,146.70 360.49,147.29 363.77,147.90 367.04,148.87 370.32,149.92 373.59,150.72 376.86,152.02 380.14,153.74 383.41,155.69 386.69,157.12 389.96,158.87 393.24,160.58 396.51,162.45 399.78,164.03 403.06,165.59 406.33,167.90 409.61,170.12 412.88,172.20 416.15,174.47 419.43,176.90 422.70,179.72 425.98,182.69 429.25,185.33 432.53,188.32 435.80,191.23 439.07,194.02 442.35,196.74 445.62,199.47 448.90,202.34 452.17,205.15 455.44,207.86 458.72,210.19 461.99,212.47 465.27,214.70 468.54,217.03 471.81,219.93 475.09,223.02 478.36,226.37 481.64,229.60 484.91,232.84 488.19,236.15 491.46,239.34 494.73,242.24 498.01,245.48 501.28,249.17 504.56,252.90 507.83,255.42 511.10,258.10 514.38,260.78 517.65,263.19 520.93,265.72 524.20,268.25 527.47,270.75 530.75,273.72 534.02,276.45 537.30,279.19 540.57,282.28 543.85,285.33 547.12,288.37 550.39,291.45 553.67,294.77 556.94,298.23 560.22,301.93 563.49,305.58 566.76,309.03 570.04,312.86 573.31,316.16 576.59,319.12 579.86,321.77 583.14,324.96 586.41,327.68 589.68,330.10 592.96,332.48 596.23,333.81 599.51,335.07 602.78,335.72 606.05,336.19 609.33,336.30 612.60,336.07 615.88,335.90 619.15,335.47 622.42,335.38 625.70,335.48 628.97,335.32 632.25,335.25 635.52,335.30 638.80,335.22 642.07,335.50 645.34,335.64 648.62,335.65 651.89,335.94 655.17,336.16 658.44,336.25 661.71,336.28 664.99,336.37 668.26,335.83 671.54,335.41 674.81,334.58 678.08,333.74 681.36,332.88 684.63,331.86 687.91,330.55 691.18,329.24 694.46,327.73 697.73,325.85 701.00,323.82 704.28,321.70 707.55,320.46 710.83,319.30 714.10,318.63 717.37,317.85 720.65,317.11 723.92,316.30 727.20,315.45 730.47,314.55 733.75,313.58 737.02,312.17 740.29,310.94 743.57,309.89 746.84,309.31 750.12,308.61 753.39,307.98 756.66,307.17 759.94,306.18 763.21,305.07 766.49,303.98 769.76,303.05 773.03,302.02 776.31,300.88 779.58,299.51 782.86,298.47 786.13,297.79 789.41,297.38 792.68,298.26 795.95,299.27 799.23,300.44 802.50,301.74 805.78,303.12 809.05,304.74 812.32,306.47 815.60,308.06 818.87,309.37 822.15,310.57 825.42,312.01 828.69,313.37 831.97,314.72 835.24,316.21 838.52,317.24 841.79,318.60 845.07,320.29 848.34,321.69 851.61,323.69 854.89,325.81 858.16,328.04 861.44,330.32 864.71,332.62 867.98,334.87 871.26,337.68 874.53,340.24 877.81,342.42 881.08,344.83 884.36,347.50 887.63,350.33 890.90,353.19 894.18,356.59 897.45,360.09 900.73,363.62 904.00,366.06" />
<text x="780.00" y="104.00" font-size="14" font-family="Arial" fill="#ff7f0e" text-anchor="start">MA60</text>
<polyline fill="none" stroke="#d62728" stroke-width="2" points="707.55,225.51 710.83,226.55 714.10,227.70 717.37,228.81 720.65,229.88 723.92,231.01 727.20,232.05 730.47,233.05 733.75,234.11 737.02,235.11 740.29,236.13 743.57,237.26 746.84,238.28 750.12,239.37 753.39,240.32 756.66,241.26 759.94,242.27 763.21,243.21 766.49,244.13 769.76,245.06 773.03,246.03 776.31,246.85 779.58,247.67 782.86,248.57 786.13,249.36 789.41,250.26 792.68,251.20 795.95,252.25 799.23,253.35 802.50,254.48 805.78,255.55 809.05,256.78 812.32,258.09 815.60,259.42 818.87,260.64 822.15,261.84 825.42,263.05 828.69,264.24 831.97,265.50 835.24,266.81 838.52,268.07 841.79,269.44 845.07,270.80 848.34,272.16 851.61,273.70 854.89,275.34 858.16,276.97 861.44,278.63 864.71,280.26 867.98,281.83 871.26,283.35 874.53,284.73 877.81,286.05 881.08,287.41 884.36,288.86 887.63,290.26 890.90,291.72 894.18,293.25 897.45,294.74 900.73,296.19 904.00,297.65" />
<text x="780.00" y="126.00" font-size="14" font-family="Arial" fill="#d62728" text-anchor="start">MA200</text>
</svg>