<svg xmlns="http://www.w3.org/2000/svg" width="960" height="520" viewBox="0 0 960 520"><rect width="100%" height="100%" fill="white" />
<text x="56.00" y="32.00" font-size="20" font-family="Arial" fill="#1f2933" text-anchor="start">NVDA Price and Moving Averages</text>
<line x1="56" y1="464" x2="904" y2="464" stroke="#cbd2d9" />
<line x1="56" y1="56" x2="56" y2="464" stroke="#cbd2d9" />
<text x="16.00" y="38.00" font-size="12" font-family="Arial" fill="#52606d" text-anchor="start">Price</text>
<line x1="56" y1="464.00" x2="904" y2="464.00" stroke="#edf2f7" />
<line x1="52" y1="464.00" x2="56" y2="464.00" stroke="#9fb3c8" />
<text x="48.00" y="468.00" font-size="11" font-family="Arial" fill="#52606d" text-anchor="end">148</text>
<line x1="56" y1="362.00" x2="904" y2="362.00" stroke="#edf2f7" />
<line x1="52" y1="362.00" x2="56" y2="362.00" stroke="#9fb3c8" />
<text x="48.00" y="366.00" font-size="11" font-family="Arial" fill="#52606d" text-anchor="end">171</text>
<line x1="56" y1="260.00" x2="904" y2="260.00" stroke="#edf2f7" />
<line x1="52" y1="260.00" x2="56" y2="260.00" stroke="#9fb3c8" />
<text x="48.00" y="264.00" font-size="11" font-family="Arial" fill="#52606d" text-anchor="end">194</text>
<line x1="56" y1="158.00" x2="904" y2="158.00" stroke="#edf2f7" />
<line x1="52" y1="158.00" x2="56" y2="158.00" stroke="#9fb3c8" />
<text x="48.00" y="162.00" font-size="11" font-family="Arial" fill="#52606d" text-anchor="end">217</text>
<line x1="56" y1="56.00" x2="904" y2="56.00" stroke="#edf2f7" />
<line x1="52" y1="56.00" x2="56" y2="56.00" stroke="#9fb3c8" />
<text x="48.00" y="60.00" font-size="11" font-family="Arial" fill="#52606d" text-anchor="end">240</text>
<line x1="56.00" y1="464" x2="56.00" y2="468" stroke="#9fb3c8" />
<text x="56.00" y="482.00" font-size="11" font-family="Arial" fill="#52606d" text-anchor="middle">06/30</text>
<line x1="226.25" y1="464" x2="226.25" y2="468" stroke="#9fb3c8" />
<text x="226.25" y="482.00" font-size="11" font-family="Arial" fill="#52606d" text-anchor="middle">09/12</text>
<line x1="396.51" y1="464" x2="396.51" y2="468" stroke="#9fb3c8" />
<text x="396.51" y="482.00" font-size="11" font-family="Arial" fill="#52606d" text-anchor="middle">11/25</text>
<line x1="563.49" y1="464" x2="563.49" y2="468" stroke="#9fb3c8" />
<text x="563.49" y="482.00" font-size="11" font-family="Arial" fill="#52606d" text-anchor="middle">02/10</text>
<line x1="733.75" y1="464" x2="733.75" y2="468" stroke="#9fb3c8" />
<text x="733.75" y="482.00" font-size="11" font-family="Arial" fill="#52606d" text-anchor="middle">04/27</text>
<line x1="904.00" y1="464" x2="904.00" y2="468" stroke="#9fb3c8" />
<text x="904.00" y="482.00" font-size="11" font-family="Arial" fill="#52606d" text-anchor="middle">07/13</text>
<polyline fill="none" stroke="#1f77b4" stroke-width="2" points="56.00,421.43 59.27,442.14 62.55,424.70 65.82,415.47 69.10,420.32 72.37,412.55 75.64,399.83 78.92,394.44 82.19,390.82 85.47,394.57 88.74,365.29 92.02,362.33 95.29,355.13 98.56,357.74 101.84,362.29 105.11,381.50 108.39,364.94 111.66,351.87 114.93,352.93 118.21,338.57 121.48,344.05 124.76,327.44 128.03,333.62 131.31,351.95 134.58,324.22 137.85,331.90 141.13,326.78 144.40,320.82 147.68,312.29 150.95,315.12 154.22,310.26 157.50,317.19 160.77,315.30 164.05,322.23 167.32,315.34 170.59,343.47 173.87,344.53 177.14,346.39 180.42,333.09 183.69,325.06 186.97,316.40 190.24,317.15 193.51,323.47 196.79,349.92 200.06,364.94 203.34,365.65 206.61,361.05 209.88,381.55 213.16,375.85 216.43,365.03 219.71,336.01 222.98,336.67 226.25,333.80 229.53,334.11 232.80,346.79 236.08,367.06 239.35,340.78 242.63,338.88 245.90,308.23 249.17,331.11 252.45,337.56 255.72,334.38 259.00,332.17 262.27,316.00 265.54,295.11 268.82,292.19 272.09,284.91 275.37,290.52 278.64,299.70 281.92,301.91 285.19,283.93 288.46,268.65 291.74,310.21 295.01,287.42 298.29,324.04 301.56,324.92 304.83,316.18 308.11,309.95 311.38,312.51 314.66,319.05 317.93,322.94 321.20,314.63 324.48,296.52 327.75,273.42 331.03,231.28 334.30,204.74 337.58,223.07 340.85,224.83 344.12,205.44 347.40,241.62 350.67,256.99 353.95,288.48 357.22,288.17 360.49,240.03 363.77,266.05 367.04,263.22 370.32,293.87 373.59,279.25 376.86,295.02 380.14,318.17 383.41,295.37 386.69,321.35 389.96,329.12 393.24,312.91 396.51,333.80 399.78,323.02 403.06,337.42 406.33,324.53 409.61,317.72 412.88,325.98 416.15,309.20 419.43,313.48 422.70,299.61 425.98,302.17 429.25,307.43 432.53,320.02 435.80,346.13 439.07,340.52 442.35,334.20 445.62,364.15 448.90,350.01 452.17,319.75 455.44,307.83 458.72,283.45 461.99,286.10 465.27,277.61 468.54,287.82 471.81,290.82 475.09,295.42 478.36,285.04 481.64,288.26 484.91,292.15 488.19,283.89 491.46,301.87 494.73,302.66 498.01,302.31 501.28,298.46 504.56,310.26 507.83,292.99 511.10,296.61 514.38,332.65 517.65,309.46 520.93,302.75 524.20,290.25 527.47,295.55 530.75,286.49 534.02,273.24 537.30,268.87 540.57,274.96 543.85,299.35 547.12,322.63 550.39,349.79 553.67,360.00 556.94,300.23 560.22,279.78 563.49,286.41 566.76,279.74 570.04,293.47 573.31,311.72 576.59,302.17 579.86,288.88 583.14,289.23 586.41,280.75 589.68,273.11 592.96,267.37 596.23,255.40 599.51,302.53 602.78,336.54 606.05,313.17 609.33,323.91 612.60,310.70 615.88,309.37 619.15,333.76 622.42,312.42 625.70,303.06 628.97,297.45 632.25,310.21 635.52,322.98 638.80,309.86 642.07,315.56 645.34,322.32 648.62,330.45 651.89,356.33 655.17,343.34 658.44,345.29 661.71,329.92 664.99,362.78 668.26,379.21 671.54,389.60 674.81,348.82 678.08,342.86 681.36,335.61 684.63,334.51 687.91,332.48 691.18,314.90 694.46,306.81 697.73,285.96 701.00,282.96 704.28,251.15 707.55,240.73 710.83,243.02 714.10,228.31 717.37,226.64 720.65,236.27 723.92,224.69 727.20,237.33 730.47,199.20 733.75,162.36 737.02,177.56 740.29,194.87 743.57,237.64 746.84,242.58 750.12,242.45 753.39,251.20 756.66,201.15 759.94,184.94 763.21,168.59 766.49,149.86 769.76,143.94 773.03,121.63 776.31,77.86 779.58,123.89 782.86,137.14 786.13,144.69 789.41,132.06 792.68,149.55 795.95,168.02 799.23,170.09 802.50,180.08 805.78,172.79 809.05,186.53 812.32,128.13 815.60,134.93 818.87,170.58 822.15,152.18 825.42,212.15 828.69,196.50 831.97,198.49 835.24,232.85 838.52,213.17 841.79,211.75 845.07,179.65 848.34,201.94 851.61,214.14 854.89,187.43 858.16,196.45 861.44,234.53 864.71,239.13 867.98,253.55 871.26,267.74 874.53,256.95 877.81,234.31 881.08,245.41 884.36,257.57 887.63,254.39 890.90,248.28 894.18,216.49 897.45,222.41 900.73,186.23 904.00,219.09" />
<text x="780.00" y="60.00" font-size="14" font-family="Arial" fill="#1f77b4" text-anchor="start">Close</text>
<polyline fill="none" stroke="#2ca02c" stroke-width="2" points="118.21,385.44 121.48,381.57 124.76,375.84 128.03,371.29 131.31,368.11 134.58,363.30 137.85,359.27 141.13,355.62 144.40,351.94 147.68,348.01 150.95,344.04 154.22,341.29 157.50,339.03 160.77,337.04 164.05,335.26 167.32,332.92 170.59,331.01 173.87,329.99 177.14,329.72 180.42,328.73 183.69,328.05 186.97,326.67 190.24,326.16 193.51,325.65 196.79,325.55 200.06,327.58 203.34,329.27 206.61,330.98 209.88,334.02 213.16,337.20 216.43,339.69 219.71,340.98 222.98,341.95 226.25,342.88 229.53,343.47 232.80,345.05 236.08,346.23 239.35,346.04 242.63,345.66 245.90,344.42 249.17,344.72 252.45,345.78 255.72,346.64 259.00,347.08 262.27,345.38 265.54,341.89 268.82,338.22 272.09,334.41 275.37,329.86 278.64,326.05 281.92,322.89 285.19,320.29 288.46,316.89 291.74,315.71 295.01,313.37 298.29,312.24 301.56,310.13 304.83,308.90 308.11,307.45 311.38,307.67 314.66,307.07 317.93,306.33 321.20,305.35 324.48,303.56 327.75,301.44 331.03,298.24 334.30,293.87 337.58,290.78 340.85,287.50 344.12,282.78 347.40,279.77 350.67,278.42 353.95,279.41 357.22,278.31 360.49,275.94 363.77,273.04 367.04,269.96 370.32,268.84 373.59,267.31 376.86,266.43 380.14,266.39 383.41,265.01 386.69,265.35 389.96,266.97 393.24,268.95 396.51,274.08 399.78,279.99 403.06,285.71 406.33,290.69 409.61,296.31 412.88,300.52 416.15,303.13 419.43,304.38 422.70,304.96 425.98,308.06 429.25,310.13 432.53,312.97 435.80,315.59 439.07,318.65 442.35,320.61 445.62,322.91 448.90,325.64 452.17,325.56 455.44,324.49 458.72,323.02 461.99,320.64 465.27,318.37 468.54,315.89 471.81,314.20 475.09,313.08 478.36,311.04 481.64,309.99 484.91,308.92 488.19,308.14 491.46,308.12 494.73,307.88 498.01,307.00 501.28,304.61 504.56,303.10 507.83,301.04 511.10,297.66 514.38,296.80 517.65,296.28 520.93,296.03 524.20,296.37 527.47,296.84 530.75,297.28 534.02,296.56 537.30,295.46 540.57,294.44 543.85,295.15 547.12,296.87 550.39,299.75 553.67,303.56 556.94,303.48 560.22,302.33 563.49,301.54 566.76,300.60 570.04,299.76 573.31,300.70 576.59,300.98 579.86,298.79 583.14,297.77 586.41,296.68 589.68,295.82 592.96,294.41 596.23,292.85 599.51,294.32 602.78,297.70 606.05,299.61 609.33,300.84 612.60,300.24 615.88,298.22 619.15,296.91 622.42,297.52 625.70,298.68 628.97,299.24 632.25,300.76 635.52,302.24 638.80,302.14 642.07,302.81 645.34,304.48 648.62,306.55 651.89,310.32 655.17,313.84 658.44,317.73 661.71,321.46 664.99,324.47 668.26,326.60 671.54,330.43 674.81,331.67 678.08,333.28 681.36,334.59 684.63,334.63 687.91,335.63 691.18,336.22 694.46,336.69 697.73,335.48 701.00,333.48 704.28,330.54 707.55,326.80 710.83,322.84 714.10,317.73 717.37,311.25 720.65,305.89 723.92,299.86 727.20,295.23 730.47,287.05 733.75,276.21 737.02,265.61 740.29,257.91 743.57,252.65 746.84,248.00 750.12,243.40 753.39,239.33 756.66,233.64 759.94,227.55 763.21,221.68 766.49,215.03 769.76,209.67 773.03,203.71 776.31,195.45 779.58,190.23 782.86,185.76 786.13,181.18 789.41,176.55 792.68,172.16 795.95,170.60 799.23,170.99 802.50,171.11 805.78,170.01 809.05,167.45 812.32,161.73 815.60,156.35 818.87,152.32 822.15,149.87 825.42,151.23 828.69,152.63 831.97,155.06 835.24,159.51 838.52,164.08 841.79,170.78 845.07,173.57 848.34,176.81 851.61,180.28 854.89,183.05 858.16,185.39 861.44,188.72 864.71,192.17 867.98,195.84 871.26,200.59 874.53,204.11 877.81,209.42 881.08,214.94 884.36,219.29 887.63,224.40 890.90,226.21 894.18,227.21 897.45,228.41 900.73,226.08 904.00,226.37" />
<text x="780.00" y="82.00" font-size="14" font-family="Arial" fill="#2ca02c" text-anchor="start">MA20</text>
<polyline fill="none" stroke="#ff7f0e" stroke-width="2" points="249.17,352.74 252.45,351.34 255.72,349.55 259.00,348.00 262.27,346.35 265.54,344.26 268.82,342.25 272.09,340.34 275.37,338.60 278.64,337.09 281.92,335.54 285.19,334.19 288.46,332.62 291.74,331.88 295.01,330.70 298.29,330.07 301.56,329.12 304.83,328.31 308.11,327.61 311.38,326.94 314.66,326.61 317.93,326.26 321.20,326.05 324.48,325.43 327.75,324.12 331.03,322.57 334.30,320.45 337.58,318.72 340.85,317.12 344.12,315.34 347.40,314.12 350.67,313.23 353.95,312.75 357.22,312.30 360.49,310.93 363.77,310.11 367.04,308.77 370.32,307.93 373.59,306.81 376.86,306.17 380.14,306.06 383.41,305.71 386.69,305.78 389.96,305.87 393.24,305.25 396.51,304.74 399.78,304.03 403.06,303.63 406.33,302.68 409.61,301.71 412.88,301.06 416.15,300.62 419.43,300.23 422.70,299.66 425.98,299.13 429.25,298.47 432.53,297.69 435.80,297.78 439.07,297.80 442.35,298.24 445.62,298.79 448.90,298.99 452.17,298.75 455.44,298.34 458.72,297.80 461.99,297.65 465.27,297.41 468.54,297.46 471.81,297.46 475.09,297.39 478.36,297.11 481.64,297.18 484.91,297.57 488.19,297.13 491.46,297.38 494.73,297.02 498.01,296.64 501.28,296.35 504.56,296.35 507.83,296.03 511.10,295.65 514.38,295.81 517.65,295.73 520.93,295.83 524.20,296.11 527.47,297.18 530.75,298.55 534.02,299.38 537.30,300.12 540.57,301.28 543.85,302.24 547.12,303.33 550.39,304.35 553.67,305.55 556.94,306.55 560.22,306.78 563.49,307.17 566.76,306.93 570.04,307.17 573.31,307.45 576.59,307.18 579.86,307.07 583.14,306.54 586.41,305.73 589.68,305.07 592.96,303.96 596.23,302.83 599.51,302.25 602.78,302.45 606.05,302.38 609.33,302.34 612.60,302.37 615.88,302.30 619.15,302.87 622.42,303.04 625.70,302.97 628.97,302.59 632.25,301.99 635.52,301.70 638.80,301.29 642.07,300.48 645.34,300.02 648.62,300.20 651.89,301.01 655.17,302.01 658.44,302.99 661.71,303.87 664.99,305.12 668.26,306.59 671.54,308.16 674.81,309.22 678.08,310.13 681.36,310.86 684.63,311.70 687.91,312.21 691.18,312.41 694.46,312.49 697.73,312.28 701.00,311.83 704.28,311.13 707.55,310.20 710.83,308.70 714.10,307.35 717.37,306.08 720.65,305.18 723.92,304.00 727.20,303.18 730.47,301.95 733.75,300.17 737.02,298.55 740.29,296.81 743.57,295.39 746.84,293.60 750.12,291.65 753.39,290.83 756.66,289.52 759.94,287.83 763.21,285.97 766.49,283.58 769.76,280.78 773.03,277.78 776.31,274.26 779.58,271.50 782.86,269.11 786.13,266.97 789.41,264.71 792.68,262.95 795.95,260.71 799.23,257.93 802.50,255.72 805.78,253.20 809.05,251.13 812.32,248.11 815.60,244.79 818.87,242.43 822.15,239.91 825.42,238.49 828.69,236.60 831.97,234.52 835.24,233.24 838.52,231.53 841.79,229.69 845.07,227.18 848.34,224.60 851.61,222.45 854.89,219.82 858.16,217.59 861.44,215.46 864.71,213.12 867.98,210.85 871.26,209.50 874.53,208.07 877.81,206.38 881.08,204.90 884.36,203.65 887.63,202.64 890.90,201.67 894.18,200.51 897.45,199.50 900.73,198.42 904.00,198.06" />
<text x="780.00" y="104.00" font-size="14" font-family="Arial" fill="#ff7f0e" text-anchor="start">MA60</text>
<polyline fill="none" stroke="#d62728" stroke-width="2" points="707.55,318.28 710.83,317.39 714.10,316.32 717.37,315.33 720.65,314.44 723.92,313.46 727.20,312.58 730.47,311.58 733.75,310.42 737.02,309.35 740.29,308.35 743.57,307.71 746.84,307.12 750.12,306.55 753.39,306.02 756.66,305.21 759.94,304.23 763.21,303.25 766.49,302.24 769.76,301.19 773.03,300.11 776.31,298.78 779.58,297.76 782.86,296.78 786.13,295.74 789.41,294.78 792.68,293.87 795.95,293.08 799.23,292.32 802.50,291.66 805.78,290.95 809.05,290.33 812.32,289.39 815.60,288.48 818.87,287.73 822.15,286.91 825.42,286.25 828.69,285.51 831.97,284.77 835.24,284.27 838.52,283.71 841.79,283.19 845.07,282.50 848.34,281.89 851.61,281.22 854.89,280.33 858.16,279.48 861.44,278.85 864.71,278.14 867.98,277.53 871.26,277.04 874.53,276.64 877.81,276.13 881.08,275.69 884.36,275.31 887.63,274.85 890.90,274.25 894.18,273.63 897.45,273.05 900.73,272.44 904.00,271.88" />
<text x="780.00" y="126.00" font-size="14" font-family="Arial" fill="#d62728" text-anchor="start">MA200</text>
</svg>