<svg xmlns="http://www.w3.org/2000/svg" width="960" height="520" viewBox="0 0 960 520"><rect width="100%" height="100%" fill="white" />
<text x="56.00" y="32.00" font-size="20" font-family="Arial" fill="#1f2933" text-anchor="start">NVDA Price and Moving Averages</text>
<line x1="56" y1="464" x2="904" y2="464" stroke="#cbd2d9" />
<line x1="56" y1="56" x2="56" y2="464" stroke="#cbd2d9" />
<text x="16.00" y="38.00" font-size="12" font-family="Arial" fill="#52606d" text-anchor="start">Price</text>
<line x1="56" y1="464.00" x2="904" y2="464.00" stroke="#edf2f7" />
<line x1="52" y1="464.00" x2="56" y2="464.00" stroke="#9fb3c8" />
<text x="48.00" y="468.00" font-size="11" font-family="Arial" fill="#52606d" text-anchor="end">143</text>
<line x1="56" y1="362.00" x2="904" y2="362.00" stroke="#edf2f7" />
<line x1="52" y1="362.00" x2="56" y2="362.00" stroke="#9fb3c8" />
<text x="48.00" y="366.00" font-size="11" font-family="Arial" fill="#52606d" text-anchor="end">167</text>
<line x1="56" y1="260.00" x2="904" y2="260.00" stroke="#edf2f7" />
<line x1="52" y1="260.00" x2="56" y2="260.00" stroke="#9fb3c8" />
<text x="48.00" y="264.00" font-size="11" font-family="Arial" fill="#52606d" text-anchor="end">192</text>
<line x1="56" y1="158.00" x2="904" y2="158.00" stroke="#edf2f7" />
<line x1="52" y1="158.00" x2="56" y2="158.00" stroke="#9fb3c8" />
<text x="48.00" y="162.00" font-size="11" font-family="Arial" fill="#52606d" text-anchor="end">216</text>
<line x1="56" y1="56.00" x2="904" y2="56.00" stroke="#edf2f7" />
<line x1="52" y1="56.00" x2="56" y2="56.00" stroke="#9fb3c8" />
<text x="48.00" y="60.00" font-size="11" font-family="Arial" fill="#52606d" text-anchor="end">241</text>
<line x1="56.00" y1="464" x2="56.00" y2="468" stroke="#9fb3c8" />
<text x="56.00" y="482.00" font-size="11" font-family="Arial" fill="#52606d" text-anchor="middle">06/24</text>
<line x1="226.25" y1="464" x2="226.25" y2="468" stroke="#9fb3c8" />
<text x="226.25" y="482.00" font-size="11" font-family="Arial" fill="#52606d" text-anchor="middle">09/08</text>
<line x1="396.51" y1="464" x2="396.51" y2="468" stroke="#9fb3c8" />
<text x="396.51" y="482.00" font-size="11" font-family="Arial" fill="#52606d" text-anchor="middle">11/19</text>
<line x1="563.49" y1="464" x2="563.49" y2="468" stroke="#9fb3c8" />
<text x="563.49" y="482.00" font-size="11" font-family="Arial" fill="#52606d" text-anchor="middle">02/04</text>
<line x1="733.75" y1="464" x2="733.75" y2="468" stroke="#9fb3c8" />
<text x="733.75" y="482.00" font-size="11" font-family="Arial" fill="#52606d" text-anchor="middle">04/21</text>
<line x1="904.00" y1="464" x2="904.00" y2="468" stroke="#9fb3c8" />
<text x="904.00" y="482.00" font-size="11" font-family="Arial" fill="#52606d" text-anchor="middle">07/07</text>
<polyline fill="none" stroke="#1f77b4" stroke-width="2" points="56.00,442.14 59.27,415.57 62.55,412.63 65.82,401.31 69.10,400.32 72.37,419.76 75.64,403.38 78.92,394.72 82.19,399.28 85.47,391.98 88.74,380.05 92.02,374.99 95.29,371.59 98.56,375.11 101.84,347.63 105.11,344.85 108.39,338.10 111.66,340.54 114.93,344.81 118.21,362.84 121.48,347.30 124.76,335.03 128.03,336.02 131.31,322.55 134.58,327.69 137.85,312.10 141.13,317.91 144.40,335.11 147.68,309.08 150.95,316.29 154.22,311.48 157.50,305.89 160.77,297.89 164.05,300.54 167.32,295.98 170.59,302.49 173.87,300.71 177.14,307.21 180.42,300.75 183.69,327.15 186.97,328.15 190.24,329.89 193.51,317.41 196.79,309.87 200.06,301.74 203.34,302.45 206.61,308.37 209.88,333.20 213.16,347.30 216.43,347.96 219.71,343.65 222.98,362.88 226.25,357.54 229.53,347.38 232.80,320.15 236.08,320.77 239.35,318.07 242.63,318.36 245.90,330.26 249.17,349.29 252.45,324.62 255.72,322.84 259.00,294.07 262.27,315.55 265.54,321.60 268.82,318.61 272.09,316.54 275.37,301.37 278.64,281.76 281.92,279.02 285.19,272.18 288.46,277.45 291.74,286.07 295.01,288.14 298.29,271.27 301.56,256.93 304.83,295.94 308.11,274.55 311.38,308.91 314.66,309.74 317.93,301.53 321.20,295.69 324.48,298.09 327.75,304.23 331.03,307.88 334.30,300.08 337.58,283.09 340.85,261.40 344.12,221.86 347.40,196.94 350.67,214.15 353.95,215.80 357.22,197.60 360.49,231.56 363.77,245.98 367.04,275.54 370.32,275.25 373.59,230.06 376.86,254.48 380.14,251.83 383.41,280.60 386.69,266.88 389.96,281.68 393.24,303.40 396.51,282.01 399.78,306.38 403.06,313.68 406.33,298.47 409.61,318.07 412.88,307.96 416.15,321.47 419.43,309.37 422.70,302.98 425.98,310.74 429.25,294.98 432.53,299.00 435.80,285.99 439.07,288.39 442.35,293.32 445.62,305.14 448.90,329.64 452.17,324.38 455.44,318.45 458.72,346.56 461.99,333.29 465.27,304.89 468.54,293.70 471.81,270.81 475.09,273.30 478.36,265.34 481.64,274.92 484.91,277.74 488.19,282.05 491.46,272.30 494.73,275.33 498.01,278.98 501.28,271.23 504.56,288.10 507.83,288.85 511.10,288.51 514.38,284.91 517.65,295.98 520.93,279.77 524.20,283.17 527.47,317.00 530.75,295.23 534.02,288.93 537.30,277.20 540.57,282.17 543.85,273.67 547.12,261.24 550.39,257.13 553.67,262.85 556.94,285.74 560.22,307.59 563.49,333.08 566.76,342.66 570.04,286.57 573.31,267.37 576.59,273.59 579.86,267.33 583.14,280.22 586.41,297.35 589.68,288.39 592.96,275.91 596.23,276.24 599.51,268.28 602.78,261.11 606.05,255.72 609.33,244.49 612.60,288.72 615.88,320.64 619.15,298.71 622.42,308.79 625.70,296.39 628.97,295.15 632.25,318.03 635.52,298.01 638.80,289.22 642.07,283.95 645.34,295.94 648.62,307.92 651.89,295.60 655.17,300.95 658.44,307.30 661.71,314.92 664.99,339.22 668.26,327.03 671.54,328.86 674.81,314.43 678.08,345.27 681.36,360.70 684.63,370.44 687.91,332.17 691.18,326.58 694.46,319.78 697.73,318.74 701.00,316.83 704.28,300.33 707.55,292.74 710.83,273.17 714.10,270.36 717.37,240.50 720.65,230.72 723.92,232.88 727.20,219.07 730.47,217.49 733.75,226.53 737.02,215.67 740.29,227.53 743.57,191.75 746.84,157.17 750.12,171.43 753.39,187.68 756.66,227.82 759.94,232.46 763.21,232.34 766.49,240.55 769.76,193.57 773.03,178.36 776.31,163.02 779.58,145.44 782.86,139.88 786.13,118.94 789.41,77.86 792.68,121.06 795.95,133.50 799.23,140.59 802.50,128.73 805.78,145.15 809.05,162.48 812.32,164.43 815.60,173.80 818.87,166.95 822.15,179.85 825.42,125.04 828.69,131.42 831.97,164.88 835.24,148.67 838.52,204.89 841.79,190.21 845.07,192.08 848.34,224.29 851.61,205.84 854.89,204.52 858.16,174.42 861.44,195.31 864.71,206.76 867.98,181.71 871.26,190.17 874.53,225.87 877.81,230.18 881.08,243.70 884.36,257.01 887.63,246.89 890.90,225.66 894.18,236.07 897.45,247.47 900.73,244.48 904.00,238.76" />
<text x="780.00" y="60.00" font-size="14" font-family="Arial" fill="#1f77b4" text-anchor="start">Close</text>
<polyline fill="none" stroke="#2ca02c" stroke-width="2" points="118.21,383.08 121.48,378.34 124.76,374.31 128.03,370.48 131.31,366.54 134.58,362.91 137.85,357.53 141.13,353.26 144.40,350.27 147.68,345.76 150.95,341.98 154.22,338.55 157.50,335.10 160.77,331.41 164.05,327.68 167.32,325.10 170.59,322.98 173.87,321.11 177.14,319.45 180.42,317.24 183.69,315.46 186.97,314.50 190.24,314.24 193.51,313.31 196.79,312.68 200.06,311.38 203.34,310.90 206.61,310.42 209.88,310.33 213.16,312.24 216.43,313.82 219.71,315.43 222.98,318.28 226.25,321.26 229.53,323.60 232.80,324.81 236.08,325.73 239.35,326.59 242.63,327.15 245.90,328.63 249.17,329.73 252.45,329.56 255.72,329.21 259.00,328.04 262.27,328.32 265.54,329.32 268.82,330.12 272.09,330.53 275.37,328.94 278.64,325.66 281.92,322.22 285.19,318.64 288.46,314.37 291.74,310.80 295.01,307.84 298.29,305.39 301.56,302.20 304.83,301.09 308.11,298.90 311.38,297.84 314.66,295.86 317.93,294.70 321.20,293.35 324.48,293.55 327.75,292.98 331.03,292.29 334.30,291.37 337.58,289.70 340.85,287.70 344.12,284.70 347.40,280.60 350.67,277.70 353.95,274.61 357.22,270.19 360.49,267.36 363.77,266.10 367.04,267.03 370.32,265.99 373.59,263.77 376.86,261.05 380.14,258.15 383.41,257.11 386.69,255.66 389.96,254.84 393.24,254.80 396.51,253.51 399.78,253.82 403.06,255.35 406.33,257.21 409.61,262.02 412.88,267.57 416.15,272.94 419.43,277.61 422.70,282.88 425.98,286.84 429.25,289.29 432.53,290.46 435.80,291.00 439.07,293.92 442.35,295.86 445.62,298.53 448.90,300.98 452.17,303.85 455.44,305.69 458.72,307.85 461.99,310.41 465.27,310.34 468.54,309.34 471.81,307.96 475.09,305.72 478.36,303.59 481.64,301.26 484.91,299.68 488.19,298.63 491.46,296.71 494.73,295.73 498.01,294.73 501.28,293.99 504.56,293.97 507.83,293.75 511.10,292.92 514.38,290.68 517.65,289.26 520.93,287.33 524.20,284.16 527.47,283.34 530.75,282.86 534.02,282.62 537.30,282.94 540.57,283.38 543.85,283.80 547.12,283.12 550.39,282.09 553.67,281.13 556.94,281.80 560.22,283.41 563.49,286.12 566.76,289.69 570.04,289.61 573.31,288.54 576.59,287.79 579.86,286.91 583.14,286.12 586.41,287.00 589.68,287.26 592.96,285.21 596.23,284.26 599.51,283.23 602.78,282.42 606.05,281.10 609.33,279.64 612.60,281.02 615.88,284.19 619.15,285.99 622.42,287.14 625.70,286.58 628.97,284.68 632.25,283.45 635.52,284.02 638.80,285.12 642.07,285.63 645.34,287.06 648.62,288.45 651.89,288.36 655.17,288.99 658.44,290.56 661.71,292.49 664.99,296.04 668.26,299.34 671.54,302.99 674.81,306.49 678.08,309.32 681.36,311.32 684.63,314.91 687.91,316.08 691.18,317.58 694.46,318.82 697.73,318.85 701.00,319.79 704.28,320.35 707.55,320.79 710.83,319.65 714.10,317.77 717.37,315.02 720.65,311.50 723.92,307.78 727.20,302.99 730.47,296.90 733.75,291.88 737.02,286.22 740.29,281.88 743.57,274.20 746.84,264.02 750.12,254.07 753.39,246.85 756.66,241.91 759.94,237.54 763.21,233.22 766.49,229.41 769.76,224.07 773.03,218.35 776.31,212.84 779.58,206.60 782.86,201.57 786.13,195.98 789.41,188.23 792.68,183.33 795.95,179.13 799.23,174.83 802.50,170.48 805.78,166.36 809.05,164.90 812.32,165.26 815.60,165.38 818.87,164.34 822.15,161.95 825.42,156.57 828.69,151.53 831.97,147.75 835.24,145.50 838.52,146.83 841.79,148.19 845.07,150.52 848.34,154.74 851.61,159.09 854.89,165.42 858.16,168.09 861.44,171.18 864.71,174.49 867.98,177.13 871.26,179.39 874.53,182.56 877.81,185.84 881.08,189.34 884.36,193.84 887.63,197.19 890.90,202.22 894.18,207.46 897.45,211.59 900.73,216.38 904.00,218.07" />
<text x="780.00" y="82.00" font-size="14" font-family="Arial" fill="#2ca02c" text-anchor="start">MA20</text>
<polyline fill="none" stroke="#ff7f0e" stroke-width="2" points="249.17,342.76 252.45,340.80 255.72,339.25 259.00,337.28 262.27,335.85 265.54,334.54 268.82,332.85 272.09,331.40 275.37,329.85 278.64,327.89 281.92,326.01 285.19,324.21 288.46,322.58 291.74,321.16 295.01,319.71 298.29,318.43 301.56,316.97 304.83,316.27 308.11,315.17 311.38,314.57 314.66,313.68 317.93,312.92 321.20,312.27 324.48,311.63 327.75,311.33 331.03,311.00 334.30,310.80 337.58,310.22 340.85,308.99 344.12,307.53 347.40,305.55 350.67,303.92 353.95,302.42 357.22,300.75 360.49,299.60 363.77,298.77 367.04,298.32 370.32,297.89 373.59,296.61 376.86,295.84 380.14,294.58 383.41,293.79 386.69,292.74 389.96,292.14 393.24,292.04 396.51,291.71 399.78,291.77 403.06,291.86 406.33,291.28 409.61,290.79 412.88,290.13 416.15,289.76 419.43,288.87 422.70,287.96 425.98,287.35 429.25,286.93 432.53,286.56 435.80,286.03 439.07,285.53 442.35,284.91 445.62,284.18 448.90,284.26 452.17,284.29 455.44,284.69 458.72,285.21 461.99,285.41 465.27,285.18 468.54,284.80 471.81,284.29 475.09,284.15 478.36,283.92 481.64,283.96 484.91,283.97 488.19,283.90 491.46,283.64 494.73,283.70 498.01,284.07 501.28,283.66 504.56,283.89 507.83,283.55 511.10,283.20 514.38,282.92 517.65,282.93 520.93,282.62 524.20,282.27 527.47,282.42 530.75,282.34 534.02,282.44 537.30,282.70 540.57,283.71 543.85,284.99 547.12,285.77 550.39,286.46 553.67,287.55 556.94,288.45 560.22,289.48 563.49,290.44 566.76,291.56 570.04,292.50 573.31,292.72 576.59,293.08 579.86,292.86 583.14,293.08 586.41,293.34 589.68,293.09 592.96,292.99 596.23,292.49 599.51,291.73 602.78,291.11 606.05,290.07 609.33,289.01 612.60,288.46 615.88,288.65 619.15,288.58 622.42,288.55 625.70,288.57 628.97,288.51 632.25,289.04 635.52,289.20 638.80,289.13 642.07,288.78 645.34,288.22 648.62,287.94 651.89,287.56 655.17,286.80 658.44,286.37 661.71,286.54 664.99,287.30 668.26,288.23 671.54,289.16 674.81,289.98 678.08,291.15 681.36,292.53 684.63,294.01 687.91,295.00 691.18,295.86 694.46,296.54 697.73,297.33 701.00,297.81 704.28,298.00 707.55,298.07 710.83,297.88 714.10,297.45 717.37,296.79 720.65,295.92 723.92,294.52 727.20,293.25 730.47,292.06 733.75,291.21 737.02,290.10 740.29,289.34 743.57,288.18 746.84,286.51 750.12,284.99 753.39,283.35 756.66,282.02 759.94,280.35 763.21,278.51 766.49,277.74 769.76,276.51 773.03,274.92 776.31,273.19 779.58,270.94 782.86,268.31 786.13,265.49 789.41,262.19 792.68,259.60 795.95,257.36 799.23,255.35 802.50,253.23 805.78,251.58 809.05,249.47 812.32,246.87 815.60,244.79 818.87,242.42 822.15,240.48 825.42,237.64 828.69,234.53 831.97,232.32 835.24,229.97 838.52,228.66 841.79,226.89 845.07,224.96 848.34,223.77 851.61,222.19 854.89,220.48 858.16,218.13 861.44,215.74 864.71,213.73 867.98,211.28 871.26,209.21 874.53,207.22 877.81,205.04 881.08,202.93 884.36,201.68 887.63,200.35 890.90,198.78 894.18,197.40 897.45,196.25 900.73,195.32 904.00,194.42" />
<text x="780.00" y="104.00" font-size="14" font-family="Arial" fill="#ff7f0e" text-anchor="start">MA60</text>
<polyline fill="none" stroke="#d62728" stroke-width="2" points="707.55,306.79 710.83,305.95 714.10,305.22 717.37,304.36 720.65,303.51 723.92,302.67 727.20,301.67 730.47,300.74 733.75,299.90 737.02,298.98 740.29,298.16 743.57,297.22 746.84,296.13 750.12,295.13 753.39,294.19 756.66,293.59 759.94,293.03 763.21,292.50 766.49,292.00 769.76,291.24 773.03,290.32 776.31,289.40 779.58,288.45 782.86,287.47 786.13,286.45 789.41,285.20 792.68,284.25 795.95,283.33 799.23,282.35 802.50,281.45 805.78,280.60 809.05,279.85 812.32,279.14 815.60,278.52 818.87,277.86 822.15,277.28 825.42,276.39 828.69,275.54 831.97,274.83 835.24,274.07 838.52,273.46 841.79,272.77 845.07,272.08 848.34,271.61 851.61,271.09 854.89,270.61 858.16,269.97 861.44,269.40 864.71,268.77 867.98,267.94 871.26,267.15 874.53,266.56 877.81,265.90 881.08,265.33 884.36,264.88 887.63,264.51 890.90,264.04 894.18,263.63 897.45,263.27 900.73,262.84 904.00,262.29" />
<text x="780.00" y="126.00" font-size="14" font-family="Arial" fill="#d62728" text-anchor="start">MA200</text>
</svg>