<svg xmlns="http://www.w3.org/2000/svg" width="960" height="520" viewBox="0 0 960 520"><rect width="100%" height="100%" fill="white" />
<text x="56.00" y="32.00" font-size="20" font-family="Arial" fill="#1f2933" text-anchor="start">QQQ Price and Moving Averages</text>
<line x1="56" y1="464" x2="904" y2="464" stroke="#cbd2d9" />
<line x1="56" y1="56" x2="56" y2="464" stroke="#cbd2d9" />
<text x="16.00" y="38.00" font-size="12" font-family="Arial" fill="#52606d" text-anchor="start">Price</text>
<line x1="56" y1="464.00" x2="904" y2="464.00" stroke="#edf2f7" />
<line x1="52" y1="464.00" x2="56" y2="464.00" stroke="#9fb3c8" />
<text x="48.00" y="468.00" font-size="11" font-family="Arial" fill="#52606d" text-anchor="end">526</text>
<line x1="56" y1="362.00" x2="904" y2="362.00" stroke="#edf2f7" />
<line x1="52" y1="362.00" x2="56" y2="362.00" stroke="#9fb3c8" />
<text x="48.00" y="366.00" font-size="11" font-family="Arial" fill="#52606d" text-anchor="end">584</text>
<line x1="56" y1="260.00" x2="904" y2="260.00" stroke="#edf2f7" />
<line x1="52" y1="260.00" x2="56" y2="260.00" stroke="#9fb3c8" />
<text x="48.00" y="264.00" font-size="11" font-family="Arial" fill="#52606d" text-anchor="end">642</text>
<line x1="56" y1="158.00" x2="904" y2="158.00" stroke="#edf2f7" />
<line x1="52" y1="158.00" x2="56" y2="158.00" stroke="#9fb3c8" />
<text x="48.00" y="162.00" font-size="11" font-family="Arial" fill="#52606d" text-anchor="end">700</text>
<line x1="56" y1="56.00" x2="904" y2="56.00" stroke="#edf2f7" />
<line x1="52" y1="56.00" x2="56" y2="56.00" stroke="#9fb3c8" />
<text x="48.00" y="60.00" font-size="11" font-family="Arial" fill="#52606d" text-anchor="end">758</text>
<line x1="56.00" y1="464" x2="56.00" y2="468" stroke="#9fb3c8" />
<text x="56.00" y="482.00" font-size="11" font-family="Arial" fill="#52606d" text-anchor="middle">06/25</text>
<line x1="226.25" y1="464" x2="226.25" y2="468" stroke="#9fb3c8" />
<text x="226.25" y="482.00" font-size="11" font-family="Arial" fill="#52606d" text-anchor="middle">09/09</text>
<line x1="396.51" y1="464" x2="396.51" y2="468" stroke="#9fb3c8" />
<text x="396.51" y="482.00" font-size="11" font-family="Arial" fill="#52606d" text-anchor="middle">11/20</text>
<line x1="563.49" y1="464" x2="563.49" y2="468" stroke="#9fb3c8" />
<text x="563.49" y="482.00" font-size="11" font-family="Arial" fill="#52606d" text-anchor="middle">02/05</text>
<line x1="733.75" y1="464" x2="733.75" y2="468" stroke="#9fb3c8" />
<text x="733.75" y="482.00" font-size="11" font-family="Arial" fill="#52606d" text-anchor="middle">04/22</text>
<line x1="904.00" y1="464" x2="904.00" y2="468" stroke="#9fb3c8" />
<text x="904.00" y="482.00" font-size="11" font-family="Arial" fill="#52606d" text-anchor="middle">07/08</text>
<polyline fill="none" stroke="#1f77b4" stroke-width="2" points="56.00,442.14 59.27,433.27 62.55,429.99 65.82,423.77 69.10,431.92 72.37,425.24 75.64,415.74 78.92,423.08 82.19,422.54 85.47,415.69 88.74,417.09 92.02,419.28 95.29,415.76 98.56,414.86 101.84,413.86 105.11,405.95 108.39,406.90 111.66,401.80 114.93,406.92 118.21,402.43 121.48,400.33 124.76,397.94 128.03,394.84 131.31,396.38 134.58,395.05 137.85,400.33 141.13,419.84 144.40,401.92 147.68,408.64 150.95,396.28 154.22,392.91 157.50,383.60 160.77,386.58 164.05,373.96 167.32,373.45 170.59,374.24 173.87,378.71 177.14,379.11 180.42,392.84 183.69,398.77 186.97,403.36 190.24,388.12 193.51,391.02 196.79,387.00 200.06,385.46 203.34,379.16 206.61,390.88 209.88,399.26 213.16,391.45 216.43,382.41 219.71,380.95 222.98,376.03 226.25,373.15 229.53,372.82 232.80,366.89 236.08,362.37 239.35,353.57 242.63,354.44 245.90,356.51 249.17,347.18 252.45,340.12 255.72,333.90 259.00,340.92 262.27,344.60 265.54,349.12 268.82,344.83 272.09,339.99 275.37,337.11 278.64,332.05 281.92,327.70 285.19,332.18 288.46,324.22 291.74,329.84 295.01,317.68 298.29,318.98 301.56,356.19 304.83,334.23 308.11,341.27 311.38,333.86 314.66,337.78 317.93,330.86 321.20,317.50 324.48,317.78 327.75,328.12 331.03,319.19 334.30,307.74 337.58,288.45 340.85,279.97 344.12,274.97 347.40,292.03 350.67,286.73 353.95,281.45 357.22,303.97 360.49,296.89 363.77,317.27 367.04,320.66 370.32,296.98 373.59,299.90 376.86,300.76 380.14,323.01 383.41,322.21 386.69,331.33 389.96,344.24 393.24,337.99 396.51,362.91 399.78,355.19 403.06,328.70 406.33,322.15 409.61,312.71 412.88,303.97 416.15,307.62 419.43,299.14 422.70,296.47 425.98,297.49 429.25,293.03 432.53,295.14 435.80,293.79 439.07,289.29 442.35,292.86 445.62,313.85 448.90,319.26 452.17,317.13 455.44,337.04 458.72,321.77 461.99,307.83 465.27,302.64 468.54,297.54 471.81,294.34 475.09,294.41 478.36,299.72 481.64,302.25 484.91,311.25 488.19,313.34 491.46,304.78 494.73,295.24 498.01,294.18 501.28,300.42 504.56,289.56 507.83,288.65 511.10,290.28 514.38,302.04 517.65,298.12 520.93,299.04 524.20,322.24 527.47,307.79 530.75,299.91 534.02,296.47 537.30,291.65 540.57,281.69 543.85,278.01 547.12,284.68 550.39,297.96 553.67,290.46 556.94,307.37 560.22,326.30 563.49,341.62 566.76,319.44 570.04,311.23 573.31,316.24 576.59,313.36 579.86,335.28 583.14,333.03 586.41,334.12 589.68,326.23 592.96,330.30 596.23,320.92 599.51,333.92 602.78,322.57 606.05,307.08 609.33,320.16 612.60,323.59 615.88,322.18 619.15,333.62 622.42,317.51 625.70,320.74 628.97,336.84 632.25,322.76 635.52,322.75 638.80,322.89 642.07,341.22 645.34,347.44 648.62,335.73 651.89,330.58 655.17,345.37 658.44,348.67 661.71,367.93 664.99,356.19 668.26,363.26 671.54,356.51 674.81,381.20 678.08,400.92 681.36,408.49 684.63,375.23 687.91,362.68 691.18,361.50 694.46,355.31 697.73,355.15 701.00,324.35 704.28,317.14 707.55,315.59 710.83,304.47 714.10,284.74 717.37,269.25 720.65,263.85 723.92,249.10 727.20,252.73 730.47,257.06 733.75,238.09 737.02,244.58 740.29,222.65 743.57,222.04 746.84,233.79 750.12,226.72 753.39,215.86 756.66,204.58 759.94,206.82 763.21,191.45 766.49,166.53 769.76,167.99 773.03,139.33 776.31,135.70 779.58,146.35 782.86,133.20 786.13,124.26 789.41,143.38 792.68,148.74 795.95,156.40 799.23,135.95 802.50,133.56 805.78,128.22 809.05,105.80 812.32,107.26 815.60,96.44 818.87,91.67 822.15,83.88 825.42,77.86 828.69,81.29 831.97,87.62 835.24,150.19 838.52,130.81 841.79,145.31 845.07,170.19 848.34,128.96 851.61,121.54 854.89,81.66 858.16,106.54 861.44,119.48 864.71,87.61 867.98,90.88 871.26,133.69 874.53,139.03 877.81,128.88 881.08,146.25 884.36,115.31 887.63,93.61 890.90,113.39 894.18,135.54 897.45,117.53 900.73,141.12 904.00,137.58" />
<text x="780.00" y="60.00" font-size="14" font-family="Arial" fill="#1f77b4" text-anchor="start">Close</text>
<polyline fill="none" stroke="#2ca02c" stroke-width="2" points="118.21,418.41 121.48,416.32 124.76,414.55 128.03,412.80 131.31,411.43 134.58,409.58 137.85,408.34 141.13,408.54 144.40,407.49 147.68,406.79 150.95,405.82 154.22,404.61 157.50,402.83 160.77,401.37 164.05,399.32 167.32,397.30 170.59,395.72 173.87,394.31 177.14,393.17 180.42,392.47 183.69,392.28 186.97,392.44 190.24,391.95 193.51,391.75 196.79,391.29 200.06,390.81 203.34,389.75 206.61,388.30 209.88,388.17 213.16,387.31 216.43,386.61 219.71,386.02 222.98,385.64 226.25,384.97 229.53,384.91 232.80,384.58 236.08,383.99 239.35,382.73 242.63,381.50 245.90,379.68 249.17,377.10 252.45,373.94 255.72,371.23 259.00,368.72 262.27,366.60 265.54,364.79 268.82,363.07 272.09,360.52 275.37,357.42 278.64,354.45 281.92,351.71 285.19,349.27 288.46,346.68 291.74,344.52 295.01,341.76 298.29,339.37 301.56,339.06 304.83,338.09 308.11,337.43 311.38,336.30 314.66,335.83 317.93,335.37 321.20,334.55 324.48,333.39 327.75,332.56 331.03,331.07 334.30,329.21 337.58,326.64 340.85,323.78 344.12,320.93 347.40,319.14 350.67,316.87 353.95,314.73 357.22,313.44 360.49,312.40 363.77,312.31 367.04,310.54 370.32,308.67 373.59,306.61 376.86,304.95 380.14,304.21 383.41,303.78 386.69,304.47 389.96,305.79 393.24,306.29 396.51,308.47 399.78,310.85 403.06,312.86 406.33,314.97 409.61,316.85 412.88,317.45 416.15,318.50 419.43,319.38 422.70,319.01 425.98,319.04 429.25,317.82 432.53,316.55 435.80,316.39 439.07,315.86 442.35,315.46 445.62,315.00 448.90,314.86 452.17,314.15 455.44,313.79 458.72,312.98 461.99,310.22 465.27,307.59 468.54,306.04 471.81,304.65 475.09,303.73 478.36,303.52 481.64,303.25 484.91,303.86 488.19,304.70 491.46,305.06 494.73,305.17 498.01,305.13 501.28,305.46 504.56,305.47 507.83,305.26 511.10,304.08 514.38,303.22 517.65,302.27 520.93,300.37 524.20,300.39 527.47,300.39 530.75,300.26 534.02,300.20 537.30,300.07 540.57,299.43 543.85,298.35 547.12,297.47 550.39,296.80 553.67,295.66 556.94,295.79 560.22,297.34 563.49,299.71 566.76,300.66 570.04,301.75 573.31,303.13 576.59,304.28 579.86,305.94 583.14,307.69 586.41,309.44 589.68,309.64 592.96,310.77 596.23,311.82 599.51,313.69 602.78,315.24 606.05,316.51 609.33,318.61 612.60,320.56 615.88,321.77 619.15,323.93 622.42,324.44 625.70,324.16 628.97,323.92 632.25,324.08 635.52,324.66 638.80,324.99 642.07,326.39 645.34,326.99 648.62,327.13 651.89,326.95 655.17,327.91 658.44,328.83 661.71,331.18 664.99,332.29 668.26,334.33 671.54,336.80 674.81,339.85 678.08,343.72 681.36,348.03 684.63,350.11 687.91,352.37 691.18,354.41 694.46,355.33 697.73,356.95 701.00,357.03 704.28,356.74 707.55,355.46 710.83,353.31 714.10,350.77 717.37,347.70 720.65,343.62 723.92,338.64 727.20,332.88 730.47,327.93 733.75,321.67 737.02,316.07 740.29,308.15 743.57,299.20 746.84,290.47 750.12,283.04 753.39,275.70 756.66,267.85 759.94,260.43 763.21,252.24 766.49,244.35 769.76,236.90 773.03,228.08 776.31,219.64 779.58,212.73 782.86,205.92 786.13,198.94 789.41,193.66 792.68,188.46 795.95,183.42 799.23,178.32 802.50,172.77 805.78,168.04 809.05,162.23 812.32,155.91 815.60,149.39 818.87,143.18 822.15,137.15 825.42,130.70 828.69,125.19 831.97,121.25 835.24,120.35 838.52,119.93 841.79,120.41 845.07,121.60 848.34,121.39 851.61,121.25 854.89,118.17 858.16,116.06 861.44,114.21 864.71,111.79 867.98,109.66 871.26,109.93 874.53,111.59 877.81,112.68 881.08,115.17 884.36,116.35 887.63,116.83 890.90,118.61 894.18,121.32 897.45,122.82 900.73,122.37 904.00,122.71" />
<text x="780.00" y="82.00" font-size="14" font-family="Arial" fill="#2ca02c" text-anchor="start">MA20</text>
<polyline fill="none" stroke="#ff7f0e" stroke-width="2" points="249.17,395.93 252.45,394.23 255.72,392.58 259.00,391.09 262.27,389.77 265.54,388.39 268.82,387.05 272.09,385.79 275.37,384.36 278.64,382.85 281.92,381.38 285.19,379.97 288.46,378.38 291.74,376.95 295.01,375.33 298.29,373.75 301.56,372.92 304.83,371.71 308.11,370.70 311.38,369.48 314.66,368.40 317.93,367.25 321.20,365.91 324.48,364.62 327.75,363.48 331.03,362.22 334.30,360.68 337.58,358.49 340.85,356.45 344.12,354.23 347.40,352.49 350.67,350.72 353.95,349.02 357.22,347.64 360.49,346.36 363.77,345.42 367.04,344.53 370.32,343.16 373.59,341.84 376.86,340.31 380.14,339.05 383.41,337.69 386.69,336.75 389.96,335.97 393.24,335.15 396.51,334.78 399.78,334.38 403.06,333.34 406.33,332.05 409.61,330.74 412.88,329.44 416.15,328.21 419.43,326.93 422.70,325.65 425.98,324.40 429.25,323.17 432.53,322.05 435.80,321.05 439.07,319.96 442.35,318.90 445.62,318.35 448.90,318.00 452.17,317.72 455.44,317.66 458.72,317.28 461.99,316.59 465.27,315.88 468.54,315.18 471.81,314.46 475.09,313.84 478.36,313.37 481.64,312.87 484.91,312.66 488.19,312.38 491.46,312.17 494.73,311.77 498.01,310.74 501.28,310.17 504.56,309.31 507.83,308.56 511.10,307.77 514.38,307.29 517.65,306.96 520.93,306.65 524.20,306.55 527.47,306.36 530.75,306.23 534.02,306.37 537.30,306.56 540.57,306.67 543.85,306.44 547.12,306.40 550.39,306.68 553.67,306.45 556.94,306.63 560.22,306.78 563.49,307.13 566.76,307.50 570.04,307.69 573.31,307.95 576.59,307.79 579.86,308.01 583.14,308.04 586.41,307.87 589.68,307.67 592.96,307.13 596.23,306.56 599.51,306.64 602.78,306.65 606.05,306.56 609.33,306.83 612.60,307.09 615.88,307.48 619.15,308.10 622.42,308.43 625.70,308.89 628.97,309.59 632.25,310.07 635.52,310.63 638.80,311.13 642.07,311.58 645.34,312.05 648.62,312.36 651.89,312.25 655.17,312.65 658.44,313.33 661.71,314.42 664.99,315.39 668.26,316.54 671.54,317.58 674.81,318.94 678.08,320.58 681.36,322.20 684.63,323.23 687.91,324.20 691.18,325.30 694.46,326.32 697.73,327.23 701.00,327.81 704.28,328.29 707.55,328.71 710.83,328.75 714.10,328.53 717.37,328.03 720.65,327.06 723.92,326.08 727.20,325.29 730.47,324.64 733.75,323.74 737.02,323.13 740.29,322.20 743.57,321.16 746.84,320.09 750.12,319.03 753.39,317.50 756.66,315.47 759.94,313.23 763.21,311.09 766.49,308.68 769.76,306.21 773.03,303.31 776.31,299.98 779.58,296.87 782.86,293.52 786.13,290.16 789.41,287.04 792.68,284.17 795.95,281.21 799.23,278.10 802.50,275.21 805.78,272.01 809.05,268.38 812.32,264.80 815.60,260.85 818.87,257.08 822.15,253.14 825.42,248.82 828.69,244.80 831.97,240.88 835.24,238.00 838.52,234.49 841.79,231.12 845.07,228.36 848.34,225.00 851.61,221.27 854.89,216.82 858.16,212.47 861.44,208.52 864.71,203.93 867.98,199.50 871.26,195.37 874.53,191.01 877.81,186.35 881.08,182.53 884.36,178.41 887.63,173.95 890.90,169.91 894.18,166.25 897.45,162.81 900.73,159.87 904.00,156.91" />
<text x="780.00" y="104.00" font-size="14" font-family="Arial" fill="#ff7f0e" text-anchor="start">MA60</text>
<polyline fill="none" stroke="#d62728" stroke-width="2" points="707.55,343.31 710.83,342.62 714.10,341.87 717.37,341.07 720.65,340.27 723.92,339.36 727.20,338.49 730.47,337.70 733.75,336.78 737.02,335.89 740.29,334.92 743.57,333.95 746.84,333.02 750.12,332.07 753.39,331.08 756.66,330.03 759.94,329.04 763.21,327.96 766.49,326.78 769.76,325.59 773.03,324.27 776.31,322.95 779.58,321.69 782.86,320.38 786.13,319.02 789.41,317.76 792.68,316.51 795.95,315.19 799.23,313.86 802.50,312.48 805.78,311.14 809.05,309.71 812.32,308.33 815.60,306.88 818.87,305.46 822.15,304.02 825.42,302.53 828.69,301.05 831.97,299.59 835.24,298.38 838.52,297.04 841.79,295.75 845.07,294.66 848.34,293.35 851.61,292.02 854.89,290.50 858.16,289.14 861.44,287.78 864.71,286.22 867.98,284.72 871.26,283.48 874.53,282.27 877.81,281.03 881.08,279.90 884.36,278.61 887.63,277.24 890.90,276.00 894.18,274.91 897.45,273.72 900.73,272.65 904.00,271.60" />
<text x="780.00" y="126.00" font-size="14" font-family="Arial" fill="#d62728" text-anchor="start">MA200</text>
</svg>