<svg xmlns="http://www.w3.org/2000/svg" width="960" height="520" viewBox="0 0 960 520"><rect width="100%" height="100%" fill="white" />
<text x="56" y="32" font-size="20" font-family="Arial">SOXX Price and Moving Averages</text>
<line x1="56" y1="464" x2="904" y2="464" stroke="#ccc" />
<line x1="56" y1="56" x2="56" y2="464" stroke="#ccc" />
<polyline fill="none" stroke="#1f77b4" stroke-width="2" points="56.00,464.00 59.27,462.68 62.55,454.59 65.82,452.60 69.10,450.84 72.37,451.04 75.64,451.19 78.92,452.21 82.19,447.95 85.47,446.82 88.74,451.12 92.02,446.82 95.29,446.09 98.56,443.80 101.84,444.15 105.11,446.36 108.39,444.07 111.66,444.70 114.93,443.81 118.21,443.63 121.48,443.42 124.76,446.63 128.03,448.03 131.31,448.50 134.58,448.52 137.85,444.55 141.13,444.14 144.40,442.48 147.68,449.94 150.95,452.57 154.22,449.59 157.50,451.17 160.77,452.86 164.05,449.18 167.32,447.26 170.59,447.70 173.87,440.39 177.14,436.89 180.42,436.64 183.69,442.13 186.97,441.44 190.24,445.12 193.51,446.44 196.79,447.74 200.06,441.40 203.34,441.95 206.61,439.74 209.88,439.28 213.16,438.14 216.43,444.95 219.71,447.30 222.98,448.39 226.25,446.04 229.53,443.32 232.80,441.63 236.08,441.43 239.35,437.29 242.63,435.65 245.90,435.23 249.17,433.19 252.45,431.95 255.72,431.99 259.00,423.46 262.27,425.07 265.54,421.32 268.82,421.63 272.09,422.01 275.37,422.82 278.64,422.27 281.92,422.17 285.19,420.10 288.46,415.18 291.74,410.12 295.01,411.76 298.29,403.82 301.56,409.92 304.83,400.82 308.11,402.10 311.38,419.28 314.66,407.12 317.93,412.64 321.20,404.50 324.48,403.24 327.75,404.00 331.03,399.47 334.30,401.02 337.58,407.82 340.85,401.27 344.12,396.74 347.40,388.98 350.67,388.63 353.95,383.77 357.22,387.72 360.49,386.65 363.77,384.92 367.04,396.36 370.32,387.67 373.59,395.19 376.86,398.14 380.14,390.94 383.41,397.41 386.69,393.14 389.96,402.86 393.24,403.67 396.51,408.36 399.78,414.57 403.06,410.20 406.33,422.96 409.61,420.38 412.88,409.17 416.15,408.34 419.43,400.96 422.70,395.91 425.98,395.74 429.25,390.15 432.53,383.99 435.80,386.90 439.07,383.96 442.35,380.78 445.62,381.33 448.90,377.41 452.17,379.12 455.44,393.32 458.72,394.71 461.99,396.01 465.27,406.39 468.54,399.95 471.81,392.60 475.09,388.79 478.36,387.73 481.64,386.61 484.91,386.71 488.19,387.39 491.46,387.76 494.73,391.33 498.01,379.47 501.28,375.34 504.56,365.61 507.83,368.88 511.10,373.90 514.38,365.20 517.65,363.71 520.93,360.92 524.20,362.25 527.47,357.22 530.75,352.25 534.02,357.09 537.30,346.89 540.57,346.39 543.85,350.13 547.12,351.68 550.39,344.11 553.67,335.24 556.94,334.61 560.22,348.63 563.49,342.59 566.76,349.25 570.04,363.69 573.31,363.26 576.59,346.54 579.86,342.51 583.14,343.78 586.41,335.48 589.68,343.71 592.96,340.72 596.23,341.25 599.51,337.64 602.78,339.61 606.05,336.21 609.33,338.68 612.60,333.74 615.88,328.11 619.15,338.70 622.42,342.97 625.70,343.19 628.97,359.52 632.25,353.13 635.52,356.71 638.80,370.18 642.07,358.02 645.34,355.71 648.62,352.61 651.89,363.87 655.17,362.80 658.44,356.64 661.71,354.15 664.99,356.01 668.26,354.20 671.54,361.48 674.81,357.62 678.08,353.42 681.36,349.42 684.63,364.94 687.91,370.02 691.18,382.98 694.46,365.12 697.73,355.77 701.00,354.76 704.28,350.51 707.55,347.05 710.83,325.62 714.10,317.83 717.37,310.29 720.65,303.91 723.92,296.44 727.20,295.85 730.47,291.98 733.75,282.75 737.02,281.00 740.29,278.02 743.57,267.55 746.84,258.81 750.12,239.32 753.39,245.18 756.66,260.98 759.94,250.31 763.21,239.47 766.49,235.39 769.76,238.88 773.03,219.32 776.31,196.48 779.58,210.21 782.86,183.77 786.13,171.98 789.41,187.85 792.68,176.21 795.95,174.56 799.23,194.92 802.50,206.89 805.78,206.07 809.05,183.76 812.32,179.60 815.60,167.66 818.87,136.65 822.15,142.44 825.42,137.24 828.69,137.61 831.97,134.91 835.24,103.60 838.52,93.51 841.79,105.78 845.07,165.35 848.34,135.37 851.61,144.18 854.89,163.70 858.16,120.72 861.44,111.90 864.71,81.15 867.98,116.37 871.26,108.34 874.53,70.73 877.81,56.00 881.08,104.87 884.36,106.66 887.63,84.22 890.90,117.61 894.18,94.50 897.45,69.49 900.73,108.37 904.00,139.97" />
<text x="780" y="60" font-size="14" font-family="Arial" fill="#1f77b4">Close</text>
<polyline fill="none" stroke="#2ca02c" stroke-width="2" points="118.21,464.00 121.48,462.77 124.76,461.81 128.03,461.42 131.31,461.18 134.58,461.04 137.85,460.65 141.13,460.23 144.40,459.65 147.68,459.77 150.95,460.11 154.22,460.02 157.50,460.28 160.77,460.68 164.05,461.00 167.32,461.19 170.59,461.27 173.87,461.05 177.14,460.58 180.42,460.16 183.69,460.07 186.97,459.95 190.24,459.86 193.51,459.76 196.79,459.72 200.06,459.29 203.34,459.14 206.61,458.88 209.88,458.68 213.16,457.98 216.43,457.53 219.71,457.39 222.98,457.22 226.25,456.82 229.53,456.47 232.80,456.13 236.08,455.76 239.35,455.57 242.63,455.50 245.90,455.41 249.17,454.88 252.45,454.31 255.72,453.53 259.00,452.16 262.27,450.80 265.54,449.61 268.82,448.39 272.09,447.33 275.37,446.35 278.64,445.40 281.92,444.04 285.19,442.42 288.46,440.44 291.74,438.29 295.01,436.41 298.29,434.15 301.56,432.27 304.83,430.09 308.11,428.09 311.38,427.14 314.66,425.58 317.93,424.43 321.20,422.79 324.48,421.58 327.75,420.32 331.03,419.02 334.30,417.79 337.58,416.94 340.85,415.65 344.12,414.13 347.40,412.15 350.67,410.27 353.95,408.39 357.22,407.06 360.49,405.56 363.77,404.43 367.04,403.62 370.32,402.84 373.59,402.42 376.86,401.16 380.14,400.20 383.41,399.29 386.69,398.61 389.96,398.59 393.24,398.57 396.51,399.10 399.78,399.91 403.06,400.05 406.33,401.34 409.61,402.75 412.88,403.96 416.15,405.14 419.43,406.16 422.70,406.65 425.98,407.19 429.25,407.51 432.53,406.77 435.80,406.72 439.07,406.05 442.35,405.01 445.62,404.44 448.90,403.25 452.17,402.41 455.44,401.84 458.72,401.31 461.99,400.57 465.27,400.08 468.54,399.47 471.81,397.65 475.09,395.77 478.36,394.49 481.64,393.19 484.91,392.34 488.19,391.83 491.46,391.36 494.73,391.43 498.01,391.16 501.28,390.47 504.56,389.37 507.83,388.66 511.10,388.22 514.38,387.49 517.65,386.57 520.93,384.63 524.20,382.69 527.47,380.38 530.75,377.15 534.02,374.59 537.30,371.86 540.57,369.33 543.85,367.09 547.12,365.00 550.39,362.46 553.67,359.34 556.94,356.17 560.22,353.62 563.49,351.42 566.76,349.86 570.04,349.75 573.31,349.41 576.59,347.78 579.86,346.43 583.14,345.24 586.41,343.72 589.68,342.61 592.96,341.63 596.23,340.97 599.51,339.81 602.78,339.37 606.05,338.77 609.33,338.08 612.60,337.01 615.88,336.06 619.15,336.26 622.42,336.76 625.70,336.44 628.97,337.45 632.25,337.68 635.52,337.26 638.80,337.68 642.07,338.36 645.34,339.15 648.62,339.68 651.89,341.37 655.17,342.51 658.44,343.46 661.71,344.23 664.99,345.33 668.26,346.20 671.54,347.71 674.81,348.84 678.08,350.01 681.36,351.28 684.63,352.85 687.91,354.47 691.18,356.84 694.46,357.18 697.73,357.33 701.00,357.22 704.28,356.04 707.55,355.39 710.83,353.59 714.10,351.51 717.37,348.32 720.65,344.80 723.92,341.21 727.20,337.73 730.47,333.90 733.75,329.64 737.02,324.83 740.29,320.08 743.57,314.96 746.84,309.55 750.12,302.05 753.39,294.59 756.66,287.31 759.94,280.46 763.21,273.51 766.49,266.39 769.76,259.72 773.03,252.10 776.31,244.39 779.58,237.97 782.86,230.41 786.13,222.54 789.41,216.05 792.68,208.91 795.95,201.90 799.23,196.66 802.50,192.23 805.78,187.94 809.05,182.94 812.32,178.21 815.60,173.93 818.87,167.45 822.15,160.37 825.42,153.63 828.69,147.54 831.97,141.55 835.24,133.47 838.52,125.96 841.79,120.54 845.07,117.87 848.34,114.98 851.61,113.32 854.89,111.88 858.16,108.56 861.44,104.82 864.71,98.03 867.98,92.63 871.26,86.79 874.53,80.04 877.81,72.67 881.08,68.92 884.36,67.13 887.63,63.65 890.90,62.48 894.18,59.91 897.45,56.00 900.73,56.28 904.00,59.06" />
<text x="780" y="82" font-size="14" font-family="Arial" fill="#2ca02c">MA20</text>
<polyline fill="none" stroke="#ff7f0e" stroke-width="2" points="249.17,464.00 252.45,463.17 255.72,462.38 259.00,461.57 262.27,460.86 265.54,460.10 268.82,459.34 272.09,458.58 275.37,457.82 278.64,457.16 281.92,456.52 285.19,455.72 288.46,454.90 291.74,453.97 295.01,453.14 298.29,452.10 301.56,451.16 304.83,450.04 308.11,448.94 311.38,448.30 314.66,447.36 317.93,446.56 321.20,445.47 324.48,444.31 327.75,443.16 331.03,441.89 334.30,440.77 337.58,439.83 340.85,438.76 344.12,437.39 347.40,435.74 350.67,434.17 353.95,432.42 357.22,430.74 360.49,429.12 363.77,427.51 367.04,426.18 370.32,424.82 373.59,423.74 376.86,422.74 380.14,421.42 383.41,420.28 386.69,418.94 389.96,417.81 393.24,416.67 396.51,415.82 399.78,415.11 403.06,414.35 406.33,413.92 409.61,413.46 412.88,412.54 416.15,411.53 419.43,410.30 422.70,409.01 425.98,407.78 429.25,406.45 432.53,404.96 435.80,403.66 439.07,402.32 442.35,400.91 445.62,399.57 448.90,398.16 452.17,396.79 455.44,396.01 458.72,395.23 461.99,394.57 465.27,394.18 468.54,393.61 471.81,392.83 475.09,391.96 478.36,391.07 481.64,390.20 484.91,389.47 488.19,388.88 491.46,388.26 494.73,387.94 498.01,387.15 501.28,386.49 504.56,385.55 507.83,384.24 511.10,383.38 514.38,382.16 517.65,381.10 520.93,380.01 524.20,378.93 527.47,377.84 530.75,376.57 534.02,375.26 537.30,373.86 540.57,372.55 543.85,371.55 547.12,370.59 550.39,369.57 553.67,368.21 556.94,366.87 560.22,365.93 563.49,364.54 566.76,363.54 570.04,362.73 573.31,361.83 576.59,360.68 579.86,359.26 583.14,357.98 586.41,356.24 589.68,354.69 592.96,352.94 596.23,351.04 599.51,349.17 602.78,347.01 606.05,344.83 609.33,343.01 612.60,341.08 615.88,339.20 619.15,337.72 622.42,336.35 625.70,335.14 628.97,334.51 632.25,333.63 635.52,332.93 638.80,332.65 642.07,332.05 645.34,331.49 648.62,330.81 651.89,330.04 655.17,329.22 658.44,328.20 661.71,326.85 664.99,325.71 668.26,324.72 671.54,324.01 674.81,323.24 678.08,322.38 681.36,321.41 684.63,320.83 687.91,320.37 691.18,320.16 694.46,319.79 697.73,319.28 701.00,319.00 704.28,318.53 707.55,317.83 710.83,316.81 714.10,315.62 717.37,314.31 720.65,312.80 723.92,311.23 727.20,309.77 730.47,308.09 733.75,306.43 737.02,304.74 740.29,302.87 743.57,300.70 746.84,298.49 750.12,296.01 753.39,293.70 756.66,291.43 759.94,289.05 763.21,286.21 766.49,282.89 769.76,279.67 773.03,276.38 776.31,272.61 779.58,269.15 782.86,265.23 786.13,260.79 789.41,256.83 792.68,252.57 795.95,248.35 799.23,244.61 802.50,241.26 805.78,237.83 809.05,233.95 812.32,230.11 815.60,225.69 818.87,220.35 822.15,215.16 825.42,209.41 828.69,203.84 831.97,198.10 835.24,191.21 838.52,184.37 841.79,177.91 845.07,173.06 848.34,167.15 851.61,161.50 854.89,156.51 858.16,150.47 861.44,144.16 864.71,137.10 867.98,130.76 871.26,124.31 874.53,117.00 877.81,109.42 881.08,102.69 884.36,95.88 887.63,88.15 890.90,81.75 894.18,74.99 897.45,67.62 900.73,61.36 904.00,56.00" />
<text x="780" y="104" font-size="14" font-family="Arial" fill="#ff7f0e">MA60</text>
<polyline fill="none" stroke="#d62728" stroke-width="2" points="707.55,464.00 710.83,460.42 714.10,456.68 717.37,452.94 720.65,449.10 723.92,445.11 727.20,441.09 730.47,436.97 733.75,432.59 737.02,428.27 740.29,423.91 743.57,419.16 746.84,414.30 750.12,408.95 753.39,403.82 756.66,399.08 759.94,394.01 763.21,388.72 766.49,383.31 769.76,378.01 773.03,372.21 776.31,365.82 779.58,359.70 782.86,352.87 786.13,345.72 789.41,338.98 792.68,332.04 795.95,325.07 799.23,318.67 802.50,312.38 805.78,306.01 809.05,299.13 812.32,292.11 815.60,284.73 818.87,276.65 822.15,268.77 825.42,260.74 828.69,252.91 831.97,245.10 835.24,236.49 838.52,227.47 841.79,218.79 845.07,211.55 848.34,203.51 851.61,195.66 854.89,188.48 858.16,180.17 861.44,171.69 864.71,162.43 867.98,154.11 871.26,145.40 874.53,135.66 877.81,125.52 881.08,116.69 884.36,107.99 887.63,98.75 890.90,90.37 894.18,81.51 897.45,72.04 900.73,63.58 904.00,56.00" />
<text x="780" y="126" font-size="14" font-family="Arial" fill="#d62728">MA200</text>
</svg>