<svg xmlns="http://www.w3.org/2000/svg" width="960" height="520" viewBox="0 0 960 520"><rect width="100%" height="100%" fill="white" />
<text x="56.00" y="32.00" font-size="20" font-family="Arial" fill="#1f2933" text-anchor="start">TSLA Price and Moving Averages</text>
<line x1="56" y1="464" x2="904" y2="464" stroke="#cbd2d9" />
<line x1="56" y1="56" x2="56" y2="464" stroke="#cbd2d9" />
<text x="16.00" y="38.00" font-size="12" font-family="Arial" fill="#52606d" text-anchor="start">Price</text>
<line x1="56" y1="464.00" x2="904" y2="464.00" stroke="#edf2f7" />
<line x1="52" y1="464.00" x2="56" y2="464.00" stroke="#9fb3c8" />
<text x="48.00" y="468.00" font-size="11" font-family="Arial" fill="#52606d" text-anchor="end">282</text>
<line x1="56" y1="362.00" x2="904" y2="362.00" stroke="#edf2f7" />
<line x1="52" y1="362.00" x2="56" y2="362.00" stroke="#9fb3c8" />
<text x="48.00" y="366.00" font-size="11" font-family="Arial" fill="#52606d" text-anchor="end">337</text>
<line x1="56" y1="260.00" x2="904" y2="260.00" stroke="#edf2f7" />
<line x1="52" y1="260.00" x2="56" y2="260.00" stroke="#9fb3c8" />
<text x="48.00" y="264.00" font-size="11" font-family="Arial" fill="#52606d" text-anchor="end">392</text>
<line x1="56" y1="158.00" x2="904" y2="158.00" stroke="#edf2f7" />
<line x1="52" y1="158.00" x2="56" y2="158.00" stroke="#9fb3c8" />
<text x="48.00" y="162.00" font-size="11" font-family="Arial" fill="#52606d" text-anchor="end">447</text>
<line x1="56" y1="56.00" x2="904" y2="56.00" stroke="#edf2f7" />
<line x1="52" y1="56.00" x2="56" y2="56.00" stroke="#9fb3c8" />
<text x="48.00" y="60.00" font-size="11" font-family="Arial" fill="#52606d" text-anchor="end">502</text>
<line x1="56.00" y1="464" x2="56.00" y2="468" stroke="#9fb3c8" />
<text x="56.00" y="482.00" font-size="11" font-family="Arial" fill="#52606d" text-anchor="middle">06/24</text>
<line x1="226.25" y1="464" x2="226.25" y2="468" stroke="#9fb3c8" />
<text x="226.25" y="482.00" font-size="11" font-family="Arial" fill="#52606d" text-anchor="middle">09/08</text>
<line x1="396.51" y1="464" x2="396.51" y2="468" stroke="#9fb3c8" />
<text x="396.51" y="482.00" font-size="11" font-family="Arial" fill="#52606d" text-anchor="middle">11/19</text>
<line x1="563.49" y1="464" x2="563.49" y2="468" stroke="#9fb3c8" />
<text x="563.49" y="482.00" font-size="11" font-family="Arial" fill="#52606d" text-anchor="middle">02/04</text>
<line x1="733.75" y1="464" x2="733.75" y2="468" stroke="#9fb3c8" />
<text x="733.75" y="482.00" font-size="11" font-family="Arial" fill="#52606d" text-anchor="middle">04/21</text>
<line x1="904.00" y1="464" x2="904.00" y2="468" stroke="#9fb3c8" />
<text x="904.00" y="482.00" font-size="11" font-family="Arial" fill="#52606d" text-anchor="middle">07/07</text>
<polyline fill="none" stroke="#1f77b4" stroke-width="2" points="56.00,355.64 59.27,379.66 62.55,382.95 65.82,386.94 69.10,398.04 72.37,429.56 75.64,401.78 78.92,402.34 82.19,442.14 85.47,434.95 88.74,438.54 92.02,412.53 95.29,405.76 98.56,399.46 101.84,410.83 105.11,390.59 108.39,394.79 111.66,375.75 114.93,377.91 118.21,371.18 121.48,370.34 124.76,421.02 128.03,401.02 131.31,383.30 134.58,391.46 137.85,395.48 141.13,415.50 144.40,425.99 147.68,413.66 150.95,414.66 154.22,393.86 157.50,389.47 160.77,375.75 164.05,358.31 167.32,354.95 170.59,357.66 173.87,364.73 177.14,374.06 180.42,365.51 183.69,376.38 186.97,386.44 190.24,393.49 193.51,356.49 196.79,344.24 200.06,334.81 203.34,338.66 206.61,345.39 209.88,367.91 213.16,376.29 216.43,367.50 219.71,359.24 222.98,336.36 226.25,344.61 229.53,343.55 232.80,342.03 236.08,302.95 239.35,252.51 242.63,226.29 245.90,204.76 249.17,196.88 252.45,213.63 255.72,196.49 259.00,181.36 262.27,196.90 265.54,165.41 268.82,201.47 272.09,169.85 275.37,164.62 278.64,161.82 281.92,134.41 285.19,178.03 288.46,189.50 291.74,145.96 295.01,183.44 298.29,173.03 301.56,178.88 304.83,219.88 308.11,178.22 311.38,190.60 314.66,179.61 317.93,191.51 321.20,171.88 324.48,156.78 327.75,165.76 331.03,172.51 334.30,153.90 337.58,182.27 340.85,147.50 344.12,132.39 347.40,130.60 350.67,170.41 353.95,139.80 357.22,117.85 360.49,162.67 363.77,129.56 367.04,159.60 370.32,190.08 373.59,160.87 376.86,171.30 380.14,188.07 383.41,241.26 386.69,236.87 389.96,228.38 393.24,242.64 396.51,237.54 399.78,253.83 403.06,261.52 406.33,211.90 409.61,208.89 412.88,195.54 416.15,188.87 419.43,188.92 422.70,190.60 425.98,158.06 429.25,143.58 432.53,142.70 435.80,171.37 439.07,160.98 442.35,149.31 445.62,157.78 448.90,135.34 452.17,104.95 455.44,77.86 458.72,119.91 461.99,89.96 465.27,93.99 468.54,80.00 471.81,85.89 475.09,86.19 478.36,105.17 481.64,134.08 484.91,143.76 488.19,152.52 491.46,174.18 494.73,148.90 498.01,183.68 501.28,186.56 504.56,178.40 507.83,161.28 511.10,153.93 514.38,157.21 517.65,172.08 520.93,173.25 524.20,175.24 527.47,209.17 530.75,186.51 534.02,153.19 537.30,153.75 540.57,179.52 543.85,187.51 547.12,186.47 550.39,214.17 553.67,188.42 556.94,204.41 560.22,204.13 563.49,233.79 566.76,250.15 570.04,224.30 573.31,212.76 576.59,198.09 579.86,192.40 583.14,213.22 586.41,212.54 589.68,225.20 592.96,223.91 596.23,223.19 599.51,222.98 602.78,245.28 606.05,227.52 609.33,212.61 612.60,229.01 615.88,240.29 619.15,238.79 622.42,259.03 625.70,233.92 628.97,234.64 632.25,251.04 635.52,247.41 638.80,246.37 642.07,230.42 645.34,254.24 648.62,261.32 651.89,253.21 655.17,246.32 658.44,258.38 661.71,281.58 664.99,304.53 668.26,280.56 671.54,276.51 674.81,271.08 678.08,296.81 681.36,315.92 684.63,328.10 687.91,297.48 691.18,279.80 694.46,318.23 697.73,332.67 701.00,344.15 704.28,350.47 707.55,346.06 710.83,339.87 714.10,333.42 717.37,311.52 720.65,259.93 723.92,265.60 727.20,243.81 730.47,258.90 733.75,270.21 737.02,268.18 740.29,293.82 743.57,289.02 746.84,284.62 750.12,289.54 753.39,295.53 756.66,279.11 759.94,262.03 763.21,258.88 766.49,264.72 769.76,247.32 773.03,223.04 776.31,192.25 779.58,161.30 782.86,182.77 786.13,160.79 789.41,164.46 792.68,203.61 795.95,226.39 799.23,237.32 802.50,212.87 805.78,211.77 809.05,196.60 812.32,182.51 815.60,169.92 818.87,166.69 822.15,178.42 825.42,215.44 828.69,200.82 831.97,200.90 835.24,210.66 838.52,261.69 841.79,228.32 845.07,251.13 848.34,279.19 851.61,246.54 854.89,233.00 858.16,224.23 861.44,236.30 864.71,251.69 867.98,244.05 871.26,235.57 874.53,279.15 877.81,290.45 881.08,291.22 884.36,282.68 887.63,222.95 890.90,206.66 894.18,197.92 897.45,257.14 900.73,208.20 904.00,239.57" />
<text x="780.00" y="60.00" font-size="14" font-family="Arial" fill="#1f77b4" text-anchor="start">Close</text>
<polyline fill="none" stroke="#2ca02c" stroke-width="2" points="118.21,399.57 121.48,400.30 124.76,402.37 128.03,403.27 131.31,403.09 134.58,402.76 137.85,401.06 141.13,401.74 144.40,402.93 147.68,401.50 150.95,400.49 154.22,398.25 157.50,397.10 160.77,395.60 164.05,393.54 167.32,390.75 170.59,389.10 173.87,387.60 177.14,387.52 180.42,386.90 183.69,387.16 186.97,387.96 190.24,386.58 193.51,384.36 196.79,382.40 200.06,379.57 203.34,376.73 206.61,373.23 209.88,370.32 213.16,368.45 216.43,366.10 219.71,364.36 222.98,361.71 226.25,360.15 229.53,359.41 232.80,358.77 236.08,356.03 239.35,350.42 242.63,343.03 245.90,335.00 249.17,326.02 252.45,317.38 255.72,307.53 259.00,298.77 262.27,291.41 265.54,282.94 268.82,276.08 272.09,267.30 275.37,257.14 278.64,246.41 281.92,234.76 285.19,225.70 288.46,218.35 291.74,208.42 295.01,200.42 298.29,191.97 301.56,185.76 304.83,184.13 308.11,181.73 311.38,181.02 314.66,180.16 317.93,179.05 321.20,177.82 324.48,176.59 327.75,175.03 331.03,175.39 334.30,173.01 337.58,173.63 340.85,172.77 344.12,171.30 347.40,171.11 350.67,170.73 353.95,168.25 357.22,166.84 360.49,165.80 363.77,163.63 367.04,162.66 370.32,161.17 373.59,160.31 376.86,159.34 380.14,159.76 383.41,162.25 386.69,165.50 389.96,169.08 393.24,172.93 396.51,176.18 399.78,181.17 403.06,185.14 406.33,188.36 409.61,192.18 412.88,195.43 416.15,196.35 419.43,198.81 422.70,202.45 425.98,202.22 429.25,202.92 432.53,202.07 435.80,201.14 439.07,201.14 442.35,200.04 445.62,198.53 448.90,193.23 452.17,186.64 455.44,179.11 458.72,172.97 461.99,165.59 465.27,157.60 468.54,148.53 471.81,142.23 475.09,136.09 478.36,131.57 481.64,128.83 484.91,126.57 488.19,124.67 491.46,125.48 494.73,125.74 498.01,127.79 501.28,128.55 504.56,129.42 507.83,130.02 511.10,129.83 514.38,130.92 517.65,134.28 520.93,139.05 524.20,141.81 527.47,147.77 530.75,152.40 534.02,156.06 537.30,159.45 540.57,164.12 543.85,168.24 547.12,170.86 550.39,174.38 553.67,176.17 556.94,177.68 560.22,180.44 563.49,182.95 566.76,186.13 570.04,188.42 573.31,191.00 576.59,193.21 579.86,194.97 583.14,197.02 586.41,198.99 589.68,201.48 592.96,202.22 596.23,204.06 599.51,207.55 602.78,212.12 606.05,214.52 609.33,215.78 612.60,217.90 615.88,219.21 619.15,221.73 622.42,224.46 625.70,225.95 628.97,225.99 632.25,226.04 635.52,227.19 638.80,228.87 642.07,230.49 645.34,233.58 648.62,235.99 651.89,238.02 655.17,239.08 658.44,240.80 661.71,243.72 664.99,247.80 668.26,249.56 671.54,252.01 674.81,254.93 678.08,258.32 681.36,262.10 684.63,266.57 687.91,268.49 691.18,270.79 694.46,274.97 697.73,279.05 701.00,283.88 704.28,289.09 707.55,294.87 710.83,299.15 714.10,302.76 717.37,305.67 720.65,306.35 723.92,306.71 727.20,304.83 730.47,302.54 733.75,302.03 737.02,301.61 740.29,302.75 743.57,302.36 746.84,300.79 750.12,298.86 753.39,298.77 756.66,298.73 759.94,295.92 763.21,292.23 766.49,288.26 769.76,283.10 773.03,276.95 776.31,269.57 779.58,260.97 782.86,254.53 786.13,249.57 789.41,244.51 792.68,242.51 795.95,240.88 799.23,239.23 802.50,236.47 805.78,232.37 809.05,227.75 812.32,222.64 815.60,216.66 818.87,210.22 822.15,205.18 825.42,202.85 828.69,199.95 831.97,196.76 835.24,194.93 838.52,196.86 841.79,198.66 845.07,203.15 848.34,207.97 851.61,212.26 854.89,215.69 858.16,216.72 861.44,217.22 864.71,217.93 867.98,219.49 871.26,220.68 874.53,224.81 877.81,230.21 881.08,236.27 884.36,242.07 887.63,244.30 890.90,243.86 894.18,243.71 897.45,246.53 900.73,246.40 904.00,245.30" />
<text x="780.00" y="82.00" font-size="14" font-family="Arial" fill="#2ca02c" text-anchor="start">MA20</text>
<polyline fill="none" stroke="#ff7f0e" stroke-width="2" points="249.17,370.91 252.45,368.55 255.72,365.49 259.00,362.13 262.27,358.97 265.54,355.09 268.82,351.29 272.09,347.42 275.37,343.46 278.64,338.79 281.92,333.78 285.19,329.44 288.46,325.72 291.74,321.39 295.01,317.79 298.29,313.83 301.56,310.30 304.83,307.38 308.11,304.09 311.38,300.97 314.66,297.78 317.93,294.80 321.20,290.64 324.48,286.57 327.75,282.95 331.03,279.30 334.30,275.27 337.58,271.38 340.85,266.74 344.12,262.06 347.40,257.32 350.67,253.60 353.95,249.44 357.22,245.14 360.49,241.88 363.77,238.12 367.04,234.82 370.32,231.91 373.59,228.36 376.86,225.12 380.14,221.98 383.41,219.56 386.69,216.95 389.96,214.81 393.24,213.12 396.51,211.50 399.78,210.09 403.06,208.69 406.33,206.09 409.61,203.30 412.88,200.43 416.15,197.59 419.43,195.14 422.70,192.57 425.98,189.48 429.25,186.17 432.53,183.50 435.80,182.15 439.07,181.06 442.35,180.13 445.62,179.48 448.90,178.18 452.17,176.65 455.44,174.93 458.72,173.64 461.99,172.39 465.27,170.60 468.54,169.10 471.81,167.79 475.09,166.52 478.36,166.04 481.64,165.30 484.91,164.54 488.19,164.65 491.46,164.50 494.73,164.10 498.01,164.18 501.28,163.62 504.56,163.62 507.83,163.13 511.10,162.71 514.38,162.13 517.65,162.14 520.93,162.41 524.20,162.57 527.47,163.18 530.75,163.73 534.02,163.24 537.30,163.34 540.57,164.13 543.85,165.08 547.12,165.35 550.39,166.59 553.67,167.76 556.94,168.46 560.22,169.70 563.49,170.94 566.76,171.94 570.04,173.00 573.31,173.69 576.59,173.85 579.86,173.04 583.14,172.65 586.41,172.38 589.68,172.09 592.96,171.86 596.23,171.35 599.51,170.71 602.78,171.27 606.05,171.58 609.33,171.86 612.60,172.53 615.88,173.39 619.15,174.19 622.42,175.87 625.70,177.38 628.97,178.91 632.25,180.24 635.52,181.68 638.80,183.30 642.07,184.51 645.34,186.49 648.62,189.09 651.89,192.02 655.17,194.12 658.44,196.93 661.71,200.06 664.99,203.80 668.26,207.04 671.54,210.22 674.81,212.98 678.08,215.69 681.36,218.56 684.63,221.49 687.91,223.54 691.18,225.73 694.46,227.97 697.73,230.40 701.00,233.17 704.28,236.32 707.55,239.52 710.83,242.57 714.10,245.26 717.37,247.56 720.65,248.97 723.92,249.91 727.20,250.87 730.47,252.63 733.75,254.57 737.02,256.05 740.29,257.82 743.57,259.53 746.84,260.70 750.12,262.39 753.39,263.91 756.66,265.16 759.94,265.63 763.21,265.77 766.49,266.45 769.76,267.02 773.03,267.44 776.31,267.44 779.58,266.57 782.86,266.07 786.13,265.00 789.41,264.01 792.68,263.68 795.95,263.74 799.23,263.61 802.50,263.36 805.78,263.35 809.05,262.81 812.32,261.85 815.60,260.70 818.87,259.16 822.15,258.23 825.42,257.91 828.69,257.08 831.97,256.30 835.24,255.71 838.52,256.23 841.79,255.80 845.07,255.63 848.34,256.06 851.61,256.06 854.89,255.64 858.16,254.68 861.44,253.55 864.71,253.07 867.98,252.52 871.26,251.93 874.53,251.64 877.81,251.21 881.08,250.60 884.36,250.35 887.63,249.40 890.90,247.55 894.18,245.30 897.45,243.85 900.73,241.48 904.00,239.70" />
<text x="780.00" y="104.00" font-size="14" font-family="Arial" fill="#ff7f0e" text-anchor="start">MA60</text>
<polyline fill="none" stroke="#d62728" stroke-width="2" points="707.55,249.96 710.83,249.88 714.10,249.65 717.37,249.29 720.65,248.66 723.92,247.99 727.20,247.07 730.47,246.35 733.75,245.69 737.02,244.82 740.29,244.11 743.57,243.37 746.84,242.73 750.12,242.15 753.39,241.63 756.66,240.97 759.94,240.33 763.21,239.65 766.49,239.09 769.76,238.44 773.03,237.70 776.31,236.81 779.58,235.51 782.86,234.42 786.13,233.30 789.41,232.17 792.68,231.21 795.95,230.26 799.23,229.32 802.50,228.32 805.78,227.30 809.05,226.32 812.32,225.28 815.60,224.25 818.87,223.29 822.15,222.41 825.42,221.70 828.69,220.88 831.97,220.01 835.24,219.24 838.52,218.67 841.79,217.88 845.07,217.16 848.34,216.78 851.61,216.29 854.89,215.78 858.16,215.21 861.44,214.66 864.71,214.08 867.98,213.42 871.26,212.76 874.53,212.36 877.81,212.13 881.08,211.86 884.36,211.56 887.63,210.96 890.90,210.48 894.18,210.21 897.45,210.36 900.73,210.38 904.00,210.59" />
<text x="780.00" y="126.00" font-size="14" font-family="Arial" fill="#d62728" text-anchor="start">MA200</text>
</svg>