<svg xmlns="http://www.w3.org/2000/svg" width="960" height="520" viewBox="0 0 960 520"><rect width="100%" height="100%" fill="white" />
<text x="56.00" y="32.00" font-size="20" font-family="Arial" fill="#1f2933" text-anchor="start">TSLA Price and Moving Averages</text>
<line x1="56" y1="464" x2="904" y2="464" stroke="#cbd2d9" />
<line x1="56" y1="56" x2="56" y2="464" stroke="#cbd2d9" />
<text x="16.00" y="38.00" font-size="12" font-family="Arial" fill="#52606d" text-anchor="start">Price</text>
<line x1="56" y1="464.00" x2="904" y2="464.00" stroke="#edf2f7" />
<line x1="52" y1="464.00" x2="56" y2="464.00" stroke="#9fb3c8" />
<text x="48.00" y="468.00" font-size="11" font-family="Arial" fill="#52606d" text-anchor="end">291</text>
<line x1="56" y1="362.00" x2="904" y2="362.00" stroke="#edf2f7" />
<line x1="52" y1="362.00" x2="56" y2="362.00" stroke="#9fb3c8" />
<text x="48.00" y="366.00" font-size="11" font-family="Arial" fill="#52606d" text-anchor="end">344</text>
<line x1="56" y1="260.00" x2="904" y2="260.00" stroke="#edf2f7" />
<line x1="52" y1="260.00" x2="56" y2="260.00" stroke="#9fb3c8" />
<text x="48.00" y="264.00" font-size="11" font-family="Arial" fill="#52606d" text-anchor="end">396</text>
<line x1="56" y1="158.00" x2="904" y2="158.00" stroke="#edf2f7" />
<line x1="52" y1="158.00" x2="56" y2="158.00" stroke="#9fb3c8" />
<text x="48.00" y="162.00" font-size="11" font-family="Arial" fill="#52606d" text-anchor="end">449</text>
<line x1="56" y1="56.00" x2="904" y2="56.00" stroke="#edf2f7" />
<line x1="52" y1="56.00" x2="56" y2="56.00" stroke="#9fb3c8" />
<text x="48.00" y="60.00" font-size="11" font-family="Arial" fill="#52606d" text-anchor="end">501</text>
<line x1="56.00" y1="464" x2="56.00" y2="468" stroke="#9fb3c8" />
<text x="56.00" y="482.00" font-size="11" font-family="Arial" fill="#52606d" text-anchor="middle">07/11</text>
<line x1="226.25" y1="464" x2="226.25" y2="468" stroke="#9fb3c8" />
<text x="226.25" y="482.00" font-size="11" font-family="Arial" fill="#52606d" text-anchor="middle">09/24</text>
<line x1="396.51" y1="464" x2="396.51" y2="468" stroke="#9fb3c8" />
<text x="396.51" y="482.00" font-size="11" font-family="Arial" fill="#52606d" text-anchor="middle">12/08</text>
<line x1="563.49" y1="464" x2="563.49" y2="468" stroke="#9fb3c8" />
<text x="563.49" y="482.00" font-size="11" font-family="Arial" fill="#52606d" text-anchor="middle">02/23</text>
<line x1="733.75" y1="464" x2="733.75" y2="468" stroke="#9fb3c8" />
<text x="733.75" y="482.00" font-size="11" font-family="Arial" fill="#52606d" text-anchor="middle">05/07</text>
<line x1="904.00" y1="464" x2="904.00" y2="468" stroke="#9fb3c8" />
<text x="904.00" y="482.00" font-size="11" font-family="Arial" fill="#52606d" text-anchor="middle">07/23</text>
<polyline fill="none" stroke="#1f77b4" stroke-width="2" points="56.00,420.98 59.27,414.38 62.55,426.29 65.82,405.10 69.10,409.50 72.37,389.58 75.64,391.83 78.92,384.79 82.19,383.92 85.47,436.95 88.74,416.02 92.02,397.48 95.29,406.02 98.56,410.22 101.84,431.17 105.11,442.14 108.39,429.24 111.66,430.30 114.93,408.53 118.21,403.93 121.48,389.58 124.76,371.33 128.03,367.81 131.31,370.65 134.58,378.04 137.85,387.81 141.13,378.86 144.40,390.24 147.68,400.76 150.95,408.14 154.22,369.42 157.50,356.60 160.77,346.74 164.05,350.77 167.32,357.81 170.59,381.37 173.87,390.14 177.14,380.94 180.42,372.30 183.69,348.35 186.97,356.99 190.24,355.88 193.51,354.29 196.79,313.39 200.06,260.61 203.34,233.18 206.61,210.65 209.88,202.40 213.16,219.93 216.43,202.00 219.71,186.16 222.98,202.42 226.25,169.47 229.53,207.21 232.80,174.12 236.08,168.65 239.35,165.71 242.63,137.04 245.90,182.68 249.17,194.68 252.45,149.12 255.72,188.34 259.00,177.44 262.27,183.57 265.54,226.47 268.82,182.87 272.09,195.83 275.37,184.33 278.64,196.78 281.92,176.24 285.19,160.44 288.46,169.84 291.74,176.90 295.01,157.43 298.29,187.11 301.56,150.73 304.83,134.92 308.11,133.05 311.38,174.70 314.66,142.68 317.93,119.70 321.20,166.61 324.48,131.96 327.75,163.40 331.03,195.28 334.30,164.72 337.58,175.64 340.85,193.18 344.12,248.84 347.40,244.25 350.67,235.36 353.95,250.28 357.22,244.95 360.49,261.99 363.77,270.05 367.04,218.12 370.32,214.97 373.59,201.00 376.86,194.02 380.14,194.08 383.41,195.83 386.69,161.78 389.96,146.63 393.24,145.71 396.51,175.71 399.78,164.84 403.06,152.62 406.33,161.49 409.61,138.01 412.88,106.20 416.15,77.86 419.43,121.86 422.70,90.52 425.98,94.74 429.25,80.09 432.53,86.26 435.80,86.57 439.07,106.44 442.35,136.69 445.62,146.82 448.90,155.99 452.17,178.65 455.44,152.19 458.72,188.59 461.99,191.61 465.27,183.07 468.54,165.15 471.81,157.47 475.09,160.89 478.36,176.45 481.64,177.68 484.91,179.76 488.19,215.26 491.46,191.55 494.73,156.69 498.01,157.27 501.28,184.23 504.56,192.60 507.83,191.51 511.10,220.50 514.38,193.55 517.65,210.28 520.93,209.99 524.20,241.02 527.47,258.14 530.75,231.10 534.02,219.02 537.30,203.67 540.57,197.72 543.85,219.51 547.12,218.79 550.39,232.03 553.67,230.69 556.94,229.93 560.22,229.72 563.49,253.05 566.76,234.47 570.04,218.86 573.31,236.02 576.59,247.83 579.86,246.26 583.14,267.44 586.41,241.16 589.68,241.92 592.96,259.08 596.23,255.28 599.51,254.19 602.78,237.50 606.05,262.42 609.33,269.83 612.60,261.35 615.88,254.13 619.15,266.76 622.42,291.04 625.70,315.05 628.97,289.97 632.25,285.73 635.52,280.05 638.80,306.97 642.07,326.97 645.34,339.71 648.62,307.67 651.89,289.17 655.17,329.38 658.44,344.50 661.71,356.50 664.99,363.12 668.26,358.51 671.54,352.03 674.81,345.28 678.08,322.36 681.36,268.38 684.63,274.31 687.91,251.51 691.18,267.31 694.46,279.13 697.73,277.01 701.00,303.84 704.28,298.82 707.55,294.21 710.83,299.37 714.10,305.63 717.37,288.45 720.65,270.57 723.92,267.29 727.20,273.39 730.47,255.18 733.75,229.78 737.02,197.56 740.29,165.17 743.57,187.64 746.84,164.64 750.12,168.48 753.39,209.45 756.66,233.28 759.94,244.72 763.21,219.14 766.49,217.99 769.76,202.11 773.03,187.37 776.31,174.20 779.58,170.81 782.86,183.09 786.13,221.82 789.41,206.53 792.68,206.61 795.95,216.82 799.23,270.22 802.50,235.30 805.78,259.17 809.05,288.53 812.32,254.37 815.60,240.21 818.87,231.02 822.15,243.65 825.42,259.76 828.69,251.76 831.97,242.89 835.24,288.49 838.52,300.32 841.79,301.12 845.07,292.19 848.34,229.68 851.61,212.64 854.89,203.49 858.16,265.46 861.44,214.25 864.71,247.07 867.98,264.27 871.26,239.97 874.53,237.62 877.81,262.91 881.08,260.15 884.36,263.49 887.63,270.11 890.90,289.99 894.18,311.91 897.45,293.70 900.73,303.28 904.00,408.95" />
<text x="780.00" y="60.00" font-size="14" font-family="Arial" fill="#1f77b4" text-anchor="start">Close</text>
<polyline fill="none" stroke="#2ca02c" stroke-width="2" points="118.21,411.92 121.48,410.35 124.76,408.19 128.03,405.27 131.31,403.55 134.58,401.98 137.85,401.89 141.13,401.24 144.40,401.51 147.68,402.35 150.95,400.91 154.22,398.58 157.50,396.54 160.77,393.57 164.05,390.60 167.32,386.93 170.59,383.90 173.87,381.94 177.14,379.47 180.42,377.66 183.69,374.88 186.97,373.25 190.24,372.48 193.51,371.80 196.79,368.94 200.06,363.07 203.34,355.34 206.61,346.93 209.88,337.54 213.16,328.50 216.43,318.19 219.71,309.03 222.98,301.32 226.25,292.45 229.53,285.28 232.80,276.09 236.08,265.46 239.35,254.23 242.63,242.04 245.90,232.56 249.17,224.87 252.45,214.48 255.72,206.10 259.00,197.26 262.27,190.77 265.54,189.06 268.82,186.55 272.09,185.81 275.37,184.90 278.64,183.75 281.92,182.46 285.19,181.17 288.46,179.54 291.74,179.91 295.01,177.42 298.29,178.07 301.56,177.18 304.83,175.64 308.11,175.44 311.38,175.04 314.66,172.44 317.93,170.97 321.20,169.88 324.48,167.61 327.75,166.60 331.03,165.04 334.30,164.13 337.58,163.12 340.85,163.57 344.12,166.17 347.40,169.57 350.67,173.32 353.95,177.34 357.22,180.74 360.49,185.97 363.77,190.12 367.04,193.49 370.32,197.49 373.59,200.89 376.86,201.85 380.14,204.42 383.41,208.23 386.69,207.99 389.96,208.72 393.24,207.84 396.51,206.86 399.78,206.86 403.06,205.71 406.33,204.13 409.61,198.59 412.88,191.68 416.15,183.81 419.43,177.39 422.70,169.67 425.98,161.30 429.25,151.81 432.53,145.21 435.80,138.79 439.07,134.06 442.35,131.20 445.62,128.83 448.90,126.84 452.17,127.69 455.44,127.96 458.72,130.11 461.99,130.90 465.27,131.81 468.54,132.44 471.81,132.24 475.09,133.38 478.36,136.90 481.64,141.89 484.91,144.78 488.19,151.02 491.46,155.86 494.73,159.69 498.01,163.24 501.28,168.12 504.56,172.43 507.83,175.17 511.10,178.86 514.38,180.73 517.65,182.32 520.93,185.21 524.20,187.83 527.47,191.15 530.75,193.56 534.02,196.25 537.30,198.56 540.57,200.40 543.85,202.55 547.12,204.61 550.39,207.22 553.67,207.99 556.94,209.91 560.22,213.56 563.49,218.35 566.76,220.86 570.04,222.18 573.31,224.40 576.59,225.77 579.86,228.40 583.14,231.26 586.41,232.82 589.68,232.87 592.96,232.91 596.23,234.12 599.51,235.88 602.78,237.57 606.05,240.81 609.33,243.32 612.60,245.45 615.88,246.56 619.15,248.36 622.42,251.42 625.70,255.68 628.97,257.53 632.25,260.09 635.52,263.15 638.80,266.70 642.07,270.66 645.34,275.33 648.62,277.34 651.89,279.74 655.17,284.11 658.44,288.39 661.71,293.45 664.99,298.89 668.26,304.94 671.54,309.42 674.81,313.20 678.08,316.25 681.36,316.96 684.63,317.34 687.91,315.36 691.18,312.97 694.46,312.43 697.73,311.99 701.00,313.18 704.28,312.78 707.55,311.14 710.83,309.12 714.10,309.02 717.37,308.98 720.65,306.04 723.92,302.18 727.20,298.03 730.47,292.63 733.75,286.19 737.02,278.47 740.29,269.46 743.57,262.73 746.84,257.54 750.12,252.25 753.39,250.15 756.66,248.45 759.94,246.72 763.21,243.83 766.49,239.54 769.76,234.70 773.03,229.36 776.31,223.10 779.58,216.36 782.86,211.09 786.13,208.65 789.41,205.62 792.68,202.28 795.95,200.36 799.23,202.38 802.50,204.27 805.78,208.97 809.05,214.01 812.32,218.50 815.60,222.09 818.87,223.16 822.15,223.68 825.42,224.44 828.69,226.07 831.97,227.31 835.24,231.63 838.52,237.28 841.79,243.62 845.07,249.69 848.34,252.02 851.61,251.56 854.89,251.41 858.16,254.35 861.44,254.23 864.71,253.07 867.98,254.52 871.26,253.56 874.53,251.01 877.81,251.44 881.08,252.44 884.36,254.06 887.63,255.38 890.90,256.89 894.18,259.90 897.45,262.44 900.73,263.18 904.00,268.61" />
<text x="780.00" y="82.00" font-size="14" font-family="Arial" fill="#2ca02c" text-anchor="start">MA20</text>
<polyline fill="none" stroke="#ff7f0e" stroke-width="2" points="249.17,337.22 252.45,332.69 255.72,328.93 259.00,324.78 262.27,321.09 265.54,318.04 268.82,314.59 272.09,311.32 275.37,307.98 278.64,304.86 281.92,300.52 285.19,296.26 288.46,292.47 291.74,288.65 295.01,284.43 298.29,280.37 301.56,275.51 304.83,270.60 308.11,265.65 311.38,261.75 314.66,257.40 317.93,252.90 321.20,249.49 324.48,245.56 327.75,242.10 331.03,239.06 334.30,235.34 337.58,231.95 340.85,228.67 344.12,226.14 347.40,223.41 350.67,221.17 353.95,219.40 357.22,217.70 360.49,216.22 363.77,214.76 367.04,212.04 370.32,209.12 373.59,206.12 376.86,203.15 380.14,200.58 383.41,197.89 386.69,194.66 389.96,191.20 393.24,188.40 396.51,186.99 399.78,185.85 403.06,184.88 406.33,184.20 409.61,182.83 412.88,181.24 416.15,179.43 419.43,178.09 422.70,176.77 425.98,174.90 429.25,173.33 432.53,171.96 435.80,170.64 439.07,170.13 442.35,169.36 445.62,168.57 448.90,168.68 452.17,168.52 455.44,168.10 458.72,168.18 461.99,167.60 465.27,167.60 468.54,167.09 471.81,166.64 475.09,166.05 478.36,166.05 481.64,166.34 484.91,166.50 488.19,167.14 491.46,167.71 494.73,167.20 498.01,167.31 501.28,168.13 504.56,169.13 507.83,169.41 511.10,170.70 514.38,171.93 517.65,172.66 520.93,173.96 524.20,175.26 527.47,176.30 530.75,177.41 534.02,178.13 537.30,178.31 540.57,177.46 543.85,177.04 547.12,176.77 550.39,176.46 553.67,176.23 556.94,175.69 560.22,175.02 563.49,175.60 566.76,175.93 570.04,176.22 573.31,176.92 576.59,177.82 579.86,178.66 583.14,180.42 586.41,182.00 589.68,183.60 592.96,184.99 596.23,186.50 599.51,188.19 602.78,189.46 606.05,191.53 609.33,194.26 612.60,197.32 615.88,199.52 619.15,202.46 622.42,205.73 625.70,209.64 628.97,213.04 632.25,216.36 635.52,219.25 638.80,222.09 642.07,225.09 645.34,228.16 648.62,230.31 651.89,232.59 655.17,234.94 658.44,237.48 661.71,240.37 664.99,243.67 668.26,247.02 671.54,250.21 674.81,253.02 678.08,255.44 681.36,256.91 684.63,257.90 687.91,258.90 691.18,260.74 694.46,262.77 697.73,264.32 701.00,266.17 704.28,267.96 707.55,269.19 710.83,270.95 714.10,272.54 717.37,273.85 720.65,274.34 723.92,274.49 727.20,275.20 730.47,275.80 733.75,276.24 737.02,276.23 740.29,275.33 743.57,274.81 746.84,273.69 750.12,272.65 753.39,272.31 756.66,272.37 759.94,272.23 763.21,271.97 766.49,271.96 769.76,271.39 773.03,270.38 776.31,269.18 779.58,267.57 782.86,266.61 786.13,266.27 789.41,265.39 792.68,264.58 795.95,263.96 799.23,264.51 802.50,264.05 805.78,263.88 809.05,264.33 812.32,264.33 815.60,263.89 818.87,262.89 822.15,261.70 825.42,261.20 828.69,260.63 831.97,260.01 835.24,259.70 838.52,259.26 841.79,258.62 845.07,258.36 848.34,257.37 851.61,255.42 854.89,253.07 858.16,251.55 861.44,249.07 864.71,247.21 867.98,245.75 871.26,244.00 874.53,242.58 877.81,242.49 881.08,242.26 884.36,242.46 887.63,242.50 890.90,242.68 894.18,243.27 897.45,243.10 900.73,243.17 904.00,245.08" />
<text x="780.00" y="104.00" font-size="14" font-family="Arial" fill="#ff7f0e" text-anchor="start">MA60</text>
<polyline fill="none" stroke="#d62728" stroke-width="2" points="707.55,250.38 710.83,249.77 714.10,249.23 717.37,248.54 720.65,247.87 723.92,247.15 727.20,246.57 730.47,245.89 733.75,245.11 737.02,244.18 740.29,242.82 743.57,241.68 746.84,240.52 750.12,239.33 753.39,238.33 756.66,237.34 759.94,236.35 763.21,235.30 766.49,234.24 769.76,233.21 773.03,232.12 776.31,231.05 779.58,230.04 782.86,229.12 786.13,228.38 789.41,227.52 792.68,226.61 795.95,225.80 799.23,225.20 802.50,224.37 805.78,223.63 809.05,223.23 812.32,222.71 815.60,222.18 818.87,221.58 822.15,221.01 825.42,220.40 828.69,219.71 831.97,219.02 835.24,218.60 838.52,218.36 841.79,218.08 845.07,217.76 848.34,217.14 851.61,216.64 854.89,216.35 858.16,216.51 861.44,216.53 864.71,216.76 867.98,216.98 871.26,217.17 874.53,217.42 877.81,217.73 881.08,218.18 884.36,218.46 887.63,218.94 890.90,219.55 894.18,220.28 897.45,221.06 900.73,221.67 904.00,222.74" />
<text x="780.00" y="126.00" font-size="14" font-family="Arial" fill="#d62728" text-anchor="start">MA200</text>
</svg>