<svg xmlns="http://www.w3.org/2000/svg" width="960" height="520" viewBox="0 0 960 520"><rect width="100%" height="100%" fill="white" />
<text x="56.00" y="32.00" font-size="20" font-family="Arial" fill="#1f2933" text-anchor="start">TSM Price and Moving Averages</text>
<line x1="56" y1="464" x2="904" y2="464" stroke="#cbd2d9" />
<line x1="56" y1="56" x2="56" y2="464" stroke="#cbd2d9" />
<text x="16.00" y="38.00" font-size="12" font-family="Arial" fill="#52606d" text-anchor="start">Price</text>
<line x1="56" y1="464.00" x2="904" y2="464.00" stroke="#edf2f7" />
<line x1="52" y1="464.00" x2="56" y2="464.00" stroke="#9fb3c8" />
<text x="48.00" y="468.00" font-size="11" font-family="Arial" fill="#52606d" text-anchor="end">210</text>
<line x1="56" y1="362.00" x2="904" y2="362.00" stroke="#edf2f7" />
<line x1="52" y1="362.00" x2="56" y2="362.00" stroke="#9fb3c8" />
<text x="48.00" y="366.00" font-size="11" font-family="Arial" fill="#52606d" text-anchor="end">280</text>
<line x1="56" y1="260.00" x2="904" y2="260.00" stroke="#edf2f7" />
<line x1="52" y1="260.00" x2="56" y2="260.00" stroke="#9fb3c8" />
<text x="48.00" y="264.00" font-size="11" font-family="Arial" fill="#52606d" text-anchor="end">351</text>
<line x1="56" y1="158.00" x2="904" y2="158.00" stroke="#edf2f7" />
<line x1="52" y1="158.00" x2="56" y2="158.00" stroke="#9fb3c8" />
<text x="48.00" y="162.00" font-size="11" font-family="Arial" fill="#52606d" text-anchor="end">422</text>
<line x1="56" y1="56.00" x2="904" y2="56.00" stroke="#edf2f7" />
<line x1="52" y1="56.00" x2="56" y2="56.00" stroke="#9fb3c8" />
<text x="48.00" y="60.00" font-size="11" font-family="Arial" fill="#52606d" text-anchor="end">493</text>
<line x1="56.00" y1="464" x2="56.00" y2="468" stroke="#9fb3c8" />
<text x="56.00" y="482.00" font-size="11" font-family="Arial" fill="#52606d" text-anchor="middle">07/08</text>
<line x1="226.25" y1="464" x2="226.25" y2="468" stroke="#9fb3c8" />
<text x="226.25" y="482.00" font-size="11" font-family="Arial" fill="#52606d" text-anchor="middle">09/19</text>
<line x1="396.51" y1="464" x2="396.51" y2="468" stroke="#9fb3c8" />
<text x="396.51" y="482.00" font-size="11" font-family="Arial" fill="#52606d" text-anchor="middle">12/03</text>
<line x1="563.49" y1="464" x2="563.49" y2="468" stroke="#9fb3c8" />
<text x="563.49" y="482.00" font-size="11" font-family="Arial" fill="#52606d" text-anchor="middle">02/18</text>
<line x1="733.75" y1="464" x2="733.75" y2="468" stroke="#9fb3c8" />
<text x="733.75" y="482.00" font-size="11" font-family="Arial" fill="#52606d" text-anchor="middle">05/04</text>
<line x1="904.00" y1="464" x2="904.00" y2="468" stroke="#9fb3c8" />
<text x="904.00" y="482.00" font-size="11" font-family="Arial" fill="#52606d" text-anchor="middle">07/20</text>
<polyline fill="none" stroke="#1f77b4" stroke-width="2" points="56.00,441.39 59.27,435.71 62.55,438.68 65.82,437.77 69.10,440.23 72.37,428.43 75.64,427.56 78.92,416.10 82.19,423.51 85.47,425.72 88.74,431.78 92.02,423.61 95.29,421.80 98.56,416.10 101.84,420.16 105.11,422.18 108.39,419.93 111.66,421.77 114.93,430.91 118.21,425.51 121.48,434.81 124.76,436.38 128.03,420.34 131.31,421.47 134.58,421.10 137.85,417.96 141.13,422.03 144.40,422.65 147.68,425.68 150.95,422.07 154.22,434.49 157.50,440.33 160.77,442.14 164.05,434.07 167.32,430.37 170.59,425.90 173.87,425.09 177.14,426.55 180.42,437.10 183.69,440.63 186.97,436.35 190.24,430.91 193.51,419.22 196.79,413.83 200.06,408.51 203.34,394.94 206.61,397.12 209.88,396.52 213.16,393.60 216.43,391.45 219.71,390.41 222.98,382.04 226.25,387.43 229.53,376.33 232.80,361.92 236.08,364.78 239.35,370.57 242.63,375.29 245.90,375.48 249.17,366.81 252.45,353.68 255.72,354.20 259.00,348.36 262.27,333.76 265.54,345.73 268.82,330.73 272.09,337.36 275.37,364.85 278.64,333.06 281.92,343.00 285.19,330.46 288.46,337.42 291.74,344.23 295.01,340.48 298.29,345.04 301.56,353.09 304.83,350.45 308.11,344.40 311.38,339.69 314.66,335.00 317.93,329.91 321.20,332.59 324.48,336.58 327.75,330.24 331.03,345.70 334.30,346.29 337.58,352.58 340.85,356.50 344.12,343.96 347.40,349.82 350.67,350.61 353.95,362.65 357.22,358.90 360.49,362.92 363.77,368.78 367.04,362.40 370.32,369.37 373.59,372.86 376.86,359.16 380.14,359.10 383.41,351.55 386.69,349.33 389.96,354.81 393.24,348.50 396.51,343.70 399.78,347.30 403.06,344.74 406.33,334.52 409.61,332.31 412.88,322.69 416.15,329.08 419.43,347.45 422.70,353.61 425.98,354.86 429.25,369.07 432.53,358.00 435.80,351.88 439.07,345.67 442.35,340.41 445.62,337.75 448.90,331.96 452.17,334.71 455.44,336.64 458.72,330.45 461.99,307.91 465.27,304.13 468.54,296.70 471.81,309.25 475.09,310.21 478.36,302.15 481.64,290.47 484.91,291.28 488.19,297.16 491.46,276.32 494.73,275.23 498.01,297.09 501.28,298.58 504.56,296.78 507.83,286.03 511.10,289.13 514.38,281.05 517.65,275.37 520.93,279.32 524.20,292.21 527.47,276.72 530.75,284.77 534.02,299.12 537.30,291.97 540.57,265.98 543.85,256.57 547.12,247.25 550.39,229.79 553.67,238.38 556.94,240.87 560.22,243.97 563.49,246.75 566.76,249.43 570.04,234.88 573.31,235.59 576.59,213.07 579.86,210.23 583.14,225.89 586.41,229.08 589.68,236.93 592.96,259.84 596.23,253.66 599.51,258.80 602.78,280.26 606.05,266.20 609.33,268.51 612.60,257.79 615.88,283.39 619.15,281.10 622.42,278.34 625.70,268.70 628.97,277.92 632.25,279.04 635.52,292.77 638.80,279.53 642.07,272.62 645.34,266.15 648.62,297.27 651.89,296.37 655.17,311.09 658.44,280.25 661.71,275.16 664.99,278.68 668.26,274.77 671.54,269.65 674.81,240.05 678.08,240.64 681.36,233.29 684.63,234.78 687.91,219.93 691.18,226.82 694.46,243.72 697.73,233.44 701.00,239.56 704.28,236.92 707.55,209.08 710.83,215.95 714.10,187.48 717.37,183.85 720.65,202.03 723.92,199.89 727.20,196.68 730.47,194.37 733.75,188.70 737.02,199.05 740.29,162.97 743.57,170.67 746.84,174.22 750.12,184.49 753.39,194.93 756.66,191.30 759.94,165.53 763.21,184.76 766.49,196.84 769.76,201.64 773.03,188.69 776.31,180.73 779.58,184.52 782.86,173.30 786.13,158.33 789.41,155.27 792.68,164.48 795.95,139.78 799.23,123.87 802.50,138.25 805.78,126.42 809.05,169.20 812.32,152.48 815.60,150.86 818.87,178.43 822.15,159.30 825.42,155.18 828.69,129.99 831.97,152.44 835.24,143.33 838.52,100.13 841.79,92.13 845.07,137.21 848.34,130.82 851.61,139.23 854.89,143.04 858.16,110.25 861.44,77.86 864.71,125.91 867.98,140.43 871.26,115.02 874.53,142.72 877.81,136.36 881.08,136.39 884.36,140.50 887.63,158.56 890.90,160.28 894.18,161.59 897.45,175.63 900.73,192.02 904.00,186.35" />
<text x="780.00" y="60.00" font-size="14" font-family="Arial" fill="#1f77b4" text-anchor="start">Close</text>
<polyline fill="none" stroke="#2ca02c" stroke-width="2" points="118.21,427.44 121.48,427.11 124.76,427.15 128.03,426.23 131.31,425.41 134.58,424.46 137.85,423.94 141.13,423.66 144.40,423.99 147.68,424.09 150.95,423.91 154.22,424.05 157.50,424.88 160.77,425.90 164.05,426.80 167.32,427.31 170.59,427.50 173.87,427.75 177.14,427.99 180.42,428.30 183.69,429.06 186.97,429.14 190.24,428.86 193.51,428.81 196.79,428.42 200.06,427.79 203.34,426.64 206.61,425.40 209.88,424.09 213.16,422.49 216.43,420.96 219.71,418.75 222.98,415.84 226.25,413.10 229.53,410.22 232.80,406.79 236.08,403.74 239.35,401.01 242.63,398.45 245.90,395.37 249.17,391.68 252.45,387.54 255.72,383.71 259.00,380.16 262.27,376.16 265.54,373.02 268.82,369.81 272.09,366.82 275.37,365.24 278.64,362.21 281.92,359.79 285.19,356.79 288.46,354.56 291.74,352.40 295.01,350.61 298.29,349.76 301.56,349.18 304.83,348.17 308.11,346.63 311.38,344.84 314.66,343.25 317.93,342.06 321.20,340.98 324.48,340.39 327.75,340.22 331.03,340.21 334.30,340.99 337.58,341.75 340.85,341.34 344.12,341.88 347.40,342.22 350.67,343.23 353.95,344.49 357.22,345.22 360.49,346.35 363.77,347.53 367.04,348.00 370.32,348.94 373.59,350.37 376.86,351.34 380.14,352.55 383.41,353.63 386.69,354.46 389.96,355.38 393.24,356.29 396.51,356.19 399.78,356.24 403.06,355.85 406.33,354.75 409.61,354.17 412.88,352.81 416.15,351.73 419.43,350.97 422.70,350.71 425.98,350.31 429.25,350.32 432.53,350.10 435.80,349.23 439.07,347.87 442.35,346.93 445.62,345.86 448.90,344.88 452.17,344.15 455.44,343.24 458.72,342.34 461.99,340.55 465.27,338.39 468.54,335.99 471.81,334.73 475.09,333.62 478.36,332.59 481.64,330.66 484.91,327.86 488.19,325.03 491.46,321.11 494.73,316.41 498.01,313.37 501.28,310.70 504.56,308.26 507.83,305.54 511.10,303.11 514.38,300.56 517.65,297.60 520.93,294.73 524.20,292.82 527.47,291.26 530.75,290.29 534.02,290.41 537.30,289.55 540.57,287.34 543.85,285.06 547.12,282.90 550.39,279.82 553.67,276.88 556.94,275.11 560.22,273.55 563.49,271.03 566.76,268.57 570.04,265.48 573.31,262.96 576.59,259.15 579.86,255.61 583.14,253.14 586.41,250.63 589.68,247.86 592.96,247.02 596.23,245.46 599.51,243.45 602.78,242.86 606.05,242.87 609.33,243.47 612.60,244.00 615.88,246.68 619.15,248.81 622.42,250.69 625.70,251.92 628.97,253.48 632.25,254.96 635.52,257.86 638.80,260.05 642.07,263.03 645.34,265.83 648.62,269.40 651.89,272.76 655.17,276.47 658.44,277.49 661.71,278.56 664.99,279.56 668.26,279.28 671.54,279.45 674.81,278.03 678.08,277.17 681.36,274.67 684.63,272.35 687.91,269.43 691.18,267.34 694.46,265.63 697.73,263.35 701.00,260.69 704.28,258.56 707.55,255.38 710.83,252.87 714.10,247.38 717.37,241.76 720.65,236.30 723.92,232.28 727.20,228.36 730.47,224.15 733.75,219.84 737.02,216.31 740.29,212.46 743.57,208.96 746.84,206.01 750.12,203.49 753.39,202.24 756.66,200.46 759.94,196.56 763.21,194.12 766.49,191.99 769.76,190.22 773.03,189.20 776.31,187.44 779.58,187.29 782.86,186.77 786.13,184.58 789.41,182.35 792.68,180.74 795.95,178.01 799.23,174.77 802.50,171.73 805.78,169.90 809.05,169.83 812.32,168.74 815.60,167.06 818.87,166.23 822.15,164.63 825.42,164.12 828.69,161.38 831.97,159.16 835.24,156.24 838.52,151.81 841.79,147.38 845.07,145.02 848.34,142.89 851.61,141.94 854.89,141.33 858.16,138.62 861.44,135.52 864.71,135.62 867.98,135.73 871.26,135.16 874.53,133.84 877.81,133.03 881.08,132.31 884.36,130.41 887.63,130.37 890.90,130.63 894.18,132.21 897.45,133.37 900.73,135.80 904.00,140.12" />
<text x="780.00" y="82.00" font-size="14" font-family="Arial" fill="#2ca02c" text-anchor="start">MA20</text>
<polyline fill="none" stroke="#ff7f0e" stroke-width="2" points="249.17,416.06 252.45,414.60 255.72,413.24 259.00,411.73 262.27,410.00 265.54,408.42 268.82,406.80 272.09,405.29 275.37,404.44 278.64,402.93 281.92,401.55 285.19,399.86 288.46,398.43 291.74,397.13 295.01,395.87 298.29,394.62 301.56,393.47 304.83,392.31 308.11,391.02 311.38,389.50 314.66,387.99 317.93,386.25 321.20,384.52 324.48,383.12 327.75,381.60 331.03,380.34 334.30,379.15 337.58,377.99 340.85,376.89 344.12,375.53 347.40,374.32 350.67,372.92 353.95,371.63 357.22,370.24 360.49,369.06 363.77,368.03 367.04,366.97 370.32,366.04 373.59,365.15 376.86,363.85 380.14,362.49 383.41,361.08 386.69,359.72 389.96,358.64 393.24,357.55 396.51,356.47 399.78,355.68 403.06,354.81 406.33,353.77 409.61,352.75 412.88,351.61 416.15,350.58 419.43,350.01 422.70,349.44 425.98,349.09 429.25,349.21 432.53,349.09 435.80,348.78 439.07,348.29 442.35,347.70 445.62,347.22 448.90,346.86 452.17,346.53 455.44,346.34 458.72,346.28 461.99,345.65 465.27,345.21 468.54,344.53 471.81,343.60 475.09,343.22 478.36,342.54 481.64,341.88 484.91,341.11 488.19,340.32 491.46,339.25 494.73,338.09 498.01,337.16 501.28,336.29 504.56,335.50 507.83,334.60 511.10,333.84 514.38,333.02 517.65,332.07 520.93,331.12 524.20,330.48 527.47,329.33 530.75,328.31 534.02,327.42 537.30,326.34 540.57,325.04 543.85,323.49 547.12,321.76 550.39,319.55 553.67,317.54 556.94,315.51 560.22,313.43 563.49,311.50 566.76,309.50 570.04,307.20 573.31,305.14 576.59,302.71 579.86,300.35 583.14,298.30 586.41,296.20 589.68,294.34 592.96,292.94 596.23,291.38 599.51,289.95 602.78,289.05 606.05,287.94 609.33,287.04 612.60,285.85 615.88,284.78 619.15,283.58 622.42,282.30 625.70,280.63 628.97,279.29 632.25,278.08 635.52,277.20 638.80,276.18 642.07,275.10 645.34,274.00 648.62,273.38 651.89,272.71 655.17,272.38 658.44,271.92 661.71,271.44 664.99,271.14 668.26,270.56 671.54,269.89 674.81,268.85 678.08,268.02 681.36,267.06 684.63,266.02 687.91,265.08 691.18,264.27 694.46,263.38 697.73,262.29 701.00,261.34 704.28,260.52 707.55,259.19 710.83,258.10 714.10,256.64 717.37,255.05 720.65,253.54 723.92,252.26 727.20,250.80 730.47,249.05 733.75,247.33 737.02,246.21 740.29,244.65 743.57,243.38 746.84,242.45 750.12,241.55 753.39,240.79 756.66,239.91 759.94,238.56 763.21,237.48 766.49,236.84 769.76,236.28 773.03,235.87 776.31,235.38 779.58,234.69 782.86,233.76 786.13,232.45 789.41,230.71 792.68,229.22 795.95,227.24 799.23,224.63 802.50,222.50 805.78,220.13 809.05,218.65 812.32,216.47 815.60,214.30 818.87,212.64 822.15,210.81 825.42,208.77 828.69,206.28 831.97,203.94 835.24,201.67 838.52,198.80 841.79,195.90 845.07,193.23 848.34,190.47 851.61,187.61 854.89,185.32 858.16,182.57 861.44,179.22 864.71,176.74 867.98,174.59 871.26,172.51 874.53,170.87 877.81,169.26 881.08,167.62 884.36,166.30 887.63,165.16 890.90,163.77 894.18,162.57 897.45,161.50 900.73,160.76 904.00,160.38" />
<text x="780.00" y="104.00" font-size="14" font-family="Arial" fill="#ff7f0e" text-anchor="start">MA60</text>
<polyline fill="none" stroke="#d62728" stroke-width="2" points="707.55,337.05 710.83,335.92 714.10,334.68 717.37,333.41 720.65,332.23 723.92,331.03 727.20,329.87 730.47,328.70 733.75,327.57 737.02,326.44 740.29,325.13 743.57,323.82 746.84,322.58 750.12,321.39 753.39,320.29 756.66,319.14 759.94,317.86 763.21,316.68 766.49,315.56 769.76,314.41 773.03,313.23 776.31,311.96 779.58,310.70 782.86,309.46 786.13,308.15 789.41,306.82 792.68,305.55 795.95,304.14 799.23,302.64 802.50,301.21 805.78,299.73 809.05,298.40 812.32,296.96 815.60,295.51 818.87,294.23 822.15,292.87 825.42,291.52 828.69,290.04 831.97,288.67 835.24,287.20 838.52,285.50 841.79,283.78 845.07,282.31 848.34,280.87 851.61,279.50 854.89,278.17 858.16,276.75 861.44,275.15 864.71,273.80 867.98,272.53 871.26,271.15 874.53,269.91 877.81,268.68 881.08,267.43 884.36,266.25 887.63,265.23 890.90,264.21 894.18,263.16 897.45,262.17 900.73,261.25 904.00,260.35" />
<text x="780.00" y="126.00" font-size="14" font-family="Arial" fill="#d62728" text-anchor="start">MA200</text>
</svg>