<svg xmlns="http://www.w3.org/2000/svg" width="960" height="520" viewBox="0 0 960 520"><rect width="100%" height="100%" fill="white" />
<text x="56.00" y="32.00" font-size="20" font-family="Arial" fill="#1f2933" text-anchor="start">VOO Price and Moving Averages</text>
<line x1="56" y1="464" x2="904" y2="464" stroke="#cbd2d9" />
<line x1="56" y1="56" x2="56" y2="464" stroke="#cbd2d9" />
<text x="16.00" y="38.00" font-size="12" font-family="Arial" fill="#52606d" text-anchor="start">Price</text>
<line x1="56" y1="464.00" x2="904" y2="464.00" stroke="#edf2f7" />
<line x1="52" y1="464.00" x2="56" y2="464.00" stroke="#9fb3c8" />
<text x="48.00" y="468.00" font-size="11" font-family="Arial" fill="#52606d" text-anchor="end">543</text>
<line x1="56" y1="362.00" x2="904" y2="362.00" stroke="#edf2f7" />
<line x1="52" y1="362.00" x2="56" y2="362.00" stroke="#9fb3c8" />
<text x="48.00" y="366.00" font-size="11" font-family="Arial" fill="#52606d" text-anchor="end">583</text>
<line x1="56" y1="260.00" x2="904" y2="260.00" stroke="#edf2f7" />
<line x1="52" y1="260.00" x2="56" y2="260.00" stroke="#9fb3c8" />
<text x="48.00" y="264.00" font-size="11" font-family="Arial" fill="#52606d" text-anchor="end">624</text>
<line x1="56" y1="158.00" x2="904" y2="158.00" stroke="#edf2f7" />
<line x1="52" y1="158.00" x2="56" y2="158.00" stroke="#9fb3c8" />
<text x="48.00" y="162.00" font-size="11" font-family="Arial" fill="#52606d" text-anchor="end">664</text>
<line x1="56" y1="56.00" x2="904" y2="56.00" stroke="#edf2f7" />
<line x1="52" y1="56.00" x2="56" y2="56.00" stroke="#9fb3c8" />
<text x="48.00" y="60.00" font-size="11" font-family="Arial" fill="#52606d" text-anchor="end">705</text>
<line x1="56.00" y1="464" x2="56.00" y2="468" stroke="#9fb3c8" />
<text x="56.00" y="482.00" font-size="11" font-family="Arial" fill="#52606d" text-anchor="middle">06/24</text>
<line x1="226.25" y1="464" x2="226.25" y2="468" stroke="#9fb3c8" />
<text x="226.25" y="482.00" font-size="11" font-family="Arial" fill="#52606d" text-anchor="middle">09/08</text>
<line x1="396.51" y1="464" x2="396.51" y2="468" stroke="#9fb3c8" />
<text x="396.51" y="482.00" font-size="11" font-family="Arial" fill="#52606d" text-anchor="middle">11/19</text>
<line x1="563.49" y1="464" x2="563.49" y2="468" stroke="#9fb3c8" />
<text x="563.49" y="482.00" font-size="11" font-family="Arial" fill="#52606d" text-anchor="middle">02/04</text>
<line x1="733.75" y1="464" x2="733.75" y2="468" stroke="#9fb3c8" />
<text x="733.75" y="482.00" font-size="11" font-family="Arial" fill="#52606d" text-anchor="middle">04/21</text>
<line x1="904.00" y1="464" x2="904.00" y2="468" stroke="#9fb3c8" />
<text x="904.00" y="482.00" font-size="11" font-family="Arial" fill="#52606d" text-anchor="middle">07/07</text>
<polyline fill="none" stroke="#1f77b4" stroke-width="2" points="56.00,442.14 59.27,441.45 62.55,430.49 65.82,423.56 69.10,416.54 72.37,417.19 75.64,410.93 78.92,398.69 82.19,410.14 85.47,411.08 88.74,402.69 92.02,398.52 95.29,403.66 98.56,400.85 101.84,407.03 105.11,402.37 108.39,393.83 111.66,394.47 114.93,391.92 118.21,391.92 121.48,379.73 124.76,378.73 128.03,372.97 131.31,373.32 134.58,377.09 137.85,378.86 141.13,384.29 144.40,408.05 147.68,386.48 150.95,393.41 154.22,382.76 157.50,383.62 160.77,372.58 164.05,375.56 167.32,360.06 170.59,354.95 173.87,354.93 177.14,358.10 180.42,358.62 183.69,366.64 186.97,370.49 190.24,376.23 193.51,354.03 196.79,360.26 200.06,354.40 203.34,351.03 206.61,345.81 209.88,354.35 213.16,365.20 216.43,357.73 219.71,345.64 222.98,349.69 226.25,345.86 229.53,342.26 232.80,337.97 236.08,325.83 239.35,326.15 242.63,318.33 245.90,320.32 249.17,322.06 252.45,314.98 255.72,307.93 259.00,300.53 262.27,308.53 265.54,313.59 268.82,320.81 272.09,311.95 275.37,307.69 278.64,302.09 281.92,296.64 285.19,294.95 288.46,294.82 291.74,289.59 295.01,295.07 298.29,286.18 301.56,290.34 304.83,331.65 308.11,308.99 311.38,311.13 314.66,304.46 317.93,314.52 321.20,306.13 324.48,290.17 327.75,290.37 331.03,298.13 334.30,289.50 337.58,276.77 340.85,258.23 344.12,254.02 347.40,253.37 350.67,270.08 353.95,265.59 357.22,262.53 360.49,280.66 363.77,276.00 367.04,292.48 370.32,290.86 373.59,267.01 376.86,263.43 380.14,262.66 383.41,288.13 386.69,288.52 389.96,302.94 393.24,315.49 396.51,310.01 399.78,333.01 403.06,318.15 406.33,295.72 409.61,281.48 412.88,270.80 416.15,262.18 419.43,269.38 422.70,266.74 425.98,261.29 429.25,259.97 432.53,257.03 435.80,261.69 439.07,262.96 442.35,252.85 445.62,248.99 448.90,266.02 452.17,268.28 455.44,272.64 458.72,289.72 461.99,278.12 465.27,264.30 468.54,254.46 471.81,247.12 475.09,241.85 478.36,241.70 481.64,247.29 484.91,249.49 488.19,260.95 491.46,258.03 494.73,247.64 498.01,238.28 501.28,243.38 504.56,243.65 507.83,233.04 511.10,230.47 514.38,233.74 517.65,241.45 520.93,237.26 524.20,238.58 527.47,270.89 530.75,253.06 534.02,244.87 537.30,244.22 540.57,236.08 543.85,229.57 547.12,229.82 550.39,233.14 553.67,238.26 556.94,229.62 560.22,243.42 563.49,251.51 566.76,271.01 570.04,240.70 573.31,233.24 576.59,237.71 579.86,237.93 583.14,262.55 586.41,261.55 589.68,258.80 592.96,250.91 596.23,254.96 599.51,243.75 602.78,259.70 606.05,248.27 609.33,234.99 612.60,243.92 615.88,251.19 619.15,250.59 622.42,264.47 625.70,253.34 628.97,261.75 632.25,282.67 635.52,269.27 638.80,271.96 642.07,273.68 645.34,297.48 648.62,305.99 651.89,290.76 655.17,286.52 658.44,307.77 661.71,311.83 664.99,333.83 668.26,317.63 671.54,322.75 674.81,314.56 678.08,341.37 681.36,366.64 684.63,371.72 687.91,330.10 691.18,318.20 694.46,316.47 697.73,309.76 701.00,308.83 704.28,270.51 707.55,261.29 710.83,262.35 714.10,247.02 717.37,227.91 720.65,215.13 723.92,211.60 727.20,191.77 730.47,194.87 733.75,205.62 737.02,188.96 740.29,195.57 743.57,182.65 746.84,179.94 750.12,188.06 753.39,188.11 756.66,172.23 759.94,167.37 763.21,173.38 766.49,160.41 769.76,136.97 773.03,142.28 776.31,128.50 779.58,124.79 782.86,126.92 786.13,117.56 789.41,104.23 792.68,124.99 795.95,126.32 799.23,137.14 802.50,119.66 805.78,116.48 809.05,109.69 812.32,98.52 815.60,98.65 818.87,88.75 822.15,84.80 825.42,80.26 828.69,77.86 831.97,90.13 835.24,83.37 838.52,128.60 841.79,124.39 845.07,129.35 848.34,156.03 851.61,128.02 854.89,118.71 858.16,88.95 861.44,99.17 864.71,120.06 867.98,103.28 871.26,108.31 874.53,132.76 877.81,134.39 881.08,134.34 884.36,143.10 887.63,116.09 890.90,101.53 894.18,104.92 897.45,106.47 900.73,91.96 904.00,100.85" />
<text x="780.00" y="60.00" font-size="14" font-family="Arial" fill="#1f77b4" text-anchor="start">Close</text>
<polyline fill="none" stroke="#2ca02c" stroke-width="2" points="118.21,409.47 121.48,406.35 124.76,403.22 128.03,400.34 131.31,397.83 134.58,395.86 137.85,393.94 141.13,392.61 144.40,393.08 147.68,391.89 150.95,391.01 154.22,390.01 157.50,389.27 160.77,387.71 164.05,386.45 167.32,384.10 170.59,381.73 173.87,379.78 177.14,377.97 180.42,376.30 183.69,375.04 186.97,374.58 190.24,374.45 193.51,373.50 196.79,372.85 200.06,371.72 203.34,370.32 206.61,368.40 209.88,365.72 213.16,364.65 216.43,362.87 219.71,361.01 222.98,359.32 226.25,357.98 229.53,356.32 232.80,355.21 236.08,353.75 239.35,352.32 242.63,350.33 245.90,348.41 249.17,346.18 252.45,343.41 255.72,339.99 259.00,337.32 262.27,334.73 265.54,332.69 268.82,331.18 272.09,329.49 275.37,327.15 278.64,324.00 281.92,320.94 285.19,318.41 288.46,315.67 291.74,312.85 295.01,310.49 298.29,307.90 301.56,306.13 304.83,306.40 308.11,305.94 311.38,305.48 314.66,304.60 317.93,304.57 321.20,304.48 324.48,303.97 327.75,303.06 331.03,302.28 334.30,300.72 337.58,298.96 340.85,296.49 344.12,294.08 347.40,291.92 350.67,290.68 353.95,289.21 357.22,287.86 360.49,287.14 363.77,286.63 367.04,286.74 370.32,284.70 373.59,282.60 376.86,280.22 380.14,278.13 383.41,276.81 386.69,275.93 389.96,276.56 393.24,277.82 396.51,278.41 399.78,280.59 403.06,282.66 406.33,284.53 409.61,285.91 412.88,286.78 416.15,286.38 419.43,286.57 422.70,286.78 425.98,285.81 429.25,285.01 432.53,283.24 435.80,281.78 439.07,281.58 442.35,281.05 445.62,280.37 448.90,279.26 452.17,278.25 455.44,276.73 458.72,275.44 461.99,273.85 465.27,270.41 468.54,267.23 471.81,264.80 475.09,262.82 478.36,261.36 481.64,260.62 484.91,259.63 488.19,259.34 491.46,259.17 494.73,258.56 498.01,257.62 501.28,256.70 504.56,255.74 507.83,254.75 511.10,253.82 514.38,252.21 517.65,250.87 520.93,249.10 524.20,246.54 527.47,246.18 530.75,245.62 534.02,245.14 537.30,244.99 540.57,244.70 543.85,244.10 547.12,243.22 550.39,242.41 553.67,241.27 556.94,239.85 560.22,239.64 563.49,240.30 566.76,241.68 570.04,241.54 573.31,241.55 576.59,241.91 579.86,242.12 583.14,243.17 586.41,244.39 589.68,245.40 592.96,244.40 596.23,244.49 599.51,244.44 602.78,245.21 606.05,245.82 609.33,246.09 612.60,246.80 615.88,247.70 619.15,248.32 622.42,250.06 625.70,250.56 628.97,251.07 632.25,251.65 635.52,253.08 638.80,255.01 642.07,256.81 645.34,259.79 648.62,261.96 651.89,263.42 655.17,264.81 658.44,267.65 661.71,270.50 664.99,275.00 668.26,277.90 671.54,281.62 674.81,285.60 678.08,290.47 681.36,296.24 684.63,302.30 687.91,305.58 691.18,308.82 694.46,311.56 697.73,312.91 701.00,314.89 704.28,314.82 707.55,314.20 710.83,312.44 714.10,309.49 717.37,306.35 720.65,302.78 723.92,297.97 727.20,291.97 730.47,285.02 733.75,279.42 737.02,272.73 740.29,266.78 743.57,258.85 746.84,249.51 750.12,240.33 753.39,233.23 756.66,225.93 759.94,218.48 763.21,211.66 766.49,204.24 769.76,197.56 773.03,191.61 776.31,184.92 779.58,178.81 782.86,173.76 786.13,168.88 789.41,163.51 792.68,160.17 795.95,156.74 799.23,153.32 802.50,149.85 805.78,145.90 809.05,142.25 812.32,138.18 815.60,133.71 818.87,128.74 822.15,124.37 825.42,120.01 828.69,115.24 831.97,111.72 835.24,109.04 838.52,108.36 841.79,108.16 845.07,108.38 848.34,109.84 851.61,110.36 854.89,111.09 858.16,109.28 861.44,107.93 864.71,107.07 867.98,106.25 871.26,105.84 874.53,107.00 877.81,108.79 881.08,110.58 884.36,113.29 887.63,114.86 890.90,115.92 894.18,117.27 897.45,118.09 900.73,118.52 904.00,117.13" />
<text x="780.00" y="82.00" font-size="14" font-family="Arial" fill="#2ca02c" text-anchor="start">MA20</text>
<polyline fill="none" stroke="#ff7f0e" stroke-width="2" points="249.17,376.90 252.45,374.78 255.72,372.55 259.00,370.39 262.27,368.47 265.54,366.75 268.82,365.15 272.09,363.50 275.37,361.98 278.64,360.18 281.92,358.27 285.19,356.48 288.46,354.75 291.74,352.85 295.01,351.09 298.29,349.07 301.56,347.20 304.83,346.17 308.11,344.74 311.38,343.40 314.66,341.94 317.93,340.85 321.20,339.64 324.48,338.26 327.75,336.88 331.03,335.56 334.30,334.07 337.58,332.28 340.85,329.79 344.12,327.58 347.40,325.24 350.67,323.37 353.95,321.40 357.22,319.56 360.49,317.98 363.77,316.58 367.04,315.54 370.32,314.47 373.59,312.95 376.86,311.37 380.14,309.64 383.41,308.26 386.69,306.80 389.96,305.95 393.24,305.20 396.51,304.46 399.78,304.16 403.06,303.70 406.33,302.72 409.61,301.33 412.88,299.88 416.15,298.49 419.43,297.15 422.70,295.83 425.98,294.48 429.25,293.18 432.53,292.04 435.80,290.96 439.07,290.04 442.35,288.91 445.62,287.70 448.90,286.88 452.17,286.22 455.44,285.75 458.72,285.44 461.99,284.85 465.27,283.91 468.54,282.95 471.81,281.94 475.09,280.94 478.36,280.02 481.64,279.23 484.91,278.47 488.19,277.99 491.46,277.38 494.73,276.73 498.01,275.87 501.28,274.39 504.56,273.31 507.83,272.00 511.10,270.77 514.38,269.42 517.65,268.35 520.93,267.46 524.20,266.60 527.47,266.15 530.75,265.54 534.02,265.01 537.30,264.78 540.57,264.48 543.85,264.08 547.12,263.41 550.39,262.87 553.67,262.46 556.94,261.61 560.22,261.07 563.49,260.39 566.76,260.06 570.04,259.62 573.31,259.11 576.59,258.70 579.86,257.86 583.14,257.43 586.41,256.74 589.68,255.79 592.96,254.81 596.23,253.51 599.51,252.27 602.78,251.67 606.05,251.11 609.33,250.52 612.60,250.21 615.88,249.91 619.15,249.64 622.42,249.69 625.70,249.58 628.97,249.66 632.25,250.01 635.52,250.12 638.80,250.44 642.07,250.85 645.34,251.37 648.62,252.00 651.89,252.30 655.17,252.25 658.44,252.74 661.71,253.54 664.99,254.86 668.26,256.03 671.54,257.38 674.81,258.60 678.08,260.16 681.36,262.12 684.63,263.96 687.91,265.16 691.18,266.34 694.46,267.64 697.73,268.75 701.00,269.84 704.28,270.46 707.55,270.97 710.83,271.45 714.10,271.54 717.37,271.39 720.65,271.00 723.92,270.01 727.20,268.99 730.47,268.15 733.75,267.51 737.02,266.72 740.29,266.16 743.57,265.37 746.84,264.49 750.12,263.65 753.39,262.96 756.66,261.77 759.94,260.37 763.21,258.74 766.49,257.40 769.76,255.80 773.03,254.21 776.31,252.38 779.58,250.09 782.86,247.84 786.13,245.49 789.41,243.05 792.68,240.88 795.95,238.92 799.23,236.88 802.50,234.74 805.78,232.76 809.05,230.52 812.32,227.98 815.60,225.45 818.87,222.52 822.15,219.71 825.42,216.68 828.69,213.27 831.97,210.28 835.24,207.14 838.52,204.72 841.79,201.84 845.07,198.89 848.34,196.65 851.61,194.01 854.89,190.86 858.16,187.14 861.44,183.23 864.71,179.94 867.98,176.28 871.26,172.84 874.53,169.37 877.81,165.50 881.08,161.54 884.36,158.42 887.63,155.05 890.90,151.47 894.18,148.06 897.45,144.68 900.73,141.71 904.00,139.03" />
<text x="780.00" y="104.00" font-size="14" font-family="Arial" fill="#ff7f0e" text-anchor="start">MA60</text>
<polyline fill="none" stroke="#d62728" stroke-width="2" points="707.55,306.05 710.83,305.15 714.10,304.18 717.37,303.17 720.65,302.13 723.92,301.10 727.20,299.97 730.47,298.89 733.75,297.93 737.02,296.82 740.29,295.75 743.57,294.65 746.84,293.55 750.12,292.47 753.39,291.41 756.66,290.24 759.94,289.06 763.21,287.96 766.49,286.79 769.76,285.51 773.03,284.27 776.31,283.01 779.58,281.74 782.86,280.51 786.13,279.23 789.41,277.87 792.68,276.60 795.95,275.31 799.23,273.95 802.50,272.62 805.78,271.23 809.05,269.87 812.32,268.44 815.60,267.07 818.87,265.64 822.15,264.26 825.42,262.89 828.69,261.50 831.97,260.16 835.24,258.79 838.52,257.60 841.79,256.37 845.07,255.13 848.34,254.14 851.61,252.98 854.89,251.80 858.16,250.49 861.44,249.26 864.71,248.09 867.98,246.78 871.26,245.53 874.53,244.47 877.81,243.39 881.08,242.33 884.36,241.34 887.63,240.23 890.90,239.11 894.18,238.00 897.45,236.94 900.73,235.80 904.00,234.69" />
<text x="780.00" y="126.00" font-size="14" font-family="Arial" fill="#d62728" text-anchor="start">MA200</text>
</svg>