<svg xmlns="http://www.w3.org/2000/svg" width="960" height="520" viewBox="0 0 960 520"><rect width="100%" height="100%" fill="white" />
<text x="56.00" y="32.00" font-size="20" font-family="Arial" fill="#1f2933" text-anchor="start">VT Price and Moving Averages</text>
<line x1="56" y1="464" x2="904" y2="464" stroke="#cbd2d9" />
<line x1="56" y1="56" x2="56" y2="464" stroke="#cbd2d9" />
<text x="16.00" y="38.00" font-size="12" font-family="Arial" fill="#52606d" text-anchor="start">Price</text>
<line x1="56" y1="464.00" x2="904" y2="464.00" stroke="#edf2f7" />
<line x1="52" y1="464.00" x2="56" y2="464.00" stroke="#9fb3c8" />
<text x="48.00" y="468.00" font-size="11" font-family="Arial" fill="#52606d" text-anchor="end">124</text>
<line x1="56" y1="362.00" x2="904" y2="362.00" stroke="#edf2f7" />
<line x1="52" y1="362.00" x2="56" y2="362.00" stroke="#9fb3c8" />
<text x="48.00" y="366.00" font-size="11" font-family="Arial" fill="#52606d" text-anchor="end">133</text>
<line x1="56" y1="260.00" x2="904" y2="260.00" stroke="#edf2f7" />
<line x1="52" y1="260.00" x2="56" y2="260.00" stroke="#9fb3c8" />
<text x="48.00" y="264.00" font-size="11" font-family="Arial" fill="#52606d" text-anchor="end">142</text>
<line x1="56" y1="158.00" x2="904" y2="158.00" stroke="#edf2f7" />
<line x1="52" y1="158.00" x2="56" y2="158.00" stroke="#9fb3c8" />
<text x="48.00" y="162.00" font-size="11" font-family="Arial" fill="#52606d" text-anchor="end">152</text>
<line x1="56" y1="56.00" x2="904" y2="56.00" stroke="#edf2f7" />
<line x1="52" y1="56.00" x2="56" y2="56.00" stroke="#9fb3c8" />
<text x="48.00" y="60.00" font-size="11" font-family="Arial" fill="#52606d" text-anchor="end">161</text>
<line x1="56.00" y1="464" x2="56.00" y2="468" stroke="#9fb3c8" />
<text x="56.00" y="482.00" font-size="11" font-family="Arial" fill="#52606d" text-anchor="middle">07/07</text>
<line x1="226.25" y1="464" x2="226.25" y2="468" stroke="#9fb3c8" />
<text x="226.25" y="482.00" font-size="11" font-family="Arial" fill="#52606d" text-anchor="middle">09/18</text>
<line x1="396.51" y1="464" x2="396.51" y2="468" stroke="#9fb3c8" />
<text x="396.51" y="482.00" font-size="11" font-family="Arial" fill="#52606d" text-anchor="middle">12/02</text>
<line x1="563.49" y1="464" x2="563.49" y2="468" stroke="#9fb3c8" />
<text x="563.49" y="482.00" font-size="11" font-family="Arial" fill="#52606d" text-anchor="middle">02/17</text>
<line x1="733.75" y1="464" x2="733.75" y2="468" stroke="#9fb3c8" />
<text x="733.75" y="482.00" font-size="11" font-family="Arial" fill="#52606d" text-anchor="middle">05/01</text>
<line x1="904.00" y1="464" x2="904.00" y2="468" stroke="#9fb3c8" />
<text x="904.00" y="482.00" font-size="11" font-family="Arial" fill="#52606d" text-anchor="middle">07/17</text>
<polyline fill="none" stroke="#1f77b4" stroke-width="2" points="56.00,439.95 59.27,436.98 62.55,428.52 65.82,425.88 69.10,433.02 72.37,430.50 75.64,437.75 78.92,432.14 82.19,424.89 85.47,426.10 88.74,422.58 92.02,418.63 95.29,402.15 98.56,405.99 101.84,402.92 105.11,410.17 108.39,412.80 111.66,417.86 114.93,425.44 118.21,442.14 121.48,422.36 124.76,425.22 128.03,415.88 131.31,413.24 134.58,404.78 137.85,408.63 141.13,391.38 144.40,384.02 147.68,387.53 150.95,387.53 154.22,386.76 157.50,393.47 160.77,395.33 164.05,400.61 167.32,375.78 170.59,385.45 173.87,381.60 177.14,380.94 180.42,375.12 183.69,383.25 186.97,393.80 190.24,388.41 193.51,377.97 196.79,376.54 200.06,368.52 203.34,367.09 206.61,363.91 209.88,349.18 213.16,352.15 216.43,343.69 219.71,344.24 222.98,346.44 226.25,339.41 229.53,337.33 232.80,331.16 236.08,336.89 239.35,343.73 242.63,352.22 245.90,344.06 249.17,338.32 252.45,333.69 255.72,325.87 259.00,323.66 262.27,319.58 265.54,314.07 268.82,323.55 272.09,315.28 275.37,323.33 278.64,362.80 281.92,338.99 285.19,339.76 288.46,331.27 291.74,335.35 295.01,330.61 298.29,315.50 301.56,319.47 304.83,326.09 308.11,316.05 311.38,306.35 314.66,290.91 317.93,289.81 321.20,291.90 324.48,305.69 327.75,302.93 331.03,301.06 334.30,320.57 337.58,312.19 340.85,325.98 344.12,322.34 347.40,300.95 350.67,296.76 353.95,293.01 357.22,317.26 360.49,317.82 363.77,334.69 367.04,346.04 370.32,344.50 373.59,367.54 376.86,351.89 380.14,333.69 383.41,319.58 386.69,307.01 389.96,299.62 393.24,307.01 396.51,304.14 399.78,297.75 403.06,295.32 406.33,292.24 409.61,296.98 412.88,298.74 416.15,285.51 419.43,281.21 422.70,295.98 425.98,295.98 429.25,301.94 432.53,316.16 435.80,304.58 439.07,291.52 442.35,282.19 445.62,274.74 448.90,270.85 452.17,269.30 455.44,274.74 458.72,275.08 461.99,285.30 465.27,273.74 468.54,260.40 471.81,251.07 475.09,257.74 478.36,256.63 481.64,246.07 484.91,238.84 488.19,244.84 491.46,245.96 494.73,242.29 498.01,242.29 501.28,269.85 504.56,251.29 507.83,242.40 511.10,239.29 514.38,232.17 517.65,218.73 520.93,221.50 524.20,222.39 527.47,236.51 530.75,228.73 534.02,234.73 537.30,240.06 540.57,259.63 543.85,225.28 547.12,211.83 550.39,212.83 553.67,208.39 556.94,230.84 560.22,226.62 563.49,227.17 566.76,219.17 570.04,222.84 573.31,208.72 576.59,223.17 579.86,211.50 583.14,198.05 586.41,203.72 589.68,209.94 592.96,219.84 596.23,252.18 599.51,238.62 602.78,257.40 606.05,275.63 609.33,261.07 612.60,261.29 615.88,263.29 619.15,290.97 622.42,302.42 625.70,280.52 628.97,274.63 632.25,299.08 635.52,302.08 638.80,334.42 642.07,309.02 645.34,316.82 648.62,302.67 651.89,333.09 655.17,353.36 658.44,358.15 661.71,312.14 664.99,296.88 668.26,300.45 671.54,292.65 674.81,291.98 678.08,242.40 681.36,238.28 684.63,237.95 687.91,222.13 691.18,203.30 694.46,197.40 697.73,195.50 701.00,172.66 704.28,176.67 707.55,195.84 710.83,180.91 714.10,191.49 717.37,178.23 720.65,178.46 723.92,188.04 727.20,193.83 730.47,168.65 733.75,165.98 737.02,175.78 740.29,158.40 743.57,125.65 746.84,140.58 750.12,124.31 753.39,122.75 756.66,133.56 759.94,121.86 763.21,114.96 766.49,142.81 769.76,140.69 773.03,152.72 776.31,130.44 779.58,123.98 782.86,119.97 786.13,99.80 789.41,102.26 792.68,94.35 795.95,91.56 799.23,86.21 802.50,77.86 805.78,93.45 809.05,86.88 812.32,141.02 815.60,132.11 818.87,134.12 822.15,160.63 825.42,119.52 828.69,111.95 831.97,84.88 835.24,93.01 838.52,110.61 841.79,90.34 845.07,91.46 848.34,127.57 851.61,128.35 854.89,121.76 858.16,131.82 861.44,110.80 864.71,98.28 867.98,107.56 871.26,107.00 874.53,88.66 877.81,105.10 881.08,111.02 884.36,97.72 887.63,90.68 890.90,111.02 894.18,100.18 897.45,94.48 900.73,107.45 904.00,122.54" />
<text x="780.00" y="60.00" font-size="14" font-family="Arial" fill="#1f77b4" text-anchor="start">Close</text>
<polyline fill="none" stroke="#2ca02c" stroke-width="2" points="118.21,423.82 121.48,422.94 124.76,422.35 128.03,421.72 131.31,421.09 134.58,419.68 137.85,418.58 141.13,416.27 144.40,413.86 147.68,411.99 150.95,410.06 154.22,408.27 157.50,407.01 160.77,406.67 164.05,406.40 167.32,405.05 170.59,403.81 173.87,402.25 177.14,400.41 180.42,397.89 183.69,394.94 186.97,393.52 190.24,391.68 193.51,389.78 196.79,387.94 200.06,386.13 203.34,384.06 206.61,382.68 209.88,380.94 213.16,379.17 216.43,376.98 219.71,374.85 222.98,372.50 226.25,369.70 229.53,366.54 232.80,364.31 236.08,361.88 239.35,359.99 242.63,358.55 245.90,357.00 249.17,354.75 252.45,351.75 255.72,348.62 259.00,345.91 262.27,343.06 265.54,340.33 268.82,338.16 272.09,335.73 275.37,334.43 278.64,334.97 281.92,334.73 285.19,334.51 288.46,333.75 291.74,333.54 295.01,333.21 298.29,332.43 301.56,331.55 304.83,330.67 308.11,328.86 311.38,326.98 314.66,324.61 317.93,322.41 321.20,320.72 324.48,319.82 327.75,318.98 331.03,318.33 334.30,318.19 337.58,318.03 340.85,318.16 344.12,316.14 347.40,314.24 350.67,312.09 353.95,310.17 357.22,309.27 360.49,308.63 363.77,309.59 367.04,310.92 370.32,311.84 373.59,314.41 376.86,316.69 380.14,318.83 383.41,320.32 386.69,321.07 389.96,320.77 393.24,320.98 396.51,321.13 399.78,319.99 403.06,319.14 406.33,317.46 409.61,316.19 412.88,316.08 416.15,315.52 419.43,314.93 422.70,313.86 425.98,312.77 429.25,311.13 432.53,309.64 435.80,307.64 439.07,303.84 442.35,300.36 445.62,297.41 448.90,294.97 452.17,293.09 455.44,291.84 458.72,290.25 461.99,289.31 465.27,288.11 468.54,286.36 471.81,284.30 475.09,282.34 478.36,280.23 481.64,278.26 484.91,276.14 488.19,273.59 491.46,271.08 494.73,268.10 498.01,264.41 501.28,262.67 504.56,260.66 507.83,258.67 511.10,256.90 514.38,254.96 517.65,252.44 520.93,249.77 524.20,247.14 527.47,244.70 530.75,242.45 534.02,241.17 537.30,240.62 540.57,240.71 543.85,239.14 547.12,237.43 550.39,236.13 553.67,234.31 556.94,233.55 560.22,232.77 563.49,232.01 566.76,229.48 570.04,228.06 573.31,226.37 576.59,225.57 579.86,224.53 583.14,223.50 586.41,222.61 589.68,221.99 592.96,221.15 596.23,222.33 599.51,222.52 602.78,223.39 606.05,224.19 609.33,225.98 612.60,228.45 615.88,230.97 619.15,235.10 622.42,238.68 625.70,241.38 628.97,243.75 632.25,247.75 635.52,251.71 638.80,257.99 642.07,262.29 645.34,267.55 648.62,272.78 651.89,279.25 655.17,286.42 658.44,293.34 661.71,296.34 664.99,299.25 668.26,301.40 671.54,302.25 674.81,303.80 678.08,302.85 681.36,301.60 684.63,298.95 687.91,294.94 691.18,291.08 694.46,287.21 697.73,282.03 701.00,275.56 704.28,267.68 707.55,262.02 710.83,255.22 714.10,249.66 717.37,241.92 720.65,233.17 723.92,224.67 727.20,218.75 730.47,212.34 733.75,205.62 737.02,199.77 740.29,193.10 743.57,187.26 746.84,182.37 750.12,176.69 753.39,171.72 756.66,168.24 759.94,164.46 763.21,160.43 766.49,158.94 769.76,157.14 773.03,154.98 776.31,152.46 779.58,149.08 782.86,146.17 786.13,142.24 789.41,137.95 792.68,132.98 795.95,129.12 799.23,125.13 802.50,120.24 805.78,116.99 809.05,115.05 812.32,115.07 815.60,115.46 818.87,116.03 822.15,117.38 825.42,117.27 828.69,117.12 831.97,114.22 835.24,111.84 838.52,109.73 841.79,107.73 845.07,106.10 848.34,106.48 851.61,107.91 854.89,108.88 858.16,110.76 861.44,111.72 864.71,112.32 867.98,113.81 871.26,114.48 874.53,114.57 877.81,112.78 881.08,111.72 884.36,109.90 887.63,106.40 890.90,105.98 894.18,105.39 897.45,105.87 900.73,106.59 904.00,107.19" />
<text x="780.00" y="82.00" font-size="14" font-family="Arial" fill="#2ca02c" text-anchor="start">MA20</text>
<polyline fill="none" stroke="#ff7f0e" stroke-width="2" points="249.17,391.17 252.45,389.40 255.72,387.55 259.00,385.80 262.27,384.03 265.54,382.05 268.82,380.27 272.09,378.22 275.37,376.41 278.64,375.38 281.92,373.92 285.19,372.54 288.46,371.09 291.74,369.97 295.01,368.72 298.29,367.26 301.56,365.75 304.83,364.30 308.11,362.61 311.38,360.62 314.66,358.10 317.93,355.89 321.20,353.67 324.48,351.83 327.75,350.00 331.03,348.27 334.30,346.80 337.58,345.48 340.85,344.51 344.12,343.43 347.40,341.98 350.67,340.48 353.95,338.81 357.22,337.51 360.49,336.13 363.77,335.44 367.04,334.79 370.32,334.17 373.59,333.94 376.86,333.56 380.14,332.73 383.41,331.49 386.69,330.14 389.96,328.83 393.24,327.67 396.51,326.60 399.78,325.44 403.06,324.30 406.33,323.35 409.61,322.43 412.88,321.68 416.15,320.70 419.43,319.62 422.70,318.89 425.98,318.20 429.25,317.72 432.53,317.37 435.80,316.72 439.07,315.71 442.35,314.68 445.62,313.62 448.90,312.57 452.17,311.63 455.44,310.81 458.72,310.07 461.99,309.59 465.27,308.76 468.54,307.85 471.81,306.64 475.09,304.89 478.36,303.52 481.64,301.96 484.91,300.42 488.19,298.91 491.46,297.50 494.73,296.28 498.01,294.99 501.28,294.05 504.56,292.97 507.83,291.91 511.10,291.05 514.38,290.09 517.65,288.87 520.93,287.46 524.20,286.12 527.47,285.05 530.75,283.51 534.02,282.22 537.30,280.79 540.57,279.75 543.85,278.49 547.12,277.07 550.39,275.73 553.67,273.92 556.94,272.47 560.22,270.67 563.49,268.69 566.76,266.60 570.04,264.19 573.31,261.80 576.59,259.96 579.86,258.16 583.14,256.34 586.41,254.74 589.68,253.12 592.96,251.72 596.23,250.96 599.51,250.02 602.78,249.43 606.05,249.08 609.33,248.45 612.60,248.05 615.88,247.75 619.15,247.67 622.42,247.77 625.70,247.42 628.97,246.72 632.25,246.63 635.52,246.81 638.80,247.68 642.07,248.25 645.34,249.02 648.62,249.57 651.89,250.54 655.17,251.85 658.44,253.06 661.71,253.70 664.99,254.31 668.26,255.13 671.54,255.72 674.81,256.31 678.08,256.24 681.36,256.24 684.63,256.12 687.91,255.72 691.18,255.07 694.46,254.33 697.73,253.09 701.00,251.78 704.28,250.68 707.55,249.96 710.83,249.10 714.10,248.65 717.37,247.93 720.65,247.19 723.92,246.39 727.20,245.80 730.47,244.70 733.75,243.47 737.02,242.07 740.29,240.96 743.57,239.52 746.84,238.32 750.12,236.91 753.39,235.11 756.66,233.56 759.94,231.81 763.21,230.07 766.49,228.74 769.76,227.60 773.03,226.43 776.31,225.08 779.58,223.84 782.86,222.45 786.13,220.61 789.41,218.65 792.68,216.02 795.95,213.57 799.23,210.72 802.50,207.42 805.78,204.63 809.05,201.72 812.32,199.68 815.60,197.03 818.87,194.23 822.15,192.23 825.42,189.65 828.69,186.53 831.97,182.91 835.24,178.88 838.52,175.58 841.79,171.80 845.07,168.28 848.34,164.86 851.61,161.11 854.89,157.17 858.16,154.16 861.44,151.06 864.71,147.69 867.98,144.61 871.26,141.52 874.53,138.96 877.81,136.74 881.08,134.63 884.36,132.55 887.63,130.67 890.90,129.23 894.18,127.65 897.45,126.34 900.73,125.19 904.00,123.97" />
<text x="780.00" y="104.00" font-size="14" font-family="Arial" fill="#ff7f0e" text-anchor="start">MA60</text>
<polyline fill="none" stroke="#d62728" stroke-width="2" points="707.55,312.11 710.83,310.82 714.10,309.59 717.37,308.34 720.65,307.10 723.92,305.88 727.20,304.69 730.47,303.35 733.75,302.02 737.02,300.77 740.29,299.43 743.57,297.95 746.84,296.56 750.12,295.17 753.39,293.75 756.66,292.41 759.94,290.97 763.21,289.48 766.49,288.10 769.76,286.68 773.03,285.23 776.31,283.77 779.58,282.26 782.86,280.78 786.13,279.22 789.41,277.70 792.68,276.13 795.95,274.63 799.23,273.14 802.50,271.60 805.78,270.13 809.05,268.63 812.32,267.36 815.60,266.05 818.87,264.72 822.15,263.64 825.42,262.31 828.69,260.96 831.97,259.48 835.24,258.07 838.52,256.71 841.79,255.19 845.07,253.71 848.34,252.45 851.61,251.21 854.89,249.98 858.16,248.80 861.44,247.54 864.71,246.28 867.98,245.06 871.26,243.88 874.53,242.60 877.81,241.39 881.08,240.25 884.36,239.05 887.63,237.85 890.90,236.72 894.18,235.50 897.45,234.21 900.73,233.03 904.00,231.95" />
<text x="780.00" y="126.00" font-size="14" font-family="Arial" fill="#d62728" text-anchor="start">MA200</text>
</svg>