<svg xmlns="http://www.w3.org/2000/svg" width="960" height="520" viewBox="0 0 960 520"><rect width="100%" height="100%" fill="white" />
<text x="56.00" y="32.00" font-size="20" font-family="Arial" fill="#1f2933" text-anchor="start">世芯-KY(3661) Price and Moving Averages</text>
<line x1="56" y1="464" x2="904" y2="464" stroke="#cbd2d9" />
<line x1="56" y1="56" x2="56" y2="464" stroke="#cbd2d9" />
<text x="16.00" y="38.00" font-size="12" font-family="Arial" fill="#52606d" text-anchor="start">Price</text>
<line x1="56" y1="464.00" x2="904" y2="464.00" stroke="#edf2f7" />
<line x1="52" y1="464.00" x2="56" y2="464.00" stroke="#9fb3c8" />
<text x="48.00" y="468.00" font-size="11" font-family="Arial" fill="#52606d" text-anchor="end">2,312</text>
<line x1="56" y1="362.00" x2="904" y2="362.00" stroke="#edf2f7" />
<line x1="52" y1="362.00" x2="56" y2="362.00" stroke="#9fb3c8" />
<text x="48.00" y="366.00" font-size="11" font-family="Arial" fill="#52606d" text-anchor="end">3,121</text>
<line x1="56" y1="260.00" x2="904" y2="260.00" stroke="#edf2f7" />
<line x1="52" y1="260.00" x2="56" y2="260.00" stroke="#9fb3c8" />
<text x="48.00" y="264.00" font-size="11" font-family="Arial" fill="#52606d" text-anchor="end">3,930</text>
<line x1="56" y1="158.00" x2="904" y2="158.00" stroke="#edf2f7" />
<line x1="52" y1="158.00" x2="56" y2="158.00" stroke="#9fb3c8" />
<text x="48.00" y="162.00" font-size="11" font-family="Arial" fill="#52606d" text-anchor="end">4,739</text>
<line x1="56" y1="56.00" x2="904" y2="56.00" stroke="#edf2f7" />
<line x1="52" y1="56.00" x2="56" y2="56.00" stroke="#9fb3c8" />
<text x="48.00" y="60.00" font-size="11" font-family="Arial" fill="#52606d" text-anchor="end">5,548</text>
<line x1="56.00" y1="464" x2="56.00" y2="468" stroke="#9fb3c8" />
<text x="56.00" y="482.00" font-size="11" font-family="Arial" fill="#52606d" text-anchor="middle">06/17</text>
<line x1="226.25" y1="464" x2="226.25" y2="468" stroke="#9fb3c8" />
<text x="226.25" y="482.00" font-size="11" font-family="Arial" fill="#52606d" text-anchor="middle">08/29</text>
<line x1="396.51" y1="464" x2="396.51" y2="468" stroke="#9fb3c8" />
<text x="396.51" y="482.00" font-size="11" font-family="Arial" fill="#52606d" text-anchor="middle">11/17</text>
<line x1="563.49" y1="464" x2="563.49" y2="468" stroke="#9fb3c8" />
<text x="563.49" y="482.00" font-size="11" font-family="Arial" fill="#52606d" text-anchor="middle">01/29</text>
<line x1="733.75" y1="464" x2="733.75" y2="468" stroke="#9fb3c8" />
<text x="733.75" y="482.00" font-size="11" font-family="Arial" fill="#52606d" text-anchor="middle">04/27</text>
<line x1="904.00" y1="464" x2="904.00" y2="468" stroke="#9fb3c8" />
<text x="904.00" y="482.00" font-size="11" font-family="Arial" fill="#52606d" text-anchor="middle">07/10</text>
<polyline fill="none" stroke="#1f77b4" stroke-width="2" points="56.00,403.88 59.27,405.12 62.55,397.01 65.82,405.75 69.10,402.00 72.37,409.49 75.64,395.76 78.92,395.76 82.19,380.78 85.47,368.91 88.74,357.67 92.02,357.05 95.29,358.92 98.56,357.05 101.84,353.30 105.11,353.93 108.39,335.20 111.66,323.34 114.93,327.08 118.21,342.07 121.48,334.57 124.76,305.85 128.03,286.50 131.31,264.65 134.58,283.38 137.85,290.87 141.13,277.76 144.40,259.03 147.68,270.27 150.95,270.89 154.22,279.01 157.50,287.12 160.77,270.27 164.05,286.50 167.32,287.12 170.59,292.12 173.87,285.25 177.14,275.89 180.42,267.15 183.69,246.54 186.97,240.92 190.24,224.69 193.51,217.82 196.79,227.19 200.06,251.54 203.34,298.36 206.61,282.75 209.88,294.62 213.16,269.02 216.43,258.41 219.71,245.92 222.98,255.91 226.25,249.04 229.53,266.52 232.80,270.71 236.08,253.70 239.35,270.08 242.63,254.96 245.90,254.33 249.17,261.89 252.45,258.74 255.72,260.63 259.00,277.65 262.27,285.84 265.54,291.51 268.82,281.43 272.09,286.47 275.37,282.69 278.64,281.43 281.92,288.99 285.19,325.55 288.46,330.59 291.74,342.56 295.01,318.61 298.29,327.44 301.56,341.30 304.83,338.15 308.11,319.24 311.38,321.13 314.66,312.31 317.93,330.59 321.20,367.77 324.48,367.14 327.75,365.25 331.03,366.51 334.30,347.61 337.58,332.48 340.85,349.50 344.12,358.32 347.40,369.03 350.67,369.03 353.95,345.71 357.22,332.48 360.49,314.83 363.77,320.50 367.04,321.13 370.32,334.37 373.59,292.77 376.86,306.01 380.14,287.10 383.41,297.18 386.69,311.68 389.96,311.05 393.24,312.94 396.51,300.34 399.78,345.71 403.06,336.89 406.33,367.77 409.61,378.49 412.88,381.01 416.15,383.53 419.43,363.36 422.70,341.30 425.98,338.78 429.25,340.67 432.53,324.29 435.80,353.28 439.07,355.80 442.35,357.69 445.62,362.10 448.90,344.45 452.17,330.59 455.44,340.04 458.72,349.50 461.99,355.80 465.27,375.34 468.54,352.02 471.81,355.80 475.09,350.13 478.36,348.87 481.64,349.50 484.91,354.54 488.19,350.13 491.46,328.07 494.73,316.09 498.01,312.94 501.28,297.18 504.56,295.29 507.83,284.58 511.10,291.51 514.38,301.60 517.65,305.38 520.93,297.82 524.20,292.14 527.47,319.24 530.75,336.89 534.02,334.37 537.30,322.39 540.57,327.44 543.85,346.97 547.12,342.56 550.39,323.03 553.67,311.68 556.94,323.03 560.22,330.59 563.49,343.19 566.76,361.47 570.04,359.58 573.31,336.89 576.59,328.70 579.86,346.34 583.14,362.73 586.41,341.30 589.68,339.41 592.96,329.33 596.23,335.63 599.51,323.03 602.78,316.72 606.05,315.46 609.33,321.76 612.60,332.48 615.88,362.10 619.15,343.19 622.42,338.15 625.70,377.86 628.97,369.66 632.25,331.22 635.52,337.52 638.80,353.28 642.07,361.47 645.34,353.28 648.62,339.41 651.89,349.50 655.17,329.96 658.44,353.28 661.71,363.36 664.99,358.32 668.26,369.03 671.54,372.18 674.81,408.74 678.08,442.14 681.36,411.26 684.63,414.41 687.91,414.41 691.18,394.87 694.46,390.46 697.73,374.08 701.00,365.88 704.28,352.02 707.55,350.76 710.83,317.35 714.10,312.31 717.37,298.45 720.65,253.07 723.92,242.98 727.20,253.70 730.47,224.08 733.75,231.01 737.02,251.18 740.29,250.55 743.57,234.16 746.84,219.66 750.12,232.27 753.39,179.96 756.66,150.97 759.94,138.99 763.21,77.86 766.49,86.05 769.76,152.86 773.03,146.55 776.31,174.92 779.58,176.81 782.86,196.97 786.13,175.55 789.41,137.10 792.68,138.36 795.95,137.73 799.23,170.50 802.50,188.15 805.78,213.36 809.05,198.87 812.32,143.40 815.60,178.70 818.87,176.18 822.15,208.32 825.42,215.25 828.69,229.75 831.97,219.66 835.24,246.13 838.52,243.61 841.79,237.94 845.07,219.66 848.34,211.47 851.61,210.84 854.89,203.28 858.16,210.21 861.44,203.91 864.71,209.58 867.98,222.18 871.26,267.56 874.53,253.07 877.81,228.49 881.08,194.45 884.36,138.36 887.63,169.24 890.90,224.08 894.18,246.76 897.45,242.98 900.73,224.71 904.00,224.71" />
<text x="780.00" y="60.00" font-size="14" font-family="Arial" fill="#1f77b4" text-anchor="start">Close</text>
<polyline fill="none" stroke="#2ca02c" stroke-width="2" points="118.21,371.50 121.48,368.04 124.76,363.08 128.03,357.55 131.31,350.49 134.58,344.56 137.85,338.63 141.13,332.73 144.40,325.90 147.68,320.37 150.95,315.47 154.22,311.54 157.50,308.04 160.77,303.61 164.05,300.08 167.32,296.77 170.59,293.68 173.87,291.18 177.14,288.81 180.42,285.81 183.69,281.04 186.97,276.35 190.24,272.30 193.51,268.86 196.79,266.99 200.06,265.40 203.34,265.77 206.61,266.02 209.88,267.80 213.16,267.74 216.43,267.11 219.71,265.46 222.98,263.90 226.25,262.84 229.53,261.84 232.80,261.02 236.08,259.10 239.35,258.34 242.63,257.29 245.90,256.65 249.17,257.42 252.45,258.31 255.72,260.11 259.00,263.10 262.27,266.03 265.54,268.03 268.82,267.18 272.09,267.37 275.37,266.77 278.64,267.39 281.92,268.92 285.19,272.90 288.46,276.64 291.74,281.31 295.01,283.92 298.29,286.75 301.56,291.13 304.83,294.54 308.11,297.75 311.38,301.09 314.66,303.61 317.93,307.21 321.20,312.56 324.48,317.04 327.75,321.01 331.03,324.76 334.30,328.07 337.58,330.37 340.85,333.71 344.12,337.55 347.40,341.55 350.67,343.73 353.95,344.49 357.22,343.98 360.49,343.79 363.77,343.45 367.04,342.44 370.32,342.25 373.59,340.92 376.86,340.17 380.14,338.91 383.41,337.24 386.69,334.43 389.96,331.63 393.24,329.01 396.51,325.70 399.78,325.61 403.06,325.83 406.33,326.74 409.61,327.75 412.88,328.35 416.15,329.08 419.43,329.96 422.70,330.40 425.98,331.60 429.25,332.61 432.53,332.76 435.80,333.71 439.07,336.86 442.35,339.44 445.62,343.19 448.90,345.56 452.17,346.50 455.44,347.95 458.72,349.78 461.99,352.55 465.27,354.03 468.54,354.79 471.81,354.19 475.09,352.77 478.36,351.17 481.64,349.46 484.91,349.02 488.19,349.46 491.46,348.93 494.73,347.70 498.01,347.13 501.28,344.33 504.56,341.30 507.83,337.65 511.10,334.12 514.38,331.97 517.65,330.71 520.93,328.60 524.20,325.74 527.47,323.91 530.75,321.99 534.02,321.10 537.30,319.43 540.57,318.30 543.85,318.20 547.12,317.86 550.39,316.28 553.67,314.36 556.94,314.11 560.22,314.83 563.49,316.34 566.76,319.56 570.04,322.77 573.31,325.39 576.59,327.25 579.86,329.49 583.14,332.35 586.41,334.53 589.68,336.89 592.96,337.39 596.23,337.33 599.51,336.76 602.78,336.48 606.05,335.88 609.33,334.62 612.60,334.12 615.88,336.07 619.15,337.65 622.42,338.40 625.70,340.77 628.97,342.09 632.25,340.58 635.52,339.47 638.80,340.29 642.07,341.93 645.34,342.28 648.62,341.11 651.89,341.52 655.17,341.05 658.44,342.25 661.71,343.63 664.99,345.40 668.26,348.01 671.54,350.85 674.81,355.20 678.08,360.68 681.36,363.14 684.63,366.70 687.91,370.51 691.18,371.37 694.46,372.41 697.73,374.55 701.00,375.97 704.28,375.90 707.55,375.37 710.83,373.57 714.10,372.22 717.37,369.66 720.65,365.82 723.92,360.30 727.20,354.82 730.47,348.11 733.75,341.21 737.02,335.16 740.29,327.25 743.57,316.85 746.84,307.27 750.12,298.16 753.39,286.44 756.66,274.24 759.94,261.67 763.21,246.86 766.49,232.87 769.76,222.91 773.03,212.70 776.31,205.58 779.58,198.80 782.86,193.73 786.13,189.85 789.41,184.56 792.68,178.79 795.95,174.47 799.23,171.45 802.50,168.30 805.78,166.44 809.05,164.67 812.32,160.86 815.60,158.18 818.87,157.99 822.15,160.86 825.42,164.67 828.69,172.27 831.97,178.95 835.24,183.61 838.52,188.47 841.79,191.62 845.07,193.76 848.34,194.49 851.61,196.25 854.89,199.56 858.16,203.15 861.44,206.46 864.71,208.41 867.98,210.12 871.26,212.83 874.53,215.54 877.81,219.79 881.08,220.58 884.36,218.69 887.63,216.73 890.90,217.17 894.18,218.03 897.45,219.19 900.73,218.12 904.00,217.17" />
<text x="780.00" y="82.00" font-size="14" font-family="Arial" fill="#2ca02c" text-anchor="start">MA20</text>
<polyline fill="none" stroke="#ff7f0e" stroke-width="2" points="249.17,303.32 252.45,300.90 255.72,298.49 259.00,296.50 262.27,294.51 265.54,292.66 268.82,290.53 272.09,288.71 275.37,286.82 278.64,285.17 281.92,283.84 285.19,283.30 288.46,282.86 291.74,282.59 295.01,281.95 298.29,281.51 301.56,281.30 304.83,281.35 308.11,281.28 311.38,281.19 314.66,280.69 317.93,280.62 321.20,281.66 324.48,283.00 327.75,284.68 331.03,286.06 334.30,287.01 337.58,287.92 340.85,289.43 344.12,290.89 347.40,292.53 350.67,294.03 353.95,295.01 357.22,296.04 360.49,296.52 363.77,297.07 367.04,297.56 370.32,298.37 373.59,298.66 376.86,299.30 380.14,299.98 383.41,300.92 386.69,302.37 389.96,303.92 393.24,305.35 396.51,306.16 399.78,306.95 403.06,307.86 406.33,309.07 409.61,310.90 412.88,312.94 416.15,315.24 419.43,317.03 422.70,318.56 425.98,319.77 429.25,320.93 432.53,322.11 435.80,323.50 439.07,325.18 442.35,326.90 445.62,328.57 448.90,330.00 452.17,331.17 455.44,332.21 458.72,333.27 461.99,334.34 465.27,335.90 468.54,337.00 471.81,338.21 475.09,339.36 478.36,340.36 481.64,340.76 484.91,341.16 488.19,341.28 491.46,341.44 494.73,341.25 498.01,340.78 501.28,340.09 504.56,339.70 507.83,339.09 511.10,338.74 514.38,338.26 517.65,337.22 520.93,336.06 524.20,334.84 527.47,334.05 530.75,333.88 534.02,333.91 537.30,333.46 540.57,332.94 543.85,332.57 547.12,332.13 550.39,331.75 553.67,331.41 556.94,331.54 560.22,331.71 563.49,332.08 566.76,332.53 570.04,333.64 573.31,334.16 576.59,334.85 579.86,335.67 583.14,336.52 586.41,337.03 589.68,337.47 592.96,337.95 596.23,337.78 599.51,337.55 602.78,336.70 606.05,335.65 609.33,334.66 612.60,333.81 615.88,333.79 619.15,333.82 622.42,333.81 625.70,334.43 628.97,335.19 632.25,334.82 635.52,334.52 638.80,334.44 642.07,334.43 645.34,334.58 648.62,334.73 651.89,334.88 655.17,334.56 658.44,334.52 661.71,334.32 664.99,334.42 668.26,334.64 671.54,335.01 674.81,336.01 678.08,337.55 681.36,338.50 684.63,339.57 687.91,341.01 691.18,342.32 694.46,343.61 697.73,344.89 701.00,346.07 704.28,347.20 707.55,348.18 710.83,348.45 714.10,348.56 717.37,348.57 720.65,347.92 723.92,346.65 727.20,345.26 730.47,343.42 733.75,341.90 737.02,340.63 740.29,339.02 743.57,337.22 746.84,335.49 750.12,334.17 753.39,331.79 756.66,328.79 759.94,325.39 763.21,320.66 766.49,316.10 769.76,313.04 773.03,310.00 776.31,307.14 779.58,304.04 782.86,301.64 786.13,298.91 789.41,295.70 792.68,292.42 795.95,289.33 799.23,286.89 802.50,284.77 805.78,282.96 809.05,280.74 812.32,277.09 815.60,274.35 818.87,271.65 822.15,268.82 825.42,266.25 828.69,264.56 831.97,262.59 835.24,260.81 838.52,258.84 841.79,256.92 845.07,254.93 848.34,252.63 851.61,250.64 854.89,248.14 858.16,245.59 861.44,243.01 864.71,240.36 867.98,237.86 871.26,235.50 874.53,232.35 877.81,229.31 881.08,225.64 884.36,221.04 887.63,217.28 890.90,214.51 894.18,212.38 897.45,210.34 900.73,208.21 904.00,206.11" />
<text x="780.00" y="104.00" font-size="14" font-family="Arial" fill="#ff7f0e" text-anchor="start">MA60</text>
<polyline fill="none" stroke="#d62728" stroke-width="2" points="707.55,327.43 710.83,327.00 714.10,326.54 717.37,326.04 720.65,325.28 723.92,324.49 727.20,323.71 730.47,322.85 733.75,322.02 737.02,321.38 740.29,320.79 743.57,320.17 746.84,319.48 750.12,318.85 753.39,317.96 756.66,316.95 759.94,315.88 763.21,314.59 766.49,313.40 769.76,312.53 773.03,311.55 776.31,310.76 779.58,310.11 782.86,309.66 786.13,309.22 789.41,308.49 792.68,307.72 795.95,307.02 799.23,306.58 802.50,306.17 805.78,305.88 809.05,305.48 812.32,304.76 815.60,304.30 818.87,303.75 822.15,303.36 825.42,302.97 828.69,302.70 831.97,302.42 835.24,302.31 838.52,302.30 841.79,302.28 845.07,302.26 848.34,302.22 851.61,302.14 854.89,301.90 858.16,301.46 861.44,301.07 864.71,300.64 867.98,300.41 871.26,300.45 874.53,300.49 877.81,300.35 881.08,300.08 884.36,299.44 887.63,298.93 890.90,298.78 894.18,298.67 897.45,298.61 900.73,298.46 904.00,298.27" />
<text x="780.00" y="126.00" font-size="14" font-family="Arial" fill="#d62728" text-anchor="start">MA200</text>
</svg>