<svg xmlns="http://www.w3.org/2000/svg" width="960" height="520" viewBox="0 0 960 520"><rect width="100%" height="100%" fill="white" />
<text x="56.00" y="32.00" font-size="20" font-family="Arial" fill="#1f2933" text-anchor="start">中華電(2412) Price and Moving Averages</text>
<line x1="56" y1="464" x2="904" y2="464" stroke="#cbd2d9" />
<line x1="56" y1="56" x2="56" y2="464" stroke="#cbd2d9" />
<text x="16.00" y="38.00" font-size="12" font-family="Arial" fill="#52606d" text-anchor="start">Price</text>
<line x1="56" y1="464.00" x2="904" y2="464.00" stroke="#edf2f7" />
<line x1="52" y1="464.00" x2="56" y2="464.00" stroke="#9fb3c8" />
<text x="48.00" y="468.00" font-size="11" font-family="Arial" fill="#52606d" text-anchor="end">122</text>
<line x1="56" y1="362.00" x2="904" y2="362.00" stroke="#edf2f7" />
<line x1="52" y1="362.00" x2="56" y2="362.00" stroke="#9fb3c8" />
<text x="48.00" y="366.00" font-size="11" font-family="Arial" fill="#52606d" text-anchor="end">127</text>
<line x1="56" y1="260.00" x2="904" y2="260.00" stroke="#edf2f7" />
<line x1="52" y1="260.00" x2="56" y2="260.00" stroke="#9fb3c8" />
<text x="48.00" y="264.00" font-size="11" font-family="Arial" fill="#52606d" text-anchor="end">132</text>
<line x1="56" y1="158.00" x2="904" y2="158.00" stroke="#edf2f7" />
<line x1="52" y1="158.00" x2="56" y2="158.00" stroke="#9fb3c8" />
<text x="48.00" y="162.00" font-size="11" font-family="Arial" fill="#52606d" text-anchor="end">137</text>
<line x1="56" y1="56.00" x2="904" y2="56.00" stroke="#edf2f7" />
<line x1="52" y1="56.00" x2="56" y2="56.00" stroke="#9fb3c8" />
<text x="48.00" y="60.00" font-size="11" font-family="Arial" fill="#52606d" text-anchor="end">142</text>
<line x1="56.00" y1="464" x2="56.00" y2="468" stroke="#9fb3c8" />
<text x="56.00" y="482.00" font-size="11" font-family="Arial" fill="#52606d" text-anchor="middle">06/20</text>
<line x1="226.25" y1="464" x2="226.25" y2="468" stroke="#9fb3c8" />
<text x="226.25" y="482.00" font-size="11" font-family="Arial" fill="#52606d" text-anchor="middle">09/03</text>
<line x1="396.51" y1="464" x2="396.51" y2="468" stroke="#9fb3c8" />
<text x="396.51" y="482.00" font-size="11" font-family="Arial" fill="#52606d" text-anchor="middle">11/20</text>
<line x1="563.49" y1="464" x2="563.49" y2="468" stroke="#9fb3c8" />
<text x="563.49" y="482.00" font-size="11" font-family="Arial" fill="#52606d" text-anchor="middle">02/03</text>
<line x1="733.75" y1="464" x2="733.75" y2="468" stroke="#9fb3c8" />
<text x="733.75" y="482.00" font-size="11" font-family="Arial" fill="#52606d" text-anchor="middle">04/30</text>
<line x1="904.00" y1="464" x2="904.00" y2="468" stroke="#9fb3c8" />
<text x="904.00" y="482.00" font-size="11" font-family="Arial" fill="#52606d" text-anchor="middle">07/15</text>
<polyline fill="none" stroke="#1f77b4" stroke-width="2" points="56.00,374.69 59.27,374.69 62.55,393.65 65.82,365.21 69.10,365.21 72.37,374.69 75.64,403.13 78.92,403.13 82.19,412.61 85.47,383.07 88.74,392.92 92.02,402.76 95.29,422.45 98.56,442.14 101.84,402.76 105.11,392.92 108.39,392.92 111.66,412.61 114.93,392.92 118.21,392.92 121.48,422.45 124.76,422.45 128.03,392.92 131.31,402.76 134.58,412.61 137.85,422.45 141.13,412.61 144.40,422.45 147.68,412.61 150.95,422.45 154.22,383.07 157.50,363.38 160.77,353.53 164.05,353.53 167.32,324.00 170.59,314.15 173.87,304.31 177.14,314.15 180.42,314.15 183.69,304.31 186.97,264.92 190.24,245.23 193.51,274.77 196.79,255.08 200.06,284.61 203.34,294.46 206.61,333.84 209.88,324.00 213.16,343.69 216.43,353.53 219.71,324.00 222.98,304.31 226.25,324.00 229.53,304.31 232.80,314.15 236.08,314.15 239.35,294.46 242.63,294.46 245.90,314.15 249.17,294.46 252.45,304.31 255.72,324.00 259.00,314.15 262.27,324.00 265.54,324.00 268.82,333.84 272.09,333.84 275.37,314.15 278.64,333.84 281.92,314.15 285.19,333.84 288.46,314.15 291.74,343.69 295.01,343.69 298.29,343.69 301.56,333.84 304.83,343.69 308.11,353.53 311.38,353.53 314.66,373.22 317.93,363.38 321.20,343.69 324.48,343.69 327.75,343.69 331.03,333.84 334.30,324.00 337.58,363.38 340.85,363.38 344.12,363.38 347.40,373.22 350.67,383.07 353.95,373.22 357.22,383.07 360.49,363.38 363.77,373.22 367.04,353.53 370.32,343.69 373.59,363.38 376.86,363.38 380.14,373.22 383.41,373.22 386.69,363.38 389.96,383.07 393.24,392.92 396.51,363.38 399.78,373.22 403.06,363.38 406.33,383.07 409.61,383.07 412.88,383.07 416.15,392.92 419.43,402.76 422.70,402.76 425.98,402.76 429.25,412.61 432.53,402.76 435.80,412.61 439.07,402.76 442.35,412.61 445.62,402.76 448.90,392.92 452.17,392.92 455.44,392.92 458.72,412.61 461.99,402.76 465.27,383.07 468.54,392.92 471.81,392.92 475.09,392.92 478.36,373.22 481.64,363.38 484.91,383.07 488.19,392.92 491.46,363.38 494.73,343.69 498.01,353.53 501.28,343.69 504.56,333.84 507.83,333.84 511.10,333.84 514.38,333.84 517.65,343.69 520.93,333.84 524.20,343.69 527.47,324.00 530.75,343.69 534.02,343.69 537.30,343.69 540.57,324.00 543.85,324.00 547.12,343.69 550.39,333.84 553.67,333.84 556.94,333.84 560.22,343.69 563.49,333.84 566.76,343.69 570.04,353.53 573.31,343.69 576.59,363.38 579.86,353.53 583.14,343.69 586.41,304.31 589.68,294.46 592.96,284.61 596.23,324.00 599.51,245.23 602.78,245.23 606.05,294.46 609.33,264.92 612.60,274.77 615.88,284.61 619.15,304.31 622.42,294.46 625.70,284.61 628.97,284.61 632.25,274.77 635.52,264.92 638.80,255.08 642.07,294.46 645.34,324.00 648.62,324.00 651.89,324.00 655.17,304.31 658.44,314.15 661.71,324.00 664.99,324.00 668.26,343.69 671.54,324.00 674.81,324.00 678.08,324.00 681.36,324.00 684.63,304.31 687.91,294.46 691.18,314.15 694.46,304.31 697.73,294.46 701.00,274.77 704.28,255.08 707.55,264.92 710.83,264.92 714.10,274.77 717.37,284.61 720.65,294.46 723.92,264.92 727.20,264.92 730.47,274.77 733.75,284.61 737.02,294.46 740.29,284.61 743.57,284.61 746.84,294.46 750.12,274.77 753.39,294.46 756.66,294.46 759.94,255.08 763.21,255.08 766.49,245.23 769.76,264.92 773.03,156.62 776.31,225.54 779.58,255.08 782.86,264.92 786.13,274.77 789.41,284.61 792.68,264.92 795.95,274.77 799.23,264.92 802.50,196.00 805.78,166.47 809.05,186.16 812.32,176.31 815.60,186.16 818.87,235.39 822.15,166.47 825.42,127.09 828.69,107.39 831.97,107.39 835.24,97.55 838.52,77.86 841.79,97.55 845.07,127.09 848.34,117.24 851.61,127.09 854.89,136.93 858.16,127.09 861.44,146.78 864.71,166.47 867.98,176.31 871.26,176.31 874.53,186.16 877.81,186.16 881.08,176.31 884.36,186.16 887.63,215.70 890.90,232.06 894.18,232.06 897.45,232.06 900.73,242.28 904.00,242.28" />
<text x="780.00" y="60.00" font-size="14" font-family="Arial" fill="#1f77b4" text-anchor="start">Close</text>
<polyline fill="none" stroke="#2ca02c" stroke-width="2" points="118.21,394.87 121.48,397.26 124.76,399.64 128.03,399.61 131.31,401.49 134.58,403.86 137.85,406.24 141.13,406.72 144.40,407.68 147.68,407.68 150.95,409.65 154.22,409.16 157.50,407.19 160.77,403.75 164.05,399.31 167.32,395.38 170.59,391.44 173.87,387.01 177.14,382.08 180.42,378.15 183.69,373.72 186.97,365.84 190.24,356.98 193.51,351.07 196.79,343.69 200.06,337.29 203.34,330.89 206.61,326.95 209.88,322.03 213.16,318.58 216.43,315.14 219.71,312.18 222.98,309.23 226.25,307.75 229.53,305.29 232.80,304.80 236.08,304.80 239.35,304.31 242.63,303.32 245.90,303.32 249.17,302.83 252.45,304.80 255.72,308.74 259.00,310.70 262.27,314.15 265.54,316.12 268.82,318.09 272.09,318.09 275.37,317.60 278.64,317.10 281.92,315.14 285.19,315.63 288.46,316.12 291.74,317.10 295.01,319.07 298.29,320.55 301.56,321.53 304.83,324.00 308.11,326.95 311.38,328.92 314.66,332.86 317.93,335.81 321.20,336.80 324.48,338.27 327.75,339.26 331.03,339.75 334.30,339.26 337.58,340.73 340.85,343.20 344.12,344.67 347.40,347.63 350.67,350.09 353.95,353.04 357.22,355.01 360.49,355.99 363.77,357.47 367.04,358.46 370.32,358.46 373.59,358.95 376.86,359.44 380.14,359.44 383.41,359.93 386.69,360.92 389.96,362.89 393.24,365.35 396.51,366.82 399.78,369.29 403.06,369.29 406.33,370.27 409.61,371.25 412.88,371.75 416.15,372.24 419.43,373.72 422.70,374.70 425.98,376.67 429.25,378.64 432.53,381.10 435.80,384.55 439.07,386.52 442.35,388.98 445.62,390.45 448.90,391.44 452.17,392.92 455.44,393.41 458.72,394.39 461.99,396.36 465.27,396.85 468.54,398.33 471.81,398.82 475.09,399.31 478.36,398.82 481.64,397.35 484.91,396.36 488.19,395.87 491.46,393.90 494.73,390.45 498.01,387.99 501.28,384.55 504.56,381.10 507.83,377.16 511.10,373.72 514.38,370.76 517.65,368.30 520.93,365.35 524.20,361.90 527.47,357.96 530.75,355.99 534.02,353.53 537.30,351.07 540.57,347.63 543.85,345.16 547.12,344.18 550.39,341.72 553.67,338.76 556.94,337.29 560.22,337.29 563.49,336.30 566.76,336.30 570.04,337.29 573.31,337.78 576.59,339.26 579.86,340.24 583.14,340.24 586.41,338.76 589.68,336.30 592.96,334.33 596.23,333.35 599.51,328.43 602.78,323.50 606.05,322.03 609.33,319.07 612.60,315.63 615.88,313.17 619.15,311.69 622.42,309.72 625.70,306.77 628.97,304.31 632.25,300.86 635.52,296.43 638.80,292.00 642.07,288.55 645.34,287.08 648.62,286.09 651.89,287.08 655.17,287.57 658.44,289.04 661.71,289.04 664.99,292.98 668.26,297.91 671.54,299.38 674.81,302.34 678.08,304.80 681.36,306.77 684.63,306.77 687.91,306.77 691.18,308.24 694.46,309.23 697.73,310.21 701.00,310.70 704.28,310.70 707.55,309.23 710.83,306.27 714.10,303.81 717.37,301.84 720.65,301.35 723.92,298.89 727.20,295.94 730.47,293.47 733.75,290.52 737.02,289.04 740.29,287.08 743.57,285.11 746.84,283.63 750.12,282.15 753.39,282.15 756.66,281.17 759.94,278.71 763.21,276.74 766.49,275.26 769.76,275.75 773.03,270.34 776.31,268.37 779.58,267.38 782.86,266.40 786.13,265.42 789.41,266.40 792.68,266.40 795.95,266.40 799.23,265.42 802.50,260.49 805.78,254.59 809.05,249.66 812.32,243.75 815.60,239.32 818.87,236.37 822.15,229.97 825.42,223.57 828.69,216.19 831.97,209.30 835.24,200.93 838.52,196.99 841.79,190.59 845.07,184.19 848.34,176.81 851.61,169.42 854.89,162.04 858.16,155.14 861.44,148.75 864.71,143.82 867.98,142.84 871.26,143.33 874.53,143.33 877.81,143.82 881.08,143.33 884.36,140.87 887.63,143.33 890.90,148.58 894.18,154.81 897.45,161.05 900.73,168.28 904.00,176.50" />
<text x="780.00" y="82.00" font-size="14" font-family="Arial" fill="#2ca02c" text-anchor="start">MA20</text>
<polyline fill="none" stroke="#ff7f0e" stroke-width="2" points="249.17,357.14 252.45,355.96 255.72,355.12 259.00,353.79 262.27,353.11 265.54,352.42 268.82,351.74 272.09,350.59 275.37,349.10 278.64,347.79 281.92,346.64 285.19,345.66 288.46,344.18 291.74,342.87 295.01,341.23 298.29,340.24 301.56,339.26 304.83,338.44 308.11,337.45 311.38,336.80 314.66,336.47 317.93,335.48 321.20,334.17 324.48,333.35 327.75,332.36 331.03,331.05 334.30,329.41 337.58,328.59 340.85,327.61 344.12,326.79 347.40,325.97 350.67,325.97 353.95,326.13 357.22,326.62 360.49,326.79 363.77,327.61 367.04,328.26 370.32,328.92 373.59,329.74 376.86,330.56 380.14,331.71 383.41,333.51 386.69,335.48 389.96,337.29 393.24,339.58 396.51,340.90 399.78,342.21 403.06,342.70 406.33,343.69 409.61,344.34 412.88,344.84 416.15,345.98 419.43,347.63 422.70,348.94 425.98,350.58 429.25,352.22 432.53,353.70 435.80,355.67 439.07,357.47 442.35,359.11 445.62,360.92 448.90,362.39 452.17,363.54 455.44,364.86 458.72,366.33 461.99,367.64 465.27,368.47 468.54,369.45 471.81,370.76 475.09,371.75 478.36,372.73 481.64,373.22 484.91,374.37 488.19,375.19 491.46,375.52 494.73,375.52 498.01,375.85 501.28,375.85 504.56,375.52 507.83,375.19 511.10,374.54 514.38,374.04 517.65,374.04 520.93,373.88 524.20,373.88 527.47,373.72 530.75,374.04 534.02,373.72 537.30,373.39 540.57,372.73 543.85,371.91 547.12,371.25 550.39,370.60 553.67,369.78 556.94,369.29 560.22,368.79 563.49,368.47 566.76,368.47 570.04,368.30 573.31,367.97 576.59,367.81 579.86,367.48 583.14,367.15 586.41,365.84 589.68,364.20 592.96,362.89 596.23,362.07 599.51,360.10 602.78,357.80 606.05,356.32 609.33,354.35 612.60,352.38 615.88,350.42 619.15,348.77 622.42,346.97 625.70,344.84 628.97,342.87 632.25,340.57 635.52,338.27 638.80,335.65 642.07,333.84 645.34,332.69 648.62,331.54 651.89,330.40 655.17,328.59 658.44,327.11 661.71,326.13 664.99,324.98 668.26,324.16 671.54,323.01 674.81,322.19 678.08,321.53 681.36,320.55 684.63,319.07 687.91,317.92 691.18,317.43 694.46,316.61 697.73,315.79 701.00,314.81 704.28,313.49 707.55,312.35 710.83,311.20 714.10,310.05 717.37,309.23 720.65,308.41 723.92,307.42 727.20,306.11 730.47,304.96 733.75,303.98 737.02,303.48 740.29,302.83 743.57,301.84 746.84,301.19 750.12,300.20 753.39,299.55 756.66,298.73 759.94,297.41 763.21,295.94 766.49,294.13 769.76,292.82 773.03,289.37 776.31,287.24 779.58,285.76 782.86,285.11 786.13,284.78 789.41,284.78 792.68,283.79 795.95,284.29 799.23,284.61 802.50,282.97 805.78,281.33 809.05,279.86 812.32,278.05 815.60,276.08 818.87,275.10 822.15,273.13 825.42,270.50 828.69,267.71 831.97,265.09 835.24,262.46 838.52,258.85 841.79,255.08 845.07,251.80 848.34,248.35 851.61,245.40 854.89,242.44 858.16,239.16 861.44,236.21 864.71,233.25 867.98,230.79 871.26,228.33 874.53,226.03 877.81,223.74 881.08,221.60 884.36,219.80 887.63,218.16 890.90,216.95 894.18,215.91 897.45,215.20 900.73,214.99 904.00,214.61" />
<text x="780.00" y="104.00" font-size="14" font-family="Arial" fill="#ff7f0e" text-anchor="start">MA60</text>
<polyline fill="none" stroke="#d62728" stroke-width="2" points="707.55,346.49 710.83,345.94 714.10,345.44 717.37,344.90 720.65,344.54 723.92,344.04 727.20,343.49 730.47,342.85 733.75,342.26 737.02,341.67 740.29,341.18 743.57,340.64 746.84,340.09 750.12,339.36 753.39,338.62 756.66,338.08 759.94,337.39 763.21,336.70 766.49,335.86 769.76,335.22 773.03,334.04 776.31,333.05 779.58,332.22 782.86,331.58 786.13,330.94 789.41,330.30 792.68,329.51 795.95,328.82 799.23,328.03 802.50,326.95 805.78,325.67 809.05,324.69 812.32,323.75 815.60,322.91 818.87,322.32 822.15,321.53 825.42,320.60 828.69,319.61 831.97,318.58 835.24,317.50 838.52,316.37 841.79,315.53 845.07,314.94 848.34,314.15 851.61,313.51 854.89,312.77 858.16,311.94 861.44,311.00 864.71,310.21 867.98,309.38 871.26,308.49 874.53,307.80 877.81,307.21 881.08,306.47 884.36,305.88 887.63,305.39 890.90,304.98 894.18,304.67 897.45,304.35 900.73,303.99 904.00,303.73" />
<text x="780.00" y="126.00" font-size="14" font-family="Arial" fill="#d62728" text-anchor="start">MA200</text>
</svg>