<svg xmlns="http://www.w3.org/2000/svg" width="960" height="520" viewBox="0 0 960 520"><rect width="100%" height="100%" fill="white" />
<text x="56.00" y="32.00" font-size="20" font-family="Arial" fill="#1f2933" text-anchor="start">主動統一台股增長(00981A) Price and Moving Averages</text>
<line x1="56" y1="464" x2="904" y2="464" stroke="#cbd2d9" />
<line x1="56" y1="56" x2="56" y2="464" stroke="#cbd2d9" />
<text x="16.00" y="38.00" font-size="12" font-family="Arial" fill="#52606d" text-anchor="start">Price</text>
<line x1="56" y1="464.00" x2="904" y2="464.00" stroke="#edf2f7" />
<line x1="52" y1="464.00" x2="56" y2="464.00" stroke="#9fb3c8" />
<text x="48.00" y="468.00" font-size="11" font-family="Arial" fill="#52606d" text-anchor="end">9.21</text>
<line x1="56" y1="362.00" x2="904" y2="362.00" stroke="#edf2f7" />
<line x1="52" y1="362.00" x2="56" y2="362.00" stroke="#9fb3c8" />
<text x="48.00" y="366.00" font-size="11" font-family="Arial" fill="#52606d" text-anchor="end">15.3</text>
<line x1="56" y1="260.00" x2="904" y2="260.00" stroke="#edf2f7" />
<line x1="52" y1="260.00" x2="56" y2="260.00" stroke="#9fb3c8" />
<text x="48.00" y="264.00" font-size="11" font-family="Arial" fill="#52606d" text-anchor="end">21.4</text>
<line x1="56" y1="158.00" x2="904" y2="158.00" stroke="#edf2f7" />
<line x1="52" y1="158.00" x2="56" y2="158.00" stroke="#9fb3c8" />
<text x="48.00" y="162.00" font-size="11" font-family="Arial" fill="#52606d" text-anchor="end">27.5</text>
<line x1="56" y1="56.00" x2="904" y2="56.00" stroke="#edf2f7" />
<line x1="52" y1="56.00" x2="56" y2="56.00" stroke="#9fb3c8" />
<text x="48.00" y="60.00" font-size="11" font-family="Arial" fill="#52606d" text-anchor="end">33.6</text>
<line x1="56.00" y1="464" x2="56.00" y2="468" stroke="#9fb3c8" />
<text x="56.00" y="482.00" font-size="11" font-family="Arial" fill="#52606d" text-anchor="middle">06/30</text>
<line x1="226.25" y1="464" x2="226.25" y2="468" stroke="#9fb3c8" />
<text x="226.25" y="482.00" font-size="11" font-family="Arial" fill="#52606d" text-anchor="middle">09/10</text>
<line x1="396.51" y1="464" x2="396.51" y2="468" stroke="#9fb3c8" />
<text x="396.51" y="482.00" font-size="11" font-family="Arial" fill="#52606d" text-anchor="middle">11/27</text>
<line x1="563.49" y1="464" x2="563.49" y2="468" stroke="#9fb3c8" />
<text x="563.49" y="482.00" font-size="11" font-family="Arial" fill="#52606d" text-anchor="middle">02/10</text>
<line x1="733.75" y1="464" x2="733.75" y2="468" stroke="#9fb3c8" />
<text x="733.75" y="482.00" font-size="11" font-family="Arial" fill="#52606d" text-anchor="middle">05/08</text>
<line x1="904.00" y1="464" x2="904.00" y2="468" stroke="#9fb3c8" />
<text x="904.00" y="482.00" font-size="11" font-family="Arial" fill="#52606d" text-anchor="middle">07/22</text>
<polyline fill="none" stroke="#1f77b4" stroke-width="2" points="56.00,442.14 59.27,441.02 62.55,440.53 65.82,438.12 69.10,438.60 72.37,440.70 75.64,439.09 78.92,435.23 82.19,434.90 85.47,435.71 88.74,437.64 92.02,434.90 95.29,433.14 98.56,432.49 101.84,428.63 105.11,430.08 108.39,432.97 111.66,432.49 114.93,430.24 118.21,430.72 121.48,428.63 124.76,430.08 128.03,429.76 131.31,424.29 134.58,424.13 137.85,427.35 141.13,423.65 144.40,423.97 147.68,418.98 150.95,414.64 154.22,411.26 157.50,410.62 160.77,408.21 164.05,408.37 167.32,407.08 170.59,402.41 173.87,408.37 177.14,417.37 180.42,414.32 183.69,414.80 186.97,409.17 190.24,408.04 193.51,403.06 196.79,403.54 200.06,399.68 203.34,407.72 206.61,409.97 209.88,409.17 213.16,409.17 216.43,404.51 219.71,403.06 222.98,401.45 226.25,395.82 229.53,396.14 232.80,397.43 236.08,400.32 239.35,398.72 242.63,399.84 245.90,395.18 249.17,396.95 252.45,396.14 255.72,395.82 259.00,397.75 262.27,400.32 265.54,405.95 268.82,399.84 272.09,399.84 275.37,396.30 278.64,392.60 281.92,392.76 285.19,392.93 288.46,390.19 291.74,393.73 295.01,397.27 298.29,391.16 301.56,388.42 304.83,391.48 308.11,388.74 311.38,385.53 314.66,386.81 317.93,387.13 321.20,381.34 324.48,375.23 327.75,371.85 331.03,369.76 334.30,365.26 337.58,362.85 340.85,365.58 344.12,368.64 347.40,363.49 350.67,368.80 353.95,363.97 357.22,364.78 360.49,365.58 363.77,363.33 367.04,368.96 370.32,366.55 373.59,376.52 376.86,377.00 380.14,367.03 383.41,379.74 386.69,379.74 389.96,373.30 393.24,367.35 396.51,361.72 399.78,357.22 403.06,362.85 406.33,364.46 409.61,363.65 412.88,365.42 416.15,361.24 419.43,359.63 422.70,359.95 425.98,355.61 429.25,355.61 432.53,354.00 435.80,357.38 439.07,363.01 442.35,364.78 445.62,365.74 448.90,361.08 452.17,356.90 455.44,356.25 458.72,352.88 461.99,348.85 465.27,347.73 468.54,347.57 471.81,346.28 475.09,348.21 478.36,347.73 481.64,342.42 484.91,346.44 488.19,348.53 491.46,349.82 494.73,348.37 498.01,348.53 501.28,344.35 504.56,345.64 507.83,344.03 511.10,346.28 514.38,343.71 517.65,347.25 520.93,338.24 524.20,333.41 527.47,332.45 530.75,326.34 534.02,323.60 537.30,325.53 540.57,329.55 543.85,334.22 547.12,323.76 550.39,319.42 553.67,326.50 556.94,331.64 560.22,323.28 563.49,318.13 566.76,314.59 570.04,312.83 573.31,307.20 576.59,296.26 579.86,293.36 583.14,295.13 586.41,299.80 589.68,318.62 592.96,304.62 596.23,300.12 599.51,322.96 602.78,312.66 606.05,295.78 609.33,294.01 612.60,292.88 615.88,292.24 619.15,284.19 622.42,275.00 625.70,272.87 628.97,273.19 632.25,284.36 635.52,289.78 638.80,275.66 642.07,274.84 645.34,276.15 648.62,282.55 651.89,298.48 655.17,279.10 658.44,286.33 661.71,277.79 664.99,253.82 668.26,247.59 671.54,238.56 674.81,240.20 678.08,230.51 681.36,219.35 684.63,206.71 687.91,206.22 691.18,191.77 694.46,184.88 697.73,175.85 701.00,181.26 704.28,161.89 707.55,160.25 710.83,161.73 714.10,162.88 717.37,154.01 720.65,131.85 723.92,134.64 727.20,137.27 730.47,132.67 733.75,143.67 737.02,130.87 740.29,126.27 743.57,137.60 746.84,134.97 750.12,151.71 753.39,154.67 756.66,166.98 759.94,171.25 763.21,144.49 766.49,126.60 769.76,99.35 773.03,101.32 776.31,93.60 779.58,113.96 782.86,100.50 786.13,97.87 789.41,103.94 792.68,96.06 795.95,103.45 799.23,112.48 802.50,127.58 805.78,105.58 809.05,127.58 812.32,130.54 815.60,115.93 818.87,101.64 822.15,101.98 825.42,100.97 828.69,90.59 831.97,78.36 835.24,88.91 838.52,90.92 841.79,90.59 845.07,117.22 848.34,116.72 851.61,94.27 854.89,82.21 858.16,81.37 861.44,77.86 864.71,95.61 867.98,118.40 871.26,119.90 874.53,116.55 877.81,116.55 881.08,126.60 884.36,142.52 887.63,126.10 890.90,133.31 894.18,175.52 897.45,184.40 900.73,153.91 904.00,140.84" />
<text x="780.00" y="60.00" font-size="14" font-family="Arial" fill="#1f77b4" text-anchor="start">Close</text>
<polyline fill="none" stroke="#2ca02c" stroke-width="2" points="118.21,435.47 121.48,434.79 124.76,434.25 128.03,433.71 131.31,433.02 134.58,432.29 137.85,431.62 141.13,430.85 144.40,430.29 147.68,429.49 150.95,428.44 154.22,427.12 157.50,425.91 160.77,424.66 164.05,423.45 167.32,422.38 170.59,420.99 173.87,419.76 177.14,419.01 180.42,418.21 183.69,417.41 186.97,416.44 190.24,415.34 193.51,414.00 196.79,412.97 200.06,411.74 203.34,410.76 206.61,410.08 209.88,409.34 213.16,408.85 216.43,408.34 219.71,407.93 222.98,407.47 226.25,406.85 229.53,406.24 232.80,405.76 236.08,405.66 239.35,405.17 242.63,404.30 245.90,403.34 249.17,402.45 252.45,401.80 255.72,401.18 259.00,400.92 262.27,400.76 265.54,401.07 268.82,400.68 272.09,400.17 275.37,399.53 278.64,398.70 281.92,398.11 285.19,397.61 288.46,397.04 291.74,396.94 295.01,396.99 298.29,396.68 301.56,396.09 304.83,395.72 308.11,395.17 311.38,394.69 314.66,394.18 317.93,393.73 321.20,393.01 324.48,391.88 327.75,390.46 331.03,388.65 334.30,386.92 337.58,385.07 340.85,383.53 344.12,382.33 347.40,380.87 350.67,379.66 353.95,378.35 357.22,376.91 360.49,375.32 363.77,373.93 367.04,372.96 370.32,371.71 373.59,371.10 376.86,370.67 380.14,369.68 383.41,369.31 386.69,369.23 389.96,369.14 393.24,368.91 396.51,368.51 399.78,368.11 403.06,368.11 406.33,368.05 409.61,367.80 412.88,367.90 416.15,367.52 419.43,367.30 422.70,367.06 425.98,366.56 429.25,366.18 432.53,365.43 435.80,364.97 439.07,364.30 442.35,363.68 445.62,363.62 448.90,362.69 452.17,361.54 455.44,360.69 458.72,359.97 461.99,359.33 465.27,358.85 468.54,358.09 471.81,357.18 475.09,356.41 478.36,355.52 481.64,354.58 484.91,353.92 488.19,353.35 491.46,353.06 494.73,352.70 498.01,352.42 501.28,351.77 504.56,350.90 507.83,349.87 511.10,348.89 514.38,348.03 517.65,347.54 520.93,346.64 524.20,345.67 527.47,344.85 530.75,343.78 534.02,342.58 537.30,341.54 540.57,340.61 543.85,339.94 547.12,339.00 550.39,337.65 553.67,336.55 556.94,335.64 560.22,334.39 563.49,332.87 566.76,331.38 570.04,329.74 573.31,327.90 576.59,325.40 579.86,322.88 583.14,320.27 586.41,318.35 589.68,317.61 592.96,316.22 596.23,314.91 599.51,314.88 602.78,314.23 606.05,312.54 609.33,310.53 612.60,308.99 615.88,307.63 619.15,305.52 622.42,302.68 625.70,300.16 628.97,297.92 632.25,296.40 635.52,295.25 638.80,293.67 642.07,292.60 645.34,291.74 648.62,291.11 651.89,291.05 655.17,289.07 658.44,288.16 661.71,287.04 664.99,283.58 668.26,280.33 671.54,277.47 674.81,274.78 678.08,271.66 681.36,268.02 684.63,264.14 687.91,260.70 691.18,256.65 694.46,252.23 697.73,246.81 701.00,241.38 704.28,235.69 707.55,229.96 710.83,224.24 714.10,218.26 717.37,211.03 720.65,203.67 723.92,196.09 727.20,189.06 730.47,183.00 733.75,177.81 737.02,172.42 740.29,166.73 743.57,162.08 746.84,157.86 750.12,155.11 753.39,152.53 756.66,151.30 759.94,150.61 763.21,149.05 766.49,146.31 769.76,143.19 773.03,140.24 776.31,136.83 779.58,134.39 782.86,131.71 786.13,130.01 789.41,128.48 792.68,126.42 795.95,124.96 799.23,123.40 802.50,123.23 805.78,122.20 809.05,121.70 812.32,121.48 815.60,119.69 818.87,117.03 822.15,113.78 825.42,110.27 828.69,107.58 831.97,105.16 835.24,104.64 838.52,104.12 841.79,103.97 845.07,104.14 848.34,104.95 851.61,104.77 854.89,103.68 858.16,102.95 861.44,101.67 864.71,100.82 867.98,100.36 871.26,101.08 874.53,100.53 877.81,99.83 881.08,100.36 884.36,102.41 887.63,103.61 890.90,105.23 894.18,109.48 897.45,114.78 900.73,118.03 904.00,120.52" />
<text x="780.00" y="82.00" font-size="14" font-family="Arial" fill="#2ca02c" text-anchor="start">MA20</text>
<polyline fill="none" stroke="#ff7f0e" stroke-width="2" points="249.17,418.44 252.45,417.68 255.72,416.92 259.00,416.21 262.27,415.58 265.54,415.04 268.82,414.35 272.09,413.70 275.37,413.05 278.64,412.35 281.92,411.63 285.19,410.89 288.46,410.14 291.74,409.48 295.01,408.90 298.29,408.27 301.56,407.58 304.83,406.89 308.11,406.16 311.38,405.41 314.66,404.68 317.93,403.99 321.20,403.18 324.48,402.27 327.75,401.39 331.03,400.49 334.30,399.45 337.58,398.44 340.85,397.47 344.12,396.63 347.40,395.77 350.67,395.07 353.95,394.29 357.22,393.57 360.49,392.85 363.77,392.12 367.04,391.57 370.32,390.87 373.59,390.19 376.86,389.57 380.14,388.77 383.41,388.28 386.69,387.81 389.96,387.31 393.24,386.71 396.51,386.08 399.78,385.23 403.06,384.45 406.33,383.70 409.61,382.94 412.88,382.29 416.15,381.60 419.43,380.90 422.70,380.30 425.98,379.63 429.25,378.93 432.53,378.16 435.80,377.47 439.07,376.85 442.35,376.35 445.62,375.83 448.90,375.24 452.17,374.59 455.44,373.90 458.72,373.11 461.99,372.16 465.27,371.29 468.54,370.42 471.81,369.59 475.09,368.85 478.36,368.10 481.64,367.25 484.91,366.53 488.19,365.77 491.46,364.98 494.73,364.27 498.01,363.60 501.28,362.82 504.56,362.10 507.83,361.41 511.10,360.73 514.38,360.01 517.65,359.44 520.93,358.82 524.20,358.18 527.47,357.56 530.75,356.91 534.02,356.26 537.30,355.59 540.57,354.94 543.85,354.45 547.12,353.70 550.39,352.96 553.67,352.32 556.94,351.75 560.22,351.09 563.49,350.24 566.76,349.37 570.04,348.31 573.31,347.15 576.59,345.97 579.86,344.53 583.14,343.12 586.41,341.90 589.68,341.08 592.96,340.13 596.23,339.18 599.51,338.51 602.78,337.65 606.05,336.52 609.33,335.33 612.60,334.19 615.88,333.07 619.15,331.80 622.42,330.46 625.70,329.08 628.97,327.74 632.25,326.52 635.52,325.30 638.80,323.81 642.07,322.30 645.34,320.88 648.62,319.64 651.89,318.68 655.17,317.45 658.44,316.41 661.71,315.24 664.99,313.68 668.26,312.04 671.54,310.21 674.81,308.42 678.08,306.55 681.36,304.43 684.63,302.07 687.91,299.68 691.18,297.07 694.46,294.34 697.73,291.53 701.00,288.79 704.28,285.75 707.55,282.65 710.83,279.62 714.10,276.55 717.37,273.48 720.65,270.12 723.92,266.82 727.20,263.67 730.47,260.49 733.75,257.46 737.02,254.15 740.29,250.68 743.57,247.58 746.84,244.50 750.12,241.59 753.39,238.64 756.66,236.03 759.94,233.59 763.21,230.75 766.49,227.65 769.76,224.18 773.03,220.93 776.31,217.61 779.58,214.59 782.86,211.26 786.13,207.59 789.41,204.24 792.68,200.84 795.95,197.18 799.23,193.84 802.50,191.04 805.78,187.90 809.05,185.15 812.32,182.45 815.60,179.65 818.87,176.76 822.15,173.91 825.42,171.04 828.69,167.81 831.97,164.29 835.24,161.17 838.52,158.11 841.79,155.02 845.07,152.26 848.34,149.23 851.61,146.15 854.89,142.75 858.16,139.47 861.44,136.54 864.71,134.01 867.98,132.01 871.26,130.00 874.53,128.10 877.81,126.39 881.08,125.05 884.36,123.99 887.63,122.90 890.90,122.04 894.18,122.03 897.45,122.08 900.73,121.95 904.00,121.63" />
<text x="780.00" y="104.00" font-size="14" font-family="Arial" fill="#ff7f0e" text-anchor="start">MA60</text>
<polyline fill="none" stroke="#d62728" stroke-width="2" points="707.55,357.97 710.83,356.56 714.10,355.17 717.37,353.74 720.65,352.21 723.92,350.69 727.20,349.17 730.47,347.64 733.75,346.18 737.02,344.66 740.29,343.12 743.57,341.62 746.84,340.12 750.12,338.71 753.39,337.32 756.66,336.01 759.94,334.72 763.21,333.27 766.49,331.75 769.76,330.09 773.03,328.44 776.31,326.77 779.58,325.19 782.86,323.54 786.13,321.91 789.41,320.31 792.68,318.65 795.95,317.05 799.23,315.49 802.50,314.04 805.78,312.49 809.05,311.07 812.32,309.67 815.60,308.21 818.87,306.68 822.15,305.15 825.42,303.64 828.69,302.06 831.97,300.36 835.24,298.73 838.52,297.11 841.79,295.52 845.07,294.07 848.34,292.64 851.61,291.09 854.89,289.50 858.16,287.87 861.44,286.21 864.71,284.64 867.98,283.19 871.26,281.77 874.53,280.33 877.81,278.91 881.08,277.56 884.36,276.29 887.63,274.94 890.90,273.60 894.18,272.49 897.45,271.41 900.73,270.20 904.00,268.92" />
<text x="780.00" y="126.00" font-size="14" font-family="Arial" fill="#d62728" text-anchor="start">MA200</text>
</svg>