<svg xmlns="http://www.w3.org/2000/svg" width="960" height="520" viewBox="0 0 960 520"><rect width="100%" height="100%" fill="white" />
<text x="56.00" y="32.00" font-size="20" font-family="Arial" fill="#1f2933" text-anchor="start">主動統一台股增長(00981A) Price and Moving Averages</text>
<line x1="56" y1="464" x2="904" y2="464" stroke="#cbd2d9" />
<line x1="56" y1="56" x2="56" y2="464" stroke="#cbd2d9" />
<text x="16.00" y="38.00" font-size="12" font-family="Arial" fill="#52606d" text-anchor="start">Price</text>
<line x1="56" y1="464.00" x2="904" y2="464.00" stroke="#edf2f7" />
<line x1="52" y1="464.00" x2="56" y2="464.00" stroke="#9fb3c8" />
<text x="48.00" y="468.00" font-size="11" font-family="Arial" fill="#52606d" text-anchor="end">8.90</text>
<line x1="56" y1="362.00" x2="904" y2="362.00" stroke="#edf2f7" />
<line x1="52" y1="362.00" x2="56" y2="362.00" stroke="#9fb3c8" />
<text x="48.00" y="366.00" font-size="11" font-family="Arial" fill="#52606d" text-anchor="end">15.1</text>
<line x1="56" y1="260.00" x2="904" y2="260.00" stroke="#edf2f7" />
<line x1="52" y1="260.00" x2="56" y2="260.00" stroke="#9fb3c8" />
<text x="48.00" y="264.00" font-size="11" font-family="Arial" fill="#52606d" text-anchor="end">21.2</text>
<line x1="56" y1="158.00" x2="904" y2="158.00" stroke="#edf2f7" />
<line x1="52" y1="158.00" x2="56" y2="158.00" stroke="#9fb3c8" />
<text x="48.00" y="162.00" font-size="11" font-family="Arial" fill="#52606d" text-anchor="end">27.4</text>
<line x1="56" y1="56.00" x2="904" y2="56.00" stroke="#edf2f7" />
<line x1="52" y1="56.00" x2="56" y2="56.00" stroke="#9fb3c8" />
<text x="48.00" y="60.00" font-size="11" font-family="Arial" fill="#52606d" text-anchor="end">33.6</text>
<line x1="56.00" y1="464" x2="56.00" y2="468" stroke="#9fb3c8" />
<text x="56.00" y="482.00" font-size="11" font-family="Arial" fill="#52606d" text-anchor="middle">06/13</text>
<line x1="226.25" y1="464" x2="226.25" y2="468" stroke="#9fb3c8" />
<text x="226.25" y="482.00" font-size="11" font-family="Arial" fill="#52606d" text-anchor="middle">08/26</text>
<line x1="396.51" y1="464" x2="396.51" y2="468" stroke="#9fb3c8" />
<text x="396.51" y="482.00" font-size="11" font-family="Arial" fill="#52606d" text-anchor="middle">11/12</text>
<line x1="563.49" y1="464" x2="563.49" y2="468" stroke="#9fb3c8" />
<text x="563.49" y="482.00" font-size="11" font-family="Arial" fill="#52606d" text-anchor="middle">01/26</text>
<line x1="733.75" y1="464" x2="733.75" y2="468" stroke="#9fb3c8" />
<text x="733.75" y="482.00" font-size="11" font-family="Arial" fill="#52606d" text-anchor="middle">04/22</text>
<line x1="904.00" y1="464" x2="904.00" y2="468" stroke="#9fb3c8" />
<text x="904.00" y="482.00" font-size="11" font-family="Arial" fill="#52606d" text-anchor="middle">07/07</text>
<polyline fill="none" stroke="#1f77b4" stroke-width="2" points="56.00,442.14 59.27,441.35 62.55,440.71 65.82,440.40 69.10,441.19 72.37,442.14 75.64,442.14 78.92,438.81 82.19,436.90 85.47,438.02 88.74,438.17 92.02,437.38 95.29,436.27 98.56,435.79 101.84,433.41 105.11,433.89 108.39,435.95 111.66,434.36 114.93,430.55 118.21,430.24 121.48,431.03 124.76,432.94 128.03,430.24 131.31,428.49 134.58,427.86 137.85,424.05 141.13,425.48 144.40,428.33 147.68,427.86 150.95,425.63 154.22,426.11 157.50,424.05 160.77,425.48 164.05,425.16 167.32,419.76 170.59,419.60 173.87,422.78 177.14,419.13 180.42,419.44 183.69,414.52 186.97,410.24 190.24,406.90 193.51,406.27 196.79,403.89 200.06,404.05 203.34,402.78 206.61,398.17 209.88,404.05 213.16,412.93 216.43,409.92 219.71,410.39 222.98,404.84 226.25,403.73 229.53,398.81 232.80,399.28 236.08,395.47 239.35,403.41 242.63,405.63 245.90,404.84 249.17,404.84 252.45,400.24 255.72,398.81 259.00,397.22 262.27,391.66 265.54,391.98 268.82,393.25 272.09,396.11 275.37,394.52 278.64,395.63 281.92,391.03 285.19,392.77 288.46,391.98 291.74,391.66 295.01,393.57 298.29,396.11 301.56,401.66 304.83,395.63 308.11,395.63 311.38,392.14 314.66,388.49 317.93,388.65 321.20,388.81 324.48,386.11 327.75,389.60 331.03,393.09 334.30,387.06 337.58,384.36 340.85,387.38 344.12,384.68 347.40,381.50 350.67,382.77 353.95,383.09 357.22,377.38 360.49,371.34 363.77,368.01 367.04,365.95 370.32,361.50 373.59,359.12 376.86,361.82 380.14,364.84 383.41,359.76 386.69,365.00 389.96,360.23 393.24,361.03 396.51,361.82 399.78,359.60 403.06,365.15 406.33,362.77 409.61,372.61 412.88,373.09 416.15,363.25 419.43,375.79 422.70,375.79 425.98,369.44 429.25,363.57 432.53,358.01 435.80,353.57 439.07,359.12 442.35,360.71 445.62,359.92 448.90,361.66 452.17,357.53 455.44,355.95 458.72,356.26 461.99,351.98 465.27,351.98 468.54,350.39 471.81,353.72 475.09,359.28 478.36,361.03 481.64,361.98 484.91,357.38 488.19,353.25 491.46,352.61 494.73,349.28 498.01,345.31 501.28,344.20 504.56,344.04 507.83,342.77 511.10,344.68 514.38,344.20 517.65,338.96 520.93,342.93 524.20,344.99 527.47,346.26 530.75,344.84 534.02,344.99 537.30,340.87 540.57,342.14 543.85,340.55 547.12,342.77 550.39,340.23 553.67,343.72 556.94,334.83 560.22,330.07 563.49,329.12 566.76,323.09 570.04,320.39 573.31,322.29 576.59,326.26 579.86,330.87 583.14,320.55 586.41,316.26 589.68,323.25 592.96,328.33 596.23,320.07 599.51,314.99 602.78,311.50 606.05,309.75 609.33,304.20 612.60,293.40 615.88,290.55 619.15,292.29 622.42,296.90 625.70,315.47 628.97,301.66 632.25,297.21 635.52,319.75 638.80,309.60 642.07,292.93 645.34,291.18 648.62,290.07 651.89,289.44 655.17,281.50 658.44,272.42 661.71,270.32 664.99,270.64 668.26,281.66 671.54,287.00 674.81,273.07 678.08,272.26 681.36,273.56 684.63,279.88 687.91,295.59 691.18,276.47 694.46,283.60 697.73,275.18 701.00,251.52 704.28,245.37 707.55,236.46 710.83,238.08 714.10,228.52 717.37,217.50 720.65,205.02 723.92,204.54 727.20,190.28 730.47,183.48 733.75,174.57 737.02,179.91 740.29,160.79 743.57,159.17 746.84,160.63 750.12,161.77 753.39,153.02 756.66,131.14 759.94,133.90 763.21,136.49 766.49,131.95 769.76,142.81 773.03,130.17 776.31,125.64 779.58,136.82 782.86,134.22 786.13,150.75 789.41,153.66 792.68,165.82 795.95,170.03 799.23,143.62 802.50,125.96 805.78,99.07 809.05,101.01 812.32,93.39 815.60,113.48 818.87,100.20 822.15,97.61 825.42,103.60 828.69,95.82 831.97,103.12 835.24,112.03 838.52,126.93 841.79,105.22 845.07,126.93 848.34,129.85 851.61,115.43 854.89,101.33 858.16,101.66 861.44,100.67 864.71,90.42 867.98,78.35 871.26,88.77 874.53,90.75 877.81,90.42 881.08,116.71 884.36,116.21 887.63,94.06 890.90,82.16 894.18,81.33 897.45,77.86 900.73,95.38 904.00,117.87" />
<text x="780.00" y="60.00" font-size="14" font-family="Arial" fill="#1f77b4" text-anchor="start">Close</text>
<polyline fill="none" stroke="#2ca02c" stroke-width="2" points="118.21,437.49 121.48,436.94 124.76,436.52 128.03,435.99 131.31,435.40 134.58,434.73 137.85,433.82 141.13,432.99 144.40,432.47 147.68,432.02 150.95,431.40 154.22,430.79 157.50,430.13 160.77,429.59 164.05,429.05 167.32,428.37 170.59,427.66 173.87,427.00 177.14,426.24 180.42,425.68 183.69,424.90 186.97,423.86 190.24,422.55 193.51,421.36 196.79,420.13 200.06,418.94 203.34,417.87 206.61,416.51 209.88,415.29 213.16,414.55 216.43,413.76 219.71,412.97 222.98,412.01 226.25,410.93 229.53,409.61 232.80,408.59 236.08,407.38 239.35,406.41 242.63,405.74 245.90,405.01 249.17,404.52 252.45,404.02 255.72,403.62 259.00,403.16 262.27,402.55 265.54,401.95 268.82,401.47 272.09,401.37 275.37,400.89 278.64,400.03 281.92,399.08 285.19,398.20 288.46,397.56 291.74,396.96 295.01,396.70 298.29,396.54 301.56,396.85 304.83,396.46 308.11,395.96 311.38,395.32 314.66,394.51 317.93,393.93 321.20,393.43 324.48,392.87 327.75,392.77 331.03,392.82 334.30,392.51 337.58,391.93 340.85,391.57 344.12,391.02 347.40,390.54 350.67,390.04 353.95,389.60 357.22,388.89 360.49,387.77 363.77,386.37 367.04,384.58 370.32,382.88 373.59,381.05 376.86,379.54 380.14,378.35 383.41,376.91 386.69,375.72 389.96,374.42 393.24,373.00 396.51,371.43 399.78,370.06 403.06,369.10 406.33,367.87 409.61,367.27 412.88,366.84 416.15,365.87 419.43,365.50 422.70,365.42 425.98,365.33 429.25,365.11 432.53,364.71 435.80,364.31 439.07,364.31 442.35,364.26 445.62,364.01 448.90,364.11 452.17,363.73 455.44,363.52 458.72,363.28 461.99,362.79 465.27,362.41 468.54,361.67 471.81,361.22 475.09,360.55 478.36,359.95 481.64,359.88 484.91,358.96 488.19,357.84 491.46,356.99 494.73,356.28 498.01,355.65 501.28,355.18 504.56,354.42 507.83,353.53 511.10,352.76 514.38,351.89 517.65,350.96 520.93,350.31 524.20,349.75 527.47,349.46 530.75,349.11 534.02,348.84 537.30,348.19 540.57,347.34 543.85,346.31 547.12,345.35 550.39,344.49 553.67,344.02 556.94,343.13 560.22,342.17 563.49,341.36 566.76,340.30 570.04,339.12 573.31,338.10 576.59,337.18 579.86,336.51 583.14,335.59 586.41,334.26 589.68,333.17 592.96,332.27 596.23,331.03 599.51,329.53 602.78,328.06 606.05,326.45 609.33,324.63 612.60,322.16 615.88,319.68 619.15,317.10 622.42,315.21 625.70,314.48 628.97,313.10 632.25,311.81 635.52,311.78 638.80,311.14 642.07,309.48 645.34,307.49 648.62,305.97 651.89,304.63 655.17,302.54 658.44,299.74 661.71,297.26 664.99,295.04 668.26,293.55 671.54,292.41 674.81,290.85 678.08,289.80 681.36,288.95 684.63,288.33 687.91,288.26 691.18,286.31 694.46,285.41 697.73,284.31 701.00,280.89 704.28,277.68 707.55,274.86 710.83,272.20 714.10,269.13 717.37,265.53 720.65,261.71 723.92,258.31 727.20,254.31 730.47,249.95 733.75,244.60 737.02,239.24 740.29,233.63 743.57,227.97 746.84,222.33 750.12,216.42 753.39,209.29 756.66,202.03 759.94,194.54 763.21,187.61 766.49,181.63 769.76,176.50 773.03,171.19 776.31,165.57 779.58,160.98 782.86,156.82 786.13,154.10 789.41,151.56 792.68,150.34 795.95,149.66 799.23,148.12 802.50,145.42 805.78,142.33 809.05,139.42 812.32,136.06 815.60,133.65 818.87,131.01 822.15,129.33 825.42,127.82 828.69,125.78 831.97,124.34 835.24,122.80 838.52,122.64 841.79,121.62 845.07,121.12 848.34,120.91 851.61,119.14 854.89,116.52 858.16,113.31 861.44,109.85 864.71,107.19 867.98,104.81 871.26,104.29 874.53,103.78 877.81,103.63 881.08,103.79 884.36,104.59 887.63,104.42 890.90,103.34 894.18,102.62 897.45,101.36 900.73,100.52 904.00,100.07" />
<text x="780.00" y="82.00" font-size="14" font-family="Arial" fill="#2ca02c" text-anchor="start">MA20</text>
<polyline fill="none" stroke="#ff7f0e" stroke-width="2" points="249.17,422.30 252.45,421.60 255.72,420.90 259.00,420.17 262.27,419.36 265.54,418.54 268.82,417.72 272.09,416.96 275.37,416.22 278.64,415.53 281.92,414.75 285.19,413.99 288.46,413.23 291.74,412.49 295.01,411.79 298.29,411.16 301.56,410.63 304.83,409.96 308.11,409.31 311.38,408.67 314.66,407.97 317.93,407.27 321.20,406.53 324.48,405.80 327.75,405.15 331.03,404.57 334.30,403.95 337.58,403.27 340.85,402.58 344.12,401.87 347.40,401.13 350.67,400.41 353.95,399.72 357.22,398.92 360.49,398.03 363.77,397.16 367.04,396.27 370.32,395.25 373.59,394.25 376.86,393.29 380.14,392.46 383.41,391.62 386.69,390.92 389.96,390.15 393.24,389.44 396.51,388.73 399.78,388.02 403.06,387.46 406.33,386.78 409.61,386.11 412.88,385.49 416.15,384.71 419.43,384.22 422.70,383.76 425.98,383.27 429.25,382.67 432.53,382.05 435.80,381.22 439.07,380.44 442.35,379.71 445.62,378.96 448.90,378.31 452.17,377.63 455.44,376.94 458.72,376.35 461.99,375.68 465.27,374.99 468.54,374.23 471.81,373.55 475.09,372.95 478.36,372.45 481.64,371.93 484.91,371.36 488.19,370.72 491.46,370.03 494.73,369.25 498.01,368.31 501.28,367.46 504.56,366.60 507.83,365.77 511.10,365.04 514.38,364.30 517.65,363.47 520.93,362.75 524.20,362.01 527.47,361.23 530.75,360.52 534.02,359.87 537.30,359.09 540.57,358.38 543.85,357.70 547.12,357.03 550.39,356.32 553.67,355.76 556.94,355.15 560.22,354.52 563.49,353.90 566.76,353.26 570.04,352.62 573.31,351.96 576.59,351.32 579.86,350.84 583.14,350.09 586.41,349.36 589.68,348.73 592.96,348.17 596.23,347.52 599.51,346.68 602.78,345.82 606.05,344.78 609.33,343.63 612.60,342.46 615.88,341.04 619.15,339.65 622.42,338.44 625.70,337.64 628.97,336.70 632.25,335.76 635.52,335.11 638.80,334.26 642.07,333.14 645.34,331.96 648.62,330.84 651.89,329.73 655.17,328.49 658.44,327.16 661.71,325.80 664.99,324.47 668.26,323.27 671.54,322.06 674.81,320.60 678.08,319.10 681.36,317.71 684.63,316.48 687.91,315.53 691.18,314.32 694.46,313.29 697.73,312.14 701.00,310.60 704.28,308.97 707.55,307.17 710.83,305.40 714.10,303.56 717.37,301.47 720.65,299.14 723.92,296.78 727.20,294.20 730.47,291.51 733.75,288.74 737.02,286.03 740.29,283.04 743.57,279.98 746.84,276.98 750.12,273.95 753.39,270.92 756.66,267.60 759.94,264.35 763.21,261.24 766.49,258.10 769.76,255.11 773.03,251.84 776.31,248.42 779.58,245.36 782.86,242.32 786.13,239.45 789.41,236.54 792.68,233.97 795.95,231.55 799.23,228.75 802.50,225.69 805.78,222.27 809.05,219.06 812.32,215.78 815.60,212.80 818.87,209.52 822.15,205.89 825.42,202.59 828.69,199.23 831.97,195.62 835.24,192.33 838.52,189.56 841.79,186.46 845.07,183.74 848.34,181.08 851.61,178.32 854.89,175.46 858.16,172.65 861.44,169.82 864.71,166.63 867.98,163.16 871.26,160.08 874.53,157.06 877.81,154.01 881.08,151.29 884.36,148.30 887.63,145.26 890.90,141.90 894.18,138.67 897.45,135.77 900.73,133.27 904.00,131.30" />
<text x="780.00" y="104.00" font-size="14" font-family="Arial" fill="#ff7f0e" text-anchor="start">MA60</text>
<polyline fill="none" stroke="#d62728" stroke-width="2" points="707.55,367.81 710.83,366.79 714.10,365.72 717.37,364.60 720.65,363.43 723.92,362.24 727.20,360.99 730.47,359.69 733.75,358.37 737.02,357.09 740.29,355.70 743.57,354.30 746.84,352.92 750.12,351.55 753.39,350.13 756.66,348.62 759.94,347.12 763.21,345.63 766.49,344.11 769.76,342.68 773.03,341.17 776.31,339.65 779.58,338.17 782.86,336.69 786.13,335.30 789.41,333.93 792.68,332.64 795.95,331.36 799.23,329.94 802.50,328.43 805.78,326.79 809.05,325.17 812.32,323.51 815.60,321.95 818.87,320.33 822.15,318.72 825.42,317.14 828.69,315.50 831.97,313.92 835.24,312.39 838.52,310.95 841.79,309.42 845.07,308.02 848.34,306.64 851.61,305.20 854.89,303.69 858.16,302.18 861.44,300.69 864.71,299.13 867.98,297.45 871.26,295.85 874.53,294.25 877.81,292.68 881.08,291.24 884.36,289.83 887.63,288.30 890.90,286.74 894.18,285.13 897.45,283.49 900.73,281.94 904.00,280.50" />
<text x="780.00" y="126.00" font-size="14" font-family="Arial" fill="#d62728" text-anchor="start">MA200</text>
</svg>