<svg xmlns="http://www.w3.org/2000/svg" width="960" height="520" viewBox="0 0 960 520"><rect width="100%" height="100%" fill="white" />
<text x="56.00" y="32.00" font-size="20" font-family="Arial" fill="#1f2933" text-anchor="start">元大台灣50(0050) Price and Moving Averages</text>
<line x1="56" y1="464" x2="904" y2="464" stroke="#cbd2d9" />
<line x1="56" y1="56" x2="56" y2="464" stroke="#cbd2d9" />
<text x="16.00" y="38.00" font-size="12" font-family="Arial" fill="#52606d" text-anchor="start">Price</text>
<line x1="56" y1="464.00" x2="904" y2="464.00" stroke="#edf2f7" />
<line x1="52" y1="464.00" x2="56" y2="464.00" stroke="#9fb3c8" />
<text x="48.00" y="468.00" font-size="11" font-family="Arial" fill="#52606d" text-anchor="end">41.7</text>
<line x1="56" y1="362.00" x2="904" y2="362.00" stroke="#edf2f7" />
<line x1="52" y1="362.00" x2="56" y2="362.00" stroke="#9fb3c8" />
<text x="48.00" y="366.00" font-size="11" font-family="Arial" fill="#52606d" text-anchor="end">60.1</text>
<line x1="56" y1="260.00" x2="904" y2="260.00" stroke="#edf2f7" />
<line x1="52" y1="260.00" x2="56" y2="260.00" stroke="#9fb3c8" />
<text x="48.00" y="264.00" font-size="11" font-family="Arial" fill="#52606d" text-anchor="end">78.4</text>
<line x1="56" y1="158.00" x2="904" y2="158.00" stroke="#edf2f7" />
<line x1="52" y1="158.00" x2="56" y2="158.00" stroke="#9fb3c8" />
<text x="48.00" y="162.00" font-size="11" font-family="Arial" fill="#52606d" text-anchor="end">96.7</text>
<line x1="56" y1="56.00" x2="904" y2="56.00" stroke="#edf2f7" />
<line x1="52" y1="56.00" x2="56" y2="56.00" stroke="#9fb3c8" />
<text x="48.00" y="60.00" font-size="11" font-family="Arial" fill="#52606d" text-anchor="end">115</text>
<line x1="56.00" y1="464" x2="56.00" y2="468" stroke="#9fb3c8" />
<text x="56.00" y="482.00" font-size="11" font-family="Arial" fill="#52606d" text-anchor="middle">06/18</text>
<line x1="226.25" y1="464" x2="226.25" y2="468" stroke="#9fb3c8" />
<text x="226.25" y="482.00" font-size="11" font-family="Arial" fill="#52606d" text-anchor="middle">08/29</text>
<line x1="396.51" y1="464" x2="396.51" y2="468" stroke="#9fb3c8" />
<text x="396.51" y="482.00" font-size="11" font-family="Arial" fill="#52606d" text-anchor="middle">11/17</text>
<line x1="563.49" y1="464" x2="563.49" y2="468" stroke="#9fb3c8" />
<text x="563.49" y="482.00" font-size="11" font-family="Arial" fill="#52606d" text-anchor="middle">01/29</text>
<line x1="733.75" y1="464" x2="733.75" y2="468" stroke="#9fb3c8" />
<text x="733.75" y="482.00" font-size="11" font-family="Arial" fill="#52606d" text-anchor="middle">04/27</text>
<line x1="904.00" y1="464" x2="904.00" y2="468" stroke="#9fb3c8" />
<text x="904.00" y="482.00" font-size="11" font-family="Arial" fill="#52606d" text-anchor="middle">07/10</text>
<polyline fill="none" stroke="#1f77b4" stroke-width="2" points="56.00,437.08 59.27,439.64 62.55,440.02 65.82,442.14 69.10,437.51 72.37,433.75 75.64,433.43 78.92,433.15 82.19,432.77 85.47,431.25 88.74,431.19 92.02,427.54 95.29,430.05 98.56,431.63 101.84,432.83 105.11,430.10 108.39,427.05 111.66,425.91 114.93,427.49 118.21,423.84 121.48,421.66 124.76,420.03 128.03,415.94 131.31,416.98 134.58,418.90 137.85,418.08 141.13,416.43 144.40,416.98 147.68,416.16 150.95,419.45 154.22,416.43 157.50,413.42 160.77,415.89 164.05,417.53 167.32,413.97 170.59,416.43 173.87,408.48 177.14,408.48 180.42,406.29 183.69,406.01 186.97,403.54 190.24,404.64 193.51,404.64 196.79,403.82 200.06,404.37 203.34,412.59 206.61,410.95 209.88,412.32 213.16,407.11 216.43,406.83 219.71,405.46 222.98,408.21 226.25,408.21 229.53,410.95 232.80,410.95 236.08,411.22 239.35,409.30 242.63,406.29 245.90,403.54 249.17,400.53 252.45,394.77 255.72,392.02 259.00,389.01 262.27,389.01 265.54,384.89 268.82,387.09 272.09,383.79 275.37,383.52 278.64,381.33 281.92,375.57 285.19,375.84 288.46,376.94 291.74,382.15 295.01,379.13 298.29,377.49 301.56,371.45 304.83,366.79 308.11,357.74 311.38,360.75 314.66,358.28 317.93,361.58 321.20,363.22 324.48,357.19 327.75,350.60 331.03,355.82 334.30,350.06 337.58,349.51 340.85,352.25 344.12,354.17 347.40,346.22 350.67,348.68 353.95,342.92 357.22,342.92 360.49,341.00 363.77,344.30 367.04,345.39 370.32,349.78 373.59,348.96 376.86,353.07 380.14,348.68 383.41,351.15 386.69,349.51 389.96,351.15 393.24,357.74 396.51,356.64 399.78,364.59 403.06,366.79 406.33,356.64 409.61,367.89 412.88,369.53 416.15,365.14 419.43,359.66 422.70,356.64 425.98,354.17 429.25,358.83 432.53,357.74 435.80,354.44 439.07,354.99 442.35,351.98 445.62,346.76 448.90,347.31 452.17,344.84 455.44,348.68 458.72,348.14 461.99,351.70 465.27,354.72 468.54,356.64 471.81,356.64 475.09,353.35 478.36,348.41 481.64,346.76 484.91,345.94 488.19,342.92 491.46,338.26 494.73,338.81 498.01,336.34 501.28,328.94 504.56,314.95 507.83,310.01 511.10,313.03 514.38,311.66 517.65,313.03 520.93,310.28 524.20,308.36 527.47,308.09 530.75,308.64 534.02,301.23 537.30,297.94 540.57,297.94 543.85,302.06 547.12,296.77 550.39,294.27 553.67,294.27 556.94,289.82 560.22,283.42 563.49,285.92 566.76,292.32 570.04,298.44 573.31,290.37 576.59,290.65 579.86,295.66 583.14,296.21 586.41,284.81 589.68,276.19 592.96,266.73 596.23,265.62 599.51,254.49 602.78,245.03 606.05,244.75 609.33,249.20 612.60,258.11 615.88,275.63 619.15,265.62 622.42,268.68 625.70,286.76 628.97,277.86 632.25,261.17 635.52,270.07 638.80,273.68 642.07,275.63 645.34,269.79 648.62,263.39 651.89,273.40 655.17,273.96 658.44,283.14 661.71,282.31 664.99,272.29 668.26,274.52 671.54,278.97 674.81,285.09 678.08,293.71 681.36,276.46 684.63,284.81 687.91,277.30 691.18,255.60 694.46,255.88 697.73,246.98 701.00,247.81 704.28,233.91 707.55,228.06 710.83,223.34 714.10,228.06 717.37,225.84 720.65,217.77 723.92,215.83 727.20,215.83 730.47,195.80 733.75,178.83 737.02,184.39 740.29,191.35 743.57,192.74 746.84,169.93 750.12,169.93 753.39,163.53 756.66,152.68 759.94,156.58 763.21,157.13 766.49,157.41 769.76,164.92 773.03,161.86 776.31,165.48 779.58,168.26 782.86,178.27 786.13,181.61 789.41,162.97 792.68,154.91 795.95,135.44 799.23,139.33 802.50,125.70 805.78,137.11 809.05,109.85 812.32,109.29 815.60,108.18 818.87,97.61 822.15,105.95 825.42,116.80 828.69,134.60 831.97,120.42 835.24,138.50 838.52,140.72 841.79,129.04 845.07,110.68 848.34,107.06 851.61,106.51 854.89,99.28 858.16,77.86 861.44,83.70 864.71,100.11 867.98,99.83 871.26,122.64 874.53,115.13 877.81,96.49 881.08,87.87 884.36,90.93 887.63,93.43 890.90,93.99 894.18,105.40 897.45,106.23 900.73,107.62 904.00,107.62" />
<text x="780.00" y="60.00" font-size="14" font-family="Arial" fill="#1f77b4" text-anchor="start">Close</text>
<polyline fill="none" stroke="#2ca02c" stroke-width="2" points="118.21,432.42 121.48,431.65 124.76,430.67 128.03,429.46 131.31,428.21 134.58,427.28 137.85,426.49 141.13,425.64 144.40,424.83 147.68,424.00 150.95,423.41 154.22,422.68 157.50,421.97 160.77,421.26 164.05,420.56 167.32,419.61 170.59,418.93 173.87,418.00 177.14,417.13 180.42,416.07 183.69,415.18 186.97,414.27 190.24,413.50 193.51,412.94 196.79,412.28 200.06,411.55 203.34,411.28 206.61,411.00 209.88,410.77 213.16,410.32 216.43,409.69 219.71,409.14 222.98,408.88 226.25,408.49 229.53,408.16 232.80,408.01 236.08,407.75 239.35,407.79 242.63,407.68 245.90,407.55 249.17,407.27 252.45,406.83 255.72,406.20 259.00,405.42 262.27,404.68 265.54,403.71 268.82,402.43 272.09,401.07 275.37,399.63 278.64,398.35 281.92,396.78 285.19,395.30 288.46,393.74 291.74,392.43 295.01,390.84 298.29,389.17 301.56,387.18 304.83,385.06 308.11,382.63 311.38,380.49 314.66,378.38 317.93,376.72 321.20,375.28 324.48,373.69 327.75,371.77 331.03,370.31 334.30,368.46 337.58,366.75 340.85,365.18 344.12,363.83 347.40,362.36 350.67,361.00 353.95,359.30 357.22,357.34 360.49,355.43 363.77,353.77 367.04,352.47 370.32,351.62 373.59,351.18 376.86,350.80 380.14,350.32 383.41,349.80 386.69,349.11 389.96,348.81 393.24,349.16 396.51,349.21 399.78,349.93 403.06,350.80 406.33,351.02 409.61,351.70 412.88,352.87 416.15,353.69 419.43,354.53 422.70,355.21 425.98,355.87 429.25,356.60 432.53,357.22 435.80,357.45 439.07,357.75 442.35,357.70 445.62,357.60 448.90,357.41 452.17,357.17 455.44,357.05 458.72,356.57 461.99,356.32 465.27,355.83 468.54,355.32 471.81,355.32 475.09,354.60 478.36,353.54 481.64,352.62 484.91,351.94 488.19,351.25 491.46,350.45 494.73,349.45 498.01,348.38 501.28,347.11 504.56,345.11 507.83,343.01 511.10,341.32 514.38,339.54 517.65,337.95 520.93,336.03 524.20,334.04 527.47,331.86 530.75,329.55 534.02,326.78 537.30,323.85 540.57,321.08 543.85,318.76 547.12,316.26 550.39,313.68 553.67,311.24 556.94,308.82 560.22,306.05 563.49,303.53 566.76,301.70 570.04,300.87 573.31,299.89 576.59,298.77 579.86,297.97 583.14,297.13 586.41,295.86 589.68,294.25 592.96,292.18 596.23,290.03 599.51,287.69 602.78,285.05 606.05,282.39 609.33,279.75 612.60,277.81 615.88,276.88 619.15,275.45 622.42,274.39 625.70,274.56 628.97,274.16 632.25,272.60 635.52,271.18 638.80,270.35 642.07,269.59 645.34,268.30 648.62,266.66 651.89,266.09 655.17,265.98 658.44,266.80 661.71,267.63 664.99,268.52 668.26,270.00 671.54,271.71 674.81,273.50 678.08,275.28 681.36,275.32 684.63,276.28 687.91,276.71 691.18,275.16 694.46,274.06 697.73,273.35 701.00,272.24 704.28,270.25 707.55,267.87 710.83,265.55 714.10,263.78 717.37,261.40 720.65,258.59 723.92,255.23 727.20,251.90 730.47,248.08 733.75,243.29 737.02,238.57 740.29,233.88 743.57,228.83 746.84,223.50 750.12,217.76 753.39,212.07 756.66,206.92 759.94,201.96 763.21,197.47 766.49,192.95 769.76,189.50 773.03,186.19 776.31,183.29 779.58,180.30 782.86,177.93 786.13,176.12 789.41,173.48 792.68,170.43 795.95,167.41 799.23,165.44 802.50,162.50 805.78,159.79 809.05,155.65 812.32,152.61 815.60,149.53 818.87,146.23 822.15,143.89 825.42,141.90 828.69,140.78 831.97,138.93 835.24,137.61 838.52,136.55 841.79,134.73 845.07,131.85 848.34,128.29 851.61,124.53 854.89,121.35 858.16,117.50 861.44,114.91 864.71,112.95 867.98,111.65 871.26,110.93 874.53,111.19 877.81,110.56 881.08,109.54 884.36,109.21 887.63,108.58 890.90,107.44 894.18,105.98 897.45,105.27 900.73,103.73 904.00,102.07" />
<text x="780.00" y="82.00" font-size="14" font-family="Arial" fill="#2ca02c" text-anchor="start">MA20</text>
<polyline fill="none" stroke="#ff7f0e" stroke-width="2" points="249.17,418.29 252.45,417.58 255.72,416.79 259.00,415.94 262.27,415.06 265.54,414.18 268.82,413.40 272.09,412.57 275.37,411.75 278.64,410.89 281.92,409.96 285.19,409.04 288.46,408.19 291.74,407.40 295.01,406.52 298.29,405.60 301.56,404.62 304.83,403.62 308.11,402.48 311.38,401.37 314.66,400.28 317.93,399.27 321.20,398.33 324.48,397.35 327.75,396.24 331.03,395.19 334.30,394.06 337.58,392.94 340.85,391.86 344.12,390.83 347.40,389.61 350.67,388.48 353.95,387.30 357.22,386.09 360.49,384.81 363.77,383.65 367.04,382.47 370.32,381.49 373.59,380.50 376.86,379.61 380.14,378.66 383.41,377.78 386.69,376.86 389.96,375.97 393.24,375.20 396.51,374.41 399.78,373.61 403.06,372.87 406.33,371.94 409.61,371.29 412.88,370.67 416.15,370.00 419.43,369.19 422.70,368.33 425.98,367.38 429.25,366.51 432.53,365.62 435.80,364.71 439.07,363.85 442.35,362.99 445.62,362.10 448.90,361.31 452.17,360.52 455.44,359.85 458.72,359.17 461.99,358.61 465.27,358.07 468.54,357.62 471.81,357.17 475.09,356.71 478.36,356.26 481.64,355.77 484.91,355.25 488.19,354.60 491.46,353.92 494.73,353.27 498.01,352.69 501.28,352.06 504.56,351.35 507.83,350.50 511.10,349.75 514.38,348.91 517.65,348.08 520.93,347.30 524.20,346.59 527.47,345.80 530.75,345.11 534.02,344.30 537.30,343.40 540.57,342.46 543.85,341.72 547.12,340.86 550.39,340.05 553.67,339.24 556.94,338.38 560.22,337.37 563.49,336.38 566.76,335.42 570.04,334.58 573.31,333.53 576.59,332.56 579.86,331.64 583.14,330.75 586.41,329.65 589.68,328.29 592.96,326.79 596.23,325.14 599.51,323.27 602.78,321.41 606.05,319.35 609.33,317.35 612.60,315.56 615.88,314.16 619.15,312.65 622.42,311.22 625.70,310.02 628.97,308.69 632.25,307.14 635.52,305.72 638.80,304.41 642.07,303.23 645.34,301.94 648.62,300.58 651.89,299.32 655.17,298.09 658.44,296.95 661.71,295.74 664.99,294.33 668.26,292.96 671.54,291.72 674.81,290.67 678.08,289.79 681.36,288.63 684.63,287.66 687.91,286.64 691.18,285.26 694.46,283.91 697.73,282.55 701.00,281.43 704.28,280.16 707.55,278.75 710.83,277.27 714.10,275.86 717.37,274.45 720.65,272.94 723.92,271.40 727.20,269.86 730.47,268.10 733.75,266.11 737.02,264.22 740.29,262.38 743.57,260.64 746.84,258.57 750.12,256.50 753.39,254.39 756.66,252.21 759.94,250.06 763.21,247.80 766.49,245.45 769.76,243.36 773.03,241.22 776.31,239.05 779.58,236.91 782.86,235.14 786.13,233.56 789.41,231.83 792.68,229.99 795.95,228.00 799.23,226.24 802.50,224.26 805.78,222.39 809.05,219.92 812.32,217.15 815.60,214.52 818.87,211.67 822.15,208.66 825.42,205.97 828.69,203.86 831.97,201.37 835.24,199.12 838.52,196.87 841.79,194.52 845.07,191.98 848.34,189.21 851.61,186.41 854.89,183.35 858.16,179.94 861.44,176.80 864.71,173.89 867.98,170.91 871.26,168.20 874.53,165.22 877.81,162.22 881.08,158.94 884.36,155.84 887.63,153.13 890.90,150.43 894.18,148.07 897.45,145.71 900.73,143.61 904.00,141.60" />
<text x="780.00" y="104.00" font-size="14" font-family="Arial" fill="#ff7f0e" text-anchor="start">MA60</text>
<polyline fill="none" stroke="#d62728" stroke-width="2" points="707.55,351.87 710.83,350.80 714.10,349.75 717.37,348.67 720.65,347.55 723.92,346.44 727.20,345.35 730.47,344.17 733.75,342.89 737.02,341.65 740.29,340.45 743.57,339.26 746.84,337.97 750.12,336.67 753.39,335.33 756.66,333.93 759.94,332.56 763.21,331.21 766.49,329.87 769.76,328.56 773.03,327.25 776.31,325.97 779.58,324.71 782.86,323.52 786.13,322.34 789.41,321.06 792.68,319.75 795.95,318.34 799.23,316.96 802.50,315.50 805.78,314.09 809.05,312.56 812.32,311.04 815.60,309.50 818.87,307.90 822.15,306.36 825.42,304.86 828.69,303.49 831.97,302.05 835.24,300.71 838.52,299.39 841.79,298.01 845.07,296.54 848.34,295.06 851.61,293.57 854.89,292.04 858.16,290.37 861.44,288.73 864.71,287.17 867.98,285.64 871.26,284.22 874.53,282.76 877.81,281.21 881.08,279.60 884.36,278.00 887.63,276.42 890.90,274.83 894.18,273.31 897.45,271.81 900.73,270.33 904.00,268.87" />
<text x="780.00" y="126.00" font-size="14" font-family="Arial" fill="#d62728" text-anchor="start">MA200</text>
</svg>