<svg xmlns="http://www.w3.org/2000/svg" width="960" height="520" viewBox="0 0 960 520"><rect width="100%" height="100%" fill="white" />
<text x="56.00" y="32.00" font-size="20" font-family="Arial" fill="#1f2933" text-anchor="start">元大台灣50(0050) Price and Moving Averages</text>
<line x1="56" y1="464" x2="904" y2="464" stroke="#cbd2d9" />
<line x1="56" y1="56" x2="56" y2="464" stroke="#cbd2d9" />
<text x="16.00" y="38.00" font-size="12" font-family="Arial" fill="#52606d" text-anchor="start">Price</text>
<line x1="56" y1="464.00" x2="904" y2="464.00" stroke="#edf2f7" />
<line x1="52" y1="464.00" x2="56" y2="464.00" stroke="#9fb3c8" />
<text x="48.00" y="468.00" font-size="11" font-family="Arial" fill="#52606d" text-anchor="end">43.3</text>
<line x1="56" y1="362.00" x2="904" y2="362.00" stroke="#edf2f7" />
<line x1="52" y1="362.00" x2="56" y2="362.00" stroke="#9fb3c8" />
<text x="48.00" y="366.00" font-size="11" font-family="Arial" fill="#52606d" text-anchor="end">61.0</text>
<line x1="56" y1="260.00" x2="904" y2="260.00" stroke="#edf2f7" />
<line x1="52" y1="260.00" x2="56" y2="260.00" stroke="#9fb3c8" />
<text x="48.00" y="264.00" font-size="11" font-family="Arial" fill="#52606d" text-anchor="end">78.8</text>
<line x1="56" y1="158.00" x2="904" y2="158.00" stroke="#edf2f7" />
<line x1="52" y1="158.00" x2="56" y2="158.00" stroke="#9fb3c8" />
<text x="48.00" y="162.00" font-size="11" font-family="Arial" fill="#52606d" text-anchor="end">96.5</text>
<line x1="56" y1="56.00" x2="904" y2="56.00" stroke="#edf2f7" />
<line x1="52" y1="56.00" x2="56" y2="56.00" stroke="#9fb3c8" />
<text x="48.00" y="60.00" font-size="11" font-family="Arial" fill="#52606d" text-anchor="end">114</text>
<line x1="56.00" y1="464" x2="56.00" y2="468" stroke="#9fb3c8" />
<text x="56.00" y="482.00" font-size="11" font-family="Arial" fill="#52606d" text-anchor="middle">07/01</text>
<line x1="226.25" y1="464" x2="226.25" y2="468" stroke="#9fb3c8" />
<text x="226.25" y="482.00" font-size="11" font-family="Arial" fill="#52606d" text-anchor="middle">09/11</text>
<line x1="396.51" y1="464" x2="396.51" y2="468" stroke="#9fb3c8" />
<text x="396.51" y="482.00" font-size="11" font-family="Arial" fill="#52606d" text-anchor="middle">11/28</text>
<line x1="563.49" y1="464" x2="563.49" y2="468" stroke="#9fb3c8" />
<text x="563.49" y="482.00" font-size="11" font-family="Arial" fill="#52606d" text-anchor="middle">02/11</text>
<line x1="733.75" y1="464" x2="733.75" y2="468" stroke="#9fb3c8" />
<text x="733.75" y="482.00" font-size="11" font-family="Arial" fill="#52606d" text-anchor="middle">05/11</text>
<line x1="904.00" y1="464" x2="904.00" y2="468" stroke="#9fb3c8" />
<text x="904.00" y="482.00" font-size="11" font-family="Arial" fill="#52606d" text-anchor="middle">07/23</text>
<polyline fill="none" stroke="#1f77b4" stroke-width="2" points="56.00,440.52 59.27,440.47 62.55,436.72 65.82,439.29 69.10,440.91 72.37,442.14 75.64,439.35 78.92,436.22 82.19,435.04 85.47,436.66 88.74,432.92 92.02,430.68 95.29,429.01 98.56,424.81 101.84,425.88 105.11,427.85 108.39,427.01 111.66,425.32 114.93,425.88 118.21,425.04 121.48,428.42 124.76,425.32 128.03,422.22 131.31,424.76 134.58,426.45 137.85,422.79 141.13,425.32 144.40,417.16 147.68,417.16 150.95,414.90 154.22,414.62 157.50,412.09 160.77,413.22 164.05,413.22 167.32,412.37 170.59,412.93 173.87,421.38 177.14,419.69 180.42,421.10 183.69,415.75 186.97,415.47 190.24,414.06 193.51,416.87 196.79,416.87 200.06,419.69 203.34,419.69 206.61,419.97 209.88,418.00 213.16,414.90 216.43,412.09 219.71,408.99 222.98,403.08 226.25,400.27 229.53,397.17 232.80,397.17 236.08,392.95 239.35,395.20 242.63,391.82 245.90,391.54 249.17,389.29 252.45,383.38 255.72,383.66 259.00,384.79 262.27,390.13 265.54,387.04 268.82,385.35 272.09,379.16 275.37,374.37 278.64,365.08 281.92,368.18 285.19,365.64 288.46,369.02 291.74,370.71 295.01,364.52 298.29,357.76 301.56,363.11 304.83,357.20 308.11,356.64 311.38,359.45 314.66,361.42 317.93,353.26 321.20,355.79 324.48,349.88 327.75,349.88 331.03,347.91 334.30,351.29 337.58,352.41 340.85,356.92 344.12,356.07 347.40,360.30 350.67,355.79 353.95,358.33 357.22,356.64 360.49,358.33 363.77,365.08 367.04,363.95 370.32,372.12 373.59,374.37 376.86,363.95 380.14,375.50 383.41,377.18 386.69,372.68 389.96,367.05 393.24,363.95 396.51,361.42 399.78,366.21 403.06,365.08 406.33,361.70 409.61,362.27 412.88,359.17 416.15,353.82 419.43,354.38 422.70,351.85 425.98,355.79 429.25,355.23 432.53,358.89 435.80,361.98 439.07,363.95 442.35,363.95 445.62,360.58 448.90,355.51 452.17,353.82 455.44,352.98 458.72,349.88 461.99,345.10 465.27,345.66 468.54,343.12 471.81,335.52 475.09,321.17 478.36,316.10 481.64,319.20 484.91,317.79 488.19,319.20 491.46,316.38 494.73,314.41 498.01,314.13 501.28,314.69 504.56,307.09 507.83,303.72 511.10,303.72 514.38,307.94 517.65,302.52 520.93,299.95 524.20,299.95 527.47,295.38 530.75,288.81 534.02,291.38 537.30,297.95 540.57,304.23 543.85,295.95 547.12,296.23 550.39,301.37 553.67,301.94 556.94,290.24 560.22,281.39 563.49,271.69 566.76,270.54 570.04,259.12 573.31,249.42 576.59,249.13 579.86,253.70 583.14,262.84 586.41,280.82 589.68,270.54 592.96,273.68 596.23,292.24 599.51,283.10 602.78,265.98 606.05,275.11 609.33,278.82 612.60,280.82 615.88,274.83 619.15,268.26 622.42,278.54 625.70,279.11 628.97,288.53 632.25,287.67 635.52,277.39 638.80,279.68 642.07,284.25 645.34,290.53 648.62,299.37 651.89,281.68 655.17,290.24 658.44,282.53 661.71,260.27 664.99,260.55 668.26,251.42 671.54,252.27 674.81,238.00 678.08,232.01 681.36,227.15 684.63,232.01 687.91,229.72 691.18,221.44 694.46,219.45 697.73,219.45 701.00,198.89 704.28,181.48 707.55,187.19 710.83,194.33 714.10,195.75 717.37,172.34 720.65,172.34 723.92,165.78 727.20,154.65 730.47,158.64 733.75,159.21 737.02,159.50 740.29,167.21 743.57,164.07 746.84,167.78 750.12,170.63 753.39,180.91 756.66,184.33 759.94,165.21 763.21,156.93 766.49,136.95 769.76,140.94 773.03,126.96 776.31,138.66 779.58,110.69 782.86,110.11 786.13,108.97 789.41,98.12 792.68,106.69 795.95,117.82 799.23,136.09 802.50,121.53 805.78,140.09 809.05,142.37 812.32,130.38 815.60,111.54 818.87,107.83 822.15,107.26 825.42,99.84 828.69,77.86 831.97,83.85 835.24,100.69 838.52,100.41 841.79,123.82 845.07,116.11 848.34,96.98 851.61,88.13 854.89,91.27 858.16,93.84 861.44,94.41 864.71,106.12 867.98,106.97 871.26,108.40 874.53,108.40 877.81,107.26 881.08,116.39 884.36,105.55 887.63,104.98 890.90,140.66 894.18,146.08 897.45,123.68 900.73,115.93 904.00,115.64" />
<text x="780.00" y="60.00" font-size="14" font-family="Arial" fill="#1f77b4" text-anchor="start">Close</text>
<polyline fill="none" stroke="#2ca02c" stroke-width="2" points="118.21,433.09 121.48,432.48 124.76,431.72 128.03,431.00 131.31,430.27 134.58,429.55 137.85,428.58 141.13,427.88 144.40,426.93 147.68,426.03 150.95,424.94 154.22,424.03 157.50,423.10 160.77,422.31 164.05,421.73 167.32,421.05 170.59,420.31 173.87,420.03 177.14,419.75 180.42,419.51 183.69,419.04 186.97,418.39 190.24,417.83 193.51,417.56 196.79,417.17 200.06,416.83 203.34,416.68 206.61,416.41 209.88,416.45 213.16,416.34 216.43,416.20 219.71,415.92 222.98,415.47 226.25,414.82 229.53,414.02 232.80,413.26 236.08,412.26 239.35,410.95 242.63,409.56 245.90,408.08 249.17,406.76 252.45,405.15 255.72,403.63 259.00,402.03 262.27,400.69 265.54,399.06 268.82,397.34 272.09,395.30 275.37,393.12 278.64,390.63 281.92,388.43 285.19,386.26 288.46,384.56 291.74,383.08 295.01,381.45 298.29,379.48 301.56,377.99 304.83,376.09 308.11,374.33 311.38,372.72 314.66,371.33 317.93,369.82 321.20,368.43 324.48,366.69 327.75,364.67 331.03,362.72 334.30,361.01 337.58,359.68 340.85,358.80 344.12,358.35 347.40,357.96 350.67,357.47 353.95,356.93 357.22,356.23 360.49,355.92 363.77,356.28 367.04,356.33 370.32,357.07 373.59,357.96 376.86,358.18 380.14,358.89 383.41,360.08 386.69,360.93 389.96,361.79 393.24,362.49 396.51,363.17 399.78,363.91 403.06,364.55 406.33,364.79 409.61,365.09 412.88,365.04 416.15,364.94 419.43,364.74 422.70,364.50 425.98,364.38 429.25,363.88 432.53,363.63 435.80,363.12 439.07,362.60 442.35,362.60 445.62,361.86 448.90,360.77 452.17,359.83 455.44,359.13 458.72,358.42 461.99,357.61 465.27,356.58 468.54,355.48 471.81,354.17 475.09,352.12 478.36,349.96 481.64,348.23 484.91,346.40 488.19,344.77 491.46,342.80 494.73,340.76 498.01,338.52 501.28,336.16 504.56,333.31 507.83,330.30 511.10,327.46 514.38,325.08 517.65,322.52 520.93,319.86 524.20,317.37 527.47,314.88 530.75,312.04 534.02,309.45 537.30,307.57 540.57,306.73 543.85,305.72 547.12,304.57 550.39,303.75 553.67,302.89 556.94,301.58 560.22,299.93 563.49,297.81 566.76,295.60 570.04,293.20 573.31,290.49 576.59,287.76 579.86,285.04 583.14,283.06 586.41,282.10 589.68,280.63 592.96,279.55 596.23,279.72 599.51,279.31 602.78,277.71 606.05,276.25 609.33,275.40 612.60,274.63 615.88,273.30 619.15,271.61 622.42,271.03 625.70,270.91 628.97,271.76 632.25,272.61 635.52,273.53 638.80,275.04 642.07,276.80 645.34,278.64 648.62,280.46 651.89,280.51 655.17,281.49 658.44,281.93 661.71,280.33 664.99,279.21 668.26,278.48 671.54,277.34 674.81,275.30 678.08,272.86 681.36,270.47 684.63,268.66 687.91,266.22 691.18,263.34 694.46,259.88 697.73,256.47 701.00,252.55 704.28,247.64 707.55,242.78 710.83,237.97 714.10,232.79 717.37,227.32 720.65,221.43 723.92,215.59 727.20,210.31 730.47,205.22 733.75,200.61 737.02,195.97 740.29,192.43 743.57,189.03 746.84,186.06 750.12,182.99 753.39,180.55 756.66,178.70 759.94,175.98 763.21,172.86 766.49,169.76 769.76,167.73 773.03,164.72 776.31,161.94 779.58,157.69 782.86,154.57 786.13,151.41 789.41,148.02 792.68,145.63 795.95,143.58 799.23,142.43 802.50,140.53 805.78,139.17 809.05,138.09 812.32,136.22 815.60,133.27 818.87,129.61 822.15,125.76 825.42,122.49 828.69,118.54 831.97,115.88 835.24,113.87 838.52,112.54 841.79,111.80 845.07,112.07 848.34,111.41 851.61,110.37 854.89,110.03 858.16,109.39 861.44,108.22 864.71,106.72 867.98,105.99 871.26,104.41 874.53,102.71 877.81,101.55 881.08,101.79 884.36,101.68 887.63,101.56 890.90,103.61 894.18,107.02 897.45,109.01 900.73,109.77 904.00,110.53" />
<text x="780.00" y="82.00" font-size="14" font-family="Arial" fill="#2ca02c" text-anchor="start">MA20</text>
<polyline fill="none" stroke="#ff7f0e" stroke-width="2" points="249.17,419.63 252.45,418.68 255.72,417.73 259.00,416.86 262.27,416.04 265.54,415.15 268.82,414.20 272.09,413.20 275.37,412.17 278.64,411.00 281.92,409.86 285.19,408.74 288.46,407.71 291.74,406.74 295.01,405.73 298.29,404.60 301.56,403.52 304.83,402.35 308.11,401.21 311.38,400.10 314.66,399.04 317.93,397.79 321.20,396.63 324.48,395.43 327.75,394.18 331.03,392.87 334.30,391.68 337.58,390.46 340.85,389.46 344.12,388.44 347.40,387.53 350.67,386.55 353.95,385.65 357.22,384.71 360.49,383.80 363.77,383.01 367.04,382.19 370.32,381.37 373.59,380.61 376.86,379.66 380.14,378.99 383.41,378.35 386.69,377.66 389.96,376.83 393.24,375.95 396.51,374.98 399.78,374.09 403.06,373.17 406.33,372.24 409.61,371.36 412.88,370.48 416.15,369.56 419.43,368.74 422.70,367.94 425.98,367.25 429.25,366.55 432.53,365.98 435.80,365.43 439.07,364.96 442.35,364.50 445.62,364.03 448.90,363.56 452.17,363.06 455.44,362.53 458.72,361.86 461.99,361.16 465.27,360.50 468.54,359.90 471.81,359.25 475.09,358.52 478.36,357.65 481.64,356.88 484.91,356.03 488.19,355.17 491.46,354.37 494.73,353.64 498.01,352.83 501.28,352.12 504.56,351.29 507.83,350.36 511.10,349.40 514.38,348.65 517.65,347.76 520.93,346.93 524.20,346.09 527.47,345.22 530.75,344.18 534.02,343.16 537.30,342.18 540.57,341.31 543.85,340.24 547.12,339.25 550.39,338.30 553.67,337.39 556.94,336.25 560.22,334.86 563.49,333.32 566.76,331.63 570.04,329.71 573.31,327.80 576.59,325.69 579.86,323.63 583.14,321.80 586.41,320.37 589.68,318.81 592.96,317.35 596.23,316.11 599.51,314.75 602.78,313.15 606.05,311.70 609.33,310.36 612.60,309.14 615.88,307.82 619.15,306.42 622.42,305.14 625.70,303.87 628.97,302.70 632.25,301.46 635.52,300.01 638.80,298.61 642.07,297.34 645.34,296.25 648.62,295.35 651.89,294.16 655.17,293.16 658.44,292.12 661.71,290.70 664.99,289.32 668.26,287.92 671.54,286.77 674.81,285.47 678.08,284.02 681.36,282.51 684.63,281.05 687.91,279.61 691.18,278.06 694.46,276.48 697.73,274.89 701.00,273.09 704.28,271.05 707.55,269.11 710.83,267.22 714.10,265.44 717.37,263.31 720.65,261.19 723.92,259.03 727.20,256.79 730.47,254.58 733.75,252.26 737.02,249.85 740.29,247.71 743.57,245.50 746.84,243.28 750.12,241.09 753.39,239.27 756.66,237.65 759.94,235.87 763.21,233.98 766.49,231.94 769.76,230.14 773.03,228.10 776.31,226.18 779.58,223.65 782.86,220.80 786.13,218.11 789.41,215.18 792.68,212.09 795.95,209.34 799.23,207.17 802.50,204.61 805.78,202.30 809.05,199.99 812.32,197.58 815.60,194.97 818.87,192.13 822.15,189.26 825.42,186.12 828.69,182.62 831.97,179.40 835.24,176.41 838.52,173.35 841.79,170.57 845.07,167.52 848.34,164.44 851.61,161.07 854.89,157.88 858.16,155.11 861.44,152.34 864.71,149.92 867.98,147.50 871.26,145.34 874.53,143.28 877.81,141.28 881.08,139.35 884.36,137.28 887.63,135.34 890.90,134.03 894.18,132.80 897.45,131.55 900.73,130.46 904.00,129.27" />
<text x="780.00" y="104.00" font-size="14" font-family="Arial" fill="#ff7f0e" text-anchor="start">MA60</text>
<polyline fill="none" stroke="#d62728" stroke-width="2" points="707.55,348.58 710.83,347.34 714.10,346.12 717.37,344.80 720.65,343.46 723.92,342.09 727.20,340.65 730.47,339.25 733.75,337.86 737.02,336.48 740.29,335.14 743.57,333.79 746.84,332.48 750.12,331.19 753.39,329.97 756.66,328.76 759.94,327.45 763.21,326.10 766.49,324.65 769.76,323.23 773.03,321.74 776.31,320.29 779.58,318.72 782.86,317.16 786.13,315.58 789.41,313.94 792.68,312.36 795.95,310.82 799.23,309.41 802.50,307.93 805.78,306.56 809.05,305.20 812.32,303.79 815.60,302.28 818.87,300.76 822.15,299.23 825.42,297.66 828.69,295.95 831.97,294.27 835.24,292.67 838.52,291.09 841.79,289.63 845.07,288.14 848.34,286.54 851.61,284.90 854.89,283.26 858.16,281.63 861.44,280.00 864.71,278.44 867.98,276.90 871.26,275.38 874.53,273.88 877.81,272.40 881.08,270.98 884.36,269.52 887.63,268.06 890.90,266.80 894.18,265.55 897.45,264.21 900.73,262.83 904.00,261.47" />
<text x="780.00" y="126.00" font-size="14" font-family="Arial" fill="#d62728" text-anchor="start">MA200</text>
</svg>