<svg xmlns="http://www.w3.org/2000/svg" width="960" height="520" viewBox="0 0 960 520"><rect width="100%" height="100%" fill="white" />
<text x="56.00" y="32.00" font-size="20" font-family="Arial" fill="#1f2933" text-anchor="start">元大台灣50(0050) Price and Moving Averages</text>
<line x1="56" y1="464" x2="904" y2="464" stroke="#cbd2d9" />
<line x1="56" y1="56" x2="56" y2="464" stroke="#cbd2d9" />
<text x="16.00" y="38.00" font-size="12" font-family="Arial" fill="#52606d" text-anchor="start">Price</text>
<line x1="56" y1="464.00" x2="904" y2="464.00" stroke="#edf2f7" />
<line x1="52" y1="464.00" x2="56" y2="464.00" stroke="#9fb3c8" />
<text x="48.00" y="468.00" font-size="11" font-family="Arial" fill="#52606d" text-anchor="end">43.3</text>
<line x1="56" y1="362.00" x2="904" y2="362.00" stroke="#edf2f7" />
<line x1="52" y1="362.00" x2="56" y2="362.00" stroke="#9fb3c8" />
<text x="48.00" y="366.00" font-size="11" font-family="Arial" fill="#52606d" text-anchor="end">61.3</text>
<line x1="56" y1="260.00" x2="904" y2="260.00" stroke="#edf2f7" />
<line x1="52" y1="260.00" x2="56" y2="260.00" stroke="#9fb3c8" />
<text x="48.00" y="264.00" font-size="11" font-family="Arial" fill="#52606d" text-anchor="end">79.2</text>
<line x1="56" y1="158.00" x2="904" y2="158.00" stroke="#edf2f7" />
<line x1="52" y1="158.00" x2="56" y2="158.00" stroke="#9fb3c8" />
<text x="48.00" y="162.00" font-size="11" font-family="Arial" fill="#52606d" text-anchor="end">97.1</text>
<line x1="56" y1="56.00" x2="904" y2="56.00" stroke="#edf2f7" />
<line x1="52" y1="56.00" x2="56" y2="56.00" stroke="#9fb3c8" />
<text x="48.00" y="60.00" font-size="11" font-family="Arial" fill="#52606d" text-anchor="end">115</text>
<line x1="56.00" y1="464" x2="56.00" y2="468" stroke="#9fb3c8" />
<text x="56.00" y="482.00" font-size="11" font-family="Arial" fill="#52606d" text-anchor="middle">06/25</text>
<line x1="226.25" y1="464" x2="226.25" y2="468" stroke="#9fb3c8" />
<text x="226.25" y="482.00" font-size="11" font-family="Arial" fill="#52606d" text-anchor="middle">09/05</text>
<line x1="396.51" y1="464" x2="396.51" y2="468" stroke="#9fb3c8" />
<text x="396.51" y="482.00" font-size="11" font-family="Arial" fill="#52606d" text-anchor="middle">11/24</text>
<line x1="563.49" y1="464" x2="563.49" y2="468" stroke="#9fb3c8" />
<text x="563.49" y="482.00" font-size="11" font-family="Arial" fill="#52606d" text-anchor="middle">02/05</text>
<line x1="733.75" y1="464" x2="733.75" y2="468" stroke="#9fb3c8" />
<text x="733.75" y="482.00" font-size="11" font-family="Arial" fill="#52606d" text-anchor="middle">05/05</text>
<line x1="904.00" y1="464" x2="904.00" y2="468" stroke="#9fb3c8" />
<text x="904.00" y="482.00" font-size="11" font-family="Arial" fill="#52606d" text-anchor="middle">07/17</text>
<polyline fill="none" stroke="#1f77b4" stroke-width="2" points="56.00,442.14 59.27,441.81 62.55,441.53 65.82,441.14 69.10,439.58 72.37,439.52 75.64,435.79 78.92,438.35 82.19,439.97 85.47,441.19 88.74,438.41 92.02,435.28 95.29,434.11 98.56,435.73 101.84,431.99 105.11,429.76 108.39,428.09 111.66,423.91 114.93,424.98 118.21,426.94 121.48,426.10 124.76,424.42 128.03,424.98 131.31,424.13 134.58,427.50 137.85,424.42 141.13,421.33 144.40,423.85 147.68,425.54 150.95,421.89 154.22,424.42 157.50,416.27 160.77,416.27 164.05,414.03 167.32,413.75 170.59,411.22 173.87,412.34 177.14,412.34 180.42,411.50 183.69,412.06 186.97,420.48 190.24,418.80 193.51,420.20 196.79,414.87 200.06,414.59 203.34,413.19 206.61,415.99 209.88,415.99 213.16,418.80 216.43,418.80 219.71,419.08 222.98,417.12 226.25,414.03 229.53,411.22 232.80,408.13 236.08,402.24 239.35,399.43 242.63,396.34 245.90,396.34 249.17,392.13 252.45,394.37 255.72,391.01 259.00,390.72 262.27,388.48 265.54,382.58 268.82,382.86 272.09,383.99 275.37,389.32 278.64,386.23 281.92,384.55 285.19,378.37 288.46,373.60 291.74,364.33 295.01,367.42 298.29,364.90 301.56,368.26 304.83,369.95 308.11,363.77 311.38,357.03 314.66,362.37 317.93,356.47 321.20,355.91 324.48,358.72 327.75,360.68 331.03,352.54 334.30,355.07 337.58,349.17 340.85,349.17 344.12,347.21 347.40,350.58 350.67,351.70 353.95,356.19 357.22,355.35 360.49,359.56 363.77,355.07 367.04,357.60 370.32,355.91 373.59,357.60 376.86,364.33 380.14,363.21 383.41,371.35 386.69,373.60 389.96,363.21 393.24,374.72 396.51,376.41 399.78,371.91 403.06,366.30 406.33,363.21 409.61,360.68 412.88,365.46 416.15,364.33 419.43,360.96 422.70,361.53 425.98,358.44 429.25,353.10 432.53,353.66 435.80,351.14 439.07,355.07 442.35,354.51 445.62,358.16 448.90,361.25 452.17,363.21 455.44,363.21 458.72,359.84 461.99,354.79 465.27,353.10 468.54,352.26 471.81,349.17 475.09,344.40 478.36,344.96 481.64,342.43 484.91,334.85 488.19,320.54 491.46,315.48 494.73,318.57 498.01,317.17 501.28,318.57 504.56,315.76 507.83,313.80 511.10,313.52 514.38,314.08 517.65,306.50 520.93,303.13 524.20,303.13 527.47,307.34 530.75,301.93 534.02,299.37 537.30,299.37 540.57,294.81 543.85,288.26 547.12,290.83 550.39,297.38 553.67,303.64 556.94,295.38 560.22,295.67 563.49,300.79 566.76,301.36 570.04,289.69 573.31,280.86 576.59,271.18 579.86,270.04 583.14,258.65 586.41,248.97 589.68,248.69 592.96,253.24 596.23,262.35 599.51,280.29 602.78,270.04 606.05,273.17 609.33,291.68 612.60,282.57 615.88,265.49 619.15,274.60 622.42,278.30 625.70,280.29 628.97,274.31 632.25,267.76 635.52,278.01 638.80,278.58 642.07,287.98 645.34,287.13 648.62,276.88 651.89,279.15 655.17,283.71 658.44,289.97 661.71,298.80 664.99,281.15 668.26,289.69 671.54,282.00 674.81,259.79 678.08,260.08 681.36,250.97 684.63,251.82 687.91,237.58 691.18,231.61 694.46,226.76 697.73,231.61 701.00,229.33 704.28,221.07 707.55,219.08 710.83,219.08 714.10,198.58 717.37,181.21 720.65,186.90 723.92,194.02 727.20,195.45 730.47,172.10 733.75,172.10 737.02,165.55 740.29,154.45 743.57,158.43 746.84,159.00 750.12,159.29 753.39,166.97 756.66,163.84 759.94,167.54 763.21,170.39 766.49,180.64 769.76,184.06 773.03,164.98 776.31,156.72 779.58,136.79 782.86,140.78 786.13,126.83 789.41,138.50 792.68,110.60 795.95,110.03 799.23,108.89 802.50,98.07 805.78,106.61 809.05,117.72 812.32,135.94 815.60,121.42 818.87,139.93 822.15,142.20 825.42,130.25 828.69,111.45 831.97,107.75 835.24,107.18 838.52,99.78 841.79,77.86 845.07,83.84 848.34,100.63 851.61,100.35 854.89,123.70 858.16,116.01 861.44,96.93 864.71,88.11 867.98,91.24 871.26,93.80 874.53,94.37 877.81,106.04 881.08,106.90 884.36,108.32 887.63,108.32 890.90,107.18 894.18,116.29 897.45,105.47 900.73,104.91 904.00,140.50" />
<text x="780.00" y="60.00" font-size="14" font-family="Arial" fill="#1f77b4" text-anchor="start">Close</text>
<polyline fill="none" stroke="#2ca02c" stroke-width="2" points="118.21,435.51 121.48,434.71 124.76,433.84 128.03,433.01 131.31,432.16 134.58,431.56 137.85,430.80 141.13,430.08 144.40,429.36 147.68,428.63 150.95,427.67 154.22,426.97 157.50,426.02 160.77,425.13 164.05,424.04 167.32,423.13 170.59,422.20 173.87,421.41 177.14,420.84 180.42,420.16 183.69,419.42 186.97,419.14 190.24,418.86 193.51,418.62 196.79,418.15 200.06,417.51 203.34,416.95 206.61,416.68 209.88,416.29 213.16,415.95 216.43,415.80 219.71,415.53 222.98,415.57 226.25,415.46 229.53,415.32 232.80,415.04 236.08,414.59 239.35,413.94 242.63,413.14 245.90,412.38 249.17,411.39 252.45,410.08 255.72,408.69 259.00,407.22 262.27,405.90 265.54,404.30 268.82,402.78 272.09,401.18 275.37,399.85 278.64,398.22 281.92,396.51 285.19,394.47 288.46,392.30 291.74,389.81 295.01,387.62 298.29,385.46 301.56,383.76 304.83,382.29 308.11,380.66 311.38,378.69 314.66,377.21 317.93,375.31 321.20,373.56 324.48,371.96 327.75,370.57 331.03,369.06 334.30,367.67 337.58,365.93 340.85,363.93 344.12,361.98 347.40,360.28 350.67,358.94 353.95,358.07 357.22,357.62 360.49,357.23 363.77,356.74 367.04,356.21 370.32,355.50 373.59,355.19 376.86,355.56 380.14,355.60 383.41,356.35 386.69,357.23 389.96,357.46 393.24,358.16 396.51,359.35 399.78,360.19 403.06,361.05 406.33,361.75 409.61,362.42 412.88,363.17 416.15,363.80 419.43,364.04 422.70,364.35 425.98,364.29 429.25,364.19 432.53,364.00 435.80,363.76 439.07,363.63 442.35,363.14 445.62,362.89 448.90,362.38 452.17,361.86 455.44,361.86 458.72,361.12 461.99,360.04 465.27,359.10 468.54,358.40 471.81,357.69 475.09,356.88 478.36,355.85 481.64,354.76 484.91,353.45 488.19,351.40 491.46,349.26 494.73,347.53 498.01,345.71 501.28,344.08 504.56,342.11 507.83,340.08 511.10,337.84 514.38,335.49 517.65,332.65 520.93,329.65 524.20,326.81 527.47,324.44 530.75,321.88 534.02,319.23 537.30,316.74 540.57,314.27 543.85,311.43 547.12,308.85 550.39,306.98 553.67,306.13 556.94,305.13 560.22,303.98 563.49,303.16 566.76,302.30 570.04,301.00 573.31,299.35 576.59,297.23 579.86,295.03 583.14,292.64 586.41,289.93 589.68,287.21 592.96,284.51 596.23,282.53 599.51,281.57 602.78,280.11 606.05,279.02 609.33,279.20 612.60,278.78 615.88,277.19 619.15,275.74 622.42,274.88 625.70,274.11 628.97,272.79 632.25,271.11 635.52,270.53 638.80,270.41 642.07,271.25 645.34,272.11 648.62,273.02 651.89,274.53 655.17,276.28 658.44,278.11 661.71,279.94 664.99,279.98 668.26,280.96 671.54,281.40 674.81,279.81 678.08,278.68 681.36,277.96 684.63,276.82 687.91,274.78 691.18,272.35 694.46,269.97 697.73,268.16 701.00,265.73 704.28,262.85 707.55,259.41 710.83,256.01 714.10,252.09 717.37,247.19 720.65,242.35 723.92,237.56 727.20,232.39 730.47,226.94 733.75,221.06 737.02,215.23 740.29,209.97 743.57,204.88 746.84,200.29 750.12,195.66 753.39,192.13 756.66,188.74 759.94,185.78 763.21,182.72 766.49,180.28 769.76,178.43 773.03,175.73 776.31,172.61 779.58,169.52 782.86,167.50 786.13,164.50 789.41,161.72 792.68,157.48 795.95,154.38 799.23,151.21 802.50,147.84 805.78,145.45 809.05,143.41 812.32,142.26 815.60,140.37 818.87,139.01 822.15,137.93 825.42,136.07 828.69,133.12 831.97,129.48 835.24,125.63 838.52,122.37 841.79,118.43 845.07,115.78 848.34,113.77 851.61,112.45 854.89,111.71 858.16,111.98 861.44,111.33 864.71,110.29 867.98,109.94 871.26,109.30 874.53,108.14 877.81,106.64 881.08,105.92 884.36,104.34 887.63,102.64 890.90,101.49 894.18,101.73 897.45,101.62 900.73,101.50 904.00,103.54" />
<text x="780.00" y="82.00" font-size="14" font-family="Arial" fill="#2ca02c" text-anchor="start">MA20</text>
<polyline fill="none" stroke="#ff7f0e" stroke-width="2" points="249.17,422.11 252.45,421.31 255.72,420.46 259.00,419.62 262.27,418.74 265.54,417.79 268.82,416.84 272.09,415.98 275.37,415.16 278.64,414.27 281.92,413.32 285.19,412.32 288.46,411.30 291.74,410.13 295.01,408.99 298.29,407.88 301.56,406.85 304.83,405.88 308.11,404.88 311.38,403.75 314.66,402.67 317.93,401.51 321.20,400.37 324.48,399.26 327.75,398.21 331.03,396.96 334.30,395.80 337.58,394.60 340.85,393.35 344.12,392.05 347.40,390.86 350.67,389.65 353.95,388.65 357.22,387.63 360.49,386.72 363.77,385.75 367.04,384.85 370.32,383.91 373.59,383.00 376.86,382.21 380.14,381.40 383.41,380.58 386.69,379.83 389.96,378.88 393.24,378.21 396.51,377.57 399.78,376.88 403.06,376.06 406.33,375.18 409.61,374.21 412.88,373.32 416.15,372.41 419.43,371.47 422.70,370.59 425.98,369.71 429.25,368.80 432.53,367.99 435.80,367.18 439.07,366.50 442.35,365.80 445.62,365.23 448.90,364.68 452.17,364.22 455.44,363.76 458.72,363.28 461.99,362.82 465.27,362.32 468.54,361.79 471.81,361.12 475.09,360.43 478.36,359.77 481.64,359.17 484.91,358.52 488.19,357.79 491.46,356.93 494.73,356.15 498.01,355.30 501.28,354.45 504.56,353.65 507.83,352.93 511.10,352.11 514.38,351.40 517.65,350.58 520.93,349.65 524.20,348.70 527.47,347.94 530.75,347.06 534.02,346.23 537.30,345.40 540.57,344.52 543.85,343.48 547.12,342.47 550.39,341.49 553.67,340.63 556.94,339.56 560.22,338.57 563.49,337.62 566.76,336.71 570.04,335.58 573.31,334.19 576.59,332.66 579.86,330.97 583.14,329.05 586.41,327.15 589.68,325.05 592.96,322.99 596.23,321.17 599.51,319.73 602.78,318.18 606.05,316.72 609.33,315.49 612.60,314.13 615.88,312.54 619.15,311.09 622.42,309.76 625.70,308.54 628.97,307.22 632.25,305.83 635.52,304.55 638.80,303.28 642.07,302.11 645.34,300.87 648.62,299.44 651.89,298.04 655.17,296.77 658.44,295.69 661.71,294.78 664.99,293.60 668.26,292.60 671.54,291.56 674.81,290.14 678.08,288.77 681.36,287.37 684.63,286.23 687.91,284.93 691.18,283.48 694.46,281.97 697.73,280.52 701.00,279.08 704.28,277.54 707.55,275.96 710.83,274.38 714.10,272.58 717.37,270.55 720.65,268.61 723.92,266.73 727.20,264.95 730.47,262.83 733.75,260.71 737.02,258.55 740.29,256.32 743.57,254.12 746.84,251.81 750.12,249.40 753.39,247.26 756.66,245.07 759.94,242.85 763.21,240.66 766.49,238.85 769.76,237.23 773.03,235.46 776.31,233.57 779.58,231.54 782.86,229.74 786.13,227.71 789.41,225.80 792.68,223.27 795.95,220.43 799.23,217.74 802.50,214.83 805.78,211.74 809.05,208.99 812.32,206.83 815.60,204.28 818.87,201.98 822.15,199.67 825.42,197.27 828.69,194.67 831.97,191.83 835.24,188.97 838.52,185.84 841.79,182.35 845.07,179.13 848.34,176.16 851.61,173.10 854.89,170.33 858.16,167.28 861.44,164.21 864.71,160.85 867.98,157.67 871.26,154.91 874.53,152.14 877.81,149.73 881.08,147.31 884.36,145.16 887.63,143.11 890.90,141.11 894.18,139.19 897.45,137.13 900.73,135.19 904.00,133.88" />
<text x="780.00" y="104.00" font-size="14" font-family="Arial" fill="#ff7f0e" text-anchor="start">MA60</text>
<polyline fill="none" stroke="#d62728" stroke-width="2" points="707.55,352.78 710.83,351.66 714.10,350.44 717.37,349.14 720.65,347.87 723.92,346.64 727.20,345.42 730.47,344.10 733.75,342.77 737.02,341.40 740.29,339.97 743.57,338.57 746.84,337.19 750.12,335.81 753.39,334.47 756.66,333.13 759.94,331.82 763.21,330.53 766.49,329.31 769.76,328.11 773.03,326.80 776.31,325.45 779.58,324.01 782.86,322.59 786.13,321.10 789.41,319.66 792.68,318.09 795.95,316.53 799.23,314.96 802.50,313.32 805.78,311.75 809.05,310.21 812.32,308.81 815.60,307.34 818.87,305.97 822.15,304.61 825.42,303.20 828.69,301.70 831.97,300.18 835.24,298.65 838.52,297.09 841.79,295.38 845.07,293.70 848.34,292.11 851.61,290.53 854.89,289.08 858.16,287.59 861.44,286.00 864.71,284.36 867.98,282.72 871.26,281.10 874.53,279.47 877.81,277.92 881.08,276.38 884.36,274.87 887.63,273.37 890.90,271.89 894.18,270.48 897.45,269.02 900.73,267.57 904.00,266.31" />
<text x="780.00" y="126.00" font-size="14" font-family="Arial" fill="#d62728" text-anchor="start">MA200</text>
</svg>