<svg xmlns="http://www.w3.org/2000/svg" width="960" height="520" viewBox="0 0 960 520"><rect width="100%" height="100%" fill="white" />
<text x="56.00" y="32.00" font-size="20" font-family="Arial" fill="#1f2933" text-anchor="start">台積電(2330) Price and Moving Averages</text>
<line x1="56" y1="464" x2="904" y2="464" stroke="#cbd2d9" />
<line x1="56" y1="56" x2="56" y2="464" stroke="#cbd2d9" />
<text x="16.00" y="38.00" font-size="12" font-family="Arial" fill="#52606d" text-anchor="start">Price</text>
<line x1="56" y1="464.00" x2="904" y2="464.00" stroke="#edf2f7" />
<line x1="52" y1="464.00" x2="56" y2="464.00" stroke="#9fb3c8" />
<text x="48.00" y="468.00" font-size="11" font-family="Arial" fill="#52606d" text-anchor="end">916</text>
<line x1="56" y1="362.00" x2="904" y2="362.00" stroke="#edf2f7" />
<line x1="52" y1="362.00" x2="56" y2="362.00" stroke="#9fb3c8" />
<text x="48.00" y="366.00" font-size="11" font-family="Arial" fill="#52606d" text-anchor="end">1,337</text>
<line x1="56" y1="260.00" x2="904" y2="260.00" stroke="#edf2f7" />
<line x1="52" y1="260.00" x2="56" y2="260.00" stroke="#9fb3c8" />
<text x="48.00" y="264.00" font-size="11" font-family="Arial" fill="#52606d" text-anchor="end">1,758</text>
<line x1="56" y1="158.00" x2="904" y2="158.00" stroke="#edf2f7" />
<line x1="52" y1="158.00" x2="56" y2="158.00" stroke="#9fb3c8" />
<text x="48.00" y="162.00" font-size="11" font-family="Arial" fill="#52606d" text-anchor="end">2,179</text>
<line x1="56" y1="56.00" x2="904" y2="56.00" stroke="#edf2f7" />
<line x1="52" y1="56.00" x2="56" y2="56.00" stroke="#9fb3c8" />
<text x="48.00" y="60.00" font-size="11" font-family="Arial" fill="#52606d" text-anchor="end">2,600</text>
<line x1="56.00" y1="464" x2="56.00" y2="468" stroke="#9fb3c8" />
<text x="56.00" y="482.00" font-size="11" font-family="Arial" fill="#52606d" text-anchor="middle">06/12</text>
<line x1="226.25" y1="464" x2="226.25" y2="468" stroke="#9fb3c8" />
<text x="226.25" y="482.00" font-size="11" font-family="Arial" fill="#52606d" text-anchor="middle">08/26</text>
<line x1="396.51" y1="464" x2="396.51" y2="468" stroke="#9fb3c8" />
<text x="396.51" y="482.00" font-size="11" font-family="Arial" fill="#52606d" text-anchor="middle">11/12</text>
<line x1="563.49" y1="464" x2="563.49" y2="468" stroke="#9fb3c8" />
<text x="563.49" y="482.00" font-size="11" font-family="Arial" fill="#52606d" text-anchor="middle">01/26</text>
<line x1="733.75" y1="464" x2="733.75" y2="468" stroke="#9fb3c8" />
<text x="733.75" y="482.00" font-size="11" font-family="Arial" fill="#52606d" text-anchor="middle">04/22</text>
<line x1="904.00" y1="464" x2="904.00" y2="468" stroke="#9fb3c8" />
<text x="904.00" y="482.00" font-size="11" font-family="Arial" fill="#52606d" text-anchor="middle">07/07</text>
<polyline fill="none" stroke="#1f77b4" stroke-width="2" points="56.00,436.16 59.27,439.75 62.55,440.95 65.82,436.16 69.10,433.77 72.37,438.56 75.64,433.77 78.92,442.14 82.19,434.97 85.47,430.19 88.74,428.99 92.02,427.80 95.29,432.58 98.56,426.60 101.84,426.60 105.11,425.40 108.39,426.60 111.66,427.80 114.93,427.80 118.21,425.40 121.48,423.01 124.76,423.01 128.03,424.21 131.31,420.62 134.58,415.84 137.85,415.84 141.13,409.86 144.40,411.06 147.68,415.84 150.95,412.25 154.22,412.25 157.50,412.25 160.77,412.25 164.05,414.64 167.32,409.86 170.59,408.67 173.87,414.64 177.14,411.06 180.42,417.04 183.69,403.88 186.97,405.08 190.24,403.88 193.51,403.88 196.79,399.10 200.06,405.08 203.34,403.88 206.61,403.88 209.88,402.69 213.16,414.64 216.43,411.06 219.71,414.64 222.98,406.28 226.25,405.08 229.53,401.49 232.80,408.67 236.08,408.67 239.35,407.47 242.63,408.67 245.90,408.67 249.17,408.67 252.45,403.88 255.72,403.88 259.00,399.10 262.27,393.12 265.54,389.54 268.82,384.75 272.09,385.95 275.37,378.75 278.64,382.35 281.92,377.55 285.19,382.35 288.46,375.15 291.74,364.34 295.01,364.34 298.29,369.14 301.56,373.95 304.83,372.75 308.11,367.94 311.38,358.34 314.66,349.94 317.93,341.54 321.20,346.34 324.48,340.34 327.75,346.34 331.03,343.94 334.30,334.33 337.58,329.53 340.85,337.94 344.12,330.73 347.40,330.73 350.67,335.53 353.95,337.94 357.22,330.73 360.49,331.93 363.77,324.73 367.04,324.73 370.32,325.93 373.59,323.53 376.86,324.73 380.14,335.53 383.41,334.33 386.69,335.53 389.96,331.93 393.24,334.33 396.51,331.93 399.78,335.53 403.06,342.74 406.33,339.14 409.61,348.74 412.88,351.14 416.15,336.73 419.43,353.54 422.70,355.94 425.98,346.34 429.25,340.34 432.53,341.54 435.80,340.34 439.07,347.54 442.35,342.74 445.62,337.94 448.90,339.14 452.17,335.53 455.44,327.13 458.72,330.73 461.99,324.73 465.27,331.96 468.54,329.55 471.81,336.77 475.09,340.39 478.36,341.59 481.64,341.59 484.91,341.59 488.19,333.16 491.46,327.14 494.73,325.94 498.01,322.32 501.28,317.50 504.56,319.91 507.83,312.69 511.10,304.26 514.38,283.78 517.65,275.35 520.93,282.58 524.20,280.17 527.47,281.37 530.75,278.97 534.02,274.15 537.30,274.15 540.57,278.97 543.85,266.92 547.12,262.10 550.39,258.49 553.67,266.92 556.94,262.10 560.22,259.70 563.49,263.31 566.76,257.29 570.04,247.65 573.31,251.26 576.59,258.49 579.86,260.90 583.14,252.47 586.41,256.08 589.68,260.90 592.96,257.29 596.23,248.86 599.51,233.20 602.78,224.77 606.05,228.38 609.33,212.72 612.60,200.68 615.88,205.50 619.15,210.32 622.42,219.95 625.70,236.81 628.97,228.38 632.25,230.79 635.52,250.06 638.80,240.43 642.07,218.75 645.34,231.99 648.62,236.81 651.89,241.63 655.17,234.14 658.44,225.68 661.71,238.97 664.99,241.39 668.26,248.64 671.54,248.64 674.81,240.18 678.08,241.39 681.36,246.22 684.63,255.89 687.91,260.72 691.18,237.76 694.46,248.64 697.73,236.55 701.00,214.81 704.28,213.60 707.55,202.72 710.83,205.14 714.10,189.43 717.37,183.39 720.65,182.18 723.92,195.47 727.20,196.68 730.47,190.64 733.75,190.64 737.02,183.39 740.29,158.02 743.57,138.68 746.84,150.77 750.12,159.22 753.39,170.10 756.66,136.27 759.94,142.31 763.21,142.31 766.49,127.81 769.76,132.64 773.03,145.93 776.31,141.10 779.58,149.56 782.86,137.47 786.13,138.68 789.41,144.72 792.68,153.18 795.95,158.02 799.23,147.14 802.50,141.10 805.78,127.81 809.05,137.47 812.32,130.22 815.60,131.43 818.87,116.93 822.15,116.93 825.42,110.89 828.69,100.02 831.97,109.68 835.24,114.52 838.52,131.43 841.79,129.02 845.07,141.10 848.34,140.86 851.61,126.32 854.89,110.57 858.16,104.51 861.44,108.15 864.71,102.09 867.98,77.86 871.26,82.70 874.53,106.93 877.81,106.93 881.08,119.05 884.36,111.78 887.63,102.09 890.90,79.07 894.18,88.76 897.45,93.61 900.73,89.97 904.00,94.82" />
<text x="780.00" y="60.00" font-size="14" font-family="Arial" fill="#1f77b4" text-anchor="start">Close</text>
<polyline fill="none" stroke="#2ca02c" stroke-width="2" points="118.21,432.10 121.48,431.44 124.76,430.61 128.03,429.77 131.31,428.99 134.58,428.09 137.85,426.96 141.13,425.76 144.40,424.21 147.68,423.25 150.95,422.36 154.22,421.52 157.50,420.74 160.77,419.73 164.05,419.13 167.32,418.29 170.59,417.45 173.87,416.86 177.14,416.02 180.42,415.48 183.69,414.41 186.97,413.51 190.24,412.55 193.51,411.54 196.79,410.46 200.06,409.92 203.34,409.32 206.61,409.03 209.88,408.61 213.16,408.55 216.43,408.49 219.71,408.61 222.98,408.31 226.25,407.95 229.53,407.29 232.80,407.23 236.08,407.23 239.35,406.87 242.63,406.75 245.90,406.33 249.17,406.57 252.45,406.51 255.72,406.51 259.00,406.28 262.27,405.98 265.54,405.20 268.82,404.24 272.09,403.35 275.37,402.15 278.64,400.53 281.92,398.86 285.19,397.24 288.46,395.69 291.74,393.65 295.01,391.79 298.29,389.82 301.56,388.08 304.83,386.34 308.11,384.31 311.38,381.79 314.66,378.86 317.93,375.74 321.20,372.86 324.48,369.92 327.75,367.58 331.03,365.30 334.30,362.78 337.58,359.96 340.85,357.92 344.12,355.34 347.40,353.00 350.67,350.66 353.95,348.80 357.22,347.12 360.49,345.50 363.77,343.28 367.04,340.82 370.32,338.48 373.59,336.25 376.86,334.57 380.14,333.85 383.41,333.49 386.69,332.95 389.96,332.53 393.24,331.93 396.51,331.33 399.78,331.39 403.06,332.05 406.33,332.11 409.61,333.01 412.88,334.03 416.15,334.09 419.43,334.87 422.70,336.13 425.98,336.85 429.25,337.64 432.53,338.48 435.80,339.20 439.07,340.40 442.35,341.30 445.62,341.42 448.90,341.66 452.17,341.66 455.44,341.42 458.72,341.24 461.99,340.88 465.27,340.70 468.54,340.04 471.81,339.92 475.09,339.50 478.36,339.03 481.64,339.27 484.91,338.67 488.19,337.53 491.46,336.57 494.73,335.85 498.01,334.89 501.28,333.75 504.56,332.37 507.83,330.87 511.10,329.18 514.38,326.41 517.65,323.41 520.93,321.18 524.20,318.65 527.47,316.48 530.75,313.83 534.02,311.06 537.30,307.93 540.57,304.86 543.85,301.13 547.12,297.15 550.39,293.00 553.67,289.68 556.94,286.43 560.22,283.12 563.49,280.17 566.76,277.16 570.04,273.55 573.31,270.47 576.59,268.19 579.86,267.04 583.14,265.90 586.41,264.57 589.68,263.61 592.96,262.40 596.23,260.90 599.51,258.85 602.78,256.38 606.05,253.85 609.33,251.14 612.60,248.07 615.88,245.42 619.15,242.59 622.42,240.49 625.70,239.34 628.97,237.59 632.25,236.27 635.52,236.39 638.80,235.85 642.07,233.86 645.34,232.42 648.62,231.63 651.89,230.91 655.17,229.57 658.44,227.99 661.71,227.50 664.99,227.91 668.26,229.10 671.54,230.11 674.81,231.49 678.08,233.52 681.36,235.56 684.63,237.84 687.91,239.88 691.18,239.92 694.46,240.94 697.73,241.22 701.00,239.46 704.28,238.12 707.55,237.32 710.83,235.98 714.10,233.61 717.37,230.69 720.65,228.10 723.92,226.59 727.20,224.47 730.47,221.93 733.75,219.03 737.02,215.77 740.29,211.66 743.57,206.53 746.84,201.76 750.12,196.92 753.39,192.39 756.66,187.32 759.94,182.00 763.21,177.29 766.49,172.94 769.76,168.89 773.03,166.05 776.31,162.85 779.58,160.85 782.86,158.56 786.13,156.38 789.41,153.85 792.68,151.67 795.95,150.04 799.23,147.87 802.50,145.75 805.78,144.24 809.05,144.18 812.32,143.15 815.60,141.76 818.87,139.11 822.15,138.14 825.42,136.57 828.69,134.45 831.97,133.55 835.24,132.64 838.52,131.92 841.79,131.31 845.07,130.89 848.34,131.06 851.61,130.44 854.89,128.73 858.16,126.30 861.44,123.80 864.71,121.55 867.98,118.39 871.26,116.13 874.53,114.61 877.81,113.44 881.08,112.82 884.36,112.57 887.63,111.82 890.90,110.23 894.18,109.67 897.45,108.87 900.73,107.64 904.00,105.81" />
<text x="780.00" y="82.00" font-size="14" font-family="Arial" fill="#2ca02c" text-anchor="start">MA20</text>
<polyline fill="none" stroke="#ff7f0e" stroke-width="2" points="249.17,417.69 252.45,417.16 255.72,416.56 259.00,415.86 262.27,415.14 265.54,414.41 268.82,413.51 272.09,412.71 275.37,411.65 278.64,410.78 281.92,409.90 285.19,409.12 288.46,408.25 291.74,407.11 295.01,406.07 298.29,405.11 301.56,404.26 304.83,403.36 308.11,402.36 311.38,401.20 314.66,399.95 317.93,398.59 321.20,397.31 324.48,395.91 327.75,394.67 331.03,393.47 334.30,392.12 337.58,390.78 340.85,389.56 344.12,388.14 347.40,386.78 350.67,385.50 353.95,384.26 357.22,382.91 360.49,381.53 363.77,380.11 367.04,378.71 370.32,377.23 373.59,375.77 376.86,374.23 380.14,373.09 383.41,371.92 386.69,370.78 389.96,369.58 393.24,368.50 396.51,367.28 399.78,366.14 403.06,365.12 406.33,364.06 409.61,362.96 412.88,361.96 416.15,360.67 419.43,359.79 422.70,358.97 425.98,358.05 429.25,356.91 432.53,355.79 435.80,354.67 439.07,353.65 442.35,352.55 445.62,351.38 448.90,350.30 452.17,349.16 455.44,347.96 458.72,346.92 461.99,345.84 465.27,344.96 468.54,344.02 471.81,343.32 475.09,342.62 478.36,342.02 481.64,341.34 484.91,340.78 488.19,340.26 491.46,339.64 494.73,338.92 498.01,338.06 501.28,337.14 504.56,336.34 507.83,335.58 511.10,334.82 514.38,333.85 517.65,332.67 520.93,331.71 524.20,330.61 527.47,329.56 530.75,328.64 534.02,327.72 537.30,326.65 540.57,325.79 543.85,324.73 547.12,323.50 550.39,322.18 553.67,321.12 556.94,319.95 560.22,318.87 563.49,317.85 566.76,316.70 570.04,315.44 573.31,314.21 576.59,312.93 579.86,311.70 583.14,310.32 586.41,309.06 589.68,307.83 592.96,306.59 596.23,305.14 599.51,303.32 602.78,301.41 606.05,299.41 609.33,297.10 612.60,294.83 615.88,292.36 619.15,289.94 622.42,287.83 625.70,286.10 628.97,284.22 632.25,282.39 635.52,280.77 638.80,279.06 642.07,277.08 645.34,275.29 648.62,273.65 651.89,272.22 655.17,270.61 658.44,268.96 661.71,267.41 664.99,265.94 668.26,264.47 671.54,262.94 674.81,261.25 678.08,259.58 681.36,257.99 684.63,256.70 687.91,255.60 691.18,254.13 694.46,252.90 697.73,251.55 701.00,249.80 704.28,248.15 707.55,246.46 710.83,245.14 714.10,243.71 717.37,242.06 720.65,240.43 723.92,238.99 727.20,237.62 730.47,236.23 733.75,234.84 737.02,233.25 740.29,231.43 743.57,229.37 746.84,227.58 750.12,225.78 753.39,224.25 756.66,222.19 759.94,220.18 763.21,218.26 766.49,216.26 769.76,214.29 773.03,212.41 776.31,210.41 779.58,208.70 782.86,206.72 786.13,204.68 789.41,202.81 792.68,201.21 795.95,199.96 799.23,198.67 802.50,197.21 805.78,195.80 809.05,194.74 812.32,193.49 815.60,192.17 818.87,190.46 822.15,188.46 825.42,186.50 828.69,184.32 831.97,181.98 835.24,179.88 838.52,178.43 841.79,176.71 845.07,175.12 848.34,173.44 851.61,171.64 854.89,169.72 858.16,167.48 861.44,165.26 864.71,162.82 867.98,159.97 871.26,157.35 874.53,155.11 877.81,152.78 881.08,150.50 884.36,148.02 887.63,145.76 890.90,142.93 894.18,140.47 897.45,138.45 900.73,136.39 904.00,134.59" />
<text x="780.00" y="104.00" font-size="14" font-family="Arial" fill="#ff7f0e" text-anchor="start">MA60</text>
<polyline fill="none" stroke="#d62728" stroke-width="2" points="707.55,337.58 710.83,336.42 714.10,335.17 717.37,333.88 720.65,332.61 723.92,331.42 727.20,330.21 730.47,328.99 733.75,327.74 737.02,326.48 740.29,325.12 743.57,323.67 746.84,322.28 750.12,320.91 753.39,319.63 756.66,318.18 759.94,316.76 763.21,315.34 766.49,313.84 769.76,312.37 773.03,310.97 776.31,309.56 779.58,308.19 782.86,306.76 786.13,305.35 789.41,303.99 792.68,302.68 795.95,301.42 799.23,300.10 802.50,298.73 805.78,297.31 809.05,295.93 812.32,294.52 815.60,293.12 818.87,291.63 822.15,290.17 825.42,288.68 828.69,287.10 831.97,285.60 835.24,284.08 838.52,282.72 841.79,281.34 845.07,280.03 848.34,278.71 851.61,277.35 854.89,275.88 858.16,274.38 861.44,272.90 864.71,271.40 867.98,269.71 871.26,268.07 874.53,266.53 877.81,265.04 881.08,263.61 884.36,262.16 887.63,260.62 890.90,258.98 894.18,257.38 897.45,255.81 900.73,254.21 904.00,252.64" />
<text x="780.00" y="126.00" font-size="14" font-family="Arial" fill="#d62728" text-anchor="start">MA200</text>
</svg>