<svg xmlns="http://www.w3.org/2000/svg" width="960" height="520" viewBox="0 0 960 520"><rect width="100%" height="100%" fill="white" />
<text x="56.00" y="32.00" font-size="20" font-family="Arial" fill="#1f2933" text-anchor="start">台達電(2308) Price and Moving Averages</text>
<line x1="56" y1="464" x2="904" y2="464" stroke="#cbd2d9" />
<line x1="56" y1="56" x2="56" y2="464" stroke="#cbd2d9" />
<text x="16.00" y="38.00" font-size="12" font-family="Arial" fill="#52606d" text-anchor="start">Price</text>
<line x1="56" y1="464.00" x2="904" y2="464.00" stroke="#edf2f7" />
<line x1="52" y1="464.00" x2="56" y2="464.00" stroke="#9fb3c8" />
<text x="48.00" y="468.00" font-size="11" font-family="Arial" fill="#52606d" text-anchor="end">262</text>
<line x1="56" y1="362.00" x2="904" y2="362.00" stroke="#edf2f7" />
<line x1="52" y1="362.00" x2="56" y2="362.00" stroke="#9fb3c8" />
<text x="48.00" y="366.00" font-size="11" font-family="Arial" fill="#52606d" text-anchor="end">855</text>
<line x1="56" y1="260.00" x2="904" y2="260.00" stroke="#edf2f7" />
<line x1="52" y1="260.00" x2="56" y2="260.00" stroke="#9fb3c8" />
<text x="48.00" y="264.00" font-size="11" font-family="Arial" fill="#52606d" text-anchor="end">1,448</text>
<line x1="56" y1="158.00" x2="904" y2="158.00" stroke="#edf2f7" />
<line x1="52" y1="158.00" x2="56" y2="158.00" stroke="#9fb3c8" />
<text x="48.00" y="162.00" font-size="11" font-family="Arial" fill="#52606d" text-anchor="end">2,041</text>
<line x1="56" y1="56.00" x2="904" y2="56.00" stroke="#edf2f7" />
<line x1="52" y1="56.00" x2="56" y2="56.00" stroke="#9fb3c8" />
<text x="48.00" y="60.00" font-size="11" font-family="Arial" fill="#52606d" text-anchor="end">2,634</text>
<line x1="56.00" y1="464" x2="56.00" y2="468" stroke="#9fb3c8" />
<text x="56.00" y="482.00" font-size="11" font-family="Arial" fill="#52606d" text-anchor="middle">06/13</text>
<line x1="226.25" y1="464" x2="226.25" y2="468" stroke="#9fb3c8" />
<text x="226.25" y="482.00" font-size="11" font-family="Arial" fill="#52606d" text-anchor="middle">08/27</text>
<line x1="396.51" y1="464" x2="396.51" y2="468" stroke="#9fb3c8" />
<text x="396.51" y="482.00" font-size="11" font-family="Arial" fill="#52606d" text-anchor="middle">11/13</text>
<line x1="563.49" y1="464" x2="563.49" y2="468" stroke="#9fb3c8" />
<text x="563.49" y="482.00" font-size="11" font-family="Arial" fill="#52606d" text-anchor="middle">01/27</text>
<line x1="733.75" y1="464" x2="733.75" y2="468" stroke="#9fb3c8" />
<text x="733.75" y="482.00" font-size="11" font-family="Arial" fill="#52606d" text-anchor="middle">04/23</text>
<line x1="904.00" y1="464" x2="904.00" y2="468" stroke="#9fb3c8" />
<text x="904.00" y="482.00" font-size="11" font-family="Arial" fill="#52606d" text-anchor="middle">07/08</text>
<polyline fill="none" stroke="#1f77b4" stroke-width="2" points="56.00,442.14 59.27,441.72 62.55,441.47 65.82,440.52 69.10,439.93 72.37,440.61 75.64,440.61 78.92,437.70 82.19,436.59 85.47,437.19 88.74,436.50 92.02,438.39 95.29,435.82 98.56,435.56 101.84,430.51 105.11,430.86 108.39,432.05 111.66,431.80 114.93,431.88 118.21,426.49 121.48,426.41 124.76,428.12 128.03,424.53 131.31,423.50 134.58,423.67 137.85,421.96 141.13,420.93 144.40,421.27 147.68,420.08 150.95,420.42 154.22,420.59 157.50,419.73 160.77,419.22 164.05,418.37 167.32,412.03 170.59,407.59 173.87,400.91 177.14,402.80 180.42,402.45 183.69,400.06 186.97,399.89 190.24,399.20 193.51,393.56 196.79,394.41 200.06,391.67 203.34,391.33 206.61,395.95 209.88,402.11 213.16,398.18 216.43,395.44 219.71,393.38 222.98,391.84 226.25,385.86 229.53,387.74 232.80,387.40 236.08,391.33 239.35,391.84 242.63,392.70 245.90,390.82 249.17,384.83 252.45,384.83 255.72,374.90 259.00,365.84 262.27,366.86 265.54,365.84 268.82,366.01 272.09,365.15 275.37,366.01 278.64,356.42 281.92,357.11 285.19,353.86 288.46,356.25 291.74,356.60 295.01,357.79 298.29,363.95 301.56,362.93 304.83,360.02 308.11,356.08 311.38,347.87 314.66,340.17 317.93,341.20 321.20,338.12 324.48,332.81 327.75,339.31 331.03,335.38 334.30,333.67 337.58,338.12 340.85,335.38 344.12,334.52 347.40,334.52 350.67,336.23 353.95,325.97 357.22,325.11 360.49,327.68 363.77,336.23 367.04,338.80 370.32,340.85 373.59,342.22 376.86,343.59 380.14,341.71 383.41,343.93 386.69,341.02 389.96,342.74 393.24,343.59 396.51,345.13 399.78,351.29 403.06,352.32 406.33,355.40 409.61,356.08 412.88,345.82 416.15,355.91 419.43,356.25 422.70,353.34 425.98,347.36 429.25,347.87 432.53,349.58 435.80,342.56 439.07,339.83 442.35,338.46 445.62,338.12 448.90,341.54 452.17,341.54 455.44,342.91 458.72,343.42 461.99,347.36 465.27,348.55 468.54,351.29 471.81,354.88 475.09,356.77 478.36,356.60 481.64,353.17 484.91,345.99 488.19,347.70 491.46,345.64 494.73,345.47 498.01,344.45 501.28,344.62 504.56,344.28 507.83,338.80 511.10,336.23 514.38,329.39 517.65,332.81 520.93,336.23 524.20,335.38 527.47,328.53 530.75,332.81 534.02,327.68 537.30,330.24 540.57,316.56 543.85,317.41 547.12,315.70 550.39,314.84 553.67,296.02 556.94,293.46 560.22,298.59 563.49,295.17 566.76,290.03 570.04,294.31 573.31,300.30 576.59,308.00 579.86,301.16 583.14,302.01 586.41,312.28 589.68,310.57 592.96,307.14 596.23,306.29 599.51,293.46 602.78,285.76 606.05,272.07 609.33,263.51 612.60,264.37 615.88,265.22 619.15,279.77 622.42,294.31 625.70,280.62 628.97,283.19 632.25,300.30 635.52,288.32 638.80,269.50 642.07,274.63 645.34,272.07 648.62,276.34 651.89,262.66 655.17,258.38 658.44,260.09 661.71,256.67 664.99,267.79 668.26,266.93 671.54,243.83 674.81,249.82 678.08,250.68 681.36,254.96 684.63,272.92 687.91,256.67 691.18,264.37 694.46,249.82 697.73,224.16 701.00,227.58 704.28,212.18 707.55,211.32 710.83,209.61 714.10,203.62 717.37,193.36 720.65,194.21 723.92,183.95 727.20,164.27 730.47,164.27 733.75,170.26 737.02,154.00 740.29,163.41 743.57,145.45 746.84,138.60 750.12,138.60 753.39,129.19 756.66,138.60 759.94,130.90 763.21,118.92 766.49,132.61 769.76,124.91 773.03,133.47 776.31,138.60 779.58,140.31 782.86,154.00 786.13,163.41 789.41,181.38 792.68,181.38 795.95,161.70 799.23,150.58 802.50,117.21 805.78,106.95 809.05,77.86 812.32,100.10 815.60,90.69 818.87,94.97 822.15,105.23 825.42,88.98 828.69,94.11 831.97,115.50 835.24,123.20 838.52,95.82 841.79,132.61 845.07,139.46 848.34,130.05 851.61,130.90 854.89,127.48 858.16,138.38 861.44,139.24 864.71,139.24 867.98,151.28 871.26,165.04 874.53,168.48 877.81,197.73 881.08,181.39 884.36,173.65 887.63,166.76 890.90,170.21 894.18,152.14 897.45,165.90 900.73,183.97 904.00,184.83" />
<text x="780.00" y="60.00" font-size="14" font-family="Arial" fill="#1f77b4" text-anchor="start">Close</text>
<polyline fill="none" stroke="#2ca02c" stroke-width="2" points="118.21,436.42 121.48,435.63 124.76,434.95 128.03,434.10 131.31,433.25 134.58,432.44 137.85,431.51 141.13,430.52 144.40,429.70 147.68,428.88 150.95,428.04 154.22,427.24 157.50,426.31 160.77,425.48 164.05,424.62 167.32,423.70 170.59,422.53 173.87,420.98 177.14,419.53 180.42,418.05 183.69,416.73 186.97,415.41 190.24,413.96 193.51,412.41 196.79,410.96 200.06,409.36 203.34,407.83 206.61,406.58 209.88,405.62 213.16,404.52 216.43,403.27 219.71,401.91 222.98,400.52 226.25,398.85 229.53,397.32 232.80,396.09 236.08,395.27 239.35,394.82 242.63,394.32 245.90,393.73 249.17,392.97 252.45,392.22 255.72,391.01 259.00,389.62 262.27,388.24 265.54,386.95 268.82,385.68 272.09,384.14 275.37,382.34 278.64,380.25 281.92,378.33 285.19,376.36 288.46,374.58 291.74,373.12 295.01,371.62 298.29,370.45 301.56,369.03 304.83,367.44 308.11,365.60 311.38,363.46 314.66,361.22 317.93,359.04 321.20,357.20 324.48,355.55 327.75,354.17 331.03,352.65 334.30,351.03 337.58,349.68 340.85,348.15 344.12,347.06 347.40,345.93 350.67,345.05 353.95,343.53 357.22,341.96 360.49,340.45 363.77,339.07 367.04,337.86 370.32,336.90 373.59,336.21 376.86,335.99 380.14,336.07 383.41,336.21 386.69,336.35 389.96,336.85 393.24,337.06 396.51,337.55 399.78,338.43 403.06,339.14 406.33,340.14 409.61,341.22 412.88,341.79 416.15,342.77 419.43,344.28 422.70,345.70 425.98,346.68 429.25,347.26 432.53,347.80 435.80,347.89 439.07,347.77 442.35,347.51 445.62,347.33 448.90,347.21 452.17,347.24 455.44,347.24 458.72,347.24 461.99,347.35 465.27,347.21 468.54,347.16 471.81,347.13 475.09,347.17 478.36,347.71 481.64,347.57 484.91,347.06 488.19,346.77 491.46,346.69 494.73,346.57 498.01,346.31 501.28,346.41 504.56,346.64 507.83,346.65 511.10,346.56 514.38,345.95 517.65,345.52 520.93,345.18 524.20,344.78 527.47,343.84 530.75,343.05 534.02,341.87 537.30,340.64 540.57,338.63 543.85,336.67 547.12,334.80 550.39,333.24 553.67,330.66 556.94,328.05 560.22,325.70 563.49,323.24 566.76,320.51 570.04,318.01 573.31,316.09 576.59,314.67 579.86,313.26 583.14,311.72 586.41,310.52 589.68,309.28 592.96,308.21 596.23,306.89 599.51,305.18 602.78,302.95 606.05,300.73 609.33,298.03 612.60,295.47 615.88,292.99 619.15,292.17 622.42,292.22 625.70,291.32 628.97,290.72 632.25,291.23 635.52,290.93 638.80,289.39 642.07,287.72 645.34,286.27 648.62,284.99 651.89,282.50 655.17,279.90 658.44,277.54 661.71,275.06 664.99,273.78 668.26,272.84 671.54,271.43 674.81,270.74 678.08,270.06 681.36,269.54 684.63,269.20 687.91,267.32 691.18,266.51 694.46,264.84 697.73,261.03 701.00,257.99 704.28,255.13 707.55,251.96 710.83,248.84 714.10,245.20 717.37,241.74 720.65,238.53 723.92,234.72 727.20,230.10 730.47,224.93 733.75,220.09 737.02,215.60 740.29,211.28 743.57,206.02 746.84,200.20 750.12,193.48 753.39,187.11 756.66,180.82 759.94,174.88 763.21,169.61 766.49,164.87 769.76,160.50 773.03,156.61 776.31,153.06 779.58,149.89 782.86,147.93 786.13,146.39 789.41,146.26 792.68,147.11 795.95,146.99 799.23,146.00 802.50,144.16 805.78,141.34 809.05,137.96 812.32,136.03 815.60,133.64 818.87,131.93 822.15,130.26 825.42,128.16 828.69,126.92 831.97,126.07 835.24,125.98 838.52,124.10 841.79,123.80 845.07,123.76 848.34,122.56 851.61,120.93 854.89,118.24 858.16,116.09 861.44,114.97 864.71,114.40 867.98,116.10 871.26,119.01 874.53,123.54 877.81,128.42 881.08,132.96 884.36,136.89 887.63,139.97 890.90,144.03 894.18,146.93 897.45,149.45 900.73,152.49 904.00,156.94" />
<text x="780.00" y="82.00" font-size="14" font-family="Arial" fill="#2ca02c" text-anchor="start">MA20</text>
<polyline fill="none" stroke="#ff7f0e" stroke-width="2" points="249.17,415.37 252.45,414.42 255.72,413.31 259.00,412.04 262.27,410.82 265.54,409.58 268.82,408.34 272.09,407.08 275.37,405.89 278.64,404.55 281.92,403.22 285.19,401.84 288.46,400.47 291.74,399.15 295.01,397.85 298.29,396.74 301.56,395.61 304.83,394.41 308.11,393.15 311.38,391.75 314.66,390.31 317.93,388.89 321.20,387.39 324.48,385.86 327.75,384.46 331.03,382.99 334.30,381.51 337.58,380.13 340.85,378.70 344.12,377.28 347.40,375.85 350.67,374.44 353.95,372.88 357.22,371.31 360.49,369.80 363.77,368.53 367.04,367.39 370.32,366.39 373.59,365.38 376.86,364.40 380.14,363.42 383.41,362.49 386.69,361.52 389.96,360.67 393.24,359.83 396.51,359.05 399.78,358.38 403.06,357.66 406.33,356.88 409.61,356.18 412.88,355.35 416.15,354.72 419.43,354.13 422.70,353.59 425.98,352.92 429.25,352.26 432.53,351.56 435.80,350.74 439.07,349.86 442.35,348.99 445.62,348.21 448.90,347.49 452.17,346.93 455.44,346.55 458.72,346.16 461.99,345.85 465.27,345.56 468.54,345.33 471.81,345.14 475.09,345.15 478.36,345.14 481.64,345.13 484.91,344.96 488.19,344.81 491.46,344.61 494.73,344.30 498.01,343.99 501.28,343.73 504.56,343.54 507.83,343.39 511.10,343.32 514.38,343.12 517.65,343.03 520.93,343.09 524.20,343.03 527.47,342.91 530.75,342.90 534.02,342.72 537.30,342.64 540.57,342.34 543.85,342.05 547.12,341.71 550.39,341.53 553.67,341.04 556.94,340.47 560.22,339.84 563.49,339.12 566.76,338.27 570.04,337.47 573.31,336.75 576.59,336.19 579.86,335.47 583.14,334.82 586.41,334.32 589.68,333.77 592.96,333.13 596.23,332.38 599.51,331.40 602.78,330.24 606.05,328.84 609.33,327.47 612.60,325.94 615.88,324.43 619.15,323.20 622.42,322.32 625.70,321.20 628.97,320.09 632.25,319.38 635.52,318.53 638.80,317.38 642.07,316.32 645.34,315.16 648.62,314.07 651.89,312.74 655.17,311.32 658.44,309.87 661.71,308.33 664.99,306.94 668.26,305.48 671.54,303.59 674.81,301.81 678.08,300.11 681.36,298.59 684.63,297.34 687.91,295.86 691.18,294.51 694.46,292.93 697.73,290.92 701.00,288.98 704.28,286.87 707.55,284.79 710.83,282.79 714.10,280.64 717.37,278.26 720.65,275.90 723.92,273.49 727.20,270.68 730.47,267.96 733.75,265.29 737.02,262.58 740.29,260.02 743.57,257.18 746.84,254.24 750.12,251.62 753.39,248.88 756.66,246.22 759.94,243.48 763.21,240.63 766.49,237.93 769.76,235.01 773.03,232.10 776.31,229.39 779.58,226.69 782.86,224.06 786.13,221.60 789.41,219.51 792.68,217.43 795.95,215.23 799.23,212.98 802.50,210.40 805.78,207.79 809.05,204.68 812.32,201.93 815.60,198.77 818.87,195.45 822.15,192.53 825.42,189.29 828.69,185.86 831.97,182.98 835.24,180.54 838.52,177.56 841.79,175.23 845.07,172.95 848.34,170.74 851.61,168.62 854.89,166.41 858.16,164.44 861.44,162.29 864.71,160.16 867.98,158.62 871.26,157.21 874.53,155.84 877.81,154.89 881.08,153.36 884.36,151.98 887.63,150.35 890.90,149.02 894.18,147.82 897.45,146.79 900.73,146.32 904.00,145.88" />
<text x="780.00" y="104.00" font-size="14" font-family="Arial" fill="#ff7f0e" text-anchor="start">MA60</text>
<polyline fill="none" stroke="#d62728" stroke-width="2" points="707.55,349.17 710.83,348.00 714.10,346.81 717.37,345.57 720.65,344.34 723.92,343.06 727.20,341.68 730.47,340.30 733.75,338.96 737.02,337.55 740.29,336.18 743.57,334.72 746.84,333.22 750.12,331.74 753.39,330.21 756.66,328.75 759.94,327.25 763.21,325.68 766.49,324.19 769.76,322.65 773.03,321.19 776.31,319.75 779.58,318.31 782.86,316.96 786.13,315.65 789.41,314.44 792.68,313.24 795.95,311.94 799.23,310.59 802.50,309.08 805.78,307.51 809.05,305.80 812.32,304.20 815.60,302.55 818.87,300.94 822.15,299.40 825.42,297.81 828.69,296.28 831.97,294.84 835.24,293.44 838.52,291.92 841.79,290.59 845.07,289.29 848.34,287.97 851.61,286.65 854.89,285.33 858.16,284.07 861.44,282.78 864.71,281.47 867.98,280.23 871.26,279.08 874.53,277.96 877.81,276.99 881.08,275.96 884.36,274.89 887.63,273.79 890.90,272.69 894.18,271.49 897.45,270.35 900.73,269.32 904.00,268.32" />
<text x="780.00" y="126.00" font-size="14" font-family="Arial" fill="#d62728" text-anchor="start">MA200</text>
</svg>