<svg xmlns="http://www.w3.org/2000/svg" width="960" height="520" viewBox="0 0 960 520"><rect width="100%" height="100%" fill="white" />
<text x="56.00" y="32.00" font-size="20" font-family="Arial" fill="#1f2933" text-anchor="start">國泰金(2882) Price and Moving Averages</text>
<line x1="56" y1="464" x2="904" y2="464" stroke="#cbd2d9" />
<line x1="56" y1="56" x2="56" y2="464" stroke="#cbd2d9" />
<text x="16.00" y="38.00" font-size="12" font-family="Arial" fill="#52606d" text-anchor="start">Price</text>
<line x1="56" y1="464.00" x2="904" y2="464.00" stroke="#edf2f7" />
<line x1="52" y1="464.00" x2="56" y2="464.00" stroke="#9fb3c8" />
<text x="48.00" y="468.00" font-size="11" font-family="Arial" fill="#52606d" text-anchor="end">55.6</text>
<line x1="56" y1="362.00" x2="904" y2="362.00" stroke="#edf2f7" />
<line x1="52" y1="362.00" x2="56" y2="362.00" stroke="#9fb3c8" />
<text x="48.00" y="366.00" font-size="11" font-family="Arial" fill="#52606d" text-anchor="end">70.4</text>
<line x1="56" y1="260.00" x2="904" y2="260.00" stroke="#edf2f7" />
<line x1="52" y1="260.00" x2="56" y2="260.00" stroke="#9fb3c8" />
<text x="48.00" y="264.00" font-size="11" font-family="Arial" fill="#52606d" text-anchor="end">85.2</text>
<line x1="56" y1="158.00" x2="904" y2="158.00" stroke="#edf2f7" />
<line x1="52" y1="158.00" x2="56" y2="158.00" stroke="#9fb3c8" />
<text x="48.00" y="162.00" font-size="11" font-family="Arial" fill="#52606d" text-anchor="end">99.9</text>
<line x1="56" y1="56.00" x2="904" y2="56.00" stroke="#edf2f7" />
<line x1="52" y1="56.00" x2="56" y2="56.00" stroke="#9fb3c8" />
<text x="48.00" y="60.00" font-size="11" font-family="Arial" fill="#52606d" text-anchor="end">115</text>
<line x1="56.00" y1="464" x2="56.00" y2="468" stroke="#9fb3c8" />
<text x="56.00" y="482.00" font-size="11" font-family="Arial" fill="#52606d" text-anchor="middle">06/23</text>
<line x1="226.25" y1="464" x2="226.25" y2="468" stroke="#9fb3c8" />
<text x="226.25" y="482.00" font-size="11" font-family="Arial" fill="#52606d" text-anchor="middle">09/04</text>
<line x1="396.51" y1="464" x2="396.51" y2="468" stroke="#9fb3c8" />
<text x="396.51" y="482.00" font-size="11" font-family="Arial" fill="#52606d" text-anchor="middle">11/21</text>
<line x1="563.49" y1="464" x2="563.49" y2="468" stroke="#9fb3c8" />
<text x="563.49" y="482.00" font-size="11" font-family="Arial" fill="#52606d" text-anchor="middle">02/04</text>
<line x1="733.75" y1="464" x2="733.75" y2="468" stroke="#9fb3c8" />
<text x="733.75" y="482.00" font-size="11" font-family="Arial" fill="#52606d" text-anchor="middle">05/04</text>
<line x1="904.00" y1="464" x2="904.00" y2="468" stroke="#9fb3c8" />
<text x="904.00" y="482.00" font-size="11" font-family="Arial" fill="#52606d" text-anchor="middle">07/16</text>
<polyline fill="none" stroke="#1f77b4" stroke-width="2" points="56.00,431.45 59.27,427.65 62.55,427.65 65.82,426.38 69.10,418.79 72.37,429.47 75.64,425.46 78.92,430.80 82.19,430.13 85.47,438.14 88.74,436.14 92.02,437.47 95.29,440.81 98.56,430.13 101.84,431.47 105.11,426.80 108.39,427.46 111.66,424.80 114.93,427.46 118.21,430.80 121.48,432.80 124.76,436.81 128.03,430.13 131.31,430.80 134.58,430.80 137.85,435.47 141.13,439.47 144.40,438.14 147.68,442.14 150.95,431.47 154.22,429.47 157.50,430.13 160.77,428.80 164.05,426.80 167.32,422.13 170.59,424.13 173.87,423.46 177.14,417.46 180.42,416.79 183.69,418.79 186.97,420.13 190.24,427.46 193.51,418.12 196.79,422.79 200.06,417.46 203.34,425.46 206.61,430.80 209.88,432.80 213.16,438.14 216.43,430.80 219.71,424.80 222.98,424.80 226.25,420.79 229.53,417.46 232.80,422.79 236.08,420.79 239.35,415.46 242.63,418.79 245.90,411.45 249.17,412.12 252.45,407.45 255.72,410.12 259.00,414.79 262.27,411.45 265.54,408.12 268.82,406.78 272.09,408.12 275.37,410.12 278.64,414.12 281.92,410.78 285.19,412.79 288.46,414.79 291.74,414.79 295.01,413.45 298.29,412.79 301.56,405.45 304.83,412.79 308.11,411.45 311.38,405.45 314.66,409.45 317.93,413.45 321.20,412.79 324.48,410.12 327.75,410.12 331.03,410.12 334.30,410.12 337.58,416.12 340.85,416.12 344.12,417.46 347.40,421.46 350.67,422.13 353.95,417.46 357.22,420.79 360.49,416.79 363.77,424.80 367.04,422.79 370.32,416.12 373.59,415.46 376.86,408.78 380.14,408.12 383.41,412.79 386.69,416.12 389.96,420.13 393.24,416.79 396.51,424.13 399.78,411.45 403.06,414.12 406.33,409.45 409.61,409.45 412.88,420.13 416.15,416.12 419.43,404.11 422.70,397.44 425.98,388.10 429.25,390.10 432.53,388.10 435.80,386.77 439.07,391.44 442.35,386.77 445.62,380.76 448.90,380.76 452.17,380.09 455.44,360.08 458.72,352.07 461.99,344.73 465.27,338.06 468.54,336.73 471.81,342.06 475.09,349.40 478.36,341.40 481.64,340.06 484.91,342.73 488.19,346.73 491.46,338.06 494.73,341.40 498.01,344.07 501.28,338.73 504.56,342.06 507.83,340.73 511.10,332.06 514.38,350.07 517.65,346.73 520.93,340.06 524.20,332.06 527.47,337.39 530.75,343.40 534.02,344.07 537.30,337.39 540.57,334.06 543.85,342.06 547.12,342.73 550.39,338.73 553.67,345.40 556.94,352.74 560.22,350.07 563.49,340.06 566.76,341.40 570.04,343.40 573.31,333.39 576.59,328.72 579.86,322.72 583.14,317.38 586.41,326.72 589.68,335.39 592.96,316.71 596.23,328.72 599.51,330.72 602.78,360.08 606.05,357.41 609.33,361.41 612.60,381.43 615.88,374.09 619.15,369.42 622.42,364.75 625.70,370.09 628.97,365.42 632.25,360.08 635.52,358.74 638.80,370.75 642.07,368.08 645.34,370.09 648.62,376.09 651.89,372.09 655.17,376.09 658.44,377.43 661.71,378.76 664.99,379.43 668.26,368.75 671.54,369.42 674.81,368.75 678.08,356.08 681.36,357.41 684.63,362.08 687.91,368.08 691.18,363.41 694.46,362.08 697.73,353.41 701.00,348.07 704.28,350.74 707.55,344.73 710.83,342.06 714.10,349.40 717.37,348.74 720.65,351.41 723.92,350.07 727.20,324.05 730.47,333.39 733.75,340.06 737.02,333.39 740.29,323.38 743.57,321.38 746.84,314.71 750.12,325.38 753.39,338.73 756.66,332.72 759.94,336.73 763.21,328.72 766.49,336.06 769.76,329.39 773.03,328.72 776.31,323.38 779.58,316.71 782.86,304.70 786.13,294.03 789.41,278.68 792.68,282.68 795.95,276.68 799.23,260.00 802.50,253.33 805.78,235.98 809.05,218.63 812.32,181.27 815.60,214.63 818.87,154.58 822.15,181.94 825.42,177.94 828.69,177.94 831.97,154.58 835.24,117.89 838.52,91.20 841.79,77.86 845.07,94.54 848.34,91.20 851.61,114.55 854.89,104.54 858.16,141.24 861.44,171.26 864.71,169.19 867.98,191.99 871.26,202.36 874.53,201.67 877.81,203.05 881.08,178.17 884.36,171.26 887.63,183.01 890.90,183.01 894.18,180.25 897.45,184.39 900.73,180.94 904.00,176.10" />
<text x="780.00" y="60.00" font-size="14" font-family="Arial" fill="#1f77b4" text-anchor="start">Close</text>
<polyline fill="none" stroke="#2ca02c" stroke-width="2" points="118.21,429.96 121.48,430.03 124.76,430.49 128.03,430.61 131.31,430.83 134.58,431.43 137.85,431.73 141.13,432.44 144.40,432.80 147.68,433.40 150.95,433.07 154.22,432.74 157.50,432.37 160.77,431.77 164.05,431.60 167.32,431.13 170.59,431.00 173.87,430.80 177.14,430.43 180.42,429.90 183.69,429.30 186.97,428.67 190.24,428.20 193.51,427.60 196.79,427.20 200.06,426.53 203.34,426.03 206.61,425.60 209.88,425.33 213.16,425.13 216.43,425.10 219.71,424.86 222.98,424.60 226.25,424.20 229.53,423.73 232.80,423.76 236.08,423.59 239.35,423.19 242.63,423.26 245.90,422.99 249.17,422.66 252.45,422.03 255.72,421.16 259.00,420.99 262.27,420.43 265.54,419.96 268.82,419.02 272.09,417.89 275.37,416.76 278.64,415.56 281.92,414.55 285.19,413.95 288.46,413.45 291.74,413.15 295.01,412.95 298.29,412.45 301.56,411.69 304.83,411.55 308.11,411.19 311.38,410.89 314.66,410.75 317.93,411.05 321.20,411.19 324.48,410.95 327.75,410.89 331.03,410.99 334.30,411.15 337.58,411.55 340.85,411.85 344.12,412.02 347.40,412.55 350.67,413.02 353.95,413.15 357.22,413.45 360.49,413.62 363.77,414.22 367.04,415.09 370.32,415.26 373.59,415.46 376.86,415.62 380.14,415.56 383.41,415.52 386.69,415.69 389.96,416.19 393.24,416.52 396.51,417.22 399.78,417.29 403.06,417.19 406.33,416.86 409.61,416.46 412.88,416.39 416.15,416.09 419.43,415.42 422.70,414.25 425.98,412.82 429.25,411.09 432.53,409.35 435.80,407.88 439.07,406.68 442.35,405.58 445.62,404.21 448.90,402.61 452.17,400.81 455.44,397.81 458.72,394.57 461.99,390.60 465.27,386.93 468.54,383.06 471.81,379.69 475.09,376.69 478.36,372.76 481.64,368.95 484.91,365.88 488.19,363.35 491.46,360.85 494.73,358.41 498.01,356.21 501.28,353.81 504.56,351.34 507.83,349.04 511.10,346.60 514.38,345.07 517.65,343.40 520.93,342.40 524.20,341.40 527.47,341.03 530.75,341.30 534.02,341.66 537.30,341.43 540.57,340.66 543.85,340.70 547.12,340.83 550.39,340.63 553.67,340.56 556.94,341.30 560.22,341.73 563.49,341.53 566.76,341.66 570.04,341.73 573.31,341.36 576.59,341.20 579.86,339.83 583.14,338.36 586.41,337.69 589.68,337.86 592.96,336.83 596.23,336.09 599.51,335.43 602.78,336.56 606.05,337.73 609.33,338.70 612.60,340.63 615.88,342.40 619.15,343.60 622.42,344.20 625.70,345.20 628.97,346.47 632.25,347.40 635.52,348.17 638.80,350.04 642.07,352.01 645.34,354.37 648.62,357.31 651.89,359.58 655.17,361.61 658.44,364.65 661.71,367.15 664.99,369.59 668.26,370.02 671.54,370.62 674.81,370.99 678.08,369.72 681.36,368.89 684.63,368.52 687.91,368.69 691.18,368.35 694.46,368.18 697.73,367.85 701.00,367.32 704.28,366.32 707.55,365.15 710.83,363.75 714.10,362.41 717.37,361.25 720.65,360.01 723.92,358.64 727.20,355.91 730.47,353.61 733.75,352.17 737.02,350.37 740.29,348.10 743.57,346.37 746.84,344.23 750.12,342.40 753.39,340.93 756.66,339.40 759.94,338.13 763.21,336.89 766.49,336.29 769.76,335.23 773.03,334.43 776.31,333.49 779.58,331.86 782.86,329.65 786.13,326.79 789.41,323.22 792.68,321.15 795.95,318.31 799.23,314.31 802.50,310.31 805.78,305.94 809.05,300.80 812.32,294.13 815.60,288.59 818.87,279.38 822.15,271.84 825.42,263.90 828.69,256.36 831.97,247.29 835.24,236.72 838.52,224.84 841.79,212.56 845.07,201.45 848.34,190.78 851.61,181.81 854.89,173.10 858.16,166.03 861.44,160.76 864.71,156.22 867.98,153.15 871.26,151.47 874.53,150.62 877.81,151.71 881.08,149.89 884.36,150.72 887.63,150.77 890.90,151.03 894.18,151.14 897.45,152.63 900.73,155.78 904.00,160.03" />
<text x="780.00" y="82.00" font-size="14" font-family="Arial" fill="#2ca02c" text-anchor="start">MA20</text>
<polyline fill="none" stroke="#ff7f0e" stroke-width="2" points="249.17,427.31 252.45,426.91 255.72,426.62 259.00,426.40 262.27,426.15 265.54,425.97 268.82,425.60 272.09,425.31 275.37,424.96 278.64,424.70 281.92,424.24 285.19,423.85 288.46,423.47 291.74,423.04 295.01,422.76 298.29,422.45 301.56,422.09 304.83,421.85 308.11,421.63 311.38,421.26 314.66,420.90 317.93,420.58 321.20,420.18 324.48,419.85 327.75,419.50 331.03,419.16 334.30,418.74 337.58,418.35 340.85,417.98 344.12,417.57 347.40,417.40 350.67,417.28 353.95,417.07 357.22,416.93 360.49,416.77 363.77,416.81 367.04,416.79 370.32,416.67 373.59,416.63 376.86,416.50 380.14,416.32 383.41,416.20 386.69,416.01 389.96,416.04 393.24,415.94 396.51,416.06 399.78,415.82 403.06,415.54 406.33,415.16 409.61,414.68 412.88,414.50 416.15,414.35 419.43,414.01 422.70,413.62 425.98,413.13 429.25,412.59 432.53,412.04 435.80,411.56 439.07,411.11 442.35,410.70 445.62,410.17 448.90,409.73 452.17,409.23 455.44,408.32 458.72,407.33 461.99,406.27 465.27,405.12 468.54,403.94 471.81,402.80 475.09,401.72 478.36,400.57 481.64,399.35 484.91,398.15 488.19,397.02 491.46,395.76 494.73,394.57 498.01,393.55 501.28,392.31 504.56,391.16 507.83,390.08 511.10,388.79 514.38,387.73 517.65,386.63 520.93,385.47 524.20,384.16 527.47,382.95 530.75,381.84 534.02,380.64 537.30,379.33 540.57,377.94 543.85,376.61 547.12,375.29 550.39,373.98 553.67,372.72 556.94,371.65 560.22,370.41 563.49,369.03 566.76,367.78 570.04,366.58 573.31,365.33 576.59,364.00 579.86,362.50 583.14,360.86 586.41,359.30 589.68,357.94 592.96,356.15 596.23,354.77 599.51,353.38 602.78,352.56 606.05,351.69 609.33,350.72 612.60,350.14 615.88,349.64 619.15,349.17 622.42,348.78 625.70,348.45 628.97,348.07 632.25,347.62 635.52,347.08 638.80,346.81 642.07,346.60 645.34,346.42 648.62,346.36 651.89,346.56 655.17,346.96 658.44,347.50 661.71,348.18 664.99,348.89 668.26,349.34 671.54,349.67 674.81,350.13 678.08,350.39 681.36,350.64 684.63,350.89 687.91,351.39 691.18,351.76 694.46,352.06 697.73,352.31 701.00,352.41 704.28,352.57 707.55,352.78 710.83,352.65 714.10,352.69 717.37,352.84 720.65,353.16 723.92,353.37 727.20,353.05 730.47,352.87 733.75,352.92 737.02,352.91 740.29,352.59 743.57,352.24 746.84,351.84 750.12,351.51 753.39,351.27 756.66,350.98 759.94,350.93 763.21,350.72 766.49,350.59 769.76,350.53 773.03,350.53 776.31,350.54 779.58,350.53 782.86,350.16 786.13,349.47 789.41,348.84 792.68,348.07 795.95,347.17 799.23,345.50 802.50,343.77 805.78,341.68 809.05,338.96 812.32,335.75 815.60,333.17 818.87,329.67 822.15,326.53 825.42,323.41 828.69,320.37 831.97,316.97 835.24,312.75 838.52,308.14 841.79,303.27 845.07,298.57 848.34,293.89 851.61,289.53 854.89,284.99 858.16,281.03 861.44,277.56 864.71,274.23 867.98,271.28 871.26,268.50 874.53,265.93 877.81,263.36 881.08,260.29 884.36,257.01 887.63,254.00 890.90,251.02 894.18,248.13 897.45,245.41 900.73,242.58 904.00,239.76" />
<text x="780.00" y="104.00" font-size="14" font-family="Arial" fill="#ff7f0e" text-anchor="start">MA60</text>
<polyline fill="none" stroke="#d62728" stroke-width="2" points="707.55,391.74 710.83,391.29 714.10,390.90 717.37,390.51 720.65,390.13 723.92,389.79 727.20,389.26 730.47,388.80 733.75,388.35 737.02,387.86 740.29,387.29 743.57,386.72 746.84,386.10 750.12,385.53 753.39,385.07 756.66,384.57 759.94,384.12 763.21,383.63 766.49,383.19 769.76,382.70 773.03,382.19 776.31,381.64 779.58,381.04 782.86,380.41 786.13,379.73 789.41,378.97 792.68,378.20 795.95,377.39 799.23,376.50 802.50,375.55 805.78,374.58 809.05,373.52 812.32,372.28 815.60,371.21 818.87,369.85 822.15,368.65 825.42,367.41 828.69,366.19 831.97,364.87 835.24,363.38 838.52,361.74 841.79,360.03 845.07,358.36 848.34,356.73 851.61,355.19 854.89,353.62 858.16,352.20 861.44,350.90 864.71,349.59 867.98,348.36 871.26,347.21 874.53,346.10 877.81,344.99 881.08,343.78 884.36,342.55 887.63,341.35 890.90,340.16 894.18,338.98 897.45,337.81 900.73,336.66 904.00,335.48" />
<text x="780.00" y="126.00" font-size="14" font-family="Arial" fill="#d62728" text-anchor="start">MA200</text>
</svg>