<svg xmlns="http://www.w3.org/2000/svg" width="960" height="520" viewBox="0 0 960 520"><rect width="100%" height="100%" fill="white" />
<text x="56.00" y="32.00" font-size="20" font-family="Arial" fill="#1f2933" text-anchor="start">奇鋐(3017) Price and Moving Averages</text>
<line x1="56" y1="464" x2="904" y2="464" stroke="#cbd2d9" />
<line x1="56" y1="56" x2="56" y2="464" stroke="#cbd2d9" />
<text x="16.00" y="38.00" font-size="12" font-family="Arial" fill="#52606d" text-anchor="start">Price</text>
<line x1="56" y1="464.00" x2="904" y2="464.00" stroke="#edf2f7" />
<line x1="52" y1="464.00" x2="56" y2="464.00" stroke="#9fb3c8" />
<text x="48.00" y="468.00" font-size="11" font-family="Arial" fill="#52606d" text-anchor="end">589</text>
<line x1="56" y1="362.00" x2="904" y2="362.00" stroke="#edf2f7" />
<line x1="52" y1="362.00" x2="56" y2="362.00" stroke="#9fb3c8" />
<text x="48.00" y="366.00" font-size="11" font-family="Arial" fill="#52606d" text-anchor="end">1,212</text>
<line x1="56" y1="260.00" x2="904" y2="260.00" stroke="#edf2f7" />
<line x1="52" y1="260.00" x2="56" y2="260.00" stroke="#9fb3c8" />
<text x="48.00" y="264.00" font-size="11" font-family="Arial" fill="#52606d" text-anchor="end">1,834</text>
<line x1="56" y1="158.00" x2="904" y2="158.00" stroke="#edf2f7" />
<line x1="52" y1="158.00" x2="56" y2="158.00" stroke="#9fb3c8" />
<text x="48.00" y="162.00" font-size="11" font-family="Arial" fill="#52606d" text-anchor="end">2,456</text>
<line x1="56" y1="56.00" x2="904" y2="56.00" stroke="#edf2f7" />
<line x1="52" y1="56.00" x2="56" y2="56.00" stroke="#9fb3c8" />
<text x="48.00" y="60.00" font-size="11" font-family="Arial" fill="#52606d" text-anchor="end">3,078</text>
<line x1="56.00" y1="464" x2="56.00" y2="468" stroke="#9fb3c8" />
<text x="56.00" y="482.00" font-size="11" font-family="Arial" fill="#52606d" text-anchor="middle">06/13</text>
<line x1="226.25" y1="464" x2="226.25" y2="468" stroke="#9fb3c8" />
<text x="226.25" y="482.00" font-size="11" font-family="Arial" fill="#52606d" text-anchor="middle">08/27</text>
<line x1="396.51" y1="464" x2="396.51" y2="468" stroke="#9fb3c8" />
<text x="396.51" y="482.00" font-size="11" font-family="Arial" fill="#52606d" text-anchor="middle">11/13</text>
<line x1="563.49" y1="464" x2="563.49" y2="468" stroke="#9fb3c8" />
<text x="563.49" y="482.00" font-size="11" font-family="Arial" fill="#52606d" text-anchor="middle">01/27</text>
<line x1="733.75" y1="464" x2="733.75" y2="468" stroke="#9fb3c8" />
<text x="733.75" y="482.00" font-size="11" font-family="Arial" fill="#52606d" text-anchor="middle">04/23</text>
<line x1="904.00" y1="464" x2="904.00" y2="468" stroke="#9fb3c8" />
<text x="904.00" y="482.00" font-size="11" font-family="Arial" fill="#52606d" text-anchor="middle">07/08</text>
<polyline fill="none" stroke="#1f77b4" stroke-width="2" points="56.00,436.62 59.27,438.73 62.55,437.59 65.82,441.98 69.10,440.19 72.37,441.33 75.64,442.14 78.92,440.84 82.19,439.54 85.47,440.68 88.74,440.84 92.02,439.87 95.29,437.92 98.56,437.27 101.84,433.37 105.11,434.34 108.39,436.78 111.66,431.42 114.93,428.82 118.21,423.29 121.48,426.22 124.76,425.89 128.03,421.99 131.31,422.81 134.58,423.46 137.85,415.82 141.13,418.91 144.40,422.16 147.68,423.46 150.95,421.51 154.22,422.64 157.50,418.74 160.77,417.93 164.05,418.91 167.32,410.62 170.59,408.83 173.87,401.84 177.14,397.29 180.42,394.04 183.69,383.48 186.97,385.11 190.24,383.48 193.51,378.61 196.79,385.92 200.06,386.73 203.34,374.54 206.61,385.21 209.88,395.86 213.16,388.49 216.43,391.77 219.71,386.85 222.98,392.59 226.25,388.49 229.53,394.23 232.80,395.04 236.08,406.36 239.35,405.04 242.63,407.17 245.90,407.34 249.17,405.86 252.45,402.58 255.72,403.08 259.00,400.13 262.27,392.59 265.54,388.49 268.82,389.31 272.09,390.13 275.37,395.86 278.64,387.67 281.92,390.13 285.19,394.23 288.46,394.23 291.74,397.67 295.01,403.24 298.29,406.36 301.56,399.80 304.83,392.59 308.11,380.29 311.38,369.64 314.66,372.10 317.93,372.92 321.20,368.82 324.48,370.46 327.75,371.28 331.03,360.62 334.30,364.72 337.58,372.10 340.85,373.73 344.12,371.28 347.40,368.00 350.67,368.82 353.95,365.54 357.22,347.51 360.49,342.59 363.77,329.48 367.04,327.02 370.32,315.54 373.59,325.38 376.86,323.74 380.14,315.54 383.41,320.46 386.69,306.53 389.96,308.17 393.24,313.90 396.51,315.54 399.78,327.84 403.06,327.84 406.33,336.03 409.61,340.95 412.88,341.77 416.15,357.34 419.43,356.52 422.70,345.05 425.98,333.57 429.25,331.93 432.53,335.21 435.80,340.95 439.07,345.05 442.35,338.49 445.62,343.41 448.90,333.57 452.17,333.57 455.44,329.48 458.72,327.02 461.99,326.20 465.27,327.02 468.54,334.39 471.81,340.13 475.09,340.95 478.36,337.67 481.64,322.92 484.91,318.82 488.19,313.08 491.46,314.72 494.73,311.44 498.01,307.35 501.28,309.81 504.56,313.08 507.83,322.10 511.10,322.92 514.38,327.02 517.65,335.21 520.93,338.49 524.20,335.21 527.47,338.49 530.75,340.13 534.02,327.84 537.30,334.39 540.57,337.67 543.85,350.79 547.12,348.33 550.39,350.79 553.67,338.49 556.94,335.21 560.22,336.03 563.49,327.84 566.76,320.46 570.04,315.54 573.31,321.28 576.59,316.36 579.86,292.59 583.14,286.04 586.41,293.41 589.68,299.15 592.96,298.33 596.23,295.05 599.51,297.51 602.78,311.44 606.05,306.53 609.33,286.04 612.60,271.28 615.88,271.28 619.15,266.37 622.42,273.74 625.70,262.27 628.97,258.17 632.25,287.68 635.52,282.76 638.80,255.71 642.07,253.25 645.34,254.89 648.62,260.63 651.89,248.34 655.17,257.35 658.44,230.30 661.71,224.57 664.99,233.58 668.26,241.78 671.54,216.37 674.81,187.68 678.08,200.80 681.36,210.63 684.63,234.40 687.91,214.73 691.18,221.29 694.46,227.85 697.73,195.06 701.00,194.24 704.28,189.32 707.55,199.98 710.83,181.95 714.10,179.49 717.37,160.64 720.65,167.19 723.92,152.44 727.20,140.15 730.47,118.84 733.75,121.30 737.02,77.86 740.29,95.89 743.57,104.90 746.84,95.89 750.12,95.89 753.39,87.69 756.66,117.20 759.94,161.46 763.21,164.74 766.49,159.82 769.76,141.79 773.03,147.52 776.31,136.87 779.58,141.79 782.86,158.18 786.13,165.55 789.41,168.83 792.68,177.03 795.95,151.62 799.23,143.43 802.50,138.51 805.78,113.92 809.05,118.02 812.32,137.69 815.60,123.76 818.87,104.08 822.15,118.02 825.42,92.61 828.69,116.38 831.97,134.41 835.24,139.33 838.52,143.43 841.79,173.75 845.07,177.85 848.34,166.37 851.61,165.55 854.89,172.11 858.16,172.93 861.44,167.19 864.71,163.92 867.98,163.10 871.26,145.88 874.53,149.98 877.81,190.96 881.08,183.59 884.36,146.70 887.63,131.13 890.90,111.46 894.18,108.18 897.45,122.94 900.73,159.00 904.00,179.49" />
<text x="780.00" y="60.00" font-size="14" font-family="Arial" fill="#1f77b4" text-anchor="start">Close</text>
<polyline fill="none" stroke="#2ca02c" stroke-width="2" points="118.21,437.18 121.48,436.66 124.76,436.02 128.03,435.24 131.31,434.28 134.58,433.44 137.85,432.17 141.13,431.00 144.40,430.07 147.68,429.26 150.95,428.31 154.22,427.40 157.50,426.34 160.77,425.34 164.05,424.42 167.32,423.28 170.59,422.01 173.87,420.26 177.14,418.56 180.42,416.82 183.69,414.83 186.97,412.77 190.24,410.65 193.51,408.48 196.79,406.64 200.06,404.80 203.34,402.74 206.61,401.05 209.88,399.74 213.16,397.99 216.43,396.50 219.71,394.71 222.98,393.40 226.25,391.93 229.53,390.70 232.80,389.92 236.08,389.80 239.35,389.96 242.63,390.45 245.90,391.11 249.17,392.23 252.45,393.11 255.72,394.09 259.00,395.16 262.27,395.50 265.54,395.58 268.82,396.32 272.09,396.57 275.37,396.57 278.64,396.53 281.92,396.45 285.19,396.81 288.46,396.90 291.74,397.36 295.01,397.81 298.29,398.37 301.56,398.04 304.83,397.42 308.11,396.08 311.38,394.19 314.66,392.50 317.93,391.02 321.20,389.31 324.48,387.82 327.75,386.76 331.03,385.37 334.30,384.14 337.58,383.23 340.85,382.13 344.12,381.31 347.40,380.20 350.67,378.93 353.95,377.50 357.22,374.99 360.49,371.96 363.77,368.11 367.04,364.47 370.32,360.62 373.59,357.88 376.86,355.58 380.14,352.75 383.41,350.13 386.69,347.02 389.96,343.90 393.24,341.03 396.51,338.78 399.78,336.93 403.06,334.72 406.33,332.84 409.61,331.32 412.88,330.01 416.15,329.44 419.43,328.98 422.70,328.86 425.98,328.41 429.25,328.53 432.53,328.94 435.80,330.21 439.07,331.20 442.35,331.93 445.62,333.33 448.90,333.98 452.17,335.34 455.44,336.40 458.72,337.06 461.99,337.59 465.27,337.55 468.54,337.88 471.81,338.08 475.09,338.08 478.36,337.88 481.64,336.16 484.91,334.27 488.19,332.67 491.46,331.73 494.73,330.71 498.01,329.31 501.28,327.75 504.56,326.16 507.83,325.34 511.10,324.31 514.38,323.98 517.65,324.07 520.93,324.52 524.20,324.93 527.47,325.54 530.75,326.20 534.02,325.87 537.30,325.58 540.57,325.42 543.85,326.07 547.12,327.35 550.39,328.94 553.67,330.21 556.94,331.24 560.22,332.47 563.49,333.49 566.76,334.02 570.04,334.15 573.31,334.11 576.59,333.78 579.86,332.06 583.14,329.60 586.41,327.35 589.68,325.54 592.96,323.53 596.23,321.28 599.51,319.76 602.78,318.62 606.05,317.06 609.33,313.82 612.60,309.97 615.88,305.99 619.15,302.39 622.42,299.31 625.70,295.63 628.97,292.14 632.25,290.50 635.52,288.86 638.80,285.59 642.07,282.43 645.34,280.55 648.62,279.28 651.89,277.02 655.17,274.93 658.44,271.53 661.71,268.01 664.99,264.81 668.26,261.33 671.54,256.82 674.81,251.90 678.08,248.38 681.36,245.34 684.63,243.75 687.91,240.79 691.18,238.75 694.46,237.23 697.73,232.60 701.00,228.17 704.28,224.85 707.55,222.19 710.83,218.54 714.10,214.49 717.37,210.10 720.65,205.59 723.92,201.70 727.20,197.48 730.47,191.74 733.75,185.72 737.02,178.79 740.29,174.20 743.57,169.41 746.84,163.67 750.12,156.74 753.39,150.39 756.66,145.19 759.94,141.87 763.21,140.35 766.49,138.63 769.76,136.25 773.03,133.63 776.31,131.38 779.58,129.49 782.86,129.37 786.13,129.29 789.41,130.11 792.68,131.95 795.95,133.59 799.23,134.70 802.50,137.73 805.78,138.63 809.05,139.29 812.32,141.38 815.60,142.77 818.87,143.59 822.15,143.63 825.42,140.19 828.69,137.77 831.97,136.50 835.24,136.38 838.52,136.17 841.79,138.02 845.07,139.82 848.34,140.23 851.61,140.23 854.89,140.39 858.16,140.19 861.44,140.97 864.71,141.99 867.98,143.22 871.26,144.82 874.53,146.42 877.81,149.08 881.08,152.07 884.36,154.20 887.63,154.86 890.90,155.80 894.18,155.39 897.45,154.82 900.73,155.80 904.00,157.60" />
<text x="780.00" y="82.00" font-size="14" font-family="Arial" fill="#2ca02c" text-anchor="start">MA20</text>
<polyline fill="none" stroke="#ff7f0e" stroke-width="2" points="249.17,414.75 252.45,414.18 255.72,413.58 259.00,412.96 262.27,412.14 265.54,411.28 268.82,410.41 272.09,409.54 275.37,408.79 278.64,407.93 281.92,407.08 285.19,406.31 288.46,405.55 291.74,404.88 295.01,404.31 298.29,403.86 301.56,403.28 304.83,402.55 308.11,401.69 311.38,400.71 314.66,399.85 317.93,398.97 321.20,398.02 324.48,397.16 327.75,396.30 331.03,395.25 334.30,394.40 337.58,393.62 340.85,392.81 344.12,391.94 347.40,391.05 350.67,390.15 353.95,389.27 357.22,388.09 360.49,386.82 363.77,385.47 367.04,384.10 370.32,382.67 373.59,381.47 376.86,380.30 380.14,379.16 383.41,378.09 386.69,376.80 389.96,375.63 393.24,374.43 396.51,373.24 399.78,372.46 403.06,371.51 406.33,370.51 409.61,369.72 412.88,368.89 416.15,368.39 419.43,367.79 422.70,367.07 425.98,366.06 429.25,365.01 432.53,363.82 435.80,362.75 439.07,361.72 442.35,360.57 445.62,359.53 448.90,358.38 452.17,357.22 455.44,356.04 458.72,354.95 461.99,353.91 465.27,352.87 468.54,351.94 471.81,351.02 475.09,350.24 478.36,349.36 481.64,348.17 484.91,346.92 488.19,345.51 491.46,344.03 494.73,342.45 498.01,340.91 501.28,339.53 504.56,338.41 507.83,337.62 511.10,336.80 514.38,336.03 517.65,335.47 520.93,334.94 524.20,334.34 527.47,333.97 530.75,333.56 534.02,332.82 537.30,332.17 540.57,331.61 543.85,331.32 547.12,330.98 550.39,330.73 553.67,330.58 556.94,330.46 560.22,330.57 563.49,330.58 566.76,330.66 570.04,330.50 573.31,330.46 576.59,330.47 579.86,330.01 583.14,329.67 586.41,329.42 589.68,329.18 592.96,328.89 596.23,328.34 599.51,327.84 602.78,327.43 606.05,326.85 609.33,325.92 612.60,324.49 615.88,323.07 619.15,321.76 622.42,320.76 625.70,319.60 628.97,318.32 632.25,317.43 635.52,316.39 638.80,315.01 642.07,313.51 645.34,312.20 648.62,310.98 651.89,309.63 655.17,308.47 658.44,306.87 661.71,305.16 664.99,303.48 668.26,301.84 671.54,299.77 674.81,297.27 678.08,295.23 681.36,293.43 684.63,292.12 687.91,290.45 691.18,288.95 694.46,287.62 697.73,285.71 701.00,283.73 704.28,281.52 707.55,279.47 710.83,277.05 714.10,274.45 717.37,271.49 720.65,268.69 723.92,265.59 727.20,262.25 730.47,258.77 733.75,255.22 737.02,250.89 740.29,246.64 743.57,242.58 746.84,238.34 750.12,234.29 753.39,230.17 756.66,226.52 759.94,223.75 763.21,221.15 766.49,218.56 769.76,215.56 773.03,212.75 776.31,210.16 779.58,207.75 782.86,205.50 786.13,203.27 789.41,201.11 792.68,199.15 795.95,196.71 799.23,193.91 802.50,191.11 805.78,188.24 809.05,185.69 812.32,183.46 815.60,181.09 818.87,178.26 822.15,175.85 825.42,173.10 828.69,170.24 831.97,167.77 835.24,165.83 838.52,164.00 841.79,162.65 845.07,161.27 848.34,159.90 851.61,158.37 854.89,157.40 858.16,156.54 861.44,155.43 864.71,154.14 867.98,153.25 871.26,152.55 874.53,151.70 877.81,151.38 881.08,150.53 884.36,149.40 887.63,147.89 890.90,145.95 894.18,144.50 897.45,143.32 900.73,142.81 904.00,142.47" />
<text x="780.00" y="104.00" font-size="14" font-family="Arial" fill="#ff7f0e" text-anchor="start">MA60</text>
<polyline fill="none" stroke="#d62728" stroke-width="2" points="707.55,348.55 710.83,347.28 714.10,345.98 717.37,344.60 720.65,343.23 723.92,341.79 727.20,340.28 730.47,338.66 733.75,337.07 737.02,335.26 740.29,333.53 743.57,331.85 746.84,330.13 750.12,328.42 753.39,326.68 756.66,325.10 759.94,323.73 763.21,322.37 766.49,321.01 769.76,319.58 773.03,318.20 776.31,316.75 779.58,315.33 782.86,314.01 786.13,312.73 789.41,311.45 792.68,310.26 795.95,308.92 799.23,307.53 802.50,306.10 805.78,304.57 809.05,303.04 812.32,301.64 815.60,300.17 818.87,298.59 822.15,297.13 825.42,295.55 828.69,294.12 831.97,292.81 835.24,291.53 838.52,290.33 841.79,289.28 845.07,288.25 848.34,287.19 851.61,286.09 854.89,285.01 858.16,284.00 861.44,282.91 864.71,281.75 867.98,280.63 871.26,279.40 874.53,278.21 877.81,277.21 881.08,276.18 884.36,274.94 887.63,273.62 890.90,272.15 894.18,270.67 897.45,269.24 900.73,268.00 904.00,266.87" />
<text x="780.00" y="126.00" font-size="14" font-family="Arial" fill="#d62728" text-anchor="start">MA200</text>
</svg>