<svg xmlns="http://www.w3.org/2000/svg" width="960" height="520" viewBox="0 0 960 520"><rect width="100%" height="100%" fill="white" />
<text x="56.00" y="32.00" font-size="20" font-family="Arial" fill="#1f2933" text-anchor="start">廣達(2382) Price and Moving Averages</text>
<line x1="56" y1="464" x2="904" y2="464" stroke="#cbd2d9" />
<line x1="56" y1="56" x2="56" y2="464" stroke="#cbd2d9" />
<text x="16.00" y="38.00" font-size="12" font-family="Arial" fill="#52606d" text-anchor="start">Price</text>
<line x1="56" y1="464.00" x2="904" y2="464.00" stroke="#edf2f7" />
<line x1="52" y1="464.00" x2="56" y2="464.00" stroke="#9fb3c8" />
<text x="48.00" y="468.00" font-size="11" font-family="Arial" fill="#52606d" text-anchor="end">244</text>
<line x1="56" y1="362.00" x2="904" y2="362.00" stroke="#edf2f7" />
<line x1="52" y1="362.00" x2="56" y2="362.00" stroke="#9fb3c8" />
<text x="48.00" y="366.00" font-size="11" font-family="Arial" fill="#52606d" text-anchor="end">289</text>
<line x1="56" y1="260.00" x2="904" y2="260.00" stroke="#edf2f7" />
<line x1="52" y1="260.00" x2="56" y2="260.00" stroke="#9fb3c8" />
<text x="48.00" y="264.00" font-size="11" font-family="Arial" fill="#52606d" text-anchor="end">335</text>
<line x1="56" y1="158.00" x2="904" y2="158.00" stroke="#edf2f7" />
<line x1="52" y1="158.00" x2="56" y2="158.00" stroke="#9fb3c8" />
<text x="48.00" y="162.00" font-size="11" font-family="Arial" fill="#52606d" text-anchor="end">381</text>
<line x1="56" y1="56.00" x2="904" y2="56.00" stroke="#edf2f7" />
<line x1="52" y1="56.00" x2="56" y2="56.00" stroke="#9fb3c8" />
<text x="48.00" y="60.00" font-size="11" font-family="Arial" fill="#52606d" text-anchor="end">427</text>
<line x1="56.00" y1="464" x2="56.00" y2="468" stroke="#9fb3c8" />
<text x="56.00" y="482.00" font-size="11" font-family="Arial" fill="#52606d" text-anchor="middle">06/16</text>
<line x1="226.25" y1="464" x2="226.25" y2="468" stroke="#9fb3c8" />
<text x="226.25" y="482.00" font-size="11" font-family="Arial" fill="#52606d" text-anchor="middle">08/28</text>
<line x1="396.51" y1="464" x2="396.51" y2="468" stroke="#9fb3c8" />
<text x="396.51" y="482.00" font-size="11" font-family="Arial" fill="#52606d" text-anchor="middle">11/14</text>
<line x1="563.49" y1="464" x2="563.49" y2="468" stroke="#9fb3c8" />
<text x="563.49" y="482.00" font-size="11" font-family="Arial" fill="#52606d" text-anchor="middle">01/28</text>
<line x1="733.75" y1="464" x2="733.75" y2="468" stroke="#9fb3c8" />
<text x="733.75" y="482.00" font-size="11" font-family="Arial" fill="#52606d" text-anchor="middle">04/24</text>
<line x1="904.00" y1="464" x2="904.00" y2="468" stroke="#9fb3c8" />
<text x="904.00" y="482.00" font-size="11" font-family="Arial" fill="#52606d" text-anchor="middle">07/09</text>
<polyline fill="none" stroke="#1f77b4" stroke-width="2" points="56.00,398.75 59.27,405.13 62.55,405.13 65.82,413.63 69.10,412.57 72.37,407.25 75.64,391.30 78.92,383.86 82.19,390.24 85.47,399.81 88.74,395.35 92.02,380.87 95.29,378.64 98.56,383.10 101.84,387.56 105.11,389.78 108.39,400.92 111.66,392.01 114.93,398.70 118.21,398.70 121.48,406.49 124.76,404.27 128.03,399.81 131.31,403.15 134.58,397.58 137.85,397.58 141.13,422.09 144.40,417.63 147.68,407.61 150.95,408.72 154.22,400.92 157.50,410.95 160.77,405.38 164.05,379.76 167.32,380.87 170.59,365.28 173.87,364.16 177.14,363.05 180.42,359.71 183.69,360.82 186.97,376.42 190.24,402.04 193.51,404.27 196.79,404.27 200.06,407.61 203.34,409.84 206.61,428.77 209.88,429.89 213.16,431.00 216.43,409.84 219.71,416.52 222.98,407.61 226.25,414.29 229.53,422.09 232.80,436.57 236.08,442.14 239.35,442.14 242.63,434.34 245.90,431.00 249.17,427.66 252.45,422.09 255.72,398.70 259.00,405.38 262.27,396.47 265.54,392.01 268.82,397.58 272.09,398.70 275.37,384.21 278.64,380.87 281.92,380.87 285.19,368.62 288.46,375.30 291.74,371.96 295.01,371.96 298.29,360.82 301.56,368.62 304.83,351.91 308.11,338.54 311.38,319.60 314.66,325.17 317.93,342.99 321.20,350.79 324.48,374.19 327.75,369.73 331.03,357.48 334.30,364.16 337.58,346.34 340.85,358.59 344.12,361.93 347.40,353.02 350.67,317.37 353.95,329.63 357.22,320.71 360.49,325.17 363.77,337.42 367.04,344.11 370.32,366.39 373.59,361.93 376.86,354.13 380.14,367.50 383.41,357.48 386.69,357.48 389.96,365.28 393.24,371.96 396.51,384.21 399.78,392.01 403.06,405.38 406.33,412.06 409.61,396.47 412.88,405.38 416.15,400.92 419.43,394.24 422.70,384.21 425.98,379.76 429.25,378.64 432.53,367.50 435.80,364.16 439.07,355.25 442.35,350.79 445.62,344.11 448.90,344.11 452.17,347.45 455.44,355.25 458.72,365.28 461.99,368.62 465.27,371.96 468.54,398.70 471.81,416.52 475.09,427.66 478.36,416.52 481.64,412.06 484.91,417.63 488.19,418.75 491.46,420.98 494.73,420.98 498.01,420.98 501.28,400.92 504.56,389.78 507.83,387.56 511.10,378.64 514.38,378.64 517.65,398.70 520.93,376.42 524.20,381.99 527.47,385.33 530.75,369.73 534.02,376.42 537.30,361.93 540.57,378.64 543.85,388.67 547.12,394.24 550.39,376.42 553.67,383.10 556.94,367.50 560.22,366.39 563.49,367.50 566.76,376.42 570.04,383.10 573.31,398.70 576.59,390.90 579.86,387.56 583.14,398.70 586.41,384.21 589.68,374.19 592.96,371.96 596.23,369.73 599.51,375.30 602.78,374.19 606.05,344.11 609.33,357.48 612.60,336.31 615.88,350.79 619.15,380.87 622.42,361.93 625.70,363.05 628.97,378.64 632.25,377.53 635.52,363.05 638.80,364.16 642.07,363.05 645.34,363.05 648.62,363.05 651.89,354.13 655.17,368.62 658.44,375.30 661.71,383.10 664.99,379.76 668.26,371.96 671.54,367.50 674.81,363.05 678.08,380.87 681.36,386.44 684.63,359.71 687.91,373.07 691.18,363.05 694.46,321.83 697.73,309.57 701.00,290.64 704.28,296.21 707.55,287.29 710.83,319.60 714.10,297.32 717.37,287.29 720.65,273.93 723.92,249.42 727.20,260.56 730.47,289.52 733.75,287.29 737.02,281.72 740.29,291.75 743.57,289.52 746.84,310.69 750.12,298.43 753.39,291.75 756.66,234.93 759.94,240.50 763.21,248.30 766.49,241.62 769.76,249.42 773.03,248.30 776.31,261.67 779.58,325.17 782.86,338.54 786.13,360.82 789.41,360.82 792.68,320.71 795.95,302.89 799.23,301.78 802.50,301.78 805.78,311.80 809.05,319.60 812.32,251.64 815.60,177.01 818.87,114.62 822.15,77.86 825.42,106.82 828.69,136.90 831.97,168.09 835.24,171.44 838.52,159.18 841.79,182.58 845.07,178.12 848.34,182.58 851.61,199.29 854.89,173.66 858.16,169.21 861.44,160.29 864.71,177.01 867.98,178.12 871.26,190.37 874.53,200.40 877.81,189.26 881.08,187.03 884.36,178.12 887.63,184.80 890.90,166.98 894.18,164.75 897.45,175.89 900.73,166.98 904.00,174.78" />
<text x="780.00" y="60.00" font-size="14" font-family="Arial" fill="#1f77b4" text-anchor="start">Close</text>
<polyline fill="none" stroke="#2ca02c" stroke-width="2" points="118.21,395.67 121.48,396.05 124.76,396.01 128.03,395.74 131.31,395.22 134.58,394.47 137.85,393.99 141.13,395.53 144.40,397.21 147.68,398.08 150.95,398.53 154.22,398.81 157.50,400.31 160.77,401.65 164.05,401.48 167.32,401.15 170.59,399.92 173.87,398.08 177.14,396.63 180.42,394.69 183.69,392.79 186.97,391.29 190.24,391.18 193.51,391.40 196.79,391.45 200.06,391.96 203.34,392.57 206.61,392.90 209.88,393.52 213.16,394.69 216.43,394.74 219.71,395.52 222.98,395.35 226.25,395.80 229.53,397.92 232.80,400.70 236.08,404.54 239.35,408.44 242.63,412.01 245.90,415.57 249.17,418.92 252.45,421.20 255.72,421.03 259.00,421.09 262.27,420.70 265.54,419.92 268.82,419.31 272.09,417.80 275.37,415.52 278.64,413.01 281.92,411.56 285.19,409.17 288.46,407.55 291.74,405.44 295.01,402.93 298.29,399.14 301.56,395.47 304.83,390.95 308.11,386.16 311.38,380.59 314.66,375.47 317.93,371.51 321.20,369.12 324.48,367.56 327.75,366.22 331.03,364.50 334.30,362.82 337.58,360.21 340.85,358.93 344.12,357.98 347.40,356.59 350.67,354.02 353.95,351.74 357.22,349.18 360.49,346.84 363.77,345.67 367.04,344.44 370.32,345.17 373.59,346.34 376.86,348.06 380.14,350.18 383.41,350.90 386.69,351.24 389.96,350.79 393.24,350.90 396.51,352.24 399.78,353.63 403.06,356.59 406.33,359.26 409.61,360.99 412.88,363.60 416.15,367.78 419.43,371.01 422.70,374.19 425.98,376.92 429.25,378.98 432.53,380.15 435.80,380.04 439.07,379.70 442.35,379.53 445.62,378.37 448.90,377.70 452.17,377.20 455.44,376.69 458.72,376.36 461.99,375.58 465.27,374.58 468.54,374.24 471.81,374.47 475.09,376.03 478.36,376.58 481.64,377.14 484.91,378.31 488.19,380.04 491.46,382.10 494.73,384.21 498.01,386.89 501.28,388.73 504.56,390.45 507.83,392.29 511.10,394.02 514.38,395.74 517.65,398.31 520.93,399.36 524.20,400.20 527.47,401.04 530.75,400.92 534.02,399.81 537.30,397.08 540.57,394.63 543.85,393.24 547.12,392.35 550.39,390.29 553.67,388.50 556.94,385.83 560.22,383.10 563.49,380.43 566.76,379.20 570.04,378.87 573.31,379.42 576.59,380.04 579.86,380.48 583.14,380.48 586.41,380.87 589.68,380.48 592.96,379.81 596.23,379.81 599.51,379.76 602.78,380.37 606.05,378.64 609.33,377.08 612.60,374.19 615.88,372.91 619.15,372.79 622.42,372.52 625.70,372.35 628.97,372.91 632.25,372.96 635.52,371.96 638.80,370.23 642.07,368.84 645.34,367.61 648.62,365.83 651.89,364.33 655.17,364.05 658.44,364.22 661.71,364.89 664.99,365.11 668.26,365.00 671.54,366.17 674.81,366.44 678.08,368.67 681.36,370.46 684.63,369.40 687.91,369.95 691.18,369.95 694.46,367.11 697.73,363.72 701.00,360.10 704.28,356.70 707.55,352.91 710.83,350.74 714.10,347.45 717.37,344.11 720.65,339.37 723.92,333.08 727.20,326.95 730.47,322.44 733.75,318.21 737.02,313.92 740.29,310.35 743.57,305.79 746.84,302.00 750.12,298.94 753.39,294.87 756.66,288.46 759.94,284.40 763.21,281.33 766.49,278.88 769.76,276.54 773.03,274.59 776.31,271.70 779.58,273.09 782.86,275.65 786.13,280.00 789.41,285.57 792.68,288.57 795.95,289.24 799.23,289.97 802.50,290.97 805.78,291.97 809.05,293.48 812.32,290.52 815.60,284.45 818.87,275.60 822.15,267.74 825.42,261.06 828.69,255.49 831.97,251.81 835.24,247.91 838.52,243.46 841.79,239.50 845.07,232.15 848.34,224.35 851.61,216.27 854.89,206.92 858.16,199.34 861.44,192.21 864.71,185.97 867.98,179.79 871.26,173.72 874.53,167.76 877.81,164.64 881.08,165.14 884.36,168.32 887.63,173.66 890.90,176.67 894.18,178.06 897.45,178.45 900.73,178.23 904.00,179.01" />
<text x="780.00" y="82.00" font-size="14" font-family="Arial" fill="#2ca02c" text-anchor="start">MA20</text>
<polyline fill="none" stroke="#ff7f0e" stroke-width="2" points="249.17,402.46 252.45,402.85 255.72,402.74 259.00,402.74 262.27,402.46 265.54,402.11 268.82,401.95 272.09,402.08 275.37,402.08 278.64,401.93 281.92,401.61 285.19,401.17 288.46,401.07 291.74,400.96 295.01,400.78 298.29,400.33 301.56,399.98 304.83,399.16 308.11,398.27 311.38,396.95 314.66,395.73 317.93,394.67 321.20,393.78 324.48,393.35 327.75,392.79 331.03,392.12 334.30,391.57 337.58,390.30 340.85,389.32 344.12,388.56 347.40,387.63 350.67,386.24 353.95,384.88 357.22,383.47 360.49,382.56 363.77,381.84 367.04,381.48 370.32,381.52 373.59,381.50 376.86,381.41 380.14,381.52 383.41,381.21 386.69,380.46 389.96,379.81 393.24,379.27 396.51,378.88 399.78,378.59 403.06,378.20 406.33,377.90 409.61,377.33 412.88,377.25 416.15,376.99 419.43,376.77 422.70,376.27 425.98,375.56 429.25,374.60 432.53,373.35 435.80,372.05 439.07,370.73 442.35,369.40 445.62,368.00 448.90,366.70 452.17,365.85 455.44,365.02 458.72,364.50 461.99,364.11 465.27,363.68 468.54,363.68 471.81,364.22 475.09,365.00 478.36,365.59 481.64,366.31 484.91,367.02 488.19,367.80 491.46,368.62 494.73,369.62 498.01,370.49 501.28,371.31 504.56,372.16 507.83,373.30 511.10,374.19 514.38,374.78 517.65,375.58 520.93,375.62 524.20,375.82 527.47,376.29 530.75,376.38 534.02,376.88 537.30,376.94 540.57,377.21 543.85,377.81 547.12,379.09 550.39,379.87 553.67,380.91 556.94,381.61 560.22,382.10 563.49,382.49 566.76,382.65 570.04,383.01 573.31,383.75 576.59,384.14 579.86,384.64 583.14,385.33 586.41,385.64 589.68,385.68 592.96,385.48 596.23,385.10 599.51,384.60 602.78,383.97 606.05,383.10 609.33,382.30 612.60,381.22 615.88,380.50 619.15,380.44 622.42,380.15 625.70,379.89 628.97,380.07 632.25,380.30 635.52,380.43 638.80,380.65 642.07,380.96 645.34,381.28 648.62,381.54 651.89,381.52 655.17,381.58 658.44,381.69 661.71,381.87 664.99,381.56 668.26,380.82 671.54,379.81 674.81,378.92 678.08,378.40 681.36,377.88 684.63,376.90 687.91,376.10 691.18,375.13 694.46,373.48 697.73,371.96 701.00,370.31 704.28,368.78 707.55,367.26 710.83,366.28 714.10,364.59 717.37,363.10 720.65,361.30 723.92,359.04 727.20,357.22 730.47,355.77 733.75,354.52 737.02,352.91 740.29,351.29 743.57,349.55 746.84,348.45 750.12,347.04 753.39,345.78 756.66,343.59 759.94,341.47 763.21,339.34 766.49,336.98 769.76,334.49 773.03,332.11 776.31,330.02 779.58,328.79 782.86,328.03 786.13,327.81 789.41,327.62 792.68,326.80 795.95,325.60 799.23,324.39 802.50,323.69 805.78,322.92 809.05,322.65 812.32,320.99 815.60,317.60 818.87,313.47 822.15,308.72 825.42,304.19 828.69,300.18 831.97,296.93 835.24,293.72 838.52,290.32 841.79,287.31 845.07,284.23 848.34,281.37 851.61,278.55 854.89,275.19 858.16,271.62 861.44,267.97 864.71,264.72 867.98,261.56 871.26,258.68 874.53,255.67 877.81,252.39 881.08,249.51 884.36,246.26 887.63,243.29 890.90,240.71 894.18,238.30 897.45,236.38 900.73,234.23 904.00,232.35" />
<text x="780.00" y="104.00" font-size="14" font-family="Arial" fill="#ff7f0e" text-anchor="start">MA60</text>
<polyline fill="none" stroke="#d62728" stroke-width="2" points="707.55,380.72 710.83,380.32 714.10,379.78 717.37,379.19 720.65,378.50 723.92,377.68 727.20,376.95 730.47,376.44 733.75,375.96 737.02,375.41 740.29,374.87 743.57,374.34 746.84,373.99 750.12,373.59 753.39,373.13 756.66,372.37 759.94,371.63 763.21,370.86 766.49,370.11 769.76,369.36 773.03,368.61 776.31,367.89 779.58,367.49 782.86,367.19 786.13,366.97 789.41,366.79 792.68,366.41 795.95,365.81 799.23,365.23 802.50,364.70 805.78,364.22 809.05,363.81 812.32,363.01 815.60,361.87 818.87,360.55 822.15,359.03 825.42,357.74 828.69,356.60 831.97,355.63 835.24,354.69 838.52,353.68 841.79,352.71 845.07,351.59 848.34,350.48 851.61,349.46 854.89,348.29 858.16,347.08 861.44,345.74 864.71,344.48 867.98,343.21 871.26,342.11 874.53,341.03 877.81,339.94 881.08,338.81 884.36,337.59 887.63,336.33 890.90,334.95 894.18,333.56 897.45,332.27 900.73,330.95 904.00,329.69" />
<text x="780.00" y="126.00" font-size="14" font-family="Arial" fill="#d62728" text-anchor="start">MA200</text>
</svg>