<svg xmlns="http://www.w3.org/2000/svg" width="960" height="520" viewBox="0 0 960 520"><rect width="100%" height="100%" fill="white" />
<text x="56.00" y="32.00" font-size="20" font-family="Arial" fill="#1f2933" text-anchor="start">廣達(2382) Price and Moving Averages</text>
<line x1="56" y1="464" x2="904" y2="464" stroke="#cbd2d9" />
<line x1="56" y1="56" x2="56" y2="464" stroke="#cbd2d9" />
<text x="16.00" y="38.00" font-size="12" font-family="Arial" fill="#52606d" text-anchor="start">Price</text>
<line x1="56" y1="464.00" x2="904" y2="464.00" stroke="#edf2f7" />
<line x1="52" y1="464.00" x2="56" y2="464.00" stroke="#9fb3c8" />
<text x="48.00" y="468.00" font-size="11" font-family="Arial" fill="#52606d" text-anchor="end">244</text>
<line x1="56" y1="362.00" x2="904" y2="362.00" stroke="#edf2f7" />
<line x1="52" y1="362.00" x2="56" y2="362.00" stroke="#9fb3c8" />
<text x="48.00" y="366.00" font-size="11" font-family="Arial" fill="#52606d" text-anchor="end">289</text>
<line x1="56" y1="260.00" x2="904" y2="260.00" stroke="#edf2f7" />
<line x1="52" y1="260.00" x2="56" y2="260.00" stroke="#9fb3c8" />
<text x="48.00" y="264.00" font-size="11" font-family="Arial" fill="#52606d" text-anchor="end">335</text>
<line x1="56" y1="158.00" x2="904" y2="158.00" stroke="#edf2f7" />
<line x1="52" y1="158.00" x2="56" y2="158.00" stroke="#9fb3c8" />
<text x="48.00" y="162.00" font-size="11" font-family="Arial" fill="#52606d" text-anchor="end">381</text>
<line x1="56" y1="56.00" x2="904" y2="56.00" stroke="#edf2f7" />
<line x1="52" y1="56.00" x2="56" y2="56.00" stroke="#9fb3c8" />
<text x="48.00" y="60.00" font-size="11" font-family="Arial" fill="#52606d" text-anchor="end">427</text>
<line x1="56.00" y1="464" x2="56.00" y2="468" stroke="#9fb3c8" />
<text x="56.00" y="482.00" font-size="11" font-family="Arial" fill="#52606d" text-anchor="middle">06/10</text>
<line x1="226.25" y1="464" x2="226.25" y2="468" stroke="#9fb3c8" />
<text x="226.25" y="482.00" font-size="11" font-family="Arial" fill="#52606d" text-anchor="middle">08/22</text>
<line x1="396.51" y1="464" x2="396.51" y2="468" stroke="#9fb3c8" />
<text x="396.51" y="482.00" font-size="11" font-family="Arial" fill="#52606d" text-anchor="middle">11/10</text>
<line x1="563.49" y1="464" x2="563.49" y2="468" stroke="#9fb3c8" />
<text x="563.49" y="482.00" font-size="11" font-family="Arial" fill="#52606d" text-anchor="middle">01/22</text>
<line x1="733.75" y1="464" x2="733.75" y2="468" stroke="#9fb3c8" />
<text x="733.75" y="482.00" font-size="11" font-family="Arial" fill="#52606d" text-anchor="middle">04/20</text>
<line x1="904.00" y1="464" x2="904.00" y2="468" stroke="#9fb3c8" />
<text x="904.00" y="482.00" font-size="11" font-family="Arial" fill="#52606d" text-anchor="middle">07/03</text>
<polyline fill="none" stroke="#1f77b4" stroke-width="2" points="56.00,404.06 59.27,405.13 62.55,397.68 65.82,395.56 69.10,398.75 72.37,405.13 75.64,405.13 78.92,413.63 82.19,412.57 85.47,407.25 88.74,391.30 92.02,383.86 95.29,390.24 98.56,399.81 101.84,395.35 105.11,380.87 108.39,378.64 111.66,383.10 114.93,387.56 118.21,389.78 121.48,400.92 124.76,392.01 128.03,398.70 131.31,398.70 134.58,406.49 137.85,404.27 141.13,399.81 144.40,403.15 147.68,397.58 150.95,397.58 154.22,422.09 157.50,417.63 160.77,407.61 164.05,408.72 167.32,400.92 170.59,410.95 173.87,405.38 177.14,379.76 180.42,380.87 183.69,365.28 186.97,364.16 190.24,363.05 193.51,359.71 196.79,360.82 200.06,376.42 203.34,402.04 206.61,404.27 209.88,404.27 213.16,407.61 216.43,409.84 219.71,428.77 222.98,429.89 226.25,431.00 229.53,409.84 232.80,416.52 236.08,407.61 239.35,414.29 242.63,422.09 245.90,436.57 249.17,442.14 252.45,442.14 255.72,434.34 259.00,431.00 262.27,427.66 265.54,422.09 268.82,398.70 272.09,405.38 275.37,396.47 278.64,392.01 281.92,397.58 285.19,398.70 288.46,384.21 291.74,380.87 295.01,380.87 298.29,368.62 301.56,375.30 304.83,371.96 308.11,371.96 311.38,360.82 314.66,368.62 317.93,351.91 321.20,338.54 324.48,319.60 327.75,325.17 331.03,342.99 334.30,350.79 337.58,374.19 340.85,369.73 344.12,357.48 347.40,364.16 350.67,346.34 353.95,358.59 357.22,361.93 360.49,353.02 363.77,317.37 367.04,329.63 370.32,320.71 373.59,325.17 376.86,337.42 380.14,344.11 383.41,366.39 386.69,361.93 389.96,354.13 393.24,367.50 396.51,357.48 399.78,357.48 403.06,365.28 406.33,371.96 409.61,384.21 412.88,392.01 416.15,405.38 419.43,412.06 422.70,396.47 425.98,405.38 429.25,400.92 432.53,394.24 435.80,384.21 439.07,379.76 442.35,378.64 445.62,367.50 448.90,364.16 452.17,355.25 455.44,350.79 458.72,344.11 461.99,344.11 465.27,347.45 468.54,355.25 471.81,365.28 475.09,368.62 478.36,371.96 481.64,398.70 484.91,416.52 488.19,427.66 491.46,416.52 494.73,412.06 498.01,417.63 501.28,418.75 504.56,420.98 507.83,420.98 511.10,420.98 514.38,400.92 517.65,389.78 520.93,387.56 524.20,378.64 527.47,378.64 530.75,398.70 534.02,376.42 537.30,381.99 540.57,385.33 543.85,369.73 547.12,376.42 550.39,361.93 553.67,378.64 556.94,388.67 560.22,394.24 563.49,376.42 566.76,383.10 570.04,367.50 573.31,366.39 576.59,367.50 579.86,376.42 583.14,383.10 586.41,398.70 589.68,390.90 592.96,387.56 596.23,398.70 599.51,384.21 602.78,374.19 606.05,371.96 609.33,369.73 612.60,375.30 615.88,374.19 619.15,344.11 622.42,357.48 625.70,336.31 628.97,350.79 632.25,380.87 635.52,361.93 638.80,363.05 642.07,378.64 645.34,377.53 648.62,363.05 651.89,364.16 655.17,363.05 658.44,363.05 661.71,363.05 664.99,354.13 668.26,368.62 671.54,375.30 674.81,383.10 678.08,379.76 681.36,371.96 684.63,367.50 687.91,363.05 691.18,380.87 694.46,386.44 697.73,359.71 701.00,373.07 704.28,363.05 707.55,321.83 710.83,309.57 714.10,290.64 717.37,296.21 720.65,287.29 723.92,319.60 727.20,297.32 730.47,287.29 733.75,273.93 737.02,249.42 740.29,260.56 743.57,289.52 746.84,287.29 750.12,281.72 753.39,291.75 756.66,289.52 759.94,310.69 763.21,298.43 766.49,291.75 769.76,234.93 773.03,240.50 776.31,248.30 779.58,241.62 782.86,249.42 786.13,248.30 789.41,261.67 792.68,325.17 795.95,338.54 799.23,360.82 802.50,360.82 805.78,320.71 809.05,302.89 812.32,301.78 815.60,301.78 818.87,311.80 822.15,319.60 825.42,251.64 828.69,177.01 831.97,114.62 835.24,77.86 838.52,106.82 841.79,136.90 845.07,168.09 848.34,171.44 851.61,159.18 854.89,182.58 858.16,178.12 861.44,182.58 864.71,199.29 867.98,173.66 871.26,169.21 874.53,160.29 877.81,177.01 881.08,178.12 884.36,190.37 887.63,200.40 890.90,189.26 894.18,187.03 897.45,178.12 900.73,184.80 904.00,166.98" />
<text x="780.00" y="60.00" font-size="14" font-family="Arial" fill="#1f77b4" text-anchor="start">Close</text>
<polyline fill="none" stroke="#2ca02c" stroke-width="2" points="118.21,396.27 121.48,396.11 124.76,395.46 128.03,395.51 131.31,395.67 134.58,396.05 137.85,396.01 141.13,395.74 144.40,395.22 147.68,394.47 150.95,393.99 154.22,395.53 157.50,397.21 160.77,398.08 164.05,398.53 167.32,398.81 170.59,400.31 173.87,401.65 177.14,401.48 180.42,401.15 183.69,399.92 186.97,398.08 190.24,396.63 193.51,394.69 196.79,392.79 200.06,391.29 203.34,391.18 206.61,391.40 209.88,391.45 213.16,391.96 216.43,392.57 219.71,392.90 222.98,393.52 226.25,394.69 229.53,394.74 232.80,395.52 236.08,395.35 239.35,395.80 242.63,397.92 245.90,400.70 249.17,404.54 252.45,408.44 255.72,412.01 259.00,415.57 262.27,418.92 265.54,421.20 268.82,421.03 272.09,421.09 275.37,420.70 278.64,419.92 281.92,419.31 285.19,417.80 288.46,415.52 291.74,413.01 295.01,411.56 298.29,409.17 301.56,407.55 304.83,405.44 308.11,402.93 311.38,399.14 314.66,395.47 317.93,390.95 321.20,386.16 324.48,380.59 327.75,375.47 331.03,371.51 334.30,369.12 337.58,367.56 340.85,366.22 344.12,364.50 347.40,362.82 350.67,360.21 353.95,358.93 357.22,357.98 360.49,356.59 363.77,354.02 367.04,351.74 370.32,349.18 373.59,346.84 376.86,345.67 380.14,344.44 383.41,345.17 386.69,346.34 389.96,348.06 393.24,350.18 396.51,350.90 399.78,351.24 403.06,350.79 406.33,350.90 409.61,352.24 412.88,353.63 416.15,356.59 419.43,359.26 422.70,360.99 425.98,363.60 429.25,367.78 432.53,371.01 435.80,374.19 439.07,376.92 442.35,378.98 445.62,380.15 448.90,380.04 452.17,379.70 455.44,379.53 458.72,378.37 461.99,377.70 465.27,377.20 468.54,376.69 471.81,376.36 475.09,375.58 478.36,374.58 481.64,374.24 484.91,374.47 488.19,376.03 491.46,376.58 494.73,377.14 498.01,378.31 501.28,380.04 504.56,382.10 507.83,384.21 511.10,386.89 514.38,388.73 517.65,390.45 520.93,392.29 524.20,394.02 527.47,395.74 530.75,398.31 534.02,399.36 537.30,400.20 540.57,401.04 543.85,400.92 547.12,399.81 550.39,397.08 553.67,394.63 556.94,393.24 560.22,392.35 563.49,390.29 566.76,388.50 570.04,385.83 573.31,383.10 576.59,380.43 579.86,379.20 583.14,378.87 586.41,379.42 589.68,380.04 592.96,380.48 596.23,380.48 599.51,380.87 602.78,380.48 606.05,379.81 609.33,379.81 612.60,379.76 615.88,380.37 619.15,378.64 622.42,377.08 625.70,374.19 628.97,372.91 632.25,372.79 635.52,372.52 638.80,372.35 642.07,372.91 645.34,372.96 648.62,371.96 651.89,370.23 655.17,368.84 658.44,367.61 661.71,365.83 664.99,364.33 668.26,364.05 671.54,364.22 674.81,364.89 678.08,365.11 681.36,365.00 684.63,366.17 687.91,366.44 691.18,368.67 694.46,370.46 697.73,369.40 701.00,369.95 704.28,369.95 707.55,367.11 710.83,363.72 714.10,360.10 717.37,356.70 720.65,352.91 723.92,350.74 727.20,347.45 730.47,344.11 733.75,339.37 737.02,333.08 740.29,326.95 743.57,322.44 746.84,318.21 750.12,313.92 753.39,310.35 756.66,305.79 759.94,302.00 763.21,298.94 766.49,294.87 769.76,288.46 773.03,284.40 776.31,281.33 779.58,278.88 782.86,276.54 786.13,274.59 789.41,271.70 792.68,273.09 795.95,275.65 799.23,280.00 802.50,285.57 805.78,288.57 809.05,289.24 812.32,289.97 815.60,290.97 818.87,291.97 822.15,293.48 825.42,290.52 828.69,284.45 831.97,275.60 835.24,267.74 838.52,261.06 841.79,255.49 845.07,251.81 848.34,247.91 851.61,243.46 854.89,239.50 858.16,232.15 861.44,224.35 864.71,216.27 867.98,206.92 871.26,199.34 874.53,192.21 877.81,185.97 881.08,179.79 884.36,173.72 887.63,167.76 890.90,164.64 894.18,165.14 897.45,168.32 900.73,173.66 904.00,176.67" />
<text x="780.00" y="82.00" font-size="14" font-family="Arial" fill="#2ca02c" text-anchor="start">MA20</text>
<polyline fill="none" stroke="#ff7f0e" stroke-width="2" points="249.17,400.25 252.45,400.88 255.72,401.37 259.00,401.92 262.27,402.46 265.54,402.85 268.82,402.74 272.09,402.74 275.37,402.46 278.64,402.11 281.92,401.95 285.19,402.08 288.46,402.08 291.74,401.93 295.01,401.61 298.29,401.17 301.56,401.07 304.83,400.96 308.11,400.78 311.38,400.33 314.66,399.98 317.93,399.16 321.20,398.27 324.48,396.95 327.75,395.73 331.03,394.67 334.30,393.78 337.58,393.35 340.85,392.79 344.12,392.12 347.40,391.57 350.67,390.30 353.95,389.32 357.22,388.56 360.49,387.63 363.77,386.24 367.04,384.88 370.32,383.47 373.59,382.56 376.86,381.84 380.14,381.48 383.41,381.52 386.69,381.50 389.96,381.41 393.24,381.52 396.51,381.21 399.78,380.46 403.06,379.81 406.33,379.27 409.61,378.88 412.88,378.59 416.15,378.20 419.43,377.90 422.70,377.33 425.98,377.25 429.25,376.99 432.53,376.77 435.80,376.27 439.07,375.56 442.35,374.60 445.62,373.35 448.90,372.05 452.17,370.73 455.44,369.40 458.72,368.00 461.99,366.70 465.27,365.85 468.54,365.02 471.81,364.50 475.09,364.11 478.36,363.68 481.64,363.68 484.91,364.22 488.19,365.00 491.46,365.59 494.73,366.31 498.01,367.02 501.28,367.80 504.56,368.62 507.83,369.62 511.10,370.49 514.38,371.31 517.65,372.16 520.93,373.30 524.20,374.19 527.47,374.78 530.75,375.58 534.02,375.62 537.30,375.82 540.57,376.29 543.85,376.38 547.12,376.88 550.39,376.94 553.67,377.21 556.94,377.81 560.22,379.09 563.49,379.87 566.76,380.91 570.04,381.61 573.31,382.10 576.59,382.49 579.86,382.65 583.14,383.01 586.41,383.75 589.68,384.14 592.96,384.64 596.23,385.33 599.51,385.64 602.78,385.68 606.05,385.48 609.33,385.10 612.60,384.60 615.88,383.97 619.15,383.10 622.42,382.30 625.70,381.22 628.97,380.50 632.25,380.44 635.52,380.15 638.80,379.89 642.07,380.07 645.34,380.30 648.62,380.43 651.89,380.65 655.17,380.96 658.44,381.28 661.71,381.54 664.99,381.52 668.26,381.58 671.54,381.69 674.81,381.87 678.08,381.56 681.36,380.82 684.63,379.81 687.91,378.92 691.18,378.40 694.46,377.88 697.73,376.90 701.00,376.10 704.28,375.13 707.55,373.48 710.83,371.96 714.10,370.31 717.37,368.78 720.65,367.26 723.92,366.28 727.20,364.59 730.47,363.10 733.75,361.30 737.02,359.04 740.29,357.22 743.57,355.77 746.84,354.52 750.12,352.91 753.39,351.29 756.66,349.55 759.94,348.45 763.21,347.04 766.49,345.78 769.76,343.59 773.03,341.47 776.31,339.34 779.58,336.98 782.86,334.49 786.13,332.11 789.41,330.02 792.68,328.79 795.95,328.03 799.23,327.81 802.50,327.62 805.78,326.80 809.05,325.60 812.32,324.39 815.60,323.69 818.87,322.92 822.15,322.65 825.42,320.99 828.69,317.60 831.97,313.47 835.24,308.72 838.52,304.19 841.79,300.18 845.07,296.93 848.34,293.72 851.61,290.32 854.89,287.31 858.16,284.23 861.44,281.37 864.71,278.55 867.98,275.19 871.26,271.62 874.53,267.97 877.81,264.72 881.08,261.56 884.36,258.68 887.63,255.67 890.90,252.39 894.18,249.51 897.45,246.26 900.73,243.29 904.00,240.71" />
<text x="780.00" y="104.00" font-size="14" font-family="Arial" fill="#ff7f0e" text-anchor="start">MA60</text>
<polyline fill="none" stroke="#d62728" stroke-width="2" points="707.55,382.81 710.83,382.34 714.10,381.77 717.37,381.26 720.65,380.72 723.92,380.32 727.20,379.78 730.47,379.19 733.75,378.50 737.02,377.68 740.29,376.95 743.57,376.44 746.84,375.96 750.12,375.41 753.39,374.87 756.66,374.34 759.94,373.99 763.21,373.59 766.49,373.13 769.76,372.37 773.03,371.63 776.31,370.86 779.58,370.11 782.86,369.36 786.13,368.61 789.41,367.89 792.68,367.49 795.95,367.19 799.23,366.97 802.50,366.79 805.78,366.41 809.05,365.81 812.32,365.23 815.60,364.70 818.87,364.22 822.15,363.81 825.42,363.01 828.69,361.87 831.97,360.55 835.24,359.03 838.52,357.74 841.79,356.60 845.07,355.63 848.34,354.69 851.61,353.68 854.89,352.71 858.16,351.59 861.44,350.48 864.71,349.46 867.98,348.29 871.26,347.08 874.53,345.74 877.81,344.48 881.08,343.21 884.36,342.11 887.63,341.03 890.90,339.94 894.18,338.81 897.45,337.59 900.73,336.33 904.00,334.95" />
<text x="780.00" y="126.00" font-size="14" font-family="Arial" fill="#d62728" text-anchor="start">MA200</text>
</svg>