<svg xmlns="http://www.w3.org/2000/svg" width="960" height="520" viewBox="0 0 960 520"><rect width="100%" height="100%" fill="white" />
<text x="56.00" y="32.00" font-size="20" font-family="Arial" fill="#1f2933" text-anchor="start">技嘉(2376) Price and Moving Averages</text>
<line x1="56" y1="464" x2="904" y2="464" stroke="#cbd2d9" />
<line x1="56" y1="56" x2="56" y2="464" stroke="#cbd2d9" />
<text x="16.00" y="38.00" font-size="12" font-family="Arial" fill="#52606d" text-anchor="start">Price</text>
<line x1="56" y1="464.00" x2="904" y2="464.00" stroke="#edf2f7" />
<line x1="52" y1="464.00" x2="56" y2="464.00" stroke="#9fb3c8" />
<text x="48.00" y="468.00" font-size="11" font-family="Arial" fill="#52606d" text-anchor="end">203</text>
<line x1="56" y1="362.00" x2="904" y2="362.00" stroke="#edf2f7" />
<line x1="52" y1="362.00" x2="56" y2="362.00" stroke="#9fb3c8" />
<text x="48.00" y="366.00" font-size="11" font-family="Arial" fill="#52606d" text-anchor="end">255</text>
<line x1="56" y1="260.00" x2="904" y2="260.00" stroke="#edf2f7" />
<line x1="52" y1="260.00" x2="56" y2="260.00" stroke="#9fb3c8" />
<text x="48.00" y="264.00" font-size="11" font-family="Arial" fill="#52606d" text-anchor="end">306</text>
<line x1="56" y1="158.00" x2="904" y2="158.00" stroke="#edf2f7" />
<line x1="52" y1="158.00" x2="56" y2="158.00" stroke="#9fb3c8" />
<text x="48.00" y="162.00" font-size="11" font-family="Arial" fill="#52606d" text-anchor="end">358</text>
<line x1="56" y1="56.00" x2="904" y2="56.00" stroke="#edf2f7" />
<line x1="52" y1="56.00" x2="56" y2="56.00" stroke="#9fb3c8" />
<text x="48.00" y="60.00" font-size="11" font-family="Arial" fill="#52606d" text-anchor="end">410</text>
<line x1="56.00" y1="464" x2="56.00" y2="468" stroke="#9fb3c8" />
<text x="56.00" y="482.00" font-size="11" font-family="Arial" fill="#52606d" text-anchor="middle">06/17</text>
<line x1="226.25" y1="464" x2="226.25" y2="468" stroke="#9fb3c8" />
<text x="226.25" y="482.00" font-size="11" font-family="Arial" fill="#52606d" text-anchor="middle">08/29</text>
<line x1="396.51" y1="464" x2="396.51" y2="468" stroke="#9fb3c8" />
<text x="396.51" y="482.00" font-size="11" font-family="Arial" fill="#52606d" text-anchor="middle">11/17</text>
<line x1="563.49" y1="464" x2="563.49" y2="468" stroke="#9fb3c8" />
<text x="563.49" y="482.00" font-size="11" font-family="Arial" fill="#52606d" text-anchor="middle">01/29</text>
<line x1="733.75" y1="464" x2="733.75" y2="468" stroke="#9fb3c8" />
<text x="733.75" y="482.00" font-size="11" font-family="Arial" fill="#52606d" text-anchor="middle">04/27</text>
<line x1="904.00" y1="464" x2="904.00" y2="468" stroke="#9fb3c8" />
<text x="904.00" y="482.00" font-size="11" font-family="Arial" fill="#52606d" text-anchor="middle">07/10</text>
<polyline fill="none" stroke="#1f77b4" stroke-width="2" points="56.00,326.00 59.27,322.20 62.55,331.70 65.82,331.70 69.10,337.40 72.37,324.10 75.64,323.15 78.92,324.10 82.19,328.85 85.47,326.00 88.74,319.35 92.02,328.85 95.29,338.35 98.56,344.99 101.84,345.94 105.11,343.09 108.39,334.55 111.66,335.50 114.93,330.75 118.21,338.35 121.48,325.05 124.76,323.15 128.03,318.40 131.31,313.65 134.58,311.75 137.85,331.70 141.13,316.50 144.40,311.75 147.68,317.45 150.95,314.60 154.22,326.95 157.50,334.83 160.77,322.03 164.05,324.98 167.32,316.12 170.59,316.12 173.87,303.32 177.14,300.37 180.42,293.47 183.69,301.35 186.97,298.40 190.24,308.24 193.51,314.15 196.79,308.24 200.06,304.31 203.34,331.87 206.61,326.95 209.88,329.90 213.16,317.10 216.43,311.20 219.71,303.32 222.98,310.21 226.25,318.09 229.53,338.76 232.80,344.67 236.08,343.69 239.35,341.72 242.63,333.84 245.90,323.01 249.17,303.32 252.45,318.09 255.72,324.00 259.00,324.00 262.27,328.92 265.54,319.07 268.82,331.87 272.09,321.04 275.37,308.24 278.64,310.21 281.92,306.27 285.19,316.12 288.46,286.58 291.74,286.58 295.01,274.77 298.29,286.58 301.56,274.77 304.83,250.15 308.11,251.14 311.38,260.00 314.66,274.77 317.93,294.46 321.20,312.18 324.48,314.15 327.75,306.27 331.03,315.14 334.30,302.34 337.58,296.43 340.85,308.24 344.12,313.17 347.40,302.34 350.67,299.38 353.95,303.32 357.22,309.23 360.49,311.20 363.77,318.09 367.04,337.78 370.32,337.78 373.59,315.14 376.86,329.90 380.14,320.06 383.41,322.03 386.69,329.90 389.96,331.87 393.24,330.89 396.51,359.44 399.78,379.13 403.06,391.93 406.33,375.19 409.61,391.93 412.88,384.05 416.15,386.02 419.43,379.13 422.70,377.16 425.98,384.05 429.25,385.04 432.53,387.01 435.80,381.10 439.07,382.08 442.35,383.07 445.62,379.13 448.90,385.04 452.17,382.08 455.44,384.05 458.72,392.92 461.99,400.79 465.27,399.81 468.54,398.82 471.81,396.85 475.09,394.88 478.36,396.85 481.64,402.76 484.91,403.75 488.19,403.75 491.46,393.90 494.73,379.13 498.01,372.24 501.28,353.53 504.56,375.19 507.83,381.10 511.10,381.10 514.38,381.10 517.65,390.95 520.93,399.81 524.20,399.81 527.47,377.16 530.75,381.10 534.02,378.15 537.30,390.95 540.57,394.88 543.85,397.84 547.12,392.92 550.39,393.90 553.67,387.01 556.94,388.98 560.22,389.96 563.49,395.87 566.76,404.73 570.04,415.56 573.31,414.58 576.59,412.61 579.86,418.51 583.14,415.56 586.41,422.45 589.68,417.53 592.96,411.62 596.23,416.54 599.51,414.58 602.78,400.79 606.05,391.93 609.33,397.84 612.60,412.61 615.88,442.14 619.15,434.27 622.42,432.30 625.70,440.17 628.97,428.36 632.25,406.70 635.52,414.58 638.80,404.73 642.07,397.84 645.34,375.19 648.62,372.24 651.89,376.18 655.17,374.21 658.44,405.71 661.71,400.79 664.99,402.76 668.26,403.75 671.54,400.79 674.81,414.58 678.08,425.41 681.36,406.70 684.63,414.58 687.91,425.41 691.18,382.08 694.46,369.29 697.73,346.64 701.00,343.69 704.28,344.67 707.55,314.15 710.83,310.21 714.10,309.23 717.37,314.15 720.65,295.44 723.92,302.34 727.20,322.03 730.47,316.12 733.75,302.34 737.02,309.23 740.29,326.95 743.57,325.97 746.84,314.15 750.12,313.17 753.39,270.83 756.66,255.08 759.94,239.32 763.21,224.56 766.49,231.45 769.76,246.22 773.03,219.63 776.31,220.62 779.58,212.74 782.86,262.95 786.13,268.86 789.41,240.31 792.68,228.49 795.95,200.93 799.23,201.91 802.50,208.80 805.78,198.96 809.05,134.96 812.32,101.49 815.60,94.59 818.87,77.86 822.15,127.08 825.42,136.93 828.69,184.19 831.97,156.62 835.24,185.17 838.52,194.03 841.79,190.10 845.07,175.33 848.34,178.28 851.61,179.27 854.89,186.16 858.16,195.02 861.44,212.74 864.71,196.00 867.98,205.85 871.26,234.40 874.53,223.57 877.81,186.16 881.08,198.96 884.36,196.99 887.63,196.99 890.90,200.93 894.18,219.63 897.45,203.88 900.73,200.93 904.00,200.93" />
<text x="780.00" y="60.00" font-size="14" font-family="Arial" fill="#1f77b4" text-anchor="start">Close</text>
<polyline fill="none" stroke="#2ca02c" stroke-width="2" points="118.21,331.75 121.48,331.70 124.76,331.75 128.03,331.08 131.31,330.18 134.58,328.90 137.85,329.28 141.13,328.94 144.40,328.33 147.68,327.76 150.95,327.19 154.22,327.57 157.50,327.87 160.77,327.05 164.05,326.05 167.32,324.56 170.59,323.21 173.87,321.65 177.14,319.89 180.42,318.03 183.69,316.18 186.97,314.85 190.24,314.10 193.51,313.89 196.79,313.62 200.06,313.24 203.34,313.25 206.61,313.78 209.88,314.68 213.16,314.67 216.43,314.50 219.71,313.31 222.98,312.08 226.25,311.89 229.53,312.58 232.80,314.00 236.08,315.38 239.35,317.30 242.63,318.97 245.90,320.45 249.17,320.55 252.45,321.53 255.72,322.32 259.00,322.81 262.27,323.85 265.54,324.59 268.82,324.59 272.09,324.29 275.37,323.21 278.64,322.86 281.92,322.62 285.19,323.26 288.46,322.08 291.74,320.50 295.01,317.30 298.29,314.40 301.56,310.95 304.83,306.37 308.11,302.24 311.38,299.09 314.66,297.66 317.93,296.48 321.20,295.89 324.48,295.39 327.75,294.26 331.03,294.07 334.30,292.59 337.58,291.36 340.85,291.36 344.12,291.51 347.40,291.31 350.67,290.47 353.95,291.31 357.22,292.44 360.49,294.26 363.77,295.84 367.04,298.99 370.32,303.37 373.59,306.57 376.86,310.06 380.14,312.33 383.41,313.71 386.69,314.59 389.96,315.48 393.24,316.71 396.51,318.93 399.78,322.77 403.06,327.54 406.33,330.89 409.61,334.83 412.88,338.91 416.15,343.24 419.43,347.03 422.70,350.43 425.98,354.07 429.25,357.42 432.53,359.88 435.80,362.05 439.07,365.40 442.35,368.06 445.62,371.01 448.90,374.16 452.17,376.77 455.44,379.38 458.72,382.48 461.99,384.55 465.27,385.58 468.54,385.92 471.81,387.01 475.09,387.16 478.36,387.80 481.64,388.63 484.91,389.86 488.19,391.19 491.46,391.68 494.73,391.39 498.01,390.65 501.28,389.27 504.56,388.93 507.83,388.83 511.10,388.93 514.38,388.73 517.65,389.17 520.93,389.96 524.20,390.31 527.47,389.12 530.75,388.19 534.02,387.16 537.30,386.86 540.57,386.86 543.85,386.91 547.12,386.42 550.39,385.92 553.67,385.09 556.94,384.84 560.22,385.38 563.49,386.56 566.76,389.12 570.04,391.14 573.31,392.82 576.59,394.39 579.86,396.26 583.14,397.49 586.41,398.63 589.68,399.51 592.96,401.23 596.23,403.01 599.51,404.83 602.78,405.32 606.05,405.17 609.33,405.17 612.60,406.16 615.88,408.57 619.15,410.93 622.42,413.10 625.70,415.61 628.97,417.23 632.25,417.33 635.52,417.28 638.80,416.79 642.07,416.05 645.34,413.89 648.62,411.72 651.89,409.41 655.17,407.24 658.44,406.94 661.71,406.16 664.99,405.57 668.26,405.71 671.54,406.16 674.81,406.99 678.08,407.63 681.36,405.86 684.63,404.88 687.91,404.53 691.18,401.63 694.46,398.67 697.73,395.67 701.00,392.13 704.28,389.12 707.55,384.94 710.83,381.69 714.10,378.54 717.37,375.44 720.65,371.50 723.92,366.33 727.20,362.39 730.47,358.06 733.75,352.99 737.02,348.41 740.29,344.03 743.57,339.06 746.84,334.43 750.12,329.36 753.39,321.63 756.66,315.28 759.94,308.78 763.21,302.68 766.49,297.07 769.76,292.15 773.03,287.42 776.31,282.94 779.58,278.12 782.86,275.56 786.13,274.23 789.41,271.13 792.68,266.45 795.95,260.69 799.23,255.67 802.50,250.65 805.78,244.25 809.05,234.70 812.32,224.06 815.60,213.14 818.87,203.49 822.15,197.09 825.42,191.97 828.69,189.95 831.97,186.21 835.24,183.16 838.52,181.88 841.79,180.35 845.07,178.48 848.34,174.25 851.61,169.77 854.89,167.06 858.16,165.38 861.44,165.97 864.71,165.68 867.98,165.53 871.26,167.30 874.53,171.73 877.81,175.97 881.08,181.19 884.36,187.14 887.63,190.64 890.90,193.84 894.18,195.61 897.45,197.97 900.73,198.76 904.00,199.11" />
<text x="780.00" y="82.00" font-size="14" font-family="Arial" fill="#2ca02c" text-anchor="start">MA20</text>
<polyline fill="none" stroke="#ff7f0e" stroke-width="2" points="249.17,322.82 252.45,322.69 255.72,322.72 259.00,322.59 262.27,322.55 265.54,322.24 268.82,322.37 272.09,322.34 275.37,322.07 278.64,321.76 281.92,321.43 285.19,321.38 288.46,320.68 291.74,319.81 295.01,318.64 298.29,317.65 301.56,316.51 304.83,315.11 308.11,313.70 311.38,312.52 314.66,311.46 317.93,310.95 321.20,310.77 324.48,310.70 327.75,310.58 331.03,310.63 334.30,310.14 337.58,309.81 340.85,309.75 344.12,309.68 347.40,309.47 350.67,309.01 353.95,308.49 357.22,308.28 360.49,308.05 363.77,308.08 367.04,308.44 370.32,309.01 373.59,309.26 376.86,309.87 380.14,310.18 383.41,310.57 386.69,310.93 389.96,311.23 393.24,311.61 396.51,312.53 399.78,313.31 403.06,314.40 406.33,315.15 409.61,316.40 412.88,317.61 416.15,318.99 419.43,320.14 422.70,321.12 425.98,321.88 429.25,322.55 432.53,323.27 435.80,323.93 439.07,324.73 442.35,325.74 445.62,327.00 448.90,328.11 452.17,329.08 455.44,330.08 458.72,331.15 461.99,332.51 465.27,333.64 468.54,334.94 471.81,336.42 475.09,337.83 478.36,339.34 481.64,340.78 484.91,342.74 488.19,344.69 491.46,346.67 494.73,348.22 498.01,349.84 501.28,351.56 504.56,353.63 507.83,355.65 511.10,357.42 514.38,358.87 517.65,360.18 520.93,361.61 524.20,363.17 527.47,364.20 530.75,365.51 534.02,366.87 537.30,368.25 540.57,369.61 543.85,371.21 547.12,372.76 550.39,374.27 553.67,375.57 556.94,376.87 560.22,378.06 563.49,379.03 566.76,380.15 570.04,381.82 573.31,383.23 576.59,384.78 579.86,386.38 583.14,387.81 586.41,389.32 589.68,390.77 592.96,391.64 596.23,392.26 599.51,392.64 602.78,393.06 606.05,393.06 609.33,393.29 612.60,393.74 615.88,394.79 619.15,395.74 622.42,396.54 625.70,397.46 628.97,398.15 632.25,398.58 635.52,399.12 638.80,399.48 642.07,399.79 645.34,399.63 648.62,399.46 651.89,399.33 655.17,399.02 658.44,399.10 661.71,399.12 664.99,399.18 668.26,399.30 671.54,399.40 674.81,399.69 678.08,400.07 681.36,400.12 684.63,400.30 687.91,400.82 691.18,400.87 694.46,400.82 697.73,400.71 701.00,400.18 704.28,399.58 707.55,398.46 710.83,397.28 714.10,395.92 717.37,394.49 720.65,392.75 723.92,391.50 727.20,390.52 730.47,389.49 733.75,388.01 737.02,386.58 740.29,385.40 743.57,384.28 746.84,382.95 750.12,381.72 753.39,379.75 756.66,377.51 759.94,374.90 763.21,371.89 766.49,368.83 769.76,366.02 773.03,362.80 776.31,359.51 779.58,356.13 782.86,353.47 786.13,350.99 789.41,348.13 792.68,345.00 795.95,341.44 799.23,338.12 802.50,335.07 805.78,331.76 809.05,327.13 812.32,321.45 815.60,315.79 818.87,309.88 822.15,304.67 825.42,299.81 828.69,296.10 831.97,291.80 835.24,288.14 838.52,284.75 841.79,281.66 845.07,278.38 848.34,275.08 851.61,271.83 854.89,268.17 858.16,264.74 861.44,261.58 864.71,258.11 867.98,254.86 871.26,251.86 874.53,248.50 877.81,244.82 881.08,241.23 884.36,237.42 887.63,234.34 890.90,231.53 894.18,229.41 897.45,227.08 900.73,224.69 904.00,222.80" />
<text x="780.00" y="104.00" font-size="14" font-family="Arial" fill="#ff7f0e" text-anchor="start">MA60</text>
<polyline fill="none" stroke="#d62728" stroke-width="2" points="707.55,353.38 710.83,353.30 714.10,353.23 717.37,353.15 720.65,352.97 723.92,352.79 727.20,352.78 730.47,352.74 733.75,352.64 737.02,352.54 740.29,352.54 743.57,352.58 746.84,352.50 750.12,352.38 753.39,352.01 756.66,351.55 759.94,351.03 763.21,350.48 766.49,349.96 769.76,349.54 773.03,348.95 776.31,348.42 779.58,347.87 782.86,347.59 786.13,347.37 789.41,347.01 792.68,346.50 795.95,345.92 799.23,345.37 802.50,344.83 805.78,344.25 809.05,343.29 812.32,342.12 815.60,340.98 818.87,339.75 822.15,338.80 825.42,337.91 828.69,337.31 831.97,336.59 835.24,336.05 838.52,335.52 841.79,334.97 845.07,334.31 848.34,333.63 851.61,332.99 854.89,332.39 858.16,331.71 861.44,331.14 864.71,330.47 867.98,329.91 871.26,329.53 874.53,329.13 877.81,328.51 881.08,327.91 884.36,327.21 887.63,326.47 890.90,325.75 894.18,325.14 897.45,324.49 900.73,323.88 904.00,323.37" />
<text x="780.00" y="126.00" font-size="14" font-family="Arial" fill="#d62728" text-anchor="start">MA200</text>
</svg>