<svg xmlns="http://www.w3.org/2000/svg" width="960" height="520" viewBox="0 0 960 520"><rect width="100%" height="100%" fill="white" />
<text x="56.00" y="32.00" font-size="20" font-family="Arial" fill="#1f2933" text-anchor="start">日月光投控(3711) Price and Moving Averages</text>
<line x1="56" y1="464" x2="904" y2="464" stroke="#cbd2d9" />
<line x1="56" y1="56" x2="56" y2="464" stroke="#cbd2d9" />
<text x="16.00" y="38.00" font-size="12" font-family="Arial" fill="#52606d" text-anchor="start">Price</text>
<line x1="56" y1="464.00" x2="904" y2="464.00" stroke="#edf2f7" />
<line x1="52" y1="464.00" x2="56" y2="464.00" stroke="#9fb3c8" />
<text x="48.00" y="468.00" font-size="11" font-family="Arial" fill="#52606d" text-anchor="end">103</text>
<line x1="56" y1="362.00" x2="904" y2="362.00" stroke="#edf2f7" />
<line x1="52" y1="362.00" x2="56" y2="362.00" stroke="#9fb3c8" />
<text x="48.00" y="366.00" font-size="11" font-family="Arial" fill="#52606d" text-anchor="end">266</text>
<line x1="56" y1="260.00" x2="904" y2="260.00" stroke="#edf2f7" />
<line x1="52" y1="260.00" x2="56" y2="260.00" stroke="#9fb3c8" />
<text x="48.00" y="264.00" font-size="11" font-family="Arial" fill="#52606d" text-anchor="end">429</text>
<line x1="56" y1="158.00" x2="904" y2="158.00" stroke="#edf2f7" />
<line x1="52" y1="158.00" x2="56" y2="158.00" stroke="#9fb3c8" />
<text x="48.00" y="162.00" font-size="11" font-family="Arial" fill="#52606d" text-anchor="end">592</text>
<line x1="56" y1="56.00" x2="904" y2="56.00" stroke="#edf2f7" />
<line x1="52" y1="56.00" x2="56" y2="56.00" stroke="#9fb3c8" />
<text x="48.00" y="60.00" font-size="11" font-family="Arial" fill="#52606d" text-anchor="end">755</text>
<line x1="56.00" y1="464" x2="56.00" y2="468" stroke="#9fb3c8" />
<text x="56.00" y="482.00" font-size="11" font-family="Arial" fill="#52606d" text-anchor="middle">06/19</text>
<line x1="226.25" y1="464" x2="226.25" y2="468" stroke="#9fb3c8" />
<text x="226.25" y="482.00" font-size="11" font-family="Arial" fill="#52606d" text-anchor="middle">09/02</text>
<line x1="396.51" y1="464" x2="396.51" y2="468" stroke="#9fb3c8" />
<text x="396.51" y="482.00" font-size="11" font-family="Arial" fill="#52606d" text-anchor="middle">11/19</text>
<line x1="563.49" y1="464" x2="563.49" y2="468" stroke="#9fb3c8" />
<text x="563.49" y="482.00" font-size="11" font-family="Arial" fill="#52606d" text-anchor="middle">02/02</text>
<line x1="733.75" y1="464" x2="733.75" y2="468" stroke="#9fb3c8" />
<text x="733.75" y="482.00" font-size="11" font-family="Arial" fill="#52606d" text-anchor="middle">04/29</text>
<line x1="904.00" y1="464" x2="904.00" y2="468" stroke="#9fb3c8" />
<text x="904.00" y="482.00" font-size="11" font-family="Arial" fill="#52606d" text-anchor="middle">07/14</text>
<polyline fill="none" stroke="#1f77b4" stroke-width="2" points="56.00,441.25 59.27,442.14 62.55,440.65 65.82,439.16 69.10,437.07 72.37,437.37 75.64,438.86 78.92,440.35 82.19,441.55 85.47,440.74 88.74,439.19 92.02,437.33 95.29,439.19 98.56,439.81 101.84,437.64 105.11,435.47 108.39,435.47 111.66,436.40 114.93,435.16 118.21,434.85 121.48,434.54 124.76,432.99 128.03,433.92 131.31,434.85 134.58,433.30 137.85,432.07 141.13,433.30 144.40,432.69 147.68,433.30 150.95,434.23 154.22,433.92 157.50,437.02 160.77,437.64 164.05,438.57 167.32,436.71 170.59,436.09 173.87,434.85 177.14,436.71 180.42,436.40 183.69,436.71 186.97,436.71 190.24,435.16 193.51,436.40 196.79,438.57 200.06,439.19 203.34,439.50 206.61,436.40 209.88,436.09 213.16,435.16 216.43,437.02 219.71,434.85 222.98,431.76 226.25,431.14 229.53,431.14 232.80,432.99 236.08,431.76 239.35,422.15 242.63,424.94 245.90,423.70 249.17,425.25 252.45,424.94 255.72,425.25 259.00,423.39 262.27,423.70 265.54,423.08 268.82,423.08 272.09,421.53 275.37,420.29 278.64,421.84 281.92,421.84 285.19,425.87 288.46,426.80 291.74,427.42 295.01,426.49 298.29,425.87 301.56,420.91 304.83,420.29 308.11,417.50 311.38,421.22 314.66,423.39 317.93,418.12 321.20,409.75 324.48,406.96 327.75,404.48 331.03,407.58 334.30,408.82 337.58,406.96 340.85,402.94 344.12,402.63 347.40,391.47 350.67,388.99 353.95,375.04 357.22,375.97 360.49,380.31 363.77,382.79 367.04,383.41 370.32,386.82 373.59,386.82 376.86,387.13 380.14,387.75 383.41,384.96 386.69,390.54 389.96,392.09 393.24,395.19 396.51,398.60 399.78,390.54 403.06,398.91 406.33,397.98 409.61,397.05 412.88,393.64 416.15,385.58 419.43,386.20 422.70,389.30 425.98,386.82 429.25,386.51 432.53,387.13 435.80,385.27 439.07,381.24 442.35,379.69 445.62,376.90 448.90,376.90 452.17,377.52 455.44,383.41 458.72,386.51 461.99,386.82 465.27,390.85 468.54,386.20 471.81,384.65 475.09,383.10 478.36,383.10 481.64,379.38 484.91,372.88 488.19,374.12 491.46,373.19 494.73,368.54 498.01,365.13 501.28,360.17 504.56,358.00 507.83,358.93 511.10,359.86 514.38,353.04 517.65,349.01 520.93,345.91 524.20,343.44 527.47,340.34 530.75,343.13 534.02,344.99 537.30,348.08 540.57,343.75 543.85,337.86 547.12,335.07 550.39,338.48 553.67,333.83 556.94,336.31 560.22,344.37 563.49,347.46 566.76,341.27 570.04,340.96 573.31,352.42 576.59,339.72 579.86,325.77 583.14,315.24 586.41,308.73 589.68,312.14 592.96,291.99 596.23,287.35 599.51,288.27 602.78,298.81 606.05,305.63 609.33,325.46 612.60,309.35 615.88,316.48 619.15,330.11 622.42,320.50 625.70,314.31 628.97,320.81 632.25,316.78 635.52,319.26 638.80,316.48 642.07,306.87 645.34,313.38 648.62,315.24 651.89,324.22 655.17,322.36 658.44,310.28 661.71,305.94 664.99,309.35 668.26,309.35 671.54,324.84 674.81,304.70 678.08,304.70 681.36,310.28 684.63,291.06 687.91,285.49 691.18,284.87 694.46,269.68 697.73,265.65 701.00,251.71 704.28,249.23 707.55,254.50 710.83,242.41 714.10,235.90 717.37,240.24 720.65,240.55 723.92,221.03 727.20,221.34 730.47,221.34 733.75,225.68 737.02,232.18 740.29,203.05 743.57,206.15 746.84,203.67 750.12,193.76 753.39,208.63 756.66,195.62 759.94,184.46 763.21,188.80 766.49,188.80 769.76,189.42 773.03,212.35 776.31,235.90 779.58,233.42 782.86,212.35 786.13,180.74 789.41,146.03 792.68,149.75 795.95,130.54 799.23,139.84 802.50,149.75 805.78,155.95 809.05,162.77 812.32,145.41 815.60,160.91 818.87,170.83 822.15,193.76 825.42,175.78 828.69,194.38 831.97,191.28 835.24,162.77 838.52,162.77 841.79,161.53 845.07,159.67 848.34,148.51 851.61,110.71 854.89,118.14 858.16,123.72 861.44,131.16 864.71,136.74 867.98,139.84 871.26,106.99 874.53,92.73 877.81,77.86 881.08,101.88 884.36,103.76 887.63,121.27 890.90,137.53 894.18,105.01 897.45,105.01 900.73,109.39 904.00,127.53" />
<text x="780.00" y="60.00" font-size="14" font-family="Arial" fill="#1f77b4" text-anchor="start">Close</text>
<polyline fill="none" stroke="#2ca02c" stroke-width="2" points="118.21,438.48 121.48,438.15 124.76,437.69 128.03,437.35 131.31,437.14 134.58,436.95 137.85,436.69 141.13,436.41 144.40,436.03 147.68,435.61 150.95,435.29 154.22,435.02 157.50,435.01 160.77,434.93 164.05,434.87 167.32,434.82 170.59,434.85 173.87,434.82 177.14,434.84 180.42,434.90 183.69,434.99 186.97,435.10 190.24,435.21 193.51,435.33 196.79,435.52 200.06,435.82 203.34,436.19 206.61,436.34 209.88,436.51 213.16,436.61 216.43,436.74 219.71,436.79 222.98,436.53 226.25,436.20 229.53,435.83 232.80,435.64 236.08,435.43 239.35,434.79 242.63,434.20 245.90,433.57 249.17,432.99 252.45,432.41 255.72,431.91 259.00,431.26 262.27,430.52 265.54,429.71 268.82,428.89 272.09,428.15 275.37,427.35 278.64,426.69 281.92,425.93 285.19,425.48 288.46,425.23 291.74,425.05 295.01,424.81 298.29,424.46 301.56,423.92 304.83,423.82 308.11,423.45 311.38,423.33 314.66,423.23 317.93,422.89 321.20,422.12 324.48,421.30 327.75,420.34 331.03,419.56 334.30,418.85 337.58,418.12 340.85,417.25 344.12,416.29 347.40,414.77 350.67,412.93 353.95,410.34 357.22,407.77 360.49,405.46 363.77,403.31 367.04,401.43 370.32,399.76 373.59,398.22 376.86,396.52 380.14,394.74 383.41,393.08 386.69,392.12 389.96,391.38 393.24,390.91 396.51,390.46 399.78,389.55 403.06,389.15 406.33,388.90 409.61,388.62 412.88,388.73 416.15,388.56 419.43,389.11 422.70,389.78 425.98,390.11 429.25,390.29 432.53,390.48 435.80,390.40 439.07,390.12 442.35,389.75 445.62,389.21 448.90,388.80 452.17,388.15 455.44,387.72 458.72,387.29 461.99,386.70 465.27,386.71 468.54,386.08 471.81,385.41 475.09,384.71 478.36,384.19 481.64,383.88 484.91,383.21 488.19,382.45 491.46,381.77 494.73,380.87 498.01,379.77 501.28,378.52 504.56,377.35 507.83,376.32 511.10,375.46 514.38,374.27 517.65,372.84 520.93,370.97 524.20,368.82 527.47,366.49 530.75,364.11 534.02,362.04 537.30,360.22 540.57,358.25 543.85,355.99 547.12,353.77 550.39,352.05 553.67,350.04 556.94,348.19 560.22,346.98 563.49,346.10 566.76,345.16 570.04,344.30 573.31,343.98 576.59,342.97 579.86,341.61 583.14,339.92 586.41,338.06 589.68,336.49 592.96,334.08 596.23,331.29 599.51,328.45 602.78,325.99 606.05,324.08 609.33,323.46 612.60,322.18 615.88,321.08 619.15,320.89 622.42,320.10 625.70,318.60 628.97,317.27 632.25,316.04 635.52,314.96 638.80,313.16 642.07,311.52 645.34,310.90 648.62,310.90 651.89,311.67 655.17,312.18 658.44,313.10 661.71,314.03 664.99,315.08 668.26,315.61 671.54,316.57 674.81,315.53 678.08,315.30 681.36,314.99 684.63,313.04 687.91,311.28 691.18,309.81 694.46,307.26 697.73,304.70 701.00,301.32 704.28,297.96 707.55,295.34 710.83,291.79 714.10,287.83 717.37,283.63 720.65,279.54 723.92,275.07 727.20,270.84 730.47,266.44 733.75,262.26 737.02,257.63 740.29,252.54 743.57,247.62 746.84,242.29 750.12,237.42 753.39,233.58 756.66,229.12 759.94,224.86 763.21,221.01 766.49,217.87 769.76,214.88 773.03,212.77 776.31,212.44 779.58,212.32 782.86,210.93 786.13,207.93 789.41,204.19 792.68,200.61 795.95,196.07 799.23,191.77 802.50,187.65 805.78,185.30 809.05,183.13 812.32,180.21 815.60,178.57 818.87,176.68 822.15,176.59 825.42,176.16 828.69,176.43 831.97,176.56 835.24,175.23 838.52,172.75 841.79,169.03 845.07,165.34 848.34,162.15 851.61,158.65 854.89,157.25 858.16,155.95 861.44,155.98 864.71,155.83 867.98,155.33 871.26,152.88 874.53,149.38 877.81,146.00 881.08,143.05 884.36,139.70 887.63,136.07 890.90,134.16 894.18,129.69 897.45,125.38 900.73,122.71 904.00,120.95" />
<text x="780.00" y="82.00" font-size="14" font-family="Arial" fill="#2ca02c" text-anchor="start">MA20</text>
<polyline fill="none" stroke="#ff7f0e" stroke-width="2" points="249.17,435.49 252.45,435.22 255.72,434.94 259.00,434.65 262.27,434.39 265.54,434.16 268.82,433.92 272.09,433.63 275.37,433.30 278.64,432.97 281.92,432.65 285.19,432.43 288.46,432.26 291.74,432.06 295.01,431.84 298.29,431.64 301.56,431.40 304.83,431.15 308.11,430.83 311.38,430.60 314.66,430.41 317.93,430.13 321.20,429.75 324.48,429.30 327.75,428.79 331.03,428.36 334.30,427.97 337.58,427.54 340.85,427.04 344.12,426.53 347.40,425.82 350.67,425.07 353.95,424.03 357.22,423.01 360.49,422.04 363.77,421.14 367.04,420.26 370.32,419.46 373.59,418.63 376.86,417.81 380.14,416.99 383.41,416.13 386.69,415.38 389.96,414.64 393.24,413.92 396.51,413.24 399.78,412.43 403.06,411.80 406.33,411.17 409.61,410.53 412.88,409.81 416.15,408.99 419.43,408.23 422.70,407.53 425.98,406.79 429.25,406.02 432.53,405.28 435.80,404.66 439.07,403.93 442.35,403.20 445.62,402.39 448.90,401.59 452.17,400.80 455.44,400.13 458.72,399.51 461.99,398.91 465.27,398.37 468.54,397.78 471.81,397.19 475.09,396.54 478.36,395.90 481.64,395.12 484.91,394.22 488.19,393.33 491.46,392.45 494.73,391.49 498.01,390.56 501.28,389.56 504.56,388.57 507.83,387.53 511.10,386.47 514.38,385.39 517.65,384.37 520.93,383.36 524.20,382.34 527.47,381.22 530.75,380.12 534.02,379.09 537.30,378.17 540.57,377.19 543.85,376.30 547.12,375.40 550.39,374.79 553.67,374.09 556.94,373.36 560.22,372.72 563.49,372.12 566.76,371.36 570.04,370.59 573.31,370.01 576.59,369.21 579.86,368.23 583.14,366.97 586.41,365.58 589.68,364.20 592.96,362.42 596.23,360.70 599.51,358.86 602.78,357.21 606.05,355.68 609.33,354.55 612.60,353.27 615.88,352.11 619.15,351.13 622.42,350.02 625.70,348.82 628.97,347.71 632.25,346.57 635.52,345.54 638.80,344.48 642.07,343.32 645.34,342.26 648.62,341.22 651.89,340.23 655.17,339.16 658.44,337.89 661.71,336.47 664.99,335.19 668.26,333.94 671.54,332.97 674.81,331.66 678.08,330.42 681.36,329.37 684.63,327.99 687.91,326.53 691.18,325.13 694.46,323.54 697.73,321.97 701.00,320.19 704.28,318.37 707.55,316.61 710.83,314.77 714.10,312.88 717.37,311.12 720.65,309.40 723.92,307.42 727.20,305.39 730.47,303.33 733.75,301.29 737.02,299.43 740.29,297.18 743.57,295.03 746.84,292.78 750.12,290.45 753.39,288.32 756.66,285.84 759.94,283.13 763.21,280.58 766.49,278.05 769.76,275.33 773.03,273.21 776.31,271.71 779.58,270.35 782.86,268.74 786.13,266.55 789.41,264.12 792.68,261.83 795.95,259.20 799.23,256.55 802.50,253.95 805.78,251.12 809.05,248.68 812.32,245.83 815.60,243.01 818.87,240.52 822.15,238.51 825.42,236.09 828.69,234.05 831.97,231.92 835.24,229.35 838.52,226.95 841.79,224.42 845.07,221.83 848.34,218.90 851.61,215.37 854.89,212.17 858.16,209.13 861.44,206.16 864.71,203.29 867.98,200.20 871.26,196.91 874.53,193.38 877.81,189.50 881.08,186.35 884.36,183.32 887.63,180.59 890.90,178.39 894.18,175.71 897.45,173.27 900.73,170.94 904.00,168.82" />
<text x="780.00" y="104.00" font-size="14" font-family="Arial" fill="#ff7f0e" text-anchor="start">MA60</text>
<polyline fill="none" stroke="#d62728" stroke-width="2" points="707.55,383.89 710.83,382.90 714.10,381.87 717.37,380.87 720.65,379.87 723.92,378.79 727.20,377.71 730.47,376.63 733.75,375.55 737.02,374.51 740.29,373.32 743.57,372.15 746.84,370.98 750.12,369.76 753.39,368.60 756.66,367.39 759.94,366.14 763.21,364.90 766.49,363.66 769.76,362.44 773.03,361.32 776.31,360.33 779.58,359.33 782.86,358.22 786.13,356.95 789.41,355.52 792.68,354.11 795.95,352.59 799.23,351.13 802.50,349.71 805.78,348.32 809.05,346.96 812.32,345.50 815.60,344.12 818.87,342.78 822.15,341.57 825.42,340.27 828.69,339.06 831.97,337.84 835.24,336.47 838.52,335.10 841.79,333.72 845.07,332.34 848.34,330.91 851.61,329.27 854.89,327.66 858.16,326.08 861.44,324.56 864.71,323.06 867.98,321.58 871.26,319.93 874.53,318.22 877.81,316.45 881.08,314.81 884.36,313.17 887.63,311.61 890.90,310.14 894.18,308.55 897.45,306.95 900.73,305.38 904.00,303.89" />
<text x="780.00" y="126.00" font-size="14" font-family="Arial" fill="#d62728" text-anchor="start">MA200</text>
</svg>