<svg xmlns="http://www.w3.org/2000/svg" width="960" height="520" viewBox="0 0 960 520"><rect width="100%" height="100%" fill="white" />
<text x="56.00" y="32.00" font-size="20" font-family="Arial" fill="#1f2933" text-anchor="start">日月光投控(3711) Price and Moving Averages</text>
<line x1="56" y1="464" x2="904" y2="464" stroke="#cbd2d9" />
<line x1="56" y1="56" x2="56" y2="464" stroke="#cbd2d9" />
<text x="16.00" y="38.00" font-size="12" font-family="Arial" fill="#52606d" text-anchor="start">Price</text>
<line x1="56" y1="464.00" x2="904" y2="464.00" stroke="#edf2f7" />
<line x1="52" y1="464.00" x2="56" y2="464.00" stroke="#9fb3c8" />
<text x="48.00" y="468.00" font-size="11" font-family="Arial" fill="#52606d" text-anchor="end">104</text>
<line x1="56" y1="362.00" x2="904" y2="362.00" stroke="#edf2f7" />
<line x1="52" y1="362.00" x2="56" y2="362.00" stroke="#9fb3c8" />
<text x="48.00" y="366.00" font-size="11" font-family="Arial" fill="#52606d" text-anchor="end">267</text>
<line x1="56" y1="260.00" x2="904" y2="260.00" stroke="#edf2f7" />
<line x1="52" y1="260.00" x2="56" y2="260.00" stroke="#9fb3c8" />
<text x="48.00" y="264.00" font-size="11" font-family="Arial" fill="#52606d" text-anchor="end">430</text>
<line x1="56" y1="158.00" x2="904" y2="158.00" stroke="#edf2f7" />
<line x1="52" y1="158.00" x2="56" y2="158.00" stroke="#9fb3c8" />
<text x="48.00" y="162.00" font-size="11" font-family="Arial" fill="#52606d" text-anchor="end">592</text>
<line x1="56" y1="56.00" x2="904" y2="56.00" stroke="#edf2f7" />
<line x1="52" y1="56.00" x2="56" y2="56.00" stroke="#9fb3c8" />
<text x="48.00" y="60.00" font-size="11" font-family="Arial" fill="#52606d" text-anchor="end">755</text>
<line x1="56.00" y1="464" x2="56.00" y2="468" stroke="#9fb3c8" />
<text x="56.00" y="482.00" font-size="11" font-family="Arial" fill="#52606d" text-anchor="middle">06/27</text>
<line x1="226.25" y1="464" x2="226.25" y2="468" stroke="#9fb3c8" />
<text x="226.25" y="482.00" font-size="11" font-family="Arial" fill="#52606d" text-anchor="middle">09/10</text>
<line x1="396.51" y1="464" x2="396.51" y2="468" stroke="#9fb3c8" />
<text x="396.51" y="482.00" font-size="11" font-family="Arial" fill="#52606d" text-anchor="middle">11/27</text>
<line x1="563.49" y1="464" x2="563.49" y2="468" stroke="#9fb3c8" />
<text x="563.49" y="482.00" font-size="11" font-family="Arial" fill="#52606d" text-anchor="middle">02/10</text>
<line x1="733.75" y1="464" x2="733.75" y2="468" stroke="#9fb3c8" />
<text x="733.75" y="482.00" font-size="11" font-family="Arial" fill="#52606d" text-anchor="middle">05/08</text>
<line x1="904.00" y1="464" x2="904.00" y2="468" stroke="#9fb3c8" />
<text x="904.00" y="482.00" font-size="11" font-family="Arial" fill="#52606d" text-anchor="middle">07/22</text>
<polyline fill="none" stroke="#1f77b4" stroke-width="2" points="56.00,439.45 59.27,440.95 62.55,442.14 65.82,441.34 69.10,439.79 72.37,437.92 75.64,439.79 78.92,440.41 82.19,438.23 85.47,436.06 88.74,436.06 92.02,436.99 95.29,435.75 98.56,435.44 101.84,435.13 105.11,433.58 108.39,434.51 111.66,435.44 114.93,433.89 118.21,432.65 121.48,433.89 124.76,433.27 128.03,433.89 131.31,434.82 134.58,434.51 137.85,437.61 141.13,438.23 144.40,439.17 147.68,437.30 150.95,436.68 154.22,435.44 157.50,437.30 160.77,436.99 164.05,437.30 167.32,437.30 170.59,435.75 173.87,436.99 177.14,439.17 180.42,439.79 183.69,440.10 186.97,436.99 190.24,436.68 193.51,435.75 196.79,437.61 200.06,435.44 203.34,432.34 206.61,431.72 209.88,431.72 213.16,433.58 216.43,432.34 219.71,422.71 222.98,425.51 226.25,424.27 229.53,425.82 232.80,425.51 236.08,425.82 239.35,423.96 242.63,424.27 245.90,423.65 249.17,423.65 252.45,422.09 255.72,420.85 259.00,422.40 262.27,422.40 265.54,426.44 268.82,427.37 272.09,427.99 275.37,427.06 278.64,426.44 281.92,421.47 285.19,420.85 288.46,418.06 291.74,421.78 295.01,423.96 298.29,418.68 301.56,410.30 304.83,407.50 308.11,405.02 311.38,408.13 314.66,409.37 317.93,407.50 321.20,403.47 324.48,403.16 327.75,391.98 331.03,389.50 334.30,375.53 337.58,376.46 340.85,380.81 344.12,383.29 347.40,383.91 350.67,387.33 353.95,387.33 357.22,387.64 360.49,388.26 363.77,385.47 367.04,391.05 370.32,392.61 373.59,395.71 376.86,399.12 380.14,391.05 383.41,399.43 386.69,398.50 389.96,397.57 393.24,394.16 396.51,386.09 399.78,386.71 403.06,389.81 406.33,387.33 409.61,387.02 412.88,387.64 416.15,385.78 419.43,381.74 422.70,380.19 425.98,377.40 429.25,377.40 432.53,378.02 435.80,383.91 439.07,387.02 442.35,387.33 445.62,391.36 448.90,386.71 452.17,385.16 455.44,383.60 458.72,383.60 461.99,379.88 465.27,373.36 468.54,374.60 471.81,373.67 475.09,369.01 478.36,365.60 481.64,360.63 484.91,358.46 488.19,359.39 491.46,360.32 494.73,353.49 498.01,349.46 501.28,346.36 504.56,343.87 507.83,340.77 511.10,343.56 514.38,345.42 517.65,348.53 520.93,344.18 524.20,338.28 527.47,335.49 530.75,338.91 534.02,334.25 537.30,336.73 540.57,344.80 543.85,347.91 547.12,341.70 550.39,341.39 553.67,352.87 556.94,340.15 560.22,326.18 563.49,315.63 566.76,309.11 570.04,312.52 573.31,292.35 576.59,287.69 579.86,288.62 583.14,299.17 586.41,306.00 589.68,325.87 592.96,309.73 596.23,316.87 599.51,330.52 602.78,320.90 606.05,314.69 609.33,321.21 612.60,317.18 615.88,319.66 619.15,316.87 622.42,307.24 625.70,313.76 628.97,315.63 632.25,324.63 635.52,322.76 638.80,310.66 642.07,306.31 645.34,309.73 648.62,309.73 651.89,325.25 655.17,305.07 658.44,305.07 661.71,310.66 664.99,291.41 668.26,285.83 671.54,285.21 674.81,270.00 678.08,265.96 681.36,251.99 684.63,249.51 687.91,254.79 691.18,242.68 694.46,236.16 697.73,240.51 701.00,240.82 704.28,221.26 707.55,221.57 710.83,221.57 714.10,225.92 717.37,232.44 720.65,203.26 723.92,206.36 727.20,203.88 730.47,193.95 733.75,208.85 737.02,195.81 740.29,184.64 743.57,188.98 746.84,188.98 750.12,189.60 753.39,212.57 756.66,236.16 759.94,233.68 763.21,212.57 766.49,180.91 769.76,146.15 773.03,149.87 776.31,130.63 779.58,139.94 782.86,149.87 786.13,156.08 789.41,162.91 792.68,145.52 795.95,161.04 799.23,170.98 802.50,193.95 805.78,175.94 809.05,194.57 812.32,191.46 815.60,162.91 818.87,162.91 822.15,161.67 825.42,159.80 828.69,148.63 831.97,110.76 835.24,118.21 838.52,123.80 841.79,131.25 845.07,136.83 848.34,139.94 851.61,107.03 854.89,92.76 858.16,77.86 861.44,101.92 864.71,103.80 867.98,121.34 871.26,137.63 874.53,105.06 877.81,105.06 881.08,109.44 884.36,127.61 887.63,101.30 890.90,101.92 894.18,144.52 897.45,155.17 900.73,132.62 904.00,118.21" />
<text x="780.00" y="60.00" font-size="14" font-family="Arial" fill="#1f77b4" text-anchor="start">Close</text>
<polyline fill="none" stroke="#2ca02c" stroke-width="2" points="118.21,437.28 121.48,437.00 124.76,436.61 128.03,436.20 131.31,435.88 134.58,435.61 137.85,435.60 141.13,435.52 144.40,435.46 147.68,435.41 150.95,435.44 154.22,435.41 157.50,435.43 160.77,435.49 164.05,435.58 167.32,435.69 170.59,435.80 173.87,435.92 177.14,436.11 180.42,436.40 183.69,436.78 186.97,436.93 190.24,437.10 193.51,437.19 196.79,437.33 200.06,437.38 203.34,437.12 206.61,436.79 209.88,436.42 213.16,436.23 216.43,436.01 219.71,435.38 222.98,434.79 226.25,434.15 229.53,433.58 232.80,432.99 236.08,432.49 239.35,431.84 242.63,431.09 245.90,430.29 249.17,429.47 252.45,428.72 255.72,427.93 259.00,427.26 262.27,426.50 265.54,426.05 268.82,425.80 272.09,425.62 275.37,425.38 278.64,425.03 281.92,424.48 285.19,424.39 288.46,424.02 291.74,423.89 295.01,423.80 298.29,423.46 301.56,422.68 304.83,421.86 308.11,420.90 311.38,420.12 314.66,419.41 317.93,418.68 321.20,417.81 324.48,416.85 327.75,415.33 331.03,413.48 334.30,410.89 337.58,408.31 340.85,406.00 344.12,403.84 347.40,401.96 350.67,400.29 353.95,398.75 357.22,397.04 360.49,395.26 363.77,393.60 367.04,392.64 370.32,391.89 373.59,391.43 376.86,390.98 380.14,390.06 383.41,389.66 386.69,389.41 389.96,389.13 393.24,389.24 396.51,389.07 399.78,389.63 403.06,390.29 406.33,390.62 409.61,390.80 412.88,390.99 416.15,390.91 419.43,390.63 422.70,390.26 425.98,389.72 429.25,389.31 432.53,388.66 435.80,388.23 439.07,387.79 442.35,387.20 445.62,387.22 448.90,386.58 452.17,385.92 455.44,385.22 458.72,384.69 461.99,384.38 465.27,383.71 468.54,382.95 471.81,382.27 475.09,381.37 478.36,380.27 481.64,379.01 484.91,377.85 488.19,376.81 491.46,375.95 494.73,374.76 498.01,373.33 501.28,371.45 504.56,369.29 507.83,366.97 511.10,364.58 514.38,362.51 517.65,360.68 520.93,358.71 524.20,356.44 527.47,354.22 530.75,352.50 534.02,350.48 537.30,348.64 540.57,347.43 543.85,346.54 547.12,345.59 550.39,344.74 553.67,344.42 556.94,343.41 560.22,342.04 563.49,340.35 566.76,338.49 570.04,336.92 573.31,334.50 576.59,331.70 579.86,328.86 583.14,326.40 586.41,324.49 589.68,323.87 592.96,322.58 596.23,321.48 599.51,321.29 602.78,320.50 606.05,318.99 609.33,317.66 612.60,316.43 615.88,315.35 619.15,313.55 622.42,311.90 625.70,311.28 628.97,311.28 632.25,312.06 635.52,312.57 638.80,313.48 642.07,314.41 645.34,315.47 648.62,316.00 651.89,316.96 655.17,315.92 658.44,315.69 661.71,315.38 664.99,313.42 668.26,311.67 671.54,310.19 674.81,307.63 678.08,305.07 681.36,301.69 684.63,298.32 687.91,295.70 691.18,292.14 694.46,288.17 697.73,283.96 701.00,279.87 704.28,275.40 707.55,271.16 710.83,266.75 714.10,262.56 717.37,257.92 720.65,252.83 723.92,247.90 727.20,242.56 730.47,237.68 733.75,233.83 737.02,229.36 740.29,225.10 743.57,221.25 746.84,218.10 750.12,215.10 753.39,212.99 756.66,212.66 759.94,212.54 763.21,211.14 766.49,208.15 769.76,204.39 773.03,200.81 776.31,196.26 779.58,191.96 782.86,187.83 786.13,185.47 789.41,183.30 792.68,180.38 795.95,178.74 799.23,176.84 802.50,176.75 805.78,176.32 809.05,176.60 812.32,176.72 815.60,175.39 818.87,172.90 822.15,169.18 825.42,165.48 828.69,162.29 831.97,158.78 835.24,157.38 838.52,156.08 841.79,156.11 845.07,155.95 848.34,155.46 851.61,153.01 854.89,149.50 858.16,146.11 861.44,143.16 864.71,139.80 867.98,136.17 871.26,134.25 874.53,129.78 877.81,125.46 881.08,122.78 884.36,121.02 887.63,118.00 890.90,115.11 894.18,114.90 897.45,117.12 900.73,117.84 904.00,117.56" />
<text x="780.00" y="82.00" font-size="14" font-family="Arial" fill="#2ca02c" text-anchor="start">MA20</text>
<polyline fill="none" stroke="#ff7f0e" stroke-width="2" points="249.17,434.51 252.45,434.22 255.72,433.88 259.00,433.55 262.27,433.24 265.54,433.01 268.82,432.84 272.09,432.64 275.37,432.42 278.64,432.22 281.92,431.98 285.19,431.73 288.46,431.41 291.74,431.18 295.01,430.99 298.29,430.71 301.56,430.32 304.83,429.87 308.11,429.37 311.38,428.94 314.66,428.55 317.93,428.11 321.20,427.61 324.48,427.10 327.75,426.39 331.03,425.64 334.30,424.60 337.58,423.57 340.85,422.60 344.12,421.70 347.40,420.82 350.67,420.02 353.95,419.19 357.22,418.36 360.49,417.55 363.77,416.68 367.04,415.94 370.32,415.20 373.59,414.47 376.86,413.80 380.14,412.98 383.41,412.35 386.69,411.72 389.96,411.08 393.24,410.35 396.51,409.53 399.78,408.77 403.06,408.07 406.33,407.33 409.61,406.56 412.88,405.81 416.15,405.20 419.43,404.47 422.70,403.73 425.98,402.93 429.25,402.12 432.53,401.33 435.80,400.66 439.07,400.04 442.35,399.43 445.62,398.90 448.90,398.31 452.17,397.71 455.44,397.06 458.72,396.42 461.99,395.64 465.27,394.74 468.54,393.85 471.81,392.96 475.09,392.00 478.36,391.07 481.64,390.07 484.91,389.08 488.19,388.04 491.46,386.98 494.73,385.89 498.01,384.88 501.28,383.86 504.56,382.84 507.83,381.72 511.10,380.62 514.38,379.58 517.65,378.67 520.93,377.69 524.20,376.79 527.47,375.89 530.75,375.28 534.02,374.58 537.30,373.84 540.57,373.20 543.85,372.60 547.12,371.84 550.39,371.07 553.67,370.49 556.94,369.69 560.22,368.70 563.49,367.45 566.76,366.06 570.04,364.67 573.31,362.89 576.59,361.17 579.86,359.32 583.14,357.66 586.41,356.14 589.68,355.00 592.96,353.73 596.23,352.56 599.51,351.58 602.78,350.47 606.05,349.26 609.33,348.16 612.60,347.01 615.88,345.98 619.15,344.92 622.42,343.75 625.70,342.69 628.97,341.65 632.25,340.66 635.52,339.59 638.80,338.32 642.07,336.90 645.34,335.62 648.62,334.36 651.89,333.39 655.17,332.08 658.44,330.83 661.71,329.78 664.99,328.40 668.26,326.93 671.54,325.54 674.81,323.94 678.08,322.37 681.36,320.59 684.63,318.76 687.91,317.00 691.18,315.15 694.46,313.27 697.73,311.50 701.00,309.78 704.28,307.79 707.55,305.76 710.83,303.70 714.10,301.65 717.37,299.79 720.65,297.54 723.92,295.39 727.20,293.14 730.47,290.80 733.75,288.67 737.02,286.18 740.29,283.46 743.57,280.92 746.84,278.38 750.12,275.66 753.39,273.53 756.66,272.03 759.94,270.66 763.21,269.05 766.49,266.86 769.76,264.42 773.03,262.13 776.31,259.49 779.58,256.84 782.86,254.24 786.13,251.41 789.41,248.96 792.68,246.11 795.95,243.28 799.23,240.78 802.50,238.77 805.78,236.35 809.05,234.31 812.32,232.17 815.60,229.60 818.87,227.20 822.15,224.66 825.42,222.06 828.69,219.13 831.97,215.60 835.24,212.39 838.52,209.35 841.79,206.37 845.07,203.49 848.34,200.40 851.61,197.10 854.89,193.56 858.16,189.68 861.44,186.53 864.71,183.49 867.98,180.76 871.26,178.56 874.53,175.87 877.81,173.43 881.08,171.09 884.36,168.97 887.63,166.61 890.90,164.38 894.18,162.78 897.45,161.35 900.73,159.87 904.00,158.15" />
<text x="780.00" y="104.00" font-size="14" font-family="Arial" fill="#ff7f0e" text-anchor="start">MA60</text>
<polyline fill="none" stroke="#d62728" stroke-width="2" points="707.55,378.21 710.83,377.12 714.10,376.04 717.37,374.99 720.65,373.80 723.92,372.64 727.20,371.47 730.47,370.24 733.75,369.08 737.02,367.87 740.29,366.61 743.57,365.37 746.84,364.13 750.12,362.90 753.39,361.79 756.66,360.79 759.94,359.79 763.21,358.68 766.49,357.41 769.76,355.97 773.03,354.56 776.31,353.04 779.58,351.58 782.86,350.16 786.13,348.76 789.41,347.40 792.68,345.94 795.95,344.56 799.23,343.22 802.50,342.00 805.78,340.70 809.05,339.49 812.32,338.26 815.60,336.89 818.87,335.52 822.15,334.14 825.42,332.76 828.69,331.32 831.97,329.68 835.24,328.07 838.52,326.49 841.79,324.96 845.07,323.46 848.34,321.98 851.61,320.33 854.89,318.62 858.16,316.84 861.44,315.19 864.71,313.56 867.98,311.99 871.26,310.52 874.53,308.93 877.81,307.33 881.08,305.76 884.36,304.26 887.63,302.64 890.90,301.02 894.18,299.63 897.45,298.28 900.73,296.83 904.00,295.30" />
<text x="780.00" y="126.00" font-size="14" font-family="Arial" fill="#d62728" text-anchor="start">MA200</text>
</svg>