<svg xmlns="http://www.w3.org/2000/svg" width="960" height="520" viewBox="0 0 960 520"><rect width="100%" height="100%" fill="white" />
<text x="56.00" y="32.00" font-size="20" font-family="Arial" fill="#1f2933" text-anchor="start">聯電(2303) Price and Moving Averages</text>
<line x1="56" y1="464" x2="904" y2="464" stroke="#cbd2d9" />
<line x1="56" y1="56" x2="56" y2="464" stroke="#cbd2d9" />
<text x="16.00" y="38.00" font-size="12" font-family="Arial" fill="#52606d" text-anchor="start">Price</text>
<line x1="56" y1="464.00" x2="904" y2="464.00" stroke="#edf2f7" />
<line x1="52" y1="464.00" x2="56" y2="464.00" stroke="#9fb3c8" />
<text x="48.00" y="468.00" font-size="11" font-family="Arial" fill="#52606d" text-anchor="end">31.6</text>
<line x1="56" y1="362.00" x2="904" y2="362.00" stroke="#edf2f7" />
<line x1="52" y1="362.00" x2="56" y2="362.00" stroke="#9fb3c8" />
<text x="48.00" y="366.00" font-size="11" font-family="Arial" fill="#52606d" text-anchor="end">69.6</text>
<line x1="56" y1="260.00" x2="904" y2="260.00" stroke="#edf2f7" />
<line x1="52" y1="260.00" x2="56" y2="260.00" stroke="#9fb3c8" />
<text x="48.00" y="264.00" font-size="11" font-family="Arial" fill="#52606d" text-anchor="end">108</text>
<line x1="56" y1="158.00" x2="904" y2="158.00" stroke="#edf2f7" />
<line x1="52" y1="158.00" x2="56" y2="158.00" stroke="#9fb3c8" />
<text x="48.00" y="162.00" font-size="11" font-family="Arial" fill="#52606d" text-anchor="end">146</text>
<line x1="56" y1="56.00" x2="904" y2="56.00" stroke="#edf2f7" />
<line x1="52" y1="56.00" x2="56" y2="56.00" stroke="#9fb3c8" />
<text x="48.00" y="60.00" font-size="11" font-family="Arial" fill="#52606d" text-anchor="end">184</text>
<line x1="56.00" y1="464" x2="56.00" y2="468" stroke="#9fb3c8" />
<text x="56.00" y="482.00" font-size="11" font-family="Arial" fill="#52606d" text-anchor="middle">06/13</text>
<line x1="226.25" y1="464" x2="226.25" y2="468" stroke="#9fb3c8" />
<text x="226.25" y="482.00" font-size="11" font-family="Arial" fill="#52606d" text-anchor="middle">08/27</text>
<line x1="396.51" y1="464" x2="396.51" y2="468" stroke="#9fb3c8" />
<text x="396.51" y="482.00" font-size="11" font-family="Arial" fill="#52606d" text-anchor="middle">11/13</text>
<line x1="563.49" y1="464" x2="563.49" y2="468" stroke="#9fb3c8" />
<text x="563.49" y="482.00" font-size="11" font-family="Arial" fill="#52606d" text-anchor="middle">01/27</text>
<line x1="733.75" y1="464" x2="733.75" y2="468" stroke="#9fb3c8" />
<text x="733.75" y="482.00" font-size="11" font-family="Arial" fill="#52606d" text-anchor="middle">04/23</text>
<line x1="904.00" y1="464" x2="904.00" y2="468" stroke="#9fb3c8" />
<text x="904.00" y="482.00" font-size="11" font-family="Arial" fill="#52606d" text-anchor="middle">07/08</text>
<polyline fill="none" stroke="#1f77b4" stroke-width="2" points="56.00,431.14 59.27,429.77 62.55,431.01 65.82,429.03 69.10,430.39 72.37,430.64 75.64,432.25 78.92,429.09 82.19,433.17 85.47,434.63 88.74,431.86 92.02,432.12 95.29,432.78 98.56,431.46 101.84,431.59 105.11,433.31 108.39,434.10 111.66,433.44 114.93,432.91 118.21,433.44 121.48,434.63 124.76,434.89 128.03,433.83 131.31,434.10 134.58,433.83 137.85,434.10 141.13,433.97 144.40,435.28 147.68,432.91 150.95,433.97 154.22,433.97 157.50,433.97 160.77,435.81 164.05,436.47 167.32,439.11 170.59,440.03 173.87,439.51 177.14,441.35 180.42,442.14 183.69,441.88 186.97,442.14 190.24,441.48 193.51,441.22 196.79,441.09 200.06,440.03 203.34,442.14 206.61,440.43 209.88,438.19 213.16,439.51 216.43,441.62 219.71,441.75 222.98,438.45 226.25,440.69 229.53,441.62 232.80,441.88 236.08,441.22 239.35,440.82 242.63,440.82 245.90,437.92 249.17,440.03 252.45,438.98 255.72,439.37 259.00,439.90 262.27,440.82 265.54,440.16 268.82,440.30 272.09,440.43 275.37,439.37 278.64,438.45 281.92,434.63 285.19,435.15 288.46,432.91 291.74,430.40 295.01,431.86 298.29,430.40 301.56,428.56 304.83,431.99 308.11,433.17 311.38,433.04 314.66,431.86 317.93,430.14 321.20,428.29 324.48,428.82 327.75,430.40 331.03,431.33 334.30,430.27 337.58,428.03 340.85,427.11 344.12,428.82 347.40,428.69 350.67,428.95 353.95,428.43 357.22,427.37 360.49,428.43 363.77,427.77 367.04,426.32 370.32,423.15 373.59,423.68 376.86,424.47 380.14,427.90 383.41,430.01 386.69,429.48 389.96,429.35 393.24,430.01 396.51,431.46 399.78,432.25 403.06,433.04 406.33,432.12 409.61,431.72 412.88,430.93 416.15,430.01 419.43,425.92 422.70,429.75 425.98,428.82 429.25,427.50 432.53,427.90 435.80,426.05 439.07,424.21 442.35,423.41 445.62,422.10 448.90,419.72 452.17,418.67 455.44,417.87 458.72,418.53 461.99,420.38 465.27,419.99 468.54,419.85 471.81,418.93 475.09,415.76 478.36,416.03 481.64,414.97 484.91,414.45 488.19,416.82 491.46,417.74 494.73,416.95 498.01,417.74 501.28,418.14 504.56,418.80 507.83,420.25 511.10,420.78 514.38,418.93 517.65,406.00 520.93,409.43 524.20,403.37 527.47,402.84 530.75,403.89 534.02,406.27 537.30,404.42 540.57,394.40 543.85,383.85 547.12,369.87 550.39,368.28 553.67,370.39 556.94,377.78 560.22,365.91 563.49,347.71 566.76,348.50 570.04,368.28 573.31,384.11 576.59,388.59 579.86,388.33 583.14,385.69 586.41,386.48 589.68,385.43 592.96,384.11 596.23,384.11 599.51,383.06 602.78,380.15 606.05,370.66 609.33,375.93 612.60,376.20 615.88,378.57 619.15,383.58 622.42,390.44 625.70,384.90 628.97,385.17 632.25,391.23 635.52,389.39 638.80,384.64 642.07,388.86 645.34,391.76 648.62,389.12 651.89,388.59 655.17,387.54 658.44,393.87 661.71,396.24 664.99,399.15 668.26,399.67 671.54,392.82 674.81,395.19 678.08,396.24 681.36,398.35 684.63,399.67 687.91,397.30 691.18,407.32 694.46,394.93 697.73,389.65 701.00,390.44 704.28,385.17 707.55,390.18 710.83,391.23 714.10,384.90 717.37,368.55 720.65,356.15 723.92,345.86 727.20,347.71 730.47,341.38 733.75,354.57 737.02,352.19 740.29,356.94 743.57,350.61 746.84,352.19 750.12,344.81 753.39,334.52 756.66,329.51 759.94,307.61 763.21,294.16 766.49,307.88 769.76,298.12 773.03,273.06 776.31,289.15 779.58,263.82 782.86,258.55 786.13,255.91 789.41,250.64 792.68,263.82 795.95,242.72 799.23,248.00 802.50,218.98 805.78,204.47 809.05,170.18 812.32,174.14 815.60,167.54 818.87,163.59 822.15,175.46 825.42,204.47 828.69,218.98 831.97,201.84 835.24,229.53 838.52,212.39 841.79,236.13 845.07,218.98 848.34,196.56 851.61,175.46 854.89,176.78 858.16,179.41 861.44,164.91 864.71,126.66 867.98,100.28 871.26,79.18 874.53,77.86 877.81,116.11 881.08,116.11 884.36,114.79 887.63,102.92 890.90,112.15 894.18,98.96 897.45,110.83 900.73,139.85 904.00,111.39" />
<text x="780.00" y="60.00" font-size="14" font-family="Arial" fill="#1f77b4" text-anchor="start">Close</text>
<polyline fill="none" stroke="#2ca02c" stroke-width="2" points="118.21,431.91 121.48,432.08 124.76,432.34 128.03,432.48 131.31,432.73 134.58,432.90 137.85,433.08 141.13,433.16 144.40,433.47 147.68,433.46 150.95,433.42 154.22,433.53 157.50,433.62 160.77,433.77 164.05,434.02 167.32,434.40 170.59,434.74 173.87,435.01 177.14,435.40 180.42,435.86 183.69,436.29 186.97,436.66 190.24,436.99 193.51,437.36 196.79,437.71 200.06,438.02 203.34,438.42 206.61,438.75 209.88,438.89 213.16,439.22 216.43,439.60 219.71,439.99 222.98,440.22 226.25,440.46 229.53,440.72 232.80,440.86 236.08,440.92 239.35,440.98 242.63,440.96 245.90,440.74 249.17,440.65 252.45,440.49 255.72,440.39 259.00,440.32 262.27,440.31 265.54,440.32 268.82,440.22 272.09,440.22 275.37,440.28 278.64,440.23 281.92,439.88 285.19,439.55 288.46,439.27 291.74,438.76 295.01,438.27 298.29,437.70 301.56,437.07 304.83,436.62 308.11,436.24 311.38,436.00 314.66,435.59 317.93,435.15 321.20,434.59 324.48,434.04 327.75,433.52 331.03,433.08 334.30,432.57 337.58,431.95 340.85,431.34 344.12,430.86 347.40,430.56 350.67,430.25 353.95,430.03 357.22,429.88 360.49,429.71 363.77,429.57 367.04,429.46 370.32,429.02 373.59,428.54 376.86,428.12 380.14,427.92 383.41,427.91 386.69,427.97 389.96,428.00 393.24,427.98 396.51,427.98 399.78,428.08 403.06,428.33 406.33,428.58 409.61,428.73 412.88,428.84 416.15,428.89 419.43,428.77 422.70,428.89 425.98,428.91 429.25,428.89 432.53,428.97 435.80,429.12 439.07,429.14 442.35,429.09 445.62,428.80 448.90,428.29 452.17,427.75 455.44,427.17 458.72,426.60 461.99,426.05 465.27,425.43 468.54,424.77 471.81,424.11 475.09,423.32 478.36,422.57 481.64,421.82 484.91,421.24 488.19,420.60 491.46,420.04 494.73,419.52 498.01,419.01 501.28,418.61 504.56,418.34 507.83,418.18 511.10,418.12 514.38,418.08 517.65,417.45 520.93,417.02 524.20,416.27 527.47,415.39 530.75,414.58 534.02,413.90 537.30,413.18 540.57,412.11 543.85,410.50 547.12,408.25 550.39,405.94 553.67,403.62 556.94,401.62 560.22,399.07 563.49,395.57 566.76,392.08 570.04,389.56 573.31,387.75 576.59,386.14 579.86,384.61 583.14,383.60 586.41,382.45 589.68,381.55 592.96,380.62 596.23,379.63 599.51,378.47 602.78,377.25 606.05,376.06 609.33,375.67 612.60,375.99 615.88,376.50 619.15,377.16 622.42,377.79 625.70,378.74 628.97,380.62 632.25,382.75 635.52,383.81 638.80,383.83 642.07,383.85 645.34,384.02 648.62,384.19 651.89,384.30 655.17,384.40 658.44,384.89 661.71,385.50 664.99,386.30 668.26,387.28 671.54,388.38 674.81,389.35 678.08,390.35 681.36,391.34 684.63,392.14 687.91,392.49 691.18,393.61 694.46,394.09 697.73,394.02 701.00,394.07 704.28,394.09 707.55,394.16 710.83,394.13 714.10,393.92 717.37,392.92 720.65,391.35 723.92,388.95 727.20,386.52 730.47,383.64 733.75,381.38 737.02,379.35 740.29,377.44 743.57,375.15 746.84,372.85 750.12,370.10 753.39,366.96 756.66,363.07 759.94,358.71 763.21,353.93 766.49,349.81 769.76,345.45 773.03,339.60 776.31,334.49 779.58,328.44 782.86,322.94 786.13,317.93 789.41,313.17 792.68,308.97 795.95,304.04 799.23,298.71 802.50,292.05 805.78,284.43 809.05,275.40 812.32,266.50 815.60,257.64 818.87,249.09 822.15,241.39 825.42,236.23 828.69,232.47 831.97,227.17 835.24,223.74 838.52,220.71 841.79,218.06 845.07,215.82 848.34,212.72 851.61,208.69 854.89,205.00 858.16,200.78 861.44,196.89 864.71,190.82 867.98,184.89 871.26,178.62 874.53,174.01 877.81,171.10 881.08,168.53 884.36,166.09 887.63,162.47 890.90,157.85 894.18,151.85 897.45,147.30 900.73,142.81 904.00,137.76" />
<text x="780.00" y="82.00" font-size="14" font-family="Arial" fill="#2ca02c" text-anchor="start">MA20</text>
<polyline fill="none" stroke="#ff7f0e" stroke-width="2" points="249.17,436.28 252.45,436.41 255.72,436.57 259.00,436.72 262.27,436.92 265.54,437.08 268.82,437.24 272.09,437.38 275.37,437.55 278.64,437.64 281.92,437.64 285.19,437.69 288.46,437.70 291.74,437.67 295.01,437.67 298.29,437.65 301.56,437.57 304.83,437.54 308.11,437.53 311.38,437.54 314.66,437.51 317.93,437.43 321.20,437.32 324.48,437.24 327.75,437.18 331.03,437.14 334.30,437.07 337.58,436.97 340.85,436.84 344.12,436.77 347.40,436.68 350.67,436.60 353.95,436.51 357.22,436.37 360.49,436.23 363.77,436.04 367.04,435.81 370.32,435.54 373.59,435.25 376.86,434.95 380.14,434.72 383.41,434.52 386.69,434.32 389.96,434.12 393.24,433.93 396.51,433.79 399.78,433.63 403.06,433.50 406.33,433.40 409.61,433.27 412.88,433.10 416.15,432.90 419.43,432.69 422.70,432.51 425.98,432.29 429.25,432.06 432.53,431.83 435.80,431.59 439.07,431.31 442.35,431.07 445.62,430.77 448.90,430.45 452.17,430.10 455.44,429.74 458.72,429.36 461.99,429.03 465.27,428.70 468.54,428.35 471.81,428.01 475.09,427.63 478.36,427.32 481.64,426.99 484.91,426.68 488.19,426.45 491.46,426.22 494.73,425.99 498.01,425.81 501.28,425.58 504.56,425.34 507.83,425.13 511.10,424.95 514.38,424.76 517.65,424.39 520.93,424.06 524.20,423.61 527.47,423.14 530.75,422.70 534.02,422.34 537.30,421.96 540.57,421.39 543.85,420.64 547.12,419.65 550.39,418.65 553.67,417.70 556.94,416.86 560.22,415.83 563.49,414.52 566.76,413.27 570.04,412.35 573.31,411.68 576.59,411.02 579.86,410.33 583.14,409.60 586.41,408.88 589.68,408.14 592.96,407.35 596.23,406.55 599.51,405.71 602.78,404.85 606.05,403.83 609.33,402.91 612.60,402.02 615.88,401.23 619.15,400.46 622.42,399.82 625.70,399.11 628.97,398.40 632.25,397.82 635.52,397.24 638.80,396.59 642.07,396.04 645.34,395.57 648.62,395.08 651.89,394.59 655.17,394.07 658.44,393.63 661.71,393.24 664.99,392.89 668.26,392.57 671.54,392.19 674.81,391.84 678.08,391.53 681.36,391.26 684.63,390.97 687.91,390.63 691.18,390.47 694.46,390.09 697.73,389.62 701.00,389.14 704.28,388.56 707.55,388.05 710.83,387.59 714.10,387.24 717.37,386.55 720.65,385.77 723.92,384.82 727.20,383.88 730.47,382.80 733.75,381.97 737.02,381.27 740.29,380.82 743.57,380.50 746.84,380.23 750.12,379.80 753.39,379.08 756.66,378.47 759.94,377.81 763.21,376.90 766.49,375.89 769.76,374.46 773.03,372.53 776.31,370.88 779.58,368.85 782.86,366.72 786.13,364.56 789.41,362.34 792.68,360.33 795.95,357.99 799.23,355.79 802.50,353.26 805.78,350.40 809.05,346.97 812.32,343.56 815.60,339.96 818.87,336.18 822.15,332.69 825.42,329.68 828.69,326.81 831.97,323.68 835.24,321.10 838.52,318.16 841.79,315.56 845.07,312.73 848.34,309.53 851.61,305.99 854.89,302.37 858.16,298.76 861.44,294.85 864.71,290.30 867.98,285.43 871.26,280.16 874.53,274.86 877.81,270.15 881.08,265.43 884.36,260.72 887.63,255.64 890.90,250.93 894.18,246.09 897.45,241.43 900.73,237.34 904.00,232.69" />
<text x="780.00" y="104.00" font-size="14" font-family="Arial" fill="#ff7f0e" text-anchor="start">MA60</text>
<polyline fill="none" stroke="#d62728" stroke-width="2" points="707.55,418.34 710.83,418.14 714.10,417.92 717.37,417.61 720.65,417.24 723.92,416.82 727.20,416.40 730.47,415.95 733.75,415.58 737.02,415.17 740.29,414.78 743.57,414.38 746.84,413.98 750.12,413.54 753.39,413.05 756.66,412.54 759.94,411.91 763.21,411.21 766.49,410.59 769.76,409.91 773.03,409.11 776.31,408.38 779.58,407.53 782.86,406.65 786.13,405.76 789.41,404.85 792.68,403.99 795.95,403.04 799.23,402.10 802.50,401.03 805.78,399.88 809.05,398.57 812.32,397.27 815.60,395.92 818.87,394.56 822.15,393.24 825.42,392.06 828.69,390.96 831.97,389.76 835.24,388.70 838.52,387.55 841.79,386.52 845.07,385.41 848.34,384.19 851.61,382.86 854.89,381.54 858.16,380.23 861.44,378.85 864.71,377.29 867.98,375.60 871.26,373.79 874.53,371.97 877.81,370.35 881.08,368.73 884.36,367.10 887.63,365.40 890.90,363.76 894.18,362.05 897.45,360.40 900.73,358.91 904.00,357.26" />
<text x="780.00" y="126.00" font-size="14" font-family="Arial" fill="#d62728" text-anchor="start">MA200</text>
</svg>