<svg xmlns="http://www.w3.org/2000/svg" width="960" height="520" viewBox="0 0 960 520"><rect width="100%" height="100%" fill="white" />
<text x="56.00" y="32.00" font-size="20" font-family="Arial" fill="#1f2933" text-anchor="start">華碩(2357) Price and Moving Averages</text>
<line x1="56" y1="464" x2="904" y2="464" stroke="#cbd2d9" />
<line x1="56" y1="56" x2="56" y2="464" stroke="#cbd2d9" />
<text x="16.00" y="38.00" font-size="12" font-family="Arial" fill="#52606d" text-anchor="start">Price</text>
<line x1="56" y1="464.00" x2="904" y2="464.00" stroke="#edf2f7" />
<line x1="52" y1="464.00" x2="56" y2="464.00" stroke="#9fb3c8" />
<text x="48.00" y="468.00" font-size="11" font-family="Arial" fill="#52606d" text-anchor="end">442</text>
<line x1="56" y1="362.00" x2="904" y2="362.00" stroke="#edf2f7" />
<line x1="52" y1="362.00" x2="56" y2="362.00" stroke="#9fb3c8" />
<text x="48.00" y="366.00" font-size="11" font-family="Arial" fill="#52606d" text-anchor="end">556</text>
<line x1="56" y1="260.00" x2="904" y2="260.00" stroke="#edf2f7" />
<line x1="52" y1="260.00" x2="56" y2="260.00" stroke="#9fb3c8" />
<text x="48.00" y="264.00" font-size="11" font-family="Arial" fill="#52606d" text-anchor="end">671</text>
<line x1="56" y1="158.00" x2="904" y2="158.00" stroke="#edf2f7" />
<line x1="52" y1="158.00" x2="56" y2="158.00" stroke="#9fb3c8" />
<text x="48.00" y="162.00" font-size="11" font-family="Arial" fill="#52606d" text-anchor="end">785</text>
<line x1="56" y1="56.00" x2="904" y2="56.00" stroke="#edf2f7" />
<line x1="52" y1="56.00" x2="56" y2="56.00" stroke="#9fb3c8" />
<text x="48.00" y="60.00" font-size="11" font-family="Arial" fill="#52606d" text-anchor="end">900</text>
<line x1="56.00" y1="464" x2="56.00" y2="468" stroke="#9fb3c8" />
<text x="56.00" y="482.00" font-size="11" font-family="Arial" fill="#52606d" text-anchor="middle">06/16</text>
<line x1="226.25" y1="464" x2="226.25" y2="468" stroke="#9fb3c8" />
<text x="226.25" y="482.00" font-size="11" font-family="Arial" fill="#52606d" text-anchor="middle">08/28</text>
<line x1="396.51" y1="464" x2="396.51" y2="468" stroke="#9fb3c8" />
<text x="396.51" y="482.00" font-size="11" font-family="Arial" fill="#52606d" text-anchor="middle">11/14</text>
<line x1="563.49" y1="464" x2="563.49" y2="468" stroke="#9fb3c8" />
<text x="563.49" y="482.00" font-size="11" font-family="Arial" fill="#52606d" text-anchor="middle">01/28</text>
<line x1="733.75" y1="464" x2="733.75" y2="468" stroke="#9fb3c8" />
<text x="733.75" y="482.00" font-size="11" font-family="Arial" fill="#52606d" text-anchor="middle">04/24</text>
<line x1="904.00" y1="464" x2="904.00" y2="468" stroke="#9fb3c8" />
<text x="904.00" y="482.00" font-size="11" font-family="Arial" fill="#52606d" text-anchor="middle">07/09</text>
<polyline fill="none" stroke="#1f77b4" stroke-width="2" points="56.00,313.32 59.27,299.78 62.55,295.79 65.82,295.79 69.10,313.32 72.37,317.31 75.64,263.92 78.92,299.78 82.19,320.71 85.47,321.55 88.74,318.20 92.02,313.18 95.29,303.13 98.56,322.39 101.84,334.11 105.11,327.41 108.39,327.41 111.66,320.71 114.93,319.88 118.21,319.88 121.48,329.09 124.76,321.55 128.03,325.74 131.31,321.55 134.58,322.39 137.85,321.55 141.13,335.79 144.40,323.23 147.68,315.69 150.95,308.99 154.22,303.13 157.50,312.34 160.77,310.67 164.05,303.13 167.32,300.62 170.59,291.40 173.87,288.05 177.14,286.38 180.42,288.05 183.69,303.13 186.97,310.67 190.24,321.55 193.51,320.71 196.79,328.25 200.06,327.41 203.34,327.41 206.61,334.11 209.88,333.28 213.16,337.46 216.43,327.41 219.71,323.23 222.98,325.74 226.25,326.58 229.53,328.25 232.80,339.14 236.08,339.14 239.35,334.11 242.63,325.74 245.90,317.36 249.17,317.36 252.45,303.97 255.72,298.10 259.00,278.84 262.27,265.44 265.54,278.00 268.82,283.87 272.09,293.92 275.37,288.05 278.64,298.10 281.92,284.70 285.19,284.70 288.46,284.70 291.74,279.68 295.01,289.73 298.29,295.59 301.56,291.40 304.83,284.70 308.11,283.87 311.38,278.84 314.66,278.00 317.93,290.57 321.20,273.82 324.48,282.19 327.75,284.70 331.03,283.87 334.30,283.87 337.58,283.03 340.85,278.84 344.12,272.14 347.40,272.98 350.67,259.58 353.95,263.77 357.22,263.77 360.49,263.77 363.77,273.82 367.04,278.84 370.32,281.35 373.59,287.22 376.86,287.22 380.14,301.45 383.41,302.29 386.69,303.97 389.96,315.69 393.24,327.41 396.51,327.41 399.78,346.67 403.06,386.03 406.33,383.52 409.61,377.66 412.88,377.66 416.15,367.61 419.43,363.42 422.70,345.00 425.98,345.84 429.25,354.21 432.53,352.54 435.80,349.19 439.07,341.65 442.35,349.19 445.62,347.51 448.90,353.37 452.17,358.40 455.44,359.24 458.72,361.75 461.99,365.10 465.27,368.45 468.54,366.77 471.81,374.31 475.09,393.57 478.36,396.92 481.64,396.92 484.91,400.27 488.19,401.95 491.46,396.08 494.73,402.78 498.01,405.30 501.28,398.60 504.56,392.73 507.83,400.27 511.10,406.13 514.38,402.78 517.65,413.67 520.93,414.51 524.20,400.27 527.47,423.72 530.75,415.34 534.02,421.21 537.30,430.42 540.57,430.42 543.85,430.42 547.12,437.96 550.39,429.58 553.67,426.23 556.94,434.61 560.22,435.44 563.49,430.42 566.76,432.93 570.04,442.14 573.31,439.21 576.59,437.96 579.86,437.12 583.14,437.12 586.41,432.09 589.68,436.28 592.96,417.02 596.23,419.53 599.51,431.26 602.78,426.23 606.05,417.86 609.33,412.00 612.60,413.67 615.88,421.21 619.15,438.79 622.42,423.72 625.70,416.18 628.97,424.56 632.25,412.83 635.52,368.45 638.80,370.96 642.07,364.26 645.34,364.26 648.62,360.91 651.89,360.07 655.17,373.47 658.44,370.12 661.71,386.03 664.99,384.36 668.26,384.36 671.54,376.82 674.81,374.31 678.08,386.87 681.36,397.76 684.63,382.68 687.91,392.73 691.18,396.92 694.46,386.87 697.73,381.85 701.00,373.47 704.28,373.47 707.55,371.80 710.83,368.45 714.10,364.26 717.37,355.89 720.65,350.86 723.92,355.89 727.20,347.51 730.47,356.72 733.75,367.61 737.02,365.10 740.29,365.10 743.57,365.10 746.84,370.96 750.12,362.59 753.39,363.42 756.66,330.76 759.94,322.39 763.21,313.18 766.49,283.03 769.76,293.92 773.03,302.29 776.31,288.89 779.58,320.71 782.86,325.74 786.13,319.88 789.41,321.55 792.68,308.15 795.95,286.38 799.23,263.77 802.50,272.14 805.78,270.47 809.05,278.00 812.32,220.22 815.60,156.58 818.87,87.07 822.15,77.86 825.42,110.52 828.69,103.82 831.97,150.71 835.24,145.69 838.52,190.91 841.79,200.96 845.07,200.12 848.34,194.26 851.61,195.10 854.89,185.05 858.16,196.77 861.44,197.61 864.71,200.12 867.98,211.85 871.26,231.11 874.53,270.47 877.81,268.79 881.08,271.31 884.36,272.20 887.63,263.29 890.90,256.16 894.18,251.71 897.45,266.85 900.73,245.47 904.00,248.14" />
<text x="780.00" y="60.00" font-size="14" font-family="Arial" fill="#1f77b4" text-anchor="start">Close</text>
<polyline fill="none" stroke="#2ca02c" stroke-width="2" points="118.21,312.38 121.48,313.17 124.76,314.26 128.03,315.75 131.31,317.04 134.58,317.50 137.85,317.71 141.13,321.30 144.40,322.47 147.68,322.22 150.95,321.59 154.22,320.84 157.50,320.80 160.77,321.17 164.05,320.21 167.32,318.54 170.59,316.74 173.87,314.77 177.14,313.05 180.42,311.46 183.69,310.62 186.97,309.70 190.24,309.70 193.51,309.45 196.79,309.79 200.06,310.04 203.34,310.33 206.61,310.25 209.88,310.75 213.16,311.84 216.43,312.76 219.71,313.76 222.98,314.43 226.25,315.23 229.53,316.49 232.80,318.41 236.08,320.80 239.35,323.10 242.63,325.07 245.90,326.53 249.17,327.25 252.45,326.91 255.72,325.74 259.00,323.65 262.27,320.50 265.54,318.03 268.82,315.86 272.09,313.85 275.37,311.59 278.64,309.62 281.92,307.48 285.19,305.56 288.46,303.50 291.74,301.16 295.01,299.23 298.29,297.06 301.56,294.67 304.83,292.20 308.11,290.11 311.38,288.18 314.66,286.21 317.93,285.54 321.20,284.33 324.48,284.50 327.75,285.46 331.03,285.75 334.30,285.75 337.58,285.21 340.85,284.75 344.12,283.45 347.40,282.86 350.67,281.61 353.95,280.56 357.22,279.76 360.49,278.47 363.77,277.38 367.04,276.75 370.32,276.58 373.59,276.75 376.86,277.17 380.14,278.34 383.41,278.93 386.69,280.43 389.96,282.11 393.24,284.24 396.51,286.42 399.78,289.56 403.06,294.71 406.33,299.95 409.61,305.22 412.88,310.46 416.15,315.86 419.43,320.84 422.70,324.90 425.98,329.00 429.25,333.02 432.53,336.71 435.80,340.10 439.07,342.82 442.35,345.92 445.62,348.22 448.90,350.78 452.17,353.50 455.44,355.68 458.72,357.39 461.99,359.28 465.27,360.37 468.54,359.40 471.81,358.94 475.09,359.74 478.36,360.70 481.64,362.17 484.91,364.01 488.19,366.86 491.46,369.37 494.73,371.80 498.01,374.44 501.28,376.91 504.56,379.46 507.83,382.01 511.10,384.95 514.38,387.42 517.65,390.18 520.93,392.94 524.20,394.87 527.47,397.80 530.75,400.15 534.02,402.87 537.30,405.67 540.57,407.51 543.85,409.19 547.12,411.24 550.39,412.71 553.67,413.92 556.94,415.85 560.22,417.48 563.49,418.74 566.76,420.45 570.04,422.92 573.31,424.87 576.59,426.46 579.86,428.18 583.14,429.35 586.41,430.23 589.68,432.03 592.96,431.70 596.23,431.91 599.51,432.41 602.78,432.20 606.05,431.57 609.33,430.65 612.60,429.43 615.88,429.02 619.15,429.64 622.42,429.10 625.70,428.14 628.97,427.84 632.25,426.84 635.52,423.15 638.80,419.74 642.07,416.06 645.34,412.41 648.62,408.60 651.89,405.00 655.17,401.86 658.44,399.52 661.71,397.84 664.99,395.50 668.26,393.40 671.54,391.35 674.81,389.47 678.08,388.13 681.36,386.96 684.63,384.15 687.91,382.60 691.18,381.64 694.46,379.75 697.73,378.20 701.00,378.46 704.28,378.58 707.55,378.96 710.83,379.17 714.10,379.33 717.37,379.13 720.65,378.00 723.92,377.28 727.20,375.36 730.47,373.98 733.75,373.14 737.02,372.55 740.29,372.09 743.57,371.00 746.84,369.66 750.12,368.66 753.39,367.19 756.66,363.88 759.94,360.66 763.21,357.23 766.49,352.70 769.76,348.73 773.03,345.25 776.31,341.27 779.58,339.10 782.86,337.59 786.13,336.04 789.41,334.32 792.68,332.35 795.95,328.84 799.23,323.65 802.50,319.00 805.78,314.27 809.05,309.91 812.32,302.37 815.60,292.07 818.87,278.26 822.15,265.61 825.42,255.02 828.69,244.55 831.97,237.93 835.24,230.52 838.52,224.95 841.79,220.56 845.07,214.53 848.34,207.95 851.61,201.71 854.89,194.89 858.16,189.32 861.44,184.88 864.71,181.70 867.98,178.68 871.26,176.72 874.53,176.34 877.81,178.77 881.08,184.50 884.36,193.76 887.63,203.03 890.90,210.31 894.18,217.71 897.45,223.52 900.73,228.51 904.00,231.37" />
<text x="780.00" y="82.00" font-size="14" font-family="Arial" fill="#2ca02c" text-anchor="start">MA20</text>
<polyline fill="none" stroke="#ff7f0e" stroke-width="2" points="249.17,316.75 252.45,316.59 255.72,316.57 259.00,316.28 262.27,315.78 265.54,315.19 268.82,314.63 272.09,315.13 275.37,314.94 278.64,314.56 281.92,313.94 285.19,313.39 288.46,312.91 291.74,312.52 295.01,311.98 298.29,311.33 301.56,310.73 304.83,310.02 308.11,309.41 311.38,308.72 314.66,308.03 317.93,307.39 321.20,306.59 324.48,305.86 327.75,305.25 331.03,304.61 334.30,303.98 337.58,303.10 340.85,302.36 344.12,301.63 347.40,301.03 350.67,300.31 353.95,299.50 357.22,298.72 360.49,298.06 363.77,297.61 367.04,297.41 370.32,297.29 373.59,297.31 376.86,297.29 380.14,297.27 383.41,297.13 386.69,296.83 389.96,296.75 393.24,296.74 396.51,296.74 399.78,297.06 403.06,297.92 406.33,298.76 409.61,299.43 412.88,300.27 416.15,301.01 419.43,301.63 422.70,301.94 425.98,302.23 429.25,302.49 432.53,302.71 435.80,302.96 439.07,303.23 442.35,303.76 445.62,304.26 448.90,305.08 452.17,306.09 455.44,307.43 458.72,309.03 461.99,310.48 465.27,311.89 468.54,313.11 471.81,314.55 475.09,316.14 478.36,318.01 481.64,319.88 484.91,321.80 488.19,323.84 491.46,325.61 494.73,327.40 498.01,329.30 501.28,331.20 504.56,333.01 507.83,335.03 511.10,337.17 514.38,339.04 517.65,341.37 520.93,343.58 524.20,345.50 527.47,347.83 530.75,350.02 534.02,352.33 537.30,354.85 540.57,357.49 543.85,360.12 547.12,363.09 550.39,365.85 553.67,368.56 556.94,371.41 560.22,374.10 563.49,376.63 566.76,379.15 570.04,381.74 573.31,384.27 576.59,386.54 579.86,388.79 583.14,391.01 586.41,392.95 589.68,394.76 592.96,396.26 596.23,397.47 599.51,398.23 602.78,398.94 606.05,399.61 609.33,400.18 612.60,400.95 615.88,401.91 619.15,403.47 622.42,404.77 625.70,405.81 628.97,407.01 632.25,408.07 635.52,408.51 638.80,408.88 642.07,409.15 645.34,409.34 648.62,409.38 651.89,409.39 655.17,409.59 658.44,409.67 661.71,409.96 664.99,410.26 668.26,410.42 671.54,410.15 674.81,409.77 678.08,409.60 681.36,409.56 684.63,409.24 687.91,409.18 691.18,409.08 694.46,408.78 697.73,408.50 701.00,408.18 704.28,407.73 707.55,407.16 710.83,406.59 714.10,405.76 717.37,404.79 720.65,403.96 723.92,402.83 727.20,401.70 730.47,400.63 733.75,399.58 737.02,398.49 740.29,397.40 743.57,396.19 746.84,395.21 750.12,394.15 753.39,392.96 756.66,391.22 759.94,389.42 763.21,387.42 766.49,384.77 769.76,382.35 773.03,380.09 776.31,377.62 779.58,375.68 782.86,373.91 786.13,371.97 789.41,370.37 792.68,368.52 795.95,366.10 799.23,363.40 802.50,360.97 805.78,358.61 809.05,356.35 812.32,353.00 815.60,348.29 818.87,342.68 822.15,337.04 825.42,331.81 828.69,326.66 831.97,323.03 835.24,319.28 838.52,316.39 841.79,313.67 845.07,310.99 848.34,308.22 851.61,305.25 854.89,302.17 858.16,299.01 861.44,295.90 864.71,292.83 867.98,290.08 871.26,287.69 874.53,285.75 877.81,283.60 881.08,281.75 884.36,279.74 887.63,277.51 890.90,275.33 894.18,273.16 897.45,271.38 900.73,269.25 904.00,267.19" />
<text x="780.00" y="104.00" font-size="14" font-family="Arial" fill="#ff7f0e" text-anchor="start">MA60</text>
<polyline fill="none" stroke="#d62728" stroke-width="2" points="707.55,346.94 710.83,347.22 714.10,347.54 717.37,347.84 720.65,348.12 723.92,348.33 727.20,348.48 730.47,348.95 733.75,349.29 737.02,349.51 740.29,349.73 743.57,349.96 746.84,350.25 750.12,350.55 753.39,350.75 756.66,350.73 759.94,350.71 763.21,350.64 766.49,350.45 769.76,350.32 773.03,350.23 776.31,350.03 779.58,350.03 782.86,350.03 786.13,350.02 789.41,350.01 792.68,349.95 795.95,349.70 799.23,349.40 802.50,349.19 805.78,348.99 809.05,348.87 812.32,348.41 815.60,347.64 818.87,346.56 822.15,345.44 825.42,344.54 828.69,343.62 831.97,342.94 835.24,342.23 838.52,341.66 841.79,341.12 845.07,340.51 848.34,339.88 851.61,339.21 854.89,338.50 858.16,337.85 861.44,337.16 864.71,336.50 867.98,335.87 871.26,335.39 874.53,335.12 877.81,334.84 881.08,334.56 884.36,334.28 887.63,333.90 890.90,333.49 894.18,333.08 897.45,332.78 900.73,332.42 904.00,332.08" />
<text x="780.00" y="126.00" font-size="14" font-family="Arial" fill="#d62728" text-anchor="start">MA200</text>
</svg>