<svg xmlns="http://www.w3.org/2000/svg" width="960" height="520" viewBox="0 0 960 520"><rect width="100%" height="100%" fill="white" />
<text x="56.00" y="32.00" font-size="20" font-family="Arial" fill="#1f2933" text-anchor="start">華碩(2357) Price and Moving Averages</text>
<line x1="56" y1="464" x2="904" y2="464" stroke="#cbd2d9" />
<line x1="56" y1="56" x2="56" y2="464" stroke="#cbd2d9" />
<text x="16.00" y="38.00" font-size="12" font-family="Arial" fill="#52606d" text-anchor="start">Price</text>
<line x1="56" y1="464.00" x2="904" y2="464.00" stroke="#edf2f7" />
<line x1="52" y1="464.00" x2="56" y2="464.00" stroke="#9fb3c8" />
<text x="48.00" y="468.00" font-size="11" font-family="Arial" fill="#52606d" text-anchor="end">442</text>
<line x1="56" y1="362.00" x2="904" y2="362.00" stroke="#edf2f7" />
<line x1="52" y1="362.00" x2="56" y2="362.00" stroke="#9fb3c8" />
<text x="48.00" y="366.00" font-size="11" font-family="Arial" fill="#52606d" text-anchor="end">556</text>
<line x1="56" y1="260.00" x2="904" y2="260.00" stroke="#edf2f7" />
<line x1="52" y1="260.00" x2="56" y2="260.00" stroke="#9fb3c8" />
<text x="48.00" y="264.00" font-size="11" font-family="Arial" fill="#52606d" text-anchor="end">671</text>
<line x1="56" y1="158.00" x2="904" y2="158.00" stroke="#edf2f7" />
<line x1="52" y1="158.00" x2="56" y2="158.00" stroke="#9fb3c8" />
<text x="48.00" y="162.00" font-size="11" font-family="Arial" fill="#52606d" text-anchor="end">785</text>
<line x1="56" y1="56.00" x2="904" y2="56.00" stroke="#edf2f7" />
<line x1="52" y1="56.00" x2="56" y2="56.00" stroke="#9fb3c8" />
<text x="48.00" y="60.00" font-size="11" font-family="Arial" fill="#52606d" text-anchor="end">900</text>
<line x1="56.00" y1="464" x2="56.00" y2="468" stroke="#9fb3c8" />
<text x="56.00" y="482.00" font-size="11" font-family="Arial" fill="#52606d" text-anchor="middle">06/30</text>
<line x1="226.25" y1="464" x2="226.25" y2="468" stroke="#9fb3c8" />
<text x="226.25" y="482.00" font-size="11" font-family="Arial" fill="#52606d" text-anchor="middle">09/11</text>
<line x1="396.51" y1="464" x2="396.51" y2="468" stroke="#9fb3c8" />
<text x="396.51" y="482.00" font-size="11" font-family="Arial" fill="#52606d" text-anchor="middle">11/28</text>
<line x1="563.49" y1="464" x2="563.49" y2="468" stroke="#9fb3c8" />
<text x="563.49" y="482.00" font-size="11" font-family="Arial" fill="#52606d" text-anchor="middle">02/11</text>
<line x1="733.75" y1="464" x2="733.75" y2="468" stroke="#9fb3c8" />
<text x="733.75" y="482.00" font-size="11" font-family="Arial" fill="#52606d" text-anchor="middle">05/11</text>
<line x1="904.00" y1="464" x2="904.00" y2="468" stroke="#9fb3c8" />
<text x="904.00" y="482.00" font-size="11" font-family="Arial" fill="#52606d" text-anchor="middle">07/23</text>
<polyline fill="none" stroke="#1f77b4" stroke-width="2" points="56.00,318.20 59.27,313.18 62.55,303.13 65.82,322.39 69.10,334.11 72.37,327.41 75.64,327.41 78.92,320.71 82.19,319.88 85.47,319.88 88.74,329.09 92.02,321.55 95.29,325.74 98.56,321.55 101.84,322.39 105.11,321.55 108.39,335.79 111.66,323.23 114.93,315.69 118.21,308.99 121.48,303.13 124.76,312.34 128.03,310.67 131.31,303.13 134.58,300.62 137.85,291.40 141.13,288.05 144.40,286.38 147.68,288.05 150.95,303.13 154.22,310.67 157.50,321.55 160.77,320.71 164.05,328.25 167.32,327.41 170.59,327.41 173.87,334.11 177.14,333.28 180.42,337.46 183.69,327.41 186.97,323.23 190.24,325.74 193.51,326.58 196.79,328.25 200.06,339.14 203.34,339.14 206.61,334.11 209.88,325.74 213.16,317.36 216.43,317.36 219.71,303.97 222.98,298.10 226.25,278.84 229.53,265.44 232.80,278.00 236.08,283.87 239.35,293.92 242.63,288.05 245.90,298.10 249.17,284.70 252.45,284.70 255.72,284.70 259.00,279.68 262.27,289.73 265.54,295.59 268.82,291.40 272.09,284.70 275.37,283.87 278.64,278.84 281.92,278.00 285.19,290.57 288.46,273.82 291.74,282.19 295.01,284.70 298.29,283.87 301.56,283.87 304.83,283.03 308.11,278.84 311.38,272.14 314.66,272.98 317.93,259.58 321.20,263.77 324.48,263.77 327.75,263.77 331.03,273.82 334.30,278.84 337.58,281.35 340.85,287.22 344.12,287.22 347.40,301.45 350.67,302.29 353.95,303.97 357.22,315.69 360.49,327.41 363.77,327.41 367.04,346.67 370.32,386.03 373.59,383.52 376.86,377.66 380.14,377.66 383.41,367.61 386.69,363.42 389.96,345.00 393.24,345.84 396.51,354.21 399.78,352.54 403.06,349.19 406.33,341.65 409.61,349.19 412.88,347.51 416.15,353.37 419.43,358.40 422.70,359.24 425.98,361.75 429.25,365.10 432.53,368.45 435.80,366.77 439.07,374.31 442.35,393.57 445.62,396.92 448.90,396.92 452.17,400.27 455.44,401.95 458.72,396.08 461.99,402.78 465.27,405.30 468.54,398.60 471.81,392.73 475.09,400.27 478.36,406.13 481.64,402.78 484.91,413.67 488.19,414.51 491.46,400.27 494.73,423.72 498.01,415.34 501.28,421.21 504.56,430.42 507.83,430.42 511.10,430.42 514.38,437.96 517.65,429.58 520.93,426.23 524.20,434.61 527.47,435.44 530.75,430.42 534.02,432.93 537.30,442.14 540.57,439.21 543.85,437.96 547.12,437.12 550.39,437.12 553.67,432.09 556.94,436.28 560.22,417.02 563.49,419.53 566.76,431.26 570.04,426.23 573.31,417.86 576.59,412.00 579.86,413.67 583.14,421.21 586.41,438.79 589.68,423.72 592.96,416.18 596.23,424.56 599.51,412.83 602.78,368.45 606.05,370.96 609.33,364.26 612.60,364.26 615.88,360.91 619.15,360.07 622.42,373.47 625.70,370.12 628.97,386.03 632.25,384.36 635.52,384.36 638.80,376.82 642.07,374.31 645.34,386.87 648.62,397.76 651.89,382.68 655.17,392.73 658.44,396.92 661.71,386.87 664.99,381.85 668.26,373.47 671.54,373.47 674.81,371.80 678.08,368.45 681.36,364.26 684.63,355.89 687.91,350.86 691.18,355.89 694.46,347.51 697.73,356.72 701.00,367.61 704.28,365.10 707.55,365.10 710.83,365.10 714.10,370.96 717.37,362.59 720.65,363.42 723.92,330.76 727.20,322.39 730.47,313.18 733.75,283.03 737.02,293.92 740.29,302.29 743.57,288.89 746.84,320.71 750.12,325.74 753.39,319.88 756.66,321.55 759.94,308.15 763.21,286.38 766.49,263.77 769.76,272.14 773.03,270.47 776.31,278.00 779.58,220.22 782.86,156.58 786.13,87.07 789.41,77.86 792.68,110.52 795.95,103.82 799.23,150.71 802.50,145.69 805.78,190.91 809.05,200.96 812.32,200.12 815.60,194.26 818.87,195.10 822.15,185.05 825.42,196.77 828.69,197.61 831.97,200.12 835.24,211.85 838.52,231.11 841.79,270.47 845.07,268.79 848.34,271.31 851.61,272.20 854.89,263.29 858.16,256.16 861.44,251.71 864.71,266.85 867.98,245.47 871.26,248.14 874.53,248.14 877.81,230.32 881.08,231.22 884.36,223.20 887.63,220.52 890.90,233.89 894.18,244.58 897.45,201.82 900.73,183.11 904.00,172.42" />
<text x="780.00" y="60.00" font-size="14" font-family="Arial" fill="#1f77b4" text-anchor="start">Close</text>
<polyline fill="none" stroke="#2ca02c" stroke-width="2" points="118.21,321.59 121.48,320.84 124.76,320.80 128.03,321.17 131.31,320.21 134.58,318.54 137.85,316.74 141.13,314.77 144.40,313.05 147.68,311.46 150.95,310.62 154.22,309.70 157.50,309.70 160.77,309.45 164.05,309.79 167.32,310.04 170.59,310.33 173.87,310.25 177.14,310.75 180.42,311.84 183.69,312.76 186.97,313.76 190.24,314.43 193.51,315.23 196.79,316.49 200.06,318.41 203.34,320.80 206.61,323.10 209.88,325.07 213.16,326.53 216.43,327.25 219.71,326.91 222.98,325.74 226.25,323.65 229.53,320.50 232.80,318.03 236.08,315.86 239.35,313.85 242.63,311.59 245.90,309.62 249.17,307.48 252.45,305.56 255.72,303.50 259.00,301.16 262.27,299.23 265.54,297.06 268.82,294.67 272.09,292.20 275.37,290.11 278.64,288.18 281.92,286.21 285.19,285.54 288.46,284.33 291.74,284.50 295.01,285.46 298.29,285.75 301.56,285.75 304.83,285.21 308.11,284.75 311.38,283.45 314.66,282.86 317.93,281.61 321.20,280.56 324.48,279.76 327.75,278.47 331.03,277.38 334.30,276.75 337.58,276.58 340.85,276.75 344.12,277.17 347.40,278.34 350.67,278.93 353.95,280.43 357.22,282.11 360.49,284.24 363.77,286.42 367.04,289.56 370.32,294.71 373.59,299.95 376.86,305.22 380.14,310.46 383.41,315.86 386.69,320.84 389.96,324.90 393.24,329.00 396.51,333.02 399.78,336.71 403.06,340.10 406.33,342.82 409.61,345.92 412.88,348.22 416.15,350.78 419.43,353.50 422.70,355.68 425.98,357.39 429.25,359.28 432.53,360.37 435.80,359.40 439.07,358.94 442.35,359.74 445.62,360.70 448.90,362.17 452.17,364.01 455.44,366.86 458.72,369.37 461.99,371.80 465.27,374.44 468.54,376.91 471.81,379.46 475.09,382.01 478.36,384.95 481.64,387.42 484.91,390.18 488.19,392.94 491.46,394.87 494.73,397.80 498.01,400.15 501.28,402.87 504.56,405.67 507.83,407.51 511.10,409.19 514.38,411.24 517.65,412.71 520.93,413.92 524.20,415.85 527.47,417.48 530.75,418.74 534.02,420.45 537.30,422.92 540.57,424.87 543.85,426.46 547.12,428.18 550.39,429.35 553.67,430.23 556.94,432.03 560.22,431.70 563.49,431.91 566.76,432.41 570.04,432.20 573.31,431.57 576.59,430.65 579.86,429.43 583.14,429.02 586.41,429.64 589.68,429.10 592.96,428.14 596.23,427.84 599.51,426.84 602.78,423.15 606.05,419.74 609.33,416.06 612.60,412.41 615.88,408.60 619.15,405.00 622.42,401.86 625.70,399.52 628.97,397.84 632.25,395.50 635.52,393.40 638.80,391.35 642.07,389.47 645.34,388.13 648.62,386.96 651.89,384.15 655.17,382.60 658.44,381.64 661.71,379.75 664.99,378.20 668.26,378.46 671.54,378.58 674.81,378.96 678.08,379.17 681.36,379.33 684.63,379.13 687.91,378.00 691.18,377.28 694.46,375.36 697.73,373.98 701.00,373.14 704.28,372.55 707.55,372.09 710.83,371.00 714.10,369.66 717.37,368.66 720.65,367.19 723.92,363.88 727.20,360.66 730.47,357.23 733.75,352.70 737.02,348.73 740.29,345.25 743.57,341.27 746.84,339.10 750.12,337.59 753.39,336.04 756.66,334.32 759.94,332.35 763.21,328.84 766.49,323.65 769.76,319.00 773.03,314.27 776.31,309.91 779.58,302.37 782.86,292.07 786.13,278.26 789.41,265.61 792.68,255.02 795.95,244.55 799.23,237.93 802.50,230.52 805.78,224.95 809.05,220.56 812.32,214.53 815.60,207.95 818.87,201.71 822.15,194.89 825.42,189.32 828.69,184.88 831.97,181.70 835.24,178.68 838.52,176.72 841.79,176.34 845.07,178.77 848.34,184.50 851.61,193.76 854.89,203.03 858.16,210.31 861.44,217.71 864.71,223.52 867.98,228.51 871.26,231.37 874.53,233.73 877.81,235.24 881.08,237.08 884.36,238.49 887.63,240.26 890.90,242.12 894.18,244.47 897.45,244.55 900.73,243.11 904.00,240.18" />
<text x="780.00" y="82.00" font-size="14" font-family="Arial" fill="#2ca02c" text-anchor="start">MA20</text>
<polyline fill="none" stroke="#ff7f0e" stroke-width="2" points="249.17,313.94 252.45,313.39 255.72,312.91 259.00,312.52 262.27,311.98 265.54,311.33 268.82,310.73 272.09,310.02 275.37,309.41 278.64,308.72 281.92,308.03 285.19,307.39 288.46,306.59 291.74,305.86 295.01,305.25 298.29,304.61 301.56,303.98 304.83,303.10 308.11,302.36 311.38,301.63 314.66,301.03 317.93,300.31 321.20,299.50 324.48,298.72 327.75,298.06 331.03,297.61 334.30,297.41 337.58,297.29 340.85,297.31 344.12,297.29 347.40,297.27 350.67,297.13 353.95,296.83 357.22,296.75 360.49,296.74 363.77,296.74 367.04,297.06 370.32,297.92 373.59,298.76 376.86,299.43 380.14,300.27 383.41,301.01 386.69,301.63 389.96,301.94 393.24,302.23 396.51,302.49 399.78,302.71 403.06,302.96 406.33,303.23 409.61,303.76 412.88,304.26 416.15,305.08 419.43,306.09 422.70,307.43 425.98,309.03 429.25,310.48 432.53,311.89 435.80,313.11 439.07,314.55 442.35,316.14 445.62,318.01 448.90,319.88 452.17,321.80 455.44,323.84 458.72,325.61 461.99,327.40 465.27,329.30 468.54,331.20 471.81,333.01 475.09,335.03 478.36,337.17 481.64,339.04 484.91,341.37 488.19,343.58 491.46,345.50 494.73,347.83 498.01,350.02 501.28,352.33 504.56,354.85 507.83,357.49 511.10,360.12 514.38,363.09 517.65,365.85 520.93,368.56 524.20,371.41 527.47,374.10 530.75,376.63 534.02,379.15 537.30,381.74 540.57,384.27 543.85,386.54 547.12,388.79 550.39,391.01 553.67,392.95 556.94,394.76 560.22,396.26 563.49,397.47 566.76,398.23 570.04,398.94 573.31,399.61 576.59,400.18 579.86,400.95 583.14,401.91 586.41,403.47 589.68,404.77 592.96,405.81 596.23,407.01 599.51,408.07 602.78,408.51 606.05,408.88 609.33,409.15 612.60,409.34 615.88,409.38 619.15,409.39 622.42,409.59 625.70,409.67 628.97,409.96 632.25,410.26 635.52,410.42 638.80,410.15 642.07,409.77 645.34,409.60 648.62,409.56 651.89,409.24 655.17,409.18 658.44,409.08 661.71,408.78 664.99,408.50 668.26,408.18 671.54,407.73 674.81,407.16 678.08,406.59 681.36,405.76 684.63,404.79 687.91,403.96 691.18,402.83 694.46,401.70 697.73,400.63 701.00,399.58 704.28,398.49 707.55,397.40 710.83,396.19 714.10,395.21 717.37,394.15 720.65,392.96 723.92,391.22 727.20,389.42 730.47,387.42 733.75,384.77 737.02,382.35 740.29,380.09 743.57,377.62 746.84,375.68 750.12,373.91 753.39,371.97 756.66,370.37 759.94,368.52 763.21,366.10 766.49,363.40 769.76,360.97 773.03,358.61 776.31,356.35 779.58,353.00 782.86,348.29 786.13,342.68 789.41,337.04 792.68,331.81 795.95,326.66 799.23,323.03 802.50,319.28 805.78,316.39 809.05,313.67 812.32,310.99 815.60,308.22 818.87,305.25 822.15,302.17 825.42,299.01 828.69,295.90 831.97,292.83 835.24,290.08 838.52,287.69 841.79,285.75 845.07,283.60 848.34,281.75 851.61,279.74 854.89,277.51 858.16,275.33 861.44,273.16 864.71,271.38 867.98,269.25 871.26,267.19 874.53,265.19 877.81,262.95 881.08,260.88 884.36,258.75 887.63,256.49 890.90,254.60 894.18,252.73 897.45,249.97 900.73,246.93 904.00,243.72" />
<text x="780.00" y="104.00" font-size="14" font-family="Arial" fill="#ff7f0e" text-anchor="start">MA60</text>
<polyline fill="none" stroke="#d62728" stroke-width="2" points="707.55,349.73 710.83,349.96 714.10,350.25 717.37,350.55 720.65,350.75 723.92,350.73 727.20,350.71 730.47,350.64 733.75,350.45 737.02,350.32 740.29,350.23 743.57,350.03 746.84,350.03 750.12,350.03 753.39,350.02 756.66,350.01 759.94,349.95 763.21,349.70 766.49,349.40 769.76,349.19 773.03,348.99 776.31,348.87 779.58,348.41 782.86,347.64 786.13,346.56 789.41,345.44 792.68,344.54 795.95,343.62 799.23,342.94 802.50,342.23 805.78,341.66 809.05,341.12 812.32,340.51 815.60,339.88 818.87,339.21 822.15,338.50 825.42,337.85 828.69,337.16 831.97,336.50 835.24,335.87 838.52,335.39 841.79,335.12 845.07,334.84 848.34,334.56 851.61,334.28 854.89,333.90 858.16,333.49 861.44,333.08 864.71,332.78 867.98,332.42 871.26,332.08 874.53,331.80 877.81,331.46 881.08,331.22 884.36,331.01 887.63,330.72 890.90,330.47 894.18,330.23 897.45,329.79 900.73,329.22 904.00,328.66" />
<text x="780.00" y="126.00" font-size="14" font-family="Arial" fill="#d62728" text-anchor="start">MA200</text>
</svg>