<svg xmlns="http://www.w3.org/2000/svg" width="960" height="520" viewBox="0 0 960 520"><rect width="100%" height="100%" fill="white" />
<text x="56.00" y="32.00" font-size="20" font-family="Arial" fill="#1f2933" text-anchor="start">元大高股息(0056) Backtest Equity Curves</text>
<line x1="56" y1="464" x2="904" y2="464" stroke="#cbd2d9" />
<line x1="56" y1="56" x2="56" y2="464" stroke="#cbd2d9" />
<text x="16.00" y="38.00" font-size="12" font-family="Arial" fill="#52606d" text-anchor="start">Equity Multiple</text>
<line x1="56" y1="464.00" x2="904" y2="464.00" stroke="#edf2f7" />
<line x1="52" y1="464.00" x2="56" y2="464.00" stroke="#9fb3c8" />
<text x="48.00" y="468.00" font-size="11" font-family="Arial" fill="#52606d" text-anchor="end">0.93</text>
<line x1="56" y1="362.00" x2="904" y2="362.00" stroke="#edf2f7" />
<line x1="52" y1="362.00" x2="56" y2="362.00" stroke="#9fb3c8" />
<text x="48.00" y="366.00" font-size="11" font-family="Arial" fill="#52606d" text-anchor="end">1.14</text>
<line x1="56" y1="260.00" x2="904" y2="260.00" stroke="#edf2f7" />
<line x1="52" y1="260.00" x2="56" y2="260.00" stroke="#9fb3c8" />
<text x="48.00" y="264.00" font-size="11" font-family="Arial" fill="#52606d" text-anchor="end">1.34</text>
<line x1="56" y1="158.00" x2="904" y2="158.00" stroke="#edf2f7" />
<line x1="52" y1="158.00" x2="56" y2="158.00" stroke="#9fb3c8" />
<text x="48.00" y="162.00" font-size="11" font-family="Arial" fill="#52606d" text-anchor="end">1.55</text>
<line x1="56" y1="56.00" x2="904" y2="56.00" stroke="#edf2f7" />
<line x1="52" y1="56.00" x2="56" y2="56.00" stroke="#9fb3c8" />
<text x="48.00" y="60.00" font-size="11" font-family="Arial" fill="#52606d" text-anchor="end">1.76</text>
<line x1="56.00" y1="464" x2="56.00" y2="468" stroke="#9fb3c8" />
<text x="56.00" y="482.00" font-size="11" font-family="Arial" fill="#52606d" text-anchor="middle">06/30</text>
<line x1="226.25" y1="464" x2="226.25" y2="468" stroke="#9fb3c8" />
<text x="226.25" y="482.00" font-size="11" font-family="Arial" fill="#52606d" text-anchor="middle">09/10</text>
<line x1="396.51" y1="464" x2="396.51" y2="468" stroke="#9fb3c8" />
<text x="396.51" y="482.00" font-size="11" font-family="Arial" fill="#52606d" text-anchor="middle">11/27</text>
<line x1="563.49" y1="464" x2="563.49" y2="468" stroke="#9fb3c8" />
<text x="563.49" y="482.00" font-size="11" font-family="Arial" fill="#52606d" text-anchor="middle">02/10</text>
<line x1="733.75" y1="464" x2="733.75" y2="468" stroke="#9fb3c8" />
<text x="733.75" y="482.00" font-size="11" font-family="Arial" fill="#52606d" text-anchor="middle">05/08</text>
<line x1="904.00" y1="464" x2="904.00" y2="468" stroke="#9fb3c8" />
<text x="904.00" y="482.00" font-size="11" font-family="Arial" fill="#52606d" text-anchor="middle">07/22</text>
<polyline fill="none" stroke="#7f7f7f" stroke-width="2" points="56.00,428.68 59.27,427.41 62.55,425.43 65.82,421.18 69.10,424.86 72.37,425.71 75.64,428.26 78.92,424.01 82.19,422.74 85.47,420.47 88.74,422.88 92.02,419.62 95.29,416.51 98.56,415.66 101.84,414.81 105.11,413.85 108.39,419.37 111.66,414.14 114.93,413.13 118.21,412.84 121.48,411.53 124.76,415.31 128.03,414.29 131.31,414.00 134.58,413.71 137.85,414.00 141.13,409.36 144.40,409.50 147.68,408.20 150.95,407.47 154.22,407.62 157.50,407.91 160.77,409.94 164.05,410.23 167.32,410.52 170.59,409.50 173.87,410.81 177.14,418.21 180.42,415.16 183.69,416.76 186.97,411.82 190.24,412.26 193.51,410.37 196.79,410.37 200.06,411.10 203.34,415.89 206.61,415.74 209.88,414.43 213.16,412.26 216.43,409.36 219.71,405.01 222.98,401.38 226.25,395.43 229.53,396.88 232.80,393.84 236.08,393.26 239.35,391.95 242.63,393.84 245.90,390.64 249.17,388.32 252.45,384.84 255.72,382.81 259.00,383.54 262.27,382.52 265.54,389.05 268.82,384.84 272.09,384.70 275.37,381.36 278.64,381.36 281.92,375.27 285.19,375.70 288.46,375.85 291.74,382.81 295.01,387.89 298.29,386.73 301.56,379.18 304.83,380.34 308.11,374.83 311.38,372.37 314.66,371.06 317.93,372.16 321.20,365.78 324.48,367.41 327.75,362.36 331.03,363.40 334.30,362.51 337.58,364.44 340.85,369.93 344.12,372.61 347.40,370.08 350.67,376.02 353.95,375.72 357.22,378.10 360.49,377.36 363.77,376.61 367.04,382.26 370.32,387.30 373.59,399.03 376.86,402.89 380.14,391.61 383.41,399.03 386.69,396.81 389.96,396.81 393.24,388.79 396.51,382.26 399.78,383.89 403.06,384.19 406.33,382.55 409.61,379.58 412.88,378.25 416.15,376.02 419.43,374.98 422.70,375.57 425.98,375.43 429.25,379.29 432.53,377.36 435.80,380.03 439.07,383.15 442.35,381.22 445.62,382.55 448.90,378.54 452.17,373.50 455.44,376.17 458.72,376.02 461.99,375.13 465.27,373.35 468.54,373.94 471.81,373.35 475.09,369.19 478.36,367.41 481.64,365.48 484.91,360.13 488.19,363.25 491.46,363.40 494.73,359.39 498.01,358.35 501.28,355.09 504.56,354.34 507.83,350.63 511.10,348.26 514.38,347.81 517.65,351.37 520.93,345.05 524.20,345.51 527.47,337.91 530.75,333.66 534.02,331.99 537.30,337.46 540.57,347.79 543.85,354.32 547.12,347.03 550.39,343.84 553.67,348.24 556.94,348.70 560.22,340.95 563.49,336.24 566.76,330.77 570.04,324.24 573.31,315.28 576.59,310.27 579.86,306.62 583.14,312.55 586.41,324.24 589.68,345.36 592.96,333.81 596.23,331.84 599.51,347.79 602.78,343.23 606.05,331.69 609.33,333.36 612.60,333.81 615.88,329.10 619.15,324.24 622.42,319.84 625.70,328.04 628.97,329.71 632.25,341.86 635.52,340.80 638.80,332.60 642.07,332.90 645.34,334.88 648.62,343.69 651.89,354.62 655.17,339.74 658.44,344.14 661.71,340.35 664.99,325.91 668.26,325.00 671.54,319.99 674.81,318.32 678.08,311.48 681.36,307.23 684.63,298.87 687.91,296.14 691.18,288.70 694.46,281.10 697.73,271.38 701.00,286.31 704.28,281.64 707.55,282.42 710.83,279.16 714.10,281.96 717.37,282.42 720.65,266.55 723.92,255.67 727.20,236.38 730.47,223.00 733.75,220.97 737.02,206.82 740.29,209.62 743.57,216.31 746.84,216.31 750.12,227.20 753.39,226.42 756.66,234.04 759.94,233.58 763.21,211.80 766.49,197.64 769.76,166.53 773.03,166.99 776.31,146.46 779.58,159.06 782.86,137.75 786.13,111.30 789.41,97.30 792.68,81.75 795.95,99.64 799.23,112.86 802.50,149.42 805.78,121.41 809.05,146.77 812.32,147.24 815.60,131.53 818.87,117.53 822.15,116.75 825.42,110.53 828.69,97.30 831.97,77.86 835.24,84.86 838.52,91.86 841.79,91.08 845.07,118.30 848.34,112.86 851.61,90.30 854.89,98.08 858.16,100.41 861.44,96.52 864.71,90.30 867.98,107.41 871.26,104.30 874.53,99.64 877.81,99.64 881.08,103.52 884.36,113.64 887.63,94.19 890.90,99.64 894.18,129.19 897.45,141.64 900.73,126.45 904.00,104.07" />
<text x="780.00" y="60.00" font-size="14" font-family="Arial" fill="#7f7f7f" text-anchor="start">BuyHold</text>
<polyline fill="none" stroke="#1f77b4" stroke-width="2" points="56.00,428.68 59.27,428.68 62.55,428.68 65.82,428.68 69.10,428.68 72.37,428.68 75.64,428.68 78.92,428.68 82.19,428.68 85.47,428.68 88.74,428.68 92.02,428.68 95.29,428.68 98.56,428.68 101.84,428.68 105.11,428.68 108.39,428.68 111.66,428.68 114.93,428.68 118.21,428.68 121.48,428.68 124.76,428.68 128.03,428.68 131.31,428.68 134.58,428.68 137.85,428.68 141.13,428.68 144.40,428.68 147.68,428.68 150.95,428.68 154.22,428.68 157.50,428.68 160.77,428.68 164.05,428.68 167.32,428.68 170.59,428.68 173.87,428.68 177.14,428.68 180.42,428.68 183.69,428.68 186.97,428.68 190.24,428.68 193.51,428.68 196.79,428.68 200.06,428.68 203.34,428.68 206.61,428.68 209.88,428.68 213.16,428.68 216.43,428.68 219.71,428.68 222.98,428.68 226.25,428.68 229.53,428.68 232.80,428.68 236.08,428.68 239.35,428.68 242.63,428.68 245.90,428.68 249.17,428.68 252.45,428.68 255.72,428.68 259.00,428.68 262.27,428.68 265.54,428.68 268.82,428.68 272.09,428.68 275.37,428.68 278.64,428.68 281.92,428.68 285.19,428.68 288.46,428.68 291.74,428.68 295.01,428.68 298.29,428.68 301.56,428.68 304.83,428.68 308.11,428.68 311.38,428.68 314.66,428.68 317.93,428.68 321.20,428.68 324.48,428.68 327.75,428.68 331.03,428.68 334.30,428.68 337.58,428.68 340.85,428.68 344.12,428.68 347.40,428.68 350.67,428.68 353.95,428.68 357.22,428.68 360.49,428.68 363.77,428.68 367.04,428.68 370.32,428.68 373.59,428.68 376.86,428.68 380.14,428.68 383.41,428.68 386.69,428.68 389.96,428.68 393.24,428.68 396.51,428.68 399.78,428.68 403.06,428.68 406.33,428.68 409.61,428.68 412.88,428.68 416.15,428.68 419.43,428.68 422.70,428.68 425.98,428.68 429.25,428.68 432.53,428.68 435.80,428.68 439.07,428.68 442.35,428.68 445.62,428.68 448.90,428.68 452.17,428.68 455.44,428.68 458.72,428.68 461.99,428.68 465.27,428.68 468.54,428.68 471.81,428.68 475.09,428.68 478.36,428.68 481.64,428.68 484.91,428.68 488.19,428.68 491.46,428.68 494.73,428.68 498.01,428.68 501.28,428.68 504.56,428.68 507.83,428.68 511.10,428.68 514.38,428.68 517.65,428.68 520.93,428.68 524.20,428.68 527.47,428.68 530.75,428.68 534.02,428.68 537.30,428.68 540.57,428.68 543.85,428.68 547.12,428.68 550.39,428.68 553.67,428.68 556.94,428.68 560.22,428.68 563.49,428.68 566.76,428.68 570.04,428.68 573.31,428.68 576.59,428.68 579.86,428.68 583.14,428.68 586.41,428.68 589.68,428.68 592.96,428.68 596.23,428.68 599.51,428.68 602.78,428.68 606.05,428.68 609.33,428.68 612.60,428.68 615.88,428.68 619.15,428.68 622.42,428.68 625.70,428.68 628.97,428.68 632.25,428.68 635.52,428.68 638.80,428.68 642.07,428.68 645.34,428.68 648.62,428.68 651.89,428.68 655.17,428.68 658.44,428.68 661.71,428.68 664.99,428.68 668.26,428.68 671.54,428.68 674.81,428.68 678.08,428.68 681.36,428.68 684.63,428.68 687.91,428.68 691.18,428.68 694.46,428.68 697.73,428.68 701.00,428.68 704.28,428.68 707.55,428.68 710.83,426.17 714.10,428.32 717.37,428.68 720.65,416.46 723.92,408.08 727.20,393.22 730.47,382.92 733.75,381.36 737.02,370.46 740.29,372.61 743.57,377.77 746.84,377.77 750.12,386.15 753.39,385.55 756.66,391.42 759.94,391.06 763.21,374.29 766.49,363.39 769.76,339.43 773.03,339.79 776.31,323.98 779.58,333.68 782.86,317.27 786.13,296.90 789.41,286.12 792.68,274.14 795.95,287.91 799.23,298.10 802.50,326.25 805.78,304.69 809.05,324.21 812.32,324.57 815.60,312.47 818.87,301.69 822.15,301.09 825.42,296.30 828.69,286.12 831.97,271.14 835.24,276.53 838.52,281.92 841.79,281.33 845.07,302.29 848.34,298.10 851.61,280.73 854.89,286.72 858.16,288.51 861.44,285.52 864.71,280.73 867.98,293.90 871.26,291.51 874.53,287.91 877.81,287.91 881.08,290.91 884.36,298.70 887.63,283.72 890.90,287.91 894.18,310.68 897.45,320.26 900.73,308.56 904.00,291.33" />
<text x="780.00" y="82.00" font-size="14" font-family="Arial" fill="#1f77b4" text-anchor="start">MA200</text>
<polyline fill="none" stroke="#2ca02c" stroke-width="2" points="56.00,428.68 59.27,428.68 62.55,428.68 65.82,428.68 69.10,428.68 72.37,428.68 75.64,428.68 78.92,428.68 82.19,428.68 85.47,428.68 88.74,428.68 92.02,428.68 95.29,428.68 98.56,428.68 101.84,428.68 105.11,428.68 108.39,428.68 111.66,428.68 114.93,428.68 118.21,428.68 121.48,428.68 124.76,428.68 128.03,428.68 131.31,428.68 134.58,428.68 137.85,428.68 141.13,428.68 144.40,428.68 147.68,428.68 150.95,428.68 154.22,428.68 157.50,428.68 160.77,428.68 164.05,428.68 167.32,428.68 170.59,428.68 173.87,428.68 177.14,428.68 180.42,428.68 183.69,428.68 186.97,428.68 190.24,428.68 193.51,428.68 196.79,428.68 200.06,428.68 203.34,428.68 206.61,428.68 209.88,428.68 213.16,428.68 216.43,428.68 219.71,428.68 222.98,428.68 226.25,428.68 229.53,428.68 232.80,428.68 236.08,428.68 239.35,428.68 242.63,428.68 245.90,428.68 249.17,428.68 252.45,425.47 255.72,423.59 259.00,424.26 262.27,423.32 265.54,429.35 268.82,425.47 272.09,425.33 275.37,422.25 278.64,422.25 281.92,416.62 285.19,417.02 288.46,417.16 291.74,423.59 295.01,428.28 298.29,427.21 301.56,420.24 304.83,421.31 308.11,416.22 311.38,413.94 314.66,412.73 317.93,413.75 321.20,407.85 324.48,409.36 327.75,404.70 331.03,405.66 334.30,404.83 337.58,406.62 340.85,411.69 344.12,414.16 347.40,411.83 350.67,417.32 353.95,417.04 357.22,419.24 360.49,418.55 363.77,417.86 367.04,423.08 370.32,427.74 373.59,438.58 376.86,442.14 380.14,431.72 383.41,438.58 386.69,436.52 389.96,436.52 393.24,429.11 396.51,423.08 399.78,424.59 403.06,424.86 406.33,424.86 409.61,424.86 412.88,424.86 416.15,424.86 419.43,424.86 422.70,424.86 425.98,424.86 429.25,424.86 432.53,424.86 435.80,424.86 439.07,424.86 442.35,424.86 445.62,424.86 448.90,424.86 452.17,424.86 455.44,424.86 458.72,424.86 461.99,424.05 465.27,422.43 468.54,422.97 471.81,422.43 475.09,418.64 478.36,417.02 481.64,415.27 484.91,410.40 488.19,413.24 491.46,413.38 494.73,409.73 498.01,408.78 501.28,405.81 504.56,405.13 507.83,401.76 511.10,399.59 514.38,399.19 517.65,402.43 520.93,396.68 524.20,397.10 527.47,390.18 530.75,386.31 534.02,384.79 537.30,389.77 540.57,399.17 543.85,405.11 547.12,398.48 550.39,395.57 553.67,399.58 556.94,400.00 560.22,392.95 563.49,388.66 566.76,383.69 570.04,377.74 573.31,369.59 576.59,365.02 579.86,361.71 583.14,367.10 586.41,377.74 589.68,396.96 592.96,386.45 596.23,384.65 599.51,399.17 602.78,395.02 606.05,384.52 609.33,386.04 612.60,386.45 615.88,382.17 619.15,377.74 622.42,373.73 625.70,381.20 628.97,382.72 632.25,393.78 635.52,392.81 638.80,385.35 642.07,385.62 645.34,387.42 648.62,395.44 651.89,405.39 655.17,391.84 658.44,395.85 661.71,392.40 664.99,379.26 668.26,378.43 671.54,373.87 674.81,372.35 678.08,366.13 681.36,362.26 684.63,354.66 687.91,352.17 691.18,345.39 694.46,338.48 697.73,329.63 701.00,343.22 704.28,338.98 707.55,339.69 710.83,336.71 714.10,339.26 717.37,339.69 720.65,325.25 723.92,315.34 727.20,297.78 730.47,285.61 733.75,283.77 737.02,270.89 740.29,273.43 743.57,279.52 746.84,279.52 750.12,289.43 753.39,288.72 756.66,295.66 759.94,295.24 763.21,275.42 766.49,262.53 769.76,234.22 773.03,234.65 776.31,215.96 779.58,227.43 782.86,208.03 786.13,183.97 789.41,171.23 792.68,157.07 795.95,173.35 799.23,185.38 802.50,218.65 805.78,193.17 809.05,216.24 812.32,216.67 815.60,202.37 818.87,189.63 822.15,188.92 825.42,183.26 828.69,171.23 831.97,153.53 835.24,159.90 838.52,166.27 841.79,165.56 845.07,190.34 848.34,185.38 851.61,164.86 854.89,171.93 858.16,174.06 861.44,170.52 864.71,164.86 867.98,180.43 871.26,177.60 874.53,173.35 877.81,173.35 881.08,176.89 884.36,186.09 887.63,168.40 890.90,173.35 894.18,200.25 897.45,211.57 900.73,197.75 904.00,177.38" />
<text x="780.00" y="104.00" font-size="14" font-family="Arial" fill="#2ca02c" text-anchor="start">MA20x60</text>
</svg>