<svg xmlns="http://www.w3.org/2000/svg" width="960" height="520" viewBox="0 0 960 520"><rect width="100%" height="100%" fill="white" />
<text x="56.00" y="32.00" font-size="20" font-family="Arial" fill="#1f2933" text-anchor="start">主動統一台股增長(00981A) Backtest Equity Curves</text>
<line x1="56" y1="464" x2="904" y2="464" stroke="#cbd2d9" />
<line x1="56" y1="56" x2="56" y2="464" stroke="#cbd2d9" />
<text x="16.00" y="38.00" font-size="12" font-family="Arial" fill="#52606d" text-anchor="start">Equity Multiple</text>
<line x1="56" y1="464.00" x2="904" y2="464.00" stroke="#edf2f7" />
<line x1="52" y1="464.00" x2="56" y2="464.00" stroke="#9fb3c8" />
<text x="48.00" y="468.00" font-size="11" font-family="Arial" fill="#52606d" text-anchor="end">0.83</text>
<line x1="56" y1="362.00" x2="904" y2="362.00" stroke="#edf2f7" />
<line x1="52" y1="362.00" x2="56" y2="362.00" stroke="#9fb3c8" />
<text x="48.00" y="366.00" font-size="11" font-family="Arial" fill="#52606d" text-anchor="end">1.44</text>
<line x1="56" y1="260.00" x2="904" y2="260.00" stroke="#edf2f7" />
<line x1="52" y1="260.00" x2="56" y2="260.00" stroke="#9fb3c8" />
<text x="48.00" y="264.00" font-size="11" font-family="Arial" fill="#52606d" text-anchor="end">2.06</text>
<line x1="56" y1="158.00" x2="904" y2="158.00" stroke="#edf2f7" />
<line x1="52" y1="158.00" x2="56" y2="158.00" stroke="#9fb3c8" />
<text x="48.00" y="162.00" font-size="11" font-family="Arial" fill="#52606d" text-anchor="end">2.67</text>
<line x1="56" y1="56.00" x2="904" y2="56.00" stroke="#edf2f7" />
<line x1="52" y1="56.00" x2="56" y2="56.00" stroke="#9fb3c8" />
<text x="48.00" y="60.00" font-size="11" font-family="Arial" fill="#52606d" text-anchor="end">3.29</text>
<line x1="56.00" y1="464" x2="56.00" y2="468" stroke="#9fb3c8" />
<text x="56.00" y="482.00" font-size="11" font-family="Arial" fill="#52606d" text-anchor="middle">06/23</text>
<line x1="226.25" y1="464" x2="226.25" y2="468" stroke="#9fb3c8" />
<text x="226.25" y="482.00" font-size="11" font-family="Arial" fill="#52606d" text-anchor="middle">09/03</text>
<line x1="396.51" y1="464" x2="396.51" y2="468" stroke="#9fb3c8" />
<text x="396.51" y="482.00" font-size="11" font-family="Arial" fill="#52606d" text-anchor="middle">11/20</text>
<line x1="563.49" y1="464" x2="563.49" y2="468" stroke="#9fb3c8" />
<text x="563.49" y="482.00" font-size="11" font-family="Arial" fill="#52606d" text-anchor="middle">02/03</text>
<line x1="733.75" y1="464" x2="733.75" y2="468" stroke="#9fb3c8" />
<text x="733.75" y="482.00" font-size="11" font-family="Arial" fill="#52606d" text-anchor="middle">04/30</text>
<line x1="904.00" y1="464" x2="904.00" y2="468" stroke="#9fb3c8" />
<text x="904.00" y="482.00" font-size="11" font-family="Arial" fill="#52606d" text-anchor="middle">07/15</text>
<polyline fill="none" stroke="#7f7f7f" stroke-width="2" points="56.00,435.73 59.27,432.46 62.55,430.59 65.82,431.68 69.10,431.83 72.37,431.05 75.64,429.96 78.92,429.49 82.19,427.15 85.47,427.62 88.74,429.65 92.02,428.09 95.29,424.35 98.56,424.04 101.84,424.82 105.11,426.69 108.39,424.04 111.66,422.32 114.93,421.70 118.21,417.95 121.48,419.36 124.76,422.16 128.03,421.70 131.31,419.51 134.58,419.98 137.85,417.95 141.13,419.36 144.40,419.05 147.68,413.74 150.95,413.59 154.22,416.71 157.50,413.12 160.77,413.43 164.05,408.60 167.32,404.39 170.59,401.11 173.87,400.49 177.14,398.15 180.42,398.30 183.69,397.06 186.97,392.53 190.24,398.30 193.51,407.04 196.79,404.07 200.06,404.54 203.34,399.08 206.61,397.99 209.88,393.16 213.16,393.63 216.43,389.88 219.71,397.68 222.98,399.86 226.25,399.08 229.53,399.08 232.80,394.56 236.08,393.16 239.35,391.60 242.63,386.14 245.90,386.45 249.17,387.70 252.45,390.51 255.72,388.95 259.00,390.04 262.27,385.52 265.54,387.23 268.82,386.45 272.09,386.14 275.37,388.01 278.64,390.51 281.92,395.97 285.19,390.04 288.46,390.04 291.74,386.61 295.01,383.02 298.29,383.18 301.56,383.33 304.83,380.68 308.11,384.11 311.38,387.54 314.66,381.62 317.93,378.97 321.20,381.93 324.48,379.28 327.75,376.16 331.03,377.41 334.30,377.72 337.58,372.11 340.85,366.18 344.12,362.90 347.40,360.88 350.67,356.51 353.95,354.17 357.22,356.82 360.49,359.79 363.77,354.80 367.04,359.94 370.32,355.26 373.59,356.04 376.86,356.82 380.14,354.64 383.41,360.10 386.69,357.76 389.96,367.43 393.24,367.90 396.51,358.23 399.78,370.55 403.06,370.55 406.33,364.31 409.61,358.54 412.88,353.08 416.15,348.71 419.43,354.17 422.70,355.73 425.98,354.95 429.25,356.67 432.53,352.61 435.80,351.05 439.07,351.36 442.35,347.15 445.62,347.15 448.90,345.59 452.17,348.87 455.44,354.33 458.72,356.04 461.99,356.98 465.27,352.46 468.54,348.40 471.81,347.78 475.09,344.50 478.36,340.60 481.64,339.51 484.91,339.36 488.19,338.11 491.46,339.98 494.73,339.51 498.01,334.37 501.28,338.27 504.56,340.29 507.83,341.54 511.10,340.14 514.38,340.29 517.65,336.24 520.93,337.49 524.20,335.93 527.47,338.11 530.75,335.61 534.02,339.05 537.30,330.31 540.57,325.63 543.85,324.70 547.12,318.77 550.39,316.12 553.67,317.99 556.94,321.89 560.22,326.41 563.49,316.28 566.76,312.07 570.04,318.93 573.31,323.92 576.59,315.81 579.86,310.82 583.14,307.39 586.41,305.67 589.68,300.21 592.96,289.61 596.23,286.80 599.51,288.52 602.78,293.04 606.05,311.29 609.33,297.72 612.60,293.35 615.88,315.50 619.15,305.52 622.42,289.14 625.70,287.43 628.97,286.34 632.25,285.71 635.52,277.91 638.80,269.00 642.07,266.93 645.34,267.25 648.62,278.07 651.89,283.32 655.17,269.64 658.44,268.84 661.71,270.11 664.99,276.32 668.26,291.76 671.54,272.98 674.81,279.98 678.08,271.71 681.36,248.47 684.63,242.42 687.91,233.66 691.18,235.26 694.46,225.87 697.73,215.04 701.00,202.79 704.28,202.31 707.55,188.30 710.83,181.62 714.10,172.86 717.37,178.12 720.65,159.33 723.92,157.74 727.20,159.17 730.47,160.29 733.75,151.69 737.02,130.21 740.29,132.91 743.57,135.46 746.84,131.00 750.12,141.67 753.39,129.25 756.66,124.80 759.94,135.78 763.21,133.23 766.49,149.47 769.76,152.33 773.03,164.27 776.31,168.41 779.58,142.46 782.86,125.11 786.13,98.69 789.41,100.60 792.68,93.12 795.95,112.86 799.23,99.81 802.50,97.26 805.78,103.15 809.05,95.51 812.32,102.67 815.60,111.43 818.87,126.07 822.15,104.74 825.42,126.07 828.69,128.93 831.97,114.77 835.24,100.92 838.52,101.25 841.79,100.27 845.07,90.20 848.34,78.34 851.61,88.58 854.89,90.53 858.16,90.20 861.44,116.03 864.71,115.54 867.98,93.77 871.26,82.08 874.53,81.27 877.81,77.86 881.08,95.07 884.36,117.16 887.63,118.62 890.90,115.38 894.18,115.38 897.45,125.12 900.73,140.55 904.00,124.63" />
<text x="780.00" y="60.00" font-size="14" font-family="Arial" fill="#7f7f7f" text-anchor="start">BuyHold</text>
<polyline fill="none" stroke="#1f77b4" stroke-width="2" points="56.00,435.73 59.27,435.73 62.55,435.73 65.82,435.73 69.10,435.73 72.37,435.73 75.64,435.73 78.92,435.73 82.19,435.73 85.47,435.73 88.74,435.73 92.02,435.73 95.29,435.73 98.56,435.73 101.84,435.73 105.11,435.73 108.39,435.73 111.66,435.73 114.93,435.73 118.21,435.73 121.48,435.73 124.76,435.73 128.03,435.73 131.31,435.73 134.58,435.73 137.85,435.73 141.13,435.73 144.40,435.73 147.68,435.73 150.95,435.73 154.22,435.73 157.50,435.73 160.77,435.73 164.05,435.73 167.32,435.73 170.59,435.73 173.87,435.73 177.14,435.73 180.42,435.73 183.69,435.73 186.97,435.73 190.24,435.73 193.51,435.73 196.79,435.73 200.06,435.73 203.34,435.73 206.61,435.73 209.88,435.73 213.16,435.73 216.43,435.73 219.71,435.73 222.98,435.73 226.25,435.73 229.53,435.73 232.80,435.73 236.08,435.73 239.35,435.73 242.63,435.73 245.90,435.73 249.17,435.73 252.45,435.73 255.72,435.73 259.00,435.73 262.27,435.73 265.54,435.73 268.82,435.73 272.09,435.73 275.37,435.73 278.64,435.73 281.92,435.73 285.19,435.73 288.46,435.73 291.74,435.73 295.01,435.73 298.29,435.73 301.56,435.73 304.83,435.73 308.11,435.73 311.38,435.73 314.66,435.73 317.93,435.73 321.20,435.73 324.48,435.73 327.75,435.73 331.03,435.73 334.30,435.73 337.58,435.73 340.85,435.73 344.12,435.73 347.40,435.73 350.67,435.73 353.95,435.73 357.22,435.73 360.49,435.73 363.77,435.73 367.04,435.73 370.32,435.73 373.59,435.73 376.86,435.73 380.14,435.73 383.41,435.73 386.69,435.73 389.96,435.73 393.24,435.73 396.51,435.73 399.78,435.73 403.06,435.73 406.33,435.73 409.61,435.73 412.88,435.73 416.15,435.73 419.43,435.73 422.70,435.73 425.98,435.73 429.25,435.73 432.53,435.73 435.80,435.73 439.07,435.73 442.35,435.73 445.62,435.73 448.90,435.73 452.17,435.73 455.44,435.73 458.72,435.73 461.99,435.73 465.27,435.73 468.54,435.73 471.81,435.73 475.09,435.73 478.36,435.73 481.64,435.73 484.91,435.73 488.19,435.73 491.46,435.73 494.73,435.73 498.01,435.73 501.28,435.73 504.56,435.73 507.83,435.73 511.10,435.73 514.38,435.73 517.65,435.73 520.93,435.73 524.20,435.73 527.47,435.73 530.75,435.73 534.02,435.73 537.30,435.73 540.57,435.73 543.85,435.73 547.12,435.73 550.39,435.73 553.67,435.73 556.94,435.73 560.22,435.73 563.49,435.73 566.76,435.73 570.04,435.73 573.31,435.73 576.59,435.73 579.86,435.73 583.14,435.73 586.41,435.73 589.68,435.73 592.96,435.73 596.23,435.73 599.51,435.73 602.78,435.73 606.05,435.73 609.33,435.73 612.60,435.73 615.88,435.73 619.15,435.73 622.42,435.73 625.70,435.73 628.97,435.73 632.25,435.73 635.52,435.73 638.80,435.73 642.07,435.73 645.34,435.73 648.62,435.73 651.89,435.73 655.17,435.73 658.44,435.73 661.71,435.73 664.99,435.73 668.26,435.73 671.54,435.73 674.81,435.73 678.08,435.73 681.36,435.73 684.63,435.73 687.91,435.73 691.18,435.73 694.46,435.73 697.73,435.73 701.00,435.73 704.28,435.73 707.55,435.73 710.83,433.05 714.10,429.53 717.37,431.64 720.65,424.10 723.92,423.46 727.20,424.03 730.47,424.48 733.75,421.03 737.02,412.40 740.29,413.49 743.57,414.51 746.84,412.72 750.12,417.00 753.39,412.01 756.66,410.22 759.94,414.64 763.21,413.61 766.49,420.13 769.76,421.28 773.03,426.08 776.31,427.74 779.58,417.32 782.86,410.35 786.13,399.74 789.41,400.51 792.68,397.50 795.95,405.43 799.23,400.19 802.50,399.17 805.78,401.53 809.05,398.46 812.32,401.34 815.60,404.86 818.87,410.74 822.15,402.17 825.42,410.74 828.69,411.89 831.97,406.20 835.24,400.64 838.52,400.77 841.79,400.37 845.07,396.33 848.34,391.57 851.61,395.68 854.89,396.46 858.16,396.33 861.44,406.70 864.71,406.51 867.98,397.77 871.26,393.07 874.53,392.74 877.81,391.37 881.08,398.29 884.36,407.16 887.63,407.75 890.90,406.44 894.18,406.44 897.45,410.36 900.73,416.55 904.00,410.16" />
<text x="780.00" y="82.00" font-size="14" font-family="Arial" fill="#1f77b4" text-anchor="start">MA200</text>
<polyline fill="none" stroke="#2ca02c" stroke-width="2" points="56.00,435.73 59.27,435.73 62.55,435.73 65.82,435.73 69.10,435.73 72.37,435.73 75.64,435.73 78.92,435.73 82.19,435.73 85.47,435.73 88.74,435.73 92.02,435.73 95.29,435.73 98.56,435.73 101.84,435.73 105.11,435.73 108.39,435.73 111.66,435.73 114.93,435.73 118.21,435.73 121.48,435.73 124.76,435.73 128.03,435.73 131.31,435.73 134.58,435.73 137.85,435.73 141.13,435.73 144.40,435.73 147.68,435.73 150.95,435.73 154.22,435.73 157.50,435.73 160.77,435.73 164.05,435.73 167.32,435.73 170.59,435.73 173.87,435.73 177.14,435.73 180.42,435.73 183.69,435.73 186.97,435.73 190.24,435.73 193.51,435.73 196.79,435.73 200.06,435.73 203.34,435.73 206.61,435.73 209.88,435.73 213.16,435.73 216.43,435.73 219.71,435.73 222.98,435.73 226.25,435.73 229.53,435.73 232.80,435.73 236.08,435.73 239.35,435.73 242.63,435.73 245.90,435.73 249.17,435.73 252.45,437.91 255.72,436.70 259.00,437.55 262.27,434.04 265.54,435.37 268.82,434.76 272.09,434.52 275.37,435.97 278.64,437.91 281.92,442.14 285.19,437.55 288.46,437.55 291.74,434.89 295.01,432.10 298.29,432.22 301.56,432.34 304.83,430.29 308.11,432.95 311.38,435.61 314.66,431.01 317.93,428.96 321.20,431.26 324.48,429.20 327.75,426.78 331.03,427.75 334.30,427.99 337.58,423.64 340.85,419.04 344.12,416.50 347.40,414.93 350.67,411.54 353.95,409.72 357.22,411.78 360.49,414.08 363.77,410.21 367.04,414.20 370.32,410.57 373.59,411.18 376.86,411.78 380.14,410.09 383.41,414.32 386.69,412.51 389.96,420.01 393.24,420.37 396.51,412.87 399.78,422.43 403.06,422.43 406.33,417.59 409.61,413.11 412.88,408.88 416.15,405.49 419.43,409.72 422.70,410.93 425.98,410.33 429.25,411.66 432.53,408.52 435.80,407.31 439.07,407.55 442.35,404.28 445.62,404.28 448.90,403.07 452.17,405.61 455.44,409.85 458.72,411.18 461.99,411.90 465.27,408.39 468.54,405.25 471.81,404.77 475.09,402.22 478.36,399.20 481.64,398.35 484.91,398.23 488.19,397.27 491.46,398.72 494.73,398.35 498.01,394.36 501.28,397.39 504.56,398.96 507.83,399.93 511.10,398.84 514.38,398.96 517.65,395.81 520.93,396.78 524.20,395.57 527.47,397.27 530.75,395.33 534.02,397.99 537.30,391.22 540.57,387.59 543.85,386.86 547.12,382.27 550.39,380.21 553.67,381.66 556.94,384.69 560.22,388.19 563.49,380.33 566.76,377.06 570.04,382.39 573.31,386.26 576.59,379.97 579.86,376.10 583.14,373.44 586.41,372.11 589.68,367.87 592.96,359.65 596.23,357.47 599.51,358.80 602.78,362.31 606.05,376.46 609.33,365.94 612.60,362.55 615.88,379.73 619.15,371.98 622.42,359.28 625.70,357.95 628.97,357.11 632.25,356.62 635.52,350.57 638.80,343.66 642.07,342.05 645.34,342.30 648.62,350.70 651.89,354.77 655.17,344.15 658.44,343.53 661.71,344.52 664.99,349.34 668.26,361.31 671.54,346.74 674.81,352.18 678.08,345.76 681.36,327.73 684.63,323.04 687.91,316.25 691.18,317.48 694.46,310.20 697.73,301.81 701.00,292.30 704.28,291.93 707.55,281.06 710.83,275.88 714.10,269.09 717.37,273.16 720.65,258.59 723.92,257.36 727.20,258.47 730.47,259.33 733.75,252.67 737.02,236.00 740.29,238.10 743.57,240.08 746.84,236.62 750.12,244.89 753.39,235.26 756.66,231.80 759.94,240.32 763.21,238.35 766.49,250.94 769.76,253.16 773.03,262.42 776.31,265.63 779.58,245.51 782.86,232.05 786.13,211.56 789.41,213.04 792.68,207.23 795.95,222.54 799.23,212.42 802.50,210.44 805.78,215.01 809.05,209.09 812.32,214.64 815.60,221.43 818.87,232.79 822.15,216.25 825.42,232.79 828.69,235.01 831.97,224.03 835.24,213.28 838.52,213.54 841.79,212.78 845.07,204.97 848.34,195.77 851.61,203.71 854.89,205.22 858.16,204.97 861.44,225.00 864.71,224.62 867.98,207.74 871.26,198.67 874.53,198.04 877.81,195.39 881.08,208.75 884.36,225.88 887.63,227.02 890.90,224.50 894.18,224.50 897.45,232.06 900.73,244.02 904.00,231.68" />
<text x="780.00" y="104.00" font-size="14" font-family="Arial" fill="#2ca02c" text-anchor="start">MA20x60</text>
</svg>