<svg xmlns="http://www.w3.org/2000/svg" width="960" height="520" viewBox="0 0 960 520"><rect width="100%" height="100%" fill="white" />
<text x="56.00" y="32.00" font-size="20" font-family="Arial" fill="#1f2933" text-anchor="start">主動統一台股增長(00981A) Backtest Equity Curves</text>
<line x1="56" y1="464" x2="904" y2="464" stroke="#cbd2d9" />
<line x1="56" y1="56" x2="56" y2="464" stroke="#cbd2d9" />
<text x="16.00" y="38.00" font-size="12" font-family="Arial" fill="#52606d" text-anchor="start">Equity Multiple</text>
<line x1="56" y1="464.00" x2="904" y2="464.00" stroke="#edf2f7" />
<line x1="52" y1="464.00" x2="56" y2="464.00" stroke="#9fb3c8" />
<text x="48.00" y="468.00" font-size="11" font-family="Arial" fill="#52606d" text-anchor="end">0.86</text>
<line x1="56" y1="362.00" x2="904" y2="362.00" stroke="#edf2f7" />
<line x1="52" y1="362.00" x2="56" y2="362.00" stroke="#9fb3c8" />
<text x="48.00" y="366.00" font-size="11" font-family="Arial" fill="#52606d" text-anchor="end">1.47</text>
<line x1="56" y1="260.00" x2="904" y2="260.00" stroke="#edf2f7" />
<line x1="52" y1="260.00" x2="56" y2="260.00" stroke="#9fb3c8" />
<text x="48.00" y="264.00" font-size="11" font-family="Arial" fill="#52606d" text-anchor="end">2.07</text>
<line x1="56" y1="158.00" x2="904" y2="158.00" stroke="#edf2f7" />
<line x1="52" y1="158.00" x2="56" y2="158.00" stroke="#9fb3c8" />
<text x="48.00" y="162.00" font-size="11" font-family="Arial" fill="#52606d" text-anchor="end">2.67</text>
<line x1="56" y1="56.00" x2="904" y2="56.00" stroke="#edf2f7" />
<line x1="52" y1="56.00" x2="56" y2="56.00" stroke="#9fb3c8" />
<text x="48.00" y="60.00" font-size="11" font-family="Arial" fill="#52606d" text-anchor="end">3.27</text>
<line x1="56.00" y1="464" x2="56.00" y2="468" stroke="#9fb3c8" />
<text x="56.00" y="482.00" font-size="11" font-family="Arial" fill="#52606d" text-anchor="middle">06/16</text>
<line x1="226.25" y1="464" x2="226.25" y2="468" stroke="#9fb3c8" />
<text x="226.25" y="482.00" font-size="11" font-family="Arial" fill="#52606d" text-anchor="middle">08/27</text>
<line x1="396.51" y1="464" x2="396.51" y2="468" stroke="#9fb3c8" />
<text x="396.51" y="482.00" font-size="11" font-family="Arial" fill="#52606d" text-anchor="middle">11/13</text>
<line x1="563.49" y1="464" x2="563.49" y2="468" stroke="#9fb3c8" />
<text x="563.49" y="482.00" font-size="11" font-family="Arial" fill="#52606d" text-anchor="middle">01/27</text>
<line x1="733.75" y1="464" x2="733.75" y2="468" stroke="#9fb3c8" />
<text x="733.75" y="482.00" font-size="11" font-family="Arial" fill="#52606d" text-anchor="middle">04/23</text>
<line x1="904.00" y1="464" x2="904.00" y2="468" stroke="#9fb3c8" />
<text x="904.00" y="482.00" font-size="11" font-family="Arial" fill="#52606d" text-anchor="middle">07/08</text>
<polyline fill="none" stroke="#7f7f7f" stroke-width="2" points="56.00,440.99 59.27,440.36 62.55,440.04 65.82,440.84 69.10,441.79 72.37,441.79 75.64,438.46 78.92,436.55 82.19,437.66 85.47,437.82 88.74,437.03 92.02,435.92 95.29,435.44 98.56,433.06 101.84,433.54 105.11,435.60 108.39,434.02 111.66,430.21 114.93,429.89 118.21,430.69 121.48,432.59 124.76,429.89 128.03,428.15 131.31,427.51 134.58,423.71 137.85,425.14 141.13,427.99 144.40,427.51 147.68,425.29 150.95,425.77 154.22,423.71 157.50,425.14 160.77,424.82 164.05,419.43 167.32,419.27 170.59,422.44 173.87,418.79 177.14,419.11 180.42,414.19 183.69,409.91 186.97,406.58 190.24,405.95 193.51,403.57 196.79,403.73 200.06,402.46 203.34,397.86 206.61,403.73 209.88,412.61 213.16,409.59 216.43,410.07 219.71,404.52 222.98,403.41 226.25,398.49 229.53,398.97 232.80,395.16 236.08,403.09 239.35,405.31 242.63,404.52 245.90,404.52 249.17,399.92 252.45,398.49 255.72,396.91 259.00,391.36 262.27,391.67 265.54,392.94 268.82,395.80 272.09,394.21 275.37,395.32 278.64,390.72 281.92,392.47 285.19,391.67 288.46,391.36 291.74,393.26 295.01,395.80 298.29,401.35 301.56,395.32 304.83,395.32 308.11,391.83 311.38,388.19 314.66,388.34 317.93,388.50 321.20,385.81 324.48,389.30 327.75,392.78 331.03,386.76 334.30,384.06 337.58,387.07 340.85,384.38 344.12,381.21 347.40,382.48 350.67,382.79 353.95,377.08 357.22,371.06 360.49,367.73 363.77,365.67 367.04,361.23 370.32,358.85 373.59,361.54 376.86,364.56 380.14,359.48 383.41,364.71 386.69,359.96 389.96,360.75 393.24,361.54 396.51,359.32 399.78,364.87 403.06,362.49 406.33,372.33 409.61,372.80 412.88,362.97 416.15,375.50 419.43,375.50 422.70,369.15 425.98,363.29 429.25,357.74 432.53,353.30 435.80,358.85 439.07,360.43 442.35,359.64 445.62,361.38 448.90,357.26 452.17,355.68 455.44,355.99 458.72,351.71 461.99,351.71 465.27,350.12 468.54,353.46 471.81,359.01 475.09,360.75 478.36,361.70 481.64,357.10 484.91,352.98 488.19,352.34 491.46,349.01 494.73,345.05 498.01,343.94 501.28,343.78 504.56,342.51 507.83,344.42 511.10,343.94 514.38,338.71 517.65,342.67 520.93,344.73 524.20,346.00 527.47,344.57 530.75,344.73 534.02,340.61 537.30,341.88 540.57,340.29 543.85,342.51 547.12,339.98 550.39,343.46 553.67,334.58 556.94,329.83 560.22,328.87 563.49,322.85 566.76,320.15 570.04,322.06 573.31,326.02 576.59,330.62 579.86,320.31 583.14,316.03 586.41,323.01 589.68,328.08 592.96,319.84 596.23,314.76 599.51,311.27 602.78,309.53 606.05,303.98 609.33,293.19 612.60,290.34 615.88,292.08 619.15,296.68 622.42,315.24 625.70,301.44 628.97,297.00 632.25,319.52 635.52,309.37 638.80,292.72 642.07,290.97 645.34,289.86 648.62,289.23 651.89,281.30 655.17,272.23 658.44,270.13 661.71,270.45 664.99,281.46 668.26,286.80 671.54,272.88 674.81,272.07 678.08,273.37 681.36,279.68 684.63,295.38 687.91,276.28 691.18,283.40 694.46,274.98 697.73,251.35 701.00,245.20 704.28,236.30 707.55,237.92 710.83,228.37 714.10,217.36 717.37,204.90 720.65,204.41 723.92,190.17 727.20,183.37 730.47,174.47 733.75,179.81 737.02,160.71 740.29,159.09 743.57,160.55 746.84,161.68 750.12,152.94 753.39,131.09 756.66,133.84 759.94,136.43 763.21,131.90 766.49,142.75 769.76,130.12 773.03,125.59 776.31,136.76 779.58,134.17 782.86,150.68 786.13,153.59 789.41,165.73 792.68,169.94 795.95,143.56 799.23,125.91 802.50,99.04 805.78,100.99 809.05,93.38 812.32,113.45 815.60,100.18 818.87,97.59 822.15,103.58 825.42,95.81 828.69,103.09 831.97,111.99 835.24,126.88 838.52,105.20 841.79,126.88 845.07,129.80 848.34,115.39 851.61,101.31 854.89,101.64 858.16,100.65 861.44,90.41 864.71,78.35 867.98,88.76 871.26,90.74 874.53,90.41 877.81,116.67 881.08,116.18 884.36,94.04 887.63,82.15 890.90,81.33 894.18,77.86 897.45,95.36 900.73,117.83 904.00,119.31" />
<text x="780.00" y="60.00" font-size="14" font-family="Arial" fill="#7f7f7f" text-anchor="start">BuyHold</text>
<polyline fill="none" stroke="#1f77b4" stroke-width="2" points="56.00,440.99 59.27,440.99 62.55,440.99 65.82,440.99 69.10,440.99 72.37,440.99 75.64,440.99 78.92,440.99 82.19,440.99 85.47,440.99 88.74,440.99 92.02,440.99 95.29,440.99 98.56,440.99 101.84,440.99 105.11,440.99 108.39,440.99 111.66,440.99 114.93,440.99 118.21,440.99 121.48,440.99 124.76,440.99 128.03,440.99 131.31,440.99 134.58,440.99 137.85,440.99 141.13,440.99 144.40,440.99 147.68,440.99 150.95,440.99 154.22,440.99 157.50,440.99 160.77,440.99 164.05,440.99 167.32,440.99 170.59,440.99 173.87,440.99 177.14,440.99 180.42,440.99 183.69,440.99 186.97,440.99 190.24,440.99 193.51,440.99 196.79,440.99 200.06,440.99 203.34,440.99 206.61,440.99 209.88,440.99 213.16,440.99 216.43,440.99 219.71,440.99 222.98,440.99 226.25,440.99 229.53,440.99 232.80,440.99 236.08,440.99 239.35,440.99 242.63,440.99 245.90,440.99 249.17,440.99 252.45,440.99 255.72,440.99 259.00,440.99 262.27,440.99 265.54,440.99 268.82,440.99 272.09,440.99 275.37,440.99 278.64,440.99 281.92,440.99 285.19,440.99 288.46,440.99 291.74,440.99 295.01,440.99 298.29,440.99 301.56,440.99 304.83,440.99 308.11,440.99 311.38,440.99 314.66,440.99 317.93,440.99 321.20,440.99 324.48,440.99 327.75,440.99 331.03,440.99 334.30,440.99 337.58,440.99 340.85,440.99 344.12,440.99 347.40,440.99 350.67,440.99 353.95,440.99 357.22,440.99 360.49,440.99 363.77,440.99 367.04,440.99 370.32,440.99 373.59,440.99 376.86,440.99 380.14,440.99 383.41,440.99 386.69,440.99 389.96,440.99 393.24,440.99 396.51,440.99 399.78,440.99 403.06,440.99 406.33,440.99 409.61,440.99 412.88,440.99 416.15,440.99 419.43,440.99 422.70,440.99 425.98,440.99 429.25,440.99 432.53,440.99 435.80,440.99 439.07,440.99 442.35,440.99 445.62,440.99 448.90,440.99 452.17,440.99 455.44,440.99 458.72,440.99 461.99,440.99 465.27,440.99 468.54,440.99 471.81,440.99 475.09,440.99 478.36,440.99 481.64,440.99 484.91,440.99 488.19,440.99 491.46,440.99 494.73,440.99 498.01,440.99 501.28,440.99 504.56,440.99 507.83,440.99 511.10,440.99 514.38,440.99 517.65,440.99 520.93,440.99 524.20,440.99 527.47,440.99 530.75,440.99 534.02,440.99 537.30,440.99 540.57,440.99 543.85,440.99 547.12,440.99 550.39,440.99 553.67,440.99 556.94,440.99 560.22,440.99 563.49,440.99 566.76,440.99 570.04,440.99 573.31,440.99 576.59,440.99 579.86,440.99 583.14,440.99 586.41,440.99 589.68,440.99 592.96,440.99 596.23,440.99 599.51,440.99 602.78,440.99 606.05,440.99 609.33,440.99 612.60,440.99 615.88,440.99 619.15,440.99 622.42,440.99 625.70,440.99 628.97,440.99 632.25,440.99 635.52,440.99 638.80,440.99 642.07,440.99 645.34,440.99 648.62,440.99 651.89,440.99 655.17,440.99 658.44,440.99 661.71,440.99 664.99,440.99 668.26,440.99 671.54,440.99 674.81,440.99 678.08,440.99 681.36,440.99 684.63,440.99 687.91,440.99 691.18,440.99 694.46,440.99 697.73,440.99 701.00,440.99 704.28,440.99 707.55,440.99 710.83,436.65 714.10,431.64 717.37,425.96 720.65,425.74 723.92,419.26 727.20,416.16 730.47,412.11 733.75,414.54 737.02,405.85 740.29,405.11 743.57,405.77 746.84,406.29 750.12,402.31 753.39,392.36 756.66,393.62 759.94,394.80 763.21,392.73 766.49,397.67 769.76,391.92 773.03,389.86 776.31,394.94 779.58,393.76 782.86,401.28 786.13,402.61 789.41,408.13 792.68,410.05 795.95,398.04 799.23,390.01 802.50,377.78 805.78,378.66 809.05,375.20 812.32,384.33 815.60,378.29 818.87,377.11 822.15,379.84 825.42,376.30 828.69,379.62 831.97,383.67 835.24,390.45 838.52,380.58 841.79,390.45 845.07,391.78 848.34,385.22 851.61,378.81 854.89,378.96 858.16,378.51 861.44,373.85 864.71,368.36 867.98,373.09 871.26,374.00 874.53,373.85 877.81,385.80 881.08,385.57 884.36,375.50 887.63,370.09 890.90,369.71 894.18,368.13 897.45,376.10 900.73,386.33 904.00,387.00" />
<text x="780.00" y="82.00" font-size="14" font-family="Arial" fill="#1f77b4" text-anchor="start">MA200</text>
<polyline fill="none" stroke="#2ca02c" stroke-width="2" points="56.00,440.99 59.27,440.99 62.55,440.99 65.82,440.99 69.10,440.99 72.37,440.99 75.64,440.99 78.92,440.99 82.19,440.99 85.47,440.99 88.74,440.99 92.02,440.99 95.29,440.99 98.56,440.99 101.84,440.99 105.11,440.99 108.39,440.99 111.66,440.99 114.93,440.99 118.21,440.99 121.48,440.99 124.76,440.99 128.03,440.99 131.31,440.99 134.58,440.99 137.85,440.99 141.13,440.99 144.40,440.99 147.68,440.99 150.95,440.99 154.22,440.99 157.50,440.99 160.77,440.99 164.05,440.99 167.32,440.99 170.59,440.99 173.87,440.99 177.14,440.99 180.42,440.99 183.69,440.99 186.97,440.99 190.24,440.99 193.51,440.99 196.79,440.99 200.06,440.99 203.34,440.99 206.61,440.99 209.88,440.99 213.16,440.99 216.43,440.99 219.71,440.99 222.98,440.99 226.25,440.99 229.53,440.99 232.80,440.99 236.08,440.99 239.35,440.99 242.63,440.99 245.90,440.99 249.17,440.99 252.45,439.84 255.72,438.57 259.00,434.10 262.27,434.35 265.54,435.38 268.82,437.67 272.09,436.40 275.37,437.29 278.64,433.59 281.92,434.99 285.19,434.35 288.46,434.10 291.74,435.63 295.01,437.67 298.29,442.14 301.56,437.29 304.83,437.29 308.11,434.48 311.38,431.55 314.66,431.67 317.93,431.80 321.20,429.63 324.48,432.44 327.75,435.25 331.03,430.40 334.30,428.23 337.58,430.65 340.85,428.48 344.12,425.93 347.40,426.95 350.67,427.20 353.95,422.61 357.22,417.76 360.49,415.07 363.77,413.42 367.04,409.84 370.32,407.92 373.59,410.10 376.86,412.52 380.14,408.44 383.41,412.65 386.69,408.82 389.96,409.46 393.24,410.10 396.51,408.31 399.78,412.78 403.06,410.86 406.33,418.78 409.61,419.16 412.88,411.24 416.15,421.33 419.43,421.33 422.70,416.22 425.98,411.50 429.25,407.03 432.53,403.46 435.80,407.92 439.07,409.20 442.35,408.56 445.62,409.97 448.90,406.65 452.17,405.37 455.44,405.63 458.72,402.18 461.99,402.18 465.27,400.90 468.54,403.58 471.81,408.05 475.09,409.46 478.36,410.22 481.64,406.52 484.91,403.20 488.19,402.69 491.46,400.01 494.73,396.82 498.01,395.92 501.28,395.80 504.56,394.77 507.83,396.31 511.10,395.92 514.38,391.71 517.65,394.90 520.93,396.56 524.20,397.58 527.47,396.43 530.75,396.56 534.02,393.24 537.30,394.26 540.57,392.99 543.85,394.77 547.12,392.73 550.39,395.54 553.67,388.39 556.94,384.56 560.22,383.79 563.49,378.94 566.76,376.77 570.04,378.30 573.31,381.50 576.59,385.20 579.86,376.90 583.14,373.45 586.41,379.07 589.68,383.16 592.96,376.52 596.23,372.43 599.51,369.62 602.78,368.22 606.05,363.75 609.33,355.07 612.60,352.77 615.88,354.17 619.15,357.87 622.42,372.81 625.70,361.71 628.97,358.13 632.25,376.26 635.52,368.09 638.80,354.68 642.07,353.28 645.34,352.38 648.62,351.87 651.89,345.49 655.17,338.19 658.44,336.50 661.71,336.76 664.99,345.62 668.26,349.92 671.54,338.71 674.81,338.06 678.08,339.10 681.36,344.19 684.63,356.83 687.91,341.45 691.18,347.18 694.46,340.41 697.73,321.38 701.00,316.43 704.28,309.26 707.55,310.56 710.83,302.88 714.10,294.01 717.37,283.98 720.65,283.59 723.92,272.12 727.20,266.65 730.47,259.48 733.75,263.78 737.02,248.40 740.29,247.10 743.57,248.27 746.84,249.19 750.12,242.15 753.39,224.56 756.66,226.77 759.94,228.86 763.21,225.21 766.49,233.94 769.76,223.77 773.03,220.13 776.31,229.12 779.58,227.03 782.86,240.32 786.13,242.67 789.41,252.44 792.68,255.83 795.95,234.59 799.23,220.39 802.50,198.75 805.78,200.32 809.05,194.19 812.32,210.35 815.60,199.67 818.87,197.58 822.15,202.40 825.42,196.15 828.69,202.01 831.97,209.18 835.24,221.17 838.52,203.71 841.79,221.17 845.07,223.51 848.34,211.92 851.61,200.58 854.89,200.84 858.16,200.05 861.44,191.80 864.71,182.09 867.98,190.47 871.26,192.07 874.53,191.80 877.81,212.94 881.08,212.55 884.36,194.73 887.63,185.15 890.90,184.49 894.18,181.70 897.45,195.79 900.73,213.88 904.00,215.07" />
<text x="780.00" y="104.00" font-size="14" font-family="Arial" fill="#2ca02c" text-anchor="start">MA20x60</text>
</svg>