<svg xmlns="http://www.w3.org/2000/svg" width="960" height="520" viewBox="0 0 960 520"><rect width="100%" height="100%" fill="white" />
<text x="56.00" y="32.00" font-size="20" font-family="Arial" fill="#1f2933" text-anchor="start">聯電(2303) Backtest Equity Curves</text>
<line x1="56" y1="464" x2="904" y2="464" stroke="#cbd2d9" />
<line x1="56" y1="56" x2="56" y2="464" stroke="#cbd2d9" />
<text x="16.00" y="38.00" font-size="12" font-family="Arial" fill="#52606d" text-anchor="start">Equity Multiple</text>
<line x1="56" y1="464.00" x2="904" y2="464.00" stroke="#edf2f7" />
<line x1="52" y1="464.00" x2="56" y2="464.00" stroke="#9fb3c8" />
<text x="48.00" y="468.00" font-size="11" font-family="Arial" fill="#52606d" text-anchor="end">0.73</text>
<line x1="56" y1="362.00" x2="904" y2="362.00" stroke="#edf2f7" />
<line x1="52" y1="362.00" x2="56" y2="362.00" stroke="#9fb3c8" />
<text x="48.00" y="366.00" font-size="11" font-family="Arial" fill="#52606d" text-anchor="end">1.60</text>
<line x1="56" y1="260.00" x2="904" y2="260.00" stroke="#edf2f7" />
<line x1="52" y1="260.00" x2="56" y2="260.00" stroke="#9fb3c8" />
<text x="48.00" y="264.00" font-size="11" font-family="Arial" fill="#52606d" text-anchor="end">2.48</text>
<line x1="56" y1="158.00" x2="904" y2="158.00" stroke="#edf2f7" />
<line x1="52" y1="158.00" x2="56" y2="158.00" stroke="#9fb3c8" />
<text x="48.00" y="162.00" font-size="11" font-family="Arial" fill="#52606d" text-anchor="end">3.35</text>
<line x1="56" y1="56.00" x2="904" y2="56.00" stroke="#edf2f7" />
<line x1="52" y1="56.00" x2="56" y2="56.00" stroke="#9fb3c8" />
<text x="48.00" y="60.00" font-size="11" font-family="Arial" fill="#52606d" text-anchor="end">4.23</text>
<line x1="56.00" y1="464" x2="56.00" y2="468" stroke="#9fb3c8" />
<text x="56.00" y="482.00" font-size="11" font-family="Arial" fill="#52606d" text-anchor="middle">06/30</text>
<line x1="226.25" y1="464" x2="226.25" y2="468" stroke="#9fb3c8" />
<text x="226.25" y="482.00" font-size="11" font-family="Arial" fill="#52606d" text-anchor="middle">09/11</text>
<line x1="396.51" y1="464" x2="396.51" y2="468" stroke="#9fb3c8" />
<text x="396.51" y="482.00" font-size="11" font-family="Arial" fill="#52606d" text-anchor="middle">11/28</text>
<line x1="563.49" y1="464" x2="563.49" y2="468" stroke="#9fb3c8" />
<text x="563.49" y="482.00" font-size="11" font-family="Arial" fill="#52606d" text-anchor="middle">02/11</text>
<line x1="733.75" y1="464" x2="733.75" y2="468" stroke="#9fb3c8" />
<text x="733.75" y="482.00" font-size="11" font-family="Arial" fill="#52606d" text-anchor="middle">05/11</text>
<line x1="904.00" y1="464" x2="904.00" y2="468" stroke="#9fb3c8" />
<text x="904.00" y="482.00" font-size="11" font-family="Arial" fill="#52606d" text-anchor="middle">07/23</text>
<polyline fill="none" stroke="#7f7f7f" stroke-width="2" points="56.00,432.12 59.27,432.78 62.55,431.46 65.82,431.59 69.10,433.31 72.37,434.10 75.64,433.44 78.92,432.91 82.19,433.44 85.47,434.63 88.74,434.89 92.02,433.83 95.29,434.10 98.56,433.83 101.84,434.10 105.11,433.97 108.39,435.28 111.66,432.91 114.93,433.97 118.21,433.97 121.48,433.97 124.76,435.81 128.03,436.47 131.31,439.11 134.58,440.03 137.85,439.51 141.13,441.35 144.40,442.14 147.68,441.88 150.95,442.14 154.22,441.48 157.50,441.22 160.77,441.09 164.05,440.03 167.32,442.14 170.59,440.43 173.87,438.19 177.14,439.51 180.42,441.62 183.69,441.75 186.97,438.45 190.24,440.69 193.51,441.62 196.79,441.88 200.06,441.22 203.34,440.82 206.61,440.82 209.88,437.92 213.16,440.03 216.43,438.98 219.71,439.37 222.98,439.90 226.25,440.82 229.53,440.16 232.80,440.30 236.08,440.43 239.35,439.37 242.63,438.45 245.90,434.63 249.17,435.15 252.45,432.91 255.72,430.40 259.00,431.86 262.27,430.40 265.54,428.56 268.82,431.99 272.09,433.17 275.37,433.04 278.64,431.86 281.92,430.14 285.19,428.29 288.46,428.82 291.74,430.40 295.01,431.33 298.29,430.27 301.56,428.03 304.83,427.11 308.11,428.82 311.38,428.69 314.66,428.95 317.93,428.43 321.20,427.37 324.48,428.43 327.75,427.77 331.03,426.32 334.30,423.15 337.58,423.68 340.85,424.47 344.12,427.90 347.40,430.01 350.67,429.48 353.95,429.35 357.22,430.01 360.49,431.46 363.77,432.25 367.04,433.04 370.32,432.12 373.59,431.72 376.86,430.93 380.14,430.01 383.41,425.92 386.69,429.75 389.96,428.82 393.24,427.50 396.51,427.90 399.78,426.05 403.06,424.21 406.33,423.41 409.61,422.10 412.88,419.72 416.15,418.67 419.43,417.87 422.70,418.53 425.98,420.38 429.25,419.99 432.53,419.85 435.80,418.93 439.07,415.76 442.35,416.03 445.62,414.97 448.90,414.45 452.17,416.82 455.44,417.74 458.72,416.95 461.99,417.74 465.27,418.14 468.54,418.80 471.81,420.25 475.09,420.78 478.36,418.93 481.64,406.00 484.91,409.43 488.19,403.37 491.46,402.84 494.73,403.89 498.01,406.27 501.28,404.42 504.56,394.40 507.83,383.85 511.10,369.87 514.38,368.28 517.65,370.39 520.93,377.78 524.20,365.91 527.47,347.71 530.75,348.50 534.02,368.28 537.30,384.11 540.57,388.59 543.85,388.33 547.12,385.69 550.39,386.48 553.67,385.43 556.94,384.11 560.22,384.11 563.49,383.06 566.76,380.15 570.04,370.66 573.31,375.93 576.59,376.20 579.86,378.57 583.14,383.58 586.41,390.44 589.68,384.90 592.96,385.17 596.23,391.23 599.51,389.39 602.78,384.64 606.05,388.86 609.33,391.76 612.60,389.12 615.88,388.59 619.15,387.54 622.42,393.87 625.70,396.24 628.97,399.15 632.25,399.67 635.52,392.82 638.80,395.19 642.07,396.24 645.34,398.35 648.62,399.67 651.89,397.30 655.17,407.32 658.44,394.93 661.71,389.65 664.99,390.44 668.26,385.17 671.54,390.18 674.81,391.23 678.08,384.90 681.36,368.55 684.63,356.15 687.91,345.86 691.18,347.71 694.46,341.38 697.73,354.57 701.00,352.19 704.28,356.94 707.55,350.61 710.83,352.19 714.10,344.81 717.37,334.52 720.65,329.51 723.92,307.61 727.20,294.16 730.47,307.88 733.75,298.12 737.02,273.06 740.29,289.15 743.57,263.82 746.84,258.55 750.12,255.91 753.39,250.64 756.66,263.82 759.94,242.72 763.21,248.00 766.49,218.98 769.76,204.47 773.03,170.18 776.31,174.14 779.58,167.54 782.86,163.59 786.13,175.46 789.41,204.47 792.68,218.98 795.95,201.84 799.23,229.53 802.50,212.39 805.78,236.13 809.05,218.98 812.32,196.56 815.60,175.46 818.87,176.78 822.15,179.41 825.42,164.91 828.69,126.66 831.97,100.28 835.24,79.18 838.52,77.86 841.79,116.11 845.07,116.11 848.34,114.79 851.61,102.92 854.89,112.15 858.16,98.96 861.44,110.83 864.71,139.85 867.98,111.39 871.26,130.17 874.53,130.17 877.81,136.87 881.08,143.58 884.36,103.34 887.63,119.43 890.90,162.36 894.18,199.92 897.45,187.85 900.73,175.78 904.00,177.12" />
<text x="780.00" y="60.00" font-size="14" font-family="Arial" fill="#7f7f7f" text-anchor="start">BuyHold</text>
<polyline fill="none" stroke="#1f77b4" stroke-width="2" points="56.00,432.12 59.27,432.12 62.55,432.12 65.82,432.12 69.10,432.12 72.37,432.12 75.64,432.12 78.92,432.12 82.19,432.12 85.47,432.12 88.74,432.12 92.02,432.12 95.29,432.12 98.56,432.12 101.84,432.12 105.11,432.12 108.39,432.12 111.66,432.12 114.93,432.12 118.21,432.12 121.48,432.12 124.76,432.12 128.03,432.12 131.31,432.12 134.58,432.12 137.85,432.12 141.13,432.12 144.40,432.12 147.68,432.12 150.95,432.12 154.22,432.12 157.50,432.12 160.77,432.12 164.05,432.12 167.32,432.12 170.59,432.12 173.87,432.12 177.14,432.12 180.42,432.12 183.69,432.12 186.97,432.12 190.24,432.12 193.51,432.12 196.79,432.12 200.06,432.12 203.34,432.12 206.61,432.12 209.88,432.12 213.16,432.12 216.43,432.12 219.71,432.12 222.98,432.12 226.25,432.12 229.53,432.12 232.80,432.12 236.08,432.12 239.35,432.12 242.63,432.12 245.90,432.12 249.17,432.12 252.45,432.12 255.72,432.12 259.00,432.12 262.27,432.12 265.54,432.12 268.82,432.12 272.09,432.12 275.37,432.12 278.64,432.12 281.92,432.12 285.19,432.12 288.46,432.12 291.74,432.12 295.01,432.12 298.29,432.12 301.56,432.12 304.83,432.12 308.11,432.12 311.38,432.12 314.66,432.12 317.93,432.12 321.20,432.12 324.48,432.12 327.75,432.12 331.03,432.12 334.30,432.12 337.58,432.12 340.85,432.12 344.12,432.12 347.40,432.12 350.67,432.12 353.95,432.12 357.22,432.12 360.49,432.12 363.77,432.12 367.04,432.12 370.32,432.12 373.59,432.12 376.86,432.12 380.14,432.12 383.41,432.12 386.69,432.12 389.96,432.12 393.24,432.12 396.51,432.12 399.78,432.12 403.06,432.12 406.33,432.12 409.61,432.12 412.88,432.12 416.15,432.12 419.43,432.12 422.70,432.12 425.98,432.12 429.25,432.12 432.53,432.12 435.80,432.12 439.07,432.12 442.35,432.12 445.62,432.12 448.90,432.12 452.17,432.12 455.44,432.12 458.72,432.12 461.99,432.12 465.27,432.12 468.54,432.12 471.81,432.12 475.09,432.12 478.36,432.12 481.64,432.12 484.91,432.12 488.19,432.12 491.46,432.12 494.73,432.12 498.01,432.12 501.28,432.12 504.56,432.12 507.83,432.12 511.10,432.12 514.38,432.12 517.65,432.12 520.93,432.12 524.20,432.12 527.47,432.12 530.75,432.12 534.02,432.12 537.30,432.12 540.57,432.12 543.85,432.12 547.12,432.12 550.39,432.12 553.67,432.12 556.94,432.12 560.22,432.12 563.49,432.12 566.76,432.12 570.04,432.12 573.31,432.12 576.59,432.12 579.86,432.12 583.14,432.12 586.41,432.12 589.68,432.12 592.96,432.12 596.23,432.12 599.51,432.12 602.78,432.12 606.05,432.12 609.33,432.12 612.60,432.12 615.88,432.12 619.15,432.12 622.42,432.12 625.70,432.12 628.97,432.12 632.25,432.12 635.52,432.12 638.80,432.12 642.07,432.12 645.34,432.12 648.62,432.12 651.89,432.12 655.17,432.12 658.44,432.12 661.71,432.12 664.99,432.12 668.26,432.12 671.54,432.12 674.81,432.12 678.08,432.12 681.36,432.12 684.63,432.12 687.91,432.12 691.18,432.12 694.46,432.12 697.73,432.12 701.00,432.12 704.28,432.12 707.55,432.12 710.83,433.05 714.10,428.70 717.37,422.65 720.65,419.70 723.92,406.81 727.20,398.90 730.47,406.97 733.75,401.22 737.02,386.48 740.29,395.95 743.57,381.04 746.84,377.94 750.12,376.38 753.39,373.28 756.66,381.04 759.94,368.62 763.21,371.73 766.49,354.65 769.76,346.11 773.03,325.93 776.31,328.26 779.58,324.38 782.86,322.05 786.13,329.03 789.41,346.11 792.68,354.65 795.95,344.56 799.23,360.86 802.50,350.77 805.78,364.74 809.05,354.65 812.32,341.45 815.60,329.03 818.87,329.81 822.15,331.36 825.42,322.82 828.69,300.31 831.97,284.79 835.24,272.37 838.52,271.59 841.79,294.10 845.07,294.10 848.34,293.33 851.61,286.34 854.89,291.77 858.16,284.01 861.44,291.00 864.71,308.07 867.98,291.32 871.26,302.38 874.53,302.38 877.81,306.32 881.08,310.27 884.36,286.59 887.63,296.06 890.90,321.33 894.18,343.43 897.45,336.33 900.73,329.22 904.00,330.01" />
<text x="780.00" y="82.00" font-size="14" font-family="Arial" fill="#1f77b4" text-anchor="start">MA200</text>
<polyline fill="none" stroke="#2ca02c" stroke-width="2" points="56.00,432.12 59.27,432.12 62.55,432.12 65.82,432.12 69.10,432.12 72.37,432.12 75.64,432.12 78.92,432.12 82.19,432.12 85.47,432.12 88.74,432.12 92.02,432.12 95.29,432.12 98.56,432.12 101.84,432.12 105.11,432.12 108.39,432.12 111.66,432.12 114.93,432.12 118.21,432.12 121.48,432.12 124.76,432.12 128.03,432.12 131.31,432.12 134.58,432.12 137.85,432.12 141.13,432.12 144.40,432.12 147.68,432.12 150.95,432.12 154.22,432.12 157.50,432.12 160.77,432.12 164.05,432.12 167.32,432.12 170.59,432.12 173.87,432.12 177.14,432.12 180.42,432.12 183.69,432.12 186.97,432.12 190.24,432.12 193.51,432.12 196.79,432.12 200.06,432.12 203.34,432.12 206.61,432.12 209.88,432.12 213.16,432.12 216.43,432.12 219.71,432.12 222.98,432.12 226.25,432.12 229.53,432.12 232.80,432.12 236.08,432.12 239.35,432.12 242.63,432.12 245.90,432.12 249.17,432.12 252.45,432.12 255.72,432.12 259.00,432.12 262.27,432.12 265.54,432.12 268.82,435.45 272.09,436.60 275.37,436.47 278.64,435.32 281.92,433.65 285.19,431.86 288.46,432.38 291.74,433.91 295.01,434.81 298.29,433.78 301.56,431.61 304.83,430.71 308.11,432.38 311.38,432.25 314.66,432.50 317.93,431.99 321.20,430.97 324.48,431.99 327.75,431.35 331.03,429.94 334.30,426.87 337.58,427.38 340.85,428.15 344.12,431.48 347.40,433.53 350.67,433.01 353.95,432.89 357.22,433.53 360.49,434.93 363.77,435.70 367.04,436.47 370.32,435.57 373.59,435.19 376.86,434.42 380.14,433.53 383.41,429.56 386.69,433.27 389.96,432.38 393.24,431.10 396.51,431.48 399.78,429.69 403.06,427.90 406.33,427.13 409.61,425.85 412.88,423.54 416.15,422.52 419.43,421.75 422.70,422.39 425.98,424.18 429.25,423.80 432.53,423.67 435.80,422.78 439.07,419.70 442.35,419.96 445.62,418.94 448.90,418.42 452.17,420.73 455.44,421.62 458.72,420.86 461.99,421.62 465.27,422.01 468.54,422.65 471.81,424.06 475.09,424.57 478.36,422.78 481.64,410.23 484.91,413.56 488.19,407.67 491.46,407.16 494.73,408.19 498.01,410.49 501.28,408.70 504.56,398.97 507.83,388.73 511.10,375.17 514.38,373.63 517.65,375.68 520.93,382.85 524.20,371.33 527.47,353.67 530.75,354.43 534.02,373.63 537.30,388.99 540.57,393.34 543.85,393.08 547.12,390.52 550.39,391.29 553.67,390.27 556.94,388.99 560.22,388.99 563.49,387.96 566.76,385.15 570.04,375.93 573.31,381.05 576.59,381.31 579.86,383.61 583.14,388.48 586.41,395.13 589.68,389.76 592.96,390.01 596.23,395.90 599.51,394.11 602.78,389.50 606.05,393.60 609.33,396.41 612.60,393.85 615.88,393.34 619.15,392.32 622.42,398.46 625.70,400.76 628.97,403.58 632.25,404.09 635.52,397.44 638.80,399.74 642.07,400.76 645.34,402.81 648.62,402.81 651.89,402.81 655.17,402.81 658.44,402.81 661.71,402.81 664.99,402.81 668.26,402.81 671.54,402.81 674.81,402.81 678.08,402.81 681.36,402.81 684.63,402.81 687.91,402.81 691.18,402.81 694.46,402.81 697.73,402.81 701.00,401.03 704.28,404.60 707.55,399.84 710.83,401.03 714.10,395.48 717.37,387.75 720.65,383.98 723.92,367.53 727.20,357.42 730.47,367.72 733.75,360.39 737.02,341.56 740.29,353.65 743.57,334.62 746.84,330.65 750.12,328.67 753.39,324.71 756.66,334.62 759.94,318.76 763.21,322.72 766.49,300.92 769.76,290.02 773.03,264.25 776.31,267.22 779.58,262.26 782.86,259.29 786.13,268.21 789.41,290.02 792.68,300.92 795.95,288.03 799.23,308.85 802.50,295.96 805.78,313.80 809.05,300.92 812.32,284.07 815.60,268.21 818.87,269.20 822.15,271.18 825.42,260.28 828.69,231.54 831.97,211.71 835.24,195.85 838.52,194.86 841.79,223.61 845.07,223.61 848.34,222.62 851.61,213.70 854.89,220.63 858.16,210.72 861.44,219.64 864.71,241.45 867.98,220.06 871.26,234.17 874.53,234.17 877.81,239.21 881.08,244.25 884.36,214.01 887.63,226.11 890.90,258.37 894.18,286.60 897.45,277.52 900.73,268.45 904.00,269.46" />
<text x="780.00" y="104.00" font-size="14" font-family="Arial" fill="#2ca02c" text-anchor="start">MA20x60</text>
</svg>