<svg xmlns="http://www.w3.org/2000/svg" width="960" height="520" viewBox="0 0 960 520"><rect width="100%" height="100%" fill="white" />
<text x="56.00" y="32.00" font-size="20" font-family="Arial" fill="#1f2933" text-anchor="start">台達電(2308) Backtest Equity Curves</text>
<line x1="56" y1="464" x2="904" y2="464" stroke="#cbd2d9" />
<line x1="56" y1="56" x2="56" y2="464" stroke="#cbd2d9" />
<text x="16.00" y="38.00" font-size="12" font-family="Arial" fill="#52606d" text-anchor="start">Equity Multiple</text>
<line x1="56" y1="464.00" x2="904" y2="464.00" stroke="#edf2f7" />
<line x1="52" y1="464.00" x2="56" y2="464.00" stroke="#9fb3c8" />
<text x="48.00" y="468.00" font-size="11" font-family="Arial" fill="#52606d" text-anchor="end">0.67</text>
<line x1="56" y1="362.00" x2="904" y2="362.00" stroke="#edf2f7" />
<line x1="52" y1="362.00" x2="56" y2="362.00" stroke="#9fb3c8" />
<text x="48.00" y="366.00" font-size="11" font-family="Arial" fill="#52606d" text-anchor="end">2.20</text>
<line x1="56" y1="260.00" x2="904" y2="260.00" stroke="#edf2f7" />
<line x1="52" y1="260.00" x2="56" y2="260.00" stroke="#9fb3c8" />
<text x="48.00" y="264.00" font-size="11" font-family="Arial" fill="#52606d" text-anchor="end">3.72</text>
<line x1="56" y1="158.00" x2="904" y2="158.00" stroke="#edf2f7" />
<line x1="52" y1="158.00" x2="56" y2="158.00" stroke="#9fb3c8" />
<text x="48.00" y="162.00" font-size="11" font-family="Arial" fill="#52606d" text-anchor="end">5.25</text>
<line x1="56" y1="56.00" x2="904" y2="56.00" stroke="#edf2f7" />
<line x1="52" y1="56.00" x2="56" y2="56.00" stroke="#9fb3c8" />
<text x="48.00" y="60.00" font-size="11" font-family="Arial" fill="#52606d" text-anchor="end">6.77</text>
<line x1="56.00" y1="464" x2="56.00" y2="468" stroke="#9fb3c8" />
<text x="56.00" y="482.00" font-size="11" font-family="Arial" fill="#52606d" text-anchor="middle">06/13</text>
<line x1="226.25" y1="464" x2="226.25" y2="468" stroke="#9fb3c8" />
<text x="226.25" y="482.00" font-size="11" font-family="Arial" fill="#52606d" text-anchor="middle">08/27</text>
<line x1="396.51" y1="464" x2="396.51" y2="468" stroke="#9fb3c8" />
<text x="396.51" y="482.00" font-size="11" font-family="Arial" fill="#52606d" text-anchor="middle">11/13</text>
<line x1="563.49" y1="464" x2="563.49" y2="468" stroke="#9fb3c8" />
<text x="563.49" y="482.00" font-size="11" font-family="Arial" fill="#52606d" text-anchor="middle">01/27</text>
<line x1="733.75" y1="464" x2="733.75" y2="468" stroke="#9fb3c8" />
<text x="733.75" y="482.00" font-size="11" font-family="Arial" fill="#52606d" text-anchor="middle">04/23</text>
<line x1="904.00" y1="464" x2="904.00" y2="468" stroke="#9fb3c8" />
<text x="904.00" y="482.00" font-size="11" font-family="Arial" fill="#52606d" text-anchor="middle">07/08</text>
<polyline fill="none" stroke="#7f7f7f" stroke-width="2" points="56.00,442.14 59.27,441.72 62.55,441.47 65.82,440.52 69.10,439.93 72.37,440.61 75.64,440.61 78.92,437.70 82.19,436.59 85.47,437.19 88.74,436.50 92.02,438.39 95.29,435.82 98.56,435.56 101.84,430.51 105.11,430.86 108.39,432.05 111.66,431.80 114.93,431.88 118.21,426.49 121.48,426.41 124.76,428.12 128.03,424.53 131.31,423.50 134.58,423.67 137.85,421.96 141.13,420.93 144.40,421.27 147.68,420.08 150.95,420.42 154.22,420.59 157.50,419.73 160.77,419.22 164.05,418.37 167.32,412.03 170.59,407.59 173.87,400.91 177.14,402.80 180.42,402.45 183.69,400.06 186.97,399.89 190.24,399.20 193.51,393.56 196.79,394.41 200.06,391.67 203.34,391.33 206.61,395.95 209.88,402.11 213.16,398.18 216.43,395.44 219.71,393.38 222.98,391.84 226.25,385.86 229.53,387.74 232.80,387.40 236.08,391.33 239.35,391.84 242.63,392.70 245.90,390.82 249.17,384.83 252.45,384.83 255.72,374.90 259.00,365.84 262.27,366.86 265.54,365.84 268.82,366.01 272.09,365.15 275.37,366.01 278.64,356.42 281.92,357.11 285.19,353.86 288.46,356.25 291.74,356.60 295.01,357.79 298.29,363.95 301.56,362.93 304.83,360.02 308.11,356.08 311.38,347.87 314.66,340.17 317.93,341.20 321.20,338.12 324.48,332.81 327.75,339.31 331.03,335.38 334.30,333.67 337.58,338.12 340.85,335.38 344.12,334.52 347.40,334.52 350.67,336.23 353.95,325.97 357.22,325.11 360.49,327.68 363.77,336.23 367.04,338.80 370.32,340.85 373.59,342.22 376.86,343.59 380.14,341.71 383.41,343.93 386.69,341.02 389.96,342.74 393.24,343.59 396.51,345.13 399.78,351.29 403.06,352.32 406.33,355.40 409.61,356.08 412.88,345.82 416.15,355.91 419.43,356.25 422.70,353.34 425.98,347.36 429.25,347.87 432.53,349.58 435.80,342.56 439.07,339.83 442.35,338.46 445.62,338.12 448.90,341.54 452.17,341.54 455.44,342.91 458.72,343.42 461.99,347.36 465.27,348.55 468.54,351.29 471.81,354.88 475.09,356.77 478.36,356.60 481.64,353.17 484.91,345.99 488.19,347.70 491.46,345.64 494.73,345.47 498.01,344.45 501.28,344.62 504.56,344.28 507.83,338.80 511.10,336.23 514.38,329.39 517.65,332.81 520.93,336.23 524.20,335.38 527.47,328.53 530.75,332.81 534.02,327.68 537.30,330.24 540.57,316.56 543.85,317.41 547.12,315.70 550.39,314.84 553.67,296.02 556.94,293.46 560.22,298.59 563.49,295.17 566.76,290.03 570.04,294.31 573.31,300.30 576.59,308.00 579.86,301.16 583.14,302.01 586.41,312.28 589.68,310.57 592.96,307.14 596.23,306.29 599.51,293.46 602.78,285.76 606.05,272.07 609.33,263.51 612.60,264.37 615.88,265.22 619.15,279.77 622.42,294.31 625.70,280.62 628.97,283.19 632.25,300.30 635.52,288.32 638.80,269.50 642.07,274.63 645.34,272.07 648.62,276.34 651.89,262.66 655.17,258.38 658.44,260.09 661.71,256.67 664.99,267.79 668.26,266.93 671.54,243.83 674.81,249.82 678.08,250.68 681.36,254.96 684.63,272.92 687.91,256.67 691.18,264.37 694.46,249.82 697.73,224.16 701.00,227.58 704.28,212.18 707.55,211.32 710.83,209.61 714.10,203.62 717.37,193.36 720.65,194.21 723.92,183.95 727.20,164.27 730.47,164.27 733.75,170.26 737.02,154.00 740.29,163.41 743.57,145.45 746.84,138.60 750.12,138.60 753.39,129.19 756.66,138.60 759.94,130.90 763.21,118.92 766.49,132.61 769.76,124.91 773.03,133.47 776.31,138.60 779.58,140.31 782.86,154.00 786.13,163.41 789.41,181.38 792.68,181.38 795.95,161.70 799.23,150.58 802.50,117.21 805.78,106.95 809.05,77.86 812.32,100.10 815.60,90.69 818.87,94.97 822.15,105.23 825.42,88.98 828.69,94.11 831.97,115.50 835.24,123.20 838.52,95.82 841.79,132.61 845.07,139.46 848.34,130.05 851.61,130.90 854.89,127.48 858.16,138.38 861.44,139.24 864.71,139.24 867.98,151.28 871.26,165.04 874.53,168.48 877.81,197.73 881.08,181.39 884.36,173.65 887.63,166.76 890.90,170.21 894.18,152.14 897.45,165.90 900.73,183.97 904.00,184.83" />
<text x="780.00" y="60.00" font-size="14" font-family="Arial" fill="#7f7f7f" text-anchor="start">BuyHold</text>
<polyline fill="none" stroke="#1f77b4" stroke-width="2" points="56.00,442.14 59.27,442.14 62.55,442.14 65.82,442.14 69.10,442.14 72.37,442.14 75.64,442.14 78.92,442.14 82.19,442.14 85.47,442.14 88.74,442.14 92.02,442.14 95.29,442.14 98.56,442.14 101.84,442.14 105.11,442.14 108.39,442.14 111.66,442.14 114.93,442.14 118.21,442.14 121.48,442.14 124.76,442.14 128.03,442.14 131.31,442.14 134.58,442.14 137.85,442.14 141.13,442.14 144.40,442.14 147.68,442.14 150.95,442.14 154.22,442.14 157.50,442.14 160.77,442.14 164.05,442.14 167.32,442.14 170.59,442.14 173.87,442.14 177.14,442.14 180.42,442.14 183.69,442.14 186.97,442.14 190.24,442.14 193.51,442.14 196.79,442.14 200.06,442.14 203.34,442.14 206.61,442.14 209.88,442.14 213.16,442.14 216.43,442.14 219.71,442.14 222.98,442.14 226.25,442.14 229.53,442.14 232.80,442.14 236.08,442.14 239.35,442.14 242.63,442.14 245.90,442.14 249.17,442.14 252.45,442.14 255.72,442.14 259.00,442.14 262.27,442.14 265.54,442.14 268.82,442.14 272.09,442.14 275.37,442.14 278.64,442.14 281.92,442.14 285.19,442.14 288.46,442.14 291.74,442.14 295.01,442.14 298.29,442.14 301.56,442.14 304.83,442.14 308.11,442.14 311.38,442.14 314.66,442.14 317.93,442.14 321.20,442.14 324.48,442.14 327.75,442.14 331.03,442.14 334.30,442.14 337.58,442.14 340.85,442.14 344.12,442.14 347.40,442.14 350.67,442.14 353.95,442.14 357.22,442.14 360.49,442.14 363.77,442.14 367.04,442.14 370.32,442.14 373.59,442.14 376.86,442.14 380.14,442.14 383.41,442.14 386.69,442.14 389.96,442.14 393.24,442.14 396.51,442.14 399.78,442.14 403.06,442.14 406.33,442.14 409.61,442.14 412.88,442.14 416.15,442.14 419.43,442.14 422.70,442.14 425.98,442.14 429.25,442.14 432.53,442.14 435.80,442.14 439.07,442.14 442.35,442.14 445.62,442.14 448.90,442.14 452.17,442.14 455.44,442.14 458.72,442.14 461.99,442.14 465.27,442.14 468.54,442.14 471.81,442.14 475.09,442.14 478.36,442.14 481.64,442.14 484.91,442.14 488.19,442.14 491.46,442.14 494.73,442.14 498.01,442.14 501.28,442.14 504.56,442.14 507.83,442.14 511.10,442.14 514.38,442.14 517.65,442.14 520.93,442.14 524.20,442.14 527.47,442.14 530.75,442.14 534.02,442.14 537.30,442.14 540.57,442.14 543.85,442.14 547.12,442.14 550.39,442.14 553.67,442.14 556.94,442.14 560.22,442.14 563.49,442.14 566.76,442.14 570.04,442.14 573.31,442.14 576.59,442.14 579.86,442.14 583.14,442.14 586.41,442.14 589.68,442.14 592.96,442.14 596.23,442.14 599.51,442.14 602.78,442.14 606.05,442.14 609.33,442.14 612.60,442.14 615.88,442.14 619.15,442.14 622.42,442.14 625.70,442.14 628.97,442.14 632.25,442.14 635.52,442.14 638.80,442.14 642.07,442.14 645.34,442.14 648.62,442.14 651.89,442.14 655.17,442.14 658.44,442.14 661.71,442.14 664.99,442.14 668.26,442.14 671.54,442.14 674.81,442.14 678.08,442.14 681.36,442.14 684.63,442.14 687.91,442.14 691.18,442.14 694.46,442.14 697.73,442.14 701.00,442.14 704.28,442.14 707.55,442.14 710.83,441.76 714.10,440.41 717.37,438.11 720.65,438.30 723.92,435.99 727.20,431.57 730.47,431.57 733.75,432.91 737.02,429.26 740.29,431.38 743.57,427.34 746.84,425.80 750.12,425.80 753.39,423.68 756.66,425.80 759.94,424.07 763.21,421.38 766.49,424.45 769.76,422.72 773.03,424.65 776.31,425.80 779.58,426.18 782.86,429.26 786.13,431.38 789.41,435.41 792.68,435.41 795.95,430.99 799.23,428.49 802.50,420.99 805.78,418.69 809.05,412.15 812.32,417.15 815.60,415.03 818.87,415.99 822.15,418.30 825.42,414.65 828.69,415.80 831.97,420.61 835.24,422.34 838.52,416.19 841.79,424.45 845.07,425.99 848.34,423.88 851.61,424.07 854.89,423.30 858.16,425.75 861.44,425.94 864.71,425.94 867.98,428.65 871.26,431.74 874.53,432.52 877.81,439.09 881.08,435.41 884.36,433.68 887.63,432.13 890.90,432.90 894.18,428.84 897.45,431.94 900.73,435.99 904.00,436.19" />
<text x="780.00" y="82.00" font-size="14" font-family="Arial" fill="#1f77b4" text-anchor="start">MA200</text>
<polyline fill="none" stroke="#2ca02c" stroke-width="2" points="56.00,442.14 59.27,442.14 62.55,442.14 65.82,442.14 69.10,442.14 72.37,442.14 75.64,442.14 78.92,442.14 82.19,442.14 85.47,442.14 88.74,442.14 92.02,442.14 95.29,442.14 98.56,442.14 101.84,442.14 105.11,442.14 108.39,442.14 111.66,442.14 114.93,442.14 118.21,442.14 121.48,442.14 124.76,442.14 128.03,442.14 131.31,442.14 134.58,442.14 137.85,442.14 141.13,442.14 144.40,442.14 147.68,442.14 150.95,442.14 154.22,442.14 157.50,442.14 160.77,442.14 164.05,442.14 167.32,442.14 170.59,442.14 173.87,442.14 177.14,442.14 180.42,442.14 183.69,442.14 186.97,442.14 190.24,442.14 193.51,442.14 196.79,442.14 200.06,442.14 203.34,442.14 206.61,442.14 209.88,442.14 213.16,442.14 216.43,442.14 219.71,442.14 222.98,442.14 226.25,442.14 229.53,442.14 232.80,442.14 236.08,442.14 239.35,442.14 242.63,442.14 245.90,442.14 249.17,442.14 252.45,442.14 255.72,436.80 259.00,431.91 262.27,432.47 265.54,431.91 268.82,432.00 272.09,431.54 275.37,432.00 278.64,426.84 281.92,427.21 285.19,425.46 288.46,426.75 291.74,426.94 295.01,427.58 298.29,430.90 301.56,430.35 304.83,428.78 308.11,426.66 311.38,422.24 314.66,418.09 317.93,418.64 321.20,416.98 324.48,414.12 327.75,417.63 331.03,415.51 334.30,414.59 337.58,416.98 340.85,415.51 344.12,415.05 347.40,415.05 350.67,415.97 353.95,410.44 357.22,409.98 360.49,411.36 363.77,415.97 367.04,417.35 370.32,418.46 373.59,419.19 376.86,419.93 380.14,418.92 383.41,420.12 386.69,418.55 389.96,419.47 393.24,419.93 396.51,420.76 399.78,424.08 403.06,424.63 406.33,426.29 409.61,426.66 412.88,421.13 416.15,426.57 419.43,426.75 422.70,425.18 425.98,421.96 429.25,422.24 432.53,423.16 435.80,419.38 439.07,417.90 442.35,417.17 445.62,416.98 448.90,418.83 452.17,418.83 455.44,418.83 458.72,418.83 461.99,418.83 465.27,418.83 468.54,418.83 471.81,418.83 475.09,418.83 478.36,418.83 481.64,418.83 484.91,418.83 488.19,418.83 491.46,418.83 494.73,418.83 498.01,418.83 501.28,418.83 504.56,418.83 507.83,418.83 511.10,418.83 514.38,418.83 517.65,418.83 520.93,418.83 524.20,418.83 527.47,418.83 530.75,418.83 534.02,418.83 537.30,420.10 540.57,413.29 543.85,413.72 547.12,412.87 550.39,412.44 553.67,403.08 556.94,401.80 560.22,404.35 563.49,402.65 566.76,400.10 570.04,402.23 573.31,405.21 576.59,409.04 579.86,405.63 583.14,406.06 586.41,411.16 589.68,410.31 592.96,408.61 596.23,408.18 599.51,401.80 602.78,397.97 606.05,391.16 609.33,386.90 612.60,387.33 615.88,387.76 619.15,394.99 622.42,402.23 625.70,395.42 628.97,396.69 632.25,405.21 635.52,399.25 638.80,389.88 642.07,392.44 645.34,391.16 648.62,393.29 651.89,386.48 655.17,384.35 658.44,385.20 661.71,383.50 664.99,389.03 668.26,388.61 671.54,377.12 674.81,380.09 678.08,380.52 681.36,382.65 684.63,391.59 687.91,383.50 691.18,387.33 694.46,380.09 697.73,367.33 701.00,369.03 704.28,361.37 707.55,360.94 710.83,360.09 714.10,357.11 717.37,352.00 720.65,352.43 723.92,347.32 727.20,337.53 730.47,337.53 733.75,340.51 737.02,332.43 740.29,337.11 743.57,328.17 746.84,324.77 750.12,324.77 753.39,320.08 756.66,324.77 759.94,320.94 763.21,314.98 766.49,321.79 769.76,317.96 773.03,322.21 776.31,324.77 779.58,325.62 782.86,332.43 786.13,337.11 789.41,346.05 792.68,346.05 795.95,336.26 799.23,330.72 802.50,314.13 805.78,309.02 809.05,294.55 812.32,305.61 815.60,300.93 818.87,303.06 822.15,308.17 825.42,300.08 828.69,302.63 831.97,313.27 835.24,317.10 838.52,303.49 841.79,321.79 845.07,325.19 848.34,320.51 851.61,320.94 854.89,319.23 858.16,324.66 861.44,325.09 864.71,325.09 867.98,331.08 871.26,337.92 874.53,339.63 877.81,354.18 881.08,346.05 884.36,342.20 887.63,338.78 890.90,340.49 894.18,331.50 897.45,338.35 900.73,338.35 904.00,338.35" />
<text x="780.00" y="104.00" font-size="14" font-family="Arial" fill="#2ca02c" text-anchor="start">MA20x60</text>
</svg>