<svg xmlns="http://www.w3.org/2000/svg" width="960" height="520" viewBox="0 0 960 520"><rect width="100%" height="100%" fill="white" />
<text x="56.00" y="32.00" font-size="20" font-family="Arial" fill="#1f2933" text-anchor="start">鴻海(2317) Backtest Equity Curves</text>
<line x1="56" y1="464" x2="904" y2="464" stroke="#cbd2d9" />
<line x1="56" y1="56" x2="56" y2="464" stroke="#cbd2d9" />
<text x="16.00" y="38.00" font-size="12" font-family="Arial" fill="#52606d" text-anchor="start">Equity Multiple</text>
<line x1="56" y1="464.00" x2="904" y2="464.00" stroke="#edf2f7" />
<line x1="52" y1="464.00" x2="56" y2="464.00" stroke="#9fb3c8" />
<text x="48.00" y="468.00" font-size="11" font-family="Arial" fill="#52606d" text-anchor="end">0.93</text>
<line x1="56" y1="362.00" x2="904" y2="362.00" stroke="#edf2f7" />
<line x1="52" y1="362.00" x2="56" y2="362.00" stroke="#9fb3c8" />
<text x="48.00" y="366.00" font-size="11" font-family="Arial" fill="#52606d" text-anchor="end">1.23</text>
<line x1="56" y1="260.00" x2="904" y2="260.00" stroke="#edf2f7" />
<line x1="52" y1="260.00" x2="56" y2="260.00" stroke="#9fb3c8" />
<text x="48.00" y="264.00" font-size="11" font-family="Arial" fill="#52606d" text-anchor="end">1.52</text>
<line x1="56" y1="158.00" x2="904" y2="158.00" stroke="#edf2f7" />
<line x1="52" y1="158.00" x2="56" y2="158.00" stroke="#9fb3c8" />
<text x="48.00" y="162.00" font-size="11" font-family="Arial" fill="#52606d" text-anchor="end">1.82</text>
<line x1="56" y1="56.00" x2="904" y2="56.00" stroke="#edf2f7" />
<line x1="52" y1="56.00" x2="56" y2="56.00" stroke="#9fb3c8" />
<text x="48.00" y="60.00" font-size="11" font-family="Arial" fill="#52606d" text-anchor="end">2.12</text>
<line x1="56.00" y1="464" x2="56.00" y2="468" stroke="#9fb3c8" />
<text x="56.00" y="482.00" font-size="11" font-family="Arial" fill="#52606d" text-anchor="middle">06/10</text>
<line x1="226.25" y1="464" x2="226.25" y2="468" stroke="#9fb3c8" />
<text x="226.25" y="482.00" font-size="11" font-family="Arial" fill="#52606d" text-anchor="middle">08/22</text>
<line x1="396.51" y1="464" x2="396.51" y2="468" stroke="#9fb3c8" />
<text x="396.51" y="482.00" font-size="11" font-family="Arial" fill="#52606d" text-anchor="middle">11/10</text>
<line x1="563.49" y1="464" x2="563.49" y2="468" stroke="#9fb3c8" />
<text x="563.49" y="482.00" font-size="11" font-family="Arial" fill="#52606d" text-anchor="middle">01/22</text>
<line x1="733.75" y1="464" x2="733.75" y2="468" stroke="#9fb3c8" />
<text x="733.75" y="482.00" font-size="11" font-family="Arial" fill="#52606d" text-anchor="middle">04/20</text>
<line x1="904.00" y1="464" x2="904.00" y2="468" stroke="#9fb3c8" />
<text x="904.00" y="482.00" font-size="11" font-family="Arial" fill="#52606d" text-anchor="middle">07/03</text>
<polyline fill="none" stroke="#7f7f7f" stroke-width="2" points="56.00,438.86 59.27,437.76 62.55,434.47 65.82,436.66 69.10,439.95 72.37,439.95 75.64,437.76 78.92,442.14 82.19,438.86 85.47,437.76 88.74,427.90 92.02,424.61 95.29,422.42 98.56,418.04 101.84,426.80 105.11,416.94 108.39,411.72 111.66,407.17 114.93,413.99 118.21,413.99 121.48,418.53 124.76,413.99 128.03,412.85 131.31,412.85 134.58,415.12 137.85,409.45 141.13,410.58 144.40,407.17 147.68,403.77 150.95,404.90 154.22,411.72 157.50,402.63 160.77,384.46 164.05,383.33 167.32,379.92 170.59,390.14 173.87,390.14 177.14,375.38 180.42,370.84 183.69,360.62 186.97,357.21 190.24,337.90 193.51,337.90 196.79,329.95 200.06,332.23 203.34,328.82 206.61,326.55 209.88,309.51 213.16,302.70 216.43,307.24 219.71,324.28 222.98,311.79 226.25,319.73 229.53,308.38 232.80,304.97 236.08,307.24 239.35,311.79 242.63,317.46 245.90,328.82 249.17,328.82 252.45,324.28 255.72,318.60 259.00,314.06 262.27,317.46 265.54,308.38 268.82,302.70 272.09,292.48 275.37,285.67 278.64,289.07 281.92,290.21 285.19,298.16 288.46,291.35 291.74,293.62 295.01,289.07 298.29,277.72 301.56,273.18 304.83,257.28 308.11,281.13 311.38,289.07 314.66,282.26 317.93,267.50 321.20,265.23 324.48,260.68 327.75,268.63 331.03,276.58 334.30,295.89 337.58,311.79 340.85,310.65 344.12,273.18 347.40,265.23 350.67,237.97 353.95,236.84 357.22,228.89 360.49,236.84 363.77,219.80 367.04,211.86 370.32,189.14 373.59,184.60 376.86,194.82 380.14,208.45 383.41,225.48 386.69,218.67 389.96,216.40 393.24,225.48 396.51,212.99 399.78,219.80 403.06,209.58 406.33,207.31 409.61,232.30 412.88,243.65 416.15,257.28 419.43,259.55 422.70,242.52 425.98,268.63 429.25,279.99 432.53,282.26 435.80,264.09 439.07,255.01 442.35,267.50 445.62,275.45 448.90,275.45 452.17,264.09 455.44,260.68 458.72,255.01 461.99,252.74 465.27,245.92 468.54,249.33 471.81,266.36 475.09,264.09 478.36,276.58 481.64,284.53 484.91,287.94 488.19,289.07 491.46,276.58 494.73,270.90 498.01,270.90 501.28,270.90 504.56,267.50 507.83,255.01 511.10,261.82 514.38,256.14 517.65,252.74 520.93,247.06 524.20,243.65 527.47,237.97 530.75,258.41 534.02,256.14 537.30,260.68 540.57,265.23 543.85,247.06 547.12,249.33 550.39,247.06 553.67,258.41 556.94,272.04 560.22,282.26 563.49,272.04 566.76,276.58 570.04,270.90 573.31,267.50 576.59,267.50 579.86,270.90 583.14,278.85 586.41,292.48 589.68,287.94 592.96,282.26 596.23,290.21 599.51,291.35 602.78,283.40 606.05,277.72 609.33,264.09 612.60,260.68 615.88,252.74 619.15,219.80 622.42,227.75 625.70,236.84 628.97,259.55 632.25,286.80 635.52,270.90 638.80,273.18 642.07,301.57 645.34,303.84 648.62,282.26 651.89,292.48 655.17,292.48 658.44,287.94 661.71,298.16 664.99,302.70 668.26,314.06 671.54,318.60 674.81,334.50 678.08,336.77 681.36,325.41 684.63,324.28 687.91,326.55 691.18,339.04 694.46,353.80 697.73,332.23 701.00,341.31 704.28,343.58 707.55,322.01 710.83,325.41 714.10,324.28 717.37,325.41 720.65,308.38 723.92,308.38 727.20,309.51 730.47,311.79 733.75,308.38 737.02,300.43 740.29,277.72 743.57,268.63 746.84,276.58 750.12,261.82 753.39,267.50 756.66,268.63 759.94,281.13 763.21,262.96 766.49,235.70 769.76,207.31 773.03,203.91 776.31,211.86 779.58,207.31 782.86,211.86 786.13,209.58 789.41,224.35 792.68,215.26 795.95,215.26 799.23,223.21 802.50,234.57 805.78,217.53 809.05,211.86 812.32,186.87 815.60,191.41 818.87,180.06 822.15,182.33 825.42,123.28 828.69,113.06 831.97,94.89 835.24,77.86 838.52,114.20 841.79,133.50 845.07,167.57 848.34,149.40 851.61,182.33 854.89,192.55 858.16,188.01 861.44,172.11 864.71,168.70 867.98,161.89 871.26,169.84 874.53,169.84 877.81,190.28 881.08,198.23 884.36,194.82 887.63,215.26 890.90,219.80 894.18,209.58 897.45,216.40 900.73,220.67 904.00,217.16" />
<text x="780.00" y="60.00" font-size="14" font-family="Arial" fill="#7f7f7f" text-anchor="start">BuyHold</text>
<polyline fill="none" stroke="#1f77b4" stroke-width="2" points="56.00,438.86 59.27,438.86 62.55,438.86 65.82,438.86 69.10,438.86 72.37,438.86 75.64,438.86 78.92,438.86 82.19,438.86 85.47,438.86 88.74,438.86 92.02,438.86 95.29,438.86 98.56,438.86 101.84,438.86 105.11,438.86 108.39,438.86 111.66,438.86 114.93,438.86 118.21,438.86 121.48,438.86 124.76,438.86 128.03,438.86 131.31,438.86 134.58,438.86 137.85,438.86 141.13,438.86 144.40,438.86 147.68,438.86 150.95,438.86 154.22,438.86 157.50,438.86 160.77,438.86 164.05,438.86 167.32,438.86 170.59,438.86 173.87,438.86 177.14,438.86 180.42,438.86 183.69,438.86 186.97,438.86 190.24,438.86 193.51,438.86 196.79,438.86 200.06,438.86 203.34,438.86 206.61,438.86 209.88,438.86 213.16,438.86 216.43,438.86 219.71,438.86 222.98,438.86 226.25,438.86 229.53,438.86 232.80,438.86 236.08,438.86 239.35,438.86 242.63,438.86 245.90,438.86 249.17,438.86 252.45,438.86 255.72,438.86 259.00,438.86 262.27,438.86 265.54,438.86 268.82,438.86 272.09,438.86 275.37,438.86 278.64,438.86 281.92,438.86 285.19,438.86 288.46,438.86 291.74,438.86 295.01,438.86 298.29,438.86 301.56,438.86 304.83,438.86 308.11,438.86 311.38,438.86 314.66,438.86 317.93,438.86 321.20,438.86 324.48,438.86 327.75,438.86 331.03,438.86 334.30,438.86 337.58,438.86 340.85,438.86 344.12,438.86 347.40,438.86 350.67,438.86 353.95,438.86 357.22,438.86 360.49,438.86 363.77,438.86 367.04,438.86 370.32,438.86 373.59,438.86 376.86,438.86 380.14,438.86 383.41,438.86 386.69,438.86 389.96,438.86 393.24,438.86 396.51,438.86 399.78,438.86 403.06,438.86 406.33,438.86 409.61,438.86 412.88,438.86 416.15,438.86 419.43,438.86 422.70,438.86 425.98,438.86 429.25,438.86 432.53,438.86 435.80,438.86 439.07,438.86 442.35,438.86 445.62,438.86 448.90,438.86 452.17,438.86 455.44,438.86 458.72,438.86 461.99,438.86 465.27,438.86 468.54,438.86 471.81,438.86 475.09,438.86 478.36,438.86 481.64,438.86 484.91,438.86 488.19,438.86 491.46,438.86 494.73,438.86 498.01,438.86 501.28,438.86 504.56,438.86 507.83,438.86 511.10,438.86 514.38,438.86 517.65,438.86 520.93,438.86 524.20,438.86 527.47,438.86 530.75,438.86 534.02,438.86 537.30,438.86 540.57,438.86 543.85,438.86 547.12,438.86 550.39,438.86 553.67,438.86 556.94,438.86 560.22,438.86 563.49,438.86 566.76,438.86 570.04,438.86 573.31,438.86 576.59,438.86 579.86,438.86 583.14,438.86 586.41,438.86 589.68,438.86 592.96,438.86 596.23,438.86 599.51,438.86 602.78,438.86 606.05,438.86 609.33,438.86 612.60,438.86 615.88,438.86 619.15,438.86 622.42,438.86 625.70,438.86 628.97,438.86 632.25,438.86 635.52,438.86 638.80,438.86 642.07,438.86 645.34,438.86 648.62,438.86 651.89,438.86 655.17,438.86 658.44,438.86 661.71,438.86 664.99,438.86 668.26,438.86 671.54,438.86 674.81,438.86 678.08,438.86 681.36,438.86 684.63,438.86 687.91,438.86 691.18,438.86 694.46,438.86 697.73,438.86 701.00,438.86 704.28,438.86 707.55,438.86 710.83,438.86 714.10,438.86 717.37,438.86 720.65,438.86 723.92,438.86 727.20,438.86 730.47,438.86 733.75,438.86 737.02,438.86 740.29,438.86 743.57,432.69 746.84,438.08 750.12,428.06 753.39,431.92 756.66,432.69 759.94,441.17 763.21,428.83 766.49,410.33 769.76,391.05 773.03,388.74 776.31,394.14 779.58,391.05 782.86,394.14 786.13,392.59 789.41,402.62 792.68,396.45 795.95,396.45 799.23,401.85 802.50,409.56 805.78,397.99 809.05,394.14 812.32,377.17 815.60,380.26 818.87,372.55 822.15,374.09 825.42,334.00 828.69,327.06 831.97,314.72 835.24,303.16 838.52,327.83 841.79,340.94 845.07,364.07 848.34,351.73 851.61,374.09 854.89,381.03 858.16,377.95 861.44,367.15 864.71,364.84 867.98,360.21 871.26,365.61 874.53,365.61 877.81,379.49 881.08,384.88 884.36,382.57 887.63,396.45 890.90,399.53 894.18,392.59 897.45,397.22 900.73,400.12 904.00,397.74" />
<text x="780.00" y="82.00" font-size="14" font-family="Arial" fill="#1f77b4" text-anchor="start">MA200</text>
<polyline fill="none" stroke="#2ca02c" stroke-width="2" points="56.00,438.86 59.27,438.86 62.55,438.86 65.82,438.86 69.10,438.86 72.37,438.86 75.64,438.86 78.92,438.86 82.19,438.86 85.47,438.86 88.74,438.86 92.02,438.86 95.29,438.86 98.56,438.86 101.84,438.86 105.11,438.86 108.39,438.86 111.66,438.86 114.93,438.86 118.21,438.86 121.48,438.86 124.76,438.86 128.03,438.86 131.31,438.86 134.58,438.86 137.85,438.86 141.13,438.86 144.40,438.86 147.68,438.86 150.95,438.86 154.22,438.86 157.50,438.86 160.77,438.86 164.05,438.86 167.32,438.86 170.59,438.86 173.87,438.86 177.14,438.86 180.42,438.86 183.69,438.86 186.97,438.86 190.24,438.86 193.51,438.86 196.79,438.86 200.06,438.86 203.34,438.86 206.61,438.86 209.88,438.86 213.16,438.86 216.43,438.86 219.71,438.86 222.98,438.86 226.25,438.86 229.53,438.86 232.80,438.86 236.08,438.86 239.35,438.86 242.63,438.86 245.90,438.86 249.17,438.86 252.45,435.42 255.72,431.13 259.00,427.70 262.27,430.27 265.54,423.40 268.82,419.11 272.09,411.39 275.37,406.24 278.64,408.81 281.92,409.67 285.19,415.68 288.46,410.53 291.74,412.24 295.01,408.81 298.29,400.23 301.56,396.79 304.83,384.78 308.11,402.80 311.38,408.81 314.66,403.66 317.93,392.50 321.20,390.78 324.48,387.35 327.75,393.36 331.03,399.37 334.30,413.96 337.58,425.98 340.85,425.12 344.12,396.79 347.40,390.78 350.67,370.18 353.95,369.32 357.22,363.32 360.49,369.32 363.77,356.45 367.04,350.44 370.32,333.27 373.59,329.84 376.86,337.56 380.14,347.86 383.41,360.74 386.69,355.59 389.96,353.87 393.24,360.74 396.51,351.30 399.78,356.45 403.06,348.72 406.33,347.01 409.61,365.89 412.88,374.48 416.15,384.78 419.43,386.49 422.70,373.62 425.98,393.36 429.25,401.94 432.53,403.66 435.80,389.93 439.07,383.06 442.35,392.50 445.62,398.51 448.90,398.51 452.17,389.93 455.44,387.35 458.72,383.06 461.99,381.34 465.27,376.19 468.54,378.77 471.81,378.77 475.09,378.77 478.36,378.77 481.64,378.77 484.91,378.77 488.19,378.77 491.46,378.77 494.73,378.77 498.01,378.77 501.28,378.77 504.56,378.77 507.83,378.77 511.10,378.77 514.38,378.77 517.65,378.77 520.93,378.77 524.20,378.77 527.47,378.77 530.75,378.77 534.02,378.77 537.30,378.77 540.57,378.77 543.85,378.77 547.12,378.77 550.39,378.77 553.67,378.77 556.94,378.77 560.22,378.77 563.49,378.77 566.76,378.77 570.04,378.77 573.31,378.77 576.59,378.77 579.86,378.77 583.14,378.77 586.41,378.77 589.68,378.77 592.96,378.77 596.23,378.77 599.51,378.77 602.78,378.77 606.05,378.77 609.33,378.77 612.60,378.77 615.88,378.77 619.15,378.77 622.42,378.77 625.70,378.77 628.97,378.77 632.25,378.77 635.52,378.77 638.80,378.77 642.07,378.77 645.34,378.77 648.62,378.77 651.89,378.77 655.17,378.77 658.44,378.77 661.71,378.77 664.99,378.77 668.26,378.77 671.54,378.77 674.81,378.77 678.08,378.77 681.36,378.77 684.63,378.77 687.91,378.77 691.18,378.77 694.46,378.77 697.73,378.77 701.00,378.77 704.28,378.77 707.55,378.77 710.83,378.77 714.10,378.77 717.37,378.77 720.65,378.77 723.92,378.77 727.20,378.77 730.47,378.77 733.75,378.77 737.02,378.77 740.29,378.77 743.57,378.77 746.84,378.77 750.12,378.77 753.39,378.77 756.66,378.77 759.94,378.77 763.21,378.77 766.49,378.77 769.76,378.77 773.03,376.38 776.31,381.95 779.58,378.77 782.86,381.95 786.13,380.36 789.41,390.70 792.68,384.33 795.95,384.33 799.23,389.90 802.50,397.86 805.78,385.93 809.05,381.95 812.32,364.45 815.60,367.63 818.87,359.68 822.15,361.27 825.42,319.91 828.69,312.75 831.97,300.02 835.24,288.09 838.52,313.55 841.79,327.07 845.07,350.93 848.34,338.20 851.61,361.27 854.89,368.43 858.16,365.25 861.44,354.11 864.71,351.72 867.98,346.95 871.26,352.52 874.53,352.52 877.81,366.84 881.08,372.40 884.36,370.02 887.63,384.33 890.90,387.52 894.18,380.36 897.45,385.13 900.73,388.13 904.00,385.67" />
<text x="780.00" y="104.00" font-size="14" font-family="Arial" fill="#2ca02c" text-anchor="start">MA20x60</text>
</svg>