<svg xmlns="http://www.w3.org/2000/svg" width="960" height="520" viewBox="0 0 960 520"><rect width="100%" height="100%" fill="white" />
<text x="56.00" y="32.00" font-size="20" font-family="Arial" fill="#1f2933" text-anchor="start">鴻海(2317) Backtest Equity Curves</text>
<line x1="56" y1="464" x2="904" y2="464" stroke="#cbd2d9" />
<line x1="56" y1="56" x2="56" y2="464" stroke="#cbd2d9" />
<text x="16.00" y="38.00" font-size="12" font-family="Arial" fill="#52606d" text-anchor="start">Equity Multiple</text>
<line x1="56" y1="464.00" x2="904" y2="464.00" stroke="#edf2f7" />
<line x1="52" y1="464.00" x2="56" y2="464.00" stroke="#9fb3c8" />
<text x="48.00" y="468.00" font-size="11" font-family="Arial" fill="#52606d" text-anchor="end">0.89</text>
<line x1="56" y1="362.00" x2="904" y2="362.00" stroke="#edf2f7" />
<line x1="52" y1="362.00" x2="56" y2="362.00" stroke="#9fb3c8" />
<text x="48.00" y="366.00" font-size="11" font-family="Arial" fill="#52606d" text-anchor="end">1.21</text>
<line x1="56" y1="260.00" x2="904" y2="260.00" stroke="#edf2f7" />
<line x1="52" y1="260.00" x2="56" y2="260.00" stroke="#9fb3c8" />
<text x="48.00" y="264.00" font-size="11" font-family="Arial" fill="#52606d" text-anchor="end">1.52</text>
<line x1="56" y1="158.00" x2="904" y2="158.00" stroke="#edf2f7" />
<line x1="52" y1="158.00" x2="56" y2="158.00" stroke="#9fb3c8" />
<text x="48.00" y="162.00" font-size="11" font-family="Arial" fill="#52606d" text-anchor="end">1.83</text>
<line x1="56" y1="56.00" x2="904" y2="56.00" stroke="#edf2f7" />
<line x1="52" y1="56.00" x2="56" y2="56.00" stroke="#9fb3c8" />
<text x="48.00" y="60.00" font-size="11" font-family="Arial" fill="#52606d" text-anchor="end">2.15</text>
<line x1="56.00" y1="464" x2="56.00" y2="468" stroke="#9fb3c8" />
<text x="56.00" y="482.00" font-size="11" font-family="Arial" fill="#52606d" text-anchor="middle">06/19</text>
<line x1="226.25" y1="464" x2="226.25" y2="468" stroke="#9fb3c8" />
<text x="226.25" y="482.00" font-size="11" font-family="Arial" fill="#52606d" text-anchor="middle">09/02</text>
<line x1="396.51" y1="464" x2="396.51" y2="468" stroke="#9fb3c8" />
<text x="396.51" y="482.00" font-size="11" font-family="Arial" fill="#52606d" text-anchor="middle">11/19</text>
<line x1="563.49" y1="464" x2="563.49" y2="468" stroke="#9fb3c8" />
<text x="563.49" y="482.00" font-size="11" font-family="Arial" fill="#52606d" text-anchor="middle">02/02</text>
<line x1="733.75" y1="464" x2="733.75" y2="468" stroke="#9fb3c8" />
<text x="733.75" y="482.00" font-size="11" font-family="Arial" fill="#52606d" text-anchor="middle">04/29</text>
<line x1="904.00" y1="464" x2="904.00" y2="468" stroke="#9fb3c8" />
<text x="904.00" y="482.00" font-size="11" font-family="Arial" fill="#52606d" text-anchor="middle">07/14</text>
<polyline fill="none" stroke="#7f7f7f" stroke-width="2" points="56.00,429.24 59.27,426.07 62.55,425.01 65.82,415.50 69.10,412.33 72.37,410.22 75.64,405.99 78.92,414.44 82.19,404.93 85.47,399.89 88.74,395.51 92.02,402.08 95.29,402.08 98.56,406.47 101.84,402.08 105.11,400.99 108.39,400.99 111.66,403.18 114.93,397.70 118.21,398.80 121.48,395.51 124.76,392.23 128.03,393.32 131.31,399.89 134.58,391.13 137.85,373.60 141.13,372.51 144.40,369.22 147.68,379.08 150.95,379.08 154.22,364.84 157.50,360.46 160.77,350.60 164.05,347.32 167.32,328.69 170.59,328.69 173.87,321.03 177.14,323.22 180.42,319.93 183.69,317.74 186.97,301.31 190.24,294.74 193.51,299.12 196.79,315.55 200.06,303.50 203.34,311.17 206.61,300.22 209.88,296.93 213.16,299.12 216.43,303.50 219.71,308.98 222.98,319.93 226.25,319.93 229.53,315.55 232.80,310.07 236.08,305.69 239.35,308.98 242.63,300.22 245.90,294.74 249.17,284.88 252.45,278.31 255.72,281.59 259.00,282.69 262.27,290.36 265.54,283.79 268.82,285.98 272.09,281.59 275.37,270.64 278.64,266.26 281.92,250.92 285.19,273.93 288.46,281.59 291.74,275.02 295.01,260.78 298.29,258.59 301.56,254.21 304.83,261.88 308.11,269.55 311.38,288.17 314.66,303.50 317.93,302.41 321.20,266.26 324.48,258.59 327.75,232.30 331.03,231.21 334.30,223.54 337.58,231.21 340.85,214.78 344.12,207.11 347.40,185.20 350.67,180.82 353.95,190.68 357.22,203.82 360.49,220.25 363.77,213.68 367.04,211.49 370.32,220.25 373.59,208.21 376.86,214.78 380.14,204.92 383.41,202.73 386.69,226.83 389.96,237.78 393.24,250.92 396.51,253.11 399.78,236.68 403.06,261.88 406.33,272.83 409.61,275.02 412.88,257.50 416.15,248.73 419.43,260.78 422.70,268.45 425.98,268.45 429.25,257.50 432.53,254.21 435.80,248.73 439.07,246.54 442.35,239.97 445.62,243.26 448.90,259.69 452.17,257.50 455.44,269.55 458.72,277.21 461.99,280.50 465.27,281.59 468.54,269.55 471.81,264.07 475.09,264.07 478.36,264.07 481.64,260.78 484.91,248.73 488.19,255.31 491.46,249.83 494.73,246.54 498.01,241.07 501.28,237.78 504.56,232.30 507.83,252.02 511.10,249.83 514.38,254.21 517.65,258.59 520.93,241.07 524.20,243.26 527.47,241.07 530.75,252.02 534.02,265.16 537.30,275.02 540.57,265.16 543.85,269.55 547.12,264.07 550.39,260.78 553.67,260.78 556.94,264.07 560.22,271.74 563.49,284.88 566.76,280.50 570.04,275.02 573.31,282.69 576.59,283.79 579.86,276.12 583.14,270.64 586.41,257.50 589.68,254.21 592.96,246.54 596.23,214.78 599.51,222.44 602.78,231.21 606.05,253.11 609.33,279.40 612.60,264.07 615.88,266.26 619.15,293.64 622.42,295.83 625.70,275.02 628.97,284.88 632.25,284.88 635.52,280.50 638.80,290.36 642.07,294.74 645.34,305.69 648.62,310.07 651.89,325.41 655.17,327.60 658.44,316.65 661.71,315.55 664.99,317.74 668.26,329.79 671.54,344.03 674.81,323.22 678.08,331.98 681.36,334.17 684.63,313.36 687.91,316.65 691.18,315.55 694.46,316.65 697.73,300.22 701.00,300.22 704.28,301.31 707.55,303.50 710.83,300.22 714.10,292.55 717.37,270.64 720.65,261.88 723.92,269.55 727.20,255.31 730.47,260.78 733.75,261.88 737.02,273.93 740.29,256.40 743.57,230.11 746.84,202.73 750.12,199.44 753.39,207.11 756.66,202.73 759.94,207.11 763.21,204.92 766.49,219.16 769.76,210.40 773.03,210.40 776.31,218.06 779.58,229.02 782.86,212.59 786.13,207.11 789.41,183.01 792.68,187.39 795.95,176.44 799.23,178.63 802.50,121.67 805.78,111.81 809.05,94.29 812.32,77.86 815.60,112.91 818.87,131.53 822.15,164.39 825.42,146.86 828.69,178.63 831.97,188.49 835.24,184.11 838.52,168.77 841.79,165.49 845.07,158.91 848.34,166.58 851.61,166.58 854.89,186.30 858.16,193.97 861.44,190.68 864.71,210.40 867.98,214.78 871.26,204.92 874.53,211.49 877.81,215.62 881.08,212.23 884.36,208.85 887.63,220.13 890.90,219.00 894.18,219.00 897.45,219.00 900.73,221.26 904.00,223.51" />
<text x="780.00" y="60.00" font-size="14" font-family="Arial" fill="#7f7f7f" text-anchor="start">BuyHold</text>
<polyline fill="none" stroke="#1f77b4" stroke-width="2" points="56.00,429.24 59.27,429.24 62.55,429.24 65.82,429.24 69.10,429.24 72.37,429.24 75.64,429.24 78.92,429.24 82.19,429.24 85.47,429.24 88.74,429.24 92.02,429.24 95.29,429.24 98.56,429.24 101.84,429.24 105.11,429.24 108.39,429.24 111.66,429.24 114.93,429.24 118.21,429.24 121.48,429.24 124.76,429.24 128.03,429.24 131.31,429.24 134.58,429.24 137.85,429.24 141.13,429.24 144.40,429.24 147.68,429.24 150.95,429.24 154.22,429.24 157.50,429.24 160.77,429.24 164.05,429.24 167.32,429.24 170.59,429.24 173.87,429.24 177.14,429.24 180.42,429.24 183.69,429.24 186.97,429.24 190.24,429.24 193.51,429.24 196.79,429.24 200.06,429.24 203.34,429.24 206.61,429.24 209.88,429.24 213.16,429.24 216.43,429.24 219.71,429.24 222.98,429.24 226.25,429.24 229.53,429.24 232.80,429.24 236.08,429.24 239.35,429.24 242.63,429.24 245.90,429.24 249.17,429.24 252.45,429.24 255.72,429.24 259.00,429.24 262.27,429.24 265.54,429.24 268.82,429.24 272.09,429.24 275.37,429.24 278.64,429.24 281.92,429.24 285.19,429.24 288.46,429.24 291.74,429.24 295.01,429.24 298.29,429.24 301.56,429.24 304.83,429.24 308.11,429.24 311.38,429.24 314.66,429.24 317.93,429.24 321.20,429.24 324.48,429.24 327.75,429.24 331.03,429.24 334.30,429.24 337.58,429.24 340.85,429.24 344.12,429.24 347.40,429.24 350.67,429.24 353.95,429.24 357.22,429.24 360.49,429.24 363.77,429.24 367.04,429.24 370.32,429.24 373.59,429.24 376.86,429.24 380.14,429.24 383.41,429.24 386.69,429.24 389.96,429.24 393.24,429.24 396.51,429.24 399.78,429.24 403.06,429.24 406.33,429.24 409.61,429.24 412.88,429.24 416.15,429.24 419.43,429.24 422.70,429.24 425.98,429.24 429.25,429.24 432.53,429.24 435.80,429.24 439.07,429.24 442.35,429.24 445.62,429.24 448.90,429.24 452.17,429.24 455.44,429.24 458.72,429.24 461.99,429.24 465.27,429.24 468.54,429.24 471.81,429.24 475.09,429.24 478.36,429.24 481.64,429.24 484.91,429.24 488.19,429.24 491.46,429.24 494.73,429.24 498.01,429.24 501.28,429.24 504.56,429.24 507.83,429.24 511.10,429.24 514.38,429.24 517.65,429.24 520.93,429.24 524.20,429.24 527.47,429.24 530.75,429.24 534.02,429.24 537.30,429.24 540.57,429.24 543.85,429.24 547.12,429.24 550.39,429.24 553.67,429.24 556.94,429.24 560.22,429.24 563.49,429.24 566.76,429.24 570.04,429.24 573.31,429.24 576.59,429.24 579.86,429.24 583.14,429.24 586.41,429.24 589.68,429.24 592.96,429.24 596.23,429.24 599.51,429.24 602.78,429.24 606.05,429.24 609.33,429.24 612.60,429.24 615.88,429.24 619.15,429.24 622.42,429.24 625.70,429.24 628.97,429.24 632.25,429.24 635.52,429.24 638.80,429.24 642.07,429.24 645.34,429.24 648.62,429.24 651.89,429.24 655.17,429.24 658.44,429.24 661.71,429.24 664.99,429.24 668.26,429.24 671.54,429.24 674.81,429.24 678.08,429.24 681.36,429.24 684.63,429.24 687.91,429.24 691.18,429.24 694.46,429.24 697.73,429.24 701.00,429.24 704.28,429.24 707.55,429.24 710.83,429.24 714.10,429.24 717.37,429.24 720.65,423.35 723.92,428.51 727.20,418.93 730.47,422.61 733.75,423.35 737.02,431.45 740.29,419.67 743.57,401.99 746.84,383.58 750.12,381.37 753.39,386.52 756.66,383.58 759.94,386.52 763.21,385.05 766.49,394.63 769.76,388.73 773.03,388.73 776.31,393.89 779.58,401.25 782.86,390.21 786.13,386.52 789.41,370.32 792.68,373.27 795.95,365.90 799.23,367.37 802.50,329.07 805.78,322.44 809.05,310.66 812.32,299.61 815.60,323.18 818.87,335.70 822.15,357.80 825.42,346.01 828.69,367.37 831.97,374.00 835.24,371.06 838.52,360.74 841.79,358.54 845.07,354.12 848.34,359.27 851.61,359.27 854.89,372.53 858.16,377.68 861.44,375.48 864.71,388.73 867.98,391.68 871.26,385.05 874.53,389.47 877.81,392.24 881.08,389.97 884.36,387.69 887.63,395.28 890.90,394.52 894.18,394.52 897.45,394.52 900.73,396.04 904.00,397.55" />
<text x="780.00" y="82.00" font-size="14" font-family="Arial" fill="#1f77b4" text-anchor="start">MA200</text>
<polyline fill="none" stroke="#2ca02c" stroke-width="2" points="56.00,429.24 59.27,429.24 62.55,429.24 65.82,429.24 69.10,429.24 72.37,429.24 75.64,429.24 78.92,429.24 82.19,429.24 85.47,429.24 88.74,429.24 92.02,429.24 95.29,429.24 98.56,429.24 101.84,429.24 105.11,429.24 108.39,429.24 111.66,429.24 114.93,429.24 118.21,429.24 121.48,429.24 124.76,429.24 128.03,429.24 131.31,429.24 134.58,429.24 137.85,429.24 141.13,429.24 144.40,429.24 147.68,429.24 150.95,429.24 154.22,429.24 157.50,429.24 160.77,429.24 164.05,429.24 167.32,429.24 170.59,429.24 173.87,429.24 177.14,429.24 180.42,429.24 183.69,429.24 186.97,429.24 190.24,429.24 193.51,429.24 196.79,429.24 200.06,429.24 203.34,429.24 206.61,429.24 209.88,429.24 213.16,429.24 216.43,429.24 219.71,429.24 222.98,429.24 226.25,429.24 229.53,429.24 232.80,429.24 236.08,429.24 239.35,429.24 242.63,429.24 245.90,429.24 249.17,429.24 252.45,424.69 255.72,426.97 259.00,427.72 262.27,433.04 265.54,428.48 268.82,430.00 272.09,426.97 275.37,419.38 278.64,416.34 281.92,405.72 285.19,421.65 288.46,426.97 291.74,422.41 295.01,412.55 298.29,411.03 301.56,407.99 304.83,413.31 308.11,418.62 311.38,431.52 314.66,442.14 317.93,441.38 321.20,416.34 324.48,411.03 327.75,392.82 331.03,392.06 334.30,386.75 337.58,392.06 340.85,380.68 344.12,375.36 347.40,360.19 350.67,357.15 353.95,363.98 357.22,373.09 360.49,384.47 363.77,379.92 367.04,378.40 370.32,384.47 373.59,376.12 376.86,380.68 380.14,373.85 383.41,372.33 386.69,389.02 389.96,396.61 393.24,405.72 396.51,407.24 399.78,395.85 403.06,413.31 406.33,420.89 409.61,422.41 412.88,410.27 416.15,404.20 419.43,412.55 422.70,417.86 425.98,417.86 429.25,410.27 432.53,407.99 435.80,404.20 439.07,402.68 442.35,398.13 445.62,400.41 448.90,400.41 452.17,400.41 455.44,400.41 458.72,400.41 461.99,400.41 465.27,400.41 468.54,400.41 471.81,400.41 475.09,400.41 478.36,400.41 481.64,400.41 484.91,400.41 488.19,400.41 491.46,400.41 494.73,400.41 498.01,400.41 501.28,400.41 504.56,400.41 507.83,400.41 511.10,400.41 514.38,400.41 517.65,400.41 520.93,400.41 524.20,400.41 527.47,400.41 530.75,400.41 534.02,400.41 537.30,400.41 540.57,400.41 543.85,400.41 547.12,400.41 550.39,400.41 553.67,400.41 556.94,400.41 560.22,400.41 563.49,400.41 566.76,400.41 570.04,400.41 573.31,400.41 576.59,400.41 579.86,400.41 583.14,400.41 586.41,400.41 589.68,400.41 592.96,400.41 596.23,400.41 599.51,400.41 602.78,400.41 606.05,400.41 609.33,400.41 612.60,400.41 615.88,400.41 619.15,400.41 622.42,400.41 625.70,400.41 628.97,400.41 632.25,400.41 635.52,400.41 638.80,400.41 642.07,400.41 645.34,400.41 648.62,400.41 651.89,400.41 655.17,400.41 658.44,400.41 661.71,400.41 664.99,400.41 668.26,400.41 671.54,400.41 674.81,400.41 678.08,400.41 681.36,400.41 684.63,400.41 687.91,400.41 691.18,400.41 694.46,400.41 697.73,400.41 701.00,400.41 704.28,400.41 707.55,400.41 710.83,400.41 714.10,400.41 717.37,400.41 720.65,400.41 723.92,400.41 727.20,400.41 730.47,400.41 733.75,400.41 737.02,400.41 740.29,400.41 743.57,400.41 746.84,400.41 750.12,398.30 753.39,403.22 756.66,400.41 759.94,403.22 763.21,401.81 766.49,410.95 769.76,405.33 773.03,405.33 776.31,410.25 779.58,417.28 782.86,406.73 786.13,403.22 789.41,387.75 792.68,390.56 795.95,383.53 799.23,384.94 802.50,348.37 805.78,342.05 809.05,330.79 812.32,320.25 815.60,342.75 818.87,354.70 822.15,375.80 825.42,364.55 828.69,384.94 831.97,391.27 835.24,388.45 838.52,378.61 841.79,376.50 845.07,372.28 848.34,377.20 851.61,377.20 854.89,389.86 858.16,394.78 861.44,392.67 864.71,405.33 867.98,408.14 871.26,401.81 874.53,406.03 877.81,408.68 881.08,406.51 884.36,404.33 887.63,411.57 890.90,410.85 894.18,410.85 897.45,410.85 900.73,412.30 904.00,413.75" />
<text x="780.00" y="104.00" font-size="14" font-family="Arial" fill="#2ca02c" text-anchor="start">MA20x60</text>
</svg>