<svg xmlns="http://www.w3.org/2000/svg" width="960" height="520" viewBox="0 0 960 520"><rect width="100%" height="100%" fill="white" />
<text x="56.00" y="32.00" font-size="20" font-family="Arial" fill="#1f2933" text-anchor="start">廣達(2382) Backtest Equity Curves</text>
<line x1="56" y1="464" x2="904" y2="464" stroke="#cbd2d9" />
<line x1="56" y1="56" x2="56" y2="464" stroke="#cbd2d9" />
<text x="16.00" y="38.00" font-size="12" font-family="Arial" fill="#52606d" text-anchor="start">Equity Multiple</text>
<line x1="56" y1="464.00" x2="904" y2="464.00" stroke="#edf2f7" />
<line x1="52" y1="464.00" x2="56" y2="464.00" stroke="#9fb3c8" />
<text x="48.00" y="468.00" font-size="11" font-family="Arial" fill="#52606d" text-anchor="end">0.84</text>
<line x1="56" y1="362.00" x2="904" y2="362.00" stroke="#edf2f7" />
<line x1="52" y1="362.00" x2="56" y2="362.00" stroke="#9fb3c8" />
<text x="48.00" y="366.00" font-size="11" font-family="Arial" fill="#52606d" text-anchor="end">1.03</text>
<line x1="56" y1="260.00" x2="904" y2="260.00" stroke="#edf2f7" />
<line x1="52" y1="260.00" x2="56" y2="260.00" stroke="#9fb3c8" />
<text x="48.00" y="264.00" font-size="11" font-family="Arial" fill="#52606d" text-anchor="end">1.22</text>
<line x1="56" y1="158.00" x2="904" y2="158.00" stroke="#edf2f7" />
<line x1="52" y1="158.00" x2="56" y2="158.00" stroke="#9fb3c8" />
<text x="48.00" y="162.00" font-size="11" font-family="Arial" fill="#52606d" text-anchor="end">1.41</text>
<line x1="56" y1="56.00" x2="904" y2="56.00" stroke="#edf2f7" />
<line x1="52" y1="56.00" x2="56" y2="56.00" stroke="#9fb3c8" />
<text x="48.00" y="60.00" font-size="11" font-family="Arial" fill="#52606d" text-anchor="end">1.60</text>
<line x1="56.00" y1="464" x2="56.00" y2="468" stroke="#9fb3c8" />
<text x="56.00" y="482.00" font-size="11" font-family="Arial" fill="#52606d" text-anchor="middle">06/20</text>
<line x1="226.25" y1="464" x2="226.25" y2="468" stroke="#9fb3c8" />
<text x="226.25" y="482.00" font-size="11" font-family="Arial" fill="#52606d" text-anchor="middle">09/03</text>
<line x1="396.51" y1="464" x2="396.51" y2="468" stroke="#9fb3c8" />
<text x="396.51" y="482.00" font-size="11" font-family="Arial" fill="#52606d" text-anchor="middle">11/20</text>
<line x1="563.49" y1="464" x2="563.49" y2="468" stroke="#9fb3c8" />
<text x="563.49" y="482.00" font-size="11" font-family="Arial" fill="#52606d" text-anchor="middle">02/03</text>
<line x1="733.75" y1="464" x2="733.75" y2="468" stroke="#9fb3c8" />
<text x="733.75" y="482.00" font-size="11" font-family="Arial" fill="#52606d" text-anchor="middle">04/30</text>
<line x1="904.00" y1="464" x2="904.00" y2="468" stroke="#9fb3c8" />
<text x="904.00" y="482.00" font-size="11" font-family="Arial" fill="#52606d" text-anchor="middle">07/15</text>
<polyline fill="none" stroke="#7f7f7f" stroke-width="2" points="56.00,378.79 59.27,374.01 62.55,359.67 65.82,352.98 69.10,358.72 72.37,367.32 75.64,363.32 78.92,350.29 82.19,348.29 85.47,352.30 88.74,356.30 92.02,358.31 95.29,368.32 98.56,360.31 101.84,366.32 105.11,366.32 108.39,373.33 111.66,371.33 114.93,367.32 118.21,370.33 121.48,365.32 124.76,365.32 128.03,387.35 131.31,383.35 134.58,374.33 137.85,375.33 141.13,368.32 144.40,377.34 147.68,372.33 150.95,349.29 154.22,350.29 157.50,336.27 160.77,335.27 164.05,334.27 167.32,331.26 170.59,332.27 173.87,346.29 177.14,369.33 180.42,371.33 183.69,371.33 186.97,374.33 190.24,376.34 193.51,393.36 196.79,394.37 200.06,395.37 203.34,376.34 206.61,382.35 209.88,374.33 213.16,380.34 216.43,387.35 219.71,400.38 222.98,405.38 226.25,405.38 229.53,398.37 232.80,395.37 236.08,392.36 239.35,387.35 242.63,366.32 245.90,372.33 249.17,364.32 252.45,360.31 255.72,365.32 259.00,366.32 262.27,353.30 265.54,350.29 268.82,350.29 272.09,339.28 275.37,345.29 278.64,342.28 281.92,342.28 285.19,332.27 288.46,339.28 291.74,324.25 295.01,312.23 298.29,295.21 301.56,300.21 304.83,316.24 308.11,323.25 311.38,344.29 314.66,340.28 317.93,329.26 321.20,335.27 324.48,319.24 327.75,330.26 331.03,333.27 334.30,325.25 337.58,293.20 340.85,304.22 344.12,296.21 347.40,300.21 350.67,311.23 353.95,317.24 357.22,337.27 360.49,333.27 363.77,326.26 367.04,338.28 370.32,329.26 373.59,329.26 376.86,336.27 380.14,342.28 383.41,353.30 386.69,360.31 389.96,372.33 393.24,378.34 396.51,364.32 399.78,372.33 403.06,368.32 406.33,362.31 409.61,353.30 412.88,349.29 416.15,348.29 419.43,338.28 422.70,335.27 425.98,327.26 429.25,323.25 432.53,317.24 435.80,317.24 439.07,320.25 442.35,327.26 445.62,336.27 448.90,339.28 452.17,342.28 455.44,366.32 458.72,382.35 461.99,392.36 465.27,382.35 468.54,378.34 471.81,383.35 475.09,384.35 478.36,386.35 481.64,386.35 484.91,386.35 488.19,368.32 491.46,358.31 494.73,356.30 498.01,348.29 501.28,348.29 504.56,366.32 507.83,346.29 511.10,351.30 514.38,354.30 517.65,340.28 520.93,346.29 524.20,333.27 527.47,348.29 530.75,357.31 534.02,362.31 537.30,346.29 540.57,352.30 543.85,338.28 547.12,337.27 550.39,338.28 553.67,346.29 556.94,352.30 560.22,366.32 563.49,359.31 566.76,356.30 570.04,366.32 573.31,353.30 576.59,344.29 579.86,342.28 583.14,340.28 586.41,345.29 589.68,344.29 592.96,317.24 596.23,329.26 599.51,310.23 602.78,323.25 606.05,350.29 609.33,333.27 612.60,334.27 615.88,348.29 619.15,347.29 622.42,334.27 625.70,335.27 628.97,334.27 632.25,334.27 635.52,334.27 638.80,326.26 642.07,339.28 645.34,345.29 648.62,352.30 651.89,349.29 655.17,342.28 658.44,338.28 661.71,334.27 664.99,350.29 668.26,355.30 671.54,331.26 674.81,343.28 678.08,334.27 681.36,297.21 684.63,286.19 687.91,269.16 691.18,274.17 694.46,266.16 697.73,295.21 701.00,275.17 704.28,266.16 707.55,254.14 710.83,232.10 714.10,242.12 717.37,268.16 720.65,266.16 723.92,261.15 727.20,270.17 730.47,268.16 733.75,287.19 737.02,276.18 740.29,270.17 743.57,219.08 746.84,224.09 750.12,231.10 753.39,225.09 756.66,232.10 759.94,231.10 763.21,243.12 766.49,300.21 769.76,312.23 773.03,332.27 776.31,332.27 779.58,296.21 782.86,280.18 786.13,279.18 789.41,279.18 792.68,288.19 795.95,295.21 799.23,234.11 802.50,167.00 805.78,110.91 809.05,77.86 812.32,103.90 815.60,130.94 818.87,158.99 822.15,161.99 825.42,150.97 828.69,172.01 831.97,168.00 835.24,172.01 838.52,187.03 841.79,164.00 845.07,159.99 848.34,151.98 851.61,167.00 854.89,168.00 858.16,179.02 861.44,188.03 864.71,178.02 867.98,176.01 871.26,168.00 874.53,174.01 877.81,157.99 881.08,155.98 884.36,166.00 887.63,157.99 890.90,165.00 894.18,165.00 897.45,155.98 900.73,151.98 904.00,149.97" />
<text x="780.00" y="60.00" font-size="14" font-family="Arial" fill="#7f7f7f" text-anchor="start">BuyHold</text>
<polyline fill="none" stroke="#1f77b4" stroke-width="2" points="56.00,378.79 59.27,378.79 62.55,378.79 65.82,378.79 69.10,378.79 72.37,378.79 75.64,378.79 78.92,378.79 82.19,378.79 85.47,378.79 88.74,378.79 92.02,378.79 95.29,378.79 98.56,378.79 101.84,378.79 105.11,378.79 108.39,378.79 111.66,378.79 114.93,378.79 118.21,378.79 121.48,378.79 124.76,378.79 128.03,378.79 131.31,378.79 134.58,378.79 137.85,378.79 141.13,378.79 144.40,378.79 147.68,378.79 150.95,378.79 154.22,378.79 157.50,378.79 160.77,378.79 164.05,378.79 167.32,378.79 170.59,378.79 173.87,378.79 177.14,378.79 180.42,378.79 183.69,378.79 186.97,378.79 190.24,378.79 193.51,378.79 196.79,378.79 200.06,378.79 203.34,378.79 206.61,378.79 209.88,378.79 213.16,378.79 216.43,378.79 219.71,378.79 222.98,378.79 226.25,378.79 229.53,378.79 232.80,378.79 236.08,378.79 239.35,378.79 242.63,378.79 245.90,378.79 249.17,378.79 252.45,378.79 255.72,378.79 259.00,378.79 262.27,378.79 265.54,378.79 268.82,378.79 272.09,378.79 275.37,378.79 278.64,378.79 281.92,378.79 285.19,378.79 288.46,378.79 291.74,378.79 295.01,378.79 298.29,378.79 301.56,378.79 304.83,378.79 308.11,378.79 311.38,378.79 314.66,378.79 317.93,378.79 321.20,378.79 324.48,378.79 327.75,378.79 331.03,378.79 334.30,378.79 337.58,378.79 340.85,378.79 344.12,378.79 347.40,378.79 350.67,378.79 353.95,378.79 357.22,378.79 360.49,378.79 363.77,378.79 367.04,378.79 370.32,378.79 373.59,378.79 376.86,378.79 380.14,378.79 383.41,378.79 386.69,378.79 389.96,378.79 393.24,378.79 396.51,378.79 399.78,378.79 403.06,378.79 406.33,378.79 409.61,378.79 412.88,378.79 416.15,378.79 419.43,378.79 422.70,378.79 425.98,378.79 429.25,378.79 432.53,378.79 435.80,378.79 439.07,378.79 442.35,378.79 445.62,378.79 448.90,378.79 452.17,378.79 455.44,378.79 458.72,378.79 461.99,378.79 465.27,378.79 468.54,378.79 471.81,378.79 475.09,378.79 478.36,378.79 481.64,378.79 484.91,378.79 488.19,378.79 491.46,378.79 494.73,378.79 498.01,378.79 501.28,378.79 504.56,378.79 507.83,378.79 511.10,378.79 514.38,378.79 517.65,378.79 520.93,378.79 524.20,378.79 527.47,378.79 530.75,378.79 534.02,378.79 537.30,378.79 540.57,378.79 543.85,378.79 547.12,378.79 550.39,378.79 553.67,378.79 556.94,378.79 560.22,378.79 563.49,378.79 566.76,378.79 570.04,378.79 573.31,378.79 576.59,378.79 579.86,378.79 583.14,378.79 586.41,378.79 589.68,378.79 592.96,378.79 596.23,378.79 599.51,378.79 602.78,378.79 606.05,378.79 609.33,378.79 612.60,378.79 615.88,378.79 619.15,378.79 622.42,378.79 625.70,378.79 628.97,378.79 632.25,378.79 635.52,378.79 638.80,378.79 642.07,378.79 645.34,378.79 648.62,378.79 651.89,378.79 655.17,378.79 658.44,378.79 661.71,378.79 664.99,378.79 668.26,378.79 671.54,378.79 674.81,378.79 678.08,378.79 681.36,378.79 684.63,378.79 687.91,378.79 691.18,378.79 694.46,378.79 697.73,378.79 701.00,378.79 704.28,378.79 707.55,378.79 710.83,360.93 714.10,369.05 717.37,390.16 720.65,388.54 723.92,384.48 727.20,391.79 730.47,390.16 733.75,405.60 737.02,396.66 740.29,391.79 743.57,350.37 746.84,354.43 750.12,360.11 753.39,355.24 756.66,360.93 759.94,360.11 763.21,369.86 766.49,416.15 769.76,425.90 773.03,442.14 776.31,442.14 779.58,412.90 782.86,399.91 786.13,399.10 789.41,399.10 792.68,406.41 795.95,412.09 799.23,362.55 802.50,308.14 805.78,262.65 809.05,235.85 812.32,256.97 815.60,278.90 818.87,301.64 822.15,304.07 825.42,295.14 828.69,312.20 831.97,308.95 835.24,312.20 838.52,324.38 841.79,305.70 845.07,302.45 848.34,295.95 851.61,308.14 854.89,308.95 858.16,317.88 861.44,325.19 864.71,317.07 867.98,315.45 871.26,308.95 874.53,313.82 877.81,300.83 881.08,299.20 884.36,307.32 887.63,300.83 890.90,306.51 894.18,306.51 897.45,299.20 900.73,295.95 904.00,294.33" />
<text x="780.00" y="82.00" font-size="14" font-family="Arial" fill="#1f77b4" text-anchor="start">MA200</text>
<polyline fill="none" stroke="#2ca02c" stroke-width="2" points="56.00,378.79 59.27,378.79 62.55,378.79 65.82,378.79 69.10,378.79 72.37,378.79 75.64,378.79 78.92,378.79 82.19,378.79 85.47,378.79 88.74,378.79 92.02,378.79 95.29,378.79 98.56,378.79 101.84,378.79 105.11,378.79 108.39,378.79 111.66,378.79 114.93,378.79 118.21,378.79 121.48,378.79 124.76,378.79 128.03,378.79 131.31,378.79 134.58,378.79 137.85,378.79 141.13,378.79 144.40,378.79 147.68,378.79 150.95,378.79 154.22,378.79 157.50,378.79 160.77,378.79 164.05,378.79 167.32,378.79 170.59,378.79 173.87,378.79 177.14,378.79 180.42,378.79 183.69,378.79 186.97,378.79 190.24,378.79 193.51,378.79 196.79,378.79 200.06,378.79 203.34,378.79 206.61,378.79 209.88,378.79 213.16,378.79 216.43,378.79 219.71,378.79 222.98,378.79 226.25,378.79 229.53,378.79 232.80,378.79 236.08,378.79 239.35,378.79 242.63,378.79 245.90,378.79 249.17,378.79 252.45,378.79 255.72,378.79 259.00,378.79 262.27,378.79 265.54,378.79 268.82,378.79 272.09,378.79 275.37,378.79 278.64,378.79 281.92,378.79 285.19,378.79 288.46,385.24 291.74,371.42 295.01,360.37 298.29,344.70 301.56,349.31 304.83,364.05 308.11,370.50 311.38,389.85 314.66,386.17 317.93,376.03 321.20,381.56 324.48,366.82 327.75,376.95 331.03,379.72 334.30,372.34 337.58,342.86 340.85,353.00 344.12,345.62 347.40,349.31 350.67,359.44 353.95,364.97 357.22,383.40 360.49,379.72 363.77,373.27 367.04,384.32 370.32,376.03 373.59,376.03 376.86,382.48 380.14,388.01 383.41,398.14 386.69,404.59 389.96,415.65 393.24,421.18 396.51,408.28 399.78,415.65 403.06,411.96 406.33,406.44 409.61,398.14 412.88,394.46 416.15,394.46 419.43,394.46 422.70,394.46 425.98,394.46 429.25,394.46 432.53,394.46 435.80,394.46 439.07,394.46 442.35,394.46 445.62,394.46 448.90,394.46 452.17,394.46 455.44,394.46 458.72,394.46 461.99,394.46 465.27,394.46 468.54,394.46 471.81,394.46 475.09,394.46 478.36,394.46 481.64,394.46 484.91,394.46 488.19,394.46 491.46,394.46 494.73,394.46 498.01,394.46 501.28,394.46 504.56,394.46 507.83,394.46 511.10,394.46 514.38,394.46 517.65,394.46 520.93,394.46 524.20,394.46 527.47,394.46 530.75,394.46 534.02,394.46 537.30,394.46 540.57,394.46 543.85,394.46 547.12,394.46 550.39,394.46 553.67,401.69 556.94,407.11 560.22,419.76 563.49,413.44 566.76,410.72 570.04,419.76 573.31,408.01 576.59,399.88 579.86,398.07 583.14,396.27 586.41,400.78 589.68,399.88 592.96,375.48 596.23,386.32 599.51,369.15 602.78,380.90 606.05,405.30 609.33,389.94 612.60,390.84 615.88,403.49 619.15,402.59 622.42,390.84 625.70,391.75 628.97,390.84 632.25,390.84 635.52,390.84 638.80,383.61 642.07,395.36 645.34,400.78 648.62,407.11 651.89,404.40 655.17,398.07 658.44,394.46 661.71,390.84 664.99,405.30 668.26,409.82 671.54,388.13 674.81,398.98 678.08,390.84 681.36,357.40 684.63,347.46 687.91,332.10 691.18,336.62 694.46,329.39 697.73,355.60 701.00,337.52 704.28,329.39 707.55,318.54 710.83,298.66 714.10,307.70 717.37,331.20 720.65,329.39 723.92,324.87 727.20,333.00 730.47,331.20 733.75,348.37 737.02,338.43 740.29,333.00 743.57,286.91 746.84,291.43 750.12,297.76 753.39,292.34 756.66,298.66 759.94,297.76 763.21,308.60 766.49,360.12 769.76,370.96 773.03,389.04 776.31,389.04 779.58,356.50 782.86,342.04 786.13,341.14 789.41,341.14 792.68,349.27 795.95,355.60 799.23,300.47 802.50,239.92 805.78,189.31 809.05,159.49 812.32,182.98 815.60,207.39 818.87,232.69 822.15,235.40 825.42,225.46 828.69,244.44 831.97,240.82 835.24,244.44 838.52,257.99 841.79,237.21 845.07,233.59 848.34,226.36 851.61,239.92 854.89,240.82 858.16,250.76 861.44,258.90 864.71,249.86 867.98,248.05 871.26,240.82 874.53,246.25 877.81,231.79 881.08,229.98 884.36,239.02 887.63,231.79 890.90,238.11 894.18,238.11 897.45,229.98 900.73,226.36 904.00,224.56" />
<text x="780.00" y="104.00" font-size="14" font-family="Arial" fill="#2ca02c" text-anchor="start">MA20x60</text>
</svg>