<svg xmlns="http://www.w3.org/2000/svg" width="960" height="520" viewBox="0 0 960 520"><rect width="100%" height="100%" fill="white" />
<text x="56.00" y="32.00" font-size="20" font-family="Arial" fill="#1f2933" text-anchor="start">中華電(2412) Backtest Equity Curves</text>
<line x1="56" y1="464" x2="904" y2="464" stroke="#cbd2d9" />
<line x1="56" y1="56" x2="56" y2="464" stroke="#cbd2d9" />
<text x="16.00" y="38.00" font-size="12" font-family="Arial" fill="#52606d" text-anchor="start">Equity Multiple</text>
<line x1="56" y1="464.00" x2="904" y2="464.00" stroke="#edf2f7" />
<line x1="52" y1="464.00" x2="56" y2="464.00" stroke="#9fb3c8" />
<text x="48.00" y="468.00" font-size="11" font-family="Arial" fill="#52606d" text-anchor="end">0.96</text>
<line x1="56" y1="362.00" x2="904" y2="362.00" stroke="#edf2f7" />
<line x1="52" y1="362.00" x2="56" y2="362.00" stroke="#9fb3c8" />
<text x="48.00" y="366.00" font-size="11" font-family="Arial" fill="#52606d" text-anchor="end">1.00</text>
<line x1="56" y1="260.00" x2="904" y2="260.00" stroke="#edf2f7" />
<line x1="52" y1="260.00" x2="56" y2="260.00" stroke="#9fb3c8" />
<text x="48.00" y="264.00" font-size="11" font-family="Arial" fill="#52606d" text-anchor="end">1.04</text>
<line x1="56" y1="158.00" x2="904" y2="158.00" stroke="#edf2f7" />
<line x1="52" y1="158.00" x2="56" y2="158.00" stroke="#9fb3c8" />
<text x="48.00" y="162.00" font-size="11" font-family="Arial" fill="#52606d" text-anchor="end">1.08</text>
<line x1="56" y1="56.00" x2="904" y2="56.00" stroke="#edf2f7" />
<line x1="52" y1="56.00" x2="56" y2="56.00" stroke="#9fb3c8" />
<text x="48.00" y="60.00" font-size="11" font-family="Arial" fill="#52606d" text-anchor="end">1.12</text>
<line x1="56.00" y1="464" x2="56.00" y2="468" stroke="#9fb3c8" />
<text x="56.00" y="482.00" font-size="11" font-family="Arial" fill="#52606d" text-anchor="middle">06/26</text>
<line x1="226.25" y1="464" x2="226.25" y2="468" stroke="#9fb3c8" />
<text x="226.25" y="482.00" font-size="11" font-family="Arial" fill="#52606d" text-anchor="middle">09/09</text>
<line x1="396.51" y1="464" x2="396.51" y2="468" stroke="#9fb3c8" />
<text x="396.51" y="482.00" font-size="11" font-family="Arial" fill="#52606d" text-anchor="middle">11/26</text>
<line x1="563.49" y1="464" x2="563.49" y2="468" stroke="#9fb3c8" />
<text x="563.49" y="482.00" font-size="11" font-family="Arial" fill="#52606d" text-anchor="middle">02/09</text>
<line x1="733.75" y1="464" x2="733.75" y2="468" stroke="#9fb3c8" />
<text x="733.75" y="482.00" font-size="11" font-family="Arial" fill="#52606d" text-anchor="middle">05/07</text>
<line x1="904.00" y1="464" x2="904.00" y2="468" stroke="#9fb3c8" />
<text x="904.00" y="482.00" font-size="11" font-family="Arial" fill="#52606d" text-anchor="middle">07/21</text>
<polyline fill="none" stroke="#7f7f7f" stroke-width="2" points="56.00,365.21 59.27,374.69 62.55,403.13 65.82,403.13 69.10,412.61 72.37,383.07 75.64,392.92 78.92,402.76 82.19,422.45 85.47,442.14 88.74,402.76 92.02,392.92 95.29,392.92 98.56,412.61 101.84,392.92 105.11,392.92 108.39,422.45 111.66,422.45 114.93,392.92 118.21,402.76 121.48,412.61 124.76,422.45 128.03,412.61 131.31,422.45 134.58,412.61 137.85,422.45 141.13,383.07 144.40,363.38 147.68,353.53 150.95,353.53 154.22,324.00 157.50,314.15 160.77,304.31 164.05,314.15 167.32,314.15 170.59,304.31 173.87,264.92 177.14,245.23 180.42,274.77 183.69,255.08 186.97,284.61 190.24,294.46 193.51,333.84 196.79,324.00 200.06,343.69 203.34,353.53 206.61,324.00 209.88,304.31 213.16,324.00 216.43,304.31 219.71,314.15 222.98,314.15 226.25,294.46 229.53,294.46 232.80,314.15 236.08,294.46 239.35,304.31 242.63,324.00 245.90,314.15 249.17,324.00 252.45,324.00 255.72,333.84 259.00,333.84 262.27,314.15 265.54,333.84 268.82,314.15 272.09,333.84 275.37,314.15 278.64,343.69 281.92,343.69 285.19,343.69 288.46,333.84 291.74,343.69 295.01,353.53 298.29,353.53 301.56,373.22 304.83,363.38 308.11,343.69 311.38,343.69 314.66,343.69 317.93,333.84 321.20,324.00 324.48,363.38 327.75,363.38 331.03,363.38 334.30,373.22 337.58,383.07 340.85,373.22 344.12,383.07 347.40,363.38 350.67,373.22 353.95,353.53 357.22,343.69 360.49,363.38 363.77,363.38 367.04,373.22 370.32,373.22 373.59,363.38 376.86,383.07 380.14,392.92 383.41,363.38 386.69,373.22 389.96,363.38 393.24,383.07 396.51,383.07 399.78,383.07 403.06,392.92 406.33,402.76 409.61,402.76 412.88,402.76 416.15,412.61 419.43,402.76 422.70,412.61 425.98,402.76 429.25,412.61 432.53,402.76 435.80,392.92 439.07,392.92 442.35,392.92 445.62,412.61 448.90,402.76 452.17,383.07 455.44,392.92 458.72,392.92 461.99,392.92 465.27,373.22 468.54,363.38 471.81,383.07 475.09,392.92 478.36,363.38 481.64,343.69 484.91,353.53 488.19,343.69 491.46,333.84 494.73,333.84 498.01,333.84 501.28,333.84 504.56,343.69 507.83,333.84 511.10,343.69 514.38,324.00 517.65,343.69 520.93,343.69 524.20,343.69 527.47,324.00 530.75,324.00 534.02,343.69 537.30,333.84 540.57,333.84 543.85,333.84 547.12,343.69 550.39,333.84 553.67,343.69 556.94,353.53 560.22,343.69 563.49,363.38 566.76,353.53 570.04,343.69 573.31,304.31 576.59,294.46 579.86,284.61 583.14,324.00 586.41,245.23 589.68,245.23 592.96,294.46 596.23,264.92 599.51,274.77 602.78,284.61 606.05,304.31 609.33,294.46 612.60,284.61 615.88,284.61 619.15,274.77 622.42,264.92 625.70,255.08 628.97,294.46 632.25,324.00 635.52,324.00 638.80,324.00 642.07,304.31 645.34,314.15 648.62,324.00 651.89,324.00 655.17,343.69 658.44,324.00 661.71,324.00 664.99,324.00 668.26,324.00 671.54,304.31 674.81,294.46 678.08,314.15 681.36,304.31 684.63,294.46 687.91,274.77 691.18,255.08 694.46,264.92 697.73,264.92 701.00,274.77 704.28,284.61 707.55,294.46 710.83,264.92 714.10,264.92 717.37,274.77 720.65,284.61 723.92,294.46 727.20,284.61 730.47,284.61 733.75,294.46 737.02,274.77 740.29,294.46 743.57,294.46 746.84,255.08 750.12,255.08 753.39,245.23 756.66,264.92 759.94,156.62 763.21,225.54 766.49,255.08 769.76,264.92 773.03,274.77 776.31,284.61 779.58,264.92 782.86,274.77 786.13,264.92 789.41,196.00 792.68,166.47 795.95,186.16 799.23,176.31 802.50,186.16 805.78,235.39 809.05,166.47 812.32,127.09 815.60,107.39 818.87,107.39 822.15,97.55 825.42,77.86 828.69,97.55 831.97,127.09 835.24,117.24 838.52,127.09 841.79,136.93 845.07,127.09 848.34,146.78 851.61,166.47 854.89,176.31 858.16,176.31 861.44,186.16 864.71,186.16 867.98,176.31 871.26,186.16 874.53,215.70 877.81,232.06 881.08,232.06 884.36,232.06 887.63,242.28 890.90,242.28 894.18,180.92 897.45,140.02 900.73,119.56 904.00,119.56" />
<text x="780.00" y="60.00" font-size="14" font-family="Arial" fill="#7f7f7f" text-anchor="start">BuyHold</text>
<polyline fill="none" stroke="#1f77b4" stroke-width="2" points="56.00,365.21 59.27,365.21 62.55,365.21 65.82,365.21 69.10,365.21 72.37,365.21 75.64,365.21 78.92,365.21 82.19,365.21 85.47,365.21 88.74,365.21 92.02,365.21 95.29,365.21 98.56,365.21 101.84,365.21 105.11,365.21 108.39,365.21 111.66,365.21 114.93,365.21 118.21,365.21 121.48,365.21 124.76,365.21 128.03,365.21 131.31,365.21 134.58,365.21 137.85,365.21 141.13,365.21 144.40,365.21 147.68,365.21 150.95,365.21 154.22,365.21 157.50,365.21 160.77,365.21 164.05,365.21 167.32,365.21 170.59,365.21 173.87,365.21 177.14,365.21 180.42,365.21 183.69,365.21 186.97,365.21 190.24,365.21 193.51,365.21 196.79,365.21 200.06,365.21 203.34,365.21 206.61,365.21 209.88,365.21 213.16,365.21 216.43,365.21 219.71,365.21 222.98,365.21 226.25,365.21 229.53,365.21 232.80,365.21 236.08,365.21 239.35,365.21 242.63,365.21 245.90,365.21 249.17,365.21 252.45,365.21 255.72,365.21 259.00,365.21 262.27,365.21 265.54,365.21 268.82,365.21 272.09,365.21 275.37,365.21 278.64,365.21 281.92,365.21 285.19,365.21 288.46,365.21 291.74,365.21 295.01,365.21 298.29,365.21 301.56,365.21 304.83,365.21 308.11,365.21 311.38,365.21 314.66,365.21 317.93,365.21 321.20,365.21 324.48,365.21 327.75,365.21 331.03,365.21 334.30,365.21 337.58,365.21 340.85,365.21 344.12,365.21 347.40,365.21 350.67,365.21 353.95,365.21 357.22,365.21 360.49,365.21 363.77,365.21 367.04,365.21 370.32,365.21 373.59,365.21 376.86,365.21 380.14,365.21 383.41,365.21 386.69,365.21 389.96,365.21 393.24,365.21 396.51,365.21 399.78,365.21 403.06,365.21 406.33,365.21 409.61,365.21 412.88,365.21 416.15,365.21 419.43,365.21 422.70,365.21 425.98,365.21 429.25,365.21 432.53,365.21 435.80,365.21 439.07,365.21 442.35,365.21 445.62,365.21 448.90,365.21 452.17,365.21 455.44,365.21 458.72,365.21 461.99,365.21 465.27,365.21 468.54,365.21 471.81,365.21 475.09,365.21 478.36,365.21 481.64,365.21 484.91,365.21 488.19,365.21 491.46,365.21 494.73,365.21 498.01,365.21 501.28,365.21 504.56,365.21 507.83,365.21 511.10,365.21 514.38,365.21 517.65,365.21 520.93,365.21 524.20,365.21 527.47,365.21 530.75,365.21 534.02,365.21 537.30,365.21 540.57,365.21 543.85,365.21 547.12,365.21 550.39,365.21 553.67,365.21 556.94,365.21 560.22,365.21 563.49,365.21 566.76,365.21 570.04,365.21 573.31,365.21 576.59,365.21 579.86,365.21 583.14,365.21 586.41,365.21 589.68,365.21 592.96,365.21 596.23,365.21 599.51,365.21 602.78,365.21 606.05,365.21 609.33,365.21 612.60,365.21 615.88,365.21 619.15,365.21 622.42,365.21 625.70,365.21 628.97,365.21 632.25,365.21 635.52,365.21 638.80,365.21 642.07,365.21 645.34,365.21 648.62,365.21 651.89,365.21 655.17,365.21 658.44,365.21 661.71,365.21 664.99,365.21 668.26,365.21 671.54,365.21 674.81,365.21 678.08,365.21 681.36,365.21 684.63,365.21 687.91,365.21 691.18,365.21 694.46,365.21 697.73,365.21 701.00,365.21 704.28,365.21 707.55,365.21 710.83,336.46 714.10,336.46 717.37,346.04 720.65,355.62 723.92,365.21 727.20,355.62 730.47,355.62 733.75,365.21 737.02,346.04 740.29,365.21 743.57,365.21 746.84,326.87 750.12,326.87 753.39,317.29 756.66,336.46 759.94,231.03 763.21,298.12 766.49,326.87 769.76,336.46 773.03,346.04 776.31,355.62 779.58,336.46 782.86,346.04 786.13,336.46 789.41,269.36 792.68,240.61 795.95,259.78 799.23,250.19 802.50,259.78 805.78,307.70 809.05,240.61 812.32,202.27 815.60,183.10 818.87,183.10 822.15,173.52 825.42,154.35 828.69,173.52 831.97,202.27 835.24,192.69 838.52,202.27 841.79,211.86 845.07,202.27 848.34,221.44 851.61,240.61 854.89,250.19 858.16,250.19 861.44,259.78 864.71,259.78 867.98,250.19 871.26,259.78 874.53,288.53 877.81,304.46 881.08,304.46 884.36,304.46 887.63,314.42 890.90,314.42 894.18,254.68 897.45,214.86 900.73,194.95 904.00,194.95" />
<text x="780.00" y="82.00" font-size="14" font-family="Arial" fill="#1f77b4" text-anchor="start">MA200</text>
<polyline fill="none" stroke="#2ca02c" stroke-width="2" points="56.00,365.21 59.27,365.21 62.55,365.21 65.82,365.21 69.10,365.21 72.37,365.21 75.64,365.21 78.92,365.21 82.19,365.21 85.47,365.21 88.74,365.21 92.02,365.21 95.29,365.21 98.56,365.21 101.84,365.21 105.11,365.21 108.39,365.21 111.66,365.21 114.93,365.21 118.21,365.21 121.48,365.21 124.76,365.21 128.03,365.21 131.31,365.21 134.58,365.21 137.85,365.21 141.13,365.21 144.40,365.21 147.68,365.21 150.95,365.21 154.22,365.21 157.50,365.21 160.77,365.21 164.05,365.21 167.32,365.21 170.59,365.21 173.87,365.21 177.14,365.21 180.42,365.21 183.69,365.21 186.97,365.21 190.24,365.21 193.51,365.21 196.79,365.21 200.06,365.21 203.34,365.21 206.61,365.21 209.88,365.21 213.16,365.21 216.43,365.21 219.71,365.21 222.98,365.21 226.25,365.21 229.53,365.21 232.80,365.21 236.08,365.21 239.35,365.21 242.63,365.21 245.90,365.21 249.17,365.21 252.45,365.21 255.72,374.90 259.00,374.90 262.27,355.52 265.54,374.90 268.82,355.52 272.09,374.90 275.37,355.52 278.64,384.59 281.92,384.59 285.19,384.59 288.46,374.90 291.74,384.59 295.01,394.28 298.29,394.28 301.56,413.67 304.83,403.98 308.11,403.98 311.38,403.98 314.66,403.98 317.93,403.98 321.20,403.98 324.48,403.98 327.75,403.98 331.03,403.98 334.30,403.98 337.58,403.98 340.85,403.98 344.12,403.98 347.40,403.98 350.67,403.98 353.95,403.98 357.22,403.98 360.49,403.98 363.77,403.98 367.04,403.98 370.32,403.98 373.59,403.98 376.86,403.98 380.14,403.98 383.41,403.98 386.69,403.98 389.96,403.98 393.24,403.98 396.51,403.98 399.78,403.98 403.06,403.98 406.33,403.98 409.61,403.98 412.88,403.98 416.15,403.98 419.43,403.98 422.70,403.98 425.98,403.98 429.25,403.98 432.53,403.98 435.80,403.98 439.07,403.98 442.35,403.98 445.62,403.98 448.90,403.98 452.17,403.98 455.44,403.98 458.72,403.98 461.99,403.98 465.27,403.98 468.54,403.98 471.81,403.98 475.09,403.98 478.36,403.98 481.64,403.98 484.91,403.98 488.19,403.98 491.46,403.98 494.73,403.98 498.01,403.98 501.28,403.98 504.56,413.56 507.83,403.98 511.10,413.56 514.38,394.39 517.65,413.56 520.93,413.56 524.20,413.56 527.47,394.39 530.75,394.39 534.02,413.56 537.30,403.98 540.57,403.98 543.85,403.98 547.12,413.56 550.39,403.98 553.67,413.56 556.94,423.14 560.22,413.56 563.49,432.72 566.76,423.14 570.04,413.56 573.31,375.23 576.59,365.64 579.86,356.06 583.14,394.39 586.41,317.73 589.68,317.73 592.96,365.64 596.23,336.90 599.51,346.48 602.78,356.06 606.05,375.23 609.33,365.64 612.60,356.06 615.88,356.06 619.15,346.48 622.42,336.90 625.70,327.31 628.97,365.64 632.25,394.39 635.52,394.39 638.80,394.39 642.07,375.23 645.34,384.81 648.62,394.39 651.89,394.39 655.17,413.56 658.44,394.39 661.71,394.39 664.99,394.39 668.26,394.39 671.54,375.23 674.81,365.64 678.08,384.81 681.36,375.23 684.63,365.64 687.91,346.48 691.18,327.31 694.46,336.90 697.73,336.90 701.00,346.48 704.28,356.06 707.55,365.64 710.83,336.90 714.10,336.90 717.37,346.48 720.65,356.06 723.92,365.64 727.20,356.06 730.47,356.06 733.75,365.64 737.02,346.48 740.29,365.64 743.57,365.64 746.84,327.31 750.12,327.31 753.39,317.73 756.66,336.90 759.94,231.48 763.21,298.56 766.49,327.31 769.76,336.90 773.03,346.48 776.31,356.06 779.58,336.90 782.86,346.48 786.13,336.90 789.41,269.82 792.68,241.07 795.95,260.23 799.23,250.65 802.50,260.23 805.78,308.15 809.05,241.07 812.32,202.73 815.60,183.57 818.87,183.57 822.15,173.99 825.42,154.82 828.69,173.99 831.97,202.73 835.24,193.15 838.52,202.73 841.79,212.32 845.07,202.73 848.34,221.90 851.61,241.07 854.89,250.65 858.16,250.65 861.44,260.23 864.71,260.23 867.98,250.65 871.26,260.23 874.53,288.98 877.81,304.91 881.08,304.91 884.36,304.91 887.63,314.86 890.90,314.86 894.18,255.14 897.45,215.32 900.73,195.41 904.00,195.41" />
<text x="780.00" y="104.00" font-size="14" font-family="Arial" fill="#2ca02c" text-anchor="start">MA20x60</text>
</svg>