<svg xmlns="http://www.w3.org/2000/svg" width="960" height="520" viewBox="0 0 960 520"><rect width="100%" height="100%" fill="white" />
<text x="56.00" y="32.00" font-size="20" font-family="Arial" fill="#1f2933" text-anchor="start">聯發科(2454) Backtest Equity Curves</text>
<line x1="56" y1="464" x2="904" y2="464" stroke="#cbd2d9" />
<line x1="56" y1="56" x2="56" y2="464" stroke="#cbd2d9" />
<text x="16.00" y="38.00" font-size="12" font-family="Arial" fill="#52606d" text-anchor="start">Equity Multiple</text>
<line x1="56" y1="464.00" x2="904" y2="464.00" stroke="#edf2f7" />
<line x1="52" y1="464.00" x2="56" y2="464.00" stroke="#9fb3c8" />
<text x="48.00" y="468.00" font-size="11" font-family="Arial" fill="#52606d" text-anchor="end">0.69</text>
<line x1="56" y1="362.00" x2="904" y2="362.00" stroke="#edf2f7" />
<line x1="52" y1="362.00" x2="56" y2="362.00" stroke="#9fb3c8" />
<text x="48.00" y="366.00" font-size="11" font-family="Arial" fill="#52606d" text-anchor="end">1.51</text>
<line x1="56" y1="260.00" x2="904" y2="260.00" stroke="#edf2f7" />
<line x1="52" y1="260.00" x2="56" y2="260.00" stroke="#9fb3c8" />
<text x="48.00" y="264.00" font-size="11" font-family="Arial" fill="#52606d" text-anchor="end">2.34</text>
<line x1="56" y1="158.00" x2="904" y2="158.00" stroke="#edf2f7" />
<line x1="52" y1="158.00" x2="56" y2="158.00" stroke="#9fb3c8" />
<text x="48.00" y="162.00" font-size="11" font-family="Arial" fill="#52606d" text-anchor="end">3.16</text>
<line x1="56" y1="56.00" x2="904" y2="56.00" stroke="#edf2f7" />
<line x1="52" y1="56.00" x2="56" y2="56.00" stroke="#9fb3c8" />
<text x="48.00" y="60.00" font-size="11" font-family="Arial" fill="#52606d" text-anchor="end">3.99</text>
<line x1="56.00" y1="464" x2="56.00" y2="468" stroke="#9fb3c8" />
<text x="56.00" y="482.00" font-size="11" font-family="Arial" fill="#52606d" text-anchor="middle">06/19</text>
<line x1="226.25" y1="464" x2="226.25" y2="468" stroke="#9fb3c8" />
<text x="226.25" y="482.00" font-size="11" font-family="Arial" fill="#52606d" text-anchor="middle">09/02</text>
<line x1="396.51" y1="464" x2="396.51" y2="468" stroke="#9fb3c8" />
<text x="396.51" y="482.00" font-size="11" font-family="Arial" fill="#52606d" text-anchor="middle">11/19</text>
<line x1="563.49" y1="464" x2="563.49" y2="468" stroke="#9fb3c8" />
<text x="563.49" y="482.00" font-size="11" font-family="Arial" fill="#52606d" text-anchor="middle">02/02</text>
<line x1="733.75" y1="464" x2="733.75" y2="468" stroke="#9fb3c8" />
<text x="733.75" y="482.00" font-size="11" font-family="Arial" fill="#52606d" text-anchor="middle">04/29</text>
<line x1="904.00" y1="464" x2="904.00" y2="468" stroke="#9fb3c8" />
<text x="904.00" y="482.00" font-size="11" font-family="Arial" fill="#52606d" text-anchor="middle">07/14</text>
<polyline fill="none" stroke="#7f7f7f" stroke-width="2" points="56.00,425.28 59.27,426.75 62.55,426.26 65.82,424.79 69.10,422.35 72.37,422.84 75.64,423.33 78.92,426.75 82.19,424.30 85.47,422.35 88.74,422.35 92.02,420.36 95.29,421.36 98.56,422.35 101.84,413.89 105.11,409.41 108.39,407.42 111.66,410.90 114.93,409.91 118.21,408.41 121.48,410.40 124.76,408.41 128.03,406.92 131.31,406.42 134.58,406.42 137.85,406.42 141.13,406.42 144.40,409.41 147.68,413.39 150.95,411.40 154.22,412.39 157.50,416.38 160.77,415.38 164.05,417.37 167.32,413.89 170.59,414.39 173.87,413.89 177.14,413.39 180.42,412.39 183.69,410.40 186.97,412.39 190.24,408.41 193.51,410.40 196.79,413.89 200.06,412.89 203.34,412.89 206.61,408.41 209.88,409.41 213.16,409.41 216.43,410.90 219.71,412.39 222.98,413.39 226.25,413.39 229.53,409.91 232.80,410.90 236.08,405.92 239.35,406.42 242.63,398.46 245.90,400.45 249.17,401.44 252.45,400.94 255.72,400.94 259.00,395.97 262.27,398.46 265.54,398.46 268.82,405.42 272.09,408.91 275.37,411.90 278.64,416.38 281.92,414.88 285.19,418.37 288.46,417.87 291.74,420.86 295.01,421.36 298.29,417.37 301.56,416.88 304.83,415.88 308.11,414.88 311.38,417.87 314.66,418.87 317.93,417.87 321.20,416.38 324.48,416.38 327.75,415.38 331.03,415.38 334.30,416.38 337.58,419.86 340.85,415.88 344.12,417.87 347.40,419.36 350.67,418.37 353.95,418.37 357.22,419.36 360.49,417.87 363.77,416.38 367.04,420.36 370.32,423.35 373.59,424.34 376.86,425.34 380.14,424.84 383.41,424.84 386.69,426.33 389.96,426.33 393.24,432.31 396.51,433.30 399.78,430.81 403.06,434.80 406.33,434.30 409.61,430.81 412.88,419.36 416.15,415.38 419.43,409.91 422.70,404.93 425.98,407.91 429.25,409.41 432.53,408.91 435.80,406.92 439.07,405.42 442.35,407.42 445.62,403.43 448.90,409.91 452.17,408.91 455.44,407.42 458.72,407.42 461.99,406.92 465.27,407.42 468.54,408.41 471.81,409.41 475.09,410.40 478.36,411.40 481.64,410.90 484.91,407.42 488.19,407.42 491.46,406.42 494.73,402.44 498.01,396.96 501.28,398.08 504.56,397.57 507.83,402.14 511.10,404.68 514.38,402.14 517.65,398.08 520.93,396.56 524.20,397.57 527.47,396.05 530.75,398.08 534.02,398.08 537.30,400.11 540.57,398.08 543.85,383.36 547.12,369.15 550.39,368.64 553.67,368.14 556.94,368.14 560.22,370.17 563.49,375.75 566.76,366.61 570.04,366.11 573.31,369.15 576.59,375.24 579.86,363.06 583.14,361.54 586.41,360.52 589.68,366.61 592.96,363.57 596.23,359.00 599.51,351.39 602.78,355.96 606.05,364.58 609.33,374.23 612.60,368.64 615.88,369.66 619.15,379.81 622.42,375.75 625.70,369.66 628.97,367.63 632.25,374.23 635.52,375.24 638.80,373.21 642.07,373.21 645.34,378.29 648.62,376.26 651.89,383.87 655.17,384.38 658.44,384.38 661.71,387.42 664.99,387.93 668.26,395.54 671.54,397.57 674.81,400.11 678.08,400.11 681.36,399.60 684.63,388.44 687.91,388.94 691.18,388.94 694.46,384.38 697.73,374.23 701.00,367.12 704.28,356.46 707.55,353.42 710.83,355.96 714.10,336.67 717.37,315.87 720.65,323.99 723.92,301.66 727.20,301.66 730.47,283.39 733.75,287.45 737.02,283.89 740.29,257.51 743.57,228.58 746.84,200.67 750.12,201.68 753.39,180.37 756.66,154.99 759.94,173.26 763.21,194.07 766.49,203.21 769.76,217.92 773.03,203.71 776.31,228.58 779.58,220.97 782.86,188.49 786.13,157.02 789.41,117.95 792.68,115.92 795.95,77.86 799.23,101.20 802.50,111.35 805.78,86.48 809.05,89.53 812.32,87.50 815.60,99.17 818.87,112.37 822.15,135.71 825.42,94.60 828.69,127.08 831.97,134.19 835.24,124.55 838.52,95.11 841.79,85.98 845.07,96.13 848.34,103.23 851.61,95.62 854.89,88.51 858.16,113.89 861.44,111.35 864.71,154.99 867.98,151.95 871.26,117.95 874.53,108.81 877.81,107.80 881.08,123.02 884.36,130.13 887.63,137.33 890.90,140.90 894.18,148.05 897.45,148.05 900.73,158.26 904.00,175.10" />
<text x="780.00" y="60.00" font-size="14" font-family="Arial" fill="#7f7f7f" text-anchor="start">BuyHold</text>
<polyline fill="none" stroke="#1f77b4" stroke-width="2" points="56.00,425.28 59.27,425.28 62.55,425.28 65.82,425.28 69.10,425.28 72.37,425.28 75.64,425.28 78.92,425.28 82.19,425.28 85.47,425.28 88.74,425.28 92.02,425.28 95.29,425.28 98.56,425.28 101.84,425.28 105.11,425.28 108.39,425.28 111.66,425.28 114.93,425.28 118.21,425.28 121.48,425.28 124.76,425.28 128.03,425.28 131.31,425.28 134.58,425.28 137.85,425.28 141.13,425.28 144.40,425.28 147.68,425.28 150.95,425.28 154.22,425.28 157.50,425.28 160.77,425.28 164.05,425.28 167.32,425.28 170.59,425.28 173.87,425.28 177.14,425.28 180.42,425.28 183.69,425.28 186.97,425.28 190.24,425.28 193.51,425.28 196.79,425.28 200.06,425.28 203.34,425.28 206.61,425.28 209.88,425.28 213.16,425.28 216.43,425.28 219.71,425.28 222.98,425.28 226.25,425.28 229.53,425.28 232.80,425.28 236.08,425.28 239.35,425.28 242.63,425.28 245.90,425.28 249.17,425.28 252.45,425.28 255.72,425.28 259.00,425.28 262.27,425.28 265.54,425.28 268.82,425.28 272.09,425.28 275.37,425.28 278.64,425.28 281.92,425.28 285.19,425.28 288.46,425.28 291.74,425.28 295.01,425.28 298.29,425.28 301.56,425.28 304.83,425.28 308.11,425.28 311.38,425.28 314.66,425.28 317.93,425.28 321.20,425.28 324.48,425.28 327.75,425.28 331.03,425.28 334.30,425.28 337.58,425.28 340.85,425.28 344.12,425.28 347.40,425.28 350.67,425.28 353.95,425.28 357.22,425.28 360.49,425.28 363.77,425.28 367.04,425.28 370.32,425.28 373.59,425.28 376.86,425.28 380.14,425.28 383.41,425.28 386.69,425.28 389.96,425.28 393.24,425.28 396.51,425.28 399.78,425.28 403.06,425.28 406.33,425.28 409.61,425.28 412.88,425.28 416.15,425.28 419.43,425.28 422.70,425.28 425.98,425.28 429.25,425.28 432.53,425.28 435.80,425.28 439.07,425.28 442.35,425.28 445.62,425.28 448.90,425.28 452.17,425.28 455.44,425.28 458.72,425.28 461.99,425.28 465.27,425.28 468.54,425.28 471.81,425.28 475.09,425.28 478.36,425.28 481.64,425.28 484.91,425.28 488.19,425.28 491.46,425.28 494.73,425.28 498.01,425.28 501.28,425.28 504.56,425.28 507.83,425.28 511.10,425.28 514.38,425.28 517.65,425.28 520.93,425.28 524.20,425.28 527.47,425.28 530.75,425.28 534.02,425.28 537.30,425.28 540.57,425.28 543.85,425.28 547.12,425.28 550.39,425.28 553.67,425.28 556.94,425.28 560.22,425.28 563.49,425.28 566.76,425.28 570.04,425.28 573.31,425.28 576.59,425.28 579.86,425.28 583.14,425.28 586.41,425.28 589.68,425.28 592.96,425.28 596.23,425.28 599.51,425.28 602.78,425.28 606.05,425.28 609.33,425.28 612.60,425.28 615.88,425.28 619.15,425.28 622.42,425.28 625.70,425.28 628.97,425.28 632.25,425.28 635.52,425.28 638.80,425.28 642.07,425.28 645.34,425.28 648.62,425.28 651.89,425.28 655.17,425.28 658.44,425.28 661.71,425.28 664.99,425.28 668.26,425.28 671.54,425.28 674.81,425.28 678.08,425.28 681.36,425.28 684.63,425.28 687.91,425.28 691.18,425.28 694.46,425.28 697.73,425.28 701.00,425.28 704.28,425.28 707.55,425.28 710.83,426.88 714.10,414.69 717.37,401.54 720.65,406.67 723.92,392.56 727.20,392.56 730.47,381.01 733.75,383.57 737.02,381.33 740.29,364.64 743.57,346.36 746.84,328.71 750.12,329.35 753.39,315.88 756.66,299.84 759.94,311.39 763.21,324.54 766.49,330.31 769.76,339.62 773.03,330.64 776.31,346.36 779.58,341.54 782.86,321.01 786.13,301.12 789.41,276.42 792.68,275.13 795.95,251.07 799.23,265.83 802.50,272.24 805.78,256.52 809.05,258.45 812.32,257.17 815.60,264.54 818.87,272.89 822.15,287.64 825.42,261.66 828.69,282.19 831.97,286.68 835.24,280.59 838.52,261.98 841.79,256.20 845.07,262.62 848.34,267.11 851.61,262.30 854.89,257.81 858.16,273.85 861.44,272.24 864.71,299.84 867.98,297.91 871.26,276.42 874.53,270.64 877.81,270.00 881.08,279.62 884.36,284.11 887.63,288.67 890.90,290.92 894.18,295.44 897.45,295.44 900.73,301.90 904.00,312.55" />
<text x="780.00" y="82.00" font-size="14" font-family="Arial" fill="#1f77b4" text-anchor="start">MA200</text>
<polyline fill="none" stroke="#2ca02c" stroke-width="2" points="56.00,425.28 59.27,425.28 62.55,425.28 65.82,425.28 69.10,425.28 72.37,425.28 75.64,425.28 78.92,425.28 82.19,425.28 85.47,425.28 88.74,425.28 92.02,425.28 95.29,425.28 98.56,425.28 101.84,425.28 105.11,425.28 108.39,425.28 111.66,425.28 114.93,425.28 118.21,425.28 121.48,425.28 124.76,425.28 128.03,425.28 131.31,425.28 134.58,425.28 137.85,425.28 141.13,425.28 144.40,425.28 147.68,425.28 150.95,425.28 154.22,425.28 157.50,425.28 160.77,425.28 164.05,425.28 167.32,425.28 170.59,425.28 173.87,425.28 177.14,425.28 180.42,425.28 183.69,425.28 186.97,425.28 190.24,425.28 193.51,425.28 196.79,425.28 200.06,425.28 203.34,425.28 206.61,425.28 209.88,425.28 213.16,425.28 216.43,425.28 219.71,425.28 222.98,425.28 226.25,425.28 229.53,425.28 232.80,425.28 236.08,425.28 239.35,425.28 242.63,425.28 245.90,425.28 249.17,425.28 252.45,424.86 255.72,424.86 259.00,420.69 262.27,422.78 265.54,422.78 268.82,428.62 272.09,431.54 275.37,434.04 278.64,437.80 281.92,436.55 285.19,439.47 288.46,439.05 291.74,441.56 295.01,441.97 298.29,438.63 301.56,438.22 304.83,437.38 308.11,436.55 311.38,439.05 314.66,439.05 317.93,439.05 321.20,439.05 324.48,439.05 327.75,439.05 331.03,439.05 334.30,439.05 337.58,439.05 340.85,439.05 344.12,439.05 347.40,439.05 350.67,439.05 353.95,439.05 357.22,439.05 360.49,439.05 363.77,439.05 367.04,439.05 370.32,439.05 373.59,439.05 376.86,439.05 380.14,439.05 383.41,439.05 386.69,439.05 389.96,439.05 393.24,439.05 396.51,439.05 399.78,439.05 403.06,439.05 406.33,439.05 409.61,439.05 412.88,439.05 416.15,439.05 419.43,439.05 422.70,439.05 425.98,439.05 429.25,439.05 432.53,439.05 435.80,439.05 439.07,439.05 442.35,439.05 445.62,439.05 448.90,439.05 452.17,439.05 455.44,439.05 458.72,439.05 461.99,438.66 465.27,439.05 468.54,439.82 471.81,440.60 475.09,441.37 478.36,442.14 481.64,441.76 484.91,439.05 488.19,439.05 491.46,438.28 494.73,435.19 498.01,430.94 501.28,431.80 504.56,431.41 507.83,434.95 511.10,436.92 514.38,434.95 517.65,431.80 520.93,430.62 524.20,431.41 527.47,430.23 530.75,431.80 534.02,431.80 537.30,433.38 540.57,431.80 543.85,420.38 547.12,409.35 550.39,408.95 553.67,408.56 556.94,408.56 560.22,410.14 563.49,414.47 566.76,407.38 570.04,406.99 573.31,409.35 576.59,414.08 579.86,404.62 583.14,403.44 586.41,402.65 589.68,407.38 592.96,405.02 596.23,401.47 599.51,395.56 602.78,399.11 606.05,405.80 609.33,413.29 612.60,408.95 615.88,409.74 619.15,417.62 622.42,414.47 625.70,409.74 628.97,408.17 632.25,413.29 635.52,414.08 638.80,412.50 642.07,412.50 645.34,416.44 648.62,414.86 651.89,420.77 655.17,421.17 658.44,421.17 661.71,423.53 664.99,423.92 668.26,429.83 671.54,431.41 674.81,433.38 678.08,433.38 681.36,432.98 684.63,432.98 687.91,432.98 691.18,432.98 694.46,432.98 697.73,432.98 701.00,432.98 704.28,432.98 707.55,432.98 710.83,432.98 714.10,432.98 717.37,432.98 720.65,432.98 723.92,432.98 727.20,432.98 730.47,424.42 733.75,426.33 737.02,424.66 740.29,412.29 743.57,398.74 746.84,385.66 750.12,386.14 753.39,376.15 756.66,364.26 759.94,372.82 763.21,382.57 766.49,386.85 769.76,393.75 773.03,387.09 776.31,398.74 779.58,395.17 782.86,379.95 786.13,365.21 789.41,346.90 792.68,345.94 795.95,328.11 799.23,339.05 802.50,343.80 805.78,332.15 809.05,333.58 812.32,332.63 815.60,338.10 818.87,344.28 822.15,355.22 825.42,335.96 828.69,351.18 831.97,354.51 835.24,349.99 838.52,336.19 841.79,331.91 845.07,336.67 848.34,340.00 851.61,336.43 854.89,333.10 858.16,344.99 861.44,343.80 864.71,364.26 867.98,362.83 871.26,346.90 874.53,342.61 877.81,342.14 881.08,349.27 884.36,352.60 887.63,355.98 890.90,357.65 894.18,361.00 897.45,361.00 900.73,365.78 904.00,373.68" />
<text x="780.00" y="104.00" font-size="14" font-family="Arial" fill="#2ca02c" text-anchor="start">MA20x60</text>
</svg>