<svg xmlns="http://www.w3.org/2000/svg" width="960" height="520" viewBox="0 0 960 520"><rect width="100%" height="100%" fill="white" />
<text x="56.00" y="32.00" font-size="20" font-family="Arial" fill="#1f2933" text-anchor="start">富邦金(2881) Backtest Equity Curves</text>
<line x1="56" y1="464" x2="904" y2="464" stroke="#cbd2d9" />
<line x1="56" y1="56" x2="56" y2="464" stroke="#cbd2d9" />
<text x="16.00" y="38.00" font-size="12" font-family="Arial" fill="#52606d" text-anchor="start">Equity Multiple</text>
<line x1="56" y1="464.00" x2="904" y2="464.00" stroke="#edf2f7" />
<line x1="52" y1="464.00" x2="56" y2="464.00" stroke="#9fb3c8" />
<text x="48.00" y="468.00" font-size="11" font-family="Arial" fill="#52606d" text-anchor="end">0.94</text>
<line x1="56" y1="362.00" x2="904" y2="362.00" stroke="#edf2f7" />
<line x1="52" y1="362.00" x2="56" y2="362.00" stroke="#9fb3c8" />
<text x="48.00" y="366.00" font-size="11" font-family="Arial" fill="#52606d" text-anchor="end">1.15</text>
<line x1="56" y1="260.00" x2="904" y2="260.00" stroke="#edf2f7" />
<line x1="52" y1="260.00" x2="56" y2="260.00" stroke="#9fb3c8" />
<text x="48.00" y="264.00" font-size="11" font-family="Arial" fill="#52606d" text-anchor="end">1.36</text>
<line x1="56" y1="158.00" x2="904" y2="158.00" stroke="#edf2f7" />
<line x1="52" y1="158.00" x2="56" y2="158.00" stroke="#9fb3c8" />
<text x="48.00" y="162.00" font-size="11" font-family="Arial" fill="#52606d" text-anchor="end">1.57</text>
<line x1="56" y1="56.00" x2="904" y2="56.00" stroke="#edf2f7" />
<line x1="52" y1="56.00" x2="56" y2="56.00" stroke="#9fb3c8" />
<text x="48.00" y="60.00" font-size="11" font-family="Arial" fill="#52606d" text-anchor="end">1.78</text>
<line x1="56.00" y1="464" x2="56.00" y2="468" stroke="#9fb3c8" />
<text x="56.00" y="482.00" font-size="11" font-family="Arial" fill="#52606d" text-anchor="middle">06/17</text>
<line x1="226.25" y1="464" x2="226.25" y2="468" stroke="#9fb3c8" />
<text x="226.25" y="482.00" font-size="11" font-family="Arial" fill="#52606d" text-anchor="middle">08/29</text>
<line x1="396.51" y1="464" x2="396.51" y2="468" stroke="#9fb3c8" />
<text x="396.51" y="482.00" font-size="11" font-family="Arial" fill="#52606d" text-anchor="middle">11/17</text>
<line x1="563.49" y1="464" x2="563.49" y2="468" stroke="#9fb3c8" />
<text x="563.49" y="482.00" font-size="11" font-family="Arial" fill="#52606d" text-anchor="middle">01/29</text>
<line x1="733.75" y1="464" x2="733.75" y2="468" stroke="#9fb3c8" />
<text x="733.75" y="482.00" font-size="11" font-family="Arial" fill="#52606d" text-anchor="middle">04/27</text>
<line x1="904.00" y1="464" x2="904.00" y2="468" stroke="#9fb3c8" />
<text x="904.00" y="482.00" font-size="11" font-family="Arial" fill="#52606d" text-anchor="middle">07/10</text>
<polyline fill="none" stroke="#7f7f7f" stroke-width="2" points="56.00,434.33 59.27,425.33 62.55,429.27 65.82,439.38 69.10,440.51 72.37,432.64 75.64,434.89 78.92,432.64 82.19,432.64 85.47,425.90 88.74,425.01 92.02,426.78 95.29,426.19 98.56,438.01 101.84,432.10 105.11,436.83 108.39,442.14 111.66,430.33 114.93,428.56 118.21,428.56 121.48,423.24 124.76,417.92 128.03,419.69 131.31,422.06 134.58,425.60 137.85,429.15 141.13,421.47 144.40,422.65 147.68,423.83 150.95,427.37 154.22,432.10 157.50,428.56 160.77,429.74 164.05,420.28 167.32,420.28 170.59,417.92 173.87,415.56 177.14,413.19 180.42,407.29 183.69,404.33 186.97,400.20 190.24,391.93 193.51,391.93 196.79,390.75 200.06,396.06 203.34,403.15 206.61,394.88 209.88,397.24 213.16,387.20 216.43,401.97 219.71,410.24 222.98,413.19 226.25,420.87 229.53,417.33 232.80,403.74 236.08,408.47 239.35,405.51 242.63,402.56 245.90,408.47 249.17,406.11 252.45,399.02 255.72,403.15 259.00,393.70 262.27,391.93 265.54,391.93 268.82,392.52 272.09,394.88 275.37,397.83 278.64,393.11 281.92,394.29 285.19,390.75 288.46,395.77 291.74,392.74 295.01,381.84 298.29,387.29 301.56,387.29 304.83,392.74 308.11,390.32 311.38,384.26 314.66,372.76 317.93,384.87 321.20,382.45 324.48,373.97 327.75,372.76 331.03,374.57 334.30,377.00 337.58,367.91 340.85,361.86 344.12,360.04 347.40,358.83 350.67,366.10 353.95,360.65 357.22,357.01 360.49,364.28 363.77,359.43 367.04,356.41 370.32,367.91 373.59,360.65 376.86,368.52 380.14,367.91 383.41,365.49 386.69,361.25 389.96,347.32 393.24,351.56 396.51,360.65 399.78,374.57 403.06,383.05 406.33,375.78 409.61,379.42 412.88,359.43 416.15,353.98 419.43,352.17 422.70,347.93 425.98,355.80 429.25,360.65 432.53,358.83 435.80,352.77 439.07,343.08 442.35,341.87 445.62,338.24 448.90,333.40 452.17,340.06 455.44,340.66 458.72,330.37 461.99,337.64 465.27,335.21 468.54,327.34 471.81,330.37 475.09,327.34 478.36,321.89 481.64,322.50 484.91,323.10 488.19,329.16 491.46,321.89 494.73,329.16 498.01,334.61 501.28,337.64 504.56,327.95 507.83,332.79 511.10,334.61 514.38,329.16 517.65,338.24 520.93,341.27 524.20,346.11 527.47,348.53 530.75,346.72 534.02,341.27 537.30,341.27 540.57,347.32 543.85,353.38 547.12,353.38 550.39,350.35 553.67,352.17 556.94,357.01 560.22,356.41 563.49,357.62 566.76,366.10 570.04,368.52 573.31,360.65 576.59,355.20 579.86,350.35 583.14,357.01 586.41,348.53 589.68,344.30 592.96,340.06 596.23,337.03 599.51,346.72 602.78,353.98 606.05,346.11 609.33,353.38 612.60,352.77 615.88,372.76 619.15,368.52 622.42,378.81 625.70,388.50 628.97,381.84 632.25,376.39 635.52,375.18 638.80,383.05 642.07,378.81 645.34,372.76 648.62,374.57 651.89,382.45 655.17,380.02 658.44,390.92 661.71,389.11 664.99,378.81 668.26,380.02 671.54,385.47 674.81,393.34 678.08,395.77 681.36,384.87 684.63,384.87 687.91,385.47 691.18,376.39 694.46,380.63 697.73,386.08 701.00,391.53 704.28,386.08 707.55,386.68 710.83,384.26 714.10,383.66 717.37,388.50 720.65,385.47 723.92,381.84 727.20,381.84 730.47,384.87 733.75,384.26 737.02,380.02 740.29,363.67 743.57,371.55 746.84,365.49 750.12,358.22 753.39,354.59 756.66,344.30 759.94,330.97 763.21,338.24 766.49,349.14 769.76,343.08 773.03,343.69 776.31,334.61 779.58,340.06 782.86,327.95 786.13,336.42 789.41,334.61 792.68,340.66 795.95,324.92 799.23,289.80 802.50,250.44 805.78,250.44 809.05,250.44 812.32,247.41 815.60,229.24 818.87,232.27 822.15,226.22 825.42,201.99 828.69,214.10 831.97,159.61 835.24,174.74 838.52,156.58 841.79,177.77 845.07,144.47 848.34,117.22 851.61,96.02 854.89,80.88 858.16,77.86 861.44,83.91 864.71,102.08 867.98,93.00 871.26,105.11 874.53,138.41 877.81,132.36 881.08,149.57 884.36,168.36 887.63,158.96 890.90,155.83 894.18,146.44 897.45,127.66 900.73,137.05 904.00,137.05" />
<text x="780.00" y="60.00" font-size="14" font-family="Arial" fill="#7f7f7f" text-anchor="start">BuyHold</text>
<polyline fill="none" stroke="#1f77b4" stroke-width="2" points="56.00,434.33 59.27,434.33 62.55,434.33 65.82,434.33 69.10,434.33 72.37,434.33 75.64,434.33 78.92,434.33 82.19,434.33 85.47,434.33 88.74,434.33 92.02,434.33 95.29,434.33 98.56,434.33 101.84,434.33 105.11,434.33 108.39,434.33 111.66,434.33 114.93,434.33 118.21,434.33 121.48,434.33 124.76,434.33 128.03,434.33 131.31,434.33 134.58,434.33 137.85,434.33 141.13,434.33 144.40,434.33 147.68,434.33 150.95,434.33 154.22,434.33 157.50,434.33 160.77,434.33 164.05,434.33 167.32,434.33 170.59,434.33 173.87,434.33 177.14,434.33 180.42,434.33 183.69,434.33 186.97,434.33 190.24,434.33 193.51,434.33 196.79,434.33 200.06,434.33 203.34,434.33 206.61,434.33 209.88,434.33 213.16,434.33 216.43,434.33 219.71,434.33 222.98,434.33 226.25,434.33 229.53,434.33 232.80,434.33 236.08,434.33 239.35,434.33 242.63,434.33 245.90,434.33 249.17,434.33 252.45,434.33 255.72,434.33 259.00,434.33 262.27,434.33 265.54,434.33 268.82,434.33 272.09,434.33 275.37,434.33 278.64,434.33 281.92,434.33 285.19,434.33 288.46,434.33 291.74,434.33 295.01,434.33 298.29,434.33 301.56,434.33 304.83,434.33 308.11,434.33 311.38,434.33 314.66,434.33 317.93,434.33 321.20,434.33 324.48,434.33 327.75,434.33 331.03,434.33 334.30,434.33 337.58,434.33 340.85,434.33 344.12,434.33 347.40,434.33 350.67,434.33 353.95,434.33 357.22,434.33 360.49,434.33 363.77,434.33 367.04,434.33 370.32,434.33 373.59,434.33 376.86,434.33 380.14,434.33 383.41,434.33 386.69,434.33 389.96,434.33 393.24,434.33 396.51,434.33 399.78,434.33 403.06,434.33 406.33,434.33 409.61,434.33 412.88,434.33 416.15,434.33 419.43,434.33 422.70,434.33 425.98,434.33 429.25,434.33 432.53,434.33 435.80,434.33 439.07,434.33 442.35,434.33 445.62,434.33 448.90,434.33 452.17,434.33 455.44,434.33 458.72,434.33 461.99,434.33 465.27,434.33 468.54,434.33 471.81,434.33 475.09,434.33 478.36,434.33 481.64,434.33 484.91,434.33 488.19,434.33 491.46,434.33 494.73,434.33 498.01,434.33 501.28,434.33 504.56,434.33 507.83,434.33 511.10,434.33 514.38,434.33 517.65,434.33 520.93,434.33 524.20,434.33 527.47,434.33 530.75,434.33 534.02,434.33 537.30,434.33 540.57,434.33 543.85,434.33 547.12,434.33 550.39,434.33 553.67,434.33 556.94,434.33 560.22,434.33 563.49,434.33 566.76,434.33 570.04,434.33 573.31,434.33 576.59,434.33 579.86,434.33 583.14,434.33 586.41,434.33 589.68,434.33 592.96,434.33 596.23,434.33 599.51,434.33 602.78,434.33 606.05,434.33 609.33,434.33 612.60,434.33 615.88,434.33 619.15,434.33 622.42,434.33 625.70,434.33 628.97,434.33 632.25,434.33 635.52,434.33 638.80,434.33 642.07,434.33 645.34,434.33 648.62,434.33 651.89,434.33 655.17,434.33 658.44,434.33 661.71,434.33 664.99,434.33 668.26,434.33 671.54,434.33 674.81,434.33 678.08,434.33 681.36,434.33 684.63,434.33 687.91,434.33 691.18,434.33 694.46,434.33 697.73,434.33 701.00,434.33 704.28,434.33 707.55,434.33 710.83,434.33 714.10,434.33 717.37,434.33 720.65,434.33 723.92,434.33 727.20,434.33 730.47,434.33 733.75,434.33 737.02,434.33 740.29,434.33 743.57,441.19 746.84,435.91 750.12,429.57 753.39,426.40 756.66,417.43 759.94,405.81 763.21,412.14 766.49,421.65 769.76,416.37 773.03,416.90 776.31,408.98 779.58,413.73 782.86,403.17 786.13,410.56 789.41,408.98 792.68,414.26 795.95,400.52 799.23,369.89 802.50,335.56 805.78,335.56 809.05,335.56 812.32,332.92 815.60,317.08 818.87,319.72 822.15,314.44 825.42,293.31 828.69,303.87 831.97,256.34 835.24,269.54 838.52,253.70 841.79,272.18 845.07,243.13 848.34,219.37 851.61,200.88 854.89,187.68 858.16,185.04 861.44,190.32 864.71,206.16 867.98,198.24 871.26,208.80 874.53,237.85 877.81,232.57 881.08,247.59 884.36,263.97 887.63,255.78 890.90,253.05 894.18,244.86 897.45,228.48 900.73,236.67 904.00,236.67" />
<text x="780.00" y="82.00" font-size="14" font-family="Arial" fill="#1f77b4" text-anchor="start">MA200</text>
<polyline fill="none" stroke="#2ca02c" stroke-width="2" points="56.00,434.33 59.27,434.33 62.55,434.33 65.82,434.33 69.10,434.33 72.37,434.33 75.64,434.33 78.92,434.33 82.19,434.33 85.47,434.33 88.74,434.33 92.02,434.33 95.29,434.33 98.56,434.33 101.84,434.33 105.11,434.33 108.39,434.33 111.66,434.33 114.93,434.33 118.21,434.33 121.48,434.33 124.76,434.33 128.03,434.33 131.31,434.33 134.58,434.33 137.85,434.33 141.13,434.33 144.40,434.33 147.68,434.33 150.95,434.33 154.22,434.33 157.50,434.33 160.77,434.33 164.05,434.33 167.32,434.33 170.59,434.33 173.87,434.33 177.14,434.33 180.42,434.33 183.69,434.33 186.97,434.33 190.24,434.33 193.51,434.33 196.79,434.33 200.06,434.33 203.34,434.33 206.61,434.33 209.88,434.33 213.16,434.33 216.43,434.33 219.71,434.33 222.98,434.33 226.25,434.33 229.53,434.33 232.80,434.33 236.08,434.33 239.35,434.33 242.63,434.33 245.90,434.33 249.17,434.33 252.45,427.63 255.72,431.54 259.00,422.61 262.27,420.93 265.54,420.93 268.82,421.49 272.09,423.72 275.37,426.51 278.64,422.05 281.92,423.16 285.19,419.82 288.46,424.56 291.74,421.70 295.01,411.40 298.29,416.55 301.56,416.55 304.83,421.70 308.11,419.41 311.38,413.69 314.66,402.82 317.93,414.26 321.20,411.97 324.48,403.97 327.75,402.82 331.03,404.54 334.30,406.83 337.58,398.24 340.85,392.52 344.12,390.81 347.40,389.66 350.67,396.53 353.95,391.38 357.22,387.95 360.49,394.81 363.77,390.24 367.04,387.38 370.32,398.24 373.59,391.38 376.86,398.82 380.14,398.24 383.41,395.96 386.69,391.95 389.96,378.79 393.24,382.80 396.51,391.38 399.78,404.54 403.06,412.55 406.33,405.68 409.61,409.11 412.88,390.24 416.15,385.09 419.43,383.37 422.70,379.37 425.98,386.80 429.25,391.38 432.53,389.66 435.80,383.94 439.07,374.79 442.35,373.65 445.62,370.21 448.90,365.64 452.17,371.93 455.44,372.50 458.72,362.78 461.99,369.64 465.27,367.35 468.54,359.92 471.81,362.78 475.09,359.92 478.36,354.77 481.64,355.34 484.91,355.91 488.19,361.63 491.46,354.77 494.73,361.63 498.01,366.78 501.28,369.64 504.56,360.49 507.83,365.07 511.10,366.78 514.38,361.63 517.65,370.21 520.93,373.07 524.20,377.65 527.47,379.94 530.75,378.22 534.02,373.07 537.30,373.07 540.57,378.79 543.85,384.52 547.12,384.52 550.39,381.66 553.67,383.37 556.94,387.95 560.22,387.38 563.49,388.52 566.76,396.53 570.04,398.82 573.31,398.82 576.59,398.82 579.86,398.82 583.14,398.82 586.41,398.82 589.68,398.82 592.96,398.82 596.23,398.82 599.51,398.82 602.78,398.82 606.05,398.82 609.33,398.82 612.60,398.82 615.88,398.82 619.15,398.82 622.42,398.82 625.70,398.82 628.97,398.82 632.25,398.82 635.52,398.82 638.80,398.82 642.07,398.82 645.34,398.82 648.62,398.82 651.89,398.82 655.17,398.82 658.44,398.82 661.71,398.82 664.99,398.82 668.26,398.82 671.54,398.82 674.81,398.82 678.08,398.82 681.36,398.82 684.63,398.82 687.91,398.82 691.18,398.82 694.46,398.82 697.73,398.82 701.00,398.82 704.28,398.82 707.55,398.82 710.83,398.82 714.10,398.82 717.37,398.82 720.65,398.82 723.92,398.82 727.20,398.82 730.47,398.82 733.75,398.82 737.02,398.82 740.29,398.82 743.57,398.82 746.84,398.82 750.12,398.82 753.39,398.82 756.66,398.82 759.94,398.82 763.21,398.82 766.49,398.82 769.76,393.29 773.03,393.84 776.31,385.56 779.58,390.53 782.86,379.48 786.13,387.21 789.41,385.56 792.68,391.08 795.95,376.72 799.23,344.67 802.50,308.76 805.78,308.76 809.05,308.76 812.32,305.99 815.60,289.42 818.87,292.18 822.15,286.65 825.42,264.55 828.69,275.60 831.97,225.88 835.24,239.69 838.52,223.11 841.79,242.45 845.07,212.06 848.34,187.20 851.61,167.86 854.89,154.05 858.16,151.29 861.44,156.81 864.71,173.39 867.98,165.10 871.26,176.15 874.53,206.54 877.81,201.01 881.08,216.72 884.36,233.86 887.63,225.29 890.90,222.44 894.18,213.87 897.45,196.73 900.73,205.30 904.00,205.30" />
<text x="780.00" y="104.00" font-size="14" font-family="Arial" fill="#2ca02c" text-anchor="start">MA20x60</text>
</svg>