<svg xmlns="http://www.w3.org/2000/svg" width="960" height="520" viewBox="0 0 960 520"><rect width="100%" height="100%" fill="white" />
<text x="56.00" y="32.00" font-size="20" font-family="Arial" fill="#1f2933" text-anchor="start">欣興(3037) Backtest Equity Curves</text>
<line x1="56" y1="464" x2="904" y2="464" stroke="#cbd2d9" />
<line x1="56" y1="56" x2="56" y2="464" stroke="#cbd2d9" />
<text x="16.00" y="38.00" font-size="12" font-family="Arial" fill="#52606d" text-anchor="start">Equity Multiple</text>
<line x1="56" y1="464.00" x2="904" y2="464.00" stroke="#edf2f7" />
<line x1="52" y1="464.00" x2="56" y2="464.00" stroke="#9fb3c8" />
<text x="48.00" y="468.00" font-size="11" font-family="Arial" fill="#52606d" text-anchor="end">0.43</text>
<line x1="56" y1="362.00" x2="904" y2="362.00" stroke="#edf2f7" />
<line x1="52" y1="362.00" x2="56" y2="362.00" stroke="#9fb3c8" />
<text x="48.00" y="366.00" font-size="11" font-family="Arial" fill="#52606d" text-anchor="end">2.92</text>
<line x1="56" y1="260.00" x2="904" y2="260.00" stroke="#edf2f7" />
<line x1="52" y1="260.00" x2="56" y2="260.00" stroke="#9fb3c8" />
<text x="48.00" y="264.00" font-size="11" font-family="Arial" fill="#52606d" text-anchor="end">5.41</text>
<line x1="56" y1="158.00" x2="904" y2="158.00" stroke="#edf2f7" />
<line x1="52" y1="158.00" x2="56" y2="158.00" stroke="#9fb3c8" />
<text x="48.00" y="162.00" font-size="11" font-family="Arial" fill="#52606d" text-anchor="end">7.89</text>
<line x1="56" y1="56.00" x2="904" y2="56.00" stroke="#edf2f7" />
<line x1="52" y1="56.00" x2="56" y2="56.00" stroke="#9fb3c8" />
<text x="48.00" y="60.00" font-size="11" font-family="Arial" fill="#52606d" text-anchor="end">10.4</text>
<line x1="56.00" y1="464" x2="56.00" y2="468" stroke="#9fb3c8" />
<text x="56.00" y="482.00" font-size="11" font-family="Arial" fill="#52606d" text-anchor="middle">06/24</text>
<line x1="226.25" y1="464" x2="226.25" y2="468" stroke="#9fb3c8" />
<text x="226.25" y="482.00" font-size="11" font-family="Arial" fill="#52606d" text-anchor="middle">09/05</text>
<line x1="396.51" y1="464" x2="396.51" y2="468" stroke="#9fb3c8" />
<text x="396.51" y="482.00" font-size="11" font-family="Arial" fill="#52606d" text-anchor="middle">11/24</text>
<line x1="563.49" y1="464" x2="563.49" y2="468" stroke="#9fb3c8" />
<text x="563.49" y="482.00" font-size="11" font-family="Arial" fill="#52606d" text-anchor="middle">02/05</text>
<line x1="733.75" y1="464" x2="733.75" y2="468" stroke="#9fb3c8" />
<text x="733.75" y="482.00" font-size="11" font-family="Arial" fill="#52606d" text-anchor="middle">05/05</text>
<line x1="904.00" y1="464" x2="904.00" y2="468" stroke="#9fb3c8" />
<text x="904.00" y="482.00" font-size="11" font-family="Arial" fill="#52606d" text-anchor="middle">07/17</text>
<polyline fill="none" stroke="#7f7f7f" stroke-width="2" points="56.00,440.53 59.27,439.61 62.55,439.61 65.82,439.97 69.10,439.61 72.37,440.34 75.64,440.34 78.92,438.50 82.19,438.14 85.47,439.24 88.74,438.87 92.02,436.48 95.29,434.81 98.56,435.37 101.84,436.86 105.11,432.39 108.39,431.09 111.66,431.84 114.93,432.02 118.21,431.84 121.48,433.70 124.76,432.58 128.03,432.21 131.31,432.77 134.58,432.02 137.85,429.42 141.13,428.67 144.40,430.35 147.68,431.28 150.95,431.09 154.22,431.65 157.50,430.91 160.77,430.53 164.05,428.49 167.32,429.98 170.59,430.16 173.87,430.16 177.14,431.09 180.42,428.67 183.69,429.79 186.97,431.84 190.24,431.84 193.51,431.28 196.79,429.42 200.06,428.67 203.34,424.95 206.61,425.70 209.88,427.74 213.16,431.46 216.43,432.77 219.71,432.21 222.98,431.84 226.25,431.65 229.53,431.84 232.80,431.28 236.08,428.86 239.35,428.49 242.63,427.74 245.90,428.67 249.17,424.95 252.45,426.63 255.72,426.26 259.00,422.91 262.27,422.54 265.54,422.35 268.82,423.09 272.09,423.09 275.37,426.07 278.64,425.14 281.92,423.84 285.19,424.58 288.46,423.47 291.74,422.72 295.01,421.98 298.29,421.61 301.56,424.40 304.83,427.19 308.11,422.54 311.38,419.93 314.66,421.79 317.93,421.98 321.20,421.98 324.48,422.35 327.75,423.47 331.03,420.68 334.30,421.05 337.58,419.75 340.85,421.98 344.12,420.68 347.40,415.10 350.67,418.82 353.95,420.96 357.22,420.41 360.49,421.88 363.77,420.78 367.04,420.04 370.32,419.67 373.59,415.61 376.86,417.70 380.14,419.19 383.41,418.26 386.69,421.79 389.96,417.70 393.24,421.98 396.51,420.49 399.78,416.03 403.06,415.10 406.33,411.93 409.61,412.12 412.88,408.21 416.15,408.59 419.43,408.40 422.70,407.66 425.98,401.52 429.25,399.47 432.53,397.42 435.80,396.87 439.07,397.80 442.35,397.80 445.62,399.10 448.90,401.89 452.17,402.63 455.44,404.49 458.72,401.52 461.99,399.47 465.27,401.33 468.54,400.77 471.81,399.47 475.09,399.47 478.36,399.84 481.64,399.66 484.91,400.03 488.19,395.94 491.46,395.75 494.73,397.42 498.01,396.87 501.28,397.61 504.56,390.91 507.83,387.01 511.10,388.50 514.38,388.68 517.65,379.57 520.93,369.52 524.20,366.92 527.47,362.08 530.75,359.85 534.02,355.39 537.30,357.62 540.57,349.81 543.85,344.78 547.12,353.34 550.39,340.69 553.67,345.71 556.94,338.27 560.22,337.16 563.49,345.53 566.76,355.01 570.04,352.22 573.31,343.30 576.59,344.23 579.86,330.65 583.14,315.58 586.41,310.93 589.68,302.37 592.96,302.56 596.23,309.26 599.51,326.37 602.78,314.09 606.05,320.79 609.33,336.79 612.60,323.76 615.88,308.14 619.15,302.93 622.42,292.51 625.70,277.26 628.97,279.49 632.25,265.73 635.52,265.36 638.80,275.40 642.07,295.86 645.34,310.37 648.62,293.26 651.89,294.75 655.17,293.63 658.44,297.91 661.71,316.14 664.99,299.77 668.26,288.42 671.54,271.68 674.81,250.85 678.08,248.99 681.36,244.15 684.63,248.62 687.91,259.40 691.18,251.59 694.46,241.55 697.73,242.29 701.00,229.27 704.28,217.37 707.55,215.13 710.83,210.67 714.10,187.60 717.37,169.37 720.65,174.58 723.92,182.77 727.20,153.01 730.47,142.59 733.75,145.57 737.02,162.31 740.29,148.17 743.57,177.19 746.84,161.19 750.12,155.98 753.39,149.66 756.66,153.75 759.94,176.07 763.21,177.93 766.49,177.19 769.76,175.33 773.03,144.82 776.31,120.64 779.58,113.20 782.86,77.86 786.13,79.72 789.41,100.18 792.68,89.02 795.95,90.88 799.23,118.78 802.50,109.48 805.78,120.27 809.05,134.40 812.32,142.59 815.60,121.01 818.87,152.63 822.15,163.79 825.42,145.94 828.69,124.36 831.97,116.55 835.24,113.94 838.52,121.38 841.79,107.62 845.07,119.15 848.34,135.15 851.61,102.04 854.89,118.78 858.16,118.41 861.44,83.44 864.71,94.60 867.98,117.29 871.26,121.01 874.53,139.66 877.81,168.36 881.08,159.79 884.36,155.32 887.63,155.32 890.90,144.88 894.18,155.69 897.45,132.58 900.73,152.71 904.00,185.51" />
<text x="780.00" y="60.00" font-size="14" font-family="Arial" fill="#7f7f7f" text-anchor="start">BuyHold</text>
<polyline fill="none" stroke="#1f77b4" stroke-width="2" points="56.00,440.53 59.27,440.53 62.55,440.53 65.82,440.53 69.10,440.53 72.37,440.53 75.64,440.53 78.92,440.53 82.19,440.53 85.47,440.53 88.74,440.53 92.02,440.53 95.29,440.53 98.56,440.53 101.84,440.53 105.11,440.53 108.39,440.53 111.66,440.53 114.93,440.53 118.21,440.53 121.48,440.53 124.76,440.53 128.03,440.53 131.31,440.53 134.58,440.53 137.85,440.53 141.13,440.53 144.40,440.53 147.68,440.53 150.95,440.53 154.22,440.53 157.50,440.53 160.77,440.53 164.05,440.53 167.32,440.53 170.59,440.53 173.87,440.53 177.14,440.53 180.42,440.53 183.69,440.53 186.97,440.53 190.24,440.53 193.51,440.53 196.79,440.53 200.06,440.53 203.34,440.53 206.61,440.53 209.88,440.53 213.16,440.53 216.43,440.53 219.71,440.53 222.98,440.53 226.25,440.53 229.53,440.53 232.80,440.53 236.08,440.53 239.35,440.53 242.63,440.53 245.90,440.53 249.17,440.53 252.45,440.53 255.72,440.53 259.00,440.53 262.27,440.53 265.54,440.53 268.82,440.53 272.09,440.53 275.37,440.53 278.64,440.53 281.92,440.53 285.19,440.53 288.46,440.53 291.74,440.53 295.01,440.53 298.29,440.53 301.56,440.53 304.83,440.53 308.11,440.53 311.38,440.53 314.66,440.53 317.93,440.53 321.20,440.53 324.48,440.53 327.75,440.53 331.03,440.53 334.30,440.53 337.58,440.53 340.85,440.53 344.12,440.53 347.40,440.53 350.67,440.53 353.95,440.53 357.22,440.53 360.49,440.53 363.77,440.53 367.04,440.53 370.32,440.53 373.59,440.53 376.86,440.53 380.14,440.53 383.41,440.53 386.69,440.53 389.96,440.53 393.24,440.53 396.51,440.53 399.78,440.53 403.06,440.53 406.33,440.53 409.61,440.53 412.88,440.53 416.15,440.53 419.43,440.53 422.70,440.53 425.98,440.53 429.25,440.53 432.53,440.53 435.80,440.53 439.07,440.53 442.35,440.53 445.62,440.53 448.90,440.53 452.17,440.53 455.44,440.53 458.72,440.53 461.99,440.53 465.27,440.53 468.54,440.53 471.81,440.53 475.09,440.53 478.36,440.53 481.64,440.53 484.91,440.53 488.19,440.53 491.46,440.53 494.73,440.53 498.01,440.53 501.28,440.53 504.56,440.53 507.83,440.53 511.10,440.53 514.38,440.53 517.65,440.53 520.93,440.53 524.20,440.53 527.47,440.53 530.75,440.53 534.02,440.53 537.30,440.53 540.57,440.53 543.85,440.53 547.12,440.53 550.39,440.53 553.67,440.53 556.94,440.53 560.22,440.53 563.49,440.53 566.76,440.53 570.04,440.53 573.31,440.53 576.59,440.53 579.86,440.53 583.14,440.53 586.41,440.53 589.68,440.53 592.96,440.53 596.23,440.53 599.51,440.53 602.78,440.53 606.05,440.53 609.33,440.53 612.60,440.53 615.88,440.53 619.15,440.53 622.42,440.53 625.70,440.53 628.97,440.53 632.25,440.53 635.52,440.53 638.80,440.53 642.07,440.53 645.34,440.53 648.62,440.53 651.89,440.53 655.17,440.53 658.44,440.53 661.71,440.53 664.99,440.53 668.26,440.53 671.54,440.53 674.81,440.53 678.08,440.53 681.36,440.53 684.63,440.53 687.91,440.53 691.18,440.53 694.46,440.53 697.73,440.53 701.00,440.53 704.28,440.53 707.55,440.53 710.83,439.84 714.10,436.29 717.37,433.49 720.65,434.29 723.92,435.55 727.20,430.97 730.47,429.37 733.75,429.82 737.02,432.40 740.29,430.22 743.57,434.69 746.84,432.23 750.12,431.43 753.39,430.45 756.66,431.08 759.94,434.52 763.21,434.80 766.49,434.69 769.76,434.40 773.03,429.71 776.31,425.99 779.58,424.84 782.86,419.41 786.13,419.69 789.41,422.84 792.68,421.12 795.95,421.41 799.23,425.70 802.50,424.27 805.78,425.93 809.05,428.11 812.32,429.37 815.60,426.05 818.87,430.91 822.15,432.63 825.42,429.88 828.69,426.56 831.97,425.36 835.24,424.96 838.52,426.10 841.79,423.99 845.07,425.76 848.34,428.22 851.61,423.13 854.89,425.70 858.16,425.65 861.44,420.27 864.71,421.98 867.98,425.47 871.26,426.05 874.53,428.91 877.81,433.33 881.08,432.01 884.36,431.32 887.63,431.32 890.90,429.72 894.18,431.38 897.45,427.83 900.73,430.92 904.00,435.97" />
<text x="780.00" y="82.00" font-size="14" font-family="Arial" fill="#1f77b4" text-anchor="start">MA200</text>
<polyline fill="none" stroke="#2ca02c" stroke-width="2" points="56.00,440.53 59.27,440.53 62.55,440.53 65.82,440.53 69.10,440.53 72.37,440.53 75.64,440.53 78.92,440.53 82.19,440.53 85.47,440.53 88.74,440.53 92.02,440.53 95.29,440.53 98.56,440.53 101.84,440.53 105.11,440.53 108.39,440.53 111.66,440.53 114.93,440.53 118.21,440.53 121.48,440.53 124.76,440.53 128.03,440.53 131.31,440.53 134.58,440.53 137.85,440.53 141.13,440.53 144.40,440.53 147.68,440.53 150.95,440.53 154.22,440.53 157.50,440.53 160.77,440.53 164.05,440.53 167.32,440.53 170.59,440.53 173.87,440.53 177.14,440.53 180.42,440.53 183.69,440.53 186.97,440.53 190.24,440.53 193.51,440.53 196.79,440.53 200.06,440.53 203.34,440.53 206.61,440.53 209.88,440.53 213.16,440.53 216.43,440.53 219.71,440.53 222.98,440.53 226.25,440.53 229.53,440.53 232.80,440.53 236.08,440.53 239.35,440.53 242.63,440.53 245.90,440.53 249.17,440.53 252.45,441.74 255.72,441.47 259.00,439.04 262.27,438.77 265.54,438.64 268.82,439.18 272.09,439.18 275.37,441.33 278.64,440.66 281.92,439.72 285.19,440.26 288.46,439.45 291.74,438.91 295.01,438.37 298.29,438.10 301.56,440.12 304.83,442.14 308.11,438.77 311.38,436.89 314.66,438.23 317.93,438.37 321.20,438.37 324.48,438.64 327.75,439.45 331.03,437.43 334.30,437.69 337.58,436.75 340.85,438.37 344.12,437.43 347.40,433.38 350.67,436.08 353.95,437.63 357.22,437.23 360.49,438.30 363.77,437.50 367.04,436.96 370.32,436.70 373.59,433.75 376.86,435.27 380.14,436.35 383.41,435.67 386.69,438.23 389.96,435.27 393.24,438.37 396.51,437.29 399.78,434.06 403.06,433.38 406.33,431.09 409.61,431.22 412.88,428.39 416.15,428.66 419.43,428.53 422.70,427.99 425.98,423.54 429.25,422.06 432.53,420.58 435.80,420.17 439.07,420.85 442.35,420.85 445.62,421.79 448.90,423.81 452.17,424.35 455.44,425.70 458.72,423.54 461.99,422.06 465.27,423.41 468.54,423.00 471.81,422.06 475.09,422.06 478.36,422.33 481.64,422.19 484.91,422.46 488.19,419.50 491.46,419.36 494.73,420.58 498.01,420.17 501.28,420.71 504.56,415.86 507.83,413.03 511.10,414.11 514.38,414.24 517.65,407.64 520.93,400.36 524.20,398.47 527.47,394.97 530.75,393.35 534.02,390.11 537.30,391.73 540.57,386.07 543.85,382.43 547.12,388.63 550.39,379.46 553.67,383.10 556.94,377.71 560.22,376.90 563.49,382.97 566.76,389.84 570.04,387.82 573.31,381.35 576.59,382.03 579.86,372.19 583.14,361.27 586.41,357.90 589.68,351.70 592.96,351.83 596.23,356.69 599.51,369.09 602.78,360.19 606.05,365.04 609.33,376.63 612.60,367.20 615.88,355.88 619.15,352.10 622.42,344.55 625.70,333.50 628.97,335.12 632.25,325.14 635.52,324.87 638.80,332.15 642.07,346.98 645.34,357.49 648.62,345.09 651.89,346.17 655.17,345.36 658.44,348.46 661.71,361.67 664.99,349.81 668.26,341.59 671.54,329.46 674.81,314.36 678.08,313.01 681.36,309.51 684.63,312.74 687.91,320.56 691.18,314.90 694.46,307.62 697.73,308.16 701.00,298.73 704.28,290.10 707.55,288.48 710.83,285.25 714.10,268.53 717.37,255.32 720.65,259.10 723.92,265.03 727.20,243.46 730.47,235.91 733.75,238.07 737.02,250.20 740.29,239.96 743.57,260.98 746.84,249.39 750.12,245.62 753.39,241.03 756.66,244.00 759.94,260.17 763.21,261.52 766.49,260.98 769.76,259.64 773.03,237.53 776.31,220.01 779.58,214.62 782.86,189.00 786.13,190.35 789.41,205.18 792.68,197.09 795.95,198.44 799.23,218.66 802.50,211.92 805.78,219.74 809.05,229.98 812.32,235.91 815.60,220.28 818.87,243.19 822.15,251.28 825.42,238.34 828.69,222.70 831.97,217.04 835.24,215.15 838.52,220.55 841.79,210.57 845.07,218.93 848.34,230.52 851.61,206.53 854.89,218.66 858.16,218.39 861.44,193.05 864.71,201.14 867.98,217.58 871.26,220.28 874.53,233.79 877.81,254.59 881.08,248.38 884.36,245.13 887.63,245.13 890.90,237.57 894.18,245.40 897.45,228.66 900.73,243.24 904.00,267.02" />
<text x="780.00" y="104.00" font-size="14" font-family="Arial" fill="#2ca02c" text-anchor="start">MA20x60</text>
</svg>