<svg xmlns="http://www.w3.org/2000/svg" width="960" height="520" viewBox="0 0 960 520"><rect width="100%" height="100%" fill="white" />
<text x="56.00" y="32.00" font-size="20" font-family="Arial" fill="#1f2933" text-anchor="start">世芯-KY(3661) Backtest Equity Curves</text>
<line x1="56" y1="464" x2="904" y2="464" stroke="#cbd2d9" />
<line x1="56" y1="56" x2="56" y2="464" stroke="#cbd2d9" />
<text x="16.00" y="38.00" font-size="12" font-family="Arial" fill="#52606d" text-anchor="start">Equity Multiple</text>
<line x1="56" y1="464.00" x2="904" y2="464.00" stroke="#edf2f7" />
<line x1="52" y1="464.00" x2="56" y2="464.00" stroke="#9fb3c8" />
<text x="48.00" y="468.00" font-size="11" font-family="Arial" fill="#52606d" text-anchor="end">0.67</text>
<line x1="56" y1="362.00" x2="904" y2="362.00" stroke="#edf2f7" />
<line x1="52" y1="362.00" x2="56" y2="362.00" stroke="#9fb3c8" />
<text x="48.00" y="366.00" font-size="11" font-family="Arial" fill="#52606d" text-anchor="end">1.00</text>
<line x1="56" y1="260.00" x2="904" y2="260.00" stroke="#edf2f7" />
<line x1="52" y1="260.00" x2="56" y2="260.00" stroke="#9fb3c8" />
<text x="48.00" y="264.00" font-size="11" font-family="Arial" fill="#52606d" text-anchor="end">1.33</text>
<line x1="56" y1="158.00" x2="904" y2="158.00" stroke="#edf2f7" />
<line x1="52" y1="158.00" x2="56" y2="158.00" stroke="#9fb3c8" />
<text x="48.00" y="162.00" font-size="11" font-family="Arial" fill="#52606d" text-anchor="end">1.67</text>
<line x1="56" y1="56.00" x2="904" y2="56.00" stroke="#edf2f7" />
<line x1="52" y1="56.00" x2="56" y2="56.00" stroke="#9fb3c8" />
<text x="48.00" y="60.00" font-size="11" font-family="Arial" fill="#52606d" text-anchor="end">2.00</text>
<line x1="56.00" y1="464" x2="56.00" y2="468" stroke="#9fb3c8" />
<text x="56.00" y="482.00" font-size="11" font-family="Arial" fill="#52606d" text-anchor="middle">06/17</text>
<line x1="226.25" y1="464" x2="226.25" y2="468" stroke="#9fb3c8" />
<text x="226.25" y="482.00" font-size="11" font-family="Arial" fill="#52606d" text-anchor="middle">08/29</text>
<line x1="396.51" y1="464" x2="396.51" y2="468" stroke="#9fb3c8" />
<text x="396.51" y="482.00" font-size="11" font-family="Arial" fill="#52606d" text-anchor="middle">11/17</text>
<line x1="563.49" y1="464" x2="563.49" y2="468" stroke="#9fb3c8" />
<text x="563.49" y="482.00" font-size="11" font-family="Arial" fill="#52606d" text-anchor="middle">01/29</text>
<line x1="733.75" y1="464" x2="733.75" y2="468" stroke="#9fb3c8" />
<text x="733.75" y="482.00" font-size="11" font-family="Arial" fill="#52606d" text-anchor="middle">04/27</text>
<line x1="904.00" y1="464" x2="904.00" y2="468" stroke="#9fb3c8" />
<text x="904.00" y="482.00" font-size="11" font-family="Arial" fill="#52606d" text-anchor="middle">07/10</text>
<polyline fill="none" stroke="#7f7f7f" stroke-width="2" points="56.00,361.94 59.27,363.03 62.55,355.95 65.82,363.57 69.10,360.31 72.37,366.83 75.64,354.87 78.92,354.87 82.19,341.81 85.47,331.47 88.74,321.68 92.02,321.14 95.29,322.77 98.56,321.14 101.84,317.87 105.11,318.42 108.39,302.10 111.66,291.76 114.93,295.02 118.21,308.08 121.48,301.55 124.76,276.53 128.03,259.66 131.31,240.62 134.58,256.94 137.85,263.47 141.13,252.05 144.40,235.72 147.68,245.52 150.95,246.06 154.22,253.13 157.50,260.21 160.77,245.52 164.05,259.66 167.32,260.21 170.59,264.56 173.87,258.57 177.14,250.41 180.42,242.80 183.69,224.84 186.97,219.95 190.24,205.80 193.51,199.82 196.79,207.98 200.06,229.20 203.34,270.00 206.61,256.40 209.88,266.73 213.16,244.43 216.43,235.18 219.71,224.30 222.98,233.00 226.25,227.02 229.53,242.25 232.80,245.91 236.08,231.08 239.35,245.36 242.63,232.18 245.90,231.63 249.17,238.22 252.45,235.47 255.72,237.12 259.00,251.95 262.27,259.09 265.54,264.03 268.82,255.24 272.09,259.64 275.37,256.34 278.64,255.24 281.92,261.83 285.19,293.68 288.46,298.08 291.74,308.51 295.01,287.64 298.29,295.33 301.56,307.41 304.83,304.67 308.11,288.19 311.38,289.84 314.66,282.15 317.93,298.08 321.20,330.48 324.48,329.93 327.75,328.28 331.03,329.38 334.30,312.91 337.58,299.73 340.85,314.55 344.12,322.24 347.40,331.58 350.67,331.58 353.95,311.26 357.22,299.73 360.49,284.35 363.77,289.29 367.04,289.84 370.32,301.37 373.59,265.13 376.86,276.66 380.14,260.18 383.41,268.97 386.69,281.60 389.96,281.05 393.24,282.70 396.51,271.72 399.78,311.26 403.06,303.57 406.33,330.48 409.61,339.82 412.88,342.01 416.15,344.21 419.43,326.64 422.70,307.41 425.98,305.22 429.25,306.87 432.53,292.59 435.80,317.85 439.07,320.05 442.35,321.69 445.62,325.54 448.90,310.16 452.17,298.08 455.44,306.32 458.72,314.55 461.99,320.05 465.27,337.07 468.54,316.75 471.81,320.05 475.09,315.10 478.36,314.00 481.64,314.55 484.91,318.95 488.19,315.10 491.46,295.88 494.73,285.45 498.01,282.70 501.28,268.97 504.56,267.32 507.83,257.99 511.10,264.03 514.38,272.82 517.65,276.11 520.93,269.52 524.20,264.58 527.47,288.19 530.75,303.57 534.02,301.37 537.30,290.94 540.57,295.33 543.85,312.36 547.12,308.51 550.39,291.49 553.67,281.60 556.94,291.49 560.22,298.08 563.49,309.06 566.76,324.99 570.04,323.34 573.31,303.57 576.59,296.43 579.86,311.81 583.14,326.09 586.41,307.41 589.68,305.77 592.96,296.98 596.23,302.47 599.51,291.49 602.78,286.00 606.05,284.90 609.33,290.39 612.60,299.73 615.88,325.54 619.15,309.06 622.42,304.67 625.70,339.27 628.97,332.13 632.25,298.63 635.52,304.12 638.80,317.85 642.07,324.99 645.34,317.85 648.62,305.77 651.89,314.55 655.17,297.53 658.44,317.85 661.71,326.64 664.99,322.24 668.26,331.58 671.54,334.32 674.81,366.18 678.08,395.28 681.36,368.37 684.63,371.12 687.91,371.12 691.18,354.09 694.46,350.25 697.73,335.97 701.00,328.83 704.28,316.75 707.55,315.65 710.83,286.55 714.10,282.15 717.37,270.07 720.65,230.53 723.92,221.74 727.20,231.08 730.47,205.27 733.75,211.31 737.02,228.88 740.29,228.33 743.57,214.05 746.84,201.42 750.12,212.41 753.39,166.82 756.66,141.56 759.94,131.13 763.21,77.86 766.49,85.00 769.76,143.21 773.03,137.72 776.31,162.43 779.58,164.08 782.86,181.65 786.13,162.98 789.41,129.48 792.68,130.58 795.95,130.03 799.23,158.59 802.50,173.96 805.78,195.93 809.05,183.30 812.32,134.97 815.60,165.73 818.87,163.53 822.15,191.54 825.42,197.58 828.69,210.21 831.97,201.42 835.24,224.49 838.52,222.29 841.79,217.35 845.07,201.42 848.34,194.28 851.61,193.73 854.89,187.14 858.16,193.18 861.44,187.69 864.71,192.64 867.98,203.62 871.26,243.16 874.53,230.53 877.81,209.11 881.08,179.46 884.36,130.58 887.63,157.49 890.90,205.27 894.18,225.04 897.45,221.74 900.73,205.82 904.00,205.82" />
<text x="780.00" y="60.00" font-size="14" font-family="Arial" fill="#7f7f7f" text-anchor="start">BuyHold</text>
<polyline fill="none" stroke="#1f77b4" stroke-width="2" points="56.00,361.94 59.27,361.94 62.55,361.94 65.82,361.94 69.10,361.94 72.37,361.94 75.64,361.94 78.92,361.94 82.19,361.94 85.47,361.94 88.74,361.94 92.02,361.94 95.29,361.94 98.56,361.94 101.84,361.94 105.11,361.94 108.39,361.94 111.66,361.94 114.93,361.94 118.21,361.94 121.48,361.94 124.76,361.94 128.03,361.94 131.31,361.94 134.58,361.94 137.85,361.94 141.13,361.94 144.40,361.94 147.68,361.94 150.95,361.94 154.22,361.94 157.50,361.94 160.77,361.94 164.05,361.94 167.32,361.94 170.59,361.94 173.87,361.94 177.14,361.94 180.42,361.94 183.69,361.94 186.97,361.94 190.24,361.94 193.51,361.94 196.79,361.94 200.06,361.94 203.34,361.94 206.61,361.94 209.88,361.94 213.16,361.94 216.43,361.94 219.71,361.94 222.98,361.94 226.25,361.94 229.53,361.94 232.80,361.94 236.08,361.94 239.35,361.94 242.63,361.94 245.90,361.94 249.17,361.94 252.45,361.94 255.72,361.94 259.00,361.94 262.27,361.94 265.54,361.94 268.82,361.94 272.09,361.94 275.37,361.94 278.64,361.94 281.92,361.94 285.19,361.94 288.46,361.94 291.74,361.94 295.01,361.94 298.29,361.94 301.56,361.94 304.83,361.94 308.11,361.94 311.38,361.94 314.66,361.94 317.93,361.94 321.20,361.94 324.48,361.94 327.75,361.94 331.03,361.94 334.30,361.94 337.58,361.94 340.85,361.94 344.12,361.94 347.40,361.94 350.67,361.94 353.95,361.94 357.22,361.94 360.49,361.94 363.77,361.94 367.04,361.94 370.32,361.94 373.59,361.94 376.86,361.94 380.14,361.94 383.41,361.94 386.69,361.94 389.96,361.94 393.24,361.94 396.51,361.94 399.78,361.94 403.06,361.94 406.33,361.94 409.61,361.94 412.88,361.94 416.15,361.94 419.43,361.94 422.70,361.94 425.98,361.94 429.25,361.94 432.53,361.94 435.80,361.94 439.07,361.94 442.35,361.94 445.62,361.94 448.90,361.94 452.17,361.94 455.44,361.94 458.72,361.94 461.99,361.94 465.27,361.94 468.54,361.94 471.81,361.94 475.09,361.94 478.36,361.94 481.64,361.94 484.91,361.94 488.19,361.94 491.46,361.94 494.73,361.94 498.01,361.94 501.28,361.94 504.56,361.94 507.83,361.94 511.10,361.94 514.38,361.94 517.65,361.94 520.93,361.94 524.20,361.94 527.47,361.94 530.75,361.94 534.02,361.94 537.30,361.94 540.57,361.94 543.85,361.94 547.12,361.94 550.39,361.94 553.67,361.94 556.94,361.94 560.22,361.94 563.49,361.94 566.76,361.94 570.04,361.94 573.31,361.94 576.59,361.94 579.86,361.94 583.14,361.94 586.41,361.94 589.68,361.94 592.96,361.94 596.23,361.94 599.51,361.94 602.78,361.94 606.05,361.94 609.33,361.94 612.60,361.94 615.88,361.94 619.15,361.94 622.42,361.94 625.70,361.94 628.97,361.94 632.25,361.94 635.52,361.94 638.80,361.94 642.07,361.94 645.34,361.94 648.62,361.94 651.89,361.94 655.17,361.94 658.44,361.94 661.71,361.94 664.99,361.94 668.26,361.94 671.54,361.94 674.81,361.94 678.08,361.94 681.36,361.94 684.63,361.94 687.91,361.94 691.18,361.94 694.46,361.94 697.73,361.94 701.00,361.94 704.28,361.94 707.55,361.94 710.83,361.94 714.10,358.41 717.37,348.72 720.65,316.99 723.92,309.94 727.20,317.43 730.47,296.71 733.75,301.56 737.02,315.67 740.29,315.22 743.57,303.77 746.84,293.63 750.12,302.44 753.39,265.87 756.66,245.59 759.94,237.22 763.21,194.47 766.49,200.20 769.76,246.92 773.03,242.51 776.31,262.34 779.58,263.66 782.86,277.76 786.13,262.78 789.41,235.90 792.68,236.78 795.95,236.34 799.23,259.26 802.50,271.59 805.78,289.22 809.05,279.09 812.32,240.31 815.60,264.98 818.87,263.22 822.15,285.70 825.42,290.55 828.69,300.68 831.97,293.63 835.24,312.14 838.52,310.38 841.79,306.41 845.07,293.63 848.34,287.90 851.61,287.46 854.89,282.17 858.16,287.02 861.44,282.61 864.71,286.58 867.98,295.39 871.26,327.12 874.53,316.99 877.81,299.80 881.08,276.00 884.36,236.78 887.63,258.37 890.90,296.71 894.18,312.58 897.45,309.94 900.73,297.16 904.00,297.16" />
<text x="780.00" y="82.00" font-size="14" font-family="Arial" fill="#1f77b4" text-anchor="start">MA200</text>
<polyline fill="none" stroke="#2ca02c" stroke-width="2" points="56.00,361.94 59.27,361.94 62.55,361.94 65.82,361.94 69.10,361.94 72.37,361.94 75.64,361.94 78.92,361.94 82.19,361.94 85.47,361.94 88.74,361.94 92.02,361.94 95.29,361.94 98.56,361.94 101.84,361.94 105.11,361.94 108.39,361.94 111.66,361.94 114.93,361.94 118.21,361.94 121.48,361.94 124.76,361.94 128.03,361.94 131.31,361.94 134.58,361.94 137.85,361.94 141.13,361.94 144.40,361.94 147.68,361.94 150.95,361.94 154.22,361.94 157.50,361.94 160.77,361.94 164.05,361.94 167.32,361.94 170.59,361.94 173.87,361.94 177.14,361.94 180.42,361.94 183.69,361.94 186.97,361.94 190.24,361.94 193.51,361.94 196.79,361.94 200.06,361.94 203.34,361.94 206.61,361.94 209.88,361.94 213.16,361.94 216.43,361.94 219.71,361.94 222.98,361.94 226.25,361.94 229.53,361.94 232.80,361.94 236.08,361.94 239.35,361.94 242.63,361.94 245.90,361.94 249.17,361.94 252.45,359.98 255.72,361.16 259.00,371.72 262.27,376.80 265.54,380.32 268.82,374.06 272.09,377.19 275.37,374.85 278.64,374.06 281.92,378.76 285.19,401.45 288.46,404.58 291.74,412.01 295.01,397.14 298.29,397.14 301.56,397.14 304.83,397.14 308.11,397.14 311.38,397.14 314.66,397.14 317.93,397.14 321.20,397.14 324.48,397.14 327.75,397.14 331.03,397.14 334.30,397.14 337.58,397.14 340.85,397.14 344.12,397.14 347.40,397.14 350.67,397.14 353.95,397.14 357.22,397.14 360.49,397.14 363.77,397.14 367.04,397.14 370.32,397.14 373.59,397.14 376.86,397.14 380.14,397.14 383.41,397.14 386.69,397.14 389.96,397.14 393.24,397.14 396.51,397.14 399.78,397.14 403.06,397.14 406.33,397.14 409.61,397.14 412.88,397.14 416.15,397.14 419.43,397.14 422.70,397.14 425.98,397.14 429.25,397.14 432.53,397.14 435.80,397.14 439.07,397.14 442.35,397.14 445.62,397.14 448.90,397.14 452.17,397.14 455.44,397.14 458.72,397.14 461.99,397.14 465.27,397.14 468.54,397.14 471.81,397.14 475.09,397.14 478.36,397.14 481.64,397.14 484.91,397.14 488.19,397.14 491.46,397.14 494.73,397.14 498.01,397.14 501.28,397.14 504.56,397.14 507.83,397.14 511.10,401.14 514.38,406.94 517.65,409.12 520.93,404.76 524.20,401.50 527.47,417.10 530.75,427.26 534.02,425.81 537.30,418.92 540.57,421.82 543.85,433.07 547.12,430.53 550.39,419.28 553.67,412.75 556.94,419.28 560.22,423.64 563.49,430.89 566.76,441.42 570.04,440.33 573.31,427.26 576.59,422.55 579.86,432.71 583.14,442.14 586.41,429.80 589.68,428.72 592.96,422.91 596.23,426.54 599.51,419.28 602.78,415.65 606.05,414.93 609.33,414.93 612.60,421.18 615.88,421.18 619.15,421.18 622.42,421.18 625.70,421.18 628.97,421.18 632.25,421.18 635.52,421.18 638.80,421.18 642.07,421.18 645.34,421.18 648.62,421.18 651.89,421.18 655.17,421.18 658.44,421.18 661.71,421.18 664.99,421.18 668.26,421.18 671.54,421.18 674.81,421.18 678.08,421.18 681.36,421.18 684.63,421.18 687.91,421.18 691.18,421.18 694.46,421.18 697.73,421.18 701.00,421.18 704.28,421.18 707.55,421.18 710.83,421.18 714.10,421.18 717.37,421.18 720.65,421.18 723.92,421.18 727.20,421.18 730.47,421.18 733.75,421.18 737.02,430.69 740.29,430.39 743.57,422.67 746.84,415.84 750.12,421.78 753.39,397.13 756.66,383.48 759.94,377.83 763.21,349.03 766.49,352.89 769.76,384.37 773.03,381.40 776.31,394.76 779.58,395.65 782.86,405.15 786.13,395.06 789.41,376.94 792.68,377.54 795.95,377.24 799.23,392.68 802.50,400.99 805.78,412.87 809.05,406.04 812.32,379.91 815.60,396.54 818.87,395.35 822.15,410.50 825.42,413.76 828.69,420.59 831.97,415.84 835.24,428.31 838.52,427.12 841.79,424.45 845.07,415.84 848.34,411.98 851.61,411.68 854.89,408.12 858.16,411.39 861.44,408.42 864.71,411.09 867.98,417.03 871.26,438.41 874.53,431.58 877.81,420.00 881.08,403.96 884.36,377.54 887.63,392.09 890.90,417.92 894.18,417.92 897.45,417.92 900.73,417.92 904.00,417.92" />
<text x="780.00" y="104.00" font-size="14" font-family="Arial" fill="#2ca02c" text-anchor="start">MA20x60</text>
</svg>