<svg xmlns="http://www.w3.org/2000/svg" width="960" height="520" viewBox="0 0 960 520"><rect width="100%" height="100%" fill="white" />
<text x="56.00" y="32.00" font-size="20" font-family="Arial" fill="#1f2933" text-anchor="start">日月光投控(3711) Backtest Equity Curves</text>
<line x1="56" y1="464" x2="904" y2="464" stroke="#cbd2d9" />
<line x1="56" y1="56" x2="56" y2="464" stroke="#cbd2d9" />
<text x="16.00" y="38.00" font-size="12" font-family="Arial" fill="#52606d" text-anchor="start">Equity Multiple</text>
<line x1="56" y1="464.00" x2="904" y2="464.00" stroke="#edf2f7" />
<line x1="52" y1="464.00" x2="56" y2="464.00" stroke="#9fb3c8" />
<text x="48.00" y="468.00" font-size="11" font-family="Arial" fill="#52606d" text-anchor="end">0.69</text>
<line x1="56" y1="362.00" x2="904" y2="362.00" stroke="#edf2f7" />
<line x1="52" y1="362.00" x2="56" y2="362.00" stroke="#9fb3c8" />
<text x="48.00" y="366.00" font-size="11" font-family="Arial" fill="#52606d" text-anchor="end">1.86</text>
<line x1="56" y1="260.00" x2="904" y2="260.00" stroke="#edf2f7" />
<line x1="52" y1="260.00" x2="56" y2="260.00" stroke="#9fb3c8" />
<text x="48.00" y="264.00" font-size="11" font-family="Arial" fill="#52606d" text-anchor="end">3.03</text>
<line x1="56" y1="158.00" x2="904" y2="158.00" stroke="#edf2f7" />
<line x1="52" y1="158.00" x2="56" y2="158.00" stroke="#9fb3c8" />
<text x="48.00" y="162.00" font-size="11" font-family="Arial" fill="#52606d" text-anchor="end">4.20</text>
<line x1="56" y1="56.00" x2="904" y2="56.00" stroke="#edf2f7" />
<line x1="52" y1="56.00" x2="56" y2="56.00" stroke="#9fb3c8" />
<text x="48.00" y="60.00" font-size="11" font-family="Arial" fill="#52606d" text-anchor="end">5.37</text>
<line x1="56.00" y1="464" x2="56.00" y2="468" stroke="#9fb3c8" />
<text x="56.00" y="482.00" font-size="11" font-family="Arial" fill="#52606d" text-anchor="middle">06/30</text>
<line x1="226.25" y1="464" x2="226.25" y2="468" stroke="#9fb3c8" />
<text x="226.25" y="482.00" font-size="11" font-family="Arial" fill="#52606d" text-anchor="middle">09/11</text>
<line x1="396.51" y1="464" x2="396.51" y2="468" stroke="#9fb3c8" />
<text x="396.51" y="482.00" font-size="11" font-family="Arial" fill="#52606d" text-anchor="middle">11/28</text>
<line x1="563.49" y1="464" x2="563.49" y2="468" stroke="#9fb3c8" />
<text x="563.49" y="482.00" font-size="11" font-family="Arial" fill="#52606d" text-anchor="middle">02/11</text>
<line x1="733.75" y1="464" x2="733.75" y2="468" stroke="#9fb3c8" />
<text x="733.75" y="482.00" font-size="11" font-family="Arial" fill="#52606d" text-anchor="middle">05/11</text>
<line x1="904.00" y1="464" x2="904.00" y2="468" stroke="#9fb3c8" />
<text x="904.00" y="482.00" font-size="11" font-family="Arial" fill="#52606d" text-anchor="middle">07/23</text>
<polyline fill="none" stroke="#7f7f7f" stroke-width="2" points="56.00,437.33 59.27,438.52 62.55,437.72 65.82,436.18 69.10,434.34 72.37,436.18 75.64,436.80 78.92,434.65 82.19,432.50 85.47,432.50 88.74,433.42 92.02,432.19 95.29,431.88 98.56,431.57 101.84,430.04 105.11,430.96 108.39,431.88 111.66,430.34 114.93,429.12 118.21,430.34 121.48,429.73 124.76,430.34 128.03,431.27 131.31,430.96 134.58,434.03 137.85,434.65 141.13,435.57 144.40,433.72 147.68,433.11 150.95,431.88 154.22,433.72 157.50,433.42 160.77,433.72 164.05,433.72 167.32,432.19 170.59,433.42 173.87,435.57 177.14,436.18 180.42,436.49 183.69,433.42 186.97,433.11 190.24,432.19 193.51,434.03 196.79,431.88 200.06,428.81 203.34,428.19 206.61,428.19 209.88,430.04 213.16,428.81 216.43,419.28 219.71,422.05 222.98,420.82 226.25,422.35 229.53,422.05 232.80,422.35 236.08,420.51 239.35,420.82 242.63,420.20 245.90,420.20 249.17,418.67 252.45,417.44 255.72,418.97 259.00,418.97 262.27,422.97 265.54,423.89 268.82,424.51 272.09,423.58 275.37,422.97 278.64,418.05 281.92,417.44 285.19,414.67 288.46,418.36 291.74,420.51 295.01,415.29 298.29,406.99 301.56,404.22 304.83,401.76 308.11,404.84 311.38,406.07 314.66,404.22 317.93,400.23 321.20,399.92 324.48,388.86 327.75,386.40 331.03,372.57 334.30,373.49 337.58,377.79 340.85,380.25 344.12,380.87 347.40,384.25 350.67,384.25 353.95,384.55 357.22,385.17 360.49,382.40 363.77,387.94 367.04,389.47 370.32,392.54 373.59,395.93 376.86,387.94 380.14,396.23 383.41,395.31 386.69,394.39 389.96,391.01 393.24,383.02 396.51,383.63 399.78,386.71 403.06,384.25 406.33,383.94 409.61,384.55 412.88,382.71 416.15,378.72 419.43,377.18 422.70,374.41 425.98,374.41 429.25,375.03 432.53,380.87 435.80,383.94 439.07,384.25 442.35,388.24 445.62,383.63 448.90,382.10 452.17,380.56 455.44,380.56 458.72,376.87 461.99,370.42 465.27,371.65 468.54,370.73 471.81,366.12 475.09,362.74 478.36,357.82 481.64,355.67 484.91,356.59 488.19,357.51 491.46,350.75 494.73,346.76 498.01,343.68 501.28,341.22 504.56,338.15 507.83,340.92 511.10,342.76 514.38,345.83 517.65,341.53 520.93,335.69 524.20,332.93 527.47,336.31 530.75,331.70 534.02,334.16 537.30,342.15 540.57,345.22 543.85,339.07 547.12,338.77 550.39,350.14 553.67,337.54 556.94,323.71 560.22,313.26 563.49,306.80 566.76,310.19 570.04,290.21 573.31,285.60 576.59,286.52 579.86,296.97 583.14,303.73 586.41,323.40 589.68,307.42 592.96,314.49 596.23,328.01 599.51,318.48 602.78,312.34 606.05,318.79 609.33,314.79 612.60,317.25 615.88,314.49 619.15,304.96 622.42,311.41 625.70,313.26 628.97,322.17 632.25,320.33 635.52,308.34 638.80,304.04 642.07,307.42 645.34,307.42 648.62,322.78 651.89,302.81 655.17,302.81 658.44,308.34 661.71,289.29 664.99,283.76 668.26,283.14 671.54,268.08 674.81,264.09 678.08,250.26 681.36,247.80 684.63,253.03 687.91,241.04 691.18,234.59 694.46,238.89 697.73,239.20 701.00,219.84 704.28,220.14 707.55,220.14 710.83,224.45 714.10,230.90 717.37,202.01 720.65,205.08 723.92,202.63 727.20,192.79 730.47,207.54 733.75,194.64 737.02,183.57 740.29,187.87 743.57,187.87 746.84,188.49 750.12,211.23 753.39,234.59 756.66,232.13 759.94,211.23 763.21,179.88 766.49,145.47 769.76,149.15 773.03,130.10 776.31,139.32 779.58,149.15 782.86,155.30 786.13,162.06 789.41,144.85 792.68,160.22 795.95,170.05 799.23,192.79 802.50,174.97 805.78,193.41 809.05,190.33 812.32,162.06 815.60,162.06 818.87,160.83 822.15,158.99 825.42,147.92 828.69,110.43 831.97,117.81 835.24,123.34 838.52,130.71 841.79,136.25 845.07,139.32 848.34,106.74 851.61,92.61 854.89,77.86 858.16,101.68 861.44,103.54 864.71,120.91 867.98,137.04 871.26,104.79 874.53,104.79 877.81,109.13 881.08,127.11 884.36,101.06 887.63,101.68 890.90,143.86 894.18,154.40 897.45,132.08 900.73,117.81 904.00,122.15" />
<text x="780.00" y="60.00" font-size="14" font-family="Arial" fill="#7f7f7f" text-anchor="start">BuyHold</text>
<polyline fill="none" stroke="#1f77b4" stroke-width="2" points="56.00,437.33 59.27,437.33 62.55,437.33 65.82,437.33 69.10,437.33 72.37,437.33 75.64,437.33 78.92,437.33 82.19,437.33 85.47,437.33 88.74,437.33 92.02,437.33 95.29,437.33 98.56,437.33 101.84,437.33 105.11,437.33 108.39,437.33 111.66,437.33 114.93,437.33 118.21,437.33 121.48,437.33 124.76,437.33 128.03,437.33 131.31,437.33 134.58,437.33 137.85,437.33 141.13,437.33 144.40,437.33 147.68,437.33 150.95,437.33 154.22,437.33 157.50,437.33 160.77,437.33 164.05,437.33 167.32,437.33 170.59,437.33 173.87,437.33 177.14,437.33 180.42,437.33 183.69,437.33 186.97,437.33 190.24,437.33 193.51,437.33 196.79,437.33 200.06,437.33 203.34,437.33 206.61,437.33 209.88,437.33 213.16,437.33 216.43,437.33 219.71,437.33 222.98,437.33 226.25,437.33 229.53,437.33 232.80,437.33 236.08,437.33 239.35,437.33 242.63,437.33 245.90,437.33 249.17,437.33 252.45,437.33 255.72,437.33 259.00,437.33 262.27,437.33 265.54,437.33 268.82,437.33 272.09,437.33 275.37,437.33 278.64,437.33 281.92,437.33 285.19,437.33 288.46,437.33 291.74,437.33 295.01,437.33 298.29,437.33 301.56,437.33 304.83,437.33 308.11,437.33 311.38,437.33 314.66,437.33 317.93,437.33 321.20,437.33 324.48,437.33 327.75,437.33 331.03,437.33 334.30,437.33 337.58,437.33 340.85,437.33 344.12,437.33 347.40,437.33 350.67,437.33 353.95,437.33 357.22,437.33 360.49,437.33 363.77,437.33 367.04,437.33 370.32,437.33 373.59,437.33 376.86,437.33 380.14,437.33 383.41,437.33 386.69,437.33 389.96,437.33 393.24,437.33 396.51,437.33 399.78,437.33 403.06,437.33 406.33,437.33 409.61,437.33 412.88,437.33 416.15,437.33 419.43,437.33 422.70,437.33 425.98,437.33 429.25,437.33 432.53,437.33 435.80,437.33 439.07,437.33 442.35,437.33 445.62,437.33 448.90,437.33 452.17,437.33 455.44,437.33 458.72,437.33 461.99,437.33 465.27,437.33 468.54,437.33 471.81,437.33 475.09,437.33 478.36,437.33 481.64,437.33 484.91,437.33 488.19,437.33 491.46,437.33 494.73,437.33 498.01,437.33 501.28,437.33 504.56,437.33 507.83,437.33 511.10,437.33 514.38,437.33 517.65,437.33 520.93,437.33 524.20,437.33 527.47,437.33 530.75,437.33 534.02,437.33 537.30,437.33 540.57,437.33 543.85,437.33 547.12,437.33 550.39,437.33 553.67,437.33 556.94,437.33 560.22,437.33 563.49,437.33 566.76,437.33 570.04,437.33 573.31,437.33 576.59,437.33 579.86,437.33 583.14,437.33 586.41,437.33 589.68,437.33 592.96,437.33 596.23,437.33 599.51,437.33 602.78,437.33 606.05,437.33 609.33,437.33 612.60,437.33 615.88,437.33 619.15,437.33 622.42,437.33 625.70,437.33 628.97,437.33 632.25,437.33 635.52,437.33 638.80,437.33 642.07,437.33 645.34,437.33 648.62,437.33 651.89,437.33 655.17,437.33 658.44,437.33 661.71,437.33 664.99,437.33 668.26,437.33 671.54,437.33 674.81,437.33 678.08,437.33 681.36,437.33 684.63,437.33 687.91,437.33 691.18,437.33 694.46,437.33 697.73,437.33 701.00,437.33 704.28,437.33 707.55,437.33 710.83,438.57 714.10,440.42 717.37,432.13 720.65,433.01 723.92,432.31 727.20,429.49 730.47,433.72 733.75,430.02 737.02,426.84 740.29,428.08 743.57,428.08 746.84,428.25 750.12,434.78 753.39,441.47 756.66,440.77 759.94,434.78 763.21,425.78 766.49,415.91 769.76,416.97 773.03,411.50 776.31,414.15 779.58,416.97 782.86,418.73 786.13,420.67 789.41,415.73 792.68,420.14 795.95,422.96 799.23,429.49 802.50,424.37 805.78,429.66 809.05,428.78 812.32,420.67 815.60,420.67 818.87,420.32 822.15,419.79 825.42,416.62 828.69,405.86 831.97,407.98 835.24,409.56 838.52,411.68 841.79,413.27 845.07,414.15 848.34,404.80 851.61,400.75 854.89,396.52 858.16,403.35 861.44,403.89 864.71,408.87 867.98,413.49 871.26,404.24 874.53,404.24 877.81,405.49 881.08,410.65 884.36,403.17 887.63,403.35 890.90,415.45 894.18,418.48 897.45,412.07 900.73,407.98 904.00,409.22" />
<text x="780.00" y="82.00" font-size="14" font-family="Arial" fill="#1f77b4" text-anchor="start">MA200</text>
<polyline fill="none" stroke="#2ca02c" stroke-width="2" points="56.00,437.33 59.27,437.33 62.55,437.33 65.82,437.33 69.10,437.33 72.37,437.33 75.64,437.33 78.92,437.33 82.19,437.33 85.47,437.33 88.74,437.33 92.02,437.33 95.29,437.33 98.56,437.33 101.84,437.33 105.11,437.33 108.39,437.33 111.66,437.33 114.93,437.33 118.21,437.33 121.48,437.33 124.76,437.33 128.03,437.33 131.31,437.33 134.58,437.33 137.85,437.33 141.13,437.33 144.40,437.33 147.68,437.33 150.95,437.33 154.22,437.33 157.50,437.33 160.77,437.33 164.05,437.33 167.32,437.33 170.59,437.33 173.87,437.33 177.14,437.33 180.42,437.33 183.69,437.33 186.97,437.33 190.24,437.33 193.51,437.33 196.79,437.33 200.06,437.33 203.34,437.33 206.61,437.33 209.88,437.33 213.16,437.33 216.43,437.33 219.71,437.33 222.98,437.33 226.25,437.33 229.53,437.33 232.80,437.33 236.08,437.33 239.35,437.33 242.63,437.33 245.90,437.33 249.17,437.33 252.45,436.32 255.72,437.59 259.00,437.59 262.27,440.88 265.54,441.64 268.82,442.14 272.09,441.38 275.37,440.88 278.64,436.83 281.92,436.32 285.19,434.04 288.46,437.08 291.74,438.85 295.01,434.55 298.29,427.71 301.56,425.43 304.83,423.41 308.11,425.94 311.38,426.95 314.66,425.43 317.93,422.14 321.20,421.89 324.48,412.77 327.75,410.74 331.03,399.35 334.30,400.11 337.58,403.66 340.85,405.68 344.12,406.19 347.40,408.97 350.67,408.97 353.95,409.23 357.22,409.73 360.49,407.45 363.77,412.01 367.04,413.28 370.32,415.81 373.59,418.59 376.86,412.01 380.14,418.85 383.41,418.09 386.69,417.33 389.96,414.54 393.24,407.96 396.51,408.47 399.78,411.00 403.06,408.97 406.33,408.72 409.61,409.23 412.88,407.71 416.15,404.41 419.43,403.15 422.70,400.87 425.98,400.87 429.25,401.38 432.53,406.19 435.80,408.72 439.07,408.97 442.35,412.26 445.62,408.47 448.90,407.20 452.17,405.93 455.44,405.93 458.72,402.90 461.99,397.58 465.27,398.59 468.54,397.83 471.81,394.03 475.09,391.25 478.36,387.20 481.64,385.42 484.91,386.18 488.19,386.94 491.46,381.37 494.73,378.08 498.01,375.55 501.28,373.52 504.56,370.99 507.83,373.27 511.10,374.79 514.38,377.32 517.65,373.78 520.93,368.97 524.20,366.69 527.47,369.47 530.75,365.67 534.02,367.70 537.30,374.28 540.57,376.81 543.85,371.75 547.12,371.50 550.39,380.87 553.67,370.48 556.94,359.09 560.22,350.48 563.49,345.16 566.76,347.95 570.04,331.49 573.31,327.69 576.59,328.45 579.86,337.06 583.14,342.63 586.41,358.84 589.68,345.67 592.96,351.49 596.23,362.64 599.51,354.79 602.78,349.72 606.05,355.04 609.33,351.75 612.60,353.77 615.88,351.49 619.15,343.64 622.42,348.96 625.70,350.48 628.97,357.82 632.25,356.30 635.52,346.43 638.80,342.88 642.07,345.67 645.34,345.67 648.62,358.33 651.89,341.87 655.17,341.87 658.44,346.43 661.71,330.73 664.99,326.17 668.26,325.67 671.54,313.26 674.81,309.97 678.08,298.57 681.36,296.55 684.63,300.85 687.91,290.98 691.18,285.66 694.46,289.20 697.73,289.46 701.00,273.51 704.28,273.76 707.55,273.76 710.83,277.30 714.10,282.62 717.37,258.82 720.65,261.35 723.92,259.33 727.20,251.22 730.47,263.38 733.75,252.74 737.02,243.63 740.29,247.17 743.57,247.17 746.84,247.68 750.12,266.42 753.39,285.66 756.66,283.63 759.94,266.42 763.21,240.59 766.49,212.23 769.76,215.27 773.03,199.57 776.31,207.16 779.58,215.27 782.86,220.33 786.13,225.90 789.41,211.72 792.68,224.38 795.95,232.49 799.23,251.22 802.50,236.54 805.78,251.73 809.05,249.20 812.32,225.90 815.60,225.90 818.87,224.89 822.15,223.37 825.42,214.25 828.69,183.36 831.97,189.44 835.24,194.00 838.52,200.07 841.79,204.63 845.07,207.16 848.34,180.32 851.61,168.68 854.89,156.52 858.16,176.15 861.44,177.69 864.71,192.00 867.98,205.28 871.26,178.71 874.53,178.71 877.81,182.29 881.08,197.11 884.36,175.64 887.63,176.15 890.90,210.91 894.18,219.59 897.45,201.20 900.73,189.44 904.00,193.02" />
<text x="780.00" y="104.00" font-size="14" font-family="Arial" fill="#2ca02c" text-anchor="start">MA20x60</text>
</svg>