<svg xmlns="http://www.w3.org/2000/svg" width="960" height="520" viewBox="0 0 960 520"><rect width="100%" height="100%" fill="white" />
<text x="56.00" y="32.00" font-size="20" font-family="Arial" fill="#1f2933" text-anchor="start">日月光投控(3711) Backtest Equity Curves</text>
<line x1="56" y1="464" x2="904" y2="464" stroke="#cbd2d9" />
<line x1="56" y1="56" x2="56" y2="464" stroke="#cbd2d9" />
<text x="16.00" y="38.00" font-size="12" font-family="Arial" fill="#52606d" text-anchor="start">Equity Multiple</text>
<line x1="56" y1="464.00" x2="904" y2="464.00" stroke="#edf2f7" />
<line x1="52" y1="464.00" x2="56" y2="464.00" stroke="#9fb3c8" />
<text x="48.00" y="468.00" font-size="11" font-family="Arial" fill="#52606d" text-anchor="end">0.70</text>
<line x1="56" y1="362.00" x2="904" y2="362.00" stroke="#edf2f7" />
<line x1="52" y1="362.00" x2="56" y2="362.00" stroke="#9fb3c8" />
<text x="48.00" y="366.00" font-size="11" font-family="Arial" fill="#52606d" text-anchor="end">1.89</text>
<line x1="56" y1="260.00" x2="904" y2="260.00" stroke="#edf2f7" />
<line x1="52" y1="260.00" x2="56" y2="260.00" stroke="#9fb3c8" />
<text x="48.00" y="264.00" font-size="11" font-family="Arial" fill="#52606d" text-anchor="end">3.08</text>
<line x1="56" y1="158.00" x2="904" y2="158.00" stroke="#edf2f7" />
<line x1="52" y1="158.00" x2="56" y2="158.00" stroke="#9fb3c8" />
<text x="48.00" y="162.00" font-size="11" font-family="Arial" fill="#52606d" text-anchor="end">4.27</text>
<line x1="56" y1="56.00" x2="904" y2="56.00" stroke="#edf2f7" />
<line x1="52" y1="56.00" x2="56" y2="56.00" stroke="#9fb3c8" />
<text x="48.00" y="60.00" font-size="11" font-family="Arial" fill="#52606d" text-anchor="end">5.46</text>
<line x1="56.00" y1="464" x2="56.00" y2="468" stroke="#9fb3c8" />
<text x="56.00" y="482.00" font-size="11" font-family="Arial" fill="#52606d" text-anchor="middle">06/16</text>
<line x1="226.25" y1="464" x2="226.25" y2="468" stroke="#9fb3c8" />
<text x="226.25" y="482.00" font-size="11" font-family="Arial" fill="#52606d" text-anchor="middle">08/28</text>
<line x1="396.51" y1="464" x2="396.51" y2="468" stroke="#9fb3c8" />
<text x="396.51" y="482.00" font-size="11" font-family="Arial" fill="#52606d" text-anchor="middle">11/14</text>
<line x1="563.49" y1="464" x2="563.49" y2="468" stroke="#9fb3c8" />
<text x="563.49" y="482.00" font-size="11" font-family="Arial" fill="#52606d" text-anchor="middle">01/28</text>
<line x1="733.75" y1="464" x2="733.75" y2="468" stroke="#9fb3c8" />
<text x="733.75" y="482.00" font-size="11" font-family="Arial" fill="#52606d" text-anchor="middle">04/24</text>
<line x1="904.00" y1="464" x2="904.00" y2="468" stroke="#9fb3c8" />
<text x="904.00" y="482.00" font-size="11" font-family="Arial" fill="#52606d" text-anchor="middle">07/09</text>
<polyline fill="none" stroke="#7f7f7f" stroke-width="2" points="56.00,437.90 59.27,436.13 62.55,436.13 65.82,437.31 69.10,438.19 72.37,436.72 75.64,435.24 78.92,433.17 82.19,433.47 85.47,434.94 88.74,436.42 92.02,437.60 95.29,436.81 98.56,435.27 101.84,433.44 105.11,435.27 108.39,435.89 111.66,433.74 114.93,431.60 118.21,431.60 121.48,432.52 124.76,431.29 128.03,430.98 131.31,430.68 134.58,429.14 137.85,430.06 141.13,430.98 144.40,429.45 147.68,428.22 150.95,429.45 154.22,428.84 157.50,429.45 160.77,430.37 164.05,430.06 167.32,433.13 170.59,433.74 173.87,434.66 177.14,432.82 180.42,432.21 183.69,430.98 186.97,432.82 190.24,432.52 193.51,432.82 196.79,432.82 200.06,431.29 203.34,432.52 206.61,434.66 209.88,435.27 213.16,435.58 216.43,432.52 219.71,432.21 222.98,431.29 226.25,433.13 229.53,430.98 232.80,427.92 236.08,427.30 239.35,427.30 242.63,429.14 245.90,427.92 249.17,418.42 252.45,421.17 255.72,419.95 259.00,421.48 262.27,421.17 265.54,421.48 268.82,419.64 272.09,419.95 275.37,419.33 278.64,419.33 281.92,417.80 285.19,416.58 288.46,418.11 291.74,418.11 295.01,422.09 298.29,423.01 301.56,423.63 304.83,422.71 308.11,422.09 311.38,417.19 314.66,416.58 317.93,413.82 321.20,417.50 324.48,419.64 327.75,414.43 331.03,406.15 334.30,403.40 337.58,400.94 340.85,404.01 344.12,405.23 347.40,403.40 350.67,399.41 353.95,399.10 357.22,388.07 360.49,385.62 363.77,371.82 367.04,372.74 370.32,377.03 373.59,379.49 376.86,380.10 380.14,383.47 383.41,383.47 386.69,383.78 389.96,384.39 393.24,381.63 396.51,387.15 399.78,388.68 403.06,391.75 406.33,395.12 409.61,387.15 412.88,395.43 416.15,394.51 419.43,393.59 422.70,390.21 425.98,382.24 429.25,382.86 432.53,385.92 435.80,383.47 439.07,383.16 442.35,383.78 445.62,381.94 448.90,377.95 452.17,376.42 455.44,373.66 458.72,373.66 461.99,374.27 465.27,380.10 468.54,383.16 471.81,383.47 475.09,387.46 478.36,382.86 481.64,381.32 484.91,379.79 488.19,379.79 491.46,376.11 494.73,369.68 498.01,370.90 501.28,369.98 504.56,365.39 507.83,362.01 511.10,357.11 514.38,354.96 517.65,355.88 520.93,356.80 524.20,350.06 527.47,346.07 530.75,343.01 534.02,340.56 537.30,337.49 540.57,340.25 543.85,342.09 547.12,345.15 550.39,340.86 553.67,335.04 556.94,332.28 560.22,335.65 563.49,331.05 566.76,333.51 570.04,341.48 573.31,344.54 576.59,338.41 579.86,338.10 583.14,349.45 586.41,336.88 589.68,323.08 592.96,312.66 596.23,306.22 599.51,309.60 602.78,289.67 606.05,285.07 609.33,285.99 612.60,296.42 615.88,303.16 619.15,322.78 622.42,306.84 625.70,313.89 628.97,327.38 632.25,317.87 635.52,311.74 638.80,318.18 642.07,314.19 645.34,316.65 648.62,313.89 651.89,304.39 655.17,310.82 658.44,312.66 661.71,321.55 664.99,319.71 668.26,307.76 671.54,303.47 674.81,306.84 678.08,306.84 681.36,322.16 684.63,302.24 687.91,302.24 691.18,307.76 694.46,288.75 697.73,283.23 701.00,282.62 704.28,267.60 707.55,263.62 710.83,249.82 714.10,247.37 717.37,252.58 720.65,240.63 723.92,234.19 727.20,238.48 730.47,238.79 733.75,219.48 737.02,219.78 740.29,219.78 743.57,224.07 746.84,230.51 750.12,201.70 753.39,204.76 756.66,202.31 759.94,192.50 763.21,207.21 766.49,194.34 769.76,183.30 773.03,187.60 776.31,187.60 779.58,188.21 782.86,210.89 786.13,234.19 789.41,231.74 792.68,210.89 795.95,179.63 799.23,145.29 802.50,148.97 805.78,129.97 809.05,139.16 812.32,148.97 815.60,155.10 818.87,161.85 822.15,144.68 825.42,160.01 828.69,169.82 831.97,192.50 835.24,174.72 838.52,193.11 841.79,190.05 845.07,161.85 848.34,161.85 851.61,160.62 854.89,158.78 858.16,147.75 861.44,110.35 864.71,117.71 867.98,123.22 871.26,130.58 874.53,136.10 877.81,139.16 881.08,106.67 884.36,92.57 887.63,77.86 890.90,101.62 894.18,103.48 897.45,120.80 900.73,136.89 904.00,104.72" />
<text x="780.00" y="60.00" font-size="14" font-family="Arial" fill="#7f7f7f" text-anchor="start">BuyHold</text>
<polyline fill="none" stroke="#1f77b4" stroke-width="2" points="56.00,437.90 59.27,437.90 62.55,437.90 65.82,437.90 69.10,437.90 72.37,437.90 75.64,437.90 78.92,437.90 82.19,437.90 85.47,437.90 88.74,437.90 92.02,437.90 95.29,437.90 98.56,437.90 101.84,437.90 105.11,437.90 108.39,437.90 111.66,437.90 114.93,437.90 118.21,437.90 121.48,437.90 124.76,437.90 128.03,437.90 131.31,437.90 134.58,437.90 137.85,437.90 141.13,437.90 144.40,437.90 147.68,437.90 150.95,437.90 154.22,437.90 157.50,437.90 160.77,437.90 164.05,437.90 167.32,437.90 170.59,437.90 173.87,437.90 177.14,437.90 180.42,437.90 183.69,437.90 186.97,437.90 190.24,437.90 193.51,437.90 196.79,437.90 200.06,437.90 203.34,437.90 206.61,437.90 209.88,437.90 213.16,437.90 216.43,437.90 219.71,437.90 222.98,437.90 226.25,437.90 229.53,437.90 232.80,437.90 236.08,437.90 239.35,437.90 242.63,437.90 245.90,437.90 249.17,437.90 252.45,437.90 255.72,437.90 259.00,437.90 262.27,437.90 265.54,437.90 268.82,437.90 272.09,437.90 275.37,437.90 278.64,437.90 281.92,437.90 285.19,437.90 288.46,437.90 291.74,437.90 295.01,437.90 298.29,437.90 301.56,437.90 304.83,437.90 308.11,437.90 311.38,437.90 314.66,437.90 317.93,437.90 321.20,437.90 324.48,437.90 327.75,437.90 331.03,437.90 334.30,437.90 337.58,437.90 340.85,437.90 344.12,437.90 347.40,437.90 350.67,437.90 353.95,437.90 357.22,437.90 360.49,437.90 363.77,437.90 367.04,437.90 370.32,437.90 373.59,437.90 376.86,437.90 380.14,437.90 383.41,437.90 386.69,437.90 389.96,437.90 393.24,437.90 396.51,437.90 399.78,437.90 403.06,437.90 406.33,437.90 409.61,437.90 412.88,437.90 416.15,437.90 419.43,437.90 422.70,437.90 425.98,437.90 429.25,437.90 432.53,437.90 435.80,437.90 439.07,437.90 442.35,437.90 445.62,437.90 448.90,437.90 452.17,437.90 455.44,437.90 458.72,437.90 461.99,437.90 465.27,437.90 468.54,437.90 471.81,437.90 475.09,437.90 478.36,437.90 481.64,437.90 484.91,437.90 488.19,437.90 491.46,437.90 494.73,437.90 498.01,437.90 501.28,437.90 504.56,437.90 507.83,437.90 511.10,437.90 514.38,437.90 517.65,437.90 520.93,437.90 524.20,437.90 527.47,437.90 530.75,437.90 534.02,437.90 537.30,437.90 540.57,437.90 543.85,437.90 547.12,437.90 550.39,437.90 553.67,437.90 556.94,437.90 560.22,437.90 563.49,437.90 566.76,437.90 570.04,437.90 573.31,437.90 576.59,437.90 579.86,437.90 583.14,437.90 586.41,437.90 589.68,437.90 592.96,437.90 596.23,437.90 599.51,437.90 602.78,437.90 606.05,437.90 609.33,437.90 612.60,437.90 615.88,437.90 619.15,437.90 622.42,437.90 625.70,437.90 628.97,437.90 632.25,437.90 635.52,437.90 638.80,437.90 642.07,437.90 645.34,437.90 648.62,437.90 651.89,437.90 655.17,437.90 658.44,437.90 661.71,437.90 664.99,437.90 668.26,437.90 671.54,437.90 674.81,437.90 678.08,437.90 681.36,437.90 684.63,437.90 687.91,437.90 691.18,437.90 694.46,437.90 697.73,437.90 701.00,437.90 704.28,437.90 707.55,437.90 710.83,433.35 714.10,432.54 717.37,434.26 720.65,430.32 723.92,428.20 727.20,429.61 730.47,429.72 733.75,423.35 737.02,423.45 740.29,423.45 743.57,424.87 746.84,426.99 750.12,417.49 753.39,418.50 756.66,417.69 759.94,414.46 763.21,419.31 766.49,415.07 769.76,411.43 773.03,412.85 776.31,412.85 779.58,413.05 782.86,420.52 786.13,428.20 789.41,427.39 792.68,420.52 795.95,410.22 799.23,398.91 802.50,400.12 805.78,393.86 809.05,396.89 812.32,400.12 815.60,402.14 818.87,404.36 822.15,398.70 825.42,403.76 828.69,406.99 831.97,414.46 835.24,408.60 838.52,414.66 841.79,413.65 845.07,404.36 848.34,404.36 851.61,403.96 854.89,403.35 858.16,399.71 861.44,387.39 864.71,389.82 867.98,391.63 871.26,394.06 874.53,395.88 877.81,396.89 881.08,386.18 884.36,381.53 887.63,376.68 890.90,384.52 894.18,385.13 897.45,390.84 900.73,396.14 904.00,385.53" />
<text x="780.00" y="82.00" font-size="14" font-family="Arial" fill="#1f77b4" text-anchor="start">MA200</text>
<polyline fill="none" stroke="#2ca02c" stroke-width="2" points="56.00,437.90 59.27,437.90 62.55,437.90 65.82,437.90 69.10,437.90 72.37,437.90 75.64,437.90 78.92,437.90 82.19,437.90 85.47,437.90 88.74,437.90 92.02,437.90 95.29,437.90 98.56,437.90 101.84,437.90 105.11,437.90 108.39,437.90 111.66,437.90 114.93,437.90 118.21,437.90 121.48,437.90 124.76,437.90 128.03,437.90 131.31,437.90 134.58,437.90 137.85,437.90 141.13,437.90 144.40,437.90 147.68,437.90 150.95,437.90 154.22,437.90 157.50,437.90 160.77,437.90 164.05,437.90 167.32,437.90 170.59,437.90 173.87,437.90 177.14,437.90 180.42,437.90 183.69,437.90 186.97,437.90 190.24,437.90 193.51,437.90 196.79,437.90 200.06,437.90 203.34,437.90 206.61,437.90 209.88,437.90 213.16,437.90 216.43,437.90 219.71,437.90 222.98,437.90 226.25,437.90 229.53,437.90 232.80,437.90 236.08,437.90 239.35,437.90 242.63,437.90 245.90,437.90 249.17,437.90 252.45,440.14 255.72,439.15 259.00,440.39 262.27,440.14 265.54,440.39 268.82,438.90 272.09,439.15 275.37,438.65 278.64,438.65 281.92,437.40 285.19,436.40 288.46,437.65 291.74,437.65 295.01,440.89 298.29,441.64 301.56,442.14 304.83,441.39 308.11,440.89 311.38,436.90 314.66,436.40 317.93,434.15 321.20,437.15 324.48,438.90 327.75,434.65 331.03,427.91 334.30,425.66 337.58,423.66 340.85,426.16 344.12,427.16 347.40,425.66 350.67,422.41 353.95,422.16 357.22,413.17 360.49,411.18 363.77,399.94 367.04,400.69 370.32,404.18 373.59,406.18 376.86,406.68 380.14,409.43 383.41,409.43 386.69,409.68 389.96,410.18 393.24,407.93 396.51,412.42 399.78,413.67 403.06,416.17 406.33,418.92 409.61,412.42 412.88,419.17 416.15,418.42 419.43,417.67 422.70,414.92 425.98,408.43 429.25,408.93 432.53,411.43 435.80,409.43 439.07,409.18 442.35,409.68 445.62,408.18 448.90,404.93 452.17,403.68 455.44,401.44 458.72,401.44 461.99,401.94 465.27,406.68 468.54,409.18 471.81,409.43 475.09,412.67 478.36,408.93 481.64,407.68 484.91,406.43 488.19,406.43 491.46,403.43 494.73,398.19 498.01,399.19 501.28,398.44 504.56,394.69 507.83,391.95 511.10,387.95 514.38,386.20 517.65,386.95 520.93,387.70 524.20,382.21 527.47,378.96 530.75,376.46 534.02,374.46 537.30,371.97 540.57,374.22 543.85,375.71 547.12,378.21 550.39,374.71 553.67,369.97 556.94,367.72 560.22,370.47 563.49,366.72 566.76,368.72 570.04,375.21 573.31,377.71 576.59,372.72 579.86,372.47 583.14,381.71 586.41,371.47 589.68,360.23 592.96,351.74 596.23,346.49 599.51,349.24 602.78,333.01 606.05,329.26 609.33,330.01 612.60,338.50 615.88,344.00 619.15,359.98 622.42,346.99 625.70,352.74 628.97,363.73 632.25,355.98 635.52,350.99 638.80,356.23 642.07,352.99 645.34,354.99 648.62,352.74 651.89,345.00 655.17,350.24 658.44,351.74 661.71,358.98 664.99,357.48 668.26,347.74 671.54,344.25 674.81,346.99 678.08,346.99 681.36,359.48 684.63,343.25 687.91,343.25 691.18,347.74 694.46,332.26 697.73,327.76 701.00,327.27 704.28,315.03 707.55,311.78 710.83,300.54 714.10,298.55 717.37,302.79 720.65,293.05 723.92,287.81 727.20,291.30 730.47,291.55 733.75,275.82 737.02,276.07 740.29,276.07 743.57,279.57 746.84,284.81 750.12,261.34 753.39,263.83 756.66,261.83 759.94,253.84 763.21,265.83 766.49,255.34 769.76,246.35 773.03,249.85 776.31,249.85 779.58,250.35 782.86,268.83 786.13,287.81 789.41,285.81 792.68,268.83 795.95,243.35 799.23,215.38 802.50,218.38 805.78,202.90 809.05,210.39 812.32,218.38 815.60,223.38 818.87,228.87 822.15,214.88 825.42,227.37 828.69,235.36 831.97,253.84 835.24,239.36 838.52,254.34 841.79,251.85 845.07,228.87 848.34,228.87 851.61,227.87 854.89,226.37 858.16,217.38 861.44,186.91 864.71,192.91 867.98,197.40 871.26,203.40 874.53,207.89 877.81,210.39 881.08,183.92 884.36,172.43 887.63,160.44 890.90,179.81 894.18,181.32 897.45,195.43 900.73,208.54 904.00,182.33" />
<text x="780.00" y="104.00" font-size="14" font-family="Arial" fill="#2ca02c" text-anchor="start">MA20x60</text>
</svg>