<svg xmlns="http://www.w3.org/2000/svg" width="960" height="520" viewBox="0 0 960 520"><rect width="100%" height="100%" fill="white" />
<text x="56.00" y="32.00" font-size="20" font-family="Arial" fill="#1f2933" text-anchor="start">緯穎(6669) Backtest Equity Curves</text>
<line x1="56" y1="464" x2="904" y2="464" stroke="#cbd2d9" />
<line x1="56" y1="56" x2="56" y2="464" stroke="#cbd2d9" />
<text x="16.00" y="38.00" font-size="12" font-family="Arial" fill="#52606d" text-anchor="start">Equity Multiple</text>
<line x1="56" y1="464.00" x2="904" y2="464.00" stroke="#edf2f7" />
<line x1="52" y1="464.00" x2="56" y2="464.00" stroke="#9fb3c8" />
<text x="48.00" y="468.00" font-size="11" font-family="Arial" fill="#52606d" text-anchor="end">0.90</text>
<line x1="56" y1="362.00" x2="904" y2="362.00" stroke="#edf2f7" />
<line x1="52" y1="362.00" x2="56" y2="362.00" stroke="#9fb3c8" />
<text x="48.00" y="366.00" font-size="11" font-family="Arial" fill="#52606d" text-anchor="end">1.28</text>
<line x1="56" y1="260.00" x2="904" y2="260.00" stroke="#edf2f7" />
<line x1="52" y1="260.00" x2="56" y2="260.00" stroke="#9fb3c8" />
<text x="48.00" y="264.00" font-size="11" font-family="Arial" fill="#52606d" text-anchor="end">1.67</text>
<line x1="56" y1="158.00" x2="904" y2="158.00" stroke="#edf2f7" />
<line x1="52" y1="158.00" x2="56" y2="158.00" stroke="#9fb3c8" />
<text x="48.00" y="162.00" font-size="11" font-family="Arial" fill="#52606d" text-anchor="end">2.05</text>
<line x1="56" y1="56.00" x2="904" y2="56.00" stroke="#edf2f7" />
<line x1="52" y1="56.00" x2="56" y2="56.00" stroke="#9fb3c8" />
<text x="48.00" y="60.00" font-size="11" font-family="Arial" fill="#52606d" text-anchor="end">2.43</text>
<line x1="56.00" y1="464" x2="56.00" y2="468" stroke="#9fb3c8" />
<text x="56.00" y="482.00" font-size="11" font-family="Arial" fill="#52606d" text-anchor="middle">06/12</text>
<line x1="226.25" y1="464" x2="226.25" y2="468" stroke="#9fb3c8" />
<text x="226.25" y="482.00" font-size="11" font-family="Arial" fill="#52606d" text-anchor="middle">08/26</text>
<line x1="396.51" y1="464" x2="396.51" y2="468" stroke="#9fb3c8" />
<text x="396.51" y="482.00" font-size="11" font-family="Arial" fill="#52606d" text-anchor="middle">11/12</text>
<line x1="563.49" y1="464" x2="563.49" y2="468" stroke="#9fb3c8" />
<text x="563.49" y="482.00" font-size="11" font-family="Arial" fill="#52606d" text-anchor="middle">01/26</text>
<line x1="733.75" y1="464" x2="733.75" y2="468" stroke="#9fb3c8" />
<text x="733.75" y="482.00" font-size="11" font-family="Arial" fill="#52606d" text-anchor="middle">04/22</text>
<line x1="904.00" y1="464" x2="904.00" y2="468" stroke="#9fb3c8" />
<text x="904.00" y="482.00" font-size="11" font-family="Arial" fill="#52606d" text-anchor="middle">07/07</text>
<polyline fill="none" stroke="#7f7f7f" stroke-width="2" points="56.00,437.66 59.27,434.52 62.55,438.71 65.82,436.09 69.10,435.04 72.37,438.19 75.64,437.66 78.92,436.09 82.19,431.87 85.47,410.79 88.74,420.52 92.02,430.25 95.29,430.25 98.56,438.90 101.84,434.58 105.11,436.74 108.39,438.36 111.66,438.36 114.93,442.14 118.21,427.01 121.48,423.23 124.76,422.14 128.03,437.28 131.31,431.33 134.58,432.95 137.85,438.36 141.13,423.77 144.40,430.79 147.68,436.74 150.95,439.44 154.22,432.41 157.50,431.87 160.77,422.69 164.05,419.44 167.32,417.28 170.59,404.85 173.87,417.82 177.14,405.93 180.42,403.77 183.69,399.99 186.97,391.34 190.24,360.53 193.51,350.26 196.79,337.83 200.06,336.75 203.34,342.15 206.61,333.51 209.88,346.48 213.16,381.07 216.43,376.20 219.71,382.69 222.98,374.04 226.25,373.50 229.53,381.07 232.80,382.15 236.08,383.23 239.35,397.28 242.63,391.88 245.90,387.55 249.17,386.47 252.45,376.74 255.72,365.93 259.00,378.37 262.27,345.94 265.54,345.94 268.82,353.50 272.09,355.67 275.37,357.83 278.64,362.15 281.92,357.83 285.19,354.58 288.46,365.93 291.74,364.31 295.01,370.80 298.29,369.18 301.56,374.04 304.83,345.40 308.11,347.02 311.38,345.40 314.66,329.18 317.93,324.32 321.20,332.42 324.48,339.45 327.75,332.97 331.03,324.32 334.30,293.51 337.58,286.48 340.85,294.59 344.12,284.32 347.40,264.32 350.67,264.32 353.95,260.00 357.22,265.40 360.49,262.16 363.77,259.46 367.04,238.92 370.32,231.89 373.59,237.30 376.86,238.92 380.14,253.51 383.41,236.76 386.69,263.24 389.96,239.46 393.24,193.52 396.51,210.82 399.78,221.63 403.06,241.08 406.33,233.52 409.61,257.30 412.88,255.14 416.15,241.08 419.43,261.08 422.70,268.11 425.98,252.97 429.25,222.71 432.53,222.71 435.80,209.74 439.07,224.87 442.35,219.46 445.62,206.49 448.90,212.44 452.17,197.30 455.44,203.25 458.72,215.14 461.99,214.60 465.27,215.14 468.54,227.57 471.81,240.00 475.09,254.05 478.36,252.43 481.64,252.43 484.91,240.54 488.19,244.33 491.46,243.79 494.73,245.41 498.01,238.92 501.28,233.52 504.56,228.65 507.83,218.92 511.10,219.46 514.38,212.98 517.65,204.87 520.93,198.93 524.20,201.09 527.47,245.41 530.75,261.08 534.02,282.16 537.30,275.67 540.57,277.30 543.85,290.27 547.12,301.62 550.39,307.02 553.67,314.05 556.94,296.75 560.22,304.32 563.49,288.65 566.76,303.78 570.04,303.24 573.31,301.62 576.59,317.29 579.86,314.05 583.14,301.08 586.41,305.94 589.68,313.51 592.96,309.72 596.23,311.35 599.51,305.40 602.78,299.46 606.05,290.81 609.33,289.19 612.60,264.86 615.88,271.35 619.15,255.14 622.42,255.68 625.70,281.08 628.97,247.57 632.25,248.11 635.52,278.92 638.80,275.67 642.07,250.81 645.34,262.16 648.62,263.78 651.89,270.81 655.17,275.13 658.44,290.27 661.71,296.75 664.99,292.43 668.26,309.72 671.54,301.08 674.81,297.29 678.08,329.18 681.36,336.75 684.63,339.45 687.91,347.02 691.18,334.05 694.46,335.13 697.73,336.75 701.00,317.83 704.28,316.75 707.55,311.35 710.83,309.72 714.10,297.83 717.37,301.62 720.65,303.78 723.92,292.43 727.20,273.51 730.47,247.57 733.75,233.52 737.02,244.33 740.29,202.71 743.57,175.14 746.84,184.87 750.12,180.01 753.39,198.38 756.66,178.39 759.94,189.74 763.21,166.50 766.49,176.23 769.76,141.63 773.03,126.50 776.31,77.86 779.58,100.56 782.86,116.23 786.13,150.82 789.41,153.52 792.68,175.14 795.95,172.98 799.23,125.96 802.50,106.50 805.78,97.31 809.05,132.99 812.32,155.15 815.60,168.66 818.87,115.15 822.15,107.58 825.42,111.91 828.69,98.40 831.97,101.64 835.24,91.91 838.52,133.53 841.79,130.82 845.07,156.23 848.34,174.06 851.61,179.47 854.89,174.06 858.16,176.23 861.44,154.61 864.71,149.20 867.98,163.73 871.26,183.75 874.53,191.53 877.81,198.21 881.08,227.68 884.36,194.32 887.63,188.20 890.90,143.71 894.18,125.35 897.45,118.12 900.73,143.71 904.00,145.93" />
<text x="780.00" y="60.00" font-size="14" font-family="Arial" fill="#7f7f7f" text-anchor="start">BuyHold</text>
<polyline fill="none" stroke="#1f77b4" stroke-width="2" points="56.00,437.66 59.27,437.66 62.55,437.66 65.82,437.66 69.10,437.66 72.37,437.66 75.64,437.66 78.92,437.66 82.19,437.66 85.47,437.66 88.74,437.66 92.02,437.66 95.29,437.66 98.56,437.66 101.84,437.66 105.11,437.66 108.39,437.66 111.66,437.66 114.93,437.66 118.21,437.66 121.48,437.66 124.76,437.66 128.03,437.66 131.31,437.66 134.58,437.66 137.85,437.66 141.13,437.66 144.40,437.66 147.68,437.66 150.95,437.66 154.22,437.66 157.50,437.66 160.77,437.66 164.05,437.66 167.32,437.66 170.59,437.66 173.87,437.66 177.14,437.66 180.42,437.66 183.69,437.66 186.97,437.66 190.24,437.66 193.51,437.66 196.79,437.66 200.06,437.66 203.34,437.66 206.61,437.66 209.88,437.66 213.16,437.66 216.43,437.66 219.71,437.66 222.98,437.66 226.25,437.66 229.53,437.66 232.80,437.66 236.08,437.66 239.35,437.66 242.63,437.66 245.90,437.66 249.17,437.66 252.45,437.66 255.72,437.66 259.00,437.66 262.27,437.66 265.54,437.66 268.82,437.66 272.09,437.66 275.37,437.66 278.64,437.66 281.92,437.66 285.19,437.66 288.46,437.66 291.74,437.66 295.01,437.66 298.29,437.66 301.56,437.66 304.83,437.66 308.11,437.66 311.38,437.66 314.66,437.66 317.93,437.66 321.20,437.66 324.48,437.66 327.75,437.66 331.03,437.66 334.30,437.66 337.58,437.66 340.85,437.66 344.12,437.66 347.40,437.66 350.67,437.66 353.95,437.66 357.22,437.66 360.49,437.66 363.77,437.66 367.04,437.66 370.32,437.66 373.59,437.66 376.86,437.66 380.14,437.66 383.41,437.66 386.69,437.66 389.96,437.66 393.24,437.66 396.51,437.66 399.78,437.66 403.06,437.66 406.33,437.66 409.61,437.66 412.88,437.66 416.15,437.66 419.43,437.66 422.70,437.66 425.98,437.66 429.25,437.66 432.53,437.66 435.80,437.66 439.07,437.66 442.35,437.66 445.62,437.66 448.90,437.66 452.17,437.66 455.44,437.66 458.72,437.66 461.99,437.66 465.27,437.66 468.54,437.66 471.81,437.66 475.09,437.66 478.36,437.66 481.64,437.66 484.91,437.66 488.19,437.66 491.46,437.66 494.73,437.66 498.01,437.66 501.28,437.66 504.56,437.66 507.83,437.66 511.10,437.66 514.38,437.66 517.65,437.66 520.93,437.66 524.20,437.66 527.47,437.66 530.75,437.66 534.02,437.66 537.30,437.66 540.57,437.66 543.85,437.66 547.12,437.66 550.39,437.66 553.67,437.66 556.94,437.66 560.22,437.66 563.49,437.66 566.76,437.66 570.04,437.66 573.31,437.66 576.59,437.66 579.86,437.66 583.14,437.66 586.41,437.66 589.68,437.66 592.96,437.66 596.23,437.66 599.51,437.66 602.78,437.66 606.05,437.66 609.33,437.66 612.60,437.66 615.88,437.66 619.15,437.66 622.42,437.66 625.70,437.66 628.97,437.66 632.25,437.66 635.52,437.66 638.80,437.66 642.07,437.66 645.34,437.66 648.62,437.66 651.89,437.66 655.17,437.66 658.44,437.66 661.71,437.66 664.99,437.66 668.26,437.66 671.54,437.66 674.81,437.66 678.08,437.66 681.36,437.66 684.63,437.66 687.91,437.66 691.18,437.66 694.46,437.66 697.73,437.66 701.00,437.66 704.28,437.66 707.55,437.66 710.83,436.56 714.10,428.50 717.37,431.07 720.65,432.53 723.92,424.84 727.20,412.01 730.47,394.42 733.75,384.89 737.02,392.22 740.29,364.00 743.57,345.31 746.84,351.90 750.12,348.61 753.39,361.07 756.66,347.51 759.94,355.20 763.21,339.44 766.49,346.04 769.76,322.59 773.03,312.32 776.31,279.34 779.58,294.73 782.86,305.36 786.13,328.82 789.41,330.65 792.68,345.31 795.95,343.84 799.23,311.96 802.50,298.76 805.78,292.53 809.05,316.72 812.32,331.75 815.60,340.91 818.87,304.63 822.15,299.50 825.42,302.43 828.69,293.27 831.97,295.47 835.24,288.87 838.52,317.09 841.79,315.26 845.07,332.48 848.34,344.57 851.61,348.24 854.89,344.57 858.16,346.04 861.44,331.38 864.71,327.72 867.98,337.57 871.26,351.14 874.53,356.42 877.81,360.95 881.08,380.93 884.36,358.31 887.63,354.16 890.90,323.99 894.18,311.55 897.45,306.64 900.73,323.99 904.00,325.50" />
<text x="780.00" y="82.00" font-size="14" font-family="Arial" fill="#1f77b4" text-anchor="start">MA200</text>
<polyline fill="none" stroke="#2ca02c" stroke-width="2" points="56.00,437.66 59.27,437.66 62.55,437.66 65.82,437.66 69.10,437.66 72.37,437.66 75.64,437.66 78.92,437.66 82.19,437.66 85.47,437.66 88.74,437.66 92.02,437.66 95.29,437.66 98.56,437.66 101.84,437.66 105.11,437.66 108.39,437.66 111.66,437.66 114.93,437.66 118.21,437.66 121.48,437.66 124.76,437.66 128.03,437.66 131.31,437.66 134.58,437.66 137.85,437.66 141.13,437.66 144.40,437.66 147.68,437.66 150.95,437.66 154.22,437.66 157.50,437.66 160.77,437.66 164.05,437.66 167.32,437.66 170.59,437.66 173.87,437.66 177.14,437.66 180.42,437.66 183.69,437.66 186.97,437.66 190.24,437.66 193.51,437.66 196.79,437.66 200.06,437.66 203.34,437.66 206.61,437.66 209.88,437.66 213.16,437.66 216.43,437.66 219.71,437.66 222.98,437.66 226.25,437.66 229.53,437.66 232.80,437.66 236.08,437.66 239.35,437.66 242.63,437.66 245.90,437.66 249.17,437.66 252.45,429.50 255.72,420.44 259.00,430.86 262.27,403.67 265.54,403.67 268.82,410.01 272.09,411.83 275.37,413.64 278.64,417.27 281.92,413.64 285.19,410.92 288.46,420.44 291.74,419.08 295.01,424.52 298.29,423.16 301.56,427.24 304.83,403.21 308.11,404.57 311.38,403.21 314.66,389.62 317.93,385.54 321.20,392.34 324.48,398.23 327.75,392.79 331.03,385.54 334.30,359.70 337.58,353.81 340.85,360.61 344.12,351.99 347.40,335.22 350.67,335.22 353.95,331.60 357.22,336.13 360.49,333.41 363.77,331.14 367.04,313.92 370.32,308.03 373.59,312.56 376.86,313.92 380.14,326.16 383.41,312.11 386.69,334.32 389.96,314.37 393.24,275.84 396.51,290.35 399.78,299.41 403.06,315.73 406.33,309.39 409.61,329.33 412.88,327.52 416.15,315.73 419.43,332.50 422.70,338.40 425.98,325.70 429.25,300.32 432.53,300.32 435.80,289.44 439.07,302.13 442.35,297.60 445.62,286.72 448.90,291.71 452.17,279.02 455.44,284.00 458.72,293.98 461.99,293.52 465.27,293.98 468.54,304.40 471.81,314.83 475.09,326.61 478.36,325.25 481.64,325.25 484.91,315.28 488.19,318.45 491.46,318.00 494.73,319.36 498.01,313.92 501.28,309.39 504.56,305.31 507.83,297.15 511.10,297.60 514.38,292.16 517.65,285.36 520.93,280.38 524.20,282.19 527.47,319.36 530.75,332.50 534.02,350.18 537.30,344.74 540.57,344.74 543.85,344.74 547.12,344.74 550.39,344.74 553.67,344.74 556.94,344.74 560.22,344.74 563.49,344.74 566.76,344.74 570.04,344.74 573.31,344.74 576.59,344.74 579.86,344.74 583.14,344.74 586.41,344.74 589.68,344.74 592.96,344.74 596.23,344.74 599.51,344.74 602.78,344.74 606.05,344.74 609.33,344.74 612.60,344.74 615.88,344.74 619.15,344.74 622.42,344.74 625.70,344.74 628.97,344.74 632.25,344.74 635.52,344.74 638.80,344.74 642.07,344.74 645.34,344.74 648.62,344.74 651.89,344.74 655.17,344.74 658.44,344.74 661.71,344.74 664.99,344.74 668.26,344.74 671.54,344.74 674.81,344.74 678.08,344.74 681.36,344.74 684.63,344.74 687.91,344.74 691.18,344.74 694.46,344.74 697.73,344.74 701.00,344.74 704.28,344.74 707.55,344.74 710.83,344.74 714.10,344.74 717.37,344.74 720.65,344.74 723.92,344.74 727.20,344.74 730.47,344.74 733.75,344.74 737.02,344.74 740.29,344.74 743.57,344.74 746.84,344.74 750.12,341.38 753.39,354.09 756.66,340.25 759.94,348.11 763.21,332.03 766.49,338.76 769.76,314.83 773.03,304.36 776.31,270.70 779.58,286.41 782.86,297.25 786.13,321.18 789.41,323.05 792.68,338.01 795.95,336.52 799.23,303.98 802.50,290.52 805.78,284.16 809.05,308.84 812.32,324.17 815.60,333.52 818.87,296.50 822.15,291.27 825.42,294.26 828.69,284.91 831.97,287.15 835.24,280.42 838.52,309.22 841.79,307.35 845.07,324.92 848.34,337.26 851.61,341.00 854.89,337.26 858.16,338.76 861.44,323.80 864.71,320.06 867.98,330.11 871.26,343.96 874.53,349.35 877.81,353.97 881.08,374.36 884.36,351.28 887.63,347.04 890.90,316.26 894.18,303.56 897.45,298.56 900.73,316.26 904.00,317.80" />
<text x="780.00" y="104.00" font-size="14" font-family="Arial" fill="#2ca02c" text-anchor="start">MA20x60</text>
</svg>