<svg xmlns="http://www.w3.org/2000/svg" width="960" height="520" viewBox="0 0 960 520"><rect width="100%" height="100%" fill="white" />
<text x="56.00" y="32.00" font-size="20" font-family="Arial" fill="#1f2933" text-anchor="start">南電(8046) Backtest Equity Curves</text>
<line x1="56" y1="464" x2="904" y2="464" stroke="#cbd2d9" />
<line x1="56" y1="56" x2="56" y2="464" stroke="#cbd2d9" />
<text x="16.00" y="38.00" font-size="12" font-family="Arial" fill="#52606d" text-anchor="start">Equity Multiple</text>
<line x1="56" y1="464.00" x2="904" y2="464.00" stroke="#edf2f7" />
<line x1="52" y1="464.00" x2="56" y2="464.00" stroke="#9fb3c8" />
<text x="48.00" y="468.00" font-size="11" font-family="Arial" fill="#52606d" text-anchor="end">0.19</text>
<line x1="56" y1="362.00" x2="904" y2="362.00" stroke="#edf2f7" />
<line x1="52" y1="362.00" x2="56" y2="362.00" stroke="#9fb3c8" />
<text x="48.00" y="366.00" font-size="11" font-family="Arial" fill="#52606d" text-anchor="end">3.49</text>
<line x1="56" y1="260.00" x2="904" y2="260.00" stroke="#edf2f7" />
<line x1="52" y1="260.00" x2="56" y2="260.00" stroke="#9fb3c8" />
<text x="48.00" y="264.00" font-size="11" font-family="Arial" fill="#52606d" text-anchor="end">6.78</text>
<line x1="56" y1="158.00" x2="904" y2="158.00" stroke="#edf2f7" />
<line x1="52" y1="158.00" x2="56" y2="158.00" stroke="#9fb3c8" />
<text x="48.00" y="162.00" font-size="11" font-family="Arial" fill="#52606d" text-anchor="end">10.1</text>
<line x1="56" y1="56.00" x2="904" y2="56.00" stroke="#edf2f7" />
<line x1="52" y1="56.00" x2="56" y2="56.00" stroke="#9fb3c8" />
<text x="48.00" y="60.00" font-size="11" font-family="Arial" fill="#52606d" text-anchor="end">13.4</text>
<line x1="56.00" y1="464" x2="56.00" y2="468" stroke="#9fb3c8" />
<text x="56.00" y="482.00" font-size="11" font-family="Arial" fill="#52606d" text-anchor="middle">06/26</text>
<line x1="226.25" y1="464" x2="226.25" y2="468" stroke="#9fb3c8" />
<text x="226.25" y="482.00" font-size="11" font-family="Arial" fill="#52606d" text-anchor="middle">09/09</text>
<line x1="396.51" y1="464" x2="396.51" y2="468" stroke="#9fb3c8" />
<text x="396.51" y="482.00" font-size="11" font-family="Arial" fill="#52606d" text-anchor="middle">11/26</text>
<line x1="563.49" y1="464" x2="563.49" y2="468" stroke="#9fb3c8" />
<text x="563.49" y="482.00" font-size="11" font-family="Arial" fill="#52606d" text-anchor="middle">02/09</text>
<line x1="733.75" y1="464" x2="733.75" y2="468" stroke="#9fb3c8" />
<text x="733.75" y="482.00" font-size="11" font-family="Arial" fill="#52606d" text-anchor="middle">05/07</text>
<line x1="904.00" y1="464" x2="904.00" y2="468" stroke="#9fb3c8" />
<text x="904.00" y="482.00" font-size="11" font-family="Arial" fill="#52606d" text-anchor="middle">07/21</text>
<polyline fill="none" stroke="#7f7f7f" stroke-width="2" points="56.00,439.02 59.27,439.16 62.55,439.30 65.82,439.44 69.10,438.75 72.37,435.71 75.64,435.15 78.92,435.43 82.19,435.02 85.47,431.56 88.74,431.28 92.02,430.04 95.29,430.31 98.56,426.44 101.84,422.16 105.11,422.99 108.39,422.71 111.66,423.54 114.93,424.92 118.21,422.57 121.48,421.60 124.76,420.08 128.03,418.98 131.31,421.05 134.58,420.22 137.85,420.91 141.13,421.19 144.40,420.91 147.68,421.88 150.95,422.29 154.22,423.40 157.50,419.94 160.77,421.05 164.05,422.29 167.32,422.71 170.59,423.12 173.87,419.39 177.14,420.22 180.42,423.82 183.69,423.26 186.97,422.29 190.24,418.56 193.51,418.28 196.79,413.17 200.06,407.50 203.34,409.16 206.61,414.41 209.88,415.52 213.16,417.32 216.43,418.70 219.71,418.15 222.98,418.56 226.25,419.11 229.53,418.84 232.80,420.36 236.08,419.11 239.35,420.50 242.63,415.66 245.90,416.49 249.17,414.69 252.45,409.16 255.72,404.87 259.00,405.15 262.27,409.02 265.54,406.67 268.82,409.44 272.09,407.50 275.37,406.95 278.64,406.12 281.92,399.76 285.19,400.03 288.46,397.96 291.74,396.71 295.01,396.02 298.29,399.20 301.56,392.15 304.83,392.15 308.11,392.43 311.38,393.26 314.66,394.36 317.93,393.81 321.20,394.64 324.48,392.98 327.75,393.67 331.03,389.66 334.30,392.01 337.58,389.66 340.85,391.18 344.12,392.57 347.40,394.78 350.67,394.50 353.95,394.50 357.22,389.66 360.49,390.08 363.77,391.32 367.04,389.25 370.32,391.87 373.59,394.64 376.86,396.58 380.14,400.59 383.41,395.61 386.69,400.86 389.96,401.69 393.24,400.86 396.51,398.93 399.78,397.96 403.06,397.41 406.33,396.30 409.61,397.54 412.88,395.61 416.15,398.51 419.43,395.33 422.70,395.33 425.98,391.46 429.25,392.57 432.53,393.12 435.80,394.92 439.07,396.44 442.35,401.14 445.62,402.66 448.90,405.15 452.17,403.77 455.44,402.52 458.72,403.90 461.99,403.90 465.27,401.83 468.54,403.49 471.81,403.49 475.09,403.35 478.36,404.46 481.64,403.21 484.91,402.38 488.19,403.21 491.46,404.46 494.73,403.49 498.01,399.62 501.28,395.88 504.56,397.68 507.83,397.13 511.10,389.94 514.38,382.06 517.65,375.56 520.93,370.16 524.20,367.54 527.47,364.36 530.75,367.68 534.02,360.76 537.30,360.49 540.57,366.57 543.85,362.56 547.12,368.23 550.39,360.90 553.67,356.61 556.94,360.07 560.22,365.19 563.49,354.82 566.76,356.75 570.04,354.95 573.31,343.48 576.59,330.89 579.86,317.07 583.14,316.51 586.41,320.39 589.68,331.72 592.96,345.55 596.23,342.51 599.51,340.16 602.78,353.02 606.05,351.64 609.33,339.88 612.60,340.44 615.88,327.58 619.15,313.47 622.42,319.56 625.70,313.19 628.97,314.85 632.25,320.39 635.52,322.32 638.80,334.21 642.07,320.66 645.34,312.64 648.62,314.85 651.89,309.60 655.17,325.64 658.44,311.26 661.71,312.92 664.99,297.43 668.26,293.84 671.54,284.99 674.81,285.54 678.08,288.86 681.36,291.35 684.63,288.58 687.91,270.61 691.18,269.78 694.46,249.86 697.73,251.80 701.00,247.93 704.28,250.14 707.55,228.29 710.83,217.51 714.10,212.25 717.37,216.68 720.65,192.06 723.92,197.32 727.20,194.28 730.47,210.04 733.75,208.10 737.02,233.82 740.29,218.89 743.57,221.10 746.84,226.63 750.12,235.76 753.39,252.63 756.66,251.25 759.94,249.31 763.21,240.74 766.49,228.85 769.76,211.70 773.03,225.53 776.31,215.02 779.58,219.72 782.86,234.93 786.13,235.48 789.41,219.72 792.68,231.61 795.95,220.00 799.23,227.19 802.50,236.31 805.78,240.19 809.05,217.23 812.32,235.76 815.60,246.82 818.87,243.50 822.15,232.17 825.42,220.55 828.69,225.25 831.97,228.29 835.24,231.06 838.52,218.61 841.79,205.89 845.07,180.40 848.34,158.23 851.61,170.70 854.89,141.60 858.16,144.37 861.44,152.68 864.71,141.60 867.98,172.08 871.26,184.55 874.53,163.77 877.81,133.28 881.08,133.28 884.36,118.04 887.63,112.50 890.90,77.86 894.18,116.66 897.45,151.30 900.73,163.77 904.00,140.21" />
<text x="780.00" y="60.00" font-size="14" font-family="Arial" fill="#7f7f7f" text-anchor="start">BuyHold</text>
<polyline fill="none" stroke="#1f77b4" stroke-width="2" points="56.00,439.02 59.27,439.02 62.55,439.02 65.82,439.02 69.10,439.02 72.37,439.02 75.64,439.02 78.92,439.02 82.19,439.02 85.47,439.02 88.74,439.02 92.02,439.02 95.29,439.02 98.56,439.02 101.84,439.02 105.11,439.02 108.39,439.02 111.66,439.02 114.93,439.02 118.21,439.02 121.48,439.02 124.76,439.02 128.03,439.02 131.31,439.02 134.58,439.02 137.85,439.02 141.13,439.02 144.40,439.02 147.68,439.02 150.95,439.02 154.22,439.02 157.50,439.02 160.77,439.02 164.05,439.02 167.32,439.02 170.59,439.02 173.87,439.02 177.14,439.02 180.42,439.02 183.69,439.02 186.97,439.02 190.24,439.02 193.51,439.02 196.79,439.02 200.06,439.02 203.34,439.02 206.61,439.02 209.88,439.02 213.16,439.02 216.43,439.02 219.71,439.02 222.98,439.02 226.25,439.02 229.53,439.02 232.80,439.02 236.08,439.02 239.35,439.02 242.63,439.02 245.90,439.02 249.17,439.02 252.45,439.02 255.72,439.02 259.00,439.02 262.27,439.02 265.54,439.02 268.82,439.02 272.09,439.02 275.37,439.02 278.64,439.02 281.92,439.02 285.19,439.02 288.46,439.02 291.74,439.02 295.01,439.02 298.29,439.02 301.56,439.02 304.83,439.02 308.11,439.02 311.38,439.02 314.66,439.02 317.93,439.02 321.20,439.02 324.48,439.02 327.75,439.02 331.03,439.02 334.30,439.02 337.58,439.02 340.85,439.02 344.12,439.02 347.40,439.02 350.67,439.02 353.95,439.02 357.22,439.02 360.49,439.02 363.77,439.02 367.04,439.02 370.32,439.02 373.59,439.02 376.86,439.02 380.14,439.02 383.41,439.02 386.69,439.02 389.96,439.02 393.24,439.02 396.51,439.02 399.78,439.02 403.06,439.02 406.33,439.02 409.61,439.02 412.88,439.02 416.15,439.02 419.43,439.02 422.70,439.02 425.98,439.02 429.25,439.02 432.53,439.02 435.80,439.02 439.07,439.02 442.35,439.02 445.62,439.02 448.90,439.02 452.17,439.02 455.44,439.02 458.72,439.02 461.99,439.02 465.27,439.02 468.54,439.02 471.81,439.02 475.09,439.02 478.36,439.02 481.64,439.02 484.91,439.02 488.19,439.02 491.46,439.02 494.73,439.02 498.01,439.02 501.28,439.02 504.56,439.02 507.83,439.02 511.10,439.02 514.38,439.02 517.65,439.02 520.93,439.02 524.20,439.02 527.47,439.02 530.75,439.02 534.02,439.02 537.30,439.02 540.57,439.02 543.85,439.02 547.12,439.02 550.39,439.02 553.67,439.02 556.94,439.02 560.22,439.02 563.49,439.02 566.76,439.02 570.04,439.02 573.31,439.02 576.59,439.02 579.86,439.02 583.14,439.02 586.41,439.02 589.68,439.02 592.96,439.02 596.23,439.02 599.51,439.02 602.78,439.02 606.05,439.02 609.33,439.02 612.60,439.02 615.88,439.02 619.15,439.02 622.42,439.02 625.70,439.02 628.97,439.02 632.25,439.02 635.52,439.02 638.80,439.02 642.07,439.02 645.34,439.02 648.62,439.02 651.89,439.02 655.17,439.02 658.44,439.02 661.71,439.02 664.99,439.02 668.26,439.02 671.54,439.02 674.81,439.02 678.08,439.02 681.36,439.02 684.63,439.02 687.91,439.02 691.18,439.02 694.46,439.02 697.73,439.02 701.00,439.02 704.28,439.02 707.55,439.02 710.83,437.64 714.10,436.97 717.37,437.54 720.65,434.38 723.92,435.05 727.20,434.66 730.47,436.68 733.75,436.44 737.02,439.73 740.29,437.82 743.57,438.10 746.84,438.81 750.12,439.98 753.39,442.14 756.66,441.97 759.94,441.72 763.21,440.62 766.49,439.09 769.76,436.90 773.03,438.67 776.31,437.32 779.58,437.93 782.86,439.87 786.13,439.95 789.41,437.93 792.68,439.45 795.95,437.96 799.23,438.88 802.50,440.05 805.78,440.55 809.05,437.61 812.32,439.98 815.60,441.40 818.87,440.97 822.15,439.52 825.42,438.03 828.69,438.63 831.97,439.02 835.24,439.38 838.52,437.78 841.79,436.15 845.07,432.89 848.34,430.04 851.61,431.64 854.89,427.91 858.16,428.27 861.44,429.33 864.71,427.91 867.98,431.82 871.26,433.42 874.53,430.75 877.81,426.85 881.08,426.85 884.36,424.89 887.63,424.18 890.90,419.74 894.18,424.72 897.45,429.16 900.73,430.75 904.00,427.74" />
<text x="780.00" y="82.00" font-size="14" font-family="Arial" fill="#1f77b4" text-anchor="start">MA200</text>
<polyline fill="none" stroke="#2ca02c" stroke-width="2" points="56.00,439.02 59.27,439.02 62.55,439.02 65.82,439.02 69.10,439.02 72.37,439.02 75.64,439.02 78.92,439.02 82.19,439.02 85.47,439.02 88.74,439.02 92.02,439.02 95.29,439.02 98.56,439.02 101.84,439.02 105.11,439.02 108.39,439.02 111.66,439.02 114.93,439.02 118.21,439.02 121.48,439.02 124.76,439.02 128.03,439.02 131.31,439.02 134.58,439.02 137.85,439.02 141.13,439.02 144.40,439.02 147.68,439.02 150.95,439.02 154.22,439.02 157.50,439.02 160.77,439.02 164.05,439.02 167.32,439.02 170.59,439.02 173.87,439.02 177.14,439.02 180.42,439.02 183.69,439.02 186.97,439.02 190.24,439.02 193.51,439.02 196.79,439.02 200.06,439.02 203.34,439.02 206.61,439.02 209.88,439.02 213.16,439.02 216.43,439.02 219.71,439.02 222.98,439.02 226.25,439.02 229.53,439.02 232.80,439.02 236.08,439.02 239.35,439.02 242.63,439.02 245.90,439.02 249.17,439.02 252.45,435.93 255.72,433.53 259.00,433.68 262.27,435.85 265.54,434.53 268.82,436.08 272.09,435.00 275.37,434.69 278.64,434.22 281.92,430.66 285.19,430.82 288.46,429.65 291.74,428.96 295.01,428.57 298.29,430.35 301.56,426.40 304.83,426.40 308.11,426.56 311.38,427.02 314.66,427.64 317.93,427.33 321.20,427.80 324.48,426.87 327.75,427.25 331.03,425.01 334.30,426.32 337.58,425.01 340.85,425.86 344.12,426.63 347.40,427.87 350.67,427.72 353.95,427.72 357.22,425.01 360.49,425.24 363.77,425.94 367.04,424.77 370.32,426.25 373.59,427.80 376.86,428.88 380.14,431.13 383.41,428.34 386.69,431.28 389.96,431.74 393.24,431.28 396.51,430.20 399.78,429.65 403.06,429.34 406.33,428.72 409.61,429.42 412.88,428.34 416.15,429.96 419.43,428.18 422.70,428.18 425.98,426.01 429.25,426.63 432.53,426.94 435.80,427.95 439.07,428.80 442.35,431.43 445.62,432.29 448.90,432.29 452.17,432.29 455.44,432.29 458.72,432.29 461.99,432.29 465.27,432.29 468.54,432.29 471.81,432.29 475.09,432.29 478.36,432.29 481.64,432.29 484.91,432.29 488.19,432.29 491.46,432.29 494.73,432.29 498.01,432.29 501.28,432.29 504.56,432.29 507.83,432.29 511.10,432.29 514.38,432.29 517.65,432.29 520.93,432.29 524.20,432.29 527.47,431.12 530.75,432.34 534.02,429.79 537.30,429.69 540.57,431.93 543.85,430.45 547.12,432.54 550.39,429.84 553.67,428.27 556.94,429.54 560.22,431.42 563.49,427.60 566.76,428.32 570.04,427.66 573.31,423.43 576.59,418.80 579.86,413.71 583.14,413.51 586.41,414.93 589.68,419.10 592.96,424.19 596.23,423.07 599.51,422.21 602.78,426.94 606.05,426.43 609.33,422.11 612.60,422.31 615.88,417.58 619.15,412.39 622.42,414.63 625.70,412.28 628.97,412.90 632.25,414.93 635.52,415.64 638.80,420.02 642.07,415.03 645.34,412.08 648.62,412.90 651.89,410.96 655.17,416.87 658.44,411.57 661.71,412.18 664.99,406.48 668.26,405.16 671.54,401.90 674.81,402.11 678.08,403.33 681.36,404.24 684.63,403.23 687.91,396.61 691.18,396.30 694.46,388.97 697.73,389.69 701.00,388.26 704.28,389.08 707.55,381.03 710.83,377.06 714.10,375.13 717.37,376.76 720.65,367.70 723.92,369.63 727.20,368.51 730.47,374.32 733.75,373.60 737.02,383.07 740.29,377.57 743.57,378.39 746.84,380.42 750.12,383.78 753.39,389.99 756.66,389.48 759.94,388.77 763.21,385.62 766.49,381.24 769.76,374.93 773.03,380.02 776.31,376.15 779.58,377.88 782.86,383.48 786.13,383.68 789.41,377.88 792.68,382.26 795.95,377.98 799.23,380.63 802.50,383.99 805.78,385.41 809.05,376.96 812.32,383.78 815.60,387.85 818.87,386.63 822.15,382.46 825.42,378.18 828.69,379.92 831.97,381.03 835.24,382.05 838.52,377.47 841.79,372.79 845.07,363.41 848.34,355.24 851.61,359.83 854.89,349.12 858.16,350.14 861.44,353.20 864.71,349.12 867.98,360.35 871.26,364.94 874.53,357.28 877.81,346.06 881.08,346.06 884.36,340.45 887.63,338.41 890.90,325.66 894.18,339.94 897.45,352.69 900.73,357.28 904.00,348.61" />
<text x="780.00" y="104.00" font-size="14" font-family="Arial" fill="#2ca02c" text-anchor="start">MA20x60</text>
</svg>