<svg xmlns="http://www.w3.org/2000/svg" width="960" height="520" viewBox="0 0 960 520"><rect width="100%" height="100%" fill="white" />
<text x="56.00" y="32.00" font-size="20" font-family="Arial" fill="#1f2933" text-anchor="start">南電(8046) Backtest Equity Curves</text>
<line x1="56" y1="464" x2="904" y2="464" stroke="#cbd2d9" />
<line x1="56" y1="56" x2="56" y2="464" stroke="#cbd2d9" />
<text x="16.00" y="38.00" font-size="12" font-family="Arial" fill="#52606d" text-anchor="start">Equity Multiple</text>
<line x1="56" y1="464.00" x2="904" y2="464.00" stroke="#edf2f7" />
<line x1="52" y1="464.00" x2="56" y2="464.00" stroke="#9fb3c8" />
<text x="48.00" y="468.00" font-size="11" font-family="Arial" fill="#52606d" text-anchor="end">0.15</text>
<line x1="56" y1="362.00" x2="904" y2="362.00" stroke="#edf2f7" />
<line x1="52" y1="362.00" x2="56" y2="362.00" stroke="#9fb3c8" />
<text x="48.00" y="366.00" font-size="11" font-family="Arial" fill="#52606d" text-anchor="end">3.47</text>
<line x1="56" y1="260.00" x2="904" y2="260.00" stroke="#edf2f7" />
<line x1="52" y1="260.00" x2="56" y2="260.00" stroke="#9fb3c8" />
<text x="48.00" y="264.00" font-size="11" font-family="Arial" fill="#52606d" text-anchor="end">6.79</text>
<line x1="56" y1="158.00" x2="904" y2="158.00" stroke="#edf2f7" />
<line x1="52" y1="158.00" x2="56" y2="158.00" stroke="#9fb3c8" />
<text x="48.00" y="162.00" font-size="11" font-family="Arial" fill="#52606d" text-anchor="end">10.1</text>
<line x1="56" y1="56.00" x2="904" y2="56.00" stroke="#edf2f7" />
<line x1="52" y1="56.00" x2="56" y2="56.00" stroke="#9fb3c8" />
<text x="48.00" y="60.00" font-size="11" font-family="Arial" fill="#52606d" text-anchor="end">13.4</text>
<line x1="56.00" y1="464" x2="56.00" y2="468" stroke="#9fb3c8" />
<text x="56.00" y="482.00" font-size="11" font-family="Arial" fill="#52606d" text-anchor="middle">06/27</text>
<line x1="226.25" y1="464" x2="226.25" y2="468" stroke="#9fb3c8" />
<text x="226.25" y="482.00" font-size="11" font-family="Arial" fill="#52606d" text-anchor="middle">09/10</text>
<line x1="396.51" y1="464" x2="396.51" y2="468" stroke="#9fb3c8" />
<text x="396.51" y="482.00" font-size="11" font-family="Arial" fill="#52606d" text-anchor="middle">11/27</text>
<line x1="563.49" y1="464" x2="563.49" y2="468" stroke="#9fb3c8" />
<text x="563.49" y="482.00" font-size="11" font-family="Arial" fill="#52606d" text-anchor="middle">02/10</text>
<line x1="733.75" y1="464" x2="733.75" y2="468" stroke="#9fb3c8" />
<text x="733.75" y="482.00" font-size="11" font-family="Arial" fill="#52606d" text-anchor="middle">05/08</text>
<line x1="904.00" y1="464" x2="904.00" y2="468" stroke="#9fb3c8" />
<text x="904.00" y="482.00" font-size="11" font-family="Arial" fill="#52606d" text-anchor="middle">07/22</text>
<polyline fill="none" stroke="#7f7f7f" stroke-width="2" points="56.00,437.87 59.27,438.00 62.55,438.14 65.82,437.46 69.10,434.43 72.37,433.88 75.64,434.15 78.92,433.74 82.19,430.29 85.47,430.02 88.74,428.78 92.02,429.05 95.29,425.20 98.56,420.92 101.84,421.75 105.11,421.48 108.39,422.30 111.66,423.68 114.93,421.34 118.21,420.37 121.48,418.86 124.76,417.76 128.03,419.82 131.31,419.00 134.58,419.68 137.85,419.96 141.13,419.68 144.40,420.65 147.68,421.06 150.95,422.16 154.22,418.72 157.50,419.82 160.77,421.06 164.05,421.48 167.32,421.89 170.59,418.17 173.87,419.00 177.14,422.58 180.42,422.03 183.69,421.06 186.97,417.34 190.24,417.07 193.51,411.97 196.79,406.32 200.06,407.97 203.34,413.21 206.61,414.31 209.88,416.10 213.16,417.48 216.43,416.93 219.71,417.34 222.98,417.89 226.25,417.62 229.53,419.13 232.80,417.89 236.08,419.27 239.35,414.45 242.63,415.28 245.90,413.48 249.17,407.97 252.45,403.70 255.72,403.98 259.00,407.84 262.27,405.49 265.54,408.25 268.82,406.32 272.09,405.77 275.37,404.94 278.64,398.60 281.92,398.88 285.19,396.81 288.46,395.57 291.74,394.88 295.01,398.05 298.29,391.03 301.56,391.03 304.83,391.30 308.11,392.13 311.38,393.23 314.66,392.68 317.93,393.51 321.20,391.85 324.48,392.54 327.75,388.55 331.03,390.89 334.30,388.55 337.58,390.06 340.85,391.44 344.12,393.64 347.40,393.37 350.67,393.37 353.95,388.55 357.22,388.96 360.49,390.20 363.77,388.13 367.04,390.75 370.32,393.51 373.59,395.44 376.86,399.43 380.14,394.47 383.41,399.71 386.69,400.53 389.96,399.71 393.24,397.78 396.51,396.81 399.78,396.26 403.06,395.16 406.33,396.40 409.61,394.47 412.88,397.36 416.15,394.20 419.43,394.20 422.70,390.34 425.98,391.44 429.25,391.99 432.53,393.78 435.80,395.30 439.07,399.98 442.35,401.50 445.62,403.98 448.90,402.60 452.17,401.36 455.44,402.74 458.72,402.74 461.99,400.67 465.27,402.32 468.54,402.32 471.81,402.19 475.09,403.29 478.36,402.05 481.64,401.22 484.91,402.05 488.19,403.29 491.46,402.32 494.73,398.47 498.01,394.75 501.28,396.54 504.56,395.99 507.83,388.82 511.10,380.97 514.38,374.49 517.65,369.12 520.93,366.50 524.20,363.33 527.47,366.64 530.75,359.75 534.02,359.47 537.30,365.54 540.57,361.54 543.85,367.19 547.12,359.89 550.39,355.62 553.67,359.06 556.94,364.16 560.22,353.83 563.49,355.75 566.76,353.96 570.04,342.53 573.31,329.99 576.59,316.21 579.86,315.66 583.14,319.52 586.41,330.82 589.68,344.59 592.96,341.56 596.23,339.22 599.51,352.03 602.78,350.66 606.05,338.94 609.33,339.50 612.60,326.68 615.88,312.63 619.15,318.69 622.42,312.35 625.70,314.01 628.97,319.52 632.25,321.45 635.52,333.30 638.80,319.79 642.07,311.80 645.34,314.01 648.62,308.77 651.89,324.75 655.17,310.42 658.44,312.08 661.71,296.65 664.99,293.06 668.26,284.25 671.54,284.80 674.81,288.10 678.08,290.58 681.36,287.83 684.63,269.92 687.91,269.09 691.18,249.25 694.46,251.18 697.73,247.32 701.00,249.52 704.28,227.76 707.55,217.01 710.83,211.77 714.10,216.18 717.37,191.66 720.65,196.89 723.92,193.86 727.20,209.57 730.47,207.64 733.75,233.27 737.02,218.39 740.29,220.59 743.57,226.10 746.84,235.20 750.12,252.00 753.39,250.63 756.66,248.70 759.94,240.16 763.21,228.31 766.49,211.22 769.76,225.00 773.03,214.53 776.31,219.21 779.58,234.37 782.86,234.92 786.13,219.21 789.41,231.06 792.68,219.49 795.95,226.65 799.23,235.75 802.50,239.60 805.78,216.73 809.05,235.20 812.32,246.22 815.60,242.91 818.87,231.61 822.15,220.04 825.42,224.72 828.69,227.76 831.97,230.51 835.24,218.11 838.52,205.43 841.79,180.03 845.07,157.94 848.34,170.36 851.61,141.37 854.89,144.13 858.16,152.42 861.44,141.37 864.71,171.75 867.98,184.17 871.26,163.46 874.53,133.09 877.81,133.09 881.08,117.90 884.36,112.37 887.63,77.86 890.90,116.52 894.18,151.03 897.45,163.46 900.73,139.99 904.00,108.23" />
<text x="780.00" y="60.00" font-size="14" font-family="Arial" fill="#7f7f7f" text-anchor="start">BuyHold</text>
<polyline fill="none" stroke="#1f77b4" stroke-width="2" points="56.00,437.87 59.27,437.87 62.55,437.87 65.82,437.87 69.10,437.87 72.37,437.87 75.64,437.87 78.92,437.87 82.19,437.87 85.47,437.87 88.74,437.87 92.02,437.87 95.29,437.87 98.56,437.87 101.84,437.87 105.11,437.87 108.39,437.87 111.66,437.87 114.93,437.87 118.21,437.87 121.48,437.87 124.76,437.87 128.03,437.87 131.31,437.87 134.58,437.87 137.85,437.87 141.13,437.87 144.40,437.87 147.68,437.87 150.95,437.87 154.22,437.87 157.50,437.87 160.77,437.87 164.05,437.87 167.32,437.87 170.59,437.87 173.87,437.87 177.14,437.87 180.42,437.87 183.69,437.87 186.97,437.87 190.24,437.87 193.51,437.87 196.79,437.87 200.06,437.87 203.34,437.87 206.61,437.87 209.88,437.87 213.16,437.87 216.43,437.87 219.71,437.87 222.98,437.87 226.25,437.87 229.53,437.87 232.80,437.87 236.08,437.87 239.35,437.87 242.63,437.87 245.90,437.87 249.17,437.87 252.45,437.87 255.72,437.87 259.00,437.87 262.27,437.87 265.54,437.87 268.82,437.87 272.09,437.87 275.37,437.87 278.64,437.87 281.92,437.87 285.19,437.87 288.46,437.87 291.74,437.87 295.01,437.87 298.29,437.87 301.56,437.87 304.83,437.87 308.11,437.87 311.38,437.87 314.66,437.87 317.93,437.87 321.20,437.87 324.48,437.87 327.75,437.87 331.03,437.87 334.30,437.87 337.58,437.87 340.85,437.87 344.12,437.87 347.40,437.87 350.67,437.87 353.95,437.87 357.22,437.87 360.49,437.87 363.77,437.87 367.04,437.87 370.32,437.87 373.59,437.87 376.86,437.87 380.14,437.87 383.41,437.87 386.69,437.87 389.96,437.87 393.24,437.87 396.51,437.87 399.78,437.87 403.06,437.87 406.33,437.87 409.61,437.87 412.88,437.87 416.15,437.87 419.43,437.87 422.70,437.87 425.98,437.87 429.25,437.87 432.53,437.87 435.80,437.87 439.07,437.87 442.35,437.87 445.62,437.87 448.90,437.87 452.17,437.87 455.44,437.87 458.72,437.87 461.99,437.87 465.27,437.87 468.54,437.87 471.81,437.87 475.09,437.87 478.36,437.87 481.64,437.87 484.91,437.87 488.19,437.87 491.46,437.87 494.73,437.87 498.01,437.87 501.28,437.87 504.56,437.87 507.83,437.87 511.10,437.87 514.38,437.87 517.65,437.87 520.93,437.87 524.20,437.87 527.47,437.87 530.75,437.87 534.02,437.87 537.30,437.87 540.57,437.87 543.85,437.87 547.12,437.87 550.39,437.87 553.67,437.87 556.94,437.87 560.22,437.87 563.49,437.87 566.76,437.87 570.04,437.87 573.31,437.87 576.59,437.87 579.86,437.87 583.14,437.87 586.41,437.87 589.68,437.87 592.96,437.87 596.23,437.87 599.51,437.87 602.78,437.87 606.05,437.87 609.33,437.87 612.60,437.87 615.88,437.87 619.15,437.87 622.42,437.87 625.70,437.87 628.97,437.87 632.25,437.87 635.52,437.87 638.80,437.87 642.07,437.87 645.34,437.87 648.62,437.87 651.89,437.87 655.17,437.87 658.44,437.87 661.71,437.87 664.99,437.87 668.26,437.87 671.54,437.87 674.81,437.87 678.08,437.87 681.36,437.87 684.63,437.87 687.91,437.87 691.18,437.87 694.46,437.87 697.73,437.87 701.00,437.87 704.28,437.87 707.55,437.87 710.83,437.23 714.10,437.77 717.37,434.77 720.65,435.41 723.92,435.04 727.20,436.96 730.47,436.72 733.75,439.85 737.02,438.04 740.29,438.31 743.57,438.98 746.84,440.09 750.12,442.14 753.39,441.97 756.66,441.74 759.94,440.70 763.21,439.25 766.49,437.16 769.76,438.84 773.03,437.57 776.31,438.14 779.58,439.99 782.86,440.06 786.13,438.14 789.41,439.58 792.68,438.17 795.95,439.05 799.23,440.16 802.50,440.63 805.78,437.83 809.05,440.09 812.32,441.44 815.60,441.03 818.87,439.65 822.15,438.24 825.42,438.81 828.69,439.18 831.97,439.52 835.24,438.00 838.52,436.45 841.79,433.35 845.07,430.65 848.34,432.17 851.61,428.63 854.89,428.97 858.16,429.98 861.44,428.63 864.71,432.34 867.98,433.86 871.26,431.33 874.53,427.62 877.81,427.62 881.08,425.76 884.36,425.09 887.63,420.87 890.90,425.59 894.18,429.81 897.45,431.33 900.73,428.46 904.00,424.58" />
<text x="780.00" y="82.00" font-size="14" font-family="Arial" fill="#1f77b4" text-anchor="start">MA200</text>
<polyline fill="none" stroke="#2ca02c" stroke-width="2" points="56.00,437.87 59.27,437.87 62.55,437.87 65.82,437.87 69.10,437.87 72.37,437.87 75.64,437.87 78.92,437.87 82.19,437.87 85.47,437.87 88.74,437.87 92.02,437.87 95.29,437.87 98.56,437.87 101.84,437.87 105.11,437.87 108.39,437.87 111.66,437.87 114.93,437.87 118.21,437.87 121.48,437.87 124.76,437.87 128.03,437.87 131.31,437.87 134.58,437.87 137.85,437.87 141.13,437.87 144.40,437.87 147.68,437.87 150.95,437.87 154.22,437.87 157.50,437.87 160.77,437.87 164.05,437.87 167.32,437.87 170.59,437.87 173.87,437.87 177.14,437.87 180.42,437.87 183.69,437.87 186.97,437.87 190.24,437.87 193.51,437.87 196.79,437.87 200.06,437.87 203.34,437.87 206.61,437.87 209.88,437.87 213.16,437.87 216.43,437.87 219.71,437.87 222.98,437.87 226.25,437.87 229.53,437.87 232.80,437.87 236.08,437.87 239.35,437.87 242.63,437.87 245.90,437.87 249.17,437.87 252.45,435.70 255.72,435.84 259.00,437.80 262.27,436.61 265.54,438.01 268.82,437.03 272.09,436.75 275.37,436.33 278.64,433.12 281.92,433.26 285.19,432.21 288.46,431.58 291.74,431.23 295.01,432.84 298.29,429.28 301.56,429.28 304.83,429.42 308.11,429.84 311.38,430.40 314.66,430.12 317.93,430.54 321.20,429.70 324.48,430.05 327.75,428.02 331.03,429.21 334.30,428.02 337.58,428.79 340.85,429.49 344.12,430.61 347.40,430.47 350.67,430.47 353.95,428.02 357.22,428.23 360.49,428.86 363.77,427.81 367.04,429.14 370.32,430.54 373.59,431.51 376.86,433.54 380.14,431.02 383.41,433.68 386.69,434.10 389.96,433.68 393.24,432.70 396.51,432.21 399.78,431.93 403.06,431.37 406.33,432.00 409.61,431.02 412.88,432.49 416.15,430.88 419.43,430.88 422.70,428.93 425.98,429.49 429.25,429.77 432.53,430.68 435.80,431.44 439.07,433.82 442.35,434.59 445.62,434.59 448.90,434.59 452.17,434.59 455.44,434.59 458.72,434.59 461.99,434.59 465.27,434.59 468.54,434.59 471.81,434.59 475.09,434.59 478.36,434.59 481.64,434.59 484.91,434.59 488.19,434.59 491.46,434.59 494.73,434.59 498.01,434.59 501.28,434.59 504.56,434.59 507.83,434.59 511.10,434.59 514.38,434.59 517.65,434.59 520.93,434.59 524.20,433.53 527.47,434.63 530.75,432.34 534.02,432.25 537.30,434.26 540.57,432.93 543.85,434.82 547.12,432.38 550.39,430.96 553.67,432.11 556.94,433.81 560.22,430.36 563.49,431.01 566.76,430.41 570.04,426.60 573.31,422.42 576.59,417.83 579.86,417.65 583.14,418.93 586.41,422.70 589.68,427.29 592.96,426.28 596.23,425.50 599.51,429.77 602.78,429.31 606.05,425.41 609.33,425.59 612.60,421.32 615.88,416.64 619.15,418.66 622.42,416.55 625.70,417.10 628.97,418.93 632.25,419.58 635.52,423.52 638.80,419.03 642.07,416.36 645.34,417.10 648.62,415.35 651.89,420.68 655.17,415.91 658.44,416.46 661.71,411.32 664.99,410.12 668.26,407.18 671.54,407.37 674.81,408.47 678.08,409.30 681.36,408.38 684.63,402.41 687.91,402.14 691.18,395.53 694.46,396.17 697.73,394.88 701.00,395.62 704.28,388.37 707.55,384.79 710.83,383.04 714.10,384.51 717.37,376.34 720.65,378.08 723.92,377.07 727.20,382.31 730.47,381.66 733.75,390.20 737.02,385.24 740.29,385.98 743.57,387.81 746.84,390.84 750.12,396.44 753.39,395.98 756.66,395.34 759.94,392.50 763.21,388.55 766.49,382.86 769.76,387.45 773.03,383.96 776.31,385.52 779.58,390.57 782.86,390.75 786.13,385.52 789.41,389.47 792.68,385.61 795.95,388.00 799.23,391.03 802.50,392.31 805.78,384.69 809.05,390.84 812.32,394.52 815.60,393.41 818.87,389.65 822.15,385.80 825.42,387.36 828.69,388.37 831.97,389.28 835.24,385.15 838.52,380.93 841.79,372.47 845.07,365.11 848.34,369.25 851.61,359.59 854.89,360.51 858.16,363.27 861.44,359.59 864.71,369.71 867.98,373.85 871.26,366.95 874.53,356.83 877.81,356.83 881.08,351.77 884.36,349.93 887.63,338.43 890.90,351.31 894.18,362.81 897.45,366.95 900.73,359.13 904.00,348.55" />
<text x="780.00" y="104.00" font-size="14" font-family="Arial" fill="#2ca02c" text-anchor="start">MA20x60</text>
</svg>