<svg xmlns="http://www.w3.org/2000/svg" width="960" height="520" viewBox="0 0 960 520"><rect width="100%" height="100%" fill="white" />
<text x="56.00" y="32.00" font-size="20" font-family="Arial" fill="#1f2933" text-anchor="start">AAPL Backtest Equity Curves</text>
<line x1="56" y1="464" x2="904" y2="464" stroke="#cbd2d9" />
<line x1="56" y1="56" x2="56" y2="464" stroke="#cbd2d9" />
<text x="16.00" y="38.00" font-size="12" font-family="Arial" fill="#52606d" text-anchor="start">Equity Multiple</text>
<line x1="56" y1="464.00" x2="904" y2="464.00" stroke="#edf2f7" />
<line x1="52" y1="464.00" x2="56" y2="464.00" stroke="#9fb3c8" />
<text x="48.00" y="468.00" font-size="11" font-family="Arial" fill="#52606d" text-anchor="end">0.91</text>
<line x1="56" y1="362.00" x2="904" y2="362.00" stroke="#edf2f7" />
<line x1="52" y1="362.00" x2="56" y2="362.00" stroke="#9fb3c8" />
<text x="48.00" y="366.00" font-size="11" font-family="Arial" fill="#52606d" text-anchor="end">1.08</text>
<line x1="56" y1="260.00" x2="904" y2="260.00" stroke="#edf2f7" />
<line x1="52" y1="260.00" x2="56" y2="260.00" stroke="#9fb3c8" />
<text x="48.00" y="264.00" font-size="11" font-family="Arial" fill="#52606d" text-anchor="end">1.26</text>
<line x1="56" y1="158.00" x2="904" y2="158.00" stroke="#edf2f7" />
<line x1="52" y1="158.00" x2="56" y2="158.00" stroke="#9fb3c8" />
<text x="48.00" y="162.00" font-size="11" font-family="Arial" fill="#52606d" text-anchor="end">1.43</text>
<line x1="56" y1="56.00" x2="904" y2="56.00" stroke="#edf2f7" />
<line x1="52" y1="56.00" x2="56" y2="56.00" stroke="#9fb3c8" />
<text x="48.00" y="60.00" font-size="11" font-family="Arial" fill="#52606d" text-anchor="end">1.60</text>
<line x1="56.00" y1="464" x2="56.00" y2="468" stroke="#9fb3c8" />
<text x="56.00" y="482.00" font-size="11" font-family="Arial" fill="#52606d" text-anchor="middle">07/03</text>
<line x1="226.25" y1="464" x2="226.25" y2="468" stroke="#9fb3c8" />
<text x="226.25" y="482.00" font-size="11" font-family="Arial" fill="#52606d" text-anchor="middle">09/17</text>
<line x1="396.51" y1="464" x2="396.51" y2="468" stroke="#9fb3c8" />
<text x="396.51" y="482.00" font-size="11" font-family="Arial" fill="#52606d" text-anchor="middle">12/01</text>
<line x1="563.49" y1="464" x2="563.49" y2="468" stroke="#9fb3c8" />
<text x="563.49" y="482.00" font-size="11" font-family="Arial" fill="#52606d" text-anchor="middle">02/13</text>
<line x1="733.75" y1="464" x2="733.75" y2="468" stroke="#9fb3c8" />
<text x="733.75" y="482.00" font-size="11" font-family="Arial" fill="#52606d" text-anchor="middle">04/30</text>
<line x1="904.00" y1="464" x2="904.00" y2="468" stroke="#9fb3c8" />
<text x="904.00" y="482.00" font-size="11" font-family="Arial" fill="#52606d" text-anchor="middle">07/16</text>
<polyline fill="none" stroke="#7f7f7f" stroke-width="2" points="56.00,411.36 59.27,421.28 62.55,421.12 65.82,418.00 69.10,414.51 72.37,417.95 75.64,424.95 78.92,423.60 82.19,420.70 85.47,421.09 88.74,417.89 92.02,414.31 95.29,409.02 98.56,409.71 101.84,410.79 105.11,410.45 108.39,409.99 111.66,417.65 114.93,423.76 118.21,427.84 121.48,442.14 124.76,439.47 128.03,440.65 131.31,412.19 134.58,393.51 137.85,367.83 141.13,373.10 144.40,366.28 147.68,356.13 150.95,357.65 154.22,360.93 157.50,362.86 160.77,363.77 164.05,376.32 167.32,379.39 170.59,371.50 173.87,373.15 177.14,367.22 180.42,363.96 183.69,358.25 186.97,359.41 190.24,366.09 193.51,341.95 196.79,338.34 200.06,338.58 203.34,343.58 206.61,353.32 209.88,374.17 213.16,365.23 216.43,354.09 219.71,346.83 222.98,342.83 226.25,340.52 229.53,343.58 232.80,322.56 236.08,293.37 239.35,297.92 242.63,303.77 245.90,291.19 249.17,295.08 252.45,297.92 255.72,297.37 259.00,295.11 262.27,290.47 265.54,288.02 268.82,291.69 272.09,292.27 275.37,287.91 278.64,299.00 281.92,323.19 285.19,316.60 288.46,316.29 291.74,311.96 295.01,317.18 298.29,303.83 301.56,276.38 304.83,274.92 308.11,286.83 311.38,283.72 314.66,274.78 317.93,258.25 321.20,257.73 324.48,255.80 327.75,251.11 331.03,253.95 334.30,257.59 337.58,254.86 340.85,254.58 344.12,255.60 347.40,259.19 350.67,255.82 353.95,239.75 357.22,244.67 360.49,246.10 363.77,247.59 367.04,261.26 370.32,261.32 373.59,258.22 376.86,264.60 380.14,250.13 383.41,237.90 386.69,235.00 389.96,233.40 393.24,229.81 396.51,218.07 399.78,209.54 403.06,215.18 406.33,224.70 409.61,230.00 412.88,232.46 416.15,234.42 419.43,230.00 422.70,232.07 425.98,231.38 429.25,242.90 432.53,241.52 435.80,249.17 439.07,248.20 442.35,244.11 445.62,251.57 448.90,247.73 452.17,243.73 455.44,244.86 458.72,243.87 461.99,245.74 465.27,249.11 468.54,251.46 471.81,261.81 475.09,275.34 478.36,280.95 481.64,284.51 484.91,283.60 488.19,281.17 491.46,278.96 494.73,281.97 498.01,286.80 501.28,294.20 504.56,318.59 507.83,315.96 511.10,314.03 514.38,314.89 517.65,294.54 520.93,286.64 524.20,291.69 527.47,286.61 530.75,283.30 534.02,254.22 537.30,255.68 540.57,236.33 543.85,237.93 547.12,231.83 550.39,240.78 553.67,243.38 556.94,238.35 560.22,276.41 563.49,292.85 566.76,270.47 570.04,269.17 573.31,279.59 576.59,268.53 579.86,264.11 583.14,247.64 586.41,241.86 589.68,245.40 592.96,269.64 596.23,268.14 599.51,270.82 602.78,274.22 606.05,280.39 609.33,288.21 612.60,281.52 615.88,278.90 619.15,278.95 622.42,292.91 625.70,308.50 628.97,301.03 632.25,297.14 635.52,308.99 638.80,311.70 642.07,314.38 645.34,304.71 648.62,304.30 651.89,301.59 655.17,300.84 658.44,312.15 661.71,318.14 664.99,298.35 668.26,293.27 671.54,292.47 674.81,284.34 678.08,299.15 681.36,284.23 684.63,279.84 687.91,279.86 691.18,283.40 694.46,284.42 697.73,263.42 701.00,271.79 704.28,252.91 707.55,245.12 710.83,264.14 714.10,244.79 717.37,244.07 720.65,250.62 723.92,260.16 727.20,251.59 730.47,253.08 733.75,249.82 737.02,225.52 740.29,234.67 743.57,214.36 746.84,205.15 750.12,205.35 753.39,189.10 756.66,190.12 759.94,184.25 763.21,173.00 766.49,174.82 769.76,169.23 773.03,175.84 776.31,172.72 779.58,163.64 782.86,156.06 786.13,145.47 789.41,146.82 792.68,139.85 795.95,135.26 799.23,136.51 802.50,152.41 805.78,127.82 809.05,141.49 812.32,138.80 815.60,149.56 818.87,165.61 822.15,196.01 825.42,193.16 828.69,181.96 831.97,194.41 835.24,179.77 838.52,171.97 841.79,181.07 845.07,175.37 848.34,178.14 851.61,185.64 854.89,189.01 858.16,238.62 861.44,214.74 864.71,220.38 867.98,199.30 871.26,185.42 874.53,145.99 877.81,134.85 881.08,140.38 884.36,132.83 887.63,125.00 890.90,127.49 894.18,121.98 897.45,128.76 900.73,93.79 904.00,77.86" />
<text x="780.00" y="60.00" font-size="14" font-family="Arial" fill="#7f7f7f" text-anchor="start">BuyHold</text>
<polyline fill="none" stroke="#1f77b4" stroke-width="2" points="56.00,411.36 59.27,411.36 62.55,411.36 65.82,411.36 69.10,411.36 72.37,411.36 75.64,411.36 78.92,411.36 82.19,411.36 85.47,411.36 88.74,411.36 92.02,411.36 95.29,411.36 98.56,411.36 101.84,411.36 105.11,411.36 108.39,411.36 111.66,411.36 114.93,411.36 118.21,411.36 121.48,411.36 124.76,411.36 128.03,411.36 131.31,411.36 134.58,411.36 137.85,411.36 141.13,411.36 144.40,411.36 147.68,411.36 150.95,411.36 154.22,411.36 157.50,411.36 160.77,411.36 164.05,411.36 167.32,411.36 170.59,411.36 173.87,411.36 177.14,411.36 180.42,411.36 183.69,411.36 186.97,411.36 190.24,411.36 193.51,411.36 196.79,411.36 200.06,411.36 203.34,411.36 206.61,411.36 209.88,411.36 213.16,411.36 216.43,411.36 219.71,411.36 222.98,411.36 226.25,411.36 229.53,411.36 232.80,411.36 236.08,411.36 239.35,411.36 242.63,411.36 245.90,411.36 249.17,411.36 252.45,411.36 255.72,411.36 259.00,411.36 262.27,411.36 265.54,411.36 268.82,411.36 272.09,411.36 275.37,411.36 278.64,411.36 281.92,411.36 285.19,411.36 288.46,411.36 291.74,411.36 295.01,411.36 298.29,411.36 301.56,411.36 304.83,411.36 308.11,411.36 311.38,411.36 314.66,411.36 317.93,411.36 321.20,411.36 324.48,411.36 327.75,411.36 331.03,411.36 334.30,411.36 337.58,411.36 340.85,411.36 344.12,411.36 347.40,411.36 350.67,411.36 353.95,411.36 357.22,411.36 360.49,411.36 363.77,411.36 367.04,411.36 370.32,411.36 373.59,411.36 376.86,411.36 380.14,411.36 383.41,411.36 386.69,411.36 389.96,411.36 393.24,411.36 396.51,411.36 399.78,411.36 403.06,411.36 406.33,411.36 409.61,411.36 412.88,411.36 416.15,411.36 419.43,411.36 422.70,411.36 425.98,411.36 429.25,411.36 432.53,411.36 435.80,411.36 439.07,411.36 442.35,411.36 445.62,411.36 448.90,411.36 452.17,411.36 455.44,411.36 458.72,411.36 461.99,411.36 465.27,411.36 468.54,411.36 471.81,411.36 475.09,411.36 478.36,411.36 481.64,411.36 484.91,411.36 488.19,411.36 491.46,411.36 494.73,411.36 498.01,411.36 501.28,411.36 504.56,411.36 507.83,411.36 511.10,411.36 514.38,411.36 517.65,411.36 520.93,411.36 524.20,411.36 527.47,411.36 530.75,411.36 534.02,411.36 537.30,411.36 540.57,411.36 543.85,411.36 547.12,411.36 550.39,411.36 553.67,411.36 556.94,411.36 560.22,411.36 563.49,411.36 566.76,411.36 570.04,411.36 573.31,411.36 576.59,411.36 579.86,411.36 583.14,411.36 586.41,411.36 589.68,411.36 592.96,411.36 596.23,411.36 599.51,411.36 602.78,411.36 606.05,411.36 609.33,411.36 612.60,411.36 615.88,411.36 619.15,411.36 622.42,411.36 625.70,411.36 628.97,411.36 632.25,411.36 635.52,411.36 638.80,411.36 642.07,411.36 645.34,411.36 648.62,411.36 651.89,411.36 655.17,411.36 658.44,411.36 661.71,411.36 664.99,411.36 668.26,411.36 671.54,411.36 674.81,411.36 678.08,411.36 681.36,411.36 684.63,411.36 687.91,411.36 691.18,411.36 694.46,411.36 697.73,411.36 701.00,411.36 704.28,411.36 707.55,411.36 710.83,426.19 714.10,411.10 717.37,410.54 720.65,415.65 723.92,423.09 727.20,416.41 730.47,417.57 733.75,415.03 737.02,396.08 740.29,403.22 743.57,387.38 746.84,380.20 750.12,380.35 753.39,367.68 756.66,368.48 759.94,363.91 763.21,355.13 766.49,356.55 769.76,352.19 773.03,357.35 776.31,354.91 779.58,347.84 782.86,341.93 786.13,333.66 789.41,334.72 792.68,329.28 795.95,325.70 799.23,326.67 802.50,339.08 805.78,319.90 809.05,330.56 812.32,328.47 815.60,336.86 818.87,349.37 822.15,373.07 825.42,370.85 828.69,362.12 831.97,371.82 835.24,360.41 838.52,354.33 841.79,361.42 845.07,356.98 848.34,359.14 851.61,364.98 854.89,367.62 858.16,406.29 861.44,387.68 864.71,392.08 867.98,375.64 871.26,364.81 874.53,334.07 877.81,325.38 881.08,329.69 884.36,323.81 887.63,317.70 890.90,319.64 894.18,315.35 897.45,320.64 900.73,293.37 904.00,280.95" />
<text x="780.00" y="82.00" font-size="14" font-family="Arial" fill="#1f77b4" text-anchor="start">MA200</text>
<polyline fill="none" stroke="#2ca02c" stroke-width="2" points="56.00,411.36 59.27,411.36 62.55,411.36 65.82,411.36 69.10,411.36 72.37,411.36 75.64,411.36 78.92,411.36 82.19,411.36 85.47,411.36 88.74,411.36 92.02,411.36 95.29,411.36 98.56,411.36 101.84,411.36 105.11,411.36 108.39,411.36 111.66,411.36 114.93,411.36 118.21,411.36 121.48,411.36 124.76,411.36 128.03,411.36 131.31,411.36 134.58,411.36 137.85,411.36 141.13,411.36 144.40,411.36 147.68,411.36 150.95,411.36 154.22,411.36 157.50,411.36 160.77,411.36 164.05,411.36 167.32,411.36 170.59,411.36 173.87,411.36 177.14,411.36 180.42,411.36 183.69,411.36 186.97,411.36 190.24,411.36 193.51,411.36 196.79,411.36 200.06,411.36 203.34,411.36 206.61,411.36 209.88,411.36 213.16,411.36 216.43,411.36 219.71,411.36 222.98,411.36 226.25,411.36 229.53,411.36 232.80,411.36 236.08,411.36 239.35,411.36 242.63,411.36 245.90,411.36 249.17,411.36 252.45,413.74 255.72,413.28 259.00,411.39 262.27,407.52 265.54,405.47 268.82,408.53 272.09,409.01 275.37,405.37 278.64,414.63 281.92,434.84 285.19,429.33 288.46,429.08 291.74,425.46 295.01,429.81 298.29,418.67 301.56,395.75 304.83,394.53 308.11,404.48 311.38,401.87 314.66,394.41 317.93,380.61 321.20,380.17 324.48,378.56 327.75,374.65 331.03,377.02 334.30,380.06 337.58,377.78 340.85,377.55 344.12,378.40 347.40,381.40 350.67,378.58 353.95,365.16 357.22,369.27 360.49,370.47 363.77,371.71 367.04,383.13 370.32,383.17 373.59,380.59 376.86,385.91 380.14,373.83 383.41,363.62 386.69,361.20 389.96,359.86 393.24,356.86 396.51,347.06 399.78,339.94 403.06,344.64 406.33,352.60 409.61,357.02 412.88,359.08 416.15,360.71 419.43,357.02 422.70,358.75 425.98,358.18 429.25,367.79 432.53,366.64 435.80,373.03 439.07,372.22 442.35,368.81 445.62,375.03 448.90,371.83 452.17,368.48 455.44,369.43 458.72,368.60 461.99,370.17 465.27,372.98 468.54,374.94 471.81,383.59 475.09,394.88 478.36,399.56 481.64,402.54 484.91,401.78 488.19,399.75 491.46,399.75 494.73,399.75 498.01,399.75 501.28,399.75 504.56,399.75 507.83,399.75 511.10,399.75 514.38,399.75 517.65,399.75 520.93,399.75 524.20,399.75 527.47,399.75 530.75,399.75 534.02,399.75 537.30,399.75 540.57,399.75 543.85,399.75 547.12,399.75 550.39,399.75 553.67,399.75 556.94,399.75 560.22,399.75 563.49,399.75 566.76,399.75 570.04,399.75 573.31,399.75 576.59,399.75 579.86,399.75 583.14,399.75 586.41,399.75 589.68,399.75 592.96,419.03 596.23,417.84 599.51,419.97 602.78,422.68 606.05,427.58 609.33,433.80 612.60,428.48 615.88,426.39 619.15,426.39 622.42,426.39 625.70,426.39 628.97,426.39 632.25,426.39 635.52,426.39 638.80,426.39 642.07,426.39 645.34,426.39 648.62,426.39 651.89,426.39 655.17,426.39 658.44,426.39 661.71,426.39 664.99,426.39 668.26,426.39 671.54,426.39 674.81,426.39 678.08,426.39 681.36,426.39 684.63,426.39 687.91,426.39 691.18,426.39 694.46,426.39 697.73,426.39 701.00,426.39 704.28,426.39 707.55,426.39 710.83,426.39 714.10,426.39 717.37,426.39 720.65,426.39 723.92,426.39 727.20,419.75 730.47,420.91 733.75,418.38 737.02,399.55 740.29,406.64 743.57,390.89 746.84,383.75 750.12,383.90 753.39,371.30 756.66,372.10 759.94,367.55 763.21,358.82 766.49,360.24 769.76,355.91 773.03,361.03 776.31,358.61 779.58,351.57 782.86,345.70 786.13,337.48 789.41,338.53 792.68,333.13 795.95,329.57 799.23,330.53 802.50,342.87 805.78,323.80 809.05,334.39 812.32,332.31 815.60,340.66 818.87,353.10 822.15,376.67 825.42,374.46 828.69,365.77 831.97,375.42 835.24,364.08 838.52,358.03 841.79,365.08 845.07,360.67 848.34,362.81 851.61,368.62 854.89,371.24 858.16,409.69 861.44,391.19 864.71,395.56 867.98,379.22 871.26,368.45 874.53,337.89 877.81,329.25 881.08,333.54 884.36,327.68 887.63,321.61 890.90,323.54 894.18,319.27 897.45,324.53 900.73,297.42 904.00,285.07" />
<text x="780.00" y="104.00" font-size="14" font-family="Arial" fill="#2ca02c" text-anchor="start">MA20x60</text>
</svg>