<svg xmlns="http://www.w3.org/2000/svg" width="960" height="520" viewBox="0 0 960 520"><rect width="100%" height="100%" fill="white" />
<text x="56.00" y="32.00" font-size="20" font-family="Arial" fill="#1f2933" text-anchor="start">ASML Backtest Equity Curves</text>
<line x1="56" y1="464" x2="904" y2="464" stroke="#cbd2d9" />
<line x1="56" y1="56" x2="56" y2="464" stroke="#cbd2d9" />
<text x="16.00" y="38.00" font-size="12" font-family="Arial" fill="#52606d" text-anchor="start">Equity Multiple</text>
<line x1="56" y1="464.00" x2="904" y2="464.00" stroke="#edf2f7" />
<line x1="52" y1="464.00" x2="56" y2="464.00" stroke="#9fb3c8" />
<text x="48.00" y="468.00" font-size="11" font-family="Arial" fill="#52606d" text-anchor="end">0.76</text>
<line x1="56" y1="362.00" x2="904" y2="362.00" stroke="#edf2f7" />
<line x1="52" y1="362.00" x2="56" y2="362.00" stroke="#9fb3c8" />
<text x="48.00" y="366.00" font-size="11" font-family="Arial" fill="#52606d" text-anchor="end">1.22</text>
<line x1="56" y1="260.00" x2="904" y2="260.00" stroke="#edf2f7" />
<line x1="52" y1="260.00" x2="56" y2="260.00" stroke="#9fb3c8" />
<text x="48.00" y="264.00" font-size="11" font-family="Arial" fill="#52606d" text-anchor="end">1.68</text>
<line x1="56" y1="158.00" x2="904" y2="158.00" stroke="#edf2f7" />
<line x1="52" y1="158.00" x2="56" y2="158.00" stroke="#9fb3c8" />
<text x="48.00" y="162.00" font-size="11" font-family="Arial" fill="#52606d" text-anchor="end">2.14</text>
<line x1="56" y1="56.00" x2="904" y2="56.00" stroke="#edf2f7" />
<line x1="52" y1="56.00" x2="56" y2="56.00" stroke="#9fb3c8" />
<text x="48.00" y="60.00" font-size="11" font-family="Arial" fill="#52606d" text-anchor="end">2.60</text>
<line x1="56.00" y1="464" x2="56.00" y2="468" stroke="#9fb3c8" />
<text x="56.00" y="482.00" font-size="11" font-family="Arial" fill="#52606d" text-anchor="middle">07/11</text>
<line x1="226.25" y1="464" x2="226.25" y2="468" stroke="#9fb3c8" />
<text x="226.25" y="482.00" font-size="11" font-family="Arial" fill="#52606d" text-anchor="middle">09/24</text>
<line x1="396.51" y1="464" x2="396.51" y2="468" stroke="#9fb3c8" />
<text x="396.51" y="482.00" font-size="11" font-family="Arial" fill="#52606d" text-anchor="middle">12/08</text>
<line x1="563.49" y1="464" x2="563.49" y2="468" stroke="#9fb3c8" />
<text x="563.49" y="482.00" font-size="11" font-family="Arial" fill="#52606d" text-anchor="middle">02/23</text>
<line x1="733.75" y1="464" x2="733.75" y2="468" stroke="#9fb3c8" />
<text x="733.75" y="482.00" font-size="11" font-family="Arial" fill="#52606d" text-anchor="middle">05/07</text>
<line x1="904.00" y1="464" x2="904.00" y2="468" stroke="#9fb3c8" />
<text x="904.00" y="482.00" font-size="11" font-family="Arial" fill="#52606d" text-anchor="middle">07/23</text>
<polyline fill="none" stroke="#7f7f7f" stroke-width="2" points="56.00,411.49 59.27,410.16 62.55,405.64 65.82,424.65 69.10,427.30 72.37,430.16 75.64,434.29 78.92,438.23 82.19,435.06 85.47,432.80 88.74,436.63 92.02,431.44 95.29,434.12 98.56,433.30 101.84,440.73 105.11,442.09 108.39,439.44 111.66,442.14 114.93,441.77 118.21,435.61 121.48,433.05 124.76,433.34 128.03,427.64 131.31,423.81 134.58,423.91 137.85,427.54 141.13,426.04 144.40,427.14 147.68,425.50 150.95,429.42 154.22,424.00 157.50,424.12 160.77,421.69 164.05,419.80 167.32,421.62 170.59,427.41 173.87,432.07 177.14,429.02 180.42,424.41 183.69,416.55 186.97,412.50 190.24,410.03 193.51,413.37 196.79,410.30 200.06,407.60 203.34,392.75 206.61,389.66 209.88,391.37 213.16,375.93 216.43,374.72 219.71,367.59 222.98,366.00 226.25,370.61 229.53,369.88 232.80,369.33 236.08,366.25 239.35,364.73 242.63,354.95 245.90,347.47 249.17,346.90 252.45,343.82 255.72,355.22 259.00,359.25 262.27,361.27 265.54,373.60 268.82,360.12 272.09,360.53 275.37,353.13 278.64,350.41 281.92,347.72 285.19,344.14 288.46,348.90 291.74,352.64 295.01,345.73 298.29,346.65 301.56,339.18 304.83,341.27 308.11,335.63 311.38,334.35 314.66,338.87 317.93,336.75 321.20,346.97 324.48,343.18 327.75,347.23 331.03,350.64 334.30,344.56 337.58,349.12 340.85,344.97 344.12,349.83 347.40,353.42 350.67,349.79 353.95,354.23 357.22,344.41 360.49,360.64 363.77,364.67 367.04,358.76 370.32,354.47 373.59,343.95 376.86,338.65 380.14,330.86 383.41,325.07 386.69,316.12 389.96,324.71 393.24,327.66 396.51,322.03 399.78,324.33 403.06,322.13 406.33,321.15 409.61,332.85 412.88,330.90 416.15,334.18 419.43,351.07 422.70,345.25 425.98,339.76 429.25,339.49 432.53,338.14 435.80,337.12 439.07,335.10 442.35,336.98 445.62,335.27 448.90,335.91 452.17,309.75 455.44,291.81 458.72,287.91 461.99,291.73 465.27,301.24 468.54,279.09 471.81,277.04 475.09,280.12 478.36,281.92 481.64,263.01 484.91,255.50 488.19,264.55 491.46,255.08 494.73,245.35 498.01,247.01 501.28,240.24 504.56,228.76 507.83,237.58 511.10,228.60 514.38,237.56 517.65,232.43 520.93,245.11 524.20,260.91 527.47,257.84 530.75,240.34 534.02,235.75 537.30,239.65 540.57,233.51 543.85,241.53 547.12,241.60 550.39,237.93 553.67,224.28 556.94,227.01 560.22,224.04 563.49,219.47 566.76,216.17 570.04,208.17 573.31,225.66 576.59,229.35 579.86,236.88 583.14,254.34 586.41,243.62 589.68,252.27 592.96,273.34 596.23,255.32 599.51,248.08 602.78,247.16 606.05,256.95 609.33,258.59 612.60,250.26 615.88,246.47 619.15,255.95 622.42,252.82 625.70,266.52 628.97,251.92 632.25,243.61 635.52,245.15 638.80,263.11 642.07,270.65 645.34,284.17 648.62,265.53 651.89,254.67 655.17,266.53 658.44,270.22 661.71,269.54 664.99,237.58 668.26,229.88 671.54,221.62 674.81,215.50 678.08,210.46 681.36,220.64 684.63,240.43 687.91,226.77 691.18,222.11 694.46,227.00 697.73,231.27 701.00,238.48 704.28,227.36 707.55,233.53 710.83,246.91 714.10,244.25 717.37,231.70 720.65,235.04 723.92,246.45 727.20,230.60 730.47,202.14 733.75,210.01 737.02,188.93 740.29,196.25 743.57,208.79 746.84,191.85 750.12,191.03 753.39,214.14 756.66,222.36 759.94,225.98 763.21,200.64 766.49,188.93 769.76,177.50 773.03,177.75 776.31,187.29 779.58,185.09 782.86,183.13 786.13,178.71 789.41,157.25 792.68,151.38 795.95,142.69 799.23,175.03 802.50,145.04 805.78,137.01 809.05,149.19 812.32,103.00 815.60,113.04 818.87,104.91 822.15,129.71 825.42,111.84 828.69,94.56 831.97,94.68 835.24,136.82 838.52,141.21 841.79,119.29 845.07,132.31 848.34,107.57 851.61,77.86 854.89,118.77 858.16,139.38 861.44,123.80 864.71,145.54 867.98,139.56 871.26,129.61 874.53,131.55 877.81,151.47 881.08,137.61 884.36,126.53 887.63,135.03 890.90,145.45 894.18,147.84 897.45,130.38 900.73,130.28 904.00,129.96" />
<text x="780.00" y="60.00" font-size="14" font-family="Arial" fill="#7f7f7f" text-anchor="start">BuyHold</text>
<polyline fill="none" stroke="#1f77b4" stroke-width="2" points="56.00,411.49 59.27,411.49 62.55,411.49 65.82,411.49 69.10,411.49 72.37,411.49 75.64,411.49 78.92,411.49 82.19,411.49 85.47,411.49 88.74,411.49 92.02,411.49 95.29,411.49 98.56,411.49 101.84,411.49 105.11,411.49 108.39,411.49 111.66,411.49 114.93,411.49 118.21,411.49 121.48,411.49 124.76,411.49 128.03,411.49 131.31,411.49 134.58,411.49 137.85,411.49 141.13,411.49 144.40,411.49 147.68,411.49 150.95,411.49 154.22,411.49 157.50,411.49 160.77,411.49 164.05,411.49 167.32,411.49 170.59,411.49 173.87,411.49 177.14,411.49 180.42,411.49 183.69,411.49 186.97,411.49 190.24,411.49 193.51,411.49 196.79,411.49 200.06,411.49 203.34,411.49 206.61,411.49 209.88,411.49 213.16,411.49 216.43,411.49 219.71,411.49 222.98,411.49 226.25,411.49 229.53,411.49 232.80,411.49 236.08,411.49 239.35,411.49 242.63,411.49 245.90,411.49 249.17,411.49 252.45,411.49 255.72,411.49 259.00,411.49 262.27,411.49 265.54,411.49 268.82,411.49 272.09,411.49 275.37,411.49 278.64,411.49 281.92,411.49 285.19,411.49 288.46,411.49 291.74,411.49 295.01,411.49 298.29,411.49 301.56,411.49 304.83,411.49 308.11,411.49 311.38,411.49 314.66,411.49 317.93,411.49 321.20,411.49 324.48,411.49 327.75,411.49 331.03,411.49 334.30,411.49 337.58,411.49 340.85,411.49 344.12,411.49 347.40,411.49 350.67,411.49 353.95,411.49 357.22,411.49 360.49,411.49 363.77,411.49 367.04,411.49 370.32,411.49 373.59,411.49 376.86,411.49 380.14,411.49 383.41,411.49 386.69,411.49 389.96,411.49 393.24,411.49 396.51,411.49 399.78,411.49 403.06,411.49 406.33,411.49 409.61,411.49 412.88,411.49 416.15,411.49 419.43,411.49 422.70,411.49 425.98,411.49 429.25,411.49 432.53,411.49 435.80,411.49 439.07,411.49 442.35,411.49 445.62,411.49 448.90,411.49 452.17,411.49 455.44,411.49 458.72,411.49 461.99,411.49 465.27,411.49 468.54,411.49 471.81,411.49 475.09,411.49 478.36,411.49 481.64,411.49 484.91,411.49 488.19,411.49 491.46,411.49 494.73,411.49 498.01,411.49 501.28,411.49 504.56,411.49 507.83,411.49 511.10,411.49 514.38,411.49 517.65,411.49 520.93,411.49 524.20,411.49 527.47,411.49 530.75,411.49 534.02,411.49 537.30,411.49 540.57,411.49 543.85,411.49 547.12,411.49 550.39,411.49 553.67,411.49 556.94,411.49 560.22,411.49 563.49,411.49 566.76,411.49 570.04,411.49 573.31,411.49 576.59,411.49 579.86,411.49 583.14,411.49 586.41,411.49 589.68,411.49 592.96,411.49 596.23,411.49 599.51,411.49 602.78,411.49 606.05,411.49 609.33,411.49 612.60,411.49 615.88,411.49 619.15,411.49 622.42,411.49 625.70,411.49 628.97,411.49 632.25,411.49 635.52,411.49 638.80,411.49 642.07,411.49 645.34,411.49 648.62,411.49 651.89,411.49 655.17,411.49 658.44,411.49 661.71,411.49 664.99,411.49 668.26,411.49 671.54,411.49 674.81,411.49 678.08,411.49 681.36,411.49 684.63,411.49 687.91,411.49 691.18,411.49 694.46,411.49 697.73,411.49 701.00,411.49 704.28,411.49 707.55,411.49 710.83,418.92 714.10,417.44 717.37,410.47 720.65,412.33 723.92,418.66 727.20,409.86 730.47,394.05 733.75,398.42 737.02,386.71 740.29,390.78 743.57,397.75 746.84,388.33 750.12,387.88 753.39,400.72 756.66,405.28 759.94,407.29 763.21,393.22 766.49,386.72 769.76,380.37 773.03,380.50 776.31,385.80 779.58,384.58 782.86,383.49 786.13,381.04 789.41,369.11 792.68,365.86 795.95,361.03 799.23,378.99 802.50,362.34 805.78,357.87 809.05,364.64 812.32,338.98 815.60,344.56 818.87,340.04 822.15,353.82 825.42,343.89 828.69,334.29 831.97,334.36 835.24,357.77 838.52,360.20 841.79,348.03 845.07,355.26 848.34,341.52 851.61,325.01 854.89,347.74 858.16,359.19 861.44,350.53 864.71,362.61 867.98,359.29 871.26,353.76 874.53,354.84 877.81,365.91 881.08,358.21 884.36,352.05 887.63,356.77 890.90,362.56 894.18,363.89 897.45,354.19 900.73,354.14 904.00,353.96" />
<text x="780.00" y="82.00" font-size="14" font-family="Arial" fill="#1f77b4" text-anchor="start">MA200</text>
<polyline fill="none" stroke="#2ca02c" stroke-width="2" points="56.00,411.49 59.27,411.49 62.55,411.49 65.82,411.49 69.10,411.49 72.37,411.49 75.64,411.49 78.92,411.49 82.19,411.49 85.47,411.49 88.74,411.49 92.02,411.49 95.29,411.49 98.56,411.49 101.84,411.49 105.11,411.49 108.39,411.49 111.66,411.49 114.93,411.49 118.21,411.49 121.48,411.49 124.76,411.49 128.03,411.49 131.31,411.49 134.58,411.49 137.85,411.49 141.13,411.49 144.40,411.49 147.68,411.49 150.95,411.49 154.22,411.49 157.50,411.49 160.77,411.49 164.05,411.49 167.32,411.49 170.59,411.49 173.87,411.49 177.14,411.49 180.42,411.49 183.69,411.49 186.97,411.49 190.24,411.49 193.51,411.49 196.79,411.49 200.06,411.49 203.34,411.49 206.61,411.49 209.88,411.49 213.16,411.49 216.43,411.49 219.71,411.49 222.98,411.49 226.25,411.49 229.53,411.49 232.80,411.49 236.08,411.49 239.35,411.49 242.63,411.49 245.90,411.49 249.17,411.49 252.45,409.10 255.72,417.93 259.00,421.05 262.27,422.62 265.54,432.17 268.82,421.73 272.09,422.05 275.37,416.31 278.64,414.21 281.92,412.12 285.19,409.35 288.46,413.04 291.74,415.94 295.01,410.58 298.29,411.30 301.56,405.51 304.83,407.12 308.11,402.76 311.38,401.76 314.66,405.26 317.93,403.62 321.20,411.54 324.48,408.60 327.75,411.74 331.03,414.39 334.30,409.67 337.58,413.21 340.85,409.99 344.12,413.76 347.40,416.54 350.67,413.73 353.95,417.17 357.22,409.56 360.49,422.14 363.77,425.26 367.04,420.67 370.32,417.35 373.59,409.20 376.86,405.10 380.14,399.06 383.41,394.57 386.69,387.63 389.96,394.29 393.24,396.58 396.51,392.21 399.78,393.99 403.06,392.29 406.33,391.53 409.61,400.60 412.88,399.09 416.15,401.63 419.43,414.72 422.70,410.21 425.98,405.96 429.25,405.75 432.53,404.70 435.80,403.90 439.07,402.34 442.35,403.80 445.62,402.48 448.90,402.97 452.17,382.70 455.44,368.80 458.72,365.78 461.99,368.74 465.27,376.11 468.54,358.94 471.81,357.35 475.09,359.74 478.36,361.13 481.64,346.48 484.91,340.66 488.19,347.67 491.46,340.33 494.73,332.80 498.01,334.08 501.28,328.84 504.56,319.93 507.83,326.77 511.10,319.81 514.38,326.75 517.65,322.78 520.93,332.61 524.20,344.85 527.47,342.47 530.75,328.91 534.02,325.35 537.30,328.37 540.57,323.62 543.85,329.83 547.12,329.89 550.39,327.04 553.67,316.47 556.94,318.58 560.22,316.28 563.49,312.74 566.76,310.18 570.04,303.98 573.31,317.53 576.59,320.39 579.86,326.23 583.14,339.76 586.41,331.45 589.68,338.16 592.96,354.48 596.23,340.52 599.51,334.91 602.78,334.20 606.05,341.78 609.33,343.05 612.60,336.60 615.88,333.66 619.15,341.01 622.42,338.58 625.70,349.20 628.97,337.88 632.25,331.44 635.52,332.64 638.80,346.55 642.07,352.39 645.34,352.39 648.62,352.39 651.89,352.39 655.17,352.39 658.44,352.39 661.71,352.39 664.99,352.39 668.26,352.39 671.54,352.39 674.81,352.39 678.08,352.39 681.36,352.39 684.63,352.39 687.91,352.39 691.18,352.39 694.46,352.39 697.73,352.39 701.00,352.39 704.28,352.39 707.55,356.67 710.83,365.93 714.10,364.09 717.37,355.40 720.65,357.72 723.92,365.61 727.20,354.64 730.47,334.94 733.75,340.38 737.02,325.79 740.29,330.86 743.57,339.54 746.84,327.81 750.12,327.24 753.39,343.24 756.66,348.94 759.94,351.44 763.21,333.89 766.49,325.79 769.76,317.88 773.03,318.04 776.31,324.66 779.58,323.13 782.86,321.77 786.13,318.71 789.41,303.85 792.68,299.79 795.95,293.77 799.23,316.17 802.50,295.40 805.78,289.84 809.05,298.28 812.32,266.29 815.60,273.24 818.87,267.61 822.15,284.79 825.42,272.41 828.69,260.44 831.97,260.53 835.24,289.71 838.52,292.74 841.79,277.57 845.07,286.58 848.34,269.46 851.61,248.88 854.89,277.21 858.16,291.48 861.44,280.69 864.71,295.74 867.98,291.61 871.26,284.72 874.53,286.06 877.81,299.85 881.08,290.25 884.36,282.58 887.63,288.47 890.90,295.68 894.18,297.34 897.45,285.25 900.73,285.18 904.00,284.96" />
<text x="780.00" y="104.00" font-size="14" font-family="Arial" fill="#2ca02c" text-anchor="start">MA20x60</text>
</svg>