<svg xmlns="http://www.w3.org/2000/svg" width="960" height="520" viewBox="0 0 960 520"><rect width="100%" height="100%" fill="white" />
<text x="56.00" y="32.00" font-size="20" font-family="Arial" fill="#1f2933" text-anchor="start">AVGO Backtest Equity Curves</text>
<line x1="56" y1="464" x2="904" y2="464" stroke="#cbd2d9" />
<line x1="56" y1="56" x2="56" y2="464" stroke="#cbd2d9" />
<text x="16.00" y="38.00" font-size="12" font-family="Arial" fill="#52606d" text-anchor="start">Equity Multiple</text>
<line x1="56" y1="464.00" x2="904" y2="464.00" stroke="#edf2f7" />
<line x1="52" y1="464.00" x2="56" y2="464.00" stroke="#9fb3c8" />
<text x="48.00" y="468.00" font-size="11" font-family="Arial" fill="#52606d" text-anchor="end">0.86</text>
<line x1="56" y1="362.00" x2="904" y2="362.00" stroke="#edf2f7" />
<line x1="52" y1="362.00" x2="56" y2="362.00" stroke="#9fb3c8" />
<text x="48.00" y="366.00" font-size="11" font-family="Arial" fill="#52606d" text-anchor="end">1.10</text>
<line x1="56" y1="260.00" x2="904" y2="260.00" stroke="#edf2f7" />
<line x1="52" y1="260.00" x2="56" y2="260.00" stroke="#9fb3c8" />
<text x="48.00" y="264.00" font-size="11" font-family="Arial" fill="#52606d" text-anchor="end">1.33</text>
<line x1="56" y1="158.00" x2="904" y2="158.00" stroke="#edf2f7" />
<line x1="52" y1="158.00" x2="56" y2="158.00" stroke="#9fb3c8" />
<text x="48.00" y="162.00" font-size="11" font-family="Arial" fill="#52606d" text-anchor="end">1.57</text>
<line x1="56" y1="56.00" x2="904" y2="56.00" stroke="#edf2f7" />
<line x1="52" y1="56.00" x2="56" y2="56.00" stroke="#9fb3c8" />
<text x="48.00" y="60.00" font-size="11" font-family="Arial" fill="#52606d" text-anchor="end">1.81</text>
<line x1="56.00" y1="464" x2="56.00" y2="468" stroke="#9fb3c8" />
<text x="56.00" y="482.00" font-size="11" font-family="Arial" fill="#52606d" text-anchor="middle">06/30</text>
<line x1="226.25" y1="464" x2="226.25" y2="468" stroke="#9fb3c8" />
<text x="226.25" y="482.00" font-size="11" font-family="Arial" fill="#52606d" text-anchor="middle">09/12</text>
<line x1="396.51" y1="464" x2="396.51" y2="468" stroke="#9fb3c8" />
<text x="396.51" y="482.00" font-size="11" font-family="Arial" fill="#52606d" text-anchor="middle">11/25</text>
<line x1="563.49" y1="464" x2="563.49" y2="468" stroke="#9fb3c8" />
<text x="563.49" y="482.00" font-size="11" font-family="Arial" fill="#52606d" text-anchor="middle">02/10</text>
<line x1="733.75" y1="464" x2="733.75" y2="468" stroke="#9fb3c8" />
<text x="733.75" y="482.00" font-size="11" font-family="Arial" fill="#52606d" text-anchor="middle">04/27</text>
<line x1="904.00" y1="464" x2="904.00" y2="468" stroke="#9fb3c8" />
<text x="904.00" y="482.00" font-size="11" font-family="Arial" fill="#52606d" text-anchor="middle">07/13</text>
<polyline fill="none" stroke="#7f7f7f" stroke-width="2" points="56.00,403.44 59.27,420.46 62.55,412.41 65.82,404.18 69.10,405.74 72.37,409.45 75.64,399.93 78.92,403.83 82.19,405.42 85.47,403.52 88.74,395.19 92.02,395.39 95.29,386.59 98.56,391.44 101.84,383.85 105.11,398.86 108.39,390.90 111.66,383.07 114.93,380.77 118.21,374.34 121.48,369.48 124.76,361.36 128.03,375.28 131.31,383.18 134.58,369.01 137.85,376.48 141.13,362.85 144.40,359.59 147.68,357.70 150.95,359.37 154.22,345.43 157.50,351.27 160.77,347.93 164.05,355.56 167.32,356.46 170.59,373.39 173.87,379.23 177.14,381.68 180.42,374.81 183.69,374.45 186.97,368.56 190.24,365.06 193.51,351.96 196.79,369.52 200.06,368.20 203.34,361.72 206.61,355.93 209.88,311.02 213.16,294.23 216.43,308.24 219.71,256.91 222.98,272.42 226.25,272.04 229.53,265.46 232.80,271.84 236.08,293.42 239.35,294.70 242.63,295.34 245.90,304.03 249.17,303.79 252.45,303.21 255.72,308.23 259.00,310.68 262.27,321.05 265.54,317.90 268.82,312.47 272.09,304.98 275.37,304.68 278.64,309.18 281.92,307.75 285.19,293.54 288.46,294.29 291.74,326.16 295.01,276.03 298.29,295.68 301.56,284.43 304.83,280.02 308.11,287.55 311.38,287.69 314.66,297.98 317.93,301.67 321.20,295.43 324.48,280.05 327.75,267.67 331.03,250.61 334.30,230.27 337.58,245.14 340.85,255.83 344.12,266.89 347.40,283.47 350.67,272.47 353.95,277.77 357.22,287.40 360.49,273.39 363.77,283.44 367.04,278.35 370.32,302.17 373.59,298.29 376.86,297.99 380.14,301.35 383.41,279.60 386.69,291.48 389.96,301.82 393.24,242.81 396.51,231.76 399.78,212.16 403.06,203.74 406.33,230.12 409.61,237.17 412.88,238.67 416.15,238.01 419.43,223.62 422.70,206.64 425.98,198.53 429.25,188.09 432.53,198.41 435.80,270.99 439.07,302.43 442.35,300.10 445.62,323.98 448.90,317.95 452.17,301.57 455.44,298.85 458.72,286.52 461.99,285.11 465.27,282.12 468.54,286.41 471.81,285.69 475.09,291.57 478.36,289.19 481.64,295.76 484.91,295.21 488.19,295.64 491.46,312.89 494.73,293.34 498.01,282.00 501.28,278.24 504.56,301.29 507.83,296.39 511.10,282.78 514.38,312.71 517.65,318.66 520.93,323.84 524.20,332.36 527.47,324.84 530.75,312.41 534.02,311.70 537.30,315.63 540.57,314.74 543.85,315.04 547.12,331.92 550.39,351.15 553.67,347.30 556.94,312.20 560.22,294.95 563.49,300.43 566.76,296.80 570.04,314.94 573.31,324.34 576.59,312.80 579.86,311.28 583.14,310.53 586.41,312.63 589.68,316.24 592.96,323.84 596.23,313.16 599.51,329.77 602.78,333.14 606.05,334.28 609.33,342.08 612.60,336.30 615.88,312.44 619.15,316.03 622.42,292.11 625.70,297.08 628.97,298.66 632.25,307.43 635.52,329.05 638.80,324.73 642.07,330.38 645.34,338.81 648.62,332.69 651.89,347.30 655.17,327.45 658.44,334.07 661.71,333.25 664.99,347.99 668.26,361.70 671.54,373.11 674.81,347.84 678.08,341.60 681.36,339.94 684.63,340.12 687.91,309.46 691.18,283.32 694.46,276.61 697.73,250.49 701.00,237.63 704.28,236.01 707.55,211.00 710.83,208.25 714.10,195.59 717.37,206.43 720.65,202.45 723.92,170.31 727.20,174.56 730.47,170.14 733.75,177.29 737.02,206.12 740.29,197.30 743.57,178.50 746.84,172.46 750.12,179.96 753.39,162.92 756.66,165.93 759.94,186.14 763.21,158.78 766.49,161.24 769.76,175.57 773.03,179.51 776.31,143.42 779.58,166.33 782.86,173.36 786.13,188.48 789.41,177.98 792.68,182.99 795.95,183.66 799.23,171.32 802.50,171.55 805.78,164.14 809.05,132.46 812.32,111.75 815.60,77.86 818.87,81.53 822.15,176.18 825.42,228.24 828.69,211.19 831.97,218.15 835.24,249.63 838.52,228.50 841.79,233.99 845.07,215.36 848.34,242.40 851.61,216.99 854.89,188.04 858.16,217.23 861.44,236.06 864.71,233.04 867.98,238.00 871.26,259.83 874.53,248.16 877.81,239.83 881.08,253.05 884.36,267.02 887.63,245.88 890.90,250.78 894.18,222.63 897.45,203.11 900.73,204.91 904.00,229.93" />
<text x="780.00" y="60.00" font-size="14" font-family="Arial" fill="#7f7f7f" text-anchor="start">BuyHold</text>
<polyline fill="none" stroke="#1f77b4" stroke-width="2" points="56.00,403.44 59.27,403.44 62.55,403.44 65.82,403.44 69.10,403.44 72.37,403.44 75.64,403.44 78.92,403.44 82.19,403.44 85.47,403.44 88.74,403.44 92.02,403.44 95.29,403.44 98.56,403.44 101.84,403.44 105.11,403.44 108.39,403.44 111.66,403.44 114.93,403.44 118.21,403.44 121.48,403.44 124.76,403.44 128.03,403.44 131.31,403.44 134.58,403.44 137.85,403.44 141.13,403.44 144.40,403.44 147.68,403.44 150.95,403.44 154.22,403.44 157.50,403.44 160.77,403.44 164.05,403.44 167.32,403.44 170.59,403.44 173.87,403.44 177.14,403.44 180.42,403.44 183.69,403.44 186.97,403.44 190.24,403.44 193.51,403.44 196.79,403.44 200.06,403.44 203.34,403.44 206.61,403.44 209.88,403.44 213.16,403.44 216.43,403.44 219.71,403.44 222.98,403.44 226.25,403.44 229.53,403.44 232.80,403.44 236.08,403.44 239.35,403.44 242.63,403.44 245.90,403.44 249.17,403.44 252.45,403.44 255.72,403.44 259.00,403.44 262.27,403.44 265.54,403.44 268.82,403.44 272.09,403.44 275.37,403.44 278.64,403.44 281.92,403.44 285.19,403.44 288.46,403.44 291.74,403.44 295.01,403.44 298.29,403.44 301.56,403.44 304.83,403.44 308.11,403.44 311.38,403.44 314.66,403.44 317.93,403.44 321.20,403.44 324.48,403.44 327.75,403.44 331.03,403.44 334.30,403.44 337.58,403.44 340.85,403.44 344.12,403.44 347.40,403.44 350.67,403.44 353.95,403.44 357.22,403.44 360.49,403.44 363.77,403.44 367.04,403.44 370.32,403.44 373.59,403.44 376.86,403.44 380.14,403.44 383.41,403.44 386.69,403.44 389.96,403.44 393.24,403.44 396.51,403.44 399.78,403.44 403.06,403.44 406.33,403.44 409.61,403.44 412.88,403.44 416.15,403.44 419.43,403.44 422.70,403.44 425.98,403.44 429.25,403.44 432.53,403.44 435.80,403.44 439.07,403.44 442.35,403.44 445.62,403.44 448.90,403.44 452.17,403.44 455.44,403.44 458.72,403.44 461.99,403.44 465.27,403.44 468.54,403.44 471.81,403.44 475.09,403.44 478.36,403.44 481.64,403.44 484.91,403.44 488.19,403.44 491.46,403.44 494.73,403.44 498.01,403.44 501.28,403.44 504.56,403.44 507.83,403.44 511.10,403.44 514.38,403.44 517.65,403.44 520.93,403.44 524.20,403.44 527.47,403.44 530.75,403.44 534.02,403.44 537.30,403.44 540.57,403.44 543.85,403.44 547.12,403.44 550.39,403.44 553.67,403.44 556.94,403.44 560.22,403.44 563.49,403.44 566.76,403.44 570.04,403.44 573.31,403.44 576.59,403.44 579.86,403.44 583.14,403.44 586.41,403.44 589.68,403.44 592.96,403.44 596.23,403.44 599.51,403.44 602.78,403.44 606.05,403.44 609.33,403.44 612.60,403.44 615.88,403.44 619.15,403.44 622.42,403.44 625.70,403.44 628.97,403.44 632.25,403.44 635.52,403.44 638.80,403.44 642.07,403.44 645.34,403.44 648.62,403.44 651.89,403.44 655.17,403.44 658.44,403.44 661.71,403.44 664.99,403.44 668.26,403.44 671.54,403.44 674.81,403.44 678.08,403.44 681.36,403.44 684.63,403.44 687.91,403.44 691.18,403.44 694.46,403.44 697.73,403.44 701.00,403.44 704.28,403.44 707.55,403.44 710.83,401.55 714.10,392.80 717.37,400.29 720.65,397.53 723.92,375.33 727.20,378.27 730.47,375.21 733.75,380.16 737.02,400.07 740.29,393.98 743.57,380.99 746.84,376.82 750.12,382.00 753.39,370.23 756.66,372.31 759.94,386.27 763.21,367.36 766.49,369.07 769.76,378.96 773.03,381.69 776.31,356.75 779.58,372.58 782.86,377.44 786.13,387.89 789.41,380.63 792.68,384.09 795.95,384.56 799.23,376.03 802.50,376.19 805.78,371.07 809.05,349.19 812.32,334.88 815.60,311.46 818.87,314.00 822.15,379.39 825.42,415.36 828.69,403.57 831.97,408.39 835.24,430.13 838.52,415.53 841.79,419.32 845.07,406.46 848.34,425.13 851.61,407.58 854.89,387.58 858.16,407.75 861.44,420.75 864.71,418.67 867.98,422.10 871.26,437.18 874.53,429.11 877.81,423.36 881.08,432.49 884.36,442.14 887.63,427.54 890.90,430.93 894.18,411.48 897.45,398.00 900.73,399.23 904.00,416.52" />
<text x="780.00" y="82.00" font-size="14" font-family="Arial" fill="#1f77b4" text-anchor="start">MA200</text>
<polyline fill="none" stroke="#2ca02c" stroke-width="2" points="56.00,403.44 59.27,403.44 62.55,403.44 65.82,403.44 69.10,403.44 72.37,403.44 75.64,403.44 78.92,403.44 82.19,403.44 85.47,403.44 88.74,403.44 92.02,403.44 95.29,403.44 98.56,403.44 101.84,403.44 105.11,403.44 108.39,403.44 111.66,403.44 114.93,403.44 118.21,403.44 121.48,403.44 124.76,403.44 128.03,403.44 131.31,403.44 134.58,403.44 137.85,403.44 141.13,403.44 144.40,403.44 147.68,403.44 150.95,403.44 154.22,403.44 157.50,403.44 160.77,403.44 164.05,403.44 167.32,403.44 170.59,403.44 173.87,403.44 177.14,403.44 180.42,403.44 183.69,403.44 186.97,403.44 190.24,403.44 193.51,403.44 196.79,403.44 200.06,403.44 203.34,403.44 206.61,403.44 209.88,403.44 213.16,403.44 216.43,403.44 219.71,403.44 222.98,403.44 226.25,403.44 229.53,403.44 232.80,403.44 236.08,403.44 239.35,403.44 242.63,403.44 245.90,403.44 249.17,403.44 252.45,402.97 255.72,407.05 259.00,409.04 262.27,417.45 265.54,414.90 268.82,410.48 272.09,404.41 275.37,404.17 278.64,407.82 281.92,406.65 285.19,395.12 288.46,395.73 291.74,421.60 295.01,380.91 298.29,396.86 301.56,387.72 304.83,384.14 308.11,390.26 311.38,390.37 314.66,398.72 317.93,401.72 321.20,396.65 324.48,384.17 327.75,374.12 331.03,360.26 334.30,343.76 337.58,355.82 340.85,364.50 344.12,373.48 347.40,386.95 350.67,378.01 353.95,382.32 357.22,390.13 360.49,378.76 363.77,386.92 367.04,382.79 370.32,402.12 373.59,398.98 376.86,398.74 380.14,401.46 383.41,383.80 386.69,393.44 389.96,401.84 393.24,353.93 396.51,344.96 399.78,329.05 403.06,322.21 406.33,343.63 409.61,349.35 412.88,350.57 416.15,350.04 419.43,338.35 422.70,324.57 425.98,317.98 429.25,309.51 432.53,317.88 435.80,376.81 439.07,402.34 442.35,400.45 445.62,419.84 448.90,414.94 452.17,401.64 455.44,399.43 458.72,389.42 461.99,388.28 465.27,385.85 468.54,389.33 471.81,388.75 475.09,393.52 478.36,391.58 481.64,396.92 484.91,396.48 488.19,396.48 491.46,396.48 494.73,396.48 498.01,396.48 501.28,396.48 504.56,396.48 507.83,396.48 511.10,396.48 514.38,396.48 517.65,396.48 520.93,396.48 524.20,396.48 527.47,396.48 530.75,396.48 534.02,396.48 537.30,396.48 540.57,396.48 543.85,396.48 547.12,396.48 550.39,396.48 553.67,396.48 556.94,396.48 560.22,396.48 563.49,396.48 566.76,396.48 570.04,396.48 573.31,396.48 576.59,396.48 579.86,396.48 583.14,396.48 586.41,396.48 589.68,396.48 592.96,396.48 596.23,396.48 599.51,396.48 602.78,396.48 606.05,396.48 609.33,396.48 612.60,396.48 615.88,396.48 619.15,396.48 622.42,396.48 625.70,396.48 628.97,396.48 632.25,396.48 635.52,396.48 638.80,396.48 642.07,396.48 645.34,396.48 648.62,396.48 651.89,396.48 655.17,396.48 658.44,396.48 661.71,396.48 664.99,396.48 668.26,396.48 671.54,396.48 674.81,396.48 678.08,396.48 681.36,396.48 684.63,396.48 687.91,396.48 691.18,396.48 694.46,396.48 697.73,396.48 701.00,396.48 704.28,396.48 707.55,396.48 710.83,394.55 714.10,385.66 717.37,393.27 720.65,390.48 723.92,367.91 727.20,370.90 730.47,367.79 733.75,372.82 737.02,393.05 740.29,386.86 743.57,373.66 746.84,369.42 750.12,374.69 753.39,362.73 756.66,364.84 759.94,379.03 763.21,359.82 766.49,361.55 769.76,371.60 773.03,374.37 776.31,349.03 779.58,365.12 782.86,370.05 786.13,380.67 789.41,373.30 792.68,376.82 795.95,377.29 799.23,368.62 802.50,368.78 805.78,363.59 809.05,341.34 812.32,326.80 815.60,303.01 818.87,305.59 822.15,372.03 825.42,408.59 828.69,396.61 831.97,401.50 835.24,423.60 838.52,408.76 841.79,412.62 845.07,399.54 848.34,418.52 851.61,400.69 854.89,380.36 858.16,400.85 861.44,414.07 864.71,411.95 867.98,415.44 871.26,430.76 874.53,422.57 877.81,422.57 881.08,422.57 884.36,422.57 887.63,422.57 890.90,422.57 894.18,422.57 897.45,422.57 900.73,422.57 904.00,422.57" />
<text x="780.00" y="104.00" font-size="14" font-family="Arial" fill="#2ca02c" text-anchor="start">MA20x60</text>
</svg>