<svg xmlns="http://www.w3.org/2000/svg" width="960" height="520" viewBox="0 0 960 520"><rect width="100%" height="100%" fill="white" />
<text x="56.00" y="32.00" font-size="20" font-family="Arial" fill="#1f2933" text-anchor="start">AVGO Backtest Equity Curves</text>
<line x1="56" y1="464" x2="904" y2="464" stroke="#cbd2d9" />
<line x1="56" y1="56" x2="56" y2="464" stroke="#cbd2d9" />
<text x="16.00" y="38.00" font-size="12" font-family="Arial" fill="#52606d" text-anchor="start">Equity Multiple</text>
<line x1="56" y1="464.00" x2="904" y2="464.00" stroke="#edf2f7" />
<line x1="52" y1="464.00" x2="56" y2="464.00" stroke="#9fb3c8" />
<text x="48.00" y="468.00" font-size="11" font-family="Arial" fill="#52606d" text-anchor="end">0.85</text>
<line x1="56" y1="362.00" x2="904" y2="362.00" stroke="#edf2f7" />
<line x1="52" y1="362.00" x2="56" y2="362.00" stroke="#9fb3c8" />
<text x="48.00" y="366.00" font-size="11" font-family="Arial" fill="#52606d" text-anchor="end">1.09</text>
<line x1="56" y1="260.00" x2="904" y2="260.00" stroke="#edf2f7" />
<line x1="52" y1="260.00" x2="56" y2="260.00" stroke="#9fb3c8" />
<text x="48.00" y="264.00" font-size="11" font-family="Arial" fill="#52606d" text-anchor="end">1.33</text>
<line x1="56" y1="158.00" x2="904" y2="158.00" stroke="#edf2f7" />
<line x1="52" y1="158.00" x2="56" y2="158.00" stroke="#9fb3c8" />
<text x="48.00" y="162.00" font-size="11" font-family="Arial" fill="#52606d" text-anchor="end">1.57</text>
<line x1="56" y1="56.00" x2="904" y2="56.00" stroke="#edf2f7" />
<line x1="52" y1="56.00" x2="56" y2="56.00" stroke="#9fb3c8" />
<text x="48.00" y="60.00" font-size="11" font-family="Arial" fill="#52606d" text-anchor="end">1.81</text>
<line x1="56.00" y1="464" x2="56.00" y2="468" stroke="#9fb3c8" />
<text x="56.00" y="482.00" font-size="11" font-family="Arial" fill="#52606d" text-anchor="middle">07/03</text>
<line x1="226.25" y1="464" x2="226.25" y2="468" stroke="#9fb3c8" />
<text x="226.25" y="482.00" font-size="11" font-family="Arial" fill="#52606d" text-anchor="middle">09/17</text>
<line x1="396.51" y1="464" x2="396.51" y2="468" stroke="#9fb3c8" />
<text x="396.51" y="482.00" font-size="11" font-family="Arial" fill="#52606d" text-anchor="middle">12/01</text>
<line x1="563.49" y1="464" x2="563.49" y2="468" stroke="#9fb3c8" />
<text x="563.49" y="482.00" font-size="11" font-family="Arial" fill="#52606d" text-anchor="middle">02/13</text>
<line x1="733.75" y1="464" x2="733.75" y2="468" stroke="#9fb3c8" />
<text x="733.75" y="482.00" font-size="11" font-family="Arial" fill="#52606d" text-anchor="middle">04/30</text>
<line x1="904.00" y1="464" x2="904.00" y2="468" stroke="#9fb3c8" />
<text x="904.00" y="482.00" font-size="11" font-family="Arial" fill="#52606d" text-anchor="middle">07/16</text>
<polyline fill="none" stroke="#7f7f7f" stroke-width="2" points="56.00,401.06 59.27,402.60 62.55,406.28 65.82,396.86 69.10,400.72 72.37,402.30 75.64,400.41 78.92,392.16 82.19,392.36 85.47,383.64 88.74,388.45 92.02,380.92 95.29,395.79 98.56,387.91 101.84,380.15 105.11,377.88 108.39,371.51 111.66,366.69 114.93,358.66 118.21,372.44 121.48,380.26 124.76,366.23 128.03,373.63 131.31,360.12 134.58,356.89 137.85,355.03 141.13,356.68 144.40,342.88 147.68,348.66 150.95,345.35 154.22,352.91 157.50,353.80 160.77,370.57 164.05,376.35 167.32,378.78 170.59,371.98 173.87,371.62 177.14,365.78 180.42,362.32 183.69,349.34 186.97,366.74 190.24,365.42 193.51,359.01 196.79,353.28 200.06,308.79 203.34,292.16 206.61,306.04 209.88,255.20 213.16,270.56 216.43,270.19 219.71,263.67 222.98,269.99 226.25,291.36 229.53,292.63 232.80,293.26 236.08,301.87 239.35,301.63 242.63,301.06 245.90,306.03 249.17,308.46 252.45,318.72 255.72,315.61 259.00,310.22 262.27,302.81 265.54,302.52 268.82,306.97 272.09,305.55 275.37,291.48 278.64,292.22 281.92,323.79 285.19,274.14 288.46,293.60 291.74,282.45 295.01,278.09 298.29,285.55 301.56,285.69 304.83,295.88 308.11,299.53 311.38,293.35 314.66,278.12 317.93,265.86 321.20,248.96 324.48,228.82 327.75,243.54 331.03,254.13 334.30,265.09 337.58,281.51 340.85,270.61 344.12,275.86 347.40,285.40 350.67,271.53 353.95,281.48 357.22,276.43 360.49,300.02 363.77,296.19 367.04,295.89 370.32,299.22 373.59,277.67 376.86,289.44 380.14,299.68 383.41,241.23 386.69,230.29 389.96,210.88 393.24,202.53 396.51,228.66 399.78,235.64 403.06,237.13 406.33,236.48 409.61,222.22 412.88,205.41 416.15,197.38 419.43,187.04 422.70,197.26 425.98,269.14 429.25,300.29 432.53,297.98 435.80,321.63 439.07,315.66 442.35,299.44 445.62,296.74 448.90,284.53 452.17,283.14 455.44,280.17 458.72,284.42 461.99,283.71 465.27,289.53 468.54,287.17 471.81,293.68 475.09,293.14 478.36,293.56 481.64,310.65 484.91,291.28 488.19,280.05 491.46,276.33 494.73,299.16 498.01,294.30 501.28,280.82 504.56,310.46 507.83,316.36 511.10,321.49 514.38,329.93 517.65,322.48 520.93,310.17 524.20,309.47 527.47,313.36 530.75,312.48 534.02,312.77 537.30,329.49 540.57,348.54 543.85,344.72 547.12,309.97 550.39,292.88 553.67,298.30 556.94,294.71 560.22,312.68 563.49,321.99 566.76,310.56 570.04,309.05 573.31,308.31 576.59,310.39 579.86,313.97 583.14,321.49 586.41,310.91 589.68,327.37 592.96,330.70 596.23,331.83 599.51,339.56 602.78,333.83 606.05,310.20 609.33,313.75 612.60,290.07 615.88,294.98 619.15,296.55 622.42,305.24 625.70,326.65 628.97,322.37 632.25,327.97 635.52,336.32 638.80,330.25 642.07,344.72 645.34,325.06 648.62,331.62 651.89,330.81 655.17,345.41 658.44,358.99 661.71,370.29 664.99,345.27 668.26,339.08 671.54,337.43 674.81,337.62 678.08,307.25 681.36,281.36 684.63,274.71 687.91,248.85 691.18,236.10 694.46,234.50 697.73,209.73 701.00,207.01 704.28,194.47 707.55,205.21 710.83,201.26 714.10,169.43 717.37,173.64 720.65,169.26 723.92,176.34 727.20,204.89 730.47,196.16 733.75,177.54 737.02,171.56 740.29,178.99 743.57,162.11 746.84,165.09 750.12,185.11 753.39,158.01 756.66,160.45 759.94,174.63 763.21,178.54 766.49,142.79 769.76,165.48 773.03,172.44 776.31,187.43 779.58,177.03 782.86,181.99 786.13,182.65 789.41,170.42 792.68,170.66 795.95,163.32 799.23,131.94 802.50,111.43 805.78,77.86 809.05,81.49 812.32,175.24 815.60,226.81 818.87,209.91 822.15,216.81 825.42,247.99 828.69,227.06 831.97,232.50 835.24,214.05 838.52,240.83 841.79,215.66 845.07,186.99 848.34,215.90 851.61,234.55 854.89,231.56 858.16,236.48 861.44,258.10 864.71,246.53 867.98,238.28 871.26,251.37 874.53,265.21 877.81,244.27 881.08,249.13 884.36,221.25 887.63,201.92 890.90,203.69 894.18,228.47 897.45,220.60 900.73,212.55 904.00,243.42" />
<text x="780.00" y="60.00" font-size="14" font-family="Arial" fill="#7f7f7f" text-anchor="start">BuyHold</text>
<polyline fill="none" stroke="#1f77b4" stroke-width="2" points="56.00,401.06 59.27,401.06 62.55,401.06 65.82,401.06 69.10,401.06 72.37,401.06 75.64,401.06 78.92,401.06 82.19,401.06 85.47,401.06 88.74,401.06 92.02,401.06 95.29,401.06 98.56,401.06 101.84,401.06 105.11,401.06 108.39,401.06 111.66,401.06 114.93,401.06 118.21,401.06 121.48,401.06 124.76,401.06 128.03,401.06 131.31,401.06 134.58,401.06 137.85,401.06 141.13,401.06 144.40,401.06 147.68,401.06 150.95,401.06 154.22,401.06 157.50,401.06 160.77,401.06 164.05,401.06 167.32,401.06 170.59,401.06 173.87,401.06 177.14,401.06 180.42,401.06 183.69,401.06 186.97,401.06 190.24,401.06 193.51,401.06 196.79,401.06 200.06,401.06 203.34,401.06 206.61,401.06 209.88,401.06 213.16,401.06 216.43,401.06 219.71,401.06 222.98,401.06 226.25,401.06 229.53,401.06 232.80,401.06 236.08,401.06 239.35,401.06 242.63,401.06 245.90,401.06 249.17,401.06 252.45,401.06 255.72,401.06 259.00,401.06 262.27,401.06 265.54,401.06 268.82,401.06 272.09,401.06 275.37,401.06 278.64,401.06 281.92,401.06 285.19,401.06 288.46,401.06 291.74,401.06 295.01,401.06 298.29,401.06 301.56,401.06 304.83,401.06 308.11,401.06 311.38,401.06 314.66,401.06 317.93,401.06 321.20,401.06 324.48,401.06 327.75,401.06 331.03,401.06 334.30,401.06 337.58,401.06 340.85,401.06 344.12,401.06 347.40,401.06 350.67,401.06 353.95,401.06 357.22,401.06 360.49,401.06 363.77,401.06 367.04,401.06 370.32,401.06 373.59,401.06 376.86,401.06 380.14,401.06 383.41,401.06 386.69,401.06 389.96,401.06 393.24,401.06 396.51,401.06 399.78,401.06 403.06,401.06 406.33,401.06 409.61,401.06 412.88,401.06 416.15,401.06 419.43,401.06 422.70,401.06 425.98,401.06 429.25,401.06 432.53,401.06 435.80,401.06 439.07,401.06 442.35,401.06 445.62,401.06 448.90,401.06 452.17,401.06 455.44,401.06 458.72,401.06 461.99,401.06 465.27,401.06 468.54,401.06 471.81,401.06 475.09,401.06 478.36,401.06 481.64,401.06 484.91,401.06 488.19,401.06 491.46,401.06 494.73,401.06 498.01,401.06 501.28,401.06 504.56,401.06 507.83,401.06 511.10,401.06 514.38,401.06 517.65,401.06 520.93,401.06 524.20,401.06 527.47,401.06 530.75,401.06 534.02,401.06 537.30,401.06 540.57,401.06 543.85,401.06 547.12,401.06 550.39,401.06 553.67,401.06 556.94,401.06 560.22,401.06 563.49,401.06 566.76,401.06 570.04,401.06 573.31,401.06 576.59,401.06 579.86,401.06 583.14,401.06 586.41,401.06 589.68,401.06 592.96,401.06 596.23,401.06 599.51,401.06 602.78,401.06 606.05,401.06 609.33,401.06 612.60,401.06 615.88,401.06 619.15,401.06 622.42,401.06 625.70,401.06 628.97,401.06 632.25,401.06 635.52,401.06 638.80,401.06 642.07,401.06 645.34,401.06 648.62,401.06 651.89,401.06 655.17,401.06 658.44,401.06 661.71,401.06 664.99,401.06 668.26,401.06 671.54,401.06 674.81,401.06 678.08,401.06 681.36,401.06 684.63,401.06 687.91,401.06 691.18,401.06 694.46,401.06 697.73,401.06 701.00,401.06 704.28,401.06 707.55,401.06 710.83,398.36 714.10,376.56 717.37,379.45 720.65,376.45 723.92,381.30 727.20,400.85 730.47,394.87 733.75,382.12 737.02,378.02 740.29,383.11 743.57,371.55 746.84,373.60 750.12,387.30 753.39,368.74 756.66,370.41 759.94,380.13 763.21,382.80 766.49,358.33 769.76,373.86 773.03,378.63 776.31,388.89 779.58,381.77 782.86,385.16 786.13,385.62 789.41,377.25 792.68,377.41 795.95,372.38 799.23,350.90 802.50,336.85 805.78,313.87 809.05,316.36 812.32,380.54 815.60,415.85 818.87,404.28 822.15,409.01 825.42,430.35 828.69,416.02 831.97,419.74 835.24,407.11 838.52,425.45 841.79,408.22 845.07,388.59 848.34,408.38 851.61,421.15 854.89,419.10 858.16,422.47 861.44,437.27 864.71,429.35 867.98,423.71 871.26,432.67 874.53,442.14 877.81,427.81 881.08,431.13 884.36,412.05 887.63,398.81 890.90,400.02 894.18,416.99 897.45,411.60 900.73,406.09 904.00,427.22" />
<text x="780.00" y="82.00" font-size="14" font-family="Arial" fill="#1f77b4" text-anchor="start">MA200</text>
<polyline fill="none" stroke="#2ca02c" stroke-width="2" points="56.00,401.06 59.27,401.06 62.55,401.06 65.82,401.06 69.10,401.06 72.37,401.06 75.64,401.06 78.92,401.06 82.19,401.06 85.47,401.06 88.74,401.06 92.02,401.06 95.29,401.06 98.56,401.06 101.84,401.06 105.11,401.06 108.39,401.06 111.66,401.06 114.93,401.06 118.21,401.06 121.48,401.06 124.76,401.06 128.03,401.06 131.31,401.06 134.58,401.06 137.85,401.06 141.13,401.06 144.40,401.06 147.68,401.06 150.95,401.06 154.22,401.06 157.50,401.06 160.77,401.06 164.05,401.06 167.32,401.06 170.59,401.06 173.87,401.06 177.14,401.06 180.42,401.06 183.69,401.06 186.97,401.06 190.24,401.06 193.51,401.06 196.79,401.06 200.06,401.06 203.34,401.06 206.61,401.06 209.88,401.06 213.16,401.06 216.43,401.06 219.71,401.06 222.98,401.06 226.25,401.06 229.53,401.06 232.80,401.06 236.08,401.06 239.35,401.06 242.63,401.06 245.90,401.06 249.17,401.06 252.45,409.49 255.72,406.93 259.00,402.51 262.27,396.42 265.54,396.18 268.82,399.84 272.09,398.67 275.37,387.12 278.64,387.73 281.92,413.64 285.19,372.88 288.46,388.86 291.74,379.70 295.01,376.12 298.29,382.25 301.56,382.36 304.83,390.73 308.11,393.73 311.38,388.65 314.66,376.15 317.93,366.08 321.20,352.20 324.48,335.66 327.75,347.75 331.03,356.44 334.30,365.44 337.58,378.93 340.85,369.98 344.12,374.29 347.40,382.12 350.67,370.73 353.95,378.90 357.22,374.76 360.49,394.13 363.77,390.98 367.04,390.74 370.32,393.47 373.59,375.78 376.86,385.44 380.14,393.85 383.41,345.85 386.69,336.87 389.96,320.93 393.24,314.08 396.51,335.53 399.78,341.26 403.06,342.49 406.33,341.95 409.61,330.24 412.88,316.44 416.15,309.84 419.43,301.35 422.70,309.74 425.98,368.77 429.25,394.35 432.53,392.45 435.80,411.88 439.07,406.97 442.35,393.65 445.62,391.43 448.90,381.41 452.17,380.26 455.44,377.83 458.72,381.32 461.99,380.73 465.27,385.51 468.54,383.57 471.81,388.92 475.09,388.48 478.36,388.48 481.64,388.48 484.91,388.48 488.19,388.48 491.46,388.48 494.73,388.48 498.01,388.48 501.28,388.48 504.56,388.48 507.83,388.48 511.10,388.48 514.38,388.48 517.65,388.48 520.93,388.48 524.20,388.48 527.47,388.48 530.75,388.48 534.02,388.48 537.30,388.48 540.57,388.48 543.85,388.48 547.12,388.48 550.39,388.48 553.67,388.48 556.94,388.48 560.22,388.48 563.49,388.48 566.76,388.48 570.04,388.48 573.31,388.48 576.59,388.48 579.86,388.48 583.14,388.48 586.41,388.48 589.68,388.48 592.96,388.48 596.23,388.48 599.51,388.48 602.78,388.48 606.05,388.48 609.33,388.48 612.60,388.48 615.88,388.48 619.15,388.48 622.42,388.48 625.70,388.48 628.97,388.48 632.25,388.48 635.52,388.48 638.80,388.48 642.07,388.48 645.34,388.48 648.62,388.48 651.89,388.48 655.17,388.48 658.44,388.48 661.71,388.48 664.99,388.48 668.26,388.48 671.54,388.48 674.81,388.48 678.08,388.48 681.36,388.48 684.63,388.48 687.91,388.48 691.18,388.48 694.46,388.48 697.73,388.48 701.00,386.55 704.28,377.64 707.55,385.27 710.83,382.46 714.10,359.86 717.37,362.85 720.65,359.74 723.92,364.77 727.20,385.05 730.47,378.84 733.75,365.62 737.02,361.37 740.29,366.65 743.57,354.66 746.84,356.78 750.12,371.00 753.39,351.75 756.66,353.48 759.94,363.56 763.21,366.33 766.49,340.95 769.76,357.06 773.03,362.00 776.31,372.64 779.58,365.26 782.86,368.78 786.13,369.25 789.41,360.57 792.68,360.73 795.95,355.52 799.23,333.24 802.50,318.68 805.78,294.84 809.05,297.42 812.32,363.99 815.60,400.61 818.87,388.61 822.15,393.51 825.42,415.65 828.69,400.78 831.97,404.65 835.24,391.55 838.52,410.56 841.79,392.69 845.07,372.33 848.34,392.86 851.61,406.10 854.89,403.98 858.16,407.47 861.44,422.82 864.71,414.61 867.98,414.61 871.26,414.61 874.53,414.61 877.81,414.61 881.08,414.61 884.36,414.61 887.63,414.61 890.90,414.61 894.18,414.61 897.45,414.61 900.73,414.61 904.00,414.61" />
<text x="780.00" y="104.00" font-size="14" font-family="Arial" fill="#2ca02c" text-anchor="start">MA20x60</text>
</svg>