<svg xmlns="http://www.w3.org/2000/svg" width="960" height="520" viewBox="0 0 960 520"><rect width="100%" height="100%" fill="white" />
<text x="56.00" y="32.00" font-size="20" font-family="Arial" fill="#1f2933" text-anchor="start">CRM Backtest Equity Curves</text>
<line x1="56" y1="464" x2="904" y2="464" stroke="#cbd2d9" />
<line x1="56" y1="56" x2="56" y2="464" stroke="#cbd2d9" />
<text x="16.00" y="38.00" font-size="12" font-family="Arial" fill="#52606d" text-anchor="start">Equity Multiple</text>
<line x1="56" y1="464.00" x2="904" y2="464.00" stroke="#edf2f7" />
<line x1="52" y1="464.00" x2="56" y2="464.00" stroke="#9fb3c8" />
<text x="48.00" y="468.00" font-size="11" font-family="Arial" fill="#52606d" text-anchor="end">0.53</text>
<line x1="56" y1="362.00" x2="904" y2="362.00" stroke="#edf2f7" />
<line x1="52" y1="362.00" x2="56" y2="362.00" stroke="#9fb3c8" />
<text x="48.00" y="366.00" font-size="11" font-family="Arial" fill="#52606d" text-anchor="end">0.66</text>
<line x1="56" y1="260.00" x2="904" y2="260.00" stroke="#edf2f7" />
<line x1="52" y1="260.00" x2="56" y2="260.00" stroke="#9fb3c8" />
<text x="48.00" y="264.00" font-size="11" font-family="Arial" fill="#52606d" text-anchor="end">0.79</text>
<line x1="56" y1="158.00" x2="904" y2="158.00" stroke="#edf2f7" />
<line x1="52" y1="158.00" x2="56" y2="158.00" stroke="#9fb3c8" />
<text x="48.00" y="162.00" font-size="11" font-family="Arial" fill="#52606d" text-anchor="end">0.92</text>
<line x1="56" y1="56.00" x2="904" y2="56.00" stroke="#edf2f7" />
<line x1="52" y1="56.00" x2="56" y2="56.00" stroke="#9fb3c8" />
<text x="48.00" y="60.00" font-size="11" font-family="Arial" fill="#52606d" text-anchor="end">1.05</text>
<line x1="56.00" y1="464" x2="56.00" y2="468" stroke="#9fb3c8" />
<text x="56.00" y="482.00" font-size="11" font-family="Arial" fill="#52606d" text-anchor="middle">07/03</text>
<line x1="226.25" y1="464" x2="226.25" y2="468" stroke="#9fb3c8" />
<text x="226.25" y="482.00" font-size="11" font-family="Arial" fill="#52606d" text-anchor="middle">09/17</text>
<line x1="396.51" y1="464" x2="396.51" y2="468" stroke="#9fb3c8" />
<text x="396.51" y="482.00" font-size="11" font-family="Arial" fill="#52606d" text-anchor="middle">12/01</text>
<line x1="563.49" y1="464" x2="563.49" y2="468" stroke="#9fb3c8" />
<text x="563.49" y="482.00" font-size="11" font-family="Arial" fill="#52606d" text-anchor="middle">02/13</text>
<line x1="733.75" y1="464" x2="733.75" y2="468" stroke="#9fb3c8" />
<text x="733.75" y="482.00" font-size="11" font-family="Arial" fill="#52606d" text-anchor="middle">04/30</text>
<line x1="904.00" y1="464" x2="904.00" y2="468" stroke="#9fb3c8" />
<text x="904.00" y="482.00" font-size="11" font-family="Arial" fill="#52606d" text-anchor="middle">07/16</text>
<polyline fill="none" stroke="#7f7f7f" stroke-width="2" points="56.00,97.69 59.27,104.39 62.55,93.41 65.82,101.20 69.10,121.02 72.37,137.85 75.64,133.26 78.92,139.25 82.19,138.19 85.47,132.69 88.74,125.56 92.02,125.84 95.29,122.10 98.56,111.75 101.84,110.38 105.11,106.36 108.39,103.11 111.66,111.27 114.93,118.63 118.21,137.11 121.48,158.76 124.76,154.25 128.03,168.03 131.31,163.24 134.58,186.88 137.85,187.94 141.13,210.27 144.40,213.18 147.68,197.86 150.95,208.30 154.22,182.43 157.50,178.07 160.77,172.28 164.05,171.00 167.32,172.76 170.59,165.75 173.87,166.94 177.14,178.73 180.42,160.41 183.69,147.95 186.97,143.04 190.24,152.71 193.51,142.47 196.79,177.95 200.06,158.70 203.34,154.39 206.61,154.99 209.88,182.06 213.16,171.48 216.43,181.52 219.71,182.20 222.98,191.36 226.25,181.89 229.53,175.97 232.80,167.94 236.08,160.51 239.35,175.17 242.63,171.37 245.90,185.49 249.17,178.40 252.45,173.63 255.72,196.77 259.00,200.52 262.27,191.40 265.54,187.17 268.82,171.69 272.09,188.94 275.37,186.97 278.64,172.97 281.92,183.40 285.19,163.20 288.46,188.86 291.74,197.97 295.01,171.06 298.29,179.40 301.56,147.40 304.83,121.31 308.11,140.65 311.38,145.20 314.66,145.83 317.93,144.00 321.20,147.45 324.48,155.46 327.75,140.63 331.03,129.88 334.30,127.22 337.58,146.94 340.85,151.97 344.12,190.29 347.40,188.54 350.67,183.31 353.95,175.34 357.22,171.00 360.49,186.97 363.77,177.74 367.04,196.69 370.32,206.77 373.59,222.83 376.86,230.00 380.14,225.03 383.41,225.86 386.69,205.00 389.96,222.06 393.24,215.23 396.51,208.69 399.78,203.32 403.06,191.86 406.33,166.89 409.61,129.42 412.88,132.40 416.15,128.14 419.43,119.05 422.70,124.34 425.98,124.68 429.25,146.54 432.53,145.60 435.80,136.37 439.07,136.01 442.35,130.11 445.62,116.60 448.90,120.04 452.17,114.80 455.44,112.45 458.72,112.02 461.99,112.91 465.27,115.80 468.54,148.11 471.81,140.56 475.09,121.55 478.36,112.34 481.64,128.34 484.91,130.03 488.19,131.57 491.46,184.06 494.73,188.32 498.01,205.61 501.28,223.99 504.56,244.13 507.83,239.81 511.10,221.18 514.38,221.29 517.65,217.43 520.93,219.92 524.20,221.55 527.47,261.28 530.75,266.40 534.02,270.64 537.30,311.93 540.57,303.18 543.85,330.28 547.12,326.33 550.39,318.66 553.67,320.32 556.94,344.50 560.22,343.27 563.49,330.99 566.76,346.54 570.04,336.52 573.31,343.67 576.59,344.05 579.86,364.08 583.14,343.30 586.41,325.18 589.68,303.09 592.96,316.48 596.23,321.75 599.51,312.88 602.78,321.38 606.05,297.60 609.33,295.53 612.60,305.04 615.88,316.14 619.15,318.37 622.42,303.63 625.70,322.09 628.97,306.32 632.25,315.00 635.52,317.77 638.80,315.91 642.07,314.80 645.34,315.37 648.62,350.17 651.89,353.20 655.17,342.67 658.44,360.79 661.71,344.42 664.99,339.72 668.26,340.95 671.54,338.26 674.81,344.42 678.08,350.34 681.36,369.20 684.63,383.78 687.91,400.68 691.18,378.13 694.46,382.46 697.73,364.41 701.00,354.02 704.28,351.38 707.55,339.54 710.83,337.13 714.10,329.41 717.37,376.75 720.65,362.80 723.92,357.01 727.20,353.74 730.47,354.02 733.75,367.48 737.02,346.56 740.29,341.80 743.57,337.47 746.84,354.11 750.12,339.33 753.39,352.30 756.66,364.73 759.94,382.46 763.21,398.15 766.49,393.16 769.76,376.15 773.03,359.02 776.31,359.19 779.58,357.24 782.86,368.11 786.13,357.32 789.41,360.16 792.68,364.67 795.95,368.51 799.23,325.68 802.50,272.60 805.78,297.73 809.05,327.08 812.32,332.42 815.60,341.29 818.87,350.21 822.15,370.87 825.42,383.58 828.69,395.17 831.97,396.78 835.24,400.63 838.52,408.80 841.79,428.05 845.07,437.37 848.34,442.14 851.61,432.65 854.89,434.55 858.16,441.94 861.44,418.41 864.71,419.68 867.98,423.33 871.26,404.43 874.53,396.15 877.81,397.47 881.08,386.34 884.36,394.79 887.63,406.53 890.90,404.17 894.18,381.45 897.45,391.98 900.73,393.59 904.00,377.25" />
<text x="780.00" y="60.00" font-size="14" font-family="Arial" fill="#7f7f7f" text-anchor="start">BuyHold</text>
<polyline fill="none" stroke="#1f77b4" stroke-width="2" points="56.00,97.69 59.27,97.69 62.55,97.69 65.82,97.69 69.10,97.69 72.37,97.69 75.64,97.69 78.92,97.69 82.19,97.69 85.47,97.69 88.74,97.69 92.02,97.69 95.29,97.69 98.56,97.69 101.84,97.69 105.11,97.69 108.39,97.69 111.66,97.69 114.93,97.69 118.21,97.69 121.48,97.69 124.76,97.69 128.03,97.69 131.31,97.69 134.58,97.69 137.85,97.69 141.13,97.69 144.40,97.69 147.68,97.69 150.95,97.69 154.22,97.69 157.50,97.69 160.77,97.69 164.05,97.69 167.32,97.69 170.59,97.69 173.87,97.69 177.14,97.69 180.42,97.69 183.69,97.69 186.97,97.69 190.24,97.69 193.51,97.69 196.79,97.69 200.06,97.69 203.34,97.69 206.61,97.69 209.88,97.69 213.16,97.69 216.43,97.69 219.71,97.69 222.98,97.69 226.25,97.69 229.53,97.69 232.80,97.69 236.08,97.69 239.35,97.69 242.63,97.69 245.90,97.69 249.17,97.69 252.45,97.69 255.72,97.69 259.00,97.69 262.27,97.69 265.54,97.69 268.82,97.69 272.09,97.69 275.37,97.69 278.64,97.69 281.92,97.69 285.19,97.69 288.46,97.69 291.74,97.69 295.01,97.69 298.29,97.69 301.56,97.69 304.83,97.69 308.11,97.69 311.38,97.69 314.66,97.69 317.93,97.69 321.20,97.69 324.48,97.69 327.75,97.69 331.03,97.69 334.30,97.69 337.58,97.69 340.85,97.69 344.12,97.69 347.40,97.69 350.67,97.69 353.95,97.69 357.22,97.69 360.49,97.69 363.77,97.69 367.04,97.69 370.32,97.69 373.59,97.69 376.86,97.69 380.14,97.69 383.41,97.69 386.69,97.69 389.96,97.69 393.24,97.69 396.51,97.69 399.78,97.69 403.06,97.69 406.33,97.69 409.61,97.69 412.88,97.69 416.15,97.69 419.43,97.69 422.70,97.69 425.98,97.69 429.25,97.69 432.53,97.69 435.80,97.69 439.07,97.69 442.35,97.69 445.62,97.69 448.90,97.69 452.17,97.69 455.44,97.69 458.72,97.69 461.99,97.69 465.27,97.69 468.54,97.69 471.81,97.69 475.09,97.69 478.36,97.69 481.64,97.69 484.91,97.69 488.19,97.69 491.46,97.69 494.73,97.69 498.01,97.69 501.28,97.69 504.56,97.69 507.83,97.69 511.10,97.69 514.38,97.69 517.65,97.69 520.93,97.69 524.20,97.69 527.47,97.69 530.75,97.69 534.02,97.69 537.30,97.69 540.57,97.69 543.85,97.69 547.12,97.69 550.39,97.69 553.67,97.69 556.94,97.69 560.22,97.69 563.49,97.69 566.76,97.69 570.04,97.69 573.31,97.69 576.59,97.69 579.86,97.69 583.14,97.69 586.41,97.69 589.68,97.69 592.96,97.69 596.23,97.69 599.51,97.69 602.78,97.69 606.05,97.69 609.33,97.69 612.60,97.69 615.88,97.69 619.15,97.69 622.42,97.69 625.70,97.69 628.97,97.69 632.25,97.69 635.52,97.69 638.80,97.69 642.07,97.69 645.34,97.69 648.62,97.69 651.89,97.69 655.17,97.69 658.44,97.69 661.71,97.69 664.99,97.69 668.26,97.69 671.54,97.69 674.81,97.69 678.08,97.69 681.36,97.69 684.63,97.69 687.91,97.69 691.18,97.69 694.46,97.69 697.73,97.69 701.00,97.69 704.28,97.69 707.55,97.69 710.83,97.69 714.10,97.69 717.37,97.69 720.65,97.69 723.92,97.69 727.20,97.69 730.47,97.69 733.75,97.69 737.02,97.69 740.29,97.69 743.57,97.69 746.84,97.69 750.12,97.69 753.39,97.69 756.66,97.69 759.94,97.69 763.21,97.69 766.49,97.69 769.76,97.69 773.03,97.69 776.31,97.69 779.58,97.69 782.86,97.69 786.13,97.69 789.41,97.69 792.68,97.69 795.95,97.69 799.23,97.69 802.50,97.69 805.78,97.69 809.05,97.69 812.32,97.69 815.60,97.69 818.87,97.69 822.15,97.69 825.42,97.69 828.69,97.69 831.97,97.69 835.24,97.69 838.52,97.69 841.79,97.69 845.07,97.69 848.34,97.69 851.61,97.69 854.89,97.69 858.16,97.69 861.44,97.69 864.71,97.69 867.98,97.69 871.26,97.69 874.53,97.69 877.81,97.69 881.08,97.69 884.36,97.69 887.63,97.69 890.90,97.69 894.18,97.69 897.45,97.69 900.73,97.69 904.00,97.69" />
<text x="780.00" y="82.00" font-size="14" font-family="Arial" fill="#1f77b4" text-anchor="start">MA200</text>
<polyline fill="none" stroke="#2ca02c" stroke-width="2" points="56.00,97.69 59.27,97.69 62.55,97.69 65.82,97.69 69.10,97.69 72.37,97.69 75.64,97.69 78.92,97.69 82.19,97.69 85.47,97.69 88.74,97.69 92.02,97.69 95.29,97.69 98.56,97.69 101.84,97.69 105.11,97.69 108.39,97.69 111.66,97.69 114.93,97.69 118.21,97.69 121.48,97.69 124.76,97.69 128.03,97.69 131.31,97.69 134.58,97.69 137.85,97.69 141.13,97.69 144.40,97.69 147.68,97.69 150.95,97.69 154.22,97.69 157.50,97.69 160.77,97.69 164.05,97.69 167.32,97.69 170.59,97.69 173.87,97.69 177.14,97.69 180.42,97.69 183.69,97.69 186.97,97.69 190.24,97.69 193.51,97.69 196.79,97.69 200.06,97.69 203.34,97.69 206.61,97.69 209.88,97.69 213.16,97.69 216.43,97.69 219.71,97.69 222.98,97.69 226.25,97.69 229.53,97.69 232.80,97.69 236.08,97.69 239.35,97.69 242.63,97.69 245.90,97.69 249.17,97.69 252.45,97.69 255.72,97.69 259.00,97.69 262.27,97.69 265.54,97.69 268.82,97.69 272.09,97.69 275.37,97.69 278.64,97.69 281.92,97.69 285.19,97.69 288.46,97.69 291.74,97.69 295.01,97.69 298.29,97.69 301.56,97.69 304.83,97.69 308.11,97.69 311.38,97.69 314.66,97.69 317.93,95.74 321.20,99.42 324.48,107.95 327.75,92.14 331.03,80.69 334.30,77.86 337.58,98.88 340.85,104.24 344.12,145.09 347.40,143.23 350.67,137.66 353.95,129.16 357.22,124.53 360.49,141.55 363.77,131.72 367.04,151.91 370.32,162.67 373.59,179.79 376.86,187.43 380.14,182.13 383.41,182.13 386.69,182.13 389.96,182.13 393.24,182.13 396.51,182.13 399.78,182.13 403.06,182.13 406.33,182.13 409.61,182.13 412.88,182.13 416.15,182.13 419.43,182.13 422.70,182.13 425.98,182.13 429.25,182.13 432.53,182.13 435.80,182.13 439.07,182.13 442.35,176.60 445.62,163.94 448.90,167.16 452.17,162.25 455.44,160.05 458.72,159.65 461.99,160.48 465.27,163.19 468.54,193.48 471.81,186.40 475.09,168.58 478.36,159.94 481.64,174.94 484.91,176.52 488.19,177.97 491.46,227.18 494.73,231.18 498.01,247.38 501.28,264.61 504.56,283.50 507.83,279.45 511.10,261.98 514.38,262.09 517.65,258.47 520.93,260.80 524.20,260.80 527.47,260.80 530.75,260.80 534.02,260.80 537.30,260.80 540.57,260.80 543.85,260.80 547.12,260.80 550.39,260.80 553.67,260.80 556.94,260.80 560.22,260.80 563.49,260.80 566.76,260.80 570.04,260.80 573.31,260.80 576.59,260.80 579.86,260.80 583.14,260.80 586.41,260.80 589.68,260.80 592.96,260.80 596.23,260.80 599.51,260.80 602.78,260.80 606.05,260.80 609.33,260.80 612.60,260.80 615.88,260.80 619.15,260.80 622.42,260.80 625.70,260.80 628.97,260.80 632.25,260.80 635.52,260.80 638.80,260.80 642.07,260.80 645.34,260.80 648.62,260.80 651.89,260.80 655.17,260.80 658.44,260.80 661.71,260.80 664.99,260.80 668.26,260.80 671.54,260.80 674.81,260.80 678.08,260.80 681.36,260.80 684.63,260.80 687.91,260.80 691.18,260.80 694.46,260.80 697.73,260.80 701.00,260.80 704.28,260.80 707.55,260.80 710.83,260.80 714.10,260.80 717.37,260.80 720.65,260.80 723.92,260.80 727.20,260.80 730.47,260.80 733.75,260.80 737.02,260.80 740.29,260.80 743.57,260.80 746.84,260.80 750.12,260.80 753.39,260.80 756.66,260.80 759.94,260.80 763.21,260.80 766.49,260.80 769.76,260.80 773.03,260.80 776.31,260.80 779.58,260.80 782.86,260.80 786.13,260.80 789.41,260.80 792.68,260.80 795.95,260.80 799.23,260.80 802.50,260.80 805.78,260.80 809.05,260.80 812.32,260.80 815.60,260.80 818.87,260.80 822.15,260.80 825.42,260.80 828.69,260.80 831.97,260.80 835.24,265.75 838.52,276.25 841.79,300.98 845.07,300.98 848.34,300.98 851.61,300.98 854.89,300.98 858.16,300.98 861.44,300.98 864.71,300.98 867.98,300.98 871.26,300.98 874.53,300.98 877.81,300.98 881.08,300.98 884.36,300.98 887.63,300.98 890.90,300.98 894.18,300.98 897.45,300.98 900.73,300.98 904.00,300.98" />
<text x="780.00" y="104.00" font-size="14" font-family="Arial" fill="#2ca02c" text-anchor="start">MA20x60</text>
</svg>