<svg xmlns="http://www.w3.org/2000/svg" width="960" height="520" viewBox="0 0 960 520"><rect width="100%" height="100%" fill="white" />
<text x="56.00" y="32.00" font-size="20" font-family="Arial" fill="#1f2933" text-anchor="start">GOOGL Backtest Equity Curves</text>
<line x1="56" y1="464" x2="904" y2="464" stroke="#cbd2d9" />
<line x1="56" y1="56" x2="56" y2="464" stroke="#cbd2d9" />
<text x="16.00" y="38.00" font-size="12" font-family="Arial" fill="#52606d" text-anchor="start">Equity Multiple</text>
<line x1="56" y1="464.00" x2="904" y2="464.00" stroke="#edf2f7" />
<line x1="52" y1="464.00" x2="56" y2="464.00" stroke="#9fb3c8" />
<text x="48.00" y="468.00" font-size="11" font-family="Arial" fill="#52606d" text-anchor="end">0.84</text>
<line x1="56" y1="362.00" x2="904" y2="362.00" stroke="#edf2f7" />
<line x1="52" y1="362.00" x2="56" y2="362.00" stroke="#9fb3c8" />
<text x="48.00" y="366.00" font-size="11" font-family="Arial" fill="#52606d" text-anchor="end">1.24</text>
<line x1="56" y1="260.00" x2="904" y2="260.00" stroke="#edf2f7" />
<line x1="52" y1="260.00" x2="56" y2="260.00" stroke="#9fb3c8" />
<text x="48.00" y="264.00" font-size="11" font-family="Arial" fill="#52606d" text-anchor="end">1.63</text>
<line x1="56" y1="158.00" x2="904" y2="158.00" stroke="#edf2f7" />
<line x1="52" y1="158.00" x2="56" y2="158.00" stroke="#9fb3c8" />
<text x="48.00" y="162.00" font-size="11" font-family="Arial" fill="#52606d" text-anchor="end">2.02</text>
<line x1="56" y1="56.00" x2="904" y2="56.00" stroke="#edf2f7" />
<line x1="52" y1="56.00" x2="56" y2="56.00" stroke="#9fb3c8" />
<text x="48.00" y="60.00" font-size="11" font-family="Arial" fill="#52606d" text-anchor="end">2.41</text>
<line x1="56.00" y1="464" x2="56.00" y2="468" stroke="#9fb3c8" />
<text x="56.00" y="482.00" font-size="11" font-family="Arial" fill="#52606d" text-anchor="middle">06/26</text>
<line x1="226.25" y1="464" x2="226.25" y2="468" stroke="#9fb3c8" />
<text x="226.25" y="482.00" font-size="11" font-family="Arial" fill="#52606d" text-anchor="middle">09/10</text>
<line x1="396.51" y1="464" x2="396.51" y2="468" stroke="#9fb3c8" />
<text x="396.51" y="482.00" font-size="11" font-family="Arial" fill="#52606d" text-anchor="middle">11/21</text>
<line x1="563.49" y1="464" x2="563.49" y2="468" stroke="#9fb3c8" />
<text x="563.49" y="482.00" font-size="11" font-family="Arial" fill="#52606d" text-anchor="middle">02/06</text>
<line x1="733.75" y1="464" x2="733.75" y2="468" stroke="#9fb3c8" />
<text x="733.75" y="482.00" font-size="11" font-family="Arial" fill="#52606d" text-anchor="middle">04/23</text>
<line x1="904.00" y1="464" x2="904.00" y2="468" stroke="#9fb3c8" />
<text x="904.00" y="482.00" font-size="11" font-family="Arial" fill="#52606d" text-anchor="middle">07/09</text>
<polyline fill="none" stroke="#7f7f7f" stroke-width="2" points="56.00,423.56 59.27,416.06 62.55,419.51 65.82,420.10 69.10,415.89 72.37,414.55 75.64,418.67 78.92,422.32 82.19,418.93 85.47,417.42 88.74,413.56 92.02,411.50 95.29,410.84 98.56,409.38 101.84,408.46 105.11,406.24 108.39,398.66 111.66,396.80 114.93,398.47 118.21,395.55 121.48,394.03 124.76,394.94 128.03,390.17 131.31,389.00 134.58,395.96 137.85,400.12 141.13,391.24 144.40,391.80 147.68,389.66 150.95,389.01 154.22,381.65 157.50,382.28 160.77,378.76 164.05,380.84 167.32,379.36 170.59,377.92 173.87,378.52 177.14,381.42 180.42,384.81 183.69,384.16 186.97,374.63 190.24,371.02 193.51,373.05 196.79,372.54 200.06,366.29 203.34,364.38 206.61,366.72 209.88,337.70 213.16,335.23 216.43,331.17 219.71,332.30 222.98,323.89 226.25,324.58 229.53,322.78 232.80,322.13 236.08,305.87 239.35,306.55 242.63,309.00 245.90,305.24 249.17,301.19 252.45,304.49 255.72,305.79 259.00,312.59 262.27,314.63 265.54,313.50 268.82,317.24 272.09,318.67 275.37,315.96 278.64,314.78 281.92,315.29 285.19,307.64 288.46,314.67 291.74,316.39 295.01,321.03 298.29,328.50 301.56,317.09 304.83,315.14 308.11,306.74 311.38,306.09 314.66,303.33 317.93,298.44 321.20,307.60 324.48,305.75 327.75,303.66 331.03,293.37 334.30,279.30 337.58,282.01 340.85,271.33 344.12,260.93 347.40,261.37 350.67,257.56 353.95,266.86 357.22,256.67 360.49,256.01 363.77,264.92 367.04,247.96 370.32,246.14 373.59,253.06 376.86,265.31 380.14,268.56 383.41,255.61 386.69,256.72 389.96,243.89 393.24,248.94 396.51,233.58 399.78,205.12 403.06,197.80 406.33,203.05 409.61,202.71 412.88,210.67 416.15,209.28 419.43,203.54 422.70,206.56 425.98,201.07 429.25,212.12 432.53,207.06 435.80,202.35 439.07,214.06 442.35,218.79 445.62,220.40 448.90,222.88 452.17,237.71 455.44,229.07 458.72,221.99 461.99,218.05 465.27,211.17 468.54,211.56 471.81,212.43 475.09,212.36 478.36,211.92 481.64,213.20 484.91,209.97 488.19,207.87 491.46,211.18 494.73,199.68 498.01,194.47 501.28,189.76 504.56,184.81 507.83,178.62 511.10,178.82 514.38,183.42 517.65,187.61 520.93,199.65 524.20,190.05 527.47,186.80 530.75,190.73 534.02,182.70 537.30,180.76 540.57,178.56 543.85,175.19 547.12,175.57 550.39,167.00 553.67,172.99 556.94,183.03 560.22,185.73 563.49,198.36 566.76,196.16 570.04,204.80 573.31,216.27 576.59,219.22 579.86,224.16 583.14,229.73 586.41,227.76 589.68,228.48 592.96,210.22 596.23,215.48 599.51,216.36 602.78,213.35 606.05,221.66 609.33,215.07 612.60,222.96 615.88,227.38 619.15,228.06 622.42,231.45 625.70,235.00 628.97,222.87 632.25,221.85 635.52,219.35 638.80,227.11 642.07,229.02 645.34,224.08 648.62,216.00 651.89,220.87 655.17,221.71 658.44,230.95 661.71,229.35 664.99,246.86 668.26,246.12 671.54,261.20 674.81,271.11 678.08,272.38 681.36,251.20 684.63,236.39 687.91,238.83 691.18,232.47 694.46,224.23 697.73,206.36 701.00,204.60 704.28,206.48 707.55,200.35 710.83,182.88 714.10,176.53 717.37,178.19 720.65,169.66 723.92,176.08 727.20,183.81 730.47,173.22 733.75,173.87 737.02,165.57 740.29,156.62 743.57,157.46 746.84,157.22 750.12,104.70 753.39,103.36 756.66,107.04 759.94,99.23 763.21,84.76 766.49,84.83 769.76,80.60 773.03,98.92 776.31,100.86 779.58,77.86 782.86,80.19 786.13,86.66 789.41,86.41 792.68,100.39 795.95,98.51 799.23,100.39 802.50,107.46 805.78,98.56 809.05,98.63 812.32,96.67 815.60,111.42 818.87,117.40 822.15,139.28 825.42,143.59 828.69,123.70 831.97,129.21 835.24,136.75 838.52,135.32 841.79,147.20 845.07,145.10 848.34,142.22 851.61,127.65 854.89,121.77 858.16,136.03 861.44,129.64 864.71,157.30 867.98,162.65 871.26,163.91 874.53,166.30 877.81,175.82 881.08,151.31 884.36,145.71 887.63,139.92 890.90,141.88 894.18,132.00 897.45,131.14 900.73,138.85 904.00,143.41" />
<text x="780.00" y="60.00" font-size="14" font-family="Arial" fill="#7f7f7f" text-anchor="start">BuyHold</text>
<polyline fill="none" stroke="#1f77b4" stroke-width="2" points="56.00,423.56 59.27,423.56 62.55,423.56 65.82,423.56 69.10,423.56 72.37,423.56 75.64,423.56 78.92,423.56 82.19,423.56 85.47,423.56 88.74,423.56 92.02,423.56 95.29,423.56 98.56,423.56 101.84,423.56 105.11,423.56 108.39,423.56 111.66,423.56 114.93,423.56 118.21,423.56 121.48,423.56 124.76,423.56 128.03,423.56 131.31,423.56 134.58,423.56 137.85,423.56 141.13,423.56 144.40,423.56 147.68,423.56 150.95,423.56 154.22,423.56 157.50,423.56 160.77,423.56 164.05,423.56 167.32,423.56 170.59,423.56 173.87,423.56 177.14,423.56 180.42,423.56 183.69,423.56 186.97,423.56 190.24,423.56 193.51,423.56 196.79,423.56 200.06,423.56 203.34,423.56 206.61,423.56 209.88,423.56 213.16,423.56 216.43,423.56 219.71,423.56 222.98,423.56 226.25,423.56 229.53,423.56 232.80,423.56 236.08,423.56 239.35,423.56 242.63,423.56 245.90,423.56 249.17,423.56 252.45,423.56 255.72,423.56 259.00,423.56 262.27,423.56 265.54,423.56 268.82,423.56 272.09,423.56 275.37,423.56 278.64,423.56 281.92,423.56 285.19,423.56 288.46,423.56 291.74,423.56 295.01,423.56 298.29,423.56 301.56,423.56 304.83,423.56 308.11,423.56 311.38,423.56 314.66,423.56 317.93,423.56 321.20,423.56 324.48,423.56 327.75,423.56 331.03,423.56 334.30,423.56 337.58,423.56 340.85,423.56 344.12,423.56 347.40,423.56 350.67,423.56 353.95,423.56 357.22,423.56 360.49,423.56 363.77,423.56 367.04,423.56 370.32,423.56 373.59,423.56 376.86,423.56 380.14,423.56 383.41,423.56 386.69,423.56 389.96,423.56 393.24,423.56 396.51,423.56 399.78,423.56 403.06,423.56 406.33,423.56 409.61,423.56 412.88,423.56 416.15,423.56 419.43,423.56 422.70,423.56 425.98,423.56 429.25,423.56 432.53,423.56 435.80,423.56 439.07,423.56 442.35,423.56 445.62,423.56 448.90,423.56 452.17,423.56 455.44,423.56 458.72,423.56 461.99,423.56 465.27,423.56 468.54,423.56 471.81,423.56 475.09,423.56 478.36,423.56 481.64,423.56 484.91,423.56 488.19,423.56 491.46,423.56 494.73,423.56 498.01,423.56 501.28,423.56 504.56,423.56 507.83,423.56 511.10,423.56 514.38,423.56 517.65,423.56 520.93,423.56 524.20,423.56 527.47,423.56 530.75,423.56 534.02,423.56 537.30,423.56 540.57,423.56 543.85,423.56 547.12,423.56 550.39,423.56 553.67,423.56 556.94,423.56 560.22,423.56 563.49,423.56 566.76,423.56 570.04,423.56 573.31,423.56 576.59,423.56 579.86,423.56 583.14,423.56 586.41,423.56 589.68,423.56 592.96,423.56 596.23,423.56 599.51,423.56 602.78,423.56 606.05,423.56 609.33,423.56 612.60,423.56 615.88,423.56 619.15,423.56 622.42,423.56 625.70,423.56 628.97,423.56 632.25,423.56 635.52,423.56 638.80,423.56 642.07,423.56 645.34,423.56 648.62,423.56 651.89,423.56 655.17,423.56 658.44,423.56 661.71,423.56 664.99,423.56 668.26,423.56 671.54,423.56 674.81,423.56 678.08,423.56 681.36,423.56 684.63,423.56 687.91,423.56 691.18,423.56 694.46,423.56 697.73,423.56 701.00,423.56 704.28,423.56 707.55,423.56 710.83,414.14 714.10,410.72 717.37,411.61 720.65,407.02 723.92,410.48 727.20,414.64 730.47,408.93 733.75,409.28 737.02,404.81 740.29,399.99 743.57,400.44 746.84,400.31 750.12,372.01 753.39,371.29 756.66,373.27 759.94,369.07 763.21,361.26 766.49,361.30 769.76,359.02 773.03,368.89 776.31,369.94 779.58,357.55 782.86,358.80 786.13,362.29 789.41,362.16 792.68,369.69 795.95,368.68 799.23,369.69 802.50,373.50 805.78,368.70 809.05,368.74 812.32,367.69 815.60,375.63 818.87,378.86 822.15,390.64 825.42,392.97 828.69,382.25 831.97,385.22 835.24,389.28 838.52,388.51 841.79,394.91 845.07,393.78 848.34,392.23 851.61,384.38 854.89,381.21 858.16,388.89 861.44,385.45 864.71,400.35 867.98,403.24 871.26,403.92 874.53,405.20 877.81,410.34 881.08,397.13 884.36,394.11 887.63,390.99 890.90,392.04 894.18,386.72 897.45,386.26 900.73,390.41 904.00,392.87" />
<text x="780.00" y="82.00" font-size="14" font-family="Arial" fill="#1f77b4" text-anchor="start">MA200</text>
<polyline fill="none" stroke="#2ca02c" stroke-width="2" points="56.00,423.56 59.27,423.56 62.55,423.56 65.82,423.56 69.10,423.56 72.37,423.56 75.64,423.56 78.92,423.56 82.19,423.56 85.47,423.56 88.74,423.56 92.02,423.56 95.29,423.56 98.56,423.56 101.84,423.56 105.11,423.56 108.39,423.56 111.66,423.56 114.93,423.56 118.21,423.56 121.48,423.56 124.76,423.56 128.03,423.56 131.31,423.56 134.58,423.56 137.85,423.56 141.13,423.56 144.40,423.56 147.68,423.56 150.95,423.56 154.22,423.56 157.50,423.56 160.77,423.56 164.05,423.56 167.32,423.56 170.59,423.56 173.87,423.56 177.14,423.56 180.42,423.56 183.69,423.56 186.97,423.56 190.24,423.56 193.51,423.56 196.79,423.56 200.06,423.56 203.34,423.56 206.61,423.56 209.88,423.56 213.16,423.56 216.43,423.56 219.71,423.56 222.98,423.56 226.25,423.56 229.53,423.56 232.80,423.56 236.08,423.56 239.35,423.56 242.63,423.56 245.90,423.56 249.17,423.56 252.45,425.80 255.72,426.69 259.00,431.32 262.27,432.70 265.54,431.93 268.82,434.48 272.09,435.46 275.37,433.61 278.64,432.80 281.92,433.15 285.19,427.95 288.46,432.73 291.74,433.90 295.01,437.06 298.29,442.14 301.56,434.38 304.83,433.05 308.11,427.33 311.38,426.89 314.66,425.01 317.93,421.68 321.20,427.92 324.48,426.66 327.75,425.24 331.03,418.23 334.30,408.66 337.58,410.50 340.85,403.23 344.12,396.15 347.40,396.45 350.67,393.86 353.95,400.19 357.22,393.25 360.49,392.80 363.77,398.87 367.04,387.32 370.32,386.09 373.59,390.80 376.86,399.13 380.14,401.34 383.41,392.53 386.69,393.28 389.96,384.55 393.24,387.99 396.51,377.53 399.78,358.16 403.06,353.18 406.33,356.76 409.61,356.52 412.88,361.94 416.15,361.00 419.43,357.08 422.70,359.14 425.98,355.40 429.25,362.93 432.53,359.48 435.80,356.28 439.07,364.25 442.35,367.47 445.62,368.56 448.90,370.25 452.17,380.35 455.44,374.46 458.72,369.65 461.99,366.96 465.27,362.28 468.54,362.55 471.81,363.14 475.09,363.09 478.36,362.79 481.64,363.66 484.91,361.46 488.19,360.04 491.46,362.29 494.73,354.46 498.01,350.92 501.28,347.71 504.56,344.34 507.83,340.13 511.10,340.26 514.38,343.39 517.65,346.24 520.93,354.44 524.20,347.90 527.47,345.69 530.75,348.36 534.02,342.90 537.30,341.58 540.57,340.08 543.85,337.79 547.12,338.04 550.39,332.21 553.67,336.29 556.94,343.13 560.22,344.96 563.49,353.56 566.76,352.06 570.04,357.95 573.31,365.75 576.59,367.76 579.86,371.12 583.14,374.92 586.41,373.57 589.68,374.06 592.96,361.63 596.23,365.21 599.51,365.82 602.78,363.77 606.05,369.42 609.33,369.42 612.60,369.42 615.88,369.42 619.15,369.42 622.42,369.42 625.70,369.42 628.97,369.42 632.25,369.42 635.52,369.42 638.80,369.42 642.07,369.42 645.34,369.42 648.62,369.42 651.89,369.42 655.17,369.42 658.44,369.42 661.71,369.42 664.99,369.42 668.26,369.42 671.54,369.42 674.81,369.42 678.08,369.42 681.36,369.42 684.63,369.42 687.91,369.42 691.18,369.42 694.46,369.42 697.73,369.42 701.00,369.42 704.28,369.42 707.55,369.42 710.83,369.42 714.10,369.42 717.37,369.42 720.65,369.42 723.92,369.42 727.20,369.42 730.47,369.42 733.75,369.42 737.02,364.30 740.29,358.78 743.57,359.30 746.84,359.15 750.12,326.75 753.39,325.92 756.66,328.19 759.94,323.38 763.21,314.44 766.49,314.49 769.76,311.88 773.03,323.18 776.31,324.38 779.58,310.19 782.86,311.63 786.13,315.62 789.41,315.47 792.68,324.09 795.95,322.93 799.23,324.09 802.50,328.45 805.78,322.96 809.05,323.01 812.32,321.80 815.60,330.90 818.87,334.59 822.15,348.08 825.42,350.74 828.69,338.47 831.97,341.87 835.24,346.52 838.52,345.64 841.79,352.97 845.07,351.68 848.34,349.90 851.61,340.91 854.89,337.28 858.16,346.08 861.44,342.13 864.71,359.20 867.98,362.50 871.26,363.28 874.53,364.75 877.81,370.63 881.08,355.51 884.36,355.51 887.63,355.51 890.90,355.51 894.18,355.51 897.45,355.51 900.73,355.51 904.00,355.51" />
<text x="780.00" y="104.00" font-size="14" font-family="Arial" fill="#2ca02c" text-anchor="start">MA20x60</text>
</svg>