<svg xmlns="http://www.w3.org/2000/svg" width="960" height="520" viewBox="0 0 960 520"><rect width="100%" height="100%" fill="white" />
<text x="56.00" y="32.00" font-size="20" font-family="Arial" fill="#1f2933" text-anchor="start">GOOGL Backtest Equity Curves</text>
<line x1="56" y1="464" x2="904" y2="464" stroke="#cbd2d9" />
<line x1="56" y1="56" x2="56" y2="464" stroke="#cbd2d9" />
<text x="16.00" y="38.00" font-size="12" font-family="Arial" fill="#52606d" text-anchor="start">Equity Multiple</text>
<line x1="56" y1="464.00" x2="904" y2="464.00" stroke="#edf2f7" />
<line x1="52" y1="464.00" x2="56" y2="464.00" stroke="#9fb3c8" />
<text x="48.00" y="468.00" font-size="11" font-family="Arial" fill="#52606d" text-anchor="end">0.88</text>
<line x1="56" y1="362.00" x2="904" y2="362.00" stroke="#edf2f7" />
<line x1="52" y1="362.00" x2="56" y2="362.00" stroke="#9fb3c8" />
<text x="48.00" y="366.00" font-size="11" font-family="Arial" fill="#52606d" text-anchor="end">1.25</text>
<line x1="56" y1="260.00" x2="904" y2="260.00" stroke="#edf2f7" />
<line x1="52" y1="260.00" x2="56" y2="260.00" stroke="#9fb3c8" />
<text x="48.00" y="264.00" font-size="11" font-family="Arial" fill="#52606d" text-anchor="end">1.61</text>
<line x1="56" y1="158.00" x2="904" y2="158.00" stroke="#edf2f7" />
<line x1="52" y1="158.00" x2="56" y2="158.00" stroke="#9fb3c8" />
<text x="48.00" y="162.00" font-size="11" font-family="Arial" fill="#52606d" text-anchor="end">1.97</text>
<line x1="56" y1="56.00" x2="904" y2="56.00" stroke="#edf2f7" />
<line x1="52" y1="56.00" x2="56" y2="56.00" stroke="#9fb3c8" />
<text x="48.00" y="60.00" font-size="11" font-family="Arial" fill="#52606d" text-anchor="end">2.34</text>
<line x1="56.00" y1="464" x2="56.00" y2="468" stroke="#9fb3c8" />
<text x="56.00" y="482.00" font-size="11" font-family="Arial" fill="#52606d" text-anchor="middle">07/02</text>
<line x1="226.25" y1="464" x2="226.25" y2="468" stroke="#9fb3c8" />
<text x="226.25" y="482.00" font-size="11" font-family="Arial" fill="#52606d" text-anchor="middle">09/16</text>
<line x1="396.51" y1="464" x2="396.51" y2="468" stroke="#9fb3c8" />
<text x="396.51" y="482.00" font-size="11" font-family="Arial" fill="#52606d" text-anchor="middle">11/28</text>
<line x1="563.49" y1="464" x2="563.49" y2="468" stroke="#9fb3c8" />
<text x="563.49" y="482.00" font-size="11" font-family="Arial" fill="#52606d" text-anchor="middle">02/12</text>
<line x1="733.75" y1="464" x2="733.75" y2="468" stroke="#9fb3c8" />
<text x="733.75" y="482.00" font-size="11" font-family="Arial" fill="#52606d" text-anchor="middle">04/29</text>
<line x1="904.00" y1="464" x2="904.00" y2="468" stroke="#9fb3c8" />
<text x="904.00" y="482.00" font-size="11" font-family="Arial" fill="#52606d" text-anchor="middle">07/15</text>
<polyline fill="none" stroke="#7f7f7f" stroke-width="2" points="56.00,431.60 59.27,430.20 62.55,434.51 65.82,438.33 69.10,434.78 72.37,433.21 75.64,429.16 78.92,427.01 82.19,426.32 85.47,424.79 88.74,423.83 92.02,421.50 95.29,413.58 98.56,411.63 101.84,413.37 105.11,410.32 108.39,408.73 111.66,409.67 114.93,404.69 118.21,403.46 121.48,410.74 124.76,415.10 128.03,405.81 131.31,406.39 134.58,404.15 137.85,403.48 141.13,395.77 144.40,396.43 147.68,392.75 150.95,394.92 154.22,393.38 157.50,391.87 160.77,392.50 164.05,395.53 167.32,399.07 170.59,398.40 173.87,388.42 177.14,384.65 180.42,386.77 183.69,386.24 186.97,379.69 190.24,377.70 193.51,380.15 196.79,349.78 200.06,347.20 203.34,342.95 206.61,344.13 209.88,335.33 213.16,336.05 216.43,334.16 219.71,333.49 222.98,316.47 226.25,317.18 229.53,319.74 232.80,315.81 236.08,311.57 239.35,315.02 242.63,316.39 245.90,323.50 249.17,325.63 252.45,324.45 255.72,328.37 259.00,329.87 262.27,327.03 265.54,325.79 268.82,326.32 272.09,318.33 275.37,325.68 278.64,327.47 281.92,332.34 285.19,340.15 288.46,328.21 291.74,326.17 295.01,317.38 298.29,316.70 301.56,313.81 304.83,308.69 308.11,318.28 311.38,316.34 314.66,314.15 317.93,303.38 321.20,288.66 324.48,291.50 327.75,280.32 331.03,269.44 334.30,269.90 337.58,265.91 340.85,275.64 344.12,264.98 347.40,264.29 350.67,273.61 353.95,255.87 357.22,253.96 360.49,261.21 363.77,274.02 367.04,277.42 370.32,263.87 373.59,265.03 376.86,251.60 380.14,256.89 383.41,240.82 386.69,211.03 389.96,203.38 393.24,208.87 396.51,208.51 399.78,216.84 403.06,215.39 406.33,209.38 409.61,212.54 412.88,206.80 416.15,218.36 419.43,213.07 422.70,208.13 425.98,220.39 429.25,225.34 432.53,227.02 435.80,229.62 439.07,245.14 442.35,236.10 445.62,228.69 448.90,224.57 452.17,217.37 455.44,217.78 458.72,218.69 461.99,218.61 465.27,218.15 468.54,219.49 471.81,216.11 475.09,213.92 478.36,217.38 481.64,205.35 484.91,199.89 488.19,194.96 491.46,189.78 494.73,183.31 498.01,183.51 501.28,188.33 504.56,192.71 507.83,205.31 511.10,195.26 514.38,191.86 517.65,195.97 520.93,187.57 524.20,185.54 527.47,183.24 530.75,179.71 534.02,180.11 537.30,171.14 540.57,177.41 543.85,187.92 547.12,190.74 550.39,203.96 553.67,201.66 556.94,210.70 560.22,222.71 563.49,225.79 566.76,230.96 570.04,236.79 573.31,234.73 576.59,235.48 579.86,216.37 583.14,221.87 586.41,222.80 589.68,219.65 592.96,228.35 596.23,221.45 599.51,229.70 602.78,234.33 606.05,235.04 609.33,238.59 612.60,242.31 615.88,229.61 619.15,228.54 622.42,225.92 625.70,234.04 628.97,236.05 632.25,230.88 635.52,222.43 638.80,227.52 642.07,228.40 645.34,238.06 648.62,236.39 651.89,254.71 655.17,253.94 658.44,269.72 661.71,280.09 664.99,281.42 668.26,259.25 671.54,243.76 674.81,246.31 678.08,239.66 681.36,231.03 684.63,212.34 687.91,210.49 691.18,212.46 694.46,206.04 697.73,187.76 701.00,181.12 704.28,182.85 707.55,173.93 710.83,180.65 714.10,188.73 717.37,177.65 720.65,178.33 723.92,169.64 727.20,160.28 730.47,161.16 733.75,160.91 737.02,105.95 740.29,104.55 743.57,108.39 746.84,100.23 750.12,85.08 753.39,85.16 756.66,80.73 759.94,99.90 763.21,101.93 766.49,77.86 769.76,80.30 773.03,87.06 776.31,86.81 779.58,101.44 782.86,99.47 786.13,101.44 789.41,108.84 792.68,99.52 795.95,99.60 799.23,97.55 802.50,112.98 805.78,119.24 809.05,142.13 812.32,146.64 815.60,125.83 818.87,131.60 822.15,139.49 825.42,137.99 828.69,150.42 831.97,148.23 835.24,145.21 838.52,129.96 841.79,123.81 845.07,138.73 848.34,132.04 851.61,160.99 854.89,166.59 858.16,167.91 861.44,170.41 864.71,180.38 867.98,154.73 871.26,148.86 874.53,142.80 877.81,144.85 881.08,134.52 884.36,133.62 887.63,141.68 890.90,146.46 894.18,149.16 897.45,156.53 900.73,145.48 904.00,127.48" />
<text x="780.00" y="60.00" font-size="14" font-family="Arial" fill="#7f7f7f" text-anchor="start">BuyHold</text>
<polyline fill="none" stroke="#1f77b4" stroke-width="2" points="56.00,431.60 59.27,431.60 62.55,431.60 65.82,431.60 69.10,431.60 72.37,431.60 75.64,431.60 78.92,431.60 82.19,431.60 85.47,431.60 88.74,431.60 92.02,431.60 95.29,431.60 98.56,431.60 101.84,431.60 105.11,431.60 108.39,431.60 111.66,431.60 114.93,431.60 118.21,431.60 121.48,431.60 124.76,431.60 128.03,431.60 131.31,431.60 134.58,431.60 137.85,431.60 141.13,431.60 144.40,431.60 147.68,431.60 150.95,431.60 154.22,431.60 157.50,431.60 160.77,431.60 164.05,431.60 167.32,431.60 170.59,431.60 173.87,431.60 177.14,431.60 180.42,431.60 183.69,431.60 186.97,431.60 190.24,431.60 193.51,431.60 196.79,431.60 200.06,431.60 203.34,431.60 206.61,431.60 209.88,431.60 213.16,431.60 216.43,431.60 219.71,431.60 222.98,431.60 226.25,431.60 229.53,431.60 232.80,431.60 236.08,431.60 239.35,431.60 242.63,431.60 245.90,431.60 249.17,431.60 252.45,431.60 255.72,431.60 259.00,431.60 262.27,431.60 265.54,431.60 268.82,431.60 272.09,431.60 275.37,431.60 278.64,431.60 281.92,431.60 285.19,431.60 288.46,431.60 291.74,431.60 295.01,431.60 298.29,431.60 301.56,431.60 304.83,431.60 308.11,431.60 311.38,431.60 314.66,431.60 317.93,431.60 321.20,431.60 324.48,431.60 327.75,431.60 331.03,431.60 334.30,431.60 337.58,431.60 340.85,431.60 344.12,431.60 347.40,431.60 350.67,431.60 353.95,431.60 357.22,431.60 360.49,431.60 363.77,431.60 367.04,431.60 370.32,431.60 373.59,431.60 376.86,431.60 380.14,431.60 383.41,431.60 386.69,431.60 389.96,431.60 393.24,431.60 396.51,431.60 399.78,431.60 403.06,431.60 406.33,431.60 409.61,431.60 412.88,431.60 416.15,431.60 419.43,431.60 422.70,431.60 425.98,431.60 429.25,431.60 432.53,431.60 435.80,431.60 439.07,431.60 442.35,431.60 445.62,431.60 448.90,431.60 452.17,431.60 455.44,431.60 458.72,431.60 461.99,431.60 465.27,431.60 468.54,431.60 471.81,431.60 475.09,431.60 478.36,431.60 481.64,431.60 484.91,431.60 488.19,431.60 491.46,431.60 494.73,431.60 498.01,431.60 501.28,431.60 504.56,431.60 507.83,431.60 511.10,431.60 514.38,431.60 517.65,431.60 520.93,431.60 524.20,431.60 527.47,431.60 530.75,431.60 534.02,431.60 537.30,431.60 540.57,431.60 543.85,431.60 547.12,431.60 550.39,431.60 553.67,431.60 556.94,431.60 560.22,431.60 563.49,431.60 566.76,431.60 570.04,431.60 573.31,431.60 576.59,431.60 579.86,431.60 583.14,431.60 586.41,431.60 589.68,431.60 592.96,431.60 596.23,431.60 599.51,431.60 602.78,431.60 606.05,431.60 609.33,431.60 612.60,431.60 615.88,431.60 619.15,431.60 622.42,431.60 625.70,431.60 628.97,431.60 632.25,431.60 635.52,431.60 638.80,431.60 642.07,431.60 645.34,431.60 648.62,431.60 651.89,431.60 655.17,431.60 658.44,431.60 661.71,431.60 664.99,431.60 668.26,431.60 671.54,431.60 674.81,431.60 678.08,431.60 681.36,431.60 684.63,431.60 687.91,431.60 691.18,431.60 694.46,431.60 697.73,431.60 701.00,431.60 704.28,431.60 707.55,431.60 710.83,435.11 714.10,439.32 717.37,433.54 720.65,433.90 723.92,429.37 727.20,424.48 730.47,424.94 733.75,424.81 737.02,396.14 740.29,395.41 743.57,397.41 746.84,393.15 750.12,385.25 753.39,385.29 756.66,382.98 759.94,392.98 763.21,394.04 766.49,381.49 769.76,382.76 773.03,386.29 776.31,386.16 779.58,393.79 782.86,392.76 786.13,393.79 789.41,397.65 792.68,392.78 795.95,392.83 799.23,391.76 802.50,399.81 805.78,403.07 809.05,415.01 812.32,417.37 815.60,406.51 818.87,409.52 822.15,413.64 825.42,412.85 828.69,419.34 831.97,418.19 835.24,416.62 838.52,408.66 841.79,405.46 845.07,413.24 848.34,409.75 851.61,424.85 854.89,427.77 858.16,428.46 861.44,429.76 864.71,434.96 867.98,421.58 871.26,418.52 874.53,415.36 877.81,416.43 881.08,411.04 884.36,410.57 887.63,414.78 890.90,417.27 894.18,418.68 897.45,422.52 900.73,416.76 904.00,407.37" />
<text x="780.00" y="82.00" font-size="14" font-family="Arial" fill="#1f77b4" text-anchor="start">MA200</text>
<polyline fill="none" stroke="#2ca02c" stroke-width="2" points="56.00,431.60 59.27,431.60 62.55,431.60 65.82,431.60 69.10,431.60 72.37,431.60 75.64,431.60 78.92,431.60 82.19,431.60 85.47,431.60 88.74,431.60 92.02,431.60 95.29,431.60 98.56,431.60 101.84,431.60 105.11,431.60 108.39,431.60 111.66,431.60 114.93,431.60 118.21,431.60 121.48,431.60 124.76,431.60 128.03,431.60 131.31,431.60 134.58,431.60 137.85,431.60 141.13,431.60 144.40,431.60 147.68,431.60 150.95,431.60 154.22,431.60 157.50,431.60 160.77,431.60 164.05,431.60 167.32,431.60 170.59,431.60 173.87,431.60 177.14,431.60 180.42,431.60 183.69,431.60 186.97,431.60 190.24,431.60 193.51,431.60 196.79,431.60 200.06,431.60 203.34,431.60 206.61,431.60 209.88,431.60 213.16,431.60 216.43,431.60 219.71,431.60 222.98,431.60 226.25,431.60 229.53,431.60 232.80,431.60 236.08,431.60 239.35,431.60 242.63,431.60 245.90,431.60 249.17,431.60 252.45,430.74 255.72,433.59 259.00,434.68 262.27,432.62 265.54,431.72 268.82,432.11 272.09,426.30 275.37,431.64 278.64,432.94 281.92,436.47 285.19,442.14 288.46,433.48 291.74,431.99 295.01,425.61 298.29,425.12 301.56,423.02 304.83,419.30 308.11,426.26 311.38,424.86 314.66,423.27 317.93,415.45 321.20,404.76 324.48,406.82 327.75,398.70 331.03,390.80 334.30,391.13 337.58,388.24 340.85,395.30 344.12,387.56 347.40,387.06 350.67,393.83 353.95,380.94 357.22,379.56 360.49,384.82 363.77,394.13 367.04,396.60 370.32,386.75 373.59,387.60 376.86,377.85 380.14,381.69 383.41,370.02 386.69,348.39 389.96,342.83 393.24,346.82 396.51,346.56 399.78,352.60 403.06,351.55 406.33,347.18 409.61,349.48 412.88,345.31 416.15,353.71 419.43,349.86 422.70,346.28 425.98,355.18 429.25,358.77 432.53,360.00 435.80,361.89 439.07,373.15 442.35,366.59 445.62,361.21 448.90,358.21 452.17,352.99 455.44,353.28 458.72,353.95 461.99,353.89 465.27,353.56 468.54,354.53 471.81,352.07 475.09,350.48 478.36,353.00 481.64,344.26 484.91,340.30 488.19,336.72 491.46,332.95 494.73,328.25 498.01,328.40 501.28,331.90 504.56,335.08 507.83,344.23 511.10,336.94 514.38,334.46 517.65,337.45 520.93,331.35 524.20,329.88 527.47,328.21 530.75,325.64 534.02,325.93 537.30,319.42 540.57,323.97 543.85,331.60 547.12,333.65 550.39,343.25 553.67,341.58 556.94,348.15 560.22,356.86 563.49,359.11 566.76,362.86 570.04,367.09 573.31,365.59 576.59,366.14 579.86,352.27 583.14,356.26 586.41,356.93 589.68,354.65 592.96,360.96 596.23,360.96 599.51,360.96 602.78,360.96 606.05,360.96 609.33,360.96 612.60,360.96 615.88,360.96 619.15,360.96 622.42,360.96 625.70,360.96 628.97,360.96 632.25,360.96 635.52,360.96 638.80,360.96 642.07,360.96 645.34,360.96 648.62,360.96 651.89,360.96 655.17,360.96 658.44,360.96 661.71,360.96 664.99,360.96 668.26,360.96 671.54,360.96 674.81,360.96 678.08,360.96 681.36,360.96 684.63,360.96 687.91,360.96 691.18,360.96 694.46,360.96 697.73,360.96 701.00,360.96 704.28,360.96 707.55,360.96 710.83,360.96 714.10,360.96 717.37,360.96 720.65,360.96 723.92,355.24 727.20,349.08 730.47,349.66 733.75,349.49 737.02,313.32 740.29,312.40 743.57,314.93 746.84,309.56 750.12,299.58 753.39,299.64 756.66,296.72 759.94,309.34 763.21,310.68 766.49,294.83 769.76,296.44 773.03,300.89 776.31,300.73 779.58,310.35 782.86,309.06 786.13,310.35 789.41,315.22 792.68,309.09 795.95,309.14 799.23,307.79 802.50,317.95 805.78,322.07 809.05,337.14 812.32,340.10 815.60,326.41 818.87,330.20 822.15,335.40 825.42,334.41 828.69,342.59 831.97,341.15 835.24,339.16 838.52,329.12 841.79,325.08 845.07,334.90 848.34,330.50 851.61,349.55 854.89,353.23 858.16,354.11 861.44,355.75 864.71,362.31 867.98,345.43 871.26,345.43 874.53,345.43 877.81,345.43 881.08,345.43 884.36,345.43 887.63,345.43 890.90,345.43 894.18,345.43 897.45,345.43 900.73,345.43 904.00,345.43" />
<text x="780.00" y="104.00" font-size="14" font-family="Arial" fill="#2ca02c" text-anchor="start">MA20x60</text>
</svg>