<svg xmlns="http://www.w3.org/2000/svg" width="960" height="520" viewBox="0 0 960 520"><rect width="100%" height="100%" fill="white" />
<text x="56.00" y="32.00" font-size="20" font-family="Arial" fill="#1f2933" text-anchor="start">INTC Backtest Equity Curves</text>
<line x1="56" y1="464" x2="904" y2="464" stroke="#cbd2d9" />
<line x1="56" y1="56" x2="56" y2="464" stroke="#cbd2d9" />
<text x="16.00" y="38.00" font-size="12" font-family="Arial" fill="#52606d" text-anchor="start">Equity Multiple</text>
<line x1="56" y1="464.00" x2="904" y2="464.00" stroke="#edf2f7" />
<line x1="52" y1="464.00" x2="56" y2="464.00" stroke="#9fb3c8" />
<text x="48.00" y="468.00" font-size="11" font-family="Arial" fill="#52606d" text-anchor="end">0.53</text>
<line x1="56" y1="362.00" x2="904" y2="362.00" stroke="#edf2f7" />
<line x1="52" y1="362.00" x2="56" y2="362.00" stroke="#9fb3c8" />
<text x="48.00" y="366.00" font-size="11" font-family="Arial" fill="#52606d" text-anchor="end">2.03</text>
<line x1="56" y1="260.00" x2="904" y2="260.00" stroke="#edf2f7" />
<line x1="52" y1="260.00" x2="56" y2="260.00" stroke="#9fb3c8" />
<text x="48.00" y="264.00" font-size="11" font-family="Arial" fill="#52606d" text-anchor="end">3.53</text>
<line x1="56" y1="158.00" x2="904" y2="158.00" stroke="#edf2f7" />
<line x1="52" y1="158.00" x2="56" y2="158.00" stroke="#9fb3c8" />
<text x="48.00" y="162.00" font-size="11" font-family="Arial" fill="#52606d" text-anchor="end">5.03</text>
<line x1="56" y1="56.00" x2="904" y2="56.00" stroke="#edf2f7" />
<line x1="52" y1="56.00" x2="56" y2="56.00" stroke="#9fb3c8" />
<text x="48.00" y="60.00" font-size="11" font-family="Arial" fill="#52606d" text-anchor="end">6.53</text>
<line x1="56.00" y1="464" x2="56.00" y2="468" stroke="#9fb3c8" />
<text x="56.00" y="482.00" font-size="11" font-family="Arial" fill="#52606d" text-anchor="middle">06/27</text>
<line x1="226.25" y1="464" x2="226.25" y2="468" stroke="#9fb3c8" />
<text x="226.25" y="482.00" font-size="11" font-family="Arial" fill="#52606d" text-anchor="middle">09/11</text>
<line x1="396.51" y1="464" x2="396.51" y2="468" stroke="#9fb3c8" />
<text x="396.51" y="482.00" font-size="11" font-family="Arial" fill="#52606d" text-anchor="middle">11/24</text>
<line x1="563.49" y1="464" x2="563.49" y2="468" stroke="#9fb3c8" />
<text x="563.49" y="482.00" font-size="11" font-family="Arial" fill="#52606d" text-anchor="middle">02/09</text>
<line x1="733.75" y1="464" x2="733.75" y2="468" stroke="#9fb3c8" />
<text x="733.75" y="482.00" font-size="11" font-family="Arial" fill="#52606d" text-anchor="middle">04/24</text>
<line x1="904.00" y1="464" x2="904.00" y2="468" stroke="#9fb3c8" />
<text x="904.00" y="482.00" font-size="11" font-family="Arial" fill="#52606d" text-anchor="middle">07/10</text>
<polyline fill="none" stroke="#7f7f7f" stroke-width="2" points="56.00,432.02 59.27,432.89 62.55,431.54 65.82,434.45 69.10,432.62 72.37,434.09 75.64,429.32 78.92,429.77 82.19,428.64 85.47,429.80 88.74,430.19 92.02,431.33 95.29,432.02 98.56,431.69 101.84,430.79 105.11,430.31 108.39,430.37 111.66,429.62 114.93,432.20 118.21,437.98 121.48,438.04 124.76,438.85 128.03,439.06 131.31,440.68 134.58,442.14 137.85,441.57 141.13,439.51 144.40,438.85 147.68,440.77 150.95,440.23 154.22,438.13 157.50,434.66 160.77,433.43 164.05,428.52 167.32,426.42 170.59,429.11 173.87,424.17 177.14,429.47 180.42,429.59 183.69,425.70 186.97,426.45 190.24,427.05 193.51,425.55 196.79,425.31 200.06,427.05 203.34,427.47 206.61,428.10 209.88,426.27 213.16,426.63 216.43,426.66 219.71,426.78 222.98,425.79 226.25,426.27 229.53,427.86 232.80,425.79 236.08,424.29 239.35,425.40 242.63,408.42 245.90,411.38 249.17,413.84 252.45,412.10 255.72,406.47 259.00,398.18 262.27,393.65 265.54,396.71 268.82,399.49 272.09,392.34 275.37,388.26 278.64,389.67 281.92,390.39 285.19,388.65 288.46,387.87 291.74,386.76 295.01,391.05 298.29,388.50 301.56,393.26 304.83,388.71 308.11,389.64 311.38,389.13 314.66,385.87 317.93,385.81 321.20,389.40 324.48,385.69 327.75,385.33 331.03,381.55 334.30,375.59 337.58,376.16 340.85,379.70 344.12,380.21 347.40,381.67 350.67,389.07 353.95,385.03 357.22,388.44 360.49,385.78 363.77,384.82 367.04,386.53 370.32,386.50 373.59,392.43 376.86,393.59 380.14,396.02 383.41,397.16 386.69,394.82 389.96,399.28 393.24,396.65 396.51,392.78 399.78,392.66 403.06,389.73 406.33,378.50 409.61,380.15 412.88,369.78 416.15,368.91 419.43,378.68 422.70,375.95 425.98,379.28 429.25,378.68 432.53,377.84 435.80,381.64 439.07,386.73 442.35,387.63 445.62,388.23 448.90,392.01 452.17,391.32 455.44,389.70 458.72,391.05 461.99,391.11 465.27,391.68 468.54,391.56 471.81,390.12 475.09,388.26 478.36,389.46 481.64,382.03 484.91,382.06 488.19,380.06 491.46,372.30 494.73,376.85 498.01,363.55 501.28,368.02 504.56,358.34 507.83,354.06 511.10,355.26 514.38,359.33 517.65,354.54 520.93,337.50 524.20,337.29 527.47,364.99 530.75,372.72 534.02,368.41 537.30,353.88 540.57,354.24 543.85,360.80 547.12,353.79 550.39,352.47 553.67,354.42 556.94,355.50 560.22,348.46 563.49,349.51 566.76,358.82 570.04,355.35 573.31,360.77 576.59,359.84 579.86,361.67 583.14,363.82 586.41,366.34 589.68,367.87 592.96,369.30 596.23,361.85 599.51,359.57 602.78,363.82 606.05,363.37 609.33,363.70 612.60,370.89 615.88,363.46 619.15,362.36 622.42,369.93 625.70,363.46 628.97,359.87 632.25,356.28 635.52,364.45 638.80,362.89 642.07,362.92 645.34,368.02 648.62,365.11 651.89,361.67 655.17,368.58 658.44,368.17 661.71,368.02 664.99,358.67 668.26,367.90 671.54,370.80 674.81,376.61 678.08,367.81 681.36,356.13 684.63,349.09 687.91,347.89 691.18,341.51 694.46,323.42 697.73,315.12 701.00,313.15 704.28,304.76 707.55,308.86 710.83,305.48 714.10,294.82 717.37,294.82 720.65,303.20 723.92,301.53 727.20,304.49 730.47,299.97 733.75,252.77 737.02,245.43 740.29,246.84 743.57,216.20 746.84,217.01 750.12,201.61 753.39,213.11 756.66,176.06 759.94,161.51 763.21,171.66 766.49,125.84 769.76,112.30 773.03,138.75 776.31,139.70 779.58,152.76 782.86,174.21 786.13,176.00 789.41,168.13 792.68,143.69 795.95,145.07 799.23,141.05 802.50,130.03 805.78,135.27 809.05,137.91 812.32,156.51 815.60,172.53 818.87,176.72 822.15,162.41 825.42,165.19 828.69,202.96 831.97,169.71 835.24,176.75 838.52,179.39 841.79,149.68 845.07,126.89 848.34,117.03 851.61,149.41 854.89,137.28 858.16,98.67 861.44,77.86 864.71,103.79 867.98,105.68 871.26,102.03 874.53,115.65 877.81,105.47 881.08,81.78 884.36,119.55 887.63,139.52 890.90,133.98 894.18,169.36 897.45,169.80 900.73,162.92 904.00,171.00" />
<text x="780.00" y="60.00" font-size="14" font-family="Arial" fill="#7f7f7f" text-anchor="start">BuyHold</text>
<polyline fill="none" stroke="#1f77b4" stroke-width="2" points="56.00,432.02 59.27,432.02 62.55,432.02 65.82,432.02 69.10,432.02 72.37,432.02 75.64,432.02 78.92,432.02 82.19,432.02 85.47,432.02 88.74,432.02 92.02,432.02 95.29,432.02 98.56,432.02 101.84,432.02 105.11,432.02 108.39,432.02 111.66,432.02 114.93,432.02 118.21,432.02 121.48,432.02 124.76,432.02 128.03,432.02 131.31,432.02 134.58,432.02 137.85,432.02 141.13,432.02 144.40,432.02 147.68,432.02 150.95,432.02 154.22,432.02 157.50,432.02 160.77,432.02 164.05,432.02 167.32,432.02 170.59,432.02 173.87,432.02 177.14,432.02 180.42,432.02 183.69,432.02 186.97,432.02 190.24,432.02 193.51,432.02 196.79,432.02 200.06,432.02 203.34,432.02 206.61,432.02 209.88,432.02 213.16,432.02 216.43,432.02 219.71,432.02 222.98,432.02 226.25,432.02 229.53,432.02 232.80,432.02 236.08,432.02 239.35,432.02 242.63,432.02 245.90,432.02 249.17,432.02 252.45,432.02 255.72,432.02 259.00,432.02 262.27,432.02 265.54,432.02 268.82,432.02 272.09,432.02 275.37,432.02 278.64,432.02 281.92,432.02 285.19,432.02 288.46,432.02 291.74,432.02 295.01,432.02 298.29,432.02 301.56,432.02 304.83,432.02 308.11,432.02 311.38,432.02 314.66,432.02 317.93,432.02 321.20,432.02 324.48,432.02 327.75,432.02 331.03,432.02 334.30,432.02 337.58,432.02 340.85,432.02 344.12,432.02 347.40,432.02 350.67,432.02 353.95,432.02 357.22,432.02 360.49,432.02 363.77,432.02 367.04,432.02 370.32,432.02 373.59,432.02 376.86,432.02 380.14,432.02 383.41,432.02 386.69,432.02 389.96,432.02 393.24,432.02 396.51,432.02 399.78,432.02 403.06,432.02 406.33,432.02 409.61,432.02 412.88,432.02 416.15,432.02 419.43,432.02 422.70,432.02 425.98,432.02 429.25,432.02 432.53,432.02 435.80,432.02 439.07,432.02 442.35,432.02 445.62,432.02 448.90,432.02 452.17,432.02 455.44,432.02 458.72,432.02 461.99,432.02 465.27,432.02 468.54,432.02 471.81,432.02 475.09,432.02 478.36,432.02 481.64,432.02 484.91,432.02 488.19,432.02 491.46,432.02 494.73,432.02 498.01,432.02 501.28,432.02 504.56,432.02 507.83,432.02 511.10,432.02 514.38,432.02 517.65,432.02 520.93,432.02 524.20,432.02 527.47,432.02 530.75,432.02 534.02,432.02 537.30,432.02 540.57,432.02 543.85,432.02 547.12,432.02 550.39,432.02 553.67,432.02 556.94,432.02 560.22,432.02 563.49,432.02 566.76,432.02 570.04,432.02 573.31,432.02 576.59,432.02 579.86,432.02 583.14,432.02 586.41,432.02 589.68,432.02 592.96,432.02 596.23,432.02 599.51,432.02 602.78,432.02 606.05,432.02 609.33,432.02 612.60,432.02 615.88,432.02 619.15,432.02 622.42,432.02 625.70,432.02 628.97,432.02 632.25,432.02 635.52,432.02 638.80,432.02 642.07,432.02 645.34,432.02 648.62,432.02 651.89,432.02 655.17,432.02 658.44,432.02 661.71,432.02 664.99,432.02 668.26,432.02 671.54,432.02 674.81,432.02 678.08,432.02 681.36,432.02 684.63,432.02 687.91,432.02 691.18,432.02 694.46,432.02 697.73,432.02 701.00,432.02 704.28,432.02 707.55,432.02 710.83,430.82 714.10,427.02 717.37,427.02 720.65,430.01 723.92,429.41 727.20,430.46 730.47,428.86 733.75,412.07 737.02,409.46 740.29,409.96 743.57,399.07 746.84,399.36 750.12,393.88 753.39,397.97 756.66,384.80 759.94,379.62 763.21,383.23 766.49,366.94 769.76,362.12 773.03,371.53 776.31,371.87 779.58,376.51 782.86,384.14 786.13,384.78 789.41,381.98 792.68,373.29 795.95,373.78 799.23,372.35 802.50,368.43 805.78,370.29 809.05,371.23 812.32,377.84 815.60,383.54 818.87,385.03 822.15,379.94 825.42,380.93 828.69,394.36 831.97,382.54 835.24,385.04 838.52,385.98 841.79,375.42 845.07,367.31 848.34,363.81 851.61,375.32 854.89,371.01 858.16,357.28 861.44,349.88 864.71,359.10 867.98,359.77 871.26,358.47 874.53,363.32 877.81,359.70 881.08,351.27 884.36,364.70 887.63,371.80 890.90,369.83 894.18,382.41 897.45,382.57 900.73,380.12 904.00,383.00" />
<text x="780.00" y="82.00" font-size="14" font-family="Arial" fill="#1f77b4" text-anchor="start">MA200</text>
<polyline fill="none" stroke="#2ca02c" stroke-width="2" points="56.00,432.02 59.27,432.02 62.55,432.02 65.82,432.02 69.10,432.02 72.37,432.02 75.64,432.02 78.92,432.02 82.19,432.02 85.47,432.02 88.74,432.02 92.02,432.02 95.29,432.02 98.56,432.02 101.84,432.02 105.11,432.02 108.39,432.02 111.66,432.02 114.93,432.02 118.21,432.02 121.48,432.02 124.76,432.02 128.03,432.02 131.31,432.02 134.58,432.02 137.85,432.02 141.13,432.02 144.40,432.02 147.68,432.02 150.95,432.02 154.22,432.02 157.50,432.02 160.77,432.02 164.05,432.02 167.32,432.02 170.59,432.02 173.87,432.02 177.14,432.02 180.42,432.02 183.69,432.02 186.97,432.02 190.24,432.02 193.51,432.02 196.79,432.02 200.06,432.02 203.34,432.02 206.61,432.02 209.88,432.02 213.16,432.02 216.43,432.02 219.71,432.02 222.98,432.02 226.25,432.02 229.53,432.02 232.80,432.02 236.08,432.02 239.35,432.02 242.63,432.02 245.90,432.02 249.17,432.02 252.45,430.65 255.72,426.21 259.00,419.66 262.27,416.09 265.54,418.50 268.82,420.70 272.09,415.05 275.37,411.84 278.64,412.95 281.92,413.52 285.19,412.15 288.46,411.53 291.74,410.66 295.01,414.04 298.29,412.03 301.56,415.79 304.83,412.19 308.11,412.93 311.38,412.53 314.66,409.95 317.93,409.90 321.20,412.74 324.48,409.81 327.75,409.52 331.03,406.55 334.30,401.85 337.58,402.29 340.85,405.08 344.12,405.48 347.40,406.64 350.67,412.48 353.95,409.29 357.22,411.98 360.49,409.88 363.77,409.12 367.04,410.47 370.32,410.45 373.59,415.12 376.86,416.05 380.14,417.96 383.41,418.86 386.69,417.02 389.96,420.54 393.24,418.46 396.51,415.41 399.78,415.31 403.06,413.00 406.33,404.14 409.61,405.44 412.88,397.26 416.15,396.58 419.43,404.28 422.70,402.13 425.98,404.75 429.25,404.28 432.53,403.62 435.80,406.62 439.07,410.64 442.35,411.34 445.62,411.82 448.90,414.79 452.17,414.25 455.44,412.97 458.72,414.04 461.99,414.09 465.27,414.53 468.54,414.44 471.81,413.31 475.09,411.84 478.36,412.79 481.64,406.93 484.91,406.95 488.19,405.37 491.46,405.37 494.73,405.37 498.01,405.37 501.28,405.37 504.56,398.43 507.83,395.36 511.10,396.22 514.38,399.14 517.65,395.70 520.93,383.48 524.20,383.33 527.47,403.20 530.75,408.74 534.02,405.65 537.30,395.23 540.57,395.49 543.85,400.19 547.12,395.17 550.39,394.22 553.67,395.62 556.94,396.39 560.22,391.34 563.49,392.10 566.76,398.77 570.04,396.28 573.31,400.17 576.59,399.50 579.86,400.81 583.14,402.36 586.41,404.16 589.68,405.26 592.96,406.29 596.23,400.94 599.51,399.31 602.78,402.36 606.05,402.04 609.33,402.27 612.60,407.43 615.88,402.10 619.15,401.31 622.42,406.74 625.70,402.10 628.97,399.53 632.25,396.95 635.52,402.81 638.80,401.69 642.07,401.72 645.34,405.37 648.62,403.28 651.89,400.81 655.17,405.77 658.44,405.47 661.71,405.37 664.99,405.37 668.26,405.37 671.54,405.37 674.81,405.37 678.08,405.37 681.36,405.37 684.63,405.37 687.91,405.37 691.18,405.37 694.46,405.37 697.73,405.37 701.00,404.35 704.28,400.06 707.55,402.16 710.83,400.43 714.10,394.97 717.37,394.97 720.65,399.27 723.92,398.41 727.20,399.92 730.47,397.61 733.75,373.45 737.02,369.70 740.29,370.42 743.57,354.73 746.84,355.15 750.12,347.27 753.39,353.16 756.66,334.19 759.94,326.74 763.21,331.94 766.49,308.49 769.76,301.56 773.03,315.09 776.31,315.58 779.58,322.27 782.86,333.24 786.13,334.16 789.41,330.13 792.68,317.62 795.95,318.33 799.23,316.27 802.50,310.63 805.78,313.32 809.05,314.66 812.32,324.18 815.60,332.38 818.87,334.53 822.15,327.20 825.42,328.63 828.69,347.96 831.97,330.94 835.24,334.55 838.52,335.89 841.79,320.69 845.07,309.02 848.34,303.98 851.61,320.55 854.89,314.34 858.16,294.58 861.44,283.93 864.71,297.20 867.98,298.17 871.26,296.30 874.53,303.27 877.81,298.06 881.08,285.94 884.36,305.27 887.63,315.49 890.90,312.66 894.18,330.76 897.45,330.99 900.73,327.46 904.00,331.60" />
<text x="780.00" y="104.00" font-size="14" font-family="Arial" fill="#2ca02c" text-anchor="start">MA20x60</text>
</svg>