<svg xmlns="http://www.w3.org/2000/svg" width="960" height="520" viewBox="0 0 960 520"><rect width="100%" height="100%" fill="white" />
<text x="56.00" y="32.00" font-size="20" font-family="Arial" fill="#1f2933" text-anchor="start">INTC Backtest Equity Curves</text>
<line x1="56" y1="464" x2="904" y2="464" stroke="#cbd2d9" />
<line x1="56" y1="56" x2="56" y2="464" stroke="#cbd2d9" />
<text x="16.00" y="38.00" font-size="12" font-family="Arial" fill="#52606d" text-anchor="start">Equity Multiple</text>
<line x1="56" y1="464.00" x2="904" y2="464.00" stroke="#edf2f7" />
<line x1="52" y1="464.00" x2="56" y2="464.00" stroke="#9fb3c8" />
<text x="48.00" y="468.00" font-size="11" font-family="Arial" fill="#52606d" text-anchor="end">0.57</text>
<line x1="56" y1="362.00" x2="904" y2="362.00" stroke="#edf2f7" />
<line x1="52" y1="362.00" x2="56" y2="362.00" stroke="#9fb3c8" />
<text x="48.00" y="366.00" font-size="11" font-family="Arial" fill="#52606d" text-anchor="end">2.17</text>
<line x1="56" y1="260.00" x2="904" y2="260.00" stroke="#edf2f7" />
<line x1="52" y1="260.00" x2="56" y2="260.00" stroke="#9fb3c8" />
<text x="48.00" y="264.00" font-size="11" font-family="Arial" fill="#52606d" text-anchor="end">3.78</text>
<line x1="56" y1="158.00" x2="904" y2="158.00" stroke="#edf2f7" />
<line x1="52" y1="158.00" x2="56" y2="158.00" stroke="#9fb3c8" />
<text x="48.00" y="162.00" font-size="11" font-family="Arial" fill="#52606d" text-anchor="end">5.39</text>
<line x1="56" y1="56.00" x2="904" y2="56.00" stroke="#edf2f7" />
<line x1="52" y1="56.00" x2="56" y2="56.00" stroke="#9fb3c8" />
<text x="48.00" y="60.00" font-size="11" font-family="Arial" fill="#52606d" text-anchor="end">7.00</text>
<line x1="56.00" y1="464" x2="56.00" y2="468" stroke="#9fb3c8" />
<text x="56.00" y="482.00" font-size="11" font-family="Arial" fill="#52606d" text-anchor="middle">06/23</text>
<line x1="226.25" y1="464" x2="226.25" y2="468" stroke="#9fb3c8" />
<text x="226.25" y="482.00" font-size="11" font-family="Arial" fill="#52606d" text-anchor="middle">09/05</text>
<line x1="396.51" y1="464" x2="396.51" y2="468" stroke="#9fb3c8" />
<text x="396.51" y="482.00" font-size="11" font-family="Arial" fill="#52606d" text-anchor="middle">11/18</text>
<line x1="563.49" y1="464" x2="563.49" y2="468" stroke="#9fb3c8" />
<text x="563.49" y="482.00" font-size="11" font-family="Arial" fill="#52606d" text-anchor="middle">02/03</text>
<line x1="733.75" y1="464" x2="733.75" y2="468" stroke="#9fb3c8" />
<text x="733.75" y="482.00" font-size="11" font-family="Arial" fill="#52606d" text-anchor="middle">04/20</text>
<line x1="904.00" y1="464" x2="904.00" y2="468" stroke="#9fb3c8" />
<text x="904.00" y="482.00" font-size="11" font-family="Arial" fill="#52606d" text-anchor="middle">07/06</text>
<polyline fill="none" stroke="#7f7f7f" stroke-width="2" points="56.00,436.51 59.27,432.44 62.55,433.49 65.82,432.59 69.10,432.02 72.37,432.89 75.64,431.54 78.92,434.45 82.19,432.62 85.47,434.09 88.74,429.32 92.02,429.77 95.29,428.64 98.56,429.80 101.84,430.19 105.11,431.33 108.39,432.02 111.66,431.69 114.93,430.79 118.21,430.31 121.48,430.37 124.76,429.62 128.03,432.20 131.31,437.98 134.58,438.04 137.85,438.85 141.13,439.06 144.40,440.68 147.68,442.14 150.95,441.57 154.22,439.51 157.50,438.85 160.77,440.77 164.05,440.23 167.32,438.13 170.59,434.66 173.87,433.43 177.14,428.52 180.42,426.42 183.69,429.11 186.97,424.17 190.24,429.47 193.51,429.59 196.79,425.70 200.06,426.45 203.34,427.05 206.61,425.55 209.88,425.31 213.16,427.05 216.43,427.47 219.71,428.10 222.98,426.27 226.25,426.63 229.53,426.66 232.80,426.78 236.08,425.79 239.35,426.27 242.63,427.86 245.90,425.79 249.17,424.29 252.45,425.40 255.72,408.42 259.00,411.38 262.27,413.84 265.54,412.10 268.82,406.47 272.09,398.18 275.37,393.65 278.64,396.71 281.92,399.49 285.19,392.34 288.46,388.26 291.74,389.67 295.01,390.39 298.29,388.65 301.56,387.87 304.83,386.76 308.11,391.05 311.38,388.50 314.66,393.26 317.93,388.71 321.20,389.64 324.48,389.13 327.75,385.87 331.03,385.81 334.30,389.40 337.58,385.69 340.85,385.33 344.12,381.55 347.40,375.59 350.67,376.16 353.95,379.70 357.22,380.21 360.49,381.67 363.77,389.07 367.04,385.03 370.32,388.44 373.59,385.78 376.86,384.82 380.14,386.53 383.41,386.50 386.69,392.43 389.96,393.59 393.24,396.02 396.51,397.16 399.78,394.82 403.06,399.28 406.33,396.65 409.61,392.78 412.88,392.66 416.15,389.73 419.43,378.50 422.70,380.15 425.98,369.78 429.25,368.91 432.53,378.68 435.80,375.95 439.07,379.28 442.35,378.68 445.62,377.84 448.90,381.64 452.17,386.73 455.44,387.63 458.72,388.23 461.99,392.01 465.27,391.32 468.54,389.70 471.81,391.05 475.09,391.11 478.36,391.68 481.64,391.56 484.91,390.12 488.19,388.26 491.46,389.46 494.73,382.03 498.01,382.06 501.28,380.06 504.56,372.30 507.83,376.85 511.10,363.55 514.38,368.02 517.65,358.34 520.93,354.06 524.20,355.26 527.47,359.33 530.75,354.54 534.02,337.50 537.30,337.29 540.57,364.99 543.85,372.72 547.12,368.41 550.39,353.88 553.67,354.24 556.94,360.80 560.22,353.79 563.49,352.47 566.76,354.42 570.04,355.50 573.31,348.46 576.59,349.51 579.86,358.82 583.14,355.35 586.41,360.77 589.68,359.84 592.96,361.67 596.23,363.82 599.51,366.34 602.78,367.87 606.05,369.30 609.33,361.85 612.60,359.57 615.88,363.82 619.15,363.37 622.42,363.70 625.70,370.89 628.97,363.46 632.25,362.36 635.52,369.93 638.80,363.46 642.07,359.87 645.34,356.28 648.62,364.45 651.89,362.89 655.17,362.92 658.44,368.02 661.71,365.11 664.99,361.67 668.26,368.58 671.54,368.17 674.81,368.02 678.08,358.67 681.36,367.90 684.63,370.80 687.91,376.61 691.18,367.81 694.46,356.13 697.73,349.09 701.00,347.89 704.28,341.51 707.55,323.42 710.83,315.12 714.10,313.15 717.37,304.76 720.65,308.86 723.92,305.48 727.20,294.82 730.47,294.82 733.75,303.20 737.02,301.53 740.29,304.49 743.57,299.97 746.84,252.77 750.12,245.43 753.39,246.84 756.66,216.20 759.94,217.01 763.21,201.61 766.49,213.11 769.76,176.06 773.03,161.51 776.31,171.66 779.58,125.84 782.86,112.30 786.13,138.75 789.41,139.70 792.68,152.76 795.95,174.21 799.23,176.00 802.50,168.13 805.78,143.69 809.05,145.07 812.32,141.05 815.60,130.03 818.87,135.27 822.15,137.91 825.42,156.51 828.69,172.53 831.97,176.72 835.24,162.41 838.52,165.19 841.79,202.96 845.07,169.71 848.34,176.75 851.61,179.39 854.89,149.68 858.16,126.89 861.44,117.03 864.71,149.41 867.98,137.28 871.26,98.67 874.53,77.86 877.81,103.79 881.08,105.68 884.36,102.03 887.63,115.65 890.90,105.47 894.18,81.78 897.45,119.55 900.73,139.52 904.00,133.98" />
<text x="780.00" y="60.00" font-size="14" font-family="Arial" fill="#7f7f7f" text-anchor="start">BuyHold</text>
<polyline fill="none" stroke="#1f77b4" stroke-width="2" points="56.00,436.51 59.27,436.51 62.55,436.51 65.82,436.51 69.10,436.51 72.37,436.51 75.64,436.51 78.92,436.51 82.19,436.51 85.47,436.51 88.74,436.51 92.02,436.51 95.29,436.51 98.56,436.51 101.84,436.51 105.11,436.51 108.39,436.51 111.66,436.51 114.93,436.51 118.21,436.51 121.48,436.51 124.76,436.51 128.03,436.51 131.31,436.51 134.58,436.51 137.85,436.51 141.13,436.51 144.40,436.51 147.68,436.51 150.95,436.51 154.22,436.51 157.50,436.51 160.77,436.51 164.05,436.51 167.32,436.51 170.59,436.51 173.87,436.51 177.14,436.51 180.42,436.51 183.69,436.51 186.97,436.51 190.24,436.51 193.51,436.51 196.79,436.51 200.06,436.51 203.34,436.51 206.61,436.51 209.88,436.51 213.16,436.51 216.43,436.51 219.71,436.51 222.98,436.51 226.25,436.51 229.53,436.51 232.80,436.51 236.08,436.51 239.35,436.51 242.63,436.51 245.90,436.51 249.17,436.51 252.45,436.51 255.72,436.51 259.00,436.51 262.27,436.51 265.54,436.51 268.82,436.51 272.09,436.51 275.37,436.51 278.64,436.51 281.92,436.51 285.19,436.51 288.46,436.51 291.74,436.51 295.01,436.51 298.29,436.51 301.56,436.51 304.83,436.51 308.11,436.51 311.38,436.51 314.66,436.51 317.93,436.51 321.20,436.51 324.48,436.51 327.75,436.51 331.03,436.51 334.30,436.51 337.58,436.51 340.85,436.51 344.12,436.51 347.40,436.51 350.67,436.51 353.95,436.51 357.22,436.51 360.49,436.51 363.77,436.51 367.04,436.51 370.32,436.51 373.59,436.51 376.86,436.51 380.14,436.51 383.41,436.51 386.69,436.51 389.96,436.51 393.24,436.51 396.51,436.51 399.78,436.51 403.06,436.51 406.33,436.51 409.61,436.51 412.88,436.51 416.15,436.51 419.43,436.51 422.70,436.51 425.98,436.51 429.25,436.51 432.53,436.51 435.80,436.51 439.07,436.51 442.35,436.51 445.62,436.51 448.90,436.51 452.17,436.51 455.44,436.51 458.72,436.51 461.99,436.51 465.27,436.51 468.54,436.51 471.81,436.51 475.09,436.51 478.36,436.51 481.64,436.51 484.91,436.51 488.19,436.51 491.46,436.51 494.73,436.51 498.01,436.51 501.28,436.51 504.56,436.51 507.83,436.51 511.10,436.51 514.38,436.51 517.65,436.51 520.93,436.51 524.20,436.51 527.47,436.51 530.75,436.51 534.02,436.51 537.30,436.51 540.57,436.51 543.85,436.51 547.12,436.51 550.39,436.51 553.67,436.51 556.94,436.51 560.22,436.51 563.49,436.51 566.76,436.51 570.04,436.51 573.31,436.51 576.59,436.51 579.86,436.51 583.14,436.51 586.41,436.51 589.68,436.51 592.96,436.51 596.23,436.51 599.51,436.51 602.78,436.51 606.05,436.51 609.33,436.51 612.60,436.51 615.88,436.51 619.15,436.51 622.42,436.51 625.70,436.51 628.97,436.51 632.25,436.51 635.52,436.51 638.80,436.51 642.07,436.51 645.34,436.51 648.62,436.51 651.89,436.51 655.17,436.51 658.44,436.51 661.71,436.51 664.99,436.51 668.26,436.51 671.54,436.51 674.81,436.51 678.08,436.51 681.36,436.51 684.63,436.51 687.91,436.51 691.18,436.51 694.46,436.51 697.73,436.51 701.00,436.51 704.28,436.51 707.55,436.51 710.83,433.53 714.10,432.82 717.37,429.81 720.65,431.28 723.92,430.06 727.20,426.23 730.47,426.23 733.75,429.25 737.02,428.64 740.29,429.71 743.57,428.08 746.84,411.12 750.12,408.48 753.39,408.98 756.66,397.97 759.94,398.26 763.21,392.73 766.49,396.86 769.76,383.54 773.03,378.31 776.31,381.96 779.58,365.49 782.86,360.62 786.13,370.13 789.41,370.47 792.68,375.17 795.95,382.88 799.23,383.52 802.50,380.69 805.78,371.91 809.05,372.40 812.32,370.96 815.60,367.00 818.87,368.88 822.15,369.83 825.42,376.51 828.69,382.27 831.97,383.78 835.24,378.63 838.52,379.64 841.79,393.21 845.07,381.26 848.34,383.79 851.61,384.74 854.89,374.06 858.16,365.87 861.44,362.32 864.71,373.96 867.98,369.60 871.26,355.73 874.53,348.24 877.81,357.57 881.08,358.24 884.36,356.93 887.63,361.83 890.90,358.17 894.18,349.65 897.45,363.23 900.73,370.41 904.00,368.42" />
<text x="780.00" y="82.00" font-size="14" font-family="Arial" fill="#1f77b4" text-anchor="start">MA200</text>
<polyline fill="none" stroke="#2ca02c" stroke-width="2" points="56.00,436.51 59.27,436.51 62.55,436.51 65.82,436.51 69.10,436.51 72.37,436.51 75.64,436.51 78.92,436.51 82.19,436.51 85.47,436.51 88.74,436.51 92.02,436.51 95.29,436.51 98.56,436.51 101.84,436.51 105.11,436.51 108.39,436.51 111.66,436.51 114.93,436.51 118.21,436.51 121.48,436.51 124.76,436.51 128.03,436.51 131.31,436.51 134.58,436.51 137.85,436.51 141.13,436.51 144.40,436.51 147.68,436.51 150.95,436.51 154.22,436.51 157.50,436.51 160.77,436.51 164.05,436.51 167.32,436.51 170.59,436.51 173.87,436.51 177.14,436.51 180.42,436.51 183.69,436.51 186.97,436.51 190.24,436.51 193.51,436.51 196.79,436.51 200.06,436.51 203.34,436.51 206.61,436.51 209.88,436.51 213.16,436.51 216.43,436.51 219.71,436.51 222.98,436.51 226.25,436.51 229.53,436.51 232.80,436.51 236.08,436.51 239.35,436.51 242.63,436.51 245.90,436.51 249.17,436.51 252.45,437.44 255.72,423.20 259.00,425.69 262.27,427.75 265.54,426.29 268.82,421.57 272.09,414.61 275.37,410.82 278.64,413.38 281.92,415.72 285.19,409.71 288.46,406.30 291.74,407.48 295.01,408.08 298.29,406.63 301.56,405.97 304.83,405.04 308.11,408.63 311.38,406.50 314.66,410.49 317.93,406.68 321.20,407.45 324.48,407.03 327.75,404.29 331.03,404.24 334.30,407.25 337.58,404.14 340.85,403.84 344.12,400.67 347.40,395.68 350.67,396.15 353.95,399.12 357.22,399.54 360.49,400.77 363.77,406.98 367.04,403.59 370.32,406.45 373.59,404.21 376.86,403.41 380.14,404.84 383.41,404.82 386.69,409.79 389.96,410.77 393.24,412.80 396.51,413.76 399.78,411.80 403.06,415.54 406.33,413.33 409.61,410.09 412.88,409.99 416.15,407.53 419.43,398.11 422.70,399.49 425.98,390.80 429.25,390.08 432.53,398.26 435.80,395.98 439.07,398.76 442.35,398.26 445.62,397.56 448.90,400.75 452.17,405.02 455.44,405.77 458.72,406.27 461.99,409.44 465.27,408.86 468.54,407.50 471.81,408.63 475.09,408.69 478.36,409.16 481.64,409.06 484.91,407.86 488.19,406.30 491.46,407.30 494.73,401.08 498.01,401.10 501.28,399.42 504.56,399.42 507.83,399.42 511.10,399.42 514.38,399.42 517.65,392.05 520.93,388.78 524.20,389.70 527.47,392.80 530.75,389.15 534.02,376.16 537.30,376.00 540.57,397.11 543.85,403.00 547.12,399.71 550.39,388.65 553.67,388.92 556.94,393.92 560.22,388.58 563.49,387.57 566.76,389.06 570.04,389.88 573.31,384.51 576.59,385.31 579.86,392.41 583.14,389.76 586.41,393.89 589.68,393.19 592.96,394.58 596.23,396.22 599.51,398.14 602.78,399.30 606.05,400.40 609.33,394.72 612.60,392.98 615.88,396.22 619.15,395.88 622.42,396.13 625.70,401.61 628.97,395.95 632.25,395.10 635.52,400.88 638.80,395.95 642.07,393.21 645.34,390.47 648.62,396.70 651.89,395.52 655.17,395.54 658.44,399.42 661.71,397.20 664.99,394.58 668.26,399.85 671.54,399.53 674.81,399.42 678.08,399.42 681.36,399.42 684.63,399.42 687.91,399.42 691.18,399.42 694.46,399.42 697.73,399.42 701.00,399.42 704.28,399.42 707.55,399.42 710.83,399.42 714.10,398.34 717.37,393.78 720.65,396.01 723.92,394.17 727.20,388.37 730.47,388.37 733.75,392.93 737.02,392.02 740.29,393.63 743.57,391.17 746.84,365.50 750.12,361.50 753.39,362.27 756.66,345.60 759.94,346.04 763.21,337.67 766.49,343.92 769.76,323.77 773.03,315.85 776.31,321.38 779.58,296.45 782.86,289.08 786.13,303.47 789.41,303.99 792.68,311.09 795.95,322.76 799.23,323.74 802.50,319.45 805.78,306.16 809.05,306.91 812.32,304.72 815.60,298.73 818.87,301.58 822.15,303.01 825.42,313.13 828.69,321.85 831.97,324.13 835.24,316.34 838.52,317.86 841.79,338.40 845.07,320.32 848.34,324.15 851.61,325.58 854.89,309.42 858.16,297.02 861.44,291.66 864.71,309.27 867.98,302.67 871.26,281.67 874.53,270.35 877.81,284.46 881.08,285.48 884.36,283.49 887.63,290.91 890.90,285.37 894.18,272.48 897.45,293.03 900.73,303.89 904.00,300.88" />
<text x="780.00" y="104.00" font-size="14" font-family="Arial" fill="#2ca02c" text-anchor="start">MA20x60</text>
</svg>