<svg xmlns="http://www.w3.org/2000/svg" width="960" height="520" viewBox="0 0 960 520"><rect width="100%" height="100%" fill="white" />
<text x="56.00" y="32.00" font-size="20" font-family="Arial" fill="#1f2933" text-anchor="start">META Backtest Equity Curves</text>
<line x1="56" y1="464" x2="904" y2="464" stroke="#cbd2d9" />
<line x1="56" y1="56" x2="56" y2="464" stroke="#cbd2d9" />
<text x="16.00" y="38.00" font-size="12" font-family="Arial" fill="#52606d" text-anchor="start">Equity Multiple</text>
<line x1="56" y1="464.00" x2="904" y2="464.00" stroke="#edf2f7" />
<line x1="52" y1="464.00" x2="56" y2="464.00" stroke="#9fb3c8" />
<text x="48.00" y="468.00" font-size="11" font-family="Arial" fill="#52606d" text-anchor="end">0.72</text>
<line x1="56" y1="362.00" x2="904" y2="362.00" stroke="#edf2f7" />
<line x1="52" y1="362.00" x2="56" y2="362.00" stroke="#9fb3c8" />
<text x="48.00" y="366.00" font-size="11" font-family="Arial" fill="#52606d" text-anchor="end">0.82</text>
<line x1="56" y1="260.00" x2="904" y2="260.00" stroke="#edf2f7" />
<line x1="52" y1="260.00" x2="56" y2="260.00" stroke="#9fb3c8" />
<text x="48.00" y="264.00" font-size="11" font-family="Arial" fill="#52606d" text-anchor="end">0.92</text>
<line x1="56" y1="158.00" x2="904" y2="158.00" stroke="#edf2f7" />
<line x1="52" y1="158.00" x2="56" y2="158.00" stroke="#9fb3c8" />
<text x="48.00" y="162.00" font-size="11" font-family="Arial" fill="#52606d" text-anchor="end">1.03</text>
<line x1="56" y1="56.00" x2="904" y2="56.00" stroke="#edf2f7" />
<line x1="52" y1="56.00" x2="56" y2="56.00" stroke="#9fb3c8" />
<text x="48.00" y="60.00" font-size="11" font-family="Arial" fill="#52606d" text-anchor="end">1.13</text>
<line x1="56.00" y1="464" x2="56.00" y2="468" stroke="#9fb3c8" />
<text x="56.00" y="482.00" font-size="11" font-family="Arial" fill="#52606d" text-anchor="middle">07/02</text>
<line x1="226.25" y1="464" x2="226.25" y2="468" stroke="#9fb3c8" />
<text x="226.25" y="482.00" font-size="11" font-family="Arial" fill="#52606d" text-anchor="middle">09/16</text>
<line x1="396.51" y1="464" x2="396.51" y2="468" stroke="#9fb3c8" />
<text x="396.51" y="482.00" font-size="11" font-family="Arial" fill="#52606d" text-anchor="middle">11/28</text>
<line x1="563.49" y1="464" x2="563.49" y2="468" stroke="#9fb3c8" />
<text x="563.49" y="482.00" font-size="11" font-family="Arial" fill="#52606d" text-anchor="middle">02/12</text>
<line x1="733.75" y1="464" x2="733.75" y2="468" stroke="#9fb3c8" />
<text x="733.75" y="482.00" font-size="11" font-family="Arial" fill="#52606d" text-anchor="middle">04/29</text>
<line x1="904.00" y1="464" x2="904.00" y2="468" stroke="#9fb3c8" />
<text x="904.00" y="482.00" font-size="11" font-family="Arial" fill="#52606d" text-anchor="middle">07/15</text>
<polyline fill="none" stroke="#7f7f7f" stroke-width="2" points="56.00,183.70 59.27,176.17 62.55,177.08 65.82,173.87 69.10,157.10 72.37,164.77 75.64,178.25 78.92,173.52 82.19,188.11 85.47,198.47 88.74,200.54 92.02,196.57 95.29,184.53 98.56,195.83 101.84,183.69 105.11,182.00 108.39,184.94 111.66,178.08 114.93,202.50 118.21,209.13 121.48,100.79 124.76,133.24 128.03,96.73 131.31,114.61 134.58,102.80 137.85,116.87 141.13,106.52 144.40,111.27 147.68,77.86 150.95,91.60 154.22,88.76 157.50,84.46 160.77,109.20 164.05,131.20 167.32,136.41 170.59,148.35 173.87,126.62 177.14,128.68 180.42,127.57 183.69,136.88 186.97,131.72 190.24,148.90 193.51,153.87 196.79,151.19 200.06,135.12 203.34,129.86 206.61,130.07 209.88,111.51 213.16,130.51 216.43,132.01 219.71,125.51 222.98,112.89 226.25,93.09 229.53,97.63 232.80,91.36 236.08,93.95 239.35,111.54 242.63,125.07 245.90,117.78 249.17,134.06 252.45,141.21 255.72,141.70 259.00,154.20 262.27,177.81 265.54,164.36 268.82,187.21 272.09,180.14 275.37,183.72 278.64,177.12 281.92,155.40 285.19,194.50 288.46,180.08 291.74,189.85 295.01,177.52 298.29,185.12 301.56,178.39 304.83,157.26 308.11,155.74 311.38,155.54 314.66,154.72 317.93,148.68 321.20,131.41 324.48,130.56 327.75,130.24 331.03,248.31 334.30,273.42 337.58,288.16 340.85,302.56 344.12,290.60 347.40,314.18 350.67,310.34 353.95,296.41 357.22,302.90 360.49,327.94 363.77,326.72 367.04,327.31 370.32,337.64 373.59,343.62 376.86,353.84 380.14,355.46 383.41,348.39 386.69,322.34 389.96,290.23 393.24,293.85 396.51,273.97 399.78,283.78 403.06,275.15 406.33,285.54 409.61,255.15 412.88,238.68 416.15,247.85 419.43,261.49 422.70,270.95 425.98,267.38 429.25,279.13 432.53,273.85 435.80,260.48 439.07,271.09 442.35,250.36 445.62,258.23 448.90,254.45 452.17,249.68 455.44,246.06 458.72,251.97 461.99,258.35 465.27,248.28 468.54,256.40 471.81,269.83 475.09,258.21 478.36,255.67 481.64,272.21 484.91,275.86 488.19,266.15 491.46,281.54 494.73,296.62 498.01,318.22 501.28,310.90 504.56,311.66 507.83,334.03 511.10,321.77 514.38,273.68 517.65,258.25 520.93,239.39 524.20,238.54 527.47,244.42 530.75,147.92 534.02,178.17 537.30,192.16 540.57,212.56 543.85,244.06 547.12,242.37 550.39,254.50 553.67,232.65 556.94,241.66 560.22,244.48 563.49,270.66 566.76,284.59 570.04,285.25 573.31,279.80 576.59,277.64 579.86,262.55 583.14,288.08 586.41,285.24 589.68,265.28 592.96,260.68 596.23,272.92 599.51,265.46 602.78,263.35 606.05,245.81 609.33,255.74 612.60,277.53 615.88,274.02 619.15,264.75 622.42,263.66 625.70,286.79 628.97,320.73 632.25,300.93 635.52,307.58 638.80,317.27 642.07,329.73 645.34,347.83 648.62,333.40 651.89,348.86 655.17,346.13 658.44,411.85 661.71,442.14 664.99,427.35 668.26,377.72 671.54,367.86 674.81,374.49 678.08,376.48 681.36,373.67 684.63,321.79 687.91,299.62 691.18,297.58 694.46,291.10 697.73,252.29 701.00,239.67 704.28,232.33 707.55,216.11 710.83,240.60 714.10,243.47 717.37,235.31 720.65,256.92 723.92,234.88 727.20,229.90 730.47,240.00 733.75,243.08 737.02,322.50 740.29,326.89 743.57,324.58 746.84,332.15 750.12,321.15 753.39,315.70 756.66,325.66 759.94,340.61 763.21,334.87 766.49,315.95 769.76,313.45 773.03,319.28 776.31,323.47 779.58,335.41 782.86,332.01 786.13,328.79 789.41,324.79 792.68,321.90 795.95,290.09 799.23,290.05 802.50,293.90 805.78,338.38 809.05,342.32 812.32,307.13 815.60,300.76 818.87,348.75 822.15,359.31 825.42,360.42 828.69,379.32 831.97,382.86 835.24,384.87 838.52,347.32 841.79,337.97 845.07,383.31 848.34,369.91 851.61,388.49 854.89,390.78 858.16,397.07 861.44,417.64 864.71,407.38 867.98,390.22 871.26,389.27 874.53,320.32 877.81,362.02 881.08,337.86 884.36,316.61 887.63,333.93 890.90,294.52 894.18,242.10 897.45,259.44 900.73,253.45 904.00,225.29" />
<text x="780.00" y="60.00" font-size="14" font-family="Arial" fill="#7f7f7f" text-anchor="start">BuyHold</text>
<polyline fill="none" stroke="#1f77b4" stroke-width="2" points="56.00,183.70 59.27,183.70 62.55,183.70 65.82,183.70 69.10,183.70 72.37,183.70 75.64,183.70 78.92,183.70 82.19,183.70 85.47,183.70 88.74,183.70 92.02,183.70 95.29,183.70 98.56,183.70 101.84,183.70 105.11,183.70 108.39,183.70 111.66,183.70 114.93,183.70 118.21,183.70 121.48,183.70 124.76,183.70 128.03,183.70 131.31,183.70 134.58,183.70 137.85,183.70 141.13,183.70 144.40,183.70 147.68,183.70 150.95,183.70 154.22,183.70 157.50,183.70 160.77,183.70 164.05,183.70 167.32,183.70 170.59,183.70 173.87,183.70 177.14,183.70 180.42,183.70 183.69,183.70 186.97,183.70 190.24,183.70 193.51,183.70 196.79,183.70 200.06,183.70 203.34,183.70 206.61,183.70 209.88,183.70 213.16,183.70 216.43,183.70 219.71,183.70 222.98,183.70 226.25,183.70 229.53,183.70 232.80,183.70 236.08,183.70 239.35,183.70 242.63,183.70 245.90,183.70 249.17,183.70 252.45,183.70 255.72,183.70 259.00,183.70 262.27,183.70 265.54,183.70 268.82,183.70 272.09,183.70 275.37,183.70 278.64,183.70 281.92,183.70 285.19,183.70 288.46,183.70 291.74,183.70 295.01,183.70 298.29,183.70 301.56,183.70 304.83,183.70 308.11,183.70 311.38,183.70 314.66,183.70 317.93,183.70 321.20,183.70 324.48,183.70 327.75,183.70 331.03,183.70 334.30,183.70 337.58,183.70 340.85,183.70 344.12,183.70 347.40,183.70 350.67,183.70 353.95,183.70 357.22,183.70 360.49,183.70 363.77,183.70 367.04,183.70 370.32,183.70 373.59,183.70 376.86,183.70 380.14,183.70 383.41,183.70 386.69,183.70 389.96,183.70 393.24,183.70 396.51,183.70 399.78,183.70 403.06,183.70 406.33,183.70 409.61,183.70 412.88,183.70 416.15,183.70 419.43,183.70 422.70,183.70 425.98,183.70 429.25,183.70 432.53,183.70 435.80,183.70 439.07,183.70 442.35,183.70 445.62,183.70 448.90,183.70 452.17,183.70 455.44,183.70 458.72,183.70 461.99,183.70 465.27,183.70 468.54,183.70 471.81,183.70 475.09,183.70 478.36,183.70 481.64,183.70 484.91,183.70 488.19,183.70 491.46,183.70 494.73,183.70 498.01,183.70 501.28,183.70 504.56,183.70 507.83,183.70 511.10,183.70 514.38,183.70 517.65,183.70 520.93,183.70 524.20,183.70 527.47,183.70 530.75,183.70 534.02,183.70 537.30,183.70 540.57,183.70 543.85,183.70 547.12,183.70 550.39,183.70 553.67,183.70 556.94,183.70 560.22,183.70 563.49,183.70 566.76,183.70 570.04,183.70 573.31,183.70 576.59,183.70 579.86,183.70 583.14,183.70 586.41,183.70 589.68,183.70 592.96,183.70 596.23,183.70 599.51,183.70 602.78,183.70 606.05,183.70 609.33,183.70 612.60,183.70 615.88,183.70 619.15,183.70 622.42,183.70 625.70,183.70 628.97,183.70 632.25,183.70 635.52,183.70 638.80,183.70 642.07,183.70 645.34,183.70 648.62,183.70 651.89,183.70 655.17,183.70 658.44,183.70 661.71,183.70 664.99,183.70 668.26,183.70 671.54,183.70 674.81,183.70 678.08,183.70 681.36,183.70 684.63,183.70 687.91,183.70 691.18,183.70 694.46,183.70 697.73,183.70 701.00,183.70 704.28,183.70 707.55,183.70 710.83,209.02 714.10,209.02 717.37,209.02 720.65,209.02 723.92,209.02 727.20,209.02 730.47,209.02 733.75,209.02 737.02,209.02 740.29,209.02 743.57,209.02 746.84,209.02 750.12,209.02 753.39,209.02 756.66,209.02 759.94,209.02 763.21,209.02 766.49,209.02 769.76,209.02 773.03,209.02 776.31,209.02 779.58,209.02 782.86,209.02 786.13,209.02 789.41,209.02 792.68,209.02 795.95,209.02 799.23,209.02 802.50,209.02 805.78,209.02 809.05,209.02 812.32,209.02 815.60,209.02 818.87,209.02 822.15,209.02 825.42,209.02 828.69,209.02 831.97,209.02 835.24,209.02 838.52,209.02 841.79,209.02 845.07,209.02 848.34,209.02 851.61,209.02 854.89,209.02 858.16,209.02 861.44,209.02 864.71,209.02 867.98,209.02 871.26,209.02 874.53,209.02 877.81,209.02 881.08,209.02 884.36,209.02 887.63,209.02 890.90,209.02 894.18,209.02 897.45,226.98 900.73,220.78 904.00,191.61" />
<text x="780.00" y="82.00" font-size="14" font-family="Arial" fill="#1f77b4" text-anchor="start">MA200</text>
<polyline fill="none" stroke="#2ca02c" stroke-width="2" points="56.00,183.70 59.27,183.70 62.55,183.70 65.82,183.70 69.10,183.70 72.37,183.70 75.64,183.70 78.92,183.70 82.19,183.70 85.47,183.70 88.74,183.70 92.02,183.70 95.29,183.70 98.56,183.70 101.84,183.70 105.11,183.70 108.39,183.70 111.66,183.70 114.93,183.70 118.21,183.70 121.48,183.70 124.76,183.70 128.03,183.70 131.31,183.70 134.58,183.70 137.85,183.70 141.13,183.70 144.40,183.70 147.68,183.70 150.95,183.70 154.22,183.70 157.50,183.70 160.77,183.70 164.05,183.70 167.32,183.70 170.59,183.70 173.87,183.70 177.14,183.70 180.42,183.70 183.69,183.70 186.97,183.70 190.24,183.70 193.51,183.70 196.79,183.70 200.06,183.70 203.34,183.70 206.61,183.70 209.88,183.70 213.16,183.70 216.43,183.70 219.71,183.70 222.98,183.70 226.25,183.70 229.53,183.70 232.80,183.70 236.08,183.70 239.35,183.70 242.63,183.70 245.90,183.70 249.17,183.70 252.45,190.51 255.72,190.97 259.00,202.88 262.27,225.36 265.54,212.55 268.82,234.31 272.09,227.58 275.37,230.98 278.64,224.70 281.92,204.02 285.19,241.25 288.46,241.25 291.74,241.25 295.01,241.25 298.29,241.25 301.56,241.25 304.83,241.25 308.11,241.25 311.38,241.25 314.66,241.25 317.93,241.25 321.20,241.25 324.48,241.25 327.75,241.25 331.03,241.25 334.30,241.25 337.58,241.25 340.85,241.25 344.12,241.25 347.40,241.25 350.67,241.25 353.95,241.25 357.22,241.25 360.49,241.25 363.77,241.25 367.04,241.25 370.32,241.25 373.59,241.25 376.86,241.25 380.14,241.25 383.41,241.25 386.69,241.25 389.96,241.25 393.24,241.25 396.51,241.25 399.78,241.25 403.06,241.25 406.33,241.25 409.61,241.25 412.88,241.25 416.15,241.25 419.43,241.25 422.70,241.25 425.98,241.25 429.25,241.25 432.53,241.25 435.80,241.25 439.07,241.25 442.35,241.25 445.62,241.25 448.90,241.25 452.17,241.25 455.44,241.25 458.72,241.25 461.99,241.25 465.27,241.25 468.54,241.25 471.81,241.25 475.09,241.25 478.36,241.25 481.64,241.25 484.91,241.25 488.19,241.25 491.46,241.25 494.73,241.25 498.01,264.21 501.28,256.42 504.56,257.23 507.83,281.02 511.10,281.02 514.38,281.02 517.65,265.71 520.93,247.00 524.20,246.16 527.47,251.99 530.75,156.28 534.02,186.28 537.30,200.16 540.57,220.40 543.85,251.64 547.12,249.96 550.39,262.00 553.67,240.32 556.94,249.26 560.22,252.05 563.49,278.02 566.76,291.83 570.04,292.49 573.31,287.09 576.59,284.94 579.86,269.97 583.14,295.30 586.41,292.48 589.68,272.68 592.96,268.12 596.23,280.26 599.51,272.86 602.78,270.77 606.05,270.77 609.33,270.77 612.60,270.77 615.88,270.77 619.15,270.77 622.42,270.77 625.70,270.77 628.97,270.77 632.25,270.77 635.52,270.77 638.80,270.77 642.07,270.77 645.34,270.77 648.62,270.77 651.89,270.77 655.17,270.77 658.44,270.77 661.71,270.77 664.99,270.77 668.26,270.77 671.54,270.77 674.81,270.77 678.08,270.77 681.36,270.77 684.63,270.77 687.91,270.77 691.18,270.77 694.46,270.77 697.73,270.77 701.00,270.77 704.28,270.77 707.55,270.77 710.83,270.77 714.10,270.77 717.37,270.77 720.65,270.77 723.92,270.77 727.20,270.77 730.47,270.77 733.75,273.75 737.02,350.54 740.29,354.79 743.57,352.56 746.84,359.87 750.12,349.24 753.39,343.97 756.66,353.61 759.94,368.06 763.21,362.50 766.49,344.21 769.76,341.79 773.03,347.43 776.31,351.48 779.58,363.03 782.86,359.74 786.13,359.74 789.41,359.74 792.68,359.74 795.95,359.74 799.23,359.74 802.50,359.74 805.78,359.74 809.05,359.74 812.32,359.74 815.60,359.74 818.87,359.74 822.15,359.74 825.42,359.74 828.69,359.74 831.97,359.74 835.24,359.74 838.52,359.74 841.79,359.74 845.07,359.74 848.34,359.74 851.61,359.74 854.89,359.74 858.16,359.74 861.44,359.74 864.71,359.74 867.98,359.74 871.26,359.74 874.53,359.74 877.81,359.74 881.08,359.74 884.36,359.74 887.63,359.74 890.90,359.74 894.18,359.74 897.45,359.74 900.73,359.74 904.00,359.74" />
<text x="780.00" y="104.00" font-size="14" font-family="Arial" fill="#2ca02c" text-anchor="start">MA20x60</text>
</svg>