<svg xmlns="http://www.w3.org/2000/svg" width="960" height="520" viewBox="0 0 960 520"><rect width="100%" height="100%" fill="white" />
<text x="56.00" y="32.00" font-size="20" font-family="Arial" fill="#1f2933" text-anchor="start">META Backtest Equity Curves</text>
<line x1="56" y1="464" x2="904" y2="464" stroke="#cbd2d9" />
<line x1="56" y1="56" x2="56" y2="464" stroke="#cbd2d9" />
<text x="16.00" y="38.00" font-size="12" font-family="Arial" fill="#52606d" text-anchor="start">Equity Multiple</text>
<line x1="56" y1="464.00" x2="904" y2="464.00" stroke="#edf2f7" />
<line x1="52" y1="464.00" x2="56" y2="464.00" stroke="#9fb3c8" />
<text x="48.00" y="468.00" font-size="11" font-family="Arial" fill="#52606d" text-anchor="end">0.73</text>
<line x1="56" y1="362.00" x2="904" y2="362.00" stroke="#edf2f7" />
<line x1="52" y1="362.00" x2="56" y2="362.00" stroke="#9fb3c8" />
<text x="48.00" y="366.00" font-size="11" font-family="Arial" fill="#52606d" text-anchor="end">0.84</text>
<line x1="56" y1="260.00" x2="904" y2="260.00" stroke="#edf2f7" />
<line x1="52" y1="260.00" x2="56" y2="260.00" stroke="#9fb3c8" />
<text x="48.00" y="264.00" font-size="11" font-family="Arial" fill="#52606d" text-anchor="end">0.94</text>
<line x1="56" y1="158.00" x2="904" y2="158.00" stroke="#edf2f7" />
<line x1="52" y1="158.00" x2="56" y2="158.00" stroke="#9fb3c8" />
<text x="48.00" y="162.00" font-size="11" font-family="Arial" fill="#52606d" text-anchor="end">1.05</text>
<line x1="56" y1="56.00" x2="904" y2="56.00" stroke="#edf2f7" />
<line x1="52" y1="56.00" x2="56" y2="56.00" stroke="#9fb3c8" />
<text x="48.00" y="60.00" font-size="11" font-family="Arial" fill="#52606d" text-anchor="end">1.15</text>
<line x1="56.00" y1="464" x2="56.00" y2="468" stroke="#9fb3c8" />
<text x="56.00" y="482.00" font-size="11" font-family="Arial" fill="#52606d" text-anchor="middle">06/23</text>
<line x1="226.25" y1="464" x2="226.25" y2="468" stroke="#9fb3c8" />
<text x="226.25" y="482.00" font-size="11" font-family="Arial" fill="#52606d" text-anchor="middle">09/05</text>
<line x1="396.51" y1="464" x2="396.51" y2="468" stroke="#9fb3c8" />
<text x="396.51" y="482.00" font-size="11" font-family="Arial" fill="#52606d" text-anchor="middle">11/18</text>
<line x1="563.49" y1="464" x2="563.49" y2="468" stroke="#9fb3c8" />
<text x="563.49" y="482.00" font-size="11" font-family="Arial" fill="#52606d" text-anchor="middle">02/03</text>
<line x1="733.75" y1="464" x2="733.75" y2="468" stroke="#9fb3c8" />
<text x="733.75" y="482.00" font-size="11" font-family="Arial" fill="#52606d" text-anchor="middle">04/20</text>
<line x1="904.00" y1="464" x2="904.00" y2="468" stroke="#9fb3c8" />
<text x="904.00" y="482.00" font-size="11" font-family="Arial" fill="#52606d" text-anchor="middle">07/06</text>
<polyline fill="none" stroke="#7f7f7f" stroke-width="2" points="56.00,204.53 59.27,185.60 62.55,190.48 65.82,166.36 69.10,155.92 72.37,149.75 75.64,175.88 78.92,183.70 82.19,176.17 85.47,177.08 88.74,173.87 92.02,157.10 95.29,164.77 98.56,178.25 101.84,173.52 105.11,188.11 108.39,198.47 111.66,200.54 114.93,196.57 118.21,184.53 121.48,195.83 124.76,183.69 128.03,182.00 131.31,184.94 134.58,178.08 137.85,202.50 141.13,209.13 144.40,100.79 147.68,133.24 150.95,96.73 154.22,114.61 157.50,102.80 160.77,116.87 164.05,106.52 167.32,111.27 170.59,77.86 173.87,91.60 177.14,88.76 180.42,84.46 183.69,109.20 186.97,131.20 190.24,136.41 193.51,148.35 196.79,126.62 200.06,128.68 203.34,127.57 206.61,136.88 209.88,131.72 213.16,148.90 216.43,153.87 219.71,151.19 222.98,135.12 226.25,129.86 229.53,130.07 232.80,111.51 236.08,130.51 239.35,132.01 242.63,125.51 245.90,112.89 249.17,93.09 252.45,97.63 255.72,91.36 259.00,93.95 262.27,111.54 265.54,125.07 268.82,117.78 272.09,134.06 275.37,141.21 278.64,141.70 281.92,154.20 285.19,177.81 288.46,164.36 291.74,187.21 295.01,180.14 298.29,183.72 301.56,177.12 304.83,155.40 308.11,194.50 311.38,180.08 314.66,189.85 317.93,177.52 321.20,185.12 324.48,178.39 327.75,157.26 331.03,155.74 334.30,155.54 337.58,154.72 340.85,148.68 344.12,131.41 347.40,130.56 350.67,130.24 353.95,248.31 357.22,273.42 360.49,288.16 363.77,302.56 367.04,290.60 370.32,314.18 373.59,310.34 376.86,296.41 380.14,302.90 383.41,327.94 386.69,326.72 389.96,327.31 393.24,337.64 396.51,343.62 399.78,353.84 403.06,355.46 406.33,348.39 409.61,322.34 412.88,290.23 416.15,293.85 419.43,273.97 422.70,283.78 425.98,275.15 429.25,285.54 432.53,255.15 435.80,238.68 439.07,247.85 442.35,261.49 445.62,270.95 448.90,267.38 452.17,279.13 455.44,273.85 458.72,260.48 461.99,271.09 465.27,250.36 468.54,258.23 471.81,254.45 475.09,249.68 478.36,246.06 481.64,251.97 484.91,258.35 488.19,248.28 491.46,256.40 494.73,269.83 498.01,258.21 501.28,255.67 504.56,272.21 507.83,275.86 511.10,266.15 514.38,281.54 517.65,296.62 520.93,318.22 524.20,310.90 527.47,311.66 530.75,334.03 534.02,321.77 537.30,273.68 540.57,258.25 543.85,239.39 547.12,238.54 550.39,244.42 553.67,147.92 556.94,178.17 560.22,192.16 563.49,212.56 566.76,244.06 570.04,242.37 573.31,254.50 576.59,232.65 579.86,241.66 583.14,244.48 586.41,270.66 589.68,284.59 592.96,285.25 596.23,279.80 599.51,277.64 602.78,262.55 606.05,288.08 609.33,285.24 612.60,265.28 615.88,260.68 619.15,272.92 622.42,265.46 625.70,263.35 628.97,245.81 632.25,255.74 635.52,277.53 638.80,274.02 642.07,264.75 645.34,263.66 648.62,286.79 651.89,320.73 655.17,300.93 658.44,307.58 661.71,317.27 664.99,329.73 668.26,347.83 671.54,333.40 674.81,348.86 678.08,346.13 681.36,411.85 684.63,442.14 687.91,427.35 691.18,377.72 694.46,367.86 697.73,374.49 701.00,376.48 704.28,373.67 707.55,321.79 710.83,299.62 714.10,297.58 717.37,291.10 720.65,252.29 723.92,239.67 727.20,232.33 730.47,216.11 733.75,240.60 737.02,243.47 740.29,235.31 743.57,256.92 746.84,234.88 750.12,229.90 753.39,240.00 756.66,243.08 759.94,322.50 763.21,326.89 766.49,324.58 769.76,332.15 773.03,321.15 776.31,315.70 779.58,325.66 782.86,340.61 786.13,334.87 789.41,315.95 792.68,313.45 795.95,319.28 799.23,323.47 802.50,335.41 805.78,332.01 809.05,328.79 812.32,324.79 815.60,321.90 818.87,290.09 822.15,290.05 825.42,293.90 828.69,338.38 831.97,342.32 835.24,307.13 838.52,300.76 841.79,348.75 845.07,359.31 848.34,360.42 851.61,379.32 854.89,382.86 858.16,384.87 861.44,347.32 864.71,337.97 867.98,383.31 871.26,369.91 874.53,388.49 877.81,390.78 881.08,397.07 884.36,417.64 887.63,407.38 890.90,390.22 894.18,389.27 897.45,320.32 900.73,362.02 904.00,337.86" />
<text x="780.00" y="60.00" font-size="14" font-family="Arial" fill="#7f7f7f" text-anchor="start">BuyHold</text>
<polyline fill="none" stroke="#1f77b4" stroke-width="2" points="56.00,204.53 59.27,204.53 62.55,204.53 65.82,204.53 69.10,204.53 72.37,204.53 75.64,204.53 78.92,204.53 82.19,204.53 85.47,204.53 88.74,204.53 92.02,204.53 95.29,204.53 98.56,204.53 101.84,204.53 105.11,204.53 108.39,204.53 111.66,204.53 114.93,204.53 118.21,204.53 121.48,204.53 124.76,204.53 128.03,204.53 131.31,204.53 134.58,204.53 137.85,204.53 141.13,204.53 144.40,204.53 147.68,204.53 150.95,204.53 154.22,204.53 157.50,204.53 160.77,204.53 164.05,204.53 167.32,204.53 170.59,204.53 173.87,204.53 177.14,204.53 180.42,204.53 183.69,204.53 186.97,204.53 190.24,204.53 193.51,204.53 196.79,204.53 200.06,204.53 203.34,204.53 206.61,204.53 209.88,204.53 213.16,204.53 216.43,204.53 219.71,204.53 222.98,204.53 226.25,204.53 229.53,204.53 232.80,204.53 236.08,204.53 239.35,204.53 242.63,204.53 245.90,204.53 249.17,204.53 252.45,204.53 255.72,204.53 259.00,204.53 262.27,204.53 265.54,204.53 268.82,204.53 272.09,204.53 275.37,204.53 278.64,204.53 281.92,204.53 285.19,204.53 288.46,204.53 291.74,204.53 295.01,204.53 298.29,204.53 301.56,204.53 304.83,204.53 308.11,204.53 311.38,204.53 314.66,204.53 317.93,204.53 321.20,204.53 324.48,204.53 327.75,204.53 331.03,204.53 334.30,204.53 337.58,204.53 340.85,204.53 344.12,204.53 347.40,204.53 350.67,204.53 353.95,204.53 357.22,204.53 360.49,204.53 363.77,204.53 367.04,204.53 370.32,204.53 373.59,204.53 376.86,204.53 380.14,204.53 383.41,204.53 386.69,204.53 389.96,204.53 393.24,204.53 396.51,204.53 399.78,204.53 403.06,204.53 406.33,204.53 409.61,204.53 412.88,204.53 416.15,204.53 419.43,204.53 422.70,204.53 425.98,204.53 429.25,204.53 432.53,204.53 435.80,204.53 439.07,204.53 442.35,204.53 445.62,204.53 448.90,204.53 452.17,204.53 455.44,204.53 458.72,204.53 461.99,204.53 465.27,204.53 468.54,204.53 471.81,204.53 475.09,204.53 478.36,204.53 481.64,204.53 484.91,204.53 488.19,204.53 491.46,204.53 494.73,204.53 498.01,204.53 501.28,204.53 504.56,204.53 507.83,204.53 511.10,204.53 514.38,204.53 517.65,204.53 520.93,204.53 524.20,204.53 527.47,204.53 530.75,204.53 534.02,204.53 537.30,204.53 540.57,204.53 543.85,204.53 547.12,204.53 550.39,204.53 553.67,204.53 556.94,204.53 560.22,204.53 563.49,204.53 566.76,204.53 570.04,204.53 573.31,204.53 576.59,204.53 579.86,204.53 583.14,204.53 586.41,204.53 589.68,204.53 592.96,204.53 596.23,204.53 599.51,204.53 602.78,204.53 606.05,204.53 609.33,204.53 612.60,204.53 615.88,204.53 619.15,204.53 622.42,204.53 625.70,204.53 628.97,204.53 632.25,204.53 635.52,204.53 638.80,204.53 642.07,204.53 645.34,204.53 648.62,204.53 651.89,204.53 655.17,204.53 658.44,204.53 661.71,204.53 664.99,204.53 668.26,204.53 671.54,204.53 674.81,204.53 678.08,204.53 681.36,204.53 684.63,204.53 687.91,204.53 691.18,204.53 694.46,204.53 697.73,204.53 701.00,204.53 704.28,204.53 707.55,204.53 710.83,204.53 714.10,204.53 717.37,204.53 720.65,204.53 723.92,204.53 727.20,204.53 730.47,204.53 733.75,229.32 737.02,229.32 740.29,229.32 743.57,229.32 746.84,229.32 750.12,229.32 753.39,229.32 756.66,229.32 759.94,229.32 763.21,229.32 766.49,229.32 769.76,229.32 773.03,229.32 776.31,229.32 779.58,229.32 782.86,229.32 786.13,229.32 789.41,229.32 792.68,229.32 795.95,229.32 799.23,229.32 802.50,229.32 805.78,229.32 809.05,229.32 812.32,229.32 815.60,229.32 818.87,229.32 822.15,229.32 825.42,229.32 828.69,229.32 831.97,229.32 835.24,229.32 838.52,229.32 841.79,229.32 845.07,229.32 848.34,229.32 851.61,229.32 854.89,229.32 858.16,229.32 861.44,229.32 864.71,229.32 867.98,229.32 871.26,229.32 874.53,229.32 877.81,229.32 881.08,229.32 884.36,229.32 887.63,229.32 890.90,229.32 894.18,229.32 897.45,229.32 900.73,229.32 904.00,229.32" />
<text x="780.00" y="82.00" font-size="14" font-family="Arial" fill="#1f77b4" text-anchor="start">MA200</text>
<polyline fill="none" stroke="#2ca02c" stroke-width="2" points="56.00,204.53 59.27,204.53 62.55,204.53 65.82,204.53 69.10,204.53 72.37,204.53 75.64,204.53 78.92,204.53 82.19,204.53 85.47,204.53 88.74,204.53 92.02,204.53 95.29,204.53 98.56,204.53 101.84,204.53 105.11,204.53 108.39,204.53 111.66,204.53 114.93,204.53 118.21,204.53 121.48,204.53 124.76,204.53 128.03,204.53 131.31,204.53 134.58,204.53 137.85,204.53 141.13,204.53 144.40,204.53 147.68,204.53 150.95,204.53 154.22,204.53 157.50,204.53 160.77,204.53 164.05,204.53 167.32,204.53 170.59,204.53 173.87,204.53 177.14,204.53 180.42,204.53 183.69,204.53 186.97,204.53 190.24,204.53 193.51,204.53 196.79,204.53 200.06,204.53 203.34,204.53 206.61,204.53 209.88,204.53 213.16,204.53 216.43,204.53 219.71,204.53 222.98,204.53 226.25,204.53 229.53,204.53 232.80,204.53 236.08,204.53 239.35,204.53 242.63,204.53 245.90,204.53 249.17,204.53 252.45,208.61 255.72,202.98 259.00,205.30 262.27,221.08 265.54,233.21 268.82,226.67 272.09,241.27 275.37,247.68 278.64,248.12 281.92,259.33 285.19,280.50 288.46,268.44 291.74,288.93 295.01,282.59 298.29,285.80 301.56,279.88 304.83,260.41 308.11,295.46 311.38,295.46 314.66,295.46 317.93,295.46 321.20,295.46 324.48,295.46 327.75,295.46 331.03,295.46 334.30,295.46 337.58,295.46 340.85,295.46 344.12,295.46 347.40,295.46 350.67,295.46 353.95,295.46 357.22,295.46 360.49,295.46 363.77,295.46 367.04,295.46 370.32,295.46 373.59,295.46 376.86,295.46 380.14,295.46 383.41,295.46 386.69,295.46 389.96,295.46 393.24,295.46 396.51,295.46 399.78,295.46 403.06,295.46 406.33,295.46 409.61,295.46 412.88,295.46 416.15,295.46 419.43,295.46 422.70,295.46 425.98,295.46 429.25,295.46 432.53,295.46 435.80,295.46 439.07,295.46 442.35,295.46 445.62,295.46 448.90,295.46 452.17,295.46 455.44,295.46 458.72,295.46 461.99,295.46 465.27,295.46 468.54,295.46 471.81,295.46 475.09,295.46 478.36,295.46 481.64,295.46 484.91,295.46 488.19,295.46 491.46,295.46 494.73,295.46 498.01,295.46 501.28,295.46 504.56,295.46 507.83,295.46 511.10,295.46 514.38,295.46 517.65,295.46 520.93,317.09 524.20,309.75 527.47,310.52 530.75,332.92 534.02,332.92 537.30,332.92 540.57,318.50 543.85,300.88 547.12,300.09 550.39,305.58 553.67,215.44 556.94,243.70 560.22,256.77 563.49,275.83 566.76,305.25 570.04,303.67 573.31,315.00 576.59,294.59 579.86,303.01 583.14,305.64 586.41,330.09 589.68,343.10 592.96,343.72 596.23,338.63 599.51,336.61 602.78,322.52 606.05,346.37 609.33,343.71 612.60,325.07 615.88,320.77 619.15,332.21 622.42,325.24 625.70,323.27 628.97,323.27 632.25,323.27 635.52,323.27 638.80,323.27 642.07,323.27 645.34,323.27 648.62,323.27 651.89,323.27 655.17,323.27 658.44,323.27 661.71,323.27 664.99,323.27 668.26,323.27 671.54,323.27 674.81,323.27 678.08,323.27 681.36,323.27 684.63,323.27 687.91,323.27 691.18,323.27 694.46,323.27 697.73,323.27 701.00,323.27 704.28,323.27 707.55,323.27 710.83,323.27 714.10,323.27 717.37,323.27 720.65,323.27 723.92,323.27 727.20,323.27 730.47,323.27 733.75,323.27 737.02,323.27 740.29,323.27 743.57,323.27 746.84,323.27 750.12,323.27 753.39,323.27 756.66,326.07 759.94,398.39 763.21,402.39 766.49,400.29 769.76,407.18 773.03,397.17 776.31,392.20 779.58,401.27 782.86,414.89 786.13,409.66 789.41,392.43 792.68,390.15 795.95,395.46 799.23,399.28 802.50,410.15 805.78,407.05 809.05,407.05 812.32,407.05 815.60,407.05 818.87,407.05 822.15,407.05 825.42,407.05 828.69,407.05 831.97,407.05 835.24,407.05 838.52,407.05 841.79,407.05 845.07,407.05 848.34,407.05 851.61,407.05 854.89,407.05 858.16,407.05 861.44,407.05 864.71,407.05 867.98,407.05 871.26,407.05 874.53,407.05 877.81,407.05 881.08,407.05 884.36,407.05 887.63,407.05 890.90,407.05 894.18,407.05 897.45,407.05 900.73,407.05 904.00,407.05" />
<text x="780.00" y="104.00" font-size="14" font-family="Arial" fill="#2ca02c" text-anchor="start">MA20x60</text>
</svg>