<svg xmlns="http://www.w3.org/2000/svg" width="960" height="520" viewBox="0 0 960 520"><rect width="100%" height="100%" fill="white" />
<text x="56.00" y="32.00" font-size="20" font-family="Arial" fill="#1f2933" text-anchor="start">NVDA Backtest Equity Curves</text>
<line x1="56" y1="464" x2="904" y2="464" stroke="#cbd2d9" />
<line x1="56" y1="56" x2="56" y2="464" stroke="#cbd2d9" />
<text x="16.00" y="38.00" font-size="12" font-family="Arial" fill="#52606d" text-anchor="start">Equity Multiple</text>
<line x1="56" y1="464.00" x2="904" y2="464.00" stroke="#edf2f7" />
<line x1="52" y1="464.00" x2="56" y2="464.00" stroke="#9fb3c8" />
<text x="48.00" y="468.00" font-size="11" font-family="Arial" fill="#52606d" text-anchor="end">0.89</text>
<line x1="56" y1="362.00" x2="904" y2="362.00" stroke="#edf2f7" />
<line x1="52" y1="362.00" x2="56" y2="362.00" stroke="#9fb3c8" />
<text x="48.00" y="366.00" font-size="11" font-family="Arial" fill="#52606d" text-anchor="end">1.05</text>
<line x1="56" y1="260.00" x2="904" y2="260.00" stroke="#edf2f7" />
<line x1="52" y1="260.00" x2="56" y2="260.00" stroke="#9fb3c8" />
<text x="48.00" y="264.00" font-size="11" font-family="Arial" fill="#52606d" text-anchor="end">1.21</text>
<line x1="56" y1="158.00" x2="904" y2="158.00" stroke="#edf2f7" />
<line x1="52" y1="158.00" x2="56" y2="158.00" stroke="#9fb3c8" />
<text x="48.00" y="162.00" font-size="11" font-family="Arial" fill="#52606d" text-anchor="end">1.37</text>
<line x1="56" y1="56.00" x2="904" y2="56.00" stroke="#edf2f7" />
<line x1="52" y1="56.00" x2="56" y2="56.00" stroke="#9fb3c8" />
<text x="48.00" y="60.00" font-size="11" font-family="Arial" fill="#52606d" text-anchor="end">1.52</text>
<line x1="56.00" y1="464" x2="56.00" y2="468" stroke="#9fb3c8" />
<text x="56.00" y="482.00" font-size="11" font-family="Arial" fill="#52606d" text-anchor="middle">07/07</text>
<line x1="226.25" y1="464" x2="226.25" y2="468" stroke="#9fb3c8" />
<text x="226.25" y="482.00" font-size="11" font-family="Arial" fill="#52606d" text-anchor="middle">09/18</text>
<line x1="396.51" y1="464" x2="396.51" y2="468" stroke="#9fb3c8" />
<text x="396.51" y="482.00" font-size="11" font-family="Arial" fill="#52606d" text-anchor="middle">12/02</text>
<line x1="563.49" y1="464" x2="563.49" y2="468" stroke="#9fb3c8" />
<text x="563.49" y="482.00" font-size="11" font-family="Arial" fill="#52606d" text-anchor="middle">02/17</text>
<line x1="733.75" y1="464" x2="733.75" y2="468" stroke="#9fb3c8" />
<text x="733.75" y="482.00" font-size="11" font-family="Arial" fill="#52606d" text-anchor="middle">05/01</text>
<line x1="904.00" y1="464" x2="904.00" y2="468" stroke="#9fb3c8" />
<text x="904.00" y="482.00" font-size="11" font-family="Arial" fill="#52606d" text-anchor="middle">07/17</text>
<polyline fill="none" stroke="#7f7f7f" stroke-width="2" points="56.00,395.45 59.27,388.25 62.55,376.45 65.82,371.45 69.10,368.09 72.37,371.57 75.64,344.42 78.92,341.67 82.19,335.00 85.47,337.41 88.74,341.63 92.02,359.45 95.29,344.09 98.56,331.97 101.84,332.95 105.11,319.64 108.39,324.72 111.66,309.32 114.93,315.05 118.21,332.05 121.48,306.33 124.76,313.45 128.03,308.70 131.31,303.17 134.58,295.27 137.85,297.89 141.13,293.38 144.40,299.81 147.68,298.05 150.95,304.48 154.22,298.09 157.50,324.18 160.77,325.17 164.05,326.89 167.32,314.56 170.59,307.10 173.87,299.08 177.14,299.77 180.42,305.63 183.69,330.16 186.97,344.09 190.24,344.75 193.51,340.49 196.79,359.49 200.06,354.21 203.34,344.17 206.61,317.26 209.88,317.88 213.16,315.21 216.43,315.50 219.71,327.26 222.98,346.06 226.25,321.69 229.53,319.92 232.80,291.50 236.08,312.72 239.35,318.70 242.63,315.75 245.90,313.70 249.17,298.71 252.45,279.33 255.72,276.63 259.00,269.87 262.27,275.07 265.54,283.59 268.82,285.64 272.09,268.97 275.37,254.80 278.64,293.34 281.92,272.20 285.19,306.16 288.46,306.98 291.74,298.87 295.01,293.09 298.29,295.47 301.56,301.53 304.83,305.14 308.11,297.44 311.38,280.64 314.66,259.22 317.93,220.14 321.20,195.52 324.48,212.52 327.75,214.16 331.03,196.18 334.30,229.73 337.58,243.98 340.85,273.19 344.12,272.90 347.40,228.25 350.67,252.38 353.95,249.76 357.22,278.18 360.49,264.63 363.77,279.25 367.04,300.71 370.32,279.58 373.59,303.66 376.86,310.87 380.14,295.84 383.41,315.21 386.69,305.22 389.96,318.57 393.24,306.61 396.51,300.30 399.78,307.96 403.06,292.40 406.33,296.37 409.61,283.51 412.88,285.88 416.15,290.76 419.43,302.43 422.70,326.64 425.98,321.44 429.25,315.58 432.53,343.36 435.80,330.25 439.07,302.19 442.35,291.13 445.62,268.52 448.90,270.97 452.17,263.11 455.44,272.57 458.72,275.36 461.99,279.62 465.27,269.99 468.54,272.98 471.81,276.59 475.09,268.93 478.36,285.60 481.64,286.34 484.91,286.01 488.19,282.44 491.46,293.38 494.73,277.36 498.01,280.72 501.28,314.15 504.56,292.64 507.83,286.42 511.10,274.82 514.38,279.74 517.65,271.34 520.93,259.05 524.20,255.00 527.47,260.65 530.75,283.26 534.02,304.85 537.30,330.04 540.57,339.51 543.85,284.08 547.12,265.12 550.39,271.26 553.67,265.07 556.94,277.81 560.22,294.73 563.49,285.88 566.76,273.55 570.04,273.88 573.31,266.02 576.59,258.93 579.86,253.60 583.14,242.50 586.41,286.21 589.68,317.75 592.96,296.08 596.23,306.04 599.51,293.79 602.78,292.56 606.05,315.17 609.33,295.39 612.60,286.70 615.88,281.50 619.15,293.34 622.42,305.18 625.70,293.01 628.97,298.30 632.25,304.56 635.52,312.10 638.80,336.11 642.07,324.06 645.34,325.87 648.62,311.61 651.89,342.09 655.17,357.33 658.44,366.96 661.71,329.14 664.99,323.61 668.26,316.90 671.54,315.87 674.81,313.99 678.08,297.68 681.36,290.19 684.63,270.85 687.91,268.06 691.18,238.57 694.46,228.90 697.73,231.03 701.00,217.39 704.28,215.83 707.55,224.76 710.83,214.03 714.10,225.75 717.37,190.39 720.65,156.23 723.92,170.32 727.20,186.38 730.47,226.03 733.75,230.62 737.02,230.50 740.29,238.61 743.57,192.19 746.84,177.16 750.12,162.00 753.39,144.63 756.66,139.14 759.94,118.45 763.21,77.86 766.49,120.54 769.76,132.83 773.03,139.84 776.31,128.12 779.58,144.35 782.86,161.47 786.13,163.39 789.41,172.65 792.68,165.89 795.95,178.63 799.23,124.48 802.50,130.79 805.78,163.85 809.05,146.78 812.32,202.40 815.60,187.88 818.87,189.73 822.15,221.59 825.42,203.34 828.69,202.03 831.97,172.25 835.24,192.92 838.52,204.24 841.79,179.47 845.07,187.84 848.34,223.15 851.61,227.42 854.89,240.79 858.16,253.95 861.44,243.95 864.71,222.95 867.98,233.24 871.26,244.52 874.53,241.57 877.81,235.91 881.08,206.42 884.36,211.91 887.63,178.36 890.90,208.84 894.18,174.92 897.45,172.05 900.73,192.97 904.00,211.79" />
<text x="780.00" y="60.00" font-size="14" font-family="Arial" fill="#7f7f7f" text-anchor="start">BuyHold</text>
<polyline fill="none" stroke="#1f77b4" stroke-width="2" points="56.00,395.45 59.27,395.45 62.55,395.45 65.82,395.45 69.10,395.45 72.37,395.45 75.64,395.45 78.92,395.45 82.19,395.45 85.47,395.45 88.74,395.45 92.02,395.45 95.29,395.45 98.56,395.45 101.84,395.45 105.11,395.45 108.39,395.45 111.66,395.45 114.93,395.45 118.21,395.45 121.48,395.45 124.76,395.45 128.03,395.45 131.31,395.45 134.58,395.45 137.85,395.45 141.13,395.45 144.40,395.45 147.68,395.45 150.95,395.45 154.22,395.45 157.50,395.45 160.77,395.45 164.05,395.45 167.32,395.45 170.59,395.45 173.87,395.45 177.14,395.45 180.42,395.45 183.69,395.45 186.97,395.45 190.24,395.45 193.51,395.45 196.79,395.45 200.06,395.45 203.34,395.45 206.61,395.45 209.88,395.45 213.16,395.45 216.43,395.45 219.71,395.45 222.98,395.45 226.25,395.45 229.53,395.45 232.80,395.45 236.08,395.45 239.35,395.45 242.63,395.45 245.90,395.45 249.17,395.45 252.45,395.45 255.72,395.45 259.00,395.45 262.27,395.45 265.54,395.45 268.82,395.45 272.09,395.45 275.37,395.45 278.64,395.45 281.92,395.45 285.19,395.45 288.46,395.45 291.74,395.45 295.01,395.45 298.29,395.45 301.56,395.45 304.83,395.45 308.11,395.45 311.38,395.45 314.66,395.45 317.93,395.45 321.20,395.45 324.48,395.45 327.75,395.45 331.03,395.45 334.30,395.45 337.58,395.45 340.85,395.45 344.12,395.45 347.40,395.45 350.67,395.45 353.95,395.45 357.22,395.45 360.49,395.45 363.77,395.45 367.04,395.45 370.32,395.45 373.59,395.45 376.86,395.45 380.14,395.45 383.41,395.45 386.69,395.45 389.96,395.45 393.24,395.45 396.51,395.45 399.78,395.45 403.06,395.45 406.33,395.45 409.61,395.45 412.88,395.45 416.15,395.45 419.43,395.45 422.70,395.45 425.98,395.45 429.25,395.45 432.53,395.45 435.80,395.45 439.07,395.45 442.35,395.45 445.62,395.45 448.90,395.45 452.17,395.45 455.44,395.45 458.72,395.45 461.99,395.45 465.27,395.45 468.54,395.45 471.81,395.45 475.09,395.45 478.36,395.45 481.64,395.45 484.91,395.45 488.19,395.45 491.46,395.45 494.73,395.45 498.01,395.45 501.28,395.45 504.56,395.45 507.83,395.45 511.10,395.45 514.38,395.45 517.65,395.45 520.93,395.45 524.20,395.45 527.47,395.45 530.75,395.45 534.02,395.45 537.30,395.45 540.57,395.45 543.85,395.45 547.12,395.45 550.39,395.45 553.67,395.45 556.94,395.45 560.22,395.45 563.49,395.45 566.76,395.45 570.04,395.45 573.31,395.45 576.59,395.45 579.86,395.45 583.14,395.45 586.41,395.45 589.68,395.45 592.96,395.45 596.23,395.45 599.51,395.45 602.78,395.45 606.05,395.45 609.33,395.45 612.60,395.45 615.88,395.45 619.15,395.45 622.42,395.45 625.70,395.45 628.97,395.45 632.25,395.45 635.52,395.45 638.80,395.45 642.07,395.45 645.34,395.45 648.62,395.45 651.89,395.45 655.17,395.45 658.44,395.45 661.71,395.45 664.99,395.45 668.26,395.45 671.54,395.45 674.81,395.45 678.08,395.45 681.36,395.45 684.63,395.45 687.91,395.45 691.18,395.45 694.46,395.45 697.73,395.45 701.00,395.45 704.28,395.45 707.55,395.45 710.83,386.96 714.10,396.23 717.37,368.25 720.65,341.20 723.92,352.36 727.20,365.07 730.47,396.46 733.75,400.09 737.02,399.99 740.29,406.41 743.57,369.68 746.84,357.77 750.12,345.78 753.39,332.03 756.66,327.68 759.94,311.31 763.21,279.17 766.49,312.96 769.76,322.69 773.03,328.23 776.31,318.96 779.58,331.80 782.86,345.36 786.13,346.88 789.41,354.21 792.68,348.86 795.95,358.94 799.23,316.07 802.50,321.07 805.78,347.24 809.05,333.73 812.32,377.75 815.60,366.26 818.87,367.72 822.15,392.95 825.42,378.50 828.69,377.46 831.97,353.89 835.24,370.25 838.52,379.21 841.79,359.60 845.07,366.23 848.34,394.18 851.61,397.56 854.89,408.14 858.16,418.56 861.44,410.64 864.71,394.02 867.98,402.17 871.26,411.09 874.53,408.76 877.81,404.28 881.08,380.93 884.36,385.28 887.63,358.73 890.90,382.85 894.18,356.00 897.45,353.73 900.73,370.29 904.00,385.19" />
<text x="780.00" y="82.00" font-size="14" font-family="Arial" fill="#1f77b4" text-anchor="start">MA200</text>
<polyline fill="none" stroke="#2ca02c" stroke-width="2" points="56.00,395.45 59.27,395.45 62.55,395.45 65.82,395.45 69.10,395.45 72.37,395.45 75.64,395.45 78.92,395.45 82.19,395.45 85.47,395.45 88.74,395.45 92.02,395.45 95.29,395.45 98.56,395.45 101.84,395.45 105.11,395.45 108.39,395.45 111.66,395.45 114.93,395.45 118.21,395.45 121.48,395.45 124.76,395.45 128.03,395.45 131.31,395.45 134.58,395.45 137.85,395.45 141.13,395.45 144.40,395.45 147.68,395.45 150.95,395.45 154.22,395.45 157.50,395.45 160.77,395.45 164.05,395.45 167.32,395.45 170.59,395.45 173.87,395.45 177.14,395.45 180.42,395.45 183.69,395.45 186.97,395.45 190.24,395.45 193.51,395.45 196.79,395.45 200.06,395.45 203.34,395.45 206.61,395.45 209.88,395.45 213.16,395.45 216.43,395.45 219.71,395.45 222.98,395.45 226.25,395.45 229.53,395.45 232.80,395.45 236.08,395.45 239.35,395.45 242.63,395.45 245.90,395.45 249.17,395.45 252.45,378.60 255.72,376.24 259.00,370.36 262.27,374.89 265.54,382.30 268.82,384.08 272.09,369.58 275.37,357.25 278.64,390.79 281.92,372.39 285.19,401.94 288.46,402.65 291.74,395.60 295.01,390.57 298.29,392.64 301.56,397.91 304.83,401.05 308.11,394.35 311.38,379.74 314.66,361.10 317.93,327.09 321.20,305.67 324.48,320.46 327.75,321.89 331.03,306.24 334.30,335.43 337.58,347.84 340.85,373.25 344.12,373.00 347.40,334.15 350.67,355.14 353.95,352.86 357.22,377.60 360.49,365.80 363.77,378.52 367.04,397.20 370.32,378.81 373.59,399.77 376.86,406.04 380.14,392.96 383.41,409.82 386.69,401.12 389.96,412.74 393.24,402.33 396.51,396.84 399.78,403.51 403.06,389.96 406.33,389.96 409.61,389.96 412.88,389.96 416.15,389.96 419.43,389.96 422.70,389.96 425.98,389.96 429.25,389.96 432.53,389.96 435.80,389.96 439.07,389.96 442.35,389.96 445.62,389.96 448.90,389.96 452.17,389.96 455.44,389.96 458.72,389.96 461.99,389.96 465.27,389.96 468.54,389.96 471.81,389.96 475.09,389.96 478.36,389.96 481.64,389.96 484.91,389.96 488.19,389.96 491.46,389.96 494.73,389.96 498.01,389.96 501.28,389.96 504.56,389.96 507.83,389.96 511.10,389.96 514.38,389.96 517.65,382.78 520.93,372.26 524.20,368.79 527.47,373.63 530.75,392.98 534.02,411.45 537.30,433.01 540.57,441.11 543.85,393.68 547.12,377.45 550.39,382.71 553.67,377.42 556.94,388.32 560.22,402.79 563.49,395.22 566.76,384.67 570.04,384.95 573.31,378.22 576.59,372.16 579.86,367.60 583.14,358.10 586.41,395.50 589.68,422.49 592.96,403.95 596.23,412.47 599.51,401.99 602.78,400.94 606.05,420.29 609.33,403.35 612.60,395.92 615.88,391.47 619.15,401.60 622.42,411.73 625.70,411.73 628.97,411.73 632.25,411.73 635.52,411.73 638.80,411.73 642.07,411.73 645.34,411.73 648.62,411.73 651.89,411.73 655.17,411.73 658.44,411.73 661.71,411.73 664.99,411.73 668.26,411.73 671.54,411.73 674.81,411.73 678.08,411.73 681.36,411.73 684.63,411.73 687.91,411.73 691.18,411.73 694.46,411.73 697.73,411.73 701.00,411.73 704.28,411.73 707.55,411.73 710.83,411.73 714.10,420.66 717.37,393.73 720.65,367.71 723.92,378.44 727.20,390.67 730.47,420.88 733.75,424.37 737.02,424.28 740.29,430.46 743.57,395.10 746.84,383.65 750.12,372.11 753.39,358.88 756.66,354.69 759.94,338.94 763.21,308.01 766.49,340.53 769.76,349.89 773.03,355.22 776.31,346.30 779.58,358.66 782.86,371.70 786.13,373.17 789.41,380.22 792.68,375.07 795.95,384.77 799.23,343.52 802.50,348.33 805.78,373.51 809.05,360.51 812.32,402.87 815.60,391.82 818.87,393.22 822.15,417.49 825.42,403.59 828.69,402.59 831.97,379.91 835.24,395.66 838.52,404.28 841.79,385.41 845.07,391.78 848.34,418.68 851.61,421.93 854.89,432.11 858.16,442.14 861.44,434.52 864.71,418.53 867.98,418.53 871.26,418.53 874.53,418.53 877.81,418.53 881.08,418.53 884.36,418.53 887.63,418.53 890.90,418.53 894.18,418.53 897.45,418.53 900.73,418.53 904.00,418.53" />
<text x="780.00" y="104.00" font-size="14" font-family="Arial" fill="#2ca02c" text-anchor="start">MA20x60</text>
</svg>