<svg xmlns="http://www.w3.org/2000/svg" width="960" height="520" viewBox="0 0 960 520"><rect width="100%" height="100%" fill="white" />
<text x="56.00" y="32.00" font-size="20" font-family="Arial" fill="#1f2933" text-anchor="start">QQQ Backtest Equity Curves</text>
<line x1="56" y1="464" x2="904" y2="464" stroke="#cbd2d9" />
<line x1="56" y1="56" x2="56" y2="464" stroke="#cbd2d9" />
<text x="16.00" y="38.00" font-size="12" font-family="Arial" fill="#52606d" text-anchor="start">Equity Multiple</text>
<line x1="56" y1="464.00" x2="904" y2="464.00" stroke="#edf2f7" />
<line x1="52" y1="464.00" x2="56" y2="464.00" stroke="#9fb3c8" />
<text x="48.00" y="468.00" font-size="11" font-family="Arial" fill="#52606d" text-anchor="end">0.96</text>
<line x1="56" y1="362.00" x2="904" y2="362.00" stroke="#edf2f7" />
<line x1="52" y1="362.00" x2="56" y2="362.00" stroke="#9fb3c8" />
<text x="48.00" y="366.00" font-size="11" font-family="Arial" fill="#52606d" text-anchor="end">1.07</text>
<line x1="56" y1="260.00" x2="904" y2="260.00" stroke="#edf2f7" />
<line x1="52" y1="260.00" x2="56" y2="260.00" stroke="#9fb3c8" />
<text x="48.00" y="264.00" font-size="11" font-family="Arial" fill="#52606d" text-anchor="end">1.17</text>
<line x1="56" y1="158.00" x2="904" y2="158.00" stroke="#edf2f7" />
<line x1="52" y1="158.00" x2="56" y2="158.00" stroke="#9fb3c8" />
<text x="48.00" y="162.00" font-size="11" font-family="Arial" fill="#52606d" text-anchor="end">1.28</text>
<line x1="56" y1="56.00" x2="904" y2="56.00" stroke="#edf2f7" />
<line x1="52" y1="56.00" x2="56" y2="56.00" stroke="#9fb3c8" />
<text x="48.00" y="60.00" font-size="11" font-family="Arial" fill="#52606d" text-anchor="end">1.38</text>
<line x1="56.00" y1="464" x2="56.00" y2="468" stroke="#9fb3c8" />
<text x="56.00" y="482.00" font-size="11" font-family="Arial" fill="#52606d" text-anchor="middle">07/02</text>
<line x1="226.25" y1="464" x2="226.25" y2="468" stroke="#9fb3c8" />
<text x="226.25" y="482.00" font-size="11" font-family="Arial" fill="#52606d" text-anchor="middle">09/16</text>
<line x1="396.51" y1="464" x2="396.51" y2="468" stroke="#9fb3c8" />
<text x="396.51" y="482.00" font-size="11" font-family="Arial" fill="#52606d" text-anchor="middle">11/28</text>
<line x1="563.49" y1="464" x2="563.49" y2="468" stroke="#9fb3c8" />
<text x="563.49" y="482.00" font-size="11" font-family="Arial" fill="#52606d" text-anchor="middle">02/12</text>
<line x1="733.75" y1="464" x2="733.75" y2="468" stroke="#9fb3c8" />
<text x="733.75" y="482.00" font-size="11" font-family="Arial" fill="#52606d" text-anchor="middle">04/29</text>
<line x1="904.00" y1="464" x2="904.00" y2="468" stroke="#9fb3c8" />
<text x="904.00" y="482.00" font-size="11" font-family="Arial" fill="#52606d" text-anchor="middle">07/15</text>
<polyline fill="none" stroke="#7f7f7f" stroke-width="2" points="56.00,429.21 59.27,419.60 62.55,427.03 65.82,426.48 69.10,419.54 72.37,420.96 75.64,423.18 78.92,419.61 82.19,418.71 85.47,417.70 88.74,409.70 92.02,410.66 95.29,405.50 98.56,410.68 101.84,406.14 105.11,404.01 108.39,401.60 111.66,398.46 114.93,400.02 118.21,398.67 121.48,404.01 124.76,423.75 128.03,405.62 131.31,412.41 134.58,399.91 137.85,396.51 141.13,387.09 144.40,390.11 147.68,377.34 150.95,376.82 154.22,377.62 157.50,382.14 160.77,382.55 164.05,396.44 167.32,402.43 170.59,407.08 173.87,391.67 177.14,394.59 180.42,390.53 183.69,388.97 186.97,382.60 190.24,394.45 193.51,402.93 196.79,395.04 200.06,385.89 203.34,384.41 206.61,379.43 209.88,376.52 213.16,376.19 216.43,370.19 219.71,365.62 222.98,356.71 226.25,357.60 229.53,359.69 232.80,350.26 236.08,343.11 239.35,336.82 242.63,343.92 245.90,347.65 249.17,352.21 252.45,347.88 255.72,342.98 259.00,340.07 262.27,334.96 265.54,330.55 268.82,335.08 272.09,327.04 275.37,332.72 278.64,320.42 281.92,321.73 285.19,359.37 288.46,337.16 291.74,344.28 295.01,336.79 298.29,340.74 301.56,333.75 304.83,320.24 308.11,320.52 311.38,330.98 314.66,321.94 317.93,310.37 321.20,290.86 324.48,282.28 327.75,277.22 331.03,294.48 334.30,289.12 337.58,283.77 340.85,306.55 344.12,299.40 347.40,320.01 350.67,323.43 353.95,299.48 357.22,302.43 360.49,303.30 363.77,325.81 367.04,325.00 370.32,334.23 373.59,347.28 376.86,340.96 380.14,366.17 383.41,358.36 386.69,331.57 389.96,324.94 393.24,315.39 396.51,306.55 399.78,310.24 403.06,301.67 406.33,298.97 409.61,300.00 412.88,295.49 416.15,297.62 419.43,296.25 422.70,291.71 425.98,295.31 429.25,316.55 432.53,322.01 435.80,319.87 439.07,340.00 442.35,324.55 445.62,310.46 448.90,305.21 452.17,300.05 455.44,296.81 458.72,296.89 461.99,302.25 465.27,304.81 468.54,313.92 471.81,316.03 475.09,307.37 478.36,297.72 481.64,296.65 484.91,302.97 488.19,291.98 491.46,291.05 494.73,292.71 498.01,304.60 501.28,300.64 504.56,301.56 507.83,325.03 511.10,310.41 514.38,302.45 517.65,298.97 520.93,294.09 524.20,284.02 527.47,280.30 530.75,287.04 534.02,300.48 537.30,292.89 540.57,309.99 543.85,329.13 547.12,344.63 550.39,322.20 553.67,313.90 556.94,318.96 560.22,316.05 563.49,338.22 566.76,335.94 570.04,337.04 573.31,329.06 576.59,333.19 579.86,323.69 583.14,336.85 586.41,325.36 589.68,309.70 592.96,322.93 596.23,326.39 599.51,324.97 602.78,336.55 606.05,320.24 609.33,323.52 612.60,339.80 615.88,325.56 619.15,325.54 622.42,325.68 625.70,344.22 628.97,350.52 632.25,338.68 635.52,333.47 638.80,348.42 642.07,351.76 645.34,371.25 648.62,359.37 651.89,366.52 655.17,359.69 658.44,384.66 661.71,404.61 664.99,412.27 668.26,378.63 671.54,365.94 674.81,364.74 678.08,358.48 681.36,358.32 684.63,327.17 687.91,319.87 691.18,318.31 694.46,307.06 697.73,287.10 701.00,271.44 704.28,265.98 707.55,251.06 710.83,254.73 714.10,259.11 717.37,239.92 720.65,246.49 723.92,224.31 727.20,223.69 730.47,235.58 733.75,228.42 737.02,217.44 740.29,206.03 743.57,208.29 746.84,192.75 750.12,167.55 753.39,169.02 756.66,140.03 759.94,136.36 763.21,147.13 766.49,133.84 769.76,124.79 773.03,144.12 776.31,149.55 779.58,157.29 782.86,136.61 786.13,134.19 789.41,128.80 792.68,106.12 795.95,107.60 799.23,96.65 802.50,91.83 805.78,83.94 809.05,77.86 812.32,81.33 815.60,87.74 818.87,151.01 822.15,131.41 825.42,146.08 828.69,171.25 831.97,129.55 835.24,122.03 838.52,81.70 841.79,106.87 845.07,119.95 848.34,87.72 851.61,91.03 854.89,134.33 858.16,139.73 861.44,129.46 864.71,147.03 867.98,115.74 871.26,93.79 874.53,113.80 877.81,136.20 881.08,117.99 884.36,141.85 887.63,138.26 890.90,117.17 894.18,113.19 897.45,137.73 900.73,123.56 904.00,127.04" />
<text x="780.00" y="60.00" font-size="14" font-family="Arial" fill="#7f7f7f" text-anchor="start">BuyHold</text>
<polyline fill="none" stroke="#1f77b4" stroke-width="2" points="56.00,429.21 59.27,429.21 62.55,429.21 65.82,429.21 69.10,429.21 72.37,429.21 75.64,429.21 78.92,429.21 82.19,429.21 85.47,429.21 88.74,429.21 92.02,429.21 95.29,429.21 98.56,429.21 101.84,429.21 105.11,429.21 108.39,429.21 111.66,429.21 114.93,429.21 118.21,429.21 121.48,429.21 124.76,429.21 128.03,429.21 131.31,429.21 134.58,429.21 137.85,429.21 141.13,429.21 144.40,429.21 147.68,429.21 150.95,429.21 154.22,429.21 157.50,429.21 160.77,429.21 164.05,429.21 167.32,429.21 170.59,429.21 173.87,429.21 177.14,429.21 180.42,429.21 183.69,429.21 186.97,429.21 190.24,429.21 193.51,429.21 196.79,429.21 200.06,429.21 203.34,429.21 206.61,429.21 209.88,429.21 213.16,429.21 216.43,429.21 219.71,429.21 222.98,429.21 226.25,429.21 229.53,429.21 232.80,429.21 236.08,429.21 239.35,429.21 242.63,429.21 245.90,429.21 249.17,429.21 252.45,429.21 255.72,429.21 259.00,429.21 262.27,429.21 265.54,429.21 268.82,429.21 272.09,429.21 275.37,429.21 278.64,429.21 281.92,429.21 285.19,429.21 288.46,429.21 291.74,429.21 295.01,429.21 298.29,429.21 301.56,429.21 304.83,429.21 308.11,429.21 311.38,429.21 314.66,429.21 317.93,429.21 321.20,429.21 324.48,429.21 327.75,429.21 331.03,429.21 334.30,429.21 337.58,429.21 340.85,429.21 344.12,429.21 347.40,429.21 350.67,429.21 353.95,429.21 357.22,429.21 360.49,429.21 363.77,429.21 367.04,429.21 370.32,429.21 373.59,429.21 376.86,429.21 380.14,429.21 383.41,429.21 386.69,429.21 389.96,429.21 393.24,429.21 396.51,429.21 399.78,429.21 403.06,429.21 406.33,429.21 409.61,429.21 412.88,429.21 416.15,429.21 419.43,429.21 422.70,429.21 425.98,429.21 429.25,429.21 432.53,429.21 435.80,429.21 439.07,429.21 442.35,429.21 445.62,429.21 448.90,429.21 452.17,429.21 455.44,429.21 458.72,429.21 461.99,429.21 465.27,429.21 468.54,429.21 471.81,429.21 475.09,429.21 478.36,429.21 481.64,429.21 484.91,429.21 488.19,429.21 491.46,429.21 494.73,429.21 498.01,429.21 501.28,429.21 504.56,429.21 507.83,429.21 511.10,429.21 514.38,429.21 517.65,429.21 520.93,429.21 524.20,429.21 527.47,429.21 530.75,429.21 534.02,429.21 537.30,429.21 540.57,429.21 543.85,429.21 547.12,429.21 550.39,429.21 553.67,429.21 556.94,429.21 560.22,429.21 563.49,429.21 566.76,429.21 570.04,429.21 573.31,429.21 576.59,429.21 579.86,429.21 583.14,429.21 586.41,429.21 589.68,429.21 592.96,429.21 596.23,429.21 599.51,429.21 602.78,429.21 606.05,429.21 609.33,429.21 612.60,429.21 615.88,429.21 619.15,429.21 622.42,429.21 625.70,429.21 628.97,429.21 632.25,429.21 635.52,429.21 638.80,429.21 642.07,429.21 645.34,429.21 648.62,429.21 651.89,429.21 655.17,429.21 658.44,429.21 661.71,429.21 664.99,429.21 668.26,429.21 671.54,429.21 674.81,429.21 678.08,429.21 681.36,429.21 684.63,429.21 687.91,429.21 691.18,429.21 694.46,429.21 697.73,429.21 701.00,429.21 704.28,429.21 707.55,429.21 710.83,432.31 714.10,436.01 717.37,419.78 720.65,425.34 723.92,406.58 727.20,406.06 730.47,416.11 733.75,410.06 737.02,400.77 740.29,391.12 743.57,393.03 746.84,379.89 750.12,358.58 753.39,359.83 756.66,335.30 759.94,332.20 763.21,341.31 766.49,330.07 769.76,322.42 773.03,338.77 776.31,343.36 779.58,349.91 782.86,332.41 786.13,330.37 789.41,325.81 792.68,306.63 795.95,307.88 799.23,298.62 802.50,294.54 805.78,287.87 809.05,282.72 812.32,285.66 815.60,291.08 818.87,344.59 822.15,328.02 825.42,340.42 828.69,361.71 831.97,326.44 835.24,320.08 838.52,285.97 841.79,307.26 845.07,318.32 848.34,291.06 851.61,293.86 854.89,330.48 858.16,335.05 861.44,326.37 864.71,341.23 867.98,314.76 871.26,296.20 874.53,313.12 877.81,332.06 881.08,316.66 884.36,336.84 887.63,333.81 890.90,315.97 894.18,312.61 897.45,333.36 900.73,321.38 904.00,324.32" />
<text x="780.00" y="82.00" font-size="14" font-family="Arial" fill="#1f77b4" text-anchor="start">MA200</text>
<polyline fill="none" stroke="#2ca02c" stroke-width="2" points="56.00,429.21 59.27,429.21 62.55,429.21 65.82,429.21 69.10,429.21 72.37,429.21 75.64,429.21 78.92,429.21 82.19,429.21 85.47,429.21 88.74,429.21 92.02,429.21 95.29,429.21 98.56,429.21 101.84,429.21 105.11,429.21 108.39,429.21 111.66,429.21 114.93,429.21 118.21,429.21 121.48,429.21 124.76,429.21 128.03,429.21 131.31,429.21 134.58,429.21 137.85,429.21 141.13,429.21 144.40,429.21 147.68,429.21 150.95,429.21 154.22,429.21 157.50,429.21 160.77,429.21 164.05,429.21 167.32,429.21 170.59,429.21 173.87,429.21 177.14,429.21 180.42,429.21 183.69,429.21 186.97,429.21 190.24,429.21 193.51,429.21 196.79,429.21 200.06,429.21 203.34,429.21 206.61,429.21 209.88,429.21 213.16,429.21 216.43,429.21 219.71,429.21 222.98,429.21 226.25,429.21 229.53,429.21 232.80,429.21 236.08,429.21 239.35,429.21 242.63,429.21 245.90,429.21 249.17,429.21 252.45,425.19 255.72,420.65 259.00,417.95 262.27,413.21 265.54,409.13 268.82,413.33 272.09,405.87 275.37,411.14 278.64,399.73 281.92,400.95 285.19,435.84 288.46,415.25 291.74,421.85 295.01,414.91 298.29,418.58 301.56,412.09 304.83,399.57 308.11,399.83 311.38,409.53 314.66,401.15 317.93,390.42 321.20,372.33 324.48,364.39 327.75,359.70 331.03,375.69 334.30,370.72 337.58,365.77 340.85,386.88 344.12,380.25 347.40,399.36 350.67,402.53 353.95,380.33 357.22,383.06 360.49,383.87 363.77,404.74 367.04,403.98 370.32,412.54 373.59,424.63 376.86,418.77 380.14,442.14 383.41,434.90 386.69,410.07 389.96,403.93 393.24,395.08 396.51,386.88 399.78,390.30 403.06,382.36 406.33,379.85 409.61,380.81 412.88,376.63 416.15,378.60 419.43,377.34 422.70,373.12 425.98,376.46 429.25,396.15 432.53,401.22 435.80,399.22 439.07,417.89 442.35,403.57 445.62,390.50 448.90,385.63 452.17,380.86 455.44,377.86 458.72,377.92 461.99,382.90 465.27,385.27 468.54,393.71 471.81,395.67 475.09,387.64 478.36,378.70 481.64,377.71 484.91,383.56 488.19,373.37 491.46,372.52 494.73,374.05 498.01,385.07 501.28,381.40 504.56,382.26 507.83,404.01 511.10,390.46 514.38,383.08 517.65,379.85 520.93,375.34 524.20,365.99 527.47,362.55 530.75,368.79 534.02,381.25 537.30,374.22 540.57,390.07 543.85,407.81 547.12,422.18 550.39,401.39 553.67,393.69 556.94,398.39 560.22,395.69 563.49,416.23 566.76,414.12 570.04,415.15 573.31,415.15 576.59,415.15 579.86,415.15 583.14,415.15 586.41,415.15 589.68,415.15 592.96,415.15 596.23,415.15 599.51,415.15 602.78,415.15 606.05,415.15 609.33,415.15 612.60,415.15 615.88,415.15 619.15,415.15 622.42,415.15 625.70,415.15 628.97,415.15 632.25,415.15 635.52,415.15 638.80,415.15 642.07,415.15 645.34,415.15 648.62,415.15 651.89,415.15 655.17,415.15 658.44,415.15 661.71,415.15 664.99,415.15 668.26,415.15 671.54,415.15 674.81,415.15 678.08,415.15 681.36,415.15 684.63,415.15 687.91,415.15 691.18,415.15 694.46,415.15 697.73,415.15 701.00,415.15 704.28,415.15 707.55,415.15 710.83,415.15 714.10,415.15 717.37,415.15 720.65,420.73 723.92,401.88 727.20,401.35 730.47,411.46 733.75,405.38 737.02,396.04 740.29,386.35 743.57,388.27 746.84,375.07 750.12,353.65 753.39,354.91 756.66,330.27 759.94,327.15 763.21,336.30 766.49,325.01 769.76,317.32 773.03,333.75 776.31,338.36 779.58,344.94 782.86,327.36 786.13,325.31 789.41,320.73 792.68,301.46 795.95,302.71 799.23,293.41 802.50,289.31 805.78,282.61 809.05,277.44 812.32,280.39 815.60,285.83 818.87,339.60 822.15,322.95 825.42,335.41 828.69,356.80 831.97,321.36 835.24,314.98 838.52,280.71 841.79,302.09 845.07,313.21 848.34,285.82 851.61,288.63 854.89,325.42 858.16,330.01 861.44,321.29 864.71,336.22 867.98,309.63 871.26,290.98 874.53,307.98 877.81,327.01 881.08,311.54 884.36,331.81 887.63,328.77 890.90,310.84 894.18,307.47 897.45,328.31 900.73,316.28 904.00,319.23" />
<text x="780.00" y="104.00" font-size="14" font-family="Arial" fill="#2ca02c" text-anchor="start">MA20x60</text>
</svg>