<svg xmlns="http://www.w3.org/2000/svg" width="960" height="520" viewBox="0 0 960 520"><rect width="100%" height="100%" fill="white" />
<text x="56.00" y="32.00" font-size="20" font-family="Arial" fill="#1f2933" text-anchor="start">SOXX Backtest Equity Curves</text>
<line x1="56" y1="464" x2="904" y2="464" stroke="#cbd2d9" />
<line x1="56" y1="56" x2="56" y2="464" stroke="#cbd2d9" />
<text x="16.00" y="38.00" font-size="12" font-family="Arial" fill="#52606d" text-anchor="start">Equity Multiple</text>
<line x1="56" y1="464.00" x2="904" y2="464.00" stroke="#edf2f7" />
<line x1="52" y1="464.00" x2="56" y2="464.00" stroke="#9fb3c8" />
<text x="48.00" y="468.00" font-size="11" font-family="Arial" fill="#52606d" text-anchor="end">0.89</text>
<line x1="56" y1="362.00" x2="904" y2="362.00" stroke="#edf2f7" />
<line x1="52" y1="362.00" x2="56" y2="362.00" stroke="#9fb3c8" />
<text x="48.00" y="366.00" font-size="11" font-family="Arial" fill="#52606d" text-anchor="end">1.40</text>
<line x1="56" y1="260.00" x2="904" y2="260.00" stroke="#edf2f7" />
<line x1="52" y1="260.00" x2="56" y2="260.00" stroke="#9fb3c8" />
<text x="48.00" y="264.00" font-size="11" font-family="Arial" fill="#52606d" text-anchor="end">1.90</text>
<line x1="56" y1="158.00" x2="904" y2="158.00" stroke="#edf2f7" />
<line x1="52" y1="158.00" x2="56" y2="158.00" stroke="#9fb3c8" />
<text x="48.00" y="162.00" font-size="11" font-family="Arial" fill="#52606d" text-anchor="end">2.40</text>
<line x1="56" y1="56.00" x2="904" y2="56.00" stroke="#edf2f7" />
<line x1="52" y1="56.00" x2="56" y2="56.00" stroke="#9fb3c8" />
<text x="48.00" y="60.00" font-size="11" font-family="Arial" fill="#52606d" text-anchor="end">2.91</text>
<line x1="56.00" y1="464" x2="56.00" y2="468" stroke="#9fb3c8" />
<text x="56.00" y="482.00" font-size="11" font-family="Arial" fill="#52606d" text-anchor="middle">06/24</text>
<line x1="226.25" y1="464" x2="226.25" y2="468" stroke="#9fb3c8" />
<text x="226.25" y="482.00" font-size="11" font-family="Arial" fill="#52606d" text-anchor="middle">09/08</text>
<line x1="396.51" y1="464" x2="396.51" y2="468" stroke="#9fb3c8" />
<text x="396.51" y="482.00" font-size="11" font-family="Arial" fill="#52606d" text-anchor="middle">11/19</text>
<line x1="563.49" y1="464" x2="563.49" y2="468" stroke="#9fb3c8" />
<text x="563.49" y="482.00" font-size="11" font-family="Arial" fill="#52606d" text-anchor="middle">02/04</text>
<line x1="733.75" y1="464" x2="733.75" y2="468" stroke="#9fb3c8" />
<text x="733.75" y="482.00" font-size="11" font-family="Arial" fill="#52606d" text-anchor="middle">04/21</text>
<line x1="904.00" y1="464" x2="904.00" y2="468" stroke="#9fb3c8" />
<text x="904.00" y="482.00" font-size="11" font-family="Arial" fill="#52606d" text-anchor="middle">07/07</text>
<polyline fill="none" stroke="#7f7f7f" stroke-width="2" points="56.00,442.14 59.27,440.33 62.55,438.72 65.82,438.90 69.10,439.04 72.37,439.97 75.64,436.08 78.92,435.05 82.19,438.97 85.47,435.05 88.74,434.37 92.02,432.28 95.29,432.61 98.56,434.62 101.84,432.53 105.11,433.11 108.39,432.30 111.66,432.13 114.93,431.94 118.21,434.87 121.48,436.15 124.76,436.58 128.03,436.60 131.31,432.97 134.58,432.59 137.85,431.08 141.13,437.90 144.40,440.30 147.68,437.58 150.95,439.02 154.22,440.57 157.50,437.20 160.77,435.45 164.05,435.85 167.32,429.17 170.59,425.97 173.87,425.74 177.14,430.76 180.42,430.13 183.69,433.49 186.97,434.70 190.24,435.89 193.51,430.09 196.79,430.59 200.06,428.58 203.34,428.16 206.61,427.11 209.88,433.34 213.16,435.49 216.43,436.48 219.71,434.33 222.98,431.85 226.25,430.30 229.53,430.12 232.80,426.34 236.08,424.84 239.35,424.45 242.63,422.59 245.90,421.45 249.17,421.50 252.45,413.69 255.72,415.17 259.00,411.74 262.27,412.02 265.54,412.37 268.82,413.11 272.09,412.61 275.37,412.52 278.64,410.63 281.92,406.12 285.19,401.51 288.46,403.00 291.74,395.75 295.01,401.32 298.29,393.01 301.56,394.17 304.83,409.88 308.11,398.76 311.38,403.80 314.66,396.37 317.93,395.21 321.20,395.91 324.48,391.77 327.75,393.19 331.03,399.40 334.30,393.42 337.58,389.28 340.85,382.18 344.12,381.86 347.40,377.42 350.67,381.03 353.95,380.05 357.22,378.47 360.49,388.93 363.77,380.98 367.04,387.86 370.32,390.55 373.59,383.98 376.86,389.89 380.14,385.99 383.41,394.87 386.69,395.61 389.96,399.89 393.24,405.57 396.51,401.58 399.78,413.24 403.06,410.88 406.33,400.63 409.61,399.88 412.88,393.13 416.15,388.52 419.43,388.36 422.70,383.25 425.98,377.63 429.25,380.28 432.53,377.59 435.80,374.69 439.07,375.19 442.35,371.61 445.62,373.17 448.90,386.15 452.17,387.42 455.44,388.61 458.72,398.09 461.99,392.20 465.27,385.49 468.54,382.01 471.81,381.04 475.09,380.02 478.36,380.10 481.64,380.73 484.91,381.07 488.19,384.33 491.46,373.49 494.73,369.71 498.01,360.82 501.28,363.81 504.56,368.40 507.83,360.45 511.10,359.09 514.38,356.54 517.65,357.75 520.93,353.15 524.20,348.62 527.47,353.04 530.75,343.71 534.02,343.26 537.30,346.68 540.57,348.10 543.85,341.17 547.12,333.07 550.39,332.49 553.67,345.31 556.94,339.78 560.22,345.88 563.49,359.07 566.76,358.68 570.04,343.40 573.31,339.71 576.59,340.87 579.86,333.29 583.14,340.81 586.41,338.08 589.68,338.56 592.96,335.26 596.23,337.06 599.51,333.96 602.78,336.21 606.05,331.70 609.33,326.55 612.60,336.23 615.88,340.13 619.15,340.34 622.42,355.26 625.70,349.42 628.97,352.69 632.25,365.00 635.52,353.89 638.80,351.78 642.07,348.94 645.34,359.23 648.62,358.25 651.89,352.63 655.17,350.35 658.44,352.05 661.71,350.40 664.99,357.05 668.26,353.52 671.54,349.69 674.81,346.03 678.08,360.21 681.36,364.86 684.63,376.70 687.91,360.38 691.18,351.83 694.46,350.91 697.73,347.02 701.00,343.86 704.28,324.28 707.55,317.16 710.83,310.27 714.10,304.44 717.37,297.60 720.65,297.07 723.92,293.53 727.20,285.09 730.47,283.50 733.75,280.77 737.02,271.20 740.29,263.22 743.57,245.40 746.84,250.75 750.12,265.20 753.39,255.44 756.66,245.54 759.94,241.81 763.21,245.00 766.49,227.13 769.76,206.25 773.03,218.80 776.31,194.63 779.58,183.86 782.86,198.36 786.13,187.72 789.41,186.22 792.68,204.82 795.95,215.76 799.23,215.01 802.50,194.62 805.78,190.82 809.05,179.90 812.32,151.57 815.60,156.86 818.87,152.11 822.15,152.44 825.42,149.98 828.69,121.36 831.97,112.14 835.24,123.35 838.52,177.79 841.79,150.39 845.07,158.45 848.34,176.29 851.61,137.01 854.89,128.95 858.16,100.84 861.44,133.04 864.71,125.69 867.98,91.32 871.26,77.86 874.53,122.52 877.81,124.16 881.08,103.65 884.36,134.16 887.63,113.04 890.90,90.19 894.18,125.72 897.45,154.60 900.73,141.46 904.00,167.26" />
<text x="780.00" y="60.00" font-size="14" font-family="Arial" fill="#7f7f7f" text-anchor="start">BuyHold</text>
<polyline fill="none" stroke="#1f77b4" stroke-width="2" points="56.00,442.14 59.27,442.14 62.55,442.14 65.82,442.14 69.10,442.14 72.37,442.14 75.64,442.14 78.92,442.14 82.19,442.14 85.47,442.14 88.74,442.14 92.02,442.14 95.29,442.14 98.56,442.14 101.84,442.14 105.11,442.14 108.39,442.14 111.66,442.14 114.93,442.14 118.21,442.14 121.48,442.14 124.76,442.14 128.03,442.14 131.31,442.14 134.58,442.14 137.85,442.14 141.13,442.14 144.40,442.14 147.68,442.14 150.95,442.14 154.22,442.14 157.50,442.14 160.77,442.14 164.05,442.14 167.32,442.14 170.59,442.14 173.87,442.14 177.14,442.14 180.42,442.14 183.69,442.14 186.97,442.14 190.24,442.14 193.51,442.14 196.79,442.14 200.06,442.14 203.34,442.14 206.61,442.14 209.88,442.14 213.16,442.14 216.43,442.14 219.71,442.14 222.98,442.14 226.25,442.14 229.53,442.14 232.80,442.14 236.08,442.14 239.35,442.14 242.63,442.14 245.90,442.14 249.17,442.14 252.45,442.14 255.72,442.14 259.00,442.14 262.27,442.14 265.54,442.14 268.82,442.14 272.09,442.14 275.37,442.14 278.64,442.14 281.92,442.14 285.19,442.14 288.46,442.14 291.74,442.14 295.01,442.14 298.29,442.14 301.56,442.14 304.83,442.14 308.11,442.14 311.38,442.14 314.66,442.14 317.93,442.14 321.20,442.14 324.48,442.14 327.75,442.14 331.03,442.14 334.30,442.14 337.58,442.14 340.85,442.14 344.12,442.14 347.40,442.14 350.67,442.14 353.95,442.14 357.22,442.14 360.49,442.14 363.77,442.14 367.04,442.14 370.32,442.14 373.59,442.14 376.86,442.14 380.14,442.14 383.41,442.14 386.69,442.14 389.96,442.14 393.24,442.14 396.51,442.14 399.78,442.14 403.06,442.14 406.33,442.14 409.61,442.14 412.88,442.14 416.15,442.14 419.43,442.14 422.70,442.14 425.98,442.14 429.25,442.14 432.53,442.14 435.80,442.14 439.07,442.14 442.35,442.14 445.62,442.14 448.90,442.14 452.17,442.14 455.44,442.14 458.72,442.14 461.99,442.14 465.27,442.14 468.54,442.14 471.81,442.14 475.09,442.14 478.36,442.14 481.64,442.14 484.91,442.14 488.19,442.14 491.46,442.14 494.73,442.14 498.01,442.14 501.28,442.14 504.56,442.14 507.83,442.14 511.10,442.14 514.38,442.14 517.65,442.14 520.93,442.14 524.20,442.14 527.47,442.14 530.75,442.14 534.02,442.14 537.30,442.14 540.57,442.14 543.85,442.14 547.12,442.14 550.39,442.14 553.67,442.14 556.94,442.14 560.22,442.14 563.49,442.14 566.76,442.14 570.04,442.14 573.31,442.14 576.59,442.14 579.86,442.14 583.14,442.14 586.41,442.14 589.68,442.14 592.96,442.14 596.23,442.14 599.51,442.14 602.78,442.14 606.05,442.14 609.33,442.14 612.60,442.14 615.88,442.14 619.15,442.14 622.42,442.14 625.70,442.14 628.97,442.14 632.25,442.14 635.52,442.14 638.80,442.14 642.07,442.14 645.34,442.14 648.62,442.14 651.89,442.14 655.17,442.14 658.44,442.14 661.71,442.14 664.99,442.14 668.26,442.14 671.54,442.14 674.81,442.14 678.08,442.14 681.36,442.14 684.63,442.14 687.91,442.14 691.18,442.14 694.46,442.14 697.73,442.14 701.00,442.14 704.28,442.14 707.55,442.14 710.83,437.88 714.10,434.28 717.37,430.05 720.65,429.72 723.92,427.53 727.20,422.31 730.47,421.33 733.75,419.64 737.02,413.72 740.29,408.79 743.57,397.77 746.84,401.08 750.12,410.01 753.39,403.98 756.66,397.86 759.94,395.55 763.21,397.53 766.49,386.47 769.76,373.56 773.03,381.32 776.31,366.38 779.58,359.72 782.86,368.69 786.13,362.11 789.41,361.18 792.68,372.68 795.95,379.45 799.23,378.98 802.50,366.38 805.78,364.02 809.05,357.27 812.32,339.75 815.60,343.02 818.87,340.09 822.15,340.29 825.42,338.77 828.69,321.07 831.97,315.37 835.24,322.30 838.52,355.97 841.79,339.03 845.07,344.01 848.34,355.04 851.61,330.75 854.89,325.76 858.16,308.38 861.44,328.29 864.71,323.75 867.98,302.50 871.26,294.17 874.53,321.79 877.81,322.80 881.08,310.12 884.36,328.99 887.63,315.93 890.90,301.80 894.18,323.77 897.45,341.63 900.73,333.50 904.00,349.45" />
<text x="780.00" y="82.00" font-size="14" font-family="Arial" fill="#1f77b4" text-anchor="start">MA200</text>
<polyline fill="none" stroke="#2ca02c" stroke-width="2" points="56.00,442.14 59.27,442.14 62.55,442.14 65.82,442.14 69.10,442.14 72.37,442.14 75.64,442.14 78.92,442.14 82.19,442.14 85.47,442.14 88.74,442.14 92.02,442.14 95.29,442.14 98.56,442.14 101.84,442.14 105.11,442.14 108.39,442.14 111.66,442.14 114.93,442.14 118.21,442.14 121.48,442.14 124.76,442.14 128.03,442.14 131.31,442.14 134.58,442.14 137.85,442.14 141.13,442.14 144.40,442.14 147.68,442.14 150.95,442.14 154.22,442.14 157.50,442.14 160.77,442.14 164.05,442.14 167.32,442.14 170.59,442.14 173.87,442.14 177.14,442.14 180.42,442.14 183.69,442.14 186.97,442.14 190.24,442.14 193.51,442.14 196.79,442.14 200.06,442.14 203.34,442.14 206.61,442.14 209.88,442.14 213.16,442.14 216.43,442.14 219.71,442.14 222.98,442.14 226.25,442.14 229.53,442.14 232.80,442.14 236.08,442.14 239.35,442.14 242.63,442.14 245.90,442.14 249.17,442.14 252.45,435.06 255.72,436.40 259.00,433.29 262.27,433.54 265.54,433.86 268.82,434.54 272.09,434.08 275.37,434.00 278.64,432.28 281.92,428.19 285.19,424.00 288.46,425.36 291.74,418.78 295.01,423.83 298.29,416.29 301.56,417.35 304.83,431.60 308.11,421.51 311.38,426.09 314.66,419.34 317.93,418.29 321.20,418.93 324.48,415.17 327.75,416.45 331.03,422.09 334.30,416.67 337.58,412.91 340.85,406.47 344.12,406.18 347.40,402.14 350.67,405.43 353.95,404.53 357.22,403.10 360.49,412.59 363.77,405.38 367.04,411.62 370.32,414.06 373.59,408.10 376.86,413.46 380.14,409.92 383.41,417.98 386.69,418.65 389.96,422.54 393.24,427.69 396.51,424.07 399.78,434.65 403.06,432.51 406.33,423.21 409.61,422.52 412.88,416.41 416.15,412.22 419.43,412.08 422.70,407.44 425.98,402.33 429.25,404.74 432.53,402.30 435.80,399.67 439.07,400.12 442.35,396.87 445.62,398.29 448.90,410.07 452.17,411.22 455.44,412.30 458.72,420.90 461.99,415.56 465.27,409.47 468.54,406.31 471.81,405.43 475.09,404.50 478.36,404.58 481.64,405.15 484.91,405.46 488.19,408.42 491.46,398.58 494.73,395.15 498.01,387.08 501.28,389.80 504.56,393.96 507.83,386.75 511.10,385.51 514.38,383.20 517.65,384.30 520.93,380.13 524.20,376.01 527.47,380.02 530.75,371.56 534.02,371.14 537.30,374.25 540.57,375.54 543.85,369.25 547.12,361.90 550.39,361.37 553.67,373.00 556.94,367.99 560.22,373.52 563.49,385.49 566.76,385.14 570.04,371.27 573.31,367.93 576.59,368.98 579.86,362.10 583.14,368.92 586.41,366.45 589.68,366.89 592.96,363.89 596.23,365.52 599.51,362.70 602.78,364.75 606.05,360.66 609.33,355.98 612.60,364.77 615.88,368.30 619.15,368.49 622.42,382.04 625.70,376.74 628.97,379.70 632.25,390.88 635.52,380.79 638.80,378.88 642.07,376.31 645.34,385.64 648.62,384.75 651.89,379.65 655.17,377.58 658.44,379.12 661.71,377.62 664.99,383.66 668.26,380.46 671.54,376.98 674.81,373.66 678.08,373.66 681.36,373.66 684.63,373.66 687.91,373.66 691.18,373.66 694.46,373.66 697.73,373.66 701.00,373.66 704.28,373.66 707.55,373.66 710.83,373.66 714.10,373.66 717.37,373.66 720.65,373.24 723.92,370.48 727.20,363.89 730.47,362.65 733.75,360.52 737.02,353.04 740.29,346.81 743.57,332.90 746.84,337.08 750.12,348.36 753.39,340.74 756.66,333.01 759.94,330.09 763.21,332.59 766.49,318.63 769.76,302.33 773.03,312.12 776.31,293.26 779.58,284.84 782.86,296.17 786.13,287.86 789.41,286.69 792.68,301.21 795.95,309.75 799.23,309.17 802.50,293.25 805.78,290.28 809.05,281.76 812.32,259.63 815.60,263.76 818.87,260.05 822.15,260.31 825.42,258.39 828.69,236.04 831.97,228.84 835.24,237.60 838.52,280.11 841.79,258.71 845.07,265.00 848.34,278.93 851.61,248.26 854.89,241.97 858.16,220.02 861.44,245.16 864.71,239.42 867.98,212.59 871.26,202.07 874.53,236.95 877.81,238.23 881.08,222.21 884.36,246.04 887.63,229.55 890.90,211.70 894.18,239.44 897.45,262.00 900.73,251.73 904.00,271.88" />
<text x="780.00" y="104.00" font-size="14" font-family="Arial" fill="#2ca02c" text-anchor="start">MA20x60</text>
</svg>