<svg xmlns="http://www.w3.org/2000/svg" width="960" height="520" viewBox="0 0 960 520"><rect width="100%" height="100%" fill="white" />
<text x="56.00" y="32.00" font-size="20" font-family="Arial" fill="#1f2933" text-anchor="start">SOXX Backtest Equity Curves</text>
<line x1="56" y1="464" x2="904" y2="464" stroke="#cbd2d9" />
<line x1="56" y1="56" x2="56" y2="464" stroke="#cbd2d9" />
<text x="16.00" y="38.00" font-size="12" font-family="Arial" fill="#52606d" text-anchor="start">Equity Multiple</text>
<line x1="56" y1="464.00" x2="904" y2="464.00" stroke="#edf2f7" />
<line x1="52" y1="464.00" x2="56" y2="464.00" stroke="#9fb3c8" />
<text x="48.00" y="468.00" font-size="11" font-family="Arial" fill="#52606d" text-anchor="end">0.89</text>
<line x1="56" y1="362.00" x2="904" y2="362.00" stroke="#edf2f7" />
<line x1="52" y1="362.00" x2="56" y2="362.00" stroke="#9fb3c8" />
<text x="48.00" y="366.00" font-size="11" font-family="Arial" fill="#52606d" text-anchor="end">1.42</text>
<line x1="56" y1="260.00" x2="904" y2="260.00" stroke="#edf2f7" />
<line x1="52" y1="260.00" x2="56" y2="260.00" stroke="#9fb3c8" />
<text x="48.00" y="264.00" font-size="11" font-family="Arial" fill="#52606d" text-anchor="end">1.95</text>
<line x1="56" y1="158.00" x2="904" y2="158.00" stroke="#edf2f7" />
<line x1="52" y1="158.00" x2="56" y2="158.00" stroke="#9fb3c8" />
<text x="48.00" y="162.00" font-size="11" font-family="Arial" fill="#52606d" text-anchor="end">2.49</text>
<line x1="56" y1="56.00" x2="904" y2="56.00" stroke="#edf2f7" />
<line x1="52" y1="56.00" x2="56" y2="56.00" stroke="#9fb3c8" />
<text x="48.00" y="60.00" font-size="11" font-family="Arial" fill="#52606d" text-anchor="end">3.02</text>
<line x1="56.00" y1="464" x2="56.00" y2="468" stroke="#9fb3c8" />
<text x="56.00" y="482.00" font-size="11" font-family="Arial" fill="#52606d" text-anchor="middle">06/23</text>
<line x1="226.25" y1="464" x2="226.25" y2="468" stroke="#9fb3c8" />
<text x="226.25" y="482.00" font-size="11" font-family="Arial" fill="#52606d" text-anchor="middle">09/05</text>
<line x1="396.51" y1="464" x2="396.51" y2="468" stroke="#9fb3c8" />
<text x="396.51" y="482.00" font-size="11" font-family="Arial" fill="#52606d" text-anchor="middle">11/18</text>
<line x1="563.49" y1="464" x2="563.49" y2="468" stroke="#9fb3c8" />
<text x="563.49" y="482.00" font-size="11" font-family="Arial" fill="#52606d" text-anchor="middle">02/03</text>
<line x1="733.75" y1="464" x2="733.75" y2="468" stroke="#9fb3c8" />
<text x="733.75" y="482.00" font-size="11" font-family="Arial" fill="#52606d" text-anchor="middle">04/20</text>
<line x1="904.00" y1="464" x2="904.00" y2="468" stroke="#9fb3c8" />
<text x="904.00" y="482.00" font-size="11" font-family="Arial" fill="#52606d" text-anchor="middle">07/06</text>
<polyline fill="none" stroke="#7f7f7f" stroke-width="2" points="56.00,442.11 59.27,434.86 62.55,433.07 65.82,431.50 69.10,431.68 72.37,431.82 75.64,432.73 78.92,428.91 82.19,427.90 85.47,431.75 88.74,427.90 92.02,427.24 95.29,425.19 98.56,425.51 101.84,427.49 105.11,425.44 108.39,426.00 111.66,425.21 114.93,425.04 118.21,424.85 121.48,427.73 124.76,428.98 128.03,429.40 131.31,429.42 134.58,425.87 137.85,425.50 141.13,424.01 144.40,430.69 147.68,433.05 150.95,430.38 154.22,431.79 157.50,433.31 160.77,430.01 164.05,428.30 167.32,428.69 170.59,422.14 173.87,419.00 177.14,418.79 180.42,423.70 183.69,423.08 186.97,426.37 190.24,427.56 193.51,428.73 196.79,423.05 200.06,423.54 203.34,421.56 206.61,421.15 209.88,420.13 213.16,426.23 216.43,428.33 219.71,429.30 222.98,427.20 226.25,424.77 229.53,423.25 232.80,423.07 236.08,419.37 239.35,417.90 242.63,417.52 245.90,415.70 249.17,414.58 252.45,414.62 255.72,406.97 259.00,408.42 262.27,405.06 265.54,405.33 268.82,405.68 272.09,406.41 275.37,405.91 278.64,405.82 281.92,403.97 285.19,399.56 288.46,395.03 291.74,396.50 295.01,389.39 298.29,394.85 301.56,386.70 304.83,387.84 308.11,403.24 311.38,392.34 314.66,397.28 317.93,390.00 321.20,388.87 324.48,389.55 327.75,385.49 331.03,386.88 334.30,392.97 337.58,387.11 340.85,383.05 344.12,376.09 347.40,375.78 350.67,371.43 353.95,374.97 357.22,374.01 360.49,372.46 363.77,382.71 367.04,374.92 370.32,381.66 373.59,384.30 376.86,377.85 380.14,383.65 383.41,379.82 386.69,388.53 389.96,389.26 393.24,393.45 396.51,399.02 399.78,395.10 403.06,406.53 406.33,404.22 409.61,394.18 412.88,393.43 416.15,386.83 419.43,382.30 422.70,382.15 425.98,377.14 429.25,371.63 432.53,374.23 435.80,371.59 439.07,368.75 442.35,369.24 445.62,365.73 448.90,367.26 452.17,379.99 455.44,381.23 458.72,382.39 461.99,391.68 465.27,385.92 468.54,379.33 471.81,375.92 475.09,374.97 478.36,373.97 481.64,374.06 484.91,374.67 488.19,375.01 491.46,378.20 494.73,367.58 498.01,363.88 501.28,355.16 504.56,358.09 507.83,362.59 511.10,354.80 514.38,353.47 517.65,350.97 520.93,352.15 524.20,347.65 527.47,343.20 530.75,347.54 534.02,338.40 537.30,337.95 540.57,341.30 543.85,342.69 547.12,335.91 550.39,327.96 553.67,327.39 556.94,339.96 560.22,334.54 563.49,340.51 566.76,353.44 570.04,353.06 573.31,338.08 576.59,334.47 579.86,335.61 583.14,328.18 586.41,335.55 589.68,332.87 592.96,333.35 596.23,330.11 599.51,331.87 602.78,328.83 606.05,331.04 609.33,326.62 612.60,321.57 615.88,331.06 619.15,334.88 622.42,335.08 625.70,349.71 628.97,343.99 632.25,347.19 635.52,359.26 638.80,348.37 642.07,346.30 645.34,343.52 648.62,353.60 651.89,352.64 655.17,347.13 658.44,344.90 661.71,346.56 664.99,344.94 668.26,351.46 671.54,348.00 674.81,344.25 678.08,340.66 681.36,354.56 684.63,359.12 687.91,370.72 691.18,354.73 694.46,346.35 697.73,345.44 701.00,341.64 704.28,338.54 707.55,319.35 710.83,312.37 714.10,305.62 717.37,299.90 720.65,293.21 723.92,292.68 727.20,289.22 730.47,280.94 733.75,279.38 737.02,276.72 740.29,267.33 743.57,259.51 746.84,242.05 750.12,247.30 753.39,261.45 756.66,251.89 759.94,242.19 763.21,238.53 766.49,241.66 769.76,224.14 773.03,203.68 776.31,215.98 779.58,192.30 782.86,181.74 786.13,195.95 789.41,185.52 792.68,184.05 795.95,202.28 799.23,213.00 802.50,212.27 805.78,192.29 809.05,188.56 812.32,177.86 815.60,150.10 818.87,155.28 822.15,150.62 825.42,150.95 828.69,148.54 831.97,120.49 835.24,111.46 838.52,122.44 841.79,175.79 845.07,148.94 848.34,156.83 851.61,174.32 854.89,135.82 858.16,127.92 861.44,100.38 864.71,131.93 867.98,124.73 871.26,91.05 874.53,77.86 877.81,121.63 881.08,123.23 884.36,103.14 887.63,133.03 890.90,112.34 894.18,89.94 897.45,124.76 900.73,153.06 904.00,140.18" />
<text x="780.00" y="60.00" font-size="14" font-family="Arial" fill="#7f7f7f" text-anchor="start">BuyHold</text>
<polyline fill="none" stroke="#1f77b4" stroke-width="2" points="56.00,442.11 59.27,442.11 62.55,442.11 65.82,442.11 69.10,442.11 72.37,442.11 75.64,442.11 78.92,442.11 82.19,442.11 85.47,442.11 88.74,442.11 92.02,442.11 95.29,442.11 98.56,442.11 101.84,442.11 105.11,442.11 108.39,442.11 111.66,442.11 114.93,442.11 118.21,442.11 121.48,442.11 124.76,442.11 128.03,442.11 131.31,442.11 134.58,442.11 137.85,442.11 141.13,442.11 144.40,442.11 147.68,442.11 150.95,442.11 154.22,442.11 157.50,442.11 160.77,442.11 164.05,442.11 167.32,442.11 170.59,442.11 173.87,442.11 177.14,442.11 180.42,442.11 183.69,442.11 186.97,442.11 190.24,442.11 193.51,442.11 196.79,442.11 200.06,442.11 203.34,442.11 206.61,442.11 209.88,442.11 213.16,442.11 216.43,442.11 219.71,442.11 222.98,442.11 226.25,442.11 229.53,442.11 232.80,442.11 236.08,442.11 239.35,442.11 242.63,442.11 245.90,442.11 249.17,442.11 252.45,442.11 255.72,442.11 259.00,442.11 262.27,442.11 265.54,442.11 268.82,442.11 272.09,442.11 275.37,442.11 278.64,442.11 281.92,442.11 285.19,442.11 288.46,442.11 291.74,442.11 295.01,442.11 298.29,442.11 301.56,442.11 304.83,442.11 308.11,442.11 311.38,442.11 314.66,442.11 317.93,442.11 321.20,442.11 324.48,442.11 327.75,442.11 331.03,442.11 334.30,442.11 337.58,442.11 340.85,442.11 344.12,442.11 347.40,442.11 350.67,442.11 353.95,442.11 357.22,442.11 360.49,442.11 363.77,442.11 367.04,442.11 370.32,442.11 373.59,442.11 376.86,442.11 380.14,442.11 383.41,442.11 386.69,442.11 389.96,442.11 393.24,442.11 396.51,442.11 399.78,442.11 403.06,442.11 406.33,442.11 409.61,442.11 412.88,442.11 416.15,442.11 419.43,442.11 422.70,442.11 425.98,442.11 429.25,442.11 432.53,442.11 435.80,442.11 439.07,442.11 442.35,442.11 445.62,442.11 448.90,442.11 452.17,442.11 455.44,442.11 458.72,442.11 461.99,442.11 465.27,442.11 468.54,442.11 471.81,442.11 475.09,442.11 478.36,442.11 481.64,442.11 484.91,442.11 488.19,442.11 491.46,442.11 494.73,442.11 498.01,442.11 501.28,442.11 504.56,442.11 507.83,442.11 511.10,442.11 514.38,442.11 517.65,442.11 520.93,442.11 524.20,442.11 527.47,442.11 530.75,442.11 534.02,442.11 537.30,442.11 540.57,442.11 543.85,442.11 547.12,442.11 550.39,442.11 553.67,442.11 556.94,442.11 560.22,442.11 563.49,442.11 566.76,442.11 570.04,442.11 573.31,442.11 576.59,442.11 579.86,442.11 583.14,442.11 586.41,442.11 589.68,442.11 592.96,442.11 596.23,442.11 599.51,442.11 602.78,442.11 606.05,442.11 609.33,442.11 612.60,442.11 615.88,442.11 619.15,442.11 622.42,442.11 625.70,442.11 628.97,442.11 632.25,442.11 635.52,442.11 638.80,442.11 642.07,442.11 645.34,442.11 648.62,442.11 651.89,442.11 655.17,442.11 658.44,442.11 661.71,442.11 664.99,442.11 668.26,442.11 671.54,442.11 674.81,442.11 678.08,442.11 681.36,442.11 684.63,442.11 687.91,442.11 691.18,442.11 694.46,442.11 697.73,442.11 701.00,442.11 704.28,442.11 707.55,442.11 710.83,437.86 714.10,433.74 717.37,430.27 720.65,426.19 723.92,425.87 727.20,423.76 730.47,418.72 733.75,417.77 737.02,416.14 740.29,410.43 743.57,405.67 746.84,395.03 750.12,398.23 753.39,406.85 756.66,401.03 759.94,395.12 763.21,392.89 766.49,394.80 769.76,384.13 773.03,371.67 776.31,379.16 779.58,364.73 782.86,358.30 786.13,366.96 789.41,360.61 792.68,359.71 795.95,370.82 799.23,377.34 802.50,376.90 805.78,364.73 809.05,362.46 812.32,355.94 815.60,339.04 818.87,342.19 822.15,339.36 825.42,339.56 828.69,338.09 831.97,321.01 835.24,315.50 838.52,322.19 841.79,354.69 845.07,338.33 848.34,343.14 851.61,353.79 854.89,330.34 858.16,325.53 861.44,308.76 864.71,327.97 867.98,323.59 871.26,303.08 874.53,295.04 877.81,321.70 881.08,322.68 884.36,310.44 887.63,328.65 890.90,316.04 894.18,302.40 897.45,323.61 900.73,340.84 904.00,333.00" />
<text x="780.00" y="82.00" font-size="14" font-family="Arial" fill="#1f77b4" text-anchor="start">MA200</text>
<polyline fill="none" stroke="#2ca02c" stroke-width="2" points="56.00,442.11 59.27,442.11 62.55,442.11 65.82,442.11 69.10,442.11 72.37,442.11 75.64,442.11 78.92,442.11 82.19,442.11 85.47,442.11 88.74,442.11 92.02,442.11 95.29,442.11 98.56,442.11 101.84,442.11 105.11,442.11 108.39,442.11 111.66,442.11 114.93,442.11 118.21,442.11 121.48,442.11 124.76,442.11 128.03,442.11 131.31,442.11 134.58,442.11 137.85,442.11 141.13,442.11 144.40,442.11 147.68,442.11 150.95,442.11 154.22,442.11 157.50,442.11 160.77,442.11 164.05,442.11 167.32,442.11 170.59,442.11 173.87,442.11 177.14,442.11 180.42,442.11 183.69,442.11 186.97,442.11 190.24,442.11 193.51,442.11 196.79,442.11 200.06,442.11 203.34,442.11 206.61,442.11 209.88,442.11 213.16,442.11 216.43,442.11 219.71,442.11 222.98,442.11 226.25,442.11 229.53,442.11 232.80,442.11 236.08,442.11 239.35,442.11 242.63,442.11 245.90,442.11 249.17,442.11 252.45,442.14 255.72,435.46 259.00,436.72 262.27,433.79 265.54,434.02 268.82,434.33 272.09,434.96 275.37,434.53 278.64,434.45 281.92,432.83 285.19,428.97 288.46,425.02 291.74,426.30 295.01,420.09 298.29,424.86 301.56,417.74 304.83,418.73 308.11,432.19 311.38,422.67 314.66,426.99 317.93,420.62 321.20,419.63 324.48,420.23 327.75,416.68 331.03,417.89 334.30,423.22 337.58,418.09 340.85,414.54 344.12,408.47 347.40,408.19 350.67,404.38 353.95,407.48 357.22,406.64 360.49,405.29 363.77,414.25 367.04,407.44 370.32,413.33 373.59,415.64 376.86,410.00 380.14,415.07 383.41,411.73 386.69,419.33 389.96,419.97 393.24,423.64 396.51,428.50 399.78,425.08 403.06,435.07 406.33,433.05 409.61,424.27 412.88,423.62 416.15,417.85 419.43,413.89 422.70,413.76 425.98,409.38 429.25,404.56 432.53,406.84 435.80,404.53 439.07,402.05 442.35,402.48 445.62,399.41 448.90,400.75 452.17,411.87 455.44,412.95 458.72,413.97 461.99,422.09 465.27,417.05 468.54,411.30 471.81,408.31 475.09,407.48 478.36,406.61 481.64,406.68 484.91,407.22 488.19,407.51 491.46,410.31 494.73,401.02 498.01,397.78 501.28,390.17 504.56,392.73 507.83,396.66 511.10,389.85 514.38,388.68 517.65,386.50 520.93,387.54 524.20,383.60 527.47,379.71 530.75,383.50 534.02,375.51 537.30,375.12 540.57,378.05 543.85,379.27 547.12,373.34 550.39,366.39 553.67,365.89 556.94,376.87 560.22,372.14 563.49,377.36 566.76,388.66 570.04,388.33 573.31,375.24 576.59,372.08 579.86,373.08 583.14,366.58 586.41,373.02 589.68,370.68 592.96,371.10 596.23,368.27 599.51,369.81 602.78,367.15 606.05,369.09 609.33,365.22 612.60,360.81 615.88,369.10 619.15,372.44 622.42,372.62 625.70,385.40 628.97,380.40 632.25,383.20 635.52,393.75 638.80,384.23 642.07,382.42 645.34,379.99 648.62,388.80 651.89,387.97 655.17,383.15 658.44,381.20 661.71,382.65 664.99,381.24 668.26,386.93 671.54,383.91 674.81,380.63 678.08,377.49 681.36,377.49 684.63,377.49 687.91,377.49 691.18,377.49 694.46,377.49 697.73,377.49 701.00,377.49 704.28,377.49 707.55,377.49 710.83,377.49 714.10,377.49 717.37,377.49 720.65,377.49 723.92,377.10 727.20,374.49 730.47,368.27 733.75,367.10 737.02,365.09 740.29,358.03 743.57,352.15 746.84,339.01 750.12,342.96 753.39,353.61 756.66,346.42 759.94,339.12 763.21,336.37 766.49,338.72 769.76,325.54 773.03,310.15 776.31,319.40 779.58,301.59 782.86,293.65 786.13,304.34 789.41,296.50 792.68,295.39 795.95,309.10 799.23,317.17 802.50,316.61 805.78,301.59 809.05,298.78 812.32,290.74 815.60,269.85 818.87,273.75 822.15,270.25 825.42,270.50 828.69,268.68 831.97,247.58 835.24,240.79 838.52,249.05 841.79,289.18 845.07,268.98 848.34,274.92 851.61,288.07 854.89,259.12 858.16,253.17 861.44,232.46 864.71,256.19 867.98,250.77 871.26,225.44 874.53,215.52 877.81,248.44 881.08,249.65 884.36,234.53 887.63,257.02 890.90,241.45 894.18,224.60 897.45,250.79 900.73,272.08 904.00,262.39" />
<text x="780.00" y="104.00" font-size="14" font-family="Arial" fill="#2ca02c" text-anchor="start">MA20x60</text>
</svg>