<svg xmlns="http://www.w3.org/2000/svg" width="960" height="520" viewBox="0 0 960 520"><rect width="100%" height="100%" fill="white" />
<text x="56.00" y="32.00" font-size="20" font-family="Arial" fill="#1f2933" text-anchor="start">SOXX Backtest Equity Curves</text>
<line x1="56" y1="464" x2="904" y2="464" stroke="#cbd2d9" />
<line x1="56" y1="56" x2="56" y2="464" stroke="#cbd2d9" />
<text x="16.00" y="38.00" font-size="12" font-family="Arial" fill="#52606d" text-anchor="start">Equity Multiple</text>
<line x1="56" y1="464.00" x2="904" y2="464.00" stroke="#edf2f7" />
<line x1="52" y1="464.00" x2="56" y2="464.00" stroke="#9fb3c8" />
<text x="48.00" y="468.00" font-size="11" font-family="Arial" fill="#52606d" text-anchor="end">0.89</text>
<line x1="56" y1="362.00" x2="904" y2="362.00" stroke="#edf2f7" />
<line x1="52" y1="362.00" x2="56" y2="362.00" stroke="#9fb3c8" />
<text x="48.00" y="366.00" font-size="11" font-family="Arial" fill="#52606d" text-anchor="end">1.38</text>
<line x1="56" y1="260.00" x2="904" y2="260.00" stroke="#edf2f7" />
<line x1="52" y1="260.00" x2="56" y2="260.00" stroke="#9fb3c8" />
<text x="48.00" y="264.00" font-size="11" font-family="Arial" fill="#52606d" text-anchor="end">1.87</text>
<line x1="56" y1="158.00" x2="904" y2="158.00" stroke="#edf2f7" />
<line x1="52" y1="158.00" x2="56" y2="158.00" stroke="#9fb3c8" />
<text x="48.00" y="162.00" font-size="11" font-family="Arial" fill="#52606d" text-anchor="end">2.37</text>
<line x1="56" y1="56.00" x2="904" y2="56.00" stroke="#edf2f7" />
<line x1="52" y1="56.00" x2="56" y2="56.00" stroke="#9fb3c8" />
<text x="48.00" y="60.00" font-size="11" font-family="Arial" fill="#52606d" text-anchor="end">2.86</text>
<line x1="56.00" y1="464" x2="56.00" y2="468" stroke="#9fb3c8" />
<text x="56.00" y="482.00" font-size="11" font-family="Arial" fill="#52606d" text-anchor="middle">06/27</text>
<line x1="226.25" y1="464" x2="226.25" y2="468" stroke="#9fb3c8" />
<text x="226.25" y="482.00" font-size="11" font-family="Arial" fill="#52606d" text-anchor="middle">09/11</text>
<line x1="396.51" y1="464" x2="396.51" y2="468" stroke="#9fb3c8" />
<text x="396.51" y="482.00" font-size="11" font-family="Arial" fill="#52606d" text-anchor="middle">11/24</text>
<line x1="563.49" y1="464" x2="563.49" y2="468" stroke="#9fb3c8" />
<text x="563.49" y="482.00" font-size="11" font-family="Arial" fill="#52606d" text-anchor="middle">02/09</text>
<line x1="733.75" y1="464" x2="733.75" y2="468" stroke="#9fb3c8" />
<text x="733.75" y="482.00" font-size="11" font-family="Arial" fill="#52606d" text-anchor="middle">04/24</text>
<line x1="904.00" y1="464" x2="904.00" y2="468" stroke="#9fb3c8" />
<text x="904.00" y="482.00" font-size="11" font-family="Arial" fill="#52606d" text-anchor="middle">07/10</text>
<polyline fill="none" stroke="#7f7f7f" stroke-width="2" points="56.00,440.47 59.27,440.61 62.55,441.55 65.82,437.64 69.10,436.60 72.37,440.54 75.64,436.60 78.92,435.92 82.19,433.82 85.47,434.15 88.74,436.17 92.02,434.07 95.29,434.65 98.56,433.84 101.84,433.67 105.11,433.48 108.39,436.43 111.66,437.71 114.93,438.14 118.21,438.16 121.48,434.51 124.76,434.13 128.03,432.61 131.31,439.46 134.58,441.87 137.85,439.14 141.13,440.59 144.40,442.14 147.68,438.76 150.95,437.00 154.22,437.40 157.50,430.70 160.77,427.48 164.05,427.26 167.32,432.29 170.59,431.66 173.87,435.03 177.14,436.25 180.42,437.45 183.69,431.62 186.97,432.13 190.24,430.10 193.51,429.68 196.79,428.63 200.06,434.89 203.34,437.04 206.61,438.03 209.88,435.88 213.16,433.39 216.43,431.83 219.71,431.65 222.98,427.85 226.25,426.35 229.53,425.96 232.80,424.09 236.08,422.95 239.35,422.99 242.63,415.15 245.90,416.63 249.17,413.19 252.45,413.47 255.72,413.83 259.00,414.57 262.27,414.06 265.54,413.97 268.82,412.08 272.09,407.55 275.37,402.91 278.64,404.41 281.92,397.13 285.19,402.72 288.46,394.37 291.74,395.54 295.01,411.32 298.29,400.16 301.56,405.22 304.83,397.76 308.11,396.59 311.38,397.30 314.66,393.13 317.93,394.56 321.20,400.80 324.48,394.79 327.75,390.63 331.03,383.50 334.30,383.18 337.58,378.72 340.85,382.35 344.12,381.36 347.40,379.78 350.67,390.28 353.95,382.30 357.22,389.21 360.49,391.91 363.77,385.31 367.04,391.25 370.32,387.33 373.59,396.25 376.86,396.99 380.14,401.29 383.41,407.00 386.69,402.98 389.96,414.69 393.24,412.33 396.51,402.04 399.78,401.27 403.06,394.50 406.33,389.87 409.61,389.71 412.88,384.58 416.15,378.93 419.43,381.60 422.70,378.89 425.98,375.98 429.25,376.48 432.53,372.89 435.80,374.45 439.07,387.49 442.35,388.77 445.62,389.96 448.90,399.48 452.17,393.57 455.44,386.83 458.72,383.33 461.99,382.35 465.27,381.33 468.54,381.42 471.81,382.04 475.09,382.39 478.36,385.66 481.64,374.78 484.91,370.98 488.19,362.05 491.46,365.05 494.73,369.66 498.01,361.68 501.28,360.31 504.56,357.75 507.83,358.97 511.10,354.35 514.38,349.79 517.65,354.24 520.93,344.87 524.20,344.41 527.47,347.85 530.75,349.27 534.02,342.32 537.30,334.18 540.57,333.59 543.85,346.47 547.12,340.92 550.39,347.04 553.67,360.29 556.94,359.90 560.22,344.55 563.49,340.85 566.76,342.01 570.04,334.40 573.31,341.95 576.59,339.21 579.86,339.70 583.14,336.38 586.41,338.19 589.68,335.07 592.96,337.33 596.23,332.80 599.51,327.63 602.78,337.35 606.05,341.27 609.33,341.48 612.60,356.47 615.88,350.60 619.15,353.88 622.42,366.25 625.70,355.09 628.97,352.97 632.25,350.12 635.52,360.45 638.80,359.47 642.07,353.82 645.34,351.54 648.62,353.24 651.89,351.58 655.17,358.26 658.44,354.72 661.71,350.87 664.99,347.19 668.26,361.44 671.54,366.10 674.81,378.00 678.08,361.60 681.36,353.02 684.63,352.09 687.91,348.19 691.18,345.01 694.46,325.35 697.73,318.20 701.00,311.28 704.28,305.42 707.55,298.56 710.83,298.02 714.10,294.47 717.37,285.99 720.65,284.39 723.92,281.66 727.20,272.04 730.47,264.02 733.75,246.13 737.02,251.51 740.29,266.01 743.57,256.21 746.84,246.27 750.12,242.52 753.39,245.73 756.66,227.77 759.94,206.81 763.21,219.41 766.49,195.14 769.76,184.32 773.03,198.88 776.31,188.20 779.58,186.69 782.86,205.37 786.13,216.36 789.41,215.61 792.68,195.13 795.95,191.31 799.23,180.35 802.50,151.89 805.78,157.20 809.05,152.43 812.32,152.77 815.60,150.29 818.87,121.55 822.15,112.29 825.42,123.55 828.69,178.23 831.97,150.71 835.24,158.80 838.52,176.72 841.79,137.26 845.07,129.17 848.34,100.94 851.61,133.28 854.89,125.90 858.16,91.38 861.44,77.86 864.71,122.72 867.98,124.36 871.26,103.76 874.53,134.41 877.81,113.19 881.08,90.24 884.36,125.92 887.63,154.93 890.90,141.73 894.18,167.65 897.45,158.66 900.73,141.57 904.00,141.88" />
<text x="780.00" y="60.00" font-size="14" font-family="Arial" fill="#7f7f7f" text-anchor="start">BuyHold</text>
<polyline fill="none" stroke="#1f77b4" stroke-width="2" points="56.00,440.47 59.27,440.47 62.55,440.47 65.82,440.47 69.10,440.47 72.37,440.47 75.64,440.47 78.92,440.47 82.19,440.47 85.47,440.47 88.74,440.47 92.02,440.47 95.29,440.47 98.56,440.47 101.84,440.47 105.11,440.47 108.39,440.47 111.66,440.47 114.93,440.47 118.21,440.47 121.48,440.47 124.76,440.47 128.03,440.47 131.31,440.47 134.58,440.47 137.85,440.47 141.13,440.47 144.40,440.47 147.68,440.47 150.95,440.47 154.22,440.47 157.50,440.47 160.77,440.47 164.05,440.47 167.32,440.47 170.59,440.47 173.87,440.47 177.14,440.47 180.42,440.47 183.69,440.47 186.97,440.47 190.24,440.47 193.51,440.47 196.79,440.47 200.06,440.47 203.34,440.47 206.61,440.47 209.88,440.47 213.16,440.47 216.43,440.47 219.71,440.47 222.98,440.47 226.25,440.47 229.53,440.47 232.80,440.47 236.08,440.47 239.35,440.47 242.63,440.47 245.90,440.47 249.17,440.47 252.45,440.47 255.72,440.47 259.00,440.47 262.27,440.47 265.54,440.47 268.82,440.47 272.09,440.47 275.37,440.47 278.64,440.47 281.92,440.47 285.19,440.47 288.46,440.47 291.74,440.47 295.01,440.47 298.29,440.47 301.56,440.47 304.83,440.47 308.11,440.47 311.38,440.47 314.66,440.47 317.93,440.47 321.20,440.47 324.48,440.47 327.75,440.47 331.03,440.47 334.30,440.47 337.58,440.47 340.85,440.47 344.12,440.47 347.40,440.47 350.67,440.47 353.95,440.47 357.22,440.47 360.49,440.47 363.77,440.47 367.04,440.47 370.32,440.47 373.59,440.47 376.86,440.47 380.14,440.47 383.41,440.47 386.69,440.47 389.96,440.47 393.24,440.47 396.51,440.47 399.78,440.47 403.06,440.47 406.33,440.47 409.61,440.47 412.88,440.47 416.15,440.47 419.43,440.47 422.70,440.47 425.98,440.47 429.25,440.47 432.53,440.47 435.80,440.47 439.07,440.47 442.35,440.47 445.62,440.47 448.90,440.47 452.17,440.47 455.44,440.47 458.72,440.47 461.99,440.47 465.27,440.47 468.54,440.47 471.81,440.47 475.09,440.47 478.36,440.47 481.64,440.47 484.91,440.47 488.19,440.47 491.46,440.47 494.73,440.47 498.01,440.47 501.28,440.47 504.56,440.47 507.83,440.47 511.10,440.47 514.38,440.47 517.65,440.47 520.93,440.47 524.20,440.47 527.47,440.47 530.75,440.47 534.02,440.47 537.30,440.47 540.57,440.47 543.85,440.47 547.12,440.47 550.39,440.47 553.67,440.47 556.94,440.47 560.22,440.47 563.49,440.47 566.76,440.47 570.04,440.47 573.31,440.47 576.59,440.47 579.86,440.47 583.14,440.47 586.41,440.47 589.68,440.47 592.96,440.47 596.23,440.47 599.51,440.47 602.78,440.47 606.05,440.47 609.33,440.47 612.60,440.47 615.88,440.47 619.15,440.47 622.42,440.47 625.70,440.47 628.97,440.47 632.25,440.47 635.52,440.47 638.80,440.47 642.07,440.47 645.34,440.47 648.62,440.47 651.89,440.47 655.17,440.47 658.44,440.47 661.71,440.47 664.99,440.47 668.26,440.47 671.54,440.47 674.81,440.47 678.08,440.47 681.36,440.47 684.63,440.47 687.91,440.47 691.18,440.47 694.46,440.47 697.73,440.47 701.00,440.47 704.28,440.47 707.55,440.47 710.83,440.15 714.10,438.05 717.37,433.02 720.65,432.07 723.92,430.45 727.20,424.75 730.47,420.00 733.75,409.39 737.02,412.58 740.29,421.18 743.57,415.37 746.84,409.47 750.12,407.25 753.39,409.15 756.66,398.51 759.94,386.08 763.21,393.55 766.49,379.16 769.76,372.75 773.03,381.38 776.31,375.05 779.58,374.15 782.86,385.23 786.13,391.74 789.41,391.30 792.68,379.16 795.95,376.89 799.23,370.39 802.50,353.53 805.78,356.67 809.05,353.84 812.32,354.05 815.60,352.58 818.87,335.54 822.15,330.05 825.42,336.72 828.69,369.14 831.97,352.83 835.24,357.62 838.52,368.24 841.79,344.85 845.07,340.05 848.34,323.32 851.61,342.49 854.89,338.12 858.16,317.65 861.44,309.64 864.71,336.23 867.98,337.20 871.26,324.99 874.53,343.16 877.81,330.58 881.08,316.98 884.36,338.13 887.63,355.33 890.90,347.50 894.18,362.87 897.45,357.54 900.73,347.40 904.00,347.59" />
<text x="780.00" y="82.00" font-size="14" font-family="Arial" fill="#1f77b4" text-anchor="start">MA200</text>
<polyline fill="none" stroke="#2ca02c" stroke-width="2" points="56.00,440.47 59.27,440.47 62.55,440.47 65.82,440.47 69.10,440.47 72.37,440.47 75.64,440.47 78.92,440.47 82.19,440.47 85.47,440.47 88.74,440.47 92.02,440.47 95.29,440.47 98.56,440.47 101.84,440.47 105.11,440.47 108.39,440.47 111.66,440.47 114.93,440.47 118.21,440.47 121.48,440.47 124.76,440.47 128.03,440.47 131.31,440.47 134.58,440.47 137.85,440.47 141.13,440.47 144.40,440.47 147.68,440.47 150.95,440.47 154.22,440.47 157.50,440.47 160.77,440.47 164.05,440.47 167.32,440.47 170.59,440.47 173.87,440.47 177.14,440.47 180.42,440.47 183.69,440.47 186.97,440.47 190.24,440.47 193.51,440.47 196.79,440.47 200.06,440.47 203.34,440.47 206.61,440.47 209.88,440.47 213.16,440.47 216.43,440.47 219.71,440.47 222.98,440.47 226.25,440.47 229.53,440.47 232.80,440.47 236.08,440.47 239.35,440.47 242.63,440.47 245.90,440.47 249.17,440.47 252.45,440.72 255.72,441.03 259.00,441.69 262.27,441.24 265.54,441.16 268.82,439.49 272.09,435.49 275.37,431.39 278.64,432.72 281.92,426.28 285.19,431.22 288.46,423.85 291.74,424.88 295.01,438.82 298.29,428.96 301.56,433.43 304.83,426.84 308.11,425.81 311.38,426.43 314.66,422.75 317.93,424.01 321.20,429.52 324.48,424.22 327.75,420.54 331.03,414.25 334.30,413.96 337.58,410.02 340.85,413.23 344.12,412.36 347.40,410.95 350.67,420.24 353.95,413.18 357.22,419.29 360.49,421.67 363.77,415.84 367.04,421.09 370.32,417.62 373.59,425.50 376.86,426.16 380.14,429.96 383.41,435.00 386.69,431.45 389.96,441.80 393.24,439.71 396.51,430.62 399.78,429.94 403.06,423.96 406.33,419.87 409.61,419.73 412.88,415.20 416.15,410.20 419.43,412.56 422.70,410.17 425.98,407.60 429.25,408.04 432.53,404.87 435.80,406.25 439.07,417.77 442.35,418.90 445.62,419.95 448.90,428.36 452.17,423.14 455.44,417.18 458.72,414.09 461.99,413.23 465.27,412.33 468.54,412.40 471.81,412.96 475.09,413.26 478.36,416.15 481.64,406.54 484.91,403.19 488.19,395.29 491.46,397.95 494.73,402.02 498.01,394.97 501.28,393.76 504.56,391.50 507.83,392.57 511.10,388.49 514.38,384.47 517.65,388.39 520.93,380.12 524.20,379.71 527.47,382.75 530.75,384.01 534.02,377.86 537.30,370.67 540.57,370.16 543.85,381.53 547.12,376.63 550.39,382.04 553.67,393.74 556.94,393.39 560.22,379.84 563.49,376.57 566.76,377.60 570.04,370.87 573.31,377.54 576.59,375.12 579.86,375.55 583.14,372.62 586.41,374.21 589.68,371.46 592.96,373.46 596.23,369.46 599.51,364.89 602.78,373.48 606.05,376.94 609.33,377.12 612.60,390.36 615.88,385.18 619.15,388.08 622.42,399.01 625.70,389.14 628.97,387.27 632.25,384.76 635.52,393.88 638.80,393.02 642.07,388.03 645.34,386.01 648.62,387.51 651.89,386.05 655.17,391.95 658.44,388.82 661.71,385.42 664.99,382.17 668.26,382.17 671.54,382.17 674.81,382.17 678.08,382.17 681.36,382.17 684.63,382.17 687.91,382.17 691.18,382.17 694.46,382.17 697.73,382.17 701.00,382.17 704.28,382.17 707.55,382.17 710.83,381.76 714.10,379.06 717.37,372.62 720.65,371.40 723.92,369.32 727.20,362.01 730.47,355.92 733.75,342.32 737.02,346.41 740.29,357.43 743.57,349.99 746.84,342.43 750.12,339.58 753.39,342.02 756.66,328.37 759.94,312.43 763.21,322.01 766.49,303.56 769.76,295.34 773.03,306.41 776.31,298.29 779.58,297.14 782.86,311.34 786.13,319.69 789.41,319.12 792.68,303.56 795.95,300.65 799.23,292.32 802.50,270.69 805.78,274.72 809.05,271.10 812.32,271.36 815.60,269.47 818.87,247.63 822.15,240.59 825.42,249.15 828.69,290.71 831.97,269.79 835.24,275.94 838.52,289.56 841.79,259.57 845.07,253.42 848.34,231.96 851.61,256.54 854.89,250.93 858.16,224.69 861.44,214.42 864.71,248.51 867.98,249.76 871.26,234.11 874.53,257.40 877.81,241.27 881.08,223.83 884.36,250.95 887.63,273.00 890.90,262.97 894.18,282.67 897.45,275.83 900.73,262.84 904.00,263.08" />
<text x="780.00" y="104.00" font-size="14" font-family="Arial" fill="#2ca02c" text-anchor="start">MA20x60</text>
</svg>