<svg xmlns="http://www.w3.org/2000/svg" width="960" height="520" viewBox="0 0 960 520"><rect width="100%" height="100%" fill="white" />
<text x="56.00" y="32.00" font-size="20" font-family="Arial" fill="#1f2933" text-anchor="start">TSLA Backtest Equity Curves</text>
<line x1="56" y1="464" x2="904" y2="464" stroke="#cbd2d9" />
<line x1="56" y1="56" x2="56" y2="464" stroke="#cbd2d9" />
<text x="16.00" y="38.00" font-size="12" font-family="Arial" fill="#52606d" text-anchor="start">Equity Multiple</text>
<line x1="56" y1="464.00" x2="904" y2="464.00" stroke="#edf2f7" />
<line x1="52" y1="464.00" x2="56" y2="464.00" stroke="#9fb3c8" />
<text x="48.00" y="468.00" font-size="11" font-family="Arial" fill="#52606d" text-anchor="end">0.70</text>
<line x1="56" y1="362.00" x2="904" y2="362.00" stroke="#edf2f7" />
<line x1="52" y1="362.00" x2="56" y2="362.00" stroke="#9fb3c8" />
<text x="48.00" y="366.00" font-size="11" font-family="Arial" fill="#52606d" text-anchor="end">0.96</text>
<line x1="56" y1="260.00" x2="904" y2="260.00" stroke="#edf2f7" />
<line x1="52" y1="260.00" x2="56" y2="260.00" stroke="#9fb3c8" />
<text x="48.00" y="264.00" font-size="11" font-family="Arial" fill="#52606d" text-anchor="end">1.21</text>
<line x1="56" y1="158.00" x2="904" y2="158.00" stroke="#edf2f7" />
<line x1="52" y1="158.00" x2="56" y2="158.00" stroke="#9fb3c8" />
<text x="48.00" y="162.00" font-size="11" font-family="Arial" fill="#52606d" text-anchor="end">1.47</text>
<line x1="56" y1="56.00" x2="904" y2="56.00" stroke="#edf2f7" />
<line x1="52" y1="56.00" x2="56" y2="56.00" stroke="#9fb3c8" />
<text x="48.00" y="60.00" font-size="11" font-family="Arial" fill="#52606d" text-anchor="end">1.72</text>
<line x1="56.00" y1="464" x2="56.00" y2="468" stroke="#9fb3c8" />
<text x="56.00" y="482.00" font-size="11" font-family="Arial" fill="#52606d" text-anchor="middle">07/07</text>
<line x1="226.25" y1="464" x2="226.25" y2="468" stroke="#9fb3c8" />
<text x="226.25" y="482.00" font-size="11" font-family="Arial" fill="#52606d" text-anchor="middle">09/18</text>
<line x1="396.51" y1="464" x2="396.51" y2="468" stroke="#9fb3c8" />
<text x="396.51" y="482.00" font-size="11" font-family="Arial" fill="#52606d" text-anchor="middle">12/02</text>
<line x1="563.49" y1="464" x2="563.49" y2="468" stroke="#9fb3c8" />
<text x="563.49" y="482.00" font-size="11" font-family="Arial" fill="#52606d" text-anchor="middle">02/17</text>
<line x1="733.75" y1="464" x2="733.75" y2="468" stroke="#9fb3c8" />
<text x="733.75" y="482.00" font-size="11" font-family="Arial" fill="#52606d" text-anchor="middle">05/01</text>
<line x1="904.00" y1="464" x2="904.00" y2="468" stroke="#9fb3c8" />
<text x="904.00" y="482.00" font-size="11" font-family="Arial" fill="#52606d" text-anchor="middle">07/17</text>
<polyline fill="none" stroke="#7f7f7f" stroke-width="2" points="56.00,344.08 59.27,338.82 62.55,341.44 65.82,322.43 69.10,317.49 72.37,312.88 75.64,321.20 78.92,306.40 82.19,309.47 85.47,295.56 88.74,297.13 92.02,292.22 95.29,291.60 98.56,328.64 101.84,314.02 105.11,301.07 108.39,307.04 111.66,309.97 114.93,324.61 118.21,332.27 121.48,323.26 124.76,324.00 128.03,308.79 131.31,305.58 134.58,295.56 137.85,282.81 141.13,280.35 144.40,282.34 147.68,287.50 150.95,294.32 154.22,288.07 157.50,296.02 160.77,303.37 164.05,308.52 167.32,281.48 170.59,272.53 173.87,265.64 177.14,268.45 180.42,273.37 183.69,289.82 186.97,295.95 190.24,289.53 193.51,283.49 196.79,266.77 200.06,272.80 203.34,272.03 206.61,270.91 209.88,242.35 213.16,205.49 216.43,186.33 219.71,170.60 222.98,164.84 226.25,177.08 229.53,164.55 232.80,153.49 236.08,164.85 239.35,141.84 242.63,168.20 245.90,145.08 249.17,141.27 252.45,139.21 255.72,119.19 259.00,151.06 262.27,159.45 265.54,127.63 268.82,155.02 272.09,147.41 275.37,151.69 278.64,181.65 281.92,151.20 285.19,160.25 288.46,152.22 291.74,160.91 295.01,146.57 298.29,135.53 301.56,142.10 304.83,147.03 308.11,133.43 311.38,154.16 314.66,128.75 317.93,117.71 321.20,116.40 324.48,145.49 327.75,123.13 331.03,107.08 334.30,139.84 337.58,115.64 340.85,137.60 344.12,159.87 347.40,138.52 350.67,146.14 353.95,158.40 357.22,197.27 360.49,194.06 363.77,187.86 367.04,198.28 370.32,194.55 373.59,206.46 376.86,212.08 380.14,175.82 383.41,173.62 386.69,163.86 389.96,158.98 393.24,159.02 396.51,160.25 399.78,136.47 403.06,125.89 406.33,125.25 409.61,146.20 412.88,138.60 416.15,130.07 419.43,136.27 422.70,119.87 425.98,97.65 429.25,77.86 432.53,108.59 435.80,86.70 439.07,89.65 442.35,79.42 445.62,83.73 448.90,83.94 452.17,97.82 455.44,118.94 458.72,126.02 461.99,132.42 465.27,148.25 468.54,129.77 471.81,155.19 475.09,157.30 478.36,151.33 481.64,138.82 484.91,133.45 488.19,135.85 491.46,146.71 494.73,147.57 498.01,149.02 501.28,173.82 504.56,157.26 507.83,132.91 511.10,133.32 514.38,152.15 517.65,157.99 520.93,157.23 524.20,177.48 527.47,158.66 530.75,170.34 534.02,170.14 537.30,191.81 540.57,203.77 543.85,184.88 547.12,176.44 550.39,165.72 553.67,161.57 556.94,176.78 560.22,176.28 563.49,185.53 566.76,184.59 570.04,184.06 573.31,183.92 576.59,200.21 579.86,187.23 583.14,176.33 586.41,188.32 589.68,196.56 592.96,195.46 596.23,210.26 599.51,191.90 602.78,192.43 606.05,204.42 609.33,201.77 612.60,201.01 615.88,189.35 619.15,206.75 622.42,211.93 625.70,206.01 628.97,200.97 632.25,209.78 635.52,226.74 638.80,243.51 642.07,225.99 645.34,223.03 648.62,219.06 651.89,237.87 655.17,251.84 658.44,260.74 661.71,238.36 664.99,225.44 668.26,253.52 671.54,264.08 674.81,272.46 678.08,277.08 681.36,273.86 684.63,269.34 687.91,264.62 691.18,248.62 694.46,210.91 697.73,215.06 701.00,199.13 704.28,210.17 707.55,218.43 710.83,216.94 714.10,235.68 717.37,232.18 720.65,228.96 723.92,232.56 727.20,236.93 730.47,224.93 733.75,212.45 737.02,210.15 740.29,214.42 743.57,201.70 746.84,183.96 750.12,161.46 753.39,138.83 756.66,154.53 759.94,138.47 763.21,141.14 766.49,169.76 769.76,186.40 773.03,194.39 776.31,176.52 779.58,175.72 782.86,164.64 786.13,154.34 789.41,145.14 792.68,142.77 795.95,151.35 799.23,178.40 802.50,167.72 805.78,167.77 809.05,174.91 812.32,212.20 815.60,187.81 818.87,204.49 822.15,224.99 825.42,201.13 828.69,191.24 831.97,184.83 835.24,193.64 838.52,204.89 841.79,199.31 845.07,193.11 848.34,224.96 851.61,233.22 854.89,233.78 858.16,227.54 861.44,183.89 864.71,171.99 867.98,165.60 871.26,208.87 874.53,173.11 877.81,196.03 881.08,208.05 884.36,191.08 887.63,189.43 890.90,207.09 894.18,205.17 897.45,207.50 900.73,212.12 904.00,226.01" />
<text x="780.00" y="60.00" font-size="14" font-family="Arial" fill="#7f7f7f" text-anchor="start">BuyHold</text>
<polyline fill="none" stroke="#1f77b4" stroke-width="2" points="56.00,344.08 59.27,344.08 62.55,344.08 65.82,344.08 69.10,344.08 72.37,344.08 75.64,344.08 78.92,344.08 82.19,344.08 85.47,344.08 88.74,344.08 92.02,344.08 95.29,344.08 98.56,344.08 101.84,344.08 105.11,344.08 108.39,344.08 111.66,344.08 114.93,344.08 118.21,344.08 121.48,344.08 124.76,344.08 128.03,344.08 131.31,344.08 134.58,344.08 137.85,344.08 141.13,344.08 144.40,344.08 147.68,344.08 150.95,344.08 154.22,344.08 157.50,344.08 160.77,344.08 164.05,344.08 167.32,344.08 170.59,344.08 173.87,344.08 177.14,344.08 180.42,344.08 183.69,344.08 186.97,344.08 190.24,344.08 193.51,344.08 196.79,344.08 200.06,344.08 203.34,344.08 206.61,344.08 209.88,344.08 213.16,344.08 216.43,344.08 219.71,344.08 222.98,344.08 226.25,344.08 229.53,344.08 232.80,344.08 236.08,344.08 239.35,344.08 242.63,344.08 245.90,344.08 249.17,344.08 252.45,344.08 255.72,344.08 259.00,344.08 262.27,344.08 265.54,344.08 268.82,344.08 272.09,344.08 275.37,344.08 278.64,344.08 281.92,344.08 285.19,344.08 288.46,344.08 291.74,344.08 295.01,344.08 298.29,344.08 301.56,344.08 304.83,344.08 308.11,344.08 311.38,344.08 314.66,344.08 317.93,344.08 321.20,344.08 324.48,344.08 327.75,344.08 331.03,344.08 334.30,344.08 337.58,344.08 340.85,344.08 344.12,344.08 347.40,344.08 350.67,344.08 353.95,344.08 357.22,344.08 360.49,344.08 363.77,344.08 367.04,344.08 370.32,344.08 373.59,344.08 376.86,344.08 380.14,344.08 383.41,344.08 386.69,344.08 389.96,344.08 393.24,344.08 396.51,344.08 399.78,344.08 403.06,344.08 406.33,344.08 409.61,344.08 412.88,344.08 416.15,344.08 419.43,344.08 422.70,344.08 425.98,344.08 429.25,344.08 432.53,344.08 435.80,344.08 439.07,344.08 442.35,344.08 445.62,344.08 448.90,344.08 452.17,344.08 455.44,344.08 458.72,344.08 461.99,344.08 465.27,344.08 468.54,344.08 471.81,344.08 475.09,344.08 478.36,344.08 481.64,344.08 484.91,344.08 488.19,344.08 491.46,344.08 494.73,344.08 498.01,344.08 501.28,344.08 504.56,344.08 507.83,344.08 511.10,344.08 514.38,344.08 517.65,344.08 520.93,344.08 524.20,344.08 527.47,344.08 530.75,344.08 534.02,344.08 537.30,344.08 540.57,344.08 543.85,344.08 547.12,344.08 550.39,344.08 553.67,344.08 556.94,344.08 560.22,344.08 563.49,344.08 566.76,344.08 570.04,344.08 573.31,344.08 576.59,344.08 579.86,344.08 583.14,344.08 586.41,344.08 589.68,344.08 592.96,344.08 596.23,344.08 599.51,344.08 602.78,344.08 606.05,344.08 609.33,344.08 612.60,344.08 615.88,344.08 619.15,344.08 622.42,344.08 625.70,344.08 628.97,344.08 632.25,344.08 635.52,344.08 638.80,344.08 642.07,344.08 645.34,344.08 648.62,344.08 651.89,344.08 655.17,344.08 658.44,344.08 661.71,344.08 664.99,344.08 668.26,344.08 671.54,344.08 674.81,344.08 678.08,344.08 681.36,344.08 684.63,344.08 687.91,344.08 691.18,344.08 694.46,344.08 697.73,344.08 701.00,344.08 704.28,344.08 707.55,344.08 710.83,344.08 714.10,344.08 717.37,344.08 720.65,344.08 723.92,344.08 727.20,344.08 730.47,344.08 733.75,344.08 737.02,344.08 740.29,344.08 743.57,344.08 746.84,344.08 750.12,328.02 753.39,311.87 756.66,323.07 759.94,311.61 763.21,313.52 766.49,333.94 769.76,345.82 773.03,351.52 776.31,351.52 779.58,350.97 782.86,343.31 786.13,336.19 789.41,329.83 792.68,328.19 795.95,334.12 799.23,352.82 802.50,345.44 805.78,345.48 809.05,350.41 812.32,376.19 815.60,376.19 818.87,376.19 822.15,376.19 825.42,376.19 828.69,376.19 831.97,376.19 835.24,376.19 838.52,376.19 841.79,376.19 845.07,376.19 848.34,376.19 851.61,376.19 854.89,376.19 858.16,376.19 861.44,376.19 864.71,376.19 867.98,372.09 871.26,399.90 874.53,399.90 877.81,413.70 881.08,413.70 884.36,413.70 887.63,413.70 890.90,413.70 894.18,413.70 897.45,413.70 900.73,413.70 904.00,413.70" />
<text x="780.00" y="82.00" font-size="14" font-family="Arial" fill="#1f77b4" text-anchor="start">MA200</text>
<polyline fill="none" stroke="#2ca02c" stroke-width="2" points="56.00,344.08 59.27,344.08 62.55,344.08 65.82,344.08 69.10,344.08 72.37,344.08 75.64,344.08 78.92,344.08 82.19,344.08 85.47,344.08 88.74,344.08 92.02,344.08 95.29,344.08 98.56,344.08 101.84,344.08 105.11,344.08 108.39,344.08 111.66,344.08 114.93,344.08 118.21,344.08 121.48,344.08 124.76,344.08 128.03,344.08 131.31,344.08 134.58,344.08 137.85,344.08 141.13,344.08 144.40,344.08 147.68,344.08 150.95,344.08 154.22,344.08 157.50,344.08 160.77,344.08 164.05,344.08 167.32,344.08 170.59,344.08 173.87,344.08 177.14,344.08 180.42,344.08 183.69,344.08 186.97,344.08 190.24,344.08 193.51,344.08 196.79,344.08 200.06,344.08 203.34,344.08 206.61,344.08 209.88,344.08 213.16,344.08 216.43,344.08 219.71,344.08 222.98,344.08 226.25,344.08 229.53,344.08 232.80,344.08 236.08,344.08 239.35,344.08 242.63,344.08 245.90,344.08 249.17,344.08 252.45,342.72 255.72,329.43 259.00,350.57 262.27,356.13 265.54,335.03 268.82,353.20 272.09,348.15 275.37,350.99 278.64,370.86 281.92,350.66 285.19,356.66 288.46,351.34 291.74,357.11 295.01,347.59 298.29,340.27 301.56,344.63 304.83,347.90 308.11,338.88 311.38,352.63 314.66,335.78 317.93,328.45 321.20,327.59 324.48,346.88 327.75,332.05 331.03,321.40 334.30,343.13 337.58,327.08 340.85,341.64 344.12,356.41 347.40,342.26 350.67,347.31 353.95,355.44 357.22,381.22 360.49,379.09 363.77,374.97 367.04,381.89 370.32,379.42 373.59,387.31 376.86,391.04 380.14,366.99 383.41,365.53 386.69,359.06 389.96,355.83 393.24,355.85 396.51,355.85 399.78,355.85 403.06,355.85 406.33,355.85 409.61,355.85 412.88,355.85 416.15,355.85 419.43,355.85 422.70,355.85 425.98,355.85 429.25,355.85 432.53,355.85 435.80,342.49 439.07,344.29 442.35,338.04 445.62,340.67 448.90,340.81 452.17,349.28 455.44,362.17 458.72,366.50 461.99,370.40 465.27,380.07 468.54,368.79 471.81,384.31 475.09,385.59 478.36,381.95 481.64,374.31 484.91,371.03 488.19,372.49 491.46,379.13 494.73,379.65 498.01,380.54 501.28,395.68 504.56,385.57 507.83,370.70 511.10,370.95 514.38,382.45 517.65,386.01 520.93,386.01 524.20,386.01 527.47,386.01 530.75,386.01 534.02,386.01 537.30,386.01 540.57,386.01 543.85,386.01 547.12,386.01 550.39,386.01 553.67,386.01 556.94,386.01 560.22,386.01 563.49,386.01 566.76,386.01 570.04,386.01 573.31,386.01 576.59,386.01 579.86,386.01 583.14,386.01 586.41,386.01 589.68,386.01 592.96,386.01 596.23,386.01 599.51,386.01 602.78,386.01 606.05,386.01 609.33,386.01 612.60,386.01 615.88,386.01 619.15,386.01 622.42,386.01 625.70,386.01 628.97,386.01 632.25,386.01 635.52,386.01 638.80,386.01 642.07,386.01 645.34,386.01 648.62,386.01 651.89,386.01 655.17,386.01 658.44,386.01 661.71,386.01 664.99,386.01 668.26,386.01 671.54,386.01 674.81,386.01 678.08,386.01 681.36,386.01 684.63,386.01 687.91,386.01 691.18,386.01 694.46,386.01 697.73,386.01 701.00,386.01 704.28,386.01 707.55,386.01 710.83,386.01 714.10,386.01 717.37,386.01 720.65,386.01 723.92,386.01 727.20,386.01 730.47,386.01 733.75,386.01 737.02,386.01 740.29,386.01 743.57,386.01 746.84,386.01 750.12,386.01 753.39,386.01 756.66,395.29 759.94,385.80 763.21,387.38 766.49,404.30 769.76,414.13 773.03,418.86 776.31,408.30 779.58,407.82 782.86,401.27 786.13,395.18 789.41,389.74 792.68,388.34 795.95,393.41 799.23,409.40 802.50,403.09 805.78,403.12 809.05,407.34 812.32,429.39 815.60,414.97 818.87,424.83 822.15,436.95 825.42,422.84 828.69,416.99 831.97,413.20 835.24,418.42 838.52,425.07 841.79,421.77 845.07,418.10 848.34,436.93 851.61,441.81 854.89,442.14 858.16,438.46 861.44,412.65 864.71,405.61 867.98,401.84 871.26,427.42 874.53,427.42 877.81,427.42 881.08,427.42 884.36,427.42 887.63,427.42 890.90,427.42 894.18,427.42 897.45,427.42 900.73,427.42 904.00,427.42" />
<text x="780.00" y="104.00" font-size="14" font-family="Arial" fill="#2ca02c" text-anchor="start">MA20x60</text>
</svg>