<svg xmlns="http://www.w3.org/2000/svg" width="960" height="520" viewBox="0 0 960 520"><rect width="100%" height="100%" fill="white" />
<text x="56.00" y="32.00" font-size="20" font-family="Arial" fill="#1f2933" text-anchor="start">TSLA Backtest Equity Curves</text>
<line x1="56" y1="464" x2="904" y2="464" stroke="#cbd2d9" />
<line x1="56" y1="56" x2="56" y2="464" stroke="#cbd2d9" />
<text x="16.00" y="38.00" font-size="12" font-family="Arial" fill="#52606d" text-anchor="start">Equity Multiple</text>
<line x1="56" y1="464.00" x2="904" y2="464.00" stroke="#edf2f7" />
<line x1="52" y1="464.00" x2="56" y2="464.00" stroke="#9fb3c8" />
<text x="48.00" y="468.00" font-size="11" font-family="Arial" fill="#52606d" text-anchor="end">0.73</text>
<line x1="56" y1="362.00" x2="904" y2="362.00" stroke="#edf2f7" />
<line x1="52" y1="362.00" x2="56" y2="362.00" stroke="#9fb3c8" />
<text x="48.00" y="366.00" font-size="11" font-family="Arial" fill="#52606d" text-anchor="end">0.95</text>
<line x1="56" y1="260.00" x2="904" y2="260.00" stroke="#edf2f7" />
<line x1="52" y1="260.00" x2="56" y2="260.00" stroke="#9fb3c8" />
<text x="48.00" y="264.00" font-size="11" font-family="Arial" fill="#52606d" text-anchor="end">1.17</text>
<line x1="56" y1="158.00" x2="904" y2="158.00" stroke="#edf2f7" />
<line x1="52" y1="158.00" x2="56" y2="158.00" stroke="#9fb3c8" />
<text x="48.00" y="162.00" font-size="11" font-family="Arial" fill="#52606d" text-anchor="end">1.39</text>
<line x1="56" y1="56.00" x2="904" y2="56.00" stroke="#edf2f7" />
<line x1="52" y1="56.00" x2="56" y2="56.00" stroke="#9fb3c8" />
<text x="48.00" y="60.00" font-size="11" font-family="Arial" fill="#52606d" text-anchor="end">1.61</text>
<line x1="56.00" y1="464" x2="56.00" y2="468" stroke="#9fb3c8" />
<text x="56.00" y="482.00" font-size="11" font-family="Arial" fill="#52606d" text-anchor="middle">07/11</text>
<line x1="226.25" y1="464" x2="226.25" y2="468" stroke="#9fb3c8" />
<text x="226.25" y="482.00" font-size="11" font-family="Arial" fill="#52606d" text-anchor="middle">09/24</text>
<line x1="396.51" y1="464" x2="396.51" y2="468" stroke="#9fb3c8" />
<text x="396.51" y="482.00" font-size="11" font-family="Arial" fill="#52606d" text-anchor="middle">12/08</text>
<line x1="563.49" y1="464" x2="563.49" y2="468" stroke="#9fb3c8" />
<text x="563.49" y="482.00" font-size="11" font-family="Arial" fill="#52606d" text-anchor="middle">02/23</text>
<line x1="733.75" y1="464" x2="733.75" y2="468" stroke="#9fb3c8" />
<text x="733.75" y="482.00" font-size="11" font-family="Arial" fill="#52606d" text-anchor="middle">05/07</text>
<line x1="904.00" y1="464" x2="904.00" y2="468" stroke="#9fb3c8" />
<text x="904.00" y="482.00" font-size="11" font-family="Arial" fill="#52606d" text-anchor="middle">07/23</text>
<polyline fill="none" stroke="#7f7f7f" stroke-width="2" points="56.00,339.04 59.27,334.02 62.55,343.08 65.82,326.96 69.10,330.30 72.37,315.14 75.64,316.86 78.92,311.50 82.19,310.83 85.47,351.20 88.74,335.27 92.02,321.15 95.29,327.65 98.56,330.85 101.84,346.80 105.11,355.15 108.39,345.34 111.66,346.14 114.93,329.56 118.21,326.07 121.48,315.14 124.76,301.25 128.03,298.57 131.31,300.73 134.58,306.36 137.85,313.79 141.13,306.98 144.40,315.64 147.68,323.66 150.95,329.27 154.22,299.80 157.50,290.04 160.77,282.53 164.05,285.60 167.32,290.96 170.59,308.89 173.87,315.57 177.14,308.57 180.42,301.99 183.69,283.76 186.97,290.34 190.24,289.49 193.51,288.28 196.79,257.15 200.06,216.97 203.34,196.09 206.61,178.94 209.88,172.66 213.16,186.01 216.43,172.35 219.71,160.30 222.98,172.68 226.25,147.59 229.53,176.32 232.80,151.13 236.08,146.97 239.35,144.73 242.63,122.91 245.90,157.65 249.17,166.78 252.45,132.10 255.72,161.96 259.00,153.66 262.27,158.33 265.54,190.98 268.82,157.80 272.09,167.66 275.37,158.91 278.64,168.38 281.92,152.75 285.19,140.72 288.46,147.87 291.74,153.25 295.01,138.43 298.29,161.02 301.56,133.33 304.83,121.29 308.11,119.87 311.38,151.58 314.66,127.20 317.93,109.71 321.20,145.42 324.48,119.04 327.75,142.97 331.03,167.24 334.30,143.98 337.58,152.29 340.85,165.64 344.12,208.01 347.40,204.52 350.67,197.75 353.95,209.11 357.22,205.05 360.49,218.02 363.77,224.15 367.04,184.63 370.32,182.23 373.59,171.60 376.86,166.28 380.14,166.33 383.41,167.66 386.69,141.74 389.96,130.21 393.24,129.51 396.51,152.35 399.78,144.07 403.06,134.77 406.33,141.52 409.61,123.65 412.88,99.43 416.15,77.86 419.43,111.35 422.70,87.50 425.98,90.71 429.25,79.56 432.53,84.25 435.80,84.49 439.07,99.61 442.35,122.64 445.62,130.35 448.90,137.33 452.17,154.58 455.44,134.44 458.72,162.15 461.99,164.44 465.27,157.94 468.54,144.30 471.81,138.46 475.09,141.06 478.36,152.91 481.64,153.84 484.91,155.43 488.19,182.45 491.46,164.40 494.73,137.86 498.01,138.31 501.28,158.83 504.56,165.20 507.83,164.37 511.10,186.44 514.38,165.93 517.65,178.66 520.93,178.44 524.20,202.06 527.47,215.09 530.75,194.51 534.02,185.31 537.30,173.63 540.57,169.09 543.85,185.68 547.12,185.13 550.39,195.22 553.67,194.20 556.94,193.62 560.22,193.46 563.49,211.21 566.76,197.07 570.04,185.19 573.31,198.25 576.59,207.24 579.86,206.04 583.14,222.17 586.41,202.16 589.68,202.74 592.96,215.80 596.23,212.91 599.51,212.09 602.78,199.38 606.05,218.35 609.33,223.99 612.60,217.53 615.88,212.04 619.15,221.65 622.42,240.13 625.70,258.41 628.97,239.32 632.25,236.09 635.52,231.77 638.80,252.26 642.07,267.49 645.34,277.19 648.62,252.79 651.89,238.71 655.17,269.32 658.44,280.83 661.71,289.97 664.99,295.00 668.26,291.49 671.54,286.56 674.81,281.42 678.08,263.98 681.36,222.88 684.63,227.40 687.91,210.04 691.18,222.07 694.46,231.07 697.73,229.46 701.00,249.88 704.28,246.06 707.55,242.55 710.83,246.47 714.10,251.24 717.37,238.16 720.65,224.55 723.92,222.05 727.20,226.70 730.47,212.84 733.75,193.50 737.02,168.98 740.29,144.32 743.57,161.42 746.84,143.92 750.12,146.84 753.39,178.02 756.66,196.17 759.94,204.87 763.21,185.40 766.49,184.53 769.76,172.44 773.03,161.22 776.31,151.19 779.58,148.61 782.86,157.96 786.13,187.44 789.41,175.80 792.68,175.86 795.95,183.64 799.23,224.29 802.50,197.71 805.78,215.88 809.05,238.22 812.32,212.22 815.60,201.44 818.87,194.45 822.15,204.06 825.42,216.32 828.69,210.23 831.97,203.48 835.24,238.19 838.52,247.20 841.79,247.80 845.07,241.01 848.34,193.43 851.61,180.45 854.89,173.49 858.16,220.66 861.44,181.68 864.71,206.67 867.98,219.76 871.26,201.26 874.53,199.47 877.81,218.72 881.08,216.62 884.36,219.16 887.63,224.20 890.90,239.33 894.18,256.02 897.45,242.16 900.73,249.45 904.00,329.89" />
<text x="780.00" y="60.00" font-size="14" font-family="Arial" fill="#7f7f7f" text-anchor="start">BuyHold</text>
<polyline fill="none" stroke="#1f77b4" stroke-width="2" points="56.00,339.04 59.27,339.04 62.55,339.04 65.82,339.04 69.10,339.04 72.37,339.04 75.64,339.04 78.92,339.04 82.19,339.04 85.47,339.04 88.74,339.04 92.02,339.04 95.29,339.04 98.56,339.04 101.84,339.04 105.11,339.04 108.39,339.04 111.66,339.04 114.93,339.04 118.21,339.04 121.48,339.04 124.76,339.04 128.03,339.04 131.31,339.04 134.58,339.04 137.85,339.04 141.13,339.04 144.40,339.04 147.68,339.04 150.95,339.04 154.22,339.04 157.50,339.04 160.77,339.04 164.05,339.04 167.32,339.04 170.59,339.04 173.87,339.04 177.14,339.04 180.42,339.04 183.69,339.04 186.97,339.04 190.24,339.04 193.51,339.04 196.79,339.04 200.06,339.04 203.34,339.04 206.61,339.04 209.88,339.04 213.16,339.04 216.43,339.04 219.71,339.04 222.98,339.04 226.25,339.04 229.53,339.04 232.80,339.04 236.08,339.04 239.35,339.04 242.63,339.04 245.90,339.04 249.17,339.04 252.45,339.04 255.72,339.04 259.00,339.04 262.27,339.04 265.54,339.04 268.82,339.04 272.09,339.04 275.37,339.04 278.64,339.04 281.92,339.04 285.19,339.04 288.46,339.04 291.74,339.04 295.01,339.04 298.29,339.04 301.56,339.04 304.83,339.04 308.11,339.04 311.38,339.04 314.66,339.04 317.93,339.04 321.20,339.04 324.48,339.04 327.75,339.04 331.03,339.04 334.30,339.04 337.58,339.04 340.85,339.04 344.12,339.04 347.40,339.04 350.67,339.04 353.95,339.04 357.22,339.04 360.49,339.04 363.77,339.04 367.04,339.04 370.32,339.04 373.59,339.04 376.86,339.04 380.14,339.04 383.41,339.04 386.69,339.04 389.96,339.04 393.24,339.04 396.51,339.04 399.78,339.04 403.06,339.04 406.33,339.04 409.61,339.04 412.88,339.04 416.15,339.04 419.43,339.04 422.70,339.04 425.98,339.04 429.25,339.04 432.53,339.04 435.80,339.04 439.07,339.04 442.35,339.04 445.62,339.04 448.90,339.04 452.17,339.04 455.44,339.04 458.72,339.04 461.99,339.04 465.27,339.04 468.54,339.04 471.81,339.04 475.09,339.04 478.36,339.04 481.64,339.04 484.91,339.04 488.19,339.04 491.46,339.04 494.73,339.04 498.01,339.04 501.28,339.04 504.56,339.04 507.83,339.04 511.10,339.04 514.38,339.04 517.65,339.04 520.93,339.04 524.20,339.04 527.47,339.04 530.75,339.04 534.02,339.04 537.30,339.04 540.57,339.04 543.85,339.04 547.12,339.04 550.39,339.04 553.67,339.04 556.94,339.04 560.22,339.04 563.49,339.04 566.76,339.04 570.04,339.04 573.31,339.04 576.59,339.04 579.86,339.04 583.14,339.04 586.41,339.04 589.68,339.04 592.96,339.04 596.23,339.04 599.51,339.04 602.78,339.04 606.05,339.04 609.33,339.04 612.60,339.04 615.88,339.04 619.15,339.04 622.42,339.04 625.70,339.04 628.97,339.04 632.25,339.04 635.52,339.04 638.80,339.04 642.07,339.04 645.34,339.04 648.62,339.04 651.89,339.04 655.17,339.04 658.44,339.04 661.71,339.04 664.99,339.04 668.26,339.04 671.54,339.04 674.81,339.04 678.08,339.04 681.36,339.04 684.63,339.04 687.91,339.04 691.18,339.04 694.46,339.04 697.73,339.04 701.00,339.04 704.28,339.04 707.55,339.04 710.83,339.04 714.10,339.04 717.37,339.04 720.65,339.04 723.92,339.04 727.20,339.04 730.47,339.04 733.75,339.04 737.02,320.37 740.29,301.60 743.57,314.62 746.84,301.29 750.12,303.52 753.39,327.26 756.66,341.07 759.94,347.70 763.21,347.70 766.49,347.06 769.76,338.15 773.03,329.87 776.31,322.48 779.58,320.58 782.86,327.47 786.13,349.21 789.41,340.63 792.68,340.67 795.95,346.40 799.23,376.37 802.50,376.37 805.78,376.37 809.05,376.37 812.32,376.37 815.60,376.37 818.87,376.37 822.15,376.37 825.42,376.37 828.69,376.37 831.97,376.37 835.24,376.37 838.52,376.37 841.79,376.37 845.07,376.37 848.34,376.37 851.61,376.37 854.89,371.60 858.16,403.93 861.44,403.93 864.71,419.98 867.98,419.98 871.26,419.98 874.53,419.98 877.81,419.98 881.08,419.98 884.36,419.98 887.63,419.98 890.90,419.98 894.18,419.98 897.45,419.98 900.73,419.98 904.00,419.98" />
<text x="780.00" y="82.00" font-size="14" font-family="Arial" fill="#1f77b4" text-anchor="start">MA200</text>
<polyline fill="none" stroke="#2ca02c" stroke-width="2" points="56.00,339.04 59.27,339.04 62.55,339.04 65.82,339.04 69.10,339.04 72.37,339.04 75.64,339.04 78.92,339.04 82.19,339.04 85.47,339.04 88.74,339.04 92.02,339.04 95.29,339.04 98.56,339.04 101.84,339.04 105.11,339.04 108.39,339.04 111.66,339.04 114.93,339.04 118.21,339.04 121.48,339.04 124.76,339.04 128.03,339.04 131.31,339.04 134.58,339.04 137.85,339.04 141.13,339.04 144.40,339.04 147.68,339.04 150.95,339.04 154.22,339.04 157.50,339.04 160.77,339.04 164.05,339.04 167.32,339.04 170.59,339.04 173.87,339.04 177.14,339.04 180.42,339.04 183.69,339.04 186.97,339.04 190.24,339.04 193.51,339.04 196.79,339.04 200.06,339.04 203.34,339.04 206.61,339.04 209.88,339.04 213.16,339.04 216.43,339.04 219.71,339.04 222.98,339.04 226.25,339.04 229.53,339.04 232.80,339.04 236.08,339.04 239.35,339.04 242.63,339.04 245.90,339.04 249.17,339.04 252.45,313.75 255.72,335.52 259.00,329.47 262.27,332.87 265.54,356.69 268.82,332.49 272.09,339.68 275.37,333.30 278.64,340.21 281.92,328.80 285.19,320.03 288.46,325.25 291.74,329.17 295.01,318.36 298.29,334.84 301.56,314.64 304.83,305.86 308.11,304.82 311.38,327.95 314.66,310.17 317.93,297.41 321.20,323.46 324.48,304.22 327.75,321.67 331.03,339.38 334.30,322.41 337.58,328.47 340.85,338.21 344.12,369.11 347.40,366.56 350.67,361.63 353.95,369.91 357.22,366.95 360.49,376.41 363.77,380.89 367.04,352.06 370.32,350.31 373.59,342.55 376.86,338.67 380.14,338.71 383.41,338.71 386.69,338.71 389.96,338.71 393.24,338.71 396.51,338.71 399.78,338.71 403.06,338.71 406.33,338.71 409.61,338.71 412.88,338.71 416.15,338.71 419.43,338.71 422.70,322.69 425.98,324.85 429.25,317.36 432.53,320.51 435.80,320.67 439.07,330.82 442.35,346.28 445.62,351.46 448.90,356.15 452.17,367.73 455.44,354.21 458.72,372.81 461.99,374.35 465.27,369.99 468.54,360.83 471.81,356.90 475.09,358.65 478.36,366.61 481.64,367.23 484.91,368.30 488.19,386.44 491.46,374.32 494.73,356.51 498.01,356.80 501.28,370.59 504.56,374.86 507.83,374.86 511.10,374.86 514.38,374.86 517.65,374.86 520.93,374.86 524.20,374.86 527.47,374.86 530.75,374.86 534.02,374.86 537.30,374.86 540.57,374.86 543.85,374.86 547.12,374.86 550.39,374.86 553.67,374.86 556.94,374.86 560.22,374.86 563.49,374.86 566.76,374.86 570.04,374.86 573.31,374.86 576.59,374.86 579.86,374.86 583.14,374.86 586.41,374.86 589.68,374.86 592.96,374.86 596.23,374.86 599.51,374.86 602.78,374.86 606.05,374.86 609.33,374.86 612.60,374.86 615.88,374.86 619.15,374.86 622.42,374.86 625.70,374.86 628.97,374.86 632.25,374.86 635.52,374.86 638.80,374.86 642.07,374.86 645.34,374.86 648.62,374.86 651.89,374.86 655.17,374.86 658.44,374.86 661.71,374.86 664.99,374.86 668.26,374.86 671.54,374.86 674.81,374.86 678.08,374.86 681.36,374.86 684.63,374.86 687.91,374.86 691.18,374.86 694.46,374.86 697.73,374.86 701.00,374.86 704.28,374.86 707.55,374.86 710.83,374.86 714.10,374.86 717.37,374.86 720.65,374.86 723.92,374.86 727.20,374.86 730.47,374.86 733.75,374.86 737.02,374.86 740.29,374.86 743.57,385.98 746.84,374.60 750.12,376.50 753.39,396.77 756.66,408.57 759.94,414.23 763.21,401.57 766.49,401.00 769.76,393.14 773.03,385.85 776.31,379.33 779.58,377.65 782.86,383.73 786.13,402.90 789.41,395.33 792.68,395.37 795.95,400.42 799.23,426.85 802.50,409.57 805.78,421.38 809.05,435.91 812.32,419.01 815.60,412.00 818.87,407.45 822.15,413.70 825.42,421.67 828.69,417.72 831.97,413.33 835.24,435.89 838.52,441.75 841.79,442.14 845.07,437.72 848.34,406.79 851.61,398.35 854.89,393.83 858.16,424.49 861.44,424.49 864.71,424.49 867.98,424.49 871.26,424.49 874.53,424.49 877.81,424.49 881.08,424.49 884.36,424.49 887.63,424.49 890.90,424.49 894.18,424.49 897.45,424.49 900.73,424.49 904.00,424.49" />
<text x="780.00" y="104.00" font-size="14" font-family="Arial" fill="#2ca02c" text-anchor="start">MA20x60</text>
</svg>