<svg xmlns="http://www.w3.org/2000/svg" width="960" height="520" viewBox="0 0 960 520"><rect width="100%" height="100%" fill="white" />
<text x="56.00" y="32.00" font-size="20" font-family="Arial" fill="#1f2933" text-anchor="start">TSM Backtest Equity Curves</text>
<line x1="56" y1="464" x2="904" y2="464" stroke="#cbd2d9" />
<line x1="56" y1="56" x2="56" y2="464" stroke="#cbd2d9" />
<text x="16.00" y="38.00" font-size="12" font-family="Arial" fill="#52606d" text-anchor="start">Equity Multiple</text>
<line x1="56" y1="464.00" x2="904" y2="464.00" stroke="#edf2f7" />
<line x1="52" y1="464.00" x2="56" y2="464.00" stroke="#9fb3c8" />
<text x="48.00" y="468.00" font-size="11" font-family="Arial" fill="#52606d" text-anchor="end">0.92</text>
<line x1="56" y1="362.00" x2="904" y2="362.00" stroke="#edf2f7" />
<line x1="52" y1="362.00" x2="56" y2="362.00" stroke="#9fb3c8" />
<text x="48.00" y="366.00" font-size="11" font-family="Arial" fill="#52606d" text-anchor="end">1.29</text>
<line x1="56" y1="260.00" x2="904" y2="260.00" stroke="#edf2f7" />
<line x1="52" y1="260.00" x2="56" y2="260.00" stroke="#9fb3c8" />
<text x="48.00" y="264.00" font-size="11" font-family="Arial" fill="#52606d" text-anchor="end">1.65</text>
<line x1="56" y1="158.00" x2="904" y2="158.00" stroke="#edf2f7" />
<line x1="52" y1="158.00" x2="56" y2="158.00" stroke="#9fb3c8" />
<text x="48.00" y="162.00" font-size="11" font-family="Arial" fill="#52606d" text-anchor="end">2.02</text>
<line x1="56" y1="56.00" x2="904" y2="56.00" stroke="#edf2f7" />
<line x1="52" y1="56.00" x2="56" y2="56.00" stroke="#9fb3c8" />
<text x="48.00" y="60.00" font-size="11" font-family="Arial" fill="#52606d" text-anchor="end">2.38</text>
<line x1="56.00" y1="464" x2="56.00" y2="468" stroke="#9fb3c8" />
<text x="56.00" y="482.00" font-size="11" font-family="Arial" fill="#52606d" text-anchor="middle">06/20</text>
<line x1="226.25" y1="464" x2="226.25" y2="468" stroke="#9fb3c8" />
<text x="226.25" y="482.00" font-size="11" font-family="Arial" fill="#52606d" text-anchor="middle">09/04</text>
<line x1="396.51" y1="464" x2="396.51" y2="468" stroke="#9fb3c8" />
<text x="396.51" y="482.00" font-size="11" font-family="Arial" fill="#52606d" text-anchor="middle">11/17</text>
<line x1="563.49" y1="464" x2="563.49" y2="468" stroke="#9fb3c8" />
<text x="563.49" y="482.00" font-size="11" font-family="Arial" fill="#52606d" text-anchor="middle">02/02</text>
<line x1="733.75" y1="464" x2="733.75" y2="468" stroke="#9fb3c8" />
<text x="733.75" y="482.00" font-size="11" font-family="Arial" fill="#52606d" text-anchor="middle">04/17</text>
<line x1="904.00" y1="464" x2="904.00" y2="468" stroke="#9fb3c8" />
<text x="904.00" y="482.00" font-size="11" font-family="Arial" fill="#52606d" text-anchor="middle">07/02</text>
<polyline fill="none" stroke="#7f7f7f" stroke-width="2" points="56.00,442.14 59.27,441.06 62.55,428.04 65.82,424.51 69.10,422.82 72.37,416.74 75.64,419.51 78.92,421.93 82.19,410.04 85.47,408.44 88.74,415.94 92.02,417.69 95.29,412.38 98.56,415.16 101.84,414.30 105.11,416.61 108.39,405.57 111.66,404.76 114.93,394.05 118.21,400.98 121.48,403.04 124.76,408.71 128.03,401.07 131.31,399.38 134.58,394.05 137.85,397.84 141.13,399.74 144.40,397.63 147.68,399.35 150.95,407.89 154.22,402.84 157.50,411.54 160.77,413.01 164.05,398.02 167.32,399.07 170.59,398.72 173.87,395.79 177.14,399.59 180.42,400.18 183.69,403.00 186.97,399.63 190.24,411.24 193.51,416.70 196.79,418.39 200.06,410.85 203.34,407.39 206.61,403.21 209.88,402.45 213.16,403.81 216.43,413.68 219.71,416.98 222.98,412.98 226.25,407.89 229.53,396.96 232.80,391.93 236.08,386.96 239.35,374.27 242.63,376.31 245.90,375.75 249.17,373.02 252.45,371.01 255.72,370.03 259.00,362.21 262.27,367.25 265.54,356.88 268.82,343.40 272.09,346.07 275.37,351.49 278.64,355.90 281.92,356.07 285.19,347.97 288.46,335.70 291.74,336.18 295.01,330.73 298.29,317.08 301.56,328.27 304.83,314.24 308.11,320.44 311.38,346.14 314.66,316.42 317.93,325.71 321.20,313.99 324.48,320.50 327.75,326.86 331.03,323.36 334.30,327.62 337.58,335.15 340.85,332.68 344.12,327.02 347.40,322.62 350.67,318.24 353.95,313.48 357.22,315.98 360.49,319.71 363.77,313.79 367.04,328.24 370.32,328.79 373.59,334.67 376.86,338.33 380.14,326.61 383.41,332.09 386.69,332.82 389.96,344.08 393.24,340.58 396.51,344.34 399.78,349.82 403.06,343.85 406.33,350.37 409.61,353.63 412.88,340.82 416.15,340.77 419.43,333.71 422.70,331.63 425.98,336.76 429.25,330.86 432.53,326.37 435.80,329.74 439.07,327.34 442.35,317.78 445.62,315.73 448.90,306.73 452.17,312.70 455.44,329.87 458.72,335.64 461.99,336.80 465.27,350.09 468.54,339.74 471.81,334.01 475.09,328.21 478.36,323.29 481.64,320.81 484.91,315.39 488.19,317.97 491.46,319.76 494.73,313.99 498.01,292.91 501.28,289.38 504.56,282.43 507.83,294.16 511.10,295.06 514.38,287.53 517.65,276.61 520.93,277.36 524.20,282.86 527.47,263.38 530.75,262.36 534.02,282.79 537.30,284.19 540.57,282.51 543.85,272.46 547.12,275.35 550.39,267.81 553.67,262.50 556.94,266.18 560.22,278.24 563.49,263.76 566.76,271.28 570.04,284.70 573.31,278.01 576.59,253.72 579.86,244.92 583.14,236.21 586.41,219.88 589.68,227.91 592.96,230.24 596.23,233.14 599.51,235.74 602.78,238.25 606.05,224.64 609.33,225.31 612.60,204.25 615.88,201.60 619.15,216.24 622.42,219.23 625.70,226.56 628.97,247.98 632.25,242.20 635.52,247.00 638.80,267.07 642.07,253.92 645.34,256.08 648.62,246.06 651.89,269.99 655.17,267.85 658.44,265.27 661.71,256.26 664.99,264.87 668.26,265.92 671.54,278.76 674.81,266.38 678.08,259.93 681.36,253.88 684.63,282.97 687.91,282.12 691.18,295.89 694.46,267.05 697.73,262.29 701.00,265.59 704.28,261.93 707.55,257.14 710.83,229.48 714.10,230.03 717.37,223.16 720.65,224.55 723.92,210.67 727.20,217.11 730.47,232.91 733.75,223.30 737.02,229.02 740.29,226.55 743.57,200.52 746.84,206.95 750.12,180.33 753.39,176.94 756.66,193.94 759.94,191.93 763.21,188.93 766.49,186.77 769.76,181.47 773.03,191.15 776.31,157.42 779.58,164.62 782.86,167.94 786.13,177.54 789.41,187.29 792.68,183.91 795.95,159.82 799.23,177.79 802.50,189.08 805.78,193.57 809.05,181.46 812.32,174.03 815.60,177.56 818.87,167.08 822.15,153.08 825.42,150.22 828.69,158.84 831.97,135.74 835.24,120.87 838.52,134.32 841.79,123.25 845.07,163.25 848.34,147.61 851.61,146.11 854.89,171.88 858.16,153.99 861.44,150.13 864.71,126.59 867.98,147.57 871.26,139.06 874.53,98.68 877.81,91.20 881.08,133.35 884.36,127.36 887.63,135.23 890.90,138.79 894.18,108.13 897.45,77.86 900.73,122.78 904.00,136.35" />
<text x="780.00" y="60.00" font-size="14" font-family="Arial" fill="#7f7f7f" text-anchor="start">BuyHold</text>
<polyline fill="none" stroke="#1f77b4" stroke-width="2" points="56.00,442.14 59.27,442.14 62.55,442.14 65.82,442.14 69.10,442.14 72.37,442.14 75.64,442.14 78.92,442.14 82.19,442.14 85.47,442.14 88.74,442.14 92.02,442.14 95.29,442.14 98.56,442.14 101.84,442.14 105.11,442.14 108.39,442.14 111.66,442.14 114.93,442.14 118.21,442.14 121.48,442.14 124.76,442.14 128.03,442.14 131.31,442.14 134.58,442.14 137.85,442.14 141.13,442.14 144.40,442.14 147.68,442.14 150.95,442.14 154.22,442.14 157.50,442.14 160.77,442.14 164.05,442.14 167.32,442.14 170.59,442.14 173.87,442.14 177.14,442.14 180.42,442.14 183.69,442.14 186.97,442.14 190.24,442.14 193.51,442.14 196.79,442.14 200.06,442.14 203.34,442.14 206.61,442.14 209.88,442.14 213.16,442.14 216.43,442.14 219.71,442.14 222.98,442.14 226.25,442.14 229.53,442.14 232.80,442.14 236.08,442.14 239.35,442.14 242.63,442.14 245.90,442.14 249.17,442.14 252.45,442.14 255.72,442.14 259.00,442.14 262.27,442.14 265.54,442.14 268.82,442.14 272.09,442.14 275.37,442.14 278.64,442.14 281.92,442.14 285.19,442.14 288.46,442.14 291.74,442.14 295.01,442.14 298.29,442.14 301.56,442.14 304.83,442.14 308.11,442.14 311.38,442.14 314.66,442.14 317.93,442.14 321.20,442.14 324.48,442.14 327.75,442.14 331.03,442.14 334.30,442.14 337.58,442.14 340.85,442.14 344.12,442.14 347.40,442.14 350.67,442.14 353.95,442.14 357.22,442.14 360.49,442.14 363.77,442.14 367.04,442.14 370.32,442.14 373.59,442.14 376.86,442.14 380.14,442.14 383.41,442.14 386.69,442.14 389.96,442.14 393.24,442.14 396.51,442.14 399.78,442.14 403.06,442.14 406.33,442.14 409.61,442.14 412.88,442.14 416.15,442.14 419.43,442.14 422.70,442.14 425.98,442.14 429.25,442.14 432.53,442.14 435.80,442.14 439.07,442.14 442.35,442.14 445.62,442.14 448.90,442.14 452.17,442.14 455.44,442.14 458.72,442.14 461.99,442.14 465.27,442.14 468.54,442.14 471.81,442.14 475.09,442.14 478.36,442.14 481.64,442.14 484.91,442.14 488.19,442.14 491.46,442.14 494.73,442.14 498.01,442.14 501.28,442.14 504.56,442.14 507.83,442.14 511.10,442.14 514.38,442.14 517.65,442.14 520.93,442.14 524.20,442.14 527.47,442.14 530.75,442.14 534.02,442.14 537.30,442.14 540.57,442.14 543.85,442.14 547.12,442.14 550.39,442.14 553.67,442.14 556.94,442.14 560.22,442.14 563.49,442.14 566.76,442.14 570.04,442.14 573.31,442.14 576.59,442.14 579.86,442.14 583.14,442.14 586.41,442.14 589.68,442.14 592.96,442.14 596.23,442.14 599.51,442.14 602.78,442.14 606.05,442.14 609.33,442.14 612.60,442.14 615.88,442.14 619.15,442.14 622.42,442.14 625.70,442.14 628.97,442.14 632.25,442.14 635.52,442.14 638.80,442.14 642.07,442.14 645.34,442.14 648.62,442.14 651.89,442.14 655.17,442.14 658.44,442.14 661.71,442.14 664.99,442.14 668.26,442.14 671.54,442.14 674.81,442.14 678.08,442.14 681.36,442.14 684.63,442.14 687.91,442.14 691.18,442.14 694.46,442.14 697.73,442.14 701.00,442.14 704.28,442.14 707.55,442.14 710.83,425.50 714.10,425.83 717.37,421.70 720.65,422.53 723.92,414.19 727.20,418.06 730.47,427.56 733.75,421.78 737.02,425.23 740.29,423.74 743.57,408.09 746.84,411.95 750.12,395.94 753.39,393.90 756.66,404.12 759.94,402.92 763.21,401.12 766.49,399.81 769.76,396.63 773.03,402.45 776.31,382.16 779.58,386.49 782.86,388.49 786.13,394.26 789.41,400.13 792.68,398.09 795.95,383.60 799.23,394.41 802.50,401.20 805.78,403.91 809.05,396.62 812.32,392.15 815.60,394.28 818.87,387.97 822.15,379.55 825.42,377.83 828.69,383.01 831.97,369.12 835.24,360.18 838.52,368.26 841.79,361.61 845.07,385.66 848.34,376.26 851.61,375.35 854.89,390.86 858.16,380.10 861.44,377.78 864.71,363.62 867.98,376.24 871.26,371.12 874.53,346.83 877.81,342.33 881.08,367.68 884.36,364.08 887.63,368.81 890.90,370.95 894.18,352.52 897.45,334.30 900.73,361.33 904.00,369.49" />
<text x="780.00" y="82.00" font-size="14" font-family="Arial" fill="#1f77b4" text-anchor="start">MA200</text>
<polyline fill="none" stroke="#2ca02c" stroke-width="2" points="56.00,442.14 59.27,442.14 62.55,442.14 65.82,442.14 69.10,442.14 72.37,442.14 75.64,442.14 78.92,442.14 82.19,442.14 85.47,442.14 88.74,442.14 92.02,442.14 95.29,442.14 98.56,442.14 101.84,442.14 105.11,442.14 108.39,442.14 111.66,442.14 114.93,442.14 118.21,442.14 121.48,442.14 124.76,442.14 128.03,442.14 131.31,442.14 134.58,442.14 137.85,442.14 141.13,442.14 144.40,442.14 147.68,442.14 150.95,442.14 154.22,442.14 157.50,442.14 160.77,442.14 164.05,442.14 167.32,442.14 170.59,442.14 173.87,442.14 177.14,442.14 180.42,442.14 183.69,442.14 186.97,442.14 190.24,442.14 193.51,442.14 196.79,442.14 200.06,442.14 203.34,442.14 206.61,442.14 209.88,442.14 213.16,442.14 216.43,442.14 219.71,442.14 222.98,442.14 226.25,442.14 229.53,442.14 232.80,442.14 236.08,442.14 239.35,442.14 242.63,442.14 245.90,442.14 249.17,442.14 252.45,440.53 255.72,439.75 259.00,433.48 262.27,437.52 265.54,429.21 268.82,418.40 272.09,420.55 275.37,424.89 278.64,428.42 281.92,428.56 285.19,422.07 288.46,412.23 291.74,412.62 295.01,408.25 298.29,397.30 301.56,406.27 304.83,395.03 308.11,400.01 311.38,420.60 314.66,396.78 317.93,404.23 321.20,394.83 324.48,400.05 327.75,405.15 331.03,402.34 334.30,405.76 337.58,411.79 340.85,409.81 344.12,405.28 347.40,401.75 350.67,398.24 353.95,394.42 357.22,396.43 360.49,399.42 363.77,394.67 367.04,406.25 370.32,406.69 373.59,411.41 376.86,414.34 380.14,404.95 383.41,409.34 386.69,409.93 389.96,418.95 393.24,416.14 396.51,419.15 399.78,423.55 403.06,418.77 406.33,423.99 409.61,426.60 412.88,416.34 416.15,416.29 419.43,410.64 422.70,408.97 425.98,413.08 429.25,408.35 432.53,404.75 435.80,407.45 439.07,407.45 442.35,407.45 445.62,407.45 448.90,407.45 452.17,407.45 455.44,407.45 458.72,407.45 461.99,407.45 465.27,407.45 468.54,407.45 471.81,407.45 475.09,407.45 478.36,403.52 481.64,401.54 484.91,397.22 488.19,399.28 491.46,400.71 494.73,396.10 498.01,379.27 501.28,376.45 504.56,370.90 507.83,380.27 511.10,380.98 514.38,374.97 517.65,366.26 520.93,366.86 524.20,371.24 527.47,355.69 530.75,354.88 534.02,371.19 537.30,372.30 540.57,370.97 543.85,362.94 547.12,365.25 550.39,359.22 553.67,354.99 556.94,357.93 560.22,367.55 563.49,355.99 566.76,362.00 570.04,372.71 573.31,367.37 576.59,347.97 579.86,340.95 583.14,334.00 586.41,320.96 589.68,327.37 592.96,329.23 596.23,331.54 599.51,333.62 602.78,335.62 606.05,324.76 609.33,325.29 612.60,308.48 615.88,306.36 619.15,318.05 622.42,320.43 625.70,326.29 628.97,343.39 632.25,338.78 635.52,342.61 638.80,358.63 642.07,348.13 645.34,349.86 648.62,341.86 651.89,360.97 655.17,359.26 658.44,357.20 661.71,350.00 664.99,356.88 668.26,357.72 671.54,367.97 674.81,358.09 678.08,352.93 681.36,348.10 684.63,371.33 687.91,370.65 691.18,370.65 694.46,370.65 697.73,370.65 701.00,370.65 704.28,370.65 707.55,370.65 710.83,370.65 714.10,370.65 717.37,370.65 720.65,370.65 723.92,370.65 727.20,370.65 730.47,370.65 733.75,370.65 737.02,370.65 740.29,368.89 743.57,350.35 746.84,354.93 750.12,335.97 753.39,333.56 756.66,345.66 759.94,344.23 763.21,342.10 766.49,340.56 769.76,336.78 773.03,343.68 776.31,319.65 779.58,324.78 782.86,327.14 786.13,333.98 789.41,340.93 792.68,338.52 795.95,321.36 799.23,334.16 802.50,342.20 805.78,345.40 809.05,336.77 812.32,331.48 815.60,334.00 818.87,326.53 822.15,316.56 825.42,314.52 828.69,320.66 831.97,304.21 835.24,293.62 838.52,303.19 841.79,295.31 845.07,323.80 848.34,312.66 851.61,311.59 854.89,329.95 858.16,317.21 861.44,314.46 864.71,297.69 867.98,312.64 871.26,306.57 874.53,277.80 877.81,272.48 881.08,302.50 884.36,298.24 887.63,303.84 890.90,306.38 894.18,284.54 897.45,262.98 900.73,294.98 904.00,304.64" />
<text x="780.00" y="104.00" font-size="14" font-family="Arial" fill="#2ca02c" text-anchor="start">MA20x60</text>
</svg>