<svg xmlns="http://www.w3.org/2000/svg" width="960" height="520" viewBox="0 0 960 520"><rect width="100%" height="100%" fill="white" />
<text x="56.00" y="32.00" font-size="20" font-family="Arial" fill="#1f2933" text-anchor="start">世芯-KY(3661) Backtest Equity Curves</text>
<line x1="56" y1="464" x2="904" y2="464" stroke="#cbd2d9" />
<line x1="56" y1="56" x2="56" y2="464" stroke="#cbd2d9" />
<text x="16.00" y="38.00" font-size="12" font-family="Arial" fill="#52606d" text-anchor="start">Equity Multiple</text>
<line x1="56" y1="464.00" x2="904" y2="464.00" stroke="#edf2f7" />
<line x1="52" y1="464.00" x2="56" y2="464.00" stroke="#9fb3c8" />
<text x="48.00" y="468.00" font-size="11" font-family="Arial" fill="#52606d" text-anchor="end">0.69</text>
<line x1="56" y1="362.00" x2="904" y2="362.00" stroke="#edf2f7" />
<line x1="52" y1="362.00" x2="56" y2="362.00" stroke="#9fb3c8" />
<text x="48.00" y="366.00" font-size="11" font-family="Arial" fill="#52606d" text-anchor="end">1.02</text>
<line x1="56" y1="260.00" x2="904" y2="260.00" stroke="#edf2f7" />
<line x1="52" y1="260.00" x2="56" y2="260.00" stroke="#9fb3c8" />
<text x="48.00" y="264.00" font-size="11" font-family="Arial" fill="#52606d" text-anchor="end">1.35</text>
<line x1="56" y1="158.00" x2="904" y2="158.00" stroke="#edf2f7" />
<line x1="52" y1="158.00" x2="56" y2="158.00" stroke="#9fb3c8" />
<text x="48.00" y="162.00" font-size="11" font-family="Arial" fill="#52606d" text-anchor="end">1.68</text>
<line x1="56" y1="56.00" x2="904" y2="56.00" stroke="#edf2f7" />
<line x1="52" y1="56.00" x2="56" y2="56.00" stroke="#9fb3c8" />
<text x="48.00" y="60.00" font-size="11" font-family="Arial" fill="#52606d" text-anchor="end">2.01</text>
<line x1="56.00" y1="464" x2="56.00" y2="468" stroke="#9fb3c8" />
<text x="56.00" y="482.00" font-size="11" font-family="Arial" fill="#52606d" text-anchor="middle">06/20</text>
<line x1="226.25" y1="464" x2="226.25" y2="468" stroke="#9fb3c8" />
<text x="226.25" y="482.00" font-size="11" font-family="Arial" fill="#52606d" text-anchor="middle">09/03</text>
<line x1="396.51" y1="464" x2="396.51" y2="468" stroke="#9fb3c8" />
<text x="396.51" y="482.00" font-size="11" font-family="Arial" fill="#52606d" text-anchor="middle">11/20</text>
<line x1="563.49" y1="464" x2="563.49" y2="468" stroke="#9fb3c8" />
<text x="563.49" y="482.00" font-size="11" font-family="Arial" fill="#52606d" text-anchor="middle">02/03</text>
<line x1="733.75" y1="464" x2="733.75" y2="468" stroke="#9fb3c8" />
<text x="733.75" y="482.00" font-size="11" font-family="Arial" fill="#52606d" text-anchor="middle">04/30</text>
<line x1="904.00" y1="464" x2="904.00" y2="468" stroke="#9fb3c8" />
<text x="904.00" y="482.00" font-size="11" font-family="Arial" fill="#52606d" text-anchor="middle">07/15</text>
<polyline fill="none" stroke="#7f7f7f" stroke-width="2" points="56.00,368.53 59.27,365.21 62.55,371.85 65.82,359.67 69.10,359.67 72.37,346.39 75.64,335.87 78.92,325.91 82.19,325.36 85.47,327.02 88.74,325.36 92.02,322.04 95.29,322.59 98.56,305.99 101.84,295.47 105.11,298.79 108.39,312.07 111.66,305.43 114.93,279.97 118.21,262.82 121.48,243.44 124.76,260.05 128.03,266.69 131.31,255.07 134.58,238.46 137.85,248.43 141.13,248.98 144.40,256.17 147.68,263.37 150.95,248.43 154.22,262.82 157.50,263.37 160.77,267.80 164.05,261.71 167.32,253.41 170.59,245.66 173.87,227.39 177.14,222.41 180.42,208.02 183.69,201.93 186.97,210.24 190.24,231.82 193.51,273.33 196.79,259.49 200.06,270.01 203.34,247.32 206.61,237.91 209.88,226.84 213.16,235.70 216.43,229.61 219.71,245.10 222.98,248.82 226.25,233.74 229.53,248.26 232.80,234.85 236.08,234.30 239.35,241.00 242.63,238.21 245.90,239.88 249.17,254.97 252.45,262.23 255.72,267.26 259.00,258.32 262.27,262.79 265.54,259.44 268.82,258.32 272.09,265.02 275.37,297.43 278.64,301.90 281.92,312.51 285.19,291.28 288.46,299.11 291.74,311.40 295.01,308.60 298.29,291.84 301.56,293.52 304.83,285.70 308.11,301.90 311.38,334.86 314.66,334.30 317.93,332.63 321.20,333.75 324.48,316.98 327.75,303.58 331.03,318.66 334.30,326.48 337.58,335.98 340.85,335.98 344.12,315.31 347.40,303.58 350.67,287.93 353.95,292.96 357.22,293.52 360.49,305.25 363.77,268.38 367.04,280.11 370.32,263.35 373.59,272.29 376.86,285.14 380.14,284.58 383.41,286.26 386.69,275.08 389.96,315.31 393.24,307.49 396.51,334.86 399.78,344.36 403.06,346.60 406.33,348.83 409.61,330.95 412.88,311.40 416.15,309.16 419.43,310.84 422.70,296.31 425.98,322.01 429.25,324.25 432.53,325.92 435.80,329.83 439.07,314.19 442.35,301.90 445.62,310.28 448.90,318.66 452.17,324.25 455.44,341.57 458.72,320.89 461.99,324.25 465.27,319.22 468.54,318.10 471.81,318.66 475.09,323.13 478.36,319.22 481.64,299.66 484.91,289.05 488.19,286.26 491.46,272.29 494.73,270.61 498.01,261.11 501.28,267.26 504.56,276.20 507.83,279.55 511.10,272.85 514.38,267.82 517.65,291.84 520.93,307.49 524.20,305.25 527.47,294.64 530.75,299.11 534.02,316.43 537.30,312.51 540.57,295.19 543.85,285.14 547.12,295.19 550.39,301.90 553.67,313.07 556.94,329.28 560.22,327.60 563.49,307.49 566.76,300.22 570.04,315.87 573.31,330.39 576.59,311.40 579.86,309.72 583.14,300.78 586.41,306.37 589.68,295.19 592.96,289.61 596.23,288.49 599.51,294.08 602.78,303.58 606.05,329.83 609.33,313.07 612.60,308.60 615.88,343.80 619.15,336.54 622.42,302.46 625.70,308.04 628.97,322.01 632.25,329.28 635.52,322.01 638.80,309.72 642.07,318.66 645.34,301.34 648.62,322.01 651.89,330.95 655.17,326.48 658.44,335.98 661.71,338.77 664.99,371.18 668.26,400.79 671.54,373.41 674.81,376.21 678.08,376.21 681.36,358.89 684.63,354.98 687.91,340.45 691.18,333.19 694.46,320.89 697.73,319.78 701.00,290.17 704.28,285.70 707.55,273.40 710.83,233.18 714.10,224.24 717.37,233.74 720.65,207.48 723.92,213.62 727.20,231.50 730.47,230.94 733.75,216.42 737.02,203.57 740.29,214.74 743.57,168.37 746.84,142.67 750.12,132.05 753.39,77.86 756.66,85.12 759.94,144.34 763.21,138.76 766.49,163.90 769.76,165.57 773.03,183.45 776.31,164.46 779.58,130.38 782.86,131.49 786.13,130.93 789.41,159.99 792.68,175.63 795.95,197.98 799.23,185.13 802.50,135.96 805.78,167.25 809.05,165.02 812.32,193.51 815.60,199.66 818.87,212.51 822.15,203.57 825.42,227.03 828.69,224.80 831.97,219.77 835.24,203.57 838.52,196.30 841.79,195.74 845.07,189.04 848.34,195.19 851.61,189.60 854.89,194.63 858.16,205.80 861.44,246.03 864.71,233.18 867.98,211.39 871.26,181.22 874.53,131.49 877.81,158.87 881.08,207.48 884.36,227.59 887.63,224.24 890.90,208.04 894.18,208.04 897.45,216.42 900.73,262.23 904.00,261.11" />
<text x="780.00" y="60.00" font-size="14" font-family="Arial" fill="#7f7f7f" text-anchor="start">BuyHold</text>
<polyline fill="none" stroke="#1f77b4" stroke-width="2" points="56.00,368.53 59.27,368.53 62.55,368.53 65.82,368.53 69.10,368.53 72.37,368.53 75.64,368.53 78.92,368.53 82.19,368.53 85.47,368.53 88.74,368.53 92.02,368.53 95.29,368.53 98.56,368.53 101.84,368.53 105.11,368.53 108.39,368.53 111.66,368.53 114.93,368.53 118.21,368.53 121.48,368.53 124.76,368.53 128.03,368.53 131.31,368.53 134.58,368.53 137.85,368.53 141.13,368.53 144.40,368.53 147.68,368.53 150.95,368.53 154.22,368.53 157.50,368.53 160.77,368.53 164.05,368.53 167.32,368.53 170.59,368.53 173.87,368.53 177.14,368.53 180.42,368.53 183.69,368.53 186.97,368.53 190.24,368.53 193.51,368.53 196.79,368.53 200.06,368.53 203.34,368.53 206.61,368.53 209.88,368.53 213.16,368.53 216.43,368.53 219.71,368.53 222.98,368.53 226.25,368.53 229.53,368.53 232.80,368.53 236.08,368.53 239.35,368.53 242.63,368.53 245.90,368.53 249.17,368.53 252.45,368.53 255.72,368.53 259.00,368.53 262.27,368.53 265.54,368.53 268.82,368.53 272.09,368.53 275.37,368.53 278.64,368.53 281.92,368.53 285.19,368.53 288.46,368.53 291.74,368.53 295.01,368.53 298.29,368.53 301.56,368.53 304.83,368.53 308.11,368.53 311.38,368.53 314.66,368.53 317.93,368.53 321.20,368.53 324.48,368.53 327.75,368.53 331.03,368.53 334.30,368.53 337.58,368.53 340.85,368.53 344.12,368.53 347.40,368.53 350.67,368.53 353.95,368.53 357.22,368.53 360.49,368.53 363.77,368.53 367.04,368.53 370.32,368.53 373.59,368.53 376.86,368.53 380.14,368.53 383.41,368.53 386.69,368.53 389.96,368.53 393.24,368.53 396.51,368.53 399.78,368.53 403.06,368.53 406.33,368.53 409.61,368.53 412.88,368.53 416.15,368.53 419.43,368.53 422.70,368.53 425.98,368.53 429.25,368.53 432.53,368.53 435.80,368.53 439.07,368.53 442.35,368.53 445.62,368.53 448.90,368.53 452.17,368.53 455.44,368.53 458.72,368.53 461.99,368.53 465.27,368.53 468.54,368.53 471.81,368.53 475.09,368.53 478.36,368.53 481.64,368.53 484.91,368.53 488.19,368.53 491.46,368.53 494.73,368.53 498.01,368.53 501.28,368.53 504.56,368.53 507.83,368.53 511.10,368.53 514.38,368.53 517.65,368.53 520.93,368.53 524.20,368.53 527.47,368.53 530.75,368.53 534.02,368.53 537.30,368.53 540.57,368.53 543.85,368.53 547.12,368.53 550.39,368.53 553.67,368.53 556.94,368.53 560.22,368.53 563.49,368.53 566.76,368.53 570.04,368.53 573.31,368.53 576.59,368.53 579.86,368.53 583.14,368.53 586.41,368.53 589.68,368.53 592.96,368.53 596.23,368.53 599.51,368.53 602.78,368.53 606.05,368.53 609.33,368.53 612.60,368.53 615.88,368.53 619.15,368.53 622.42,368.53 625.70,368.53 628.97,368.53 632.25,368.53 635.52,368.53 638.80,368.53 642.07,368.53 645.34,368.53 648.62,368.53 651.89,368.53 655.17,368.53 658.44,368.53 661.71,368.53 664.99,368.53 668.26,368.53 671.54,368.53 674.81,368.53 678.08,368.53 681.36,368.53 684.63,368.53 687.91,368.53 691.18,368.53 694.46,368.53 697.73,368.53 701.00,368.53 704.28,368.53 707.55,368.53 710.83,337.75 714.10,330.91 717.37,338.17 720.65,318.08 723.92,322.78 727.20,336.46 730.47,336.04 733.75,324.92 737.02,315.09 740.29,323.64 743.57,288.16 746.84,268.49 750.12,260.37 753.39,218.90 756.66,224.46 759.94,269.77 763.21,265.50 766.49,284.74 769.76,286.02 773.03,299.70 776.31,285.16 779.58,259.09 782.86,259.94 786.13,259.51 789.41,281.74 792.68,293.71 795.95,310.81 799.23,300.98 802.50,263.36 805.78,287.30 809.05,285.59 812.32,307.39 815.60,312.10 818.87,321.93 822.15,315.09 825.42,333.04 828.69,331.33 831.97,327.49 835.24,315.09 838.52,309.53 841.79,309.10 845.07,303.97 848.34,308.68 851.61,304.40 854.89,308.25 858.16,316.80 861.44,347.58 864.71,337.75 867.98,321.07 871.26,297.99 874.53,259.94 877.81,280.89 881.08,318.08 884.36,333.47 887.63,330.91 890.90,318.51 894.18,318.51 897.45,324.92 900.73,359.98 904.00,359.12" />
<text x="780.00" y="82.00" font-size="14" font-family="Arial" fill="#1f77b4" text-anchor="start">MA200</text>
<polyline fill="none" stroke="#2ca02c" stroke-width="2" points="56.00,368.53 59.27,368.53 62.55,368.53 65.82,368.53 69.10,368.53 72.37,368.53 75.64,368.53 78.92,368.53 82.19,368.53 85.47,368.53 88.74,368.53 92.02,368.53 95.29,368.53 98.56,368.53 101.84,368.53 105.11,368.53 108.39,368.53 111.66,368.53 114.93,368.53 118.21,368.53 121.48,368.53 124.76,368.53 128.03,368.53 131.31,368.53 134.58,368.53 137.85,368.53 141.13,368.53 144.40,368.53 147.68,368.53 150.95,368.53 154.22,368.53 157.50,368.53 160.77,368.53 164.05,368.53 167.32,368.53 170.59,368.53 173.87,368.53 177.14,368.53 180.42,368.53 183.69,368.53 186.97,368.53 190.24,368.53 193.51,368.53 196.79,368.53 200.06,368.53 203.34,368.53 206.61,368.53 209.88,368.53 213.16,368.53 216.43,368.53 219.71,368.53 222.98,368.53 226.25,368.53 229.53,368.53 232.80,368.53 236.08,368.53 239.35,368.53 242.63,368.53 245.90,368.53 249.17,368.53 252.45,373.84 255.72,377.52 259.00,370.98 262.27,374.25 265.54,371.80 268.82,370.98 272.09,375.89 275.37,399.60 278.64,402.87 281.92,410.64 285.19,395.11 288.46,395.11 291.74,395.11 295.01,395.11 298.29,395.11 301.56,395.11 304.83,395.11 308.11,395.11 311.38,395.11 314.66,395.11 317.93,395.11 321.20,395.11 324.48,395.11 327.75,395.11 331.03,395.11 334.30,395.11 337.58,395.11 340.85,395.11 344.12,395.11 347.40,395.11 350.67,395.11 353.95,395.11 357.22,395.11 360.49,395.11 363.77,395.11 367.04,395.11 370.32,395.11 373.59,395.11 376.86,395.11 380.14,395.11 383.41,395.11 386.69,395.11 389.96,395.11 393.24,395.11 396.51,395.11 399.78,395.11 403.06,395.11 406.33,395.11 409.61,395.11 412.88,395.11 416.15,395.11 419.43,395.11 422.70,395.11 425.98,395.11 429.25,395.11 432.53,395.11 435.80,395.11 439.07,395.11 442.35,395.11 445.62,395.11 448.90,395.11 452.17,395.11 455.44,395.11 458.72,395.11 461.99,395.11 465.27,395.11 468.54,395.11 471.81,395.11 475.09,395.11 478.36,395.11 481.64,395.11 484.91,395.11 488.19,395.11 491.46,395.11 494.73,395.11 498.01,395.11 501.28,399.28 504.56,405.35 507.83,407.62 511.10,403.07 514.38,399.66 517.65,415.97 520.93,426.59 524.20,425.07 527.47,417.87 530.75,420.90 534.02,432.66 537.30,430.00 540.57,418.24 543.85,411.42 547.12,418.24 550.39,422.80 553.67,430.38 556.94,441.38 560.22,440.25 563.49,426.59 566.76,421.66 570.04,432.28 573.31,442.14 576.59,429.25 579.86,428.11 583.14,422.04 586.41,425.83 589.68,418.24 592.96,414.45 596.23,413.69 599.51,413.69 602.78,420.24 606.05,420.24 609.33,420.24 612.60,420.24 615.88,420.24 619.15,420.24 622.42,420.24 625.70,420.24 628.97,420.24 632.25,420.24 635.52,420.24 638.80,420.24 642.07,420.24 645.34,420.24 648.62,420.24 651.89,420.24 655.17,420.24 658.44,420.24 661.71,420.24 664.99,420.24 668.26,420.24 671.54,420.24 674.81,420.24 678.08,420.24 681.36,420.24 684.63,420.24 687.91,420.24 691.18,420.24 694.46,420.24 697.73,420.24 701.00,420.24 704.28,420.24 707.55,420.24 710.83,420.24 714.10,420.24 717.37,420.24 720.65,420.24 723.92,420.24 727.20,430.17 730.47,429.86 733.75,421.79 737.02,414.65 740.29,420.86 743.57,395.09 746.84,380.82 750.12,374.92 753.39,344.81 756.66,348.85 759.94,381.75 763.21,378.64 766.49,392.61 769.76,393.54 773.03,403.47 776.31,392.92 779.58,373.99 782.86,374.61 786.13,374.30 789.41,390.44 792.68,399.13 795.95,411.54 799.23,404.41 802.50,377.09 805.78,394.47 809.05,393.23 812.32,409.06 815.60,412.48 818.87,419.61 822.15,414.65 825.42,427.68 828.69,426.44 831.97,423.65 835.24,414.65 838.52,410.61 841.79,410.30 845.07,406.58 848.34,409.99 851.61,406.89 854.89,409.68 858.16,415.89 861.44,438.24 864.71,431.10 867.98,418.99 871.26,402.23 874.53,374.61 877.81,389.82 881.08,416.82 884.36,416.82 887.63,416.82 890.90,416.82 894.18,416.82 897.45,416.82 900.73,416.82 904.00,416.82" />
<text x="780.00" y="104.00" font-size="14" font-family="Arial" fill="#2ca02c" text-anchor="start">MA20x60</text>
</svg>