<svg xmlns="http://www.w3.org/2000/svg" width="960" height="520" viewBox="0 0 960 520"><rect width="100%" height="100%" fill="white" />
<text x="56.00" y="32.00" font-size="20" font-family="Arial" fill="#1f2933" text-anchor="start">中信金(2891) Backtest Equity Curves</text>
<line x1="56" y1="464" x2="904" y2="464" stroke="#cbd2d9" />
<line x1="56" y1="56" x2="56" y2="464" stroke="#cbd2d9" />
<text x="16.00" y="38.00" font-size="12" font-family="Arial" fill="#52606d" text-anchor="start">Equity Multiple</text>
<line x1="56" y1="464.00" x2="904" y2="464.00" stroke="#edf2f7" />
<line x1="52" y1="464.00" x2="56" y2="464.00" stroke="#9fb3c8" />
<text x="48.00" y="468.00" font-size="11" font-family="Arial" fill="#52606d" text-anchor="end">0.87</text>
<line x1="56" y1="362.00" x2="904" y2="362.00" stroke="#edf2f7" />
<line x1="52" y1="362.00" x2="56" y2="362.00" stroke="#9fb3c8" />
<text x="48.00" y="366.00" font-size="11" font-family="Arial" fill="#52606d" text-anchor="end">1.12</text>
<line x1="56" y1="260.00" x2="904" y2="260.00" stroke="#edf2f7" />
<line x1="52" y1="260.00" x2="56" y2="260.00" stroke="#9fb3c8" />
<text x="48.00" y="264.00" font-size="11" font-family="Arial" fill="#52606d" text-anchor="end">1.36</text>
<line x1="56" y1="158.00" x2="904" y2="158.00" stroke="#edf2f7" />
<line x1="52" y1="158.00" x2="56" y2="158.00" stroke="#9fb3c8" />
<text x="48.00" y="162.00" font-size="11" font-family="Arial" fill="#52606d" text-anchor="end">1.61</text>
<line x1="56" y1="56.00" x2="904" y2="56.00" stroke="#edf2f7" />
<line x1="52" y1="56.00" x2="56" y2="56.00" stroke="#9fb3c8" />
<text x="48.00" y="60.00" font-size="11" font-family="Arial" fill="#52606d" text-anchor="end">1.85</text>
<line x1="56.00" y1="464" x2="56.00" y2="468" stroke="#9fb3c8" />
<text x="56.00" y="482.00" font-size="11" font-family="Arial" fill="#52606d" text-anchor="middle">06/10</text>
<line x1="226.25" y1="464" x2="226.25" y2="468" stroke="#9fb3c8" />
<text x="226.25" y="482.00" font-size="11" font-family="Arial" fill="#52606d" text-anchor="middle">08/22</text>
<line x1="396.51" y1="464" x2="396.51" y2="468" stroke="#9fb3c8" />
<text x="396.51" y="482.00" font-size="11" font-family="Arial" fill="#52606d" text-anchor="middle">11/10</text>
<line x1="563.49" y1="464" x2="563.49" y2="468" stroke="#9fb3c8" />
<text x="563.49" y="482.00" font-size="11" font-family="Arial" fill="#52606d" text-anchor="middle">01/22</text>
<line x1="733.75" y1="464" x2="733.75" y2="468" stroke="#9fb3c8" />
<text x="733.75" y="482.00" font-size="11" font-family="Arial" fill="#52606d" text-anchor="middle">04/20</text>
<line x1="904.00" y1="464" x2="904.00" y2="468" stroke="#9fb3c8" />
<text x="904.00" y="482.00" font-size="11" font-family="Arial" fill="#52606d" text-anchor="middle">07/03</text>
<polyline fill="none" stroke="#7f7f7f" stroke-width="2" points="56.00,411.09 59.27,414.53 62.55,411.09 65.82,409.13 69.10,409.13 72.37,410.11 75.64,405.20 78.92,406.18 82.19,406.67 85.47,406.67 88.74,398.81 92.02,397.34 95.29,393.41 98.56,391.44 101.84,399.30 105.11,396.35 108.39,397.34 111.66,392.42 114.93,391.44 118.21,387.02 121.48,392.42 124.76,397.34 128.03,395.37 131.31,397.83 134.58,394.19 137.85,383.82 141.13,382.78 144.40,384.86 147.68,385.90 150.95,387.97 154.22,386.41 157.50,382.78 160.77,383.30 164.05,387.97 167.32,392.12 170.59,396.27 173.87,394.19 177.14,400.93 180.42,386.41 183.69,386.93 186.97,383.82 190.24,383.30 193.51,382.78 196.79,381.75 200.06,384.86 203.34,382.78 206.61,380.71 209.88,384.34 213.16,384.34 216.43,383.30 219.71,385.90 222.98,380.71 226.25,385.90 229.53,383.82 232.80,393.16 236.08,395.75 239.35,395.23 242.63,401.97 245.90,399.38 249.17,393.16 252.45,394.19 255.72,394.19 259.00,394.71 262.27,395.75 265.54,393.16 268.82,392.64 272.09,390.56 275.37,384.86 278.64,381.23 281.92,378.12 285.19,381.75 288.46,381.23 291.74,376.04 295.01,380.71 298.29,380.19 301.56,381.23 304.83,387.97 308.11,386.93 311.38,383.82 314.66,382.27 317.93,383.30 321.20,389.53 324.48,390.56 327.75,387.97 331.03,386.93 334.30,391.60 337.58,389.53 340.85,386.93 344.12,386.93 347.40,387.97 350.67,389.01 353.95,390.04 357.22,392.64 360.49,393.16 363.77,386.41 367.04,394.19 370.32,393.16 373.59,393.67 376.86,394.71 380.14,392.64 383.41,389.01 386.69,390.56 389.96,387.45 393.24,394.19 396.51,389.01 399.78,379.15 403.06,382.27 406.33,383.82 409.61,385.90 412.88,391.08 416.15,386.93 419.43,383.82 422.70,379.67 425.98,378.64 429.25,371.38 432.53,379.67 435.80,378.64 439.07,372.41 442.35,378.12 445.62,378.64 448.90,371.38 452.17,375.52 455.44,368.78 458.72,366.71 461.99,366.71 465.27,362.56 468.54,364.12 471.81,361.52 475.09,346.48 478.36,343.89 481.64,344.93 484.91,321.07 488.19,316.92 491.46,315.37 494.73,306.03 498.01,306.03 501.28,307.07 504.56,312.26 507.83,306.03 511.10,308.11 514.38,308.11 517.65,301.89 520.93,311.22 524.20,311.74 527.47,316.92 530.75,316.92 534.02,313.29 537.30,310.18 540.57,313.81 543.85,317.44 547.12,306.03 550.39,305.00 553.67,297.74 556.94,299.81 560.22,303.96 563.49,301.89 566.76,305.00 570.04,299.81 573.31,301.89 576.59,297.74 579.86,289.44 583.14,300.85 586.41,300.85 589.68,298.77 592.96,297.74 596.23,292.55 599.51,293.59 602.78,289.44 606.05,292.55 609.33,287.36 612.60,269.73 615.88,270.77 619.15,273.88 622.42,248.99 625.70,270.77 628.97,273.88 632.25,305.00 635.52,294.63 638.80,295.66 642.07,299.81 645.34,297.74 648.62,297.74 651.89,296.70 655.17,296.70 658.44,290.48 661.71,280.10 664.99,275.96 668.26,293.59 671.54,288.40 674.81,294.63 678.08,289.44 681.36,281.14 684.63,279.07 687.91,279.07 691.18,290.48 694.46,296.70 697.73,271.81 701.00,263.51 704.28,250.03 707.55,242.77 710.83,260.40 714.10,268.70 717.37,275.96 720.65,278.03 723.92,281.14 727.20,274.92 730.47,278.03 733.75,278.03 737.02,279.07 740.29,273.88 743.57,282.18 746.84,280.10 750.12,282.18 753.39,275.96 756.66,278.03 759.94,286.33 763.21,280.10 766.49,273.88 769.76,261.44 773.03,245.88 776.31,243.80 779.58,255.21 782.86,273.88 786.13,259.36 789.41,260.40 792.68,260.40 795.95,260.40 799.23,254.18 802.50,229.28 805.78,232.40 809.05,231.36 812.32,234.47 815.60,231.36 818.87,214.76 822.15,213.73 825.42,201.28 828.69,184.69 831.97,163.94 835.24,97.56 838.52,123.49 841.79,138.01 845.07,150.46 848.34,111.05 851.61,121.42 854.89,128.68 858.16,127.64 861.44,101.71 864.71,94.45 867.98,92.38 871.26,83.04 874.53,97.56 877.81,77.86 881.08,103.79 884.36,96.53 887.63,99.64 890.90,99.64 894.18,92.38 897.45,96.53 900.73,103.79 904.00,96.53" />
<text x="780.00" y="60.00" font-size="14" font-family="Arial" fill="#7f7f7f" text-anchor="start">BuyHold</text>
<polyline fill="none" stroke="#1f77b4" stroke-width="2" points="56.00,411.09 59.27,411.09 62.55,411.09 65.82,411.09 69.10,411.09 72.37,411.09 75.64,411.09 78.92,411.09 82.19,411.09 85.47,411.09 88.74,411.09 92.02,411.09 95.29,411.09 98.56,411.09 101.84,411.09 105.11,411.09 108.39,411.09 111.66,411.09 114.93,411.09 118.21,411.09 121.48,411.09 124.76,411.09 128.03,411.09 131.31,411.09 134.58,411.09 137.85,411.09 141.13,411.09 144.40,411.09 147.68,411.09 150.95,411.09 154.22,411.09 157.50,411.09 160.77,411.09 164.05,411.09 167.32,411.09 170.59,411.09 173.87,411.09 177.14,411.09 180.42,411.09 183.69,411.09 186.97,411.09 190.24,411.09 193.51,411.09 196.79,411.09 200.06,411.09 203.34,411.09 206.61,411.09 209.88,411.09 213.16,411.09 216.43,411.09 219.71,411.09 222.98,411.09 226.25,411.09 229.53,411.09 232.80,411.09 236.08,411.09 239.35,411.09 242.63,411.09 245.90,411.09 249.17,411.09 252.45,411.09 255.72,411.09 259.00,411.09 262.27,411.09 265.54,411.09 268.82,411.09 272.09,411.09 275.37,411.09 278.64,411.09 281.92,411.09 285.19,411.09 288.46,411.09 291.74,411.09 295.01,411.09 298.29,411.09 301.56,411.09 304.83,411.09 308.11,411.09 311.38,411.09 314.66,411.09 317.93,411.09 321.20,411.09 324.48,411.09 327.75,411.09 331.03,411.09 334.30,411.09 337.58,411.09 340.85,411.09 344.12,411.09 347.40,411.09 350.67,411.09 353.95,411.09 357.22,411.09 360.49,411.09 363.77,411.09 367.04,411.09 370.32,411.09 373.59,411.09 376.86,411.09 380.14,411.09 383.41,411.09 386.69,411.09 389.96,411.09 393.24,411.09 396.51,411.09 399.78,411.09 403.06,411.09 406.33,411.09 409.61,411.09 412.88,411.09 416.15,411.09 419.43,411.09 422.70,411.09 425.98,411.09 429.25,411.09 432.53,411.09 435.80,411.09 439.07,411.09 442.35,411.09 445.62,411.09 448.90,411.09 452.17,411.09 455.44,411.09 458.72,411.09 461.99,411.09 465.27,411.09 468.54,411.09 471.81,411.09 475.09,411.09 478.36,411.09 481.64,411.09 484.91,411.09 488.19,411.09 491.46,411.09 494.73,411.09 498.01,411.09 501.28,411.09 504.56,411.09 507.83,411.09 511.10,411.09 514.38,411.09 517.65,411.09 520.93,411.09 524.20,411.09 527.47,411.09 530.75,411.09 534.02,411.09 537.30,411.09 540.57,411.09 543.85,411.09 547.12,411.09 550.39,411.09 553.67,411.09 556.94,411.09 560.22,411.09 563.49,411.09 566.76,411.09 570.04,411.09 573.31,411.09 576.59,411.09 579.86,411.09 583.14,411.09 586.41,411.09 589.68,411.09 592.96,411.09 596.23,411.09 599.51,411.09 602.78,411.09 606.05,411.09 609.33,411.09 612.60,411.09 615.88,411.09 619.15,411.09 622.42,411.09 625.70,411.09 628.97,411.09 632.25,411.09 635.52,411.09 638.80,411.09 642.07,411.09 645.34,411.09 648.62,411.09 651.89,411.09 655.17,411.09 658.44,411.09 661.71,411.09 664.99,411.09 668.26,411.09 671.54,411.09 674.81,411.09 678.08,411.09 681.36,411.09 684.63,411.09 687.91,411.09 691.18,411.09 694.46,411.09 697.73,411.09 701.00,411.09 704.28,411.09 707.55,411.09 710.83,423.66 714.10,429.58 717.37,434.75 720.65,436.23 723.92,438.45 727.20,434.01 730.47,436.23 733.75,436.23 737.02,436.97 740.29,433.27 743.57,439.19 746.84,437.71 750.12,439.19 753.39,434.75 756.66,436.23 759.94,442.14 763.21,437.71 766.49,433.27 769.76,424.40 773.03,413.31 776.31,411.83 779.58,419.97 782.86,433.27 786.13,422.92 789.41,423.66 792.68,423.66 795.95,423.66 799.23,419.23 802.50,401.48 805.78,403.70 809.05,402.96 812.32,405.18 815.60,402.96 818.87,391.14 822.15,390.40 825.42,381.53 828.69,369.70 831.97,354.91 835.24,307.60 838.52,326.08 841.79,336.43 845.07,345.30 848.34,317.21 851.61,324.60 854.89,329.78 858.16,329.04 861.44,310.56 864.71,305.38 867.98,303.90 871.26,297.25 874.53,307.60 877.81,293.56 881.08,312.04 884.36,306.86 887.63,309.08 890.90,309.08 894.18,303.90 897.45,306.86 900.73,312.04 904.00,306.86" />
<text x="780.00" y="82.00" font-size="14" font-family="Arial" fill="#1f77b4" text-anchor="start">MA200</text>
<polyline fill="none" stroke="#2ca02c" stroke-width="2" points="56.00,411.09 59.27,411.09 62.55,411.09 65.82,411.09 69.10,411.09 72.37,411.09 75.64,411.09 78.92,411.09 82.19,411.09 85.47,411.09 88.74,411.09 92.02,411.09 95.29,411.09 98.56,411.09 101.84,411.09 105.11,411.09 108.39,411.09 111.66,411.09 114.93,411.09 118.21,411.09 121.48,411.09 124.76,411.09 128.03,411.09 131.31,411.09 134.58,411.09 137.85,411.09 141.13,411.09 144.40,411.09 147.68,411.09 150.95,411.09 154.22,411.09 157.50,411.09 160.77,411.09 164.05,411.09 167.32,411.09 170.59,411.09 173.87,411.09 177.14,411.09 180.42,411.09 183.69,411.09 186.97,411.09 190.24,411.09 193.51,411.09 196.79,411.09 200.06,411.09 203.34,411.09 206.61,411.09 209.88,411.09 213.16,411.09 216.43,411.09 219.71,411.09 222.98,411.09 226.25,411.09 229.53,411.09 232.80,411.09 236.08,411.09 239.35,411.09 242.63,411.09 245.90,411.09 249.17,411.09 252.45,412.09 255.72,412.09 259.00,412.59 262.27,413.58 265.54,411.09 268.82,410.60 272.09,408.61 275.37,408.61 278.64,408.61 281.92,408.61 285.19,408.61 288.46,408.61 291.74,408.61 295.01,408.61 298.29,408.61 301.56,408.61 304.83,408.61 308.11,408.61 311.38,405.65 314.66,404.17 317.93,405.16 321.20,411.07 324.48,412.06 327.75,409.59 331.03,408.61 334.30,413.05 337.58,411.07 340.85,408.61 344.12,408.61 347.40,409.59 350.67,410.58 353.95,411.57 357.22,414.03 360.49,414.53 363.77,408.12 367.04,415.51 370.32,415.51 373.59,415.51 376.86,415.51 380.14,415.51 383.41,415.51 386.69,415.51 389.96,415.51 393.24,415.51 396.51,415.51 399.78,415.51 403.06,415.51 406.33,415.51 409.61,415.51 412.88,415.51 416.15,415.51 419.43,415.51 422.70,415.51 425.98,415.51 429.25,408.85 432.53,416.46 435.80,415.51 439.07,409.80 442.35,415.04 445.62,415.51 448.90,408.85 452.17,412.66 455.44,406.47 458.72,404.56 461.99,404.56 465.27,400.75 468.54,402.18 471.81,399.80 475.09,385.99 478.36,383.61 481.64,384.57 484.91,362.67 488.19,358.86 491.46,357.43 494.73,348.86 498.01,348.86 501.28,349.81 504.56,354.57 507.83,348.86 511.10,350.76 514.38,350.76 517.65,345.05 520.93,353.62 524.20,354.10 527.47,358.86 530.75,358.86 534.02,355.52 537.30,352.67 540.57,356.00 543.85,359.33 547.12,348.86 550.39,347.91 553.67,341.24 556.94,343.15 560.22,346.95 563.49,345.05 566.76,347.91 570.04,343.15 573.31,345.05 576.59,341.24 579.86,333.62 583.14,344.10 586.41,344.10 589.68,342.19 592.96,341.24 596.23,336.48 599.51,337.43 602.78,333.62 606.05,336.48 609.33,331.72 612.60,315.53 615.88,316.48 619.15,319.34 622.42,296.49 625.70,316.48 628.97,319.34 632.25,347.91 635.52,338.38 638.80,339.34 642.07,343.15 645.34,341.24 648.62,341.24 651.89,340.29 655.17,340.29 658.44,334.58 661.71,325.05 664.99,321.25 668.26,337.43 671.54,332.67 674.81,338.38 678.08,333.62 681.36,326.01 684.63,324.10 687.91,324.10 691.18,334.58 694.46,340.29 697.73,317.44 701.00,309.82 704.28,297.44 707.55,290.77 710.83,306.96 714.10,314.58 717.37,321.25 720.65,323.15 723.92,326.01 727.20,320.29 730.47,323.15 733.75,323.15 737.02,324.10 740.29,319.34 743.57,326.96 746.84,325.05 750.12,326.96 753.39,321.25 756.66,323.15 759.94,330.77 763.21,325.05 766.49,319.34 769.76,307.91 773.03,293.63 776.31,291.73 779.58,302.20 782.86,319.34 786.13,306.01 789.41,306.96 792.68,306.96 795.95,306.96 799.23,301.25 802.50,278.40 805.78,281.25 809.05,280.30 812.32,283.16 815.60,280.30 818.87,265.07 822.15,264.11 825.42,252.69 828.69,237.45 831.97,218.41 835.24,157.47 838.52,181.27 841.79,194.60 845.07,206.03 848.34,169.85 851.61,179.37 854.89,186.03 858.16,185.08 861.44,161.28 864.71,154.61 867.98,152.71 871.26,144.14 874.53,157.47 877.81,139.38 881.08,163.18 884.36,156.51 887.63,159.37 890.90,159.37 894.18,152.71 897.45,156.51 900.73,163.18 904.00,156.51" />
<text x="780.00" y="104.00" font-size="14" font-family="Arial" fill="#2ca02c" text-anchor="start">MA20x60</text>
</svg>