<svg xmlns="http://www.w3.org/2000/svg" width="960" height="520" viewBox="0 0 960 520"><rect width="100%" height="100%" fill="white" />
<text x="56.00" y="32.00" font-size="20" font-family="Arial" fill="#1f2933" text-anchor="start">南電(8046) Backtest Equity Curves</text>
<line x1="56" y1="464" x2="904" y2="464" stroke="#cbd2d9" />
<line x1="56" y1="56" x2="56" y2="464" stroke="#cbd2d9" />
<text x="16.00" y="38.00" font-size="12" font-family="Arial" fill="#52606d" text-anchor="start">Equity Multiple</text>
<line x1="56" y1="464.00" x2="904" y2="464.00" stroke="#edf2f7" />
<line x1="52" y1="464.00" x2="56" y2="464.00" stroke="#9fb3c8" />
<text x="48.00" y="468.00" font-size="11" font-family="Arial" fill="#52606d" text-anchor="end">0.36</text>
<line x1="56" y1="362.00" x2="904" y2="362.00" stroke="#edf2f7" />
<line x1="52" y1="362.00" x2="56" y2="362.00" stroke="#9fb3c8" />
<text x="48.00" y="366.00" font-size="11" font-family="Arial" fill="#52606d" text-anchor="end">3.14</text>
<line x1="56" y1="260.00" x2="904" y2="260.00" stroke="#edf2f7" />
<line x1="52" y1="260.00" x2="56" y2="260.00" stroke="#9fb3c8" />
<text x="48.00" y="264.00" font-size="11" font-family="Arial" fill="#52606d" text-anchor="end">5.92</text>
<line x1="56" y1="158.00" x2="904" y2="158.00" stroke="#edf2f7" />
<line x1="52" y1="158.00" x2="56" y2="158.00" stroke="#9fb3c8" />
<text x="48.00" y="162.00" font-size="11" font-family="Arial" fill="#52606d" text-anchor="end">8.70</text>
<line x1="56" y1="56.00" x2="904" y2="56.00" stroke="#edf2f7" />
<line x1="52" y1="56.00" x2="56" y2="56.00" stroke="#9fb3c8" />
<text x="48.00" y="60.00" font-size="11" font-family="Arial" fill="#52606d" text-anchor="end">11.5</text>
<line x1="56.00" y1="464" x2="56.00" y2="468" stroke="#9fb3c8" />
<text x="56.00" y="482.00" font-size="11" font-family="Arial" fill="#52606d" text-anchor="middle">06/12</text>
<line x1="226.25" y1="464" x2="226.25" y2="468" stroke="#9fb3c8" />
<text x="226.25" y="482.00" font-size="11" font-family="Arial" fill="#52606d" text-anchor="middle">08/26</text>
<line x1="396.51" y1="464" x2="396.51" y2="468" stroke="#9fb3c8" />
<text x="396.51" y="482.00" font-size="11" font-family="Arial" fill="#52606d" text-anchor="middle">11/12</text>
<line x1="563.49" y1="464" x2="563.49" y2="468" stroke="#9fb3c8" />
<text x="563.49" y="482.00" font-size="11" font-family="Arial" fill="#52606d" text-anchor="middle">01/26</text>
<line x1="733.75" y1="464" x2="733.75" y2="468" stroke="#9fb3c8" />
<text x="733.75" y="482.00" font-size="11" font-family="Arial" fill="#52606d" text-anchor="middle">04/22</text>
<line x1="904.00" y1="464" x2="904.00" y2="468" stroke="#9fb3c8" />
<text x="904.00" y="482.00" font-size="11" font-family="Arial" fill="#52606d" text-anchor="middle">07/07</text>
<polyline fill="none" stroke="#7f7f7f" stroke-width="2" points="56.00,440.48 59.27,441.64 62.55,440.48 65.82,441.14 69.10,440.81 72.37,441.64 75.64,442.14 78.92,441.31 82.19,439.81 85.47,439.64 88.74,439.48 92.02,439.64 95.29,439.81 98.56,439.98 101.84,439.14 105.11,435.44 108.39,434.77 111.66,435.11 114.93,434.60 118.21,430.40 121.48,430.06 124.76,428.55 128.03,428.89 131.31,424.18 134.58,418.97 137.85,419.98 141.13,419.64 144.40,420.65 147.68,422.33 150.95,419.47 154.22,418.30 157.50,416.45 160.77,415.10 164.05,417.62 167.32,416.62 170.59,417.46 173.87,417.79 177.14,417.46 180.42,418.63 183.69,419.14 186.97,420.48 190.24,416.28 193.51,417.62 196.79,419.14 200.06,419.64 203.34,420.15 206.61,415.61 209.88,416.62 213.16,420.99 216.43,420.31 219.71,419.14 222.98,414.60 226.25,414.26 229.53,408.04 232.80,401.15 236.08,403.17 239.35,409.55 242.63,410.90 245.90,413.08 249.17,414.77 252.45,414.09 255.72,414.60 259.00,415.27 262.27,414.93 265.54,416.78 268.82,415.27 272.09,416.95 275.37,411.07 278.64,412.08 281.92,409.89 285.19,403.17 288.46,397.95 291.74,398.29 295.01,403.00 298.29,400.14 301.56,403.50 304.83,401.15 308.11,400.48 311.38,399.47 314.66,391.73 317.93,392.07 321.20,389.55 324.48,388.03 327.75,387.19 331.03,391.06 334.30,382.49 337.58,382.49 340.85,382.82 344.12,383.83 347.40,385.18 350.67,384.50 353.95,385.51 357.22,383.50 360.49,384.34 363.77,379.46 367.04,382.32 370.32,379.46 373.59,381.31 376.86,382.99 380.14,385.68 383.41,385.34 386.69,385.34 389.96,379.46 393.24,379.96 396.51,381.48 399.78,378.96 403.06,382.15 406.33,385.51 409.61,387.87 412.88,392.74 416.15,386.69 419.43,393.08 422.70,394.09 425.98,393.08 429.25,390.72 432.53,389.55 435.80,388.88 439.07,387.53 442.35,389.04 445.62,386.69 448.90,390.22 452.17,386.35 455.44,386.35 458.72,381.65 461.99,382.99 465.27,383.66 468.54,385.85 471.81,387.70 475.09,393.41 478.36,395.26 481.64,398.29 484.91,396.61 488.19,395.10 491.46,396.78 494.73,396.78 498.01,394.26 501.28,396.27 504.56,396.27 507.83,396.10 511.10,397.45 514.38,395.94 517.65,394.93 520.93,395.94 524.20,397.45 527.47,396.27 530.75,391.57 534.02,387.03 537.30,389.21 540.57,388.54 543.85,379.80 547.12,370.21 550.39,362.31 553.67,355.76 556.94,352.56 560.22,348.69 563.49,352.73 566.76,344.32 570.04,343.99 573.31,351.38 576.59,346.51 579.86,353.40 583.14,344.49 586.41,339.28 589.68,343.48 592.96,349.70 596.23,337.09 599.51,339.45 602.78,337.26 606.05,323.31 609.33,308.01 612.60,291.20 615.88,290.52 619.15,295.23 622.42,309.02 625.70,325.83 628.97,322.13 632.25,319.27 635.52,334.91 638.80,333.23 642.07,318.94 645.34,319.61 648.62,303.97 651.89,286.83 655.17,294.22 658.44,286.49 661.71,288.51 664.99,295.23 668.26,297.59 671.54,312.04 674.81,295.57 678.08,285.82 681.36,288.51 684.63,282.12 687.91,301.62 691.18,284.14 694.46,286.15 697.73,267.32 701.00,262.95 704.28,252.19 707.55,252.87 710.83,256.90 714.10,259.93 717.37,256.56 720.65,234.71 723.92,233.70 727.20,209.49 730.47,211.84 733.75,207.14 737.02,209.83 740.29,183.26 743.57,170.15 746.84,163.76 750.12,169.14 753.39,139.22 756.66,145.61 759.94,141.91 763.21,161.07 766.49,158.72 769.76,189.99 773.03,171.83 776.31,174.52 779.58,181.25 782.86,192.34 786.13,212.85 789.41,211.17 792.68,208.82 795.95,198.39 799.23,183.94 802.50,163.09 805.78,179.90 809.05,167.12 812.32,172.84 815.60,191.33 818.87,192.01 822.15,172.84 825.42,187.30 828.69,173.18 831.97,181.92 835.24,193.02 838.52,197.72 841.79,169.81 845.07,192.34 848.34,205.79 851.61,201.76 854.89,187.97 858.16,173.85 861.44,179.57 864.71,183.26 867.98,186.63 871.26,171.50 874.53,156.03 877.81,125.03 881.08,98.07 884.36,113.24 887.63,77.86 890.90,81.23 894.18,91.33 897.45,77.86 900.73,114.92 904.00,130.08" />
<text x="780.00" y="60.00" font-size="14" font-family="Arial" fill="#7f7f7f" text-anchor="start">BuyHold</text>
<polyline fill="none" stroke="#1f77b4" stroke-width="2" points="56.00,440.48 59.27,440.48 62.55,440.48 65.82,440.48 69.10,440.48 72.37,440.48 75.64,440.48 78.92,440.48 82.19,440.48 85.47,440.48 88.74,440.48 92.02,440.48 95.29,440.48 98.56,440.48 101.84,440.48 105.11,440.48 108.39,440.48 111.66,440.48 114.93,440.48 118.21,440.48 121.48,440.48 124.76,440.48 128.03,440.48 131.31,440.48 134.58,440.48 137.85,440.48 141.13,440.48 144.40,440.48 147.68,440.48 150.95,440.48 154.22,440.48 157.50,440.48 160.77,440.48 164.05,440.48 167.32,440.48 170.59,440.48 173.87,440.48 177.14,440.48 180.42,440.48 183.69,440.48 186.97,440.48 190.24,440.48 193.51,440.48 196.79,440.48 200.06,440.48 203.34,440.48 206.61,440.48 209.88,440.48 213.16,440.48 216.43,440.48 219.71,440.48 222.98,440.48 226.25,440.48 229.53,440.48 232.80,440.48 236.08,440.48 239.35,440.48 242.63,440.48 245.90,440.48 249.17,440.48 252.45,440.48 255.72,440.48 259.00,440.48 262.27,440.48 265.54,440.48 268.82,440.48 272.09,440.48 275.37,440.48 278.64,440.48 281.92,440.48 285.19,440.48 288.46,440.48 291.74,440.48 295.01,440.48 298.29,440.48 301.56,440.48 304.83,440.48 308.11,440.48 311.38,440.48 314.66,440.48 317.93,440.48 321.20,440.48 324.48,440.48 327.75,440.48 331.03,440.48 334.30,440.48 337.58,440.48 340.85,440.48 344.12,440.48 347.40,440.48 350.67,440.48 353.95,440.48 357.22,440.48 360.49,440.48 363.77,440.48 367.04,440.48 370.32,440.48 373.59,440.48 376.86,440.48 380.14,440.48 383.41,440.48 386.69,440.48 389.96,440.48 393.24,440.48 396.51,440.48 399.78,440.48 403.06,440.48 406.33,440.48 409.61,440.48 412.88,440.48 416.15,440.48 419.43,440.48 422.70,440.48 425.98,440.48 429.25,440.48 432.53,440.48 435.80,440.48 439.07,440.48 442.35,440.48 445.62,440.48 448.90,440.48 452.17,440.48 455.44,440.48 458.72,440.48 461.99,440.48 465.27,440.48 468.54,440.48 471.81,440.48 475.09,440.48 478.36,440.48 481.64,440.48 484.91,440.48 488.19,440.48 491.46,440.48 494.73,440.48 498.01,440.48 501.28,440.48 504.56,440.48 507.83,440.48 511.10,440.48 514.38,440.48 517.65,440.48 520.93,440.48 524.20,440.48 527.47,440.48 530.75,440.48 534.02,440.48 537.30,440.48 540.57,440.48 543.85,440.48 547.12,440.48 550.39,440.48 553.67,440.48 556.94,440.48 560.22,440.48 563.49,440.48 566.76,440.48 570.04,440.48 573.31,440.48 576.59,440.48 579.86,440.48 583.14,440.48 586.41,440.48 589.68,440.48 592.96,440.48 596.23,440.48 599.51,440.48 602.78,440.48 606.05,440.48 609.33,440.48 612.60,440.48 615.88,440.48 619.15,440.48 622.42,440.48 625.70,440.48 628.97,440.48 632.25,440.48 635.52,440.48 638.80,440.48 642.07,440.48 645.34,440.48 648.62,440.48 651.89,440.48 655.17,440.48 658.44,440.48 661.71,440.48 664.99,440.48 668.26,440.48 671.54,440.48 674.81,440.48 678.08,440.48 681.36,440.48 684.63,440.48 687.91,440.48 691.18,440.48 694.46,440.48 697.73,440.48 701.00,440.48 704.28,440.48 707.55,440.48 710.83,441.14 714.10,441.63 717.37,441.08 720.65,437.51 723.92,437.34 727.20,433.39 730.47,433.77 733.75,433.00 737.02,433.44 740.29,429.10 743.57,426.95 746.84,425.91 750.12,426.79 753.39,421.90 756.66,422.94 759.94,422.34 763.21,425.47 766.49,425.09 769.76,430.20 773.03,427.23 776.31,427.67 779.58,428.77 782.86,430.58 786.13,433.94 789.41,433.66 792.68,433.28 795.95,431.57 799.23,429.21 802.50,425.80 805.78,428.55 809.05,426.46 812.32,427.39 815.60,430.42 818.87,430.53 822.15,427.39 825.42,429.76 828.69,427.45 831.97,428.88 835.24,430.69 838.52,431.46 841.79,426.90 845.07,430.58 848.34,432.78 851.61,432.12 854.89,429.87 858.16,427.56 861.44,428.49 864.71,429.10 867.98,429.65 871.26,427.17 874.53,424.65 877.81,419.58 881.08,415.17 884.36,417.65 887.63,411.87 890.90,412.42 894.18,414.07 897.45,411.87 900.73,417.93 904.00,420.41" />
<text x="780.00" y="82.00" font-size="14" font-family="Arial" fill="#1f77b4" text-anchor="start">MA200</text>
<polyline fill="none" stroke="#2ca02c" stroke-width="2" points="56.00,440.48 59.27,440.48 62.55,440.48 65.82,440.48 69.10,440.48 72.37,440.48 75.64,440.48 78.92,440.48 82.19,440.48 85.47,440.48 88.74,440.48 92.02,440.48 95.29,440.48 98.56,440.48 101.84,440.48 105.11,440.48 108.39,440.48 111.66,440.48 114.93,440.48 118.21,440.48 121.48,440.48 124.76,440.48 128.03,440.48 131.31,440.48 134.58,440.48 137.85,440.48 141.13,440.48 144.40,440.48 147.68,440.48 150.95,440.48 154.22,440.48 157.50,440.48 160.77,440.48 164.05,440.48 167.32,440.48 170.59,440.48 173.87,440.48 177.14,440.48 180.42,440.48 183.69,440.48 186.97,440.48 190.24,440.48 193.51,440.48 196.79,440.48 200.06,440.48 203.34,440.48 206.61,440.48 209.88,440.48 213.16,440.48 216.43,440.48 219.71,440.48 222.98,440.48 226.25,440.48 229.53,440.48 232.80,440.48 236.08,440.48 239.35,440.48 242.63,440.48 245.90,440.48 249.17,440.48 252.45,440.08 255.72,440.38 259.00,440.77 262.27,440.58 265.54,441.66 268.82,440.77 272.09,441.76 275.37,438.30 278.64,438.90 281.92,437.61 285.19,433.66 288.46,430.59 291.74,430.79 295.01,433.56 298.29,431.88 301.56,433.86 304.83,432.47 308.11,432.08 311.38,431.48 314.66,426.94 317.93,427.14 321.20,425.65 324.48,424.76 327.75,424.27 331.03,426.54 334.30,421.50 337.58,421.50 340.85,421.70 344.12,422.29 347.40,423.08 350.67,422.69 353.95,423.28 357.22,422.10 360.49,422.59 363.77,419.72 367.04,421.40 370.32,419.72 373.59,420.81 376.86,421.80 380.14,423.38 383.41,423.18 386.69,423.18 389.96,419.72 393.24,420.02 396.51,420.91 399.78,419.43 403.06,421.31 406.33,423.28 409.61,424.67 412.88,427.53 416.15,423.97 419.43,427.73 422.70,428.32 425.98,427.73 429.25,426.35 432.53,425.65 435.80,425.26 439.07,424.47 442.35,425.36 445.62,423.97 448.90,426.05 452.17,423.78 455.44,423.78 458.72,421.01 461.99,421.80 465.27,422.19 468.54,423.48 471.81,424.57 475.09,427.93 478.36,429.01 481.64,429.01 484.91,429.01 488.19,429.01 491.46,429.01 494.73,429.01 498.01,429.01 501.28,429.01 504.56,429.01 507.83,429.01 511.10,429.01 514.38,429.01 517.65,429.01 520.93,429.01 524.20,429.01 527.47,429.01 530.75,429.01 534.02,429.01 537.30,429.01 540.57,429.01 543.85,429.01 547.12,429.01 550.39,429.01 553.67,429.01 556.94,429.01 560.22,427.52 563.49,429.08 566.76,425.83 570.04,425.70 573.31,428.56 576.59,426.68 579.86,429.34 583.14,425.90 586.41,423.88 589.68,425.51 592.96,427.91 596.23,423.04 599.51,423.95 602.78,423.10 606.05,417.71 609.33,411.80 612.60,405.31 615.88,405.05 619.15,406.87 622.42,412.19 625.70,418.69 628.97,417.26 632.25,416.15 635.52,422.19 638.80,421.54 642.07,416.02 645.34,416.28 648.62,410.24 651.89,403.62 655.17,406.48 658.44,403.49 661.71,404.27 664.99,406.87 668.26,407.78 671.54,413.36 674.81,407.00 678.08,403.23 681.36,404.27 684.63,401.80 687.91,409.33 691.18,402.58 694.46,403.36 697.73,396.09 701.00,394.40 704.28,390.24 707.55,390.50 710.83,392.06 714.10,393.23 717.37,391.93 720.65,383.49 723.92,383.10 727.20,373.74 730.47,374.65 733.75,372.83 737.02,373.87 740.29,363.61 743.57,358.55 746.84,356.08 750.12,358.16 753.39,346.60 756.66,349.06 759.94,347.64 763.21,355.04 766.49,354.13 769.76,366.21 773.03,359.20 776.31,360.24 779.58,362.83 782.86,367.12 786.13,375.04 789.41,374.39 792.68,373.48 795.95,369.46 799.23,363.87 802.50,355.82 805.78,362.31 809.05,357.38 812.32,359.59 815.60,366.73 818.87,366.99 822.15,359.59 825.42,365.17 828.69,359.72 831.97,363.09 835.24,367.38 838.52,369.20 841.79,358.42 845.07,367.12 848.34,372.32 851.61,370.76 854.89,365.43 858.16,359.98 861.44,362.18 864.71,363.61 867.98,364.91 871.26,359.07 874.53,353.09 877.81,341.12 881.08,330.70 884.36,336.56 887.63,322.89 890.90,324.19 894.18,328.10 897.45,322.89 900.73,337.21 904.00,343.07" />
<text x="780.00" y="104.00" font-size="14" font-family="Arial" fill="#2ca02c" text-anchor="start">MA20x60</text>
</svg>