<svg xmlns="http://www.w3.org/2000/svg" width="960" height="520" viewBox="0 0 960 520"><rect width="100%" height="100%" fill="white" />
<text x="56.00" y="32.00" font-size="20" font-family="Arial" fill="#1f2933" text-anchor="start">南電(8046) Backtest Equity Curves</text>
<line x1="56" y1="464" x2="904" y2="464" stroke="#cbd2d9" />
<line x1="56" y1="56" x2="56" y2="464" stroke="#cbd2d9" />
<text x="16.00" y="38.00" font-size="12" font-family="Arial" fill="#52606d" text-anchor="start">Equity Multiple</text>
<line x1="56" y1="464.00" x2="904" y2="464.00" stroke="#edf2f7" />
<line x1="52" y1="464.00" x2="56" y2="464.00" stroke="#9fb3c8" />
<text x="48.00" y="468.00" font-size="11" font-family="Arial" fill="#52606d" text-anchor="end">0.35</text>
<line x1="56" y1="362.00" x2="904" y2="362.00" stroke="#edf2f7" />
<line x1="52" y1="362.00" x2="56" y2="362.00" stroke="#9fb3c8" />
<text x="48.00" y="366.00" font-size="11" font-family="Arial" fill="#52606d" text-anchor="end">3.26</text>
<line x1="56" y1="260.00" x2="904" y2="260.00" stroke="#edf2f7" />
<line x1="52" y1="260.00" x2="56" y2="260.00" stroke="#9fb3c8" />
<text x="48.00" y="264.00" font-size="11" font-family="Arial" fill="#52606d" text-anchor="end">6.17</text>
<line x1="56" y1="158.00" x2="904" y2="158.00" stroke="#edf2f7" />
<line x1="52" y1="158.00" x2="56" y2="158.00" stroke="#9fb3c8" />
<text x="48.00" y="162.00" font-size="11" font-family="Arial" fill="#52606d" text-anchor="end">9.09</text>
<line x1="56" y1="56.00" x2="904" y2="56.00" stroke="#edf2f7" />
<line x1="52" y1="56.00" x2="56" y2="56.00" stroke="#9fb3c8" />
<text x="48.00" y="60.00" font-size="11" font-family="Arial" fill="#52606d" text-anchor="end">12.0</text>
<line x1="56.00" y1="464" x2="56.00" y2="468" stroke="#9fb3c8" />
<text x="56.00" y="482.00" font-size="11" font-family="Arial" fill="#52606d" text-anchor="middle">06/17</text>
<line x1="226.25" y1="464" x2="226.25" y2="468" stroke="#9fb3c8" />
<text x="226.25" y="482.00" font-size="11" font-family="Arial" fill="#52606d" text-anchor="middle">08/29</text>
<line x1="396.51" y1="464" x2="396.51" y2="468" stroke="#9fb3c8" />
<text x="396.51" y="482.00" font-size="11" font-family="Arial" fill="#52606d" text-anchor="middle">11/17</text>
<line x1="563.49" y1="464" x2="563.49" y2="468" stroke="#9fb3c8" />
<text x="563.49" y="482.00" font-size="11" font-family="Arial" fill="#52606d" text-anchor="middle">01/29</text>
<line x1="733.75" y1="464" x2="733.75" y2="468" stroke="#9fb3c8" />
<text x="733.75" y="482.00" font-size="11" font-family="Arial" fill="#52606d" text-anchor="middle">04/27</text>
<line x1="904.00" y1="464" x2="904.00" y2="468" stroke="#9fb3c8" />
<text x="904.00" y="482.00" font-size="11" font-family="Arial" fill="#52606d" text-anchor="middle">07/10</text>
<polyline fill="none" stroke="#7f7f7f" stroke-width="2" points="56.00,441.17 59.27,440.85 62.55,441.66 65.82,442.14 69.10,441.33 72.37,439.87 75.64,439.71 78.92,439.55 82.19,439.71 85.47,439.87 88.74,440.03 92.02,439.22 95.29,435.63 98.56,434.97 101.84,435.30 105.11,434.81 108.39,430.72 111.66,430.39 114.93,428.92 118.21,429.25 121.48,424.67 124.76,419.59 128.03,420.58 131.31,420.25 134.58,421.23 137.85,422.87 141.13,420.09 144.40,418.94 147.68,417.14 150.95,415.83 154.22,418.29 157.50,417.30 160.77,418.12 164.05,418.45 167.32,418.12 170.59,419.27 173.87,419.76 177.14,421.07 180.42,416.98 183.69,418.29 186.97,419.76 190.24,420.25 193.51,420.74 196.79,416.32 200.06,417.30 203.34,421.56 206.61,420.90 209.88,419.76 213.16,415.34 216.43,415.01 219.71,408.96 222.98,402.25 226.25,404.22 229.53,410.43 232.80,411.74 236.08,413.87 239.35,415.50 242.63,414.85 245.90,415.34 249.17,416.00 252.45,415.67 255.72,417.47 259.00,416.00 262.27,417.63 265.54,411.91 268.82,412.89 272.09,410.76 275.37,404.22 278.64,399.15 281.92,399.47 285.19,404.05 288.46,401.27 291.74,404.55 295.01,402.25 298.29,401.60 301.56,400.62 304.83,393.09 308.11,393.42 311.38,390.97 314.66,389.50 317.93,388.68 321.20,392.44 324.48,384.10 327.75,384.10 331.03,384.42 334.30,385.41 337.58,386.71 340.85,386.06 344.12,387.04 347.40,385.08 350.67,385.90 353.95,381.15 357.22,383.93 360.49,381.15 363.77,382.95 367.04,384.59 370.32,387.21 373.59,386.88 376.86,386.88 380.14,381.15 383.41,381.64 386.69,383.12 389.96,380.66 393.24,383.77 396.51,387.04 399.78,389.33 403.06,394.08 406.33,388.19 409.61,394.40 412.88,395.38 416.15,394.40 419.43,392.11 422.70,390.97 425.98,390.31 429.25,389.00 432.53,390.48 435.80,388.19 439.07,391.62 442.35,387.86 445.62,387.86 448.90,383.28 452.17,384.59 455.44,385.24 458.72,387.37 461.99,389.17 465.27,394.73 468.54,396.53 471.81,399.47 475.09,397.84 478.36,396.37 481.64,398.00 484.91,398.00 488.19,395.55 491.46,397.51 494.73,397.51 498.01,397.35 501.28,398.66 504.56,397.18 507.83,396.20 511.10,397.18 514.38,398.66 517.65,397.51 520.93,392.93 524.20,388.51 527.47,390.64 530.75,389.99 534.02,381.48 537.30,372.16 540.57,364.47 543.85,358.09 547.12,354.98 550.39,351.22 553.67,355.14 556.94,346.96 560.22,346.64 563.49,353.83 566.76,349.09 570.04,355.80 573.31,347.13 576.59,342.06 579.86,346.15 583.14,352.20 586.41,339.93 589.68,342.22 592.96,340.09 596.23,326.52 599.51,311.63 602.78,295.27 606.05,294.62 609.33,299.20 612.60,312.61 615.88,328.97 619.15,325.37 622.42,322.59 625.70,337.80 628.97,336.17 632.25,322.26 635.52,322.92 638.80,307.70 642.07,291.02 645.34,298.22 648.62,290.69 651.89,292.66 655.17,299.20 658.44,301.49 661.71,315.56 664.99,299.53 668.26,290.04 671.54,292.66 674.81,286.44 678.08,305.41 681.36,288.40 684.63,290.37 687.91,272.04 691.18,267.79 694.46,257.32 697.73,257.98 701.00,261.90 704.28,264.85 707.55,261.58 710.83,240.31 714.10,239.33 717.37,215.77 720.65,218.06 723.92,213.48 727.20,216.10 730.47,190.25 733.75,177.49 737.02,171.28 740.29,176.51 743.57,147.40 746.84,153.61 750.12,150.01 753.39,168.66 756.66,166.37 759.94,196.80 763.21,179.13 766.49,181.75 769.76,188.29 773.03,199.09 776.31,219.04 779.58,217.41 782.86,215.12 786.13,204.98 789.41,190.91 792.68,170.62 795.95,186.98 799.23,174.55 802.50,180.11 805.78,198.11 809.05,198.76 812.32,180.11 815.60,194.18 818.87,180.44 822.15,188.95 825.42,199.74 828.69,204.32 831.97,177.17 835.24,199.09 838.52,212.17 841.79,208.25 845.07,194.83 848.34,181.09 851.61,186.65 854.89,190.25 858.16,193.53 861.44,178.80 864.71,163.75 867.98,133.59 871.26,107.36 874.53,122.12 877.81,87.69 881.08,90.97 884.36,100.81 887.63,87.69 890.90,123.76 894.18,138.51 897.45,113.92 900.73,77.86 904.00,77.86" />
<text x="780.00" y="60.00" font-size="14" font-family="Arial" fill="#7f7f7f" text-anchor="start">BuyHold</text>
<polyline fill="none" stroke="#1f77b4" stroke-width="2" points="56.00,441.17 59.27,441.17 62.55,441.17 65.82,441.17 69.10,441.17 72.37,441.17 75.64,441.17 78.92,441.17 82.19,441.17 85.47,441.17 88.74,441.17 92.02,441.17 95.29,441.17 98.56,441.17 101.84,441.17 105.11,441.17 108.39,441.17 111.66,441.17 114.93,441.17 118.21,441.17 121.48,441.17 124.76,441.17 128.03,441.17 131.31,441.17 134.58,441.17 137.85,441.17 141.13,441.17 144.40,441.17 147.68,441.17 150.95,441.17 154.22,441.17 157.50,441.17 160.77,441.17 164.05,441.17 167.32,441.17 170.59,441.17 173.87,441.17 177.14,441.17 180.42,441.17 183.69,441.17 186.97,441.17 190.24,441.17 193.51,441.17 196.79,441.17 200.06,441.17 203.34,441.17 206.61,441.17 209.88,441.17 213.16,441.17 216.43,441.17 219.71,441.17 222.98,441.17 226.25,441.17 229.53,441.17 232.80,441.17 236.08,441.17 239.35,441.17 242.63,441.17 245.90,441.17 249.17,441.17 252.45,441.17 255.72,441.17 259.00,441.17 262.27,441.17 265.54,441.17 268.82,441.17 272.09,441.17 275.37,441.17 278.64,441.17 281.92,441.17 285.19,441.17 288.46,441.17 291.74,441.17 295.01,441.17 298.29,441.17 301.56,441.17 304.83,441.17 308.11,441.17 311.38,441.17 314.66,441.17 317.93,441.17 321.20,441.17 324.48,441.17 327.75,441.17 331.03,441.17 334.30,441.17 337.58,441.17 340.85,441.17 344.12,441.17 347.40,441.17 350.67,441.17 353.95,441.17 357.22,441.17 360.49,441.17 363.77,441.17 367.04,441.17 370.32,441.17 373.59,441.17 376.86,441.17 380.14,441.17 383.41,441.17 386.69,441.17 389.96,441.17 393.24,441.17 396.51,441.17 399.78,441.17 403.06,441.17 406.33,441.17 409.61,441.17 412.88,441.17 416.15,441.17 419.43,441.17 422.70,441.17 425.98,441.17 429.25,441.17 432.53,441.17 435.80,441.17 439.07,441.17 442.35,441.17 445.62,441.17 448.90,441.17 452.17,441.17 455.44,441.17 458.72,441.17 461.99,441.17 465.27,441.17 468.54,441.17 471.81,441.17 475.09,441.17 478.36,441.17 481.64,441.17 484.91,441.17 488.19,441.17 491.46,441.17 494.73,441.17 498.01,441.17 501.28,441.17 504.56,441.17 507.83,441.17 511.10,441.17 514.38,441.17 517.65,441.17 520.93,441.17 524.20,441.17 527.47,441.17 530.75,441.17 534.02,441.17 537.30,441.17 540.57,441.17 543.85,441.17 547.12,441.17 550.39,441.17 553.67,441.17 556.94,441.17 560.22,441.17 563.49,441.17 566.76,441.17 570.04,441.17 573.31,441.17 576.59,441.17 579.86,441.17 583.14,441.17 586.41,441.17 589.68,441.17 592.96,441.17 596.23,441.17 599.51,441.17 602.78,441.17 606.05,441.17 609.33,441.17 612.60,441.17 615.88,441.17 619.15,441.17 622.42,441.17 625.70,441.17 628.97,441.17 632.25,441.17 635.52,441.17 638.80,441.17 642.07,441.17 645.34,441.17 648.62,441.17 651.89,441.17 655.17,441.17 658.44,441.17 661.71,441.17 664.99,441.17 668.26,441.17 671.54,441.17 674.81,441.17 678.08,441.17 681.36,441.17 684.63,441.17 687.91,441.17 691.18,441.17 694.46,441.17 697.73,441.17 701.00,441.17 704.28,441.17 707.55,441.17 710.83,437.70 714.10,437.54 717.37,433.70 720.65,434.07 723.92,433.32 727.20,433.75 730.47,429.53 733.75,427.45 737.02,426.43 740.29,427.29 743.57,422.54 746.84,423.55 750.12,422.96 753.39,426.01 756.66,425.63 759.94,430.60 763.21,427.72 766.49,428.14 769.76,429.21 773.03,430.97 776.31,434.23 779.58,433.96 782.86,433.59 786.13,431.93 789.41,429.64 792.68,426.33 795.95,429.00 799.23,426.97 802.50,427.88 805.78,430.81 809.05,430.92 812.32,427.88 815.60,430.17 818.87,427.93 822.15,429.32 825.42,431.08 828.69,431.83 831.97,427.40 835.24,430.97 838.52,433.11 841.79,432.47 845.07,430.28 848.34,428.04 851.61,428.94 854.89,429.53 858.16,430.06 861.44,427.66 864.71,425.21 867.98,420.28 871.26,416.00 874.53,418.41 877.81,412.79 881.08,413.33 884.36,414.93 887.63,412.79 890.90,418.68 894.18,421.09 897.45,417.07 900.73,411.19 904.00,411.19" />
<text x="780.00" y="82.00" font-size="14" font-family="Arial" fill="#1f77b4" text-anchor="start">MA200</text>
<polyline fill="none" stroke="#2ca02c" stroke-width="2" points="56.00,441.17 59.27,441.17 62.55,441.17 65.82,441.17 69.10,441.17 72.37,441.17 75.64,441.17 78.92,441.17 82.19,441.17 85.47,441.17 88.74,441.17 92.02,441.17 95.29,441.17 98.56,441.17 101.84,441.17 105.11,441.17 108.39,441.17 111.66,441.17 114.93,441.17 118.21,441.17 121.48,441.17 124.76,441.17 128.03,441.17 131.31,441.17 134.58,441.17 137.85,441.17 141.13,441.17 144.40,441.17 147.68,441.17 150.95,441.17 154.22,441.17 157.50,441.17 160.77,441.17 164.05,441.17 167.32,441.17 170.59,441.17 173.87,441.17 177.14,441.17 180.42,441.17 183.69,441.17 186.97,441.17 190.24,441.17 193.51,441.17 196.79,441.17 200.06,441.17 203.34,441.17 206.61,441.17 209.88,441.17 213.16,441.17 216.43,441.17 219.71,441.17 222.98,441.17 226.25,441.17 229.53,441.17 232.80,441.17 236.08,441.17 239.35,441.17 242.63,441.17 245.90,441.17 249.17,441.17 252.45,440.98 255.72,442.03 259.00,441.17 262.27,442.12 265.54,438.79 268.82,439.36 272.09,438.12 275.37,434.32 278.64,431.37 281.92,431.56 285.19,434.22 288.46,432.60 291.74,434.51 295.01,433.18 298.29,432.79 301.56,432.22 304.83,427.85 308.11,428.04 311.38,426.61 314.66,425.75 317.93,425.28 321.20,427.47 324.48,422.61 327.75,422.61 331.03,422.80 334.30,423.37 337.58,424.13 340.85,423.75 344.12,424.32 347.40,423.18 350.67,423.66 353.95,420.90 357.22,422.52 360.49,420.90 363.77,421.95 367.04,422.90 370.32,424.42 373.59,424.23 376.86,424.23 380.14,420.90 383.41,421.18 386.69,422.04 389.96,420.61 393.24,422.42 396.51,424.32 399.78,425.66 403.06,428.42 406.33,424.99 409.61,428.61 412.88,429.18 416.15,428.61 419.43,427.27 422.70,426.61 425.98,426.23 429.25,425.47 432.53,426.32 435.80,424.99 439.07,426.99 442.35,424.80 445.62,424.80 448.90,422.14 452.17,422.90 455.44,423.28 458.72,424.51 461.99,425.56 465.27,428.80 468.54,429.84 471.81,429.84 475.09,429.84 478.36,429.84 481.64,429.84 484.91,429.84 488.19,429.84 491.46,429.84 494.73,429.84 498.01,429.84 501.28,429.84 504.56,429.84 507.83,429.84 511.10,429.84 514.38,429.84 517.65,429.84 520.93,429.84 524.20,429.84 527.47,429.84 530.75,429.84 534.02,429.84 537.30,429.84 540.57,429.84 543.85,429.84 547.12,429.84 550.39,428.41 553.67,429.91 556.94,426.78 560.22,426.65 563.49,429.41 566.76,427.59 570.04,430.16 573.31,426.84 576.59,424.90 579.86,426.47 583.14,428.78 586.41,424.09 589.68,424.97 592.96,424.15 596.23,418.96 599.51,413.27 602.78,407.01 606.05,406.76 609.33,408.52 612.60,413.64 615.88,419.90 619.15,418.52 622.42,417.46 625.70,423.28 628.97,422.65 632.25,417.33 635.52,417.58 638.80,411.77 642.07,405.39 645.34,408.14 648.62,405.26 651.89,406.01 655.17,408.52 658.44,409.39 661.71,414.77 664.99,408.64 668.26,405.01 671.54,406.01 674.81,403.64 678.08,410.89 681.36,404.39 684.63,405.14 687.91,398.13 691.18,396.51 694.46,392.50 697.73,392.75 701.00,394.25 704.28,395.38 707.55,394.13 710.83,386.00 714.10,385.62 717.37,376.61 720.65,377.49 723.92,375.74 727.20,376.74 730.47,366.86 733.75,361.98 737.02,359.60 740.29,361.60 743.57,350.47 746.84,352.85 750.12,351.47 753.39,358.60 756.66,357.72 759.94,369.36 763.21,362.60 766.49,363.60 769.76,366.11 773.03,370.23 776.31,377.87 779.58,377.24 782.86,376.36 786.13,372.49 789.41,367.11 792.68,359.35 795.95,365.61 799.23,360.85 802.50,362.98 805.78,369.86 809.05,370.11 812.32,362.98 815.60,368.36 818.87,363.10 822.15,366.36 825.42,370.48 828.69,372.24 831.97,361.85 835.24,370.23 838.52,375.24 841.79,373.74 845.07,368.61 848.34,363.35 851.61,365.48 854.89,366.86 858.16,368.11 861.44,362.48 864.71,356.72 867.98,345.19 871.26,335.16 874.53,340.80 877.81,327.64 881.08,328.89 884.36,332.65 887.63,327.64 890.90,341.43 894.18,347.07 897.45,337.67 900.73,323.88 904.00,323.88" />
<text x="780.00" y="104.00" font-size="14" font-family="Arial" fill="#2ca02c" text-anchor="start">MA20x60</text>
</svg>