<svg xmlns="http://www.w3.org/2000/svg" width="960" height="520" viewBox="0 0 960 520"><rect width="100%" height="100%" fill="white" />
<text x="56.00" y="32.00" font-size="20" font-family="Arial" fill="#1f2933" text-anchor="start">南電(8046) Backtest Equity Curves</text>
<line x1="56" y1="464" x2="904" y2="464" stroke="#cbd2d9" />
<line x1="56" y1="56" x2="56" y2="464" stroke="#cbd2d9" />
<text x="16.00" y="38.00" font-size="12" font-family="Arial" fill="#52606d" text-anchor="start">Equity Multiple</text>
<line x1="56" y1="464.00" x2="904" y2="464.00" stroke="#edf2f7" />
<line x1="52" y1="464.00" x2="56" y2="464.00" stroke="#9fb3c8" />
<text x="48.00" y="468.00" font-size="11" font-family="Arial" fill="#52606d" text-anchor="end">0.34</text>
<line x1="56" y1="362.00" x2="904" y2="362.00" stroke="#edf2f7" />
<line x1="52" y1="362.00" x2="56" y2="362.00" stroke="#9fb3c8" />
<text x="48.00" y="366.00" font-size="11" font-family="Arial" fill="#52606d" text-anchor="end">3.22</text>
<line x1="56" y1="260.00" x2="904" y2="260.00" stroke="#edf2f7" />
<line x1="52" y1="260.00" x2="56" y2="260.00" stroke="#9fb3c8" />
<text x="48.00" y="264.00" font-size="11" font-family="Arial" fill="#52606d" text-anchor="end">6.10</text>
<line x1="56" y1="158.00" x2="904" y2="158.00" stroke="#edf2f7" />
<line x1="52" y1="158.00" x2="56" y2="158.00" stroke="#9fb3c8" />
<text x="48.00" y="162.00" font-size="11" font-family="Arial" fill="#52606d" text-anchor="end">8.98</text>
<line x1="56" y1="56.00" x2="904" y2="56.00" stroke="#edf2f7" />
<line x1="52" y1="56.00" x2="56" y2="56.00" stroke="#9fb3c8" />
<text x="48.00" y="60.00" font-size="11" font-family="Arial" fill="#52606d" text-anchor="end">11.9</text>
<line x1="56.00" y1="464" x2="56.00" y2="468" stroke="#9fb3c8" />
<text x="56.00" y="482.00" font-size="11" font-family="Arial" fill="#52606d" text-anchor="middle">06/13</text>
<line x1="226.25" y1="464" x2="226.25" y2="468" stroke="#9fb3c8" />
<text x="226.25" y="482.00" font-size="11" font-family="Arial" fill="#52606d" text-anchor="middle">08/27</text>
<line x1="396.51" y1="464" x2="396.51" y2="468" stroke="#9fb3c8" />
<text x="396.51" y="482.00" font-size="11" font-family="Arial" fill="#52606d" text-anchor="middle">11/13</text>
<line x1="563.49" y1="464" x2="563.49" y2="468" stroke="#9fb3c8" />
<text x="563.49" y="482.00" font-size="11" font-family="Arial" fill="#52606d" text-anchor="middle">01/27</text>
<line x1="733.75" y1="464" x2="733.75" y2="468" stroke="#9fb3c8" />
<text x="733.75" y="482.00" font-size="11" font-family="Arial" fill="#52606d" text-anchor="middle">04/23</text>
<line x1="904.00" y1="464" x2="904.00" y2="468" stroke="#9fb3c8" />
<text x="904.00" y="482.00" font-size="11" font-family="Arial" fill="#52606d" text-anchor="middle">07/08</text>
<polyline fill="none" stroke="#7f7f7f" stroke-width="2" points="56.00,440.54 59.27,439.38 62.55,440.04 65.82,439.71 69.10,440.54 72.37,441.04 75.64,440.21 78.92,438.71 82.19,438.54 85.47,438.38 88.74,438.54 92.02,438.71 95.29,438.88 98.56,438.05 101.84,434.36 105.11,433.69 108.39,434.02 111.66,433.52 114.93,429.33 118.21,429.00 121.48,427.49 124.76,427.82 128.03,423.13 131.31,417.93 134.58,418.94 137.85,418.60 141.13,419.61 144.40,421.29 147.68,418.44 150.95,417.26 154.22,415.42 157.50,414.08 160.77,416.59 164.05,415.59 167.32,416.42 170.59,416.76 173.87,416.42 177.14,417.60 180.42,418.10 183.69,419.44 186.97,415.25 190.24,416.59 193.51,418.10 196.79,418.60 200.06,419.11 203.34,414.58 206.61,415.59 209.88,419.94 213.16,419.27 216.43,418.10 219.71,413.58 222.98,413.24 226.25,407.04 229.53,400.17 232.80,402.18 236.08,408.55 239.35,409.89 242.63,412.07 245.90,413.74 249.17,413.07 252.45,413.58 255.72,414.25 259.00,413.91 262.27,415.75 265.54,414.25 268.82,415.92 272.09,410.06 275.37,411.06 278.64,408.88 281.92,402.18 285.19,396.98 288.46,397.32 291.74,402.01 295.01,399.16 298.29,402.51 301.56,400.17 304.83,399.50 308.11,398.49 311.38,390.78 314.66,391.12 317.93,388.60 321.20,387.09 324.48,386.26 327.75,390.11 331.03,381.56 334.30,381.56 337.58,381.90 340.85,382.90 344.12,384.24 347.40,383.57 350.67,384.58 353.95,382.57 357.22,383.41 360.49,378.54 363.77,381.39 367.04,378.54 370.32,380.39 373.59,382.06 376.86,384.75 380.14,384.41 383.41,384.41 386.69,378.54 389.96,379.05 393.24,380.56 396.51,378.04 399.78,381.23 403.06,384.58 406.33,386.93 409.61,391.79 412.88,385.75 416.15,392.12 419.43,393.13 422.70,392.12 425.98,389.77 429.25,388.60 432.53,387.93 435.80,386.59 439.07,388.10 442.35,385.75 445.62,389.27 448.90,385.42 452.17,385.42 455.44,380.72 458.72,382.06 461.99,382.74 465.27,384.91 468.54,386.76 471.81,392.46 475.09,394.30 478.36,397.32 481.64,395.64 484.91,394.13 488.19,395.81 491.46,395.81 494.73,393.29 498.01,395.31 501.28,395.31 504.56,395.14 507.83,396.48 511.10,394.97 514.38,393.97 517.65,394.97 520.93,396.48 524.20,395.31 527.47,390.61 530.75,386.09 534.02,388.27 537.30,387.60 540.57,378.88 543.85,369.33 547.12,361.45 550.39,354.91 553.67,351.73 556.94,347.87 560.22,351.90 563.49,343.51 566.76,343.18 570.04,350.55 573.31,345.69 576.59,352.57 579.86,343.68 583.14,338.49 586.41,342.68 589.68,348.88 592.96,336.31 596.23,338.65 599.51,336.47 602.78,322.56 606.05,307.31 609.33,290.55 612.60,289.88 615.88,294.57 619.15,308.32 622.42,325.08 625.70,321.39 628.97,318.54 632.25,334.13 635.52,332.45 638.80,318.21 642.07,318.88 645.34,303.29 648.62,286.19 651.89,293.57 655.17,285.86 658.44,287.87 661.71,294.57 664.99,296.92 668.26,311.33 671.54,294.91 674.81,285.19 678.08,287.87 681.36,281.50 684.63,300.94 687.91,283.51 691.18,285.52 694.46,266.75 697.73,262.39 701.00,251.66 704.28,252.33 707.55,256.36 710.83,259.37 714.10,256.02 717.37,234.23 720.65,233.23 723.92,209.09 727.20,211.44 730.47,206.74 733.75,209.43 737.02,182.94 740.29,169.87 743.57,163.50 746.84,168.86 750.12,139.03 753.39,145.40 756.66,141.71 759.94,160.82 763.21,158.47 766.49,189.65 769.76,171.55 773.03,174.23 776.31,180.93 779.58,192.00 782.86,212.44 786.13,210.77 789.41,208.42 792.68,198.03 795.95,183.61 799.23,162.83 802.50,179.59 805.78,166.85 809.05,172.55 812.32,190.99 815.60,191.66 818.87,172.55 822.15,186.97 825.42,172.89 828.69,181.60 831.97,192.67 835.24,197.36 838.52,169.54 841.79,192.00 845.07,205.40 848.34,201.38 851.61,187.64 854.89,173.56 858.16,179.26 861.44,182.94 864.71,186.30 867.98,171.21 871.26,155.79 874.53,124.89 877.81,98.01 881.08,113.13 884.36,77.86 887.63,81.22 890.90,91.29 894.18,77.86 897.45,114.81 900.73,129.93 904.00,104.73" />
<text x="780.00" y="60.00" font-size="14" font-family="Arial" fill="#7f7f7f" text-anchor="start">BuyHold</text>
<polyline fill="none" stroke="#1f77b4" stroke-width="2" points="56.00,440.54 59.27,440.54 62.55,440.54 65.82,440.54 69.10,440.54 72.37,440.54 75.64,440.54 78.92,440.54 82.19,440.54 85.47,440.54 88.74,440.54 92.02,440.54 95.29,440.54 98.56,440.54 101.84,440.54 105.11,440.54 108.39,440.54 111.66,440.54 114.93,440.54 118.21,440.54 121.48,440.54 124.76,440.54 128.03,440.54 131.31,440.54 134.58,440.54 137.85,440.54 141.13,440.54 144.40,440.54 147.68,440.54 150.95,440.54 154.22,440.54 157.50,440.54 160.77,440.54 164.05,440.54 167.32,440.54 170.59,440.54 173.87,440.54 177.14,440.54 180.42,440.54 183.69,440.54 186.97,440.54 190.24,440.54 193.51,440.54 196.79,440.54 200.06,440.54 203.34,440.54 206.61,440.54 209.88,440.54 213.16,440.54 216.43,440.54 219.71,440.54 222.98,440.54 226.25,440.54 229.53,440.54 232.80,440.54 236.08,440.54 239.35,440.54 242.63,440.54 245.90,440.54 249.17,440.54 252.45,440.54 255.72,440.54 259.00,440.54 262.27,440.54 265.54,440.54 268.82,440.54 272.09,440.54 275.37,440.54 278.64,440.54 281.92,440.54 285.19,440.54 288.46,440.54 291.74,440.54 295.01,440.54 298.29,440.54 301.56,440.54 304.83,440.54 308.11,440.54 311.38,440.54 314.66,440.54 317.93,440.54 321.20,440.54 324.48,440.54 327.75,440.54 331.03,440.54 334.30,440.54 337.58,440.54 340.85,440.54 344.12,440.54 347.40,440.54 350.67,440.54 353.95,440.54 357.22,440.54 360.49,440.54 363.77,440.54 367.04,440.54 370.32,440.54 373.59,440.54 376.86,440.54 380.14,440.54 383.41,440.54 386.69,440.54 389.96,440.54 393.24,440.54 396.51,440.54 399.78,440.54 403.06,440.54 406.33,440.54 409.61,440.54 412.88,440.54 416.15,440.54 419.43,440.54 422.70,440.54 425.98,440.54 429.25,440.54 432.53,440.54 435.80,440.54 439.07,440.54 442.35,440.54 445.62,440.54 448.90,440.54 452.17,440.54 455.44,440.54 458.72,440.54 461.99,440.54 465.27,440.54 468.54,440.54 471.81,440.54 475.09,440.54 478.36,440.54 481.64,440.54 484.91,440.54 488.19,440.54 491.46,440.54 494.73,440.54 498.01,440.54 501.28,440.54 504.56,440.54 507.83,440.54 511.10,440.54 514.38,440.54 517.65,440.54 520.93,440.54 524.20,440.54 527.47,440.54 530.75,440.54 534.02,440.54 537.30,440.54 540.57,440.54 543.85,440.54 547.12,440.54 550.39,440.54 553.67,440.54 556.94,440.54 560.22,440.54 563.49,440.54 566.76,440.54 570.04,440.54 573.31,440.54 576.59,440.54 579.86,440.54 583.14,440.54 586.41,440.54 589.68,440.54 592.96,440.54 596.23,440.54 599.51,440.54 602.78,440.54 606.05,440.54 609.33,440.54 612.60,440.54 615.88,440.54 619.15,440.54 622.42,440.54 625.70,440.54 628.97,440.54 632.25,440.54 635.52,440.54 638.80,440.54 642.07,440.54 645.34,440.54 648.62,440.54 651.89,440.54 655.17,440.54 658.44,440.54 661.71,440.54 664.99,440.54 668.26,440.54 671.54,440.54 674.81,440.54 678.08,440.54 681.36,440.54 684.63,440.54 687.91,440.54 691.18,440.54 694.46,440.54 697.73,440.54 701.00,440.54 704.28,440.54 707.55,440.54 710.83,441.02 714.10,440.48 717.37,436.97 720.65,436.81 723.92,432.92 727.20,433.30 730.47,432.54 733.75,432.97 737.02,428.71 740.29,426.60 743.57,425.57 746.84,426.44 750.12,421.63 753.39,422.66 756.66,422.06 759.94,425.14 763.21,424.76 766.49,429.79 769.76,426.87 773.03,427.30 776.31,428.38 779.58,430.17 782.86,433.46 786.13,433.19 789.41,432.81 792.68,431.14 795.95,428.81 799.23,425.47 802.50,428.17 805.78,426.11 809.05,427.03 812.32,430.00 815.60,430.11 818.87,427.03 822.15,429.35 825.42,427.09 828.69,428.49 831.97,430.27 835.24,431.03 838.52,426.55 841.79,430.17 845.07,432.33 848.34,431.68 851.61,429.46 854.89,427.19 858.16,428.11 861.44,428.71 864.71,429.25 867.98,426.82 871.26,424.33 874.53,419.35 877.81,415.02 881.08,417.45 884.36,411.77 887.63,412.31 890.90,413.94 894.18,411.77 897.45,417.73 900.73,420.16 904.00,416.10" />
<text x="780.00" y="82.00" font-size="14" font-family="Arial" fill="#1f77b4" text-anchor="start">MA200</text>
<polyline fill="none" stroke="#2ca02c" stroke-width="2" points="56.00,440.54 59.27,440.54 62.55,440.54 65.82,440.54 69.10,440.54 72.37,440.54 75.64,440.54 78.92,440.54 82.19,440.54 85.47,440.54 88.74,440.54 92.02,440.54 95.29,440.54 98.56,440.54 101.84,440.54 105.11,440.54 108.39,440.54 111.66,440.54 114.93,440.54 118.21,440.54 121.48,440.54 124.76,440.54 128.03,440.54 131.31,440.54 134.58,440.54 137.85,440.54 141.13,440.54 144.40,440.54 147.68,440.54 150.95,440.54 154.22,440.54 157.50,440.54 160.77,440.54 164.05,440.54 167.32,440.54 170.59,440.54 173.87,440.54 177.14,440.54 180.42,440.54 183.69,440.54 186.97,440.54 190.24,440.54 193.51,440.54 196.79,440.54 200.06,440.54 203.34,440.54 206.61,440.54 209.88,440.54 213.16,440.54 216.43,440.54 219.71,440.54 222.98,440.54 226.25,440.54 229.53,440.54 232.80,440.54 236.08,440.54 239.35,440.54 242.63,440.54 245.90,440.54 249.17,440.54 252.45,440.82 255.72,441.20 259.00,441.01 262.27,442.05 265.54,441.20 268.82,442.14 272.09,438.84 275.37,439.41 278.64,438.18 281.92,434.40 285.19,431.48 288.46,431.67 291.74,434.31 295.01,432.71 298.29,434.59 301.56,433.27 304.83,432.89 308.11,432.33 311.38,427.99 314.66,428.18 317.93,426.76 321.20,425.91 324.48,425.44 327.75,427.61 331.03,422.80 334.30,422.80 337.58,422.99 340.85,423.55 344.12,424.31 347.40,423.93 350.67,424.50 353.95,423.36 357.22,423.84 360.49,421.10 363.77,422.70 367.04,421.10 370.32,422.14 373.59,423.08 376.86,424.59 380.14,424.40 383.41,424.40 386.69,421.10 389.96,421.38 393.24,422.23 396.51,420.82 399.78,422.61 403.06,424.50 406.33,425.82 409.61,428.55 412.88,425.16 416.15,428.74 419.43,429.31 422.70,428.74 425.98,427.42 429.25,426.76 432.53,426.38 435.80,425.63 439.07,426.48 442.35,425.16 445.62,427.14 448.90,424.97 452.17,424.97 455.44,422.33 458.72,423.08 461.99,423.46 465.27,424.68 468.54,425.72 471.81,428.93 475.09,429.97 478.36,429.97 481.64,429.97 484.91,429.97 488.19,429.97 491.46,429.97 494.73,429.97 498.01,429.97 501.28,429.97 504.56,429.97 507.83,429.97 511.10,429.97 514.38,429.97 517.65,429.97 520.93,429.97 524.20,429.97 527.47,429.97 530.75,429.97 534.02,429.97 537.30,429.97 540.57,429.97 543.85,429.97 547.12,429.97 550.39,429.97 553.67,429.97 556.94,428.54 560.22,430.03 563.49,426.93 566.76,426.81 570.04,429.54 573.31,427.74 576.59,430.28 579.86,426.99 583.14,425.07 586.41,426.62 589.68,428.92 592.96,424.26 596.23,425.13 599.51,424.33 602.78,419.18 606.05,413.53 609.33,407.33 612.60,407.08 615.88,408.82 619.15,413.91 622.42,420.11 625.70,418.74 628.97,417.69 632.25,423.46 635.52,422.84 638.80,417.57 642.07,417.81 645.34,412.05 648.62,405.72 651.89,408.45 655.17,405.60 658.44,406.34 661.71,408.82 664.99,409.69 668.26,415.02 671.54,408.94 674.81,405.35 678.08,406.34 681.36,403.98 684.63,411.18 687.91,404.73 691.18,405.47 694.46,398.53 697.73,396.91 701.00,392.94 704.28,393.19 707.55,394.68 710.83,395.80 714.10,394.56 717.37,386.49 720.65,386.12 723.92,377.19 727.20,378.06 730.47,376.32 733.75,377.31 737.02,367.52 740.29,362.68 743.57,360.32 746.84,362.31 750.12,351.27 753.39,353.62 756.66,352.26 759.94,359.33 763.21,358.46 766.49,370.00 769.76,363.30 773.03,364.29 776.31,366.77 779.58,370.86 782.86,378.43 786.13,377.81 789.41,376.94 792.68,373.10 795.95,367.76 799.23,360.07 802.50,366.27 805.78,361.56 809.05,363.67 812.32,370.49 815.60,370.74 818.87,363.67 822.15,369.00 825.42,363.79 828.69,367.02 831.97,371.11 835.24,372.85 838.52,362.55 841.79,370.86 845.07,375.83 848.34,374.34 851.61,369.25 854.89,364.04 858.16,366.15 861.44,367.52 864.71,368.76 867.98,363.17 871.26,357.47 874.53,346.03 877.81,336.09 881.08,341.68 884.36,328.63 887.63,329.87 890.90,333.60 894.18,328.63 897.45,342.30 900.73,347.90 904.00,338.57" />
<text x="780.00" y="104.00" font-size="14" font-family="Arial" fill="#2ca02c" text-anchor="start">MA20x60</text>
</svg>