<svg xmlns="http://www.w3.org/2000/svg" width="960" height="520" viewBox="0 0 960 520"><rect width="100%" height="100%" fill="white" />
<text x="56.00" y="32.00" font-size="20" font-family="Arial" fill="#1f2933" text-anchor="start">國泰金(2882) Backtest Equity Curves</text>
<line x1="56" y1="464" x2="904" y2="464" stroke="#cbd2d9" />
<line x1="56" y1="56" x2="56" y2="464" stroke="#cbd2d9" />
<text x="16.00" y="38.00" font-size="12" font-family="Arial" fill="#52606d" text-anchor="start">Equity Multiple</text>
<line x1="56" y1="464.00" x2="904" y2="464.00" stroke="#edf2f7" />
<line x1="52" y1="464.00" x2="56" y2="464.00" stroke="#9fb3c8" />
<text x="48.00" y="468.00" font-size="11" font-family="Arial" fill="#52606d" text-anchor="end">0.92</text>
<line x1="56" y1="362.00" x2="904" y2="362.00" stroke="#edf2f7" />
<line x1="52" y1="362.00" x2="56" y2="362.00" stroke="#9fb3c8" />
<text x="48.00" y="366.00" font-size="11" font-family="Arial" fill="#52606d" text-anchor="end">1.16</text>
<line x1="56" y1="260.00" x2="904" y2="260.00" stroke="#edf2f7" />
<line x1="52" y1="260.00" x2="56" y2="260.00" stroke="#9fb3c8" />
<text x="48.00" y="264.00" font-size="11" font-family="Arial" fill="#52606d" text-anchor="end">1.41</text>
<line x1="56" y1="158.00" x2="904" y2="158.00" stroke="#edf2f7" />
<line x1="52" y1="158.00" x2="56" y2="158.00" stroke="#9fb3c8" />
<text x="48.00" y="162.00" font-size="11" font-family="Arial" fill="#52606d" text-anchor="end">1.65</text>
<line x1="56" y1="56.00" x2="904" y2="56.00" stroke="#edf2f7" />
<line x1="52" y1="56.00" x2="56" y2="56.00" stroke="#9fb3c8" />
<text x="48.00" y="60.00" font-size="11" font-family="Arial" fill="#52606d" text-anchor="end">1.90</text>
<line x1="56.00" y1="464" x2="56.00" y2="468" stroke="#9fb3c8" />
<text x="56.00" y="482.00" font-size="11" font-family="Arial" fill="#52606d" text-anchor="middle">06/23</text>
<line x1="226.25" y1="464" x2="226.25" y2="468" stroke="#9fb3c8" />
<text x="226.25" y="482.00" font-size="11" font-family="Arial" fill="#52606d" text-anchor="middle">09/04</text>
<line x1="396.51" y1="464" x2="396.51" y2="468" stroke="#9fb3c8" />
<text x="396.51" y="482.00" font-size="11" font-family="Arial" fill="#52606d" text-anchor="middle">11/21</text>
<line x1="563.49" y1="464" x2="563.49" y2="468" stroke="#9fb3c8" />
<text x="563.49" y="482.00" font-size="11" font-family="Arial" fill="#52606d" text-anchor="middle">02/04</text>
<line x1="733.75" y1="464" x2="733.75" y2="468" stroke="#9fb3c8" />
<text x="733.75" y="482.00" font-size="11" font-family="Arial" fill="#52606d" text-anchor="middle">05/04</text>
<line x1="904.00" y1="464" x2="904.00" y2="468" stroke="#9fb3c8" />
<text x="904.00" y="482.00" font-size="11" font-family="Arial" fill="#52606d" text-anchor="middle">07/16</text>
<polyline fill="none" stroke="#7f7f7f" stroke-width="2" points="56.00,430.07 59.27,426.29 62.55,426.29 65.82,425.03 69.10,417.47 72.37,428.10 75.64,424.11 78.92,429.43 82.19,428.77 85.47,436.74 88.74,434.75 92.02,436.08 95.29,439.40 98.56,428.77 101.84,430.10 105.11,425.44 108.39,426.11 111.66,423.45 114.93,426.11 118.21,429.43 121.48,431.42 124.76,435.41 128.03,428.77 131.31,429.43 134.58,429.43 137.85,434.08 141.13,438.07 144.40,436.74 147.68,440.73 150.95,430.10 154.22,428.10 157.50,428.77 160.77,427.44 164.05,425.44 167.32,420.79 170.59,422.78 173.87,422.12 177.14,416.14 180.42,415.47 183.69,417.47 186.97,418.80 190.24,426.11 193.51,416.80 196.79,421.46 200.06,416.14 203.34,424.11 206.61,429.43 209.88,431.42 213.16,436.74 216.43,429.43 219.71,423.45 222.98,423.45 226.25,419.46 229.53,416.14 232.80,421.46 236.08,419.46 239.35,414.14 242.63,417.47 245.90,410.16 249.17,410.82 252.45,406.17 255.72,408.83 259.00,413.48 262.27,410.16 265.54,406.83 268.82,405.51 272.09,406.83 275.37,408.83 278.64,412.82 281.92,409.49 285.19,411.49 288.46,413.48 291.74,413.48 295.01,412.15 298.29,411.49 301.56,404.18 304.83,411.49 308.11,410.16 311.38,404.18 314.66,408.16 317.93,412.15 321.20,411.49 324.48,408.83 327.75,408.83 331.03,408.83 334.30,408.83 337.58,414.81 340.85,414.81 344.12,416.14 347.40,420.13 350.67,420.79 353.95,416.14 357.22,419.46 360.49,415.47 363.77,423.45 367.04,421.46 370.32,414.81 373.59,414.14 376.86,407.50 380.14,406.83 383.41,411.49 386.69,414.81 389.96,418.80 393.24,415.47 396.51,422.78 399.78,410.16 403.06,412.82 406.33,408.16 409.61,408.16 412.88,418.80 416.15,414.81 419.43,402.85 422.70,396.20 425.98,386.90 429.25,388.89 432.53,386.90 435.80,385.57 439.07,390.22 442.35,385.57 445.62,379.59 448.90,379.59 452.17,378.92 455.44,358.98 458.72,351.01 461.99,343.70 465.27,337.05 468.54,335.72 471.81,341.04 475.09,348.35 478.36,340.37 481.64,339.05 484.91,341.70 488.19,345.69 491.46,337.05 494.73,340.37 498.01,343.03 501.28,337.72 504.56,341.04 507.83,339.71 511.10,331.07 514.38,349.01 517.65,345.69 520.93,339.05 524.20,331.07 527.47,336.39 530.75,342.37 534.02,343.03 537.30,336.39 540.57,333.06 543.85,341.04 547.12,341.70 550.39,337.72 553.67,344.36 556.94,351.67 560.22,349.01 563.49,339.05 566.76,340.37 570.04,342.37 573.31,332.40 576.59,327.75 579.86,321.77 583.14,316.45 586.41,325.75 589.68,334.39 592.96,315.78 596.23,327.75 599.51,329.74 602.78,358.98 606.05,356.32 609.33,360.31 612.60,380.25 615.88,372.94 619.15,368.29 622.42,363.64 625.70,368.95 628.97,364.30 632.25,358.98 635.52,357.65 638.80,369.62 642.07,366.96 645.34,368.95 648.62,374.93 651.89,370.95 655.17,374.93 658.44,376.26 661.71,377.59 664.99,378.26 668.26,367.62 671.54,368.29 674.81,367.62 678.08,355.00 681.36,356.32 684.63,360.98 687.91,366.96 691.18,362.31 694.46,360.98 697.73,352.34 701.00,347.02 704.28,349.68 707.55,343.70 710.83,341.04 714.10,348.35 717.37,347.68 720.65,350.34 723.92,349.01 727.20,323.09 730.47,332.40 733.75,339.05 737.02,332.40 740.29,322.43 743.57,320.44 746.84,313.79 750.12,324.42 753.39,337.72 756.66,331.73 759.94,335.72 763.21,327.75 766.49,335.06 769.76,328.41 773.03,327.75 776.31,322.43 779.58,315.78 782.86,303.82 786.13,293.19 789.41,277.90 792.68,281.89 795.95,275.91 799.23,259.29 802.50,252.65 805.78,235.37 809.05,218.09 812.32,180.87 815.60,214.10 818.87,154.29 822.15,181.53 825.42,177.55 828.69,177.55 831.97,154.29 835.24,117.73 838.52,91.15 841.79,77.86 845.07,94.47 848.34,91.15 851.61,114.41 854.89,104.44 858.16,140.99 861.44,170.90 864.71,168.84 867.98,191.55 871.26,201.88 874.53,201.19 877.81,202.56 881.08,177.78 884.36,170.90 887.63,182.60 890.90,182.60 894.18,179.85 897.45,183.98 900.73,180.54 904.00,175.72" />
<text x="780.00" y="60.00" font-size="14" font-family="Arial" fill="#7f7f7f" text-anchor="start">BuyHold</text>
<polyline fill="none" stroke="#1f77b4" stroke-width="2" points="56.00,430.07 59.27,430.07 62.55,430.07 65.82,430.07 69.10,430.07 72.37,430.07 75.64,430.07 78.92,430.07 82.19,430.07 85.47,430.07 88.74,430.07 92.02,430.07 95.29,430.07 98.56,430.07 101.84,430.07 105.11,430.07 108.39,430.07 111.66,430.07 114.93,430.07 118.21,430.07 121.48,430.07 124.76,430.07 128.03,430.07 131.31,430.07 134.58,430.07 137.85,430.07 141.13,430.07 144.40,430.07 147.68,430.07 150.95,430.07 154.22,430.07 157.50,430.07 160.77,430.07 164.05,430.07 167.32,430.07 170.59,430.07 173.87,430.07 177.14,430.07 180.42,430.07 183.69,430.07 186.97,430.07 190.24,430.07 193.51,430.07 196.79,430.07 200.06,430.07 203.34,430.07 206.61,430.07 209.88,430.07 213.16,430.07 216.43,430.07 219.71,430.07 222.98,430.07 226.25,430.07 229.53,430.07 232.80,430.07 236.08,430.07 239.35,430.07 242.63,430.07 245.90,430.07 249.17,430.07 252.45,430.07 255.72,430.07 259.00,430.07 262.27,430.07 265.54,430.07 268.82,430.07 272.09,430.07 275.37,430.07 278.64,430.07 281.92,430.07 285.19,430.07 288.46,430.07 291.74,430.07 295.01,430.07 298.29,430.07 301.56,430.07 304.83,430.07 308.11,430.07 311.38,430.07 314.66,430.07 317.93,430.07 321.20,430.07 324.48,430.07 327.75,430.07 331.03,430.07 334.30,430.07 337.58,430.07 340.85,430.07 344.12,430.07 347.40,430.07 350.67,430.07 353.95,430.07 357.22,430.07 360.49,430.07 363.77,430.07 367.04,430.07 370.32,430.07 373.59,430.07 376.86,430.07 380.14,430.07 383.41,430.07 386.69,430.07 389.96,430.07 393.24,430.07 396.51,430.07 399.78,430.07 403.06,430.07 406.33,430.07 409.61,430.07 412.88,430.07 416.15,430.07 419.43,430.07 422.70,430.07 425.98,430.07 429.25,430.07 432.53,430.07 435.80,430.07 439.07,430.07 442.35,430.07 445.62,430.07 448.90,430.07 452.17,430.07 455.44,430.07 458.72,430.07 461.99,430.07 465.27,430.07 468.54,430.07 471.81,430.07 475.09,430.07 478.36,430.07 481.64,430.07 484.91,430.07 488.19,430.07 491.46,430.07 494.73,430.07 498.01,430.07 501.28,430.07 504.56,430.07 507.83,430.07 511.10,430.07 514.38,430.07 517.65,430.07 520.93,430.07 524.20,430.07 527.47,430.07 530.75,430.07 534.02,430.07 537.30,430.07 540.57,430.07 543.85,430.07 547.12,430.07 550.39,430.07 553.67,430.07 556.94,430.07 560.22,430.07 563.49,430.07 566.76,430.07 570.04,430.07 573.31,430.07 576.59,430.07 579.86,430.07 583.14,430.07 586.41,430.07 589.68,430.07 592.96,430.07 596.23,430.07 599.51,430.07 602.78,430.07 606.05,430.07 609.33,430.07 612.60,430.07 615.88,430.07 619.15,430.07 622.42,430.07 625.70,430.07 628.97,430.07 632.25,430.07 635.52,430.07 638.80,430.07 642.07,430.07 645.34,430.07 648.62,430.07 651.89,430.07 655.17,430.07 658.44,430.07 661.71,430.07 664.99,430.07 668.26,430.07 671.54,430.07 674.81,430.07 678.08,430.07 681.36,430.07 684.63,430.07 687.91,430.07 691.18,430.07 694.46,430.07 697.73,430.07 701.00,430.07 704.28,430.07 707.55,430.07 710.83,427.87 714.10,433.93 717.37,433.38 720.65,435.58 723.92,434.48 727.20,413.02 730.47,420.72 733.75,426.22 737.02,420.72 740.29,412.47 743.57,410.82 746.84,405.32 750.12,414.12 753.39,425.12 756.66,420.17 759.94,423.47 763.21,416.87 766.49,422.92 769.76,417.42 773.03,416.87 776.31,412.47 779.58,406.97 782.86,397.06 786.13,388.26 789.41,375.61 792.68,378.91 795.95,373.96 799.23,360.20 802.50,354.70 805.78,340.39 809.05,326.09 812.32,295.28 815.60,322.79 818.87,273.27 822.15,295.83 825.42,292.53 828.69,292.53 831.97,273.27 835.24,243.01 838.52,221.00 841.79,210.00 845.07,223.75 848.34,221.00 851.61,240.26 854.89,232.01 858.16,262.27 861.44,287.02 864.71,285.32 867.98,304.12 871.26,312.67 874.53,312.10 877.81,313.24 881.08,292.72 884.36,287.02 887.63,296.71 890.90,296.71 894.18,294.43 897.45,297.85 900.73,295.00 904.00,291.01" />
<text x="780.00" y="82.00" font-size="14" font-family="Arial" fill="#1f77b4" text-anchor="start">MA200</text>
<polyline fill="none" stroke="#2ca02c" stroke-width="2" points="56.00,430.07 59.27,430.07 62.55,430.07 65.82,430.07 69.10,430.07 72.37,430.07 75.64,430.07 78.92,430.07 82.19,430.07 85.47,430.07 88.74,430.07 92.02,430.07 95.29,430.07 98.56,430.07 101.84,430.07 105.11,430.07 108.39,430.07 111.66,430.07 114.93,430.07 118.21,430.07 121.48,430.07 124.76,430.07 128.03,430.07 131.31,430.07 134.58,430.07 137.85,430.07 141.13,430.07 144.40,430.07 147.68,430.07 150.95,430.07 154.22,430.07 157.50,430.07 160.77,430.07 164.05,430.07 167.32,430.07 170.59,430.07 173.87,430.07 177.14,430.07 180.42,430.07 183.69,430.07 186.97,430.07 190.24,430.07 193.51,430.07 196.79,430.07 200.06,430.07 203.34,430.07 206.61,430.07 209.88,430.07 213.16,430.07 216.43,430.07 219.71,430.07 222.98,430.07 226.25,430.07 229.53,430.07 232.80,430.07 236.08,430.07 239.35,430.07 242.63,430.07 245.90,430.07 249.17,430.07 252.45,425.63 255.72,428.17 259.00,432.62 262.27,429.44 265.54,426.26 268.82,424.99 272.09,426.26 275.37,428.17 278.64,431.98 281.92,428.80 285.19,430.71 288.46,432.62 291.74,432.62 295.01,431.35 298.29,430.71 301.56,423.72 304.83,430.71 308.11,429.44 311.38,423.72 314.66,427.53 317.93,431.35 321.20,430.71 324.48,428.17 327.75,428.17 331.03,428.17 334.30,428.17 337.58,433.89 340.85,433.89 344.12,435.16 347.40,438.97 350.67,439.60 353.95,435.16 357.22,438.33 360.49,434.52 363.77,442.14 367.04,440.24 370.32,433.89 373.59,433.25 376.86,426.90 380.14,426.26 383.41,430.71 386.69,433.89 389.96,437.70 393.24,437.70 396.51,437.70 399.78,437.70 403.06,437.70 406.33,437.70 409.61,437.70 412.88,437.70 416.15,437.70 419.43,437.70 422.70,437.70 425.98,437.70 429.25,439.47 432.53,437.70 435.80,436.51 439.07,440.65 442.35,436.51 445.62,431.20 448.90,431.20 452.17,430.61 455.44,412.88 458.72,405.78 461.99,399.28 465.27,393.37 468.54,392.19 471.81,396.92 475.09,403.42 478.36,396.33 481.64,395.15 484.91,397.51 488.19,401.06 491.46,393.37 494.73,396.33 498.01,398.69 501.28,393.96 504.56,396.92 507.83,395.74 511.10,388.05 514.38,404.01 517.65,401.06 520.93,395.15 524.20,388.05 527.47,392.78 530.75,398.10 534.02,398.69 537.30,392.78 540.57,389.83 543.85,396.92 547.12,397.51 550.39,393.96 553.67,399.87 556.94,406.38 560.22,404.01 563.49,395.15 566.76,396.33 570.04,398.10 573.31,389.24 576.59,385.10 579.86,379.78 583.14,375.05 586.41,383.33 589.68,391.01 592.96,374.46 596.23,385.10 599.51,386.87 602.78,412.88 606.05,410.51 609.33,414.06 612.60,431.79 615.88,425.29 619.15,421.15 622.42,417.01 625.70,421.74 628.97,417.60 632.25,412.88 635.52,411.69 638.80,411.69 642.07,411.69 645.34,411.69 648.62,411.69 651.89,411.69 655.17,411.69 658.44,411.69 661.71,411.69 664.99,411.69 668.26,411.69 671.54,411.69 674.81,411.69 678.08,411.69 681.36,411.69 684.63,411.69 687.91,411.69 691.18,411.69 694.46,411.69 697.73,411.69 701.00,411.69 704.28,411.69 707.55,411.69 710.83,411.69 714.10,411.69 717.37,411.69 720.65,411.69 723.92,411.69 727.20,411.69 730.47,411.69 733.75,411.69 737.02,406.00 740.29,397.46 743.57,395.75 746.84,390.06 750.12,399.17 753.39,410.56 756.66,405.43 759.94,408.85 763.21,402.02 766.49,408.28 769.76,402.59 773.03,402.02 776.31,397.46 779.58,391.77 782.86,381.52 786.13,372.41 789.41,359.32 792.68,362.74 795.95,357.61 799.23,343.38 802.50,337.69 805.78,322.89 809.05,308.09 812.32,276.21 815.60,304.67 818.87,253.44 822.15,276.78 825.42,273.36 828.69,273.36 831.97,253.44 835.24,222.13 838.52,199.36 841.79,187.97 845.07,202.21 848.34,199.36 851.61,219.28 854.89,210.74 858.16,242.05 861.44,267.67 864.71,265.90 867.98,285.36 871.26,294.20 874.53,293.61 877.81,294.79 881.08,273.57 884.36,267.67 887.63,277.69 890.90,277.69 894.18,275.34 897.45,278.87 900.73,275.93 904.00,271.80" />
<text x="780.00" y="104.00" font-size="14" font-family="Arial" fill="#2ca02c" text-anchor="start">MA20x60</text>
</svg>