<svg xmlns="http://www.w3.org/2000/svg" width="960" height="520" viewBox="0 0 960 520"><rect width="100%" height="100%" fill="white" />
<text x="56.00" y="32.00" font-size="20" font-family="Arial" fill="#1f2933" text-anchor="start">奇鋐(3017) Backtest Equity Curves</text>
<line x1="56" y1="464" x2="904" y2="464" stroke="#cbd2d9" />
<line x1="56" y1="56" x2="56" y2="464" stroke="#cbd2d9" />
<text x="16.00" y="38.00" font-size="12" font-family="Arial" fill="#52606d" text-anchor="start">Equity Multiple</text>
<line x1="56" y1="464.00" x2="904" y2="464.00" stroke="#edf2f7" />
<line x1="52" y1="464.00" x2="56" y2="464.00" stroke="#9fb3c8" />
<text x="48.00" y="468.00" font-size="11" font-family="Arial" fill="#52606d" text-anchor="end">0.57</text>
<line x1="56" y1="362.00" x2="904" y2="362.00" stroke="#edf2f7" />
<line x1="52" y1="362.00" x2="56" y2="362.00" stroke="#9fb3c8" />
<text x="48.00" y="366.00" font-size="11" font-family="Arial" fill="#52606d" text-anchor="end">1.47</text>
<line x1="56" y1="260.00" x2="904" y2="260.00" stroke="#edf2f7" />
<line x1="52" y1="260.00" x2="56" y2="260.00" stroke="#9fb3c8" />
<text x="48.00" y="264.00" font-size="11" font-family="Arial" fill="#52606d" text-anchor="end">2.38</text>
<line x1="56" y1="158.00" x2="904" y2="158.00" stroke="#edf2f7" />
<line x1="52" y1="158.00" x2="56" y2="158.00" stroke="#9fb3c8" />
<text x="48.00" y="162.00" font-size="11" font-family="Arial" fill="#52606d" text-anchor="end">3.29</text>
<line x1="56" y1="56.00" x2="904" y2="56.00" stroke="#edf2f7" />
<line x1="52" y1="56.00" x2="56" y2="56.00" stroke="#9fb3c8" />
<text x="48.00" y="60.00" font-size="11" font-family="Arial" fill="#52606d" text-anchor="end">4.19</text>
<line x1="56.00" y1="464" x2="56.00" y2="468" stroke="#9fb3c8" />
<text x="56.00" y="482.00" font-size="11" font-family="Arial" fill="#52606d" text-anchor="middle">06/30</text>
<line x1="226.25" y1="464" x2="226.25" y2="468" stroke="#9fb3c8" />
<text x="226.25" y="482.00" font-size="11" font-family="Arial" fill="#52606d" text-anchor="middle">09/11</text>
<line x1="396.51" y1="464" x2="396.51" y2="468" stroke="#9fb3c8" />
<text x="396.51" y="482.00" font-size="11" font-family="Arial" fill="#52606d" text-anchor="middle">11/28</text>
<line x1="563.49" y1="464" x2="563.49" y2="468" stroke="#9fb3c8" />
<text x="563.49" y="482.00" font-size="11" font-family="Arial" fill="#52606d" text-anchor="middle">02/11</text>
<line x1="733.75" y1="464" x2="733.75" y2="468" stroke="#9fb3c8" />
<text x="733.75" y="482.00" font-size="11" font-family="Arial" fill="#52606d" text-anchor="middle">05/11</text>
<line x1="904.00" y1="464" x2="904.00" y2="468" stroke="#9fb3c8" />
<text x="904.00" y="482.00" font-size="11" font-family="Arial" fill="#52606d" text-anchor="middle">07/23</text>
<polyline fill="none" stroke="#7f7f7f" stroke-width="2" points="56.00,415.41 59.27,413.60 62.55,412.99 65.82,409.35 69.10,410.26 72.37,412.54 75.64,407.54 78.92,405.11 82.19,399.96 85.47,402.69 88.74,402.38 92.02,398.75 95.29,399.50 98.56,400.11 101.84,392.99 105.11,395.87 108.39,398.90 111.66,400.11 114.93,398.29 118.21,399.35 121.48,395.72 124.76,394.96 128.03,395.87 131.31,388.14 134.58,386.47 137.85,379.96 141.13,375.72 144.40,372.69 147.68,362.84 150.95,364.35 154.22,362.84 157.50,358.29 160.77,365.11 164.05,365.87 167.32,354.50 170.59,364.45 173.87,374.38 177.14,367.51 180.42,370.56 183.69,365.98 186.97,371.33 190.24,367.51 193.51,372.86 196.79,373.62 200.06,384.17 203.34,382.94 206.61,384.93 209.88,385.08 213.16,383.71 216.43,380.65 219.71,381.11 222.98,378.36 226.25,371.33 229.53,367.51 232.80,368.27 236.08,369.03 239.35,374.38 242.63,366.74 245.90,369.03 249.17,372.86 252.45,372.86 255.72,376.06 259.00,381.26 262.27,384.17 265.54,378.05 268.82,371.33 272.09,359.86 275.37,349.93 278.64,352.22 281.92,352.98 285.19,349.16 288.46,350.69 291.74,351.46 295.01,341.52 298.29,345.34 301.56,352.22 304.83,353.75 308.11,351.46 311.38,348.40 314.66,349.16 317.93,346.11 321.20,329.29 324.48,324.71 327.75,312.48 331.03,310.19 334.30,299.49 337.58,308.66 340.85,307.13 344.12,299.49 347.40,304.07 350.67,291.08 353.95,292.61 357.22,297.96 360.49,299.49 363.77,310.95 367.04,310.95 370.32,318.59 373.59,323.18 376.86,323.94 380.14,338.46 383.41,337.70 386.69,327.00 389.96,316.30 393.24,314.77 396.51,317.83 399.78,323.18 403.06,327.00 406.33,320.89 409.61,325.47 412.88,316.30 416.15,316.30 419.43,312.48 422.70,310.19 425.98,309.42 429.25,310.19 432.53,317.07 435.80,322.42 439.07,323.18 442.35,320.12 445.62,306.37 448.90,302.54 452.17,297.19 455.44,298.72 458.72,295.67 461.99,291.85 465.27,294.14 468.54,297.19 471.81,305.60 475.09,306.37 478.36,310.19 481.64,317.83 484.91,320.89 488.19,317.83 491.46,320.89 494.73,322.42 498.01,310.95 501.28,317.07 504.56,320.12 507.83,332.35 511.10,330.06 514.38,332.35 517.65,320.89 520.93,317.83 524.20,318.59 527.47,310.95 530.75,304.07 534.02,299.49 537.30,304.84 540.57,300.25 543.85,278.09 547.12,271.97 550.39,278.85 553.67,284.20 556.94,283.44 560.22,280.38 563.49,282.67 566.76,295.67 570.04,291.08 573.31,271.97 576.59,258.22 579.86,258.22 583.14,253.63 586.41,260.51 589.68,249.81 592.96,245.99 596.23,273.50 599.51,268.92 602.78,243.70 606.05,241.41 609.33,242.93 612.60,248.28 615.88,236.82 619.15,245.23 622.42,220.01 625.70,214.66 628.97,223.06 632.25,230.71 635.52,207.01 638.80,180.27 642.07,192.49 645.34,201.66 648.62,223.83 651.89,205.49 655.17,211.60 658.44,217.71 661.71,187.14 664.99,186.38 668.26,181.79 671.54,191.73 674.81,174.92 678.08,172.62 681.36,155.05 684.63,161.16 687.91,147.40 691.18,135.94 694.46,116.07 697.73,118.36 701.00,77.86 704.28,94.67 707.55,103.08 710.83,94.67 714.10,94.67 717.37,87.03 720.65,114.54 723.92,155.81 727.20,158.87 730.47,154.28 733.75,137.47 737.02,142.82 740.29,132.88 743.57,137.47 746.84,152.75 750.12,159.63 753.39,162.69 756.66,170.33 759.94,146.64 763.21,139.00 766.49,134.41 769.76,111.48 773.03,115.31 776.31,133.65 779.58,120.65 782.86,102.31 786.13,115.31 789.41,91.61 792.68,113.78 795.95,130.59 799.23,135.18 802.50,139.00 805.78,167.27 809.05,171.09 812.32,160.40 815.60,159.63 818.87,165.75 822.15,166.51 825.42,161.16 828.69,158.10 831.97,157.34 835.24,141.29 838.52,145.11 841.79,183.32 845.07,176.44 848.34,142.05 851.61,127.53 854.89,109.19 858.16,106.13 861.44,119.89 864.71,153.52 867.98,172.62 871.26,168.80 874.53,168.80 877.81,187.91 881.08,203.96 884.36,197.08 887.63,187.91 890.90,191.73 894.18,201.66 897.45,173.39 900.73,181.79 904.00,155.05" />
<text x="780.00" y="60.00" font-size="14" font-family="Arial" fill="#7f7f7f" text-anchor="start">BuyHold</text>
<polyline fill="none" stroke="#1f77b4" stroke-width="2" points="56.00,415.41 59.27,415.41 62.55,415.41 65.82,415.41 69.10,415.41 72.37,415.41 75.64,415.41 78.92,415.41 82.19,415.41 85.47,415.41 88.74,415.41 92.02,415.41 95.29,415.41 98.56,415.41 101.84,415.41 105.11,415.41 108.39,415.41 111.66,415.41 114.93,415.41 118.21,415.41 121.48,415.41 124.76,415.41 128.03,415.41 131.31,415.41 134.58,415.41 137.85,415.41 141.13,415.41 144.40,415.41 147.68,415.41 150.95,415.41 154.22,415.41 157.50,415.41 160.77,415.41 164.05,415.41 167.32,415.41 170.59,415.41 173.87,415.41 177.14,415.41 180.42,415.41 183.69,415.41 186.97,415.41 190.24,415.41 193.51,415.41 196.79,415.41 200.06,415.41 203.34,415.41 206.61,415.41 209.88,415.41 213.16,415.41 216.43,415.41 219.71,415.41 222.98,415.41 226.25,415.41 229.53,415.41 232.80,415.41 236.08,415.41 239.35,415.41 242.63,415.41 245.90,415.41 249.17,415.41 252.45,415.41 255.72,415.41 259.00,415.41 262.27,415.41 265.54,415.41 268.82,415.41 272.09,415.41 275.37,415.41 278.64,415.41 281.92,415.41 285.19,415.41 288.46,415.41 291.74,415.41 295.01,415.41 298.29,415.41 301.56,415.41 304.83,415.41 308.11,415.41 311.38,415.41 314.66,415.41 317.93,415.41 321.20,415.41 324.48,415.41 327.75,415.41 331.03,415.41 334.30,415.41 337.58,415.41 340.85,415.41 344.12,415.41 347.40,415.41 350.67,415.41 353.95,415.41 357.22,415.41 360.49,415.41 363.77,415.41 367.04,415.41 370.32,415.41 373.59,415.41 376.86,415.41 380.14,415.41 383.41,415.41 386.69,415.41 389.96,415.41 393.24,415.41 396.51,415.41 399.78,415.41 403.06,415.41 406.33,415.41 409.61,415.41 412.88,415.41 416.15,415.41 419.43,415.41 422.70,415.41 425.98,415.41 429.25,415.41 432.53,415.41 435.80,415.41 439.07,415.41 442.35,415.41 445.62,415.41 448.90,415.41 452.17,415.41 455.44,415.41 458.72,415.41 461.99,415.41 465.27,415.41 468.54,415.41 471.81,415.41 475.09,415.41 478.36,415.41 481.64,415.41 484.91,415.41 488.19,415.41 491.46,415.41 494.73,415.41 498.01,415.41 501.28,415.41 504.56,415.41 507.83,415.41 511.10,415.41 514.38,415.41 517.65,415.41 520.93,415.41 524.20,415.41 527.47,415.41 530.75,415.41 534.02,415.41 537.30,415.41 540.57,415.41 543.85,415.41 547.12,415.41 550.39,415.41 553.67,415.41 556.94,415.41 560.22,415.41 563.49,415.41 566.76,415.41 570.04,415.41 573.31,415.41 576.59,415.41 579.86,415.41 583.14,415.41 586.41,415.41 589.68,415.41 592.96,415.41 596.23,415.41 599.51,415.41 602.78,415.41 606.05,415.41 609.33,415.41 612.60,415.41 615.88,415.41 619.15,415.41 622.42,415.41 625.70,415.41 628.97,415.41 632.25,415.41 635.52,415.41 638.80,415.41 642.07,415.41 645.34,415.41 648.62,415.41 651.89,415.41 655.17,415.41 658.44,415.41 661.71,415.41 664.99,415.41 668.26,415.41 671.54,415.41 674.81,415.41 678.08,415.41 681.36,415.41 684.63,415.41 687.91,415.41 691.18,415.41 694.46,415.41 697.73,415.41 701.00,415.41 704.28,415.41 707.55,415.41 710.83,413.19 714.10,413.19 717.37,411.16 720.65,418.45 723.92,429.39 727.20,430.20 730.47,428.98 733.75,424.53 737.02,425.94 740.29,423.31 743.57,424.53 746.84,428.58 750.12,430.40 753.39,431.21 756.66,433.23 759.94,426.96 763.21,424.93 766.49,423.72 769.76,417.64 773.03,418.65 776.31,423.51 779.58,420.07 782.86,415.21 786.13,418.65 789.41,412.38 792.68,418.25 795.95,422.70 799.23,423.92 802.50,424.93 805.78,432.42 809.05,433.44 812.32,430.60 815.60,430.40 818.87,432.02 822.15,432.22 825.42,430.80 828.69,429.99 831.97,429.79 835.24,425.54 838.52,426.55 841.79,436.68 845.07,434.85 848.34,425.74 851.61,421.89 854.89,417.03 858.16,416.22 861.44,419.87 864.71,428.78 867.98,433.84 871.26,432.83 874.53,432.83 877.81,437.89 881.08,442.14 884.36,440.32 887.63,437.89 890.90,438.90 894.18,441.54 897.45,434.04 900.73,436.27 904.00,429.18" />
<text x="780.00" y="82.00" font-size="14" font-family="Arial" fill="#1f77b4" text-anchor="start">MA200</text>
<polyline fill="none" stroke="#2ca02c" stroke-width="2" points="56.00,415.41 59.27,415.41 62.55,415.41 65.82,415.41 69.10,415.41 72.37,415.41 75.64,415.41 78.92,415.41 82.19,415.41 85.47,415.41 88.74,415.41 92.02,415.41 95.29,415.41 98.56,415.41 101.84,415.41 105.11,415.41 108.39,415.41 111.66,415.41 114.93,415.41 118.21,415.41 121.48,415.41 124.76,415.41 128.03,415.41 131.31,415.41 134.58,415.41 137.85,415.41 141.13,415.41 144.40,415.41 147.68,415.41 150.95,415.41 154.22,415.41 157.50,415.41 160.77,415.41 164.05,415.41 167.32,415.41 170.59,415.41 173.87,415.41 177.14,415.41 180.42,415.41 183.69,415.41 186.97,415.41 190.24,415.41 193.51,415.41 196.79,415.41 200.06,415.41 203.34,415.41 206.61,415.41 209.88,415.41 213.16,415.41 216.43,415.41 219.71,415.41 222.98,415.41 226.25,415.41 229.53,415.41 232.80,415.41 236.08,415.41 239.35,415.41 242.63,415.41 245.90,415.41 249.17,415.41 252.45,415.41 255.72,417.74 259.00,421.52 262.27,423.62 265.54,419.19 268.82,414.31 272.09,405.99 275.37,398.78 278.64,400.44 281.92,401.00 285.19,398.22 288.46,399.33 291.74,399.89 295.01,392.68 298.29,395.45 301.56,400.44 304.83,401.55 308.11,399.89 311.38,397.67 314.66,398.22 317.93,396.00 321.20,383.80 324.48,380.48 327.75,371.60 331.03,369.94 334.30,362.17 337.58,368.83 340.85,367.72 344.12,362.17 347.40,365.50 350.67,356.07 353.95,357.18 357.22,361.07 360.49,362.17 363.77,370.49 367.04,370.49 370.32,376.04 373.59,379.37 376.86,379.92 380.14,390.46 383.41,389.90 386.69,382.14 389.96,374.38 393.24,373.27 396.51,375.48 399.78,379.37 403.06,382.14 406.33,377.70 409.61,381.03 412.88,374.38 416.15,374.38 419.43,371.60 422.70,369.94 425.98,369.38 429.25,369.94 432.53,374.93 435.80,378.81 439.07,379.37 442.35,377.15 445.62,367.17 448.90,364.39 452.17,360.51 455.44,361.62 458.72,359.40 461.99,356.63 465.27,358.29 468.54,360.51 471.81,366.61 475.09,367.17 478.36,369.94 481.64,375.48 484.91,377.70 488.19,375.48 491.46,377.70 494.73,378.81 498.01,370.49 501.28,374.93 504.56,377.15 507.83,386.02 511.10,384.36 514.38,386.02 517.65,377.70 520.93,375.48 524.20,375.48 527.47,375.48 530.75,375.48 534.02,375.48 537.30,375.48 540.57,375.48 543.85,375.48 547.12,375.48 550.39,379.58 553.67,382.77 556.94,382.31 560.22,380.49 563.49,381.86 566.76,389.60 570.04,386.87 573.31,375.48 576.59,367.29 579.86,367.29 583.14,364.56 586.41,368.66 589.68,362.28 592.96,360.01 596.23,376.39 599.51,373.66 602.78,358.64 606.05,357.27 609.33,358.18 612.60,361.37 615.88,354.54 619.15,359.55 622.42,344.53 625.70,341.34 628.97,346.35 632.25,350.90 635.52,336.79 638.80,320.85 642.07,328.14 645.34,333.60 648.62,346.80 651.89,335.88 655.17,339.52 658.44,343.16 661.71,324.95 664.99,324.50 668.26,321.76 671.54,327.68 674.81,317.67 678.08,316.30 681.36,305.83 684.63,309.47 687.91,301.28 691.18,294.45 694.46,282.61 697.73,283.98 701.00,259.85 704.28,269.86 707.55,274.87 710.83,269.86 714.10,269.86 717.37,265.31 720.65,281.70 723.92,306.28 727.20,308.11 730.47,305.37 733.75,295.36 737.02,298.55 740.29,292.63 743.57,295.36 746.84,304.46 750.12,308.56 753.39,310.38 756.66,314.93 759.94,300.82 763.21,296.27 766.49,293.54 769.76,279.88 773.03,282.16 776.31,293.08 779.58,285.34 782.86,274.42 786.13,282.16 789.41,268.04 792.68,281.25 795.95,291.26 799.23,293.99 802.50,296.27 805.78,313.11 809.05,315.39 812.32,309.02 815.60,308.56 818.87,312.20 822.15,312.66 825.42,309.47 828.69,307.65 831.97,307.20 835.24,297.63 838.52,299.91 841.79,322.67 845.07,318.58 848.34,318.58 851.61,318.58 854.89,318.58 858.16,318.58 861.44,318.58 864.71,318.58 867.98,318.58 871.26,318.58 874.53,318.58 877.81,318.58 881.08,318.58 884.36,318.58 887.63,318.58 890.90,318.58 894.18,318.58 897.45,318.58 900.73,318.58 904.00,318.58" />
<text x="780.00" y="104.00" font-size="14" font-family="Arial" fill="#2ca02c" text-anchor="start">MA20x60</text>
</svg>