<svg xmlns="http://www.w3.org/2000/svg" width="960" height="520" viewBox="0 0 960 520"><rect width="100%" height="100%" fill="white" />
<text x="56.00" y="32.00" font-size="20" font-family="Arial" fill="#1f2933" text-anchor="start">富邦科技(0052) Backtest Equity Curves</text>
<line x1="56" y1="464" x2="904" y2="464" stroke="#cbd2d9" />
<line x1="56" y1="56" x2="56" y2="464" stroke="#cbd2d9" />
<text x="16.00" y="38.00" font-size="12" font-family="Arial" fill="#52606d" text-anchor="start">Equity Multiple</text>
<line x1="56" y1="464.00" x2="904" y2="464.00" stroke="#edf2f7" />
<line x1="52" y1="464.00" x2="56" y2="464.00" stroke="#9fb3c8" />
<text x="48.00" y="468.00" font-size="11" font-family="Arial" fill="#52606d" text-anchor="end">0.08</text>
<line x1="56" y1="362.00" x2="904" y2="362.00" stroke="#edf2f7" />
<line x1="52" y1="362.00" x2="56" y2="362.00" stroke="#9fb3c8" />
<text x="48.00" y="366.00" font-size="11" font-family="Arial" fill="#52606d" text-anchor="end">0.42</text>
<line x1="56" y1="260.00" x2="904" y2="260.00" stroke="#edf2f7" />
<line x1="52" y1="260.00" x2="56" y2="260.00" stroke="#9fb3c8" />
<text x="48.00" y="264.00" font-size="11" font-family="Arial" fill="#52606d" text-anchor="end">0.77</text>
<line x1="56" y1="158.00" x2="904" y2="158.00" stroke="#edf2f7" />
<line x1="52" y1="158.00" x2="56" y2="158.00" stroke="#9fb3c8" />
<text x="48.00" y="162.00" font-size="11" font-family="Arial" fill="#52606d" text-anchor="end">1.12</text>
<line x1="56" y1="56.00" x2="904" y2="56.00" stroke="#edf2f7" />
<line x1="52" y1="56.00" x2="56" y2="56.00" stroke="#9fb3c8" />
<text x="48.00" y="60.00" font-size="11" font-family="Arial" fill="#52606d" text-anchor="end">1.47</text>
<line x1="56.00" y1="464" x2="56.00" y2="468" stroke="#9fb3c8" />
<text x="56.00" y="482.00" font-size="11" font-family="Arial" fill="#52606d" text-anchor="middle">06/27</text>
<line x1="226.25" y1="464" x2="226.25" y2="468" stroke="#9fb3c8" />
<text x="226.25" y="482.00" font-size="11" font-family="Arial" fill="#52606d" text-anchor="middle">09/09</text>
<line x1="396.51" y1="464" x2="396.51" y2="468" stroke="#9fb3c8" />
<text x="396.51" y="482.00" font-size="11" font-family="Arial" fill="#52606d" text-anchor="middle">11/26</text>
<line x1="563.49" y1="464" x2="563.49" y2="468" stroke="#9fb3c8" />
<text x="563.49" y="482.00" font-size="11" font-family="Arial" fill="#52606d" text-anchor="middle">02/09</text>
<line x1="733.75" y1="464" x2="733.75" y2="468" stroke="#9fb3c8" />
<text x="733.75" y="482.00" font-size="11" font-family="Arial" fill="#52606d" text-anchor="middle">05/07</text>
<line x1="904.00" y1="464" x2="904.00" y2="468" stroke="#9fb3c8" />
<text x="904.00" y="482.00" font-size="11" font-family="Arial" fill="#52606d" text-anchor="middle">07/21</text>
<polyline fill="none" stroke="#7f7f7f" stroke-width="2" points="56.00,192.83 59.27,192.36 62.55,191.10 65.82,189.77 69.10,187.11 72.37,189.23 75.64,191.03 78.92,193.22 82.19,188.52 85.47,185.54 88.74,184.76 92.02,186.64 95.29,182.65 98.56,178.65 101.84,177.87 105.11,173.41 108.39,174.27 111.66,177.01 114.93,175.13 118.21,173.09 121.48,173.48 124.76,172.62 128.03,176.77 131.31,173.41 134.58,169.02 137.85,173.17 141.13,174.97 144.40,171.53 147.68,175.05 150.95,163.69 154.22,164.56 157.50,161.66 160.77,161.34 164.05,159.39 167.32,161.42 170.59,162.05 173.87,159.86 177.14,161.11 180.42,172.23 183.69,168.94 186.97,171.37 190.24,163.15 193.51,162.13 196.79,158.76 200.06,163.07 203.34,162.75 206.61,167.06 209.88,168.16 213.16,168.24 216.43,165.89 219.71,161.97 222.98,158.37 226.25,155.08 229.53,148.34 232.80,144.82 236.08,141.61 239.35,142.31 242.63,135.73 245.90,138.32 249.17,135.66 252.45,134.79 255.72,132.60 259.00,123.75 262.27,123.36 265.54,125.71 268.82,131.90 272.09,128.29 275.37,126.81 278.64,118.97 281.92,112.47 285.19,100.96 288.46,104.64 291.74,99.63 295.01,107.07 298.29,108.95 301.56,102.06 304.83,91.01 308.11,98.30 311.38,90.94 314.66,90.39 317.93,93.52 321.20,97.05 324.48,86.32 327.75,88.74 331.03,79.74 334.30,79.74 337.58,77.86 340.85,81.69 344.12,83.89 347.40,89.76 350.67,87.80 353.95,93.05 357.22,86.24 360.49,89.76 363.77,87.10 367.04,88.98 370.32,97.75 373.59,431.27 376.86,432.10 380.14,432.10 383.41,432.10 386.69,432.10 389.96,432.10 393.24,432.10 396.51,431.62 399.78,431.10 403.06,430.59 406.33,431.60 409.61,431.53 412.88,430.90 416.15,431.10 419.43,430.41 422.70,429.32 425.98,429.40 429.25,429.00 432.53,429.74 435.80,429.60 439.07,430.52 442.35,431.15 445.62,431.45 448.90,431.68 452.17,431.17 455.44,430.27 458.72,429.88 461.99,429.74 465.27,429.21 468.54,428.41 471.81,428.33 475.09,427.64 478.36,426.28 481.64,423.71 484.91,422.61 488.19,423.13 491.46,423.02 494.73,423.30 498.01,422.93 501.28,422.39 504.56,422.22 507.83,422.61 511.10,421.09 514.38,420.45 517.65,420.20 520.93,421.03 524.20,420.55 527.47,419.93 530.75,419.87 534.02,418.98 537.30,417.71 540.57,418.13 543.85,419.20 547.12,420.39 550.39,419.06 553.67,418.96 556.94,419.86 560.22,420.09 563.49,418.26 566.76,416.58 570.04,414.83 573.31,415.25 576.59,412.93 579.86,411.21 583.14,411.15 586.41,411.96 589.68,413.67 592.96,416.91 596.23,415.17 599.51,415.56 602.78,419.04 606.05,417.19 609.33,414.22 612.60,415.49 615.88,416.03 619.15,416.24 622.42,415.44 625.70,414.23 628.97,415.66 632.25,416.10 635.52,417.91 638.80,417.87 642.07,416.38 645.34,416.66 648.62,417.29 651.89,418.60 655.17,419.92 658.44,416.93 661.71,418.35 664.99,417.22 668.26,413.45 671.54,413.53 674.81,411.90 678.08,412.02 681.36,409.72 684.63,408.36 687.91,407.58 691.18,408.59 694.46,408.03 697.73,406.85 701.00,406.35 704.28,406.19 707.55,402.42 710.83,398.97 714.10,400.65 717.37,401.86 720.65,402.50 723.92,398.08 727.20,398.08 730.47,396.96 733.75,394.63 737.02,395.36 740.29,395.60 743.57,395.68 746.84,396.88 750.12,396.16 753.39,397.20 756.66,397.36 759.94,399.05 763.21,399.61 766.49,396.48 769.76,394.47 773.03,391.34 776.31,391.91 779.58,389.98 782.86,391.66 786.13,388.29 789.41,387.41 792.68,386.37 795.95,384.92 799.23,387.01 802.50,389.10 805.78,392.55 809.05,390.46 812.32,393.51 815.60,393.67 818.87,391.34 822.15,388.13 825.42,387.73 828.69,387.25 831.97,386.21 835.24,382.28 838.52,383.32 841.79,385.81 845.07,385.89 848.34,389.74 851.61,388.54 854.89,385.33 858.16,383.64 861.44,384.12 864.71,385.00 867.98,385.00 871.26,387.17 874.53,387.25 877.81,387.49 881.08,387.49 884.36,387.33 887.63,388.86 890.90,387.09 894.18,387.17 897.45,394.07 900.73,394.55 904.00,390.22" />
<text x="780.00" y="60.00" font-size="14" font-family="Arial" fill="#7f7f7f" text-anchor="start">BuyHold</text>
<polyline fill="none" stroke="#1f77b4" stroke-width="2" points="56.00,192.83 59.27,192.83 62.55,192.83 65.82,192.83 69.10,192.83 72.37,192.83 75.64,192.83 78.92,192.83 82.19,192.83 85.47,192.83 88.74,192.83 92.02,192.83 95.29,192.83 98.56,192.83 101.84,192.83 105.11,192.83 108.39,192.83 111.66,192.83 114.93,192.83 118.21,192.83 121.48,192.83 124.76,192.83 128.03,192.83 131.31,192.83 134.58,192.83 137.85,192.83 141.13,192.83 144.40,192.83 147.68,192.83 150.95,192.83 154.22,192.83 157.50,192.83 160.77,192.83 164.05,192.83 167.32,192.83 170.59,192.83 173.87,192.83 177.14,192.83 180.42,192.83 183.69,192.83 186.97,192.83 190.24,192.83 193.51,192.83 196.79,192.83 200.06,192.83 203.34,192.83 206.61,192.83 209.88,192.83 213.16,192.83 216.43,192.83 219.71,192.83 222.98,192.83 226.25,192.83 229.53,192.83 232.80,192.83 236.08,192.83 239.35,192.83 242.63,192.83 245.90,192.83 249.17,192.83 252.45,192.83 255.72,192.83 259.00,192.83 262.27,192.83 265.54,192.83 268.82,192.83 272.09,192.83 275.37,192.83 278.64,192.83 281.92,192.83 285.19,192.83 288.46,192.83 291.74,192.83 295.01,192.83 298.29,192.83 301.56,192.83 304.83,192.83 308.11,192.83 311.38,192.83 314.66,192.83 317.93,192.83 321.20,192.83 324.48,192.83 327.75,192.83 331.03,192.83 334.30,192.83 337.58,192.83 340.85,192.83 344.12,192.83 347.40,192.83 350.67,192.83 353.95,192.83 357.22,192.83 360.49,192.83 363.77,192.83 367.04,192.83 370.32,192.83 373.59,192.83 376.86,192.83 380.14,192.83 383.41,192.83 386.69,192.83 389.96,192.83 393.24,192.83 396.51,192.83 399.78,192.83 403.06,192.83 406.33,192.83 409.61,192.83 412.88,192.83 416.15,192.83 419.43,192.83 422.70,192.83 425.98,192.83 429.25,192.83 432.53,192.83 435.80,192.83 439.07,192.83 442.35,192.83 445.62,192.83 448.90,192.83 452.17,192.83 455.44,192.83 458.72,192.83 461.99,192.83 465.27,192.83 468.54,192.83 471.81,192.83 475.09,192.83 478.36,192.83 481.64,192.83 484.91,192.83 488.19,192.83 491.46,192.83 494.73,192.83 498.01,192.83 501.28,192.83 504.56,192.83 507.83,192.83 511.10,192.83 514.38,192.83 517.65,192.83 520.93,192.83 524.20,192.83 527.47,192.83 530.75,192.83 534.02,192.83 537.30,192.83 540.57,192.83 543.85,192.83 547.12,192.83 550.39,192.83 553.67,192.83 556.94,192.83 560.22,192.83 563.49,192.83 566.76,192.83 570.04,192.83 573.31,192.83 576.59,192.83 579.86,192.83 583.14,192.83 586.41,192.83 589.68,192.83 592.96,192.83 596.23,192.83 599.51,192.83 602.78,192.83 606.05,192.83 609.33,192.83 612.60,192.83 615.88,192.83 619.15,192.83 622.42,192.83 625.70,192.83 628.97,192.83 632.25,192.83 635.52,192.83 638.80,192.83 642.07,192.83 645.34,192.83 648.62,192.83 651.89,192.83 655.17,192.83 658.44,192.83 661.71,192.83 664.99,192.83 668.26,192.83 671.54,192.83 674.81,192.83 678.08,192.83 681.36,192.83 684.63,192.83 687.91,192.83 691.18,192.83 694.46,192.83 697.73,192.83 701.00,192.83 704.28,192.83 707.55,192.83 710.83,192.83 714.10,192.83 717.37,192.83 720.65,192.83 723.92,192.83 727.20,192.83 730.47,192.83 733.75,192.83 737.02,192.83 740.29,192.83 743.57,192.83 746.84,192.83 750.12,192.83 753.39,192.83 756.66,192.83 759.94,192.83 763.21,192.83 766.49,192.83 769.76,192.83 773.03,192.83 776.31,192.83 779.58,192.83 782.86,192.83 786.13,192.83 789.41,192.83 792.68,192.83 795.95,192.83 799.23,192.83 802.50,192.83 805.78,192.83 809.05,192.83 812.32,192.83 815.60,192.83 818.87,192.83 822.15,192.83 825.42,192.83 828.69,192.83 831.97,192.83 835.24,192.83 838.52,192.83 841.79,192.83 845.07,192.83 848.34,192.83 851.61,192.83 854.89,192.83 858.16,192.83 861.44,192.83 864.71,192.83 867.98,192.83 871.26,192.83 874.53,192.83 877.81,192.83 881.08,192.83 884.36,192.83 887.63,192.83 890.90,192.83 894.18,192.83 897.45,192.83 900.73,192.83 904.00,192.83" />
<text x="780.00" y="82.00" font-size="14" font-family="Arial" fill="#1f77b4" text-anchor="start">MA200</text>
<polyline fill="none" stroke="#2ca02c" stroke-width="2" points="56.00,192.83 59.27,192.83 62.55,192.83 65.82,192.83 69.10,192.83 72.37,192.83 75.64,192.83 78.92,192.83 82.19,192.83 85.47,192.83 88.74,192.83 92.02,192.83 95.29,192.83 98.56,192.83 101.84,192.83 105.11,192.83 108.39,192.83 111.66,192.83 114.93,192.83 118.21,192.83 121.48,192.83 124.76,192.83 128.03,192.83 131.31,192.83 134.58,192.83 137.85,192.83 141.13,192.83 144.40,192.83 147.68,192.83 150.95,192.83 154.22,192.83 157.50,192.83 160.77,192.83 164.05,192.83 167.32,192.83 170.59,192.83 173.87,192.83 177.14,192.83 180.42,192.83 183.69,192.83 186.97,192.83 190.24,192.83 193.51,192.83 196.79,192.83 200.06,192.83 203.34,192.83 206.61,192.83 209.88,192.83 213.16,192.83 216.43,192.83 219.71,192.83 222.98,192.83 226.25,192.83 229.53,192.83 232.80,192.83 236.08,192.83 239.35,192.83 242.63,192.83 245.90,192.83 249.17,192.83 252.45,192.11 255.72,190.27 259.00,182.86 262.27,182.53 265.54,184.50 268.82,189.68 272.09,186.66 275.37,185.42 278.64,178.86 281.92,173.42 285.19,163.78 288.46,166.86 291.74,162.66 295.01,168.89 298.29,170.47 301.56,164.70 304.83,155.45 308.11,161.55 311.38,155.39 314.66,154.93 317.93,157.55 321.20,160.50 324.48,151.52 327.75,153.55 331.03,146.01 334.30,146.01 337.58,144.43 340.85,147.65 344.12,149.48 347.40,154.40 350.67,152.76 353.95,157.16 357.22,151.45 360.49,154.40 363.77,152.17 367.04,153.75 370.32,161.09 373.59,440.34 376.86,441.03 380.14,441.03 383.41,441.03 386.69,441.03 389.96,441.03 393.24,441.03 396.51,441.03 399.78,441.03 403.06,441.03 406.33,441.03 409.61,441.03 412.88,441.03 416.15,441.03 419.43,441.03 422.70,441.03 425.98,441.03 429.25,441.03 432.53,441.03 435.80,441.03 439.07,441.03 442.35,441.03 445.62,441.03 448.90,441.03 452.17,441.03 455.44,441.03 458.72,441.03 461.99,441.03 465.27,441.03 468.54,441.03 471.81,441.03 475.09,441.03 478.36,441.03 481.64,441.03 484.91,441.03 488.19,441.03 491.46,441.03 494.73,441.03 498.01,441.03 501.28,441.03 504.56,441.03 507.83,441.03 511.10,441.03 514.38,441.03 517.65,441.03 520.93,441.03 524.20,441.03 527.47,441.03 530.75,441.03 534.02,441.03 537.30,441.03 540.57,441.03 543.85,441.03 547.12,441.03 550.39,441.03 553.67,441.03 556.94,441.03 560.22,441.03 563.49,441.03 566.76,439.91 570.04,438.74 573.31,439.02 576.59,437.47 579.86,436.32 583.14,436.28 586.41,436.82 589.68,437.96 592.96,440.13 596.23,438.97 599.51,439.23 602.78,441.56 606.05,440.32 609.33,438.33 612.60,439.18 615.88,439.55 619.15,439.68 622.42,439.15 625.70,438.34 628.97,439.29 632.25,439.59 635.52,440.80 638.80,440.77 642.07,439.78 645.34,439.96 648.62,440.38 651.89,441.26 655.17,442.14 658.44,440.14 661.71,441.10 664.99,440.34 668.26,437.82 671.54,437.87 674.81,436.78 678.08,436.86 681.36,435.32 684.63,434.41 687.91,433.89 691.18,434.57 694.46,434.20 697.73,433.40 701.00,433.07 704.28,432.96 707.55,430.44 710.83,428.13 714.10,429.26 717.37,430.06 720.65,430.49 723.92,427.54 727.20,427.54 730.47,426.79 733.75,425.24 737.02,425.72 740.29,425.88 743.57,425.93 746.84,426.74 750.12,426.26 753.39,426.95 756.66,427.06 759.94,428.19 763.21,428.56 766.49,426.47 769.76,425.13 773.03,423.04 776.31,423.41 779.58,422.12 782.86,423.25 786.13,421.00 789.41,420.41 792.68,419.71 795.95,418.74 799.23,420.14 802.50,421.53 805.78,423.84 809.05,422.45 812.32,424.48 815.60,424.59 818.87,423.04 822.15,420.89 825.42,420.62 828.69,420.30 831.97,419.60 835.24,416.97 838.52,417.67 841.79,419.33 845.07,419.39 848.34,421.96 851.61,421.16 854.89,419.01 858.16,417.89 861.44,418.21 864.71,418.80 867.98,418.80 871.26,420.25 874.53,420.30 877.81,420.46 881.08,420.46 884.36,420.35 887.63,421.37 890.90,420.19 894.18,420.25 897.45,424.86 900.73,425.18 904.00,422.29" />
<text x="780.00" y="104.00" font-size="14" font-family="Arial" fill="#2ca02c" text-anchor="start">MA20x60</text>
</svg>