<svg xmlns="http://www.w3.org/2000/svg" width="960" height="520" viewBox="0 0 960 520"><rect width="100%" height="100%" fill="white" />
<text x="56.00" y="32.00" font-size="20" font-family="Arial" fill="#1f2933" text-anchor="start">富邦金(2881) Backtest Equity Curves</text>
<line x1="56" y1="464" x2="904" y2="464" stroke="#cbd2d9" />
<line x1="56" y1="56" x2="56" y2="464" stroke="#cbd2d9" />
<text x="16.00" y="38.00" font-size="12" font-family="Arial" fill="#52606d" text-anchor="start">Equity Multiple</text>
<line x1="56" y1="464.00" x2="904" y2="464.00" stroke="#edf2f7" />
<line x1="52" y1="464.00" x2="56" y2="464.00" stroke="#9fb3c8" />
<text x="48.00" y="468.00" font-size="11" font-family="Arial" fill="#52606d" text-anchor="end">0.92</text>
<line x1="56" y1="362.00" x2="904" y2="362.00" stroke="#edf2f7" />
<line x1="52" y1="362.00" x2="56" y2="362.00" stroke="#9fb3c8" />
<text x="48.00" y="366.00" font-size="11" font-family="Arial" fill="#52606d" text-anchor="end">1.13</text>
<line x1="56" y1="260.00" x2="904" y2="260.00" stroke="#edf2f7" />
<line x1="52" y1="260.00" x2="56" y2="260.00" stroke="#9fb3c8" />
<text x="48.00" y="264.00" font-size="11" font-family="Arial" fill="#52606d" text-anchor="end">1.33</text>
<line x1="56" y1="158.00" x2="904" y2="158.00" stroke="#edf2f7" />
<line x1="52" y1="158.00" x2="56" y2="158.00" stroke="#9fb3c8" />
<text x="48.00" y="162.00" font-size="11" font-family="Arial" fill="#52606d" text-anchor="end">1.54</text>
<line x1="56" y1="56.00" x2="904" y2="56.00" stroke="#edf2f7" />
<line x1="52" y1="56.00" x2="56" y2="56.00" stroke="#9fb3c8" />
<text x="48.00" y="60.00" font-size="11" font-family="Arial" fill="#52606d" text-anchor="end">1.75</text>
<line x1="56.00" y1="464" x2="56.00" y2="468" stroke="#9fb3c8" />
<text x="56.00" y="482.00" font-size="11" font-family="Arial" fill="#52606d" text-anchor="middle">06/10</text>
<line x1="226.25" y1="464" x2="226.25" y2="468" stroke="#9fb3c8" />
<text x="226.25" y="482.00" font-size="11" font-family="Arial" fill="#52606d" text-anchor="middle">08/22</text>
<line x1="396.51" y1="464" x2="396.51" y2="468" stroke="#9fb3c8" />
<text x="396.51" y="482.00" font-size="11" font-family="Arial" fill="#52606d" text-anchor="middle">11/10</text>
<line x1="563.49" y1="464" x2="563.49" y2="468" stroke="#9fb3c8" />
<text x="563.49" y="482.00" font-size="11" font-family="Arial" fill="#52606d" text-anchor="middle">01/22</text>
<line x1="733.75" y1="464" x2="733.75" y2="468" stroke="#9fb3c8" />
<text x="733.75" y="482.00" font-size="11" font-family="Arial" fill="#52606d" text-anchor="middle">04/20</text>
<line x1="904.00" y1="464" x2="904.00" y2="468" stroke="#9fb3c8" />
<text x="904.00" y="482.00" font-size="11" font-family="Arial" fill="#52606d" text-anchor="middle">07/03</text>
<polyline fill="none" stroke="#7f7f7f" stroke-width="2" points="56.00,423.65 59.27,410.16 62.55,424.77 65.82,430.39 69.10,433.20 72.37,434.33 75.64,425.33 78.92,429.27 82.19,439.38 85.47,440.51 88.74,432.64 92.02,434.89 95.29,432.64 98.56,432.64 101.84,425.90 105.11,425.01 108.39,426.78 111.66,426.19 114.93,438.01 118.21,432.10 121.48,436.83 124.76,442.14 128.03,430.33 131.31,428.56 134.58,428.56 137.85,423.24 141.13,417.92 144.40,419.69 147.68,422.06 150.95,425.60 154.22,429.15 157.50,421.47 160.77,422.65 164.05,423.83 167.32,427.37 170.59,432.10 173.87,428.56 177.14,429.74 180.42,420.28 183.69,420.28 186.97,417.92 190.24,415.56 193.51,413.19 196.79,407.29 200.06,404.33 203.34,400.20 206.61,391.93 209.88,391.93 213.16,390.75 216.43,396.06 219.71,403.15 222.98,394.88 226.25,397.24 229.53,387.20 232.80,401.97 236.08,410.24 239.35,413.19 242.63,420.87 245.90,417.33 249.17,403.74 252.45,408.47 255.72,405.51 259.00,402.56 262.27,408.47 265.54,406.11 268.82,399.02 272.09,403.15 275.37,393.70 278.64,391.93 281.92,391.93 285.19,392.52 288.46,394.88 291.74,397.83 295.01,393.11 298.29,394.29 301.56,390.75 304.83,395.77 308.11,392.74 311.38,381.84 314.66,387.29 317.93,387.29 321.20,392.74 324.48,390.32 327.75,384.26 331.03,372.76 334.30,384.87 337.58,382.45 340.85,373.97 344.12,372.76 347.40,374.57 350.67,377.00 353.95,367.91 357.22,361.86 360.49,360.04 363.77,358.83 367.04,366.10 370.32,360.65 373.59,357.01 376.86,364.28 380.14,359.43 383.41,356.41 386.69,367.91 389.96,360.65 393.24,368.52 396.51,367.91 399.78,365.49 403.06,361.25 406.33,347.32 409.61,351.56 412.88,360.65 416.15,374.57 419.43,383.05 422.70,375.78 425.98,379.42 429.25,359.43 432.53,353.98 435.80,352.17 439.07,347.93 442.35,355.80 445.62,360.65 448.90,358.83 452.17,352.77 455.44,343.08 458.72,341.87 461.99,338.24 465.27,333.40 468.54,340.06 471.81,340.66 475.09,330.37 478.36,337.64 481.64,335.21 484.91,327.34 488.19,330.37 491.46,327.34 494.73,321.89 498.01,322.50 501.28,323.10 504.56,329.16 507.83,321.89 511.10,329.16 514.38,334.61 517.65,337.64 520.93,327.95 524.20,332.79 527.47,334.61 530.75,329.16 534.02,338.24 537.30,341.27 540.57,346.11 543.85,348.53 547.12,346.72 550.39,341.27 553.67,341.27 556.94,347.32 560.22,353.38 563.49,353.38 566.76,350.35 570.04,352.17 573.31,357.01 576.59,356.41 579.86,357.62 583.14,366.10 586.41,368.52 589.68,360.65 592.96,355.20 596.23,350.35 599.51,357.01 602.78,348.53 606.05,344.30 609.33,340.06 612.60,337.03 615.88,346.72 619.15,353.98 622.42,346.11 625.70,353.38 628.97,352.77 632.25,372.76 635.52,368.52 638.80,378.81 642.07,388.50 645.34,381.84 648.62,376.39 651.89,375.18 655.17,383.05 658.44,378.81 661.71,372.76 664.99,374.57 668.26,382.45 671.54,380.02 674.81,390.92 678.08,389.11 681.36,378.81 684.63,380.02 687.91,385.47 691.18,393.34 694.46,395.77 697.73,384.87 701.00,384.87 704.28,385.47 707.55,376.39 710.83,380.63 714.10,386.08 717.37,391.53 720.65,386.08 723.92,386.68 727.20,384.26 730.47,383.66 733.75,388.50 737.02,385.47 740.29,381.84 743.57,381.84 746.84,384.87 750.12,384.26 753.39,380.02 756.66,363.67 759.94,371.55 763.21,365.49 766.49,358.22 769.76,354.59 773.03,344.30 776.31,330.97 779.58,338.24 782.86,349.14 786.13,343.08 789.41,343.69 792.68,334.61 795.95,340.06 799.23,327.95 802.50,336.42 805.78,334.61 809.05,340.66 812.32,324.92 815.60,289.80 818.87,250.44 822.15,250.44 825.42,250.44 828.69,247.41 831.97,229.24 835.24,232.27 838.52,226.22 841.79,201.99 845.07,214.10 848.34,159.61 851.61,174.74 854.89,156.58 858.16,177.77 861.44,144.47 864.71,117.22 867.98,96.02 871.26,80.88 874.53,77.86 877.81,83.91 881.08,102.08 884.36,93.00 887.63,105.11 890.90,138.41 894.18,132.36 897.45,149.57 900.73,168.36 904.00,158.96" />
<text x="780.00" y="60.00" font-size="14" font-family="Arial" fill="#7f7f7f" text-anchor="start">BuyHold</text>
<polyline fill="none" stroke="#1f77b4" stroke-width="2" points="56.00,423.65 59.27,423.65 62.55,423.65 65.82,423.65 69.10,423.65 72.37,423.65 75.64,423.65 78.92,423.65 82.19,423.65 85.47,423.65 88.74,423.65 92.02,423.65 95.29,423.65 98.56,423.65 101.84,423.65 105.11,423.65 108.39,423.65 111.66,423.65 114.93,423.65 118.21,423.65 121.48,423.65 124.76,423.65 128.03,423.65 131.31,423.65 134.58,423.65 137.85,423.65 141.13,423.65 144.40,423.65 147.68,423.65 150.95,423.65 154.22,423.65 157.50,423.65 160.77,423.65 164.05,423.65 167.32,423.65 170.59,423.65 173.87,423.65 177.14,423.65 180.42,423.65 183.69,423.65 186.97,423.65 190.24,423.65 193.51,423.65 196.79,423.65 200.06,423.65 203.34,423.65 206.61,423.65 209.88,423.65 213.16,423.65 216.43,423.65 219.71,423.65 222.98,423.65 226.25,423.65 229.53,423.65 232.80,423.65 236.08,423.65 239.35,423.65 242.63,423.65 245.90,423.65 249.17,423.65 252.45,423.65 255.72,423.65 259.00,423.65 262.27,423.65 265.54,423.65 268.82,423.65 272.09,423.65 275.37,423.65 278.64,423.65 281.92,423.65 285.19,423.65 288.46,423.65 291.74,423.65 295.01,423.65 298.29,423.65 301.56,423.65 304.83,423.65 308.11,423.65 311.38,423.65 314.66,423.65 317.93,423.65 321.20,423.65 324.48,423.65 327.75,423.65 331.03,423.65 334.30,423.65 337.58,423.65 340.85,423.65 344.12,423.65 347.40,423.65 350.67,423.65 353.95,423.65 357.22,423.65 360.49,423.65 363.77,423.65 367.04,423.65 370.32,423.65 373.59,423.65 376.86,423.65 380.14,423.65 383.41,423.65 386.69,423.65 389.96,423.65 393.24,423.65 396.51,423.65 399.78,423.65 403.06,423.65 406.33,423.65 409.61,423.65 412.88,423.65 416.15,423.65 419.43,423.65 422.70,423.65 425.98,423.65 429.25,423.65 432.53,423.65 435.80,423.65 439.07,423.65 442.35,423.65 445.62,423.65 448.90,423.65 452.17,423.65 455.44,423.65 458.72,423.65 461.99,423.65 465.27,423.65 468.54,423.65 471.81,423.65 475.09,423.65 478.36,423.65 481.64,423.65 484.91,423.65 488.19,423.65 491.46,423.65 494.73,423.65 498.01,423.65 501.28,423.65 504.56,423.65 507.83,423.65 511.10,423.65 514.38,423.65 517.65,423.65 520.93,423.65 524.20,423.65 527.47,423.65 530.75,423.65 534.02,423.65 537.30,423.65 540.57,423.65 543.85,423.65 547.12,423.65 550.39,423.65 553.67,423.65 556.94,423.65 560.22,423.65 563.49,423.65 566.76,423.65 570.04,423.65 573.31,423.65 576.59,423.65 579.86,423.65 583.14,423.65 586.41,423.65 589.68,423.65 592.96,423.65 596.23,423.65 599.51,423.65 602.78,423.65 606.05,423.65 609.33,423.65 612.60,423.65 615.88,423.65 619.15,423.65 622.42,423.65 625.70,423.65 628.97,423.65 632.25,423.65 635.52,423.65 638.80,423.65 642.07,423.65 645.34,423.65 648.62,423.65 651.89,423.65 655.17,423.65 658.44,423.65 661.71,423.65 664.99,423.65 668.26,423.65 671.54,423.65 674.81,423.65 678.08,423.65 681.36,423.65 684.63,423.65 687.91,423.65 691.18,423.65 694.46,423.65 697.73,423.65 701.00,423.65 704.28,423.65 707.55,423.65 710.83,427.52 714.10,432.49 717.37,432.49 720.65,432.49 723.92,432.49 727.20,432.49 730.47,432.49 733.75,432.49 737.02,432.49 740.29,432.49 743.57,432.49 746.84,432.49 750.12,432.49 753.39,432.49 756.66,432.49 759.94,439.38 763.21,434.08 766.49,427.72 769.76,424.54 773.03,415.52 776.31,403.86 779.58,410.22 782.86,419.77 786.13,414.46 789.41,414.99 792.68,407.04 795.95,411.81 799.23,401.21 802.50,408.63 805.78,407.04 809.05,412.34 812.32,398.56 815.60,367.81 818.87,333.35 822.15,333.35 825.42,333.35 828.69,330.70 831.97,314.79 835.24,317.44 838.52,312.14 841.79,290.93 845.07,301.54 848.34,253.82 851.61,267.08 854.89,251.17 858.16,269.73 861.44,240.57 864.71,216.71 867.98,198.15 871.26,184.90 874.53,182.25 877.81,187.55 881.08,203.46 884.36,195.50 887.63,206.11 890.90,235.27 894.18,229.96 897.45,245.04 900.73,261.48 904.00,253.26" />
<text x="780.00" y="82.00" font-size="14" font-family="Arial" fill="#1f77b4" text-anchor="start">MA200</text>
<polyline fill="none" stroke="#2ca02c" stroke-width="2" points="56.00,423.65 59.27,423.65 62.55,423.65 65.82,423.65 69.10,423.65 72.37,423.65 75.64,423.65 78.92,423.65 82.19,423.65 85.47,423.65 88.74,423.65 92.02,423.65 95.29,423.65 98.56,423.65 101.84,423.65 105.11,423.65 108.39,423.65 111.66,423.65 114.93,423.65 118.21,423.65 121.48,423.65 124.76,423.65 128.03,423.65 131.31,423.65 134.58,423.65 137.85,423.65 141.13,423.65 144.40,423.65 147.68,423.65 150.95,423.65 154.22,423.65 157.50,423.65 160.77,423.65 164.05,423.65 167.32,423.65 170.59,423.65 173.87,423.65 177.14,423.65 180.42,423.65 183.69,423.65 186.97,423.65 190.24,423.65 193.51,423.65 196.79,423.65 200.06,423.65 203.34,423.65 206.61,423.65 209.88,423.65 213.16,423.65 216.43,423.65 219.71,423.65 222.98,423.65 226.25,423.65 229.53,423.65 232.80,423.65 236.08,423.65 239.35,423.65 242.63,423.65 245.90,423.65 249.17,423.65 252.45,428.19 255.72,425.35 259.00,422.51 262.27,428.19 265.54,425.92 268.82,419.11 272.09,423.08 275.37,414.00 278.64,412.29 281.92,412.29 285.19,412.86 288.46,415.13 291.74,417.97 295.01,413.43 298.29,414.56 301.56,411.16 304.83,415.98 308.11,413.07 311.38,402.60 314.66,407.83 317.93,407.83 321.20,413.07 324.48,410.74 327.75,404.92 331.03,393.87 334.30,405.51 337.58,403.18 340.85,395.03 344.12,393.87 347.40,395.61 350.67,397.94 353.95,389.21 357.22,383.39 360.49,381.64 363.77,380.48 367.04,387.46 370.32,382.22 373.59,378.73 376.86,385.72 380.14,381.06 383.41,378.15 386.69,389.21 389.96,382.22 393.24,389.79 396.51,389.21 399.78,386.88 403.06,382.81 406.33,369.42 409.61,373.49 412.88,382.22 416.15,395.61 419.43,403.76 422.70,396.78 425.98,400.27 429.25,381.06 432.53,375.82 435.80,374.08 439.07,370.00 442.35,377.57 445.62,382.22 448.90,380.48 452.17,374.66 455.44,365.35 458.72,364.18 461.99,360.69 465.27,356.03 468.54,362.44 471.81,363.02 475.09,353.12 478.36,360.11 481.64,357.78 484.91,350.21 488.19,353.12 491.46,350.21 494.73,344.97 498.01,345.56 501.28,346.14 504.56,351.96 507.83,344.97 511.10,351.96 514.38,357.20 517.65,360.11 520.93,350.79 524.20,355.45 527.47,357.20 530.75,351.96 534.02,360.69 537.30,363.60 540.57,368.26 543.85,370.58 547.12,368.84 550.39,363.60 553.67,363.60 556.94,369.42 560.22,375.24 563.49,375.24 566.76,372.33 570.04,374.08 573.31,378.73 576.59,378.15 579.86,379.31 583.14,387.46 586.41,389.79 589.68,389.79 592.96,389.79 596.23,389.79 599.51,389.79 602.78,389.79 606.05,389.79 609.33,389.79 612.60,389.79 615.88,389.79 619.15,389.79 622.42,389.79 625.70,389.79 628.97,389.79 632.25,389.79 635.52,389.79 638.80,389.79 642.07,389.79 645.34,389.79 648.62,389.79 651.89,389.79 655.17,389.79 658.44,389.79 661.71,389.79 664.99,389.79 668.26,389.79 671.54,389.79 674.81,389.79 678.08,389.79 681.36,389.79 684.63,389.79 687.91,389.79 691.18,389.79 694.46,389.79 697.73,389.79 701.00,389.79 704.28,389.79 707.55,389.79 710.83,389.79 714.10,389.79 717.37,389.79 720.65,389.79 723.92,389.79 727.20,389.79 730.47,389.79 733.75,389.79 737.02,389.79 740.29,389.79 743.57,389.79 746.84,389.79 750.12,389.79 753.39,389.79 756.66,389.79 759.94,389.79 763.21,389.79 766.49,389.79 769.76,389.79 773.03,389.79 776.31,389.79 779.58,389.79 782.86,389.79 786.13,384.17 789.41,384.73 792.68,376.30 795.95,381.36 799.23,370.12 802.50,377.99 805.78,376.30 809.05,381.92 812.32,367.30 815.60,334.70 818.87,298.16 822.15,298.16 825.42,298.16 828.69,295.35 831.97,278.48 835.24,281.29 838.52,275.67 841.79,253.19 845.07,264.43 848.34,213.84 851.61,227.89 854.89,211.02 858.16,230.70 861.44,199.78 864.71,174.48 867.98,154.81 871.26,140.75 874.53,137.94 877.81,143.57 881.08,160.43 884.36,152.00 887.63,163.24 890.90,194.16 894.18,188.54 897.45,204.52 900.73,221.96 904.00,213.24" />
<text x="780.00" y="104.00" font-size="14" font-family="Arial" fill="#2ca02c" text-anchor="start">MA20x60</text>
</svg>