<svg xmlns="http://www.w3.org/2000/svg" width="960" height="520" viewBox="0 0 960 520"><rect width="100%" height="100%" fill="white" />
<text x="56.00" y="32.00" font-size="20" font-family="Arial" fill="#1f2933" text-anchor="start">緯創(3231) Backtest Equity Curves</text>
<line x1="56" y1="464" x2="904" y2="464" stroke="#cbd2d9" />
<line x1="56" y1="56" x2="56" y2="464" stroke="#cbd2d9" />
<text x="16.00" y="38.00" font-size="12" font-family="Arial" fill="#52606d" text-anchor="start">Equity Multiple</text>
<line x1="56" y1="464.00" x2="904" y2="464.00" stroke="#edf2f7" />
<line x1="52" y1="464.00" x2="56" y2="464.00" stroke="#9fb3c8" />
<text x="48.00" y="468.00" font-size="11" font-family="Arial" fill="#52606d" text-anchor="end">0.84</text>
<line x1="56" y1="362.00" x2="904" y2="362.00" stroke="#edf2f7" />
<line x1="52" y1="362.00" x2="56" y2="362.00" stroke="#9fb3c8" />
<text x="48.00" y="366.00" font-size="11" font-family="Arial" fill="#52606d" text-anchor="end">1.05</text>
<line x1="56" y1="260.00" x2="904" y2="260.00" stroke="#edf2f7" />
<line x1="52" y1="260.00" x2="56" y2="260.00" stroke="#9fb3c8" />
<text x="48.00" y="264.00" font-size="11" font-family="Arial" fill="#52606d" text-anchor="end">1.26</text>
<line x1="56" y1="158.00" x2="904" y2="158.00" stroke="#edf2f7" />
<line x1="52" y1="158.00" x2="56" y2="158.00" stroke="#9fb3c8" />
<text x="48.00" y="162.00" font-size="11" font-family="Arial" fill="#52606d" text-anchor="end">1.47</text>
<line x1="56" y1="56.00" x2="904" y2="56.00" stroke="#edf2f7" />
<line x1="52" y1="56.00" x2="56" y2="56.00" stroke="#9fb3c8" />
<text x="48.00" y="60.00" font-size="11" font-family="Arial" fill="#52606d" text-anchor="end">1.68</text>
<line x1="56.00" y1="464" x2="56.00" y2="468" stroke="#9fb3c8" />
<text x="56.00" y="482.00" font-size="11" font-family="Arial" fill="#52606d" text-anchor="middle">06/20</text>
<line x1="226.25" y1="464" x2="226.25" y2="468" stroke="#9fb3c8" />
<text x="226.25" y="482.00" font-size="11" font-family="Arial" fill="#52606d" text-anchor="middle">09/03</text>
<line x1="396.51" y1="464" x2="396.51" y2="468" stroke="#9fb3c8" />
<text x="396.51" y="482.00" font-size="11" font-family="Arial" fill="#52606d" text-anchor="middle">11/20</text>
<line x1="563.49" y1="464" x2="563.49" y2="468" stroke="#9fb3c8" />
<text x="563.49" y="482.00" font-size="11" font-family="Arial" fill="#52606d" text-anchor="middle">02/03</text>
<line x1="733.75" y1="464" x2="733.75" y2="468" stroke="#9fb3c8" />
<text x="733.75" y="482.00" font-size="11" font-family="Arial" fill="#52606d" text-anchor="middle">04/30</text>
<line x1="904.00" y1="464" x2="904.00" y2="468" stroke="#9fb3c8" />
<text x="904.00" y="482.00" font-size="11" font-family="Arial" fill="#52606d" text-anchor="middle">07/15</text>
<polyline fill="none" stroke="#7f7f7f" stroke-width="2" points="56.00,385.31 59.27,385.31 62.55,379.20 65.82,356.80 69.10,358.84 72.37,375.13 75.64,369.02 78.92,379.20 82.19,379.20 85.47,375.13 88.74,383.27 92.02,387.34 95.29,385.31 98.56,377.16 101.84,379.20 105.11,381.23 108.39,391.41 111.66,379.20 114.93,387.34 118.21,387.34 121.48,383.27 124.76,385.31 128.03,401.60 131.31,395.49 134.58,391.41 137.85,393.45 141.13,379.20 144.40,377.16 147.68,377.16 150.95,366.98 154.22,381.23 157.50,362.91 160.77,369.02 164.05,364.95 167.32,360.87 170.59,348.66 173.87,354.77 177.14,389.38 180.42,393.45 183.69,393.45 186.97,395.49 190.24,397.52 193.51,405.67 196.79,413.81 200.06,411.78 203.34,405.67 206.61,407.70 209.88,399.56 213.16,399.56 216.43,407.70 219.71,421.96 222.98,419.92 226.25,419.92 229.53,407.70 232.80,397.52 236.08,401.60 239.35,395.49 242.63,379.20 245.90,383.27 249.17,379.20 252.45,381.23 255.72,387.34 259.00,383.27 262.27,379.20 265.54,375.13 268.82,373.09 272.09,369.02 275.37,373.09 278.64,356.80 281.92,346.62 285.19,295.72 288.46,273.32 291.74,259.07 295.01,242.78 298.29,232.60 301.56,255.00 304.83,252.96 308.11,275.36 311.38,305.90 314.66,305.90 317.93,299.79 321.20,312.01 324.48,289.61 327.75,287.57 331.03,283.50 334.30,285.54 337.58,271.29 340.85,265.18 344.12,246.85 347.40,236.67 350.67,255.00 353.95,283.50 357.22,301.83 360.49,307.94 363.77,289.61 367.04,307.94 370.32,303.86 373.59,279.43 376.86,301.83 380.14,281.47 383.41,295.72 386.69,305.90 389.96,309.97 393.24,309.97 396.51,285.54 399.78,301.83 403.06,301.83 406.33,299.79 409.61,287.57 412.88,275.36 416.15,279.43 419.43,293.68 422.70,285.54 425.98,277.39 429.25,273.32 432.53,252.96 435.80,261.11 439.07,259.07 442.35,267.21 445.62,281.47 448.90,283.50 452.17,291.65 455.44,301.83 458.72,305.90 461.99,299.79 465.27,281.47 468.54,271.29 471.81,277.39 475.09,275.36 478.36,271.29 481.64,273.32 484.91,269.25 488.19,255.00 491.46,236.67 494.73,236.67 498.01,238.71 501.28,222.42 504.56,252.96 507.83,261.11 511.10,273.32 514.38,283.50 517.65,273.32 520.93,283.50 524.20,277.39 527.47,303.86 530.75,314.04 534.02,324.22 537.30,316.08 540.57,312.01 543.85,312.01 547.12,320.15 550.39,320.15 553.67,328.30 556.94,336.44 560.22,346.62 563.49,344.58 566.76,342.55 570.04,348.66 573.31,342.55 576.59,334.40 579.86,340.51 583.14,332.37 586.41,340.51 589.68,334.40 592.96,305.90 596.23,314.04 599.51,318.12 602.78,332.37 606.05,358.84 609.33,344.58 612.60,336.44 615.88,348.66 619.15,342.55 622.42,326.26 625.70,328.30 628.97,322.19 632.25,318.12 635.52,322.19 638.80,336.44 642.07,348.66 645.34,338.48 648.62,356.80 651.89,342.55 655.17,346.62 658.44,350.69 661.71,350.69 664.99,356.80 668.26,369.02 671.54,350.69 674.81,358.84 678.08,364.95 681.36,334.40 684.63,328.30 687.91,318.12 691.18,320.15 694.46,312.01 697.73,326.26 701.00,322.19 704.28,312.01 707.55,295.72 710.83,279.43 714.10,281.47 717.37,299.79 720.65,291.65 723.92,287.57 727.20,295.72 730.47,295.72 733.75,309.97 737.02,295.72 740.29,289.61 743.57,271.29 746.84,273.32 750.12,271.29 753.39,301.83 756.66,291.65 759.94,295.72 763.21,305.90 766.49,316.08 769.76,316.08 773.03,328.30 776.31,328.30 779.58,297.75 782.86,279.43 786.13,261.11 789.41,273.32 792.68,277.39 795.95,279.43 799.23,222.42 802.50,159.30 805.78,90.07 809.05,77.86 812.32,151.16 815.60,171.52 818.87,202.06 822.15,193.91 825.42,224.46 828.69,246.85 831.97,232.60 835.24,210.20 838.52,224.46 841.79,206.13 845.07,210.20 848.34,206.13 851.61,222.42 854.89,226.49 858.16,216.31 861.44,244.82 864.71,238.71 867.98,222.42 871.26,218.35 874.53,222.42 877.81,220.38 881.08,224.46 884.36,234.64 887.63,249.41 890.90,257.85 894.18,257.85 897.45,262.07 900.73,266.29 904.00,253.63" />
<text x="780.00" y="60.00" font-size="14" font-family="Arial" fill="#7f7f7f" text-anchor="start">BuyHold</text>
<polyline fill="none" stroke="#1f77b4" stroke-width="2" points="56.00,385.31 59.27,385.31 62.55,385.31 65.82,385.31 69.10,385.31 72.37,385.31 75.64,385.31 78.92,385.31 82.19,385.31 85.47,385.31 88.74,385.31 92.02,385.31 95.29,385.31 98.56,385.31 101.84,385.31 105.11,385.31 108.39,385.31 111.66,385.31 114.93,385.31 118.21,385.31 121.48,385.31 124.76,385.31 128.03,385.31 131.31,385.31 134.58,385.31 137.85,385.31 141.13,385.31 144.40,385.31 147.68,385.31 150.95,385.31 154.22,385.31 157.50,385.31 160.77,385.31 164.05,385.31 167.32,385.31 170.59,385.31 173.87,385.31 177.14,385.31 180.42,385.31 183.69,385.31 186.97,385.31 190.24,385.31 193.51,385.31 196.79,385.31 200.06,385.31 203.34,385.31 206.61,385.31 209.88,385.31 213.16,385.31 216.43,385.31 219.71,385.31 222.98,385.31 226.25,385.31 229.53,385.31 232.80,385.31 236.08,385.31 239.35,385.31 242.63,385.31 245.90,385.31 249.17,385.31 252.45,385.31 255.72,385.31 259.00,385.31 262.27,385.31 265.54,385.31 268.82,385.31 272.09,385.31 275.37,385.31 278.64,385.31 281.92,385.31 285.19,385.31 288.46,385.31 291.74,385.31 295.01,385.31 298.29,385.31 301.56,385.31 304.83,385.31 308.11,385.31 311.38,385.31 314.66,385.31 317.93,385.31 321.20,385.31 324.48,385.31 327.75,385.31 331.03,385.31 334.30,385.31 337.58,385.31 340.85,385.31 344.12,385.31 347.40,385.31 350.67,385.31 353.95,385.31 357.22,385.31 360.49,385.31 363.77,385.31 367.04,385.31 370.32,385.31 373.59,385.31 376.86,385.31 380.14,385.31 383.41,385.31 386.69,385.31 389.96,385.31 393.24,385.31 396.51,385.31 399.78,385.31 403.06,385.31 406.33,385.31 409.61,385.31 412.88,385.31 416.15,385.31 419.43,385.31 422.70,385.31 425.98,385.31 429.25,385.31 432.53,385.31 435.80,385.31 439.07,385.31 442.35,385.31 445.62,385.31 448.90,385.31 452.17,385.31 455.44,385.31 458.72,385.31 461.99,385.31 465.27,385.31 468.54,385.31 471.81,385.31 475.09,385.31 478.36,385.31 481.64,385.31 484.91,385.31 488.19,385.31 491.46,385.31 494.73,385.31 498.01,385.31 501.28,385.31 504.56,385.31 507.83,385.31 511.10,385.31 514.38,385.31 517.65,385.31 520.93,385.31 524.20,385.31 527.47,385.31 530.75,385.31 534.02,385.31 537.30,385.31 540.57,385.31 543.85,385.31 547.12,385.31 550.39,385.31 553.67,385.31 556.94,385.31 560.22,385.31 563.49,385.31 566.76,385.31 570.04,385.31 573.31,385.31 576.59,385.31 579.86,385.31 583.14,385.31 586.41,385.31 589.68,385.31 592.96,385.31 596.23,385.31 599.51,385.31 602.78,385.31 606.05,385.31 609.33,385.31 612.60,385.31 615.88,385.31 619.15,385.31 622.42,385.31 625.70,385.31 628.97,385.31 632.25,385.31 635.52,385.31 638.80,385.31 642.07,385.31 645.34,385.31 648.62,385.31 651.89,385.31 655.17,385.31 658.44,385.31 661.71,385.31 664.99,385.31 668.26,385.31 671.54,385.31 674.81,385.31 678.08,385.31 681.36,385.31 684.63,385.31 687.91,385.31 691.18,385.31 694.46,385.31 697.73,385.31 701.00,385.31 704.28,385.31 707.55,385.31 710.83,371.57 714.10,373.29 717.37,388.74 720.65,381.87 723.92,378.44 727.20,385.31 730.47,385.31 733.75,397.33 737.02,385.31 740.29,380.15 743.57,364.70 746.84,366.42 750.12,364.70 753.39,390.46 756.66,381.87 759.94,385.31 763.21,393.89 766.49,402.48 769.76,402.48 773.03,412.78 776.31,412.78 779.58,412.78 782.86,398.16 786.13,383.53 789.41,393.28 792.68,396.53 795.95,398.16 799.23,352.65 802.50,302.26 805.78,247.01 809.05,237.25 812.32,295.76 815.60,312.02 818.87,336.40 822.15,329.89 825.42,354.27 828.69,372.15 831.97,360.77 835.24,342.90 838.52,354.27 841.79,339.65 845.07,342.90 848.34,339.65 851.61,352.65 854.89,355.90 858.16,347.77 861.44,370.53 864.71,365.65 867.98,352.65 871.26,349.40 874.53,352.65 877.81,351.02 881.08,354.27 884.36,362.40 887.63,374.19 890.90,380.93 894.18,380.93 897.45,384.30 900.73,387.67 904.00,377.56" />
<text x="780.00" y="82.00" font-size="14" font-family="Arial" fill="#1f77b4" text-anchor="start">MA200</text>
<polyline fill="none" stroke="#2ca02c" stroke-width="2" points="56.00,385.31 59.27,385.31 62.55,385.31 65.82,385.31 69.10,385.31 72.37,385.31 75.64,385.31 78.92,385.31 82.19,385.31 85.47,385.31 88.74,385.31 92.02,385.31 95.29,385.31 98.56,385.31 101.84,385.31 105.11,385.31 108.39,385.31 111.66,385.31 114.93,385.31 118.21,385.31 121.48,385.31 124.76,385.31 128.03,385.31 131.31,385.31 134.58,385.31 137.85,385.31 141.13,385.31 144.40,385.31 147.68,385.31 150.95,385.31 154.22,385.31 157.50,385.31 160.77,385.31 164.05,385.31 167.32,385.31 170.59,385.31 173.87,385.31 177.14,385.31 180.42,385.31 183.69,385.31 186.97,385.31 190.24,385.31 193.51,385.31 196.79,385.31 200.06,385.31 203.34,385.31 206.61,385.31 209.88,385.31 213.16,385.31 216.43,385.31 219.71,385.31 222.98,385.31 226.25,385.31 229.53,385.31 232.80,385.31 236.08,385.31 239.35,385.31 242.63,385.31 245.90,385.31 249.17,385.31 252.45,385.31 255.72,385.31 259.00,385.31 262.27,385.31 265.54,385.31 268.82,385.31 272.09,385.31 275.37,385.31 278.64,385.31 281.92,385.31 285.19,385.31 288.46,366.42 291.74,354.40 295.01,340.66 298.29,332.07 301.56,350.96 304.83,349.24 308.11,368.13 311.38,393.89 314.66,393.89 317.93,388.74 321.20,399.04 324.48,380.15 327.75,378.44 331.03,375.00 334.30,376.72 337.58,364.70 340.85,359.55 344.12,344.09 347.40,335.51 350.67,350.96 353.95,375.00 357.22,390.46 360.49,395.61 363.77,380.15 367.04,395.61 370.32,392.18 373.59,371.57 376.86,390.46 380.14,373.29 383.41,385.31 386.69,393.89 389.96,397.33 393.24,397.33 396.51,376.72 399.78,390.46 403.06,390.46 406.33,388.74 409.61,378.44 412.88,368.13 416.15,371.57 419.43,383.59 422.70,376.72 425.98,369.85 429.25,366.42 432.53,349.24 435.80,356.11 439.07,354.40 442.35,361.26 445.62,373.29 448.90,375.00 452.17,381.87 455.44,390.46 458.72,393.89 461.99,388.74 465.27,373.29 468.54,364.70 471.81,369.85 475.09,368.13 478.36,364.70 481.64,366.42 484.91,362.98 488.19,350.96 491.46,335.51 494.73,335.51 498.01,337.22 501.28,323.48 504.56,349.24 507.83,356.11 511.10,366.42 514.38,375.00 517.65,366.42 520.93,375.00 524.20,369.85 527.47,392.18 530.75,400.76 534.02,409.35 537.30,402.48 540.57,399.04 543.85,399.04 547.12,405.91 550.39,405.91 553.67,412.78 556.94,419.65 560.22,419.65 563.49,419.65 566.76,419.65 570.04,419.65 573.31,419.65 576.59,419.65 579.86,419.65 583.14,419.65 586.41,419.65 589.68,419.65 592.96,419.65 596.23,419.65 599.51,419.65 602.78,419.65 606.05,419.65 609.33,419.65 612.60,419.65 615.88,419.65 619.15,419.65 622.42,419.65 625.70,419.65 628.97,419.65 632.25,419.65 635.52,419.65 638.80,419.65 642.07,419.65 645.34,419.65 648.62,419.65 651.89,419.65 655.17,419.65 658.44,419.65 661.71,419.65 664.99,419.65 668.26,419.65 671.54,419.65 674.81,419.65 678.08,419.65 681.36,419.65 684.63,419.65 687.91,419.65 691.18,419.65 694.46,419.65 697.73,419.65 701.00,419.65 704.28,419.65 707.55,419.65 710.83,419.65 714.10,419.65 717.37,419.65 720.65,413.23 723.92,410.01 727.20,416.44 730.47,416.44 733.75,427.68 737.02,416.44 740.29,411.62 743.57,397.16 746.84,398.77 750.12,397.16 753.39,421.26 756.66,413.23 759.94,416.44 763.21,424.47 766.49,432.50 769.76,432.50 773.03,442.14 776.31,442.14 779.58,418.05 782.86,403.59 786.13,389.13 789.41,398.77 792.68,401.98 795.95,403.59 799.23,358.61 802.50,308.81 805.78,254.18 809.05,244.55 812.32,302.38 815.60,318.44 818.87,342.54 822.15,336.12 825.42,360.21 828.69,377.88 831.97,366.64 835.24,348.97 838.52,360.21 841.79,345.75 845.07,348.97 848.34,345.75 851.61,358.61 854.89,361.82 858.16,353.79 861.44,376.28 864.71,371.46 867.98,358.61 871.26,355.39 874.53,358.61 877.81,357.00 881.08,360.21 884.36,368.24 887.63,379.90 890.90,386.56 894.18,386.56 897.45,389.89 900.73,393.22 904.00,383.23" />
<text x="780.00" y="104.00" font-size="14" font-family="Arial" fill="#2ca02c" text-anchor="start">MA20x60</text>
</svg>