<svg xmlns="http://www.w3.org/2000/svg" width="960" height="520" viewBox="0 0 960 520"><rect width="100%" height="100%" fill="white" />
<text x="56.00" y="32.00" font-size="20" font-family="Arial" fill="#1f2933" text-anchor="start">華碩(2357) Backtest Equity Curves</text>
<line x1="56" y1="464" x2="904" y2="464" stroke="#cbd2d9" />
<line x1="56" y1="56" x2="56" y2="464" stroke="#cbd2d9" />
<text x="16.00" y="38.00" font-size="12" font-family="Arial" fill="#52606d" text-anchor="start">Equity Multiple</text>
<line x1="56" y1="464.00" x2="904" y2="464.00" stroke="#edf2f7" />
<line x1="52" y1="464.00" x2="56" y2="464.00" stroke="#9fb3c8" />
<text x="48.00" y="468.00" font-size="11" font-family="Arial" fill="#52606d" text-anchor="end">0.72</text>
<line x1="56" y1="362.00" x2="904" y2="362.00" stroke="#edf2f7" />
<line x1="52" y1="362.00" x2="56" y2="362.00" stroke="#9fb3c8" />
<text x="48.00" y="366.00" font-size="11" font-family="Arial" fill="#52606d" text-anchor="end">0.92</text>
<line x1="56" y1="260.00" x2="904" y2="260.00" stroke="#edf2f7" />
<line x1="52" y1="260.00" x2="56" y2="260.00" stroke="#9fb3c8" />
<text x="48.00" y="264.00" font-size="11" font-family="Arial" fill="#52606d" text-anchor="end">1.11</text>
<line x1="56" y1="158.00" x2="904" y2="158.00" stroke="#edf2f7" />
<line x1="52" y1="158.00" x2="56" y2="158.00" stroke="#9fb3c8" />
<text x="48.00" y="162.00" font-size="11" font-family="Arial" fill="#52606d" text-anchor="end">1.30</text>
<line x1="56" y1="56.00" x2="904" y2="56.00" stroke="#edf2f7" />
<line x1="52" y1="56.00" x2="56" y2="56.00" stroke="#9fb3c8" />
<text x="48.00" y="60.00" font-size="11" font-family="Arial" fill="#52606d" text-anchor="end">1.49</text>
<line x1="56.00" y1="464" x2="56.00" y2="468" stroke="#9fb3c8" />
<text x="56.00" y="482.00" font-size="11" font-family="Arial" fill="#52606d" text-anchor="middle">06/12</text>
<line x1="226.25" y1="464" x2="226.25" y2="468" stroke="#9fb3c8" />
<text x="226.25" y="482.00" font-size="11" font-family="Arial" fill="#52606d" text-anchor="middle">08/26</text>
<line x1="396.51" y1="464" x2="396.51" y2="468" stroke="#9fb3c8" />
<text x="396.51" y="482.00" font-size="11" font-family="Arial" fill="#52606d" text-anchor="middle">11/12</text>
<line x1="563.49" y1="464" x2="563.49" y2="468" stroke="#9fb3c8" />
<text x="563.49" y="482.00" font-size="11" font-family="Arial" fill="#52606d" text-anchor="middle">01/26</text>
<line x1="733.75" y1="464" x2="733.75" y2="468" stroke="#9fb3c8" />
<text x="733.75" y="482.00" font-size="11" font-family="Arial" fill="#52606d" text-anchor="middle">04/22</text>
<line x1="904.00" y1="464" x2="904.00" y2="468" stroke="#9fb3c8" />
<text x="904.00" y="482.00" font-size="11" font-family="Arial" fill="#52606d" text-anchor="middle">07/07</text>
<polyline fill="none" stroke="#7f7f7f" stroke-width="2" points="56.00,317.58 59.27,316.03 62.55,316.80 65.82,303.62 69.10,299.75 72.37,299.75 75.64,316.80 78.92,320.68 82.19,268.74 85.47,303.62 88.74,323.99 92.02,324.81 95.29,321.55 98.56,316.66 101.84,306.88 105.11,325.62 108.39,337.03 111.66,330.51 114.93,330.51 118.21,323.99 121.48,323.18 124.76,323.18 128.03,332.14 131.31,324.81 134.58,328.88 137.85,324.81 141.13,325.62 144.40,324.81 147.68,338.66 150.95,326.44 154.22,319.10 157.50,312.58 160.77,306.88 164.05,315.84 167.32,314.21 170.59,306.88 173.87,304.44 177.14,295.47 180.42,292.21 183.69,290.58 186.97,292.21 190.24,306.88 193.51,314.21 196.79,324.81 200.06,323.99 203.34,331.33 206.61,330.51 209.88,330.51 213.16,337.03 216.43,336.21 219.71,340.29 222.98,330.51 226.25,326.44 229.53,328.88 232.80,329.70 236.08,331.33 239.35,341.92 242.63,341.92 245.90,337.03 249.17,328.88 252.45,320.73 255.72,320.73 259.00,307.70 262.27,301.99 265.54,283.25 268.82,270.21 272.09,282.44 275.37,288.14 278.64,297.92 281.92,292.21 285.19,301.99 288.46,288.95 291.74,288.95 295.01,288.95 298.29,284.07 301.56,293.84 304.83,299.55 308.11,295.47 311.38,288.95 314.66,288.14 317.93,283.25 321.20,282.44 324.48,294.66 327.75,278.36 331.03,286.51 334.30,288.95 337.58,288.14 340.85,288.14 344.12,287.32 347.40,283.25 350.67,276.73 353.95,277.55 357.22,264.51 360.49,268.58 363.77,268.58 367.04,268.58 370.32,278.36 373.59,283.25 376.86,285.70 380.14,291.40 383.41,291.40 386.69,305.25 389.96,306.07 393.24,307.70 396.51,319.10 399.78,330.51 403.06,330.51 406.33,349.25 409.61,387.55 412.88,385.10 416.15,379.40 419.43,379.40 422.70,369.62 425.98,365.55 429.25,347.62 432.53,348.44 435.80,356.59 439.07,354.96 442.35,351.70 445.62,344.36 448.90,351.70 452.17,350.07 455.44,355.77 458.72,360.66 461.99,361.47 465.27,363.92 468.54,367.18 471.81,370.44 475.09,368.81 478.36,376.14 481.64,394.88 484.91,398.14 488.19,398.14 491.46,401.40 494.73,403.03 498.01,397.33 501.28,403.85 504.56,406.29 507.83,399.77 511.10,394.07 514.38,401.40 517.65,407.11 520.93,403.85 524.20,414.44 527.47,415.25 530.75,401.40 534.02,424.22 537.30,416.07 540.57,421.77 543.85,430.74 547.12,430.74 550.39,430.74 553.67,438.07 556.94,429.92 560.22,426.66 563.49,434.81 566.76,435.62 570.04,430.74 573.31,433.18 576.59,442.14 579.86,439.29 583.14,438.07 586.41,437.25 589.68,437.25 592.96,432.36 596.23,436.44 599.51,417.70 602.78,420.14 606.05,431.55 609.33,426.66 612.60,418.51 615.88,412.81 619.15,414.44 622.42,421.77 625.70,438.88 628.97,424.22 632.25,416.88 635.52,425.03 638.80,413.62 642.07,370.44 645.34,372.88 648.62,366.36 651.89,366.36 655.17,363.10 658.44,362.29 661.71,375.33 664.99,372.07 668.26,387.55 671.54,385.92 674.81,385.92 678.08,378.59 681.36,376.14 684.63,388.36 687.91,398.96 691.18,384.29 694.46,394.07 697.73,398.14 701.00,388.36 704.28,383.48 707.55,375.33 710.83,375.33 714.10,373.70 717.37,370.44 720.65,366.36 723.92,358.22 727.20,353.33 730.47,358.22 733.75,350.07 737.02,359.03 740.29,369.62 743.57,367.18 746.84,367.18 750.12,367.18 753.39,372.88 756.66,364.73 759.94,365.55 763.21,333.77 766.49,325.62 769.76,316.66 773.03,287.32 776.31,297.92 779.58,306.07 782.86,293.03 786.13,323.99 789.41,328.88 792.68,323.18 795.95,324.81 799.23,311.77 802.50,290.58 805.78,268.58 809.05,276.73 812.32,275.10 815.60,282.44 818.87,226.21 822.15,164.29 825.42,96.65 828.69,87.69 831.97,119.47 835.24,112.95 838.52,158.58 841.79,153.69 845.07,197.69 848.34,207.47 851.61,206.66 854.89,200.95 858.16,201.77 861.44,191.99 864.71,203.40 867.98,204.21 871.26,206.66 874.53,218.06 877.81,236.81 881.08,275.10 884.36,273.47 887.63,275.92 890.90,276.78 894.18,268.12 897.45,261.18 900.73,256.85 904.00,271.58" />
<text x="780.00" y="60.00" font-size="14" font-family="Arial" fill="#7f7f7f" text-anchor="start">BuyHold</text>
<polyline fill="none" stroke="#1f77b4" stroke-width="2" points="56.00,317.58 59.27,317.58 62.55,317.58 65.82,317.58 69.10,317.58 72.37,317.58 75.64,317.58 78.92,317.58 82.19,317.58 85.47,317.58 88.74,317.58 92.02,317.58 95.29,317.58 98.56,317.58 101.84,317.58 105.11,317.58 108.39,317.58 111.66,317.58 114.93,317.58 118.21,317.58 121.48,317.58 124.76,317.58 128.03,317.58 131.31,317.58 134.58,317.58 137.85,317.58 141.13,317.58 144.40,317.58 147.68,317.58 150.95,317.58 154.22,317.58 157.50,317.58 160.77,317.58 164.05,317.58 167.32,317.58 170.59,317.58 173.87,317.58 177.14,317.58 180.42,317.58 183.69,317.58 186.97,317.58 190.24,317.58 193.51,317.58 196.79,317.58 200.06,317.58 203.34,317.58 206.61,317.58 209.88,317.58 213.16,317.58 216.43,317.58 219.71,317.58 222.98,317.58 226.25,317.58 229.53,317.58 232.80,317.58 236.08,317.58 239.35,317.58 242.63,317.58 245.90,317.58 249.17,317.58 252.45,317.58 255.72,317.58 259.00,317.58 262.27,317.58 265.54,317.58 268.82,317.58 272.09,317.58 275.37,317.58 278.64,317.58 281.92,317.58 285.19,317.58 288.46,317.58 291.74,317.58 295.01,317.58 298.29,317.58 301.56,317.58 304.83,317.58 308.11,317.58 311.38,317.58 314.66,317.58 317.93,317.58 321.20,317.58 324.48,317.58 327.75,317.58 331.03,317.58 334.30,317.58 337.58,317.58 340.85,317.58 344.12,317.58 347.40,317.58 350.67,317.58 353.95,317.58 357.22,317.58 360.49,317.58 363.77,317.58 367.04,317.58 370.32,317.58 373.59,317.58 376.86,317.58 380.14,317.58 383.41,317.58 386.69,317.58 389.96,317.58 393.24,317.58 396.51,317.58 399.78,317.58 403.06,317.58 406.33,317.58 409.61,317.58 412.88,317.58 416.15,317.58 419.43,317.58 422.70,317.58 425.98,317.58 429.25,317.58 432.53,317.58 435.80,317.58 439.07,317.58 442.35,317.58 445.62,317.58 448.90,317.58 452.17,317.58 455.44,317.58 458.72,317.58 461.99,317.58 465.27,317.58 468.54,317.58 471.81,317.58 475.09,317.58 478.36,317.58 481.64,317.58 484.91,317.58 488.19,317.58 491.46,317.58 494.73,317.58 498.01,317.58 501.28,317.58 504.56,317.58 507.83,317.58 511.10,317.58 514.38,317.58 517.65,317.58 520.93,317.58 524.20,317.58 527.47,317.58 530.75,317.58 534.02,317.58 537.30,317.58 540.57,317.58 543.85,317.58 547.12,317.58 550.39,317.58 553.67,317.58 556.94,317.58 560.22,317.58 563.49,317.58 566.76,317.58 570.04,317.58 573.31,317.58 576.59,317.58 579.86,317.58 583.14,317.58 586.41,317.58 589.68,317.58 592.96,317.58 596.23,317.58 599.51,317.58 602.78,317.58 606.05,317.58 609.33,317.58 612.60,317.58 615.88,317.58 619.15,317.58 622.42,317.58 625.70,317.58 628.97,317.58 632.25,317.58 635.52,317.58 638.80,317.58 642.07,317.58 645.34,317.58 648.62,317.58 651.89,317.58 655.17,317.58 658.44,317.58 661.71,317.58 664.99,317.58 668.26,317.58 671.54,317.58 674.81,317.58 678.08,317.58 681.36,317.58 684.63,317.58 687.91,317.58 691.18,317.58 694.46,317.58 697.73,317.58 701.00,317.58 704.28,317.58 707.55,317.58 710.83,317.58 714.10,317.58 717.37,317.58 720.65,317.58 723.92,317.58 727.20,317.58 730.47,317.58 733.75,317.58 737.02,327.13 740.29,327.13 743.57,327.13 746.84,327.13 750.12,327.13 753.39,327.13 756.66,327.13 759.94,327.13 763.21,327.13 766.49,318.87 769.76,309.79 773.03,280.08 776.31,290.81 779.58,299.06 782.86,285.86 786.13,317.22 789.41,322.17 792.68,316.40 795.95,318.05 799.23,304.84 802.50,283.38 805.78,261.09 809.05,269.35 812.32,267.70 815.60,275.13 818.87,218.17 822.15,155.44 825.42,86.94 828.69,77.86 831.97,110.05 835.24,103.44 838.52,149.67 841.79,144.71 845.07,189.29 848.34,199.19 851.61,198.36 854.89,192.59 858.16,193.41 861.44,183.51 864.71,195.06 867.98,195.89 871.26,198.36 874.53,209.92 877.81,228.90 881.08,267.70 884.36,266.05 887.63,268.52 890.90,269.40 894.18,260.62 897.45,253.60 900.73,249.21 904.00,264.13" />
<text x="780.00" y="82.00" font-size="14" font-family="Arial" fill="#1f77b4" text-anchor="start">MA200</text>
<polyline fill="none" stroke="#2ca02c" stroke-width="2" points="56.00,317.58 59.27,317.58 62.55,317.58 65.82,317.58 69.10,317.58 72.37,317.58 75.64,317.58 78.92,317.58 82.19,317.58 85.47,317.58 88.74,317.58 92.02,317.58 95.29,317.58 98.56,317.58 101.84,317.58 105.11,317.58 108.39,317.58 111.66,317.58 114.93,317.58 118.21,317.58 121.48,317.58 124.76,317.58 128.03,317.58 131.31,317.58 134.58,317.58 137.85,317.58 141.13,317.58 144.40,317.58 147.68,317.58 150.95,317.58 154.22,317.58 157.50,317.58 160.77,317.58 164.05,317.58 167.32,317.58 170.59,317.58 173.87,317.58 177.14,317.58 180.42,317.58 183.69,317.58 186.97,317.58 190.24,317.58 193.51,317.58 196.79,317.58 200.06,317.58 203.34,317.58 206.61,317.58 209.88,317.58 213.16,317.58 216.43,317.58 219.71,317.58 222.98,317.58 226.25,317.58 229.53,317.58 232.80,317.58 236.08,317.58 239.35,317.58 242.63,317.58 245.90,317.58 249.17,317.58 252.45,317.58 255.72,317.58 259.00,317.58 262.27,317.58 265.54,317.58 268.82,317.58 272.09,317.58 275.37,317.58 278.64,317.58 281.92,312.08 285.19,321.50 288.46,308.93 291.74,308.93 295.01,308.93 298.29,304.22 301.56,313.65 304.83,319.15 308.11,315.22 311.38,308.93 314.66,308.15 317.93,303.43 321.20,302.65 324.48,314.43 327.75,298.72 331.03,306.58 334.30,308.93 337.58,308.15 340.85,308.15 344.12,307.36 347.40,303.43 350.67,297.15 353.95,297.94 357.22,285.37 360.49,289.29 363.77,289.29 367.04,289.29 370.32,298.72 373.59,303.43 376.86,305.79 380.14,311.29 383.41,311.29 386.69,324.65 389.96,325.43 393.24,327.00 396.51,338.00 399.78,349.00 403.06,349.00 406.33,367.07 409.61,403.99 412.88,401.64 416.15,401.64 419.43,401.64 422.70,401.64 425.98,401.64 429.25,401.64 432.53,401.64 435.80,401.64 439.07,401.64 442.35,401.64 445.62,401.64 448.90,401.64 452.17,401.64 455.44,401.64 458.72,401.64 461.99,401.64 465.27,401.64 468.54,401.64 471.81,401.64 475.09,401.64 478.36,401.64 481.64,401.64 484.91,401.64 488.19,401.64 491.46,401.64 494.73,401.64 498.01,401.64 501.28,401.64 504.56,401.64 507.83,401.64 511.10,401.64 514.38,401.64 517.65,401.64 520.93,401.64 524.20,401.64 527.47,401.64 530.75,401.64 534.02,401.64 537.30,401.64 540.57,401.64 543.85,401.64 547.12,401.64 550.39,401.64 553.67,401.64 556.94,401.64 560.22,401.64 563.49,401.64 566.76,401.64 570.04,401.64 573.31,401.64 576.59,401.64 579.86,401.64 583.14,401.64 586.41,401.64 589.68,401.64 592.96,401.64 596.23,401.64 599.51,401.64 602.78,401.64 606.05,401.64 609.33,401.64 612.60,401.64 615.88,401.64 619.15,401.64 622.42,401.64 625.70,401.64 628.97,401.64 632.25,401.64 635.52,401.64 638.80,401.64 642.07,401.64 645.34,401.64 648.62,401.64 651.89,401.64 655.17,401.64 658.44,400.89 661.71,412.89 664.99,409.89 668.26,424.13 671.54,422.63 674.81,422.63 678.08,415.88 681.36,413.64 684.63,424.88 687.91,434.63 691.18,421.13 694.46,430.13 697.73,433.88 701.00,424.88 704.28,420.38 707.55,412.89 710.83,412.89 714.10,411.39 717.37,408.39 720.65,404.64 723.92,397.14 727.20,392.64 730.47,397.14 733.75,389.64 737.02,397.89 740.29,407.64 743.57,405.39 746.84,405.39 750.12,405.39 753.39,410.64 756.66,403.14 759.94,403.89 763.21,374.64 766.49,367.14 769.76,358.90 773.03,331.90 776.31,341.65 779.58,349.15 782.86,337.15 786.13,365.64 789.41,370.14 792.68,364.89 795.95,366.39 799.23,354.40 802.50,334.90 805.78,314.65 809.05,322.15 812.32,320.65 815.60,327.40 818.87,275.66 822.15,218.67 825.42,156.44 828.69,148.19 831.97,177.43 835.24,171.43 838.52,213.43 841.79,208.93 845.07,249.42 848.34,258.42 851.61,257.67 854.89,252.42 858.16,253.17 861.44,244.17 864.71,254.67 867.98,255.42 871.26,257.67 874.53,268.16 877.81,285.41 881.08,320.65 884.36,319.15 887.63,321.40 890.90,322.20 894.18,314.22 897.45,307.84 900.73,303.85 904.00,317.41" />
<text x="780.00" y="104.00" font-size="14" font-family="Arial" fill="#2ca02c" text-anchor="start">MA20x60</text>
</svg>