<svg xmlns="http://www.w3.org/2000/svg" width="960" height="520" viewBox="0 0 960 520"><rect width="100%" height="100%" fill="white" />
<text x="56.00" y="32.00" font-size="20" font-family="Arial" fill="#1f2933" text-anchor="start">鴻海(2317) Backtest Equity Curves</text>
<line x1="56" y1="464" x2="904" y2="464" stroke="#cbd2d9" />
<line x1="56" y1="56" x2="56" y2="464" stroke="#cbd2d9" />
<text x="16.00" y="38.00" font-size="12" font-family="Arial" fill="#52606d" text-anchor="start">Equity Multiple</text>
<line x1="56" y1="464.00" x2="904" y2="464.00" stroke="#edf2f7" />
<line x1="52" y1="464.00" x2="56" y2="464.00" stroke="#9fb3c8" />
<text x="48.00" y="468.00" font-size="11" font-family="Arial" fill="#52606d" text-anchor="end">0.89</text>
<line x1="56" y1="362.00" x2="904" y2="362.00" stroke="#edf2f7" />
<line x1="52" y1="362.00" x2="56" y2="362.00" stroke="#9fb3c8" />
<text x="48.00" y="366.00" font-size="11" font-family="Arial" fill="#52606d" text-anchor="end">1.18</text>
<line x1="56" y1="260.00" x2="904" y2="260.00" stroke="#edf2f7" />
<line x1="52" y1="260.00" x2="56" y2="260.00" stroke="#9fb3c8" />
<text x="48.00" y="264.00" font-size="11" font-family="Arial" fill="#52606d" text-anchor="end">1.48</text>
<line x1="56" y1="158.00" x2="904" y2="158.00" stroke="#edf2f7" />
<line x1="52" y1="158.00" x2="56" y2="158.00" stroke="#9fb3c8" />
<text x="48.00" y="162.00" font-size="11" font-family="Arial" fill="#52606d" text-anchor="end">1.77</text>
<line x1="56" y1="56.00" x2="904" y2="56.00" stroke="#edf2f7" />
<line x1="52" y1="56.00" x2="56" y2="56.00" stroke="#9fb3c8" />
<text x="48.00" y="60.00" font-size="11" font-family="Arial" fill="#52606d" text-anchor="end">2.06</text>
<line x1="56.00" y1="464" x2="56.00" y2="468" stroke="#9fb3c8" />
<text x="56.00" y="482.00" font-size="11" font-family="Arial" fill="#52606d" text-anchor="middle">06/24</text>
<line x1="226.25" y1="464" x2="226.25" y2="468" stroke="#9fb3c8" />
<text x="226.25" y="482.00" font-size="11" font-family="Arial" fill="#52606d" text-anchor="middle">09/05</text>
<line x1="396.51" y1="464" x2="396.51" y2="468" stroke="#9fb3c8" />
<text x="396.51" y="482.00" font-size="11" font-family="Arial" fill="#52606d" text-anchor="middle">11/24</text>
<line x1="563.49" y1="464" x2="563.49" y2="468" stroke="#9fb3c8" />
<text x="563.49" y="482.00" font-size="11" font-family="Arial" fill="#52606d" text-anchor="middle">02/05</text>
<line x1="733.75" y1="464" x2="733.75" y2="468" stroke="#9fb3c8" />
<text x="733.75" y="482.00" font-size="11" font-family="Arial" fill="#52606d" text-anchor="middle">05/05</text>
<line x1="904.00" y1="464" x2="904.00" y2="468" stroke="#9fb3c8" />
<text x="904.00" y="482.00" font-size="11" font-family="Arial" fill="#52606d" text-anchor="middle">07/17</text>
<polyline fill="none" stroke="#7f7f7f" stroke-width="2" points="56.00,426.69 59.27,423.41 62.55,421.23 65.82,416.86 69.10,425.60 72.37,415.77 75.64,410.56 78.92,406.04 82.19,412.83 85.47,412.83 88.74,417.35 92.02,412.83 95.29,411.70 98.56,411.70 101.84,413.96 105.11,408.30 108.39,409.43 111.66,406.04 114.93,402.64 118.21,403.77 121.48,410.56 124.76,401.51 128.03,383.40 131.31,382.27 134.58,378.88 137.85,389.06 141.13,389.06 144.40,374.35 147.68,369.82 150.95,359.64 154.22,356.25 157.50,337.01 160.77,337.01 164.05,329.09 167.32,331.35 170.59,327.95 173.87,325.69 177.14,308.72 180.42,301.93 183.69,306.45 186.97,323.43 190.24,310.98 193.51,318.90 196.79,307.58 200.06,304.19 203.34,306.45 206.61,310.98 209.88,316.64 213.16,327.95 216.43,327.95 219.71,323.43 222.98,317.77 226.25,313.24 229.53,316.64 232.80,307.58 236.08,301.93 239.35,291.74 242.63,284.95 245.90,288.35 249.17,289.48 252.45,297.40 255.72,290.61 259.00,292.87 262.27,288.35 265.54,277.03 268.82,272.50 272.09,256.66 275.37,280.42 278.64,288.35 281.92,281.56 285.19,266.84 288.46,264.58 291.74,260.05 295.01,267.98 298.29,275.90 301.56,295.14 304.83,310.98 308.11,309.85 311.38,272.50 314.66,264.58 317.93,237.42 321.20,236.29 324.48,228.37 327.75,236.29 331.03,219.31 334.30,211.39 337.58,188.76 340.85,184.23 344.12,194.42 347.40,208.00 350.67,224.97 353.95,218.18 357.22,215.92 360.49,224.97 363.77,212.52 367.04,219.31 370.32,209.13 373.59,206.87 376.86,231.76 380.14,243.08 383.41,256.66 386.69,258.92 389.96,241.95 393.24,267.98 396.51,279.29 399.78,281.56 403.06,263.45 406.33,254.40 409.61,266.84 412.88,274.77 416.15,274.77 419.43,263.45 422.70,260.05 425.98,254.40 429.25,252.13 432.53,245.34 435.80,248.74 439.07,265.71 442.35,263.45 445.62,275.90 448.90,283.82 452.17,287.21 455.44,288.35 458.72,275.90 461.99,270.24 465.27,270.24 468.54,270.24 471.81,266.84 475.09,254.40 478.36,261.19 481.64,255.53 484.91,252.13 488.19,246.47 491.46,243.08 494.73,237.42 498.01,257.79 501.28,255.53 504.56,260.05 507.83,264.58 511.10,246.47 514.38,248.74 517.65,246.47 520.93,257.79 524.20,271.37 527.47,281.56 530.75,271.37 534.02,275.90 537.30,270.24 540.57,266.84 543.85,266.84 547.12,270.24 550.39,278.16 553.67,291.74 556.94,287.21 560.22,281.56 563.49,289.48 566.76,290.61 570.04,282.69 573.31,277.03 576.59,263.45 579.86,260.05 583.14,252.13 586.41,219.31 589.68,227.24 592.96,236.29 596.23,258.92 599.51,286.08 602.78,270.24 606.05,272.50 609.33,300.79 612.60,303.06 615.88,281.56 619.15,291.74 622.42,291.74 625.70,287.21 628.97,297.40 632.25,301.93 635.52,313.24 638.80,317.77 642.07,333.61 645.34,335.88 648.62,324.56 651.89,323.43 655.17,325.69 658.44,338.14 661.71,352.85 664.99,331.35 668.26,340.40 671.54,342.67 674.81,321.16 678.08,324.56 681.36,323.43 684.63,324.56 687.91,307.58 691.18,307.58 694.46,308.72 697.73,310.98 701.00,307.58 704.28,299.66 707.55,277.03 710.83,267.98 714.10,275.90 717.37,261.19 720.65,266.84 723.92,267.98 727.20,280.42 730.47,262.32 733.75,235.16 737.02,206.87 740.29,203.47 743.57,211.39 746.84,206.87 750.12,211.39 753.39,209.13 756.66,223.84 759.94,214.79 763.21,214.79 766.49,222.71 769.76,234.03 773.03,217.05 776.31,211.39 779.58,186.50 782.86,191.02 786.13,179.71 789.41,181.97 792.68,123.12 795.95,112.94 799.23,94.83 802.50,77.86 805.78,114.07 809.05,133.31 812.32,167.26 815.60,149.15 818.87,181.97 822.15,192.15 825.42,187.63 828.69,171.78 831.97,168.39 835.24,161.60 838.52,169.52 841.79,169.52 845.07,189.89 848.34,197.81 851.61,194.42 854.89,214.79 858.16,219.31 861.44,209.13 864.71,215.92 867.98,220.18 871.26,216.68 874.53,213.19 877.81,224.84 881.08,223.68 884.36,223.68 887.63,223.68 890.90,226.01 894.18,228.34 897.45,220.18 900.73,212.02 904.00,231.83" />
<text x="780.00" y="60.00" font-size="14" font-family="Arial" fill="#7f7f7f" text-anchor="start">BuyHold</text>
<polyline fill="none" stroke="#1f77b4" stroke-width="2" points="56.00,426.69 59.27,426.69 62.55,426.69 65.82,426.69 69.10,426.69 72.37,426.69 75.64,426.69 78.92,426.69 82.19,426.69 85.47,426.69 88.74,426.69 92.02,426.69 95.29,426.69 98.56,426.69 101.84,426.69 105.11,426.69 108.39,426.69 111.66,426.69 114.93,426.69 118.21,426.69 121.48,426.69 124.76,426.69 128.03,426.69 131.31,426.69 134.58,426.69 137.85,426.69 141.13,426.69 144.40,426.69 147.68,426.69 150.95,426.69 154.22,426.69 157.50,426.69 160.77,426.69 164.05,426.69 167.32,426.69 170.59,426.69 173.87,426.69 177.14,426.69 180.42,426.69 183.69,426.69 186.97,426.69 190.24,426.69 193.51,426.69 196.79,426.69 200.06,426.69 203.34,426.69 206.61,426.69 209.88,426.69 213.16,426.69 216.43,426.69 219.71,426.69 222.98,426.69 226.25,426.69 229.53,426.69 232.80,426.69 236.08,426.69 239.35,426.69 242.63,426.69 245.90,426.69 249.17,426.69 252.45,426.69 255.72,426.69 259.00,426.69 262.27,426.69 265.54,426.69 268.82,426.69 272.09,426.69 275.37,426.69 278.64,426.69 281.92,426.69 285.19,426.69 288.46,426.69 291.74,426.69 295.01,426.69 298.29,426.69 301.56,426.69 304.83,426.69 308.11,426.69 311.38,426.69 314.66,426.69 317.93,426.69 321.20,426.69 324.48,426.69 327.75,426.69 331.03,426.69 334.30,426.69 337.58,426.69 340.85,426.69 344.12,426.69 347.40,426.69 350.67,426.69 353.95,426.69 357.22,426.69 360.49,426.69 363.77,426.69 367.04,426.69 370.32,426.69 373.59,426.69 376.86,426.69 380.14,426.69 383.41,426.69 386.69,426.69 389.96,426.69 393.24,426.69 396.51,426.69 399.78,426.69 403.06,426.69 406.33,426.69 409.61,426.69 412.88,426.69 416.15,426.69 419.43,426.69 422.70,426.69 425.98,426.69 429.25,426.69 432.53,426.69 435.80,426.69 439.07,426.69 442.35,426.69 445.62,426.69 448.90,426.69 452.17,426.69 455.44,426.69 458.72,426.69 461.99,426.69 465.27,426.69 468.54,426.69 471.81,426.69 475.09,426.69 478.36,426.69 481.64,426.69 484.91,426.69 488.19,426.69 491.46,426.69 494.73,426.69 498.01,426.69 501.28,426.69 504.56,426.69 507.83,426.69 511.10,426.69 514.38,426.69 517.65,426.69 520.93,426.69 524.20,426.69 527.47,426.69 530.75,426.69 534.02,426.69 537.30,426.69 540.57,426.69 543.85,426.69 547.12,426.69 550.39,426.69 553.67,426.69 556.94,426.69 560.22,426.69 563.49,426.69 566.76,426.69 570.04,426.69 573.31,426.69 576.59,426.69 579.86,426.69 583.14,426.69 586.41,426.69 589.68,426.69 592.96,426.69 596.23,426.69 599.51,426.69 602.78,426.69 606.05,426.69 609.33,426.69 612.60,426.69 615.88,426.69 619.15,426.69 622.42,426.69 625.70,426.69 628.97,426.69 632.25,426.69 635.52,426.69 638.80,426.69 642.07,426.69 645.34,426.69 648.62,426.69 651.89,426.69 655.17,426.69 658.44,426.69 661.71,426.69 664.99,426.69 668.26,426.69 671.54,426.69 674.81,426.69 678.08,426.69 681.36,426.69 684.63,426.69 687.91,426.69 691.18,426.69 694.46,426.69 697.73,426.69 701.00,426.69 704.28,426.69 707.55,426.69 710.83,420.35 714.10,425.90 717.37,415.59 720.65,419.55 723.92,420.35 727.20,429.07 730.47,416.38 733.75,397.35 737.02,377.52 740.29,375.14 743.57,380.69 746.84,377.52 750.12,380.69 753.39,379.11 756.66,389.42 759.94,383.07 763.21,383.07 766.49,388.62 769.76,396.55 773.03,384.66 776.31,380.69 779.58,363.25 782.86,366.42 786.13,358.49 789.41,360.07 792.68,318.83 795.95,311.70 799.23,299.01 802.50,287.11 805.78,312.49 809.05,325.97 812.32,349.76 815.60,337.07 818.87,360.07 822.15,367.21 825.42,364.04 828.69,352.94 831.97,350.56 835.24,345.80 838.52,351.35 841.79,351.35 845.07,365.62 848.34,371.18 851.61,368.80 854.89,383.07 858.16,386.24 861.44,379.11 864.71,383.87 867.98,386.85 871.26,384.40 874.53,381.95 877.81,390.12 881.08,389.30 884.36,389.30 887.63,389.30 890.90,390.93 894.18,392.57 897.45,386.85 900.73,381.13 904.00,395.02" />
<text x="780.00" y="82.00" font-size="14" font-family="Arial" fill="#1f77b4" text-anchor="start">MA200</text>
<polyline fill="none" stroke="#2ca02c" stroke-width="2" points="56.00,426.69 59.27,426.69 62.55,426.69 65.82,426.69 69.10,426.69 72.37,426.69 75.64,426.69 78.92,426.69 82.19,426.69 85.47,426.69 88.74,426.69 92.02,426.69 95.29,426.69 98.56,426.69 101.84,426.69 105.11,426.69 108.39,426.69 111.66,426.69 114.93,426.69 118.21,426.69 121.48,426.69 124.76,426.69 128.03,426.69 131.31,426.69 134.58,426.69 137.85,426.69 141.13,426.69 144.40,426.69 147.68,426.69 150.95,426.69 154.22,426.69 157.50,426.69 160.77,426.69 164.05,426.69 167.32,426.69 170.59,426.69 173.87,426.69 177.14,426.69 180.42,426.69 183.69,426.69 186.97,426.69 190.24,426.69 193.51,426.69 196.79,426.69 200.06,426.69 203.34,426.69 206.61,426.69 209.88,426.69 213.16,426.69 216.43,426.69 219.71,426.69 222.98,426.69 226.25,426.69 229.53,426.69 232.80,426.69 236.08,426.69 239.35,426.69 242.63,426.69 245.90,426.69 249.17,426.69 252.45,432.38 255.72,427.50 259.00,429.13 262.27,425.88 265.54,417.74 268.82,414.49 272.09,403.10 275.37,420.18 278.64,425.88 281.92,421.00 285.19,410.42 288.46,408.80 291.74,405.54 295.01,411.24 298.29,416.93 301.56,430.76 304.83,442.14 308.11,441.33 311.38,414.49 314.66,408.80 317.93,389.28 321.20,388.47 324.48,382.77 327.75,388.47 331.03,376.27 334.30,370.57 337.58,354.31 340.85,351.05 344.12,358.37 347.40,368.13 350.67,380.33 353.95,375.45 357.22,373.83 360.49,380.33 363.77,371.39 367.04,376.27 370.32,368.95 373.59,367.32 376.86,385.21 380.14,393.34 383.41,403.10 386.69,404.73 389.96,392.53 393.24,411.24 396.51,419.37 399.78,421.00 403.06,407.98 406.33,401.48 409.61,410.42 412.88,416.12 416.15,416.12 419.43,407.98 422.70,405.54 425.98,401.48 429.25,399.85 432.53,394.97 435.80,397.41 439.07,397.41 442.35,397.41 445.62,397.41 448.90,397.41 452.17,397.41 455.44,397.41 458.72,397.41 461.99,397.41 465.27,397.41 468.54,397.41 471.81,397.41 475.09,397.41 478.36,397.41 481.64,397.41 484.91,397.41 488.19,397.41 491.46,397.41 494.73,397.41 498.01,397.41 501.28,397.41 504.56,397.41 507.83,397.41 511.10,397.41 514.38,397.41 517.65,397.41 520.93,397.41 524.20,397.41 527.47,397.41 530.75,397.41 534.02,397.41 537.30,397.41 540.57,397.41 543.85,397.41 547.12,397.41 550.39,397.41 553.67,397.41 556.94,397.41 560.22,397.41 563.49,397.41 566.76,397.41 570.04,397.41 573.31,397.41 576.59,397.41 579.86,397.41 583.14,397.41 586.41,397.41 589.68,397.41 592.96,397.41 596.23,397.41 599.51,397.41 602.78,397.41 606.05,397.41 609.33,397.41 612.60,397.41 615.88,397.41 619.15,397.41 622.42,397.41 625.70,397.41 628.97,397.41 632.25,397.41 635.52,397.41 638.80,397.41 642.07,397.41 645.34,397.41 648.62,397.41 651.89,397.41 655.17,397.41 658.44,397.41 661.71,397.41 664.99,397.41 668.26,397.41 671.54,397.41 674.81,397.41 678.08,397.41 681.36,397.41 684.63,397.41 687.91,397.41 691.18,397.41 694.46,397.41 697.73,397.41 701.00,397.41 704.28,397.41 707.55,397.41 710.83,397.41 714.10,397.41 717.37,397.41 720.65,397.41 723.92,397.41 727.20,397.41 730.47,397.41 733.75,397.41 737.02,397.41 740.29,395.15 743.57,400.43 746.84,397.41 750.12,400.43 753.39,398.92 756.66,408.72 759.94,402.69 763.21,402.69 766.49,407.96 769.76,415.50 773.03,404.19 776.31,400.43 779.58,383.85 782.86,386.86 786.13,379.33 789.41,380.83 792.68,341.65 795.95,334.86 799.23,322.81 802.50,311.50 805.78,335.62 809.05,348.43 812.32,371.04 815.60,358.98 818.87,380.83 822.15,387.61 825.42,384.60 828.69,374.05 831.97,371.79 835.24,367.27 838.52,372.54 841.79,372.54 845.07,386.11 848.34,391.38 851.61,389.12 854.89,402.69 858.16,405.70 861.44,398.92 864.71,403.44 867.98,406.28 871.26,403.95 874.53,401.62 877.81,409.38 881.08,408.61 884.36,408.61 887.63,408.61 890.90,410.16 894.18,411.71 897.45,406.28 900.73,406.28 904.00,406.28" />
<text x="780.00" y="104.00" font-size="14" font-family="Arial" fill="#2ca02c" text-anchor="start">MA20x60</text>
</svg>